<?xml version="1.0" standalone="no"?>
<!DOCTYPE svg PUBLIC "-//W3C//DTD SVG 20010904//EN"
 "http://www.w3.org/TR/2001/REC-SVG-20010904/DTD/svg10.dtd">
<svg version="1.0" xmlns="http://www.w3.org/2000/svg"
 width="556.000000pt" height="157.000000pt" viewBox="0 0 556.000000 157.000000"
 preserveAspectRatio="xMidYMid meet">
<metadata>
Created by potrace 1.14, written by Peter Selinger 2001-2017
</metadata>
<g transform="translate(0.000000,157.000000) scale(0.100000,-0.100000)"
fill="#000000" stroke="none">
<path fill="#000000" stroke="none" d="M1606 1552 c-9 -11 -29 -22 -44 -25
-32 -7 -112 -73 -112 -92 0 -8 -8 -30 -17 -49 l-18 -36 -88 0 c-99 0 -132 -11
-194 -65 -34 -30 -37 -36 -25 -54 6 -11 12 -25 12 -30 0 -5 -29 -45 -64 -88
-42 -52 -80 -116 -112 -184 -26 -57 -58 -117 -71 -132 -12 -16 -23 -34 -23
-40 0 -6 -12 -21 -27 -33 -28 -22 -30 -28 -39 -109 -3 -27 -10 -59 -15 -71 -7
-14 -8 -47 -1 -101 9 -74 14 -86 75 -179 60 -91 66 -105 72 -168 4 -38 9 -75
12 -83 7 -18 93 -17 130 1 15 8 47 20 70 27 36 10 41 15 33 30 -9 16 -4 19 35
25 25 3 52 4 60 0 8 -3 22 -3 30 0 17 7 60 138 51 153 -3 5 -2 11 4 13 6 2 35
84 65 183 48 154 61 185 90 215 l35 36 -73 -3 c-39 -2 -89 -5 -109 -6 -46 -3
-46 -7 -19 189 24 171 36 224 63 291 l21 52 71 17 c71 16 72 16 116 -6 102
-52 118 -66 136 -125 19 -60 43 -72 66 -35 7 11 21 20 31 20 17 0 17 -2 -2
-29 -21 -29 -28 -71 -14 -85 4 -4 6 -23 4 -41 -4 -46 6 -50 219 -76 l175 -21
52 -49 c44 -42 58 -49 91 -49 47 0 76 24 41 35 -18 6 -20 12 -15 44 19 109 19
153 3 163 -11 6 -17 22 -17 45 0 34 -1 35 -32 31 -24 -4 -36 0 -48 14 -13 16
-33 21 -103 25 -101 7 -127 -6 -127 -61 0 -24 -6 -34 -26 -43 -31 -14 -44 -9
-44 17 0 10 -11 32 -25 48 -24 28 -24 31 -9 60 12 25 13 39 5 68 -10 38 -46
84 -65 84 -6 1 -23 17 -38 37 -23 30 -28 47 -28 92 0 71 -19 101 -63 101 -26
0 -35 6 -47 33 -13 27 -21 32 -56 35 -29 2 -45 -2 -58 -16z"/>
<path fill="#000000" stroke="none" d="M5385 1233 c-41 -10 -76 -63 -41 -63 7
0 31 -35 52 -77 20 -43 48 -90 60 -105 12 -15 25 -47 29 -70 14 -91 35 -149
53 -146 15 3 17 22 20 167 1 97 -1 168 -7 174 -6 6 -8 22 -5 37 4 19 -1 35
-21 58 -23 28 -33 32 -73 31 -26 -1 -56 -4 -67 -6z"/>
<path fill="#000000" stroke="none" d="M3955 1190 c-11 -13 -31 -20 -53 -20
-20 0 -45 -9 -62 -22 -16 -13 -40 -31 -54 -41 -18 -12 -26 -27 -26 -46 0 -24
-6 -31 -31 -40 -41 -14 -63 1 -54 37 3 14 0 34 -10 48 -15 23 -21 24 -119 24
-109 0 -112 -1 -144 -57 -10 -20 -7 -34 22 -105 18 -46 62 -170 97 -275 50
-151 67 -193 81 -193 9 0 19 4 22 9 3 5 17 9 31 9 32 0 72 26 80 52 3 11 14
20 23 21 9 0 58 1 107 2 85 2 90 3 93 25 3 20 1 21 -21 13 -14 -6 -27 -7 -31
-4 -3 3 15 34 39 68 50 70 84 139 85 172 0 12 6 23 12 25 10 4 9 13 -5 39 -9
19 -26 72 -37 119 -19 84 -19 85 0 98 16 11 17 18 8 38 -14 29 -29 30 -53 4z"/>
<path fill="#ffffff" stroke="none" d="M3873 745 c-19 -17 -40 -25 -68 -25
-22 0 -50 -3 -62 -6 -18 -5 -23 -2 -23 13 0 32 21 43 81 43 39 0 61 5 70 16
11 14 13 14 21 0 7 -12 1 -23 -19 -41z"/>
<path fill="#000000" stroke="none" d="M4934 1144 c-27 -28 -34 -44 -34 -76 0
-39 -1 -40 -18 -25 -10 10 -25 17 -33 17 -9 0 -26 24 -40 53 l-24 52 -61 3
c-57 3 -64 1 -83 -24 -12 -15 -21 -33 -21 -40 0 -10 -6 -11 -26 -4 -32 12
-101 13 -108 1 -3 -5 1 -15 10 -22 27 -23 52 -82 47 -114 -4 -22 -20 -41 -62
-72 -38 -28 -57 -49 -58 -65 -1 -12 1 -18 5 -12 8 13 301 26 386 17 l57 -6 -7
-46 c-4 -25 -12 -49 -18 -53 -8 -5 -7 -8 2 -8 19 0 -2 -33 -34 -55 -26 -17
-27 -17 -45 6 -24 31 -24 40 1 46 13 3 20 14 20 28 0 21 -6 24 -62 30 -87 8
-288 -9 -299 -27 -5 -7 -9 -16 -9 -20 0 -4 59 -9 132 -10 l132 -3 24 -35 23
-35 -72 -3 -72 -3 23 -24 23 -25 -34 -1 c-25 -1 -20 -4 21 -9 30 -5 191 -8
358 -9 281 -1 302 0 302 17 0 26 -12 38 -42 46 -34 8 -35 18 -3 60 29 38 25
76 -10 76 -28 0 -55 -30 -55 -61 0 -24 -16 -49 -32 -49 -4 0 -8 6 -8 13 0 6
-7 25 -15 41 -14 27 -14 32 5 70 19 41 19 43 1 92 -17 49 -18 51 0 62 45 29
28 126 -23 134 -19 2 -22 8 -20 31 5 48 -22 77 -70 77 -34 0 -46 -6 -74 -36z"/>
<path fill="#000000" stroke="none" d="M77 992 c-18 -20 -23 -62 -8 -77 4 -6
6 -27 4 -47 -4 -28 -10 -38 -23 -38 -20 0 -50 -30 -50 -51 0 -8 20 -23 45 -35
29 -13 45 -17 45 -9 0 7 23 44 51 84 28 40 48 75 46 78 -3 2 -1 18 5 34 15 45
-11 79 -61 79 -24 0 -44 -7 -54 -18z"/>
<path fill="#000000" stroke="none" d="M696 971 c-15 -16 -17 -30 -11 -70 5
-41 4 -51 -8 -51 -41 0 -62 -73 -29 -102 23 -21 140 -53 120 -33 -3 3 0 33 7
66 7 33 9 62 4 65 -5 3 -9 18 -9 35 0 16 -6 47 -12 69 -14 45 -35 51 -62 21z"/>
<path fill="#000000" stroke="none" d="M3996 655 c-11 -8 -15 -15 -9 -15 6 0
16 7 23 15 16 19 11 19 -14 0z"/>
<path fill="#000000" stroke="none" d="M4738 457 c23 -28 87 -54 112 -47 16 5
19 8 8 9 -10 1 -43 12 -74 26 -31 14 -52 19 -46 12z"/>
</g>
</svg>
