<?xml version="1.0" standalone="no"?>
<!DOCTYPE svg PUBLIC "-//W3C//DTD SVG 20010904//EN"
 "http://www.w3.org/TR/2001/REC-SVG-20010904/DTD/svg10.dtd">
<svg version="1.0" xmlns="http://www.w3.org/2000/svg"
 width="43.000000pt" height="176.000000pt" viewBox="0 0 43.000000 176.000000"
 preserveAspectRatio="xMidYMid meet">
<metadata>
Created by potrace 1.14, written by Peter Selinger 2001-2017
</metadata>
<g transform="translate(0.000000,176.000000) scale(0.100000,-0.100000)"
fill="#000000" stroke="none">
<path fill="#000000" stroke="none" d="M2 880 l-2 -885 20 44 c12 26 20 65 20
97 0 39 4 56 15 60 9 4 15 19 15 38 0 17 9 51 20 75 11 24 20 56 20 72 0 16
14 57 31 91 21 43 29 70 25 89 -6 32 7 40 47 26 15 -5 34 -6 42 -3 8 3 15 1
15 -5 0 -6 12 -9 27 -7 33 4 54 56 58 145 2 34 15 98 30 144 22 66 26 93 22
141 -4 46 -2 61 9 65 19 7 18 33 -2 33 -9 0 -18 -9 -21 -20 -7 -28 -35 -26
-31 2 2 13 15 29 31 36 l28 13 -67 128 -66 127 -107 37 c-58 21 -116 37 -128
37 -13 0 -23 6 -24 13 -24 339 -26 287 -27 -593z"/>
<path fill="#ffffff" stroke="none" d="M260 637 c0 -8 -10 -22 -22 -33 -13
-10 -17 -12 -10 -4 6 8 12 22 12 32 0 10 5 18 10 18 6 0 10 -6 10 -13z"/>
</g>
</svg>
