<?xml version="1.0" standalone="no"?>
<!DOCTYPE svg PUBLIC "-//W3C//DTD SVG 20010904//EN"
 "http://www.w3.org/TR/2001/REC-SVG-20010904/DTD/svg10.dtd">
<svg version="1.0" xmlns="http://www.w3.org/2000/svg"
 width="61.000000pt" height="274.000000pt" viewBox="0 0 61.000000 274.000000"
 preserveAspectRatio="xMidYMid meet">
<metadata>
Created by potrace 1.14, written by Peter Selinger 2001-2017
</metadata>
<g transform="translate(0.000000,274.000000) scale(0.100000,-0.100000)"
fill="#000000" stroke="none">
<path fill="#000000" stroke="none" d="M525 2713 l-50 -25 -101 -216 -102
-217 -104 -75 -105 -75 -5 -359 -5 -359 28 -125 29 -124 -55 -536 c-30 -295
-54 -537 -52 -538 3 -4 410 -65 412 -62 14 25 55 150 51 157 -3 5 -24 12 -46
16 -22 4 -40 9 -40 12 0 3 25 102 56 220 43 167 55 228 53 276 -3 67 84 488
89 432 1 -16 5 -46 9 -65 6 -33 6 -34 13 -10 5 14 8 402 9 863 1 948 10 858
-84 810z"/>
</g>
</svg>
