<?xml version="1.0" standalone="no"?>
<!DOCTYPE svg PUBLIC "-//W3C//DTD SVG 20010904//EN"
 "http://www.w3.org/TR/2001/REC-SVG-20010904/DTD/svg10.dtd">
<svg version="1.0" xmlns="http://www.w3.org/2000/svg"
 width="32.000000pt" height="133.000000pt" viewBox="0 0 32.000000 133.000000"
 preserveAspectRatio="xMidYMid meet">
<metadata>
Created by potrace 1.14, written by Peter Selinger 2001-2017
</metadata>
<g transform="translate(0.000000,133.000000) scale(0.100000,-0.100000)"
fill="#000000" stroke="none">
<path fill="#000000" stroke="none" d="M3 1250 c0 -47 2 -66 4 -42 2 23 2 61
0 85 -2 23 -4 4 -4 -43z"/>
<path fill="#000000" stroke="none" d="M0 750 l0 -233 23 21 24 22 17 -82 c10
-46 31 -123 46 -173 15 -50 31 -112 35 -140 4 -27 14 -76 23 -108 15 -57 16
-57 51 -56 20 1 51 3 68 6 30 5 32 7 21 27 -6 11 -24 38 -40 59 -29 36 -30 41
-39 205 -12 222 -46 424 -83 485 -23 40 -111 162 -137 192 -5 5 -9 -94 -9
-225z"/>
</g>
</svg>
