<?xml version="1.0" standalone="no"?>
<!DOCTYPE svg PUBLIC "-//W3C//DTD SVG 20010904//EN"
 "http://www.w3.org/TR/2001/REC-SVG-20010904/DTD/svg10.dtd">
<svg version="1.0" xmlns="http://www.w3.org/2000/svg"
 width="18.000000pt" height="94.000000pt" viewBox="0 0 18.000000 94.000000"
 preserveAspectRatio="xMidYMid meet">
<metadata>
Created by potrace 1.14, written by Peter Selinger 2001-2017
</metadata>
<g transform="translate(0.000000,94.000000) scale(0.100000,-0.100000)"
fill="#000000" stroke="none">
<path fill="#000000" stroke="none" d="M30 934 c0 -3 -5 -36 -11 -74 -9 -61
-8 -76 12 -137 20 -61 22 -86 20 -243 -1 -141 -7 -200 -27 -304 -33 -168 -27
-192 41 -166 25 9 27 14 23 60 -2 33 1 49 8 46 7 -3 15 79 23 260 12 259 13
265 37 289 28 28 29 37 8 98 -11 32 -26 53 -48 67 -22 13 -39 36 -50 65 -10
25 -22 45 -27 45 -5 0 -9 -3 -9 -6z"/>
</g>
</svg>
