<?xml version="1.0" standalone="no"?>
<!DOCTYPE svg PUBLIC "-//W3C//DTD SVG 20010904//EN"
 "http://www.w3.org/TR/2001/REC-SVG-20010904/DTD/svg10.dtd">
<svg version="1.0" xmlns="http://www.w3.org/2000/svg"
 width="15.000000pt" height="69.000000pt" viewBox="0 0 15.000000 69.000000"
 preserveAspectRatio="xMidYMid meet">
<metadata>
Created by potrace 1.14, written by Peter Selinger 2001-2017
</metadata>
<g transform="translate(0.000000,69.000000) scale(0.100000,-0.100000)"
fill="#000000" stroke="none">
<path fill="#000000" stroke="none" d="M42 669 c-7 -11 -9 -36 -6 -63 5 -33 2
-52 -10 -70 -30 -47 -17 -73 30 -56 15 6 29 9 31 7 5 -6 -35 -74 -63 -109 -21
-26 -21 -30 -9 -72 8 -25 16 -102 18 -171 3 -69 7 -129 11 -132 14 -14 20 12
27 105 4 53 11 111 17 128 14 45 40 92 53 96 7 2 5 16 -7 41 -14 30 -16 44 -8
65 8 21 7 38 -3 67 -8 22 -12 59 -10 83 6 60 -1 79 -32 90 -23 8 -30 6 -39 -9z"/>
</g>
</svg>
