<?xml version="1.0" standalone="no"?>
<!DOCTYPE svg PUBLIC "-//W3C//DTD SVG 20010904//EN"
 "http://www.w3.org/TR/2001/REC-SVG-20010904/DTD/svg10.dtd">
<svg version="1.0" xmlns="http://www.w3.org/2000/svg"
 width="18.000000pt" height="73.000000pt" viewBox="0 0 18.000000 73.000000"
 preserveAspectRatio="xMidYMid meet">
<metadata>
Created by potrace 1.14, written by Peter Selinger 2001-2017
</metadata>
<g transform="translate(0.000000,73.000000) scale(0.100000,-0.100000)"
fill="#000000" stroke="none">
<path fill="#000000" stroke="none" d="M71 682 c-20 -27 -38 -65 -43 -92 -15
-82 -28 -254 -22 -290 8 -50 73 -217 90 -231 8 -6 14 -24 14 -40 0 -22 5 -29
19 -29 16 0 19 11 24 83 4 45 4 106 0 135 -4 40 -1 62 12 93 16 35 17 47 7 86
-7 25 -15 79 -19 121 -3 43 -11 80 -16 84 -6 3 -12 31 -15 62 -2 31 -7 58 -11
60 -3 2 -21 -17 -40 -42z"/>
</g>
</svg>
