<?xml version="1.0" standalone="no"?>
<!DOCTYPE svg PUBLIC "-//W3C//DTD SVG 20010904//EN"
 "http://www.w3.org/TR/2001/REC-SVG-20010904/DTD/svg10.dtd">
<svg version="1.0" xmlns="http://www.w3.org/2000/svg"
 width="11.000000pt" height="48.000000pt" viewBox="0 0 11.000000 48.000000"
 preserveAspectRatio="xMidYMid meet">
<metadata>
Created by potrace 1.14, written by Peter Selinger 2001-2017
</metadata>
<g transform="translate(0.000000,48.000000) scale(0.100000,-0.100000)"
fill="#000000" stroke="none">
<path fill="#000000" stroke="none" d="M12 468 c-5 -8 -6 -22 -1 -33 12 -30
11 -193 -2 -197 -5 -2 -7 -11 -3 -21 3 -10 13 -16 20 -13 11 4 14 -14 14 -93
0 -82 3 -100 16 -105 33 -13 42 12 49 132 8 132 -7 280 -31 298 -8 6 -14 19
-14 28 0 19 -33 22 -48 4z"/>
</g>
</svg>
