<?xml version="1.0" standalone="no"?>
<!DOCTYPE svg PUBLIC "-//W3C//DTD SVG 20010904//EN"
 "http://www.w3.org/TR/2001/REC-SVG-20010904/DTD/svg10.dtd">
<svg version="1.0" xmlns="http://www.w3.org/2000/svg"
 width="36.000000pt" height="181.000000pt" viewBox="0 0 36.000000 181.000000"
 preserveAspectRatio="xMidYMid meet">
<metadata>
Created by potrace 1.14, written by Peter Selinger 2001-2017
</metadata>
<g transform="translate(0.000000,181.000000) scale(0.100000,-0.100000)"
fill="#000000" stroke="none">
<path fill="#000000" stroke="none" d="M141 1524 c-84 -165 -140 -288 -135
-293 13 -12 327 -246 342 -255 9 -6 12 80 12 413 l0 421 -37 0 -38 0 -144
-286z"/>
<path fill="#000000" stroke="none" d="M297 267 c-31 -122 -60 -232 -63 -245
-6 -21 -4 -22 60 -22 l66 0 0 245 c0 135 -1 245 -2 245 -2 0 -29 -100 -61
-223z"/>
</g>
</svg>
