<?xml version="1.0" standalone="no"?>
<!DOCTYPE svg PUBLIC "-//W3C//DTD SVG 20010904//EN"
 "http://www.w3.org/TR/2001/REC-SVG-20010904/DTD/svg10.dtd">
<svg version="1.0" xmlns="http://www.w3.org/2000/svg"
 width="29.000000pt" height="128.000000pt" viewBox="0 0 29.000000 128.000000"
 preserveAspectRatio="xMidYMid meet">
<metadata>
Created by potrace 1.14, written by Peter Selinger 2001-2017
</metadata>
<g transform="translate(0.000000,128.000000) scale(0.100000,-0.100000)"
fill="#000000" stroke="none">
<path fill="#000000" stroke="none" d="M160 1261 l-45 -19 0 -84 0 -85 -58
-75 -57 -75 0 -226 0 -226 39 -41 c35 -37 39 -48 45 -108 6 -55 66 -287 83
-314 2 -4 14 -2 27 4 37 16 46 75 46 286 0 143 -4 200 -15 232 -8 23 -15 75
-15 115 0 72 0 73 40 109 l40 36 -14 58 c-8 31 -24 95 -36 141 -21 79 -21 85
-5 126 12 33 14 59 9 104 -8 69 -12 71 -84 42z"/>
</g>
</svg>
