<?xml version="1.0" standalone="no"?>
<!DOCTYPE svg PUBLIC "-//W3C//DTD SVG 20010904//EN"
 "http://www.w3.org/TR/2001/REC-SVG-20010904/DTD/svg10.dtd">
<svg version="1.0" xmlns="http://www.w3.org/2000/svg"
 width="79.000000pt" height="401.000000pt" viewBox="0 0 79.000000 401.000000"
 preserveAspectRatio="xMidYMid meet">
<metadata>
Created by potrace 1.14, written by Peter Selinger 2001-2017
</metadata>
<g transform="translate(0.000000,401.000000) scale(0.100000,-0.100000)"
fill="#000000" stroke="none">
<path fill="#000000" stroke="none" d="M601 3853 c-99 -130 -137 -171 -215
-233 l-94 -75 80 -5 81 -5 66 -178 66 -178 70 -39 70 -39 15 -83 16 -83 -62
-70 -62 -70 14 -144 c7 -80 13 -146 11 -147 -1 -1 -84 47 -184 107 l-182 108
-128 10 c-70 5 -129 8 -131 6 -2 -2 17 -17 43 -35 25 -17 43 -35 40 -40 -3 -4
-31 -23 -63 -41 l-57 -32 120 -32 c66 -18 132 -35 146 -38 15 -4 76 -59 145
-129 l120 -123 10 -68 c9 -56 5 -109 -19 -319 l-29 -252 36 -166 c36 -163 36
-167 36 -395 l0 -230 70 -400 c57 -328 73 -403 90 -419 19 -19 21 -20 37 -3
15 15 19 47 24 225 9 276 11 2804 2 3345 l-6 427 -28 0 c-24 0 -44 -21 -148
-157z"/>
</g>
</svg>
