<?xml version="1.0" standalone="no"?>
<!DOCTYPE svg PUBLIC "-//W3C//DTD SVG 20010904//EN"
 "http://www.w3.org/TR/2001/REC-SVG-20010904/DTD/svg10.dtd">
<svg version="1.0" xmlns="http://www.w3.org/2000/svg"
 width="11.000000pt" height="47.000000pt" viewBox="0 0 11.000000 47.000000"
 preserveAspectRatio="xMidYMid meet">
<metadata>
Created by potrace 1.14, written by Peter Selinger 2001-2017
</metadata>
<g transform="translate(0.000000,47.000000) scale(0.100000,-0.100000)"
fill="#000000" stroke="none">
<path fill="#000000" stroke="none" d="M10 460 c-13 -8 -12 -21 9 -101 21 -81
23 -105 18 -225 -5 -128 -4 -134 14 -134 18 0 19 5 13 53 -7 52 -7 52 13 34
20 -17 21 -17 27 5 3 13 6 69 6 124 0 105 -13 157 -48 192 -9 9 -21 27 -27 39
-7 17 -14 20 -25 13z"/>
</g>
</svg>
