<?xml version="1.0" standalone="no"?>
<!DOCTYPE svg PUBLIC "-//W3C//DTD SVG 20010904//EN"
 "http://www.w3.org/TR/2001/REC-SVG-20010904/DTD/svg10.dtd">
<svg version="1.0" xmlns="http://www.w3.org/2000/svg"
 width="13.000000pt" height="62.000000pt" viewBox="0 0 13.000000 62.000000"
 preserveAspectRatio="xMidYMid meet">
<metadata>
Created by potrace 1.14, written by Peter Selinger 2001-2017
</metadata>
<g transform="translate(0.000000,62.000000) scale(0.100000,-0.100000)"
fill="#000000" stroke="none">
<path fill="#000000" stroke="none" d="M62 608 c-6 -6 -12 -22 -12 -33 0 -14
-10 -26 -25 -33 -18 -9 -25 -19 -25 -41 0 -50 23 -131 37 -131 16 0 52 70 57
111 2 16 12 46 22 65 14 26 16 38 8 52 -14 21 -45 27 -62 10z"/>
<path fill="#000000" stroke="none" d="M87 414 c-14 -30 -17 -53 -12 -85 6
-37 3 -49 -17 -74 -36 -46 -52 -215 -23 -244 8 -8 17 -12 20 -9 4 3 13 49 20
101 8 52 19 106 23 118 5 13 6 50 3 81 -4 32 -3 65 2 73 4 8 7 30 5 48 l-3 32
-18 -41z"/>
</g>
</svg>
