<?xml version="1.0" standalone="no"?>
<!DOCTYPE svg PUBLIC "-//W3C//DTD SVG 20010904//EN"
 "http://www.w3.org/TR/2001/REC-SVG-20010904/DTD/svg10.dtd">
<svg version="1.0" xmlns="http://www.w3.org/2000/svg"
 width="55.000000pt" height="228.000000pt" viewBox="0 0 55.000000 228.000000"
 preserveAspectRatio="xMidYMid meet">
<metadata>
Created by potrace 1.14, written by Peter Selinger 2001-2017
</metadata>
<g transform="translate(0.000000,228.000000) scale(0.100000,-0.100000)"
fill="#000000" stroke="none">
<path fill="#000000" stroke="none" d="M0 1958 c0 -249 3 -325 13 -337 10 -13
11 -46 5 -156 -5 -77 -11 -256 -14 -398 l-5 -257 118 -56 119 -55 53 -297 c50
-280 77 -402 90 -402 3 0 17 33 32 73 l25 72 -17 636 -17 636 -26 51 c-14 28
-35 53 -46 57 -21 7 -34 40 -28 72 2 14 17 20 61 27 l57 9 16 56 c8 31 33 106
54 166 51 143 70 291 45 364 l-16 48 -67 7 c-37 3 -154 6 -259 6 l-193 0 0
-322z"/>
</g>
</svg>
