<?xml version="1.0" standalone="no"?>
<!DOCTYPE svg PUBLIC "-//W3C//DTD SVG 20010904//EN"
 "http://www.w3.org/TR/2001/REC-SVG-20010904/DTD/svg10.dtd">
<svg version="1.0" xmlns="http://www.w3.org/2000/svg"
 width="24.000000pt" height="115.000000pt" viewBox="0 0 24.000000 115.000000"
 preserveAspectRatio="xMidYMid meet">
<metadata>
Created by potrace 1.14, written by Peter Selinger 2001-2017
</metadata>
<g transform="translate(0.000000,115.000000) scale(0.100000,-0.100000)"
fill="#000000" stroke="none">
<path fill="#000000" stroke="none" d="M223 1127 c-7 -16 -13 -47 -13 -69 0
-29 -7 -49 -22 -65 -18 -19 -19 -23 -5 -23 14 0 15 -15 12 -120 -3 -119 -3
-121 19 -114 11 4 22 8 24 9 1 1 1 94 0 206 -3 172 -5 199 -15 176z"/>
<path fill="#000000" stroke="none" d="M138 933 c-15 -16 -51 -65 -80 -109
l-54 -81 61 -16 c58 -16 61 -16 77 3 11 14 18 49 23 114 4 52 6 99 3 106 -2 6
-15 -1 -30 -17z"/>
<path fill="#000000" stroke="none" d="M208 693 c-17 -4 -26 -33 -30 -93 -1
-26 7 -47 30 -79 l32 -44 0 111 c0 62 -3 111 -7 111 -5 -1 -16 -3 -25 -6z"/>
<path fill="#000000" stroke="none" d="M203 395 c-18 -24 -33 -46 -33 -48 0
-2 10 -3 23 -3 22 1 22 -2 33 -174 l11 -175 1 223 c1 122 1 222 0 222 -2 -1
-18 -21 -35 -45z"/>
</g>
</svg>
