<?xml version="1.0" standalone="no"?>
<!DOCTYPE svg PUBLIC "-//W3C//DTD SVG 20010904//EN"
 "http://www.w3.org/TR/2001/REC-SVG-20010904/DTD/svg10.dtd">
<svg version="1.0" xmlns="http://www.w3.org/2000/svg"
 width="32.000000pt" height="138.000000pt" viewBox="0 0 32.000000 138.000000"
 preserveAspectRatio="xMidYMid meet">
<metadata>
Created by potrace 1.14, written by Peter Selinger 2001-2017
</metadata>
<g transform="translate(0.000000,138.000000) scale(0.100000,-0.100000)"
fill="#000000" stroke="none">
<path fill="#000000" stroke="none" d="M81 1326 l-52 -53 11 -64 c7 -35 16
-69 22 -76 6 -8 4 -19 -6 -35 -24 -38 -45 -182 -52 -353 -8 -204 19 -632 41
-654 15 -16 265 -93 265 -82 0 3 -19 122 -42 265 l-42 259 28 81 27 81 -26 75
c-19 57 -25 93 -24 150 1 41 -4 87 -10 103 -16 41 -53 87 -80 102 l-25 12 23
8 c31 9 88 -36 122 -99 29 -52 46 -72 55 -64 3 4 -20 44 -50 90 -54 79 -56 86
-56 147 0 56 -4 71 -32 113 -18 26 -35 48 -38 48 -3 0 -29 -24 -59 -54z"/>
</g>
</svg>
