<?xml version="1.0" standalone="no"?>
<!DOCTYPE svg PUBLIC "-//W3C//DTD SVG 20010904//EN"
 "http://www.w3.org/TR/2001/REC-SVG-20010904/DTD/svg10.dtd">
<svg version="1.0" xmlns="http://www.w3.org/2000/svg"
 width="69.000000pt" height="293.000000pt" viewBox="0 0 69.000000 293.000000"
 preserveAspectRatio="xMidYMid meet">
<metadata>
Created by potrace 1.14, written by Peter Selinger 2001-2017
</metadata>
<g transform="translate(0.000000,293.000000) scale(0.100000,-0.100000)"
fill="#000000" stroke="none">
<path fill="#000000" stroke="none" d="M406 2882 c-38 -53 -52 -62 -93 -62
-14 0 -38 -11 -53 -24 l-28 -23 39 -39 c40 -39 80 -139 93 -229 5 -40 5 -40
-55 -75 -52 -31 -129 -109 -129 -131 0 -4 10 -15 22 -23 17 -12 25 -39 44
-140 18 -103 30 -140 68 -213 30 -58 46 -103 48 -133 l3 -45 -67 -14 c-64 -13
-68 -16 -80 -50 -8 -24 -13 -127 -15 -316 l-2 -280 -30 -72 c-29 -67 -31 -80
-31 -195 l0 -123 -46 -80 -46 -80 16 -100 c32 -204 33 -183 -18 -266 l-46 -74
62 -3 c35 -2 86 -1 114 3 46 5 53 9 59 33 3 15 10 146 15 292 4 146 13 285 19
310 22 96 73 226 111 285 36 55 44 78 66 199 23 117 29 136 45 136 24 0 24 8
-7 -190 -43 -278 -46 -334 -22 -415 25 -86 21 -182 -15 -360 -14 -66 -28 -143
-32 -172 -5 -36 -14 -58 -32 -75 -42 -39 -47 -56 -27 -93 16 -31 21 -33 87
-39 68 -6 72 -5 106 22 27 21 37 38 39 63 1 19 12 111 24 204 19 151 21 224
22 657 1 269 -1 489 -4 490 -3 2 -34 39 -68 84 -59 76 -62 84 -62 135 0 79 6
91 60 126 l49 33 13 -43 13 -42 3 45 c1 25 14 128 27 230 25 185 25 187 10
385 -8 110 -15 248 -15 307 0 97 -3 113 -27 163 l-27 55 -61 0 c-33 0 -69 3
-81 6 -17 4 -29 -5 -58 -44z"/>
</g>
</svg>
