<?xml version="1.0" standalone="no"?>
<!DOCTYPE svg PUBLIC "-//W3C//DTD SVG 20010904//EN"
 "http://www.w3.org/TR/2001/REC-SVG-20010904/DTD/svg10.dtd">
<svg version="1.0" xmlns="http://www.w3.org/2000/svg"
 width="31.000000pt" height="150.000000pt" viewBox="0 0 31.000000 150.000000"
 preserveAspectRatio="xMidYMid meet">
<metadata>
Created by potrace 1.14, written by Peter Selinger 2001-2017
</metadata>
<g transform="translate(0.000000,150.000000) scale(0.100000,-0.100000)"
fill="#000000" stroke="none">
<path fill="#000000" stroke="none" d="M252 1460 c-18 -24 -32 -55 -32 -67 0
-30 -18 -64 -69 -132 -27 -36 -41 -65 -41 -85 0 -17 -25 -90 -55 -162 -58
-142 -59 -153 -30 -259 8 -27 19 -69 25 -92 8 -32 16 -43 30 -43 19 0 20 -8
20 -142 0 -79 -5 -194 -10 -256 -8 -106 -11 -116 -40 -148 -32 -37 -34 -42
-22 -62 12 -18 138 22 180 56 49 40 67 133 86 447 19 317 21 902 2 954 l-12
34 -32 -43z"/>
</g>
</svg>
