<?xml version="1.0" standalone="no"?>
<!DOCTYPE svg PUBLIC "-//W3C//DTD SVG 20010904//EN"
 "http://www.w3.org/TR/2001/REC-SVG-20010904/DTD/svg10.dtd">
<svg version="1.0" xmlns="http://www.w3.org/2000/svg"
 width="25.000000pt" height="103.000000pt" viewBox="0 0 25.000000 103.000000"
 preserveAspectRatio="xMidYMid meet">
<metadata>
Created by potrace 1.14, written by Peter Selinger 2001-2017
</metadata>
<g transform="translate(0.000000,103.000000) scale(0.100000,-0.100000)"
fill="#000000" stroke="none">
<path fill="#000000" stroke="none" d="M23 1023 c-22 -4 -23 -8 -23 -122 0
-76 4 -121 12 -129 9 -9 9 -21 0 -50 -8 -27 -12 -148 -12 -374 l0 -335 42 -6
c78 -10 79 -7 77 168 -2 165 6 196 51 210 24 8 23 2 24 140 1 109 12 160 44
197 13 15 11 18 -21 31 -37 16 -35 11 -53 155 -6 46 -12 57 -47 87 -40 34 -48
37 -94 28z"/>
</g>
</svg>
