<?xml version="1.0" standalone="no"?>
<!DOCTYPE svg PUBLIC "-//W3C//DTD SVG 20010904//EN"
 "http://www.w3.org/TR/2001/REC-SVG-20010904/DTD/svg10.dtd">
<svg version="1.0" xmlns="http://www.w3.org/2000/svg"
 width="46.000000pt" height="216.000000pt" viewBox="0 0 46.000000 216.000000"
 preserveAspectRatio="xMidYMid meet">
<metadata>
Created by potrace 1.14, written by Peter Selinger 2001-2017
</metadata>
<g transform="translate(0.000000,216.000000) scale(0.100000,-0.100000)"
fill="#000000" stroke="none">
<path fill="#000000" stroke="none" d="M40 2135 c-7 -14 -19 -25 -27 -25 -11
0 -13 -183 -13 -1055 l0 -1055 59 0 c53 0 69 5 143 48 74 43 83 51 83 78 0 26
-4 29 -33 32 -29 3 -36 9 -54 50 l-20 47 46 240 c25 132 55 305 68 385 21 141
23 148 78 245 79 138 103 263 80 412 -12 76 -14 79 -74 141 -33 35 -82 76
-108 93 -55 36 -59 45 -47 95 25 102 27 137 10 196 -21 73 -52 98 -127 98 -44
0 -52 -3 -64 -25z"/>
</g>
</svg>
