<?xml version="1.0" standalone="no"?>
<!DOCTYPE svg PUBLIC "-//W3C//DTD SVG 20010904//EN"
 "http://www.w3.org/TR/2001/REC-SVG-20010904/DTD/svg10.dtd">
<svg version="1.0" xmlns="http://www.w3.org/2000/svg"
 width="70.000000pt" height="281.000000pt" viewBox="0 0 70.000000 281.000000"
 preserveAspectRatio="xMidYMid meet">
<metadata>
Created by potrace 1.14, written by Peter Selinger 2001-2017
</metadata>
<g transform="translate(0.000000,281.000000) scale(0.100000,-0.100000)"
fill="#000000" stroke="none">
<path fill="#000000" stroke="none" d="M321 2796 c-18 -6 -38 -21 -45 -32 -6
-11 -30 -45 -53 -75 -46 -60 -51 -82 -38 -180 8 -57 -4 -99 -27 -99 -7 0 -35
-14 -64 -32 -61 -37 -66 -51 -84 -223 -11 -105 -10 -130 34 -530 25 -231 50
-430 56 -442 14 -33 80 -439 93 -573 6 -63 11 -197 12 -297 0 -150 -2 -183
-14 -183 -21 0 -81 -40 -112 -74 l-27 -31 41 -12 c52 -16 211 -17 238 -2 17 8
19 16 13 42 -4 18 -8 62 -8 99 -1 53 2 69 14 72 47 14 92 16 154 6 38 -6 71
-8 74 -5 3 3 0 17 -7 31 -16 36 -51 220 -51 269 0 47 -32 166 -86 321 l-39
111 63 124 c34 68 81 150 105 183 l42 58 3 -33 c2 -19 -2 -51 -9 -72 -17 -51
-1 -67 35 -35 23 20 28 35 37 113 6 50 10 155 9 235 -1 80 -2 179 -2 220 -1
41 4 163 11 271 8 141 9 204 1 224 -6 16 -36 52 -67 80 l-56 50 -7 115 c-13
183 -41 245 -132 291 -64 32 -61 32 -107 15z"/>
</g>
</svg>
