<?xml version="1.0" standalone="no"?>
<!DOCTYPE svg PUBLIC "-//W3C//DTD SVG 20010904//EN"
 "http://www.w3.org/TR/2001/REC-SVG-20010904/DTD/svg10.dtd">
<svg version="1.0" xmlns="http://www.w3.org/2000/svg"
 width="17.000000pt" height="93.000000pt" viewBox="0 0 17.000000 93.000000"
 preserveAspectRatio="xMidYMid meet">
<metadata>
Created by potrace 1.14, written by Peter Selinger 2001-2017
</metadata>
<g transform="translate(0.000000,93.000000) scale(0.100000,-0.100000)"
fill="#000000" stroke="none">
<path fill="#000000" stroke="none" d="M1 468 c-1 -258 3 -468 7 -468 5 0 17
6 27 14 18 13 18 18 7 48 -25 72 -2 338 33 378 23 27 37 99 26 132 -6 17 -11
33 -11 34 0 2 16 4 35 4 31 0 35 3 41 36 12 64 -18 133 -84 196 -31 30 -62 63
-69 74 -9 15 -12 -83 -12 -448z"/>
</g>
</svg>
