<?xml version="1.0" standalone="no"?>
<!DOCTYPE svg PUBLIC "-//W3C//DTD SVG 20010904//EN"
 "http://www.w3.org/TR/2001/REC-SVG-20010904/DTD/svg10.dtd">
<svg version="1.0" xmlns="http://www.w3.org/2000/svg"
 width="46.000000pt" height="208.000000pt" viewBox="0 0 46.000000 208.000000"
 preserveAspectRatio="xMidYMid meet">
<metadata>
Created by potrace 1.14, written by Peter Selinger 2001-2017
</metadata>
<g transform="translate(0.000000,208.000000) scale(0.100000,-0.100000)"
fill="#000000" stroke="none">
<path fill="#000000" stroke="none" d="M270 2025 c-133 -53 -135 -54 -132 -83
2 -16 -12 -74 -31 -129 l-35 -99 64 -145 63 -145 -15 -55 c-8 -30 -34 -166
-57 -304 l-43 -250 29 -174 29 -174 -22 -76 c-12 -42 -45 -124 -73 -184 l-50
-107 30 -43 31 -42 83 -7 c76 -6 139 3 139 20 0 3 -18 30 -41 59 l-41 54 77
132 c43 73 103 161 133 196 l56 63 -15 322 c-11 245 -13 407 -6 685 8 356 8
365 -13 452 -12 49 -23 89 -24 88 0 0 -62 -24 -136 -54z"/>
</g>
</svg>
