<?xml version="1.0" standalone="no"?>
<!DOCTYPE svg PUBLIC "-//W3C//DTD SVG 20010904//EN"
 "http://www.w3.org/TR/2001/REC-SVG-20010904/DTD/svg10.dtd">
<svg version="1.0" xmlns="http://www.w3.org/2000/svg"
 width="19.000000pt" height="88.000000pt" viewBox="0 0 19.000000 88.000000"
 preserveAspectRatio="xMidYMid meet">
<metadata>
Created by potrace 1.14, written by Peter Selinger 2001-2017
</metadata>
<g transform="translate(0.000000,88.000000) scale(0.100000,-0.100000)"
fill="#000000" stroke="none">
<path fill="#000000" stroke="none" d="M52 868 c-7 -7 -12 -37 -12 -67 0 -35
-7 -70 -21 -98 -18 -38 -19 -46 -7 -56 26 -22 57 -85 67 -140 5 -29 19 -78 30
-108 29 -76 27 -99 -13 -138 -26 -25 -35 -44 -40 -84 -4 -27 -19 -70 -33 -94
-14 -24 -24 -45 -22 -47 2 -1 34 -9 70 -17 l67 -16 -21 49 -20 49 32 86 c35
90 36 115 8 188 -8 22 -14 41 -12 43 2 2 17 -4 34 -13 l31 -16 0 36 c0 26 -9
45 -35 74 -35 38 -35 39 -34 132 0 52 3 114 7 139 10 61 5 78 -28 95 -35 18
-33 18 -48 3z"/>
</g>
</svg>
