<?xml version="1.0" standalone="no"?>
<!DOCTYPE svg PUBLIC "-//W3C//DTD SVG 20010904//EN"
 "http://www.w3.org/TR/2001/REC-SVG-20010904/DTD/svg10.dtd">
<svg version="1.0" xmlns="http://www.w3.org/2000/svg"
 width="21.000000pt" height="120.000000pt" viewBox="0 0 21.000000 120.000000"
 preserveAspectRatio="xMidYMid meet">
<metadata>
Created by potrace 1.14, written by Peter Selinger 2001-2017
</metadata>
<g transform="translate(0.000000,120.000000) scale(0.100000,-0.100000)"
fill="#000000" stroke="none">
<path fill="#000000" stroke="none" d="M5 768 c-3 -238 -5 -509 -3 -603 l3
-170 47 75 c26 41 72 100 102 130 31 30 56 63 56 73 0 11 -27 101 -60 201 -58
177 -60 184 -70 346 -7 108 -20 202 -37 273 -14 59 -26 107 -28 107 -1 0 -6
-195 -10 -432z"/>
</g>
</svg>
