<?xml version="1.0" standalone="no"?>
<!DOCTYPE svg PUBLIC "-//W3C//DTD SVG 20010904//EN"
 "http://www.w3.org/TR/2001/REC-SVG-20010904/DTD/svg10.dtd">
<svg version="1.0" xmlns="http://www.w3.org/2000/svg"
 width="75.000000pt" height="333.000000pt" viewBox="0 0 75.000000 333.000000"
 preserveAspectRatio="xMidYMid meet">
<metadata>
Created by potrace 1.14, written by Peter Selinger 2001-2017
</metadata>
<g transform="translate(0.000000,333.000000) scale(0.100000,-0.100000)"
fill="#000000" stroke="none">
<path fill="#000000" stroke="none" d="M510 3305 c-82 -43 -112 -75 -121 -130
-14 -85 -10 -217 7 -245 14 -23 14 -24 9 -2 -4 13 3 47 17 82 21 54 27 61 73
82 67 30 144 28 185 -4 37 -29 42 -45 44 -129 1 -39 7 -74 14 -81 9 -9 12 29
12 188 0 199 0 201 -24 223 -17 16 -44 25 -93 32 -37 4 -70 8 -73 8 -3 0 -25
-11 -50 -24z"/>
<path fill="#000000" stroke="none" d="M358 2410 c-15 -11 -32 -36 -38 -55
-10 -30 -9 -40 9 -68 l20 -33 -78 -59 -78 -60 24 -73 25 -72 -72 -171 c-75
-181 -77 -199 -24 -199 16 0 28 -8 36 -24 6 -14 96 -90 199 -171 173 -133 191
-151 217 -203 l28 -57 -29 -236 -29 -236 76 -343 c42 -189 78 -345 81 -348 21
-22 23 61 14 613 -15 946 -18 1007 -40 1012 -10 3 -21 15 -25 27 -10 33 -66
87 -84 81 -17 -5 -40 30 -40 62 0 9 -15 52 -34 97 -19 45 -49 121 -68 170
l-35 89 35 31 35 32 -12 70 c-19 114 -21 122 -39 127 -9 3 -24 8 -33 11 -9 4
-26 -2 -41 -14z"/>
<path fill="#000000" stroke="none" d="M32 2092 c-17 -33 -32 -64 -32 -70 0
-6 25 -31 55 -56 l55 -45 53 16 c28 8 53 16 55 18 1 1 -22 45 -51 96 -70 121
-88 126 -135 41z"/>
<path fill="#000000" stroke="none" d="M509 377 l-66 -164 27 -54 c15 -30 31
-72 34 -94 12 -68 16 -71 81 -52 32 9 60 18 62 21 5 5 -54 440 -66 484 -5 19
-20 -9 -72 -141z"/>
</g>
</svg>
