<?xml version="1.0" standalone="no"?>
<!DOCTYPE svg PUBLIC "-//W3C//DTD SVG 20010904//EN"
 "http://www.w3.org/TR/2001/REC-SVG-20010904/DTD/svg10.dtd">
<svg version="1.0" xmlns="http://www.w3.org/2000/svg"
 width="11.000000pt" height="70.000000pt" viewBox="0 0 11.000000 70.000000"
 preserveAspectRatio="xMidYMid meet">
<metadata>
Created by potrace 1.14, written by Peter Selinger 2001-2017
</metadata>
<g transform="translate(0.000000,70.000000) scale(0.100000,-0.100000)"
fill="#000000" stroke="none">
<path fill="#000000" stroke="none" d="M56 684 c-10 -9 -16 -33 -16 -62 0 -26
-7 -74 -14 -107 -21 -86 -32 -255 -17 -255 6 0 11 -7 11 -15 0 -13 7 -15 34
-10 20 4 36 2 40 -4 4 -6 2 -11 -3 -11 -14 0 -51 -37 -51 -50 0 -5 11 -10 25
-10 24 0 25 -3 24 -57 -1 -51 -2 -54 -9 -25 -4 18 -11 36 -14 39 -11 11 -34
-20 -44 -58 -8 -31 -7 -37 10 -48 20 -13 58 -6 70 13 4 6 8 161 8 344 0 321
-1 332 -19 332 -11 0 -27 -7 -35 -16z"/>
</g>
</svg>
