<?xml version="1.0" standalone="no"?>
<!DOCTYPE svg PUBLIC "-//W3C//DTD SVG 20010904//EN"
 "http://www.w3.org/TR/2001/REC-SVG-20010904/DTD/svg10.dtd">
<svg version="1.0" xmlns="http://www.w3.org/2000/svg"
 width="17.000000pt" height="72.000000pt" viewBox="0 0 17.000000 72.000000"
 preserveAspectRatio="xMidYMid meet">
<metadata>
Created by potrace 1.14, written by Peter Selinger 2001-2017
</metadata>
<g transform="translate(0.000000,72.000000) scale(0.100000,-0.100000)"
fill="#000000" stroke="none">
<path fill="#000000" stroke="none" d="M108 709 c-10 -5 -20 -26 -24 -46 -4
-21 -15 -44 -25 -53 -21 -18 -59 -170 -59 -236 l0 -44 26 16 c15 11 47 60 80
125 56 113 66 165 44 223 -10 28 -16 30 -42 15z"/>
<path fill="#000000" stroke="none" d="M126 339 l-39 -45 2 -128 c2 -109 0
-131 -15 -147 -17 -18 -16 -19 18 -19 l35 0 6 103 c4 56 14 128 22 160 9 33
15 73 13 90 l-3 31 -39 -45z"/>
</g>
</svg>
