<?xml version="1.0" standalone="no"?>
<!DOCTYPE svg PUBLIC "-//W3C//DTD SVG 20010904//EN"
 "http://www.w3.org/TR/2001/REC-SVG-20010904/DTD/svg10.dtd">
<svg version="1.0" xmlns="http://www.w3.org/2000/svg"
 width="118.000000pt" height="531.000000pt" viewBox="0 0 118.000000 531.000000"
 preserveAspectRatio="xMidYMid meet">
<metadata>
Created by potrace 1.14, written by Peter Selinger 2001-2017
</metadata>
<g transform="translate(0.000000,531.000000) scale(0.100000,-0.100000)"
fill="#000000" stroke="none">
<path fill="#000000" stroke="none" d="M280 5243 l-135 -64 -72 -158 -71 -159
21 -201 21 -200 77 -56 c66 -47 85 -68 128 -139 28 -46 51 -86 51 -90 0 -3
-12 -1 -26 4 -23 9 -36 3 -119 -54 -105 -74 -95 -51 -120 -271 l-18 -150 65
-275 64 -275 -18 -200 c-24 -284 -38 -504 -47 -780 -7 -198 -6 -243 5 -256 19
-21 18 -305 -1 -544 -9 -112 -15 -318 -15 -545 l0 -366 66 -64 66 -65 -7 -158
-7 -159 28 15 c25 12 44 12 134 1 58 -7 116 -13 130 -14 23 0 35 19 125 201
l100 201 102 -211 102 -211 121 0 c121 0 121 0 114 23 -3 12 -10 28 -13 35 -6
11 20 234 44 383 l6 37 -71 -15 c-69 -14 -82 -14 -306 17 -190 26 -249 30
-323 25 -86 -7 -90 -7 -124 19 -18 14 -39 26 -45 26 -7 0 -12 11 -12 25 0 31
-87 1113 -95 1177 -5 45 -4 47 31 69 33 20 36 25 31 55 l-6 34 66 0 c51 0 75
5 107 24 32 18 62 25 140 29 85 6 104 10 146 36 l48 30 19 -21 c31 -35 110
-68 223 -93 60 -14 113 -25 118 -25 5 0 -8 87 -28 192 -35 180 -40 225 -65
648 l-27 455 36 472 36 472 -47 44 c-27 24 -124 113 -218 197 -93 84 -171 156
-173 160 -2 5 6 26 17 48 20 39 20 43 4 278 l-16 239 -86 81 c-47 45 -99 92
-116 106 l-30 25 -135 -64z"/>
<path fill="#ffffff" stroke="none" d="M403 2850 c5 -4 -12 -61 -38 -126 -26
-66 -51 -129 -55 -141 l-9 -22 -63 21 c-35 11 -66 24 -70 27 -7 6 29 104 97
268 l14 32 58 -26 c32 -14 62 -29 66 -33z"/>
</g>
</svg>
