<?xml version="1.0" standalone="no"?>
<!DOCTYPE svg PUBLIC "-//W3C//DTD SVG 20010904//EN"
 "http://www.w3.org/TR/2001/REC-SVG-20010904/DTD/svg10.dtd">
<svg version="1.0" xmlns="http://www.w3.org/2000/svg"
 width="26.000000pt" height="150.000000pt" viewBox="0 0 26.000000 150.000000"
 preserveAspectRatio="xMidYMid meet">
<metadata>
Created by potrace 1.14, written by Peter Selinger 2001-2017
</metadata>
<g transform="translate(0.000000,150.000000) scale(0.100000,-0.100000)"
fill="#000000" stroke="none">
<path fill="#000000" stroke="none" d="M163 1313 c-75 -157 -91 -198 -87 -225
4 -25 -5 -53 -35 -116 -23 -46 -41 -93 -41 -105 0 -19 16 -83 80 -328 7 -23
19 -40 35 -47 21 -10 25 -19 25 -52 0 -34 10 -53 57 -117 l58 -76 3 317 c1
175 1 457 0 629 l-3 311 -92 -191z"/>
<path fill="#000000" stroke="none" d="M233 65 l-21 -65 24 0 c23 0 24 3 24
65 0 36 -1 65 -3 65 -2 0 -12 -29 -24 -65z"/>
</g>
</svg>
