<?xml version="1.0" standalone="no"?>
<!DOCTYPE svg PUBLIC "-//W3C//DTD SVG 20010904//EN"
 "http://www.w3.org/TR/2001/REC-SVG-20010904/DTD/svg10.dtd">
<svg version="1.0" xmlns="http://www.w3.org/2000/svg"
 width="17.000000pt" height="68.000000pt" viewBox="0 0 17.000000 68.000000"
 preserveAspectRatio="xMidYMid meet">
<metadata>
Created by potrace 1.14, written by Peter Selinger 2001-2017
</metadata>
<g transform="translate(0.000000,68.000000) scale(0.100000,-0.100000)"
fill="#000000" stroke="none">
<path fill="#000000" stroke="none" d="M17 669 c-9 -5 -17 -19 -17 -30 0 -29
29 -69 50 -69 20 0 25 -20 36 -158 4 -51 2 -87 -4 -95 -7 -8 -7 -46 0 -117 6
-58 11 -126 12 -152 1 -51 10 -57 48 -37 18 10 20 19 18 127 -1 65 1 165 5
224 4 58 5 118 1 133 -4 14 -25 46 -47 70 -23 25 -39 51 -36 59 7 16 -19 56
-36 56 -7 0 -20 -5 -30 -11z"/>
</g>
</svg>
