<?xml version="1.0" standalone="no"?>
<!DOCTYPE svg PUBLIC "-//W3C//DTD SVG 20010904//EN"
 "http://www.w3.org/TR/2001/REC-SVG-20010904/DTD/svg10.dtd">
<svg version="1.0" xmlns="http://www.w3.org/2000/svg"
 width="7.000000pt" height="37.000000pt" viewBox="0 0 7.000000 37.000000"
 preserveAspectRatio="xMidYMid meet">
<metadata>
Created by potrace 1.14, written by Peter Selinger 2001-2017
</metadata>
<g transform="translate(0.000000,37.000000) scale(0.100000,-0.100000)"
fill="#000000" stroke="none">
<path fill="#000000" stroke="none" d="M30 353 c-14 -9 -26 -17 -28 -18 -1 -1
1 -10 4 -19 4 -11 14 -16 25 -13 15 4 19 0 19 -19 0 -14 -6 -35 -14 -47 -31
-50 -25 -217 8 -230 10 -4 15 20 20 100 8 131 7 222 -2 246 -7 16 -9 16 -32 0z"/>
</g>
</svg>
