<?xml version="1.0" standalone="no"?>
<!DOCTYPE svg PUBLIC "-//W3C//DTD SVG 20010904//EN"
 "http://www.w3.org/TR/2001/REC-SVG-20010904/DTD/svg10.dtd">
<svg version="1.0" xmlns="http://www.w3.org/2000/svg"
 width="56.000000pt" height="295.000000pt" viewBox="0 0 56.000000 295.000000"
 preserveAspectRatio="xMidYMid meet">
<metadata>
Created by potrace 1.14, written by Peter Selinger 2001-2017
</metadata>
<g transform="translate(0.000000,295.000000) scale(0.100000,-0.100000)"
fill="#000000" stroke="none">
<path fill="#000000" stroke="none" d="M139 2937 c-89 -40 -138 -158 -139
-333 l0 -92 125 -196 c69 -108 141 -229 161 -269 20 -39 38 -74 40 -76 2 -2
15 1 28 7 29 13 23 25 60 -128 14 -58 48 -177 75 -265 44 -140 50 -154 50
-114 1 33 -15 89 -53 191 -47 125 -58 167 -76 299 -16 110 -21 182 -17 251 5
90 8 103 43 165 29 53 38 80 41 132 10 142 -50 313 -133 376 -22 17 -34 34
-31 44 3 14 -7 16 -72 18 -42 0 -88 -4 -102 -10z"/>
<path fill="#000000" stroke="none" d="M213 1857 c25 -61 78 -147 90 -147 5 0
-2 19 -16 43 -13 23 -39 68 -57 100 -17 31 -33 57 -35 57 -2 0 6 -24 18 -53z"/>
<path fill="#000000" stroke="none" d="M445 1315 c-49 -58 -97 -105 -107 -105
-15 0 -15 -5 1 -68 10 -37 23 -76 29 -88 6 -11 12 -58 13 -104 2 -77 0 -89
-24 -125 -31 -47 -33 -69 -47 -490 -9 -248 -8 -280 5 -288 10 -5 14 -16 10
-28 -6 -18 -2 -19 47 -14 29 2 83 7 121 11 l67 6 0 84 c0 52 -14 168 -36 297
-40 232 -40 255 2 497 11 62 14 145 12 303 l-3 218 -90 -106z"/>
</g>
</svg>
