<?xml version="1.0" standalone="no"?>
<!DOCTYPE svg PUBLIC "-//W3C//DTD SVG 20010904//EN"
 "http://www.w3.org/TR/2001/REC-SVG-20010904/DTD/svg10.dtd">
<svg version="1.0" xmlns="http://www.w3.org/2000/svg"
 width="10.000000pt" height="59.000000pt" viewBox="0 0 10.000000 59.000000"
 preserveAspectRatio="xMidYMid meet">
<metadata>
Created by potrace 1.14, written by Peter Selinger 2001-2017
</metadata>
<g transform="translate(0.000000,59.000000) scale(0.100000,-0.100000)"
fill="#000000" stroke="none">
<path fill="#000000" stroke="none" d="M34 565 c-13 -20 -15 -31 -6 -50 8 -16
8 -34 1 -57 -5 -18 -7 -53 -4 -78 4 -25 2 -65 -4 -90 -8 -35 -7 -51 6 -78 12
-25 13 -38 5 -55 -6 -12 -13 -40 -15 -62 -3 -22 -8 -50 -12 -62 -5 -16 -2 -23
14 -28 32 -10 41 2 41 51 0 24 5 44 10 44 7 0 8 -13 5 -34 -4 -18 -3 -36 3
-40 14 -9 22 108 22 347 l0 217 -25 0 c-15 0 -31 -10 -41 -25z"/>
</g>
</svg>
