<?xml version="1.0" standalone="no"?>
<!DOCTYPE svg PUBLIC "-//W3C//DTD SVG 20010904//EN"
 "http://www.w3.org/TR/2001/REC-SVG-20010904/DTD/svg10.dtd">
<svg version="1.0" xmlns="http://www.w3.org/2000/svg"
 width="24.000000pt" height="98.000000pt" viewBox="0 0 24.000000 98.000000"
 preserveAspectRatio="xMidYMid meet">
<metadata>
Created by potrace 1.14, written by Peter Selinger 2001-2017
</metadata>
<g transform="translate(0.000000,98.000000) scale(0.100000,-0.100000)"
fill="#000000" stroke="none">
<path fill="#000000" stroke="none" d="M69 968 c-36 -31 -40 -43 -24 -88 16
-46 10 -60 -28 -60 -15 0 -11 -12 22 -77 22 -43 55 -94 75 -112 21 -20 36 -45
36 -58 0 -28 -1 -28 -48 -4 l-38 19 15 -60 c13 -53 13 -74 0 -168 -8 -59 -11
-122 -8 -140 4 -19 3 -59 -2 -90 -5 -30 -6 -69 -3 -87 5 -26 12 -32 40 -37 18
-4 56 -4 84 0 62 8 64 23 13 72 -32 29 -38 43 -39 76 0 23 -6 80 -13 128 -12
83 -12 90 13 170 40 132 66 254 66 311 0 51 -1 53 -34 65 -33 12 -33 13 -26
54 11 61 -9 98 -53 98 -18 0 -40 -6 -48 -12z"/>
</g>
</svg>
