<?xml version="1.0" standalone="no"?>
<!DOCTYPE svg PUBLIC "-//W3C//DTD SVG 20010904//EN"
 "http://www.w3.org/TR/2001/REC-SVG-20010904/DTD/svg10.dtd">
<svg version="1.0" xmlns="http://www.w3.org/2000/svg"
 width="24.000000pt" height="107.000000pt" viewBox="0 0 24.000000 107.000000"
 preserveAspectRatio="xMidYMid meet">
<metadata>
Created by potrace 1.14, written by Peter Selinger 2001-2017
</metadata>
<g transform="translate(0.000000,107.000000) scale(0.100000,-0.100000)"
fill="#000000" stroke="none">
<path fill="#000000" stroke="none" d="M168 1051 c-64 -22 -85 -44 -90 -94 -3
-23 -11 -64 -19 -90 -12 -45 -12 -51 7 -85 17 -32 24 -37 51 -35 l31 3 -20
-78 c-10 -42 -34 -102 -53 -132 l-33 -55 -7 -180 c-6 -168 -14 -245 -30 -288
-7 -16 3 -17 114 -17 l121 0 0 518 c-1 391 -4 521 -13 533 -11 14 -16 14 -59
0z"/>
</g>
</svg>
