<?xml version="1.0" standalone="no"?>
<!DOCTYPE svg PUBLIC "-//W3C//DTD SVG 20010904//EN"
 "http://www.w3.org/TR/2001/REC-SVG-20010904/DTD/svg10.dtd">
<svg version="1.0" xmlns="http://www.w3.org/2000/svg"
 width="60.000000pt" height="254.000000pt" viewBox="0 0 60.000000 254.000000"
 preserveAspectRatio="xMidYMid meet">
<metadata>
Created by potrace 1.14, written by Peter Selinger 2001-2017
</metadata>
<g transform="translate(0.000000,254.000000) scale(0.100000,-0.100000)"
fill="#000000" stroke="none">
<path fill="#000000" stroke="none" d="M407 2521 c-25 -29 -27 -51 -6 -104 17
-43 19 -58 10 -88 -6 -20 -11 -52 -11 -71 0 -19 -6 -54 -14 -79 -8 -24 -17
-60 -20 -80 -4 -20 -20 -56 -37 -79 -28 -38 -34 -41 -62 -36 -95 20 -91 20
-120 -21 -15 -22 -27 -53 -27 -71 0 -32 28 -102 41 -102 3 0 12 -60 19 -132
11 -129 58 -342 87 -400 23 -48 16 -121 -23 -221 -20 -52 -41 -133 -49 -186
-8 -52 -21 -115 -29 -140 -9 -25 -27 -99 -40 -163 -27 -125 -77 -267 -108
-307 -27 -36 -23 -55 33 -139 59 -88 73 -102 107 -102 20 0 23 4 18 27 -28
140 -37 225 -31 293 8 88 69 279 124 388 21 43 47 106 57 142 23 86 64 181
108 254 41 68 43 76 18 69 -14 -3 -22 4 -32 27 -16 39 -6 85 41 193 22 50 29
78 25 101 -5 28 0 37 47 84 29 29 57 49 61 45 5 -5 3 2 -3 15 -15 29 -34 36
-58 23 -11 -5 -42 -13 -69 -16 -47 -5 -50 -4 -76 31 -24 31 -26 42 -21 87 3
29 14 74 24 100 11 26 19 57 19 69 0 12 17 79 37 150 36 125 37 130 26 207
-10 65 -9 88 3 136 14 52 14 59 0 67 -8 5 -13 15 -10 22 8 21 -43 27 -59 7z"/>
</g>
</svg>
