<?xml version="1.0" standalone="no"?>
<!DOCTYPE svg PUBLIC "-//W3C//DTD SVG 20010904//EN"
 "http://www.w3.org/TR/2001/REC-SVG-20010904/DTD/svg10.dtd">
<svg version="1.0" xmlns="http://www.w3.org/2000/svg"
 width="22.000000pt" height="99.000000pt" viewBox="0 0 22.000000 99.000000"
 preserveAspectRatio="xMidYMid meet">
<metadata>
Created by potrace 1.14, written by Peter Selinger 2001-2017
</metadata>
<g transform="translate(0.000000,99.000000) scale(0.100000,-0.100000)"
fill="#000000" stroke="none">
<path fill="#000000" stroke="none" d="M68 963 c-29 -31 -40 -87 -25 -120 7
-16 5 -39 -6 -80 -8 -32 -21 -110 -28 -174 -10 -100 -10 -122 4 -160 40 -114
46 -246 17 -348 -14 -49 0 -61 59 -54 36 4 50 1 60 -11 18 -21 34 -20 54 2 26
28 20 47 -19 65 -28 14 -34 21 -25 31 12 14 9 212 -4 291 l-7 40 20 -24 c25
-31 52 -22 52 17 0 16 -11 55 -23 88 -21 51 -23 74 -21 175 1 64 5 139 9 167
9 68 0 89 -42 107 -46 19 -45 20 -75 -12z"/>
</g>
</svg>
