<?xml version="1.0" standalone="no"?>
<!DOCTYPE svg PUBLIC "-//W3C//DTD SVG 20010904//EN"
 "http://www.w3.org/TR/2001/REC-SVG-20010904/DTD/svg10.dtd">
<svg version="1.0" xmlns="http://www.w3.org/2000/svg"
 width="47.000000pt" height="193.000000pt" viewBox="0 0 47.000000 193.000000"
 preserveAspectRatio="xMidYMid meet">
<metadata>
Created by potrace 1.14, written by Peter Selinger 2001-2017
</metadata>
<g transform="translate(0.000000,193.000000) scale(0.100000,-0.100000)"
fill="#000000" stroke="none">
<path fill="#000000" stroke="none" d="M119 1874 c-35 -32 -66 -59 -68 -61 -2
-1 2 -40 9 -87 l13 -84 -37 -50 c-36 -49 -36 -51 -21 -84 29 -65 84 -425 102
-669 l17 -235 -33 -225 c-41 -273 -48 -369 -29 -369 7 0 23 -3 34 -6 21 -5 22
-2 28 128 6 118 12 151 54 293 l47 160 3 -277 2 -278 76 0 c67 0 75 2 70 18
-24 80 -24 104 10 314 50 315 50 317 20 428 -14 52 -30 140 -36 195 -5 55 -12
117 -15 137 l-5 37 55 -6 c30 -3 55 -3 55 1 0 19 -32 202 -49 276 -10 47 -37
125 -60 174 -31 68 -41 101 -41 140 0 50 -2 53 -69 120 l-68 68 -64 -58z"/>
</g>
</svg>
