<?xml version="1.0" standalone="no"?>
<!DOCTYPE svg PUBLIC "-//W3C//DTD SVG 20010904//EN"
 "http://www.w3.org/TR/2001/REC-SVG-20010904/DTD/svg10.dtd">
<svg version="1.0" xmlns="http://www.w3.org/2000/svg"
 width="29.000000pt" height="125.000000pt" viewBox="0 0 29.000000 125.000000"
 preserveAspectRatio="xMidYMid meet">
<metadata>
Created by potrace 1.14, written by Peter Selinger 2001-2017
</metadata>
<g transform="translate(0.000000,125.000000) scale(0.100000,-0.100000)"
fill="#000000" stroke="none">
<path fill="#000000" stroke="none" d="M13 1231 c-16 -26 -18 -1029 -2 -1079
6 -18 11 -58 12 -90 l2 -57 40 1 c50 1 119 33 123 57 3 12 -3 17 -21 17 -23 0
-26 5 -38 70 -11 61 -10 77 6 136 18 65 17 74 -1 231 -6 49 -5 53 19 64 14 6
29 18 32 27 6 17 8 15 -27 33 -18 10 -25 18 -19 27 6 10 20 3 56 -27 46 -38
49 -39 71 -24 29 18 30 39 6 67 -36 41 -99 199 -100 248 0 33 -9 63 -27 95
-21 38 -25 55 -19 86 4 26 1 49 -9 70 -9 18 -18 40 -21 50 -8 25 -67 23 -83
-2z"/>
</g>
</svg>
