<?xml version="1.0" standalone="no"?>
<!DOCTYPE svg PUBLIC "-//W3C//DTD SVG 20010904//EN"
 "http://www.w3.org/TR/2001/REC-SVG-20010904/DTD/svg10.dtd">
<svg version="1.0" xmlns="http://www.w3.org/2000/svg"
 width="108.000000pt" height="542.000000pt" viewBox="0 0 108.000000 542.000000"
 preserveAspectRatio="xMidYMid meet">
<metadata>
Created by potrace 1.14, written by Peter Selinger 2001-2017
</metadata>
<g transform="translate(0.000000,542.000000) scale(0.100000,-0.100000)"
fill="#000000" stroke="none">
<path fill="#000000" stroke="none" d="M635 5415 c-5 -2 -58 -7 -116 -10
l-106 -7 -123 -103 c-148 -123 -175 -166 -192 -304 l-11 -86 97 -440 c53 -242
96 -452 96 -468 0 -15 -9 -69 -19 -120 -23 -108 -47 -263 -57 -363 -6 -69 -8
-72 -68 -139 -41 -46 -73 -95 -97 -149 l-36 -81 67 -200 c37 -110 88 -255 114
-323 34 -91 52 -162 72 -280 38 -229 38 -228 265 -405 113 -89 215 -178 261
-229 l76 -83 -15 -89 c-8 -53 -34 -140 -63 -218 l-50 -130 0 -123 c0 -105 6
-149 39 -306 22 -101 54 -282 70 -403 l31 -219 52 -70 52 -70 28 174 c50 315
50 327 49 1579 -2 988 1 1209 14 1390 l16 215 -33 285 -32 285 -86 90 c-122
127 -179 205 -169 230 4 11 8 45 8 76 1 93 13 113 82 138 43 16 60 28 64 44 2
12 11 58 20 101 11 57 28 102 59 155 40 68 45 85 51 162 6 82 4 95 -36 237
l-42 150 -52 40 c-45 35 -64 43 -141 56 -87 16 -119 18 -139 11z"/>
</g>
</svg>
