<?xml version="1.0" standalone="no"?>
<!DOCTYPE svg PUBLIC "-//W3C//DTD SVG 20010904//EN"
 "http://www.w3.org/TR/2001/REC-SVG-20010904/DTD/svg10.dtd">
<svg version="1.0" xmlns="http://www.w3.org/2000/svg"
 width="60.000000pt" height="287.000000pt" viewBox="0 0 60.000000 287.000000"
 preserveAspectRatio="xMidYMid meet">
<metadata>
Created by potrace 1.14, written by Peter Selinger 2001-2017
</metadata>
<g transform="translate(0.000000,287.000000) scale(0.100000,-0.100000)"
fill="#000000" stroke="none">
<path fill="#000000" stroke="none" d="M109 2849 c-31 -11 -68 -32 -83 -48
l-27 -28 24 -104 c13 -57 34 -123 46 -147 19 -37 21 -52 15 -121 -6 -70 -4
-86 20 -149 31 -80 32 -86 40 -202 4 -47 9 -104 12 -127 l6 -42 -43 -3 -43 -3
-23 -75 c-12 -41 -23 -80 -23 -86 0 -6 26 -14 59 -18 l58 -7 7 -117 c4 -65 5
-129 1 -142 -3 -14 -9 -153 -14 -310 l-8 -285 30 -102 c40 -137 37 -148 -52
-163 l-68 -13 -9 -46 -9 -46 49 -31 c47 -30 50 -31 92 -18 l44 13 0 -117 0
-118 -86 -63 c-47 -35 -82 -67 -77 -71 4 -4 44 -19 88 -34 l79 -26 81 48 c44
27 99 57 123 67 27 11 44 26 46 39 3 12 21 309 41 661 20 352 50 786 66 965
l29 325 -49 172 -50 173 -61 69 c-73 81 -99 123 -130 211 -19 53 -32 72 -71
103 -54 42 -54 42 -130 16z"/>
</g>
</svg>
