<?xml version="1.0" standalone="no"?>
<!DOCTYPE svg PUBLIC "-//W3C//DTD SVG 20010904//EN"
 "http://www.w3.org/TR/2001/REC-SVG-20010904/DTD/svg10.dtd">
<svg version="1.0" xmlns="http://www.w3.org/2000/svg"
 width="11.000000pt" height="61.000000pt" viewBox="0 0 11.000000 61.000000"
 preserveAspectRatio="xMidYMid meet">
<metadata>
Created by potrace 1.14, written by Peter Selinger 2001-2017
</metadata>
<g transform="translate(0.000000,61.000000) scale(0.100000,-0.100000)"
fill="#000000" stroke="none">
<path fill="#000000" stroke="none" d="M6 592 c-3 -9 5 -74 18 -143 l25 -126
-20 -121 -20 -121 26 -41 c28 -44 28 -44 55 -30 17 9 17 12 -6 75 -28 77 -30
139 -8 195 23 58 24 172 2 197 -11 12 -18 36 -18 60 0 32 -5 44 -24 57 -23 14
-25 14 -30 -2z"/>
</g>
</svg>
