<?xml version="1.0" standalone="no"?>
<!DOCTYPE svg PUBLIC "-//W3C//DTD SVG 20010904//EN"
 "http://www.w3.org/TR/2001/REC-SVG-20010904/DTD/svg10.dtd">
<svg version="1.0" xmlns="http://www.w3.org/2000/svg"
 width="16.000000pt" height="74.000000pt" viewBox="0 0 16.000000 74.000000"
 preserveAspectRatio="xMidYMid meet">
<metadata>
Created by potrace 1.14, written by Peter Selinger 2001-2017
</metadata>
<g transform="translate(0.000000,74.000000) scale(0.100000,-0.100000)"
fill="#000000" stroke="none">
<path fill="#000000" stroke="none" d="M13 733 c-19 -7 -17 -89 2 -97 19 -7
19 -43 0 -76 -15 -27 -19 -172 -6 -285 6 -58 7 -60 36 -63 l30 -3 -3 -104 -4
-105 44 0 45 0 -3 43 c-2 23 -8 74 -14 112 -6 39 -12 152 -13 252 -2 173 -3
183 -26 213 -17 23 -20 35 -12 43 35 35 -26 91 -76 70z"/>
</g>
</svg>
