<?xml version="1.0" standalone="no"?>
<!DOCTYPE svg PUBLIC "-//W3C//DTD SVG 20010904//EN"
 "http://www.w3.org/TR/2001/REC-SVG-20010904/DTD/svg10.dtd">
<svg version="1.0" xmlns="http://www.w3.org/2000/svg"
 width="71.000000pt" height="339.000000pt" viewBox="0 0 71.000000 339.000000"
 preserveAspectRatio="xMidYMid meet">
<metadata>
Created by potrace 1.14, written by Peter Selinger 2001-2017
</metadata>
<g transform="translate(0.000000,339.000000) scale(0.100000,-0.100000)"
fill="#000000" stroke="none">
<path fill="#000000" stroke="none" d="M395 3350 c-63 -36 -77 -40 -140 -40
l-70 0 -37 -58 -37 -57 55 -56 c31 -32 55 -61 53 -66 -2 -5 -35 -38 -74 -73
-38 -35 -80 -79 -93 -97 -12 -18 -26 -33 -31 -33 -5 0 -11 -37 -15 -83 -7 -82
26 -427 57 -593 11 -63 10 -79 -10 -170 -12 -56 -26 -141 -31 -189 l-10 -88
84 -105 84 -104 0 -87 c0 -47 9 -136 21 -197 l20 -110 -49 -165 c-31 -101 -60
-229 -77 -329 -28 -174 -27 -180 23 -180 21 0 22 -4 22 -73 0 -55 -6 -89 -25
-135 -21 -52 -25 -78 -25 -162 l0 -100 268 0 268 0 28 29 c25 26 27 34 21 70
-6 37 -17 49 -105 121 -83 68 -100 86 -114 126 -9 26 -15 48 -13 49 1 1 21 7
44 14 50 14 50 12 57 171 5 93 18 165 69 380 l63 264 -78 456 c-64 379 -77
474 -78 569 l0 115 -31 25 -31 26 26 94 25 94 -20 28 c-11 15 -35 62 -54 104
l-35 76 37 45 c34 39 41 44 70 39 30 -5 40 1 119 77 l86 83 -5 61 c-3 33 -15
84 -26 113 -25 62 -25 59 -4 63 29 5 -75 65 -143 82 -34 9 -63 16 -65 16 -2
-1 -35 -19 -74 -40z"/>
</g>
</svg>
