<?xml version="1.0" standalone="no"?>
<!DOCTYPE svg PUBLIC "-//W3C//DTD SVG 20010904//EN"
 "http://www.w3.org/TR/2001/REC-SVG-20010904/DTD/svg10.dtd">
<svg version="1.0" xmlns="http://www.w3.org/2000/svg"
 width="33.000000pt" height="138.000000pt" viewBox="0 0 33.000000 138.000000"
 preserveAspectRatio="xMidYMid meet">
<metadata>
Created by potrace 1.14, written by Peter Selinger 2001-2017
</metadata>
<g transform="translate(0.000000,138.000000) scale(0.100000,-0.100000)"
fill="#000000" stroke="none">
<path fill="#000000" stroke="none" d="M1 898 l-1 -486 30 -7 c23 -5 29 -11
26 -23 -22 -72 -56 -266 -56 -318 l0 -64 54 0 54 0 69 208 70 207 41 9 c23 5
42 12 42 15 0 4 -31 76 -69 161 -67 153 -217 593 -245 720 -12 59 -14 21 -15
-422z"/>
</g>
</svg>
