<?xml version="1.0" standalone="no"?>
<!DOCTYPE svg PUBLIC "-//W3C//DTD SVG 20010904//EN"
 "http://www.w3.org/TR/2001/REC-SVG-20010904/DTD/svg10.dtd">
<svg version="1.0" xmlns="http://www.w3.org/2000/svg"
 width="8.000000pt" height="47.000000pt" viewBox="0 0 8.000000 47.000000"
 preserveAspectRatio="xMidYMid meet">
<metadata>
Created by potrace 1.14, written by Peter Selinger 2001-2017
</metadata>
<g transform="translate(0.000000,47.000000) scale(0.100000,-0.100000)"
fill="#000000" stroke="none">
<path fill="#000000" stroke="none" d="M6 423 c17 -145 20 -196 13 -278 -3
-50 -10 -100 -14 -111 -5 -18 -2 -23 20 -28 15 -4 30 -4 33 -1 3 3 10 96 16
207 9 201 9 202 -12 216 -12 8 -22 21 -22 28 0 8 -9 14 -20 14 -18 0 -20 -5
-14 -47z"/>
</g>
</svg>
