<?xml version="1.0" standalone="no"?>
<!DOCTYPE svg PUBLIC "-//W3C//DTD SVG 20010904//EN"
 "http://www.w3.org/TR/2001/REC-SVG-20010904/DTD/svg10.dtd">
<svg version="1.0" xmlns="http://www.w3.org/2000/svg"
 width="20.000000pt" height="82.000000pt" viewBox="0 0 20.000000 82.000000"
 preserveAspectRatio="xMidYMid meet">
<metadata>
Created by potrace 1.14, written by Peter Selinger 2001-2017
</metadata>
<g transform="translate(0.000000,82.000000) scale(0.100000,-0.100000)"
fill="#000000" stroke="none">
<path fill="#000000" stroke="none" d="M59 774 c-27 -40 -31 -52 -26 -89 5
-30 2 -47 -7 -54 -10 -8 -15 -61 -19 -199 -5 -169 -3 -195 15 -264 21 -77 21
-78 54 -78 31 0 33 -2 36 -42 3 -39 6 -43 31 -46 23 -3 27 0 27 22 0 14 7 150
15 303 l16 276 -33 28 -33 28 32 61 31 62 -41 19 c-23 10 -47 19 -54 19 -7 0
-26 -21 -44 -46z"/>
</g>
</svg>
