<?xml version="1.0" standalone="no"?>
<!DOCTYPE svg PUBLIC "-//W3C//DTD SVG 20010904//EN"
 "http://www.w3.org/TR/2001/REC-SVG-20010904/DTD/svg10.dtd">
<svg version="1.0" xmlns="http://www.w3.org/2000/svg"
 width="22.000000pt" height="137.000000pt" viewBox="0 0 22.000000 137.000000"
 preserveAspectRatio="xMidYMid meet">
<metadata>
Created by potrace 1.14, written by Peter Selinger 2001-2017
</metadata>
<g transform="translate(0.000000,137.000000) scale(0.100000,-0.100000)"
fill="#000000" stroke="none">
<path fill="#000000" stroke="none" d="M32 1347 c-28 -30 -36 -71 -24 -135 5
-29 6 -52 2 -52 -5 0 0 -22 11 -50 13 -33 18 -72 17 -117 -1 -56 5 -81 31
-142 30 -67 32 -79 25 -140 -3 -36 -12 -84 -19 -106 -8 -26 -11 -91 -9 -185 3
-151 18 -398 26 -405 2 -2 22 -7 45 -11 40 -6 41 -6 54 32 8 26 12 86 10 174
-1 74 2 149 7 165 7 23 3 42 -16 84 -24 52 -24 57 -14 150 6 53 14 194 18 313
6 176 4 221 -7 234 -12 15 -16 115 -4 133 2 4 -8 22 -23 38 -38 43 -100 52
-130 20z"/>
</g>
</svg>
