<?xml version="1.0" standalone="no"?>
<!DOCTYPE svg PUBLIC "-//W3C//DTD SVG 20010904//EN"
 "http://www.w3.org/TR/2001/REC-SVG-20010904/DTD/svg10.dtd">
<svg version="1.0" xmlns="http://www.w3.org/2000/svg"
 width="42.000000pt" height="188.000000pt" viewBox="0 0 42.000000 188.000000"
 preserveAspectRatio="xMidYMid meet">
<metadata>
Created by potrace 1.14, written by Peter Selinger 2001-2017
</metadata>
<g transform="translate(0.000000,188.000000) scale(0.100000,-0.100000)"
fill="#000000" stroke="none">
<path fill="#000000" stroke="none" d="M213 1831 c-40 -29 -71 -64 -89 -95
-25 -46 -26 -54 -21 -136 4 -65 12 -100 30 -136 24 -47 25 -57 28 -291 l4
-241 -42 -27 c-24 -15 -43 -33 -43 -41 0 -8 13 -62 30 -120 l30 -107 -21 -126
c-12 -69 -43 -206 -70 -303 -27 -97 -46 -184 -43 -192 5 -13 23 -16 89 -16 45
0 103 3 128 6 l45 6 11 62 c32 169 29 161 67 179 19 9 44 17 54 17 20 0 20 9
18 765 l-3 766 -70 38 -70 38 -62 -46z"/>
</g>
</svg>
