<?xml version="1.0" standalone="no"?>
<!DOCTYPE svg PUBLIC "-//W3C//DTD SVG 20010904//EN"
 "http://www.w3.org/TR/2001/REC-SVG-20010904/DTD/svg10.dtd">
<svg version="1.0" xmlns="http://www.w3.org/2000/svg"
 width="20.000000pt" height="82.000000pt" viewBox="0 0 20.000000 82.000000"
 preserveAspectRatio="xMidYMid meet">
<metadata>
Created by potrace 1.14, written by Peter Selinger 2001-2017
</metadata>
<g transform="translate(0.000000,82.000000) scale(0.100000,-0.100000)"
fill="#000000" stroke="none">
<path fill="#000000" stroke="none" d="M10 801 c-15 -29 -12 -67 6 -82 14 -12
16 -29 10 -119 -3 -58 -6 -109 -7 -115 -1 -16 21 -144 37 -225 9 -41 15 -108
15 -148 -2 -81 4 -112 23 -112 38 0 57 173 21 195 -48 29 -48 29 -37 81 23
102 42 216 42 257 0 63 10 87 36 93 13 4 28 13 33 22 12 22 -7 60 -33 64 -16
2 -22 11 -24 38 -5 49 -27 70 -73 70 -28 0 -41 -5 -49 -19z"/>
</g>
</svg>
