<?xml version="1.0" standalone="no"?>
<!DOCTYPE svg PUBLIC "-//W3C//DTD SVG 20010904//EN"
 "http://www.w3.org/TR/2001/REC-SVG-20010904/DTD/svg10.dtd">
<svg version="1.0" xmlns="http://www.w3.org/2000/svg"
 width="51.000000pt" height="212.000000pt" viewBox="0 0 51.000000 212.000000"
 preserveAspectRatio="xMidYMid meet">
<metadata>
Created by potrace 1.14, written by Peter Selinger 2001-2017
</metadata>
<g transform="translate(0.000000,212.000000) scale(0.100000,-0.100000)"
fill="#000000" stroke="none">
<path fill="#000000" stroke="none" d="M315 2105 c-26 -16 -102 -28 -109 -16
-13 20 -45 -4 -66 -50 -23 -48 -23 -49 -6 -111 l17 -61 -53 -52 c-29 -29 -59
-63 -66 -77 -13 -23 -11 -30 21 -79 31 -49 36 -65 47 -169 13 -122 33 -177 86
-240 42 -50 59 -203 28 -262 l-16 -30 -29 28 c-16 15 -48 57 -71 92 l-41 63
-31 -96 -30 -97 39 -34 c22 -19 55 -47 74 -61 l33 -27 29 32 28 31 30 -36 c24
-29 30 -47 33 -97 2 -33 17 -101 32 -151 25 -84 28 -106 34 -342 4 -138 10
-254 13 -258 4 -3 23 1 43 9 42 17 52 46 37 104 -9 32 -7 67 10 174 16 98 20
160 17 238 -3 65 0 140 9 195 8 50 20 140 28 200 7 61 17 129 21 153 6 38 5
42 -14 42 -18 0 -21 9 -28 68 -9 88 -9 124 1 328 8 166 7 173 -13 207 -13 20
-22 51 -22 74 0 25 -8 50 -20 66 -15 19 -20 40 -20 91 0 65 -14 114 -41 148
-12 14 -17 14 -34 3z"/>
</g>
</svg>
