<?xml version="1.0" standalone="no"?>
<!DOCTYPE svg PUBLIC "-//W3C//DTD SVG 20010904//EN"
 "http://www.w3.org/TR/2001/REC-SVG-20010904/DTD/svg10.dtd">
<svg version="1.0" xmlns="http://www.w3.org/2000/svg"
 width="13.000000pt" height="68.000000pt" viewBox="0 0 13.000000 68.000000"
 preserveAspectRatio="xMidYMid meet">
<metadata>
Created by potrace 1.14, written by Peter Selinger 2001-2017
</metadata>
<g transform="translate(0.000000,68.000000) scale(0.100000,-0.100000)"
fill="#000000" stroke="none">
<path fill="#000000" stroke="none" d="M17 669 c-21 -12 -22 -38 -1 -67 11
-16 15 -39 12 -78 -2 -43 0 -55 13 -59 13 -4 14 -16 7 -73 -4 -37 -10 -77 -13
-90 -3 -12 1 -32 9 -45 12 -18 13 -42 6 -132 -7 -83 -6 -111 3 -117 15 -10 19
-10 36 1 12 8 12 13 -3 35 -15 24 -15 30 -1 79 8 28 16 94 17 144 2 66 7 93
16 93 6 0 12 7 12 15 0 8 -5 15 -11 15 -7 0 -9 12 -7 31 3 18 -3 53 -13 78
-15 40 -15 49 -3 65 7 10 11 23 7 29 -3 5 0 13 6 17 18 10 -6 57 -33 64 -29 8
-38 7 -59 -5z"/>
</g>
</svg>
