<?xml version="1.0" standalone="no"?>
<!DOCTYPE svg PUBLIC "-//W3C//DTD SVG 20010904//EN"
 "http://www.w3.org/TR/2001/REC-SVG-20010904/DTD/svg10.dtd">
<svg version="1.0" xmlns="http://www.w3.org/2000/svg"
 width="452.000000pt" height="56.000000pt" viewBox="0 0 452.000000 56.000000"
 preserveAspectRatio="xMidYMid meet">
<metadata>
Created by potrace 1.14, written by Peter Selinger 2001-2017
</metadata>
<g transform="translate(0.000000,56.000000) scale(0.100000,-0.100000)"
fill="#000000" stroke="none">
<path fill="#000000" stroke="none" d="M2920 557 c-3 -3 -27 -8 -55 -11 -27
-3 -79 -10 -115 -15 -36 -6 -101 -11 -145 -11 -44 0 -107 -4 -140 -10 -64 -10
-146 -16 -357 -26 -73 -3 -137 -10 -143 -14 -9 -7 -32 -12 -108 -25 -16 -3
-32 -7 -35 -9 -4 -2 -272 -7 -597 -11 -621 -8 -766 -14 -772 -30 -2 -6 7 -15
19 -20 31 -14 41 -84 21 -145 -14 -43 -13 -45 7 -62 24 -20 81 -24 110 -8 29
15 63 78 57 105 l-4 25 191 0 191 0 -3 -66 c-3 -52 0 -70 14 -85 28 -31 72
-24 131 21 l53 40 1 -33 c0 -17 1 -61 2 -97 l2 -65 73 -3 c50 -2 72 1 72 9 0
8 5 7 16 -2 15 -12 16 -11 11 6 -9 31 -12 229 -3 243 4 7 2 12 -4 12 -6 0 -10
9 -8 21 3 20 9 21 168 24 91 2 177 3 193 4 15 1 39 1 55 0 15 0 58 0 96 1 58
1 72 -2 92 -21 23 -21 35 -23 192 -27 148 -4 228 2 327 23 37 8 95 37 95 47 0
5 11 8 25 8 21 0 25 -5 25 -28 0 -61 46 -72 205 -51 237 31 303 42 329 55 16
8 36 14 46 14 9 0 21 5 27 11 20 20 83 -1 122 -42 l37 -39 197 2 c172 2 198 0
215 -15 21 -19 72 -23 89 -6 7 7 53 11 126 10 l115 -2 21 29 c22 31 15 30 236
48 76 7 107 58 69 113 l-17 23 -271 -5 c-149 -3 -299 -8 -334 -12 -47 -4 -71
-2 -94 10 -21 10 -60 15 -122 15 -90 0 -91 0 -108 29 l-16 29 -169 6 c-92 3
-231 9 -308 12 -77 3 -142 3 -145 1z"/>
<path fill="#ffffff" stroke="none" d="M1270 286 c0 -3 -4 -8 -10 -11 -5 -3
-10 -1 -10 4 0 6 5 11 10 11 6 0 10 -2 10 -4z"/>
<path fill="#000000" stroke="none" d="M166 381 c-15 -16 -17 -29 -11 -72 4
-28 15 -59 25 -69 22 -22 126 -38 149 -23 9 6 20 34 24 64 5 30 15 61 23 70
21 23 18 26 -28 34 -120 18 -163 17 -182 -4z"/>
<path fill="#000000" stroke="none" d="M3 320 c0 -25 2 -35 4 -22 2 12 2 32 0
45 -2 12 -4 2 -4 -23z"/>
<path fill="#000000" stroke="none" d="M3738 226 c-20 -18 -44 -26 -97 -31
-39 -4 -74 -11 -77 -16 -3 -5 -13 -9 -23 -9 -29 0 -54 -35 -49 -70 l5 -30
-137 0 c-76 0 -164 -3 -197 -6 -58 -6 -59 -7 -55 -35 l4 -29 235 0 c232 0 234
0 228 21 l-7 20 42 -21 c33 -17 55 -20 113 -18 l73 3 -12 70 c-12 70 -12 70
14 93 15 13 35 27 45 30 16 7 16 9 1 30 -21 30 -70 29 -106 -2z"/>
<path fill="#000000" stroke="none" d="M1471 150 c1 -25 4 -67 8 -95 6 -48 7
-49 20 -26 15 27 10 79 -14 132 l-14 34 0 -45z"/>
<path fill="#000000" stroke="none" d="M4400 63 c-24 -9 -50 -35 -50 -50 0
-10 20 -13 85 -13 82 0 85 1 85 23 0 13 -5 28 -12 35 -12 12 -80 15 -108 5z"/>
</g>
</svg>
