<?xml version="1.0" standalone="no"?>
<!DOCTYPE svg PUBLIC "-//W3C//DTD SVG 20010904//EN"
 "http://www.w3.org/TR/2001/REC-SVG-20010904/DTD/svg10.dtd">
<svg version="1.0" xmlns="http://www.w3.org/2000/svg"
 width="88.000000pt" height="31.000000pt" viewBox="0 0 88.000000 31.000000"
 preserveAspectRatio="xMidYMid meet">
<metadata>
Created by potrace 1.14, written by Peter Selinger 2001-2017
</metadata>
<g transform="translate(0.000000,31.000000) scale(0.100000,-0.100000)"
fill="#000000" stroke="none">
<path fill="#000000" stroke="none" d="M33 208 l-29 -103 68 -51 68 -52 67 15
c83 17 96 32 44 54 -32 14 -41 25 -60 77 -19 50 -21 66 -12 98 18 63 17 64
-53 64 l-63 0 -30 -102z"/>
<path fill="#000000" stroke="none" d="M520 306 c0 -3 5 -17 11 -33 6 -15 12
-67 14 -116 2 -48 7 -92 10 -97 3 -6 47 -10 96 -10 79 0 96 3 147 29 52 26 82
59 82 90 0 5 -19 11 -42 14 -142 18 -187 38 -208 95 -11 30 -14 32 -61 32 -27
0 -49 -2 -49 -4z"/>
</g>
</svg>
