<?xml version="1.0" standalone="no"?>
<!DOCTYPE svg PUBLIC "-//W3C//DTD SVG 20010904//EN"
 "http://www.w3.org/TR/2001/REC-SVG-20010904/DTD/svg10.dtd">
<svg version="1.0" xmlns="http://www.w3.org/2000/svg"
 width="561.000000pt" height="303.000000pt" viewBox="0 0 561.000000 303.000000"
 preserveAspectRatio="xMidYMid meet">
<metadata>
Created by potrace 1.14, written by Peter Selinger 2001-2017
</metadata>
<g transform="translate(0.000000,303.000000) scale(0.100000,-0.100000)"
fill="#000000" stroke="none">
<path fill="#000000" stroke="none" d="M2315 3023 c-98 -8 -170 -29 -306 -90
l-146 -66 -54 -101 c-30 -56 -78 -158 -106 -227 l-53 -127 13 -113 c12 -106
14 -114 35 -117 12 -2 26 -11 31 -20 4 -9 25 -93 46 -186 38 -174 94 -334 166
-479 l39 -77 -27 -11 c-16 -6 -65 -24 -109 -39 -49 -17 -117 -51 -170 -87
-145 -97 -260 -163 -295 -170 -19 -3 -72 -25 -119 -48 -66 -33 -126 -51 -270
-84 -102 -23 -248 -61 -324 -85 -138 -43 -139 -44 -268 -142 -101 -77 -146
-105 -207 -127 -77 -28 -78 -29 -109 -90 -45 -87 -88 -309 -71 -365 18 -62 87
-108 175 -117 38 -4 99 -18 136 -30 l66 -23 72 21 c67 19 75 20 134 6 l62 -15
135 45 135 46 80 85 c45 47 92 105 104 130 12 25 23 46 24 47 0 1 116 -9 256
-22 140 -13 256 -22 257 -21 1 1 7 35 13 76 19 121 17 118 150 185 l119 61
116 -59 c65 -32 120 -55 124 -52 3 3 15 48 27 98 l20 92 60 7 c99 13 275 -15
422 -68 70 -25 238 -78 375 -118 224 -67 258 -80 363 -140 115 -65 117 -66
221 -76 l104 -10 62 32 c53 27 76 32 158 36 l96 5 26 -34 c14 -19 33 -54 43
-79 29 -74 27 -73 139 -67 l101 7 41 -84 c41 -82 42 -83 85 -89 39 -6 46 -4
71 24 22 23 27 37 21 53 -4 11 -9 51 -11 89 l-5 67 49 54 c26 30 131 128 233
217 102 90 266 238 365 329 132 121 206 181 277 224 l98 58 -20 28 c-24 34
-25 36 -1 69 l19 26 -327 234 -328 233 -22 69 -22 68 -176 122 -175 121 -136
-14 c-130 -13 -140 -13 -256 9 -67 12 -144 22 -171 23 -49 0 -53 2 -115 66
-36 36 -110 97 -164 136 l-100 70 -240 -20 c-181 -15 -243 -17 -248 -9 -4 7
-8 46 -8 87 l0 75 -116 166 -115 167 -156 71 -155 71 -112 -2 c-61 -1 -129 -3
-151 -5z"/>
<path fill="#ffffff" stroke="none" d="M2228 945 c1 -1 5 -25 9 -54 l6 -51
-267 0 c-247 0 -270 -1 -306 -20 -22 -11 -56 -20 -77 -20 -21 0 -110 -25 -198
-55 -87 -31 -163 -54 -167 -53 -13 5 21 48 37 48 8 0 63 23 122 50 92 43 119
62 183 125 68 67 82 76 143 93 l69 18 221 -40 c122 -22 223 -40 225 -41z"/>
<path fill="#ffffff" stroke="none" d="M3903 779 c161 -14 156 -11 137 -79
l-10 -36 -127 15 c-122 14 -134 14 -258 -7 l-130 -22 -129 29 c-112 26 -133
34 -162 62 -32 31 -41 59 -29 91 5 11 53 9 283 -14 152 -15 343 -32 425 -39z"/>
<path fill="#ffffff" stroke="none" d="M559 558 l31 -42 -24 -13 c-41 -21
-136 -43 -164 -37 -15 3 -35 16 -44 29 -16 21 -16 24 0 38 17 15 136 65 159
66 6 1 25 -18 42 -41z"/>
</g>
</svg>
