<?xml version="1.0" standalone="no"?>
<!DOCTYPE svg PUBLIC "-//W3C//DTD SVG 20010904//EN"
 "http://www.w3.org/TR/2001/REC-SVG-20010904/DTD/svg10.dtd">
<svg version="1.0" xmlns="http://www.w3.org/2000/svg"
 width="640.000000pt" height="336.000000pt" viewBox="0 0 640.000000 336.000000"
 preserveAspectRatio="xMidYMid meet">
<metadata>
Created by potrace 1.14, written by Peter Selinger 2001-2017
</metadata>
<g transform="translate(0.000000,336.000000) scale(0.100000,-0.100000)"
fill="#000000" stroke="none">
<path fill="#000000" stroke="none" d="M6237 3342 c-10 -10 -17 -30 -17 -44 0
-14 -7 -31 -15 -38 -11 -9 -15 -33 -15 -89 0 -62 -5 -85 -25 -123 -17 -32 -25
-63 -25 -95 0 -44 4 -53 43 -91 35 -34 50 -42 80 -42 57 0 66 22 72 184 3 84
1 145 -5 157 -8 14 -6 27 5 48 19 39 19 100 -1 129 -19 28 -74 30 -97 4z"/>
<path fill="#000000" stroke="none" d="M4270 3121 c-40 -7 -39 -6 -25 -140 7
-65 12 -79 43 -113 30 -33 40 -38 76 -37 22 0 50 4 60 8 15 6 26 1 40 -16 15
-16 36 -25 71 -29 59 -8 75 -18 75 -49 0 -53 93 -78 124 -33 18 26 21 80 6
109 -8 14 -7 19 3 19 15 0 79 65 96 98 14 27 5 106 -15 140 -10 15 -24 22 -48
22 -41 0 -62 -22 -71 -75 -11 -61 -24 -71 -46 -35 -16 25 -25 30 -59 30 -22 0
-66 -9 -97 -20 -71 -25 -76 -25 -63 -1 16 31 12 76 -11 105 -18 22 -27 26 -72
25 -29 -1 -68 -4 -87 -8z"/>
<path fill="#000000" stroke="none" d="M1937 3002 c-10 -10 -17 -33 -17 -50 0
-17 -4 -33 -9 -36 -15 -10 -25 -106 -12 -119 6 -6 11 -32 11 -57 0 -76 10 -80
191 -80 l155 0 52 148 c29 81 52 154 52 163 0 32 -27 42 -100 37 -39 -3 -73
-1 -76 3 -3 5 -56 9 -118 9 -97 0 -115 -3 -129 -18z"/>
<path fill="#000000" stroke="none" d="M5468 2973 c-8 -10 -18 -30 -22 -45 -7
-29 -104 -118 -128 -118 -9 0 -21 -7 -29 -16 -12 -14 -14 -14 -20 4 -4 11 -3
35 4 52 10 25 9 36 -4 58 -14 25 -20 27 -71 25 -43 -1 -65 -8 -100 -32 -25
-17 -50 -31 -56 -31 -5 0 -26 -18 -46 -40 -41 -45 -47 -87 -18 -113 19 -18 77
-23 86 -8 3 4 43 11 88 14 69 4 85 9 100 27 l18 22 0 -29 c0 -17 8 -37 18 -46
20 -19 77 -23 87 -7 12 19 25 10 25 -18 0 -38 28 -62 73 -62 31 0 40 5 57 33
11 17 30 44 44 59 21 23 26 25 37 12 20 -25 75 -18 97 13 18 25 26 28 89 29
125 2 163 23 163 89 0 41 -53 123 -85 131 -14 3 -61 5 -104 3 -64 -3 -84 -8
-103 -25 -40 -37 -61 -38 -78 -1 -13 28 -20 32 -61 35 -33 2 -49 -2 -61 -15z"/>
<path fill="#000000" stroke="none" d="M844 2168 c-16 -18 -38 -50 -47 -70
-24 -54 -50 -51 -79 10 -20 41 -27 47 -57 50 -30 3 -41 -4 -92 -54 -71 -70
-78 -106 -30 -146 16 -14 32 -34 35 -46 6 -19 4 -22 -21 -22 -15 0 -63 -5
-105 -12 -85 -13 -79 -4 -63 -82 3 -14 18 -37 34 -53 28 -29 29 -30 16 -79
l-12 -49 -56 -3 c-31 -2 -65 2 -75 7 -28 15 -57 133 -40 164 6 12 15 39 18 60
7 34 6 37 -16 37 -16 0 -24 6 -24 18 0 33 -29 62 -64 62 -17 0 -37 -5 -44 -12
-8 -8 -15 -8 -26 1 -8 7 -29 11 -47 9 -31 -3 -33 -5 -36 -48 -5 -77 -4 -388 3
-535 3 -77 5 -171 5 -210 -1 -38 -4 -255 -6 -481 l-5 -411 31 -58 c28 -53 30
-61 20 -101 -15 -60 -14 -64 17 -64 49 0 55 12 53 89 -2 58 1 76 18 100 11 16
26 52 32 80 l11 50 64 -1 64 -2 0 -43 c0 -24 9 -60 21 -83 15 -28 20 -51 16
-74 -3 -19 0 -39 6 -45 14 -14 74 -14 82 0 4 5 18 14 31 19 21 9 24 16 24 65
0 39 -6 64 -19 83 -31 42 -28 108 5 157 14 19 14 19 14 -1 0 -12 8 -28 18 -37
20 -19 77 -23 87 -7 3 6 26 10 50 10 35 0 48 5 64 26 12 15 21 35 21 44 0 20
18 28 105 45 53 11 56 13 23 14 -34 1 -38 4 -38 26 0 23 4 25 48 26 26 0 41 3
35 6 -7 2 -13 15 -13 28 0 20 -7 25 -35 31 -25 4 -35 12 -35 24 0 16 7 17 58
13 50 -5 60 -3 65 12 4 9 5 21 2 26 -8 12 21 65 40 73 33 12 46 5 61 -31 8
-21 30 -51 49 -68 33 -28 34 -32 25 -70 -14 -61 10 -115 53 -115 20 0 182 138
337 286 l85 82 -45 9 -45 9 -9 54 c-7 44 -5 56 8 65 13 10 14 17 4 43 -15 39
3 64 41 60 32 -4 70 -71 54 -97 -7 -11 -4 -29 10 -60 l19 -44 61 59 c34 33
106 102 160 154 54 52 100 96 102 98 3 3 302 72 312 72 9 0 1 44 -12 70 -14
26 -13 29 10 44 13 9 28 32 34 52 9 33 7 41 -26 90 -35 52 -55 65 -68 44 -4
-7 -60 -8 -163 -4 -139 6 -159 5 -171 -9 -12 -15 -16 -15 -43 8 -16 14 -41 25
-54 25 -20 0 -23 3 -15 18 30 57 15 249 -23 291 -9 10 -16 24 -16 32 0 8 -7
25 -16 38 -15 21 -22 23 -67 18 -27 -4 -58 -14 -68 -23 -24 -22 -24 -71 -1
-97 14 -16 17 -39 17 -141 l0 -121 -35 -17 c-19 -10 -45 -17 -57 -18 -12 0
-24 -4 -27 -9 -7 -10 -107 -2 -120 10 -6 5 -27 9 -47 9 -28 0 -43 -6 -57 -25
-11 -14 -23 -25 -26 -25 -3 0 -6 28 -6 63 0 72 -18 107 -55 107 -27 0 -30 9
-40 95 -10 87 -24 105 -84 105 -42 0 -52 4 -69 27 -19 26 -19 27 0 71 22 49
20 98 -7 138 -24 38 -82 33 -121 -8z"/>
<path fill="#ffffff" stroke="none" d="M338 1252 c5 -16 6 -35 2 -43 -5 -9 -2
-23 9 -38 18 -23 18 -26 -15 -97 -19 -40 -34 -82 -34 -93 0 -40 -54 -14 -65
32 -4 14 -18 33 -31 42 -13 8 -24 24 -24 35 0 25 41 110 54 110 5 0 24 18 43
40 19 22 38 40 43 40 4 0 12 -13 18 -28z"/>
<path fill="#ffffff" stroke="none" d="M394 824 c32 -5 46 -11 46 -22 0 -20
29 -52 47 -52 10 0 13 -21 13 -90 0 -89 0 -90 24 -90 54 0 79 -72 30 -84 -27
-7 -48 4 -72 37 -29 38 -112 10 -112 -38 0 -30 -23 -38 -38 -14 -8 12 -24 19
-41 19 -16 0 -31 6 -34 14 -3 8 -15 12 -29 9 -18 -4 -25 2 -35 26 -11 30 -11
31 19 31 23 0 29 4 24 15 -3 8 -8 56 -12 107 -4 51 -11 101 -15 110 -7 12 -4
18 9 21 27 7 125 8 176 1z"/>
<path fill="#ffffff" stroke="none" d="M161 577 c9 -12 19 -32 23 -44 7 -22 5
-23 -58 -23 -82 0 -96 6 -96 39 0 38 17 51 70 51 35 -1 49 -6 61 -23z"/>
<path fill="#000000" stroke="none" d="M502 535 c0 -16 2 -22 5 -12 2 9 2 23
0 30 -3 6 -5 -1 -5 -18z"/>
<path fill="#000000" stroke="none" d="M1351 2133 c-39 -3 -63 -11 -84 -29
-15 -13 -34 -24 -41 -24 -25 0 -56 -46 -56 -82 0 -42 36 -78 76 -78 22 0 24
-4 24 -53 0 -74 16 -87 106 -87 58 0 76 4 107 25 39 27 67 70 67 106 0 12 -16
36 -35 55 -39 36 -40 43 -23 90 9 27 9 37 -6 58 -17 27 -14 27 -135 19z"/>
<path fill="#000000" stroke="none" d="M4501 2054 c-11 -15 -21 -35 -21 -45 0
-24 -8 -24 -28 2 -17 19 -18 18 -46 -55 -25 -66 -35 -80 -87 -121 -32 -25 -59
-54 -59 -63 0 -26 -29 -411 -34 -457 -4 -36 -2 -41 22 -53 14 -6 39 -12 55
-12 16 0 35 -7 43 -15 9 -8 29 -15 45 -15 19 0 42 -12 68 -35 21 -19 48 -35
61 -35 12 0 33 -9 47 -20 18 -14 41 -20 77 -20 94 0 173 -60 138 -103 -19 -23
-52 -88 -52 -101 0 -16 1 -17 454 -217 239 -106 363 -156 370 -150 6 6 34 14
61 18 37 6 53 14 60 30 10 24 87 42 108 25 7 -5 24 -12 39 -16 15 -3 29 -15
33 -25 3 -12 17 -21 33 -23 25 -3 27 -7 30 -55 3 -48 1 -53 -18 -53 -12 0 -18
-4 -15 -10 3 -5 15 -10 26 -10 14 0 19 -7 19 -28 0 -38 28 -62 73 -62 41 0 54
-12 32 -30 -8 -7 -15 -18 -15 -25 0 -7 -15 -24 -34 -38 -32 -25 -33 -28 -40
-118 -6 -77 -4 -95 9 -108 13 -14 15 -13 15 7 0 18 20 32 116 80 l116 57 -8
40 c-7 44 -7 53 2 107 6 36 8 37 52 40 68 5 72 19 34 128 l-32 92 37 131 c27
98 46 147 75 189 l38 57 0 508 -1 508 -27 20 c-22 16 -46 21 -122 23 l-95 3
-60 -70 c-54 -63 -64 -70 -98 -70 -28 -1 -43 5 -59 24 -32 37 -124 28 -163
-15 -25 -28 -31 -26 -59 19 -36 56 -107 101 -160 101 -23 0 -48 -6 -54 -12 -9
-9 -60 -14 -160 -16 -159 -4 -178 -10 -184 -60 -2 -22 -10 -28 -42 -34 -25 -5
-43 -5 -50 2 -5 5 -29 10 -51 10 -31 0 -47 -6 -64 -24 l-22 -23 -61 58 c-53
52 -65 59 -99 59 -23 0 -42 -5 -44 -12 -3 -7 14 -74 38 -148 24 -74 42 -140
40 -147 -4 -9 -18 -7 -56 6 -29 11 -75 21 -104 24 -76 8 -93 22 -93 78 0 37 5
50 30 74 24 23 30 37 30 70 0 42 22 75 49 75 8 0 2 19 -16 53 -27 50 -30 52
-74 55 -41 3 -50 -1 -68 -24z"/>
<path fill="#ffffff" stroke="none" d="M5007 1498 c6 -5 15 -22 18 -38 3 -16
13 -34 20 -40 17 -14 30 -89 21 -118 -4 -13 -19 -22 -40 -26 -38 -7 -84 -40
-94 -67 -7 -17 -8 -17 -31 1 -21 15 -26 28 -29 84 -4 62 -3 67 27 96 17 18 31
41 31 52 0 11 7 33 17 48 16 28 31 30 60 8z"/>
<path fill="#ffffff" stroke="none" d="M6085 1353 c10 -26 26 -54 36 -63 10
-8 25 -43 34 -77 14 -55 14 -67 1 -97 -22 -52 -42 -58 -105 -33 -52 21 -54 24
-77 87 -31 85 -31 118 0 129 24 10 36 30 36 62 0 16 26 36 51 38 4 1 14 -20
24 -46z"/>
</g>
</svg>
