<?xml version="1.0" standalone="no"?>
<!DOCTYPE svg PUBLIC "-//W3C//DTD SVG 20010904//EN"
 "http://www.w3.org/TR/2001/REC-SVG-20010904/DTD/svg10.dtd">
<svg version="1.0" xmlns="http://www.w3.org/2000/svg"
 width="61.000000pt" height="32.000000pt" viewBox="0 0 61.000000 32.000000"
 preserveAspectRatio="xMidYMid meet">
<metadata>
Created by potrace 1.14, written by Peter Selinger 2001-2017
</metadata>
<g transform="translate(0.000000,32.000000) scale(0.100000,-0.100000)"
fill="#000000" stroke="none">
<path fill="#000000" stroke="none" d="M19 304 c-23 -22 -4 -103 27 -114 12
-5 24 -14 26 -21 4 -13 107 -27 209 -28 46 -1 75 -10 158 -50 56 -27 113 -59
126 -71 l24 -23 11 27 c21 56 12 77 -55 121 -29 19 -56 35 -61 35 -5 0 -26 13
-45 30 -28 23 -56 33 -127 46 -75 13 -94 21 -107 40 -14 22 -22 24 -93 24 -57
0 -82 -4 -93 -16z"/>
</g>
</svg>
