<?xml version="1.0" standalone="no"?>
<!DOCTYPE svg PUBLIC "-//W3C//DTD SVG 20010904//EN"
 "http://www.w3.org/TR/2001/REC-SVG-20010904/DTD/svg10.dtd">
<svg version="1.0" xmlns="http://www.w3.org/2000/svg"
 width="100.000000pt" height="54.000000pt" viewBox="0 0 100.000000 54.000000"
 preserveAspectRatio="xMidYMid meet">
<metadata>
Created by potrace 1.14, written by Peter Selinger 2001-2017
</metadata>
<g transform="translate(0.000000,54.000000) scale(0.100000,-0.100000)"
fill="#000000" stroke="none">
<path fill="#000000" stroke="none" d="M811 514 c-12 -15 -21 -34 -21 -43 0
-9 41 -60 90 -114 l90 -98 -15 -29 c-8 -16 -15 -34 -15 -40 0 -19 30 -10 46
15 13 20 15 41 10 117 -11 163 -16 181 -56 200 -53 27 -104 24 -129 -8z"/>
<path fill="#000000" stroke="none" d="M17 492 c-24 -26 -22 -33 18 -65 19
-15 42 -41 50 -58 9 -16 20 -27 24 -25 5 3 11 31 15 62 8 73 -9 104 -58 104
-19 0 -40 -8 -49 -18z"/>
<path fill="#000000" stroke="none" d="M116 259 c-2 -8 -9 -45 -15 -84 -7 -38
-19 -87 -28 -107 -20 -46 -6 -68 41 -68 61 0 68 34 39 175 -17 82 -29 109 -37
84z"/>
<path fill="#000000" stroke="none" d="M407 260 c-7 -19 -19 -96 -20 -135 -2
-27 1 -30 32 -33 18 -2 37 0 42 5 5 5 -3 45 -20 93 -16 47 -31 78 -34 70z"/>
</g>
</svg>
