<?xml version="1.0" standalone="no"?>
<!DOCTYPE svg PUBLIC "-//W3C//DTD SVG 20010904//EN"
 "http://www.w3.org/TR/2001/REC-SVG-20010904/DTD/svg10.dtd">
<svg version="1.0" xmlns="http://www.w3.org/2000/svg"
 width="19.000000pt" height="10.000000pt" viewBox="0 0 19.000000 10.000000"
 preserveAspectRatio="xMidYMid meet">
<metadata>
Created by potrace 1.14, written by Peter Selinger 2001-2017
</metadata>
<g transform="translate(0.000000,10.000000) scale(0.100000,-0.100000)"
fill="#000000" stroke="none">
<path fill="#000000" stroke="none" d="M90 89 c0 -8 -14 -10 -40 -6 -22 3 -43
1 -46 -4 -3 -5 7 -9 23 -9 15 -1 41 -12 58 -25 l29 -24 -24 -10 c-21 -8 -16
-10 31 -10 51 -1 57 1 63 22 10 37 7 47 -13 47 -10 0 -24 7 -31 15 -15 18 -50
20 -50 4z"/>
</g>
</svg>
