<?xml version="1.0" standalone="no"?>
<!DOCTYPE svg PUBLIC "-//W3C//DTD SVG 20010904//EN"
 "http://www.w3.org/TR/2001/REC-SVG-20010904/DTD/svg10.dtd">
<svg version="1.0" xmlns="http://www.w3.org/2000/svg"
 width="37.000000pt" height="16.000000pt" viewBox="0 0 37.000000 16.000000"
 preserveAspectRatio="xMidYMid meet">
<metadata>
Created by potrace 1.14, written by Peter Selinger 2001-2017
</metadata>
<g transform="translate(0.000000,16.000000) scale(0.100000,-0.100000)"
fill="#000000" stroke="none">
<path fill="#000000" stroke="none" d="M245 140 c-15 -17 -33 -20 -129 -22
-105 -3 -111 -4 -106 -23 2 -11 4 -37 5 -57 l0 -38 107 0 c97 0 109 2 120 20
10 16 24 20 63 20 l51 0 -4 39 c-2 21 1 48 7 60 11 20 10 21 -42 21 -41 0 -58
-5 -72 -20z"/>
</g>
</svg>
