<?xml version="1.0" standalone="no"?>
<!DOCTYPE svg PUBLIC "-//W3C//DTD SVG 20010904//EN"
 "http://www.w3.org/TR/2001/REC-SVG-20010904/DTD/svg10.dtd">
<svg version="1.0" xmlns="http://www.w3.org/2000/svg"
 width="448.000000pt" height="191.000000pt" viewBox="0 0 448.000000 191.000000"
 preserveAspectRatio="xMidYMid meet">
<metadata>
Created by potrace 1.14, written by Peter Selinger 2001-2017
</metadata>
<g transform="translate(0.000000,191.000000) scale(0.100000,-0.100000)"
fill="#000000" stroke="none">
<path fill="#000000" stroke="none" d="M1967 1892 c-19 -21 -24 -107 -7 -117
17 -11 11 -53 -15 -107 -14 -28 -25 -57 -25 -64 0 -6 -9 -23 -20 -37 -30 -37
-25 -53 25 -83 25 -14 47 -35 50 -47 23 -106 30 -178 22 -239 -7 -61 -6 -70
15 -103 31 -48 66 -45 90 6 9 20 29 46 43 57 39 31 43 78 10 142 -30 59 -28
90 8 128 31 33 13 56 -46 60 -46 3 -46 3 -52 45 -5 31 -1 57 14 95 27 69 29
191 3 242 -15 30 -22 35 -58 38 -29 2 -45 -2 -57 -16z"/>
<path fill="#000000" stroke="none" d="M76 1761 c-22 -23 -46 -61 -56 -91
l-17 -51 55 -112 c31 -62 59 -119 62 -127 4 -8 21 -16 37 -18 26 -3 32 2 43
30 7 18 44 63 83 100 38 37 66 72 62 78 -12 20 -80 11 -103 -13 -12 -13 -22
-28 -22 -35 0 -27 -24 -21 -54 14 -33 38 -33 40 -20 77 8 21 25 52 39 69 29
34 32 64 9 96 -25 36 -72 30 -118 -17z"/>
<path fill="#000000" stroke="none" d="M1037 1669 c-36 -27 -60 -72 -46 -86 8
-8 8 -17 0 -31 -15 -29 -14 -65 4 -88 20 -26 19 -63 -4 -107 l-19 -37 22 0
c26 0 57 -58 86 -161 11 -41 22 -63 31 -62 8 1 49 4 92 8 42 4 77 7 77 8 0 1
-13 46 -29 99 l-29 97 31 -12 c54 -22 93 -168 68 -257 -7 -24 -7 -24 -29 11
l-21 35 -93 -13 c-104 -16 -120 -27 -161 -116 -12 -26 -26 -46 -32 -44 -14 5
-18 63 -5 86 5 11 17 60 26 108 14 81 14 90 -2 119 -10 18 -29 38 -43 44 -22
10 -36 6 -111 -32 -78 -40 -85 -46 -88 -76 -2 -18 3 -45 11 -61 10 -20 12 -42
6 -82 -4 -30 -8 -88 -8 -129 0 -66 3 -80 27 -115 22 -32 35 -41 62 -43 33 -3
114 -37 152 -64 12 -9 32 -9 78 -2 64 11 81 4 58 -23 -8 -10 -13 -43 -13 -89
0 -52 -4 -77 -16 -90 -22 -25 -49 -200 -49 -318 0 -77 3 -96 18 -109 21 -19
72 -23 88 -7 7 7 16 4 29 -10 29 -32 79 -27 108 13 54 71 58 88 56 236 -1 109
3 145 15 169 11 22 16 59 16 130 0 58 6 119 15 148 13 45 13 60 0 135 -8 46
-15 105 -15 131 0 42 5 52 51 102 28 31 63 61 77 68 25 12 28 22 54 173 19
115 24 163 16 172 -14 18 -119 17 -162 -1 -18 -8 -40 -22 -47 -32 -8 -11 -25
-28 -38 -39 l-24 -20 6 46 c5 40 1 56 -28 114 -18 37 -48 80 -67 96 -29 25
-41 28 -103 28 -55 0 -76 -4 -98 -20z"/>
<path fill="#000000" stroke="none" d="M608 1663 c-8 -10 -21 -46 -28 -81 -12
-59 -12 -66 9 -111 13 -27 36 -55 52 -65 15 -9 43 -41 61 -71 29 -49 34 -53
49 -39 14 12 16 36 12 177 -2 110 -8 166 -16 173 -11 10 -92 34 -115 34 -5 0
-16 -8 -24 -17z"/>
<path fill="#000000" stroke="none" d="M3502 1507 c-23 -23 -42 -46 -42 -51 0
-9 -24 -67 -46 -109 -8 -16 -14 -35 -14 -43 0 -8 -8 -14 -18 -14 -10 0 -31
-13 -47 -30 l-28 -29 -19 24 c-15 19 -29 25 -59 25 -31 0 -45 6 -64 28 -13 15
-25 34 -25 42 0 34 -30 60 -68 60 -71 -1 -116 -17 -149 -56 -18 -20 -30 -40
-28 -45 3 -4 -2 -14 -10 -22 -30 -31 -12 -137 33 -189 20 -24 68 -24 75 1 3
11 24 25 53 36 27 9 56 20 64 23 47 17 62 9 87 -46 21 -48 27 -54 48 -49 25 4
25 3 25 -68 0 -57 4 -75 18 -88 17 -16 21 -15 63 4 63 31 75 53 35 63 -13 3
-35 21 -49 39 l-26 34 45 51 c24 27 44 56 44 62 0 9 25 11 88 9 48 -2 92 0 99
4 7 5 9 1 6 -13 -3 -11 -1 -20 5 -20 5 0 13 -17 17 -37 4 -21 14 -46 23 -56
14 -16 13 -20 -17 -51 -18 -18 -38 -54 -46 -79 -13 -43 -13 -46 11 -68 13 -12
24 -31 24 -41 0 -10 3 -18 6 -18 12 0 139 63 168 83 l28 20 -22 17 c-18 14
-24 30 -28 74 -4 49 -7 56 -26 56 -19 0 -21 4 -18 55 3 37 -1 63 -11 78 -13
21 -13 25 9 50 13 16 24 37 24 48 0 21 -42 69 -60 69 -7 0 -8 6 0 19 5 11 10
42 10 70 0 42 -5 56 -31 86 -26 30 -38 35 -73 35 -36 0 -48 -6 -84 -43z"/>
<path fill="#000000" stroke="none" d="M4207 1172 c-10 -10 -17 -23 -17 -29 0
-11 -73 -63 -89 -63 -16 0 -37 -33 -24 -37 6 -2 32 -28 57 -58 l46 -54 -10
-47 c-8 -34 -24 -62 -59 -100 -46 -51 -49 -55 -41 -90 5 -23 4 -59 -2 -92 -9
-41 -8 -62 1 -88 7 -19 10 -38 7 -43 -3 -4 30 -11 73 -14 54 -3 95 -13 135
-31 31 -14 72 -26 91 -26 30 0 38 6 62 43 26 41 27 46 28 217 1 96 6 192 10
213 11 54 -11 83 -69 91 -43 7 -45 8 -36 32 23 59 10 115 -38 167 -32 33 -99
38 -125 9z"/>
</g>
</svg>
