<?xml version="1.0" standalone="no"?>
<!DOCTYPE svg PUBLIC "-//W3C//DTD SVG 20010904//EN"
 "http://www.w3.org/TR/2001/REC-SVG-20010904/DTD/svg10.dtd">
<svg version="1.0" xmlns="http://www.w3.org/2000/svg"
 width="222.000000pt" height="98.000000pt" viewBox="0 0 222.000000 98.000000"
 preserveAspectRatio="xMidYMid meet">
<metadata>
Created by potrace 1.14, written by Peter Selinger 2001-2017
</metadata>
<g transform="translate(0.000000,98.000000) scale(0.100000,-0.100000)"
fill="#000000" stroke="none">
<path fill="#000000" stroke="none" d="M2080 960 c0 -15 7 -20 27 -20 14 0 35
-7 45 -17 16 -14 18 -14 18 0 0 20 -47 57 -71 57 -12 0 -19 -7 -19 -20z"/>
<path fill="#000000" stroke="none" d="M2200 809 c0 -17 4 -28 10 -24 6 3 10
17 10 31 0 13 -4 24 -10 24 -5 0 -10 -14 -10 -31z"/>
<path fill="#000000" stroke="none" d="M578 725 c-3 -3 -65 -17 -138 -30 -74
-14 -134 -26 -135 -28 -1 -1 -12 -20 -26 -42 -13 -22 -59 -80 -102 -128 -83
-95 -131 -182 -147 -269 -13 -66 -13 -68 5 -68 9 0 21 -12 27 -26 11 -23 16
-25 48 -20 19 3 59 6 88 6 50 0 52 1 52 27 0 15 14 86 31 158 16 71 32 139 34
151 3 15 32 32 112 67 148 65 163 78 170 150 5 51 -1 69 -19 52z"/>
<path fill="#000000" stroke="none" d="M790 700 c-10 -6 -2 -7 25 -3 49 7 58
13 19 13 -16 0 -36 -5 -44 -10z"/>
<path fill="#000000" stroke="none" d="M2070 685 c-25 -25 -25 -26 -17 -131 4
-58 6 -109 3 -112 -3 -3 -25 2 -48 11 -23 9 -44 15 -47 12 -2 -3 9 -19 25 -36
23 -24 36 -29 64 -27 34 3 35 4 42 58 17 132 18 167 11 208 l-8 43 -25 -26z"/>
<path fill="#000000" stroke="none" d="M2149 644 c-21 -22 -21 -24 -4 -18 26
9 45 24 45 35 0 16 -16 9 -41 -17z"/>
<path fill="#000000" stroke="none" d="M1770 540 c8 -5 20 -10 25 -10 6 0 3 5
-5 10 -8 5 -19 10 -25 10 -5 0 -3 -5 5 -10z"/>
<path fill="#000000" stroke="none" d="M1022 478 c-5 -7 -17 -27 -26 -45 l-16
-32 45 27 c46 28 60 62 26 62 -10 0 -23 -6 -29 -12z"/>
<path fill="#000000" stroke="none" d="M437 213 c-16 -38 -47 -168 -47 -197 0
-25 29 -19 34 7 13 61 36 220 33 223 -2 2 -11 -13 -20 -33z"/>
<path fill="#000000" stroke="none" d="M662 183 c-7 -2 -17 -14 -23 -26 -11
-21 -10 -20 15 2 14 14 26 26 26 28 0 3 0 3 -18 -4z"/>
<path fill="#000000" stroke="none" d="M5 140 c3 -5 8 -10 11 -10 2 0 4 5 4
10 0 6 -5 10 -11 10 -5 0 -7 -4 -4 -10z"/>
</g>
</svg>
