<?xml version="1.0" standalone="no"?>
<!DOCTYPE svg PUBLIC "-//W3C//DTD SVG 20010904//EN"
 "http://www.w3.org/TR/2001/REC-SVG-20010904/DTD/svg10.dtd">
<svg version="1.0" xmlns="http://www.w3.org/2000/svg"
 width="34.000000pt" height="16.000000pt" viewBox="0 0 34.000000 16.000000"
 preserveAspectRatio="xMidYMid meet">
<metadata>
Created by potrace 1.14, written by Peter Selinger 2001-2017
</metadata>
<g transform="translate(0.000000,16.000000) scale(0.100000,-0.100000)"
fill="#000000" stroke="none">
<path fill="#000000" stroke="none" d="M17 142 c-10 -10 -17 -30 -17 -44 0
-41 33 -62 113 -70 74 -7 90 -10 119 -22 34 -15 82 -2 98 26 13 25 13 31 0 55
-11 19 -25 29 -45 31 -17 2 -35 8 -41 13 -10 8 -148 29 -195 29 -9 0 -23 -8
-32 -18z"/>
</g>
</svg>
