<?xml version="1.0" standalone="no"?>
<!DOCTYPE svg PUBLIC "-//W3C//DTD SVG 20010904//EN"
 "http://www.w3.org/TR/2001/REC-SVG-20010904/DTD/svg10.dtd">
<svg version="1.0" xmlns="http://www.w3.org/2000/svg"
 width="320.000000pt" height="149.000000pt" viewBox="0 0 320.000000 149.000000"
 preserveAspectRatio="xMidYMid meet">
<metadata>
Created by potrace 1.14, written by Peter Selinger 2001-2017
</metadata>
<g transform="translate(0.000000,149.000000) scale(0.100000,-0.100000)"
fill="#000000" stroke="none">
<path fill="#000000" stroke="none" d="M690 1484 c-8 -1 -45 -6 -81 -9 -58 -6
-67 -9 -82 -34 -9 -16 -28 -31 -41 -35 -24 -6 -36 -30 -36 -74 0 -20 4 -23 28
-18 91 18 156 27 168 22 10 -4 14 -27 14 -92 l0 -87 -45 6 -45 7 0 -59 c0 -38
10 -90 30 -149 25 -77 30 -107 30 -190 0 -95 -1 -99 -24 -110 -23 -10 -38 -1
-183 109 -87 66 -204 166 -260 221 l-101 101 -31 -22 c-17 -12 -31 -26 -31
-31 0 -4 29 -48 65 -96 36 -49 65 -92 65 -96 0 -4 -18 -8 -40 -8 -36 0 -40 -2
-31 -17 16 -29 230 -297 248 -310 9 -7 13 -13 9 -13 -4 0 2 -12 12 -28 19 -26
27 -28 139 -40 65 -7 160 -12 211 -12 91 0 200 -22 253 -51 13 -7 67 -27 119
-44 l95 -31 62 -124 c34 -69 62 -133 62 -142 1 -17 46 -18 809 -18 444 0 879
-3 967 -6 l160 -6 -48 42 c-36 32 -61 69 -103 152 -30 61 -90 156 -132 213
l-77 104 -235 95 c-212 86 -270 104 -600 191 -201 53 -417 113 -480 135 -74
25 -143 41 -195 45 l-80 7 -123 126 c-67 70 -175 184 -240 255 -109 118 -119
127 -152 126 -19 -1 -42 -3 -50 -5z"/>
</g>
</svg>
