<?xml version="1.0" standalone="no"?>
<!DOCTYPE svg PUBLIC "-//W3C//DTD SVG 20010904//EN"
 "http://www.w3.org/TR/2001/REC-SVG-20010904/DTD/svg10.dtd">
<svg version="1.0" xmlns="http://www.w3.org/2000/svg"
 width="86.000000pt" height="40.000000pt" viewBox="0 0 86.000000 40.000000"
 preserveAspectRatio="xMidYMid meet">
<metadata>
Created by potrace 1.14, written by Peter Selinger 2001-2017
</metadata>
<g transform="translate(0.000000,40.000000) scale(0.100000,-0.100000)"
fill="#000000" stroke="none">
<path fill="#000000" stroke="none" d="M339 384 c-12 -15 -32 -16 -161 -11
-135 5 -148 4 -163 -13 -20 -22 -14 -63 12 -92 14 -16 36 -18 171 -18 128 0
159 3 173 16 16 14 41 14 235 5 236 -12 236 -12 249 40 4 17 0 33 -13 49 -19
23 -27 25 -168 32 -259 12 -320 10 -335 -8z"/>
<path fill="#000000" stroke="none" d="M678 213 c-10 -11 -18 -27 -18 -36 0
-13 -9 -17 -34 -17 -18 0 -47 -7 -62 -15 -41 -21 -46 -20 -96 30 -37 36 -53
45 -80 45 -52 0 -72 -28 -64 -87 3 -25 13 -54 21 -63 8 -9 15 -21 15 -27 0 -5
8 -18 19 -27 15 -14 37 -16 132 -14 l114 3 3 27 c4 31 33 61 39 41 3 -8 21
-13 42 -13 46 0 84 -24 61 -39 -12 -9 -12 -11 2 -16 9 -4 31 -5 50 -3 l33 3 3
80 c3 77 1 82 -25 107 -39 38 -130 49 -155 21z"/>
</g>
</svg>
