<?xml version="1.0" standalone="no"?>
<!DOCTYPE svg PUBLIC "-//W3C//DTD SVG 20010904//EN"
 "http://www.w3.org/TR/2001/REC-SVG-20010904/DTD/svg10.dtd">
<svg version="1.0" xmlns="http://www.w3.org/2000/svg"
 width="27.000000pt" height="13.000000pt" viewBox="0 0 27.000000 13.000000"
 preserveAspectRatio="xMidYMid meet">
<metadata>
Created by potrace 1.14, written by Peter Selinger 2001-2017
</metadata>
<g transform="translate(0.000000,13.000000) scale(0.100000,-0.100000)"
fill="#000000" stroke="none">
<path fill="#000000" stroke="none" d="M75 123 c-49 -5 -75 -27 -75 -63 0 -33
28 -60 63 -60 24 0 27 4 27 31 0 26 3 30 18 24 9 -4 41 -16 71 -27 l55 -21 18
23 c22 27 23 49 2 78 -13 19 -23 22 -77 20 -34 -1 -80 -3 -102 -5z"/>
</g>
</svg>
