<?xml version="1.0" standalone="no"?>
<!DOCTYPE svg PUBLIC "-//W3C//DTD SVG 20010904//EN"
 "http://www.w3.org/TR/2001/REC-SVG-20010904/DTD/svg10.dtd">
<svg version="1.0" xmlns="http://www.w3.org/2000/svg"
 width="284.000000pt" height="136.000000pt" viewBox="0 0 284.000000 136.000000"
 preserveAspectRatio="xMidYMid meet">
<metadata>
Created by potrace 1.14, written by Peter Selinger 2001-2017
</metadata>
<g transform="translate(0.000000,136.000000) scale(0.100000,-0.100000)"
fill="#000000" stroke="none">
<path fill="#000000" stroke="none" d="M694 1331 c-60 -33 -158 -107 -195
-147 -34 -37 -48 -81 -56 -172 -5 -56 -3 -76 9 -90 8 -9 22 -36 31 -58 l16
-41 -142 -6 c-78 -3 -158 -11 -177 -18 -51 -18 -132 -85 -154 -127 -20 -38
-23 -122 -7 -165 5 -12 57 -62 115 -112 92 -78 113 -91 154 -97 185 -26 599
15 781 77 123 41 201 46 241 16 l25 -19 -30 -7 c-17 -4 -76 -30 -132 -57 -96
-46 -103 -52 -103 -79 0 -28 1 -29 53 -29 28 -1 63 -7 77 -14 24 -14 23 -14
-25 -20 -74 -10 -99 -25 -103 -65 l-3 -34 41 7 c23 3 67 19 98 35 31 15 71 31
87 35 l30 6 -39 -32 c-22 -18 -49 -40 -60 -49 -19 -15 -19 -18 -4 -41 27 -41
62 -26 152 66 l80 81 4 -32 c2 -17 -4 -45 -13 -62 -8 -17 -20 -42 -25 -56
l-10 -25 48 25 c71 37 117 84 131 133 10 36 19 46 60 66 26 14 62 41 80 62
l32 36 42 -18 c23 -11 64 -37 91 -58 l49 -39 72 17 c67 16 76 21 111 66 22 27
46 52 54 54 8 3 134 28 279 56 259 50 265 52 322 92 66 47 65 38 23 162 -45
131 -60 148 -192 216 -64 33 -133 62 -152 66 -19 3 -87 19 -150 36 -63 16
-132 34 -153 39 l-38 10 21 26 c11 14 20 38 20 53 0 24 -8 30 -62 53 -163 69
-163 69 -438 76 l-255 7 -124 43 c-183 63 -275 81 -416 81 -113 0 -123 -2
-171 -29z"/>
</g>
</svg>
