<?xml version="1.0" standalone="no"?>
<!DOCTYPE svg PUBLIC "-//W3C//DTD SVG 20010904//EN"
 "http://www.w3.org/TR/2001/REC-SVG-20010904/DTD/svg10.dtd">
<svg version="1.0" xmlns="http://www.w3.org/2000/svg"
 width="454.000000pt" height="146.000000pt" viewBox="0 0 454.000000 146.000000"
 preserveAspectRatio="xMidYMid meet">
<metadata>
Created by potrace 1.14, written by Peter Selinger 2001-2017
</metadata>
<g transform="translate(0.000000,146.000000) scale(0.100000,-0.100000)"
fill="#000000" stroke="none">
<path fill="#000000" stroke="none" d="M706 1427 c-15 -19 -26 -42 -26 -51 0
-10 -25 -47 -56 -82 l-57 -64 5 -115 c2 -66 9 -120 15 -126 9 -9 57 30 185
148 95 87 178 162 184 166 7 4 71 -4 143 -17 l131 -25 125 -118 c69 -65 128
-127 131 -138 4 -17 14 -20 78 -22 67 -1 78 -5 148 -47 69 -42 77 -50 88 -91
14 -51 24 -62 62 -67 l27 -3 -19 -40 c-36 -76 -35 -121 3 -231 19 -54 58 -151
86 -215 51 -116 60 -146 41 -134 -5 3 -10 4 -10 2 0 -2 20 -18 44 -35 34 -25
46 -41 55 -77 6 -25 16 -45 21 -45 6 0 10 4 10 8 0 5 21 23 48 42 26 18 66 53
90 78 39 41 43 49 40 90 -2 41 1 48 38 78 21 19 48 37 59 40 11 3 29 15 40 25
20 18 20 18 17 -19 -3 -27 2 -42 16 -55 18 -17 20 -16 45 4 17 13 27 30 27 47
0 36 48 88 89 97 25 5 36 15 48 43 20 50 81 139 118 174 17 16 51 40 77 54 51
29 73 66 66 114 -4 24 2 38 31 69 31 33 44 39 92 45 65 8 116 -8 162 -51 25
-25 41 -21 16 4 -8 8 -6 19 5 41 22 43 76 53 126 24 34 -19 35 -22 35 -79 0
-32 5 -59 10 -61 6 -1 11 48 13 130 2 118 0 137 -18 166 l-20 32 -85 0 c-80 0
-86 -2 -119 -30 -20 -18 -37 -26 -41 -20 -3 5 -21 10 -39 10 -25 0 -38 7 -50
25 -15 23 -23 25 -85 25 -59 0 -73 -4 -107 -29 -69 -50 -131 -124 -149 -176
-10 -27 -22 -54 -25 -60 -4 -5 -10 -38 -13 -71 -6 -53 -4 -64 13 -79 28 -25
10 -43 -48 -47 -40 -3 -48 -7 -62 -33 -8 -16 -18 -32 -22 -35 -17 -13 -60
-143 -56 -170 3 -20 -1 -35 -12 -45 -15 -13 -16 -10 -12 44 4 54 2 62 -22 86
-24 24 -26 33 -26 105 0 59 -3 80 -13 80 -7 0 -18 17 -24 38 -6 20 -18 55 -27
77 -8 22 -15 70 -16 108 0 53 4 71 19 86 20 20 20 21 -6 113 -33 121 -45 142
-96 173 -35 20 -57 25 -109 25 -56 0 -71 -4 -105 -29 -54 -39 -74 -84 -72
-166 2 -75 -13 -103 -37 -71 -8 11 -14 27 -14 36 0 9 -6 24 -13 34 -9 12 -12
54 -10 144 3 155 -5 172 -72 172 -38 0 -76 -11 -135 -40 -8 -4 -20 -17 -26
-29 -11 -21 -82 -77 -88 -69 -2 1 -18 26 -36 53 -53 80 -62 85 -165 85 -66 0
-97 -4 -113 -16 -20 -14 -25 -14 -54 0 -39 20 -164 21 -236 3 -36 -10 -52 -11
-55 -3 -5 14 -59 9 -68 -6 -6 -9 -13 -8 -27 5 -11 10 -35 17 -60 17 -35 0 -45
-5 -66 -33z"/>
<path fill="#000000" stroke="none" d="M245 1242 c-44 -4 -75 -26 -75 -53 0
-40 -11 -49 -62 -49 -28 0 -62 -7 -78 -16 -27 -16 -27 -18 -14 -59 10 -34 10
-58 1 -111 l-12 -67 63 -56 c37 -33 62 -64 62 -76 0 -11 44 -77 98 -146 103
-132 146 -218 135 -272 -4 -21 -2 -27 12 -27 16 0 17 14 10 183 l-6 182 74
122 c60 98 76 132 80 175 4 29 9 68 13 86 6 28 2 36 -30 65 -20 19 -36 43 -36
54 0 11 -8 30 -17 42 -15 18 -30 22 -98 24 -44 2 -98 1 -120 -1z"/>
<path fill="#000000" stroke="none" d="M4217 782 c-26 -28 -21 -56 13 -75 47
-28 53 -50 46 -148 l-7 -88 30 -22 c24 -18 29 -28 25 -50 -2 -16 -6 -44 -9
-61 -5 -29 -4 -31 10 -18 8 9 20 42 26 75 9 51 17 66 51 96 40 36 42 37 82 25
36 -10 42 -16 47 -46 4 -19 7 34 8 118 l1 152 -81 0 c-77 0 -82 1 -109 30 -23
25 -36 30 -72 30 -31 0 -50 -6 -61 -18z"/>
</g>
</svg>
