<?xml version="1.0" standalone="no"?>
<!DOCTYPE svg PUBLIC "-//W3C//DTD SVG 20010904//EN"
 "http://www.w3.org/TR/2001/REC-SVG-20010904/DTD/svg10.dtd">
<svg version="1.0" xmlns="http://www.w3.org/2000/svg"
 width="72.000000pt" height="23.000000pt" viewBox="0 0 72.000000 23.000000"
 preserveAspectRatio="xMidYMid meet">
<metadata>
Created by potrace 1.14, written by Peter Selinger 2001-2017
</metadata>
<g transform="translate(0.000000,23.000000) scale(0.100000,-0.100000)"
fill="#000000" stroke="none">
<path fill="#000000" stroke="none" d="M17 212 c-24 -27 -23 -123 1 -145 22
-20 73 -22 90 -5 8 8 47 13 112 13 85 0 100 -2 100 -16 0 -31 36 -52 80 -46
22 3 43 1 46 -4 10 -17 72 -10 86 10 20 28 50 30 71 4 22 -28 78 -31 98 -7 18
22 15 99 -5 130 -12 18 -25 24 -51 24 -18 0 -36 -3 -39 -8 -2 -4 -28 -7 -56
-6 -40 2 -55 7 -66 23 -29 40 -114 18 -114 -30 0 -8 -9 -20 -20 -26 -16 -11
-18 -10 -14 2 4 8 -1 26 -10 39 -14 22 -22 25 -88 24 -73 0 -120 11 -133 31
-10 18 -70 13 -88 -7z"/>
</g>
</svg>
