<?xml version="1.0" standalone="no"?>
<!DOCTYPE svg PUBLIC "-//W3C//DTD SVG 20010904//EN"
 "http://www.w3.org/TR/2001/REC-SVG-20010904/DTD/svg10.dtd">
<svg version="1.0" xmlns="http://www.w3.org/2000/svg"
 width="104.000000pt" height="34.000000pt" viewBox="0 0 104.000000 34.000000"
 preserveAspectRatio="xMidYMid meet">
<metadata>
Created by potrace 1.14, written by Peter Selinger 2001-2017
</metadata>
<g transform="translate(0.000000,34.000000) scale(0.100000,-0.100000)"
fill="#000000" stroke="none">
<path fill="#000000" stroke="none" d="M660 331 c-88 -4 -134 -11 -155 -22
-16 -10 -101 -47 -189 -83 -164 -68 -177 -70 -191 -26 -5 16 -105 100 -120
100 -3 0 -5 -20 -5 -46 0 -30 13 -76 41 -142 23 -53 43 -100 45 -103 2 -4 83
13 180 37 158 39 189 44 303 45 158 1 327 -15 408 -40 l62 -19 -5 42 c-3 22
-11 91 -17 151 l-12 110 -110 1 c-61 0 -166 -2 -235 -5z"/>
</g>
</svg>
