<?xml version="1.0" standalone="no"?>
<!DOCTYPE svg PUBLIC "-//W3C//DTD SVG 20010904//EN"
 "http://www.w3.org/TR/2001/REC-SVG-20010904/DTD/svg10.dtd">
<svg version="1.0" xmlns="http://www.w3.org/2000/svg"
 width="20.000000pt" height="64.000000pt" viewBox="0 0 20.000000 64.000000"
 preserveAspectRatio="xMidYMid meet">
<metadata>
Created by potrace 1.14, written by Peter Selinger 2001-2017
</metadata>
<g transform="translate(0.000000,64.000000) scale(0.100000,-0.100000)"
fill="#000000" stroke="none">
<path fill="#000000" stroke="none" d="M71 624 c-13 -10 -21 -24 -20 -37 2
-12 -2 -31 -8 -42 -37 -69 -51 -328 -21 -375 25 -40 31 -85 13 -100 -36 -30 2
-48 39 -19 24 19 25 22 10 44 -10 16 -13 34 -9 57 5 25 2 38 -9 47 -21 18 -20
38 3 51 18 9 20 5 25 -78 3 -48 6 -100 6 -116 1 -39 18 -60 36 -45 11 9 14 42
14 132 0 101 3 128 20 163 14 27 21 64 22 105 1 92 -8 121 -42 141 -20 11 -33
28 -36 48 -8 39 -16 43 -43 24z"/>
</g>
</svg>
