<?xml version="1.0" standalone="no"?>
<!DOCTYPE svg PUBLIC "-//W3C//DTD SVG 20010904//EN"
 "http://www.w3.org/TR/2001/REC-SVG-20010904/DTD/svg10.dtd">
<svg version="1.0" xmlns="http://www.w3.org/2000/svg"
 width="22.000000pt" height="68.000000pt" viewBox="0 0 22.000000 68.000000"
 preserveAspectRatio="xMidYMid meet">
<metadata>
Created by potrace 1.14, written by Peter Selinger 2001-2017
</metadata>
<g transform="translate(0.000000,68.000000) scale(0.100000,-0.100000)"
fill="#000000" stroke="none">
<path fill="#000000" stroke="none" d="M67 668 c-21 -7 -26 -15 -22 -29 4 -11
-2 -30 -15 -47 -34 -45 -28 -196 12 -357 11 -44 21 -106 23 -138 2 -54 5 -60
35 -78 18 -11 34 -19 35 -17 6 6 28 205 27 245 0 38 2 42 29 48 l29 7 -16 36
c-9 20 -22 54 -28 76 -7 21 -20 42 -29 48 -25 13 -23 91 2 109 11 8 21 31 24
55 5 40 3 42 -25 48 -38 7 -46 7 -81 -6z"/>
</g>
</svg>
