<?xml version="1.0" standalone="no"?>
<!DOCTYPE svg PUBLIC "-//W3C//DTD SVG 20010904//EN"
 "http://www.w3.org/TR/2001/REC-SVG-20010904/DTD/svg10.dtd">
<svg version="1.0" xmlns="http://www.w3.org/2000/svg"
 width="15.000000pt" height="56.000000pt" viewBox="0 0 15.000000 56.000000"
 preserveAspectRatio="xMidYMid meet">
<metadata>
Created by potrace 1.14, written by Peter Selinger 2001-2017
</metadata>
<g transform="translate(0.000000,56.000000) scale(0.100000,-0.100000)"
fill="#000000" stroke="none">
<path fill="#000000" stroke="none" d="M41 468 c-47 -106 -52 -157 -21 -218
16 -32 20 -59 20 -145 0 -58 4 -105 8 -105 5 0 17 6 27 14 15 10 21 38 32 137
7 68 20 147 28 176 17 57 20 109 6 117 -4 3 -11 25 -15 48 -7 41 -21 68 -36
68 -4 0 -26 -42 -49 -92z"/>
</g>
</svg>
