<?xml version="1.0" standalone="no"?>
<!DOCTYPE svg PUBLIC "-//W3C//DTD SVG 20010904//EN"
 "http://www.w3.org/TR/2001/REC-SVG-20010904/DTD/svg10.dtd">
<svg version="1.0" xmlns="http://www.w3.org/2000/svg"
 width="38.000000pt" height="130.000000pt" viewBox="0 0 38.000000 130.000000"
 preserveAspectRatio="xMidYMid meet">
<metadata>
Created by potrace 1.14, written by Peter Selinger 2001-2017
</metadata>
<g transform="translate(0.000000,130.000000) scale(0.100000,-0.100000)"
fill="#000000" stroke="none">
<path fill="#000000" stroke="none" d="M230 1287 c-33 -15 -38 -23 -45 -79 -7
-45 -11 -51 -66 -89 -46 -31 -65 -52 -88 -97 l-28 -57 17 -49 c16 -48 40 -73
40 -42 0 8 5 18 11 22 8 5 10 -3 6 -27 -3 -25 0 -40 14 -55 19 -21 19 -22 -2
-115 -17 -76 -19 -109 -13 -169 9 -89 9 -161 1 -372 l-6 -158 102 0 c85 0 110
4 151 23 l49 23 -47 24 c-32 18 -44 29 -40 40 11 28 44 195 44 227 0 17 -9 84
-20 148 -21 124 -27 335 -11 378 6 16 23 29 45 37 31 10 36 16 36 42 0 17 -9
45 -19 62 -27 44 -35 98 -21 141 19 56 5 110 -35 135 -37 23 -40 23 -75 7z"/>
</g>
</svg>
