<?xml version="1.0" standalone="no"?>
<!DOCTYPE svg PUBLIC "-//W3C//DTD SVG 20010904//EN"
 "http://www.w3.org/TR/2001/REC-SVG-20010904/DTD/svg10.dtd">
<svg version="1.0" xmlns="http://www.w3.org/2000/svg"
 width="14.000000pt" height="42.000000pt" viewBox="0 0 14.000000 42.000000"
 preserveAspectRatio="xMidYMid meet">
<metadata>
Created by potrace 1.14, written by Peter Selinger 2001-2017
</metadata>
<g transform="translate(0.000000,42.000000) scale(0.100000,-0.100000)"
fill="#000000" stroke="none">
<path fill="#000000" stroke="none" d="M41 393 c-40 -49 -40 -104 -1 -68 12
11 29 16 45 13 14 -3 25 -1 25 3 0 5 -10 9 -22 9 -20 0 -21 1 -3 20 15 16 15
22 5 35 -17 21 -25 19 -49 -12z"/>
<path fill="#000000" stroke="none" d="M110 278 c0 -42 -18 -78 -38 -78 -12 0
-29 15 -35 30 -4 12 -6 12 -6 -1 -1 -9 -8 -19 -16 -23 -11 -4 -15 -20 -14 -58
0 -53 29 -144 45 -142 26 2 74 17 74 23 0 3 -9 38 -19 77 l-18 71 28 34 c32
38 34 53 14 89 -14 24 -14 24 -15 -22z"/>
</g>
</svg>
