<?xml version="1.0" standalone="no"?>
<!DOCTYPE svg PUBLIC "-//W3C//DTD SVG 20010904//EN"
 "http://www.w3.org/TR/2001/REC-SVG-20010904/DTD/svg10.dtd">
<svg version="1.0" xmlns="http://www.w3.org/2000/svg"
 width="104.000000pt" height="346.000000pt" viewBox="0 0 104.000000 346.000000"
 preserveAspectRatio="xMidYMid meet">
<metadata>
Created by potrace 1.14, written by Peter Selinger 2001-2017
</metadata>
<g transform="translate(0.000000,346.000000) scale(0.100000,-0.100000)"
fill="#000000" stroke="none">
<path fill="#000000" stroke="none" d="M516 3448 l-98 -9 -73 -55 -74 -55 -20
-92 c-38 -170 -38 -164 -15 -273 23 -111 21 -107 76 -181 l38 -52 -96 -113
c-79 -92 -108 -136 -164 -248 l-67 -135 -12 -128 c-23 -268 -10 -473 45 -685
33 -130 34 -136 34 -335 -1 -186 -3 -211 -28 -314 l-28 -113 17 -162 18 -163
-30 -49 c-26 -43 -30 -56 -27 -115 l3 -66 126 -46 c115 -41 136 -46 224 -48
54 -1 102 -4 106 -7 5 -2 20 14 34 36 l26 41 -40 89 c-21 50 -36 90 -33 90 4
0 75 -20 157 -44 174 -50 217 -51 240 -6 l15 29 -114 108 -114 108 19 50 c55
140 109 322 109 366 l0 47 -92 -29 c-83 -26 -102 -29 -172 -23 -68 6 -89 13
-156 51 l-78 44 -16 66 c-12 47 -15 85 -11 129 l7 62 -58 37 c-33 21 -61 39
-63 41 -2 2 3 10 12 18 8 9 25 32 37 51 16 26 27 34 39 29 9 -4 40 -14 69 -22
64 -19 88 -14 260 54 98 38 124 44 188 44 67 0 76 -2 108 -30 l34 -30 10 30
c10 27 13 29 37 20 15 -6 28 -10 30 -10 2 0 22 30 43 68 l39 67 -28 435 -29
435 -52 50 c-29 28 -85 80 -125 115 l-72 65 39 62 40 62 36 -10 c20 -6 39 -8
42 -4 3 3 18 45 32 94 l26 88 -40 126 c-39 120 -45 132 -129 242 -100 131 -73
120 -261 103z"/>
</g>
</svg>
