<?xml version="1.0" standalone="no"?>
<!DOCTYPE svg PUBLIC "-//W3C//DTD SVG 20010904//EN"
 "http://www.w3.org/TR/2001/REC-SVG-20010904/DTD/svg10.dtd">
<svg version="1.0" xmlns="http://www.w3.org/2000/svg"
 width="50.000000pt" height="144.000000pt" viewBox="0 0 50.000000 144.000000"
 preserveAspectRatio="xMidYMid meet">
<metadata>
Created by potrace 1.14, written by Peter Selinger 2001-2017
</metadata>
<g transform="translate(0.000000,144.000000) scale(0.100000,-0.100000)"
fill="#000000" stroke="none">
<path fill="#000000" stroke="none" d="M282 1423 c-11 -21 -5 -97 10 -126 7
-14 4 -20 -20 -28 -32 -11 -52 -46 -77 -134 -8 -27 -23 -75 -34 -105 -11 -30
-20 -72 -21 -94 0 -30 -3 -37 -15 -32 -23 8 -39 -36 -80 -214 -20 -85 -38
-163 -41 -172 -4 -13 5 -22 33 -33 34 -14 47 -28 90 -100 7 -11 13 -38 14 -60
2 -70 11 -86 59 -105 56 -22 63 -49 23 -82 -50 -41 -93 -92 -93 -109 0 -22 28
-29 117 -29 63 0 75 3 104 27 l32 27 -6 86 c-5 74 -3 88 14 109 18 22 19 42
19 295 l0 272 34 12 c32 12 34 15 40 75 3 34 7 108 8 164 3 98 2 103 -23 130
-37 40 -48 79 -33 122 34 105 29 114 -70 119 -65 4 -75 2 -84 -15z"/>
</g>
</svg>
