<?xml version="1.0" standalone="no"?>
<!DOCTYPE svg PUBLIC "-//W3C//DTD SVG 20010904//EN"
 "http://www.w3.org/TR/2001/REC-SVG-20010904/DTD/svg10.dtd">
<svg version="1.0" xmlns="http://www.w3.org/2000/svg"
 width="57.000000pt" height="200.000000pt" viewBox="0 0 57.000000 200.000000"
 preserveAspectRatio="xMidYMid meet">
<metadata>
Created by potrace 1.14, written by Peter Selinger 2001-2017
</metadata>
<g transform="translate(0.000000,200.000000) scale(0.100000,-0.100000)"
fill="#000000" stroke="none">
<path fill="#000000" stroke="none" d="M267 1990 c-21 -4 -50 -19 -65 -33 -23
-23 -26 -36 -30 -114 -4 -77 -7 -91 -28 -111 -13 -13 -24 -29 -24 -37 0 -8
-12 -22 -27 -32 -16 -9 -43 -30 -60 -47 -31 -28 -33 -34 -33 -100 1 -93 22
-210 55 -301 25 -69 29 -74 62 -80 57 -10 73 -25 73 -67 0 -32 -7 -44 -41 -75
-25 -22 -39 -43 -36 -52 3 -9 31 -82 61 -163 l57 -148 -10 -79 c-6 -44 -28
-144 -51 -223 -36 -131 -39 -150 -30 -199 5 -30 12 -71 15 -92 l6 -39 72 7
c103 9 190 25 205 37 27 23 13 53 -33 76 -25 12 -52 22 -59 22 -20 0 -46 45
-46 77 0 15 11 45 24 66 l24 39 51 -99 c76 -144 70 -138 125 -111 46 22 46 22
46 74 0 35 -5 58 -16 69 -9 9 -41 80 -71 158 l-54 142 26 205 25 205 -18 122
c-10 68 -22 126 -25 130 -4 4 -32 -4 -62 -16 -35 -14 -65 -21 -80 -17 -25 6
-60 59 -52 79 2 7 30 21 61 31 47 16 56 23 54 40 -2 13 -14 24 -35 29 -23 7
-34 17 -38 37 -9 40 4 80 25 80 10 0 37 9 61 20 24 11 59 20 77 20 24 0 32 4
32 18 0 32 -40 83 -90 114 -58 36 -61 49 -34 160 20 81 13 126 -24 160 -23 21
-33 24 -65 18z"/>
</g>
</svg>
