<?xml version="1.0" standalone="no"?>
<!DOCTYPE svg PUBLIC "-//W3C//DTD SVG 20010904//EN"
 "http://www.w3.org/TR/2001/REC-SVG-20010904/DTD/svg10.dtd">
<svg version="1.0" xmlns="http://www.w3.org/2000/svg"
 width="27.000000pt" height="82.000000pt" viewBox="0 0 27.000000 82.000000"
 preserveAspectRatio="xMidYMid meet">
<metadata>
Created by potrace 1.14, written by Peter Selinger 2001-2017
</metadata>
<g transform="translate(0.000000,82.000000) scale(0.100000,-0.100000)"
fill="#000000" stroke="none">
<path fill="#000000" stroke="none" d="M120 790 c-27 -37 -21 -96 12 -121 20
-16 20 -16 -11 -51 -25 -29 -31 -44 -31 -83 0 -40 -6 -55 -45 -104 -44 -56
-53 -83 -37 -108 8 -13 28 -6 84 31 l27 18 16 -37 c8 -21 15 -40 15 -44 0 -3
14 -32 30 -64 34 -63 33 -72 -18 -120 -25 -24 -28 -33 -23 -60 7 -31 9 -32 67
-37 l60 -5 3 358 c2 249 -1 357 -8 357 -6 0 -18 18 -27 39 -11 28 -24 43 -46
50 -43 15 -44 15 -68 -19z"/>
</g>
</svg>
