<?xml version="1.0" standalone="no"?>
<!DOCTYPE svg PUBLIC "-//W3C//DTD SVG 20010904//EN"
 "http://www.w3.org/TR/2001/REC-SVG-20010904/DTD/svg10.dtd">
<svg version="1.0" xmlns="http://www.w3.org/2000/svg"
 width="12.000000pt" height="36.000000pt" viewBox="0 0 12.000000 36.000000"
 preserveAspectRatio="xMidYMid meet">
<metadata>
Created by potrace 1.14, written by Peter Selinger 2001-2017
</metadata>
<g transform="translate(0.000000,36.000000) scale(0.100000,-0.100000)"
fill="#000000" stroke="none">
<path fill="#000000" stroke="none" d="M57 353 c-4 -3 -7 -15 -7 -25 0 -10 -6
-18 -13 -18 -15 0 -37 -41 -37 -69 0 -9 7 -26 15 -37 9 -12 14 -42 15 -81 0
-54 3 -63 18 -63 11 0 25 -14 35 -32 l16 -33 0 39 c1 21 6 79 13 128 11 80 10
92 -6 119 -11 19 -16 40 -12 55 5 19 2 24 -12 24 -10 0 -22 -3 -25 -7z"/>
</g>
</svg>
