<?xml version="1.0" standalone="no"?>
<!DOCTYPE svg PUBLIC "-//W3C//DTD SVG 20010904//EN"
 "http://www.w3.org/TR/2001/REC-SVG-20010904/DTD/svg10.dtd">
<svg version="1.0" xmlns="http://www.w3.org/2000/svg"
 width="26.000000pt" height="98.000000pt" viewBox="0 0 26.000000 98.000000"
 preserveAspectRatio="xMidYMid meet">
<metadata>
Created by potrace 1.14, written by Peter Selinger 2001-2017
</metadata>
<g transform="translate(0.000000,98.000000) scale(0.100000,-0.100000)"
fill="#000000" stroke="none">
<path fill="#000000" stroke="none" d="M59 973 c-28 -7 -33 -69 -11 -108 l20
-33 -22 -10 c-18 -8 -25 -24 -34 -80 -16 -92 -16 -404 -1 -419 7 -7 11 -64 11
-161 l-1 -150 82 -4 c45 -2 82 -4 83 -4 0 1 -3 44 -7 96 -9 116 4 217 30 225
16 5 17 12 8 62 -6 38 -6 58 0 60 6 2 18 10 28 17 17 12 17 22 5 162 l-12 148
-44 52 c-38 44 -44 57 -44 97 0 54 -25 68 -91 50z"/>
</g>
</svg>
