<?xml version="1.0" standalone="no"?>
<!DOCTYPE svg PUBLIC "-//W3C//DTD SVG 20010904//EN"
 "http://www.w3.org/TR/2001/REC-SVG-20010904/DTD/svg10.dtd">
<svg version="1.0" xmlns="http://www.w3.org/2000/svg"
 width="144.000000pt" height="414.000000pt" viewBox="0 0 144.000000 414.000000"
 preserveAspectRatio="xMidYMid meet">
<metadata>
Created by potrace 1.14, written by Peter Selinger 2001-2017
</metadata>
<g transform="translate(0.000000,414.000000) scale(0.100000,-0.100000)"
fill="#000000" stroke="none">
<path fill="#000000" stroke="none" d="M420 4127 c-30 -7 -83 -28 -117 -45
l-63 -32 0 -126 c0 -144 -1 -142 101 -267 32 -40 59 -74 59 -77 0 -3 -38 -32
-83 -64 -78 -55 -87 -66 -149 -173 -61 -104 -119 -255 -104 -270 3 -3 34 17
69 45 l63 51 45 -16 c44 -16 44 -16 107 16 l62 31 41 -21 c35 -17 39 -23 28
-33 -28 -26 -320 -187 -329 -181 -5 3 -12 22 -16 41 l-6 35 -28 -32 -27 -33
-13 24 c-13 24 -14 24 -31 -33 l-17 -58 51 -124 c50 -122 51 -123 99 -146 55
-26 54 -24 38 -174 -6 -58 -2 -184 16 -455 17 -263 24 -470 24 -695 0 -229 6
-389 20 -560 11 -132 20 -249 20 -261 0 -17 -27 -35 -134 -93 l-133 -71 -6
-53 c-3 -28 -2 -55 2 -59 3 -4 50 -23 104 -43 84 -30 110 -35 180 -34 45 0
104 4 132 7 l49 7 48 130 48 130 0 230 0 230 39 135 c21 74 53 217 71 318 19
100 36 182 39 182 3 0 81 -247 174 -548 164 -537 167 -549 167 -638 0 -61 8
-128 25 -202 14 -61 25 -113 25 -116 0 -3 25 -6 55 -6 43 0 71 8 124 34 l68
35 42 149 c22 81 41 167 41 189 0 22 -15 148 -34 279 -28 196 -35 282 -40 479
-6 246 -31 515 -80 855 -19 129 -38 213 -72 320 l-46 145 44 285 44 285 -33
160 c-18 88 -33 161 -33 163 0 8 -154 162 -162 162 -5 0 -103 -63 -218 -140
-231 -154 -213 -150 -229 -53 -5 26 -11 55 -14 63 -4 11 40 49 152 134 l158
119 -40 64 -40 64 17 84 17 84 -35 68 c-54 107 -43 101 -191 107 -89 4 -147 1
-185 -7z"/>
</g>
</svg>
