<?xml version="1.0" standalone="no"?>
<!DOCTYPE svg PUBLIC "-//W3C//DTD SVG 20010904//EN"
 "http://www.w3.org/TR/2001/REC-SVG-20010904/DTD/svg10.dtd">
<svg version="1.0" xmlns="http://www.w3.org/2000/svg"
 width="19.000000pt" height="57.000000pt" viewBox="0 0 19.000000 57.000000"
 preserveAspectRatio="xMidYMid meet">
<metadata>
Created by potrace 1.14, written by Peter Selinger 2001-2017
</metadata>
<g transform="translate(0.000000,57.000000) scale(0.100000,-0.100000)"
fill="#000000" stroke="none">
<path fill="#000000" stroke="none" d="M84 559 c-4 -7 -8 -53 -10 -103 -2 -71
-9 -110 -33 -176 -20 -58 -32 -115 -37 -178 l-7 -92 30 0 c28 0 31 3 37 46 3
26 6 62 6 80 0 19 4 34 10 34 13 0 19 -31 22 -105 2 -46 7 -61 19 -63 16 -3
19 18 35 232 2 27 10 70 18 95 7 25 13 69 12 96 -1 45 -3 50 -25 53 -15 2 -30
-3 -37 -13 -11 -15 -13 -14 -19 5 -4 11 -4 39 0 60 7 39 -5 54 -21 29z"/>
</g>
</svg>
