<?xml version="1.0" standalone="no"?>
<!DOCTYPE svg PUBLIC "-//W3C//DTD SVG 20010904//EN"
 "http://www.w3.org/TR/2001/REC-SVG-20010904/DTD/svg10.dtd">
<svg version="1.0" xmlns="http://www.w3.org/2000/svg"
 width="29.000000pt" height="114.000000pt" viewBox="0 0 29.000000 114.000000"
 preserveAspectRatio="xMidYMid meet">
<metadata>
Created by potrace 1.14, written by Peter Selinger 2001-2017
</metadata>
<g transform="translate(0.000000,114.000000) scale(0.100000,-0.100000)"
fill="#000000" stroke="none">
<path fill="#000000" stroke="none" d="M93 1133 c-7 -2 -13 -15 -13 -28 0 -47
-13 -85 -31 -90 -14 -5 -19 -16 -19 -44 0 -21 -7 -60 -15 -87 -17 -57 -19
-101 -5 -106 6 -2 12 -52 13 -119 3 -105 6 -121 35 -183 32 -68 32 -69 32
-233 0 -99 5 -182 12 -205 11 -37 14 -39 41 -34 16 3 47 6 68 6 37 0 39 2 39
30 0 17 -6 43 -14 58 -18 35 -16 395 2 429 19 34 15 317 -4 407 l-17 75 38 47
39 47 -23 18 c-18 15 -39 19 -95 18 -39 0 -77 -3 -83 -6z"/>
</g>
</svg>
