<?xml version="1.0" standalone="no"?>
<!DOCTYPE svg PUBLIC "-//W3C//DTD SVG 20010904//EN"
 "http://www.w3.org/TR/2001/REC-SVG-20010904/DTD/svg10.dtd">
<svg version="1.0" xmlns="http://www.w3.org/2000/svg"
 width="32.000000pt" height="119.000000pt" viewBox="0 0 32.000000 119.000000"
 preserveAspectRatio="xMidYMid meet">
<metadata>
Created by potrace 1.14, written by Peter Selinger 2001-2017
</metadata>
<g transform="translate(0.000000,119.000000) scale(0.100000,-0.100000)"
fill="#000000" stroke="none">
<path fill="#000000" stroke="none" d="M146 1067 c-74 -114 -80 -126 -82 -181
-4 -107 -16 -180 -34 -222 -27 -63 -30 -90 -21 -204 7 -83 16 -125 45 -200 43
-115 48 -192 15 -234 -30 -38 -1 -34 47 8 36 31 38 35 26 60 -6 15 -12 50 -12
79 -1 29 -7 81 -15 117 -7 36 -12 66 -11 67 14 14 133 -184 143 -237 4 -26 0
-44 -16 -73 -25 -43 -23 -52 11 -43 23 6 78 74 78 96 0 7 -8 24 -18 38 -10 15
-28 54 -41 87 -13 33 -30 71 -38 83 -21 35 -28 161 -13 242 15 77 7 111 -35
150 -25 23 -23 45 8 106 18 35 32 125 28 175 -2 29 4 44 28 72 38 42 41 84 8
115 l-22 21 -79 -122z"/>
</g>
</svg>
