<?xml version="1.0" standalone="no"?>
<!DOCTYPE svg PUBLIC "-//W3C//DTD SVG 20010904//EN"
 "http://www.w3.org/TR/2001/REC-SVG-20010904/DTD/svg10.dtd">
<svg version="1.0" xmlns="http://www.w3.org/2000/svg"
 width="114.000000pt" height="331.000000pt" viewBox="0 0 114.000000 331.000000"
 preserveAspectRatio="xMidYMid meet">
<metadata>
Created by potrace 1.14, written by Peter Selinger 2001-2017
</metadata>
<g transform="translate(0.000000,331.000000) scale(0.100000,-0.100000)"
fill="#000000" stroke="none">
<path fill="#000000" stroke="none" d="M499 3299 c-31 -11 -44 -62 -55 -206
l-7 -93 28 -10 c30 -11 29 -33 -3 -38 -11 -2 -27 -14 -36 -26 -8 -13 -43 -37
-78 -54 -35 -17 -74 -41 -88 -54 -14 -13 -52 -81 -83 -151 -50 -110 -64 -156
-97 -315 -33 -155 -42 -220 -50 -377 -13 -256 -13 -275 4 -275 21 0 26 -23 26
-111 0 -87 -6 -80 80 -93 19 -3 40 -14 46 -24 7 -10 15 -95 19 -198 4 -98 13
-213 21 -254 28 -152 10 -470 -32 -567 -12 -28 -28 -87 -35 -130 -18 -115 -39
-154 -98 -186 -42 -23 -60 -46 -61 -79 0 -17 79 -29 217 -35 l152 -6 -6 50
c-8 69 13 177 43 225 37 58 90 339 98 523 9 181 32 415 49 485 l12 55 25 -88
c15 -53 27 -81 30 -71 9 26 60 -467 60 -581 0 -132 13 -215 55 -360 30 -101
34 -126 25 -155 -5 -19 -10 -50 -10 -69 l0 -34 107 6 c58 4 132 7 165 7 54 0
58 1 58 24 0 15 -17 39 -50 70 l-50 47 0 183 c0 227 -13 364 -46 482 l-26 91
36 78 36 78 0 182 c0 266 10 425 27 425 8 0 13 11 13 29 0 16 11 53 25 84 20
42 30 54 43 50 24 -6 39 44 47 157 11 140 -33 381 -122 674 -27 88 -27 88 -89
130 -33 22 -91 69 -128 103 l-67 63 18 26 c17 26 19 74 7 136 -5 23 -2 26 15
21 25 -6 29 18 6 37 -9 7 -32 39 -52 71 l-36 59 -81 -1 c-45 0 -93 -5 -107
-10z"/>
</g>
</svg>
