<?xml version="1.0" standalone="no"?>
<!DOCTYPE svg PUBLIC "-//W3C//DTD SVG 20010904//EN"
 "http://www.w3.org/TR/2001/REC-SVG-20010904/DTD/svg10.dtd">
<svg version="1.0" xmlns="http://www.w3.org/2000/svg"
 width="17.000000pt" height="59.000000pt" viewBox="0 0 17.000000 59.000000"
 preserveAspectRatio="xMidYMid meet">
<metadata>
Created by potrace 1.14, written by Peter Selinger 2001-2017
</metadata>
<g transform="translate(0.000000,59.000000) scale(0.100000,-0.100000)"
fill="#000000" stroke="none">
<path fill="#000000" stroke="none" d="M72 574 c-12 -8 -22 -24 -22 -35 0 -11
-8 -23 -17 -26 -10 -4 -21 -11 -25 -17 -14 -20 -8 -163 8 -227 10 -39 14 -86
12 -123 -4 -54 -2 -64 20 -91 13 -16 39 -34 57 -41 l32 -11 6 106 c4 58 11
122 17 141 15 48 2 236 -16 251 -8 6 -14 20 -14 31 0 22 -17 58 -28 58 -4 0
-18 -7 -30 -16z"/>
</g>
</svg>
