<?xml version="1.0" standalone="no"?>
<!DOCTYPE svg PUBLIC "-//W3C//DTD SVG 20010904//EN"
 "http://www.w3.org/TR/2001/REC-SVG-20010904/DTD/svg10.dtd">
<svg version="1.0" xmlns="http://www.w3.org/2000/svg"
 width="17.000000pt" height="62.000000pt" viewBox="0 0 17.000000 62.000000"
 preserveAspectRatio="xMidYMid meet">
<metadata>
Created by potrace 1.14, written by Peter Selinger 2001-2017
</metadata>
<g transform="translate(0.000000,62.000000) scale(0.100000,-0.100000)"
fill="#000000" stroke="none">
<path fill="#000000" stroke="none" d="M120 595 c-26 -19 -41 -43 -62 -96 -25
-67 -26 -72 -12 -117 20 -66 18 -80 -18 -172 l-31 -81 22 -42 22 -42 -6 49
c-3 27 -1 54 4 60 4 6 11 31 14 56 19 146 33 205 72 302 24 59 40 108 37 108
-4 -1 -23 -12 -42 -25z"/>
<path fill="#000000" stroke="none" d="M160 475 c0 -3 -11 -43 -25 -91 l-25
-85 21 -40 c14 -29 22 -72 28 -152 7 -100 8 -86 10 131 0 133 -1 242 -4 242
-3 0 -5 -2 -5 -5z"/>
</g>
</svg>
