<?xml version="1.0" standalone="no"?>
<!DOCTYPE svg PUBLIC "-//W3C//DTD SVG 20010904//EN"
 "http://www.w3.org/TR/2001/REC-SVG-20010904/DTD/svg10.dtd">
<svg version="1.0" xmlns="http://www.w3.org/2000/svg"
 width="9.000000pt" height="29.000000pt" viewBox="0 0 9.000000 29.000000"
 preserveAspectRatio="xMidYMid meet">
<metadata>
Created by potrace 1.14, written by Peter Selinger 2001-2017
</metadata>
<g transform="translate(0.000000,29.000000) scale(0.100000,-0.100000)"
fill="#000000" stroke="none">
<path fill="#000000" stroke="none" d="M16 248 c-4 -24 -7 -49 -6 -55 3 -35 1
-74 -5 -130 -6 -45 -4 -63 4 -63 6 0 11 11 11 24 0 33 17 76 30 76 5 0 10 -20
10 -45 0 -25 4 -45 9 -45 14 0 22 112 11 150 -5 19 -10 51 -10 70 0 68 -44 82
-54 18z"/>
</g>
</svg>
