<?xml version="1.0" standalone="no"?>
<!DOCTYPE svg PUBLIC "-//W3C//DTD SVG 20010904//EN"
 "http://www.w3.org/TR/2001/REC-SVG-20010904/DTD/svg10.dtd">
<svg version="1.0" xmlns="http://www.w3.org/2000/svg"
 width="21.000000pt" height="74.000000pt" viewBox="0 0 21.000000 74.000000"
 preserveAspectRatio="xMidYMid meet">
<metadata>
Created by potrace 1.14, written by Peter Selinger 2001-2017
</metadata>
<g transform="translate(0.000000,74.000000) scale(0.100000,-0.100000)"
fill="#000000" stroke="none">
<path fill="#000000" stroke="none" d="M22 717 c-22 -23 -22 -28 -22 -370 0
-347 0 -347 21 -347 19 0 20 4 14 32 -4 18 -9 61 -12 94 -4 56 -2 63 19 78
l23 16 8 -62 c4 -35 6 -82 4 -105 l-5 -43 64 0 c73 0 80 11 29 41 -35 21 -35
21 -29 77 4 32 13 64 20 73 9 10 14 42 14 92 0 67 2 76 20 82 18 6 20 15 20
110 0 120 -8 147 -49 171 -25 15 -31 25 -31 51 0 32 -1 33 -43 33 -33 0 -49
-6 -65 -23z"/>
</g>
</svg>
