<?xml version="1.0" standalone="no"?>
<!DOCTYPE svg PUBLIC "-//W3C//DTD SVG 20010904//EN"
 "http://www.w3.org/TR/2001/REC-SVG-20010904/DTD/svg10.dtd">
<svg version="1.0" xmlns="http://www.w3.org/2000/svg"
 width="12.000000pt" height="37.000000pt" viewBox="0 0 12.000000 37.000000"
 preserveAspectRatio="xMidYMid meet">
<metadata>
Created by potrace 1.14, written by Peter Selinger 2001-2017
</metadata>
<g transform="translate(0.000000,37.000000) scale(0.100000,-0.100000)"
fill="#000000" stroke="none">
<path fill="#000000" stroke="none" d="M34 331 c5 -31 1 -50 -15 -81 -18 -35
-20 -44 -9 -70 7 -17 13 -51 14 -75 1 -25 8 -51 14 -57 7 -7 12 -20 12 -30 0
-13 8 -18 25 -18 24 0 25 3 25 53 0 30 3 57 7 61 4 3 8 42 10 86 2 63 -1 82
-14 96 -9 9 -17 28 -18 43 0 21 -5 27 -29 29 -28 4 -29 3 -22 -37z"/>
</g>
</svg>
