<?xml version="1.0" standalone="no"?>
<!DOCTYPE svg PUBLIC "-//W3C//DTD SVG 20010904//EN"
 "http://www.w3.org/TR/2001/REC-SVG-20010904/DTD/svg10.dtd">
<svg version="1.0" xmlns="http://www.w3.org/2000/svg"
 width="46.000000pt" height="145.000000pt" viewBox="0 0 46.000000 145.000000"
 preserveAspectRatio="xMidYMid meet">
<metadata>
Created by potrace 1.14, written by Peter Selinger 2001-2017
</metadata>
<g transform="translate(0.000000,145.000000) scale(0.100000,-0.100000)"
fill="#000000" stroke="none">
<path fill="#000000" stroke="none" d="M257 1412 c-86 -36 -88 -38 -83 -67 3
-16 8 -55 11 -86 l7 -56 -66 -52 c-36 -29 -66 -59 -66 -67 0 -8 -13 -41 -30
-74 -29 -56 -30 -66 -30 -183 l0 -124 68 -31 c37 -17 84 -37 105 -46 20 -8 37
-22 37 -31 0 -28 -29 -208 -65 -399 -19 -104 -33 -191 -31 -194 3 -2 25 -1 49
2 l44 7 7 61 c3 33 6 79 6 102 0 22 19 126 41 231 35 158 49 205 87 280 25 50
59 125 77 168 29 72 31 82 24 149 -7 62 -12 76 -42 107 -68 72 -68 74 -41 154
23 66 24 77 13 130 -6 31 -17 57 -23 57 -6 -1 -51 -18 -99 -38z"/>
</g>
</svg>
