<?xml version="1.0" standalone="no"?>
<!DOCTYPE svg PUBLIC "-//W3C//DTD SVG 20010904//EN"
 "http://www.w3.org/TR/2001/REC-SVG-20010904/DTD/svg10.dtd">
<svg version="1.0" xmlns="http://www.w3.org/2000/svg"
 width="78.000000pt" height="256.000000pt" viewBox="0 0 78.000000 256.000000"
 preserveAspectRatio="xMidYMid meet">
<metadata>
Created by potrace 1.14, written by Peter Selinger 2001-2017
</metadata>
<g transform="translate(0.000000,256.000000) scale(0.100000,-0.100000)"
fill="#000000" stroke="none">
<path fill="#000000" stroke="none" d="M695 2553 c-118 -14 -114 -12 -156 -65
-22 -28 -38 -56 -36 -61 4 -14 55 -28 62 -17 6 9 61 -6 82 -22 6 -5 14 -31 18
-59 4 -27 10 -49 14 -49 3 0 18 63 32 140 14 77 23 139 20 139 -3 -1 -19 -4
-36 -6z"/>
<path fill="#000000" stroke="none" d="M490 2249 c0 -17 -18 -71 -39 -119 -30
-68 -71 -210 -71 -246 0 -2 -8 -8 -19 -13 -14 -8 -27 -4 -57 19 -29 22 -50 30
-81 30 -47 0 -55 -11 -21 -28 18 -8 19 -11 6 -11 -14 -1 -18 -10 -18 -40 0
-34 4 -41 33 -54 17 -8 41 -17 52 -19 13 -2 30 -25 51 -67 27 -57 65 -97 122
-130 10 -6 4 -24 -26 -77 -21 -38 -47 -103 -57 -144 -9 -41 -23 -81 -30 -89
-7 -7 -55 -38 -107 -70 -53 -31 -125 -84 -162 -119 l-67 -63 82 -157 c45 -86
113 -207 150 -268 38 -61 69 -120 69 -131 0 -59 -108 -281 -166 -343 l-34 -35
19 -31 c32 -53 66 -52 175 8 l94 52 23 78 c23 82 41 104 126 153 28 17 30 20
20 44 -6 14 -26 43 -44 64 -18 20 -33 42 -33 48 0 6 18 119 40 251 23 133 39
247 36 253 -2 7 -23 15 -46 19 -23 3 -61 21 -85 39 -56 41 -70 91 -48 175 13
50 24 67 95 138 44 45 113 106 154 135 67 50 76 60 113 139 l39 85 -19 105
c-10 58 -21 120 -24 138 -5 28 -9 32 -26 27 -46 -15 -129 109 -129 192 0 39
-4 45 -40 68 -22 14 -42 25 -45 25 -3 0 -5 -14 -5 -31z"/>
</g>
</svg>
