<?xml version="1.0" standalone="no"?>
<!DOCTYPE svg PUBLIC "-//W3C//DTD SVG 20010904//EN"
 "http://www.w3.org/TR/2001/REC-SVG-20010904/DTD/svg10.dtd">
<svg version="1.0" xmlns="http://www.w3.org/2000/svg"
 width="21.000000pt" height="65.000000pt" viewBox="0 0 21.000000 65.000000"
 preserveAspectRatio="xMidYMid meet">
<metadata>
Created by potrace 1.14, written by Peter Selinger 2001-2017
</metadata>
<g transform="translate(0.000000,65.000000) scale(0.100000,-0.100000)"
fill="#000000" stroke="none">
<path fill="#000000" stroke="none" d="M97 614 l-37 -34 0 -174 c0 -129 -4
-184 -15 -216 -8 -23 -15 -69 -15 -101 0 -49 -3 -59 -17 -59 -14 -1 -12 -4 7
-15 33 -19 42 -18 36 3 -3 9 3 31 14 47 11 17 20 43 20 58 0 55 17 16 24 -54
l7 -71 41 5 c22 3 42 8 45 10 3 3 -4 32 -15 65 -32 91 -36 150 -22 331 l13
167 -24 36 -24 36 -38 -34z"/>
</g>
</svg>
