<?xml version="1.0" standalone="no"?>
<!DOCTYPE svg PUBLIC "-//W3C//DTD SVG 20010904//EN"
 "http://www.w3.org/TR/2001/REC-SVG-20010904/DTD/svg10.dtd">
<svg version="1.0" xmlns="http://www.w3.org/2000/svg"
 width="15.000000pt" height="51.000000pt" viewBox="0 0 15.000000 51.000000"
 preserveAspectRatio="xMidYMid meet">
<metadata>
Created by potrace 1.14, written by Peter Selinger 2001-2017
</metadata>
<g transform="translate(0.000000,51.000000) scale(0.100000,-0.100000)"
fill="#000000" stroke="none">
<path fill="#000000" stroke="none" d="M10 484 c0 -14 5 -34 11 -45 8 -16 7
-25 -4 -37 -14 -15 -13 -23 9 -77 14 -33 31 -87 39 -120 8 -33 26 -94 40 -135
l25 -75 -4 70 c-2 39 3 121 11 184 8 63 12 125 9 137 -3 12 -26 45 -52 73 -51
57 -84 67 -84 25z"/>
</g>
</svg>
