<?xml version="1.0" standalone="no"?>
<!DOCTYPE svg PUBLIC "-//W3C//DTD SVG 20010904//EN"
 "http://www.w3.org/TR/2001/REC-SVG-20010904/DTD/svg10.dtd">
<svg version="1.0" xmlns="http://www.w3.org/2000/svg"
 width="77.000000pt" height="227.000000pt" viewBox="0 0 77.000000 227.000000"
 preserveAspectRatio="xMidYMid meet">
<metadata>
Created by potrace 1.14, written by Peter Selinger 2001-2017
</metadata>
<g transform="translate(0.000000,227.000000) scale(0.100000,-0.100000)"
fill="#000000" stroke="none">
<path fill="#000000" stroke="none" d="M278 2245 c-43 -23 -47 -29 -54 -71 -3
-25 -3 -83 2 -127 l9 -82 -42 -93 c-45 -97 -50 -121 -33 -138 7 -7 -15 -72
-71 -205 l-81 -194 6 -120 c9 -162 15 -189 46 -190 78 -4 73 1 66 -64 l-7 -59
93 -22 c51 -12 96 -25 100 -29 4 -3 33 -106 66 -227 l58 -222 -80 -49 c-78
-48 -82 -49 -116 -37 -52 19 -53 18 -47 -37 4 -35 14 -58 29 -73 13 -11 37
-56 53 -100 34 -88 39 -92 130 -97 l60 -4 54 145 c58 158 59 162 81 515 13
207 26 310 51 394 12 39 19 94 19 145 0 80 37 253 73 339 9 20 18 88 22 160
l8 125 -34 47 c-19 26 -70 79 -114 117 -78 68 -80 71 -100 145 l-21 76 -74 28
c-91 34 -94 34 -152 4z"/>
<path fill="#000000" stroke="none" d="M17 916 c-10 -14 -13 -26 -8 -26 13 0
33 28 29 41 -2 6 -12 0 -21 -15z"/>
</g>
</svg>
