<?xml version="1.0" standalone="no"?>
<!DOCTYPE svg PUBLIC "-//W3C//DTD SVG 20010904//EN"
 "http://www.w3.org/TR/2001/REC-SVG-20010904/DTD/svg10.dtd">
<svg version="1.0" xmlns="http://www.w3.org/2000/svg"
 width="100.000000pt" height="378.000000pt" viewBox="0 0 100.000000 378.000000"
 preserveAspectRatio="xMidYMid meet">
<metadata>
Created by potrace 1.14, written by Peter Selinger 2001-2017
</metadata>
<g transform="translate(0.000000,378.000000) scale(0.100000,-0.100000)"
fill="#000000" stroke="none">
<path fill="#000000" stroke="none" d="M655 3743 c-60 -18 -113 -37 -116 -41
-4 -4 -29 -65 -55 -135 -42 -117 -46 -134 -41 -190 l6 -62 -122 -92 -122 -92
-65 -123 c-62 -120 -65 -128 -100 -308 l-36 -185 78 -235 78 -235 10 -320 c5
-176 10 -433 10 -571 0 -138 3 -306 7 -372 l6 -122 28 0 c26 0 28 2 22 30 l-6
30 49 0 c88 0 87 -1 149 151 66 161 124 408 174 744 l29 194 50 58 50 58 22
200 22 200 -51 159 -51 159 7 103 c6 97 9 108 43 166 l38 62 -15 49 c-8 27
-18 59 -22 70 -6 17 5 48 49 132 32 61 68 142 81 181 21 68 24 72 80 107 l59
37 0 54 0 54 -118 59 -118 59 -109 -33z"/>
<path fill="#000000" stroke="none" d="M430 454 c-47 -7 -87 -13 -89 -13 -2
-1 -1 -67 2 -148 4 -145 23 -285 36 -265 4 6 45 3 116 -9 61 -10 118 -19 127
-19 11 0 33 27 59 71 l42 70 -20 27 c-10 15 -29 41 -42 58 -16 22 -24 52 -30
109 -7 72 -9 79 -42 106 -38 32 -39 32 -159 13z"/>
</g>
</svg>
