<?xml version="1.0" standalone="no"?>
<!DOCTYPE svg PUBLIC "-//W3C//DTD SVG 20010904//EN"
 "http://www.w3.org/TR/2001/REC-SVG-20010904/DTD/svg10.dtd">
<svg version="1.0" xmlns="http://www.w3.org/2000/svg"
 width="49.000000pt" height="177.000000pt" viewBox="0 0 49.000000 177.000000"
 preserveAspectRatio="xMidYMid meet">
<metadata>
Created by potrace 1.14, written by Peter Selinger 2001-2017
</metadata>
<g transform="translate(0.000000,177.000000) scale(0.100000,-0.100000)"
fill="#000000" stroke="none">
<path fill="#000000" stroke="none" d="M239 1743 c-7 -18 -8 -61 -4 -115 l6
-87 -28 -15 c-41 -21 -73 -109 -80 -218 l-6 -88 29 -1 c16 0 86 -6 156 -13
l127 -12 24 55 24 55 -34 72 c-18 40 -33 79 -33 86 0 7 16 53 35 102 l35 89
-32 58 -33 59 -88 0 c-86 0 -88 0 -98 -27z"/>
<path fill="#000000" stroke="none" d="M48 1303 c-14 -38 -21 -70 -16 -72 5
-1 12 -1 15 3 8 7 35 127 30 132 -2 3 -15 -26 -29 -63z"/>
<path fill="#000000" stroke="none" d="M198 1133 c-16 -3 -28 -11 -28 -19 0
-26 37 -88 74 -123 20 -19 36 -39 36 -44 0 -4 -13 -28 -29 -51 -28 -40 -35
-44 -103 -59 l-73 -16 -29 27 c-28 26 -27 25 12 -53 l40 -80 -48 -142 -49
-142 32 -6 c18 -3 75 -5 127 -3 l95 3 27 50 c58 105 70 164 73 362 3 166 5
185 24 212 12 16 21 43 21 60 l0 31 -87 -1 c-49 -1 -100 -4 -115 -6z"/>
<path fill="#000000" stroke="none" d="M0 1088 c0 -47 3 -47 25 5 15 36 14 37
-5 37 -17 0 -20 -7 -20 -42z"/>
<path fill="#000000" stroke="none" d="M6 344 c-3 -9 -6 -64 -6 -123 l0 -107
38 -36 c34 -34 46 -39 145 -56 121 -22 117 -27 40 61 l-42 48 18 52 c10 29 20
80 23 115 l4 62 -107 0 c-88 0 -108 -3 -113 -16z"/>
</g>
</svg>
