<?xml version="1.0" standalone="no"?>
<!DOCTYPE svg PUBLIC "-//W3C//DTD SVG 20010904//EN"
 "http://www.w3.org/TR/2001/REC-SVG-20010904/DTD/svg10.dtd">
<svg version="1.0" xmlns="http://www.w3.org/2000/svg"
 width="24.000000pt" height="83.000000pt" viewBox="0 0 24.000000 83.000000"
 preserveAspectRatio="xMidYMid meet">
<metadata>
Created by potrace 1.14, written by Peter Selinger 2001-2017
</metadata>
<g transform="translate(0.000000,83.000000) scale(0.100000,-0.100000)"
fill="#000000" stroke="none">
<path fill="#000000" stroke="none" d="M58 820 c-14 -9 -15 -16 -6 -48 5 -20
16 -44 24 -53 19 -21 18 -32 -9 -61 -51 -55 -74 -250 -56 -486 7 -86 13 -158
13 -159 1 0 22 -4 48 -8 l48 -7 -16 43 c-8 24 -22 82 -30 129 -14 79 -14 85 2
97 34 25 43 16 38 -34 -5 -36 0 -62 16 -103 12 -30 26 -65 31 -77 7 -20 11
-21 41 -11 18 6 34 11 34 12 10 7 -24 125 -55 195 l-40 89 30 89 c37 110 35
149 -22 366 -9 33 -13 37 -42 37 -18 0 -40 -5 -49 -10z"/>
</g>
</svg>
