<?xml version="1.0" standalone="no"?>
<!DOCTYPE svg PUBLIC "-//W3C//DTD SVG 20010904//EN"
 "http://www.w3.org/TR/2001/REC-SVG-20010904/DTD/svg10.dtd">
<svg version="1.0" xmlns="http://www.w3.org/2000/svg"
 width="77.000000pt" height="265.000000pt" viewBox="0 0 77.000000 265.000000"
 preserveAspectRatio="xMidYMid meet">
<metadata>
Created by potrace 1.14, written by Peter Selinger 2001-2017
</metadata>
<g transform="translate(0.000000,265.000000) scale(0.100000,-0.100000)"
fill="#000000" stroke="none">
<path fill="#000000" stroke="none" d="M231 2643 l-94 -4 39 -29 39 -29 202
-1 203 0 -6 -77 c-4 -57 -32 -170 -101 -408 -88 -301 -107 -356 -221 -620
-142 -331 -140 -327 -119 -300 14 18 15 14 23 -60 5 -59 3 -107 -10 -185 -22
-136 -106 -510 -150 -670 l-34 -125 41 -35 c23 -19 57 -49 76 -66 l34 -31 96
43 96 43 201 491 201 492 7 467 c3 256 9 611 12 789 l7 322 -224 -2 c-123 -1
-266 -4 -318 -5z"/>
</g>
</svg>
