<?xml version="1.0" standalone="no"?>
<!DOCTYPE svg PUBLIC "-//W3C//DTD SVG 20010904//EN"
 "http://www.w3.org/TR/2001/REC-SVG-20010904/DTD/svg10.dtd">
<svg version="1.0" xmlns="http://www.w3.org/2000/svg"
 width="81.000000pt" height="262.000000pt" viewBox="0 0 81.000000 262.000000"
 preserveAspectRatio="xMidYMid meet">
<metadata>
Created by potrace 1.14, written by Peter Selinger 2001-2017
</metadata>
<g transform="translate(0.000000,262.000000) scale(0.100000,-0.100000)"
fill="#000000" stroke="none">
<path fill="#000000" stroke="none" d="M215 2613 c-16 -2 -46 -11 -67 -19 -34
-15 -37 -20 -43 -73 -9 -75 19 -238 46 -267 37 -39 26 -58 -66 -110 l-86 -49
3 -278 2 -279 26 89 25 88 3 -48 c2 -36 -5 -73 -28 -135 l-32 -87 7 -340 7
-340 39 -52 38 -51 30 -233 29 -232 -21 -30 c-12 -16 -46 -41 -74 -56 l-53
-26 26 -43 26 -43 76 70 c42 38 108 101 146 140 l70 70 -13 295 -12 296 51
127 c29 71 69 160 91 199 47 88 79 225 79 341 0 46 4 83 8 83 20 0 101 -229
121 -342 16 -95 25 -124 48 -153 l28 -34 33 31 c30 30 32 36 26 78 -3 25 -15
70 -24 100 -10 30 -21 87 -24 125 -16 186 -16 185 -41 185 -46 0 -72 18 -89
62 -17 41 -17 43 1 57 18 15 18 19 -9 190 l-28 176 -37 32 c-21 17 -60 47 -88
66 l-50 34 -11 120 c-15 162 -24 185 -88 233 -29 22 -57 39 -62 39 -5 -1 -22
-4 -39 -6z"/>
</g>
</svg>
