<?xml version="1.0" standalone="no"?>
<!DOCTYPE svg PUBLIC "-//W3C//DTD SVG 20010904//EN"
 "http://www.w3.org/TR/2001/REC-SVG-20010904/DTD/svg10.dtd">
<svg version="1.0" xmlns="http://www.w3.org/2000/svg"
 width="36.000000pt" height="128.000000pt" viewBox="0 0 36.000000 128.000000"
 preserveAspectRatio="xMidYMid meet">
<metadata>
Created by potrace 1.14, written by Peter Selinger 2001-2017
</metadata>
<g transform="translate(0.000000,128.000000) scale(0.100000,-0.100000)"
fill="#000000" stroke="none">
<path fill="#000000" stroke="none" d="M57 1259 c-26 -20 -57 -67 -57 -88 0
-5 13 -12 28 -16 16 -3 45 -23 64 -43 31 -32 39 -50 57 -137 12 -56 21 -103
21 -107 0 -3 -15 -9 -32 -12 -60 -12 -63 -18 -29 -73 36 -58 38 -89 13 -188
-18 -69 -18 -73 5 -260 13 -104 26 -220 29 -256 5 -66 6 -67 37 -72 18 -3 62
-2 100 1 l67 5 -23 31 c-23 29 -25 47 -42 301 -14 201 -16 295 -9 366 7 72 6
104 -3 125 -7 16 -12 54 -13 84 0 39 -7 65 -22 90 -18 28 -24 56 -28 142 -4
59 -8 110 -11 112 -2 2 -31 7 -64 11 -52 5 -64 3 -88 -16z"/>
</g>
</svg>
