<?xml version="1.0" standalone="no"?>
<!DOCTYPE svg PUBLIC "-//W3C//DTD SVG 20010904//EN"
 "http://www.w3.org/TR/2001/REC-SVG-20010904/DTD/svg10.dtd">
<svg version="1.0" xmlns="http://www.w3.org/2000/svg"
 width="19.000000pt" height="55.000000pt" viewBox="0 0 19.000000 55.000000"
 preserveAspectRatio="xMidYMid meet">
<metadata>
Created by potrace 1.14, written by Peter Selinger 2001-2017
</metadata>
<g transform="translate(0.000000,55.000000) scale(0.100000,-0.100000)"
fill="#000000" stroke="none">
<path fill="#000000" stroke="none" d="M85 530 c-10 -11 -13 -20 -7 -20 22 0
12 -41 -17 -68 -16 -15 -33 -36 -39 -47 -15 -31 -25 -172 -13 -180 7 -4 14 6
17 25 12 58 19 38 16 -43 -2 -45 1 -107 5 -137 7 -49 11 -55 35 -57 16 -1 33
7 46 20 29 32 55 132 46 176 -4 20 -6 55 -5 79 3 43 -5 52 -27 30 -9 -9 -12
-5 -12 21 0 20 12 50 31 77 20 30 28 51 24 64 -4 11 -10 20 -15 20 -5 0 -10
12 -12 28 -4 35 -45 43 -73 12z"/>
</g>
</svg>
