<?xml version="1.0" standalone="no"?>
<!DOCTYPE svg PUBLIC "-//W3C//DTD SVG 20010904//EN"
 "http://www.w3.org/TR/2001/REC-SVG-20010904/DTD/svg10.dtd">
<svg version="1.0" xmlns="http://www.w3.org/2000/svg"
 width="39.000000pt" height="127.000000pt" viewBox="0 0 39.000000 127.000000"
 preserveAspectRatio="xMidYMid meet">
<metadata>
Created by potrace 1.14, written by Peter Selinger 2001-2017
</metadata>
<g transform="translate(0.000000,127.000000) scale(0.100000,-0.100000)"
fill="#000000" stroke="none">
<path fill="#000000" stroke="none" d="M138 1239 c-64 -33 -65 -34 -49 -147 7
-51 6 -54 -21 -76 -22 -17 -30 -33 -34 -71 l-6 -50 129 -73 c70 -40 143 -84
162 -98 19 -13 38 -21 42 -17 4 5 12 32 18 62 11 50 9 61 -21 153 -31 94 -35
101 -86 140 -52 41 -53 42 -47 82 4 23 8 48 11 56 2 8 -6 27 -19 42 l-22 27
-57 -30z"/>
<path fill="#000000" stroke="none" d="M24 706 c16 -22 33 -66 45 -123 11 -48
27 -115 35 -148 12 -43 16 -109 16 -247 l0 -188 40 0 c22 0 40 3 40 8 1 4 5
27 10 52 5 25 14 103 20 175 10 132 29 247 56 344 17 59 7 79 -29 59 -27 -14
-61 -3 -158 53 -48 27 -90 49 -94 49 -4 0 4 -15 19 -34z"/>
</g>
</svg>
