<?xml version="1.0" standalone="no"?>
<!DOCTYPE svg PUBLIC "-//W3C//DTD SVG 20010904//EN"
 "http://www.w3.org/TR/2001/REC-SVG-20010904/DTD/svg10.dtd">
<svg version="1.0" xmlns="http://www.w3.org/2000/svg"
 width="7.000000pt" height="22.000000pt" viewBox="0 0 7.000000 22.000000"
 preserveAspectRatio="xMidYMid meet">
<metadata>
Created by potrace 1.14, written by Peter Selinger 2001-2017
</metadata>
<g transform="translate(0.000000,22.000000) scale(0.100000,-0.100000)"
fill="#000000" stroke="none">
<path fill="#000000" stroke="none" d="M9 193 c-7 -19 -7 -40 0 -70 6 -23 11
-60 11 -82 0 -34 3 -41 20 -41 11 0 20 5 20 10 0 6 -4 10 -10 10 -5 0 -10 9
-10 20 0 11 7 20 15 20 17 0 20 23 5 50 -5 10 -11 39 -12 64 -2 53 -22 63 -39
19z"/>
</g>
</svg>
