<?xml version="1.0" standalone="no"?>
<!DOCTYPE svg PUBLIC "-//W3C//DTD SVG 20010904//EN"
 "http://www.w3.org/TR/2001/REC-SVG-20010904/DTD/svg10.dtd">
<svg version="1.0" xmlns="http://www.w3.org/2000/svg"
 width="14.000000pt" height="40.000000pt" viewBox="0 0 14.000000 40.000000"
 preserveAspectRatio="xMidYMid meet">
<metadata>
Created by potrace 1.14, written by Peter Selinger 2001-2017
</metadata>
<g transform="translate(0.000000,40.000000) scale(0.100000,-0.100000)"
fill="#000000" stroke="none">
<path fill="#000000" stroke="none" d="M15 352 c-8 -44 -8 -119 -2 -274 l2
-66 43 -7 c50 -7 63 -2 34 16 -16 10 -18 17 -10 48 12 45 13 62 4 82 -7 16 10
40 41 57 20 12 9 49 -18 57 -10 4 -19 14 -19 23 0 41 -21 89 -44 100 -23 10
-24 8 -31 -36z"/>
</g>
</svg>
