<?xml version="1.0" standalone="no"?>
<!DOCTYPE svg PUBLIC "-//W3C//DTD SVG 20010904//EN"
 "http://www.w3.org/TR/2001/REC-SVG-20010904/DTD/svg10.dtd">
<svg version="1.0" xmlns="http://www.w3.org/2000/svg"
 width="23.000000pt" height="67.000000pt" viewBox="0 0 23.000000 67.000000"
 preserveAspectRatio="xMidYMid meet">
<metadata>
Created by potrace 1.14, written by Peter Selinger 2001-2017
</metadata>
<g transform="translate(0.000000,67.000000) scale(0.100000,-0.100000)"
fill="#000000" stroke="none">
<path fill="#000000" stroke="none" d="M86 606 c-9 -36 -16 -75 -16 -87 0 -13
-9 -42 -21 -65 -15 -31 -25 -41 -36 -37 -13 5 -11 -3 8 -38 13 -24 29 -50 36
-57 18 -19 26 -91 22 -209 l-4 -108 38 -3 c50 -4 70 14 98 87 19 49 20 69 15
160 -3 58 -10 107 -14 110 -22 15 -23 139 -1 125 5 -3 9 28 9 69 l0 75 -42 15
c-24 8 -50 18 -59 21 -13 6 -19 -5 -33 -58z"/>
</g>
</svg>
