<?xml version="1.0" standalone="no"?>
<!DOCTYPE svg PUBLIC "-//W3C//DTD SVG 20010904//EN"
 "http://www.w3.org/TR/2001/REC-SVG-20010904/DTD/svg10.dtd">
<svg version="1.0" xmlns="http://www.w3.org/2000/svg"
 width="94.000000pt" height="363.000000pt" viewBox="0 0 94.000000 363.000000"
 preserveAspectRatio="xMidYMid meet">
<metadata>
Created by potrace 1.14, written by Peter Selinger 2001-2017
</metadata>
<g transform="translate(0.000000,363.000000) scale(0.100000,-0.100000)"
fill="#000000" stroke="none">
<path fill="#000000" stroke="none" d="M658 3608 c-48 -41 -60 -148 -16 -148
11 0 49 -8 84 -17 54 -14 64 -21 62 -37 -4 -26 -20 -32 -116 -45 -101 -13
-140 -33 -148 -78 -7 -39 14 -195 27 -204 6 -3 -25 -21 -68 -40 -43 -18 -83
-39 -90 -45 -6 -6 -27 -41 -46 -77 -20 -36 -57 -98 -85 -139 -32 -47 -79 -147
-135 -283 l-85 -210 -19 -228 -19 -227 27 -260 c26 -245 30 -269 77 -422 41
-133 55 -199 76 -363 15 -110 38 -263 52 -340 26 -140 27 -186 7 -346 l-5 -46
106 -26 c58 -15 108 -27 111 -27 3 0 5 15 5 33 0 25 -13 47 -59 98 l-58 67 -7
104 c-10 157 7 221 101 389 l76 136 102 33 101 33 -28 236 c-15 130 -27 282
-28 339 l0 102 63 0 63 0 75 67 76 68 -64 52 c-36 29 -67 53 -71 53 -3 0 -20
-13 -37 -30 l-31 -30 -44 45 -43 44 -48 293 c-26 161 -50 305 -53 319 l-5 26
52 -9 52 -8 35 41 c20 22 55 83 78 134 40 87 42 100 48 211 l7 119 -102 50
c-56 27 -97 51 -91 53 18 6 93 -24 151 -61 l56 -36 5 -64 c6 -65 32 -126 42
-96 19 55 27 328 17 572 -1 18 -13 41 -32 60 -18 17 -38 50 -46 73 -16 47 -66
100 -103 109 -18 4 -33 -1 -52 -17z"/>
</g>
</svg>
