<?xml version="1.0" standalone="no"?>
<!DOCTYPE svg PUBLIC "-//W3C//DTD SVG 20010904//EN"
 "http://www.w3.org/TR/2001/REC-SVG-20010904/DTD/svg10.dtd">
<svg version="1.0" xmlns="http://www.w3.org/2000/svg"
 width="49.000000pt" height="147.000000pt" viewBox="0 0 49.000000 147.000000"
 preserveAspectRatio="xMidYMid meet">
<metadata>
Created by potrace 1.14, written by Peter Selinger 2001-2017
</metadata>
<g transform="translate(0.000000,147.000000) scale(0.100000,-0.100000)"
fill="#000000" stroke="none">
<path fill="#000000" stroke="none" d="M218 1450 c-20 -15 -27 -31 -31 -72 -2
-29 -1 -61 4 -70 14 -27 -9 -63 -62 -96 -38 -25 -49 -39 -69 -91 -13 -34 -22
-74 -21 -89 1 -15 4 -99 7 -187 3 -88 9 -164 14 -169 5 -5 6 -59 3 -121 l-6
-112 31 -22 c29 -20 30 -24 20 -53 -7 -20 -9 -72 -4 -145 7 -128 4 -134 -72
-168 -18 -8 -31 -19 -28 -23 3 -5 38 -12 78 -16 40 -4 81 -9 91 -12 11 -4 17
0 17 12 0 15 8 16 71 10 l70 -7 -6 58 c-5 43 -2 79 14 140 12 45 21 107 21
137 0 51 3 58 25 68 25 11 26 14 19 67 -4 31 -8 103 -8 161 -1 88 4 121 28
205 16 55 38 110 49 122 19 22 19 22 -11 105 -29 82 -30 83 -93 120 -70 41
-85 68 -61 106 8 13 18 41 22 64 7 37 5 44 -20 70 -33 33 -58 35 -92 8z"/>
</g>
</svg>
