<?xml version="1.0" standalone="no"?>
<!DOCTYPE svg PUBLIC "-//W3C//DTD SVG 20010904//EN"
 "http://www.w3.org/TR/2001/REC-SVG-20010904/DTD/svg10.dtd">
<svg version="1.0" xmlns="http://www.w3.org/2000/svg"
 width="30.000000pt" height="113.000000pt" viewBox="0 0 30.000000 113.000000"
 preserveAspectRatio="xMidYMid meet">
<metadata>
Created by potrace 1.14, written by Peter Selinger 2001-2017
</metadata>
<g transform="translate(0.000000,113.000000) scale(0.100000,-0.100000)"
fill="#000000" stroke="none">
<path fill="#000000" stroke="none" d="M103 1113 c-28 -19 -31 -84 -9 -138 21
-50 4 -100 -50 -152 -24 -24 -44 -51 -44 -61 0 -10 17 -27 44 -41 l44 -24 -14
-48 c-14 -45 -13 -53 22 -175 42 -154 52 -208 53 -291 1 -62 1 -63 -40 -93
l-41 -29 29 -8 c15 -4 37 -7 48 -7 13 -1 21 -9 23 -23 4 -27 10 -28 79 -6 l53
17 -6 135 c-6 120 -10 144 -37 209 l-31 74 27 81 c19 61 28 113 33 202 7 119
6 122 -30 239 -20 66 -37 120 -39 121 -12 11 -69 35 -79 34 -7 0 -23 -7 -35
-16z"/>
</g>
</svg>
