<?xml version="1.0" standalone="no"?>
<!DOCTYPE svg PUBLIC "-//W3C//DTD SVG 20010904//EN"
 "http://www.w3.org/TR/2001/REC-SVG-20010904/DTD/svg10.dtd">
<svg version="1.0" xmlns="http://www.w3.org/2000/svg"
 width="33.000000pt" height="107.000000pt" viewBox="0 0 33.000000 107.000000"
 preserveAspectRatio="xMidYMid meet">
<metadata>
Created by potrace 1.14, written by Peter Selinger 2001-2017
</metadata>
<g transform="translate(0.000000,107.000000) scale(0.100000,-0.100000)"
fill="#000000" stroke="none">
<path fill="#000000" stroke="none" d="M222 1058 c-7 -7 -12 -19 -12 -28 0 -9
-5 -21 -10 -26 -6 -6 -11 -32 -12 -57 -1 -52 0 -51 -45 -38 -26 8 -37 5 -67
-15 -70 -48 -97 -150 -31 -114 22 12 28 12 41 -2 14 -13 13 -20 -5 -69 -12
-30 -21 -57 -21 -61 0 -5 15 -8 33 -8 42 0 77 -35 77 -76 0 -47 19 -102 38
-108 9 -3 28 -23 42 -43 24 -35 25 -45 31 -222 3 -102 7 -187 7 -188 1 -2 7
-3 12 -3 6 0 10 64 10 173 0 94 4 188 10 206 8 28 5 47 -14 101 -37 103 -45
163 -36 278 6 77 12 106 24 115 11 8 18 34 22 85 4 61 2 77 -12 93 -19 21 -64
25 -82 7z"/>
</g>
</svg>
