<?xml version="1.0" standalone="no"?>
<!DOCTYPE svg PUBLIC "-//W3C//DTD SVG 20010904//EN"
 "http://www.w3.org/TR/2001/REC-SVG-20010904/DTD/svg10.dtd">
<svg version="1.0" xmlns="http://www.w3.org/2000/svg"
 width="40.000000pt" height="125.000000pt" viewBox="0 0 40.000000 125.000000"
 preserveAspectRatio="xMidYMid meet">
<metadata>
Created by potrace 1.14, written by Peter Selinger 2001-2017
</metadata>
<g transform="translate(0.000000,125.000000) scale(0.100000,-0.100000)"
fill="#000000" stroke="none">
<path fill="#000000" stroke="none" d="M135 1232 l-50 -17 -8 -70 c-4 -38 -20
-119 -36 -180 -40 -151 -49 -359 -18 -420 15 -30 56 -236 57 -286 0 -3 18 -27
40 -52 26 -29 38 -51 34 -61 -3 -9 -9 -16 -13 -16 -3 0 -19 -11 -35 -23 l-29
-24 23 -41 c13 -23 31 -42 39 -42 9 0 62 7 119 17 120 20 111 1 83 191 -20
135 -16 194 29 406 34 167 24 336 -25 401 -15 19 -30 33 -33 30 -14 -14 -32
22 -32 65 0 79 -10 109 -41 125 -35 18 -42 18 -104 -3z"/>
</g>
</svg>
