<?xml version="1.0" standalone="no"?>
<!DOCTYPE svg PUBLIC "-//W3C//DTD SVG 20010904//EN"
 "http://www.w3.org/TR/2001/REC-SVG-20010904/DTD/svg10.dtd">
<svg version="1.0" xmlns="http://www.w3.org/2000/svg"
 width="12.000000pt" height="43.000000pt" viewBox="0 0 12.000000 43.000000"
 preserveAspectRatio="xMidYMid meet">
<metadata>
Created by potrace 1.14, written by Peter Selinger 2001-2017
</metadata>
<g transform="translate(0.000000,43.000000) scale(0.100000,-0.100000)"
fill="#000000" stroke="none">
<path fill="#000000" stroke="none" d="M21 396 c-19 -30 -21 -48 -21 -182 1
-122 4 -155 18 -182 l18 -32 32 33 c23 23 32 42 32 63 -1 16 3 47 9 69 8 33 6
53 -11 113 -19 64 -20 76 -7 98 12 23 11 27 -6 40 -29 21 -41 17 -64 -20z"/>
</g>
</svg>
