<?xml version="1.0" standalone="no"?>
<!DOCTYPE svg PUBLIC "-//W3C//DTD SVG 20010904//EN"
 "http://www.w3.org/TR/2001/REC-SVG-20010904/DTD/svg10.dtd">
<svg version="1.0" xmlns="http://www.w3.org/2000/svg"
 width="14.000000pt" height="44.000000pt" viewBox="0 0 14.000000 44.000000"
 preserveAspectRatio="xMidYMid meet">
<metadata>
Created by potrace 1.14, written by Peter Selinger 2001-2017
</metadata>
<g transform="translate(0.000000,44.000000) scale(0.100000,-0.100000)"
fill="#000000" stroke="none">
<path fill="#000000" stroke="none" d="M60 426 c-6 -8 -15 -39 -20 -68 -4 -29
-15 -87 -24 -130 l-17 -76 55 -78 c31 -42 56 -70 56 -62 0 8 7 65 15 128 11
84 12 123 4 152 -7 29 -7 43 1 53 9 11 9 23 0 49 -14 45 -46 59 -70 32z"/>
</g>
</svg>
