<?xml version="1.0" standalone="no"?>
<!DOCTYPE svg PUBLIC "-//W3C//DTD SVG 20010904//EN"
 "http://www.w3.org/TR/2001/REC-SVG-20010904/DTD/svg10.dtd">
<svg version="1.0" xmlns="http://www.w3.org/2000/svg"
 width="23.000000pt" height="73.000000pt" viewBox="0 0 23.000000 73.000000"
 preserveAspectRatio="xMidYMid meet">
<metadata>
Created by potrace 1.14, written by Peter Selinger 2001-2017
</metadata>
<g transform="translate(0.000000,73.000000) scale(0.100000,-0.100000)"
fill="#000000" stroke="none">
<path fill="#000000" stroke="none" d="M182 666 c-22 -35 -63 -90 -89 -122
-62 -74 -80 -120 -57 -145 14 -15 13 -19 -10 -42 -21 -21 -24 -32 -20 -64 14
-95 25 -116 97 -191 40 -41 84 -80 100 -88 l27 -15 0 366 c0 201 -2 365 -4
365 -2 0 -22 -29 -44 -64z"/>
</g>
</svg>
