<?xml version="1.0" standalone="no"?>
<!DOCTYPE svg PUBLIC "-//W3C//DTD SVG 20010904//EN"
 "http://www.w3.org/TR/2001/REC-SVG-20010904/DTD/svg10.dtd">
<svg version="1.0" xmlns="http://www.w3.org/2000/svg"
 width="18.000000pt" height="52.000000pt" viewBox="0 0 18.000000 52.000000"
 preserveAspectRatio="xMidYMid meet">
<metadata>
Created by potrace 1.14, written by Peter Selinger 2001-2017
</metadata>
<g transform="translate(0.000000,52.000000) scale(0.100000,-0.100000)"
fill="#000000" stroke="none">
<path fill="#000000" stroke="none" d="M89 506 c-13 -6 -25 -22 -27 -35 -2
-13 -9 -21 -16 -18 -17 7 -32 -4 -40 -28 -4 -15 8 -44 39 -95 48 -81 53 -105
30 -150 -13 -25 -15 -66 -6 -168 1 -9 8 -11 24 -6 12 3 23 7 24 8 1 0 -2 21
-7 46 -7 38 -5 48 11 63 10 10 19 31 19 46 0 16 9 49 20 74 21 48 21 45 -16
243 -5 28 -25 35 -55 20z"/>
</g>
</svg>
