<?xml version="1.0" standalone="no"?>
<!DOCTYPE svg PUBLIC "-//W3C//DTD SVG 20010904//EN"
 "http://www.w3.org/TR/2001/REC-SVG-20010904/DTD/svg10.dtd">
<svg version="1.0" xmlns="http://www.w3.org/2000/svg"
 width="122.000000pt" height="420.000000pt" viewBox="0 0 122.000000 420.000000"
 preserveAspectRatio="xMidYMid meet">
<metadata>
Created by potrace 1.14, written by Peter Selinger 2001-2017
</metadata>
<g transform="translate(0.000000,420.000000) scale(0.100000,-0.100000)"
fill="#000000" stroke="none">
<path fill="#000000" stroke="none" d="M507 4185 c-274 -7 -500 -15 -504 -18
-3 -3 0 -106 7 -229 11 -204 16 -246 66 -493 43 -210 63 -341 89 -590 l35
-320 87 -83 c165 -155 218 -198 311 -246 88 -45 93 -49 88 -74 -3 -15 -25
-126 -47 -247 -44 -230 -49 -320 -33 -532 l6 -83 59 0 c42 0 61 -4 65 -14 3
-8 -23 -288 -58 -623 l-64 -608 100 -6 c56 -4 192 -10 304 -14 l202 -7 0 2101
0 2101 -107 -1 c-60 -1 -332 -7 -606 -14z"/>
</g>
</svg>
