<?xml version="1.0" standalone="no"?>
<!DOCTYPE svg PUBLIC "-//W3C//DTD SVG 20010904//EN"
 "http://www.w3.org/TR/2001/REC-SVG-20010904/DTD/svg10.dtd">
<svg version="1.0" xmlns="http://www.w3.org/2000/svg"
 width="81.000000pt" height="235.000000pt" viewBox="0 0 81.000000 235.000000"
 preserveAspectRatio="xMidYMid meet">
<metadata>
Created by potrace 1.14, written by Peter Selinger 2001-2017
</metadata>
<g transform="translate(0.000000,235.000000) scale(0.100000,-0.100000)"
fill="#000000" stroke="none">
<path fill="#000000" stroke="none" d="M192 2336 c-49 -16 -75 -43 -103 -106
-22 -48 -22 -51 -20 -275 1 -152 -8 -222 -29 -235 -17 -11 -39 -204 -40 -342
0 -146 17 -191 87 -228 40 -21 44 -27 38 -49 -4 -14 -10 -57 -14 -96 -5 -38
-14 -89 -21 -112 -11 -37 -11 -46 10 -87 21 -44 22 -54 15 -182 -8 -150 -7
-154 51 -154 l32 0 25 -138 c16 -84 25 -171 25 -225 -1 -48 4 -93 9 -98 7 -7
46 -8 112 -4 l101 8 1 76 c0 42 4 99 9 126 7 48 7 48 9 12 0 -21 12 -58 26
-82 14 -23 28 -66 32 -94 l6 -51 103 0 c78 0 104 3 104 13 0 52 -24 185 -40
223 -25 57 -26 144 -4 239 25 104 30 115 58 115 14 0 28 5 31 10 9 14 -23 12
-107 -6 -40 -9 -111 -16 -158 -15 l-85 1 -68 72 c-122 130 -138 166 -157 338
-5 55 -2 77 19 140 13 41 48 154 76 250 l51 175 -148 106 -147 106 55 12 c45
10 58 10 72 -1 15 -11 168 -137 213 -175 15 -12 20 -8 47 41 27 46 33 72 43
168 6 62 12 114 13 115 1 1 18 -3 38 -9 l35 -11 7 -81 c3 -44 6 -108 6 -142 0
-58 3 -65 56 -140 31 -43 61 -83 66 -89 12 -11 3 230 -12 349 -7 57 -14 74
-39 100 -25 24 -38 30 -70 29 -22 -1 -44 3 -48 10 -11 14 -33 88 -33 110 0 33
-133 237 -172 263 -45 32 -107 39 -166 20z"/>
</g>
</svg>
