<?xml version="1.0" standalone="no"?>
<!DOCTYPE svg PUBLIC "-//W3C//DTD SVG 20010904//EN"
 "http://www.w3.org/TR/2001/REC-SVG-20010904/DTD/svg10.dtd">
<svg version="1.0" xmlns="http://www.w3.org/2000/svg"
 width="29.000000pt" height="91.000000pt" viewBox="0 0 29.000000 91.000000"
 preserveAspectRatio="xMidYMid meet">
<metadata>
Created by potrace 1.14, written by Peter Selinger 2001-2017
</metadata>
<g transform="translate(0.000000,91.000000) scale(0.100000,-0.100000)"
fill="#000000" stroke="none">
<path fill="#000000" stroke="none" d="M1 879 c-1 -21 5 -42 14 -49 19 -16 19
0 0 50 l-13 35 -1 -36z"/>
<path fill="#000000" stroke="none" d="M166 345 c3 -40 11 -73 18 -77 7 -4 13
-29 14 -57 1 -39 8 -61 31 -95 17 -25 31 -53 31 -63 0 -10 8 -27 16 -38 l16
-20 -6 20 c-49 172 -80 273 -100 330 l-25 70 5 -70z"/>
</g>
</svg>
