<?xml version="1.0" standalone="no"?>
<!DOCTYPE svg PUBLIC "-//W3C//DTD SVG 20010904//EN"
 "http://www.w3.org/TR/2001/REC-SVG-20010904/DTD/svg10.dtd">
<svg version="1.0" xmlns="http://www.w3.org/2000/svg"
 width="18.000000pt" height="55.000000pt" viewBox="0 0 18.000000 55.000000"
 preserveAspectRatio="xMidYMid meet">
<metadata>
Created by potrace 1.14, written by Peter Selinger 2001-2017
</metadata>
<g transform="translate(0.000000,55.000000) scale(0.100000,-0.100000)"
fill="#000000" stroke="none">
<path fill="#000000" stroke="none" d="M74 496 c6 -43 4 -56 -6 -56 -7 0 -19
-4 -27 -9 -19 -12 -41 -157 -41 -273 l0 -98 59 -30 c33 -16 62 -26 64 -22 2 4
14 49 27 100 16 68 19 96 11 106 -11 12 -10 21 14 196 3 27 0 63 -8 90 -14 43
-16 45 -57 48 l-42 3 6 -55z"/>
</g>
</svg>
