<?xml version="1.0" standalone="no"?>
<!DOCTYPE svg PUBLIC "-//W3C//DTD SVG 20010904//EN"
 "http://www.w3.org/TR/2001/REC-SVG-20010904/DTD/svg10.dtd">
<svg version="1.0" xmlns="http://www.w3.org/2000/svg"
 width="32.000000pt" height="110.000000pt" viewBox="0 0 32.000000 110.000000"
 preserveAspectRatio="xMidYMid meet">
<metadata>
Created by potrace 1.14, written by Peter Selinger 2001-2017
</metadata>
<g transform="translate(0.000000,110.000000) scale(0.100000,-0.100000)"
fill="#000000" stroke="none">
<path fill="#000000" stroke="none" d="M76 1028 c-7 -61 -11 -74 -38 -98 l-30
-27 -5 -154 -6 -154 34 -65 c30 -60 33 -74 37 -178 3 -76 -1 -145 -13 -213
-16 -95 -16 -102 1 -120 14 -16 31 -19 93 -19 105 0 121 6 121 41 0 25 -4 29
-28 29 l-27 0 7 111 c5 80 12 122 28 153 l21 44 -20 73 c-12 41 -21 88 -21
104 0 64 13 185 19 185 4 0 18 -11 31 -25 20 -21 25 -23 32 -11 6 11 -12 46
-59 117 -63 94 -67 105 -70 161 -2 67 -10 80 -64 102 l-36 15 -7 -71z"/>
</g>
</svg>
