<?xml version="1.0" standalone="no"?>
<!DOCTYPE svg PUBLIC "-//W3C//DTD SVG 20010904//EN"
 "http://www.w3.org/TR/2001/REC-SVG-20010904/DTD/svg10.dtd">
<svg version="1.0" xmlns="http://www.w3.org/2000/svg"
 width="175.000000pt" height="525.000000pt" viewBox="0 0 175.000000 525.000000"
 preserveAspectRatio="xMidYMid meet">
<metadata>
Created by potrace 1.14, written by Peter Selinger 2001-2017
</metadata>
<g transform="translate(0.000000,525.000000) scale(0.100000,-0.100000)"
fill="#000000" stroke="none">
<path fill="#000000" stroke="none" d="M690 5138 l-120 -112 0 -276 0 -276
-183 -83 -184 -82 -102 -272 -101 -272 0 -762 0 -762 101 -273 100 -273 -6
-545 -6 -545 40 -264 c22 -145 42 -265 44 -268 9 -8 442 -71 448 -64 3 3 19
36 34 74 15 37 33 67 39 67 6 0 111 -14 234 -32 l223 -31 179 48 c99 27 180
52 180 55 -1 9 -148 120 -159 120 -7 0 -60 -41 -119 -92 -105 -90 -107 -91
-110 -63 -2 15 -12 37 -23 48 -23 25 -23 25 1 62 11 17 20 42 20 56 0 14 24
152 54 305 35 181 62 353 76 489 l21 210 -84 795 c-46 437 -83 796 -82 797 1
2 39 -81 85 -185 153 -343 171 -379 180 -357 6 16 11 9 25 -37 10 -32 22 -58
25 -58 12 0 29 142 20 166 -8 21 -7 24 14 24 18 0 32 -13 57 -55 18 -30 37
-55 41 -55 6 0 78 41 95 54 1 1 -83 218 -187 481 -105 264 -187 482 -182 486
4 4 41 21 82 39 41 18 78 35 82 39 10 9 -138 709 -154 729 -7 9 -69 80 -138
156 l-125 140 -5 344 -5 345 -135 38 c-74 21 -143 39 -152 39 -10 0 -72 -50
-138 -112z"/>
</g>
</svg>
