<?xml version="1.0" standalone="no"?>
<!DOCTYPE svg PUBLIC "-//W3C//DTD SVG 20010904//EN"
 "http://www.w3.org/TR/2001/REC-SVG-20010904/DTD/svg10.dtd">
<svg version="1.0" xmlns="http://www.w3.org/2000/svg"
 width="44.000000pt" height="128.000000pt" viewBox="0 0 44.000000 128.000000"
 preserveAspectRatio="xMidYMid meet">
<metadata>
Created by potrace 1.14, written by Peter Selinger 2001-2017
</metadata>
<g transform="translate(0.000000,128.000000) scale(0.100000,-0.100000)"
fill="#000000" stroke="none">
<path fill="#000000" stroke="none" d="M17 1273 c-2 -5 -7 -20 -11 -36 -11
-46 15 -79 82 -106 82 -32 148 -100 167 -170 16 -60 22 -54 -96 -86 l-66 -17
84 -210 c46 -116 85 -220 88 -232 4 -15 -10 -39 -54 -88 l-59 -67 16 -62 15
-62 102 7 101 7 15 -75 c11 -61 17 -74 28 -67 12 8 9 31 -22 148 -20 76 -44
196 -52 267 -14 113 -14 130 -1 145 13 14 11 27 -15 116 -26 88 -28 101 -14
111 11 8 15 29 15 80 -1 99 -31 164 -97 209 -58 39 -63 48 -63 115 0 40 -4 50
-25 64 -25 16 -130 23 -138 9z"/>
</g>
</svg>
