<?xml version="1.0" standalone="no"?>
<!DOCTYPE svg PUBLIC "-//W3C//DTD SVG 20010904//EN"
 "http://www.w3.org/TR/2001/REC-SVG-20010904/DTD/svg10.dtd">
<svg version="1.0" xmlns="http://www.w3.org/2000/svg"
 width="67.000000pt" height="196.000000pt" viewBox="0 0 67.000000 196.000000"
 preserveAspectRatio="xMidYMid meet">
<metadata>
Created by potrace 1.14, written by Peter Selinger 2001-2017
</metadata>
<g transform="translate(0.000000,196.000000) scale(0.100000,-0.100000)"
fill="#000000" stroke="none">
<path fill="#000000" stroke="none" d="M279 1908 c-25 -29 -50 -60 -56 -69
-10 -12 -4 -45 31 -166 l44 -151 -20 -57 c-21 -56 -22 -57 -112 -102 -50 -25
-103 -57 -118 -71 -26 -23 -28 -32 -28 -98 l0 -72 88 -7 c80 -6 91 -5 125 15
l38 23 30 -29 c39 -37 38 -64 -11 -244 l-41 -149 42 -241 c23 -132 39 -243 37
-246 -3 -2 -59 -26 -124 -52 -65 -26 -118 -51 -117 -57 1 -5 19 -15 40 -21
l38 -12 -57 -1 c-50 -1 -59 -4 -83 -32 -14 -17 -24 -33 -22 -35 2 -2 54 -11
116 -20 91 -12 134 -13 229 -5 64 6 139 16 167 23 l50 13 23 204 24 203 -60
62 c-52 53 -61 69 -75 126 l-16 65 103 165 104 164 -64 43 c-38 26 -66 52 -69
66 -28 125 -32 103 49 265 l74 148 -47 55 -47 54 7 100 c6 78 4 111 -7 148
l-16 47 -113 0 -113 0 -43 -52z"/>
</g>
</svg>
