<?xml version="1.0" standalone="no"?>
<!DOCTYPE svg PUBLIC "-//W3C//DTD SVG 20010904//EN"
 "http://www.w3.org/TR/2001/REC-SVG-20010904/DTD/svg10.dtd">
<svg version="1.0" xmlns="http://www.w3.org/2000/svg"
 width="45.000000pt" height="157.000000pt" viewBox="0 0 45.000000 157.000000"
 preserveAspectRatio="xMidYMid meet">
<metadata>
Created by potrace 1.14, written by Peter Selinger 2001-2017
</metadata>
<g transform="translate(0.000000,157.000000) scale(0.100000,-0.100000)"
fill="#000000" stroke="none">
<path fill="#000000" stroke="none" d="M75 1554 c-11 -8 -26 -19 -33 -23 -10
-6 -7 -28 17 -103 33 -101 36 -118 22 -118 -5 0 -24 -7 -44 -15 l-35 -14 63
-98 c59 -93 80 -118 143 -176 15 -13 63 -91 107 -173 l80 -149 10 80 c11 79
10 81 -22 150 -25 54 -32 79 -27 102 6 29 8 31 32 22 39 -15 49 -6 56 51 6 44
4 56 -12 74 -11 11 -34 50 -53 85 -31 58 -39 66 -96 92 l-63 28 0 54 c0 101
-5 112 -64 130 -63 20 -56 20 -81 1z"/>
<path fill="#000000" stroke="none" d="M85 394 c8 -126 -7 -248 -36 -306 -18
-36 -26 -88 -12 -88 3 0 35 17 70 37 53 31 63 41 59 59 -13 49 -17 194 -8 254
l10 65 -45 45 -45 45 7 -111z"/>
</g>
</svg>
