<?xml version="1.0" standalone="no"?>
<!DOCTYPE svg PUBLIC "-//W3C//DTD SVG 20010904//EN"
 "http://www.w3.org/TR/2001/REC-SVG-20010904/DTD/svg10.dtd">
<svg version="1.0" xmlns="http://www.w3.org/2000/svg"
 width="80.000000pt" height="233.000000pt" viewBox="0 0 80.000000 233.000000"
 preserveAspectRatio="xMidYMid meet">
<metadata>
Created by potrace 1.14, written by Peter Selinger 2001-2017
</metadata>
<g transform="translate(0.000000,233.000000) scale(0.100000,-0.100000)"
fill="#000000" stroke="none">
<path fill="#000000" stroke="none" d="M58 2262 c-15 -37 -30 -76 -34 -86 -5
-14 16 -3 69 35 125 88 127 88 97 54 -13 -17 -43 -50 -66 -75 -41 -44 -42 -47
-54 -150 -10 -80 -11 -229 -5 -615 4 -280 10 -568 14 -640 7 -126 5 -138 -36
-360 -38 -200 -43 -241 -37 -312 l6 -81 37 -10 c24 -5 46 -5 62 1 13 5 39 12
57 16 l33 6 -28 37 c-15 20 -44 46 -64 57 l-37 21 15 68 c9 37 24 90 35 117
11 28 26 95 35 149 11 78 19 103 36 117 12 10 25 18 30 19 4 0 7 -82 7 -182 0
-160 -7 -256 -25 -335 -4 -17 7 -31 54 -67 59 -46 60 -46 138 -46 108 0 115 8
46 56 -36 25 -74 64 -105 109 l-48 70 29 135 c50 234 97 616 107 877 l7 172
-26 41 c-15 22 -27 42 -27 45 0 4 18 33 40 66 l41 59 127 1 c70 0 147 4 172 8
36 7 21 9 -70 10 l-115 1 -105 63 -105 63 0 95 c1 52 2 168 4 259 2 91 0 173
-4 183 -6 15 -23 17 -144 17 l-136 0 -27 -68z"/>
</g>
</svg>
