<?xml version="1.0" standalone="no"?>
<!DOCTYPE svg PUBLIC "-//W3C//DTD SVG 20010904//EN"
 "http://www.w3.org/TR/2001/REC-SVG-20010904/DTD/svg10.dtd">
<svg version="1.0" xmlns="http://www.w3.org/2000/svg"
 width="108.000000pt" height="373.000000pt" viewBox="0 0 108.000000 373.000000"
 preserveAspectRatio="xMidYMid meet">
<metadata>
Created by potrace 1.14, written by Peter Selinger 2001-2017
</metadata>
<g transform="translate(0.000000,373.000000) scale(0.100000,-0.100000)"
fill="#000000" stroke="none">
<path fill="#000000" stroke="none" d="M111 3584 c-28 -80 -51 -147 -51 -150
0 -2 41 -67 91 -145 50 -78 87 -145 82 -149 -4 -4 -43 -32 -85 -63 -63 -46
-78 -62 -82 -89 -3 -18 -19 -131 -36 -250 l-30 -217 65 -558 64 -558 156 -547
c85 -302 155 -556 155 -566 0 -10 -26 -76 -59 -147 l-58 -130 375 -7 c207 -4
378 -6 380 -3 6 5 -153 1494 -205 1920 l-36 300 72 165 72 165 -3 160 -3 160
-70 131 -69 131 -138 79 c-109 63 -136 83 -132 97 6 19 44 282 41 282 -1 0
-34 30 -74 68 l-71 67 -150 0 -150 0 -51 -146z"/>
<path fill="#ffffff" stroke="none" d="M619 2961 c20 -16 47 -51 59 -78 13
-26 30 -61 39 -78 50 -92 58 -114 61 -176 2 -37 0 -75 -5 -84 -6 -10 -96 -52
-202 -95 l-191 -79 -49 21 -49 20 -6 56 c-3 32 -8 116 -12 187 l-6 131 62 69
c35 39 66 74 70 78 6 7 72 27 189 56 2 1 20 -12 40 -28z"/>
<path fill="#ffffff" stroke="none" d="M813 2383 c-3 -10 -35 -78 -69 -152
l-64 -133 55 -370 c30 -203 55 -373 55 -377 0 -10 -77 -41 -84 -33 -3 3 -6 54
-6 114 0 78 -11 177 -41 361 -43 268 -46 318 -26 410 12 55 15 60 97 127 47
38 86 70 87 70 1 0 0 -8 -4 -17z"/>
<path fill="#ffffff" stroke="none" d="M650 2299 c-12 -22 -30 -79 -40 -126
l-19 -86 40 -311 c21 -171 39 -316 39 -323 0 -14 -77 -40 -87 -29 -4 4 -24
185 -44 404 -27 290 -34 399 -25 404 6 3 43 29 81 57 39 27 71 50 73 50 1 1
-7 -17 -18 -40z"/>
</g>
</svg>
