<?xml version="1.0" standalone="no"?>
<!DOCTYPE svg PUBLIC "-//W3C//DTD SVG 20010904//EN"
 "http://www.w3.org/TR/2001/REC-SVG-20010904/DTD/svg10.dtd">
<svg version="1.0" xmlns="http://www.w3.org/2000/svg"
 width="97.000000pt" height="346.000000pt" viewBox="0 0 97.000000 346.000000"
 preserveAspectRatio="xMidYMid meet">
<metadata>
Created by potrace 1.14, written by Peter Selinger 2001-2017
</metadata>
<g transform="translate(0.000000,346.000000) scale(0.100000,-0.100000)"
fill="#000000" stroke="none">
<path fill="#000000" stroke="none" d="M225 3451 c-38 -5 -64 -17 -107 -50
-59 -44 -66 -58 -112 -225 -1 -5 19 -84 45 -175 25 -91 45 -168 42 -170 -2 -3
-22 -7 -45 -10 l-42 -6 2 -410 c2 -225 7 -806 12 -1290 5 -484 10 -928 10
-987 l0 -108 83 0 c45 0 180 -5 299 -12 120 -6 220 -10 222 -7 2 2 19 231 36
509 l31 505 40 125 c22 71 58 158 82 201 l44 76 -83 -33 c-46 -19 -90 -34 -98
-34 -18 0 -104 95 -118 130 -5 14 -16 72 -23 130 -24 178 -37 232 -57 227 -37
-10 -48 33 -48 193 l0 150 -71 177 c-39 98 -81 212 -92 253 -20 72 -74 174
-124 234 l-25 30 27 14 c25 13 29 12 51 -10 12 -12 68 -110 123 -217 73 -140
101 -203 101 -229 0 -40 121 -444 149 -501 11 -20 24 -55 30 -77 7 -26 21 -48
37 -59 26 -17 28 -16 68 6 61 34 125 89 142 122 14 27 17 28 37 14 17 -11 21
-23 19 -48 -1 -20 10 -68 27 -114 17 -44 30 -75 31 -68 0 6 -23 149 -50 318
-93 571 -141 703 -315 870 l-93 90 -68 225 c-37 124 -71 231 -77 238 -10 12
-56 14 -142 3z"/>
</g>
</svg>
