<?xml version="1.0" standalone="no"?>
<!DOCTYPE svg PUBLIC "-//W3C//DTD SVG 20010904//EN"
 "http://www.w3.org/TR/2001/REC-SVG-20010904/DTD/svg10.dtd">
<svg version="1.0" xmlns="http://www.w3.org/2000/svg"
 width="28.000000pt" height="100.000000pt" viewBox="0 0 28.000000 100.000000"
 preserveAspectRatio="xMidYMid meet">
<metadata>
Created by potrace 1.14, written by Peter Selinger 2001-2017
</metadata>
<g transform="translate(0.000000,100.000000) scale(0.100000,-0.100000)"
fill="#000000" stroke="none">
<path fill="#000000" stroke="none" d="M58 969 c-38 -24 -49 -38 -54 -66 -4
-20 -2 -50 5 -68 14 -39 14 -120 1 -145 -8 -14 -5 -28 11 -55 19 -32 20 -40
10 -73 -10 -30 -10 -51 0 -102 9 -40 14 -137 14 -249 l0 -184 25 -7 c14 -4 46
-10 73 -13 46 -6 48 -5 67 25 19 32 19 32 -2 55 -27 29 -35 134 -19 241 19
117 19 117 43 95 20 -17 20 -17 15 2 -11 38 -29 210 -25 245 2 28 8 36 26 38
50 7 33 62 -19 62 -38 0 -46 18 -51 118 -3 45 -9 87 -14 92 -23 22 -60 18
-106 -11z"/>
</g>
</svg>
