<?xml version="1.0" standalone="no"?>
<!DOCTYPE svg PUBLIC "-//W3C//DTD SVG 20010904//EN"
 "http://www.w3.org/TR/2001/REC-SVG-20010904/DTD/svg10.dtd">
<svg version="1.0" xmlns="http://www.w3.org/2000/svg"
 width="30.000000pt" height="108.000000pt" viewBox="0 0 30.000000 108.000000"
 preserveAspectRatio="xMidYMid meet">
<metadata>
Created by potrace 1.14, written by Peter Selinger 2001-2017
</metadata>
<g transform="translate(0.000000,108.000000) scale(0.100000,-0.100000)"
fill="#000000" stroke="none">
<path fill="#000000" stroke="none" d="M37 984 l-37 -96 16 -156 c8 -86 17
-163 19 -169 3 -8 23 -13 53 -13 58 0 85 -22 76 -60 -23 -99 -24 -100 -53
-100 -27 0 -30 -3 -35 -47 -11 -84 -9 -127 8 -168 11 -25 15 -52 11 -72 -3
-18 -3 -49 1 -68 l6 -35 79 0 c91 0 88 -4 63 99 -15 57 -15 83 -5 201 6 75 11
162 11 193 0 54 1 57 25 57 32 0 33 24 2 70 -20 30 -25 57 -36 185 -6 83 -14
178 -18 213 l-6 62 -72 0 -72 0 -36 -96z"/>
</g>
</svg>
