<?xml version="1.0" standalone="no"?>
<!DOCTYPE svg PUBLIC "-//W3C//DTD SVG 20010904//EN"
 "http://www.w3.org/TR/2001/REC-SVG-20010904/DTD/svg10.dtd">
<svg version="1.0" xmlns="http://www.w3.org/2000/svg"
 width="22.000000pt" height="64.000000pt" viewBox="0 0 22.000000 64.000000"
 preserveAspectRatio="xMidYMid meet">
<metadata>
Created by potrace 1.14, written by Peter Selinger 2001-2017
</metadata>
<g transform="translate(0.000000,64.000000) scale(0.100000,-0.100000)"
fill="#000000" stroke="none">
<path fill="#000000" stroke="none" d="M115 598 c-4 -23 -16 -74 -28 -111 -17
-55 -28 -72 -54 -88 -28 -17 -33 -26 -33 -57 2 -172 45 -271 137 -316 l53 -26
0 40 c0 22 -7 103 -16 181 l-16 140 31 50 c17 28 31 54 31 59 0 5 -22 45 -49
90 l-49 82 -7 -44z"/>
</g>
</svg>
