<?xml version="1.0" standalone="no"?>
<!DOCTYPE svg PUBLIC "-//W3C//DTD SVG 20010904//EN"
 "http://www.w3.org/TR/2001/REC-SVG-20010904/DTD/svg10.dtd">
<svg version="1.0" xmlns="http://www.w3.org/2000/svg"
 width="48.000000pt" height="165.000000pt" viewBox="0 0 48.000000 165.000000"
 preserveAspectRatio="xMidYMid meet">
<metadata>
Created by potrace 1.14, written by Peter Selinger 2001-2017
</metadata>
<g transform="translate(0.000000,165.000000) scale(0.100000,-0.100000)"
fill="#000000" stroke="none">
<path fill="#000000" stroke="none" d="M181 1604 c-28 -62 -26 -82 13 -175 6
-13 -4 -18 -52 -29 -69 -14 -69 -14 -103 -60 -24 -32 -26 -45 -33 -177 l-7
-143 29 0 c29 0 30 -1 47 -92 26 -142 64 -520 64 -638 1 -97 -6 -149 -24 -191
-5 -13 4 -21 42 -35 26 -10 62 -28 79 -41 21 -16 45 -23 73 -23 l42 0 -7 58
c-10 78 -9 93 16 289 15 122 32 208 60 299 l39 127 -40 99 -39 99 45 137 c24
75 47 162 51 192 l6 55 -71 18 -71 19 -1 51 c0 29 -10 86 -23 127 l-22 75 -46
3 -47 3 -20 -47z"/>
</g>
</svg>
