<?xml version="1.0" standalone="no"?>
<!DOCTYPE svg PUBLIC "-//W3C//DTD SVG 20010904//EN"
 "http://www.w3.org/TR/2001/REC-SVG-20010904/DTD/svg10.dtd">
<svg version="1.0" xmlns="http://www.w3.org/2000/svg"
 width="39.000000pt" height="116.000000pt" viewBox="0 0 39.000000 116.000000"
 preserveAspectRatio="xMidYMid meet">
<metadata>
Created by potrace 1.14, written by Peter Selinger 2001-2017
</metadata>
<g transform="translate(0.000000,116.000000) scale(0.100000,-0.100000)"
fill="#000000" stroke="none">
<path fill="#000000" stroke="none" d="M244 1142 c-12 -10 -31 -47 -43 -82
-20 -62 -24 -67 -79 -97 -54 -30 -59 -35 -79 -95 -35 -101 -43 -201 -43 -504
l0 -285 39 -42 c44 -47 61 -44 42 8 -7 19 -10 39 -7 43 3 5 8 58 11 117 5 115
22 225 35 225 4 0 10 10 13 22 9 34 -18 68 -53 68 -36 0 -61 33 -53 72 7 37
61 69 105 62 31 -6 37 -1 98 70 36 42 67 81 68 86 2 6 13 10 25 10 12 0 32 3
44 6 l22 6 -20 17 c-21 16 -21 21 -10 101 19 141 18 144 -39 179 -28 17 -51
31 -53 31 -1 -1 -11 -9 -23 -18z"/>
</g>
</svg>
