<?xml version="1.0" standalone="no"?>
<!DOCTYPE svg PUBLIC "-//W3C//DTD SVG 20010904//EN"
 "http://www.w3.org/TR/2001/REC-SVG-20010904/DTD/svg10.dtd">
<svg version="1.0" xmlns="http://www.w3.org/2000/svg"
 width="19.000000pt" height="71.000000pt" viewBox="0 0 19.000000 71.000000"
 preserveAspectRatio="xMidYMid meet">
<metadata>
Created by potrace 1.14, written by Peter Selinger 2001-2017
</metadata>
<g transform="translate(0.000000,71.000000) scale(0.100000,-0.100000)"
fill="#000000" stroke="none">
<path fill="#000000" stroke="none" d="M68 683 c-14 -16 -28 -36 -31 -45 -4
-10 -13 -18 -22 -18 -18 0 -19 8 6 -75 13 -45 22 -113 26 -190 5 -108 3 -130
-21 -218 -21 -80 -24 -101 -13 -117 6 -11 15 -20 18 -20 14 0 27 26 34 65 11
57 19 65 25 26 6 -41 73 -102 91 -84 8 8 4 16 -15 28 -22 15 -26 25 -26 64 0
25 6 80 14 121 9 49 12 98 7 140 -3 37 -2 89 4 120 9 47 8 64 -10 120 -23 72
-42 110 -53 110 -5 0 -20 -12 -34 -27z"/>
</g>
</svg>
