<?xml version="1.0" standalone="no"?>
<!DOCTYPE svg PUBLIC "-//W3C//DTD SVG 20010904//EN"
 "http://www.w3.org/TR/2001/REC-SVG-20010904/DTD/svg10.dtd">
<svg version="1.0" xmlns="http://www.w3.org/2000/svg"
 width="13.000000pt" height="51.000000pt" viewBox="0 0 13.000000 51.000000"
 preserveAspectRatio="xMidYMid meet">
<metadata>
Created by potrace 1.14, written by Peter Selinger 2001-2017
</metadata>
<g transform="translate(0.000000,51.000000) scale(0.100000,-0.100000)"
fill="#000000" stroke="none">
<path fill="#000000" stroke="none" d="M28 493 c-8 -102 -3 -150 20 -192 l25
-43 -37 -69 c-34 -62 -37 -75 -31 -117 8 -61 17 -76 42 -68 22 7 33 57 33 150
0 32 10 77 25 116 29 73 32 122 9 141 -11 9 -14 22 -9 45 4 26 2 35 -14 43
-30 17 -61 13 -63 -6z"/>
</g>
</svg>
