<?xml version="1.0" standalone="no"?>
<!DOCTYPE svg PUBLIC "-//W3C//DTD SVG 20010904//EN"
 "http://www.w3.org/TR/2001/REC-SVG-20010904/DTD/svg10.dtd">
<svg version="1.0" xmlns="http://www.w3.org/2000/svg"
 width="63.000000pt" height="190.000000pt" viewBox="0 0 63.000000 190.000000"
 preserveAspectRatio="xMidYMid meet">
<metadata>
Created by potrace 1.14, written by Peter Selinger 2001-2017
</metadata>
<g transform="translate(0.000000,190.000000) scale(0.100000,-0.100000)"
fill="#000000" stroke="none">
<path fill="#000000" stroke="none" d="M203 1890 c-12 -5 -27 -19 -34 -32 -7
-13 -16 -26 -21 -29 -6 -4 -3 -22 6 -44 9 -20 16 -50 16 -65 0 -38 -40 -83
-92 -104 -24 -9 -52 -28 -62 -43 l-20 -27 29 -20 c83 -59 120 -104 149 -180
17 -44 52 -108 86 -153 36 -49 84 -135 127 -228 l69 -150 -14 -110 c-13 -98
-12 -123 3 -230 9 -66 22 -168 28 -227 10 -104 10 -108 -13 -151 -23 -43 -23
-46 -7 -71 18 -27 33 -30 101 -18 36 7 41 11 56 57 15 45 16 55 2 100 -8 28
-16 53 -18 57 -3 4 -6 44 -8 88 -2 78 -2 80 21 80 l23 0 0 177 c0 172 -1 178
-23 202 -13 15 -38 68 -56 120 l-32 94 35 71 35 71 -9 115 c-5 63 -12 125 -16
138 -4 13 -2 22 4 22 30 0 42 33 42 111 0 75 -2 83 -31 118 -26 34 -112 86
-170 104 -9 3 -22 25 -28 50 -13 45 -35 68 -98 100 -36 19 -48 20 -80 7z"/>
<path fill="#ffffff" stroke="none" d="M300 1744 c15 -39 13 -84 -5 -84 -8 0
-15 7 -15 15 0 9 -9 15 -25 15 -22 0 -25 4 -25 34 0 34 8 41 48 45 7 0 17 -11
22 -25z"/>
</g>
</svg>
