<?xml version="1.0" standalone="no"?>
<!DOCTYPE svg PUBLIC "-//W3C//DTD SVG 20010904//EN"
 "http://www.w3.org/TR/2001/REC-SVG-20010904/DTD/svg10.dtd">
<svg version="1.0" xmlns="http://www.w3.org/2000/svg"
 width="74.000000pt" height="263.000000pt" viewBox="0 0 74.000000 263.000000"
 preserveAspectRatio="xMidYMid meet">
<metadata>
Created by potrace 1.14, written by Peter Selinger 2001-2017
</metadata>
<g transform="translate(0.000000,263.000000) scale(0.100000,-0.100000)"
fill="#000000" stroke="none">
<path fill="#000000" stroke="none" d="M4 2613 c2 -10 7 -135 10 -278 4 -143
14 -485 22 -760 l17 -500 167 -395 167 -395 174 -144 c146 -120 175 -140 177
-123 2 11 -40 191 -93 399 l-97 378 7 187 c4 104 10 188 13 188 4 0 26 -7 49
-16 24 -9 46 -15 48 -12 3 3 20 77 37 166 l32 160 -130 217 -130 217 19 107
c20 103 20 109 3 211 -23 135 -46 199 -101 271 -25 32 -47 70 -51 84 -3 14 -9
25 -13 25 -3 0 -69 7 -146 15 -185 19 -187 19 -181 -2z"/>
</g>
</svg>
