<?xml version="1.0" standalone="no"?>
<!DOCTYPE svg PUBLIC "-//W3C//DTD SVG 20010904//EN"
 "http://www.w3.org/TR/2001/REC-SVG-20010904/DTD/svg10.dtd">
<svg version="1.0" xmlns="http://www.w3.org/2000/svg"
 width="33.000000pt" height="120.000000pt" viewBox="0 0 33.000000 120.000000"
 preserveAspectRatio="xMidYMid meet">
<metadata>
Created by potrace 1.14, written by Peter Selinger 2001-2017
</metadata>
<g transform="translate(0.000000,120.000000) scale(0.100000,-0.100000)"
fill="#000000" stroke="none">
<path fill="#000000" stroke="none" d="M105 1168 c-19 -96 -37 -137 -66 -147
-37 -13 -43 -28 -26 -74 l13 -38 18 51 c17 48 34 60 44 30 3 -9 -1 -11 -11 -7
-13 5 -18 -2 -22 -31 -4 -20 -9 -49 -11 -64 -5 -26 7 -88 28 -140 7 -20 18
-28 34 -28 15 0 24 -6 24 -15 0 -9 11 -37 25 -64 l24 -48 -32 -16 c-18 -8 -44
-20 -58 -25 l-26 -10 -6 -219 c-3 -120 -5 -240 -4 -268 2 -50 2 -50 37 -53
l36 -3 19 203 20 203 5 -155 c4 -106 11 -168 21 -195 15 -37 19 -40 55 -40 30
0 38 3 34 15 -9 31 -1 305 15 474 17 184 12 246 -21 246 -19 0 -19 1 17 62 47
79 48 108 7 154 -45 50 -58 76 -58 113 0 17 -8 38 -17 46 -56 48 -92 75 -101
75 -6 0 -13 -15 -17 -32z"/>
</g>
</svg>
