<?xml version="1.0" standalone="no"?>
<!DOCTYPE svg PUBLIC "-//W3C//DTD SVG 20010904//EN"
 "http://www.w3.org/TR/2001/REC-SVG-20010904/DTD/svg10.dtd">
<svg version="1.0" xmlns="http://www.w3.org/2000/svg"
 width="11.000000pt" height="32.000000pt" viewBox="0 0 11.000000 32.000000"
 preserveAspectRatio="xMidYMid meet">
<metadata>
Created by potrace 1.14, written by Peter Selinger 2001-2017
</metadata>
<g transform="translate(0.000000,32.000000) scale(0.100000,-0.100000)"
fill="#000000" stroke="none">
<path fill="#000000" stroke="none" d="M43 298 c4 -15 -1 -28 -18 -44 -26 -24
-33 -74 -19 -144 7 -31 9 -32 45 -27 22 3 39 1 39 -4 0 -5 -6 -9 -14 -9 -21 0
-4 -54 17 -58 15 -3 17 10 17 126 0 106 -3 131 -15 136 -8 3 -15 15 -15 26 0
14 -7 20 -21 20 -17 0 -20 -4 -16 -22z"/>
<path fill="#000000" stroke="none" d="M17 53 c-4 -3 -7 -17 -7 -30 0 -18 5
-23 25 -23 21 0 25 5 25 30 0 22 -5 30 -18 30 -10 0 -22 -3 -25 -7z"/>
</g>
</svg>
