<?xml version="1.0" standalone="no"?>
<!DOCTYPE svg PUBLIC "-//W3C//DTD SVG 20010904//EN"
 "http://www.w3.org/TR/2001/REC-SVG-20010904/DTD/svg10.dtd">
<svg version="1.0" xmlns="http://www.w3.org/2000/svg"
 width="113.000000pt" height="400.000000pt" viewBox="0 0 113.000000 400.000000"
 preserveAspectRatio="xMidYMid meet">
<metadata>
Created by potrace 1.14, written by Peter Selinger 2001-2017
</metadata>
<g transform="translate(0.000000,400.000000) scale(0.100000,-0.100000)"
fill="#000000" stroke="none">
<path fill="#000000" stroke="none" d="M256 3981 c-9 -10 -68 -34 -131 -52
l-115 -34 0 -1436 c0 -790 -3 -1652 -7 -1917 l-6 -482 100 0 100 0 6 56 c3 30
15 71 26 90 34 58 27 118 -22 172 -21 22 -21 23 -4 190 10 92 26 228 37 302
11 74 24 198 28 275 8 121 12 147 35 190 l25 50 13 -30 c21 -51 23 -213 3
-302 -14 -62 -18 -138 -21 -368 -3 -256 -6 -295 -23 -335 -10 -25 -30 -92 -45
-149 -26 -102 -26 -105 -9 -152 10 -26 21 -46 24 -44 4 3 98 9 210 14 189 9
204 11 226 32 35 33 30 55 -19 83 -23 14 -56 39 -72 56 -27 28 -28 32 -17 67
10 33 9 41 -6 63 -10 14 -33 32 -51 42 -18 9 -35 18 -38 21 -7 7 81 255 112
316 35 71 65 234 65 362 0 136 49 395 80 420 11 9 32 27 48 40 15 14 48 51 72
84 54 74 60 107 60 362 1 220 -27 794 -40 843 -21 77 -19 80 68 80 93 0 99 5
138 100 23 57 25 73 19 140 -8 89 -22 150 -35 150 -6 0 -10 12 -10 26 0 14
-19 111 -41 215 -55 248 -57 251 -217 313 -64 25 -146 53 -182 62 -81 22 -100
36 -78 61 37 43 37 43 -130 43 -143 0 -161 -2 -176 -19z"/>
</g>
</svg>
