<?xml version="1.0" standalone="no"?>
<!DOCTYPE svg PUBLIC "-//W3C//DTD SVG 20010904//EN"
 "http://www.w3.org/TR/2001/REC-SVG-20010904/DTD/svg10.dtd">
<svg version="1.0" xmlns="http://www.w3.org/2000/svg"
 width="110.000000pt" height="318.000000pt" viewBox="0 0 110.000000 318.000000"
 preserveAspectRatio="xMidYMid meet">
<metadata>
Created by potrace 1.14, written by Peter Selinger 2001-2017
</metadata>
<g transform="translate(0.000000,318.000000) scale(0.100000,-0.100000)"
fill="#000000" stroke="none">
<path fill="#000000" stroke="none" d="M350 3095 l-165 -84 -84 -121 c-75
-109 -82 -123 -69 -138 8 -9 95 -115 193 -235 l178 -219 67 -210 67 -210 -23
-74 c-13 -41 -24 -83 -24 -93 0 -13 -29 -32 -111 -70 -60 -28 -114 -51 -119
-51 -5 0 -46 16 -91 35 -46 19 -89 35 -97 35 -7 0 -23 7 -36 15 l-24 16 -7
-836 c-4 -460 -5 -838 -2 -841 8 -9 1097 -18 1097 -9 0 5 -28 95 -62 202 -38
118 -67 193 -74 193 -13 0 -22 27 -45 135 -7 33 -40 119 -75 191 l-62 132 21
186 c13 109 25 186 32 186 5 0 34 -14 64 -30 61 -34 62 -34 114 -19 l38 10 -6
52 c-4 29 -13 71 -21 94 -17 46 -20 48 -174 86 l-55 13 -7 205 -8 204 -76 175
c-42 96 -89 192 -105 214 -27 37 -27 39 -9 55 10 9 51 56 90 104 l71 88 -20
210 -19 210 -89 136 c-48 75 -92 138 -98 139 -5 2 -84 -35 -175 -81z"/>
</g>
</svg>
