<?xml version="1.0" standalone="no"?>
<!DOCTYPE svg PUBLIC "-//W3C//DTD SVG 20010904//EN"
 "http://www.w3.org/TR/2001/REC-SVG-20010904/DTD/svg10.dtd">
<svg version="1.0" xmlns="http://www.w3.org/2000/svg"
 width="65.000000pt" height="190.000000pt" viewBox="0 0 65.000000 190.000000"
 preserveAspectRatio="xMidYMid meet">
<metadata>
Created by potrace 1.14, written by Peter Selinger 2001-2017
</metadata>
<g transform="translate(0.000000,190.000000) scale(0.100000,-0.100000)"
fill="#000000" stroke="none">
<path fill="#000000" stroke="none" d="M36 1864 c-52 -48 -49 -84 6 -57 28 14
33 14 73 -9 28 -15 58 -44 83 -81 l38 -57 -8 -67 c-5 -38 -6 -92 -3 -122 5
-46 1 -62 -24 -115 -17 -33 -36 -94 -42 -134 -11 -65 -10 -80 5 -122 13 -36
15 -54 7 -68 -30 -56 -31 -107 -6 -207 14 -54 25 -116 25 -138 0 -22 7 -48 15
-57 17 -19 21 -72 10 -141 -6 -38 -1 -68 25 -155 25 -85 31 -120 26 -158 l-5
-49 67 -64 c49 -46 74 -63 95 -63 15 0 30 7 33 15 5 11 11 12 24 5 29 -15 67
-12 74 7 5 12 -9 33 -47 72 -80 82 -80 81 -62 223 9 68 18 130 21 138 3 8 5
49 5 91 -1 71 1 76 24 85 l25 9 -27 58 c-24 52 -25 62 -14 92 7 21 9 49 5 72
l-7 37 53 -42 c56 -45 74 -50 103 -28 13 10 16 21 11 40 -5 21 -12 26 -36 26
-23 0 -40 11 -70 42 l-39 43 5 80 c2 44 7 97 11 117 9 46 -9 106 -40 133 -12
11 -25 34 -28 51 -5 26 -2 33 24 48 28 17 30 21 24 59 -12 78 -25 109 -44 102
-9 -4 -34 -9 -57 -12 -41 -5 -41 -5 -47 33 -4 22 -7 49 -7 61 0 26 -46 96 -87
134 -34 32 -98 72 -145 92 -34 14 -36 14 -72 -19z"/>
</g>
</svg>
