<?xml version="1.0" standalone="no"?>
<!DOCTYPE svg PUBLIC "-//W3C//DTD SVG 20010904//EN"
 "http://www.w3.org/TR/2001/REC-SVG-20010904/DTD/svg10.dtd">
<svg version="1.0" xmlns="http://www.w3.org/2000/svg"
 width="44.000000pt" height="127.000000pt" viewBox="0 0 44.000000 127.000000"
 preserveAspectRatio="xMidYMid meet">
<metadata>
Created by potrace 1.14, written by Peter Selinger 2001-2017
</metadata>
<g transform="translate(0.000000,127.000000) scale(0.100000,-0.100000)"
fill="#000000" stroke="none">
<path fill="#000000" stroke="none" d="M205 1263 c-35 -5 -55 -27 -55 -61 0
-17 -24 -48 -75 -101 l-75 -78 6 -46 c6 -45 7 -46 70 -74 66 -28 70 -33 55
-62 -9 -17 -94 -482 -89 -486 2 -1 27 -10 55 -19 29 -10 55 -21 58 -26 4 -7
34 -266 35 -303 0 -13 154 4 162 17 4 6 8 36 8 67 0 93 9 120 42 131 29 10 30
12 22 57 -9 58 -6 256 6 381 5 52 10 155 10 229 l0 133 -33 32 c-19 17 -46 62
-62 99 -21 51 -38 75 -64 93 -20 13 -38 23 -41 23 -3 -1 -18 -4 -35 -6z"/>
</g>
</svg>
