<?xml version="1.0" standalone="no"?>
<!DOCTYPE svg PUBLIC "-//W3C//DTD SVG 20010904//EN"
 "http://www.w3.org/TR/2001/REC-SVG-20010904/DTD/svg10.dtd">
<svg version="1.0" xmlns="http://www.w3.org/2000/svg"
 width="41.000000pt" height="122.000000pt" viewBox="0 0 41.000000 122.000000"
 preserveAspectRatio="xMidYMid meet">
<metadata>
Created by potrace 1.14, written by Peter Selinger 2001-2017
</metadata>
<g transform="translate(0.000000,122.000000) scale(0.100000,-0.100000)"
fill="#000000" stroke="none">
<path fill="#000000" stroke="none" d="M157 1208 c-23 -17 -34 -107 -17 -138
10 -19 10 -25 0 -28 -6 -2 -27 -17 -45 -33 -28 -25 -33 -37 -39 -91 -3 -35
-17 -99 -31 -143 -28 -92 -32 -166 -10 -185 8 -7 15 -22 16 -34 1 -18 2 -18
13 7 7 15 15 24 19 21 11 -11 8 -64 -3 -64 -7 0 -7 -6 -1 -18 5 -10 7 -54 4
-99 -6 -80 -5 -82 25 -121 23 -29 33 -54 38 -95 9 -73 -6 -109 -50 -125 -18
-7 -41 -21 -51 -32 -17 -18 -16 -19 8 -25 24 -6 57 -5 214 11 l62 6 -6 47 c-4
34 1 70 17 124 19 65 22 92 18 201 -2 69 0 126 4 126 27 0 68 200 66 327 -1
82 -4 91 -32 130 -17 23 -42 45 -56 48 -14 3 -36 14 -49 24 -23 18 -24 22 -14
56 12 38 1 92 -21 107 -17 12 -60 9 -79 -4z"/>
</g>
</svg>
