<?xml version="1.0" standalone="no"?>
<!DOCTYPE svg PUBLIC "-//W3C//DTD SVG 20010904//EN"
 "http://www.w3.org/TR/2001/REC-SVG-20010904/DTD/svg10.dtd">
<svg version="1.0" xmlns="http://www.w3.org/2000/svg"
 width="78.000000pt" height="230.000000pt" viewBox="0 0 78.000000 230.000000"
 preserveAspectRatio="xMidYMid meet">
<metadata>
Created by potrace 1.14, written by Peter Selinger 2001-2017
</metadata>
<g transform="translate(0.000000,230.000000) scale(0.100000,-0.100000)"
fill="#000000" stroke="none">
<path fill="#000000" stroke="none" d="M266 2107 c-48 -106 -128 -268 -178
-362 l-91 -169 48 -326 c26 -179 65 -419 86 -533 l38 -208 -44 -102 c-39 -92
-42 -102 -27 -113 14 -10 18 -35 20 -137 l4 -124 96 -12 c53 -7 105 -14 114
-17 11 -3 52 26 120 88 l104 93 96 215 97 215 -63 195 -64 195 79 53 c44 29
79 55 79 58 0 3 -24 110 -54 237 -37 155 -69 265 -96 331 l-42 99 17 161 c9
89 15 183 13 210 -3 46 -5 50 -38 62 -19 6 -78 28 -131 47 l-97 36 -86 -192z"/>
</g>
</svg>
