<?xml version="1.0" standalone="no"?>
<!DOCTYPE svg PUBLIC "-//W3C//DTD SVG 20010904//EN"
 "http://www.w3.org/TR/2001/REC-SVG-20010904/DTD/svg10.dtd">
<svg version="1.0" xmlns="http://www.w3.org/2000/svg"
 width="24.000000pt" height="78.000000pt" viewBox="0 0 24.000000 78.000000"
 preserveAspectRatio="xMidYMid meet">
<metadata>
Created by potrace 1.14, written by Peter Selinger 2001-2017
</metadata>
<g transform="translate(0.000000,78.000000) scale(0.100000,-0.100000)"
fill="#000000" stroke="none">
<path fill="#000000" stroke="none" d="M50 762 l-45 -18 -3 -74 c-2 -40 1
-145 7 -232 l10 -159 41 -40 c45 -43 70 -92 70 -134 0 -39 17 -63 60 -85 l39
-20 6 33 c4 19 0 92 -9 163 -9 72 -16 161 -16 200 0 38 -4 74 -9 79 -5 6 -5
34 -1 65 5 30 9 83 9 116 1 71 -14 95 -68 113 -41 13 -36 14 -91 -7z"/>
</g>
</svg>
