<?xml version="1.0" standalone="no"?>
<!DOCTYPE svg PUBLIC "-//W3C//DTD SVG 20010904//EN"
 "http://www.w3.org/TR/2001/REC-SVG-20010904/DTD/svg10.dtd">
<svg version="1.0" xmlns="http://www.w3.org/2000/svg"
 width="53.000000pt" height="188.000000pt" viewBox="0 0 53.000000 188.000000"
 preserveAspectRatio="xMidYMid meet">
<metadata>
Created by potrace 1.14, written by Peter Selinger 2001-2017
</metadata>
<g transform="translate(0.000000,188.000000) scale(0.100000,-0.100000)"
fill="#000000" stroke="none">
<path fill="#000000" stroke="none" d="M244 1859 c-27 -10 -63 -32 -79 -49
l-29 -30 23 -48 c13 -27 22 -60 20 -73 -2 -14 9 -41 24 -64 l27 -41 -64 -143
c-62 -141 -64 -144 -115 -175 l-53 -31 7 -50 c11 -90 17 -114 31 -119 8 -3 14
1 14 9 0 8 23 26 51 40 l51 26 75 -15 c114 -24 125 -22 172 29 35 38 41 51 41
88 0 38 23 137 37 161 3 5 12 -2 19 -15 20 -36 17 -169 -6 -258 -34 -133 -41
-145 -106 -170 -48 -18 -69 -20 -128 -15 l-72 6 -18 -108 c-10 -62 -20 -190
-23 -295 l-6 -187 64 -8 64 -9 3 -47 c3 -46 2 -47 -52 -88 l-56 -42 0 -68 0
-68 138 5 c75 3 138 7 140 8 2 2 -3 55 -10 119 -13 112 -13 117 5 134 18 16
19 28 14 191 l-5 174 44 127 44 127 0 214 c0 179 -4 237 -24 354 l-24 140 -54
50 -55 50 9 55 9 55 -42 38 c-23 20 -44 37 -48 36 -3 0 -29 -9 -57 -20z"/>
<path fill="#ffffff" stroke="none" d="M298 1313 l43 -6 -38 -39 c-55 -57 -64
-60 -137 -47 l-64 11 11 28 c14 38 73 72 112 65 17 -3 49 -9 73 -12z"/>
</g>
</svg>
