<?xml version="1.0" standalone="no"?>
<!DOCTYPE svg PUBLIC "-//W3C//DTD SVG 20010904//EN"
 "http://www.w3.org/TR/2001/REC-SVG-20010904/DTD/svg10.dtd">
<svg version="1.0" xmlns="http://www.w3.org/2000/svg"
 width="39.000000pt" height="129.000000pt" viewBox="0 0 39.000000 129.000000"
 preserveAspectRatio="xMidYMid meet">
<metadata>
Created by potrace 1.14, written by Peter Selinger 2001-2017
</metadata>
<g transform="translate(0.000000,129.000000) scale(0.100000,-0.100000)"
fill="#000000" stroke="none">
<path fill="#000000" stroke="none" d="M205 1281 c-16 -3 -44 -15 -62 -25 -26
-16 -32 -26 -35 -63 -2 -24 2 -54 8 -66 11 -20 8 -24 -36 -49 l-47 -27 -12
-76 c-18 -123 -16 -133 22 -140 29 -6 33 -10 31 -33 -2 -15 -10 -90 -18 -167
-8 -77 -18 -189 -21 -250 -3 -60 -12 -135 -20 -165 -24 -87 -13 -130 45 -179
27 -23 51 -41 53 -41 2 0 7 71 9 158 5 154 6 159 40 230 l35 74 7 -145 c3 -79
4 -168 0 -198 -5 -49 -4 -55 16 -67 40 -24 38 -30 75 318 14 135 25 296 25
358 l0 112 25 0 c61 0 56 80 -10 167 -36 49 -44 68 -49 116 -5 59 -35 168 -45
166 -3 -1 -19 -4 -36 -8z"/>
</g>
</svg>
