<?xml version="1.0" standalone="no"?>
<!DOCTYPE svg PUBLIC "-//W3C//DTD SVG 20010904//EN"
 "http://www.w3.org/TR/2001/REC-SVG-20010904/DTD/svg10.dtd">
<svg version="1.0" xmlns="http://www.w3.org/2000/svg"
 width="43.000000pt" height="141.000000pt" viewBox="0 0 43.000000 141.000000"
 preserveAspectRatio="xMidYMid meet">
<metadata>
Created by potrace 1.14, written by Peter Selinger 2001-2017
</metadata>
<g transform="translate(0.000000,141.000000) scale(0.100000,-0.100000)"
fill="#000000" stroke="none">
<path fill="#000000" stroke="none" d="M180 1399 c0 -5 -4 -7 -10 -4 -5 3 -10
2 -10 -3 0 -6 -13 -15 -29 -20 -28 -10 -28 -10 -19 -67 8 -52 7 -58 -14 -75
-13 -11 -37 -25 -55 -32 -18 -6 -35 -18 -37 -25 -3 -7 6 -63 20 -123 l24 -111
-25 -43 c-25 -43 -25 -44 -11 -112 20 -93 68 -229 100 -284 31 -55 32 -82 5
-126 -16 -26 -28 -34 -49 -34 -37 0 -42 -16 -19 -62 25 -50 24 -93 -5 -131
-32 -44 -50 -97 -32 -97 8 0 16 -9 19 -20 3 -10 17 -22 31 -26 66 -16 97 21
121 151 34 184 64 250 127 290 23 15 122 561 113 625 -10 66 -49 118 -117 155
-27 15 -28 18 -28 100 l0 85 -50 0 c-29 0 -50 -5 -50 -11z"/>
</g>
</svg>
