<?xml version="1.0" standalone="no"?>
<!DOCTYPE svg PUBLIC "-//W3C//DTD SVG 20010904//EN"
 "http://www.w3.org/TR/2001/REC-SVG-20010904/DTD/svg10.dtd">
<svg version="1.0" xmlns="http://www.w3.org/2000/svg"
 width="63.000000pt" height="248.000000pt" viewBox="0 0 63.000000 248.000000"
 preserveAspectRatio="xMidYMid meet">
<metadata>
Created by potrace 1.14, written by Peter Selinger 2001-2017
</metadata>
<g transform="translate(0.000000,248.000000) scale(0.100000,-0.100000)"
fill="#000000" stroke="none">
<path fill="#000000" stroke="none" d="M457 2473 c-17 -16 6 -204 40 -334 l35
-137 -50 -82 c-56 -91 -57 -91 -67 35 -8 104 -11 111 -43 124 -15 6 -33 21
-41 33 -13 20 -12 20 18 -1 l31 -22 0 53 c0 29 11 87 24 128 13 41 23 76 23
76 -1 1 -53 5 -114 9 l-113 7 0 -79 0 -78 -100 -100 c-55 -55 -100 -106 -100
-115 0 -8 20 -109 45 -225 l45 -210 -18 -185 c-11 -110 -15 -199 -10 -220 4
-19 64 -262 132 -540 69 -278 129 -527 133 -555 10 -59 31 -69 56 -26 26 45
21 106 -24 268 -39 141 -41 157 -46 325 -4 115 -2 178 4 178 6 0 31 -9 56 -20
l47 -21 2 -158 3 -159 72 57 72 56 1 164 c0 132 -5 193 -26 315 -24 140 -25
164 -19 336 7 178 9 192 56 375 l49 190 -25 200 c-19 147 -32 219 -52 273 -26
68 -29 72 -59 72 -17 0 -34 -3 -37 -7z"/>
<path fill="#000000" stroke="none" d="M405 276 c4 -28 13 -85 19 -126 l11
-75 39 90 c21 50 48 101 58 115 l20 25 -24 3 c-12 2 -47 7 -76 11 l-53 8 6
-51z"/>
</g>
</svg>
