<?xml version="1.0" standalone="no"?>
<!DOCTYPE svg PUBLIC "-//W3C//DTD SVG 20010904//EN"
 "http://www.w3.org/TR/2001/REC-SVG-20010904/DTD/svg10.dtd">
<svg version="1.0" xmlns="http://www.w3.org/2000/svg"
 width="39.000000pt" height="133.000000pt" viewBox="0 0 39.000000 133.000000"
 preserveAspectRatio="xMidYMid meet">
<metadata>
Created by potrace 1.14, written by Peter Selinger 2001-2017
</metadata>
<g transform="translate(0.000000,133.000000) scale(0.100000,-0.100000)"
fill="#000000" stroke="none">
<path fill="#000000" stroke="none" d="M166 1309 c-19 -28 -20 -63 -4 -109 11
-33 10 -35 -44 -84 -31 -28 -58 -62 -61 -76 -29 -134 -57 -278 -57 -295 0 -12
5 -26 12 -33 9 -9 8 -21 -1 -50 -11 -32 -11 -49 -1 -88 7 -27 12 -67 10 -89
-6 -94 -4 -305 4 -366 6 -47 5 -68 -3 -73 -6 -4 -11 -16 -11 -27 0 -24 41 -26
94 -4 34 14 36 18 32 48 -3 18 -8 98 -11 178 -5 120 -4 153 9 184 9 20 16 48
16 60 0 45 10 55 56 55 l44 0 0 65 0 65 56 32 56 31 -6 62 c-5 51 -2 72 14
110 13 31 20 69 20 114 0 75 4 70 -101 134 -21 12 -27 26 -32 63 -4 36 -13 54
-40 81 l-34 35 -17 -23z"/>
</g>
</svg>
