<?xml version="1.0" standalone="no"?>
<!DOCTYPE svg PUBLIC "-//W3C//DTD SVG 20010904//EN"
 "http://www.w3.org/TR/2001/REC-SVG-20010904/DTD/svg10.dtd">
<svg version="1.0" xmlns="http://www.w3.org/2000/svg"
 width="76.000000pt" height="253.000000pt" viewBox="0 0 76.000000 253.000000"
 preserveAspectRatio="xMidYMid meet">
<metadata>
Created by potrace 1.14, written by Peter Selinger 2001-2017
</metadata>
<g transform="translate(0.000000,253.000000) scale(0.100000,-0.100000)"
fill="#000000" stroke="none">
<path fill="#000000" stroke="none" d="M236 2488 c-30 -53 -45 -183 -25 -220
16 -29 13 -54 -12 -95 -17 -27 -26 -32 -78 -38 l-59 -7 -6 -341 c-3 -188 -9
-425 -12 -527 -5 -165 -3 -206 21 -384 26 -194 26 -199 10 -268 -19 -77 -17
-125 16 -293 10 -55 19 -120 18 -145 0 -42 -3 -48 -54 -88 -47 -38 -53 -47
-44 -63 16 -30 55 -23 116 21 31 22 65 40 75 40 15 0 18 5 13 20 -16 49 4 274
30 335 9 22 10 49 3 99 -7 52 -6 78 6 114 8 26 25 114 37 196 27 173 28 172
63 -55 18 -114 21 -162 15 -220 -6 -55 -4 -89 7 -133 12 -47 14 -86 8 -180 -3
-67 -10 -130 -14 -142 -8 -19 -3 -22 69 -37 42 -10 103 -17 134 -17 50 0 58 3
55 17 -2 10 -16 20 -35 24 -32 6 -90 48 -106 76 -9 15 1 70 34 183 28 98 38
206 25 258 -10 37 -7 85 12 259 20 181 28 221 48 256 13 23 24 35 24 27 -1 -8
-7 -26 -15 -40 -21 -37 -19 -40 26 -40 26 0 50 7 67 20 25 20 26 24 28 148 1
70 6 167 11 216 11 117 -5 262 -48 423 -41 150 -64 183 -158 225 -37 16 -76
41 -87 55 l-22 25 28 77 c27 76 27 76 11 140 -15 59 -21 67 -61 93 -34 21 -57
28 -97 28 -51 0 -53 -1 -77 -42z"/>
</g>
</svg>
