<?xml version="1.0" standalone="no"?>
<!DOCTYPE svg PUBLIC "-//W3C//DTD SVG 20010904//EN"
 "http://www.w3.org/TR/2001/REC-SVG-20010904/DTD/svg10.dtd">
<svg version="1.0" xmlns="http://www.w3.org/2000/svg"
 width="50.000000pt" height="158.000000pt" viewBox="0 0 50.000000 158.000000"
 preserveAspectRatio="xMidYMid meet">
<metadata>
Created by potrace 1.14, written by Peter Selinger 2001-2017
</metadata>
<g transform="translate(0.000000,158.000000) scale(0.100000,-0.100000)"
fill="#000000" stroke="none">
<path fill="#000000" stroke="none" d="M204 1569 c-22 -29 -43 -98 -49 -167
-4 -39 -11 -70 -15 -67 -4 2 -22 -17 -40 -42 -30 -41 -34 -56 -40 -132 -3 -47
-4 -108 -2 -135 4 -46 7 -49 43 -65 l39 -16 -1 -90 c-1 -50 1 -100 5 -111 4
-13 -3 -42 -18 -75 -27 -63 -33 -94 -22 -126 4 -13 0 -60 -8 -107 -13 -65 -14
-99 -6 -152 15 -108 13 -132 -15 -158 -14 -13 -25 -32 -25 -43 0 -11 -11 -25
-25 -31 -14 -6 -25 -18 -25 -26 0 -20 35 -25 110 -18 l65 7 5 97 c5 91 7 99
35 128 17 18 46 40 66 51 43 21 59 58 59 133 0 28 9 70 20 93 15 34 30 48 79
73 l61 30 0 58 c0 64 -34 227 -51 248 -9 11 -6 14 16 14 19 0 26 4 22 14 -3 8
-11 42 -17 75 -6 34 -18 80 -26 103 -11 31 -13 62 -9 108 5 52 2 77 -15 125
-20 59 -91 189 -109 200 -23 14 -97 17 -107 4z"/>
<path fill="#ffffff" stroke="none" d="M280 1102 c-22 -18 -19 -52 5 -52 12 0
25 -21 25 -40 0 -4 -13 -10 -29 -12 -33 -5 -44 14 -34 62 3 15 0 31 -6 34 -22
14 -10 26 25 26 36 0 36 0 14 -18z"/>
</g>
</svg>
