<?xml version="1.0" standalone="no"?>
<!DOCTYPE svg PUBLIC "-//W3C//DTD SVG 20010904//EN"
 "http://www.w3.org/TR/2001/REC-SVG-20010904/DTD/svg10.dtd">
<svg version="1.0" xmlns="http://www.w3.org/2000/svg"
 width="15.000000pt" height="52.000000pt" viewBox="0 0 15.000000 52.000000"
 preserveAspectRatio="xMidYMid meet">
<metadata>
Created by potrace 1.14, written by Peter Selinger 2001-2017
</metadata>
<g transform="translate(0.000000,52.000000) scale(0.100000,-0.100000)"
fill="#000000" stroke="none">
<path fill="#000000" stroke="none" d="M44 493 c-4 -15 -15 -35 -24 -45 -14
-16 -15 -28 -8 -76 6 -35 5 -103 -1 -180 -17 -190 -17 -192 19 -192 21 0 28 4
24 14 -3 8 6 43 20 78 14 36 26 84 26 109 0 52 9 89 21 89 5 0 9 -14 9 -32 0
-25 3 -29 12 -20 9 9 8 32 -5 100 -9 49 -17 103 -17 120 0 48 -9 62 -41 62
-23 0 -30 -5 -35 -27z"/>
</g>
</svg>
