<?xml version="1.0" standalone="no"?>
<!DOCTYPE svg PUBLIC "-//W3C//DTD SVG 20010904//EN"
 "http://www.w3.org/TR/2001/REC-SVG-20010904/DTD/svg10.dtd">
<svg version="1.0" xmlns="http://www.w3.org/2000/svg"
 width="23.000000pt" height="88.000000pt" viewBox="0 0 23.000000 88.000000"
 preserveAspectRatio="xMidYMid meet">
<metadata>
Created by potrace 1.14, written by Peter Selinger 2001-2017
</metadata>
<g transform="translate(0.000000,88.000000) scale(0.100000,-0.100000)"
fill="#000000" stroke="none">
<path fill="#000000" stroke="none" d="M40 838 c-6 -24 -14 -50 -17 -58 -24
-60 -17 -736 8 -766 18 -22 148 -16 163 8 8 14 7 20 -6 30 -16 12 -16 28 -8
178 7 118 15 183 30 228 24 76 26 171 5 253 -14 53 -14 61 0 82 14 21 13 25
-5 44 -10 12 -42 26 -70 32 -83 18 -88 16 -100 -31z"/>
</g>
</svg>
