<?xml version="1.0" standalone="no"?>
<!DOCTYPE svg PUBLIC "-//W3C//DTD SVG 20010904//EN"
 "http://www.w3.org/TR/2001/REC-SVG-20010904/DTD/svg10.dtd">
<svg version="1.0" xmlns="http://www.w3.org/2000/svg"
 width="69.000000pt" height="243.000000pt" viewBox="0 0 69.000000 243.000000"
 preserveAspectRatio="xMidYMid meet">
<metadata>
Created by potrace 1.14, written by Peter Selinger 2001-2017
</metadata>
<g transform="translate(0.000000,243.000000) scale(0.100000,-0.100000)"
fill="#000000" stroke="none">
<path fill="#000000" stroke="none" d="M450 2421 c-27 -4 -109 -40 -207 -91
l-162 -85 -42 -107 -42 -107 5 -228 5 -228 100 -147 100 -147 11 -168 c7 -92
12 -190 12 -216 0 -38 18 -92 89 -260 88 -209 89 -213 81 -267 -5 -30 -9 -101
-9 -156 l-1 -102 64 -56 c81 -71 105 -73 181 -15 30 23 55 46 55 51 0 5 -25
68 -56 141 l-56 132 6 360 c3 198 10 414 15 480 17 215 12 899 -7 1070 l-17
150 -40 1 c-22 1 -60 -1 -85 -5z"/>
</g>
</svg>
