<?xml version="1.0" standalone="no"?>
<!DOCTYPE svg PUBLIC "-//W3C//DTD SVG 20010904//EN"
 "http://www.w3.org/TR/2001/REC-SVG-20010904/DTD/svg10.dtd">
<svg version="1.0" xmlns="http://www.w3.org/2000/svg"
 width="14.000000pt" height="40.000000pt" viewBox="0 0 14.000000 40.000000"
 preserveAspectRatio="xMidYMid meet">
<metadata>
Created by potrace 1.14, written by Peter Selinger 2001-2017
</metadata>
<g transform="translate(0.000000,40.000000) scale(0.100000,-0.100000)"
fill="#000000" stroke="none">
<path fill="#000000" stroke="none" d="M50 376 c0 -14 -9 -40 -19 -58 -11 -18
-21 -53 -23 -78 -2 -38 0 -45 14 -44 14 1 16 -4 12 -23 -7 -27 15 -173 25
-173 20 0 28 24 19 56 -5 20 -7 43 -5 52 2 9 8 -2 12 -24 10 -55 21 -72 36
-57 9 9 8 27 -2 78 -12 61 -11 68 3 79 16 11 16 18 1 82 -8 38 -21 74 -29 80
-8 6 -14 21 -14 33 0 12 -6 21 -15 21 -9 0 -15 -9 -15 -24z"/>
<path fill="#ffffff" stroke="none" d="M117 208 c-3 -8 -6 -5 -6 6 -1 11 2 17
5 13 3 -3 4 -12 1 -19z"/>
</g>
</svg>
