<?xml version="1.0" standalone="no"?>
<!DOCTYPE svg PUBLIC "-//W3C//DTD SVG 20010904//EN"
 "http://www.w3.org/TR/2001/REC-SVG-20010904/DTD/svg10.dtd">
<svg version="1.0" xmlns="http://www.w3.org/2000/svg"
 width="14.000000pt" height="48.000000pt" viewBox="0 0 14.000000 48.000000"
 preserveAspectRatio="xMidYMid meet">
<metadata>
Created by potrace 1.14, written by Peter Selinger 2001-2017
</metadata>
<g transform="translate(0.000000,48.000000) scale(0.100000,-0.100000)"
fill="#000000" stroke="none">
<path fill="#000000" stroke="none" d="M87 473 c-4 -3 -7 -16 -7 -28 0 -13 -9
-26 -23 -32 -24 -11 -64 -114 -52 -133 10 -17 23 -11 28 13 2 12 5 -15 6 -61
1 -63 5 -84 16 -88 9 -4 15 -19 15 -38 0 -68 12 -106 32 -106 17 0 20 5 16 35
-2 19 0 35 4 35 11 0 10 75 -1 123 -5 22 -19 49 -30 61 -31 33 -26 65 15 107
24 25 34 42 28 51 -5 7 -7 25 -5 40 2 22 -2 28 -17 28 -10 0 -22 -3 -25 -7z"/>
</g>
</svg>
