<?xml version="1.0" standalone="no"?>
<!DOCTYPE svg PUBLIC "-//W3C//DTD SVG 20010904//EN"
 "http://www.w3.org/TR/2001/REC-SVG-20010904/DTD/svg10.dtd">
<svg version="1.0" xmlns="http://www.w3.org/2000/svg"
 width="38.000000pt" height="113.000000pt" viewBox="0 0 38.000000 113.000000"
 preserveAspectRatio="xMidYMid meet">
<metadata>
Created by potrace 1.14, written by Peter Selinger 2001-2017
</metadata>
<g transform="translate(0.000000,113.000000) scale(0.100000,-0.100000)"
fill="#000000" stroke="none">
<path fill="#000000" stroke="none" d="M120 1112 c-17 -14 -24 -32 -27 -73 -4
-43 -12 -61 -38 -89 -52 -57 -56 -69 -33 -115 11 -22 37 -58 58 -80 36 -39 38
-43 46 -135 4 -52 7 -131 7 -175 -1 -44 -1 -120 -1 -170 1 -50 1 -122 1 -162
0 -66 2 -72 25 -83 15 -7 29 -7 34 -2 15 15 27 81 29 147 l1 60 14 -55 c8 -30
17 -84 21 -119 l6 -64 27 30 27 30 -13 104 c-8 57 -18 124 -24 148 -12 49 -10
54 42 70 28 9 38 19 43 42 19 86 -10 405 -43 482 -16 34 -34 55 -66 75 -39 24
-44 32 -49 70 -5 43 -30 82 -52 82 -7 0 -23 -8 -35 -18z"/>
</g>
</svg>
