<?xml version="1.0" standalone="no"?>
<!DOCTYPE svg PUBLIC "-//W3C//DTD SVG 20010904//EN"
 "http://www.w3.org/TR/2001/REC-SVG-20010904/DTD/svg10.dtd">
<svg version="1.0" xmlns="http://www.w3.org/2000/svg"
 width="16.000000pt" height="59.000000pt" viewBox="0 0 16.000000 59.000000"
 preserveAspectRatio="xMidYMid meet">
<metadata>
Created by potrace 1.14, written by Peter Selinger 2001-2017
</metadata>
<g transform="translate(0.000000,59.000000) scale(0.100000,-0.100000)"
fill="#000000" stroke="none">
<path fill="#000000" stroke="none" d="M36 534 c-27 -41 -35 -59 -27 -67 14
-14 14 -180 0 -194 -7 -7 -4 -28 10 -70 28 -84 35 -137 23 -172 -12 -33 -8
-36 36 -25 27 8 29 40 5 124 -15 57 -15 66 1 163 15 81 24 108 47 136 23 28
26 37 15 45 -8 6 -16 29 -20 51 -5 35 -26 65 -46 65 -4 0 -24 -25 -44 -56z"/>
</g>
</svg>
