<?xml version="1.0" standalone="no"?>
<!DOCTYPE svg PUBLIC "-//W3C//DTD SVG 20010904//EN"
 "http://www.w3.org/TR/2001/REC-SVG-20010904/DTD/svg10.dtd">
<svg version="1.0" xmlns="http://www.w3.org/2000/svg"
 width="37.000000pt" height="106.000000pt" viewBox="0 0 37.000000 106.000000"
 preserveAspectRatio="xMidYMid meet">
<metadata>
Created by potrace 1.14, written by Peter Selinger 2001-2017
</metadata>
<g transform="translate(0.000000,106.000000) scale(0.100000,-0.100000)"
fill="#000000" stroke="none">
<path fill="#000000" stroke="none" d="M105 1051 c-26 -5 -31 -12 -43 -65 -13
-52 -13 -64 2 -111 9 -28 16 -73 16 -99 0 -27 8 -63 20 -86 30 -60 27 -165 -9
-298 -17 -59 -36 -148 -44 -199 -15 -99 -14 -103 35 -103 14 0 18 -5 14 -16
-3 -9 -6 -18 -6 -20 0 -2 -21 -4 -46 -4 -41 0 -45 -2 -42 -23 3 -19 10 -22 51
-25 27 -2 77 4 111 12 34 9 89 16 122 16 88 0 89 2 74 106 -8 59 -27 125 -55
194 -24 58 -48 132 -55 165 -23 113 -37 302 -27 377 9 69 2 120 -21 156 -12
17 -61 29 -97 23z"/>
</g>
</svg>
