<?xml version="1.0" standalone="no"?>
<!DOCTYPE svg PUBLIC "-//W3C//DTD SVG 20010904//EN"
 "http://www.w3.org/TR/2001/REC-SVG-20010904/DTD/svg10.dtd">
<svg version="1.0" xmlns="http://www.w3.org/2000/svg"
 width="15.000000pt" height="47.000000pt" viewBox="0 0 15.000000 47.000000"
 preserveAspectRatio="xMidYMid meet">
<metadata>
Created by potrace 1.14, written by Peter Selinger 2001-2017
</metadata>
<g transform="translate(0.000000,47.000000) scale(0.100000,-0.100000)"
fill="#000000" stroke="none">
<path fill="#000000" stroke="none" d="M15 434 c-18 -43 -12 -121 16 -202 10
-30 24 -91 30 -137 8 -53 17 -86 26 -89 10 -4 12 4 7 37 -3 23 -7 47 -9 53 -2
6 12 35 31 65 18 30 34 57 34 60 0 4 -21 44 -46 89 -35 64 -42 85 -32 91 7 5
16 9 20 9 4 0 2 14 -3 30 -16 45 -54 42 -74 -6z"/>
</g>
</svg>
