<?xml version="1.0" standalone="no"?>
<!DOCTYPE svg PUBLIC "-//W3C//DTD SVG 20010904//EN"
 "http://www.w3.org/TR/2001/REC-SVG-20010904/DTD/svg10.dtd">
<svg version="1.0" xmlns="http://www.w3.org/2000/svg"
 width="54.000000pt" height="168.000000pt" viewBox="0 0 54.000000 168.000000"
 preserveAspectRatio="xMidYMid meet">
<metadata>
Created by potrace 1.14, written by Peter Selinger 2001-2017
</metadata>
<g transform="translate(0.000000,168.000000) scale(0.100000,-0.100000)"
fill="#000000" stroke="none">
<path fill="#000000" stroke="none" d="M63 1659 c-22 -14 -36 -33 -42 -57 -25
-94 -25 -91 8 -137 32 -44 39 -79 20 -91 -11 -6 -9 -23 8 -93 l8 -33 51 40
c39 31 53 49 58 76 4 20 22 66 41 102 l34 65 -23 10 c-15 7 -26 24 -32 51 -15
69 -78 101 -131 67z"/>
<path fill="#000000" stroke="none" d="M301 329 c-6 -18 -11 -67 -11 -110 0
-68 3 -80 20 -89 30 -16 24 -38 -15 -57 -19 -9 -35 -24 -35 -33 0 -33 22 -40
132 -40 95 0 110 2 128 20 26 26 26 38 -11 148 -29 88 -34 96 -77 123 -25 16
-56 29 -68 29 -13 0 -29 9 -37 21 -14 20 -15 19 -26 -12z"/>
</g>
</svg>
