<?xml version="1.0" standalone="no"?>
<!DOCTYPE svg PUBLIC "-//W3C//DTD SVG 20010904//EN"
 "http://www.w3.org/TR/2001/REC-SVG-20010904/DTD/svg10.dtd">
<svg version="1.0" xmlns="http://www.w3.org/2000/svg"
 width="34.000000pt" height="108.000000pt" viewBox="0 0 34.000000 108.000000"
 preserveAspectRatio="xMidYMid meet">
<metadata>
Created by potrace 1.14, written by Peter Selinger 2001-2017
</metadata>
<g transform="translate(0.000000,108.000000) scale(0.100000,-0.100000)"
fill="#000000" stroke="none">
<path fill="#000000" stroke="none" d="M124 1068 c-12 -5 -34 -36 -49 -68
l-28 -59 27 -42 c27 -39 28 -45 20 -108 l-9 -66 -43 -3 c-37 -3 -42 -6 -42
-28 0 -13 4 -24 9 -24 5 0 26 -15 46 -34 l36 -34 -41 -82 c-34 -67 -40 -87
-34 -118 10 -58 53 -197 80 -259 l25 -56 -28 -23 c-15 -13 -35 -24 -43 -25 -8
0 0 -5 18 -9 33 -8 98 4 116 20 4 5 -1 37 -13 72 -29 89 -43 187 -33 223 9 29
10 28 50 -55 22 -47 47 -116 55 -153 l15 -68 -24 -16 c-13 -8 -24 -24 -24 -34
0 -16 4 -17 33 -8 17 6 47 27 64 47 31 33 33 40 33 104 0 39 -9 106 -21 151
-16 64 -23 129 -28 292 -6 186 -10 215 -28 251 -15 27 -18 45 -12 55 12 20 11
87 -3 125 -15 43 -72 58 -124 32z"/>
</g>
</svg>
