<?xml version="1.0" standalone="no"?>
<!DOCTYPE svg PUBLIC "-//W3C//DTD SVG 20010904//EN"
 "http://www.w3.org/TR/2001/REC-SVG-20010904/DTD/svg10.dtd">
<svg version="1.0" xmlns="http://www.w3.org/2000/svg"
 width="33.000000pt" height="130.000000pt" viewBox="0 0 33.000000 130.000000"
 preserveAspectRatio="xMidYMid meet">
<metadata>
Created by potrace 1.14, written by Peter Selinger 2001-2017
</metadata>
<g transform="translate(0.000000,130.000000) scale(0.100000,-0.100000)"
fill="#000000" stroke="none">
<path fill="#000000" stroke="none" d="M65 1285 c-24 -7 -39 -18 -37 -26 11
-44 18 -145 11 -147 -5 -2 -9 -10 -9 -18 0 -8 -7 -14 -15 -14 -19 0 -19 -14
-1 -29 7 -6 41 -53 75 -104 l61 -93 0 -114 c0 -92 -4 -124 -20 -158 -17 -39
-22 -42 -40 -32 -34 18 -50 -37 -50 -170 0 -89 6 -136 31 -243 17 -73 32 -133
33 -134 3 -3 128 38 135 43 2 2 -3 14 -11 26 -14 21 -14 26 2 58 23 47 38 199
46 460 6 202 8 217 30 256 13 22 24 55 24 72 0 44 -54 140 -101 182 -36 31
-41 42 -49 100 -7 47 -15 70 -31 83 -24 19 -29 20 -84 2z"/>
</g>
</svg>
