<?xml version="1.0" standalone="no"?>
<!DOCTYPE svg PUBLIC "-//W3C//DTD SVG 20010904//EN"
 "http://www.w3.org/TR/2001/REC-SVG-20010904/DTD/svg10.dtd">
<svg version="1.0" xmlns="http://www.w3.org/2000/svg"
 width="36.000000pt" height="118.000000pt" viewBox="0 0 36.000000 118.000000"
 preserveAspectRatio="xMidYMid meet">
<metadata>
Created by potrace 1.14, written by Peter Selinger 2001-2017
</metadata>
<g transform="translate(0.000000,118.000000) scale(0.100000,-0.100000)"
fill="#000000" stroke="none">
<path fill="#000000" stroke="none" d="M143 1174 c-7 -3 -15 -33 -19 -66 l-7
-60 -31 6 c-30 5 -29 4 9 -16 22 -11 41 -21 42 -22 6 -5 -29 -200 -47 -261
-11 -38 -20 -84 -20 -102 0 -29 -3 -32 -34 -35 l-35 -3 65 -113 64 -113 -31
-129 c-19 -82 -29 -147 -27 -181 4 -62 5 -63 147 -74 l91 -7 0 24 c0 14 -13
37 -30 53 -34 32 -37 54 -15 115 10 28 15 80 15 150 l0 108 40 7 c39 7 40 7
40 49 0 113 -54 380 -88 438 -15 26 -15 30 2 58 16 28 16 34 1 85 -8 30 -21
55 -28 55 -7 0 -30 9 -52 20 -22 11 -39 20 -40 19 0 0 -5 -3 -12 -5z"/>
</g>
</svg>
