<?xml version="1.0" standalone="no"?>
<!DOCTYPE svg PUBLIC "-//W3C//DTD SVG 20010904//EN"
 "http://www.w3.org/TR/2001/REC-SVG-20010904/DTD/svg10.dtd">
<svg version="1.0" xmlns="http://www.w3.org/2000/svg"
 width="39.000000pt" height="114.000000pt" viewBox="0 0 39.000000 114.000000"
 preserveAspectRatio="xMidYMid meet">
<metadata>
Created by potrace 1.14, written by Peter Selinger 2001-2017
</metadata>
<g transform="translate(0.000000,114.000000) scale(0.100000,-0.100000)"
fill="#000000" stroke="none">
<path fill="#000000" stroke="none" d="M184 1129 c-14 -24 -30 -105 -24 -129
3 -15 15 -26 30 -30 20 -5 26 -13 28 -44 3 -30 -1 -41 -18 -53 -35 -25 -44
-62 -24 -104 l16 -38 -56 -122 c-56 -123 -69 -179 -42 -179 25 0 25 -14 -1
-105 -21 -75 -24 -103 -20 -171 l6 -81 -41 -19 c-40 -18 -40 -18 -15 -25 14
-4 59 -9 99 -10 72 -4 73 -4 76 21 1 14 5 45 8 69 l6 43 33 -49 c24 -36 32
-57 28 -76 -5 -26 -4 -27 28 -21 79 13 76 10 83 65 8 57 -6 87 -91 202 l-42
58 53 72 c30 40 57 86 60 103 4 17 8 123 10 236 l2 205 -33 23 c-18 12 -33 26
-33 30 0 4 11 19 25 34 16 17 24 35 20 45 -12 39 -152 80 -171 50z"/>
</g>
</svg>
