<?xml version="1.0" standalone="no"?>
<!DOCTYPE svg PUBLIC "-//W3C//DTD SVG 20010904//EN"
 "http://www.w3.org/TR/2001/REC-SVG-20010904/DTD/svg10.dtd">
<svg version="1.0" xmlns="http://www.w3.org/2000/svg"
 width="25.000000pt" height="78.000000pt" viewBox="0 0 25.000000 78.000000"
 preserveAspectRatio="xMidYMid meet">
<metadata>
Created by potrace 1.14, written by Peter Selinger 2001-2017
</metadata>
<g transform="translate(0.000000,78.000000) scale(0.100000,-0.100000)"
fill="#000000" stroke="none">
<path fill="#000000" stroke="none" d="M96 758 c-9 -12 -16 -31 -16 -41 0 -11
-11 -23 -29 -30 -21 -7 -32 -21 -40 -47 -14 -48 -14 -117 0 -126 7 -4 9 -31 4
-83 -6 -70 -5 -78 15 -96 23 -21 23 -37 4 -265 l-6 -65 80 0 c81 0 116 11 73
22 -21 5 -22 9 -16 67 4 33 16 103 26 155 10 51 19 125 19 163 0 53 4 74 16
82 26 19 22 79 -9 123 -18 26 -27 52 -27 79 0 49 -23 84 -55 84 -13 0 -31 -10
-39 -22z"/>
</g>
</svg>
