<?xml version="1.0" standalone="no"?>
<!DOCTYPE svg PUBLIC "-//W3C//DTD SVG 20010904//EN"
 "http://www.w3.org/TR/2001/REC-SVG-20010904/DTD/svg10.dtd">
<svg version="1.0" xmlns="http://www.w3.org/2000/svg"
 width="90.000000pt" height="295.000000pt" viewBox="0 0 90.000000 295.000000"
 preserveAspectRatio="xMidYMid meet">
<metadata>
Created by potrace 1.14, written by Peter Selinger 2001-2017
</metadata>
<g transform="translate(0.000000,295.000000) scale(0.100000,-0.100000)"
fill="#000000" stroke="none">
<path fill="#000000" stroke="none" d="M271 2885 c-30 -35 -58 -70 -62 -77
-11 -20 -89 -285 -89 -301 0 -8 18 -53 39 -100 34 -74 42 -106 58 -229 18
-138 18 -147 1 -273 -10 -71 -33 -256 -52 -410 -32 -263 -36 -281 -58 -300
l-24 -20 43 -123 43 -123 -86 -157 -86 -157 53 -228 53 -229 64 -79 c36 -44
72 -79 81 -79 9 0 54 9 101 20 61 14 123 20 221 20 l137 0 25 34 26 33 -22 20
c-12 11 -51 41 -86 68 l-64 48 6 166 c3 91 23 350 43 576 l38 410 114 194 114
195 -23 185 -23 186 -49 80 c-28 44 -63 98 -78 121 -42 62 -75 155 -105 299
-23 110 -33 139 -69 195 l-42 66 -79 17 c-44 9 -86 17 -94 17 -8 0 -39 -29
-69 -65z"/>
</g>
</svg>
