<?xml version="1.0" standalone="no"?>
<!DOCTYPE svg PUBLIC "-//W3C//DTD SVG 20010904//EN"
 "http://www.w3.org/TR/2001/REC-SVG-20010904/DTD/svg10.dtd">
<svg version="1.0" xmlns="http://www.w3.org/2000/svg"
 width="44.000000pt" height="137.000000pt" viewBox="0 0 44.000000 137.000000"
 preserveAspectRatio="xMidYMid meet">
<metadata>
Created by potrace 1.14, written by Peter Selinger 2001-2017
</metadata>
<g transform="translate(0.000000,137.000000) scale(0.100000,-0.100000)"
fill="#000000" stroke="none">
<path fill="#000000" stroke="none" d="M233 1357 c-17 -7 -24 -24 -33 -74 -9
-51 -24 -86 -71 -161 -34 -53 -76 -114 -95 -136 -19 -22 -34 -43 -34 -47 0 -3
29 -38 65 -77 l65 -70 -19 -334 c-11 -183 -24 -349 -30 -368 -6 -19 -11 -40
-11 -46 0 -6 30 -16 68 -23 37 -7 78 -15 92 -18 l25 -6 -28 30 c-25 27 -26 31
-11 37 10 4 21 0 28 -10 10 -14 20 -14 71 -5 32 6 60 12 61 14 2 2 -19 20 -46
41 -28 21 -50 44 -50 51 0 7 7 31 14 54 8 22 29 116 45 208 17 92 35 169 41
173 6 4 2 30 -10 70 -24 80 -25 99 -3 130 12 17 20 64 29 159 l11 136 -26 22
-26 23 27 0 c23 0 28 5 33 33 9 53 23 162 21 164 -1 2 -43 11 -92 21 -62 13
-97 16 -111 9z"/>
</g>
</svg>
