<?xml version="1.0" standalone="no"?>
<!DOCTYPE svg PUBLIC "-//W3C//DTD SVG 20010904//EN"
 "http://www.w3.org/TR/2001/REC-SVG-20010904/DTD/svg10.dtd">
<svg version="1.0" xmlns="http://www.w3.org/2000/svg"
 width="15.000000pt" height="59.000000pt" viewBox="0 0 15.000000 59.000000"
 preserveAspectRatio="xMidYMid meet">
<metadata>
Created by potrace 1.14, written by Peter Selinger 2001-2017
</metadata>
<g transform="translate(0.000000,59.000000) scale(0.100000,-0.100000)"
fill="#000000" stroke="none">
<path fill="#000000" stroke="none" d="M0 506 c0 -87 4 -96 49 -96 20 0 51
-58 51 -95 0 -20 5 -25 26 -25 25 0 26 2 19 38 -3 20 -24 66 -45 102 -21 36
-49 86 -61 113 -13 26 -27 47 -31 47 -4 0 -8 -38 -8 -84z"/>
<path fill="#000000" stroke="none" d="M77 245 c-14 -29 -22 -35 -47 -35 l-30
0 0 -105 0 -105 25 0 c17 0 26 7 30 23 12 54 45 251 42 254 -2 1 -11 -13 -20
-32z"/>
</g>
</svg>
