<?xml version="1.0" standalone="no"?>
<!DOCTYPE svg PUBLIC "-//W3C//DTD SVG 20010904//EN"
 "http://www.w3.org/TR/2001/REC-SVG-20010904/DTD/svg10.dtd">
<svg version="1.0" xmlns="http://www.w3.org/2000/svg"
 width="13.000000pt" height="39.000000pt" viewBox="0 0 13.000000 39.000000"
 preserveAspectRatio="xMidYMid meet">
<metadata>
Created by potrace 1.14, written by Peter Selinger 2001-2017
</metadata>
<g transform="translate(0.000000,39.000000) scale(0.100000,-0.100000)"
fill="#000000" stroke="none">
<path fill="#000000" stroke="none" d="M59 388 c0 -2 -2 -13 -3 -25 -1 -12
-13 -31 -26 -41 -18 -14 -24 -32 -28 -74 -3 -35 0 -58 7 -62 7 -5 11 -42 11
-97 l0 -90 28 3 c25 3 27 6 28 53 0 28 7 61 14 74 28 53 40 133 29 199 -10 56
-13 62 -35 62 -13 0 -24 -1 -25 -2z"/>
</g>
</svg>
