<?xml version="1.0" standalone="no"?>
<!DOCTYPE svg PUBLIC "-//W3C//DTD SVG 20010904//EN"
 "http://www.w3.org/TR/2001/REC-SVG-20010904/DTD/svg10.dtd">
<svg version="1.0" xmlns="http://www.w3.org/2000/svg"
 width="19.000000pt" height="62.000000pt" viewBox="0 0 19.000000 62.000000"
 preserveAspectRatio="xMidYMid meet">
<metadata>
Created by potrace 1.14, written by Peter Selinger 2001-2017
</metadata>
<g transform="translate(0.000000,62.000000) scale(0.100000,-0.100000)"
fill="#000000" stroke="none">
<path fill="#000000" stroke="none" d="M12 608 c-16 -16 -15 -63 2 -77 7 -6
11 -22 9 -35 -3 -13 2 -44 11 -68 11 -35 13 -63 7 -117 -4 -39 -3 -77 2 -86 8
-15 19 -68 33 -160 9 -53 20 -65 60 -65 66 0 71 60 22 232 -9 29 -7 45 6 77
19 49 20 79 5 118 -7 15 -11 40 -10 55 3 32 -15 68 -32 68 -7 0 -17 15 -22 33
-9 27 -15 32 -45 35 -19 2 -41 -3 -48 -10z"/>
</g>
</svg>
