<?xml version="1.0" standalone="no"?>
<!DOCTYPE svg PUBLIC "-//W3C//DTD SVG 20010904//EN"
 "http://www.w3.org/TR/2001/REC-SVG-20010904/DTD/svg10.dtd">
<svg version="1.0" xmlns="http://www.w3.org/2000/svg"
 width="117.000000pt" height="403.000000pt" viewBox="0 0 117.000000 403.000000"
 preserveAspectRatio="xMidYMid meet">
<metadata>
Created by potrace 1.14, written by Peter Selinger 2001-2017
</metadata>
<g transform="translate(0.000000,403.000000) scale(0.100000,-0.100000)"
fill="#000000" stroke="none">
<path fill="#000000" stroke="none" d="M237 3990 c-65 -21 -121 -40 -124 -44
-3 -3 -22 -65 -42 -139 l-37 -133 14 -121 14 -121 -32 -47 c-31 -45 -31 -48
-20 -95 6 -27 18 -54 25 -60 7 -6 38 -84 68 -173 l56 -162 31 -427 c17 -235
44 -541 60 -680 16 -139 34 -309 40 -378 25 -274 91 -763 121 -891 17 -74 36
-189 43 -257 l12 -122 -58 -47 c-32 -25 -58 -49 -58 -54 0 -4 21 -14 47 -23
33 -12 84 -16 181 -16 l134 0 -5 28 c-21 109 -29 208 -24 316 5 113 11 140 86
405 44 156 82 285 83 286 2 1 32 8 68 14 168 32 154 25 204 106 25 40 46 82
46 94 0 11 -24 148 -54 303 l-54 283 -5 450 -5 450 -71 190 -71 190 -67 61
-67 62 17 56 18 56 -91 110 -91 109 25 81 c15 45 26 87 26 93 0 7 -46 61 -101
120 -75 79 -117 116 -160 138 -32 16 -60 29 -61 28 -2 0 -56 -18 -121 -39z"/>
</g>
</svg>
