<?xml version="1.0" standalone="no"?>
<!DOCTYPE svg PUBLIC "-//W3C//DTD SVG 20010904//EN"
 "http://www.w3.org/TR/2001/REC-SVG-20010904/DTD/svg10.dtd">
<svg version="1.0" xmlns="http://www.w3.org/2000/svg"
 width="17.000000pt" height="66.000000pt" viewBox="0 0 17.000000 66.000000"
 preserveAspectRatio="xMidYMid meet">
<metadata>
Created by potrace 1.14, written by Peter Selinger 2001-2017
</metadata>
<g transform="translate(0.000000,66.000000) scale(0.100000,-0.100000)"
fill="#000000" stroke="none">
<path fill="#000000" stroke="none" d="M21 615 c-17 -39 -19 -54 -11 -96 5
-27 14 -112 20 -187 16 -223 15 -218 72 -279 28 -29 53 -52 55 -50 1 2 -4 26
-12 52 -13 44 -13 55 2 104 12 43 14 81 10 164 -3 62 -1 120 4 137 8 22 6 36
-10 69 -12 22 -21 53 -21 69 0 35 -27 62 -63 62 -21 0 -30 -8 -46 -45z"/>
</g>
</svg>
