<?xml version="1.0" standalone="no"?>
<!DOCTYPE svg PUBLIC "-//W3C//DTD SVG 20010904//EN"
 "http://www.w3.org/TR/2001/REC-SVG-20010904/DTD/svg10.dtd">
<svg version="1.0" xmlns="http://www.w3.org/2000/svg"
 width="23.000000pt" height="68.000000pt" viewBox="0 0 23.000000 68.000000"
 preserveAspectRatio="xMidYMid meet">
<metadata>
Created by potrace 1.14, written by Peter Selinger 2001-2017
</metadata>
<g transform="translate(0.000000,68.000000) scale(0.100000,-0.100000)"
fill="#000000" stroke="none">
<path fill="#000000" stroke="none" d="M98 672 c-10 -4 -34 -34 -54 -67 -30
-50 -36 -69 -35 -110 1 -33 8 -56 20 -70 34 -36 44 -100 37 -230 -3 -66 -10
-134 -15 -152 -8 -29 -7 -31 21 -37 63 -13 88 -8 98 20 19 48 52 278 49 339
-1 33 -1 86 0 117 2 65 -10 93 -66 155 -27 30 -43 40 -55 35z"/>
</g>
</svg>
