<?xml version="1.0" standalone="no"?>
<!DOCTYPE svg PUBLIC "-//W3C//DTD SVG 20010904//EN"
 "http://www.w3.org/TR/2001/REC-SVG-20010904/DTD/svg10.dtd">
<svg version="1.0" xmlns="http://www.w3.org/2000/svg"
 width="16.000000pt" height="52.000000pt" viewBox="0 0 16.000000 52.000000"
 preserveAspectRatio="xMidYMid meet">
<metadata>
Created by potrace 1.14, written by Peter Selinger 2001-2017
</metadata>
<g transform="translate(0.000000,52.000000) scale(0.100000,-0.100000)"
fill="#000000" stroke="none">
<path fill="#000000" stroke="none" d="M71 510 c-9 -5 -14 -23 -13 -44 1 -26
-3 -36 -17 -41 -10 -3 -24 -19 -31 -36 -11 -25 -10 -32 5 -49 16 -18 17 -28 8
-92 -6 -42 -7 -77 -2 -83 5 -5 9 -44 9 -87 0 -76 0 -77 22 -69 21 8 23 14 20
82 -4 105 14 124 23 23 9 -110 8 -108 27 -112 15 -3 16 8 11 105 -3 67 -1 129
7 163 24 112 24 123 -4 149 -16 15 -26 35 -26 52 0 32 -20 51 -39 39z"/>
</g>
</svg>
