<?xml version="1.0" standalone="no"?>
<!DOCTYPE svg PUBLIC "-//W3C//DTD SVG 20010904//EN"
 "http://www.w3.org/TR/2001/REC-SVG-20010904/DTD/svg10.dtd">
<svg version="1.0" xmlns="http://www.w3.org/2000/svg"
 width="22.000000pt" height="69.000000pt" viewBox="0 0 22.000000 69.000000"
 preserveAspectRatio="xMidYMid meet">
<metadata>
Created by potrace 1.14, written by Peter Selinger 2001-2017
</metadata>
<g transform="translate(0.000000,69.000000) scale(0.100000,-0.100000)"
fill="#000000" stroke="none">
<path fill="#000000" stroke="none" d="M45 682 c-6 -4 -10 -112 -11 -284 0
-239 -3 -282 -18 -322 -21 -55 -11 -76 35 -76 41 0 69 32 69 79 0 22 11 58 27
87 26 48 43 109 47 169 1 17 7 40 14 52 18 32 15 77 -8 106 -15 19 -20 40 -20
87 0 51 -4 65 -25 85 -24 25 -87 35 -110 17z"/>
</g>
</svg>
