<?xml version="1.0" standalone="no"?>
<!DOCTYPE svg PUBLIC "-//W3C//DTD SVG 20010904//EN"
 "http://www.w3.org/TR/2001/REC-SVG-20010904/DTD/svg10.dtd">
<svg version="1.0" xmlns="http://www.w3.org/2000/svg"
 width="86.000000pt" height="313.000000pt" viewBox="0 0 86.000000 313.000000"
 preserveAspectRatio="xMidYMid meet">
<metadata>
Created by potrace 1.14, written by Peter Selinger 2001-2017
</metadata>
<g transform="translate(0.000000,313.000000) scale(0.100000,-0.100000)"
fill="#000000" stroke="none">
<path fill="#000000" stroke="none" d="M211 3101 l-104 -27 -56 -63 c-33 -38
-47 -59 -33 -52 22 11 22 11 22 -44 l0 -57 86 -93 c47 -51 104 -119 125 -151
l39 -59 0 -203 c0 -186 -2 -212 -26 -305 -14 -56 -42 -140 -61 -187 -20 -47
-56 -146 -79 -220 l-43 -135 37 -17 c50 -23 59 -22 113 12 41 25 50 37 74 102
15 40 31 77 35 81 4 4 27 -41 52 -100 41 -97 47 -121 57 -233 22 -240 30 -376
31 -520 2 -143 1 -147 -39 -280 -23 -74 -62 -177 -86 -228 -25 -52 -45 -97
-45 -101 0 -5 25 -25 55 -45 l55 -36 -45 -41 c-25 -23 -45 -44 -45 -48 0 -3
15 -16 33 -28 29 -20 46 -23 134 -23 55 0 134 3 176 6 l76 7 37 61 37 61 -26
210 -26 210 14 353 c9 216 26 474 46 668 l31 316 -28 31 c-16 18 -46 50 -67
73 l-38 41 -6 267 -6 266 -116 71 -116 70 -25 87 c-26 90 -26 97 -5 264 6 47
6 47 -27 52 -87 13 -120 11 -217 -13z"/>
</g>
</svg>
