<?xml version="1.0" standalone="no"?>
<!DOCTYPE svg PUBLIC "-//W3C//DTD SVG 20010904//EN"
 "http://www.w3.org/TR/2001/REC-SVG-20010904/DTD/svg10.dtd">
<svg version="1.0" xmlns="http://www.w3.org/2000/svg"
 width="33.000000pt" height="121.000000pt" viewBox="0 0 33.000000 121.000000"
 preserveAspectRatio="xMidYMid meet">
<metadata>
Created by potrace 1.14, written by Peter Selinger 2001-2017
</metadata>
<g transform="translate(0.000000,121.000000) scale(0.100000,-0.100000)"
fill="#000000" stroke="none">
<path fill="#000000" stroke="none" d="M74 1200 c-52 -21 -66 -157 -66 -640
-1 -338 1 -394 17 -455 19 -75 42 -109 67 -100 11 5 14 17 10 55 -4 40 -1 50
15 58 21 11 47 117 57 232 7 75 24 130 41 130 10 0 16 19 21 61 9 78 23 64 31
-30 6 -72 6 -72 32 -66 14 4 27 8 28 9 1 1 -9 72 -22 157 -19 120 -22 156 -12
164 11 10 12 54 2 102 -4 15 -10 20 -20 17 -12 -5 -15 6 -15 68 0 41 -5 99
-11 130 -11 53 -13 56 -69 86 -61 34 -72 36 -106 22z"/>
</g>
</svg>
