<?xml version="1.0" standalone="no"?>
<!DOCTYPE svg PUBLIC "-//W3C//DTD SVG 20010904//EN"
 "http://www.w3.org/TR/2001/REC-SVG-20010904/DTD/svg10.dtd">
<svg version="1.0" xmlns="http://www.w3.org/2000/svg"
 width="8.000000pt" height="23.000000pt" viewBox="0 0 8.000000 23.000000"
 preserveAspectRatio="xMidYMid meet">
<metadata>
Created by potrace 1.14, written by Peter Selinger 2001-2017
</metadata>
<g transform="translate(0.000000,23.000000) scale(0.100000,-0.100000)"
fill="#000000" stroke="none">
<path fill="#000000" stroke="none" d="M16 190 c-16 -32 -17 -45 -8 -65 7 -14
9 -45 5 -76 -5 -42 -3 -51 8 -47 8 2 17 22 20 44 l6 39 2 -42 c0 -27 6 -43 14
-43 12 0 12 26 4 165 -2 40 -12 65 -25 65 -4 0 -16 -18 -26 -40z"/>
</g>
</svg>
