<?xml version="1.0" standalone="no"?>
<!DOCTYPE svg PUBLIC "-//W3C//DTD SVG 20010904//EN"
 "http://www.w3.org/TR/2001/REC-SVG-20010904/DTD/svg10.dtd">
<svg version="1.0" xmlns="http://www.w3.org/2000/svg"
 width="16.000000pt" height="54.000000pt" viewBox="0 0 16.000000 54.000000"
 preserveAspectRatio="xMidYMid meet">
<metadata>
Created by potrace 1.14, written by Peter Selinger 2001-2017
</metadata>
<g transform="translate(0.000000,54.000000) scale(0.100000,-0.100000)"
fill="#000000" stroke="none">
<path fill="#000000" stroke="none" d="M86 519 c-20 -16 -26 -28 -22 -43 3
-13 -2 -28 -15 -42 -16 -17 -20 -39 -24 -120 -3 -54 -8 -142 -13 -194 -7 -80
-6 -97 7 -108 22 -18 31 3 38 89 8 91 27 86 31 -9 2 -61 6 -72 23 -77 11 -4
22 -5 25 -3 15 16 25 140 20 263 -3 77 -5 164 -5 194 0 34 -5 57 -13 62 -19
12 -22 11 -52 -12z"/>
</g>
</svg>
