<?xml version="1.0" standalone="no"?>
<!DOCTYPE svg PUBLIC "-//W3C//DTD SVG 20010904//EN"
 "http://www.w3.org/TR/2001/REC-SVG-20010904/DTD/svg10.dtd">
<svg version="1.0" xmlns="http://www.w3.org/2000/svg"
 width="17.000000pt" height="66.000000pt" viewBox="0 0 17.000000 66.000000"
 preserveAspectRatio="xMidYMid meet">
<metadata>
Created by potrace 1.14, written by Peter Selinger 2001-2017
</metadata>
<g transform="translate(0.000000,66.000000) scale(0.100000,-0.100000)"
fill="#000000" stroke="none">
<path fill="#000000" stroke="none" d="M70 615 c0 -26 -9 -63 -20 -85 -25 -48
-26 -134 -4 -219 l15 -61 -32 -39 c-30 -38 -30 -41 -15 -62 10 -15 16 -44 16
-80 0 -66 4 -69 86 -69 l54 0 0 308 c-1 285 -2 309 -19 330 -12 14 -30 22 -50
22 -30 0 -31 -1 -31 -45z"/>
</g>
</svg>
