<?xml version="1.0" standalone="no"?>
<!DOCTYPE svg PUBLIC "-//W3C//DTD SVG 20010904//EN"
 "http://www.w3.org/TR/2001/REC-SVG-20010904/DTD/svg10.dtd">
<svg version="1.0" xmlns="http://www.w3.org/2000/svg"
 width="56.000000pt" height="186.000000pt" viewBox="0 0 56.000000 186.000000"
 preserveAspectRatio="xMidYMid meet">
<metadata>
Created by potrace 1.14, written by Peter Selinger 2001-2017
</metadata>
<g transform="translate(0.000000,186.000000) scale(0.100000,-0.100000)"
fill="#000000" stroke="none">
<path fill="#000000" stroke="none" d="M385 1855 c-5 -2 -28 -9 -51 -14 -46
-12 -64 -40 -64 -99 0 -20 -5 -54 -11 -75 -8 -32 -18 -42 -52 -57 -36 -16 -52
-34 -106 -121 -71 -114 -76 -131 -86 -301 -6 -102 -5 -121 10 -144 10 -16 20
-62 26 -122 11 -117 35 -257 56 -332 21 -73 12 -232 -15 -287 -11 -21 -23 -58
-26 -83 -4 -25 -21 -82 -38 -128 -17 -45 -29 -85 -26 -88 3 -3 44 14 92 38 66
33 86 47 86 63 0 27 69 137 81 129 5 -3 9 -15 9 -28 0 -12 10 -32 23 -44 22
-21 24 -21 39 -5 23 27 35 53 69 153 26 78 29 97 19 120 -14 33 -18 243 -7
322 l8 57 46 -20 c48 -21 62 -16 63 22 0 9 7 30 16 47 13 27 13 35 2 56 -26
48 -86 131 -107 150 -13 12 -21 31 -21 51 0 18 -13 89 -30 158 -35 148 -39
223 -12 231 10 4 27 19 39 34 22 31 63 149 63 185 0 18 -74 140 -83 136 -1 0
-6 -2 -12 -4z"/>
</g>
</svg>
