<?xml version="1.0" standalone="no"?>
<!DOCTYPE svg PUBLIC "-//W3C//DTD SVG 20010904//EN"
 "http://www.w3.org/TR/2001/REC-SVG-20010904/DTD/svg10.dtd">
<svg version="1.0" xmlns="http://www.w3.org/2000/svg"
 width="63.000000pt" height="196.000000pt" viewBox="0 0 63.000000 196.000000"
 preserveAspectRatio="xMidYMid meet">
<metadata>
Created by potrace 1.14, written by Peter Selinger 2001-2017
</metadata>
<g transform="translate(0.000000,196.000000) scale(0.100000,-0.100000)"
fill="#000000" stroke="none">
<path fill="#000000" stroke="none" d="M375 1953 c-29 -5 -65 -28 -65 -43 0
-4 -25 -51 -56 -104 -52 -88 -56 -101 -51 -140 6 -43 6 -43 -31 -54 -30 -9
-42 -22 -64 -63 l-27 -51 30 -87 c79 -221 82 -233 69 -241 -7 -4 -10 -12 -6
-18 3 -5 -17 -59 -45 -119 l-50 -108 -39 -274 -38 -274 86 -189 87 -189 45 3
44 3 57 137 c44 104 71 155 119 216 l62 80 -14 224 -15 223 77 255 76 255 -59
125 -59 124 14 50 c12 42 12 67 2 141 -7 50 -13 98 -13 108 -1 14 -10 17 -53
16 -29 -1 -66 -4 -83 -6z"/>
</g>
</svg>
