<?xml version="1.0" standalone="no"?>
<!DOCTYPE svg PUBLIC "-//W3C//DTD SVG 20010904//EN"
 "http://www.w3.org/TR/2001/REC-SVG-20010904/DTD/svg10.dtd">
<svg version="1.0" xmlns="http://www.w3.org/2000/svg"
 width="53.000000pt" height="176.000000pt" viewBox="0 0 53.000000 176.000000"
 preserveAspectRatio="xMidYMid meet">
<metadata>
Created by potrace 1.14, written by Peter Selinger 2001-2017
</metadata>
<g transform="translate(0.000000,176.000000) scale(0.100000,-0.100000)"
fill="#000000" stroke="none">
<path fill="#000000" stroke="none" d="M208 1753 c-20 -3 -30 -15 -46 -51 -33
-79 -35 -92 -17 -112 10 -11 15 -31 13 -52 -3 -28 -10 -37 -53 -60 -27 -14
-57 -37 -66 -50 -23 -33 -45 -208 -29 -237 12 -24 52 -43 73 -35 11 4 16 -60
27 -328 8 -183 14 -424 15 -534 l0 -202 -25 -20 c-22 -18 -23 -22 -10 -36 17
-17 112 -36 141 -29 18 5 19 17 19 225 0 199 3 233 27 351 14 73 30 136 35
142 4 5 8 -15 8 -45 0 -30 7 -89 16 -130 13 -61 15 -105 9 -240 -9 -181 -8
-193 1 -262 7 -54 8 -55 97 -37 50 10 57 15 57 35 0 13 -6 24 -13 24 -11 0
-13 28 -10 133 3 72 4 159 4 192 0 33 0 170 0 305 1 135 4 248 8 253 4 4 -3
78 -15 165 -13 86 -21 158 -19 161 3 2 12 -2 21 -10 14 -12 19 -10 36 11 29
36 20 100 -26 177 l-37 61 -70 7 c-68 7 -69 7 -69 37 0 16 5 38 10 49 13 24
-4 129 -23 141 -12 8 -41 8 -89 1z"/>
</g>
</svg>
