<?xml version="1.0" standalone="no"?>
<!DOCTYPE svg PUBLIC "-//W3C//DTD SVG 20010904//EN"
 "http://www.w3.org/TR/2001/REC-SVG-20010904/DTD/svg10.dtd">
<svg version="1.0" xmlns="http://www.w3.org/2000/svg"
 width="14.000000pt" height="48.000000pt" viewBox="0 0 14.000000 48.000000"
 preserveAspectRatio="xMidYMid meet">
<metadata>
Created by potrace 1.14, written by Peter Selinger 2001-2017
</metadata>
<g transform="translate(0.000000,48.000000) scale(0.100000,-0.100000)"
fill="#000000" stroke="none">
<path fill="#000000" stroke="none" d="M48 463 c-7 -9 -12 -24 -10 -35 2 -10
-6 -30 -17 -44 -37 -47 -20 -159 30 -207 21 -19 26 -85 10 -116 -13 -23 -3
-61 15 -61 14 0 20 18 28 85 2 22 11 70 20 107 15 66 14 98 -10 234 -7 40 -46
61 -66 37z"/>
</g>
</svg>
