<?xml version="1.0" standalone="no"?>
<!DOCTYPE svg PUBLIC "-//W3C//DTD SVG 20010904//EN"
 "http://www.w3.org/TR/2001/REC-SVG-20010904/DTD/svg10.dtd">
<svg version="1.0" xmlns="http://www.w3.org/2000/svg"
 width="106.000000pt" height="352.000000pt" viewBox="0 0 106.000000 352.000000"
 preserveAspectRatio="xMidYMid meet">
<metadata>
Created by potrace 1.14, written by Peter Selinger 2001-2017
</metadata>
<g transform="translate(0.000000,352.000000) scale(0.100000,-0.100000)"
fill="#000000" stroke="none">
<path fill="#000000" stroke="none" d="M171 3435 l-40 -85 38 -127 c21 -71 52
-155 69 -189 l30 -60 -34 -28 c-69 -54 -74 -88 -56 -341 7 -88 12 -181 12
-206 l0 -46 -88 -37 c-48 -21 -91 -41 -95 -46 -5 -4 17 -62 49 -130 l57 -122
-11 -202 c-6 -110 -8 -273 -5 -362 l6 -161 69 -43 c110 -68 116 -80 119 -240
1 -104 -3 -161 -20 -250 l-22 -115 51 -205 c45 -183 119 -410 140 -434 5 -5
36 1 71 13 55 18 86 21 256 21 l193 0 0 46 c0 40 -7 54 -59 123 -32 42 -93
133 -135 202 l-76 125 40 95 c56 129 163 423 200 547 l31 103 -10 196 c-11
220 0 359 44 563 41 192 57 318 56 444 l-1 120 -115 153 c-64 84 -112 153
-107 153 5 0 36 -11 70 -24 49 -19 62 -22 62 -10 0 26 -69 91 -119 113 -34 14
-59 34 -78 62 -15 23 -38 50 -49 61 -18 16 -21 27 -16 61 3 23 8 44 11 47 24
18 44 220 22 220 -12 0 -471 69 -498 75 -19 5 -27 -6 -62 -80z"/>
</g>
</svg>
