<?xml version="1.0" standalone="no"?>
<!DOCTYPE svg PUBLIC "-//W3C//DTD SVG 20010904//EN"
 "http://www.w3.org/TR/2001/REC-SVG-20010904/DTD/svg10.dtd">
<svg version="1.0" xmlns="http://www.w3.org/2000/svg"
 width="42.000000pt" height="154.000000pt" viewBox="0 0 42.000000 154.000000"
 preserveAspectRatio="xMidYMid meet">
<metadata>
Created by potrace 1.14, written by Peter Selinger 2001-2017
</metadata>
<g transform="translate(0.000000,154.000000) scale(0.100000,-0.100000)"
fill="#000000" stroke="none">
<path fill="#000000" stroke="none" d="M140 1521 c-19 -11 -42 -32 -52 -48
-16 -27 -15 -32 12 -113 16 -47 35 -102 43 -124 13 -36 12 -45 -13 -130 -32
-105 -84 -331 -110 -479 -20 -113 -19 -116 40 -117 19 0 43 -7 53 -15 24 -18
76 -220 77 -297 l0 -57 -53 -19 c-28 -11 -62 -23 -74 -26 -24 -8 -42 -51 -27
-66 12 -12 112 -16 142 -6 16 5 24 3 28 -8 4 -12 20 -16 54 -16 l47 0 13 59
c11 53 15 60 39 63 21 2 27 9 29 33 2 17 11 38 19 47 13 14 14 30 8 75 -4 32
-6 78 -6 102 1 25 -1 62 -4 84 l-7 39 -27 -25 c-42 -41 -73 -48 -125 -31 -79
27 -84 97 -13 207 29 46 32 47 79 47 27 0 58 -5 69 -11 20 -10 20 -7 17 234
l-3 244 -42 46 c-48 52 -55 88 -24 121 17 18 18 28 10 70 -12 64 -32 94 -75
112 -57 24 -87 25 -124 5z"/>
</g>
</svg>
