<?xml version="1.0" standalone="no"?>
<!DOCTYPE svg PUBLIC "-//W3C//DTD SVG 20010904//EN"
 "http://www.w3.org/TR/2001/REC-SVG-20010904/DTD/svg10.dtd">
<svg version="1.0" xmlns="http://www.w3.org/2000/svg"
 width="8.000000pt" height="26.000000pt" viewBox="0 0 8.000000 26.000000"
 preserveAspectRatio="xMidYMid meet">
<metadata>
Created by potrace 1.14, written by Peter Selinger 2001-2017
</metadata>
<g transform="translate(0.000000,26.000000) scale(0.100000,-0.100000)"
fill="#000000" stroke="none">
<path fill="#000000" stroke="none" d="M25 250 c-3 -5 -4 -14 -1 -19 3 -5 -1
-11 -9 -15 -19 -7 -20 -78 -3 -106 9 -14 10 -25 2 -38 -6 -9 -7 -28 -3 -42 7
-25 7 -25 8 -2 1 31 20 64 32 57 5 -4 9 -24 9 -46 0 -21 5 -39 10 -39 12 0 12
3 -1 60 -7 33 -7 57 2 87 10 36 9 46 -5 68 -9 14 -14 30 -11 35 3 6 -1 10 -9
10 -8 0 -18 -4 -21 -10z"/>
</g>
</svg>
