<?xml version="1.0" standalone="no"?>
<!DOCTYPE svg PUBLIC "-//W3C//DTD SVG 20010904//EN"
 "http://www.w3.org/TR/2001/REC-SVG-20010904/DTD/svg10.dtd">
<svg version="1.0" xmlns="http://www.w3.org/2000/svg"
 width="35.000000pt" height="101.000000pt" viewBox="0 0 35.000000 101.000000"
 preserveAspectRatio="xMidYMid meet">
<metadata>
Created by potrace 1.14, written by Peter Selinger 2001-2017
</metadata>
<g transform="translate(0.000000,101.000000) scale(0.100000,-0.100000)"
fill="#000000" stroke="none">
<path fill="#000000" stroke="none" d="M126 988 c-21 -29 -22 -141 -2 -157 28
-23 26 -49 -5 -61 -29 -12 -29 -13 -29 -104 0 -95 -18 -153 -70 -226 -25 -35
-25 -39 4 -74 l23 -30 18 37 c35 74 45 68 45 -26 l0 -85 44 -6 c27 -4 52 -16
67 -32 22 -23 24 -34 24 -124 l0 -99 31 30 c29 28 32 38 39 117 4 48 13 115
20 149 11 54 10 64 -3 75 -13 11 -14 39 -8 199 l7 187 -45 37 c-45 37 -46 38
-46 97 0 45 -5 67 -21 89 -26 36 -70 40 -93 7z"/>
</g>
</svg>
