<?xml version="1.0" standalone="no"?>
<!DOCTYPE svg PUBLIC "-//W3C//DTD SVG 20010904//EN"
 "http://www.w3.org/TR/2001/REC-SVG-20010904/DTD/svg10.dtd">
<svg version="1.0" xmlns="http://www.w3.org/2000/svg"
 width="31.000000pt" height="115.000000pt" viewBox="0 0 31.000000 115.000000"
 preserveAspectRatio="xMidYMid meet">
<metadata>
Created by potrace 1.14, written by Peter Selinger 2001-2017
</metadata>
<g transform="translate(0.000000,115.000000) scale(0.100000,-0.100000)"
fill="#000000" stroke="none">
<path fill="#000000" stroke="none" d="M96 1079 c-14 -39 -39 -89 -55 -112
-26 -39 -29 -52 -36 -171 -4 -71 -4 -270 0 -441 l7 -312 67 -21 c43 -14 93
-22 138 -22 71 0 71 0 82 32 11 30 9 33 -49 85 l-59 54 19 52 c26 73 35 302
20 549 -8 141 -8 208 0 236 14 54 -10 108 -58 128 -19 8 -38 14 -42 14 -4 0
-19 -32 -34 -71z"/>
</g>
</svg>
