<?xml version="1.0" standalone="no"?>
<!DOCTYPE svg PUBLIC "-//W3C//DTD SVG 20010904//EN"
 "http://www.w3.org/TR/2001/REC-SVG-20010904/DTD/svg10.dtd">
<svg version="1.0" xmlns="http://www.w3.org/2000/svg"
 width="71.000000pt" height="239.000000pt" viewBox="0 0 71.000000 239.000000"
 preserveAspectRatio="xMidYMid meet">
<metadata>
Created by potrace 1.14, written by Peter Selinger 2001-2017
</metadata>
<g transform="translate(0.000000,239.000000) scale(0.100000,-0.100000)"
fill="#000000" stroke="none">
<path fill="#000000" stroke="none" d="M370 2374 c-32 -14 -108 -69 -122 -89
-12 -15 -9 -128 3 -186 11 -50 10 -54 -12 -71 -13 -9 -65 -55 -116 -100 l-91
-83 -1 -108 c-1 -105 0 -109 36 -180 21 -42 36 -84 34 -101 -1 -16 -24 -84
-52 -150 l-51 -121 23 -72 c20 -64 26 -73 51 -78 15 -4 32 -14 37 -23 4 -9 37
-200 71 -424 l64 -407 28 20 28 20 9 -24 c5 -14 13 -40 16 -59 l7 -34 -70 -33
c-60 -27 -82 -45 -82 -67 0 -2 59 -4 130 -4 154 0 266 22 255 49 -4 9 -12 47
-17 85 -11 68 -10 70 14 90 25 21 26 23 32 221 3 110 13 286 22 390 13 161 20
204 46 279 29 84 30 92 18 145 -7 31 -21 81 -31 111 -17 48 -18 64 -8 140 5
47 23 135 40 195 17 65 29 135 29 171 0 57 -3 66 -43 120 -46 63 -105 114
-131 114 -9 0 -16 1 -16 3 0 2 5 30 11 62 10 54 9 63 -17 124 -15 36 -29 68
-30 70 -11 13 -86 16 -114 5z"/>
<path fill="#ffffff" stroke="none" d="M455 2020 c65 -48 104 -103 150 -211
36 -86 49 -179 27 -201 -6 -6 -13 -10 -16 -7 -2 2 -16 46 -30 98 -24 84 -34
102 -95 176 -37 45 -86 99 -110 120 -39 36 -41 40 -25 52 27 20 40 16 99 -27z"/>
</g>
</svg>
