<?xml version="1.0" standalone="no"?>
<!DOCTYPE svg PUBLIC "-//W3C//DTD SVG 20010904//EN"
 "http://www.w3.org/TR/2001/REC-SVG-20010904/DTD/svg10.dtd">
<svg version="1.0" xmlns="http://www.w3.org/2000/svg"
 width="9.000000pt" height="27.000000pt" viewBox="0 0 9.000000 27.000000"
 preserveAspectRatio="xMidYMid meet">
<metadata>
Created by potrace 1.14, written by Peter Selinger 2001-2017
</metadata>
<g transform="translate(0.000000,27.000000) scale(0.100000,-0.100000)"
fill="#000000" stroke="none">
<path fill="#000000" stroke="none" d="M37 258 c-9 -5 -17 -20 -17 -33 0 -13
-5 -27 -10 -30 -13 -8 -13 -82 1 -91 7 -4 7 -10 2 -15 -12 -12 -1 -81 13 -86
7 -2 15 9 19 24 3 15 14 36 22 45 12 14 14 29 9 69 -5 33 -3 56 4 64 13 16 5
51 -13 58 -7 3 -21 1 -30 -5z"/>
</g>
</svg>
