<?xml version="1.0" standalone="no"?>
<!DOCTYPE svg PUBLIC "-//W3C//DTD SVG 20010904//EN"
 "http://www.w3.org/TR/2001/REC-SVG-20010904/DTD/svg10.dtd">
<svg version="1.0" xmlns="http://www.w3.org/2000/svg"
 width="56.000000pt" height="205.000000pt" viewBox="0 0 56.000000 205.000000"
 preserveAspectRatio="xMidYMid meet">
<metadata>
Created by potrace 1.14, written by Peter Selinger 2001-2017
</metadata>
<g transform="translate(0.000000,205.000000) scale(0.100000,-0.100000)"
fill="#000000" stroke="none">
<path fill="#000000" stroke="none" d="M190 2034 c-14 -9 -42 -39 -63 -66 -44
-56 -44 -68 -5 -186 11 -35 17 -66 13 -70 -3 -4 -29 -16 -58 -27 l-52 -21 -11
-67 -11 -66 30 -7 c34 -7 157 -128 157 -153 0 -10 9 -45 21 -80 19 -56 20 -64
6 -79 -21 -24 -33 -196 -17 -237 8 -20 12 -93 11 -222 -1 -128 2 -193 9 -193
5 0 10 -17 10 -37 0 -73 13 -142 26 -147 12 -5 123 12 132 20 2 1 -2 29 -9 63
-9 50 -9 62 3 74 16 16 33 119 50 292 14 147 15 212 4 324 l-8 94 36 -28 c20
-15 38 -26 40 -24 2 2 15 22 30 43 32 47 32 73 5 230 l-22 122 -51 38 -51 38
-5 -61 c-5 -60 -5 -60 -26 -43 -22 17 -47 84 -59 155 -4 25 0 56 11 89 24 74
16 180 -16 212 -33 32 -97 41 -130 20z"/>
<path fill="#000000" stroke="none" d="M318 238 c-26 -9 -28 -13 -28 -72 0
-61 0 -62 53 -113 l52 -52 33 20 c17 12 32 23 32 26 0 9 -67 97 -89 117 -17
15 -20 26 -15 53 7 35 4 37 -38 21z"/>
</g>
</svg>
