<?xml version="1.0" standalone="no"?>
<!DOCTYPE svg PUBLIC "-//W3C//DTD SVG 20010904//EN"
 "http://www.w3.org/TR/2001/REC-SVG-20010904/DTD/svg10.dtd">
<svg version="1.0" xmlns="http://www.w3.org/2000/svg"
 width="32.000000pt" height="98.000000pt" viewBox="0 0 32.000000 98.000000"
 preserveAspectRatio="xMidYMid meet">
<metadata>
Created by potrace 1.14, written by Peter Selinger 2001-2017
</metadata>
<g transform="translate(0.000000,98.000000) scale(0.100000,-0.100000)"
fill="#000000" stroke="none">
<path fill="#000000" stroke="none" d="M105 940 c-56 -37 -60 -42 -66 -85 -4
-37 0 -54 18 -83 35 -58 31 -121 -17 -244 l-41 -103 36 -29 c56 -45 111 -133
125 -201 10 -48 23 -72 68 -127 31 -37 56 -67 57 -65 0 1 -2 47 -5 102 -3 55
-2 128 3 162 5 37 5 113 -1 184 -9 117 -8 125 15 186 25 62 25 63 7 115 -10
29 -22 80 -28 112 -10 56 -14 62 -56 87 -25 15 -47 28 -50 28 -3 0 -32 -18
-65 -39z"/>
</g>
</svg>
