<?xml version="1.0" standalone="no"?>
<!DOCTYPE svg PUBLIC "-//W3C//DTD SVG 20010904//EN"
 "http://www.w3.org/TR/2001/REC-SVG-20010904/DTD/svg10.dtd">
<svg version="1.0" xmlns="http://www.w3.org/2000/svg"
 width="13.000000pt" height="44.000000pt" viewBox="0 0 13.000000 44.000000"
 preserveAspectRatio="xMidYMid meet">
<metadata>
Created by potrace 1.14, written by Peter Selinger 2001-2017
</metadata>
<g transform="translate(0.000000,44.000000) scale(0.100000,-0.100000)"
fill="#000000" stroke="none">
<path fill="#000000" stroke="none" d="M38 428 c-15 -5 -28 -17 -30 -26 -2 -9
10 -57 26 -106 25 -79 27 -91 13 -100 -12 -10 -14 -29 -9 -104 l5 -92 33 0
c39 0 54 18 30 36 -10 7 -15 18 -11 24 4 6 11 51 16 98 5 48 11 110 15 138 6
48 4 52 -16 59 -18 6 -21 12 -16 36 7 35 -16 51 -56 37z"/>
</g>
</svg>
