<?xml version="1.0" standalone="no"?>
<!DOCTYPE svg PUBLIC "-//W3C//DTD SVG 20010904//EN"
 "http://www.w3.org/TR/2001/REC-SVG-20010904/DTD/svg10.dtd">
<svg version="1.0" xmlns="http://www.w3.org/2000/svg"
 width="128.000000pt" height="385.000000pt" viewBox="0 0 128.000000 385.000000"
 preserveAspectRatio="xMidYMid meet">
<metadata>
Created by potrace 1.14, written by Peter Selinger 2001-2017
</metadata>
<g transform="translate(0.000000,385.000000) scale(0.100000,-0.100000)"
fill="#000000" stroke="none">
<path fill="#000000" stroke="none" d="M435 3799 c-44 -28 -82 -53 -83 -54 -2
-2 -21 -85 -43 -186 l-39 -182 101 -171 c56 -94 103 -174 106 -178 2 -4 -56
-52 -129 -108 l-133 -101 -106 -191 -106 -191 49 -106 c27 -58 97 -248 155
-421 58 -173 114 -324 124 -335 18 -19 19 -19 32 0 14 18 16 17 44 -15 34 -38
57 -36 67 7 4 15 14 35 22 44 13 15 13 23 -5 75 -11 32 -17 62 -15 66 8 13 31
9 31 -5 0 -8 10 -39 23 -71 28 -66 42 -73 133 -60 57 8 63 12 76 42 8 18 22
32 32 32 21 0 82 -108 114 -200 l22 -65 -23 -118 c-21 -106 -29 -129 -86 -229
-51 -89 -86 -136 -182 -237 -166 -177 -298 -366 -282 -407 3 -8 -10 -92 -30
-186 -19 -95 -33 -184 -32 -198 3 -23 8 -25 73 -31 39 -4 140 -10 225 -14
l155 -7 27 55 c25 52 75 261 292 1217 l33 145 -15 251 -14 251 110 154 109
154 6 240 6 239 -147 151 c-121 123 -156 166 -197 240 l-50 90 9 221 9 220
-48 82 c-25 45 -49 82 -52 82 -3 0 -63 14 -135 30 -71 17 -135 30 -141 30 -7
0 -48 -23 -92 -51z"/>
<path fill="#000000" stroke="none" d="M201 590 c-1 -3 -17 -95 -36 -205 -36
-204 -42 -270 -26 -279 5 -3 17 56 26 132 10 75 28 164 40 197 19 54 20 65 9
110 -6 28 -12 48 -13 45z"/>
</g>
</svg>
