<?xml version="1.0" standalone="no"?>
<!DOCTYPE svg PUBLIC "-//W3C//DTD SVG 20010904//EN"
 "http://www.w3.org/TR/2001/REC-SVG-20010904/DTD/svg10.dtd">
<svg version="1.0" xmlns="http://www.w3.org/2000/svg"
 width="13.000000pt" height="41.000000pt" viewBox="0 0 13.000000 41.000000"
 preserveAspectRatio="xMidYMid meet">
<metadata>
Created by potrace 1.14, written by Peter Selinger 2001-2017
</metadata>
<g transform="translate(0.000000,41.000000) scale(0.100000,-0.100000)"
fill="#000000" stroke="none">
<path fill="#000000" stroke="none" d="M60 398 c0 -7 -12 -25 -27 -40 -27 -28
-27 -30 -29 -182 -1 -84 2 -160 7 -167 16 -26 34 9 40 79 l6 67 1 -77 c2 -69
4 -78 21 -78 16 0 19 11 24 89 3 50 10 99 16 110 17 31 14 106 -5 122 -12 9
-15 24 -11 51 5 35 3 38 -19 38 -13 0 -24 -5 -24 -12z"/>
</g>
</svg>
