<?xml version="1.0" standalone="no"?>
<!DOCTYPE svg PUBLIC "-//W3C//DTD SVG 20010904//EN"
 "http://www.w3.org/TR/2001/REC-SVG-20010904/DTD/svg10.dtd">
<svg version="1.0" xmlns="http://www.w3.org/2000/svg"
 width="19.000000pt" height="55.000000pt" viewBox="0 0 19.000000 55.000000"
 preserveAspectRatio="xMidYMid meet">
<metadata>
Created by potrace 1.14, written by Peter Selinger 2001-2017
</metadata>
<g transform="translate(0.000000,55.000000) scale(0.100000,-0.100000)"
fill="#000000" stroke="none">
<path fill="#000000" stroke="none" d="M127 520 c-11 -17 -34 -45 -52 -61 -35
-32 -75 -122 -75 -169 0 -16 9 -57 20 -92 11 -34 20 -91 20 -124 0 -55 2 -62
22 -67 29 -8 33 0 48 90 10 58 11 92 2 147 l-11 71 43 91 44 92 -22 26 -21 27
-18 -31z"/>
</g>
</svg>
