<?xml version="1.0" standalone="no"?>
<!DOCTYPE svg PUBLIC "-//W3C//DTD SVG 20010904//EN"
 "http://www.w3.org/TR/2001/REC-SVG-20010904/DTD/svg10.dtd">
<svg version="1.0" xmlns="http://www.w3.org/2000/svg"
 width="17.000000pt" height="53.000000pt" viewBox="0 0 17.000000 53.000000"
 preserveAspectRatio="xMidYMid meet">
<metadata>
Created by potrace 1.14, written by Peter Selinger 2001-2017
</metadata>
<g transform="translate(0.000000,53.000000) scale(0.100000,-0.100000)"
fill="#000000" stroke="none">
<path fill="#000000" stroke="none" d="M78 507 c-8 -12 -15 -39 -16 -61 -1
-21 -8 -48 -15 -60 -19 -30 -29 -103 -17 -126 13 -24 -4 -200 -21 -211 -7 -4
-9 -14 -6 -22 5 -13 12 -14 40 -5 37 11 45 31 48 118 1 24 4 16 9 -25 4 -33 4
-67 -1 -76 -6 -12 -2 -19 16 -27 20 -9 26 -8 33 6 5 9 12 96 16 192 l7 175
-30 67 c-17 37 -35 69 -40 72 -5 3 -15 -4 -23 -17z"/>
</g>
</svg>
