<?xml version="1.0" standalone="no"?>
<!DOCTYPE svg PUBLIC "-//W3C//DTD SVG 20010904//EN"
 "http://www.w3.org/TR/2001/REC-SVG-20010904/DTD/svg10.dtd">
<svg version="1.0" xmlns="http://www.w3.org/2000/svg"
 width="18.000000pt" height="61.000000pt" viewBox="0 0 18.000000 61.000000"
 preserveAspectRatio="xMidYMid meet">
<metadata>
Created by potrace 1.14, written by Peter Selinger 2001-2017
</metadata>
<g transform="translate(0.000000,61.000000) scale(0.100000,-0.100000)"
fill="#000000" stroke="none">
<path fill="#000000" stroke="none" d="M0 577 c0 -20 7 -41 18 -50 13 -12 17
-27 14 -57 -2 -22 -8 -37 -13 -34 -5 3 -12 -3 -16 -12 -4 -10 -2 -19 5 -22 8
-2 12 -27 12 -66 0 -34 5 -67 11 -73 8 -8 5 -24 -10 -58 -29 -65 -30 -190 -3
-197 16 -4 21 4 32 46 17 67 29 90 30 54 0 -14 3 -33 6 -41 3 -9 -3 -16 -15
-20 -33 -8 -24 -27 13 -27 18 0 48 -3 66 -7 l33 -6 -7 51 c-3 27 -15 76 -26
108 -22 64 -26 154 -8 187 17 33 12 147 -9 169 -20 23 -33 8 -33 -39 0 -38 -9
-46 -34 -28 -22 17 -16 55 14 85 17 17 18 23 8 39 -12 20 -37 31 -70 31 -14 0
-18 -8 -18 -33z"/>
</g>
</svg>
