<?xml version="1.0" standalone="no"?>
<!DOCTYPE svg PUBLIC "-//W3C//DTD SVG 20010904//EN"
 "http://www.w3.org/TR/2001/REC-SVG-20010904/DTD/svg10.dtd">
<svg version="1.0" xmlns="http://www.w3.org/2000/svg"
 width="117.000000pt" height="401.000000pt" viewBox="0 0 117.000000 401.000000"
 preserveAspectRatio="xMidYMid meet">
<metadata>
Created by potrace 1.14, written by Peter Selinger 2001-2017
</metadata>
<g transform="translate(0.000000,401.000000) scale(0.100000,-0.100000)"
fill="#000000" stroke="none">
<path fill="#000000" stroke="none" d="M356 3995 c-52 -15 -81 -37 -122 -96
-24 -35 -27 -48 -31 -166 l-6 -128 69 -18 c38 -11 75 -21 83 -23 11 -4 13 -25
7 -117 -4 -61 -12 -117 -17 -124 -6 -6 -24 -15 -40 -18 -17 -4 -62 -33 -102
-65 -145 -118 -135 -104 -168 -227 l-30 -113 16 -139 c8 -77 15 -195 15 -263
-1 -146 23 -493 50 -743 12 -102 20 -248 20 -337 0 -143 3 -173 36 -325 l36
-168 -5 -255 c-4 -252 -4 -257 -41 -415 -20 -88 -34 -170 -31 -183 11 -43 50
-72 97 -72 42 1 44 2 103 82 33 45 176 207 318 361 141 153 263 288 271 300
18 30 29 90 15 81 -7 -4 -9 0 -5 12 3 11 17 69 31 129 14 61 28 117 30 125 4
11 -9 22 -43 36 -40 17 -59 19 -117 13 -82 -9 -105 -4 -105 21 0 10 -7 20 -15
24 -13 5 -13 10 -1 38 8 18 19 52 26 76 6 24 26 60 43 80 101 115 184 343 208
567 6 50 20 137 32 195 21 96 22 110 9 162 -12 50 -11 87 7 319 l21 263 43 45
c24 26 57 69 74 96 l30 50 -16 58 c-23 83 -78 145 -169 191 -172 86 -319 245
-330 358 -4 38 -19 80 -55 146 -43 81 -57 98 -108 133 -74 50 -74 50 -133 34z"/>
</g>
</svg>
