<?xml version="1.0" standalone="no"?>
<!DOCTYPE svg PUBLIC "-//W3C//DTD SVG 20010904//EN"
 "http://www.w3.org/TR/2001/REC-SVG-20010904/DTD/svg10.dtd">
<svg version="1.0" xmlns="http://www.w3.org/2000/svg"
 width="26.000000pt" height="79.000000pt" viewBox="0 0 26.000000 79.000000"
 preserveAspectRatio="xMidYMid meet">
<metadata>
Created by potrace 1.14, written by Peter Selinger 2001-2017
</metadata>
<g transform="translate(0.000000,79.000000) scale(0.100000,-0.100000)"
fill="#000000" stroke="none">
<path fill="#000000" stroke="none" d="M103 772 c-25 -12 -33 -22 -33 -43 0
-15 -7 -29 -15 -33 -8 -3 -25 -26 -37 -51 -21 -44 -22 -46 -5 -92 9 -27 17
-72 17 -101 0 -58 13 -106 66 -249 19 -52 34 -112 34 -135 0 -32 5 -46 19 -55
16 -10 20 -9 25 10 3 12 6 45 6 72 0 28 8 133 17 233 16 178 18 184 41 193 21
8 24 14 18 41 -3 17 -19 52 -35 77 -16 25 -34 65 -40 88 -15 54 -35 66 -78 45z"/>
</g>
</svg>
