<?xml version="1.0" standalone="no"?>
<!DOCTYPE svg PUBLIC "-//W3C//DTD SVG 20010904//EN"
 "http://www.w3.org/TR/2001/REC-SVG-20010904/DTD/svg10.dtd">
<svg version="1.0" xmlns="http://www.w3.org/2000/svg"
 width="62.000000pt" height="189.000000pt" viewBox="0 0 62.000000 189.000000"
 preserveAspectRatio="xMidYMid meet">
<metadata>
Created by potrace 1.14, written by Peter Selinger 2001-2017
</metadata>
<g transform="translate(0.000000,189.000000) scale(0.100000,-0.100000)"
fill="#000000" stroke="none">
<path fill="#000000" stroke="none" d="M270 1870 c-23 -17 -25 -26 -28 -119
l-4 -101 31 0 c52 0 48 -24 -12 -82 -54 -52 -55 -55 -90 -183 -20 -71 -39
-154 -42 -183 -7 -57 -11 -58 -67 -37 -9 4 -21 -11 -35 -45 l-21 -50 28 -20
c24 -17 32 -18 55 -8 22 10 29 9 45 -8 18 -18 18 -25 4 -149 -8 -71 -14 -195
-13 -275 1 -139 0 -148 -29 -221 -17 -42 -41 -127 -53 -189 l-22 -113 27 -24
c30 -25 96 -32 139 -12 22 10 25 20 36 122 14 124 85 485 98 498 5 5 29 -60
55 -144 34 -111 51 -188 62 -287 9 -74 23 -159 32 -187 l16 -53 47 0 48 0 11
52 c13 65 -26 456 -61 613 -28 123 -21 162 47 281 l46 82 0 128 c0 89 -6 165
-21 244 l-21 115 -70 72 -71 71 6 54 c5 59 -10 159 -27 170 -23 16 -120 8
-146 -12z"/>
</g>
</svg>
