<?xml version="1.0" standalone="no"?>
<!DOCTYPE svg PUBLIC "-//W3C//DTD SVG 20010904//EN"
 "http://www.w3.org/TR/2001/REC-SVG-20010904/DTD/svg10.dtd">
<svg version="1.0" xmlns="http://www.w3.org/2000/svg"
 width="13.000000pt" height="47.000000pt" viewBox="0 0 13.000000 47.000000"
 preserveAspectRatio="xMidYMid meet">
<metadata>
Created by potrace 1.14, written by Peter Selinger 2001-2017
</metadata>
<g transform="translate(0.000000,47.000000) scale(0.100000,-0.100000)"
fill="#000000" stroke="none">
<path fill="#000000" stroke="none" d="M15 437 c-15 -73 -15 -248 0 -284 8
-19 15 -48 15 -63 0 -15 3 -42 6 -59 6 -28 10 -31 45 -31 40 0 51 12 23 28
-13 7 -14 17 -5 67 6 32 11 91 11 131 0 40 5 76 10 79 19 12 10 42 -16 54 -21
9 -25 16 -20 36 7 27 -13 56 -45 68 -13 4 -19 -2 -24 -26z"/>
</g>
</svg>
