<?xml version="1.0" standalone="no"?>
<!DOCTYPE svg PUBLIC "-//W3C//DTD SVG 20010904//EN"
 "http://www.w3.org/TR/2001/REC-SVG-20010904/DTD/svg10.dtd">
<svg version="1.0" xmlns="http://www.w3.org/2000/svg"
 width="121.000000pt" height="350.000000pt" viewBox="0 0 121.000000 350.000000"
 preserveAspectRatio="xMidYMid meet">
<metadata>
Created by potrace 1.14, written by Peter Selinger 2001-2017
</metadata>
<g transform="translate(0.000000,350.000000) scale(0.100000,-0.100000)"
fill="#000000" stroke="none">
<path fill="#000000" stroke="none" d="M528 3467 l-97 -30 -11 -54 c-14 -68
-4 -191 21 -256 23 -58 25 -166 5 -206 -8 -15 -30 -36 -50 -46 -41 -22 -196
-187 -196 -208 0 -8 -29 -59 -64 -113 -58 -89 -68 -112 -96 -224 -29 -112 -32
-139 -31 -255 2 -98 7 -147 22 -198 11 -38 24 -99 28 -136 6 -58 14 -79 66
-162 32 -52 80 -123 106 -159 69 -95 93 -194 134 -553 l33 -291 -15 -145 c-18
-167 -25 -146 94 -302 l73 -95 61 -13 c33 -6 66 -14 74 -18 12 -4 15 4 15 32
0 32 3 36 23 33 15 -2 25 -13 32 -35 5 -18 12 -33 15 -33 10 0 38 100 46 160
4 30 10 61 14 68 4 9 27 -21 65 -85 75 -127 81 -133 124 -133 35 1 35 1 12 14
l-23 13 23 6 c13 4 35 7 49 7 15 1 34 13 49 31 l23 30 -46 132 c-45 128 -58
213 -38 244 10 16 92 53 118 53 l21 0 -18 93 c-10 50 -23 159 -29 240 -8 114
-15 157 -30 188 -17 32 -18 43 -9 60 6 12 12 60 13 107 l1 86 -61 19 -62 18
-6 272 c-4 150 -3 310 1 356 l8 83 36 -52 36 -52 22 88 c18 73 21 102 15 181
-5 67 -4 93 5 93 6 0 11 14 11 31 0 24 -13 46 -58 95 l-59 63 -10 97 -10 97
-74 67 c-69 63 -74 70 -72 106 0 22 18 91 39 154 20 63 37 125 36 136 -1 16 6
23 27 27 19 4 31 14 35 29 9 37 7 198 -4 217 -10 19 -69 31 -255 51 -110 12
-91 14 -207 -23z"/>
</g>
</svg>
