<?xml version="1.0" standalone="no"?>
<!DOCTYPE svg PUBLIC "-//W3C//DTD SVG 20010904//EN"
 "http://www.w3.org/TR/2001/REC-SVG-20010904/DTD/svg10.dtd">
<svg version="1.0" xmlns="http://www.w3.org/2000/svg"
 width="47.000000pt" height="167.000000pt" viewBox="0 0 47.000000 167.000000"
 preserveAspectRatio="xMidYMid meet">
<metadata>
Created by potrace 1.14, written by Peter Selinger 2001-2017
</metadata>
<g transform="translate(0.000000,167.000000) scale(0.100000,-0.100000)"
fill="#000000" stroke="none">
<path fill="#000000" stroke="none" d="M184 1661 c-17 -3 -47 -20 -68 -38 -39
-35 -47 -74 -26 -128 16 -42 1 -104 -35 -144 -52 -59 -70 -184 -44 -313 l11
-56 45 -5 c24 -2 46 -7 49 -10 3 -2 -5 -31 -17 -63 -19 -49 -23 -76 -20 -154
2 -115 18 -172 82 -310 38 -82 56 -141 84 -268 19 -90 35 -166 35 -169 0 -3 7
0 15 7 11 9 15 30 14 74 -1 62 30 173 52 187 20 12 -19 107 -50 123 -46 24
-55 54 -48 160 l5 96 94 147 c52 82 97 153 100 158 4 6 -17 96 -46 200 -50
177 -52 192 -38 216 13 24 13 31 -12 92 -14 36 -26 79 -26 97 0 31 -22 75 -49
98 -15 12 -54 14 -107 3z"/>
</g>
</svg>
