<?xml version="1.0" standalone="no"?>
<!DOCTYPE svg PUBLIC "-//W3C//DTD SVG 20010904//EN"
 "http://www.w3.org/TR/2001/REC-SVG-20010904/DTD/svg10.dtd">
<svg version="1.0" xmlns="http://www.w3.org/2000/svg"
 width="39.000000pt" height="147.000000pt" viewBox="0 0 39.000000 147.000000"
 preserveAspectRatio="xMidYMid meet">
<metadata>
Created by potrace 1.14, written by Peter Selinger 2001-2017
</metadata>
<g transform="translate(0.000000,147.000000) scale(0.100000,-0.100000)"
fill="#000000" stroke="none">
<path fill="#000000" stroke="none" d="M6 1418 c-12 -106 -6 -669 9 -767 7
-51 16 -95 19 -98 2 -2 14 0 26 7 11 6 30 8 40 5 17 -5 19 -15 17 -68 -2 -59
7 -219 19 -334 5 -48 9 -55 52 -86 62 -44 148 -78 178 -71 l24 6 0 608 0 608
-114 27 c-108 25 -117 29 -153 68 -21 23 -53 66 -72 95 -18 28 -34 52 -36 52
-1 0 -5 -24 -9 -52z"/>
</g>
</svg>
