<?xml version="1.0" standalone="no"?>
<!DOCTYPE svg PUBLIC "-//W3C//DTD SVG 20010904//EN"
 "http://www.w3.org/TR/2001/REC-SVG-20010904/DTD/svg10.dtd">
<svg version="1.0" xmlns="http://www.w3.org/2000/svg"
 width="15.000000pt" height="43.000000pt" viewBox="0 0 15.000000 43.000000"
 preserveAspectRatio="xMidYMid meet">
<metadata>
Created by potrace 1.14, written by Peter Selinger 2001-2017
</metadata>
<g transform="translate(0.000000,43.000000) scale(0.100000,-0.100000)"
fill="#000000" stroke="none">
<path fill="#000000" stroke="none" d="M58 408 c-22 -33 -30 -91 -29 -190 1
-53 -3 -100 -12 -120 -17 -43 -12 -65 19 -71 23 -4 24 -2 25 52 l1 56 10 -65
c5 -35 10 -66 12 -67 2 -2 11 0 20 3 15 6 17 16 11 75 -6 55 -3 79 14 127 21
63 18 107 -13 141 -8 9 -16 29 -18 45 -4 37 -21 43 -40 14z"/>
</g>
</svg>
