<?xml version="1.0" standalone="no"?>
<!DOCTYPE svg PUBLIC "-//W3C//DTD SVG 20010904//EN"
 "http://www.w3.org/TR/2001/REC-SVG-20010904/DTD/svg10.dtd">
<svg version="1.0" xmlns="http://www.w3.org/2000/svg"
 width="66.000000pt" height="229.000000pt" viewBox="0 0 66.000000 229.000000"
 preserveAspectRatio="xMidYMid meet">
<metadata>
Created by potrace 1.14, written by Peter Selinger 2001-2017
</metadata>
<g transform="translate(0.000000,229.000000) scale(0.100000,-0.100000)"
fill="#000000" stroke="none">
<path fill="#000000" stroke="none" d="M198 2259 c-16 -15 -28 -38 -28 -51 0
-31 -8 -41 -57 -68 -24 -13 -43 -29 -43 -36 0 -34 22 -63 62 -82 35 -16 88
-62 88 -75 0 -2 -30 -16 -67 -31 -52 -20 -74 -35 -96 -65 -28 -41 -34 -66 -17
-76 16 -10 11 -63 -15 -170 -31 -125 -31 -140 1 -230 19 -53 32 -75 46 -79 20
-5 20 -9 12 -123 -14 -183 -11 -337 10 -466 10 -65 20 -116 22 -114 2 2 8 149
13 326 6 178 12 326 15 328 3 3 10 2 17 -2 9 -6 10 -109 5 -449 -8 -481 -21
-630 -59 -701 -31 -57 -25 -81 22 -89 67 -10 124 7 180 55 28 24 56 57 63 74
6 16 18 34 25 38 22 14 16 105 -13 181 l-27 69 16 121 c9 66 21 176 27 244 6
68 18 142 26 165 16 46 53 190 78 308 l17 77 58 22 c87 32 88 35 63 252 -11
101 -18 199 -15 219 5 35 4 36 -54 62 l-58 26 -13 -107 c-10 -91 -10 -116 3
-168 22 -90 28 -166 16 -194 -9 -22 -10 -19 -10 24 -1 36 -8 60 -27 87 -29 42
-64 193 -64 277 0 29 7 66 15 82 9 17 11 30 6 30 -6 0 -15 9 -21 20 -9 17 -4
22 47 47 63 30 81 59 69 107 -5 20 -19 33 -50 47 -38 17 -44 23 -50 59 -3 23
-12 43 -19 45 -6 2 -52 5 -102 8 -87 4 -91 3 -117 -24z"/>
<path fill="#ffffff" stroke="none" d="M191 1889 c-12 -16 -33 -58 -46 -92
l-23 -62 -13 28 c-9 19 -10 40 -3 74 8 41 14 49 53 70 24 13 47 21 49 18 3 -3
-5 -19 -17 -36z"/>
</g>
</svg>
