<?xml version="1.0" standalone="no"?>
<!DOCTYPE svg PUBLIC "-//W3C//DTD SVG 20010904//EN"
 "http://www.w3.org/TR/2001/REC-SVG-20010904/DTD/svg10.dtd">
<svg version="1.0" xmlns="http://www.w3.org/2000/svg"
 width="22.000000pt" height="79.000000pt" viewBox="0 0 22.000000 79.000000"
 preserveAspectRatio="xMidYMid meet">
<metadata>
Created by potrace 1.14, written by Peter Selinger 2001-2017
</metadata>
<g transform="translate(0.000000,79.000000) scale(0.100000,-0.100000)"
fill="#000000" stroke="none">
<path fill="#000000" stroke="none" d="M5 745 c3 -27 9 -171 15 -320 14 -369
13 -364 57 -397 28 -22 47 -28 84 -28 26 0 51 5 54 10 4 6 -11 45 -32 88 -34
69 -38 87 -42 166 -2 49 3 115 9 148 11 51 11 60 -4 76 -11 13 -16 37 -16 79
0 59 -1 62 -59 130 -32 38 -61 76 -64 84 -3 8 -4 -8 -2 -36z"/>
</g>
</svg>
