<?xml version="1.0" standalone="no"?>
<!DOCTYPE svg PUBLIC "-//W3C//DTD SVG 20010904//EN"
 "http://www.w3.org/TR/2001/REC-SVG-20010904/DTD/svg10.dtd">
<svg version="1.0" xmlns="http://www.w3.org/2000/svg"
 width="93.000000pt" height="292.000000pt" viewBox="0 0 93.000000 292.000000"
 preserveAspectRatio="xMidYMid meet">
<metadata>
Created by potrace 1.14, written by Peter Selinger 2001-2017
</metadata>
<g transform="translate(0.000000,292.000000) scale(0.100000,-0.100000)"
fill="#000000" stroke="none">
<path fill="#000000" stroke="none" d="M840 2854 c-50 -59 -413 -414 -423
-414 -3 0 -10 38 -17 83 l-12 84 -54 31 c-51 29 -59 31 -100 22 -43 -10 -66
-28 -125 -105 -19 -23 -19 -25 -1 -108 l19 -84 -63 -31 c-35 -18 -64 -35 -64
-39 0 -5 7 -53 16 -108 8 -55 19 -142 25 -193 5 -51 13 -116 17 -144 l7 -52
108 -35 107 -35 73 36 73 36 52 163 c51 160 56 172 252 517 110 194 200 359
200 368 0 13 -27 75 -33 73 -1 0 -27 -29 -57 -65z"/>
<path fill="#000000" stroke="none" d="M143 1437 c-4 -6 -8 -94 -10 -196 -2
-137 1 -209 13 -273 l16 -86 -67 -209 -67 -208 51 -200 c58 -234 67 -247 166
-259 32 -3 60 -5 62 -2 2 2 -30 57 -71 121 l-75 118 36 71 c33 64 44 113 123
521 l86 450 -45 58 c-32 42 -54 60 -80 67 -20 5 -57 16 -84 24 -33 10 -49 11
-54 3z"/>
</g>
</svg>
