<?xml version="1.0" standalone="no"?>
<!DOCTYPE svg PUBLIC "-//W3C//DTD SVG 20010904//EN"
 "http://www.w3.org/TR/2001/REC-SVG-20010904/DTD/svg10.dtd">
<svg version="1.0" xmlns="http://www.w3.org/2000/svg"
 width="21.000000pt" height="63.000000pt" viewBox="0 0 21.000000 63.000000"
 preserveAspectRatio="xMidYMid meet">
<metadata>
Created by potrace 1.14, written by Peter Selinger 2001-2017
</metadata>
<g transform="translate(0.000000,63.000000) scale(0.100000,-0.100000)"
fill="#000000" stroke="none">
<path fill="#000000" stroke="none" d="M44 616 c-30 -13 -32 -17 -38 -87 -4
-41 -2 -150 4 -244 5 -93 10 -186 10 -205 0 -29 6 -39 36 -58 34 -22 40 -23
81 -12 24 7 48 20 52 29 19 34 22 110 8 201 -9 58 -12 140 -10 210 l4 115 -50
33 c-58 36 -55 36 -97 18z"/>
</g>
</svg>
