<?xml version="1.0" standalone="no"?>
<!DOCTYPE svg PUBLIC "-//W3C//DTD SVG 20010904//EN"
 "http://www.w3.org/TR/2001/REC-SVG-20010904/DTD/svg10.dtd">
<svg version="1.0" xmlns="http://www.w3.org/2000/svg"
 width="120.000000pt" height="458.000000pt" viewBox="0 0 120.000000 458.000000"
 preserveAspectRatio="xMidYMid meet">
<metadata>
Created by potrace 1.14, written by Peter Selinger 2001-2017
</metadata>
<g transform="translate(0.000000,458.000000) scale(0.100000,-0.100000)"
fill="#000000" stroke="none">
<path fill="#000000" stroke="none" d="M379 4525 c-95 -48 -107 -57 -124 -95
-10 -23 -31 -52 -47 -65 -20 -17 -46 -70 -96 -198 -65 -166 -68 -176 -54 -200
14 -23 13 -35 -18 -154 -18 -70 -35 -133 -37 -139 -3 -7 22 -16 64 -24 121
-22 169 -57 245 -176 35 -54 49 -87 59 -145 11 -62 19 -80 51 -115 48 -52 49
-75 10 -197 -18 -53 -32 -110 -32 -125 0 -40 -13 -54 -46 -50 -25 2 -31 -2
-39 -27 -8 -25 -17 -31 -55 -38 -74 -13 -73 -13 -35 -63 20 -26 43 -61 52 -78
22 -43 133 -184 179 -227 22 -19 99 -71 172 -114 73 -42 134 -81 137 -85 7
-11 -300 -299 -379 -355 -94 -67 -102 -85 -99 -255 3 -188 23 -345 70 -555 32
-141 43 -215 51 -342 l10 -161 -67 -165 c-80 -193 -69 -172 -148 -269 -53 -63
-60 -77 -46 -82 10 -2 126 -7 258 -11 132 -3 251 -8 265 -10 22 -4 34 8 95 92
39 53 76 108 82 122 17 35 7 251 -18 401 -11 63 -57 277 -102 475 l-83 360 61
133 c55 121 65 136 115 175 51 41 65 63 214 336 l159 293 -6 347 c-6 316 -8
351 -26 396 -25 60 -151 516 -151 544 0 11 -36 77 -81 148 l-80 128 8 195 c4
107 8 221 8 253 l0 57 -148 60 c-191 77 -205 78 -348 5z"/>
</g>
</svg>
