<?xml version="1.0" standalone="no"?>
<!DOCTYPE svg PUBLIC "-//W3C//DTD SVG 20010904//EN"
 "http://www.w3.org/TR/2001/REC-SVG-20010904/DTD/svg10.dtd">
<svg version="1.0" xmlns="http://www.w3.org/2000/svg"
 width="23.000000pt" height="71.000000pt" viewBox="0 0 23.000000 71.000000"
 preserveAspectRatio="xMidYMid meet">
<metadata>
Created by potrace 1.14, written by Peter Selinger 2001-2017
</metadata>
<g transform="translate(0.000000,71.000000) scale(0.100000,-0.100000)"
fill="#000000" stroke="none">
<path fill="#000000" stroke="none" d="M100 697 c-27 -14 -28 -25 -9 -73 11
-28 10 -34 -13 -65 -31 -41 -35 -53 -58 -182 -11 -60 -15 -104 -9 -108 5 -3
16 -59 25 -125 20 -152 24 -160 39 -94 21 93 98 271 124 284 21 12 22 19 24
140 l2 128 -27 16 c-20 12 -28 24 -28 44 0 17 -7 31 -19 38 -24 12 -21 12 -51
-3z"/>
</g>
</svg>
