<?xml version="1.0" standalone="no"?>
<!DOCTYPE svg PUBLIC "-//W3C//DTD SVG 20010904//EN"
 "http://www.w3.org/TR/2001/REC-SVG-20010904/DTD/svg10.dtd">
<svg version="1.0" xmlns="http://www.w3.org/2000/svg"
 width="40.000000pt" height="118.000000pt" viewBox="0 0 40.000000 118.000000"
 preserveAspectRatio="xMidYMid meet">
<metadata>
Created by potrace 1.14, written by Peter Selinger 2001-2017
</metadata>
<g transform="translate(0.000000,118.000000) scale(0.100000,-0.100000)"
fill="#000000" stroke="none">
<path fill="#000000" stroke="none" d="M123 1168 c-39 -10 -48 -34 -48 -127 0
-55 3 -66 23 -78 29 -20 28 -29 -7 -59 -22 -19 -32 -39 -41 -82 -6 -31 -17
-84 -25 -117 -21 -88 -21 -280 0 -329 12 -29 16 -70 16 -165 0 -188 15 -211
130 -211 l38 0 -5 93 -4 92 19 -50 c11 -27 20 -62 20 -78 1 -27 1 -27 31 -12
16 8 38 15 48 15 17 0 20 10 26 77 3 42 6 136 6 208 0 114 3 139 22 181 18 42
21 68 22 180 0 130 0 132 -29 170 -16 22 -38 45 -50 53 -11 8 -37 31 -58 52
-34 33 -36 40 -27 65 15 38 3 83 -26 96 -13 6 -21 14 -19 18 8 13 -28 17 -62
8z"/>
</g>
</svg>
