<?xml version="1.0" standalone="no"?>
<!DOCTYPE svg PUBLIC "-//W3C//DTD SVG 20010904//EN"
 "http://www.w3.org/TR/2001/REC-SVG-20010904/DTD/svg10.dtd">
<svg version="1.0" xmlns="http://www.w3.org/2000/svg"
 width="16.000000pt" height="50.000000pt" viewBox="0 0 16.000000 50.000000"
 preserveAspectRatio="xMidYMid meet">
<metadata>
Created by potrace 1.14, written by Peter Selinger 2001-2017
</metadata>
<g transform="translate(0.000000,50.000000) scale(0.100000,-0.100000)"
fill="#000000" stroke="none">
<path fill="#000000" stroke="none" d="M86 475 c5 -20 -1 -34 -29 -64 -27 -30
-37 -52 -42 -88 -3 -26 -7 -62 -10 -79 -4 -33 17 -74 38 -74 26 0 57 -65 57
-118 0 -45 3 -52 20 -52 14 0 20 7 21 23 0 12 4 116 8 230 5 115 6 217 4 228
-4 14 -14 19 -39 19 -32 0 -34 -2 -28 -25z"/>
</g>
</svg>
