<?xml version="1.0" standalone="no"?>
<!DOCTYPE svg PUBLIC "-//W3C//DTD SVG 20010904//EN"
 "http://www.w3.org/TR/2001/REC-SVG-20010904/DTD/svg10.dtd">
<svg version="1.0" xmlns="http://www.w3.org/2000/svg"
 width="52.000000pt" height="178.000000pt" viewBox="0 0 52.000000 178.000000"
 preserveAspectRatio="xMidYMid meet">
<metadata>
Created by potrace 1.14, written by Peter Selinger 2001-2017
</metadata>
<g transform="translate(0.000000,178.000000) scale(0.100000,-0.100000)"
fill="#000000" stroke="none">
<path fill="#000000" stroke="none" d="M143 1759 c-38 -24 -43 -59 -18 -129 8
-23 15 -62 15 -86 0 -38 -4 -45 -30 -59 -21 -11 -42 -39 -70 -95 l-40 -79 6
-93 c7 -125 10 -138 35 -138 11 0 24 10 29 23 6 16 9 -4 9 -67 1 -69 5 -94 18
-108 13 -14 14 -21 5 -30 -24 -24 -12 -55 38 -102 27 -26 50 -54 50 -62 0 -8
4 -14 9 -14 10 0 114 125 160 192 17 26 41 52 51 58 26 14 25 31 -5 120 l-25
73 68 102 68 102 -17 61 c-22 79 -21 78 -71 86 -108 16 -148 29 -137 42 14 17
2 128 -18 167 -13 26 -27 35 -78 50 -12 4 -33 -2 -52 -14z"/>
<path fill="#000000" stroke="none" d="M240 201 c0 -16 9 -50 21 -76 11 -25
19 -48 17 -49 -1 -1 -22 -8 -45 -15 -24 -6 -43 -16 -43 -21 0 -24 61 -40 149
-40 82 0 91 2 105 22 33 47 23 61 -94 137 l-110 70 0 -28z"/>
</g>
</svg>
