<?xml version="1.0" standalone="no"?>
<!DOCTYPE svg PUBLIC "-//W3C//DTD SVG 20010904//EN"
 "http://www.w3.org/TR/2001/REC-SVG-20010904/DTD/svg10.dtd">
<svg version="1.0" xmlns="http://www.w3.org/2000/svg"
 width="78.000000pt" height="240.000000pt" viewBox="0 0 78.000000 240.000000"
 preserveAspectRatio="xMidYMid meet">
<metadata>
Created by potrace 1.14, written by Peter Selinger 2001-2017
</metadata>
<g transform="translate(0.000000,240.000000) scale(0.100000,-0.100000)"
fill="#000000" stroke="none">
<path fill="#000000" stroke="none" d="M305 2380 c-27 -10 -60 -19 -72 -19
-22 -1 -23 -5 -23 -90 0 -107 18 -166 62 -204 l32 -27 -81 -83 c-59 -59 -91
-103 -118 -157 -46 -91 -105 -243 -105 -267 0 -11 22 -40 48 -66 44 -43 52
-47 97 -47 45 0 54 -5 97 -46 38 -36 51 -56 63 -104 l15 -59 -35 -55 c-20 -31
-45 -58 -60 -63 l-25 -8 -3 -205 c-2 -113 1 -280 6 -371 10 -194 0 -249 -57
-309 -29 -31 -66 -103 -66 -130 0 -6 59 -10 150 -10 l150 0 0 48 c0 69 -18
258 -32 328 -8 47 -8 88 1 175 22 215 59 440 74 455 10 10 28 -95 40 -234 13
-141 13 -142 45 -170 29 -25 33 -34 43 -117 12 -105 4 -237 -20 -315 -17 -53
-17 -57 2 -112 26 -80 77 -121 139 -113 89 12 88 12 88 55 0 31 -10 52 -49
104 -73 96 -82 139 -71 316 5 80 10 163 10 184 l0 40 29 -28 29 -28 7 97 c7
86 5 104 -13 149 -57 140 -68 303 -31 449 18 71 27 88 67 131 l47 48 -35 -7
c-61 -12 -173 -70 -244 -127 -68 -55 -69 -55 -99 -40 -35 17 -43 6 72 95 64
49 156 175 167 226 10 52 45 161 54 166 4 3 -4 35 -18 72 -29 73 -64 103 -119
103 -29 0 -33 4 -39 35 -6 34 -7 35 -42 29 -40 -8 -40 -17 -3 121 l19 70 -25
55 c-13 30 -27 58 -31 62 -17 17 -89 17 -137 -2z"/>
</g>
</svg>
