<?xml version="1.0" standalone="no"?>
<!DOCTYPE svg PUBLIC "-//W3C//DTD SVG 20010904//EN"
 "http://www.w3.org/TR/2001/REC-SVG-20010904/DTD/svg10.dtd">
<svg version="1.0" xmlns="http://www.w3.org/2000/svg"
 width="49.000000pt" height="179.000000pt" viewBox="0 0 49.000000 179.000000"
 preserveAspectRatio="xMidYMid meet">
<metadata>
Created by potrace 1.14, written by Peter Selinger 2001-2017
</metadata>
<g transform="translate(0.000000,179.000000) scale(0.100000,-0.100000)"
fill="#000000" stroke="none">
<path fill="#000000" stroke="none" d="M68 1758 c-66 -60 -71 -76 -51 -149 17
-60 19 -63 64 -82 45 -19 46 -21 29 -36 -13 -11 -21 -41 -28 -101 -11 -93 -7
-136 16 -162 12 -14 14 -33 9 -85 -3 -38 -2 -88 3 -113 6 -35 4 -52 -10 -80
-25 -49 -42 -151 -35 -208 24 -196 28 -208 101 -389 41 -100 74 -195 74 -211
0 -27 -5 -32 -48 -46 -62 -21 -107 -57 -99 -80 6 -15 16 -16 69 -11 84 9 222
26 225 29 1 1 -5 31 -13 66 -12 52 -13 78 -4 135 6 38 15 117 20 174 9 101 9
104 -16 147 -24 41 -25 50 -19 116 9 92 19 123 51 170 27 38 27 41 16 110 -10
70 -10 72 22 137 46 92 50 114 30 175 -25 76 -115 224 -173 283 -49 50 -50 52
-40 89 9 32 7 45 -12 86 -24 51 -28 53 -99 63 -41 5 -48 3 -82 -27z"/>
</g>
</svg>
