<?xml version="1.0" standalone="no"?>
<!DOCTYPE svg PUBLIC "-//W3C//DTD SVG 20010904//EN"
 "http://www.w3.org/TR/2001/REC-SVG-20010904/DTD/svg10.dtd">
<svg version="1.0" xmlns="http://www.w3.org/2000/svg"
 width="37.000000pt" height="124.000000pt" viewBox="0 0 37.000000 124.000000"
 preserveAspectRatio="xMidYMid meet">
<metadata>
Created by potrace 1.14, written by Peter Selinger 2001-2017
</metadata>
<g transform="translate(0.000000,124.000000) scale(0.100000,-0.100000)"
fill="#000000" stroke="none">
<path fill="#000000" stroke="none" d="M194 1232 c-6 -4 -16 -41 -23 -82 -19
-113 -15 -107 -80 -114 -56 -6 -59 -8 -74 -46 l-15 -39 44 -28 c33 -21 44 -34
44 -53 0 -14 7 -35 15 -47 25 -36 52 -200 59 -358 l7 -150 -45 -106 c-54 -126
-52 -151 10 -186 44 -25 100 -28 154 -9 50 18 51 48 5 90 l-36 33 55 141 55
141 -3 168 -4 168 -56 113 -56 112 0 94 c0 69 -5 105 -17 131 -18 37 -21 39
-39 27z"/>
</g>
</svg>
