<?xml version="1.0" standalone="no"?>
<!DOCTYPE svg PUBLIC "-//W3C//DTD SVG 20010904//EN"
 "http://www.w3.org/TR/2001/REC-SVG-20010904/DTD/svg10.dtd">
<svg version="1.0" xmlns="http://www.w3.org/2000/svg"
 width="67.000000pt" height="234.000000pt" viewBox="0 0 67.000000 234.000000"
 preserveAspectRatio="xMidYMid meet">
<metadata>
Created by potrace 1.14, written by Peter Selinger 2001-2017
</metadata>
<g transform="translate(0.000000,234.000000) scale(0.100000,-0.100000)"
fill="#000000" stroke="none">
<path fill="#000000" stroke="none" d="M0 1796 l0 -541 78 -42 c48 -26 100
-66 139 -105 l61 -63 19 -153 19 -153 -21 -117 c-15 -81 -31 -136 -54 -180
l-32 -63 22 -59 c17 -48 39 -78 106 -147 47 -49 101 -107 120 -130 20 -24 38
-43 42 -43 3 0 19 20 34 45 l29 45 -7 264 -8 263 46 42 c61 57 81 116 72 214
-15 158 -45 304 -79 378 -18 41 -61 158 -95 261 -78 234 -122 303 -232 358
-50 26 -57 34 -68 72 -17 59 -16 103 2 173 l16 59 -39 51 c-57 74 -80 93 -127
103 l-43 10 0 -542z"/>
</g>
</svg>
