<?xml version="1.0" standalone="no"?>
<!DOCTYPE svg PUBLIC "-//W3C//DTD SVG 20010904//EN"
 "http://www.w3.org/TR/2001/REC-SVG-20010904/DTD/svg10.dtd">
<svg version="1.0" xmlns="http://www.w3.org/2000/svg"
 width="42.000000pt" height="147.000000pt" viewBox="0 0 42.000000 147.000000"
 preserveAspectRatio="xMidYMid meet">
<metadata>
Created by potrace 1.14, written by Peter Selinger 2001-2017
</metadata>
<g transform="translate(0.000000,147.000000) scale(0.100000,-0.100000)"
fill="#000000" stroke="none">
<path fill="#000000" stroke="none" d="M5 1283 c4 -121 12 -199 20 -218 8 -16
19 -49 25 -72 5 -22 25 -63 44 -90 54 -79 76 -129 76 -175 0 -24 9 -98 20
-166 17 -111 17 -127 4 -165 -14 -40 -13 -50 23 -209 32 -147 40 -168 60 -177
32 -15 33 -14 33 9 0 12 10 25 25 32 22 10 25 17 25 67 0 31 -6 109 -14 172
-17 132 -13 159 39 286 19 46 35 88 35 94 0 6 -38 60 -85 120 -48 61 -106 150
-132 203 -41 83 -51 96 -90 115 -30 15 -43 27 -43 42 0 11 -9 57 -21 102 -13
50 -21 109 -20 150 1 56 -1 67 -15 67 -15 0 -16 -17 -9 -187z"/>
</g>
</svg>
