<?xml version="1.0" standalone="no"?>
<!DOCTYPE svg PUBLIC "-//W3C//DTD SVG 20010904//EN"
 "http://www.w3.org/TR/2001/REC-SVG-20010904/DTD/svg10.dtd">
<svg version="1.0" xmlns="http://www.w3.org/2000/svg"
 width="75.000000pt" height="231.000000pt" viewBox="0 0 75.000000 231.000000"
 preserveAspectRatio="xMidYMid meet">
<metadata>
Created by potrace 1.14, written by Peter Selinger 2001-2017
</metadata>
<g transform="translate(0.000000,231.000000) scale(0.100000,-0.100000)"
fill="#000000" stroke="none">
<path fill="#000000" stroke="none" d="M315 2270 l-69 -39 -26 -83 c-15 -46
-60 -147 -102 -224 -85 -158 -98 -204 -98 -338 l0 -93 40 -18 c23 -10 43 -22
46 -26 2 -5 -18 -52 -45 -106 l-49 -99 11 -271 c9 -240 8 -280 -6 -354 -10
-46 -17 -93 -17 -105 0 -12 27 -90 60 -173 33 -84 60 -167 60 -186 0 -18 9
-58 21 -88 l21 -55 85 -7 c55 -5 88 -4 95 3 8 8 -15 37 -77 102 l-87 91 6 52
c3 29 13 135 21 237 16 182 17 187 72 343 31 86 60 157 64 157 5 0 9 -4 9 -8
0 -5 27 -67 61 -138 l61 -128 35 74 c19 41 43 98 54 125 11 28 29 69 41 91
l22 41 -27 74 c-26 73 -26 75 -12 154 8 44 15 87 15 96 0 9 -24 27 -61 44
l-61 30 5 43 c4 35 1 45 -15 56 -37 26 -10 38 32 15 34 -19 46 -21 91 -13 l52
9 29 92 28 93 -44 88 c-32 63 -49 114 -60 175 -15 85 -16 87 -102 196 -48 61
-92 111 -98 110 -6 0 -42 -18 -81 -39z"/>
<path fill="#ffffff" stroke="none" d="M365 1670 c4 -7 -8 -10 -32 -8 -21 1
-57 -2 -79 -6 -33 -6 -43 -4 -47 8 -6 14 5 16 73 16 43 0 82 -5 85 -10z"/>
<path fill="#000000" stroke="none" d="M468 136 l-27 -53 26 -12 c21 -10 28
-9 34 1 11 17 11 105 1 112 -5 3 -20 -19 -34 -48z"/>
<path fill="#000000" stroke="none" d="M690 73 c-8 -16 -16 -31 -17 -35 -2 -4
13 -14 33 -23 45 -19 50 -19 34 0 -7 8 -18 31 -24 50 l-12 35 -14 -27z"/>
</g>
</svg>
