<?xml version="1.0" standalone="no"?>
<!DOCTYPE svg PUBLIC "-//W3C//DTD SVG 20010904//EN"
 "http://www.w3.org/TR/2001/REC-SVG-20010904/DTD/svg10.dtd">
<svg version="1.0" xmlns="http://www.w3.org/2000/svg"
 width="18.000000pt" height="62.000000pt" viewBox="0 0 18.000000 62.000000"
 preserveAspectRatio="xMidYMid meet">
<metadata>
Created by potrace 1.14, written by Peter Selinger 2001-2017
</metadata>
<g transform="translate(0.000000,62.000000) scale(0.100000,-0.100000)"
fill="#000000" stroke="none">
<path fill="#000000" stroke="none" d="M60 610 c-22 -5 -25 -11 -25 -53 0 -33
-5 -50 -18 -59 -17 -12 -15 -16 18 -48 l35 -34 -1 -110 c0 -61 -4 -153 -7
-203 -6 -73 -4 -94 6 -98 35 -13 38 -6 34 98 l-3 102 34 -70 34 -70 6 93 c4
63 1 121 -9 179 -8 47 -12 98 -9 113 6 29 -6 58 -37 92 -10 10 -18 26 -18 36
0 28 -13 39 -40 32z"/>
</g>
</svg>
