<?xml version="1.0" standalone="no"?>
<!DOCTYPE svg PUBLIC "-//W3C//DTD SVG 20010904//EN"
 "http://www.w3.org/TR/2001/REC-SVG-20010904/DTD/svg10.dtd">
<svg version="1.0" xmlns="http://www.w3.org/2000/svg"
 width="30.000000pt" height="101.000000pt" viewBox="0 0 30.000000 101.000000"
 preserveAspectRatio="xMidYMid meet">
<metadata>
Created by potrace 1.14, written by Peter Selinger 2001-2017
</metadata>
<g transform="translate(0.000000,101.000000) scale(0.100000,-0.100000)"
fill="#000000" stroke="none">
<path fill="#000000" stroke="none" d="M100 992 c-19 -16 -21 -22 -11 -40 17
-32 0 -84 -45 -139 l-38 -46 -4 -189 c-4 -155 -2 -192 9 -199 20 -12 38 -108
26 -136 -7 -17 -4 -54 13 -133 13 -60 25 -110 26 -110 2 0 11 15 21 33 12 21
20 66 25 132 4 55 10 121 15 148 8 47 8 47 31 32 12 -9 22 -25 22 -35 0 -11 9
-24 20 -30 11 -6 20 -18 20 -27 0 -14 4 -13 20 5 12 12 27 22 35 22 8 0 15 9
15 21 0 25 -77 208 -97 231 -9 10 -18 54 -23 112 -6 61 -17 110 -30 135 -26
52 -25 59 5 71 28 11 45 46 45 93 -1 63 -52 88 -100 49z"/>
</g>
</svg>
