<?xml version="1.0" standalone="no"?>
<!DOCTYPE svg PUBLIC "-//W3C//DTD SVG 20010904//EN"
 "http://www.w3.org/TR/2001/REC-SVG-20010904/DTD/svg10.dtd">
<svg version="1.0" xmlns="http://www.w3.org/2000/svg"
 width="10.000000pt" height="36.000000pt" viewBox="0 0 10.000000 36.000000"
 preserveAspectRatio="xMidYMid meet">
<metadata>
Created by potrace 1.14, written by Peter Selinger 2001-2017
</metadata>
<g transform="translate(0.000000,36.000000) scale(0.100000,-0.100000)"
fill="#000000" stroke="none">
<path fill="#000000" stroke="none" d="M48 335 c-10 -13 -18 -28 -18 -32 0 -5
-6 -15 -12 -21 -18 -18 -23 -285 -5 -280 6 3 15 27 18 54 4 32 6 38 8 19 2
-41 12 -75 21 -75 4 0 15 44 25 97 18 102 16 194 -7 237 l-13 24 -17 -23z"/>
</g>
</svg>
