<?xml version="1.0" standalone="no"?>
<!DOCTYPE svg PUBLIC "-//W3C//DTD SVG 20010904//EN"
 "http://www.w3.org/TR/2001/REC-SVG-20010904/DTD/svg10.dtd">
<svg version="1.0" xmlns="http://www.w3.org/2000/svg"
 width="129.000000pt" height="424.000000pt" viewBox="0 0 129.000000 424.000000"
 preserveAspectRatio="xMidYMid meet">
<metadata>
Created by potrace 1.14, written by Peter Selinger 2001-2017
</metadata>
<g transform="translate(0.000000,424.000000) scale(0.100000,-0.100000)"
fill="#000000" stroke="none">
<path fill="#000000" stroke="none" d="M490 4224 c-228 -6 -425 -12 -438 -13
-21 -1 -19 -7 37 -119 l59 -117 -74 -88 -74 -89 0 -314 0 -315 34 -32 c19 -18
43 -39 55 -47 19 -14 22 -41 51 -430 17 -228 51 -578 75 -778 25 -200 75 -704
111 -1120 37 -416 68 -758 69 -760 4 -5 764 44 770 49 3 3 -1 185 -8 405 -12
346 -16 404 -32 433 -16 31 -16 45 -6 133 19 169 14 279 -18 405 -26 100 -27
111 -11 103 16 -9 17 -6 8 31 -7 27 -7 62 -1 107 6 38 7 122 4 192 l-7 125 98
271 98 271 0 295 c0 359 -8 426 -117 1005 l-78 413 -95 -2 c-52 0 -282 -7
-510 -14z"/>
</g>
</svg>
