<?xml version="1.0" standalone="no"?>
<!DOCTYPE svg PUBLIC "-//W3C//DTD SVG 20010904//EN"
 "http://www.w3.org/TR/2001/REC-SVG-20010904/DTD/svg10.dtd">
<svg version="1.0" xmlns="http://www.w3.org/2000/svg"
 width="38.000000pt" height="118.000000pt" viewBox="0 0 38.000000 118.000000"
 preserveAspectRatio="xMidYMid meet">
<metadata>
Created by potrace 1.14, written by Peter Selinger 2001-2017
</metadata>
<g transform="translate(0.000000,118.000000) scale(0.100000,-0.100000)"
fill="#000000" stroke="none">
<path fill="#000000" stroke="none" d="M180 1134 c-12 -27 -45 -73 -74 -104
-44 -46 -54 -64 -65 -115 -12 -58 -12 -63 13 -119 30 -68 32 -82 11 -102 -8
-9 -15 -28 -15 -44 0 -15 -6 -61 -14 -101 -21 -107 -29 -209 -16 -209 15 0 12
-155 -5 -225 -14 -58 -14 -61 7 -78 38 -32 52 -19 60 56 3 38 16 99 27 137
l21 68 42 -5 c24 -3 44 -6 45 -7 1 -1 5 -36 9 -79 5 -62 3 -90 -11 -138 -10
-32 -16 -61 -14 -63 2 -2 18 -1 35 1 28 4 34 12 58 69 25 63 26 70 26 273 0
146 -5 233 -15 290 l-16 81 29 82 c16 46 37 118 46 161 15 76 15 80 -5 127
-28 64 -46 79 -107 87 l-52 6 -20 -49z"/>
</g>
</svg>
