<?xml version="1.0" standalone="no"?>
<!DOCTYPE svg PUBLIC "-//W3C//DTD SVG 20010904//EN"
 "http://www.w3.org/TR/2001/REC-SVG-20010904/DTD/svg10.dtd">
<svg version="1.0" xmlns="http://www.w3.org/2000/svg"
 width="106.000000pt" height="355.000000pt" viewBox="0 0 106.000000 355.000000"
 preserveAspectRatio="xMidYMid meet">
<metadata>
Created by potrace 1.14, written by Peter Selinger 2001-2017
</metadata>
<g transform="translate(0.000000,355.000000) scale(0.100000,-0.100000)"
fill="#000000" stroke="none">
<path fill="#000000" stroke="none" d="M446 3499 c-53 -49 -56 -54 -95 -177
-21 -70 -47 -156 -57 -192 -22 -83 -35 -109 -94 -184 -69 -89 -144 -237 -175
-346 -26 -92 -27 -100 -22 -295 12 -491 41 -603 235 -933 l61 -102 9 -113 10
-112 67 -125 c92 -170 144 -298 154 -379 7 -56 16 -77 57 -135 38 -55 54 -92
79 -179 l30 -110 105 -58 c103 -57 106 -58 165 -52 33 3 63 8 67 12 4 3 10 31
14 61 5 42 1 73 -15 125 -18 61 -36 89 -136 214 l-115 144 0 462 c0 399 -2
464 -15 475 -9 7 -15 29 -15 53 l0 41 -50 -49 -50 -49 50 148 49 148 -19 38
-20 38 36 79 c20 43 49 132 66 198 33 131 33 127 10 575 -8 140 -11 148 -98
266 -30 40 -54 81 -54 91 0 21 41 149 57 178 6 11 14 47 18 80 l6 60 -121 78
c-66 42 -125 77 -129 77 -5 0 -34 -23 -65 -51z"/>
<path fill="#ffffff" stroke="none" d="M638 2318 c18 -51 32 -100 32 -108 0
-9 -18 -33 -39 -54 -46 -45 -36 -60 -76 114 -13 58 -20 106 -16 108 5 1 17 9
27 17 10 8 24 15 30 15 6 0 25 -42 42 -92z"/>
</g>
</svg>
