<?xml version="1.0" standalone="no"?>
<!DOCTYPE svg PUBLIC "-//W3C//DTD SVG 20010904//EN"
 "http://www.w3.org/TR/2001/REC-SVG-20010904/DTD/svg10.dtd">
<svg version="1.0" xmlns="http://www.w3.org/2000/svg"
 width="43.000000pt" height="132.000000pt" viewBox="0 0 43.000000 132.000000"
 preserveAspectRatio="xMidYMid meet">
<metadata>
Created by potrace 1.14, written by Peter Selinger 2001-2017
</metadata>
<g transform="translate(0.000000,132.000000) scale(0.100000,-0.100000)"
fill="#000000" stroke="none">
<path fill="#000000" stroke="none" d="M317 1302 c-10 -10 -17 -32 -17 -48 l0
-28 -16 22 c-13 19 -24 22 -88 22 -101 0 -123 -26 -94 -107 11 -31 10 -35 -24
-71 -33 -33 -37 -44 -41 -107 -3 -38 -11 -108 -18 -155 -17 -117 -17 -288 0
-319 23 -42 40 -132 41 -213 0 -62 3 -78 15 -78 16 0 35 -30 35 -57 0 -10 9
-29 20 -43 11 -14 20 -38 20 -55 1 -39 38 -67 82 -63 42 4 71 52 79 133 5 51
3 63 -14 82 -19 22 -19 22 12 185 17 90 31 169 31 176 0 9 -14 12 -47 10 -44
-3 -48 -1 -51 20 -4 30 21 58 78 87 l44 22 3 142 c2 127 1 142 -16 150 -11 7
-22 30 -29 63 -13 66 2 99 58 128 47 24 60 58 36 95 -20 31 -74 34 -99 7z"/>
</g>
</svg>
