<?xml version="1.0" standalone="no"?>
<!DOCTYPE svg PUBLIC "-//W3C//DTD SVG 20010904//EN"
 "http://www.w3.org/TR/2001/REC-SVG-20010904/DTD/svg10.dtd">
<svg version="1.0" xmlns="http://www.w3.org/2000/svg"
 width="21.000000pt" height="83.000000pt" viewBox="0 0 21.000000 83.000000"
 preserveAspectRatio="xMidYMid meet">
<metadata>
Created by potrace 1.14, written by Peter Selinger 2001-2017
</metadata>
<g transform="translate(0.000000,83.000000) scale(0.100000,-0.100000)"
fill="#000000" stroke="none">
<path fill="#000000" stroke="none" d="M89 823 c-21 -5 -67 -124 -81 -209 -9
-54 -8 -92 5 -198 9 -72 19 -162 22 -201 15 -208 17 -215 66 -215 50 0 59 24
59 161 1 144 22 332 40 354 16 19 -1 84 -33 129 -13 19 -22 49 -24 85 -7 101
-10 106 -54 94z"/>
</g>
</svg>
