<?xml version="1.0" standalone="no"?>
<!DOCTYPE svg PUBLIC "-//W3C//DTD SVG 20010904//EN"
 "http://www.w3.org/TR/2001/REC-SVG-20010904/DTD/svg10.dtd">
<svg version="1.0" xmlns="http://www.w3.org/2000/svg"
 width="21.000000pt" height="81.000000pt" viewBox="0 0 21.000000 81.000000"
 preserveAspectRatio="xMidYMid meet">
<metadata>
Created by potrace 1.14, written by Peter Selinger 2001-2017
</metadata>
<g transform="translate(0.000000,81.000000) scale(0.100000,-0.100000)"
fill="#000000" stroke="none">
<path fill="#000000" stroke="none" d="M145 792 c-16 -11 -36 -26 -43 -34 -17
-21 -18 -83 -2 -102 10 -13 9 -17 -6 -22 -64 -20 -82 -33 -87 -66 -2 -19 2
-45 10 -62 8 -15 12 -38 9 -50 -4 -17 4 -32 35 -62 56 -54 68 -80 62 -134 -3
-30 1 -59 11 -85 9 -21 24 -71 33 -110 l17 -70 7 45 c3 25 10 208 14 408 7
351 7 362 -11 362 -11 0 -32 -8 -49 -18z"/>
</g>
</svg>
