<?xml version="1.0" standalone="no"?>
<!DOCTYPE svg PUBLIC "-//W3C//DTD SVG 20010904//EN"
 "http://www.w3.org/TR/2001/REC-SVG-20010904/DTD/svg10.dtd">
<svg version="1.0" xmlns="http://www.w3.org/2000/svg"
 width="77.000000pt" height="238.000000pt" viewBox="0 0 77.000000 238.000000"
 preserveAspectRatio="xMidYMid meet">
<metadata>
Created by potrace 1.14, written by Peter Selinger 2001-2017
</metadata>
<g transform="translate(0.000000,238.000000) scale(0.100000,-0.100000)"
fill="#000000" stroke="none">
<path fill="#000000" stroke="none" d="M228 2373 c-16 -4 -18 -18 -18 -121 0
-111 -1 -117 -26 -143 -24 -26 -25 -30 -14 -66 7 -21 20 -47 30 -58 25 -29 33
-57 18 -67 -14 -8 -4 -18 102 -102 47 -36 309 -196 323 -196 2 0 7 18 11 40 9
59 -24 129 -91 190 l-54 50 20 80 c37 140 23 212 -57 293 -78 81 -123 107
-179 106 -26 -1 -56 -3 -65 -6z"/>
<path fill="#000000" stroke="none" d="M411 1521 l-27 -26 -13 -215 c-19 -321
-40 -391 -140 -465 -38 -28 -53 -49 -85 -122 -47 -105 -92 -181 -123 -206 -14
-11 -23 -29 -22 -45 0 -15 35 -96 78 -180 l77 -154 12 144 c6 78 21 176 32
217 11 41 20 88 20 105 0 49 11 78 26 72 8 -3 21 -9 30 -12 10 -5 17 0 21 15
3 11 8 21 12 21 3 0 20 -37 36 -82 23 -65 31 -108 36 -198 6 -99 13 -133 52
-250 l45 -135 59 -3 c66 -4 220 16 228 29 3 4 -20 27 -51 49 -76 57 -72 45
-130 385 -19 106 -30 373 -17 390 5 6 28 26 53 46 l45 36 -1 139 c-1 149 -21
341 -37 362 -19 24 -134 99 -161 104 -20 4 -34 -1 -55 -21z"/>
</g>
</svg>
