<?xml version="1.0" standalone="no"?>
<!DOCTYPE svg PUBLIC "-//W3C//DTD SVG 20010904//EN"
 "http://www.w3.org/TR/2001/REC-SVG-20010904/DTD/svg10.dtd">
<svg version="1.0" xmlns="http://www.w3.org/2000/svg"
 width="22.000000pt" height="68.000000pt" viewBox="0 0 22.000000 68.000000"
 preserveAspectRatio="xMidYMid meet">
<metadata>
Created by potrace 1.14, written by Peter Selinger 2001-2017
</metadata>
<g transform="translate(0.000000,68.000000) scale(0.100000,-0.100000)"
fill="#000000" stroke="none">
<path fill="#000000" stroke="none" d="M78 663 c-9 -10 -18 -35 -20 -55 -4
-38 -4 -38 32 -38 34 0 33 -1 -25 -25 -33 -14 -61 -25 -62 -25 -7 0 -2 -100 7
-129 5 -19 27 -53 47 -74 l38 -39 -31 15 -31 16 -12 -38 c-6 -21 -11 -80 -11
-131 l0 -92 25 4 c16 3 39 -5 67 -23 24 -16 49 -29 56 -29 17 0 15 62 -3 86
-8 10 -15 31 -15 45 0 26 39 107 68 141 12 15 13 29 2 100 -8 48 -19 88 -28
95 -12 10 -13 20 -6 45 9 29 5 41 -29 100 -22 38 -43 68 -47 68 -4 0 -14 -8
-22 -17z"/>
</g>
</svg>
