<?xml version="1.0" standalone="no"?>
<!DOCTYPE svg PUBLIC "-//W3C//DTD SVG 20010904//EN"
 "http://www.w3.org/TR/2001/REC-SVG-20010904/DTD/svg10.dtd">
<svg version="1.0" xmlns="http://www.w3.org/2000/svg"
 width="14.000000pt" height="42.000000pt" viewBox="0 0 14.000000 42.000000"
 preserveAspectRatio="xMidYMid meet">
<metadata>
Created by potrace 1.14, written by Peter Selinger 2001-2017
</metadata>
<g transform="translate(0.000000,42.000000) scale(0.100000,-0.100000)"
fill="#000000" stroke="none">
<path fill="#000000" stroke="none" d="M68 409 c-11 -6 -18 -22 -18 -42 0 -21
-9 -40 -25 -56 -24 -22 -25 -29 -25 -133 0 -100 2 -110 19 -115 12 -3 21 -15
23 -32 2 -21 9 -27 34 -29 29 -3 32 0 37 35 11 63 9 89 -5 75 -7 -7 -18 -12
-25 -12 -9 0 -8 11 6 43 10 23 23 56 29 72 5 17 12 37 16 45 4 9 -2 25 -15 38
-16 18 -18 26 -9 37 16 19 9 79 -10 82 -8 2 -23 -2 -32 -8z"/>
</g>
</svg>
