<?xml version="1.0" standalone="no"?>
<!DOCTYPE svg PUBLIC "-//W3C//DTD SVG 20010904//EN"
 "http://www.w3.org/TR/2001/REC-SVG-20010904/DTD/svg10.dtd">
<svg version="1.0" xmlns="http://www.w3.org/2000/svg"
 width="9.000000pt" height="32.000000pt" viewBox="0 0 9.000000 32.000000"
 preserveAspectRatio="xMidYMid meet">
<metadata>
Created by potrace 1.14, written by Peter Selinger 2001-2017
</metadata>
<g transform="translate(0.000000,32.000000) scale(0.100000,-0.100000)"
fill="#000000" stroke="none">
<path fill="#000000" stroke="none" d="M43 273 c2 -43 0 -48 -20 -51 -24 -4
-31 -18 -12 -24 30 -10 55 -178 27 -178 -9 0 -9 -3 -1 -11 7 -7 19 -9 29 -5
17 7 17 14 -2 134 -5 31 -2 53 11 81 19 44 11 94 -17 99 -13 3 -16 -6 -15 -45z"/>
</g>
</svg>
