<?xml version="1.0" standalone="no"?>
<!DOCTYPE svg PUBLIC "-//W3C//DTD SVG 20010904//EN"
 "http://www.w3.org/TR/2001/REC-SVG-20010904/DTD/svg10.dtd">
<svg version="1.0" xmlns="http://www.w3.org/2000/svg"
 width="33.000000pt" height="108.000000pt" viewBox="0 0 33.000000 108.000000"
 preserveAspectRatio="xMidYMid meet">
<metadata>
Created by potrace 1.14, written by Peter Selinger 2001-2017
</metadata>
<g transform="translate(0.000000,108.000000) scale(0.100000,-0.100000)"
fill="#000000" stroke="none">
<path fill="#000000" stroke="none" d="M51 1056 c-19 -21 -22 -30 -16 -70 8
-51 21 -60 31 -20 4 14 22 46 40 70 l34 44 -33 0 c-22 0 -41 -8 -56 -24z"/>
<path fill="#000000" stroke="none" d="M240 774 c0 -12 -14 -48 -31 -80 -25
-49 -31 -73 -35 -144 l-4 -85 20 94 c11 52 23 98 28 103 5 5 28 -14 51 -43 25
-28 47 -47 52 -42 5 5 -10 54 -36 113 -24 58 -44 95 -45 84z"/>
<path fill="#000000" stroke="none" d="M16 191 l-18 -119 26 -38 26 -39 0 158
c0 86 -4 157 -8 157 -5 0 -17 -54 -26 -119z"/>
</g>
</svg>
