<?xml version="1.0" standalone="no"?>
<!DOCTYPE svg PUBLIC "-//W3C//DTD SVG 20010904//EN"
 "http://www.w3.org/TR/2001/REC-SVG-20010904/DTD/svg10.dtd">
<svg version="1.0" xmlns="http://www.w3.org/2000/svg"
 width="52.000000pt" height="166.000000pt" viewBox="0 0 52.000000 166.000000"
 preserveAspectRatio="xMidYMid meet">
<metadata>
Created by potrace 1.14, written by Peter Selinger 2001-2017
</metadata>
<g transform="translate(0.000000,166.000000) scale(0.100000,-0.100000)"
fill="#000000" stroke="none">
<path fill="#000000" stroke="none" d="M260 1638 c-44 -28 -54 -40 -86 -107
l-26 -55 17 -55 c9 -31 22 -61 27 -68 18 -22 -19 -57 -94 -89 l-73 -31 -7 -79
c-7 -80 -8 -191 -5 -604 1 -124 -1 -286 -6 -360 l-7 -135 100 -28 99 -28 54
31 c75 42 83 55 90 133 7 72 19 92 78 119 24 10 27 19 33 77 4 36 20 130 36
209 35 165 38 279 15 510 -13 142 -14 144 -56 208 l-42 65 22 106 c11 59 20
107 18 109 -8 6 -146 94 -149 94 -2 0 -19 -10 -38 -22z"/>
</g>
</svg>
