<?xml version="1.0" standalone="no"?>
<!DOCTYPE svg PUBLIC "-//W3C//DTD SVG 20010904//EN"
 "http://www.w3.org/TR/2001/REC-SVG-20010904/DTD/svg10.dtd">
<svg version="1.0" xmlns="http://www.w3.org/2000/svg"
 width="59.000000pt" height="217.000000pt" viewBox="0 0 59.000000 217.000000"
 preserveAspectRatio="xMidYMid meet">
<metadata>
Created by potrace 1.14, written by Peter Selinger 2001-2017
</metadata>
<g transform="translate(0.000000,217.000000) scale(0.100000,-0.100000)"
fill="#000000" stroke="none">
<path fill="#000000" stroke="none" d="M133 2091 l-69 -80 -22 -148 c-14 -95
-22 -195 -22 -280 0 -129 1 -134 32 -198 l32 -65 -32 -104 -32 -104 33 -89 33
-89 -44 -164 -43 -165 15 -130 c24 -194 34 -232 68 -257 21 -14 38 -19 59 -14
16 3 29 2 29 -2 0 -4 -11 -47 -25 -97 -14 -49 -25 -92 -25 -95 0 -3 39 -2 88
1 48 3 117 3 154 -1 l67 -6 15 40 c18 46 17 48 -58 65 l-52 11 -22 133 -22
132 70 315 c55 248 70 332 70 396 l0 82 35 6 c19 4 35 11 35 16 0 5 -13 44
-30 86 l-30 78 44 -43 44 -43 31 45 c17 25 31 48 31 51 0 3 -37 63 -82 133
-44 71 -87 142 -93 158 -14 32 -30 149 -41 285 -5 73 -11 93 -43 147 -20 34
-45 64 -56 67 -56 16 -72 8 -142 -73z"/>
</g>
</svg>
