<?xml version="1.0" standalone="no"?>
<!DOCTYPE svg PUBLIC "-//W3C//DTD SVG 20010904//EN"
 "http://www.w3.org/TR/2001/REC-SVG-20010904/DTD/svg10.dtd">
<svg version="1.0" xmlns="http://www.w3.org/2000/svg"
 width="124.000000pt" height="393.000000pt" viewBox="0 0 124.000000 393.000000"
 preserveAspectRatio="xMidYMid meet">
<metadata>
Created by potrace 1.14, written by Peter Selinger 2001-2017
</metadata>
<g transform="translate(0.000000,393.000000) scale(0.100000,-0.100000)"
fill="#000000" stroke="none">
<path fill="#000000" stroke="none" d="M803 3915 c-43 -10 -66 -25 -138 -91
-80 -73 -91 -87 -141 -191 l-54 -113 42 -67 c22 -38 52 -92 64 -120 l24 -53
-73 -1 c-160 -2 -146 6 -307 -178 -138 -158 -144 -166 -156 -227 -8 -35 -16
-95 -18 -134 -3 -43 -10 -76 -19 -84 -8 -8 -18 -32 -22 -53 -6 -33 -4 -40 22
-60 15 -13 35 -25 43 -28 9 -3 39 -44 67 -93 l51 -87 -23 -130 c-18 -105 -24
-181 -28 -400 l-5 -270 62 -199 62 -199 -53 -236 c-45 -196 -59 -284 -84 -520
-16 -156 -28 -289 -26 -296 3 -6 25 -17 48 -24 24 -7 65 -24 91 -37 l48 -24
15 37 c9 21 25 78 35 128 10 50 28 112 40 139 14 35 44 205 101 575 43 289 82
541 86 560 5 32 9 25 50 -89 39 -113 46 -146 72 -360 27 -216 29 -253 24 -461
l-6 -225 89 -69 c49 -37 116 -94 149 -126 43 -42 73 -61 106 -70 42 -11 48
-10 92 15 26 16 47 29 47 31 0 2 -22 67 -49 144 l-50 141 -21 262 c-12 144
-23 265 -26 270 -3 4 -12 8 -20 8 -9 0 -38 10 -65 21 -76 33 -90 67 -92 232
-2 110 1 140 17 181 l20 48 21 -63 c17 -51 26 -66 48 -73 14 -5 30 -6 34 -2 4
4 -11 192 -33 419 -41 405 -41 412 -23 453 9 23 15 44 13 47 -3 3 15 53 40
112 25 59 43 111 40 116 -3 5 -1 9 4 9 11 0 82 155 82 179 0 10 -20 27 -54 44
l-55 26 67 140 c37 76 70 137 74 135 9 -6 74 199 82 258 l5 47 -52 17 c-45 14
-58 25 -96 78 -24 33 -48 76 -52 96 -5 19 -9 116 -10 215 0 99 -4 191 -8 204
-5 20 -22 29 -86 51 -73 24 -85 26 -132 15z"/>
<path fill="#ffffff" stroke="none" d="M634 2768 c3 -7 7 -59 10 -116 l6 -103
-41 -41 -40 -40 -47 18 c-73 28 -84 46 -77 131 3 40 10 87 16 105 6 18 12 39
15 46 2 8 27 12 79 12 52 0 77 -4 79 -12z"/>
<path fill="#ffffff" stroke="none" d="M578 2253 c46 -6 51 -13 26 -34 -30
-25 -194 -6 -194 22 0 5 12 11 28 15 15 3 32 7 37 9 6 2 21 2 35 -1 14 -2 44
-7 68 -11z"/>
</g>
</svg>
