<?xml version="1.0" standalone="no"?>
<!DOCTYPE svg PUBLIC "-//W3C//DTD SVG 20010904//EN"
 "http://www.w3.org/TR/2001/REC-SVG-20010904/DTD/svg10.dtd">
<svg version="1.0" xmlns="http://www.w3.org/2000/svg"
 width="33.000000pt" height="100.000000pt" viewBox="0 0 33.000000 100.000000"
 preserveAspectRatio="xMidYMid meet">
<metadata>
Created by potrace 1.14, written by Peter Selinger 2001-2017
</metadata>
<g transform="translate(0.000000,100.000000) scale(0.100000,-0.100000)"
fill="#000000" stroke="none">
<path fill="#000000" stroke="none" d="M273 963 c-9 -21 -16 -53 -17 -71 0
-23 -4 -31 -13 -28 -8 4 -13 -3 -13 -18 0 -13 -6 -29 -14 -35 -19 -16 -68 26
-95 83 -24 48 -45 70 -77 80 -29 9 -53 -19 -36 -42 6 -10 29 -46 51 -82 28
-45 52 -72 81 -88 27 -15 47 -36 56 -58 9 -22 23 -36 40 -40 25 -6 25 -9 21
-63 -3 -31 -8 -71 -12 -88 -6 -29 -5 -33 14 -33 11 0 21 -3 21 -7 0 -5 -9 -70
-21 -146 -20 -126 -20 -139 -6 -155 9 -10 24 -50 33 -90 10 -39 24 -74 31 -76
11 -4 13 64 13 373 0 458 -7 621 -27 621 -8 0 -21 -17 -30 -37z"/>
</g>
</svg>
