<?xml version="1.0" standalone="no"?>
<!DOCTYPE svg PUBLIC "-//W3C//DTD SVG 20010904//EN"
 "http://www.w3.org/TR/2001/REC-SVG-20010904/DTD/svg10.dtd">
<svg version="1.0" xmlns="http://www.w3.org/2000/svg"
 width="25.000000pt" height="75.000000pt" viewBox="0 0 25.000000 75.000000"
 preserveAspectRatio="xMidYMid meet">
<metadata>
Created by potrace 1.14, written by Peter Selinger 2001-2017
</metadata>
<g transform="translate(0.000000,75.000000) scale(0.100000,-0.100000)"
fill="#000000" stroke="none">
<path fill="#000000" stroke="none" d="M74 724 c12 -54 8 -109 -13 -179 -13
-42 -21 -98 -21 -140 0 -38 -8 -117 -18 -175 -14 -82 -16 -114 -8 -147 13 -50
19 -56 72 -71 59 -17 61 -16 85 29 l21 42 -21 57 c-15 42 -21 81 -21 146 l0
89 45 52 46 52 -11 83 c-15 122 -14 158 7 158 11 0 13 3 7 9 -5 5 -47 13 -93
17 l-83 7 6 -29z"/>
</g>
</svg>
