<?xml version="1.0" standalone="no"?>
<!DOCTYPE svg PUBLIC "-//W3C//DTD SVG 20010904//EN"
 "http://www.w3.org/TR/2001/REC-SVG-20010904/DTD/svg10.dtd">
<svg version="1.0" xmlns="http://www.w3.org/2000/svg"
 width="163.000000pt" height="529.000000pt" viewBox="0 0 163.000000 529.000000"
 preserveAspectRatio="xMidYMid meet">
<metadata>
Created by potrace 1.14, written by Peter Selinger 2001-2017
</metadata>
<g transform="translate(0.000000,529.000000) scale(0.100000,-0.100000)"
fill="#000000" stroke="none">
<path fill="#000000" stroke="none" d="M1050 5274 c-80 -7 -153 -13 -163 -13
-13 -1 -32 -32 -67 -107 -37 -77 -71 -131 -126 -198 -82 -98 -90 -113 -149
-281 -36 -106 -40 -112 -96 -159 -33 -27 -59 -53 -59 -58 0 -5 -35 -57 -78
-116 -72 -97 -81 -115 -101 -197 -12 -49 -28 -139 -36 -200 l-14 -110 36 -135
36 -135 -7 -199 -6 -199 -72 -176 c-39 -97 -88 -227 -109 -288 l-38 -113 80
-322 80 -323 10 -652 10 -652 -31 -272 c-17 -149 -28 -275 -23 -279 4 -4 80
-26 169 -49 l161 -41 199 1 c109 1 226 4 259 8 l60 6 2 55 c1 30 10 185 19
345 l16 290 80 320 c68 272 84 355 109 555 54 428 139 938 205 1245 33 147 37
202 20 245 -4 9 2 19 16 26 158 78 188 96 188 112 -2 65 -40 193 -73 245 -42
65 -43 69 -22 101 15 22 12 34 -46 197 l-62 173 12 74 c10 68 9 80 -15 165
-15 54 -34 99 -46 109 -11 10 -17 22 -13 28 11 17 6 424 -7 590 l-12 155 -58
122 c-43 91 -63 123 -76 122 -9 -1 -82 -7 -162 -15z"/>
</g>
</svg>
