<?xml version="1.0" standalone="no"?>
<!DOCTYPE svg PUBLIC "-//W3C//DTD SVG 20010904//EN"
 "http://www.w3.org/TR/2001/REC-SVG-20010904/DTD/svg10.dtd">
<svg version="1.0" xmlns="http://www.w3.org/2000/svg"
 width="21.000000pt" height="72.000000pt" viewBox="0 0 21.000000 72.000000"
 preserveAspectRatio="xMidYMid meet">
<metadata>
Created by potrace 1.14, written by Peter Selinger 2001-2017
</metadata>
<g transform="translate(0.000000,72.000000) scale(0.100000,-0.100000)"
fill="#000000" stroke="none">
<path fill="#000000" stroke="none" d="M73 703 c-23 -11 -32 -24 -36 -47 -2
-17 -12 -52 -23 -78 -16 -42 -17 -54 -6 -106 7 -34 12 -143 12 -265 0 -114 4
-207 9 -207 8 0 83 29 89 34 6 7 46 206 67 335 17 108 20 153 13 180 -15 58
-70 171 -82 170 -6 0 -25 -7 -43 -16z"/>
</g>
</svg>
