<?xml version="1.0" standalone="no"?>
<!DOCTYPE svg PUBLIC "-//W3C//DTD SVG 20010904//EN"
 "http://www.w3.org/TR/2001/REC-SVG-20010904/DTD/svg10.dtd">
<svg version="1.0" xmlns="http://www.w3.org/2000/svg"
 width="21.000000pt" height="68.000000pt" viewBox="0 0 21.000000 68.000000"
 preserveAspectRatio="xMidYMid meet">
<metadata>
Created by potrace 1.14, written by Peter Selinger 2001-2017
</metadata>
<g transform="translate(0.000000,68.000000) scale(0.100000,-0.100000)"
fill="#000000" stroke="none">
<path fill="#000000" stroke="none" d="M53 668 c-37 -49 -39 -96 -6 -181 l18
-48 -31 -57 c-32 -57 -32 -58 -32 -202 1 -80 5 -153 10 -162 6 -13 21 -18 57
-18 47 0 48 1 59 38 6 20 11 64 10 98 0 33 4 70 11 82 6 12 22 62 35 111 25
96 23 155 -6 221 -9 19 -22 55 -29 80 -13 41 -17 45 -50 48 -21 2 -40 -2 -46
-10z"/>
</g>
</svg>
