<?xml version="1.0" standalone="no"?>
<!DOCTYPE svg PUBLIC "-//W3C//DTD SVG 20010904//EN"
 "http://www.w3.org/TR/2001/REC-SVG-20010904/DTD/svg10.dtd">
<svg version="1.0" xmlns="http://www.w3.org/2000/svg"
 width="20.000000pt" height="59.000000pt" viewBox="0 0 20.000000 59.000000"
 preserveAspectRatio="xMidYMid meet">
<metadata>
Created by potrace 1.14, written by Peter Selinger 2001-2017
</metadata>
<g transform="translate(0.000000,59.000000) scale(0.100000,-0.100000)"
fill="#000000" stroke="none">
<path fill="#000000" stroke="none" d="M106 571 c-11 -12 -16 -27 -12 -37 4
-11 2 -15 -8 -11 -10 4 -23 -15 -45 -66 -30 -71 -30 -72 -10 -86 19 -14 19
-14 -6 -56 -24 -42 -24 -44 -6 -66 16 -20 17 -28 5 -83 -7 -34 -13 -83 -14
-109 0 -44 2 -48 22 -45 23 3 37 42 57 153 8 46 9 43 10 -45 1 -96 11 -134 30
-115 12 13 17 188 7 237 -8 36 -7 38 26 54 l35 16 -13 46 c-8 25 -14 63 -14
84 0 32 -4 40 -25 48 -27 10 -30 21 -16 48 5 9 6 25 2 35 -6 17 -8 17 -25 -2z"/>
</g>
</svg>
