<?xml version="1.0" standalone="no"?>
<!DOCTYPE svg PUBLIC "-//W3C//DTD SVG 20010904//EN"
 "http://www.w3.org/TR/2001/REC-SVG-20010904/DTD/svg10.dtd">
<svg version="1.0" xmlns="http://www.w3.org/2000/svg"
 width="28.000000pt" height="103.000000pt" viewBox="0 0 28.000000 103.000000"
 preserveAspectRatio="xMidYMid meet">
<metadata>
Created by potrace 1.14, written by Peter Selinger 2001-2017
</metadata>
<g transform="translate(0.000000,103.000000) scale(0.100000,-0.100000)"
fill="#000000" stroke="none">
<path fill="#000000" stroke="none" d="M117 1022 c-23 -5 -37 -41 -37 -97 0
-35 5 -48 26 -64 l25 -20 -27 -52 c-36 -72 -61 -152 -68 -224 -4 -33 -14 -92
-23 -132 l-16 -72 28 -43 c16 -24 36 -49 46 -56 45 -32 49 -42 49 -123 l0 -79
-30 0 c-26 0 -29 -3 -27 -31 l2 -30 65 7 c36 3 68 9 71 13 3 3 14 28 24 55 15
42 17 68 11 180 -6 124 -5 136 19 206 21 62 25 91 25 189 -1 139 -10 184 -46
222 -22 22 -26 34 -21 61 8 52 -45 102 -96 90z"/>
</g>
</svg>
