<?xml version="1.0" standalone="no"?>
<!DOCTYPE svg PUBLIC "-//W3C//DTD SVG 20010904//EN"
 "http://www.w3.org/TR/2001/REC-SVG-20010904/DTD/svg10.dtd">
<svg version="1.0" xmlns="http://www.w3.org/2000/svg"
 width="12.000000pt" height="41.000000pt" viewBox="0 0 12.000000 41.000000"
 preserveAspectRatio="xMidYMid meet">
<metadata>
Created by potrace 1.14, written by Peter Selinger 2001-2017
</metadata>
<g transform="translate(0.000000,41.000000) scale(0.100000,-0.100000)"
fill="#000000" stroke="none">
<path fill="#000000" stroke="none" d="M33 398 c-13 -15 -16 -56 -17 -246 -1
-72 -4 -132 -8 -132 -5 0 -8 -4 -8 -10 0 -16 60 -12 66 5 4 8 17 15 30 15 29
0 30 6 4 45 -21 32 -28 125 -10 125 17 0 12 126 -5 140 -8 7 -15 18 -15 24 0
7 -6 20 -13 30 -11 15 -15 15 -24 4z"/>
</g>
</svg>
