<?xml version="1.0" standalone="no"?>
<!DOCTYPE svg PUBLIC "-//W3C//DTD SVG 20010904//EN"
 "http://www.w3.org/TR/2001/REC-SVG-20010904/DTD/svg10.dtd">
<svg version="1.0" xmlns="http://www.w3.org/2000/svg"
 width="23.000000pt" height="73.000000pt" viewBox="0 0 23.000000 73.000000"
 preserveAspectRatio="xMidYMid meet">
<metadata>
Created by potrace 1.14, written by Peter Selinger 2001-2017
</metadata>
<g transform="translate(0.000000,73.000000) scale(0.100000,-0.100000)"
fill="#000000" stroke="none">
<path fill="#000000" stroke="none" d="M93 723 c-24 -3 -34 -11 -41 -31 -8
-22 -2 -42 34 -114 24 -48 44 -90 44 -92 0 -2 -22 -12 -48 -20 -83 -28 -96
-76 -67 -248 9 -56 25 -107 45 -145 19 -36 29 -48 25 -30 -3 15 -2 64 2 110 6
75 8 78 14 42 5 -22 8 -68 8 -102 1 -80 7 -93 41 -93 55 0 56 2 52 113 -2 56
-8 107 -13 112 -10 14 7 201 27 278 20 84 19 92 -27 127 -25 20 -38 38 -35 47
6 16 -10 54 -22 51 -4 0 -21 -3 -39 -5z"/>
</g>
</svg>
