<?xml version="1.0" standalone="no"?>
<!DOCTYPE svg PUBLIC "-//W3C//DTD SVG 20010904//EN"
 "http://www.w3.org/TR/2001/REC-SVG-20010904/DTD/svg10.dtd">
<svg version="1.0" xmlns="http://www.w3.org/2000/svg"
 width="31.000000pt" height="95.000000pt" viewBox="0 0 31.000000 95.000000"
 preserveAspectRatio="xMidYMid meet">
<metadata>
Created by potrace 1.14, written by Peter Selinger 2001-2017
</metadata>
<g transform="translate(0.000000,95.000000) scale(0.100000,-0.100000)"
fill="#000000" stroke="none">
<path fill="#000000" stroke="none" d="M158 943 c-10 -2 -18 -10 -18 -18 0 -7
-6 -17 -13 -23 -7 -6 -12 -28 -11 -49 2 -35 0 -39 -36 -54 -62 -27 -73 -54
-78 -190 -3 -78 0 -129 8 -151 7 -20 14 -107 16 -228 2 -107 3 -198 4 -203 0
-12 51 -28 70 -22 14 5 16 12 10 45 -4 22 -13 46 -20 54 -8 10 -10 29 -5 57 6
33 12 43 36 51 25 8 28 14 23 36 -4 17 3 10 20 -21 27 -50 33 -98 17 -140 -12
-31 0 -37 69 -37 46 0 74 15 53 29 -58 39 -58 40 -57 97 1 31 6 60 10 64 5 5
6 58 3 117 -3 73 -1 124 8 158 7 28 13 62 13 77 0 14 5 28 11 30 7 2 8 27 4
74 -7 64 -10 73 -36 88 -32 19 -40 64 -15 86 12 9 13 17 3 38 -18 41 -37 49
-89 35z"/>
</g>
</svg>
