<?xml version="1.0" standalone="no"?>
<!DOCTYPE svg PUBLIC "-//W3C//DTD SVG 20010904//EN"
 "http://www.w3.org/TR/2001/REC-SVG-20010904/DTD/svg10.dtd">
<svg version="1.0" xmlns="http://www.w3.org/2000/svg"
 width="15.000000pt" height="44.000000pt" viewBox="0 0 15.000000 44.000000"
 preserveAspectRatio="xMidYMid meet">
<metadata>
Created by potrace 1.14, written by Peter Selinger 2001-2017
</metadata>
<g transform="translate(0.000000,44.000000) scale(0.100000,-0.100000)"
fill="#000000" stroke="none">
<path fill="#000000" stroke="none" d="M35 431 c-3 -6 -4 -23 -3 -38 1 -16 -2
-35 -7 -43 -9 -14 -16 -68 -17 -120 -1 -56 24 -215 35 -222 7 -4 26 -8 42 -8
l30 1 -27 19 -26 20 14 61 c12 50 12 68 2 95 -14 40 -5 54 20 31 17 -15 20
-15 38 -1 13 10 15 17 7 20 -7 3 -24 15 -39 26 -22 18 -25 27 -21 54 3 19 1
36 -4 40 -5 3 -7 10 -3 15 10 16 -5 59 -21 59 -7 0 -16 -4 -20 -9z"/>
</g>
</svg>
