<?xml version="1.0" standalone="no"?>
<!DOCTYPE svg PUBLIC "-//W3C//DTD SVG 20010904//EN"
 "http://www.w3.org/TR/2001/REC-SVG-20010904/DTD/svg10.dtd">
<svg version="1.0" xmlns="http://www.w3.org/2000/svg"
 width="36.000000pt" height="108.000000pt" viewBox="0 0 36.000000 108.000000"
 preserveAspectRatio="xMidYMid meet">
<metadata>
Created by potrace 1.14, written by Peter Selinger 2001-2017
</metadata>
<g transform="translate(0.000000,108.000000) scale(0.100000,-0.100000)"
fill="#000000" stroke="none">
<path fill="#000000" stroke="none" d="M140 1065 c-41 -10 -46 -15 -68 -67
l-25 -57 29 -25 29 -25 -35 -36 c-23 -23 -40 -56 -50 -92 -19 -65 -10 -198 37
-552 l28 -213 120 6 c168 10 156 3 150 94 -3 42 -12 190 -21 327 -12 202 -20
266 -39 333 -20 68 -22 91 -15 136 8 48 5 78 -15 143 -9 29 -67 43 -125 28z"/>
</g>
</svg>
