<?xml version="1.0" standalone="no"?>
<!DOCTYPE svg PUBLIC "-//W3C//DTD SVG 20010904//EN"
 "http://www.w3.org/TR/2001/REC-SVG-20010904/DTD/svg10.dtd">
<svg version="1.0" xmlns="http://www.w3.org/2000/svg"
 width="30.000000pt" height="94.000000pt" viewBox="0 0 30.000000 94.000000"
 preserveAspectRatio="xMidYMid meet">
<metadata>
Created by potrace 1.14, written by Peter Selinger 2001-2017
</metadata>
<g transform="translate(0.000000,94.000000) scale(0.100000,-0.100000)"
fill="#000000" stroke="none">
<path fill="#000000" stroke="none" d="M119 921 c-23 -18 -25 -25 -21 -74 4
-54 4 -54 -36 -83 -34 -24 -42 -37 -51 -81 -9 -48 -8 -57 17 -110 l27 -58 -1
-257 -1 -258 61 0 62 0 28 217 c27 218 44 280 82 301 15 8 14 18 -5 112 -20
97 -23 104 -62 139 l-42 37 14 37 c13 36 12 38 -17 68 l-30 30 -25 -20z"/>
</g>
</svg>
