<?xml version="1.0" standalone="no"?>
<!DOCTYPE svg PUBLIC "-//W3C//DTD SVG 20010904//EN"
 "http://www.w3.org/TR/2001/REC-SVG-20010904/DTD/svg10.dtd">
<svg version="1.0" xmlns="http://www.w3.org/2000/svg"
 width="34.000000pt" height="122.000000pt" viewBox="0 0 34.000000 122.000000"
 preserveAspectRatio="xMidYMid meet">
<metadata>
Created by potrace 1.14, written by Peter Selinger 2001-2017
</metadata>
<g transform="translate(0.000000,122.000000) scale(0.100000,-0.100000)"
fill="#000000" stroke="none">
<path fill="#000000" stroke="none" d="M103 1190 c-29 -36 -29 -45 2 -127 l26
-67 -21 -28 c-12 -16 -36 -80 -55 -142 -38 -125 -39 -130 -26 -121 22 13 20
-17 -4 -71 -27 -60 -34 -110 -13 -98 8 5 9 0 3 -17 -5 -13 -10 -118 -12 -234
-4 -207 -3 -210 19 -237 20 -23 34 -28 113 -37 130 -16 135 -15 135 13 0 38
39 218 51 232 7 8 7 58 1 151 -6 99 -4 181 6 288 18 203 15 228 -37 274 -40
35 -41 37 -47 119 -8 102 -27 132 -82 131 -28 0 -42 -7 -59 -29z"/>
</g>
</svg>
