<?xml version="1.0" standalone="no"?>
<!DOCTYPE svg PUBLIC "-//W3C//DTD SVG 20010904//EN"
 "http://www.w3.org/TR/2001/REC-SVG-20010904/DTD/svg10.dtd">
<svg version="1.0" xmlns="http://www.w3.org/2000/svg"
 width="63.000000pt" height="181.000000pt" viewBox="0 0 63.000000 181.000000"
 preserveAspectRatio="xMidYMid meet">
<metadata>
Created by potrace 1.14, written by Peter Selinger 2001-2017
</metadata>
<g transform="translate(0.000000,181.000000) scale(0.100000,-0.100000)"
fill="#000000" stroke="none">
<path fill="#000000" stroke="none" d="M307 1777 c-61 -41 -66 -50 -76 -142
l-9 -74 -109 -123 -109 -123 23 -115 c21 -104 26 -118 60 -152 l36 -37 -17
-143 c-10 -79 -32 -207 -50 -286 -29 -132 -31 -150 -23 -235 8 -86 5 -171 -9
-278 l-6 -46 40 -10 40 -10 57 57 57 58 43 218 c24 127 44 211 48 199 30 -98
36 -156 26 -251 -9 -87 -18 -121 -66 -240 -8 -20 78 -24 149 -6 l67 16 36 112
35 112 0 375 0 374 38 102 39 103 -17 91 c-10 51 -20 108 -24 128 -5 27 -17
43 -52 67 -40 29 -53 48 -106 162 -34 72 -64 130 -67 129 -3 0 -28 -15 -54
-32z"/>
</g>
</svg>
