<?xml version="1.0" standalone="no"?>
<!DOCTYPE svg PUBLIC "-//W3C//DTD SVG 20010904//EN"
 "http://www.w3.org/TR/2001/REC-SVG-20010904/DTD/svg10.dtd">
<svg version="1.0" xmlns="http://www.w3.org/2000/svg"
 width="17.000000pt" height="52.000000pt" viewBox="0 0 17.000000 52.000000"
 preserveAspectRatio="xMidYMid meet">
<metadata>
Created by potrace 1.14, written by Peter Selinger 2001-2017
</metadata>
<g transform="translate(0.000000,52.000000) scale(0.100000,-0.100000)"
fill="#000000" stroke="none">
<path fill="#000000" stroke="none" d="M70 494 c-6 -14 -10 -27 -10 -29 0 -3
-14 -24 -31 -48 -27 -39 -30 -47 -19 -68 9 -15 11 -50 7 -108 -3 -58 0 -111
10 -162 l15 -77 45 15 c26 9 42 20 40 27 -9 23 13 187 29 218 21 40 14 147
-10 160 -11 6 -14 17 -10 33 14 55 -47 91 -66 39z"/>
</g>
</svg>
