<?xml version="1.0" standalone="no"?>
<!DOCTYPE svg PUBLIC "-//W3C//DTD SVG 20010904//EN"
 "http://www.w3.org/TR/2001/REC-SVG-20010904/DTD/svg10.dtd">
<svg version="1.0" xmlns="http://www.w3.org/2000/svg"
 width="18.000000pt" height="60.000000pt" viewBox="0 0 18.000000 60.000000"
 preserveAspectRatio="xMidYMid meet">
<metadata>
Created by potrace 1.14, written by Peter Selinger 2001-2017
</metadata>
<g transform="translate(0.000000,60.000000) scale(0.100000,-0.100000)"
fill="#000000" stroke="none">
<path fill="#000000" stroke="none" d="M51 578 c-5 -13 -14 -50 -20 -83 -7
-33 -17 -72 -23 -88 -9 -22 -6 -41 15 -100 14 -39 35 -119 47 -177 12 -58 26
-111 30 -119 9 -17 14 1 35 148 9 57 23 132 32 168 13 52 14 72 4 102 -6 21
-11 56 -11 78 0 53 -31 93 -71 93 -21 0 -32 -6 -38 -22z"/>
</g>
</svg>
