<?xml version="1.0" standalone="no"?>
<!DOCTYPE svg PUBLIC "-//W3C//DTD SVG 20010904//EN"
 "http://www.w3.org/TR/2001/REC-SVG-20010904/DTD/svg10.dtd">
<svg version="1.0" xmlns="http://www.w3.org/2000/svg"
 width="17.000000pt" height="59.000000pt" viewBox="0 0 17.000000 59.000000"
 preserveAspectRatio="xMidYMid meet">
<metadata>
Created by potrace 1.14, written by Peter Selinger 2001-2017
</metadata>
<g transform="translate(0.000000,59.000000) scale(0.100000,-0.100000)"
fill="#000000" stroke="none">
<path fill="#000000" stroke="none" d="M60 564 c-6 -14 -10 -28 -10 -32 0 -3
-9 -15 -20 -27 -22 -23 -41 -145 -23 -145 6 0 13 -21 16 -46 2 -26 11 -50 18
-55 21 -13 19 -147 -3 -179 -25 -37 -14 -73 20 -67 14 3 36 1 48 -3 33 -13 53
13 30 38 -9 10 -16 34 -15 53 0 51 25 179 36 190 10 10 -2 146 -16 163 -4 6
-9 31 -10 55 -1 24 -6 52 -12 63 -14 27 -48 23 -59 -8z"/>
</g>
</svg>
