<?xml version="1.0" standalone="no"?>
<!DOCTYPE svg PUBLIC "-//W3C//DTD SVG 20010904//EN"
 "http://www.w3.org/TR/2001/REC-SVG-20010904/DTD/svg10.dtd">
<svg version="1.0" xmlns="http://www.w3.org/2000/svg"
 width="9.000000pt" height="29.000000pt" viewBox="0 0 9.000000 29.000000"
 preserveAspectRatio="xMidYMid meet">
<metadata>
Created by potrace 1.14, written by Peter Selinger 2001-2017
</metadata>
<g transform="translate(0.000000,29.000000) scale(0.100000,-0.100000)"
fill="#000000" stroke="none">
<path fill="#000000" stroke="none" d="M7 279 c12 -16 26 -138 25 -221 -1 -32
3 -58 8 -58 6 0 10 13 10 29 0 15 9 40 20 54 17 22 18 26 5 37 -9 8 -15 30
-15 59 0 26 -5 52 -11 58 -6 6 -12 19 -13 29 -2 11 -11 21 -22 23 -14 3 -16 0
-7 -10z"/>
</g>
</svg>
