<?xml version="1.0" standalone="no"?>
<!DOCTYPE svg PUBLIC "-//W3C//DTD SVG 20010904//EN"
 "http://www.w3.org/TR/2001/REC-SVG-20010904/DTD/svg10.dtd">
<svg version="1.0" xmlns="http://www.w3.org/2000/svg"
 width="14.000000pt" height="45.000000pt" viewBox="0 0 14.000000 45.000000"
 preserveAspectRatio="xMidYMid meet">
<metadata>
Created by potrace 1.14, written by Peter Selinger 2001-2017
</metadata>
<g transform="translate(0.000000,45.000000) scale(0.100000,-0.100000)"
fill="#000000" stroke="none">
<path fill="#000000" stroke="none" d="M50 416 c0 -25 -6 -38 -24 -50 -21 -13
-24 -23 -25 -78 0 -34 5 -69 12 -76 7 -8 19 -60 27 -116 l16 -101 28 29 c19
19 25 30 17 35 -8 5 -4 25 14 71 30 77 36 218 10 240 -8 7 -17 27 -21 46 -5
27 -11 34 -30 34 -21 0 -24 -5 -24 -34z"/>
</g>
</svg>
