<?xml version="1.0" standalone="no"?>
<!DOCTYPE svg PUBLIC "-//W3C//DTD SVG 20010904//EN"
 "http://www.w3.org/TR/2001/REC-SVG-20010904/DTD/svg10.dtd">
<svg version="1.0" xmlns="http://www.w3.org/2000/svg"
 width="22.000000pt" height="76.000000pt" viewBox="0 0 22.000000 76.000000"
 preserveAspectRatio="xMidYMid meet">
<metadata>
Created by potrace 1.14, written by Peter Selinger 2001-2017
</metadata>
<g transform="translate(0.000000,76.000000) scale(0.100000,-0.100000)"
fill="#000000" stroke="none">
<path fill="#000000" stroke="none" d="M89 737 c-9 -19 -7 -31 5 -55 20 -39
20 -40 -6 -44 -29 -4 -65 -92 -47 -114 13 -16 5 -74 -22 -153 -11 -30 -19 -66
-19 -80 l0 -26 20 25 20 25 0 -50 c0 -27 7 -79 15 -115 14 -65 14 -65 -10 -83
-14 -10 -25 -27 -25 -38 0 -16 7 -19 43 -19 23 0 51 -3 63 -6 19 -5 22 0 28
58 3 35 13 88 21 118 8 30 15 75 15 101 0 25 4 49 9 55 5 5 11 69 12 142 l3
133 -28 23 c-26 20 -27 24 -15 44 22 34 2 76 -39 80 -26 3 -34 -1 -43 -21z"/>
</g>
</svg>
