<?xml version="1.0" standalone="no"?>
<!DOCTYPE svg PUBLIC "-//W3C//DTD SVG 20010904//EN"
 "http://www.w3.org/TR/2001/REC-SVG-20010904/DTD/svg10.dtd">
<svg version="1.0" xmlns="http://www.w3.org/2000/svg"
 width="44.000000pt" height="152.000000pt" viewBox="0 0 44.000000 152.000000"
 preserveAspectRatio="xMidYMid meet">
<metadata>
Created by potrace 1.14, written by Peter Selinger 2001-2017
</metadata>
<g transform="translate(0.000000,152.000000) scale(0.100000,-0.100000)"
fill="#000000" stroke="none">
<path fill="#000000" stroke="none" d="M234 1487 c-56 -43 -87 -134 -78 -225
l7 -62 -58 -87 -58 -87 -7 -106 c-4 -58 -15 -161 -25 -230 l-17 -125 55 -165
c31 -91 66 -218 78 -282 l24 -118 132 0 c103 0 133 3 133 13 0 7 -5 39 -10 70
-22 117 -28 230 -14 259 12 23 11 39 -7 120 -12 51 -32 117 -45 147 -21 47
-24 68 -24 187 0 187 22 324 64 394 57 94 57 95 41 126 -15 31 -20 97 -10 129
6 20 8 19 -135 72 -3 1 -24 -13 -46 -30z"/>
</g>
</svg>
