<?xml version="1.0" standalone="no"?>
<!DOCTYPE svg PUBLIC "-//W3C//DTD SVG 20010904//EN"
 "http://www.w3.org/TR/2001/REC-SVG-20010904/DTD/svg10.dtd">
<svg version="1.0" xmlns="http://www.w3.org/2000/svg"
 width="46.000000pt" height="142.000000pt" viewBox="0 0 46.000000 142.000000"
 preserveAspectRatio="xMidYMid meet">
<metadata>
Created by potrace 1.14, written by Peter Selinger 2001-2017
</metadata>
<g transform="translate(0.000000,142.000000) scale(0.100000,-0.100000)"
fill="#000000" stroke="none">
<path fill="#000000" stroke="none" d="M173 1405 c-30 -21 -51 -115 -34 -151
7 -16 17 -24 25 -21 11 5 12 -1 5 -26 -5 -18 -9 -33 -9 -34 0 -1 -17 -7 -38
-13 -53 -14 -77 -43 -102 -129 -21 -71 -21 -75 -4 -112 11 -26 24 -39 37 -39
17 0 19 -5 14 -37 -13 -79 -26 -233 -32 -363 l-5 -135 30 -32 c27 -28 76 -53
83 -42 1 2 12 24 24 49 l22 45 0 -41 1 -42 45 6 c37 4 45 2 45 -12 0 -10 -8
-16 -23 -16 -37 0 -67 -40 -67 -87 0 -22 -7 -59 -15 -82 l-14 -41 37 -25 c20
-14 39 -21 43 -17 3 4 20 59 38 122 25 92 31 134 31 212 0 68 -4 98 -12 101
-20 6 3 61 27 66 30 5 35 19 35 97 0 39 3 111 6 161 l7 90 36 -13 c48 -17 55
-3 40 83 -22 126 -40 163 -106 219 -57 49 -60 53 -42 67 29 25 35 83 14 143
-15 44 -22 53 -48 58 -47 9 -71 7 -94 -9z"/>
</g>
</svg>
