<?xml version="1.0" standalone="no"?>
<!DOCTYPE svg PUBLIC "-//W3C//DTD SVG 20010904//EN"
 "http://www.w3.org/TR/2001/REC-SVG-20010904/DTD/svg10.dtd">
<svg version="1.0" xmlns="http://www.w3.org/2000/svg"
 width="72.000000pt" height="207.000000pt" viewBox="0 0 72.000000 207.000000"
 preserveAspectRatio="xMidYMid meet">
<metadata>
Created by potrace 1.14, written by Peter Selinger 2001-2017
</metadata>
<g transform="translate(0.000000,207.000000) scale(0.100000,-0.100000)"
fill="#000000" stroke="none">
<path fill="#000000" stroke="none" d="M345 2041 c-48 -26 -50 -30 -60 -104
-5 -39 -10 -47 -23 -43 -9 3 -34 8 -54 11 -36 7 -37 6 -47 -32 -24 -91 -31
-132 -31 -200 0 -93 -26 -403 -45 -535 -21 -146 -20 -351 1 -384 12 -17 15
-36 10 -65 -5 -29 -2 -48 11 -69 16 -27 16 -30 0 -48 -9 -10 -17 -26 -17 -35
0 -9 -20 -84 -44 -167 -35 -124 -41 -152 -29 -158 12 -7 11 -18 -2 -73 -20
-87 -19 -106 6 -112 12 -3 101 12 198 34 236 54 217 46 192 73 -27 29 -27 35
8 150 17 60 24 96 17 96 -6 0 -45 -9 -86 -20 -67 -17 -76 -18 -91 -4 -19 17
-24 13 -33 -32 -10 -46 -47 -35 -85 25 -27 42 -30 53 -24 100 7 60 13 65 109
76 32 4 95 21 139 37 78 28 81 30 123 95 35 52 43 72 39 97 -4 27 2 37 53 83
48 43 62 66 93 140 56 137 56 142 4 207 -51 61 -47 53 -81 196 -34 148 -46
240 -55 437 -11 215 -19 235 -99 243 -44 5 -61 1 -97 -19z"/>
<path fill="#000000" stroke="none" d="M460 30 l-55 -20 44 4 c24 3 51 12 60
20 19 19 19 19 -49 -4z"/>
</g>
</svg>
