<?xml version="1.0" standalone="no"?>
<!DOCTYPE svg PUBLIC "-//W3C//DTD SVG 20010904//EN"
 "http://www.w3.org/TR/2001/REC-SVG-20010904/DTD/svg10.dtd">
<svg version="1.0" xmlns="http://www.w3.org/2000/svg"
 width="105.000000pt" height="346.000000pt" viewBox="0 0 105.000000 346.000000"
 preserveAspectRatio="xMidYMid meet">
<metadata>
Created by potrace 1.14, written by Peter Selinger 2001-2017
</metadata>
<g transform="translate(0.000000,346.000000) scale(0.100000,-0.100000)"
fill="#000000" stroke="none">
<path fill="#000000" stroke="none" d="M443 3441 l-102 -16 -89 -98 -88 -99 7
-51 c4 -29 8 -60 8 -69 1 -10 27 -31 64 -52 60 -34 63 -38 60 -68 -4 -39 -97
-435 -154 -658 -78 -304 -118 -512 -112 -578 3 -33 1 -74 -5 -92 -8 -23 -8
-45 -1 -81 11 -50 11 -50 31 -32 11 10 51 53 90 95 l69 77 -29 46 -29 46 59
167 c40 113 67 211 84 301 13 74 25 136 27 138 2 2 7 -52 11 -119 4 -79 14
-145 27 -184 l20 -61 -40 -164 c-21 -90 -37 -167 -35 -170 2 -4 36 -10 75 -13
61 -6 81 -14 130 -47 32 -21 61 -44 64 -50 9 -13 -43 -69 -63 -69 -32 0 -104
-46 -142 -91 -52 -62 -54 -90 -3 -54 12 9 40 22 63 30 l40 14 -22 -40 c-13
-21 -68 -92 -124 -156 l-101 -116 -7 -135 c-3 -74 -6 -178 -6 -231 0 -53 -3
-133 -7 -178 l-6 -83 -96 -71 c-53 -40 -100 -75 -105 -80 -5 -4 1 -20 12 -36
l21 -29 196 24 c108 13 199 22 201 20 2 -3 0 -33 -4 -69 -6 -53 -15 -74 -45
-113 -20 -27 -37 -52 -37 -56 0 -4 24 -23 53 -42 43 -30 64 -37 123 -43 l70
-7 100 111 100 110 -14 141 c-14 141 -14 145 28 618 l42 477 43 125 c43 124
43 127 49 295 6 183 3 174 66 216 l24 15 6 310 6 309 -32 70 c-27 62 -41 78
-112 134 -45 36 -99 72 -121 81 -50 19 -52 22 -81 90 -19 46 -23 70 -21 150
l2 96 -58 50 c-32 28 -62 53 -68 55 -5 3 -56 -2 -112 -10z"/>
</g>
</svg>
