<?xml version="1.0" standalone="no"?>
<!DOCTYPE svg PUBLIC "-//W3C//DTD SVG 20010904//EN"
 "http://www.w3.org/TR/2001/REC-SVG-20010904/DTD/svg10.dtd">
<svg version="1.0" xmlns="http://www.w3.org/2000/svg"
 width="10.000000pt" height="29.000000pt" viewBox="0 0 10.000000 29.000000"
 preserveAspectRatio="xMidYMid meet">
<metadata>
Created by potrace 1.14, written by Peter Selinger 2001-2017
</metadata>
<g transform="translate(0.000000,29.000000) scale(0.100000,-0.100000)"
fill="#000000" stroke="none">
<path fill="#000000" stroke="none" d="M43 273 c-3 -10 -15 -28 -26 -40 -16
-18 -18 -27 -10 -50 5 -15 7 -57 3 -93 -4 -36 -6 -67 -4 -68 4 -5 86 -23 89
-20 1 2 -1 37 -5 78 -3 41 -2 95 2 120 11 59 3 90 -23 90 -11 0 -22 -8 -26
-17z"/>
</g>
</svg>
