<?xml version="1.0" standalone="no"?>
<!DOCTYPE svg PUBLIC "-//W3C//DTD SVG 20010904//EN"
 "http://www.w3.org/TR/2001/REC-SVG-20010904/DTD/svg10.dtd">
<svg version="1.0" xmlns="http://www.w3.org/2000/svg"
 width="18.000000pt" height="68.000000pt" viewBox="0 0 18.000000 68.000000"
 preserveAspectRatio="xMidYMid meet">
<metadata>
Created by potrace 1.14, written by Peter Selinger 2001-2017
</metadata>
<g transform="translate(0.000000,68.000000) scale(0.100000,-0.100000)"
fill="#000000" stroke="none">
<path fill="#000000" stroke="none" d="M78 608 c-12 -40 -33 -90 -45 -111 -23
-37 -23 -39 -9 -121 13 -74 13 -97 -3 -224 -9 -78 -14 -142 -10 -142 4 0 14
-3 23 -6 13 -5 16 1 16 34 0 35 4 41 30 52 17 7 47 33 67 57 l36 44 -23 87
c-12 48 -34 102 -47 120 l-25 33 20 47 c14 33 19 60 15 88 -3 22 0 57 5 77 9
33 8 37 -8 37 -15 0 -24 -17 -42 -72z"/>
</g>
</svg>
