<?xml version="1.0" standalone="no"?>
<!DOCTYPE svg PUBLIC "-//W3C//DTD SVG 20010904//EN"
 "http://www.w3.org/TR/2001/REC-SVG-20010904/DTD/svg10.dtd">
<svg version="1.0" xmlns="http://www.w3.org/2000/svg"
 width="13.000000pt" height="47.000000pt" viewBox="0 0 13.000000 47.000000"
 preserveAspectRatio="xMidYMid meet">
<metadata>
Created by potrace 1.14, written by Peter Selinger 2001-2017
</metadata>
<g transform="translate(0.000000,47.000000) scale(0.100000,-0.100000)"
fill="#000000" stroke="none">
<path fill="#000000" stroke="none" d="M44 455 c-4 -8 -3 -31 0 -49 5 -26 3
-37 -9 -43 -8 -5 -20 -35 -27 -68 -10 -51 -9 -60 4 -69 14 -9 14 -12 1 -33
-12 -18 -14 -39 -8 -102 7 -84 12 -90 72 -91 18 0 23 7 27 43 21 169 25 318
11 390 -6 33 -11 37 -36 37 -17 0 -32 -6 -35 -15z"/>
</g>
</svg>
