<?xml version="1.0" standalone="no"?>
<!DOCTYPE svg PUBLIC "-//W3C//DTD SVG 20010904//EN"
 "http://www.w3.org/TR/2001/REC-SVG-20010904/DTD/svg10.dtd">
<svg version="1.0" xmlns="http://www.w3.org/2000/svg"
 width="136.000000pt" height="441.000000pt" viewBox="0 0 136.000000 441.000000"
 preserveAspectRatio="xMidYMid meet">
<metadata>
Created by potrace 1.14, written by Peter Selinger 2001-2017
</metadata>
<g transform="translate(0.000000,441.000000) scale(0.100000,-0.100000)"
fill="#000000" stroke="none">
<path fill="#000000" stroke="none" d="M210 4373 c0 -58 -34 -158 -69 -201
l-30 -39 37 -53 c76 -108 72 -98 53 -139 -29 -64 -73 -124 -140 -193 l-64 -67
16 -76 c9 -41 17 -105 17 -140 0 -92 64 -371 95 -410 12 -16 119 -151 237
-298 l215 -268 18 -102 c9 -56 30 -145 46 -197 17 -52 38 -158 48 -235 16
-115 28 -165 70 -280 28 -76 51 -146 51 -155 0 -8 9 -33 19 -56 15 -33 16 -44
6 -57 -27 -38 -26 -183 3 -374 l28 -181 -59 30 c-48 24 -61 27 -68 16 -5 -7
-24 -58 -43 -113 -42 -121 -50 -214 -36 -403 l10 -133 92 -117 c50 -64 94
-121 98 -125 5 -5 17 -6 29 -2 19 6 21 14 21 90 0 52 21 224 54 442 45 295 98
752 120 1023 12 155 77 721 95 827 12 68 41 204 66 304 l44 182 -19 28 c-11
15 -49 50 -84 79 -100 81 -93 114 57 280 33 36 73 92 89 124 29 57 30 61 14
85 -44 69 -119 230 -147 316 -37 118 -45 223 -30 399 6 71 9 131 6 134 -3 3
-193 22 -422 43 -230 20 -446 40 -480 43 l-63 7 0 -38z"/>
</g>
</svg>
