<?xml version="1.0" standalone="no"?>
<!DOCTYPE svg PUBLIC "-//W3C//DTD SVG 20010904//EN"
 "http://www.w3.org/TR/2001/REC-SVG-20010904/DTD/svg10.dtd">
<svg version="1.0" xmlns="http://www.w3.org/2000/svg"
 width="15.000000pt" height="57.000000pt" viewBox="0 0 15.000000 57.000000"
 preserveAspectRatio="xMidYMid meet">
<metadata>
Created by potrace 1.14, written by Peter Selinger 2001-2017
</metadata>
<g transform="translate(0.000000,57.000000) scale(0.100000,-0.100000)"
fill="#000000" stroke="none">
<path fill="#000000" stroke="none" d="M47 559 c-14 -8 -17 -18 -12 -36 4 -18
0 -32 -15 -48 -18 -19 -19 -23 -6 -28 9 -4 16 -18 16 -33 0 -14 6 -52 14 -83
8 -31 19 -90 25 -131 6 -41 21 -104 34 -139 l24 -64 6 39 c4 22 7 62 7 90 0
44 -3 52 -24 62 -18 8 -24 20 -29 58 -4 40 -2 50 17 65 11 10 27 18 34 19 8 0
12 19 12 60 0 56 -2 60 -30 75 -28 15 -30 19 -24 52 5 25 3 38 -7 44 -17 11
-20 11 -42 -2z"/>
</g>
</svg>
