<?xml version="1.0" standalone="no"?>
<!DOCTYPE svg PUBLIC "-//W3C//DTD SVG 20010904//EN"
 "http://www.w3.org/TR/2001/REC-SVG-20010904/DTD/svg10.dtd">
<svg version="1.0" xmlns="http://www.w3.org/2000/svg"
 width="34.000000pt" height="122.000000pt" viewBox="0 0 34.000000 122.000000"
 preserveAspectRatio="xMidYMid meet">
<metadata>
Created by potrace 1.14, written by Peter Selinger 2001-2017
</metadata>
<g transform="translate(0.000000,122.000000) scale(0.100000,-0.100000)"
fill="#000000" stroke="none">
<path fill="#000000" stroke="none" d="M44 1213 c-31 -6 -46 -45 -28 -72 8
-11 14 -35 12 -53 -2 -30 27 -98 42 -98 3 0 5 -55 6 -123 0 -82 6 -146 18
-194 16 -61 17 -81 7 -138 -7 -37 -10 -69 -9 -71 2 -2 15 17 28 41 14 25 28
45 31 45 14 0 15 -48 4 -153 l-11 -108 61 -142 61 -142 37 -3 37 -3 0 363 c0
209 -5 409 -12 471 l-11 108 -74 65 c-71 64 -73 67 -73 112 -1 42 -5 50 -37
75 -35 26 -46 29 -89 20z"/>
</g>
</svg>
