<?xml version="1.0" standalone="no"?>
<!DOCTYPE svg PUBLIC "-//W3C//DTD SVG 20010904//EN"
 "http://www.w3.org/TR/2001/REC-SVG-20010904/DTD/svg10.dtd">
<svg version="1.0" xmlns="http://www.w3.org/2000/svg"
 width="24.000000pt" height="71.000000pt" viewBox="0 0 24.000000 71.000000"
 preserveAspectRatio="xMidYMid meet">
<metadata>
Created by potrace 1.14, written by Peter Selinger 2001-2017
</metadata>
<g transform="translate(0.000000,71.000000) scale(0.100000,-0.100000)"
fill="#000000" stroke="none">
<path fill="#000000" stroke="none" d="M16 703 c-16 -4 -18 -12 -12 -56 3 -29
6 -183 6 -343 l0 -292 106 -7 c58 -4 110 -3 114 1 5 5 2 38 -5 74 -8 36 -14
82 -15 102 0 42 -32 144 -62 199 -19 34 -19 38 -4 82 17 51 18 42 -28 164 -14
37 -54 84 -70 82 -6 -1 -19 -3 -30 -6z"/>
</g>
</svg>
