<?xml version="1.0" standalone="no"?>
<!DOCTYPE svg PUBLIC "-//W3C//DTD SVG 20010904//EN"
 "http://www.w3.org/TR/2001/REC-SVG-20010904/DTD/svg10.dtd">
<svg version="1.0" xmlns="http://www.w3.org/2000/svg"
 width="96.000000pt" height="287.000000pt" viewBox="0 0 96.000000 287.000000"
 preserveAspectRatio="xMidYMid meet">
<metadata>
Created by potrace 1.14, written by Peter Selinger 2001-2017
</metadata>
<g transform="translate(0.000000,287.000000) scale(0.100000,-0.100000)"
fill="#000000" stroke="none">
<path fill="#000000" stroke="none" d="M785 2863 c-52 -11 -112 -47 -137 -83
-26 -36 -28 -45 -28 -142 0 -84 4 -108 19 -132 25 -37 20 -48 -39 -86 -63 -40
-143 -141 -226 -282 -62 -105 -114 -208 -114 -226 0 -9 185 -56 215 -55 11 0
52 10 92 22 69 21 72 23 88 65 17 44 19 46 162 146 24 16 45 40 48 53 4 15
-11 67 -45 152 -37 92 -53 148 -57 195 l-5 65 45 49 c29 32 56 50 78 55 26 5
39 16 58 50 35 63 22 98 -49 133 -55 27 -68 29 -105 21z"/>
<path fill="#000000" stroke="none" d="M324 1701 c-27 -17 -33 -30 -58 -130
-29 -117 -29 -143 -10 -385 4 -52 3 -66 -7 -61 -9 6 -11 -4 -7 -39 3 -26 7
-49 10 -51 2 -2 31 2 63 10 96 23 95 24 95 -44 0 -96 -42 -196 -142 -337 -123
-173 -134 -196 -197 -387 -32 -95 -61 -179 -65 -188 -5 -12 7 -25 48 -52 56
-37 56 -37 165 -37 l109 0 5 48 c8 89 48 215 87 272 48 72 79 156 79 216 0 29
13 87 31 139 23 68 35 132 50 265 11 96 33 252 50 345 37 211 37 205 1 205
-26 0 -30 4 -36 39 -3 22 -2 56 4 78 17 59 15 63 -27 63 -28 0 -45 7 -62 25
-20 22 -32 25 -89 25 -47 0 -75 -6 -97 -19z"/>
</g>
</svg>
