<?xml version="1.0" standalone="no"?>
<!DOCTYPE svg PUBLIC "-//W3C//DTD SVG 20010904//EN"
 "http://www.w3.org/TR/2001/REC-SVG-20010904/DTD/svg10.dtd">
<svg version="1.0" xmlns="http://www.w3.org/2000/svg"
 width="80.000000pt" height="242.000000pt" viewBox="0 0 80.000000 242.000000"
 preserveAspectRatio="xMidYMid meet">
<metadata>
Created by potrace 1.14, written by Peter Selinger 2001-2017
</metadata>
<g transform="translate(0.000000,242.000000) scale(0.100000,-0.100000)"
fill="#000000" stroke="none">
<path fill="#000000" stroke="none" d="M567 2379 c-64 -36 -74 -39 -145 -39
-43 0 -83 -4 -89 -8 -22 -14 -16 -104 16 -225 17 -65 31 -132 31 -149 0 -24
-18 -51 -86 -129 l-86 -98 26 -90 c22 -76 26 -110 27 -228 0 -76 4 -183 8
-238 7 -93 10 -104 47 -162 l39 -62 86 -1 c78 0 89 -3 122 -27 l36 -28 1 -84
c0 -66 -6 -104 -27 -168 l-27 -83 -77 0 c-74 0 -81 2 -160 48 -60 34 -85 55
-89 72 -4 16 -8 -2 -12 -51 -5 -63 -14 -91 -54 -172 l-48 -96 -41 6 -41 5 -12
-61 c-12 -59 -12 -63 13 -105 21 -36 51 -61 152 -126 69 -45 129 -78 133 -73
4 4 28 36 54 70 44 59 46 64 37 102 -8 37 -3 56 46 188 30 81 56 149 58 151 2
2 12 1 23 -2 13 -4 31 -38 57 -104 57 -144 144 -334 163 -355 9 -11 24 -23 32
-27 17 -9 17 -97 1 925 -4 297 -5 576 -2 620 5 59 2 100 -10 155 -10 41 -21
99 -25 128 -6 49 -11 56 -64 100 -51 41 -60 54 -73 104 l-14 56 52 100 c28 54
59 109 68 121 15 22 14 24 -18 52 -18 16 -39 29 -46 28 -8 0 -45 -18 -82 -40z"/>
</g>
</svg>
