<?xml version="1.0" standalone="no"?>
<!DOCTYPE svg PUBLIC "-//W3C//DTD SVG 20010904//EN"
 "http://www.w3.org/TR/2001/REC-SVG-20010904/DTD/svg10.dtd">
<svg version="1.0" xmlns="http://www.w3.org/2000/svg"
 width="21.000000pt" height="71.000000pt" viewBox="0 0 21.000000 71.000000"
 preserveAspectRatio="xMidYMid meet">
<metadata>
Created by potrace 1.14, written by Peter Selinger 2001-2017
</metadata>
<g transform="translate(0.000000,71.000000) scale(0.100000,-0.100000)"
fill="#000000" stroke="none">
<path fill="#000000" stroke="none" d="M92 648 c-24 -37 -49 -96 -62 -143 -12
-43 -24 -84 -26 -90 -3 -6 23 -24 56 -40 44 -21 60 -34 56 -45 -2 -8 -18 -48
-35 -89 -45 -106 -41 -175 10 -205 16 -10 27 -20 25 -24 -2 -4 11 -8 29 -9 43
-4 46 5 50 155 2 67 7 126 10 132 3 5 -1 87 -10 181 -12 138 -20 179 -36 206
-11 18 -22 33 -24 33 -1 0 -21 -28 -43 -62z"/>
</g>
</svg>
