<?xml version="1.0" standalone="no"?>
<!DOCTYPE svg PUBLIC "-//W3C//DTD SVG 20010904//EN"
 "http://www.w3.org/TR/2001/REC-SVG-20010904/DTD/svg10.dtd">
<svg version="1.0" xmlns="http://www.w3.org/2000/svg"
 width="11.000000pt" height="38.000000pt" viewBox="0 0 11.000000 38.000000"
 preserveAspectRatio="xMidYMid meet">
<metadata>
Created by potrace 1.14, written by Peter Selinger 2001-2017
</metadata>
<g transform="translate(0.000000,38.000000) scale(0.100000,-0.100000)"
fill="#000000" stroke="none">
<path fill="#000000" stroke="none" d="M17 366 c-3 -8 -3 -24 0 -35 3 -12 1
-21 -6 -21 -16 0 -13 -90 4 -120 8 -14 14 -52 15 -86 0 -47 5 -65 21 -82 11
-12 24 -20 28 -18 4 3 8 29 9 58 3 69 7 102 16 116 9 15 -27 163 -47 190 -13
16 -34 15 -40 -2z"/>
</g>
</svg>
