<?xml version="1.0" standalone="no"?>
<!DOCTYPE svg PUBLIC "-//W3C//DTD SVG 20010904//EN"
 "http://www.w3.org/TR/2001/REC-SVG-20010904/DTD/svg10.dtd">
<svg version="1.0" xmlns="http://www.w3.org/2000/svg"
 width="14.000000pt" height="44.000000pt" viewBox="0 0 14.000000 44.000000"
 preserveAspectRatio="xMidYMid meet">
<metadata>
Created by potrace 1.14, written by Peter Selinger 2001-2017
</metadata>
<g transform="translate(0.000000,44.000000) scale(0.100000,-0.100000)"
fill="#000000" stroke="none">
<path fill="#000000" stroke="none" d="M22 430 c-20 -9 -22 -16 -22 -88 0 -62
4 -85 19 -103 33 -43 49 -83 59 -153 16 -99 32 -108 30 -15 -2 58 2 80 17 103
16 25 17 33 7 72 -7 24 -12 78 -12 119 l0 75 -37 -1 c-21 0 -48 -4 -61 -9z"/>
</g>
</svg>
