<?xml version="1.0" standalone="no"?>
<!DOCTYPE svg PUBLIC "-//W3C//DTD SVG 20010904//EN"
 "http://www.w3.org/TR/2001/REC-SVG-20010904/DTD/svg10.dtd">
<svg version="1.0" xmlns="http://www.w3.org/2000/svg"
 width="260.000000pt" height="132.000000pt" viewBox="0 0 260.000000 132.000000"
 preserveAspectRatio="xMidYMid meet">
<metadata>
Created by potrace 1.14, written by Peter Selinger 2001-2017
</metadata>
<g transform="translate(0.000000,132.000000) scale(0.100000,-0.100000)"
fill="#000000" stroke="none">
<path fill="#000000" stroke="none" d="M560 1304 c-50 -11 -81 -12 -138 -4
-40 5 -96 10 -124 10 -73 0 -179 -34 -210 -67 -32 -35 -52 -94 -43 -132 3 -17
0 -44 -10 -67 -14 -36 -14 -45 0 -89 13 -44 13 -51 0 -61 -8 -6 -20 -34 -27
-62 -11 -49 -10 -53 12 -77 20 -21 33 -25 84 -26 34 0 79 -3 101 -7 l40 -8
-43 -17 c-23 -9 -65 -17 -92 -17 -44 0 -50 -3 -56 -24 -8 -34 22 -128 35 -109
7 10 211 0 341 -17 47 -7 139 -15 204 -20 l119 -7 41 -47 c28 -32 58 -53 96
-68 30 -11 375 -102 765 -203 611 -156 711 -180 716 -166 4 9 20 58 37 110
l31 93 -41 54 -41 55 7 97 c12 174 56 270 163 352 l72 55 -26 45 c-57 98 -103
159 -117 154 -8 -3 -88 2 -177 12 -137 14 -206 15 -414 8 -447 -15 -495 -13
-610 25 -72 23 -127 34 -195 38 l-95 6 -28 39 c-36 51 -163 133 -228 147 -60
13 -66 13 -149 -5z"/>
</g>
</svg>
