<?xml version="1.0" standalone="no"?>
<!DOCTYPE svg PUBLIC "-//W3C//DTD SVG 20010904//EN"
 "http://www.w3.org/TR/2001/REC-SVG-20010904/DTD/svg10.dtd">
<svg version="1.0" xmlns="http://www.w3.org/2000/svg"
 width="60.000000pt" height="30.000000pt" viewBox="0 0 60.000000 30.000000"
 preserveAspectRatio="xMidYMid meet">
<metadata>
Created by potrace 1.14, written by Peter Selinger 2001-2017
</metadata>
<g transform="translate(0.000000,30.000000) scale(0.100000,-0.100000)"
fill="#000000" stroke="none">
<path fill="#000000" stroke="none" d="M295 288 c-16 -6 -41 -20 -55 -32 -24
-20 -48 -35 -100 -63 -14 -7 -43 -13 -66 -13 -27 0 -47 -6 -57 -18 -19 -20
-23 -67 -7 -77 6 -3 10 -16 10 -29 0 -37 30 -56 90 -56 50 0 55 2 94 45 32 35
46 43 63 39 13 -4 31 -3 40 2 29 12 37 11 59 -8 17 -15 34 -18 89 -16 l67 3
38 95 c53 133 52 134 -111 137 -68 1 -137 -3 -154 -9z"/>
</g>
</svg>
