<?xml version="1.0" standalone="no"?>
<!DOCTYPE svg PUBLIC "-//W3C//DTD SVG 20010904//EN"
 "http://www.w3.org/TR/2001/REC-SVG-20010904/DTD/svg10.dtd">
<svg version="1.0" xmlns="http://www.w3.org/2000/svg"
 width="640.000000pt" height="316.000000pt" viewBox="0 0 640.000000 316.000000"
 preserveAspectRatio="xMidYMid meet">
<metadata>
Created by potrace 1.14, written by Peter Selinger 2001-2017
</metadata>
<g transform="translate(0.000000,316.000000) scale(0.100000,-0.100000)"
fill="#000000" stroke="none">
<path fill="#000000" stroke="none" d="M1161 3146 c-8 -10 -24 -12 -52 -9 -30
4 -44 1 -60 -13 -18 -16 -19 -26 -13 -100 l7 -81 -231 -1 c-259 -2 -253 -3
-256 72 -2 65 -28 90 -86 83 -59 -7 -98 -25 -105 -49 -4 -10 -13 -18 -22 -18
-8 0 -38 -19 -65 -42 -46 -38 -54 -41 -102 -39 -41 1 -56 -2 -71 -19 -12 -13
-31 -20 -57 -20 l-38 0 -2 -107 c-1 -60 -2 -124 -1 -143 1 -19 2 -91 1 -160
-1 -460 -2 -449 18 -471 16 -18 16 -24 -1 -89 -22 -88 -22 -309 0 -362 3 -9 2
-25 -4 -36 -8 -15 -7 -23 4 -32 10 -8 12 -17 6 -24 -6 -7 -10 -27 -10 -46 0
-19 -2 -123 -4 -230 -3 -135 -1 -197 7 -202 7 -5 7 -8 -2 -8 -10 0 -12 -12 -7
-50 4 -34 3 -50 -5 -50 -8 0 -9 -45 -4 -157 7 -157 7 -158 46 -232 44 -88 46
-101 16 -142 -21 -29 -23 -41 -23 -179 0 -131 2 -150 19 -169 24 -26 76 -28
107 -2 18 14 23 30 27 82 2 35 10 78 17 94 7 17 13 53 13 80 -1 28 3 85 7 128
6 65 5 80 -8 90 -10 8 -19 43 -25 107 -10 94 -10 95 16 130 15 19 38 51 51 70
13 19 40 51 60 70 47 45 131 144 131 156 0 5 20 23 45 39 24 17 45 36 45 43 0
6 9 12 19 12 11 0 45 15 76 34 49 29 61 33 88 25 18 -5 40 -9 49 -9 21 0 48
48 48 85 0 14 6 28 13 31 8 3 27 32 42 64 26 55 31 60 60 60 122 0 161 29 104
79 -40 35 -38 67 6 85 23 10 35 22 35 35 0 26 45 36 98 22 32 -9 41 -17 45
-40 4 -19 15 -32 36 -40 46 -20 49 -60 4 -61 -14 0 -43 -39 -43 -57 0 -7 17
-21 38 -32 43 -22 98 -80 112 -117 8 -20 17 -24 49 -24 48 0 66 19 66 71 l0
39 74 -2 c74 -3 75 -3 90 26 22 45 0 77 -69 98 -70 22 -120 48 -120 62 0 23
-51 86 -70 86 -13 0 -25 14 -38 43 -10 23 -26 48 -35 56 -15 12 -18 10 -23
-17 l-6 -30 -39 17 c-30 12 -43 26 -58 61 -34 77 -121 127 -173 99 -33 -18
-51 -68 -44 -121 l7 -48 -41 6 c-34 6 -45 2 -75 -20 -32 -25 -35 -31 -35 -82
l0 -54 -36 0 c-26 0 -43 -8 -66 -30 -28 -29 -34 -30 -114 -30 -74 0 -84 2 -84
18 0 10 -6 26 -13 36 -12 16 -23 17 -100 11 -66 -6 -87 -11 -87 -22 0 -8 -6
-13 -12 -10 -7 2 -12 12 -10 21 3 15 -3 19 -46 32 -10 3 -8 11 8 31 17 22 20
38 19 109 -2 56 2 88 11 98 9 12 10 19 1 30 -13 15 -4 76 11 76 17 0 60 39 76
68 8 15 14 43 13 62 -2 47 34 89 80 92 32 3 34 1 56 -57 27 -68 28 -70 66
-118 16 -21 31 -54 34 -76 7 -51 54 -91 107 -91 33 0 36 2 36 31 0 16 -5 62
-11 100 -13 85 -7 117 26 129 34 13 51 58 29 75 -9 6 -17 25 -17 41 -1 40 29
144 47 163 11 12 13 35 9 98 l-6 81 46 44 c29 29 50 60 58 89 7 24 16 46 19
49 4 3 15 20 26 38 17 30 22 33 54 27 19 -4 39 -10 43 -14 4 -4 13 -46 19 -92
12 -84 12 -85 53 -110 35 -22 45 -36 68 -100 17 -47 27 -94 27 -130 0 -30 6
-62 13 -71 15 -20 58 -30 76 -18 10 5 28 2 51 -10 30 -15 40 -28 50 -64 7 -26
16 -46 21 -46 4 0 28 12 53 28 47 29 56 44 56 105 0 32 11 69 26 86 2 2 37
-18 78 -45 71 -46 76 -51 82 -94 7 -42 34 -79 60 -80 6 0 52 -42 101 -93 90
-93 91 -94 103 -165 13 -69 14 -72 45 -78 53 -10 87 -1 109 29 18 24 21 44 22
135 3 156 2 151 22 148 14 -2 18 -15 20 -72 4 -82 19 -104 73 -104 40 0 37 3
109 -99 19 -27 36 -48 38 -46 3 2 -1 34 -7 71 -15 85 -2 104 70 104 81 0 81 1
39 -108 -21 -53 -35 -100 -32 -103 4 -3 40 -11 81 -18 88 -14 88 -14 105 -54
10 -21 15 -26 15 -14 1 10 6 15 12 12 5 -4 27 4 47 18 29 20 136 57 165 57 3
0 30 -35 60 -78 37 -51 62 -78 75 -78 18 0 17 6 -14 98 -38 113 -53 206 -35
218 7 4 23 5 35 3 21 -4 24 -15 47 -171 l25 -167 100 -3 c125 -3 128 -1 133
117 3 91 14 118 62 161 16 14 31 38 33 54 5 28 47 79 108 133 15 13 30 32 33
42 3 11 14 21 25 24 11 3 25 17 32 33 7 15 25 40 41 55 24 25 31 27 48 16 20
-11 20 -18 14 -125 -6 -100 -5 -115 11 -133 22 -24 76 -25 95 -1 43 53 59 148
40 234 -10 45 -1 55 24 28 10 -11 24 -20 30 -20 7 0 20 -12 30 -26 15 -23 15
-27 1 -43 -11 -12 -16 -37 -16 -77 -1 -71 -20 -154 -51 -216 -13 -26 -11 -74
4 -85 6 -6 35 -13 62 -16 78 -9 105 13 128 99 10 38 22 73 28 79 5 5 9 17 9
26 0 9 6 22 14 28 8 7 18 26 21 42 4 17 12 41 19 54 10 19 15 21 29 10 22 -16
21 -28 -3 -50 -11 -10 -20 -30 -20 -45 0 -27 36 -70 58 -70 6 0 15 -12 18 -27
4 -16 15 -44 26 -63 10 -19 18 -40 18 -46 0 -15 30 -75 48 -96 20 -24 74 -23
103 1 20 16 24 27 22 68 l-2 48 88 0 c52 0 94 5 102 12 24 19 48 -8 55 -63 9
-66 26 -84 81 -84 38 0 46 4 61 30 10 18 25 30 38 30 30 0 47 24 48 68 2 34 4
37 34 40 l32 3 0 -50 0 -49 53 -18 c65 -21 75 -29 80 -62 4 -25 4 -24 6 5 0
20 7 33 17 35 12 2 16 19 18 70 2 72 13 93 54 103 42 10 62 34 62 74 0 100 44
149 116 130 21 -6 43 -15 48 -20 6 -5 14 1 21 14 8 17 19 22 50 22 31 0 39 4
36 15 -2 8 -6 43 -8 76 -5 56 -3 63 16 73 12 7 43 11 69 9 l47 -3 1 -53 c1
-64 20 -90 52 -73 11 6 25 11 30 11 19 0 62 -117 62 -169 0 -34 4 -51 13 -51
6 0 33 -19 58 -43 39 -36 49 -54 72 -128 28 -90 44 -113 74 -107 12 2 23 -6
33 -27 22 -45 66 -95 84 -95 9 0 16 -8 16 -18 0 -53 93 -70 117 -22 10 19 13
149 13 551 0 445 -2 528 -14 538 -8 7 -14 24 -14 39 0 15 -6 46 -15 70 -13 39
-13 44 3 65 32 42 40 87 39 244 l0 155 -84 -3 c-81 -4 -84 -3 -90 19 -6 22 -8
23 -163 24 -837 3 -1625 2 -1628 -4 -5 -8 -324 -1 -347 7 -11 5 -237 1 -282
-4 -5 -1 -352 1 -770 5 l-760 6 -30 -40 c-22 -30 -39 -42 -65 -46 -37 -6 -69
-12 -110 -20 -71 -15 -174 -27 -187 -22 -11 5 -13 15 -8 45 4 23 2 48 -5 60
-10 20 -18 21 -230 21 -140 0 -220 -4 -220 -10 0 -5 -11 -10 -24 -10 -15 0
-33 -11 -45 -26 l-21 -26 -40 36 c-32 28 -48 36 -79 36 -21 0 -44 -6 -50 -14z"/>
<path fill="#ffffff" stroke="none" d="M2226 2938 c-9 -12 -16 -30 -16 -39 0
-13 -9 -16 -45 -15 -24 1 -48 5 -51 9 -11 11 -72 8 -79 -3 -3 -5 -30 -10 -59
-10 -35 0 -58 -5 -66 -15 -7 -8 -19 -15 -26 -15 -12 0 -12 4 -2 23 7 12 13 23
13 24 0 1 27 7 60 13 33 5 105 19 160 29 134 25 129 25 111 -1z"/>
<path fill="#ffffff" stroke="none" d="M3704 2858 c-16 -18 -39 -40 -51 -50
-13 -12 -24 -35 -28 -63 -4 -24 -16 -52 -26 -61 -22 -20 -25 -61 -6 -83 15
-17 12 -101 -4 -101 -9 0 -126 -77 -147 -97 -7 -7 -31 -13 -51 -13 -21 0 -52
-3 -68 -6 l-29 -6 3 67 c3 65 2 68 -31 99 -19 17 -46 55 -61 84 -14 28 -30 52
-36 52 -15 0 -10 26 7 41 9 7 20 22 24 33 6 17 15 20 53 17 50 -3 68 13 83 72
6 27 7 27 25 11 11 -9 19 -22 19 -27 0 -15 51 -119 68 -139 19 -22 85 -24 102
-3 7 8 14 41 17 72 3 31 12 73 21 94 l16 37 65 1 65 1 -30 -32z"/>
<path fill="#ffffff" stroke="none" d="M5650 2861 c19 -5 26 -15 28 -38 5 -51
34 -68 113 -67 58 1 73 5 94 24 14 13 27 31 30 42 4 10 18 21 33 24 15 3 33 8
40 10 8 2 81 7 163 10 173 6 186 0 122 -60 -29 -27 -47 -36 -75 -36 -24 0 -47
-8 -66 -25 -19 -15 -33 -21 -37 -15 -8 13 -68 13 -82 -1 -7 -7 -15 -2 -27 15
-23 36 -62 34 -144 -8 -37 -19 -107 -53 -157 -77 -49 -23 -97 -49 -106 -56
-15 -12 -22 -12 -55 2 -21 8 -43 14 -49 11 -16 -6 -27 4 -45 39 -9 17 -25 31
-38 33 -12 2 -22 9 -22 15 0 13 47 46 95 68 22 10 34 26 43 57 l14 42 51 -1
c29 -1 63 -4 77 -8z"/>
<path fill="#ffffff" stroke="none" d="M394 2784 c13 -35 7 -44 -34 -44 -45 0
-50 10 -20 40 24 24 46 26 54 4z"/>
<path fill="#ffffff" stroke="none" d="M2203 2743 c-7 -2 -21 -2 -30 0 -10 3
-4 5 12 5 17 0 24 -2 18 -5z"/>
<path fill="#ffffff" stroke="none" d="M2846 2713 c-11 -11 -19 6 -11 24 8 17
8 17 12 0 3 -10 2 -21 -1 -24z"/>
<path fill="#ffffff" stroke="none" d="M2990 2700 c0 -19 -5 -30 -14 -30 -12
0 -12 5 -3 30 6 17 13 30 14 30 2 0 3 -13 3 -30z"/>
<path fill="#ffffff" stroke="none" d="M260 2706 c0 -3 -4 -8 -10 -11 -5 -3
-10 -1 -10 4 0 6 5 11 10 11 6 0 10 -2 10 -4z"/>
<path fill="#ffffff" stroke="none" d="M4665 2651 c62 -32 113 -39 159 -21 23
8 26 7 26 -12 0 -25 27 -58 47 -58 19 0 16 -29 -3 -37 -9 -3 -25 -1 -35 5 -29
18 -74 14 -94 -8 -12 -13 -20 -44 -24 -89 -4 -39 -9 -73 -13 -76 -15 -15 -56
9 -72 43 -10 20 -30 52 -46 72 -22 28 -26 40 -18 54 10 18 6 97 -8 151 -6 25
-5 28 7 18 8 -6 41 -25 74 -42z"/>
<path fill="#ffffff" stroke="none" d="M5982 2628 c-6 -6 -15 -7 -22 -3 -8 5
-6 13 7 27 16 18 18 19 21 3 2 -9 -1 -22 -6 -27z"/>
<path fill="#ffffff" stroke="none" d="M1946 2645 c6 -14 -4 -91 -10 -84 -2 2
-7 25 -10 52 -5 31 -4 47 4 47 6 0 13 -7 16 -15z"/>
<path fill="#ffffff" stroke="none" d="M2169 2621 c9 -6 10 -11 2 -15 -13 -8
-31 1 -31 15 0 11 11 11 29 0z"/>
<path fill="#ffffff" stroke="none" d="M5930 2504 c22 -5 28 -9 18 -15 -10 -7
-9 -9 3 -9 9 0 22 -7 30 -16 16 -20 -2 -34 -47 -34 -38 0 -40 -6 -50 -99 -7
-71 -7 -72 -46 -92 -21 -11 -43 -17 -48 -14 -15 9 -22 69 -12 106 9 37 -8 94
-35 114 -26 19 -11 49 27 56 50 9 122 10 160 3z"/>
<path fill="#ffffff" stroke="none" d="M3663 2312 c4 -37 2 -44 -21 -62 -15
-11 -35 -27 -44 -36 -11 -10 -24 -14 -35 -9 -16 6 -16 8 5 16 12 4 28 20 34
35 10 22 9 31 -5 56 -19 34 -11 53 28 68 23 9 29 -2 38 -68z"/>
<path fill="#ffffff" stroke="none" d="M2869 2026 c8 -10 8 -16 -2 -25 -16
-13 -27 -5 -27 21 0 21 13 23 29 4z"/>
<path fill="#ffffff" stroke="none" d="M700 1361 c0 -5 -8 -19 -18 -32 -10
-13 -22 -33 -26 -44 -7 -19 -8 -19 -27 4 -10 13 -19 36 -19 51 0 26 3 28 45
28 25 1 45 -2 45 -7z"/>
<path fill="#000000" stroke="none" d="M5746 2013 c9 -38 11 -39 16 -3 3 21 0
30 -9 30 -10 0 -11 -8 -7 -27z"/>
<path fill="#000000" stroke="none" d="M2760 1604 c0 -7 -10 -15 -22 -19 -23
-8 -23 -8 3 -12 21 -3 28 -12 36 -50 l11 -46 -56 6 -55 6 20 -21 c25 -24 68
-27 90 -5 13 13 14 23 3 69 -13 53 -29 93 -30 72z"/>
<path fill="#000000" stroke="none" d="M5221 1574 c0 -11 3 -14 6 -6 3 7 2 16
-1 19 -3 4 -6 -2 -5 -13z"/>
<path fill="#000000" stroke="none" d="M2987 1348 c-5 -119 -8 -147 -20 -178
-5 -13 -8 -28 -21 -90 -2 -8 -6 -22 -9 -30 -15 -41 -20 -86 -23 -202 l-3 -127
30 -24 30 -23 -21 -19 c-17 -16 -20 -30 -20 -110 l0 -92 -41 -6 c-50 -7 -79
-31 -79 -67 0 -34 -29 -61 -57 -54 -12 3 -19 12 -17 18 8 21 -42 110 -76 134
-28 21 -37 23 -103 16 -78 -7 -107 -23 -107 -59 0 -27 -22 -33 -180 -45 -58
-5 -121 -13 -140 -19 -19 -6 -49 -11 -66 -11 -56 0 -86 -67 -46 -103 23 -21
110 -22 167 -3 22 7 79 16 128 19 l87 6 0 -33 c0 -61 4 -61 320 -61 l285 0 13
27 c7 16 18 28 23 28 19 0 55 34 129 121 68 80 130 189 130 229 0 11 5 22 11
25 19 12 32 59 35 125 1 36 6 78 9 93 7 25 1 34 -44 78 -48 47 -54 49 -106 49
-47 0 -59 -4 -92 -32 -21 -18 -47 -43 -58 -56 l-20 -23 -2 33 c-1 29 38 212
55 256 4 12 0 14 -19 9 -75 -21 -69 -24 -69 32 0 55 7 66 81 122 34 26 34 26
31 97 l-4 72 -58 0 -58 0 -5 -122z"/>
<path fill="#000000" stroke="none" d="M3835 1278 c-3 -18 -5 -87 -3 -152 l3
-119 67 -41 c47 -29 84 -63 124 -113 31 -40 65 -73 74 -73 28 0 45 30 45 80 0
37 -7 54 -33 85 -26 32 -32 49 -32 85 0 55 -16 81 -62 99 -28 11 -34 18 -30
36 2 14 -6 34 -25 56 -16 19 -37 46 -46 62 -13 19 -26 27 -47 27 -25 0 -30 -5
-35 -32z"/>
<path fill="#000000" stroke="none" d="M3654 730 c-26 -39 -26 -41 -9 -60 21
-23 77 -27 93 -7 6 6 13 24 17 39 6 24 2 29 -34 47 l-41 21 -26 -40z"/>
<path fill="#000000" stroke="none" d="M4685 701 c-3 -6 -19 -11 -34 -11 -15
0 -36 -9 -46 -20 -16 -17 -17 -30 -9 -124 10 -116 1 -146 -42 -146 -12 0 -26
-4 -29 -10 -3 -5 -17 -10 -30 -10 -32 0 -50 50 -34 97 17 53 5 79 -56 118 -59
37 -91 43 -128 23 -51 -29 -57 -39 -57 -98 0 -49 -3 -58 -20 -63 -26 -7 -21
-32 31 -188 25 -73 39 -134 39 -165 0 -28 5 -55 12 -62 15 -15 102 -16 128 -2
33 18 43 46 28 85 -11 32 -10 37 10 57 19 19 25 21 42 10 11 -6 37 -12 59 -12
21 0 44 -6 50 -14 16 -19 70 -28 172 -29 65 -1 91 3 109 16 14 9 34 17 45 17
12 0 26 5 32 11 6 6 44 14 83 17 39 2 73 9 76 13 3 5 56 9 118 9 90 0 116 3
126 16 18 21 21 153 4 180 -10 17 -25 22 -73 26 -33 2 -63 7 -67 11 -14 13 7
57 33 69 60 28 48 118 -15 118 -15 0 -38 9 -52 20 -30 23 -83 26 -100 5 -7 -8
-22 -15 -34 -15 -47 0 -89 -54 -101 -129 -11 -67 -15 -81 -25 -81 -12 0 -87
101 -106 143 -8 18 -18 39 -23 47 -4 8 -14 29 -22 45 -12 24 -22 31 -51 33
-20 2 -39 -2 -43 -7z"/>
<path fill="#000000" stroke="none" d="M3536 568 c-13 -18 -50 -78 -81 -133
-32 -55 -69 -115 -82 -133 l-25 -33 37 -34 c31 -30 43 -35 85 -35 27 0 52 4
55 10 10 16 35 12 62 -10 32 -25 104 -27 124 -4 21 25 13 168 -11 220 -11 22
-24 61 -29 88 -17 93 -87 126 -135 64z"/>
<path fill="#000000" stroke="none" d="M3848 443 c-54 -6 -88 -49 -88 -111 0
-42 5 -53 45 -96 25 -27 45 -57 45 -66 0 -27 30 -80 55 -96 37 -24 87 -15 103
19 12 24 11 35 -6 82 -16 45 -18 62 -10 90 9 29 7 45 -16 109 -31 84 -23 80
-128 69z"/>
</g>
</svg>
