<?xml version="1.0" standalone="no"?>
<!DOCTYPE svg PUBLIC "-//W3C//DTD SVG 20010904//EN"
 "http://www.w3.org/TR/2001/REC-SVG-20010904/DTD/svg10.dtd">
<svg version="1.0" xmlns="http://www.w3.org/2000/svg"
 width="408.000000pt" height="104.000000pt" viewBox="0 0 408.000000 104.000000"
 preserveAspectRatio="xMidYMid meet">
<metadata>
Created by potrace 1.14, written by Peter Selinger 2001-2017
</metadata>
<g transform="translate(0.000000,104.000000) scale(0.100000,-0.100000)"
fill="#000000" stroke="none">
<path fill="#000000" stroke="none" d="M0 530 l0 -510 413 0 c226 0 1031 -5
1787 -11 l1375 -11 251 23 250 23 -24 44 c-16 29 -63 75 -138 136 l-113 92
-185 32 -185 32 -444 -95 c-244 -52 -450 -95 -458 -95 -8 0 -275 84 -594 187
l-580 186 -420 -12 c-231 -6 -460 -14 -510 -17 l-90 -5 -128 233 c-113 207
-132 236 -167 256 l-40 23 0 -511z"/>
</g>
</svg>
