<?xml version="1.0" standalone="no"?>
<!DOCTYPE svg PUBLIC "-//W3C//DTD SVG 20010904//EN"
 "http://www.w3.org/TR/2001/REC-SVG-20010904/DTD/svg10.dtd">
<svg version="1.0" xmlns="http://www.w3.org/2000/svg"
 width="121.000000pt" height="56.000000pt" viewBox="0 0 121.000000 56.000000"
 preserveAspectRatio="xMidYMid meet">
<metadata>
Created by potrace 1.14, written by Peter Selinger 2001-2017
</metadata>
<g transform="translate(0.000000,56.000000) scale(0.100000,-0.100000)"
fill="#000000" stroke="none">
<path fill="#000000" stroke="none" d="M1104 548 c-12 -5 -30 -27 -39 -47
l-17 -38 -28 29 c-30 29 -46 34 -69 19 -8 -6 -23 -5 -36 1 -17 8 -33 4 -73
-16 -43 -22 -52 -23 -62 -11 -7 8 -19 15 -27 15 -8 0 -28 7 -45 16 -24 13 -35
13 -58 4 -21 -9 -34 -9 -49 0 -16 8 -32 7 -66 -5 -25 -8 -61 -15 -80 -15 -51
0 -79 -31 -70 -78 3 -21 7 -66 8 -101 1 -46 6 -67 18 -74 14 -9 15 -12 1 -28
-14 -16 -17 -16 -38 -2 -16 10 -33 13 -51 8 l-28 -7 24 -17 c31 -23 19 -44
-19 -36 -25 6 -28 3 -33 -27 -3 -18 -9 -48 -13 -66 -5 -24 -2 -38 11 -52 16
-18 31 -20 124 -20 58 0 113 5 121 10 12 8 10 10 -11 10 -14 0 -33 6 -44 13
-17 13 -17 16 -2 43 9 16 19 46 22 67 4 23 11 37 20 37 14 0 20 -13 16 -34 -1
-4 3 -14 10 -22 6 -7 8 -18 4 -24 -3 -5 -1 -10 6 -10 7 0 10 -13 7 -35 -5 -41
4 -44 37 -10 36 35 32 68 -15 119 -22 24 -40 45 -40 47 0 3 18 3 39 1 44 -4
81 22 81 58 0 24 -42 70 -65 70 -21 0 -19 13 4 27 16 10 22 9 32 -3 10 -12 24
-14 67 -9 66 8 90 -5 67 -38 -35 -49 -4 -117 54 -117 41 0 90 19 101 40 17 32
11 51 -27 86 l-37 34 27 0 c15 0 27 -4 27 -10 0 -19 40 -50 64 -50 37 0 53
-48 32 -100 -22 -56 -21 -132 2 -153 23 -21 62 -22 107 -3 38 16 42 26 50 131
15 204 22 243 46 274 26 32 24 57 -6 86 -26 27 -47 30 -81 13z"/>
<path fill="#000000" stroke="none" d="M140 519 c-49 -28 -83 -81 -78 -119 3
-20 0 -30 -9 -30 -48 0 -72 -101 -33 -140 16 -16 33 -20 96 -20 41 0 73 3 70
8 -8 13 23 74 36 70 7 -3 14 -17 16 -31 3 -22 8 -27 31 -27 54 0 64 18 68 120
4 103 -8 152 -40 175 -31 22 -115 19 -157 -6z"/>
</g>
</svg>
