<?xml version="1.0" standalone="no"?>
<!DOCTYPE svg PUBLIC "-//W3C//DTD SVG 20010904//EN"
 "http://www.w3.org/TR/2001/REC-SVG-20010904/DTD/svg10.dtd">
<svg version="1.0" xmlns="http://www.w3.org/2000/svg"
 width="44.000000pt" height="20.000000pt" viewBox="0 0 44.000000 20.000000"
 preserveAspectRatio="xMidYMid meet">
<metadata>
Created by potrace 1.14, written by Peter Selinger 2001-2017
</metadata>
<g transform="translate(0.000000,20.000000) scale(0.100000,-0.100000)"
fill="#000000" stroke="none">
<path fill="#000000" stroke="none" d="M168 187 c-16 -6 -28 -15 -28 -21 0 -5
-9 -29 -20 -52 -16 -32 -31 -46 -63 -59 -39 -16 -56 -30 -57 -47 0 -5 99 -8
221 -8 l221 0 -51 41 c-29 22 -72 49 -96 59 -36 15 -45 24 -45 43 0 15 -10 31
-25 41 -13 9 -26 16 -27 15 -2 -1 -15 -6 -30 -12z"/>
</g>
</svg>
