<?xml version="1.0" standalone="no"?>
<!DOCTYPE svg PUBLIC "-//W3C//DTD SVG 20010904//EN"
 "http://www.w3.org/TR/2001/REC-SVG-20010904/DTD/svg10.dtd">
<svg version="1.0" xmlns="http://www.w3.org/2000/svg"
 width="39.000000pt" height="41.000000pt" viewBox="0 0 39.000000 41.000000"
 preserveAspectRatio="xMidYMid meet">
<metadata>
Created by potrace 1.14, written by Peter Selinger 2001-2017
</metadata>
<g transform="translate(0.000000,41.000000) scale(0.100000,-0.100000)"
fill="#000000" stroke="none">
<path fill="#000000" stroke="none" d="M316 366 c-16 -24 -72 -77 -124 -117
-135 -106 -154 -119 -175 -119 -16 0 -17 -6 -11 -52 7 -62 24 -79 67 -71 27 5
86 57 87 75 0 4 33 24 73 44 44 22 88 54 114 83 l43 46 -6 65 c-6 60 -17 90
-33 90 -3 0 -19 -20 -35 -44z"/>
</g>
</svg>
