<?xml version="1.0" standalone="no"?>
<!DOCTYPE svg PUBLIC "-//W3C//DTD SVG 20010904//EN"
 "http://www.w3.org/TR/2001/REC-SVG-20010904/DTD/svg10.dtd">
<svg version="1.0" xmlns="http://www.w3.org/2000/svg"
 width="143.000000pt" height="139.000000pt" viewBox="0 0 143.000000 139.000000"
 preserveAspectRatio="xMidYMid meet">
<metadata>
Created by potrace 1.14, written by Peter Selinger 2001-2017
</metadata>
<g transform="translate(0.000000,139.000000) scale(0.100000,-0.100000)"
fill="#000000" stroke="none">
<path fill="#000000" stroke="none" d="M804 1380 c-13 -5 -30 -30 -44 -64 -20
-49 -21 -61 -11 -103 20 -84 27 -85 62 -8 36 79 50 169 28 177 -8 3 -23 2 -35
-2z"/>
<path fill="#000000" stroke="none" d="M907 1313 c-9 -21 -18 -55 -22 -76 l-6
-38 48 7 c52 7 83 27 83 54 0 14 -71 90 -84 90 -1 0 -10 -17 -19 -37z"/>
<path fill="#000000" stroke="none" d="M853 1108 l-91 -63 -7 -52 c-8 -69 32
-204 81 -272 18 -27 34 -51 34 -53 0 -3 -43 -25 -95 -49 -52 -24 -95 -47 -95
-51 0 -15 -138 -78 -142 -66 -6 17 -233 -77 -278 -115 -88 -73 -175 -168 -216
-235 -48 -79 -50 -88 -30 -114 11 -14 103 -36 159 -38 12 0 8 55 -7 98 l-15
41 58 36 c32 19 69 35 82 34 20 0 176 36 312 72 l37 10 -15 29 c-19 37 -10
140 11 140 15 0 175 -140 217 -190 14 -17 34 -44 44 -60 20 -35 86 -65 111
-51 9 5 32 25 51 45 46 47 112 69 173 57 43 -8 49 -6 71 18 14 14 45 62 70
106 40 72 45 88 51 166 l6 85 -96 49 c-113 58 -129 78 -108 138 8 22 14 54 14
71 0 38 -23 128 -47 179 -23 51 -91 86 -181 94 l-67 5 -92 -64z"/>
</g>
</svg>
