<?xml version="1.0" standalone="no"?>
<!DOCTYPE svg PUBLIC "-//W3C//DTD SVG 20010904//EN"
 "http://www.w3.org/TR/2001/REC-SVG-20010904/DTD/svg10.dtd">
<svg version="1.0" xmlns="http://www.w3.org/2000/svg"
 width="106.000000pt" height="101.000000pt" viewBox="0 0 106.000000 101.000000"
 preserveAspectRatio="xMidYMid meet">
<metadata>
Created by potrace 1.14, written by Peter Selinger 2001-2017
</metadata>
<g transform="translate(0.000000,101.000000) scale(0.100000,-0.100000)"
fill="#000000" stroke="none">
<path fill="#000000" stroke="none" d="M422 986 c-75 -19 -88 -26 -123 -66
-49 -56 -62 -79 -83 -157 -16 -58 -16 -64 0 -95 9 -17 27 -70 39 -117 l23 -85
-39 -46 c-28 -33 -53 -51 -91 -65 -90 -31 -156 -134 -144 -219 4 -25 13 -46
19 -46 7 0 187 -20 402 -45 215 -25 431 -45 481 -45 81 0 93 2 111 22 95 105
20 305 -143 381 -45 22 -67 39 -87 71 -27 42 -27 46 -27 210 0 208 -4 220 -91
268 -52 28 -146 62 -161 57 -2 0 -41 -11 -86 -23z"/>
</g>
</svg>
