<?xml version="1.0" standalone="no"?>
<!DOCTYPE svg PUBLIC "-//W3C//DTD SVG 20010904//EN"
 "http://www.w3.org/TR/2001/REC-SVG-20010904/DTD/svg10.dtd">
<svg version="1.0" xmlns="http://www.w3.org/2000/svg"
 width="120.000000pt" height="120.000000pt" viewBox="0 0 120.000000 120.000000"
 preserveAspectRatio="xMidYMid meet">
<metadata>
Created by potrace 1.14, written by Peter Selinger 2001-2017
</metadata>
<g transform="translate(0.000000,120.000000) scale(0.100000,-0.100000)"
fill="#000000" stroke="none">
<path fill="#000000" stroke="none" d="M389 1180 c-45 -24 -62 -64 -48 -115 6
-20 7 -50 4 -66 -6 -25 -3 -31 13 -36 11 -3 26 -18 32 -34 12 -28 14 -29 90
-29 75 0 78 -1 84 -26 6 -22 -4 -38 -63 -107 -94 -111 -112 -127 -221 -197
l-94 -60 -94 7 -95 6 7 -54 c4 -30 9 -70 13 -89 l6 -34 27 33 c24 28 34 32 82
34 45 2 80 15 188 67 73 36 149 77 168 93 19 15 37 25 40 22 7 -7 42 -215 42
-252 0 -28 -7 -36 -70 -74 -39 -24 -70 -47 -70 -52 0 -18 37 -19 114 -3 118
25 116 24 116 56 0 16 5 30 12 32 7 3 13 46 17 122 l6 117 114 50 c63 27 116
47 118 45 3 -2 -12 -78 -31 -168 l-36 -163 63 -55 c154 -136 161 -144 147
-169 -10 -20 -9 -27 7 -49 11 -14 24 -27 29 -29 6 -2 29 13 52 34 l42 38 -67
108 c-41 66 -82 119 -104 135 l-36 26 74 180 c74 180 75 181 63 231 -19 84
-31 101 -139 194 l-105 90 -106 26 c-59 14 -113 25 -121 26 -8 0 -34 25 -59
54 l-45 53 -65 1 c-45 0 -76 -6 -101 -19z"/>
</g>
</svg>
