<?xml version="1.0" standalone="no"?>
<!DOCTYPE svg PUBLIC "-//W3C//DTD SVG 20010904//EN"
 "http://www.w3.org/TR/2001/REC-SVG-20010904/DTD/svg10.dtd">
<svg version="1.0" xmlns="http://www.w3.org/2000/svg"
 width="163.000000pt" height="166.000000pt" viewBox="0 0 163.000000 166.000000"
 preserveAspectRatio="xMidYMid meet">
<metadata>
Created by potrace 1.14, written by Peter Selinger 2001-2017
</metadata>
<g transform="translate(0.000000,166.000000) scale(0.100000,-0.100000)"
fill="#000000" stroke="none">
<path fill="#000000" stroke="none" d="M555 1578 l-87 -83 16 -110 c8 -60 18
-168 22 -239 l7 -129 -36 6 c-33 5 -41 1 -81 -36 -36 -34 -54 -63 -90 -152
-76 -187 -160 -365 -234 -497 -67 -119 -72 -132 -72 -188 0 -41 7 -74 20 -99
l19 -39 793 -4 c436 -2 795 -3 797 -1 14 8 -120 459 -196 660 -65 171 -68 176
-115 211 -27 20 -68 62 -92 93 -46 59 -50 61 -148 74 -36 5 -48 11 -48 23 0 9
5 79 11 155 9 130 9 143 -11 201 -11 34 -36 87 -55 117 l-34 55 -128 27 c-70
15 -138 30 -149 33 -17 4 -40 -12 -109 -78z"/>
</g>
</svg>
