<?xml version="1.0" standalone="no"?>
<!DOCTYPE svg PUBLIC "-//W3C//DTD SVG 20010904//EN"
 "http://www.w3.org/TR/2001/REC-SVG-20010904/DTD/svg10.dtd">
<svg version="1.0" xmlns="http://www.w3.org/2000/svg"
 width="339.000000pt" height="332.000000pt" viewBox="0 0 339.000000 332.000000"
 preserveAspectRatio="xMidYMid meet">
<metadata>
Created by potrace 1.14, written by Peter Selinger 2001-2017
</metadata>
<g transform="translate(0.000000,332.000000) scale(0.100000,-0.100000)"
fill="#000000" stroke="none">
<path fill="#000000" stroke="none" d="M728 3277 c-136 -42 -136 -42 -217
-115 l-81 -73 -30 -99 c-29 -93 -30 -105 -24 -212 3 -62 14 -142 24 -178 10
-36 21 -88 25 -117 6 -47 12 -57 68 -110 34 -32 83 -74 109 -92 39 -28 47 -39
52 -76 11 -67 -3 -141 -34 -183 -14 -20 -74 -70 -132 -110 l-106 -73 -104
-172 -104 -172 -72 -250 c-50 -176 -69 -260 -65 -283 4 -24 2 -32 -10 -32 -8
0 -17 -7 -21 -15 -3 -8 -2 -218 1 -466 l6 -452 576 6 c317 4 863 7 1214 7 507
0 638 3 634 13 -2 7 -16 10 -33 8 -16 -3 -45 -5 -64 -5 l-35 -1 3 53 3 53 -55
24 -54 24 -44 113 c-42 108 -43 113 -24 116 98 12 224 39 292 62 74 25 96 39
215 139 102 85 142 113 171 117 28 5 46 17 73 50 19 23 32 45 28 47 -5 2 -32
12 -60 21 -29 10 -53 23 -53 30 0 15 -40 117 -50 129 -4 5 -26 -1 -48 -12 -60
-31 -425 -123 -472 -119 l-40 3 62 69 c61 68 234 226 273 251 15 10 33 11 75
3 44 -8 71 -7 133 7 44 10 81 23 84 31 4 10 23 14 65 14 67 0 198 27 198 41 0
5 8 9 18 9 55 0 64 75 16 121 l-25 23 73 18 c40 10 101 21 136 24 34 4 62 10
62 15 0 16 -93 63 -125 63 -20 1 -31 5 -28 13 6 14 -47 26 -81 17 -16 -4 -26
-2 -26 4 0 18 10 20 149 36 74 9 137 18 140 21 3 4 -1 18 -10 33 -13 25 -23
28 -109 39 -88 10 -104 9 -215 -13 -177 -36 -295 -78 -431 -156 -116 -66 -291
-138 -337 -138 -12 0 -74 -29 -137 -64 -63 -35 -118 -62 -121 -60 -3 2 -14 25
-24 51 -10 26 -40 79 -68 118 -28 38 -56 88 -63 110 -32 108 -179 275 -242
275 -12 0 -39 11 -60 24 -22 15 -74 32 -131 44 l-95 19 33 19 c39 23 61 88 61
181 0 49 8 85 36 156 39 102 58 243 35 271 -6 8 -20 31 -30 52 -19 38 -19 39
0 65 19 27 19 27 -12 86 l-31 58 12 85 c11 86 11 86 -24 184 -19 54 -36 99
-38 101 -2 1 -71 27 -154 58 -141 52 -159 56 -260 61 -107 5 -112 4 -246 -37z"/>
</g>
</svg>
