<?xml version="1.0" standalone="no"?>
<!DOCTYPE svg PUBLIC "-//W3C//DTD SVG 20010904//EN"
 "http://www.w3.org/TR/2001/REC-SVG-20010904/DTD/svg10.dtd">
<svg version="1.0" xmlns="http://www.w3.org/2000/svg"
 width="25.000000pt" height="25.000000pt" viewBox="0 0 25.000000 25.000000"
 preserveAspectRatio="xMidYMid meet">
<metadata>
Created by potrace 1.14, written by Peter Selinger 2001-2017
</metadata>
<g transform="translate(0.000000,25.000000) scale(0.100000,-0.100000)"
fill="#000000" stroke="none">
<path fill="#000000" stroke="none" d="M105 238 c-22 -12 -25 -17 -72 -100
-18 -32 -28 -57 -22 -55 6 1 18 -18 26 -41 14 -41 17 -43 47 -38 17 3 56 8 87
11 l56 7 12 95 c6 52 9 98 6 102 -5 9 -84 31 -107 31 -7 0 -22 -6 -33 -12z"/>
</g>
</svg>
