<?xml version="1.0" standalone="no"?>
<!DOCTYPE svg PUBLIC "-//W3C//DTD SVG 20010904//EN"
 "http://www.w3.org/TR/2001/REC-SVG-20010904/DTD/svg10.dtd">
<svg version="1.0" xmlns="http://www.w3.org/2000/svg"
 width="64.000000pt" height="66.000000pt" viewBox="0 0 64.000000 66.000000"
 preserveAspectRatio="xMidYMid meet">
<metadata>
Created by potrace 1.14, written by Peter Selinger 2001-2017
</metadata>
<g transform="translate(0.000000,66.000000) scale(0.100000,-0.100000)"
fill="#000000" stroke="none">
<path fill="#000000" stroke="none" d="M375 633 c-14 -15 -25 -38 -25 -50 0
-32 36 -109 54 -116 26 -10 19 -22 -21 -36 -21 -8 -69 -42 -108 -76 -52 -46
-80 -64 -109 -68 -47 -8 -50 -10 -42 -40 9 -37 47 -49 97 -32 56 20 66 19 44
-5 -12 -13 -31 -20 -55 -20 -26 0 -43 -7 -60 -25 -13 -14 -27 -25 -31 -25 -4
0 -29 18 -55 41 -52 45 -76 41 -51 -8 22 -41 35 -49 92 -58 28 -4 115 -31 194
-61 156 -59 161 -59 227 -43 32 8 45 17 49 33 2 11 18 75 34 142 28 118 28
123 14 188 -8 36 -20 66 -26 66 -19 0 -76 44 -86 67 -5 12 -7 38 -4 58 5 30 1
41 -22 66 -37 38 -75 38 -110 2z"/>
</g>
</svg>
