<?xml version="1.0" standalone="no"?>
<!DOCTYPE svg PUBLIC "-//W3C//DTD SVG 20010904//EN"
 "http://www.w3.org/TR/2001/REC-SVG-20010904/DTD/svg10.dtd">
<svg version="1.0" xmlns="http://www.w3.org/2000/svg"
 width="172.000000pt" height="175.000000pt" viewBox="0 0 172.000000 175.000000"
 preserveAspectRatio="xMidYMid meet">
<metadata>
Created by potrace 1.14, written by Peter Selinger 2001-2017
</metadata>
<g transform="translate(0.000000,175.000000) scale(0.100000,-0.100000)"
fill="#000000" stroke="none">
<path fill="#000000" stroke="none" d="M1113 1742 c-6 -4 -19 -46 -28 -93 -10
-48 -20 -91 -24 -96 -3 -5 -157 -113 -341 -239 -255 -176 -381 -255 -528 -333
l-192 -103 6 -346 c3 -191 9 -388 13 -439 l6 -92 255 208 255 209 325 100 325
101 190 6 c105 3 225 8 268 11 l78 6 -41 31 c-34 27 -67 38 -212 69 -94 21
-175 41 -179 45 -4 5 -11 20 -14 34 -7 30 -7 30 163 60 70 12 75 14 104 56 16
25 28 46 26 48 -2 3 -30 16 -62 30 l-58 26 -124 -36 c-68 -19 -128 -35 -134
-35 -6 0 -1 18 10 41 19 36 32 46 138 95 64 30 118 57 121 59 8 9 -32 86 -50
96 -33 17 -67 9 -184 -46 l-117 -55 7 36 c12 66 22 80 80 110 l56 29 -6 40
c-3 22 -14 58 -25 80 -10 22 -26 83 -35 135 -8 52 -18 110 -21 128 -5 32 -24
41 -51 24z"/>
</g>
</svg>
