<?xml version="1.0" standalone="no"?>
<!DOCTYPE svg PUBLIC "-//W3C//DTD SVG 20010904//EN"
 "http://www.w3.org/TR/2001/REC-SVG-20010904/DTD/svg10.dtd">
<svg version="1.0" xmlns="http://www.w3.org/2000/svg"
 width="368.000000pt" height="386.000000pt" viewBox="0 0 368.000000 386.000000"
 preserveAspectRatio="xMidYMid meet">
<metadata>
Created by potrace 1.14, written by Peter Selinger 2001-2017
</metadata>
<g transform="translate(0.000000,386.000000) scale(0.100000,-0.100000)"
fill="#000000" stroke="none">
<path fill="#000000" stroke="none" d="M1320 3815 c-140 -23 -287 -48 -326
-54 -67 -12 -80 -19 -229 -124 l-158 -112 -73 -165 c-41 -91 -74 -170 -74
-176 0 -5 21 -66 46 -135 43 -116 46 -128 40 -190 -4 -38 -3 -69 2 -70 5 -3 5
-29 -1 -65 -9 -56 -8 -64 11 -91 19 -27 20 -31 5 -45 -14 -14 -13 -17 7 -23
15 -5 19 -12 15 -23 -18 -47 -17 -70 5 -85 l23 -16 -47 -93 -47 -94 27 -58
c14 -31 24 -58 23 -60 -63 -39 -133 -91 -209 -153 -80 -66 -96 -84 -98 -111
-4 -35 51 -338 74 -411 22 -68 35 -220 22 -245 -17 -32 -38 -194 -38 -301 l-1
-100 -60 -75 c-34 -41 -79 -98 -100 -127 -39 -52 -39 -52 -23 -86 16 -32 15
-38 -50 -258 -37 -123 -71 -234 -76 -247 l-10 -24 1414 4 c778 2 1417 6 1421
10 3 3 1 53 -5 110 -11 99 -15 109 -100 288 l-88 185 -31 200 c-35 224 -42
416 -17 450 12 17 17 18 54 6 22 -8 44 -16 49 -20 5 -3 40 -89 78 -191 37
-102 83 -220 101 -263 19 -43 34 -84 34 -91 0 -7 -18 -38 -40 -69 l-40 -55 40
-204 c24 -122 40 -232 40 -275 l0 -73 385 0 385 0 0 23 c-3 204 -40 1071 -47
1077 -4 4 -141 109 -304 233 -163 124 -300 232 -306 239 -5 7 -33 121 -62 253
-29 132 -86 358 -127 503 -70 248 -80 275 -185 495 -69 146 -121 271 -140 337
-17 58 -39 135 -50 171 l-19 66 -167 128 -166 129 -235 98 c-141 59 -247 98
-266 97 -17 -1 -146 -20 -286 -44z"/>
<path fill="#ffffff" stroke="none" d="M720 1868 c0 -39 7 -62 29 -97 21 -34
30 -63 34 -114 9 -93 1 -127 -29 -127 -12 0 -26 -4 -29 -10 -11 -17 -49 -10
-77 14 -28 25 -112 146 -142 203 -20 40 -21 82 -1 111 15 20 21 21 89 15 l73
-6 19 32 c10 17 22 31 26 31 4 0 8 -23 8 -52z"/>
</g>
</svg>
