<?xml version="1.0" standalone="no"?>
<!DOCTYPE svg PUBLIC "-//W3C//DTD SVG 20010904//EN"
 "http://www.w3.org/TR/2001/REC-SVG-20010904/DTD/svg10.dtd">
<svg version="1.0" xmlns="http://www.w3.org/2000/svg"
 width="50.000000pt" height="49.000000pt" viewBox="0 0 50.000000 49.000000"
 preserveAspectRatio="xMidYMid meet">
<metadata>
Created by potrace 1.14, written by Peter Selinger 2001-2017
</metadata>
<g transform="translate(0.000000,49.000000) scale(0.100000,-0.100000)"
fill="#000000" stroke="none">
<path fill="#000000" stroke="none" d="M0 481 c0 -5 14 -42 31 -82 38 -91 48
-132 49 -186 0 -36 4 -44 30 -60 16 -9 30 -20 30 -23 0 -3 -23 -14 -51 -25
-28 -11 -52 -22 -54 -25 -2 -3 -1 -18 2 -33 5 -28 7 -28 52 -22 26 3 74 0 111
-8 l66 -14 66 61 c36 34 76 81 88 106 12 25 36 59 53 77 l30 32 -30 68 c-26
59 -37 72 -79 95 -60 33 -66 34 -129 5 l-50 -23 -80 26 c-106 36 -135 42 -135
31z"/>
</g>
</svg>
