<?xml version="1.0" standalone="no"?>
<!DOCTYPE svg PUBLIC "-//W3C//DTD SVG 20010904//EN"
 "http://www.w3.org/TR/2001/REC-SVG-20010904/DTD/svg10.dtd">
<svg version="1.0" xmlns="http://www.w3.org/2000/svg"
 width="361.000000pt" height="359.000000pt" viewBox="0 0 361.000000 359.000000"
 preserveAspectRatio="xMidYMid meet">
<metadata>
Created by potrace 1.14, written by Peter Selinger 2001-2017
</metadata>
<g transform="translate(0.000000,359.000000) scale(0.100000,-0.100000)"
fill="#000000" stroke="none">
<path fill="#000000" stroke="none" d="M2454 3562 c-78 -23 -104 -37 -193
-104 l-103 -77 -55 27 -54 27 -82 -42 c-131 -68 -139 -75 -218 -184 l-74 -103
-3 -206 -4 -205 55 -212 c51 -194 61 -224 123 -340 l67 -127 -103 -97 -103
-96 30 -11 c27 -9 38 -6 97 30 l66 41 67 -19 c67 -19 67 -20 111 -92 24 -40
42 -76 39 -78 -3 -3 -50 -8 -105 -11 l-99 -6 -31 -52 c-40 -67 -109 -243 -118
-301 -7 -49 -8 -49 -44 -29 -14 8 -39 14 -56 15 -20 0 -90 33 -194 90 -90 50
-167 90 -172 90 -5 0 -62 -40 -126 -89 l-117 -89 -59 -146 -58 -146 15 -169
c13 -135 14 -189 5 -272 -11 -100 -12 -105 -57 -166 -25 -34 -48 -62 -51 -63
-10 0 -100 522 -145 844 -47 331 -48 334 -97 351 -9 3 -51 -12 -96 -34 l-79
-39 -94 22 c-63 15 -133 42 -215 84 l-122 61 33 -92 c18 -51 52 -155 76 -232
23 -77 50 -150 58 -162 9 -11 62 -77 117 -146 l101 -124 46 -139 c50 -150 80
-330 58 -343 -8 -5 -1 -56 24 -182 19 -96 37 -184 40 -196 l5 -23 1334 0 1335
0 16 58 c9 31 53 127 97 213 l80 156 69 31 c65 29 69 32 69 64 1 18 12 155 25
303 l24 270 -42 189 -41 189 -171 82 -171 82 -100 5 -100 6 -91 58 c-51 33
-92 62 -92 66 -1 4 35 86 79 183 63 138 102 248 185 515 58 186 105 351 105
367 -1 15 -16 92 -34 169 l-33 142 -122 148 -123 148 -155 73 c-86 40 -156 73
-157 72 -1 0 -42 -13 -92 -27z"/>
</g>
</svg>
