<?xml version="1.0" standalone="no"?>
<!DOCTYPE svg PUBLIC "-//W3C//DTD SVG 20010904//EN"
 "http://www.w3.org/TR/2001/REC-SVG-20010904/DTD/svg10.dtd">
<svg version="1.0" xmlns="http://www.w3.org/2000/svg"
 width="20.000000pt" height="20.000000pt" viewBox="0 0 20.000000 20.000000"
 preserveAspectRatio="xMidYMid meet">
<metadata>
Created by potrace 1.14, written by Peter Selinger 2001-2017
</metadata>
<g transform="translate(0.000000,20.000000) scale(0.100000,-0.100000)"
fill="#000000" stroke="none">
<path fill="#000000" stroke="none" d="M82 187 c-7 -8 -9 -27 -6 -45 6 -28 4
-31 -27 -39 -28 -8 -36 -16 -43 -47 -13 -50 -2 -56 107 -56 l87 0 0 44 c0 38
-3 45 -25 50 -25 6 -26 10 -29 76 -1 19 -7 26 -27 28 -14 2 -31 -3 -37 -11z"/>
</g>
</svg>
