<?xml version="1.0" standalone="no"?>
<!DOCTYPE svg PUBLIC "-//W3C//DTD SVG 20010904//EN"
 "http://www.w3.org/TR/2001/REC-SVG-20010904/DTD/svg10.dtd">
<svg version="1.0" xmlns="http://www.w3.org/2000/svg"
 width="135.000000pt" height="133.000000pt" viewBox="0 0 135.000000 133.000000"
 preserveAspectRatio="xMidYMid meet">
<metadata>
Created by potrace 1.14, written by Peter Selinger 2001-2017
</metadata>
<g transform="translate(0.000000,133.000000) scale(0.100000,-0.100000)"
fill="#000000" stroke="none">
<path fill="#000000" stroke="none" d="M1150 1304 c-72 -28 -230 -66 -230 -55
0 3 -24 21 -54 39 -50 30 -58 32 -98 23 -33 -8 -56 -24 -103 -72 -68 -71 -88
-78 -221 -79 l-81 0 -115 -87 c-63 -49 -146 -116 -183 -149 l-67 -62 27 -34
27 -34 57 9 c50 8 68 18 140 78 46 38 86 69 91 69 4 0 19 -9 33 -20 l26 -21
-39 -72 -40 -73 64 -95 c63 -94 63 -95 81 -214 l18 -119 51 -48 c28 -26 59
-47 70 -48 17 0 16 3 -7 33 l-25 33 59 -7 c33 -4 66 -12 74 -19 19 -16 19 -9
0 32 -12 28 -45 211 -45 251 0 6 35 -24 79 -67 l78 -78 -29 -91 c-24 -73 -27
-96 -18 -110 6 -11 10 -52 9 -96 -3 -104 5 -116 66 -108 26 4 53 3 59 -1 6 -5
34 -2 64 7 l54 16 -54 60 -55 59 40 126 39 125 -16 87 c-11 64 -23 100 -45
131 -38 55 -49 64 -86 69 -26 3 -30 7 -33 38 -2 19 -8 40 -13 46 -6 8 4 49 29
120 l39 108 191 77 c105 42 208 81 229 86 l38 9 11 71 10 71 -44 6 c-67 9 -81
7 -152 -20z"/>
</g>
</svg>
