<?xml version="1.0" standalone="no"?>
<!DOCTYPE svg PUBLIC "-//W3C//DTD SVG 20010904//EN"
 "http://www.w3.org/TR/2001/REC-SVG-20010904/DTD/svg10.dtd">
<svg version="1.0" xmlns="http://www.w3.org/2000/svg"
 width="37.000000pt" height="38.000000pt" viewBox="0 0 37.000000 38.000000"
 preserveAspectRatio="xMidYMid meet">
<metadata>
Created by potrace 1.14, written by Peter Selinger 2001-2017
</metadata>
<g transform="translate(0.000000,38.000000) scale(0.100000,-0.100000)"
fill="#000000" stroke="none">
<path fill="#000000" stroke="none" d="M147 362 c-21 -23 -22 -50 -1 -73 11
-12 14 -27 9 -48 -5 -25 -14 -33 -46 -43 -57 -17 -109 -77 -109 -126 0 -21 7
-47 15 -58 14 -19 14 -19 15 2 0 46 17 52 180 66 l155 13 3 37 c3 34 1 38 -25
43 -15 4 -38 10 -50 15 -27 11 -40 64 -22 96 11 22 10 27 -21 59 -38 40 -77
46 -103 17z"/>
</g>
</svg>
