<?xml version="1.0" standalone="no"?>
<!DOCTYPE svg PUBLIC "-//W3C//DTD SVG 20010904//EN"
 "http://www.w3.org/TR/2001/REC-SVG-20010904/DTD/svg10.dtd">
<svg version="1.0" xmlns="http://www.w3.org/2000/svg"
 width="243.000000pt" height="244.000000pt" viewBox="0 0 243.000000 244.000000"
 preserveAspectRatio="xMidYMid meet">
<metadata>
Created by potrace 1.14, written by Peter Selinger 2001-2017
</metadata>
<g transform="translate(0.000000,244.000000) scale(0.100000,-0.100000)"
fill="#000000" stroke="none">
<path fill="#000000" stroke="none" d="M1330 2423 l-134 -14 -181 -109 c-99
-60 -204 -130 -232 -155 -48 -42 -55 -54 -79 -132 -23 -76 -26 -99 -22 -207 3
-116 4 -122 33 -160 28 -36 28 -38 7 -32 -19 6 -24 3 -33 -22 -7 -20 -23 -35
-50 -47 -39 -18 -39 -19 -39 -74 0 -52 -2 -57 -40 -91 -36 -31 -43 -45 -65
-130 -17 -68 -43 -130 -89 -215 -36 -66 -66 -128 -66 -137 0 -27 -73 -168 -86
-168 -7 0 -24 -21 -39 -47 -16 -27 -50 -78 -76 -114 -27 -36 -61 -93 -76 -125
-14 -33 -33 -69 -41 -82 -26 -40 -16 -146 20 -214 41 -78 56 -89 127 -95 48
-5 73 -1 120 17 50 18 66 20 91 11 47 -16 135 4 182 41 l38 31 53 -36 c30 -20
64 -37 77 -37 13 0 46 -15 74 -32 46 -30 58 -33 146 -37 52 -2 117 2 145 9 40
9 81 9 205 -3 181 -17 529 -10 568 11 17 10 36 10 85 2 78 -15 292 -5 365 16
30 9 66 14 81 12 l27 -4 -7 48 c-4 26 -23 78 -43 115 -19 38 -39 84 -44 103
-11 41 -183 446 -214 505 -51 96 -78 125 -151 162 -40 19 -98 53 -129 74 -66
45 -175 89 -235 96 -39 5 -43 8 -47 36 -6 37 -26 231 -26 252 0 8 22 26 50 42
27 15 50 33 50 39 0 18 70 84 142 135 74 52 78 63 78 188 0 60 5 81 20 101 15
20 19 40 19 95 0 68 -2 73 -58 160 l-57 90 -140 72 c-76 40 -146 72 -154 71
-8 0 -76 -7 -150 -15z"/>
<path fill="#ffffff" stroke="none" d="M865 1485 c21 -47 36 -87 34 -89 -2 -2
-19 -11 -36 -20 l-33 -16 -39 79 -40 79 32 26 c18 14 35 25 38 26 3 0 23 -38
44 -85z"/>
<path fill="#ffffff" stroke="none" d="M952 1346 l27 -34 -51 -21 c-48 -20
-68 -20 -68 -1 0 11 52 89 60 90 3 0 17 -15 32 -34z"/>
</g>
</svg>
