<?xml version="1.0" standalone="no"?>
<!DOCTYPE svg PUBLIC "-//W3C//DTD SVG 20010904//EN"
 "http://www.w3.org/TR/2001/REC-SVG-20010904/DTD/svg10.dtd">
<svg version="1.0" xmlns="http://www.w3.org/2000/svg"
 width="31.000000pt" height="31.000000pt" viewBox="0 0 31.000000 31.000000"
 preserveAspectRatio="xMidYMid meet">
<metadata>
Created by potrace 1.14, written by Peter Selinger 2001-2017
</metadata>
<g transform="translate(0.000000,31.000000) scale(0.100000,-0.100000)"
fill="#000000" stroke="none">
<path fill="#000000" stroke="none" d="M59 294 c-7 -9 -15 -43 -17 -77 -4 -46
-10 -65 -23 -75 -11 -7 -19 -17 -19 -21 0 -4 44 -12 97 -17 l97 -9 9 -42 c9
-47 28 -59 77 -48 32 7 38 26 17 61 -25 43 -53 71 -78 77 -24 6 -27 13 -34 64
-8 70 -34 103 -81 103 -17 0 -37 -7 -45 -16z"/>
</g>
</svg>
