<?xml version="1.0" standalone="no"?>
<!DOCTYPE svg PUBLIC "-//W3C//DTD SVG 20010904//EN"
 "http://www.w3.org/TR/2001/REC-SVG-20010904/DTD/svg10.dtd">
<svg version="1.0" xmlns="http://www.w3.org/2000/svg"
 width="213.000000pt" height="220.000000pt" viewBox="0 0 213.000000 220.000000"
 preserveAspectRatio="xMidYMid meet">
<metadata>
Created by potrace 1.14, written by Peter Selinger 2001-2017
</metadata>
<g transform="translate(0.000000,220.000000) scale(0.100000,-0.100000)"
fill="#000000" stroke="none">
<path fill="#000000" stroke="none" d="M185 2193 c-11 -3 -47 -32 -81 -65
l-61 -60 18 -86 c25 -117 23 -184 -5 -294 -13 -51 -31 -154 -41 -228 l-17
-135 92 -295 c50 -162 112 -358 136 -435 28 -89 62 -171 93 -225 l48 -85 369
-143 369 -144 393 61 c216 33 401 66 411 73 10 7 43 36 73 63 l56 50 47 393
c25 215 44 396 41 400 -2 4 -40 35 -83 69 l-79 61 -29 -24 c-80 -63 -99 -80
-132 -121 l-36 -44 24 -25 c20 -21 21 -28 11 -45 -11 -17 -8 -25 24 -64 30
-37 35 -50 29 -72 -3 -15 -22 -113 -40 -216 -19 -104 -36 -191 -39 -194 -3 -3
-56 2 -118 11 -62 8 -221 25 -353 36 -132 11 -243 22 -246 23 -4 1 24 72 62
157 l68 155 -10 144 -10 145 -63 80 -62 81 -94 3 c-128 4 -165 -11 -257 -101
l-73 -71 0 -122 c0 -123 -3 -134 -39 -134 -5 0 -43 42 -85 93 -42 50 -85 101
-95 112 -11 11 -40 64 -65 118 -65 136 -81 256 -67 505 18 295 13 433 -16 525
-14 42 -30 76 -37 76 -6 -1 -20 -3 -31 -6z"/>
</g>
</svg>
