<?xml version="1.0" standalone="no"?>
<!DOCTYPE svg PUBLIC "-//W3C//DTD SVG 20010904//EN"
 "http://www.w3.org/TR/2001/REC-SVG-20010904/DTD/svg10.dtd">
<svg version="1.0" xmlns="http://www.w3.org/2000/svg"
 width="283.000000pt" height="271.000000pt" viewBox="0 0 283.000000 271.000000"
 preserveAspectRatio="xMidYMid meet">
<metadata>
Created by potrace 1.14, written by Peter Selinger 2001-2017
</metadata>
<g transform="translate(0.000000,271.000000) scale(0.100000,-0.100000)"
fill="#000000" stroke="none">
<path fill="#000000" stroke="none" d="M766 2683 c-32 -13 -87 -40 -121 -60
-61 -35 -63 -37 -144 -187 l-83 -151 -10 -148 c-10 -138 -9 -159 17 -325 14
-97 28 -185 31 -194 3 -11 -3 -19 -18 -23 -13 -4 -77 -48 -144 -97 -118 -88
-122 -92 -157 -167 -20 -42 -59 -156 -87 -253 -42 -149 -50 -190 -50 -261 l0
-84 52 -69 c115 -151 241 -332 318 -454 l80 -128 153 -6 c83 -4 582 -20 1107
-36 525 -16 993 -31 1039 -33 l84 -4 -6 116 c-3 64 -12 138 -19 166 -13 49
-13 49 -185 165 -156 106 -184 121 -302 163 -96 34 -152 60 -213 102 l-83 57
-90 -7 c-108 -7 -125 0 -108 45 l11 30 -61 0 c-34 0 -72 3 -84 6 -17 5 -23 2
-23 -10 0 -23 -35 -20 -105 7 -55 22 -60 26 -60 54 0 25 -12 41 -65 88 -155
137 -143 120 -184 263 l-37 129 26 72 c21 56 35 147 69 418 l42 347 -47 113
c-41 96 -60 127 -130 208 -45 52 -89 97 -98 99 -9 3 -65 19 -126 36 -60 17
-114 32 -120 34 -5 2 -37 -8 -69 -21z"/>
</g>
</svg>
