<?xml version="1.0" standalone="no"?>
<!DOCTYPE svg PUBLIC "-//W3C//DTD SVG 20010904//EN"
 "http://www.w3.org/TR/2001/REC-SVG-20010904/DTD/svg10.dtd">
<svg version="1.0" xmlns="http://www.w3.org/2000/svg"
 width="57.000000pt" height="59.000000pt" viewBox="0 0 57.000000 59.000000"
 preserveAspectRatio="xMidYMid meet">
<metadata>
Created by potrace 1.14, written by Peter Selinger 2001-2017
</metadata>
<g transform="translate(0.000000,59.000000) scale(0.100000,-0.100000)"
fill="#000000" stroke="none">
<path fill="#000000" stroke="none" d="M260 561 c0 -15 -3 -48 -6 -73 -6 -40
-11 -47 -63 -81 l-57 -37 -67 -166 c-36 -92 -64 -170 -62 -174 2 -4 38 -13 78
-20 77 -13 396 -10 429 4 24 11 28 27 44 171 21 196 24 182 -41 190 -30 4 -58
11 -60 16 -3 4 1 36 9 70 14 62 14 63 -11 96 -25 33 -26 33 -109 33 l-84 0 0
-29z"/>
</g>
</svg>
