<?xml version="1.0" standalone="no"?>
<!DOCTYPE svg PUBLIC "-//W3C//DTD SVG 20010904//EN"
 "http://www.w3.org/TR/2001/REC-SVG-20010904/DTD/svg10.dtd">
<svg version="1.0" xmlns="http://www.w3.org/2000/svg"
 width="20.000000pt" height="20.000000pt" viewBox="0 0 20.000000 20.000000"
 preserveAspectRatio="xMidYMid meet">
<metadata>
Created by potrace 1.14, written by Peter Selinger 2001-2017
</metadata>
<g transform="translate(0.000000,20.000000) scale(0.100000,-0.100000)"
fill="#000000" stroke="none">
<path fill="#000000" stroke="none" d="M30 185 c-7 -8 -10 -32 -8 -57 2 -24
-2 -54 -8 -67 -7 -14 -11 -28 -8 -33 3 -4 31 -8 62 -8 31 0 74 -4 95 -9 26 -6
37 -6 37 3 0 16 -30 57 -57 79 -15 12 -23 29 -23 51 0 17 -5 37 -12 44 -17 17
-63 15 -78 -3z"/>
</g>
</svg>
