<?xml version="1.0" standalone="no"?>
<!DOCTYPE svg PUBLIC "-//W3C//DTD SVG 20010904//EN"
 "http://www.w3.org/TR/2001/REC-SVG-20010904/DTD/svg10.dtd">
<svg version="1.0" xmlns="http://www.w3.org/2000/svg"
 width="420.000000pt" height="439.000000pt" viewBox="0 0 420.000000 439.000000"
 preserveAspectRatio="xMidYMid meet">
<metadata>
Created by potrace 1.14, written by Peter Selinger 2001-2017
</metadata>
<g transform="translate(0.000000,439.000000) scale(0.100000,-0.100000)"
fill="#000000" stroke="none">
<path fill="#000000" stroke="none" d="M3120 4380 c-41 -4 -133 -8 -205 -9
l-130 -1 -114 -89 c-131 -103 -110 -64 -227 -411 -51 -152 -84 -234 -101 -251
-23 -25 -24 -31 -18 -95 4 -38 18 -95 31 -128 l24 -58 -54 -62 -53 -61 21 -63
c20 -60 21 -71 10 -190 -8 -97 -16 -138 -34 -174 -26 -53 -16 -49 -200 -69
-86 -9 -138 -22 -285 -74 -99 -35 -234 -87 -299 -114 -139 -59 -262 -81 -452
-81 -101 0 -134 -5 -275 -40 -199 -50 -283 -91 -512 -247 -156 -107 -167 -116
-153 -132 15 -16 13 -25 -22 -107 l-38 -89 59 -178 c59 -179 138 -340 206
-425 l29 -37 -33 -65 -33 -65 -131 -65 -131 -64 0 -466 0 -465 537 3 c296 2
1091 6 1767 10 l1229 8 28 34 c15 18 26 37 23 41 -3 5 23 52 57 105 33 53 68
117 76 143 11 32 37 68 88 121 75 78 245 288 289 358 14 22 36 80 50 129 25
89 61 326 53 348 -3 6 -40 20 -82 30 -73 18 -78 22 -97 60 -11 22 -28 49 -39
60 -10 11 -34 62 -53 113 -20 51 -69 162 -110 247 -59 124 -79 155 -98 159
-12 3 -117 19 -233 34 -188 26 -222 34 -322 73 -118 47 -173 85 -173 122 0 27
135 137 207 169 72 31 70 27 58 125 l-11 88 49 99 c33 67 55 100 69 104 11 3
41 16 66 29 25 13 68 28 96 34 27 5 81 23 119 41 55 26 82 47 141 112 40 45
96 120 124 167 65 109 150 349 168 473 l12 90 -96 254 -97 253 -118 65 -117
65 -128 9 c-142 11 -299 10 -412 0z"/>
</g>
</svg>
