<?xml version="1.0" standalone="no"?>
<!DOCTYPE svg PUBLIC "-//W3C//DTD SVG 20010904//EN"
 "http://www.w3.org/TR/2001/REC-SVG-20010904/DTD/svg10.dtd">
<svg version="1.0" xmlns="http://www.w3.org/2000/svg"
 width="133.000000pt" height="138.000000pt" viewBox="0 0 133.000000 138.000000"
 preserveAspectRatio="xMidYMid meet">
<metadata>
Created by potrace 1.14, written by Peter Selinger 2001-2017
</metadata>
<g transform="translate(0.000000,138.000000) scale(0.100000,-0.100000)"
fill="#000000" stroke="none">
<path fill="#000000" stroke="none" d="M309 1373 l-285 -3 -11 -128 -11 -127
34 -146 35 -146 168 -132 167 -132 28 -115 28 -115 267 -158 c230 -138 272
-159 311 -160 25 -1 52 -2 60 -3 30 -4 150 15 150 23 0 4 -13 24 -30 42 -16
19 -30 37 -30 40 0 2 21 0 46 -5 25 -6 47 -8 50 -6 2 3 -6 28 -18 57 l-22 52
42 37 42 37 -116 190 c-106 173 -126 201 -232 308 -64 64 -122 117 -128 117
-6 0 -37 -11 -70 -24 -109 -44 -105 -44 -87 11 8 26 31 148 52 271 l38 222
-96 -2 c-53 -2 -225 -4 -382 -5z"/>
</g>
</svg>
