<?xml version="1.0" standalone="no"?>
<!DOCTYPE svg PUBLIC "-//W3C//DTD SVG 20010904//EN"
 "http://www.w3.org/TR/2001/REC-SVG-20010904/DTD/svg10.dtd">
<svg version="1.0" xmlns="http://www.w3.org/2000/svg"
 width="25.000000pt" height="24.000000pt" viewBox="0 0 25.000000 24.000000"
 preserveAspectRatio="xMidYMid meet">
<metadata>
Created by potrace 1.14, written by Peter Selinger 2001-2017
</metadata>
<g transform="translate(0.000000,24.000000) scale(0.100000,-0.100000)"
fill="#000000" stroke="none">
<path fill="#000000" stroke="none" d="M70 225 c-6 -8 -9 -18 -6 -24 10 -16
-5 -41 -24 -41 -14 0 -20 -11 -26 -42 -8 -46 -6 -89 4 -100 4 -3 58 -10 120
-13 l112 -8 0 42 c0 28 -4 41 -14 41 -8 0 -17 12 -21 27 -9 39 -23 53 -51 53
-20 0 -24 5 -24 28 0 47 -43 70 -70 37z"/>
</g>
</svg>
