<?xml version="1.0" standalone="no"?>
<!DOCTYPE svg PUBLIC "-//W3C//DTD SVG 20010904//EN"
 "http://www.w3.org/TR/2001/REC-SVG-20010904/DTD/svg10.dtd">
<svg version="1.0" xmlns="http://www.w3.org/2000/svg"
 width="552.000000pt" height="572.000000pt" viewBox="0 0 552.000000 572.000000"
 preserveAspectRatio="xMidYMid meet">
<metadata>
Created by potrace 1.14, written by Peter Selinger 2001-2017
</metadata>
<g transform="translate(0.000000,572.000000) scale(0.100000,-0.100000)"
fill="#000000" stroke="none">
<path fill="#000000" stroke="none" d="M1372 5595 c-282 -67 -514 -124 -515
-126 -2 -2 -140 -195 -306 -428 l-303 -424 -122 -321 -122 -321 7 -1838 c4
-1011 9 -1841 12 -1843 2 -2 1205 -67 2673 -144 1468 -76 2705 -141 2748 -145
l79 -6 -384 292 c-211 161 -473 365 -581 453 l-198 160 0 401 0 400 -185 307
-185 306 43 344 43 344 -38 129 c-20 72 -60 225 -88 340 -95 388 -98 395 -418
987 l-284 527 -240 195 c-199 163 -245 196 -271 196 -18 0 -42 3 -54 6 -13 4
-77 70 -144 148 -67 77 -125 144 -128 148 -3 3 -107 11 -231 17 -124 6 -241
13 -260 15 -21 2 -238 -45 -548 -119z"/>
<path fill="#ffffff" stroke="none" d="M1399 4024 l296 -75 130 -84 c121 -78
135 -91 210 -186 44 -56 83 -108 87 -114 14 -24 68 -302 82 -424 l14 -125 -74
-149 c-92 -184 -198 -336 -306 -444 l-83 -82 -160 -52 c-127 -40 -189 -55
-301 -68 l-142 -17 -241 65 c-169 46 -235 68 -219 72 13 4 97 43 188 86 128
62 189 99 269 162 90 69 161 147 161 174 0 4 -19 36 -42 71 -39 59 -48 66
-105 86 l-62 22 -218 -46 -218 -45 -175 -96 c-96 -53 -194 -108 -217 -121
l-41 -24 -38 52 c-32 45 -42 72 -67 188 -29 135 -29 135 -23 381 4 171 11 260
21 290 7 24 28 90 45 147 l31 102 137 69 c120 61 146 79 212 145 70 72 77 76
120 77 25 0 117 9 205 19 88 9 175 18 194 19 19 0 168 -33 330 -75z"/>
</g>
</svg>
