<?xml version="1.0" standalone="no"?>
<!DOCTYPE svg PUBLIC "-//W3C//DTD SVG 20010904//EN"
 "http://www.w3.org/TR/2001/REC-SVG-20010904/DTD/svg10.dtd">
<svg version="1.0" xmlns="http://www.w3.org/2000/svg"
 width="36.000000pt" height="37.000000pt" viewBox="0 0 36.000000 37.000000"
 preserveAspectRatio="xMidYMid meet">
<metadata>
Created by potrace 1.14, written by Peter Selinger 2001-2017
</metadata>
<g transform="translate(0.000000,37.000000) scale(0.100000,-0.100000)"
fill="#000000" stroke="none">
<path fill="#000000" stroke="none" d="M10 355 c-11 -13 -5 -45 32 -183 25
-92 50 -167 56 -167 6 0 58 37 115 83 88 69 108 90 125 132 l21 50 -49 -25
c-27 -14 -51 -29 -55 -35 -10 -16 -96 0 -142 26 -35 20 -42 30 -48 66 -11 64
-30 83 -55 53z"/>
</g>
</svg>
