<?xml version="1.0" standalone="no"?>
<!DOCTYPE svg PUBLIC "-//W3C//DTD SVG 20010904//EN"
 "http://www.w3.org/TR/2001/REC-SVG-20010904/DTD/svg10.dtd">
<svg version="1.0" xmlns="http://www.w3.org/2000/svg"
 width="297.000000pt" height="287.000000pt" viewBox="0 0 297.000000 287.000000"
 preserveAspectRatio="xMidYMid meet">
<metadata>
Created by potrace 1.14, written by Peter Selinger 2001-2017
</metadata>
<g transform="translate(0.000000,287.000000) scale(0.100000,-0.100000)"
fill="#000000" stroke="none">
<path fill="#000000" stroke="none" d="M13 2858 c-1 -7 -4 -585 -9 -1285 l-7
-1272 138 -148 c76 -81 139 -149 140 -151 1 -1 107 16 236 38 180 32 241 46
265 63 17 12 185 137 372 277 274 204 341 260 342 278 0 13 -4 20 -10 17 -5
-3 -10 2 -10 12 0 24 -46 427 -65 572 -9 68 -15 191 -15 300 0 102 -7 268 -16
369 -9 101 -14 186 -10 189 3 3 104 -36 223 -88 l218 -95 125 -206 c95 -157
150 -236 228 -326 l103 -119 95 -28 c66 -20 98 -25 105 -18 21 21 92 1 152
-41 l58 -41 116 -4 115 -3 -7 23 c-4 13 -20 43 -37 67 -20 29 -27 48 -22 60 4
9 6 20 6 25 -3 11 5 9 46 -12 86 -43 85 -57 20 200 -33 128 -78 284 -100 348
-39 110 -45 120 -112 190 -80 83 -186 158 -290 207 -39 18 -83 41 -96 52 -14
11 -47 31 -75 45 -27 14 -142 103 -254 197 -112 95 -247 206 -299 246 l-94 74
-787 0 c-623 0 -788 -3 -788 -12z"/>
</g>
</svg>
