<?xml version="1.0" standalone="no"?>
<!DOCTYPE svg PUBLIC "-//W3C//DTD SVG 20010904//EN"
 "http://www.w3.org/TR/2001/REC-SVG-20010904/DTD/svg10.dtd">
<svg version="1.0" xmlns="http://www.w3.org/2000/svg"
 width="30.000000pt" height="30.000000pt" viewBox="0 0 30.000000 30.000000"
 preserveAspectRatio="xMidYMid meet">
<metadata>
Created by potrace 1.14, written by Peter Selinger 2001-2017
</metadata>
<g transform="translate(0.000000,30.000000) scale(0.100000,-0.100000)"
fill="#000000" stroke="none">
<path fill="#000000" stroke="none" d="M130 286 c-6 -9 -10 -36 -9 -63 l3 -48
-44 -7 c-66 -11 -113 -78 -55 -78 13 0 59 -5 101 -11 71 -11 78 -14 96 -46 12
-19 27 -33 36 -31 21 4 42 71 35 113 -5 30 -11 37 -42 46 -35 10 -36 12 -37
59 0 27 -6 56 -13 64 -17 20 -55 21 -71 2z"/>
</g>
</svg>
