<?xml version="1.0" standalone="no"?>
<!DOCTYPE svg PUBLIC "-//W3C//DTD SVG 20010904//EN"
 "http://www.w3.org/TR/2001/REC-SVG-20010904/DTD/svg10.dtd">
<svg version="1.0" xmlns="http://www.w3.org/2000/svg"
 width="10.000000pt" height="10.000000pt" viewBox="0 0 10.000000 10.000000"
 preserveAspectRatio="xMidYMid meet">
<metadata>
Created by potrace 1.14, written by Peter Selinger 2001-2017
</metadata>
<g transform="translate(0.000000,10.000000) scale(0.100000,-0.100000)"
fill="#000000" stroke="none">
<path fill="#000000" stroke="none" d="M25 90 c-3 -6 -4 -19 0 -29 3 -12 0
-21 -10 -25 -8 -3 -15 -13 -15 -22 0 -11 5 -14 16 -10 9 3 31 6 49 6 28 0 32
3 28 20 -3 11 -9 20 -14 20 -5 0 -9 9 -9 19 0 10 -7 22 -16 25 -21 8 -22 8
-29 -4z"/>
</g>
</svg>
