<?xml version="1.0" standalone="no"?>
<!DOCTYPE svg PUBLIC "-//W3C//DTD SVG 20010904//EN"
 "http://www.w3.org/TR/2001/REC-SVG-20010904/DTD/svg10.dtd">
<svg version="1.0" xmlns="http://www.w3.org/2000/svg"
 width="39.000000pt" height="40.000000pt" viewBox="0 0 39.000000 40.000000"
 preserveAspectRatio="xMidYMid meet">
<metadata>
Created by potrace 1.14, written by Peter Selinger 2001-2017
</metadata>
<g transform="translate(0.000000,40.000000) scale(0.100000,-0.100000)"
fill="#000000" stroke="none">
<path fill="#000000" stroke="none" d="M70 368 l-23 -31 20 -63 c21 -63 21
-63 1 -81 -11 -10 -28 -34 -38 -53 -17 -34 -35 -100 -28 -100 2 0 69 -9 148
-20 79 -11 147 -17 151 -13 6 8 76 188 81 212 2 8 -11 18 -30 25 -18 6 -70 44
-116 84 -99 84 -128 92 -166 40z"/>
</g>
</svg>
