<?xml version="1.0" standalone="no"?>
<!DOCTYPE svg PUBLIC "-//W3C//DTD SVG 20010904//EN"
 "http://www.w3.org/TR/2001/REC-SVG-20010904/DTD/svg10.dtd">
<svg version="1.0" xmlns="http://www.w3.org/2000/svg"
 width="37.000000pt" height="37.000000pt" viewBox="0 0 37.000000 37.000000"
 preserveAspectRatio="xMidYMid meet">
<metadata>
Created by potrace 1.14, written by Peter Selinger 2001-2017
</metadata>
<g transform="translate(0.000000,37.000000) scale(0.100000,-0.100000)"
fill="#000000" stroke="none">
<path fill="#000000" stroke="none" d="M168 359 c-13 -7 -18 -23 -18 -57 0
-45 -2 -49 -63 -99 -61 -51 -97 -97 -84 -109 3 -3 12 -2 19 2 29 18 47 12 73
-26 23 -33 25 -42 15 -55 -11 -13 -8 -15 15 -15 16 0 43 14 68 35 48 42 57 43
57 10 0 -27 18 -32 51 -15 26 15 24 53 -7 105 -14 25 -23 49 -19 55 12 20 44
10 62 -20 25 -44 36 -37 29 18 -10 70 -32 103 -96 145 -61 39 -74 43 -102 26z"/>
</g>
</svg>
