<?xml version="1.0" standalone="no"?>
<!DOCTYPE svg PUBLIC "-//W3C//DTD SVG 20010904//EN"
 "http://www.w3.org/TR/2001/REC-SVG-20010904/DTD/svg10.dtd">
<svg version="1.0" xmlns="http://www.w3.org/2000/svg"
 width="90.000000pt" height="94.000000pt" viewBox="0 0 90.000000 94.000000"
 preserveAspectRatio="xMidYMid meet">
<metadata>
Created by potrace 1.14, written by Peter Selinger 2001-2017
</metadata>
<g transform="translate(0.000000,94.000000) scale(0.100000,-0.100000)"
fill="#000000" stroke="none">
<path fill="#000000" stroke="none" d="M0 693 c0 -137 3 -285 7 -331 l6 -83
81 -63 c45 -34 95 -73 113 -86 l32 -23 84 21 c107 27 133 20 202 -55 48 -52
53 -55 119 -65 80 -12 169 -3 191 19 8 8 26 29 40 47 23 31 24 35 13 94 -11
61 -11 61 -87 115 -62 44 -90 57 -152 71 -93 21 -119 44 -182 171 -52 105
-124 180 -227 237 -36 20 -102 68 -147 107 -45 39 -84 71 -87 71 -3 0 -6 -111
-6 -247z"/>
</g>
</svg>
