<?xml version="1.0" standalone="no"?>
<!DOCTYPE svg PUBLIC "-//W3C//DTD SVG 20010904//EN"
 "http://www.w3.org/TR/2001/REC-SVG-20010904/DTD/svg10.dtd">
<svg version="1.0" xmlns="http://www.w3.org/2000/svg"
 width="174.000000pt" height="182.000000pt" viewBox="0 0 174.000000 182.000000"
 preserveAspectRatio="xMidYMid meet">
<metadata>
Created by potrace 1.14, written by Peter Selinger 2001-2017
</metadata>
<g transform="translate(0.000000,182.000000) scale(0.100000,-0.100000)"
fill="#000000" stroke="none">
<path fill="#000000" stroke="none" d="M180 1807 c-70 -24 -106 -64 -123 -138
-4 -15 -18 -34 -32 -43 -28 -18 -34 -63 -10 -72 11 -5 15 -22 15 -63 1 -82 13
-124 55 -182 43 -57 48 -54 59 26 4 28 14 82 23 122 l16 71 52 20 c43 17 114
33 252 58 19 4 21 7 12 32 -16 48 -67 100 -132 136 -70 39 -135 50 -187 33z"/>
<path fill="#000000" stroke="none" d="M850 813 c-50 -155 -61 -262 -40 -363
l12 -57 120 -33 c104 -29 128 -40 190 -87 49 -36 80 -69 98 -102 15 -26 41
-69 59 -94 28 -38 37 -44 55 -37 15 5 35 0 69 -17 27 -13 52 -22 55 -18 3 3
-4 25 -15 48 -21 43 -21 44 -2 55 17 11 25 8 55 -14 19 -15 44 -40 55 -55 29
-40 43 -37 36 9 -3 20 -8 45 -12 55 -6 15 1 17 75 17 78 0 81 1 78 22 -2 19
-17 26 -90 48 -67 19 -96 33 -125 61 -26 25 -55 41 -90 50 -50 12 -53 15 -69
60 -15 40 -30 57 -99 108 l-82 60 -34 92 c-34 91 -34 92 -94 126 -52 30 -66
44 -93 96 -66 127 -62 128 -112 -30z"/>
</g>
</svg>
