<?xml version="1.0" standalone="no"?>
<!DOCTYPE svg PUBLIC "-//W3C//DTD SVG 20010904//EN"
 "http://www.w3.org/TR/2001/REC-SVG-20010904/DTD/svg10.dtd">
<svg version="1.0" xmlns="http://www.w3.org/2000/svg"
 width="413.000000pt" height="423.000000pt" viewBox="0 0 413.000000 423.000000"
 preserveAspectRatio="xMidYMid meet">
<metadata>
Created by potrace 1.14, written by Peter Selinger 2001-2017
</metadata>
<g transform="translate(0.000000,423.000000) scale(0.100000,-0.100000)"
fill="#000000" stroke="none">
<path fill="#000000" stroke="none" d="M1250 4219 c-14 -6 -63 -18 -110 -28
l-85 -17 -73 -114 -74 -115 7 -162 c4 -121 2 -183 -9 -245 -30 -172 -32 -161
34 -221 52 -47 60 -60 85 -135 15 -46 25 -85 24 -86 -2 -2 -54 -20 -114 -40
-109 -36 -112 -36 -277 -36 l-168 0 -30 -52 c-17 -29 -81 -154 -144 -278 -100
-197 -123 -252 -185 -445 -70 -219 -70 -221 -98 -468 l-29 -247 96 -29 c52
-16 129 -39 170 -51 41 -12 76 -23 78 -25 1 -1 18 -118 38 -260 27 -197 52
-329 105 -550 38 -161 69 -297 69 -302 0 -6 -32 -33 -71 -59 -84 -58 -105 -94
-101 -170 l3 -51 82 -14 c70 -13 98 -13 187 -1 65 8 116 20 134 32 40 25 193
177 214 212 9 15 22 28 30 28 7 0 146 -25 308 -55 162 -31 300 -53 307 -49 6
4 36 26 65 48 54 42 122 144 122 184 0 11 4 22 10 24 7 2 5 69 -5 193 -8 105
-21 339 -29 522 l-15 331 -77 139 c-42 76 -77 143 -77 148 0 6 49 152 108 325
60 173 125 378 144 455 l36 139 320 172 c176 94 321 178 323 186 5 26 -160 46
-483 59 -165 6 -301 13 -303 14 -2 2 -7 31 -12 66 -9 59 -7 66 26 137 18 41
34 80 34 87 0 7 -16 54 -35 105 l-34 93 9 141 c7 115 6 158 -7 231 l-15 90
-70 49 c-64 44 -77 49 -151 57 -45 5 -114 18 -153 29 -78 22 -97 23 -134 9z"/>
<path fill="#000000" stroke="none" d="M3305 3131 l21 -65 153 -42 c83 -23
154 -44 157 -47 3 -3 10 -53 15 -111 20 -227 29 -263 100 -375 l64 -101 87 0
87 0 71 101 71 101 -32 81 c-18 45 -64 128 -103 186 -38 58 -97 153 -131 211
l-61 105 -180 7 c-98 4 -216 8 -260 10 l-81 4 22 -65z"/>
</g>
</svg>
