<?xml version="1.0" standalone="no"?>
<!DOCTYPE svg PUBLIC "-//W3C//DTD SVG 20010904//EN"
 "http://www.w3.org/TR/2001/REC-SVG-20010904/DTD/svg10.dtd">
<svg version="1.0" xmlns="http://www.w3.org/2000/svg"
 width="383.000000pt" height="381.000000pt" viewBox="0 0 383.000000 381.000000"
 preserveAspectRatio="xMidYMid meet">
<metadata>
Created by potrace 1.14, written by Peter Selinger 2001-2017
</metadata>
<g transform="translate(0.000000,381.000000) scale(0.100000,-0.100000)"
fill="#000000" stroke="none">
<path fill="#000000" stroke="none" d="M1741 3791 l-134 -16 -104 -180 -105
-180 46 -250 c26 -137 46 -253 46 -257 0 -5 -11 -8 -25 -8 -23 0 -25 -4 -25
-44 0 -42 -4 -48 -51 -88 -28 -24 -55 -53 -59 -64 -5 -12 -70 -66 -144 -120
-75 -55 -138 -106 -140 -114 -14 -44 -26 -324 -21 -527 2 -128 2 -233 -1 -233
-2 0 -59 42 -124 92 -128 99 -141 105 -207 107 -39 1 -43 3 -43 26 0 19 -10
29 -40 45 -38 19 -48 20 -148 10 -181 -18 -168 -13 -178 -73 l-9 -52 -80 -11
c-44 -6 -106 -14 -137 -18 -52 -7 -58 -10 -58 -31 0 -21 11 -27 102 -55 57
-18 116 -34 133 -37 19 -3 90 13 199 46 92 28 173 48 180 44 6 -4 61 -44 121
-89 61 -45 129 -91 152 -103 23 -12 47 -29 52 -39 6 -11 34 -37 63 -59 50 -38
55 -46 81 -129 16 -49 34 -105 41 -124 9 -29 24 -41 84 -73 70 -37 73 -40 59
-60 -8 -12 -17 -43 -20 -69 -6 -45 -5 -47 23 -57 37 -12 36 8 10 -406 -11
-171 -20 -321 -20 -335 0 -24 -2 -25 -57 -22 -32 2 -56 2 -53 -1 3 -3 63 -21
135 -41 113 -32 135 -41 170 -75 l40 -38 475 -41 c261 -23 476 -39 478 -38 2
2 23 68 48 146 l44 142 -6 131 c-3 73 -7 177 -8 232 -2 55 -7 181 -11 280 l-7
180 36 137 c34 128 36 141 26 203 -6 37 -22 89 -36 117 -21 41 -24 61 -22 118
l3 68 65 -38 c36 -22 68 -39 71 -40 3 0 14 35 24 79 l18 78 140 44 141 44 138
191 137 190 159 -19 158 -19 132 77 c73 42 132 80 132 84 0 4 -59 34 -131 66
l-131 58 -212 -28 c-116 -15 -217 -33 -224 -39 -10 -10 -9 -18 9 -40 l22 -27
-34 -35 c-18 -19 -64 -60 -101 -92 -39 -33 -70 -68 -73 -83 -5 -24 -52 -60
-85 -65 -58 -10 -55 -12 -56 41 0 37 -15 84 -57 183 -84 198 -138 281 -264
404 -59 57 -114 112 -121 122 -8 9 -26 19 -42 23 -25 5 -27 8 -17 24 7 11 17
19 24 19 18 0 17 11 -18 135 -54 199 -111 328 -207 475 -77 119 -97 141 -160
188 -40 28 -73 51 -75 51 -1 -1 -62 -9 -136 -18z"/>
</g>
</svg>
