<?xml version="1.0" standalone="no"?>
<!DOCTYPE svg PUBLIC "-//W3C//DTD SVG 20010904//EN"
 "http://www.w3.org/TR/2001/REC-SVG-20010904/DTD/svg10.dtd">
<svg version="1.0" xmlns="http://www.w3.org/2000/svg"
 width="472.000000pt" height="480.000000pt" viewBox="0 0 472.000000 480.000000"
 preserveAspectRatio="xMidYMid meet">
<metadata>
Created by potrace 1.14, written by Peter Selinger 2001-2017
</metadata>
<g transform="translate(0.000000,480.000000) scale(0.100000,-0.100000)"
fill="#000000" stroke="none">
<path fill="#000000" stroke="none" d="M2140 4788 c0 -8 7 -84 15 -169 14
-135 21 -167 55 -257 22 -57 40 -109 40 -116 0 -7 -38 -63 -85 -123 l-84 -110
-3 -94 -3 -93 -180 -132 c-164 -120 -191 -136 -312 -184 -102 -41 -133 -58
-136 -74 -3 -12 -18 -91 -33 -176 l-27 -155 -103 -195 c-57 -107 -132 -260
-167 -340 l-63 -145 11 -175 11 -175 62 -124 c50 -98 85 -150 173 -254 60 -72
106 -134 102 -137 -5 -4 -109 -15 -233 -24 -124 -10 -350 -33 -504 -52 -180
-22 -349 -37 -477 -41 l-199 -6 0 -593 c0 -521 2 -599 16 -634 10 -23 15 -59
12 -88 l-3 -48 50 3 c28 2 282 17 565 33 l515 29 335 137 335 136 263 -6 263
-7 162 -81 162 -80 53 -80 c30 -44 52 -81 50 -83 -2 -2 -25 -10 -53 -18 l-50
-16 50 0 c28 -1 380 -10 784 -21 404 -11 743 -18 753 -14 10 3 18 9 18 14 0 5
-25 36 -55 69 -54 58 -57 64 -99 208 -42 144 -162 459 -212 557 -25 48 -25 49
-6 70 10 11 82 95 159 186 106 125 173 193 277 280 123 103 146 127 221 237
l84 121 12 152 c9 116 17 166 35 213 13 33 24 67 24 75 0 23 -346 715 -476
954 l-119 217 -126 94 c-69 53 -144 118 -165 145 -34 43 -58 59 -189 124 -164
82 -360 211 -369 243 -3 11 -6 52 -6 90 0 65 6 83 77 250 l76 180 6 146 6 146
-375 7 c-206 3 -498 9 -647 12 -239 6 -273 5 -273 -8z"/>
<path fill="#ffffff" stroke="none" d="M3449 2650 c79 -22 151 -46 160 -53 9
-8 71 -59 137 -115 121 -101 122 -102 178 -211 45 -87 62 -136 85 -238 29
-126 29 -132 20 -274 -6 -79 -13 -168 -17 -198 l-7 -54 -148 -82 c-81 -45
-150 -85 -153 -88 -3 -2 -2 -27 2 -54 l6 -50 49 5 c27 2 49 2 49 -1 0 -3 -44
-30 -97 -61 -93 -53 -174 -119 -220 -179 -30 -40 -112 -65 -304 -96 -164 -27
-168 -27 -245 -10 -58 12 -126 41 -265 110 l-186 94 -57 86 c-35 53 -82 147
-121 244 l-65 157 0 149 c0 121 5 171 25 264 l25 115 122 162 c119 159 125
165 232 239 99 67 126 80 246 119 153 48 200 57 320 59 71 1 109 -6 229 -39z"/>
</g>
</svg>
