<?xml version="1.0" standalone="no"?>
<!DOCTYPE svg PUBLIC "-//W3C//DTD SVG 20010904//EN"
 "http://www.w3.org/TR/2001/REC-SVG-20010904/DTD/svg10.dtd">
<svg version="1.0" xmlns="http://www.w3.org/2000/svg"
 width="78.000000pt" height="78.000000pt" viewBox="0 0 78.000000 78.000000"
 preserveAspectRatio="xMidYMid meet">
<metadata>
Created by potrace 1.14, written by Peter Selinger 2001-2017
</metadata>
<g transform="translate(0.000000,78.000000) scale(0.100000,-0.100000)"
fill="#000000" stroke="none">
<path fill="#000000" stroke="none" d="M229 764 c-7 -9 -32 -29 -56 -45 -40
-28 -43 -33 -43 -73 l0 -44 43 -6 c33 -5 47 -13 60 -35 24 -41 21 -70 -13
-115 -33 -44 -37 -64 -15 -72 13 -5 12 -10 -5 -31 -10 -13 -24 -50 -30 -81
-17 -84 -49 -128 -100 -137 -24 -4 -46 -15 -55 -28 -15 -20 -14 -24 10 -44 36
-32 99 -46 168 -38 39 4 63 2 73 -6 11 -9 18 -8 30 2 15 12 16 31 10 159 -7
135 -9 147 -32 170 l-24 26 22 22 c20 19 22 34 26 149 5 186 5 192 -13 219
-18 28 -37 31 -56 8z"/>
<path fill="#000000" stroke="none" d="M417 743 c-9 -14 -55 -203 -50 -203 2
0 24 14 49 30 57 40 81 83 63 116 -17 32 -56 67 -62 57z"/>
<path fill="#000000" stroke="none" d="M602 339 c-138 -33 -156 -46 -147 -109
16 -117 12 -110 68 -110 39 0 58 6 84 26 38 29 51 27 33 -6 -8 -15 -9 -25 -1
-33 7 -7 5 -19 -5 -39 l-16 -30 34 7 c45 10 45 10 69 58 36 69 59 148 59 199
0 26 -1 48 -3 48 -1 0 -16 4 -32 8 -21 6 -63 0 -143 -19z"/>
</g>
</svg>
