<?xml version="1.0" standalone="no"?>
<!DOCTYPE svg PUBLIC "-//W3C//DTD SVG 20010904//EN"
 "http://www.w3.org/TR/2001/REC-SVG-20010904/DTD/svg10.dtd">
<svg version="1.0" xmlns="http://www.w3.org/2000/svg"
 width="89.000000pt" height="89.000000pt" viewBox="0 0 89.000000 89.000000"
 preserveAspectRatio="xMidYMid meet">
<metadata>
Created by potrace 1.14, written by Peter Selinger 2001-2017
</metadata>
<g transform="translate(0.000000,89.000000) scale(0.100000,-0.100000)"
fill="#000000" stroke="none">
<path fill="#000000" stroke="none" d="M105 843 c-31 -43 -35 -55 -35 -113 0
-36 7 -92 15 -124 l15 -58 -48 -61 c-65 -85 -62 -116 27 -228 38 -49 77 -87
96 -95 26 -10 38 -27 65 -89 l33 -75 69 127 c45 85 82 140 109 163 22 19 45
46 52 60 12 24 19 25 122 32 l109 8 79 78 78 78 -15 64 c-12 54 -22 71 -53 98
-63 53 -124 90 -224 131 l-95 40 -75 -23 -75 -23 -55 28 c-38 20 -69 28 -106
29 -52 0 -54 -1 -88 -47z"/>
</g>
</svg>
