<?xml version="1.0" standalone="no"?>
<!DOCTYPE svg PUBLIC "-//W3C//DTD SVG 20010904//EN"
 "http://www.w3.org/TR/2001/REC-SVG-20010904/DTD/svg10.dtd">
<svg version="1.0" xmlns="http://www.w3.org/2000/svg"
 width="462.000000pt" height="474.000000pt" viewBox="0 0 462.000000 474.000000"
 preserveAspectRatio="xMidYMid meet">
<metadata>
Created by potrace 1.14, written by Peter Selinger 2001-2017
</metadata>
<g transform="translate(0.000000,474.000000) scale(0.100000,-0.100000)"
fill="#000000" stroke="none">
<path fill="#000000" stroke="none" d="M20 4396 c0 -188 -5 -1244 -11 -2346
-6 -1101 -9 -2003 -7 -2005 4 -4 4609 -48 4612 -44 2 2 -9 103 -24 224 l-28
220 -73 136 -74 137 -175 87 -174 87 114 108 115 107 3 199 3 199 -145 332
c-144 330 -145 331 -246 467 l-102 136 -52 -5 c-197 -20 -364 -27 -978 -45
-381 -11 -792 -24 -913 -30 -121 -5 -250 -10 -287 -10 l-68 0 161 187 c89 104
163 190 165 192 7 8 1146 -31 1445 -50 180 -12 334 -19 342 -17 12 2 -13 41
-85 138 l-102 135 -352 292 -351 293 -139 214 -139 214 -426 364 c-234 199
-433 369 -442 376 -12 11 -179 18 -759 33 -409 10 -758 19 -775 19 l-33 0 0
-344z"/>
</g>
</svg>
