<?xml version="1.0" standalone="no"?>
<!DOCTYPE svg PUBLIC "-//W3C//DTD SVG 20010904//EN"
 "http://www.w3.org/TR/2001/REC-SVG-20010904/DTD/svg10.dtd">
<svg version="1.0" xmlns="http://www.w3.org/2000/svg"
 width="48.000000pt" height="49.000000pt" viewBox="0 0 48.000000 49.000000"
 preserveAspectRatio="xMidYMid meet">
<metadata>
Created by potrace 1.14, written by Peter Selinger 2001-2017
</metadata>
<g transform="translate(0.000000,49.000000) scale(0.100000,-0.100000)"
fill="#000000" stroke="none">
<path fill="#000000" stroke="none" d="M189 462 c-91 -35 -159 -73 -159 -89 0
-6 4 -23 9 -36 7 -17 3 -47 -14 -107 -21 -74 -22 -85 -9 -116 8 -20 21 -34 32
-34 9 0 91 -18 181 -40 90 -22 164 -40 166 -40 1 0 5 28 9 62 3 35 21 140 40
233 18 94 30 174 26 178 -4 4 -51 10 -106 13 -91 4 -105 2 -175 -24z"/>
</g>
</svg>
