<?xml version="1.0" standalone="no"?>
<!DOCTYPE svg PUBLIC "-//W3C//DTD SVG 20010904//EN"
 "http://www.w3.org/TR/2001/REC-SVG-20010904/DTD/svg10.dtd">
<svg version="1.0" xmlns="http://www.w3.org/2000/svg"
 width="43.000000pt" height="41.000000pt" viewBox="0 0 43.000000 41.000000"
 preserveAspectRatio="xMidYMid meet">
<metadata>
Created by potrace 1.14, written by Peter Selinger 2001-2017
</metadata>
<g transform="translate(0.000000,41.000000) scale(0.100000,-0.100000)"
fill="#000000" stroke="none">
<path fill="#000000" stroke="none" d="M190 394 c-48 -21 -67 -51 -79 -123 -7
-45 -20 -75 -46 -111 -34 -46 -47 -75 -59 -131 l-5 -25 182 29 c100 16 197 31
215 34 43 5 42 26 -8 93 -38 51 -39 55 -33 110 5 50 2 63 -17 92 -13 18 -24
34 -24 35 -1 0 -21 4 -46 6 -29 4 -58 0 -80 -9z"/>
</g>
</svg>
