<?xml version="1.0" standalone="no"?>
<!DOCTYPE svg PUBLIC "-//W3C//DTD SVG 20010904//EN"
 "http://www.w3.org/TR/2001/REC-SVG-20010904/DTD/svg10.dtd">
<svg version="1.0" xmlns="http://www.w3.org/2000/svg"
 width="63.000000pt" height="65.000000pt" viewBox="0 0 63.000000 65.000000"
 preserveAspectRatio="xMidYMid meet">
<metadata>
Created by potrace 1.14, written by Peter Selinger 2001-2017
</metadata>
<g transform="translate(0.000000,65.000000) scale(0.100000,-0.100000)"
fill="#000000" stroke="none">
<path fill="#000000" stroke="none" d="M410 623 c-25 -14 -46 -27 -48 -28 -2
-2 -12 -35 -23 -75 l-21 -72 35 -52 34 -51 -157 -94 -157 -94 -37 -75 c-20
-41 -35 -76 -33 -78 3 -4 545 70 593 81 19 4 22 14 28 100 l7 95 -35 44 -36
43 0 116 0 116 -43 26 c-24 14 -48 25 -53 25 -5 0 -29 -12 -54 -27z"/>
</g>
</svg>
