<?xml version="1.0" standalone="no"?>
<!DOCTYPE svg PUBLIC "-//W3C//DTD SVG 20010904//EN"
 "http://www.w3.org/TR/2001/REC-SVG-20010904/DTD/svg10.dtd">
<svg version="1.0" xmlns="http://www.w3.org/2000/svg"
 width="161.000000pt" height="155.000000pt" viewBox="0 0 161.000000 155.000000"
 preserveAspectRatio="xMidYMid meet">
<metadata>
Created by potrace 1.14, written by Peter Selinger 2001-2017
</metadata>
<g transform="translate(0.000000,155.000000) scale(0.100000,-0.100000)"
fill="#000000" stroke="none">
<path fill="#000000" stroke="none" d="M636 1533 c-2 -10 -35 -155 -72 -323
l-68 -305 -248 -255 -248 -255 0 -198 0 -198 32 37 c32 36 102 74 139 74 10 0
37 10 59 21 47 25 75 20 190 -29 19 -8 73 -17 120 -19 99 -6 100 -6 130 82 37
107 27 122 -91 132 -54 5 -75 11 -95 29 -30 29 -57 30 -92 6 -38 -26 -60 -33
-88 -26 -42 11 -30 42 25 65 58 25 81 66 80 144 0 32 13 91 36 163 40 125 54
140 127 149 24 3 54 15 68 27 54 47 56 48 98 36 34 -9 42 -16 48 -43 4 -17 7
-39 5 -48 -2 -21 51 -67 109 -92 25 -11 53 -27 64 -36 29 -25 108 -150 133
-210 28 -67 29 -91 4 -91 -17 0 -17 -5 -9 -52 9 -49 8 -85 -8 -186 -3 -23 -3
-59 1 -80 7 -35 8 -36 15 -12 5 14 11 36 14 50 3 14 30 52 61 85 33 36 61 77
70 105 12 35 28 56 65 84 l50 38 65 -9 c47 -7 72 -6 94 3 16 7 31 10 34 8 5
-6 58 126 56 141 0 6 -110 112 -243 236 l-242 227 -48 271 -49 271 -193 0
c-175 0 -193 -2 -198 -17z"/>
</g>
</svg>
