<?xml version="1.0" standalone="no"?>
<!DOCTYPE svg PUBLIC "-//W3C//DTD SVG 20010904//EN"
 "http://www.w3.org/TR/2001/REC-SVG-20010904/DTD/svg10.dtd">
<svg version="1.0" xmlns="http://www.w3.org/2000/svg"
 width="41.000000pt" height="43.000000pt" viewBox="0 0 41.000000 43.000000"
 preserveAspectRatio="xMidYMid meet">
<metadata>
Created by potrace 1.14, written by Peter Selinger 2001-2017
</metadata>
<g transform="translate(0.000000,43.000000) scale(0.100000,-0.100000)"
fill="#000000" stroke="none">
<path fill="#000000" stroke="none" d="M199 423 c-24 -4 -28 -12 -48 -86 -12
-45 -21 -93 -21 -107 0 -17 -12 -34 -34 -52 -33 -26 -96 -110 -96 -128 0 -16
61 -29 163 -35 56 -3 135 -8 175 -11 l72 -5 0 30 c0 52 -37 134 -75 166 l-35
30 15 49 c16 52 17 48 -40 119 -16 20 -34 36 -40 36 -5 -1 -22 -4 -36 -6z"/>
</g>
</svg>
