<?xml version="1.0" standalone="no"?>
<!DOCTYPE svg PUBLIC "-//W3C//DTD SVG 20010904//EN"
 "http://www.w3.org/TR/2001/REC-SVG-20010904/DTD/svg10.dtd">
<svg version="1.0" xmlns="http://www.w3.org/2000/svg"
 width="27.000000pt" height="27.000000pt" viewBox="0 0 27.000000 27.000000"
 preserveAspectRatio="xMidYMid meet">
<metadata>
Created by potrace 1.14, written by Peter Selinger 2001-2017
</metadata>
<g transform="translate(0.000000,27.000000) scale(0.100000,-0.100000)"
fill="#000000" stroke="none">
<path fill="#000000" stroke="none" d="M160 251 c-5 -11 -10 -34 -10 -51 0
-37 -34 -90 -58 -90 -33 0 -94 -22 -86 -30 5 -5 25 -13 44 -17 29 -8 35 -14
35 -37 -1 -24 2 -26 25 -21 36 9 103 55 135 93 25 30 26 34 12 55 -10 16 -13
38 -10 70 l6 47 -41 0 c-31 0 -44 -5 -52 -19z"/>
</g>
</svg>
