<?xml version="1.0" standalone="no"?>
<!DOCTYPE svg PUBLIC "-//W3C//DTD SVG 20010904//EN"
 "http://www.w3.org/TR/2001/REC-SVG-20010904/DTD/svg10.dtd">
<svg version="1.0" xmlns="http://www.w3.org/2000/svg"
 width="370.000000pt" height="354.000000pt" viewBox="0 0 370.000000 354.000000"
 preserveAspectRatio="xMidYMid meet">
<metadata>
Created by potrace 1.14, written by Peter Selinger 2001-2017
</metadata>
<g transform="translate(0.000000,354.000000) scale(0.100000,-0.100000)"
fill="#000000" stroke="none">
<path fill="#000000" stroke="none" d="M268 3303 c-206 -390 -223 -427 -241
-528 -18 -100 -32 -215 -26 -215 2 0 74 -14 159 -30 85 -16 156 -30 158 -30 1
0 2 -21 2 -47 1 -27 6 -80 13 -119 10 -56 21 -81 52 -122 25 -32 48 -51 61
-52 13 0 31 -15 47 -39 14 -21 41 -48 60 -60 26 -16 45 -43 76 -107 37 -77 44
-104 71 -279 16 -107 36 -220 44 -252 8 -32 22 -91 31 -131 14 -71 18 -77 97
-162 77 -82 87 -89 133 -97 27 -5 74 -7 102 -5 57 4 56 2 36 74 -2 10 -24 32
-49 50 -37 26 -44 37 -44 65 l0 34 98 -81 c87 -71 103 -80 139 -80 l41 0 6
173 c4 94 9 209 12 255 5 78 4 85 -25 134 l-30 53 26 47 26 47 29 -15 c27 -14
31 -13 76 17 26 18 49 33 50 35 10 7 -83 145 -125 185 -60 58 -113 88 -233
134 -138 53 -174 76 -220 147 -22 34 -40 64 -40 67 0 4 -7 47 -15 96 -20 121
-19 244 3 330 l18 69 110 17 c136 21 158 29 214 84 42 41 52 46 145 66 82 17
120 20 210 15 61 -4 135 -13 165 -21 30 -8 77 -15 104 -15 42 0 63 -9 155 -64
147 -88 327 -192 451 -261 96 -53 486 -321 508 -348 5 -7 42 -111 82 -232 44
-134 93 -261 126 -325 109 -214 103 -188 116 -499 l11 -276 49 -72 c61 -92
130 -245 114 -255 -22 -15 -155 -7 -294 17 -78 14 -149 25 -157 25 -7 0 -27
-11 -42 -24 -28 -24 -32 -24 -104 -15 -53 8 -94 8 -147 -1 l-73 -12 -97 65
c-171 114 -189 121 -332 128 -69 3 -138 10 -155 16 -16 6 -81 26 -144 43 -70
19 -131 43 -157 61 -23 16 -47 29 -52 29 -15 0 -32 -57 -32 -104 l0 -41 231
-130 232 -130 -69 -5 c-62 -5 -114 -24 -114 -41 0 -14 -107 -59 -145 -61 -103
-5 -116 -1 -203 68 -98 79 -115 110 -131 244 -7 52 -13 95 -15 97 -8 9 -78
-21 -91 -40 -19 -28 -19 -112 1 -197 13 -59 73 -262 78 -267 11 -12 217 -43
287 -43 68 0 115 -7 197 -29 97 -27 143 -32 477 -55 l370 -25 154 100 c85 54
156 97 159 94 2 -2 19 -68 37 -147 18 -79 46 -178 62 -220 l28 -77 248 231
247 230 0 1539 0 1539 -1653 0 -1654 0 -125 -237z"/>
</g>
</svg>
