<?xml version="1.0" standalone="no"?>
<!DOCTYPE svg PUBLIC "-//W3C//DTD SVG 20010904//EN"
 "http://www.w3.org/TR/2001/REC-SVG-20010904/DTD/svg10.dtd">
<svg version="1.0" xmlns="http://www.w3.org/2000/svg"
 width="165.000000pt" height="166.000000pt" viewBox="0 0 165.000000 166.000000"
 preserveAspectRatio="xMidYMid meet">
<metadata>
Created by potrace 1.14, written by Peter Selinger 2001-2017
</metadata>
<g transform="translate(0.000000,166.000000) scale(0.100000,-0.100000)"
fill="#000000" stroke="none">
<path fill="#000000" stroke="none" d="M1504 1611 c-86 -34 -136 -60 -172 -90
-47 -40 -60 -45 -168 -67 l-117 -24 -143 -103 c-83 -60 -298 -239 -522 -437
l-381 -335 6 -260 c3 -143 9 -268 12 -277 5 -14 31 5 131 95 l124 112 375 181
c372 179 379 183 654 368 202 136 277 192 277 206 0 21 56 572 65 638 5 31 3
42 -7 41 -7 0 -67 -22 -134 -48z"/>
</g>
</svg>
