<?xml version="1.0" standalone="no"?>
<!DOCTYPE svg PUBLIC "-//W3C//DTD SVG 20010904//EN"
 "http://www.w3.org/TR/2001/REC-SVG-20010904/DTD/svg10.dtd">
<svg version="1.0" xmlns="http://www.w3.org/2000/svg"
 width="260.000000pt" height="249.000000pt" viewBox="0 0 260.000000 249.000000"
 preserveAspectRatio="xMidYMid meet">
<metadata>
Created by potrace 1.14, written by Peter Selinger 2001-2017
</metadata>
<g transform="translate(0.000000,249.000000) scale(0.100000,-0.100000)"
fill="#000000" stroke="none">
<path fill="#000000" stroke="none" d="M1220 2474 c-52 -7 -135 -18 -185 -24
-127 -16 -399 -86 -472 -122 l-62 -30 -12 -69 c-12 -66 -11 -75 15 -161 15
-50 35 -108 45 -127 10 -20 28 -69 40 -109 l22 -72 -21 -47 c-12 -28 -50 -76
-98 -122 -203 -199 -330 -381 -443 -631 l-51 -115 6 -160 c3 -88 16 -279 28
-424 l22 -264 690 6 c379 4 931 7 1227 7 l537 0 23 97 c20 89 21 116 17 312
-5 185 -3 225 13 295 11 46 23 156 29 256 l9 175 -51 46 c-52 46 -52 46 -69
25 -9 -11 -19 -42 -23 -68 -5 -30 -14 -51 -25 -57 -15 -9 -20 1 -41 79 l-24
88 -43 13 c-55 15 -72 1 -95 -73 -44 -144 -47 -301 -8 -393 l18 -43 -33 -49
c-43 -64 -107 -108 -136 -92 -11 6 -50 56 -86 112 -37 56 -82 121 -101 144
-18 23 -60 79 -92 123 -48 68 -82 100 -206 197 -141 109 -150 118 -171 171
-37 95 -31 146 31 297 51 123 55 139 71 285 10 85 15 178 13 205 -3 30 -26 97
-56 165 -45 102 -55 118 -93 143 -24 15 -48 26 -54 26 -5 -1 -53 -7 -105 -15z"/>
</g>
</svg>
