<?xml version="1.0" standalone="no"?>
<!DOCTYPE svg PUBLIC "-//W3C//DTD SVG 20010904//EN"
 "http://www.w3.org/TR/2001/REC-SVG-20010904/DTD/svg10.dtd">
<svg version="1.0" xmlns="http://www.w3.org/2000/svg"
 width="54.000000pt" height="54.000000pt" viewBox="0 0 54.000000 54.000000"
 preserveAspectRatio="xMidYMid meet">
<metadata>
Created by potrace 1.14, written by Peter Selinger 2001-2017
</metadata>
<g transform="translate(0.000000,54.000000) scale(0.100000,-0.100000)"
fill="#000000" stroke="none">
<path fill="#000000" stroke="none" d="M202 500 l-51 -41 5 -117 5 -117 -80
-102 c-52 -66 -76 -105 -69 -109 6 -4 91 -9 187 -11 162 -4 183 -2 261 20 l85
23 -63 66 c-63 66 -64 67 -88 173 -23 97 -30 113 -81 181 -30 41 -57 74 -58
74 -1 0 -25 -18 -53 -40z"/>
</g>
</svg>
