<?xml version="1.0" standalone="no"?>
<!DOCTYPE svg PUBLIC "-//W3C//DTD SVG 20010904//EN"
 "http://www.w3.org/TR/2001/REC-SVG-20010904/DTD/svg10.dtd">
<svg version="1.0" xmlns="http://www.w3.org/2000/svg"
 width="50.000000pt" height="50.000000pt" viewBox="0 0 50.000000 50.000000"
 preserveAspectRatio="xMidYMid meet">
<metadata>
Created by potrace 1.14, written by Peter Selinger 2001-2017
</metadata>
<g transform="translate(0.000000,50.000000) scale(0.100000,-0.100000)"
fill="#000000" stroke="none">
<path fill="#000000" stroke="none" d="M240 491 l-54 -6 -23 -95 c-12 -52 -22
-116 -23 -142 0 -41 -3 -48 -20 -48 -11 0 -36 -6 -54 -14 -30 -12 -35 -21 -50
-81 -9 -37 -14 -70 -11 -74 5 -5 483 -30 492 -26 2 1 -9 42 -22 92 -19 69 -75
322 -75 338 0 5 -97 65 -101 63 -2 -1 -29 -4 -59 -7z"/>
</g>
</svg>
