<?xml version="1.0" standalone="no"?>
<!DOCTYPE svg PUBLIC "-//W3C//DTD SVG 20010904//EN"
 "http://www.w3.org/TR/2001/REC-SVG-20010904/DTD/svg10.dtd">
<svg version="1.0" xmlns="http://www.w3.org/2000/svg"
 width="139.000000pt" height="134.000000pt" viewBox="0 0 139.000000 134.000000"
 preserveAspectRatio="xMidYMid meet">
<metadata>
Created by potrace 1.14, written by Peter Selinger 2001-2017
</metadata>
<g transform="translate(0.000000,134.000000) scale(0.100000,-0.100000)"
fill="#000000" stroke="none">
<path fill="#000000" stroke="none" d="M658 1331 c-61 -9 -95 -41 -154 -147
-38 -66 -83 -120 -254 -295 l-207 -215 -17 -104 c-10 -58 -19 -117 -22 -131
-4 -23 1 -30 40 -53 24 -14 49 -26 55 -26 5 0 25 15 43 33 33 30 35 37 47 143
l13 110 77 46 c42 26 77 45 79 43 3 -2 -127 -380 -157 -457 -9 -25 -4 -34 57
-115 66 -87 68 -88 117 -94 28 -3 66 -12 85 -21 28 -12 47 -13 96 -5 53 9 80
7 190 -15 71 -15 130 -25 132 -23 2 1 -15 96 -37 210 -36 183 -41 223 -41 351
0 125 3 150 20 182 34 65 43 72 84 67 89 -12 93 -17 195 -223 l95 -190 -17
-33 -16 -33 51 -34 c52 -35 168 -86 176 -77 2 2 -38 91 -90 197 l-95 193 -159
150 -159 150 -8 109 -9 110 -80 103 c-45 57 -81 102 -82 102 -1 -1 -22 -5 -48
-8z"/>
</g>
</svg>
