<?xml version="1.0" standalone="no"?>
<!DOCTYPE svg PUBLIC "-//W3C//DTD SVG 20010904//EN"
 "http://www.w3.org/TR/2001/REC-SVG-20010904/DTD/svg10.dtd">
<svg version="1.0" xmlns="http://www.w3.org/2000/svg"
 width="79.000000pt" height="83.000000pt" viewBox="0 0 79.000000 83.000000"
 preserveAspectRatio="xMidYMid meet">
<metadata>
Created by potrace 1.14, written by Peter Selinger 2001-2017
</metadata>
<g transform="translate(0.000000,83.000000) scale(0.100000,-0.100000)"
fill="#000000" stroke="none">
<path fill="#000000" stroke="none" d="M372 800 c-30 -27 -33 -37 -30 -71 2
-27 0 -39 -9 -39 -8 0 -44 -15 -81 -34 -48 -25 -92 -60 -154 -123 l-86 -88 -7
-77 c-7 -72 -6 -78 11 -78 11 0 29 -8 41 -18 l22 -17 -30 -68 c-28 -67 -30
-104 -8 -133 10 -13 117 -40 125 -32 3 4 2 26 -3 50 -8 39 -5 52 30 128 21 47
42 89 47 94 6 6 130 -59 130 -69 0 -13 -33 -91 -40 -95 -19 -12 2 -69 34 -93
24 -19 48 -25 109 -30 l78 -6 -20 35 c-17 28 -20 45 -15 87 9 78 -9 187 -40
235 -42 67 -36 92 32 140 45 31 62 38 70 30 9 -9 15 -9 24 0 7 7 38 12 69 12
32 0 61 5 65 11 3 6 17 8 31 4 l25 -6 -19 31 c-15 26 -19 29 -29 15 -10 -14
-22 -12 -112 12 l-100 27 15 30 c13 25 13 36 4 63 -7 18 -10 37 -7 42 10 16
-54 53 -97 58 -36 3 -47 -1 -75 -27z"/>
</g>
</svg>
