<?xml version="1.0" standalone="no"?>
<!DOCTYPE svg PUBLIC "-//W3C//DTD SVG 20010904//EN"
 "http://www.w3.org/TR/2001/REC-SVG-20010904/DTD/svg10.dtd">
<svg version="1.0" xmlns="http://www.w3.org/2000/svg"
 width="269.000000pt" height="258.000000pt" viewBox="0 0 269.000000 258.000000"
 preserveAspectRatio="xMidYMid meet">
<metadata>
Created by potrace 1.14, written by Peter Selinger 2001-2017
</metadata>
<g transform="translate(0.000000,258.000000) scale(0.100000,-0.100000)"
fill="#000000" stroke="none">
<path fill="#000000" stroke="none" d="M1792 2549 c-91 -29 -94 -31 -126 -82
-50 -78 -75 -255 -47 -339 6 -18 15 -66 20 -107 8 -61 7 -79 -7 -108 -18 -38
1 -39 -191 4 -62 13 -119 27 -125 29 -23 9 -82 -99 -138 -251 -71 -190 -72
-193 -70 -235 1 -21 -15 -76 -41 -139 l-42 -104 -120 -44 c-125 -46 -285 -81
-512 -112 l-132 -18 -57 58 c-69 70 -102 80 -154 45 -42 -28 -50 -54 -50 -171
0 -96 7 -117 34 -109 11 3 29 13 38 21 15 13 25 14 64 4 37 -9 67 -9 133 0 67
9 126 9 266 0 265 -17 438 -15 478 5 17 9 59 19 93 22 l62 5 67 98 c36 54 71
101 76 104 5 4 9 -12 9 -33 0 -22 12 -118 26 -214 36 -248 35 -279 -22 -400
-26 -55 -50 -115 -54 -134 -7 -32 -5 -37 35 -70 24 -19 55 -38 69 -42 l25 -7
-64 -110 -64 -110 456 -3 c251 -1 458 0 460 2 2 2 -21 80 -51 172 l-54 169 43
200 c23 110 45 193 48 185 3 -8 13 -60 23 -115 15 -84 24 -110 58 -163 l41
-63 55 6 c34 4 110 30 199 68 l143 62 -6 65 c-3 36 -6 82 -6 102 l0 37 -91
-31 -91 -30 -39 38 c-44 43 -46 58 -25 173 l11 65 48 12 c27 7 51 15 54 18 3
3 -2 65 -11 138 -25 187 -91 403 -143 465 -21 25 -45 54 -53 64 -8 10 -57 36
-108 58 -74 33 -105 41 -151 41 l-58 0 -7 48 c-5 39 0 68 30 163 31 98 41 119
65 133 16 10 36 30 44 46 14 27 14 34 0 67 -9 21 -19 74 -22 118 -5 65 -12 91
-39 141 -33 59 -36 62 -115 92 -44 18 -83 32 -87 31 -4 0 -49 -14 -100 -30z"/>
</g>
</svg>
