<?xml version="1.0" standalone="no"?>
<!DOCTYPE svg PUBLIC "-//W3C//DTD SVG 20010904//EN"
 "http://www.w3.org/TR/2001/REC-SVG-20010904/DTD/svg10.dtd">
<svg version="1.0" xmlns="http://www.w3.org/2000/svg"
 width="112.000000pt" height="109.000000pt" viewBox="0 0 112.000000 109.000000"
 preserveAspectRatio="xMidYMid meet">
<metadata>
Created by potrace 1.14, written by Peter Selinger 2001-2017
</metadata>
<g transform="translate(0.000000,109.000000) scale(0.100000,-0.100000)"
fill="#000000" stroke="none">
<path fill="#000000" stroke="none" d="M145 1044 c-33 -25 -66 -49 -74 -54
-11 -6 -7 -20 22 -73 52 -92 51 -132 -6 -217 l-44 -65 -21 -215 -22 -215 34
-30 c19 -16 72 -63 119 -102 l84 -73 135 0 c125 0 143 3 283 41 83 22 172 44
199 50 29 5 77 27 112 50 34 22 78 43 98 46 19 3 41 12 47 19 10 12 -25 14
-217 14 -126 0 -239 3 -252 6 -15 5 -33 26 -53 65 -28 57 -29 61 -29 217 l0
159 -64 183 c-36 100 -66 183 -68 185 -6 5 -196 55 -209 55 -8 0 -41 -21 -74
-46z"/>
</g>
</svg>
