<?xml version="1.0" standalone="no"?>
<!DOCTYPE svg PUBLIC "-//W3C//DTD SVG 20010904//EN"
 "http://www.w3.org/TR/2001/REC-SVG-20010904/DTD/svg10.dtd">
<svg version="1.0" xmlns="http://www.w3.org/2000/svg"
 width="40.000000pt" height="39.000000pt" viewBox="0 0 40.000000 39.000000"
 preserveAspectRatio="xMidYMid meet">
<metadata>
Created by potrace 1.14, written by Peter Selinger 2001-2017
</metadata>
<g transform="translate(0.000000,39.000000) scale(0.100000,-0.100000)"
fill="#000000" stroke="none">
<path fill="#000000" stroke="none" d="M163 355 c-17 -25 -23 -50 -23 -88 l0
-53 -54 -26 -54 -27 -16 -70 c-9 -38 -16 -75 -16 -82 0 -8 45 -9 178 -4 144 6
181 11 199 25 l22 17 -26 44 c-15 24 -39 60 -55 80 -26 34 -28 44 -28 123 l0
86 -39 0 c-22 0 -45 2 -53 5 -7 3 -23 -10 -35 -30z"/>
</g>
</svg>
