<?xml version="1.0" standalone="no"?>
<!DOCTYPE svg PUBLIC "-//W3C//DTD SVG 20010904//EN"
 "http://www.w3.org/TR/2001/REC-SVG-20010904/DTD/svg10.dtd">
<svg version="1.0" xmlns="http://www.w3.org/2000/svg"
 width="29.000000pt" height="28.000000pt" viewBox="0 0 29.000000 28.000000"
 preserveAspectRatio="xMidYMid meet">
<metadata>
Created by potrace 1.14, written by Peter Selinger 2001-2017
</metadata>
<g transform="translate(0.000000,28.000000) scale(0.100000,-0.100000)"
fill="#000000" stroke="none">
<path fill="#000000" stroke="none" d="M106 253 c-9 -18 -11 -36 -5 -50 9 -23
-1 -36 -37 -47 -21 -6 -47 -55 -58 -107 -6 -26 -5 -26 72 -33 42 -3 107 -9
145 -12 l67 -7 0 34 c0 52 -19 108 -40 119 -33 18 -50 41 -50 70 0 48 -9 60
-46 60 -26 0 -36 -6 -48 -27z"/>
</g>
</svg>
