<?xml version="1.0" standalone="no"?>
<!DOCTYPE svg PUBLIC "-//W3C//DTD SVG 20010904//EN"
 "http://www.w3.org/TR/2001/REC-SVG-20010904/DTD/svg10.dtd">
<svg version="1.0" xmlns="http://www.w3.org/2000/svg"
 width="19.000000pt" height="19.000000pt" viewBox="0 0 19.000000 19.000000"
 preserveAspectRatio="xMidYMid meet">
<metadata>
Created by potrace 1.14, written by Peter Selinger 2001-2017
</metadata>
<g transform="translate(0.000000,19.000000) scale(0.100000,-0.100000)"
fill="#000000" stroke="none">
<path fill="#000000" stroke="none" d="M57 183 c-4 -3 -7 -14 -7 -23 0 -9 -11
-27 -25 -40 -20 -19 -25 -33 -25 -72 0 -35 4 -48 14 -48 11 0 16 14 18 46 4
57 30 81 54 50 8 -11 14 -30 14 -42 0 -14 8 -25 21 -29 11 -4 21 -5 22 -3 2 1
12 23 23 48 18 37 19 47 8 58 -7 6 -20 12 -29 12 -9 0 -19 8 -22 18 -11 28
-49 43 -66 25z"/>
</g>
</svg>
