<?xml version="1.0" standalone="no"?>
<!DOCTYPE svg PUBLIC "-//W3C//DTD SVG 20010904//EN"
 "http://www.w3.org/TR/2001/REC-SVG-20010904/DTD/svg10.dtd">
<svg version="1.0" xmlns="http://www.w3.org/2000/svg"
 width="454.000000pt" height="462.000000pt" viewBox="0 0 454.000000 462.000000"
 preserveAspectRatio="xMidYMid meet">
<metadata>
Created by potrace 1.14, written by Peter Selinger 2001-2017
</metadata>
<g transform="translate(0.000000,462.000000) scale(0.100000,-0.100000)"
fill="#000000" stroke="none">
<path fill="#000000" stroke="none" d="M1115 4567 l-151 -52 -124 -130 c-93
-97 -158 -154 -255 -222 l-129 -93 -58 -102 -58 -103 0 -160 c0 -154 -36 -612
-49 -627 -4 -4 -32 18 -63 50 l-55 57 -27 135 -26 134 71 269 c38 148 69 271
67 273 -2 1 -62 30 -133 64 -81 38 -122 54 -111 41 17 -18 17 -74 14 -1031
l-3 -1012 105 6 c58 4 281 25 495 47 464 49 509 50 586 13 49 -23 59 -33 86
-87 17 -34 34 -82 38 -107 4 -25 13 -61 21 -80 7 -19 63 -249 125 -510 61
-261 122 -500 134 -531 13 -32 26 -88 30 -125 4 -38 39 -206 79 -373 l72 -304
664 1 c366 1 716 5 777 8 l112 7 -36 64 c-34 62 -36 68 -30 136 l6 72 -58 64
-58 65 -73 0 -74 1 -62 195 c-48 147 -88 247 -165 407 -56 117 -100 214 -98
216 2 2 116 70 253 151 226 134 270 164 481 337 l232 189 204 267 c112 148
282 367 379 488 l175 220 58 187 58 188 -62 69 c-50 54 -79 77 -142 107 -53
26 -81 35 -84 27 -3 -7 -46 13 -111 52 -86 51 -125 67 -197 84 -101 22 -286
51 -333 51 -17 0 -190 43 -384 96 l-353 96 -286 28 -286 29 -94 -25 c-52 -13
-101 -24 -109 -24 -9 0 -69 73 -135 163 -90 121 -167 211 -310 357 l-190 195
-75 22 c-41 12 -86 21 -100 21 -14 0 -93 -23 -175 -51z"/>
</g>
</svg>
