<?xml version="1.0" standalone="no"?>
<!DOCTYPE svg PUBLIC "-//W3C//DTD SVG 20010904//EN"
 "http://www.w3.org/TR/2001/REC-SVG-20010904/DTD/svg10.dtd">
<svg version="1.0" xmlns="http://www.w3.org/2000/svg"
 width="86.000000pt" height="85.000000pt" viewBox="0 0 86.000000 85.000000"
 preserveAspectRatio="xMidYMid meet">
<metadata>
Created by potrace 1.14, written by Peter Selinger 2001-2017
</metadata>
<g transform="translate(0.000000,85.000000) scale(0.100000,-0.100000)"
fill="#000000" stroke="none">
<path fill="#000000" stroke="none" d="M411 828 c-5 -13 -15 -37 -21 -55 -9
-23 -20 -34 -41 -38 -16 -4 -29 -11 -29 -16 0 -25 32 -67 60 -79 l32 -13 -39
-13 c-48 -16 -96 -70 -112 -126 -23 -78 -51 -118 -83 -118 -26 0 -28 -3 -28
-43 0 -48 -13 -67 -47 -67 -15 0 -28 -10 -37 -28 -26 -50 -68 -194 -60 -202
11 -8 184 -30 246 -30 56 0 319 38 383 55 28 7 87 21 133 31 95 20 97 22 90
132 -3 51 -15 96 -52 187 -54 133 -70 161 -105 190 -41 33 -64 44 -101 46
l-35 1 33 11 c55 17 58 102 4 113 -16 4 -38 21 -54 45 -26 37 -31 39 -78 39
-43 0 -52 -3 -59 -22z"/>
</g>
</svg>
