<?xml version="1.0" standalone="no"?>
<!DOCTYPE svg PUBLIC "-//W3C//DTD SVG 20010904//EN"
 "http://www.w3.org/TR/2001/REC-SVG-20010904/DTD/svg10.dtd">
<svg version="1.0" xmlns="http://www.w3.org/2000/svg"
 width="21.000000pt" height="22.000000pt" viewBox="0 0 21.000000 22.000000"
 preserveAspectRatio="xMidYMid meet">
<metadata>
Created by potrace 1.14, written by Peter Selinger 2001-2017
</metadata>
<g transform="translate(0.000000,22.000000) scale(0.100000,-0.100000)"
fill="#000000" stroke="none">
<path fill="#000000" stroke="none" d="M13 213 c-15 -6 -17 -79 -3 -88 6 -3
10 -19 10 -35 0 -16 5 -41 10 -56 l11 -27 32 31 c18 17 45 32 60 34 25 3 31
-2 40 -30 16 -47 31 -45 35 4 3 41 2 42 -42 59 -25 10 -48 25 -51 34 -24 62
-62 91 -102 74z"/>
</g>
</svg>
