<?xml version="1.0" standalone="no"?>
<!DOCTYPE svg PUBLIC "-//W3C//DTD SVG 20010904//EN"
 "http://www.w3.org/TR/2001/REC-SVG-20010904/DTD/svg10.dtd">
<svg version="1.0" xmlns="http://www.w3.org/2000/svg"
 width="44.000000pt" height="44.000000pt" viewBox="0 0 44.000000 44.000000"
 preserveAspectRatio="xMidYMid meet">
<metadata>
Created by potrace 1.14, written by Peter Selinger 2001-2017
</metadata>
<g transform="translate(0.000000,44.000000) scale(0.100000,-0.100000)"
fill="#000000" stroke="none">
<path fill="#000000" stroke="none" d="M105 403 c-55 -20 -101 -37 -102 -37
-1 -1 1 -21 4 -45 6 -40 11 -47 62 -79 43 -27 73 -58 130 -138 41 -57 77 -104
80 -104 3 0 41 30 84 66 76 64 78 67 73 103 -3 20 -8 84 -11 142 l-7 107 -61
6 c-34 4 -82 9 -107 11 -35 4 -68 -4 -145 -32z"/>
</g>
</svg>
