<?xml version="1.0" standalone="no"?>
<!DOCTYPE svg PUBLIC "-//W3C//DTD SVG 20010904//EN"
 "http://www.w3.org/TR/2001/REC-SVG-20010904/DTD/svg10.dtd">
<svg version="1.0" xmlns="http://www.w3.org/2000/svg"
 width="64.000000pt" height="65.000000pt" viewBox="0 0 64.000000 65.000000"
 preserveAspectRatio="xMidYMid meet">
<metadata>
Created by potrace 1.14, written by Peter Selinger 2001-2017
</metadata>
<g transform="translate(0.000000,65.000000) scale(0.100000,-0.100000)"
fill="#000000" stroke="none">
<path fill="#000000" stroke="none" d="M359 643 c-30 -8 -60 -92 -57 -157 l3
-59 -59 -24 c-69 -28 -113 -62 -154 -119 -17 -23 -41 -44 -55 -48 -27 -6 -37
-37 -37 -107 0 -37 2 -39 30 -39 29 0 30 -1 30 -47 l0 -46 167 6 c91 4 219 7
283 7 l118 0 7 47 c6 42 4 49 -14 62 -12 7 -21 20 -21 27 0 8 -13 36 -30 62
-35 58 -36 67 -10 110 11 18 20 37 20 41 0 5 -23 17 -51 26 l-51 17 3 47 c4
69 -10 147 -33 176 -19 24 -46 30 -89 18z"/>
<path fill="#ffffff" stroke="none" d="M384 84 c5 -12 2 -15 -10 -10 -8 3 -22
6 -30 6 -9 0 -12 5 -9 10 10 16 42 12 49 -6z"/>
</g>
</svg>
