<?xml version="1.0" standalone="no"?>
<!DOCTYPE svg PUBLIC "-//W3C//DTD SVG 20010904//EN"
 "http://www.w3.org/TR/2001/REC-SVG-20010904/DTD/svg10.dtd">
<svg version="1.0" xmlns="http://www.w3.org/2000/svg"
 width="145.000000pt" height="150.000000pt" viewBox="0 0 145.000000 150.000000"
 preserveAspectRatio="xMidYMid meet">
<metadata>
Created by potrace 1.14, written by Peter Selinger 2001-2017
</metadata>
<g transform="translate(0.000000,150.000000) scale(0.100000,-0.100000)"
fill="#000000" stroke="none">
<path fill="#000000" stroke="none" d="M745 1495 c-5 -2 -53 -7 -106 -10 l-97
-7 -26 -104 c-31 -124 -32 -172 -7 -289 11 -49 19 -90 18 -91 -1 -1 -47 -28
-102 -60 l-100 -59 3 -47 c4 -60 -12 -120 -42 -155 -24 -27 -25 -27 -72 -15
-27 7 -61 19 -75 26 -24 12 -29 10 -79 -36 l-53 -49 7 -71 c3 -40 1 -118 -6
-175 l-12 -104 54 -54 c30 -30 59 -55 65 -55 6 0 34 7 61 15 50 15 50 15 74
82 25 74 40 98 41 68 0 -18 1 -18 9 2 5 13 16 23 25 23 12 0 15 -14 15 -69 0
-39 -4 -72 -9 -75 -5 -4 -2 -33 8 -68 l18 -62 88 -28 c49 -15 91 -25 94 -23 2
3 0 20 -6 39 -8 25 -6 62 8 152 10 66 19 136 19 157 l0 37 56 0 c47 0 55 3 50
16 -3 9 -9 27 -12 41 -6 21 -4 24 12 20 11 -3 62 -11 114 -18 52 -6 101 -15
109 -19 14 -7 69 -166 98 -285 10 -38 19 -62 21 -52 2 12 10 16 25 12 95 -21
135 -28 229 -35 126 -9 157 -5 167 24 5 11 12 98 16 193 l7 172 -54 27 -53 26
-55 165 -55 165 -142 68 c-79 38 -143 72 -143 75 0 4 15 25 34 46 l34 40 -28
129 c-27 127 -29 130 -91 215 -62 83 -64 85 -104 84 -22 0 -44 -2 -50 -4z"/>
</g>
</svg>
