<?xml version="1.0" standalone="no"?>
<!DOCTYPE svg PUBLIC "-//W3C//DTD SVG 20010904//EN"
 "http://www.w3.org/TR/2001/REC-SVG-20010904/DTD/svg10.dtd">
<svg version="1.0" xmlns="http://www.w3.org/2000/svg"
 width="274.000000pt" height="285.000000pt" viewBox="0 0 274.000000 285.000000"
 preserveAspectRatio="xMidYMid meet">
<metadata>
Created by potrace 1.14, written by Peter Selinger 2001-2017
</metadata>
<g transform="translate(0.000000,285.000000) scale(0.100000,-0.100000)"
fill="#000000" stroke="none">
<path fill="#000000" stroke="none" d="M1053 2831 c-55 -9 -107 -22 -115 -27
-151 -115 -165 -131 -218 -242 -50 -103 -52 -110 -47 -172 3 -36 14 -103 25
-150 46 -197 57 -355 27 -380 -8 -7 -15 -23 -15 -35 0 -16 -9 -26 -32 -35 -72
-28 -195 -95 -235 -128 -36 -30 -57 -67 -141 -246 -55 -116 -145 -324 -201
-462 l-101 -251 0 -351 0 -352 1258 0 1258 0 38 303 c41 324 68 448 111 499
14 17 37 52 50 78 l24 48 -28 43 c-16 24 -44 59 -63 77 -35 33 -35 33 -124 30
l-89 -3 -9 -42 -8 -41 -43 18 -43 18 -12 -24 c-13 -23 -18 -24 -110 -24 -90 0
-104 -3 -194 -39 -93 -38 -98 -39 -136 -26 -83 29 -109 57 -157 162 -52 115
-108 175 -235 249 l-78 46 0 103 0 103 39 31 39 31 17 -55 c19 -68 33 -75 155
-75 89 0 89 0 114 33 32 41 56 141 56 232 l0 70 -54 32 -53 32 -7 66 c-5 49
-3 72 9 94 8 17 15 50 15 74 0 37 5 48 25 61 23 15 24 18 10 39 -8 12 -39 37
-68 56 l-54 34 13 61 13 61 -39 80 c-28 58 -61 103 -117 163 l-78 83 -135 34
c-74 19 -139 34 -145 34 -5 -1 -56 -9 -112 -18z"/>
</g>
</svg>
