<?xml version="1.0" standalone="no"?>
<!DOCTYPE svg PUBLIC "-//W3C//DTD SVG 20010904//EN"
 "http://www.w3.org/TR/2001/REC-SVG-20010904/DTD/svg10.dtd">
<svg version="1.0" xmlns="http://www.w3.org/2000/svg"
 width="48.000000pt" height="46.000000pt" viewBox="0 0 48.000000 46.000000"
 preserveAspectRatio="xMidYMid meet">
<metadata>
Created by potrace 1.14, written by Peter Selinger 2001-2017
</metadata>
<g transform="translate(0.000000,46.000000) scale(0.100000,-0.100000)"
fill="#000000" stroke="none">
<path fill="#000000" stroke="none" d="M212 443 c-50 -24 -68 -55 -81 -138
-11 -67 -16 -78 -47 -101 -48 -37 -71 -80 -79 -147 l-8 -59 236 4 c129 2 238
5 240 8 9 9 -31 139 -53 175 l-21 34 30 47 c28 46 29 49 14 78 -34 65 -63 94
-108 105 -59 15 -84 14 -123 -6z"/>
</g>
</svg>
