<?xml version="1.0" standalone="no"?>
<!DOCTYPE svg PUBLIC "-//W3C//DTD SVG 20010904//EN"
 "http://www.w3.org/TR/2001/REC-SVG-20010904/DTD/svg10.dtd">
<svg version="1.0" xmlns="http://www.w3.org/2000/svg"
 width="514.000000pt" height="503.000000pt" viewBox="0 0 514.000000 503.000000"
 preserveAspectRatio="xMidYMid meet">
<metadata>
Created by potrace 1.14, written by Peter Selinger 2001-2017
</metadata>
<g transform="translate(0.000000,503.000000) scale(0.100000,-0.100000)"
fill="#000000" stroke="none">
<path fill="#000000" stroke="none" d="M4535 4995 c-14 -20 -76 -77 -137 -127
-102 -85 -112 -96 -145 -167 -67 -145 -173 -394 -173 -407 0 -7 27 -29 59 -49
33 -20 62 -43 65 -53 3 -9 8 -61 12 -116 l7 -98 -76 4 -76 3 -7 -28 c-6 -27
-7 -28 -52 -21 -26 4 -80 15 -121 25 -41 11 -80 19 -87 19 -26 0 -120 -69
-145 -105 -13 -20 -59 -62 -101 -94 -60 -45 -128 -117 -299 -319 l-221 -261
-121 -77 c-310 -197 -573 -420 -677 -572 -42 -63 -113 -133 -386 -382 l-334
-304 0 -56 c0 -53 -2 -56 -34 -74 -31 -16 -36 -17 -64 -2 -26 14 -31 14 -42 1
-7 -8 -20 -15 -29 -15 -9 0 -73 -29 -141 -64 -105 -55 -142 -81 -234 -165 -60
-54 -116 -110 -125 -124 -35 -54 -112 -127 -134 -127 -12 0 -143 -86 -301
-198 l-280 -197 -67 -155 c-38 -85 -68 -160 -69 -166 0 -7 41 -35 91 -63 l91
-50 167 118 c91 65 243 170 337 234 174 118 184 128 184 190 0 23 7 31 47 48
26 11 50 24 53 29 3 5 38 23 78 39 40 17 70 25 66 19 -5 -7 -2 -9 7 -6 165 66
233 95 281 121 52 29 58 35 58 64 0 29 4 33 48 45 38 11 48 12 50 1 2 -7 6
-13 9 -13 2 0 82 50 176 111 l172 112 305 82 305 82 121 79 c111 73 128 81
213 98 50 10 94 16 97 14 3 -3 8 -38 13 -77 8 -83 1 -71 202 -312 130 -155
177 -223 408 -589 l261 -413 0 -101 c1 -85 7 -122 38 -236 l38 -135 214 -6
c118 -3 216 -5 216 -5 1 1 -25 149 -57 330 -50 274 -73 376 -140 608 -110 384
-112 388 -257 708 -145 319 -143 307 -68 364 l36 27 0 84 c0 46 4 87 10 90 12
8 180 -62 201 -83 9 -9 49 -68 90 -131 l73 -114 -25 -46 c-24 -43 -25 -50 -14
-106 7 -42 25 -82 56 -130 l46 -70 94 -33 c52 -17 85 -25 75 -17 -23 18 -26
14 48 55 l58 33 -7 189 -7 190 -71 126 c-45 81 -101 163 -156 227 -46 55 -91
107 -98 116 -12 15 -5 34 61 156 42 76 89 177 105 223 16 47 70 181 120 299
50 117 91 222 91 233 0 10 -17 60 -39 111 -21 51 -44 126 -50 169 -12 74 -11
78 13 126 24 47 30 51 108 83 65 26 94 33 134 30 l52 -3 41 75 c38 69 59 152
61 240 0 14 10 17 70 17 l70 0 30 46 c16 25 32 60 35 76 10 41 -22 72 -116
115 -71 32 -82 42 -183 159 l-107 125 12 93 c8 60 9 105 3 131 -9 36 -14 40
-88 72 -43 18 -81 33 -86 33 -4 0 -20 -16 -35 -35z"/>
<path fill="#ffffff" stroke="none" d="M4319 1821 c31 -39 38 -77 23 -127 -7
-20 -9 -21 -54 -7 l-48 14 0 61 c0 43 5 67 17 80 22 25 27 23 62 -21z"/>
<path fill="#000000" stroke="none" d="M3868 3983 c6 -2 18 -2 25 0 6 3 1 5
-13 5 -14 0 -19 -2 -12 -5z"/>
</g>
</svg>
