<?xml version="1.0" standalone="no"?>
<!DOCTYPE svg PUBLIC "-//W3C//DTD SVG 20010904//EN"
 "http://www.w3.org/TR/2001/REC-SVG-20010904/DTD/svg10.dtd">
<svg version="1.0" xmlns="http://www.w3.org/2000/svg"
 width="195.000000pt" height="197.000000pt" viewBox="0 0 195.000000 197.000000"
 preserveAspectRatio="xMidYMid meet">
<metadata>
Created by potrace 1.14, written by Peter Selinger 2001-2017
</metadata>
<g transform="translate(0.000000,197.000000) scale(0.100000,-0.100000)"
fill="#000000" stroke="none">
<path fill="#000000" stroke="none" d="M1525 1963 c-23 -6 -55 -32 -55 -45 0
-5 9 -19 20 -31 14 -14 19 -30 16 -47 -3 -14 -8 -50 -12 -80 -3 -30 -15 -72
-25 -92 -11 -21 -19 -53 -19 -73 l0 -35 54 6 c34 4 83 0 136 -10 45 -10 85
-15 87 -12 3 3 7 48 8 100 3 67 8 102 19 118 23 32 20 64 -10 95 -14 16 -35
46 -47 68 -23 40 -23 40 -87 42 -36 0 -74 -1 -85 -4z"/>
<path fill="#000000" stroke="none" d="M1834 1948 c-4 -13 -15 -34 -25 -47
-24 -30 -27 -162 -5 -181 8 -6 16 -21 18 -33 3 -24 8 -24 81 -6 l47 12 0 139
0 138 -54 0 c-48 0 -56 -3 -62 -22z"/>
<path fill="#000000" stroke="none" d="M90 755 c-7 -8 -18 -15 -25 -15 -6 0
-19 -8 -28 -18 -14 -15 -17 -41 -17 -148 0 -71 -5 -220 -12 -331 -11 -192 -11
-203 7 -223 10 -11 23 -20 30 -20 6 0 28 37 49 83 20 45 50 103 66 127 17 25
30 55 30 67 0 12 5 25 10 28 10 6 53 86 70 130 7 18 4 30 -12 50 -20 26 -20
28 -4 56 16 27 16 30 -4 70 -12 23 -35 60 -51 82 -16 22 -29 48 -29 59 0 14
-8 18 -34 18 -18 0 -39 -7 -46 -15z"/>
</g>
</svg>
