<?xml version="1.0" standalone="no"?>
<!DOCTYPE svg PUBLIC "-//W3C//DTD SVG 20010904//EN"
 "http://www.w3.org/TR/2001/REC-SVG-20010904/DTD/svg10.dtd">
<svg version="1.0" xmlns="http://www.w3.org/2000/svg"
 width="293.000000pt" height="34.000000pt" viewBox="0 0 293.000000 34.000000"
 preserveAspectRatio="xMidYMid meet">
<metadata>
Created by potrace 1.14, written by Peter Selinger 2001-2017
</metadata>
<g transform="translate(0.000000,34.000000) scale(0.100000,-0.100000)"
fill="#000000" stroke="none">
<path fill="#000000" stroke="none" d="M1080 333 c-19 -3 -41 -9 -47 -15 -9
-7 -13 -7 -13 1 0 16 -61 7 -74 -11 -6 -8 -31 -18 -56 -22 -88 -13 -518 -30
-684 -28 -186 3 -206 -2 -206 -58 0 -42 31 -62 102 -67 86 -6 282 -4 343 2 28
3 121 7 208 9 87 2 160 6 163 9 3 3 30 -3 60 -13 30 -11 54 -17 54 -16 0 2 16
-2 36 -9 28 -9 45 -9 87 2 29 8 66 16 82 18 17 1 46 6 67 9 32 6 40 3 66 -25
26 -28 37 -32 83 -34 30 -1 65 2 78 7 13 5 52 10 86 12 37 2 73 11 86 20 13 9
35 16 50 16 14 0 29 3 33 7 4 4 30 8 58 9 l50 2 -21 -22 c-52 -56 9 -151 79
-124 26 11 50 16 113 23 21 2 45 9 53 16 8 6 28 13 46 15 17 2 36 8 42 13 14
11 181 6 224 -8 20 -6 42 -7 56 -1 17 6 28 4 39 -7 9 -9 31 -15 53 -14 37 0
71 0 122 -1 13 0 32 8 42 17 15 14 25 15 47 8 37 -13 75 -7 93 15 14 17 15 17
36 -7 24 -28 76 -33 100 -10 13 13 13 20 0 56 -8 23 -12 44 -9 47 4 3 -12 6
-34 6 -24 0 -46 -6 -53 -15 -20 -24 -30 -17 -24 15 5 25 1 35 -27 61 -30 28
-37 30 -83 26 -28 -3 -64 -8 -79 -12 -23 -6 -31 -3 -43 14 -19 26 -70 28 -111
4 -27 -15 -33 -15 -85 2 -67 20 -253 25 -479 11 -142 -9 -148 -8 -194 14 -56
27 -138 38 -159 21 -8 -7 -17 -8 -20 -3 -6 10 -58 9 -141 -3 -33 -5 -80 -2
-136 9 -86 16 -94 16 -159 9z"/>
<path fill="#ffffff" stroke="none" d="M1827 154 c-3 -3 -12 -4 -19 -1 -8 3
-5 6 6 6 11 1 17 -2 13 -5z"/>
<path fill="#000000" stroke="none" d="M182 88 c-7 -7 -30 -11 -51 -9 -21 1
-42 -2 -46 -8 -3 -6 -24 -11 -46 -11 -37 0 -39 -2 -39 -30 l0 -30 200 0 c110
0 200 3 200 8 0 4 -7 18 -16 30 -13 19 -24 23 -55 21 -31 -3 -42 1 -55 19 -17
25 -71 31 -92 10z"/>
<path fill="#000000" stroke="none" d="M565 10 c-4 -6 22 -10 72 -9 72 1 74 2
33 10 -63 11 -98 11 -105 -1z"/>
</g>
</svg>
