<?xml version="1.0" standalone="no"?>
<!DOCTYPE svg PUBLIC "-//W3C//DTD SVG 20010904//EN"
 "http://www.w3.org/TR/2001/REC-SVG-20010904/DTD/svg10.dtd">
<svg version="1.0" xmlns="http://www.w3.org/2000/svg"
 width="202.000000pt" height="70.000000pt" viewBox="0 0 202.000000 70.000000"
 preserveAspectRatio="xMidYMid meet">
<metadata>
Created by potrace 1.14, written by Peter Selinger 2001-2017
</metadata>
<g transform="translate(0.000000,70.000000) scale(0.100000,-0.100000)"
fill="#000000" stroke="none">
<path fill="#000000" stroke="none" d="M615 694 c-11 -2 -60 -6 -108 -9 -79
-6 -92 -10 -123 -37 -19 -17 -34 -36 -34 -44 0 -20 -2 -19 -49 26 -38 37 -46
40 -97 40 -47 0 -59 -4 -90 -33 -27 -25 -37 -42 -41 -77 -4 -32 -15 -55 -37
-78 -27 -29 -31 -40 -31 -92 0 -48 4 -63 25 -85 24 -25 24 -25 32 -5 14 39 86
47 150 15 25 -12 29 -11 43 8 9 12 18 38 21 58 6 35 44 75 44 46 0 -8 8 -22
19 -31 10 -9 21 -35 24 -58 3 -22 14 -50 25 -60 18 -18 18 -22 5 -50 -25 -50
-12 -116 31 -155 31 -28 43 -33 87 -33 61 0 113 30 104 60 -4 12 2 27 16 41
21 21 21 26 10 67 -6 25 -10 45 -9 46 2 0 18 9 36 19 52 27 79 23 87 -13 3
-16 22 -43 41 -60 29 -25 43 -30 85 -30 28 0 60 7 73 15 23 15 24 15 30 -19 4
-22 20 -46 42 -65 34 -30 37 -31 141 -31 98 0 109 2 139 25 37 29 59 82 50
128 -5 28 -2 34 20 44 23 11 30 10 52 -7 30 -24 112 -27 145 -6 l22 15 0 -100
0 -101 37 -34 c33 -30 44 -34 92 -34 30 0 57 4 61 9 3 6 35 7 75 4 64 -5 72
-4 104 21 97 73 50 236 -67 236 -30 0 -45 8 -77 40 -37 37 -45 40 -93 40 -29
0 -61 -6 -72 -14 -19 -13 -20 -11 -20 34 0 35 -7 57 -23 79 -18 24 -21 39 -16
66 16 85 -45 155 -135 155 -29 0 -60 -4 -70 -10 -13 -6 -24 -5 -37 5 -25 19
-114 19 -140 0 -19 -12 -24 -12 -40 0 -11 8 -42 15 -71 15 -40 0 -58 -5 -81
-25 -26 -22 -31 -23 -48 -10 -10 8 -27 15 -37 15 -11 0 -31 9 -46 19 -24 17
-43 20 -142 19 -63 -1 -123 -3 -134 -4z"/>
<path fill="#ffffff" stroke="none" d="M1080 400 c0 -8 7 -27 14 -42 14 -27
14 -28 -7 -28 -13 0 -32 -7 -44 -15 -20 -14 -22 -13 -28 15 -3 16 -15 41 -27
55 l-20 25 22 18 c21 17 25 17 56 3 18 -9 34 -23 34 -31z"/>
<path fill="#000000" stroke="none" d="M63 198 c-24 -25 -28 -37 -28 -88 0
-48 4 -63 24 -84 23 -24 31 -26 107 -26 77 0 84 2 103 26 27 34 36 85 22 127
-19 56 -40 68 -125 71 -72 3 -77 2 -103 -26z"/>
</g>
</svg>
