<?xml version="1.0" standalone="no"?>
<!DOCTYPE svg PUBLIC "-//W3C//DTD SVG 20010904//EN"
 "http://www.w3.org/TR/2001/REC-SVG-20010904/DTD/svg10.dtd">
<svg version="1.0" xmlns="http://www.w3.org/2000/svg"
 width="99.000000pt" height="34.000000pt" viewBox="0 0 99.000000 34.000000"
 preserveAspectRatio="xMidYMid meet">
<metadata>
Created by potrace 1.14, written by Peter Selinger 2001-2017
</metadata>
<g transform="translate(0.000000,34.000000) scale(0.100000,-0.100000)"
fill="#000000" stroke="none">
<path fill="#000000" stroke="none" d="M270 333 c-17 -3 -35 -19 -53 -48 -39
-61 -97 -111 -155 -131 -45 -16 -51 -22 -56 -53 -13 -78 -11 -81 42 -81 26 1
66 5 90 9 37 7 42 6 42 -10 0 -22 3 -23 50 -9 19 6 107 17 196 25 142 13 169
18 227 46 l66 31 64 -26 c76 -30 177 -48 194 -34 15 12 -4 62 -72 198 l-45 90
-283 -1 c-155 -1 -293 -4 -307 -6z"/>
</g>
</svg>
