<?xml version="1.0" standalone="no"?>
<!DOCTYPE svg PUBLIC "-//W3C//DTD SVG 20010904//EN"
 "http://www.w3.org/TR/2001/REC-SVG-20010904/DTD/svg10.dtd">
<svg version="1.0" xmlns="http://www.w3.org/2000/svg"
 width="176.000000pt" height="31.000000pt" viewBox="0 0 176.000000 31.000000"
 preserveAspectRatio="xMidYMid meet">
<metadata>
Created by potrace 1.14, written by Peter Selinger 2001-2017
</metadata>
<g transform="translate(0.000000,31.000000) scale(0.100000,-0.100000)"
fill="#000000" stroke="none">
<path fill="#000000" stroke="none" d="M715 298 c-27 -15 -35 -28 -35 -61 0
-17 -11 -38 -30 -57 -23 -23 -30 -38 -30 -69 0 -34 5 -44 33 -65 43 -33 107
-36 137 -6 11 11 20 27 20 35 0 8 7 35 16 61 15 46 15 48 -10 100 -34 69 -60
85 -101 62z"/>
<path fill="#000000" stroke="none" d="M1747 273 c-11 -10 -8 -136 3 -153 7
-10 10 12 10 73 0 87 -1 93 -13 80z"/>
<path fill="#000000" stroke="none" d="M17 162 c-40 -44 -6 -106 54 -100 47 4
71 46 49 86 -20 35 -77 43 -103 14z"/>
<path fill="#000000" stroke="none" d="M470 110 c0 -61 0 -61 27 -58 17 2 33
13 43 31 13 24 13 30 0 55 -10 17 -26 28 -43 30 -27 3 -27 3 -27 -58z"/>
<path fill="#000000" stroke="none" d="M1747 73 c-11 -10 -8 -61 3 -68 6 -4
10 10 10 34 0 42 -2 46 -13 34z"/>
</g>
</svg>
