<?xml version="1.0" standalone="no"?>
<!DOCTYPE svg PUBLIC "-//W3C//DTD SVG 20010904//EN"
 "http://www.w3.org/TR/2001/REC-SVG-20010904/DTD/svg10.dtd">
<svg version="1.0" xmlns="http://www.w3.org/2000/svg"
 width="19.000000pt" height="27.000000pt" viewBox="0 0 19.000000 27.000000"
 preserveAspectRatio="xMidYMid meet">
<metadata>
Created by potrace 1.14, written by Peter Selinger 2001-2017
</metadata>
<g transform="translate(0.000000,27.000000) scale(0.100000,-0.100000)"
fill="#000000" stroke="none">
<path fill="#000000" stroke="none" d="M155 260 c-16 -4 -54 -8 -83 -9 -47 -1
-54 -4 -63 -28 -15 -36 3 -150 29 -193 17 -27 21 -29 32 -15 9 11 11 35 8 80
-6 63 -5 64 24 74 39 14 45 -4 23 -62 -19 -52 -17 -90 6 -95 13 -2 19 10 28
61 6 35 11 79 11 98 0 19 4 49 9 67 5 17 9 31 8 31 -1 -1 -15 -5 -32 -9z"/>
</g>
</svg>
