<?xml version="1.0" standalone="no"?>
<!DOCTYPE svg PUBLIC "-//W3C//DTD SVG 20010904//EN"
 "http://www.w3.org/TR/2001/REC-SVG-20010904/DTD/svg10.dtd">
<svg version="1.0" xmlns="http://www.w3.org/2000/svg"
 width="65.000000pt" height="96.000000pt" viewBox="0 0 65.000000 96.000000"
 preserveAspectRatio="xMidYMid meet">
<metadata>
Created by potrace 1.14, written by Peter Selinger 2001-2017
</metadata>
<g transform="translate(0.000000,96.000000) scale(0.100000,-0.100000)"
fill="#000000" stroke="none">
<path fill="#000000" stroke="none" d="M81 938 c-5 -13 -25 -63 -45 -112 -36
-89 -36 -91 -36 -238 l0 -148 37 -24 c25 -16 83 -33 168 -51 71 -15 130 -27
131 -28 0 -1 12 -28 26 -60 l26 -59 -34 -31 c-27 -26 -34 -40 -35 -78 -4 -62
29 -109 75 -109 27 0 35 6 49 35 16 33 16 38 -3 85 -26 66 -25 75 9 100 29 20
31 20 101 4 39 -9 73 -14 76 -12 11 12 24 170 18 227 l-7 63 -46 20 c-71 30
-144 67 -163 81 -16 13 -16 17 0 68 9 30 25 67 35 82 9 14 17 29 17 32 0 3
-30 20 -66 37 l-65 30 7 54 6 54 -136 0 c-132 0 -137 -1 -145 -22z"/>
</g>
</svg>
