<?xml version="1.0" standalone="no"?>
<!DOCTYPE svg PUBLIC "-//W3C//DTD SVG 20010904//EN"
 "http://www.w3.org/TR/2001/REC-SVG-20010904/DTD/svg10.dtd">
<svg version="1.0" xmlns="http://www.w3.org/2000/svg"
 width="161.000000pt" height="246.000000pt" viewBox="0 0 161.000000 246.000000"
 preserveAspectRatio="xMidYMid meet">
<metadata>
Created by potrace 1.14, written by Peter Selinger 2001-2017
</metadata>
<g transform="translate(0.000000,246.000000) scale(0.100000,-0.100000)"
fill="#000000" stroke="none">
<path fill="#000000" stroke="none" d="M543 2444 c-55 -27 -73 -71 -73 -178 0
-79 4 -100 24 -139 31 -57 25 -84 -19 -93 -22 -4 -35 -13 -39 -27 -16 -59 -2
-277 27 -422 12 -60 12 -60 50 -63 30 -3 37 -7 33 -18 -3 -9 -6 -17 -6 -19 0
-2 -16 -9 -34 -15 -68 -22 -96 24 -96 157 0 26 -6 36 -31 49 -44 22 -51 7 -45
-92 3 -44 1 -97 -4 -118 -7 -32 -3 -52 22 -116 l30 -77 -45 -89 c-54 -108 -81
-219 -65 -264 6 -17 8 -56 6 -86 -4 -44 -11 -61 -36 -87 -18 -18 -47 -71 -67
-120 -30 -73 -35 -99 -35 -165 0 -105 -19 -170 -67 -234 -80 -105 -82 -121
-20 -193 l35 -40 38 31 c32 25 42 43 56 95 9 35 17 87 17 116 1 62 22 117 90
238 62 109 92 187 127 326 l26 106 48 23 c61 28 80 22 80 -25 0 -20 10 -55 23
-78 31 -59 29 -216 -4 -332 -24 -80 -29 -172 -15 -246 6 -35 9 -37 65 -52 58
-14 60 -14 65 7 13 56 18 116 8 116 -15 0 -22 79 -12 155 4 39 11 121 15 183
l7 113 33 -2 c18 -2 44 4 59 15 24 15 27 22 21 54 -3 22 0 57 9 84 10 34 11
59 5 85 -15 67 -10 189 10 251 11 31 23 85 27 120 l7 62 56 0 c50 0 66 -6 155
-59 54 -32 123 -64 152 -71 30 -7 54 -18 54 -25 0 -25 79 -74 144 -91 77 -19
131 -13 147 18 9 18 7 24 -17 44 -16 13 -65 35 -109 50 -56 19 -88 37 -107 58
-16 17 -31 34 -35 39 -5 4 -36 25 -70 47 -35 22 -63 46 -63 55 0 8 -49 68
-108 133 -63 69 -112 130 -116 148 -12 48 -58 144 -70 146 -6 0 -16 2 -22 2
-6 1 -18 7 -27 14 -9 8 -44 29 -79 48 -35 18 -56 34 -47 34 23 0 24 4 45 174
l18 149 -39 34 c-88 76 -143 91 -212 57z"/>
</g>
</svg>
