<?xml version="1.0" standalone="no"?>
<!DOCTYPE svg PUBLIC "-//W3C//DTD SVG 20010904//EN"
 "http://www.w3.org/TR/2001/REC-SVG-20010904/DTD/svg10.dtd">
<svg version="1.0" xmlns="http://www.w3.org/2000/svg"
 width="41.000000pt" height="59.000000pt" viewBox="0 0 41.000000 59.000000"
 preserveAspectRatio="xMidYMid meet">
<metadata>
Created by potrace 1.14, written by Peter Selinger 2001-2017
</metadata>
<g transform="translate(0.000000,59.000000) scale(0.100000,-0.100000)"
fill="#000000" stroke="none">
<path fill="#000000" stroke="none" d="M233 579 c-11 -4 -23 -19 -27 -33 -4
-15 -15 -35 -25 -45 -11 -11 -24 -45 -31 -78 -6 -32 -18 -75 -26 -97 -7 -21
-10 -44 -7 -50 4 -6 6 -23 5 -38 -1 -14 2 -29 8 -33 5 -3 10 -19 10 -35 0 -24
-8 -34 -48 -56 -77 -44 -93 -62 -80 -90 15 -32 48 -32 48 -1 0 26 25 52 83 86
20 13 37 26 37 30 0 4 15 15 34 24 l34 16 -5 -60 c-6 -59 -6 -59 21 -59 34 0
69 18 61 31 -4 5 -15 9 -26 9 -24 0 -25 31 -3 97 16 47 16 48 -7 63 -13 8 -35
25 -49 37 -20 18 -22 22 -8 23 9 0 20 -4 23 -10 3 -5 11 -10 17 -10 10 0 6 74
-7 125 -5 17 4 23 70 44 106 33 94 72 -13 42 -34 -10 -38 -3 -34 50 2 20 -26
29 -55 18z"/>
</g>
</svg>
