<?xml version="1.0" standalone="no"?>
<!DOCTYPE svg PUBLIC "-//W3C//DTD SVG 20010904//EN"
 "http://www.w3.org/TR/2001/REC-SVG-20010904/DTD/svg10.dtd">
<svg version="1.0" xmlns="http://www.w3.org/2000/svg"
 width="21.000000pt" height="32.000000pt" viewBox="0 0 21.000000 32.000000"
 preserveAspectRatio="xMidYMid meet">
<metadata>
Created by potrace 1.14, written by Peter Selinger 2001-2017
</metadata>
<g transform="translate(0.000000,32.000000) scale(0.100000,-0.100000)"
fill="#000000" stroke="none">
<path fill="#000000" stroke="none" d="M16 305 c-26 -20 -17 -92 16 -117 13
-10 18 -18 12 -18 -7 0 -14 -8 -17 -17 -2 -10 -8 -25 -12 -35 -5 -12 5 -23 42
-44 26 -15 63 -38 81 -52 18 -13 35 -22 38 -20 2 3 1 19 -2 36 -5 22 -12 32
-25 32 -14 0 -19 7 -19 25 0 20 5 25 25 25 33 0 32 10 -5 42 -26 23 -30 33
-30 80 0 30 -5 59 -12 66 -16 16 -69 15 -92 -3z"/>
</g>
</svg>
