<?xml version="1.0" standalone="no"?>
<!DOCTYPE svg PUBLIC "-//W3C//DTD SVG 20010904//EN"
 "http://www.w3.org/TR/2001/REC-SVG-20010904/DTD/svg10.dtd">
<svg version="1.0" xmlns="http://www.w3.org/2000/svg"
 width="49.000000pt" height="71.000000pt" viewBox="0 0 49.000000 71.000000"
 preserveAspectRatio="xMidYMid meet">
<metadata>
Created by potrace 1.14, written by Peter Selinger 2001-2017
</metadata>
<g transform="translate(0.000000,71.000000) scale(0.100000,-0.100000)"
fill="#000000" stroke="none">
<path fill="#000000" stroke="none" d="M365 702 c-6 -4 -26 -28 -45 -54 -23
-32 -42 -47 -57 -48 -13 0 -28 -9 -35 -20 -7 -11 -16 -20 -20 -20 -17 0 -98
-58 -86 -62 7 -3 -17 -11 -54 -18 -61 -12 -68 -16 -68 -37 0 -19 5 -23 31 -23
17 0 58 7 92 16 89 23 103 14 110 -73 3 -37 8 -77 11 -88 5 -15 -9 -42 -54
-103 -34 -46 -67 -103 -75 -128 l-13 -44 33 0 c56 0 85 16 85 46 0 19 19 46
69 98 l69 71 7 142 7 142 55 12 c62 14 68 20 52 51 -7 12 -11 40 -11 62 3 55
-20 86 -61 86 -17 0 -37 -4 -42 -8z"/>
</g>
</svg>
