<?xml version="1.0" standalone="no"?>
<!DOCTYPE svg PUBLIC "-//W3C//DTD SVG 20010904//EN"
 "http://www.w3.org/TR/2001/REC-SVG-20010904/DTD/svg10.dtd">
<svg version="1.0" xmlns="http://www.w3.org/2000/svg"
 width="59.000000pt" height="80.000000pt" viewBox="0 0 59.000000 80.000000"
 preserveAspectRatio="xMidYMid meet">
<metadata>
Created by potrace 1.14, written by Peter Selinger 2001-2017
</metadata>
<g transform="translate(0.000000,80.000000) scale(0.100000,-0.100000)"
fill="#000000" stroke="none">
<path fill="#000000" stroke="none" d="M144 791 c-17 -5 -51 -19 -75 -32 l-44
-25 0 -69 c0 -40 -6 -80 -13 -93 -23 -40 -6 -94 54 -174 71 -96 72 -111 17
-281 -19 -60 -32 -112 -28 -115 17 -17 115 156 115 203 0 18 5 25 20 25 19 0
20 4 14 63 -8 87 16 122 109 157 48 18 67 30 67 43 0 27 26 31 55 9 63 -50
162 47 147 146 -3 26 -9 32 -28 32 -13 0 -48 15 -77 34 -28 19 -71 37 -94 41
-22 3 -49 15 -58 25 -13 14 -23 16 -51 10 -19 -4 -37 -4 -40 1 -6 10 -45 10
-90 0z"/>
</g>
</svg>
