<?xml version="1.0" standalone="no"?>
<!DOCTYPE svg PUBLIC "-//W3C//DTD SVG 20010904//EN"
 "http://www.w3.org/TR/2001/REC-SVG-20010904/DTD/svg10.dtd">
<svg version="1.0" xmlns="http://www.w3.org/2000/svg"
 width="127.000000pt" height="188.000000pt" viewBox="0 0 127.000000 188.000000"
 preserveAspectRatio="xMidYMid meet">
<metadata>
Created by potrace 1.14, written by Peter Selinger 2001-2017
</metadata>
<g transform="translate(0.000000,188.000000) scale(0.100000,-0.100000)"
fill="#000000" stroke="none">
<path fill="#000000" stroke="none" d="M0 1503 l1 -378 60 -45 c34 -25 92 -82
131 -127 l70 -83 59 0 c58 0 60 1 113 53 55 55 79 99 157 288 l44 107 69 8 69
9 56 100 c31 55 74 141 96 190 21 50 43 95 49 101 6 6 75 37 153 69 102 41
140 61 136 71 -4 12 -107 14 -634 14 l-629 0 0 -377z"/>
<path fill="#000000" stroke="none" d="M0 404 l0 -408 30 29 30 29 0 223 0
223 51 101 c27 56 49 102 47 103 -21 16 -136 95 -145 100 -10 6 -13 -77 -13
-400z"/>
</g>
</svg>
