<?xml version="1.0" standalone="no"?>
<!DOCTYPE svg PUBLIC "-//W3C//DTD SVG 20010904//EN"
 "http://www.w3.org/TR/2001/REC-SVG-20010904/DTD/svg10.dtd">
<svg version="1.0" xmlns="http://www.w3.org/2000/svg"
 width="31.000000pt" height="44.000000pt" viewBox="0 0 31.000000 44.000000"
 preserveAspectRatio="xMidYMid meet">
<metadata>
Created by potrace 1.14, written by Peter Selinger 2001-2017
</metadata>
<g transform="translate(0.000000,44.000000) scale(0.100000,-0.100000)"
fill="#000000" stroke="none">
<path fill="#000000" stroke="none" d="M67 427 c-9 -6 -21 -34 -28 -62 -6 -27
-18 -65 -25 -83 -8 -18 -14 -39 -14 -48 0 -32 32 -74 75 -100 25 -14 45 -30
45 -34 0 -17 32 -40 54 -40 19 0 22 -4 18 -30 -6 -39 15 -40 50 -2 45 48 59
79 60 131 1 45 -3 56 -31 85 -24 25 -36 51 -48 102 -8 38 -22 73 -31 78 -25
14 -107 17 -125 3z"/>
</g>
</svg>
