<?xml version="1.0" standalone="no"?>
<!DOCTYPE svg PUBLIC "-//W3C//DTD SVG 20010904//EN"
 "http://www.w3.org/TR/2001/REC-SVG-20010904/DTD/svg10.dtd">
<svg version="1.0" xmlns="http://www.w3.org/2000/svg"
 width="32.000000pt" height="49.000000pt" viewBox="0 0 32.000000 49.000000"
 preserveAspectRatio="xMidYMid meet">
<metadata>
Created by potrace 1.14, written by Peter Selinger 2001-2017
</metadata>
<g transform="translate(0.000000,49.000000) scale(0.100000,-0.100000)"
fill="#000000" stroke="none">
<path fill="#000000" stroke="none" d="M169 467 c-31 -27 -41 -51 -33 -82 l6
-24 42 21 c23 12 61 22 87 22 l46 1 -24 32 c-22 29 -35 36 -83 48 -8 2 -27 -6
-41 -18z"/>
<path fill="#000000" stroke="none" d="M100 260 c-30 -15 -65 -42 -78 -59 -20
-28 -22 -41 -20 -119 l3 -87 54 50 c29 27 75 75 103 107 l49 57 -26 40 c-14
23 -26 41 -28 40 -1 -1 -27 -14 -57 -29z"/>
</g>
</svg>
