<?xml version="1.0" standalone="no"?>
<!DOCTYPE svg PUBLIC "-//W3C//DTD SVG 20010904//EN"
 "http://www.w3.org/TR/2001/REC-SVG-20010904/DTD/svg10.dtd">
<svg version="1.0" xmlns="http://www.w3.org/2000/svg"
 width="81.000000pt" height="116.000000pt" viewBox="0 0 81.000000 116.000000"
 preserveAspectRatio="xMidYMid meet">
<metadata>
Created by potrace 1.14, written by Peter Selinger 2001-2017
</metadata>
<g transform="translate(0.000000,116.000000) scale(0.100000,-0.100000)"
fill="#000000" stroke="none">
<path fill="#000000" stroke="none" d="M383 1119 l-53 -40 0 -60 c0 -46 7 -73
29 -118 l30 -58 -50 -29 c-46 -26 -52 -34 -67 -87 -12 -42 -27 -68 -52 -91
-20 -18 -45 -55 -55 -84 -26 -66 -102 -160 -137 -168 l-27 -6 36 -54 36 -54
69 63 c38 34 87 77 108 95 l39 33 31 -47 c46 -66 46 -66 -127 -201 l-52 -40
39 -59 c22 -32 45 -71 51 -86 6 -15 15 -28 19 -28 8 0 209 150 330 247 117 93
129 111 196 294 37 104 40 161 14 312 -21 117 -27 135 -51 154 -26 22 -29 22
-75 8 -27 -8 -52 -15 -56 -15 -5 0 -8 19 -8 43 -1 69 -53 117 -127 117 -29 0
-51 -10 -90 -41z"/>
</g>
</svg>
