<?xml version="1.0" standalone="no"?>
<!DOCTYPE svg PUBLIC "-//W3C//DTD SVG 20010904//EN"
 "http://www.w3.org/TR/2001/REC-SVG-20010904/DTD/svg10.dtd">
<svg version="1.0" xmlns="http://www.w3.org/2000/svg"
 width="29.000000pt" height="40.000000pt" viewBox="0 0 29.000000 40.000000"
 preserveAspectRatio="xMidYMid meet">
<metadata>
Created by potrace 1.14, written by Peter Selinger 2001-2017
</metadata>
<g transform="translate(0.000000,40.000000) scale(0.100000,-0.100000)"
fill="#000000" stroke="none">
<path fill="#000000" stroke="none" d="M113 388 c-23 -11 -43 -55 -43 -93 0
-11 -13 -39 -30 -61 -33 -46 -45 -103 -36 -169 l7 -45 62 0 c34 -1 81 -5 104
-9 53 -10 73 8 73 67 0 31 5 44 20 52 25 13 28 73 4 92 -59 47 -74 68 -74 100
0 23 -8 42 -23 56 -26 24 -32 25 -64 10z"/>
</g>
</svg>
