<?xml version="1.0" standalone="no"?>
<!DOCTYPE svg PUBLIC "-//W3C//DTD SVG 20010904//EN"
 "http://www.w3.org/TR/2001/REC-SVG-20010904/DTD/svg10.dtd">
<svg version="1.0" xmlns="http://www.w3.org/2000/svg"
 width="15.000000pt" height="23.000000pt" viewBox="0 0 15.000000 23.000000"
 preserveAspectRatio="xMidYMid meet">
<metadata>
Created by potrace 1.14, written by Peter Selinger 2001-2017
</metadata>
<g transform="translate(0.000000,23.000000) scale(0.100000,-0.100000)"
fill="#000000" stroke="none">
<path fill="#000000" stroke="none" d="M37 212 c-17 -19 -23 -67 -9 -76 4 -2
6 -25 4 -50 -3 -33 -8 -46 -20 -46 -13 0 -12 -3 3 -20 11 -13 31 -20 52 -20
29 0 36 5 49 35 10 24 11 41 5 53 -6 12 -4 24 10 41 23 28 24 49 3 79 -19 28
-74 30 -97 4z"/>
</g>
</svg>
