<?xml version="1.0" standalone="no"?>
<!DOCTYPE svg PUBLIC "-//W3C//DTD SVG 20010904//EN"
 "http://www.w3.org/TR/2001/REC-SVG-20010904/DTD/svg10.dtd">
<svg version="1.0" xmlns="http://www.w3.org/2000/svg"
 width="50.000000pt" height="68.000000pt" viewBox="0 0 50.000000 68.000000"
 preserveAspectRatio="xMidYMid meet">
<metadata>
Created by potrace 1.14, written by Peter Selinger 2001-2017
</metadata>
<g transform="translate(0.000000,68.000000) scale(0.100000,-0.100000)"
fill="#000000" stroke="none">
<path fill="#000000" stroke="none" d="M339 658 c-39 -17 -54 -32 -88 -89 -22
-38 -41 -72 -41 -75 0 -4 11 -17 25 -30 32 -30 31 -46 -3 -86 -62 -72 -76
-110 -51 -135 9 -9 26 -5 67 13 43 19 57 22 64 12 14 -23 3 -31 -78 -63 -43
-17 -95 -40 -114 -50 -19 -10 -47 -18 -61 -16 -24 2 -27 -2 -42 -61 -11 -43
-13 -66 -6 -73 7 -7 84 28 235 105 124 63 227 118 230 122 2 4 -19 43 -47 88
-30 47 -48 85 -42 88 5 4 25 17 45 30 59 37 70 60 52 117 -8 27 -14 61 -14 76
0 29 -3 31 -70 44 -8 1 -36 -6 -61 -17z"/>
</g>
</svg>
