<?xml version="1.0" standalone="no"?>
<!DOCTYPE svg PUBLIC "-//W3C//DTD SVG 20010904//EN"
 "http://www.w3.org/TR/2001/REC-SVG-20010904/DTD/svg10.dtd">
<svg version="1.0" xmlns="http://www.w3.org/2000/svg"
 width="154.000000pt" height="212.000000pt" viewBox="0 0 154.000000 212.000000"
 preserveAspectRatio="xMidYMid meet">
<metadata>
Created by potrace 1.14, written by Peter Selinger 2001-2017
</metadata>
<g transform="translate(0.000000,212.000000) scale(0.100000,-0.100000)"
fill="#000000" stroke="none">
<path fill="#000000" stroke="none" d="M811 2098 c-27 -68 -71 -158 -138 -285
l-75 -142 -42 -5 c-22 -3 -70 -8 -106 -11 l-65 -6 -45 -67 c-25 -37 -46 -72
-48 -77 -1 -6 41 -46 94 -89 l96 -79 -34 -21 c-20 -12 -66 -39 -104 -60 -69
-40 -98 -71 -302 -332 l-33 -41 46 -105 46 -105 -51 -123 -52 -124 46 -197
c25 -108 46 -200 46 -204 0 -4 6 -3 13 3 6 6 30 13 52 17 22 3 56 10 75 15 19
5 82 14 140 20 l105 11 123 -46 c119 -45 172 -53 172 -24 0 6 -22 97 -50 202
-44 174 -90 403 -90 454 0 14 52 69 148 159 126 119 155 151 201 230 l53 91
122 -29 c66 -15 131 -30 143 -33 14 -3 42 -35 74 -81 l50 -75 27 17 c15 9 41
27 58 38 l31 21 -36 53 c-34 50 -44 56 -174 117 -75 35 -174 83 -220 108 l-82
44 -67 156 -67 156 -15 173 c-9 95 -18 189 -21 210 l-5 36 70 21 c39 12 70 24
70 26 0 3 -38 5 -85 5 -79 0 -86 -2 -94 -22z"/>
</g>
</svg>
