<?xml version="1.0" standalone="no"?>
<!DOCTYPE svg PUBLIC "-//W3C//DTD SVG 20010904//EN"
 "http://www.w3.org/TR/2001/REC-SVG-20010904/DTD/svg10.dtd">
<svg version="1.0" xmlns="http://www.w3.org/2000/svg"
 width="30.000000pt" height="41.000000pt" viewBox="0 0 30.000000 41.000000"
 preserveAspectRatio="xMidYMid meet">
<metadata>
Created by potrace 1.14, written by Peter Selinger 2001-2017
</metadata>
<g transform="translate(0.000000,41.000000) scale(0.100000,-0.100000)"
fill="#000000" stroke="none">
<path fill="#000000" stroke="none" d="M108 398 c13 -13 16 -48 5 -48 -5 0
-33 -22 -63 -49 l-55 -49 27 -54 c15 -30 39 -64 52 -77 22 -21 24 -29 19 -72
l-6 -49 31 0 c17 0 51 9 76 19 38 17 47 26 55 58 6 21 20 52 31 68 24 37 25
52 3 96 -18 36 -23 123 -9 152 7 16 0 17 -85 17 -72 0 -90 -3 -81 -12z"/>
</g>
</svg>
