<?xml version="1.0" standalone="no"?>
<!DOCTYPE svg PUBLIC "-//W3C//DTD SVG 20010904//EN"
 "http://www.w3.org/TR/2001/REC-SVG-20010904/DTD/svg10.dtd">
<svg version="1.0" xmlns="http://www.w3.org/2000/svg"
 width="31.000000pt" height="44.000000pt" viewBox="0 0 31.000000 44.000000"
 preserveAspectRatio="xMidYMid meet">
<metadata>
Created by potrace 1.14, written by Peter Selinger 2001-2017
</metadata>
<g transform="translate(0.000000,44.000000) scale(0.100000,-0.100000)"
fill="#000000" stroke="none">
<path fill="#000000" stroke="none" d="M92 420 c-31 -19 -33 -23 -27 -59 5
-31 2 -45 -19 -76 -14 -21 -26 -50 -26 -65 0 -15 -5 -41 -11 -58 -9 -25 -8
-36 5 -54 9 -12 16 -42 16 -65 l0 -43 141 0 140 0 -8 23 c-4 12 -8 47 -9 77
-1 30 -2 66 -3 80 0 16 -21 42 -56 76 -51 47 -56 56 -62 105 -5 47 -22 79 -42
79 -3 0 -21 -9 -39 -20z"/>
</g>
</svg>
