<?xml version="1.0" standalone="no"?>
<!DOCTYPE svg PUBLIC "-//W3C//DTD SVG 20010904//EN"
 "http://www.w3.org/TR/2001/REC-SVG-20010904/DTD/svg10.dtd">
<svg version="1.0" xmlns="http://www.w3.org/2000/svg"
 width="44.000000pt" height="66.000000pt" viewBox="0 0 44.000000 66.000000"
 preserveAspectRatio="xMidYMid meet">
<metadata>
Created by potrace 1.14, written by Peter Selinger 2001-2017
</metadata>
<g transform="translate(0.000000,66.000000) scale(0.100000,-0.100000)"
fill="#000000" stroke="none">
<path fill="#000000" stroke="none" d="M211 636 l-74 -22 -35 -69 c-19 -38
-50 -89 -68 -114 -19 -24 -34 -49 -34 -54 0 -6 21 -63 46 -126 44 -109 45
-116 33 -158 -6 -24 -10 -46 -7 -48 2 -3 67 -14 144 -25 129 -19 140 -19 151
-4 15 21 8 34 -19 34 -12 0 -18 5 -15 13 3 7 19 67 37 132 27 100 32 136 31
215 -1 69 4 114 19 165 11 38 20 73 20 77 0 17 -157 5 -229 -16z"/>
</g>
</svg>
