<?xml version="1.0" standalone="no"?>
<!DOCTYPE svg PUBLIC "-//W3C//DTD SVG 20010904//EN"
 "http://www.w3.org/TR/2001/REC-SVG-20010904/DTD/svg10.dtd">
<svg version="1.0" xmlns="http://www.w3.org/2000/svg"
 width="54.000000pt" height="82.000000pt" viewBox="0 0 54.000000 82.000000"
 preserveAspectRatio="xMidYMid meet">
<metadata>
Created by potrace 1.14, written by Peter Selinger 2001-2017
</metadata>
<g transform="translate(0.000000,82.000000) scale(0.100000,-0.100000)"
fill="#000000" stroke="none">
<path fill="#000000" stroke="none" d="M142 808 c-35 -44 -44 -83 -39 -155 l5
-73 -37 -20 c-56 -28 -74 -61 -68 -123 3 -29 10 -126 18 -217 7 -91 14 -167
16 -169 2 -2 14 2 28 9 21 11 25 20 25 61 0 72 15 96 72 115 61 20 121 12 147
-21 10 -13 24 -45 31 -70 11 -41 15 -45 43 -45 24 0 43 -12 82 -50 l50 -50 -3
74 c-3 47 2 98 12 138 21 83 22 268 2 306 -20 39 -59 72 -124 107 -46 25 -63
42 -96 97 -32 52 -50 71 -79 83 -45 18 -71 19 -85 3z"/>
</g>
</svg>
