<?xml version="1.0" standalone="no"?>
<!DOCTYPE svg PUBLIC "-//W3C//DTD SVG 20010904//EN"
 "http://www.w3.org/TR/2001/REC-SVG-20010904/DTD/svg10.dtd">
<svg version="1.0" xmlns="http://www.w3.org/2000/svg"
 width="35.000000pt" height="51.000000pt" viewBox="0 0 35.000000 51.000000"
 preserveAspectRatio="xMidYMid meet">
<metadata>
Created by potrace 1.14, written by Peter Selinger 2001-2017
</metadata>
<g transform="translate(0.000000,51.000000) scale(0.100000,-0.100000)"
fill="#000000" stroke="none">
<path fill="#000000" stroke="none" d="M177 492 c-9 -10 -17 -31 -17 -46 0
-25 1 -26 16 -12 17 18 47 8 58 -20 8 -21 8 -26 -3 -20 -5 3 -12 -1 -15 -10
-4 -10 0 -18 13 -21 36 -9 38 -99 4 -188 -14 -39 -14 -40 12 -62 33 -29 50
-29 80 2 28 27 31 52 12 79 -10 14 -12 31 -5 67 6 31 5 56 -1 67 -6 10 -8 28
-5 40 4 11 0 33 -8 49 -8 15 -21 42 -29 58 -12 25 -21 31 -55 33 -29 2 -45 -2
-57 -16z"/>
<path fill="#000000" stroke="none" d="M18 393 c-13 -14 -16 -44 -16 -142 -1
-69 2 -130 6 -135 3 -6 5 -25 3 -42 -2 -24 4 -36 25 -53 35 -27 49 -27 81 5
19 19 24 31 19 52 -4 15 -8 88 -9 163 -1 98 -6 141 -16 152 -18 22 -74 22 -93
0z"/>
</g>
</svg>
