<?xml version="1.0" standalone="no"?>
<!DOCTYPE svg PUBLIC "-//W3C//DTD SVG 20010904//EN"
 "http://www.w3.org/TR/2001/REC-SVG-20010904/DTD/svg10.dtd">
<svg version="1.0" xmlns="http://www.w3.org/2000/svg"
 width="90.000000pt" height="124.000000pt" viewBox="0 0 90.000000 124.000000"
 preserveAspectRatio="xMidYMid meet">
<metadata>
Created by potrace 1.14, written by Peter Selinger 2001-2017
</metadata>
<g transform="translate(0.000000,124.000000) scale(0.100000,-0.100000)"
fill="#000000" stroke="none">
<path fill="#000000" stroke="none" d="M28 1228 c-3 -7 -11 -60 -18 -118 -11
-92 -10 -128 8 -296 l20 -191 96 -295 c58 -178 103 -301 114 -312 18 -16 20
-14 40 34 20 48 23 50 60 50 28 0 45 7 62 25 15 16 33 24 48 23 23 -3 27 4 57
101 l34 104 -35 68 c-22 46 -39 97 -48 155 -18 114 -10 138 49 153 24 6 46 11
49 11 2 0 29 -30 60 -67 50 -60 58 -76 77 -157 21 -89 22 -92 75 -133 36 -29
64 -43 84 -43 l30 0 2 108 c4 255 -2 345 -39 557 -19 116 -38 213 -42 216 -3
4 -180 10 -392 14 -317 5 -387 4 -391 -7z"/>
</g>
</svg>
