<?xml version="1.0" standalone="no"?>
<!DOCTYPE svg PUBLIC "-//W3C//DTD SVG 20010904//EN"
 "http://www.w3.org/TR/2001/REC-SVG-20010904/DTD/svg10.dtd">
<svg version="1.0" xmlns="http://www.w3.org/2000/svg"
 width="35.000000pt" height="47.000000pt" viewBox="0 0 35.000000 47.000000"
 preserveAspectRatio="xMidYMid meet">
<metadata>
Created by potrace 1.14, written by Peter Selinger 2001-2017
</metadata>
<g transform="translate(0.000000,47.000000) scale(0.100000,-0.100000)"
fill="#000000" stroke="none">
<path fill="#000000" stroke="none" d="M91 401 c-29 -39 -51 -76 -48 -83 2 -7
-7 -25 -20 -40 -14 -14 -22 -31 -19 -37 9 -14 63 -14 72 0 3 6 19 9 35 5 37
-7 39 17 7 52 l-23 24 43 38 c23 21 42 42 42 46 0 5 -8 22 -19 37 l-18 28 -52
-70z"/>
<path fill="#000000" stroke="none" d="M163 328 c-26 -13 -31 -48 -7 -48 14 0
15 -10 10 -72 -9 -95 -9 -95 -8 -149 2 -41 5 -47 26 -51 21 -4 23 -2 16 21 -9
33 3 66 28 80 23 12 32 5 32 -25 0 -27 3 -29 52 -38 l38 -7 -3 101 -2 101 -30
-4 c-40 -6 -92 29 -106 71 -12 35 -13 36 -46 20z"/>
</g>
</svg>
