<?xml version="1.0" standalone="no"?>
<!DOCTYPE svg PUBLIC "-//W3C//DTD SVG 20010904//EN"
 "http://www.w3.org/TR/2001/REC-SVG-20010904/DTD/svg10.dtd">
<svg version="1.0" xmlns="http://www.w3.org/2000/svg"
 width="354.000000pt" height="510.000000pt" viewBox="0 0 354.000000 510.000000"
 preserveAspectRatio="xMidYMid meet">
<metadata>
Created by potrace 1.14, written by Peter Selinger 2001-2017
</metadata>
<g transform="translate(0.000000,510.000000) scale(0.100000,-0.100000)"
fill="#000000" stroke="none">
<path fill="#000000" stroke="none" d="M1869 5037 l-166 -61 -43 -76 c-63
-108 -97 -154 -129 -173 l-29 -17 14 -53 c7 -28 14 -81 14 -116 l0 -63 21 23
c11 13 5 -1 -14 -31 l-35 -55 -7 -163 -7 -162 38 -51 c28 -38 39 -47 46 -37
13 18 26 73 -193 -825 l-194 -798 -172 -187 -172 -187 20 -21 c18 -19 19 -33
17 -125 l-3 -103 -200 -73 c-190 -68 -202 -74 -245 -120 -194 -208 -217 -229
-288 -266 -68 -35 -74 -41 -106 -105 l-33 -67 15 -322 16 -322 70 -11 c89 -14
99 -18 164 -70 l53 -42 -2 -126 -1 -125 58 -24 c99 -41 345 -75 369 -51 3 3
-1 79 -8 169 -11 123 -12 168 -3 178 9 12 -3 13 -81 8 -103 -6 -151 5 -158 38
-2 11 -11 135 -21 275 -13 209 -14 260 -3 285 l12 30 10 -38 c6 -20 13 -37 17
-37 3 0 39 20 80 45 40 25 76 42 80 38 4 -4 24 -138 45 -298 21 -159 41 -296
45 -303 5 -10 15 -3 34 22 15 20 32 36 37 36 6 0 35 -17 65 -37 37 -27 54 -45
54 -60 0 -12 14 -86 30 -163 17 -77 30 -143 30 -145 0 -3 12 0 27 6 15 6 42 8
60 4 l33 -6 0 68 c0 78 28 583 35 628 11 68 152 133 338 155 54 6 100 10 102
8 3 -2 -41 -44 -97 -93 -99 -88 -102 -93 -156 -205 l-54 -115 6 -110 c4 -60
14 -165 22 -232 7 -67 11 -128 8 -136 -4 -11 12 -18 67 -31 92 -21 92 -21 304
18 129 23 190 30 215 25 19 -5 73 -9 119 -9 l84 0 -21 23 c-20 21 -22 34 -21
123 l0 99 95 82 c111 95 104 92 615 284 193 73 347 135 342 136 -6 2 61 178
149 391 87 213 181 458 209 545 l50 157 -17 238 c-12 178 -15 305 -11 509 5
220 4 274 -7 280 -7 4 -27 49 -43 99 -25 76 -43 107 -104 185 -41 52 -123 180
-184 283 -100 172 -117 196 -192 265 -46 42 -83 80 -83 85 0 5 -43 55 -95 111
l-95 103 0 252 0 253 -94 166 c-52 91 -129 211 -171 266 l-77 100 -81 7 c-208
16 -237 12 -418 -55z"/>
</g>
</svg>
