<?xml version="1.0" standalone="no"?>
<!DOCTYPE svg PUBLIC "-//W3C//DTD SVG 20010904//EN"
 "http://www.w3.org/TR/2001/REC-SVG-20010904/DTD/svg10.dtd">
<svg version="1.0" xmlns="http://www.w3.org/2000/svg"
 width="185.000000pt" height="252.000000pt" viewBox="0 0 185.000000 252.000000"
 preserveAspectRatio="xMidYMid meet">
<metadata>
Created by potrace 1.14, written by Peter Selinger 2001-2017
</metadata>
<g transform="translate(0.000000,252.000000) scale(0.100000,-0.100000)"
fill="#000000" stroke="none">
<path fill="#000000" stroke="none" d="M208 2498 c-2 -17 -11 -24 -33 -26 -19
-2 -46 -19 -72 -44 l-42 -41 36 -56 c20 -31 45 -70 55 -87 l18 -31 -74 -49
c-89 -58 -83 -32 -91 -344 l-7 -215 85 -250 c47 -137 88 -258 92 -268 6 -15
94 -50 103 -42 2 2 10 27 18 57 l13 53 -5 -76 c-3 -42 2 -154 12 -250 17 -174
17 -174 81 -337 l64 -163 -6 -107 c-6 -85 -12 -117 -31 -155 -18 -35 -21 -49
-12 -51 33 -11 237 -16 242 -7 10 16 -30 302 -77 556 l-43 230 35 202 c20 112
38 203 42 203 4 0 53 -26 109 -57 92 -52 115 -72 235 -198 123 -130 146 -149
314 -260 l181 -120 22 -73 c17 -59 27 -76 47 -83 19 -8 27 -6 33 5 8 13 23 9
100 -30 l91 -45 33 32 c23 22 39 30 53 26 15 -4 21 0 21 11 0 11 -33 35 -91
67 -83 45 -105 64 -226 195 -74 80 -222 253 -327 385 -167 207 -208 267 -309
440 -109 189 -117 207 -147 324 -17 68 -28 126 -25 129 3 3 32 -7 66 -23 90
-44 113 -89 160 -325 32 -159 43 -196 74 -249 l36 -62 37 22 c20 12 41 25 45
29 4 4 -4 38 -18 76 -15 38 -48 159 -75 269 l-48 200 -88 159 -89 160 -125 23
c-69 13 -139 22 -157 19 -20 -3 -36 1 -44 10 -10 12 -14 12 -25 -3 -13 -17
-15 -17 -32 3 -10 12 -24 48 -31 80 -30 140 -23 130 -109 158 -42 14 -80 26
-84 26 -4 0 -8 -10 -10 -22z"/>
<path fill="#ffffff" stroke="none" d="M249 1616 l93 -169 -7 -86 c-4 -47 -10
-103 -14 -125 l-6 -39 -82 105 -81 104 -4 197 c-1 108 0 193 3 189 3 -4 47
-83 98 -176z"/>
</g>
</svg>
