<?xml version="1.0" standalone="no"?>
<!DOCTYPE svg PUBLIC "-//W3C//DTD SVG 20010904//EN"
 "http://www.w3.org/TR/2001/REC-SVG-20010904/DTD/svg10.dtd">
<svg version="1.0" xmlns="http://www.w3.org/2000/svg"
 width="153.000000pt" height="206.000000pt" viewBox="0 0 153.000000 206.000000"
 preserveAspectRatio="xMidYMid meet">
<metadata>
Created by potrace 1.14, written by Peter Selinger 2001-2017
</metadata>
<g transform="translate(0.000000,206.000000) scale(0.100000,-0.100000)"
fill="#000000" stroke="none">
<path fill="#000000" stroke="none" d="M1114 2026 l-170 -32 -291 -199 -291
-200 -183 -325 -182 -325 27 -415 c15 -228 30 -442 33 -474 l6 -59 54 59 c29
32 97 122 150 199 128 187 276 382 360 478 66 75 72 80 193 133 69 30 197 77
284 104 105 33 180 63 220 88 l61 38 27 114 c15 63 48 215 73 337 38 186 45
240 45 335 l0 113 -113 33 c-61 18 -116 32 -122 31 -5 0 -87 -15 -181 -33z"/>
</g>
</svg>
