<?xml version="1.0" standalone="no"?>
<!DOCTYPE svg PUBLIC "-//W3C//DTD SVG 20010904//EN"
 "http://www.w3.org/TR/2001/REC-SVG-20010904/DTD/svg10.dtd">
<svg version="1.0" xmlns="http://www.w3.org/2000/svg"
 width="22.000000pt" height="32.000000pt" viewBox="0 0 22.000000 32.000000"
 preserveAspectRatio="xMidYMid meet">
<metadata>
Created by potrace 1.14, written by Peter Selinger 2001-2017
</metadata>
<g transform="translate(0.000000,32.000000) scale(0.100000,-0.100000)"
fill="#000000" stroke="none">
<path fill="#000000" stroke="none" d="M41 307 c-44 -22 -47 -37 -27 -159 11
-62 23 -120 29 -128 7 -12 21 -15 63 -10 29 3 55 8 57 10 12 13 35 70 47 112
12 45 11 50 -11 83 -13 19 -32 35 -41 35 -10 0 -28 16 -40 35 -25 37 -39 42
-77 22z"/>
</g>
</svg>
