<?xml version="1.0" standalone="no"?>
<!DOCTYPE svg PUBLIC "-//W3C//DTD SVG 20010904//EN"
 "http://www.w3.org/TR/2001/REC-SVG-20010904/DTD/svg10.dtd">
<svg version="1.0" xmlns="http://www.w3.org/2000/svg"
 width="283.000000pt" height="435.000000pt" viewBox="0 0 283.000000 435.000000"
 preserveAspectRatio="xMidYMid meet">
<metadata>
Created by potrace 1.14, written by Peter Selinger 2001-2017
</metadata>
<g transform="translate(0.000000,435.000000) scale(0.100000,-0.100000)"
fill="#000000" stroke="none">
<path fill="#000000" stroke="none" d="M1229 4246 l-206 -104 -21 -57 -20 -57
28 -102 c15 -55 38 -170 49 -255 20 -143 24 -160 64 -232 l42 -79 -120 -121
c-82 -82 -168 -155 -270 -229 l-150 -109 -64 -117 -64 -118 47 -211 c25 -115
49 -221 51 -235 3 -14 49 -202 104 -418 l99 -393 -32 -21 c-31 -21 -35 -30
-91 -247 l-58 -226 -285 -400 c-157 -220 -297 -415 -310 -432 l-24 -33 584 0
585 0 156 110 c86 60 167 116 180 125 l25 16 -3 -68 c-1 -37 -4 -75 -7 -83 -6
-16 -28 -127 -28 -142 0 -4 198 -8 441 -8 l441 0 49 39 c40 32 46 40 32 44
-10 3 -124 25 -253 48 -129 23 -236 44 -238 45 -2 1 0 24 4 50 9 63 66 123
189 199 90 56 90 56 150 50 33 -4 75 -16 94 -28 33 -20 35 -20 125 -3 231 44
255 54 204 89 -22 14 -22 15 -5 34 22 25 21 32 -2 57 -10 12 -39 51 -65 88
-42 60 -46 72 -46 125 -1 43 -23 133 -89 353 l-88 295 81 6 c55 4 114 18 185
43 58 20 106 36 107 36 14 0 24 105 24 250 l0 176 -59 214 c-33 118 -97 346
-144 505 -46 160 -92 331 -102 380 -21 107 -42 131 -138 151 -60 12 -62 14
-177 136 l-117 123 -37 235 c-20 129 -41 291 -47 360 -6 69 -14 128 -17 131
-8 8 -127 48 -242 82 -59 18 -120 27 -200 31 l-115 6 -206 -104z"/>
<path fill="#ffffff" stroke="none" d="M2193 3229 l147 -32 35 -111 c116 -372
243 -802 238 -809 -2 -4 -47 -36 -98 -70 l-93 -62 -146 14 -145 14 -45 136
c-25 75 -90 274 -146 444 l-101 307 47 84 c38 68 54 87 88 104 22 11 48 19 56
17 8 -2 81 -18 163 -36z"/>
</g>
</svg>
