<?xml version="1.0" standalone="no"?>
<!DOCTYPE svg PUBLIC "-//W3C//DTD SVG 20010904//EN"
 "http://www.w3.org/TR/2001/REC-SVG-20010904/DTD/svg10.dtd">
<svg version="1.0" xmlns="http://www.w3.org/2000/svg"
 width="87.000000pt" height="129.000000pt" viewBox="0 0 87.000000 129.000000"
 preserveAspectRatio="xMidYMid meet">
<metadata>
Created by potrace 1.14, written by Peter Selinger 2001-2017
</metadata>
<g transform="translate(0.000000,129.000000) scale(0.100000,-0.100000)"
fill="#000000" stroke="none">
<path fill="#000000" stroke="none" d="M373 1277 c-31 -9 -50 -22 -69 -49 -25
-35 -26 -39 -11 -62 16 -24 16 -25 -16 -44 -95 -56 -128 -72 -195 -92 -39 -12
-72 -27 -72 -33 0 -6 5 -36 12 -67 9 -47 9 -64 -5 -105 -10 -27 -17 -53 -17
-59 0 -6 32 -24 71 -41 42 -18 78 -40 88 -54 9 -14 23 -68 31 -120 l16 -96 86
-50 86 -50 54 -135 c48 -123 56 -136 84 -145 17 -5 29 -15 27 -21 -2 -7 42
-20 117 -34 107 -20 123 -20 138 -7 9 8 29 17 45 21 15 3 27 11 27 18 0 6 -76
161 -169 343 l-168 333 87 25 c60 17 104 37 139 63 46 34 51 42 51 76 l0 38
-85 -55 c-47 -30 -88 -55 -93 -55 -12 0 -72 65 -125 137 -55 73 -58 99 -20
177 l26 54 -32 51 c-35 54 -40 56 -108 38z"/>
</g>
</svg>
