<?xml version="1.0" standalone="no"?>
<!DOCTYPE svg PUBLIC "-//W3C//DTD SVG 20010904//EN"
 "http://www.w3.org/TR/2001/REC-SVG-20010904/DTD/svg10.dtd">
<svg version="1.0" xmlns="http://www.w3.org/2000/svg"
 width="46.000000pt" height="67.000000pt" viewBox="0 0 46.000000 67.000000"
 preserveAspectRatio="xMidYMid meet">
<metadata>
Created by potrace 1.14, written by Peter Selinger 2001-2017
</metadata>
<g transform="translate(0.000000,67.000000) scale(0.100000,-0.100000)"
fill="#000000" stroke="none">
<path fill="#000000" stroke="none" d="M107 557 c-36 -62 -76 -134 -88 -161
l-21 -49 22 -46 c20 -43 30 -51 160 -121 118 -64 145 -83 181 -128 22 -29 42
-52 44 -50 2 2 12 93 24 203 12 110 24 216 27 236 l5 37 -66 23 c-51 19 -71
32 -91 61 -22 31 -54 58 -119 100 -7 4 -37 -37 -78 -105z"/>
</g>
</svg>
