<?xml version="1.0" standalone="no"?>
<!DOCTYPE svg PUBLIC "-//W3C//DTD SVG 20010904//EN"
 "http://www.w3.org/TR/2001/REC-SVG-20010904/DTD/svg10.dtd">
<svg version="1.0" xmlns="http://www.w3.org/2000/svg"
 width="26.000000pt" height="38.000000pt" viewBox="0 0 26.000000 38.000000"
 preserveAspectRatio="xMidYMid meet">
<metadata>
Created by potrace 1.14, written by Peter Selinger 2001-2017
</metadata>
<g transform="translate(0.000000,38.000000) scale(0.100000,-0.100000)"
fill="#000000" stroke="none">
<path fill="#000000" stroke="none" d="M119 368 c-10 -8 -19 -33 -22 -63 -2
-27 -10 -63 -16 -79 -9 -23 -14 -26 -25 -16 -12 9 -18 6 -31 -14 -14 -22 -15
-35 -7 -83 9 -49 8 -61 -6 -76 -16 -18 -15 -18 18 -15 30 3 35 7 38 31 2 15 8
27 13 27 13 0 11 -37 -2 -46 -8 -4 -7 -9 2 -15 20 -13 29 -11 29 6 0 23 47 19
55 -5 8 -25 55 -28 55 -4 0 9 10 32 21 51 18 29 21 45 17 101 -3 37 -12 81
-20 97 -9 17 -24 48 -34 70 -21 43 -55 57 -85 33z"/>
</g>
</svg>
