<?xml version="1.0" standalone="no"?>
<!DOCTYPE svg PUBLIC "-//W3C//DTD SVG 20010904//EN"
 "http://www.w3.org/TR/2001/REC-SVG-20010904/DTD/svg10.dtd">
<svg version="1.0" xmlns="http://www.w3.org/2000/svg"
 width="35.000000pt" height="49.000000pt" viewBox="0 0 35.000000 49.000000"
 preserveAspectRatio="xMidYMid meet">
<metadata>
Created by potrace 1.14, written by Peter Selinger 2001-2017
</metadata>
<g transform="translate(0.000000,49.000000) scale(0.100000,-0.100000)"
fill="#000000" stroke="none">
<path fill="#000000" stroke="none" d="M183 478 c-13 -6 -23 -17 -23 -25 0 -7
-7 -16 -15 -19 -8 -4 -15 -17 -15 -29 0 -15 -15 -36 -40 -58 -22 -19 -40 -37
-40 -42 0 -4 -11 -20 -25 -37 -23 -27 -24 -31 -11 -56 8 -15 33 -45 55 -66 29
-29 38 -43 30 -52 -12 -15 13 -82 35 -90 25 -10 55 15 81 66 36 70 33 102 -10
131 -27 19 -35 31 -35 54 l0 30 40 -46 c28 -34 50 -49 76 -53 19 -4 42 -10 50
-13 26 -10 14 12 -19 33 -80 52 -116 157 -66 194 14 12 20 23 16 34 -4 9 -3
14 2 11 5 -3 12 -1 16 5 3 5 -11 16 -31 25 -42 17 -42 17 -71 3z"/>
</g>
</svg>
