<?xml version="1.0" standalone="no"?>
<!DOCTYPE svg PUBLIC "-//W3C//DTD SVG 20010904//EN"
 "http://www.w3.org/TR/2001/REC-SVG-20010904/DTD/svg10.dtd">
<svg version="1.0" xmlns="http://www.w3.org/2000/svg"
 width="33.000000pt" height="47.000000pt" viewBox="0 0 33.000000 47.000000"
 preserveAspectRatio="xMidYMid meet">
<metadata>
Created by potrace 1.14, written by Peter Selinger 2001-2017
</metadata>
<g transform="translate(0.000000,47.000000) scale(0.100000,-0.100000)"
fill="#000000" stroke="none">
<path fill="#000000" stroke="none" d="M68 443 c-8 -16 -18 -44 -22 -64 -3
-20 -15 -44 -26 -54 -31 -28 -24 -47 32 -85 46 -32 54 -42 79 -113 41 -111 54
-126 109 -127 40 0 47 4 66 33 20 32 20 33 2 92 -10 33 -18 79 -18 102 0 52
-12 84 -42 115 -14 13 -33 47 -43 76 l-19 52 -51 0 c-45 0 -53 -3 -67 -27z"/>
</g>
</svg>
