<?xml version="1.0" standalone="no"?>
<!DOCTYPE svg PUBLIC "-//W3C//DTD SVG 20010904//EN"
 "http://www.w3.org/TR/2001/REC-SVG-20010904/DTD/svg10.dtd">
<svg version="1.0" xmlns="http://www.w3.org/2000/svg"
 width="154.000000pt" height="223.000000pt" viewBox="0 0 154.000000 223.000000"
 preserveAspectRatio="xMidYMid meet">
<metadata>
Created by potrace 1.14, written by Peter Selinger 2001-2017
</metadata>
<g transform="translate(0.000000,223.000000) scale(0.100000,-0.100000)"
fill="#000000" stroke="none">
<path fill="#000000" stroke="none" d="M895 2200 l-90 -27 -7 -129 c-4 -71
-11 -147 -15 -169 l-9 -39 -96 -31 c-75 -24 -107 -41 -140 -71 -24 -22 -63
-54 -89 -71 -25 -17 -66 -56 -92 -86 -33 -39 -79 -73 -161 -123 -106 -63 -116
-71 -122 -104 -4 -19 -18 -63 -30 -98 -31 -81 -47 -149 -31 -133 17 17 24 14
31 -13 4 -15 17 -28 35 -34 l30 -11 6 57 c10 82 11 86 65 139 27 26 79 79 117
116 55 55 86 76 158 107 49 22 92 40 95 40 4 0 16 -21 28 -47 40 -88 52 -205
52 -504 0 -262 1 -279 22 -330 12 -30 36 -73 54 -96 28 -38 31 -48 27 -90 -6
-57 -6 -57 -85 -103 l-63 -36 -5 -119 c-4 -82 -11 -132 -23 -159 l-17 -39 70
6 c38 3 74 8 79 12 6 3 13 25 16 49 l7 44 59 12 c53 11 64 18 105 66 36 42
104 102 172 150 2 1 -9 26 -23 54 -21 42 -24 54 -13 61 22 14 143 -238 162
-337 22 -119 6 -109 171 -109 160 0 159 -1 126 63 -11 21 -25 67 -32 102 -6
36 -27 95 -45 132 -19 37 -52 112 -74 168 -22 55 -58 136 -79 179 -33 65 -41
94 -51 182 -15 135 -22 161 -58 207 -23 30 -33 59 -50 148 -19 104 -19 114 -4
177 l16 66 34 -37 33 -37 -35 49 c-37 51 -43 70 -26 81 6 4 57 -23 113 -60
160 -105 308 -280 254 -301 -8 -3 -25 0 -40 5 -19 8 -28 6 -38 -5 -13 -16 -14
-16 22 -31 24 -11 30 -7 78 41 40 41 51 58 51 84 0 42 -34 92 -94 139 -32 24
-87 95 -167 209 -75 109 -134 184 -159 201 -22 16 -48 47 -60 73 -19 40 -20
50 -10 90 19 72 23 117 15 183 -6 57 -9 64 -43 88 l-37 26 -90 -27z"/>
</g>
</svg>
