<?xml version="1.0" standalone="no"?>
<!DOCTYPE svg PUBLIC "-//W3C//DTD SVG 20010904//EN"
 "http://www.w3.org/TR/2001/REC-SVG-20010904/DTD/svg10.dtd">
<svg version="1.0" xmlns="http://www.w3.org/2000/svg"
 width="72.000000pt" height="97.000000pt" viewBox="0 0 72.000000 97.000000"
 preserveAspectRatio="xMidYMid meet">
<metadata>
Created by potrace 1.14, written by Peter Selinger 2001-2017
</metadata>
<g transform="translate(0.000000,97.000000) scale(0.100000,-0.100000)"
fill="#000000" stroke="none">
<path fill="#000000" stroke="none" d="M222 957 c-19 -6 -45 -25 -58 -42 l-24
-32 19 -47 20 -46 -22 0 c-25 0 -127 -122 -127 -151 0 -10 -7 -22 -16 -27 -14
-8 -13 -12 4 -43 16 -27 21 -62 26 -172 4 -76 9 -158 12 -181 l6 -43 67 -7
c36 -3 110 -6 163 -6 l97 0 6 -32 c3 -18 9 -55 13 -83 l8 -50 34 52 33 53 120
0 c106 0 118 2 113 16 -4 9 -11 37 -17 63 -7 25 -17 51 -23 57 -13 13 -118 51
-166 59 -19 4 -58 13 -87 21 l-51 14 11 30 c12 32 18 34 87 21 37 -8 48 -6 68
10 28 21 54 24 83 9 12 -7 25 -7 36 -2 14 9 14 11 -7 22 -15 8 -19 15 -11 19
14 9 5 37 -14 45 -8 3 -28 0 -45 -6 -19 -6 -56 -7 -95 -3 -74 8 -86 20 -109
108 -14 55 -29 88 -56 120 -9 12 -11 21 -4 25 13 9 34 81 34 116 0 36 -23 79
-56 105 -30 23 -26 23 -72 8z"/>
</g>
</svg>
