<?xml version="1.0" standalone="no"?>
<!DOCTYPE svg PUBLIC "-//W3C//DTD SVG 20010904//EN"
 "http://www.w3.org/TR/2001/REC-SVG-20010904/DTD/svg10.dtd">
<svg version="1.0" xmlns="http://www.w3.org/2000/svg"
 width="36.000000pt" height="51.000000pt" viewBox="0 0 36.000000 51.000000"
 preserveAspectRatio="xMidYMid meet">
<metadata>
Created by potrace 1.14, written by Peter Selinger 2001-2017
</metadata>
<g transform="translate(0.000000,51.000000) scale(0.100000,-0.100000)"
fill="#000000" stroke="none">
<path fill="#000000" stroke="none" d="M293 497 c-36 -11 -58 -53 -69 -129 -8
-60 2 -91 26 -83 45 14 22 -20 -79 -118 -96 -92 -107 -106 -88 -111 50 -13 72
-6 95 29 12 19 28 35 35 35 6 1 38 7 70 15 l58 13 -34 -46 c-28 -40 -41 -49
-83 -58 -34 -7 -50 -16 -52 -28 -3 -15 1 -17 25 -12 15 3 54 8 85 12 32 3 63
13 69 21 9 10 11 70 6 230 -7 239 -9 247 -64 230z"/>
<path fill="#000000" stroke="none" d="M7 26 c-8 -20 2 -26 42 -26 l36 0 -30
20 c-36 24 -41 24 -48 6z"/>
</g>
</svg>
