<?xml version="1.0" standalone="no"?>
<!DOCTYPE svg PUBLIC "-//W3C//DTD SVG 20010904//EN"
 "http://www.w3.org/TR/2001/REC-SVG-20010904/DTD/svg10.dtd">
<svg version="1.0" xmlns="http://www.w3.org/2000/svg"
 width="303.000000pt" height="436.000000pt" viewBox="0 0 303.000000 436.000000"
 preserveAspectRatio="xMidYMid meet">
<metadata>
Created by potrace 1.14, written by Peter Selinger 2001-2017
</metadata>
<g transform="translate(0.000000,436.000000) scale(0.100000,-0.100000)"
fill="#000000" stroke="none">
<path fill="#000000" stroke="none" d="M586 4286 l-219 -71 -79 -283 -80 -284
89 -195 88 -195 150 -126 c83 -69 156 -130 163 -137 11 -10 3 -29 -45 -104
l-58 -91 -65 0 -65 0 -151 -173 -151 -172 -78 -220 c-43 -121 -78 -224 -78
-230 0 -5 69 -174 153 -374 l153 -364 -18 -131 c-13 -100 -34 -182 -86 -345
l-68 -215 71 -289 71 -290 964 5 c530 3 967 8 970 11 3 3 -68 207 -157 452
-89 245 -160 448 -158 450 2 3 143 -5 314 -17 l309 -22 161 102 162 102 92
221 c86 209 91 224 85 271 l-7 50 -23 -22 c-13 -12 -29 -43 -35 -70 -8 -32
-23 -59 -48 -83 -36 -34 -40 -36 -117 -38 -44 -1 -99 4 -122 11 -35 11 -45 20
-66 64 -41 82 -41 83 17 196 59 116 77 131 178 150 89 17 130 13 162 -17 l29
-27 -6 40 c-4 21 -7 44 -7 50 0 7 -107 -14 -272 -53 -235 -55 -284 -63 -352
-61 l-79 3 -243 380 -243 380 -156 136 c-86 75 -161 141 -168 148 -12 13 -10
16 61 71 18 15 28 46 52 157 24 110 42 164 91 268 l60 130 -47 115 c-26 63
-84 230 -129 370 l-81 254 -139 59 c-126 53 -156 62 -315 88 -96 16 -184 31
-195 33 -11 2 -119 -29 -239 -68z"/>
</g>
</svg>
