<?xml version="1.0" standalone="no"?>
<!DOCTYPE svg PUBLIC "-//W3C//DTD SVG 20010904//EN"
 "http://www.w3.org/TR/2001/REC-SVG-20010904/DTD/svg10.dtd">
<svg version="1.0" xmlns="http://www.w3.org/2000/svg"
 width="90.000000pt" height="138.000000pt" viewBox="0 0 90.000000 138.000000"
 preserveAspectRatio="xMidYMid meet">
<metadata>
Created by potrace 1.14, written by Peter Selinger 2001-2017
</metadata>
<g transform="translate(0.000000,138.000000) scale(0.100000,-0.100000)"
fill="#000000" stroke="none">
<path fill="#000000" stroke="none" d="M178 1371 c5 -3 27 -62 50 -131 l41
-125 -32 -33 c-18 -19 -75 -67 -128 -108 -116 -88 -113 -81 -104 -303 9 -201
9 -201 118 -202 45 0 118 -4 162 -8 51 -4 116 -2 180 6 55 8 126 12 158 11 57
-3 57 -3 68 30 6 18 54 106 106 195 52 89 95 166 96 171 1 5 -76 35 -172 66
-141 46 -177 62 -193 83 l-19 27 45 64 46 64 0 90 0 90 -137 6 c-271 12 -294
13 -285 7z"/>
<path fill="#000000" stroke="none" d="M222 113 c-85 -4 -94 -14 -67 -72 l17
-38 166 52 c92 28 174 54 182 57 15 7 -169 7 -298 1z"/>
</g>
</svg>
