<?xml version="1.0" standalone="no"?>
<!DOCTYPE svg PUBLIC "-//W3C//DTD SVG 20010904//EN"
 "http://www.w3.org/TR/2001/REC-SVG-20010904/DTD/svg10.dtd">
<svg version="1.0" xmlns="http://www.w3.org/2000/svg"
 width="133.000000pt" height="187.000000pt" viewBox="0 0 133.000000 187.000000"
 preserveAspectRatio="xMidYMid meet">
<metadata>
Created by potrace 1.14, written by Peter Selinger 2001-2017
</metadata>
<g transform="translate(0.000000,187.000000) scale(0.100000,-0.100000)"
fill="#000000" stroke="none">
<path fill="#000000" stroke="none" d="M620 1819 c-57 -28 -105 -51 -106 -52
-5 -5 -114 -472 -114 -488 0 -9 25 -49 56 -88 l56 -72 -89 -40 c-48 -23 -119
-56 -158 -73 l-70 -33 -96 -235 c-71 -175 -95 -243 -91 -267 l4 -31 186 -2
185 -3 81 -217 c58 -155 85 -216 94 -213 8 3 43 5 79 5 l66 0 -6 171 -7 170
38 -29 c20 -17 59 -53 87 -81 27 -28 54 -51 60 -51 6 0 26 -13 45 -30 19 -16
38 -29 41 -30 3 0 25 27 48 60 23 33 46 60 50 60 5 0 28 -7 51 -15 23 -8 44
-15 45 -15 4 0 156 206 169 228 5 8 -41 87 -125 216 l-133 203 -105 63 c-59
35 -107 64 -109 66 -2 1 16 41 40 88 l44 87 74 -64 75 -64 49 81 48 81 -38
249 -39 249 -175 83 c-96 46 -182 83 -190 83 -8 0 -62 -23 -120 -50z"/>
</g>
</svg>
