<?xml version="1.0" standalone="no"?>
<!DOCTYPE svg PUBLIC "-//W3C//DTD SVG 20010904//EN"
 "http://www.w3.org/TR/2001/REC-SVG-20010904/DTD/svg10.dtd">
<svg version="1.0" xmlns="http://www.w3.org/2000/svg"
 width="15.000000pt" height="23.000000pt" viewBox="0 0 15.000000 23.000000"
 preserveAspectRatio="xMidYMid meet">
<metadata>
Created by potrace 1.14, written by Peter Selinger 2001-2017
</metadata>
<g transform="translate(0.000000,23.000000) scale(0.100000,-0.100000)"
fill="#000000" stroke="none">
<path fill="#000000" stroke="none" d="M35 219 c-3 -8 -4 -46 -2 -86 3 -63 1
-72 -16 -77 -13 -3 -18 -12 -15 -28 4 -31 57 -39 64 -11 3 11 19 24 35 30 30
12 39 39 18 60 -8 8 -5 14 10 22 25 14 27 38 3 69 -21 27 -89 42 -97 21z"/>
</g>
</svg>
