<?xml version="1.0" standalone="no"?>
<!DOCTYPE svg PUBLIC "-//W3C//DTD SVG 20010904//EN"
 "http://www.w3.org/TR/2001/REC-SVG-20010904/DTD/svg10.dtd">
<svg version="1.0" xmlns="http://www.w3.org/2000/svg"
 width="122.000000pt" height="185.000000pt" viewBox="0 0 122.000000 185.000000"
 preserveAspectRatio="xMidYMid meet">
<metadata>
Created by potrace 1.14, written by Peter Selinger 2001-2017
</metadata>
<g transform="translate(0.000000,185.000000) scale(0.100000,-0.100000)"
fill="#000000" stroke="none">
<path fill="#000000" stroke="none" d="M560 1792 c-139 -76 -227 -136 -320
-219 -91 -80 -134 -150 -196 -321 l-42 -112 29 -21 c15 -11 38 -37 50 -59 16
-28 26 -37 34 -30 9 8 22 -15 50 -87 20 -54 56 -134 80 -178 23 -44 50 -103
60 -130 l17 -51 49 50 c26 28 51 48 54 44 4 -4 -9 -48 -29 -99 -19 -50 -33
-95 -31 -100 5 -7 -7 -60 -70 -314 -14 -54 -29 -102 -34 -105 -15 -9 -25 -60
-12 -60 39 0 785 31 787 33 0 1 -28 134 -64 295 l-65 293 67 68 c37 37 106 91
155 121 l88 53 -19 51 c-30 79 -33 80 -171 87 -141 7 -188 23 -208 73 -7 17
-37 57 -67 88 l-55 58 34 43 c18 24 51 57 72 73 47 35 60 59 87 155 28 102 26
131 -17 217 -36 72 -41 77 -98 103 -98 44 -99 44 -215 -19z"/>
</g>
</svg>
