<?xml version="1.0" standalone="no"?>
<!DOCTYPE svg PUBLIC "-//W3C//DTD SVG 20010904//EN"
 "http://www.w3.org/TR/2001/REC-SVG-20010904/DTD/svg10.dtd">
<svg version="1.0" xmlns="http://www.w3.org/2000/svg"
 width="78.000000pt" height="119.000000pt" viewBox="0 0 78.000000 119.000000"
 preserveAspectRatio="xMidYMid meet">
<metadata>
Created by potrace 1.14, written by Peter Selinger 2001-2017
</metadata>
<g transform="translate(0.000000,119.000000) scale(0.100000,-0.100000)"
fill="#000000" stroke="none">
<path fill="#000000" stroke="none" d="M295 1182 c-5 -4 -30 -28 -54 -54 l-43
-46 27 -84 c16 -45 30 -89 33 -96 4 -11 -20 -13 -127 -10 -72 2 -131 2 -131 0
0 -2 55 -71 122 -155 66 -84 125 -157 130 -164 7 -8 -2 -27 -24 -57 -24 -31
-39 -67 -52 -123 -17 -73 -17 -88 -4 -216 9 -76 18 -140 21 -144 7 -7 299 -34
305 -28 2 2 -21 51 -52 109 l-56 106 49 0 49 0 55 -94 c60 -100 69 -106 153
-106 l34 0 1 153 c0 126 4 165 22 226 22 73 22 78 8 245 l-13 171 -78 108
c-60 84 -98 124 -176 187 -91 74 -102 80 -144 80 -25 0 -49 -4 -55 -8z"/>
<path fill="#ffffff" stroke="none" d="M690 808 c51 -90 52 -94 47 -155 -4
-54 -10 -70 -42 -108 -47 -58 -78 -67 -113 -32 l-26 26 18 70 c22 85 17 116
-29 206 l-35 67 21 38 22 39 42 -29 c31 -21 57 -54 95 -122z"/>
</g>
</svg>
