<?xml version="1.0" standalone="no"?>
<!DOCTYPE svg PUBLIC "-//W3C//DTD SVG 20010904//EN"
 "http://www.w3.org/TR/2001/REC-SVG-20010904/DTD/svg10.dtd">
<svg version="1.0" xmlns="http://www.w3.org/2000/svg"
 width="35.000000pt" height="49.000000pt" viewBox="0 0 35.000000 49.000000"
 preserveAspectRatio="xMidYMid meet">
<metadata>
Created by potrace 1.14, written by Peter Selinger 2001-2017
</metadata>
<g transform="translate(0.000000,49.000000) scale(0.100000,-0.100000)"
fill="#000000" stroke="none">
<path fill="#000000" stroke="none" d="M98 478 c-17 -6 -28 -17 -28 -29 0 -10
3 -19 8 -19 11 0 5 -171 -7 -183 -6 -6 -11 -36 -12 -67 0 -30 -4 -64 -8 -75
-7 -18 -9 -18 -23 9 -12 23 -16 25 -21 12 -4 -9 -2 -16 3 -16 6 0 10 -17 10
-39 0 -33 3 -39 25 -43 19 -4 25 -1 25 13 0 29 31 23 63 -11 28 -29 31 -30
123 -30 l94 0 -20 52 c-19 51 -19 52 0 83 35 56 20 168 -26 206 -10 8 -26 34
-37 59 -30 69 -54 90 -101 89 -23 0 -53 -5 -68 -11z"/>
</g>
</svg>
