<?xml version="1.0" standalone="no"?>
<!DOCTYPE svg PUBLIC "-//W3C//DTD SVG 20010904//EN"
 "http://www.w3.org/TR/2001/REC-SVG-20010904/DTD/svg10.dtd">
<svg version="1.0" xmlns="http://www.w3.org/2000/svg"
 width="248.000000pt" height="339.000000pt" viewBox="0 0 248.000000 339.000000"
 preserveAspectRatio="xMidYMid meet">
<metadata>
Created by potrace 1.14, written by Peter Selinger 2001-2017
</metadata>
<g transform="translate(0.000000,339.000000) scale(0.100000,-0.100000)"
fill="#000000" stroke="none">
<path fill="#000000" stroke="none" d="M1762 3371 c-51 -10 -95 -21 -99 -24
-3 -4 4 -68 16 -144 l21 -137 -67 -68 -68 -67 -189 -55 -189 -55 -43 30 -43
29 -194 -35 c-107 -19 -197 -35 -200 -35 -6 0 -127 -176 -127 -184 0 -9 136
-96 149 -96 6 0 48 24 94 54 103 68 140 75 238 46 l72 -22 -135 -136 c-74 -76
-181 -190 -238 -255 l-102 -118 15 -152 c15 -146 18 -157 72 -286 l57 -134
-269 -269 c-242 -242 -278 -275 -368 -329 -142 -85 -165 -108 -164 -161 0 -40
5 -47 67 -100 64 -54 68 -56 140 -63 l75 -7 81 81 c45 45 127 142 181 215
l100 133 340 178 340 177 253 -128 252 -129 0 -85 c0 -52 -20 -215 -51 -420
-48 -313 -51 -341 -43 -435 l9 -100 189 -36 c201 -39 376 -54 485 -41 l64 7
-152 123 c-141 115 -151 121 -151 95 0 -48 -17 -11 -29 64 -15 95 -14 202 4
629 l16 358 -89 89 c-49 48 -167 150 -263 226 l-174 137 -3 80 c-3 80 14 197
49 336 10 42 19 101 19 132 l0 55 88 27 c85 26 330 141 364 171 24 22 88 131
88 151 0 9 -12 60 -26 112 -24 87 -30 99 -90 166 -60 66 -71 74 -144 100 -76
26 -80 29 -81 58 -1 17 -6 83 -13 146 -8 89 -14 115 -26 116 -8 1 -57 -6 -108
-15z"/>
</g>
</svg>
