<?xml version="1.0" standalone="no"?>
<!DOCTYPE svg PUBLIC "-//W3C//DTD SVG 20010904//EN"
 "http://www.w3.org/TR/2001/REC-SVG-20010904/DTD/svg10.dtd">
<svg version="1.0" xmlns="http://www.w3.org/2000/svg"
 width="35.000000pt" height="50.000000pt" viewBox="0 0 35.000000 50.000000"
 preserveAspectRatio="xMidYMid meet">
<metadata>
Created by potrace 1.14, written by Peter Selinger 2001-2017
</metadata>
<g transform="translate(0.000000,50.000000) scale(0.100000,-0.100000)"
fill="#000000" stroke="none">
<path fill="#000000" stroke="none" d="M118 488 c-24 -8 -28 -15 -28 -47 0
-21 -3 -59 -6 -84 -6 -43 -8 -45 -30 -37 -19 8 -26 5 -39 -13 -19 -28 -20
-135 -1 -179 8 -18 18 -55 21 -81 l6 -49 124 4 c142 3 154 10 155 84 0 24 6
47 15 54 38 32 4 154 -47 165 -35 8 -68 49 -68 85 0 34 -20 93 -34 102 -14 10
-35 9 -68 -4z"/>
</g>
</svg>
