<?xml version="1.0" standalone="no"?>
<!DOCTYPE svg PUBLIC "-//W3C//DTD SVG 20010904//EN"
 "http://www.w3.org/TR/2001/REC-SVG-20010904/DTD/svg10.dtd">
<svg version="1.0" xmlns="http://www.w3.org/2000/svg"
 width="87.000000pt" height="118.000000pt" viewBox="0 0 87.000000 118.000000"
 preserveAspectRatio="xMidYMid meet">
<metadata>
Created by potrace 1.14, written by Peter Selinger 2001-2017
</metadata>
<g transform="translate(0.000000,118.000000) scale(0.100000,-0.100000)"
fill="#000000" stroke="none">
<path fill="#000000" stroke="none" d="M379 1168 c-45 -12 -63 -55 -43 -103
20 -46 17 -53 -27 -66 -62 -19 -103 -92 -68 -121 14 -11 15 -27 8 -117 -5 -58
-18 -132 -29 -165 -11 -34 -24 -95 -30 -136 -9 -66 -20 -92 -87 -210 -110
-192 -108 -188 -93 -215 9 -16 18 -21 34 -17 29 7 56 32 56 51 0 9 43 88 94
176 l95 159 45 -3 c40 -2 46 0 46 17 0 52 10 54 61 13 29 -23 66 -42 88 -46
54 -9 101 -63 141 -160 18 -44 41 -94 51 -111 10 -17 19 -48 19 -68 0 -32 3
-36 28 -38 72 -5 101 6 102 38 0 6 -17 31 -39 55 -33 39 -161 290 -161 318 0
5 -28 52 -63 104 l-62 93 42 32 c40 31 41 33 32 67 -7 25 -7 40 0 49 13 15
-27 146 -53 175 -9 10 -37 24 -61 31 l-45 13 6 67 c6 60 4 72 -15 99 -12 17
-25 31 -29 30 -4 -1 -23 -5 -43 -11z"/>
</g>
</svg>
