<?xml version="1.0" standalone="no"?>
<!DOCTYPE svg PUBLIC "-//W3C//DTD SVG 20010904//EN"
 "http://www.w3.org/TR/2001/REC-SVG-20010904/DTD/svg10.dtd">
<svg version="1.0" xmlns="http://www.w3.org/2000/svg"
 width="213.000000pt" height="303.000000pt" viewBox="0 0 213.000000 303.000000"
 preserveAspectRatio="xMidYMid meet">
<metadata>
Created by potrace 1.14, written by Peter Selinger 2001-2017
</metadata>
<g transform="translate(0.000000,303.000000) scale(0.100000,-0.100000)"
fill="#000000" stroke="none">
<path fill="#000000" stroke="none" d="M680 3023 c-14 -3 -41 -20 -60 -38 -25
-23 -66 -44 -139 -69 -57 -20 -106 -38 -109 -40 -2 -3 5 -18 17 -35 l22 -30
-21 -11 c-11 -6 -20 -21 -20 -34 0 -13 -13 -77 -30 -142 -34 -135 -37 -182
-14 -226 10 -20 14 -42 9 -64 -3 -19 -1 -71 5 -117 16 -126 20 -147 30 -147 5
0 7 6 4 13 -2 7 2 21 10 32 19 26 35 11 43 -37 4 -31 2 -38 -18 -48 -13 -7
-26 -14 -27 -16 -2 -1 6 -16 18 -32 19 -25 22 -43 22 -123 1 -52 -6 -131 -15
-176 -9 -46 -14 -88 -12 -95 3 -7 13 -62 23 -121 14 -85 16 -124 9 -183 -6
-47 -6 -98 0 -134 9 -54 7 -64 -23 -136 -28 -67 -33 -75 -42 -57 -21 38 -52
177 -52 231 0 112 22 245 49 302 22 45 26 64 21 103 -3 26 -2 84 3 129 7 57 6
93 -2 120 -13 42 -68 111 -82 102 -10 -6 2 29 29 83 22 43 19 63 -9 63 -49 0
-247 -260 -279 -366 -14 -48 -10 -108 15 -226 19 -86 19 -87 -3 -280 -52 -446
-55 -496 -33 -626 11 -64 23 -144 26 -177 4 -33 17 -96 30 -140 20 -66 32 -88
67 -123 l44 -42 89 0 c84 0 93 3 141 33 121 76 181 138 275 279 63 95 95 135
105 131 28 -10 52 -78 74 -203 11 -69 37 -176 56 -238 l35 -112 585 0 584 0
-5 23 c-20 90 -48 302 -70 527 -51 532 -66 655 -91 750 -14 52 -28 131 -31
176 -5 74 -3 86 17 119 22 36 22 37 4 77 -13 29 -54 70 -157 155 -166 138
-334 239 -492 294 -60 22 -120 45 -132 51 l-23 11 25 32 c18 25 23 40 19 66
-4 22 2 53 16 89 50 126 33 349 -35 455 -29 46 -44 56 -182 128 -147 75 -152
77 -219 76 -38 -1 -80 -4 -94 -6z"/>
<path fill="#ffffff" stroke="none" d="M280 1818 l0 -82 -25 34 c-14 19 -25
42 -25 52 0 16 37 78 47 78 2 0 3 -37 3 -82z"/>
</g>
</svg>
