<?xml version="1.0" standalone="no"?>
<!DOCTYPE svg PUBLIC "-//W3C//DTD SVG 20010904//EN"
 "http://www.w3.org/TR/2001/REC-SVG-20010904/DTD/svg10.dtd">
<svg version="1.0" xmlns="http://www.w3.org/2000/svg"
 width="92.000000pt" height="127.000000pt" viewBox="0 0 92.000000 127.000000"
 preserveAspectRatio="xMidYMid meet">
<metadata>
Created by potrace 1.14, written by Peter Selinger 2001-2017
</metadata>
<g transform="translate(0.000000,127.000000) scale(0.100000,-0.100000)"
fill="#000000" stroke="none">
<path fill="#000000" stroke="none" d="M415 1264 c-16 -3 -51 -14 -77 -26 -40
-18 -55 -33 -90 -90 -23 -39 -52 -77 -65 -85 -33 -22 -30 -70 11 -156 22 -45
39 -101 46 -150 6 -43 10 -80 8 -81 -2 -1 -23 -11 -48 -21 -71 -30 -122 -71
-163 -131 -36 -54 -37 -59 -37 -143 l0 -86 43 -38 c74 -67 128 -121 138 -141
10 -17 13 -16 38 14 l26 32 182 2 c161 1 183 -1 201 -17 11 -10 35 -20 53 -23
19 -3 47 -17 63 -30 24 -21 28 -31 23 -58 l-5 -33 46 8 c30 4 52 3 60 -4 11
-8 19 -5 33 13 16 21 19 35 14 80 -10 91 -44 124 -173 162 l-72 21 -15 51
c-17 57 -35 150 -35 176 0 11 13 21 38 28 21 7 47 22 58 34 22 24 44 90 44
128 0 13 16 64 37 114 32 80 36 101 35 170 -1 70 -5 84 -33 127 -17 27 -58 72
-91 100 l-60 52 -101 3 c-56 1 -115 0 -132 -2z"/>
</g>
</svg>
