<?xml version="1.0" standalone="no"?>
<!DOCTYPE svg PUBLIC "-//W3C//DTD SVG 20010904//EN"
 "http://www.w3.org/TR/2001/REC-SVG-20010904/DTD/svg10.dtd">
<svg version="1.0" xmlns="http://www.w3.org/2000/svg"
 width="67.000000pt" height="91.000000pt" viewBox="0 0 67.000000 91.000000"
 preserveAspectRatio="xMidYMid meet">
<metadata>
Created by potrace 1.14, written by Peter Selinger 2001-2017
</metadata>
<g transform="translate(0.000000,91.000000) scale(0.100000,-0.100000)"
fill="#000000" stroke="none">
<path fill="#000000" stroke="none" d="M115 903 c-45 -12 -82 -53 -97 -105
-12 -44 -12 -64 -2 -125 11 -62 19 -81 56 -124 24 -28 71 -74 106 -101 34 -28
71 -67 82 -88 33 -65 60 -144 60 -177 0 -55 8 -63 59 -63 61 0 91 -17 118 -65
25 -45 53 -59 103 -50 71 12 70 12 56 53 -7 20 -19 69 -26 107 -23 128 -56
183 -179 301 -104 100 -111 109 -111 145 0 27 6 45 20 56 11 10 20 24 20 33 0
27 -31 62 -50 57 -15 -4 -19 4 -25 40 -4 27 -17 56 -34 75 -24 26 -36 31 -82
34 -30 1 -63 0 -74 -3z"/>
</g>
</svg>
