<?xml version="1.0" standalone="no"?>
<!DOCTYPE svg PUBLIC "-//W3C//DTD SVG 20010904//EN"
 "http://www.w3.org/TR/2001/REC-SVG-20010904/DTD/svg10.dtd">
<svg version="1.0" xmlns="http://www.w3.org/2000/svg"
 width="420.000000pt" height="640.000000pt" viewBox="0 0 420.000000 640.000000"
 preserveAspectRatio="xMidYMid meet">
<metadata>
Created by potrace 1.14, written by Peter Selinger 2001-2017
</metadata>
<g transform="translate(0.000000,640.000000) scale(0.100000,-0.100000)"
fill="#000000" stroke="none">
<path fill="#000000" stroke="none" d="M2340 6389 c-542 -3 -1290 -7 -1663 -8
l-678 -1 136 -123 136 -123 139 -228 139 -227 26 -427 25 -427 47 -102 c27
-56 51 -102 54 -103 3 0 30 60 60 134 l54 134 193 132 c107 72 200 129 208
126 7 -3 151 -121 319 -263 270 -228 327 -272 493 -374 l188 -117 145 -31 144
-32 96 -95 96 -96 134 38 134 38 100 93 c55 51 102 93 105 93 3 0 64 -70 135
-155 l130 -155 46 -142 45 -141 -28 -121 c-16 -67 -31 -128 -34 -138 -3 -11 4
-19 22 -25 l26 -9 -42 -53 c-37 -46 -40 -54 -26 -64 15 -11 13 -22 -15 -117
-17 -58 -37 -108 -44 -112 -7 -4 -16 -25 -19 -45 -6 -29 -68 -267 -102 -384
-4 -13 -35 -11 -269 18 -145 18 -353 49 -462 68 -269 49 -518 74 -740 75
l-182 0 -75 -52 c-42 -29 -76 -57 -76 -63 1 -5 12 -22 25 -37 18 -21 33 -28
59 -28 47 0 128 -22 201 -55 l60 -26 -35 -19 c-19 -10 -64 -21 -100 -25 -104
-10 -107 -11 -129 -59 l-19 -45 -37 19 c-68 35 -113 -10 -102 -102 7 -53 7
-53 154 -195 82 -78 152 -142 156 -142 5 -1 117 64 250 144 134 80 249 145
258 145 8 0 168 -49 354 -109 304 -97 340 -111 346 -132 4 -13 13 -97 20 -187
10 -141 14 -164 30 -173 18 -9 18 -11 2 -35 -14 -22 -15 -35 -6 -82 5 -32 14
-66 18 -76 6 -14 5 -17 -4 -12 -10 6 -11 -2 -7 -35 3 -24 13 -129 22 -234 9
-104 19 -192 24 -195 4 -3 10 -27 14 -55 4 -27 30 -127 57 -222 l49 -172 0
-198 0 -199 43 -119 44 -120 496 -3 497 -2 0 3200 0 3200 -437 -2 c-241 -1
-881 -5 -1423 -9z"/>
</g>
</svg>
