<?xml version="1.0" standalone="no"?>
<!DOCTYPE svg PUBLIC "-//W3C//DTD SVG 20010904//EN"
 "http://www.w3.org/TR/2001/REC-SVG-20010904/DTD/svg10.dtd">
<svg version="1.0" xmlns="http://www.w3.org/2000/svg"
 width="34.000000pt" height="50.000000pt" viewBox="0 0 34.000000 50.000000"
 preserveAspectRatio="xMidYMid meet">
<metadata>
Created by potrace 1.14, written by Peter Selinger 2001-2017
</metadata>
<g transform="translate(0.000000,50.000000) scale(0.100000,-0.100000)"
fill="#000000" stroke="none">
<path fill="#000000" stroke="none" d="M28 485 l-28 -15 21 -52 c11 -28 25
-60 30 -70 6 -11 23 -74 38 -141 l27 -122 44 -16 c25 -10 76 -29 114 -43 l69
-26 -7 76 c-5 68 -11 85 -51 148 -25 39 -60 80 -78 92 -21 14 -46 48 -72 100
-43 85 -59 95 -107 69z"/>
</g>
</svg>
