<?xml version="1.0" standalone="no"?>
<!DOCTYPE svg PUBLIC "-//W3C//DTD SVG 20010904//EN"
 "http://www.w3.org/TR/2001/REC-SVG-20010904/DTD/svg10.dtd">
<svg version="1.0" xmlns="http://www.w3.org/2000/svg"
 width="115.000000pt" height="168.000000pt" viewBox="0 0 115.000000 168.000000"
 preserveAspectRatio="xMidYMid meet">
<metadata>
Created by potrace 1.14, written by Peter Selinger 2001-2017
</metadata>
<g transform="translate(0.000000,168.000000) scale(0.100000,-0.100000)"
fill="#000000" stroke="none">
<path fill="#000000" stroke="none" d="M466 1608 c13 -39 24 -77 24 -83 0 -21
-243 -201 -365 -270 -66 -37 -121 -68 -122 -69 -2 -1 68 -15 155 -30 86 -15
166 -30 178 -33 18 -4 23 -18 38 -121 9 -64 19 -124 22 -133 2 -9 -24 -46 -67
-92 l-70 -77 -16 -287 -15 -288 -46 -42 c-46 -41 -46 -42 -22 -47 49 -11 212
-37 215 -34 1 2 -2 51 -8 109 l-10 106 63 189 c35 104 68 192 74 196 6 4 33
12 60 19 l48 12 253 -253 c139 -139 254 -248 257 -244 2 5 13 37 23 70 15 53
16 65 4 81 -8 10 -88 110 -178 222 l-164 204 -42 144 -43 144 44 131 44 131
-45 63 c-25 34 -69 85 -97 113 l-53 50 31 89 32 89 -82 7 c-44 3 -95 6 -113 6
l-32 0 25 -72z"/>
</g>
</svg>
