<?xml version="1.0" standalone="no"?>
<!DOCTYPE svg PUBLIC "-//W3C//DTD SVG 20010904//EN"
 "http://www.w3.org/TR/2001/REC-SVG-20010904/DTD/svg10.dtd">
<svg version="1.0" xmlns="http://www.w3.org/2000/svg"
 width="119.000000pt" height="171.000000pt" viewBox="0 0 119.000000 171.000000"
 preserveAspectRatio="xMidYMid meet">
<metadata>
Created by potrace 1.14, written by Peter Selinger 2001-2017
</metadata>
<g transform="translate(0.000000,171.000000) scale(0.100000,-0.100000)"
fill="#000000" stroke="none">
<path fill="#000000" stroke="none" d="M74 1700 c-30 -12 -78 -140 -64 -171 6
-13 26 -96 45 -184 l35 -160 -5 115 c-4 87 -2 122 9 145 l14 30 1 -46 c1 -38
23 -167 45 -264 5 -19 13 -20 172 -20 l167 0 34 -190 34 -190 -20 -79 c-11
-43 -17 -85 -14 -92 3 -8 1 -14 -5 -14 -5 0 -22 -50 -37 -111 -26 -103 -27
-121 -22 -257 3 -87 11 -161 19 -181 l13 -33 70 7 c39 3 73 10 76 13 4 4 14
41 24 82 21 91 32 111 88 175 l44 49 99 -151 c60 -92 107 -154 119 -157 11 -3
54 -6 95 -6 l76 0 -17 143 c-17 137 -20 149 -98 347 -78 197 -83 206 -140 265
-42 42 -70 82 -94 135 l-34 76 58 -28 c55 -26 60 -32 137 -158 l79 -130 6 38
c3 20 9 78 13 127 3 50 13 106 21 124 19 47 4 113 -55 256 -52 124 -93 173
-180 214 l-52 24 0 78 c0 95 -10 109 -102 143 -64 24 -68 24 -116 9 -47 -15
-50 -19 -66 -68 -9 -28 -16 -84 -16 -123 l0 -72 -83 -42 c-71 -36 -93 -42
-163 -46 -60 -3 -83 -1 -89 9 -5 7 -12 84 -17 172 -11 198 -27 228 -104 197z"/>
<path fill="#ffffff" stroke="none" d="M810 1145 c9 -11 10 -25 0 -65 -7 -27
-16 -52 -20 -55 -8 -5 -40 65 -40 87 0 13 29 48 40 48 4 0 13 -7 20 -15z"/>
</g>
</svg>
