<?xml version="1.0" standalone="no"?>
<!DOCTYPE svg PUBLIC "-//W3C//DTD SVG 20010904//EN"
 "http://www.w3.org/TR/2001/REC-SVG-20010904/DTD/svg10.dtd">
<svg version="1.0" xmlns="http://www.w3.org/2000/svg"
 width="107.000000pt" height="160.000000pt" viewBox="0 0 107.000000 160.000000"
 preserveAspectRatio="xMidYMid meet">
<metadata>
Created by potrace 1.14, written by Peter Selinger 2001-2017
</metadata>
<g transform="translate(0.000000,160.000000) scale(0.100000,-0.100000)"
fill="#000000" stroke="none">
<path fill="#000000" stroke="none" d="M805 1583 c-21 -20 -33 -52 -41 -106
-7 -48 -7 -39 2 -177 l6 -105 -91 -44 -92 -43 -60 -107 c-59 -106 -60 -108
-141 -157 -81 -49 -82 -49 -180 -52 -81 -3 -100 -7 -111 -22 -7 -10 -25 -22
-40 -25 -15 -4 -32 -15 -36 -24 -5 -9 -11 -175 -13 -370 l-3 -353 58 5 c74 7
86 17 77 65 l-6 37 48 1 c70 1 75 11 50 87 -26 75 -27 124 -7 242 11 63 21 92
36 104 11 9 27 43 35 76 20 74 48 131 73 145 28 15 79 12 142 -6 65 -20 165
-19 196 1 14 9 47 15 87 15 99 0 108 6 129 89 38 147 35 141 66 141 16 0 41
10 56 22 27 21 27 23 23 107 -4 64 -11 95 -27 121 -11 19 -21 42 -21 51 0 9
-6 22 -14 28 -13 11 -12 17 4 44 22 38 27 86 17 143 -7 35 -14 43 -53 62 -56
27 -145 30 -169 5z"/>
<path fill="#000000" stroke="none" d="M392 696 c-10 -11 -42 -116 -42 -134 0
-6 43 -10 103 -10 56 -1 148 -7 204 -15 74 -11 114 -12 142 -5 37 9 41 14 64
77 14 36 24 67 23 68 -2 2 -94 7 -207 13 -112 5 -221 12 -241 14 -21 2 -41 -1
-46 -8z"/>
</g>
</svg>
