<?xml version="1.0" standalone="no"?>
<!DOCTYPE svg PUBLIC "-//W3C//DTD SVG 20010904//EN"
 "http://www.w3.org/TR/2001/REC-SVG-20010904/DTD/svg10.dtd">
<svg version="1.0" xmlns="http://www.w3.org/2000/svg"
 width="82.000000pt" height="117.000000pt" viewBox="0 0 82.000000 117.000000"
 preserveAspectRatio="xMidYMid meet">
<metadata>
Created by potrace 1.14, written by Peter Selinger 2001-2017
</metadata>
<g transform="translate(0.000000,117.000000) scale(0.100000,-0.100000)"
fill="#000000" stroke="none">
<path fill="#000000" stroke="none" d="M0 585 l0 -585 371 0 372 0 -7 50 c-6
44 -4 51 15 62 11 7 31 34 44 59 l23 45 -78 187 c-43 103 -91 202 -106 222
-40 52 -112 101 -172 115 -32 7 -68 25 -92 45 -22 19 -55 36 -72 40 -47 10
-78 32 -78 55 0 11 -5 20 -11 20 -7 0 -9 10 -7 25 9 44 -12 125 -43 168 -22
30 -44 47 -77 59 -91 32 -82 93 -82 -567z"/>
</g>
</svg>
