<?xml version="1.0" standalone="no"?>
<!DOCTYPE svg PUBLIC "-//W3C//DTD SVG 20010904//EN"
 "http://www.w3.org/TR/2001/REC-SVG-20010904/DTD/svg10.dtd">
<svg version="1.0" xmlns="http://www.w3.org/2000/svg"
 width="112.000000pt" height="160.000000pt" viewBox="0 0 112.000000 160.000000"
 preserveAspectRatio="xMidYMid meet">
<metadata>
Created by potrace 1.14, written by Peter Selinger 2001-2017
</metadata>
<g transform="translate(0.000000,160.000000) scale(0.100000,-0.100000)"
fill="#000000" stroke="none">
<path fill="#000000" stroke="none" d="M540 1581 c-127 -26 -230 -62 -230 -80
1 -33 19 -187 25 -213 7 -25 3 -29 -72 -66 -52 -26 -95 -58 -129 -93 -64 -68
-78 -91 -109 -169 -24 -61 -24 -66 -14 -193 6 -72 13 -135 16 -140 2 -4 24 8
48 28 24 19 50 35 59 35 19 0 19 1 1 120 -20 127 -21 123 19 99 29 -17 37 -29
47 -75 7 -30 16 -57 20 -60 5 -3 55 0 111 6 l103 12 124 -46 c94 -35 127 -43
138 -35 9 8 13 36 13 88 l0 77 68 30 68 31 -4 -113 c-4 -111 -4 -112 19 -119
34 -11 48 -34 49 -77 0 -34 -4 -39 -52 -65 -29 -15 -52 -32 -51 -38 2 -5 19
-11 38 -13 35 -3 36 -4 29 -35 -4 -18 -7 -52 -6 -76 2 -41 -2 -48 -43 -87 -44
-41 -45 -42 -45 -105 0 -55 29 -192 44 -206 13 -13 155 80 195 127 43 51 43
51 39 118 -3 54 -13 86 -53 170 -26 56 -46 104 -44 105 38 29 159 129 159 132
0 14 -60 136 -112 229 -46 81 -67 133 -84 202 -17 69 -33 108 -63 152 -22 33
-46 82 -52 108 -7 27 -29 72 -49 99 -20 28 -45 70 -54 95 -27 68 -28 68 -166
41z"/>
<path fill="#000000" stroke="none" d="M123 463 c-9 -3 -13 -31 -12 -91 2
-142 12 -150 32 -26 9 60 17 112 17 117 0 8 -18 8 -37 0z"/>
</g>
</svg>
