<?xml version="1.0" standalone="no"?>
<!DOCTYPE svg PUBLIC "-//W3C//DTD SVG 20010904//EN"
 "http://www.w3.org/TR/2001/REC-SVG-20010904/DTD/svg10.dtd">
<svg version="1.0" xmlns="http://www.w3.org/2000/svg"
 width="31.000000pt" height="46.000000pt" viewBox="0 0 31.000000 46.000000"
 preserveAspectRatio="xMidYMid meet">
<metadata>
Created by potrace 1.14, written by Peter Selinger 2001-2017
</metadata>
<g transform="translate(0.000000,46.000000) scale(0.100000,-0.100000)"
fill="#000000" stroke="none">
<path fill="#000000" stroke="none" d="M155 450 c3 -5 11 -10 16 -10 6 0 7 5
4 10 -3 6 -11 10 -16 10 -6 0 -7 -4 -4 -10z"/>
<path fill="#000000" stroke="none" d="M256 314 c15 -54 26 -120 27 -166 1
-66 4 -76 15 -64 26 26 -19 265 -59 310 -4 5 3 -31 17 -80z"/>
<path fill="#000000" stroke="none" d="M200 222 c0 -11 4 -22 9 -24 4 -1 4
-37 0 -78 -8 -76 -7 -86 9 -76 15 9 10 188 -5 194 -8 2 -13 -5 -13 -16z"/>
<path fill="#000000" stroke="none" d="M21 180 c-22 -51 -22 -55 -7 -103 9
-27 16 -55 16 -61 0 -8 12 -11 35 -8 19 2 35 9 35 16 0 6 -13 56 -28 110 l-28
99 -23 -53z"/>
</g>
</svg>
