<?xml version="1.0" standalone="no"?>
<!DOCTYPE svg PUBLIC "-//W3C//DTD SVG 20010904//EN"
 "http://www.w3.org/TR/2001/REC-SVG-20010904/DTD/svg10.dtd">
<svg version="1.0" xmlns="http://www.w3.org/2000/svg"
 width="271.000000pt" height="366.000000pt" viewBox="0 0 271.000000 366.000000"
 preserveAspectRatio="xMidYMid meet">
<metadata>
Created by potrace 1.14, written by Peter Selinger 2001-2017
</metadata>
<g transform="translate(0.000000,366.000000) scale(0.100000,-0.100000)"
fill="#000000" stroke="none">
<path fill="#000000" stroke="none" d="M818 3631 c-152 -30 -144 -26 -249
-142 l-69 -76 -25 -169 c-15 -93 -30 -248 -35 -345 -5 -97 -12 -188 -15 -201
-6 -22 -20 -28 -132 -59 l-126 -35 -48 -89 c-48 -89 -49 -91 -49 -185 -1 -52
-16 -265 -33 -474 l-33 -378 70 -308 71 -307 125 -145 125 -146 205 -73 c113
-40 248 -94 300 -120 l96 -47 147 89 147 88 0 -29 c0 -18 5 -30 13 -30 9 0 18
-27 26 -82 7 -46 17 -91 23 -101 7 -14 5 -23 -6 -36 -20 -22 -20 -27 6 -115
l21 -73 66 4 c547 30 871 19 1240 -43 l34 -5 -28 48 c-15 26 -35 55 -44 63
-51 46 -136 182 -187 298 -30 70 -89 185 -132 255 -72 119 -77 126 -82 98 -5
-28 -14 -14 -104 147 -94 168 -142 243 -173 268 -8 7 -59 18 -115 25 l-100 13
33 28 34 29 -40 -24 c-22 -13 -137 -85 -257 -160 -119 -76 -219 -137 -223
-137 -14 0 6 53 36 96 16 23 29 46 29 49 0 4 43 78 95 165 52 87 95 163 95
169 0 6 4 11 9 11 13 0 23 32 13 39 -5 3 -15 98 -21 211 -29 512 -69 980 -81
945 -5 -16 -10 -11 -24 25 -15 40 -28 52 -107 100 l-89 54 51 33 c28 17 53 33
54 35 2 2 17 78 34 169 l31 167 -79 192 c-44 105 -81 194 -84 196 -9 9 -238
54 -270 53 -17 -1 -94 -13 -169 -28z"/>
<path fill="#ffffff" stroke="none" d="M637 2956 c-10 -8 -17 -26 -17 -45 0
-17 -4 -31 -10 -31 -5 0 -10 17 -10 38 0 31 5 41 23 49 28 13 38 6 14 -11z"/>
<path fill="#ffffff" stroke="none" d="M721 2862 c-4 -15 -12 -26 -17 -25 -11
3 -18 49 -9 71 11 29 35 -13 26 -46z"/>
<path fill="#ffffff" stroke="none" d="M1206 1303 c-24 -55 -51 -122 -60 -150
-9 -28 -33 -69 -52 -92 -21 -24 -52 -82 -74 -139 -41 -105 -79 -192 -84 -192
-2 0 -106 49 -230 110 l-227 109 13 26 c8 15 99 79 238 167 174 110 258 156
370 203 80 34 146 61 148 60 1 -1 -18 -47 -42 -102z"/>
</g>
</svg>
