<?xml version="1.0" standalone="no"?>
<!DOCTYPE svg PUBLIC "-//W3C//DTD SVG 20010904//EN"
 "http://www.w3.org/TR/2001/REC-SVG-20010904/DTD/svg10.dtd">
<svg version="1.0" xmlns="http://www.w3.org/2000/svg"
 width="69.000000pt" height="105.000000pt" viewBox="0 0 69.000000 105.000000"
 preserveAspectRatio="xMidYMid meet">
<metadata>
Created by potrace 1.14, written by Peter Selinger 2001-2017
</metadata>
<g transform="translate(0.000000,105.000000) scale(0.100000,-0.100000)"
fill="#000000" stroke="none">
<path fill="#000000" stroke="none" d="M246 939 l-79 -111 20 -119 20 -119
-95 -262 c-52 -145 -98 -265 -103 -269 -5 -3 12 -15 38 -28 28 -13 48 -18 52
-12 3 5 44 74 90 153 72 122 95 152 156 204 l71 62 64 -212 c35 -116 66 -215
70 -219 12 -13 130 15 130 31 0 7 -21 133 -46 279 l-46 265 52 74 c45 65 50
77 38 92 -7 9 -37 46 -66 81 -30 35 -66 88 -80 118 -26 53 -27 54 -105 78 -43
14 -84 25 -90 25 -7 0 -48 -50 -91 -111z"/>
<path fill="#ffffff" stroke="none" d="M500 625 c29 -53 22 -74 -31 -91 -26
-9 -42 -8 -73 3 -22 7 -43 19 -47 25 -11 18 18 67 54 88 50 31 69 26 97 -25z"/>
</g>
</svg>
