<?xml version="1.0" standalone="no"?>
<!DOCTYPE svg PUBLIC "-//W3C//DTD SVG 20010904//EN"
 "http://www.w3.org/TR/2001/REC-SVG-20010904/DTD/svg10.dtd">
<svg version="1.0" xmlns="http://www.w3.org/2000/svg"
 width="30.000000pt" height="41.000000pt" viewBox="0 0 30.000000 41.000000"
 preserveAspectRatio="xMidYMid meet">
<metadata>
Created by potrace 1.14, written by Peter Selinger 2001-2017
</metadata>
<g transform="translate(0.000000,41.000000) scale(0.100000,-0.100000)"
fill="#000000" stroke="none">
<path fill="#000000" stroke="none" d="M47 385 c-25 -26 -38 -79 -27 -111 4
-10 1 -37 -6 -60 l-13 -43 30 -6 c19 -4 36 -2 45 6 13 10 17 10 25 -2 4 -8 6
-22 3 -32 -3 -9 -2 -41 1 -71 6 -47 10 -55 31 -59 28 -5 27 -10 13 87 -5 42
-7 81 -4 86 3 5 23 -2 45 -16 29 -19 43 -37 50 -65 9 -32 15 -39 35 -39 23 0
25 4 25 43 0 49 -28 85 -90 117 -34 18 -41 27 -56 80 -18 64 -47 110 -68 110
-7 0 -25 -11 -39 -25z"/>
</g>
</svg>
