<?xml version="1.0" standalone="no"?>
<!DOCTYPE svg PUBLIC "-//W3C//DTD SVG 20010904//EN"
 "http://www.w3.org/TR/2001/REC-SVG-20010904/DTD/svg10.dtd">
<svg version="1.0" xmlns="http://www.w3.org/2000/svg"
 width="75.000000pt" height="106.000000pt" viewBox="0 0 75.000000 106.000000"
 preserveAspectRatio="xMidYMid meet">
<metadata>
Created by potrace 1.14, written by Peter Selinger 2001-2017
</metadata>
<g transform="translate(0.000000,106.000000) scale(0.100000,-0.100000)"
fill="#000000" stroke="none">
<path fill="#000000" stroke="none" d="M475 1041 c-60 -27 -75 -50 -82 -123
-5 -58 -3 -68 21 -106 14 -23 26 -48 26 -56 0 -17 -46 -56 -66 -56 -7 0 -20
-7 -29 -16 -19 -19 -12 -94 12 -132 34 -55 -23 -92 -174 -112 l-91 -13 -43
-111 c-38 -99 -43 -122 -46 -214 l-4 -103 108 6 c59 4 186 13 281 21 95 8 209
14 253 14 l79 0 -2 38 c-1 20 4 73 11 117 8 44 14 166 15 270 1 212 -6 251
-55 286 -27 19 -29 25 -29 89 0 46 -6 82 -20 112 -42 94 -93 121 -165 89z"/>
</g>
</svg>
