<?xml version="1.0" standalone="no"?>
<!DOCTYPE svg PUBLIC "-//W3C//DTD SVG 20010904//EN"
 "http://www.w3.org/TR/2001/REC-SVG-20010904/DTD/svg10.dtd">
<svg version="1.0" xmlns="http://www.w3.org/2000/svg"
 width="67.000000pt" height="103.000000pt" viewBox="0 0 67.000000 103.000000"
 preserveAspectRatio="xMidYMid meet">
<metadata>
Created by potrace 1.14, written by Peter Selinger 2001-2017
</metadata>
<g transform="translate(0.000000,103.000000) scale(0.100000,-0.100000)"
fill="#000000" stroke="none">
<path fill="#000000" stroke="none" d="M496 1011 c-9 -10 -20 -31 -24 -46 -6
-21 -19 -32 -52 -44 -42 -15 -49 -24 -97 -111 -28 -52 -52 -103 -52 -112 -1
-9 -16 -28 -34 -42 -18 -14 -48 -45 -65 -70 l-32 -44 44 -15 c47 -16 86 -48
86 -70 0 -7 -7 -35 -16 -61 -12 -36 -40 -73 -109 -145 -51 -53 -104 -117 -118
-143 l-24 -46 44 -13 c25 -6 50 -20 56 -31 11 -17 75 -26 90 -12 9 10 -4 34
-19 34 -10 0 -14 12 -14 38 0 32 5 41 25 50 14 7 28 18 31 26 3 8 30 34 59 56
34 26 62 59 76 87 21 44 23 45 31 22 5 -13 8 -70 6 -127 l-3 -103 80 7 c44 4
82 8 84 10 3 2 -8 17 -24 34 l-28 29 8 122 7 123 39 46 c21 25 39 56 39 68 0
12 11 46 25 76 14 30 25 71 25 91 0 20 7 43 15 52 20 19 11 49 -26 88 l-28 30
24 24 c16 15 25 34 25 55 0 65 -112 114 -154 67z"/>
</g>
</svg>
