<?xml version="1.0" standalone="no"?>
<!DOCTYPE svg PUBLIC "-//W3C//DTD SVG 20010904//EN"
 "http://www.w3.org/TR/2001/REC-SVG-20010904/DTD/svg10.dtd">
<svg version="1.0" xmlns="http://www.w3.org/2000/svg"
 width="415.000000pt" height="557.000000pt" viewBox="0 0 415.000000 557.000000"
 preserveAspectRatio="xMidYMid meet">
<metadata>
Created by potrace 1.14, written by Peter Selinger 2001-2017
</metadata>
<g transform="translate(0.000000,557.000000) scale(0.100000,-0.100000)"
fill="#000000" stroke="none">
<path fill="#000000" stroke="none" d="M2288 5372 l-353 -194 -29 -97 c-17
-53 -109 -316 -207 -586 l-176 -490 -352 -175 c-193 -96 -353 -178 -356 -181
-2 -3 -147 -424 -320 -935 -297 -874 -321 -940 -407 -1116 l-92 -187 84 -393
c45 -216 87 -398 91 -404 5 -6 75 -16 156 -23 142 -12 403 -69 461 -100 11 -6
38 -11 58 -11 21 0 68 -10 105 -22 58 -19 68 -25 76 -51 7 -27 24 -38 148 -95
l140 -65 170 -8 c94 -5 257 -11 362 -13 l193 -6 -5 43 c-3 23 -14 161 -25 307
-11 146 -22 290 -25 320 l-6 55 21 -25 c12 -15 4 10 -21 61 l-42 87 41 47 c28
32 42 57 42 76 0 22 10 35 44 59 25 16 51 30 59 30 8 0 75 29 150 65 l137 65
302 58 303 58 85 -21 85 -21 22 -68 c23 -70 23 -86 -3 -86 -11 0 -13 -9 -8
-40 l7 -40 -34 0 c-19 0 -56 7 -82 15 -55 16 -117 6 -159 -27 -20 -16 -20 -17
-3 -12 20 6 -18 -32 -120 -117 -40 -34 -70 -78 -150 -218 -74 -131 -117 -194
-166 -246 -37 -38 -69 -79 -73 -90 -3 -11 -29 -45 -58 -75 -42 -46 -52 -52
-57 -37 -6 15 -14 12 -63 -26 l-57 -44 62 -45 c34 -25 104 -66 154 -92 85 -42
99 -46 165 -46 56 0 100 -9 191 -37 l117 -36 0 -37 0 -36 138 -22 c81 -13 181
-22 244 -22 l108 0 166 222 c92 123 173 228 180 234 7 6 110 35 229 65 l215
54 0 1712 0 1712 -114 88 -115 87 -191 521 -192 520 -95 125 -95 125 -353 51
-354 50 -353 -194z"/>
</g>
</svg>
