<?xml version="1.0" standalone="no"?>
<!DOCTYPE svg PUBLIC "-//W3C//DTD SVG 20010904//EN"
 "http://www.w3.org/TR/2001/REC-SVG-20010904/DTD/svg10.dtd">
<svg version="1.0" xmlns="http://www.w3.org/2000/svg"
 width="234.000000pt" height="357.000000pt" viewBox="0 0 234.000000 357.000000"
 preserveAspectRatio="xMidYMid meet">
<metadata>
Created by potrace 1.14, written by Peter Selinger 2001-2017
</metadata>
<g transform="translate(0.000000,357.000000) scale(0.100000,-0.100000)"
fill="#000000" stroke="none">
<path fill="#000000" stroke="none" d="M1280 3545 c-133 -21 -138 -23 -305
-108 -93 -47 -224 -119 -290 -159 l-120 -74 -120 -156 -120 -157 -38 -183 -38
-183 15 -420 c9 -231 16 -440 16 -465 l-1 -45 -128 -95 -128 -95 -7 -525 c-3
-289 -9 -604 -12 -701 l-7 -176 243 39 c134 21 251 44 259 51 9 8 84 73 168
145 l151 132 189 73 c103 41 206 80 228 87 22 7 45 16 50 20 6 4 36 17 67 29
l57 23 41 -32 c22 -17 126 -69 232 -115 l193 -84 219 -173 c120 -95 224 -176
231 -180 9 -5 6 26 -10 110 -12 64 -58 304 -100 532 l-78 415 -146 147 -145
147 3 98 c1 69 11 130 31 208 19 72 34 169 45 280 l15 170 -39 360 -39 360
-57 165 c-37 110 -80 209 -127 296 -70 129 -73 133 -158 198 -48 36 -91 65
-96 65 -5 -1 -70 -11 -144 -24z"/>
</g>
</svg>
