<?xml version="1.0" standalone="no"?>
<!DOCTYPE svg PUBLIC "-//W3C//DTD SVG 20010904//EN"
 "http://www.w3.org/TR/2001/REC-SVG-20010904/DTD/svg10.dtd">
<svg version="1.0" xmlns="http://www.w3.org/2000/svg"
 width="65.000000pt" height="97.000000pt" viewBox="0 0 65.000000 97.000000"
 preserveAspectRatio="xMidYMid meet">
<metadata>
Created by potrace 1.14, written by Peter Selinger 2001-2017
</metadata>
<g transform="translate(0.000000,97.000000) scale(0.100000,-0.100000)"
fill="#000000" stroke="none">
<path fill="#000000" stroke="none" d="M223 959 c-17 -3 -50 -21 -72 -39 l-41
-32 25 -20 c20 -16 23 -23 15 -39 -10 -18 -7 -19 37 -19 l48 0 -25 -20 c-14
-11 -34 -20 -45 -21 -14 -1 -10 -4 13 -11 28 -10 32 -15 32 -45 0 -44 -40 -83
-86 -83 -26 0 -38 -8 -62 -37 -46 -60 -54 -79 -44 -116 8 -29 1 -169 -13 -244
-3 -17 -1 -34 5 -38 17 -11 75 14 104 44 22 23 27 35 22 58 -8 34 10 206 25
244 16 42 44 48 124 28 38 -9 90 -20 114 -24 l44 -7 -7 33 c-3 19 -18 44 -32
55 l-27 22 17 48 c9 26 16 76 16 111 0 58 -3 66 -35 101 -38 43 -97 63 -152
51z"/>
<path fill="#000000" stroke="none" d="M490 118 c0 -25 28 -72 55 -92 41 -31
43 -32 78 -1 34 30 37 71 5 78 -38 9 -138 20 -138 15z"/>
</g>
</svg>
