<?xml version="1.0" standalone="no"?>
<!DOCTYPE svg PUBLIC "-//W3C//DTD SVG 20010904//EN"
 "http://www.w3.org/TR/2001/REC-SVG-20010904/DTD/svg10.dtd">
<svg version="1.0" xmlns="http://www.w3.org/2000/svg"
 width="33.000000pt" height="49.000000pt" viewBox="0 0 33.000000 49.000000"
 preserveAspectRatio="xMidYMid meet">
<metadata>
Created by potrace 1.14, written by Peter Selinger 2001-2017
</metadata>
<g transform="translate(0.000000,49.000000) scale(0.100000,-0.100000)"
fill="#000000" stroke="none">
<path fill="#000000" stroke="none" d="M128 431 c-117 -56 -117 -56 -123 -96
-8 -49 24 -182 62 -260 25 -50 29 -54 71 -60 24 -4 50 -9 57 -11 8 -4 18 9 25
33 7 21 25 61 41 90 16 28 38 75 48 105 l18 53 -38 99 c-21 54 -40 100 -41
101 -2 1 -56 -23 -120 -54z"/>
</g>
</svg>
