<?xml version="1.0" standalone="no"?>
<!DOCTYPE svg PUBLIC "-//W3C//DTD SVG 20010904//EN"
 "http://www.w3.org/TR/2001/REC-SVG-20010904/DTD/svg10.dtd">
<svg version="1.0" xmlns="http://www.w3.org/2000/svg"
 width="263.000000pt" height="371.000000pt" viewBox="0 0 263.000000 371.000000"
 preserveAspectRatio="xMidYMid meet">
<metadata>
Created by potrace 1.14, written by Peter Selinger 2001-2017
</metadata>
<g transform="translate(0.000000,371.000000) scale(0.100000,-0.100000)"
fill="#000000" stroke="none">
<path fill="#000000" stroke="none" d="M1996 3671 c-38 -38 -39 -39 -75 -26
-35 12 -37 12 -87 -30 -28 -24 -76 -56 -107 -71 l-57 -28 0 -68 c0 -64 -1 -68
-29 -83 -19 -9 -32 -25 -36 -46 -6 -26 -10 -30 -31 -25 -19 5 -24 3 -24 -14 0
-20 -1 -20 -50 5 l-50 25 29 -47 c27 -44 29 -52 21 -103 -25 -169 -30 -285
-15 -387 13 -91 13 -106 -2 -150 -22 -68 -64 -109 -116 -115 -69 -8 -159 -75
-254 -188 -46 -55 -88 -100 -94 -100 -6 0 -8 -4 -5 -9 4 -5 2 -11 -2 -13 -5
-1 -34 -41 -64 -88 -31 -47 -83 -114 -115 -150 -77 -85 -174 -211 -253 -330
-35 -52 -113 -149 -173 -215 -110 -122 -167 -212 -181 -287 -8 -41 25 -256 50
-328 9 -25 24 -90 33 -145 l17 -100 -163 -270 -163 -270 208 -6 c114 -3 313
-7 443 -8 l236 -1 151 188 c83 103 172 207 197 232 88 85 205 228 205 250 0
27 52 104 91 132 27 20 29 26 29 87 0 59 3 68 30 96 30 31 50 98 65 227 6 46
16 69 50 115 24 32 46 70 50 85 6 23 10 26 25 18 14 -7 20 -4 29 17 15 33 7
41 -19 18 -11 -10 -20 -16 -20 -13 0 4 39 194 86 424 68 336 84 428 79 467 -4
26 -4 73 0 105 l6 57 79 54 c75 51 81 53 109 41 51 -21 91 1 166 90 55 66 71
79 104 85 31 5 41 13 55 42 9 20 28 44 41 55 13 10 34 35 46 54 18 30 20 38 8
45 -46 28 -46 26 -7 66 l36 38 -19 38 c-11 21 -15 37 -9 37 13 0 80 52 80 61
0 4 -13 12 -30 19 -26 11 -30 18 -36 72 -5 46 -17 77 -55 139 -27 44 -49 91
-49 104 0 19 -10 30 -42 46 -55 27 -53 26 -37 45 13 16 10 17 -36 10 -84 -11
-317 -27 -322 -22 -3 3 -1 23 5 46 5 22 9 40 8 40 -1 0 -19 -18 -40 -39z"/>
<path fill="#000000" stroke="none" d="M1592 958 c-7 -7 -12 -28 -12 -47 1
-41 13 -26 23 27 7 36 6 37 -11 20z"/>
</g>
</svg>
