<?xml version="1.0" standalone="no"?>
<!DOCTYPE svg PUBLIC "-//W3C//DTD SVG 20010904//EN"
 "http://www.w3.org/TR/2001/REC-SVG-20010904/DTD/svg10.dtd">
<svg version="1.0" xmlns="http://www.w3.org/2000/svg"
 width="45.000000pt" height="65.000000pt" viewBox="0 0 45.000000 65.000000"
 preserveAspectRatio="xMidYMid meet">
<metadata>
Created by potrace 1.14, written by Peter Selinger 2001-2017
</metadata>
<g transform="translate(0.000000,65.000000) scale(0.100000,-0.100000)"
fill="#000000" stroke="none">
<path fill="#000000" stroke="none" d="M112 585 c-24 -50 -32 -79 -32 -120 0
-55 0 -55 -40 -71 l-40 -16 0 -74 c0 -44 6 -90 15 -111 9 -20 15 -66 15 -108
l0 -73 116 -7 c63 -4 117 -5 119 -3 3 2 11 37 20 78 9 41 17 75 19 77 2 2 34
-4 71 -12 37 -9 69 -14 71 -12 3 2 -12 68 -32 146 l-37 142 -44 10 -43 11 0
83 0 83 -34 21 c-19 12 -50 21 -73 21 -38 0 -39 -2 -71 -65z"/>
</g>
</svg>
