<?xml version="1.0" standalone="no"?>
<!DOCTYPE svg PUBLIC "-//W3C//DTD SVG 20010904//EN"
 "http://www.w3.org/TR/2001/REC-SVG-20010904/DTD/svg10.dtd">
<svg version="1.0" xmlns="http://www.w3.org/2000/svg"
 width="187.000000pt" height="271.000000pt" viewBox="0 0 187.000000 271.000000"
 preserveAspectRatio="xMidYMid meet">
<metadata>
Created by potrace 1.14, written by Peter Selinger 2001-2017
</metadata>
<g transform="translate(0.000000,271.000000) scale(0.100000,-0.100000)"
fill="#000000" stroke="none">
<path fill="#000000" stroke="none" d="M591 2666 l-275 -42 -38 -179 c-20 -99
-37 -191 -38 -203 0 -13 14 -43 31 -67 l31 -44 -142 -183 c-79 -101 -147 -188
-151 -194 -5 -6 41 -126 108 -285 l117 -274 184 -245 c109 -146 192 -248 205
-252 12 -3 93 -14 180 -24 86 -9 157 -18 157 -20 0 -4 -379 -604 -391 -620 -6
-8 89 -14 332 -24 187 -7 342 -10 345 -7 3 2 -16 17 -42 31 -76 43 -304 190
-304 198 0 3 119 149 265 324 l265 318 0 86 0 85 -213 79 c-116 44 -220 83
-231 89 -16 8 -8 19 70 98 48 48 86 90 83 92 -2 2 -29 27 -60 54 l-57 51 52 6
c28 3 142 13 252 22 l202 16 97 -46 c54 -25 102 -46 107 -46 18 0 139 105 126
109 -7 2 -88 30 -180 62 -93 32 -272 83 -400 113 -227 53 -236 56 -371 127
-77 40 -141 78 -143 84 -3 6 20 103 50 216 l53 205 73 101 c40 56 72 104 72
108 -1 9 -131 125 -140 124 -4 -1 -130 -20 -281 -43z"/>
</g>
</svg>
