<?xml version="1.0" standalone="no"?>
<!DOCTYPE svg PUBLIC "-//W3C//DTD SVG 20010904//EN"
 "http://www.w3.org/TR/2001/REC-SVG-20010904/DTD/svg10.dtd">
<svg version="1.0" xmlns="http://www.w3.org/2000/svg"
 width="42.000000pt" height="57.000000pt" viewBox="0 0 42.000000 57.000000"
 preserveAspectRatio="xMidYMid meet">
<metadata>
Created by potrace 1.14, written by Peter Selinger 2001-2017
</metadata>
<g transform="translate(0.000000,57.000000) scale(0.100000,-0.100000)"
fill="#000000" stroke="none">
<path fill="#000000" stroke="none" d="M170 564 c0 -3 39 -82 86 -175 78 -153
88 -168 103 -156 9 8 26 18 37 21 28 8 21 41 -12 63 -13 8 -24 21 -24 27 0 7
-13 25 -30 41 -16 16 -30 34 -30 40 0 6 -16 27 -36 46 -20 18 -40 44 -44 56
-8 20 -50 52 -50 37z"/>
<path fill="#000000" stroke="none" d="M70 531 c-19 -36 -11 -79 20 -115 l30
-34 -30 -30 c-16 -17 -30 -37 -30 -45 0 -9 -14 -29 -30 -45 -37 -38 -39 -74
-5 -133 14 -24 34 -63 46 -87 20 -41 49 -57 49 -26 0 9 9 18 20 21 24 6 33 33
22 64 -8 21 -5 27 31 51 37 25 42 26 53 10 12 -16 13 -15 21 6 7 18 -9 58 -82
202 -49 99 -93 180 -97 180 -4 0 -12 -9 -18 -19z"/>
</g>
</svg>
