<?xml version="1.0" standalone="no"?>
<!DOCTYPE svg PUBLIC "-//W3C//DTD SVG 20010904//EN"
 "http://www.w3.org/TR/2001/REC-SVG-20010904/DTD/svg10.dtd">
<svg version="1.0" xmlns="http://www.w3.org/2000/svg"
 width="151.000000pt" height="214.000000pt" viewBox="0 0 151.000000 214.000000"
 preserveAspectRatio="xMidYMid meet">
<metadata>
Created by potrace 1.14, written by Peter Selinger 2001-2017
</metadata>
<g transform="translate(0.000000,214.000000) scale(0.100000,-0.100000)"
fill="#000000" stroke="none">
<path fill="#000000" stroke="none" d="M104 2038 l-102 -103 32 -85 c40 -106
101 -197 157 -234 38 -26 46 -27 74 -17 54 19 97 13 121 -17 l21 -27 -49 -180
c-43 -160 -161 -585 -173 -625 -3 -10 10 -23 38 -39 l44 -24 68 47 c49 32 71
42 76 33 4 -6 53 -136 109 -287 56 -151 103 -277 106 -281 2 -4 -14 -19 -37
-32 -22 -13 -40 -28 -39 -32 3 -12 -53 -45 -76 -45 -12 0 -43 -10 -70 -22
l-49 -22 103 -25 104 -24 179 179 178 179 -100 229 c-55 126 -96 232 -92 236
4 4 77 22 162 39 196 41 489 142 547 189 l41 33 17 166 17 165 -23 26 c-13 15
-80 87 -150 162 l-127 135 -178 67 -178 68 -163 6 -163 7 -59 117 -59 117 -63
7 c-35 4 -81 9 -103 12 -40 5 -41 4 -141 -98z"/>
</g>
</svg>
