<?xml version="1.0" standalone="no"?>
<!DOCTYPE svg PUBLIC "-//W3C//DTD SVG 20010904//EN"
 "http://www.w3.org/TR/2001/REC-SVG-20010904/DTD/svg10.dtd">
<svg version="1.0" xmlns="http://www.w3.org/2000/svg"
 width="91.000000pt" height="130.000000pt" viewBox="0 0 91.000000 130.000000"
 preserveAspectRatio="xMidYMid meet">
<metadata>
Created by potrace 1.14, written by Peter Selinger 2001-2017
</metadata>
<g transform="translate(0.000000,130.000000) scale(0.100000,-0.100000)"
fill="#000000" stroke="none">
<path fill="#000000" stroke="none" d="M863 1278 c-53 -59 -61 -158 -22 -259
l18 -46 -27 -26 c-15 -14 -51 -39 -80 -55 -45 -25 -142 -120 -142 -140 0 -4
11 -24 25 -44 14 -20 25 -39 25 -42 0 -3 -47 28 -105 70 -58 42 -105 82 -105
90 0 7 23 80 51 161 28 81 52 157 55 168 3 15 -10 31 -50 62 l-53 43 -117 -24
c-64 -13 -119 -25 -121 -27 -6 -6 41 -217 59 -268 9 -24 16 -70 16 -102 l0
-58 -37 -10 c-21 -6 -83 -23 -138 -38 l-100 -28 -8 -225 -9 -224 44 -39 c78
-69 58 -65 371 -73 l287 -7 1 44 c0 36 2 40 9 22 10 -24 39 -43 67 -43 35 -1
67 -38 89 -102 l21 -63 6 205 c4 113 9 406 12 653 7 480 7 478 -42 425z"/>
</g>
</svg>
