<?xml version="1.0" standalone="no"?>
<!DOCTYPE svg PUBLIC "-//W3C//DTD SVG 20010904//EN"
 "http://www.w3.org/TR/2001/REC-SVG-20010904/DTD/svg10.dtd">
<svg version="1.0" xmlns="http://www.w3.org/2000/svg"
 width="9.000000pt" height="13.000000pt" viewBox="0 0 9.000000 13.000000"
 preserveAspectRatio="xMidYMid meet">
<metadata>
Created by potrace 1.14, written by Peter Selinger 2001-2017
</metadata>
<g transform="translate(0.000000,13.000000) scale(0.100000,-0.100000)"
fill="#000000" stroke="none">
<path fill="#000000" stroke="none" d="M20 116 c0 -8 -5 -16 -12 -18 -16 -6
-1 -58 17 -58 7 0 21 -10 29 -22 19 -27 35 -15 17 14 -11 18 -11 20 3 15 23
-9 20 16 -4 31 -11 7 -20 21 -20 32 0 11 -7 20 -15 20 -8 0 -15 -6 -15 -14z"/>
</g>
</svg>
