<?xml version="1.0" standalone="no"?>
<!DOCTYPE svg PUBLIC "-//W3C//DTD SVG 20010904//EN"
 "http://www.w3.org/TR/2001/REC-SVG-20010904/DTD/svg10.dtd">
<svg version="1.0" xmlns="http://www.w3.org/2000/svg"
 width="134.000000pt" height="197.000000pt" viewBox="0 0 134.000000 197.000000"
 preserveAspectRatio="xMidYMid meet">
<metadata>
Created by potrace 1.14, written by Peter Selinger 2001-2017
</metadata>
<g transform="translate(0.000000,197.000000) scale(0.100000,-0.100000)"
fill="#000000" stroke="none">
<path fill="#000000" stroke="none" d="M343 1958 l-63 -10 -55 -75 c-30 -42
-55 -81 -55 -88 0 -7 21 -79 46 -159 25 -81 44 -159 42 -173 -4 -33 -26 -41
-124 -42 -63 -1 -73 2 -94 24 -22 24 -25 24 -31 8 -18 -45 -9 -80 37 -139 25
-32 50 -63 55 -68 5 -6 66 -17 137 -26 l128 -16 74 81 75 81 7 -95 c5 -75 2
-121 -13 -211 -11 -63 -26 -193 -34 -288 -13 -157 -18 -186 -56 -300 l-42
-127 11 -104 10 -104 49 -49 c58 -60 66 -64 123 -73 l45 -6 83 138 82 139 0
91 c0 146 32 407 72 598 l11 50 24 -70 c13 -38 37 -128 54 -200 27 -119 29
-140 23 -245 -4 -69 -2 -153 5 -210 11 -91 14 -97 51 -134 l38 -39 64 27 65
28 31 186 c41 244 46 337 32 568 -13 220 -10 247 51 451 53 178 52 215 -7 376
l-45 125 -67 0 c-144 1 -374 25 -536 58 -178 36 -202 37 -303 22z"/>
</g>
</svg>
