<?xml version="1.0" standalone="no"?>
<!DOCTYPE svg PUBLIC "-//W3C//DTD SVG 20010904//EN"
 "http://www.w3.org/TR/2001/REC-SVG-20010904/DTD/svg10.dtd">
<svg version="1.0" xmlns="http://www.w3.org/2000/svg"
 width="36.000000pt" height="50.000000pt" viewBox="0 0 36.000000 50.000000"
 preserveAspectRatio="xMidYMid meet">
<metadata>
Created by potrace 1.14, written by Peter Selinger 2001-2017
</metadata>
<g transform="translate(0.000000,50.000000) scale(0.100000,-0.100000)"
fill="#000000" stroke="none">
<path fill="#000000" stroke="none" d="M160 480 c-11 -11 -20 -27 -20 -35 0
-8 -8 -23 -18 -33 -47 -47 -66 -86 -67 -137 0 -29 -5 -59 -12 -66 -6 -8 -13
-47 -15 -87 -2 -49 -8 -76 -18 -82 -21 -13 -8 -21 44 -25 26 -2 55 -7 66 -10
16 -5 20 -2 20 19 0 14 3 26 8 26 20 0 122 114 165 184 26 43 47 81 47 85 0
13 -75 79 -97 86 -13 3 -23 14 -23 25 0 32 -22 70 -42 70 -10 0 -27 -9 -38
-20z"/>
<path fill="#ffffff" stroke="none" d="M159 134 c-15 -18 -79 -19 -79 -1 0 21
6 23 50 19 33 -3 39 -7 29 -18z"/>
</g>
</svg>
