<?xml version="1.0" standalone="no"?>
<!DOCTYPE svg PUBLIC "-//W3C//DTD SVG 20010904//EN"
 "http://www.w3.org/TR/2001/REC-SVG-20010904/DTD/svg10.dtd">
<svg version="1.0" xmlns="http://www.w3.org/2000/svg"
 width="23.000000pt" height="31.000000pt" viewBox="0 0 23.000000 31.000000"
 preserveAspectRatio="xMidYMid meet">
<metadata>
Created by potrace 1.14, written by Peter Selinger 2001-2017
</metadata>
<g transform="translate(0.000000,31.000000) scale(0.100000,-0.100000)"
fill="#000000" stroke="none">
<path fill="#000000" stroke="none" d="M92 298 c-7 -7 -12 -22 -12 -34 0 -13
-10 -30 -21 -38 -42 -29 -59 -67 -59 -133 0 -60 12 -89 24 -57 3 9 6 33 6 54
0 23 6 43 17 51 15 13 15 10 9 -36 -4 -28 -9 -62 -12 -76 -5 -25 -4 -25 56
-25 59 1 60 1 60 29 0 17 14 47 35 74 19 25 35 50 35 54 0 5 -18 27 -40 49
-24 24 -40 49 -40 64 0 32 -35 47 -58 24z"/>
</g>
</svg>
