<?xml version="1.0" standalone="no"?>
<!DOCTYPE svg PUBLIC "-//W3C//DTD SVG 20010904//EN"
 "http://www.w3.org/TR/2001/REC-SVG-20010904/DTD/svg10.dtd">
<svg version="1.0" xmlns="http://www.w3.org/2000/svg"
 width="68.000000pt" height="103.000000pt" viewBox="0 0 68.000000 103.000000"
 preserveAspectRatio="xMidYMid meet">
<metadata>
Created by potrace 1.14, written by Peter Selinger 2001-2017
</metadata>
<g transform="translate(0.000000,103.000000) scale(0.100000,-0.100000)"
fill="#000000" stroke="none">
<path fill="#000000" stroke="none" d="M360 1019 c-36 -3 -73 -10 -82 -14 -10
-4 -37 -45 -62 -91 -47 -87 -55 -132 -30 -169 8 -11 14 -22 14 -26 0 -3 -37
-24 -82 -47 -134 -66 -135 -68 -42 -75 43 -4 134 -9 202 -13 l122 -7 1 -116
c0 -64 4 -140 8 -168 7 -47 5 -53 -12 -59 -17 -5 -19 -13 -13 -83 4 -42 9 -93
12 -114 l6 -37 56 0 c32 0 74 3 95 6 35 6 37 9 37 42 0 19 20 86 45 148 45
111 45 113 35 181 -14 95 -13 200 2 205 10 4 -201 390 -235 430 -9 11 -27 12
-77 7z"/>
</g>
</svg>
