<?xml version="1.0" standalone="no"?>
<!DOCTYPE svg PUBLIC "-//W3C//DTD SVG 20010904//EN"
 "http://www.w3.org/TR/2001/REC-SVG-20010904/DTD/svg10.dtd">
<svg version="1.0" xmlns="http://www.w3.org/2000/svg"
 width="17.000000pt" height="25.000000pt" viewBox="0 0 17.000000 25.000000"
 preserveAspectRatio="xMidYMid meet">
<metadata>
Created by potrace 1.14, written by Peter Selinger 2001-2017
</metadata>
<g transform="translate(0.000000,25.000000) scale(0.100000,-0.100000)"
fill="#000000" stroke="none">
<path fill="#000000" stroke="none" d="M52 222 c-20 -27 -20 -29 -2 -79 10
-29 20 -56 23 -60 3 -5 -12 -20 -34 -33 -21 -14 -39 -28 -39 -32 0 -20 27 -15
95 16 l76 35 -7 83 c-4 46 -12 86 -18 90 -6 4 -25 8 -43 8 -23 0 -37 -7 -51
-28z"/>
</g>
</svg>
