<?xml version="1.0" standalone="no"?>
<!DOCTYPE svg PUBLIC "-//W3C//DTD SVG 20010904//EN"
 "http://www.w3.org/TR/2001/REC-SVG-20010904/DTD/svg10.dtd">
<svg version="1.0" xmlns="http://www.w3.org/2000/svg"
 width="159.000000pt" height="237.000000pt" viewBox="0 0 159.000000 237.000000"
 preserveAspectRatio="xMidYMid meet">
<metadata>
Created by potrace 1.14, written by Peter Selinger 2001-2017
</metadata>
<g transform="translate(0.000000,237.000000) scale(0.100000,-0.100000)"
fill="#000000" stroke="none">
<path fill="#000000" stroke="none" d="M1033 2340 c-34 -15 -87 -48 -117 -72
l-55 -43 0 -64 c-1 -102 -29 -140 -165 -227 -61 -40 -172 -104 -246 -145 -254
-137 -369 -228 -413 -327 -54 -123 -43 -152 61 -163 158 -18 165 -17 304 65
151 89 296 185 322 215 11 11 24 21 30 21 10 0 47 -210 46 -261 0 -12 -13 -19
-43 -23 -26 -4 -64 -22 -99 -46 l-56 -40 -7 -131 c-6 -106 -5 -133 6 -140 26
-16 171 -10 238 11 36 11 66 18 66 17 1 -1 39 -56 85 -122 l83 -120 -11 -111
c-7 -61 -12 -148 -12 -192 0 -71 -5 -93 -41 -184 -37 -94 -40 -108 -34 -165
l6 -62 52 -10 c29 -5 78 -13 110 -16 56 -6 57 -6 57 19 0 14 8 47 19 73 10 26
22 68 26 93 4 25 31 139 61 255 29 116 60 255 68 311 12 81 25 122 64 205 41
89 53 128 81 279 18 96 42 198 52 226 18 47 19 64 10 169 -5 64 -11 119 -14
121 -3 3 -80 56 -171 118 l-165 113 45 44 46 44 -4 67 c-3 63 -6 70 -43 108
-31 32 -134 100 -175 117 -3 1 -33 -11 -67 -27z"/>
</g>
</svg>
