<?xml version="1.0" standalone="no"?>
<!DOCTYPE svg PUBLIC "-//W3C//DTD SVG 20010904//EN"
 "http://www.w3.org/TR/2001/REC-SVG-20010904/DTD/svg10.dtd">
<svg version="1.0" xmlns="http://www.w3.org/2000/svg"
 width="72.000000pt" height="102.000000pt" viewBox="0 0 72.000000 102.000000"
 preserveAspectRatio="xMidYMid meet">
<metadata>
Created by potrace 1.14, written by Peter Selinger 2001-2017
</metadata>
<g transform="translate(0.000000,102.000000) scale(0.100000,-0.100000)"
fill="#000000" stroke="none">
<path fill="#000000" stroke="none" d="M330 962 c-63 -32 -137 -71 -163 -87
-46 -29 -48 -32 -42 -65 9 -48 38 -103 61 -115 19 -10 15 -25 -83 -340 -57
-181 -103 -333 -103 -336 0 -4 11 -10 24 -13 29 -7 98 22 145 62 l35 29 -58
37 c-42 27 -56 41 -52 54 3 9 41 116 85 237 l79 220 93 1 c52 0 103 4 114 7
15 5 42 -7 94 -38 l73 -46 44 26 44 26 0 62 c0 34 -9 94 -21 132 l-21 70 -113
68 c-62 37 -115 67 -117 66 -2 0 -55 -26 -118 -57z"/>
</g>
</svg>
