<?xml version="1.0" standalone="no"?>
<!DOCTYPE svg PUBLIC "-//W3C//DTD SVG 20010904//EN"
 "http://www.w3.org/TR/2001/REC-SVG-20010904/DTD/svg10.dtd">
<svg version="1.0" xmlns="http://www.w3.org/2000/svg"
 width="331.000000pt" height="455.000000pt" viewBox="0 0 331.000000 455.000000"
 preserveAspectRatio="xMidYMid meet">
<metadata>
Created by potrace 1.14, written by Peter Selinger 2001-2017
</metadata>
<g transform="translate(0.000000,455.000000) scale(0.100000,-0.100000)"
fill="#000000" stroke="none">
<path fill="#000000" stroke="none" d="M1375 4526 c-104 -33 -219 -97 -319
-179 -89 -72 -90 -73 -172 -227 l-82 -155 -11 -232 -12 -233 -65 -146 c-36
-81 -63 -148 -61 -150 2 -2 23 3 47 11 23 8 44 15 46 15 2 0 4 -24 4 -53 0
-45 -11 -78 -71 -208 -39 -85 -88 -199 -109 -254 l-39 -100 -53 -7 c-29 -3
-75 -7 -103 -8 l-50 -2 -104 -116 c-89 -100 -112 -133 -157 -227 l-52 -110 -7
-262 c-3 -145 -4 -263 -1 -263 25 0 80 43 189 147 70 67 139 126 152 129 14 4
39 4 55 0 26 -5 33 0 62 39 31 41 36 44 79 45 34 0 53 6 71 23 14 13 29 22 35
20 5 -2 45 10 87 26 l77 30 72 -76 c40 -41 77 -84 83 -94 13 -26 24 -14 24 28
0 28 3 33 18 29 104 -30 138 -37 163 -34 27 4 29 2 29 -28 0 -34 13 -44 56
-44 34 0 30 -14 -12 -46 -30 -23 -35 -32 -32 -63 3 -35 5 -36 48 -41 44 -5 45
-5 52 -50 4 -25 10 -70 13 -101 5 -46 13 -65 42 -99 29 -33 33 -44 22 -50 -11
-7 -10 -17 8 -54 22 -45 29 -49 95 -61 29 -4 42 -13 54 -36 14 -29 14 -32 -3
-44 -10 -8 -30 -19 -45 -26 l-28 -11 51 -42 51 -41 -36 -3 c-20 -2 -36 -9 -36
-15 0 -7 14 -55 31 -107 17 -52 32 -101 35 -108 3 -10 20 -4 65 20 52 28 75
52 160 160 55 70 144 196 199 281 l100 153 0 112 c0 108 1 113 34 174 19 35
42 93 52 131 16 65 19 70 104 147 l88 80 100 0 101 0 93 -66 93 -65 59 -117
c32 -64 78 -172 102 -240 l44 -123 0 -162 c0 -89 7 -227 15 -307 21 -212 19
-414 -7 -628 -21 -179 -21 -187 -5 -290 10 -58 18 -107 20 -108 1 -1 75 -4
165 -7 l162 -5 0 496 0 497 -61 525 c-33 289 -64 534 -69 545 -4 11 -120 151
-255 310 -183 214 -278 336 -365 465 -64 96 -144 210 -178 252 -34 42 -88 130
-120 195 l-60 118 22 121 22 122 -84 231 -85 231 -125 148 c-108 128 -136 155
-216 206 -80 53 -100 61 -171 72 -104 17 -107 16 -190 -10z"/>
</g>
</svg>
