<?xml version="1.0" standalone="no"?>
<!DOCTYPE svg PUBLIC "-//W3C//DTD SVG 20010904//EN"
 "http://www.w3.org/TR/2001/REC-SVG-20010904/DTD/svg10.dtd">
<svg version="1.0" xmlns="http://www.w3.org/2000/svg"
 width="41.000000pt" height="63.000000pt" viewBox="0 0 41.000000 63.000000"
 preserveAspectRatio="xMidYMid meet">
<metadata>
Created by potrace 1.14, written by Peter Selinger 2001-2017
</metadata>
<g transform="translate(0.000000,63.000000) scale(0.100000,-0.100000)"
fill="#000000" stroke="none">
<path fill="#000000" stroke="none" d="M0 619 c0 -8 10 -59 22 -114 21 -99 28
-112 98 -197 l31 -37 -65 -38 -65 -38 6 -40 c3 -22 9 -44 13 -48 4 -4 33 3 65
17 l57 26 -17 -27 c-10 -14 -26 -40 -36 -58 l-19 -31 65 -17 65 -18 54 40 53
40 21 113 c69 374 70 376 42 418 -13 21 -390 30 -390 9z"/>
</g>
</svg>
