<?xml version="1.0" standalone="no"?>
<!DOCTYPE svg PUBLIC "-//W3C//DTD SVG 20010904//EN"
 "http://www.w3.org/TR/2001/REC-SVG-20010904/DTD/svg10.dtd">
<svg version="1.0" xmlns="http://www.w3.org/2000/svg"
 width="72.000000pt" height="110.000000pt" viewBox="0 0 72.000000 110.000000"
 preserveAspectRatio="xMidYMid meet">
<metadata>
Created by potrace 1.14, written by Peter Selinger 2001-2017
</metadata>
<g transform="translate(0.000000,110.000000) scale(0.100000,-0.100000)"
fill="#000000" stroke="none">
<path fill="#000000" stroke="none" d="M486 1090 c-16 -5 -41 -24 -56 -42 -15
-18 -43 -39 -61 -45 -19 -7 -79 -42 -134 -78 -79 -52 -114 -83 -163 -145 l-63
-79 -6 -84 c-3 -48 -1 -98 5 -118 5 -19 13 -47 17 -63 6 -28 7 -28 60 -21 47
5 64 3 111 -19 l55 -25 -29 -43 c-16 -24 -50 -66 -74 -93 -69 -78 -88 -110
-88 -148 0 -33 3 -37 58 -62 64 -30 127 -29 149 1 11 15 9 22 -14 47 l-28 30
27 -5 c23 -4 32 1 55 34 42 62 56 68 159 68 88 0 94 1 113 26 20 26 17 53 -9
69 -6 3 -10 51 -10 108 l0 102 49 18 c50 17 81 48 100 100 14 36 -11 43 -46
13 -16 -13 -47 -33 -71 -45 l-43 -22 -14 35 c-8 20 -15 40 -15 45 0 5 -16 15
-35 23 l-35 14 41 59 41 60 45 -4 c37 -3 45 0 41 11 -4 8 9 46 28 84 18 38 34
77 34 87 0 30 -29 77 -49 77 -10 0 -30 9 -44 20 -27 21 -54 24 -101 10z"/>
</g>
</svg>
