<?xml version="1.0" standalone="no"?>
<!DOCTYPE svg PUBLIC "-//W3C//DTD SVG 20010904//EN"
 "http://www.w3.org/TR/2001/REC-SVG-20010904/DTD/svg10.dtd">
<svg version="1.0" xmlns="http://www.w3.org/2000/svg"
 width="31.000000pt" height="42.000000pt" viewBox="0 0 31.000000 42.000000"
 preserveAspectRatio="xMidYMid meet">
<metadata>
Created by potrace 1.14, written by Peter Selinger 2001-2017
</metadata>
<g transform="translate(0.000000,42.000000) scale(0.100000,-0.100000)"
fill="#000000" stroke="none">
<path fill="#000000" stroke="none" d="M62 413 c-35 -5 -62 -42 -62 -88 0 -21
5 -25 30 -25 25 0 33 -7 51 -42 26 -50 21 -109 -11 -143 -27 -29 -26 -34 28
-79 l43 -36 39 20 c36 18 41 19 76 4 61 -26 67 -3 13 54 -25 26 -56 62 -69 81
l-23 33 22 44 c23 49 27 94 10 126 -10 19 -84 59 -104 56 -5 -1 -25 -3 -43 -5z"/>
</g>
</svg>
