<?xml version="1.0" standalone="no"?>
<!DOCTYPE svg PUBLIC "-//W3C//DTD SVG 20010904//EN"
 "http://www.w3.org/TR/2001/REC-SVG-20010904/DTD/svg10.dtd">
<svg version="1.0" xmlns="http://www.w3.org/2000/svg"
 width="174.000000pt" height="245.000000pt" viewBox="0 0 174.000000 245.000000"
 preserveAspectRatio="xMidYMid meet">
<metadata>
Created by potrace 1.14, written by Peter Selinger 2001-2017
</metadata>
<g transform="translate(0.000000,245.000000) scale(0.100000,-0.100000)"
fill="#000000" stroke="none">
<path fill="#000000" stroke="none" d="M493 2398 c-27 -65 -32 -210 -10 -308
17 -78 13 -86 -70 -145 -68 -48 -189 -183 -283 -315 -60 -85 -69 -104 -83
-175 -9 -44 -21 -109 -29 -145 -20 -100 -14 -246 17 -460 l28 -195 59 -107
c50 -89 75 -121 159 -203 54 -53 99 -102 99 -110 0 -8 9 -13 20 -12 11 1 20 5
20 9 0 14 27 9 40 -7 7 -8 8 -15 3 -15 -6 0 -23 -28 -38 -62 -27 -60 -33 -93
-20 -107 4 -3 133 -13 288 -22 l282 -16 106 44 106 44 -24 112 c-12 62 -27
168 -33 236 l-10 125 45 77 44 76 -14 94 c-8 52 -46 227 -85 389 -38 162 -70
300 -70 306 0 13 167 145 280 221 41 28 138 109 215 180 157 146 163 156 188
315 13 87 13 88 -9 109 l-23 21 -86 -78 c-47 -44 -102 -105 -122 -138 -29 -47
-52 -69 -125 -117 -96 -63 -101 -64 -211 -50 -49 7 -95 5 -160 -5 -137 -21
-127 -25 -110 54 9 43 13 109 11 182 -3 114 -4 117 -36 157 -46 59 -118 86
-242 91 l-96 4 -21 -54z"/>
</g>
</svg>
