<?xml version="1.0" standalone="no"?>
<!DOCTYPE svg PUBLIC "-//W3C//DTD SVG 20010904//EN"
 "http://www.w3.org/TR/2001/REC-SVG-20010904/DTD/svg10.dtd">
<svg version="1.0" xmlns="http://www.w3.org/2000/svg"
 width="15.000000pt" height="22.000000pt" viewBox="0 0 15.000000 22.000000"
 preserveAspectRatio="xMidYMid meet">
<metadata>
Created by potrace 1.14, written by Peter Selinger 2001-2017
</metadata>
<g transform="translate(0.000000,22.000000) scale(0.100000,-0.100000)"
fill="#000000" stroke="none">
<path fill="#000000" stroke="none" d="M37 213 c-11 -11 -8 -68 5 -81 9 -9 6
-18 -15 -40 -18 -19 -27 -39 -27 -60 0 -30 2 -32 35 -32 22 0 38 6 41 15 4 8
14 15 24 15 35 0 50 12 50 40 0 20 -6 31 -20 35 -15 5 -20 15 -20 41 0 20 -5
44 -10 55 -10 18 -50 26 -63 12z"/>
</g>
</svg>
