<?xml version="1.0" standalone="no"?>
<!DOCTYPE svg PUBLIC "-//W3C//DTD SVG 20010904//EN"
 "http://www.w3.org/TR/2001/REC-SVG-20010904/DTD/svg10.dtd">
<svg version="1.0" xmlns="http://www.w3.org/2000/svg"
 width="82.000000pt" height="120.000000pt" viewBox="0 0 82.000000 120.000000"
 preserveAspectRatio="xMidYMid meet">
<metadata>
Created by potrace 1.14, written by Peter Selinger 2001-2017
</metadata>
<g transform="translate(0.000000,120.000000) scale(0.100000,-0.100000)"
fill="#000000" stroke="none">
<path fill="#000000" stroke="none" d="M499 1171 c-24 -25 -29 -37 -29 -80 0
-44 3 -52 26 -64 24 -13 21 -15 -93 -59 -65 -26 -145 -54 -178 -63 -33 -9 -69
-20 -80 -25 -11 -5 -42 -11 -69 -14 -57 -7 -78 -21 -74 -50 2 -16 9 -20 28
-18 14 1 45 4 70 7 25 2 72 9 105 16 42 8 83 9 130 3 64 -8 71 -12 84 -39 8
-16 15 -54 15 -82 l1 -53 105 0 c101 0 161 9 206 31 17 9 23 24 28 72 4 39 14
73 27 90 14 20 18 36 14 55 -6 28 -86 122 -103 122 -15 0 -38 41 -46 82 -4 21
-18 51 -32 68 -36 42 -93 42 -135 1z"/>
<path fill="#000000" stroke="none" d="M452 558 c6 -35 6 -104 -2 -206 -6 -85
-10 -193 -9 -241 2 -48 0 -92 -5 -99 -5 -9 8 -12 52 -12 l59 0 -4 123 c-4 96
-1 140 14 207 l20 85 17 -33 c10 -19 19 -32 22 -29 7 6 25 219 20 225 -6 6
-141 31 -172 31 -20 1 -21 -2 -12 -51z"/>
</g>
</svg>
