<?xml version="1.0" standalone="no"?>
<!DOCTYPE svg PUBLIC "-//W3C//DTD SVG 20010904//EN"
 "http://www.w3.org/TR/2001/REC-SVG-20010904/DTD/svg10.dtd">
<svg version="1.0" xmlns="http://www.w3.org/2000/svg"
 width="21.000000pt" height="30.000000pt" viewBox="0 0 21.000000 30.000000"
 preserveAspectRatio="xMidYMid meet">
<metadata>
Created by potrace 1.14, written by Peter Selinger 2001-2017
</metadata>
<g transform="translate(0.000000,30.000000) scale(0.100000,-0.100000)"
fill="#000000" stroke="none">
<path fill="#000000" stroke="none" d="M86 245 c-20 -39 -27 -64 -23 -87 4
-26 -2 -43 -30 -81 -21 -28 -33 -54 -29 -63 7 -18 26 -14 36 7 44 93 62 99 85
30 12 -37 22 -51 35 -51 26 0 34 17 11 25 -14 4 -20 18 -24 58 -3 29 -8 62
-12 74 -6 19 -2 23 21 28 55 13 60 17 27 27 -30 8 -33 12 -33 48 0 60 -28 53
-64 -15z"/>
</g>
</svg>
