<?xml version="1.0" standalone="no"?>
<!DOCTYPE svg PUBLIC "-//W3C//DTD SVG 20010904//EN"
 "http://www.w3.org/TR/2001/REC-SVG-20010904/DTD/svg10.dtd">
<svg version="1.0" xmlns="http://www.w3.org/2000/svg"
 width="157.000000pt" height="238.000000pt" viewBox="0 0 157.000000 238.000000"
 preserveAspectRatio="xMidYMid meet">
<metadata>
Created by potrace 1.14, written by Peter Selinger 2001-2017
</metadata>
<g transform="translate(0.000000,238.000000) scale(0.100000,-0.100000)"
fill="#000000" stroke="none">
<path fill="#000000" stroke="none" d="M1063 2326 c-53 -31 -121 -83 -173
-133 -80 -76 -87 -86 -117 -170 -18 -48 -42 -126 -53 -173 -44 -179 -28 -156
-148 -212 -59 -28 -159 -82 -222 -121 -97 -59 -129 -86 -207 -171 -50 -56
-104 -116 -119 -135 l-28 -33 75 -589 c40 -324 76 -589 79 -589 3 0 19 52 35
116 17 64 35 122 40 129 6 7 107 33 225 58 212 45 217 46 335 38 100 -6 133
-13 200 -39 120 -48 163 -45 311 21 l119 54 52 95 c49 91 53 103 78 258 l27
162 -21 156 c-11 87 -25 233 -30 327 -9 166 -8 173 21 329 l30 159 -47 166
c-25 91 -50 175 -54 187 -5 11 -38 46 -73 77 -64 56 -66 57 -156 70 l-92 14
-87 -51z"/>
</g>
</svg>
