<?xml version="1.0" standalone="no"?>
<!DOCTYPE svg PUBLIC "-//W3C//DTD SVG 20010904//EN"
 "http://www.w3.org/TR/2001/REC-SVG-20010904/DTD/svg10.dtd">
<svg version="1.0" xmlns="http://www.w3.org/2000/svg"
 width="295.000000pt" height="426.000000pt" viewBox="0 0 295.000000 426.000000"
 preserveAspectRatio="xMidYMid meet">
<metadata>
Created by potrace 1.14, written by Peter Selinger 2001-2017
</metadata>
<g transform="translate(0.000000,426.000000) scale(0.100000,-0.100000)"
fill="#000000" stroke="none">
<path fill="#000000" stroke="none" d="M1505 4210 c-46 -46 -56 -51 -130 -65
-55 -10 -97 -26 -136 -50 -32 -19 -63 -33 -71 -30 -8 3 -24 -5 -35 -17 -27
-29 -105 -229 -128 -329 -17 -72 -20 -77 -64 -105 -43 -27 -57 -30 -266 -49
l-221 -21 -15 36 -15 35 -165 43 -165 43 -47 -21 -47 -21 0 -71 c0 -54 8 -97
32 -171 l33 -99 103 -82 c84 -67 117 -87 185 -110 l82 -28 123 14 c110 13 122
13 122 -1 0 -9 -31 -257 -69 -552 l-69 -536 -162 -429 c-89 -236 -162 -436
-162 -444 -1 -8 33 -96 75 -195 l76 -181 6 -249 c7 -231 5 -257 -14 -343 -19
-85 -19 -97 -6 -123 14 -27 20 -29 73 -29 32 0 111 -7 176 -16 65 -8 120 -13
123 -11 2 3 29 87 60 188 l55 183 -36 229 -36 230 116 360 c107 335 155 451
175 430 4 -4 44 -79 89 -165 111 -215 208 -467 286 -748 35 -129 87 -303 115
-386 47 -142 53 -154 115 -230 36 -43 69 -83 73 -87 6 -6 307 95 320 108 2 2
13 58 25 123 l22 119 -51 274 -51 274 8 240 c5 142 5 340 -1 485 -10 239 -11
252 -66 525 l-55 280 5 175 c3 96 13 229 22 296 l16 120 104 49 c57 26 152 78
211 115 97 62 118 70 225 96 l118 27 23 46 c13 25 39 103 59 172 l34 127 95
118 c67 84 103 139 122 187 l27 68 -47 75 c-25 41 -49 76 -53 78 -3 3 -47 1
-97 -3 -87 -7 -93 -9 -169 -60 -48 -32 -145 -117 -240 -211 -127 -125 -188
-176 -295 -248 -132 -89 -138 -92 -268 -126 -78 -20 -130 -30 -125 -23 3 7 45
68 93 137 48 69 109 167 136 218 l49 93 -36 32 c-20 18 -95 85 -166 150 -90
80 -138 117 -155 117 -15 0 -41 -18 -73 -50z"/>
</g>
</svg>
