<?xml version="1.0" standalone="no"?>
<!DOCTYPE svg PUBLIC "-//W3C//DTD SVG 20010904//EN"
 "http://www.w3.org/TR/2001/REC-SVG-20010904/DTD/svg10.dtd">
<svg version="1.0" xmlns="http://www.w3.org/2000/svg"
 width="96.000000pt" height="141.000000pt" viewBox="0 0 96.000000 141.000000"
 preserveAspectRatio="xMidYMid meet">
<metadata>
Created by potrace 1.14, written by Peter Selinger 2001-2017
</metadata>
<g transform="translate(0.000000,141.000000) scale(0.100000,-0.100000)"
fill="#000000" stroke="none">
<path fill="#000000" stroke="none" d="M394 1386 c-63 -32 -70 -40 -110 -137
-27 -63 -43 -89 -56 -89 -20 0 -33 -17 -17 -22 7 -2 -3 -23 -25 -52 -20 -27
-36 -59 -36 -74 -1 -49 -36 -131 -83 -190 -66 -85 -72 -130 -57 -420 6 -125
13 -229 15 -230 2 -2 61 -7 130 -12 70 -5 131 -12 135 -17 4 -4 11 -17 14 -29
6 -19 1 -22 -36 -27 -24 -3 -66 -11 -94 -17 l-52 -11 23 -23 c22 -22 34 -24
194 -31 l171 -7 0 34 c0 32 -65 153 -107 201 -9 9 -13 20 -9 25 4 4 98 25 209
48 l202 40 -1 30 c-1 16 -4 54 -9 84 l-7 56 85 34 84 34 -23 74 c-12 40 -24
75 -26 77 -2 2 -69 -12 -151 -31 l-147 -34 -66 26 c-50 20 -73 25 -102 19 -20
-4 -48 -9 -63 -12 -14 -2 -50 3 -81 11 -51 15 -56 19 -67 57 -7 23 -15 47 -17
54 -3 6 24 48 59 91 35 43 95 129 132 189 38 63 95 138 132 176 l65 66 -38 32
c-32 25 -47 31 -84 30 -25 -1 -64 -11 -86 -23z"/>
</g>
</svg>
