<?xml version="1.0" standalone="no"?>
<!DOCTYPE svg PUBLIC "-//W3C//DTD SVG 20010904//EN"
 "http://www.w3.org/TR/2001/REC-SVG-20010904/DTD/svg10.dtd">
<svg version="1.0" xmlns="http://www.w3.org/2000/svg"
 width="24.000000pt" height="33.000000pt" viewBox="0 0 24.000000 33.000000"
 preserveAspectRatio="xMidYMid meet">
<metadata>
Created by potrace 1.14, written by Peter Selinger 2001-2017
</metadata>
<g transform="translate(0.000000,33.000000) scale(0.100000,-0.100000)"
fill="#000000" stroke="none">
<path fill="#000000" stroke="none" d="M127 324 c-4 -4 -7 -32 -7 -63 0 -67
-3 -72 -57 -100 -23 -11 -47 -29 -52 -39 -8 -16 -4 -20 25 -31 21 -7 47 -30
65 -53 23 -33 29 -37 29 -20 0 43 10 52 61 52 l49 0 0 44 c0 34 -5 47 -22 58
-21 14 -21 15 -3 45 14 24 16 38 9 69 -9 37 -12 39 -50 42 -22 2 -43 0 -47 -4z"/>
</g>
</svg>
