<?xml version="1.0" standalone="no"?>
<!DOCTYPE svg PUBLIC "-//W3C//DTD SVG 20010904//EN"
 "http://www.w3.org/TR/2001/REC-SVG-20010904/DTD/svg10.dtd">
<svg version="1.0" xmlns="http://www.w3.org/2000/svg"
 width="44.000000pt" height="66.000000pt" viewBox="0 0 44.000000 66.000000"
 preserveAspectRatio="xMidYMid meet">
<metadata>
Created by potrace 1.14, written by Peter Selinger 2001-2017
</metadata>
<g transform="translate(0.000000,66.000000) scale(0.100000,-0.100000)"
fill="#000000" stroke="none">
<path fill="#000000" stroke="none" d="M215 655 c-5 -2 -21 -6 -36 -9 -25 -5
-25 -6 -18 -73 15 -135 15 -134 -44 -170 -30 -18 -67 -51 -82 -73 -27 -38 -29
-50 -33 -154 l-4 -113 28 -30 29 -31 185 67 185 66 9 51 8 50 -62 89 -63 89
15 41 c15 39 15 41 -26 123 -40 81 -51 90 -91 77z"/>
</g>
</svg>
