<?xml version="1.0" standalone="no"?>
<!DOCTYPE svg PUBLIC "-//W3C//DTD SVG 20010904//EN"
 "http://www.w3.org/TR/2001/REC-SVG-20010904/DTD/svg10.dtd">
<svg version="1.0" xmlns="http://www.w3.org/2000/svg"
 width="48.000000pt" height="66.000000pt" viewBox="0 0 48.000000 66.000000"
 preserveAspectRatio="xMidYMid meet">
<metadata>
Created by potrace 1.14, written by Peter Selinger 2001-2017
</metadata>
<g transform="translate(0.000000,66.000000) scale(0.100000,-0.100000)"
fill="#000000" stroke="none">
<path fill="#000000" stroke="none" d="M41 613 c-23 -27 -41 -58 -41 -72 0
-35 37 -88 66 -95 25 -7 25 -8 10 -31 -9 -13 -21 -55 -27 -94 -10 -60 -9 -83
5 -151 10 -45 15 -92 12 -104 -5 -21 -1 -25 27 -29 86 -15 308 -39 314 -34 3
3 11 30 18 59 8 29 23 80 35 113 19 52 21 66 11 103 -22 85 -137 201 -226 229
-21 7 -39 26 -64 69 -58 100 -81 106 -140 37z"/>
</g>
</svg>
