<?xml version="1.0" standalone="no"?>
<!DOCTYPE svg PUBLIC "-//W3C//DTD SVG 20010904//EN"
 "http://www.w3.org/TR/2001/REC-SVG-20010904/DTD/svg10.dtd">
<svg version="1.0" xmlns="http://www.w3.org/2000/svg"
 width="257.000000pt" height="355.000000pt" viewBox="0 0 257.000000 355.000000"
 preserveAspectRatio="xMidYMid meet">
<metadata>
Created by potrace 1.14, written by Peter Selinger 2001-2017
</metadata>
<g transform="translate(0.000000,355.000000) scale(0.100000,-0.100000)"
fill="#000000" stroke="none">
<path fill="#000000" stroke="none" d="M1728 3496 c-281 -72 -286 -76 -358
-234 -89 -194 -126 -413 -114 -682 l6 -155 44 -99 c24 -55 44 -104 44 -110 0
-6 -86 -33 -191 -59 l-190 -47 -207 -120 -207 -120 -51 -77 c-52 -76 -52 -77
-37 -109 l16 -32 -240 -449 -241 -450 6 -138 5 -138 44 -64 c25 -35 52 -67 61
-72 10 -4 98 -28 196 -52 l180 -44 33 -46 c31 -43 36 -46 100 -57 58 -10 750
-92 777 -92 14 0 -1 150 -19 193 -15 35 -14 72 1 129 6 21 42 39 154 76 85 28
86 28 240 19 129 -7 180 -15 303 -47 129 -34 156 -44 201 -80 97 -74 93 -63
67 -201 -13 -66 -22 -121 -20 -123 2 -2 54 -7 116 -11 l112 -7 3 858 c3 748
-1 1050 -17 1130 -3 12 -68 69 -165 143 -88 68 -176 142 -196 165 l-35 41 58
17 c50 15 64 25 101 72 l42 54 0 124 c0 113 5 146 60 402 33 154 59 280 58
281 -23 19 -502 265 -515 264 -10 0 -111 -25 -225 -53z"/>
</g>
</svg>
