<?xml version="1.0" standalone="no"?>
<!DOCTYPE svg PUBLIC "-//W3C//DTD SVG 20010904//EN"
 "http://www.w3.org/TR/2001/REC-SVG-20010904/DTD/svg10.dtd">
<svg version="1.0" xmlns="http://www.w3.org/2000/svg"
 width="161.000000pt" height="244.000000pt" viewBox="0 0 161.000000 244.000000"
 preserveAspectRatio="xMidYMid meet">
<metadata>
Created by potrace 1.14, written by Peter Selinger 2001-2017
</metadata>
<g transform="translate(0.000000,244.000000) scale(0.100000,-0.100000)"
fill="#000000" stroke="none">
<path fill="#000000" stroke="none" d="M690 2390 c-58 -28 -103 -50 -100 -51
3 0 128 -8 277 -17 l273 -17 -56 56 c-61 62 -62 62 -219 73 -68 5 -73 4 -175
-44z"/>
<path fill="#000000" stroke="none" d="M526 1944 c6 -93 30 -185 115 -453 27
-85 49 -157 49 -161 0 -4 -22 -17 -50 -29 -43 -18 -59 -35 -119 -120 -61 -85
-98 -157 -168 -320 l-14 -34 -50 88 c-27 49 -51 90 -53 92 -2 2 -29 -6 -61
-18 l-57 -21 5 -37 c4 -20 9 -59 13 -87 l6 -51 -65 -57 -64 -57 -6 -81 -5 -81
76 -93 76 -94 81 0 c44 1 146 9 228 18 121 15 147 15 147 4 0 -7 -11 -88 -25
-179 -14 -91 -24 -167 -22 -169 2 -2 237 313 523 699 l520 702 -114 77 c-62
42 -155 114 -205 160 -51 45 -93 83 -95 84 -1 1 8 67 21 148 l23 146 -305 0
c-168 0 -329 3 -358 6 l-52 7 5 -89z"/>
</g>
</svg>
