<?xml version="1.0" standalone="no"?>
<!DOCTYPE svg PUBLIC "-//W3C//DTD SVG 20010904//EN"
 "http://www.w3.org/TR/2001/REC-SVG-20010904/DTD/svg10.dtd">
<svg version="1.0" xmlns="http://www.w3.org/2000/svg"
 width="51.000000pt" height="72.000000pt" viewBox="0 0 51.000000 72.000000"
 preserveAspectRatio="xMidYMid meet">
<metadata>
Created by potrace 1.14, written by Peter Selinger 2001-2017
</metadata>
<g transform="translate(0.000000,72.000000) scale(0.100000,-0.100000)"
fill="#000000" stroke="none">
<path fill="#000000" stroke="none" d="M221 687 c-15 -24 -21 -51 -21 -91 0
-59 -16 -94 -83 -179 -16 -21 -49 -84 -73 -140 -39 -90 -44 -111 -44 -178 0
-71 2 -77 23 -84 12 -4 94 -9 182 -12 l161 -5 29 38 c16 20 48 59 72 86 l43
49 0 94 c0 85 -4 105 -46 227 -38 111 -52 138 -82 166 -40 35 -59 46 -108 56
-28 6 -34 4 -53 -27z"/>
<path fill="#ffffff" stroke="none" d="M268 84 c-47 -58 -88 -83 -88 -53 0 15
123 128 132 122 4 -2 -15 -33 -44 -69z"/>
</g>
</svg>
