<?xml version="1.0" standalone="no"?>
<!DOCTYPE svg PUBLIC "-//W3C//DTD SVG 20010904//EN"
 "http://www.w3.org/TR/2001/REC-SVG-20010904/DTD/svg10.dtd">
<svg version="1.0" xmlns="http://www.w3.org/2000/svg"
 width="109.000000pt" height="153.000000pt" viewBox="0 0 109.000000 153.000000"
 preserveAspectRatio="xMidYMid meet">
<metadata>
Created by potrace 1.14, written by Peter Selinger 2001-2017
</metadata>
<g transform="translate(0.000000,153.000000) scale(0.100000,-0.100000)"
fill="#000000" stroke="none">
<path fill="#000000" stroke="none" d="M885 1523 c-26 -3 -38 -15 -71 -71 -37
-62 -43 -67 -76 -68 -57 -1 -146 -67 -327 -242 -152 -148 -163 -161 -157 -188
3 -17 0 -39 -8 -53 -12 -22 -10 -33 22 -110 19 -47 50 -106 68 -131 17 -25 45
-79 61 -121 l29 -75 -60 -33 c-219 -120 -426 -331 -348 -355 9 -3 42 -22 72
-42 l54 -36 80 9 c91 9 104 23 67 73 -24 33 -25 31 76 98 90 61 237 209 252
254 11 33 10 45 -10 98 -18 49 -20 68 -13 102 l9 42 17 -26 c29 -44 50 -200
43 -305 -4 -51 -4 -122 0 -159 l7 -65 36 5 c21 3 87 8 149 12 l112 6 -23 47
c-13 25 -36 57 -50 70 l-26 24 0 204 c0 126 4 212 11 224 8 16 7 26 -6 45 -21
32 -11 120 16 137 16 10 19 24 19 81 0 51 5 77 20 101 19 31 20 36 5 105 -8
39 -15 73 -15 76 0 9 61 -27 94 -57 l34 -30 -7 28 c-6 20 -2 42 15 79 16 37
19 55 11 63 -7 7 -6 16 6 29 9 10 17 35 17 54 0 28 -7 41 -32 60 -18 14 -48
30 -67 36 -34 12 -47 12 -106 5z"/>
</g>
</svg>
