<?xml version="1.0" standalone="no"?>
<!DOCTYPE svg PUBLIC "-//W3C//DTD SVG 20010904//EN"
 "http://www.w3.org/TR/2001/REC-SVG-20010904/DTD/svg10.dtd">
<svg version="1.0" xmlns="http://www.w3.org/2000/svg"
 width="350.000000pt" height="468.000000pt" viewBox="0 0 350.000000 468.000000"
 preserveAspectRatio="xMidYMid meet">
<metadata>
Created by potrace 1.14, written by Peter Selinger 2001-2017
</metadata>
<g transform="translate(0.000000,468.000000) scale(0.100000,-0.100000)"
fill="#000000" stroke="none">
<path fill="#000000" stroke="none" d="M1585 4647 c-178 -47 -237 -84 -338
-213 -47 -59 -119 -171 -168 -259 -76 -136 -88 -164 -100 -235 -12 -79 -13
-81 -55 -105 -35 -21 -51 -41 -85 -108 -32 -61 -66 -106 -135 -177 -50 -52
-123 -143 -162 -201 l-71 -106 -171 -1175 -171 -1176 -64 -193 c-61 -182 -65
-199 -65 -286 l0 -92 51 -42 50 -43 -7 -103 -7 -103 349 -1 c192 0 873 -6
1514 -13 641 -7 1167 -11 1168 -10 2 1 -19 440 -47 975 -28 535 -49 974 -47
976 2 2 74 17 159 33 l156 29 80 66 80 67 -4 47 c-3 25 -7 113 -9 194 l-5 148
-51 127 c-51 130 -181 354 -478 821 -99 155 -123 186 -152 198 -36 15 -61 26
-210 92 l-85 37 -27 70 c-14 38 -30 89 -34 114 -5 33 -18 57 -48 90 -23 25
-57 71 -74 102 -52 90 -254 273 -430 390 -81 53 -156 97 -167 97 -11 -1 -74
-15 -140 -32z"/>
</g>
</svg>
