<?xml version="1.0" standalone="no"?>
<!DOCTYPE svg PUBLIC "-//W3C//DTD SVG 20010904//EN"
 "http://www.w3.org/TR/2001/REC-SVG-20010904/DTD/svg10.dtd">
<svg version="1.0" xmlns="http://www.w3.org/2000/svg"
 width="282.000000pt" height="400.000000pt" viewBox="0 0 282.000000 400.000000"
 preserveAspectRatio="xMidYMid meet">
<metadata>
Created by potrace 1.14, written by Peter Selinger 2001-2017
</metadata>
<g transform="translate(0.000000,400.000000) scale(0.100000,-0.100000)"
fill="#000000" stroke="none">
<path fill="#000000" stroke="none" d="M879 3955 c-51 -40 -60 -54 -93 -135
-36 -91 -36 -91 -30 -199 7 -108 7 -108 -25 -168 -22 -40 -59 -84 -114 -135
-115 -105 -117 -106 -267 -97 -132 8 -228 -4 -237 -28 -3 -7 0 -34 6 -60 5
-27 13 -76 17 -111 l6 -64 -32 17 -33 17 -39 -39 -40 -40 13 -122 c9 -94 16
-124 28 -131 9 -5 70 -13 134 -19 72 -7 212 -33 359 -67 l242 -56 105 52 106
52 72 -20 c55 -16 314 -143 343 -169 2 -2 -15 -42 -38 -89 -36 -72 -42 -94
-42 -147 0 -104 -17 -220 -49 -329 -17 -57 -62 -252 -100 -433 -63 -298 -71
-345 -76 -485 -5 -108 -14 -184 -30 -250 -15 -62 -25 -144 -30 -235 l-6 -140
-46 -89 c-43 -85 -45 -91 -30 -115 8 -14 18 -41 22 -59 4 -21 16 -37 34 -46
37 -19 113 -1 238 56 l94 43 -5 195 c-2 107 -7 222 -10 255 l-6 60 40 28 c23
15 42 33 44 40 2 6 15 50 29 97 33 110 44 169 57 315 18 189 55 325 127 457
32 58 37 55 93 -50 23 -41 163 -263 312 -491 l271 -416 1 -145 c1 -80 -3 -188
-8 -241 -8 -94 -8 -97 13 -104 16 -5 47 10 126 60 80 51 126 90 195 165 49 53
115 117 145 140 l55 42 -108 76 -108 75 -79 176 c-43 97 -131 282 -195 411
l-117 235 8 75 c4 41 8 145 8 230 1 154 1 155 50 330 27 96 55 214 61 261 11
81 10 91 -13 165 -13 44 -33 119 -43 168 l-19 89 -87 92 c-88 93 -88 93 -155
105 -82 15 -114 42 -233 195 -43 55 -171 191 -284 303 l-206 203 0 49 c0 48
-2 51 -52 91 -70 56 -149 105 -163 101 -10 -2 -60 14 -135 42 -9 3 -38 -13
-71 -39z"/>
<path fill="#ffffff" stroke="none" d="M691 3009 c71 -9 89 -16 114 -40 17
-16 36 -29 42 -29 11 0 23 -53 23 -101 0 -23 -9 -32 -57 -57 -71 -36 -115 -45
-217 -43 -54 1 -104 10 -165 29 -79 26 -88 31 -108 67 -17 31 -39 49 -98 80
-41 22 -75 42 -75 46 0 12 160 39 240 40 47 1 99 5 115 9 45 11 93 11 186 -1z"/>
</g>
</svg>
