<?xml version="1.0" standalone="no"?>
<!DOCTYPE svg PUBLIC "-//W3C//DTD SVG 20010904//EN"
 "http://www.w3.org/TR/2001/REC-SVG-20010904/DTD/svg10.dtd">
<svg version="1.0" xmlns="http://www.w3.org/2000/svg"
 width="166.000000pt" height="245.000000pt" viewBox="0 0 166.000000 245.000000"
 preserveAspectRatio="xMidYMid meet">
<metadata>
Created by potrace 1.14, written by Peter Selinger 2001-2017
</metadata>
<g transform="translate(0.000000,245.000000) scale(0.100000,-0.100000)"
fill="#000000" stroke="none">
<path fill="#000000" stroke="none" d="M1489 2434 c-6 -8 -18 -14 -25 -14 -8
0 -62 -25 -122 -56 l-107 -57 -79 17 c-54 11 -83 13 -90 6 -13 -13 -163 -13
-168 0 -7 21 -198 -42 -410 -137 -191 -84 -223 -102 -232 -125 -9 -24 -16 -28
-48 -28 -32 0 -40 -5 -54 -31 -18 -36 -154 -498 -154 -525 0 -10 12 -48 26
-84 23 -57 32 -69 78 -97 l53 -32 86 -197 87 -197 -115 -122 -115 -123 -25
-178 c-13 -99 -25 -193 -27 -211 -2 -26 8 -46 52 -103 45 -58 68 -78 122 -106
l67 -34 65 30 c36 16 66 31 66 33 0 2 -9 30 -20 62 -25 72 -25 82 0 90 15 5
20 15 20 39 0 20 27 89 69 177 68 142 70 145 135 191 l66 48 1 122 0 123 40
-110 41 -110 -29 -145 -29 -145 24 -61 24 -60 100 -33 c69 -23 133 -36 206
-42 l106 -9 52 35 c49 34 65 61 68 118 1 4 -35 29 -79 55 l-80 48 -1 312 -1
312 -74 87 -74 87 -5 91 c-3 49 -5 91 -4 93 1 2 16 -3 32 -12 29 -15 31 -14
133 51 57 36 105 67 107 68 3 3 31 180 32 198 0 4 15 7 33 7 49 1 74 16 216
135 l133 110 -4 121 -3 121 -38 46 c-37 45 -38 48 -27 88 13 48 10 53 -47 66
-34 9 -45 8 -54 -3z"/>
</g>
</svg>
