<?xml version="1.0" standalone="no"?>
<!DOCTYPE svg PUBLIC "-//W3C//DTD SVG 20010904//EN"
 "http://www.w3.org/TR/2001/REC-SVG-20010904/DTD/svg10.dtd">
<svg version="1.0" xmlns="http://www.w3.org/2000/svg"
 width="98.000000pt" height="142.000000pt" viewBox="0 0 98.000000 142.000000"
 preserveAspectRatio="xMidYMid meet">
<metadata>
Created by potrace 1.14, written by Peter Selinger 2001-2017
</metadata>
<g transform="translate(0.000000,142.000000) scale(0.100000,-0.100000)"
fill="#000000" stroke="none">
<path fill="#000000" stroke="none" d="M410 1408 c-63 -12 -113 -26 -207 -60
-79 -28 -84 -32 -118 -86 -22 -35 -35 -70 -36 -92 0 -26 -2 -30 -8 -16 -6 17
-10 14 -22 -18 -17 -41 -13 -95 15 -221 9 -38 19 -99 22 -135 9 -91 50 -168
113 -214 49 -37 50 -37 81 -21 18 9 34 14 36 12 21 -21 -143 -283 -181 -289
-13 -3 38 -33 145 -87 153 -77 168 -87 198 -132 18 -28 40 -49 50 -49 10 0 54
15 99 34 59 25 107 56 175 113 51 43 113 94 136 113 34 27 46 46 56 85 l13 50
-36 41 c-20 22 -60 74 -90 115 l-54 74 8 110 c23 360 25 316 -18 460 -25 82
-47 139 -62 153 -35 37 -234 74 -315 60z"/>
</g>
</svg>
