<?xml version="1.0" standalone="no"?>
<!DOCTYPE svg PUBLIC "-//W3C//DTD SVG 20010904//EN"
 "http://www.w3.org/TR/2001/REC-SVG-20010904/DTD/svg10.dtd">
<svg version="1.0" xmlns="http://www.w3.org/2000/svg"
 width="164.000000pt" height="247.000000pt" viewBox="0 0 164.000000 247.000000"
 preserveAspectRatio="xMidYMid meet">
<metadata>
Created by potrace 1.14, written by Peter Selinger 2001-2017
</metadata>
<g transform="translate(0.000000,247.000000) scale(0.100000,-0.100000)"
fill="#000000" stroke="none">
<path fill="#000000" stroke="none" d="M913 2437 l-53 -32 0 -107 c0 -60 -2
-108 -5 -108 -2 0 -15 5 -28 11 -21 9 -28 8 -46 -10 -15 -15 -34 -21 -67 -21
-54 0 -108 -29 -128 -68 -22 -42 -28 -123 -12 -151 11 -21 11 -32 -5 -84 -20
-68 -25 -139 -14 -247 11 -113 -20 -192 -120 -309 -59 -70 -83 -108 -114 -182
-22 -52 -42 -121 -46 -154 -6 -46 -23 -90 -75 -192 -43 -84 -88 -192 -124
-300 -49 -147 -54 -173 -46 -207 7 -33 5 -46 -12 -76 l-22 -37 20 -54 19 -54
78 -3 77 -3 0 35 c0 20 9 52 20 73 51 100 159 377 169 438 16 88 42 129 169
257 l105 107 46 -31 c62 -42 71 -55 71 -105 0 -37 4 -44 30 -58 35 -18 156
-142 203 -208 18 -25 83 -83 153 -134 66 -50 140 -113 163 -141 24 -28 60 -62
80 -76 25 -17 47 -47 66 -86 22 -46 40 -67 75 -90 58 -37 70 -37 70 -3 0 14 7
34 16 44 14 16 13 26 -14 123 -38 133 -64 167 -307 416 -127 129 -185 196
-193 220 -6 19 -28 120 -48 224 -30 152 -35 194 -27 217 19 51 68 118 85 119
9 0 26 14 38 30 12 17 29 30 38 30 35 0 41 18 62 178 18 146 19 168 6 217 -7
29 -24 67 -35 84 -12 17 -42 65 -66 108 l-44 77 33 45 33 46 -8 94 c-11 130
-18 145 -80 159 -84 20 -128 15 -186 -21z"/>
</g>
</svg>
