<?xml version="1.0" standalone="no"?>
<!DOCTYPE svg PUBLIC "-//W3C//DTD SVG 20010904//EN"
 "http://www.w3.org/TR/2001/REC-SVG-20010904/DTD/svg10.dtd">
<svg version="1.0" xmlns="http://www.w3.org/2000/svg"
 width="46.000000pt" height="65.000000pt" viewBox="0 0 46.000000 65.000000"
 preserveAspectRatio="xMidYMid meet">
<metadata>
Created by potrace 1.14, written by Peter Selinger 2001-2017
</metadata>
<g transform="translate(0.000000,65.000000) scale(0.100000,-0.100000)"
fill="#000000" stroke="none">
<path fill="#000000" stroke="none" d="M301 624 c-29 -13 -62 -24 -73 -24 -24
0 -58 -18 -58 -30 0 -5 12 -8 28 -7 22 2 26 -2 24 -18 -1 -11 -5 -57 -9 -102
-5 -73 -4 -84 16 -109 23 -29 28 -73 9 -92 -9 -9 -8 -12 3 -16 19 -6 213 -34
217 -32 1 2 -14 24 -33 49 -47 61 -45 82 11 150 22 26 24 38 24 133 0 103 0
105 -26 114 -39 15 -74 11 -133 -16z"/>
<path fill="#000000" stroke="none" d="M85 257 c-10 -8 -15 -19 -11 -25 5 -8
-1 -12 -17 -12 -18 0 -26 -6 -29 -24 -4 -21 0 -25 49 -36 60 -15 78 -30 68
-59 -8 -27 -51 -39 -97 -27 -44 12 -53 6 -44 -29 6 -25 8 -25 99 -25 50 0 141
-5 200 -11 59 -6 110 -9 113 -7 13 13 44 116 44 145 l0 33 -125 0 -125 0 -17
28 c-35 57 -73 74 -108 49z"/>
</g>
</svg>
