<?xml version="1.0" standalone="no"?>
<!DOCTYPE svg PUBLIC "-//W3C//DTD SVG 20010904//EN"
 "http://www.w3.org/TR/2001/REC-SVG-20010904/DTD/svg10.dtd">
<svg version="1.0" xmlns="http://www.w3.org/2000/svg"
 width="34.000000pt" height="51.000000pt" viewBox="0 0 34.000000 51.000000"
 preserveAspectRatio="xMidYMid meet">
<metadata>
Created by potrace 1.14, written by Peter Selinger 2001-2017
</metadata>
<g transform="translate(0.000000,51.000000) scale(0.100000,-0.100000)"
fill="#000000" stroke="none">
<path fill="#000000" stroke="none" d="M123 501 c-24 -4 -54 -18 -69 -32 -25
-24 -26 -26 -23 -141 3 -107 2 -119 -16 -133 -18 -14 -17 -14 13 -4 18 6 34
10 36 8 2 -2 31 -47 66 -99 35 -52 64 -96 64 -97 1 -1 12 0 24 4 16 4 34 27
57 72 18 37 41 73 49 80 15 12 11 20 -35 68 -39 41 -50 59 -46 76 3 12 9 48
12 80 6 49 4 61 -11 78 -17 19 -68 51 -76 48 -2 -1 -22 -5 -45 -8z"/>
</g>
</svg>
