<?xml version="1.0" standalone="no"?>
<!DOCTYPE svg PUBLIC "-//W3C//DTD SVG 20010904//EN"
 "http://www.w3.org/TR/2001/REC-SVG-20010904/DTD/svg10.dtd">
<svg version="1.0" xmlns="http://www.w3.org/2000/svg"
 width="34.000000pt" height="48.000000pt" viewBox="0 0 34.000000 48.000000"
 preserveAspectRatio="xMidYMid meet">
<metadata>
Created by potrace 1.14, written by Peter Selinger 2001-2017
</metadata>
<g transform="translate(0.000000,48.000000) scale(0.100000,-0.100000)"
fill="#000000" stroke="none">
<path fill="#000000" stroke="none" d="M113 452 c-23 -20 -33 -39 -38 -72 -4
-25 -16 -55 -27 -67 -21 -22 -48 -116 -48 -166 0 -29 45 -127 64 -139 6 -4 21
-8 34 -8 19 0 22 5 22 35 0 34 1 35 38 35 29 0 45 -7 67 -30 36 -37 41 -30 50
69 6 68 10 79 37 101 44 37 32 66 -45 110 -55 31 -66 42 -92 97 l-30 62 -32
-27z"/>
</g>
</svg>
