<?xml version="1.0" standalone="no"?>
<!DOCTYPE svg PUBLIC "-//W3C//DTD SVG 20010904//EN"
 "http://www.w3.org/TR/2001/REC-SVG-20010904/DTD/svg10.dtd">
<svg version="1.0" xmlns="http://www.w3.org/2000/svg"
 width="39.000000pt" height="57.000000pt" viewBox="0 0 39.000000 57.000000"
 preserveAspectRatio="xMidYMid meet">
<metadata>
Created by potrace 1.14, written by Peter Selinger 2001-2017
</metadata>
<g transform="translate(0.000000,57.000000) scale(0.100000,-0.100000)"
fill="#000000" stroke="none">
<path fill="#000000" stroke="none" d="M58 545 c-39 -26 -64 -62 -53 -73 4 -4
46 -6 95 -5 80 1 89 -1 99 -20 7 -12 32 -34 56 -48 48 -30 65 -72 45 -109 -12
-22 -38 -266 -29 -273 2 -2 19 -7 37 -10 l32 -7 0 60 c0 40 5 64 16 74 8 9 12
16 7 16 -5 0 -7 16 -5 35 2 19 10 35 17 35 10 0 10 13 -1 64 -22 105 -41 142
-94 181 -26 19 -50 42 -53 50 -8 18 -80 55 -109 55 -13 0 -40 -11 -60 -25z"/>
</g>
</svg>
