<?xml version="1.0" standalone="no"?>
<!DOCTYPE svg PUBLIC "-//W3C//DTD SVG 20010904//EN"
 "http://www.w3.org/TR/2001/REC-SVG-20010904/DTD/svg10.dtd">
<svg version="1.0" xmlns="http://www.w3.org/2000/svg"
 width="24.000000pt" height="35.000000pt" viewBox="0 0 24.000000 35.000000"
 preserveAspectRatio="xMidYMid meet">
<metadata>
Created by potrace 1.14, written by Peter Selinger 2001-2017
</metadata>
<g transform="translate(0.000000,35.000000) scale(0.100000,-0.100000)"
fill="#000000" stroke="none">
<path fill="#000000" stroke="none" d="M81 330 c-20 -18 -23 -27 -19 -70 5
-46 3 -51 -18 -56 -38 -10 -48 -59 -28 -135 10 -35 19 -66 21 -68 2 -2 21 10
42 27 35 28 47 32 99 32 l60 0 -15 58 c-8 31 -25 68 -39 82 -19 21 -23 35 -22
74 2 37 -2 51 -17 62 -25 18 -35 17 -64 -6z"/>
</g>
</svg>
