<?xml version="1.0" standalone="no"?>
<!DOCTYPE svg PUBLIC "-//W3C//DTD SVG 20010904//EN"
 "http://www.w3.org/TR/2001/REC-SVG-20010904/DTD/svg10.dtd">
<svg version="1.0" xmlns="http://www.w3.org/2000/svg"
 width="197.000000pt" height="281.000000pt" viewBox="0 0 197.000000 281.000000"
 preserveAspectRatio="xMidYMid meet">
<metadata>
Created by potrace 1.14, written by Peter Selinger 2001-2017
</metadata>
<g transform="translate(0.000000,281.000000) scale(0.100000,-0.100000)"
fill="#000000" stroke="none">
<path fill="#000000" stroke="none" d="M890 2761 l-145 -47 -32 -139 -32 -139
-105 -155 c-57 -86 -119 -183 -136 -216 -18 -33 -38 -67 -45 -75 -42 -49 -178
-360 -181 -415 -1 -23 -33 -113 -74 -210 -40 -93 -88 -212 -107 -264 l-34 -94
12 -211 c11 -208 12 -212 44 -276 l33 -66 255 -48 255 -49 364 40 363 39 73
-28 c41 -16 78 -26 83 -22 5 3 9 -5 9 -18 0 -13 7 -97 15 -188 8 -91 15 -169
15 -173 0 -9 355 -6 364 3 5 6 86 657 86 694 0 11 -26 53 -57 92 l-56 72 -204
42 c-112 23 -210 40 -217 37 -7 -3 -34 -39 -62 -81 -27 -42 -54 -74 -60 -72
-6 2 -16 -13 -23 -33 -11 -38 -11 -38 -58 -35 -27 2 -88 5 -138 8 -112 5 -151
18 -161 54 -4 15 -8 97 -8 182 -1 134 1 157 16 172 12 12 26 16 46 12 54 -11
183 27 338 98 183 84 212 110 292 264 l57 109 61 3 c48 2 66 8 80 24 19 21 19
21 -11 14 -16 -5 -80 -7 -141 -7 l-111 2 -95 -44 -96 -45 49 104 c27 58 58
122 69 144 l20 39 -29 16 c-41 20 -49 20 -137 -15 -42 -17 -78 -29 -79 -28 -1
2 22 138 51 303 l54 299 -56 136 c-31 74 -61 145 -67 157 -7 16 -34 30 -101
53 -50 16 -93 30 -96 29 -3 -1 -70 -22 -150 -48z"/>
</g>
</svg>
