<?xml version="1.0" standalone="no"?>
<!DOCTYPE svg PUBLIC "-//W3C//DTD SVG 20010904//EN"
 "http://www.w3.org/TR/2001/REC-SVG-20010904/DTD/svg10.dtd">
<svg version="1.0" xmlns="http://www.w3.org/2000/svg"
 width="207.000000pt" height="291.000000pt" viewBox="0 0 207.000000 291.000000"
 preserveAspectRatio="xMidYMid meet">
<metadata>
Created by potrace 1.14, written by Peter Selinger 2001-2017
</metadata>
<g transform="translate(0.000000,291.000000) scale(0.100000,-0.100000)"
fill="#000000" stroke="none">
<path fill="#000000" stroke="none" d="M884 2889 c-23 -14 -43 -47 -83 -133
l-53 -115 31 -57 c18 -31 31 -57 29 -59 -2 -1 -37 -19 -78 -40 -41 -21 -77
-39 -79 -41 -3 -3 27 -37 67 -77 l71 -72 -19 -25 c-11 -14 -20 -31 -20 -39 0
-11 -15 -13 -81 -8 -45 4 -94 13 -111 21 -27 14 -29 14 -24 -2 3 -9 28 -136
56 -280 l50 -264 -34 -148 c-19 -82 -78 -290 -130 -463 -53 -173 -101 -339
-108 -370 -12 -51 -18 -58 -101 -127 -81 -66 -91 -79 -136 -169 -35 -68 -61
-144 -91 -255 -23 -87 -40 -160 -38 -162 2 -2 48 4 101 13 l97 16 150 236 150
236 87 62 c94 67 100 68 203 54 30 -5 56 -5 58 -1 1 4 34 1 73 -7 39 -8 72
-13 74 -11 2 1 19 39 39 83 38 87 45 89 20 6 -8 -29 -14 -55 -12 -57 2 -2 24
36 47 85 l44 88 34 -7 c27 -7 35 -5 43 10 6 12 30 23 67 30 32 6 70 13 86 16
21 4 27 2 27 -12 0 -13 6 -16 34 -11 l33 5 54 -166 c36 -114 56 -197 64 -262
l10 -95 125 -62 c113 -56 131 -62 190 -62 59 -1 71 3 118 34 28 20 52 39 52
43 0 4 -67 39 -148 77 -80 39 -155 78 -164 88 -14 13 -18 34 -18 101 0 90 -58
414 -86 482 -45 109 -46 111 -53 87 -5 -19 -17 -4 -76 90 -49 79 -94 136 -152
192 l-82 80 -8 123 -8 122 100 33 100 32 28 54 c15 30 27 67 27 83 0 29 -49
143 -169 389 -71 145 -71 145 -123 170 -36 17 -64 23 -95 21 -24 -2 -43 -1
-43 2 0 3 10 29 21 58 32 77 50 185 33 199 -7 5 -31 39 -54 74 -41 63 -41 63
-104 74 -77 13 -74 14 -112 -10z"/>
<path fill="#ffffff" stroke="none" d="M1383 2185 c37 -47 49 -88 36 -125 -14
-38 -37 -52 -142 -84 -83 -26 -90 -26 -113 -11 -56 37 -75 100 -53 175 10 34
19 42 78 68 108 50 141 46 194 -23z"/>
</g>
</svg>
