<?xml version="1.0" standalone="no"?>
<!DOCTYPE svg PUBLIC "-//W3C//DTD SVG 20010904//EN"
 "http://www.w3.org/TR/2001/REC-SVG-20010904/DTD/svg10.dtd">
<svg version="1.0" xmlns="http://www.w3.org/2000/svg"
 width="12.000000pt" height="18.000000pt" viewBox="0 0 12.000000 18.000000"
 preserveAspectRatio="xMidYMid meet">
<metadata>
Created by potrace 1.14, written by Peter Selinger 2001-2017
</metadata>
<g transform="translate(0.000000,18.000000) scale(0.100000,-0.100000)"
fill="#000000" stroke="none">
<path fill="#000000" stroke="none" d="M17 173 c-3 -4 -8 -30 -12 -58 -6 -48
-5 -49 9 -25 14 24 15 24 16 4 0 -12 7 -38 16 -59 13 -33 18 -36 42 -30 37 9
37 10 18 49 -9 19 -16 47 -16 63 0 22 -7 33 -27 44 -16 7 -31 15 -35 17 -3 2
-8 -1 -11 -5z"/>
</g>
</svg>
