<?xml version="1.0" standalone="no"?>
<!DOCTYPE svg PUBLIC "-//W3C//DTD SVG 20010904//EN"
 "http://www.w3.org/TR/2001/REC-SVG-20010904/DTD/svg10.dtd">
<svg version="1.0" xmlns="http://www.w3.org/2000/svg"
 width="283.000000pt" height="397.000000pt" viewBox="0 0 283.000000 397.000000"
 preserveAspectRatio="xMidYMid meet">
<metadata>
Created by potrace 1.14, written by Peter Selinger 2001-2017
</metadata>
<g transform="translate(0.000000,397.000000) scale(0.100000,-0.100000)"
fill="#000000" stroke="none">
<path fill="#000000" stroke="none" d="M1914 3858 c-167 -170 -214 -266 -233
-479 -15 -162 -14 -381 2 -398 10 -11 9 -14 -1 -18 -6 -3 -10 -9 -6 -14 7 -12
-141 -11 -221 0 -111 17 -164 44 -276 144 -57 51 -140 115 -184 142 -112 68
-197 128 -287 202 -42 35 -107 78 -145 95 -60 27 -75 30 -127 24 -33 -3 -61
-8 -63 -10 -2 -1 15 -34 37 -72 22 -38 40 -80 40 -94 0 -14 15 -52 33 -85 26
-49 54 -78 152 -158 66 -54 154 -122 196 -150 42 -29 123 -87 180 -131 124
-93 153 -108 381 -181 l175 -56 29 -61 c17 -36 44 -73 66 -91 l37 -30 -34 -36
c-19 -20 -56 -60 -82 -89 l-49 -54 -244 173 c-251 176 -502 378 -716 575
l-120 111 -108 16 c-59 9 -145 30 -192 47 -120 42 -129 41 -143 -17 -9 -38 -8
-65 4 -133 31 -175 37 -193 68 -201 15 -4 49 -21 75 -37 37 -24 66 -32 142
-42 l95 -11 435 -439 436 -438 188 0 c103 0 189 -2 191 -4 1 -1 -21 -280 -51
-618 -29 -338 -60 -727 -69 -865 -8 -137 -17 -275 -20 -306 l-6 -56 557 -7
c306 -4 558 -6 560 -4 2 2 24 97 49 211 l45 207 -57 270 -57 271 33 222 c18
122 46 278 62 347 37 162 139 860 139 948 0 56 -8 86 -49 188 l-48 121 45 89
c45 89 45 89 50 215 3 88 1 132 -8 148 -8 17 -9 26 -1 34 19 19 13 104 -10
149 -14 28 -19 50 -15 73 4 21 0 48 -12 76 -11 24 -22 65 -26 90 -5 35 -14 51
-36 68 -17 12 -30 30 -30 41 0 10 -5 22 -11 25 -5 4 -9 17 -7 29 4 34 -28 76
-58 76 -15 0 -48 16 -74 35 l-48 35 -234 0 -233 0 -111 -112z"/>
</g>
</svg>
