<?xml version="1.0" standalone="no"?>
<!DOCTYPE svg PUBLIC "-//W3C//DTD SVG 20010904//EN"
 "http://www.w3.org/TR/2001/REC-SVG-20010904/DTD/svg10.dtd">
<svg version="1.0" xmlns="http://www.w3.org/2000/svg"
 width="12.000000pt" height="17.000000pt" viewBox="0 0 12.000000 17.000000"
 preserveAspectRatio="xMidYMid meet">
<metadata>
Created by potrace 1.14, written by Peter Selinger 2001-2017
</metadata>
<g transform="translate(0.000000,17.000000) scale(0.100000,-0.100000)"
fill="#000000" stroke="none">
<path fill="#000000" stroke="none" d="M12 133 c-1 -21 -4 -59 -8 -85 -5 -40
-3 -48 10 -48 9 0 15 3 14 7 -1 5 5 21 13 36 l15 28 17 -36 c19 -40 53 -50 41
-12 -3 12 -15 39 -26 61 -11 21 -15 35 -9 31 6 -3 11 0 11 7 -1 24 -27 48 -52
48 -22 0 -25 -5 -26 -37z"/>
</g>
</svg>
