<?xml version="1.0" standalone="no"?>
<!DOCTYPE svg PUBLIC "-//W3C//DTD SVG 20010904//EN"
 "http://www.w3.org/TR/2001/REC-SVG-20010904/DTD/svg10.dtd">
<svg version="1.0" xmlns="http://www.w3.org/2000/svg"
 width="117.000000pt" height="180.000000pt" viewBox="0 0 117.000000 180.000000"
 preserveAspectRatio="xMidYMid meet">
<metadata>
Created by potrace 1.14, written by Peter Selinger 2001-2017
</metadata>
<g transform="translate(0.000000,180.000000) scale(0.100000,-0.100000)"
fill="#000000" stroke="none">
<path fill="#000000" stroke="none" d="M534 1716 l-101 -85 -6 -81 c-7 -94
-28 -127 -115 -187 -52 -36 -52 -37 -90 -155 -36 -116 -37 -118 -64 -112 -31
6 -23 32 -98 -286 -28 -118 -53 -223 -56 -232 -3 -11 17 -35 67 -77 l71 -60
54 27 53 26 51 -24 c27 -13 50 -26 50 -29 1 -3 -34 -75 -77 -158 l-78 -153
-55 -1 c-38 -1 65 -21 325 -65 433 -72 383 -76 440 36 18 36 66 164 106 285
60 181 80 260 115 445 l41 225 -162 165 -163 165 29 105 c16 58 29 112 29 121
0 29 -118 167 -148 173 -116 23 -108 25 -218 -68z"/>
<path fill="#ffffff" stroke="none" d="M443 1363 c2 -10 -2 -29 -9 -43 -7 -14
-15 -33 -18 -43 -8 -24 -23 -18 -43 15 -16 25 -15 26 18 56 40 36 46 38 52 15z"/>
</g>
</svg>
