<?xml version="1.0" standalone="no"?>
<!DOCTYPE svg PUBLIC "-//W3C//DTD SVG 20010904//EN"
 "http://www.w3.org/TR/2001/REC-SVG-20010904/DTD/svg10.dtd">
<svg version="1.0" xmlns="http://www.w3.org/2000/svg"
 width="30.000000pt" height="41.000000pt" viewBox="0 0 30.000000 41.000000"
 preserveAspectRatio="xMidYMid meet">
<metadata>
Created by potrace 1.14, written by Peter Selinger 2001-2017
</metadata>
<g transform="translate(0.000000,41.000000) scale(0.100000,-0.100000)"
fill="#000000" stroke="none">
<path fill="#000000" stroke="none" d="M130 395 c-7 -8 -13 -35 -14 -60 -2
-26 -9 -50 -18 -58 -41 -33 -79 -106 -88 -168 -17 -118 -27 -108 108 -103 165
7 162 6 162 57 0 23 5 60 10 81 10 43 -3 80 -45 126 -17 19 -22 37 -22 73 0
32 -5 52 -14 58 -22 14 -65 11 -79 -6z"/>
</g>
</svg>
