<?xml version="1.0" standalone="no"?>
<!DOCTYPE svg PUBLIC "-//W3C//DTD SVG 20010904//EN"
 "http://www.w3.org/TR/2001/REC-SVG-20010904/DTD/svg10.dtd">
<svg version="1.0" xmlns="http://www.w3.org/2000/svg"
 width="20.000000pt" height="29.000000pt" viewBox="0 0 20.000000 29.000000"
 preserveAspectRatio="xMidYMid meet">
<metadata>
Created by potrace 1.14, written by Peter Selinger 2001-2017
</metadata>
<g transform="translate(0.000000,29.000000) scale(0.100000,-0.100000)"
fill="#000000" stroke="none">
<path fill="#000000" stroke="none" d="M11 255 c-11 -31 -10 -38 8 -64 12 -16
21 -40 21 -53 0 -12 7 -32 15 -42 8 -11 15 -28 15 -38 0 -19 54 -58 81 -58 9
0 24 15 34 33 15 29 16 39 6 70 -15 43 -40 60 -77 51 -18 -5 -25 -3 -20 4 11
18 -15 102 -37 117 -29 21 -31 20 -46 -20z"/>
</g>
</svg>
