<?xml version="1.0" standalone="no"?>
<!DOCTYPE svg PUBLIC "-//W3C//DTD SVG 20010904//EN"
 "http://www.w3.org/TR/2001/REC-SVG-20010904/DTD/svg10.dtd">
<svg version="1.0" xmlns="http://www.w3.org/2000/svg"
 width="27.000000pt" height="39.000000pt" viewBox="0 0 27.000000 39.000000"
 preserveAspectRatio="xMidYMid meet">
<metadata>
Created by potrace 1.14, written by Peter Selinger 2001-2017
</metadata>
<g transform="translate(0.000000,39.000000) scale(0.100000,-0.100000)"
fill="#000000" stroke="none">
<path fill="#000000" stroke="none" d="M109 384 c-19 -6 -41 -68 -28 -81 5 -5
-4 -49 -20 -99 -17 -57 -25 -97 -20 -109 13 -34 10 -45 -18 -56 -23 -8 -24
-12 -12 -23 12 -12 33 -9 134 16 66 17 122 32 124 34 3 3 -26 181 -35 217 -3
9 -11 17 -19 17 -7 0 -24 19 -37 42 -23 42 -37 50 -69 42z"/>
</g>
</svg>
