<?xml version="1.0" standalone="no"?>
<!DOCTYPE svg PUBLIC "-//W3C//DTD SVG 20010904//EN"
 "http://www.w3.org/TR/2001/REC-SVG-20010904/DTD/svg10.dtd">
<svg version="1.0" xmlns="http://www.w3.org/2000/svg"
 width="41.000000pt" height="57.000000pt" viewBox="0 0 41.000000 57.000000"
 preserveAspectRatio="xMidYMid meet">
<metadata>
Created by potrace 1.14, written by Peter Selinger 2001-2017
</metadata>
<g transform="translate(0.000000,57.000000) scale(0.100000,-0.100000)"
fill="#000000" stroke="none">
<path fill="#000000" stroke="none" d="M158 542 c-6 -15 -13 -78 -16 -139 l-5
-113 -48 -22 -49 -23 6 -46 c5 -41 3 -46 -20 -57 -27 -12 -32 -40 -18 -88 7
-20 9 -20 77 -8 39 7 81 16 94 20 23 7 23 7 7 -18 -15 -24 -15 -26 -1 -32 9
-3 30 -6 46 -6 29 0 29 0 13 25 -26 39 -10 94 57 195 32 50 60 90 63 90 2 0
-6 -25 -17 -56 l-21 -57 32 -28 c47 -42 44 -81 -10 -136 -42 -43 -42 -43 -16
-43 15 0 38 4 52 10 l26 10 -1 147 c-1 158 -12 380 -19 386 -3 2 -54 7 -113
10 l-108 6 -11 -27z"/>
</g>
</svg>
