<?xml version="1.0" standalone="no"?>
<!DOCTYPE svg PUBLIC "-//W3C//DTD SVG 20010904//EN"
 "http://www.w3.org/TR/2001/REC-SVG-20010904/DTD/svg10.dtd">
<svg version="1.0" xmlns="http://www.w3.org/2000/svg"
 width="121.000000pt" height="166.000000pt" viewBox="0 0 121.000000 166.000000"
 preserveAspectRatio="xMidYMid meet">
<metadata>
Created by potrace 1.14, written by Peter Selinger 2001-2017
</metadata>
<g transform="translate(0.000000,166.000000) scale(0.100000,-0.100000)"
fill="#000000" stroke="none">
<path fill="#000000" stroke="none" d="M639 1637 c-31 -12 -75 -39 -98 -59
l-41 -38 0 -100 c0 -112 18 -210 58 -314 26 -68 26 -69 7 -80 -38 -21 -159
-143 -261 -262 -56 -67 -130 -146 -163 -175 -33 -30 -78 -78 -101 -107 l-42
-52 168 -225 169 -225 65 1 c118 1 798 44 805 51 4 4 2 186 -5 405 l-12 398
-106 108 c-59 59 -103 107 -99 107 4 0 -12 17 -35 38 -24 20 -46 42 -50 47
-11 14 -10 115 0 115 5 0 13 20 19 44 13 56 0 164 -26 213 -30 59 -89 110
-141 122 -55 13 -44 14 -111 -12z"/>
</g>
</svg>
