<?xml version="1.0" standalone="no"?>
<!DOCTYPE svg PUBLIC "-//W3C//DTD SVG 20010904//EN"
 "http://www.w3.org/TR/2001/REC-SVG-20010904/DTD/svg10.dtd">
<svg version="1.0" xmlns="http://www.w3.org/2000/svg"
 width="260.000000pt" height="372.000000pt" viewBox="0 0 260.000000 372.000000"
 preserveAspectRatio="xMidYMid meet">
<metadata>
Created by potrace 1.14, written by Peter Selinger 2001-2017
</metadata>
<g transform="translate(0.000000,372.000000) scale(0.100000,-0.100000)"
fill="#000000" stroke="none">
<path fill="#000000" stroke="none" d="M807 3705 c-78 -29 -154 -85 -197 -146
-45 -64 -87 -175 -96 -254 -6 -46 -2 -59 55 -174 33 -68 70 -149 82 -181 11
-31 40 -79 63 -106 24 -27 69 -94 100 -149 32 -55 72 -115 91 -134 l33 -34
-34 -76 c-20 -42 -49 -98 -67 -126 -29 -45 -33 -60 -44 -185 -6 -74 -12 -173
-12 -221 l-1 -85 -70 -58 c-70 -57 -71 -57 -108 -46 -83 27 -207 83 -266 120
-35 22 -71 40 -79 40 -9 0 -41 -21 -70 -47 -29 -27 -76 -59 -105 -72 -28 -14
-52 -28 -52 -32 0 -4 41 -29 90 -55 94 -50 106 -66 71 -98 -18 -17 -23 -16
-95 24 -42 23 -76 40 -76 37 0 -2 34 -26 74 -53 41 -27 77 -57 79 -66 3 -11
44 -29 132 -57 80 -25 150 -55 189 -79 33 -22 84 -45 112 -52 47 -10 52 -15
62 -48 15 -49 42 -281 42 -360 0 -49 6 -75 29 -120 47 -94 47 -95 1 -174 -39
-68 -42 -80 -56 -202 -13 -121 -11 -204 6 -251 4 -12 50 -53 101 -92 l94 -71
178 -12 c150 -10 277 -9 825 10 356 11 661 23 679 26 l32 5 -5 202 c-7 264
-30 680 -58 1042 l-22 290 33 164 c34 163 34 166 24 306 -9 130 -8 148 10 208
l19 65 -61 96 c-61 96 -62 96 -209 196 -108 73 -165 119 -211 171 -72 81 -263
223 -355 264 -32 15 -97 41 -144 58 -85 30 -196 102 -251 163 -15 16 -59 90
-98 164 -67 128 -74 138 -145 195 -71 56 -80 61 -153 72 -100 15 -120 15 -166
-2z"/>
</g>
</svg>
