<?xml version="1.0" standalone="no"?>
<!DOCTYPE svg PUBLIC "-//W3C//DTD SVG 20010904//EN"
 "http://www.w3.org/TR/2001/REC-SVG-20010904/DTD/svg10.dtd">
<svg version="1.0" xmlns="http://www.w3.org/2000/svg"
 width="30.000000pt" height="45.000000pt" viewBox="0 0 30.000000 45.000000"
 preserveAspectRatio="xMidYMid meet">
<metadata>
Created by potrace 1.14, written by Peter Selinger 2001-2017
</metadata>
<g transform="translate(0.000000,45.000000) scale(0.100000,-0.100000)"
fill="#000000" stroke="none">
<path fill="#000000" stroke="none" d="M119 408 c-15 -24 -46 -74 -70 -113
l-43 -70 -4 -112 -4 -113 38 0 c86 0 144 13 169 36 20 19 24 28 16 42 -6 10
-8 28 -5 39 3 11 -1 34 -10 51 -14 28 -14 32 0 46 8 9 20 16 25 16 5 0 9 14 9
30 0 20 5 30 15 30 20 0 48 45 41 68 -4 10 -21 35 -40 55 -28 30 -41 37 -72
37 -35 0 -42 -4 -65 -42z"/>
</g>
</svg>
