<?xml version="1.0" standalone="no"?>
<!DOCTYPE svg PUBLIC "-//W3C//DTD SVG 20010904//EN"
 "http://www.w3.org/TR/2001/REC-SVG-20010904/DTD/svg10.dtd">
<svg version="1.0" xmlns="http://www.w3.org/2000/svg"
 width="351.000000pt" height="532.000000pt" viewBox="0 0 351.000000 532.000000"
 preserveAspectRatio="xMidYMid meet">
<metadata>
Created by potrace 1.14, written by Peter Selinger 2001-2017
</metadata>
<g transform="translate(0.000000,532.000000) scale(0.100000,-0.100000)"
fill="#000000" stroke="none">
<path fill="#000000" stroke="none" d="M1450 5310 c-19 -4 -112 -22 -206 -40
l-172 -32 -41 -143 c-31 -110 -41 -162 -41 -217 0 -40 -11 -166 -24 -279 l-25
-206 29 -114 c16 -63 26 -117 22 -120 -4 -3 -27 -17 -51 -30 l-43 -24 -90 95
c-49 52 -153 173 -230 268 -100 122 -153 179 -181 194 l-39 20 -28 -27 c-28
-26 -30 -27 -79 -15 -28 7 -51 14 -51 17 0 3 11 18 25 35 42 49 30 68 -32 50
-11 -4 -60 -49 -108 -100 l-88 -93 33 -72 c18 -40 34 -73 35 -74 1 -2 16 1 33
6 31 9 32 8 32 -19 0 -16 5 -32 10 -35 15 -9 12 -72 -5 -89 -13 -13 -13 -19 4
-58 11 -24 88 -140 173 -258 l153 -215 88 -46 c79 -40 92 -52 131 -110 39 -58
49 -66 102 -85 53 -19 63 -19 92 -7 18 7 38 10 45 6 39 -24 257 -218 257 -229
0 -7 -9 -53 -21 -101 -19 -77 -21 -115 -19 -305 2 -243 6 -230 -69 -208 l-33
9 5 -62 c4 -34 12 -89 20 -122 17 -75 8 -109 -35 -124 -17 -6 -39 -11 -48 -11
-12 0 -21 -13 -28 -42 -10 -37 -5 -66 40 -252 l50 -211 -79 -910 c-44 -501
-79 -911 -79 -911 1 -1 343 -4 762 -8 l760 -6 37 207 37 208 0 315 c0 312 0
317 -37 560 l-37 245 33 555 c38 662 37 653 62 669 18 10 33 -1 152 -113 172
-163 247 -256 268 -333 14 -54 14 -63 -1 -123 -10 -36 -32 -94 -49 -130 -45
-93 -42 -107 29 -174 69 -63 88 -70 166 -64 59 5 49 -1 246 150 175 136 167
126 185 222 l17 85 -33 148 c-18 81 -61 233 -95 337 l-61 190 -123 110 c-92
83 -134 129 -166 181 l-42 70 7 93 8 93 -116 274 c-112 263 -119 277 -165 316
-46 39 -54 41 -202 69 -84 15 -196 31 -247 35 -92 6 -297 42 -311 54 -15 13
24 176 59 245 l35 70 -27 161 c-26 150 -31 167 -82 265 -45 87 -67 117 -129
176 -67 63 -88 76 -180 113 -106 41 -131 45 -194 31z"/>
</g>
</svg>
