<?xml version="1.0" standalone="no"?>
<!DOCTYPE svg PUBLIC "-//W3C//DTD SVG 20010904//EN"
 "http://www.w3.org/TR/2001/REC-SVG-20010904/DTD/svg10.dtd">
<svg version="1.0" xmlns="http://www.w3.org/2000/svg"
 width="215.000000pt" height="310.000000pt" viewBox="0 0 215.000000 310.000000"
 preserveAspectRatio="xMidYMid meet">
<metadata>
Created by potrace 1.14, written by Peter Selinger 2001-2017
</metadata>
<g transform="translate(0.000000,310.000000) scale(0.100000,-0.100000)"
fill="#000000" stroke="none">
<path fill="#000000" stroke="none" d="M879 2983 l-121 -118 5 -71 c3 -43 13
-88 26 -112 12 -23 21 -58 21 -78 0 -20 9 -68 21 -106 11 -39 19 -71 17 -73
-2 -1 -115 -48 -252 -103 -190 -76 -254 -106 -268 -126 -13 -17 -37 -115 -74
-298 -30 -150 -54 -274 -54 -275 0 -1 -8 -3 -17 -5 -26 -5 -124 -724 -157
-1147 -23 -295 -24 -319 -9 -385 8 -39 19 -75 23 -80 5 -4 122 11 263 35 l256
43 37 97 c30 75 45 101 70 118 18 13 30 29 28 36 -3 7 8 21 25 31 17 10 31 22
31 26 0 4 7 8 15 8 8 0 15 -4 15 -10 0 -17 77 -50 116 -50 59 0 216 22 245 34
14 6 56 46 93 88 65 76 116 117 184 152 32 17 35 17 53 0 25 -22 25 -83 0
-163 l-19 -60 32 5 c73 12 73 12 79 51 6 32 3 41 -15 55 l-22 16 25 12 25 11
-23 107 c-12 59 -23 131 -23 160 0 30 -14 113 -30 184 -17 72 -29 133 -27 135
6 5 170 -390 208 -499 18 -54 36 -98 39 -98 3 1 26 20 52 43 l46 42 -8 55 c-6
43 -5 58 6 66 8 6 14 16 14 22 0 6 17 9 42 7 l42 -3 23 -67 c12 -38 24 -69 25
-70 9 -7 182 22 185 31 2 6 -59 62 -135 123 -77 61 -147 122 -156 136 -14 22
-40 127 -155 625 -10 47 -20 103 -20 126 0 22 -10 139 -20 260 -23 257 -38
304 -117 371 l-47 41 41 115 c33 92 42 135 48 215 l7 99 -77 135 c-42 74 -82
142 -89 152 -18 24 -161 46 -305 46 l-122 0 -121 -117z"/>
</g>
</svg>
