<?xml version="1.0" standalone="no"?>
<!DOCTYPE svg PUBLIC "-//W3C//DTD SVG 20010904//EN"
 "http://www.w3.org/TR/2001/REC-SVG-20010904/DTD/svg10.dtd">
<svg version="1.0" xmlns="http://www.w3.org/2000/svg"
 width="350.000000pt" height="493.000000pt" viewBox="0 0 350.000000 493.000000"
 preserveAspectRatio="xMidYMid meet">
<metadata>
Created by potrace 1.14, written by Peter Selinger 2001-2017
</metadata>
<g transform="translate(0.000000,493.000000) scale(0.100000,-0.100000)"
fill="#000000" stroke="none">
<path fill="#000000" stroke="none" d="M1715 4920 c-88 -4 -210 -15 -271 -25
l-110 -18 -53 -231 -53 -231 128 -220 c70 -121 153 -251 184 -290 45 -54 60
-82 69 -124 6 -30 10 -55 9 -56 -2 -1 -132 92 -290 208 l-288 211 -135 268
-136 268 -86 0 c-73 0 -92 -4 -134 -27 -27 -14 -48 -28 -46 -30 2 -1 28 -7 58
-13 30 -6 67 -15 82 -22 27 -11 28 -13 22 -57 -4 -25 -10 -49 -14 -53 -4 -4
-46 24 -93 63 l-87 70 -57 -29 -57 -29 -44 -148 -44 -148 78 -79 c112 -113
237 -211 504 -393 l234 -159 149 -241 149 -240 -2 -85 c-1 -49 -8 -93 -15
-105 -7 -11 -127 -136 -266 -278 l-253 -258 -98 183 -98 183 -93 372 c-83 334
-94 370 -110 362 -9 -5 -33 -9 -53 -9 -20 0 -53 -9 -75 -20 -22 -11 -44 -20
-49 -20 -14 0 -44 59 -38 74 3 7 37 19 77 26 58 11 78 11 106 1 20 -7 37 -11
40 -9 5 6 -42 178 -60 220 -7 18 -41 59 -74 91 l-59 59 -81 5 -82 6 -6 35 c-7
38 9 118 33 165 18 37 14 41 -27 24 -26 -12 -38 -28 -66 -91 l-34 -77 0 -180
c0 -129 4 -189 14 -212 7 -18 47 -84 88 -147 72 -112 75 -119 107 -255 69
-299 209 -751 329 -1060 64 -165 117 -302 119 -304 2 -3 81 8 175 23 156 25
182 32 273 75 87 42 126 70 305 221 l205 173 6 -99 c4 -54 23 -196 44 -314 32
-187 36 -228 31 -316 l-6 -101 41 -7 41 -7 -7 -37 c-6 -30 -12 -132 -15 -216
0 -10 -16 -34 -36 -53 -34 -32 -37 -39 -45 -121 -5 -48 -14 -97 -19 -110 -6
-13 -10 -44 -10 -70 0 -58 -47 -171 -71 -172 -11 0 -26 -25 -45 -75 -18 -47
-34 -75 -44 -75 -16 -1 -265 -518 -254 -529 3 -3 368 -11 810 -18 l806 -13 56
34 c117 71 140 95 351 371 l212 277 21 250 20 251 -158 1156 -157 1156 -180
335 -180 335 -152 155 c-84 85 -209 221 -279 302 -69 80 -154 171 -189 201
-58 51 -70 58 -164 81 -56 14 -117 25 -135 24 -18 -1 -105 -4 -193 -8z"/>
<path fill="#ffffff" stroke="none" d="M295 3798 l20 -20 -30 7 c-38 11 -91 8
-115 -5 -19 -10 -19 -9 -2 20 16 29 19 31 62 25 25 -4 54 -15 65 -27z"/>
</g>
</svg>
