<?xml version="1.0" standalone="no"?>
<!DOCTYPE svg PUBLIC "-//W3C//DTD SVG 20010904//EN"
 "http://www.w3.org/TR/2001/REC-SVG-20010904/DTD/svg10.dtd">
<svg version="1.0" xmlns="http://www.w3.org/2000/svg"
 width="93.000000pt" height="142.000000pt" viewBox="0 0 93.000000 142.000000"
 preserveAspectRatio="xMidYMid meet">
<metadata>
Created by potrace 1.14, written by Peter Selinger 2001-2017
</metadata>
<g transform="translate(0.000000,142.000000) scale(0.100000,-0.100000)"
fill="#000000" stroke="none">
<path fill="#000000" stroke="none" d="M198 1413 c-113 -4 -117 -4 -134 -30
-13 -20 -18 -56 -22 -145 -4 -95 -8 -120 -22 -133 -17 -15 -16 -18 11 -45 16
-16 29 -35 29 -44 0 -22 32 -80 133 -245 97 -159 118 -221 97 -287 -17 -51 1
-111 62 -215 38 -65 60 -91 85 -103 33 -15 36 -15 62 3 31 22 68 18 88 -8 7
-9 13 -47 13 -89 l0 -73 38 7 c84 15 104 27 121 71 19 50 72 108 123 134 35
18 37 21 44 86 10 95 -10 240 -47 353 -28 82 -40 103 -88 154 -33 34 -81 71
-116 88 -33 17 -72 39 -86 49 -14 10 -36 20 -50 24 -24 6 -25 8 -18 58 17 121
12 159 -36 263 -59 127 -66 135 -124 132 -25 -1 -98 -4 -163 -5z"/>
</g>
</svg>
