<?xml version="1.0" standalone="no"?>
<!DOCTYPE svg PUBLIC "-//W3C//DTD SVG 20010904//EN"
 "http://www.w3.org/TR/2001/REC-SVG-20010904/DTD/svg10.dtd">
<svg version="1.0" xmlns="http://www.w3.org/2000/svg"
 width="15.000000pt" height="23.000000pt" viewBox="0 0 15.000000 23.000000"
 preserveAspectRatio="xMidYMid meet">
<metadata>
Created by potrace 1.14, written by Peter Selinger 2001-2017
</metadata>
<g transform="translate(0.000000,23.000000) scale(0.100000,-0.100000)"
fill="#000000" stroke="none">
<path fill="#000000" stroke="none" d="M54 215 c-3 -8 -3 -19 0 -24 4 -6 -2
-14 -11 -20 -10 -5 -24 -30 -31 -56 -11 -40 -10 -50 1 -64 8 -9 17 -24 20 -34
6 -16 9 -16 26 -5 33 24 86 102 83 124 -2 12 -13 27 -26 33 -17 9 -22 19 -18
37 3 19 0 24 -17 24 -12 0 -24 -7 -27 -15z"/>
</g>
</svg>
