<?xml version="1.0" standalone="no"?>
<!DOCTYPE svg PUBLIC "-//W3C//DTD SVG 20010904//EN"
 "http://www.w3.org/TR/2001/REC-SVG-20010904/DTD/svg10.dtd">
<svg version="1.0" xmlns="http://www.w3.org/2000/svg"
 width="21.000000pt" height="29.000000pt" viewBox="0 0 21.000000 29.000000"
 preserveAspectRatio="xMidYMid meet">
<metadata>
Created by potrace 1.14, written by Peter Selinger 2001-2017
</metadata>
<g transform="translate(0.000000,29.000000) scale(0.100000,-0.100000)"
fill="#000000" stroke="none">
<path fill="#000000" stroke="none" d="M83 268 c-28 -31 -51 -80 -46 -96 3 -6
-5 -32 -16 -55 -12 -24 -21 -49 -21 -55 0 -14 16 -16 25 -2 7 11 55 -8 55 -22
0 -5 16 -8 34 -6 22 1 42 -5 54 -15 10 -9 24 -17 30 -17 17 0 15 52 -3 76 -15
20 -20 75 -8 88 4 3 7 27 8 52 0 35 -4 49 -19 60 -30 21 -70 17 -93 -8z"/>
</g>
</svg>
