<?xml version="1.0" standalone="no"?>
<!DOCTYPE svg PUBLIC "-//W3C//DTD SVG 20010904//EN"
 "http://www.w3.org/TR/2001/REC-SVG-20010904/DTD/svg10.dtd">
<svg version="1.0" xmlns="http://www.w3.org/2000/svg"
 width="132.000000pt" height="194.000000pt" viewBox="0 0 132.000000 194.000000"
 preserveAspectRatio="xMidYMid meet">
<metadata>
Created by potrace 1.14, written by Peter Selinger 2001-2017
</metadata>
<g transform="translate(0.000000,194.000000) scale(0.100000,-0.100000)"
fill="#000000" stroke="none">
<path fill="#000000" stroke="none" d="M625 1910 c-9 -18 -14 -42 -11 -55 4
-15 1 -25 -10 -29 -11 -4 -15 -16 -12 -38 2 -23 -10 -58 -36 -111 -21 -43 -40
-96 -43 -118 -3 -21 -9 -39 -13 -39 -4 0 -17 -37 -29 -82 -12 -46 -41 -138
-63 -204 l-42 -121 -80 -7 c-45 -3 -120 -6 -168 -6 -121 0 -118 5 -118 -227
l0 -182 41 -28 c33 -23 52 -51 108 -163 37 -74 85 -180 106 -235 20 -55 43
-105 49 -111 6 -7 110 -36 231 -65 l220 -52 140 15 140 16 39 -30 c24 -20 54
-32 81 -36 l44 -4 -31 59 -32 60 69 364 c63 336 70 387 91 669 l23 305 -65
180 -66 180 -96 58 -96 59 -177 5 -177 6 -17 -33z"/>
</g>
</svg>
