<?xml version="1.0" standalone="no"?>
<!DOCTYPE svg PUBLIC "-//W3C//DTD SVG 20010904//EN"
 "http://www.w3.org/TR/2001/REC-SVG-20010904/DTD/svg10.dtd">
<svg version="1.0" xmlns="http://www.w3.org/2000/svg"
 width="20.000000pt" height="27.000000pt" viewBox="0 0 20.000000 27.000000"
 preserveAspectRatio="xMidYMid meet">
<metadata>
Created by potrace 1.14, written by Peter Selinger 2001-2017
</metadata>
<g transform="translate(0.000000,27.000000) scale(0.100000,-0.100000)"
fill="#000000" stroke="none">
<path fill="#000000" stroke="none" d="M62 258 c-7 -7 -12 -25 -12 -40 0 -15
-4 -28 -8 -28 -5 0 -17 -6 -27 -14 -19 -13 -17 -16 25 -62 25 -27 68 -63 97
-80 50 -31 51 -31 57 -10 15 54 -15 157 -50 170 -8 3 -14 14 -14 24 0 19 -29
52 -46 52 -6 0 -15 -5 -22 -12z"/>
</g>
</svg>
