<?xml version="1.0" standalone="no"?>
<!DOCTYPE svg PUBLIC "-//W3C//DTD SVG 20010904//EN"
 "http://www.w3.org/TR/2001/REC-SVG-20010904/DTD/svg10.dtd">
<svg version="1.0" xmlns="http://www.w3.org/2000/svg"
 width="51.000000pt" height="72.000000pt" viewBox="0 0 51.000000 72.000000"
 preserveAspectRatio="xMidYMid meet">
<metadata>
Created by potrace 1.14, written by Peter Selinger 2001-2017
</metadata>
<g transform="translate(0.000000,72.000000) scale(0.100000,-0.100000)"
fill="#000000" stroke="none">
<path fill="#000000" stroke="none" d="M141 681 c-44 -55 -56 -138 -36 -242 8
-45 15 -82 15 -84 0 -1 -22 -5 -49 -9 l-49 -6 -11 -51 c-15 -69 -17 -65 36
-85 27 -10 67 -33 90 -51 24 -19 69 -43 101 -54 32 -11 85 -37 117 -58 64 -43
60 -43 124 12 l33 27 -11 68 c-13 74 -38 147 -75 219 -14 26 -32 85 -42 130
-16 75 -21 86 -64 128 -26 26 -70 57 -98 70 l-51 24 -30 -38z"/>
</g>
</svg>
