<?xml version="1.0" standalone="no"?>
<!DOCTYPE svg PUBLIC "-//W3C//DTD SVG 20010904//EN"
 "http://www.w3.org/TR/2001/REC-SVG-20010904/DTD/svg10.dtd">
<svg version="1.0" xmlns="http://www.w3.org/2000/svg"
 width="26.000000pt" height="40.000000pt" viewBox="0 0 26.000000 40.000000"
 preserveAspectRatio="xMidYMid meet">
<metadata>
Created by potrace 1.14, written by Peter Selinger 2001-2017
</metadata>
<g transform="translate(0.000000,40.000000) scale(0.100000,-0.100000)"
fill="#000000" stroke="none">
<path fill="#000000" stroke="none" d="M7 393 c-4 -3 -7 -22 -7 -42 1 -37 15
-64 37 -72 10 -3 9 -11 -2 -33 -27 -52 -21 -61 107 -158 109 -82 120 -88 101
-57 -11 20 -26 53 -33 75 -20 62 -70 168 -82 175 -7 4 -14 22 -16 40 -6 51
-29 79 -66 79 -18 0 -36 -3 -39 -7z"/>
</g>
</svg>
