<?xml version="1.0" standalone="no"?>
<!DOCTYPE svg PUBLIC "-//W3C//DTD SVG 20010904//EN"
 "http://www.w3.org/TR/2001/REC-SVG-20010904/DTD/svg10.dtd">
<svg version="1.0" xmlns="http://www.w3.org/2000/svg"
 width="19.000000pt" height="28.000000pt" viewBox="0 0 19.000000 28.000000"
 preserveAspectRatio="xMidYMid meet">
<metadata>
Created by potrace 1.14, written by Peter Selinger 2001-2017
</metadata>
<g transform="translate(0.000000,28.000000) scale(0.100000,-0.100000)"
fill="#000000" stroke="none">
<path fill="#000000" stroke="none" d="M55 231 c-5 -36 -12 -52 -25 -56 -19
-6 -30 -44 -30 -104 0 -30 5 -40 29 -54 28 -16 29 -16 34 4 5 18 12 21 41 17
29 -3 41 1 61 22 25 26 25 27 9 67 -9 23 -26 45 -37 50 -18 8 -21 17 -18 51 2
32 -1 42 -12 42 -9 0 -22 3 -30 6 -12 4 -17 -6 -22 -45z"/>
</g>
</svg>
