<?xml version="1.0" standalone="no"?>
<!DOCTYPE svg PUBLIC "-//W3C//DTD SVG 20010904//EN"
 "http://www.w3.org/TR/2001/REC-SVG-20010904/DTD/svg10.dtd">
<svg version="1.0" xmlns="http://www.w3.org/2000/svg"
 width="21.000000pt" height="30.000000pt" viewBox="0 0 21.000000 30.000000"
 preserveAspectRatio="xMidYMid meet">
<metadata>
Created by potrace 1.14, written by Peter Selinger 2001-2017
</metadata>
<g transform="translate(0.000000,30.000000) scale(0.100000,-0.100000)"
fill="#000000" stroke="none">
<path fill="#000000" stroke="none" d="M87 273 c-7 -15 -14 -44 -16 -63 -1
-19 -10 -49 -21 -67 -11 -18 -26 -58 -34 -88 -13 -52 -13 -55 4 -55 10 0 20 6
23 13 3 7 22 18 43 25 32 9 41 9 55 -4 19 -17 46 -10 53 14 19 63 18 93 -4
129 -12 21 -28 56 -34 78 -15 51 -48 60 -69 18z"/>
</g>
</svg>
