<?xml version="1.0" standalone="no"?>
<!DOCTYPE svg PUBLIC "-//W3C//DTD SVG 20010904//EN"
 "http://www.w3.org/TR/2001/REC-SVG-20010904/DTD/svg10.dtd">
<svg version="1.0" xmlns="http://www.w3.org/2000/svg"
 width="189.000000pt" height="288.000000pt" viewBox="0 0 189.000000 288.000000"
 preserveAspectRatio="xMidYMid meet">
<metadata>
Created by potrace 1.14, written by Peter Selinger 2001-2017
</metadata>
<g transform="translate(0.000000,288.000000) scale(0.100000,-0.100000)"
fill="#000000" stroke="none">
<path fill="#000000" stroke="none" d="M910 2755 l-165 -124 -6 -103 c-4 -57
-10 -239 -14 -405 l-8 -302 -66 -22 c-36 -12 -127 -48 -202 -81 l-137 -60 -31
-70 c-17 -39 -31 -81 -31 -93 0 -13 -27 -79 -61 -149 -53 -109 -64 -144 -89
-268 -15 -79 -44 -200 -64 -269 -34 -116 -36 -130 -27 -192 5 -38 21 -89 38
-119 l28 -53 106 -10 106 -10 -25 -65 c-13 -36 -24 -82 -23 -103 0 -21 -6 -86
-14 -144 -8 -59 -15 -107 -15 -108 0 -1 69 22 152 52 l153 55 395 29 c217 16
450 29 518 28 l122 -1 0 70 0 70 77 19 c90 22 92 25 162 193 38 91 40 106 70
370 31 271 31 277 15 360 -12 64 -15 127 -13 254 l4 168 -94 42 c-85 38 -98
47 -133 96 l-38 55 27 155 26 155 -58 175 c-32 96 -80 236 -107 311 l-49 136
-174 41 c-95 23 -177 42 -182 41 -4 0 -82 -56 -173 -124z"/>
</g>
</svg>
