<?xml version="1.0" standalone="no"?>
<!DOCTYPE svg PUBLIC "-//W3C//DTD SVG 20010904//EN"
 "http://www.w3.org/TR/2001/REC-SVG-20010904/DTD/svg10.dtd">
<svg version="1.0" xmlns="http://www.w3.org/2000/svg"
 width="61.000000pt" height="93.000000pt" viewBox="0 0 61.000000 93.000000"
 preserveAspectRatio="xMidYMid meet">
<metadata>
Created by potrace 1.14, written by Peter Selinger 2001-2017
</metadata>
<g transform="translate(0.000000,93.000000) scale(0.100000,-0.100000)"
fill="#000000" stroke="none">
<path fill="#000000" stroke="none" d="M88 923 c-15 -4 -18 -16 -19 -71 0 -37
-4 -75 -8 -86 -4 -12 1 -35 16 -64 34 -67 30 -82 -27 -121 -28 -19 -50 -36
-50 -38 0 -2 13 -30 30 -63 16 -33 30 -67 30 -77 0 -10 9 -29 19 -42 l18 -24
18 52 c18 56 32 67 94 77 51 8 114 -17 129 -51 6 -13 14 -55 18 -93 6 -68 5
-72 -23 -109 -31 -40 -57 -83 -51 -87 36 -22 78 -60 83 -75 5 -18 17 -18 103
5 8 2 12 24 12 65 0 61 0 62 19 45 13 -12 22 -38 27 -75 4 -31 10 -64 13 -74
6 -16 9 -15 31 8 24 26 24 26 7 74 -9 27 -17 58 -17 69 0 29 21 72 35 72 21 0
0 126 -29 170 -14 22 -26 50 -26 62 0 23 -83 120 -98 116 -4 -2 -44 13 -89 31
l-83 35 0 92 c0 124 -7 152 -41 169 -26 14 -103 18 -141 8z"/>
</g>
</svg>
