<?xml version="1.0" standalone="no"?>
<!DOCTYPE svg PUBLIC "-//W3C//DTD SVG 20010904//EN"
 "http://www.w3.org/TR/2001/REC-SVG-20010904/DTD/svg10.dtd">
<svg version="1.0" xmlns="http://www.w3.org/2000/svg"
 width="69.000000pt" height="99.000000pt" viewBox="0 0 69.000000 99.000000"
 preserveAspectRatio="xMidYMid meet">
<metadata>
Created by potrace 1.14, written by Peter Selinger 2001-2017
</metadata>
<g transform="translate(0.000000,99.000000) scale(0.100000,-0.100000)"
fill="#000000" stroke="none">
<path fill="#000000" stroke="none" d="M435 980 c-16 -4 -75 -30 -130 -58
l-100 -50 -63 -106 -64 -105 -12 -142 -12 -142 29 -36 29 -36 -34 -3 c-18 -1
-43 -5 -55 -7 -21 -5 -20 -6 10 -37 18 -18 35 -32 39 -31 3 2 9 -15 13 -36 5
-30 0 -55 -23 -112 l-29 -74 76 -3 c42 -2 95 2 118 7 23 6 122 13 220 16 98 4
193 8 211 11 l32 5 0 263 c0 144 -3 358 -7 474 l-6 212 -106 -1 c-58 -1 -119
-4 -136 -9z"/>
</g>
</svg>
