<?xml version="1.0" standalone="no"?>
<!DOCTYPE svg PUBLIC "-//W3C//DTD SVG 20010904//EN"
 "http://www.w3.org/TR/2001/REC-SVG-20010904/DTD/svg10.dtd">
<svg version="1.0" xmlns="http://www.w3.org/2000/svg"
 width="100.000000pt" height="150.000000pt" viewBox="0 0 100.000000 150.000000"
 preserveAspectRatio="xMidYMid meet">
<metadata>
Created by potrace 1.14, written by Peter Selinger 2001-2017
</metadata>
<g transform="translate(0.000000,150.000000) scale(0.100000,-0.100000)"
fill="#000000" stroke="none">
<path fill="#000000" stroke="none" d="M49 1473 c-37 -25 -46 -47 -48 -109 -1
-39 2 -44 46 -73 99 -65 100 -67 94 -150 l-6 -74 76 -101 c41 -56 81 -112 88
-125 11 -20 18 -22 52 -17 32 5 40 3 50 -15 9 -18 1 -51 -51 -200 l-62 -179
43 -43 c24 -23 72 -84 107 -135 51 -74 60 -93 48 -98 -44 -17 14 -44 95 -44
41 0 58 3 53 11 -4 8 0 9 15 4 35 -11 26 13 -46 120 -61 91 -93 163 -93 204 0
9 13 31 29 50 l28 34 -7 -44 c-3 -24 -2 -61 3 -82 8 -33 13 -37 41 -37 28 0
40 -11 115 -110 46 -61 87 -110 92 -110 5 0 9 -15 9 -34 0 -31 4 -36 36 -48
32 -11 35 -16 30 -40 -4 -19 -1 -28 7 -28 20 0 107 94 107 116 0 11 -18 38
-41 59 -22 22 -63 82 -90 133 -28 51 -62 106 -75 122 -25 30 -25 30 -14 127 8
58 24 129 42 175 27 70 28 80 17 124 -8 32 -32 71 -74 123 -71 88 -202 301
-235 382 l-23 57 -62 6 c-60 6 -114 -4 -143 -27 -10 -8 -25 2 -60 36 -40 39
-55 47 -103 55 -50 8 -59 6 -90 -15z"/>
</g>
</svg>
