<?xml version="1.0" standalone="no"?>
<!DOCTYPE svg PUBLIC "-//W3C//DTD SVG 20010904//EN"
 "http://www.w3.org/TR/2001/REC-SVG-20010904/DTD/svg10.dtd">
<svg version="1.0" xmlns="http://www.w3.org/2000/svg"
 width="37.000000pt" height="50.000000pt" viewBox="0 0 37.000000 50.000000"
 preserveAspectRatio="xMidYMid meet">
<metadata>
Created by potrace 1.14, written by Peter Selinger 2001-2017
</metadata>
<g transform="translate(0.000000,50.000000) scale(0.100000,-0.100000)"
fill="#000000" stroke="none">
<path fill="#000000" stroke="none" d="M105 480 c-64 -21 -76 -52 -51 -137 13
-47 14 -60 3 -68 -7 -5 -22 -26 -33 -45 -16 -29 -19 -49 -16 -117 l4 -82 76
-13 c70 -13 80 -12 113 4 20 9 39 26 42 38 3 11 13 20 25 20 11 0 38 15 60 32
l41 33 0 84 c1 72 -1 82 -15 77 -9 -3 -19 -6 -24 -6 -5 0 -12 -20 -15 -44 -5
-33 -11 -43 -21 -39 -21 8 -38 54 -59 159 -17 85 -21 93 -49 106 -28 13 -37
13 -81 -2z"/>
</g>
</svg>
