<?xml version="1.0" standalone="no"?>
<!DOCTYPE svg PUBLIC "-//W3C//DTD SVG 20010904//EN"
 "http://www.w3.org/TR/2001/REC-SVG-20010904/DTD/svg10.dtd">
<svg version="1.0" xmlns="http://www.w3.org/2000/svg"
 width="423.000000pt" height="572.000000pt" viewBox="0 0 423.000000 572.000000"
 preserveAspectRatio="xMidYMid meet">
<metadata>
Created by potrace 1.14, written by Peter Selinger 2001-2017
</metadata>
<g transform="translate(0.000000,572.000000) scale(0.100000,-0.100000)"
fill="#000000" stroke="none">
<path fill="#000000" stroke="none" d="M1919 5672 c-142 -88 -202 -159 -316
-372 -105 -197 -169 -365 -242 -633 -38 -141 -74 -282 -80 -314 -8 -45 -37
-826 -39 -1058 0 -22 -3 -66 -7 -97 l-7 -58 -47 -1 c-25 0 -62 -7 -81 -14 -33
-14 -32 -14 40 -9 41 3 81 7 87 9 10 3 334 -266 415 -344 12 -11 59 -208 158
-657 77 -352 140 -645 140 -651 0 -6 -129 -79 -287 -161 -220 -115 -330 -166
-467 -216 -99 -36 -183 -66 -188 -66 -5 0 10 27 32 60 53 78 150 355 236 675
36 132 90 328 121 435 l56 195 -17 220 c-9 121 -19 241 -23 266 l-5 46 -157
50 -156 50 -130 -44 -130 -44 -115 -144 c-67 -84 -122 -145 -132 -145 -25 0
-52 -53 -183 -345 -63 -143 -128 -285 -144 -315 -38 -74 -160 -407 -163 -445
-1 -23 17 -59 76 -150 l78 -119 -116 -426 c-63 -234 -117 -435 -118 -447 -2
-12 5 -28 15 -35 16 -12 16 -22 3 -173 -7 -88 -12 -162 -9 -165 3 -3 201 -6
441 -8 l437 -3 247 144 c230 135 261 157 457 321 116 97 214 176 218 176 10
-1 80 -60 71 -60 -4 0 -18 4 -32 10 -23 8 -10 -21 115 -271 77 -155 138 -283
136 -286 -5 -4 -456 -21 -647 -24 -66 -1 -77 -3 -50 -9 44 -10 2220 -24 2220
-14 0 10 159 1004 166 1036 5 25 10 28 49 28 39 0 63 12 202 101 87 56 163
105 168 110 17 13 -10 408 -52 766 l-37 322 -95 187 -96 188 -160 83 -160 82
-12 -35 c-7 -20 -21 -81 -32 -137 -10 -56 -42 -176 -69 -267 -31 -103 -53
-193 -56 -240 -4 -41 -14 -114 -23 -161 l-17 -87 -73 -12 c-54 -8 -76 -16 -83
-31 -10 -18 -24 -19 -250 -19 -132 0 -240 2 -240 5 0 2 15 33 34 67 22 41 36
82 39 118 3 30 50 208 105 395 55 187 106 365 112 396 6 31 19 63 28 72 25 21
94 27 202 17 52 -5 127 -11 165 -15 l70 -6 -100 71 c-69 49 -99 77 -97 88 2 9
30 114 62 232 90 326 89 317 105 760 l14 397 -114 413 c-62 227 -119 418 -126
425 -8 7 -118 80 -246 162 l-231 150 -204 27 -203 28 -83 -21 -83 -22 -95 21
c-51 11 -99 20 -106 19 -7 0 -47 -22 -89 -47z"/>
</g>
</svg>
