<?xml version="1.0" standalone="no"?>
<!DOCTYPE svg PUBLIC "-//W3C//DTD SVG 20010904//EN"
 "http://www.w3.org/TR/2001/REC-SVG-20010904/DTD/svg10.dtd">
<svg version="1.0" xmlns="http://www.w3.org/2000/svg"
 width="22.000000pt" height="32.000000pt" viewBox="0 0 22.000000 32.000000"
 preserveAspectRatio="xMidYMid meet">
<metadata>
Created by potrace 1.14, written by Peter Selinger 2001-2017
</metadata>
<g transform="translate(0.000000,32.000000) scale(0.100000,-0.100000)"
fill="#000000" stroke="none">
<path fill="#000000" stroke="none" d="M58 303 c-9 -11 -16 -37 -16 -63 -1
-34 -6 -48 -21 -59 -17 -11 -21 -24 -21 -75 0 -104 2 -106 79 -106 36 0 83 3
105 7 l38 6 -4 73 c-2 54 -8 77 -20 86 -22 17 -52 98 -36 98 6 0 1 11 -12 25
-28 29 -70 33 -92 8z"/>
</g>
</svg>
