<?xml version="1.0" standalone="no"?>
<!DOCTYPE svg PUBLIC "-//W3C//DTD SVG 20010904//EN"
 "http://www.w3.org/TR/2001/REC-SVG-20010904/DTD/svg10.dtd">
<svg version="1.0" xmlns="http://www.w3.org/2000/svg"
 width="46.000000pt" height="67.000000pt" viewBox="0 0 46.000000 67.000000"
 preserveAspectRatio="xMidYMid meet">
<metadata>
Created by potrace 1.14, written by Peter Selinger 2001-2017
</metadata>
<g transform="translate(0.000000,67.000000) scale(0.100000,-0.100000)"
fill="#000000" stroke="none">
<path fill="#000000" stroke="none" d="M222 657 c-22 -10 -23 -15 -17 -56 4
-25 13 -53 21 -62 13 -15 9 -22 -41 -67 -52 -46 -57 -53 -53 -87 3 -36 1 -38
-57 -70 -66 -37 -72 -48 -74 -146 -1 -51 1 -57 30 -78 27 -20 31 -28 26 -58
l-6 -34 42 3 42 3 5 62 c6 78 16 88 25 26 12 -90 14 -93 49 -93 31 0 33 2 51
72 13 48 19 103 18 159 l-1 87 40 5 c48 6 108 -1 127 -17 11 -9 12 -5 7 19 -3
17 -10 55 -15 86 -14 82 -72 196 -116 225 -36 24 -78 32 -103 21z"/>
</g>
</svg>
