<?xml version="1.0" standalone="no"?>
<!DOCTYPE svg PUBLIC "-//W3C//DTD SVG 20010904//EN"
 "http://www.w3.org/TR/2001/REC-SVG-20010904/DTD/svg10.dtd">
<svg version="1.0" xmlns="http://www.w3.org/2000/svg"
 width="41.000000pt" height="56.000000pt" viewBox="0 0 41.000000 56.000000"
 preserveAspectRatio="xMidYMid meet">
<metadata>
Created by potrace 1.14, written by Peter Selinger 2001-2017
</metadata>
<g transform="translate(0.000000,56.000000) scale(0.100000,-0.100000)"
fill="#000000" stroke="none">
<path fill="#000000" stroke="none" d="M113 537 c-51 -25 -61 -56 -44 -138 10
-49 7 -68 -27 -214 -22 -88 -37 -166 -34 -173 3 -10 15 -12 41 -7 48 9 57 18
96 95 24 48 31 70 24 83 -7 12 -2 28 17 59 33 54 51 68 84 68 34 0 50 -33 50
-104 l0 -53 46 -10 46 -11 -6 32 c-3 17 -10 65 -16 106 -17 119 -17 120 -47
120 -20 0 -46 20 -107 84 l-81 85 -42 -22z"/>
</g>
</svg>
