<?xml version="1.0" standalone="no"?>
<!DOCTYPE svg PUBLIC "-//W3C//DTD SVG 20010904//EN"
 "http://www.w3.org/TR/2001/REC-SVG-20010904/DTD/svg10.dtd">
<svg version="1.0" xmlns="http://www.w3.org/2000/svg"
 width="197.000000pt" height="277.000000pt" viewBox="0 0 197.000000 277.000000"
 preserveAspectRatio="xMidYMid meet">
<metadata>
Created by potrace 1.14, written by Peter Selinger 2001-2017
</metadata>
<g transform="translate(0.000000,277.000000) scale(0.100000,-0.100000)"
fill="#000000" stroke="none">
<path fill="#000000" stroke="none" d="M1697 2733 c-13 -21 -50 -82 -82 -136
l-58 -98 -51 50 -52 51 -64 -21 c-36 -12 -91 -40 -122 -63 l-57 -41 0 -70 c0
-38 4 -90 9 -115 4 -25 8 -45 7 -46 -1 0 -30 4 -64 9 l-62 9 44 56 c64 81 47
93 -58 41 -34 -17 -101 -56 -149 -87 l-88 -57 0 -54 c0 -30 5 -70 12 -88 14
-38 1 -37 257 -33 l154 2 -21 -29 c-12 -17 -27 -34 -34 -40 -30 -24 -219 -122
-296 -153 -69 -29 -90 -43 -132 -90 -42 -49 -76 -72 -227 -155 -98 -54 -203
-116 -233 -139 -30 -23 -97 -61 -148 -84 -51 -23 -113 -57 -138 -74 l-45 -33
7 -65 c7 -72 13 -87 57 -143 19 -23 39 -37 53 -37 13 0 78 26 146 58 91 43
148 79 217 135 84 68 106 80 209 117 l115 41 36 -33 c19 -18 42 -42 49 -53 8
-11 52 -56 97 -100 l82 -80 17 -85 18 -85 -34 -28 c-18 -16 -105 -81 -193
-145 -150 -109 -333 -260 -381 -313 l-21 -24 56 -159 c53 -149 59 -162 96
-189 22 -16 52 -35 67 -43 l26 -14 22 73 c12 39 35 116 51 169 l30 97 317 282
317 283 -4 76 c-3 60 -10 88 -36 141 -31 60 -34 74 -36 172 l-3 107 70 63 70
63 100 18 99 17 105 142 c58 78 104 147 104 154 -1 7 -27 52 -57 100 l-56 89
12 45 c11 40 50 86 125 144 1 1 -6 42 -16 92 l-19 90 28 38 28 38 -28 41 c-16
23 -41 80 -56 128 l-27 86 -55 11 c-79 16 -80 15 -106 -26z"/>
</g>
</svg>
