<?xml version="1.0" standalone="no"?>
<!DOCTYPE svg PUBLIC "-//W3C//DTD SVG 20010904//EN"
 "http://www.w3.org/TR/2001/REC-SVG-20010904/DTD/svg10.dtd">
<svg version="1.0" xmlns="http://www.w3.org/2000/svg"
 width="17.000000pt" height="24.000000pt" viewBox="0 0 17.000000 24.000000"
 preserveAspectRatio="xMidYMid meet">
<metadata>
Created by potrace 1.14, written by Peter Selinger 2001-2017
</metadata>
<g transform="translate(0.000000,24.000000) scale(0.100000,-0.100000)"
fill="#000000" stroke="none">
<path fill="#000000" stroke="none" d="M25 229 c-4 -5 -4 -21 -1 -35 4 -15 1
-33 -7 -45 -11 -15 -12 -31 -5 -72 6 -28 13 -58 17 -64 12 -22 50 14 57 55 9
52 30 73 60 62 22 -9 24 -8 14 10 -6 11 -19 24 -29 29 -10 6 -21 24 -24 41 -6
26 -11 30 -41 30 -19 0 -38 -5 -41 -11z"/>
</g>
</svg>
