<?xml version="1.0" standalone="no"?>
<!DOCTYPE svg PUBLIC "-//W3C//DTD SVG 20010904//EN"
 "http://www.w3.org/TR/2001/REC-SVG-20010904/DTD/svg10.dtd">
<svg version="1.0" xmlns="http://www.w3.org/2000/svg"
 width="423.000000pt" height="632.000000pt" viewBox="0 0 423.000000 632.000000"
 preserveAspectRatio="xMidYMid meet">
<metadata>
Created by potrace 1.14, written by Peter Selinger 2001-2017
</metadata>
<g transform="translate(0.000000,632.000000) scale(0.100000,-0.100000)"
fill="#000000" stroke="none">
<path fill="#000000" stroke="none" d="M1728 6184 c-150 -73 -278 -137 -284
-142 -6 -5 -34 -75 -63 -155 l-53 -146 96 -388 c74 -300 92 -390 83 -399 -7
-6 -133 -87 -280 -180 l-268 -168 -76 -146 c-42 -80 -236 -406 -431 -725 -195
-319 -377 -626 -403 -683 l-49 -103 75 -350 75 -351 144 -177 144 -178 -199
-433 -199 -433 34 -499 c18 -274 36 -502 40 -506 4 -3 309 -10 677 -13 l671
-7 32 21 c29 21 68 24 591 60 308 21 569 40 580 42 16 3 63 105 230 494 l210
490 35 7 c19 3 41 7 48 10 9 3 -3 35 -42 107 -37 68 -56 116 -56 138 0 45 52
264 84 358 14 40 46 111 71 157 40 73 49 83 68 79 134 -31 190 -45 193 -48 2
-2 -19 -66 -47 -143 -139 -379 -131 -347 -123 -459 6 -99 6 -101 -21 -133 -15
-18 -26 -34 -24 -36 4 -4 555 87 612 100 16 4 32 16 37 28 5 11 13 174 20 361
l11 340 130 1050 131 1050 -27 180 c-14 99 -29 183 -33 187 -4 4 -102 63 -219
132 l-212 125 -427 150 c-235 82 -430 153 -434 158 -4 4 -28 181 -54 392 l-46
385 -144 225 -145 226 -245 41 -246 41 -272 -133z"/>
<path fill="#ffffff" stroke="none" d="M2330 4265 c0 -31 7 -85 16 -120 14
-56 15 -83 5 -203 -6 -76 -11 -198 -12 -272 0 -74 -4 -155 -7 -179 -6 -41 -10
-45 -42 -53 -101 -23 -138 -39 -144 -60 -6 -25 13 -60 53 -94 26 -22 26 -23 9
-52 -22 -36 -24 -108 -4 -115 10 -4 12 -18 9 -52 -5 -38 -2 -50 16 -69 20 -21
20 -24 5 -37 -12 -10 -15 -24 -11 -59 5 -41 -4 -69 -101 -298 -110 -261 -109
-259 -126 -180 -8 36 -67 67 -117 61 -31 -4 -37 -2 -42 19 -4 12 -7 33 -7 44
0 15 -26 43 -85 90 -47 38 -85 76 -85 85 0 9 18 59 39 112 56 137 150 248 338
396 39 31 45 43 104 214 35 100 76 204 91 230 16 27 37 79 47 115 l19 67 -64
121 c-51 97 -66 136 -74 193 l-10 72 32 39 c31 38 36 40 91 40 l57 0 0 -55z"/>
</g>
</svg>
