<?xml version="1.0" standalone="no"?>
<!DOCTYPE svg PUBLIC "-//W3C//DTD SVG 20010904//EN"
 "http://www.w3.org/TR/2001/REC-SVG-20010904/DTD/svg10.dtd">
<svg version="1.0" xmlns="http://www.w3.org/2000/svg"
 width="16.000000pt" height="24.000000pt" viewBox="0 0 16.000000 24.000000"
 preserveAspectRatio="xMidYMid meet">
<metadata>
Created by potrace 1.14, written by Peter Selinger 2001-2017
</metadata>
<g transform="translate(0.000000,24.000000) scale(0.100000,-0.100000)"
fill="#000000" stroke="none">
<path fill="#000000" stroke="none" d="M60 221 c-5 -11 -10 -27 -10 -36 0 -10
-11 -26 -26 -37 -31 -25 -26 -32 11 -18 23 9 32 8 43 -4 12 -12 13 -18 3 -30
-10 -11 -10 -23 0 -55 13 -43 24 -49 52 -29 14 11 15 19 5 57 -10 38 -9 46 6
56 15 11 15 14 0 26 -9 7 -23 30 -31 51 -17 42 -37 49 -53 19z"/>
</g>
</svg>
