<?xml version="1.0" standalone="no"?>
<!DOCTYPE svg PUBLIC "-//W3C//DTD SVG 20010904//EN"
 "http://www.w3.org/TR/2001/REC-SVG-20010904/DTD/svg10.dtd">
<svg version="1.0" xmlns="http://www.w3.org/2000/svg"
 width="84.000000pt" height="122.000000pt" viewBox="0 0 84.000000 122.000000"
 preserveAspectRatio="xMidYMid meet">
<metadata>
Created by potrace 1.14, written by Peter Selinger 2001-2017
</metadata>
<g transform="translate(0.000000,122.000000) scale(0.100000,-0.100000)"
fill="#000000" stroke="none">
<path fill="#000000" stroke="none" d="M120 1204 c-46 -20 -50 -28 -50 -106 0
-42 -4 -68 -12 -70 -8 -3 -6 -19 7 -57 16 -43 17 -55 7 -72 -7 -11 -26 -45
-43 -76 l-30 -56 30 -116 c17 -64 42 -159 54 -211 l24 -95 79 2 c43 1 112 5
152 8 71 7 72 7 72 35 0 27 -94 509 -105 538 -3 7 -1 11 4 8 4 -3 11 17 14 45
5 44 2 59 -24 111 -17 33 -28 66 -25 73 2 7 -2 22 -10 34 -18 26 -90 28 -144
5z"/>
<path fill="#000000" stroke="none" d="M364 880 c43 -46 46 -53 47 -107 1 -70
7 -91 37 -128 18 -22 32 -29 72 -33 38 -3 50 -9 50 -21 0 -9 11 -32 24 -51 28
-42 56 -134 56 -184 0 -33 2 -36 19 -26 11 5 22 10 24 10 3 0 -8 -60 -24 -132
-16 -73 -32 -150 -35 -171 l-7 -37 60 0 c33 0 74 3 92 6 l31 6 -20 28 c-20 28
-20 29 -1 152 11 68 27 155 35 193 l15 70 -32 31 c-21 20 -62 40 -117 57 l-85
27 -95 156 c-79 128 -102 159 -137 180 -60 35 -62 30 -9 -26z"/>
</g>
</svg>
