<?xml version="1.0" standalone="no"?>
<!DOCTYPE svg PUBLIC "-//W3C//DTD SVG 20010904//EN"
 "http://www.w3.org/TR/2001/REC-SVG-20010904/DTD/svg10.dtd">
<svg version="1.0" xmlns="http://www.w3.org/2000/svg"
 width="333.000000pt" height="493.000000pt" viewBox="0 0 333.000000 493.000000"
 preserveAspectRatio="xMidYMid meet">
<metadata>
Created by potrace 1.14, written by Peter Selinger 2001-2017
</metadata>
<g transform="translate(0.000000,493.000000) scale(0.100000,-0.100000)"
fill="#000000" stroke="none">
<path fill="#000000" stroke="none" d="M957 4772 l-228 -157 -151 -195 -150
-195 -163 -325 -163 -325 -27 -165 c-22 -128 -30 -217 -35 -395 -4 -126 -15
-321 -25 -432 l-17 -202 30 -43 c17 -24 54 -65 82 -93 85 -82 170 -282 170
-399 l0 -51 -73 -29 c-39 -16 -102 -42 -139 -59 l-68 -30 0 -832 0 -833 980
-7 c540 -4 983 -5 986 -2 3 3 -19 52 -50 109 -30 56 -72 146 -92 198 -21 52
-56 126 -77 163 -29 50 -46 97 -62 175 l-23 106 96 101 96 100 89 23 c49 13
90 22 92 20 1 -2 21 -59 44 -128 24 -69 56 -156 72 -194 18 -42 29 -86 29
-115 0 -26 12 -81 26 -122 18 -50 30 -118 40 -212 13 -134 13 -140 -7 -179
-11 -22 -19 -42 -16 -44 2 -2 238 -3 524 -2 l519 3 -155 267 c-168 287 -174
294 -356 439 -70 56 -71 58 -98 144 -23 74 -38 101 -100 179 -39 50 -93 114
-118 142 l-46 51 -6 124 -6 124 45 43 44 43 42 -53 c44 -56 77 -87 92 -88 5 0
42 26 83 57 67 51 80 67 131 162 46 85 79 128 175 230 69 73 132 151 152 187
18 34 56 136 84 226 49 158 51 171 76 430 27 287 32 575 16 1013 l-7 210 -62
185 -63 185 -110 142 -110 143 -217 155 -217 155 -110 0 c-60 0 -348 7 -640
15 -291 8 -546 14 -565 14 -28 0 -78 -30 -263 -157z"/>
<path fill="#ffffff" stroke="none" d="M1553 1981 c49 -47 113 -121 143 -164
l56 -77 -17 -73 c-12 -55 -26 -85 -59 -127 -24 -30 -57 -82 -73 -115 -30 -58
-31 -59 -36 -30 -3 17 -11 73 -17 125 -15 120 -47 252 -65 266 -12 9 -65 239
-65 282 0 28 48 -3 133 -87z"/>
</g>
</svg>
