<?xml version="1.0" standalone="no"?>
<!DOCTYPE svg PUBLIC "-//W3C//DTD SVG 20010904//EN"
 "http://www.w3.org/TR/2001/REC-SVG-20010904/DTD/svg10.dtd">
<svg version="1.0" xmlns="http://www.w3.org/2000/svg"
 width="71.000000pt" height="109.000000pt" viewBox="0 0 71.000000 109.000000"
 preserveAspectRatio="xMidYMid meet">
<metadata>
Created by potrace 1.14, written by Peter Selinger 2001-2017
</metadata>
<g transform="translate(0.000000,109.000000) scale(0.100000,-0.100000)"
fill="#000000" stroke="none">
<path fill="#000000" stroke="none" d="M148 1083 c-53 -4 -60 -7 -85 -40 -27
-35 -28 -42 -31 -164 l-4 -127 42 -7 c40 -7 42 -8 37 -39 -2 -17 -1 -39 4 -48
7 -13 0 -21 -34 -41 -25 -14 -40 -29 -38 -38 2 -8 6 -33 8 -55 5 -40 5 -42
-21 -37 -35 7 -35 -21 1 -59 45 -47 103 -32 103 28 0 51 15 74 49 74 36 0 48
-15 57 -68 4 -23 12 -42 18 -42 12 1 76 79 114 139 23 37 23 74 -1 112 -7 11
-2 44 17 116 40 152 35 197 -32 266 -39 40 -38 40 -204 30z"/>
<path fill="#000000" stroke="none" d="M489 309 c-24 -27 -39 -36 -42 -27 -3
7 -6 3 -6 -10 -1 -12 -9 -25 -18 -29 -35 -12 -63 -47 -69 -85 -4 -21 -10 -38
-15 -38 -5 0 -4 -12 1 -26 14 -37 13 -44 -12 -44 -20 0 -20 -1 -4 -19 23 -26
239 -40 265 -17 9 8 34 16 56 18 34 3 41 7 44 28 1 14 8 28 14 32 7 4 1 15
-16 28 -44 35 -80 104 -72 140 5 25 1 35 -23 60 -17 16 -38 30 -48 30 -9 0
-34 -18 -55 -41z"/>
</g>
</svg>
