<?xml version="1.0" standalone="no"?>
<!DOCTYPE svg PUBLIC "-//W3C//DTD SVG 20010904//EN"
 "http://www.w3.org/TR/2001/REC-SVG-20010904/DTD/svg10.dtd">
<svg version="1.0" xmlns="http://www.w3.org/2000/svg"
 width="20.000000pt" height="29.000000pt" viewBox="0 0 20.000000 29.000000"
 preserveAspectRatio="xMidYMid meet">
<metadata>
Created by potrace 1.14, written by Peter Selinger 2001-2017
</metadata>
<g transform="translate(0.000000,29.000000) scale(0.100000,-0.100000)"
fill="#000000" stroke="none">
<path fill="#000000" stroke="none" d="M105 283 c-43 -4 -118 -52 -82 -53 14
0 16 -6 11 -39 -5 -30 -3 -39 10 -44 22 -9 20 -27 -3 -27 -14 0 -21 -9 -25
-30 -3 -16 -8 -43 -11 -58 l-6 -28 93 4 c51 2 97 8 102 13 6 5 6 35 0 79 -5
40 -6 74 -1 79 5 5 4 17 -1 27 -5 11 -14 32 -18 48 -10 33 -13 34 -69 29z"/>
</g>
</svg>
