<?xml version="1.0" standalone="no"?>
<!DOCTYPE svg PUBLIC "-//W3C//DTD SVG 20010904//EN"
 "http://www.w3.org/TR/2001/REC-SVG-20010904/DTD/svg10.dtd">
<svg version="1.0" xmlns="http://www.w3.org/2000/svg"
 width="260.000000pt" height="367.000000pt" viewBox="0 0 260.000000 367.000000"
 preserveAspectRatio="xMidYMid meet">
<metadata>
Created by potrace 1.14, written by Peter Selinger 2001-2017
</metadata>
<g transform="translate(0.000000,367.000000) scale(0.100000,-0.100000)"
fill="#000000" stroke="none">
<path fill="#000000" stroke="none" d="M1555 3654 c-71 -10 -113 -24 -197 -64
l-107 -51 -69 -112 c-38 -62 -72 -118 -76 -124 -5 -9 0 -13 16 -12 65 3 166
-33 326 -116 l169 -88 51 -104 c45 -90 52 -111 53 -166 0 -34 6 -96 13 -137
11 -71 10 -83 -21 -225 -18 -82 -37 -158 -44 -169 -6 -10 -17 -38 -24 -62 -7
-24 -33 -67 -57 -96 -25 -29 -62 -82 -83 -117 -34 -54 -47 -66 -95 -88 -30
-13 -68 -37 -85 -53 -16 -16 -96 -59 -177 -97 l-148 -68 -160 -249 c-88 -137
-160 -253 -160 -257 0 -6 654 -523 686 -542 6 -3 47 46 98 118 48 69 89 125
91 125 1 0 -29 -72 -68 -160 -39 -88 -75 -160 -79 -160 -10 0 -808 497 -827
515 -7 7 -16 43 -18 79 -6 67 -6 67 42 136 l48 69 -18 46 c-14 38 -19 44 -31
34 -10 -8 -13 -22 -8 -42 5 -26 4 -28 -14 -23 -10 4 -50 13 -88 21 -38 9 -82
18 -97 22 -18 4 -64 43 -131 114 -56 60 -105 109 -108 109 -3 0 -13 -20 -22
-45 -16 -40 -20 -44 -38 -34 -19 10 -20 9 -13 -43 3 -29 9 -61 11 -70 5 -15
-2 -18 -41 -18 -34 0 -46 -4 -42 -12 3 -7 17 -38 30 -69 l26 -57 -33 -39 -34
-39 52 -129 c44 -110 55 -130 79 -138 15 -5 25 -13 22 -17 -3 -5 16 -21 42
-36 34 -19 88 -74 185 -189 l138 -162 367 -268 c243 -177 379 -271 402 -276
20 -4 220 -9 445 -11 l410 -3 24 60 c13 33 116 335 229 670 l205 610 -23 155
-22 155 -95 190 c-52 105 -123 231 -158 281 -48 69 -78 128 -123 243 l-60 153
20 63 c10 34 30 87 43 117 14 32 29 93 36 149 6 52 23 137 39 189 l27 95 -38
117 c-37 110 -42 119 -91 161 -29 24 -79 58 -112 75 -33 16 -71 42 -85 57 -30
33 -101 70 -194 101 -77 27 -84 27 -211 8z"/>
</g>
</svg>
