<?xml version="1.0" standalone="no"?>
<!DOCTYPE svg PUBLIC "-//W3C//DTD SVG 20010904//EN"
 "http://www.w3.org/TR/2001/REC-SVG-20010904/DTD/svg10.dtd">
<svg version="1.0" xmlns="http://www.w3.org/2000/svg"
 width="210.000000pt" height="320.000000pt" viewBox="0 0 210.000000 320.000000"
 preserveAspectRatio="xMidYMid meet">
<metadata>
Created by potrace 1.14, written by Peter Selinger 2001-2017
</metadata>
<g transform="translate(0.000000,320.000000) scale(0.100000,-0.100000)"
fill="#000000" stroke="none">
<path fill="#000000" stroke="none" d="M1055 3151 l-110 -49 0 -169 0 -170
-75 -59 c-41 -33 -112 -88 -157 -122 -74 -56 -84 -68 -94 -108 -11 -41 -20
-51 -102 -109 -49 -36 -96 -65 -103 -65 -11 0 -47 -101 -90 -252 -3 -9 -54
-45 -113 -80 -113 -65 -145 -100 -197 -210 -17 -36 -17 -39 2 -79 14 -32 28
-47 62 -61 42 -19 46 -19 115 -2 40 9 114 34 165 55 89 36 94 37 150 27 58
-11 59 -11 70 -55 7 -24 12 -83 12 -131 l0 -87 -93 -42 c-50 -23 -114 -48
-142 -56 -27 -8 -83 -29 -122 -47 l-73 -33 0 -231 0 -231 75 -285 74 -284 -23
-31 c-13 -16 -51 -61 -84 -100 l-60 -70 171 -7 c156 -6 176 -4 224 14 50 18
53 21 53 54 0 19 -16 122 -35 228 -46 262 -49 314 -31 491 14 137 17 151 38
165 44 29 70 66 119 167 65 136 72 171 64 327 l-7 129 -65 89 c-36 49 -64 90
-62 92 2 2 65 9 139 15 181 17 201 22 255 67 62 50 97 103 175 259 l65 130
228 39 229 40 71 -24 c114 -39 153 -91 247 -330 18 -47 34 -86 34 -86 1 -1 11
-5 24 -8 l22 -7 0 169 0 170 -32 45 c-92 129 -208 243 -348 342 -154 109 -143
94 -180 242 l-13 51 36 51 c21 28 37 54 37 59 -1 19 -63 77 -145 137 l-90 65
-80 0 c-44 0 -89 2 -100 5 -11 3 -69 -17 -130 -44z"/>
</g>
</svg>
