<?xml version="1.0" standalone="no"?>
<!DOCTYPE svg PUBLIC "-//W3C//DTD SVG 20010904//EN"
 "http://www.w3.org/TR/2001/REC-SVG-20010904/DTD/svg10.dtd">
<svg version="1.0" xmlns="http://www.w3.org/2000/svg"
 width="282.000000pt" height="391.000000pt" viewBox="0 0 282.000000 391.000000"
 preserveAspectRatio="xMidYMid meet">
<metadata>
Created by potrace 1.14, written by Peter Selinger 2001-2017
</metadata>
<g transform="translate(0.000000,391.000000) scale(0.100000,-0.100000)"
fill="#000000" stroke="none">
<path fill="#000000" stroke="none" d="M1541 3890 c-51 -15 -76 -30 -117 -71
-64 -63 -67 -84 -43 -275 13 -104 21 -138 41 -170 14 -22 36 -64 48 -93 20
-45 21 -54 9 -66 -8 -8 -106 -79 -219 -158 l-205 -143 -116 -155 c-74 -98
-134 -167 -165 -190 -27 -19 -112 -62 -189 -94 l-140 -58 -142 6 -141 5 -16
-42 c-11 -28 -33 -54 -69 -83 -45 -35 -55 -49 -64 -89 -11 -48 -11 -49 29 -97
51 -61 143 -123 200 -136 60 -14 58 -15 58 27 0 21 9 65 20 98 l20 59 102 59
101 58 141 19 c151 19 462 70 578 94 39 9 72 14 73 13 1 -2 22 -32 47 -68 25
-36 68 -103 95 -150 48 -81 52 -93 82 -256 25 -138 31 -199 31 -308 0 -74 7
-184 16 -243 29 -198 11 -648 -47 -1146 -11 -99 -19 -180 -17 -182 2 -1 95
-10 208 -19 113 -9 228 -19 256 -22 l51 -6 -13 69 c-28 144 -9 411 50 717 20
98 37 180 39 183 2 2 30 -27 61 -65 l56 -69 0 -94 c0 -136 29 -264 85 -384 30
-62 60 -150 80 -230 l33 -130 34 -3 c50 -5 338 39 338 52 0 6 -9 40 -20 74
-17 55 -20 92 -20 260 0 183 -3 223 -51 570 -51 367 -52 374 -39 470 14 113
12 124 -75 392 -50 153 -76 281 -110 534 l-7 48 40 -7 c30 -5 52 0 94 18 l56
25 7 65 7 66 -102 258 c-55 142 -121 294 -145 339 l-44 80 -95 42 c-54 23
-135 49 -183 58 -118 22 -204 74 -223 136 -8 24 -12 69 -11 101 2 32 0 84 -4
116 -6 50 -14 67 -56 119 -53 66 -78 78 -179 87 -38 3 -75 -2 -119 -15z"/>
</g>
</svg>
