<?xml version="1.0" standalone="no"?>
<!DOCTYPE svg PUBLIC "-//W3C//DTD SVG 20010904//EN"
 "http://www.w3.org/TR/2001/REC-SVG-20010904/DTD/svg10.dtd">
<svg version="1.0" xmlns="http://www.w3.org/2000/svg"
 width="158.000000pt" height="243.000000pt" viewBox="0 0 158.000000 243.000000"
 preserveAspectRatio="xMidYMid meet">
<metadata>
Created by potrace 1.14, written by Peter Selinger 2001-2017
</metadata>
<g transform="translate(0.000000,243.000000) scale(0.100000,-0.100000)"
fill="#000000" stroke="none">
<path fill="#000000" stroke="none" d="M856 2420 c-63 -11 -98 -45 -130 -126
-28 -70 -29 -47 9 -284 8 -52 15 -125 15 -162 0 -65 -1 -68 -36 -94 -69 -53
-182 -190 -195 -236 -15 -56 -42 -109 -127 -245 -72 -116 -98 -143 -229 -231
-34 -23 -85 -70 -112 -103 l-49 -62 31 -25 c77 -62 117 -107 117 -132 0 -14 7
-50 15 -80 8 -30 15 -79 15 -109 0 -50 -3 -57 -44 -97 -44 -45 -43 -49 13 -38
21 4 41 20 61 47 26 36 30 49 30 107 0 55 3 67 20 78 30 18 38 9 46 -55 6 -48
13 -64 50 -102 34 -37 65 -55 159 -95 64 -27 119 -54 121 -61 11 -28 -28 -102
-79 -147 l-52 -47 24 -18 c74 -55 104 -70 173 -86 l75 -18 144 36 c93 24 167
49 209 72 36 19 110 52 165 72 72 27 119 52 167 89 l66 53 7 64 c4 36 4 102 1
148 -7 75 -5 87 20 142 l26 60 -7 269 c-6 235 -9 275 -25 306 -11 21 -17 46
-14 57 3 11 -2 47 -10 80 -9 34 -16 94 -16 135 0 41 -6 95 -14 120 -18 60 -96
179 -135 207 -17 12 -51 47 -76 78 l-45 55 0 81 c-1 86 -19 143 -69 217 -19
28 -37 39 -95 58 -85 27 -154 34 -220 22z"/>
<path fill="#000000" stroke="none" d="M11 406 c2 -2 15 -9 29 -15 24 -11 24
-11 6 3 -16 13 -49 24 -35 12z"/>
</g>
</svg>
