<?xml version="1.0" standalone="no"?>
<!DOCTYPE svg PUBLIC "-//W3C//DTD SVG 20010904//EN"
 "http://www.w3.org/TR/2001/REC-SVG-20010904/DTD/svg10.dtd">
<svg version="1.0" xmlns="http://www.w3.org/2000/svg"
 width="138.000000pt" height="186.000000pt" viewBox="0 0 138.000000 186.000000"
 preserveAspectRatio="xMidYMid meet">
<metadata>
Created by potrace 1.14, written by Peter Selinger 2001-2017
</metadata>
<g transform="translate(0.000000,186.000000) scale(0.100000,-0.100000)"
fill="#000000" stroke="none">
<path fill="#000000" stroke="none" d="M495 1853 c-224 -3 -301 -6 -307 -16
-4 -6 -25 -66 -47 -132 -34 -106 -39 -135 -45 -255 -4 -74 -13 -209 -21 -300
-8 -91 -15 -203 -15 -250 0 -47 -11 -157 -23 -245 -22 -149 -23 -177 -15 -395
8 -216 7 -236 -9 -247 -22 -17 -28 -18 138 16 425 87 464 100 697 239 l93 55
77 -36 c42 -19 91 -38 109 -42 37 -7 26 -46 102 368 l50 267 49 63 50 63 -11
48 c-12 51 -19 57 -129 96 -36 13 -37 13 -86 -28 -27 -23 -55 -42 -62 -42 -7
0 -34 16 -61 36 -45 33 -49 39 -49 78 0 30 -6 48 -20 61 -26 24 -26 26 15 53
23 14 51 22 82 23 l48 0 -51 26 c-69 35 -87 74 -130 287 -18 94 -36 181 -39
194 -5 19 -11 22 -48 20 -23 -2 -177 -4 -342 -5z"/>
<path fill="#000000" stroke="none" d="M1190 1286 c0 -2 18 -15 40 -30 22 -14
56 -43 75 -64 l34 -37 -9 34 c-5 18 -11 35 -12 36 -8 7 -128 65 -128 61z"/>
</g>
</svg>
