<?xml version="1.0" standalone="no"?>
<!DOCTYPE svg PUBLIC "-//W3C//DTD SVG 20010904//EN"
 "http://www.w3.org/TR/2001/REC-SVG-20010904/DTD/svg10.dtd">
<svg version="1.0" xmlns="http://www.w3.org/2000/svg"
 width="279.000000pt" height="420.000000pt" viewBox="0 0 279.000000 420.000000"
 preserveAspectRatio="xMidYMid meet">
<metadata>
Created by potrace 1.14, written by Peter Selinger 2001-2017
</metadata>
<g transform="translate(0.000000,420.000000) scale(0.100000,-0.100000)"
fill="#000000" stroke="none">
<path fill="#000000" stroke="none" d="M1045 4029 c-176 -94 -321 -172 -323
-174 -2 -2 -7 -95 -11 -207 l-8 -203 -72 -219 -71 -219 41 -181 c23 -99 46
-187 51 -194 6 -7 78 -64 160 -128 150 -116 163 -129 277 -260 l61 -72 -123
-80 -122 -80 -205 -27 -205 -27 -96 -51 -97 -51 -22 -134 c-18 -110 -21 -154
-15 -245 7 -107 5 -122 -35 -317 -34 -162 -59 -253 -122 -430 l-79 -225 -15
-165 -15 -165 37 -88 37 -87 76 0 c272 1 2333 29 2336 32 13 13 107 707 118
876 8 112 18 207 23 211 5 5 41 19 79 31 39 12 73 25 77 29 4 4 -2 128 -14
277 l-22 270 -404 269 c-223 149 -406 275 -409 281 -11 29 52 314 93 426 42
114 47 122 223 353 157 206 179 239 171 259 -26 70 -273 642 -279 649 -5 4
-172 57 -372 116 -200 59 -373 111 -384 114 -14 4 -114 -44 -340 -164z"/>
</g>
</svg>
