<?xml version="1.0" standalone="no"?>
<!DOCTYPE svg PUBLIC "-//W3C//DTD SVG 20010904//EN"
 "http://www.w3.org/TR/2001/REC-SVG-20010904/DTD/svg10.dtd">
<svg version="1.0" xmlns="http://www.w3.org/2000/svg"
 width="33.000000pt" height="48.000000pt" viewBox="0 0 33.000000 48.000000"
 preserveAspectRatio="xMidYMid meet">
<metadata>
Created by potrace 1.14, written by Peter Selinger 2001-2017
</metadata>
<g transform="translate(0.000000,48.000000) scale(0.100000,-0.100000)"
fill="#000000" stroke="none">
<path fill="#000000" stroke="none" d="M84 472 c-20 -13 -32 -47 -27 -75 4
-23 -1 -35 -27 -62 -21 -22 -30 -39 -26 -50 5 -14 10 -13 39 9 19 14 36 26 39
26 4 0 11 -13 16 -29 8 -21 7 -34 -2 -48 -7 -10 -20 -47 -30 -83 -9 -36 -25
-80 -34 -98 -15 -29 -15 -34 -2 -42 31 -21 53 -6 74 50 48 125 77 129 134 14
20 -40 43 -76 50 -79 19 -7 42 13 42 35 0 37 -70 199 -119 276 -33 53 -51 92
-51 112 0 41 -43 66 -76 44z"/>
</g>
</svg>
