<?xml version="1.0" standalone="no"?>
<!DOCTYPE svg PUBLIC "-//W3C//DTD SVG 20010904//EN"
 "http://www.w3.org/TR/2001/REC-SVG-20010904/DTD/svg10.dtd">
<svg version="1.0" xmlns="http://www.w3.org/2000/svg"
 width="21.000000pt" height="32.000000pt" viewBox="0 0 21.000000 32.000000"
 preserveAspectRatio="xMidYMid meet">
<metadata>
Created by potrace 1.14, written by Peter Selinger 2001-2017
</metadata>
<g transform="translate(0.000000,32.000000) scale(0.100000,-0.100000)"
fill="#000000" stroke="none">
<path fill="#000000" stroke="none" d="M104 309 c-4 -7 -7 -24 -6 -40 0 -22
-5 -30 -28 -38 -20 -7 -31 -18 -35 -38 -3 -15 -13 -53 -21 -83 -14 -53 -13
-56 7 -73 25 -20 70 -22 88 -4 10 10 16 7 30 -12 20 -26 48 -25 65 2 8 13 7
24 -6 46 -14 25 -14 30 -2 35 20 8 9 76 -15 93 -39 29 -41 34 -31 53 14 26 13
36 -6 54 -18 19 -30 20 -40 5z"/>
</g>
</svg>
