<?xml version="1.0" standalone="no"?>
<!DOCTYPE svg PUBLIC "-//W3C//DTD SVG 20010904//EN"
 "http://www.w3.org/TR/2001/REC-SVG-20010904/DTD/svg10.dtd">
<svg version="1.0" xmlns="http://www.w3.org/2000/svg"
 width="70.000000pt" height="106.000000pt" viewBox="0 0 70.000000 106.000000"
 preserveAspectRatio="xMidYMid meet">
<metadata>
Created by potrace 1.14, written by Peter Selinger 2001-2017
</metadata>
<g transform="translate(0.000000,106.000000) scale(0.100000,-0.100000)"
fill="#000000" stroke="none">
<path fill="#000000" stroke="none" d="M505 977 l-130 -78 -22 -76 c-12 -41
-27 -81 -34 -89 -14 -17 -3 -18 60 -3 32 7 47 6 58 -2 20 -18 6 -27 -77 -48
l-75 -19 -78 -173 c-98 -215 -106 -237 -107 -274 0 -22 -10 -37 -35 -55 -30
-23 -65 -76 -65 -100 0 -5 17 -21 39 -35 31 -21 45 -25 69 -18 42 11 162 145
255 286 71 107 337 562 337 575 0 4 -15 48 -33 97 l-32 91 -130 -79z"/>
</g>
</svg>
