<?xml version="1.0" standalone="no"?>
<!DOCTYPE svg PUBLIC "-//W3C//DTD SVG 20010904//EN"
 "http://www.w3.org/TR/2001/REC-SVG-20010904/DTD/svg10.dtd">
<svg version="1.0" xmlns="http://www.w3.org/2000/svg"
 width="230.000000pt" height="342.000000pt" viewBox="0 0 230.000000 342.000000"
 preserveAspectRatio="xMidYMid meet">
<metadata>
Created by potrace 1.14, written by Peter Selinger 2001-2017
</metadata>
<g transform="translate(0.000000,342.000000) scale(0.100000,-0.100000)"
fill="#000000" stroke="none">
<path fill="#000000" stroke="none" d="M929 3410 c-20 -6 -100 -58 -178 -117
-2 -1 -12 -44 -22 -95 -17 -90 -16 -97 2 -203 21 -115 83 -278 120 -311 23
-21 49 -103 49 -154 0 -25 -8 -45 -27 -67 -24 -27 -53 -39 -205 -86 -196 -60
-180 -62 -193 21 -8 50 6 71 83 124 57 40 56 63 -9 123 l-52 49 18 52 c15 43
23 53 49 61 31 9 31 10 32 76 1 37 7 73 13 81 10 11 2 35 -38 114 l-50 100
-75 7 c-91 8 -178 -8 -221 -40 -21 -15 -36 -40 -47 -76 -25 -80 -11 -143 46
-217 l45 -59 -50 -49 c-65 -64 -129 -194 -129 -263 0 -27 -11 -108 -25 -181
-14 -73 -25 -150 -25 -172 0 -22 -5 -48 -11 -59 -8 -16 -7 -25 7 -40 16 -18
15 -22 -10 -79 -30 -71 -32 -102 -11 -243 25 -167 18 -154 87 -173 60 -17 61
-18 88 -78 15 -34 49 -95 75 -136 67 -104 102 -185 110 -251 l6 -57 -116 -231
c-63 -128 -112 -237 -109 -244 4 -7 36 -49 71 -94 60 -78 67 -83 101 -83 56 0
175 19 185 29 6 6 -12 36 -42 72 -28 35 -49 64 -47 66 2 2 43 -1 92 -7 122
-14 145 -12 173 9 38 29 21 52 -78 100 l-88 44 10 39 c8 32 7 42 -6 55 -14 14
-12 21 25 69 l40 53 -69 69 c-67 68 -159 209 -151 234 2 6 27 -29 54 -80 46
-84 57 -97 129 -150 65 -47 105 -73 162 -107 10 -6 45 -239 54 -355 9 -130 8
-149 -7 -183 -16 -35 -16 -46 -5 -110 8 -40 16 -97 18 -128 l5 -57 262 -6
c143 -3 485 -8 759 -12 477 -5 497 -5 497 13 0 32 -26 116 -58 185 -16 36 -33
86 -37 110 -4 23 -61 182 -127 353 l-120 310 6 80 c4 43 8 80 9 81 1 0 44 29
94 63 51 34 99 74 107 89 7 15 25 79 39 142 25 111 26 119 12 185 -8 39 -15
81 -15 94 0 28 -311 561 -398 681 -37 52 -67 83 -87 90 -40 15 -194 34 -271
34 l-60 0 18 81 c10 44 37 144 59 223 32 113 39 152 34 185 -4 23 -11 47 -15
52 -5 6 -25 55 -44 110 -33 93 -39 104 -98 158 -82 75 -151 97 -294 96 -54 0
-111 -4 -125 -9z"/>
<path fill="#ffffff" stroke="none" d="M450 2292 c0 -5 -14 -21 -31 -38 -17
-16 -42 -49 -55 -74 -28 -50 -22 -20 9 53 11 27 30 53 41 57 28 11 36 12 36 2z"/>
<path fill="#ffffff" stroke="none" d="M1670 1567 c238 5 241 5 264 -16 19
-18 35 -21 106 -21 64 0 88 -4 102 -17 37 -33 23 -43 -63 -43 -80 0 -82 -1
-113 -35 l-32 -35 -114 0 c-111 0 -113 0 -96 19 17 19 17 21 -6 44 -17 17 -40
26 -82 31 -66 7 -111 27 -126 55 -16 32 -13 33 53 25 34 -5 82 -8 107 -7z"/>
</g>
</svg>
