<?xml version="1.0" standalone="no"?>
<!DOCTYPE svg PUBLIC "-//W3C//DTD SVG 20010904//EN"
 "http://www.w3.org/TR/2001/REC-SVG-20010904/DTD/svg10.dtd">
<svg version="1.0" xmlns="http://www.w3.org/2000/svg"
 width="246.000000pt" height="353.000000pt" viewBox="0 0 246.000000 353.000000"
 preserveAspectRatio="xMidYMid meet">
<metadata>
Created by potrace 1.14, written by Peter Selinger 2001-2017
</metadata>
<g transform="translate(0.000000,353.000000) scale(0.100000,-0.100000)"
fill="#000000" stroke="none">
<path fill="#000000" stroke="none" d="M919 3483 c-26 -26 -55 -64 -64 -83
-26 -50 -25 -136 1 -185 12 -23 25 -55 29 -73 3 -17 14 -36 23 -41 21 -12 15
-14 -78 -29 -153 -25 -214 -43 -262 -78 -26 -19 -55 -34 -63 -34 -21 0 -19 27
4 39 20 11 70 104 73 136 3 47 -2 65 -21 65 -10 0 -37 15 -61 34 -36 29 -47
33 -72 26 -56 -17 -118 -88 -118 -136 0 -8 -13 -17 -29 -20 -30 -6 -36 -14
-52 -67 -19 -64 54 -181 141 -227 19 -10 93 -77 163 -148 l128 -129 33 -199
c26 -155 39 -211 61 -254 15 -30 38 -84 51 -120 12 -36 28 -79 35 -95 11 -29
9 -36 -32 -100 -60 -97 -217 -323 -230 -330 -14 -10 -83 -150 -112 -231 -14
-40 -35 -89 -46 -110 -12 -21 -21 -47 -21 -57 0 -11 -11 -32 -23 -47 -34 -40
-52 -197 -44 -383 7 -171 3 -194 -34 -216 -16 -9 -34 -29 -40 -44 -7 -15 -20
-32 -30 -38 -24 -12 -69 -100 -69 -133 0 -21 -6 -26 -37 -31 -65 -10 -106 -36
-116 -74 -4 -18 -5 -37 0 -41 15 -14 335 -29 418 -20 44 5 84 9 88 9 4 1 15
18 24 39 13 29 16 67 14 180 -2 130 0 150 23 220 30 88 66 268 66 325 0 73 58
146 199 251 73 55 173 158 248 254 l18 23 108 -133 c60 -73 129 -172 155 -219
43 -80 52 -91 116 -131 52 -32 93 -72 169 -161 55 -64 105 -121 112 -125 8 -4
66 -56 130 -116 122 -114 165 -176 165 -240 0 -24 -6 -38 -23 -49 -12 -8 -31
-31 -42 -51 l-20 -36 23 -22 c30 -31 128 -36 241 -13 117 24 171 48 198 89
l21 33 -33 84 c-20 50 -44 94 -62 109 -16 14 -40 46 -55 71 -14 24 -59 73 -99
109 -39 35 -96 96 -125 136 -29 39 -70 85 -91 102 -22 17 -49 53 -63 83 -14
29 -45 71 -70 93 -25 23 -76 71 -115 108 l-70 67 2 98 c2 61 -3 119 -12 154
-9 35 -15 98 -14 161 2 123 -16 295 -37 359 -8 25 -26 57 -39 69 -34 32 -31
58 12 102 27 28 35 42 28 52 -6 7 -32 42 -59 77 l-48 64 6 100 c3 55 11 161
17 235 11 132 11 137 -15 235 -28 108 -42 126 -146 200 -23 17 -46 38 -51 47
-14 27 19 199 43 220 25 23 23 32 -18 63 -20 15 -47 51 -62 83 -38 80 -91 106
-222 110 l-95 3 -46 -48z"/>
</g>
</svg>
