<?xml version="1.0" standalone="no"?>
<!DOCTYPE svg PUBLIC "-//W3C//DTD SVG 20010904//EN"
 "http://www.w3.org/TR/2001/REC-SVG-20010904/DTD/svg10.dtd">
<svg version="1.0" xmlns="http://www.w3.org/2000/svg"
 width="18.000000pt" height="26.000000pt" viewBox="0 0 18.000000 26.000000"
 preserveAspectRatio="xMidYMid meet">
<metadata>
Created by potrace 1.14, written by Peter Selinger 2001-2017
</metadata>
<g transform="translate(0.000000,26.000000) scale(0.100000,-0.100000)"
fill="#000000" stroke="none">
<path fill="#000000" stroke="none" d="M97 198 c-9 -35 -16 -55 -16 -45 -1 27
-43 18 -58 -13 -6 -14 -14 -46 -18 -72 -7 -47 -6 -48 18 -48 27 0 31 7 43 73
3 21 9 36 11 33 3 -2 0 -28 -6 -57 -14 -63 -8 -69 62 -69 l49 0 -7 53 c-4 28
-10 67 -15 85 -5 18 -5 45 0 61 6 23 4 33 -9 45 -29 27 -39 18 -54 -46z"/>
</g>
</svg>
