<?xml version="1.0" standalone="no"?>
<!DOCTYPE svg PUBLIC "-//W3C//DTD SVG 20010904//EN"
 "http://www.w3.org/TR/2001/REC-SVG-20010904/DTD/svg10.dtd">
<svg version="1.0" xmlns="http://www.w3.org/2000/svg"
 width="142.000000pt" height="218.000000pt" viewBox="0 0 142.000000 218.000000"
 preserveAspectRatio="xMidYMid meet">
<metadata>
Created by potrace 1.14, written by Peter Selinger 2001-2017
</metadata>
<g transform="translate(0.000000,218.000000) scale(0.100000,-0.100000)"
fill="#000000" stroke="none">
<path fill="#000000" stroke="none" d="M745 2136 c-148 -70 -253 -145 -341
-241 -68 -74 -85 -101 -122 -188 l-42 -102 15 -105 c15 -103 17 -108 101 -255
l85 -150 -82 -80 c-61 -60 -93 -102 -127 -165 -59 -110 -129 -205 -187 -254
-26 -21 -43 -42 -38 -46 4 -4 96 -44 205 -89 171 -72 199 -81 216 -70 20 13
20 13 2 49 -10 20 -39 62 -65 93 l-46 57 15 48 c15 44 186 303 205 310 5 1 21
-32 36 -75 25 -72 27 -85 20 -175 -7 -110 8 -213 52 -336 25 -73 25 -75 10
-143 l-15 -70 86 -74 c48 -41 92 -75 97 -75 6 0 46 13 88 28 l77 28 -17 24
c-9 13 -50 96 -91 184 l-75 161 -4 220 c-4 188 -2 239 16 354 16 99 21 181 21
317 l0 182 55 159 c31 87 60 162 64 166 5 5 44 3 86 -4 69 -12 79 -16 87 -40
5 -14 23 -36 40 -49 50 -37 126 -18 206 49 19 17 24 35 34 131 l11 111 -59 60
c-57 58 -59 59 -114 59 -30 0 -87 -7 -126 -16 l-71 -17 -34 26 c-30 22 -122
48 -168 47 -9 -1 -56 -20 -106 -44z"/>
</g>
</svg>
