<?xml version="1.0" standalone="no"?>
<!DOCTYPE svg PUBLIC "-//W3C//DTD SVG 20010904//EN"
 "http://www.w3.org/TR/2001/REC-SVG-20010904/DTD/svg10.dtd">
<svg version="1.0" xmlns="http://www.w3.org/2000/svg"
 width="215.000000pt" height="326.000000pt" viewBox="0 0 215.000000 326.000000"
 preserveAspectRatio="xMidYMid meet">
<metadata>
Created by potrace 1.14, written by Peter Selinger 2001-2017
</metadata>
<g transform="translate(0.000000,326.000000) scale(0.100000,-0.100000)"
fill="#000000" stroke="none">
<path fill="#000000" stroke="none" d="M600 3179 l-135 -79 -13 -73 c-10 -60
-10 -86 3 -162 15 -95 65 -252 109 -347 l27 -56 -25 -37 c-32 -47 -44 -119
-24 -143 9 -9 38 -57 67 -105 43 -74 51 -95 51 -139 0 -46 4 -56 46 -105 26
-30 45 -55 43 -57 -2 -2 -86 -45 -187 -95 l-182 -91 -53 30 -53 30 1 -52 c0
-49 -1 -51 -35 -63 l-35 -12 45 -23 c25 -13 74 -42 109 -66 35 -24 68 -44 74
-44 16 0 365 187 402 216 24 18 40 23 59 18 24 -6 26 -10 26 -63 0 -56 0 -57
-50 -94 -44 -33 -67 -41 -237 -78 -103 -23 -205 -41 -227 -40 -27 1 -60 14
-111 47 -41 25 -80 44 -87 43 -7 -1 -30 1 -51 6 -48 9 -57 1 -26 -24 l24 -19
-52 -7 c-37 -5 -58 -15 -76 -34 l-24 -26 63 -59 c56 -51 72 -60 127 -71 86
-18 412 -38 529 -33 l97 4 -14 -31 c-7 -16 -63 -137 -124 -267 l-111 -238 0
-99 c0 -139 4 -151 58 -188 36 -25 70 -36 147 -50 l100 -18 38 -80 c21 -44 68
-131 104 -192 l65 -113 123 0 123 0 26 78 c14 42 26 83 26 90 0 7 -25 50 -55
95 l-55 82 47 7 c85 11 133 9 133 -6 0 -8 -7 -50 -15 -94 l-15 -80 30 -85 31
-85 49 21 c49 20 50 22 72 96 13 44 42 105 71 150 30 46 58 106 73 155 29 96
29 93 5 150 l-20 45 -103 -35 c-97 -32 -106 -34 -155 -23 -29 7 -53 15 -53 18
0 3 89 87 198 186 192 174 203 187 338 371 76 105 152 199 168 208 28 16 29
17 22 83 -9 85 -89 279 -237 573 -99 197 -119 229 -236 379 l-128 164 -103 58
c-102 58 -105 58 -212 68 -114 10 -136 18 -189 75 l-24 26 11 147 12 147 -60
61 c-49 49 -78 68 -148 98 -48 20 -89 37 -92 36 -3 0 -66 -36 -140 -80z"/>
</g>
</svg>
