<?xml version="1.0" standalone="no"?>
<!DOCTYPE svg PUBLIC "-//W3C//DTD SVG 20010904//EN"
 "http://www.w3.org/TR/2001/REC-SVG-20010904/DTD/svg10.dtd">
<svg version="1.0" xmlns="http://www.w3.org/2000/svg"
 width="64.000000pt" height="18.000000pt" viewBox="0 0 64.000000 18.000000"
 preserveAspectRatio="xMidYMid meet">
<metadata>
Created by potrace 1.14, written by Peter Selinger 2001-2017
</metadata>
<g transform="translate(0.000000,18.000000) scale(0.100000,-0.100000)"
fill="#000000" stroke="none">
<path fill="#000000" stroke="none" d="M17 162 c-22 -24 -22 -75 0 -94 26 -22
282 -59 449 -65 139 -5 142 -4 158 18 21 30 20 52 -3 80 -16 20 -28 23 -112
25 -88 3 -211 12 -269 20 -14 2 -41 6 -60 9 -55 7 -69 11 -76 18 -14 14 -71 7
-87 -11z"/>
</g>
</svg>
