<?xml version="1.0" standalone="no"?>
<!DOCTYPE svg PUBLIC "-//W3C//DTD SVG 20010904//EN"
 "http://www.w3.org/TR/2001/REC-SVG-20010904/DTD/svg10.dtd">
<svg version="1.0" xmlns="http://www.w3.org/2000/svg"
 width="356.000000pt" height="98.000000pt" viewBox="0 0 356.000000 98.000000"
 preserveAspectRatio="xMidYMid meet">
<metadata>
Created by potrace 1.14, written by Peter Selinger 2001-2017
</metadata>
<g transform="translate(0.000000,98.000000) scale(0.100000,-0.100000)"
fill="#000000" stroke="none">
<path fill="#000000" stroke="none" d="M3130 965 c-10 -12 -6 -32 21 -108 55
-153 98 -248 154 -337 44 -69 62 -90 98 -107 62 -30 110 -117 128 -230 7 -45
16 -80 21 -77 16 10 8 147 -13 223 -19 68 -28 83 -96 156 -85 92 -106 136
-129 265 -8 47 -16 95 -19 107 -5 20 -124 123 -144 123 -5 0 -14 -7 -21 -15z"/>
<path fill="#000000" stroke="none" d="M323 916 c-68 -12 -74 -18 -172 -149
-40 -55 -42 -60 -26 -77 15 -17 13 -20 -43 -54 -53 -32 -59 -40 -69 -83 -6
-26 -11 -49 -10 -49 1 -1 105 -9 231 -18 127 -9 232 -18 234 -20 10 -10 -68
-329 -90 -369 l-25 -43 38 -28 c37 -26 40 -26 68 -11 17 8 48 15 69 15 51 0
75 25 63 66 -5 19 -3 65 6 124 l14 95 -36 140 c-65 251 -63 245 -96 252 -31 6
-31 3 -7 97 9 36 7 41 -24 73 -46 48 -55 51 -125 39z"/>
</g>
</svg>
