<?xml version="1.0" standalone="no"?>
<!DOCTYPE svg PUBLIC "-//W3C//DTD SVG 20010904//EN"
 "http://www.w3.org/TR/2001/REC-SVG-20010904/DTD/svg10.dtd">
<svg version="1.0" xmlns="http://www.w3.org/2000/svg"
 width="193.000000pt" height="165.000000pt" viewBox="0 0 193.000000 165.000000"
 preserveAspectRatio="xMidYMid meet">
<metadata>
Created by potrace 1.14, written by Peter Selinger 2001-2017
</metadata>
<g transform="translate(0.000000,165.000000) scale(0.100000,-0.100000)"
fill="#000000" stroke="none">
<path fill="#000000" stroke="none" d="M395 1636 c-56 -10 -94 -30 -216 -113
l-26 -18 22 -116 21 -117 -72 -83 c-40 -46 -73 -89 -74 -96 0 -6 -8 -18 -18
-25 -16 -11 -20 -33 -26 -134 l-6 -122 44 -124 c24 -69 83 -218 132 -332 l88
-208 51 -25 c43 -21 60 -25 99 -19 25 4 46 10 46 14 0 4 -11 49 -24 100 -13
50 -21 92 -17 92 3 0 17 -9 31 -20 22 -17 41 -20 147 -20 l123 0 132 -54 c153
-63 671 -216 731 -216 22 0 27 12 64 152 23 84 40 154 38 156 -1 1 -41 -15
-88 -37 l-87 -40 -47 69 -48 70 -65 0 c-51 0 -97 11 -222 52 l-157 52 56 106
c38 69 62 130 73 180 16 70 18 75 41 72 13 -2 113 -6 221 -9 213 -6 324 7 457
52 l65 21 17 90 c9 49 19 113 21 142 6 62 0 64 -80 27 -65 -30 -70 -30 -97 -5
-16 15 -41 22 -101 26 -65 6 -110 19 -254 76 -144 56 -218 78 -418 123 l-242
55 -106 110 c-118 122 -110 119 -229 96z"/>
</g>
</svg>
