<?xml version="1.0" standalone="no"?>
<!DOCTYPE svg PUBLIC "-//W3C//DTD SVG 20010904//EN"
 "http://www.w3.org/TR/2001/REC-SVG-20010904/DTD/svg10.dtd">
<svg version="1.0" xmlns="http://www.w3.org/2000/svg"
 width="32.000000pt" height="27.000000pt" viewBox="0 0 32.000000 27.000000"
 preserveAspectRatio="xMidYMid meet">
<metadata>
Created by potrace 1.14, written by Peter Selinger 2001-2017
</metadata>
<g transform="translate(0.000000,27.000000) scale(0.100000,-0.100000)"
fill="#000000" stroke="none">
<path fill="#000000" stroke="none" d="M77 252 c-10 -10 -17 -28 -17 -41 0
-12 -6 -24 -14 -27 -20 -8 -34 -50 -39 -121 -5 -60 -4 -62 11 -43 12 15 31 21
65 23 35 1 49 6 53 20 5 16 8 15 34 -7 37 -30 128 -62 141 -49 7 7 -15 23 -60
47 -91 48 -124 96 -107 157 8 33 8 42 -4 49 -23 15 -45 12 -63 -8z"/>
</g>
</svg>
