<?xml version="1.0" standalone="no"?>
<!DOCTYPE svg PUBLIC "-//W3C//DTD SVG 20010904//EN"
 "http://www.w3.org/TR/2001/REC-SVG-20010904/DTD/svg10.dtd">
<svg version="1.0" xmlns="http://www.w3.org/2000/svg"
 width="37.000000pt" height="30.000000pt" viewBox="0 0 37.000000 30.000000"
 preserveAspectRatio="xMidYMid meet">
<metadata>
Created by potrace 1.14, written by Peter Selinger 2001-2017
</metadata>
<g transform="translate(0.000000,30.000000) scale(0.100000,-0.100000)"
fill="#000000" stroke="none">
<path fill="#000000" stroke="none" d="M135 280 c-10 -11 -15 -28 -12 -40 3
-13 -2 -26 -16 -38 -36 -28 -79 -100 -92 -150 -7 -26 -11 -49 -10 -50 4 -5
358 18 362 22 6 6 -19 101 -35 136 -11 23 -32 42 -61 57 -25 13 -53 36 -64 53
-22 35 -46 38 -72 10z"/>
</g>
</svg>
