<?xml version="1.0" standalone="no"?>
<!DOCTYPE svg PUBLIC "-//W3C//DTD SVG 20010904//EN"
 "http://www.w3.org/TR/2001/REC-SVG-20010904/DTD/svg10.dtd">
<svg version="1.0" xmlns="http://www.w3.org/2000/svg"
 width="85.000000pt" height="69.000000pt" viewBox="0 0 85.000000 69.000000"
 preserveAspectRatio="xMidYMid meet">
<metadata>
Created by potrace 1.14, written by Peter Selinger 2001-2017
</metadata>
<g transform="translate(0.000000,69.000000) scale(0.100000,-0.100000)"
fill="#000000" stroke="none">
<path fill="#000000" stroke="none" d="M652 683 c-13 -3 -83 -56 -155 -119
-83 -71 -156 -126 -197 -146 -36 -17 -95 -54 -132 -81 -60 -43 -73 -60 -119
-144 l-51 -95 25 -25 c23 -23 28 -25 58 -14 18 6 97 11 188 11 146 0 164 -2
276 -34 l120 -33 13 29 c10 24 10 43 -2 106 -8 42 -22 97 -31 121 -8 24 -14
45 -13 47 2 1 30 18 63 38 98 58 113 75 129 141 30 124 31 114 -14 156 -31 30
-49 39 -75 39 -18 0 -39 2 -47 4 -7 2 -23 1 -36 -1z"/>
</g>
</svg>
