<?xml version="1.0" standalone="no"?>
<!DOCTYPE svg PUBLIC "-//W3C//DTD SVG 20010904//EN"
 "http://www.w3.org/TR/2001/REC-SVG-20010904/DTD/svg10.dtd">
<svg version="1.0" xmlns="http://www.w3.org/2000/svg"
 width="50.000000pt" height="41.000000pt" viewBox="0 0 50.000000 41.000000"
 preserveAspectRatio="xMidYMid meet">
<metadata>
Created by potrace 1.14, written by Peter Selinger 2001-2017
</metadata>
<g transform="translate(0.000000,41.000000) scale(0.100000,-0.100000)"
fill="#000000" stroke="none">
<path fill="#000000" stroke="none" d="M247 392 c-10 -10 -17 -31 -17 -45 0
-23 -4 -27 -28 -27 -31 0 -62 -26 -62 -52 0 -8 -9 -23 -20 -33 -11 -10 -20
-29 -20 -42 0 -19 -5 -23 -33 -23 -40 0 -67 -25 -67 -62 0 -57 85 -81 116 -33
9 14 14 34 11 44 -3 14 -1 18 9 14 8 -3 14 -19 14 -38 0 -40 26 -65 69 -65 26
0 36 7 54 38 l22 37 3 -35 c5 -47 27 -70 68 -70 25 0 38 7 50 25 9 14 22 25
30 25 7 0 20 10 28 23 16 26 30 128 21 157 -7 22 -83 77 -119 86 -17 4 -22 11
-19 25 3 10 -2 30 -11 44 -20 31 -74 34 -99 7z"/>
</g>
</svg>
