<?xml version="1.0" standalone="no"?>
<!DOCTYPE svg PUBLIC "-//W3C//DTD SVG 20010904//EN"
 "http://www.w3.org/TR/2001/REC-SVG-20010904/DTD/svg10.dtd">
<svg version="1.0" xmlns="http://www.w3.org/2000/svg"
 width="50.000000pt" height="41.000000pt" viewBox="0 0 50.000000 41.000000"
 preserveAspectRatio="xMidYMid meet">
<metadata>
Created by potrace 1.14, written by Peter Selinger 2001-2017
</metadata>
<g transform="translate(0.000000,41.000000) scale(0.100000,-0.100000)"
fill="#000000" stroke="none">
<path fill="#000000" stroke="none" d="M253 388 c-13 -15 -23 -43 -26 -77 -4
-29 -8 -55 -9 -56 -2 -2 -19 -5 -38 -6 -24 -2 -34 1 -32 9 1 7 -6 12 -15 11
-19 -1 -133 -133 -133 -154 0 -7 19 -16 45 -19 35 -6 45 -11 45 -26 0 -10 4
-30 10 -44 l9 -26 48 26 c85 47 122 64 137 64 28 0 94 -31 100 -47 5 -12 13
-8 37 21 18 20 40 36 50 36 23 0 23 -4 2 71 -13 46 -23 63 -40 70 -13 5 -34
13 -47 19 -22 8 -24 13 -16 39 10 35 -13 72 -60 96 -38 20 -43 19 -67 -7z"/>
<path fill="#000000" stroke="none" d="M0 44 c0 -33 13 -44 53 -44 l40 0 -22
24 c-26 27 -71 40 -71 20z"/>
</g>
</svg>
