<?xml version="1.0" standalone="no"?>
<!DOCTYPE svg PUBLIC "-//W3C//DTD SVG 20010904//EN"
 "http://www.w3.org/TR/2001/REC-SVG-20010904/DTD/svg10.dtd">
<svg version="1.0" xmlns="http://www.w3.org/2000/svg"
 width="166.000000pt" height="135.000000pt" viewBox="0 0 166.000000 135.000000"
 preserveAspectRatio="xMidYMid meet">
<metadata>
Created by potrace 1.14, written by Peter Selinger 2001-2017
</metadata>
<g transform="translate(0.000000,135.000000) scale(0.100000,-0.100000)"
fill="#000000" stroke="none">
<path fill="#000000" stroke="none" d="M103 1256 c76 -69 134 -136 210 -239
l105 -142 232 -100 c146 -62 237 -107 245 -120 7 -11 29 -61 50 -111 33 -82
50 -106 170 -245 73 -85 148 -168 166 -186 19 -18 77 -50 132 -73 l97 -40 40
25 40 25 0 78 0 78 36 17 c25 12 34 22 30 35 -2 9 -7 48 -11 85 l-7 68 -445
457 -445 457 -112 6 c-61 4 -229 10 -374 14 l-264 7 105 -96z"/>
</g>
</svg>
