<?xml version="1.0" standalone="no"?>
<!DOCTYPE svg PUBLIC "-//W3C//DTD SVG 20010904//EN"
 "http://www.w3.org/TR/2001/REC-SVG-20010904/DTD/svg10.dtd">
<svg version="1.0" xmlns="http://www.w3.org/2000/svg"
 width="160.000000pt" height="138.000000pt" viewBox="0 0 160.000000 138.000000"
 preserveAspectRatio="xMidYMid meet">
<metadata>
Created by potrace 1.14, written by Peter Selinger 2001-2017
</metadata>
<g transform="translate(0.000000,138.000000) scale(0.100000,-0.100000)"
fill="#000000" stroke="none">
<path fill="#000000" stroke="none" d="M368 1362 c-37 -17 -68 -66 -68 -108 0
-8 23 -48 50 -89 l50 -74 -39 -21 c-30 -15 -60 -20 -118 -20 -76 0 -79 -1
-100 -32 -24 -34 -20 -48 18 -69 14 -7 26 -3 51 20 25 21 55 33 118 46 76 16
90 22 131 62 l47 45 65 -7 c53 -6 70 -12 92 -35 l26 -27 -15 -214 -15 -214
-74 -71 -74 -72 78 -78 79 -78 -21 -22 c-24 -26 -19 -42 33 -91 l33 -32 58 46
c46 36 57 50 53 67 -18 72 -27 129 -23 140 3 7 37 21 76 31 69 17 71 17 138
-5 180 -59 165 -49 227 -165 32 -59 56 -117 56 -134 0 -27 9 -34 121 -95 66
-36 124 -66 128 -66 9 0 51 44 51 54 0 4 -45 62 -100 129 -55 67 -105 137
-111 157 -6 19 -26 71 -45 115 l-35 80 -139 73 c-133 70 -142 76 -212 158 -40
47 -74 89 -76 94 -2 5 9 10 24 12 18 2 33 14 47 39 l21 36 -79 89 c-44 49 -89
102 -101 118 l-21 28 -73 -16 -73 -17 -34 33 c-33 32 -34 35 -28 88 l6 55 -56
28 c-63 31 -93 32 -147 9z"/>
<path fill="#000000" stroke="none" d="M15 1290 c27 -12 43 -12 25 0 -8 5 -22
9 -30 9 -10 0 -8 -3 5 -9z"/>
</g>
</svg>
