<?xml version="1.0" standalone="no"?>
<!DOCTYPE svg PUBLIC "-//W3C//DTD SVG 20010904//EN"
 "http://www.w3.org/TR/2001/REC-SVG-20010904/DTD/svg10.dtd">
<svg version="1.0" xmlns="http://www.w3.org/2000/svg"
 width="19.000000pt" height="16.000000pt" viewBox="0 0 19.000000 16.000000"
 preserveAspectRatio="xMidYMid meet">
<metadata>
Created by potrace 1.14, written by Peter Selinger 2001-2017
</metadata>
<g transform="translate(0.000000,16.000000) scale(0.100000,-0.100000)"
fill="#000000" stroke="none">
<path fill="#000000" stroke="none" d="M9 139 c-8 -16 -8 -28 0 -46 6 -13 11
-40 11 -59 0 -24 4 -34 13 -31 6 2 11 10 9 16 -1 6 11 11 29 11 27 0 30 -2 19
-15 -21 -25 9 -18 46 10 66 51 68 95 4 95 -30 0 -40 5 -45 20 -9 29 -70 28
-86 -1z"/>
</g>
</svg>
