<?xml version="1.0" standalone="no"?>
<!DOCTYPE svg PUBLIC "-//W3C//DTD SVG 20010904//EN"
 "http://www.w3.org/TR/2001/REC-SVG-20010904/DTD/svg10.dtd">
<svg version="1.0" xmlns="http://www.w3.org/2000/svg"
 width="426.000000pt" height="370.000000pt" viewBox="0 0 426.000000 370.000000"
 preserveAspectRatio="xMidYMid meet">
<metadata>
Created by potrace 1.14, written by Peter Selinger 2001-2017
</metadata>
<g transform="translate(0.000000,370.000000) scale(0.100000,-0.100000)"
fill="#000000" stroke="none">
<path fill="#000000" stroke="none" d="M623 3532 l-313 -167 -155 -230 -155
-230 0 -1452 0 -1453 1180 0 1180 0 -9 23 c-5 12 -70 181 -144 375 l-135 353
24 582 25 582 90 270 c49 149 89 285 89 302 0 18 -41 180 -91 360 -51 181
-102 365 -114 410 -12 46 -29 91 -37 100 -8 10 -77 88 -153 173 l-138 155
-116 6 c-64 4 -251 7 -416 7 l-300 1 -312 -167z"/>
<path fill="#000000" stroke="none" d="M4004 3511 c-48 -29 -70 -69 -92 -161
-15 -62 -18 -90 -10 -109 5 -14 25 -129 44 -255 19 -127 36 -232 39 -234 2 -2
63 32 137 75 133 79 133 79 130 114 -5 49 -38 92 -99 128 -79 48 -95 89 -44
116 43 22 73 68 63 96 -6 16 -1 41 19 88 15 36 25 69 21 73 -12 11 -136 76
-157 82 -12 3 -33 -2 -51 -13z"/>
</g>
</svg>
