<?xml version="1.0" standalone="no"?>
<!DOCTYPE svg PUBLIC "-//W3C//DTD SVG 20010904//EN"
 "http://www.w3.org/TR/2001/REC-SVG-20010904/DTD/svg10.dtd">
<svg version="1.0" xmlns="http://www.w3.org/2000/svg"
 width="514.000000pt" height="416.000000pt" viewBox="0 0 514.000000 416.000000"
 preserveAspectRatio="xMidYMid meet">
<metadata>
Created by potrace 1.14, written by Peter Selinger 2001-2017
</metadata>
<g transform="translate(0.000000,416.000000) scale(0.100000,-0.100000)"
fill="#000000" stroke="none">
<path fill="#000000" stroke="none" d="M2440 4146 l-745 -12 -98 -44 -98 -45
-39 -88 c-24 -52 -68 -125 -110 -180 -39 -51 -73 -101 -75 -112 -27 -120 -75
-452 -75 -512 0 -43 -7 -118 -15 -168 -8 -49 -15 -94 -15 -98 0 -5 -36 -25
-81 -46 -84 -40 -86 -44 -31 -56 20 -4 32 -13 32 -23 0 -36 -21 -87 -46 -113
-23 -24 -26 -34 -21 -66 13 -76 44 -149 94 -218 28 -38 61 -91 73 -116 26 -54
84 -92 206 -138 176 -65 204 -83 265 -162 55 -72 57 -76 64 -157 7 -80 6 -83
-31 -162 -20 -44 -42 -80 -47 -80 -5 0 -44 16 -87 35 -47 21 -93 35 -118 35
-34 0 -41 -4 -51 -28 -10 -24 -38 -40 -178 -103 -123 -55 -184 -88 -232 -128
-74 -60 -94 -71 -167 -95 -33 -11 -65 -32 -94 -61 l-45 -45 -16 22 -17 22 -59
-22 c-33 -12 -63 -22 -67 -22 -3 0 -6 15 -6 33 0 49 108 189 208 269 43 35 93
82 110 105 30 39 79 150 70 158 -15 15 -90 21 -131 10 -39 -10 -64 -28 -135
-97 -56 -54 -133 -113 -217 -167 -116 -74 -135 -91 -173 -147 -30 -45 -38 -64
-27 -64 8 0 15 -2 15 -4 0 -2 -32 -70 -71 -152 -43 -91 -75 -171 -80 -204 -5
-30 -15 -203 -23 -383 -13 -274 -19 -339 -36 -398 -12 -39 -20 -73 -18 -75 12
-12 3401 -44 4669 -44 l457 0 7 783 c7 771 7 784 -13 829 -18 42 -38 58 -248
200 -188 128 -271 177 -464 273 -214 107 -482 217 -623 255 -92 25 -98 57 -63
365 l26 230 -33 310 -34 310 -94 230 -93 230 -124 73 c-90 52 -133 72 -156 70
-17 -1 -366 -6 -776 -12z"/>
</g>
</svg>
