<?xml version="1.0" standalone="no"?>
<!DOCTYPE svg PUBLIC "-//W3C//DTD SVG 20010904//EN"
 "http://www.w3.org/TR/2001/REC-SVG-20010904/DTD/svg10.dtd">
<svg version="1.0" xmlns="http://www.w3.org/2000/svg"
 width="281.000000pt" height="240.000000pt" viewBox="0 0 281.000000 240.000000"
 preserveAspectRatio="xMidYMid meet">
<metadata>
Created by potrace 1.14, written by Peter Selinger 2001-2017
</metadata>
<g transform="translate(0.000000,240.000000) scale(0.100000,-0.100000)"
fill="#000000" stroke="none">
<path fill="#000000" stroke="none" d="M2235 2388 c-33 -4 -65 -10 -71 -12
-16 -6 -70 -107 -90 -169 -9 -29 -19 -55 -23 -59 -3 -3 -78 13 -166 36 l-160
42 -95 -17 c-52 -10 -142 -18 -199 -19 -102 0 -104 0 -151 -35 l-48 -35 5
-103 c6 -110 11 -124 79 -227 38 -58 46 -80 73 -213 l31 -148 -51 -101 c-44
-88 -53 -116 -66 -206 -13 -100 -17 -109 -90 -240 -42 -76 -77 -138 -78 -140
-2 -2 -20 4 -40 12 -31 13 -84 16 -292 16 l-254 0 -52 47 c-29 26 -63 57 -77
70 l-25 22 -115 -80 -115 -80 -82 -132 c-45 -72 -81 -133 -79 -134 1 -1 18 -9
38 -17 35 -15 36 -15 114 33 49 30 96 51 124 55 71 10 597 -52 874 -104 l109
-20 36 22 c20 11 74 58 121 104 82 80 239 214 250 214 3 0 95 -77 205 -171
254 -217 487 -447 510 -503 9 -23 32 -54 52 -70 l35 -30 35 20 c20 10 87 73
149 139 88 92 119 132 134 173 17 46 27 112 16 112 -2 0 -58 -32 -124 -70
l-121 -71 -58 30 c-112 58 -134 87 -218 281 -83 190 -89 200 -115 200 -10 0
-42 28 -72 62 -29 35 -97 111 -150 170 -85 94 -96 111 -89 131 46 113 91 203
104 205 11 2 26 -16 46 -56 25 -50 35 -60 63 -66 27 -5 37 -2 60 21 42 42 148
286 148 340 0 24 7 70 17 103 14 50 26 69 73 115 40 38 60 64 64 88 9 46 40
62 110 53 l54 -6 -19 73 c-10 39 -19 94 -19 121 0 38 -8 61 -36 107 -19 33
-37 59 -39 59 -1 0 -45 15 -96 33 -85 30 -100 33 -154 25z"/>
</g>
</svg>
