<?xml version="1.0" standalone="no"?>
<!DOCTYPE svg PUBLIC "-//W3C//DTD SVG 20010904//EN"
 "http://www.w3.org/TR/2001/REC-SVG-20010904/DTD/svg10.dtd">
<svg version="1.0" xmlns="http://www.w3.org/2000/svg"
 width="538.000000pt" height="464.000000pt" viewBox="0 0 538.000000 464.000000"
 preserveAspectRatio="xMidYMid meet">
<metadata>
Created by potrace 1.14, written by Peter Selinger 2001-2017
</metadata>
<g transform="translate(0.000000,464.000000) scale(0.100000,-0.100000)"
fill="#000000" stroke="none">
<path fill="#000000" stroke="none" d="M2940 4631 l-105 -6 -195 -96 -195 -96
-148 -150 -149 -150 -24 -169 c-13 -93 -42 -259 -64 -369 -32 -160 -44 -247
-57 -430 -15 -212 -15 -247 -1 -440 10 -131 14 -248 10 -310 l-7 -100 -90
-139 c-49 -77 -102 -167 -116 -200 -25 -59 -28 -63 -124 -120 -98 -59 -99 -59
-259 -86 -181 -30 -217 -45 -298 -119 -52 -47 -59 -51 -144 -65 -141 -25 -206
-48 -404 -140 -277 -131 -490 -247 -495 -271 -2 -11 -18 -243 -35 -515 -17
-272 -34 -523 -37 -556 l-6 -62 999 -6 c550 -3 1157 -8 1349 -11 l351 -6 -13
170 -14 170 40 79 c32 63 45 107 66 225 l27 147 -51 176 c-29 97 -51 178 -49
179 2 2 67 17 145 35 l141 32 64 -36 c34 -20 69 -40 76 -44 10 -7 -6 -50 -67
-186 l-81 -177 85 -181 c79 -167 88 -195 131 -377 26 -108 50 -199 53 -204 6
-6 2119 -28 2128 -22 2 1 -133 283 -298 626 l-301 626 -261 138 c-254 134
-265 141 -352 226 l-90 88 -88 21 -88 20 -187 171 c-122 111 -186 177 -184
188 2 9 60 186 128 393 l125 377 -15 408 c-9 224 -19 478 -22 563 l-7 155
-102 195 c-56 107 -122 228 -146 269 l-44 74 -160 48 c-91 28 -177 48 -200 47
-22 -1 -87 -4 -145 -7z"/>
</g>
</svg>
