<?xml version="1.0" standalone="no"?>
<!DOCTYPE svg PUBLIC "-//W3C//DTD SVG 20010904//EN"
 "http://www.w3.org/TR/2001/REC-SVG-20010904/DTD/svg10.dtd">
<svg version="1.0" xmlns="http://www.w3.org/2000/svg"
 width="401.000000pt" height="342.000000pt" viewBox="0 0 401.000000 342.000000"
 preserveAspectRatio="xMidYMid meet">
<metadata>
Created by potrace 1.14, written by Peter Selinger 2001-2017
</metadata>
<g transform="translate(0.000000,342.000000) scale(0.100000,-0.100000)"
fill="#000000" stroke="none">
<path fill="#000000" stroke="none" d="M3190 3399 c-42 -18 -80 -62 -80 -92 0
-7 -20 -41 -44 -77 -35 -53 -51 -92 -85 -219 -23 -85 -47 -163 -52 -174 -8
-13 -5 -27 10 -53 12 -19 21 -51 21 -69 0 -42 51 -173 92 -238 17 -27 40 -50
54 -53 27 -7 31 -31 9 -60 -8 -10 -19 -35 -25 -54 -8 -31 -21 -42 -87 -79
-108 -60 -153 -108 -226 -234 -47 -84 -69 -113 -92 -123 -45 -19 -210 -262
-230 -340 -8 -32 -15 -66 -15 -76 0 -27 -41 -39 -170 -48 -68 -4 -145 -17
-190 -30 -79 -24 -112 -27 -145 -16 -16 6 -24 1 -34 -17 -10 -20 -38 -32 -149
-66 -76 -23 -200 -55 -277 -71 -77 -16 -154 -35 -172 -42 -22 -10 -60 -52
-128 -146 -106 -145 -99 -139 -271 -244 -102 -62 -120 -77 -112 -91 7 -14 2
-20 -32 -33 -22 -9 -40 -21 -40 -26 0 -6 -32 -43 -70 -83 l-71 -72 -77 13
c-96 15 -213 64 -272 113 -79 67 -116 79 -188 65 -28 -6 -32 -11 -38 -53 -4
-25 -2 -86 4 -135 l11 -90 58 -58 c34 -34 101 -84 160 -119 71 -42 100 -65 96
-75 -3 -8 9 -30 26 -49 17 -20 31 -40 31 -45 0 -16 94 -41 131 -34 41 8 145
63 214 114 28 20 79 51 115 69 36 18 66 34 67 35 1 1 -4 23 -12 48 -15 52 -8
104 25 169 30 58 77 78 202 85 57 3 113 7 124 10 35 6 137 89 157 126 20 38
67 72 147 108 31 14 69 35 85 48 l30 23 -44 -6 c-24 -3 -59 -1 -77 5 -30 10
-34 16 -45 69 l-11 59 -57 -14 c-75 -18 -75 -18 -110 12 -27 23 -31 32 -31 77
1 49 3 54 49 94 47 41 52 43 133 49 l84 7 204 -106 c196 -100 209 -105 295
-116 106 -12 161 -3 277 49 89 39 145 100 212 229 66 125 133 229 201 311 103
122 257 181 367 140 30 -11 38 -21 48 -56 8 -28 20 -45 36 -53 34 -15 36 -15
32 15 -6 50 17 51 178 9 108 -28 159 -46 185 -66 53 -41 188 -73 263 -62 53 7
61 12 89 51 47 65 49 133 6 269 -29 92 -40 113 -83 161 l-50 54 28 78 c17 48
25 87 21 100 -5 15 0 26 18 40 33 26 117 182 117 218 0 15 -6 36 -13 46 -14
18 -163 66 -209 66 -29 0 -37 17 -16 38 12 12 14 147 3 181 -3 10 -22 25 -43
35 -36 18 -37 18 -19 -1 9 -11 14 -23 10 -26 -10 -11 -70 -8 -97 4 -31 14 -37
41 -39 159 -2 92 -3 97 -35 138 -31 38 -32 42 -13 42 35 0 69 22 76 49 6 23
-2 34 -72 99 -133 125 -243 160 -353 111z"/>
</g>
</svg>
