<?xml version="1.0" standalone="no"?>
<!DOCTYPE svg PUBLIC "-//W3C//DTD SVG 20010904//EN"
 "http://www.w3.org/TR/2001/REC-SVG-20010904/DTD/svg10.dtd">
<svg version="1.0" xmlns="http://www.w3.org/2000/svg"
 width="611.000000pt" height="522.000000pt" viewBox="0 0 611.000000 522.000000"
 preserveAspectRatio="xMidYMid meet">
<metadata>
Created by potrace 1.14, written by Peter Selinger 2001-2017
</metadata>
<g transform="translate(0.000000,522.000000) scale(0.100000,-0.100000)"
fill="#000000" stroke="none">
<path fill="#000000" stroke="none" d="M5 4523 c8 -798 11 -849 49 -928 l27
-55 65 0 64 0 -7 -42 c-11 -57 -10 -520 0 -580 8 -45 11 -49 68 -80 l59 -33 0
-205 c0 -148 -4 -220 -14 -256 -10 -33 -16 -127 -19 -294 -5 -224 -8 -257 -36
-389 -41 -189 -40 -208 4 -251 19 -19 47 -51 61 -71 14 -20 39 -43 55 -49 17
-7 37 -26 45 -41 14 -29 16 -29 103 -29 70 0 91 3 102 17 8 9 37 31 66 50 101
64 299 63 353 -1 10 -13 40 -16 170 -16 l158 0 81 93 81 93 117 -3 c65 -2 197
-6 293 -9 l174 -6 66 -63 c73 -71 459 -374 476 -375 7 0 6 20 -3 63 -8 34 -16
71 -18 82 -2 11 -30 42 -62 68 -32 27 -79 74 -105 105 l-48 57 0 195 c0 107 5
287 12 400 l12 205 76 67 77 67 6 68 c4 37 7 118 7 179 0 61 7 176 15 255 8
79 22 223 30 319 27 305 77 416 234 519 77 51 80 55 87 98 4 25 -1 109 -10
191 -9 80 -15 147 -13 149 2 2 34 -1 70 -6 72 -10 159 -52 213 -103 l31 -29
17 83 c9 46 16 104 16 129 0 26 11 77 25 113 33 87 32 102 -10 142 -37 35 -42
55 -25 116 10 36 17 41 127 93 65 31 124 61 132 68 19 15 112 22 180 12 47 -6
50 -8 105 -89 31 -46 56 -91 56 -101 0 -9 10 -30 23 -45 l24 -28 53 127 c30
69 66 153 80 185 l27 59 148 -222 149 -221 -17 -219 -17 -218 44 -116 44 -117
-70 -59 c-58 -49 -83 -82 -147 -188 -89 -148 -81 -144 -236 -117 -124 21 -118
18 -140 75 -31 79 -41 83 -177 61 -95 -16 -144 -31 -281 -88 l-165 -69 -6
-115 c-4 -77 -16 -153 -36 -230 -16 -63 -28 -115 -27 -116 1 -1 52 -24 112
-51 l110 -49 37 -74 c20 -41 38 -79 40 -83 2 -4 99 -34 217 -67 117 -32 215
-60 217 -62 2 -2 -93 -153 -211 -336 l-213 -332 -367 -375 -368 -375 7 -58 c7
-58 15 -70 75 -105 24 -13 35 -12 147 22 113 34 126 40 215 110 52 41 100 79
108 85 8 6 0 -11 -17 -39 -17 -27 -27 -52 -21 -53 5 -2 172 58 372 134 l362
137 120 126 c66 69 142 149 170 178 l50 52 80 -64 c44 -36 81 -69 83 -74 2 -5
-68 -57 -155 -117 -129 -88 -185 -134 -310 -257 -84 -83 -149 -155 -146 -160
3 -5 186 -129 407 -275 383 -254 405 -267 488 -289 49 -13 122 -44 167 -69 44
-24 104 -49 135 -55 46 -10 56 -16 67 -40 l11 -29 33 20 c21 13 50 20 82 20
l50 0 7 -52 c13 -101 19 -111 104 -156 l78 -41 270 156 c148 85 270 157 272
158 2 1 -9 27 -24 56 -26 52 -78 104 -396 392 l-52 47 264 265 264 264 -44
335 -44 335 -467 378 -468 378 0 58 c-1 94 51 377 171 919 l112 507 -129 458
c-71 252 -132 462 -135 466 -4 5 -887 14 -1961 22 -1075 7 -2223 16 -2552 19
l-599 6 7 -697z"/>
<path fill="#000000" stroke="none" d="M5995 5181 l-40 -6 -8 -157 c-8 -136
-4 -213 22 -555 41 -522 34 -479 77 -488 20 -3 42 -9 50 -12 12 -4 14 81 14
611 l0 616 -37 -1 c-21 -1 -56 -5 -78 -8z"/>
<path fill="#000000" stroke="none" d="M6012 731 l-92 -46 55 -79 c48 -70 119
-136 131 -123 3 2 3 70 2 149 l-3 146 -93 -47z"/>
</g>
</svg>
