<?xml version="1.0" standalone="no"?>
<!DOCTYPE svg PUBLIC "-//W3C//DTD SVG 20010904//EN"
 "http://www.w3.org/TR/2001/REC-SVG-20010904/DTD/svg10.dtd">
<svg version="1.0" xmlns="http://www.w3.org/2000/svg"
 width="47.000000pt" height="39.000000pt" viewBox="0 0 47.000000 39.000000"
 preserveAspectRatio="xMidYMid meet">
<metadata>
Created by potrace 1.14, written by Peter Selinger 2001-2017
</metadata>
<g transform="translate(0.000000,39.000000) scale(0.100000,-0.100000)"
fill="#000000" stroke="none">
<path fill="#000000" stroke="none" d="M192 378 c-7 -7 -12 -26 -12 -42 0 -56
-10 -73 -43 -80 -32 -7 -77 -42 -77 -61 0 -6 -13 -37 -30 -68 -54 -104 -41
-120 98 -121 87 -1 97 1 107 19 11 21 43 23 80 4 12 -6 47 -9 79 -7 86 4 89
16 40 130 -37 85 -44 95 -82 113 -35 17 -41 25 -42 50 0 48 -25 75 -69 75 -20
0 -42 -5 -49 -12z"/>
</g>
</svg>
