<?xml version="1.0" standalone="no"?>
<!DOCTYPE svg PUBLIC "-//W3C//DTD SVG 20010904//EN"
 "http://www.w3.org/TR/2001/REC-SVG-20010904/DTD/svg10.dtd">
<svg version="1.0" xmlns="http://www.w3.org/2000/svg"
 width="36.000000pt" height="30.000000pt" viewBox="0 0 36.000000 30.000000"
 preserveAspectRatio="xMidYMid meet">
<metadata>
Created by potrace 1.14, written by Peter Selinger 2001-2017
</metadata>
<g transform="translate(0.000000,30.000000) scale(0.100000,-0.100000)"
fill="#000000" stroke="none">
<path fill="#000000" stroke="none" d="M157 280 c-14 -11 -37 -20 -51 -20 -16
0 -41 -14 -64 -34 -35 -33 -37 -38 -37 -96 0 -58 2 -63 37 -96 37 -33 40 -34
122 -34 l85 0 51 48 52 47 1 72 c0 77 -7 94 -54 119 -36 18 -53 18 -45 -1 5
-14 4 -14 -16 0 -30 20 -50 19 -81 -5z"/>
</g>
</svg>
