<?xml version="1.0" standalone="no"?>
<!DOCTYPE svg PUBLIC "-//W3C//DTD SVG 20010904//EN"
 "http://www.w3.org/TR/2001/REC-SVG-20010904/DTD/svg10.dtd">
<svg version="1.0" xmlns="http://www.w3.org/2000/svg"
 width="32.000000pt" height="26.000000pt" viewBox="0 0 32.000000 26.000000"
 preserveAspectRatio="xMidYMid meet">
<metadata>
Created by potrace 1.14, written by Peter Selinger 2001-2017
</metadata>
<g transform="translate(0.000000,26.000000) scale(0.100000,-0.100000)"
fill="#000000" stroke="none">
<path fill="#000000" stroke="none" d="M65 233 c-27 -14 -53 -31 -57 -37 -14
-20 -8 -58 12 -83 11 -14 20 -31 20 -38 0 -7 16 -27 35 -44 31 -27 43 -31 90
-31 52 0 57 2 105 49 27 27 50 57 50 66 0 26 -49 103 -80 125 -40 28 -111 25
-175 -7z"/>
</g>
</svg>
