<?xml version="1.0" standalone="no"?>
<!DOCTYPE svg PUBLIC "-//W3C//DTD SVG 20010904//EN"
 "http://www.w3.org/TR/2001/REC-SVG-20010904/DTD/svg10.dtd">
<svg version="1.0" xmlns="http://www.w3.org/2000/svg"
 width="45.000000pt" height="38.000000pt" viewBox="0 0 45.000000 38.000000"
 preserveAspectRatio="xMidYMid meet">
<metadata>
Created by potrace 1.14, written by Peter Selinger 2001-2017
</metadata>
<g transform="translate(0.000000,38.000000) scale(0.100000,-0.100000)"
fill="#000000" stroke="none">
<path fill="#000000" stroke="none" d="M200 367 c-77 -13 -122 -51 -165 -141
-19 -40 -35 -85 -35 -101 0 -37 51 -125 73 -125 21 0 21 16 2 50 -21 37 -19
40 24 23 35 -14 44 -14 92 1 30 8 78 33 108 56 29 22 57 40 63 40 5 0 16 16
24 35 9 22 23 37 39 41 24 6 24 7 7 30 -16 23 -22 24 -124 23 -58 -1 -111 2
-117 5 -6 4 -11 17 -11 28 0 20 4 20 100 16 55 -3 99 -4 97 -2 -2 2 -30 9 -62
17 -43 9 -76 11 -115 4z"/>
</g>
</svg>
