<?xml version="1.0" standalone="no"?>
<!DOCTYPE svg PUBLIC "-//W3C//DTD SVG 20010904//EN"
 "http://www.w3.org/TR/2001/REC-SVG-20010904/DTD/svg10.dtd">
<svg version="1.0" xmlns="http://www.w3.org/2000/svg"
 width="168.000000pt" height="141.000000pt" viewBox="0 0 168.000000 141.000000"
 preserveAspectRatio="xMidYMid meet">
<metadata>
Created by potrace 1.14, written by Peter Selinger 2001-2017
</metadata>
<g transform="translate(0.000000,141.000000) scale(0.100000,-0.100000)"
fill="#000000" stroke="none">
<path fill="#000000" stroke="none" d="M0 778 l0 -635 52 -2 c29 -1 150 -12
268 -25 151 -16 217 -19 222 -12 22 32 16 116 -36 501 -30 226 -58 448 -61
495 -3 47 -8 105 -11 130 l-6 45 109 -114 c59 -63 128 -142 151 -176 l44 -62
-66 -314 c-42 -199 -68 -351 -72 -416 l-7 -102 34 -5 c19 -3 55 -7 80 -10 l46
-5 12 38 c6 21 27 65 46 96 19 32 40 74 46 94 13 42 43 77 80 97 23 12 29 11
39 -1 7 -8 20 -15 30 -15 20 0 24 -25 36 -231 l6 -107 62 -6 c169 -19 392 -33
399 -26 5 4 -12 11 -36 14 -25 4 -50 13 -56 20 -28 33 -51 133 -51 220 0 83 2
93 31 137 16 26 41 55 55 64 14 9 42 31 62 49 31 28 47 34 100 39 35 3 66 8
69 10 3 3 -46 190 -108 415 l-113 410 -216 6 c-118 3 -446 9 -727 12 l-513 6
0 -634z"/>
</g>
</svg>
