<?xml version="1.0" standalone="no"?>
<!DOCTYPE svg PUBLIC "-//W3C//DTD SVG 20010904//EN"
 "http://www.w3.org/TR/2001/REC-SVG-20010904/DTD/svg10.dtd">
<svg version="1.0" xmlns="http://www.w3.org/2000/svg"
 width="63.000000pt" height="53.000000pt" viewBox="0 0 63.000000 53.000000"
 preserveAspectRatio="xMidYMid meet">
<metadata>
Created by potrace 1.14, written by Peter Selinger 2001-2017
</metadata>
<g transform="translate(0.000000,53.000000) scale(0.100000,-0.100000)"
fill="#000000" stroke="none">
<path fill="#000000" stroke="none" d="M311 523 c-58 -8 -77 -50 -42 -95 11
-13 22 -41 26 -61 6 -33 11 -37 37 -37 23 0 29 -4 24 -16 -3 -9 -6 -19 -6 -24
0 -5 -18 -11 -41 -15 -22 -4 -48 -15 -57 -25 -11 -11 -51 -24 -112 -35 -94
-16 -96 -17 -118 -55 -12 -22 -22 -55 -22 -74 0 -36 0 -36 45 -36 25 0 45 3
45 8 0 4 11 25 25 47 l26 40 -7 -55 -6 -56 54 -17 c44 -14 94 -17 253 -17
l197 0 -6 67 c-4 38 -14 100 -23 138 -14 63 -21 76 -74 130 -32 33 -73 89 -92
125 -36 70 -43 74 -126 63z"/>
</g>
</svg>
