<?xml version="1.0" standalone="no"?>
<!DOCTYPE svg PUBLIC "-//W3C//DTD SVG 20010904//EN"
 "http://www.w3.org/TR/2001/REC-SVG-20010904/DTD/svg10.dtd">
<svg version="1.0" xmlns="http://www.w3.org/2000/svg"
 width="40.000000pt" height="32.000000pt" viewBox="0 0 40.000000 32.000000"
 preserveAspectRatio="xMidYMid meet">
<metadata>
Created by potrace 1.14, written by Peter Selinger 2001-2017
</metadata>
<g transform="translate(0.000000,32.000000) scale(0.100000,-0.100000)"
fill="#000000" stroke="none">
<path fill="#000000" stroke="none" d="M37 308 c-22 -18 -42 -71 -27 -76 21
-7 41 -35 35 -50 -9 -23 48 -71 83 -70 15 1 37 -4 49 -10 11 -6 23 -9 26 -5 4
3 22 -8 42 -26 20 -17 53 -40 75 -51 l40 -20 20 39 20 40 -30 55 c-16 31 -32
76 -36 101 -5 38 -10 46 -33 51 -14 4 -34 13 -43 22 -14 11 -26 12 -55 5 -21
-5 -49 -6 -63 -2 -40 11 -85 10 -103 -3z"/>
</g>
</svg>
