<?xml version="1.0" standalone="no"?>
<!DOCTYPE svg PUBLIC "-//W3C//DTD SVG 20010904//EN"
 "http://www.w3.org/TR/2001/REC-SVG-20010904/DTD/svg10.dtd">
<svg version="1.0" xmlns="http://www.w3.org/2000/svg"
 width="52.000000pt" height="43.000000pt" viewBox="0 0 52.000000 43.000000"
 preserveAspectRatio="xMidYMid meet">
<metadata>
Created by potrace 1.14, written by Peter Selinger 2001-2017
</metadata>
<g transform="translate(0.000000,43.000000) scale(0.100000,-0.100000)"
fill="#000000" stroke="none">
<path fill="#000000" stroke="none" d="M22 414 c-29 -20 -28 -58 1 -132 20
-50 22 -66 16 -132 -5 -41 -11 -87 -15 -103 -3 -15 -2 -27 2 -27 21 1 46 32
85 106 23 43 43 80 44 81 2 4 126 -43 128 -49 1 -3 -30 -32 -70 -66 -83 -69
-82 -79 12 -84 42 -2 60 1 60 9 0 14 44 48 51 40 3 -3 26 4 51 15 24 11 46 18
48 16 1 -1 10 -18 19 -36 14 -27 21 -32 39 -26 12 3 23 7 25 9 1 1 -5 21 -13
44 -13 38 -13 45 0 64 23 32 19 46 -31 119 -51 74 -33 67 -247 100 -68 10 -81
16 -98 40 -24 32 -70 38 -107 12z"/>
</g>
</svg>
