<?xml version="1.0" standalone="no"?>
<!DOCTYPE svg PUBLIC "-//W3C//DTD SVG 20010904//EN"
 "http://www.w3.org/TR/2001/REC-SVG-20010904/DTD/svg10.dtd">
<svg version="1.0" xmlns="http://www.w3.org/2000/svg"
 width="253.000000pt" height="213.000000pt" viewBox="0 0 253.000000 213.000000"
 preserveAspectRatio="xMidYMid meet">
<metadata>
Created by potrace 1.14, written by Peter Selinger 2001-2017
</metadata>
<g transform="translate(0.000000,213.000000) scale(0.100000,-0.100000)"
fill="#000000" stroke="none">
<path fill="#000000" stroke="none" d="M1550 2075 c-80 -29 -148 -59 -152 -67
-22 -41 -58 -266 -58 -364 l0 -105 42 -56 c42 -55 42 -56 22 -72 -11 -9 -79
-67 -152 -130 -127 -110 -135 -118 -203 -235 l-70 -121 -197 -116 -197 -116
-205 8 -205 7 -35 -30 c-19 -17 -59 -53 -88 -80 l-52 -49 6 -97 c4 -53 13
-108 20 -122 7 -14 75 -89 151 -167 l138 -142 810 -11 810 -11 90 21 c121 28
125 30 125 41 0 6 -23 43 -51 84 -77 110 -64 137 93 191 84 28 99 29 139 9 27
-14 29 -18 23 -56 l-7 -41 59 7 c32 4 62 10 65 14 3 3 18 92 32 196 20 141 27
232 27 350 0 155 -1 165 -42 322 l-42 162 -135 64 c-75 36 -179 92 -231 124
l-95 58 -135 292 c-74 161 -139 292 -145 292 -5 -1 -75 -25 -155 -54z"/>
</g>
</svg>
