<?xml version="1.0" standalone="no"?>
<!DOCTYPE svg PUBLIC "-//W3C//DTD SVG 20010904//EN"
 "http://www.w3.org/TR/2001/REC-SVG-20010904/DTD/svg10.dtd">
<svg version="1.0" xmlns="http://www.w3.org/2000/svg"
 width="112.000000pt" height="97.000000pt" viewBox="0 0 112.000000 97.000000"
 preserveAspectRatio="xMidYMid meet">
<metadata>
Created by potrace 1.14, written by Peter Selinger 2001-2017
</metadata>
<g transform="translate(0.000000,97.000000) scale(0.100000,-0.100000)"
fill="#000000" stroke="none">
<path fill="#000000" stroke="none" d="M130 955 c-19 -23 3 -64 56 -105 58
-45 139 -147 146 -185 6 -30 -11 -77 -46 -130 -11 -16 -20 -38 -21 -50 0 -14
-17 -29 -60 -52 -33 -18 -63 -34 -67 -35 -10 -4 -47 -136 -57 -198 -6 -39 -10
-45 -29 -43 -15 2 -26 -6 -37 -27 -8 -16 -15 -33 -15 -38 0 -7 162 -36 205
-37 6 0 13 18 17 40 25 147 40 168 122 163 l51 -3 -3 -55 c-2 -30 -8 -60 -14
-67 -5 -7 -8 -18 -5 -25 2 -7 -7 -26 -21 -43 -13 -16 -20 -30 -16 -32 5 -1 39
-9 77 -17 l67 -14 18 27 c28 40 66 184 58 223 -5 30 -2 38 39 78 36 35 51 62
77 133 l32 89 50 -6 c133 -15 235 -18 266 -7 26 9 38 8 54 -2 29 -19 46 -11
46 22 0 40 -39 72 -97 79 -26 3 -57 11 -68 18 -11 7 -42 18 -68 24 -26 6 -89
35 -139 65 -50 30 -95 55 -100 55 -4 0 -8 23 -8 50 0 28 5 50 10 50 6 0 10 4
10 10 0 14 -67 40 -85 34 -16 -6 -58 -60 -68 -86 -12 -32 -79 -23 -160 22 -40
21 -102 50 -139 64 -57 22 -68 23 -78 11z"/>
</g>
</svg>
