<?xml version="1.0" standalone="no"?>
<!DOCTYPE svg PUBLIC "-//W3C//DTD SVG 20010904//EN"
 "http://www.w3.org/TR/2001/REC-SVG-20010904/DTD/svg10.dtd">
<svg version="1.0" xmlns="http://www.w3.org/2000/svg"
 width="64.000000pt" height="54.000000pt" viewBox="0 0 64.000000 54.000000"
 preserveAspectRatio="xMidYMid meet">
<metadata>
Created by potrace 1.14, written by Peter Selinger 2001-2017
</metadata>
<g transform="translate(0.000000,54.000000) scale(0.100000,-0.100000)"
fill="#000000" stroke="none">
<path fill="#000000" stroke="none" d="M67 493 l-67 -47 0 -72 c0 -71 0 -72
31 -85 18 -7 55 -30 83 -51 28 -21 81 -48 118 -60 61 -20 71 -27 114 -84 52
-68 53 -69 169 -79 39 -3 82 -8 96 -11 l25 -5 -8 81 c-7 64 -16 92 -43 139
-32 55 -37 59 -80 65 -39 5 -59 17 -123 74 -62 56 -171 136 -238 175 -6 3 -41
-15 -77 -40z"/>
</g>
</svg>
