<?xml version="1.0" standalone="no"?>
<!DOCTYPE svg PUBLIC "-//W3C//DTD SVG 20010904//EN"
 "http://www.w3.org/TR/2001/REC-SVG-20010904/DTD/svg10.dtd">
<svg version="1.0" xmlns="http://www.w3.org/2000/svg"
 width="402.000000pt" height="339.000000pt" viewBox="0 0 402.000000 339.000000"
 preserveAspectRatio="xMidYMid meet">
<metadata>
Created by potrace 1.14, written by Peter Selinger 2001-2017
</metadata>
<g transform="translate(0.000000,339.000000) scale(0.100000,-0.100000)"
fill="#000000" stroke="none">
<path fill="#000000" stroke="none" d="M1171 3355 c-41 -18 -77 -39 -82 -46
-4 -8 -32 -79 -62 -159 -52 -141 -54 -149 -59 -271 l-6 -126 -92 -176 c-69
-133 -102 -210 -134 -314 l-42 -138 38 -88 c32 -75 55 -107 145 -209 l106
-120 -10 -139 -10 -139 -99 -149 -99 -149 -100 -42 c-375 -156 -515 -209 -587
-220 -43 -7 -78 -16 -78 -19 1 -3 25 -33 55 -65 l54 -60 50 43 51 42 0 -54 c0
-84 14 -92 137 -77 87 11 130 24 388 125 247 97 301 115 366 120 l77 7 70 72
71 71 26 205 c21 160 26 227 21 304 -4 55 -5 98 -2 95 2 -2 58 -152 124 -334
l121 -330 -28 -115 -27 -116 48 -264 49 -264 56 -98 c30 -54 60 -102 67 -106
6 -4 47 -16 90 -27 l79 -21 289 59 290 59 135 81 c77 46 172 113 222 157 l86
77 108 290 c138 375 138 352 15 485 -51 55 -138 135 -193 178 -55 43 -155 134
-223 202 l-122 124 152 -14 c112 -9 263 -11 563 -7 l410 6 156 72 156 72 17
114 c9 63 15 115 13 116 -1 0 -48 40 -105 89 -83 71 -115 92 -170 110 -63 22
-73 22 -167 11 -92 -10 -110 -16 -222 -73 -147 -74 -163 -76 -418 -37 -163 25
-167 26 -263 80 l-98 55 -28 92 c-16 51 -49 134 -74 183 -39 79 -53 96 -108
138 l-63 47 -143 0 -143 1 -145 82 -145 83 -54 109 c-45 90 -68 123 -137 194
-78 81 -88 88 -172 119 -49 17 -95 32 -103 31 -8 0 -47 -16 -88 -34z"/>
</g>
</svg>
