<?xml version="1.0" standalone="no"?>
<!DOCTYPE svg PUBLIC "-//W3C//DTD SVG 20010904//EN"
 "http://www.w3.org/TR/2001/REC-SVG-20010904/DTD/svg10.dtd">
<svg version="1.0" xmlns="http://www.w3.org/2000/svg"
 width="56.000000pt" height="48.000000pt" viewBox="0 0 56.000000 48.000000"
 preserveAspectRatio="xMidYMid meet">
<metadata>
Created by potrace 1.14, written by Peter Selinger 2001-2017
</metadata>
<g transform="translate(0.000000,48.000000) scale(0.100000,-0.100000)"
fill="#000000" stroke="none">
<path fill="#000000" stroke="none" d="M350 429 c-30 -28 -116 -100 -191 -159
-115 -92 -137 -115 -147 -148 -17 -57 -16 -65 8 -50 17 11 24 8 52 -19 18 -18
45 -36 59 -42 26 -9 27 -7 51 52 l24 61 148 84 c81 46 149 82 151 80 1 -2 -17
-48 -41 -103 -24 -55 -43 -108 -44 -118 0 -24 28 -33 89 -29 l51 4 0 219 0
219 -77 0 -78 -1 -55 -50z"/>
</g>
</svg>
