<?xml version="1.0" standalone="no"?>
<!DOCTYPE svg PUBLIC "-//W3C//DTD SVG 20010904//EN"
 "http://www.w3.org/TR/2001/REC-SVG-20010904/DTD/svg10.dtd">
<svg version="1.0" xmlns="http://www.w3.org/2000/svg"
 width="128.000000pt" height="103.000000pt" viewBox="0 0 128.000000 103.000000"
 preserveAspectRatio="xMidYMid meet">
<metadata>
Created by potrace 1.14, written by Peter Selinger 2001-2017
</metadata>
<g transform="translate(0.000000,103.000000) scale(0.100000,-0.100000)"
fill="#000000" stroke="none">
<path fill="#000000" stroke="none" d="M139 1023 c-1 -5 -1 -10 -1 -13 0 -3
-22 -3 -49 -2 -59 5 -79 -9 -78 -52 1 -17 -2 -83 -6 -147 -5 -64 -4 -125 0
-135 5 -11 7 -92 7 -181 l-2 -163 32 0 c20 0 28 -3 21 -8 -9 -6 -11 -36 -9
-106 5 -112 18 -136 72 -136 50 0 68 34 59 108 -4 31 -9 102 -10 157 -2 101
-23 193 -68 293 -10 24 -16 54 -13 65 8 33 111 137 135 137 19 0 21 6 21 63 0
84 -25 127 -75 127 -19 0 -36 -3 -36 -7z"/>
<path fill="#000000" stroke="none" d="M1120 913 c-8 -3 -31 -22 -51 -41 l-37
-36 20 -55 c14 -41 18 -79 17 -141 -1 -47 4 -104 11 -127 16 -52 7 -93 -20
-93 -20 0 -20 -4 -14 -168 8 -199 9 -202 95 -202 83 0 91 14 84 156 -3 60 -6
174 -6 254 -1 136 1 148 24 190 14 25 28 71 32 102 7 55 5 60 -29 113 -34 51
-40 55 -74 54 -20 0 -44 -3 -52 -6z"/>
<path fill="#000000" stroke="none" d="M652 728 c-7 -7 -30 -11 -53 -9 -38 2
-39 1 -28 -17 12 -19 6 -38 -47 -147 -13 -27 -13 -44 0 -145 8 -63 18 -151 21
-195 7 -92 22 -115 71 -115 60 0 80 66 51 162 -12 38 -14 66 -8 128 3 37 21
-18 21 -66 0 -31 8 -67 22 -95 30 -60 46 -104 53 -153 9 -53 30 -76 69 -76 35
0 35 0 37 131 1 56 -3 73 -26 113 -28 48 -30 60 -33 193 -2 51 -7 67 -29 94
-16 18 -26 34 -25 36 2 2 -6 35 -18 74 -12 39 -19 78 -16 85 7 18 -45 19 -62
2z"/>
<path fill="#000000" stroke="none" d="M176 697 c-16 -12 -18 -22 -13 -67 12
-103 40 -88 35 19 -3 59 -4 61 -22 48z"/>
<path fill="#000000" stroke="none" d="M470 641 c0 -57 15 -75 30 -35 15 38 9
78 -12 82 -15 3 -18 -4 -18 -47z"/>
</g>
</svg>
