<?xml version="1.0" standalone="no"?>
<!DOCTYPE svg PUBLIC "-//W3C//DTD SVG 20010904//EN"
 "http://www.w3.org/TR/2001/REC-SVG-20010904/DTD/svg10.dtd">
<svg version="1.0" xmlns="http://www.w3.org/2000/svg"
 width="472.000000pt" height="393.000000pt" viewBox="0 0 472.000000 393.000000"
 preserveAspectRatio="xMidYMid meet">
<metadata>
Created by potrace 1.14, written by Peter Selinger 2001-2017
</metadata>
<g transform="translate(0.000000,393.000000) scale(0.100000,-0.100000)"
fill="#000000" stroke="none">
<path fill="#000000" stroke="none" d="M856 3699 l-199 -232 7 -126 c5 -92 22
-197 62 -390 30 -146 54 -270 54 -277 0 -7 -51 -56 -112 -110 -62 -54 -238
-222 -390 -373 l-278 -276 0 -957 0 -958 1670 0 c919 0 1670 3 1670 6 0 3 -13
59 -30 124 -16 65 -30 125 -30 133 0 8 166 114 381 243 l382 228 126 18 c106
14 113 16 45 12 l-82 -5 -7 153 c-4 84 -6 164 -4 178 4 23 13 27 158 60 l155
35 22 50 c36 78 74 209 74 252 0 35 7 46 70 108 109 108 148 215 83 231 -13 4
-43 3 -66 -1 -140 -23 -137 -23 -126 -2 12 21 12 20 -17 35 -12 6 -36 44 -55
87 -19 41 -38 75 -43 75 -5 0 -65 -18 -135 -40 l-126 -40 -164 -152 c-144
-134 -161 -153 -146 -164 13 -10 14 -16 5 -33 -6 -12 -18 -21 -26 -21 -9 0
-42 -21 -75 -46 -33 -25 -90 -59 -127 -76 -37 -16 -83 -45 -102 -63 -19 -18
-53 -38 -75 -45 -56 -18 -103 -46 -155 -96 -31 -29 -59 -46 -90 -53 -70 -16
-73 -15 -55 18 l15 30 -73 -33 c-39 -19 -112 -52 -161 -75 -102 -47 -83 -52
-199 52 -51 45 -71 57 -98 57 -59 0 -73 9 -114 72 -26 41 -56 72 -92 94 -58
38 -68 39 -125 22 -47 -14 -50 -11 -68 70 -9 40 -25 73 -56 112 -30 38 -40 56
-30 60 8 3 -41 70 -141 190 -84 102 -153 188 -153 191 0 3 26 12 58 18 31 7
115 27 186 43 l128 30 40 87 c35 74 42 103 54 206 7 66 14 123 14 127 0 3 24
16 53 28 l54 22 -51 157 -50 156 -1 270 0 270 -43 105 -42 105 -193 114 -192
114 -225 8 c-124 4 -297 10 -385 14 l-160 6 -199 -232z"/>
</g>
</svg>
