<?xml version="1.0" standalone="no"?>
<!DOCTYPE svg PUBLIC "-//W3C//DTD SVG 20010904//EN"
 "http://www.w3.org/TR/2001/REC-SVG-20010904/DTD/svg10.dtd">
<svg version="1.0" xmlns="http://www.w3.org/2000/svg"
 width="84.000000pt" height="73.000000pt" viewBox="0 0 84.000000 73.000000"
 preserveAspectRatio="xMidYMid meet">
<metadata>
Created by potrace 1.14, written by Peter Selinger 2001-2017
</metadata>
<g transform="translate(0.000000,73.000000) scale(0.100000,-0.100000)"
fill="#000000" stroke="none">
<path fill="#000000" stroke="none" d="M0 718 c0 -7 13 -62 28 -122 28 -109
28 -110 84 -159 l56 -49 120 -5 c73 -4 131 -2 150 5 l30 10 -20 -61 c-12 -34
-36 -79 -55 -100 -18 -20 -33 -41 -33 -46 0 -5 -3 -17 -7 -27 -6 -15 -1 -17
50 -11 l56 7 27 -59 c21 -45 35 -63 62 -75 19 -9 36 -16 37 -14 23 29 23 49
-1 109 -21 51 -24 67 -15 87 11 24 12 24 58 -28 26 -29 55 -62 64 -74 9 -12
44 -41 77 -64 58 -41 60 -41 66 -19 13 51 6 75 -39 125 -25 27 -45 55 -45 62
0 6 -9 23 -20 37 -17 22 -20 41 -21 147 -1 203 8 187 -144 258 -124 59 -135
62 -235 69 -172 13 -330 11 -330 -3z"/>
</g>
</svg>
