<?xml version="1.0" standalone="no"?>
<!DOCTYPE svg PUBLIC "-//W3C//DTD SVG 20010904//EN"
 "http://www.w3.org/TR/2001/REC-SVG-20010904/DTD/svg10.dtd">
<svg version="1.0" xmlns="http://www.w3.org/2000/svg"
 width="256.000000pt" height="213.000000pt" viewBox="0 0 256.000000 213.000000"
 preserveAspectRatio="xMidYMid meet">
<metadata>
Created by potrace 1.14, written by Peter Selinger 2001-2017
</metadata>
<g transform="translate(0.000000,213.000000) scale(0.100000,-0.100000)"
fill="#000000" stroke="none">
<path fill="#000000" stroke="none" d="M882 2033 l-108 -98 -57 -190 c-62
-203 -62 -206 -47 -233 6 -9 28 -69 49 -134 l39 -116 -31 -6 c-18 -3 -65 -8
-105 -12 -44 -4 -81 -13 -92 -23 -30 -26 -493 -576 -513 -609 l-17 -30 225
-76 226 -75 31 28 31 28 -46 81 c-26 45 -47 85 -47 89 0 4 57 31 126 60 l126
51 258 -58 259 -59 39 -43 c225 -246 323 -366 390 -476 40 -66 79 -123 88
-126 9 -3 188 -6 398 -6 l382 0 39 40 38 39 -41 53 c-23 29 -55 68 -70 87
l-29 34 -91 -67 c-51 -36 -97 -66 -104 -66 -7 1 -107 49 -223 108 l-210 107
-38 65 c-20 36 -54 93 -73 128 l-36 62 43 51 42 51 -12 81 c-8 51 -27 112 -49
160 l-35 77 -56 1 c-31 1 -69 4 -84 8 l-28 6 55 80 c55 78 56 81 56 151 0 39
13 129 29 205 28 125 29 143 23 272 l-7 138 -155 129 -155 129 -162 1 -163 0
-108 -97z"/>
</g>
</svg>
