<?xml version="1.0" standalone="no"?>
<!DOCTYPE svg PUBLIC "-//W3C//DTD SVG 20010904//EN"
 "http://www.w3.org/TR/2001/REC-SVG-20010904/DTD/svg10.dtd">
<svg version="1.0" xmlns="http://www.w3.org/2000/svg"
 width="105.000000pt" height="87.000000pt" viewBox="0 0 105.000000 87.000000"
 preserveAspectRatio="xMidYMid meet">
<metadata>
Created by potrace 1.14, written by Peter Selinger 2001-2017
</metadata>
<g transform="translate(0.000000,87.000000) scale(0.100000,-0.100000)"
fill="#000000" stroke="none">
<path fill="#000000" stroke="none" d="M103 822 c-53 -40 -63 -54 -72 -92 -20
-85 -31 -175 -31 -261 0 -84 1 -87 37 -135 21 -27 52 -85 69 -129 32 -79 32
-80 13 -101 l-19 -20 473 -40 c259 -22 473 -36 475 -32 2 4 -1 15 -7 26 -7 14
-49 27 -168 55 -87 21 -162 37 -166 37 -4 0 -34 17 -65 37 -32 21 -70 45 -87
53 -23 12 -31 26 -40 65 -11 47 -10 52 13 76 17 20 26 46 34 102 9 69 8 78
-10 104 -11 15 -34 71 -52 123 -29 89 -34 98 -85 138 l-54 42 -98 -1 -98 0
-62 -47z"/>
</g>
</svg>
