<?xml version="1.0" standalone="no"?>
<!DOCTYPE svg PUBLIC "-//W3C//DTD SVG 20010904//EN"
 "http://www.w3.org/TR/2001/REC-SVG-20010904/DTD/svg10.dtd">
<svg version="1.0" xmlns="http://www.w3.org/2000/svg"
 width="226.000000pt" height="191.000000pt" viewBox="0 0 226.000000 191.000000"
 preserveAspectRatio="xMidYMid meet">
<metadata>
Created by potrace 1.14, written by Peter Selinger 2001-2017
</metadata>
<g transform="translate(0.000000,191.000000) scale(0.100000,-0.100000)"
fill="#000000" stroke="none">
<path fill="#000000" stroke="none" d="M650 1856 c-50 -36 -101 -86 -152 -150
l-78 -96 -14 -177 -14 -176 79 -139 c43 -77 79 -144 79 -151 0 -6 -23 -81 -52
-167 l-51 -155 -157 -99 -156 -99 -48 -122 c-25 -67 -44 -129 -41 -137 4 -10
-4 -26 -19 -41 -50 -50 -25 -47 93 12 l118 60 159 -16 159 -15 138 -95 138
-95 237 10 237 10 320 87 c176 48 329 92 340 97 45 23 295 182 295 187 0 3
-109 72 -243 152 -155 94 -287 166 -367 200 -69 29 -200 95 -292 147 -147 82
-167 97 -163 116 2 11 9 57 15 101 6 44 19 117 29 163 l19 82 -47 207 -47 206
-79 71 -78 71 -141 3 -141 2 -75 -54z"/>
</g>
</svg>
