<?xml version="1.0" standalone="no"?>
<!DOCTYPE svg PUBLIC "-//W3C//DTD SVG 20010904//EN"
 "http://www.w3.org/TR/2001/REC-SVG-20010904/DTD/svg10.dtd">
<svg version="1.0" xmlns="http://www.w3.org/2000/svg"
 width="87.000000pt" height="75.000000pt" viewBox="0 0 87.000000 75.000000"
 preserveAspectRatio="xMidYMid meet">
<metadata>
Created by potrace 1.14, written by Peter Selinger 2001-2017
</metadata>
<g transform="translate(0.000000,75.000000) scale(0.100000,-0.100000)"
fill="#000000" stroke="none">
<path fill="#000000" stroke="none" d="M5 692 c-5 -43 0 -91 19 -190 15 -78
26 -167 26 -216 l0 -84 78 34 c64 27 104 36 215 49 113 13 140 14 155 3 10 -7
57 -43 104 -80 78 -62 87 -72 108 -130 27 -75 20 -65 51 -73 l26 -6 1 88 c0
134 18 374 29 409 6 17 9 61 6 97 -6 65 -5 66 21 73 32 8 35 34 4 34 -13 0
-196 11 -408 25 -212 14 -395 25 -407 25 -18 0 -22 -7 -28 -58z"/>
</g>
</svg>
