<?xml version="1.0" standalone="no"?>
<!DOCTYPE svg PUBLIC "-//W3C//DTD SVG 20010904//EN"
 "http://www.w3.org/TR/2001/REC-SVG-20010904/DTD/svg10.dtd">
<svg version="1.0" xmlns="http://www.w3.org/2000/svg"
 width="62.000000pt" height="52.000000pt" viewBox="0 0 62.000000 52.000000"
 preserveAspectRatio="xMidYMid meet">
<metadata>
Created by potrace 1.14, written by Peter Selinger 2001-2017
</metadata>
<g transform="translate(0.000000,52.000000) scale(0.100000,-0.100000)"
fill="#000000" stroke="none">
<path fill="#000000" stroke="none" d="M410 455 c-41 -35 -79 -64 -83 -65 -5
0 -40 27 -79 60 -39 33 -73 58 -75 56 -2 -2 -42 -117 -88 -256 l-85 -253 128
7 c87 4 183 18 307 44 l180 38 3 200 2 200 -53 17 c-30 9 -60 17 -68 17 -8 -1
-48 -30 -89 -65z"/>
</g>
</svg>
