<?xml version="1.0" standalone="no"?>
<!DOCTYPE svg PUBLIC "-//W3C//DTD SVG 20010904//EN"
 "http://www.w3.org/TR/2001/REC-SVG-20010904/DTD/svg10.dtd">
<svg version="1.0" xmlns="http://www.w3.org/2000/svg"
 width="106.000000pt" height="92.000000pt" viewBox="0 0 106.000000 92.000000"
 preserveAspectRatio="xMidYMid meet">
<metadata>
Created by potrace 1.14, written by Peter Selinger 2001-2017
</metadata>
<g transform="translate(0.000000,92.000000) scale(0.100000,-0.100000)"
fill="#000000" stroke="none">
<path fill="#000000" stroke="none" d="M559 897 c-15 -12 -31 -36 -37 -52 -11
-35 1 -143 21 -184 12 -25 11 -27 -38 -51 -30 -15 -58 -39 -70 -59 -11 -18
-36 -52 -57 -75 -20 -23 -40 -56 -45 -75 l-9 -33 -41 45 c-45 48 -114 79 -149
67 -11 -4 -45 -38 -77 -75 -45 -52 -57 -74 -57 -100 0 -33 2 -34 71 -57 61
-19 72 -20 79 -8 33 57 34 57 74 -9 47 -76 121 -135 191 -149 72 -15 97 -7
123 38 23 41 25 41 157 52 23 2 39 17 80 70 27 37 53 67 56 68 14 0 41 -94 48
-165 8 -90 24 -110 98 -129 l51 -14 15 39 c14 35 14 39 -2 44 -31 9 -42 53
-40 154 1 84 -3 110 -32 205 l-33 108 -59 42 c-33 22 -63 40 -68 39 -5 -2 -9
24 -9 56 0 44 -8 76 -31 128 -43 97 -51 103 -123 103 -49 0 -66 -5 -87 -23z"/>
</g>
</svg>
