<?xml version="1.0" standalone="no"?>
<!DOCTYPE svg PUBLIC "-//W3C//DTD SVG 20010904//EN"
 "http://www.w3.org/TR/2001/REC-SVG-20010904/DTD/svg10.dtd">
<svg version="1.0" xmlns="http://www.w3.org/2000/svg"
 width="380.000000pt" height="217.000000pt" viewBox="0 0 380.000000 217.000000"
 preserveAspectRatio="xMidYMid meet">
<metadata>
Created by potrace 1.14, written by Peter Selinger 2001-2017
</metadata>
<g transform="translate(0.000000,217.000000) scale(0.100000,-0.100000)"
fill="#000000" stroke="none">
<path fill="#000000" stroke="none" d="M1815 2133 c-15 -27 -36 -45 -81 -67
-50 -24 -64 -36 -74 -65 -7 -20 -51 -92 -98 -161 -102 -150 -255 -311 -427
-449 -67 -53 -138 -115 -159 -138 -21 -24 -44 -43 -50 -43 -7 0 -32 -13 -57
-29 -24 -16 -75 -42 -114 -57 -71 -27 -113 -59 -167 -126 l-29 -38 -14 -262
c-8 -145 -15 -285 -15 -311 l0 -48 -76 -35 c-118 -54 -208 -109 -337 -207 -64
-50 -116 -91 -115 -92 3 -1 3740 52 3787 54 8 1 -72 84 -177 186 -182 177
-201 193 -399 322 -295 193 -513 323 -695 414 -183 92 -448 267 -501 332 -38
46 -79 141 -116 267 -19 61 -31 84 -71 125 l-49 50 41 67 c35 59 40 76 45 147
5 76 -11 201 -26 201 -3 0 -15 -17 -26 -37z"/>
</g>
</svg>
