<?xml version="1.0" standalone="no"?>
<!DOCTYPE svg PUBLIC "-//W3C//DTD SVG 20010904//EN"
 "http://www.w3.org/TR/2001/REC-SVG-20010904/DTD/svg10.dtd">
<svg version="1.0" xmlns="http://www.w3.org/2000/svg"
 width="39.000000pt" height="22.000000pt" viewBox="0 0 39.000000 22.000000"
 preserveAspectRatio="xMidYMid meet">
<metadata>
Created by potrace 1.14, written by Peter Selinger 2001-2017
</metadata>
<g transform="translate(0.000000,22.000000) scale(0.100000,-0.100000)"
fill="#000000" stroke="none">
<path fill="#000000" stroke="none" d="M129 199 c-10 -10 -19 -28 -19 -39 0
-16 -7 -20 -35 -20 -66 0 -100 -75 -55 -120 16 -16 33 -20 88 -20 72 0 90 10
120 65 11 19 11 19 12 -2 1 -61 91 -86 129 -37 27 35 26 56 -4 92 -14 17 -25
34 -25 40 0 5 -9 21 -20 35 -19 24 -27 26 -96 26 -61 0 -79 -4 -95 -20z"/>
<path fill="#ffffff" stroke="none" d="M114 101 c3 -4 -3 -16 -14 -26 -23 -21
-45 -9 -34 18 6 18 39 23 48 8z"/>
</g>
</svg>
