<?xml version="1.0" standalone="no"?>
<!DOCTYPE svg PUBLIC "-//W3C//DTD SVG 20010904//EN"
 "http://www.w3.org/TR/2001/REC-SVG-20010904/DTD/svg10.dtd">
<svg version="1.0" xmlns="http://www.w3.org/2000/svg"
 width="568.000000pt" height="320.000000pt" viewBox="0 0 568.000000 320.000000"
 preserveAspectRatio="xMidYMid meet">
<metadata>
Created by potrace 1.14, written by Peter Selinger 2001-2017
</metadata>
<g transform="translate(0.000000,320.000000) scale(0.100000,-0.100000)"
fill="#000000" stroke="none">
<path fill="#000000" stroke="none" d="M1358 3157 l-187 -42 -75 -155 c-72
-150 -76 -162 -109 -335 l-35 -180 19 -225 c17 -197 53 -450 79 -547 4 -17 51
-91 103 -165 52 -73 102 -148 111 -165 l17 -33 -99 0 -98 0 -95 110 c-90 106
-102 116 -279 232 -102 67 -201 132 -221 145 l-35 23 -155 -55 -155 -56 -69
-132 c-39 -72 -71 -135 -73 -139 -2 -4 13 -14 32 -22 l36 -15 0 -118 0 -119
85 -42 c80 -40 85 -41 80 -20 -8 33 -11 315 -4 322 7 7 111 -34 249 -97 l75
-34 358 -10 c197 -6 361 -14 364 -17 6 -5 52 -293 53 -323 0 -10 -65 -13 -292
-13 -161 0 -298 -4 -304 -8 -8 -5 -4 -65 17 -217 15 -115 28 -222 29 -236 0
-18 -46 -85 -166 -238 -91 -117 -164 -214 -162 -216 2 -1 1179 -6 2616 -10
l2612 -8 -1 329 c0 181 -3 323 -6 316 -8 -19 -78 -52 -113 -52 -41 0 -107 43
-126 84 l-16 33 -227 18 c-124 9 -230 18 -235 19 -5 0 -24 -62 -41 -139 -33
-149 -134 -465 -148 -465 -5 0 -234 158 -510 352 l-502 352 -62 7 c-54 5 -80
16 -185 80 -68 41 -146 83 -175 94 -50 20 -109 74 -81 76 7 0 -52 33 -132 74
-136 69 -149 74 -211 74 l-67 1 -91 373 c-51 204 -145 568 -210 807 l-117 435
-253 163 -253 164 -187 3 -186 4 -187 -42z"/>
</g>
</svg>
