<?xml version="1.0" standalone="no"?>
<!DOCTYPE svg PUBLIC "-//W3C//DTD SVG 20010904//EN"
 "http://www.w3.org/TR/2001/REC-SVG-20010904/DTD/svg10.dtd">
<svg version="1.0" xmlns="http://www.w3.org/2000/svg"
 width="125.000000pt" height="71.000000pt" viewBox="0 0 125.000000 71.000000"
 preserveAspectRatio="xMidYMid meet">
<metadata>
Created by potrace 1.14, written by Peter Selinger 2001-2017
</metadata>
<g transform="translate(0.000000,71.000000) scale(0.100000,-0.100000)"
fill="#000000" stroke="none">
<path fill="#000000" stroke="none" d="M450 600 c-175 -77 -269 -113 -331
-126 l-85 -18 -17 -210 c-9 -115 -15 -211 -14 -213 2 -1 38 40 81 92 43 52 80
95 82 95 2 0 -28 -50 -66 -110 -38 -61 -68 -110 -66 -110 2 0 51 58 110 128
l106 129 124 67 c115 61 134 68 257 91 l132 25 113 -60 c102 -54 118 -60 173
-60 71 0 68 -8 46 125 -8 49 -13 90 -12 92 2 1 28 -2 58 -6 50 -9 56 -7 81 16
l27 26 -25 48 c-15 31 -32 50 -47 54 -87 19 -257 35 -360 34 l-122 -1 -245
-108z"/>
</g>
</svg>
