<?xml version="1.0" standalone="no"?>
<!DOCTYPE svg PUBLIC "-//W3C//DTD SVG 20010904//EN"
 "http://www.w3.org/TR/2001/REC-SVG-20010904/DTD/svg10.dtd">
<svg version="1.0" xmlns="http://www.w3.org/2000/svg"
 width="39.000000pt" height="22.000000pt" viewBox="0 0 39.000000 22.000000"
 preserveAspectRatio="xMidYMid meet">
<metadata>
Created by potrace 1.14, written by Peter Selinger 2001-2017
</metadata>
<g transform="translate(0.000000,22.000000) scale(0.100000,-0.100000)"
fill="#000000" stroke="none">
<path fill="#000000" stroke="none" d="M65 213 c-39 -6 -55 -20 -55 -48 0 -13
6 -26 13 -29 8 -3 7 -9 -7 -20 -17 -14 -18 -16 -2 -22 9 -4 35 -4 57 0 22 4
76 3 119 0 79 -7 80 -7 80 -34 0 -37 30 -62 72 -58 l33 3 8 69 c8 77 0 96 -40
96 -14 0 -32 9 -41 20 -14 17 -32 21 -112 24 -52 2 -108 2 -125 -1z"/>
</g>
</svg>
