<?xml version="1.0" standalone="no"?>
<!DOCTYPE svg PUBLIC "-//W3C//DTD SVG 20010904//EN"
 "http://www.w3.org/TR/2001/REC-SVG-20010904/DTD/svg10.dtd">
<svg version="1.0" xmlns="http://www.w3.org/2000/svg"
 width="233.000000pt" height="164.000000pt" viewBox="0 0 233.000000 164.000000"
 preserveAspectRatio="xMidYMid meet">
<metadata>
Created by potrace 1.14, written by Peter Selinger 2001-2017
</metadata>
<g transform="translate(0.000000,164.000000) scale(0.100000,-0.100000)"
fill="#000000" stroke="none">
<path fill="#000000" stroke="none" d="M57 1622 c-12 -13 -17 -36 -17 -72 0
-36 -5 -59 -17 -72 -13 -15 -18 -44 -21 -139 -4 -104 -2 -122 13 -139 23 -25
69 -26 104 -1 l27 19 -4 -91 c-4 -91 -4 -92 26 -120 42 -40 90 -35 114 11 9
19 19 29 23 23 11 -19 73 -13 88 9 l14 20 18 -20 c10 -11 30 -20 44 -20 14 -1
37 -7 51 -15 14 -8 38 -14 53 -15 29 0 97 -47 97 -66 0 -6 -7 -17 -15 -24 -20
-16 -20 -99 0 -136 8 -16 15 -52 15 -80 0 -37 5 -56 18 -67 25 -23 79 -22 93
1 9 15 24 17 111 14 l100 -2 33 35 33 35 7 -53 c9 -64 28 -87 71 -87 31 0 64
27 77 63 3 7 12 3 25 -13 16 -19 21 -39 22 -81 0 -65 18 -89 67 -89 45 0 57
23 63 114 4 72 8 82 28 91 12 5 22 13 22 17 0 3 -10 8 -22 10 -19 2 -24 10
-26 42 -2 22 2 42 8 46 19 12 2 85 -26 111 -24 23 -34 82 -15 93 5 3 12 21 15
40 4 20 17 43 29 53 28 23 34 76 12 109 -11 17 -25 24 -49 24 -38 0 -61 -21
-72 -65 -11 -47 -14 -48 -44 -20 l-28 27 4 121 c3 143 -5 167 -60 167 -39 0
-66 -25 -66 -61 0 -15 -15 -43 -35 -66 -39 -46 -46 -90 -20 -139 26 -50 39
-129 29 -175 l-9 -41 -54 68 c-51 63 -54 69 -43 97 11 29 9 33 -32 74 -35 34
-51 43 -78 43 -19 0 -39 -5 -45 -11 -19 -19 -43 18 -43 69 0 62 -21 92 -64 92
-45 0 -66 -26 -66 -83 l0 -47 -78 0 c-64 0 -82 -4 -95 -18 -10 -10 -17 -24
-17 -30 0 -20 -18 -22 -23 -2 -3 10 4 35 14 55 24 44 25 131 3 163 -30 43
-114 19 -114 -34 0 -17 -1 -16 -16 4 -29 42 -114 19 -114 -31 0 -9 -3 -18 -7
-20 -5 -3 -7 29 -5 70 2 46 -1 87 -9 106 -7 17 -12 42 -11 56 1 13 -5 35 -13
48 -19 29 -74 32 -98 5z"/>
<path fill="#ffffff" stroke="none" d="M316 1282 c-20 -20 -22 -1 -3 28 10 18
12 18 15 4 2 -9 -3 -24 -12 -32z"/>
<path fill="#ffffff" stroke="none" d="M171 1293 c-8 -15 -10 -15 -11 -2 0 17
10 32 18 25 2 -3 -1 -13 -7 -23z"/>
<path fill="#ffffff" stroke="none" d="M286 1145 l-15 -70 3 81 c1 44 7 87 12
95 16 25 16 -30 0 -106z"/>
<path fill="#000000" stroke="none" d="M1777 1280 c-26 -16 -47 -34 -47 -40 0
-5 -6 -10 -13 -10 -8 0 -22 -9 -33 -21 -10 -12 -26 -18 -37 -15 -10 2 -28 -5
-41 -17 -26 -25 -66 -129 -66 -173 0 -16 -9 -63 -20 -104 -17 -67 -18 -77 -4
-98 8 -13 25 -27 37 -31 13 -5 29 -16 36 -25 9 -10 29 -16 58 -16 l45 0 -27
-36 c-22 -29 -26 -42 -21 -72 4 -20 8 -98 9 -173 2 -119 5 -140 21 -158 21
-24 84 -29 104 -9 9 9 12 5 12 -18 0 -39 27 -64 68 -64 35 0 62 30 62 70 0 40
12 50 45 41 22 -6 29 -13 27 -27 -5 -35 -5 -69 3 -152 10 -104 28 -132 86
-132 57 0 89 34 89 95 0 39 3 45 20 45 29 0 77 27 89 49 6 10 10 70 9 133 -1
97 2 119 18 143 18 27 19 51 19 311 0 155 -3 285 -6 288 -3 3 -43 8 -90 12
l-84 6 0 -47 c-1 -57 -20 -75 -79 -75 -23 0 -50 -7 -60 -15 -11 -8 -26 -15
-34 -15 -9 0 -30 -11 -49 -26 -27 -20 -33 -32 -33 -61 0 -23 8 -45 21 -59 17
-18 19 -29 14 -68 l-7 -46 -18 37 c-9 21 -23 52 -30 68 -7 17 -15 25 -17 18
-3 -7 -17 -10 -38 -6 -27 4 -34 2 -40 -16 -5 -16 -14 -21 -38 -21 -21 0 -27 3
-19 9 8 4 14 31 15 66 2 56 1 58 -28 68 -42 14 -41 13 -6 46 17 16 31 38 31
48 0 10 4 23 9 28 6 6 11 30 13 55 3 38 7 46 26 48 15 2 22 10 22 26 0 27 29
56 61 61 67 10 68 13 24 61 -22 24 -45 44 -51 44 -6 0 -31 -13 -57 -30z"/>
<path fill="#000000" stroke="none" d="M1993 1199 c11 -6 25 -25 32 -43 10
-22 20 -31 38 -31 l24 -1 -21 33 c-20 31 -54 53 -79 53 -7 0 -4 -5 6 -11z"/>
<path fill="#000000" stroke="none" d="M1840 1060 c0 -15 7 -20 25 -20 27 0
32 9 13 28 -18 18 -38 14 -38 -8z"/>
<path fill="#000000" stroke="none" d="M400 463 c-17 -22 -21 -37 -17 -68 4
-30 1 -46 -13 -62 -24 -30 -27 -29 -34 12 -13 69 -107 89 -150 32 -20 -27 -20
-29 -3 -110 20 -96 21 -128 6 -176 -7 -20 -14 -42 -16 -50 -10 -36 -25 13 -26
89 -2 73 -5 84 -26 101 -27 22 -93 25 -110 5 -8 -9 -11 -51 -9 -122 l3 -109
230 -2 c259 -2 259 -2 297 70 20 37 23 39 26 19 2 -14 -5 -33 -16 -45 -41 -46
-39 -47 66 -47 l99 0 12 43 c17 65 9 148 -18 185 -22 32 -38 39 -96 44 -23 2
-29 7 -27 21 6 33 -40 167 -62 183 -11 8 -37 14 -57 14 -29 0 -43 -6 -59 -27z"/>
<path fill="#000000" stroke="none" d="M761 154 c-42 -54 -13 -154 45 -154 30
0 30 7 -1 32 -33 26 -33 71 1 115 l25 33 -25 0 c-15 0 -33 -11 -45 -26z"/>
<path fill="#000000" stroke="none" d="M935 158 c3 -7 17 -13 30 -13 23 0 24
1 8 13 -9 6 -23 12 -30 12 -7 0 -10 -6 -8 -12z"/>
<path fill="#000000" stroke="none" d="M1230 36 c0 -9 40 -13 46 -5 3 5 -6 9
-20 9 -14 0 -26 -2 -26 -4z"/>
</g>
</svg>
