<?xml version="1.0" standalone="no"?>
<!DOCTYPE svg PUBLIC "-//W3C//DTD SVG 20010904//EN"
 "http://www.w3.org/TR/2001/REC-SVG-20010904/DTD/svg10.dtd">
<svg version="1.0" xmlns="http://www.w3.org/2000/svg"
 width="403.000000pt" height="282.000000pt" viewBox="0 0 403.000000 282.000000"
 preserveAspectRatio="xMidYMid meet">
<metadata>
Created by potrace 1.14, written by Peter Selinger 2001-2017
</metadata>
<g transform="translate(0.000000,282.000000) scale(0.100000,-0.100000)"
fill="#000000" stroke="none">
<path fill="#000000" stroke="none" d="M4 2455 c3 -203 9 -703 12 -1110 4
-407 10 -759 13 -783 l6 -44 270 -115 c232 -99 334 -135 728 -259 l458 -144
175 0 175 0 60 33 c43 23 59 38 59 53 0 18 38 39 238 134 130 61 327 162 437
223 178 98 213 122 319 216 65 58 144 128 175 155 31 27 101 91 157 142 l101
94 7 72 c7 76 19 95 48 75 9 -7 44 -31 77 -54 l59 -43 53 65 c46 57 57 65 86
65 19 0 49 6 68 14 28 12 35 21 40 53 10 59 13 63 42 63 41 0 47 8 75 90 14
41 41 115 59 164 l33 90 -90 83 c-96 89 -274 208 -308 205 -12 0 -61 -11 -111
-23 -88 -22 -93 -25 -233 -134 -136 -106 -148 -113 -220 -129 -99 -23 -385
-147 -482 -209 -41 -26 -102 -77 -135 -113 -56 -61 -65 -66 -135 -84 -41 -11
-133 -27 -205 -35 -71 -8 -175 -22 -230 -31 -115 -19 -102 -20 -184 1 -59 15
-74 25 -232 162 -93 80 -171 154 -175 165 -8 25 -41 37 -148 54 -149 23 -179
37 -296 139 -58 51 -116 105 -130 120 -14 16 -65 54 -114 86 -61 40 -96 70
-113 98 l-23 40 -57 -20 c-45 -15 -58 -16 -65 -7 -4 7 -8 16 -8 20 0 4 -7 13
-15 22 -20 20 -105 195 -105 217 0 9 -50 124 -111 255 l-110 239 5 -370z"/>
</g>
</svg>
