<?xml version="1.0" standalone="no"?>
<!DOCTYPE svg PUBLIC "-//W3C//DTD SVG 20010904//EN"
 "http://www.w3.org/TR/2001/REC-SVG-20010904/DTD/svg10.dtd">
<svg version="1.0" xmlns="http://www.w3.org/2000/svg"
 width="76.000000pt" height="53.000000pt" viewBox="0 0 76.000000 53.000000"
 preserveAspectRatio="xMidYMid meet">
<metadata>
Created by potrace 1.14, written by Peter Selinger 2001-2017
</metadata>
<g transform="translate(0.000000,53.000000) scale(0.100000,-0.100000)"
fill="#000000" stroke="none">
<path fill="#000000" stroke="none" d="M206 507 c-8 -12 -33 -53 -56 -91 l-42
-70 30 -99 c21 -68 27 -100 19 -103 -7 -2 -43 -13 -81 -24 -38 -11 -70 -21
-72 -23 -2 -2 8 -20 22 -40 23 -35 28 -37 77 -37 29 0 159 -5 290 -11 l238
-11 65 27 c36 15 62 31 57 35 -4 5 -42 15 -83 23 -41 9 -99 21 -127 27 l-53
12 -1 126 0 127 -38 65 -37 65 -59 7 c-33 4 -77 9 -98 12 -31 3 -40 0 -51 -17z"/>
</g>
</svg>
