<?xml version="1.0" standalone="no"?>
<!DOCTYPE svg PUBLIC "-//W3C//DTD SVG 20010904//EN"
 "http://www.w3.org/TR/2001/REC-SVG-20010904/DTD/svg10.dtd">
<svg version="1.0" xmlns="http://www.w3.org/2000/svg"
 width="378.000000pt" height="266.000000pt" viewBox="0 0 378.000000 266.000000"
 preserveAspectRatio="xMidYMid meet">
<metadata>
Created by potrace 1.14, written by Peter Selinger 2001-2017
</metadata>
<g transform="translate(0.000000,266.000000) scale(0.100000,-0.100000)"
fill="#000000" stroke="none">
<path fill="#000000" stroke="none" d="M1003 2642 c-41 -13 -70 -35 -134 -97
-68 -66 -89 -94 -120 -162 -21 -45 -41 -104 -44 -130 -5 -33 -19 -64 -46 -100
-50 -67 -66 -112 -72 -198 l-6 -70 52 -52 51 -53 44 43 43 42 -7 -30 c-4 -16
-26 -97 -48 -180 l-41 -149 -98 -31 c-65 -20 -104 -37 -115 -52 -12 -16 -33
-25 -68 -30 -49 -8 -60 -16 -203 -147 -83 -77 -149 -142 -146 -144 2 -3 -7
-25 -22 -49 -25 -42 -26 -50 -20 -146 3 -56 13 -123 22 -148 13 -38 20 -45 38
-42 12 2 137 14 277 27 243 23 265 27 465 81 l210 57 63 -31 c36 -18 78 -31
100 -31 28 0 52 -10 88 -35 27 -19 56 -35 64 -35 8 0 51 18 95 38 l80 38 178
-219 179 -218 38 -114 c24 -70 54 -136 79 -174 36 -53 39 -61 22 -61 -14 0
-18 -5 -14 -20 5 -20 14 -20 900 -20 l896 0 -7 138 c-3 75 -9 218 -12 317 l-6
180 -55 67 c-84 103 -132 147 -194 178 -31 16 -58 27 -61 25 -2 -2 -39 -7 -83
-10 -77 -6 -243 -51 -313 -83 -18 -9 -35 -25 -38 -37 -4 -14 -82 -60 -290
-169 -157 -81 -287 -146 -290 -144 -11 12 -20 144 -13 210 7 60 5 77 -9 98 -9
15 -113 167 -231 339 l-214 312 -146 133 -146 133 -150 17 c-82 10 -156 19
-163 19 -19 1 -6 127 14 143 8 7 18 31 22 55 6 36 14 48 49 72 23 15 45 38 49
50 3 12 18 34 32 50 l26 27 -23 158 c-13 86 -30 167 -37 178 -8 14 -9 25 -3
31 7 7 -14 31 -61 72 -76 65 -77 66 -99 52 -10 -7 -23 -4 -41 9 -55 39 -200
50 -287 22z"/>
<path fill="#ffffff" stroke="none" d="M1830 1305 c0 -14 5 -25 10 -25 13 0
13 -79 -1 -119 -6 -17 -16 -31 -22 -31 -5 0 -31 13 -56 30 -26 16 -63 36 -84
45 l-38 15 36 48 c28 37 44 48 73 53 75 12 82 11 82 -16z"/>
</g>
</svg>
