<?xml version="1.0" standalone="no"?>
<!DOCTYPE svg PUBLIC "-//W3C//DTD SVG 20010904//EN"
 "http://www.w3.org/TR/2001/REC-SVG-20010904/DTD/svg10.dtd">
<svg version="1.0" xmlns="http://www.w3.org/2000/svg"
 width="237.000000pt" height="170.000000pt" viewBox="0 0 237.000000 170.000000"
 preserveAspectRatio="xMidYMid meet">
<metadata>
Created by potrace 1.14, written by Peter Selinger 2001-2017
</metadata>
<g transform="translate(0.000000,170.000000) scale(0.100000,-0.100000)"
fill="#000000" stroke="none">
<path fill="#000000" stroke="none" d="M2137 1682 c-10 -10 -17 -33 -17 -51 0
-26 -7 -36 -35 -52 -19 -12 -35 -25 -35 -30 0 -5 -6 -9 -13 -9 -8 0 -22 -9
-32 -20 -10 -11 -24 -20 -31 -20 -7 0 -17 -6 -21 -13 -4 -6 -28 -26 -53 -42
-52 -34 -48 -32 -117 -85 -29 -22 -55 -40 -58 -40 -6 0 -95 -66 -126 -93 -9
-8 -20 -16 -25 -18 -27 -12 -84 -52 -84 -59 0 -4 -11 -11 -25 -14 -14 -4 -25
-11 -25 -16 0 -6 -11 -15 -25 -20 -14 -5 -25 -14 -25 -20 0 -5 -5 -10 -11 -10
-6 0 -24 -10 -39 -22 -15 -13 -37 -30 -50 -38 -13 -8 -45 -32 -71 -52 -27 -21
-51 -38 -55 -38 -3 0 -28 -17 -55 -37 -26 -21 -71 -54 -100 -73 -28 -19 -60
-43 -70 -53 -11 -9 -23 -17 -27 -17 -5 0 -17 -9 -27 -20 -10 -11 -24 -20 -32
-20 -7 0 -16 -7 -19 -15 -4 -8 -11 -15 -16 -15 -6 0 -23 -10 -38 -22 -15 -13
-37 -30 -50 -38 -13 -8 -45 -32 -71 -53 -27 -20 -51 -37 -55 -37 -3 0 -28 -17
-55 -37 -26 -21 -71 -54 -100 -73 -28 -19 -60 -43 -70 -53 -11 -9 -23 -17 -27
-17 -5 0 -17 -9 -27 -20 -10 -11 -24 -20 -32 -20 -7 0 -16 -7 -19 -15 -4 -8
-11 -15 -16 -15 -6 0 -23 -10 -38 -22 -15 -13 -37 -30 -50 -38 -13 -8 -44 -31
-69 -51 -25 -19 -54 -38 -64 -42 -54 -20 -39 -109 20 -115 31 -3 100 36 159
89 11 11 24 19 27 19 4 0 30 17 57 38 26 20 72 53 100 72 29 19 61 43 71 52
11 10 22 18 25 18 3 0 19 10 34 23 34 27 55 42 121 87 28 19 73 52 99 73 27
20 52 37 56 37 3 0 28 17 55 38 26 20 71 53 100 72 28 19 60 43 70 53 11 9 22
17 25 17 4 0 26 16 50 35 23 19 47 35 53 35 6 0 16 9 23 20 7 11 16 20 21 20
9 0 104 65 133 91 11 11 24 19 28 19 5 0 30 17 57 38 26 20 71 53 100 72 28
19 60 43 70 52 11 10 22 18 25 18 4 0 26 16 50 35 23 19 45 35 48 35 7 0 96
66 129 95 9 8 21 15 25 15 5 0 17 9 27 20 10 11 22 20 28 20 5 0 32 18 59 40
28 22 54 40 58 40 5 0 6 8 3 18 -2 10 6 28 20 42 13 14 26 33 30 43 8 23 30
22 52 -3 15 -16 31 -20 86 -20 l67 0 -4 -72 c-6 -105 -14 -157 -25 -163 -16
-10 -10 -61 10 -79 12 -11 31 -16 53 -14 l33 3 3 263 2 262 -59 0 c-40 0 -63
5 -71 15 -18 21 -83 19 -103 -3z"/>
</g>
</svg>
