<?xml version="1.0" standalone="no"?>
<!DOCTYPE svg PUBLIC "-//W3C//DTD SVG 20010904//EN"
 "http://www.w3.org/TR/2001/REC-SVG-20010904/DTD/svg10.dtd">
<svg version="1.0" xmlns="http://www.w3.org/2000/svg"
 width="88.000000pt" height="65.000000pt" viewBox="0 0 88.000000 65.000000"
 preserveAspectRatio="xMidYMid meet">
<metadata>
Created by potrace 1.14, written by Peter Selinger 2001-2017
</metadata>
<g transform="translate(0.000000,65.000000) scale(0.100000,-0.100000)"
fill="#000000" stroke="none">
<path fill="#000000" stroke="none" d="M215 614 c-27 -35 -27 -38 -18 -105 10
-79 7 -85 -81 -155 -67 -53 -116 -153 -116 -236 0 -54 2 -58 23 -58 33 1 53
20 80 81 16 36 41 68 75 97 47 39 53 41 78 30 25 -12 26 -15 21 -69 -6 -52 -4
-58 21 -81 26 -24 215 -101 279 -114 22 -4 40 0 67 18 19 12 36 28 36 34 0 7
-22 26 -50 44 -50 32 -63 50 -36 50 8 0 58 -11 111 -25 54 -14 106 -23 116
-20 11 4 26 20 35 37 19 36 21 34 -116 109 -91 50 -97 56 -147 133 -36 56 -48
83 -40 88 21 13 136 9 199 -7 47 -13 67 -14 94 -5 29 10 34 16 34 44 0 42 -32
58 -186 91 -106 23 -123 24 -209 14 -87 -10 -95 -10 -122 9 -15 11 -49 23 -74
26 -44 7 -47 5 -74 -30z"/>
</g>
</svg>
