<?xml version="1.0" standalone="no"?>
<!DOCTYPE svg PUBLIC "-//W3C//DTD SVG 20010904//EN"
 "http://www.w3.org/TR/2001/REC-SVG-20010904/DTD/svg10.dtd">
<svg version="1.0" xmlns="http://www.w3.org/2000/svg"
 width="37.000000pt" height="27.000000pt" viewBox="0 0 37.000000 27.000000"
 preserveAspectRatio="xMidYMid meet">
<metadata>
Created by potrace 1.14, written by Peter Selinger 2001-2017
</metadata>
<g transform="translate(0.000000,27.000000) scale(0.100000,-0.100000)"
fill="#000000" stroke="none">
<path fill="#000000" stroke="none" d="M142 258 c-7 -7 -12 -20 -12 -29 0 -9
-7 -22 -16 -30 -9 -7 -31 -43 -49 -79 -18 -36 -40 -72 -49 -79 -20 -17 -21
-41 -1 -41 8 0 17 11 21 25 8 31 35 33 86 5 32 -17 49 -19 131 -13 80 5 96 9
107 26 11 18 9 23 -13 41 -19 16 -24 27 -20 47 5 25 1 28 -51 48 -31 12 -61
21 -66 21 -5 0 -16 13 -25 29 -19 37 -29 43 -43 29z"/>
</g>
</svg>
