<?xml version="1.0" standalone="no"?>
<!DOCTYPE svg PUBLIC "-//W3C//DTD SVG 20010904//EN"
 "http://www.w3.org/TR/2001/REC-SVG-20010904/DTD/svg10.dtd">
<svg version="1.0" xmlns="http://www.w3.org/2000/svg"
 width="38.000000pt" height="28.000000pt" viewBox="0 0 38.000000 28.000000"
 preserveAspectRatio="xMidYMid meet">
<metadata>
Created by potrace 1.14, written by Peter Selinger 2001-2017
</metadata>
<g transform="translate(0.000000,28.000000) scale(0.100000,-0.100000)"
fill="#000000" stroke="none">
<path fill="#000000" stroke="none" d="M239 255 c-40 -16 -70 -21 -105 -18
-48 4 -50 3 -80 -39 -20 -28 -35 -64 -41 -100 l-10 -57 61 -21 c77 -26 121
-25 174 2 41 22 52 41 32 53 -5 3 -15 15 -20 26 -9 16 -1 13 41 -12 53 -33 53
-33 78 11 10 18 -48 180 -64 179 -5 0 -35 -11 -66 -24z"/>
</g>
</svg>
