<?xml version="1.0" standalone="no"?>
<!DOCTYPE svg PUBLIC "-//W3C//DTD SVG 20010904//EN"
 "http://www.w3.org/TR/2001/REC-SVG-20010904/DTD/svg10.dtd">
<svg version="1.0" xmlns="http://www.w3.org/2000/svg"
 width="100.000000pt" height="74.000000pt" viewBox="0 0 100.000000 74.000000"
 preserveAspectRatio="xMidYMid meet">
<metadata>
Created by potrace 1.14, written by Peter Selinger 2001-2017
</metadata>
<g transform="translate(0.000000,74.000000) scale(0.100000,-0.100000)"
fill="#000000" stroke="none">
<path fill="#000000" stroke="none" d="M445 730 c-127 -14 -161 -52 -199 -220
-9 -40 -21 -81 -26 -90 -12 -23 22 -129 48 -151 21 -16 18 -18 -112 -122 -73
-58 -138 -112 -144 -120 -10 -12 20 -15 191 -20 396 -13 531 -10 640 17 54 13
99 25 100 27 2 2 15 19 30 37 35 44 35 84 0 111 -14 12 -37 24 -50 27 -21 6
-23 11 -23 70 0 57 -2 64 -20 64 -13 0 -22 -9 -26 -25 -3 -14 -8 -25 -11 -25
-8 0 -52 45 -86 88 -32 41 -33 46 -26 94 7 42 5 57 -12 90 -11 22 -18 46 -15
54 3 8 1 14 -4 14 -6 0 -27 15 -47 34 -36 32 -99 58 -133 54 -8 0 -42 -4 -75
-8z"/>
</g>
</svg>
