<?xml version="1.0" standalone="no"?>
<!DOCTYPE svg PUBLIC "-//W3C//DTD SVG 20010904//EN"
 "http://www.w3.org/TR/2001/REC-SVG-20010904/DTD/svg10.dtd">
<svg version="1.0" xmlns="http://www.w3.org/2000/svg"
 width="454.000000pt" height="314.000000pt" viewBox="0 0 454.000000 314.000000"
 preserveAspectRatio="xMidYMid meet">
<metadata>
Created by potrace 1.14, written by Peter Selinger 2001-2017
</metadata>
<g transform="translate(0.000000,314.000000) scale(0.100000,-0.100000)"
fill="#000000" stroke="none">
<path fill="#000000" stroke="none" d="M1410 3128 c-54 -10 -56 -11 -100 -82
-27 -42 -52 -99 -63 -141 -17 -66 -17 -75 -2 -165 11 -62 28 -120 50 -165 19
-38 37 -86 40 -105 l6 -35 -118 3 c-128 4 -190 -7 -237 -41 -29 -21 -41 -22
-216 -21 -168 0 -198 3 -334 32 -185 40 -268 42 -334 8 -38 -19 -52 -34 -70
-73 -12 -26 -23 -72 -24 -102 -3 -44 0 -55 18 -67 20 -14 21 -13 16 41 -5 62
8 89 58 125 l31 22 -20 -32 c-36 -61 3 -83 54 -30 35 36 95 43 95 11 0 -10 -7
-24 -15 -31 -26 -21 -76 -101 -70 -111 12 -18 48 -9 86 22 52 41 49 25 -6 -33
-39 -43 -49 -48 -87 -48 -31 -1 -39 -3 -27 -10 8 -5 73 -12 144 -16 120 -7
133 -9 185 -39 43 -25 83 -36 180 -53 69 -12 159 -24 200 -27 l75 -6 39 -71
c23 -42 52 -121 72 -192 20 -77 59 -178 105 -276 187 -403 206 -451 229 -565
11 -60 30 -134 42 -163 28 -72 21 -103 -90 -382 -59 -148 -87 -229 -80 -237 5
-6 6 -23 2 -37 l-6 -26 163 0 c90 0 261 -3 380 -7 l216 -6 32 59 c17 32 45 74
62 92 l30 34 112 -47 c62 -26 143 -63 180 -82 l68 -34 362 -9 c199 -5 363 -7
365 -5 11 11 -85 167 -185 302 -170 228 -423 689 -423 770 0 30 -24 89 -95
237 -108 224 -115 257 -73 360 l23 55 125 30 c194 48 250 52 388 25 188 -36
230 -50 356 -118 66 -36 131 -70 145 -76 14 -6 44 -34 65 -62 45 -58 224 -204
235 -192 4 5 40 61 81 124 41 63 75 117 77 119 1 2 75 -36 165 -84 l163 -87
123 -175 123 -175 -27 -83 -28 -84 -115 -31 c-126 -35 -242 -56 -264 -47 -8 3
-24 44 -36 94 -21 82 -27 94 -89 165 -36 42 -67 76 -68 75 -1 -1 12 -45 30
-98 24 -74 44 -112 86 -168 30 -39 70 -81 88 -91 46 -27 113 -25 214 6 131 41
210 80 231 115 37 66 12 197 -64 330 l-48 85 -155 97 c-144 91 -297 170 -409
212 -34 13 -67 39 -117 91 -87 92 -235 187 -497 317 -135 68 -223 105 -313
132 -146 43 -446 155 -509 190 -33 19 -74 29 -175 41 -76 9 -174 28 -235 47
-86 26 -107 36 -128 63 l-24 33 25 106 c14 59 26 118 26 132 0 15 -26 63 -64
117 -107 152 -114 158 -247 200 -64 20 -118 35 -120 35 -2 -1 -29 -6 -59 -11z"/>
</g>
</svg>
