<?xml version="1.0" standalone="no"?>
<!DOCTYPE svg PUBLIC "-//W3C//DTD SVG 20010904//EN"
 "http://www.w3.org/TR/2001/REC-SVG-20010904/DTD/svg10.dtd">
<svg version="1.0" xmlns="http://www.w3.org/2000/svg"
 width="146.000000pt" height="103.000000pt" viewBox="0 0 146.000000 103.000000"
 preserveAspectRatio="xMidYMid meet">
<metadata>
Created by potrace 1.14, written by Peter Selinger 2001-2017
</metadata>
<g transform="translate(0.000000,103.000000) scale(0.100000,-0.100000)"
fill="#000000" stroke="none">
<path fill="#000000" stroke="none" d="M655 1014 c-107 -21 -113 -23 -117 -40
-2 -9 -58 -39 -138 -74 -115 -50 -141 -66 -176 -105 -37 -42 -43 -56 -53 -124
-29 -189 -29 -182 24 -250 51 -68 95 -164 95 -211 l0 -30 -78 0 -78 0 -42 -43
c-23 -23 -42 -49 -42 -56 0 -8 -11 -29 -26 -48 l-25 -33 413 0 c415 1 543 8
583 34 19 12 25 11 61 -10 37 -23 47 -24 212 -24 129 0 174 3 176 13 21 68 22
68 -117 249 -74 95 -140 173 -148 173 -15 0 -15 -5 -3 -160 7 -96 -8 -205 -29
-205 -7 0 -38 12 -69 27 l-58 28 0 86 c0 86 0 87 29 99 56 23 65 42 57 122 -6
71 -12 82 -53 106 -6 4 -17 54 -23 112 -16 150 -39 187 -185 296 -61 46 -114
84 -116 83 -2 0 -35 -7 -74 -15z"/>
</g>
</svg>
