<?xml version="1.0" standalone="no"?>
<!DOCTYPE svg PUBLIC "-//W3C//DTD SVG 20010904//EN"
 "http://www.w3.org/TR/2001/REC-SVG-20010904/DTD/svg10.dtd">
<svg version="1.0" xmlns="http://www.w3.org/2000/svg"
 width="52.000000pt" height="36.000000pt" viewBox="0 0 52.000000 36.000000"
 preserveAspectRatio="xMidYMid meet">
<metadata>
Created by potrace 1.14, written by Peter Selinger 2001-2017
</metadata>
<g transform="translate(0.000000,36.000000) scale(0.100000,-0.100000)"
fill="#000000" stroke="none">
<path fill="#000000" stroke="none" d="M385 352 c-43 -5 -53 -19 -27 -38 23
-16 32 -74 12 -74 -6 0 -24 -13 -41 -29 l-31 -30 -37 40 c-25 25 -47 39 -63
39 -29 0 -38 -16 -38 -66 0 -38 -17 -44 -60 -19 -14 8 -40 14 -57 15 -26 0
-34 -5 -39 -24 -3 -13 0 -34 6 -46 10 -19 19 -21 68 -19 l57 3 20 -42 c12 -23
25 -46 31 -52 16 -16 43 -2 37 21 -6 23 5 24 57 3 60 -24 131 -12 192 32 40
30 48 41 48 68 0 17 -8 43 -17 56 -10 14 -20 51 -23 84 -5 55 -7 60 -35 71
-16 6 -43 9 -60 7z"/>
</g>
</svg>
