<?xml version="1.0" standalone="no"?>
<!DOCTYPE svg PUBLIC "-//W3C//DTD SVG 20010904//EN"
 "http://www.w3.org/TR/2001/REC-SVG-20010904/DTD/svg10.dtd">
<svg version="1.0" xmlns="http://www.w3.org/2000/svg"
 width="54.000000pt" height="39.000000pt" viewBox="0 0 54.000000 39.000000"
 preserveAspectRatio="xMidYMid meet">
<metadata>
Created by potrace 1.14, written by Peter Selinger 2001-2017
</metadata>
<g transform="translate(0.000000,39.000000) scale(0.100000,-0.100000)"
fill="#000000" stroke="none">
<path fill="#000000" stroke="none" d="M255 383 c-34 -8 -55 -34 -55 -67 0
-28 -5 -33 -53 -52 -68 -28 -147 -126 -147 -184 0 -66 6 -68 273 -71 227 -4
239 -3 253 15 18 25 18 57 0 82 -8 11 -12 30 -9 45 3 15 0 36 -6 47 -11 21
-100 72 -126 72 -11 0 -15 11 -15 38 0 70 -37 94 -115 75z"/>
</g>
</svg>
