<?xml version="1.0" standalone="no"?>
<!DOCTYPE svg PUBLIC "-//W3C//DTD SVG 20010904//EN"
 "http://www.w3.org/TR/2001/REC-SVG-20010904/DTD/svg10.dtd">
<svg version="1.0" xmlns="http://www.w3.org/2000/svg"
 width="88.000000pt" height="65.000000pt" viewBox="0 0 88.000000 65.000000"
 preserveAspectRatio="xMidYMid meet">
<metadata>
Created by potrace 1.14, written by Peter Selinger 2001-2017
</metadata>
<g transform="translate(0.000000,65.000000) scale(0.100000,-0.100000)"
fill="#000000" stroke="none">
<path fill="#000000" stroke="none" d="M203 643 c-153 -3 -203 -6 -203 -16 0
-11 9 -51 25 -125 5 -22 7 -22 99 -16 l94 7 10 -49 c5 -27 27 -138 48 -246
l39 -198 283 0 c155 0 282 2 282 5 0 2 -17 37 -38 77 -31 61 -47 115 -92 321
l-54 247 -145 -2 c-80 -2 -237 -4 -348 -5z"/>
</g>
</svg>
