<?xml version="1.0" standalone="no"?>
<!DOCTYPE svg PUBLIC "-//W3C//DTD SVG 20010904//EN"
 "http://www.w3.org/TR/2001/REC-SVG-20010904/DTD/svg10.dtd">
<svg version="1.0" xmlns="http://www.w3.org/2000/svg"
 width="391.000000pt" height="282.000000pt" viewBox="0 0 391.000000 282.000000"
 preserveAspectRatio="xMidYMid meet">
<metadata>
Created by potrace 1.14, written by Peter Selinger 2001-2017
</metadata>
<g transform="translate(0.000000,282.000000) scale(0.100000,-0.100000)"
fill="#000000" stroke="none">
<path fill="#000000" stroke="none" d="M1440 2809 c-289 -5 -574 -10 -634 -11
l-109 -3 -82 -250 c-46 -137 -118 -331 -162 -430 l-79 -180 27 -256 28 -257
75 -151 c42 -83 76 -152 76 -154 0 -2 -97 -68 -215 -147 l-214 -143 -15 -51
c-77 -272 -106 -408 -122 -584 -9 -100 -15 -184 -13 -186 2 -1 839 3 1859 10
1764 12 1860 13 1948 32 50 10 94 21 97 24 3 2 -23 85 -56 184 -59 175 -62
186 -100 469 -21 160 -41 296 -44 303 -2 6 -63 101 -134 210 l-130 197 -320
160 -320 159 -235 531 -235 530 -183 1 c-101 1 -419 -3 -708 -7z"/>
</g>
</svg>
