<?xml version="1.0" standalone="no"?>
<!DOCTYPE svg PUBLIC "-//W3C//DTD SVG 20010904//EN"
 "http://www.w3.org/TR/2001/REC-SVG-20010904/DTD/svg10.dtd">
<svg version="1.0" xmlns="http://www.w3.org/2000/svg"
 width="151.000000pt" height="105.000000pt" viewBox="0 0 151.000000 105.000000"
 preserveAspectRatio="xMidYMid meet">
<metadata>
Created by potrace 1.14, written by Peter Selinger 2001-2017
</metadata>
<g transform="translate(0.000000,105.000000) scale(0.100000,-0.100000)"
fill="#000000" stroke="none">
<path fill="#000000" stroke="none" d="M851 1024 c-29 -37 -30 -124 -2 -124
24 0 51 -36 51 -68 0 -13 14 -37 34 -55 21 -20 38 -50 46 -80 l13 -48 22 21
23 21 -23 72 c-12 40 -25 90 -29 113 l-6 41 75 32 c41 19 75 39 75 45 0 28
-32 56 -64 56 -42 0 -66 -26 -73 -79 -4 -27 -11 -41 -21 -41 -11 0 -13 8 -8
38 8 52 -14 82 -59 82 -24 0 -39 -7 -54 -26z"/>
<path fill="#000000" stroke="none" d="M1397 942 c-13 -14 -17 -39 -17 -109 0
-76 3 -93 19 -107 28 -26 82 -18 98 14 19 37 17 170 -3 198 -19 28 -74 30 -97
4z"/>
<path fill="#000000" stroke="none" d="M557 932 c-19 -20 -23 -77 -7 -87 6 -3
10 -17 10 -31 l0 -25 45 31 46 32 33 -25 c17 -14 37 -41 43 -60 9 -31 8 -38
-8 -53 -18 -16 -17 -34 2 -34 18 0 30 54 23 104 -4 36 -14 58 -33 76 -15 14
-37 40 -50 58 -17 25 -30 32 -55 32 -19 0 -40 -8 -49 -18z"/>
<path fill="#000000" stroke="none" d="M335 910 c-3 -5 -16 -10 -29 -10 -35 0
-58 -34 -64 -90 -4 -47 -6 -49 -19 -30 -18 26 -74 27 -96 2 -10 -10 -17 -33
-17 -50 0 -27 -4 -32 -23 -32 -44 0 -60 -34 -75 -160 -3 -25 -5 -69 -5 -99 0
-47 3 -57 29 -79 27 -23 29 -30 26 -83 -5 -82 25 -207 55 -226 13 -9 23 -24
23 -34 0 -15 7 -19 33 -19 19 0 37 3 40 6 4 4 32 7 64 8 72 1 85 19 71 99 -5
28 -8 153 -6 277 1 124 -1 231 -5 237 -5 7 1 13 15 15 15 2 26 16 37 49 9 26
21 53 27 60 20 25 26 122 8 147 -16 23 -77 31 -89 12z"/>
<path fill="#ffffff" stroke="none" d="M171 660 c8 0 23 7 33 15 29 22 39 18
22 -7 -14 -20 -14 -24 0 -39 8 -9 19 -43 24 -75 4 -33 16 -77 25 -98 l17 -40
-28 -20 c-19 -14 -40 -19 -73 -17 -69 3 -78 8 -96 54 -25 60 -20 133 11 180
18 28 22 42 15 51 -16 19 0 28 19 11 9 -8 23 -15 31 -15z"/>
<path fill="#000000" stroke="none" d="M560 759 c0 -8 7 -24 15 -35 11 -15 14
-16 15 -3 0 8 -7 24 -15 35 -11 15 -14 16 -15 3z"/>
</g>
</svg>
