<?xml version="1.0" standalone="no"?>
<!DOCTYPE svg PUBLIC "-//W3C//DTD SVG 20010904//EN"
 "http://www.w3.org/TR/2001/REC-SVG-20010904/DTD/svg10.dtd">
<svg version="1.0" xmlns="http://www.w3.org/2000/svg"
 width="53.000000pt" height="37.000000pt" viewBox="0 0 53.000000 37.000000"
 preserveAspectRatio="xMidYMid meet">
<metadata>
Created by potrace 1.14, written by Peter Selinger 2001-2017
</metadata>
<g transform="translate(0.000000,37.000000) scale(0.100000,-0.100000)"
fill="#000000" stroke="none">
<path fill="#000000" stroke="none" d="M109 359 c-40 -15 -95 -104 -102 -167
-6 -48 -3 -57 25 -97 30 -42 35 -45 78 -45 26 0 127 -11 225 -25 97 -13 181
-22 186 -19 5 3 9 29 9 57 -1 44 -9 67 -59 156 -55 99 -60 104 -112 127 -43
18 -71 23 -139 23 -47 0 -97 -5 -111 -10z"/>
</g>
</svg>
