<?xml version="1.0" standalone="no"?>
<!DOCTYPE svg PUBLIC "-//W3C//DTD SVG 20010904//EN"
 "http://www.w3.org/TR/2001/REC-SVG-20010904/DTD/svg10.dtd">
<svg version="1.0" xmlns="http://www.w3.org/2000/svg"
 width="23.000000pt" height="29.000000pt" viewBox="0 0 23.000000 29.000000"
 preserveAspectRatio="xMidYMid meet">
<metadata>
Created by potrace 1.14, written by Peter Selinger 2001-2017
</metadata>
<g transform="translate(0.000000,29.000000) scale(0.100000,-0.100000)"
fill="#000000" stroke="none">
<path fill="#000000" stroke="none" d="M83 275 c-19 -13 -21 -20 -12 -41 8
-22 6 -30 -14 -48 -16 -15 -27 -42 -36 -86 -7 -36 -14 -73 -17 -82 -5 -16 3
-18 64 -18 56 0 72 4 87 20 10 11 25 20 34 20 40 1 43 15 12 83 -17 37 -33 83
-37 102 -11 60 -41 78 -81 50z"/>
</g>
</svg>
