<?xml version="1.0" standalone="no"?>
<!DOCTYPE svg PUBLIC "-//W3C//DTD SVG 20010904//EN"
 "http://www.w3.org/TR/2001/REC-SVG-20010904/DTD/svg10.dtd">
<svg version="1.0" xmlns="http://www.w3.org/2000/svg"
 width="18.000000pt" height="25.000000pt" viewBox="0 0 18.000000 25.000000"
 preserveAspectRatio="xMidYMid meet">
<metadata>
Created by potrace 1.14, written by Peter Selinger 2001-2017
</metadata>
<g transform="translate(0.000000,25.000000) scale(0.100000,-0.100000)"
fill="#000000" stroke="none">
<path fill="#000000" stroke="none" d="M97 243 c-4 -3 -7 -14 -7 -24 0 -10
-18 -39 -40 -64 -43 -50 -53 -76 -48 -121 4 -36 35 -45 41 -12 l4 23 2 -22 c1
-28 27 -30 36 -3 3 10 20 31 37 45 24 20 33 23 44 14 12 -9 14 -4 14 29 0 23
-4 44 -10 47 -5 3 -10 20 -10 37 0 40 -41 73 -63 51z"/>
</g>
</svg>
