<?xml version="1.0" standalone="no"?>
<!DOCTYPE svg PUBLIC "-//W3C//DTD SVG 20010904//EN"
 "http://www.w3.org/TR/2001/REC-SVG-20010904/DTD/svg10.dtd">
<svg version="1.0" xmlns="http://www.w3.org/2000/svg"
 width="101.000000pt" height="321.000000pt" viewBox="0 0 101.000000 321.000000"
 preserveAspectRatio="xMidYMid meet">
<metadata>
Created by potrace 1.14, written by Peter Selinger 2001-2017
</metadata>
<g transform="translate(0.000000,321.000000) scale(0.100000,-0.100000)"
fill="#000000" stroke="none">
<path fill="#000000" stroke="none" d="M415 3196 c-6 -8 -47 -62 -92 -119
l-83 -104 51 -117 c38 -88 48 -121 39 -130 -6 -8 -60 -51 -120 -97 l-110 -84
0 -305 0 -305 -49 -300 -49 -300 85 -145 85 -144 -17 -186 -16 -185 59 -259
60 -259 -18 -52 -18 -53 27 -26 28 -26 185 2 186 3 -84 110 -84 111 -26 270
-26 271 36 69 35 69 1 -40 c2 -120 49 -697 56 -704 10 -9 442 -56 449 -50 2 2
-42 29 -99 58 l-102 54 -57 261 c-31 144 -57 272 -57 286 0 14 22 104 48 200
l48 176 -68 317 -68 316 92 208 c50 114 91 215 91 223 -4 37 -146 397 -163
410 -18 15 -18 19 12 150 21 95 36 140 50 152 20 17 19 19 -39 153 l-58 135
-105 0 c-81 0 -107 -3 -115 -14z"/>
</g>
</svg>
