<?xml version="1.0" standalone="no"?>
<!DOCTYPE svg PUBLIC "-//W3C//DTD SVG 20010904//EN"
 "http://www.w3.org/TR/2001/REC-SVG-20010904/DTD/svg10.dtd">
<svg version="1.0" xmlns="http://www.w3.org/2000/svg"
 width="26.000000pt" height="16.000000pt" viewBox="0 0 26.000000 16.000000"
 preserveAspectRatio="xMidYMid meet">
<metadata>
Created by potrace 1.14, written by Peter Selinger 2001-2017
</metadata>
<g transform="translate(0.000000,16.000000) scale(0.100000,-0.100000)"
fill="#000000" stroke="none">
<path fill="#000000" stroke="none" d="M116 145 c-9 -7 -20 -29 -23 -49 -6
-36 -34 -63 -53 -51 -5 3 -18 2 -27 -4 -41 -23 79 -27 155 -5 18 5 22 2 22
-15 0 -11 5 -21 11 -21 6 0 8 7 5 17 -11 29 13 83 37 83 17 1 13 5 -18 22 -59
31 -89 37 -109 23z"/>
</g>
</svg>
