<?xml version="1.0" standalone="no"?>
<!DOCTYPE svg PUBLIC "-//W3C//DTD SVG 20010904//EN"
 "http://www.w3.org/TR/2001/REC-SVG-20010904/DTD/svg10.dtd">
<svg version="1.0" xmlns="http://www.w3.org/2000/svg"
 width="35.000000pt" height="63.000000pt" viewBox="0 0 35.000000 63.000000"
 preserveAspectRatio="xMidYMid meet">
<metadata>
Created by potrace 1.14, written by Peter Selinger 2001-2017
</metadata>
<g transform="translate(0.000000,63.000000) scale(0.100000,-0.100000)"
fill="#000000" stroke="none">
<path fill="#000000" stroke="none" d="M78 614 l-48 -15 0 -75 c0 -49 5 -85
15 -102 8 -15 21 -55 29 -90 l13 -62 -44 -71 c-25 -38 -44 -72 -42 -74 2 -2
25 -6 50 -10 l46 -7 21 49 22 48 -4 -97 -4 -98 58 0 c31 0 72 -3 89 -6 l31 -6
0 55 c0 62 17 157 31 171 16 17 10 47 -8 45 -66 -6 -70 1 -82 126 -7 75 -11
86 -60 158 -28 42 -55 77 -59 76 -4 0 -28 -7 -54 -15z"/>
</g>
</svg>
