<?xml version="1.0" standalone="no"?>
<!DOCTYPE svg PUBLIC "-//W3C//DTD SVG 20010904//EN"
 "http://www.w3.org/TR/2001/REC-SVG-20010904/DTD/svg10.dtd">
<svg version="1.0" xmlns="http://www.w3.org/2000/svg"
 width="20.000000pt" height="89.000000pt" viewBox="0 0 20.000000 89.000000"
 preserveAspectRatio="xMidYMid meet">
<metadata>
Created by potrace 1.14, written by Peter Selinger 2001-2017
</metadata>
<g transform="translate(0.000000,89.000000) scale(0.100000,-0.100000)"
fill="#000000" stroke="none">
<path fill="#000000" stroke="none" d="M14 875 c-7 -18 -9 -51 -6 -135 2 -56
4 -63 16 -47 12 15 14 9 18 -47 4 -42 13 -74 26 -93 23 -33 38 -84 48 -166 5
-48 12 -63 42 -93 19 -19 37 -32 40 -30 3 3 0 30 -6 59 -6 32 -8 106 -5 185 5
102 3 143 -10 189 -9 32 -19 88 -23 126 l-6 67 -64 0 c-48 0 -66 -4 -70 -15z"/>
<path fill="#000000" stroke="none" d="M126 159 c-12 -119 -10 -128 29 -145
44 -18 45 -18 45 9 0 19 -55 185 -64 195 -2 1 -6 -25 -10 -59z"/>
</g>
</svg>
