<?xml version="1.0" standalone="no"?>
<!DOCTYPE svg PUBLIC "-//W3C//DTD SVG 20010904//EN"
 "http://www.w3.org/TR/2001/REC-SVG-20010904/DTD/svg10.dtd">
<svg version="1.0" xmlns="http://www.w3.org/2000/svg"
 width="423.000000pt" height="533.000000pt" viewBox="0 0 423.000000 533.000000"
 preserveAspectRatio="xMidYMid meet">
<metadata>
Created by potrace 1.14, written by Peter Selinger 2001-2017
</metadata>
<g transform="translate(0.000000,533.000000) scale(0.100000,-0.100000)"
fill="#000000" stroke="none">
<path fill="#000000" stroke="none" d="M1780 5174 c-96 -85 -177 -160 -181
-167 -4 -6 -48 -127 -98 -267 -85 -240 -94 -272 -146 -540 l-56 -285 7 -190 7
-190 124 -205 c116 -192 132 -213 247 -330 87 -89 143 -156 190 -230 38 -58
101 -139 142 -180 l75 -76 -25 -23 c-22 -21 -38 -23 -277 -37 -154 -9 -305
-13 -384 -9 -122 6 -136 5 -225 -20 -86 -25 -101 -33 -165 -90 -67 -59 -98
-81 -212 -150 l-51 -32 85 -68 c60 -49 91 -82 109 -117 33 -65 79 -114 188
-202 118 -94 384 -273 420 -282 34 -8 17 -24 -27 -24 -38 0 -174 58 -269 114
-43 25 -78 41 -78 36 0 -6 4 -10 8 -10 5 0 47 -23 93 -51 46 -29 122 -74 169
-100 81 -47 83 -49 50 -49 -54 0 -154 47 -273 128 -72 49 -112 70 -121 65 -24
-14 166 -137 251 -163 49 -15 77 -29 87 -45 9 -14 16 -26 16 -29 0 -12 -203
87 -261 127 -115 79 -119 81 -119 63 0 -24 101 -94 235 -163 118 -61 119 -62
77 -63 -65 0 -284 113 -382 197 -64 56 -81 77 -113 145 -21 47 -40 104 -44
137 -3 32 -18 79 -34 110 -16 30 -29 59 -29 66 0 6 -34 37 -76 68 l-75 57 -38
-24 c-20 -13 -117 -97 -214 -187 -169 -155 -182 -171 -256 -289 -43 -69 -90
-145 -103 -170 l-25 -45 8 -478 c4 -263 9 -481 12 -484 3 -2 172 92 376 211
203 118 438 249 521 291 l150 75 324 -50 c317 -50 326 -52 436 -99 l113 -49
39 -74 c22 -42 61 -96 92 -127 l54 -53 123 -17 123 -17 26 -89 c25 -89 26 -90
75 -117 44 -23 80 -30 280 -54 127 -15 232 -29 234 -31 3 -2 -27 -36 -67 -76
-40 -40 -72 -76 -72 -80 0 -13 91 -7 113 8 21 13 61 10 405 -28 316 -36 382
-41 382 -29 0 11 157 247 190 285 3 4 58 -41 121 -100 l114 -108 2 45 c1 25
14 543 29 1151 l26 1106 -183 239 c-100 132 -184 241 -186 243 -8 10 -550 -39
-590 -53 -39 -14 -43 -14 -43 1 0 54 55 409 64 415 6 4 36 8 66 8 30 0 71 3
90 6 l36 6 62 202 62 202 0 136 0 135 -105 448 c-58 247 -105 449 -105 451 0
2 -87 63 -192 137 -131 91 -257 167 -393 239 l-200 106 -330 6 -330 5 -175
-155z"/>
</g>
</svg>
