<?xml version="1.0" standalone="no"?>
<!DOCTYPE svg PUBLIC "-//W3C//DTD SVG 20010904//EN"
 "http://www.w3.org/TR/2001/REC-SVG-20010904/DTD/svg10.dtd">
<svg version="1.0" xmlns="http://www.w3.org/2000/svg"
 width="34.000000pt" height="57.000000pt" viewBox="0 0 34.000000 57.000000"
 preserveAspectRatio="xMidYMid meet">
<metadata>
Created by potrace 1.14, written by Peter Selinger 2001-2017
</metadata>
<g transform="translate(0.000000,57.000000) scale(0.100000,-0.100000)"
fill="#000000" stroke="none">
<path fill="#000000" stroke="none" d="M137 546 c-9 -13 -30 -26 -49 -30 -27
-5 -38 -16 -61 -56 -37 -68 -35 -92 13 -143 67 -74 72 -118 21 -187 -34 -44
-29 -93 10 -117 40 -24 59 -12 59 40 0 25 6 60 14 78 8 19 17 59 20 89 4 30
19 79 34 107 26 52 28 53 72 53 53 0 73 10 65 32 -8 21 -53 32 -70 18 -28 -23
-65 23 -46 59 5 9 6 31 4 49 -5 29 -9 32 -38 32 -23 0 -37 -7 -48 -24z"/>
</g>
</svg>
