<?xml version="1.0" standalone="no"?>
<!DOCTYPE svg PUBLIC "-//W3C//DTD SVG 20010904//EN"
 "http://www.w3.org/TR/2001/REC-SVG-20010904/DTD/svg10.dtd">
<svg version="1.0" xmlns="http://www.w3.org/2000/svg"
 width="26.000000pt" height="44.000000pt" viewBox="0 0 26.000000 44.000000"
 preserveAspectRatio="xMidYMid meet">
<metadata>
Created by potrace 1.14, written by Peter Selinger 2001-2017
</metadata>
<g transform="translate(0.000000,44.000000) scale(0.100000,-0.100000)"
fill="#000000" stroke="none">
<path fill="#000000" stroke="none" d="M16 400 c-21 -54 -21 -54 19 -69 41
-14 39 -5 35 -188 -3 -164 2 -172 69 -105 l39 38 -5 86 c-3 47 -3 102 1 122 6
31 11 36 34 36 50 0 55 11 28 71 -19 43 -26 50 -31 36 -4 -10 -3 -29 3 -43 10
-21 9 -24 -7 -24 -35 0 -51 12 -51 37 0 21 -4 24 -27 21 -20 -2 -29 -9 -31
-25 -3 -17 -10 -23 -29 -23 -20 0 -24 4 -18 18 11 27 11 45 -1 49 -6 2 -19
-14 -28 -37z"/>
</g>
</svg>
