<?xml version="1.0" standalone="no"?>
<!DOCTYPE svg PUBLIC "-//W3C//DTD SVG 20010904//EN"
 "http://www.w3.org/TR/2001/REC-SVG-20010904/DTD/svg10.dtd">
<svg version="1.0" xmlns="http://www.w3.org/2000/svg"
 width="54.000000pt" height="80.000000pt" viewBox="0 0 54.000000 80.000000"
 preserveAspectRatio="xMidYMid meet">
<metadata>
Created by potrace 1.14, written by Peter Selinger 2001-2017
</metadata>
<g transform="translate(0.000000,80.000000) scale(0.100000,-0.100000)"
fill="#000000" stroke="none">
<path fill="#000000" stroke="none" d="M141 789 c-23 -9 -23 -10 -6 -29 11
-12 31 -20 52 -20 34 0 132 -43 145 -64 16 -24 7 -26 -21 -7 -36 26 -42 26
-75 0 -22 -17 -26 -28 -26 -73 0 -43 5 -57 24 -75 21 -19 27 -21 47 -11 21 12
22 11 15 -20 -3 -18 -6 -54 -6 -81 0 -46 -2 -50 -40 -71 -27 -16 -40 -30 -40
-44 0 -16 -8 -23 -28 -27 -40 -8 -192 -175 -171 -188 21 -13 25 -12 81 31 29
22 67 46 83 55 26 12 30 12 33 0 5 -22 43 -18 49 4 4 18 31 36 39 28 3 -3 -15
-76 -31 -127 -7 -22 -6 -23 9 -11 14 12 16 10 16 -23 0 -40 -1 -40 34 -26 30
11 35 52 12 86 -10 13 -13 34 -9 61 5 40 6 41 57 51 79 16 102 28 132 67 l27
36 -17 84 c-20 104 -50 182 -82 216 -13 14 -24 33 -24 43 0 35 -62 83 -138
105 -39 12 -74 26 -77 31 -8 12 -32 12 -64 -1z"/>
</g>
</svg>
