<?xml version="1.0" standalone="no"?>
<!DOCTYPE svg PUBLIC "-//W3C//DTD SVG 20010904//EN"
 "http://www.w3.org/TR/2001/REC-SVG-20010904/DTD/svg10.dtd">
<svg version="1.0" xmlns="http://www.w3.org/2000/svg"
 width="18.000000pt" height="70.000000pt" viewBox="0 0 18.000000 70.000000"
 preserveAspectRatio="xMidYMid meet">
<metadata>
Created by potrace 1.14, written by Peter Selinger 2001-2017
</metadata>
<g transform="translate(0.000000,70.000000) scale(0.100000,-0.100000)"
fill="#000000" stroke="none">
<path fill="#000000" stroke="none" d="M53 678 c-51 -56 -55 -76 -45 -251 5
-89 7 -214 4 -277 -5 -133 -1 -139 72 -147 37 -5 46 -2 55 15 9 17 8 23 -7 31
-15 8 -18 22 -17 88 3 147 26 325 48 365 24 44 17 56 -23 41 -46 -17 -67 19
-35 61 19 26 19 61 -1 80 -20 21 -27 20 -51 -6z"/>
</g>
</svg>
