<?xml version="1.0" standalone="no"?>
<!DOCTYPE svg PUBLIC "-//W3C//DTD SVG 20010904//EN"
 "http://www.w3.org/TR/2001/REC-SVG-20010904/DTD/svg10.dtd">
<svg version="1.0" xmlns="http://www.w3.org/2000/svg"
 width="26.000000pt" height="56.000000pt" viewBox="0 0 26.000000 56.000000"
 preserveAspectRatio="xMidYMid meet">
<metadata>
Created by potrace 1.14, written by Peter Selinger 2001-2017
</metadata>
<g transform="translate(0.000000,56.000000) scale(0.100000,-0.100000)"
fill="#000000" stroke="none">
<path fill="#000000" stroke="none" d="M194 553 c-48 -6 -83 -50 -101 -127
-13 -60 -18 -68 -56 -91 -23 -14 -36 -25 -29 -25 9 0 12 -39 13 -157 l1 -158
30 108 30 107 65 52 c69 54 83 78 83 135 0 19 8 57 17 82 17 49 13 82 -9 79
-7 0 -27 -3 -44 -5z"/>
</g>
</svg>
