<?xml version="1.0" standalone="no"?>
<!DOCTYPE svg PUBLIC "-//W3C//DTD SVG 20010904//EN"
 "http://www.w3.org/TR/2001/REC-SVG-20010904/DTD/svg10.dtd">
<svg version="1.0" xmlns="http://www.w3.org/2000/svg"
 width="22.000000pt" height="36.000000pt" viewBox="0 0 22.000000 36.000000"
 preserveAspectRatio="xMidYMid meet">
<metadata>
Created by potrace 1.14, written by Peter Selinger 2001-2017
</metadata>
<g transform="translate(0.000000,36.000000) scale(0.100000,-0.100000)"
fill="#000000" stroke="none">
<path fill="#000000" stroke="none" d="M131 317 c-12 -28 -30 -49 -53 -61 -18
-10 -44 -36 -57 -58 l-22 -39 35 -44 c26 -32 36 -53 36 -79 l0 -36 69 0 69 0
4 83 c2 46 -2 101 -9 127 -8 29 -9 48 -3 54 14 14 12 58 -4 79 -22 29 -45 20
-65 -26z"/>
</g>
</svg>
