<?xml version="1.0" standalone="no"?>
<!DOCTYPE svg PUBLIC "-//W3C//DTD SVG 20010904//EN"
 "http://www.w3.org/TR/2001/REC-SVG-20010904/DTD/svg10.dtd">
<svg version="1.0" xmlns="http://www.w3.org/2000/svg"
 width="51.000000pt" height="82.000000pt" viewBox="0 0 51.000000 82.000000"
 preserveAspectRatio="xMidYMid meet">
<metadata>
Created by potrace 1.14, written by Peter Selinger 2001-2017
</metadata>
<g transform="translate(0.000000,82.000000) scale(0.100000,-0.100000)"
fill="#000000" stroke="none">
<path fill="#000000" stroke="none" d="M345 807 l-40 -13 -3 -72 c-3 -64 -5
-72 -22 -72 -15 0 -20 -7 -20 -26 0 -19 -4 -25 -15 -20 -17 6 -55 -41 -75 -94
-7 -19 -47 -102 -87 -184 -86 -171 -99 -236 -43 -206 23 12 23 12 15 -55 -4
-45 -3 -65 3 -61 6 3 59 17 117 30 69 16 115 32 129 45 12 12 29 21 37 21 8 1
28 13 45 28 26 22 33 38 39 82 4 30 15 71 25 90 26 51 48 145 54 227 5 68 3
73 -21 91 -24 17 -24 20 -13 61 11 41 6 116 -8 125 -20 12 -82 14 -117 3z"/>
</g>
</svg>
