<?xml version="1.0" standalone="no"?>
<!DOCTYPE svg PUBLIC "-//W3C//DTD SVG 20010904//EN"
 "http://www.w3.org/TR/2001/REC-SVG-20010904/DTD/svg10.dtd">
<svg version="1.0" xmlns="http://www.w3.org/2000/svg"
 width="185.000000pt" height="182.000000pt" viewBox="0 0 185.000000 182.000000"
 preserveAspectRatio="xMidYMid meet">
<metadata>
Created by potrace 1.14, written by Peter Selinger 2001-2017
</metadata>
<g transform="translate(0.000000,182.000000) scale(0.100000,-0.100000)"
fill="#000000" stroke="none">
<path fill="#000000" stroke="none" d="M1001 1799 c-36 -10 -70 -24 -76 -31
-7 -7 -42 -47 -78 -89 l-65 -77 -59 50 c-32 27 -68 54 -81 59 -31 12 -204 12
-236 -1 -20 -7 -26 -6 -26 4 0 14 -39 20 -215 31 l-90 6 -31 -48 -30 -48 24
-80 c19 -65 65 -285 99 -471 4 -25 -8 -55 -66 -161 l-71 -130 0 -165 0 -165
92 -43 c72 -33 144 -55 322 -95 126 -29 232 -58 235 -64 6 -9 152 -40 193 -41
3 0 41 -54 84 -121 43 -66 80 -116 82 -110 2 5 22 84 46 174 l42 163 -73 79
c-40 43 -73 83 -73 88 0 6 24 72 53 148 59 158 40 145 192 125 72 -9 113 -9
208 2 l119 14 99 -46 c83 -38 109 -46 158 -46 33 0 62 4 66 9 9 15 -45 140
-63 145 -144 41 -242 56 -373 56 l-139 0 -102 75 c-101 75 -103 77 -160 183
-32 59 -57 112 -57 117 0 6 29 32 64 58 35 27 67 56 70 65 2 10 20 25 38 35
19 11 55 51 90 102 l57 83 -97 91 c-53 50 -99 90 -102 90 -3 -1 -35 -10 -70
-20z"/>
</g>
</svg>
