<?xml version="1.0" standalone="no"?>
<!DOCTYPE svg PUBLIC "-//W3C//DTD SVG 20010904//EN"
 "http://www.w3.org/TR/2001/REC-SVG-20010904/DTD/svg10.dtd">
<svg version="1.0" xmlns="http://www.w3.org/2000/svg"
 width="30.000000pt" height="62.000000pt" viewBox="0 0 30.000000 62.000000"
 preserveAspectRatio="xMidYMid meet">
<metadata>
Created by potrace 1.14, written by Peter Selinger 2001-2017
</metadata>
<g transform="translate(0.000000,62.000000) scale(0.100000,-0.100000)"
fill="#000000" stroke="none">
<path fill="#000000" stroke="none" d="M64 585 c-7 -19 -14 -40 -14 -47 0 -7
-11 -35 -25 -62 -29 -58 -30 -67 -9 -108 11 -21 16 -65 19 -152 4 -167 11
-203 42 -211 14 -3 38 -3 53 0 32 7 33 14 46 228 5 95 9 109 28 125 28 22 96
120 96 138 0 19 -29 18 -50 -1 -24 -22 -90 -32 -90 -14 0 8 7 22 14 32 24 32
8 67 -41 88 -25 10 -47 19 -49 19 -3 0 -12 -16 -20 -35z"/>
</g>
</svg>
