<?xml version="1.0" standalone="no"?>
<!DOCTYPE svg PUBLIC "-//W3C//DTD SVG 20010904//EN"
 "http://www.w3.org/TR/2001/REC-SVG-20010904/DTD/svg10.dtd">
<svg version="1.0" xmlns="http://www.w3.org/2000/svg"
 width="221.000000pt" height="352.000000pt" viewBox="0 0 221.000000 352.000000"
 preserveAspectRatio="xMidYMid meet">
<metadata>
Created by potrace 1.14, written by Peter Selinger 2001-2017
</metadata>
<g transform="translate(0.000000,352.000000) scale(0.100000,-0.100000)"
fill="#000000" stroke="none">
<path fill="#000000" stroke="none" d="M7 3188 c-4 -182 -7 -969 -7 -1748 l0
-1417 238 -6 c130 -4 376 -10 547 -14 l309 -6 -19 29 c-76 118 -83 123 -398
327 l-306 198 -29 72 c-17 40 -78 190 -136 334 l-106 262 67 177 67 177 594
500 593 501 392 232 c304 180 392 236 390 251 -1 10 -4 38 -8 63 l-5 45 -350
138 -349 139 -658 33 c-362 19 -694 36 -739 39 l-81 6 -6 -332z"/>
</g>
</svg>
