<?xml version="1.0" standalone="no"?>
<!DOCTYPE svg PUBLIC "-//W3C//DTD SVG 20010904//EN"
 "http://www.w3.org/TR/2001/REC-SVG-20010904/DTD/svg10.dtd">
<svg version="1.0" xmlns="http://www.w3.org/2000/svg"
 width="13.000000pt" height="174.000000pt" viewBox="0 0 13.000000 174.000000"
 preserveAspectRatio="xMidYMid meet">
<metadata>
Created by potrace 1.14, written by Peter Selinger 2001-2017
</metadata>
<g transform="translate(0.000000,174.000000) scale(0.100000,-0.100000)"
fill="#000000" stroke="none">
<path fill="#000000" stroke="none" d="M62 1641 c-34 -54 -62 -104 -62 -110 0
-18 85 -183 109 -211 l20 -25 1 223 c0 122 -2 222 -3 222 -2 0 -32 -45 -65
-99z"/>
<path fill="#000000" stroke="none" d="M124 830 c0 -85 2 -120 3 -77 2 42 2
112 0 155 -1 42 -3 7 -3 -78z"/>
<path fill="#000000" stroke="none" d="M97 205 c-26 -54 -27 -56 -12 -117 8
-34 21 -68 29 -77 15 -14 16 -3 16 117 0 73 -1 132 -3 132 -2 0 -15 -25 -30
-55z"/>
</g>
</svg>
