<?xml version="1.0" standalone="no"?>
<!DOCTYPE svg PUBLIC "-//W3C//DTD SVG 20010904//EN"
 "http://www.w3.org/TR/2001/REC-SVG-20010904/DTD/svg10.dtd">
<svg version="1.0" xmlns="http://www.w3.org/2000/svg"
 width="47.000000pt" height="37.000000pt" viewBox="0 0 47.000000 37.000000"
 preserveAspectRatio="xMidYMid meet">
<metadata>
Created by potrace 1.14, written by Peter Selinger 2001-2017
</metadata>
<g transform="translate(0.000000,37.000000) scale(0.100000,-0.100000)"
fill="#000000" stroke="none">
<path fill="#000000" stroke="none" d="M41 354 c-12 -9 -26 -27 -31 -40 -11
-29 -1 -304 11 -304 5 0 15 21 22 47 l14 48 14 -49 c8 -27 20 -51 28 -54 11
-4 13 7 7 56 -5 45 -3 74 9 107 14 43 14 47 -5 73 -11 15 -24 49 -29 75 -5 26
-11 50 -13 52 -2 3 -14 -3 -27 -11z"/>
<path fill="#000000" stroke="none" d="M362 297 c-20 -21 -22 -34 -22 -149 0
-103 3 -128 16 -139 14 -11 18 -10 27 6 7 11 15 29 19 40 4 15 6 12 7 -13 1
-35 24 -53 43 -34 8 8 7 28 -1 72 -11 54 -10 65 4 87 13 20 14 31 6 55 -6 17
-11 42 -11 55 0 16 -8 27 -26 33 -35 14 -38 13 -62 -13z"/>
</g>
</svg>
