<?xml version="1.0" standalone="no"?>
<!DOCTYPE svg PUBLIC "-//W3C//DTD SVG 20010904//EN"
 "http://www.w3.org/TR/2001/REC-SVG-20010904/DTD/svg10.dtd">
<svg version="1.0" xmlns="http://www.w3.org/2000/svg"
 width="62.000000pt" height="96.000000pt" viewBox="0 0 62.000000 96.000000"
 preserveAspectRatio="xMidYMid meet">
<metadata>
Created by potrace 1.14, written by Peter Selinger 2001-2017
</metadata>
<g transform="translate(0.000000,96.000000) scale(0.100000,-0.100000)"
fill="#000000" stroke="none">
<path fill="#000000" stroke="none" d="M163 888 c-33 -75 -34 -98 -9 -189 7
-24 3 -29 -41 -54 -31 -18 -61 -46 -82 -78 l-33 -50 25 -131 c15 -72 29 -168
33 -214 4 -45 9 -82 13 -82 7 0 339 -78 362 -85 13 -4 18 17 33 126 25 182 44
245 99 322 25 35 47 69 49 75 2 5 -20 28 -48 50 -47 38 -57 54 -124 204 -40
90 -73 164 -74 164 -1 1 -39 5 -86 9 l-86 6 -31 -73z"/>
</g>
</svg>
