<?xml version="1.0" standalone="no"?>
<!DOCTYPE svg PUBLIC "-//W3C//DTD SVG 20010904//EN"
 "http://www.w3.org/TR/2001/REC-SVG-20010904/DTD/svg10.dtd">
<svg version="1.0" xmlns="http://www.w3.org/2000/svg"
 width="143.000000pt" height="392.000000pt" viewBox="0 0 143.000000 392.000000"
 preserveAspectRatio="xMidYMid meet">
<metadata>
Created by potrace 1.14, written by Peter Selinger 2001-2017
</metadata>
<g transform="translate(0.000000,392.000000) scale(0.100000,-0.100000)"
fill="#000000" stroke="none">
<path fill="#000000" stroke="none" d="M775 3901 c-38 -10 -94 -30 -122 -44
l-53 -27 0 -78 0 -77 -72 -90 c-40 -50 -121 -153 -180 -230 -94 -122 -119
-148 -195 -200 -85 -59 -87 -61 -122 -144 l-35 -83 49 -91 c26 -51 49 -93 50
-95 2 -2 35 -6 74 -11 l72 -7 -7 101 -7 102 64 -9 c34 -4 64 -10 66 -11 1 -2
8 -37 14 -78 11 -68 9 -92 -24 -300 -32 -202 -35 -236 -27 -315 5 -49 11 -195
15 -324 7 -231 6 -238 -23 -410 -25 -141 -47 -226 -115 -436 l-85 -262 7 -198
c4 -113 3 -202 -2 -205 -17 -12 84 -59 134 -61 l49 -3 86 185 c76 162 335 652
341 646 2 -1 9 -116 17 -255 14 -245 14 -254 -5 -284 -16 -27 -19 -50 -18
-147 1 -63 4 -153 7 -200 l7 -85 170 -87 c94 -48 175 -88 180 -88 6 0 39 34
73 75 l62 75 -44 87 -44 88 23 140 c13 77 42 364 65 638 38 449 41 500 27 520
-12 19 -13 32 -4 71 10 45 12 47 38 42 22 -4 28 -1 33 17 14 59 17 139 7 205
-13 83 -41 346 -40 371 0 9 22 -47 48 -125 34 -97 50 -165 55 -220 4 -43 9
-103 13 -133 5 -51 6 -53 19 -30 21 39 18 196 -7 290 -11 45 -22 118 -24 163
-1 44 -15 151 -31 236 -25 141 -27 175 -27 382 l1 226 -112 120 -113 120 -7
79 c-3 44 -3 99 0 124 l6 44 -122 158 c-66 86 -124 157 -128 156 -4 -1 -38 -9
-77 -18z"/>
</g>
</svg>
