<?xml version="1.0" standalone="no"?>
<!DOCTYPE svg PUBLIC "-//W3C//DTD SVG 20010904//EN"
 "http://www.w3.org/TR/2001/REC-SVG-20010904/DTD/svg10.dtd">
<svg version="1.0" xmlns="http://www.w3.org/2000/svg"
 width="84.000000pt" height="275.000000pt" viewBox="0 0 84.000000 275.000000"
 preserveAspectRatio="xMidYMid meet">
<metadata>
Created by potrace 1.14, written by Peter Selinger 2001-2017
</metadata>
<g transform="translate(0.000000,275.000000) scale(0.100000,-0.100000)"
fill="#000000" stroke="none">
<path fill="#000000" stroke="none" d="M705 2704 c-22 -27 -49 -58 -62 -69
-32 -29 -21 -65 32 -105 37 -28 42 -35 32 -50 -8 -14 -8 -22 2 -33 7 -9 8 -18
2 -21 -5 -3 -7 -15 -4 -26 3 -10 0 -59 -7 -107 -10 -73 -17 -93 -40 -118 -15
-16 -33 -46 -39 -66 -15 -46 -74 -88 -110 -79 -24 5 -25 9 -27 102 -1 52 -5
105 -8 116 -7 21 -71 52 -107 52 -32 0 -57 -18 -89 -62 -25 -34 -30 -51 -30
-97 0 -31 7 -69 15 -85 18 -33 19 -39 5 -31 -6 4 -17 22 -25 41 -8 19 -19 34
-24 34 -6 0 -11 8 -11 19 0 10 -8 29 -18 42 -32 44 -72 200 -72 285 0 38 5 50
34 77 38 36 51 73 30 81 -8 3 -14 14 -14 24 0 22 -71 65 -93 56 -11 -4 -14
-15 -10 -44 5 -34 1 -45 -26 -75 -22 -26 -31 -46 -32 -73 0 -20 -2 -66 -4
-102 -4 -79 32 -261 67 -340 14 -30 47 -91 75 -135 l50 -81 7 -119 c3 -66 8
-137 12 -157 5 -32 3 -38 -11 -38 -15 0 -17 -6 -11 -39 3 -22 1 -52 -5 -68
-15 -39 -15 -346 0 -403 32 -120 105 -337 117 -351 8 -9 14 -29 13 -45 -2 -16
2 -45 9 -64 20 -64 28 -125 21 -165 -4 -22 -3 -47 2 -56 4 -9 6 -32 2 -52 -5
-32 -10 -38 -52 -52 -25 -9 -66 -26 -91 -38 -38 -19 -45 -27 -45 -52 0 -27 4
-30 40 -37 22 -4 60 -5 85 -2 40 5 43 4 28 -9 -11 -9 -18 -28 -18 -51 l0 -36
75 0 c127 0 226 19 257 50 l28 26 -30 234 c-33 253 -44 308 -66 325 -11 7 -15
36 -15 112 -1 56 2 106 5 111 3 6 8 30 10 54 3 23 11 84 20 133 8 50 15 135
15 190 0 55 1 122 1 149 1 37 -4 54 -20 71 -20 22 -21 24 -5 61 25 60 55 194
55 247 0 53 60 183 134 292 38 57 41 66 53 175 6 63 15 132 19 152 4 25 1 52
-10 78 -9 22 -16 58 -16 79 0 22 -10 61 -21 88 -12 26 -27 65 -34 87 l-12 39
-38 -49z"/>
</g>
</svg>
