<?xml version="1.0" standalone="no"?>
<!DOCTYPE svg PUBLIC "-//W3C//DTD SVG 20010904//EN"
 "http://www.w3.org/TR/2001/REC-SVG-20010904/DTD/svg10.dtd">
<svg version="1.0" xmlns="http://www.w3.org/2000/svg"
 width="47.000000pt" height="265.000000pt" viewBox="0 0 47.000000 265.000000"
 preserveAspectRatio="xMidYMid meet">
<metadata>
Created by potrace 1.14, written by Peter Selinger 2001-2017
</metadata>
<g transform="translate(0.000000,265.000000) scale(0.100000,-0.100000)"
fill="#000000" stroke="none">
<path fill="#000000" stroke="none" d="M3 1698 c5 -798 9 -971 22 -1067 16
-112 16 -114 -4 -135 -20 -21 -21 -34 -21 -255 l0 -232 32 3 c26 2 34 8 36 27
2 13 -2 34 -8 47 -11 20 -9 30 17 76 17 29 37 54 45 56 19 4 47 -84 37 -118
-11 -40 -10 -65 4 -84 12 -17 20 -17 88 -7 180 29 187 31 199 62 23 55 -8 103
-50 77 -31 -20 -59 24 -60 93 0 31 -9 82 -20 114 -11 32 -20 64 -20 71 0 7 25
42 56 76 90 101 86 85 59 233 -14 72 -25 164 -25 205 0 66 4 85 35 149 40 83
43 108 16 142 -10 13 -30 47 -44 75 -19 38 -23 54 -14 63 6 6 16 11 21 11 6 0
21 15 33 33 28 41 35 156 11 202 -9 17 -23 72 -31 123 -14 79 -22 101 -50 135
-18 23 -63 94 -100 158 -36 63 -76 124 -88 135 -54 49 -60 66 -49 148 8 51 8
82 1 94 -7 13 -7 41 1 86 10 60 9 68 -8 87 -19 22 -53 42 -101 60 l-26 10 6
-953z"/>
</g>
</svg>
