<?xml version="1.0" standalone="no"?>
<!DOCTYPE svg PUBLIC "-//W3C//DTD SVG 20010904//EN"
 "http://www.w3.org/TR/2001/REC-SVG-20010904/DTD/svg10.dtd">
<svg version="1.0" xmlns="http://www.w3.org/2000/svg"
 width="174.000000pt" height="227.000000pt" viewBox="0 0 174.000000 227.000000"
 preserveAspectRatio="xMidYMid meet">
<metadata>
Created by potrace 1.14, written by Peter Selinger 2001-2017
</metadata>
<g transform="translate(0.000000,227.000000) scale(0.100000,-0.100000)"
fill="#000000" stroke="none">
<path fill="#000000" stroke="none" d="M652 2256 c-81 -11 -85 -12 -128 -59
-25 -26 -78 -70 -118 -97 -89 -59 -102 -91 -80 -187 8 -32 14 -76 14 -98 0
-22 7 -67 15 -100 8 -33 15 -97 15 -143 0 -94 13 -133 64 -195 27 -33 50 -48
99 -66 58 -20 67 -27 91 -71 23 -42 26 -59 26 -146 l0 -99 -58 107 -57 107
-70 26 c-45 16 -95 26 -139 28 l-69 2 -22 -56 c-13 -31 -36 -76 -52 -100 -25
-38 -28 -51 -25 -100 l4 -56 104 -33 c57 -19 104 -36 104 -39 0 -4 -25 -26
-55 -51 -30 -25 -75 -74 -100 -110 -42 -62 -50 -83 -124 -365 -44 -165 -83
-312 -86 -327 l-7 -28 836 0 c786 0 836 1 845 18 5 9 18 96 30 192 23 197 29
528 11 620 -6 30 -17 96 -24 145 -20 128 -58 204 -150 302 -68 72 -82 82 -136
97 l-60 17 -118 -36 c-66 -19 -121 -35 -124 -35 -3 0 -8 96 -12 213 -7 209
-27 423 -44 482 -13 43 -55 123 -90 170 -23 31 -43 45 -93 63 -70 24 -92 25
-217 8z"/>
</g>
</svg>
