<?xml version="1.0" standalone="no"?>
<!DOCTYPE svg PUBLIC "-//W3C//DTD SVG 20010904//EN"
 "http://www.w3.org/TR/2001/REC-SVG-20010904/DTD/svg10.dtd">
<svg version="1.0" xmlns="http://www.w3.org/2000/svg"
 width="118.000000pt" height="274.000000pt" viewBox="0 0 118.000000 274.000000"
 preserveAspectRatio="xMidYMid meet">
<metadata>
Created by potrace 1.14, written by Peter Selinger 2001-2017
</metadata>
<g transform="translate(0.000000,274.000000) scale(0.100000,-0.100000)"
fill="#000000" stroke="none">
<path fill="#000000" stroke="none" d="M454 2704 c-47 -32 -55 -43 -83 -118
-18 -47 -31 -101 -31 -127 0 -41 -4 -49 -63 -107 -40 -40 -73 -64 -95 -68
l-32 -6 0 -113 0 -113 39 -7 c22 -4 44 -12 49 -18 23 -30 47 -114 73 -252 l27
-150 -39 -180 c-22 -99 -45 -196 -51 -215 -15 -47 -12 -87 13 -195 l21 -91
-22 -37 -22 -36 -77 6 c-51 4 -80 2 -85 -5 -4 -7 -17 -7 -38 -1 -17 5 -32 8
-33 6 -1 -1 26 -189 61 -417 35 -228 63 -420 64 -426 1 -32 56 -36 370 -29
305 7 310 8 315 29 39 168 85 407 86 448 1 29 4 66 8 82 5 26 7 28 20 13 11
-14 33 -17 125 -17 l112 0 -16 146 c-16 141 -15 159 7 486 l23 339 -106 332
c-58 183 -110 336 -115 342 -5 5 -9 18 -9 30 0 37 -119 415 -139 444 -27 38
-112 61 -222 60 -79 0 -87 -2 -135 -35z"/>
</g>
</svg>
