<?xml version="1.0" standalone="no"?>
<!DOCTYPE svg PUBLIC "-//W3C//DTD SVG 20010904//EN"
 "http://www.w3.org/TR/2001/REC-SVG-20010904/DTD/svg10.dtd">
<svg version="1.0" xmlns="http://www.w3.org/2000/svg"
 width="65.000000pt" height="115.000000pt" viewBox="0 0 65.000000 115.000000"
 preserveAspectRatio="xMidYMid meet">
<metadata>
Created by potrace 1.14, written by Peter Selinger 2001-2017
</metadata>
<g transform="translate(0.000000,115.000000) scale(0.100000,-0.100000)"
fill="#000000" stroke="none">
<path fill="#000000" stroke="none" d="M193 1116 c-63 -26 -73 -33 -78 -60
-12 -58 -16 -66 -43 -81 -50 -27 -54 -32 -62 -101 -9 -74 4 -159 26 -168 7 -3
51 -8 98 -12 l84 -7 4 27 c3 26 4 26 56 -25 l53 -50 -34 -47 c-19 -26 -55 -77
-81 -114 l-47 -66 35 -12 c29 -9 38 -20 65 -85 17 -41 31 -78 31 -83 0 -4 -25
-32 -55 -62 -54 -53 -55 -55 -55 -112 0 -32 2 -58 5 -58 3 0 65 45 138 100
l133 99 46 93 c25 51 67 146 94 212 l48 119 -57 111 c-32 62 -84 144 -119 187
-56 66 -66 75 -88 69 -14 -4 -40 -10 -57 -13 l-33 -6 0 57 c-1 34 -8 69 -18
87 l-17 31 -72 -30z"/>
</g>
</svg>
