<?xml version="1.0" standalone="no"?>
<!DOCTYPE svg PUBLIC "-//W3C//DTD SVG 20010904//EN"
 "http://www.w3.org/TR/2001/REC-SVG-20010904/DTD/svg10.dtd">
<svg version="1.0" xmlns="http://www.w3.org/2000/svg"
 width="64.000000pt" height="30.000000pt" viewBox="0 0 64.000000 30.000000"
 preserveAspectRatio="xMidYMid meet">
<metadata>
Created by potrace 1.14, written by Peter Selinger 2001-2017
</metadata>
<g transform="translate(0.000000,30.000000) scale(0.100000,-0.100000)"
fill="#000000" stroke="none">
<path fill="#000000" stroke="none" d="M96 225 c-15 -42 -43 -106 -63 -141
-19 -36 -32 -68 -28 -72 7 -7 355 -17 355 -10 0 2 -4 18 -9 36 l-10 33 37 -22
c20 -13 44 -27 53 -33 17 -9 175 9 198 24 7 4 9 28 5 66 l-6 59 -232 63 c-127
34 -240 65 -252 68 -18 5 -24 -4 -48 -71z"/>
</g>
</svg>
