<?xml version="1.0" standalone="no"?>
<!DOCTYPE svg PUBLIC "-//W3C//DTD SVG 20010904//EN"
 "http://www.w3.org/TR/2001/REC-SVG-20010904/DTD/svg10.dtd">
<svg version="1.0" xmlns="http://www.w3.org/2000/svg"
 width="80.000000pt" height="185.000000pt" viewBox="0 0 80.000000 185.000000"
 preserveAspectRatio="xMidYMid meet">
<metadata>
Created by potrace 1.14, written by Peter Selinger 2001-2017
</metadata>
<g transform="translate(0.000000,185.000000) scale(0.100000,-0.100000)"
fill="#000000" stroke="none">
<path fill="#000000" stroke="none" d="M357 1825 c-74 -37 -77 -41 -77 -104 0
-40 6 -63 20 -81 19 -25 26 -82 14 -114 -3 -9 -18 -16 -33 -17 -33 -1 -104
-27 -159 -59 -33 -19 -45 -34 -53 -65 -56 -203 -66 -245 -55 -245 8 0 11 -12
8 -33 -3 -28 4 -42 41 -86 61 -71 71 -133 43 -276 -13 -66 -13 -71 5 -91 14
-15 26 -57 40 -139 11 -65 22 -122 25 -127 3 -4 7 -32 10 -61 2 -28 10 -79 17
-112 11 -54 15 -60 39 -63 27 -3 31 -15 40 -117 3 -29 5 -30 62 -33 l59 -3 -7
53 c-4 29 -9 68 -13 86 -5 28 -2 34 16 39 20 5 21 12 21 102 1 68 5 102 15
115 8 11 15 16 15 10 1 -29 39 -265 45 -273 3 -6 12 -11 20 -11 8 0 37 -5 65
-11 42 -9 51 -15 56 -37 14 -65 10 -62 91 -62 56 0 74 3 70 12 -21 56 -36 139
-40 223 -4 62 -19 155 -41 245 -41 170 -76 369 -76 430 l0 43 45 -42 c32 -29
53 -41 75 -41 36 0 37 7 12 136 -10 50 -15 102 -11 116 9 34 -62 201 -104 245
-17 18 -67 51 -111 74 -45 23 -83 43 -84 45 -2 1 -1 16 3 33 5 22 15 33 39 41
32 10 34 14 40 72 11 110 9 125 -26 163 -45 47 -95 54 -161 20z"/>
</g>
</svg>
