<?xml version="1.0" standalone="no"?>
<!DOCTYPE svg PUBLIC "-//W3C//DTD SVG 20010904//EN"
 "http://www.w3.org/TR/2001/REC-SVG-20010904/DTD/svg10.dtd">
<svg version="1.0" xmlns="http://www.w3.org/2000/svg"
 width="45.000000pt" height="27.000000pt" viewBox="0 0 45.000000 27.000000"
 preserveAspectRatio="xMidYMid meet">
<metadata>
Created by potrace 1.14, written by Peter Selinger 2001-2017
</metadata>
<g transform="translate(0.000000,27.000000) scale(0.100000,-0.100000)"
fill="#000000" stroke="none">
<path fill="#000000" stroke="none" d="M183 263 c-222 -4 -229 -11 -98 -87 47
-27 85 -52 85 -56 0 -4 -6 -28 -14 -54 -15 -50 -16 -49 32 -59 19 -4 21 -3 12
8 -13 16 6 49 59 99 l30 29 -4 -36 c-3 -21 -7 -53 -9 -72 l-5 -35 92 0 92 1
-43 39 -44 39 16 77 c21 99 20 115 -1 112 -10 -2 -100 -4 -200 -5z"/>
</g>
</svg>
