<?xml version="1.0" standalone="no"?>
<!DOCTYPE svg PUBLIC "-//W3C//DTD SVG 20010904//EN"
 "http://www.w3.org/TR/2001/REC-SVG-20010904/DTD/svg10.dtd">
<svg version="1.0" xmlns="http://www.w3.org/2000/svg"
 width="25.000000pt" height="67.000000pt" viewBox="0 0 25.000000 67.000000"
 preserveAspectRatio="xMidYMid meet">
<metadata>
Created by potrace 1.14, written by Peter Selinger 2001-2017
</metadata>
<g transform="translate(0.000000,67.000000) scale(0.100000,-0.100000)"
fill="#000000" stroke="none">
<path fill="#000000" stroke="none" d="M146 641 c-21 -21 -26 -34 -21 -54 6
-20 0 -30 -29 -53 -29 -23 -36 -36 -36 -63 0 -19 -6 -42 -14 -50 -13 -14 -13
-29 0 -112 l14 -96 -30 -73 c-17 -40 -30 -74 -30 -76 0 -2 12 -4 28 -4 23 0
32 9 57 55 16 30 32 55 36 55 20 0 49 -71 49 -119 l0 -51 33 0 33 0 -7 63 c-4
34 -15 82 -24 107 -31 85 -42 172 -33 260 4 45 5 86 2 91 -3 5 1 9 8 9 44 0
77 72 49 107 -27 35 -54 37 -85 4z"/>
</g>
</svg>
