<?xml version="1.0" standalone="no"?>
<!DOCTYPE svg PUBLIC "-//W3C//DTD SVG 20010904//EN"
 "http://www.w3.org/TR/2001/REC-SVG-20010904/DTD/svg10.dtd">
<svg version="1.0" xmlns="http://www.w3.org/2000/svg"
 width="415.000000pt" height="347.000000pt" viewBox="0 0 415.000000 347.000000"
 preserveAspectRatio="xMidYMid meet">
<metadata>
Created by potrace 1.14, written by Peter Selinger 2001-2017
</metadata>
<g transform="translate(0.000000,347.000000) scale(0.100000,-0.100000)"
fill="#000000" stroke="none">
<path fill="#000000" stroke="none" d="M1480 3461 l-115 -6 -130 -67 -130 -66
-156 -189 -155 -188 -33 -115 -33 -115 30 -100 c32 -109 34 -110 127 -119 42
-4 61 -9 110 -31 17 -7 56 -18 88 -25 l58 -13 49 -83 c28 -45 57 -102 66 -126
8 -23 28 -66 44 -95 25 -45 30 -64 30 -124 0 -44 10 -109 26 -172 19 -73 29
-141 34 -242 4 -82 12 -151 20 -167 9 -19 10 -31 3 -40 -12 -15 2 -136 18
-152 17 -19 9 -28 -21 -24 -26 4 -31 0 -44 -33 -9 -21 -25 -43 -37 -49 -11 -7
-121 -40 -243 -74 l-222 -63 -144 -95 c-201 -131 -209 -140 -253 -273 -20 -60
-39 -132 -43 -160 -8 -76 -24 -133 -60 -212 -29 -65 -38 -75 -87 -103 -30 -17
-58 -38 -61 -46 -5 -12 -18 -14 -73 -9 l-68 7 -38 -39 -38 -40 1553 -6 c854
-4 1789 -7 2077 -7 l524 0 -6 52 c-4 30 -38 127 -84 236 -75 180 -80 188 -153
265 -41 44 -138 139 -215 210 -132 121 -147 132 -265 188 l-124 60 -101 -11
c-59 -7 -129 -22 -172 -37 -65 -25 -74 -31 -102 -79 -18 -28 -62 -83 -99 -123
-62 -65 -76 -75 -174 -115 l-107 -44 -78 30 c-42 16 -112 52 -154 80 l-78 49
-45 135 -45 135 36 85 36 85 101 48 c73 35 114 62 148 97 l46 49 25 165 c14
91 28 188 32 217 l7 51 31 -10 c29 -11 33 -9 79 41 26 29 63 78 81 109 l33 57
-12 150 c-9 109 -23 190 -50 296 l-38 146 40 68 41 68 -34 90 c-19 49 -32 91
-30 94 3 2 35 -14 71 -36 36 -23 66 -38 66 -35 0 31 -43 156 -97 281 l-65 152
-176 59 -177 58 -100 -23 -99 -24 -123 51 -122 50 -153 -2 c-84 -1 -205 -4
-268 -7z"/>
</g>
</svg>
