<?xml version="1.0" standalone="no"?>
<!DOCTYPE svg PUBLIC "-//W3C//DTD SVG 20010904//EN"
 "http://www.w3.org/TR/2001/REC-SVG-20010904/DTD/svg10.dtd">
<svg version="1.0" xmlns="http://www.w3.org/2000/svg"
 width="500.000000pt" height="542.000000pt" viewBox="0 0 500.000000 542.000000"
 preserveAspectRatio="xMidYMid meet">
<metadata>
Created by potrace 1.14, written by Peter Selinger 2001-2017
</metadata>
<g transform="translate(0.000000,542.000000) scale(0.100000,-0.100000)"
fill="#000000" stroke="none">
<path fill="#000000" stroke="none" d="M2974 5374 l-132 -45 -108 -212 -107
-211 -54 -251 c-29 -137 -53 -253 -53 -256 0 -4 27 -18 60 -32 l60 -26 -21
-36 c-12 -19 -23 -35 -25 -35 -2 0 -127 -28 -277 -62 -224 -51 -294 -63 -395
-67 l-123 -6 -122 -209 -121 -209 -37 -381 c-75 -763 -151 -1273 -242 -1632
l-34 -130 -342 -423 c-320 -394 -346 -429 -397 -534 -97 -202 -76 -179 -179
-199 -49 -10 -113 -23 -142 -29 l-52 -10 -66 -156 c-40 -96 -62 -159 -55 -163
5 -3 232 -14 502 -24 271 -9 503 -19 514 -21 16 -4 134 80 465 330 325 245
445 330 446 317 2 -9 12 -134 23 -277 11 -143 23 -288 26 -323 l6 -62 459 0
459 0 129 259 130 258 -318 156 -319 155 -40 103 -40 102 25 39 c14 21 28 38
30 38 2 0 17 -7 33 -15 l29 -15 7 35 6 36 48 -68 c53 -75 95 -119 102 -106 3
4 -10 76 -28 158 -19 83 -34 155 -34 160 0 6 46 37 101 69 95 56 108 60 214
77 62 9 169 30 236 45 107 23 129 25 166 16 24 -7 67 -12 96 -12 l52 0 143
165 142 164 0 569 0 570 223 75 c219 75 225 76 412 97 242 26 305 40 394 85
72 36 73 37 112 118 38 80 39 84 33 160 l-7 77 -96 0 c-53 0 -137 9 -187 18
-100 20 -147 45 -246 128 -49 42 -108 73 -336 174 -419 187 -389 170 -465 255
l-68 75 20 112 c12 62 36 217 55 343 34 229 34 231 21 355 -12 113 -17 133
-50 192 -20 37 -41 71 -48 76 -7 6 -52 27 -102 47 -86 35 -277 75 -350 74 -16
0 -89 -21 -161 -45z"/>
</g>
</svg>
