<?xml version="1.0" standalone="no"?>
<!DOCTYPE svg PUBLIC "-//W3C//DTD SVG 20010904//EN"
 "http://www.w3.org/TR/2001/REC-SVG-20010904/DTD/svg10.dtd">
<svg version="1.0" xmlns="http://www.w3.org/2000/svg"
 width="255.000000pt" height="396.000000pt" viewBox="0 0 255.000000 396.000000"
 preserveAspectRatio="xMidYMid meet">
<metadata>
Created by potrace 1.14, written by Peter Selinger 2001-2017
</metadata>
<g transform="translate(0.000000,396.000000) scale(0.100000,-0.100000)"
fill="#000000" stroke="none">
<path fill="#000000" stroke="none" d="M936 3853 c-10 -60 -38 -204 -62 -322
-57 -271 -82 -573 -74 -886 4 -159 2 -213 -10 -264 l-16 -64 -35 49 c-55 76
-163 291 -183 365 -17 62 -25 73 -106 154 -72 72 -89 84 -93 69 -3 -11 -18
-93 -32 -184 -14 -91 -52 -311 -85 -490 -32 -179 -66 -372 -75 -430 -14 -90
-28 -130 -92 -274 -56 -128 -73 -175 -68 -195 4 -14 24 -59 46 -98 39 -70 42
-73 77 -73 20 0 44 5 52 10 11 7 8 10 -16 10 -17 0 -43 9 -58 21 -21 16 -26
29 -26 63 0 23 3 45 6 49 3 3 23 -5 43 -18 20 -13 63 -27 97 -32 60 -9 62 -9
99 23 l39 32 -40 17 c-21 9 -56 24 -77 32 -22 9 -44 28 -53 45 -9 16 -14 31
-12 33 2 2 21 -4 43 -12 22 -8 56 -16 75 -17 19 -2 52 -6 73 -11 56 -11 88 7
111 61 10 25 25 48 32 51 8 3 47 -2 89 -12 74 -16 75 -17 120 -78 25 -34 100
-111 166 -172 119 -108 179 -178 179 -210 0 -8 -14 -45 -30 -82 -23 -50 -52
-88 -125 -163 l-95 -96 0 -215 c0 -118 5 -247 10 -288 9 -68 14 -79 71 -156
34 -46 71 -86 83 -89 12 -3 60 -6 108 -6 l87 0 158 84 158 83 23 89 c25 98 31
163 20 209 -7 27 -3 33 40 67 l48 36 -7 69 c-4 37 -16 96 -27 131 -18 57 -19
73 -10 170 7 82 16 119 35 157 15 28 27 51 29 53 1 2 63 -6 138 -18 75 -12
143 -19 151 -16 9 3 15 18 15 39 0 33 1 33 61 43 l61 10 -6 -50 c-3 -28 -8
-82 -12 -121 -5 -51 -14 -82 -35 -116 -16 -25 -29 -50 -29 -56 0 -26 152 -97
264 -123 45 -10 50 -9 73 12 13 12 29 41 35 65 9 37 13 41 28 33 10 -6 21 -10
23 -10 2 0 30 68 62 150 l58 151 -37 136 c-41 149 -41 170 -6 293 46 158 60
299 45 455 -6 73 -37 231 -46 239 -2 2 -36 18 -76 35 l-72 31 -48 -51 c-26
-28 -56 -65 -65 -83 -9 -18 -23 -37 -30 -43 -13 -10 -95 -33 -119 -33 -8 0
-10 101 -5 413 l7 412 46 170 c26 94 76 310 113 480 65 302 66 310 46 313 -23
2 -1259 52 -1304 52 -28 0 -28 -1 -46 -107z"/>
</g>
</svg>
