<?xml version="1.0" standalone="no"?>
<!DOCTYPE svg PUBLIC "-//W3C//DTD SVG 20010904//EN"
 "http://www.w3.org/TR/2001/REC-SVG-20010904/DTD/svg10.dtd">
<svg version="1.0" xmlns="http://www.w3.org/2000/svg"
 width="99.000000pt" height="152.000000pt" viewBox="0 0 99.000000 152.000000"
 preserveAspectRatio="xMidYMid meet">
<metadata>
Created by potrace 1.14, written by Peter Selinger 2001-2017
</metadata>
<g transform="translate(0.000000,152.000000) scale(0.100000,-0.100000)"
fill="#000000" stroke="none">
<path fill="#000000" stroke="none" d="M560 1444 c-52 -42 -104 -82 -114 -90
-19 -13 -19 -16 13 -171 34 -170 33 -167 120 -234 l33 -26 -140 -221 c-99
-156 -139 -227 -135 -242 4 -14 -9 -35 -46 -76 -28 -30 -51 -62 -51 -69 0 -8
-15 -17 -34 -20 -46 -9 -113 -81 -165 -178 -23 -44 -41 -80 -39 -82 7 -6 109
-37 112 -34 1 2 15 25 30 52 30 53 39 55 126 32 30 -8 60 -15 65 -15 6 0 80
76 165 169 85 93 158 170 161 170 3 1 33 -63 67 -141 33 -78 63 -136 66 -128
2 8 48 239 101 514 107 545 104 509 32 521 -53 9 -66 35 -80 156 l-12 104 -80
42 c-44 23 -84 42 -90 42 -5 0 -53 -34 -105 -75z"/>
<path fill="#ffffff" stroke="none" d="M823 1242 c19 -21 14 -53 -16 -96 -17
-24 -21 -26 -29 -12 -17 31 -31 17 -25 -25 5 -37 4 -39 -11 -26 -10 8 -25 17
-35 21 -17 6 -16 10 13 64 54 95 72 108 103 74z"/>
<path fill="#ffffff" stroke="none" d="M696 1049 c19 -22 19 -22 -3 -10 -24
12 -39 31 -25 31 5 0 17 -10 28 -21z"/>
</g>
</svg>
