<?xml version="1.0" standalone="no"?>
<!DOCTYPE svg PUBLIC "-//W3C//DTD SVG 20010904//EN"
 "http://www.w3.org/TR/2001/REC-SVG-20010904/DTD/svg10.dtd">
<svg version="1.0" xmlns="http://www.w3.org/2000/svg"
 width="186.000000pt" height="210.000000pt" viewBox="0 0 186.000000 210.000000"
 preserveAspectRatio="xMidYMid meet">
<metadata>
Created by potrace 1.14, written by Peter Selinger 2001-2017
</metadata>
<g transform="translate(0.000000,210.000000) scale(0.100000,-0.100000)"
fill="#000000" stroke="none">
<path fill="#000000" stroke="none" d="M1024 2090 c-23 -5 -73 -24 -110 -43
-91 -46 -165 -136 -211 -257 -38 -100 -39 -106 -14 -147 11 -17 23 -47 26 -66
l7 -34 -104 -38 c-57 -21 -141 -56 -188 -77 -84 -39 -85 -40 -138 -124 -37
-60 -56 -104 -67 -152 -7 -37 -25 -103 -39 -147 -14 -44 -36 -124 -50 -178
-20 -82 -32 -108 -69 -155 -24 -31 -50 -73 -57 -93 -12 -33 -10 -43 19 -123
17 -48 31 -97 31 -110 0 -12 11 -60 25 -106 14 -46 25 -97 25 -114 0 -16 6
-45 12 -64 l13 -35 208 6 c115 3 211 8 214 11 3 3 -13 28 -37 56 l-42 50 37 0
c24 0 55 11 86 29 70 44 121 54 219 47 83 -6 195 -28 207 -39 3 -4 -6 -40 -20
-82 l-25 -75 37 0 c20 0 105 -8 188 -17 84 -9 155 -15 157 -12 2 2 12 60 21
129 13 97 23 136 45 175 15 28 40 93 55 145 15 52 30 100 32 106 2 6 -26 36
-62 66 -60 50 -73 57 -139 68 -99 17 -99 17 -82 76 8 27 18 80 22 117 6 66 7
68 32 65 20 -2 29 -11 36 -36 5 -20 26 -47 51 -68 40 -33 45 -34 126 -34 68 0
97 5 163 30 45 17 98 45 119 63 32 28 40 43 56 109 l18 77 -28 50 c-39 73 -97
149 -117 155 -9 3 -38 8 -64 12 -33 4 -66 19 -105 47 -70 50 -70 49 -78 109
-6 39 -15 57 -51 93 l-44 46 27 42 c26 41 26 43 15 133 -16 138 -46 176 -225
283 -69 42 -88 45 -163 31z"/>
</g>
</svg>
