<?xml version="1.0" standalone="no"?>
<!DOCTYPE svg PUBLIC "-//W3C//DTD SVG 20010904//EN"
 "http://www.w3.org/TR/2001/REC-SVG-20010904/DTD/svg10.dtd">
<svg version="1.0" xmlns="http://www.w3.org/2000/svg"
 width="78.000000pt" height="192.000000pt" viewBox="0 0 78.000000 192.000000"
 preserveAspectRatio="xMidYMid meet">
<metadata>
Created by potrace 1.14, written by Peter Selinger 2001-2017
</metadata>
<g transform="translate(0.000000,192.000000) scale(0.100000,-0.100000)"
fill="#000000" stroke="none">
<path fill="#000000" stroke="none" d="M280 1906 l-75 -11 -26 -69 c-25 -64
-26 -72 -14 -120 7 -28 16 -74 19 -103 l6 -51 -67 -39 -68 -39 4 -144 c4 -161
7 -172 75 -278 l46 -73 -57 -195 -56 -196 26 -186 c15 -103 27 -193 27 -200 0
-7 -22 -37 -48 -65 -86 -93 -87 -87 16 -87 l90 0 36 45 37 45 -20 82 c-12 46
-21 114 -21 156 0 67 -1 72 -16 58 -28 -29 -84 -14 -84 22 0 30 72 178 96 198
14 11 44 63 67 114 43 96 67 123 67 76 0 -32 11 -33 57 -1 20 13 38 23 40 21
2 -2 -3 -42 -10 -89 l-14 -86 37 -113 c21 -62 59 -165 85 -228 44 -107 46
-119 40 -175 -3 -32 -13 -75 -22 -95 -36 -84 -36 -79 5 -74 20 3 78 14 128 25
l91 20 -39 99 c-21 55 -42 131 -47 169 -5 39 -28 127 -51 196 l-42 127 14 132
c9 79 11 143 6 161 -4 16 -8 104 -8 195 l0 165 -53 96 c-35 65 -67 109 -98
136 l-46 39 44 78 c41 74 42 80 33 123 -13 57 -86 154 -115 152 -11 -1 -54 -6
-95 -13z"/>
</g>
</svg>
