<?xml version="1.0" standalone="no"?>
<!DOCTYPE svg PUBLIC "-//W3C//DTD SVG 20010904//EN"
 "http://www.w3.org/TR/2001/REC-SVG-20010904/DTD/svg10.dtd">
<svg version="1.0" xmlns="http://www.w3.org/2000/svg"
 width="59.000000pt" height="165.000000pt" viewBox="0 0 59.000000 165.000000"
 preserveAspectRatio="xMidYMid meet">
<metadata>
Created by potrace 1.14, written by Peter Selinger 2001-2017
</metadata>
<g transform="translate(0.000000,165.000000) scale(0.100000,-0.100000)"
fill="#000000" stroke="none">
<path fill="#000000" stroke="none" d="M270 1621 c-13 -33 -49 -68 -105 -104
-22 -14 -56 -38 -75 -55 -34 -29 -34 -29 -21 -73 7 -24 24 -68 38 -97 19 -40
24 -61 19 -90 -3 -20 -8 -140 -12 -267 -3 -126 -8 -233 -10 -237 -3 -4 0 -36
6 -71 8 -45 8 -76 1 -103 -5 -21 -15 -85 -20 -141 -9 -82 -18 -118 -51 -195
-40 -90 -40 -93 -22 -108 11 -9 38 -22 60 -29 76 -25 79 -21 146 278 33 144
63 258 66 254 4 -5 20 -57 35 -118 21 -85 26 -123 21 -167 -3 -32 -9 -85 -12
-117 -4 -32 -3 -80 0 -106 7 -41 12 -48 41 -61 19 -8 59 -14 90 -14 l55 0 0
149 c0 95 -6 179 -16 232 -17 87 -15 229 4 252 5 7 12 42 16 79 5 52 3 75 -9
97 -11 22 -15 62 -15 151 0 114 1 121 19 115 10 -3 31 -1 46 5 26 10 27 13 22
63 -9 82 -22 150 -35 174 -7 12 -33 34 -58 49 -34 20 -43 31 -38 43 22 50 11
117 -27 172 -15 21 -113 69 -141 69 -3 0 -11 -13 -18 -29z"/>
</g>
</svg>
