<?xml version="1.0" standalone="no"?>
<!DOCTYPE svg PUBLIC "-//W3C//DTD SVG 20010904//EN"
 "http://www.w3.org/TR/2001/REC-SVG-20010904/DTD/svg10.dtd">
<svg version="1.0" xmlns="http://www.w3.org/2000/svg"
 width="80.000000pt" height="78.000000pt" viewBox="0 0 80.000000 78.000000"
 preserveAspectRatio="xMidYMid meet">
<metadata>
Created by potrace 1.14, written by Peter Selinger 2001-2017
</metadata>
<g transform="translate(0.000000,78.000000) scale(0.100000,-0.100000)"
fill="#000000" stroke="none">
<path fill="#000000" stroke="none" d="M209 713 c-12 -56 -12 -80 -2 -138 19
-110 21 -105 -42 -105 l-55 0 -26 -52 c-40 -79 -84 -251 -84 -329 0 -65 1 -67
30 -79 30 -12 32 -11 67 30 l37 43 22 -29 c22 -27 27 -28 141 -35 65 -4 139
-8 165 -8 l46 -1 11 48 c20 79 24 80 67 8 21 -36 44 -66 52 -66 7 0 25 6 41
14 36 19 51 84 51 227 0 102 2 114 36 195 30 72 35 95 29 130 -3 24 -10 46
-14 49 -5 2 -21 -20 -37 -49 -25 -47 -31 -53 -47 -44 -35 19 -42 -5 -47 -175
-3 -89 -8 -153 -12 -142 -4 11 -25 72 -47 135 l-40 115 -45 14 -46 15 0 107
c0 59 -3 115 -6 124 -11 28 -110 65 -174 65 l-57 0 -14 -67z"/>
<path fill="#ffffff" stroke="none" d="M255 580 c-14 -16 -20 -17 -26 -8 -5 8
-2 16 9 20 30 12 35 8 17 -12z"/>
<path fill="#ffffff" stroke="none" d="M260 538 c-13 -13 -19 -16 -15 -8 14
25 28 41 32 36 3 -3 -5 -15 -17 -28z"/>
</g>
</svg>
