<?xml version="1.0" standalone="no"?>
<!DOCTYPE svg PUBLIC "-//W3C//DTD SVG 20010904//EN"
 "http://www.w3.org/TR/2001/REC-SVG-20010904/DTD/svg10.dtd">
<svg version="1.0" xmlns="http://www.w3.org/2000/svg"
 width="53.000000pt" height="76.000000pt" viewBox="0 0 53.000000 76.000000"
 preserveAspectRatio="xMidYMid meet">
<metadata>
Created by potrace 1.14, written by Peter Selinger 2001-2017
</metadata>
<g transform="translate(0.000000,76.000000) scale(0.100000,-0.100000)"
fill="#000000" stroke="none">
<path fill="#000000" stroke="none" d="M110 740 c-25 -25 -25 -23 1 -95 l20
-59 -50 -45 c-94 -87 -101 -137 -41 -298 23 -59 45 -112 50 -117 6 -6 1 -19
-15 -36 -26 -27 -50 -90 -35 -90 4 0 31 16 59 35 29 19 70 44 91 56 45 26 49
38 20 64 -11 10 -20 21 -20 25 0 3 20 16 45 28 33 16 64 22 114 22 90 0 102
-12 110 -112 1 -5 16 -8 35 -8 l34 0 -20 93 c-26 123 -103 346 -125 362 -9 7
-37 15 -61 18 -23 2 -46 7 -49 11 -3 3 2 25 11 49 17 45 20 75 10 101 -5 13
-22 16 -85 16 -66 0 -82 -3 -99 -20z"/>
</g>
</svg>
