<?xml version="1.0" standalone="no"?>
<!DOCTYPE svg PUBLIC "-//W3C//DTD SVG 20010904//EN"
 "http://www.w3.org/TR/2001/REC-SVG-20010904/DTD/svg10.dtd">
<svg version="1.0" xmlns="http://www.w3.org/2000/svg"
 width="13.000000pt" height="21.000000pt" viewBox="0 0 13.000000 21.000000"
 preserveAspectRatio="xMidYMid meet">
<metadata>
Created by potrace 1.14, written by Peter Selinger 2001-2017
</metadata>
<g transform="translate(0.000000,21.000000) scale(0.100000,-0.100000)"
fill="#000000" stroke="none">
<path fill="#000000" stroke="none" d="M75 191 c-3 -10 -18 -21 -34 -24 -23
-5 -30 -13 -35 -42 -10 -49 3 -125 20 -125 10 0 12 8 8 29 -6 29 9 71 26 71 5
0 12 -11 15 -25 3 -14 7 -36 10 -50 4 -16 12 -25 25 -25 18 0 18 2 3 47 -13
37 -14 52 -4 78 15 44 14 72 -5 79 -22 8 -22 8 -29 -13z"/>
</g>
</svg>
