<?xml version="1.0" standalone="no"?>
<!DOCTYPE svg PUBLIC "-//W3C//DTD SVG 20010904//EN"
 "http://www.w3.org/TR/2001/REC-SVG-20010904/DTD/svg10.dtd">
<svg version="1.0" xmlns="http://www.w3.org/2000/svg"
 width="20.000000pt" height="70.000000pt" viewBox="0 0 20.000000 70.000000"
 preserveAspectRatio="xMidYMid meet">
<metadata>
Created by potrace 1.14, written by Peter Selinger 2001-2017
</metadata>
<g transform="translate(0.000000,70.000000) scale(0.100000,-0.100000)"
fill="#000000" stroke="none">
<path fill="#000000" stroke="none" d="M64 690 c-26 -10 -64 -62 -64 -87 0
-10 7 -50 15 -88 8 -39 15 -88 15 -110 0 -26 13 -68 36 -115 l35 -75 -7 -109
-7 -109 26 7 c82 20 103 41 51 51 -21 4 -34 11 -31 18 6 16 24 124 37 222 9
68 8 97 -9 195 -13 73 -17 116 -11 120 6 4 14 20 19 38 9 28 7 31 -21 41 -36
13 -55 13 -84 1z"/>
</g>
</svg>
