<?xml version="1.0" standalone="no"?>
<!DOCTYPE svg PUBLIC "-//W3C//DTD SVG 20010904//EN"
 "http://www.w3.org/TR/2001/REC-SVG-20010904/DTD/svg10.dtd">
<svg version="1.0" xmlns="http://www.w3.org/2000/svg"
 width="78.000000pt" height="259.000000pt" viewBox="0 0 78.000000 259.000000"
 preserveAspectRatio="xMidYMid meet">
<metadata>
Created by potrace 1.14, written by Peter Selinger 2001-2017
</metadata>
<g transform="translate(0.000000,259.000000) scale(0.100000,-0.100000)"
fill="#000000" stroke="none">
<path fill="#000000" stroke="none" d="M245 2574 c-36 -13 -43 -21 -64 -74
-22 -54 -23 -70 -18 -159 l6 -99 -44 -18 -43 -19 -41 -150 c-52 -191 -55 -287
-15 -392 28 -74 50 -216 84 -553 17 -164 20 -236 15 -358 -5 -102 -4 -152 3
-152 6 0 49 9 97 21 91 21 125 21 54 0 -22 -7 -39 -14 -36 -17 5 -5 412 82
442 95 18 7 24 30 44 152 l23 144 -22 150 c-17 116 -20 173 -15 259 3 61 8
144 10 185 2 41 16 123 30 183 27 105 27 113 17 238 l-11 130 -52 60 -52 60
-73 0 -72 0 -31 42 c-26 35 -31 51 -31 98 0 47 -5 63 -30 97 -36 49 -92 93
-117 92 -10 0 -36 -7 -58 -15z"/>
<path fill="#000000" stroke="none" d="M580 661 l-105 -27 -3 -157 c-2 -154
-2 -159 23 -202 16 -27 29 -67 32 -102 11 -105 33 -125 171 -157 54 -12 64
-12 69 -1 3 8 -4 65 -14 127 -16 99 -17 120 -6 168 12 49 11 73 -9 218 -18
130 -25 162 -38 161 -8 0 -62 -13 -120 -28z"/>
</g>
</svg>
