<?xml version="1.0" standalone="no"?>
<!DOCTYPE svg PUBLIC "-//W3C//DTD SVG 20010904//EN"
 "http://www.w3.org/TR/2001/REC-SVG-20010904/DTD/svg10.dtd">
<svg version="1.0" xmlns="http://www.w3.org/2000/svg"
 width="27.000000pt" height="47.000000pt" viewBox="0 0 27.000000 47.000000"
 preserveAspectRatio="xMidYMid meet">
<metadata>
Created by potrace 1.14, written by Peter Selinger 2001-2017
</metadata>
<g transform="translate(0.000000,47.000000) scale(0.100000,-0.100000)"
fill="#000000" stroke="none">
<path fill="#000000" stroke="none" d="M49 431 c-9 -30 -9 -47 0 -72 11 -31 9
-35 -18 -63 l-30 -29 41 -43 c29 -30 48 -64 67 -120 l26 -78 54 -12 53 -12 13
33 c10 23 12 58 8 124 -6 85 -9 95 -39 134 -22 27 -34 53 -34 73 0 17 -7 48
-15 68 -15 34 -17 36 -65 36 -49 0 -49 0 -61 -39z"/>
</g>
</svg>
