<?xml version="1.0" standalone="no"?>
<!DOCTYPE svg PUBLIC "-//W3C//DTD SVG 20010904//EN"
 "http://www.w3.org/TR/2001/REC-SVG-20010904/DTD/svg10.dtd">
<svg version="1.0" xmlns="http://www.w3.org/2000/svg"
 width="87.000000pt" height="118.000000pt" viewBox="0 0 87.000000 118.000000"
 preserveAspectRatio="xMidYMid meet">
<metadata>
Created by potrace 1.14, written by Peter Selinger 2001-2017
</metadata>
<g transform="translate(0.000000,118.000000) scale(0.100000,-0.100000)"
fill="#000000" stroke="none">
<path fill="#000000" stroke="none" d="M180 1166 c-14 -8 -35 -28 -48 -45 -16
-22 -31 -31 -51 -31 -70 0 -77 -22 -30 -95 21 -33 29 -57 26 -74 -3 -14 -1
-35 3 -46 8 -18 9 -18 10 5 1 23 2 23 10 5 16 -38 12 -83 -9 -90 -24 -7 -91
-80 -91 -98 0 -7 14 -48 31 -92 17 -44 39 -125 50 -181 19 -100 19 -101 -1
-159 -11 -32 -20 -82 -20 -112 0 -38 -8 -69 -25 -103 -14 -28 -24 -50 -23 -50
2 0 170 45 373 99 369 98 370 99 376 127 13 60 12 62 -38 70 -66 9 -69 12 -35
48 27 29 30 41 47 176 10 87 25 160 36 182 10 20 21 51 24 70 4 23 17 41 41
57 28 20 34 30 34 60 0 58 -44 85 -194 121 -127 31 -216 38 -216 19 0 -5 4 -7
10 -4 13 8 68 -54 76 -85 4 -14 13 -35 20 -47 12 -19 12 -22 -5 -28 -15 -5
-18 -13 -13 -50 4 -42 3 -45 -18 -45 -13 0 -30 -6 -39 -14 -9 -8 -29 -26 -44
-40 -24 -22 -31 -24 -47 -13 -26 15 -26 59 -1 95 39 55 33 164 -10 177 -9 3
-20 12 -22 20 -7 17 21 29 38 15 13 -11 25 -3 25 17 0 8 -12 13 -30 13 -29 0
-30 1 -30 49 0 42 -4 51 -26 66 -36 23 -132 30 -164 11z"/>
</g>
</svg>
