<?xml version="1.0" standalone="no"?>
<!DOCTYPE svg PUBLIC "-//W3C//DTD SVG 20010904//EN"
 "http://www.w3.org/TR/2001/REC-SVG-20010904/DTD/svg10.dtd">
<svg version="1.0" xmlns="http://www.w3.org/2000/svg"
 width="21.000000pt" height="56.000000pt" viewBox="0 0 21.000000 56.000000"
 preserveAspectRatio="xMidYMid meet">
<metadata>
Created by potrace 1.14, written by Peter Selinger 2001-2017
</metadata>
<g transform="translate(0.000000,56.000000) scale(0.100000,-0.100000)"
fill="#000000" stroke="none">
<path fill="#000000" stroke="none" d="M67 545 c-9 -8 -18 -28 -22 -44 -3 -16
-12 -35 -20 -41 -23 -19 -29 -130 -11 -213 9 -40 21 -109 25 -152 5 -45 15
-81 23 -86 24 -16 43 -5 44 26 3 108 5 120 15 103 5 -10 13 -40 16 -68 5 -42
10 -51 29 -56 33 -8 49 4 31 24 -8 10 -17 36 -20 59 -3 23 -14 55 -26 72 -26
36 -26 62 0 164 15 61 18 86 10 104 -6 13 -16 23 -22 23 -7 0 -4 11 6 27 14
20 15 28 5 31 -7 3 -20 13 -28 23 -20 23 -36 24 -55 4z"/>
</g>
</svg>
