<?xml version="1.0" standalone="no"?>
<!DOCTYPE svg PUBLIC "-//W3C//DTD SVG 20010904//EN"
 "http://www.w3.org/TR/2001/REC-SVG-20010904/DTD/svg10.dtd">
<svg version="1.0" xmlns="http://www.w3.org/2000/svg"
 width="35.000000pt" height="52.000000pt" viewBox="0 0 35.000000 52.000000"
 preserveAspectRatio="xMidYMid meet">
<metadata>
Created by potrace 1.14, written by Peter Selinger 2001-2017
</metadata>
<g transform="translate(0.000000,52.000000) scale(0.100000,-0.100000)"
fill="#000000" stroke="none">
<path fill="#000000" stroke="none" d="M110 502 c-26 -13 -37 -27 -46 -57 -10
-38 -9 -42 27 -90 36 -49 37 -52 40 -150 l4 -100 -68 -14 c-58 -12 -67 -17
-67 -36 0 -11 6 -29 12 -38 12 -16 21 -16 154 -1 l142 17 16 34 c24 51 29 104
16 167 -10 48 -21 67 -69 119 -32 34 -63 77 -70 96 -11 33 -38 71 -50 71 -3 0
-22 -8 -41 -18z"/>
</g>
</svg>
