<?xml version="1.0" standalone="no"?>
<!DOCTYPE svg PUBLIC "-//W3C//DTD SVG 20010904//EN"
 "http://www.w3.org/TR/2001/REC-SVG-20010904/DTD/svg10.dtd">
<svg version="1.0" xmlns="http://www.w3.org/2000/svg"
 width="22.000000pt" height="209.000000pt" viewBox="0 0 22.000000 209.000000"
 preserveAspectRatio="xMidYMid meet">
<metadata>
Created by potrace 1.14, written by Peter Selinger 2001-2017
</metadata>
<g transform="translate(0.000000,209.000000) scale(0.100000,-0.100000)"
fill="#000000" stroke="none">
<path fill="#000000" stroke="none" d="M0 1948 c1 -335 29 -1940 33 -1945 16
-15 57 172 67 302 6 77 22 241 36 364 17 158 24 280 24 410 -1 156 5 223 32
417 l32 230 -19 140 c-10 76 -22 145 -28 152 -5 6 -20 12 -34 12 -13 0 -50 14
-83 30 l-60 30 0 -142z"/>
</g>
</svg>
