<?xml version="1.0" standalone="no"?>
<!DOCTYPE svg PUBLIC "-//W3C//DTD SVG 20010904//EN"
 "http://www.w3.org/TR/2001/REC-SVG-20010904/DTD/svg10.dtd">
<svg version="1.0" xmlns="http://www.w3.org/2000/svg"
 width="13.000000pt" height="10.000000pt" viewBox="0 0 13.000000 10.000000"
 preserveAspectRatio="xMidYMid meet">
<metadata>
Created by potrace 1.14, written by Peter Selinger 2001-2017
</metadata>
<g transform="translate(0.000000,10.000000) scale(0.100000,-0.100000)"
fill="#000000" stroke="none">
<path fill="#000000" stroke="none" d="M21 91 c-10 -7 -10 -13 -2 -30 10 -17
9 -21 -4 -21 -8 0 -15 -6 -15 -14 0 -19 29 -29 36 -13 3 9 16 12 34 9 18 -3
30 0 30 7 0 6 7 11 15 11 18 0 20 16 3 23 -7 3 -29 12 -49 20 -20 9 -41 12
-48 8z"/>
</g>
</svg>
