<?xml version="1.0" standalone="no"?>
<!DOCTYPE svg PUBLIC "-//W3C//DTD SVG 20010904//EN"
 "http://www.w3.org/TR/2001/REC-SVG-20010904/DTD/svg10.dtd">
<svg version="1.0" xmlns="http://www.w3.org/2000/svg"
 width="18.000000pt" height="45.000000pt" viewBox="0 0 18.000000 45.000000"
 preserveAspectRatio="xMidYMid meet">
<metadata>
Created by potrace 1.14, written by Peter Selinger 2001-2017
</metadata>
<g transform="translate(0.000000,45.000000) scale(0.100000,-0.100000)"
fill="#000000" stroke="none">
<path fill="#000000" stroke="none" d="M73 443 c-7 -2 -13 -16 -13 -29 0 -14
-10 -38 -22 -54 -33 -46 -51 -180 -23 -180 8 0 15 -7 15 -15 0 -8 5 -15 11
-15 6 0 8 -9 4 -20 -3 -11 -3 -40 0 -64 5 -33 13 -46 31 -55 14 -6 26 -11 28
-11 2 0 6 26 10 59 4 32 13 67 21 77 8 10 15 36 15 57 0 24 5 37 14 37 20 0 9
98 -15 132 -10 15 -19 35 -19 46 0 32 -26 48 -57 35z"/>
</g>
</svg>
