<?xml version="1.0" standalone="no"?>
<!DOCTYPE svg PUBLIC "-//W3C//DTD SVG 20010904//EN"
 "http://www.w3.org/TR/2001/REC-SVG-20010904/DTD/svg10.dtd">
<svg version="1.0" xmlns="http://www.w3.org/2000/svg"
 width="48.000000pt" height="125.000000pt" viewBox="0 0 48.000000 125.000000"
 preserveAspectRatio="xMidYMid meet">
<metadata>
Created by potrace 1.14, written by Peter Selinger 2001-2017
</metadata>
<g transform="translate(0.000000,125.000000) scale(0.100000,-0.100000)"
fill="#000000" stroke="none">
<path fill="#000000" stroke="none" d="M144 1238 c-12 -5 -25 -23 -28 -39 -4
-20 -14 -33 -32 -40 l-27 -10 31 -32 c34 -36 32 -47 -16 -100 -21 -22 -28 -42
-34 -100 -4 -39 -14 -112 -21 -162 -10 -74 -10 -103 0 -160 7 -38 15 -74 17
-80 7 -22 46 77 46 117 0 42 13 78 24 67 8 -8 35 -597 29 -640 l-5 -36 49 -7
c26 -4 61 -9 77 -13 23 -4 28 -2 23 9 -3 8 -15 93 -28 190 -20 157 -21 182 -9
238 18 84 23 70 55 -165 31 -233 33 -244 46 -224 14 22 11 113 -7 189 -12 53
-13 77 -5 107 6 21 11 52 11 69 0 17 18 75 40 129 39 97 74 150 91 139 5 -3 9
-2 9 3 0 14 -88 331 -95 343 -3 5 -40 30 -81 54 l-75 43 46 13 46 13 -33 29
c-34 29 -101 69 -115 67 -4 0 -18 -5 -29 -11z"/>
</g>
</svg>
