<?xml version="1.0" standalone="no"?>
<!DOCTYPE svg PUBLIC "-//W3C//DTD SVG 20010904//EN"
 "http://www.w3.org/TR/2001/REC-SVG-20010904/DTD/svg10.dtd">
<svg version="1.0" xmlns="http://www.w3.org/2000/svg"
 width="57.000000pt" height="92.000000pt" viewBox="0 0 57.000000 92.000000"
 preserveAspectRatio="xMidYMid meet">
<metadata>
Created by potrace 1.14, written by Peter Selinger 2001-2017
</metadata>
<g transform="translate(0.000000,92.000000) scale(0.100000,-0.100000)"
fill="#000000" stroke="none">
<path fill="#000000" stroke="none" d="M221 875 c-38 -42 -41 -48 -41 -104 0
-49 -3 -61 -22 -73 -16 -10 -23 -28 -27 -63 l-6 -49 -62 -14 -63 -13 0 -85 0
-84 30 0 c26 0 36 9 70 62 38 58 40 65 40 140 0 83 7 92 46 64 17 -13 19 -27
19 -160 l0 -146 25 0 c59 -1 131 -28 193 -70 60 -41 65 -48 71 -89 6 -43 5
-46 -54 -107 -87 -91 -83 -102 23 -54 59 27 68 35 87 77 l21 47 -27 163 -27
163 -36 10 c-20 5 -41 10 -46 10 -6 0 -20 29 -32 64 -19 59 -19 67 -5 87 32
46 40 98 23 156 -13 50 -20 58 -65 84 -28 16 -61 29 -72 29 -13 0 -39 -19 -63
-45z"/>
</g>
</svg>
