<?xml version="1.0" standalone="no"?>
<!DOCTYPE svg PUBLIC "-//W3C//DTD SVG 20010904//EN"
 "http://www.w3.org/TR/2001/REC-SVG-20010904/DTD/svg10.dtd">
<svg version="1.0" xmlns="http://www.w3.org/2000/svg"
 width="25.000000pt" height="36.000000pt" viewBox="0 0 25.000000 36.000000"
 preserveAspectRatio="xMidYMid meet">
<metadata>
Created by potrace 1.14, written by Peter Selinger 2001-2017
</metadata>
<g transform="translate(0.000000,36.000000) scale(0.100000,-0.100000)"
fill="#000000" stroke="none">
<path fill="#000000" stroke="none" d="M12 340 c-10 -16 -9 -44 3 -142 8 -67
15 -123 15 -124 0 -4 128 -74 134 -74 3 0 15 18 26 39 11 22 29 42 40 46 16 5
20 15 20 46 0 43 -8 47 -68 30 l-32 -10 0 73 0 72 -42 32 c-48 37 -78 41 -96
12z"/>
</g>
</svg>
