<?xml version="1.0" standalone="no"?>
<!DOCTYPE svg PUBLIC "-//W3C//DTD SVG 20010904//EN"
 "http://www.w3.org/TR/2001/REC-SVG-20010904/DTD/svg10.dtd">
<svg version="1.0" xmlns="http://www.w3.org/2000/svg"
 width="192.000000pt" height="265.000000pt" viewBox="0 0 192.000000 265.000000"
 preserveAspectRatio="xMidYMid meet">
<metadata>
Created by potrace 1.14, written by Peter Selinger 2001-2017
</metadata>
<g transform="translate(0.000000,265.000000) scale(0.100000,-0.100000)"
fill="#000000" stroke="none">
<path fill="#000000" stroke="none" d="M77 2643 c-19 -19 -5 -78 29 -125 20
-27 63 -108 95 -181 45 -101 59 -143 59 -180 l0 -48 -60 -26 -61 -26 -65 -126
-64 -126 2 -90 c2 -49 -1 -105 -5 -122 l-9 -33 40 0 c56 0 298 -107 383 -170
l66 -48 13 -135 c9 -96 10 -173 4 -271 l-9 -137 30 -18 c136 -81 285 -251 382
-435 64 -122 72 -131 140 -183 l73 -55 262 -54 263 -53 22 27 c12 15 22 30 23
33 0 3 44 0 98 -7 143 -19 132 -23 132 40 0 48 -3 55 -23 61 -20 7 -277 132
-285 139 -1 2 -7 18 -12 36 l-9 33 77 -6 c42 -4 117 -1 165 5 l88 11 -25 26
c-31 33 -32 35 -4 74 22 30 22 37 26 446 l3 416 -85 316 -85 316 -76 120 c-41
66 -86 125 -98 132 -12 6 -81 31 -153 55 -128 43 -134 46 -238 132 -86 70
-115 102 -143 152 -28 51 -33 65 -23 77 11 13 -45 15 -462 15 -261 0 -478 -3
-481 -7z"/>
</g>
</svg>
