<?xml version="1.0" standalone="no"?>
<!DOCTYPE svg PUBLIC "-//W3C//DTD SVG 20010904//EN"
 "http://www.w3.org/TR/2001/REC-SVG-20010904/DTD/svg10.dtd">
<svg version="1.0" xmlns="http://www.w3.org/2000/svg"
 width="81.000000pt" height="122.000000pt" viewBox="0 0 81.000000 122.000000"
 preserveAspectRatio="xMidYMid meet">
<metadata>
Created by potrace 1.14, written by Peter Selinger 2001-2017
</metadata>
<g transform="translate(0.000000,122.000000) scale(0.100000,-0.100000)"
fill="#000000" stroke="none">
<path fill="#000000" stroke="none" d="M554 1201 c-17 -10 -39 -36 -49 -57
-16 -35 -17 -48 -6 -153 7 -64 15 -140 18 -168 3 -33 1 -53 -5 -53 -40 0 -171
-24 -193 -35 -33 -18 -54 -50 -69 -106 -7 -24 -19 -59 -27 -76 -14 -29 -20
-33 -57 -33 -23 0 -55 -9 -73 -19 -28 -18 -32 -26 -38 -85 -4 -36 -12 -66 -17
-66 -5 0 -7 -8 -4 -18 4 -10 -1 -33 -10 -52 -9 -18 -19 -63 -22 -100 -8 -119
41 -180 147 -180 49 0 57 3 91 38 27 26 40 50 44 77 4 22 14 62 22 88 9 27 14
61 10 77 -5 30 -5 30 39 30 62 0 109 42 131 116 15 52 17 54 50 54 42 0 108
55 124 106 9 26 17 34 35 34 33 0 91 53 105 95 12 38 7 156 -11 230 -6 28 -11
72 -10 98 3 66 -14 110 -55 147 -29 25 -43 30 -87 30 -33 0 -63 -7 -83 -19z"/>
</g>
</svg>
