<?xml version="1.0" standalone="no"?>
<!DOCTYPE svg PUBLIC "-//W3C//DTD SVG 20010904//EN"
 "http://www.w3.org/TR/2001/REC-SVG-20010904/DTD/svg10.dtd">
<svg version="1.0" xmlns="http://www.w3.org/2000/svg"
 width="401.000000pt" height="473.000000pt" viewBox="0 0 401.000000 473.000000"
 preserveAspectRatio="xMidYMid meet">
<metadata>
Created by potrace 1.14, written by Peter Selinger 2001-2017
</metadata>
<g transform="translate(0.000000,473.000000) scale(0.100000,-0.100000)"
fill="#000000" stroke="none">
<path fill="#000000" stroke="none" d="M1626 4612 l-139 -118 -64 -128 -64
-127 22 -76 c15 -56 38 -103 85 -172 l64 -96 0 -80 c0 -85 44 -515 59 -577 l9
-37 -114 -38 c-97 -32 -114 -40 -119 -61 -8 -31 -3 -35 63 -58 l52 -18 101 49
101 50 39 -45 c66 -75 69 -64 -58 -180 -141 -127 -157 -157 -167 -305 -4 -55
-14 -157 -23 -226 -15 -116 -15 -144 -1 -345 9 -120 14 -220 13 -222 -2 -2
-59 6 -128 17 -114 19 -139 27 -303 101 -99 45 -244 115 -324 156 -140 73
-150 77 -314 110 -93 19 -184 34 -201 34 -27 0 -43 -13 -111 -87 -105 -117
-107 -119 -99 -143 5 -15 15 -20 39 -20 18 0 59 -9 92 -20 32 -12 91 -26 129
-31 39 -6 84 -13 101 -16 17 -3 64 4 104 16 l73 20 159 -146 c149 -136 170
-151 306 -225 207 -111 403 -195 533 -228 65 -17 119 -36 129 -47 347 -373
719 -753 737 -753 6 0 15 -27 20 -60 11 -68 9 -70 -65 -71 -26 0 -64 -3 -84
-7 l-37 -7 185 -168 c101 -92 200 -177 219 -188 34 -20 57 -21 695 -32 363 -6
663 -7 667 -4 3 4 -13 96 -36 204 -34 162 -41 217 -41 304 0 83 -3 109 -15
119 -14 12 -14 15 0 30 11 12 15 40 15 109 0 51 9 269 20 485 l20 392 -65 352
-65 352 -133 168 c-74 93 -153 196 -176 230 -42 60 -49 64 -265 183 -121 67
-223 123 -225 125 -3 3 14 23 36 47 40 41 41 44 52 142 5 55 13 173 16 263 l7
162 -93 277 -92 276 -166 242 -166 242 -210 7 c-115 3 -311 8 -435 11 l-225 5
-139 -118z"/>
</g>
</svg>
