<?xml version="1.0" standalone="no"?>
<!DOCTYPE svg PUBLIC "-//W3C//DTD SVG 20010904//EN"
 "http://www.w3.org/TR/2001/REC-SVG-20010904/DTD/svg10.dtd">
<svg version="1.0" xmlns="http://www.w3.org/2000/svg"
 width="50.000000pt" height="69.000000pt" viewBox="0 0 50.000000 69.000000"
 preserveAspectRatio="xMidYMid meet">
<metadata>
Created by potrace 1.14, written by Peter Selinger 2001-2017
</metadata>
<g transform="translate(0.000000,69.000000) scale(0.100000,-0.100000)"
fill="#000000" stroke="none">
<path fill="#000000" stroke="none" d="M166 658 c-36 -29 -38 -34 -33 -74 4
-40 2 -45 -43 -89 -37 -36 -46 -52 -42 -71 3 -16 -5 -39 -22 -65 -31 -45 -34
-36 45 -129 26 -30 52 -74 59 -97 15 -50 27 -62 95 -96 40 -20 71 -26 156 -31
l106 -6 7 53 c15 126 -10 233 -69 298 -19 21 -46 61 -60 89 -16 32 -32 50 -43
50 -15 0 -17 7 -14 36 3 20 -3 65 -13 100 -17 64 -17 64 -54 64 -26 0 -47 -9
-75 -32z"/>
</g>
</svg>
