<?xml version="1.0" standalone="no"?>
<!DOCTYPE svg PUBLIC "-//W3C//DTD SVG 20010904//EN"
 "http://www.w3.org/TR/2001/REC-SVG-20010904/DTD/svg10.dtd">
<svg version="1.0" xmlns="http://www.w3.org/2000/svg"
 width="281.000000pt" height="423.000000pt" viewBox="0 0 281.000000 423.000000"
 preserveAspectRatio="xMidYMid meet">
<metadata>
Created by potrace 1.14, written by Peter Selinger 2001-2017
</metadata>
<g transform="translate(0.000000,423.000000) scale(0.100000,-0.100000)"
fill="#000000" stroke="none">
<path fill="#000000" stroke="none" d="M1378 4004 c-37 -126 -70 -249 -74
-274 -3 -26 2 -100 10 -165 20 -146 66 -269 138 -367 71 -97 121 -219 115
-282 -2 -26 -9 -51 -15 -55 -6 -3 -146 -46 -311 -96 l-299 -90 -21 -43 c-12
-24 -40 -69 -63 -99 l-41 -56 2 -241 2 -241 -61 -260 -61 -260 -205 -363 -204
-362 0 -247 0 -246 -60 79 c-57 76 -59 82 -60 138 l0 59 -51 -84 c-71 -116
-106 -195 -112 -255 l-6 -51 62 -17 c34 -10 94 -20 132 -23 l70 -5 57 60 c32
33 58 65 58 71 0 10 421 394 426 388 2 -1 -43 -125 -98 -275 -55 -150 -99
-275 -96 -277 5 -5 1432 -65 1540 -65 l58 0 1 248 c0 275 12 374 50 425 58 79
110 165 119 197 5 19 21 226 35 460 23 392 38 536 64 637 5 21 15 80 21 131 8
73 17 105 45 155 18 34 49 103 68 152 36 92 149 329 180 376 l17 26 -46 7
c-26 3 -58 6 -72 6 -13 0 -82 35 -152 78 -149 89 -140 73 -140 257 l0 123 51
41 c44 35 59 41 99 41 l47 0 31 93 c33 99 45 185 62 458 9 145 9 176 -6 232
l-16 65 -186 6 c-103 3 -378 9 -612 12 l-425 6 -67 -228z"/>
</g>
</svg>
