<?xml version="1.0" standalone="no"?>
<!DOCTYPE svg PUBLIC "-//W3C//DTD SVG 20010904//EN"
 "http://www.w3.org/TR/2001/REC-SVG-20010904/DTD/svg10.dtd">
<svg version="1.0" xmlns="http://www.w3.org/2000/svg"
 width="139.000000pt" height="376.000000pt" viewBox="0 0 139.000000 376.000000"
 preserveAspectRatio="xMidYMid meet">
<metadata>
Created by potrace 1.14, written by Peter Selinger 2001-2017
</metadata>
<g transform="translate(0.000000,376.000000) scale(0.100000,-0.100000)"
fill="#000000" stroke="none">
<path fill="#000000" stroke="none" d="M810 3739 l25 -21 -33 6 c-20 4 -44 0
-61 -9 -25 -12 -31 -12 -47 0 -23 18 -66 19 -82 3 -7 -7 -12 -24 -12 -39 0
-23 -6 -28 -37 -36 -36 -8 -38 -11 -41 -52 -5 -63 7 -71 103 -71 l82 0 13
-101 c10 -77 18 -103 32 -113 18 -13 18 -16 3 -75 -9 -34 -13 -67 -9 -72 4 -6
2 -14 -4 -18 -5 -3 -12 -17 -13 -30 -3 -20 2 -26 31 -36 51 -17 51 -45 0 -83
-28 -20 -63 -34 -108 -42 -84 -15 -127 -43 -146 -95 -22 -57 -44 -226 -51
-394 l-6 -143 -61 -147 c-34 -80 -69 -182 -79 -226 -18 -79 -18 -82 3 -212
l22 -132 -164 -533 c-177 -575 -178 -579 -145 -692 18 -60 18 -56 2 -56 -8 0
-11 -12 -9 -38 3 -31 10 -41 42 -60 21 -12 69 -48 107 -80 37 -32 95 -72 128
-87 l60 -29 390 -11 390 -11 102 65 103 65 0 234 c0 285 -47 823 -115 1310
-30 215 -41 322 -35 342 5 16 28 52 52 80 40 47 44 56 65 167 41 221 24 444
-42 546 -15 23 -74 86 -130 140 l-103 97 10 38 c5 20 17 44 24 53 8 9 28 63
44 119 15 57 34 106 41 110 6 5 36 11 65 15 30 3 57 12 61 19 5 8 32 28 61 46
l53 32 -63 39 c-49 30 -68 49 -88 88 -30 60 -70 92 -142 114 -51 15 -221 38
-283 37 l-30 0 25 -21z"/>
</g>
</svg>
