<?xml version="1.0" standalone="no"?>
<!DOCTYPE svg PUBLIC "-//W3C//DTD SVG 20010904//EN"
 "http://www.w3.org/TR/2001/REC-SVG-20010904/DTD/svg10.dtd">
<svg version="1.0" xmlns="http://www.w3.org/2000/svg"
 width="98.000000pt" height="96.000000pt" viewBox="0 0 98.000000 96.000000"
 preserveAspectRatio="xMidYMid meet">
<metadata>
Created by potrace 1.14, written by Peter Selinger 2001-2017
</metadata>
<g transform="translate(0.000000,96.000000) scale(0.100000,-0.100000)"
fill="#000000" stroke="none">
<path fill="#000000" stroke="none" d="M700 885 c-96 -40 -178 -71 -182 -69
-3 2 -14 27 -23 54 -14 43 -21 51 -53 59 -20 6 -37 9 -38 8 -1 -1 -9 -25 -18
-53 -16 -49 -16 -53 3 -97 18 -43 23 -47 54 -47 34 0 123 -32 210 -77 40 -20
62 -24 114 -22 l66 2 24 -48 25 -48 -59 5 c-64 5 -160 43 -284 114 -70 39 -85
44 -165 49 -72 6 -107 3 -184 -15 -52 -11 -95 -22 -97 -23 -2 -3 -91 -307 -89
-307 1 0 96 18 211 40 116 22 222 38 236 35 15 -4 41 -25 60 -48 76 -95 149
-164 242 -224 54 -35 126 -88 160 -117 l63 -53 0 467 -1 467 -43 12 c-23 6
-46 11 -50 10 -4 0 -86 -34 -182 -74z"/>
</g>
</svg>
