<?xml version="1.0" standalone="no"?>
<!DOCTYPE svg PUBLIC "-//W3C//DTD SVG 20010904//EN"
 "http://www.w3.org/TR/2001/REC-SVG-20010904/DTD/svg10.dtd">
<svg version="1.0" xmlns="http://www.w3.org/2000/svg"
 width="160.000000pt" height="259.000000pt" viewBox="0 0 160.000000 259.000000"
 preserveAspectRatio="xMidYMid meet">
<metadata>
Created by potrace 1.14, written by Peter Selinger 2001-2017
</metadata>
<g transform="translate(0.000000,259.000000) scale(0.100000,-0.100000)"
fill="#000000" stroke="none">
<path fill="#000000" stroke="none" d="M620 2565 c0 -18 -5 -25 -19 -25 -11 0
-27 -3 -36 -6 -11 -5 -18 0 -22 15 -5 21 -13 21 -77 4 -11 -3 -32 -35 -53 -81
-37 -82 -101 -169 -202 -274 l-64 -67 7 -48 c4 -33 20 -68 50 -113 28 -41 48
-85 55 -118 15 -72 16 -69 -25 -82 -24 -8 -34 -17 -30 -26 3 -8 9 -20 12 -28
4 -11 -12 -20 -64 -35 -85 -26 -82 -26 -82 0 0 12 -5 19 -12 17 -8 -3 -14 -28
-16 -69 -6 -164 -42 -1463 -42 -1536 l0 -82 44 -6 c29 -5 136 7 327 35 l284
41 90 51 c50 28 128 77 175 108 47 32 150 95 230 141 80 45 167 100 193 120
41 32 114 68 220 108 24 9 25 13 32 138 7 120 5 134 -18 210 -15 51 -40 101
-65 135 -48 65 -97 209 -107 318 -4 41 -11 84 -15 95 -11 30 -145 109 -228
136 -39 12 -69 26 -66 30 2 4 -22 20 -53 35 -70 34 -92 59 -93 101 0 17 -4 43
-9 57 -7 18 -6 28 5 36 7 7 14 17 14 23 0 6 12 28 26 49 37 54 56 214 38 334
-11 76 -16 88 -55 133 -24 27 -61 58 -83 67 -23 10 -48 23 -56 30 -9 7 -53 16
-98 20 -59 5 -82 11 -82 20 0 8 -7 14 -15 14 -9 0 -15 -9 -15 -25z"/>
</g>
</svg>
