<?xml version="1.0" standalone="no"?>
<!DOCTYPE svg PUBLIC "-//W3C//DTD SVG 20010904//EN"
 "http://www.w3.org/TR/2001/REC-SVG-20010904/DTD/svg10.dtd">
<svg version="1.0" xmlns="http://www.w3.org/2000/svg"
 width="198.000000pt" height="345.000000pt" viewBox="0 0 198.000000 345.000000"
 preserveAspectRatio="xMidYMid meet">
<metadata>
Created by potrace 1.14, written by Peter Selinger 2001-2017
</metadata>
<g transform="translate(0.000000,345.000000) scale(0.100000,-0.100000)"
fill="#000000" stroke="none">
<path fill="#000000" stroke="none" d="M1408 3413 l-97 -35 -57 -76 c-31 -41
-51 -72 -45 -68 7 4 11 0 11 -12 0 -12 -21 -36 -53 -61 -48 -36 -61 -41 -128
-47 -95 -9 -212 -66 -349 -169 -53 -40 -175 -125 -271 -188 -164 -107 -363
-259 -354 -269 3 -3 -11 -43 -30 -90 l-34 -85 40 -94 c22 -52 54 -125 71 -164
45 -101 220 -451 257 -513 29 -50 91 -186 91 -201 0 -4 -16 -28 -36 -53 l-35
-46 35 -212 c41 -242 41 -240 21 -240 -20 0 -19 -10 7 -72 20 -48 22 -70 23
-228 l0 -175 -42 -87 -42 -88 23 -67 23 -68 79 3 c77 3 211 27 227 42 5 4 12
147 18 318 9 310 9 312 39 393 30 80 30 83 24 222 -4 78 -12 171 -20 207 l-13
65 37 62 c44 72 45 73 211 73 l116 0 70 -91 c38 -50 80 -98 92 -106 23 -15 23
-18 23 -229 0 -179 -2 -213 -14 -208 -19 7 -29 -43 -45 -221 -8 -77 -22 -139
-65 -271 -31 -95 -56 -176 -56 -181 0 -18 309 -53 470 -53 l155 0 48 41 48 41
-58 35 c-32 19 -97 73 -145 121 l-88 87 0 58 c0 45 9 79 39 150 29 69 43 121
55 210 23 159 87 368 131 425 l33 42 -23 75 -23 74 33 104 c18 58 51 140 73
184 38 73 41 87 54 218 8 84 12 235 10 378 -2 237 -2 239 -41 410 -22 95 -43
213 -47 262 -7 94 -46 248 -87 349 l-24 59 -134 48 c-73 27 -133 49 -134 48 0
0 -44 -17 -97 -36z"/>
</g>
</svg>
