<?xml version="1.0" standalone="no"?>
<!DOCTYPE svg PUBLIC "-//W3C//DTD SVG 20010904//EN"
 "http://www.w3.org/TR/2001/REC-SVG-20010904/DTD/svg10.dtd">
<svg version="1.0" xmlns="http://www.w3.org/2000/svg"
 width="59.000000pt" height="101.000000pt" viewBox="0 0 59.000000 101.000000"
 preserveAspectRatio="xMidYMid meet">
<metadata>
Created by potrace 1.14, written by Peter Selinger 2001-2017
</metadata>
<g transform="translate(0.000000,101.000000) scale(0.100000,-0.100000)"
fill="#000000" stroke="none">
<path fill="#000000" stroke="none" d="M90 990 c-54 -16 -55 -17 -71 -70 -14
-47 -14 -60 -2 -104 7 -28 11 -67 7 -87 -5 -33 -2 -39 27 -59 28 -21 30 -25
15 -35 -22 -17 -48 -83 -41 -106 6 -19 66 -55 117 -69 23 -7 30 -4 53 26 15
20 31 51 36 69 15 52 66 86 131 88 29 1 61 -2 72 -7 14 -7 18 -6 14 5 -2 8
-36 32 -76 54 -41 23 -72 47 -72 56 0 29 -47 155 -72 195 -35 54 -68 64 -138
44z"/>
<path fill="#000000" stroke="none" d="M509 463 c-3 -67 -11 -101 -35 -152
-24 -48 -26 -62 -21 -127 3 -41 1 -88 -5 -108 -10 -30 -9 -39 7 -56 26 -29 49
-25 78 13 26 35 40 100 53 254 6 79 5 83 -25 137 -39 67 -51 76 -52 39z"/>
</g>
</svg>
