<?xml version="1.0" standalone="no"?>
<!DOCTYPE svg PUBLIC "-//W3C//DTD SVG 20010904//EN"
 "http://www.w3.org/TR/2001/REC-SVG-20010904/DTD/svg10.dtd">
<svg version="1.0" xmlns="http://www.w3.org/2000/svg"
 width="18.000000pt" height="22.000000pt" viewBox="0 0 18.000000 22.000000"
 preserveAspectRatio="xMidYMid meet">
<metadata>
Created by potrace 1.14, written by Peter Selinger 2001-2017
</metadata>
<g transform="translate(0.000000,22.000000) scale(0.100000,-0.100000)"
fill="#000000" stroke="none">
<path fill="#000000" stroke="none" d="M50 212 c-33 -10 -50 -36 -50 -74 0
-43 9 -47 35 -18 25 28 42 25 60 -10 8 -16 15 -31 15 -33 0 -2 -25 -10 -55
-17 -30 -7 -55 -16 -55 -20 0 -21 41 -40 86 -40 57 0 80 13 89 52 5 21 1 33
-19 53 -14 14 -26 34 -26 43 0 40 -44 75 -80 64z"/>
</g>
</svg>
