<?xml version="1.0" standalone="no"?>
<!DOCTYPE svg PUBLIC "-//W3C//DTD SVG 20010904//EN"
 "http://www.w3.org/TR/2001/REC-SVG-20010904/DTD/svg10.dtd">
<svg version="1.0" xmlns="http://www.w3.org/2000/svg"
 width="132.000000pt" height="248.000000pt" viewBox="0 0 132.000000 248.000000"
 preserveAspectRatio="xMidYMid meet">
<metadata>
Created by potrace 1.14, written by Peter Selinger 2001-2017
</metadata>
<g transform="translate(0.000000,248.000000) scale(0.100000,-0.100000)"
fill="#000000" stroke="none">
<path fill="#000000" stroke="none" d="M907 2427 c-19 -30 -47 -77 -61 -106
-36 -70 -88 -126 -163 -173 -37 -23 -106 -87 -174 -159 l-112 -120 18 -164 18
-163 83 -83 84 -84 0 -66 c0 -36 -11 -121 -25 -187 -23 -116 -29 -130 -121
-299 -58 -107 -168 -282 -274 -438 l-178 -260 66 -23 c37 -13 125 -37 197 -53
115 -27 141 -30 225 -25 69 4 110 2 150 -9 30 -8 96 -15 145 -15 l90 1 -66 42
c-63 40 -68 45 -83 99 -22 78 -21 81 24 194 37 89 48 107 119 179 44 44 111
117 149 163 80 96 70 60 119 445 l28 218 31 -6 c24 -4 39 1 68 24 20 16 42 31
47 33 6 2 3 23 -9 54 -11 28 -32 102 -47 165 -14 63 -49 169 -77 237 l-51 122
31 103 c27 87 32 119 32 204 l0 102 -56 31 c-45 26 -160 70 -185 70 -3 0 -22
-24 -42 -53z"/>
</g>
</svg>
