<?xml version="1.0" standalone="no"?>
<!DOCTYPE svg PUBLIC "-//W3C//DTD SVG 20010904//EN"
 "http://www.w3.org/TR/2001/REC-SVG-20010904/DTD/svg10.dtd">
<svg version="1.0" xmlns="http://www.w3.org/2000/svg"
 width="84.000000pt" height="312.000000pt" viewBox="0 0 84.000000 312.000000"
 preserveAspectRatio="xMidYMid meet">
<metadata>
Created by potrace 1.14, written by Peter Selinger 2001-2017
</metadata>
<g transform="translate(0.000000,312.000000) scale(0.100000,-0.100000)"
fill="#000000" stroke="none">
<path fill="#000000" stroke="none" d="M248 3087 c-26 -18 -48 -37 -48 -43 0
-6 11 -39 25 -73 14 -34 23 -66 19 -72 -3 -5 6 -49 21 -97 22 -72 53 -172 70
-228 2 -6 -56 -63 -129 -126 -128 -111 -134 -118 -158 -184 -17 -44 -28 -102
-32 -159 -4 -50 -9 -102 -12 -117 -5 -23 3 -32 60 -75 60 -45 66 -53 92 -123
l27 -75 -43 -350 -42 -350 26 -210 c14 -116 35 -246 46 -289 32 -127 28 -164
-34 -312 -30 -71 -54 -130 -53 -131 2 -1 63 -19 137 -39 l135 -37 51 27 c101
53 101 52 128 303 14 122 41 297 60 390 46 221 98 687 102 903 3 223 11 291
38 310 12 8 40 32 64 53 50 47 49 38 21 269 l-21 171 -53 80 c-39 58 -75 96
-137 145 -45 36 -85 66 -86 68 -2 1 1 18 8 38 7 21 34 55 73 89 60 52 134 152
119 160 -24 14 -213 69 -297 87 -55 12 -107 23 -115 25 -8 2 -36 -11 -62 -28z"/>
</g>
</svg>
