<?xml version="1.0" standalone="no"?>
<!DOCTYPE svg PUBLIC "-//W3C//DTD SVG 20010904//EN"
 "http://www.w3.org/TR/2001/REC-SVG-20010904/DTD/svg10.dtd">
<svg version="1.0" xmlns="http://www.w3.org/2000/svg"
 width="238.000000pt" height="394.000000pt" viewBox="0 0 238.000000 394.000000"
 preserveAspectRatio="xMidYMid meet">
<metadata>
Created by potrace 1.14, written by Peter Selinger 2001-2017
</metadata>
<g transform="translate(0.000000,394.000000) scale(0.100000,-0.100000)"
fill="#000000" stroke="none">
<path fill="#000000" stroke="none" d="M618 3891 c-52 -29 -123 -82 -173 -128
l-85 -78 0 -66 c0 -40 -10 -105 -25 -160 -14 -52 -46 -186 -71 -299 l-45 -205
7 -205 c4 -148 14 -257 34 -390 16 -101 28 -185 27 -185 -1 -1 -54 -45 -118
-97 l-116 -96 -11 -83 c-7 -46 -12 -147 -12 -223 0 -76 -7 -262 -15 -412 -14
-245 -14 -281 -1 -361 12 -65 23 -99 46 -131 16 -23 30 -48 30 -55 0 -7 4 -17
9 -22 6 -6 0 -58 -17 -137 l-26 -127 19 -43 c33 -74 152 -220 211 -258 39 -25
54 -41 54 -57 0 -13 5 -23 11 -23 6 0 1 -9 -12 -19 -13 -11 -22 -22 -19 -25 3
-3 434 -2 956 1 l951 6 -33 100 c-24 75 -45 117 -82 167 -28 37 -61 89 -75
116 l-25 49 145 -3 c86 -2 149 0 155 6 6 6 19 185 30 398 11 214 24 391 29
395 5 3 -12 97 -39 215 l-48 209 -137 265 c-174 338 -206 380 -345 441 -53 23
-133 54 -177 69 -73 24 -81 30 -108 73 -26 43 -29 57 -30 140 -1 81 3 105 35
202 34 103 37 116 31 195 -6 95 -29 151 -113 275 -63 93 -107 184 -164 333
-26 68 -63 145 -82 171 l-36 48 -112 6 c-75 5 -140 15 -196 32 -46 14 -97 25
-114 25 -18 0 -67 -21 -118 -49z"/>
</g>
</svg>
