<?xml version="1.0" standalone="no"?>
<!DOCTYPE svg PUBLIC "-//W3C//DTD SVG 20010904//EN"
 "http://www.w3.org/TR/2001/REC-SVG-20010904/DTD/svg10.dtd">
<svg version="1.0" xmlns="http://www.w3.org/2000/svg"
 width="32.000000pt" height="46.000000pt" viewBox="0 0 32.000000 46.000000"
 preserveAspectRatio="xMidYMid meet">
<metadata>
Created by potrace 1.14, written by Peter Selinger 2001-2017
</metadata>
<g transform="translate(0.000000,46.000000) scale(0.100000,-0.100000)"
fill="#000000" stroke="none">
<path fill="#000000" stroke="none" d="M133 449 c-29 -8 -33 -14 -33 -44 0
-25 -7 -38 -28 -53 -18 -14 -35 -42 -50 -84 -19 -55 -21 -75 -16 -155 l7 -93
71 0 c50 0 66 -3 56 -10 -11 -7 -8 -10 16 -10 36 0 56 19 118 115 l45 70 -48
50 c-35 36 -51 61 -56 90 -24 142 -23 141 -82 124z"/>
</g>
</svg>
