<?xml version="1.0" standalone="no"?>
<!DOCTYPE svg PUBLIC "-//W3C//DTD SVG 20010904//EN"
 "http://www.w3.org/TR/2001/REC-SVG-20010904/DTD/svg10.dtd">
<svg version="1.0" xmlns="http://www.w3.org/2000/svg"
 width="17.000000pt" height="70.000000pt" viewBox="0 0 17.000000 70.000000"
 preserveAspectRatio="xMidYMid meet">
<metadata>
Created by potrace 1.14, written by Peter Selinger 2001-2017
</metadata>
<g transform="translate(0.000000,70.000000) scale(0.100000,-0.100000)"
fill="#000000" stroke="none">
<path fill="#000000" stroke="none" d="M17 682 c-17 -19 -10 -100 12 -140 11
-20 15 -21 29 -10 15 12 16 11 3 -4 -12 -16 -10 -22 13 -53 22 -29 25 -38 16
-56 -9 -16 -8 -24 4 -38 13 -14 15 -30 10 -77 -3 -32 -13 -69 -21 -82 -12 -20
-12 -25 2 -44 10 -16 15 -18 15 -7 0 8 14 34 32 58 l31 43 -2 126 c-2 125 -3
125 -36 169 -18 23 -36 58 -39 76 -8 43 -46 65 -69 39z"/>
<path fill="#000000" stroke="none" d="M38 132 c-2 -15 -1 -52 3 -82 6 -52 6
-51 8 28 1 83 -3 105 -11 54z"/>
</g>
</svg>
