<?xml version="1.0" standalone="no"?>
<!DOCTYPE svg PUBLIC "-//W3C//DTD SVG 20010904//EN"
 "http://www.w3.org/TR/2001/REC-SVG-20010904/DTD/svg10.dtd">
<svg version="1.0" xmlns="http://www.w3.org/2000/svg"
 width="11.000000pt" height="23.000000pt" viewBox="0 0 11.000000 23.000000"
 preserveAspectRatio="xMidYMid meet">
<metadata>
Created by potrace 1.14, written by Peter Selinger 2001-2017
</metadata>
<g transform="translate(0.000000,23.000000) scale(0.100000,-0.100000)"
fill="#000000" stroke="none">
<path fill="#000000" stroke="none" d="M56 211 c-13 -15 -19 -42 -22 -103 -3
-62 -9 -86 -21 -96 -15 -11 -15 -12 5 -12 13 0 26 10 34 27 20 40 43 43 35 4
-5 -24 -3 -31 8 -31 12 0 14 9 10 37 -3 21 -7 69 -9 106 -3 78 -14 97 -40 68z"/>
</g>
</svg>
