<?xml version="1.0" standalone="no"?>
<!DOCTYPE svg PUBLIC "-//W3C//DTD SVG 20010904//EN"
 "http://www.w3.org/TR/2001/REC-SVG-20010904/DTD/svg10.dtd">
<svg version="1.0" xmlns="http://www.w3.org/2000/svg"
 width="26.000000pt" height="84.000000pt" viewBox="0 0 26.000000 84.000000"
 preserveAspectRatio="xMidYMid meet">
<metadata>
Created by potrace 1.14, written by Peter Selinger 2001-2017
</metadata>
<g transform="translate(0.000000,84.000000) scale(0.100000,-0.100000)"
fill="#000000" stroke="none">
<path fill="#000000" stroke="none" d="M163 828 c-13 -6 -23 -19 -23 -29 0 -9
-18 -40 -40 -68 -42 -53 -68 -139 -55 -181 3 -10 -5 -45 -18 -77 -22 -56 -23
-60 -7 -125 10 -44 24 -77 41 -95 50 -52 48 -70 -12 -123 l-53 -47 37 -7 c20
-4 45 -2 56 3 16 9 23 4 47 -34 15 -25 30 -42 32 -40 11 10 31 144 32 201 0
53 3 62 20 67 16 4 20 13 20 44 0 21 -7 47 -15 57 -18 24 -19 94 -3 148 9 30
9 44 0 58 -6 11 -14 37 -18 59 -5 34 -4 40 15 46 26 8 41 42 41 90 0 57 -42
80 -97 53z"/>
</g>
</svg>
