<?xml version="1.0" standalone="no"?>
<!DOCTYPE svg PUBLIC "-//W3C//DTD SVG 20010904//EN"
 "http://www.w3.org/TR/2001/REC-SVG-20010904/DTD/svg10.dtd">
<svg version="1.0" xmlns="http://www.w3.org/2000/svg"
 width="18.000000pt" height="29.000000pt" viewBox="0 0 18.000000 29.000000"
 preserveAspectRatio="xMidYMid meet">
<metadata>
Created by potrace 1.14, written by Peter Selinger 2001-2017
</metadata>
<g transform="translate(0.000000,29.000000) scale(0.100000,-0.100000)"
fill="#000000" stroke="none">
<path fill="#000000" stroke="none" d="M75 257 c-44 -47 -47 -54 -55 -121 -5
-34 -11 -72 -16 -86 -7 -24 -7 -24 19 5 17 20 27 25 27 15 0 -8 4 -21 9 -29 8
-12 12 -11 27 4 17 17 19 16 38 -7 45 -54 79 -35 36 19 -15 20 -20 41 -20 92
0 85 -10 141 -24 141 -6 -1 -24 -15 -41 -33z"/>
</g>
</svg>
