<?xml version="1.0" standalone="no"?>
<!DOCTYPE svg PUBLIC "-//W3C//DTD SVG 20010904//EN"
 "http://www.w3.org/TR/2001/REC-SVG-20010904/DTD/svg10.dtd">
<svg version="1.0" xmlns="http://www.w3.org/2000/svg"
 width="96.000000pt" height="81.000000pt" viewBox="0 0 96.000000 81.000000"
 preserveAspectRatio="xMidYMid meet">
<metadata>
Created by potrace 1.14, written by Peter Selinger 2001-2017
</metadata>
<g transform="translate(0.000000,81.000000) scale(0.100000,-0.100000)"
fill="#000000" stroke="none">
<path fill="#000000" stroke="none" d="M109 803 l-106 -4 93 -296 c78 -246 92
-303 87 -338 -5 -41 -4 -43 38 -72 65 -44 206 -95 241 -88 16 4 113 10 217 13
l188 7 46 35 46 35 1 71 0 72 -144 93 -143 94 -54 193 -54 192 -175 -2 c-96
-1 -223 -4 -281 -5z"/>
</g>
</svg>
