<?xml version="1.0" standalone="no"?>
<!DOCTYPE svg PUBLIC "-//W3C//DTD SVG 20010904//EN"
 "http://www.w3.org/TR/2001/REC-SVG-20010904/DTD/svg10.dtd">
<svg version="1.0" xmlns="http://www.w3.org/2000/svg"
 width="14.000000pt" height="32.000000pt" viewBox="0 0 14.000000 32.000000"
 preserveAspectRatio="xMidYMid meet">
<metadata>
Created by potrace 1.14, written by Peter Selinger 2001-2017
</metadata>
<g transform="translate(0.000000,32.000000) scale(0.100000,-0.100000)"
fill="#000000" stroke="none">
<path fill="#000000" stroke="none" d="M78 313 c-17 -4 -22 -15 -19 -40 1 -7
-7 -17 -17 -22 -32 -17 -44 -89 -28 -166 8 -37 19 -72 24 -77 25 -25 65 20 45
50 -10 17 3 68 26 96 7 8 14 30 16 48 2 18 7 45 10 61 5 17 3 33 -5 42 -13 15
-21 16 -52 8z"/>
</g>
</svg>
