<?xml version="1.0" standalone="no"?>
<!DOCTYPE svg PUBLIC "-//W3C//DTD SVG 20010904//EN"
 "http://www.w3.org/TR/2001/REC-SVG-20010904/DTD/svg10.dtd">
<svg version="1.0" xmlns="http://www.w3.org/2000/svg"
 width="12.000000pt" height="39.000000pt" viewBox="0 0 12.000000 39.000000"
 preserveAspectRatio="xMidYMid meet">
<metadata>
Created by potrace 1.14, written by Peter Selinger 2001-2017
</metadata>
<g transform="translate(0.000000,39.000000) scale(0.100000,-0.100000)"
fill="#000000" stroke="none">
<path fill="#000000" stroke="none" d="M10 375 c-11 -13 -10 -21 10 -47 18
-24 21 -38 16 -69 -5 -29 -1 -50 14 -79 14 -27 20 -59 20 -104 0 -46 4 -65 14
-69 26 -10 39 19 27 55 -6 17 -16 85 -22 150 -10 108 -13 122 -38 149 -25 27
-29 28 -41 14z"/>
</g>
</svg>
