<?xml version="1.0" standalone="no"?>
<!DOCTYPE svg PUBLIC "-//W3C//DTD SVG 20010904//EN"
 "http://www.w3.org/TR/2001/REC-SVG-20010904/DTD/svg10.dtd">
<svg version="1.0" xmlns="http://www.w3.org/2000/svg"
 width="10.000000pt" height="49.000000pt" viewBox="0 0 10.000000 49.000000"
 preserveAspectRatio="xMidYMid meet">
<metadata>
Created by potrace 1.14, written by Peter Selinger 2001-2017
</metadata>
<g transform="translate(0.000000,49.000000) scale(0.100000,-0.100000)"
fill="#000000" stroke="none">
<path fill="#000000" stroke="none" d="M66 418 c-14 -40 -30 -95 -36 -123 -6
-27 -13 -59 -17 -69 -4 -15 -2 -18 12 -12 14 5 16 2 12 -16 -3 -13 -9 -50 -13
-83 -3 -33 -10 -67 -14 -75 -14 -28 0 -40 46 -40 l44 0 0 245 c0 135 -2 245
-4 245 -2 0 -16 -33 -30 -72z"/>
</g>
</svg>
