<?xml version="1.0" standalone="no"?>
<!DOCTYPE svg PUBLIC "-//W3C//DTD SVG 20010904//EN"
 "http://www.w3.org/TR/2001/REC-SVG-20010904/DTD/svg10.dtd">
<svg version="1.0" xmlns="http://www.w3.org/2000/svg"
 width="116.000000pt" height="112.000000pt" viewBox="0 0 116.000000 112.000000"
 preserveAspectRatio="xMidYMid meet">
<metadata>
Created by potrace 1.14, written by Peter Selinger 2001-2017
</metadata>
<g transform="translate(0.000000,112.000000) scale(0.100000,-0.100000)"
fill="#000000" stroke="none">
<path fill="#000000" stroke="none" d="M1057 1096 c-12 -14 -32 -38 -44 -54
-15 -20 -61 -47 -150 -87 -70 -32 -142 -71 -158 -86 -19 -18 -42 -29 -60 -29
-27 -1 -38 -13 -103 -108 -40 -59 -81 -118 -91 -131 l-19 -25 -101 88 c-60 52
-109 103 -122 127 -14 29 -25 39 -37 35 -9 -3 -29 -8 -43 -11 -37 -9 -132
-102 -125 -122 5 -12 16 -14 51 -9 83 13 117 -6 224 -126 90 -101 98 -107 135
-108 31 0 54 11 117 55 85 60 156 93 168 79 4 -5 18 -58 30 -118 23 -111 24
-156 5 -362 l-6 -61 35 -22 c34 -21 101 -29 111 -12 3 5 -7 27 -23 49 l-29 40
23 108 c19 85 24 140 25 247 0 75 4 137 8 137 12 0 55 -137 61 -195 5 -44 9
-50 31 -53 50 -5 54 7 31 104 -34 141 -34 134 -12 134 11 0 22 4 25 9 3 4 -5
6 -18 4 -30 -6 -40 10 -32 53 9 45 52 85 86 78 25 -4 25 -4 3 7 -29 15 -31 55
-4 64 27 8 55 55 53 86 -1 15 5 32 14 39 33 28 46 71 39 124 -3 28 -11 56 -17
63 -17 21 -57 15 -81 -11z"/>
</g>
</svg>
