<?xml version="1.0" standalone="no"?>
<!DOCTYPE svg PUBLIC "-//W3C//DTD SVG 20010904//EN"
 "http://www.w3.org/TR/2001/REC-SVG-20010904/DTD/svg10.dtd">
<svg version="1.0" xmlns="http://www.w3.org/2000/svg"
 width="23.000000pt" height="39.000000pt" viewBox="0 0 23.000000 39.000000"
 preserveAspectRatio="xMidYMid meet">
<metadata>
Created by potrace 1.14, written by Peter Selinger 2001-2017
</metadata>
<g transform="translate(0.000000,39.000000) scale(0.100000,-0.100000)"
fill="#000000" stroke="none">
<path fill="#000000" stroke="none" d="M113 383 c-15 -3 -25 -14 -29 -31 -4
-15 -20 -42 -36 -60 -20 -23 -28 -43 -28 -70 0 -21 -4 -42 -9 -47 -21 -23 13
-60 72 -79 13 -4 17 -16 17 -52 0 -40 2 -45 18 -39 9 3 28 9 42 12 22 4 25 10
27 53 2 27 -2 52 -7 55 -20 13 -10 57 20 85 33 31 36 46 15 74 -8 11 -15 26
-15 34 0 11 -58 76 -64 71 0 -1 -11 -4 -23 -6z"/>
</g>
</svg>
