<?xml version="1.0" standalone="no"?>
<!DOCTYPE svg PUBLIC "-//W3C//DTD SVG 20010904//EN"
 "http://www.w3.org/TR/2001/REC-SVG-20010904/DTD/svg10.dtd">
<svg version="1.0" xmlns="http://www.w3.org/2000/svg"
 width="504.000000pt" height="497.000000pt" viewBox="0 0 504.000000 497.000000"
 preserveAspectRatio="xMidYMid meet">
<metadata>
Created by potrace 1.14, written by Peter Selinger 2001-2017
</metadata>
<g transform="translate(0.000000,497.000000) scale(0.100000,-0.100000)"
fill="#000000" stroke="none">
<path fill="#000000" stroke="none" d="M2260 4915 c-140 -29 -292 -61 -337
-70 l-82 -17 -173 -283 -173 -282 18 -299 18 -299 61 -177 60 -177 -30 -43
c-16 -24 -54 -82 -85 -129 l-55 -87 50 -126 c28 -70 49 -129 47 -131 -2 -2
-148 -46 -324 -98 -248 -73 -321 -99 -327 -113 -4 -11 -30 -188 -58 -394 -28
-206 -55 -387 -59 -401 -5 -14 -183 -259 -397 -545 l-388 -519 -12 -300 c-7
-165 -13 -314 -13 -331 l-1 -30 567 -32 c561 -32 578 -33 1358 -31 557 2 711
4 523 9 -147 3 -270 9 -273 12 -3 3 -8 212 -11 464 l-6 459 41 277 c44 301 79
459 121 553 14 33 41 114 59 181 l33 121 -26 93 c-14 52 -24 95 -23 96 1 1 26
-8 56 -19 45 -17 61 -32 108 -94 l55 -73 -11 -78 -12 -77 94 -175 93 -175 -80
-88 c-45 -49 -82 -92 -84 -97 -2 -5 44 -64 102 -131 l106 -121 -6 -77 c-12
-183 -15 -203 -30 -197 -26 10 -306 8 -394 -3 -47 -6 -93 -11 -102 -11 -10 0
-18 -5 -18 -11 0 -8 111 -9 410 -4 266 5 410 4 410 -2 0 -6 -13 -118 -30 -249
-26 -211 -65 -399 -116 -566 -5 -17 46 -18 975 -18 893 0 981 1 981 16 0 23
158 2391 163 2441 l4 41 -245 193 -245 193 -226 26 -226 27 -185 115 -185 115
-250 83 c-137 45 -251 84 -252 85 -2 1 55 123 126 271 l129 269 -63 64 c-63
64 -65 65 -131 72 -36 4 -69 11 -73 17 -3 6 -28 145 -55 309 -27 164 -54 303
-60 310 -17 19 -555 323 -569 322 -6 -1 -127 -25 -267 -54z"/>
</g>
</svg>
