<?xml version="1.0" standalone="no"?>
<!DOCTYPE svg PUBLIC "-//W3C//DTD SVG 20010904//EN"
 "http://www.w3.org/TR/2001/REC-SVG-20010904/DTD/svg10.dtd">
<svg version="1.0" xmlns="http://www.w3.org/2000/svg"
 width="18.000000pt" height="61.000000pt" viewBox="0 0 18.000000 61.000000"
 preserveAspectRatio="xMidYMid meet">
<metadata>
Created by potrace 1.14, written by Peter Selinger 2001-2017
</metadata>
<g transform="translate(0.000000,61.000000) scale(0.100000,-0.100000)"
fill="#000000" stroke="none">
<path fill="#000000" stroke="none" d="M143 600 c-12 -5 -27 -25 -34 -44 -10
-26 -19 -36 -35 -36 -27 0 -41 -16 -49 -60 -9 -51 -8 -54 14 -60 19 -5 19 -7
-9 -70 -16 -36 -30 -72 -30 -81 0 -9 22 -63 49 -119 40 -83 55 -106 79 -116
l30 -12 6 146 c3 81 8 218 12 305 3 86 2 157 -2 156 -5 0 -19 -4 -31 -9z"/>
</g>
</svg>
