<?xml version="1.0" standalone="no"?>
<!DOCTYPE svg PUBLIC "-//W3C//DTD SVG 20010904//EN"
 "http://www.w3.org/TR/2001/REC-SVG-20010904/DTD/svg10.dtd">
<svg version="1.0" xmlns="http://www.w3.org/2000/svg"
 width="51.000000pt" height="86.000000pt" viewBox="0 0 51.000000 86.000000"
 preserveAspectRatio="xMidYMid meet">
<metadata>
Created by potrace 1.14, written by Peter Selinger 2001-2017
</metadata>
<g transform="translate(0.000000,86.000000) scale(0.100000,-0.100000)"
fill="#000000" stroke="none">
<path fill="#000000" stroke="none" d="M211 849 c-24 -5 -46 -10 -48 -13 -2
-2 22 -20 53 -39 l58 -35 -67 -30 c-36 -17 -75 -33 -87 -37 -23 -7 -24 -11 -9
-54 6 -18 9 -34 6 -37 -8 -9 -77 29 -77 43 0 11 -4 11 -22 2 -20 -11 -15 -14
59 -44 109 -44 107 -42 89 -69 -8 -13 -35 -91 -59 -174 l-45 -151 65 -68 64
-68 -6 80 c-5 73 -4 78 9 55 14 -25 15 -24 18 25 l3 50 18 -34 c16 -28 17 -38
7 -59 -10 -23 -7 -35 26 -99 47 -94 53 -98 98 -76 30 14 36 22 36 49 0 17 3
46 6 63 6 28 4 31 -19 31 -28 0 -37 16 -37 63 1 26 9 37 39 59 41 28 55 57 86
180 10 37 21 65 26 62 5 -3 -15 32 -44 78 -29 46 -77 122 -106 171 -57 94 -54
93 -140 76z"/>
</g>
</svg>
