<?xml version="1.0" standalone="no"?>
<!DOCTYPE svg PUBLIC "-//W3C//DTD SVG 20010904//EN"
 "http://www.w3.org/TR/2001/REC-SVG-20010904/DTD/svg10.dtd">
<svg version="1.0" xmlns="http://www.w3.org/2000/svg"
 width="11.000000pt" height="44.000000pt" viewBox="0 0 11.000000 44.000000"
 preserveAspectRatio="xMidYMid meet">
<metadata>
Created by potrace 1.14, written by Peter Selinger 2001-2017
</metadata>
<g transform="translate(0.000000,44.000000) scale(0.100000,-0.100000)"
fill="#000000" stroke="none">
<path fill="#000000" stroke="none" d="M50 413 c0 -15 -9 -36 -20 -48 -29 -31
-37 -149 -16 -242 11 -51 13 -79 6 -97 -5 -14 -6 -26 -2 -26 15 0 30 16 35 35
4 15 5 14 6 -7 1 -23 6 -28 27 -28 22 0 25 2 14 15 -9 11 -11 33 -6 76 4 34 3
66 -2 72 -18 23 -21 92 -7 150 17 73 10 127 -16 127 -14 0 -19 -7 -19 -27z"/>
</g>
</svg>
