<?xml version="1.0" standalone="no"?>
<!DOCTYPE svg PUBLIC "-//W3C//DTD SVG 20010904//EN"
 "http://www.w3.org/TR/2001/REC-SVG-20010904/DTD/svg10.dtd">
<svg version="1.0" xmlns="http://www.w3.org/2000/svg"
 width="14.000000pt" height="35.000000pt" viewBox="0 0 14.000000 35.000000"
 preserveAspectRatio="xMidYMid meet">
<metadata>
Created by potrace 1.14, written by Peter Selinger 2001-2017
</metadata>
<g transform="translate(0.000000,35.000000) scale(0.100000,-0.100000)"
fill="#000000" stroke="none">
<path fill="#000000" stroke="none" d="M31 308 c-29 -39 -43 -97 -21 -83 6 4
10 -7 10 -24 0 -17 5 -31 11 -31 11 0 10 -23 -7 -117 -5 -29 -3 -34 21 -43 43
-16 68 -4 60 28 -15 58 -29 221 -18 206 4 -6 18 -13 31 -16 30 -8 29 12 -3 50
-14 17 -25 39 -25 51 0 34 -26 24 -59 -21z"/>
</g>
</svg>
