<?xml version="1.0" standalone="no"?>
<!DOCTYPE svg PUBLIC "-//W3C//DTD SVG 20010904//EN"
 "http://www.w3.org/TR/2001/REC-SVG-20010904/DTD/svg10.dtd">
<svg version="1.0" xmlns="http://www.w3.org/2000/svg"
 width="23.000000pt" height="72.000000pt" viewBox="0 0 23.000000 72.000000"
 preserveAspectRatio="xMidYMid meet">
<metadata>
Created by potrace 1.14, written by Peter Selinger 2001-2017
</metadata>
<g transform="translate(0.000000,72.000000) scale(0.100000,-0.100000)"
fill="#000000" stroke="none">
<path fill="#000000" stroke="none" d="M17 706 c-23 -18 -22 -59 4 -82 20 -18
21 -26 17 -156 -4 -111 -2 -138 9 -138 11 0 10 -7 -2 -36 -20 -48 -19 -79 4
-101 28 -27 39 -53 43 -102 3 -42 2 -44 -31 -56 -57 -19 -46 -30 26 -27 47 3
71 9 80 20 45 56 64 112 39 112 -8 0 -29 15 -46 33 -26 26 -30 38 -26 66 6 41
55 114 72 107 21 -8 24 5 9 35 -8 15 -15 48 -15 72 0 45 -34 137 -50 137 -5 0
-7 6 -4 14 11 28 -15 92 -41 104 -34 15 -66 15 -88 -2z"/>
<path fill="#ffffff" stroke="none" d="M160 67 c0 -52 -17 -37 -22 20 -3 33
-1 39 9 31 7 -6 13 -29 13 -51z"/>
</g>
</svg>
