<?xml version="1.0" standalone="no"?>
<!DOCTYPE svg PUBLIC "-//W3C//DTD SVG 20010904//EN"
 "http://www.w3.org/TR/2001/REC-SVG-20010904/DTD/svg10.dtd">
<svg version="1.0" xmlns="http://www.w3.org/2000/svg"
 width="333.000000pt" height="274.000000pt" viewBox="0 0 333.000000 274.000000"
 preserveAspectRatio="xMidYMid meet">
<metadata>
Created by potrace 1.14, written by Peter Selinger 2001-2017
</metadata>
<g transform="translate(0.000000,274.000000) scale(0.100000,-0.100000)"
fill="#000000" stroke="none">
<path fill="#000000" stroke="none" d="M3263 2645 c-46 -69 -74 -126 -103
-211 -26 -77 -35 -114 -26 -111 9 4 16 -9 23 -40 10 -43 9 -49 -83 -253 l-94
-209 0 -194 0 -193 135 -200 136 -199 -108 -3 c-90 -2 -111 -5 -123 -20 -14
-16 -38 -20 -180 -25 -175 -7 -382 11 -631 53 -64 11 -172 23 -240 27 -68 3
-126 9 -129 13 -9 13 -255 40 -363 40 l-108 0 -132 87 c-116 77 -160 115 -357
310 l-226 223 -86 0 c-80 0 -219 14 -260 26 -10 3 -33 31 -52 62 -19 31 -62
81 -95 110 -53 47 -64 52 -106 52 -32 0 -47 -5 -52 -16 -3 -9 7 -91 22 -182
26 -155 27 -178 20 -317 -5 -82 -9 -206 -9 -275 l-1 -124 33 -10 c30 -8 32
-11 32 -56 l0 -48 48 -10 c26 -6 97 -14 157 -17 61 -3 180 -13 265 -21 184
-18 215 -27 660 -196 408 -156 1624 -569 1805 -614 88 -21 165 -47 206 -69
l67 -35 6 462 c8 619 18 2278 14 2278 -2 0 -31 -43 -65 -95z"/>
</g>
</svg>
