<?xml version="1.0" standalone="no"?>
<!DOCTYPE svg PUBLIC "-//W3C//DTD SVG 20010904//EN"
 "http://www.w3.org/TR/2001/REC-SVG-20010904/DTD/svg10.dtd">
<svg version="1.0" xmlns="http://www.w3.org/2000/svg"
 width="112.000000pt" height="232.000000pt" viewBox="0 0 112.000000 232.000000"
 preserveAspectRatio="xMidYMid meet">
<metadata>
Created by potrace 1.14, written by Peter Selinger 2001-2017
</metadata>
<g transform="translate(0.000000,232.000000) scale(0.100000,-0.100000)"
fill="#000000" stroke="none">
<path fill="#000000" stroke="none" d="M243 2313 l-131 -4 -54 -62 -54 -62 51
-1022 c28 -562 53 -1024 55 -1025 3 -2 109 1 235 7 127 5 303 8 392 5 l163 -5
72 -72 73 -72 39 21 c43 22 42 8 15 164 l-10 61 -314 58 -313 59 -107 272
-107 272 11 148 c6 81 14 150 17 153 3 3 33 15 67 27 l62 20 83 155 c46 85 85
156 87 158 2 2 24 6 48 8 l44 5 -29 136 -29 136 29 96 29 96 -106 136 -106
137 -40 -2 c-22 -1 -99 -3 -172 -4z"/>
</g>
</svg>
