<?xml version="1.0" standalone="no"?>
<!DOCTYPE svg PUBLIC "-//W3C//DTD SVG 20010904//EN"
 "http://www.w3.org/TR/2001/REC-SVG-20010904/DTD/svg10.dtd">
<svg version="1.0" xmlns="http://www.w3.org/2000/svg"
 width="211.000000pt" height="319.000000pt" viewBox="0 0 211.000000 319.000000"
 preserveAspectRatio="xMidYMid meet">
<metadata>
Created by potrace 1.14, written by Peter Selinger 2001-2017
</metadata>
<g transform="translate(0.000000,319.000000) scale(0.100000,-0.100000)"
fill="#000000" stroke="none">
<path fill="#000000" stroke="none" d="M590 3169 c-52 -10 -120 -28 -151 -39
l-55 -21 -32 -109 c-28 -96 -32 -123 -32 -232 l0 -124 74 -105 c41 -57 71
-107 67 -111 -3 -3 -67 -29 -141 -58 -74 -28 -174 -69 -221 -92 l-86 -40 -7
-52 c-3 -28 -6 -184 -6 -347 0 -278 2 -304 26 -435 15 -76 47 -272 73 -434
l46 -295 60 -32 c33 -18 100 -49 149 -70 l90 -38 130 -198 129 -198 -2 -63 -2
-63 52 -7 c29 -4 160 -4 291 0 l238 7 -48 51 c-26 28 -84 101 -129 162 l-83
111 -36 157 c-20 86 -34 162 -31 169 3 7 47 25 99 41 78 23 104 36 158 81 l65
54 7 -82 c4 -45 10 -125 14 -178 l6 -97 41 -6 c23 -3 112 -6 197 -7 l155 -2
142 47 142 47 29 82 c50 140 50 138 -4 85 l-49 -47 -46 10 -46 10 -17 82 -16
83 135 559 c75 308 138 568 141 577 4 13 -15 28 -88 64 l-93 47 -120 -15 -120
-15 -26 24 c-22 20 -30 44 -49 146 -13 67 -25 127 -27 134 -9 25 -466 206
-614 243 l-44 11 3 117 c2 64 12 174 21 244 l17 127 -111 30 c-128 35 -136 36
-265 10z"/>
</g>
</svg>
