<?xml version="1.0" standalone="no"?>
<!DOCTYPE svg PUBLIC "-//W3C//DTD SVG 20010904//EN"
 "http://www.w3.org/TR/2001/REC-SVG-20010904/DTD/svg10.dtd">
<svg version="1.0" xmlns="http://www.w3.org/2000/svg"
 width="79.000000pt" height="205.000000pt" viewBox="0 0 79.000000 205.000000"
 preserveAspectRatio="xMidYMid meet">
<metadata>
Created by potrace 1.14, written by Peter Selinger 2001-2017
</metadata>
<g transform="translate(0.000000,205.000000) scale(0.100000,-0.100000)"
fill="#000000" stroke="none">
<path fill="#000000" stroke="none" d="M408 2042 c-29 -2 -46 -13 -82 -52
l-46 -49 0 -88 c0 -48 -4 -94 -9 -102 -5 -8 -33 -26 -62 -40 -52 -26 -53 -27
-90 -124 -23 -59 -54 -177 -80 -302 l-42 -205 29 -97 28 -98 14 60 c7 33 18
78 24 100 l10 40 38 -103 c30 -81 40 -128 49 -220 15 -159 31 -473 31 -610 0
-108 1 -113 23 -121 12 -5 33 -7 45 -4 30 5 64 -6 57 -18 -8 -12 1 -11 50 2
47 13 52 19 60 79 8 61 14 68 53 63 36 -6 39 -17 18 -75 l-14 -38 32 26 c17
15 39 42 49 60 33 63 55 234 61 474 4 124 9 280 12 347 l6 122 41 14 c41 13
42 14 60 93 26 111 13 241 -38 373 -49 129 -45 123 -134 185 -75 53 -79 58
-86 103 -5 38 -61 207 -68 208 -1 0 -18 -1 -39 -3z"/>
</g>
</svg>
