<?xml version="1.0" standalone="no"?>
<!DOCTYPE svg PUBLIC "-//W3C//DTD SVG 20010904//EN"
 "http://www.w3.org/TR/2001/REC-SVG-20010904/DTD/svg10.dtd">
<svg version="1.0" xmlns="http://www.w3.org/2000/svg"
 width="17.000000pt" height="133.000000pt" viewBox="0 0 17.000000 133.000000"
 preserveAspectRatio="xMidYMid meet">
<metadata>
Created by potrace 1.14, written by Peter Selinger 2001-2017
</metadata>
<g transform="translate(0.000000,133.000000) scale(0.100000,-0.100000)"
fill="#000000" stroke="none">
<path fill="#000000" stroke="none" d="M20 1297 c0 -6 9 -59 20 -117 19 -95
20 -118 10 -235 -6 -71 -20 -183 -30 -248 -16 -104 -17 -123 -5 -157 21 -59
21 -343 1 -443 -9 -43 -16 -83 -16 -88 0 -5 27 -9 60 -9 33 0 60 3 60 6 0 3 9
64 20 137 18 116 20 146 10 261 -14 175 -12 405 4 494 12 64 11 85 -5 173 -17
93 -23 106 -70 170 -53 72 -59 77 -59 56z"/>
</g>
</svg>
