<?xml version="1.0" standalone="no"?>
<!DOCTYPE svg PUBLIC "-//W3C//DTD SVG 20010904//EN"
 "http://www.w3.org/TR/2001/REC-SVG-20010904/DTD/svg10.dtd">
<svg version="1.0" xmlns="http://www.w3.org/2000/svg"
 width="288.000000pt" height="343.000000pt" viewBox="0 0 288.000000 343.000000"
 preserveAspectRatio="xMidYMid meet">
<metadata>
Created by potrace 1.14, written by Peter Selinger 2001-2017
</metadata>
<g transform="translate(0.000000,343.000000) scale(0.100000,-0.100000)"
fill="#000000" stroke="none">
<path fill="#000000" stroke="none" d="M1455 3353 l-370 -73 -275 16 -274 17
-257 -84 -256 -84 -7 -920 c-3 -506 -9 -1211 -12 -1566 l-7 -646 189 -6 c104
-4 666 -7 1249 -6 l1060 1 191 207 190 208 -12 104 c-7 57 -13 106 -13 108 -1
2 -9 0 -18 -3 -16 -5 -16 -5 0 8 16 13 17 22 10 88 -6 48 -3 168 7 348 l16
275 -32 235 -32 235 -44 38 c-33 28 -49 36 -67 32 -17 -5 -31 1 -52 21 -33 32
-36 41 -12 46 12 2 -6 24 -62 73 l-78 70 52 15 c49 14 56 21 111 100 l58 85
-66 127 c-92 176 -90 176 -220 -19 -86 -130 -314 -481 -368 -569 -10 -17 -55
-86 -99 -153 -44 -67 -117 -178 -162 -247 l-81 -126 -22 41 -21 42 69 169 c67
162 73 172 156 268 47 55 86 109 86 120 0 42 -48 128 -98 175 -28 26 -58 47
-67 47 -8 0 -59 -22 -113 -48 -53 -27 -150 -64 -215 -83 -134 -38 -120 -26
-234 -205 -42 -67 -80 -140 -94 -183 -19 -60 -25 -70 -35 -56 -10 13 -14 12
-29 -11 -9 -15 -66 -89 -125 -165 l-109 -139 -57 -174 -58 -174 -68 -33 c-37
-18 -68 -38 -68 -45 0 -6 7 -76 15 -155 l15 -144 -77 -243 c-42 -133 -79 -242
-83 -242 -3 0 -56 51 -117 113 l-113 112 -66 210 -67 210 -12 520 c-6 286 -11
521 -11 522 1 0 203 -37 451 -83 247 -46 450 -82 452 -81 19 19 11 202 -12
273 -5 15 17 60 81 170 47 82 163 291 256 464 94 173 247 451 340 618 93 167
168 305 166 306 -1 1 -169 -30 -373 -71z"/>
</g>
</svg>
