<?xml version="1.0" standalone="no"?>
<!DOCTYPE svg PUBLIC "-//W3C//DTD SVG 20010904//EN"
 "http://www.w3.org/TR/2001/REC-SVG-20010904/DTD/svg10.dtd">
<svg version="1.0" xmlns="http://www.w3.org/2000/svg"
 width="264.000000pt" height="319.000000pt" viewBox="0 0 264.000000 319.000000"
 preserveAspectRatio="xMidYMid meet">
<metadata>
Created by potrace 1.14, written by Peter Selinger 2001-2017
</metadata>
<g transform="translate(0.000000,319.000000) scale(0.100000,-0.100000)"
fill="#000000" stroke="none">
<path fill="#000000" stroke="none" d="M1279 3180 l-136 -5 -85 -60 -85 -60
-18 -250 -18 -251 32 -237 33 -237 -172 -185 -172 -186 67 -358 67 -358 -100
-158 -99 -157 -209 -107 c-115 -60 -249 -137 -297 -172 l-88 -64 5 -53 c4 -31
21 -82 41 -123 29 -56 45 -76 90 -105 51 -34 57 -36 102 -28 l48 9 14 68 14
67 -47 70 c-25 38 -45 70 -44 71 14 4 564 106 566 104 1 -1 -33 -94 -77 -206
-44 -112 -75 -205 -71 -207 8 -3 1232 42 1383 51 l59 3 -6 -29 c-5 -25 10 -13
97 79 221 234 196 199 316 460 61 131 106 241 100 242 -6 3 -6 8 0 15 22 28
51 166 51 246 0 81 -2 88 -97 331 l-97 249 -211 292 -210 293 -203 37 c-111
20 -206 39 -209 43 -4 3 25 104 64 224 l70 217 -109 218 -108 217 -58 -2 c-31
-1 -118 -5 -193 -8z"/>
</g>
</svg>
