<?xml version="1.0" standalone="no"?>
<!DOCTYPE svg PUBLIC "-//W3C//DTD SVG 20010904//EN"
 "http://www.w3.org/TR/2001/REC-SVG-20010904/DTD/svg10.dtd">
<svg version="1.0" xmlns="http://www.w3.org/2000/svg"
 width="58.000000pt" height="84.000000pt" viewBox="0 0 58.000000 84.000000"
 preserveAspectRatio="xMidYMid meet">
<metadata>
Created by potrace 1.14, written by Peter Selinger 2001-2017
</metadata>
<g transform="translate(0.000000,84.000000) scale(0.100000,-0.100000)"
fill="#000000" stroke="none">
<path fill="#000000" stroke="none" d="M71 798 l-74 -41 6 -88 c7 -87 8 -89
73 -195 l66 -106 -11 -118 c-6 -65 -11 -123 -11 -129 0 -9 208 -121 224 -121
2 0 50 55 106 123 57 67 110 129 117 138 12 15 10 26 -20 86 -20 38 -47 110
-61 161 -19 72 -35 107 -70 154 -39 53 -46 69 -46 109 l0 47 -52 6 c-172 19
-167 20 -247 -26z"/>
</g>
</svg>
