<?xml version="1.0" standalone="no"?>
<!DOCTYPE svg PUBLIC "-//W3C//DTD SVG 20010904//EN"
 "http://www.w3.org/TR/2001/REC-SVG-20010904/DTD/svg10.dtd">
<svg version="1.0" xmlns="http://www.w3.org/2000/svg"
 width="46.000000pt" height="35.000000pt" viewBox="0 0 46.000000 35.000000"
 preserveAspectRatio="xMidYMid meet">
<metadata>
Created by potrace 1.14, written by Peter Selinger 2001-2017
</metadata>
<g transform="translate(0.000000,35.000000) scale(0.100000,-0.100000)"
fill="#000000" stroke="none">
<path fill="#000000" stroke="none" d="M234 334 c-37 -13 -43 -20 -54 -59 -9
-33 -22 -51 -46 -65 -43 -27 -139 -149 -122 -155 7 -2 96 -13 198 -25 102 -11
200 -23 218 -27 l32 -5 0 49 c0 37 -7 60 -30 96 -21 33 -30 60 -30 90 0 36 -5
46 -38 73 -47 39 -77 45 -128 28z"/>
</g>
</svg>
