<?xml version="1.0" standalone="no"?>
<!DOCTYPE svg PUBLIC "-//W3C//DTD SVG 20010904//EN"
 "http://www.w3.org/TR/2001/REC-SVG-20010904/DTD/svg10.dtd">
<svg version="1.0" xmlns="http://www.w3.org/2000/svg"
 width="14.000000pt" height="21.000000pt" viewBox="0 0 14.000000 21.000000"
 preserveAspectRatio="xMidYMid meet">
<metadata>
Created by potrace 1.14, written by Peter Selinger 2001-2017
</metadata>
<g transform="translate(0.000000,21.000000) scale(0.100000,-0.100000)"
fill="#000000" stroke="none">
<path fill="#000000" stroke="none" d="M42 177 c-7 -18 -12 -49 -12 -68 0 -19
-7 -45 -16 -57 -9 -13 -14 -25 -11 -28 9 -9 35 8 47 32 7 13 22 24 32 24 14 0
18 -8 18 -41 0 -65 24 -42 32 31 7 64 2 86 -30 123 -24 27 -47 21 -60 -16z"/>
</g>
</svg>
