<?xml version="1.0" standalone="no"?>
<!DOCTYPE svg PUBLIC "-//W3C//DTD SVG 20010904//EN"
 "http://www.w3.org/TR/2001/REC-SVG-20010904/DTD/svg10.dtd">
<svg version="1.0" xmlns="http://www.w3.org/2000/svg"
 width="106.000000pt" height="93.000000pt" viewBox="0 0 106.000000 93.000000"
 preserveAspectRatio="xMidYMid meet">
<metadata>
Created by potrace 1.14, written by Peter Selinger 2001-2017
</metadata>
<g transform="translate(0.000000,93.000000) scale(0.100000,-0.100000)"
fill="#000000" stroke="none">
<path fill="#000000" stroke="none" d="M477 908 c-14 -13 -37 -31 -52 -42 -15
-10 -40 -40 -56 -67 -17 -26 -48 -62 -69 -79 l-38 -30 18 -61 c11 -34 28 -71
39 -83 12 -12 21 -29 21 -38 0 -19 -102 -126 -176 -186 -39 -32 -60 -42 -88
-42 -32 0 -38 -5 -56 -41 l-21 -41 23 7 c13 4 34 20 48 36 25 28 25 28 48 9
15 -13 22 -29 22 -54 l0 -36 48 6 c41 5 53 12 98 61 l52 56 13 -37 13 -36 80
0 80 0 -52 -53 c-51 -52 -52 -53 -46 -100 5 -34 11 -47 23 -47 9 0 27 -3 40
-7 24 -6 24 -5 17 45 -4 33 -3 52 3 52 14 0 38 -38 46 -73 6 -22 13 -27 40
-27 50 0 289 20 293 25 3 2 -6 21 -18 42 -19 31 -44 113 -35 113 2 0 22 -11
45 -24 30 -17 48 -22 59 -15 9 4 40 18 70 31 l54 22 -39 34 c-21 18 -55 45
-76 58 -33 23 -37 31 -43 83 -6 51 -12 63 -48 99 -29 27 -54 42 -82 46 -104
17 -148 30 -129 37 11 4 29 8 42 8 24 1 89 66 109 109 13 29 17 100 7 126 -3
8 -36 25 -72 37 -37 12 -81 34 -97 50 -24 23 -40 29 -73 29 -23 0 -42 5 -42
10 0 16 -15 12 -43 -12z"/>
</g>
</svg>
