<?xml version="1.0" standalone="no"?>
<!DOCTYPE svg PUBLIC "-//W3C//DTD SVG 20010904//EN"
 "http://www.w3.org/TR/2001/REC-SVG-20010904/DTD/svg10.dtd">
<svg version="1.0" xmlns="http://www.w3.org/2000/svg"
 width="29.000000pt" height="48.000000pt" viewBox="0 0 29.000000 48.000000"
 preserveAspectRatio="xMidYMid meet">
<metadata>
Created by potrace 1.14, written by Peter Selinger 2001-2017
</metadata>
<g transform="translate(0.000000,48.000000) scale(0.100000,-0.100000)"
fill="#000000" stroke="none">
<path fill="#000000" stroke="none" d="M17 462 c-40 -44 -6 -106 54 -100 47 4
71 46 49 86 -20 35 -77 43 -103 14z"/>
<path fill="#000000" stroke="none" d="M177 312 c-10 -10 -17 -23 -17 -29 0
-6 -9 -13 -19 -16 -15 -4 -21 -17 -26 -61 -12 -94 -2 -135 42 -173 47 -40 94
-44 117 -11 22 31 20 55 -6 82 -26 25 -49 80 -39 92 3 5 15 14 26 20 56 31 35
114 -29 114 -19 0 -40 -8 -49 -18z"/>
</g>
</svg>
