<?xml version="1.0" standalone="no"?>
<!DOCTYPE svg PUBLIC "-//W3C//DTD SVG 20010904//EN"
 "http://www.w3.org/TR/2001/REC-SVG-20010904/DTD/svg10.dtd">
<svg version="1.0" xmlns="http://www.w3.org/2000/svg"
 width="268.000000pt" height="340.000000pt" viewBox="0 0 268.000000 340.000000"
 preserveAspectRatio="xMidYMid meet">
<metadata>
Created by potrace 1.14, written by Peter Selinger 2001-2017
</metadata>
<g transform="translate(0.000000,340.000000) scale(0.100000,-0.100000)"
fill="#000000" stroke="none">
<path fill="#000000" stroke="none" d="M1130 3393 c-25 -2 -81 -16 -125 -30
-114 -37 -127 -54 -200 -259 l-60 -169 -4 -240 c-2 -149 1 -282 9 -350 12
-105 11 -117 -15 -260 -15 -82 -29 -180 -30 -216 -2 -36 -12 -95 -23 -131 -12
-36 -30 -119 -42 -185 -31 -176 -26 -163 -64 -163 -19 0 -36 6 -39 13 -2 6 18
109 44 227 27 118 48 218 47 222 -4 10 -101 -54 -141 -91 -54 -50 -200 -348
-249 -510 -26 -88 -32 -98 -83 -143 -31 -29 -75 -84 -105 -132 l-50 -84 0
-168 c0 -198 15 -269 87 -401 l44 -82 130 -43 c90 -30 131 -48 135 -60 3 -10
25 -32 49 -48 43 -30 46 -30 70 -14 29 19 29 19 10 -35 l-14 -41 1085 0 c865
0 1084 3 1078 13 -4 6 -16 24 -26 39 -12 18 -18 44 -18 83 0 35 -31 192 -80
411 -44 194 -80 372 -80 396 0 24 6 63 14 88 12 40 12 49 -5 81 -10 20 -25 78
-34 128 -9 51 -27 128 -40 170 -23 72 -30 83 -102 152 -110 106 -190 164 -285
207 -118 54 -202 98 -215 114 -17 20 20 448 57 653 37 209 37 246 1 361 -42
135 -122 263 -208 332 -95 75 -136 97 -254 137 -104 35 -136 39 -269 28z"/>
</g>
</svg>
