<?xml version="1.0" standalone="no"?>
<!DOCTYPE svg PUBLIC "-//W3C//DTD SVG 20010904//EN"
 "http://www.w3.org/TR/2001/REC-SVG-20010904/DTD/svg10.dtd">
<svg version="1.0" xmlns="http://www.w3.org/2000/svg"
 width="15.000000pt" height="60.000000pt" viewBox="0 0 15.000000 60.000000"
 preserveAspectRatio="xMidYMid meet">
<metadata>
Created by potrace 1.14, written by Peter Selinger 2001-2017
</metadata>
<g transform="translate(0.000000,60.000000) scale(0.100000,-0.100000)"
fill="#000000" stroke="none">
<path fill="#000000" stroke="none" d="M62 560 c-57 -37 -63 -43 -58 -68 3
-15 17 -130 31 -257 15 -126 28 -231 29 -232 1 -1 16 7 34 19 l32 20 0 113 c0
107 -1 114 -21 120 -18 6 -20 12 -15 39 3 17 17 40 31 51 21 18 25 29 25 75 0
69 -11 160 -19 160 -3 0 -34 -18 -69 -40z"/>
</g>
</svg>
