<?xml version="1.0" standalone="no"?>
<!DOCTYPE svg PUBLIC "-//W3C//DTD SVG 20010904//EN"
 "http://www.w3.org/TR/2001/REC-SVG-20010904/DTD/svg10.dtd">
<svg version="1.0" xmlns="http://www.w3.org/2000/svg"
 width="33.000000pt" height="126.000000pt" viewBox="0 0 33.000000 126.000000"
 preserveAspectRatio="xMidYMid meet">
<metadata>
Created by potrace 1.14, written by Peter Selinger 2001-2017
</metadata>
<g transform="translate(0.000000,126.000000) scale(0.100000,-0.100000)"
fill="#000000" stroke="none">
<path fill="#000000" stroke="none" d="M278 1223 l-36 -38 16 -61 c15 -59 15
-64 -6 -141 -13 -46 -22 -110 -22 -149 0 -38 -4 -75 -9 -83 -5 -7 -32 -17 -61
-22 -29 -4 -55 -11 -58 -14 -3 -3 0 -53 6 -112 7 -60 12 -154 12 -210 l0 -103
-54 -36 c-52 -34 -54 -38 -58 -85 -3 -45 -1 -49 22 -53 14 -3 32 -4 40 -4 22
2 129 -61 140 -82 5 -10 16 -20 24 -23 26 -10 64 183 75 388 16 267 25 865 14
865 -5 0 -25 -17 -45 -37z"/>
</g>
</svg>
