<?xml version="1.0" standalone="no"?>
<!DOCTYPE svg PUBLIC "-//W3C//DTD SVG 20010904//EN"
 "http://www.w3.org/TR/2001/REC-SVG-20010904/DTD/svg10.dtd">
<svg version="1.0" xmlns="http://www.w3.org/2000/svg"
 width="29.000000pt" height="58.000000pt" viewBox="0 0 29.000000 58.000000"
 preserveAspectRatio="xMidYMid meet">
<metadata>
Created by potrace 1.14, written by Peter Selinger 2001-2017
</metadata>
<g transform="translate(0.000000,58.000000) scale(0.100000,-0.100000)"
fill="#000000" stroke="none">
<path fill="#000000" stroke="none" d="M120 515 c-12 -36 -24 -65 -26 -65 -3
0 -21 7 -41 15 -28 12 -38 13 -44 3 -10 -16 81 -78 114 -78 28 0 69 41 90 90
l15 35 1 -36 c1 -20 -4 -61 -9 -90 -6 -30 -13 -129 -16 -221 l-5 -168 45 0 46
0 0 290 0 290 -74 0 -74 0 -22 -65z"/>
</g>
</svg>
