<?xml version="1.0" standalone="no"?>
<!DOCTYPE svg PUBLIC "-//W3C//DTD SVG 20010904//EN"
 "http://www.w3.org/TR/2001/REC-SVG-20010904/DTD/svg10.dtd">
<svg version="1.0" xmlns="http://www.w3.org/2000/svg"
 width="72.000000pt" height="89.000000pt" viewBox="0 0 72.000000 89.000000"
 preserveAspectRatio="xMidYMid meet">
<metadata>
Created by potrace 1.14, written by Peter Selinger 2001-2017
</metadata>
<g transform="translate(0.000000,89.000000) scale(0.100000,-0.100000)"
fill="#000000" stroke="none">
<path fill="#000000" stroke="none" d="M624 880 c-13 -5 -24 -21 -28 -42 -6
-30 -21 -42 -155 -126 -81 -51 -157 -102 -169 -115 -11 -12 -38 -71 -60 -132
-32 -93 -41 -109 -58 -107 -10 2 -23 10 -27 18 -16 29 -44 14 -86 -46 l-42
-59 30 -15 c25 -14 30 -14 41 -1 18 22 60 18 86 -6 21 -20 26 -20 54 -9 17 7
51 38 74 69 24 31 57 68 73 83 l29 28 18 -33 c11 -17 31 -45 45 -60 25 -27 26
-34 23 -120 -1 -63 -8 -102 -20 -127 -19 -38 -18 -81 1 -75 7 2 31 9 54 15
l42 10 -17 29 c-16 28 -15 33 6 100 13 39 27 96 32 127 9 54 8 59 -30 134 -23
46 -36 82 -30 85 10 6 30 -34 30 -61 0 -21 14 -17 40 11 13 14 18 25 11 25
-16 0 -43 64 -35 84 9 25 22 19 29 -13 7 -33 82 -101 103 -94 23 9 13 60 -18
91 -26 27 -30 38 -30 85 0 31 -2 62 -5 69 -4 9 6 19 27 29 67 29 75 160 9 158
-14 0 -36 -4 -47 -9z"/>
</g>
</svg>
