<?xml version="1.0" standalone="no"?>
<!DOCTYPE svg PUBLIC "-//W3C//DTD SVG 20010904//EN"
 "http://www.w3.org/TR/2001/REC-SVG-20010904/DTD/svg10.dtd">
<svg version="1.0" xmlns="http://www.w3.org/2000/svg"
 width="76.000000pt" height="94.000000pt" viewBox="0 0 76.000000 94.000000"
 preserveAspectRatio="xMidYMid meet">
<metadata>
Created by potrace 1.14, written by Peter Selinger 2001-2017
</metadata>
<g transform="translate(0.000000,94.000000) scale(0.100000,-0.100000)"
fill="#000000" stroke="none">
<path fill="#000000" stroke="none" d="M615 920 c-33 -10 -107 -34 -165 -54
-58 -19 -159 -48 -225 -63 -108 -25 -116 -28 -80 -33 l40 -5 -78 -24 c-43 -14
-80 -28 -83 -32 -6 -10 -27 -159 -23 -163 2 -2 27 -11 54 -19 50 -15 52 -14
135 20 104 42 283 83 363 83 52 0 58 -2 52 -17 -4 -10 -12 -31 -17 -46 -7 -19
-39 -47 -97 -86 -81 -55 -93 -60 -216 -85 -72 -15 -131 -28 -132 -29 0 -1 -9
-31 -18 -66 l-16 -64 29 -41 c18 -24 42 -45 60 -50 30 -8 30 -9 15 -33 -16
-23 -15 -25 28 -69 38 -39 48 -44 87 -44 36 0 53 7 94 40 28 22 57 40 65 40 9
0 37 16 64 36 38 28 50 43 54 72 4 20 10 46 15 57 5 11 12 38 15 61 5 32 17
52 57 90 73 72 76 84 29 152 -34 51 -38 63 -34 102 3 25 13 61 23 80 10 20 21
56 25 82 6 38 3 53 -17 87 -12 22 -27 41 -33 40 -5 0 -37 -9 -70 -19z"/>
</g>
</svg>
