<?xml version="1.0" standalone="no"?>
<!DOCTYPE svg PUBLIC "-//W3C//DTD SVG 20010904//EN"
 "http://www.w3.org/TR/2001/REC-SVG-20010904/DTD/svg10.dtd">
<svg version="1.0" xmlns="http://www.w3.org/2000/svg"
 width="137.000000pt" height="93.000000pt" viewBox="0 0 137.000000 93.000000"
 preserveAspectRatio="xMidYMid meet">
<metadata>
Created by potrace 1.14, written by Peter Selinger 2001-2017
</metadata>
<g transform="translate(0.000000,93.000000) scale(0.100000,-0.100000)"
fill="#000000" stroke="none">
<path fill="#000000" stroke="none" d="M4 913 c3 -10 10 -38 17 -63 11 -42 12
-43 22 -22 7 16 29 27 81 43 39 11 84 24 100 29 l28 10 -8 -118 c-14 -181 -6
-384 17 -470 25 -94 120 -284 152 -305 24 -16 28 -15 111 33 89 51 88 51 403
107 17 3 42 16 54 29 12 13 30 24 39 24 9 0 25 9 36 21 10 12 62 46 114 76
106 62 156 105 184 158 l20 36 -26 22 c-167 140 -212 186 -259 266 -28 46 -53
96 -56 112 l-6 29 -514 0 c-485 0 -514 -1 -509 -17z"/>
</g>
</svg>
