<?xml version="1.0" standalone="no"?>
<!DOCTYPE svg PUBLIC "-//W3C//DTD SVG 20010904//EN"
 "http://www.w3.org/TR/2001/REC-SVG-20010904/DTD/svg10.dtd">
<svg version="1.0" xmlns="http://www.w3.org/2000/svg"
 width="232.000000pt" height="268.000000pt" viewBox="0 0 232.000000 268.000000"
 preserveAspectRatio="xMidYMid meet">
<metadata>
Created by potrace 1.14, written by Peter Selinger 2001-2017
</metadata>
<g transform="translate(0.000000,268.000000) scale(0.100000,-0.100000)"
fill="#000000" stroke="none">
<path fill="#000000" stroke="none" d="M1285 2659 c-9 -9 -54 -38 -101 -64
-88 -50 -144 -104 -144 -141 0 -13 18 -35 50 -60 71 -56 68 -72 -30 -129 -89
-52 -110 -83 -110 -160 0 -36 -5 -48 -29 -67 -38 -30 -198 -304 -206 -354 -10
-55 -45 -106 -141 -203 -69 -70 -87 -94 -103 -144 -12 -33 -19 -63 -16 -65 3
-3 16 5 29 17 21 19 24 20 30 6 3 -9 6 -25 6 -35 0 -10 12 -23 29 -30 26 -10
46 -7 168 30 89 27 157 53 191 76 l53 35 -27 -53 c-80 -160 -166 -281 -360
-508 -45 -52 -111 -141 -148 -197 -54 -84 -66 -110 -66 -143 0 -50 -20 -98
-51 -126 -31 -28 -152 -80 -204 -88 -34 -6 -46 -15 -74 -55 -30 -45 -32 -51
-22 -88 10 -38 13 -40 78 -56 38 -9 129 -26 204 -38 l137 -21 64 43 64 42 64
161 c72 183 167 388 227 491 22 39 57 109 78 157 20 48 43 92 49 97 9 8 25 6
53 -5 39 -15 43 -22 137 -212 53 -109 96 -202 96 -208 0 -13 92 -94 128 -113
13 -7 94 -37 180 -66 201 -69 515 -211 610 -276 40 -28 75 -49 76 -48 2 2 16
47 31 99 15 52 30 100 32 106 2 6 -14 25 -36 41 -34 25 -57 32 -143 43 l-103
13 -165 97 c-91 53 -204 118 -253 144 -73 39 -91 54 -108 89 -25 48 -23 84 16
297 35 191 94 527 101 580 3 25 21 96 40 158 44 147 41 168 -47 347 -40 80
-69 153 -69 170 0 27 17 116 35 185 5 21 -7 42 -65 120 -39 52 -78 99 -87 104
-9 5 -42 12 -74 15 -49 6 -62 4 -74 -10z"/>
</g>
</svg>
