<?xml version="1.0" standalone="no"?>
<!DOCTYPE svg PUBLIC "-//W3C//DTD SVG 20010904//EN"
 "http://www.w3.org/TR/2001/REC-SVG-20010904/DTD/svg10.dtd">
<svg version="1.0" xmlns="http://www.w3.org/2000/svg"
 width="52.000000pt" height="69.000000pt" viewBox="0 0 52.000000 69.000000"
 preserveAspectRatio="xMidYMid meet">
<metadata>
Created by potrace 1.14, written by Peter Selinger 2001-2017
</metadata>
<g transform="translate(0.000000,69.000000) scale(0.100000,-0.100000)"
fill="#000000" stroke="none">
<path fill="#000000" stroke="none" d="M97 648 c-8 -24 -18 -68 -22 -98 -5
-51 -4 -58 20 -80 28 -27 29 -30 14 -82 -9 -33 -14 -38 -40 -38 -22 0 -34 -8
-49 -33 -11 -17 -20 -35 -20 -38 0 -3 27 -21 60 -40 101 -57 94 -48 100 -148
l5 -90 174 85 c96 46 177 87 180 89 2 3 -10 20 -27 38 -18 18 -50 71 -73 117
-22 47 -77 140 -121 207 -73 112 -84 124 -120 134 -22 5 -45 12 -52 15 -8 3
-19 -11 -29 -38z"/>
</g>
</svg>
