<?xml version="1.0" standalone="no"?>
<!DOCTYPE svg PUBLIC "-//W3C//DTD SVG 20010904//EN"
 "http://www.w3.org/TR/2001/REC-SVG-20010904/DTD/svg10.dtd">
<svg version="1.0" xmlns="http://www.w3.org/2000/svg"
 width="17.000000pt" height="46.000000pt" viewBox="0 0 17.000000 46.000000"
 preserveAspectRatio="xMidYMid meet">
<metadata>
Created by potrace 1.14, written by Peter Selinger 2001-2017
</metadata>
<g transform="translate(0.000000,46.000000) scale(0.100000,-0.100000)"
fill="#000000" stroke="none">
<path fill="#000000" stroke="none" d="M60 438 c0 -14 -13 -37 -30 -53 -38
-36 -41 -89 -8 -130 19 -24 23 -44 26 -124 5 -110 16 -131 70 -131 l35 0 -5
129 c-3 93 -1 136 8 153 16 28 9 63 -21 103 -13 17 -24 39 -26 50 -3 12 -14
21 -27 23 -17 3 -22 -1 -22 -20z"/>
</g>
</svg>
