<?xml version="1.0" standalone="no"?>
<!DOCTYPE svg PUBLIC "-//W3C//DTD SVG 20010904//EN"
 "http://www.w3.org/TR/2001/REC-SVG-20010904/DTD/svg10.dtd">
<svg version="1.0" xmlns="http://www.w3.org/2000/svg"
 width="42.000000pt" height="90.000000pt" viewBox="0 0 42.000000 90.000000"
 preserveAspectRatio="xMidYMid meet">
<metadata>
Created by potrace 1.14, written by Peter Selinger 2001-2017
</metadata>
<g transform="translate(0.000000,90.000000) scale(0.100000,-0.100000)"
fill="#000000" stroke="none">
<path fill="#000000" stroke="none" d="M274 868 c-8 -28 -14 -33 -43 -34 -37
-1 -77 -40 -87 -84 -5 -23 -10 -25 -44 -22 -36 4 -40 1 -58 -35 -26 -51 -36
-118 -19 -131 6 -5 27 -13 46 -17 33 -7 34 -7 28 -54 -4 -31 -20 -71 -45 -112
-31 -50 -41 -77 -44 -121 -3 -32 -1 -58 3 -58 4 0 21 -11 38 -25 25 -22 32
-37 42 -100 12 -74 12 -74 34 -59 13 8 33 42 46 77 l24 62 10 -70 c10 -68 10
-69 45 -76 19 -4 36 -6 37 -5 1 1 6 38 10 81 7 73 10 80 31 83 12 2 22 9 22
15 0 7 -9 81 -22 165 l-22 153 57 53 c31 29 57 57 57 63 0 5 -15 43 -34 84
-19 41 -37 96 -41 122 -12 77 -54 104 -71 45z"/>
</g>
</svg>
