<?xml version="1.0" standalone="no"?>
<!DOCTYPE svg PUBLIC "-//W3C//DTD SVG 20010904//EN"
 "http://www.w3.org/TR/2001/REC-SVG-20010904/DTD/svg10.dtd">
<svg version="1.0" xmlns="http://www.w3.org/2000/svg"
 width="65.000000pt" height="203.000000pt" viewBox="0 0 65.000000 203.000000"
 preserveAspectRatio="xMidYMid meet">
<metadata>
Created by potrace 1.14, written by Peter Selinger 2001-2017
</metadata>
<g transform="translate(0.000000,203.000000) scale(0.100000,-0.100000)"
fill="#000000" stroke="none">
<path fill="#000000" stroke="none" d="M248 2014 c-12 -12 -14 -30 -11 -79 l6
-63 -57 -21 c-31 -11 -63 -21 -71 -21 -12 0 -15 -22 -16 -122 -2 -139 -16
-119 -18 25 -1 69 -4 87 -16 87 -40 0 -65 -113 -65 -288 l0 -112 53 0 c47 0
55 -3 65 -25 9 -20 6 -39 -21 -115 l-33 -91 18 -127 c9 -70 17 -165 18 -212 0
-55 9 -121 25 -188 29 -119 32 -243 10 -337 -8 -33 -15 -104 -15 -158 l0 -98
77 -36 c72 -33 80 -35 123 -25 99 23 100 24 100 94 0 53 -8 82 -49 179 -46
112 -48 119 -40 177 25 180 49 282 84 353 l37 74 99 54 c60 33 98 59 95 67 -2
6 -12 48 -22 93 -16 75 -16 91 -2 233 13 122 14 177 5 270 l-10 117 -84 71
-83 71 0 73 c0 68 -2 74 -25 84 -40 18 -157 15 -177 -4z"/>
<path fill="#ffffff" stroke="none" d="M109 1463 c-1 -34 -2 -35 -9 -13 -11
36 -11 50 0 50 6 0 10 -17 9 -37z"/>
</g>
</svg>
