<?xml version="1.0" standalone="no"?>
<!DOCTYPE svg PUBLIC "-//W3C//DTD SVG 20010904//EN"
 "http://www.w3.org/TR/2001/REC-SVG-20010904/DTD/svg10.dtd">
<svg version="1.0" xmlns="http://www.w3.org/2000/svg"
 width="20.000000pt" height="64.000000pt" viewBox="0 0 20.000000 64.000000"
 preserveAspectRatio="xMidYMid meet">
<metadata>
Created by potrace 1.14, written by Peter Selinger 2001-2017
</metadata>
<g transform="translate(0.000000,64.000000) scale(0.100000,-0.100000)"
fill="#000000" stroke="none">
<path fill="#000000" stroke="none" d="M175 630 c-26 -10 -43 -44 -47 -98 -3
-33 0 -43 14 -48 30 -9 19 -84 -12 -84 -10 0 -37 -22 -59 -49 -39 -46 -42 -55
-56 -153 -22 -154 -28 -140 71 -172 47 -15 87 -26 89 -24 3 2 23 630 21 634
-1 1 -10 -2 -21 -6z"/>
</g>
</svg>
