<?xml version="1.0" standalone="no"?>
<!DOCTYPE svg PUBLIC "-//W3C//DTD SVG 20010904//EN"
 "http://www.w3.org/TR/2001/REC-SVG-20010904/DTD/svg10.dtd">
<svg version="1.0" xmlns="http://www.w3.org/2000/svg"
 width="129.000000pt" height="223.000000pt" viewBox="0 0 129.000000 223.000000"
 preserveAspectRatio="xMidYMid meet">
<metadata>
Created by potrace 1.14, written by Peter Selinger 2001-2017
</metadata>
<g transform="translate(0.000000,223.000000) scale(0.100000,-0.100000)"
fill="#000000" stroke="none">
<path fill="#000000" stroke="none" d="M644 2211 c-27 -10 -65 -26 -82 -35
-41 -21 -122 -130 -122 -163 0 -14 -11 -57 -25 -95 -24 -68 -25 -74 -15 -175
6 -58 10 -106 8 -107 -61 -43 -142 -113 -208 -183 -79 -82 -89 -98 -132 -204
l-48 -114 -12 -216 -11 -216 38 -260 37 -259 -25 -84 c-14 -46 -25 -85 -24
-86 1 -1 287 -4 635 -8 l632 -6 0 29 c0 16 -13 55 -30 86 -16 31 -30 72 -30
89 0 18 -9 59 -20 91 -15 45 -20 84 -20 172 0 113 0 114 -40 193 -22 44 -45
80 -50 80 -6 0 -10 19 -10 43 1 33 8 50 34 79 33 38 116 78 116 56 0 -6 3 -8
7 -5 12 13 2 162 -14 205 l-16 42 -55 0 c-51 0 -60 -3 -93 -36 l-36 -36 -42
117 c-22 64 -41 120 -41 125 0 5 -25 37 -55 72 l-56 63 39 35 c21 19 52 47 69
61 27 22 32 34 38 92 5 44 14 76 27 93 11 14 26 44 33 67 11 38 16 43 54 51
39 8 41 11 41 45 0 65 -84 160 -238 268 -75 53 -169 65 -258 34z"/>
</g>
</svg>
