<?xml version="1.0" standalone="no"?>
<!DOCTYPE svg PUBLIC "-//W3C//DTD SVG 20010904//EN"
 "http://www.w3.org/TR/2001/REC-SVG-20010904/DTD/svg10.dtd">
<svg version="1.0" xmlns="http://www.w3.org/2000/svg"
 width="46.000000pt" height="72.000000pt" viewBox="0 0 46.000000 72.000000"
 preserveAspectRatio="xMidYMid meet">
<metadata>
Created by potrace 1.14, written by Peter Selinger 2001-2017
</metadata>
<g transform="translate(0.000000,72.000000) scale(0.100000,-0.100000)"
fill="#000000" stroke="none">
<path fill="#000000" stroke="none" d="M173 710 c-16 -7 -23 -21 -28 -55 -5
-29 -15 -52 -29 -63 -31 -24 -80 -101 -93 -144 -13 -43 -5 -54 42 -60 27 -3
31 -7 39 -51 6 -33 17 -54 37 -71 16 -14 29 -29 29 -34 0 -5 6 -15 14 -21 9
-8 13 -25 11 -44 -10 -80 -13 -145 -6 -155 4 -7 28 -6 81 4 41 8 102 14 135
14 l60 1 -30 27 c-34 31 -34 41 -10 178 8 44 15 83 15 87 0 8 -62 42 -72 39
-4 -1 -15 15 -25 36 -9 20 -22 42 -29 49 -6 6 -14 36 -18 65 -4 29 -15 61 -24
71 -11 12 -15 32 -13 63 4 63 -28 87 -86 64z"/>
<path fill="#000000" stroke="none" d="M0 367 c0 -18 17 -33 62 -51 l35 -15
-11 35 c-6 19 -18 34 -26 34 -8 0 -25 3 -37 6 -16 5 -23 2 -23 -9z"/>
</g>
</svg>
