<?xml version="1.0" standalone="no"?>
<!DOCTYPE svg PUBLIC "-//W3C//DTD SVG 20010904//EN"
 "http://www.w3.org/TR/2001/REC-SVG-20010904/DTD/svg10.dtd">
<svg version="1.0" xmlns="http://www.w3.org/2000/svg"
 width="22.000000pt" height="96.000000pt" viewBox="0 0 22.000000 96.000000"
 preserveAspectRatio="xMidYMid meet">
<metadata>
Created by potrace 1.14, written by Peter Selinger 2001-2017
</metadata>
<g transform="translate(0.000000,96.000000) scale(0.100000,-0.100000)"
fill="#000000" stroke="none">
<path fill="#000000" stroke="none" d="M50 933 c0 -15 7 -75 15 -133 8 -58 15
-181 15 -273 l0 -168 -28 -16 c-28 -16 -29 -18 -41 -162 l-12 -145 23 -18 c13
-10 26 -18 29 -18 4 0 10 55 14 123 8 149 9 153 47 173 l30 16 -7 77 -7 77 41
16 41 16 0 115 c0 63 3 134 6 158 6 44 5 44 -47 84 -29 22 -68 55 -86 73 l-33
33 0 -28z"/>
</g>
</svg>
