<?xml version="1.0" standalone="no"?>
<!DOCTYPE svg PUBLIC "-//W3C//DTD SVG 20010904//EN"
 "http://www.w3.org/TR/2001/REC-SVG-20010904/DTD/svg10.dtd">
<svg version="1.0" xmlns="http://www.w3.org/2000/svg"
 width="79.000000pt" height="228.000000pt" viewBox="0 0 79.000000 228.000000"
 preserveAspectRatio="xMidYMid meet">
<metadata>
Created by potrace 1.14, written by Peter Selinger 2001-2017
</metadata>
<g transform="translate(0.000000,228.000000) scale(0.100000,-0.100000)"
fill="#000000" stroke="none">
<path fill="#000000" stroke="none" d="M339 2239 c-45 -57 -50 -153 -13 -280
4 -13 -12 -23 -70 -44 l-74 -27 -20 -81 c-12 -45 -20 -82 -19 -83 8 -5 370
-95 372 -92 13 14 65 112 65 122 0 7 -11 29 -24 48 -18 26 -21 39 -14 53 11
19 3 108 -13 137 -6 12 -5 29 6 53 8 20 17 58 21 84 5 41 2 55 -20 94 -28 47
-49 57 -126 57 -33 0 -43 -6 -71 -41z"/>
<path fill="#000000" stroke="none" d="M125 1600 c15 -16 13 -20 -20 -46 l-35
-29 14 -47 c14 -45 13 -54 -25 -220 -45 -192 -45 -207 -13 -487 l16 -133 -26
-72 c-21 -59 -25 -92 -28 -199 -3 -110 -1 -126 12 -121 8 3 29 10 45 15 25 7
39 26 82 106 44 84 59 130 109 326 l58 229 23 -68 c12 -37 25 -69 27 -72 3 -2
51 37 108 88 57 51 106 96 110 99 6 5 -9 221 -27 388 l-5 51 36 12 c19 7 34
14 31 16 -2 2 -117 44 -256 92 -162 58 -246 83 -236 72z"/>
<path fill="#000000" stroke="none" d="M498 500 l-68 -79 0 -138 c0 -76 3
-161 6 -189 l6 -50 147 -18 c80 -9 153 -19 162 -22 11 -3 19 3 23 20 3 13 8
30 11 38 4 9 -22 24 -84 48 l-89 34 -5 50 c-3 28 -11 123 -18 211 -6 88 -15
163 -18 167 -3 3 -36 -29 -73 -72z"/>
</g>
</svg>
