<?xml version="1.0" standalone="no"?>
<!DOCTYPE svg PUBLIC "-//W3C//DTD SVG 20010904//EN"
 "http://www.w3.org/TR/2001/REC-SVG-20010904/DTD/svg10.dtd">
<svg version="1.0" xmlns="http://www.w3.org/2000/svg"
 width="31.000000pt" height="90.000000pt" viewBox="0 0 31.000000 90.000000"
 preserveAspectRatio="xMidYMid meet">
<metadata>
Created by potrace 1.14, written by Peter Selinger 2001-2017
</metadata>
<g transform="translate(0.000000,90.000000) scale(0.100000,-0.100000)"
fill="#000000" stroke="none">
<path fill="#000000" stroke="none" d="M158 889 c-11 -6 -18 -22 -18 -38 0
-23 -7 -31 -32 -41 -18 -7 -50 -29 -70 -49 l-38 -35 0 -97 c0 -76 3 -99 16
-110 12 -10 15 -28 12 -83 -3 -66 -1 -71 18 -74 18 -3 22 -12 28 -60 8 -64 -3
-249 -15 -273 -7 -13 -3 -18 17 -23 52 -13 61 -2 68 87 10 122 24 161 18 49
-3 -67 -2 -92 7 -92 7 0 11 -6 10 -13 -4 -29 3 -37 30 -37 21 0 32 6 36 21 4
12 2 24 -3 28 -7 4 -8 30 -2 77 5 39 8 98 7 131 -1 42 4 68 16 86 9 15 17 43
17 64 0 21 7 47 16 58 30 40 -4 294 -42 309 -12 5 -12 9 -2 26 7 11 21 20 30
20 13 0 7 11 -22 40 -40 41 -69 49 -102 29z"/>
</g>
</svg>
