<?xml version="1.0" standalone="no"?>
<!DOCTYPE svg PUBLIC "-//W3C//DTD SVG 20010904//EN"
 "http://www.w3.org/TR/2001/REC-SVG-20010904/DTD/svg10.dtd">
<svg version="1.0" xmlns="http://www.w3.org/2000/svg"
 width="268.000000pt" height="343.000000pt" viewBox="0 0 268.000000 343.000000"
 preserveAspectRatio="xMidYMid meet">
<metadata>
Created by potrace 1.14, written by Peter Selinger 2001-2017
</metadata>
<g transform="translate(0.000000,343.000000) scale(0.100000,-0.100000)"
fill="#000000" stroke="none">
<path fill="#000000" stroke="none" d="M1115 3410 c17 -19 16 -19 -101 -22
l-119 -3 -11 -109 c-10 -93 -17 -121 -50 -189 l-39 -79 -72 5 c-52 4 -84 12
-116 31 -24 14 -51 26 -59 26 -9 0 -45 -39 -81 -87 -52 -70 -67 -98 -72 -138
-5 -29 -31 -97 -63 -160 l-54 -110 6 -215 c4 -118 12 -243 18 -278 10 -60 13
-65 73 -116 35 -30 88 -71 119 -92 58 -40 68 -54 39 -54 -9 0 -13 -3 -9 -7 7
-7 -77 -32 -194 -57 l-54 -12 -54 -124 c-57 -133 -87 -231 -97 -322 -5 -42
-17 -73 -49 -125 -60 -94 -64 -136 -27 -279 l28 -111 -35 -56 c-37 -61 -54
-139 -32 -152 8 -5 113 -15 234 -23 202 -13 230 -13 321 2 98 17 100 17 116
-2 8 -11 42 -34 75 -51 32 -16 64 -34 71 -38 7 -5 19 -42 28 -83 8 -41 17 -85
20 -98 3 -12 27 -46 53 -75 l48 -53 103 22 c183 39 165 40 195 -6 l26 -40 242
0 c201 0 250 -3 286 -17 45 -17 47 -21 26 -95 -5 -16 3 -18 60 -18 64 0 67 1
158 66 l93 65 121 -6 c96 -6 150 -15 255 -45 74 -21 135 -37 137 -35 2 2 -29
299 -69 662 l-73 658 -38 51 -38 51 -5 524 -4 524 -81 185 c-73 164 -93 201
-187 329 -104 144 -105 145 -98 189 4 25 9 51 12 58 4 11 -8 14 -52 14 -32 0
-123 11 -204 25 -185 31 -720 115 -734 115 -5 0 -2 -9 8 -20z"/>
</g>
</svg>
