<?xml version="1.0" standalone="no"?>
<!DOCTYPE svg PUBLIC "-//W3C//DTD SVG 20010904//EN"
 "http://www.w3.org/TR/2001/REC-SVG-20010904/DTD/svg10.dtd">
<svg version="1.0" xmlns="http://www.w3.org/2000/svg"
 width="82.000000pt" height="180.000000pt" viewBox="0 0 82.000000 180.000000"
 preserveAspectRatio="xMidYMid meet">
<metadata>
Created by potrace 1.14, written by Peter Selinger 2001-2017
</metadata>
<g transform="translate(0.000000,180.000000) scale(0.100000,-0.100000)"
fill="#000000" stroke="none">
<path fill="#000000" stroke="none" d="M241 1786 c-55 -11 -55 -11 -78 -70
-21 -55 -21 -62 -8 -118 12 -54 12 -60 -3 -65 -9 -3 -44 -18 -78 -33 l-61 -27
-7 -97 c-6 -84 -5 -101 10 -124 l18 -27 16 55 17 55 7 -70 c4 -38 21 -111 37
-162 29 -90 31 -93 67 -103 20 -5 43 -10 50 -10 35 0 220 -197 299 -318 l55
-83 29 -178 c39 -242 65 -348 92 -381 l23 -27 48 35 c46 34 47 36 40 76 -13
80 -31 122 -83 194 l-52 74 10 151 c11 175 13 170 -84 247 -68 52 -68 54 -84
145 -10 55 -9 65 20 147 28 76 35 88 55 88 13 0 46 5 74 11 42 9 50 14 50 34
0 43 -30 110 -63 140 -19 17 -53 55 -77 85 -59 74 -63 77 -128 85 -116 14
-117 15 -81 110 l21 57 -20 21 c-11 12 -27 39 -36 60 -16 40 -16 40 -95 23z"/>
</g>
</svg>
