<?xml version="1.0" standalone="no"?>
<!DOCTYPE svg PUBLIC "-//W3C//DTD SVG 20010904//EN"
 "http://www.w3.org/TR/2001/REC-SVG-20010904/DTD/svg10.dtd">
<svg version="1.0" xmlns="http://www.w3.org/2000/svg"
 width="17.000000pt" height="98.000000pt" viewBox="0 0 17.000000 98.000000"
 preserveAspectRatio="xMidYMid meet">
<metadata>
Created by potrace 1.14, written by Peter Selinger 2001-2017
</metadata>
<g transform="translate(0.000000,98.000000) scale(0.100000,-0.100000)"
fill="#000000" stroke="none">
<path fill="#000000" stroke="none" d="M144 934 c-17 -44 -17 -46 4 -87 l21
-42 0 88 c1 48 -1 87 -3 87 -2 0 -12 -21 -22 -46z"/>
<path fill="#000000" stroke="none" d="M120 525 c-38 -28 -49 -45 -76 -119
-29 -78 -32 -101 -39 -244 l-7 -159 83 5 c46 2 85 5 87 7 1 1 1 124 0 273 l-3
271 -45 -34z"/>
</g>
</svg>
