<?xml version="1.0" standalone="no"?>
<!DOCTYPE svg PUBLIC "-//W3C//DTD SVG 20010904//EN"
 "http://www.w3.org/TR/2001/REC-SVG-20010904/DTD/svg10.dtd">
<svg version="1.0" xmlns="http://www.w3.org/2000/svg"
 width="228.000000pt" height="386.000000pt" viewBox="0 0 228.000000 386.000000"
 preserveAspectRatio="xMidYMid meet">
<metadata>
Created by potrace 1.14, written by Peter Selinger 2001-2017
</metadata>
<g transform="translate(0.000000,386.000000) scale(0.100000,-0.100000)"
fill="#000000" stroke="none">
<path fill="#000000" stroke="none" d="M2115 3792 c-156 -82 -425 -244 -589
-354 -99 -67 -136 -86 -225 -114 -83 -26 -123 -34 -186 -34 l-81 0 -23 118
c-37 183 -56 213 -153 243 -35 10 -70 19 -78 19 -20 0 -175 -104 -233 -156
l-46 -41 5 -59 c3 -32 13 -81 21 -107 8 -27 11 -52 7 -57 -5 -5 -79 -48 -164
-96 -396 -224 -376 -205 -367 -342 3 -46 6 -84 8 -86 2 -1 61 1 131 5 117 6
129 9 163 34 19 15 39 25 43 21 9 -10 5 -255 -7 -401 -6 -66 -11 -159 -11
-207 l0 -87 56 -93 57 -93 -11 -95 c-6 -52 -14 -140 -17 -195 -4 -55 -8 -109
-11 -120 -6 -26 72 -122 126 -153 45 -27 46 -32 24 -93 -8 -24 -55 -181 -105
-348 -83 -284 -92 -307 -127 -345 -37 -40 -39 -44 -51 -156 -10 -94 -10 -137
1 -235 l13 -120 72 -23 72 -23 31 22 c29 22 30 26 30 99 0 70 20 161 41 184 4
5 26 -7 48 -26 23 -19 60 -40 83 -47 39 -12 45 -11 94 15 l51 28 -44 94 c-41
85 -46 103 -52 195 l-7 102 46 145 c26 80 76 217 112 305 89 215 103 276 122
505 33 388 64 578 141 855 24 88 53 204 64 257 38 177 115 253 446 439 119 67
167 101 235 165 47 44 128 117 182 161 126 105 226 216 222 246 -2 12 -6 43
-9 70 -4 26 -9 47 -13 47 -4 0 -65 -31 -137 -68z"/>
</g>
</svg>
