<?xml version="1.0" standalone="no"?>
<!DOCTYPE svg PUBLIC "-//W3C//DTD SVG 20010904//EN"
 "http://www.w3.org/TR/2001/REC-SVG-20010904/DTD/svg10.dtd">
<svg version="1.0" xmlns="http://www.w3.org/2000/svg"
 width="132.000000pt" height="313.000000pt" viewBox="0 0 132.000000 313.000000"
 preserveAspectRatio="xMidYMid meet">
<metadata>
Created by potrace 1.14, written by Peter Selinger 2001-2017
</metadata>
<g transform="translate(0.000000,313.000000) scale(0.100000,-0.100000)"
fill="#000000" stroke="none">
<path fill="#000000" stroke="none" d="M406 3120 c-156 -5 -158 -5 -137 -24
15 -14 18 -22 10 -32 -7 -9 -5 -15 7 -22 16 -9 16 -10 -2 -19 -10 -5 -46 -20
-79 -33 -76 -29 -167 -114 -184 -172 -7 -22 -15 -46 -17 -53 -3 -7 4 -16 15
-20 16 -5 35 6 79 43 31 27 83 63 114 80 50 28 67 32 130 32 l73 -1 -90 -35
c-49 -19 -97 -38 -106 -40 -21 -7 -84 -91 -96 -129 -8 -24 -6 -35 10 -57 12
-16 24 -28 27 -28 4 0 50 25 102 55 72 41 105 54 132 53 20 -1 39 2 42 5 4 4
20 -5 36 -18 16 -14 33 -25 38 -25 5 0 14 -15 20 -34 6 -19 17 -39 25 -46 7
-6 21 -43 31 -83 20 -86 57 -142 119 -181 l46 -28 -24 -42 c-17 -29 -23 -51
-20 -77 4 -31 10 -39 42 -51 30 -12 46 -31 93 -109 31 -52 93 -139 138 -194
109 -132 105 -125 129 -242 17 -88 27 -113 75 -190 50 -80 57 -97 64 -166 l8
-77 -150 0 c-83 0 -157 -4 -165 -9 -9 -6 -26 -3 -48 7 -30 14 -37 14 -83 0
l-50 -16 -15 26 c-18 34 -18 34 0 -68 20 -111 19 -255 -1 -410 -17 -124 -17
-126 -101 -294 -63 -125 -98 -184 -137 -225 -90 -98 -87 -92 -74 -135 l12 -39
86 7 c81 6 87 8 115 40 29 32 43 37 350 117 176 45 322 84 323 85 2 1 -17 490
-44 1086 l-47 1083 -29 43 c-20 29 -36 42 -52 42 -65 0 -84 11 -110 64 -14 28
-42 62 -61 76 -20 14 -104 124 -197 257 -142 203 -166 232 -188 230 -14 -1
-96 -4 -184 -7z"/>
</g>
</svg>
