<?xml version="1.0" standalone="no"?>
<!DOCTYPE svg PUBLIC "-//W3C//DTD SVG 20010904//EN"
 "http://www.w3.org/TR/2001/REC-SVG-20010904/DTD/svg10.dtd">
<svg version="1.0" xmlns="http://www.w3.org/2000/svg"
 width="9.000000pt" height="28.000000pt" viewBox="0 0 9.000000 28.000000"
 preserveAspectRatio="xMidYMid meet">
<metadata>
Created by potrace 1.14, written by Peter Selinger 2001-2017
</metadata>
<g transform="translate(0.000000,28.000000) scale(0.100000,-0.100000)"
fill="#000000" stroke="none">
<path fill="#000000" stroke="none" d="M25 270 c-4 -6 -10 -38 -15 -70 -7 -47
-5 -67 7 -90 12 -24 12 -34 3 -45 -7 -8 -9 -26 -6 -40 5 -21 12 -25 42 -25 32
0 35 2 28 23 -9 26 -9 22 0 122 6 76 5 81 -18 108 -28 30 -32 32 -41 17z"/>
</g>
</svg>
