<?xml version="1.0" standalone="no"?>
<!DOCTYPE svg PUBLIC "-//W3C//DTD SVG 20010904//EN"
 "http://www.w3.org/TR/2001/REC-SVG-20010904/DTD/svg10.dtd">
<svg version="1.0" xmlns="http://www.w3.org/2000/svg"
 width="56.000000pt" height="130.000000pt" viewBox="0 0 56.000000 130.000000"
 preserveAspectRatio="xMidYMid meet">
<metadata>
Created by potrace 1.14, written by Peter Selinger 2001-2017
</metadata>
<g transform="translate(0.000000,130.000000) scale(0.100000,-0.100000)"
fill="#000000" stroke="none">
<path fill="#000000" stroke="none" d="M205 1293 c-31 -8 -44 -22 -54 -60 -9
-30 -6 -40 20 -81 16 -25 29 -52 29 -59 0 -15 -58 -43 -88 -43 -20 0 -52 -42
-92 -119 -49 -96 13 -208 86 -156 21 14 21 13 28 -53 3 -37 18 -125 32 -196
21 -104 24 -134 14 -154 -7 -16 -10 -75 -9 -157 1 -73 -1 -137 -5 -143 -9 -15
21 -72 37 -72 42 0 60 50 84 245 11 87 12 143 6 202 -5 48 -5 79 0 74 10 -10
32 -188 42 -341 4 -58 9 -112 11 -121 3 -9 22 -21 45 -27 34 -9 41 -8 47 6 4
10 7 134 6 277 -1 197 -5 278 -17 335 -8 41 -18 92 -22 114 l-6 38 28 -19 c15
-11 43 -28 61 -37 32 -17 35 -16 53 0 28 25 24 62 -11 94 -21 19 -40 57 -62
120 -26 73 -37 94 -60 106 -15 8 -34 14 -42 14 -27 0 -46 42 -46 103 0 80 -20
117 -63 116 -17 -1 -41 -4 -52 -6z"/>
</g>
</svg>
