<?xml version="1.0" standalone="no"?>
<!DOCTYPE svg PUBLIC "-//W3C//DTD SVG 20010904//EN"
 "http://www.w3.org/TR/2001/REC-SVG-20010904/DTD/svg10.dtd">
<svg version="1.0" xmlns="http://www.w3.org/2000/svg"
 width="37.000000pt" height="106.000000pt" viewBox="0 0 37.000000 106.000000"
 preserveAspectRatio="xMidYMid meet">
<metadata>
Created by potrace 1.14, written by Peter Selinger 2001-2017
</metadata>
<g transform="translate(0.000000,106.000000) scale(0.100000,-0.100000)"
fill="#000000" stroke="none">
<path fill="#000000" stroke="none" d="M110 1035 c-22 -23 -23 -29 -12 -57 13
-37 5 -58 -37 -87 -45 -33 -63 -98 -57 -217 2 -55 5 -127 5 -162 1 -59 3 -64
30 -80 38 -21 46 -66 43 -245 -2 -77 2 -145 7 -156 11 -19 71 -34 97 -24 9 3
12 13 8 29 -6 23 -5 23 45 17 59 -7 68 8 21 35 -16 9 -32 23 -35 30 -5 13 23
158 51 265 10 39 14 84 11 122 -4 57 -4 58 9 30 7 -16 13 -40 14 -53 0 -29 27
-39 48 -18 16 15 15 20 -1 64 -22 57 -30 88 -53 212 -19 104 -34 144 -64 163
-16 10 -20 23 -20 72 0 34 -5 66 -12 73 -21 21 -72 14 -98 -13z"/>
</g>
</svg>
