<?xml version="1.0" standalone="no"?>
<!DOCTYPE svg PUBLIC "-//W3C//DTD SVG 20010904//EN"
 "http://www.w3.org/TR/2001/REC-SVG-20010904/DTD/svg10.dtd">
<svg version="1.0" xmlns="http://www.w3.org/2000/svg"
 width="97.000000pt" height="383.000000pt" viewBox="0 0 97.000000 383.000000"
 preserveAspectRatio="xMidYMid meet">
<metadata>
Created by potrace 1.14, written by Peter Selinger 2001-2017
</metadata>
<g transform="translate(0.000000,383.000000) scale(0.100000,-0.100000)"
fill="#000000" stroke="none">
<path fill="#000000" stroke="none" d="M33 3798 l-32 -31 30 -59 c16 -32 45
-123 64 -201 37 -153 117 -399 212 -648 l59 -155 -48 -115 -48 -114 39 -175
c22 -96 69 -353 106 -571 l67 -397 -66 -379 -66 -378 -7 -275 c-5 -247 -4
-276 10 -289 14 -11 55 -11 244 -2 256 12 390 23 353 28 -14 2 -54 10 -90 19
l-66 15 -223 1174 -223 1174 76 98 76 98 -28 12 c-28 12 -28 12 -86 333 -46
253 -70 359 -115 503 -55 177 -59 185 -126 275 -38 50 -72 92 -75 92 -3 0 -20
-14 -37 -32z"/>
<path fill="#000000" stroke="none" d="M826 2905 l-116 -137 0 -108 c0 -102
-1 -108 -19 -103 -15 4 -19 1 -16 -14 3 -10 68 -414 145 -898 77 -484 142
-887 144 -895 2 -8 3 502 2 1134 -1 856 -4 1150 -12 1153 -7 2 -64 -57 -128
-132z"/>
</g>
</svg>
