<?xml version="1.0" standalone="no"?>
<!DOCTYPE svg PUBLIC "-//W3C//DTD SVG 20010904//EN"
 "http://www.w3.org/TR/2001/REC-SVG-20010904/DTD/svg10.dtd">
<svg version="1.0" xmlns="http://www.w3.org/2000/svg"
 width="64.000000pt" height="139.000000pt" viewBox="0 0 64.000000 139.000000"
 preserveAspectRatio="xMidYMid meet">
<metadata>
Created by potrace 1.14, written by Peter Selinger 2001-2017
</metadata>
<g transform="translate(0.000000,139.000000) scale(0.100000,-0.100000)"
fill="#000000" stroke="none">
<path fill="#000000" stroke="none" d="M333 1368 l-83 -20 7 -86 c4 -54 17
-119 35 -172 l29 -85 -33 -27 c-18 -15 -80 -64 -138 -110 l-104 -83 -23 -105
c-27 -126 -28 -173 -7 -412 l16 -183 41 -42 c23 -24 44 -43 48 -43 3 0 51 64
107 143 55 78 114 155 131 171 l31 30 0 341 0 342 43 30 c24 18 77 40 125 53
l82 22 -1 62 c0 48 -6 71 -28 106 -23 39 -35 48 -91 67 -79 26 -85 26 -187 1z"/>
</g>
</svg>
