<?xml version="1.0" standalone="no"?>
<!DOCTYPE svg PUBLIC "-//W3C//DTD SVG 20010904//EN"
 "http://www.w3.org/TR/2001/REC-SVG-20010904/DTD/svg10.dtd">
<svg version="1.0" xmlns="http://www.w3.org/2000/svg"
 width="24.000000pt" height="31.000000pt" viewBox="0 0 24.000000 31.000000"
 preserveAspectRatio="xMidYMid meet">
<metadata>
Created by potrace 1.14, written by Peter Selinger 2001-2017
</metadata>
<g transform="translate(0.000000,31.000000) scale(0.100000,-0.100000)"
fill="#000000" stroke="none">
<path fill="#000000" stroke="none" d="M71 272 c-10 -28 -10 -48 -3 -76 10
-34 9 -38 -11 -45 -43 -17 -55 -42 -50 -98 5 -47 8 -53 28 -53 36 0 55 10 55
30 0 28 67 53 110 40 19 -5 36 -10 38 -10 12 0 -14 139 -29 162 -11 14 -19 36
-19 49 0 12 -3 19 -7 16 -7 -8 -6 -71 2 -98 4 -13 1 -19 -9 -19 -12 0 -16 11
-16 51 0 65 -13 89 -49 89 -23 0 -30 -6 -40 -38z"/>
</g>
</svg>
