<?xml version="1.0" standalone="no"?>
<!DOCTYPE svg PUBLIC "-//W3C//DTD SVG 20010904//EN"
 "http://www.w3.org/TR/2001/REC-SVG-20010904/DTD/svg10.dtd">
<svg version="1.0" xmlns="http://www.w3.org/2000/svg"
 width="92.000000pt" height="169.000000pt" viewBox="0 0 92.000000 169.000000"
 preserveAspectRatio="xMidYMid meet">
<metadata>
Created by potrace 1.14, written by Peter Selinger 2001-2017
</metadata>
<g transform="translate(0.000000,169.000000) scale(0.100000,-0.100000)"
fill="#000000" stroke="none">
<path fill="#000000" stroke="none" d="M473 1677 c-52 -19 -66 -49 -73 -154
l-6 -94 -56 -57 c-31 -31 -75 -88 -97 -125 -23 -37 -74 -109 -114 -160 -102
-127 -110 -143 -117 -204 -3 -29 -3 -50 0 -46 4 5 29 37 57 73 67 85 302 306
307 288 15 -48 14 -104 -5 -260 l-22 -178 31 -104 c18 -57 32 -124 32 -149 0
-25 15 -118 34 -208 l34 -162 -19 -50 c-18 -45 -18 -87 -1 -87 4 0 26 17 48
38 l42 37 -8 185 c-5 102 -11 214 -14 250 l-6 65 24 -85 c12 -47 38 -116 56
-155 18 -38 45 -106 60 -150 39 -111 41 -115 54 -115 7 0 23 11 36 25 l24 25
-26 54 c-37 75 -63 267 -54 398 l7 97 -31 28 c-26 24 -42 59 -91 208 -33 99
-62 200 -64 225 l-5 45 66 48 c96 71 113 59 193 -135 45 -109 54 -142 63 -233
6 -58 14 -105 18 -105 14 0 28 25 41 70 7 25 17 50 22 57 10 14 0 73 -14 73
-5 0 -9 8 -9 18 0 9 -31 95 -68 190 l-68 173 -74 60 c-64 52 -78 69 -92 112
-9 29 -17 80 -17 113 -1 77 -20 89 -98 61z"/>
<path fill="#ffffff" stroke="none" d="M517 588 c-3 -8 -6 -5 -6 6 -1 11 2 17
5 13 3 -3 4 -12 1 -19z"/>
</g>
</svg>
