<?xml version="1.0" standalone="no"?>
<!DOCTYPE svg PUBLIC "-//W3C//DTD SVG 20010904//EN"
 "http://www.w3.org/TR/2001/REC-SVG-20010904/DTD/svg10.dtd">
<svg version="1.0" xmlns="http://www.w3.org/2000/svg"
 width="129.000000pt" height="83.000000pt" viewBox="0 0 129.000000 83.000000"
 preserveAspectRatio="xMidYMid meet">
<metadata>
Created by potrace 1.14, written by Peter Selinger 2001-2017
</metadata>
<g transform="translate(0.000000,83.000000) scale(0.100000,-0.100000)"
fill="#000000" stroke="none">
<path fill="#000000" stroke="none" d="M987 810 c-7 -10 -36 -37 -64 -60 -45
-35 -53 -48 -68 -102 -15 -58 -15 -67 -1 -106 18 -51 11 -68 -48 -108 -44 -30
-51 -30 -30 1 13 20 15 38 9 90 l-7 65 -31 -17 c-46 -23 -49 -30 -43 -108 l6
-70 -58 -43 c-31 -24 -95 -65 -142 -91 l-85 -48 -133 -6 c-131 -7 -133 -7
-212 -50 -44 -23 -80 -44 -79 -47 0 -3 20 -19 46 -37 45 -31 47 -31 92 -17 28
8 92 14 166 14 111 0 128 -3 228 -36 l107 -36 63 36 c109 62 133 80 187 141
43 48 71 68 139 101 47 22 101 53 119 68 28 24 32 34 32 77 0 28 -7 63 -15 79
-15 28 -14 33 11 82 15 29 46 78 70 109 l43 56 -42 41 -43 42 -101 0 c-90 0
-104 -2 -116 -20z"/>
</g>
</svg>
