<?xml version="1.0" standalone="no"?>
<!DOCTYPE svg PUBLIC "-//W3C//DTD SVG 20010904//EN"
 "http://www.w3.org/TR/2001/REC-SVG-20010904/DTD/svg10.dtd">
<svg version="1.0" xmlns="http://www.w3.org/2000/svg"
 width="12.000000pt" height="25.000000pt" viewBox="0 0 12.000000 25.000000"
 preserveAspectRatio="xMidYMid meet">
<metadata>
Created by potrace 1.14, written by Peter Selinger 2001-2017
</metadata>
<g transform="translate(0.000000,25.000000) scale(0.100000,-0.100000)"
fill="#000000" stroke="none">
<path fill="#000000" stroke="none" d="M9 238 c-8 -133 -7 -239 4 -235 7 2 13
17 15 35 4 37 32 67 32 34 0 -12 7 -25 17 -30 10 -6 14 -16 10 -26 -4 -10 -1
-16 7 -16 21 0 28 31 13 49 -8 9 -22 38 -31 66 -14 44 -14 50 -1 58 22 12 18
33 -11 56 -30 24 -54 27 -55 9z"/>
</g>
</svg>
