<?xml version="1.0" standalone="no"?>
<!DOCTYPE svg PUBLIC "-//W3C//DTD SVG 20010904//EN"
 "http://www.w3.org/TR/2001/REC-SVG-20010904/DTD/svg10.dtd">
<svg version="1.0" xmlns="http://www.w3.org/2000/svg"
 width="72.000000pt" height="73.000000pt" viewBox="0 0 72.000000 73.000000"
 preserveAspectRatio="xMidYMid meet">
<metadata>
Created by potrace 1.14, written by Peter Selinger 2001-2017
</metadata>
<g transform="translate(0.000000,73.000000) scale(0.100000,-0.100000)"
fill="#000000" stroke="none">
<path fill="#000000" stroke="none" d="M47 713 c-14 -17 -19 -50 -29 -205 -2
-20 -6 -40 -11 -44 -16 -16 -7 -153 12 -197 11 -23 21 -51 23 -62 3 -17 12
-20 67 -23 51 -2 66 0 78 15 12 15 14 15 10 2 -5 -14 6 -17 74 -21 44 -3 85
-10 91 -16 7 -7 14 -46 18 -89 4 -66 7 -74 19 -60 13 16 40 137 39 174 -1 59
15 230 23 238 6 5 9 4 10 -5 6 -124 23 -247 37 -262 21 -25 78 -24 94 2 9 14
24 20 50 20 53 0 69 27 63 105 -3 33 -4 65 -4 70 0 6 3 47 6 93 3 60 0 94 -10
121 -8 20 -13 49 -10 64 8 41 -20 77 -61 77 -18 0 -39 -6 -45 -14 -8 -10 -23
-13 -47 -9 -34 6 -74 -16 -74 -39 0 -5 -12 -25 -26 -44 -30 -39 -63 -44 -82
-14 -18 30 -75 27 -100 -5 -14 -18 -30 -25 -53 -25 -18 0 -41 -8 -52 -17 -19
-17 -20 -17 -9 2 15 30 13 136 -4 163 -18 27 -73 30 -97 5z"/>
<path fill="#ffffff" stroke="none" d="M127 458 c-3 -8 -6 -5 -6 6 -1 11 2 17
5 13 3 -3 4 -12 1 -19z"/>
<path fill="#ffffff" stroke="none" d="M245 402 c0 -9 -4 -22 -7 -27 -3 -6 -9
-31 -13 -57 -4 -27 -11 -48 -15 -48 -7 0 2 71 14 103 3 9 8 24 11 32 6 20 12
19 10 -3z"/>
</g>
</svg>
