<?xml version="1.0" standalone="no"?>
<!DOCTYPE svg PUBLIC "-//W3C//DTD SVG 20010904//EN"
 "http://www.w3.org/TR/2001/REC-SVG-20010904/DTD/svg10.dtd">
<svg version="1.0" xmlns="http://www.w3.org/2000/svg"
 width="19.000000pt" height="47.000000pt" viewBox="0 0 19.000000 47.000000"
 preserveAspectRatio="xMidYMid meet">
<metadata>
Created by potrace 1.14, written by Peter Selinger 2001-2017
</metadata>
<g transform="translate(0.000000,47.000000) scale(0.100000,-0.100000)"
fill="#000000" stroke="none">
<path fill="#000000" stroke="none" d="M29 458 c-1 -7 0 -25 1 -39 0 -14 -6
-31 -14 -39 -19 -15 -20 -50 -5 -137 9 -50 15 -63 29 -63 23 0 30 -19 30 -86
0 -59 22 -94 60 -94 23 0 24 1 9 33 -8 18 -7 32 5 62 9 20 16 62 16 92 0 38 4
55 15 59 8 4 15 15 15 27 0 19 -1 19 -18 4 -52 -47 -123 26 -96 97 9 24 24 20
62 -16 l34 -33 -22 38 c-12 20 -27 37 -34 37 -6 0 -16 15 -21 33 -8 25 -16 33
-37 35 -18 2 -28 -2 -29 -10z"/>
</g>
</svg>
