<?xml version="1.0" standalone="no"?>
<!DOCTYPE svg PUBLIC "-//W3C//DTD SVG 20010904//EN"
 "http://www.w3.org/TR/2001/REC-SVG-20010904/DTD/svg10.dtd">
<svg version="1.0" xmlns="http://www.w3.org/2000/svg"
 width="167.000000pt" height="175.000000pt" viewBox="0 0 167.000000 175.000000"
 preserveAspectRatio="xMidYMid meet">
<metadata>
Created by potrace 1.14, written by Peter Selinger 2001-2017
</metadata>
<g transform="translate(0.000000,175.000000) scale(0.100000,-0.100000)"
fill="#000000" stroke="none">
<path fill="#000000" stroke="none" d="M131 1736 c-33 -18 -101 -150 -101
-196 0 -20 -7 -62 -15 -93 -19 -74 -19 -103 0 -111 9 -3 23 -23 32 -43 8 -21
20 -41 27 -45 19 -13 46 -9 46 7 0 8 14 44 32 80 29 59 36 66 81 82 54 20 53
18 91 143 29 98 26 130 -16 165 -25 21 -40 25 -91 25 -34 -1 -73 -7 -86 -14z"/>
<path fill="#000000" stroke="none" d="M839 1705 c-40 -22 -49 -58 -47 -190 0
-71 -3 -129 -10 -141 -20 -38 29 -219 133 -489 53 -137 96 -264 96 -282 0 -17
-11 -114 -25 -215 -31 -234 -23 -305 44 -361 37 -31 107 -37 165 -13 61 26 62
39 11 215 -25 86 -46 167 -46 179 0 12 -27 74 -59 137 l-59 114 34 39 c18 22
56 54 84 72 54 34 58 44 35 77 -13 19 -13 27 6 79 28 82 51 202 47 241 -3 25
-1 30 9 21 22 -18 87 -14 119 7 l29 20 -58 6 c-32 4 -59 8 -61 10 -2 2 3 20
11 40 10 27 25 41 55 55 l40 18 -22 18 c-40 32 -131 13 -145 -31 -5 -16 -9
-15 -41 17 -41 41 -74 101 -74 134 0 17 9 27 30 35 36 14 64 70 54 111 -9 39
-42 71 -83 81 -59 15 -242 12 -272 -4z"/>
<path fill="#000000" stroke="none" d="M315 925 c-5 -2 -47 -14 -93 -26 -94
-24 -106 -37 -118 -127 -3 -29 -10 -52 -15 -52 -16 0 -38 -56 -44 -116 -7 -56
-5 -62 20 -93 27 -31 28 -36 26 -144 l-1 -112 35 -53 c19 -30 35 -58 35 -62 0
-20 52 -68 80 -74 48 -9 98 17 116 59 18 43 10 96 -17 121 -10 9 -19 23 -19
29 0 7 -6 17 -13 23 -10 8 -11 28 -6 77 5 53 2 85 -16 155 l-23 89 28 26 c19
18 26 33 23 49 -4 20 1 26 31 36 45 15 46 22 11 178 -5 21 -16 25 -40 17z"/>
<path fill="#000000" stroke="none" d="M1469 393 c-59 -3 -67 -6 -78 -29 -15
-34 -14 -63 4 -98 8 -15 15 -36 15 -46 0 -29 46 -77 80 -84 44 -8 99 17 112
52 6 16 24 36 40 45 33 19 34 30 12 109 l-17 58 -51 -2 c-28 -1 -81 -3 -117
-5z"/>
</g>
</svg>
