<?xml version="1.0" standalone="no"?>
<!DOCTYPE svg PUBLIC "-//W3C//DTD SVG 20010904//EN"
 "http://www.w3.org/TR/2001/REC-SVG-20010904/DTD/svg10.dtd">
<svg version="1.0" xmlns="http://www.w3.org/2000/svg"
 width="161.000000pt" height="306.000000pt" viewBox="0 0 161.000000 306.000000"
 preserveAspectRatio="xMidYMid meet">
<metadata>
Created by potrace 1.14, written by Peter Selinger 2001-2017
</metadata>
<g transform="translate(0.000000,306.000000) scale(0.100000,-0.100000)"
fill="#000000" stroke="none">
<path fill="#000000" stroke="none" d="M1169 3030 c-96 -42 -116 -75 -178
-294 -29 -100 -57 -194 -62 -211 -6 -16 -21 -63 -33 -103 l-22 -74 -90 -39
c-128 -57 -136 -67 -190 -246 l-46 -151 72 -105 c50 -72 71 -111 66 -123 -4
-9 1 -28 10 -42 16 -24 54 -192 54 -237 0 -15 -15 -28 -55 -48 l-55 -27 -28
50 -28 50 -39 -40 c-25 -26 -41 -36 -46 -28 -5 8 -17 5 -41 -8 -29 -17 -40
-38 -87 -154 -30 -74 -121 -292 -203 -484 l-148 -348 0 -112 c0 -61 -5 -140
-10 -176 -5 -35 -8 -66 -6 -67 2 -2 39 -6 82 -9 l79 -6 159 409 c87 224 194
498 238 608 l78 200 109 87 108 86 143 33 c78 19 149 38 156 44 7 5 81 151
163 324 142 296 155 318 222 392 l71 79 -22 63 c-16 47 -26 125 -42 325 l-22
264 -146 73 -146 73 -65 -28z"/>
</g>
</svg>
