<?xml version="1.0" standalone="no"?>
<!DOCTYPE svg PUBLIC "-//W3C//DTD SVG 20010904//EN"
 "http://www.w3.org/TR/2001/REC-SVG-20010904/DTD/svg10.dtd">
<svg version="1.0" xmlns="http://www.w3.org/2000/svg"
 width="131.000000pt" height="121.000000pt" viewBox="0 0 131.000000 121.000000"
 preserveAspectRatio="xMidYMid meet">
<metadata>
Created by potrace 1.14, written by Peter Selinger 2001-2017
</metadata>
<g transform="translate(0.000000,121.000000) scale(0.100000,-0.100000)"
fill="#000000" stroke="none">
<path fill="#000000" stroke="none" d="M565 1204 c-62 -9 -73 -15 -99 -52 -16
-24 -26 -51 -26 -74 0 -146 -19 -164 -225 -217 -126 -32 -150 -42 -180 -71
l-35 -34 60 -39 c50 -33 70 -40 126 -45 48 -3 62 -7 50 -14 -14 -8 -17 -24
-15 -81 0 -40 -4 -88 -10 -107 -6 -19 -11 -38 -11 -41 0 -3 49 -28 108 -54
l108 -48 56 -86 c31 -47 77 -120 102 -163 l46 -76 63 5 c34 2 67 6 74 8 7 3
13 30 15 72 l3 67 152 65 152 65 23 55 c14 35 46 81 88 126 36 38 78 90 94
114 l28 43 -27 28 c-27 29 -44 81 -45 138 0 18 -13 59 -30 92 -21 43 -30 74
-30 110 l0 50 -58 0 c-36 0 -93 -11 -150 -29 l-91 -28 -35 23 c-21 14 -37 35
-41 52 -4 19 -29 50 -69 85 -66 58 -100 70 -171 61z"/>
</g>
</svg>
