<?xml version="1.0" standalone="no"?>
<!DOCTYPE svg PUBLIC "-//W3C//DTD SVG 20010904//EN"
 "http://www.w3.org/TR/2001/REC-SVG-20010904/DTD/svg10.dtd">
<svg version="1.0" xmlns="http://www.w3.org/2000/svg"
 width="49.000000pt" height="40.000000pt" viewBox="0 0 49.000000 40.000000"
 preserveAspectRatio="xMidYMid meet">
<metadata>
Created by potrace 1.14, written by Peter Selinger 2001-2017
</metadata>
<g transform="translate(0.000000,40.000000) scale(0.100000,-0.100000)"
fill="#000000" stroke="none">
<path fill="#000000" stroke="none" d="M130 355 c-86 -51 -108 -85 -109 -173
-1 -29 -5 -61 -10 -71 -8 -13 4 -112 12 -111 1 0 104 15 229 34 126 18 230 35
232 37 14 13 -35 151 -76 214 -44 68 -46 71 -115 93 -38 12 -74 22 -79 22 -5
-1 -43 -21 -84 -45z"/>
</g>
</svg>
