<?xml version="1.0" standalone="no"?>
<!DOCTYPE svg PUBLIC "-//W3C//DTD SVG 20010904//EN"
 "http://www.w3.org/TR/2001/REC-SVG-20010904/DTD/svg10.dtd">
<svg version="1.0" xmlns="http://www.w3.org/2000/svg"
 width="17.000000pt" height="19.000000pt" viewBox="0 0 17.000000 19.000000"
 preserveAspectRatio="xMidYMid meet">
<metadata>
Created by potrace 1.14, written by Peter Selinger 2001-2017
</metadata>
<g transform="translate(0.000000,19.000000) scale(0.100000,-0.100000)"
fill="#000000" stroke="none">
<path fill="#000000" stroke="none" d="M23 173 c-3 -10 -11 -21 -17 -25 -8 -5
-4 -20 9 -45 17 -33 25 -38 55 -38 32 -1 35 -4 38 -34 3 -28 6 -32 25 -27 12
3 25 6 30 6 14 0 7 28 -9 34 -8 3 -14 14 -12 24 4 24 -19 52 -42 52 -20 0 -36
17 -41 44 -5 26 -27 32 -36 9z"/>
</g>
</svg>
