<?xml version="1.0" standalone="no"?>
<!DOCTYPE svg PUBLIC "-//W3C//DTD SVG 20010904//EN"
 "http://www.w3.org/TR/2001/REC-SVG-20010904/DTD/svg10.dtd">
<svg version="1.0" xmlns="http://www.w3.org/2000/svg"
 width="56.000000pt" height="92.000000pt" viewBox="0 0 56.000000 92.000000"
 preserveAspectRatio="xMidYMid meet">
<metadata>
Created by potrace 1.14, written by Peter Selinger 2001-2017
</metadata>
<g transform="translate(0.000000,92.000000) scale(0.100000,-0.100000)"
fill="#000000" stroke="none">
<path fill="#000000" stroke="none" d="M138 875 c-34 -47 -34 -47 -26 -116 7
-60 5 -81 -17 -156 -21 -72 -25 -108 -25 -210 0 -111 -3 -129 -29 -195 -16
-41 -30 -100 -33 -133 l-4 -61 31 4 c48 6 70 31 89 102 22 83 78 221 91 226 5
1 80 6 166 9 l157 7 12 130 c17 171 8 286 -27 346 -14 24 -35 47 -47 51 -12 5
-73 14 -136 20 -63 7 -127 14 -141 17 -22 4 -32 -2 -61 -41z"/>
</g>
</svg>
