<?xml version="1.0" standalone="no"?>
<!DOCTYPE svg PUBLIC "-//W3C//DTD SVG 20010904//EN"
 "http://www.w3.org/TR/2001/REC-SVG-20010904/DTD/svg10.dtd">
<svg version="1.0" xmlns="http://www.w3.org/2000/svg"
 width="258.000000pt" height="341.000000pt" viewBox="0 0 258.000000 341.000000"
 preserveAspectRatio="xMidYMid meet">
<metadata>
Created by potrace 1.14, written by Peter Selinger 2001-2017
</metadata>
<g transform="translate(0.000000,341.000000) scale(0.100000,-0.100000)"
fill="#000000" stroke="none">
<path fill="#000000" stroke="none" d="M830 3369 c-47 -22 -116 -64 -155 -93
-38 -29 -95 -71 -126 -93 l-55 -41 -38 -129 c-28 -98 -46 -196 -75 -410 -43
-316 -29 -278 -155 -418 l-70 -77 -11 -156 c-10 -143 -8 -200 22 -632 l33
-475 -98 -420 c-55 -231 -99 -420 -98 -421 3 -2 1358 45 1360 47 2 2 20 200
40 440 32 386 66 969 65 1117 -1 29 1 56 4 58 3 3 145 -7 316 -22 l310 -28 97
23 97 22 141 115 c78 64 142 119 144 124 2 4 -78 123 -178 263 -99 141 -180
259 -180 263 0 5 88 156 145 250 12 19 7 25 -63 81 l-77 60 -157 37 -158 38
-48 53 c-35 40 -113 96 -304 218 l-256 165 -177 41 c-96 22 -184 41 -193 40
-9 0 -55 -18 -102 -40z"/>
</g>
</svg>
