<?xml version="1.0" standalone="no"?>
<!DOCTYPE svg PUBLIC "-//W3C//DTD SVG 20010904//EN"
 "http://www.w3.org/TR/2001/REC-SVG-20010904/DTD/svg10.dtd">
<svg version="1.0" xmlns="http://www.w3.org/2000/svg"
 width="14.000000pt" height="37.000000pt" viewBox="0 0 14.000000 37.000000"
 preserveAspectRatio="xMidYMid meet">
<metadata>
Created by potrace 1.14, written by Peter Selinger 2001-2017
</metadata>
<g transform="translate(0.000000,37.000000) scale(0.100000,-0.100000)"
fill="#000000" stroke="none">
<path fill="#000000" stroke="none" d="M53 363 c-7 -2 -13 -13 -13 -23 0 -10
-9 -37 -20 -61 -24 -53 -27 -84 -5 -56 19 26 51 14 64 -25 13 -37 9 -45 -30
-53 l-31 -7 7 -61 c3 -34 7 -63 8 -63 1 -1 15 -4 31 -6 28 -3 31 1 47 45 10
26 20 85 24 130 7 80 6 84 -19 114 -14 17 -26 40 -26 52 0 20 -12 25 -37 14z"/>
</g>
</svg>
