<?xml version="1.0" standalone="no"?>
<!DOCTYPE svg PUBLIC "-//W3C//DTD SVG 20010904//EN"
 "http://www.w3.org/TR/2001/REC-SVG-20010904/DTD/svg10.dtd">
<svg version="1.0" xmlns="http://www.w3.org/2000/svg"
 width="332.000000pt" height="234.000000pt" viewBox="0 0 332.000000 234.000000"
 preserveAspectRatio="xMidYMid meet">
<metadata>
Created by potrace 1.14, written by Peter Selinger 2001-2017
</metadata>
<g transform="translate(0.000000,234.000000) scale(0.100000,-0.100000)"
fill="#000000" stroke="none">
<path fill="#000000" stroke="none" d="M1445 2331 c-33 -4 -81 -18 -107 -31
-40 -20 -49 -31 -67 -77 -11 -29 -23 -83 -27 -118 -6 -60 -9 -65 -27 -59 -17
5 -19 3 -13 -22 14 -61 28 -84 51 -84 18 0 24 -9 34 -54 7 -30 19 -57 27 -60
7 -3 14 -9 14 -13 0 -4 -43 -37 -96 -73 -95 -65 -95 -65 -250 -281 -84 -118
-164 -225 -176 -236 -13 -11 -138 -102 -278 -203 -238 -170 -257 -181 -290
-176 -19 3 -60 8 -90 12 l-55 6 -33 -43 c-44 -58 -43 -76 6 -71 l37 4 -54 -56
c-44 -44 -51 -57 -38 -62 13 -5 14 -9 5 -24 -16 -25 19 -94 42 -84 8 4 33 12
55 18 22 7 62 26 88 43 27 17 71 40 99 50 28 10 61 30 73 45 l24 28 34 -40 34
-40 22 31 c13 17 20 33 17 36 -3 4 1 14 10 24 9 10 14 25 11 33 -4 11 13 27
61 55 l66 40 27 -25 c15 -15 31 -25 36 -23 6 2 68 39 139 83 88 54 140 92 164
123 27 33 40 42 55 38 41 -12 49 -9 79 31 17 22 44 46 60 52 16 7 30 11 31 9
1 -1 35 -41 76 -88 42 -47 102 -128 134 -180 32 -52 103 -152 157 -224 81
-106 98 -135 94 -155 -3 -14 -9 -82 -12 -152 -7 -122 -8 -127 -30 -130 l-22
-3 30 -71 30 -71 76 -32 c76 -31 117 -39 124 -23 2 5 47 26 101 47 86 34 101
43 117 74 l18 36 -30 32 c-25 26 -29 36 -23 61 6 28 13 32 78 52 156 46 173
53 206 81 l35 29 -16 34 c-15 30 -24 36 -76 47 l-59 14 14 48 14 47 78 0 79 0
36 -44 c31 -39 36 -51 36 -98 l0 -54 69 -17 68 -18 99 39 99 39 37 85 36 85
-12 94 c-10 73 -21 111 -51 171 -36 71 -42 77 -75 83 -20 3 -58 1 -85 -5 l-50
-11 -86 93 c-68 73 -91 104 -103 146 -14 43 -26 59 -72 93 -30 23 -70 63 -89
89 -34 47 -119 219 -111 227 9 10 389 -82 464 -112 45 -18 82 -30 82 -26 0 4
6 15 13 25 12 16 19 16 137 -4 69 -11 148 -28 176 -36 49 -15 53 -15 92 5 33
17 46 19 71 10 26 -9 33 -19 42 -55 9 -33 16 -44 28 -42 12 2 18 19 22 63 6
60 6 60 -35 103 -39 41 -42 42 -106 42 -36 0 -81 -5 -100 -10 -31 -9 -47 -6
-147 37 -103 44 -112 50 -115 77 -3 25 -16 37 -89 81 -114 70 -260 115 -389
122 -98 5 -238 41 -272 70 -14 13 -36 13 -150 4 -73 -6 -155 -13 -181 -16 -47
-6 -48 -5 -36 16 6 12 29 39 51 60 39 37 43 59 10 59 -38 0 -59 27 -66 85 -10
87 -74 155 -160 169 -12 2 -48 0 -81 -3z"/>
</g>
</svg>
