<?xml version="1.0" standalone="no"?>
<!DOCTYPE svg PUBLIC "-//W3C//DTD SVG 20010904//EN"
 "http://www.w3.org/TR/2001/REC-SVG-20010904/DTD/svg10.dtd">
<svg version="1.0" xmlns="http://www.w3.org/2000/svg"
 width="15.000000pt" height="51.000000pt" viewBox="0 0 15.000000 51.000000"
 preserveAspectRatio="xMidYMid meet">
<metadata>
Created by potrace 1.14, written by Peter Selinger 2001-2017
</metadata>
<g transform="translate(0.000000,51.000000) scale(0.100000,-0.100000)"
fill="#000000" stroke="none">
<path fill="#000000" stroke="none" d="M37 443 c-41 -106 -43 -139 -13 -222
27 -75 34 -158 16 -192 -8 -15 -7 -19 4 -19 9 0 17 19 24 57 l9 58 2 -56 c1
-38 6 -59 15 -62 16 -6 23 47 32 238 3 66 10 133 16 148 9 24 8 30 -11 43 -13
10 -21 26 -21 45 0 24 -4 29 -23 29 -20 0 -28 -11 -50 -67z"/>
</g>
</svg>
