<?xml version="1.0" standalone="no"?>
<!DOCTYPE svg PUBLIC "-//W3C//DTD SVG 20010904//EN"
 "http://www.w3.org/TR/2001/REC-SVG-20010904/DTD/svg10.dtd">
<svg version="1.0" xmlns="http://www.w3.org/2000/svg"
 width="144.000000pt" height="320.000000pt" viewBox="0 0 144.000000 320.000000"
 preserveAspectRatio="xMidYMid meet">
<metadata>
Created by potrace 1.14, written by Peter Selinger 2001-2017
</metadata>
<g transform="translate(0.000000,320.000000) scale(0.100000,-0.100000)"
fill="#000000" stroke="none">
<path fill="#000000" stroke="none" d="M430 3180 c-41 -9 -87 -20 -102 -23
-18 -5 -54 -41 -109 -108 l-81 -101 7 -171 7 -172 64 -101 c61 -95 66 -108 80
-198 l15 -96 -33 -39 c-18 -22 -73 -83 -123 -137 l-90 -97 -22 -151 -21 -151
33 -110 c88 -286 96 -324 84 -388 -9 -51 -20 -72 -75 -140 -45 -56 -62 -83
-54 -91 5 -5 10 -27 10 -47 0 -31 6 -43 33 -63 19 -15 36 -26 40 -26 3 0 41
56 84 125 l78 125 12 -157 c11 -143 112 -805 125 -818 5 -6 413 23 435 30 6 2
14 18 18 35 l7 31 42 -68 41 -68 95 -3 c83 -2 222 14 382 44 l28 6 -19 36
c-28 56 -79 338 -92 512 -11 146 -14 160 -49 236 l-37 81 42 114 c49 131 51
120 -35 219 -69 81 -124 218 -139 350 -7 64 -22 115 -59 205 -27 66 -66 180
-86 254 -37 134 -37 135 -102 207 -76 85 -94 117 -94 164 0 33 5 38 75 82 l75
48 -44 88 c-30 60 -50 116 -60 173 -9 46 -28 118 -43 160 l-26 75 -76 45 c-41
24 -96 56 -121 70 l-45 25 -75 -16z"/>
</g>
</svg>
