<?xml version="1.0" standalone="no"?>
<!DOCTYPE svg PUBLIC "-//W3C//DTD SVG 20010904//EN"
 "http://www.w3.org/TR/2001/REC-SVG-20010904/DTD/svg10.dtd">
<svg version="1.0" xmlns="http://www.w3.org/2000/svg"
 width="229.000000pt" height="418.000000pt" viewBox="0 0 229.000000 418.000000"
 preserveAspectRatio="xMidYMid meet">
<metadata>
Created by potrace 1.14, written by Peter Selinger 2001-2017
</metadata>
<g transform="translate(0.000000,418.000000) scale(0.100000,-0.100000)"
fill="#000000" stroke="none">
<path fill="#000000" stroke="none" d="M1034 4147 l-101 -30 -36 -73 c-37 -75
-107 -326 -107 -384 0 -40 -39 -116 -91 -176 -38 -45 -41 -50 -37 -102 l3 -54
-244 -74 c-135 -41 -247 -76 -249 -79 -2 -2 2 -36 9 -74 12 -70 12 -72 -11
-96 -14 -15 -30 -23 -39 -20 -12 5 -13 -14 -8 -131 l6 -137 -59 -72 -59 -72
-7 -155 c-6 -143 -5 -161 15 -228 20 -65 22 -92 20 -224 -2 -83 0 -223 5 -311
8 -147 7 -166 -12 -230 -16 -56 -19 -80 -12 -120 5 -27 9 -55 9 -62 1 -6 43
-48 95 -92 89 -77 96 -81 142 -81 26 0 78 10 115 22 98 31 99 30 99 -107 0
-108 -3 -124 -40 -239 -24 -73 -40 -143 -40 -172 -1 -27 -7 -78 -15 -114 -17
-79 -40 -398 -31 -434 l6 -26 964 0 964 0 -20 77 c-20 80 -88 207 -118 223
-10 5 -58 24 -107 41 -52 19 -100 43 -118 60 l-29 28 22 24 22 23 -210 139
c-115 77 -210 142 -210 146 0 4 13 12 30 19 16 7 28 16 25 20 -12 20 -224 133
-347 186 -130 55 -138 61 -138 86 l0 28 98 1 97 0 -165 55 c-91 30 -212 68
-270 85 -58 17 -108 34 -111 37 -3 4 0 28 8 54 16 52 12 51 173 64 l85 6 -132
67 -131 66 49 55 c35 39 49 63 49 85 1 60 8 62 124 22 58 -21 109 -37 113 -37
4 0 -36 44 -90 98 -86 86 -100 105 -112 153 -8 30 -15 56 -15 59 0 3 26 3 58
0 70 -7 169 -50 240 -103 49 -38 54 -39 79 -26 34 18 84 81 117 147 l27 53
-20 54 c-18 47 -18 55 -5 66 8 7 11 15 5 18 -11 7 -38 149 -52 271 -5 47 -12
93 -15 102 -3 9 -1 25 4 35 6 10 20 43 33 73 38 87 59 106 116 105 l48 0 5
-40 c4 -31 7 -36 13 -21 4 10 2 56 -5 103 -11 74 -10 87 4 111 13 21 26 28 65
33 26 3 65 9 86 13 25 6 37 5 37 -3 0 -6 9 -20 19 -30 48 -48 101 27 101 140
0 67 -2 75 -46 145 -25 41 -50 77 -55 79 -5 3 -51 -6 -104 -20 -53 -15 -100
-25 -105 -23 -4 2 9 59 31 128 35 113 38 136 39 240 1 63 7 149 14 190 l12 75
-45 65 c-64 94 -77 106 -161 154 -71 41 -188 77 -242 75 -13 -1 -68 -15 -124
-32z"/>
</g>
</svg>
