<?xml version="1.0" standalone="no"?>
<!DOCTYPE svg PUBLIC "-//W3C//DTD SVG 20010904//EN"
 "http://www.w3.org/TR/2001/REC-SVG-20010904/DTD/svg10.dtd">
<svg version="1.0" xmlns="http://www.w3.org/2000/svg"
 width="63.000000pt" height="182.000000pt" viewBox="0 0 63.000000 182.000000"
 preserveAspectRatio="xMidYMid meet">
<metadata>
Created by potrace 1.14, written by Peter Selinger 2001-2017
</metadata>
<g transform="translate(0.000000,182.000000) scale(0.100000,-0.100000)"
fill="#000000" stroke="none">
<path fill="#000000" stroke="none" d="M38 1778 c-29 -74 -37 -263 -16 -398
10 -63 18 -136 18 -163 0 -26 13 -116 30 -200 16 -83 32 -201 35 -262 4 -60
16 -157 27 -213 17 -85 25 -105 42 -112 19 -8 148 -30 175 -30 16 0 14 185 -5
377 -8 90 -14 169 -12 174 2 6 22 -38 45 -98 40 -104 41 -114 52 -286 10 -164
13 -181 35 -210 23 -30 25 -44 32 -190 4 -87 10 -160 14 -162 4 -2 26 24 51
58 l43 62 12 565 c17 777 17 1055 1 1067 -30 24 -121 42 -242 48 -71 3 -173 8
-225 11 l-95 5 -17 -43z"/>
</g>
</svg>
