<?xml version="1.0" standalone="no"?>
<!DOCTYPE svg PUBLIC "-//W3C//DTD SVG 20010904//EN"
 "http://www.w3.org/TR/2001/REC-SVG-20010904/DTD/svg10.dtd">
<svg version="1.0" xmlns="http://www.w3.org/2000/svg"
 width="95.000000pt" height="111.000000pt" viewBox="0 0 95.000000 111.000000"
 preserveAspectRatio="xMidYMid meet">
<metadata>
Created by potrace 1.14, written by Peter Selinger 2001-2017
</metadata>
<g transform="translate(0.000000,111.000000) scale(0.100000,-0.100000)"
fill="#000000" stroke="none">
<path fill="#000000" stroke="none" d="M240 1048 c-65 -40 -94 -64 -93 -75 3
-36 34 -259 38 -276 2 -12 -26 -47 -87 -108 -81 -80 -91 -94 -95 -133 -3 -26
-1 -46 6 -50 6 -4 11 -18 11 -30 0 -21 6 -24 57 -29 149 -15 165 -20 262 -72
l96 -53 9 -105 8 -106 27 5 c125 21 158 23 259 9 210 -27 200 -27 207 -4 8 23
-12 80 -32 92 -7 4 -13 15 -13 24 0 9 -18 38 -41 65 -22 26 -51 74 -65 105
-53 119 -87 180 -140 251 -46 61 -59 72 -84 72 -27 0 -30 3 -30 33 0 21 8 41
20 52 26 23 25 61 -1 155 -12 41 -27 104 -33 140 l-11 65 -91 16 -90 15 -94
-58z"/>
</g>
</svg>
