<?xml version="1.0" standalone="no"?>
<!DOCTYPE svg PUBLIC "-//W3C//DTD SVG 20010904//EN"
 "http://www.w3.org/TR/2001/REC-SVG-20010904/DTD/svg10.dtd">
<svg version="1.0" xmlns="http://www.w3.org/2000/svg"
 width="115.000000pt" height="94.000000pt" viewBox="0 0 115.000000 94.000000"
 preserveAspectRatio="xMidYMid meet">
<metadata>
Created by potrace 1.14, written by Peter Selinger 2001-2017
</metadata>
<g transform="translate(0.000000,94.000000) scale(0.100000,-0.100000)"
fill="#000000" stroke="none">
<path fill="#000000" stroke="none" d="M66 921 c-16 -11 -33 -26 -38 -34 -8
-16 -14 -144 -24 -594 l-6 -293 467 0 c400 0 481 2 558 17 87 17 89 18 109 57
22 43 23 28 -19 296 -20 123 -35 188 -62 255 l-36 89 -140 83 c-77 46 -166 97
-197 113 l-57 30 -263 0 c-243 0 -265 -2 -292 -19z"/>
</g>
</svg>
