<?xml version="1.0" standalone="no"?>
<!DOCTYPE svg PUBLIC "-//W3C//DTD SVG 20010904//EN"
 "http://www.w3.org/TR/2001/REC-SVG-20010904/DTD/svg10.dtd">
<svg version="1.0" xmlns="http://www.w3.org/2000/svg"
 width="47.000000pt" height="57.000000pt" viewBox="0 0 47.000000 57.000000"
 preserveAspectRatio="xMidYMid meet">
<metadata>
Created by potrace 1.14, written by Peter Selinger 2001-2017
</metadata>
<g transform="translate(0.000000,57.000000) scale(0.100000,-0.100000)"
fill="#000000" stroke="none">
<path fill="#000000" stroke="none" d="M235 563 c-38 -10 -55 -34 -55 -81 0
-44 0 -44 -22 -28 -29 21 -106 56 -122 56 -11 0 -36 -39 -36 -55 0 -3 13 -5
29 -5 19 0 45 -13 73 -36 60 -50 66 -56 46 -49 -10 4 -18 5 -18 3 0 -15 53
-135 66 -149 24 -26 22 -117 -3 -167 l-19 -39 74 -7 c100 -8 172 -8 172 2 -1
4 -6 17 -14 30 -9 17 -10 37 -3 77 9 46 15 56 39 66 19 8 27 17 24 28 -3 9 -8
36 -11 61 -6 37 -17 54 -60 95 -39 38 -54 60 -59 89 -8 43 -53 117 -70 115 -6
-1 -20 -4 -31 -6z"/>
</g>
</svg>
