<?xml version="1.0" standalone="no"?>
<!DOCTYPE svg PUBLIC "-//W3C//DTD SVG 20010904//EN"
 "http://www.w3.org/TR/2001/REC-SVG-20010904/DTD/svg10.dtd">
<svg version="1.0" xmlns="http://www.w3.org/2000/svg"
 width="96.000000pt" height="306.000000pt" viewBox="0 0 96.000000 306.000000"
 preserveAspectRatio="xMidYMid meet">
<metadata>
Created by potrace 1.14, written by Peter Selinger 2001-2017
</metadata>
<g transform="translate(0.000000,306.000000) scale(0.100000,-0.100000)"
fill="#000000" stroke="none">
<path fill="#000000" stroke="none" d="M305 3006 c-70 -70 -95 -112 -95 -161
l-1 -40 -25 30 -25 30 3 -125 c2 -69 2 -279 0 -467 l-2 -343 -80 0 c-44 0 -80
-2 -80 -5 0 -2 5 -26 11 -53 l10 -49 90 -41 89 -41 0 -65 c0 -35 4 -76 10 -91
5 -14 20 -222 32 -463 l22 -437 49 -67 c43 -59 52 -81 68 -156 l18 -87 -27
-45 c-26 -43 -92 -195 -92 -211 0 -7 88 -51 130 -64 18 -6 35 5 91 61 l69 68
0 -34 c0 -19 5 -51 10 -70 l10 -36 132 -22 133 -22 20 25 c11 14 32 60 47 103
25 71 27 89 28 231 0 142 -2 161 -29 245 -25 81 -30 116 -40 306 -7 118 -19
259 -27 312 -22 150 -18 212 21 369 19 76 47 216 60 311 l25 171 -61 161 c-78
205 -130 314 -267 560 l-111 199 -77 33 c-43 19 -79 34 -81 34 -3 0 -28 -24
-58 -54z"/>
</g>
</svg>
