<?xml version="1.0" standalone="no"?>
<!DOCTYPE svg PUBLIC "-//W3C//DTD SVG 20010904//EN"
 "http://www.w3.org/TR/2001/REC-SVG-20010904/DTD/svg10.dtd">
<svg version="1.0" xmlns="http://www.w3.org/2000/svg"
 width="160.000000pt" height="267.000000pt" viewBox="0 0 160.000000 267.000000"
 preserveAspectRatio="xMidYMid meet">
<metadata>
Created by potrace 1.14, written by Peter Selinger 2001-2017
</metadata>
<g transform="translate(0.000000,267.000000) scale(0.100000,-0.100000)"
fill="#000000" stroke="none">
<path fill="#000000" stroke="none" d="M389 2653 c-67 -46 -188 -146 -230
-190 -64 -66 -72 -97 -59 -219 14 -130 23 -156 81 -235 45 -61 49 -71 49 -123
0 -47 -3 -56 -17 -56 -10 0 -40 -13 -68 -28 -46 -25 -52 -33 -83 -111 -19 -47
-35 -94 -35 -105 0 -12 3 -133 8 -271 l8 -249 34 39 c18 21 35 36 37 34 2 -2
24 -50 49 -106 25 -56 60 -123 77 -148 l32 -46 69 7 c45 4 78 3 92 -4 160 -81
241 -100 265 -61 19 31 90 59 132 53 29 -4 41 0 70 24 l35 30 -22 53 c-28 71
-34 159 -16 232 14 55 13 61 -13 150 -15 51 -29 98 -32 105 -6 17 163 -67 238
-118 30 -20 96 -52 145 -70 68 -25 109 -49 165 -95 41 -33 83 -67 93 -74 16
-12 21 -5 63 85 l46 98 -51 46 c-27 25 -53 57 -56 72 -5 18 -33 45 -100 92
-51 37 -116 93 -144 124 -49 57 -94 82 -148 82 -12 0 -36 19 -57 44 -28 34
-70 63 -181 123 -80 43 -145 81 -145 85 0 5 31 41 70 81 89 94 114 149 106
233 -8 79 -36 159 -82 237 -51 85 -59 94 -138 145 -68 44 -71 45 -165 49 -81
4 -100 1 -122 -14z"/>
<path fill="#000000" stroke="none" d="M15 903 c-3 -21 -9 -48 -12 -60 -4 -17
-1 -23 11 -23 13 0 16 12 16 60 0 33 -2 60 -4 60 -2 0 -7 -17 -11 -37z"/>
<path fill="#000000" stroke="none" d="M200 448 c-41 -5 -93 -7 -116 -4 l-40
5 0 -102 c1 -56 -5 -150 -13 -210 -12 -85 -12 -110 -2 -120 8 -8 56 -13 141
-16 l130 -3 0 63 c0 35 13 132 30 214 16 83 30 158 30 168 0 20 -33 21 -160 5z"/>
</g>
</svg>
