<?xml version="1.0" standalone="no"?>
<!DOCTYPE svg PUBLIC "-//W3C//DTD SVG 20010904//EN"
 "http://www.w3.org/TR/2001/REC-SVG-20010904/DTD/svg10.dtd">
<svg version="1.0" xmlns="http://www.w3.org/2000/svg"
 width="151.000000pt" height="414.000000pt" viewBox="0 0 151.000000 414.000000"
 preserveAspectRatio="xMidYMid meet">
<metadata>
Created by potrace 1.14, written by Peter Selinger 2001-2017
</metadata>
<g transform="translate(0.000000,414.000000) scale(0.100000,-0.100000)"
fill="#000000" stroke="none">
<path fill="#000000" stroke="none" d="M1393 4122 c-31 -14 -33 -19 -33 -66 0
-31 6 -56 16 -67 14 -16 10 -24 -63 -111 -86 -102 -155 -206 -228 -343 -41
-77 -58 -98 -114 -140 -36 -28 -69 -51 -73 -53 -4 -2 -20 26 -37 62 -27 60
-34 67 -89 95 l-60 30 -66 -66 -66 -67 0 -93 c0 -86 2 -97 29 -140 l30 -48
-22 -23 c-12 -13 -42 -38 -67 -55 -88 -59 -134 -109 -160 -170 -24 -56 -25
-63 -16 -168 8 -99 7 -111 -9 -129 -14 -15 -19 -39 -21 -93 -1 -39 -9 -100
-18 -135 -9 -35 -25 -127 -35 -205 -17 -130 -23 -151 -70 -256 -28 -63 -88
-175 -133 -250 -44 -75 -82 -139 -84 -142 -2 -3 24 -2 56 3 50 6 76 19 159 74
107 71 111 78 111 170 0 23 16 94 35 156 139 449 163 520 168 502 27 -95 28
-124 13 -196 -32 -150 -39 -263 -26 -443 20 -296 57 -531 135 -870 78 -339
115 -509 121 -561 6 -45 10 -52 42 -70 38 -20 37 -17 66 -155 l17 -76 52 18
c69 24 79 24 170 -10 l77 -29 0 117 c0 64 -5 159 -11 211 -8 78 -6 136 12 327
l21 232 -26 122 c-32 149 -34 258 -7 327 18 44 19 64 12 198 -5 112 -4 163 6
204 11 45 12 86 1 235 l-12 179 -42 62 c-34 52 -39 65 -28 76 23 23 30 498 10
688 -9 85 -16 162 -16 170 0 9 29 55 65 104 35 49 105 159 154 245 75 130 97
178 128 281 23 77 38 153 41 197 l4 73 -44 44 -43 45 -32 -17z"/>
</g>
</svg>
