<?xml version="1.0" standalone="no"?>
<!DOCTYPE svg PUBLIC "-//W3C//DTD SVG 20010904//EN"
 "http://www.w3.org/TR/2001/REC-SVG-20010904/DTD/svg10.dtd">
<svg version="1.0" xmlns="http://www.w3.org/2000/svg"
 width="111.000000pt" height="236.000000pt" viewBox="0 0 111.000000 236.000000"
 preserveAspectRatio="xMidYMid meet">
<metadata>
Created by potrace 1.14, written by Peter Selinger 2001-2017
</metadata>
<g transform="translate(0.000000,236.000000) scale(0.100000,-0.100000)"
fill="#000000" stroke="none">
<path fill="#000000" stroke="none" d="M517 2334 c-35 -18 -47 -32 -61 -67
-19 -51 -96 -128 -168 -171 -34 -20 -79 -67 -156 -164 l-110 -137 -10 -80 c-8
-62 -8 -83 2 -95 7 -8 55 -67 108 -130 l94 -115 38 -155 c34 -138 45 -167 103
-270 61 -110 67 -126 134 -379 55 -211 69 -279 69 -337 0 -62 5 -84 34 -147
l33 -74 48 -6 c86 -12 91 -11 109 34 9 23 22 76 28 118 l10 76 77 -3 76 -4 42
74 42 73 -22 17 c-12 10 -48 28 -80 39 -60 23 -107 66 -107 100 0 11 9 61 20
112 15 72 22 157 29 387 5 162 13 306 17 319 7 22 10 23 64 17 48 -6 61 -3 81
13 26 21 23 -3 45 343 9 152 1 203 -48 280 -44 70 -93 107 -200 152 -65 28
-67 30 -78 76 -17 72 -53 100 -144 114 -70 11 -77 11 -119 -10z"/>
</g>
</svg>
