<?xml version="1.0" standalone="no"?>
<!DOCTYPE svg PUBLIC "-//W3C//DTD SVG 20010904//EN"
 "http://www.w3.org/TR/2001/REC-SVG-20010904/DTD/svg10.dtd">
<svg version="1.0" xmlns="http://www.w3.org/2000/svg"
 width="45.000000pt" height="179.000000pt" viewBox="0 0 45.000000 179.000000"
 preserveAspectRatio="xMidYMid meet">
<metadata>
Created by potrace 1.14, written by Peter Selinger 2001-2017
</metadata>
<g transform="translate(0.000000,179.000000) scale(0.100000,-0.100000)"
fill="#000000" stroke="none">
<path fill="#000000" stroke="none" d="M144 1783 l-51 -4 -11 -71 c-10 -67 -9
-74 11 -102 12 -17 30 -38 39 -46 17 -14 17 -18 2 -60 -8 -24 -18 -66 -21 -92
-3 -27 -9 -48 -12 -48 -3 0 -26 36 -50 80 -25 44 -46 78 -48 76 -2 -2 10 -117
28 -255 l32 -251 -21 -49 -20 -49 32 -242 c29 -222 46 -291 46 -184 0 62 13
61 40 -2 12 -30 45 -82 72 -115 l50 -60 5 -103 6 -103 -59 -15 c-99 -24 -80
-39 81 -65 77 -12 141 -20 143 -19 13 14 -2 140 -53 433 -54 314 -57 344 -43
360 9 10 27 46 41 80 l25 62 -19 75 c-11 41 -19 101 -19 133 2 266 4 252 -34
357 l-36 100 40 41 c36 36 40 46 40 89 l0 48 -34 -6 c-20 -4 -37 -2 -41 4 -6
10 -52 10 -161 3z"/>
</g>
</svg>
