<?xml version="1.0" standalone="no"?>
<!DOCTYPE svg PUBLIC "-//W3C//DTD SVG 20010904//EN"
 "http://www.w3.org/TR/2001/REC-SVG-20010904/DTD/svg10.dtd">
<svg version="1.0" xmlns="http://www.w3.org/2000/svg"
 width="356.000000pt" height="471.000000pt" viewBox="0 0 356.000000 471.000000"
 preserveAspectRatio="xMidYMid meet">
<metadata>
Created by potrace 1.14, written by Peter Selinger 2001-2017
</metadata>
<g transform="translate(0.000000,471.000000) scale(0.100000,-0.100000)"
fill="#000000" stroke="none">
<path fill="#000000" stroke="none" d="M1824 4602 l-231 -107 -142 -276 -142
-277 40 -288 c22 -159 39 -289 38 -290 -1 0 -302 -182 -669 -404 l-667 -404
-5 -51 c-3 -27 -12 -421 -21 -875 -8 -454 -18 -911 -22 -1016 l-6 -192 244
-146 c163 -97 269 -167 319 -212 l75 -67 725 7 c399 3 921 6 1161 6 l436 0 46
127 45 128 -43 415 c-25 228 -44 422 -45 430 0 8 37 -64 83 -162 l82 -176 215
-241 c118 -132 215 -239 217 -237 4 4 -57 2058 -61 2072 -2 6 -243 161 -535
345 l-532 334 5 45 c23 212 82 622 108 756 l32 163 -34 108 c-19 59 -60 171
-91 248 l-57 140 -154 93 c-84 51 -160 97 -168 102 -11 6 -83 -22 -246 -98z"/>
<path fill="#ffffff" stroke="none" d="M1895 1444 c53 -10 84 -44 95 -104 34
-190 31 -326 -11 -457 -25 -76 -85 -137 -146 -147 -46 -8 -58 -31 -69 -134
l-7 -63 -36 3 c-35 3 -36 4 -31 38 2 19 4 59 5 89 l0 54 -55 39 c-49 33 -57
45 -76 100 -20 60 -20 64 -3 177 19 132 48 236 92 334 25 55 36 69 61 77 29 9
113 6 181 -6z"/>
<path fill="#ffffff" stroke="none" d="M1739 374 c17 -21 26 -24 80 -22 73 4
89 -8 69 -49 -21 -45 -95 -47 -275 -7 -78 17 -92 34 -55 67 51 46 149 52 181
11z"/>
</g>
</svg>
