<?xml version="1.0" standalone="no"?>
<!DOCTYPE svg PUBLIC "-//W3C//DTD SVG 20010904//EN"
 "http://www.w3.org/TR/2001/REC-SVG-20010904/DTD/svg10.dtd">
<svg version="1.0" xmlns="http://www.w3.org/2000/svg"
 width="41.000000pt" height="138.000000pt" viewBox="0 0 41.000000 138.000000"
 preserveAspectRatio="xMidYMid meet">
<metadata>
Created by potrace 1.14, written by Peter Selinger 2001-2017
</metadata>
<g transform="translate(0.000000,138.000000) scale(0.100000,-0.100000)"
fill="#000000" stroke="none">
<path fill="#000000" stroke="none" d="M119 1363 c-37 -42 -50 -100 -30 -132
5 -7 3 -33 -4 -60 -9 -37 -15 -45 -31 -43 -11 1 -28 -6 -37 -16 -14 -16 -15
-24 -6 -51 9 -26 9 -35 -1 -41 -19 -12 -8 -75 25 -145 31 -66 35 -143 10 -219
-7 -23 -16 -99 -19 -170 -4 -71 -9 -140 -12 -152 -5 -20 -1 -24 33 -29 93 -15
88 -12 101 -68 26 -112 13 -138 -82 -171 -47 -16 -62 -25 -45 -25 14 -1 33 -9
42 -19 16 -18 20 -18 112 1 52 11 92 24 89 29 -7 11 23 202 37 239 11 27 63
64 79 54 5 -3 13 3 19 12 6 13 2 54 -14 133 -12 63 -26 158 -30 210 -3 52 -13
126 -21 163 -8 38 -14 98 -14 133 0 69 -8 93 -45 134 -21 22 -22 30 -15 75 21
123 4 160 -76 170 -41 6 -52 4 -65 -12z"/>
</g>
</svg>
