<?xml version="1.0" standalone="no"?>
<!DOCTYPE svg PUBLIC "-//W3C//DTD SVG 20010904//EN"
 "http://www.w3.org/TR/2001/REC-SVG-20010904/DTD/svg10.dtd">
<svg version="1.0" xmlns="http://www.w3.org/2000/svg"
 width="134.000000pt" height="320.000000pt" viewBox="0 0 134.000000 320.000000"
 preserveAspectRatio="xMidYMid meet">
<metadata>
Created by potrace 1.14, written by Peter Selinger 2001-2017
</metadata>
<g transform="translate(0.000000,320.000000) scale(0.100000,-0.100000)"
fill="#000000" stroke="none">
<path fill="#000000" stroke="none" d="M790 3189 c-41 -4 -102 -16 -134 -27
-57 -19 -61 -22 -98 -88 l-39 -68 20 -105 c11 -58 24 -129 29 -158 l9 -51 -63
-74 c-35 -40 -67 -74 -72 -76 -4 -1 -53 57 -107 128 l-100 131 -5 87 -5 86
-40 12 c-39 11 -42 10 -112 -38 -40 -27 -73 -53 -73 -58 0 -5 18 -23 39 -40
34 -27 44 -47 76 -138 33 -96 43 -113 113 -195 60 -69 77 -95 77 -120 0 -27
16 -44 144 -153 79 -67 147 -128 151 -135 4 -8 31 -90 59 -183 l52 -169 -32
-136 c-17 -75 -34 -141 -36 -148 -3 -7 26 -27 69 -49 40 -20 74 -38 76 -39 2
-2 -24 -57 -57 -123 l-60 -120 72 -361 72 -361 -29 -113 c-16 -61 -31 -114
-33 -116 -2 -3 -9 3 -16 13 -11 16 -18 11 -65 -44 l-52 -62 33 -47 33 -46 252
-3 252 -2 -4 22 c-30 144 -30 147 24 148 14 0 41 3 61 6 l35 6 -98 441 c-53
243 -97 450 -98 459 0 10 33 78 74 150 l73 133 41 270 42 270 -59 353 -60 352
-71 116 -71 116 -9 113 c-5 62 -15 124 -21 137 -7 16 -40 39 -95 66 -46 23
-85 41 -87 40 -1 0 -36 -4 -77 -9z"/>
</g>
</svg>
