<?xml version="1.0" standalone="no"?>
<!DOCTYPE svg PUBLIC "-//W3C//DTD SVG 20010904//EN"
 "http://www.w3.org/TR/2001/REC-SVG-20010904/DTD/svg10.dtd">
<svg version="1.0" xmlns="http://www.w3.org/2000/svg"
 width="91.000000pt" height="197.000000pt" viewBox="0 0 91.000000 197.000000"
 preserveAspectRatio="xMidYMid meet">
<metadata>
Created by potrace 1.14, written by Peter Selinger 2001-2017
</metadata>
<g transform="translate(0.000000,197.000000) scale(0.100000,-0.100000)"
fill="#000000" stroke="none">
<path fill="#000000" stroke="none" d="M488 1948 l-67 -21 -6 -56 c-10 -84
-11 -87 -94 -180 l-77 -86 11 -220 c11 -209 7 -317 -18 -626 -4 -45 -4 -45 40
-63 23 -10 43 -22 43 -27 0 -4 -68 -108 -152 -231 -83 -122 -154 -237 -158
-255 l-8 -33 131 -75 132 -74 37 97 c173 451 161 425 194 438 l31 13 39 -221
c21 -121 42 -225 46 -231 5 -8 58 -14 150 -17 79 -3 144 -5 146 -4 2 1 -10 29
-27 63 -70 138 -91 208 -112 375 -12 88 -22 170 -24 181 -4 29 -24 106 -34
130 -4 11 -17 57 -27 101 l-20 82 39 103 38 102 -14 109 c-16 127 -8 224 22
265 11 16 21 35 23 43 2 9 -17 75 -42 146 l-44 131 -57 31 c-32 18 -61 32 -66
31 -4 0 -38 -10 -75 -21z"/>
</g>
</svg>
