<?xml version="1.0" standalone="no"?>
<!DOCTYPE svg PUBLIC "-//W3C//DTD SVG 20010904//EN"
 "http://www.w3.org/TR/2001/REC-SVG-20010904/DTD/svg10.dtd">
<svg version="1.0" xmlns="http://www.w3.org/2000/svg"
 width="59.000000pt" height="44.000000pt" viewBox="0 0 59.000000 44.000000"
 preserveAspectRatio="xMidYMid meet">
<metadata>
Created by potrace 1.14, written by Peter Selinger 2001-2017
</metadata>
<g transform="translate(0.000000,44.000000) scale(0.100000,-0.100000)"
fill="#000000" stroke="none">
<path fill="#000000" stroke="none" d="M190 422 c-45 -22 -50 -29 -50 -78 0
-36 -4 -42 -35 -57 -36 -17 -73 -76 -93 -151 -11 -37 -10 -38 11 -32 12 4 45
9 73 13 47 5 56 2 99 -27 26 -18 50 -41 52 -51 4 -14 15 -19 42 -19 20 0 42
-5 48 -11 22 -22 43 -2 43 40 0 32 4 41 23 47 42 14 115 7 152 -15 l35 -20
-16 30 c-8 17 -15 45 -14 62 1 18 2 38 1 45 -1 17 -30 15 -38 -3 -5 -14 -8
-13 -19 4 -9 12 -31 21 -64 26 -49 7 -50 8 -50 41 0 33 -19 82 -43 112 -8 10
-15 9 -33 -3 -23 -15 -24 -14 -24 9 0 24 -33 57 -55 55 -5 0 -26 -8 -45 -17z"/>
</g>
</svg>
