<?xml version="1.0" standalone="no"?>
<!DOCTYPE svg PUBLIC "-//W3C//DTD SVG 20010904//EN"
 "http://www.w3.org/TR/2001/REC-SVG-20010904/DTD/svg10.dtd">
<svg version="1.0" xmlns="http://www.w3.org/2000/svg"
 width="26.000000pt" height="21.000000pt" viewBox="0 0 26.000000 21.000000"
 preserveAspectRatio="xMidYMid meet">
<metadata>
Created by potrace 1.14, written by Peter Selinger 2001-2017
</metadata>
<g transform="translate(0.000000,21.000000) scale(0.100000,-0.100000)"
fill="#000000" stroke="none">
<path fill="#000000" stroke="none" d="M220 202 c-16 -3 -45 -27 -80 -68 -30
-35 -59 -64 -64 -64 -5 0 -17 7 -27 16 -22 20 -49 12 -49 -14 0 -16 9 -20 53
-25 31 -3 62 0 77 7 14 7 47 13 74 14 27 1 50 3 51 4 1 2 0 32 -4 68 -6 62 -7
65 -31 62z"/>
<path fill="#000000" stroke="none" d="M197 33 c-17 -16 -5 -33 22 -33 24 0
41 14 41 36 0 7 -56 5 -63 -3z"/>
</g>
</svg>
