<?xml version="1.0" standalone="no"?>
<!DOCTYPE svg PUBLIC "-//W3C//DTD SVG 20010904//EN"
 "http://www.w3.org/TR/2001/REC-SVG-20010904/DTD/svg10.dtd">
<svg version="1.0" xmlns="http://www.w3.org/2000/svg"
 width="14.000000pt" height="51.000000pt" viewBox="0 0 14.000000 51.000000"
 preserveAspectRatio="xMidYMid meet">
<metadata>
Created by potrace 1.14, written by Peter Selinger 2001-2017
</metadata>
<g transform="translate(0.000000,51.000000) scale(0.100000,-0.100000)"
fill="#000000" stroke="none">
<path fill="#000000" stroke="none" d="M71 499 c-19 -7 -22 -15 -19 -39 3 -22
0 -31 -13 -35 -13 -4 -18 -22 -23 -73 -4 -37 -6 -83 -4 -102 1 -19 3 -81 3
-137 0 -99 1 -102 23 -108 13 -3 33 -3 44 1 20 6 20 6 -1 21 -30 20 -28 66 4
87 22 15 25 24 25 76 0 47 3 60 15 60 17 0 21 36 5 42 -6 2 -13 28 -17 58 -3
30 -10 60 -15 67 -6 8 -3 15 11 23 23 12 27 40 9 58 -14 14 -15 14 -47 1z"/>
</g>
</svg>
