<?xml version="1.0" standalone="no"?>
<!DOCTYPE svg PUBLIC "-//W3C//DTD SVG 20010904//EN"
 "http://www.w3.org/TR/2001/REC-SVG-20010904/DTD/svg10.dtd">
<svg version="1.0" xmlns="http://www.w3.org/2000/svg"
 width="108.000000pt" height="252.000000pt" viewBox="0 0 108.000000 252.000000"
 preserveAspectRatio="xMidYMid meet">
<metadata>
Created by potrace 1.14, written by Peter Selinger 2001-2017
</metadata>
<g transform="translate(0.000000,252.000000) scale(0.100000,-0.100000)"
fill="#000000" stroke="none">
<path fill="#000000" stroke="none" d="M537 2497 c-26 -16 -53 -49 -89 -107
-63 -107 -64 -107 -40 -114 16 -5 19 -12 13 -33 -6 -23 -17 -29 -82 -47 -64
-18 -81 -28 -126 -73 -50 -51 -87 -124 -100 -198 -2 -16 -14 -54 -25 -84 l-21
-53 21 -177 c38 -303 52 -499 52 -706 l0 -200 -70 -185 c-68 -180 -70 -187
-69 -275 l0 -90 86 -55 c48 -30 90 -56 94 -58 4 -2 14 32 24 75 41 187 294
818 309 772 3 -8 42 -158 86 -334 71 -276 83 -335 87 -431 6 -112 6 -112 32
-116 39 -5 334 16 349 25 23 15 12 37 -37 69 -41 27 -56 47 -90 116 l-42 84
-14 197 c-25 339 -40 651 -37 781 l3 125 55 38 c30 21 72 44 93 50 l39 12 -85
230 c-80 216 -89 234 -145 303 l-60 73 16 152 c9 84 16 176 16 205 l0 52 -102
0 c-90 0 -108 -3 -141 -23z"/>
<path fill="#ffffff" stroke="none" d="M840 1765 c0 -23 -36 -28 -99 -16 -2 1
2 8 9 16 17 20 90 20 90 0z"/>
</g>
</svg>
