<?xml version="1.0" standalone="no"?>
<!DOCTYPE svg PUBLIC "-//W3C//DTD SVG 20010904//EN"
 "http://www.w3.org/TR/2001/REC-SVG-20010904/DTD/svg10.dtd">
<svg version="1.0" xmlns="http://www.w3.org/2000/svg"
 width="13.000000pt" height="26.000000pt" viewBox="0 0 13.000000 26.000000"
 preserveAspectRatio="xMidYMid meet">
<metadata>
Created by potrace 1.14, written by Peter Selinger 2001-2017
</metadata>
<g transform="translate(0.000000,26.000000) scale(0.100000,-0.100000)"
fill="#000000" stroke="none">
<path fill="#000000" stroke="none" d="M11 247 c-16 -16 -14 -92 4 -107 8 -7
15 -19 15 -27 0 -7 -7 -16 -15 -19 -9 -4 -15 -19 -15 -39 0 -32 2 -34 50 -44
28 -6 53 -11 55 -11 2 0 8 15 15 34 14 45 -4 123 -31 131 -10 4 -19 15 -19 26
0 44 -36 79 -59 56z"/>
</g>
</svg>
