<?xml version="1.0" standalone="no"?>
<!DOCTYPE svg PUBLIC "-//W3C//DTD SVG 20010904//EN"
 "http://www.w3.org/TR/2001/REC-SVG-20010904/DTD/svg10.dtd">
<svg version="1.0" xmlns="http://www.w3.org/2000/svg"
 width="21.000000pt" height="27.000000pt" viewBox="0 0 21.000000 27.000000"
 preserveAspectRatio="xMidYMid meet">
<metadata>
Created by potrace 1.14, written by Peter Selinger 2001-2017
</metadata>
<g transform="translate(0.000000,27.000000) scale(0.100000,-0.100000)"
fill="#000000" stroke="none">
<path fill="#000000" stroke="none" d="M54 257 c-15 -6 -26 -28 -38 -68 -9
-32 -16 -61 -16 -63 0 -2 20 -7 44 -10 38 -6 47 -13 81 -61 21 -30 39 -55 41
-55 3 0 13 15 24 33 13 21 20 50 20 83 0 43 -5 56 -34 90 -38 45 -90 66 -122
51z"/>
</g>
</svg>
