<?xml version="1.0" standalone="no"?>
<!DOCTYPE svg PUBLIC "-//W3C//DTD SVG 20010904//EN"
 "http://www.w3.org/TR/2001/REC-SVG-20010904/DTD/svg10.dtd">
<svg version="1.0" xmlns="http://www.w3.org/2000/svg"
 width="62.000000pt" height="101.000000pt" viewBox="0 0 62.000000 101.000000"
 preserveAspectRatio="xMidYMid meet">
<metadata>
Created by potrace 1.14, written by Peter Selinger 2001-2017
</metadata>
<g transform="translate(0.000000,101.000000) scale(0.100000,-0.100000)"
fill="#000000" stroke="none">
<path fill="#000000" stroke="none" d="M250 994 c-19 -9 -47 -27 -61 -41 -15
-13 -33 -25 -42 -27 -8 -1 -31 -16 -50 -33 -30 -26 -40 -45 -56 -110 -15 -60
-17 -89 -11 -128 15 -88 13 -122 -10 -128 -11 -3 -20 -12 -20 -20 0 -19 58
-33 73 -18 6 6 14 11 18 11 11 0 21 -56 20 -104 0 -40 24 -273 35 -327 4 -21
17 -32 56 -48 l50 -21 41 30 c30 22 46 28 68 23 26 -5 29 -3 29 20 0 18 -15
38 -53 71 l-53 45 -13 95 c-11 88 -8 158 9 181 11 15 50 136 50 155 0 27 33
87 38 70 3 -8 9 -26 14 -40 10 -28 6 -33 64 75 33 62 34 62 54 0 7 -22 16 -44
20 -50 5 -5 11 -37 14 -70 14 -133 17 -145 32 -145 22 0 37 49 30 102 -3 34
-2 46 7 44 7 -1 9 -1 5 1 -12 7 -9 43 3 43 8 0 10 16 6 50 -7 57 -116 273
-146 289 -9 5 -55 12 -102 15 -64 4 -92 2 -119 -10z"/>
</g>
</svg>
