<?xml version="1.0" standalone="no"?>
<!DOCTYPE svg PUBLIC "-//W3C//DTD SVG 20010904//EN"
 "http://www.w3.org/TR/2001/REC-SVG-20010904/DTD/svg10.dtd">
<svg version="1.0" xmlns="http://www.w3.org/2000/svg"
 width="112.000000pt" height="375.000000pt" viewBox="0 0 112.000000 375.000000"
 preserveAspectRatio="xMidYMid meet">
<metadata>
Created by potrace 1.14, written by Peter Selinger 2001-2017
</metadata>
<g transform="translate(0.000000,375.000000) scale(0.100000,-0.100000)"
fill="#000000" stroke="none">
<path fill="#000000" stroke="none" d="M416 3665 l-47 -85 11 -201 c6 -111 10
-202 8 -204 -2 -1 -90 -48 -195 -105 l-193 -103 0 -51 c0 -28 9 -330 20 -671
15 -466 24 -631 34 -665 11 -34 13 -74 9 -162 -6 -127 4 -178 37 -178 15 0 19
-11 24 -62 17 -171 21 -589 9 -857 -7 -157 -10 -287 -7 -290 5 -5 765 -33 770
-29 1 2 28 255 59 563 l57 560 26 25 c15 14 39 35 55 46 l27 22 -40 325 -40
326 0 563 0 564 -143 47 -144 47 59 241 58 240 -75 90 -76 89 -128 0 -127 0
-48 -85z"/>
<path fill="#ffffff" stroke="none" d="M696 3000 c10 0 14 -13 14 -45 0 -32
16 -83 55 -176 70 -166 92 -291 75 -421 -38 -296 -70 -451 -70 -345 0 20 -37
159 -81 309 l-81 273 12 155 c10 125 10 163 0 194 -6 20 -10 39 -8 40 17 14
45 25 56 21 8 -3 20 -5 28 -5z"/>
</g>
</svg>
