<?xml version="1.0" standalone="no"?>
<!DOCTYPE svg PUBLIC "-//W3C//DTD SVG 20010904//EN"
 "http://www.w3.org/TR/2001/REC-SVG-20010904/DTD/svg10.dtd">
<svg version="1.0" xmlns="http://www.w3.org/2000/svg"
 width="31.000000pt" height="26.000000pt" viewBox="0 0 31.000000 26.000000"
 preserveAspectRatio="xMidYMid meet">
<metadata>
Created by potrace 1.14, written by Peter Selinger 2001-2017
</metadata>
<g transform="translate(0.000000,26.000000) scale(0.100000,-0.100000)"
fill="#000000" stroke="none">
<path fill="#000000" stroke="none" d="M95 223 c-9 -21 -34 -57 -57 -80 l-41
-42 34 -45 c40 -52 53 -57 107 -43 34 9 42 16 51 49 13 42 29 48 56 18 20 -22
65 -27 65 -7 0 7 -25 32 -55 56 -44 36 -58 53 -66 88 -11 40 -14 43 -45 43
-30 0 -36 -5 -49 -37z"/>
</g>
</svg>
