<?xml version="1.0" standalone="no"?>
<!DOCTYPE svg PUBLIC "-//W3C//DTD SVG 20010904//EN"
 "http://www.w3.org/TR/2001/REC-SVG-20010904/DTD/svg10.dtd">
<svg version="1.0" xmlns="http://www.w3.org/2000/svg"
 width="460.000000pt" height="218.000000pt" viewBox="0 0 460.000000 218.000000"
 preserveAspectRatio="xMidYMid meet">
<metadata>
Created by potrace 1.14, written by Peter Selinger 2001-2017
</metadata>
<g transform="translate(0.000000,218.000000) scale(0.100000,-0.100000)"
fill="#000000" stroke="none">
<path fill="#000000" stroke="none" d="M1886 2057 c-87 -140 -88 -145 -56
-302 11 -53 20 -124 20 -157 0 -53 4 -65 31 -96 54 -61 79 -131 79 -222 0 -43
-4 -89 -9 -102 -6 -15 -49 -46 -128 -91 -123 -69 -177 -117 -360 -320 l-62
-68 -133 2 c-128 2 -142 0 -392 -55 -142 -31 -269 -56 -281 -56 -13 0 -99 30
-192 66 l-168 66 -91 -7 -92 -7 -24 -80 -23 -80 67 -69 68 -69 129 0 c86 0
153 6 198 17 44 10 102 15 163 14 86 -2 109 -7 235 -52 77 -27 163 -65 190
-83 l50 -34 235 7 c145 5 246 12 265 20 16 7 77 19 135 27 l105 15 51 -27 51
-28 17 -76 c9 -41 16 -100 16 -130 0 -30 4 -61 8 -68 7 -10 113 -10 556 2
l547 15 80 50 c44 28 82 51 84 51 2 0 24 -21 48 -46 l43 -47 230 -4 c225 -4
1007 17 1018 28 5 5 -10 182 -20 226 -4 21 -6 22 -37 8 -17 -8 -100 -26 -183
-40 -131 -22 -167 -32 -270 -78 l-118 -54 -136 45 c-117 38 -144 51 -201 97
l-65 53 -53 203 c-28 112 -58 247 -66 299 -8 52 -17 109 -20 126 -5 31 -7 32
-218 105 -155 53 -225 83 -262 109 -27 20 -97 54 -154 75 -78 29 -112 47 -135
73 -17 19 -50 44 -72 56 -27 13 -70 55 -118 113 l-76 92 0 103 c-1 57 -4 146
-9 199 -7 91 -10 99 -59 180 -77 127 -57 116 -219 123 l-141 6 -76 -123z"/>
</g>
</svg>
