<?xml version="1.0" standalone="no"?>
<!DOCTYPE svg PUBLIC "-//W3C//DTD SVG 20010904//EN"
 "http://www.w3.org/TR/2001/REC-SVG-20010904/DTD/svg10.dtd">
<svg version="1.0" xmlns="http://www.w3.org/2000/svg"
 width="83.000000pt" height="95.000000pt" viewBox="0 0 83.000000 95.000000"
 preserveAspectRatio="xMidYMid meet">
<metadata>
Created by potrace 1.14, written by Peter Selinger 2001-2017
</metadata>
<g transform="translate(0.000000,95.000000) scale(0.100000,-0.100000)"
fill="#000000" stroke="none">
<path fill="#000000" stroke="none" d="M234 902 c-28 -26 -65 -75 -84 -108
-18 -32 -45 -79 -60 -104 -33 -53 -91 -240 -83 -268 3 -12 16 -22 31 -25 52
-10 157 -60 182 -87 14 -15 42 -39 64 -55 52 -37 76 -93 76 -177 0 -37 4 -69
9 -73 5 -3 35 4 66 16 37 14 80 21 121 21 64 -1 79 9 53 35 -28 28 60 63 160
63 71 0 69 -4 47 114 -19 99 -28 114 -74 122 -20 4 -44 10 -53 15 -12 6 -24 0
-44 -21 -41 -43 -75 -40 -109 9 -27 39 -27 40 -12 85 23 67 33 147 24 181 -5
17 -7 48 -4 70 6 53 -18 105 -80 172 -47 51 -51 53 -114 59 l-65 5 -51 -49z"/>
</g>
</svg>
