<?xml version="1.0" standalone="no"?>
<!DOCTYPE svg PUBLIC "-//W3C//DTD SVG 20010904//EN"
 "http://www.w3.org/TR/2001/REC-SVG-20010904/DTD/svg10.dtd">
<svg version="1.0" xmlns="http://www.w3.org/2000/svg"
 width="56.000000pt" height="127.000000pt" viewBox="0 0 56.000000 127.000000"
 preserveAspectRatio="xMidYMid meet">
<metadata>
Created by potrace 1.14, written by Peter Selinger 2001-2017
</metadata>
<g transform="translate(0.000000,127.000000) scale(0.100000,-0.100000)"
fill="#000000" stroke="none">
<path fill="#000000" stroke="none" d="M67 1195 l-67 -74 6 -111 c7 -105 9
-113 40 -153 l33 -43 7 -177 7 -176 33 -11 c30 -10 75 -52 99 -94 17 -30 57
-5 84 53 l24 50 61 -5 c34 -3 69 -7 78 -9 12 -2 18 7 23 36 5 26 11 36 20 33
45 -18 62 182 25 291 -22 63 -63 133 -118 198 -18 23 -50 73 -69 112 -20 38
-49 89 -65 113 -29 42 -29 42 -91 42 l-62 0 -68 -75z"/>
<path fill="#000000" stroke="none" d="M381 340 c-35 -11 -65 -21 -67 -22 -2
-2 5 -37 16 -78 11 -41 17 -76 15 -78 -2 -3 -38 1 -80 7 -106 16 -115 14 -158
-23 -37 -33 -37 -34 -31 -90 l7 -56 194 0 193 0 -4 22 c-8 37 -16 156 -17 251
-1 48 -2 87 -3 86 0 0 -30 -9 -65 -19z"/>
</g>
</svg>
