<?xml version="1.0" standalone="no"?>
<!DOCTYPE svg PUBLIC "-//W3C//DTD SVG 20010904//EN"
 "http://www.w3.org/TR/2001/REC-SVG-20010904/DTD/svg10.dtd">
<svg version="1.0" xmlns="http://www.w3.org/2000/svg"
 width="51.000000pt" height="122.000000pt" viewBox="0 0 51.000000 122.000000"
 preserveAspectRatio="xMidYMid meet">
<metadata>
Created by potrace 1.14, written by Peter Selinger 2001-2017
</metadata>
<g transform="translate(0.000000,122.000000) scale(0.100000,-0.100000)"
fill="#000000" stroke="none">
<path fill="#000000" stroke="none" d="M61 1189 l-44 -32 6 -102 c5 -68 3
-114 -5 -136 -11 -32 -10 -34 42 -81 l52 -49 14 -107 c24 -191 19 -276 -31
-579 -5 -28 -10 -33 -33 -34 -15 0 23 -14 83 -30 118 -31 148 -32 100 -6 l-30
17 50 -6 c66 -9 62 -10 126 19 54 25 56 27 63 73 3 26 6 88 6 139 0 57 5 106
14 126 8 19 20 78 26 131 12 97 12 98 -15 162 l-27 64 -89 22 c-70 18 -103 21
-157 15 -84 -8 -78 -23 -74 196 l3 155 72 -8 c40 -5 78 -11 85 -13 7 -3 4 7
-7 21 -12 15 -21 32 -21 39 0 13 -28 20 -115 30 -45 5 -55 2 -94 -26z"/>
</g>
</svg>
