<?xml version="1.0" standalone="no"?>
<!DOCTYPE svg PUBLIC "-//W3C//DTD SVG 20010904//EN"
 "http://www.w3.org/TR/2001/REC-SVG-20010904/DTD/svg10.dtd">
<svg version="1.0" xmlns="http://www.w3.org/2000/svg"
 width="203.000000pt" height="432.000000pt" viewBox="0 0 203.000000 432.000000"
 preserveAspectRatio="xMidYMid meet">
<metadata>
Created by potrace 1.14, written by Peter Selinger 2001-2017
</metadata>
<g transform="translate(0.000000,432.000000) scale(0.100000,-0.100000)"
fill="#000000" stroke="none">
<path fill="#000000" stroke="none" d="M928 4158 l-184 -163 -136 -265 -136
-265 7 -85 c7 -76 3 -110 -35 -320 -30 -160 -49 -241 -61 -256 -10 -13 -36
-44 -57 -69 -40 -46 -40 -47 -47 -158 -7 -104 -6 -115 14 -150 l21 -38 -153
-462 c-85 -254 -156 -467 -158 -472 -2 -6 96 -49 217 -95 121 -46 220 -86 220
-89 0 -3 -86 -184 -191 -401 l-191 -395 12 -55 c7 -30 36 -115 64 -188 l52
-134 105 -49 c57 -27 111 -46 119 -43 8 3 51 25 95 49 l81 44 -8 86 c-7 83
-10 93 -83 225 -41 76 -75 143 -75 149 0 14 284 610 288 606 3 -3 -120 -746
-133 -801 -4 -17 25 -44 163 -151 l167 -129 104 7 c93 7 107 10 122 31 47 61
48 54 -50 214 -50 81 -91 155 -90 163 2 74 87 693 93 683 4 -7 15 -11 24 -8
10 2 50 10 90 16 l72 12 0 364 c0 202 4 364 9 364 5 0 25 -7 45 -15 35 -15 36
-15 42 11 7 29 -2 51 -47 110 -44 59 -49 95 -26 179 10 39 23 74 27 79 5 5 88
-3 192 -18 238 -34 419 -36 479 -5 38 19 41 23 35 52 -4 18 -9 49 -13 70 -5
34 -11 41 -63 67 -71 36 -140 95 -233 197 l-72 80 -34 234 c-24 168 -42 257
-63 316 l-29 82 13 88 14 88 13 -60 c10 -45 26 -77 65 -128 l51 -68 79 3 78 3
79 257 80 257 -57 85 -57 85 -86 36 c-82 34 -89 39 -123 94 -33 53 -47 64
-145 119 -136 76 -190 92 -314 92 l-97 0 -184 -162z"/>
</g>
</svg>
