<?xml version="1.0" standalone="no"?>
<!DOCTYPE svg PUBLIC "-//W3C//DTD SVG 20010904//EN"
 "http://www.w3.org/TR/2001/REC-SVG-20010904/DTD/svg10.dtd">
<svg version="1.0" xmlns="http://www.w3.org/2000/svg"
 width="40.000000pt" height="40.000000pt" viewBox="0 0 40.000000 40.000000"
 preserveAspectRatio="xMidYMid meet">
<metadata>
Created by potrace 1.14, written by Peter Selinger 2001-2017
</metadata>
<g transform="translate(0.000000,40.000000) scale(0.100000,-0.100000)"
fill="#000000" stroke="none">
<path fill="#000000" stroke="none" d="M170 373 c0 -34 -32 -88 -61 -103 -11
-7 -41 -10 -66 -8 l-45 3 7 -55 c9 -70 27 -92 74 -88 29 2 39 9 53 36 9 19 19
29 23 23 11 -19 73 -13 87 8 11 16 13 8 15 -57 2 -95 21 -127 79 -127 31 0 41
5 53 26 13 23 13 33 -3 90 -9 35 -16 69 -16 74 0 6 3 39 5 74 7 86 -10 114
-66 110 -21 -2 -44 2 -51 9 -7 7 -29 12 -50 12 -35 0 -38 -2 -38 -27z"/>
</g>
</svg>
