<?xml version="1.0" standalone="no"?>
<!DOCTYPE svg PUBLIC "-//W3C//DTD SVG 20010904//EN"
 "http://www.w3.org/TR/2001/REC-SVG-20010904/DTD/svg10.dtd">
<svg version="1.0" xmlns="http://www.w3.org/2000/svg"
 width="31.000000pt" height="116.000000pt" viewBox="0 0 31.000000 116.000000"
 preserveAspectRatio="xMidYMid meet">
<metadata>
Created by potrace 1.14, written by Peter Selinger 2001-2017
</metadata>
<g transform="translate(0.000000,116.000000) scale(0.100000,-0.100000)"
fill="#000000" stroke="none">
<path fill="#000000" stroke="none" d="M92 1148 c-7 -7 -12 -22 -12 -34 0 -12
-10 -35 -23 -51 -65 -81 -75 -202 -33 -409 36 -175 38 -213 24 -394 -7 -91
-12 -186 -10 -212 l3 -47 97 5 c93 6 98 7 124 37 16 17 28 34 28 38 0 4 -16
10 -36 14 l-37 6 7 45 c3 24 14 61 24 82 27 52 32 86 44 310 5 108 12 229 15
267 3 50 0 83 -12 115 -32 88 -55 156 -65 198 l-11 42 -57 0 c-32 0 -63 -5
-70 -12z"/>
</g>
</svg>
