<?xml version="1.0" standalone="no"?>
<!DOCTYPE svg PUBLIC "-//W3C//DTD SVG 20010904//EN"
 "http://www.w3.org/TR/2001/REC-SVG-20010904/DTD/svg10.dtd">
<svg version="1.0" xmlns="http://www.w3.org/2000/svg"
 width="53.000000pt" height="75.000000pt" viewBox="0 0 53.000000 75.000000"
 preserveAspectRatio="xMidYMid meet">
<metadata>
Created by potrace 1.14, written by Peter Selinger 2001-2017
</metadata>
<g transform="translate(0.000000,75.000000) scale(0.100000,-0.100000)"
fill="#000000" stroke="none">
<path fill="#000000" stroke="none" d="M177 741 c-10 -3 -35 -29 -57 -55 l-38
-49 16 -36 c9 -20 31 -52 50 -72 34 -37 51 -86 52 -151 l0 -37 -81 -28 c-57
-20 -87 -36 -101 -56 -30 -41 -18 -49 36 -24 44 20 58 22 120 15 149 -18 225
-62 304 -177 l37 -54 3 36 c5 53 -55 344 -84 412 -15 33 -43 83 -64 110 -20
28 -41 62 -45 75 -4 14 -16 42 -26 63 -18 34 -23 37 -62 36 -23 0 -50 -4 -60
-8z"/>
</g>
</svg>
