<?xml version="1.0" standalone="no"?>
<!DOCTYPE svg PUBLIC "-//W3C//DTD SVG 20010904//EN"
 "http://www.w3.org/TR/2001/REC-SVG-20010904/DTD/svg10.dtd">
<svg version="1.0" xmlns="http://www.w3.org/2000/svg"
 width="342.000000pt" height="474.000000pt" viewBox="0 0 342.000000 474.000000"
 preserveAspectRatio="xMidYMid meet">
<metadata>
Created by potrace 1.14, written by Peter Selinger 2001-2017
</metadata>
<g transform="translate(0.000000,474.000000) scale(0.100000,-0.100000)"
fill="#000000" stroke="none">
<path fill="#000000" stroke="none" d="M838 4658 c-33 -74 -39 -99 -52 -237
l-16 -153 97 -299 c85 -261 100 -299 117 -300 12 0 41 -6 65 -12 l44 -12 38
-143 38 -143 -56 -137 c-31 -75 -61 -143 -68 -150 -6 -7 -155 -93 -331 -191
l-319 -178 -197 -584 c-108 -321 -197 -589 -197 -596 -1 -7 16 -22 37 -34 24
-14 53 -45 77 -83 l38 -61 -47 -262 -47 -262 22 -73 c12 -40 23 -86 24 -101 1
-15 7 -33 13 -39 10 -10 175 -2 380 18 l62 6 0 -174 c0 -175 0 -175 -40 -311
-22 -74 -40 -138 -40 -141 0 -8 127 -8 277 0 l120 7 6 431 5 431 67 235 68
235 193 387 c107 214 194 392 194 397 0 5 -16 36 -35 68 -24 41 -49 112 -83
240 -43 156 -59 200 -116 307 -37 70 -64 126 -60 126 4 0 56 -36 115 -81 91
-68 109 -85 109 -108 0 -15 36 -91 81 -171 87 -158 99 -175 99 -143 0 39 58
160 205 428 82 149 168 314 191 368 22 54 43 99 45 102 2 2 22 -22 44 -53 34
-49 40 -65 43 -122 8 -130 -27 -267 -145 -564 l-107 -272 -135 -38 c-166 -46
-217 -69 -242 -110 -25 -40 -24 -61 3 -80 l21 -15 -24 -20 c-13 -11 -27 -20
-31 -21 -5 0 -8 -13 -8 -30 0 -35 28 -54 80 -54 29 -1 35 -5 43 -32 9 -32 46
-56 102 -69 l30 -7 -29 -23 c-23 -18 -26 -26 -18 -41 9 -16 -1 -34 -54 -104
-56 -74 -69 -102 -109 -220 -55 -164 -54 -122 -20 -790 14 -272 25 -516 25
-542 l0 -48 715 0 c393 0 715 2 715 4 0 3 -19 47 -43 98 -59 127 -84 283 -91
580 l-6 217 23 -8 c12 -5 108 -48 212 -96 l190 -87 70 16 c39 9 75 20 81 24 6
4 32 52 58 107 l46 100 -50 249 c-27 138 -50 258 -50 269 0 10 9 32 21 48 l20
29 -45 0 c-25 0 -46 4 -46 9 0 13 92 91 108 91 7 0 15 -7 18 -15 8 -20 21 -19
33 4 9 15 -2 44 -55 147 -36 71 -74 135 -85 143 -10 7 -19 24 -19 36 0 13 -17
56 -38 96 -21 41 -90 175 -153 299 -63 124 -146 271 -183 327 l-69 102 -361
202 c-198 111 -377 212 -396 225 -27 17 -42 38 -65 95 -28 69 -30 86 -35 239
l-6 165 64 175 c60 164 63 179 57 235 -3 33 -12 124 -20 203 l-14 143 -60 107
c-33 59 -66 114 -73 123 -12 15 -67 18 -518 24 l-505 6 -37 -83z"/>
<path fill="#ffffff" stroke="none" d="M2032 894 l36 -117 -61 -83 c-33 -46
-63 -84 -67 -84 -3 0 -53 34 -110 75 -113 80 -117 87 -119 178 -1 29 3 46 9
42 5 -3 67 19 137 49 70 31 130 56 133 56 3 0 22 -52 42 -116z"/>
</g>
</svg>
