<?xml version="1.0" standalone="no"?>
<!DOCTYPE svg PUBLIC "-//W3C//DTD SVG 20010904//EN"
 "http://www.w3.org/TR/2001/REC-SVG-20010904/DTD/svg10.dtd">
<svg version="1.0" xmlns="http://www.w3.org/2000/svg"
 width="126.000000pt" height="34.000000pt" viewBox="0 0 126.000000 34.000000"
 preserveAspectRatio="xMidYMid meet">
<metadata>
Created by potrace 1.14, written by Peter Selinger 2001-2017
</metadata>
<g transform="translate(0.000000,34.000000) scale(0.100000,-0.100000)"
fill="#000000" stroke="none">
<path fill="#000000" stroke="none" d="M110 308 c-57 -16 -106 -30 -108 -32
-7 -8 51 -86 64 -86 7 0 22 -16 34 -35 23 -37 16 -37 151 -20 35 5 38 3 70
-50 18 -30 39 -55 45 -55 6 0 54 9 105 19 109 22 288 46 295 39 2 -3 -3 -21
-11 -41 -8 -20 -15 -39 -15 -42 0 -7 397 -6 443 2 57 9 65 28 73 191 l7 142
-524 -1 -524 -1 -105 -30z"/>
</g>
</svg>
