<?xml version="1.0" standalone="no"?>
<!DOCTYPE svg PUBLIC "-//W3C//DTD SVG 20010904//EN"
 "http://www.w3.org/TR/2001/REC-SVG-20010904/DTD/svg10.dtd">
<svg version="1.0" xmlns="http://www.w3.org/2000/svg"
 width="68.000000pt" height="149.000000pt" viewBox="0 0 68.000000 149.000000"
 preserveAspectRatio="xMidYMid meet">
<metadata>
Created by potrace 1.14, written by Peter Selinger 2001-2017
</metadata>
<g transform="translate(0.000000,149.000000) scale(0.100000,-0.100000)"
fill="#000000" stroke="none">
<path fill="#000000" stroke="none" d="M355 1480 c-11 -4 -36 -23 -56 -42 -34
-31 -37 -39 -44 -108 -5 -55 -2 -86 8 -115 13 -37 13 -43 -2 -61 -11 -14 -35
-24 -66 -29 -70 -10 -131 -49 -157 -99 -20 -38 -22 -62 -29 -306 -6 -251 -6
-266 12 -285 19 -19 19 -19 60 20 22 22 49 56 60 75 27 48 98 85 153 81 48 -3
67 -12 121 -58 l40 -33 -8 -128 c-5 -70 -15 -149 -23 -176 -8 -28 -11 -53 -6
-58 4 -4 32 -16 62 -26 48 -16 58 -24 76 -63 12 -25 29 -51 38 -58 13 -11 17
-9 27 13 9 19 9 52 0 139 -20 197 -16 256 38 642 5 33 12 77 16 97 7 36 6 37
-32 47 -38 11 -163 84 -163 97 0 3 20 32 45 64 59 77 65 95 65 201 0 144 -29
179 -145 178 -38 0 -79 -4 -90 -9z"/>
</g>
</svg>
