<?xml version="1.0" standalone="no"?>
<!DOCTYPE svg PUBLIC "-//W3C//DTD SVG 20010904//EN"
 "http://www.w3.org/TR/2001/REC-SVG-20010904/DTD/svg10.dtd">
<svg version="1.0" xmlns="http://www.w3.org/2000/svg"
 width="43.000000pt" height="45.000000pt" viewBox="0 0 43.000000 45.000000"
 preserveAspectRatio="xMidYMid meet">
<metadata>
Created by potrace 1.14, written by Peter Selinger 2001-2017
</metadata>
<g transform="translate(0.000000,45.000000) scale(0.100000,-0.100000)"
fill="#000000" stroke="none">
<path fill="#000000" stroke="none" d="M187 432 c-10 -10 -17 -32 -17 -49 0
-23 -10 -40 -38 -65 -21 -19 -59 -62 -85 -96 l-48 -61 25 -16 c14 -9 28 -25
31 -35 8 -24 57 -32 97 -16 30 13 33 12 50 -9 10 -13 18 -34 18 -47 0 -32 4
-35 39 -30 25 3 31 10 40 49 l12 45 61 -7 60 -7 -41 54 c-37 50 -41 60 -41
115 0 59 0 60 -45 92 -35 25 -45 38 -45 61 0 41 -44 55 -73 22z"/>
</g>
</svg>
