<?xml version="1.0" standalone="no"?>
<!DOCTYPE svg PUBLIC "-//W3C//DTD SVG 20010904//EN"
 "http://www.w3.org/TR/2001/REC-SVG-20010904/DTD/svg10.dtd">
<svg version="1.0" xmlns="http://www.w3.org/2000/svg"
 width="391.000000pt" height="393.000000pt" viewBox="0 0 391.000000 393.000000"
 preserveAspectRatio="xMidYMid meet">
<metadata>
Created by potrace 1.14, written by Peter Selinger 2001-2017
</metadata>
<g transform="translate(0.000000,393.000000) scale(0.100000,-0.100000)"
fill="#000000" stroke="none">
<path fill="#000000" stroke="none" d="M1290 3916 c-83 -13 -132 -37 -292
-144 l-97 -64 -6 -52 c-6 -56 -27 -510 -29 -646 -1 -55 -8 -99 -19 -124 l-17
-38 90 -173 90 -173 -134 -100 c-74 -55 -167 -117 -207 -137 -47 -24 -91 -57
-126 -94 -64 -66 -74 -85 -98 -171 -22 -82 -26 -89 -37 -60 -8 22 -12 18 -54
-55 l-46 -80 -20 -195 c-12 -107 -25 -200 -29 -206 -5 -6 -37 -19 -71 -29 -36
-11 -89 -37 -124 -62 l-60 -44 15 -87 c17 -96 45 -144 133 -230 l44 -42 97 12
97 12 121 114 c67 63 125 110 129 106 5 -5 38 -74 75 -154 l66 -145 -11 -125
c-6 -69 -22 -180 -36 -247 -16 -81 -24 -157 -24 -224 l0 -102 58 -78 57 -78
426 -1 425 0 280 50 c259 46 291 50 444 50 197 1 274 15 305 57 11 15 37 51
58 80 l38 53 -225 0 -226 0 0 40 c0 32 12 60 58 133 32 51 98 165 146 254 l88
163 185 -178 c131 -126 192 -178 211 -180 15 -2 88 10 162 26 l135 28 136 -35
c130 -35 139 -38 208 -95 l73 -58 79 22 c71 21 78 25 65 39 -8 9 -51 59 -97
112 -58 66 -222 217 -521 477 -240 209 -447 387 -460 395 -13 8 -80 29 -149
47 l-126 32 -32 67 c-20 43 -45 131 -71 251 l-41 185 -81 135 c-149 245 -165
268 -230 317 -120 93 -111 77 -94 164 8 42 44 164 80 272 37 108 66 207 67
219 0 13 -7 57 -15 98 -8 43 -13 103 -10 140 l5 65 -104 150 -103 150 -50 5
c-27 3 -89 23 -137 45 -84 38 -88 41 -85 69 l3 29 -110 28 c-121 31 -135 32
-245 15z"/>
<path fill="#ffffff" stroke="none" d="M1671 1973 c66 -68 119 -174 179 -358
29 -88 62 -178 73 -200 11 -22 34 -79 52 -127 l33 -88 -15 -68 c-9 -37 -34
-99 -57 -138 l-41 -72 -51 5 c-36 4 -60 1 -83 -11 -32 -17 -32 -17 -115 28
l-84 46 -5 312 c-3 172 -5 331 -6 353 0 22 -1 98 -3 169 l-3 128 -33 23 -33
23 58 10 c32 5 65 10 73 11 9 0 36 -20 61 -46z"/>
</g>
</svg>
