<?xml version="1.0" standalone="no"?>
<!DOCTYPE svg PUBLIC "-//W3C//DTD SVG 20010904//EN"
 "http://www.w3.org/TR/2001/REC-SVG-20010904/DTD/svg10.dtd">
<svg version="1.0" xmlns="http://www.w3.org/2000/svg"
 width="54.000000pt" height="76.000000pt" viewBox="0 0 54.000000 76.000000"
 preserveAspectRatio="xMidYMid meet">
<metadata>
Created by potrace 1.14, written by Peter Selinger 2001-2017
</metadata>
<g transform="translate(0.000000,76.000000) scale(0.100000,-0.100000)"
fill="#000000" stroke="none">
<path fill="#000000" stroke="none" d="M426 714 c-60 -24 -111 -45 -113 -47
-2 -2 3 -77 12 -166 8 -89 13 -166 11 -170 -3 -4 -79 -58 -170 -121 l-165
-114 42 -47 c23 -26 49 -45 57 -44 8 2 104 9 213 16 129 8 197 16 197 23 0 6
-11 50 -24 98 l-24 87 39 253 c22 139 38 258 37 265 -2 7 -42 -4 -112 -33z"/>
</g>
</svg>
