<?xml version="1.0" standalone="no"?>
<!DOCTYPE svg PUBLIC "-//W3C//DTD SVG 20010904//EN"
 "http://www.w3.org/TR/2001/REC-SVG-20010904/DTD/svg10.dtd">
<svg version="1.0" xmlns="http://www.w3.org/2000/svg"
 width="210.000000pt" height="367.000000pt" viewBox="0 0 210.000000 367.000000"
 preserveAspectRatio="xMidYMid meet">
<metadata>
Created by potrace 1.14, written by Peter Selinger 2001-2017
</metadata>
<g transform="translate(0.000000,367.000000) scale(0.100000,-0.100000)"
fill="#000000" stroke="none">
<path fill="#000000" stroke="none" d="M645 3658 c-4 -15 -65 -337 -65 -347 0
-4 -75 -21 -166 -37 -91 -16 -169 -31 -174 -34 -5 -3 -61 -140 -124 -304
l-114 -297 91 -131 91 -131 -28 -236 c-23 -200 -27 -276 -26 -498 l0 -262 92
-107 92 -108 22 -375 c13 -207 24 -405 25 -440 l2 -64 -79 -44 c-43 -23 -82
-43 -86 -43 -4 0 -8 9 -10 19 -2 13 -12 -2 -29 -43 l-25 -62 427 -55 427 -54
82 59 c94 69 97 60 -33 128 -50 26 -82 49 -87 64 -5 13 -17 27 -27 33 -57 34
-56 11 -23 321 17 156 33 361 37 457 l6 173 64 63 c52 50 70 61 92 59 l28 -3
8 175 c8 212 5 249 -51 540 -24 126 -44 232 -44 235 0 4 14 15 30 25 23 13 41
16 71 11 32 -6 45 -3 61 11 34 31 48 70 48 133 l0 60 56 11 c30 7 58 10 60 7
3 -2 -16 -87 -41 -188 l-46 -183 15 -70 c40 -188 40 -208 2 -408 -20 -101 -36
-192 -36 -202 0 -10 17 -41 37 -69 54 -74 63 -133 45 -322 -6 -60 -14 -244
-18 -407 l-7 -298 67 0 c47 0 66 -4 66 -13 0 -7 -9 -55 -20 -106 -12 -52 -19
-99 -17 -105 2 -6 0 -18 -4 -28 -7 -14 2 -18 64 -32 236 -51 548 -90 547 -68
-1 4 -60 47 -131 96 -72 50 -133 96 -136 103 -3 7 -1 43 3 80 l9 67 122 21
c67 11 125 24 129 27 3 4 1 76 -5 161 -10 139 -28 246 -75 447 -15 65 -24 285
-12 297 3 4 6 29 6 57 0 46 5 56 41 94 22 23 48 42 59 42 13 0 26 14 39 37 17
34 17 42 4 78 -17 49 -13 316 7 415 13 60 12 71 -13 175 -21 87 -28 145 -33
278 l-6 168 -60 40 c-32 22 -57 46 -55 52 2 7 20 12 40 12 33 0 39 5 71 55 79
126 95 291 35 358 -43 48 -125 75 -189 61 -42 -9 -54 -18 -88 -63 -39 -51 -40
-55 -47 -157 l-7 -105 -52 -18 c-28 -10 -70 -31 -94 -47 l-42 -30 -44 36 -45
36 -11 -42 c-7 -24 -25 -62 -41 -85 -40 -58 -39 -77 5 -72 l33 4 -30 -51 c-17
-27 -41 -63 -54 -78 l-23 -28 -55 117 c-32 69 -55 131 -55 150 0 24 -17 60
-57 122 l-56 89 -114 57 c-78 39 -112 60 -107 69 4 6 40 60 81 119 40 58 73
108 73 111 0 3 -20 40 -44 84 l-45 79 -140 42 c-155 47 -160 47 -166 30z"/>
<path fill="#000000" stroke="none" d="M1250 3346 c-26 -9 -36 -20 -43 -45 -4
-18 -6 -36 -2 -39 3 -3 45 -8 93 -10 l87 -4 35 -46 35 -46 -2 -105 c-1 -58 1
-97 3 -86 3 11 12 49 21 85 8 36 16 102 17 147 1 78 0 83 -28 112 -47 49 -139
65 -216 37z"/>
</g>
</svg>
