<?xml version="1.0" standalone="no"?>
<!DOCTYPE svg PUBLIC "-//W3C//DTD SVG 20010904//EN"
 "http://www.w3.org/TR/2001/REC-SVG-20010904/DTD/svg10.dtd">
<svg version="1.0" xmlns="http://www.w3.org/2000/svg"
 width="136.000000pt" height="263.000000pt" viewBox="0 0 136.000000 263.000000"
 preserveAspectRatio="xMidYMid meet">
<metadata>
Created by potrace 1.14, written by Peter Selinger 2001-2017
</metadata>
<g transform="translate(0.000000,263.000000) scale(0.100000,-0.100000)"
fill="#000000" stroke="none">
<path fill="#000000" stroke="none" d="M750 2624 c-8 -1 -63 -6 -121 -9 l-105
-7 -83 -166 c-80 -162 -83 -171 -109 -317 l-27 -150 -113 -26 c-62 -15 -115
-29 -118 -31 -10 -11 -37 -313 -54 -618 l-18 -334 31 -37 c18 -21 47 -43 64
-50 18 -7 33 -18 33 -24 -1 -31 -49 -334 -57 -355 -6 -15 -5 -79 0 -162 l10
-137 70 -17 c56 -13 98 -16 219 -12 138 5 149 4 159 -13 6 -12 21 -19 38 -19
24 0 38 -12 82 -70 29 -38 55 -70 57 -70 2 0 1 16 -2 36 -5 22 -3 41 4 49 7 8
9 19 5 25 -4 6 10 10 37 10 25 0 51 6 60 13 24 19 63 127 50 136 -6 4 -103 29
-214 55 -112 26 -206 51 -210 55 -4 3 0 30 8 58 13 44 25 60 80 104 l64 52 0
109 c0 59 4 108 9 108 5 0 24 -6 42 -14 l33 -14 -3 -81 c-1 -45 0 -81 3 -81 3
0 34 14 69 31 l63 32 -7 41 c-3 22 -22 80 -42 129 -19 48 -34 87 -32 87 8 0
89 -127 105 -166 11 -24 21 -44 22 -45 2 0 82 -4 178 -9 96 -4 186 -11 200
-15 16 -4 30 -19 40 -41 l15 -35 37 47 36 48 -21 38 c-12 21 -34 42 -49 47
-23 8 -31 23 -58 113 -17 57 -33 108 -35 114 -2 6 3 63 11 125 7 63 23 213 34
334 l21 220 -81 75 c-79 73 -82 76 -75 110 11 58 -32 246 -96 428 l-59 166
-72 68 c-68 62 -86 71 -128 62z"/>
</g>
</svg>
