<?xml version="1.0" standalone="no"?>
<!DOCTYPE svg PUBLIC "-//W3C//DTD SVG 20010904//EN"
 "http://www.w3.org/TR/2001/REC-SVG-20010904/DTD/svg10.dtd">
<svg version="1.0" xmlns="http://www.w3.org/2000/svg"
 width="43.000000pt" height="74.000000pt" viewBox="0 0 43.000000 74.000000"
 preserveAspectRatio="xMidYMid meet">
<metadata>
Created by potrace 1.14, written by Peter Selinger 2001-2017
</metadata>
<g transform="translate(0.000000,74.000000) scale(0.100000,-0.100000)"
fill="#000000" stroke="none">
<path fill="#000000" stroke="none" d="M103 733 c-43 -3 -56 -9 -78 -34 -34
-41 -34 -102 0 -169 26 -52 34 -135 16 -169 -5 -9 -12 -73 -15 -141 -5 -118
-5 -122 7 -70 18 74 45 118 77 125 23 5 27 14 44 91 l19 85 91 49 c89 48 92
51 130 121 33 60 37 74 27 95 -10 24 -12 24 -138 22 -71 -1 -151 -3 -180 -5z"/>
<path fill="#000000" stroke="none" d="M62 99 c-9 -14 -20 -19 -33 -16 -22 6
-25 -15 -9 -57 8 -22 16 -26 49 -26 46 0 73 9 65 21 -3 5 -16 9 -30 9 -27 0
-27 0 -15 53 10 42 -5 51 -27 16z"/>
</g>
</svg>
