<?xml version="1.0" standalone="no"?>
<!DOCTYPE svg PUBLIC "-//W3C//DTD SVG 20010904//EN"
 "http://www.w3.org/TR/2001/REC-SVG-20010904/DTD/svg10.dtd">
<svg version="1.0" xmlns="http://www.w3.org/2000/svg"
 width="30.000000pt" height="40.000000pt" viewBox="0 0 30.000000 40.000000"
 preserveAspectRatio="xMidYMid meet">
<metadata>
Created by potrace 1.14, written by Peter Selinger 2001-2017
</metadata>
<g transform="translate(0.000000,40.000000) scale(0.100000,-0.100000)"
fill="#000000" stroke="none">
<path fill="#000000" stroke="none" d="M88 387 c-20 -7 -49 -21 -64 -33 l-28
-20 22 -55 c19 -46 22 -70 20 -154 l-3 -99 65 -13 c36 -7 80 -9 98 -6 29 5 33
9 27 27 -12 34 -17 187 -8 236 8 41 12 46 46 54 37 10 46 26 28 54 -11 19
-155 25 -203 9z"/>
</g>
</svg>
