<?xml version="1.0" standalone="no"?>
<!DOCTYPE svg PUBLIC "-//W3C//DTD SVG 20010904//EN"
 "http://www.w3.org/TR/2001/REC-SVG-20010904/DTD/svg10.dtd">
<svg version="1.0" xmlns="http://www.w3.org/2000/svg"
 width="119.000000pt" height="254.000000pt" viewBox="0 0 119.000000 254.000000"
 preserveAspectRatio="xMidYMid meet">
<metadata>
Created by potrace 1.14, written by Peter Selinger 2001-2017
</metadata>
<g transform="translate(0.000000,254.000000) scale(0.100000,-0.100000)"
fill="#000000" stroke="none">
<path fill="#000000" stroke="none" d="M435 2479 c-39 -35 -98 -82 -131 -103
l-62 -40 -11 -80 c-13 -95 -13 -236 0 -321 23 -152 22 -186 -5 -280 -26 -92
-45 -258 -46 -410 -1 -92 -17 -172 -52 -265 -14 -36 -29 -86 -33 -110 -4 -24
-21 -84 -37 -134 -23 -71 -31 -121 -38 -226 -5 -74 -12 -183 -16 -242 -7 -105
-7 -107 22 -153 19 -31 48 -57 84 -79 54 -32 57 -33 122 -23 62 9 66 12 75 41
9 28 6 38 -24 81 -26 39 -33 60 -33 96 0 26 -7 63 -15 83 -14 32 -14 43 -1 84
7 27 27 75 44 108 17 33 34 78 38 100 4 21 20 65 35 96 47 94 88 203 104 280
8 39 18 75 23 80 12 12 57 -77 72 -142 20 -86 96 -275 155 -386 36 -67 58
-122 64 -160 5 -33 22 -90 37 -129 15 -38 29 -95 31 -126 4 -48 8 -58 33 -72
39 -23 80 -21 131 7 24 13 55 27 69 31 14 4 46 21 72 38 42 26 47 33 42 56 -8
35 -31 51 -71 51 -32 0 -36 4 -63 63 -17 34 -30 67 -30 73 0 6 -13 42 -28 80
-16 38 -35 94 -42 124 -13 58 -43 110 -63 110 -7 1 -24 11 -39 23 -27 22 -27
22 -30 177 -2 85 0 259 3 386 l7 232 -29 21 c-15 11 -37 42 -49 67 l-20 47 30
105 c16 58 30 122 30 144 0 21 7 69 15 106 8 37 18 105 23 150 7 72 6 87 -8
105 -40 51 -52 88 -40 117 15 37 18 146 4 160 -7 7 -66 14 -145 17 l-134 6
-70 -64z"/>
</g>
</svg>
