<?xml version="1.0" standalone="no"?>
<!DOCTYPE svg PUBLIC "-//W3C//DTD SVG 20010904//EN"
 "http://www.w3.org/TR/2001/REC-SVG-20010904/DTD/svg10.dtd">
<svg version="1.0" xmlns="http://www.w3.org/2000/svg"
 width="20.000000pt" height="30.000000pt" viewBox="0 0 20.000000 30.000000"
 preserveAspectRatio="xMidYMid meet">
<metadata>
Created by potrace 1.14, written by Peter Selinger 2001-2017
</metadata>
<g transform="translate(0.000000,30.000000) scale(0.100000,-0.100000)"
fill="#000000" stroke="none">
<path fill="#000000" stroke="none" d="M72 287 c-6 -7 -14 -40 -18 -73 -7 -69
-33 -172 -45 -180 -5 -3 -9 -11 -9 -18 0 -15 72 -9 82 8 4 6 8 23 8 39 0 39
17 34 24 -8 6 -30 11 -35 34 -35 53 0 56 20 11 66 -39 39 -41 44 -34 83 4 25
12 41 21 41 8 0 14 7 14 15 0 18 -12 19 -28 3 -10 -10 -15 -10 -23 2 -5 8 -7
23 -5 32 6 24 -18 42 -32 25z"/>
</g>
</svg>
