<?xml version="1.0" standalone="no"?>
<!DOCTYPE svg PUBLIC "-//W3C//DTD SVG 20010904//EN"
 "http://www.w3.org/TR/2001/REC-SVG-20010904/DTD/svg10.dtd">
<svg version="1.0" xmlns="http://www.w3.org/2000/svg"
 width="28.000000pt" height="40.000000pt" viewBox="0 0 28.000000 40.000000"
 preserveAspectRatio="xMidYMid meet">
<metadata>
Created by potrace 1.14, written by Peter Selinger 2001-2017
</metadata>
<g transform="translate(0.000000,40.000000) scale(0.100000,-0.100000)"
fill="#000000" stroke="none">
<path fill="#000000" stroke="none" d="M114 365 c-8 -19 -19 -35 -24 -35 -17
0 -11 -36 10 -55 11 -10 20 -30 20 -45 0 -23 -6 -29 -40 -39 -45 -13 -52 -23
-69 -105 -15 -68 -10 -76 54 -76 22 0 49 -3 60 -6 16 -4 26 3 43 34 12 22 34
48 49 57 63 40 84 91 43 102 -24 6 -25 13 -5 39 18 24 19 48 2 63 -8 6 -12 23
-9 41 4 27 0 32 -32 45 -59 25 -85 20 -102 -20z"/>
</g>
</svg>
