<?xml version="1.0" standalone="no"?>
<!DOCTYPE svg PUBLIC "-//W3C//DTD SVG 20010904//EN"
 "http://www.w3.org/TR/2001/REC-SVG-20010904/DTD/svg10.dtd">
<svg version="1.0" xmlns="http://www.w3.org/2000/svg"
 width="16.000000pt" height="47.000000pt" viewBox="0 0 16.000000 47.000000"
 preserveAspectRatio="xMidYMid meet">
<metadata>
Created by potrace 1.14, written by Peter Selinger 2001-2017
</metadata>
<g transform="translate(0.000000,47.000000) scale(0.100000,-0.100000)"
fill="#000000" stroke="none">
<path fill="#000000" stroke="none" d="M78 462 c-11 -2 -18 -13 -18 -27 0 -24
-34 -65 -53 -65 -6 0 -6 -17 -1 -42 4 -24 8 -106 8 -183 l1 -140 58 -2 c34 -1
55 2 52 7 -4 6 -12 10 -20 10 -12 0 -12 6 0 41 8 23 15 67 15 98 0 36 3 51 9
42 20 -31 26 1 16 83 -8 66 -15 89 -30 100 -11 9 -14 16 -7 16 7 0 12 13 12
29 0 30 -13 40 -42 33z"/>
</g>
</svg>
