<?xml version="1.0" standalone="no"?>
<!DOCTYPE svg PUBLIC "-//W3C//DTD SVG 20010904//EN"
 "http://www.w3.org/TR/2001/REC-SVG-20010904/DTD/svg10.dtd">
<svg version="1.0" xmlns="http://www.w3.org/2000/svg"
 width="308.000000pt" height="344.000000pt" viewBox="0 0 308.000000 344.000000"
 preserveAspectRatio="xMidYMid meet">
<metadata>
Created by potrace 1.14, written by Peter Selinger 2001-2017
</metadata>
<g transform="translate(0.000000,344.000000) scale(0.100000,-0.100000)"
fill="#000000" stroke="none">
<path fill="#000000" stroke="none" d="M847 3376 c-81 -35 -152 -67 -157 -72
-4 -5 -18 -42 -30 -83 -12 -41 -48 -139 -81 -219 -32 -80 -59 -151 -59 -158 0
-29 83 -322 117 -412 20 -53 54 -123 75 -155 47 -69 80 -142 103 -223 9 -33
35 -98 57 -146 l41 -87 -199 -302 c-109 -166 -202 -306 -205 -312 -4 -6 -61
-5 -156 2 -137 11 -156 10 -247 -9 -54 -11 -100 -20 -102 -20 -2 0 -4 -40 -4
-89 l0 -88 112 -85 c93 -70 121 -86 160 -91 53 -7 87 9 249 117 95 63 258 126
382 146 117 19 175 36 300 84 99 39 149 51 322 79 113 19 208 36 211 39 3 4 1
16 -6 27 -9 18 -8 21 7 21 10 0 34 3 53 6 33 5 37 3 52 -29 15 -32 23 -37 75
-47 176 -35 239 -61 348 -142 99 -76 106 -92 117 -262 5 -77 6 -209 2 -291
l-6 -150 -110 -75 c-60 -41 -142 -92 -181 -114 l-70 -39 -136 31 -136 30 -512
2 -512 1 -10 -38 c-6 -21 -17 -69 -26 -108 -9 -38 -23 -80 -31 -92 l-14 -23
1147 0 1148 1 70 147 70 147 -10 81 c-10 81 -10 81 -84 173 -58 71 -89 99
-137 126 -44 25 -77 54 -109 95 -51 66 -66 99 -85 179 -17 73 6 151 76 252
l52 76 3 156 3 156 -112 128 -111 128 -342 165 c-188 91 -343 170 -345 175 -2
6 -10 65 -19 132 -11 86 -35 187 -80 341 -36 121 -72 253 -80 293 -14 69 -25
89 -152 277 l-137 202 -125 0 c-69 0 -162 2 -206 5 l-80 5 -148 -64z"/>
<path fill="#ffffff" stroke="none" d="M1297 1952 c77 -75 149 -149 158 -164
l17 -28 -34 0 c-28 0 -47 12 -109 67 -41 37 -88 85 -105 108 -19 24 -52 50
-83 64 -43 21 -51 29 -51 52 0 27 8 32 55 37 6 1 74 -60 152 -136z"/>
</g>
</svg>
