<?xml version="1.0" standalone="no"?>
<!DOCTYPE svg PUBLIC "-//W3C//DTD SVG 20010904//EN"
 "http://www.w3.org/TR/2001/REC-SVG-20010904/DTD/svg10.dtd">
<svg version="1.0" xmlns="http://www.w3.org/2000/svg"
 width="53.000000pt" height="211.000000pt" viewBox="0 0 53.000000 211.000000"
 preserveAspectRatio="xMidYMid meet">
<metadata>
Created by potrace 1.14, written by Peter Selinger 2001-2017
</metadata>
<g transform="translate(0.000000,211.000000) scale(0.100000,-0.100000)"
fill="#000000" stroke="none">
<path fill="#000000" stroke="none" d="M56 2094 c-4 -10 -18 -55 -31 -98 l-23
-79 63 -571 c57 -502 113 -941 121 -933 1 1 8 50 14 107 l12 105 68 57 68 57
6 -62 c3 -34 8 -125 11 -202 6 -153 35 -448 45 -465 11 -17 121 40 116 60 -3
8 -50 193 -104 410 -62 245 -146 622 -222 995 -67 330 -125 609 -129 619 -7
19 -8 19 -15 0z"/>
</g>
</svg>
