<?xml version="1.0" standalone="no"?>
<!DOCTYPE svg PUBLIC "-//W3C//DTD SVG 20010904//EN"
 "http://www.w3.org/TR/2001/REC-SVG-20010904/DTD/svg10.dtd">
<svg version="1.0" xmlns="http://www.w3.org/2000/svg"
 width="29.000000pt" height="107.000000pt" viewBox="0 0 29.000000 107.000000"
 preserveAspectRatio="xMidYMid meet">
<metadata>
Created by potrace 1.14, written by Peter Selinger 2001-2017
</metadata>
<g transform="translate(0.000000,107.000000) scale(0.100000,-0.100000)"
fill="#000000" stroke="none">
<path fill="#000000" stroke="none" d="M98 1060 c-9 -6 -30 -35 -47 -65 -26
-45 -33 -73 -42 -155 -6 -64 -6 -121 -1 -158 5 -31 10 -73 11 -91 1 -19 13
-78 27 -130 14 -53 33 -176 43 -274 10 -98 21 -180 23 -182 2 -3 27 -2 56 2
l51 6 -14 27 c-8 15 -19 47 -24 70 -9 41 -7 48 48 152 l58 109 -23 100 c-13
55 -31 110 -39 122 -8 12 -15 43 -15 69 0 26 -9 84 -20 130 -11 46 -20 109
-20 141 0 45 -6 66 -26 97 -15 22 -27 40 -28 40 0 0 -8 -5 -18 -10z"/>
<path fill="#ffffff" stroke="none" d="M75 817 c12 -60 12 -61 -6 -38 -11 14
-19 39 -19 61 0 24 -5 40 -15 44 -8 3 -12 12 -9 21 10 26 34 -17 49 -88z"/>
</g>
</svg>
