<?xml version="1.0" standalone="no"?>
<!DOCTYPE svg PUBLIC "-//W3C//DTD SVG 20010904//EN"
 "http://www.w3.org/TR/2001/REC-SVG-20010904/DTD/svg10.dtd">
<svg version="1.0" xmlns="http://www.w3.org/2000/svg"
 width="35.000000pt" height="130.000000pt" viewBox="0 0 35.000000 130.000000"
 preserveAspectRatio="xMidYMid meet">
<metadata>
Created by potrace 1.14, written by Peter Selinger 2001-2017
</metadata>
<g transform="translate(0.000000,130.000000) scale(0.100000,-0.100000)"
fill="#000000" stroke="none">
<path fill="#000000" stroke="none" d="M58 1293 c-34 -4 -39 -8 -49 -43 -11
-37 -10 -42 29 -102 36 -58 42 -77 61 -199 12 -74 29 -148 38 -165 15 -29 15
-38 0 -120 -9 -49 -26 -132 -38 -184 -20 -89 -20 -97 -5 -123 24 -43 19 -88
-19 -163 -29 -57 -35 -80 -35 -132 0 -56 2 -63 18 -58 9 3 55 14 101 25 46 11
85 21 86 23 2 2 4 91 6 198 1 167 -1 201 -16 235 -23 52 -14 132 18 158 12 10
17 16 10 13 -6 -4 -23 -1 -38 6 -25 11 -26 15 -21 57 3 26 10 115 15 199 9
147 9 155 -13 205 -12 29 -31 80 -41 115 -20 68 -13 65 -107 55z"/>
</g>
</svg>
