<?xml version="1.0" standalone="no"?>
<!DOCTYPE svg PUBLIC "-//W3C//DTD SVG 20010904//EN"
 "http://www.w3.org/TR/2001/REC-SVG-20010904/DTD/svg10.dtd">
<svg version="1.0" xmlns="http://www.w3.org/2000/svg"
 width="107.000000pt" height="110.000000pt" viewBox="0 0 107.000000 110.000000"
 preserveAspectRatio="xMidYMid meet">
<metadata>
Created by potrace 1.14, written by Peter Selinger 2001-2017
</metadata>
<g transform="translate(0.000000,110.000000) scale(0.100000,-0.100000)"
fill="#000000" stroke="none">
<path fill="#000000" stroke="none" d="M399 1088 c-35 -9 -37 -13 -58 -83 -11
-40 -21 -100 -21 -132 l0 -58 -108 -44 c-125 -51 -196 -109 -205 -167 -8 -48
11 -264 30 -348 8 -38 28 -99 43 -136 16 -38 27 -76 27 -86 -2 -16 9 -20 68
-27 100 -11 250 25 385 93 94 47 267 110 304 110 9 0 16 2 16 5 0 2 9 26 19
53 l20 50 -67 -5 c-37 -3 -97 -16 -134 -29 l-68 -23 -52 20 c-73 28 -102 76
-105 174 0 39 -4 97 -8 131 -7 59 -7 61 25 87 17 15 38 27 45 27 18 0 75 70
75 92 0 9 9 32 19 50 10 18 24 57 31 85 11 48 10 55 -10 88 -12 20 -38 47 -58
60 -31 21 -48 25 -107 24 -38 -1 -86 -5 -106 -11z"/>
<path fill="#000000" stroke="none" d="M942 274 c-6 -21 -10 -39 -9 -40 3 -3
98 -7 119 -5 16 1 15 4 -3 36 -12 19 -28 35 -37 35 -10 0 -26 3 -38 6 -17 4
-22 -1 -32 -32z"/>
</g>
</svg>
