<?xml version="1.0" standalone="no"?>
<!DOCTYPE svg PUBLIC "-//W3C//DTD SVG 20010904//EN"
 "http://www.w3.org/TR/2001/REC-SVG-20010904/DTD/svg10.dtd">
<svg version="1.0" xmlns="http://www.w3.org/2000/svg"
 width="33.000000pt" height="43.000000pt" viewBox="0 0 33.000000 43.000000"
 preserveAspectRatio="xMidYMid meet">
<metadata>
Created by potrace 1.14, written by Peter Selinger 2001-2017
</metadata>
<g transform="translate(0.000000,43.000000) scale(0.100000,-0.100000)"
fill="#000000" stroke="none">
<path fill="#000000" stroke="none" d="M262 322 c-35 -61 -68 -129 -74 -151
-11 -43 -10 -42 -110 -66 -33 -8 -64 -41 -73 -78 l-7 -27 73 26 c41 15 79 32
86 38 7 6 42 76 78 156 37 80 74 153 82 162 8 9 13 24 11 34 -2 10 -28 -27
-66 -94z"/>
</g>
</svg>
