<?xml version="1.0" standalone="no"?>
<!DOCTYPE svg PUBLIC "-//W3C//DTD SVG 20010904//EN"
 "http://www.w3.org/TR/2001/REC-SVG-20010904/DTD/svg10.dtd">
<svg version="1.0" xmlns="http://www.w3.org/2000/svg"
 width="192.000000pt" height="317.000000pt" viewBox="0 0 192.000000 317.000000"
 preserveAspectRatio="xMidYMid meet">
<metadata>
Created by potrace 1.14, written by Peter Selinger 2001-2017
</metadata>
<g transform="translate(0.000000,317.000000) scale(0.100000,-0.100000)"
fill="#000000" stroke="none">
<path fill="#000000" stroke="none" d="M1195 3155 c-66 -7 -168 -13 -228 -14
l-107 -1 -109 -72 c-75 -51 -134 -101 -195 -167 -79 -84 -86 -96 -81 -123 5
-19 1 -37 -10 -55 -23 -35 -100 -252 -136 -383 -35 -128 -37 -225 -9 -390 13
-73 20 -161 20 -241 l0 -127 27 -11 c118 -46 388 -141 404 -141 20 0 39 -34
39 -69 0 -29 -201 -282 -279 -351 -87 -77 -124 -136 -190 -303 -28 -71 -66
-156 -83 -190 -17 -34 -48 -115 -68 -181 l-37 -118 -63 -28 c-77 -34 -98 -65
-76 -109 14 -27 20 -29 118 -40 376 -41 445 -43 1108 -38 355 2 653 8 663 12
16 7 17 75 17 1229 0 806 -4 1279 -11 1391 -14 203 -19 214 -144 308 -44 33
-124 98 -177 144 l-97 83 -88 -2 c-48 0 -142 -7 -208 -13z"/>
</g>
</svg>
