<?xml version="1.0" standalone="no"?>
<!DOCTYPE svg PUBLIC "-//W3C//DTD SVG 20010904//EN"
 "http://www.w3.org/TR/2001/REC-SVG-20010904/DTD/svg10.dtd">
<svg version="1.0" xmlns="http://www.w3.org/2000/svg"
 width="36.000000pt" height="110.000000pt" viewBox="0 0 36.000000 110.000000"
 preserveAspectRatio="xMidYMid meet">
<metadata>
Created by potrace 1.14, written by Peter Selinger 2001-2017
</metadata>
<g transform="translate(0.000000,110.000000) scale(0.100000,-0.100000)"
fill="#000000" stroke="none">
<path fill="#000000" stroke="none" d="M252 1093 c-8 -3 -26 -31 -41 -63 -15
-32 -41 -80 -58 -107 -25 -39 -33 -66 -43 -150 -13 -108 -16 -112 -76 -113
-34 0 -36 -27 -5 -88 41 -82 45 -153 20 -325 -19 -126 -21 -228 -7 -242 7 -8
161 26 176 38 11 8 7 16 -17 34 -28 22 -31 30 -31 82 0 42 8 79 31 132 27 65
29 78 20 110 -12 40 -15 128 -5 153 3 9 14 16 24 16 9 0 25 9 35 20 15 17 16
24 5 49 -10 25 -9 40 8 93 11 35 23 90 26 124 3 33 15 83 26 109 13 31 19 59
15 77 -10 45 -59 69 -103 51z"/>
</g>
</svg>
