<?xml version="1.0" standalone="no"?>
<!DOCTYPE svg PUBLIC "-//W3C//DTD SVG 20010904//EN"
 "http://www.w3.org/TR/2001/REC-SVG-20010904/DTD/svg10.dtd">
<svg version="1.0" xmlns="http://www.w3.org/2000/svg"
 width="52.000000pt" height="117.000000pt" viewBox="0 0 52.000000 117.000000"
 preserveAspectRatio="xMidYMid meet">
<metadata>
Created by potrace 1.14, written by Peter Selinger 2001-2017
</metadata>
<g transform="translate(0.000000,117.000000) scale(0.100000,-0.100000)"
fill="#000000" stroke="none">
<path fill="#000000" stroke="none" d="M271 1112 c-7 -36 -23 -76 -41 -100
-51 -71 -106 -194 -130 -291 -26 -107 -24 -202 8 -373 l19 -96 -63 -111 c-55
-97 -61 -111 -44 -112 11 -1 25 -2 31 -3 7 -1 18 16 25 37 8 21 46 80 86 130
40 50 92 118 116 151 l43 61 -7 -45 c-3 -25 -18 -85 -32 -133 -25 -87 -25 -89
-8 -142 16 -51 19 -55 59 -65 23 -6 48 -13 56 -16 17 -5 9 46 -20 126 l-20 55
41 113 c22 62 40 119 40 127 0 8 -19 44 -42 81 -35 56 -43 77 -46 130 -2 34 1
78 7 97 11 33 16 36 84 52 40 10 75 19 79 22 7 4 -9 62 -22 76 -3 4 -29 -11
-57 -33 -28 -22 -53 -40 -56 -40 -15 0 -12 70 4 108 20 46 73 232 67 237 -2 1
-39 6 -84 9 l-81 7 -12 -59z"/>
</g>
</svg>
