<?xml version="1.0" standalone="no"?>
<!DOCTYPE svg PUBLIC "-//W3C//DTD SVG 20010904//EN"
 "http://www.w3.org/TR/2001/REC-SVG-20010904/DTD/svg10.dtd">
<svg version="1.0" xmlns="http://www.w3.org/2000/svg"
 width="55.000000pt" height="187.000000pt" viewBox="0 0 55.000000 187.000000"
 preserveAspectRatio="xMidYMid meet">
<metadata>
Created by potrace 1.14, written by Peter Selinger 2001-2017
</metadata>
<g transform="translate(0.000000,187.000000) scale(0.100000,-0.100000)"
fill="#000000" stroke="none">
<path fill="#000000" stroke="none" d="M224 1851 c-17 -10 -41 -33 -53 -50
-19 -26 -21 -39 -16 -74 4 -23 16 -56 26 -73 13 -22 17 -41 13 -62 -5 -26 -14
-33 -72 -54 l-66 -24 -26 -79 -26 -79 22 -60 c45 -122 37 -114 66 -65 l25 43
18 -35 c10 -19 19 -35 20 -37 2 -2 26 9 54 25 48 26 53 33 78 103 15 41 49
117 74 168 40 79 44 92 28 92 -13 0 -17 5 -12 18 11 31 37 53 56 48 12 -3 17
0 14 7 -59 147 -59 148 -119 178 -68 34 -65 34 -104 10z"/>
<path fill="#000000" stroke="none" d="M371 611 c-7 -5 -10 -14 -6 -21 4 -6 7
-38 6 -71 0 -32 4 -70 9 -84 16 -43 -17 -43 -124 1 -17 7 -18 3 -12 -50 4 -31
4 -70 1 -87 -6 -27 -10 -30 -38 -27 -30 3 -32 1 -29 -27 2 -16 14 -47 28 -67
13 -21 24 -42 24 -47 0 -19 39 -32 59 -21 15 7 20 20 19 48 -1 22 10 63 27
101 l29 64 33 -99 c18 -54 33 -107 33 -117 0 -10 -16 -33 -36 -51 -42 -39 -39
-42 62 -51 88 -8 102 0 86 52 -6 21 -16 79 -22 128 -6 50 -15 122 -20 161 -5
39 -20 115 -34 168 -14 53 -26 98 -26 101 0 8 -54 5 -69 -4z"/>
</g>
</svg>
