<?xml version="1.0" standalone="no"?>
<!DOCTYPE svg PUBLIC "-//W3C//DTD SVG 20010904//EN"
 "http://www.w3.org/TR/2001/REC-SVG-20010904/DTD/svg10.dtd">
<svg version="1.0" xmlns="http://www.w3.org/2000/svg"
 width="33.000000pt" height="53.000000pt" viewBox="0 0 33.000000 53.000000"
 preserveAspectRatio="xMidYMid meet">
<metadata>
Created by potrace 1.14, written by Peter Selinger 2001-2017
</metadata>
<g transform="translate(0.000000,53.000000) scale(0.100000,-0.100000)"
fill="#000000" stroke="none">
<path fill="#000000" stroke="none" d="M170 512 c-49 -24 -52 -69 -10 -151
l30 -61 -27 0 -28 -1 24 -13 24 -14 -52 -55 c-28 -30 -66 -61 -84 -68 -77 -31
-57 -52 92 -98 147 -45 191 -55 191 -40 0 6 -5 75 -11 154 -7 95 -7 156 0 179
5 20 6 38 1 41 -4 2 -10 23 -14 45 -9 55 -43 100 -75 100 -14 0 -42 -8 -61
-18z"/>
</g>
</svg>
