<?xml version="1.0" standalone="no"?>
<!DOCTYPE svg PUBLIC "-//W3C//DTD SVG 20010904//EN"
 "http://www.w3.org/TR/2001/REC-SVG-20010904/DTD/svg10.dtd">
<svg version="1.0" xmlns="http://www.w3.org/2000/svg"
 width="18.000000pt" height="47.000000pt" viewBox="0 0 18.000000 47.000000"
 preserveAspectRatio="xMidYMid meet">
<metadata>
Created by potrace 1.14, written by Peter Selinger 2001-2017
</metadata>
<g transform="translate(0.000000,47.000000) scale(0.100000,-0.100000)"
fill="#000000" stroke="none">
<path fill="#000000" stroke="none" d="M50 441 c0 -16 -6 -31 -14 -34 -22 -9
-34 -173 -24 -349 l3 -58 35 0 c29 1 32 2 17 11 -14 8 -16 18 -11 47 4 20 13
44 21 54 11 12 13 32 8 85 -4 39 -2 78 4 93 7 18 10 20 10 7 1 -24 43 -87 59
-87 17 0 15 8 -13 64 -27 54 -25 66 11 66 13 0 24 4 24 8 0 5 -13 7 -30 4 -24
-3 -31 0 -38 19 -5 13 -7 41 -4 62 4 36 3 37 -27 37 -28 0 -31 -3 -31 -29z"/>
</g>
</svg>
