<?xml version="1.0" standalone="no"?>
<!DOCTYPE svg PUBLIC "-//W3C//DTD SVG 20010904//EN"
 "http://www.w3.org/TR/2001/REC-SVG-20010904/DTD/svg10.dtd">
<svg version="1.0" xmlns="http://www.w3.org/2000/svg"
 width="123.000000pt" height="139.000000pt" viewBox="0 0 123.000000 139.000000"
 preserveAspectRatio="xMidYMid meet">
<metadata>
Created by potrace 1.14, written by Peter Selinger 2001-2017
</metadata>
<g transform="translate(0.000000,139.000000) scale(0.100000,-0.100000)"
fill="#000000" stroke="none">
<path fill="#000000" stroke="none" d="M512 1378 c-48 -16 -61 -66 -37 -150 9
-35 26 -76 37 -91 26 -37 20 -59 -40 -138 -34 -44 -69 -77 -113 -103 -35 -22
-107 -81 -159 -131 -80 -78 -102 -94 -137 -99 l-41 -7 -11 -61 c-16 -94 -3
-100 70 -34 54 49 194 149 420 303 l91 61 89 -51 c102 -59 100 -50 45 -169
-32 -69 -42 -81 -115 -137 -44 -34 -78 -67 -76 -74 2 -6 25 -79 50 -160 l47
-149 -12 -71 c-7 -40 -17 -78 -23 -85 -14 -17 -11 -18 64 -25 l66 -6 62 131
c34 72 59 134 54 138 -4 4 -34 12 -65 19 l-57 12 -6 57 c-4 31 -9 64 -11 73
-3 12 32 26 177 70 l182 54 53 55 c39 40 62 75 84 130 16 41 30 81 30 89 0 28
-72 129 -137 192 -37 36 -112 100 -166 142 -80 63 -106 78 -145 83 -43 6 -51
12 -102 75 -52 65 -57 69 -95 68 -22 -1 -55 -6 -73 -11z"/>
</g>
</svg>
