<?xml version="1.0" standalone="no"?>
<!DOCTYPE svg PUBLIC "-//W3C//DTD SVG 20010904//EN"
 "http://www.w3.org/TR/2001/REC-SVG-20010904/DTD/svg10.dtd">
<svg version="1.0" xmlns="http://www.w3.org/2000/svg"
 width="18.000000pt" height="44.000000pt" viewBox="0 0 18.000000 44.000000"
 preserveAspectRatio="xMidYMid meet">
<metadata>
Created by potrace 1.14, written by Peter Selinger 2001-2017
</metadata>
<g transform="translate(0.000000,44.000000) scale(0.100000,-0.100000)"
fill="#000000" stroke="none">
<path fill="#000000" stroke="none" d="M72 392 c-11 -26 -32 -58 -46 -71 -25
-24 -25 -25 -9 -50 9 -14 27 -34 40 -44 20 -16 23 -27 23 -91 0 -39 -5 -77
-11 -83 -6 -6 -8 -20 -4 -32 8 -25 51 -29 81 -6 18 14 18 14 0 15 -11 0 -16 5
-13 14 3 8 9 32 12 53 4 21 13 57 21 81 8 23 14 73 14 111 0 61 -3 72 -32 109
-18 23 -38 42 -44 42 -6 0 -21 -21 -32 -48z"/>
</g>
</svg>
