<?xml version="1.0" standalone="no"?>
<!DOCTYPE svg PUBLIC "-//W3C//DTD SVG 20010904//EN"
 "http://www.w3.org/TR/2001/REC-SVG-20010904/DTD/svg10.dtd">
<svg version="1.0" xmlns="http://www.w3.org/2000/svg"
 width="26.000000pt" height="52.000000pt" viewBox="0 0 26.000000 52.000000"
 preserveAspectRatio="xMidYMid meet">
<metadata>
Created by potrace 1.14, written by Peter Selinger 2001-2017
</metadata>
<g transform="translate(0.000000,52.000000) scale(0.100000,-0.100000)"
fill="#000000" stroke="none">
<path fill="#000000" stroke="none" d="M68 442 c-49 -55 -68 -84 -68 -104 0
-17 34 -83 91 -175 50 -82 94 -152 99 -156 4 -4 19 8 33 26 l26 35 -19 67 -19
67 25 80 c20 63 24 90 18 134 -3 30 -7 54 -9 54 -1 0 -27 11 -56 24 l-54 24
-67 -76z"/>
</g>
</svg>
