<?xml version="1.0" standalone="no"?>
<!DOCTYPE svg PUBLIC "-//W3C//DTD SVG 20010904//EN"
 "http://www.w3.org/TR/2001/REC-SVG-20010904/DTD/svg10.dtd">
<svg version="1.0" xmlns="http://www.w3.org/2000/svg"
 width="169.000000pt" height="109.000000pt" viewBox="0 0 169.000000 109.000000"
 preserveAspectRatio="xMidYMid meet">
<metadata>
Created by potrace 1.14, written by Peter Selinger 2001-2017
</metadata>
<g transform="translate(0.000000,109.000000) scale(0.100000,-0.100000)"
fill="#000000" stroke="none">
<path fill="#000000" stroke="none" d="M1398 1062 l-48 -27 0 -70 c0 -69 0
-70 -40 -105 l-40 -35 87 -145 c56 -93 97 -175 114 -228 l28 -83 -26 -57 c-14
-31 -31 -74 -39 -94 l-13 -38 67 0 c37 0 72 4 78 8 7 4 17 34 24 67 7 33 25
101 40 150 63 200 64 204 35 303 -25 81 -30 91 -86 142 -57 52 -61 59 -75 125
-9 45 -23 78 -37 92 l-22 22 -47 -27z"/>
<path fill="#000000" stroke="none" d="M104 951 c-36 -22 -60 -90 -49 -140 5
-23 1 -38 -15 -61 -11 -16 -25 -55 -30 -87 -13 -76 -13 -289 0 -312 20 -39 46
-186 38 -226 -7 -42 -10 -125 -5 -125 2 0 28 13 58 30 l54 29 0 98 c0 103 10
134 46 154 29 15 153 49 180 49 12 0 38 12 58 27 20 14 37 27 38 27 4 2 -27
171 -38 203 -18 55 -81 144 -127 178 -36 27 -40 35 -45 83 -3 30 -13 63 -23
73 -23 25 -98 26 -140 0z"/>
</g>
</svg>
