<?xml version="1.0" standalone="no"?>
<!DOCTYPE svg PUBLIC "-//W3C//DTD SVG 20010904//EN"
 "http://www.w3.org/TR/2001/REC-SVG-20010904/DTD/svg10.dtd">
<svg version="1.0" xmlns="http://www.w3.org/2000/svg"
 width="56.000000pt" height="91.000000pt" viewBox="0 0 56.000000 91.000000"
 preserveAspectRatio="xMidYMid meet">
<metadata>
Created by potrace 1.14, written by Peter Selinger 2001-2017
</metadata>
<g transform="translate(0.000000,91.000000) scale(0.100000,-0.100000)"
fill="#000000" stroke="none">
<path fill="#000000" stroke="none" d="M495 902 c-51 -11 -84 -74 -58 -112 12
-18 12 -20 -2 -20 -26 0 -73 -56 -111 -132 -22 -44 -43 -72 -58 -78 -13 -4
-34 -23 -47 -41 -13 -18 -50 -58 -81 -89 -64 -63 -73 -88 -84 -234 -6 -78 -8
-84 -25 -76 -28 16 -34 -8 -7 -30 13 -11 38 -19 59 -20 l37 0 18 96 c17 89 20
97 55 124 l36 29 -9 -50 c-10 -53 -69 -192 -93 -219 -13 -15 -11 -18 21 -34
20 -9 38 -16 39 -14 7 8 75 149 96 198 12 30 56 98 96 152 40 53 89 127 110
164 20 38 45 76 55 86 20 20 25 102 7 113 -23 15 -29 55 -14 92 8 19 15 41 15
47 -1 22 -35 53 -55 48z"/>
</g>
</svg>
