<?xml version="1.0" standalone="no"?>
<!DOCTYPE svg PUBLIC "-//W3C//DTD SVG 20010904//EN"
 "http://www.w3.org/TR/2001/REC-SVG-20010904/DTD/svg10.dtd">
<svg version="1.0" xmlns="http://www.w3.org/2000/svg"
 width="18.000000pt" height="56.000000pt" viewBox="0 0 18.000000 56.000000"
 preserveAspectRatio="xMidYMid meet">
<metadata>
Created by potrace 1.14, written by Peter Selinger 2001-2017
</metadata>
<g transform="translate(0.000000,56.000000) scale(0.100000,-0.100000)"
fill="#000000" stroke="none">
<path fill="#000000" stroke="none" d="M72 552 c-7 -5 -13 -26 -12 -48 0 -21
-6 -134 -13 -250 -10 -184 -15 -215 -31 -233 l-19 -21 40 0 c39 0 41 1 47 37
3 21 6 57 6 80 0 38 2 42 28 45 23 3 28 9 33 43 3 22 11 53 18 69 14 36 5 164
-14 186 -7 8 -16 30 -20 48 -4 18 -15 37 -25 42 -22 12 -22 12 -38 2z"/>
</g>
</svg>
