<?xml version="1.0" standalone="no"?>
<!DOCTYPE svg PUBLIC "-//W3C//DTD SVG 20010904//EN"
 "http://www.w3.org/TR/2001/REC-SVG-20010904/DTD/svg10.dtd">
<svg version="1.0" xmlns="http://www.w3.org/2000/svg"
 width="23.000000pt" height="45.000000pt" viewBox="0 0 23.000000 45.000000"
 preserveAspectRatio="xMidYMid meet">
<metadata>
Created by potrace 1.14, written by Peter Selinger 2001-2017
</metadata>
<g transform="translate(0.000000,45.000000) scale(0.100000,-0.100000)"
fill="#000000" stroke="none">
<path fill="#000000" stroke="none" d="M53 434 c-29 -12 -33 -19 -33 -52 0
-20 7 -46 15 -56 21 -27 19 -40 -7 -51 -22 -10 -23 -16 -26 -136 l-3 -126 78
-5 c86 -6 94 -2 92 47 -1 17 -1 57 0 90 2 59 2 60 20 39 17 -21 18 -21 29 -3
7 10 12 26 12 35 0 18 -67 84 -86 84 -13 0 -24 44 -24 94 0 29 -15 57 -29 55
-4 0 -21 -7 -38 -15z"/>
</g>
</svg>
