<?xml version="1.0" standalone="no"?>
<!DOCTYPE svg PUBLIC "-//W3C//DTD SVG 20010904//EN"
 "http://www.w3.org/TR/2001/REC-SVG-20010904/DTD/svg10.dtd">
<svg version="1.0" xmlns="http://www.w3.org/2000/svg"
 width="27.000000pt" height="36.000000pt" viewBox="0 0 27.000000 36.000000"
 preserveAspectRatio="xMidYMid meet">
<metadata>
Created by potrace 1.14, written by Peter Selinger 2001-2017
</metadata>
<g transform="translate(0.000000,36.000000) scale(0.100000,-0.100000)"
fill="#000000" stroke="none">
<path fill="#000000" stroke="none" d="M112 351 c-9 -5 -12 -21 -10 -42 3 -30
0 -34 -31 -43 -24 -7 -37 -19 -47 -43 -21 -50 -28 -144 -14 -187 l12 -36 99 0
99 0 1 28 1 27 11 -27 c14 -35 25 -36 33 -2 16 64 -27 201 -72 224 -14 8 -24
22 -24 36 0 57 -26 86 -58 65z"/>
</g>
</svg>
