<?xml version="1.0" standalone="no"?>
<!DOCTYPE svg PUBLIC "-//W3C//DTD SVG 20010904//EN"
 "http://www.w3.org/TR/2001/REC-SVG-20010904/DTD/svg10.dtd">
<svg version="1.0" xmlns="http://www.w3.org/2000/svg"
 width="49.000000pt" height="86.000000pt" viewBox="0 0 49.000000 86.000000"
 preserveAspectRatio="xMidYMid meet">
<metadata>
Created by potrace 1.14, written by Peter Selinger 2001-2017
</metadata>
<g transform="translate(0.000000,86.000000) scale(0.100000,-0.100000)"
fill="#000000" stroke="none">
<path fill="#000000" stroke="none" d="M352 813 l-82 -45 21 -35 c12 -19 20
-35 18 -37 -2 -1 -33 -14 -69 -28 -58 -23 -68 -31 -92 -75 l-27 -49 29 -45 30
-44 -79 -3 -80 -3 -11 -34 c-11 -35 -1 -92 21 -120 4 -6 51 -28 102 -49 80
-32 114 -54 223 -143 l129 -106 3 408 c2 408 2 408 -20 432 -12 13 -24 23 -27
22 -3 0 -43 -21 -89 -46z"/>
</g>
</svg>
