<?xml version="1.0" standalone="no"?>
<!DOCTYPE svg PUBLIC "-//W3C//DTD SVG 20010904//EN"
 "http://www.w3.org/TR/2001/REC-SVG-20010904/DTD/svg10.dtd">
<svg version="1.0" xmlns="http://www.w3.org/2000/svg"
 width="552.000000pt" height="391.000000pt" viewBox="0 0 552.000000 391.000000"
 preserveAspectRatio="xMidYMid meet">
<metadata>
Created by potrace 1.14, written by Peter Selinger 2001-2017
</metadata>
<g transform="translate(0.000000,391.000000) scale(0.100000,-0.100000)"
fill="#000000" stroke="none">
<path fill="#000000" stroke="none" d="M660 3847 c-141 -96 -297 -277 -407
-475 -56 -101 -78 -129 -160 -207 l-94 -90 20 -248 20 -248 39 -72 40 -72 -20
-50 c-11 -28 -25 -93 -33 -145 l-13 -95 61 -115 c33 -63 65 -118 70 -122 6 -3
37 -10 69 -13 l58 -7 0 -46 c0 -64 -20 -134 -63 -218 -30 -59 -39 -95 -59
-224 l-24 -154 28 -181 c56 -357 183 -742 315 -955 36 -58 66 -106 67 -107 1
-2 46 13 100 33 71 25 122 51 181 95 72 52 106 68 249 118 147 51 173 64 224
108 90 78 111 90 211 118 64 18 153 56 275 120 132 68 217 105 314 135 108 33
151 53 222 100 49 32 120 68 157 80 127 42 322 156 438 255 91 78 183 140 268
181 43 20 77 40 77 44 0 4 16 8 35 8 27 0 61 -19 166 -94 99 -70 141 -95 173
-99 246 -34 222 -34 352 2 65 18 276 62 468 97 193 36 396 75 451 87 118 26
99 27 349 -8 150 -20 203 -31 215 -44 15 -16 16 -7 13 114 -2 73 -6 134 -8
136 -2 2 -65 -8 -139 -23 -121 -24 -168 -28 -433 -35 l-297 -7 -190 84 c-104
46 -266 115 -360 152 l-170 69 3 113 c3 84 10 136 29 202 23 80 25 102 21 225
l-3 137 -107 167 c-108 167 -108 168 -187 401 l-79 233 -122 164 c-112 152
-131 172 -268 286 -147 122 -147 123 -199 123 -140 0 -1647 20 -1928 25 l-320
5 -95 -63z"/>
</g>
</svg>
