<?xml version="1.0" standalone="no"?>
<!DOCTYPE svg PUBLIC "-//W3C//DTD SVG 20010904//EN"
 "http://www.w3.org/TR/2001/REC-SVG-20010904/DTD/svg10.dtd">
<svg version="1.0" xmlns="http://www.w3.org/2000/svg"
 width="25.000000pt" height="62.000000pt" viewBox="0 0 25.000000 62.000000"
 preserveAspectRatio="xMidYMid meet">
<metadata>
Created by potrace 1.14, written by Peter Selinger 2001-2017
</metadata>
<g transform="translate(0.000000,62.000000) scale(0.100000,-0.100000)"
fill="#000000" stroke="none">
<path fill="#000000" stroke="none" d="M44 594 c-4 -14 -4 -57 0 -94 5 -62 4
-69 -13 -75 -25 -8 -31 -44 -31 -194 0 -126 0 -128 27 -153 27 -25 208 -86
220 -75 2 3 -3 39 -12 81 -16 70 -16 83 -1 176 20 129 20 147 -3 176 -10 13
-22 49 -26 79 -8 64 -22 82 -73 90 -20 3 -47 8 -59 11 -18 3 -24 -1 -29 -22z"/>
</g>
</svg>
