<?xml version="1.0" standalone="no"?>
<!DOCTYPE svg PUBLIC "-//W3C//DTD SVG 20010904//EN"
 "http://www.w3.org/TR/2001/REC-SVG-20010904/DTD/svg10.dtd">
<svg version="1.0" xmlns="http://www.w3.org/2000/svg"
 width="32.000000pt" height="48.000000pt" viewBox="0 0 32.000000 48.000000"
 preserveAspectRatio="xMidYMid meet">
<metadata>
Created by potrace 1.14, written by Peter Selinger 2001-2017
</metadata>
<g transform="translate(0.000000,48.000000) scale(0.100000,-0.100000)"
fill="#000000" stroke="none">
<path fill="#000000" stroke="none" d="M118 453 c-42 -33 -61 -90 -46 -134 5
-15 8 -36 5 -46 -3 -16 -5 -15 -13 4 -14 34 -33 14 -48 -50 -13 -54 -12 -55
11 -66 14 -7 23 -19 23 -34 0 -13 4 -27 9 -32 5 -6 11 -21 13 -35 3 -21 10
-26 53 -32 28 -4 73 -12 100 -18 28 -5 61 -7 74 -3 24 6 24 7 18 109 -8 118
-18 148 -58 165 -24 10 -29 17 -29 48 0 51 -16 100 -42 128 -27 29 -27 29 -70
-4z"/>
</g>
</svg>
