<?xml version="1.0" standalone="no"?>
<!DOCTYPE svg PUBLIC "-//W3C//DTD SVG 20010904//EN"
 "http://www.w3.org/TR/2001/REC-SVG-20010904/DTD/svg10.dtd">
<svg version="1.0" xmlns="http://www.w3.org/2000/svg"
 width="427.000000pt" height="382.000000pt" viewBox="0 0 427.000000 382.000000"
 preserveAspectRatio="xMidYMid meet">
<metadata>
Created by potrace 1.14, written by Peter Selinger 2001-2017
</metadata>
<g transform="translate(0.000000,382.000000) scale(0.100000,-0.100000)"
fill="#000000" stroke="none">
<path fill="#000000" stroke="none" d="M96 3787 c-15 -19 -26 -37 -26 -41 0
-5 -8 -20 -18 -34 -10 -15 -23 -45 -29 -67 -10 -38 -10 -210 0 -268 2 -15 1
-30 -4 -33 -5 -3 -9 -236 -9 -519 l0 -515 55 0 c44 0 71 8 140 42 65 32 85 47
85 63 0 11 6 31 13 45 7 14 19 51 27 83 11 48 11 69 1 122 -7 35 -10 69 -6 75
4 6 4 33 0 61 -6 41 -11 50 -31 55 -29 7 -31 20 -4 34 11 6 20 17 20 24 0 29
31 39 123 40 115 2 168 27 250 116 44 47 61 75 75 121 16 55 19 59 52 65 50 9
128 53 151 86 13 18 33 30 57 34 20 4 49 13 64 20 39 20 41 18 15 -23 -13 -21
-40 -72 -59 -114 -22 -47 -52 -91 -77 -114 -23 -21 -41 -43 -41 -50 0 -6 -20
-31 -45 -55 -24 -24 -56 -67 -69 -95 -14 -28 -37 -62 -51 -75 -14 -13 -25 -28
-25 -33 0 -5 -9 -21 -19 -36 -11 -15 -23 -40 -26 -57 -11 -47 -55 -162 -75
-194 -9 -14 -30 -56 -86 -175 -12 -28 -44 -74 -69 -104 -25 -29 -52 -68 -59
-86 -7 -17 -27 -47 -43 -66 -17 -19 -36 -45 -43 -59 -7 -14 -31 -46 -52 -71
-21 -25 -38 -49 -38 -54 0 -4 -15 -26 -34 -49 -18 -23 -37 -52 -41 -66 -9 -28
-31 -60 -87 -124 -47 -54 -66 -125 -51 -194 5 -27 8 -182 7 -369 l-3 -322 40
-35 c34 -32 45 -36 92 -36 30 0 62 6 74 15 14 10 32 13 52 9 28 -6 31 -10 31
-45 0 -21 5 -41 10 -44 6 -3 10 -13 10 -21 0 -12 -5 -12 -31 2 -24 12 -52 15
-110 12 -67 -3 -83 -7 -121 -34 l-43 -30 0 -184 0 -184 43 -30 c39 -28 51 -31
180 -40 75 -6 143 -15 150 -19 6 -5 12 -21 12 -37 0 -38 23 -50 97 -50 92 0
102 9 164 141 4 8 19 39 34 67 l27 52 -23 68 c-23 65 -25 67 -61 70 -41 3 -42
5 -29 48 5 16 12 41 15 57 6 27 8 27 81 27 63 0 75 3 75 16 0 14 -10 16 -70
12 -38 -3 -70 -2 -70 2 0 23 44 59 80 65 35 6 39 9 30 25 -7 13 -6 19 5 24 8
3 15 15 15 26 0 12 5 30 10 41 23 42 110 9 110 -41 0 -17 7 -20 38 -20 30 0
48 8 78 35 32 28 36 34 19 35 -18 1 -17 3 7 23 21 17 29 35 34 72 4 30 16 61
31 78 12 16 23 32 23 35 3 55 44 202 73 259 21 40 37 83 37 95 0 16 20 39 63
74 51 41 70 66 102 130 22 43 50 94 63 111 l24 33 92 0 c51 0 118 5 150 11 31
5 136 12 234 15 407 11 410 11 475 -62 54 -61 107 -84 196 -84 71 0 73 -1 67
-22 -4 -13 -11 -48 -16 -78 -14 -88 -40 -173 -60 -195 -41 -44 -51 -118 -25
-169 8 -15 15 -50 15 -76 0 -26 7 -67 15 -90 13 -36 13 -52 3 -96 -12 -52 -13
-52 -24 -26 -19 46 -64 92 -117 118 -43 22 -60 25 -127 23 -46 -2 -83 1 -91 8
-8 6 -33 20 -56 32 -50 25 -165 29 -217 7 -55 -23 -111 -81 -147 -153 -33 -66
-34 -72 -34 -185 0 -64 3 -119 7 -123 4 -4 31 1 60 10 42 14 67 32 118 85 63
65 68 69 150 90 47 12 92 28 100 35 9 8 45 15 87 16 89 4 117 -13 146 -89 22
-57 21 -57 116 -45 l53 6 -5 34 -6 34 35 -30 c49 -43 93 -42 161 5 40 28 74
40 145 55 51 10 144 34 206 53 99 30 121 41 183 91 68 57 69 58 54 82 -15 23
-14 25 19 56 23 22 37 46 41 72 4 22 14 53 23 69 8 16 18 57 23 90 4 34 15
113 23 176 17 124 37 216 58 267 l14 33 35 -36 c37 -39 97 -74 126 -74 10 0
37 -22 61 -50 23 -27 56 -57 72 -67 17 -9 30 -21 30 -26 0 -5 9 -22 21 -38 19
-27 20 -35 10 -74 -14 -56 -14 -143 0 -183 9 -25 8 -42 -5 -79 -29 -84 -17
-182 30 -239 l23 -29 1 41 c0 37 2 41 23 38 12 -2 66 -5 120 -8 l97 -4 0 654
0 654 -52 0 c-68 0 -128 -30 -179 -89 l-41 -47 -46 23 c-25 13 -53 23 -62 23
-10 0 -29 18 -43 39 -15 22 -40 47 -57 57 -35 21 -35 20 -14 69 12 30 15 67
12 174 -2 115 1 148 18 211 22 75 22 75 60 81 92 13 154 66 207 178 28 57 32
77 32 146 0 97 -38 212 -92 274 l-34 40 17 57 c18 64 14 122 -13 181 -10 21
-20 63 -23 93 l-5 55 -1572 0 -1572 0 -28 -26 c-17 -16 -45 -29 -71 -33 -39
-6 -47 -3 -84 29 l-42 35 -232 0 -233 0 -25 -33z"/>
<path fill="#ffffff" stroke="none" d="M2915 3376 c13 -19 14 -28 4 -50 -18
-38 -60 -39 -98 -1 -23 23 -24 25 -7 49 23 35 79 36 101 2z"/>
<path fill="#ffffff" stroke="none" d="M2820 2284 c0 -7 -8 -29 -17 -49 -15
-32 -21 -35 -57 -35 -62 0 -84 9 -104 44 -30 50 -21 56 84 55 72 -1 94 -4 94
-15z"/>
<path fill="#ffffff" stroke="none" d="M1887 2255 c18 -12 20 -22 16 -55 -5
-34 -2 -44 16 -56 27 -19 74 -118 67 -141 -8 -24 -109 -53 -185 -53 -60 0 -61
0 -87 41 -21 35 -24 45 -15 70 17 51 50 87 79 91 26 3 27 5 24 50 -2 26 -1 52
3 58 9 15 57 12 82 -5z"/>
<path fill="#ffffff" stroke="none" d="M2857 1923 c3 -9 1 -39 -5 -67 -11 -50
-10 -51 20 -80 34 -31 56 -111 33 -120 -6 -2 -22 -27 -35 -55 -21 -43 -31 -53
-68 -65 -50 -18 -45 -25 -62 97 -11 76 -10 92 4 129 12 30 15 55 11 93 -6 47
-5 54 16 69 31 21 78 21 86 -1z"/>
<path fill="#ffffff" stroke="none" d="M3320 1578 c24 -26 25 -46 5 -72 -22
-29 -19 -36 18 -36 35 0 60 -19 71 -55 11 -38 9 -114 -3 -129 -11 -13 -18 -10
-48 22 -28 29 -36 46 -37 76 -1 34 -5 41 -30 49 -40 13 -60 -13 -52 -65 5 -32
3 -38 -12 -38 -10 0 -27 -7 -38 -15 -35 -26 -41 -19 -33 45 8 69 21 90 56 90
30 0 39 22 25 68 -21 67 33 108 78 60z"/>
<path fill="#ffffff" stroke="none" d="M3341 1074 c35 -5 37 -8 44 -51 3 -24
5 -46 3 -48 -2 -1 -57 2 -123 6 -66 5 -130 7 -142 4 -22 -5 -23 -2 -23 51 l0
56 103 -6 c56 -4 118 -9 138 -12z"/>
<path fill="#000000" stroke="none" d="M1868 528 c-16 -5 -28 -14 -28 -19 0
-6 25 -35 56 -66 l55 -56 39 38 c21 21 64 52 95 70 52 29 55 33 34 38 -37 10
-221 7 -251 -5z"/>
<path fill="#000000" stroke="none" d="M2665 465 c-61 -28 -87 -58 -92 -108
-5 -43 -4 -47 20 -56 14 -6 31 -19 36 -30 6 -11 20 -22 30 -26 23 -7 35 -37
32 -82 -2 -32 4 -37 39 -34 8 1 25 -18 38 -41 12 -24 31 -54 42 -68 19 -24 20
-24 20 -4 0 38 21 81 44 92 18 8 22 16 19 39 -4 27 -1 31 38 46 l42 16 -7 48
c-3 27 -17 68 -29 93 -22 41 -27 45 -60 44 -31 -1 -38 3 -54 35 -10 20 -22 39
-28 43 -17 12 -98 8 -130 -7z"/>
<path fill="#000000" stroke="none" d="M1751 398 c0 -7 15 -44 32 -81 l32 -68
34 35 35 36 -25 26 c-21 23 -88 64 -104 64 -3 0 -5 -6 -4 -12z"/>
<path fill="#000000" stroke="none" d="M1476 329 c-25 -30 -26 -32 -9 -44 14
-11 18 -26 16 -74 -3 -66 11 -91 50 -91 33 -1 65 -30 81 -75 12 -32 15 -35 15
-16 1 14 8 32 16 41 13 14 12 25 -6 91 -19 70 -20 122 -3 182 5 15 -3 17 -64
17 -66 0 -72 -2 -96 -31z"/>
</g>
</svg>
