<?xml version="1.0" standalone="no"?>
<!DOCTYPE svg PUBLIC "-//W3C//DTD SVG 20010904//EN"
 "http://www.w3.org/TR/2001/REC-SVG-20010904/DTD/svg10.dtd">
<svg version="1.0" xmlns="http://www.w3.org/2000/svg"
 width="52.000000pt" height="221.000000pt" viewBox="0 0 52.000000 221.000000"
 preserveAspectRatio="xMidYMid meet">
<metadata>
Created by potrace 1.14, written by Peter Selinger 2001-2017
</metadata>
<g transform="translate(0.000000,221.000000) scale(0.100000,-0.100000)"
fill="#000000" stroke="none">
<path fill="#000000" stroke="none" d="M12 2193 c-8 -13 -2 -29 24 -67 22 -33
34 -63 34 -86 1 -44 33 -231 50 -287 17 -57 1 -144 -34 -176 -16 -15 -27 -41
-35 -81 -11 -60 -11 -60 20 -93 18 -17 45 -35 61 -38 21 -5 27 -11 24 -23 -14
-48 -17 -132 -6 -168 6 -21 15 -94 20 -161 8 -115 12 -128 65 -259 31 -77 62
-165 70 -196 23 -102 -7 -173 -123 -290 -52 -53 -82 -91 -77 -96 55 -48 185
-152 202 -161 31 -16 41 -14 48 10 5 14 -5 39 -29 80 -20 33 -36 62 -36 64 0
1 32 6 70 10 39 4 70 9 70 12 0 3 -10 18 -21 35 -12 16 -25 46 -30 65 -7 35
-5 40 61 116 l68 81 7 82 c7 78 -6 217 -26 287 -5 17 -4 38 2 51 16 35 -20
198 -85 381 -42 120 -64 167 -99 212 -62 82 -85 130 -93 203 -4 38 -20 94 -39
135 -35 77 -65 201 -65 271 0 72 -72 135 -98 87z"/>
<path fill="#ffffff" stroke="none" d="M395 911 c3 -5 1 -12 -4 -15 -5 -3 -11
1 -15 9 -6 16 9 21 19 6z"/>
</g>
</svg>
