<?xml version="1.0" standalone="no"?>
<!DOCTYPE svg PUBLIC "-//W3C//DTD SVG 20010904//EN"
 "http://www.w3.org/TR/2001/REC-SVG-20010904/DTD/svg10.dtd">
<svg version="1.0" xmlns="http://www.w3.org/2000/svg"
 width="366.000000pt" height="568.000000pt" viewBox="0 0 366.000000 568.000000"
 preserveAspectRatio="xMidYMid meet">
<metadata>
Created by potrace 1.14, written by Peter Selinger 2001-2017
</metadata>
<g transform="translate(0.000000,568.000000) scale(0.100000,-0.100000)"
fill="#000000" stroke="none">
<path fill="#000000" stroke="none" d="M2434 5544 c-104 -75 -197 -144 -206
-153 -12 -11 -30 -82 -59 -228 l-41 -213 150 -232 150 -233 22 -145 c11 -80
22 -155 23 -167 1 -15 -49 -84 -163 -222 l-165 -200 -40 4 c-99 12 -1097 96
-1101 93 -1 -2 14 -57 34 -122 l37 -118 60 -19 c55 -18 107 -20 595 -25 294
-3 551 -9 572 -12 l36 -7 -274 -434 c-151 -239 -273 -435 -271 -437 1 -1 102
-60 224 -131 l222 -130 -42 -41 c-24 -23 -49 -42 -57 -42 -8 0 -121 32 -250
70 l-235 70 -262 -82 -262 -81 -172 -516 c-94 -284 -174 -519 -178 -523 -3 -4
-94 7 -202 25 l-196 33 -191 -382 -191 -381 272 -133 c270 -132 274 -133 624
-241 288 -90 390 -117 565 -149 117 -22 218 -40 224 -40 7 0 24 80 44 199 l33
198 -42 125 -41 124 40 92 c32 72 42 108 46 165 13 205 55 771 57 773 1 0 47
26 102 56 l100 56 445 36 c427 35 686 68 714 90 7 6 48 137 90 291 43 154 147
503 231 775 l154 495 -35 174 -35 174 -165 239 -165 239 28 37 c15 20 71 92
125 160 93 116 98 125 92 160 -3 20 -18 151 -34 290 l-28 253 -83 197 c-45
108 -83 198 -83 198 -1 2 -628 84 -642 84 -7 0 -97 -61 -200 -136z"/>
<path fill="#ffffff" stroke="none" d="M2913 2229 c86 -37 95 -44 101 -71 3
-17 4 -33 2 -35 -6 -7 -307 64 -318 75 -7 7 7 19 48 41 33 16 62 30 66 31 4 0
49 -18 101 -41z"/>
</g>
</svg>
