<?xml version="1.0" standalone="no"?>
<!DOCTYPE svg PUBLIC "-//W3C//DTD SVG 20010904//EN"
 "http://www.w3.org/TR/2001/REC-SVG-20010904/DTD/svg10.dtd">
<svg version="1.0" xmlns="http://www.w3.org/2000/svg"
 width="32.000000pt" height="235.000000pt" viewBox="0 0 32.000000 235.000000"
 preserveAspectRatio="xMidYMid meet">
<metadata>
Created by potrace 1.14, written by Peter Selinger 2001-2017
</metadata>
<g transform="translate(0.000000,235.000000) scale(0.100000,-0.100000)"
fill="#000000" stroke="none">
<path fill="#000000" stroke="none" d="M0 1185 l0 -1165 28 -6 c15 -3 33 -7
40 -10 17 -5 15 11 -18 171 l-28 140 50 270 c27 149 49 288 49 310 0 22 -16
173 -36 335 -20 162 -34 299 -31 306 3 8 205 169 264 209 1 2 -39 138 -89 304
l-93 301 -68 0 -68 0 0 -1165z"/>
</g>
</svg>
