<?xml version="1.0" standalone="no"?>
<!DOCTYPE svg PUBLIC "-//W3C//DTD SVG 20010904//EN"
 "http://www.w3.org/TR/2001/REC-SVG-20010904/DTD/svg10.dtd">
<svg version="1.0" xmlns="http://www.w3.org/2000/svg"
 width="48.000000pt" height="62.000000pt" viewBox="0 0 48.000000 62.000000"
 preserveAspectRatio="xMidYMid meet">
<metadata>
Created by potrace 1.14, written by Peter Selinger 2001-2017
</metadata>
<g transform="translate(0.000000,62.000000) scale(0.100000,-0.100000)"
fill="#000000" stroke="none">
<path fill="#000000" stroke="none" d="M17 603 c-10 -12 -17 -36 -17 -61 0
-38 4 -44 41 -67 22 -15 50 -25 62 -24 12 1 33 -3 47 -8 l25 -11 -27 -7 c-33
-8 -54 -30 -38 -40 17 -10 11 -78 -10 -110 -22 -34 -26 -75 -8 -93 7 -7 29
-12 50 -12 29 0 41 6 54 25 10 15 29 27 52 31 21 4 45 11 55 16 16 8 17 1 17
-86 0 -87 2 -97 26 -126 23 -27 32 -31 68 -28 54 4 66 28 66 138 0 63 -4 92
-16 109 -13 18 -16 41 -14 95 5 111 0 169 -16 194 -14 21 -22 23 -100 21 -66
-1 -89 2 -103 15 -9 9 -26 16 -37 16 -11 0 -25 5 -31 11 -6 6 -37 13 -70 16
-49 4 -61 2 -76 -14z"/>
</g>
</svg>
