<?xml version="1.0" standalone="no"?>
<!DOCTYPE svg PUBLIC "-//W3C//DTD SVG 20010904//EN"
 "http://www.w3.org/TR/2001/REC-SVG-20010904/DTD/svg10.dtd">
<svg version="1.0" xmlns="http://www.w3.org/2000/svg"
 width="37.000000pt" height="113.000000pt" viewBox="0 0 37.000000 113.000000"
 preserveAspectRatio="xMidYMid meet">
<metadata>
Created by potrace 1.14, written by Peter Selinger 2001-2017
</metadata>
<g transform="translate(0.000000,113.000000) scale(0.100000,-0.100000)"
fill="#000000" stroke="none">
<path fill="#000000" stroke="none" d="M131 1106 c-19 -20 -20 -28 -11 -76 5
-29 10 -54 10 -56 0 -2 -8 -4 -17 -4 -14 0 -25 -24 -49 -103 -27 -89 -29 -104
-17 -119 12 -13 12 -26 2 -80 -6 -34 -21 -80 -31 -102 l-19 -38 21 -24 c21
-21 22 -29 15 -108 -5 -67 -4 -89 8 -108 21 -32 33 -169 17 -198 -9 -17 -9
-25 4 -39 9 -10 16 -26 16 -35 0 -14 6 -17 23 -13 12 3 62 9 110 13 51 4 91
12 93 18 2 6 -2 34 -11 61 -15 52 -21 250 -9 339 6 40 10 46 30 46 41 0 48 32
49 200 0 128 -3 164 -19 206 -16 45 -24 54 -57 64 -35 12 -37 15 -32 45 3 18
0 48 -6 67 -9 27 -20 37 -55 50 -43 16 -45 16 -65 -6z"/>
</g>
</svg>
