<?xml version="1.0" standalone="no"?>
<!DOCTYPE svg PUBLIC "-//W3C//DTD SVG 20010904//EN"
 "http://www.w3.org/TR/2001/REC-SVG-20010904/DTD/svg10.dtd">
<svg version="1.0" xmlns="http://www.w3.org/2000/svg"
 width="52.000000pt" height="51.000000pt" viewBox="0 0 52.000000 51.000000"
 preserveAspectRatio="xMidYMid meet">
<metadata>
Created by potrace 1.14, written by Peter Selinger 2001-2017
</metadata>
<g transform="translate(0.000000,51.000000) scale(0.100000,-0.100000)"
fill="#000000" stroke="none">
<path fill="#000000" stroke="none" d="M35 503 l-31 -4 16 -115 15 -116 37
-18 c45 -22 84 -49 173 -121 82 -67 198 -126 237 -121 l26 3 4 112 c4 101 2
119 -22 182 l-25 69 -155 68 c-158 69 -177 73 -275 61z"/>
<path fill="#000000" stroke="none" d="M4 135 c13 -110 12 -108 70 -101 28 3
66 6 84 6 l33 0 -21 30 c-13 18 -26 27 -36 23 -10 -3 -31 9 -57 34 -82 76 -81
76 -73 8z"/>
</g>
</svg>
