<?xml version="1.0" standalone="no"?>
<!DOCTYPE svg PUBLIC "-//W3C//DTD SVG 20010904//EN"
 "http://www.w3.org/TR/2001/REC-SVG-20010904/DTD/svg10.dtd">
<svg version="1.0" xmlns="http://www.w3.org/2000/svg"
 width="14.000000pt" height="37.000000pt" viewBox="0 0 14.000000 37.000000"
 preserveAspectRatio="xMidYMid meet">
<metadata>
Created by potrace 1.14, written by Peter Selinger 2001-2017
</metadata>
<g transform="translate(0.000000,37.000000) scale(0.100000,-0.100000)"
fill="#000000" stroke="none">
<path fill="#000000" stroke="none" d="M42 358 c-7 -7 -12 -27 -12 -45 0 -19
-7 -49 -15 -69 -16 -38 -11 -87 11 -105 9 -7 14 -32 14 -70 0 -46 3 -59 15
-59 9 0 15 10 16 23 0 20 2 19 11 -6 11 -30 25 -31 42 -4 7 11 7 33 -2 73 -10
48 -9 62 3 87 22 43 18 74 -10 103 -14 14 -25 34 -25 44 0 25 -33 43 -48 28z"/>
</g>
</svg>
