<?xml version="1.0" standalone="no"?>
<!DOCTYPE svg PUBLIC "-//W3C//DTD SVG 20010904//EN"
 "http://www.w3.org/TR/2001/REC-SVG-20010904/DTD/svg10.dtd">
<svg version="1.0" xmlns="http://www.w3.org/2000/svg"
 width="43.000000pt" height="83.000000pt" viewBox="0 0 43.000000 83.000000"
 preserveAspectRatio="xMidYMid meet">
<metadata>
Created by potrace 1.14, written by Peter Selinger 2001-2017
</metadata>
<g transform="translate(0.000000,83.000000) scale(0.100000,-0.100000)"
fill="#000000" stroke="none">
<path fill="#000000" stroke="none" d="M178 823 c-22 -4 -28 -11 -36 -49 -6
-25 -8 -53 -5 -63 4 -14 -9 -27 -50 -52 -30 -19 -62 -47 -71 -62 -15 -28 -15
-28 13 -45 50 -28 59 -62 60 -233 1 -202 12 -234 92 -284 31 -19 61 -35 66
-34 4 1 28 23 52 50 43 48 43 50 26 69 -16 18 -17 35 -11 207 l7 188 55 50 56
50 -61 43 c-51 35 -61 48 -61 72 0 21 -11 38 -42 64 -23 20 -46 35 -52 35 -6
-1 -23 -4 -38 -6z"/>
</g>
</svg>
