<?xml version="1.0" standalone="no"?>
<!DOCTYPE svg PUBLIC "-//W3C//DTD SVG 20010904//EN"
 "http://www.w3.org/TR/2001/REC-SVG-20010904/DTD/svg10.dtd">
<svg version="1.0" xmlns="http://www.w3.org/2000/svg"
 width="13.000000pt" height="22.000000pt" viewBox="0 0 13.000000 22.000000"
 preserveAspectRatio="xMidYMid meet">
<metadata>
Created by potrace 1.14, written by Peter Selinger 2001-2017
</metadata>
<g transform="translate(0.000000,22.000000) scale(0.100000,-0.100000)"
fill="#000000" stroke="none">
<path fill="#000000" stroke="none" d="M60 196 c-5 -14 -13 -26 -18 -26 -8 0
-32 -42 -32 -55 0 -3 7 -5 15 -5 8 0 15 -4 15 -10 0 -5 -6 -10 -14 -10 -8 0
-15 -14 -18 -35 -3 -24 0 -35 9 -35 7 0 13 11 13 24 0 19 6 24 37 29 44 8 48
5 33 -23 -15 -27 -6 -52 15 -44 13 5 15 18 11 68 -2 33 -5 69 -5 79 -1 9 -7
17 -14 17 -8 0 -13 10 -13 21 1 32 -22 35 -34 5z"/>
</g>
</svg>
