<?xml version="1.0" standalone="no"?>
<!DOCTYPE svg PUBLIC "-//W3C//DTD SVG 20010904//EN"
 "http://www.w3.org/TR/2001/REC-SVG-20010904/DTD/svg10.dtd">
<svg version="1.0" xmlns="http://www.w3.org/2000/svg"
 width="37.000000pt" height="66.000000pt" viewBox="0 0 37.000000 66.000000"
 preserveAspectRatio="xMidYMid meet">
<metadata>
Created by potrace 1.14, written by Peter Selinger 2001-2017
</metadata>
<g transform="translate(0.000000,66.000000) scale(0.100000,-0.100000)"
fill="#000000" stroke="none">
<path fill="#000000" stroke="none" d="M202 639 c-24 -16 -32 -28 -32 -49 0
-19 -9 -36 -27 -50 -35 -27 -52 -57 -53 -92 0 -30 -33 -113 -49 -122 -6 -4
-11 -18 -11 -32 0 -19 6 -26 29 -30 27 -6 28 -8 20 -42 -5 -21 -9 -56 -9 -80
0 -50 -13 -79 -48 -106 l-25 -20 29 -8 c23 -6 33 -3 55 18 22 21 31 46 46 116
14 72 22 92 38 98 15 6 22 3 29 -11 11 -24 43 -34 60 -20 22 18 37 -11 43 -81
5 -52 10 -67 32 -85 36 -31 41 -29 25 16 -7 21 -13 65 -13 97 0 33 -8 86 -17
119 -9 33 -16 71 -15 85 5 83 1 131 -15 155 -11 17 -15 37 -11 59 4 28 1 38
-21 59 l-27 26 -33 -20z"/>
</g>
</svg>
