<?xml version="1.0" standalone="no"?>
<!DOCTYPE svg PUBLIC "-//W3C//DTD SVG 20010904//EN"
 "http://www.w3.org/TR/2001/REC-SVG-20010904/DTD/svg10.dtd">
<svg version="1.0" xmlns="http://www.w3.org/2000/svg"
 width="53.000000pt" height="49.000000pt" viewBox="0 0 53.000000 49.000000"
 preserveAspectRatio="xMidYMid meet">
<metadata>
Created by potrace 1.14, written by Peter Selinger 2001-2017
</metadata>
<g transform="translate(0.000000,49.000000) scale(0.100000,-0.100000)"
fill="#000000" stroke="none">
<path fill="#000000" stroke="none" d="M248 476 c-53 -7 -99 -14 -101 -16 -27
-34 -101 -147 -121 -188 l-26 -52 25 -10 c15 -6 31 -10 37 -10 6 0 39 -16 72
-36 44 -25 73 -52 105 -97 l44 -63 66 3 c36 2 92 11 124 20 l57 16 0 126 -1
126 -92 96 -92 96 -97 -11z"/>
</g>
</svg>
