<?xml version="1.0" standalone="no"?>
<!DOCTYPE svg PUBLIC "-//W3C//DTD SVG 20010904//EN"
 "http://www.w3.org/TR/2001/REC-SVG-20010904/DTD/svg10.dtd">
<svg version="1.0" xmlns="http://www.w3.org/2000/svg"
 width="29.000000pt" height="102.000000pt" viewBox="0 0 29.000000 102.000000"
 preserveAspectRatio="xMidYMid meet">
<metadata>
Created by potrace 1.14, written by Peter Selinger 2001-2017
</metadata>
<g transform="translate(0.000000,102.000000) scale(0.100000,-0.100000)"
fill="#000000" stroke="none">
<path fill="#000000" stroke="none" d="M144 967 c-14 -29 -50 -77 -79 -107
-71 -74 -79 -119 -34 -184 28 -39 33 -56 40 -138 4 -51 12 -114 17 -140 9 -44
7 -49 -19 -74 -16 -15 -29 -32 -29 -37 0 -4 14 -29 31 -54 30 -43 31 -49 25
-109 -4 -36 -9 -78 -13 -94 l-5 -30 70 0 c92 0 109 17 64 63 -40 42 -43 84 -7
93 30 7 30 11 8 36 -16 18 -16 23 8 96 l25 77 -12 245 c-13 261 -30 396 -51
404 -8 3 -23 -14 -39 -47z"/>
<path fill="#000000" stroke="none" d="M230 925 c0 -36 3 -65 8 -65 4 0 18 19
30 41 l24 41 -23 24 c-12 13 -26 24 -31 24 -4 0 -8 -29 -8 -65z"/>
</g>
</svg>
