<?xml version="1.0" standalone="no"?>
<!DOCTYPE svg PUBLIC "-//W3C//DTD SVG 20010904//EN"
 "http://www.w3.org/TR/2001/REC-SVG-20010904/DTD/svg10.dtd">
<svg version="1.0" xmlns="http://www.w3.org/2000/svg"
 width="169.000000pt" height="375.000000pt" viewBox="0 0 169.000000 375.000000"
 preserveAspectRatio="xMidYMid meet">
<metadata>
Created by potrace 1.14, written by Peter Selinger 2001-2017
</metadata>
<g transform="translate(0.000000,375.000000) scale(0.100000,-0.100000)"
fill="#000000" stroke="none">
<path fill="#000000" stroke="none" d="M1106 3719 c-3 -17 -6 -114 -6 -216 l0
-184 52 -171 c40 -134 57 -177 77 -194 14 -13 29 -24 32 -24 3 0 18 54 34 120
16 66 32 120 35 120 4 0 12 -28 18 -62 6 -35 39 -124 72 -198 56 -124 68 -143
150 -232 49 -54 91 -94 94 -90 2 4 10 35 17 69 12 58 10 75 -20 247 -19 107
-57 268 -90 385 l-59 201 -93 89 c-148 140 -152 142 -232 157 -40 8 -73 14
-73 14 -1 0 -4 -14 -8 -31z"/>
<path fill="#000000" stroke="none" d="M484 3679 c-16 -17 -50 -41 -75 -54
-25 -13 -50 -29 -56 -37 -5 -7 -35 -112 -66 -233 -31 -121 -70 -261 -87 -310
-19 -55 -56 -227 -96 -440 -94 -510 -104 -579 -103 -712 l1 -118 15 53 c14 48
18 52 45 52 21 0 31 6 35 19 3 12 19 23 45 29 39 10 39 10 36 -17 -2 -20 8
-40 35 -72 l38 -44 -6 60 c-4 33 -15 130 -26 216 l-19 156 131 444 c72 244
133 446 135 448 2 2 21 -11 44 -29 l40 -32 0 -236 0 -237 -59 -229 -59 -228
24 -322 c18 -229 29 -332 41 -359 15 -35 15 -61 -7 -385 l-24 -348 49 -133 49
-133 -33 -133 c-28 -116 -39 -142 -86 -216 -30 -46 -55 -87 -55 -91 0 -5 73
-8 163 -8 l162 0 98 65 c53 36 97 68 97 71 0 3 -22 37 -48 77 l-49 72 -27 200
c-23 178 -26 232 -27 490 0 257 -1 288 -14 271 -14 -19 -15 -18 -15 10 0 16
-11 202 -24 414 -13 212 -23 386 -22 388 2 1 166 13 365 27 l363 25 49 -41
c27 -22 49 -39 49 -36 0 3 -6 40 -14 83 -8 44 -18 106 -21 139 -12 126 -7 117
-121 212 -87 72 -120 109 -189 207 -93 132 -92 124 -50 225 l23 55 -25 65
c-14 36 -30 80 -35 96 -6 17 -93 114 -207 230 -108 110 -232 237 -275 283 -43
45 -79 82 -80 82 -1 0 -15 -14 -32 -31z"/>
<path fill="#000000" stroke="none" d="M1370 1230 c-83 -30 -138 -55 -146 -66
-8 -14 -7 -60 6 -189 14 -138 25 -196 59 -307 l42 -138 -31 -227 c-17 -126
-32 -233 -35 -240 -2 -6 12 -23 31 -38 l35 -27 96 24 c95 22 97 24 125 68 16
25 32 56 35 69 3 13 -2 85 -11 160 -11 93 -16 215 -16 386 -1 208 -4 276 -24
407 -12 87 -24 160 -27 161 -2 2 -65 -17 -139 -43z"/>
</g>
</svg>
