<?xml version="1.0" standalone="no"?>
<!DOCTYPE svg PUBLIC "-//W3C//DTD SVG 20010904//EN"
 "http://www.w3.org/TR/2001/REC-SVG-20010904/DTD/svg10.dtd">
<svg version="1.0" xmlns="http://www.w3.org/2000/svg"
 width="12.000000pt" height="50.000000pt" viewBox="0 0 12.000000 50.000000"
 preserveAspectRatio="xMidYMid meet">
<metadata>
Created by potrace 1.14, written by Peter Selinger 2001-2017
</metadata>
<g transform="translate(0.000000,50.000000) scale(0.100000,-0.100000)"
fill="#000000" stroke="none">
<path fill="#000000" stroke="none" d="M37 488 c-14 -7 -17 -17 -12 -38 3 -15
2 -31 -3 -34 -5 -3 -9 -22 -10 -42 -1 -20 -4 -39 -7 -42 -3 -3 4 -15 15 -27
11 -11 22 -34 26 -51 5 -25 2 -32 -20 -42 -36 -16 -36 -63 -1 -82 27 -15 30
-28 16 -77 -7 -24 -6 -35 5 -44 24 -19 30 -1 44 116 7 61 16 139 20 175 5 36
4 69 0 74 -5 5 -5 17 1 28 6 12 6 18 -1 18 -5 0 -16 15 -24 34 -17 41 -26 47
-49 34z"/>
</g>
</svg>
