<?xml version="1.0" standalone="no"?>
<!DOCTYPE svg PUBLIC "-//W3C//DTD SVG 20010904//EN"
 "http://www.w3.org/TR/2001/REC-SVG-20010904/DTD/svg10.dtd">
<svg version="1.0" xmlns="http://www.w3.org/2000/svg"
 width="37.000000pt" height="79.000000pt" viewBox="0 0 37.000000 79.000000"
 preserveAspectRatio="xMidYMid meet">
<metadata>
Created by potrace 1.14, written by Peter Selinger 2001-2017
</metadata>
<g transform="translate(0.000000,79.000000) scale(0.100000,-0.100000)"
fill="#000000" stroke="none">
<path fill="#000000" stroke="none" d="M122 769 c-18 -12 -34 -32 -37 -48 -3
-14 -10 -39 -16 -56 -6 -16 -13 -38 -16 -47 -8 -26 43 -106 70 -110 29 -4 27
-21 -18 -163 -18 -60 -39 -128 -44 -151 -8 -28 -19 -44 -37 -52 -40 -19 -20
-29 68 -37 77 -6 119 -15 176 -36 16 -6 22 -17 22 -39 0 -31 17 -39 38 -18 16
16 15 87 -1 115 -7 13 -37 38 -66 55 -29 18 -60 45 -69 59 -14 24 -13 28 4 52
13 17 37 30 73 39 l54 14 24 64 c29 83 23 153 -18 226 -16 28 -29 59 -29 67 0
23 -88 87 -119 87 -14 0 -41 -10 -59 -21z"/>
</g>
</svg>
