<?xml version="1.0" standalone="no"?>
<!DOCTYPE svg PUBLIC "-//W3C//DTD SVG 20010904//EN"
 "http://www.w3.org/TR/2001/REC-SVG-20010904/DTD/svg10.dtd">
<svg version="1.0" xmlns="http://www.w3.org/2000/svg"
 width="34.000000pt" height="56.000000pt" viewBox="0 0 34.000000 56.000000"
 preserveAspectRatio="xMidYMid meet">
<metadata>
Created by potrace 1.14, written by Peter Selinger 2001-2017
</metadata>
<g transform="translate(0.000000,56.000000) scale(0.100000,-0.100000)"
fill="#000000" stroke="none">
<path fill="#000000" stroke="none" d="M11 542 c-8 -14 -1 -29 32 -70 l42 -52
-4 -139 c-3 -134 -2 -139 18 -146 17 -5 21 -14 21 -49 0 -52 18 -73 49 -56 18
9 21 20 21 83 l1 72 24 -64 c14 -35 25 -76 25 -92 0 -27 3 -29 38 -29 62 0 79
38 46 101 -22 43 -54 264 -54 370 l0 89 -125 0 c-110 0 -125 -2 -134 -18z"/>
</g>
</svg>
