<?xml version="1.0" standalone="no"?>
<!DOCTYPE svg PUBLIC "-//W3C//DTD SVG 20010904//EN"
 "http://www.w3.org/TR/2001/REC-SVG-20010904/DTD/svg10.dtd">
<svg version="1.0" xmlns="http://www.w3.org/2000/svg"
 width="100.000000pt" height="97.000000pt" viewBox="0 0 100.000000 97.000000"
 preserveAspectRatio="xMidYMid meet">
<metadata>
Created by potrace 1.14, written by Peter Selinger 2001-2017
</metadata>
<g transform="translate(0.000000,97.000000) scale(0.100000,-0.100000)"
fill="#000000" stroke="none">
<path fill="#000000" stroke="none" d="M520 955 c-25 -8 -63 -19 -86 -24 -23
-6 -81 -41 -135 -81 l-94 -71 -5 -209 -5 -209 25 -11 24 -12 -41 -34 c-24 -20
-62 -70 -89 -117 -25 -45 -62 -101 -80 -124 -19 -23 -34 -43 -34 -46 0 -2 170
-7 378 -10 l377 -6 109 33 c160 49 157 22 42 438 l-92 333 -119 82 c-66 46
-122 83 -125 82 -3 -1 -25 -7 -50 -14z"/>
</g>
</svg>
