<?xml version="1.0" standalone="no"?>
<!DOCTYPE svg PUBLIC "-//W3C//DTD SVG 20010904//EN"
 "http://www.w3.org/TR/2001/REC-SVG-20010904/DTD/svg10.dtd">
<svg version="1.0" xmlns="http://www.w3.org/2000/svg"
 width="425.000000pt" height="540.000000pt" viewBox="0 0 425.000000 540.000000"
 preserveAspectRatio="xMidYMid meet">
<metadata>
Created by potrace 1.14, written by Peter Selinger 2001-2017
</metadata>
<g transform="translate(0.000000,540.000000) scale(0.100000,-0.100000)"
fill="#000000" stroke="none">
<path fill="#000000" stroke="none" d="M2295 5110 l-360 -289 -6 -78 c-8 -91
-13 -664 -8 -840 3 -94 1 -123 -8 -123 -9 0 -13 -18 -13 -57 l0 -58 -571 -318
-570 -318 -308 -221 -307 -222 -69 -270 c-38 -149 -70 -276 -72 -281 -2 -6
101 -39 239 -77 198 -54 325 -80 688 -143 245 -43 446 -78 447 -79 1 -1 -85
-375 -191 -831 l-193 -830 36 -7 c20 -4 252 -21 516 -39 l480 -33 340 23 c187
13 341 24 343 26 2 2 -1 12 -6 22 -14 27 -486 1972 -480 1979 5 5 257 -32 264
-39 2 -2 88 -309 190 -683 184 -673 186 -679 222 -715 33 -33 64 -46 305 -123
340 -110 319 -115 328 69 4 72 7 137 8 146 0 9 30 36 66 59 l65 42 0 199 0
199 23 -1 c12 0 44 -6 71 -12 l49 -12 37 -117 36 -118 149 96 c83 53 150 97
151 97 1 1 15 166 32 367 l32 365 -68 690 -68 690 -163 128 c-90 70 -167 127
-171 127 -10 0 -18 -22 -96 -270 l-64 -204 0 -133 c0 -107 7 -172 34 -330 19
-109 36 -209 38 -222 3 -21 -4 -26 -66 -47 l-68 -23 -118 70 -117 70 -7 76
c-12 143 -6 207 44 499 45 263 56 309 108 456 l57 163 62 0 62 0 -27 22 c-15
12 -46 36 -69 53 -42 30 -43 31 -43 9 0 -21 -1 -21 -19 -5 -11 10 -21 30 -23
45 -2 18 -9 26 -23 26 -11 0 -21 8 -23 18 -2 9 -7 17 -12 17 -5 0 -22 12 -37
26 -15 14 -39 34 -53 44 l-25 18 92 284 92 283 -59 330 c-33 182 -62 339 -65
351 -4 17 -63 43 -343 147 -187 70 -343 127 -349 127 -5 0 -171 -130 -368
-290z"/>
<path fill="#ffffff" stroke="none" d="M1790 3382 c0 -4 -28 -50 -62 -102 -33
-52 -77 -129 -97 -170 -35 -73 -37 -75 -66 -70 -16 3 -29 9 -28 13 1 4 29 55
63 112 73 125 190 259 190 217z"/>
<path fill="#ffffff" stroke="none" d="M2331 2956 c70 -75 102 -91 148 -74 13
4 21 3 21 -3 0 -6 20 -19 44 -30 30 -13 56 -36 81 -70 l36 -51 -27 -78 c-15
-43 -30 -83 -33 -87 -6 -10 -237 -176 -282 -205 -25 -15 -28 -15 -58 3 -18 11
-38 16 -45 12 -95 -59 -218 -160 -249 -206 -39 -56 -53 -65 -421 -265 -34 -18
-90 -49 -125 -69 l-64 -36 -30 37 c-16 20 -34 36 -41 36 -18 0 -126 125 -126
146 0 10 -9 37 -21 60 l-20 43 55 117 c31 64 56 127 56 140 0 14 8 25 20 29
11 3 43 25 71 47 l51 40 112 -110 111 -110 74 -15 73 -15 19 43 19 43 -66 64
c-37 34 -93 98 -125 140 l-59 76 45 26 45 25 41 -72 c23 -40 52 -91 66 -115
26 -45 124 -119 142 -107 17 10 13 114 -8 185 -10 36 -30 95 -44 131 l-26 66
24 11 c22 10 27 8 52 -25 39 -50 129 -115 156 -111 20 3 22 8 21 74 0 59 -5
79 -28 118 -21 37 -25 50 -16 61 6 8 9 19 5 25 -4 6 4 10 17 10 13 0 28 4 34
8 5 5 34 19 64 31 30 12 73 35 95 51 22 16 42 29 43 30 2 0 35 -33 73 -74z"/>
</g>
</svg>
