<?xml version="1.0" standalone="no"?>
<!DOCTYPE svg PUBLIC "-//W3C//DTD SVG 20010904//EN"
 "http://www.w3.org/TR/2001/REC-SVG-20010904/DTD/svg10.dtd">
<svg version="1.0" xmlns="http://www.w3.org/2000/svg"
 width="639.000000pt" height="294.000000pt" viewBox="0 0 639.000000 294.000000"
 preserveAspectRatio="xMidYMid meet">
<metadata>
Created by potrace 1.14, written by Peter Selinger 2001-2017
</metadata>
<g transform="translate(0.000000,294.000000) scale(0.100000,-0.100000)"
fill="#000000" stroke="none">
<path fill="#000000" stroke="none" d="M0 2786 c0 -152 0 -155 23 -159 l22 -4
-22 -2 c-13 0 -23 -8 -23 -16 0 -8 10 -24 22 -35 l23 -21 3 30 c4 37 19 46
104 62 65 12 67 13 74 48 4 20 8 80 9 134 0 75 4 100 15 107 10 6 -31 10 -117
10 l-133 0 0 -154z"/>
<path fill="#000000" stroke="none" d="M1129 2933 l-126 -4 -12 -87 -12 -87
40 -148 c30 -109 41 -168 41 -219 l0 -71 41 6 c22 3 44 8 47 12 4 4 6 55 5
113 l-2 107 37 41 c54 60 278 177 352 184 50 5 55 7 64 35 5 17 17 51 27 78
l18 47 -197 -2 c-108 -1 -254 -4 -323 -5z"/>
<path fill="#000000" stroke="none" d="M2665 2915 c32 -31 33 -80 2 -178 -24
-76 -23 -106 7 -116 9 -4 30 -36 47 -72 l31 -66 -24 -36 c-12 -20 -39 -43 -59
-52 -30 -14 -48 -39 -120 -163 -46 -80 -96 -157 -112 -171 -25 -23 -28 -30
-25 -84 4 -83 20 -92 93 -52 l55 29 0 51 c0 48 54 208 81 242 6 6 36 26 67 45
54 31 60 33 113 24 49 -8 63 -6 102 13 25 12 47 31 50 41 6 21 -40 176 -66
227 -25 47 -22 52 30 55 51 3 47 -2 72 103 7 27 15 52 19 55 23 17 62 83 62
104 l0 26 -225 0 -224 0 24 -25z"/>
<path fill="#000000" stroke="none" d="M3192 2932 c33 -14 86 -72 93 -101 16
-73 125 0 125 84 l0 25 -117 -1 c-65 0 -111 -3 -101 -7z"/>
<path fill="#000000" stroke="none" d="M3507 2933 c-4 -3 -7 -24 -7 -46 0 -35
6 -46 47 -84 60 -54 83 -55 129 -3 20 22 50 48 65 57 29 17 35 36 23 67 -5 13
-26 16 -128 16 -68 0 -126 -3 -129 -7z"/>
<path fill="#000000" stroke="none" d="M4130 2914 c-13 -33 -13 -84 0 -84 22
0 42 -63 36 -112 -7 -53 -33 -97 -101 -172 -41 -45 -45 -54 -45 -100 0 -28 9
-69 19 -91 17 -39 92 -117 122 -127 12 -5 12 -9 1 -27 -11 -19 -9 -23 21 -41
40 -24 123 -135 119 -159 -7 -34 -22 -33 -71 3 -46 34 -55 37 -108 34 l-58 -3
-14 -55 c-21 -86 -1 -243 45 -336 59 -123 175 -221 307 -259 46 -13 85 -15
205 -11 489 18 632 25 672 35 25 6 140 11 258 11 179 0 227 3 305 21 85 19
110 20 320 14 l227 -7 0 496 c0 333 -3 496 -10 496 -6 0 -37 -13 -69 -30 -58
-29 -59 -30 -87 -109 l-28 -79 -39 20 c-37 18 -46 19 -119 8 -44 -6 -82 -9
-85 -6 -3 3 4 48 16 101 12 52 21 126 21 164 l0 68 58 16 57 16 45 93 45 92
72 26 c67 23 73 27 79 57 13 68 108 63 -1106 63 l-1100 0 -10 -26z"/>
<path fill="#000000" stroke="none" d="M2025 2858 c3 -40 11 -96 17 -124 9
-42 7 -62 -10 -125 -11 -43 -17 -90 -15 -112 6 -41 -8 -105 -40 -180 -18 -43
-18 -53 -7 -107 11 -51 16 -60 35 -60 53 0 91 101 99 265 6 118 7 120 36 143
50 39 83 109 116 244 l31 128 -134 0 -135 0 7 -72z"/>
<path fill="#000000" stroke="none" d="M3618 2738 c9 -9 15 -9 24 0 9 9 7 12
-12 12 -19 0 -21 -3 -12 -12z"/>
<path fill="#000000" stroke="none" d="M3616 2644 c-11 -26 -21 -81 -23 -123
l-5 -76 31 45 c25 36 31 54 30 95 -1 28 -4 62 -8 78 -6 26 -7 26 -25 -19z"/>
<path fill="#000000" stroke="none" d="M391 2609 c-33 -43 -21 -45 19 -4 20
21 28 35 19 34 -7 0 -25 -14 -38 -30z"/>
<path fill="#000000" stroke="none" d="M783 2095 c-20 -8 -35 -23 -39 -39 -3
-14 -17 -32 -30 -41 -14 -9 -34 -30 -44 -47 -17 -29 -20 -30 -26 -12 -17 44
-57 92 -95 113 -33 19 -52 22 -100 19 -69 -5 -103 -26 -136 -84 -28 -48 -29
-96 -4 -138 10 -17 26 -53 36 -79 21 -56 95 -143 140 -164 16 -8 46 -23 65
-34 24 -13 55 -19 98 -19 51 0 70 -5 104 -27 57 -39 159 -45 215 -14 51 29 85
80 85 128 2 125 -15 309 -28 319 -8 6 -14 22 -14 35 -1 76 -134 125 -227 84z"/>
<path fill="#000000" stroke="none" d="M1934 2069 c-13 -15 -26 -19 -45 -15
-18 3 -32 -1 -41 -12 -26 -30 -58 -173 -68 -305 l-11 -129 27 -35 c34 -44 78
-63 150 -63 56 0 57 1 110 58 60 63 71 98 55 160 -6 22 -9 58 -5 79 5 32 -9
138 -31 239 -10 44 -107 60 -141 23z"/>
<path fill="#000000" stroke="none" d="M209 1370 c-71 -38 -94 -79 -118 -210
-23 -129 -34 -177 -49 -218 -8 -23 -12 -45 -9 -48 3 -4 0 -19 -8 -35 -11 -20
-15 -64 -15 -151 -1 -68 -1 -136 -2 -153 -1 -64 5 -115 13 -115 11 0 1 -50
-12 -65 -5 -5 -9 -66 -9 -136 0 -127 0 -127 28 -151 30 -25 104 -59 167 -77
27 -8 131 -11 320 -9 l280 3 3 22 c3 21 9 23 57 23 80 0 149 18 193 50 21 15
53 35 70 44 18 9 55 37 83 62 28 24 79 58 114 75 108 51 187 174 184 286 -1
32 4 78 11 103 23 83 -20 175 -100 218 -39 21 -55 23 -125 20 -64 -3 -91 -10
-132 -32 -51 -28 -52 -28 -94 -12 -103 41 -487 63 -562 31 -52 -22 -56 -20
-42 28 25 84 50 223 49 272 -1 66 -33 128 -86 162 -55 37 -155 43 -209 13z"/>
<path fill="#000000" stroke="none" d="M4980 1154 c-8 -4 -28 -12 -45 -19 -16
-8 -84 -16 -150 -18 -143 -6 -178 -15 -235 -64 -49 -43 -94 -127 -79 -152 16
-28 60 -221 57 -254 -2 -42 12 -67 64 -111 73 -63 185 -75 275 -31 l50 25 114
-40 c62 -23 118 -45 124 -50 15 -13 163 -60 189 -60 11 0 55 -9 96 -20 46 -12
108 -20 161 -20 72 0 94 4 135 25 27 14 59 25 72 25 13 0 44 9 70 20 38 15 86
21 242 28 156 7 202 13 233 27 l37 19 0 286 0 286 -37 19 c-42 20 -212 33
-250 18 -12 -4 -100 -5 -195 0 -95 4 -274 11 -398 16 -178 6 -234 12 -270 26
-45 18 -228 31 -260 19z"/>
</g>
</svg>
