<?xml version="1.0" standalone="no"?>
<!DOCTYPE svg PUBLIC "-//W3C//DTD SVG 20010904//EN"
 "http://www.w3.org/TR/2001/REC-SVG-20010904/DTD/svg10.dtd">
<svg version="1.0" xmlns="http://www.w3.org/2000/svg"
 width="590.000000pt" height="628.000000pt" viewBox="0 0 590.000000 628.000000"
 preserveAspectRatio="xMidYMid meet">
<metadata>
Created by potrace 1.14, written by Peter Selinger 2001-2017
</metadata>
<g transform="translate(0.000000,628.000000) scale(0.100000,-0.100000)"
fill="#000000" stroke="none">
<path fill="#000000" stroke="none" d="M0 6009 c1 -534 38 -5390 42 -5394 1
-2 127 83 279 188 215 150 337 244 558 432 l282 240 672 137 c370 75 675 137
678 138 3 0 18 -41 33 -91 23 -76 25 -94 14 -104 -7 -7 -416 -294 -908 -637
-816 -569 -916 -636 -1135 -758 -132 -73 -249 -140 -260 -148 -17 -12 204 -13
1680 -8 934 4 1700 8 1701 9 1 1 -6 43 -16 92 -11 50 -19 104 -20 121 0 18 68
189 170 423 l169 393 26 747 c14 410 28 787 31 836 l6 91 206 106 207 107 85
310 85 310 403 157 c221 86 402 160 402 163 0 3 -51 276 -114 605 l-114 599
367 461 367 461 -7 118 c-4 66 -9 120 -11 121 -2 2 -1074 11 -2383 20 -1309 9
-2631 19 -2937 23 l-558 6 0 -274z"/>
</g>
</svg>
