<?xml version="1.0" standalone="no"?>
<!DOCTYPE svg PUBLIC "-//W3C//DTD SVG 20010904//EN"
 "http://www.w3.org/TR/2001/REC-SVG-20010904/DTD/svg10.dtd">
<svg version="1.0" xmlns="http://www.w3.org/2000/svg"
 width="41.000000pt" height="44.000000pt" viewBox="0 0 41.000000 44.000000"
 preserveAspectRatio="xMidYMid meet">
<metadata>
Created by potrace 1.14, written by Peter Selinger 2001-2017
</metadata>
<g transform="translate(0.000000,44.000000) scale(0.100000,-0.100000)"
fill="#000000" stroke="none">
<path fill="#000000" stroke="none" d="M374 424 c3 -9 6 -31 6 -50 0 -26 3
-32 15 -28 18 7 20 65 3 82 -17 17 -31 15 -24 -4z"/>
<path fill="#000000" stroke="none" d="M70 345 c0 -3 10 -10 23 -15 l22 -9
-23 0 -24 -1 8 -125 7 -125 -42 0 c-48 0 -53 -15 -18 -48 21 -20 34 -22 128
-22 l105 0 22 73 c28 92 43 207 28 212 -30 10 -225 65 -230 65 -3 0 -6 -2 -6
-5z"/>
</g>
</svg>
