<?xml version="1.0" standalone="no"?>
<!DOCTYPE svg PUBLIC "-//W3C//DTD SVG 20010904//EN"
 "http://www.w3.org/TR/2001/REC-SVG-20010904/DTD/svg10.dtd">
<svg version="1.0" xmlns="http://www.w3.org/2000/svg"
 width="47.000000pt" height="112.000000pt" viewBox="0 0 47.000000 112.000000"
 preserveAspectRatio="xMidYMid meet">
<metadata>
Created by potrace 1.14, written by Peter Selinger 2001-2017
</metadata>
<g transform="translate(0.000000,112.000000) scale(0.100000,-0.100000)"
fill="#000000" stroke="none">
<path fill="#000000" stroke="none" d="M203 1098 c-11 -13 -30 -43 -41 -68
-11 -25 -40 -65 -66 -90 -40 -38 -46 -50 -46 -85 0 -22 -7 -62 -16 -90 -24
-72 -35 -235 -18 -259 13 -18 13 -18 23 5 6 13 20 82 31 153 11 72 22 132 25
134 2 2 9 1 15 -3 8 -5 10 -23 6 -54 -4 -25 -11 -79 -16 -118 l-9 -73 41 -71
41 -71 -17 -81 c-10 -44 -35 -117 -55 -162 l-38 -81 31 -45 c29 -41 31 -43 34
-19 2 14 15 58 29 98 l26 73 31 -53 31 -53 5 65 c3 36 13 79 21 95 9 17 26 60
38 97 22 66 22 69 7 173 -9 58 -16 154 -16 213 l1 107 32 -70 c18 -38 39 -103
46 -142 7 -40 16 -73 20 -73 5 0 22 5 40 11 46 16 42 52 -19 149 -45 72 -50
85 -50 138 0 56 -1 59 -50 107 -44 43 -50 54 -50 91 0 27 -6 47 -18 57 -24 22
-24 21 -49 -5z"/>
</g>
</svg>
