<?xml version="1.0" standalone="no"?>
<!DOCTYPE svg PUBLIC "-//W3C//DTD SVG 20010904//EN"
 "http://www.w3.org/TR/2001/REC-SVG-20010904/DTD/svg10.dtd">
<svg version="1.0" xmlns="http://www.w3.org/2000/svg"
 width="20.000000pt" height="86.000000pt" viewBox="0 0 20.000000 86.000000"
 preserveAspectRatio="xMidYMid meet">
<metadata>
Created by potrace 1.14, written by Peter Selinger 2001-2017
</metadata>
<g transform="translate(0.000000,86.000000) scale(0.100000,-0.100000)"
fill="#000000" stroke="none">
<path fill="#000000" stroke="none" d="M67 842 c-12 -13 -17 -37 -17 -76 0
-31 -5 -67 -11 -78 -6 -12 -15 -51 -20 -89 -4 -37 -11 -79 -15 -93 -5 -23 -3
-26 19 -26 16 0 34 10 47 28 l21 27 -5 -39 c-5 -35 -4 -38 17 -32 12 3 39 6
60 6 l37 0 0 130 c0 104 -3 130 -14 130 -8 0 -16 16 -20 41 -13 79 -61 114
-99 71z"/>
<path fill="#000000" stroke="none" d="M80 398 c0 -51 21 -358 25 -376 3 -12
12 -22 20 -22 8 0 15 1 15 3 0 26 33 269 43 317 7 36 12 71 9 78 -5 17 -112
17 -112 0z"/>
</g>
</svg>
