<?xml version="1.0" standalone="no"?>
<!DOCTYPE svg PUBLIC "-//W3C//DTD SVG 20010904//EN"
 "http://www.w3.org/TR/2001/REC-SVG-20010904/DTD/svg10.dtd">
<svg version="1.0" xmlns="http://www.w3.org/2000/svg"
 width="77.000000pt" height="164.000000pt" viewBox="0 0 77.000000 164.000000"
 preserveAspectRatio="xMidYMid meet">
<metadata>
Created by potrace 1.14, written by Peter Selinger 2001-2017
</metadata>
<g transform="translate(0.000000,164.000000) scale(0.100000,-0.100000)"
fill="#000000" stroke="none">
<path fill="#000000" stroke="none" d="M290 1604 c-12 -34 -10 -39 26 -90 22
-30 65 -96 96 -147 l57 -92 -66 -67 -66 -67 -28 20 c-24 17 -49 69 -49 102 0
4 -19 36 -42 72 -57 86 -77 87 -118 5 -33 -65 -36 -84 -18 -141 10 -36 8 -43
-22 -101 -18 -35 -39 -70 -46 -79 -8 -8 -14 -30 -14 -47 0 -26 6 -34 33 -45
52 -22 64 -41 72 -109 4 -35 25 -114 47 -176 l39 -112 -29 -38 c-43 -56 -101
-188 -108 -246 -5 -43 -1 -65 31 -148 42 -109 33 -103 144 -92 56 6 61 9 61
31 0 13 -11 46 -25 73 l-25 49 23 48 c12 27 39 71 58 99 20 27 39 57 42 66 9
24 64 24 71 1 2 -10 7 -43 11 -73 5 -52 13 -65 102 -175 103 -130 99 -127 189
-110 l34 6 -40 79 c-22 43 -53 94 -68 112 l-29 33 -8 250 -7 249 -34 69 c-53
104 -61 194 -35 371 l20 138 -79 107 c-44 58 -85 123 -92 144 -13 42 -40 67
-74 67 -17 0 -25 -9 -34 -36z"/>
</g>
</svg>
