<?xml version="1.0" standalone="no"?>
<!DOCTYPE svg PUBLIC "-//W3C//DTD SVG 20010904//EN"
 "http://www.w3.org/TR/2001/REC-SVG-20010904/DTD/svg10.dtd">
<svg version="1.0" xmlns="http://www.w3.org/2000/svg"
 width="41.000000pt" height="41.000000pt" viewBox="0 0 41.000000 41.000000"
 preserveAspectRatio="xMidYMid meet">
<metadata>
Created by potrace 1.14, written by Peter Selinger 2001-2017
</metadata>
<g transform="translate(0.000000,41.000000) scale(0.100000,-0.100000)"
fill="#000000" stroke="none">
<path fill="#000000" stroke="none" d="M132 400 c-45 -18 -91 -62 -113 -107
-17 -36 -21 -56 -16 -103 6 -65 38 -123 62 -113 13 5 20 -7 16 -29 -1 -11 48
-34 87 -41 30 -6 33 -4 48 33 13 32 21 40 42 40 24 0 24 1 9 18 -22 24 -21 35
2 56 22 20 44 13 61 -18 9 -19 9 -27 -1 -44 -16 -25 -5 -40 19 -26 53 34 75
162 39 230 -47 90 -168 139 -255 104z"/>
</g>
</svg>
