<?xml version="1.0" standalone="no"?>
<!DOCTYPE svg PUBLIC "-//W3C//DTD SVG 20010904//EN"
 "http://www.w3.org/TR/2001/REC-SVG-20010904/DTD/svg10.dtd">
<svg version="1.0" xmlns="http://www.w3.org/2000/svg"
 width="295.000000pt" height="205.000000pt" viewBox="0 0 295.000000 205.000000"
 preserveAspectRatio="xMidYMid meet">
<metadata>
Created by potrace 1.14, written by Peter Selinger 2001-2017
</metadata>
<g transform="translate(0.000000,205.000000) scale(0.100000,-0.100000)"
fill="#000000" stroke="none">
<path fill="#000000" stroke="none" d="M1312 2006 c-40 -23 -77 -47 -82 -52
-5 -5 19 -104 61 -248 l70 -239 -79 -81 c-43 -45 -106 -112 -138 -151 -119
-141 -313 -317 -428 -390 l-109 -69 169 -38 c93 -20 192 -37 220 -38 48 0 54
3 88 40 20 22 36 45 36 51 0 7 9 42 20 78 l20 67 124 87 c68 48 128 87 133 87
4 0 19 -30 32 -67 14 -38 48 -100 78 -141 l54 -73 -35 -57 c-19 -31 -47 -95
-63 -140 l-28 -84 -70 -35 c-38 -19 -117 -63 -175 -98 -99 -59 -114 -64 -250
-94 -135 -29 -160 -31 -365 -32 -121 -1 -300 4 -398 11 -97 7 -179 11 -181 9
-2 -2 -5 -38 -8 -80 l-3 -76 115 -16 c103 -15 142 -15 375 -2 143 8 332 14
420 15 l160 0 42 -64 41 -63 106 -11 106 -10 203 54 c111 30 225 63 254 74 59
22 219 118 363 218 l94 66 181 -92 c172 -88 185 -93 285 -107 58 -9 115 -18
127 -20 19 -4 24 4 46 68 l24 73 -41 29 c-24 18 -94 46 -172 70 l-131 41 -101
88 c-56 49 -104 98 -107 110 -2 11 -12 102 -21 201 l-17 180 -140 235 c-125
210 -156 253 -283 400 -228 264 -224 261 -390 315 -78 25 -146 45 -150 45 -5
-1 -42 -20 -82 -44z"/>
</g>
</svg>
