<?xml version="1.0" standalone="no"?>
<!DOCTYPE svg PUBLIC "-//W3C//DTD SVG 20010904//EN"
 "http://www.w3.org/TR/2001/REC-SVG-20010904/DTD/svg10.dtd">
<svg version="1.0" xmlns="http://www.w3.org/2000/svg"
 width="167.000000pt" height="112.000000pt" viewBox="0 0 167.000000 112.000000"
 preserveAspectRatio="xMidYMid meet">
<metadata>
Created by potrace 1.14, written by Peter Selinger 2001-2017
</metadata>
<g transform="translate(0.000000,112.000000) scale(0.100000,-0.100000)"
fill="#000000" stroke="none">
<path fill="#000000" stroke="none" d="M295 1012 c-226 -166 -211 -148 -233
-275 -11 -59 -16 -110 -11 -113 5 -3 -5 -24 -22 -47 -27 -37 -30 -47 -24 -87
9 -64 9 -95 0 -279 l-8 -164 34 6 c19 3 203 7 409 8 349 2 382 0 474 -20 54
-11 124 -21 155 -21 31 0 73 -4 94 -9 37 -9 43 -7 97 35 46 35 66 44 98 44 59
0 180 27 233 51 41 19 69 51 69 79 0 5 -48 51 -108 102 l-107 93 93 -3 c105
-4 136 9 130 57 -3 24 -16 30 -212 92 -202 64 -210 65 -259 54 -36 -8 -53 -17
-57 -31 -6 -24 -53 -104 -61 -104 -3 0 -20 20 -37 44 -30 41 -32 49 -26 100 4
30 4 66 0 80 l-6 26 -157 0 c-185 0 -182 1 -291 -119 l-73 -81 -60 0 -59 0 21
43 c23 45 49 80 117 157 l44 49 -15 161 c-8 88 -17 163 -19 166 -3 3 -21 7
-39 10 -31 5 -48 -4 -184 -104z"/>
</g>
</svg>
