<?xml version="1.0" standalone="no"?>
<!DOCTYPE svg PUBLIC "-//W3C//DTD SVG 20010904//EN"
 "http://www.w3.org/TR/2001/REC-SVG-20010904/DTD/svg10.dtd">
<svg version="1.0" xmlns="http://www.w3.org/2000/svg"
 width="74.000000pt" height="227.000000pt" viewBox="0 0 74.000000 227.000000"
 preserveAspectRatio="xMidYMid meet">
<metadata>
Created by potrace 1.14, written by Peter Selinger 2001-2017
</metadata>
<g transform="translate(0.000000,227.000000) scale(0.100000,-0.100000)"
fill="#000000" stroke="none">
<path fill="#000000" stroke="none" d="M4 2255 c21 -70 110 -399 187 -690 l89
-340 -12 -347 -11 -347 85 -143 86 -143 7 -123 c6 -107 9 -122 24 -118 9 2 69
10 134 17 64 7 117 15 117 18 0 3 -20 89 -45 190 -27 111 -61 221 -86 277
l-41 93 81 181 81 182 21 195 21 195 -24 26 c-14 15 -62 70 -108 122 -46 52
-149 165 -230 250 -130 138 -159 175 -260 335 -122 195 -125 200 -116 170z"/>
</g>
</svg>
