<?xml version="1.0" standalone="no"?>
<!DOCTYPE svg PUBLIC "-//W3C//DTD SVG 20010904//EN"
 "http://www.w3.org/TR/2001/REC-SVG-20010904/DTD/svg10.dtd">
<svg version="1.0" xmlns="http://www.w3.org/2000/svg"
 width="173.000000pt" height="224.000000pt" viewBox="0 0 173.000000 224.000000"
 preserveAspectRatio="xMidYMid meet">
<metadata>
Created by potrace 1.14, written by Peter Selinger 2001-2017
</metadata>
<g transform="translate(0.000000,224.000000) scale(0.100000,-0.100000)"
fill="#000000" stroke="none">
<path fill="#000000" stroke="none" d="M232 2195 c-44 -61 -47 -72 -22 -80 20
-6 20 -8 6 -24 -9 -10 -16 -22 -16 -28 0 -6 -11 -18 -25 -27 -32 -21 -88 -109
-137 -214 -30 -64 -38 -94 -38 -138 l0 -56 46 7 c26 3 52 8 58 11 26 9 56 -31
63 -84 5 -49 4 -55 -22 -82 -16 -17 -35 -30 -42 -30 -17 0 -16 -18 6 -119 18
-81 30 -101 61 -101 9 0 26 -7 39 -16 23 -16 23 -16 16 7 -4 13 -16 47 -26 74
-24 64 -24 67 8 63 24 -3 33 -16 78 -117 49 -110 53 -115 103 -144 41 -22 61
-44 94 -98 24 -38 50 -69 58 -69 8 0 62 -29 118 -64 94 -57 113 -74 205 -183
103 -122 179 -185 314 -258 50 -27 54 -31 89 -121 l37 -92 -23 -37 c-12 -20
-33 -41 -46 -45 -19 -7 -24 -17 -24 -42 0 -18 -3 -44 -7 -57 l-6 -24 147 5
c81 3 180 2 219 -3 57 -7 81 -6 120 7 45 15 48 18 42 43 -9 38 -23 47 -89 60
-32 6 -72 19 -87 29 l-28 17 60 48 c48 39 59 53 59 77 0 25 -7 32 -42 48 -24
11 -58 36 -77 56 l-35 36 24 147 c13 82 27 191 31 243 6 85 5 103 -18 177 -25
82 -25 82 -120 165 -52 46 -104 86 -115 91 -19 7 -18 10 17 52 20 25 41 61 46
80 8 29 7 37 -11 55 -14 14 -20 33 -20 66 0 45 0 46 -27 39 -16 -3 -52 -24
-81 -46 -65 -50 -77 -53 -234 -74 -124 -17 -128 -17 -160 2 -30 17 -33 24 -36
75 l-3 56 58 52 c32 28 94 70 138 92 44 22 106 56 137 75 l57 34 -52 71 c-28
38 -62 77 -75 86 -12 8 -29 27 -37 42 -14 27 -39 122 -50 193 l-6 37 -342 0
-342 -1 -33 -44z"/>
<path fill="#000000" stroke="none" d="M250 1143 c0 -13 5 -23 10 -23 13 0 13
11 0 30 -8 12 -10 11 -10 -7z"/>
</g>
</svg>
