<?xml version="1.0" standalone="no"?>
<!DOCTYPE svg PUBLIC "-//W3C//DTD SVG 20010904//EN"
 "http://www.w3.org/TR/2001/REC-SVG-20010904/DTD/svg10.dtd">
<svg version="1.0" xmlns="http://www.w3.org/2000/svg"
 width="23.000000pt" height="17.000000pt" viewBox="0 0 23.000000 17.000000"
 preserveAspectRatio="xMidYMid meet">
<metadata>
Created by potrace 1.14, written by Peter Selinger 2001-2017
</metadata>
<g transform="translate(0.000000,17.000000) scale(0.100000,-0.100000)"
fill="#000000" stroke="none">
<path fill="#000000" stroke="none" d="M69 163 c-1 -4 -1 -16 0 -25 1 -9 -7
-19 -19 -23 -11 -3 -20 -15 -20 -26 0 -11 -7 -31 -16 -44 -9 -13 -13 -29 -9
-35 8 -12 145 -14 145 -1 0 5 7 11 15 13 9 2 27 28 41 58 l25 55 -34 -33 c-31
-30 -35 -32 -48 -16 -8 9 -14 31 -14 48 0 28 -4 31 -32 34 -18 2 -34 0 -34 -5z"/>
</g>
</svg>
