<?xml version="1.0" standalone="no"?>
<!DOCTYPE svg PUBLIC "-//W3C//DTD SVG 20010904//EN"
 "http://www.w3.org/TR/2001/REC-SVG-20010904/DTD/svg10.dtd">
<svg version="1.0" xmlns="http://www.w3.org/2000/svg"
 width="218.000000pt" height="390.000000pt" viewBox="0 0 218.000000 390.000000"
 preserveAspectRatio="xMidYMid meet">
<metadata>
Created by potrace 1.14, written by Peter Selinger 2001-2017
</metadata>
<g transform="translate(0.000000,390.000000) scale(0.100000,-0.100000)"
fill="#000000" stroke="none">
<path fill="#000000" stroke="none" d="M844 3886 c-67 -12 -78 -17 -176 -94
l-104 -82 -68 -251 c-65 -236 -68 -256 -63 -327 6 -73 8 -80 66 -163 l61 -88
0 -73 0 -73 -99 -45 -99 -45 -7 -106 c-4 -64 -3 -134 4 -180 9 -58 8 -105 -3
-218 l-15 -145 -59 -53 c-58 -51 -62 -59 -116 -196 -31 -79 -56 -152 -56 -163
0 -44 122 -619 139 -659 5 -11 12 -36 14 -56 3 -20 20 -59 37 -88 l32 -52 -23
-157 c-13 -93 -28 -164 -37 -174 -8 -10 -20 -42 -27 -73 -13 -52 -12 -63 17
-168 16 -62 32 -115 36 -119 6 -6 1393 -38 1634 -38 68 0 70 1 57 20 -8 11
-31 44 -52 73 -37 53 -38 57 -71 283 -18 126 -32 256 -30 289 6 116 35 255 89
425 43 134 61 176 83 195 15 14 30 25 34 25 3 0 18 19 33 43 15 24 45 53 67
66 l39 22 -34 47 c-24 33 -51 95 -87 207 -63 195 -99 401 -100 560 l0 110
-108 28 c-59 15 -187 53 -284 84 l-177 56 -44 66 -43 66 14 74 c11 64 20 82
57 126 52 60 102 189 120 307 10 70 9 88 -15 210 -38 189 -89 291 -205 413
l-86 90 -82 7 c-113 9 -180 7 -263 -6z"/>
<path fill="#ffffff" stroke="none" d="M1011 2299 c57 -11 107 -24 112 -28 4
-4 -2 -16 -13 -26 -28 -25 -57 -133 -65 -241 -6 -87 -5 -96 28 -190 20 -54 41
-113 49 -131 12 -27 12 -52 1 -160 -7 -70 -24 -175 -38 -233 -14 -58 -34 -161
-45 -229 -11 -68 -21 -126 -24 -128 -2 -2 -58 81 -124 184 -117 183 -121 191
-143 292 l-24 103 43 167 c38 151 42 183 50 346 8 174 7 181 -13 198 -17 15
-18 18 -5 26 8 5 33 23 55 39 22 17 43 31 46 31 4 1 53 -8 110 -20z"/>
<path fill="#000000" stroke="none" d="M70 102 l-75 -57 30 -6 c17 -4 51 -7
78 -8 42 -1 49 2 57 25 14 37 13 104 -2 103 -7 0 -47 -26 -88 -57z"/>
</g>
</svg>
