<?xml version="1.0" standalone="no"?>
<!DOCTYPE svg PUBLIC "-//W3C//DTD SVG 20010904//EN"
 "http://www.w3.org/TR/2001/REC-SVG-20010904/DTD/svg10.dtd">
<svg version="1.0" xmlns="http://www.w3.org/2000/svg"
 width="42.000000pt" height="47.000000pt" viewBox="0 0 42.000000 47.000000"
 preserveAspectRatio="xMidYMid meet">
<metadata>
Created by potrace 1.14, written by Peter Selinger 2001-2017
</metadata>
<g transform="translate(0.000000,47.000000) scale(0.100000,-0.100000)"
fill="#000000" stroke="none">
<path fill="#000000" stroke="none" d="M155 459 c-26 -7 -32 -17 -48 -69 l-17
-60 -45 0 c-25 0 -45 -2 -45 -5 0 -22 36 -55 59 -55 24 0 30 -8 50 -55 29 -71
23 -96 -28 -120 -34 -15 -39 -21 -31 -36 6 -10 10 -27 10 -38 0 -18 6 -21 47
-21 60 0 149 27 191 58 31 22 32 25 17 42 -8 9 -13 24 -9 34 3 9 1 16 -4 16
-22 0 32 97 77 137 l46 42 -51 1 -51 0 -12 70 -13 70 -56 -1 c-32 0 -70 -5
-87 -10z"/>
</g>
</svg>
