<?xml version="1.0" standalone="no"?>
<!DOCTYPE svg PUBLIC "-//W3C//DTD SVG 20010904//EN"
 "http://www.w3.org/TR/2001/REC-SVG-20010904/DTD/svg10.dtd">
<svg version="1.0" xmlns="http://www.w3.org/2000/svg"
 width="240.000000pt" height="310.000000pt" viewBox="0 0 240.000000 310.000000"
 preserveAspectRatio="xMidYMid meet">
<metadata>
Created by potrace 1.14, written by Peter Selinger 2001-2017
</metadata>
<g transform="translate(0.000000,310.000000) scale(0.100000,-0.100000)"
fill="#000000" stroke="none">
<path fill="#000000" stroke="none" d="M1448 3084 c-40 -17 -40 -16 -63 -119
-25 -112 -45 -152 -79 -159 -15 -3 -110 -6 -209 -6 -176 0 -183 -1 -296 -34
-64 -19 -165 -42 -226 -51 -73 -12 -133 -28 -178 -49 l-67 -31 26 -55 c14 -30
36 -88 49 -128 l23 -73 -21 -38 c-12 -21 -40 -51 -64 -66 -36 -22 -130 -119
-182 -187 -7 -10 -23 -65 -35 -122 -22 -103 -22 -107 -6 -213 12 -80 25 -125
50 -173 62 -122 106 -173 250 -288 118 -95 146 -123 202 -203 l64 -94 -5 -64
-6 -64 -95 -51 c-53 -28 -129 -75 -169 -105 -57 -41 -75 -50 -82 -40 -5 8 -9
20 -9 27 0 19 -27 15 -125 -18 -70 -24 -102 -41 -144 -79 l-54 -48 27 -69 c14
-38 58 -127 97 -199 39 -71 82 -163 96 -205 14 -41 26 -76 28 -78 8 -8 134 85
139 103 3 11 6 41 6 68 0 43 23 221 35 274 8 34 108 102 179 123 l62 17 -12
-77 c-19 -120 -39 -176 -99 -272 -52 -86 -55 -93 -55 -158 0 -79 0 -80 119
-80 105 0 375 75 484 134 l78 43 -68 59 c-38 32 -108 88 -156 124 -77 57 -87
68 -83 90 3 14 11 55 17 92 6 37 16 74 22 82 7 10 99 42 215 75 112 33 205 61
206 63 2 1 10 39 17 83 13 70 12 97 -1 215 -15 133 -24 165 -53 189 -8 6 -18
28 -22 49 -4 20 -15 48 -26 63 -10 14 -34 69 -53 121 -30 83 -41 102 -88 146
-45 42 -58 62 -71 109 l-16 58 38 60 c29 46 63 80 152 147 l114 88 98 0 c53 0
141 -7 195 -15 148 -22 410 -99 510 -149 107 -54 201 -70 233 -40 39 35 41 50
18 122 -19 60 -27 71 -74 104 -34 24 -84 46 -141 62 -181 51 -234 74 -291 123
-99 85 -108 95 -92 90 9 -3 42 -8 74 -12 l58 -8 -6 242 c-4 133 -11 250 -17
260 -18 34 -270 197 -332 215 -67 19 -63 19 -110 0z"/>
</g>
</svg>
