<?xml version="1.0" standalone="no"?>
<!DOCTYPE svg PUBLIC "-//W3C//DTD SVG 20010904//EN"
 "http://www.w3.org/TR/2001/REC-SVG-20010904/DTD/svg10.dtd">
<svg version="1.0" xmlns="http://www.w3.org/2000/svg"
 width="19.000000pt" height="50.000000pt" viewBox="0 0 19.000000 50.000000"
 preserveAspectRatio="xMidYMid meet">
<metadata>
Created by potrace 1.14, written by Peter Selinger 2001-2017
</metadata>
<g transform="translate(0.000000,50.000000) scale(0.100000,-0.100000)"
fill="#000000" stroke="none">
<path fill="#000000" stroke="none" d="M61 493 c0 -5 4 -17 8 -27 6 -15 -2
-29 -30 -59 -40 -41 -40 -46 -3 -97 6 -8 16 -64 22 -123 7 -59 17 -117 23
-128 9 -17 7 -21 -10 -26 -12 -3 -21 -12 -21 -20 0 -11 6 -14 22 -9 13 3 31 6
41 6 14 0 18 7 17 27 -3 48 0 97 6 91 3 -3 8 -28 12 -54 5 -37 12 -50 26 -52
18 -4 19 2 11 129 -8 146 -8 144 1 207 6 41 4 46 -30 77 -20 18 -36 40 -36 49
0 11 -9 16 -30 16 -16 0 -30 -3 -29 -7z"/>
</g>
</svg>
