<?xml version="1.0" standalone="no"?>
<!DOCTYPE svg PUBLIC "-//W3C//DTD SVG 20010904//EN"
 "http://www.w3.org/TR/2001/REC-SVG-20010904/DTD/svg10.dtd">
<svg version="1.0" xmlns="http://www.w3.org/2000/svg"
 width="613.000000pt" height="68.000000pt" viewBox="0 0 613.000000 68.000000"
 preserveAspectRatio="xMidYMid meet">
<metadata>
Created by potrace 1.14, written by Peter Selinger 2001-2017
</metadata>
<g transform="translate(0.000000,68.000000) scale(0.100000,-0.100000)"
fill="#000000" stroke="none">
<path fill="#000000" stroke="none" d="M4 608 c3 -40 9 -124 12 -185 l7 -113
36 -27 c20 -15 82 -73 138 -128 l102 -101 68 -11 c52 -8 71 -8 83 2 8 7 45 18
82 25 87 16 201 -1 238 -35 40 -36 114 -41 181 -11 30 13 70 27 89 31 35 7
123 52 252 128 l68 39 290 6 c285 5 290 5 295 26 2 12 9 57 15 101 16 118 29
141 122 210 131 97 129 96 239 80 52 -8 164 -19 249 -25 85 -6 165 -13 176
-15 12 -3 39 -28 60 -55 l39 -51 572 2 573 1 410 -137 c370 -124 411 -140 416
-161 4 -17 13 -24 30 -24 13 0 231 -7 485 -15 254 -9 462 -15 463 -13 1 2 43
49 94 105 69 76 111 134 167 233 46 81 75 143 75 161 l0 29 -3066 0 -3066 0 6
-72z"/>
</g>
</svg>
