<?xml version="1.0" standalone="no"?>
<!DOCTYPE svg PUBLIC "-//W3C//DTD SVG 20010904//EN"
 "http://www.w3.org/TR/2001/REC-SVG-20010904/DTD/svg10.dtd">
<svg version="1.0" xmlns="http://www.w3.org/2000/svg"
 width="66.000000pt" height="185.000000pt" viewBox="0 0 66.000000 185.000000"
 preserveAspectRatio="xMidYMid meet">
<metadata>
Created by potrace 1.14, written by Peter Selinger 2001-2017
</metadata>
<g transform="translate(0.000000,185.000000) scale(0.100000,-0.100000)"
fill="#000000" stroke="none">
<path fill="#000000" stroke="none" d="M367 1473 c-3 -212 -15 -536 -27 -738
l-23 -359 -34 -52 c-19 -29 -54 -65 -76 -80 -79 -52 -182 -147 -194 -178 -25
-66 -25 -66 104 -39 188 38 334 80 427 124 l86 40 0 72 c0 40 7 398 15 796 9
398 14 724 13 725 -5 3 -273 66 -279 66 -4 0 -9 -170 -12 -377z"/>
</g>
</svg>
