<?xml version="1.0" standalone="no"?>
<!DOCTYPE svg PUBLIC "-//W3C//DTD SVG 20010904//EN"
 "http://www.w3.org/TR/2001/REC-SVG-20010904/DTD/svg10.dtd">
<svg version="1.0" xmlns="http://www.w3.org/2000/svg"
 width="17.000000pt" height="34.000000pt" viewBox="0 0 17.000000 34.000000"
 preserveAspectRatio="xMidYMid meet">
<metadata>
Created by potrace 1.14, written by Peter Selinger 2001-2017
</metadata>
<g transform="translate(0.000000,34.000000) scale(0.100000,-0.100000)"
fill="#000000" stroke="none">
<path fill="#000000" stroke="none" d="M70 327 c0 -8 -11 -19 -24 -25 -16 -7
-29 -25 -36 -50 -11 -33 -9 -46 12 -98 26 -65 49 -77 59 -29 5 25 7 27 14 12
7 -17 9 -17 26 -1 11 10 19 12 19 6 0 -6 7 -9 15 -6 19 8 19 33 0 40 -17 7
-20 37 -5 64 7 13 7 21 0 25 -5 3 -10 15 -10 26 0 10 -7 19 -15 19 -9 0 -18 7
-21 15 -8 19 -34 20 -34 2z"/>
<path fill="#000000" stroke="none" d="M105 19 c-4 -6 -5 -12 -2 -15 2 -3 7 2
10 11 7 17 1 20 -8 4z"/>
</g>
</svg>
