<?xml version="1.0" standalone="no"?>
<!DOCTYPE svg PUBLIC "-//W3C//DTD SVG 20010904//EN"
 "http://www.w3.org/TR/2001/REC-SVG-20010904/DTD/svg10.dtd">
<svg version="1.0" xmlns="http://www.w3.org/2000/svg"
 width="71.000000pt" height="65.000000pt" viewBox="0 0 71.000000 65.000000"
 preserveAspectRatio="xMidYMid meet">
<metadata>
Created by potrace 1.14, written by Peter Selinger 2001-2017
</metadata>
<g transform="translate(0.000000,65.000000) scale(0.100000,-0.100000)"
fill="#000000" stroke="none">
<path fill="#000000" stroke="none" d="M170 641 c0 -4 5 -22 11 -39 9 -26 7
-36 -15 -71 -46 -72 -76 -151 -117 -310 -23 -85 -43 -159 -45 -166 -3 -8 69
-16 253 -28 142 -10 274 -20 294 -23 33 -5 37 -3 49 27 8 17 32 57 56 89 l42
57 3 116 4 116 -35 37 c-60 63 -158 92 -213 62 -12 -6 -40 -26 -62 -44 l-40
-33 -22 32 c-49 75 -49 75 1 126 25 26 46 50 46 54 0 4 -47 7 -105 7 -58 0
-105 -4 -105 -9z"/>
</g>
</svg>
