<?xml version="1.0" standalone="no"?>
<!DOCTYPE svg PUBLIC "-//W3C//DTD SVG 20010904//EN"
 "http://www.w3.org/TR/2001/REC-SVG-20010904/DTD/svg10.dtd">
<svg version="1.0" xmlns="http://www.w3.org/2000/svg"
 width="83.000000pt" height="85.000000pt" viewBox="0 0 83.000000 85.000000"
 preserveAspectRatio="xMidYMid meet">
<metadata>
Created by potrace 1.14, written by Peter Selinger 2001-2017
</metadata>
<g transform="translate(0.000000,85.000000) scale(0.100000,-0.100000)"
fill="#000000" stroke="none">
<path fill="#000000" stroke="none" d="M78 820 c-15 -21 -21 -42 -20 -68 1
-20 -2 -43 -7 -51 -15 -22 -1 -49 32 -60 28 -10 29 -12 15 -29 -9 -9 -21 -41
-29 -69 -11 -47 -11 -57 4 -88 l17 -35 -25 6 c-32 8 -65 -19 -65 -53 0 -37 42
-111 114 -203 36 -46 66 -86 66 -89 0 -4 -10 -11 -22 -16 -25 -11 -33 -33 -19
-53 6 -10 26 -2 86 34 43 26 73 50 66 52 -9 3 -8 9 5 23 17 19 17 19 31 -1 19
-27 57 -25 76 4 17 25 19 66 4 66 -6 0 1 9 15 19 14 11 33 18 44 15 20 -5 112
49 121 72 2 7 -7 30 -20 51 -14 21 -39 68 -57 103 -17 36 -53 86 -78 112 l-45
47 27 11 c15 5 30 10 34 10 4 0 15 13 24 29 12 22 27 32 55 36 21 4 70 15 108
24 51 13 75 15 87 7 13 -8 22 -6 36 7 27 24 40 21 44 -10 l4 -28 14 28 c12 25
12 30 -7 49 -19 19 -26 20 -67 9 -24 -6 -73 -11 -108 -11 -35 0 -79 -5 -98
-10 -19 -6 -66 -15 -105 -21 -38 -6 -99 -19 -134 -30 -67 -20 -81 -20 -56 1
19 16 19 36 0 44 -8 3 -15 15 -15 26 0 34 -47 70 -91 70 -31 0 -43 -6 -61 -30z"/>
</g>
</svg>
