<?xml version="1.0" standalone="no"?>
<!DOCTYPE svg PUBLIC "-//W3C//DTD SVG 20010904//EN"
 "http://www.w3.org/TR/2001/REC-SVG-20010904/DTD/svg10.dtd">
<svg version="1.0" xmlns="http://www.w3.org/2000/svg"
 width="58.000000pt" height="84.000000pt" viewBox="0 0 58.000000 84.000000"
 preserveAspectRatio="xMidYMid meet">
<metadata>
Created by potrace 1.14, written by Peter Selinger 2001-2017
</metadata>
<g transform="translate(0.000000,84.000000) scale(0.100000,-0.100000)"
fill="#000000" stroke="none">
<path fill="#000000" stroke="none" d="M33 824 l-33 -14 0 -99 0 -98 74 -13
c41 -7 78 -15 84 -19 5 -3 24 -40 41 -81 26 -63 36 -78 62 -88 18 -6 35 -9 40
-7 11 8 57 331 48 339 -2 2 -31 21 -64 43 -54 36 -67 40 -140 45 -55 4 -90 1
-112 -8z"/>
<path fill="#000000" stroke="none" d="M347 345 c-16 -33 -16 -35 2 -45 17 -8
20 -27 26 -128 l7 -119 45 -26 c24 -15 45 -27 47 -27 2 0 27 30 56 67 49 64
52 71 46 111 -3 24 -13 53 -21 65 -9 12 -20 38 -25 58 -9 34 -14 37 -84 57
-41 12 -76 22 -78 22 -2 0 -12 -16 -21 -35z"/>
</g>
</svg>
