<?xml version="1.0" standalone="no"?>
<!DOCTYPE svg PUBLIC "-//W3C//DTD SVG 20010904//EN"
 "http://www.w3.org/TR/2001/REC-SVG-20010904/DTD/svg10.dtd">
<svg version="1.0" xmlns="http://www.w3.org/2000/svg"
 width="58.000000pt" height="209.000000pt" viewBox="0 0 58.000000 209.000000"
 preserveAspectRatio="xMidYMid meet">
<metadata>
Created by potrace 1.14, written by Peter Selinger 2001-2017
</metadata>
<g transform="translate(0.000000,209.000000) scale(0.100000,-0.100000)"
fill="#000000" stroke="none">
<path fill="#000000" stroke="none" d="M54 2043 l-20 -48 44 -153 c39 -137 54
-170 143 -334 l100 -181 -39 -40 -39 -39 -60 31 -60 30 -44 -267 -45 -267 62
-278 61 -278 -78 -70 -77 -69 11 -41 10 -41 51 6 c28 3 81 8 118 12 l68 6 2
286 3 285 66 -164 65 -165 -27 -99 c-15 -55 -30 -110 -33 -121 -5 -19 0 -22
47 -28 43 -5 63 -1 115 21 34 14 62 31 62 37 0 6 -17 111 -38 232 -38 220 -39
222 -21 266 12 32 27 149 50 413 l33 368 -54 217 -54 217 -100 89 c-82 73
-278 214 -298 214 -2 0 -13 -21 -24 -47z"/>
</g>
</svg>
