<?xml version="1.0" standalone="no"?>
<!DOCTYPE svg PUBLIC "-//W3C//DTD SVG 20010904//EN"
 "http://www.w3.org/TR/2001/REC-SVG-20010904/DTD/svg10.dtd">
<svg version="1.0" xmlns="http://www.w3.org/2000/svg"
 width="44.000000pt" height="134.000000pt" viewBox="0 0 44.000000 134.000000"
 preserveAspectRatio="xMidYMid meet">
<metadata>
Created by potrace 1.14, written by Peter Selinger 2001-2017
</metadata>
<g transform="translate(0.000000,134.000000) scale(0.100000,-0.100000)"
fill="#000000" stroke="none">
<path fill="#000000" stroke="none" d="M26 1328 c-28 -88 -28 -87 -8 -115 11
-16 29 -36 40 -47 12 -10 33 -50 48 -88 24 -62 26 -80 21 -151 -4 -62 0 -107
19 -201 16 -81 28 -184 34 -309 l10 -188 75 -108 c68 -99 89 -121 116 -121 19
0 7 49 -36 144 -44 96 -45 102 -45 198 0 68 9 147 31 260 29 151 34 167 70
215 22 29 39 58 39 65 -1 60 -131 230 -196 258 l-44 19 0 64 c0 76 -13 93 -80
102 -25 4 -55 8 -68 11 -13 3 -24 -1 -26 -8z"/>
</g>
</svg>
