<?xml version="1.0" standalone="no"?>
<!DOCTYPE svg PUBLIC "-//W3C//DTD SVG 20010904//EN"
 "http://www.w3.org/TR/2001/REC-SVG-20010904/DTD/svg10.dtd">
<svg version="1.0" xmlns="http://www.w3.org/2000/svg"
 width="44.000000pt" height="61.000000pt" viewBox="0 0 44.000000 61.000000"
 preserveAspectRatio="xMidYMid meet">
<metadata>
Created by potrace 1.14, written by Peter Selinger 2001-2017
</metadata>
<g transform="translate(0.000000,61.000000) scale(0.100000,-0.100000)"
fill="#000000" stroke="none">
<path fill="#000000" stroke="none" d="M98 590 c-14 -10 -33 -41 -43 -67 -10
-26 -27 -61 -37 -78 -23 -38 -23 -64 2 -95 14 -18 20 -41 20 -81 0 -66 23 -96
95 -126 32 -13 43 -23 40 -34 -9 -28 46 -65 133 -89 45 -13 85 -20 88 -17 3 3
-2 47 -12 98 l-17 93 37 29 c31 25 36 35 36 72 l0 43 -61 11 c-37 6 -68 7 -78
2 -11 -7 -32 -2 -64 14 -27 12 -50 25 -53 28 -3 2 4 22 15 43 11 22 23 55 26
75 6 33 3 39 -31 68 -45 36 -62 38 -96 11z"/>
</g>
</svg>
