<?xml version="1.0" standalone="no"?>
<!DOCTYPE svg PUBLIC "-//W3C//DTD SVG 20010904//EN"
 "http://www.w3.org/TR/2001/REC-SVG-20010904/DTD/svg10.dtd">
<svg version="1.0" xmlns="http://www.w3.org/2000/svg"
 width="98.000000pt" height="211.000000pt" viewBox="0 0 98.000000 211.000000"
 preserveAspectRatio="xMidYMid meet">
<metadata>
Created by potrace 1.14, written by Peter Selinger 2001-2017
</metadata>
<g transform="translate(0.000000,211.000000) scale(0.100000,-0.100000)"
fill="#000000" stroke="none">
<path fill="#000000" stroke="none" d="M84 2080 c-35 -25 -43 -38 -61 -100
l-21 -71 59 -183 c32 -100 72 -242 89 -314 l30 -131 -35 -126 c-25 -86 -33
-131 -26 -143 7 -14 28 -153 46 -307 2 -22 27 -166 55 -320 27 -153 47 -282
42 -286 -4 -3 -32 -23 -62 -44 l-55 -37 90 7 c50 4 93 10 97 13 16 16 48 322
48 461 l0 146 76 -145 c41 -80 81 -165 87 -189 7 -27 19 -46 29 -49 14 -3 18
-15 18 -53 0 -26 11 -84 25 -128 l26 -81 59 0 c33 0 60 4 60 9 0 10 -106 385
-224 794 l-86 298 15 157 c8 86 15 167 15 179 0 17 32 40 153 113 124 76 170
110 250 189 53 52 97 100 97 106 0 12 -52 65 -63 65 -4 0 -71 -57 -149 -126
l-142 -125 -100 7 c-56 3 -103 8 -105 10 -2 2 11 60 28 130 18 70 30 128 28
130 -2 2 -49 7 -105 10 -101 7 -101 7 -106 -17 -3 -13 -13 -69 -23 -123 l-18
-99 -68 102 -68 102 26 93 c14 52 25 96 25 100 0 11 -15 5 -56 -24z"/>
</g>
</svg>
