<?xml version="1.0" standalone="no"?>
<!DOCTYPE svg PUBLIC "-//W3C//DTD SVG 20010904//EN"
 "http://www.w3.org/TR/2001/REC-SVG-20010904/DTD/svg10.dtd">
<svg version="1.0" xmlns="http://www.w3.org/2000/svg"
 width="70.000000pt" height="38.000000pt" viewBox="0 0 70.000000 38.000000"
 preserveAspectRatio="xMidYMid meet">
<metadata>
Created by potrace 1.14, written by Peter Selinger 2001-2017
</metadata>
<g transform="translate(0.000000,38.000000) scale(0.100000,-0.100000)"
fill="#000000" stroke="none">
<path fill="#000000" stroke="none" d="M194 369 c-4 -7 -27 -8 -66 -4 -80 9
-98 -6 -98 -84 -1 -33 -7 -64 -15 -75 -38 -50 -4 -110 59 -105 19 2 38 0 42
-4 14 -13 91 -7 104 8 7 8 25 15 41 15 47 0 59 29 52 129 -7 108 -20 131 -73
131 -21 0 -42 -5 -46 -11z"/>
<path fill="#000000" stroke="none" d="M471 224 c-13 -17 -21 -41 -21 -65 0
-56 -17 -88 -44 -81 -21 5 -21 5 -2 -16 13 -15 31 -22 56 -22 24 0 43 -7 55
-20 11 -12 31 -20 49 -20 28 1 33 6 60 65 16 36 33 65 37 65 5 0 9 13 9 29 0
18 6 31 15 33 14 3 14 5 0 26 -17 24 -72 31 -91 12 -8 -8 -15 -6 -24 5 -21 25
-75 19 -99 -11z"/>
</g>
</svg>
