<?xml version="1.0" standalone="no"?>
<!DOCTYPE svg PUBLIC "-//W3C//DTD SVG 20010904//EN"
 "http://www.w3.org/TR/2001/REC-SVG-20010904/DTD/svg10.dtd">
<svg version="1.0" xmlns="http://www.w3.org/2000/svg"
 width="17.000000pt" height="21.000000pt" viewBox="0 0 17.000000 21.000000"
 preserveAspectRatio="xMidYMid meet">
<metadata>
Created by potrace 1.14, written by Peter Selinger 2001-2017
</metadata>
<g transform="translate(0.000000,21.000000) scale(0.100000,-0.100000)"
fill="#000000" stroke="none">
<path fill="#000000" stroke="none" d="M14 199 c-3 -6 -9 -40 -12 -74 -6 -78
7 -95 71 -95 31 0 47 -5 51 -15 6 -17 46 -21 46 -5 0 5 -9 15 -20 22 -11 7
-20 21 -20 30 0 13 -8 18 -25 18 -14 0 -25 6 -25 13 0 16 35 49 68 67 33 17
22 22 -25 12 -44 -10 -73 0 -73 23 0 17 -26 20 -36 4z"/>
</g>
</svg>
