<?xml version="1.0" standalone="no"?>
<!DOCTYPE svg PUBLIC "-//W3C//DTD SVG 20010904//EN"
 "http://www.w3.org/TR/2001/REC-SVG-20010904/DTD/svg10.dtd">
<svg version="1.0" xmlns="http://www.w3.org/2000/svg"
 width="33.000000pt" height="33.000000pt" viewBox="0 0 33.000000 33.000000"
 preserveAspectRatio="xMidYMid meet">
<metadata>
Created by potrace 1.14, written by Peter Selinger 2001-2017
</metadata>
<g transform="translate(0.000000,33.000000) scale(0.100000,-0.100000)"
fill="#000000" stroke="none">
<path fill="#000000" stroke="none" d="M248 308 c-23 -18 -23 -18 30 -18 38 0
52 4 52 14 0 22 -55 25 -82 4z"/>
<path fill="#000000" stroke="none" d="M258 253 l-56 -4 14 -44 c19 -53 33
-67 76 -68 l33 -2 3 63 c2 34 -1 61 -5 60 -4 -1 -34 -3 -65 -5z"/>
<path fill="#000000" stroke="none" d="M13 107 c26 -42 144 -86 270 -101 l47
-6 0 50 0 49 -35 -6 c-19 -3 -74 2 -122 10 -49 9 -107 18 -131 21 -42 4 -43 4
-29 -17z"/>
</g>
</svg>
