<?xml version="1.0" standalone="no"?>
<!DOCTYPE svg PUBLIC "-//W3C//DTD SVG 20010904//EN"
 "http://www.w3.org/TR/2001/REC-SVG-20010904/DTD/svg10.dtd">
<svg version="1.0" xmlns="http://www.w3.org/2000/svg"
 width="41.000000pt" height="109.000000pt" viewBox="0 0 41.000000 109.000000"
 preserveAspectRatio="xMidYMid meet">
<metadata>
Created by potrace 1.14, written by Peter Selinger 2001-2017
</metadata>
<g transform="translate(0.000000,109.000000) scale(0.100000,-0.100000)"
fill="#000000" stroke="none">
<path fill="#000000" stroke="none" d="M137 1079 c-41 -24 -62 -129 -31 -147
14 -8 14 -11 -7 -26 -22 -15 -25 -26 -29 -109 -5 -85 -8 -96 -38 -138 -25 -35
-33 -55 -30 -79 4 -48 24 -48 68 0 l39 42 5 -34 c15 -93 15 -166 3 -213 l-14
-51 43 -74 c24 -41 44 -85 44 -98 0 -20 49 -123 70 -145 8 -9 86 9 94 22 3 4
-10 40 -29 80 -19 39 -46 109 -60 154 -24 79 -24 84 -10 152 8 38 15 79 15 91
0 12 10 26 23 32 19 9 16 11 -24 11 -44 1 -50 4 -93 55 -33 39 -46 63 -46 85
0 29 1 30 24 20 14 -7 36 -9 50 -5 23 6 25 9 20 54 -4 39 -1 51 18 74 13 14
33 29 46 33 19 5 22 3 22 -21 0 -16 11 -39 26 -55 24 -25 25 -31 16 -73 -7
-35 -6 -46 4 -50 10 -4 14 3 14 22 1 15 7 45 15 67 l15 40 -35 30 c-19 17 -35
38 -35 47 0 9 -10 18 -22 21 -15 2 -4 7 28 11 65 10 85 22 64 36 -8 5 -25 10
-36 10 -12 0 -27 6 -33 14 -7 8 -24 17 -39 21 -18 3 -35 19 -50 46 -13 22 -34
44 -48 49 -31 12 -34 12 -57 -1z"/>
</g>
</svg>
