<?xml version="1.0" standalone="no"?>
<!DOCTYPE svg PUBLIC "-//W3C//DTD SVG 20010904//EN"
 "http://www.w3.org/TR/2001/REC-SVG-20010904/DTD/svg10.dtd">
<svg version="1.0" xmlns="http://www.w3.org/2000/svg"
 width="261.000000pt" height="404.000000pt" viewBox="0 0 261.000000 404.000000"
 preserveAspectRatio="xMidYMid meet">
<metadata>
Created by potrace 1.14, written by Peter Selinger 2001-2017
</metadata>
<g transform="translate(0.000000,404.000000) scale(0.100000,-0.100000)"
fill="#000000" stroke="none">
<path fill="#000000" stroke="none" d="M1195 4019 c-38 -10 -97 -24 -130 -30
l-60 -10 -51 -77 c-50 -76 -51 -79 -58 -173 -7 -94 -6 -97 29 -179 35 -84 35
-86 35 -230 l0 -146 -47 -35 c-27 -20 -88 -81 -138 -137 l-90 -101 -160 -73
c-126 -58 -171 -84 -215 -125 -55 -51 -57 -54 -94 -178 -42 -143 -97 -275
-161 -385 -43 -75 -43 -75 -47 -189 l-3 -115 90 -23 c71 -18 105 -21 161 -17
89 8 104 -4 122 -97 l13 -65 250 -273 250 -273 -32 -56 c-18 -31 -42 -75 -55
-97 -12 -22 -37 -78 -55 -124 -31 -83 -32 -87 -26 -205 5 -92 13 -143 36 -216
23 -75 30 -120 34 -213 2 -65 7 -120 10 -123 3 -3 43 -15 89 -28 l83 -22 775
12 c426 6 776 12 778 13 13 7 -47 552 -67 605 -6 15 -18 69 -26 120 -8 50 -19
106 -24 123 -5 18 -15 84 -21 147 -12 113 -12 114 16 200 l28 86 51 0 c27 0
67 3 88 6 l37 7 -1 56 c0 31 -8 78 -18 106 -16 46 -21 51 -57 57 -21 5 -52 10
-69 14 -24 4 -36 -1 -63 -25 -18 -17 -36 -31 -40 -31 -8 0 -72 -33 -119 -62
l-32 -19 -44 40 -44 41 -6 228 c-7 274 -19 364 -54 412 -47 65 -90 135 -118
190 -16 30 -44 81 -63 114 -35 58 -35 58 -29 153 5 91 4 97 -21 137 -15 22
-31 44 -37 48 -5 4 -62 26 -125 48 -63 23 -118 47 -122 53 -15 24 -7 42 29 67
47 32 143 160 143 191 0 13 13 68 29 122 32 107 30 126 -18 227 l-22 45 35 76
c34 74 37 77 91 99 43 18 55 27 55 44 0 45 -38 64 -145 76 -114 13 -183 39
-214 81 -22 30 -151 100 -206 113 -16 4 -37 9 -45 10 -8 2 -46 -4 -85 -15z"/>
</g>
</svg>
