<?xml version="1.0" standalone="no"?>
<!DOCTYPE svg PUBLIC "-//W3C//DTD SVG 20010904//EN"
 "http://www.w3.org/TR/2001/REC-SVG-20010904/DTD/svg10.dtd">
<svg version="1.0" xmlns="http://www.w3.org/2000/svg"
 width="353.000000pt" height="162.000000pt" viewBox="0 0 353.000000 162.000000"
 preserveAspectRatio="xMidYMid meet">
<metadata>
Created by potrace 1.14, written by Peter Selinger 2001-2017
</metadata>
<g transform="translate(0.000000,162.000000) scale(0.100000,-0.100000)"
fill="#000000" stroke="none">
<path fill="#000000" stroke="none" d="M380 1596 c-19 -13 -44 -37 -54 -53
-11 -15 -71 -75 -134 -132 -100 -92 -119 -115 -154 -185 l-40 -80 7 -223 7
-223 74 -84 c40 -47 79 -88 86 -92 28 -18 224 -44 392 -53 267 -15 369 -39
896 -210 250 -81 480 -153 510 -160 30 -6 192 -25 360 -41 168 -16 357 -36
421 -45 63 -8 181 -15 262 -15 l147 0 183 121 c100 67 183 123 185 124 5 4
-30 780 -35 785 -2 3 -121 8 -264 11 l-259 7 -323 -140 -322 -140 -110 55
c-60 30 -486 216 -945 412 -459 196 -839 363 -845 371 -8 12 -16 10 -45 -10z"/>
</g>
</svg>
