<?xml version="1.0" standalone="no"?>
<!DOCTYPE svg PUBLIC "-//W3C//DTD SVG 20010904//EN"
 "http://www.w3.org/TR/2001/REC-SVG-20010904/DTD/svg10.dtd">
<svg version="1.0" xmlns="http://www.w3.org/2000/svg"
 width="474.000000pt" height="623.000000pt" viewBox="0 0 474.000000 623.000000"
 preserveAspectRatio="xMidYMid meet">
<metadata>
Created by potrace 1.14, written by Peter Selinger 2001-2017
</metadata>
<g transform="translate(0.000000,623.000000) scale(0.100000,-0.100000)"
fill="#000000" stroke="none">
<path fill="#000000" stroke="none" d="M951 5768 l-202 -463 -118 -170 c-93
-134 -137 -210 -209 -361 l-92 -192 70 -223 c38 -123 70 -228 70 -234 0 -5
-64 -74 -142 -152 l-142 -142 -93 -433 c-51 -237 -91 -433 -90 -434 1 -1 42
44 91 102 69 80 97 105 120 109 17 3 131 23 254 44 l223 38 257 -58 c141 -32
261 -54 265 -50 5 5 32 44 61 87 l53 79 208 20 208 21 176 -29 c130 -21 226
-30 368 -34 l191 -6 71 -79 71 -78 -29 -48 c-21 -33 -42 -99 -71 -222 -35
-147 -57 -299 -141 -947 -54 -425 -99 -778 -99 -785 0 -8 -182 -263 -403 -568
-222 -305 -403 -557 -401 -559 2 -2 737 0 1634 4 l1630 7 0 791 0 791 -100
442 -100 442 -50 754 -51 753 -80 285 -79 286 56 269 c31 149 56 284 55 300
-1 17 -45 271 -99 565 l-97 535 -1521 3 -1521 2 -202 -462z"/>
</g>
</svg>
