<?xml version="1.0" standalone="no"?>
<!DOCTYPE svg PUBLIC "-//W3C//DTD SVG 20010904//EN"
 "http://www.w3.org/TR/2001/REC-SVG-20010904/DTD/svg10.dtd">
<svg version="1.0" xmlns="http://www.w3.org/2000/svg"
 width="249.000000pt" height="418.000000pt" viewBox="0 0 249.000000 418.000000"
 preserveAspectRatio="xMidYMid meet">
<metadata>
Created by potrace 1.14, written by Peter Selinger 2001-2017
</metadata>
<g transform="translate(0.000000,418.000000) scale(0.100000,-0.100000)"
fill="#000000" stroke="none">
<path fill="#000000" stroke="none" d="M385 4161 c-105 -26 -199 -96 -301
-224 l-82 -102 59 -113 58 -114 -20 -49 c-27 -71 -18 -113 38 -172 27 -29 51
-46 59 -43 8 3 37 0 64 -6 40 -9 54 -19 79 -53 20 -28 62 -61 127 -100 97 -59
98 -59 168 -57 63 3 74 6 94 30 13 15 -4 -25 -37 -89 -49 -94 -61 -125 -61
-162 0 -26 -1 -47 -2 -48 -2 -1 -84 -4 -183 -8 l-180 -6 -79 -45 c-102 -58
-107 -70 -99 -223 l6 -116 54 -22 55 -22 91 27 92 28 40 -45 40 -45 230 -17
c127 -10 231 -18 231 -19 1 0 28 -48 62 -106 l60 -106 -39 -483 -39 -483 29
-41 c28 -41 30 -52 80 -467 29 -234 54 -438 58 -455 4 -21 26 -47 75 -89 l70
-58 -39 -24 -38 -23 205 -1 c113 0 364 -3 557 -7 l353 -6 -6 84 c-3 46 -21
172 -40 280 -32 182 -34 211 -34 410 0 118 7 376 16 574 19 415 4 358 150 561
l84 117 0 379 0 380 -36 61 c-21 34 -105 211 -189 394 l-152 331 -120 134
c-66 73 -126 138 -134 144 -8 6 -129 32 -269 58 -140 26 -316 61 -390 77 -95
20 -162 29 -227 29 l-93 0 -22 34 c-20 30 -31 36 -97 50 -41 9 -102 20 -135
23 -41 4 -75 15 -105 35 -52 32 -45 32 -136 9z"/>
</g>
</svg>
