<?xml version="1.0" standalone="no"?>
<!DOCTYPE svg PUBLIC "-//W3C//DTD SVG 20010904//EN"
 "http://www.w3.org/TR/2001/REC-SVG-20010904/DTD/svg10.dtd">
<svg version="1.0" xmlns="http://www.w3.org/2000/svg"
 width="213.000000pt" height="317.000000pt" viewBox="0 0 213.000000 317.000000"
 preserveAspectRatio="xMidYMid meet">
<metadata>
Created by potrace 1.14, written by Peter Selinger 2001-2017
</metadata>
<g transform="translate(0.000000,317.000000) scale(0.100000,-0.100000)"
fill="#000000" stroke="none">
<path fill="#000000" stroke="none" d="M615 3151 l-150 -16 -32 -60 c-49 -90
-49 -105 -9 -252 20 -71 36 -132 36 -135 0 -3 -19 -10 -43 -16 l-43 -11 16
-208 16 -208 83 -280 83 -280 -21 -195 -22 -195 -110 -105 -111 -105 -154
-455 c-84 -250 -150 -457 -146 -461 19 -17 254 -170 257 -167 1 2 57 117 124
257 67 140 166 331 220 425 54 94 100 179 102 190 3 13 19 -4 59 -62 47 -69
86 -106 278 -266 206 -171 229 -187 290 -205 359 -105 765 -221 767 -219 3 4
24 292 22 294 -44 28 -626 332 -680 355 -52 21 -81 40 -86 53 -5 12 -16 80
-26 152 l-18 131 32 154 33 154 -71 180 -71 180 35 380 c19 209 36 392 38 406
l3 25 -111 -17 c-60 -9 -113 -14 -117 -12 -5 2 -8 25 -8 51 l0 47 223 136 222
136 194 24 c145 18 195 27 201 39 6 11 -5 30 -39 69 l-47 53 -279 -43 -280
-44 -117 -76 -116 -77 -79 81 c-43 45 -105 112 -138 148 l-60 66 -150 -16z"/>
</g>
</svg>
