<?xml version="1.0" standalone="no"?>
<!DOCTYPE svg PUBLIC "-//W3C//DTD SVG 20010904//EN"
 "http://www.w3.org/TR/2001/REC-SVG-20010904/DTD/svg10.dtd">
<svg version="1.0" xmlns="http://www.w3.org/2000/svg"
 width="73.000000pt" height="148.000000pt" viewBox="0 0 73.000000 148.000000"
 preserveAspectRatio="xMidYMid meet">
<metadata>
Created by potrace 1.14, written by Peter Selinger 2001-2017
</metadata>
<g transform="translate(0.000000,148.000000) scale(0.100000,-0.100000)"
fill="#000000" stroke="none">
<path fill="#000000" stroke="none" d="M182 1433 c-6 -27 -14 -74 -17 -105 -6
-54 -9 -59 -55 -93 -26 -19 -63 -58 -80 -85 l-32 -50 14 -57 c12 -51 17 -58
48 -68 30 -10 44 -9 100 10 l65 22 -2 -41 c-1 -23 -13 -94 -28 -158 -15 -65
-25 -138 -23 -165 l3 -48 54 92 c30 51 56 91 58 90 1 -2 -2 -18 -7 -36 -5 -18
-10 -80 -11 -139 -1 -114 6 -141 100 -387 20 -52 31 -98 31 -131 0 -29 5 -56
13 -62 14 -12 127 -20 127 -9 0 4 -13 84 -30 177 -16 93 -30 175 -29 182 0 7
29 -72 64 -177 l64 -190 61 -3 60 -3 0 101 c0 86 -5 121 -35 227 -22 78 -35
144 -34 176 1 48 -20 130 -121 478 -15 51 -39 91 -105 179 -72 96 -87 123 -97
173 -12 57 -16 63 -71 104 -33 24 -63 43 -67 43 -4 0 -13 -21 -18 -47z"/>
<path fill="#ffffff" stroke="none" d="M477 398 c-3 -8 -6 -5 -6 6 -1 11 2 17
5 13 3 -3 4 -12 1 -19z"/>
</g>
</svg>
