<?xml version="1.0" standalone="no"?>
<!DOCTYPE svg PUBLIC "-//W3C//DTD SVG 20010904//EN"
 "http://www.w3.org/TR/2001/REC-SVG-20010904/DTD/svg10.dtd">
<svg version="1.0" xmlns="http://www.w3.org/2000/svg"
 width="18.000000pt" height="21.000000pt" viewBox="0 0 18.000000 21.000000"
 preserveAspectRatio="xMidYMid meet">
<metadata>
Created by potrace 1.14, written by Peter Selinger 2001-2017
</metadata>
<g transform="translate(0.000000,21.000000) scale(0.100000,-0.100000)"
fill="#000000" stroke="none">
<path fill="#000000" stroke="none" d="M23 197 c-22 -12 -22 -13 -3 -25 21
-13 27 -42 9 -42 -7 0 -9 -10 -7 -25 3 -14 1 -28 -3 -31 -12 -7 -11 -46 2 -64
8 -12 9 -11 7 5 -2 16 3 20 27 20 17 0 41 6 53 14 13 7 35 10 48 7 39 -10 29
20 -16 50 -29 19 -43 37 -50 65 -12 42 -28 48 -67 26z"/>
</g>
</svg>
