<?xml version="1.0" standalone="no"?>
<!DOCTYPE svg PUBLIC "-//W3C//DTD SVG 20010904//EN"
 "http://www.w3.org/TR/2001/REC-SVG-20010904/DTD/svg10.dtd">
<svg version="1.0" xmlns="http://www.w3.org/2000/svg"
 width="112.000000pt" height="178.000000pt" viewBox="0 0 112.000000 178.000000"
 preserveAspectRatio="xMidYMid meet">
<metadata>
Created by potrace 1.14, written by Peter Selinger 2001-2017
</metadata>
<g transform="translate(0.000000,178.000000) scale(0.100000,-0.100000)"
fill="#000000" stroke="none">
<path fill="#000000" stroke="none" d="M118 1711 c-74 -69 -76 -72 -96 -153
-13 -52 -18 -88 -12 -98 5 -9 29 -33 54 -54 68 -56 77 -66 71 -86 -5 -14 3
-21 32 -30 21 -7 56 -22 78 -33 22 -12 42 -21 45 -20 3 0 15 4 27 7 22 7 23 5
17 -38 -6 -44 9 -106 26 -106 4 0 10 -32 14 -72 5 -57 2 -86 -14 -142 -52
-180 -73 -231 -133 -308 -63 -84 -67 -109 -11 -78 19 11 45 20 58 20 15 0 27
9 35 28 7 15 31 53 53 85 33 50 102 208 135 311 5 16 23 40 39 53 l31 23 62
-50 c34 -27 67 -50 72 -50 23 0 6 -60 -36 -122 -25 -37 -59 -95 -76 -129 l-31
-61 26 -25 c14 -13 26 -29 26 -34 0 -6 34 -80 76 -165 73 -145 76 -155 64
-184 -16 -38 -27 -44 -112 -60 -41 -7 -73 -19 -84 -31 -17 -19 -17 -21 7 -44
35 -35 223 -68 331 -59 119 10 121 12 133 124 12 113 -6 212 -56 311 -16 34
-29 63 -27 64 2 2 37 -1 77 -6 80 -11 98 -4 84 36 -3 11 -7 48 -7 83 -1 58 -4
65 -29 84 -35 25 -48 58 -41 98 5 24 12 30 32 30 22 0 24 3 19 30 -5 22 1 43
19 77 25 46 26 53 20 162 -3 62 -11 119 -17 127 -6 7 -73 53 -148 100 -75 48
-163 106 -196 129 l-60 42 -70 -13 c-150 -27 -171 -16 -187 97 -7 55 -18 86
-41 122 -35 51 -56 62 -148 72 l-55 7 -76 -71z"/>
</g>
</svg>
