<?xml version="1.0" standalone="no"?>
<!DOCTYPE svg PUBLIC "-//W3C//DTD SVG 20010904//EN"
 "http://www.w3.org/TR/2001/REC-SVG-20010904/DTD/svg10.dtd">
<svg version="1.0" xmlns="http://www.w3.org/2000/svg"
 width="44.000000pt" height="108.000000pt" viewBox="0 0 44.000000 108.000000"
 preserveAspectRatio="xMidYMid meet">
<metadata>
Created by potrace 1.14, written by Peter Selinger 2001-2017
</metadata>
<g transform="translate(0.000000,108.000000) scale(0.100000,-0.100000)"
fill="#000000" stroke="none">
<path fill="#000000" stroke="none" d="M206 1045 c-9 -21 -16 -57 -16 -81 0
-32 -4 -44 -15 -44 -27 0 -139 -91 -159 -128 -30 -59 -17 -114 44 -178 45 -47
50 -58 46 -86 -3 -18 -8 -62 -11 -98 -3 -36 -15 -107 -26 -159 -10 -52 -19
-112 -19 -133 0 -22 -5 -48 -11 -59 -7 -15 -7 -24 1 -34 14 -16 69 -25 72 -11
0 6 2 22 3 36 1 14 8 37 16 50 7 14 16 50 20 80 4 30 21 91 37 135 l31 80 0
-79 c1 -43 -6 -123 -15 -178 -9 -55 -14 -100 -12 -101 2 -1 14 -12 28 -23 33
-28 90 -42 90 -21 0 8 -9 26 -21 40 l-20 27 20 46 c24 53 46 173 61 329 16
171 19 185 41 185 10 0 25 13 34 30 13 25 13 37 4 77 -16 64 -53 120 -95 145
-35 21 -41 36 -24 68 14 26 -16 110 -40 110 -10 0 -25 3 -34 6 -10 4 -20 -5
-30 -31z"/>
<path fill="#ffffff" stroke="none" d="M339 792 c14 -60 14 -64 -6 -83 -25
-25 -58 -18 -67 14 -13 48 -7 116 12 126 33 20 46 8 61 -57z"/>
</g>
</svg>
