<?xml version="1.0" standalone="no"?>
<!DOCTYPE svg PUBLIC "-//W3C//DTD SVG 20010904//EN"
 "http://www.w3.org/TR/2001/REC-SVG-20010904/DTD/svg10.dtd">
<svg version="1.0" xmlns="http://www.w3.org/2000/svg"
 width="17.000000pt" height="87.000000pt" viewBox="0 0 17.000000 87.000000"
 preserveAspectRatio="xMidYMid meet">
<metadata>
Created by potrace 1.14, written by Peter Selinger 2001-2017
</metadata>
<g transform="translate(0.000000,87.000000) scale(0.100000,-0.100000)"
fill="#000000" stroke="none">
<path fill="#000000" stroke="none" d="M52 860 c-45 -11 -48 -15 -35 -62 6
-24 8 -49 4 -58 -10 -19 -21 -537 -12 -565 3 -11 13 -20 21 -20 11 0 14 -10
13 -40 -2 -33 4 -47 32 -80 l35 -40 0 28 c0 15 -4 27 -10 27 -16 0 -12 76 5
90 12 10 15 56 17 269 l3 256 23 3 c28 4 28 17 -2 43 -21 18 -23 25 -15 52 14
49 11 97 -5 97 -8 0 -20 2 -28 4 -7 2 -28 0 -46 -4z"/>
</g>
</svg>
