<?xml version="1.0" standalone="no"?>
<!DOCTYPE svg PUBLIC "-//W3C//DTD SVG 20010904//EN"
 "http://www.w3.org/TR/2001/REC-SVG-20010904/DTD/svg10.dtd">
<svg version="1.0" xmlns="http://www.w3.org/2000/svg"
 width="127.000000pt" height="221.000000pt" viewBox="0 0 127.000000 221.000000"
 preserveAspectRatio="xMidYMid meet">
<metadata>
Created by potrace 1.14, written by Peter Selinger 2001-2017
</metadata>
<g transform="translate(0.000000,221.000000) scale(0.100000,-0.100000)"
fill="#000000" stroke="none">
<path fill="#000000" stroke="none" d="M532 2140 l4 -69 -71 -21 c-38 -11
-127 -45 -197 -74 l-127 -54 -57 117 -57 116 -16 -48 -15 -48 42 -82 c23 -45
44 -94 48 -109 5 -21 14 -29 38 -33 17 -3 103 -18 191 -33 l160 -27 8 -150 c4
-83 5 -229 2 -326 l-6 -175 124 -24 125 -23 11 -91 c7 -50 30 -158 51 -241 30
-117 41 -184 49 -305 6 -85 14 -175 17 -200 l5 -45 -68 -52 c-37 -28 -81 -65
-97 -81 l-28 -30 53 -6 c30 -3 95 -8 145 -10 l92 -6 48 74 c54 83 55 83 103 7
28 -44 87 -98 97 -89 2 3 18 77 34 166 l30 161 -81 128 c-134 209 -145 239
-158 428 -6 88 -11 167 -11 176 0 8 16 23 35 32 l35 17 0 69 c0 63 -6 84 -58
208 l-59 139 -7 179 -7 180 -67 68 c-37 37 -89 82 -115 100 l-48 32 6 63 6 62
-59 0 c-32 0 -63 -5 -69 -11 -8 -8 -17 -8 -31 0 -47 25 -55 16 -50 -59z"/>
</g>
</svg>
