<?xml version="1.0" standalone="no"?>
<!DOCTYPE svg PUBLIC "-//W3C//DTD SVG 20010904//EN"
 "http://www.w3.org/TR/2001/REC-SVG-20010904/DTD/svg10.dtd">
<svg version="1.0" xmlns="http://www.w3.org/2000/svg"
 width="58.000000pt" height="145.000000pt" viewBox="0 0 58.000000 145.000000"
 preserveAspectRatio="xMidYMid meet">
<metadata>
Created by potrace 1.14, written by Peter Selinger 2001-2017
</metadata>
<g transform="translate(0.000000,145.000000) scale(0.100000,-0.100000)"
fill="#000000" stroke="none">
<path fill="#000000" stroke="none" d="M100 1437 c-24 -10 -38 -23 -44 -43 -4
-16 -19 -55 -31 -87 l-24 -57 37 -19 c34 -17 40 -28 70 -114 l34 -96 -36 -61
c-20 -33 -36 -64 -36 -68 0 -4 44 -27 96 -51 82 -38 102 -52 135 -96 22 -29
57 -97 80 -151 37 -91 39 -102 29 -139 -6 -22 -20 -51 -31 -64 -18 -23 -24
-24 -58 -15 l-38 11 -22 -96 c-12 -53 -21 -102 -21 -109 0 -7 23 -52 52 -98
l52 -86 43 49 c51 58 48 50 76 210 22 119 22 134 10 215 l-14 88 29 42 c16 24
44 71 61 106 30 59 31 67 25 137 -6 68 -9 76 -43 108 -27 25 -57 40 -117 56
-67 19 -84 28 -98 52 -17 29 -17 29 18 71 29 33 36 50 36 83 0 23 3 62 6 87 6
44 6 45 -49 92 -52 44 -59 47 -124 51 -43 3 -81 0 -103 -8z"/>
</g>
</svg>
