<?xml version="1.0" standalone="no"?>
<!DOCTYPE svg PUBLIC "-//W3C//DTD SVG 20010904//EN"
 "http://www.w3.org/TR/2001/REC-SVG-20010904/DTD/svg10.dtd">
<svg version="1.0" xmlns="http://www.w3.org/2000/svg"
 width="39.000000pt" height="49.000000pt" viewBox="0 0 39.000000 49.000000"
 preserveAspectRatio="xMidYMid meet">
<metadata>
Created by potrace 1.14, written by Peter Selinger 2001-2017
</metadata>
<g transform="translate(0.000000,49.000000) scale(0.100000,-0.100000)"
fill="#000000" stroke="none">
<path fill="#000000" stroke="none" d="M173 474 c-41 -15 -41 -15 -54 -86 -8
-46 -21 -81 -36 -99 -18 -21 -28 -53 -39 -126 -10 -64 -21 -102 -32 -110 -13
-11 12 -13 131 -13 l147 0 0 140 c0 87 4 140 10 140 18 0 10 40 -20 99 -23 47
-50 76 -63 70 -1 0 -21 -7 -44 -15z"/>
<path fill="#000000" stroke="none" d="M330 137 c0 -113 0 -114 26 -126 15 -6
28 -10 31 -8 3 4 -7 96 -23 215 -3 19 -11 32 -19 32 -12 0 -15 -21 -15 -113z"/>
</g>
</svg>
