<?xml version="1.0" standalone="no"?>
<!DOCTYPE svg PUBLIC "-//W3C//DTD SVG 20010904//EN"
 "http://www.w3.org/TR/2001/REC-SVG-20010904/DTD/svg10.dtd">
<svg version="1.0" xmlns="http://www.w3.org/2000/svg"
 width="161.000000pt" height="240.000000pt" viewBox="0 0 161.000000 240.000000"
 preserveAspectRatio="xMidYMid meet">
<metadata>
Created by potrace 1.14, written by Peter Selinger 2001-2017
</metadata>
<g transform="translate(0.000000,240.000000) scale(0.100000,-0.100000)"
fill="#000000" stroke="none">
<path fill="#000000" stroke="none" d="M943 2364 l-63 -36 0 -115 0 -115 -60
4 -59 4 -80 -135 c-72 -124 -85 -155 -146 -351 -37 -118 -74 -228 -83 -245 -8
-16 -82 -148 -163 -291 l-149 -262 -44 -314 c-37 -268 -48 -322 -70 -367 -27
-52 -28 -91 -2 -91 7 0 50 5 96 11 68 9 94 18 146 51 52 33 63 44 59 62 -14
71 -18 144 -16 330 l2 209 75 96 c41 53 94 118 118 144 40 44 48 49 107 57
l64 9 38 -37 c22 -20 80 -93 130 -162 50 -69 155 -205 233 -302 78 -97 172
-221 209 -275 68 -98 91 -119 255 -226 l27 -17 23 43 22 42 -57 135 c-45 106
-81 168 -165 290 -59 85 -126 191 -150 235 -24 44 -92 168 -152 276 l-108 196
0 165 0 165 26 12 c15 6 28 10 29 9 1 -2 -7 -48 -17 -103 l-19 -99 45 -106
c106 -250 122 -276 186 -320 33 -22 66 -43 73 -46 13 -5 97 94 97 114 0 4 -30
24 -66 43 -64 33 -68 37 -135 150 -78 131 -77 126 -51 293 l17 109 80 22 80
21 3 46 3 46 -46 6 c-28 5 -45 12 -45 21 0 7 -36 55 -81 107 l-81 93 81 78
c45 43 81 82 81 87 0 5 -12 59 -26 119 l-25 109 -77 17 c-42 9 -84 18 -92 20
-8 2 -43 -12 -77 -31z"/>
<path fill="#ffffff" stroke="none" d="M1262 1723 c39 -4 58 -10 58 -19 0 -21
-48 -29 -68 -11 -9 8 -33 22 -52 31 -19 9 -26 14 -16 11 11 -3 46 -8 78 -12z"/>
</g>
</svg>
