<?xml version="1.0" standalone="no"?>
<!DOCTYPE svg PUBLIC "-//W3C//DTD SVG 20010904//EN"
 "http://www.w3.org/TR/2001/REC-SVG-20010904/DTD/svg10.dtd">
<svg version="1.0" xmlns="http://www.w3.org/2000/svg"
 width="34.000000pt" height="130.000000pt" viewBox="0 0 34.000000 130.000000"
 preserveAspectRatio="xMidYMid meet">
<metadata>
Created by potrace 1.14, written by Peter Selinger 2001-2017
</metadata>
<g transform="translate(0.000000,130.000000) scale(0.100000,-0.100000)"
fill="#000000" stroke="none">
<path fill="#000000" stroke="none" d="M103 1294 c-7 -3 -17 -21 -23 -40 -10
-29 -9 -38 2 -52 32 -37 29 -51 -22 -100 -58 -55 -63 -85 -35 -192 13 -52 17
-104 15 -255 -1 -188 -1 -191 29 -275 28 -79 31 -95 31 -223 l0 -138 38 3 37
3 0 202 c0 221 5 244 44 192 23 -31 23 -34 13 -153 -12 -142 -9 -231 8 -251 7
-8 25 -15 41 -15 l29 0 0 153 c0 95 6 189 16 246 15 89 15 141 -1 338 -2 31
-12 63 -24 80 -18 24 -19 33 -11 63 5 19 10 51 10 70 0 19 9 50 21 69 24 40
17 52 -46 74 -44 15 -52 32 -54 108 -2 70 -60 116 -118 93z"/>
</g>
</svg>
