<?xml version="1.0" standalone="no"?>
<!DOCTYPE svg PUBLIC "-//W3C//DTD SVG 20010904//EN"
 "http://www.w3.org/TR/2001/REC-SVG-20010904/DTD/svg10.dtd">
<svg version="1.0" xmlns="http://www.w3.org/2000/svg"
 width="17.000000pt" height="33.000000pt" viewBox="0 0 17.000000 33.000000"
 preserveAspectRatio="xMidYMid meet">
<metadata>
Created by potrace 1.14, written by Peter Selinger 2001-2017
</metadata>
<g transform="translate(0.000000,33.000000) scale(0.100000,-0.100000)"
fill="#000000" stroke="none">
<path fill="#000000" stroke="none" d="M36 314 c-3 -9 -11 -70 -16 -137 -6
-67 -12 -133 -14 -147 l-5 -25 77 3 c86 4 104 13 80 39 -9 10 -22 38 -28 63
-9 37 -8 53 5 89 15 43 14 45 -10 87 -21 36 -31 44 -54 44 -17 0 -31 -7 -35
-16z"/>
</g>
</svg>
