<?xml version="1.0" standalone="no"?>
<!DOCTYPE svg PUBLIC "-//W3C//DTD SVG 20010904//EN"
 "http://www.w3.org/TR/2001/REC-SVG-20010904/DTD/svg10.dtd">
<svg version="1.0" xmlns="http://www.w3.org/2000/svg"
 width="22.000000pt" height="60.000000pt" viewBox="0 0 22.000000 60.000000"
 preserveAspectRatio="xMidYMid meet">
<metadata>
Created by potrace 1.14, written by Peter Selinger 2001-2017
</metadata>
<g transform="translate(0.000000,60.000000) scale(0.100000,-0.100000)"
fill="#000000" stroke="none">
<path fill="#000000" stroke="none" d="M72 532 c3 -79 -3 -92 -43 -92 -23 0
-30 -4 -27 -17 2 -10 12 -22 23 -28 18 -9 20 -19 17 -87 -3 -76 -2 -78 20 -78
21 0 25 -9 43 -84 22 -90 21 -116 -1 -116 -16 0 -19 -16 -4 -25 6 -3 31 -3 56
1 l46 7 -6 46 c-20 177 -20 171 3 171 20 0 21 3 15 73 -9 116 -22 176 -44 207
-11 16 -22 43 -23 60 -2 28 -5 30 -39 30 l-38 0 2 -68z"/>
</g>
</svg>
