<?xml version="1.0" standalone="no"?>
<!DOCTYPE svg PUBLIC "-//W3C//DTD SVG 20010904//EN"
 "http://www.w3.org/TR/2001/REC-SVG-20010904/DTD/svg10.dtd">
<svg version="1.0" xmlns="http://www.w3.org/2000/svg"
 width="94.000000pt" height="201.000000pt" viewBox="0 0 94.000000 201.000000"
 preserveAspectRatio="xMidYMid meet">
<metadata>
Created by potrace 1.14, written by Peter Selinger 2001-2017
</metadata>
<g transform="translate(0.000000,201.000000) scale(0.100000,-0.100000)"
fill="#000000" stroke="none">
<path fill="#000000" stroke="none" d="M373 1979 c-10 -26 -14 -28 -59 -24
-27 2 -57 6 -66 10 -16 6 -166 -8 -172 -17 -2 -2 -20 -138 -41 -302 -43 -337
-43 -345 16 -576 35 -138 36 -206 8 -385 -16 -99 -22 -197 -26 -407 l-5 -278
39 0 c22 0 68 3 102 6 l61 7 0 97 c0 80 5 111 29 182 25 75 30 108 36 245 4
87 13 194 21 238 8 44 21 132 29 195 9 63 24 160 35 215 11 55 29 161 40 235
27 181 28 184 49 197 18 11 18 8 14 -50 -4 -46 3 -100 26 -212 18 -83 36 -184
41 -225 5 -41 29 -138 53 -215 42 -131 45 -149 52 -295 11 -243 42 -601 53
-612 11 -11 202 -1 202 11 0 3 -7 123 -14 266 -28 502 -30 641 -11 734 9 46
25 104 36 128 16 37 19 69 19 190 0 124 -4 159 -26 246 -20 76 -28 139 -33
245 l-6 142 -61 -49 c-34 -28 -64 -48 -66 -46 -2 3 -38 11 -79 19 -80 15 -116
28 -220 80 l-66 33 -10 -28z"/>
</g>
</svg>
