<?xml version="1.0" standalone="no"?>
<!DOCTYPE svg PUBLIC "-//W3C//DTD SVG 20010904//EN"
 "http://www.w3.org/TR/2001/REC-SVG-20010904/DTD/svg10.dtd">
<svg version="1.0" xmlns="http://www.w3.org/2000/svg"
 width="36.000000pt" height="102.000000pt" viewBox="0 0 36.000000 102.000000"
 preserveAspectRatio="xMidYMid meet">
<metadata>
Created by potrace 1.14, written by Peter Selinger 2001-2017
</metadata>
<g transform="translate(0.000000,102.000000) scale(0.100000,-0.100000)"
fill="#000000" stroke="none">
<path fill="#000000" stroke="none" d="M208 963 c-32 -55 -36 -58 -88 -68
l-55 -10 -17 -90 c-23 -123 -23 -134 3 -128 11 3 24 15 29 27 8 22 9 22 25
-29 2 -8 15 -15 29 -15 32 0 36 -15 36 -125 0 -91 -1 -95 -26 -108 -18 -10
-41 -11 -82 -6 -31 4 -58 6 -60 4 -3 -2 -2 -19 2 -38 6 -31 11 -35 49 -43 49
-11 47 -3 34 -200 l-7 -111 76 -7 c43 -4 90 -10 107 -13 l29 -6 -6 49 c-3 27
-8 93 -12 147 l-6 97 23 0 24 0 2 192 c1 186 2 192 24 209 20 15 21 21 14 80
-4 35 -6 90 -6 121 3 89 -28 128 -99 128 -4 0 -23 -26 -42 -57z"/>
<path fill="#ffffff" stroke="none" d="M292 880 c-30 -29 -40 -25 -12 5 13 14
26 23 28 20 3 -3 -4 -14 -16 -25z"/>
</g>
</svg>
