<?xml version="1.0" standalone="no"?>
<!DOCTYPE svg PUBLIC "-//W3C//DTD SVG 20010904//EN"
 "http://www.w3.org/TR/2001/REC-SVG-20010904/DTD/svg10.dtd">
<svg version="1.0" xmlns="http://www.w3.org/2000/svg"
 width="20.000000pt" height="55.000000pt" viewBox="0 0 20.000000 55.000000"
 preserveAspectRatio="xMidYMid meet">
<metadata>
Created by potrace 1.14, written by Peter Selinger 2001-2017
</metadata>
<g transform="translate(0.000000,55.000000) scale(0.100000,-0.100000)"
fill="#000000" stroke="none">
<path fill="#000000" stroke="none" d="M70 511 c0 -37 -3 -41 -32 -49 -38 -10
-36 8 -24 -220 6 -122 11 -165 22 -169 7 -2 18 -20 24 -39 10 -31 15 -34 49
-34 l38 0 7 53 c4 28 16 81 27 117 28 92 19 190 -23 244 -20 24 -32 54 -36 82
-2 24 -8 44 -12 44 -5 0 -15 3 -24 6 -13 5 -16 -2 -16 -35z"/>
</g>
</svg>
