<?xml version="1.0" standalone="no"?>
<!DOCTYPE svg PUBLIC "-//W3C//DTD SVG 20010904//EN"
 "http://www.w3.org/TR/2001/REC-SVG-20010904/DTD/svg10.dtd">
<svg version="1.0" xmlns="http://www.w3.org/2000/svg"
 width="81.000000pt" height="310.000000pt" viewBox="0 0 81.000000 310.000000"
 preserveAspectRatio="xMidYMid meet">
<metadata>
Created by potrace 1.14, written by Peter Selinger 2001-2017
</metadata>
<g transform="translate(0.000000,310.000000) scale(0.100000,-0.100000)"
fill="#000000" stroke="none">
<path fill="#000000" stroke="none" d="M29 3086 c8 -10 36 -28 62 -42 57 -28
57 -29 78 -113 21 -85 17 -110 -20 -124 l-29 -11 0 -152 0 -152 -60 -91 -60
-91 83 -60 c45 -33 140 -102 211 -152 l129 -93 48 -182 c26 -100 54 -194 62
-210 8 -15 18 -52 22 -82 4 -29 19 -99 34 -156 l27 -102 -53 -37 -53 -37 27
-39 c27 -37 29 -38 45 -22 10 10 22 39 27 66 12 66 38 85 112 86 73 0 82 -11
69 -80 -5 -29 -10 -67 -9 -84 l1 -31 13 30 c17 36 19 127 4 175 -5 19 -10 68
-9 109 0 72 -26 162 -65 226 -7 11 -16 38 -20 60 -4 21 -13 51 -20 65 -8 15
-11 43 -8 71 5 40 0 53 -40 119 -34 57 -57 118 -98 256 l-54 181 -140 72
c-198 101 -185 84 -152 184 25 76 26 92 20 178 -4 67 -13 107 -29 139 -12 25
-25 57 -29 72 -6 22 -17 30 -58 44 -29 9 -59 19 -67 22 -13 5 -13 4 -1 -12z"/>
<path fill="#000000" stroke="none" d="M416 402 c-3 -6 5 -17 19 -26 24 -16
24 -15 16 6 -9 24 -26 34 -35 20z"/>
<path fill="#000000" stroke="none" d="M797 135 c3 -22 7 -42 9 -44 8 -9 2 45
-6 64 -7 14 -8 8 -3 -20z"/>
</g>
</svg>
