<?xml version="1.0" standalone="no"?>
<!DOCTYPE svg PUBLIC "-//W3C//DTD SVG 20010904//EN"
 "http://www.w3.org/TR/2001/REC-SVG-20010904/DTD/svg10.dtd">
<svg version="1.0" xmlns="http://www.w3.org/2000/svg"
 width="42.000000pt" height="28.000000pt" viewBox="0 0 42.000000 28.000000"
 preserveAspectRatio="xMidYMid meet">
<metadata>
Created by potrace 1.14, written by Peter Selinger 2001-2017
</metadata>
<g transform="translate(0.000000,28.000000) scale(0.100000,-0.100000)"
fill="#000000" stroke="none">
<path fill="#000000" stroke="none" d="M300 270 l-65 -5 0 -58 c0 -40 -4 -57
-13 -57 -18 0 -197 -97 -212 -115 -9 -10 -7 -15 9 -20 28 -9 111 5 136 21 28
20 50 17 64 -9 11 -21 19 -22 107 -23 l95 -1 -3 71 -3 71 -38 18 -37 19 18 26
c11 16 16 35 13 47 -5 18 -12 20 -71 15z"/>
</g>
</svg>
