<?xml version="1.0" standalone="no"?>
<!DOCTYPE svg PUBLIC "-//W3C//DTD SVG 20010904//EN"
 "http://www.w3.org/TR/2001/REC-SVG-20010904/DTD/svg10.dtd">
<svg version="1.0" xmlns="http://www.w3.org/2000/svg"
 width="158.000000pt" height="354.000000pt" viewBox="0 0 158.000000 354.000000"
 preserveAspectRatio="xMidYMid meet">
<metadata>
Created by potrace 1.14, written by Peter Selinger 2001-2017
</metadata>
<g transform="translate(0.000000,354.000000) scale(0.100000,-0.100000)"
fill="#000000" stroke="none">
<path fill="#000000" stroke="none" d="M591 3510 c-46 -16 -90 -35 -96 -42
-14 -15 -75 -164 -75 -183 0 -6 9 -20 21 -31 16 -14 20 -28 18 -65 -4 -73 23
-123 80 -147 l46 -19 -67 -12 -66 -13 -46 -69 c-49 -74 -50 -84 -7 -123 17
-15 21 -31 21 -81 0 -78 -18 -139 -59 -199 -18 -25 -58 -102 -91 -170 -32 -68
-77 -148 -100 -178 -41 -50 -45 -53 -89 -53 -46 0 -46 0 -47 -35 -1 -19 -8
-48 -17 -64 -11 -21 -13 -35 -6 -48 13 -24 39 -23 39 2 0 11 5 20 10 20 6 0
10 7 10 16 0 15 9 16 69 11 l69 -6 58 82 c32 45 91 116 130 157 47 49 88 106
119 163 26 48 50 87 53 87 14 -1 110 -157 120 -195 6 -22 13 -69 17 -104 7
-58 5 -70 -23 -130 -25 -55 -33 -88 -43 -197 -10 -115 -10 -133 4 -155 9 -14
20 -69 27 -137 6 -62 15 -135 20 -164 16 -83 12 -299 -7 -386 -22 -100 -18
-166 14 -277 20 -69 27 -114 28 -190 0 -84 4 -107 24 -144 22 -43 22 -45 7
-107 -9 -35 -16 -85 -16 -111 0 -26 -5 -66 -10 -88 -9 -38 -8 -42 33 -82 22
-24 45 -43 50 -43 4 0 47 23 93 52 82 50 85 53 80 83 -8 38 -69 168 -95 201
-19 24 -19 26 -1 85 12 39 39 87 77 137 57 77 58 77 65 165 7 87 7 88 56 147
41 49 51 69 57 112 14 98 63 238 114 328 28 48 66 121 85 163 31 68 38 76 79
93 l45 18 -15 41 c-20 58 -11 80 40 94 35 10 48 20 67 56 l24 43 -52 71 c-47
65 -55 83 -87 209 -37 148 -110 363 -149 440 -29 58 -76 224 -76 272 0 32 -11
45 -111 139 -100 94 -117 106 -172 122 -43 12 -61 21 -57 30 2 8 4 58 4 112 0
53 2 97 5 97 3 0 15 -7 25 -15 28 -21 36 -19 36 11 0 21 -8 29 -39 41 -27 10
-44 25 -52 45 -11 26 -139 132 -172 143 -7 2 -50 -9 -96 -25z"/>
</g>
</svg>
