<?xml version="1.0" standalone="no"?>
<!DOCTYPE svg PUBLIC "-//W3C//DTD SVG 20010904//EN"
 "http://www.w3.org/TR/2001/REC-SVG-20010904/DTD/svg10.dtd">
<svg version="1.0" xmlns="http://www.w3.org/2000/svg"
 width="18.000000pt" height="23.000000pt" viewBox="0 0 18.000000 23.000000"
 preserveAspectRatio="xMidYMid meet">
<metadata>
Created by potrace 1.14, written by Peter Selinger 2001-2017
</metadata>
<g transform="translate(0.000000,23.000000) scale(0.100000,-0.100000)"
fill="#000000" stroke="none">
<path fill="#000000" stroke="none" d="M77 222 c-2 -4 -7 -20 -11 -36 -4 -17
-21 -47 -37 -68 -31 -39 -35 -73 -9 -73 8 0 23 14 35 31 11 18 26 40 33 50 12
18 13 18 6 -1 -12 -37 -17 -125 -6 -125 17 0 30 24 47 90 9 36 22 70 29 75 11
8 2 17 -35 37 -26 15 -50 24 -52 20z"/>
</g>
</svg>
