<?xml version="1.0" standalone="no"?>
<!DOCTYPE svg PUBLIC "-//W3C//DTD SVG 20010904//EN"
 "http://www.w3.org/TR/2001/REC-SVG-20010904/DTD/svg10.dtd">
<svg version="1.0" xmlns="http://www.w3.org/2000/svg"
 width="64.000000pt" height="137.000000pt" viewBox="0 0 64.000000 137.000000"
 preserveAspectRatio="xMidYMid meet">
<metadata>
Created by potrace 1.14, written by Peter Selinger 2001-2017
</metadata>
<g transform="translate(0.000000,137.000000) scale(0.100000,-0.100000)"
fill="#000000" stroke="none">
<path fill="#000000" stroke="none" d="M180 1360 c-46 -8 -96 -35 -104 -55
-12 -31 -6 -75 16 -119 21 -44 21 -46 3 -66 -10 -11 -36 -23 -57 -26 -42 -7
-45 -12 -24 -53 12 -23 20 -27 44 -23 23 3 33 -2 46 -19 28 -40 21 -81 -23
-123 l-38 -37 -7 -227 c-3 -125 -9 -309 -12 -408 l-7 -182 154 -6 c85 -4 184
-9 220 -12 l66 -6 -24 119 c-22 110 -23 126 -12 237 6 66 20 149 30 185 11 36
19 86 19 111 0 47 -33 254 -44 281 -10 24 69 42 146 33 l59 -7 -2 49 c-2 27 1
90 5 139 l8 91 -28 12 c-28 14 -43 5 -44 -26 0 -21 -30 -75 -58 -104 -29 -32
-51 -34 -149 -17 -58 10 -63 13 -50 28 8 9 19 38 25 65 9 43 8 56 -10 92 -11
24 -25 47 -31 52 -21 17 -81 28 -117 22z"/>
</g>
</svg>
