<?xml version="1.0" standalone="no"?>
<!DOCTYPE svg PUBLIC "-//W3C//DTD SVG 20010904//EN"
 "http://www.w3.org/TR/2001/REC-SVG-20010904/DTD/svg10.dtd">
<svg version="1.0" xmlns="http://www.w3.org/2000/svg"
 width="8.000000pt" height="13.000000pt" viewBox="0 0 8.000000 13.000000"
 preserveAspectRatio="xMidYMid meet">
<metadata>
Created by potrace 1.14, written by Peter Selinger 2001-2017
</metadata>
<g transform="translate(0.000000,13.000000) scale(0.100000,-0.100000)"
fill="#000000" stroke="none">
<path fill="#000000" stroke="none" d="M20 117 c-11 -9 -14 -24 -10 -59 7 -57
20 -74 20 -27 l1 34 14 -32 c19 -45 29 -41 22 7 -3 23 -1 38 4 34 5 -3 9 0 9
6 0 6 -7 13 -15 16 -8 4 -15 12 -15 20 0 17 -10 17 -30 1z"/>
</g>
</svg>
