<?xml version="1.0" standalone="no"?>
<!DOCTYPE svg PUBLIC "-//W3C//DTD SVG 20010904//EN"
 "http://www.w3.org/TR/2001/REC-SVG-20010904/DTD/svg10.dtd">
<svg version="1.0" xmlns="http://www.w3.org/2000/svg"
 width="96.000000pt" height="91.000000pt" viewBox="0 0 96.000000 91.000000"
 preserveAspectRatio="xMidYMid meet">
<metadata>
Created by potrace 1.14, written by Peter Selinger 2001-2017
</metadata>
<g transform="translate(0.000000,91.000000) scale(0.100000,-0.100000)"
fill="#000000" stroke="none">
<path fill="#000000" stroke="none" d="M480 900 c-91 -18 -167 -82 -263 -218
-22 -31 -54 -73 -72 -92 -18 -19 -55 -69 -83 -110 -63 -93 -70 -137 -52 -338
l13 -140 31 9 c37 11 113 92 157 169 18 30 67 105 111 165 l79 111 107 32 c88
26 138 34 279 43 l173 12 -19 29 c-10 16 -56 78 -103 137 -108 136 -197 202
-274 200 -27 -1 -65 -5 -84 -9z"/>
</g>
</svg>
