<?xml version="1.0" standalone="no"?>
<!DOCTYPE svg PUBLIC "-//W3C//DTD SVG 20010904//EN"
 "http://www.w3.org/TR/2001/REC-SVG-20010904/DTD/svg10.dtd">
<svg version="1.0" xmlns="http://www.w3.org/2000/svg"
 width="42.000000pt" height="109.000000pt" viewBox="0 0 42.000000 109.000000"
 preserveAspectRatio="xMidYMid meet">
<metadata>
Created by potrace 1.14, written by Peter Selinger 2001-2017
</metadata>
<g transform="translate(0.000000,109.000000) scale(0.100000,-0.100000)"
fill="#000000" stroke="none">
<path fill="#000000" stroke="none" d="M225 1076 c-49 -21 -61 -42 -47 -80 17
-46 16 -48 -23 -75 -60 -41 -94 -107 -111 -217 -8 -53 -22 -110 -32 -126 -17
-29 -17 -30 17 -91 l34 -62 8 -205 c4 -113 7 -206 8 -207 1 -2 23 -3 50 -3
l48 0 6 83 c4 45 7 112 7 150 0 65 1 67 25 67 21 0 24 -4 20 -27 -3 -16 -12
-82 -21 -148 -9 -66 -18 -123 -20 -127 -4 -6 98 0 123 7 6 2 9 12 7 23 -3 10
4 43 15 73 25 65 26 82 5 239 l-16 122 44 56 44 57 -22 95 c-12 52 -31 117
-43 143 -26 60 -26 73 0 141 19 51 19 57 4 80 -15 22 -62 47 -89 46 -6 -1 -25
-7 -41 -14z"/>
</g>
</svg>
