<?xml version="1.0" standalone="no"?>
<!DOCTYPE svg PUBLIC "-//W3C//DTD SVG 20010904//EN"
 "http://www.w3.org/TR/2001/REC-SVG-20010904/DTD/svg10.dtd">
<svg version="1.0" xmlns="http://www.w3.org/2000/svg"
 width="42.000000pt" height="177.000000pt" viewBox="0 0 42.000000 177.000000"
 preserveAspectRatio="xMidYMid meet">
<metadata>
Created by potrace 1.14, written by Peter Selinger 2001-2017
</metadata>
<g transform="translate(0.000000,177.000000) scale(0.100000,-0.100000)"
fill="#000000" stroke="none">
<path fill="#000000" stroke="none" d="M174 1756 c-29 -13 -52 -47 -68 -103
-9 -28 15 -77 62 -125 l36 -38 3 -194 4 -194 -58 -41 c-32 -23 -70 -44 -85
-48 -35 -7 -71 -62 -66 -100 4 -36 37 -41 104 -15 27 11 67 23 90 26 l41 7 14
-48 c15 -51 16 -290 3 -600 l-6 -152 -48 -31 c-26 -17 -50 -40 -53 -51 -12
-45 120 -63 180 -24 l24 16 -7 296 -7 296 41 -6 42 -5 0 534 0 534 -32 0 c-22
0 -42 9 -63 29 -28 26 -82 52 -109 51 -6 -1 -25 -7 -42 -14z"/>
</g>
</svg>
