<?xml version="1.0" standalone="no"?>
<!DOCTYPE svg PUBLIC "-//W3C//DTD SVG 20010904//EN"
 "http://www.w3.org/TR/2001/REC-SVG-20010904/DTD/svg10.dtd">
<svg version="1.0" xmlns="http://www.w3.org/2000/svg"
 width="37.000000pt" height="34.000000pt" viewBox="0 0 37.000000 34.000000"
 preserveAspectRatio="xMidYMid meet">
<metadata>
Created by potrace 1.14, written by Peter Selinger 2001-2017
</metadata>
<g transform="translate(0.000000,34.000000) scale(0.100000,-0.100000)"
fill="#000000" stroke="none">
<path fill="#000000" stroke="none" d="M195 328 c-11 -6 -23 -16 -27 -22 -13
-19 -9 -91 7 -113 13 -19 13 -22 -1 -27 -9 -3 -29 -6 -45 -6 -31 0 -109 -34
-121 -54 -15 -22 -8 -73 12 -91 20 -18 47 -17 105 3 17 6 57 17 90 24 65 13
91 33 101 75 4 16 18 38 31 50 29 28 29 58 0 86 -96 90 -112 98 -152 75z"/>
</g>
</svg>
