<?xml version="1.0" standalone="no"?>
<!DOCTYPE svg PUBLIC "-//W3C//DTD SVG 20010904//EN"
 "http://www.w3.org/TR/2001/REC-SVG-20010904/DTD/svg10.dtd">
<svg version="1.0" xmlns="http://www.w3.org/2000/svg"
 width="12.000000pt" height="54.000000pt" viewBox="0 0 12.000000 54.000000"
 preserveAspectRatio="xMidYMid meet">
<metadata>
Created by potrace 1.14, written by Peter Selinger 2001-2017
</metadata>
<g transform="translate(0.000000,54.000000) scale(0.100000,-0.100000)"
fill="#000000" stroke="none">
<path fill="#000000" stroke="none" d="M36 525 c-21 -22 -20 -41 3 -71 18 -24
19 -27 4 -62 -12 -27 -18 -80 -21 -195 -2 -86 -8 -157 -13 -157 -5 0 -9 -9 -9
-20 0 -18 7 -20 55 -20 l56 0 -7 129 c-5 92 -4 130 5 135 20 13 14 171 -8 215
-28 54 -45 66 -65 46z"/>
</g>
</svg>
