<?xml version="1.0" standalone="no"?>
<!DOCTYPE svg PUBLIC "-//W3C//DTD SVG 20010904//EN"
 "http://www.w3.org/TR/2001/REC-SVG-20010904/DTD/svg10.dtd">
<svg version="1.0" xmlns="http://www.w3.org/2000/svg"
 width="179.000000pt" height="321.000000pt" viewBox="0 0 179.000000 321.000000"
 preserveAspectRatio="xMidYMid meet">
<metadata>
Created by potrace 1.14, written by Peter Selinger 2001-2017
</metadata>
<g transform="translate(0.000000,321.000000) scale(0.100000,-0.100000)"
fill="#000000" stroke="none">
<path fill="#000000" stroke="none" d="M1165 3172 l-110 -34 -41 -157 -40
-156 -181 -65 -180 -65 -156 -150 -155 -150 -16 -210 c-9 -115 -19 -229 -22
-251 -5 -39 -3 -43 32 -63 20 -12 44 -19 53 -16 9 2 54 42 99 88 l83 83 6 73
6 72 60 41 c33 23 58 35 55 27 -3 -8 -35 -115 -71 -239 -46 -154 -90 -341
-142 -595 -42 -203 -78 -377 -81 -386 -3 -13 22 -32 106 -79 79 -43 109 -65
102 -73 -5 -7 -91 -119 -190 -250 -166 -217 -181 -239 -172 -263 9 -24 5 -28
-100 -96 l-110 -71 118 -93 c64 -51 119 -93 122 -93 3 -1 54 87 113 193 l108
194 202 172 c197 167 205 174 275 284 66 102 78 115 127 139 52 25 55 29 55
63 0 61 175 581 308 916 69 175 126 317 126 315 1 -1 -3 -123 -7 -270 -5 -147
-8 -270 -6 -272 4 -3 203 -24 205 -21 1 0 10 159 20 351 20 350 20 350 -1 475
l-20 125 -127 35 c-99 27 -127 38 -124 50 3 8 10 79 17 156 l12 142 -39 49
c-34 44 -48 52 -124 79 l-85 30 -110 -34z"/>
</g>
</svg>
