<?xml version="1.0" standalone="no"?>
<!DOCTYPE svg PUBLIC "-//W3C//DTD SVG 20010904//EN"
 "http://www.w3.org/TR/2001/REC-SVG-20010904/DTD/svg10.dtd">
<svg version="1.0" xmlns="http://www.w3.org/2000/svg"
 width="78.000000pt" height="82.000000pt" viewBox="0 0 78.000000 82.000000"
 preserveAspectRatio="xMidYMid meet">
<metadata>
Created by potrace 1.14, written by Peter Selinger 2001-2017
</metadata>
<g transform="translate(0.000000,82.000000) scale(0.100000,-0.100000)"
fill="#000000" stroke="none">
<path fill="#000000" stroke="none" d="M505 798 c-75 -19 -90 -19 -250 -8 -93
6 -189 14 -212 17 l-43 6 0 -52 c0 -50 7 -63 187 -350 183 -291 189 -300 243
-330 30 -17 74 -42 97 -56 l42 -26 -29 63 c-21 46 -32 91 -41 166 -6 57 -9
106 -5 109 9 10 78 -68 97 -112 10 -22 19 -59 19 -81 0 -36 5 -46 34 -68 67
-51 136 -24 136 52 0 16 -47 141 -105 277 l-104 248 24 19 c16 12 25 30 25 46
0 35 -19 102 -28 101 -4 0 -43 -10 -87 -21z"/>
</g>
</svg>
