<?xml version="1.0" standalone="no"?>
<!DOCTYPE svg PUBLIC "-//W3C//DTD SVG 20010904//EN"
 "http://www.w3.org/TR/2001/REC-SVG-20010904/DTD/svg10.dtd">
<svg version="1.0" xmlns="http://www.w3.org/2000/svg"
 width="18.000000pt" height="48.000000pt" viewBox="0 0 18.000000 48.000000"
 preserveAspectRatio="xMidYMid meet">
<metadata>
Created by potrace 1.14, written by Peter Selinger 2001-2017
</metadata>
<g transform="translate(0.000000,48.000000) scale(0.100000,-0.100000)"
fill="#000000" stroke="none">
<path fill="#000000" stroke="none" d="M107 473 c-4 -3 -7 -14 -7 -24 0 -10
-9 -20 -19 -24 -44 -14 -68 -52 -74 -122 -6 -56 -3 -71 14 -99 16 -27 19 -45
16 -101 -5 -78 4 -103 37 -103 19 0 22 4 19 23 -4 21 20 186 33 230 3 10 15
17 30 17 31 0 31 25 0 45 -31 21 -39 60 -15 81 25 23 33 52 19 69 -13 16 -42
20 -53 8z"/>
</g>
</svg>
