<?xml version="1.0" standalone="no"?>
<!DOCTYPE svg PUBLIC "-//W3C//DTD SVG 20010904//EN"
 "http://www.w3.org/TR/2001/REC-SVG-20010904/DTD/svg10.dtd">
<svg version="1.0" xmlns="http://www.w3.org/2000/svg"
 width="455.000000pt" height="353.000000pt" viewBox="0 0 455.000000 353.000000"
 preserveAspectRatio="xMidYMid meet">
<metadata>
Created by potrace 1.14, written by Peter Selinger 2001-2017
</metadata>
<g transform="translate(0.000000,353.000000) scale(0.100000,-0.100000)"
fill="#000000" stroke="none">
<path fill="#000000" stroke="none" d="M2520 3504 c-86 -27 -75 -15 -232 -277
-79 -132 -124 -229 -141 -307 -4 -18 -24 -35 -67 -58 -35 -20 -81 -57 -111
-92 l-51 -58 -204 -7 -203 -7 -31 -87 c-54 -152 -27 -130 -305 -263 -138 -66
-342 -162 -455 -215 -173 -80 -213 -103 -258 -146 -84 -81 -208 -228 -340
-400 l-120 -159 4 -146 c2 -81 7 -403 10 -716 l6 -569 82 7 c44 3 111 6 149 6
l67 0 27 44 c25 41 36 48 152 98 l126 54 112 228 c68 137 123 236 138 248 36
28 31 56 -20 118 -25 30 -45 60 -45 66 0 10 126 353 132 359 2 2 68 -44 148
-101 172 -125 285 -194 508 -313 l167 -89 230 -22 c181 -17 245 -27 303 -47
69 -25 75 -29 122 -96 58 -82 60 -100 25 -193 l-25 -67 26 -40 26 -39 248 7
248 7 194 -89 c106 -50 201 -93 211 -97 10 -3 103 8 205 24 191 32 253 51 324
103 l38 27 -7 148 c-5 127 -4 149 10 160 12 11 15 25 10 65 -10 85 -79 174
-301 392 -170 166 -255 261 -366 407 l-28 37 53 88 c44 72 54 97 57 145 l4 57
-75 37 -75 38 -4 45 c-3 25 -4 47 -3 49 17 25 328 -215 755 -582 l355 -305 35
33 c19 19 48 37 65 40 16 4 51 23 77 43 l48 35 -34 46 c-18 26 -96 134 -173
239 -130 180 -150 202 -297 335 -150 135 -165 152 -307 350 -98 135 -166 241
-195 302 l-44 94 -84 7 c-75 6 -87 10 -112 36 -25 26 -26 31 -17 77 7 35 6 58
-3 83 -16 44 -17 95 -2 158 13 56 5 89 -74 326 l-40 121 -90 62 -90 62 -161
-8 c-154 -8 -163 -8 -179 11 -10 10 -18 30 -18 42 0 32 -10 55 -24 54 -6 0
-45 -11 -86 -25z"/>
</g>
</svg>
