<?xml version="1.0" standalone="no"?>
<!DOCTYPE svg PUBLIC "-//W3C//DTD SVG 20010904//EN"
 "http://www.w3.org/TR/2001/REC-SVG-20010904/DTD/svg10.dtd">
<svg version="1.0" xmlns="http://www.w3.org/2000/svg"
 width="22.000000pt" height="48.000000pt" viewBox="0 0 22.000000 48.000000"
 preserveAspectRatio="xMidYMid meet">
<metadata>
Created by potrace 1.14, written by Peter Selinger 2001-2017
</metadata>
<g transform="translate(0.000000,48.000000) scale(0.100000,-0.100000)"
fill="#000000" stroke="none">
<path fill="#000000" stroke="none" d="M60 439 c0 -24 -8 -52 -18 -67 -33 -47
-41 -85 -26 -114 8 -15 25 -57 39 -95 19 -53 22 -76 16 -105 -5 -20 -6 -39 -3
-42 10 -11 40 -6 52 9 17 20 27 19 33 -4 7 -27 41 -17 56 15 16 36 14 109 -6
152 -9 21 -17 68 -18 111 -2 60 -7 84 -31 127 -26 48 -32 54 -61 54 -32 0 -33
-1 -33 -41z"/>
</g>
</svg>
