<?xml version="1.0" standalone="no"?>
<!DOCTYPE svg PUBLIC "-//W3C//DTD SVG 20010904//EN"
 "http://www.w3.org/TR/2001/REC-SVG-20010904/DTD/svg10.dtd">
<svg version="1.0" xmlns="http://www.w3.org/2000/svg"
 width="22.000000pt" height="37.000000pt" viewBox="0 0 22.000000 37.000000"
 preserveAspectRatio="xMidYMid meet">
<metadata>
Created by potrace 1.14, written by Peter Selinger 2001-2017
</metadata>
<g transform="translate(0.000000,37.000000) scale(0.100000,-0.100000)"
fill="#000000" stroke="none">
<path fill="#000000" stroke="none" d="M75 358 c-11 -6 -23 -16 -27 -22 -12
-17 -9 -101 3 -113 8 -8 5 -14 -12 -24 -34 -18 -37 -25 -37 -100 0 -93 13
-104 110 -96 96 8 113 26 104 108 -4 31 -15 79 -25 107 -10 27 -16 62 -14 75
4 19 -2 33 -20 51 -28 28 -51 32 -82 14z"/>
</g>
</svg>
