<?xml version="1.0" standalone="no"?>
<!DOCTYPE svg PUBLIC "-//W3C//DTD SVG 20010904//EN"
 "http://www.w3.org/TR/2001/REC-SVG-20010904/DTD/svg10.dtd">
<svg version="1.0" xmlns="http://www.w3.org/2000/svg"
 width="86.000000pt" height="277.000000pt" viewBox="0 0 86.000000 277.000000"
 preserveAspectRatio="xMidYMid meet">
<metadata>
Created by potrace 1.14, written by Peter Selinger 2001-2017
</metadata>
<g transform="translate(0.000000,277.000000) scale(0.100000,-0.100000)"
fill="#000000" stroke="none">
<path fill="#000000" stroke="none" d="M182 2578 c-43 -157 -52 -208 -52 -272
0 -65 -11 -120 -67 -330 l-66 -251 25 -125 c18 -89 56 -207 129 -408 l104
-282 106 -70 105 -70 -37 -218 c-20 -119 -43 -275 -49 -345 l-13 -129 41 -41
41 -40 168 29 168 30 36 54 37 55 -82 25 c-48 15 -82 32 -84 40 -1 8 11 169
27 358 l29 343 -90 187 c-50 103 -99 206 -109 229 l-18 43 149 -100 148 -99
-19 67 c-11 37 -35 125 -55 195 -34 122 -41 138 -156 329 l-122 200 47 211
c39 177 47 229 47 315 l0 103 -165 80 c-90 43 -166 79 -167 79 -2 0 -27 -87
-56 -192z"/>
</g>
</svg>
