<?xml version="1.0" standalone="no"?>
<!DOCTYPE svg PUBLIC "-//W3C//DTD SVG 20010904//EN"
 "http://www.w3.org/TR/2001/REC-SVG-20010904/DTD/svg10.dtd">
<svg version="1.0" xmlns="http://www.w3.org/2000/svg"
 width="45.000000pt" height="57.000000pt" viewBox="0 0 45.000000 57.000000"
 preserveAspectRatio="xMidYMid meet">
<metadata>
Created by potrace 1.14, written by Peter Selinger 2001-2017
</metadata>
<g transform="translate(0.000000,57.000000) scale(0.100000,-0.100000)"
fill="#000000" stroke="none">
<path fill="#000000" stroke="none" d="M218 515 c-23 -30 -47 -71 -53 -92 -9
-32 -16 -39 -50 -48 -74 -19 -115 -65 -115 -131 l0 -41 52 5 c69 7 78 -6 78
-118 l0 -86 133 16 132 15 3 75 c2 53 7 78 18 86 8 7 19 26 24 44 12 40 -18
108 -63 146 -30 25 -31 30 -29 85 3 57 2 59 -30 79 -18 11 -38 20 -45 20 -6 0
-31 -25 -55 -55z"/>
</g>
</svg>
