<?xml version="1.0" standalone="no"?>
<!DOCTYPE svg PUBLIC "-//W3C//DTD SVG 20010904//EN"
 "http://www.w3.org/TR/2001/REC-SVG-20010904/DTD/svg10.dtd">
<svg version="1.0" xmlns="http://www.w3.org/2000/svg"
 width="16.000000pt" height="47.000000pt" viewBox="0 0 16.000000 47.000000"
 preserveAspectRatio="xMidYMid meet">
<metadata>
Created by potrace 1.14, written by Peter Selinger 2001-2017
</metadata>
<g transform="translate(0.000000,47.000000) scale(0.100000,-0.100000)"
fill="#000000" stroke="none">
<path fill="#000000" stroke="none" d="M50 456 c-6 -8 -10 -33 -9 -55 2 -28
-2 -46 -16 -61 -15 -17 -19 -41 -23 -133 -4 -104 -3 -113 17 -131 12 -11 21
-31 21 -48 0 -32 9 -32 80 1 l35 16 3 145 c1 80 0 155 -3 167 -3 12 -18 29
-33 37 -15 9 -21 15 -14 16 20 0 14 28 -10 44 -28 20 -32 20 -48 2z"/>
</g>
</svg>
