<?xml version="1.0" standalone="no"?>
<!DOCTYPE svg PUBLIC "-//W3C//DTD SVG 20010904//EN"
 "http://www.w3.org/TR/2001/REC-SVG-20010904/DTD/svg10.dtd">
<svg version="1.0" xmlns="http://www.w3.org/2000/svg"
 width="24.000000pt" height="40.000000pt" viewBox="0 0 24.000000 40.000000"
 preserveAspectRatio="xMidYMid meet">
<metadata>
Created by potrace 1.14, written by Peter Selinger 2001-2017
</metadata>
<g transform="translate(0.000000,40.000000) scale(0.100000,-0.100000)"
fill="#000000" stroke="none">
<path fill="#000000" stroke="none" d="M191 363 c-14 -29 -18 -51 -14 -85 7
-60 -11 -134 -43 -175 -22 -29 -31 -33 -69 -33 -34 0 -47 -5 -55 -19 -11 -22
-6 -24 65 -35 22 -4 52 -9 68 -12 25 -5 27 -3 27 26 0 18 9 49 19 69 43 79 65
258 36 287 -12 13 -17 10 -34 -23z"/>
</g>
</svg>
