<?xml version="1.0" standalone="no"?>
<!DOCTYPE svg PUBLIC "-//W3C//DTD SVG 20010904//EN"
 "http://www.w3.org/TR/2001/REC-SVG-20010904/DTD/svg10.dtd">
<svg version="1.0" xmlns="http://www.w3.org/2000/svg"
 width="220.000000pt" height="169.000000pt" viewBox="0 0 220.000000 169.000000"
 preserveAspectRatio="xMidYMid meet">
<metadata>
Created by potrace 1.14, written by Peter Selinger 2001-2017
</metadata>
<g transform="translate(0.000000,169.000000) scale(0.100000,-0.100000)"
fill="#000000" stroke="none">
<path fill="#000000" stroke="none" d="M1322 1663 c-6 -16 -33 -92 -60 -170
-28 -78 -60 -160 -72 -182 -20 -40 -22 -41 -73 -42 -98 -1 -157 -20 -239 -79
-71 -50 -79 -59 -93 -108 -17 -56 -73 -145 -87 -136 -4 3 -8 16 -8 29 0 60
-199 91 -271 42 -57 -38 -79 -81 -79 -153 0 -54 3 -64 21 -69 15 -5 17 -10 9
-20 -15 -18 -1 -25 64 -32 36 -4 69 0 100 10 25 9 46 14 46 13 0 -2 -6 -19
-14 -37 -7 -19 -19 -64 -26 -102 l-12 -67 -99 -56 c-54 -31 -130 -84 -168
-117 -49 -45 -88 -69 -137 -88 -64 -24 -71 -30 -98 -79 -32 -58 -27 -69 29
-70 17 0 39 -3 51 -6 18 -5 23 1 34 40 10 37 22 51 64 80 30 21 69 38 96 42
52 7 108 41 270 165 95 72 128 91 188 109 l72 21 60 -46 59 -45 182 -10 c101
-6 183 -11 184 -13 7 -16 63 -87 80 -102 12 -11 31 -48 43 -81 l20 -62 -93
-42 c-51 -23 -106 -55 -121 -71 -27 -28 -28 -31 -15 -76 6 -26 13 -49 15 -50
2 -2 61 15 132 38 144 45 250 102 447 240 5 3 -6 35 -24 70 l-32 64 2 148 2
148 53 108 c29 60 61 141 71 180 l17 72 77 39 c87 44 199 123 208 147 4 10 -3
25 -21 40 -44 37 -128 33 -242 -14 l-92 -37 -6 -50 c-4 -40 -18 -69 -62 -133
-32 -46 -61 -83 -66 -83 -22 0 -87 42 -123 80 -22 23 -58 51 -80 62 -37 20
-45 20 -135 9 -81 -11 -104 -18 -155 -50 -61 -37 -61 -37 -105 -23 -25 8 -47
16 -49 19 -3 2 10 18 27 36 28 29 43 35 115 46 78 13 84 16 135 64 l52 51 0
71 c0 40 9 100 20 140 11 38 20 87 20 107 0 33 -5 41 -44 68 -25 16 -47 30
-49 30 -3 0 -10 -12 -15 -27z"/>
</g>
</svg>
