<?xml version="1.0" standalone="no"?>
<!DOCTYPE svg PUBLIC "-//W3C//DTD SVG 20010904//EN"
 "http://www.w3.org/TR/2001/REC-SVG-20010904/DTD/svg10.dtd">
<svg version="1.0" xmlns="http://www.w3.org/2000/svg"
 width="113.000000pt" height="130.000000pt" viewBox="0 0 113.000000 130.000000"
 preserveAspectRatio="xMidYMid meet">
<metadata>
Created by potrace 1.14, written by Peter Selinger 2001-2017
</metadata>
<g transform="translate(0.000000,130.000000) scale(0.100000,-0.100000)"
fill="#000000" stroke="none">
<path fill="#000000" stroke="none" d="M21 1291 l-24 -6 28 -35 c16 -19 58
-65 93 -102 l65 -66 67 -284 c63 -271 68 -288 114 -363 l48 -80 -6 -125 c-4
-69 -9 -144 -12 -166 l-6 -42 84 -12 85 -13 69 47 c49 32 133 114 287 278
l217 232 -27 28 c-15 16 -54 36 -92 49 -36 12 -128 50 -204 85 -125 57 -241
94 -254 81 -3 -3 -9 -43 -14 -89 -5 -45 -13 -86 -17 -89 -4 -4 -25 -10 -47
-13 l-40 -6 -131 322 c-124 308 -132 324 -170 350 -39 27 -67 32 -113 19z"/>
</g>
</svg>
