<?xml version="1.0" standalone="no"?>
<!DOCTYPE svg PUBLIC "-//W3C//DTD SVG 20010904//EN"
 "http://www.w3.org/TR/2001/REC-SVG-20010904/DTD/svg10.dtd">
<svg version="1.0" xmlns="http://www.w3.org/2000/svg"
 width="24.000000pt" height="30.000000pt" viewBox="0 0 24.000000 30.000000"
 preserveAspectRatio="xMidYMid meet">
<metadata>
Created by potrace 1.14, written by Peter Selinger 2001-2017
</metadata>
<g transform="translate(0.000000,30.000000) scale(0.100000,-0.100000)"
fill="#000000" stroke="none">
<path fill="#000000" stroke="none" d="M195 291 c-29 -6 -30 -8 -31 -66 -4
-126 -4 -130 -13 -116 -5 7 -6 31 -4 52 3 21 2 58 -1 82 l-7 45 -34 -11 -35
-10 6 -81 c6 -74 4 -83 -15 -104 -12 -12 -28 -22 -36 -22 -20 0 -30 -21 -14
-31 8 -5 33 -9 56 -9 23 0 45 -4 48 -10 7 -11 54 -13 79 -4 9 3 16 18 16 33 0
14 7 62 15 106 16 88 19 156 8 154 -5 -1 -21 -4 -38 -8z"/>
</g>
</svg>
