<?xml version="1.0" standalone="no"?>
<!DOCTYPE svg PUBLIC "-//W3C//DTD SVG 20010904//EN"
 "http://www.w3.org/TR/2001/REC-SVG-20010904/DTD/svg10.dtd">
<svg version="1.0" xmlns="http://www.w3.org/2000/svg"
 width="200.000000pt" height="626.000000pt" viewBox="0 0 200.000000 626.000000"
 preserveAspectRatio="xMidYMid meet">
<metadata>
Created by potrace 1.14, written by Peter Selinger 2001-2017
</metadata>
<g transform="translate(0.000000,626.000000) scale(0.100000,-0.100000)"
fill="#000000" stroke="none">
<path fill="#000000" stroke="none" d="M825 6207 c-132 -27 -242 -52 -244 -53
-2 -2 -16 -74 -31 -161 -27 -152 -28 -167 -21 -364 l7 -206 63 -71 63 -71 51
5 c29 3 66 7 84 9 l31 3 -74 -179 c-49 -122 -124 -272 -228 -463 l-155 -283
-21 -172 c-11 -95 -20 -177 -20 -182 0 -5 16 -17 35 -26 19 -9 35 -23 35 -31
0 -7 -26 -90 -57 -183 -54 -162 -57 -169 -83 -169 -25 0 -29 -6 -48 -72 -11
-40 -28 -103 -36 -139 -11 -50 -34 -97 -95 -194 -45 -71 -79 -130 -77 -132 2
-2 17 -8 34 -12 22 -7 32 -6 35 4 3 7 37 20 76 30 64 15 72 16 93 1 12 -9 41
-16 64 -16 77 0 74 8 74 -187 0 -158 2 -176 19 -191 15 -14 28 -75 65 -302 25
-157 46 -288 46 -292 0 -4 -7 -5 -16 -1 -12 5 -15 2 -11 -13 8 -24 144 -655
163 -754 13 -65 20 -80 55 -116 l41 -42 -7 -123 c-3 -68 -8 -158 -9 -200 l-2
-75 -145 -175 c-158 -189 -257 -342 -237 -366 28 -34 44 -33 194 10 82 24 238
76 348 116 189 70 201 73 238 62 29 -9 38 -16 34 -29 -3 -9 -10 -51 -16 -92
-6 -41 -26 -127 -44 -190 -19 -63 -33 -116 -32 -117 1 -1 68 2 149 6 l148 7
105 105 105 106 35 264 35 264 -7 456 c-8 559 3 797 52 1124 31 204 39 240 74
320 23 53 56 162 81 265 23 96 45 179 50 184 5 6 9 38 9 72 0 55 -2 62 -18 57
-16 -4 -20 14 -39 189 l-21 193 59 55 58 55 15 145 c9 80 23 247 32 371 l16
227 -123 273 c-101 223 -136 290 -188 359 -35 47 -67 88 -70 93 -4 4 -44 14
-90 22 l-83 14 -99 87 c-54 47 -99 91 -99 97 0 6 38 76 85 155 l86 145 -7 131
-7 130 -61 89 c-55 80 -70 94 -148 143 -48 30 -98 54 -110 53 -13 0 -131 -24
-263 -52z"/>
</g>
</svg>
