<?xml version="1.0" standalone="no"?>
<!DOCTYPE svg PUBLIC "-//W3C//DTD SVG 20010904//EN"
 "http://www.w3.org/TR/2001/REC-SVG-20010904/DTD/svg10.dtd">
<svg version="1.0" xmlns="http://www.w3.org/2000/svg"
 width="362.000000pt" height="524.000000pt" viewBox="0 0 362.000000 524.000000"
 preserveAspectRatio="xMidYMid meet">
<metadata>
Created by potrace 1.14, written by Peter Selinger 2001-2017
</metadata>
<g transform="translate(0.000000,524.000000) scale(0.100000,-0.100000)"
fill="#000000" stroke="none">
<path fill="#000000" stroke="none" d="M2430 5193 c-180 -27 -297 -48 -302
-56 -4 -6 -65 -97 -135 -200 l-129 -188 -28 -324 -28 -325 42 -76 c23 -42 39
-78 37 -81 -3 -2 -144 -46 -314 -97 -242 -73 -332 -105 -419 -149 -60 -30
-116 -63 -124 -72 -11 -14 -8 -33 22 -133 19 -64 47 -143 62 -175 l26 -59 -70
4 c-56 2 -70 0 -73 -12 -1 -8 -22 39 -45 105 -23 66 -46 128 -50 137 -6 15
-46 -17 -227 -176 l-220 -194 -228 -335 c-125 -184 -227 -337 -227 -340 0 -3
36 -26 80 -52 70 -41 86 -47 119 -41 l38 6 7 -61 c4 -33 2 -113 -4 -177 -11
-108 -10 -120 8 -162 11 -26 45 -69 80 -103 58 -54 63 -57 113 -57 50 0 59 5
270 144 120 80 215 138 212 130 -4 -10 3 -14 22 -14 35 0 39 10 -96 -232 -60
-109 -128 -242 -150 -296 l-42 -97 -8 -284 -8 -283 114 -420 c63 -231 117
-423 120 -427 16 -16 1061 -19 1875 -5 475 8 865 16 866 17 1 1 -126 171 -282
377 -215 283 -340 437 -512 629 -125 140 -240 269 -255 287 l-28 33 9 228 8
229 101 129 c109 141 311 469 438 711 l79 151 105 7 c57 3 106 8 108 10 2 2 0
183 -5 402 l-8 399 -78 150 c-46 90 -98 174 -129 209 l-51 59 34 26 c19 14 45
35 58 46 l24 21 -22 102 c-12 57 -21 105 -19 107 2 1 94 31 204 65 110 34 201
63 203 65 2 1 -60 47 -138 101 l-141 99 -65 199 c-35 110 -66 201 -67 203 -2
1 -106 38 -233 81 l-229 79 -295 -44z"/>
<path fill="#ffffff" stroke="none" d="M1521 2335 c31 -28 37 -41 41 -80 3
-48 3 -48 -48 -82 -34 -23 -71 -37 -114 -44 -66 -10 -79 -5 -80 31 0 9 -4 20
-9 25 -5 6 -11 51 -15 102 l-6 92 58 16 c31 9 62 17 67 19 10 3 38 -18 106
-79z"/>
</g>
</svg>
