<?xml version="1.0" standalone="no"?>
<!DOCTYPE svg PUBLIC "-//W3C//DTD SVG 20010904//EN"
 "http://www.w3.org/TR/2001/REC-SVG-20010904/DTD/svg10.dtd">
<svg version="1.0" xmlns="http://www.w3.org/2000/svg"
 width="64.000000pt" height="104.000000pt" viewBox="0 0 64.000000 104.000000"
 preserveAspectRatio="xMidYMid meet">
<metadata>
Created by potrace 1.14, written by Peter Selinger 2001-2017
</metadata>
<g transform="translate(0.000000,104.000000) scale(0.100000,-0.100000)"
fill="#000000" stroke="none">
<path fill="#000000" stroke="none" d="M138 903 l-27 -136 -55 -56 c-55 -55
-56 -58 -56 -113 0 -52 2 -56 30 -68 36 -15 36 -18 14 -172 -16 -113 -13 -303
5 -321 21 -21 136 -35 284 -35 168 0 205 5 220 30 8 11 1 23 -29 51 -21 20
-49 37 -61 37 -29 0 -63 64 -63 120 0 54 23 53 57 -4 26 -43 27 -43 77 -42 28
0 63 -3 79 -7 27 -7 27 -7 27 43 0 43 -5 58 -32 92 -18 22 -50 47 -70 55 -40
16 -44 23 -28 52 6 12 4 49 -6 112 -13 79 -20 98 -43 119 -64 59 -71 78 -71
207 l0 118 -93 28 c-139 41 -128 49 -159 -110z"/>
</g>
</svg>
