<?xml version="1.0" standalone="no"?>
<!DOCTYPE svg PUBLIC "-//W3C//DTD SVG 20010904//EN"
 "http://www.w3.org/TR/2001/REC-SVG-20010904/DTD/svg10.dtd">
<svg version="1.0" xmlns="http://www.w3.org/2000/svg"
 width="18.000000pt" height="25.000000pt" viewBox="0 0 18.000000 25.000000"
 preserveAspectRatio="xMidYMid meet">
<metadata>
Created by potrace 1.14, written by Peter Selinger 2001-2017
</metadata>
<g transform="translate(0.000000,25.000000) scale(0.100000,-0.100000)"
fill="#000000" stroke="none">
<path fill="#000000" stroke="none" d="M28 243 c-10 -2 -18 -10 -18 -16 -1 -7
-3 -56 -6 -109 -5 -91 -4 -97 16 -108 16 -8 35 -8 76 1 81 18 86 24 78 93 -6
47 -11 60 -30 68 -14 7 -25 23 -29 44 -5 31 -9 34 -38 33 -18 -1 -40 -3 -49
-6z"/>
</g>
</svg>
