<?xml version="1.0" standalone="no"?>
<!DOCTYPE svg PUBLIC "-//W3C//DTD SVG 20010904//EN"
 "http://www.w3.org/TR/2001/REC-SVG-20010904/DTD/svg10.dtd">
<svg version="1.0" xmlns="http://www.w3.org/2000/svg"
 width="64.000000pt" height="170.000000pt" viewBox="0 0 64.000000 170.000000"
 preserveAspectRatio="xMidYMid meet">
<metadata>
Created by potrace 1.14, written by Peter Selinger 2001-2017
</metadata>
<g transform="translate(0.000000,170.000000) scale(0.100000,-0.100000)"
fill="#000000" stroke="none">
<path fill="#000000" stroke="none" d="M72 1630 l-59 -73 -7 -149 c-5 -111 -4
-157 5 -178 13 -28 13 -28 85 -23 63 5 81 2 139 -21 80 -32 103 -56 155 -161
33 -68 41 -95 50 -183 16 -166 24 -586 12 -684 -6 -47 -8 -102 -5 -122 5 -35
7 -36 48 -36 109 0 123 16 83 97 l-22 44 19 67 c11 37 21 94 23 127 3 58 2 62
-44 124 l-48 64 42 39 c23 21 42 43 42 48 0 4 11 22 25 39 l26 30 -21 40 c-11
22 -20 53 -20 69 0 15 -11 91 -25 168 l-25 139 -62 58 c-35 31 -97 78 -139
103 -81 50 -86 61 -56 122 8 18 6 30 -13 65 -13 23 -30 50 -38 60 -9 10 -17
23 -18 30 -1 7 -22 47 -47 90 l-45 79 -60 -72z"/>
<path fill="#000000" stroke="none" d="M155 1183 c-16 -2 -53 -6 -81 -9 l-52
-5 11 -34 c6 -20 19 -37 30 -41 18 -6 19 -12 13 -68 -3 -33 -9 -73 -12 -88
l-6 -28 104 0 c58 0 132 3 166 6 l61 7 -25 66 c-47 125 -78 163 -156 189 -13
4 -36 6 -53 5z"/>
</g>
</svg>
