<?xml version="1.0" standalone="no"?>
<!DOCTYPE svg PUBLIC "-//W3C//DTD SVG 20010904//EN"
 "http://www.w3.org/TR/2001/REC-SVG-20010904/DTD/svg10.dtd">
<svg version="1.0" xmlns="http://www.w3.org/2000/svg"
 width="23.000000pt" height="97.000000pt" viewBox="0 0 23.000000 97.000000"
 preserveAspectRatio="xMidYMid meet">
<metadata>
Created by potrace 1.14, written by Peter Selinger 2001-2017
</metadata>
<g transform="translate(0.000000,97.000000) scale(0.100000,-0.100000)"
fill="#000000" stroke="none">
<path fill="#000000" stroke="none" d="M4 893 c4 -43 14 -106 22 -141 7 -35
14 -76 14 -91 0 -17 11 -38 30 -56 29 -28 30 -32 30 -114 0 -47 -5 -106 -11
-130 -8 -38 -7 -54 12 -104 22 -58 22 -60 5 -114 -10 -30 -25 -62 -34 -71 -24
-24 -16 -50 16 -56 27 -5 85 -9 110 -7 15 1 16 64 1 92 -17 32 -14 137 7 224
22 97 25 278 5 378 -9 45 -25 86 -47 118 -25 37 -28 46 -13 39 19 -11 25 -4
11 16 -4 5 -23 20 -42 31 -19 12 -41 31 -48 42 -8 14 -23 21 -43 21 l-32 0 7
-77z"/>
</g>
</svg>
