<?xml version="1.0" standalone="no"?>
<!DOCTYPE svg PUBLIC "-//W3C//DTD SVG 20010904//EN"
 "http://www.w3.org/TR/2001/REC-SVG-20010904/DTD/svg10.dtd">
<svg version="1.0" xmlns="http://www.w3.org/2000/svg"
 width="154.000000pt" height="367.000000pt" viewBox="0 0 154.000000 367.000000"
 preserveAspectRatio="xMidYMid meet">
<metadata>
Created by potrace 1.14, written by Peter Selinger 2001-2017
</metadata>
<g transform="translate(0.000000,367.000000) scale(0.100000,-0.100000)"
fill="#000000" stroke="none">
<path fill="#000000" stroke="none" d="M269 3607 c-159 -85 -200 -120 -222
-191 -10 -31 -24 -87 -31 -125 l-13 -70 51 -6 c51 -7 51 -7 99 -85 27 -43 62
-90 78 -106 16 -15 29 -32 29 -37 0 -34 -79 -188 -117 -229 -33 -36 -42 -53
-38 -70 3 -13 16 -72 29 -133 13 -62 40 -145 61 -190 33 -72 36 -86 31 -135
-11 -94 -53 -203 -98 -257 -23 -26 -48 -55 -55 -64 -12 -15 -8 -28 34 -103
l48 -87 40 7 c28 4 57 22 97 56 l56 49 114 -57 113 -56 150 -347 c132 -308
163 -368 271 -546 77 -126 141 -246 174 -325 l52 -125 6 -187 5 -188 79 0 80
0 74 61 74 60 0 77 c0 73 -3 83 -56 192 -31 63 -126 297 -213 520 l-157 405
18 215 c13 149 16 216 8 218 -25 9 -37 34 -44 88 -4 32 -2 62 3 67 5 5 -5 49
-26 113 l-35 104 66 74 c36 40 66 77 66 80 0 10 -244 555 -286 638 l-34 67
-107 34 c-82 25 -111 39 -127 60 l-20 27 22 45 c23 47 22 84 -3 135 -7 15 -10
51 -7 92 l4 67 -103 116 c-57 63 -108 115 -114 114 -5 0 -62 -28 -126 -62z"/>
</g>
</svg>
