<?xml version="1.0" standalone="no"?>
<!DOCTYPE svg PUBLIC "-//W3C//DTD SVG 20010904//EN"
 "http://www.w3.org/TR/2001/REC-SVG-20010904/DTD/svg10.dtd">
<svg version="1.0" xmlns="http://www.w3.org/2000/svg"
 width="77.000000pt" height="140.000000pt" viewBox="0 0 77.000000 140.000000"
 preserveAspectRatio="xMidYMid meet">
<metadata>
Created by potrace 1.14, written by Peter Selinger 2001-2017
</metadata>
<g transform="translate(0.000000,140.000000) scale(0.100000,-0.100000)"
fill="#000000" stroke="none">
<path fill="#000000" stroke="none" d="M342 1357 c-32 -33 -51 -67 -86 -160
-27 -71 -67 -153 -104 -210 -92 -143 -98 -159 -106 -276 l-6 -104 39 -36 c32
-29 40 -45 45 -86 9 -62 7 -60 84 -119 34 -27 62 -54 61 -60 0 -6 -15 -51 -33
-101 l-33 -90 -76 -3 c-76 -3 -77 -3 -101 -39 -14 -20 -23 -40 -21 -44 9 -13
91 -19 350 -23 l260 -5 23 52 c18 43 22 70 22 160 0 112 22 224 87 439 l26 86
-22 121 c-19 109 -28 133 -96 271 -51 104 -75 164 -75 189 0 20 -4 41 -8 48
-4 7 -39 15 -77 18 -39 3 -79 8 -91 10 -14 3 -33 -8 -62 -38z"/>
</g>
</svg>
