<?xml version="1.0" standalone="no"?>
<!DOCTYPE svg PUBLIC "-//W3C//DTD SVG 20010904//EN"
 "http://www.w3.org/TR/2001/REC-SVG-20010904/DTD/svg10.dtd">
<svg version="1.0" xmlns="http://www.w3.org/2000/svg"
 width="57.000000pt" height="58.000000pt" viewBox="0 0 57.000000 58.000000"
 preserveAspectRatio="xMidYMid meet">
<metadata>
Created by potrace 1.14, written by Peter Selinger 2001-2017
</metadata>
<g transform="translate(0.000000,58.000000) scale(0.100000,-0.100000)"
fill="#000000" stroke="none">
<path fill="#000000" stroke="none" d="M356 548 c-27 -18 -61 -41 -75 -51 -14
-9 -50 -24 -79 -33 -29 -8 -66 -27 -82 -41 -38 -32 -39 -73 -5 -180 14 -43 25
-82 25 -86 0 -4 -21 6 -46 23 -25 18 -47 30 -48 28 -17 -23 -46 -78 -46 -88 0
-8 9 -11 26 -7 31 6 75 -11 123 -47 19 -14 45 -26 57 -26 13 0 38 -9 56 -20
21 -12 42 -17 57 -13 24 6 24 10 5 94 -5 23 0 28 51 54 31 16 58 33 61 37 8
12 24 9 24 -4 0 -7 16 -45 37 -84 27 -53 40 -70 53 -67 16 4 15 10 -5 66 -31
85 -48 240 -40 346 6 78 5 88 -13 104 -37 34 -82 32 -136 -5z"/>
</g>
</svg>
