<?xml version="1.0" standalone="no"?>
<!DOCTYPE svg PUBLIC "-//W3C//DTD SVG 20010904//EN"
 "http://www.w3.org/TR/2001/REC-SVG-20010904/DTD/svg10.dtd">
<svg version="1.0" xmlns="http://www.w3.org/2000/svg"
 width="10.000000pt" height="29.000000pt" viewBox="0 0 10.000000 29.000000"
 preserveAspectRatio="xMidYMid meet">
<metadata>
Created by potrace 1.14, written by Peter Selinger 2001-2017
</metadata>
<g transform="translate(0.000000,29.000000) scale(0.100000,-0.100000)"
fill="#000000" stroke="none">
<path fill="#000000" stroke="none" d="M15 277 c-9 -31 -12 -148 -3 -153 5 -3
7 -16 5 -28 -4 -14 5 -33 27 -59 30 -33 35 -35 46 -21 10 12 11 23 3 47 -6 18
-11 54 -12 80 -1 27 -7 63 -14 80 -8 18 -12 37 -10 43 2 6 -6 14 -17 17 -12 3
-23 0 -25 -6z"/>
</g>
</svg>
