<?xml version="1.0" standalone="no"?>
<!DOCTYPE svg PUBLIC "-//W3C//DTD SVG 20010904//EN"
 "http://www.w3.org/TR/2001/REC-SVG-20010904/DTD/svg10.dtd">
<svg version="1.0" xmlns="http://www.w3.org/2000/svg"
 width="21.000000pt" height="88.000000pt" viewBox="0 0 21.000000 88.000000"
 preserveAspectRatio="xMidYMid meet">
<metadata>
Created by potrace 1.14, written by Peter Selinger 2001-2017
</metadata>
<g transform="translate(0.000000,88.000000) scale(0.100000,-0.100000)"
fill="#000000" stroke="none">
<path fill="#000000" stroke="none" d="M1 514 c1 -221 5 -348 9 -315 9 58 34
97 45 69 3 -9 5 -72 3 -142 l-3 -126 53 0 c28 0 52 3 52 8 0 4 -9 18 -20 32
-16 21 -20 41 -20 128 l0 102 30 0 30 0 0 103 c0 59 6 122 14 149 l15 47 -55
123 c-61 137 -86 173 -126 183 l-28 7 1 -368z"/>
</g>
</svg>
