<?xml version="1.0" standalone="no"?>
<!DOCTYPE svg PUBLIC "-//W3C//DTD SVG 20010904//EN"
 "http://www.w3.org/TR/2001/REC-SVG-20010904/DTD/svg10.dtd">
<svg version="1.0" xmlns="http://www.w3.org/2000/svg"
 width="35.000000pt" height="48.000000pt" viewBox="0 0 35.000000 48.000000"
 preserveAspectRatio="xMidYMid meet">
<metadata>
Created by potrace 1.14, written by Peter Selinger 2001-2017
</metadata>
<g transform="translate(0.000000,48.000000) scale(0.100000,-0.100000)"
fill="#000000" stroke="none">
<path fill="#000000" stroke="none" d="M254 463 c-3 -10 -14 -37 -25 -59 -10
-23 -23 -61 -27 -85 -10 -54 -152 -264 -184 -275 -20 -6 -19 -8 15 -26 27 -13
48 -17 72 -12 30 5 36 12 58 67 22 58 29 66 100 112 76 50 76 50 83 103 3 28
2 82 -2 120 l-9 67 -38 3 c-29 3 -38 -1 -43 -15z"/>
</g>
</svg>
