<?xml version="1.0" standalone="no"?>
<!DOCTYPE svg PUBLIC "-//W3C//DTD SVG 20010904//EN"
 "http://www.w3.org/TR/2001/REC-SVG-20010904/DTD/svg10.dtd">
<svg version="1.0" xmlns="http://www.w3.org/2000/svg"
 width="70.000000pt" height="50.000000pt" viewBox="0 0 70.000000 50.000000"
 preserveAspectRatio="xMidYMid meet">
<metadata>
Created by potrace 1.14, written by Peter Selinger 2001-2017
</metadata>
<g transform="translate(0.000000,50.000000) scale(0.100000,-0.100000)"
fill="#000000" stroke="none">
<path fill="#000000" stroke="none" d="M415 491 c-134 -7 -169 -19 -185 -64
-17 -49 -12 -84 20 -135 47 -77 28 -103 -110 -147 -52 -17 -140 -76 -140 -95
0 -29 188 -46 460 -40 235 5 235 5 238 28 3 16 -14 40 -60 88 -74 78 -75 85
-16 193 34 63 40 81 35 118 -2 24 -7 46 -10 49 -9 9 -110 11 -232 5z"/>
</g>
</svg>
