<?xml version="1.0" standalone="no"?>
<!DOCTYPE svg PUBLIC "-//W3C//DTD SVG 20010904//EN"
 "http://www.w3.org/TR/2001/REC-SVG-20010904/DTD/svg10.dtd">
<svg version="1.0" xmlns="http://www.w3.org/2000/svg"
 width="499.000000pt" height="361.000000pt" viewBox="0 0 499.000000 361.000000"
 preserveAspectRatio="xMidYMid meet">
<metadata>
Created by potrace 1.14, written by Peter Selinger 2001-2017
</metadata>
<g transform="translate(0.000000,361.000000) scale(0.100000,-0.100000)"
fill="#000000" stroke="none">
<path fill="#000000" stroke="none" d="M0 3548 c0 -35 5 -306 11 -603 l10
-540 66 -410 65 -410 61 -75 c62 -75 557 -671 584 -701 13 -15 5 -36 -69 -182
l-83 -166 -141 -93 c-121 -80 -158 -111 -267 -227 -70 -74 -125 -136 -123
-139 3 -2 619 1 1368 8 857 7 1758 9 2426 5 l1062 -8 0 52 c0 29 5 184 11 345
l10 293 -95 144 c-108 165 -167 226 -366 380 -230 179 -382 277 -525 341
l-130 58 -153 0 c-142 0 -163 -3 -290 -35 -128 -32 -153 -35 -342 -40 -113 -3
-221 -8 -241 -10 -28 -4 -39 -1 -44 13 -4 9 -11 109 -15 222 -11 291 -48 495
-162 910 -80 293 -215 759 -254 883 l-16 47 -1179 0 -1179 0 0 -62z"/>
<path fill="#ffffff" stroke="none" d="M2330 1246 c56 -84 71 -98 132 -133 37
-21 68 -40 68 -43 0 -3 -25 -100 -55 -215 l-56 -210 -101 -152 -101 -152 -131
-99 c-72 -54 -145 -107 -163 -117 -25 -15 -31 -24 -27 -41 5 -21 2 -22 -68
-29 -40 -3 -171 -5 -292 -3 l-218 3 -45 74 c-78 128 -166 326 -159 356 12 48
43 48 173 -1 189 -72 323 -112 399 -119 l71 -6 54 123 c31 72 108 213 185 338
88 143 155 266 200 368 37 83 68 152 69 152 1 0 30 -42 65 -94z"/>
</g>
</svg>
