<?xml version="1.0" standalone="no"?>
<!DOCTYPE svg PUBLIC "-//W3C//DTD SVG 20010904//EN"
 "http://www.w3.org/TR/2001/REC-SVG-20010904/DTD/svg10.dtd">
<svg version="1.0" xmlns="http://www.w3.org/2000/svg"
 width="207.000000pt" height="246.000000pt" viewBox="0 0 207.000000 246.000000"
 preserveAspectRatio="xMidYMid meet">
<metadata>
Created by potrace 1.14, written by Peter Selinger 2001-2017
</metadata>
<g transform="translate(0.000000,246.000000) scale(0.100000,-0.100000)"
fill="#000000" stroke="none">
<path fill="#000000" stroke="none" d="M480 2455 c0 -3 18 -49 40 -102 38 -92
40 -101 34 -165 -4 -37 -12 -72 -18 -77 -6 -5 -60 -32 -120 -59 -98 -45 -114
-57 -170 -120 -33 -38 -78 -94 -98 -123 -34 -49 -38 -63 -47 -158 -6 -57 -11
-109 -11 -116 0 -7 -13 -18 -29 -25 -27 -11 -30 -17 -42 -98 -6 -48 -12 -92
-12 -97 0 -11 72 -116 87 -127 5 -3 7 -115 3 -280 l-5 -273 79 -299 c44 -165
81 -301 82 -303 3 -2 231 -22 233 -19 1 0 -23 55 -53 121 l-54 120 6 280 c6
240 4 291 -10 355 -13 59 -15 101 -10 192 l7 118 35 21 c19 12 35 20 37 18 2
-2 26 -132 55 -289 46 -255 51 -300 51 -426 0 -78 5 -155 11 -173 8 -24 7 -61
-5 -159 -10 -70 -19 -139 -22 -153 -5 -25 -3 -27 39 -30 l45 -4 6 44 c3 24 6
82 6 128 0 46 5 117 12 156 10 62 19 83 66 149 31 43 62 80 71 82 9 3 66 17
126 31 61 14 138 37 172 52 l63 26 0 112 c0 82 8 154 29 269 30 156 30 156 77
210 25 30 58 57 73 60 14 4 59 13 99 21 72 13 73 13 170 -19 l97 -33 64 -89
63 -89 -6 -135 c-6 -123 -4 -142 19 -225 13 -50 23 -104 22 -119 -2 -29 1 -31
107 -73 61 -23 111 -41 113 -39 7 6 -16 259 -24 265 -4 3 -9 50 -10 104 l-3
98 -56 72 c-63 81 -116 187 -164 333 -28 83 -31 102 -22 127 10 26 5 49 -34
171 -25 78 -50 155 -55 173 -13 41 -67 76 -103 67 -22 -5 -35 3 -88 57 -56 57
-72 68 -189 115 -71 29 -167 61 -215 71 l-86 18 6 70 c4 38 13 95 21 125 8 30
15 58 15 63 0 4 -130 7 -290 7 -159 0 -290 -2 -290 -5z"/>
</g>
</svg>
