<?xml version="1.0" standalone="no"?>
<!DOCTYPE svg PUBLIC "-//W3C//DTD SVG 20010904//EN"
 "http://www.w3.org/TR/2001/REC-SVG-20010904/DTD/svg10.dtd">
<svg version="1.0" xmlns="http://www.w3.org/2000/svg"
 width="39.000000pt" height="30.000000pt" viewBox="0 0 39.000000 30.000000"
 preserveAspectRatio="xMidYMid meet">
<metadata>
Created by potrace 1.14, written by Peter Selinger 2001-2017
</metadata>
<g transform="translate(0.000000,30.000000) scale(0.100000,-0.100000)"
fill="#000000" stroke="none">
<path fill="#000000" stroke="none" d="M79 293 c-11 -3 -19 -20 -23 -52 -5
-37 -13 -53 -31 -65 -27 -18 -31 -37 -14 -84 15 -43 60 -68 148 -81 101 -16
126 7 81 74 -29 44 -26 55 12 44 18 -5 57 -9 87 -9 46 0 52 2 41 15 -7 8 -21
15 -32 15 -18 0 -156 26 -189 36 -13 3 -16 15 -15 45 3 57 -17 75 -65 62z"/>
</g>
</svg>
