<?xml version="1.0" standalone="no"?>
<!DOCTYPE svg PUBLIC "-//W3C//DTD SVG 20010904//EN"
 "http://www.w3.org/TR/2001/REC-SVG-20010904/DTD/svg10.dtd">
<svg version="1.0" xmlns="http://www.w3.org/2000/svg"
 width="182.000000pt" height="486.000000pt" viewBox="0 0 182.000000 486.000000"
 preserveAspectRatio="xMidYMid meet">
<metadata>
Created by potrace 1.14, written by Peter Selinger 2001-2017
</metadata>
<g transform="translate(0.000000,486.000000) scale(0.100000,-0.100000)"
fill="#000000" stroke="none">
<path fill="#000000" stroke="none" d="M801 4839 c-63 -11 -115 -20 -116 -22
-1 -1 -25 -37 -54 -80 l-52 -78 -6 -124 c-8 -157 9 -228 72 -315 l43 -58 -26
-30 c-20 -22 -45 -34 -97 -47 -67 -18 -113 -43 -521 -293 l-40 -24 14 -111
c13 -100 19 -119 62 -200 41 -76 58 -98 126 -153 59 -48 100 -71 165 -95 l86
-32 16 -63 c10 -34 17 -69 17 -78 0 -9 -45 -101 -99 -204 l-100 -188 9 -135
c7 -122 11 -141 45 -219 20 -47 68 -134 107 -193 l72 -109 -55 -725 -55 -726
46 -42 c25 -24 59 -55 77 -69 l32 -27 203 54 c146 38 202 58 200 67 -2 8 -7
95 -12 194 -8 162 -12 194 -44 308 -34 121 -36 133 -36 286 0 157 1 161 34
253 19 52 35 89 35 83 7 -141 81 -905 111 -1144 40 -321 41 -323 82 -411 l41
-89 74 0 c88 0 442 56 458 72 2 2 22 42 43 89 l40 86 -136 13 c-110 10 -148
18 -200 41 l-64 29 7 102 c17 263 26 353 51 470 l26 127 -20 653 c-11 361 -16
687 -12 728 11 111 84 255 270 535 37 55 74 122 84 150 l16 50 -37 32 c-21 18
-41 32 -46 33 -4 0 0 11 9 24 10 16 27 26 46 28 30 3 21 14 -303 368 -184 201
-340 373 -347 382 -11 14 -10 23 6 55 11 21 27 76 36 123 10 47 30 126 46 175
16 50 36 120 44 156 15 66 15 68 -15 175 -17 60 -34 113 -39 117 -8 9 -250 47
-285 46 -11 -1 -71 -10 -134 -20z"/>
</g>
</svg>
