<?xml version="1.0" standalone="no"?>
<!DOCTYPE svg PUBLIC "-//W3C//DTD SVG 20010904//EN"
 "http://www.w3.org/TR/2001/REC-SVG-20010904/DTD/svg10.dtd">
<svg version="1.0" xmlns="http://www.w3.org/2000/svg"
 width="246.000000pt" height="343.000000pt" viewBox="0 0 246.000000 343.000000"
 preserveAspectRatio="xMidYMid meet">
<metadata>
Created by potrace 1.14, written by Peter Selinger 2001-2017
</metadata>
<g transform="translate(0.000000,343.000000) scale(0.100000,-0.100000)"
fill="#000000" stroke="none">
<path fill="#000000" stroke="none" d="M1940 3412 l-125 -17 -140 -84 c-77
-45 -155 -85 -172 -88 -32 -6 -33 -7 -33 -58 0 -28 -12 -110 -26 -181 -33
-161 -31 -321 4 -419 12 -32 22 -77 22 -99 0 -61 68 -168 117 -185 113 -40
131 -52 172 -115 22 -34 56 -98 75 -141 l35 -80 -68 -70 c-57 -59 -78 -90
-128 -196 -65 -136 -185 -303 -230 -320 -64 -24 -71 -20 -305 197 l-223 206
-6 72 c-11 137 -31 271 -46 313 -15 41 -44 65 -51 43 -2 -6 -21 5 -43 25 -34
30 -61 41 -91 36 -11 -2 -10 27 2 49 10 19 4 50 -9 50 -5 0 -16 -28 -27 -62
-15 -52 -19 -92 -18 -223 l1 -160 108 -248 109 -247 203 -228 c111 -125 208
-231 216 -236 8 -5 41 6 95 33 l81 41 -6 -103 c-3 -56 -8 -133 -12 -172 l-6
-69 -683 -296 -683 -295 -25 -42 -25 -43 1225 0 1226 0 0 773 c0 424 3 1173 7
1663 l6 890 -107 48 c-97 42 -117 47 -199 51 -56 3 -141 -2 -217 -13z"/>
<path fill="#ffffff" stroke="none" d="M743 2019 c62 -32 69 -69 13 -69 -38 0
-76 25 -76 50 0 28 28 37 63 19z"/>
</g>
</svg>
