<?xml version="1.0" standalone="no"?>
<!DOCTYPE svg PUBLIC "-//W3C//DTD SVG 20010904//EN"
 "http://www.w3.org/TR/2001/REC-SVG-20010904/DTD/svg10.dtd">
<svg version="1.0" xmlns="http://www.w3.org/2000/svg"
 width="139.000000pt" height="205.000000pt" viewBox="0 0 139.000000 205.000000"
 preserveAspectRatio="xMidYMid meet">
<metadata>
Created by potrace 1.14, written by Peter Selinger 2001-2017
</metadata>
<g transform="translate(0.000000,205.000000) scale(0.100000,-0.100000)"
fill="#000000" stroke="none">
<path fill="#000000" stroke="none" d="M424 2040 c-15 -15 6 -148 35 -222 20
-51 22 -71 18 -185 -4 -127 -12 -168 -62 -338 -29 -95 -35 -100 -229 -216
l-131 -79 -27 -67 -26 -68 43 -45 c24 -25 58 -74 75 -110 18 -36 53 -99 78
-140 69 -112 101 -207 108 -320 6 -79 12 -104 36 -147 22 -38 36 -53 51 -53
12 0 186 -11 387 -25 466 -32 440 -32 440 3 0 15 -14 82 -31 149 -30 116 -31
123 -15 148 14 21 24 25 67 25 30 0 65 8 88 19 43 22 45 29 57 221 l6 95 -44
60 c-24 33 -68 105 -98 160 -29 55 -87 145 -128 200 -42 55 -76 101 -76 102
-1 1 -46 4 -101 8 -55 3 -142 13 -192 22 -91 15 -93 16 -93 43 0 25 -5 29 -39
35 -34 6 -42 12 -51 41 -6 18 -19 38 -27 43 -9 5 -14 15 -11 23 3 8 0 24 -6
37 -11 19 -9 41 10 124 13 56 24 132 24 169 0 58 -6 79 -44 160 -50 108 -76
144 -92 128z"/>
</g>
</svg>
