<?xml version="1.0" standalone="no"?>
<!DOCTYPE svg PUBLIC "-//W3C//DTD SVG 20010904//EN"
 "http://www.w3.org/TR/2001/REC-SVG-20010904/DTD/svg10.dtd">
<svg version="1.0" xmlns="http://www.w3.org/2000/svg"
 width="151.000000pt" height="228.000000pt" viewBox="0 0 151.000000 228.000000"
 preserveAspectRatio="xMidYMid meet">
<metadata>
Created by potrace 1.14, written by Peter Selinger 2001-2017
</metadata>
<g transform="translate(0.000000,228.000000) scale(0.100000,-0.100000)"
fill="#000000" stroke="none">
<path fill="#000000" stroke="none" d="M1268 2266 c-56 -13 -93 -47 -156 -141
-47 -70 -47 -70 -47 -155 1 -49 6 -95 14 -108 7 -13 38 -34 71 -48 47 -21 57
-29 53 -45 -3 -10 -9 -19 -14 -19 -4 0 -29 -13 -55 -30 -67 -42 -113 -125
-114 -202 0 -32 -4 -58 -9 -58 -9 0 -27 -101 -30 -165 -1 -15 -14 -7 -61 40
-33 33 -60 64 -60 70 0 6 -7 35 -15 63 l-16 52 -49 0 c-41 0 -55 -5 -85 -32
l-36 -31 69 -71 c38 -39 97 -113 132 -163 34 -51 65 -93 68 -93 3 0 31 26 62
58 31 31 75 73 96 92 21 20 83 84 137 142 l97 107 85 27 c96 32 92 24 71 140
-8 44 -17 113 -21 155 -6 72 -5 80 25 139 24 48 29 65 19 76 -6 7 -19 44 -28
80 -16 67 -16 67 -76 100 -33 19 -64 33 -70 33 -5 -1 -31 -6 -57 -13z"/>
<path fill="#000000" stroke="none" d="M713 1593 c9 -2 25 -2 35 0 9 3 1 5
-18 5 -19 0 -27 -2 -17 -5z"/>
<path fill="#000000" stroke="none" d="M429 1113 c-48 -31 -60 -45 -79 -92
-13 -31 -87 -189 -165 -352 -136 -282 -144 -301 -165 -413 -12 -64 -20 -119
-17 -122 3 -3 51 4 108 15 56 12 122 21 146 21 37 0 44 3 39 18 -2 9 -12 42
-22 74 -17 55 -17 57 5 115 15 41 43 82 89 134 97 107 106 123 138 232 24 83
33 101 57 113 26 14 30 13 65 -16 21 -17 83 -50 138 -74 l99 -44 -3 -137 -2
-137 -42 -59 -41 -59 -58 0 c-51 0 -60 -3 -77 -28 -11 -15 -27 -45 -36 -66
-15 -36 -15 -41 2 -70 11 -18 29 -33 44 -36 16 -3 50 -30 84 -69 54 -59 60
-63 93 -58 20 2 53 12 74 20 36 15 37 18 37 65 0 58 26 138 68 209 48 82 51
102 25 222 -13 58 -27 145 -31 192 -9 82 -11 88 -69 175 -59 87 -60 90 -55
144 4 49 2 56 -14 57 -11 0 -91 15 -179 32 -88 17 -169 30 -180 30 -11 0 -45
-17 -76 -36z"/>
</g>
</svg>
