<?xml version="1.0" standalone="no"?>
<!DOCTYPE svg PUBLIC "-//W3C//DTD SVG 20010904//EN"
 "http://www.w3.org/TR/2001/REC-SVG-20010904/DTD/svg10.dtd">
<svg version="1.0" xmlns="http://www.w3.org/2000/svg"
 width="331.000000pt" height="509.000000pt" viewBox="0 0 331.000000 509.000000"
 preserveAspectRatio="xMidYMid meet">
<metadata>
Created by potrace 1.14, written by Peter Selinger 2001-2017
</metadata>
<g transform="translate(0.000000,509.000000) scale(0.100000,-0.100000)"
fill="#000000" stroke="none">
<path fill="#000000" stroke="none" d="M1255 5065 c-71 -12 -151 -25 -176 -29
l-47 -7 -46 -107 c-25 -59 -64 -172 -86 -252 l-40 -145 64 -200 64 -199 152
-194 c84 -107 155 -202 157 -212 5 -18 -46 -601 -53 -609 -2 -2 -170 5 -374
16 l-370 21 -197 128 c-123 80 -206 127 -220 126 -12 -1 -36 -7 -53 -14 l-30
-13 114 -171 114 -170 128 -23 c71 -12 291 -61 489 -108 l360 -85 80 12 c44 7
88 17 97 22 10 4 36 35 58 68 22 33 44 60 48 60 4 0 131 -296 282 -657 l275
-657 232 -363 c185 -289 305 -461 580 -833 255 -344 350 -464 355 -452 3 9 21
177 39 372 28 311 31 377 25 535 -4 111 2 474 15 950 l21 771 -267 469 c-147
259 -305 533 -351 611 l-83 140 -271 85 -271 84 -95 102 -95 102 -9 83 c-6 46
-10 137 -10 202 0 159 -22 235 -95 331 -30 39 -75 91 -102 117 -49 48 -50 49
-268 112 -5 1 -68 -7 -140 -19z"/>
</g>
</svg>
