<?xml version="1.0" standalone="no"?>
<!DOCTYPE svg PUBLIC "-//W3C//DTD SVG 20010904//EN"
 "http://www.w3.org/TR/2001/REC-SVG-20010904/DTD/svg10.dtd">
<svg version="1.0" xmlns="http://www.w3.org/2000/svg"
 width="30.000000pt" height="84.000000pt" viewBox="0 0 30.000000 84.000000"
 preserveAspectRatio="xMidYMid meet">
<metadata>
Created by potrace 1.14, written by Peter Selinger 2001-2017
</metadata>
<g transform="translate(0.000000,84.000000) scale(0.100000,-0.100000)"
fill="#000000" stroke="none">
<path fill="#000000" stroke="none" d="M206 821 c-15 -10 -34 -27 -42 -39 -13
-19 -12 -21 16 -27 35 -8 36 -12 14 -44 -13 -18 -23 -22 -45 -17 -34 7 -35 5
-91 -142 l-40 -107 12 -103 c11 -89 11 -104 -2 -120 -28 -32 -28 -53 -1 -130
14 -43 29 -81 33 -85 7 -8 178 17 188 28 3 3 -1 12 -9 21 -14 13 -14 24 1 102
9 48 27 107 39 133 l23 45 -44 65 -43 64 3 80 4 80 39 27 c36 26 38 29 27 58
-5 17 -8 44 -4 60 4 24 0 33 -23 49 -26 19 -28 19 -55 2z"/>
<path fill="#ffffff" stroke="none" d="M275 720 c12 -20 -6 -50 -31 -50 -27 0
-27 0 -14 34 10 26 34 34 45 16z"/>
</g>
</svg>
