<?xml version="1.0" standalone="no"?>
<!DOCTYPE svg PUBLIC "-//W3C//DTD SVG 20010904//EN"
 "http://www.w3.org/TR/2001/REC-SVG-20010904/DTD/svg10.dtd">
<svg version="1.0" xmlns="http://www.w3.org/2000/svg"
 width="177.000000pt" height="308.000000pt" viewBox="0 0 177.000000 308.000000"
 preserveAspectRatio="xMidYMid meet">
<metadata>
Created by potrace 1.14, written by Peter Selinger 2001-2017
</metadata>
<g transform="translate(0.000000,308.000000) scale(0.100000,-0.100000)"
fill="#000000" stroke="none">
<path fill="#000000" stroke="none" d="M1315 3070 c-11 -5 -55 -9 -97 -9 l-77
-1 -35 -44 c-20 -24 -36 -54 -36 -68 0 -14 -9 -33 -20 -43 -17 -15 -20 -31
-20 -106 l0 -88 -37 -30 c-21 -17 -44 -31 -51 -31 -26 0 -180 -59 -260 -99
-59 -29 -109 -46 -184 -59 -58 -11 -119 -29 -139 -41 -20 -11 -60 -28 -90 -37
-30 -9 -75 -29 -100 -45 -25 -16 -50 -29 -55 -29 -9 0 -114 -171 -114 -186 0
-10 144 3 245 22 85 17 92 17 174 -1 47 -10 115 -21 151 -25 87 -10 181 -55
255 -122 l59 -55 -18 -49 c-11 -27 -39 -78 -63 -113 -39 -56 -46 -75 -54 -140
-5 -42 -12 -92 -15 -111 -5 -30 0 -41 31 -77 l36 -42 82 6 c79 5 83 4 107 -21
32 -36 38 -81 49 -436 8 -269 8 -305 -10 -412 -20 -126 -26 -292 -14 -402 7
-63 11 -71 47 -105 22 -20 59 -42 81 -48 50 -16 135 -19 146 -7 4 5 22 42 39
82 28 62 32 84 32 157 0 46 -5 129 -11 183 -10 85 -9 118 9 252 12 85 24 184
27 220 3 36 11 99 17 142 9 71 13 78 45 101 43 31 154 162 210 248 35 53 47
85 67 179 37 169 50 321 42 479 -4 75 -6 172 -6 216 1 76 -1 84 -39 147 -47
80 -112 160 -145 177 -13 7 -29 30 -36 50 -10 32 -10 43 4 68 8 17 18 50 22
73 4 24 15 50 25 58 17 15 15 18 -31 49 -57 38 -70 58 -70 107 0 35 -1 35 -69
56 -75 22 -77 22 -106 10z"/>
</g>
</svg>
