<?xml version="1.0" standalone="no"?>
<!DOCTYPE svg PUBLIC "-//W3C//DTD SVG 20010904//EN"
 "http://www.w3.org/TR/2001/REC-SVG-20010904/DTD/svg10.dtd">
<svg version="1.0" xmlns="http://www.w3.org/2000/svg"
 width="66.000000pt" height="79.000000pt" viewBox="0 0 66.000000 79.000000"
 preserveAspectRatio="xMidYMid meet">
<metadata>
Created by potrace 1.14, written by Peter Selinger 2001-2017
</metadata>
<g transform="translate(0.000000,79.000000) scale(0.100000,-0.100000)"
fill="#000000" stroke="none">
<path fill="#000000" stroke="none" d="M395 784 c-11 -1 -49 -6 -85 -9 l-65
-6 -35 -66 c-27 -50 -53 -80 -107 -125 -81 -66 -88 -75 -97 -133 -7 -39 -6
-41 26 -50 24 -7 51 -33 100 -94 58 -73 80 -92 161 -139 l95 -55 12 -54 c7
-29 18 -53 24 -53 6 1 49 31 95 68 l85 68 25 125 c21 99 24 135 18 177 -8 51
-12 55 -79 105 -67 50 -69 53 -64 87 4 27 -2 48 -28 95 -32 59 -41 66 -81 59z"/>
</g>
</svg>
