<?xml version="1.0" standalone="no"?>
<!DOCTYPE svg PUBLIC "-//W3C//DTD SVG 20010904//EN"
 "http://www.w3.org/TR/2001/REC-SVG-20010904/DTD/svg10.dtd">
<svg version="1.0" xmlns="http://www.w3.org/2000/svg"
 width="70.000000pt" height="247.000000pt" viewBox="0 0 70.000000 247.000000"
 preserveAspectRatio="xMidYMid meet">
<metadata>
Created by potrace 1.14, written by Peter Selinger 2001-2017
</metadata>
<g transform="translate(0.000000,247.000000) scale(0.100000,-0.100000)"
fill="#000000" stroke="none">
<path fill="#000000" stroke="none" d="M372 2450 c-57 -9 -107 -21 -112 -26
-5 -5 -20 -55 -34 -111 -25 -99 -33 -197 -20 -262 6 -29 9 -31 49 -31 l42 0
11 -50 c11 -48 10 -53 -14 -90 -14 -21 -66 -73 -116 -115 -105 -90 -128 -123
-128 -185 0 -25 -12 -126 -26 -224 -29 -200 -27 -223 27 -321 l27 -50 -9 -215
c-4 -118 -13 -235 -18 -260 -6 -25 -10 -95 -11 -156 0 -102 2 -112 23 -131 14
-14 43 -24 80 -28 l58 -7 47 -94 47 -94 97 0 c111 0 103 -10 88 105 -8 68 -7
75 51 272 l60 203 -7 283 -6 282 45 220 c51 244 77 480 77 676 l-1 124 -103
149 c-56 83 -106 151 -112 152 -5 1 -55 -6 -112 -16z"/>
</g>
</svg>
