<?xml version="1.0" standalone="no"?>
<!DOCTYPE svg PUBLIC "-//W3C//DTD SVG 20010904//EN"
 "http://www.w3.org/TR/2001/REC-SVG-20010904/DTD/svg10.dtd">
<svg version="1.0" xmlns="http://www.w3.org/2000/svg"
 width="242.000000pt" height="454.000000pt" viewBox="0 0 242.000000 454.000000"
 preserveAspectRatio="xMidYMid meet">
<metadata>
Created by potrace 1.14, written by Peter Selinger 2001-2017
</metadata>
<g transform="translate(0.000000,454.000000) scale(0.100000,-0.100000)"
fill="#000000" stroke="none">
<path fill="#000000" stroke="none" d="M1240 4474 c-41 -36 -107 -90 -146
-119 l-70 -53 25 -213 c22 -184 28 -214 44 -217 9 -2 17 -12 17 -22 0 -10 5
-22 10 -25 21 -13 10 -42 -19 -48 -16 -3 -30 -14 -33 -24 -4 -14 -29 -23 -113
-41 l-108 -22 -44 26 c-78 46 -149 64 -245 64 l-89 0 -84 -87 c-70 -73 -84
-94 -90 -129 -7 -47 -12 -50 -144 -64 -67 -7 -76 -11 -111 -46 -38 -39 -38
-40 -27 -84 l11 -46 110 -38 c61 -21 114 -43 117 -48 3 -5 25 -12 48 -15 24
-3 45 -13 50 -22 5 -9 28 -83 50 -166 23 -82 53 -181 66 -220 13 -38 27 -92
30 -120 9 -61 109 -261 143 -283 21 -14 203 -26 478 -31 24 -1 37 -9 55 -36
13 -19 32 -35 41 -35 12 0 17 -7 17 -22 -3 -65 54 -614 70 -681 13 -56 16 -89
10 -115 -11 -50 33 -463 57 -531 15 -41 25 -53 56 -67 21 -9 38 -20 38 -23 0
-3 -8 -19 -19 -36 l-18 -30 43 -122 43 -123 -84 -271 c-47 -150 -84 -273 -82
-275 1 -2 145 -6 318 -10 l316 -7 6 39 c4 21 7 85 7 142 0 94 -3 111 -36 195
l-35 92 2 190 c1 128 -2 198 -10 212 -16 31 -14 60 6 71 13 8 36 134 117 640
l102 631 -28 103 c-20 76 -27 128 -27 196 l-1 93 87 -60 86 -61 84 0 83 0 0
294 0 295 -62 37 c-35 21 -79 49 -98 64 -19 15 -63 43 -97 64 -58 34 -63 40
-63 72 0 32 6 38 77 85 71 46 80 56 120 131 l43 80 -107 102 -107 103 -104
-23 c-60 -13 -119 -20 -139 -17 l-35 6 26 -42 27 -42 -23 6 c-90 21 -175 35
-209 35 -24 0 -39 5 -40 13 0 6 -4 34 -8 60 -4 26 -5 50 -1 52 4 2 10 43 14
91 l6 86 -136 242 c-129 229 -154 266 -178 266 -6 0 -45 -30 -86 -66z"/>
</g>
</svg>
