<?xml version="1.0" standalone="no"?>
<!DOCTYPE svg PUBLIC "-//W3C//DTD SVG 20010904//EN"
 "http://www.w3.org/TR/2001/REC-SVG-20010904/DTD/svg10.dtd">
<svg version="1.0" xmlns="http://www.w3.org/2000/svg"
 width="234.000000pt" height="434.000000pt" viewBox="0 0 234.000000 434.000000"
 preserveAspectRatio="xMidYMid meet">
<metadata>
Created by potrace 1.14, written by Peter Selinger 2001-2017
</metadata>
<g transform="translate(0.000000,434.000000) scale(0.100000,-0.100000)"
fill="#000000" stroke="none">
<path fill="#000000" stroke="none" d="M649 4307 c-123 -31 -128 -34 -191 -89
l-65 -58 -17 -125 c-13 -103 -14 -141 -5 -218 9 -80 9 -99 -4 -124 -9 -16 -19
-68 -23 -115 -6 -79 -4 -93 21 -162 28 -77 33 -84 51 -66 9 9 89 -91 184 -228
l23 -34 -22 -46 c-22 -47 -25 -48 -279 -183 l-257 -136 -26 -229 c-15 -126
-30 -254 -33 -284 l-6 -55 207 -164 207 -165 100 3 c56 1 240 9 411 16 l310
14 263 64 c144 36 264 66 266 68 2 2 22 55 46 117 l43 113 206 104 c114 58
214 110 223 117 16 12 14 25 -19 166 -20 83 -41 152 -45 152 -5 0 -86 -31
-181 -69 -146 -58 -186 -70 -266 -79 l-94 -10 -116 57 -116 56 -16 115 c-11
72 -15 146 -12 196 l6 81 -71 27 c-67 26 -71 29 -92 78 -12 28 -32 107 -46
177 -13 69 -26 136 -29 149 -5 21 -3 22 60 22 l65 0 0 151 0 151 -32 -8 c-65
-14 -61 -22 -84 154 -12 90 -24 165 -26 166 -129 86 -310 167 -368 165 -14 0
-82 -15 -151 -32z"/>
<path fill="#ffffff" stroke="none" d="M1110 2945 c19 -14 39 -33 44 -42 12
-23 21 -343 9 -343 -35 0 -135 25 -173 44 -71 35 -107 21 -188 -76 -36 -43
-66 -78 -68 -78 -1 0 -15 20 -31 45 -15 25 -33 45 -40 45 -6 0 -16 22 -22 50
-6 27 -24 71 -41 98 -16 27 -30 54 -30 59 0 6 14 16 31 24 20 8 37 25 45 45
12 29 18 33 42 29 129 -23 140 -23 164 2 19 20 30 24 58 19 31 -4 41 1 95 49
33 30 63 55 66 55 3 0 20 -11 39 -25z"/>
<path fill="#000000" stroke="none" d="M1375 1414 c-501 -134 -916 -244 -923
-244 -7 0 -81 31 -166 69 l-154 68 -5 -26 c-3 -14 -15 -108 -28 -208 l-22
-181 158 -444 159 -443 695 3 c383 2 736 6 785 10 l89 7 31 89 c30 85 37 96
189 272 86 101 157 186 157 189 0 4 -32 42 -70 86 -63 71 -70 83 -65 112 4 25
66 615 89 845 3 23 2 42 -2 41 -4 0 -416 -111 -917 -245z"/>
</g>
</svg>
