<?xml version="1.0" standalone="no"?>
<!DOCTYPE svg PUBLIC "-//W3C//DTD SVG 20010904//EN"
 "http://www.w3.org/TR/2001/REC-SVG-20010904/DTD/svg10.dtd">
<svg version="1.0" xmlns="http://www.w3.org/2000/svg"
 width="26.000000pt" height="55.000000pt" viewBox="0 0 26.000000 55.000000"
 preserveAspectRatio="xMidYMid meet">
<metadata>
Created by potrace 1.14, written by Peter Selinger 2001-2017
</metadata>
<g transform="translate(0.000000,55.000000) scale(0.100000,-0.100000)"
fill="#000000" stroke="none">
<path fill="#000000" stroke="none" d="M147 538 c-26 -7 -42 -19 -53 -39 -10
-21 -22 -29 -41 -29 -25 0 -26 -1 -20 -49 4 -31 0 -67 -9 -97 -8 -27 -18 -96
-21 -154 l-6 -105 26 -14 c15 -8 29 -22 33 -33 3 -12 15 -18 34 -18 30 0 48
14 31 24 -6 4 -6 19 0 39 5 17 9 61 10 97 0 88 14 187 32 234 11 30 25 44 56
59 22 10 41 25 41 31 0 15 -52 66 -66 65 -5 -1 -26 -6 -47 -11z"/>
</g>
</svg>
