<?xml version="1.0" standalone="no"?>
<!DOCTYPE svg PUBLIC "-//W3C//DTD SVG 20010904//EN"
 "http://www.w3.org/TR/2001/REC-SVG-20010904/DTD/svg10.dtd">
<svg version="1.0" xmlns="http://www.w3.org/2000/svg"
 width="12.000000pt" height="41.000000pt" viewBox="0 0 12.000000 41.000000"
 preserveAspectRatio="xMidYMid meet">
<metadata>
Created by potrace 1.14, written by Peter Selinger 2001-2017
</metadata>
<g transform="translate(0.000000,41.000000) scale(0.100000,-0.100000)"
fill="#000000" stroke="none">
<path fill="#000000" stroke="none" d="M35 390 c-3 -11 -3 -25 0 -31 4 -5 0
-18 -8 -27 -9 -11 -17 -51 -21 -114 l-6 -96 39 -7 c40 -7 40 -7 48 -63 l8 -57
8 65 c17 137 19 257 4 272 -10 9 -12 20 -6 36 12 31 4 42 -31 42 -20 0 -31 -6
-35 -20z"/>
</g>
</svg>
