<?xml version="1.0" standalone="no"?>
<!DOCTYPE svg PUBLIC "-//W3C//DTD SVG 20010904//EN"
 "http://www.w3.org/TR/2001/REC-SVG-20010904/DTD/svg10.dtd">
<svg version="1.0" xmlns="http://www.w3.org/2000/svg"
 width="14.000000pt" height="39.000000pt" viewBox="0 0 14.000000 39.000000"
 preserveAspectRatio="xMidYMid meet">
<metadata>
Created by potrace 1.14, written by Peter Selinger 2001-2017
</metadata>
<g transform="translate(0.000000,39.000000) scale(0.100000,-0.100000)"
fill="#000000" stroke="none">
<path fill="#000000" stroke="none" d="M57 384 c-4 -4 -7 -18 -7 -31 0 -14
-12 -34 -27 -47 -26 -23 -27 -24 -14 -79 7 -31 13 -95 13 -142 1 -69 4 -85 16
-80 7 3 18 5 24 5 5 0 8 16 7 35 -2 19 2 40 9 47 6 6 12 29 12 49 0 44 12 56
34 33 15 -14 16 -11 16 36 0 28 -5 61 -12 73 -7 12 -14 40 -17 62 -5 30 -11
41 -26 43 -12 2 -24 0 -28 -4z"/>
</g>
</svg>
