<?xml version="1.0" standalone="no"?>
<!DOCTYPE svg PUBLIC "-//W3C//DTD SVG 20010904//EN"
 "http://www.w3.org/TR/2001/REC-SVG-20010904/DTD/svg10.dtd">
<svg version="1.0" xmlns="http://www.w3.org/2000/svg"
 width="25.000000pt" height="93.000000pt" viewBox="0 0 25.000000 93.000000"
 preserveAspectRatio="xMidYMid meet">
<metadata>
Created by potrace 1.14, written by Peter Selinger 2001-2017
</metadata>
<g transform="translate(0.000000,93.000000) scale(0.100000,-0.100000)"
fill="#000000" stroke="none">
<path fill="#000000" stroke="none" d="M93 918 c-30 -14 -31 -64 -2 -112 l21
-36 -23 -32 c-13 -18 -24 -49 -25 -71 -1 -28 -10 -48 -33 -71 -39 -40 -39 -66
-2 -88 26 -14 30 -23 35 -75 4 -32 13 -103 21 -158 8 -55 17 -125 20 -155 10
-88 15 -108 32 -115 19 -7 33 11 33 43 0 12 5 22 10 22 6 0 10 -8 10 -19 0
-23 25 -45 43 -38 18 7 4 127 -23 204 -13 39 -16 61 -10 73 16 31 31 200 29
335 -2 123 -4 132 -28 162 -19 24 -25 42 -23 67 6 66 -28 92 -85 64z"/>
</g>
</svg>
