<?xml version="1.0" standalone="no"?>
<!DOCTYPE svg PUBLIC "-//W3C//DTD SVG 20010904//EN"
 "http://www.w3.org/TR/2001/REC-SVG-20010904/DTD/svg10.dtd">
<svg version="1.0" xmlns="http://www.w3.org/2000/svg"
 width="95.000000pt" height="183.000000pt" viewBox="0 0 95.000000 183.000000"
 preserveAspectRatio="xMidYMid meet">
<metadata>
Created by potrace 1.14, written by Peter Selinger 2001-2017
</metadata>
<g transform="translate(0.000000,183.000000) scale(0.100000,-0.100000)"
fill="#000000" stroke="none">
<path fill="#000000" stroke="none" d="M320 1773 c-42 -28 -80 -59 -84 -68 -3
-9 -11 -59 -16 -110 -9 -80 -8 -98 6 -136 21 -54 30 -210 14 -248 -6 -14 -26
-37 -45 -51 -39 -29 -68 -89 -84 -175 -34 -182 -110 -700 -104 -706 5 -3 34
-25 65 -48 32 -23 58 -48 58 -55 0 -8 -7 -50 -15 -93 -8 -43 -15 -79 -15 -80
0 -2 65 -3 145 -3 l145 0 0 78 c1 42 5 138 11 212 5 74 13 241 18 370 5 129
13 247 19 261 13 32 42 46 57 27 8 -12 41 -11 196 3 102 9 202 19 221 23 l35
6 -14 52 c-7 29 -13 59 -13 68 0 8 -32 105 -70 215 -61 172 -83 220 -158 345
l-87 145 -103 10 -104 11 -78 -53z"/>
</g>
</svg>
