<?xml version="1.0" standalone="no"?>
<!DOCTYPE svg PUBLIC "-//W3C//DTD SVG 20010904//EN"
 "http://www.w3.org/TR/2001/REC-SVG-20010904/DTD/svg10.dtd">
<svg version="1.0" xmlns="http://www.w3.org/2000/svg"
 width="74.000000pt" height="71.000000pt" viewBox="0 0 74.000000 71.000000"
 preserveAspectRatio="xMidYMid meet">
<metadata>
Created by potrace 1.14, written by Peter Selinger 2001-2017
</metadata>
<g transform="translate(0.000000,71.000000) scale(0.100000,-0.100000)"
fill="#000000" stroke="none">
<path fill="#000000" stroke="none" d="M351 645 c-6 -33 -13 -83 -17 -111 l-6
-50 -102 -51 -101 -50 -62 -113 c-58 -104 -62 -114 -45 -126 9 -7 60 -43 113
-79 l95 -66 190 45 c104 24 210 50 237 56 l47 12 0 227 c0 205 2 233 21 290
12 34 20 64 18 66 -2 2 -88 5 -191 7 l-187 3 -10 -60z"/>
</g>
</svg>
