<?xml version="1.0" standalone="no"?>
<!DOCTYPE svg PUBLIC "-//W3C//DTD SVG 20010904//EN"
 "http://www.w3.org/TR/2001/REC-SVG-20010904/DTD/svg10.dtd">
<svg version="1.0" xmlns="http://www.w3.org/2000/svg"
 width="34.000000pt" height="93.000000pt" viewBox="0 0 34.000000 93.000000"
 preserveAspectRatio="xMidYMid meet">
<metadata>
Created by potrace 1.14, written by Peter Selinger 2001-2017
</metadata>
<g transform="translate(0.000000,93.000000) scale(0.100000,-0.100000)"
fill="#000000" stroke="none">
<path fill="#000000" stroke="none" d="M183 917 c-17 -7 -40 -23 -51 -37 -17
-22 -18 -33 -11 -85 4 -33 7 -60 6 -61 -1 0 -19 -13 -40 -29 -67 -50 -99 -143
-72 -208 8 -20 17 -67 19 -104 6 -94 26 -244 36 -268 4 -12 43 -41 86 -66 99
-57 118 -65 110 -43 -3 8 -6 67 -6 130 l0 114 -38 38 c-50 50 -57 90 -32 179
14 48 30 77 56 104 34 35 36 40 25 67 -11 26 -9 32 17 60 23 25 32 46 40 99 6
43 6 72 0 80 -8 10 -93 44 -107 42 -3 0 -20 -6 -38 -12z"/>
</g>
</svg>
