<?xml version="1.0" standalone="no"?>
<!DOCTYPE svg PUBLIC "-//W3C//DTD SVG 20010904//EN"
 "http://www.w3.org/TR/2001/REC-SVG-20010904/DTD/svg10.dtd">
<svg version="1.0" xmlns="http://www.w3.org/2000/svg"
 width="75.000000pt" height="247.000000pt" viewBox="0 0 75.000000 247.000000"
 preserveAspectRatio="xMidYMid meet">
<metadata>
Created by potrace 1.14, written by Peter Selinger 2001-2017
</metadata>
<g transform="translate(0.000000,247.000000) scale(0.100000,-0.100000)"
fill="#000000" stroke="none">
<path fill="#000000" stroke="none" d="M5 1240 c4 -679 7 -1235 8 -1235 10 -3
457 21 460 25 26 28 80 170 107 280 18 74 39 142 47 151 7 9 25 74 39 145 13
71 29 145 35 166 21 79 49 256 49 311 0 66 -62 282 -106 369 -15 29 -48 132
-75 230 -47 172 -80 258 -98 258 -5 0 -23 35 -40 78 -31 74 -37 81 -156 187
-80 70 -125 117 -125 130 0 30 -10 41 -60 65 -25 13 -56 34 -68 49 l-24 26 7
-1235z"/>
</g>
</svg>
