<?xml version="1.0" standalone="no"?>
<!DOCTYPE svg PUBLIC "-//W3C//DTD SVG 20010904//EN"
 "http://www.w3.org/TR/2001/REC-SVG-20010904/DTD/svg10.dtd">
<svg version="1.0" xmlns="http://www.w3.org/2000/svg"
 width="48.000000pt" height="46.000000pt" viewBox="0 0 48.000000 46.000000"
 preserveAspectRatio="xMidYMid meet">
<metadata>
Created by potrace 1.14, written by Peter Selinger 2001-2017
</metadata>
<g transform="translate(0.000000,46.000000) scale(0.100000,-0.100000)"
fill="#000000" stroke="none">
<path fill="#000000" stroke="none" d="M135 435 c-86 -41 -93 -51 -106 -140
-6 -44 -8 -95 -5 -113 4 -29 2 -33 -12 -28 -10 4 -8 -1 7 -12 13 -11 65 -27
120 -37 108 -20 141 -29 259 -74 74 -27 82 -29 82 -13 0 12 -19 28 -57 46 -32
15 -71 39 -86 52 -26 22 -28 27 -18 56 6 17 11 61 11 98 l0 68 -59 61 c-32 33
-65 61 -72 60 -8 0 -36 -11 -64 -24z"/>
</g>
</svg>
