<?xml version="1.0" standalone="no"?>
<!DOCTYPE svg PUBLIC "-//W3C//DTD SVG 20010904//EN"
 "http://www.w3.org/TR/2001/REC-SVG-20010904/DTD/svg10.dtd">
<svg version="1.0" xmlns="http://www.w3.org/2000/svg"
 width="66.000000pt" height="257.000000pt" viewBox="0 0 66.000000 257.000000"
 preserveAspectRatio="xMidYMid meet">
<metadata>
Created by potrace 1.14, written by Peter Selinger 2001-2017
</metadata>
<g transform="translate(0.000000,257.000000) scale(0.100000,-0.100000)"
fill="#000000" stroke="none">
<path fill="#000000" stroke="none" d="M340 2560 c-94 -13 -159 -50 -180 -101
-10 -23 -7 -42 14 -116 34 -112 75 -201 96 -208 10 -3 22 -15 27 -28 8 -18 3
-36 -31 -98 -36 -68 -47 -80 -95 -105 -49 -26 -61 -39 -108 -119 -41 -71 -53
-99 -53 -133 0 -37 3 -43 18 -38 9 2 31 7 47 11 17 3 64 28 105 55 71 47 79
50 141 50 76 0 138 19 258 79 l84 43 -66 66 -66 67 6 90 c5 79 10 97 39 146
22 37 34 69 34 94 0 45 -82 209 -116 232 -29 19 -83 24 -154 13z"/>
<path fill="#000000" stroke="none" d="M370 1470 c-25 -4 -61 -13 -80 -22 -19
-8 -64 -18 -99 -22 -49 -6 -73 -15 -106 -39 l-42 -32 -12 -120 c-6 -66 -12
-183 -12 -260 -1 -77 -4 -185 -8 -240 -7 -98 -6 -107 56 -395 34 -162 65 -305
68 -317 5 -19 12 -23 48 -23 l42 0 59 238 c32 130 93 345 136 477 69 213 209
740 199 749 -8 7 -207 12 -249 6z"/>
</g>
</svg>
