<?xml version="1.0" standalone="no"?>
<!DOCTYPE svg PUBLIC "-//W3C//DTD SVG 20010904//EN"
 "http://www.w3.org/TR/2001/REC-SVG-20010904/DTD/svg10.dtd">
<svg version="1.0" xmlns="http://www.w3.org/2000/svg"
 width="36.000000pt" height="31.000000pt" viewBox="0 0 36.000000 31.000000"
 preserveAspectRatio="xMidYMid meet">
<metadata>
Created by potrace 1.14, written by Peter Selinger 2001-2017
</metadata>
<g transform="translate(0.000000,31.000000) scale(0.100000,-0.100000)"
fill="#000000" stroke="none">
<path fill="#000000" stroke="none" d="M197 279 l-37 -30 15 -37 c20 -47 15
-58 -32 -65 -29 -5 -51 -20 -93 -62 l-54 -55 59 5 c42 4 84 0 137 -13 l77 -19
24 26 c13 14 34 41 46 58 l22 33 -34 0 c-44 0 -50 15 -41 97 10 97 -20 119
-89 62z"/>
</g>
</svg>
