<?xml version="1.0" standalone="no"?>
<!DOCTYPE svg PUBLIC "-//W3C//DTD SVG 20010904//EN"
 "http://www.w3.org/TR/2001/REC-SVG-20010904/DTD/svg10.dtd">
<svg version="1.0" xmlns="http://www.w3.org/2000/svg"
 width="36.000000pt" height="57.000000pt" viewBox="0 0 36.000000 57.000000"
 preserveAspectRatio="xMidYMid meet">
<metadata>
Created by potrace 1.14, written by Peter Selinger 2001-2017
</metadata>
<g transform="translate(0.000000,57.000000) scale(0.100000,-0.100000)"
fill="#000000" stroke="none">
<path fill="#000000" stroke="none" d="M230 557 c-10 -8 -15 -31 -15 -71 0
-52 -3 -61 -28 -79 l-27 -21 -64 34 c-55 29 -66 32 -80 21 -21 -17 -20 -41 5
-219 20 -144 21 -148 56 -184 l36 -37 19 25 c17 21 18 29 8 59 -13 41 -8 65
15 65 11 0 15 -12 15 -52 0 -86 6 -98 51 -98 l38 0 37 118 c20 64 43 137 50
162 8 25 14 88 14 141 l0 95 -52 24 c-29 13 -55 25 -58 26 -3 2 -12 -2 -20 -9z"/>
</g>
</svg>
