<?xml version="1.0" standalone="no"?>
<!DOCTYPE svg PUBLIC "-//W3C//DTD SVG 20010904//EN"
 "http://www.w3.org/TR/2001/REC-SVG-20010904/DTD/svg10.dtd">
<svg version="1.0" xmlns="http://www.w3.org/2000/svg"
 width="37.000000pt" height="171.000000pt" viewBox="0 0 37.000000 171.000000"
 preserveAspectRatio="xMidYMid meet">
<metadata>
Created by potrace 1.14, written by Peter Selinger 2001-2017
</metadata>
<g transform="translate(0.000000,171.000000) scale(0.100000,-0.100000)"
fill="#000000" stroke="none">
<path fill="#000000" stroke="none" d="M39 1693 l-27 -16 -7 -631 -7 -631 48
-200 c26 -110 49 -202 51 -205 2 -2 7 0 11 6 4 6 29 14 56 17 39 6 55 3 80
-12 27 -17 37 -18 74 -8 23 6 42 14 42 17 0 4 -27 19 -60 35 l-60 29 0 104 0
105 52 -7 51 -7 -7 200 c-7 198 -6 201 14 201 24 0 25 10 5 113 -11 55 -22 85
-40 105 -32 34 -42 68 -60 220 -18 145 -23 157 -80 238 -44 61 -47 74 -16 74
12 0 16 10 16 38 0 20 4 56 9 79 7 41 6 43 -46 97 -30 31 -58 56 -64 56 -5 0
-21 -8 -35 -17z"/>
</g>
</svg>
