<?xml version="1.0" standalone="no"?>
<!DOCTYPE svg PUBLIC "-//W3C//DTD SVG 20010904//EN"
 "http://www.w3.org/TR/2001/REC-SVG-20010904/DTD/svg10.dtd">
<svg version="1.0" xmlns="http://www.w3.org/2000/svg"
 width="39.000000pt" height="103.000000pt" viewBox="0 0 39.000000 103.000000"
 preserveAspectRatio="xMidYMid meet">
<metadata>
Created by potrace 1.14, written by Peter Selinger 2001-2017
</metadata>
<g transform="translate(0.000000,103.000000) scale(0.100000,-0.100000)"
fill="#000000" stroke="none">
<path fill="#000000" stroke="none" d="M234 963 c-101 -67 -102 -69 -143 -151
l-41 -83 15 -94 c32 -202 31 -242 -15 -429 -22 -93 -39 -170 -37 -172 1 -2 14
26 27 62 23 59 36 76 135 168 61 57 134 115 163 130 l52 26 0 305 0 305 -27 0
c-18 0 -66 -25 -129 -67z"/>
</g>
</svg>
