<?xml version="1.0" standalone="no"?>
<!DOCTYPE svg PUBLIC "-//W3C//DTD SVG 20010904//EN"
 "http://www.w3.org/TR/2001/REC-SVG-20010904/DTD/svg10.dtd">
<svg version="1.0" xmlns="http://www.w3.org/2000/svg"
 width="153.000000pt" height="425.000000pt" viewBox="0 0 153.000000 425.000000"
 preserveAspectRatio="xMidYMid meet">
<metadata>
Created by potrace 1.14, written by Peter Selinger 2001-2017
</metadata>
<g transform="translate(0.000000,425.000000) scale(0.100000,-0.100000)"
fill="#000000" stroke="none">
<path fill="#000000" stroke="none" d="M575 4239 c-280 -4 -517 -5 -527 -3
-14 4 -17 -9 -22 -98 -20 -351 -16 -542 28 -1453 l43 -910 -40 -75 -40 -75 7
-223 c5 -186 4 -233 -9 -283 -15 -56 -15 -65 0 -110 14 -42 20 -48 38 -44 12
3 51 11 85 19 l64 15 33 -72 33 -71 -101 -150 c-95 -142 -102 -156 -133 -270
-32 -113 -34 -129 -34 -278 l0 -157 132 86 c98 63 161 114 240 191 l108 106
192 -37 c106 -21 207 -38 223 -37 l30 0 130 348 c72 191 129 350 128 354 -1 3
8 218 21 476 l24 470 -68 509 -69 508 -99 220 -99 220 -61 35 c-33 20 -63 38
-67 41 -3 3 14 87 37 186 l41 181 64 -39 64 -39 47 31 c26 18 49 34 51 35 2 2
-4 35 -14 74 -16 64 -21 72 -57 94 l-40 24 28 5 c52 10 226 27 383 37 85 6
157 12 159 15 3 2 -9 37 -26 77 l-30 73 -194 1 c-106 0 -422 -3 -703 -7z"/>
</g>
</svg>
