<?xml version="1.0" standalone="no"?>
<!DOCTYPE svg PUBLIC "-//W3C//DTD SVG 20010904//EN"
 "http://www.w3.org/TR/2001/REC-SVG-20010904/DTD/svg10.dtd">
<svg version="1.0" xmlns="http://www.w3.org/2000/svg"
 width="92.000000pt" height="170.000000pt" viewBox="0 0 92.000000 170.000000"
 preserveAspectRatio="xMidYMid meet">
<metadata>
Created by potrace 1.14, written by Peter Selinger 2001-2017
</metadata>
<g transform="translate(0.000000,170.000000) scale(0.100000,-0.100000)"
fill="#000000" stroke="none">
<path fill="#000000" stroke="none" d="M494 1692 c-23 -15 -35 -54 -41 -134
-6 -78 -8 -84 -47 -126 -23 -26 -40 -52 -38 -63 2 -10 -4 -32 -13 -48 -10 -21
-20 -90 -29 -214 -8 -101 -19 -194 -26 -206 -7 -15 -9 -44 -5 -84 5 -47 0 -95
-19 -194 -25 -130 -27 -136 -111 -287 -47 -84 -103 -174 -125 -199 -22 -25
-40 -47 -40 -49 0 -2 21 -20 48 -40 39 -30 58 -37 115 -43 87 -9 111 5 71 42
-47 44 -33 78 106 259 67 88 126 160 129 162 7 2 156 -353 181 -430 l12 -38
71 1 c40 1 97 4 127 7 53 7 55 8 58 38 3 30 1 32 -46 43 -46 12 -50 15 -70 64
-23 55 -43 135 -97 386 -29 135 -31 157 -20 184 11 27 10 37 -8 76 -15 35 -19
64 -18 121 3 103 -24 297 -56 404 l-26 90 24 19 c67 52 71 58 64 84 -3 14 -1
31 5 38 7 9 6 21 -5 41 -8 16 -15 38 -15 49 0 12 -12 28 -29 38 -29 17 -107
23 -127 9z"/>
</g>
</svg>
