<?xml version="1.0" standalone="no"?>
<!DOCTYPE svg PUBLIC "-//W3C//DTD SVG 20010904//EN"
 "http://www.w3.org/TR/2001/REC-SVG-20010904/DTD/svg10.dtd">
<svg version="1.0" xmlns="http://www.w3.org/2000/svg"
 width="209.000000pt" height="399.000000pt" viewBox="0 0 209.000000 399.000000"
 preserveAspectRatio="xMidYMid meet">
<metadata>
Created by potrace 1.14, written by Peter Selinger 2001-2017
</metadata>
<g transform="translate(0.000000,399.000000) scale(0.100000,-0.100000)"
fill="#000000" stroke="none">
<path fill="#000000" stroke="none" d="M1018 3946 l-146 -41 -116 -170 -116
-169 -79 -246 c-44 -135 -94 -303 -112 -375 -18 -71 -36 -135 -40 -141 -5 -5
-40 -27 -78 -48 -98 -54 -161 -114 -237 -223 l-66 -94 17 -202 17 -202 93
-335 c51 -184 102 -351 114 -371 20 -34 20 -38 6 -115 -8 -43 -48 -171 -90
-283 -90 -244 -97 -274 -125 -511 -25 -224 -27 -233 -44 -227 -13 5 -13 -47 0
-151 l5 -42 1035 0 c1007 0 1034 0 1034 19 0 14 -10 21 -35 25 -19 4 -35 12
-35 18 0 6 12 72 26 147 26 133 26 139 15 321 -7 102 -25 349 -41 550 -16 201
-34 491 -40 645 -10 255 -14 295 -46 453 -21 102 -47 198 -64 236 l-28 64 24
174 24 175 -44 186 c-46 188 -118 453 -136 495 -17 39 -203 262 -292 349 -74
74 -91 85 -157 108 -41 14 -79 24 -85 24 -6 -1 -77 -20 -158 -43z"/>
<path fill="#ffffff" stroke="none" d="M792 3089 c-32 -19 -38 -7 -22 37 l11
29 19 -25 c18 -24 18 -24 -8 -41z"/>
<path fill="#ffffff" stroke="none" d="M964 2928 c3 -7 7 -47 10 -89 5 -74 5
-76 -20 -88 -57 -25 -80 -3 -91 89 -4 36 -1 50 17 73 23 29 77 38 84 15z"/>
<path fill="#ffffff" stroke="none" d="M659 2594 c5 -5 -133 -554 -139 -554
-7 0 -145 579 -139 583 2 2 24 15 48 29 l43 26 92 -40 c50 -23 93 -42 95 -44z"/>
<path fill="#ffffff" stroke="none" d="M1646 2538 l70 -31 58 -234 58 -234
-58 -145 c-32 -80 -60 -142 -61 -137 -2 8 -240 814 -249 846 -5 15 2 14 53 -9
32 -14 90 -39 129 -56z"/>
</g>
</svg>
