<?xml version="1.0" standalone="no"?>
<!DOCTYPE svg PUBLIC "-//W3C//DTD SVG 20010904//EN"
 "http://www.w3.org/TR/2001/REC-SVG-20010904/DTD/svg10.dtd">
<svg version="1.0" xmlns="http://www.w3.org/2000/svg"
 width="53.000000pt" height="107.000000pt" viewBox="0 0 53.000000 107.000000"
 preserveAspectRatio="xMidYMid meet">
<metadata>
Created by potrace 1.14, written by Peter Selinger 2001-2017
</metadata>
<g transform="translate(0.000000,107.000000) scale(0.100000,-0.100000)"
fill="#000000" stroke="none">
<path fill="#000000" stroke="none" d="M242 1059 c-35 -9 -46 -17 -62 -50
l-20 -39 25 -73 c44 -126 45 -128 32 -131 -7 -2 -39 -11 -72 -22 -65 -20 -63
-18 -120 -145 -15 -33 -25 -74 -25 -101 l0 -45 50 -7 50 -7 0 -48 c0 -27 -9
-68 -20 -92 -28 -63 -26 -79 11 -79 16 0 61 -5 99 -11 57 -10 74 -17 102 -46
31 -32 33 -38 31 -99 -1 -48 2 -64 12 -64 9 0 16 17 20 48 16 127 14 121 53
132 21 5 45 10 54 10 9 0 29 5 43 12 36 16 33 56 -11 158 l-36 84 21 60 c14
40 21 85 21 131 0 66 -2 71 -36 106 -31 32 -34 40 -25 58 9 15 9 32 1 59 -5
20 -10 57 -10 82 0 40 -5 51 -38 83 -43 42 -82 52 -150 36z"/>
</g>
</svg>
