<?xml version="1.0" standalone="no"?>
<!DOCTYPE svg PUBLIC "-//W3C//DTD SVG 20010904//EN"
 "http://www.w3.org/TR/2001/REC-SVG-20010904/DTD/svg10.dtd">
<svg version="1.0" xmlns="http://www.w3.org/2000/svg"
 width="10.000000pt" height="24.000000pt" viewBox="0 0 10.000000 24.000000"
 preserveAspectRatio="xMidYMid meet">
<metadata>
Created by potrace 1.14, written by Peter Selinger 2001-2017
</metadata>
<g transform="translate(0.000000,24.000000) scale(0.100000,-0.100000)"
fill="#000000" stroke="none">
<path fill="#000000" stroke="none" d="M15 230 c-3 -5 -4 -14 -1 -19 3 -4 1
-23 -4 -42 -8 -27 -7 -41 7 -67 14 -26 15 -36 6 -51 -10 -15 -8 -22 6 -35 18
-16 19 -15 24 16 11 66 25 113 26 91 0 -13 6 -23 12 -23 18 0 -14 87 -38 103
-7 4 -10 14 -7 22 7 17 -21 21 -31 5z"/>
</g>
</svg>
