<?xml version="1.0" standalone="no"?>
<!DOCTYPE svg PUBLIC "-//W3C//DTD SVG 20010904//EN"
 "http://www.w3.org/TR/2001/REC-SVG-20010904/DTD/svg10.dtd">
<svg version="1.0" xmlns="http://www.w3.org/2000/svg"
 width="20.000000pt" height="39.000000pt" viewBox="0 0 20.000000 39.000000"
 preserveAspectRatio="xMidYMid meet">
<metadata>
Created by potrace 1.14, written by Peter Selinger 2001-2017
</metadata>
<g transform="translate(0.000000,39.000000) scale(0.100000,-0.100000)"
fill="#000000" stroke="none">
<path fill="#000000" stroke="none" d="M62 378 c-7 -7 -12 -22 -12 -34 0 -12
-11 -29 -25 -38 -29 -19 -31 -33 -11 -73 24 -46 28 -65 31 -139 3 -83 7 -94
40 -94 30 0 45 41 24 67 -12 14 -12 16 1 11 8 -2 17 -15 20 -29 8 -34 55 -40
65 -8 5 15 2 26 -7 33 -8 6 -13 17 -10 24 2 7 -3 21 -12 31 -16 17 -16 24 -1
87 l16 69 -30 26 c-17 14 -31 33 -31 42 0 9 -9 21 -19 27 -24 13 -24 13 -39
-2z"/>
</g>
</svg>
