<?xml version="1.0" standalone="no"?>
<!DOCTYPE svg PUBLIC "-//W3C//DTD SVG 20010904//EN"
 "http://www.w3.org/TR/2001/REC-SVG-20010904/DTD/svg10.dtd">
<svg version="1.0" xmlns="http://www.w3.org/2000/svg"
 width="214.000000pt" height="278.000000pt" viewBox="0 0 214.000000 278.000000"
 preserveAspectRatio="xMidYMid meet">
<metadata>
Created by potrace 1.14, written by Peter Selinger 2001-2017
</metadata>
<g transform="translate(0.000000,278.000000) scale(0.100000,-0.100000)"
fill="#000000" stroke="none">
<path fill="#000000" stroke="none" d="M203 2739 c3 -24 0 -58 -8 -80 -18 -49
-35 -213 -35 -325 0 -80 2 -86 47 -168 25 -47 54 -88 62 -90 9 -3 57 -14 106
-26 l90 -21 -4 -42 c-2 -30 -17 -60 -49 -106 l-46 -64 -85 7 c-54 4 -88 11
-93 20 -25 44 -44 55 -115 61 l-72 7 36 -80 c35 -79 37 -81 90 -101 30 -12 71
-24 91 -27 30 -5 48 -20 95 -74 l57 -68 -34 -159 -34 -158 18 -117 c10 -65 21
-122 24 -127 4 -5 31 -24 60 -41 70 -39 179 -162 292 -327 48 -70 133 -186
188 -256 90 -114 115 -139 231 -225 72 -53 155 -110 185 -126 l55 -29 57 29
56 29 -18 57 c-10 31 -32 75 -49 97 l-32 40 -85 3 -86 3 -91 191 c-51 105
-161 312 -244 461 -84 149 -153 277 -153 284 0 13 48 99 55 99 2 0 109 -64
236 -142 213 -130 261 -165 581 -425 l350 -283 74 0 74 0 0 54 c0 38 9 75 30
124 17 39 30 75 30 80 0 5 -38 32 -84 60 l-84 50 -29 -34 -28 -35 -95 74 c-52
41 -142 125 -200 187 -80 86 -151 148 -303 263 -110 83 -203 160 -209 172 -5
11 -38 36 -74 55 -61 33 -64 37 -64 72 0 26 8 47 28 70 33 40 82 114 82 126 0
5 -12 19 -26 33 -21 20 -24 29 -19 59 4 19 10 39 15 43 4 5 39 -5 76 -21 38
-17 70 -30 71 -28 1 1 -9 44 -22 96 l-24 94 19 93 20 94 -39 104 c-35 92 -106
218 -134 237 -6 3 -53 9 -106 13 l-97 7 -88 -41 -88 -41 7 -97 c9 -120 9 -121
7 -209 l-2 -71 -162 38 c-90 21 -166 39 -170 39 -5 0 -8 66 -8 148 0 85 -7
201 -17 276 l-17 129 -33 13 c-45 19 -46 19 -40 -27z"/>
</g>
</svg>
