<?xml version="1.0" standalone="no"?>
<!DOCTYPE svg PUBLIC "-//W3C//DTD SVG 20010904//EN"
 "http://www.w3.org/TR/2001/REC-SVG-20010904/DTD/svg10.dtd">
<svg version="1.0" xmlns="http://www.w3.org/2000/svg"
 width="43.000000pt" height="68.000000pt" viewBox="0 0 43.000000 68.000000"
 preserveAspectRatio="xMidYMid meet">
<metadata>
Created by potrace 1.14, written by Peter Selinger 2001-2017
</metadata>
<g transform="translate(0.000000,68.000000) scale(0.100000,-0.100000)"
fill="#000000" stroke="none">
<path fill="#000000" stroke="none" d="M198 663 l-58 -15 0 -89 0 -88 -35 -25
c-19 -15 -50 -37 -69 -50 l-33 -25 33 -96 c29 -82 34 -111 34 -186 l0 -89 156
0 c143 0 155 1 150 18 -15 48 -7 119 22 190 l31 72 -29 66 c-22 48 -33 93 -41
174 l-12 110 -37 25 c-41 28 -36 28 -112 8z"/>
</g>
</svg>
