<?xml version="1.0" standalone="no"?>
<!DOCTYPE svg PUBLIC "-//W3C//DTD SVG 20010904//EN"
 "http://www.w3.org/TR/2001/REC-SVG-20010904/DTD/svg10.dtd">
<svg version="1.0" xmlns="http://www.w3.org/2000/svg"
 width="19.000000pt" height="28.000000pt" viewBox="0 0 19.000000 28.000000"
 preserveAspectRatio="xMidYMid meet">
<metadata>
Created by potrace 1.14, written by Peter Selinger 2001-2017
</metadata>
<g transform="translate(0.000000,28.000000) scale(0.100000,-0.100000)"
fill="#000000" stroke="none">
<path fill="#000000" stroke="none" d="M84 270 c-26 -10 -34 -29 -23 -55 15
-38 10 -56 -20 -66 -24 -8 -30 -17 -34 -52 -5 -30 -2 -45 8 -53 8 -6 15 -16
15 -23 0 -7 20 -11 54 -11 30 0 61 -3 70 -6 11 -4 16 0 16 14 0 12 5 24 10 27
20 12 10 57 -18 83 -27 25 -28 29 -16 57 19 43 17 73 -5 85 -23 12 -29 12 -57
0z"/>
</g>
</svg>
