<?xml version="1.0" standalone="no"?>
<!DOCTYPE svg PUBLIC "-//W3C//DTD SVG 20010904//EN"
 "http://www.w3.org/TR/2001/REC-SVG-20010904/DTD/svg10.dtd">
<svg version="1.0" xmlns="http://www.w3.org/2000/svg"
 width="61.000000pt" height="178.000000pt" viewBox="0 0 61.000000 178.000000"
 preserveAspectRatio="xMidYMid meet">
<metadata>
Created by potrace 1.14, written by Peter Selinger 2001-2017
</metadata>
<g transform="translate(0.000000,178.000000) scale(0.100000,-0.100000)"
fill="#000000" stroke="none">
<path fill="#000000" stroke="none" d="M171 1636 c-72 -140 -73 -142 -81 -246
-29 -337 -79 -1045 -84 -1162 l-5 -137 40 -12 c21 -7 41 -10 42 -8 2 2 20 123
41 269 21 146 40 277 43 293 5 25 11 20 87 -84 l81 -111 5 -210 c6 -240 6
-241 79 -219 l41 12 0 169 c0 93 -5 215 -11 272 -13 114 -18 101 63 164 24 19
29 35 47 140 11 65 27 209 35 319 l15 200 -78 80 c-43 44 -92 104 -110 133
l-32 53 7 104 7 104 -34 5 c-19 3 -54 7 -79 9 l-45 4 -74 -141z"/>
</g>
</svg>
