<?xml version="1.0" standalone="no"?>
<!DOCTYPE svg PUBLIC "-//W3C//DTD SVG 20010904//EN"
 "http://www.w3.org/TR/2001/REC-SVG-20010904/DTD/svg10.dtd">
<svg version="1.0" xmlns="http://www.w3.org/2000/svg"
 width="104.000000pt" height="107.000000pt" viewBox="0 0 104.000000 107.000000"
 preserveAspectRatio="xMidYMid meet">
<metadata>
Created by potrace 1.14, written by Peter Selinger 2001-2017
</metadata>
<g transform="translate(0.000000,107.000000) scale(0.100000,-0.100000)"
fill="#000000" stroke="none">
<path fill="#000000" stroke="none" d="M577 1041 c-68 -60 -88 -108 -93 -229
-3 -59 -7 -117 -10 -129 -6 -30 -44 -32 -44 -3 0 23 -1 24 -51 8 -22 -6 -39
-17 -39 -23 0 -16 -53 -27 -61 -13 -18 28 -177 -234 -233 -384 -42 -113 -47
-134 -44 -195 3 -57 6 -68 20 -67 9 1 240 59 512 130 l495 129 5 55 c8 70 -21
188 -49 204 -11 6 -53 34 -95 61 l-75 50 6 45 c4 25 17 93 29 153 l22 107 -32
40 c-49 62 -78 78 -156 85 -69 7 -71 7 -107 -24z"/>
</g>
</svg>
