<?xml version="1.0" standalone="no"?>
<!DOCTYPE svg PUBLIC "-//W3C//DTD SVG 20010904//EN"
 "http://www.w3.org/TR/2001/REC-SVG-20010904/DTD/svg10.dtd">
<svg version="1.0" xmlns="http://www.w3.org/2000/svg"
 width="71.000000pt" height="171.000000pt" viewBox="0 0 71.000000 171.000000"
 preserveAspectRatio="xMidYMid meet">
<metadata>
Created by potrace 1.14, written by Peter Selinger 2001-2017
</metadata>
<g transform="translate(0.000000,171.000000) scale(0.100000,-0.100000)"
fill="#000000" stroke="none">
<path fill="#000000" stroke="none" d="M245 1686 c-21 -32 -32 -72 -40 -151
l-7 -66 -53 -35 c-30 -21 -71 -62 -99 -100 l-47 -65 16 -182 c9 -100 18 -192
22 -205 l6 -23 31 30 c30 29 40 32 142 42 156 16 147 12 167 67 13 39 17 82
17 195 0 79 3 159 6 176 6 27 9 30 33 24 14 -3 27 -6 28 -7 1 -1 -2 -102 -6
-226 -4 -150 -3 -251 4 -302 6 -42 8 -75 3 -72 -4 3 -8 -10 -8 -29 0 -19 -3
-55 -6 -80 -6 -44 -9 -47 -50 -61 -24 -8 -107 -23 -184 -32 l-140 -17 0 -31
c0 -17 9 -112 20 -211 l19 -180 -55 -51 -54 -51 63 15 62 15 57 -36 56 -36 9
97 c4 53 7 163 7 244 l-1 147 38 -31 c38 -31 39 -33 39 -97 0 -36 -9 -108 -19
-159 l-18 -92 47 -34 48 -34 37 85 38 84 -11 187 c-10 177 -9 188 10 236 11
28 29 113 39 189 l19 139 90 95 89 96 -32 61 c-20 39 -64 92 -119 148 l-88 86
0 69 c0 42 -5 74 -12 81 -7 7 -13 20 -13 28 0 10 -30 28 -84 50 -47 19 -88 34
-93 34 -4 0 -15 -11 -23 -24z"/>
</g>
</svg>
