<?xml version="1.0" standalone="no"?>
<!DOCTYPE svg PUBLIC "-//W3C//DTD SVG 20010904//EN"
 "http://www.w3.org/TR/2001/REC-SVG-20010904/DTD/svg10.dtd">
<svg version="1.0" xmlns="http://www.w3.org/2000/svg"
 width="80.000000pt" height="109.000000pt" viewBox="0 0 80.000000 109.000000"
 preserveAspectRatio="xMidYMid meet">
<metadata>
Created by potrace 1.14, written by Peter Selinger 2001-2017
</metadata>
<g transform="translate(0.000000,109.000000) scale(0.100000,-0.100000)"
fill="#000000" stroke="none">
<path fill="#000000" stroke="none" d="M43 1023 l-43 -66 78 -54 c42 -30 78
-58 80 -63 2 -5 -4 -60 -12 -122 -22 -156 -24 -148 38 -188 47 -30 58 -42 79
-97 l25 -64 -18 -181 c-11 -101 -17 -184 -15 -186 2 -2 46 15 99 38 93 41 96
44 112 89 10 25 19 48 20 50 2 2 35 -4 74 -14 41 -10 75 -14 80 -9 10 10 161
337 157 339 -1 1 -55 15 -119 31 -65 15 -118 31 -118 34 0 3 29 28 65 54 36
26 65 53 65 59 -1 7 -28 41 -61 76 l-59 64 -49 -42 c-56 -47 -61 -48 -61 -22
0 10 -8 29 -18 42 -11 13 -22 37 -26 52 -4 19 -16 32 -35 38 -21 7 -47 37 -91
104 -66 100 -74 105 -164 105 -40 0 -42 -2 -83 -67z"/>
</g>
</svg>
