<?xml version="1.0" standalone="no"?>
<!DOCTYPE svg PUBLIC "-//W3C//DTD SVG 20010904//EN"
 "http://www.w3.org/TR/2001/REC-SVG-20010904/DTD/svg10.dtd">
<svg version="1.0" xmlns="http://www.w3.org/2000/svg"
 width="61.000000pt" height="81.000000pt" viewBox="0 0 61.000000 81.000000"
 preserveAspectRatio="xMidYMid meet">
<metadata>
Created by potrace 1.14, written by Peter Selinger 2001-2017
</metadata>
<g transform="translate(0.000000,81.000000) scale(0.100000,-0.100000)"
fill="#000000" stroke="none">
<path fill="#000000" stroke="none" d="M225 720 c-25 -50 -72 -126 -103 -169
-49 -65 -62 -92 -82 -167 -13 -49 -28 -95 -34 -103 -9 -12 -7 -13 12 -9 12 4
22 5 22 4 0 -2 -9 -52 -20 -112 -25 -140 -26 -138 12 -152 27 -10 36 -9 64 9
18 11 43 35 54 54 12 19 24 34 28 33 6 -1 123 50 130 56 1 2 -5 19 -13 40 -21
50 -11 80 48 150 l51 58 -17 48 c-24 67 -22 92 9 110 17 10 36 39 55 83 l29
68 -20 38 c-17 35 -23 39 -72 44 -109 14 -103 17 -153 -83z"/>
<path fill="#000000" stroke="none" d="M525 469 c-11 -7 -32 -22 -47 -34 l-26
-22 35 -17 c22 -11 38 -13 42 -7 3 5 19 13 34 16 26 7 57 48 45 60 -12 12 -65
14 -83 4z"/>
</g>
</svg>
