<?xml version="1.0" standalone="no"?>
<!DOCTYPE svg PUBLIC "-//W3C//DTD SVG 20010904//EN"
 "http://www.w3.org/TR/2001/REC-SVG-20010904/DTD/svg10.dtd">
<svg version="1.0" xmlns="http://www.w3.org/2000/svg"
 width="316.000000pt" height="81.000000pt" viewBox="0 0 316.000000 81.000000"
 preserveAspectRatio="xMidYMid meet">
<metadata>
Created by potrace 1.14, written by Peter Selinger 2001-2017
</metadata>
<g transform="translate(0.000000,81.000000) scale(0.100000,-0.100000)"
fill="#000000" stroke="none">
<path fill="#000000" stroke="none" d="M485 803 c-55 -6 -90 -42 -116 -120
-20 -61 -22 -63 -55 -63 -19 0 -34 -4 -34 -10 0 -13 -92 -13 -148 0 -40 10
-46 8 -87 -20 -25 -17 -45 -37 -45 -45 0 -18 39 -30 53 -16 8 8 15 0 27 -31
12 -34 22 -44 45 -49 42 -9 262 -9 370 0 70 6 132 3 278 -15 103 -13 346 -33
540 -45 335 -20 355 -20 418 -4 64 16 70 16 170 -4 57 -11 156 -25 219 -31
150 -14 157 -15 353 -62 139 -33 177 -46 220 -76 62 -42 80 -62 111 -122 16
-30 38 -53 66 -69 38 -21 42 -22 59 -6 15 12 17 23 11 48 -11 43 -38 118 -49
131 -4 6 -11 23 -13 38 -5 25 -3 26 13 14 36 -25 148 -169 154 -198 7 -28 9
-30 43 -24 45 7 52 18 52 91 0 33 5 78 10 100 11 48 -9 87 -75 141 -34 27 -65
41 -138 59 -53 13 -104 28 -114 33 -10 6 -97 24 -193 42 -96 17 -209 40 -252
51 -93 23 -88 23 -88 0 0 -58 -46 -70 -85 -22 -20 22 -35 29 -75 33 -61 6 -66
11 -54 46 9 26 8 27 -71 60 -167 71 -422 88 -590 40 l-70 -19 -84 31 c-47 17
-139 47 -205 66 -105 31 -123 34 -149 23 -17 -7 -60 -18 -96 -24 -59 -10 -76
-8 -156 12 -49 12 -99 22 -110 21 -11 -1 -38 -3 -60 -5z"/>
</g>
</svg>
