<?xml version="1.0" standalone="no"?>
<!DOCTYPE svg PUBLIC "-//W3C//DTD SVG 20010904//EN"
 "http://www.w3.org/TR/2001/REC-SVG-20010904/DTD/svg10.dtd">
<svg version="1.0" xmlns="http://www.w3.org/2000/svg"
 width="135.000000pt" height="251.000000pt" viewBox="0 0 135.000000 251.000000"
 preserveAspectRatio="xMidYMid meet">
<metadata>
Created by potrace 1.14, written by Peter Selinger 2001-2017
</metadata>
<g transform="translate(0.000000,251.000000) scale(0.100000,-0.100000)"
fill="#000000" stroke="none">
<path fill="#000000" stroke="none" d="M483 2486 l16 -24 -77 -21 c-42 -11
-89 -23 -104 -26 -41 -10 -102 -123 -216 -402 -88 -215 -98 -246 -93 -285 l6
-43 46 -3 c37 -2 66 6 149 43 56 25 104 45 106 45 1 0 8 -25 14 -55 18 -89 -9
-245 -71 -396 -27 -68 -49 -129 -49 -137 0 -8 27 -70 60 -139 32 -68 64 -148
69 -177 5 -28 16 -70 25 -92 11 -30 37 -290 38 -379 0 -20 -47 -210 -53 -215
-9 -7 -21 -60 -13 -60 3 0 139 -27 301 -61 162 -33 297 -58 300 -55 3 3 1 34
-4 70 -9 63 -7 74 43 252 54 191 58 199 116 272 l35 43 -34 147 c-31 136 -33
156 -28 262 10 193 10 194 61 218 24 12 44 26 44 32 0 5 -23 105 -51 222 l-51
212 23 116 c12 63 23 117 25 119 2 2 55 -38 120 -89 70 -56 114 -85 111 -74
-3 11 -9 71 -12 134 -6 101 -13 131 -54 248 l-46 134 -126 56 c-110 48 -130
61 -150 94 l-24 38 -234 0 -233 0 15 -24z"/>
</g>
</svg>
