<?xml version="1.0" standalone="no"?>
<!DOCTYPE svg PUBLIC "-//W3C//DTD SVG 20010904//EN"
 "http://www.w3.org/TR/2001/REC-SVG-20010904/DTD/svg10.dtd">
<svg version="1.0" xmlns="http://www.w3.org/2000/svg"
 width="33.000000pt" height="128.000000pt" viewBox="0 0 33.000000 128.000000"
 preserveAspectRatio="xMidYMid meet">
<metadata>
Created by potrace 1.14, written by Peter Selinger 2001-2017
</metadata>
<g transform="translate(0.000000,128.000000) scale(0.100000,-0.100000)"
fill="#000000" stroke="none">
<path fill="#000000" stroke="none" d="M145 1226 l-47 -56 11 -81 c6 -45 11
-127 11 -181 l0 -99 -60 -90 c-46 -68 -57 -91 -46 -95 8 -3 24 -1 35 6 18 9
21 8 21 -11 0 -12 -7 -30 -15 -39 -14 -15 -13 -21 9 -61 17 -31 32 -91 50
-202 23 -138 25 -166 15 -222 -9 -56 -14 -65 -33 -66 -34 -2 105 -28 150 -28
l42 -1 6 77 c3 43 13 283 23 534 l17 456 -71 107 -70 108 -48 -56z"/>
</g>
</svg>
