<?xml version="1.0" standalone="no"?>
<!DOCTYPE svg PUBLIC "-//W3C//DTD SVG 20010904//EN"
 "http://www.w3.org/TR/2001/REC-SVG-20010904/DTD/svg10.dtd">
<svg version="1.0" xmlns="http://www.w3.org/2000/svg"
 width="27.000000pt" height="72.000000pt" viewBox="0 0 27.000000 72.000000"
 preserveAspectRatio="xMidYMid meet">
<metadata>
Created by potrace 1.14, written by Peter Selinger 2001-2017
</metadata>
<g transform="translate(0.000000,72.000000) scale(0.100000,-0.100000)"
fill="#000000" stroke="none">
<path fill="#000000" stroke="none" d="M112 704 c-18 -12 -22 -22 -17 -43 5
-24 1 -31 -29 -52 -34 -23 -66 -74 -66 -106 0 -9 11 -31 25 -49 21 -27 25 -44
25 -96 0 -35 7 -115 16 -178 16 -125 16 -125 12 -155 -2 -16 3 -21 29 -23 29
-3 31 -1 38 37 5 29 2 46 -9 63 -23 32 -23 228 -1 228 16 0 65 -98 65 -130 0
-9 -9 -29 -20 -43 -15 -18 -20 -40 -20 -81 0 -31 4 -56 8 -56 16 0 42 36 42
57 0 11 13 40 30 64 35 51 36 66 11 178 -18 83 -18 85 2 118 18 32 19 39 7 91
-13 63 -33 92 -62 92 -14 0 -18 8 -18 40 0 29 -5 42 -19 50 -25 13 -22 13 -49
-6z"/>
<path fill="#ffffff" stroke="none" d="M216 385 c22 -34 10 -67 -23 -63 -14 2
-32 13 -40 25 -13 19 -12 24 6 42 27 27 37 26 57 -4z"/>
</g>
</svg>
