<?xml version="1.0" standalone="no"?>
<!DOCTYPE svg PUBLIC "-//W3C//DTD SVG 20010904//EN"
 "http://www.w3.org/TR/2001/REC-SVG-20010904/DTD/svg10.dtd">
<svg version="1.0" xmlns="http://www.w3.org/2000/svg"
 width="139.000000pt" height="298.000000pt" viewBox="0 0 139.000000 298.000000"
 preserveAspectRatio="xMidYMid meet">
<metadata>
Created by potrace 1.14, written by Peter Selinger 2001-2017
</metadata>
<g transform="translate(0.000000,298.000000) scale(0.100000,-0.100000)"
fill="#000000" stroke="none">
<path fill="#000000" stroke="none" d="M590 2973 c-33 -7 -107 -59 -121 -85
-7 -13 -10 -75 -8 -180 4 -157 4 -160 30 -182 14 -12 37 -42 52 -66 l26 -44
-26 -46 c-16 -29 -47 -61 -81 -85 -47 -33 -60 -49 -99 -130 -44 -91 -45 -95
-65 -289 -20 -185 -20 -199 -5 -232 10 -19 17 -46 17 -60 0 -37 -26 -91 -50
-106 -36 -22 -57 -70 -65 -143 -11 -116 -93 -402 -131 -455 -58 -82 -66 -107
-59 -169 6 -50 10 -59 45 -84 58 -41 101 -36 113 14 5 20 1 31 -18 49 -29 28
-30 37 -7 68 28 36 52 20 52 -34 0 -24 4 -44 9 -44 21 0 58 60 70 113 10 47
10 60 -3 85 -15 28 -14 30 30 73 24 24 73 86 109 139 l64 95 45 190 c25 105
48 209 52 233 4 23 10 42 13 42 14 0 111 -107 111 -122 0 -10 25 -50 55 -90
53 -70 55 -75 55 -136 0 -62 -3 -69 -106 -260 -76 -142 -117 -207 -146 -232
l-39 -35 -5 -150 c-3 -82 -17 -251 -30 -373 -14 -123 -24 -225 -22 -227 2 -1
78 -5 169 -9 l166 -7 31 68 c17 37 34 87 38 109 3 23 9 46 13 52 3 6 60 33
125 61 l120 50 46 -42 c25 -23 71 -85 103 -138 53 -88 97 -132 115 -114 4 3 8
518 10 1144 l4 1137 -128 56 c-71 31 -148 64 -172 74 -31 12 -48 27 -61 53
-28 54 -51 139 -51 187 0 24 -9 79 -19 123 -21 89 -47 121 -111 142 -38 12
-219 21 -260 12z"/>
</g>
</svg>
