<?xml version="1.0" standalone="no"?>
<!DOCTYPE svg PUBLIC "-//W3C//DTD SVG 20010904//EN"
 "http://www.w3.org/TR/2001/REC-SVG-20010904/DTD/svg10.dtd">
<svg version="1.0" xmlns="http://www.w3.org/2000/svg"
 width="175.000000pt" height="296.000000pt" viewBox="0 0 175.000000 296.000000"
 preserveAspectRatio="xMidYMid meet">
<metadata>
Created by potrace 1.14, written by Peter Selinger 2001-2017
</metadata>
<g transform="translate(0.000000,296.000000) scale(0.100000,-0.100000)"
fill="#000000" stroke="none">
<path fill="#000000" stroke="none" d="M492 2952 c-14 -2 -50 -36 -97 -93
l-75 -90 0 -189 0 -189 -56 -53 c-61 -57 -182 -229 -220 -312 -33 -73 -46
-246 -33 -424 8 -112 23 -190 80 -427 38 -159 74 -306 79 -325 8 -30 19 -40
67 -64 l58 -28 -44 39 c-25 21 -52 43 -60 50 -9 7 55 -15 142 -47 88 -33 199
-69 247 -81 64 -15 89 -25 93 -38 3 -13 27 -21 107 -35 68 -12 105 -15 112 -8
10 10 92 -12 143 -38 11 -6 60 -18 110 -28 l90 -18 -36 -24 c-20 -14 -34 -30
-32 -36 2 -7 -17 -20 -42 -30 -25 -9 -77 -38 -114 -64 -49 -34 -90 -52 -142
-65 -56 -14 -101 -36 -203 -100 l-131 -83 3 -43 c2 -24 13 -59 24 -76 l20 -33
119 0 c107 0 119 2 119 18 0 14 34 25 198 65 108 26 207 50 220 53 15 4 22 2
22 -7 0 -8 5 -31 11 -52 l10 -37 181 0 182 0 -26 28 c-14 15 -55 73 -91 128
l-65 101 98 98 98 97 11 86 11 85 -92 126 c-94 128 -99 140 -148 323 -9 33
-22 44 -118 102 -59 36 -119 81 -135 100 l-27 35 62 42 c35 23 82 58 106 77
33 26 63 39 125 52 123 28 163 45 233 101 l64 51 0 62 0 63 -152 -48 c-84 -26
-182 -61 -218 -77 -53 -24 -93 -32 -225 -46 -88 -10 -169 -20 -180 -22 -13 -3
-39 10 -76 38 -50 38 -60 53 -94 133 -22 50 -46 117 -56 151 -21 77 -48 127
-101 188 l-43 48 39 34 c40 35 89 54 139 54 22 0 31 7 43 35 7 19 14 49 14 67
0 19 9 41 23 56 21 22 22 32 21 151 -1 149 -6 161 -95 222 -32 21 -78 65 -103
97 -43 57 -46 59 -108 68 -35 5 -73 8 -86 6z"/>
</g>
</svg>
