<?xml version="1.0" standalone="no"?>
<!DOCTYPE svg PUBLIC "-//W3C//DTD SVG 20010904//EN"
 "http://www.w3.org/TR/2001/REC-SVG-20010904/DTD/svg10.dtd">
<svg version="1.0" xmlns="http://www.w3.org/2000/svg"
 width="28.000000pt" height="78.000000pt" viewBox="0 0 28.000000 78.000000"
 preserveAspectRatio="xMidYMid meet">
<metadata>
Created by potrace 1.14, written by Peter Selinger 2001-2017
</metadata>
<g transform="translate(0.000000,78.000000) scale(0.100000,-0.100000)"
fill="#000000" stroke="none">
<path fill="#000000" stroke="none" d="M142 767 c-25 -11 -37 -45 -27 -76 10
-33 -3 -44 -31 -26 -24 15 -24 15 -24 -23 0 -68 -29 -260 -45 -298 -14 -33
-14 -39 0 -61 9 -12 20 -23 25 -23 6 0 10 -29 10 -65 0 -70 17 -118 46 -129
26 -10 35 13 29 75 -6 58 1 93 16 83 5 -3 9 -49 9 -103 0 -70 4 -102 13 -110
11 -9 16 8 24 96 6 69 15 110 24 117 33 26 63 82 67 127 2 27 1 109 -3 182
l-7 135 -52 54 c-46 47 -55 53 -74 45z"/>
</g>
</svg>
