<?xml version="1.0" standalone="no"?>
<!DOCTYPE svg PUBLIC "-//W3C//DTD SVG 20010904//EN"
 "http://www.w3.org/TR/2001/REC-SVG-20010904/DTD/svg10.dtd">
<svg version="1.0" xmlns="http://www.w3.org/2000/svg"
 width="18.000000pt" height="41.000000pt" viewBox="0 0 18.000000 41.000000"
 preserveAspectRatio="xMidYMid meet">
<metadata>
Created by potrace 1.14, written by Peter Selinger 2001-2017
</metadata>
<g transform="translate(0.000000,41.000000) scale(0.100000,-0.100000)"
fill="#000000" stroke="none">
<path fill="#000000" stroke="none" d="M87 395 c-14 -10 -17 -21 -12 -44 4
-19 1 -40 -10 -61 -9 -17 -13 -35 -10 -41 4 -5 1 -16 -5 -24 -7 -8 -10 -27 -7
-42 6 -29 -22 -123 -35 -123 -17 0 -7 -40 13 -51 19 -10 25 -7 45 17 13 16 26
37 29 47 9 25 32 21 49 -10 l14 -27 11 39 c8 31 7 45 -4 69 -8 16 -15 47 -15
68 0 59 -21 177 -34 187 -7 6 -18 4 -29 -4z"/>
</g>
</svg>
