<?xml version="1.0" standalone="no"?>
<!DOCTYPE svg PUBLIC "-//W3C//DTD SVG 20010904//EN"
 "http://www.w3.org/TR/2001/REC-SVG-20010904/DTD/svg10.dtd">
<svg version="1.0" xmlns="http://www.w3.org/2000/svg"
 width="27.000000pt" height="87.000000pt" viewBox="0 0 27.000000 87.000000"
 preserveAspectRatio="xMidYMid meet">
<metadata>
Created by potrace 1.14, written by Peter Selinger 2001-2017
</metadata>
<g transform="translate(0.000000,87.000000) scale(0.100000,-0.100000)"
fill="#000000" stroke="none">
<path fill="#000000" stroke="none" d="M91 852 c-39 -21 -52 -42 -26 -42 14 0
16 -6 11 -34 -6 -30 -4 -35 16 -39 l23 -4 -22 -8 c-20 -6 -93 -113 -93 -136 0
-5 7 -9 15 -9 11 0 15 -12 15 -47 1 -27 7 -59 15 -73 10 -18 14 -60 15 -142 0
-117 0 -118 24 -118 19 0 24 -6 30 -38 3 -20 6 -52 6 -69 0 -31 2 -33 35 -33
19 0 38 -1 43 -2 4 -1 14 56 23 127 15 114 15 139 3 206 -14 74 -14 78 11 144
34 90 28 147 -20 190 -32 29 -33 32 -25 75 5 25 5 48 1 52 -17 18 -67 18 -100
0z"/>
<path fill="#000000" stroke="none" d="M173 31 c-18 -9 -33 -19 -33 -23 0 -5
27 -8 59 -8 45 0 60 4 65 16 8 20 8 20 -29 26 -16 2 -45 -3 -62 -11z"/>
</g>
</svg>
