<?xml version="1.0" standalone="no"?>
<!DOCTYPE svg PUBLIC "-//W3C//DTD SVG 20010904//EN"
 "http://www.w3.org/TR/2001/REC-SVG-20010904/DTD/svg10.dtd">
<svg version="1.0" xmlns="http://www.w3.org/2000/svg"
 width="381.000000pt" height="284.000000pt" viewBox="0 0 381.000000 284.000000"
 preserveAspectRatio="xMidYMid meet">
<metadata>
Created by potrace 1.14, written by Peter Selinger 2001-2017
</metadata>
<g transform="translate(0.000000,284.000000) scale(0.100000,-0.100000)"
fill="#000000" stroke="none">
<path fill="#000000" stroke="none" d="M0 2817 c0 -12 9 -337 20 -722 11 -385
20 -727 20 -760 l0 -59 43 40 c23 22 72 64 108 92 83 65 126 134 172 279 63
195 62 191 32 382 -27 179 -26 252 6 441 7 44 8 73 1 91 -14 34 -139 119 -237
158 -44 18 -99 43 -122 56 l-43 24 0 -22z"/>
<path fill="#000000" stroke="none" d="M3 868 c4 -84 10 -275 13 -425 l7 -272
76 -6 c218 -19 377 -62 473 -127 l57 -38 142 70 141 71 162 -28 161 -27 732 1
732 2 78 -31 c73 -28 84 -29 168 -23 50 3 107 11 127 17 30 9 58 7 133 -7 117
-22 272 -15 292 12 7 9 13 20 13 24 0 3 -55 29 -122 58 l-123 51 110 -6 c61
-3 115 -7 120 -8 6 -2 51 3 100 10 50 7 98 13 108 13 10 1 17 9 17 20 0 34
-180 91 -290 91 -43 0 -61 23 -30 40 10 5 75 10 144 10 103 0 135 4 178 21 84
33 91 42 83 119 -4 42 -12 69 -23 78 -32 24 -436 0 -597 -36 -213 -48 -292
-57 -505 -56 -234 2 -466 17 -603 39 -51 8 -199 42 -328 75 -221 56 -241 60
-354 60 -66 0 -217 9 -337 19 -214 19 -218 20 -390 76 -145 47 -202 72 -353
155 -163 89 -186 99 -249 105 l-69 7 6 -154z"/>
</g>
</svg>
