<?xml version="1.0" standalone="no"?>
<!DOCTYPE svg PUBLIC "-//W3C//DTD SVG 20010904//EN"
 "http://www.w3.org/TR/2001/REC-SVG-20010904/DTD/svg10.dtd">
<svg version="1.0" xmlns="http://www.w3.org/2000/svg"
 width="49.000000pt" height="88.000000pt" viewBox="0 0 49.000000 88.000000"
 preserveAspectRatio="xMidYMid meet">
<metadata>
Created by potrace 1.14, written by Peter Selinger 2001-2017
</metadata>
<g transform="translate(0.000000,88.000000) scale(0.100000,-0.100000)"
fill="#000000" stroke="none">
<path fill="#000000" stroke="none" d="M44 870 c-18 -6 -34 -17 -38 -25 -5
-15 17 -28 96 -54 21 -7 40 -16 43 -21 3 -5 -8 -43 -25 -86 -27 -66 -32 -97
-41 -223 -5 -80 -14 -209 -19 -285 -10 -134 -10 -141 9 -160 25 -25 24 -28 51
144 24 154 43 216 72 231 15 8 24 7 39 -7 16 -14 19 -31 19 -103 0 -47 -7
-113 -15 -146 -20 -82 -20 -78 29 -102 38 -19 46 -20 62 -8 16 11 19 28 20
102 1 48 5 117 9 152 7 60 10 64 42 78 26 10 33 18 28 31 -24 61 -15 102 38
166 l23 29 -18 84 c-10 47 -25 98 -34 115 -8 16 -14 41 -12 56 l3 27 -90 0
c-49 0 -128 4 -175 7 -49 5 -98 3 -116 -2z"/>
</g>
</svg>
