<?xml version="1.0" standalone="no"?>
<!DOCTYPE svg PUBLIC "-//W3C//DTD SVG 20010904//EN"
 "http://www.w3.org/TR/2001/REC-SVG-20010904/DTD/svg10.dtd">
<svg version="1.0" xmlns="http://www.w3.org/2000/svg"
 width="38.000000pt" height="43.000000pt" viewBox="0 0 38.000000 43.000000"
 preserveAspectRatio="xMidYMid meet">
<metadata>
Created by potrace 1.14, written by Peter Selinger 2001-2017
</metadata>
<g transform="translate(0.000000,43.000000) scale(0.100000,-0.100000)"
fill="#000000" stroke="none">
<path fill="#000000" stroke="none" d="M59 410 c-52 -27 -61 -42 -57 -97 3
-44 5 -48 31 -51 19 -2 27 -9 27 -22 0 -11 7 -23 15 -28 14 -7 13 -12 -6 -36
-19 -24 -59 -140 -59 -169 0 -14 150 3 220 25 132 41 150 51 150 79 0 34 -61
104 -135 154 -52 36 -73 69 -67 103 2 6 -2 12 -7 12 -6 0 -22 11 -37 25 -32
29 -29 29 -75 5z"/>
</g>
</svg>
