<?xml version="1.0" standalone="no"?>
<!DOCTYPE svg PUBLIC "-//W3C//DTD SVG 20010904//EN"
 "http://www.w3.org/TR/2001/REC-SVG-20010904/DTD/svg10.dtd">
<svg version="1.0" xmlns="http://www.w3.org/2000/svg"
 width="61.000000pt" height="136.000000pt" viewBox="0 0 61.000000 136.000000"
 preserveAspectRatio="xMidYMid meet">
<metadata>
Created by potrace 1.14, written by Peter Selinger 2001-2017
</metadata>
<g transform="translate(0.000000,136.000000) scale(0.100000,-0.100000)"
fill="#000000" stroke="none">
<path fill="#000000" stroke="none" d="M302 1345 c-18 -8 -44 -28 -58 -45 -14
-16 -32 -30 -40 -30 -7 0 -21 -17 -29 -37 -9 -21 -44 -65 -79 -98 l-63 -60
-17 -116 c-17 -107 -17 -118 -1 -155 9 -21 25 -48 36 -60 12 -13 16 -24 11
-28 -6 -4 -7 -20 -1 -43 5 -21 9 -77 9 -124 0 -73 5 -101 35 -183 33 -93 35
-103 35 -232 l0 -135 53 6 c76 9 74 8 82 74 4 34 8 61 9 61 0 0 48 -9 106 -20
58 -11 108 -20 111 -20 4 0 9 26 11 58 3 38 16 82 40 132 56 116 65 272 29
492 -33 196 -63 291 -121 377 -27 41 -50 85 -50 98 0 12 -4 23 -9 23 -5 0 -13
10 -17 23 -7 23 -33 57 -43 57 -3 -1 -21 -7 -39 -15z"/>
<path fill="#ffffff" stroke="none" d="M204 1141 c29 -32 101 -31 224 5 35 10
26 -12 -14 -37 -35 -21 -36 -23 -18 -36 17 -12 19 -28 19 -156 0 -117 -3 -148
-18 -174 -39 -71 -116 -89 -212 -50 -59 25 -60 26 -69 73 -6 35 -4 71 9 138
20 108 30 134 57 164 l21 22 -21 23 c-12 13 -22 29 -22 35 0 18 25 14 44 -7z"/>
</g>
</svg>
