<?xml version="1.0" standalone="no"?>
<!DOCTYPE svg PUBLIC "-//W3C//DTD SVG 20010904//EN"
 "http://www.w3.org/TR/2001/REC-SVG-20010904/DTD/svg10.dtd">
<svg version="1.0" xmlns="http://www.w3.org/2000/svg"
 width="39.000000pt" height="114.000000pt" viewBox="0 0 39.000000 114.000000"
 preserveAspectRatio="xMidYMid meet">
<metadata>
Created by potrace 1.14, written by Peter Selinger 2001-2017
</metadata>
<g transform="translate(0.000000,114.000000) scale(0.100000,-0.100000)"
fill="#000000" stroke="none">
<path fill="#000000" stroke="none" d="M173 1133 l-41 -4 -11 -61 c-6 -33 -17
-68 -25 -77 -9 -9 -33 -68 -55 -131 l-39 -113 28 -46 c18 -31 29 -66 33 -107
4 -34 20 -124 37 -200 17 -77 37 -188 44 -249 12 -97 12 -112 -2 -127 -14 -16
-13 -18 6 -18 12 0 43 5 71 11 l50 10 -16 42 c-20 58 -35 239 -20 249 33 21
37 9 37 -125 0 -117 2 -136 18 -150 19 -17 102 -24 102 -9 0 5 -6 55 -14 113
-23 159 -30 337 -17 384 6 22 16 103 22 181 l11 141 -47 93 c-49 98 -114 201
-124 198 -3 -1 -25 -3 -48 -5z"/>
<path fill="#ffffff" stroke="none" d="M210 844 c12 -31 6 -44 -21 -44 -27 0
-42 41 -21 58 23 18 31 15 42 -14z"/>
</g>
</svg>
