<?xml version="1.0" standalone="no"?>
<!DOCTYPE svg PUBLIC "-//W3C//DTD SVG 20010904//EN"
 "http://www.w3.org/TR/2001/REC-SVG-20010904/DTD/svg10.dtd">
<svg version="1.0" xmlns="http://www.w3.org/2000/svg"
 width="61.000000pt" height="150.000000pt" viewBox="0 0 61.000000 150.000000"
 preserveAspectRatio="xMidYMid meet">
<metadata>
Created by potrace 1.14, written by Peter Selinger 2001-2017
</metadata>
<g transform="translate(0.000000,150.000000) scale(0.100000,-0.100000)"
fill="#000000" stroke="none">
<path fill="#000000" stroke="none" d="M149 1487 c-19 -7 -36 -30 -59 -78 -28
-57 -32 -73 -26 -111 18 -112 19 -138 4 -138 -8 0 -27 -13 -42 -29 -27 -28
-27 -29 -13 -78 8 -27 23 -63 34 -81 17 -27 19 -41 12 -85 -11 -63 -2 -146 18
-168 8 -9 22 -78 33 -165 23 -172 32 -188 97 -173 21 5 41 9 46 9 4 0 7 -24 8
-52 0 -70 67 -361 68 -300 1 24 19 105 41 180 l41 137 1 312 1 313 99 96 99
96 -52 66 c-29 37 -91 106 -137 154 -83 85 -87 87 -141 93 -31 3 -67 7 -81 9
-14 2 -37 -1 -51 -7z"/>
</g>
</svg>
