<?xml version="1.0" standalone="no"?>
<!DOCTYPE svg PUBLIC "-//W3C//DTD SVG 20010904//EN"
 "http://www.w3.org/TR/2001/REC-SVG-20010904/DTD/svg10.dtd">
<svg version="1.0" xmlns="http://www.w3.org/2000/svg"
 width="123.000000pt" height="306.000000pt" viewBox="0 0 123.000000 306.000000"
 preserveAspectRatio="xMidYMid meet">
<metadata>
Created by potrace 1.14, written by Peter Selinger 2001-2017
</metadata>
<g transform="translate(0.000000,306.000000) scale(0.100000,-0.100000)"
fill="#000000" stroke="none">
<path fill="#000000" stroke="none" d="M654 3052 c-27 -17 -48 -83 -59 -182
-10 -99 -9 -113 17 -245 15 -77 30 -150 33 -162 4 -19 -17 -32 -218 -130
l-223 -110 -12 -49 c-7 -27 -52 -200 -100 -384 l-88 -335 128 -160 c121 -152
128 -162 128 -205 0 -25 -7 -191 -15 -370 -8 -179 -15 -333 -15 -343 0 -12 24
-29 81 -57 44 -21 85 -40 91 -42 5 -2 22 -62 37 -133 30 -144 28 -142 120
-144 36 -1 56 7 106 39 l62 40 33 188 c18 103 36 190 40 195 3 4 28 -84 54
-195 27 -112 50 -204 51 -206 2 -2 70 18 153 44 l149 47 11 75 c10 70 7 93
-34 326 -64 359 -94 631 -94 850 0 173 1 182 36 314 l36 135 -4 186 -3 186
-53 132 -54 132 -49 3 -50 3 65 93 c74 103 71 93 55 268 l-12 122 -91 41 c-88
40 -94 41 -196 41 -58 0 -110 -4 -116 -8z"/>
</g>
</svg>
