<?xml version="1.0" standalone="no"?>
<!DOCTYPE svg PUBLIC "-//W3C//DTD SVG 20010904//EN"
 "http://www.w3.org/TR/2001/REC-SVG-20010904/DTD/svg10.dtd">
<svg version="1.0" xmlns="http://www.w3.org/2000/svg"
 width="67.000000pt" height="230.000000pt" viewBox="0 0 67.000000 230.000000"
 preserveAspectRatio="xMidYMid meet">
<metadata>
Created by potrace 1.14, written by Peter Selinger 2001-2017
</metadata>
<g transform="translate(0.000000,230.000000) scale(0.100000,-0.100000)"
fill="#000000" stroke="none">
<path fill="#000000" stroke="none" d="M350 2266 c-52 -33 -55 -38 -86 -123
l-31 -88 -68 -40 -68 -40 -48 -138 -48 -137 15 -118 c8 -64 33 -203 55 -309
l39 -192 0 -468 c0 -266 4 -474 9 -482 6 -9 6 -22 -1 -34 -8 -16 -3 -26 28
-58 l38 -39 106 1 c73 0 120 6 155 18 44 16 50 21 53 49 3 27 -2 35 -39 59
-40 26 -41 28 -18 31 42 6 42 20 0 27 -32 5 -41 11 -37 23 3 10 31 116 62 237
l57 220 -17 290 c-21 369 -22 340 13 354 25 11 29 19 35 64 3 29 6 73 6 99 l0
46 53 9 c28 4 51 12 50 16 -2 4 -3 23 -3 42 l0 35 -49 0 -48 0 -52 120 c-61
139 -61 147 14 250 l44 59 7 121 7 120 -76 0 c-41 0 -81 2 -89 5 -7 2 -38 -11
-68 -29z"/>
</g>
</svg>
