<?xml version="1.0" standalone="no"?>
<!DOCTYPE svg PUBLIC "-//W3C//DTD SVG 20010904//EN"
 "http://www.w3.org/TR/2001/REC-SVG-20010904/DTD/svg10.dtd">
<svg version="1.0" xmlns="http://www.w3.org/2000/svg"
 width="19.000000pt" height="59.000000pt" viewBox="0 0 19.000000 59.000000"
 preserveAspectRatio="xMidYMid meet">
<metadata>
Created by potrace 1.14, written by Peter Selinger 2001-2017
</metadata>
<g transform="translate(0.000000,59.000000) scale(0.100000,-0.100000)"
fill="#000000" stroke="none">
<path fill="#000000" stroke="none" d="M96 568 c-9 -12 -16 -28 -16 -35 0 -7
-11 -20 -25 -29 -53 -35 -78 -244 -29 -244 11 0 14 -25 14 -124 0 -69 3 -127
8 -129 4 -3 28 -3 54 0 l48 6 0 111 c-1 119 0 125 20 171 19 46 24 120 10 157
-7 18 -16 56 -19 83 -5 41 -10 51 -28 53 -13 2 -27 -5 -37 -20z"/>
</g>
</svg>
