<?xml version="1.0" standalone="no"?>
<!DOCTYPE svg PUBLIC "-//W3C//DTD SVG 20010904//EN"
 "http://www.w3.org/TR/2001/REC-SVG-20010904/DTD/svg10.dtd">
<svg version="1.0" xmlns="http://www.w3.org/2000/svg"
 width="75.000000pt" height="43.000000pt" viewBox="0 0 75.000000 43.000000"
 preserveAspectRatio="xMidYMid meet">
<metadata>
Created by potrace 1.14, written by Peter Selinger 2001-2017
</metadata>
<g transform="translate(0.000000,43.000000) scale(0.100000,-0.100000)"
fill="#000000" stroke="none">
<path fill="#000000" stroke="none" d="M206 387 l-109 -42 -48 -90 c-43 -80
-49 -97 -49 -152 0 -59 2 -63 23 -63 12 0 172 -9 356 -20 184 -11 336 -18 338
-16 2 2 11 48 19 103 l16 100 -31 61 c-31 61 -33 63 -131 112 -98 49 -101 50
-187 49 -78 0 -100 -5 -197 -42z"/>
</g>
</svg>
