<?xml version="1.0" standalone="no"?>
<!DOCTYPE svg PUBLIC "-//W3C//DTD SVG 20010904//EN"
 "http://www.w3.org/TR/2001/REC-SVG-20010904/DTD/svg10.dtd">
<svg version="1.0" xmlns="http://www.w3.org/2000/svg"
 width="73.000000pt" height="96.000000pt" viewBox="0 0 73.000000 96.000000"
 preserveAspectRatio="xMidYMid meet">
<metadata>
Created by potrace 1.14, written by Peter Selinger 2001-2017
</metadata>
<g transform="translate(0.000000,96.000000) scale(0.100000,-0.100000)"
fill="#000000" stroke="none">
<path fill="#000000" stroke="none" d="M280 952 c-19 -5 -35 -27 -63 -85 l-38
-78 16 -87 c18 -103 19 -146 4 -174 -6 -11 -44 -35 -84 -53 -101 -46 -108 -61
-109 -230 0 -73 5 -155 12 -187 l13 -58 315 0 315 0 31 68 c29 60 32 78 36
182 3 85 0 130 -13 176 -16 59 -19 63 -75 95 -53 30 -59 38 -65 74 -37 223
-67 310 -115 338 -30 18 -142 30 -180 19z"/>
</g>
</svg>
