<?xml version="1.0" standalone="no"?>
<!DOCTYPE svg PUBLIC "-//W3C//DTD SVG 20010904//EN"
 "http://www.w3.org/TR/2001/REC-SVG-20010904/DTD/svg10.dtd">
<svg version="1.0" xmlns="http://www.w3.org/2000/svg"
 width="114.000000pt" height="287.000000pt" viewBox="0 0 114.000000 287.000000"
 preserveAspectRatio="xMidYMid meet">
<metadata>
Created by potrace 1.14, written by Peter Selinger 2001-2017
</metadata>
<g transform="translate(0.000000,287.000000) scale(0.100000,-0.100000)"
fill="#000000" stroke="none">
<path fill="#000000" stroke="none" d="M563 2819 c-39 -34 -72 -76 -100 -127
-37 -67 -43 -85 -43 -137 l1 -60 23 27 c13 15 40 30 59 33 29 6 39 3 58 -16
l23 -23 -49 -22 c-47 -20 -48 -22 -25 -30 14 -4 34 -7 45 -5 17 3 18 1 5 -15
-21 -25 -92 -54 -117 -48 -16 5 -23 15 -25 41 -3 34 -4 32 -71 -71 l-69 -106
7 -107 7 -108 -80 -166 c-71 -148 -82 -179 -96 -268 -14 -88 -22 -110 -66
-183 -45 -76 -48 -83 -34 -99 15 -17 19 -17 67 2 52 21 60 19 71 -18 6 -18 2
-24 -19 -29 -26 -6 -26 -6 -5 -21 35 -25 53 0 48 64 -3 34 -1 53 6 53 6 0 18
21 26 47 11 35 24 52 48 67 45 26 55 13 46 -62 -5 -50 -13 -68 -46 -108 -28
-34 -38 -54 -34 -68 4 -12 11 -64 16 -116 5 -52 12 -107 16 -122 3 -14 -2 -63
-10 -108 -32 -166 -15 -432 39 -624 13 -49 22 -93 19 -97 -3 -5 -27 -9 -54 -9
l-50 0 -30 -59 -30 -60 48 -15 c27 -9 108 -18 194 -22 l147 -7 17 58 c16 57
16 63 -6 186 -22 120 -22 135 -11 300 10 161 27 284 30 219 1 -14 23 -122 49
-241 l49 -215 -13 -115 c-7 -63 -15 -135 -18 -162 l-5 -47 154 0 c137 0 155 2
155 16 0 9 -9 69 -19 133 -27 163 -32 363 -16 589 l13 194 -29 171 c-15 95
-36 248 -45 342 l-17 170 48 105 c26 58 54 120 62 139 13 31 15 32 32 17 24
-22 25 -21 79 20 41 31 50 45 73 111 l25 76 -39 106 c-21 58 -44 111 -50 118
-7 7 -59 32 -117 57 l-105 44 -6 169 c-3 92 -11 184 -18 204 -10 33 -18 39
-84 63 -39 14 -77 26 -84 26 -6 0 -38 -23 -70 -51z"/>
</g>
</svg>
