<?xml version="1.0" standalone="no"?>
<!DOCTYPE svg PUBLIC "-//W3C//DTD SVG 20010904//EN"
 "http://www.w3.org/TR/2001/REC-SVG-20010904/DTD/svg10.dtd">
<svg version="1.0" xmlns="http://www.w3.org/2000/svg"
 width="379.000000pt" height="258.000000pt" viewBox="0 0 379.000000 258.000000"
 preserveAspectRatio="xMidYMid meet">
<metadata>
Created by potrace 1.14, written by Peter Selinger 2001-2017
</metadata>
<g transform="translate(0.000000,258.000000) scale(0.100000,-0.100000)"
fill="#000000" stroke="none">
<path fill="#000000" stroke="none" d="M277 2510 c-148 -37 -270 -70 -273 -72
-8 -9 44 -2290 53 -2297 4 -4 146 -38 315 -76 l307 -68 238 116 c536 261 830
409 855 430 l28 23 -298 132 c-172 76 -312 132 -330 132 -41 0 -254 82 -459
177 l-167 78 -80 93 c-86 99 -157 229 -133 244 7 4 8 8 4 8 -4 0 17 31 48 69
50 62 72 79 208 159 126 73 171 94 265 121 95 28 115 31 130 20 9 -8 42 -35
73 -61 50 -42 60 -47 92 -41 61 10 128 -37 334 -230 l41 -40 64 12 63 12 120
-56 c66 -31 269 -113 451 -181 l331 -125 617 428 617 428 -158 6 c-87 4 -233
7 -326 8 l-167 1 -238 -119 c-130 -65 -357 -169 -503 -230 l-266 -111 -311 0
c-172 0 -312 2 -312 5 0 2 29 65 64 138 63 134 63 134 70 250 7 106 6 116 -11
121 -10 2 -163 29 -341 58 l-323 52 -220 204 c-120 112 -219 206 -219 209 0 4
7 15 17 25 9 10 12 18 7 17 -5 0 -130 -31 -277 -69z"/>
</g>
</svg>
