<?xml version="1.0" standalone="no"?>
<!DOCTYPE svg PUBLIC "-//W3C//DTD SVG 20010904//EN"
 "http://www.w3.org/TR/2001/REC-SVG-20010904/DTD/svg10.dtd">
<svg version="1.0" xmlns="http://www.w3.org/2000/svg"
 width="65.000000pt" height="106.000000pt" viewBox="0 0 65.000000 106.000000"
 preserveAspectRatio="xMidYMid meet">
<metadata>
Created by potrace 1.14, written by Peter Selinger 2001-2017
</metadata>
<g transform="translate(0.000000,106.000000) scale(0.100000,-0.100000)"
fill="#000000" stroke="none">
<path fill="#000000" stroke="none" d="M144 1029 c-9 -19 -34 -56 -54 -84 -48
-65 -78 -173 -81 -285 -2 -84 16 -230 32 -261 9 -19 49 -32 49 -17 0 6 18 7
49 3 33 -4 66 -1 101 9 55 16 70 14 70 -10 0 -8 6 -17 14 -20 8 -3 17 -26 20
-52 9 -60 86 -295 100 -304 13 -9 110 -11 118 -2 5 5 -13 56 -43 119 -22 47
-69 201 -69 226 0 25 2 26 33 19 18 -4 45 -19 60 -34 14 -14 31 -26 36 -26 6
0 24 -26 40 -57 l30 -58 1 56 c0 31 -3 83 -6 116 l-6 59 -67 44 c-66 43 -68
44 -85 110 -10 40 -34 91 -60 131 -23 35 -59 94 -80 131 -36 65 -37 70 -30
136 l6 69 -28 0 c-16 0 -52 4 -81 8 -51 8 -51 7 -69 -26z"/>
</g>
</svg>
