<?xml version="1.0" standalone="no"?>
<!DOCTYPE svg PUBLIC "-//W3C//DTD SVG 20010904//EN"
 "http://www.w3.org/TR/2001/REC-SVG-20010904/DTD/svg10.dtd">
<svg version="1.0" xmlns="http://www.w3.org/2000/svg"
 width="34.000000pt" height="160.000000pt" viewBox="0 0 34.000000 160.000000"
 preserveAspectRatio="xMidYMid meet">
<metadata>
Created by potrace 1.14, written by Peter Selinger 2001-2017
</metadata>
<g transform="translate(0.000000,160.000000) scale(0.100000,-0.100000)"
fill="#000000" stroke="none">
<path fill="#000000" stroke="none" d="M0 1445 c0 -114 4 -163 14 -183 8 -15
52 -57 98 -94 l85 -67 31 -110 32 -110 -92 -223 c-87 -213 -92 -230 -115 -373
-29 -191 -29 -195 0 -195 13 0 28 -5 34 -11 19 -19 56 -2 139 62 43 34 87 67
98 74 17 13 15 22 -55 191 l-73 177 52 211 c29 118 54 246 57 291 3 44 8 101
10 126 5 45 4 48 -63 125 -54 62 -75 97 -98 158 -16 43 -36 81 -44 86 -8 4
-36 11 -62 14 l-48 7 0 -156z"/>
<path fill="#000000" stroke="none" d="M26 57 c3 -10 9 -15 12 -12 3 3 0 11
-7 18 -10 9 -11 8 -5 -6z"/>
<path fill="#000000" stroke="none" d="M54 26 c-10 -8 -17 -17 -14 -19 3 -3
16 3 29 14 27 22 15 26 -15 5z"/>
</g>
</svg>
