<?xml version="1.0" standalone="no"?>
<!DOCTYPE svg PUBLIC "-//W3C//DTD SVG 20010904//EN"
 "http://www.w3.org/TR/2001/REC-SVG-20010904/DTD/svg10.dtd">
<svg version="1.0" xmlns="http://www.w3.org/2000/svg"
 width="237.000000pt" height="194.000000pt" viewBox="0 0 237.000000 194.000000"
 preserveAspectRatio="xMidYMid meet">
<metadata>
Created by potrace 1.14, written by Peter Selinger 2001-2017
</metadata>
<g transform="translate(0.000000,194.000000) scale(0.100000,-0.100000)"
fill="#000000" stroke="none">
<path fill="#000000" stroke="none" d="M2213 1906 c-101 -32 -102 -32 -196
-123 -51 -50 -102 -93 -113 -96 -10 -3 -46 -11 -79 -17 -33 -7 -100 -28 -150
-47 -49 -19 -169 -63 -266 -98 -236 -84 -278 -113 -495 -342 -318 -335 -399
-416 -474 -471 -41 -30 -145 -123 -230 -207 -85 -83 -166 -158 -179 -166 -22
-14 -24 -23 -29 -115 l-4 -100 94 -62 c52 -34 96 -62 99 -62 3 0 118 62 255
138 176 97 298 173 411 255 104 76 187 128 234 147 39 17 74 28 76 26 3 -3
-15 -51 -40 -108 l-45 -103 -7 -166 -6 -167 113 -6 c62 -3 355 -7 651 -9 l537
-2 0 836 0 836 -26 129 c-14 71 -27 130 -28 130 0 1 -47 -12 -103 -30z"/>
</g>
</svg>
