<?xml version="1.0" standalone="no"?>
<!DOCTYPE svg PUBLIC "-//W3C//DTD SVG 20010904//EN"
 "http://www.w3.org/TR/2001/REC-SVG-20010904/DTD/svg10.dtd">
<svg version="1.0" xmlns="http://www.w3.org/2000/svg"
 width="21.000000pt" height="26.000000pt" viewBox="0 0 21.000000 26.000000"
 preserveAspectRatio="xMidYMid meet">
<metadata>
Created by potrace 1.14, written by Peter Selinger 2001-2017
</metadata>
<g transform="translate(0.000000,26.000000) scale(0.100000,-0.100000)"
fill="#000000" stroke="none">
<path fill="#000000" stroke="none" d="M146 238 c-9 -12 -16 -41 -16 -65 0
-40 -1 -42 -36 -49 -45 -8 -101 -53 -82 -65 7 -5 25 -9 40 -9 15 0 29 -4 33
-10 4 -6 15 -6 32 1 34 13 53 5 53 -22 0 -15 4 -19 16 -15 9 3 18 6 20 6 2 0
4 52 4 115 0 103 -2 115 -19 125 -26 14 -28 13 -45 -12z"/>
</g>
</svg>
