<?xml version="1.0" standalone="no"?>
<!DOCTYPE svg PUBLIC "-//W3C//DTD SVG 20010904//EN"
 "http://www.w3.org/TR/2001/REC-SVG-20010904/DTD/svg10.dtd">
<svg version="1.0" xmlns="http://www.w3.org/2000/svg"
 width="53.000000pt" height="99.000000pt" viewBox="0 0 53.000000 99.000000"
 preserveAspectRatio="xMidYMid meet">
<metadata>
Created by potrace 1.14, written by Peter Selinger 2001-2017
</metadata>
<g transform="translate(0.000000,99.000000) scale(0.100000,-0.100000)"
fill="#000000" stroke="none">
<path fill="#000000" stroke="none" d="M217 940 c-20 -36 -31 -73 -38 -137
-16 -129 -15 -127 -63 -161 -28 -21 -45 -41 -49 -59 -3 -16 -19 -62 -37 -103
l-31 -75 16 -90 c9 -49 26 -105 38 -125 14 -23 24 -58 27 -100 l5 -65 67 -9
c53 -7 71 -6 84 5 18 15 33 14 183 -7 57 -8 105 -13 108 -10 3 3 -11 47 -32
98 -27 67 -35 100 -30 123 3 16 10 88 15 160 l10 129 -30 53 c-21 37 -26 53
-17 53 35 0 46 34 53 167 10 198 7 203 -165 203 l-86 0 -28 -50z"/>
</g>
</svg>
