<?xml version="1.0" standalone="no"?>
<!DOCTYPE svg PUBLIC "-//W3C//DTD SVG 20010904//EN"
 "http://www.w3.org/TR/2001/REC-SVG-20010904/DTD/svg10.dtd">
<svg version="1.0" xmlns="http://www.w3.org/2000/svg"
 width="32.000000pt" height="72.000000pt" viewBox="0 0 32.000000 72.000000"
 preserveAspectRatio="xMidYMid meet">
<metadata>
Created by potrace 1.14, written by Peter Selinger 2001-2017
</metadata>
<g transform="translate(0.000000,72.000000) scale(0.100000,-0.100000)"
fill="#000000" stroke="none">
<path fill="#000000" stroke="none" d="M143 710 c-34 -14 -44 -40 -27 -72 14
-27 13 -28 -24 -51 -22 -14 -49 -45 -64 -74 -24 -44 -26 -54 -17 -87 13 -46
42 -47 48 -1 4 29 4 29 10 6 5 -17 21 -29 58 -44 47 -17 52 -23 58 -57 4 -26
16 -44 37 -60 l31 -22 -7 -113 c-6 -90 -5 -114 7 -123 12 -10 15 -1 20 60 3
40 14 100 25 133 l20 60 -48 59 -48 59 14 40 c27 77 14 167 -25 167 -16 0 -17
5 -7 49 14 70 -6 93 -61 71z"/>
</g>
</svg>
