<?xml version="1.0" standalone="no"?>
<!DOCTYPE svg PUBLIC "-//W3C//DTD SVG 20010904//EN"
 "http://www.w3.org/TR/2001/REC-SVG-20010904/DTD/svg10.dtd">
<svg version="1.0" xmlns="http://www.w3.org/2000/svg"
 width="176.000000pt" height="363.000000pt" viewBox="0 0 176.000000 363.000000"
 preserveAspectRatio="xMidYMid meet">
<metadata>
Created by potrace 1.14, written by Peter Selinger 2001-2017
</metadata>
<g transform="translate(0.000000,363.000000) scale(0.100000,-0.100000)"
fill="#000000" stroke="none">
<path fill="#000000" stroke="none" d="M678 3623 l-108 -4 0 -152 c1 -84 7
-264 14 -401 l14 -250 -30 -83 -30 -83 5 -187 c2 -104 7 -197 11 -208 6 -17
-17 -41 -134 -145 -138 -122 -145 -130 -278 -325 l-137 -200 -3 -408 -4 -408
104 -162 104 -162 -28 -219 c-15 -121 -26 -221 -25 -221 4 -2 993 32 1155 40
l152 8 1 156 0 156 150 109 c83 59 148 110 146 113 -3 2 -35 -3 -71 -12 -37
-8 -70 -15 -73 -15 -3 0 -3 80 0 178 6 177 6 179 48 293 l41 114 5 183 c8 241
-5 291 -128 522 -88 165 -88 165 -95 258 l-7 93 -62 54 -63 55 -7 263 c-6 241
-5 280 18 492 14 127 28 285 31 352 6 121 5 123 -17 128 -395 93 -349 88 -699
78z"/>
</g>
</svg>
