<?xml version="1.0" standalone="no"?>
<!DOCTYPE svg PUBLIC "-//W3C//DTD SVG 20010904//EN"
 "http://www.w3.org/TR/2001/REC-SVG-20010904/DTD/svg10.dtd">
<svg version="1.0" xmlns="http://www.w3.org/2000/svg"
 width="30.000000pt" height="106.000000pt" viewBox="0 0 30.000000 106.000000"
 preserveAspectRatio="xMidYMid meet">
<metadata>
Created by potrace 1.14, written by Peter Selinger 2001-2017
</metadata>
<g transform="translate(0.000000,106.000000) scale(0.100000,-0.100000)"
fill="#000000" stroke="none">
<path fill="#000000" stroke="none" d="M46 1001 c-24 -53 -27 -78 -36 -243 -7
-112 -7 -261 -2 -384 l8 -200 55 -87 54 -87 3 74 3 75 80 91 c50 56 79 96 75
105 -3 8 0 105 6 216 l11 200 -28 89 c-25 80 -32 90 -66 109 -30 17 -39 29
-44 61 -7 39 -7 40 -50 40 -42 0 -42 0 -69 -59z"/>
</g>
</svg>
