<?xml version="1.0" standalone="no"?>
<!DOCTYPE svg PUBLIC "-//W3C//DTD SVG 20010904//EN"
 "http://www.w3.org/TR/2001/REC-SVG-20010904/DTD/svg10.dtd">
<svg version="1.0" xmlns="http://www.w3.org/2000/svg"
 width="202.000000pt" height="374.000000pt" viewBox="0 0 202.000000 374.000000"
 preserveAspectRatio="xMidYMid meet">
<metadata>
Created by potrace 1.14, written by Peter Selinger 2001-2017
</metadata>
<g transform="translate(0.000000,374.000000) scale(0.100000,-0.100000)"
fill="#000000" stroke="none">
<path fill="#000000" stroke="none" d="M855 3669 c-33 -64 -37 -81 -45 -199
-8 -114 -27 -259 -35 -268 -2 -2 -30 15 -63 37 l-61 41 -19 -33 c-201 -332
-219 -370 -577 -1195 l-58 -133 13 -112 13 -112 276 -200 276 -200 21 -77 22
-77 -53 -178 c-29 -98 -77 -243 -107 -323 l-55 -145 -79 -31 -79 -30 -8 -80
c-8 -85 -4 -157 13 -215 l10 -35 169 -52 169 -53 138 3 138 3 -100 79 c-54 43
-103 82 -107 86 -10 9 33 96 159 325 l94 170 158 122 158 121 28 122 c27 117
27 122 10 148 -10 15 -93 131 -185 258 -144 200 -279 409 -279 433 0 4 28 16
62 27 l62 20 13 59 c10 40 12 85 8 136 l-6 75 188 -32 c103 -17 223 -42 266
-55 l77 -23 0 -81 0 -80 50 -28 51 -28 90 48 c50 27 91 53 92 57 0 3 -8 49
-18 101 l-19 95 -140 59 c-78 33 -171 71 -207 86 -48 19 -80 41 -124 85 l-58
59 29 12 c16 7 30 14 32 15 2 1 -16 40 -40 85 -23 46 -44 87 -46 92 -2 4 13 7
33 7 28 0 75 21 183 81 l146 80 38 -17 c31 -14 56 -16 145 -11 221 13 288 20
295 31 4 6 8 67 8 136 l0 126 -38 37 -38 37 6 -56 6 -56 -69 -35 c-38 -19
-100 -55 -137 -79 -36 -25 -73 -43 -81 -40 -8 3 -45 10 -84 16 -52 8 -79 19
-104 40 l-33 28 27 57 c37 78 27 78 -15 -1 -33 -60 -43 -69 -158 -146 -67 -44
-124 -79 -126 -77 -1 2 -21 35 -43 73 l-41 68 28 82 c15 44 35 97 44 116 9 19
32 100 51 179 25 101 44 156 65 185 l28 42 -46 52 c-38 42 -64 59 -141 92 -79
34 -105 40 -163 40 l-68 0 -35 -71z"/>
<path fill="#000000" stroke="none" d="M1582 3243 c-10 -10 -34 -45 -51 -78
l-32 -60 37 40 c70 78 96 115 81 115 -8 0 -24 -8 -35 -17z"/>
</g>
</svg>
