<?xml version="1.0" standalone="no"?>
<!DOCTYPE svg PUBLIC "-//W3C//DTD SVG 20010904//EN"
 "http://www.w3.org/TR/2001/REC-SVG-20010904/DTD/svg10.dtd">
<svg version="1.0" xmlns="http://www.w3.org/2000/svg"
 width="20.000000pt" height="23.000000pt" viewBox="0 0 20.000000 23.000000"
 preserveAspectRatio="xMidYMid meet">
<metadata>
Created by potrace 1.14, written by Peter Selinger 2001-2017
</metadata>
<g transform="translate(0.000000,23.000000) scale(0.100000,-0.100000)"
fill="#000000" stroke="none">
<path fill="#000000" stroke="none" d="M81 214 c-11 -8 -21 -24 -21 -35 0 -11
-12 -30 -26 -42 -19 -16 -27 -36 -31 -69 -6 -51 11 -75 20 -28 5 20 14 31 31
36 30 7 44 -1 56 -32 13 -33 54 -51 75 -34 21 17 19 27 -8 34 -25 6 -63 61
-48 70 10 7 13 58 5 88 -7 24 -29 29 -53 12z"/>
</g>
</svg>
