<?xml version="1.0" standalone="no"?>
<!DOCTYPE svg PUBLIC "-//W3C//DTD SVG 20010904//EN"
 "http://www.w3.org/TR/2001/REC-SVG-20010904/DTD/svg10.dtd">
<svg version="1.0" xmlns="http://www.w3.org/2000/svg"
 width="22.000000pt" height="27.000000pt" viewBox="0 0 22.000000 27.000000"
 preserveAspectRatio="xMidYMid meet">
<metadata>
Created by potrace 1.14, written by Peter Selinger 2001-2017
</metadata>
<g transform="translate(0.000000,27.000000) scale(0.100000,-0.100000)"
fill="#000000" stroke="none">
<path fill="#000000" stroke="none" d="M54 253 c-3 -10 -16 -42 -30 -71 -41
-89 -28 -122 48 -122 25 0 42 -8 63 -30 16 -17 35 -30 42 -30 17 0 16 40 -2
64 -8 11 -15 30 -15 43 0 20 -5 23 -40 23 -29 0 -40 4 -40 15 0 10 10 15 33
15 18 0 38 5 44 11 6 6 21 16 34 23 12 6 22 16 23 21 2 17 -40 17 -54 0 -7 -8
-23 -15 -35 -15 -19 0 -21 4 -17 26 7 39 -43 64 -54 27z"/>
</g>
</svg>
