<?xml version="1.0" standalone="no"?>
<!DOCTYPE svg PUBLIC "-//W3C//DTD SVG 20010904//EN"
 "http://www.w3.org/TR/2001/REC-SVG-20010904/DTD/svg10.dtd">
<svg version="1.0" xmlns="http://www.w3.org/2000/svg"
 width="122.000000pt" height="114.000000pt" viewBox="0 0 122.000000 114.000000"
 preserveAspectRatio="xMidYMid meet">
<metadata>
Created by potrace 1.14, written by Peter Selinger 2001-2017
</metadata>
<g transform="translate(0.000000,114.000000) scale(0.100000,-0.100000)"
fill="#000000" stroke="none">
<path fill="#000000" stroke="none" d="M438 1127 l-87 -12 -165 -219 -166
-218 0 -145 c0 -80 -5 -209 -11 -287 -6 -77 -9 -166 -7 -195 l3 -55 39 97 c37
91 43 101 105 151 36 29 125 84 196 121 96 50 147 84 195 130 128 122 221 144
460 106 74 -12 139 -27 143 -34 5 -7 24 -39 43 -72 l35 -60 -5 105 c-3 58 -8
197 -11 310 -3 113 -8 219 -11 236 l-4 31 -163 6 c-358 14 -504 15 -589 4z"/>
</g>
</svg>
