<?xml version="1.0" standalone="no"?>
<!DOCTYPE svg PUBLIC "-//W3C//DTD SVG 20010904//EN"
 "http://www.w3.org/TR/2001/REC-SVG-20010904/DTD/svg10.dtd">
<svg version="1.0" xmlns="http://www.w3.org/2000/svg"
 width="30.000000pt" height="41.000000pt" viewBox="0 0 30.000000 41.000000"
 preserveAspectRatio="xMidYMid meet">
<metadata>
Created by potrace 1.14, written by Peter Selinger 2001-2017
</metadata>
<g transform="translate(0.000000,41.000000) scale(0.100000,-0.100000)"
fill="#000000" stroke="none">
<path fill="#000000" stroke="none" d="M95 389 c-10 -11 -34 -68 -52 -127 -19
-59 -36 -114 -39 -123 -4 -11 19 -34 77 -77 l83 -62 32 73 c18 39 37 71 43 70
6 -2 16 -4 23 -5 6 -2 16 22 23 59 l11 61 -50 30 c-28 16 -68 35 -88 42 -34
10 -37 14 -32 39 8 36 -8 46 -31 20z"/>
</g>
</svg>
