<?xml version="1.0" standalone="no"?>
<!DOCTYPE svg PUBLIC "-//W3C//DTD SVG 20010904//EN"
 "http://www.w3.org/TR/2001/REC-SVG-20010904/DTD/svg10.dtd">
<svg version="1.0" xmlns="http://www.w3.org/2000/svg"
 width="35.000000pt" height="35.000000pt" viewBox="0 0 35.000000 35.000000"
 preserveAspectRatio="xMidYMid meet">
<metadata>
Created by potrace 1.14, written by Peter Selinger 2001-2017
</metadata>
<g transform="translate(0.000000,35.000000) scale(0.100000,-0.100000)"
fill="#000000" stroke="none">
<path fill="#000000" stroke="none" d="M127 340 c-78 -4 -111 -10 -118 -21 -5
-7 -8 -54 -7 -104 l3 -90 36 -3 c32 -3 40 -9 60 -48 27 -50 53 -64 77 -40 13
13 17 38 17 116 0 70 4 103 14 112 11 11 12 -2 6 -84 -10 -139 11 -177 98
-178 37 0 44 23 23 82 -9 26 -20 78 -23 115 -6 67 -45 154 -68 151 -5 -1 -59
-4 -118 -8z"/>
</g>
</svg>
