<?xml version="1.0" standalone="no"?>
<!DOCTYPE svg PUBLIC "-//W3C//DTD SVG 20010904//EN"
 "http://www.w3.org/TR/2001/REC-SVG-20010904/DTD/svg10.dtd">
<svg version="1.0" xmlns="http://www.w3.org/2000/svg"
 width="13.000000pt" height="44.000000pt" viewBox="0 0 13.000000 44.000000"
 preserveAspectRatio="xMidYMid meet">
<metadata>
Created by potrace 1.14, written by Peter Selinger 2001-2017
</metadata>
<g transform="translate(0.000000,44.000000) scale(0.100000,-0.100000)"
fill="#000000" stroke="none">
<path fill="#000000" stroke="none" d="M59 418 c-14 -26 -15 -81 -1 -86 8 -2
3 -15 -12 -35 -13 -18 -27 -43 -31 -57 -3 -14 -9 -33 -11 -42 -10 -35 25 -18
45 20 11 22 31 46 45 56 21 13 26 24 24 54 0 20 2 46 5 57 8 25 -2 40 -31 47
-16 5 -25 1 -33 -14z"/>
<path fill="#000000" stroke="none" d="M77 180 c3 -11 13 -20 23 -20 13 0 17
6 13 20 -3 11 -13 20 -23 20 -13 0 -17 -6 -13 -20z"/>
<path fill="#000000" stroke="none" d="M97 83 c6 -78 11 -94 25 -70 14 25 1
127 -16 127 -9 0 -12 -16 -9 -57z"/>
</g>
</svg>
