<?xml version="1.0" standalone="no"?>
<!DOCTYPE svg PUBLIC "-//W3C//DTD SVG 20010904//EN"
 "http://www.w3.org/TR/2001/REC-SVG-20010904/DTD/svg10.dtd">
<svg version="1.0" xmlns="http://www.w3.org/2000/svg"
 width="60.000000pt" height="36.000000pt" viewBox="0 0 60.000000 36.000000"
 preserveAspectRatio="xMidYMid meet">
<metadata>
Created by potrace 1.14, written by Peter Selinger 2001-2017
</metadata>
<g transform="translate(0.000000,36.000000) scale(0.100000,-0.100000)"
fill="#000000" stroke="none">
<path fill="#000000" stroke="none" d="M142 348 c-7 -7 -12 -19 -12 -27 -1
-13 -2 -13 -11 2 -12 20 -72 24 -86 5 -13 -17 -33 -134 -33 -192 0 -40 3 -47
17 -44 14 2 19 15 21 53 2 28 8 55 14 60 7 7 9 -22 4 -97 l-7 -108 25 0 c14 0
29 8 34 17 7 11 24 17 53 17 l43 1 19 80 c25 106 32 197 18 224 -9 16 -21 21
-49 21 -21 0 -43 -5 -50 -12z"/>
<path fill="#ffffff" stroke="none" d="M125 145 l-15 -40 6 70 c7 95 18 124
22 60 2 -28 -4 -67 -13 -90z"/>
<path fill="#000000" stroke="none" d="M492 328 c-7 -7 -12 -25 -12 -42 0 -28
1 -28 18 -13 10 10 24 17 30 17 17 0 32 -34 32 -73 0 -27 5 -36 21 -40 21 -6
21 -3 17 57 -7 84 -20 106 -61 106 -18 0 -38 -5 -45 -12z"/>
</g>
</svg>
