<?xml version="1.0" standalone="no"?>
<!DOCTYPE svg PUBLIC "-//W3C//DTD SVG 20010904//EN"
 "http://www.w3.org/TR/2001/REC-SVG-20010904/DTD/svg10.dtd">
<svg version="1.0" xmlns="http://www.w3.org/2000/svg"
 width="19.000000pt" height="27.000000pt" viewBox="0 0 19.000000 27.000000"
 preserveAspectRatio="xMidYMid meet">
<metadata>
Created by potrace 1.14, written by Peter Selinger 2001-2017
</metadata>
<g transform="translate(0.000000,27.000000) scale(0.100000,-0.100000)"
fill="#000000" stroke="none">
<path fill="#000000" stroke="none" d="M5 251 c2 -9 11 -50 20 -91 8 -41 17
-85 20 -96 4 -17 -1 -23 -21 -28 -21 -6 -24 -9 -14 -21 7 -8 25 -15 40 -15 38
0 49 36 44 141 l-4 84 24 -83 c27 -94 24 -87 52 -96 l21 -6 -21 107 c-12 58
-26 108 -31 109 -6 1 -38 4 -73 6 -53 4 -61 2 -57 -11z"/>
</g>
</svg>
