<?xml version="1.0" standalone="no"?>
<!DOCTYPE svg PUBLIC "-//W3C//DTD SVG 20010904//EN"
 "http://www.w3.org/TR/2001/REC-SVG-20010904/DTD/svg10.dtd">
<svg version="1.0" xmlns="http://www.w3.org/2000/svg"
 width="31.000000pt" height="50.000000pt" viewBox="0 0 31.000000 50.000000"
 preserveAspectRatio="xMidYMid meet">
<metadata>
Created by potrace 1.14, written by Peter Selinger 2001-2017
</metadata>
<g transform="translate(0.000000,50.000000) scale(0.100000,-0.100000)"
fill="#000000" stroke="none">
<path fill="#000000" stroke="none" d="M206 484 c-47 -9 -74 -10 -82 -3 -8 7
-21 -4 -47 -38 -48 -67 -54 -80 -62 -146 -5 -41 -3 -62 6 -74 7 -8 12 -27 11
-43 -2 -21 6 -34 34 -55 l36 -28 -51 -29 c-55 -32 -61 -42 -34 -56 13 -7 49 2
128 33 106 41 110 43 128 86 18 40 35 197 37 332 0 43 1 42 -104 21z"/>
</g>
</svg>
