<?xml version="1.0" standalone="no"?>
<!DOCTYPE svg PUBLIC "-//W3C//DTD SVG 20010904//EN"
 "http://www.w3.org/TR/2001/REC-SVG-20010904/DTD/svg10.dtd">
<svg version="1.0" xmlns="http://www.w3.org/2000/svg"
 width="15.000000pt" height="18.000000pt" viewBox="0 0 15.000000 18.000000"
 preserveAspectRatio="xMidYMid meet">
<metadata>
Created by potrace 1.14, written by Peter Selinger 2001-2017
</metadata>
<g transform="translate(0.000000,18.000000) scale(0.100000,-0.100000)"
fill="#000000" stroke="none">
<path fill="#000000" stroke="none" d="M12 168 c-6 -6 -12 -29 -12 -49 0 -32
4 -39 28 -47 15 -6 21 -11 15 -11 -19 -1 -16 -18 9 -41 36 -33 53 -25 26 13
l-23 32 27 -18 c15 -9 34 -17 42 -17 20 0 30 37 18 64 -5 11 -13 35 -18 51 -8
27 -14 30 -54 33 -26 2 -50 -2 -58 -10z"/>
</g>
</svg>
