<?xml version="1.0" standalone="no"?>
<!DOCTYPE svg PUBLIC "-//W3C//DTD SVG 20010904//EN"
 "http://www.w3.org/TR/2001/REC-SVG-20010904/DTD/svg10.dtd">
<svg version="1.0" xmlns="http://www.w3.org/2000/svg"
 width="162.000000pt" height="265.000000pt" viewBox="0 0 162.000000 265.000000"
 preserveAspectRatio="xMidYMid meet">
<metadata>
Created by potrace 1.14, written by Peter Selinger 2001-2017
</metadata>
<g transform="translate(0.000000,265.000000) scale(0.100000,-0.100000)"
fill="#000000" stroke="none">
<path fill="#000000" stroke="none" d="M826 2598 c-61 -50 -67 -58 -96 -138
-17 -47 -60 -164 -96 -261 l-65 -177 -92 -47 -92 -48 -87 -123 c-104 -148
-212 -368 -264 -540 l-36 -119 12 -208 13 -208 50 -107 c83 -180 127 -294 127
-328 0 -24 -16 -53 -69 -121 -37 -48 -78 -97 -90 -107 -29 -26 -27 -33 16 -51
34 -14 106 -14 764 0 399 8 735 15 747 15 21 0 21 2 16 123 -5 97 -2 149 15
254 27 169 26 196 -5 274 -15 35 -55 136 -89 225 -58 150 -68 168 -144 263
-44 56 -81 108 -81 115 0 34 56 145 91 181 21 23 39 45 39 51 0 5 14 24 30 43
17 18 44 66 61 106 l31 73 -22 66 -21 65 -92 47 c-51 26 -93 47 -94 48 -1 1 5
49 13 106 11 78 13 142 8 245 l-7 140 -121 71 c-103 61 -253 124 -293 124 -6
0 -41 -24 -77 -52z"/>
<path fill="#ffffff" stroke="none" d="M1088 1456 c1 -2 -1 -41 -4 -89 -6 -79
-9 -86 -32 -97 -14 -6 -42 -24 -63 -41 -20 -16 -39 -29 -42 -29 -3 0 -1 15 4
33 5 17 16 66 24 107 8 41 20 88 26 103 11 26 15 28 48 22 20 -4 37 -8 39 -9z"/>
<path fill="#ffffff" stroke="none" d="M976 918 c-33 -75 -37 -91 -26 -108 8
-12 15 -9 46 20 l36 35 -6 -35 c-3 -19 -10 -98 -16 -175 -5 -77 -15 -182 -21
-233 l-12 -93 -56 7 c-31 4 -74 9 -96 13 l-41 6 35 293 c19 160 38 292 42 292
4 0 13 -25 20 -55 17 -79 38 -74 69 15 13 39 30 70 37 70 8 0 5 -17 -11 -52z"/>
</g>
</svg>
