<?xml version="1.0" standalone="no"?>
<!DOCTYPE svg PUBLIC "-//W3C//DTD SVG 20010904//EN"
 "http://www.w3.org/TR/2001/REC-SVG-20010904/DTD/svg10.dtd">
<svg version="1.0" xmlns="http://www.w3.org/2000/svg"
 width="29.000000pt" height="40.000000pt" viewBox="0 0 29.000000 40.000000"
 preserveAspectRatio="xMidYMid meet">
<metadata>
Created by potrace 1.14, written by Peter Selinger 2001-2017
</metadata>
<g transform="translate(0.000000,40.000000) scale(0.100000,-0.100000)"
fill="#000000" stroke="none">
<path fill="#000000" stroke="none" d="M130 380 l-55 -17 -9 -57 c-7 -42 -6
-60 2 -65 13 -8 -12 -101 -46 -167 l-21 -41 56 -17 c30 -10 57 -16 59 -13 3 2
-4 27 -15 54 -11 28 -17 60 -14 72 6 23 50 51 79 51 9 0 41 12 71 26 43 20 53
29 47 42 -4 9 -13 42 -21 72 -24 88 -33 92 -133 60z"/>
</g>
</svg>
