<?xml version="1.0" standalone="no"?>
<!DOCTYPE svg PUBLIC "-//W3C//DTD SVG 20010904//EN"
 "http://www.w3.org/TR/2001/REC-SVG-20010904/DTD/svg10.dtd">
<svg version="1.0" xmlns="http://www.w3.org/2000/svg"
 width="46.000000pt" height="84.000000pt" viewBox="0 0 46.000000 84.000000"
 preserveAspectRatio="xMidYMid meet">
<metadata>
Created by potrace 1.14, written by Peter Selinger 2001-2017
</metadata>
<g transform="translate(0.000000,84.000000) scale(0.100000,-0.100000)"
fill="#000000" stroke="none">
<path fill="#000000" stroke="none" d="M80 821 c-14 -28 -12 -63 5 -88 13 -19
13 -24 0 -50 -8 -15 -15 -32 -15 -36 0 -5 -11 -23 -25 -41 -38 -51 -49 -89
-35 -131 12 -37 17 -40 39 -26 9 6 12 20 9 40 -4 29 6 41 33 41 15 0 10 -57
-7 -70 -9 -8 -14 -25 -12 -44 2 -25 8 -32 31 -34 l27 -3 0 -127 c0 -157 -3
-168 -46 -182 -42 -14 -49 -50 -9 -42 16 3 33 -2 45 -13 25 -23 66 -13 74 17
3 13 6 65 6 116 0 89 1 92 23 92 13 0 28 5 35 12 30 30 93 -93 95 -184 0 -29
5 -48 12 -48 13 0 41 29 74 77 l22 33 -66 67 c-94 95 -96 100 -98 267 -2 154
-5 164 -73 257 -19 26 -34 54 -34 63 0 38 -20 56 -60 56 -29 0 -42 -5 -50 -19z"/>
</g>
</svg>
