<?xml version="1.0" standalone="no"?>
<!DOCTYPE svg PUBLIC "-//W3C//DTD SVG 20010904//EN"
 "http://www.w3.org/TR/2001/REC-SVG-20010904/DTD/svg10.dtd">
<svg version="1.0" xmlns="http://www.w3.org/2000/svg"
 width="155.000000pt" height="225.000000pt" viewBox="0 0 155.000000 225.000000"
 preserveAspectRatio="xMidYMid meet">
<metadata>
Created by potrace 1.14, written by Peter Selinger 2001-2017
</metadata>
<g transform="translate(0.000000,225.000000) scale(0.100000,-0.100000)"
fill="#000000" stroke="none">
<path fill="#000000" stroke="none" d="M1095 2232 c-28 -9 -65 -28 -84 -42
l-33 -25 5 -100 c2 -55 8 -108 12 -117 6 -15 -1 -16 -68 -11 -144 11 -248 -39
-582 -281 -172 -124 -191 -149 -220 -285 -18 -86 -20 -90 -103 -158 -21 -17
-22 -22 -12 -72 5 -30 12 -56 14 -58 2 -2 52 -13 112 -24 60 -11 110 -22 111
-23 1 -1 11 -57 23 -124 l21 -123 -45 -72 c-42 -67 -48 -87 -91 -287 -29 -132
-61 -248 -82 -300 -19 -47 -39 -95 -44 -108 l-9 -22 173 6 c179 6 217 9 217
22 0 4 -37 59 -83 122 l-83 115 52 120 c28 66 85 174 126 240 l76 120 5 118
c3 66 8 121 10 124 6 5 211 -26 243 -38 35 -12 147 -226 234 -443 44 -111 80
-213 80 -226 0 -14 -6 -50 -14 -81 l-13 -57 221 -4 c167 -3 227 -1 247 8 59
29 48 40 -134 130 -95 48 -173 87 -175 89 -2 1 -24 119 -50 262 l-47 260 -57
76 -57 76 82 26 c45 15 93 38 106 51 l25 23 -39 17 c-26 10 -34 18 -26 23 27
17 -36 49 -109 56 -39 4 -70 11 -70 15 0 25 95 267 132 337 37 70 53 89 113
134 164 122 180 149 171 298 -5 88 -11 115 -34 158 -29 57 -37 61 -132 68 -46
3 -80 -1 -115 -13z"/>
</g>
</svg>
