<?xml version="1.0" standalone="no"?>
<!DOCTYPE svg PUBLIC "-//W3C//DTD SVG 20010904//EN"
 "http://www.w3.org/TR/2001/REC-SVG-20010904/DTD/svg10.dtd">
<svg version="1.0" xmlns="http://www.w3.org/2000/svg"
 width="64.000000pt" height="133.000000pt" viewBox="0 0 64.000000 133.000000"
 preserveAspectRatio="xMidYMid meet">
<metadata>
Created by potrace 1.14, written by Peter Selinger 2001-2017
</metadata>
<g transform="translate(0.000000,133.000000) scale(0.100000,-0.100000)"
fill="#000000" stroke="none">
<path fill="#000000" stroke="none" d="M323 1297 c-34 -26 -42 -38 -43 -64 0
-28 -4 -33 -32 -37 -112 -17 -105 -13 -151 -80 -37 -53 -49 -82 -70 -170 -24
-102 -24 -107 -8 -161 12 -43 20 -55 36 -55 40 0 47 -13 31 -58 -8 -22 -18
-83 -22 -134 -6 -94 -6 -94 30 -166 31 -61 36 -81 36 -138 0 -50 31 -209 45
-232 1 -1 27 7 58 17 53 18 62 19 149 6 51 -8 125 -15 164 -15 70 0 72 1 84
30 11 27 10 33 -18 67 -16 21 -40 47 -52 58 -33 29 -84 134 -68 139 7 2 35 12
62 21 l49 18 -7 77 c-9 112 -50 228 -106 300 l-27 35 8 160 c4 88 10 206 13
262 l6 102 -44 20 c-73 32 -78 32 -123 -2z"/>
</g>
</svg>
