<?xml version="1.0" standalone="no"?>
<!DOCTYPE svg PUBLIC "-//W3C//DTD SVG 20010904//EN"
 "http://www.w3.org/TR/2001/REC-SVG-20010904/DTD/svg10.dtd">
<svg version="1.0" xmlns="http://www.w3.org/2000/svg"
 width="31.000000pt" height="69.000000pt" viewBox="0 0 31.000000 69.000000"
 preserveAspectRatio="xMidYMid meet">
<metadata>
Created by potrace 1.14, written by Peter Selinger 2001-2017
</metadata>
<g transform="translate(0.000000,69.000000) scale(0.100000,-0.100000)"
fill="#000000" stroke="none">
<path fill="#000000" stroke="none" d="M271 684 c0 -6 -40 -17 -87 -24 -83
-12 -85 -13 -80 -36 8 -29 -20 -132 -42 -156 -8 -10 -26 -18 -40 -18 -25 0
-25 0 -18 -72 4 -41 22 -117 43 -178 l37 -105 110 -48 c60 -25 112 -45 114
-42 3 2 -24 81 -59 176 l-63 171 13 61 c7 33 28 103 47 154 20 51 33 101 31
111 -3 9 -5 12 -6 6z"/>
</g>
</svg>
