<?xml version="1.0" standalone="no"?>
<!DOCTYPE svg PUBLIC "-//W3C//DTD SVG 20010904//EN"
 "http://www.w3.org/TR/2001/REC-SVG-20010904/DTD/svg10.dtd">
<svg version="1.0" xmlns="http://www.w3.org/2000/svg"
 width="170.000000pt" height="234.000000pt" viewBox="0 0 170.000000 234.000000"
 preserveAspectRatio="xMidYMid meet">
<metadata>
Created by potrace 1.14, written by Peter Selinger 2001-2017
</metadata>
<g transform="translate(0.000000,234.000000) scale(0.100000,-0.100000)"
fill="#000000" stroke="none">
<path fill="#000000" stroke="none" d="M380 2320 c-19 -10 -54 -36 -78 -57
-40 -35 -45 -45 -63 -127 -10 -50 -19 -98 -19 -108 0 -10 22 -49 50 -88 27
-39 50 -73 50 -76 0 -3 -9 -19 -20 -35 l-21 -28 53 5 53 6 -32 -21 c-18 -11
-56 -32 -85 -47 -29 -15 -56 -31 -59 -35 -3 -5 -25 -19 -50 -32 -35 -18 -46
-30 -55 -62 -7 -22 -23 -60 -37 -85 -14 -25 -30 -63 -37 -85 -7 -22 -16 -45
-21 -50 -5 -7 70 -6 219 3 l227 14 62 -33 63 -34 -1 -45 c-2 -62 38 -218 64
-251 12 -16 29 -28 38 -28 18 -1 29 -29 29 -79 0 -18 7 -46 15 -61 10 -21 14
-65 14 -172 0 -92 6 -174 16 -227 16 -81 15 -84 -5 -116 -16 -27 -20 -50 -20
-117 0 -46 4 -100 9 -119 5 -19 12 -47 15 -62 5 -22 17 -30 72 -48 59 -20 71
-21 128 -10 l64 12 11 111 c23 228 26 203 -25 238 -40 27 -44 33 -39 62 3 18
12 101 21 186 15 144 18 155 42 177 15 13 30 24 34 24 3 0 9 23 13 50 7 53 19
58 29 13 4 -16 32 -97 63 -182 l57 -154 -18 -51 c-10 -28 -26 -60 -36 -71 -10
-11 -20 -35 -22 -54 -3 -33 -2 -35 52 -53 56 -19 427 -88 476 -88 18 0 25 4
21 14 -51 132 -74 176 -119 222 -48 50 -49 50 -139 63 -60 9 -89 17 -86 24 44
120 48 144 39 239 -5 52 -5 166 -1 253 9 176 5 195 -60 286 -43 58 -64 63
-127 28 -45 -26 -62 -29 -137 -29 -111 0 -133 9 -146 57 -6 21 -11 51 -11 66
0 18 -18 53 -46 93 -25 35 -77 110 -114 167 l-69 102 24 20 c24 20 24 21 10
75 -7 30 -23 118 -35 195 -26 173 -36 186 -150 210 -41 8 -84 17 -95 19 -11 3
-36 -4 -55 -14z"/>
</g>
</svg>
