<?xml version="1.0" standalone="no"?>
<!DOCTYPE svg PUBLIC "-//W3C//DTD SVG 20010904//EN"
 "http://www.w3.org/TR/2001/REC-SVG-20010904/DTD/svg10.dtd">
<svg version="1.0" xmlns="http://www.w3.org/2000/svg"
 width="34.000000pt" height="122.000000pt" viewBox="0 0 34.000000 122.000000"
 preserveAspectRatio="xMidYMid meet">
<metadata>
Created by potrace 1.14, written by Peter Selinger 2001-2017
</metadata>
<g transform="translate(0.000000,122.000000) scale(0.100000,-0.100000)"
fill="#000000" stroke="none">
<path fill="#000000" stroke="none" d="M27 1192 c-39 -40 -36 -94 19 -345 46
-209 47 -212 86 -253 l40 -42 -36 -205 c-20 -112 -36 -213 -36 -224 0 -10 25
-43 55 -73 l54 -53 55 36 c57 38 56 37 70 134 2 12 -8 62 -22 110 -22 79 -25
112 -29 328 -4 212 -2 254 16 361 12 67 21 125 21 131 0 20 -119 92 -178 107
-79 21 -84 21 -115 -12z"/>
</g>
</svg>
