<?xml version="1.0" standalone="no"?>
<!DOCTYPE svg PUBLIC "-//W3C//DTD SVG 20010904//EN"
 "http://www.w3.org/TR/2001/REC-SVG-20010904/DTD/svg10.dtd">
<svg version="1.0" xmlns="http://www.w3.org/2000/svg"
 width="28.000000pt" height="32.000000pt" viewBox="0 0 28.000000 32.000000"
 preserveAspectRatio="xMidYMid meet">
<metadata>
Created by potrace 1.14, written by Peter Selinger 2001-2017
</metadata>
<g transform="translate(0.000000,32.000000) scale(0.100000,-0.100000)"
fill="#000000" stroke="none">
<path fill="#000000" stroke="none" d="M89 318 c-8 -26 -12 -49 -14 -78 -2
-27 -9 -39 -38 -57 -32 -20 -35 -26 -27 -47 21 -57 33 -67 68 -61 47 9 72 -2
72 -30 0 -12 7 -25 15 -29 11 -4 15 2 15 23 0 43 11 44 42 1 18 -24 34 -37 43
-33 8 3 15 6 15 8 0 13 -103 205 -110 205 -6 0 -10 17 -10 38 0 43 -14 62 -47
62 -13 0 -23 -1 -24 -2z"/>
</g>
</svg>
