<?xml version="1.0" standalone="no"?>
<!DOCTYPE svg PUBLIC "-//W3C//DTD SVG 20010904//EN"
 "http://www.w3.org/TR/2001/REC-SVG-20010904/DTD/svg10.dtd">
<svg version="1.0" xmlns="http://www.w3.org/2000/svg"
 width="103.000000pt" height="302.000000pt" viewBox="0 0 103.000000 302.000000"
 preserveAspectRatio="xMidYMid meet">
<metadata>
Created by potrace 1.14, written by Peter Selinger 2001-2017
</metadata>
<g transform="translate(0.000000,302.000000) scale(0.100000,-0.100000)"
fill="#000000" stroke="none">
<path fill="#000000" stroke="none" d="M213 2983 l-53 -36 0 -98 c0 -54 4
-101 10 -104 16 -10 12 -35 -5 -29 -24 9 -29 -41 -13 -122 13 -63 13 -77 2
-81 -7 -3 -38 -35 -67 -71 -53 -65 -55 -70 -72 -174 -18 -104 -18 -110 0 -169
23 -74 62 -110 113 -102 l32 5 0 -98 c0 -55 9 -220 19 -368 16 -229 18 -300 9
-477 l-11 -208 45 -63 c39 -55 53 -92 116 -303 40 -132 72 -244 72 -248 0 -5
-31 -47 -70 -93 -38 -47 -70 -88 -70 -92 0 -4 9 -18 19 -31 17 -23 21 -23 78
-13 77 13 183 66 183 90 0 9 -9 69 -20 132 -14 83 -20 162 -20 285 0 165 1
175 42 347 23 98 43 176 45 174 2 -2 17 -82 33 -177 17 -96 47 -238 69 -317
l39 -142 -10 -114 -11 -115 41 -48 c26 -31 61 -58 99 -77 l59 -28 57 17 57 16
-23 34 c-12 18 -55 59 -95 90 -42 33 -72 64 -72 74 0 71 75 519 100 601 17 53
30 107 30 120 0 13 -21 97 -46 188 l-46 165 32 258 32 257 -16 144 c-9 78 -33
213 -52 298 l-36 155 -77 71 -76 72 -103 12 c-56 7 -105 17 -108 21 -3 5 2 61
11 126 l15 117 -55 83 -55 83 -63 -1 c-54 0 -69 -5 -114 -36z"/>
<path fill="#ffffff" stroke="none" d="M784 1400 c-4 -8 -9 -32 -12 -52 -4
-35 -24 -54 -43 -42 -18 10 -10 85 13 116 20 29 22 30 35 12 7 -10 10 -25 7
-34z"/>
</g>
</svg>
