<?xml version="1.0" standalone="no"?>
<!DOCTYPE svg PUBLIC "-//W3C//DTD SVG 20010904//EN"
 "http://www.w3.org/TR/2001/REC-SVG-20010904/DTD/svg10.dtd">
<svg version="1.0" xmlns="http://www.w3.org/2000/svg"
 width="248.000000pt" height="382.000000pt" viewBox="0 0 248.000000 382.000000"
 preserveAspectRatio="xMidYMid meet">
<metadata>
Created by potrace 1.14, written by Peter Selinger 2001-2017
</metadata>
<g transform="translate(0.000000,382.000000) scale(0.100000,-0.100000)"
fill="#000000" stroke="none">
<path fill="#000000" stroke="none" d="M2030 3810 c-8 -5 -68 -10 -132 -10
l-116 0 -47 -52 -47 -53 6 -140 5 -140 -51 -79 c-53 -80 -138 -156 -175 -156
-10 0 -29 -7 -41 -16 -13 -9 -60 -28 -105 -43 -65 -22 -149 -70 -397 -225
-173 -109 -353 -230 -400 -269 -222 -185 -299 -260 -409 -395 l-114 -141 2
-138 c3 -187 26 -330 73 -434 l20 -46 297 -145 c163 -80 347 -167 409 -194
l114 -47 -74 -68 c-40 -37 -76 -68 -80 -69 -11 0 -192 -241 -206 -272 -7 -17
-19 -28 -31 -28 -17 0 -129 -58 -157 -81 -6 -5 -17 -30 -24 -55 -11 -40 -19
-48 -55 -64 -56 -24 -155 -165 -162 -232 -5 -41 -3 -46 33 -77 54 -48 85 -58
209 -65 61 -3 171 -16 245 -28 l136 -21 78 30 79 29 156 -31 c125 -26 202 -35
390 -45 l234 -13 43 49 c24 27 43 52 44 57 0 4 -24 7 -53 7 -46 0 -57 4 -82
30 -16 16 -37 30 -48 30 -21 0 -139 89 -132 100 3 4 18 13 34 20 l30 12 -16
34 c-10 19 -24 34 -34 34 -14 0 -18 14 -24 76 l-7 76 55 57 c59 61 217 265
217 281 0 5 38 88 85 184 46 95 89 186 95 201 l10 27 35 -29 c29 -24 33 -32
27 -58 -7 -29 -4 -336 3 -343 2 -2 12 1 23 7 29 16 33 -6 10 -51 -11 -24 -16
-47 -12 -63 7 -28 14 -31 32 -13 9 9 17 7 35 -10 l24 -22 11 25 c7 14 12 39
12 56 0 29 0 29 25 13 14 -9 28 -14 32 -11 3 3 2 28 -3 54 -10 59 -9 75 12
139 17 50 17 50 -16 150 -18 54 -63 171 -100 259 -86 202 -121 290 -115 283 3
-3 64 -72 135 -154 116 -133 130 -153 130 -186 0 -28 6 -41 24 -53 15 -10 25
-29 29 -53 10 -68 35 -112 73 -128 44 -18 51 -14 101 70 44 71 44 103 4 156
-92 121 -208 327 -231 414 -32 116 -77 217 -114 256 -54 57 -116 260 -116 382
0 20 -9 57 -20 83 l-20 46 25 39 c19 30 25 53 25 97 0 32 6 81 14 109 12 47
12 53 -5 75 -10 13 -19 37 -19 53 l0 29 90 -5 91 -6 18 37 c10 20 22 56 25 81
11 68 24 94 56 114 23 13 30 24 30 47 0 18 12 45 29 67 25 32 30 49 36 125 6
76 9 87 26 87 28 0 39 31 39 107 0 66 -2 70 -53 138 l-52 69 -110 32 c-118 35
-151 39 -175 24z"/>
</g>
</svg>
