<?xml version="1.0" standalone="no"?>
<!DOCTYPE svg PUBLIC "-//W3C//DTD SVG 20010904//EN"
 "http://www.w3.org/TR/2001/REC-SVG-20010904/DTD/svg10.dtd">
<svg version="1.0" xmlns="http://www.w3.org/2000/svg"
 width="186.000000pt" height="129.000000pt" viewBox="0 0 186.000000 129.000000"
 preserveAspectRatio="xMidYMid meet">
<metadata>
Created by potrace 1.14, written by Peter Selinger 2001-2017
</metadata>
<g transform="translate(0.000000,129.000000) scale(0.100000,-0.100000)"
fill="#000000" stroke="none">
<path fill="#000000" stroke="none" d="M309 1133 c0 -140 -3 -165 -23 -217
l-23 -60 -59 3 c-32 1 -61 3 -64 4 -3 1 -33 -16 -67 -38 -55 -36 -62 -44 -68
-82 -7 -39 -4 -45 35 -91 40 -48 41 -51 27 -79 -8 -15 -22 -46 -31 -68 l-17
-40 39 38 39 38 7 -32 c3 -17 6 -59 6 -93 0 -53 5 -68 38 -121 21 -33 72 -90
113 -126 69 -62 82 -69 199 -107 99 -33 147 -43 235 -50 154 -11 210 1 247 53
15 22 37 72 49 110 11 39 48 129 81 200 l60 131 141 -18 c78 -10 207 -22 285
-27 l144 -9 48 30 c42 26 52 39 79 104 31 73 36 108 24 153 -10 38 -63 23
-184 -53 l-106 -66 -261 42 -261 42 -48 -23 c-49 -22 -50 -24 -133 -191 -60
-121 -90 -170 -104 -174 -31 -8 -36 -7 -36 7 0 6 -18 47 -41 91 -37 73 -40 82
-33 133 4 35 15 64 30 83 49 58 26 105 -57 115 -52 6 -58 5 -73 -16 -9 -13
-16 -36 -16 -51 0 -22 -5 -28 -22 -28 -17 0 -11 -6 24 -25 26 -14 54 -25 62
-25 10 0 13 -6 10 -15 -8 -21 -28 -19 -49 5 -10 11 -25 20 -33 20 -28 0 -121
-33 -116 -42 3 -4 -1 -8 -9 -8 -18 0 -67 39 -49 40 7 0 12 14 12 35 0 19 4 35
9 35 5 0 19 37 31 83 22 77 22 89 11 207 -6 69 -11 155 -11 191 0 65 -1 68
-40 103 -22 20 -42 36 -45 36 -3 0 -5 -71 -6 -157z"/>
</g>
</svg>
