<?xml version="1.0" standalone="no"?>
<!DOCTYPE svg PUBLIC "-//W3C//DTD SVG 20010904//EN"
 "http://www.w3.org/TR/2001/REC-SVG-20010904/DTD/svg10.dtd">
<svg version="1.0" xmlns="http://www.w3.org/2000/svg"
 width="55.000000pt" height="122.000000pt" viewBox="0 0 55.000000 122.000000"
 preserveAspectRatio="xMidYMid meet">
<metadata>
Created by potrace 1.14, written by Peter Selinger 2001-2017
</metadata>
<g transform="translate(0.000000,122.000000) scale(0.100000,-0.100000)"
fill="#000000" stroke="none">
<path fill="#000000" stroke="none" d="M124 1202 c-44 -25 -124 -84 -124 -93
0 -4 23 -51 51 -104 56 -108 58 -134 12 -171 -21 -16 -24 -25 -19 -50 5 -24
21 -38 72 -68 35 -21 70 -49 77 -62 6 -12 49 -50 95 -83 l82 -61 0 -67 c0 -77
-5 -87 -41 -96 -50 -12 -77 -138 -45 -212 10 -24 10 -38 -1 -74 -7 -24 -10
-47 -7 -52 9 -16 156 -9 204 9 36 14 47 25 59 56 21 56 3 133 -47 200 -42 55
-57 122 -41 178 7 25 3 34 -28 69 l-36 39 17 58 c26 95 17 268 -15 288 -6 3
-16 -2 -23 -12 -18 -23 -79 -24 -104 -1 -17 15 -18 28 -14 116 7 141 0 166
-48 191 -46 23 -38 23 -76 2z"/>
</g>
</svg>
