<?xml version="1.0" standalone="no"?>
<!DOCTYPE svg PUBLIC "-//W3C//DTD SVG 20010904//EN"
 "http://www.w3.org/TR/2001/REC-SVG-20010904/DTD/svg10.dtd">
<svg version="1.0" xmlns="http://www.w3.org/2000/svg"
 width="87.000000pt" height="223.000000pt" viewBox="0 0 87.000000 223.000000"
 preserveAspectRatio="xMidYMid meet">
<metadata>
Created by potrace 1.14, written by Peter Selinger 2001-2017
</metadata>
<g transform="translate(0.000000,223.000000) scale(0.100000,-0.100000)"
fill="#000000" stroke="none">
<path fill="#000000" stroke="none" d="M441 2173 l-63 -56 7 -46 c4 -25 18
-84 32 -131 39 -129 39 -125 6 -139 -17 -7 -46 -40 -77 -87 -44 -67 -53 -92
-87 -232 -42 -174 -45 -232 -30 -592 l7 -165 -58 -267 c-32 -148 -58 -270 -58
-272 0 -2 -22 -20 -49 -39 -29 -21 -53 -48 -59 -66 -13 -36 -20 -32 88 -56 41
-9 82 -19 91 -21 13 -4 20 7 29 46 7 29 45 115 85 193 80 155 118 279 151 495
l18 112 58 -112 c57 -110 59 -117 79 -263 16 -113 20 -175 15 -251 l-6 -101
35 -46 36 -47 30 17 c50 29 50 32 40 169 -5 71 -8 316 -6 544 l2 415 31 85
c17 48 40 144 51 220 12 74 23 145 26 157 4 18 -7 28 -75 65 -75 40 -82 47
-115 109 l-34 65 34 49 c31 43 35 56 35 110 0 57 -2 63 -37 97 -30 28 -148 98
-166 98 -2 0 -32 -25 -66 -57z"/>
<path fill="#ffffff" stroke="none" d="M599 1136 l13 -63 -46 -89 c-33 -66
-54 -95 -80 -111 -20 -13 -42 -23 -49 -23 -14 0 -105 87 -131 125 -8 12 -16
40 -18 64 l-3 43 145 58 c80 32 148 59 151 59 3 1 11 -28 18 -63z"/>
</g>
</svg>
