<?xml version="1.0" standalone="no"?>
<!DOCTYPE svg PUBLIC "-//W3C//DTD SVG 20010904//EN"
 "http://www.w3.org/TR/2001/REC-SVG-20010904/DTD/svg10.dtd">
<svg version="1.0" xmlns="http://www.w3.org/2000/svg"
 width="102.000000pt" height="142.000000pt" viewBox="0 0 102.000000 142.000000"
 preserveAspectRatio="xMidYMid meet">
<metadata>
Created by potrace 1.14, written by Peter Selinger 2001-2017
</metadata>
<g transform="translate(0.000000,142.000000) scale(0.100000,-0.100000)"
fill="#000000" stroke="none">
<path fill="#000000" stroke="none" d="M204 1400 c-17 -11 -39 -39 -50 -63
-10 -23 -27 -51 -37 -62 -10 -11 -21 -31 -24 -45 -3 -14 -12 -34 -19 -45 -7
-11 -16 -49 -20 -85 -4 -36 -17 -85 -29 -110 l-23 -46 40 1 c21 0 44 -5 49
-11 7 -8 21 -7 54 5 40 14 45 19 50 56 12 76 11 75 53 61 40 -14 44 -27 28
-93 -7 -31 -6 -32 36 -42 62 -16 112 -43 116 -65 4 -16 -1 -17 -50 -11 -29 3
-102 7 -163 8 l-110 2 -2 -37 c-3 -46 21 -65 60 -47 20 9 35 4 101 -30 56 -30
89 -41 121 -41 l45 0 -6 -32 c-12 -74 -28 -135 -45 -175 -10 -22 -21 -61 -24
-86 -8 -51 -25 -43 163 -77 l122 -23 0 -152 0 -152 63 8 c134 18 125 13 116
63 -4 25 -15 61 -24 81 -31 76 -16 121 38 112 35 -5 36 -5 42 36 4 23 27 108
51 189 24 80 49 178 55 217 8 47 16 71 25 71 11 0 14 19 14 76 0 71 -3 83 -41
154 -82 154 -141 216 -306 318 -76 48 -88 52 -175 62 -51 6 -121 15 -154 20
-86 14 -105 12 -140 -10z"/>
</g>
</svg>
