<?xml version="1.0" standalone="no"?>
<!DOCTYPE svg PUBLIC "-//W3C//DTD SVG 20010904//EN"
 "http://www.w3.org/TR/2001/REC-SVG-20010904/DTD/svg10.dtd">
<svg version="1.0" xmlns="http://www.w3.org/2000/svg"
 width="148.000000pt" height="250.000000pt" viewBox="0 0 148.000000 250.000000"
 preserveAspectRatio="xMidYMid meet">
<metadata>
Created by potrace 1.14, written by Peter Selinger 2001-2017
</metadata>
<g transform="translate(0.000000,250.000000) scale(0.100000,-0.100000)"
fill="#000000" stroke="none">
<path fill="#000000" stroke="none" d="M475 2463 c-22 -34 -25 -48 -25 -129 0
-78 3 -93 20 -109 26 -24 25 -32 -6 -39 -14 -4 -84 -34 -155 -68 l-129 -61
-20 -54 c-11 -29 -20 -64 -20 -76 0 -12 -14 -51 -30 -85 -26 -55 -30 -75 -30
-148 0 -60 -6 -98 -20 -135 -12 -28 -30 -94 -42 -147 l-21 -95 34 -28 c41 -34
43 -34 79 -9 26 19 29 26 35 108 9 124 33 229 66 286 l28 50 11 -30 c8 -21 10
-154 7 -466 -4 -341 -3 -438 7 -441 7 -3 20 -43 30 -88 31 -153 49 -233 62
-290 15 -61 9 -295 -8 -305 -4 -3 -8 -27 -8 -55 l0 -49 163 0 c141 0 165 3
185 19 l24 18 -32 26 c-17 15 -39 31 -48 36 -13 7 -18 27 -20 90 -4 88 -7 82
85 231 55 89 63 119 63 224 0 107 11 152 44 181 47 40 55 85 56 311 1 124 -3
223 -9 244 -16 52 -13 125 6 165 15 32 21 36 48 32 62 -9 391 -90 434 -107
l44 -17 49 30 c67 42 64 61 -14 97 -44 20 -107 36 -208 53 -111 18 -159 30
-200 53 -52 28 -57 33 -87 109 -20 50 -34 107 -39 154 -7 74 -8 76 -61 133
-32 33 -67 59 -84 63 -16 4 -34 15 -39 25 -6 10 -10 69 -10 130 0 105 -2 114
-25 142 -14 16 -25 36 -25 44 0 11 -16 14 -70 14 -69 0 -69 0 -95 -37z"/>
</g>
</svg>
