<?xml version="1.0" standalone="no"?>
<!DOCTYPE svg PUBLIC "-//W3C//DTD SVG 20010904//EN"
 "http://www.w3.org/TR/2001/REC-SVG-20010904/DTD/svg10.dtd">
<svg version="1.0" xmlns="http://www.w3.org/2000/svg"
 width="57.000000pt" height="148.000000pt" viewBox="0 0 57.000000 148.000000"
 preserveAspectRatio="xMidYMid meet">
<metadata>
Created by potrace 1.14, written by Peter Selinger 2001-2017
</metadata>
<g transform="translate(0.000000,148.000000) scale(0.100000,-0.100000)"
fill="#000000" stroke="none">
<path fill="#000000" stroke="none" d="M282 1468 c-17 -21 -35 -129 -28 -173
5 -41 4 -43 -39 -74 -25 -18 -45 -33 -45 -34 0 -1 -9 -49 -20 -107 -25 -132
-25 -132 6 -169 l25 -30 -51 -256 c-28 -140 -49 -259 -46 -263 2 -4 6 -69 7
-144 l2 -136 -47 -41 -47 -41 91 0 92 0 -7 28 c-11 38 -8 75 16 242 20 134 24
151 67 230 54 100 60 95 62 -50 1 -52 5 -149 9 -215 7 -106 3 -158 -15 -217
-4 -15 1 -18 35 -18 45 0 39 -17 66 161 8 53 23 111 33 130 12 24 17 61 19
129 0 52 10 131 20 175 14 63 17 93 10 141 l-8 62 -60 -24 c-32 -13 -64 -24
-71 -24 -18 1 -68 46 -111 100 l-35 45 5 111 6 111 34 28 c20 15 41 28 47 29
7 0 63 -55 125 -124 118 -132 114 -123 96 -200 -6 -23 -6 -24 6 -5 7 11 18 44
25 74 11 48 10 66 -8 153 l-22 99 -50 36 c-72 52 -71 50 -54 70 15 17 15 21
-2 58 -10 22 -21 59 -25 81 -5 31 -13 44 -31 53 -33 15 -69 14 -82 -1z"/>
</g>
</svg>
