<?xml version="1.0" standalone="no"?>
<!DOCTYPE svg PUBLIC "-//W3C//DTD SVG 20010904//EN"
 "http://www.w3.org/TR/2001/REC-SVG-20010904/DTD/svg10.dtd">
<svg version="1.0" xmlns="http://www.w3.org/2000/svg"
 width="216.000000pt" height="426.000000pt" viewBox="0 0 216.000000 426.000000"
 preserveAspectRatio="xMidYMid meet">
<metadata>
Created by potrace 1.14, written by Peter Selinger 2001-2017
</metadata>
<g transform="translate(0.000000,426.000000) scale(0.100000,-0.100000)"
fill="#000000" stroke="none">
<path fill="#000000" stroke="none" d="M1014 4230 c-102 -20 -159 -37 -211
-63 l-71 -36 -135 -263 c-74 -145 -155 -297 -179 -338 l-44 -75 -51 -397 -51
-397 30 -103 c26 -88 29 -113 24 -168 -7 -68 -27 -812 -22 -817 2 -2 61 3 132
11 71 8 130 13 132 11 8 -8 -165 -364 -335 -685 l-192 -365 -16 -100 c-8 -55
-18 -112 -21 -128 l-6 -27 132 0 c120 0 131 -1 126 -17 -3 -10 -10 -45 -16
-79 -10 -60 -10 -62 27 -128 l37 -67 241 6 c222 5 1360 25 1447 25 l38 0 -23
38 c-20 30 -26 61 -36 167 -10 98 -29 192 -77 383 -36 139 -63 256 -60 260 3
5 50 19 105 32 75 17 101 28 101 39 0 9 -9 169 -21 356 l-21 340 79 225 79
225 -21 473 c-13 294 -25 476 -31 480 -44 29 -303 278 -307 295 -3 12 -11 58
-17 103 -11 75 -24 103 -190 429 l-178 349 -6 -45 c-3 -24 -15 -215 -26 -424
-11 -209 -23 -405 -26 -436 l-6 -56 -46 -11 c-26 -6 -48 -9 -49 -8 -1 1 20
222 48 490 28 268 48 490 46 492 -4 4 -177 34 -187 33 -3 -1 -68 -13 -146 -29z"/>
</g>
</svg>
