<?xml version="1.0" standalone="no"?>
<!DOCTYPE svg PUBLIC "-//W3C//DTD SVG 20010904//EN"
 "http://www.w3.org/TR/2001/REC-SVG-20010904/DTD/svg10.dtd">
<svg version="1.0" xmlns="http://www.w3.org/2000/svg"
 width="36.000000pt" height="127.000000pt" viewBox="0 0 36.000000 127.000000"
 preserveAspectRatio="xMidYMid meet">
<metadata>
Created by potrace 1.14, written by Peter Selinger 2001-2017
</metadata>
<g transform="translate(0.000000,127.000000) scale(0.100000,-0.100000)"
fill="#000000" stroke="none">
<path fill="#000000" stroke="none" d="M46 1260 c-16 -5 -32 -14 -35 -19 -4
-6 -8 -278 -9 -604 l-3 -595 30 -22 c20 -14 42 -20 63 -18 l33 3 10 128 10
128 79 -110 c89 -124 109 -146 127 -136 17 11 5 79 -42 234 l-40 134 11 146
c6 80 18 178 26 216 20 97 19 99 -29 179 -72 117 -114 199 -122 236 -8 40 -52
110 -69 109 -6 0 -24 -5 -40 -9z"/>
</g>
</svg>
