<?xml version="1.0" standalone="no"?>
<!DOCTYPE svg PUBLIC "-//W3C//DTD SVG 20010904//EN"
 "http://www.w3.org/TR/2001/REC-SVG-20010904/DTD/svg10.dtd">
<svg version="1.0" xmlns="http://www.w3.org/2000/svg"
 width="32.000000pt" height="73.000000pt" viewBox="0 0 32.000000 73.000000"
 preserveAspectRatio="xMidYMid meet">
<metadata>
Created by potrace 1.14, written by Peter Selinger 2001-2017
</metadata>
<g transform="translate(0.000000,73.000000) scale(0.100000,-0.100000)"
fill="#000000" stroke="none">
<path fill="#000000" stroke="none" d="M72 723 c-7 -3 -25 -23 -40 -46 -27
-39 -28 -47 -24 -125 4 -76 6 -84 28 -94 20 -10 24 -18 24 -57 -1 -25 -7 -82
-15 -126 -19 -105 -19 -225 -1 -251 14 -19 15 -19 22 1 4 11 15 40 24 65 l17
44 17 -57 c9 -31 24 -61 35 -66 15 -9 21 -1 44 58 21 54 27 87 28 152 1 46 4
95 8 109 4 14 1 45 -6 69 -7 24 -13 57 -13 73 0 27 2 29 29 23 25 -5 31 -2 50
28 27 44 27 47 -9 47 -16 0 -30 3 -30 8 0 4 -19 28 -43 53 -45 50 -124 100
-145 92z"/>
</g>
</svg>
