<?xml version="1.0" standalone="no"?>
<!DOCTYPE svg PUBLIC "-//W3C//DTD SVG 20010904//EN"
 "http://www.w3.org/TR/2001/REC-SVG-20010904/DTD/svg10.dtd">
<svg version="1.0" xmlns="http://www.w3.org/2000/svg"
 width="34.000000pt" height="106.000000pt" viewBox="0 0 34.000000 106.000000"
 preserveAspectRatio="xMidYMid meet">
<metadata>
Created by potrace 1.14, written by Peter Selinger 2001-2017
</metadata>
<g transform="translate(0.000000,106.000000) scale(0.100000,-0.100000)"
fill="#000000" stroke="none">
<path fill="#000000" stroke="none" d="M54 1023 c-29 -52 -23 -147 13 -221
l26 -53 -26 -27 c-15 -15 -32 -45 -40 -67 -28 -80 -28 -133 2 -280 28 -138 28
-141 10 -176 l-18 -36 97 -75 c53 -41 102 -77 109 -81 20 -12 42 4 49 36 3 18
17 52 29 77 23 47 37 128 28 170 -3 14 -22 39 -44 55 -47 37 -69 76 -69 126 0
21 -7 57 -17 80 -17 44 -15 57 26 149 15 36 17 120 5 261 l-6 67 -56 11 c-32
6 -66 14 -77 16 -15 4 -25 -3 -41 -32z"/>
</g>
</svg>
