<?xml version="1.0" standalone="no"?>
<!DOCTYPE svg PUBLIC "-//W3C//DTD SVG 20010904//EN"
 "http://www.w3.org/TR/2001/REC-SVG-20010904/DTD/svg10.dtd">
<svg version="1.0" xmlns="http://www.w3.org/2000/svg"
 width="8.000000pt" height="12.000000pt" viewBox="0 0 8.000000 12.000000"
 preserveAspectRatio="xMidYMid meet">
<metadata>
Created by potrace 1.14, written by Peter Selinger 2001-2017
</metadata>
<g transform="translate(0.000000,12.000000) scale(0.100000,-0.100000)"
fill="#000000" stroke="none">
<path fill="#000000" stroke="none" d="M0 71 c0 -31 5 -53 15 -61 12 -10 15
-9 16 6 1 11 1 25 0 33 -2 7 2 10 7 7 5 -3 18 4 28 16 19 21 19 21 -5 15 -17
-4 -24 -1 -28 14 -3 10 -12 19 -19 19 -10 0 -14 -14 -14 -49z"/>
</g>
</svg>
