<?xml version="1.0" standalone="no"?>
<!DOCTYPE svg PUBLIC "-//W3C//DTD SVG 20010904//EN"
 "http://www.w3.org/TR/2001/REC-SVG-20010904/DTD/svg10.dtd">
<svg version="1.0" xmlns="http://www.w3.org/2000/svg"
 width="35.000000pt" height="23.000000pt" viewBox="0 0 35.000000 23.000000"
 preserveAspectRatio="xMidYMid meet">
<metadata>
Created by potrace 1.14, written by Peter Selinger 2001-2017
</metadata>
<g transform="translate(0.000000,23.000000) scale(0.100000,-0.100000)"
fill="#000000" stroke="none">
<path fill="#000000" stroke="none" d="M18 223 c-2 -10 -6 -44 -14 -111 -6
-49 -4 -55 22 -83 30 -31 74 -40 74 -14 0 11 11 15 39 15 23 0 44 6 52 16 11
13 25 15 80 10 79 -8 95 4 39 29 -36 16 -43 16 -87 2 -26 -8 -60 -13 -75 -10
-40 8 -81 56 -87 105 -4 30 -11 44 -23 46 -10 2 -19 0 -20 -5z"/>
</g>
</svg>
