<?xml version="1.0" standalone="no"?>
<!DOCTYPE svg PUBLIC "-//W3C//DTD SVG 20010904//EN"
 "http://www.w3.org/TR/2001/REC-SVG-20010904/DTD/svg10.dtd">
<svg version="1.0" xmlns="http://www.w3.org/2000/svg"
 width="67.000000pt" height="126.000000pt" viewBox="0 0 67.000000 126.000000"
 preserveAspectRatio="xMidYMid meet">
<metadata>
Created by potrace 1.14, written by Peter Selinger 2001-2017
</metadata>
<g transform="translate(0.000000,126.000000) scale(0.100000,-0.100000)"
fill="#000000" stroke="none">
<path fill="#000000" stroke="none" d="M225 1249 c-16 -4 -56 -33 -89 -63 -57
-54 -58 -56 -63 -118 -6 -72 20 -269 43 -323 24 -58 7 -95 -61 -128 -30 -15
-55 -31 -55 -37 0 -21 60 -505 64 -517 3 -6 23 -14 45 -18 31 -5 41 -11 41
-26 0 -22 4 -23 30 -9 33 18 39 35 70 200 11 56 58 199 70 213 4 4 72 32 151
62 79 29 157 58 173 64 l29 12 -31 32 c-24 25 -32 42 -32 69 0 30 -6 39 -39
61 -21 14 -40 34 -43 44 -3 11 5 50 18 89 44 129 26 239 -46 289 -22 15 -50
42 -64 60 -21 28 -34 33 -95 43 -79 13 -75 13 -116 1z"/>
</g>
</svg>
