<?xml version="1.0" standalone="no"?>
<!DOCTYPE svg PUBLIC "-//W3C//DTD SVG 20010904//EN"
 "http://www.w3.org/TR/2001/REC-SVG-20010904/DTD/svg10.dtd">
<svg version="1.0" xmlns="http://www.w3.org/2000/svg"
 width="164.000000pt" height="237.000000pt" viewBox="0 0 164.000000 237.000000"
 preserveAspectRatio="xMidYMid meet">
<metadata>
Created by potrace 1.14, written by Peter Selinger 2001-2017
</metadata>
<g transform="translate(0.000000,237.000000) scale(0.100000,-0.100000)"
fill="#000000" stroke="none">
<path fill="#000000" stroke="none" d="M268 2338 l-78 -30 -76 -125 c-72 -117
-78 -132 -96 -228 l-20 -103 52 -48 c29 -27 56 -49 61 -48 5 1 31 2 58 3 l48
1 7 68 c4 37 9 82 13 100 l6 34 57 -57 57 -56 7 -162 c5 -127 11 -170 25 -199
l18 -38 -32 28 c-18 15 -53 44 -78 65 -41 34 -137 75 -137 58 0 -4 5 -34 11
-67 10 -51 19 -66 66 -115 30 -30 82 -71 117 -89 l63 -34 -40 -99 -40 -99 35
-35 c24 -23 61 -44 113 -62 l78 -28 50 -132 c27 -72 47 -134 44 -138 -4 -3
-29 -8 -57 -11 -28 -2 -52 -7 -54 -11 -2 -3 -7 -31 -11 -61 l-7 -55 46 -23
c26 -12 58 -22 73 -22 60 0 67 -61 24 -215 -25 -86 -28 -113 -22 -154 9 -59
23 -79 71 -99 42 -18 183 -52 189 -46 3 2 -1 48 -9 102 -7 53 -16 147 -20 207
-6 102 -4 121 28 260 18 83 35 155 37 162 4 14 28 8 123 -30 58 -23 58 -25 20
-101 -25 -49 -51 -134 -44 -144 3 -5 22 -14 44 -21 38 -13 41 -12 143 43 96
52 107 61 142 118 21 34 52 104 69 157 60 190 65 200 104 207 29 5 40 15 63
56 l29 50 -43 127 c-23 69 -68 189 -100 266 -51 123 -65 147 -115 200 -32 33
-88 102 -124 154 l-65 94 -141 62 c-180 81 -187 86 -300 197 -156 154 -175
166 -271 183 -109 19 -120 19 -211 -17z"/>
</g>
</svg>
