<?xml version="1.0" standalone="no"?>
<!DOCTYPE svg PUBLIC "-//W3C//DTD SVG 20010904//EN"
 "http://www.w3.org/TR/2001/REC-SVG-20010904/DTD/svg10.dtd">
<svg version="1.0" xmlns="http://www.w3.org/2000/svg"
 width="27.000000pt" height="73.000000pt" viewBox="0 0 27.000000 73.000000"
 preserveAspectRatio="xMidYMid meet">
<metadata>
Created by potrace 1.14, written by Peter Selinger 2001-2017
</metadata>
<g transform="translate(0.000000,73.000000) scale(0.100000,-0.100000)"
fill="#000000" stroke="none">
<path fill="#000000" stroke="none" d="M71 699 c-6 -18 -11 -49 -11 -71 0 -27
-9 -51 -30 -80 l-30 -41 22 -25 c21 -22 23 -33 24 -150 l0 -127 46 -91 c25
-49 52 -95 60 -102 33 -27 83 22 109 107 10 35 10 46 -6 81 -21 46 -33 46 -17
1 10 -28 9 -31 -12 -37 -13 -3 -38 -4 -57 -2 -33 3 -34 4 -31 47 2 38 32 106
32 73 0 -26 30 -11 31 16 l1 27 8 -30 c4 -16 8 -25 9 -20 19 154 19 175 2 262
-24 115 -50 167 -92 182 -44 15 -46 15 -58 -20z"/>
</g>
</svg>
