<?xml version="1.0" standalone="no"?>
<!DOCTYPE svg PUBLIC "-//W3C//DTD SVG 20010904//EN"
 "http://www.w3.org/TR/2001/REC-SVG-20010904/DTD/svg10.dtd">
<svg version="1.0" xmlns="http://www.w3.org/2000/svg"
 width="57.000000pt" height="262.000000pt" viewBox="0 0 57.000000 262.000000"
 preserveAspectRatio="xMidYMid meet">
<metadata>
Created by potrace 1.14, written by Peter Selinger 2001-2017
</metadata>
<g transform="translate(0.000000,262.000000) scale(0.100000,-0.100000)"
fill="#000000" stroke="none">
<path fill="#000000" stroke="none" d="M529 2607 c-14 -7 -49 -28 -77 -47 -48
-32 -55 -43 -96 -140 -24 -58 -52 -129 -62 -158 -15 -43 -26 -57 -61 -78 -60
-35 -106 -100 -143 -202 -31 -85 -32 -90 -27 -227 5 -171 21 -245 52 -245 55
0 91 -92 68 -170 -8 -25 -32 -122 -54 -216 -38 -165 -79 -292 -98 -303 -5 -4
-5 -47 1 -105 9 -86 8 -117 -12 -240 -30 -195 -30 -195 50 -225 36 -14 66 -26
68 -27 2 -1 10 -46 19 -100 9 -55 19 -102 22 -105 3 -4 71 -10 151 -13 l145
-7 28 50 c19 34 35 51 48 51 19 0 19 19 19 1260 0 693 -3 1260 -7 1259 -5 0
-20 -6 -34 -12z"/>
</g>
</svg>
