<?xml version="1.0" standalone="no"?>
<!DOCTYPE svg PUBLIC "-//W3C//DTD SVG 20010904//EN"
 "http://www.w3.org/TR/2001/REC-SVG-20010904/DTD/svg10.dtd">
<svg version="1.0" xmlns="http://www.w3.org/2000/svg"
 width="85.000000pt" height="214.000000pt" viewBox="0 0 85.000000 214.000000"
 preserveAspectRatio="xMidYMid meet">
<metadata>
Created by potrace 1.14, written by Peter Selinger 2001-2017
</metadata>
<g transform="translate(0.000000,214.000000) scale(0.100000,-0.100000)"
fill="#000000" stroke="none">
<path fill="#000000" stroke="none" d="M46 2108 c47 -50 62 -80 79 -154 15
-63 14 -72 0 -111 -9 -23 -34 -58 -55 -77 l-39 -35 13 -73 c7 -40 29 -111 48
-157 l36 -84 -18 -52 c-10 -28 -26 -69 -37 -90 -14 -27 -22 -71 -27 -133 -3
-51 -11 -102 -17 -113 -27 -51 -30 -136 -9 -260 14 -80 19 -140 15 -177 -4
-40 0 -88 15 -157 18 -86 20 -119 14 -237 l-7 -137 29 -6 c16 -4 66 -17 110
-31 45 -13 96 -24 113 -24 29 0 31 2 31 36 0 25 -9 48 -29 73 -29 36 -29 37
-10 49 19 12 18 15 -23 48 -24 20 -46 39 -51 43 -14 14 57 701 74 715 2 1 20
15 40 29 34 26 36 30 48 124 20 158 51 306 70 336 10 15 46 45 80 66 52 32 70
51 112 120 27 44 75 107 104 140 34 36 55 68 55 82 0 13 9 44 20 68 11 24 20
45 20 47 0 10 -67 3 -78 -8 -9 -9 -15 -9 -24 0 -7 7 -15 12 -19 12 -3 0 -24
-35 -45 -77 -95 -191 -174 -273 -264 -273 -37 0 -40 2 -40 26 0 37 -42 188
-54 196 -6 4 -27 10 -48 13 -32 6 -43 15 -73 63 -19 31 -35 69 -35 86 0 39
-44 112 -72 120 -13 3 -36 6 -52 6 l-30 0 30 -32z"/>
</g>
</svg>
