<?xml version="1.0" standalone="no"?>
<!DOCTYPE svg PUBLIC "-//W3C//DTD SVG 20010904//EN"
 "http://www.w3.org/TR/2001/REC-SVG-20010904/DTD/svg10.dtd">
<svg version="1.0" xmlns="http://www.w3.org/2000/svg"
 width="49.000000pt" height="145.000000pt" viewBox="0 0 49.000000 145.000000"
 preserveAspectRatio="xMidYMid meet">
<metadata>
Created by potrace 1.14, written by Peter Selinger 2001-2017
</metadata>
<g transform="translate(0.000000,145.000000) scale(0.100000,-0.100000)"
fill="#000000" stroke="none">
<path fill="#000000" stroke="none" d="M200 1443 c-53 -6 -61 -26 -44 -113 14
-78 13 -90 -15 -90 -10 0 -31 -24 -55 -64 l-37 -65 18 -68 19 -68 -43 -107
c-24 -59 -43 -124 -43 -144 0 -51 20 -114 37 -114 15 0 16 11 4 62 -8 33 -6
39 24 68 l33 32 -8 -40 c-4 -25 1 -95 13 -183 17 -128 18 -165 9 -334 -6 -104
-9 -191 -8 -192 1 -1 24 -5 52 -8 l51 -7 6 98 c4 55 7 138 7 185 0 82 1 86 30
114 l30 29 0 -27 c0 -17 5 -27 14 -27 28 0 43 -29 55 -112 12 -81 12 -88 -13
-169 -14 -47 -26 -88 -26 -92 0 -4 25 -7 55 -7 30 0 55 1 55 3 0 1 5 40 11 87
7 59 7 139 -1 275 -8 143 -8 203 0 240 35 150 56 302 48 355 -28 196 -23 184
-94 241 l-64 52 -22 99 c-24 107 -16 100 -98 91z"/>
</g>
</svg>
