<?xml version="1.0" standalone="no"?>
<!DOCTYPE svg PUBLIC "-//W3C//DTD SVG 20010904//EN"
 "http://www.w3.org/TR/2001/REC-SVG-20010904/DTD/svg10.dtd">
<svg version="1.0" xmlns="http://www.w3.org/2000/svg"
 width="39.000000pt" height="16.000000pt" viewBox="0 0 39.000000 16.000000"
 preserveAspectRatio="xMidYMid meet">
<metadata>
Created by potrace 1.14, written by Peter Selinger 2001-2017
</metadata>
<g transform="translate(0.000000,16.000000) scale(0.100000,-0.100000)"
fill="#000000" stroke="none">
<path fill="#000000" stroke="none" d="M310 140 c11 -21 11 -22 -27 -16 -96
14 -160 17 -183 8 -14 -5 -37 -6 -54 -1 -16 5 -32 7 -34 4 -2 -2 -7 -34 -10
-71 l-5 -67 39 24 c36 22 48 24 172 23 72 -1 132 2 132 6 0 4 11 23 24 43 l24
36 -26 9 c-15 6 -35 13 -46 17 -16 7 -17 6 -6 -15z"/>
</g>
</svg>
