<?xml version="1.0" standalone="no"?>
<!DOCTYPE svg PUBLIC "-//W3C//DTD SVG 20010904//EN"
 "http://www.w3.org/TR/2001/REC-SVG-20010904/DTD/svg10.dtd">
<svg version="1.0" xmlns="http://www.w3.org/2000/svg"
 width="19.000000pt" height="62.000000pt" viewBox="0 0 19.000000 62.000000"
 preserveAspectRatio="xMidYMid meet">
<metadata>
Created by potrace 1.14, written by Peter Selinger 2001-2017
</metadata>
<g transform="translate(0.000000,62.000000) scale(0.100000,-0.100000)"
fill="#000000" stroke="none">
<path fill="#000000" stroke="none" d="M58 609 c-10 -5 -23 -19 -28 -30 -16
-29 -22 -216 -8 -238 8 -14 7 -56 -6 -171 -9 -84 -15 -154 -12 -157 7 -7 123
-16 138 -11 11 5 12 28 6 119 -7 105 -6 122 19 220 l27 106 -27 32 c-20 24
-27 43 -27 75 0 23 -5 47 -12 54 -14 14 -47 15 -70 1z"/>
</g>
</svg>
