<?xml version="1.0" standalone="no"?>
<!DOCTYPE svg PUBLIC "-//W3C//DTD SVG 20010904//EN"
 "http://www.w3.org/TR/2001/REC-SVG-20010904/DTD/svg10.dtd">
<svg version="1.0" xmlns="http://www.w3.org/2000/svg"
 width="60.000000pt" height="164.000000pt" viewBox="0 0 60.000000 164.000000"
 preserveAspectRatio="xMidYMid meet">
<metadata>
Created by potrace 1.14, written by Peter Selinger 2001-2017
</metadata>
<g transform="translate(0.000000,164.000000) scale(0.100000,-0.100000)"
fill="#000000" stroke="none">
<path fill="#000000" stroke="none" d="M336 1624 c-3 -9 -6 -22 -6 -30 0 -8
-7 -26 -16 -40 -13 -19 -16 -45 -15 -108 1 -51 -2 -87 -8 -91 -6 -3 -11 -13
-11 -21 0 -12 7 -11 31 7 l32 22 -28 -46 c-20 -35 -27 -62 -28 -105 -2 -54 -4
-60 -38 -88 -224 -180 -249 -203 -249 -232 0 -5 15 -21 34 -35 l33 -26 37 25
37 26 -15 -30 c-21 -40 -11 -159 14 -174 18 -11 18 -8 -14 -178 -20 -108 -21
-243 -2 -259 27 -22 1 -153 -36 -179 -25 -18 -13 -32 27 -32 54 0 64 8 70 58
4 26 16 73 27 104 l21 58 26 -19 c14 -11 36 -30 49 -44 21 -22 22 -29 13 -63
-6 -22 -11 -47 -11 -56 0 -22 67 -68 87 -61 16 6 15 15 -8 94 -11 41 -10 53 4
91 14 35 26 48 60 65 39 19 44 26 64 89 13 38 20 78 18 89 -2 11 -9 78 -15
148 l-10 128 43 60 c40 58 42 64 42 132 0 40 -4 103 -9 140 l-8 69 -68 30
c-38 17 -71 36 -74 44 -3 7 -1 37 3 65 10 64 2 81 -53 105 -39 17 -40 18 -14
21 23 4 30 13 52 79 l25 75 -24 35 c-13 20 -27 44 -30 55 -8 23 -50 26 -59 3z"/>
</g>
</svg>
