<?xml version="1.0" standalone="no"?>
<!DOCTYPE svg PUBLIC "-//W3C//DTD SVG 20010904//EN"
 "http://www.w3.org/TR/2001/REC-SVG-20010904/DTD/svg10.dtd">
<svg version="1.0" xmlns="http://www.w3.org/2000/svg"
 width="95.000000pt" height="198.000000pt" viewBox="0 0 95.000000 198.000000"
 preserveAspectRatio="xMidYMid meet">
<metadata>
Created by potrace 1.14, written by Peter Selinger 2001-2017
</metadata>
<g transform="translate(0.000000,198.000000) scale(0.100000,-0.100000)"
fill="#000000" stroke="none">
<path fill="#000000" stroke="none" d="M658 1973 l-46 -4 -57 -96 -58 -96 2
-89 c3 -127 -25 -206 -91 -259 -26 -20 -77 -47 -113 -59 -65 -22 -65 -22 -65
-59 l0 -38 49 8 c42 6 159 39 200 56 9 4 11 0 8 -13 -3 -11 -20 -72 -38 -136
-31 -115 -32 -118 -73 -142 -68 -40 -87 -67 -102 -147 -8 -40 -73 -253 -145
-472 -71 -220 -128 -401 -125 -404 2 -3 48 -2 101 2 115 9 113 5 127 165 9
103 10 107 98 295 50 106 90 198 90 206 0 27 53 67 123 93 37 14 67 21 67 16
0 -5 -11 -135 -25 -287 -25 -269 -27 -280 -57 -339 -31 -59 -31 -63 -18 -103
20 -61 29 -69 75 -64 38 4 42 8 81 81 42 77 42 78 49 216 l8 139 53 121 54
121 0 113 c0 108 2 118 36 195 19 45 45 125 57 177 20 83 21 104 12 171 -9 66
-17 86 -63 156 l-53 81 31 62 c22 44 34 87 42 149 10 80 9 90 -12 139 l-22 52
-77 -2 c-42 -1 -97 -3 -123 -5z"/>
</g>
</svg>
