<?xml version="1.0" standalone="no"?>
<!DOCTYPE svg PUBLIC "-//W3C//DTD SVG 20010904//EN"
 "http://www.w3.org/TR/2001/REC-SVG-20010904/DTD/svg10.dtd">
<svg version="1.0" xmlns="http://www.w3.org/2000/svg"
 width="82.000000pt" height="217.000000pt" viewBox="0 0 82.000000 217.000000"
 preserveAspectRatio="xMidYMid meet">
<metadata>
Created by potrace 1.14, written by Peter Selinger 2001-2017
</metadata>
<g transform="translate(0.000000,217.000000) scale(0.100000,-0.100000)"
fill="#000000" stroke="none">
<path fill="#000000" stroke="none" d="M355 2165 c-5 -2 -26 -6 -46 -9 -30 -5
-40 -14 -63 -56 -15 -27 -39 -58 -54 -69 l-27 -19 26 -7 c22 -6 28 -14 34 -53
15 -103 13 -115 -25 -133 -46 -22 -71 -50 -115 -132 -46 -84 -89 -241 -70
-257 7 -5 15 -40 18 -78 4 -37 23 -114 42 -172 19 -57 36 -115 36 -129 1 -21
2 -22 6 -6 13 52 62 47 110 -12 31 -38 38 -53 33 -73 l-6 -25 -12 23 c-7 12
-17 22 -23 22 -6 0 -1 -13 10 -29 11 -15 17 -32 13 -36 -4 -5 -2 -5 4 -2 8 4
14 -15 18 -60 4 -37 18 -116 33 -177 20 -89 31 -117 55 -142 16 -18 40 -61 53
-97 l24 -66 -20 -93 c-11 -51 -32 -124 -46 -162 -27 -67 -27 -69 -8 -82 11 -7
25 -18 32 -24 7 -5 42 -10 78 -10 l66 0 -2 118 c-1 97 4 144 31 276 30 150 31
161 18 215 l-14 56 39 52 c39 52 39 52 68 38 28 -15 29 -15 48 22 l19 38 -29
90 c-25 76 -29 105 -29 197 0 104 1 108 26 124 34 23 77 88 97 148 28 83 22
148 -24 263 -39 97 -43 103 -97 138 -30 21 -92 50 -136 65 -74 25 -81 29 -78
51 2 13 6 61 9 106 l5 82 -47 45 c-44 43 -56 49 -80 41z"/>
</g>
</svg>
