<?xml version="1.0" standalone="no"?>
<!DOCTYPE svg PUBLIC "-//W3C//DTD SVG 20010904//EN"
 "http://www.w3.org/TR/2001/REC-SVG-20010904/DTD/svg10.dtd">
<svg version="1.0" xmlns="http://www.w3.org/2000/svg"
 width="66.000000pt" height="24.000000pt" viewBox="0 0 66.000000 24.000000"
 preserveAspectRatio="xMidYMid meet">
<metadata>
Created by potrace 1.14, written by Peter Selinger 2001-2017
</metadata>
<g transform="translate(0.000000,24.000000) scale(0.100000,-0.100000)"
fill="#000000" stroke="none">
<path fill="#000000" stroke="none" d="M8 235 c-4 -4 -3 -18 2 -31 5 -13 7
-44 4 -68 -5 -32 -1 -58 12 -90 l19 -46 287 3 c238 2 290 5 302 17 14 15 32
120 21 120 -4 0 -35 -20 -70 -45 l-63 -45 -208 2 -208 3 -38 65 c-21 36 -41
78 -46 93 -4 16 -10 25 -14 22z"/>
</g>
</svg>
