<?xml version="1.0" standalone="no"?>
<!DOCTYPE svg PUBLIC "-//W3C//DTD SVG 20010904//EN"
 "http://www.w3.org/TR/2001/REC-SVG-20010904/DTD/svg10.dtd">
<svg version="1.0" xmlns="http://www.w3.org/2000/svg"
 width="377.000000pt" height="565.000000pt" viewBox="0 0 377.000000 565.000000"
 preserveAspectRatio="xMidYMid meet">
<metadata>
Created by potrace 1.14, written by Peter Selinger 2001-2017
</metadata>
<g transform="translate(0.000000,565.000000) scale(0.100000,-0.100000)"
fill="#000000" stroke="none">
<path fill="#000000" stroke="none" d="M935 5640 c-18 -7 -16 -8 10 -11 24 -3
-44 -37 -330 -162 l-360 -158 -90 -116 c-50 -64 -94 -123 -99 -131 -10 -17 13
-716 24 -747 5 -12 133 -116 286 -233 367 -279 341 -255 349 -327 8 -71 -9
-119 -77 -213 -42 -59 -47 -62 -228 -152 -102 -51 -219 -115 -260 -144 l-74
-51 -43 -208 -43 -208 126 -562 c69 -309 127 -569 130 -577 2 -8 39 -40 81
-70 71 -51 79 -60 113 -135 20 -44 72 -174 116 -288 l79 -208 102 -65 101 -65
7 -61 c4 -33 4 -140 0 -238 -7 -169 8 -484 24 -502 8 -8 2437 5 2446 14 4 3
-44 109 -105 235 l-112 228 -44 330 c-24 181 -42 330 -40 332 1 2 45 -6 97
-16 103 -22 98 -23 167 36 l34 29 36 454 36 455 -18 275 c-9 151 -19 303 -23
337 l-6 61 43 13 43 13 89 184 88 183 0 82 c0 91 20 211 45 271 47 113 112
318 101 321 -6 3 -94 27 -196 55 -102 28 -190 53 -197 55 -7 2 -68 -72 -137
-165 -69 -93 -159 -206 -201 -251 l-75 -82 0 -196 c0 -119 8 -278 20 -406 14
-141 18 -240 14 -301 l-7 -92 -93 108 -93 108 -9 138 -10 139 -87 150 c-60
103 -107 170 -151 215 -62 64 -63 66 -78 150 -29 162 -55 211 -205 379 l-134
150 -96 21 c-53 12 -101 23 -107 25 -6 2 -11 -2 -11 -8 0 -16 -61 -116 -89
-147 -13 -14 -33 -51 -45 -83 l-22 -58 -39 43 c-21 24 -52 72 -69 108 -18 36
-46 84 -62 108 l-31 43 31 62 c30 61 32 63 83 75 28 7 67 12 86 12 19 0 34 2
34 5 0 3 -16 37 -36 76 -26 53 -59 164 -128 433 l-93 361 8 153 8 154 -71 114
c-39 62 -78 116 -87 118 -84 26 -401 45 -446 26z"/>
<path fill="#ffffff" stroke="none" d="M3524 3788 c4 -46 9 -106 13 -134 l5
-51 -93 -37 c-94 -36 -94 -36 -207 -29 -62 3 -115 10 -118 14 -2 4 35 72 84
151 l89 143 69 11 c38 7 87 12 110 13 l41 1 7 -82z"/>
</g>
</svg>
