<?xml version="1.0" standalone="no"?>
<!DOCTYPE svg PUBLIC "-//W3C//DTD SVG 20010904//EN"
 "http://www.w3.org/TR/2001/REC-SVG-20010904/DTD/svg10.dtd">
<svg version="1.0" xmlns="http://www.w3.org/2000/svg"
 width="22.000000pt" height="77.000000pt" viewBox="0 0 22.000000 77.000000"
 preserveAspectRatio="xMidYMid meet">
<metadata>
Created by potrace 1.14, written by Peter Selinger 2001-2017
</metadata>
<g transform="translate(0.000000,77.000000) scale(0.100000,-0.100000)"
fill="#000000" stroke="none">
<path fill="#000000" stroke="none" d="M40 755 c-17 -20 -4 -84 23 -113 19
-20 20 -25 7 -45 -55 -88 -62 -108 -63 -185 0 -113 12 -194 34 -217 14 -15 20
-44 25 -108 l7 -88 33 32 c32 31 33 35 28 84 -5 39 -1 70 16 123 13 42 20 84
17 104 -3 24 3 47 24 85 16 29 29 59 29 68 0 9 -20 59 -45 111 -25 51 -45 104
-45 115 0 41 -64 65 -90 34z"/>
</g>
</svg>
