<?xml version="1.0" standalone="no"?>
<!DOCTYPE svg PUBLIC "-//W3C//DTD SVG 20010904//EN"
 "http://www.w3.org/TR/2001/REC-SVG-20010904/DTD/svg10.dtd">
<svg version="1.0" xmlns="http://www.w3.org/2000/svg"
 width="25.000000pt" height="67.000000pt" viewBox="0 0 25.000000 67.000000"
 preserveAspectRatio="xMidYMid meet">
<metadata>
Created by potrace 1.14, written by Peter Selinger 2001-2017
</metadata>
<g transform="translate(0.000000,67.000000) scale(0.100000,-0.100000)"
fill="#000000" stroke="none">
<path fill="#000000" stroke="none" d="M68 645 c-24 -21 -26 -27 -18 -57 6
-18 10 -34 10 -35 0 -1 -10 -3 -22 -5 -29 -4 -42 -62 -28 -121 6 -23 13 -112
16 -197 6 -186 9 -200 33 -200 10 0 24 -7 31 -15 7 -8 16 -13 20 -10 20 13 49
185 51 304 l3 124 25 -71 c19 -54 30 -72 44 -72 13 0 17 5 13 18 -3 9 -10 46
-17 82 -9 50 -22 77 -53 117 -34 44 -40 59 -37 91 2 31 -2 42 -21 54 -22 15
-26 14 -50 -7z"/>
<path fill="#ffffff" stroke="none" d="M99 513 c0 -10 -4 -27 -9 -38 -7 -16
-9 -13 -9 18 -1 20 4 37 9 37 6 0 10 -8 9 -17z"/>
</g>
</svg>
