<?xml version="1.0" standalone="no"?>
<!DOCTYPE svg PUBLIC "-//W3C//DTD SVG 20010904//EN"
 "http://www.w3.org/TR/2001/REC-SVG-20010904/DTD/svg10.dtd">
<svg version="1.0" xmlns="http://www.w3.org/2000/svg"
 width="34.000000pt" height="59.000000pt" viewBox="0 0 34.000000 59.000000"
 preserveAspectRatio="xMidYMid meet">
<metadata>
Created by potrace 1.14, written by Peter Selinger 2001-2017
</metadata>
<g transform="translate(0.000000,59.000000) scale(0.100000,-0.100000)"
fill="#000000" stroke="none">
<path fill="#000000" stroke="none" d="M70 573 c0 -9 10 -63 22 -121 l22 -104
-25 -47 c-13 -25 -39 -62 -57 -82 l-32 -37 34 -88 33 -89 67 -3 67 -3 25 56
c13 32 39 74 56 96 l31 38 -21 84 -22 84 35 103 c19 57 33 105 32 107 -3 3
-218 23 -249 23 -10 0 -18 -7 -18 -17z"/>
</g>
</svg>
