<?xml version="1.0" standalone="no"?>
<!DOCTYPE svg PUBLIC "-//W3C//DTD SVG 20010904//EN"
 "http://www.w3.org/TR/2001/REC-SVG-20010904/DTD/svg10.dtd">
<svg version="1.0" xmlns="http://www.w3.org/2000/svg"
 width="14.000000pt" height="39.000000pt" viewBox="0 0 14.000000 39.000000"
 preserveAspectRatio="xMidYMid meet">
<metadata>
Created by potrace 1.14, written by Peter Selinger 2001-2017
</metadata>
<g transform="translate(0.000000,39.000000) scale(0.100000,-0.100000)"
fill="#000000" stroke="none">
<path fill="#000000" stroke="none" d="M67 384 c-4 -4 -7 -16 -7 -26 0 -11
-13 -26 -30 -36 -26 -15 -29 -21 -24 -47 4 -16 10 -31 15 -33 5 -2 9 -21 9
-43 0 -34 4 -41 27 -50 36 -13 41 -23 49 -91 5 -44 10 -55 21 -51 12 5 13 17
7 67 -4 33 -7 99 -5 145 1 59 -2 86 -10 92 -7 4 -13 22 -13 41 -1 31 -22 49
-39 32z"/>
</g>
</svg>
