<?xml version="1.0" standalone="no"?>
<!DOCTYPE svg PUBLIC "-//W3C//DTD SVG 20010904//EN"
 "http://www.w3.org/TR/2001/REC-SVG-20010904/DTD/svg10.dtd">
<svg version="1.0" xmlns="http://www.w3.org/2000/svg"
 width="130.000000pt" height="248.000000pt" viewBox="0 0 130.000000 248.000000"
 preserveAspectRatio="xMidYMid meet">
<metadata>
Created by potrace 1.14, written by Peter Selinger 2001-2017
</metadata>
<g transform="translate(0.000000,248.000000) scale(0.100000,-0.100000)"
fill="#000000" stroke="none">
<path fill="#000000" stroke="none" d="M487 2454 c-123 -27 -217 -74 -217
-109 -2 -178 -24 -396 -56 -566 -30 -164 -36 -213 -34 -319 l1 -125 -91 -75
-90 -74 0 -75 0 -76 60 -69 c51 -59 60 -76 61 -110 1 -23 4 -86 8 -141 l7
-100 -48 -83 -48 -84 82 -158 83 -158 102 -65 c114 -74 113 -74 113 27 0 49
15 112 67 282 37 121 87 313 112 427 l46 209 186 97 187 97 129 125 129 125
13 183 12 182 -56 79 c-46 66 -62 81 -93 89 -20 6 -113 29 -207 52 l-170 42
-71 69 -72 70 -12 129 c-7 71 -15 129 -19 128 -3 0 -55 -12 -114 -25z"/>
</g>
</svg>
