<?xml version="1.0" standalone="no"?>
<!DOCTYPE svg PUBLIC "-//W3C//DTD SVG 20010904//EN"
 "http://www.w3.org/TR/2001/REC-SVG-20010904/DTD/svg10.dtd">
<svg version="1.0" xmlns="http://www.w3.org/2000/svg"
 width="80.000000pt" height="173.000000pt" viewBox="0 0 80.000000 173.000000"
 preserveAspectRatio="xMidYMid meet">
<metadata>
Created by potrace 1.14, written by Peter Selinger 2001-2017
</metadata>
<g transform="translate(0.000000,173.000000) scale(0.100000,-0.100000)"
fill="#000000" stroke="none">
<path fill="#000000" stroke="none" d="M471 1704 c-35 -16 -52 -30 -56 -47 -5
-18 -22 -31 -64 -49 -54 -23 -58 -28 -67 -69 -8 -34 -6 -60 7 -111 12 -46 15
-93 12 -155 -3 -69 0 -101 15 -148 12 -36 16 -62 10 -66 -5 -3 -81 -151 -169
-329 -182 -369 -175 -339 -133 -545 27 -132 39 -155 78 -155 12 0 33 -6 48
-14 27 -14 27 -14 43 28 15 39 21 44 66 55 27 7 52 18 56 24 5 7 60 129 123
272 l115 259 61 31 c89 44 134 84 134 118 0 15 -16 53 -35 83 -49 77 -44 159
15 219 28 28 33 42 37 97 3 34 0 111 -6 169 -11 103 -11 107 14 163 14 31 25
61 25 66 0 22 -84 90 -124 101 -93 26 -151 27 -205 3z"/>
</g>
</svg>
