<?xml version="1.0" standalone="no"?>
<!DOCTYPE svg PUBLIC "-//W3C//DTD SVG 20010904//EN"
 "http://www.w3.org/TR/2001/REC-SVG-20010904/DTD/svg10.dtd">
<svg version="1.0" xmlns="http://www.w3.org/2000/svg"
 width="26.000000pt" height="47.000000pt" viewBox="0 0 26.000000 47.000000"
 preserveAspectRatio="xMidYMid meet">
<metadata>
Created by potrace 1.14, written by Peter Selinger 2001-2017
</metadata>
<g transform="translate(0.000000,47.000000) scale(0.100000,-0.100000)"
fill="#000000" stroke="none">
<path fill="#000000" stroke="none" d="M69 443 c-8 -21 -7 -36 3 -58 10 -20
12 -44 7 -75 -4 -25 -8 -79 -8 -120 -1 -96 -11 -152 -25 -147 -6 2 -13 18 -16
35 -3 21 -9 29 -17 24 -10 -6 -9 -17 0 -49 7 -23 15 -45 19 -48 3 -4 43 -3 88
1 81 7 81 7 99 43 10 20 22 68 26 106 19 171 6 242 -47 256 -15 4 -42 19 -61
33 -43 33 -55 33 -68 -1z"/>
</g>
</svg>
