<?xml version="1.0" standalone="no"?>
<!DOCTYPE svg PUBLIC "-//W3C//DTD SVG 20010904//EN"
 "http://www.w3.org/TR/2001/REC-SVG-20010904/DTD/svg10.dtd">
<svg version="1.0" xmlns="http://www.w3.org/2000/svg"
 width="29.000000pt" height="37.000000pt" viewBox="0 0 29.000000 37.000000"
 preserveAspectRatio="xMidYMid meet">
<metadata>
Created by potrace 1.14, written by Peter Selinger 2001-2017
</metadata>
<g transform="translate(0.000000,37.000000) scale(0.100000,-0.100000)"
fill="#000000" stroke="none">
<path fill="#000000" stroke="none" d="M91 361 c-9 -6 -13 -26 -13 -60 2 -45
-1 -51 -19 -51 -31 0 -64 -81 -50 -122 6 -17 11 -50 11 -73 l0 -42 46 -7 c64
-8 164 -8 164 2 -1 4 -7 18 -15 32 -8 14 -14 39 -15 55 0 30 1 30 46 26 l47
-3 -7 42 c-9 58 -11 60 -62 60 -48 0 -52 5 -29 30 19 21 11 70 -17 99 -19 22
-62 27 -87 12z"/>
</g>
</svg>
