<?xml version="1.0" standalone="no"?>
<!DOCTYPE svg PUBLIC "-//W3C//DTD SVG 20010904//EN"
 "http://www.w3.org/TR/2001/REC-SVG-20010904/DTD/svg10.dtd">
<svg version="1.0" xmlns="http://www.w3.org/2000/svg"
 width="14.000000pt" height="54.000000pt" viewBox="0 0 14.000000 54.000000"
 preserveAspectRatio="xMidYMid meet">
<metadata>
Created by potrace 1.14, written by Peter Selinger 2001-2017
</metadata>
<g transform="translate(0.000000,54.000000) scale(0.100000,-0.100000)"
fill="#000000" stroke="none">
<path fill="#000000" stroke="none" d="M68 533 c-11 -3 -18 -14 -18 -27 0 -13
-10 -36 -22 -52 -32 -39 -40 -180 -13 -200 21 -16 37 -102 26 -141 -4 -16 -6
-47 -3 -70 l4 -43 44 0 44 0 2 73 c2 103 -2 155 -18 216 -12 46 -11 58 1 89
11 25 13 53 9 99 -7 65 -10 68 -56 56z"/>
</g>
</svg>
