<?xml version="1.0" standalone="no"?>
<!DOCTYPE svg PUBLIC "-//W3C//DTD SVG 20010904//EN"
 "http://www.w3.org/TR/2001/REC-SVG-20010904/DTD/svg10.dtd">
<svg version="1.0" xmlns="http://www.w3.org/2000/svg"
 width="301.000000pt" height="639.000000pt" viewBox="0 0 301.000000 639.000000"
 preserveAspectRatio="xMidYMid meet">
<metadata>
Created by potrace 1.14, written by Peter Selinger 2001-2017
</metadata>
<g transform="translate(0.000000,639.000000) scale(0.100000,-0.100000)"
fill="#000000" stroke="none">
<path fill="#000000" stroke="none" d="M466 6378 c-3 -7 -10 -76 -16 -152
l-12 -139 -58 -88 -59 -87 -21 -257 -21 -257 33 -52 c125 -197 187 -280 319
-428 l150 -166 134 -48 135 -48 0 -123 0 -123 60 -44 61 -44 69 16 69 15 90
-68 c50 -37 91 -70 91 -74 0 -3 29 -53 65 -110 36 -57 65 -105 65 -107 0 -1
-71 -45 -158 -98 l-157 -94 -120 -194 c-112 -181 -122 -201 -157 -322 -21 -71
-38 -148 -38 -172 0 -23 11 -90 25 -149 l25 -106 -45 -382 c-25 -210 -46 -389
-48 -397 -1 -8 -13 27 -27 78 -37 142 -48 100 -15 -58 15 -72 25 -133 23 -136
-3 -2 -40 121 -82 274 -43 152 -106 350 -141 439 -64 168 -65 169 -201 325
l-33 36 -186 -204 c-133 -146 -201 -230 -237 -290 l-50 -86 57 -136 c187 -445
304 -702 401 -874 102 -182 106 -193 164 -390 32 -112 79 -248 103 -303 33
-76 42 -109 40 -140 -2 -23 6 -75 21 -124 l24 -83 -19 -182 c-10 -99 -19 -189
-19 -198 0 -9 -10 -19 -22 -21 -38 -7 1946 -8 2110 0 l152 6 0 3182 0 3182
-682 6 c-1133 11 -1858 9 -1862 -5z"/>
<path fill="#ffffff" stroke="none" d="M937 1928 c-3 -8 -6 -5 -6 6 -1 11 2
17 5 13 3 -3 4 -12 1 -19z"/>
</g>
</svg>
