<?xml version="1.0" standalone="no"?>
<!DOCTYPE svg PUBLIC "-//W3C//DTD SVG 20010904//EN"
 "http://www.w3.org/TR/2001/REC-SVG-20010904/DTD/svg10.dtd">
<svg version="1.0" xmlns="http://www.w3.org/2000/svg"
 width="53.000000pt" height="81.000000pt" viewBox="0 0 53.000000 81.000000"
 preserveAspectRatio="xMidYMid meet">
<metadata>
Created by potrace 1.14, written by Peter Selinger 2001-2017
</metadata>
<g transform="translate(0.000000,81.000000) scale(0.100000,-0.100000)"
fill="#000000" stroke="none">
<path fill="#000000" stroke="none" d="M178 804 c-25 -8 -30 -30 -34 -157 l-3
-119 -61 -88 -60 -88 0 -154 c0 -105 -4 -158 -12 -166 -6 -6 -8 -15 -4 -19 4
-5 112 -9 239 -11 l232 -3 29 106 c25 92 27 116 21 183 -7 76 -30 137 -65 177
-10 11 -32 72 -48 135 -50 192 -58 203 -155 206 -34 2 -69 0 -79 -2z"/>
</g>
</svg>
