<?xml version="1.0" standalone="no"?>
<!DOCTYPE svg PUBLIC "-//W3C//DTD SVG 20010904//EN"
 "http://www.w3.org/TR/2001/REC-SVG-20010904/DTD/svg10.dtd">
<svg version="1.0" xmlns="http://www.w3.org/2000/svg"
 width="56.000000pt" height="202.000000pt" viewBox="0 0 56.000000 202.000000"
 preserveAspectRatio="xMidYMid meet">
<metadata>
Created by potrace 1.14, written by Peter Selinger 2001-2017
</metadata>
<g transform="translate(0.000000,202.000000) scale(0.100000,-0.100000)"
fill="#000000" stroke="none">
<path fill="#000000" stroke="none" d="M404 1804 c-112 -220 -155 -333 -203
-534 -11 -47 -27 -105 -36 -130 -9 -25 -23 -106 -31 -180 -12 -109 -19 -142
-38 -170 -26 -39 -56 -191 -56 -281 0 -30 -9 -106 -20 -169 -12 -68 -20 -161
-20 -228 l0 -112 68 6 c37 3 161 11 275 19 115 7 210 15 213 17 7 7 -26 1899
-34 1942 -7 39 -8 37 -118 -180z"/>
</g>
</svg>
