<?xml version="1.0" standalone="no"?>
<!DOCTYPE svg PUBLIC "-//W3C//DTD SVG 20010904//EN"
 "http://www.w3.org/TR/2001/REC-SVG-20010904/DTD/svg10.dtd">
<svg version="1.0" xmlns="http://www.w3.org/2000/svg"
 width="38.000000pt" height="30.000000pt" viewBox="0 0 38.000000 30.000000"
 preserveAspectRatio="xMidYMid meet">
<metadata>
Created by potrace 1.14, written by Peter Selinger 2001-2017
</metadata>
<g transform="translate(0.000000,30.000000) scale(0.100000,-0.100000)"
fill="#000000" stroke="none">
<path fill="#000000" stroke="none" d="M185 292 c-17 -2 -43 -13 -58 -25 -24
-19 -29 -32 -36 -100 -7 -62 -13 -82 -29 -93 -12 -8 -30 -27 -40 -42 l-20 -27
172 6 c94 4 179 7 189 8 29 2 19 20 -20 39 -21 9 -40 21 -42 25 -2 5 -14 12
-27 17 -23 9 -24 14 -24 92 0 93 -9 106 -65 100z"/>
</g>
</svg>
