<?xml version="1.0" standalone="no"?>
<!DOCTYPE svg PUBLIC "-//W3C//DTD SVG 20010904//EN"
 "http://www.w3.org/TR/2001/REC-SVG-20010904/DTD/svg10.dtd">
<svg version="1.0" xmlns="http://www.w3.org/2000/svg"
 width="52.000000pt" height="206.000000pt" viewBox="0 0 52.000000 206.000000"
 preserveAspectRatio="xMidYMid meet">
<metadata>
Created by potrace 1.14, written by Peter Selinger 2001-2017
</metadata>
<g transform="translate(0.000000,206.000000) scale(0.100000,-0.100000)"
fill="#000000" stroke="none">
<path fill="#000000" stroke="none" d="M0 1655 l0 -405 31 -113 c23 -85 53
-157 124 -297 87 -172 96 -195 124 -325 17 -77 31 -146 31 -153 0 -7 -58 -85
-130 -173 -71 -88 -130 -165 -130 -170 0 -18 48 -20 92 -2 38 15 75 50 211
200 114 125 164 187 161 200 -2 10 -48 248 -103 528 l-99 510 -85 225 c-46
124 -99 260 -116 303 l-33 77 -39 0 -39 0 0 -405z"/>
</g>
</svg>
