<?xml version="1.0" standalone="no"?>
<!DOCTYPE svg PUBLIC "-//W3C//DTD SVG 20010904//EN"
 "http://www.w3.org/TR/2001/REC-SVG-20010904/DTD/svg10.dtd">
<svg version="1.0" xmlns="http://www.w3.org/2000/svg"
 width="21.000000pt" height="97.000000pt" viewBox="0 0 21.000000 97.000000"
 preserveAspectRatio="xMidYMid meet">
<metadata>
Created by potrace 1.14, written by Peter Selinger 2001-2017
</metadata>
<g transform="translate(0.000000,97.000000) scale(0.100000,-0.100000)"
fill="#000000" stroke="none">
<path fill="#000000" stroke="none" d="M94 943 c-22 -24 -25 -34 -19 -69 5
-38 3 -43 -29 -67 -42 -33 -52 -70 -31 -120 9 -21 29 -110 46 -198 28 -149 29
-163 14 -185 -8 -13 -20 -24 -25 -24 -15 0 -12 -84 4 -105 12 -17 12 -24 -1
-49 -12 -23 -13 -34 -4 -48 6 -10 11 -23 11 -29 0 -18 43 -48 70 -49 l26 0 -3
117 c-2 82 -9 141 -23 193 -24 86 -36 147 -49 240 -7 55 -5 73 12 118 17 45
28 58 68 81 48 27 48 28 32 51 -11 16 -16 41 -14 79 2 62 -4 75 -36 85 -17 6
-29 1 -49 -21z"/>
</g>
</svg>
