<?xml version="1.0" standalone="no"?>
<!DOCTYPE svg PUBLIC "-//W3C//DTD SVG 20010904//EN"
 "http://www.w3.org/TR/2001/REC-SVG-20010904/DTD/svg10.dtd">
<svg version="1.0" xmlns="http://www.w3.org/2000/svg"
 width="136.000000pt" height="150.000000pt" viewBox="0 0 136.000000 150.000000"
 preserveAspectRatio="xMidYMid meet">
<metadata>
Created by potrace 1.14, written by Peter Selinger 2001-2017
</metadata>
<g transform="translate(0.000000,150.000000) scale(0.100000,-0.100000)"
fill="#000000" stroke="none">
<path fill="#000000" stroke="none" d="M978 1465 c-27 -25 -47 -35 -71 -35
-24 0 -41 -8 -61 -29 -26 -27 -29 -37 -31 -118 -3 -109 -1 -100 -27 -107 -13
-3 -44 -25 -70 -49 -52 -47 -62 -85 -32 -118 13 -14 13 -20 2 -38 -7 -12 -19
-21 -26 -21 -10 0 -11 -6 -5 -22 13 -37 5 -122 -17 -179 -11 -30 -20 -54 -20
-55 0 0 27 -13 59 -29 59 -28 59 -28 90 -109 29 -75 31 -85 21 -135 -5 -29
-10 -55 -10 -56 0 -4 -163 59 -178 68 -8 6 -10 20 -6 42 7 37 -18 119 -45 146
-27 28 -90 31 -140 6 -38 -19 -47 -29 -58 -67 -15 -54 -17 -106 -3 -115 5 -3
14 -15 20 -25 9 -16 3 -21 -50 -42 -50 -19 -67 -32 -98 -75 -20 -29 -40 -53
-43 -53 -3 0 -10 19 -15 43 -7 31 -5 63 8 122 9 44 22 106 28 137 18 92 49
115 217 158 41 10 41 11 32 43 -14 48 -11 183 5 221 10 23 11 38 3 52 -17 32
-50 64 -66 64 -9 0 -23 15 -31 33 -13 27 -21 33 -54 35 -27 2 -44 -2 -60 -16
-11 -11 -37 -22 -57 -26 -63 -11 -73 -32 -65 -138 4 -51 12 -98 18 -105 8 -10
6 -13 -6 -13 -9 0 -42 -25 -74 -55 l-57 -56 -1 -202 c-1 -137 3 -204 10 -209
8 -6 8 -8 0 -8 -7 0 -10 -18 -7 -53 2 -28 4 -62 4 -75 -1 -12 5 -22 12 -22 7
-1 6 -5 -5 -13 -24 -19 -19 -81 7 -85 11 -2 34 -10 52 -18 17 -8 39 -14 48
-14 9 0 26 -12 38 -26 19 -24 24 -26 66 -18 25 4 103 7 172 5 104 -2 128 0
138 13 17 20 35 20 51 1 17 -21 83 -19 102 3 8 9 27 43 41 75 25 55 39 68 52
47 10 -16 68 -11 94 9 13 10 31 34 40 52 10 21 26 35 44 40 24 6 27 5 27 -17
0 -19 -5 -24 -23 -24 -27 0 -57 -28 -57 -53 0 -9 -5 -19 -10 -22 -6 -3 -10
-21 -10 -39 0 -43 28 -69 72 -65 18 2 38 0 45 -4 6 -4 80 -2 165 4 134 9 155
13 171 31 34 40 10 91 -47 102 -38 7 -93 66 -62 66 8 0 17 3 20 8 5 8 -8 134
-19 174 -7 26 -5 28 35 34 56 9 71 35 77 133 4 61 2 84 -10 101 -13 18 -13 28
-2 71 9 32 10 61 5 82 -5 17 -11 57 -15 87 -4 30 -13 77 -21 104 -17 60 -18
100 -2 125 9 15 8 24 -5 45 -23 34 -69 35 -118 0 -54 -37 -79 -27 -72 29 3 23
12 61 20 85 13 34 14 48 4 68 -6 14 -11 35 -11 48 0 13 -9 35 -21 50 -30 38
-74 35 -121 -9z"/>
</g>
</svg>
