<?xml version="1.0" standalone="no"?>
<!DOCTYPE svg PUBLIC "-//W3C//DTD SVG 20010904//EN"
 "http://www.w3.org/TR/2001/REC-SVG-20010904/DTD/svg10.dtd">
<svg version="1.0" xmlns="http://www.w3.org/2000/svg"
 width="30.000000pt" height="41.000000pt" viewBox="0 0 30.000000 41.000000"
 preserveAspectRatio="xMidYMid meet">
<metadata>
Created by potrace 1.14, written by Peter Selinger 2001-2017
</metadata>
<g transform="translate(0.000000,41.000000) scale(0.100000,-0.100000)"
fill="#000000" stroke="none">
<path fill="#000000" stroke="none" d="M47 362 l-47 -48 23 -154 23 -155 33
-3 c56 -6 59 3 45 130 -19 164 -18 200 3 196 13 -2 23 -33 45 -140 27 -138 40
-178 58 -178 5 0 24 13 42 29 l32 29 -18 57 c-12 40 -44 93 -103 172 -47 62
-86 113 -87 113 -1 0 -23 -22 -49 -48z"/>
</g>
</svg>
