<?xml version="1.0" standalone="no"?>
<!DOCTYPE svg PUBLIC "-//W3C//DTD SVG 20010904//EN"
 "http://www.w3.org/TR/2001/REC-SVG-20010904/DTD/svg10.dtd">
<svg version="1.0" xmlns="http://www.w3.org/2000/svg"
 width="189.000000pt" height="296.000000pt" viewBox="0 0 189.000000 296.000000"
 preserveAspectRatio="xMidYMid meet">
<metadata>
Created by potrace 1.14, written by Peter Selinger 2001-2017
</metadata>
<g transform="translate(0.000000,296.000000) scale(0.100000,-0.100000)"
fill="#000000" stroke="none">
<path fill="#000000" stroke="none" d="M623 2923 c-57 -25 -83 -43 -87 -57 -3
-12 -6 -64 -7 -116 -3 -104 11 -154 115 -435 l44 -119 -71 -46 -72 -46 -27
-135 c-25 -130 -25 -137 -11 -202 8 -38 13 -70 11 -73 -3 -2 -67 28 -142 68
l-138 73 43 36 c32 27 40 39 33 51 -8 14 -27 11 -156 -26 -80 -22 -149 -44
-153 -47 -3 -4 8 -43 25 -86 l30 -80 73 -13 c39 -7 163 -43 273 -81 143 -49
216 -69 251 -69 l50 0 6 -132 6 -131 -236 -295 c-129 -162 -238 -303 -240
-312 -4 -15 24 -146 58 -272 l10 -38 84 0 85 0 103 -158 104 -158 54 6 54 5
21 113 22 113 -49 114 -50 115 7 92 c7 87 10 96 62 190 31 54 57 96 59 95 1
-2 -15 -63 -35 -137 l-38 -133 59 -196 c32 -108 60 -198 62 -200 2 -2 59 13
125 34 67 20 123 35 125 33 2 -2 21 -25 43 -53 l39 -49 -28 -83 -28 -83 99 0
99 0 43 130 42 130 -60 62 c-34 35 -89 110 -124 168 l-62 105 87 174 c49 98
110 241 139 326 l52 150 -17 175 c-9 96 -22 208 -28 249 -6 40 -10 75 -8 77 2
2 31 -89 66 -201 59 -192 64 -213 74 -354 l10 -150 -26 -33 c-14 -18 -37 -47
-52 -65 l-25 -32 88 30 89 30 63 -63 62 -63 -28 48 c-32 58 -29 62 57 71 33 4
59 9 59 12 0 3 -40 58 -88 122 -49 64 -91 122 -95 128 -3 6 -11 65 -17 130
-12 129 -25 176 -142 504 l-69 195 -86 83 c-72 68 -92 82 -119 82 -24 0 -66
22 -156 81 -67 45 -124 83 -126 84 -2 1 36 62 83 135 101 154 100 153 110 247
l7 72 -110 55 -109 55 -134 5 -134 6 -82 -37z"/>
</g>
</svg>
