<?xml version="1.0" standalone="no"?>
<!DOCTYPE svg PUBLIC "-//W3C//DTD SVG 20010904//EN"
 "http://www.w3.org/TR/2001/REC-SVG-20010904/DTD/svg10.dtd">
<svg version="1.0" xmlns="http://www.w3.org/2000/svg"
 width="49.000000pt" height="110.000000pt" viewBox="0 0 49.000000 110.000000"
 preserveAspectRatio="xMidYMid meet">
<metadata>
Created by potrace 1.14, written by Peter Selinger 2001-2017
</metadata>
<g transform="translate(0.000000,110.000000) scale(0.100000,-0.100000)"
fill="#000000" stroke="none">
<path fill="#000000" stroke="none" d="M207 1093 c-44 -4 -49 -7 -68 -45 -19
-36 -20 -45 -9 -84 7 -24 17 -44 21 -44 5 0 9 -9 9 -20 0 -14 -17 -28 -59 -49
-32 -17 -67 -42 -78 -57 -18 -25 -19 -32 -6 -133 7 -58 13 -194 13 -301 -1
-220 2 -280 12 -274 4 3 6 -15 5 -38 l-2 -43 46 -3 46 -3 7 78 c8 97 35 320
42 352 5 23 9 19 45 -35 36 -55 42 -60 69 -56 26 4 31 9 37 45 l6 40 30 -59
30 -59 12 35 c7 19 15 61 19 93 4 32 18 90 32 129 13 39 24 75 24 79 0 4 -24
11 -54 14 -52 7 -54 8 -60 44 -11 66 -6 177 10 231 16 53 16 54 -12 112 l-28
58 -45 -2 c-25 -1 -67 -3 -94 -5z"/>
</g>
</svg>
