<?xml version="1.0" standalone="no"?>
<!DOCTYPE svg PUBLIC "-//W3C//DTD SVG 20010904//EN"
 "http://www.w3.org/TR/2001/REC-SVG-20010904/DTD/svg10.dtd">
<svg version="1.0" xmlns="http://www.w3.org/2000/svg"
 width="12.000000pt" height="35.000000pt" viewBox="0 0 12.000000 35.000000"
 preserveAspectRatio="xMidYMid meet">
<metadata>
Created by potrace 1.14, written by Peter Selinger 2001-2017
</metadata>
<g transform="translate(0.000000,35.000000) scale(0.100000,-0.100000)"
fill="#000000" stroke="none">
<path fill="#000000" stroke="none" d="M83 331 c-6 -10 -14 -39 -18 -65 -8
-48 -18 -56 -45 -31 -15 13 -16 9 -12 -53 3 -37 8 -68 13 -70 5 -2 9 -19 9
-38 0 -38 15 -74 30 -74 6 0 10 11 10 23 0 13 7 38 16 55 8 18 13 36 10 41 -3
5 1 28 10 52 11 32 14 61 9 106 -7 68 -15 81 -32 54z"/>
</g>
</svg>
