<?xml version="1.0" standalone="no"?>
<!DOCTYPE svg PUBLIC "-//W3C//DTD SVG 20010904//EN"
 "http://www.w3.org/TR/2001/REC-SVG-20010904/DTD/svg10.dtd">
<svg version="1.0" xmlns="http://www.w3.org/2000/svg"
 width="244.000000pt" height="145.000000pt" viewBox="0 0 244.000000 145.000000"
 preserveAspectRatio="xMidYMid meet">
<metadata>
Created by potrace 1.14, written by Peter Selinger 2001-2017
</metadata>
<g transform="translate(0.000000,145.000000) scale(0.100000,-0.100000)"
fill="#000000" stroke="none">
<path fill="#000000" stroke="none" d="M125 1348 c3 -57 7 -250 9 -430 l5
-326 -69 -171 -68 -171 43 0 43 0 32 80 c18 44 36 80 40 80 9 0 113 -22 118
-25 1 -1 -7 -27 -17 -58 l-20 -57 24 0 c25 0 23 6 55 -152 9 -47 18 -63 47
-87 l36 -30 51 33 c29 18 69 44 90 57 l37 24 -6 203 c-4 111 -4 304 0 427 l7
225 114 0 114 0 275 95 276 95 539 6 540 7 0 127 0 128 -677 6 c-373 3 -895 8
-1160 11 l-482 6 4 -103z"/>
</g>
</svg>
