<?xml version="1.0" standalone="no"?>
<!DOCTYPE svg PUBLIC "-//W3C//DTD SVG 20010904//EN"
 "http://www.w3.org/TR/2001/REC-SVG-20010904/DTD/svg10.dtd">
<svg version="1.0" xmlns="http://www.w3.org/2000/svg"
 width="18.000000pt" height="18.000000pt" viewBox="0 0 18.000000 18.000000"
 preserveAspectRatio="xMidYMid meet">
<metadata>
Created by potrace 1.14, written by Peter Selinger 2001-2017
</metadata>
<g transform="translate(0.000000,18.000000) scale(0.100000,-0.100000)"
fill="#000000" stroke="none">
<path fill="#000000" stroke="none" d="M9 164 c-10 -13 -10 -24 0 -62 20 -76
31 -74 31 6 0 73 -7 85 -31 56z"/>
<path fill="#000000" stroke="none" d="M60 106 c0 -63 1 -66 28 -72 15 -4 35
-13 44 -21 22 -19 35 -11 40 26 4 26 1 31 -23 36 -34 8 -46 22 -51 60 -2 19
-9 31 -20 33 -16 3 -18 -5 -18 -62z"/>
</g>
</svg>
