<?xml version="1.0" standalone="no"?>
<!DOCTYPE svg PUBLIC "-//W3C//DTD SVG 20010904//EN"
 "http://www.w3.org/TR/2001/REC-SVG-20010904/DTD/svg10.dtd">
<svg version="1.0" xmlns="http://www.w3.org/2000/svg"
 width="267.000000pt" height="363.000000pt" viewBox="0 0 267.000000 363.000000"
 preserveAspectRatio="xMidYMid meet">
<metadata>
Created by potrace 1.14, written by Peter Selinger 2001-2017
</metadata>
<g transform="translate(0.000000,363.000000) scale(0.100000,-0.100000)"
fill="#000000" stroke="none">
<path fill="#000000" stroke="none" d="M1181 3606 l-84 -22 -33 -77 -33 -78
46 -105 c25 -58 43 -107 40 -110 -3 -3 -60 -14 -128 -25 -68 -11 -124 -21
-125 -22 -1 -1 -94 -131 -208 -288 l-206 -287 0 -266 0 -266 -129 -697 c-139
-751 -143 -766 -275 -1107 -26 -66 -45 -125 -42 -131 4 -10 207 -105 225 -105
4 0 20 44 35 97 43 154 168 414 286 598 l103 160 98 285 97 285 101 -202 101
-202 2 -438 c2 -241 -1 -474 -5 -518 l-8 -80 98 3 c54 2 100 6 102 7 2 2 20
86 41 187 20 101 47 215 59 253 14 45 29 139 41 265 10 107 26 267 36 355 l17
160 -91 423 -91 423 27 74 c24 67 40 89 157 218 l130 144 273 8 c150 4 295 10
322 14 47 6 58 14 269 207 l219 202 -46 13 c-26 6 -49 13 -50 15 -2 1 4 16 14
33 15 26 25 31 55 31 l37 0 7 71 c4 38 4 73 1 76 -3 4 -38 17 -76 29 l-71 22
-58 -116 -59 -117 -94 -50 c-138 -74 -144 -75 -273 -48 -60 13 -191 43 -290
68 -99 24 -197 47 -217 51 -44 7 -47 18 -17 77 12 23 34 79 49 123 l28 82 -19
81 c-16 70 -26 91 -70 144 -78 95 -81 97 -163 96 -39 0 -109 -11 -155 -23z"/>
</g>
</svg>
