<?xml version="1.0" standalone="no"?>
<!DOCTYPE svg PUBLIC "-//W3C//DTD SVG 20010904//EN"
 "http://www.w3.org/TR/2001/REC-SVG-20010904/DTD/svg10.dtd">
<svg version="1.0" xmlns="http://www.w3.org/2000/svg"
 width="58.000000pt" height="58.000000pt" viewBox="0 0 58.000000 58.000000"
 preserveAspectRatio="xMidYMid meet">
<metadata>
Created by potrace 1.14, written by Peter Selinger 2001-2017
</metadata>
<g transform="translate(0.000000,58.000000) scale(0.100000,-0.100000)"
fill="#000000" stroke="none">
<path fill="#000000" stroke="none" d="M293 565 c-13 -9 -23 -30 -27 -60 -11
-68 -43 -135 -66 -135 -48 0 -96 -33 -148 -100 -63 -84 -70 -126 -23 -159 16
-12 45 -21 65 -21 30 0 36 -3 37 -22 0 -26 57 146 58 176 1 11 15 31 32 45 28
24 30 28 18 53 -9 22 -9 30 1 43 18 22 22 20 50 -25 29 -48 55 -51 86 -13 18
23 24 25 37 15 22 -18 30 10 10 38 -12 17 -13 30 -5 60 15 59 5 90 -34 106
-43 18 -64 18 -91 -1z"/>
<path fill="#000000" stroke="none" d="M414 305 c-15 -23 -15 -28 0 -65 10
-26 16 -73 17 -133 0 -50 3 -86 6 -79 3 8 10 6 22 -9 21 -26 68 -20 99 14 18
20 19 28 10 87 -11 74 -34 123 -79 175 -37 41 -53 44 -75 10z"/>
</g>
</svg>
