<?xml version="1.0" standalone="no"?>
<!DOCTYPE svg PUBLIC "-//W3C//DTD SVG 20010904//EN"
 "http://www.w3.org/TR/2001/REC-SVG-20010904/DTD/svg10.dtd">
<svg version="1.0" xmlns="http://www.w3.org/2000/svg"
 width="27.000000pt" height="82.000000pt" viewBox="0 0 27.000000 82.000000"
 preserveAspectRatio="xMidYMid meet">
<metadata>
Created by potrace 1.14, written by Peter Selinger 2001-2017
</metadata>
<g transform="translate(0.000000,82.000000) scale(0.100000,-0.100000)"
fill="#000000" stroke="none">
<path fill="#000000" stroke="none" d="M155 779 c7 -40 6 -43 -36 -79 l-44
-38 0 -163 c0 -142 -3 -173 -23 -233 -12 -37 -22 -87 -22 -110 -1 -22 -7 -57
-14 -77 -12 -35 -12 -36 25 -57 21 -12 50 -22 64 -22 25 0 25 1 10 30 -8 16
-15 31 -15 35 0 11 23 4 47 -15 27 -21 73 -27 73 -10 0 6 -9 18 -20 27 -24 21
-27 100 -6 159 7 22 17 64 21 94 3 30 11 73 17 95 6 22 16 79 23 127 11 73 11
94 -1 134 -12 40 -12 49 1 67 8 12 15 29 15 39 0 18 -8 21 -83 33 l-39 6 7
-42z"/>
</g>
</svg>
