<?xml version="1.0" standalone="no"?>
<!DOCTYPE svg PUBLIC "-//W3C//DTD SVG 20010904//EN"
 "http://www.w3.org/TR/2001/REC-SVG-20010904/DTD/svg10.dtd">
<svg version="1.0" xmlns="http://www.w3.org/2000/svg"
 width="18.000000pt" height="56.000000pt" viewBox="0 0 18.000000 56.000000"
 preserveAspectRatio="xMidYMid meet">
<metadata>
Created by potrace 1.14, written by Peter Selinger 2001-2017
</metadata>
<g transform="translate(0.000000,56.000000) scale(0.100000,-0.100000)"
fill="#000000" stroke="none">
<path fill="#000000" stroke="none" d="M45 545 c-40 -17 -51 -71 -24 -115 11
-17 18 -40 17 -53 0 -12 5 -42 12 -67 9 -30 12 -91 11 -177 -3 -149 -5 -146
69 -110 l45 22 -3 170 c-3 137 -6 173 -19 187 -11 12 -14 27 -9 49 4 23 0 39
-15 60 -29 41 -48 49 -84 34z"/>
</g>
</svg>
