<?xml version="1.0" standalone="no"?>
<!DOCTYPE svg PUBLIC "-//W3C//DTD SVG 20010904//EN"
 "http://www.w3.org/TR/2001/REC-SVG-20010904/DTD/svg10.dtd">
<svg version="1.0" xmlns="http://www.w3.org/2000/svg"
 width="14.000000pt" height="23.000000pt" viewBox="0 0 14.000000 23.000000"
 preserveAspectRatio="xMidYMid meet">
<metadata>
Created by potrace 1.14, written by Peter Selinger 2001-2017
</metadata>
<g transform="translate(0.000000,23.000000) scale(0.100000,-0.100000)"
fill="#000000" stroke="none">
<path fill="#000000" stroke="none" d="M18 214 c-14 -15 -15 -21 -2 -57 17
-48 18 -89 2 -105 -19 -19 18 -52 58 -52 39 0 64 30 63 75 0 28 -1 28 -9 8
-14 -34 -30 -28 -30 11 0 19 -4 38 -10 41 -15 9 -12 36 6 56 9 10 13 23 9 28
-10 17 -69 13 -87 -5z"/>
</g>
</svg>
