<?xml version="1.0" standalone="no"?>
<!DOCTYPE svg PUBLIC "-//W3C//DTD SVG 20010904//EN"
 "http://www.w3.org/TR/2001/REC-SVG-20010904/DTD/svg10.dtd">
<svg version="1.0" xmlns="http://www.w3.org/2000/svg"
 width="119.000000pt" height="301.000000pt" viewBox="0 0 119.000000 301.000000"
 preserveAspectRatio="xMidYMid meet">
<metadata>
Created by potrace 1.14, written by Peter Selinger 2001-2017
</metadata>
<g transform="translate(0.000000,301.000000) scale(0.100000,-0.100000)"
fill="#000000" stroke="none">
<path fill="#000000" stroke="none" d="M600 2982 l-84 -27 -38 -65 c-36 -63
-38 -68 -38 -162 l0 -97 -37 -10 c-21 -5 -49 -12 -63 -15 -15 -3 -44 -29 -73
-67 l-47 -62 0 -85 c0 -47 2 -83 5 -80 3 3 24 30 46 59 34 45 40 60 36 90 -6
48 9 65 70 73 l53 7 11 -45 c9 -37 15 -45 41 -50 58 -12 106 -6 163 20 45 19
67 24 97 19 45 -8 43 -15 -25 -91 l-44 -49 22 -100 c12 -55 26 -154 30 -220 4
-72 17 -161 32 -224 l26 -103 -26 -53 c-28 -58 -96 -120 -149 -136 -18 -6 -81
-10 -140 -10 -107 0 -108 1 -195 45 -101 51 -124 76 -148 167 -22 79 -31 90
-40 50 -5 -26 6 -61 61 -189 71 -167 70 -161 66 -347 -2 -75 -5 -105 -12 -95
-6 10 -8 -1 -5 -35 26 -256 27 -227 -19 -483 -43 -234 -44 -239 -110 -381 -36
-80 -66 -150 -66 -155 0 -6 8 -16 18 -22 15 -10 41 1 156 63 75 42 139 73 142
71 2 -3 13 -44 23 -92 11 -48 21 -89 23 -91 2 -2 88 15 191 38 l187 41 0 49 0
50 -32 -7 c-18 -4 -50 -9 -71 -13 l-39 -6 7 69 c12 114 61 332 140 615 126
454 125 446 125 708 0 213 2 232 25 312 14 46 32 142 40 213 9 71 21 137 28
145 6 9 52 61 101 116 50 55 98 109 108 121 17 19 17 25 3 103 -24 123 -49
178 -110 241 -29 30 -67 77 -84 105 l-32 50 -122 27 c-67 15 -126 27 -132 27
-5 0 -48 -13 -95 -27z"/>
</g>
</svg>
