<?xml version="1.0" standalone="no"?>
<!DOCTYPE svg PUBLIC "-//W3C//DTD SVG 20010904//EN"
 "http://www.w3.org/TR/2001/REC-SVG-20010904/DTD/svg10.dtd">
<svg version="1.0" xmlns="http://www.w3.org/2000/svg"
 width="234.000000pt" height="390.000000pt" viewBox="0 0 234.000000 390.000000"
 preserveAspectRatio="xMidYMid meet">
<metadata>
Created by potrace 1.14, written by Peter Selinger 2001-2017
</metadata>
<g transform="translate(0.000000,390.000000) scale(0.100000,-0.100000)"
fill="#000000" stroke="none">
<path fill="#000000" stroke="none" d="M980 3890 c-117 -5 -132 -8 -244 -50
l-119 -45 -141 -130 c-118 -108 -140 -133 -138 -155 2 -14 14 -101 27 -195 23
-165 23 -179 13 -480 -11 -309 -11 -310 -39 -366 l-28 -56 -150 -10 c-83 -5
-154 -13 -157 -16 -4 -3 -3 -530 1 -1171 l7 -1165 42 -5 c22 -3 383 -12 801
-21 418 -8 786 -17 817 -20 l58 -5 39 78 39 77 -106 125 c-58 69 -138 161
-179 205 l-73 80 5 75 c2 41 9 91 14 109 8 26 8 37 -2 43 -6 5 -68 43 -136 85
-82 51 -119 78 -110 83 8 4 65 11 128 14 148 9 206 33 491 198 429 248 501
292 497 308 -1 8 -13 15 -26 14 -19 -1 -22 3 -18 25 6 30 -32 105 -98 191 -81
107 -78 97 -50 181 14 41 48 111 76 157 28 46 53 98 56 116 6 38 17 35 -162
57 -49 6 -124 24 -166 38 -75 27 -79 27 -183 16 l-106 -11 0 23 c0 13 24 62
54 110 38 61 69 131 101 225 l47 137 -26 78 c-22 64 -29 108 -37 253 -10 174
-11 176 -61 311 l-50 136 -86 66 c-48 37 -139 118 -202 182 l-115 115 -90 -2
c-49 -1 -146 -5 -215 -8z"/>
</g>
</svg>
