<?xml version="1.0" standalone="no"?>
<!DOCTYPE svg PUBLIC "-//W3C//DTD SVG 20010904//EN"
 "http://www.w3.org/TR/2001/REC-SVG-20010904/DTD/svg10.dtd">
<svg version="1.0" xmlns="http://www.w3.org/2000/svg"
 width="37.000000pt" height="73.000000pt" viewBox="0 0 37.000000 73.000000"
 preserveAspectRatio="xMidYMid meet">
<metadata>
Created by potrace 1.14, written by Peter Selinger 2001-2017
</metadata>
<g transform="translate(0.000000,73.000000) scale(0.100000,-0.100000)"
fill="#000000" stroke="none">
<path fill="#000000" stroke="none" d="M58 705 c-6 -14 -15 -25 -19 -25 -35 0
-52 -156 -25 -222 22 -52 38 -62 96 -54 l50 7 0 -46 0 -45 57 0 57 0 -34 -35
c-18 -19 -35 -47 -36 -63 -2 -16 -10 -42 -19 -58 -8 -16 -15 -52 -15 -80 0
-60 20 -84 68 -84 37 0 62 30 62 77 0 17 9 47 20 66 16 27 18 40 11 61 -7 16
-8 88 -4 188 5 133 9 164 23 178 16 16 16 21 3 51 -11 25 -12 39 -4 51 17 28
14 30 -39 27 -35 -2 -55 2 -68 14 -14 13 -37 17 -96 17 -72 0 -77 -1 -88 -25z"/>
</g>
</svg>
