<?xml version="1.0" standalone="no"?>
<!DOCTYPE svg PUBLIC "-//W3C//DTD SVG 20010904//EN"
 "http://www.w3.org/TR/2001/REC-SVG-20010904/DTD/svg10.dtd">
<svg version="1.0" xmlns="http://www.w3.org/2000/svg"
 width="24.000000pt" height="136.000000pt" viewBox="0 0 24.000000 136.000000"
 preserveAspectRatio="xMidYMid meet">
<metadata>
Created by potrace 1.14, written by Peter Selinger 2001-2017
</metadata>
<g transform="translate(0.000000,136.000000) scale(0.100000,-0.100000)"
fill="#000000" stroke="none">
<path fill="#000000" stroke="none" d="M147 1350 c-3 -8 -13 -46 -22 -85 -9
-38 -41 -118 -72 -177 l-55 -106 30 -39 c30 -36 31 -40 20 -82 -8 -33 -8 -66
0 -130 7 -47 16 -149 22 -226 5 -77 13 -169 16 -205 4 -36 6 -116 4 -177 -2
-132 5 -141 75 -104 l42 22 6 204 c7 192 6 206 -13 237 -12 21 -16 36 -10 43
17 20 34 304 22 359 -9 43 -8 55 9 88 26 51 27 202 2 238 -10 13 -30 54 -45
90 -15 38 -28 59 -31 50z"/>
<path fill="#ffffff" stroke="none" d="M103 1065 c17 5 15 2 -8 -14 -16 -11
-30 -19 -31 -18 -1 1 1 16 4 32 4 20 7 24 10 12 3 -13 9 -16 25 -12z"/>
</g>
</svg>
