<?xml version="1.0" standalone="no"?>
<!DOCTYPE svg PUBLIC "-//W3C//DTD SVG 20010904//EN"
 "http://www.w3.org/TR/2001/REC-SVG-20010904/DTD/svg10.dtd">
<svg version="1.0" xmlns="http://www.w3.org/2000/svg"
 width="33.000000pt" height="49.000000pt" viewBox="0 0 33.000000 49.000000"
 preserveAspectRatio="xMidYMid meet">
<metadata>
Created by potrace 1.14, written by Peter Selinger 2001-2017
</metadata>
<g transform="translate(0.000000,49.000000) scale(0.100000,-0.100000)"
fill="#000000" stroke="none">
<path fill="#000000" stroke="none" d="M183 468 c-12 -13 -29 -58 -39 -102
-15 -65 -25 -85 -51 -109 -59 -54 -93 -118 -93 -175 0 -29 3 -52 8 -52 4 0 77
-7 162 -15 85 -7 156 -12 158 -10 2 1 -2 22 -8 45 -8 28 -9 96 -4 210 l7 169
-33 31 c-39 36 -78 39 -107 8z"/>
</g>
</svg>
