<?xml version="1.0" standalone="no"?>
<!DOCTYPE svg PUBLIC "-//W3C//DTD SVG 20010904//EN"
 "http://www.w3.org/TR/2001/REC-SVG-20010904/DTD/svg10.dtd">
<svg version="1.0" xmlns="http://www.w3.org/2000/svg"
 width="14.000000pt" height="59.000000pt" viewBox="0 0 14.000000 59.000000"
 preserveAspectRatio="xMidYMid meet">
<metadata>
Created by potrace 1.14, written by Peter Selinger 2001-2017
</metadata>
<g transform="translate(0.000000,59.000000) scale(0.100000,-0.100000)"
fill="#000000" stroke="none">
<path fill="#000000" stroke="none" d="M24 569 c-25 -27 -35 -186 -13 -200 29
-18 50 -7 89 44 40 53 40 54 30 106 -5 29 -12 57 -15 62 -11 17 -71 10 -91
-12z"/>
<path fill="#000000" stroke="none" d="M98 314 c-21 -11 -28 -23 -33 -61 -3
-27 -8 -57 -10 -68 -5 -22 45 -185 56 -185 11 0 21 134 17 237 l-3 91 -27 -14z"/>
</g>
</svg>
