<?xml version="1.0" standalone="no"?>
<!DOCTYPE svg PUBLIC "-//W3C//DTD SVG 20010904//EN"
 "http://www.w3.org/TR/2001/REC-SVG-20010904/DTD/svg10.dtd">
<svg version="1.0" xmlns="http://www.w3.org/2000/svg"
 width="29.000000pt" height="60.000000pt" viewBox="0 0 29.000000 60.000000"
 preserveAspectRatio="xMidYMid meet">
<metadata>
Created by potrace 1.14, written by Peter Selinger 2001-2017
</metadata>
<g transform="translate(0.000000,60.000000) scale(0.100000,-0.100000)"
fill="#000000" stroke="none">
<path fill="#000000" stroke="none" d="M120 575 c-6 -14 -10 -32 -10 -39 0 -6
-21 -32 -46 -56 -65 -64 -70 -81 -37 -137 26 -45 27 -49 24 -194 -2 -125 0
-149 12 -149 26 0 38 27 47 112 5 45 13 96 18 112 7 26 10 19 20 -50 7 -43 9
-100 6 -127 -6 -38 -4 -47 8 -47 30 0 38 28 44 158 4 72 11 129 15 127 4 -3
22 20 39 50 36 63 38 57 -38 137 -34 36 -44 52 -40 71 4 19 -2 28 -24 41 -28
17 -28 17 -38 -9z"/>
</g>
</svg>
