<?xml version="1.0" standalone="no"?>
<!DOCTYPE svg PUBLIC "-//W3C//DTD SVG 20010904//EN"
 "http://www.w3.org/TR/2001/REC-SVG-20010904/DTD/svg10.dtd">
<svg version="1.0" xmlns="http://www.w3.org/2000/svg"
 width="102.000000pt" height="229.000000pt" viewBox="0 0 102.000000 229.000000"
 preserveAspectRatio="xMidYMid meet">
<metadata>
Created by potrace 1.14, written by Peter Selinger 2001-2017
</metadata>
<g transform="translate(0.000000,229.000000) scale(0.100000,-0.100000)"
fill="#000000" stroke="none">
<path fill="#000000" stroke="none" d="M776 2146 l-200 -144 -53 -107 -54
-106 -9 -257 c-5 -141 -7 -312 -3 -379 l6 -123 43 0 c38 0 45 -4 59 -30 20
-39 20 -177 0 -204 -11 -14 -15 -47 -15 -113 l0 -93 -40 0 -40 0 0 -95 c0 -52
-2 -95 -5 -95 -2 0 -28 9 -57 21 -29 11 -130 42 -225 68 -205 57 -195 65 -155
-113 l27 -120 175 -127 175 -127 305 32 305 31 2 1085 3 1085 -23 28 -22 27
-199 -144z"/>
</g>
</svg>
