<?xml version="1.0" standalone="no"?>
<!DOCTYPE svg PUBLIC "-//W3C//DTD SVG 20010904//EN"
 "http://www.w3.org/TR/2001/REC-SVG-20010904/DTD/svg10.dtd">
<svg version="1.0" xmlns="http://www.w3.org/2000/svg"
 width="25.000000pt" height="16.000000pt" viewBox="0 0 25.000000 16.000000"
 preserveAspectRatio="xMidYMid meet">
<metadata>
Created by potrace 1.14, written by Peter Selinger 2001-2017
</metadata>
<g transform="translate(0.000000,16.000000) scale(0.100000,-0.100000)"
fill="#000000" stroke="none">
<path fill="#000000" stroke="none" d="M100 136 c-4 -12 -6 -24 -4 -27 2 -3
-12 -13 -31 -22 -32 -15 -73 -62 -63 -72 9 -9 176 -18 212 -11 25 5 36 12 36
25 0 19 -24 44 -53 54 -9 4 -20 20 -23 36 -5 23 -12 30 -36 33 -23 4 -32 0
-38 -16z"/>
</g>
</svg>
