<?xml version="1.0" standalone="no"?>
<!DOCTYPE svg PUBLIC "-//W3C//DTD SVG 20010904//EN"
 "http://www.w3.org/TR/2001/REC-SVG-20010904/DTD/svg10.dtd">
<svg version="1.0" xmlns="http://www.w3.org/2000/svg"
 width="92.000000pt" height="93.000000pt" viewBox="0 0 92.000000 93.000000"
 preserveAspectRatio="xMidYMid meet">
<metadata>
Created by potrace 1.14, written by Peter Selinger 2001-2017
</metadata>
<g transform="translate(0.000000,93.000000) scale(0.100000,-0.100000)"
fill="#000000" stroke="none">
<path fill="#000000" stroke="none" d="M411 879 c-22 -27 -48 -71 -57 -96 -17
-44 -17 -50 0 -131 l17 -85 -37 -38 c-30 -31 -50 -41 -121 -58 -145 -37 -149
-39 -157 -107 -3 -33 -18 -112 -31 -177 -23 -107 -32 -187 -21 -187 13 0 148
33 189 46 46 15 47 17 49 57 1 23 1 53 0 67 -5 54 22 158 57 223 l36 69 68 -7
c66 -6 116 -22 148 -47 21 -17 49 -72 49 -97 0 -11 4 -22 9 -26 5 -3 12 -19
16 -35 5 -25 14 -31 48 -40 23 -6 57 -18 76 -27 39 -20 95 -90 111 -139 11
-31 30 -47 30 -24 0 6 7 10 16 10 14 0 15 13 9 113 -4 61 -10 139 -14 171 l-6
60 -134 72 c-74 39 -137 78 -142 86 -6 10 6 40 35 91 l43 75 -20 46 c-11 25
-25 46 -31 46 -6 0 -28 32 -49 70 l-37 70 -54 0 c-53 0 -55 -1 -95 -51z"/>
</g>
</svg>
