<?xml version="1.0" standalone="no"?>
<!DOCTYPE svg PUBLIC "-//W3C//DTD SVG 20010904//EN"
 "http://www.w3.org/TR/2001/REC-SVG-20010904/DTD/svg10.dtd">
<svg version="1.0" xmlns="http://www.w3.org/2000/svg"
 width="221.000000pt" height="48.000000pt" viewBox="0 0 221.000000 48.000000"
 preserveAspectRatio="xMidYMid meet">
<metadata>
Created by potrace 1.14, written by Peter Selinger 2001-2017
</metadata>
<g transform="translate(0.000000,48.000000) scale(0.100000,-0.100000)"
fill="#000000" stroke="none">
<path fill="#000000" stroke="none" d="M607 462 c-11 -12 -17 -36 -17 -71 0
-42 -4 -56 -22 -71 -19 -15 -20 -20 -9 -34 9 -11 12 -30 8 -59 -6 -39 -4 -43
24 -60 44 -25 53 -22 84 24 21 32 25 48 21 74 -5 23 -2 38 9 48 20 21 20 115
-1 145 -19 28 -74 30 -97 4z"/>
<path fill="#000000" stroke="none" d="M1140 453 c-48 -6 -70 -29 -71 -72 0
-20 -2 -85 -5 -145 -2 -68 0 -114 6 -122 6 -6 38 -26 71 -43 70 -36 156 -43
183 -15 25 25 22 189 -4 229 -11 17 -20 47 -20 67 0 27 -8 47 -31 73 -32 36
-41 38 -129 28z"/>
<path fill="#000000" stroke="none" d="M17 432 c-23 -25 -21 -48 4 -73 17 -17
20 -29 16 -60 -5 -37 -2 -41 31 -64 20 -14 40 -25 43 -25 4 0 -6 24 -21 53
-28 51 -28 53 -16 120 l13 67 -27 0 c-15 0 -34 -8 -43 -18z"/>
<path fill="#000000" stroke="none" d="M271 406 c-25 -26 -25 -30 11 -128 l20
-58 54 0 c50 0 54 -2 54 -23 0 -13 -5 -28 -12 -35 -22 -22 1 -12 26 12 44 40
26 136 -26 136 -18 0 -19 4 -14 36 15 76 -61 115 -113 60z"/>
<path fill="#000000" stroke="none" d="M1817 222 c-10 -10 -17 -23 -17 -29 0
-5 -9 -18 -20 -28 -28 -26 -37 -100 -15 -125 18 -20 74 -28 89 -13 11 11 107
3 156 -13 29 -9 74 -14 120 -12 l75 3 3 103 c1 58 -1 102 -7 102 -11 0 -21
-24 -21 -50 0 -13 -12 -21 -47 -28 -63 -14 -84 -11 -130 20 -21 14 -53 29 -71
33 -21 4 -37 16 -44 31 -13 29 -48 32 -71 6z"/>
</g>
</svg>
