<?xml version="1.0" standalone="no"?>
<!DOCTYPE svg PUBLIC "-//W3C//DTD SVG 20010904//EN"
 "http://www.w3.org/TR/2001/REC-SVG-20010904/DTD/svg10.dtd">
<svg version="1.0" xmlns="http://www.w3.org/2000/svg"
 width="21.000000pt" height="68.000000pt" viewBox="0 0 21.000000 68.000000"
 preserveAspectRatio="xMidYMid meet">
<metadata>
Created by potrace 1.14, written by Peter Selinger 2001-2017
</metadata>
<g transform="translate(0.000000,68.000000) scale(0.100000,-0.100000)"
fill="#000000" stroke="none">
<path fill="#000000" stroke="none" d="M88 664 c-24 -12 -28 -21 -28 -57 0
-37 -5 -47 -31 -66 l-30 -23 5 -81 c3 -45 8 -108 11 -139 6 -53 9 -57 37 -63
21 -5 28 -11 24 -22 -3 -8 6 -53 20 -100 14 -46 23 -91 20 -99 -4 -10 2 -14
23 -14 l28 0 7 92 c3 50 6 134 6 187 0 53 7 121 15 151 22 81 20 108 -7 112
-19 2 -22 8 -20 32 4 33 -25 106 -42 106 -6 -1 -23 -8 -38 -16z"/>
</g>
</svg>
