<?xml version="1.0" standalone="no"?>
<!DOCTYPE svg PUBLIC "-//W3C//DTD SVG 20010904//EN"
 "http://www.w3.org/TR/2001/REC-SVG-20010904/DTD/svg10.dtd">
<svg version="1.0" xmlns="http://www.w3.org/2000/svg"
 width="166.000000pt" height="163.000000pt" viewBox="0 0 166.000000 163.000000"
 preserveAspectRatio="xMidYMid meet">
<metadata>
Created by potrace 1.14, written by Peter Selinger 2001-2017
</metadata>
<g transform="translate(0.000000,163.000000) scale(0.100000,-0.100000)"
fill="#000000" stroke="none">
<path fill="#000000" stroke="none" d="M1228 1603 l-126 -25 -11 -62 c-6 -35
-11 -70 -11 -79 0 -27 -16 -28 -70 -7 -43 17 -74 20 -193 20 -240 -1 -481 -51
-647 -135 -53 -27 -54 -31 -18 -98 17 -33 27 -37 95 -37 48 0 91 11 205 51
l143 51 175 5 175 6 53 -27 c75 -38 132 -92 132 -125 0 -42 -85 -121 -130
-121 -48 0 -182 -39 -202 -58 -9 -10 -50 -82 -91 -161 -70 -134 -83 -152 -179
-249 -56 -57 -127 -120 -157 -139 -54 -35 -54 -35 -135 -28 -91 8 -201 9 -222
1 -11 -4 -14 -29 -14 -100 l0 -94 166 -56 167 -55 176 164 176 164 159 1 c139
0 168 3 240 25 44 13 136 33 203 44 160 26 168 23 209 -72 30 -67 32 -82 37
-221 4 -129 8 -151 24 -168 15 -15 28 -17 59 -13 l39 7 -3 291 -3 292 -59 275
c-33 151 -71 304 -85 339 -30 78 -31 86 -4 153 17 43 20 65 14 118 -10 100
-13 105 -61 128 -54 27 -66 26 -226 -5z"/>
</g>
</svg>
