<?xml version="1.0" standalone="no"?>
<!DOCTYPE svg PUBLIC "-//W3C//DTD SVG 20010904//EN"
 "http://www.w3.org/TR/2001/REC-SVG-20010904/DTD/svg10.dtd">
<svg version="1.0" xmlns="http://www.w3.org/2000/svg"
 width="36.000000pt" height="35.000000pt" viewBox="0 0 36.000000 35.000000"
 preserveAspectRatio="xMidYMid meet">
<metadata>
Created by potrace 1.14, written by Peter Selinger 2001-2017
</metadata>
<g transform="translate(0.000000,35.000000) scale(0.100000,-0.100000)"
fill="#000000" stroke="none">
<path fill="#000000" stroke="none" d="M96 319 c-27 -32 -35 -86 -15 -106 8
-8 -1 -19 -29 -39 -47 -34 -57 -66 -41 -130 l11 -44 65 0 c68 0 162 19 224 46
33 14 37 21 42 62 5 41 2 51 -21 75 -15 16 -36 27 -52 27 -33 0 -50 17 -50 50
0 25 -23 67 -44 82 -25 18 -65 7 -90 -23z"/>
</g>
</svg>
