<?xml version="1.0" standalone="no"?>
<!DOCTYPE svg PUBLIC "-//W3C//DTD SVG 20010904//EN"
 "http://www.w3.org/TR/2001/REC-SVG-20010904/DTD/svg10.dtd">
<svg version="1.0" xmlns="http://www.w3.org/2000/svg"
 width="160.000000pt" height="256.000000pt" viewBox="0 0 160.000000 256.000000"
 preserveAspectRatio="xMidYMid meet">
<metadata>
Created by potrace 1.14, written by Peter Selinger 2001-2017
</metadata>
<g transform="translate(0.000000,256.000000) scale(0.100000,-0.100000)"
fill="#000000" stroke="none">
<path fill="#000000" stroke="none" d="M644 2537 c-42 -15 -79 -38 -112 -69
l-50 -47 -9 -98 -10 -98 47 -55 c26 -30 57 -74 69 -98 l22 -42 -158 79 -158
79 -29 60 c-28 59 -32 62 -94 87 l-65 26 -40 -39 -39 -39 34 -21 c19 -12 56
-49 82 -82 33 -41 78 -81 139 -122 51 -33 96 -64 101 -68 4 -5 -6 -26 -24 -48
l-32 -40 37 -51 37 -51 97 0 c66 0 103 -4 116 -14 11 -7 67 -35 125 -61 58
-26 110 -54 117 -63 7 -8 27 -60 44 -116 56 -181 90 -298 87 -301 -2 -2 -100
21 -218 52 l-214 55 -78 -38 -78 -38 -19 -66 c-11 -36 -24 -83 -30 -105 -6
-24 -11 -148 -11 -302 0 -145 -2 -263 -4 -263 -2 0 -48 -9 -102 -20 -90 -18
-224 -73 -224 -92 0 -3 32 -30 72 -59 71 -52 73 -52 207 -75 75 -12 144 -25
153 -29 28 -11 121 15 146 42 32 35 72 118 72 150 0 15 -9 42 -19 60 -19 30
-19 39 -7 227 7 108 15 198 18 201 24 25 361 -773 374 -887 l7 -58 92 0 c85 0
93 2 102 23 6 12 32 66 56 119 l46 97 -47 56 c-34 40 -72 110 -134 247 l-88
191 138 -6 137 -6 109 43 110 43 28 83 c27 80 28 93 28 269 l0 185 -131 310
c-116 274 -140 322 -201 406 l-69 95 -96 40 -97 40 -25 99 -26 99 -118 63
c-65 35 -121 64 -125 63 -4 0 -35 -10 -68 -22z"/>
</g>
</svg>
