<?xml version="1.0" standalone="no"?>
<!DOCTYPE svg PUBLIC "-//W3C//DTD SVG 20010904//EN"
 "http://www.w3.org/TR/2001/REC-SVG-20010904/DTD/svg10.dtd">
<svg version="1.0" xmlns="http://www.w3.org/2000/svg"
 width="18.000000pt" height="41.000000pt" viewBox="0 0 18.000000 41.000000"
 preserveAspectRatio="xMidYMid meet">
<metadata>
Created by potrace 1.14, written by Peter Selinger 2001-2017
</metadata>
<g transform="translate(0.000000,41.000000) scale(0.100000,-0.100000)"
fill="#000000" stroke="none">
<path fill="#000000" stroke="none" d="M41 394 c-21 -15 -22 -22 -16 -69 4
-39 2 -63 -10 -91 -15 -34 -15 -50 -4 -134 7 -52 13 -96 15 -98 1 -2 20 2 42
8 31 10 44 21 60 54 12 22 29 53 38 67 24 38 12 88 -29 118 l-33 25 14 52 c8
29 12 59 9 68 -8 21 -56 21 -86 0z"/>
</g>
</svg>
