<?xml version="1.0" standalone="no"?>
<!DOCTYPE svg PUBLIC "-//W3C//DTD SVG 20010904//EN"
 "http://www.w3.org/TR/2001/REC-SVG-20010904/DTD/svg10.dtd">
<svg version="1.0" xmlns="http://www.w3.org/2000/svg"
 width="74.000000pt" height="271.000000pt" viewBox="0 0 74.000000 271.000000"
 preserveAspectRatio="xMidYMid meet">
<metadata>
Created by potrace 1.14, written by Peter Selinger 2001-2017
</metadata>
<g transform="translate(0.000000,271.000000) scale(0.100000,-0.100000)"
fill="#000000" stroke="none">
<path fill="#000000" stroke="none" d="M353 2703 c-24 -3 -42 -17 -74 -56
l-41 -52 7 -100 c12 -153 9 -255 -6 -269 -8 -7 -34 -18 -59 -25 -25 -8 -57
-21 -71 -31 -14 -10 -37 -22 -52 -25 -15 -4 -27 -8 -27 -9 -5 -19 -30 -351
-30 -403 0 -62 5 -82 40 -158 37 -80 54 -151 62 -255 3 -34 4 -32 56 58 29 52
76 123 104 158 46 59 51 63 64 47 7 -10 14 -23 14 -29 0 -6 -27 -67 -60 -135
-56 -118 -62 -126 -114 -159 -54 -34 -55 -35 -50 -75 17 -150 20 -200 13 -275
-4 -47 -15 -241 -24 -432 l-18 -347 38 -51 c37 -50 51 -60 107 -74 26 -6 27
-4 33 48 6 48 3 61 -29 131 l-36 78 0 168 0 169 57 115 c32 63 61 115 64 115
4 0 15 -33 24 -73 13 -54 18 -141 22 -355 l6 -282 66 -19 c199 -59 203 -60
236 -39 17 10 36 23 44 27 12 7 -8 34 -87 120 l-102 111 0 172 0 172 31 32
c29 30 31 37 46 180 14 124 14 167 5 254 -7 58 -12 182 -12 274 l0 169 40 -44
39 -44 1 -175 0 -175 27 27 c25 25 26 33 30 150 4 85 -2 180 -16 310 -12 103
-21 235 -21 295 l0 108 -46 70 c-25 39 -62 84 -81 101 -34 30 -36 35 -41 107
-4 71 -3 78 28 132 l32 57 -22 83 c-17 63 -29 88 -49 103 -27 20 -111 32 -168
25z"/>
</g>
</svg>
