<?xml version="1.0" standalone="no"?>
<!DOCTYPE svg PUBLIC "-//W3C//DTD SVG 20010904//EN"
 "http://www.w3.org/TR/2001/REC-SVG-20010904/DTD/svg10.dtd">
<svg version="1.0" xmlns="http://www.w3.org/2000/svg"
 width="33.000000pt" height="104.000000pt" viewBox="0 0 33.000000 104.000000"
 preserveAspectRatio="xMidYMid meet">
<metadata>
Created by potrace 1.14, written by Peter Selinger 2001-2017
</metadata>
<g transform="translate(0.000000,104.000000) scale(0.100000,-0.100000)"
fill="#000000" stroke="none">
<path fill="#000000" stroke="none" d="M153 1017 c-10 -13 -24 -22 -31 -19
-21 7 -58 -24 -72 -60 -6 -18 -21 -54 -31 -80 -25 -61 -25 -72 0 -58 11 5 21
10 23 10 2 0 4 -33 4 -72 1 -72 8 -103 38 -183 10 -26 15 -78 16 -150 0 -60 5
-168 10 -240 8 -113 12 -132 30 -147 15 -12 28 -15 43 -9 18 7 23 18 27 64 3
30 8 58 12 62 3 4 22 2 41 -3 20 -6 38 -7 41 -4 11 10 6 121 -5 127 -7 5 -8
29 -4 69 6 52 4 65 -13 86 -10 14 -22 35 -26 48 -3 12 -9 32 -12 45 l-6 22 25
-23 c21 -20 29 -22 46 -13 27 15 27 20 -8 61 l-29 35 24 22 c22 20 24 29 24
126 0 102 0 104 -31 133 l-30 29 22 17 c11 10 17 18 11 18 -6 0 -13 18 -17 40
-9 51 -28 70 -70 70 -23 0 -39 -7 -52 -23z"/>
</g>
</svg>
