<?xml version="1.0" standalone="no"?>
<!DOCTYPE svg PUBLIC "-//W3C//DTD SVG 20010904//EN"
 "http://www.w3.org/TR/2001/REC-SVG-20010904/DTD/svg10.dtd">
<svg version="1.0" xmlns="http://www.w3.org/2000/svg"
 width="17.000000pt" height="35.000000pt" viewBox="0 0 17.000000 35.000000"
 preserveAspectRatio="xMidYMid meet">
<metadata>
Created by potrace 1.14, written by Peter Selinger 2001-2017
</metadata>
<g transform="translate(0.000000,35.000000) scale(0.100000,-0.100000)"
fill="#000000" stroke="none">
<path fill="#000000" stroke="none" d="M72 341 c-15 -9 -18 -38 -7 -63 4 -10
3 -18 -3 -18 -5 0 -13 -20 -17 -45 -3 -25 -15 -65 -25 -88 -24 -51 -25 -67 -5
-67 10 0 15 -10 15 -30 0 -30 1 -30 55 -30 60 0 58 -2 69 85 3 22 8 64 12 93
6 46 4 55 -13 67 -15 11 -20 23 -17 52 3 47 -26 68 -64 44z"/>
</g>
</svg>
