<?xml version="1.0" standalone="no"?>
<!DOCTYPE svg PUBLIC "-//W3C//DTD SVG 20010904//EN"
 "http://www.w3.org/TR/2001/REC-SVG-20010904/DTD/svg10.dtd">
<svg version="1.0" xmlns="http://www.w3.org/2000/svg"
 width="50.000000pt" height="64.000000pt" viewBox="0 0 50.000000 64.000000"
 preserveAspectRatio="xMidYMid meet">
<metadata>
Created by potrace 1.14, written by Peter Selinger 2001-2017
</metadata>
<g transform="translate(0.000000,64.000000) scale(0.100000,-0.100000)"
fill="#000000" stroke="none">
<path fill="#000000" stroke="none" d="M204 630 c-46 -10 -51 -16 -64 -69 -7
-31 -22 -59 -42 -77 -41 -40 -98 -139 -98 -173 0 -18 12 -38 35 -61 24 -23 35
-44 36 -64 3 -83 -5 -79 244 -142 77 -19 148 -37 158 -40 14 -5 17 1 17 38 0
65 -51 136 -131 181 l-63 35 31 6 c24 6 45 0 90 -23 86 -43 95 -25 19 34 -52
41 -67 60 -81 100 -10 28 -34 71 -53 98 -18 26 -41 73 -49 105 -8 31 -16 57
-16 58 -1 0 -16 -2 -33 -6z"/>
</g>
</svg>
