<?xml version="1.0" standalone="no"?>
<!DOCTYPE svg PUBLIC "-//W3C//DTD SVG 20010904//EN"
 "http://www.w3.org/TR/2001/REC-SVG-20010904/DTD/svg10.dtd">
<svg version="1.0" xmlns="http://www.w3.org/2000/svg"
 width="39.000000pt" height="62.000000pt" viewBox="0 0 39.000000 62.000000"
 preserveAspectRatio="xMidYMid meet">
<metadata>
Created by potrace 1.14, written by Peter Selinger 2001-2017
</metadata>
<g transform="translate(0.000000,62.000000) scale(0.100000,-0.100000)"
fill="#000000" stroke="none">
<path fill="#000000" stroke="none" d="M166 598 c-9 -12 -16 -33 -16 -47 0
-13 -14 -46 -31 -73 -26 -40 -33 -62 -36 -121 -3 -51 -15 -96 -38 -152 -50
-123 -51 -129 -10 -148 26 -12 35 -13 36 -4 4 67 17 97 59 143 l37 41 33 -76
c18 -43 32 -93 33 -118 0 -42 1 -43 34 -43 33 0 33 0 33 49 0 28 -13 105 -30
173 -35 144 -35 146 -12 125 10 -10 33 -17 51 -17 19 0 34 -6 37 -15 4 -8 15
-15 26 -15 15 0 19 6 16 27 -2 19 -14 33 -43 48 -62 35 -94 88 -95 157 0 31
-3 63 -6 72 -9 24 -60 20 -78 -6z"/>
</g>
</svg>
