<?xml version="1.0" standalone="no"?>
<!DOCTYPE svg PUBLIC "-//W3C//DTD SVG 20010904//EN"
 "http://www.w3.org/TR/2001/REC-SVG-20010904/DTD/svg10.dtd">
<svg version="1.0" xmlns="http://www.w3.org/2000/svg"
 width="12.000000pt" height="27.000000pt" viewBox="0 0 12.000000 27.000000"
 preserveAspectRatio="xMidYMid meet">
<metadata>
Created by potrace 1.14, written by Peter Selinger 2001-2017
</metadata>
<g transform="translate(0.000000,27.000000) scale(0.100000,-0.100000)"
fill="#000000" stroke="none">
<path fill="#000000" stroke="none" d="M0 256 c0 -8 4 -17 9 -21 6 -3 6 -17 1
-35 -11 -39 -2 -70 21 -70 18 0 18 -2 6 -26 -11 -20 -12 -36 -4 -65 8 -34 13
-39 39 -39 28 0 29 2 23 30 -4 19 0 47 10 75 17 43 17 45 -5 79 -12 20 -28 36
-35 36 -7 0 -16 11 -19 25 -7 27 -46 36 -46 11z"/>
</g>
</svg>
