<?xml version="1.0" standalone="no"?>
<!DOCTYPE svg PUBLIC "-//W3C//DTD SVG 20010904//EN"
 "http://www.w3.org/TR/2001/REC-SVG-20010904/DTD/svg10.dtd">
<svg version="1.0" xmlns="http://www.w3.org/2000/svg"
 width="124.000000pt" height="146.000000pt" viewBox="0 0 124.000000 146.000000"
 preserveAspectRatio="xMidYMid meet">
<metadata>
Created by potrace 1.14, written by Peter Selinger 2001-2017
</metadata>
<g transform="translate(0.000000,146.000000) scale(0.100000,-0.100000)"
fill="#000000" stroke="none">
<path fill="#000000" stroke="none" d="M884 1434 c-66 -23 -72 -27 -93 -72
-12 -26 -66 -130 -118 -231 l-96 -184 -28 55 c-26 51 -32 56 -76 67 -45 12
-51 11 -100 -16 l-53 -28 0 -58 c0 -34 -7 -71 -16 -90 -15 -27 -15 -41 -5
-110 l12 -79 -73 -77 c-56 -59 -89 -84 -144 -110 -69 -32 -73 -36 -83 -78 -13
-48 -7 -64 33 -102 l25 -24 168 42 c95 24 190 54 220 70 l51 28 41 -55 c24
-33 51 -88 67 -136 14 -45 40 -118 57 -162 l31 -81 96 60 c142 90 138 83 106
152 -14 32 -26 59 -26 61 0 8 76 -31 97 -49 21 -19 22 -18 129 72 59 50 114
91 123 91 9 0 -21 24 -65 54 l-81 54 -13 64 c-17 83 -20 88 -84 137 -30 23
-77 76 -106 118 l-53 75 7 90 c6 82 12 100 58 192 28 55 70 127 94 158 l44 57
-21 35 c-24 42 -31 42 -125 10z"/>
</g>
</svg>
