<?xml version="1.0" standalone="no"?>
<!DOCTYPE svg PUBLIC "-//W3C//DTD SVG 20010904//EN"
 "http://www.w3.org/TR/2001/REC-SVG-20010904/DTD/svg10.dtd">
<svg version="1.0" xmlns="http://www.w3.org/2000/svg"
 width="25.000000pt" height="36.000000pt" viewBox="0 0 25.000000 36.000000"
 preserveAspectRatio="xMidYMid meet">
<metadata>
Created by potrace 1.14, written by Peter Selinger 2001-2017
</metadata>
<g transform="translate(0.000000,36.000000) scale(0.100000,-0.100000)"
fill="#000000" stroke="none">
<path fill="#000000" stroke="none" d="M98 335 c-27 -23 -27 -26 -17 -72 11
-48 11 -50 -34 -123 l-45 -74 21 -31 c11 -16 22 -32 23 -34 2 -1 34 2 73 9 60
10 71 15 71 32 0 11 11 52 24 91 27 79 41 175 31 207 -5 17 -15 20 -63 20 -46
-1 -62 -5 -84 -25z"/>
</g>
</svg>
