<?xml version="1.0" standalone="no"?>
<!DOCTYPE svg PUBLIC "-//W3C//DTD SVG 20010904//EN"
 "http://www.w3.org/TR/2001/REC-SVG-20010904/DTD/svg10.dtd">
<svg version="1.0" xmlns="http://www.w3.org/2000/svg"
 width="133.000000pt" height="128.000000pt" viewBox="0 0 133.000000 128.000000"
 preserveAspectRatio="xMidYMid meet">
<metadata>
Created by potrace 1.14, written by Peter Selinger 2001-2017
</metadata>
<g transform="translate(0.000000,128.000000) scale(0.100000,-0.100000)"
fill="#000000" stroke="none">
<path fill="#000000" stroke="none" d="M0 1199 c0 -44 3 -78 7 -76 87 48 152
92 146 98 -9 8 -132 59 -145 59 -4 0 -8 -36 -8 -81z"/>
<path fill="#000000" stroke="none" d="M760 755 c-8 -8 -113 -58 -232 -113
l-217 -98 66 -16 c46 -11 74 -13 91 -7 18 7 48 2 120 -22 53 -17 101 -34 107
-39 5 -4 79 -6 163 -3 l152 6 60 45 c34 24 59 50 57 56 -3 10 -331 206 -346
206 -3 0 -13 -7 -21 -15z"/>
<path fill="#000000" stroke="none" d="M1284 98 c3 -9 8 -33 12 -52 6 -34 20
-54 30 -44 2 3 -7 29 -21 59 -14 30 -24 46 -21 37z"/>
</g>
</svg>
