<?xml version="1.0" standalone="no"?>
<!DOCTYPE svg PUBLIC "-//W3C//DTD SVG 20010904//EN"
 "http://www.w3.org/TR/2001/REC-SVG-20010904/DTD/svg10.dtd">
<svg version="1.0" xmlns="http://www.w3.org/2000/svg"
 width="16.000000pt" height="53.000000pt" viewBox="0 0 16.000000 53.000000"
 preserveAspectRatio="xMidYMid meet">
<metadata>
Created by potrace 1.14, written by Peter Selinger 2001-2017
</metadata>
<g transform="translate(0.000000,53.000000) scale(0.100000,-0.100000)"
fill="#000000" stroke="none">
<path fill="#000000" stroke="none" d="M77 512 c-10 -10 -17 -31 -17 -46 0
-18 -10 -36 -30 -53 -37 -30 -42 -82 -10 -90 17 -4 20 -14 20 -57 0 -29 6 -72
14 -97 8 -24 18 -66 22 -94 l7 -50 13 45 12 45 1 -46 c1 -50 17 -75 37 -58 16
13 7 341 -11 385 -7 17 -11 42 -8 55 5 27 -12 79 -25 79 -5 0 -16 -8 -25 -18z"/>
</g>
</svg>
