<?xml version="1.0" standalone="no"?>
<!DOCTYPE svg PUBLIC "-//W3C//DTD SVG 20010904//EN"
 "http://www.w3.org/TR/2001/REC-SVG-20010904/DTD/svg10.dtd">
<svg version="1.0" xmlns="http://www.w3.org/2000/svg"
 width="21.000000pt" height="23.000000pt" viewBox="0 0 21.000000 23.000000"
 preserveAspectRatio="xMidYMid meet">
<metadata>
Created by potrace 1.14, written by Peter Selinger 2001-2017
</metadata>
<g transform="translate(0.000000,23.000000) scale(0.100000,-0.100000)"
fill="#000000" stroke="none">
<path fill="#000000" stroke="none" d="M8 213 c-2 -10 0 -33 5 -52 5 -19 6
-47 3 -63 -6 -28 10 -77 29 -90 5 -4 40 -8 77 -8 56 0 69 3 77 19 16 29 -5 78
-35 85 -22 6 -25 12 -24 44 4 85 7 82 -64 82 -53 0 -65 -3 -68 -17z"/>
</g>
</svg>
