<?xml version="1.0" standalone="no"?>
<!DOCTYPE svg PUBLIC "-//W3C//DTD SVG 20010904//EN"
 "http://www.w3.org/TR/2001/REC-SVG-20010904/DTD/svg10.dtd">
<svg version="1.0" xmlns="http://www.w3.org/2000/svg"
 width="371.000000pt" height="248.000000pt" viewBox="0 0 371.000000 248.000000"
 preserveAspectRatio="xMidYMid meet">
<metadata>
Created by potrace 1.14, written by Peter Selinger 2001-2017
</metadata>
<g transform="translate(0.000000,248.000000) scale(0.100000,-0.100000)"
fill="#000000" stroke="none">
<path fill="#000000" stroke="none" d="M2928 2447 l-78 -32 -70 -108 c-39 -62
-85 -151 -106 -205 -21 -54 -61 -158 -89 -232 l-52 -135 -84 -9 c-127 -13
-260 6 -453 64 -91 28 -167 50 -170 50 -2 0 6 -26 18 -57 20 -53 25 -58 57
-64 87 -14 152 -51 239 -136 47 -45 99 -93 116 -105 17 -12 38 -35 48 -51 14
-25 14 -31 3 -41 -8 -6 -52 -56 -99 -111 -123 -144 -166 -177 -247 -190 -66
-11 -159 -57 -221 -110 -64 -54 -88 -106 -97 -204 -5 -50 -12 -71 -28 -86 -28
-27 -96 -49 -123 -41 -12 4 -55 41 -96 82 l-74 75 5 75 c5 68 4 74 -13 74 -10
0 -24 -4 -30 -8 -15 -9 -140 -259 -170 -340 -13 -35 -38 -90 -54 -122 -17 -33
-30 -64 -30 -70 0 -6 11 -28 25 -49 l24 -40 -32 -28 -32 -28 -505 -44 c-278
-24 -506 -44 -506 -45 -1 0 1 -35 3 -77 l5 -76 562 -7 c308 -3 912 -8 1341
-12 l780 -5 52 48 c71 66 457 495 507 564 27 37 52 89 71 148 29 91 29 92 17
203 l-13 111 25 38 c14 21 23 45 20 53 -3 8 4 32 15 55 13 25 25 78 32 143
l12 103 127 130 128 130 9 60 c15 106 8 224 -16 296 -18 56 -36 82 -116 170
-82 91 -105 110 -184 152 -66 35 -111 51 -173 62 -131 23 -191 20 -280 -18z"/>
</g>
</svg>
