<?xml version="1.0" standalone="no"?>
<!DOCTYPE svg PUBLIC "-//W3C//DTD SVG 20010904//EN"
 "http://www.w3.org/TR/2001/REC-SVG-20010904/DTD/svg10.dtd">
<svg version="1.0" xmlns="http://www.w3.org/2000/svg"
 width="84.000000pt" height="96.000000pt" viewBox="0 0 84.000000 96.000000"
 preserveAspectRatio="xMidYMid meet">
<metadata>
Created by potrace 1.14, written by Peter Selinger 2001-2017
</metadata>
<g transform="translate(0.000000,96.000000) scale(0.100000,-0.100000)"
fill="#000000" stroke="none">
<path fill="#000000" stroke="none" d="M780 920 c-27 -44 -19 -41 -210 -86
-137 -32 -140 -33 -171 -79 l-24 -35 -90 2 c-90 3 -90 3 -93 31 -2 15 -5 27
-8 27 -5 0 -134 -52 -134 -54 0 0 7 -22 15 -49 14 -46 13 -49 -16 -115 l-31
-67 -2 -220 c-1 -121 -6 -229 -10 -241 -7 -19 -3 -22 35 -28 23 -4 43 -5 44
-4 2 2 -5 28 -14 58 -17 56 -14 94 24 307 l6 33 120 -61 120 -60 152 26 c296
52 274 49 300 32 24 -16 25 -15 31 15 3 17 6 42 6 55 0 21 -4 24 -27 19 -16
-3 -99 -8 -185 -12 -131 -5 -158 -4 -158 7 0 8 15 61 33 119 l33 105 97 3 97
3 17 -36 c14 -28 22 -35 38 -31 11 3 28 6 38 6 14 0 17 9 17 49 0 29 -5 53
-12 58 -7 4 -71 10 -143 13 l-130 5 144 42 c79 24 146 45 148 47 5 5 -19 139
-26 148 -4 4 -18 -10 -31 -32z"/>
</g>
</svg>
