<?xml version="1.0" standalone="no"?>
<!DOCTYPE svg PUBLIC "-//W3C//DTD SVG 20010904//EN"
 "http://www.w3.org/TR/2001/REC-SVG-20010904/DTD/svg10.dtd">
<svg version="1.0" xmlns="http://www.w3.org/2000/svg"
 width="100.000000pt" height="141.000000pt" viewBox="0 0 100.000000 141.000000"
 preserveAspectRatio="xMidYMid meet">
<metadata>
Created by potrace 1.14, written by Peter Selinger 2001-2017
</metadata>
<g transform="translate(0.000000,141.000000) scale(0.100000,-0.100000)"
fill="#000000" stroke="none">
<path fill="#000000" stroke="none" d="M635 1381 c-36 -71 -138 -93 -201 -44
-47 35 -131 44 -156 16 -17 -18 -15 -21 37 -77 52 -57 54 -59 41 -89 -9 -23
-31 -41 -84 -70 -67 -36 -77 -46 -136 -135 -36 -53 -78 -116 -94 -139 -36 -52
-46 -117 -30 -195 10 -50 17 -61 49 -82 40 -27 53 -67 48 -145 -3 -33 2 -46
26 -71 24 -25 36 -30 77 -30 l48 0 0 48 c0 83 25 141 86 203 54 54 57 56 92
48 21 -5 54 -9 75 -9 l37 0 -1 68 c0 37 -4 99 -8 137 -4 39 -4 130 1 203 8
125 7 135 -12 162 -11 15 -20 42 -20 59 0 26 4 31 25 31 37 0 91 -53 103 -102
6 -24 14 -158 17 -298 4 -140 13 -304 21 -365 25 -179 29 -302 11 -362 -15
-49 -15 -52 6 -71 51 -48 176 -79 262 -66 42 6 43 7 34 32 -6 14 -31 59 -56
100 -60 96 -73 154 -73 333 0 155 -13 223 -52 265 -22 24 -48 102 -41 122 3 7
29 24 59 37 l54 24 0 63 c0 48 -6 74 -25 110 -20 38 -27 71 -34 160 -10 125
-20 140 -90 152 -66 11 -80 7 -96 -23z"/>
</g>
</svg>
