<?xml version="1.0" standalone="no"?>
<!DOCTYPE svg PUBLIC "-//W3C//DTD SVG 20010904//EN"
 "http://www.w3.org/TR/2001/REC-SVG-20010904/DTD/svg10.dtd">
<svg version="1.0" xmlns="http://www.w3.org/2000/svg"
 width="17.000000pt" height="33.000000pt" viewBox="0 0 17.000000 33.000000"
 preserveAspectRatio="xMidYMid meet">
<metadata>
Created by potrace 1.14, written by Peter Selinger 2001-2017
</metadata>
<g transform="translate(0.000000,33.000000) scale(0.100000,-0.100000)"
fill="#000000" stroke="none">
<path fill="#000000" stroke="none" d="M57 324 c-4 -4 -7 -17 -7 -29 0 -13 -7
-42 -16 -66 -8 -24 -19 -80 -24 -124 -7 -69 -6 -82 8 -92 9 -7 19 -13 23 -13
4 0 15 35 25 78 25 117 29 121 87 97 17 -7 17 -6 0 31 -9 22 -25 48 -34 59 -9
11 -19 29 -21 40 -3 20 -28 31 -41 19z"/>
</g>
</svg>
