<?xml version="1.0" standalone="no"?>
<!DOCTYPE svg PUBLIC "-//W3C//DTD SVG 20010904//EN"
 "http://www.w3.org/TR/2001/REC-SVG-20010904/DTD/svg10.dtd">
<svg version="1.0" xmlns="http://www.w3.org/2000/svg"
 width="384.000000pt" height="420.000000pt" viewBox="0 0 384.000000 420.000000"
 preserveAspectRatio="xMidYMid meet">
<metadata>
Created by potrace 1.14, written by Peter Selinger 2001-2017
</metadata>
<g transform="translate(0.000000,420.000000) scale(0.100000,-0.100000)"
fill="#000000" stroke="none">
<path fill="#000000" stroke="none" d="M1496 4173 c-3 -16 -13 -70 -21 -121
l-16 -93 36 -132 c20 -73 43 -155 51 -183 7 -28 14 -82 14 -120 -1 -64 -4 -76
-54 -167 l-53 -97 -177 -112 c-172 -107 -179 -113 -227 -184 -49 -73 -49 -75
-73 -227 -32 -206 -49 -232 -243 -391 -146 -119 -363 -337 -363 -365 -1 -9
-30 -38 -66 -65 -54 -39 -72 -47 -94 -42 -47 9 -133 -55 -176 -132 -19 -34
-32 -67 -29 -72 3 -6 20 -10 36 -10 59 0 69 -13 69 -90 0 -61 2 -70 18 -70 39
0 120 36 212 94 52 33 165 95 250 137 85 43 214 111 285 152 127 72 131 76
189 158 33 46 91 128 131 181 l72 97 18 -119 c15 -104 16 -159 10 -403 -6
-264 -9 -289 -35 -397 -16 -63 -38 -170 -50 -238 l-21 -123 21 -137 c77 -511
78 -515 149 -678 36 -82 80 -166 96 -185 l30 -36 355 8 c1311 29 1328 30 1332
49 1 3 -2 65 -6 138 l-7 134 -68 136 -68 137 -12 170 c-7 94 -21 262 -32 375
-10 113 -24 315 -30 450 l-11 245 51 316 c44 270 51 335 51 453 l0 137 51 80
c28 43 54 79 57 79 4 0 49 -66 100 -145 61 -96 92 -155 92 -174 0 -16 3 -42 6
-59 6 -30 7 -31 31 -15 13 9 52 26 86 38 54 19 66 29 96 74 l34 51 54 -80 c70
-105 90 -106 151 -3 29 49 32 61 38 176 l7 124 -57 101 -57 101 -247 191
c-244 190 -246 192 -255 166 -6 -18 -14 -25 -25 -22 -10 3 -62 17 -117 32 -98
25 -103 29 -257 143 -87 64 -157 121 -158 127 0 6 -9 23 -21 38 -20 25 -21 34
-14 170 l7 143 -120 47 -120 47 -403 9 c-555 13 -496 15 -503 -17z"/>
</g>
</svg>
