<?xml version="1.0" standalone="no"?>
<!DOCTYPE svg PUBLIC "-//W3C//DTD SVG 20010904//EN"
 "http://www.w3.org/TR/2001/REC-SVG-20010904/DTD/svg10.dtd">
<svg version="1.0" xmlns="http://www.w3.org/2000/svg"
 width="36.000000pt" height="70.000000pt" viewBox="0 0 36.000000 70.000000"
 preserveAspectRatio="xMidYMid meet">
<metadata>
Created by potrace 1.14, written by Peter Selinger 2001-2017
</metadata>
<g transform="translate(0.000000,70.000000) scale(0.100000,-0.100000)"
fill="#000000" stroke="none">
<path fill="#000000" stroke="none" d="M208 688 c-21 -7 -28 -17 -32 -46 -3
-20 -4 -48 -3 -61 2 -21 -6 -27 -54 -43 -54 -18 -58 -22 -88 -82 -17 -35 -31
-66 -31 -69 0 -4 25 -34 55 -68 l55 -62 0 -77 c0 -42 3 -98 6 -123 6 -39 10
-46 33 -50 14 -3 28 -4 30 -2 2 2 3 63 2 135 0 127 1 134 29 190 28 56 31 58
78 65 26 3 53 10 60 14 19 12 -6 131 -35 162 -15 16 -23 38 -23 60 0 18 -4 39
-8 45 -11 16 -44 22 -74 12z"/>
</g>
</svg>
