<?xml version="1.0" standalone="no"?>
<!DOCTYPE svg PUBLIC "-//W3C//DTD SVG 20010904//EN"
 "http://www.w3.org/TR/2001/REC-SVG-20010904/DTD/svg10.dtd">
<svg version="1.0" xmlns="http://www.w3.org/2000/svg"
 width="74.000000pt" height="125.000000pt" viewBox="0 0 74.000000 125.000000"
 preserveAspectRatio="xMidYMid meet">
<metadata>
Created by potrace 1.14, written by Peter Selinger 2001-2017
</metadata>
<g transform="translate(0.000000,125.000000) scale(0.100000,-0.100000)"
fill="#000000" stroke="none">
<path fill="#000000" stroke="none" d="M380 1237 c-33 -9 -52 -22 -77 -55 -43
-57 -55 -105 -56 -237 l-2 -110 -61 -20 c-136 -45 -174 -100 -182 -263 -3 -62
-1 -97 7 -105 8 -8 11 -3 11 19 0 24 11 40 54 77 52 44 58 47 113 47 77 0 95
-14 143 -111 32 -63 47 -82 74 -93 52 -22 75 -62 66 -116 -4 -25 -14 -61 -23
-81 -24 -54 -6 -110 48 -154 23 -19 44 -35 47 -35 3 0 8 30 11 68 8 92 31 155
88 237 59 84 99 196 99 275 0 32 -10 84 -22 121 -29 84 -74 126 -146 136 l-51
8 31 70 c41 92 44 175 9 257 -23 55 -26 57 -73 68 -57 12 -50 12 -108 -3z"/>
</g>
</svg>
