<?xml version="1.0" standalone="no"?>
<!DOCTYPE svg PUBLIC "-//W3C//DTD SVG 20010904//EN"
 "http://www.w3.org/TR/2001/REC-SVG-20010904/DTD/svg10.dtd">
<svg version="1.0" xmlns="http://www.w3.org/2000/svg"
 width="155.000000pt" height="201.000000pt" viewBox="0 0 155.000000 201.000000"
 preserveAspectRatio="xMidYMid meet">
<metadata>
Created by potrace 1.14, written by Peter Selinger 2001-2017
</metadata>
<g transform="translate(0.000000,201.000000) scale(0.100000,-0.100000)"
fill="#000000" stroke="none">
<path fill="#000000" stroke="none" d="M480 1958 c-13 -29 -23 -64 -22 -78 1
-14 22 -158 47 -319 25 -162 44 -295 43 -297 -2 -1 -57 -31 -123 -67 l-120
-65 -78 -125 -78 -125 -64 -383 c-35 -211 -68 -397 -74 -412 -6 -16 -11 -34
-11 -40 0 -15 228 211 245 243 17 33 319 340 333 340 6 0 27 -9 46 -21 l36
-21 -62 -50 c-58 -46 -68 -60 -121 -171 -32 -67 -67 -142 -77 -167 -12 -30
-45 -72 -96 -123 -67 -65 -75 -77 -56 -77 13 0 162 45 331 100 l307 100 159
270 158 270 172 449 171 448 -19 164 c-10 90 -20 166 -22 167 -3 3 -898 41
-981 42 -16 0 -27 -13 -44 -52z"/>
</g>
</svg>
