<?xml version="1.0" standalone="no"?>
<!DOCTYPE svg PUBLIC "-//W3C//DTD SVG 20010904//EN"
 "http://www.w3.org/TR/2001/REC-SVG-20010904/DTD/svg10.dtd">
<svg version="1.0" xmlns="http://www.w3.org/2000/svg"
 width="45.000000pt" height="215.000000pt" viewBox="0 0 45.000000 215.000000"
 preserveAspectRatio="xMidYMid meet">
<metadata>
Created by potrace 1.14, written by Peter Selinger 2001-2017
</metadata>
<g transform="translate(0.000000,215.000000) scale(0.100000,-0.100000)"
fill="#000000" stroke="none">
<path fill="#000000" stroke="none" d="M175 2093 c-9 -32 -43 -132 -75 -223
-33 -91 -69 -208 -81 -260 -19 -83 -20 -101 -10 -155 7 -33 15 -136 18 -230 5
-160 8 -180 49 -339 24 -92 44 -178 44 -190 0 -12 -18 -139 -39 -282 -22 -142
-41 -274 -43 -292 -3 -32 -2 -33 92 -77 l95 -44 9 30 c6 21 4 60 -8 127 l-17
97 76 270 c92 324 129 496 109 508 -20 12 -17 28 15 94 28 55 30 69 37 223 l7
165 -68 162 -68 162 41 48 c22 26 52 59 66 72 14 14 26 30 26 36 0 6 -16 30
-35 52 -29 34 -50 46 -118 69 -45 15 -87 29 -94 31 -7 3 -18 -17 -28 -54z"/>
</g>
</svg>
