<?xml version="1.0" standalone="no"?>
<!DOCTYPE svg PUBLIC "-//W3C//DTD SVG 20010904//EN"
 "http://www.w3.org/TR/2001/REC-SVG-20010904/DTD/svg10.dtd">
<svg version="1.0" xmlns="http://www.w3.org/2000/svg"
 width="22.000000pt" height="50.000000pt" viewBox="0 0 22.000000 50.000000"
 preserveAspectRatio="xMidYMid meet">
<metadata>
Created by potrace 1.14, written by Peter Selinger 2001-2017
</metadata>
<g transform="translate(0.000000,50.000000) scale(0.100000,-0.100000)"
fill="#000000" stroke="none">
<path fill="#000000" stroke="none" d="M95 491 c-11 -5 -28 -17 -37 -28 -21
-23 -40 -115 -32 -148 3 -13 -2 -37 -11 -55 -16 -31 -16 -38 7 -141 27 -126
40 -140 87 -90 15 16 39 33 53 36 15 4 31 20 40 39 14 28 14 36 1 72 -23 60
-26 81 -14 88 14 9 14 53 0 62 -7 4 -9 22 -5 49 7 46 -6 91 -32 111 -20 15
-29 16 -57 5z"/>
</g>
</svg>
