<?xml version="1.0" standalone="no"?>
<!DOCTYPE svg PUBLIC "-//W3C//DTD SVG 20010904//EN"
 "http://www.w3.org/TR/2001/REC-SVG-20010904/DTD/svg10.dtd">
<svg version="1.0" xmlns="http://www.w3.org/2000/svg"
 width="12.000000pt" height="35.000000pt" viewBox="0 0 12.000000 35.000000"
 preserveAspectRatio="xMidYMid meet">
<metadata>
Created by potrace 1.14, written by Peter Selinger 2001-2017
</metadata>
<g transform="translate(0.000000,35.000000) scale(0.100000,-0.100000)"
fill="#000000" stroke="none">
<path fill="#000000" stroke="none" d="M48 339 c-10 -5 -18 -18 -18 -28 0 -9
-7 -26 -15 -37 -20 -27 -18 -64 5 -94 15 -19 20 -41 20 -97 0 -58 3 -73 15
-73 10 0 15 10 15 33 0 22 3 28 9 18 5 -7 6 -21 4 -31 -7 -26 14 -34 27 -10 8
15 8 37 1 77 -6 30 -8 73 -5 95 4 22 2 49 -4 61 -6 12 -13 37 -14 56 -3 38
-14 46 -40 30z"/>
</g>
</svg>
