<?xml version="1.0" standalone="no"?>
<!DOCTYPE svg PUBLIC "-//W3C//DTD SVG 20010904//EN"
 "http://www.w3.org/TR/2001/REC-SVG-20010904/DTD/svg10.dtd">
<svg version="1.0" xmlns="http://www.w3.org/2000/svg"
 width="109.000000pt" height="316.000000pt" viewBox="0 0 109.000000 316.000000"
 preserveAspectRatio="xMidYMid meet">
<metadata>
Created by potrace 1.14, written by Peter Selinger 2001-2017
</metadata>
<g transform="translate(0.000000,316.000000) scale(0.100000,-0.100000)"
fill="#000000" stroke="none">
<path fill="#000000" stroke="none" d="M778 3148 c-28 -9 -40 -20 -53 -49 -16
-35 -22 -39 -86 -54 -63 -16 -69 -19 -63 -39 4 -11 9 -22 13 -24 88 -42 96
-48 102 -80 6 -29 4 -33 -24 -40 -27 -7 -33 -17 -67 -111 -34 -96 -42 -109
-130 -208 l-93 -106 -9 -89 c-10 -100 -15 -88 64 -144 l38 -27 110 18 c61 10
112 16 115 13 2 -2 -6 -112 -19 -243 l-23 -240 27 -35 c15 -19 30 -40 33 -46
7 -11 -49 -200 -104 -357 -25 -68 -30 -96 -25 -128 11 -67 -11 -161 -105 -450
-71 -221 -99 -294 -139 -362 -27 -47 -50 -95 -50 -107 0 -18 -4 -21 -23 -17
-63 15 -120 18 -169 8 -48 -10 -57 -16 -76 -49 l-21 -38 62 -21 c34 -11 126
-43 204 -71 l142 -50 130 193 131 193 39 323 c49 403 77 878 67 1169 l-6 195
65 170 c36 94 65 170 65 171 0 1 -24 17 -53 37 -48 31 -55 41 -70 91 l-16 57
32 86 c36 95 37 97 195 181 45 24 82 45 82 46 0 2 4 27 10 55 10 52 9 53 -32
114 -22 34 -42 63 -42 64 -5 8 -199 9 -228 1z"/>
<path fill="#ffffff" stroke="none" d="M721 2819 c23 -44 28 -77 13 -90 -12
-10 -17 -8 -29 7 -29 38 -38 73 -25 89 17 20 27 19 41 -6z"/>
</g>
</svg>
