<?xml version="1.0" standalone="no"?>
<!DOCTYPE svg PUBLIC "-//W3C//DTD SVG 20010904//EN"
 "http://www.w3.org/TR/2001/REC-SVG-20010904/DTD/svg10.dtd">
<svg version="1.0" xmlns="http://www.w3.org/2000/svg"
 width="70.000000pt" height="248.000000pt" viewBox="0 0 70.000000 248.000000"
 preserveAspectRatio="xMidYMid meet">
<metadata>
Created by potrace 1.14, written by Peter Selinger 2001-2017
</metadata>
<g transform="translate(0.000000,248.000000) scale(0.100000,-0.100000)"
fill="#000000" stroke="none">
<path fill="#000000" stroke="none" d="M271 2433 c-12 -27 -28 -86 -35 -133
l-13 -85 -91 -90 -92 -90 -18 -370 c-15 -309 -16 -379 -5 -425 56 -240 65
-305 64 -450 -1 -116 4 -182 28 -335 17 -104 33 -215 36 -245 4 -34 17 -75 35
-106 28 -49 30 -51 116 -77 49 -14 91 -23 94 -18 3 5 30 13 60 17 33 6 55 14
54 22 -1 6 -2 46 -2 87 -2 72 -3 75 -33 90 -36 19 -37 2 16 350 38 252 49 484
26 546 -9 22 -11 50 -7 72 6 31 11 37 31 37 l25 0 0 174 c0 169 1 175 23 193
12 10 44 41 70 70 l49 52 -41 20 c-24 13 -59 21 -89 21 -26 0 -55 6 -64 13
-21 16 -81 223 -72 251 3 11 26 56 51 99 l45 77 -4 94 c-3 92 -4 96 -36 129
-30 31 -42 36 -100 42 -37 3 -74 8 -83 11 -11 3 -22 -10 -38 -43z"/>
</g>
</svg>
