<?xml version="1.0" standalone="no"?>
<!DOCTYPE svg PUBLIC "-//W3C//DTD SVG 20010904//EN"
 "http://www.w3.org/TR/2001/REC-SVG-20010904/DTD/svg10.dtd">
<svg version="1.0" xmlns="http://www.w3.org/2000/svg"
 width="21.000000pt" height="39.000000pt" viewBox="0 0 21.000000 39.000000"
 preserveAspectRatio="xMidYMid meet">
<metadata>
Created by potrace 1.14, written by Peter Selinger 2001-2017
</metadata>
<g transform="translate(0.000000,39.000000) scale(0.100000,-0.100000)"
fill="#000000" stroke="none">
<path fill="#000000" stroke="none" d="M142 365 c-7 -15 -20 -25 -32 -25 -25
0 -80 -27 -80 -39 0 -5 -3 -16 -6 -25 -4 -10 -1 -16 9 -16 8 0 18 8 21 17 5
11 10 13 17 6 7 -7 8 -17 1 -29 -16 -31 -24 -92 -12 -99 5 -3 10 -12 10 -18 0
-7 -7 -4 -14 6 -18 23 -35 21 -45 -5 -12 -31 -4 -41 25 -34 29 8 29 6 3 -46
-27 -54 -10 -74 21 -24 12 20 28 36 36 36 8 0 17 13 20 29 4 21 15 33 38 42
17 7 34 18 39 23 4 6 6 47 5 91 -1 45 2 86 6 93 10 16 -11 42 -34 42 -9 0 -22
-11 -28 -25z"/>
</g>
</svg>
