<?xml version="1.0" standalone="no"?>
<!DOCTYPE svg PUBLIC "-//W3C//DTD SVG 20010904//EN"
 "http://www.w3.org/TR/2001/REC-SVG-20010904/DTD/svg10.dtd">
<svg version="1.0" xmlns="http://www.w3.org/2000/svg"
 width="26.000000pt" height="65.000000pt" viewBox="0 0 26.000000 65.000000"
 preserveAspectRatio="xMidYMid meet">
<metadata>
Created by potrace 1.14, written by Peter Selinger 2001-2017
</metadata>
<g transform="translate(0.000000,65.000000) scale(0.100000,-0.100000)"
fill="#000000" stroke="none">
<path fill="#000000" stroke="none" d="M90 603 c-8 -31 -27 -63 -53 -90 l-40
-42 6 -90 c4 -55 19 -132 37 -192 35 -117 35 -119 16 -119 -13 0 -34 -56 -24
-64 1 -2 43 -1 92 2 l88 5 -6 41 c-24 156 -21 175 32 176 17 0 22 4 18 18 -3
9 -8 39 -12 65 -3 27 -21 83 -39 125 -17 42 -35 97 -39 122 -6 40 -38 90 -56
90 -4 0 -13 -21 -20 -47z"/>
</g>
</svg>
