<?xml version="1.0" standalone="no"?>
<!DOCTYPE svg PUBLIC "-//W3C//DTD SVG 20010904//EN"
 "http://www.w3.org/TR/2001/REC-SVG-20010904/DTD/svg10.dtd">
<svg version="1.0" xmlns="http://www.w3.org/2000/svg"
 width="10.000000pt" height="28.000000pt" viewBox="0 0 10.000000 28.000000"
 preserveAspectRatio="xMidYMid meet">
<metadata>
Created by potrace 1.14, written by Peter Selinger 2001-2017
</metadata>
<g transform="translate(0.000000,28.000000) scale(0.100000,-0.100000)"
fill="#000000" stroke="none">
<path fill="#000000" stroke="none" d="M52 268 c-7 -7 -12 -16 -12 -22 0 -5
-10 -20 -21 -32 -22 -23 -22 -24 -4 -96 10 -40 19 -78 21 -85 1 -6 12 -17 23
-22 18 -10 21 -7 30 26 15 52 14 70 -6 99 -14 22 -15 32 -4 74 16 62 3 88 -27
58z"/>
</g>
</svg>
