<?xml version="1.0" standalone="no"?>
<!DOCTYPE svg PUBLIC "-//W3C//DTD SVG 20010904//EN"
 "http://www.w3.org/TR/2001/REC-SVG-20010904/DTD/svg10.dtd">
<svg version="1.0" xmlns="http://www.w3.org/2000/svg"
 width="13.000000pt" height="32.000000pt" viewBox="0 0 13.000000 32.000000"
 preserveAspectRatio="xMidYMid meet">
<metadata>
Created by potrace 1.14, written by Peter Selinger 2001-2017
</metadata>
<g transform="translate(0.000000,32.000000) scale(0.100000,-0.100000)"
fill="#000000" stroke="none">
<path fill="#000000" stroke="none" d="M18 308 c12 -6 22 -19 22 -28 0 -10 7
-34 15 -54 13 -31 14 -47 4 -96 -6 -33 -9 -69 -6 -80 3 -13 0 -23 -9 -27 -23
-9 -16 -23 11 -23 23 0 25 4 25 40 0 28 5 43 16 47 25 9 34 48 28 112 -8 74
-34 107 -89 115 -34 5 -37 4 -17 -6z"/>
</g>
</svg>
