<?xml version="1.0" standalone="no"?>
<!DOCTYPE svg PUBLIC "-//W3C//DTD SVG 20010904//EN"
 "http://www.w3.org/TR/2001/REC-SVG-20010904/DTD/svg10.dtd">
<svg version="1.0" xmlns="http://www.w3.org/2000/svg"
 width="40.000000pt" height="68.000000pt" viewBox="0 0 40.000000 68.000000"
 preserveAspectRatio="xMidYMid meet">
<metadata>
Created by potrace 1.14, written by Peter Selinger 2001-2017
</metadata>
<g transform="translate(0.000000,68.000000) scale(0.100000,-0.100000)"
fill="#000000" stroke="none">
<path fill="#000000" stroke="none" d="M198 668 c-42 -9 -48 -14 -63 -51 -9
-23 -20 -64 -25 -91 -7 -45 -5 -52 16 -68 l23 -19 -35 -32 c-30 -29 -35 -40
-45 -111 -9 -70 -7 -149 7 -198 4 -12 -7 -23 -36 -38 -34 -17 -39 -23 -30 -39
9 -18 12 -18 91 4 44 13 90 32 102 43 27 25 156 92 178 92 13 0 15 11 11 63
-2 34 -10 80 -19 102 -8 22 -15 65 -14 96 2 63 -23 180 -45 214 -11 18 -59 49
-67 44 -1 -1 -23 -6 -49 -11z"/>
</g>
</svg>
