<?xml version="1.0" standalone="no"?>
<!DOCTYPE svg PUBLIC "-//W3C//DTD SVG 20010904//EN"
 "http://www.w3.org/TR/2001/REC-SVG-20010904/DTD/svg10.dtd">
<svg version="1.0" xmlns="http://www.w3.org/2000/svg"
 width="12.000000pt" height="25.000000pt" viewBox="0 0 12.000000 25.000000"
 preserveAspectRatio="xMidYMid meet">
<metadata>
Created by potrace 1.14, written by Peter Selinger 2001-2017
</metadata>
<g transform="translate(0.000000,25.000000) scale(0.100000,-0.100000)"
fill="#000000" stroke="none">
<path fill="#000000" stroke="none" d="M37 244 c-3 -3 -3 -13 0 -21 4 -9 -1
-21 -11 -29 -19 -13 -19 -17 -10 -126 6 -72 18 -86 35 -41 l10 28 17 -28 c22
-36 45 -36 38 0 -9 43 -10 96 -3 119 5 14 1 29 -13 47 -11 14 -20 32 -20 41 0
15 -30 22 -43 10z"/>
<path fill="#ffffff" stroke="none" d="M68 135 c-9 -20 -13 -22 -24 -10 -27
27 -6 66 23 43 9 -7 9 -16 1 -33z"/>
</g>
</svg>
