<?xml version="1.0" standalone="no"?>
<!DOCTYPE svg PUBLIC "-//W3C//DTD SVG 20010904//EN"
 "http://www.w3.org/TR/2001/REC-SVG-20010904/DTD/svg10.dtd">
<svg version="1.0" xmlns="http://www.w3.org/2000/svg"
 width="40.000000pt" height="34.000000pt" viewBox="0 0 40.000000 34.000000"
 preserveAspectRatio="xMidYMid meet">
<metadata>
Created by potrace 1.14, written by Peter Selinger 2001-2017
</metadata>
<g transform="translate(0.000000,34.000000) scale(0.100000,-0.100000)"
fill="#000000" stroke="none">
<path fill="#000000" stroke="none" d="M26 325 c-41 -41 -31 -114 19 -145 19
-12 45 -34 58 -49 13 -16 33 -34 45 -40 17 -9 22 -21 22 -52 0 -33 3 -40 17
-37 13 2 19 14 21 41 l3 37 91 0 91 0 -42 45 c-22 24 -41 47 -41 50 0 4 21 3
48 -1 37 -5 45 -4 35 6 -13 15 -137 50 -174 50 -21 0 -30 8 -44 41 -28 61
-111 92 -149 54z"/>
</g>
</svg>
