<?xml version="1.0" standalone="no"?>
<!DOCTYPE svg PUBLIC "-//W3C//DTD SVG 20010904//EN"
 "http://www.w3.org/TR/2001/REC-SVG-20010904/DTD/svg10.dtd">
<svg version="1.0" xmlns="http://www.w3.org/2000/svg"
 width="15.000000pt" height="100.000000pt" viewBox="0 0 15.000000 100.000000"
 preserveAspectRatio="xMidYMid meet">
<metadata>
Created by potrace 1.14, written by Peter Selinger 2001-2017
</metadata>
<g transform="translate(0.000000,100.000000) scale(0.100000,-0.100000)"
fill="#000000" stroke="none">
<path fill="#000000" stroke="none" d="M6 984 c-3 -9 -6 -102 -6 -207 l0 -192
49 -18 c27 -9 51 -17 54 -17 3 0 1 17 -4 38 -5 20 -9 79 -9 130 0 71 -4 101
-17 123 -18 30 -18 30 15 55 17 14 32 32 32 40 0 8 7 26 16 39 l16 25 -70 0
c-54 0 -71 -3 -76 -16z"/>
<path fill="#000000" stroke="none" d="M0 201 l0 -160 26 -20 c30 -24 54 -27
72 -9 14 14 -2 38 -24 38 -19 0 -18 63 1 126 16 52 19 122 7 140 -7 11 -65 44
-77 44 -3 0 -5 -72 -5 -159z"/>
</g>
</svg>
