<?xml version="1.0" standalone="no"?>
<!DOCTYPE svg PUBLIC "-//W3C//DTD SVG 20010904//EN"
 "http://www.w3.org/TR/2001/REC-SVG-20010904/DTD/svg10.dtd">
<svg version="1.0" xmlns="http://www.w3.org/2000/svg"
 width="18.000000pt" height="38.000000pt" viewBox="0 0 18.000000 38.000000"
 preserveAspectRatio="xMidYMid meet">
<metadata>
Created by potrace 1.14, written by Peter Selinger 2001-2017
</metadata>
<g transform="translate(0.000000,38.000000) scale(0.100000,-0.100000)"
fill="#000000" stroke="none">
<path fill="#000000" stroke="none" d="M91 359 c-4 -12 -22 -27 -41 -33 -50
-17 -56 -46 -18 -93 l30 -38 -7 51 c-5 39 -3 53 8 63 23 19 27 3 32 -135 5
-130 15 -182 15 -83 1 53 1 54 16 27 8 -15 13 -46 12 -69 -3 -42 7 -55 29 -41
9 6 10 17 2 45 -9 33 -14 157 -10 267 1 53 -51 83 -68 39z"/>
</g>
</svg>
