<?xml version="1.0" standalone="no"?>
<!DOCTYPE svg PUBLIC "-//W3C//DTD SVG 20010904//EN"
 "http://www.w3.org/TR/2001/REC-SVG-20010904/DTD/svg10.dtd">
<svg version="1.0" xmlns="http://www.w3.org/2000/svg"
 width="30.000000pt" height="37.000000pt" viewBox="0 0 30.000000 37.000000"
 preserveAspectRatio="xMidYMid meet">
<metadata>
Created by potrace 1.14, written by Peter Selinger 2001-2017
</metadata>
<g transform="translate(0.000000,37.000000) scale(0.100000,-0.100000)"
fill="#000000" stroke="none">
<path fill="#000000" stroke="none" d="M32 358 c-32 -39 -33 -247 -1 -313 l14
-30 124 -8 c68 -4 125 -6 127 -4 9 9 -23 86 -47 112 -15 17 -30 40 -33 52 -4
12 -17 31 -30 40 -32 25 -46 55 -46 97 0 57 -8 66 -55 66 -23 0 -47 -6 -53
-12z"/>
</g>
</svg>
