<?xml version="1.0" standalone="no"?>
<!DOCTYPE svg PUBLIC "-//W3C//DTD SVG 20010904//EN"
 "http://www.w3.org/TR/2001/REC-SVG-20010904/DTD/svg10.dtd">
<svg version="1.0" xmlns="http://www.w3.org/2000/svg"
 width="14.000000pt" height="28.000000pt" viewBox="0 0 14.000000 28.000000"
 preserveAspectRatio="xMidYMid meet">
<metadata>
Created by potrace 1.14, written by Peter Selinger 2001-2017
</metadata>
<g transform="translate(0.000000,28.000000) scale(0.100000,-0.100000)"
fill="#000000" stroke="none">
<path fill="#000000" stroke="none" d="M22 243 c-16 -57 -27 -243 -14 -243 6
0 12 17 14 37 4 54 31 56 52 3 24 -61 34 -48 20 28 -7 37 -13 77 -14 90 0 20
2 21 21 11 34 -18 48 5 18 30 -13 11 -27 20 -31 21 -4 0 -8 12 -10 28 -2 18
-9 28 -24 30 -16 2 -23 -5 -32 -35z"/>
</g>
</svg>
