<?xml version="1.0" standalone="no"?>
<!DOCTYPE svg PUBLIC "-//W3C//DTD SVG 20010904//EN"
 "http://www.w3.org/TR/2001/REC-SVG-20010904/DTD/svg10.dtd">
<svg version="1.0" xmlns="http://www.w3.org/2000/svg"
 width="141.000000pt" height="191.000000pt" viewBox="0 0 141.000000 191.000000"
 preserveAspectRatio="xMidYMid meet">
<metadata>
Created by potrace 1.14, written by Peter Selinger 2001-2017
</metadata>
<g transform="translate(0.000000,191.000000) scale(0.100000,-0.100000)"
fill="#000000" stroke="none">
<path fill="#000000" stroke="none" d="M670 1902 l-245 -3 -18 -25 c-13 -17
-22 -55 -28 -126 -9 -98 -9 -105 27 -249 20 -82 34 -155 31 -163 -3 -7 -32
-19 -65 -26 -96 -20 -130 -63 -240 -307 -51 -111 -92 -204 -92 -207 0 -3 34
-31 75 -61 41 -31 75 -58 75 -61 0 -3 -37 -90 -81 -192 -45 -103 -87 -201 -95
-218 -12 -28 -11 -34 9 -62 12 -17 39 -38 60 -46 l38 -15 84 167 c46 92 84
160 84 152 1 -8 -10 -84 -23 -168 l-23 -152 99 0 98 0 0 34 c0 39 11 50 40 41
15 -5 20 -15 20 -41 0 -29 3 -34 24 -34 31 0 36 15 36 112 0 77 1 79 23 76 21
-3 22 -6 19 -94 l-2 -92 202 -7 203 -8 30 -31 c17 -17 41 -46 55 -65 l26 -33
108 253 108 253 -6 66 c-4 36 -10 84 -13 106 -5 41 -5 42 45 76 l50 34 -174
244 -175 245 -92 52 c-76 42 -93 56 -95 78 -2 16 3 31 12 38 9 7 36 50 60 96
39 71 44 86 34 105 -7 11 -11 46 -10 76 2 30 -1 76 -6 103 -8 37 -7 47 4 47 8
0 14 9 14 20 0 16 -6 20 -32 18 -18 -2 -143 -4 -278 -6z"/>
<path fill="#ffffff" stroke="none" d="M1099 681 c44 -55 42 -124 -8 -301
l-38 -135 -6 60 c-3 33 -11 122 -18 198 -10 126 -10 142 6 178 10 21 21 39 26
39 4 0 21 -18 38 -39z"/>
</g>
</svg>
