<?xml version="1.0" standalone="no"?>
<!DOCTYPE svg PUBLIC "-//W3C//DTD SVG 20010904//EN"
 "http://www.w3.org/TR/2001/REC-SVG-20010904/DTD/svg10.dtd">
<svg version="1.0" xmlns="http://www.w3.org/2000/svg"
 width="12.000000pt" height="21.000000pt" viewBox="0 0 12.000000 21.000000"
 preserveAspectRatio="xMidYMid meet">
<metadata>
Created by potrace 1.14, written by Peter Selinger 2001-2017
</metadata>
<g transform="translate(0.000000,21.000000) scale(0.100000,-0.100000)"
fill="#000000" stroke="none">
<path fill="#000000" stroke="none" d="M20 180 c0 -22 5 -30 17 -30 13 0 14
-3 5 -12 -7 -7 -12 -27 -12 -46 0 -21 -7 -40 -18 -48 -16 -13 -16 -13 1 -14 9
0 17 -7 17 -16 0 -12 9 -14 37 -12 35 3 38 5 44 43 8 47 -6 92 -33 106 -15 8
-18 17 -14 35 6 21 3 24 -19 24 -21 0 -25 -5 -25 -30z"/>
</g>
</svg>
