<?xml version="1.0" standalone="no"?>
<!DOCTYPE svg PUBLIC "-//W3C//DTD SVG 20010904//EN"
 "http://www.w3.org/TR/2001/REC-SVG-20010904/DTD/svg10.dtd">
<svg version="1.0" xmlns="http://www.w3.org/2000/svg"
 width="13.000000pt" height="30.000000pt" viewBox="0 0 13.000000 30.000000"
 preserveAspectRatio="xMidYMid meet">
<metadata>
Created by potrace 1.14, written by Peter Selinger 2001-2017
</metadata>
<g transform="translate(0.000000,30.000000) scale(0.100000,-0.100000)"
fill="#000000" stroke="none">
<path fill="#000000" stroke="none" d="M54 286 c-3 -8 -5 -20 -3 -27 3 -29 -2
-38 -23 -41 -19 -2 -24 -10 -26 -43 -2 -26 1 -43 11 -50 12 -8 13 -21 8 -52
-7 -38 -6 -42 21 -58 17 -10 39 -14 52 -11 21 5 23 12 30 107 5 84 4 105 -9
119 -8 9 -15 29 -15 43 0 20 -5 27 -20 27 -11 0 -23 -6 -26 -14z"/>
</g>
</svg>
