<?xml version="1.0" standalone="no"?>
<!DOCTYPE svg PUBLIC "-//W3C//DTD SVG 20010904//EN"
 "http://www.w3.org/TR/2001/REC-SVG-20010904/DTD/svg10.dtd">
<svg version="1.0" xmlns="http://www.w3.org/2000/svg"
 width="119.000000pt" height="126.000000pt" viewBox="0 0 119.000000 126.000000"
 preserveAspectRatio="xMidYMid meet">
<metadata>
Created by potrace 1.14, written by Peter Selinger 2001-2017
</metadata>
<g transform="translate(0.000000,126.000000) scale(0.100000,-0.100000)"
fill="#000000" stroke="none">
<path fill="#000000" stroke="none" d="M16 1147 c-3 -61 -7 -344 -9 -627 l-2
-515 240 3 c132 2 242 5 244 8 2 2 25 155 50 341 26 185 50 333 53 328 3 -6
43 -141 88 -302 l82 -292 49 -10 c228 -49 360 -73 366 -67 5 4 9 72 11 151 l3
143 -573 469 c-316 258 -579 473 -585 476 -8 5 -13 -28 -17 -106z"/>
</g>
</svg>
