<?xml version="1.0" standalone="no"?>
<!DOCTYPE svg PUBLIC "-//W3C//DTD SVG 20010904//EN"
 "http://www.w3.org/TR/2001/REC-SVG-20010904/DTD/svg10.dtd">
<svg version="1.0" xmlns="http://www.w3.org/2000/svg"
 width="281.000000pt" height="108.000000pt" viewBox="0 0 281.000000 108.000000"
 preserveAspectRatio="xMidYMid meet">
<metadata>
Created by potrace 1.14, written by Peter Selinger 2001-2017
</metadata>
<g transform="translate(0.000000,108.000000) scale(0.100000,-0.100000)"
fill="#000000" stroke="none">
<path fill="#000000" stroke="none" d="M1496 1068 c-103 -7 -160 -18 -280 -51
l-151 -43 -125 17 c-181 25 -310 24 -471 -5 -113 -21 -151 -32 -240 -75 l-106
-51 -62 -164 -62 -165 6 -88 c3 -48 8 -112 11 -140 l5 -53 42 1 c88 1 186 25
244 61 67 41 83 47 253 88 110 27 142 30 260 30 85 -1 165 5 215 14 108 21
157 20 186 -3 13 -11 22 -21 19 -23 -3 -2 -45 -22 -95 -43 -49 -21 -94 -45
-98 -53 -5 -7 -31 -42 -58 -78 -27 -36 -49 -73 -49 -83 0 -30 65 -84 102 -85
18 0 111 17 207 37 164 35 179 37 250 27 42 -6 211 -26 375 -45 165 -19 387
-49 495 -67 l196 -31 98 17 97 18 25 82 c25 82 25 83 9 157 -9 41 -27 95 -40
121 -17 33 -24 64 -24 104 0 48 -9 76 -51 168 l-50 111 -130 100 -130 100
-147 37 c-114 29 -188 41 -327 53 -195 16 -208 16 -399 3z"/>
</g>
</svg>
