<?xml version="1.0" standalone="no"?>
<!DOCTYPE svg PUBLIC "-//W3C//DTD SVG 20010904//EN"
 "http://www.w3.org/TR/2001/REC-SVG-20010904/DTD/svg10.dtd">
<svg version="1.0" xmlns="http://www.w3.org/2000/svg"
 width="70.000000pt" height="67.000000pt" viewBox="0 0 70.000000 67.000000"
 preserveAspectRatio="xMidYMid meet">
<metadata>
Created by potrace 1.14, written by Peter Selinger 2001-2017
</metadata>
<g transform="translate(0.000000,67.000000) scale(0.100000,-0.100000)"
fill="#000000" stroke="none">
<path fill="#000000" stroke="none" d="M0 659 c0 -14 61 -434 63 -435 1 0 51
-11 111 -22 60 -12 110 -23 111 -24 1 -2 33 -41 71 -88 l69 -85 133 16 c73 9
134 18 136 20 2 2 -11 69 -29 149 -37 163 -15 131 -193 282 -81 69 -85 71
-215 109 -73 21 -159 50 -190 64 -66 29 -67 29 -67 14z"/>
</g>
</svg>
