<?xml version="1.0" standalone="no"?>
<!DOCTYPE svg PUBLIC "-//W3C//DTD SVG 20010904//EN"
 "http://www.w3.org/TR/2001/REC-SVG-20010904/DTD/svg10.dtd">
<svg version="1.0" xmlns="http://www.w3.org/2000/svg"
 width="41.000000pt" height="162.000000pt" viewBox="0 0 41.000000 162.000000"
 preserveAspectRatio="xMidYMid meet">
<metadata>
Created by potrace 1.14, written by Peter Selinger 2001-2017
</metadata>
<g transform="translate(0.000000,162.000000) scale(0.100000,-0.100000)"
fill="#000000" stroke="none">
<path fill="#000000" stroke="none" d="M290 1563 c-18 -32 -39 -68 -46 -80 -7
-12 -38 -41 -69 -65 -53 -41 -57 -48 -106 -173 -28 -71 -53 -145 -55 -164 -3
-19 -7 -38 -10 -43 -4 -5 8 -24 24 -41 31 -32 31 -33 42 -192 5 -88 15 -198
20 -245 14 -121 12 -191 -6 -241 -9 -24 -22 -93 -30 -154 l-14 -109 27 -28
c19 -20 29 -25 34 -16 4 7 28 97 54 201 l47 187 -22 113 c-12 61 -25 119 -29
127 -5 8 -5 24 0 35 4 11 8 54 8 95 1 41 8 128 16 192 14 114 16 121 89 266
51 102 84 157 104 171 28 19 30 26 37 112 7 101 4 109 -50 109 -27 0 -35 -7
-65 -57z"/>
</g>
</svg>
