<?xml version="1.0" standalone="no"?>
<!DOCTYPE svg PUBLIC "-//W3C//DTD SVG 20010904//EN"
 "http://www.w3.org/TR/2001/REC-SVG-20010904/DTD/svg10.dtd">
<svg version="1.0" xmlns="http://www.w3.org/2000/svg"
 width="24.000000pt" height="91.000000pt" viewBox="0 0 24.000000 91.000000"
 preserveAspectRatio="xMidYMid meet">
<metadata>
Created by potrace 1.14, written by Peter Selinger 2001-2017
</metadata>
<g transform="translate(0.000000,91.000000) scale(0.100000,-0.100000)"
fill="#000000" stroke="none">
<path fill="#000000" stroke="none" d="M71 873 c-5 -21 -14 -56 -20 -78 -5
-22 -19 -94 -30 -160 -18 -103 -19 -135 -11 -225 9 -98 55 -399 62 -405 3 -4
161 26 167 31 2 2 -2 10 -8 18 -9 10 -10 56 -6 168 3 84 7 243 8 353 l2 200
-32 68 -32 67 -45 0 c-44 0 -46 -1 -55 -37z"/>
</g>
</svg>
