<?xml version="1.0" standalone="no"?>
<!DOCTYPE svg PUBLIC "-//W3C//DTD SVG 20010904//EN"
 "http://www.w3.org/TR/2001/REC-SVG-20010904/DTD/svg10.dtd">
<svg version="1.0" xmlns="http://www.w3.org/2000/svg"
 width="19.000000pt" height="41.000000pt" viewBox="0 0 19.000000 41.000000"
 preserveAspectRatio="xMidYMid meet">
<metadata>
Created by potrace 1.14, written by Peter Selinger 2001-2017
</metadata>
<g transform="translate(0.000000,41.000000) scale(0.100000,-0.100000)"
fill="#000000" stroke="none">
<path fill="#000000" stroke="none" d="M36 398 c-9 -30 -29 -176 -28 -207 1
-19 8 -41 16 -50 24 -27 46 -92 40 -117 -7 -28 7 -32 27 -7 9 10 13 36 11 72
l-3 56 24 -67 c27 -79 32 -85 51 -69 12 10 12 18 0 58 -8 26 -17 79 -20 117
-7 86 -67 226 -97 226 -10 0 -19 -6 -21 -12z"/>
</g>
</svg>
