<?xml version="1.0" standalone="no"?>
<!DOCTYPE svg PUBLIC "-//W3C//DTD SVG 20010904//EN"
 "http://www.w3.org/TR/2001/REC-SVG-20010904/DTD/svg10.dtd">
<svg version="1.0" xmlns="http://www.w3.org/2000/svg"
 width="52.000000pt" height="194.000000pt" viewBox="0 0 52.000000 194.000000"
 preserveAspectRatio="xMidYMid meet">
<metadata>
Created by potrace 1.14, written by Peter Selinger 2001-2017
</metadata>
<g transform="translate(0.000000,194.000000) scale(0.100000,-0.100000)"
fill="#000000" stroke="none">
<path fill="#000000" stroke="none" d="M69 1920 c-50 -26 -60 -41 -66 -105
l-6 -56 37 6 c79 15 126 -35 126 -136 0 -55 -3 -63 -32 -90 -18 -16 -35 -29
-39 -29 -4 0 -12 -13 -19 -30 -11 -27 -8 -37 33 -122 l46 -93 2 -123 c2 -128
-5 -157 -34 -133 -19 15 -24 -19 -36 -219 -5 -80 -12 -193 -16 -251 l-8 -106
84 18 c46 10 110 19 141 19 32 0 72 7 90 16 64 31 104 135 77 199 -9 20 -13
81 -14 180 l0 150 -58 125 c-32 71 -54 131 -51 140 10 23 4 78 -17 155 -10 38
-19 88 -19 110 0 23 -12 65 -29 100 -21 43 -27 64 -20 76 15 29 11 142 -7 167
-36 51 -103 65 -165 32z"/>
<path fill="#ffffff" stroke="none" d="M393 946 c3 -8 3 -17 0 -20 -9 -9 -34
15 -27 25 8 13 21 11 27 -5z"/>
<path fill="#000000" stroke="none" d="M351 353 c-18 -25 -53 -88 -78 -140
-41 -86 -49 -96 -89 -116 -53 -25 -52 -43 2 -40 26 2 44 -3 58 -16 23 -20 139
-41 227 -41 l50 0 -3 33 -3 32 -110 6 c-135 8 -125 6 -125 24 0 19 24 31 79
39 57 9 65 14 49 33 -23 27 -35 86 -26 121 5 18 8 50 6 71 l-3 38 -34 -44z"/>
</g>
</svg>
