<?xml version="1.0" standalone="no"?>
<!DOCTYPE svg PUBLIC "-//W3C//DTD SVG 20010904//EN"
 "http://www.w3.org/TR/2001/REC-SVG-20010904/DTD/svg10.dtd">
<svg version="1.0" xmlns="http://www.w3.org/2000/svg"
 width="38.000000pt" height="100.000000pt" viewBox="0 0 38.000000 100.000000"
 preserveAspectRatio="xMidYMid meet">
<metadata>
Created by potrace 1.14, written by Peter Selinger 2001-2017
</metadata>
<g transform="translate(0.000000,100.000000) scale(0.100000,-0.100000)"
fill="#000000" stroke="none">
<path fill="#000000" stroke="none" d="M159 984 c-7 -9 -12 -34 -10 -60 2 -40
-3 -51 -67 -136 -38 -51 -72 -99 -76 -105 -4 -7 11 -52 33 -100 22 -50 42
-111 45 -140 3 -31 16 -72 31 -98 36 -61 54 -132 61 -247 l7 -97 66 6 c71 6
162 42 109 43 -35 0 -37 12 -16 88 24 90 32 216 20 352 -6 63 -7 121 -3 128 5
8 -1 51 -12 96 -15 60 -27 88 -48 108 -26 24 -29 34 -29 87 0 57 -2 61 -30 76
-37 19 -64 19 -81 -1z"/>
</g>
</svg>
