<?xml version="1.0" standalone="no"?>
<!DOCTYPE svg PUBLIC "-//W3C//DTD SVG 20010904//EN"
 "http://www.w3.org/TR/2001/REC-SVG-20010904/DTD/svg10.dtd">
<svg version="1.0" xmlns="http://www.w3.org/2000/svg"
 width="334.000000pt" height="319.000000pt" viewBox="0 0 334.000000 319.000000"
 preserveAspectRatio="xMidYMid meet">
<metadata>
Created by potrace 1.14, written by Peter Selinger 2001-2017
</metadata>
<g transform="translate(0.000000,319.000000) scale(0.100000,-0.100000)"
fill="#000000" stroke="none">
<path fill="#000000" stroke="none" d="M394 3179 c-3 -6 0 -15 7 -21 11 -7 10
-12 -8 -24 -11 -8 -58 -57 -102 -109 -112 -128 -136 -205 -65 -205 36 0 74
-18 74 -35 0 -8 4 -15 10 -15 32 0 204 81 256 120 l62 46 -34 65 c-18 35 -36
81 -39 101 -5 30 -13 41 -50 62 -45 27 -99 34 -111 15z"/>
<path fill="#000000" stroke="none" d="M1477 2980 c-103 -38 -184 -117 -247
-241 l-44 -87 27 -89 c15 -50 27 -104 27 -121 0 -31 -2 -32 -40 -32 -34 0 -42
-4 -50 -25 -7 -17 -5 -32 5 -52 8 -15 15 -41 15 -58 0 -16 14 -68 31 -115 40
-113 42 -125 15 -128 -73 -6 -745 -185 -788 -210 -31 -18 -30 -14 -59 -207
l-22 -150 -112 -240 c-67 -143 -137 -314 -175 -425 -61 -178 -63 -187 -56
-250 7 -62 10 -67 52 -100 36 -28 44 -41 44 -67 l0 -33 90 0 90 0 0 -30 c0
-37 13 -43 134 -60 57 -8 183 -43 354 -99 174 -57 276 -85 295 -83 l30 5 -6
93 c-3 56 -1 105 5 122 11 29 47 52 83 52 20 0 24 19 85 441 l64 441 77 66 77
65 23 89 c12 48 25 92 29 97 6 11 131 34 139 26 9 -10 -21 -452 -57 -830 l-37
-391 23 -34 c39 -58 50 -67 171 -137 64 -37 157 -93 208 -125 l92 -58 334 0
334 0 57 74 c31 41 64 80 74 88 9 7 -1 -8 -22 -34 -31 -38 -76 -113 -76 -125
0 -2 128 -3 285 -3 l285 0 0 1340 c0 1296 -1 1340 -18 1340 -36 0 -65 -52 -43
-75 12 -12 -78 -235 -94 -235 -18 0 -44 -189 -49 -365 -6 -179 -50 -668 -64
-705 -5 -14 -19 -80 -32 -147 l-22 -121 -34 -7 c-27 -5 -34 -11 -34 -29 0 -13
-9 -43 -19 -67 l-20 -43 -14 35 c-8 19 -20 46 -26 62 -10 25 -15 27 -64 27
-53 0 -54 1 -65 36 -7 23 -9 98 -5 217 6 179 5 184 -23 276 -20 68 -33 95 -48
102 -12 5 -64 27 -116 49 -52 23 -104 43 -115 44 -35 6 -349 147 -361 162 -6
8 -16 14 -22 14 -7 0 -3 19 9 48 37 83 87 347 91 468 3 128 -16 254 -39 254
-8 0 -71 46 -139 103 -118 97 -132 105 -273 163 l-147 61 -77 -27z"/>
<path fill="#ffffff" stroke="none" d="M2817 828 c-3 -7 -5 -2 -5 12 0 14 2
19 5 13 2 -7 2 -19 0 -25z"/>
<path fill="#ffffff" stroke="none" d="M2827 738 c-3 -8 -6 -5 -6 6 -1 11 2
17 5 13 3 -3 4 -12 1 -19z"/>
<path fill="#ffffff" stroke="none" d="M2837 638 c-3 -7 -5 -2 -5 12 0 14 2
19 5 13 2 -7 2 -19 0 -25z"/>
<path fill="#ffffff" stroke="none" d="M2847 548 c-3 -7 -5 -2 -5 12 0 14 2
19 5 13 2 -7 2 -19 0 -25z"/>
<path fill="#ffffff" stroke="none" d="M2910 206 c0 -2 -8 -10 -17 -17 -16
-13 -17 -12 -4 4 13 16 21 21 21 13z"/>
</g>
</svg>
