<?xml version="1.0" standalone="no"?>
<!DOCTYPE svg PUBLIC "-//W3C//DTD SVG 20010904//EN"
 "http://www.w3.org/TR/2001/REC-SVG-20010904/DTD/svg10.dtd">
<svg version="1.0" xmlns="http://www.w3.org/2000/svg"
 width="27.000000pt" height="97.000000pt" viewBox="0 0 27.000000 97.000000"
 preserveAspectRatio="xMidYMid meet">
<metadata>
Created by potrace 1.14, written by Peter Selinger 2001-2017
</metadata>
<g transform="translate(0.000000,97.000000) scale(0.100000,-0.100000)"
fill="#000000" stroke="none">
<path fill="#000000" stroke="none" d="M6 954 c-3 -9 -6 -224 -6 -479 l0 -462
31 -7 c54 -11 142 -5 191 12 l48 17 -50 64 c-49 63 -50 66 -49 130 1 118 13
181 37 200 11 9 30 36 40 61 l19 45 -32 50 c-54 84 -83 148 -90 200 -4 28 -14
73 -23 102 -14 48 -19 53 -60 68 -55 18 -49 18 -56 -1z"/>
</g>
</svg>
