<?xml version="1.0" standalone="no"?>
<!DOCTYPE svg PUBLIC "-//W3C//DTD SVG 20010904//EN"
 "http://www.w3.org/TR/2001/REC-SVG-20010904/DTD/svg10.dtd">
<svg version="1.0" xmlns="http://www.w3.org/2000/svg"
 width="23.000000pt" height="57.000000pt" viewBox="0 0 23.000000 57.000000"
 preserveAspectRatio="xMidYMid meet">
<metadata>
Created by potrace 1.14, written by Peter Selinger 2001-2017
</metadata>
<g transform="translate(0.000000,57.000000) scale(0.100000,-0.100000)"
fill="#000000" stroke="none">
<path fill="#000000" stroke="none" d="M64 555 c-4 -8 -4 -27 -1 -41 3 -17 -2
-29 -16 -39 -36 -25 -45 -52 -35 -108 5 -29 9 -122 8 -207 l0 -155 46 -2 c43
-1 45 0 40 22 -4 16 3 33 24 60 17 21 33 56 36 77 4 22 20 58 35 81 16 23 29
47 29 53 0 7 -16 24 -35 38 -28 22 -35 34 -35 62 0 19 -5 45 -12 57 -7 12 -13
42 -13 67 0 43 -1 45 -33 48 -22 2 -34 -2 -38 -13z"/>
</g>
</svg>
