<?xml version="1.0" standalone="no"?>
<!DOCTYPE svg PUBLIC "-//W3C//DTD SVG 20010904//EN"
 "http://www.w3.org/TR/2001/REC-SVG-20010904/DTD/svg10.dtd">
<svg version="1.0" xmlns="http://www.w3.org/2000/svg"
 width="28.000000pt" height="63.000000pt" viewBox="0 0 28.000000 63.000000"
 preserveAspectRatio="xMidYMid meet">
<metadata>
Created by potrace 1.14, written by Peter Selinger 2001-2017
</metadata>
<g transform="translate(0.000000,63.000000) scale(0.100000,-0.100000)"
fill="#000000" stroke="none">
<path fill="#000000" stroke="none" d="M130 614 c-8 -8 -14 -33 -14 -55 -1
-22 -7 -43 -14 -48 -7 -4 -33 -56 -58 -116 -48 -115 -48 -124 3 -139 18 -6 22
-2 28 24 4 16 10 30 15 30 20 0 32 -199 17 -272 -7 -36 -6 -38 16 -38 38 0 50
23 45 83 -7 71 6 109 15 43 4 -27 7 -66 7 -87 0 -42 13 -49 44 -26 16 11 19
33 23 148 2 74 9 145 14 160 8 20 2 44 -29 125 -22 54 -43 112 -48 128 -5 16
-18 35 -30 43 -18 12 -23 11 -34 -3z"/>
</g>
</svg>
