<?xml version="1.0" standalone="no"?>
<!DOCTYPE svg PUBLIC "-//W3C//DTD SVG 20010904//EN"
 "http://www.w3.org/TR/2001/REC-SVG-20010904/DTD/svg10.dtd">
<svg version="1.0" xmlns="http://www.w3.org/2000/svg"
 width="176.000000pt" height="398.000000pt" viewBox="0 0 176.000000 398.000000"
 preserveAspectRatio="xMidYMid meet">
<metadata>
Created by potrace 1.14, written by Peter Selinger 2001-2017
</metadata>
<g transform="translate(0.000000,398.000000) scale(0.100000,-0.100000)"
fill="#000000" stroke="none">
<path fill="#000000" stroke="none" d="M843 3971 c-47 -12 -136 -68 -209 -131
l-63 -55 4 -55 c5 -55 6 -79 5 -179 0 -49 3 -59 33 -90 42 -45 47 -58 57 -151
7 -68 6 -77 -15 -108 -49 -73 -215 -151 -353 -167 -75 -8 -93 -24 -130 -110
-14 -33 -49 -105 -78 -161 -50 -97 -52 -106 -63 -220 -7 -65 -15 -137 -20
-160 -5 -28 -1 -71 13 -145 l21 -104 49 -9 c32 -6 71 -5 111 3 34 6 75 11 90
11 l28 0 -6 -142 c-5 -135 -9 -153 -57 -313 -38 -125 -110 -415 -110 -441 0
-1 16 -22 37 -46 38 -46 83 -136 83 -168 0 -10 36 -109 79 -220 44 -110 82
-224 86 -253 7 -53 42 -175 121 -419 l45 -138 183 0 182 0 -21 170 -21 171 55
-3 55 -3 23 -135 c12 -74 25 -150 28 -167 l6 -33 209 0 c116 0 210 1 211 3 10
38 23 289 17 341 -32 295 -46 495 -38 541 5 28 12 64 15 82 5 29 10 33 62 43
68 15 103 29 103 44 0 6 15 48 34 93 l33 82 -47 128 c-26 70 -63 167 -83 216
l-36 87 29 15 c41 21 82 102 125 244 43 144 45 112 -26 435 -60 272 -148 531
-201 596 -29 35 -45 44 -133 72 -55 17 -143 52 -196 79 -76 38 -101 56 -122
88 -26 39 -27 45 -18 102 7 43 18 70 39 93 58 66 102 151 102 196 0 24 7 67
17 96 19 61 10 109 -37 191 -28 48 -30 50 -117 76 -105 33 -147 39 -190 28z"/>
<path fill="#ffffff" stroke="none" d="M1318 1423 c-2 -12 10 -22 45 -35 26
-10 47 -13 47 -8 0 6 5 10 11 10 15 0 1 -446 -15 -480 -14 -30 -48 -39 -104
-26 -49 11 -66 34 -57 77 15 69 25 398 12 441 -6 23 -4 27 15 31 43 8 49 7 46
-10z"/>
</g>
</svg>
