<?xml version="1.0" standalone="no"?>
<!DOCTYPE svg PUBLIC "-//W3C//DTD SVG 20010904//EN"
 "http://www.w3.org/TR/2001/REC-SVG-20010904/DTD/svg10.dtd">
<svg version="1.0" xmlns="http://www.w3.org/2000/svg"
 width="109.000000pt" height="236.000000pt" viewBox="0 0 109.000000 236.000000"
 preserveAspectRatio="xMidYMid meet">
<metadata>
Created by potrace 1.14, written by Peter Selinger 2001-2017
</metadata>
<g transform="translate(0.000000,236.000000) scale(0.100000,-0.100000)"
fill="#000000" stroke="none">
<path fill="#000000" stroke="none" d="M412 2318 c-39 -40 -43 -50 -43 -94 0
-27 0 -66 -1 -87 0 -27 7 -46 24 -64 14 -15 27 -47 34 -84 l11 -59 -39 -25
c-22 -14 -73 -42 -115 -61 -111 -50 -153 -89 -182 -165 -13 -35 -41 -106 -63
-158 -46 -110 -43 -133 19 -150 l38 -10 3 -68 c5 -88 26 -128 94 -174 5 -3 15
-30 23 -60 14 -52 13 -57 -17 -151 -29 -93 -30 -99 -14 -117 15 -17 44 -182
71 -403 6 -56 7 -58 36 -58 17 0 59 7 95 16 62 16 71 16 146 0 52 -11 97 -29
128 -49 47 -31 49 -35 87 -147 l38 -115 49 -18 c27 -10 51 -16 53 -13 2 2 -3
29 -12 60 -14 49 -15 95 -6 423 5 202 7 371 4 375 -7 12 -5 283 3 312 3 14 18
29 35 36 16 7 47 32 70 57 39 43 40 46 34 93 -6 41 -4 49 12 54 10 4 28 14 41
24 l23 18 -46 115 c-56 142 -151 272 -207 284 -18 4 -67 18 -109 31 -66 21
-78 28 -83 50 -6 21 -1 33 18 53 33 35 46 73 48 140 1 31 5 67 10 79 7 20 1
33 -33 75 -22 29 -47 56 -55 60 -8 4 -51 10 -96 14 l-83 5 -43 -44z"/>
</g>
</svg>
