<?xml version="1.0" standalone="no"?>
<!DOCTYPE svg PUBLIC "-//W3C//DTD SVG 20010904//EN"
 "http://www.w3.org/TR/2001/REC-SVG-20010904/DTD/svg10.dtd">
<svg version="1.0" xmlns="http://www.w3.org/2000/svg"
 width="295.000000pt" height="456.000000pt" viewBox="0 0 295.000000 456.000000"
 preserveAspectRatio="xMidYMid meet">
<metadata>
Created by potrace 1.14, written by Peter Selinger 2001-2017
</metadata>
<g transform="translate(0.000000,456.000000) scale(0.100000,-0.100000)"
fill="#000000" stroke="none">
<path fill="#000000" stroke="none" d="M877 4549 c-323 -4 -590 -8 -591 -10
-2 -2 -67 -115 -145 -251 l-141 -248 21 -462 c12 -255 23 -465 25 -467 1 -2
59 -15 129 -31 69 -15 128 -29 131 -32 3 -3 -26 -59 -65 -124 -65 -111 -72
-129 -101 -257 -20 -89 -29 -149 -25 -168 5 -24 2 -36 -15 -54 -22 -23 -22
-26 -11 -152 6 -70 13 -140 16 -155 4 -24 1 -28 -19 -28 -56 0 -57 -3 -12
-130 l41 -118 -43 -129 c-32 -99 -42 -144 -42 -195 l0 -67 82 -70 83 -71 92 0
c50 0 98 -3 107 -6 13 -5 16 1 16 25 0 36 -3 35 45 15 53 -22 65 -14 65 45 0
49 1 51 46 77 l46 27 145 -13 146 -13 -6 -56 c-4 -31 -9 -83 -13 -115 l-7 -59
29 6 c160 34 328 66 367 72 l47 6 0 -78 0 -78 -125 -158 c-69 -86 -125 -161
-125 -165 0 -4 30 -20 66 -36 64 -29 65 -29 212 -23 l148 6 282 -267 c225
-214 291 -271 329 -286 27 -9 168 -37 314 -61 l265 -43 125 -77 124 -76 6
1028 c3 565 7 1391 8 1834 l1 806 -113 109 -113 109 -357 99 -357 100 -28 43
c-16 24 -120 131 -232 238 -200 191 -205 195 -245 193 -22 -1 -305 -5 -628 -9z"/>
</g>
</svg>
