<?xml version="1.0" standalone="no"?>
<!DOCTYPE svg PUBLIC "-//W3C//DTD SVG 20010904//EN"
 "http://www.w3.org/TR/2001/REC-SVG-20010904/DTD/svg10.dtd">
<svg version="1.0" xmlns="http://www.w3.org/2000/svg"
 width="30.000000pt" height="88.000000pt" viewBox="0 0 30.000000 88.000000"
 preserveAspectRatio="xMidYMid meet">
<metadata>
Created by potrace 1.14, written by Peter Selinger 2001-2017
</metadata>
<g transform="translate(0.000000,88.000000) scale(0.100000,-0.100000)"
fill="#000000" stroke="none">
<path fill="#000000" stroke="none" d="M30 855 c-19 -21 -24 -39 -28 -120 -2
-52 -1 -95 3 -95 4 0 27 10 51 22 42 21 44 21 64 3 27 -24 25 -49 -5 -69 l-26
-17 21 -29 c17 -24 19 -35 11 -77 -5 -26 -12 -64 -16 -84 -3 -20 -16 -48 -29
-62 -26 -28 -30 -48 -42 -219 l-6 -88 28 -10 c31 -12 60 4 36 19 -10 6 -10 10
2 20 12 10 19 10 38 -3 12 -9 30 -16 39 -16 9 0 19 -7 23 -15 8 -22 43 -18 56
5 6 11 10 51 8 88 -3 66 -3 67 -33 70 -61 6 -85 22 -85 57 0 26 8 39 44 68 44
36 66 87 66 150 0 14 11 45 25 70 l25 45 -34 28 c-19 16 -44 36 -56 44 -26 18
-41 80 -33 136 6 46 3 49 -89 87 -35 15 -37 14 -58 -8z"/>
</g>
</svg>
