<?xml version="1.0" standalone="no"?>
<!DOCTYPE svg PUBLIC "-//W3C//DTD SVG 20010904//EN"
 "http://www.w3.org/TR/2001/REC-SVG-20010904/DTD/svg10.dtd">
<svg version="1.0" xmlns="http://www.w3.org/2000/svg"
 width="18.000000pt" height="155.000000pt" viewBox="0 0 18.000000 155.000000"
 preserveAspectRatio="xMidYMid meet">
<metadata>
Created by potrace 1.14, written by Peter Selinger 2001-2017
</metadata>
<g transform="translate(0.000000,155.000000) scale(0.100000,-0.100000)"
fill="#000000" stroke="none">
<path fill="#000000" stroke="none" d="M172 1532 c-1 -13 -24 -101 -51 -195
-49 -171 -49 -173 -56 -366 -3 -106 -11 -201 -16 -210 -7 -13 -49 -228 -49
-253 0 -4 18 -13 40 -19 36 -11 40 -15 36 -38 -18 -95 -17 -117 8 -172 14 -30
40 -106 58 -169 l33 -115 3 393 c2 401 -1 1186 -6 1144z"/>
</g>
</svg>
