<?xml version="1.0" standalone="no"?>
<!DOCTYPE svg PUBLIC "-//W3C//DTD SVG 20010904//EN"
 "http://www.w3.org/TR/2001/REC-SVG-20010904/DTD/svg10.dtd">
<svg version="1.0" xmlns="http://www.w3.org/2000/svg"
 width="35.000000pt" height="77.000000pt" viewBox="0 0 35.000000 77.000000"
 preserveAspectRatio="xMidYMid meet">
<metadata>
Created by potrace 1.14, written by Peter Selinger 2001-2017
</metadata>
<g transform="translate(0.000000,77.000000) scale(0.100000,-0.100000)"
fill="#000000" stroke="none">
<path fill="#000000" stroke="none" d="M113 763 c-7 -2 -13 -22 -13 -43 0 -23
-13 -65 -34 -106 -39 -81 -52 -121 -61 -189 -8 -61 3 -93 56 -161 42 -55 46
-77 28 -150 -11 -44 -11 -46 22 -80 18 -19 38 -34 45 -34 21 0 26 50 9 77 -15
23 -15 26 13 57 28 32 54 108 66 193 6 40 5 42 -24 48 -28 6 -30 9 -30 56 0
27 4 49 8 49 4 0 32 -24 61 -54 62 -63 91 -76 91 -42 0 33 -56 106 -80 106
-23 0 -40 34 -40 79 0 15 -9 36 -20 46 -26 24 -32 47 -20 79 18 48 -29 89 -77
69z"/>
</g>
</svg>
