<?xml version="1.0" standalone="no"?>
<!DOCTYPE svg PUBLIC "-//W3C//DTD SVG 20010904//EN"
 "http://www.w3.org/TR/2001/REC-SVG-20010904/DTD/svg10.dtd">
<svg version="1.0" xmlns="http://www.w3.org/2000/svg"
 width="60.000000pt" height="139.000000pt" viewBox="0 0 60.000000 139.000000"
 preserveAspectRatio="xMidYMid meet">
<metadata>
Created by potrace 1.14, written by Peter Selinger 2001-2017
</metadata>
<g transform="translate(0.000000,139.000000) scale(0.100000,-0.100000)"
fill="#000000" stroke="none">
<path fill="#000000" stroke="none" d="M191 1341 c-11 -27 -21 -67 -21 -89 0
-22 -3 -53 -6 -70 -6 -27 -11 -32 -48 -37 -40 -6 -44 -10 -80 -78 l-38 -72 41
-88 c37 -80 41 -97 41 -165 0 -46 -8 -102 -19 -138 -15 -52 -18 -84 -13 -201
6 -164 -3 -253 -24 -253 -10 0 -4 -15 18 -49 34 -52 41 -54 59 -18 9 18 9 20
-2 9 -19 -17 -26 -15 -45 13 -15 23 -15 27 6 60 16 26 26 33 33 26 6 -6 22
-11 35 -11 16 0 21 -4 16 -12 -5 -9 -4 -10 3 -3 6 6 25 91 43 190 19 99 36
183 40 188 3 4 19 -71 34 -167 20 -129 26 -190 21 -233 -8 -63 4 -68 14 -6 4
26 12 39 25 41 30 6 36 -11 30 -76 -7 -61 -7 -62 -38 -62 -29 -1 -27 -2 19
-20 28 -11 53 -20 56 -20 3 0 4 33 1 73 -2 42 5 160 18 278 18 170 21 232 15
368 -6 145 -5 163 8 158 9 -3 44 2 78 12 70 19 74 26 81 119 3 46 2 47 -28 52
-22 3 -47 22 -81 60 -41 45 -56 74 -88 163 l-38 107 -72 0 -73 0 -21 -49z"/>
</g>
</svg>
