<?xml version="1.0" standalone="no"?>
<!DOCTYPE svg PUBLIC "-//W3C//DTD SVG 20010904//EN"
 "http://www.w3.org/TR/2001/REC-SVG-20010904/DTD/svg10.dtd">
<svg version="1.0" xmlns="http://www.w3.org/2000/svg"
 width="59.000000pt" height="119.000000pt" viewBox="0 0 59.000000 119.000000"
 preserveAspectRatio="xMidYMid meet">
<metadata>
Created by potrace 1.14, written by Peter Selinger 2001-2017
</metadata>
<g transform="translate(0.000000,119.000000) scale(0.100000,-0.100000)"
fill="#000000" stroke="none">
<path fill="#000000" stroke="none" d="M209 1145 c-48 -49 -56 -69 -58 -131
-1 -40 -2 -42 -47 -54 -57 -16 -71 -37 -80 -124 l-7 -69 32 6 c26 6 31 4 31
-13 0 -13 11 -25 33 -33 17 -8 38 -26 46 -40 26 -48 41 -34 41 38 l0 65 49 0
c33 0 51 -5 54 -14 8 -21 -4 -126 -14 -126 -5 0 -9 -4 -9 -9 0 -6 21 -13 46
-17 45 -6 48 -5 81 32 35 38 35 38 11 4 -14 -19 -50 -72 -82 -117 -32 -46 -65
-87 -73 -92 -21 -12 -13 -99 13 -134 16 -24 24 -26 57 -21 20 3 37 3 37 0 0
-14 -78 -56 -104 -56 -17 0 -72 -25 -137 -63 -96 -55 -108 -66 -114 -95 -3
-18 -8 -39 -11 -46 -4 -10 45 -14 223 -20 125 -4 246 -9 267 -13 l39 -6 -5 80
c-6 87 0 108 36 117 l24 6 1 467 2 468 -38 -39 c-24 -24 -33 -40 -26 -43 9 -3
8 -14 -6 -41 -33 -68 -13 -178 39 -215 21 -14 21 -14 -2 -21 -13 -3 -32 -6
-43 -6 -12 0 -30 -15 -43 -36 -38 -59 -38 -46 3 133 4 15 -1 23 -15 28 -28 9
-76 100 -90 170 -17 84 -33 111 -71 119 -45 9 -43 10 -90 -39z"/>
</g>
</svg>
