<?xml version="1.0" standalone="no"?>
<!DOCTYPE svg PUBLIC "-//W3C//DTD SVG 20010904//EN"
 "http://www.w3.org/TR/2001/REC-SVG-20010904/DTD/svg10.dtd">
<svg version="1.0" xmlns="http://www.w3.org/2000/svg"
 width="16.000000pt" height="47.000000pt" viewBox="0 0 16.000000 47.000000"
 preserveAspectRatio="xMidYMid meet">
<metadata>
Created by potrace 1.14, written by Peter Selinger 2001-2017
</metadata>
<g transform="translate(0.000000,47.000000) scale(0.100000,-0.100000)"
fill="#000000" stroke="none">
<path fill="#000000" stroke="none" d="M57 457 c-16 -11 -18 -22 -16 -82 0
-11 -9 -51 -19 -90 -15 -55 -17 -73 -7 -85 6 -8 17 -30 25 -47 10 -27 18 -33
42 -33 29 0 30 -1 26 -42 -3 -24 -8 -51 -12 -60 -7 -15 -3 -18 28 -18 20 0 36
2 36 5 0 2 -7 23 -16 45 -17 41 -15 91 5 165 6 22 11 65 11 96 0 46 -5 63 -28
95 -42 57 -55 66 -75 51z"/>
</g>
</svg>
