<?xml version="1.0" standalone="no"?>
<!DOCTYPE svg PUBLIC "-//W3C//DTD SVG 20010904//EN"
 "http://www.w3.org/TR/2001/REC-SVG-20010904/DTD/svg10.dtd">
<svg version="1.0" xmlns="http://www.w3.org/2000/svg"
 width="273.000000pt" height="169.000000pt" viewBox="0 0 273.000000 169.000000"
 preserveAspectRatio="xMidYMid meet">
<metadata>
Created by potrace 1.14, written by Peter Selinger 2001-2017
</metadata>
<g transform="translate(0.000000,169.000000) scale(0.100000,-0.100000)"
fill="#000000" stroke="none">
<path fill="#000000" stroke="none" d="M1350 1674 c-47 -7 -191 -29 -321 -48
-290 -43 -302 -48 -383 -158 -46 -62 -70 -85 -103 -99 -24 -10 -85 -56 -136
-101 -51 -46 -161 -139 -245 -208 l-152 -124 0 -176 c0 -96 -3 -307 -7 -468
l-6 -292 714 0 c702 0 714 0 727 20 6 11 44 36 83 56 226 113 416 228 479 288
36 35 118 109 182 165 65 56 123 112 129 124 7 11 42 53 78 92 206 222 313
348 325 384 l14 39 -43 42 -44 43 -83 -59 c-67 -48 -125 -108 -297 -303 l-214
-243 -7 -70 c-7 -63 -11 -73 -41 -98 -19 -16 -48 -31 -65 -34 -29 -6 -35 -14
-64 -86 l-32 -80 -43 0 c-40 0 -45 4 -85 55 l-42 55 -42 -55 c-24 -32 -49 -55
-60 -55 -11 0 -44 19 -75 42 -36 27 -70 44 -98 48 l-42 7 -42 -68 -43 -68 -33
18 c-19 9 -84 62 -146 116 -91 80 -133 128 -217 244 -58 79 -106 149 -108 156
-1 6 10 29 26 51 l29 40 -38 59 c-51 79 -50 103 1 135 49 30 51 52 10 108 -16
23 -30 44 -30 46 0 11 92 56 113 56 46 0 57 10 57 50 0 35 5 42 58 82 32 23
86 59 121 78 34 19 90 53 124 74 34 22 100 61 147 88 47 26 78 47 70 47 -8 -1
-53 -7 -100 -15z"/>
</g>
</svg>
