<?xml version="1.0" standalone="no"?>
<!DOCTYPE svg PUBLIC "-//W3C//DTD SVG 20010904//EN"
 "http://www.w3.org/TR/2001/REC-SVG-20010904/DTD/svg10.dtd">
<svg version="1.0" xmlns="http://www.w3.org/2000/svg"
 width="31.000000pt" height="96.000000pt" viewBox="0 0 31.000000 96.000000"
 preserveAspectRatio="xMidYMid meet">
<metadata>
Created by potrace 1.14, written by Peter Selinger 2001-2017
</metadata>
<g transform="translate(0.000000,96.000000) scale(0.100000,-0.100000)"
fill="#000000" stroke="none">
<path fill="#000000" stroke="none" d="M76 932 c-9 -17 -16 -36 -16 -42 0 -5
-9 -19 -20 -30 -11 -11 -20 -31 -20 -45 0 -14 -4 -25 -10 -25 -5 0 -10 -7 -10
-15 0 -14 3 -14 28 -1 15 8 43 30 61 50 50 52 82 49 41 -4 -11 -14 -20 -30
-20 -36 0 -6 18 -35 40 -64 33 -44 40 -61 40 -99 l0 -46 -82 -33 c-79 -32 -83
-33 -96 -15 -12 16 -13 6 -8 -67 26 -422 30 -452 55 -448 9 1 22 -1 29 -6 7
-4 44 -5 83 -1 58 6 69 10 69 25 0 20 -38 53 -51 44 -17 -10 -19 19 -4 83 26
116 42 246 37 292 -3 32 1 53 17 81 l21 38 -20 43 -19 44 38 3 c36 3 39 6 45
40 10 60 8 62 -29 62 -29 0 -39 6 -61 39 -21 33 -25 47 -20 78 9 50 -8 73 -61
80 -38 5 -42 3 -57 -25z"/>
</g>
</svg>
