<?xml version="1.0" standalone="no"?>
<!DOCTYPE svg PUBLIC "-//W3C//DTD SVG 20010904//EN"
 "http://www.w3.org/TR/2001/REC-SVG-20010904/DTD/svg10.dtd">
<svg version="1.0" xmlns="http://www.w3.org/2000/svg"
 width="148.000000pt" height="229.000000pt" viewBox="0 0 148.000000 229.000000"
 preserveAspectRatio="xMidYMid meet">
<metadata>
Created by potrace 1.14, written by Peter Selinger 2001-2017
</metadata>
<g transform="translate(0.000000,229.000000) scale(0.100000,-0.100000)"
fill="#000000" stroke="none">
<path fill="#000000" stroke="none" d="M731 2279 c-24 -5 -46 -10 -48 -13 -2
-2 21 -134 51 -292 53 -279 56 -303 80 -674 19 -276 26 -468 26 -677 0 -326 8
-294 -75 -308 -22 -3 -47 -8 -56 -11 -12 -3 -25 17 -52 78 -27 62 -49 146 -87
333 -28 138 -54 258 -58 267 -6 15 -33 6 -217 -70 -116 -48 -216 -91 -223 -95
-10 -7 -12 -43 -6 -175 4 -99 2 -234 -5 -332 -17 -242 -18 -250 -44 -251 -56
-3 38 -10 431 -34 l423 -25 192 118 c155 95 199 128 229 167 20 27 36 51 34
53 -2 2 7 15 20 29 23 25 24 33 26 172 1 80 1 155 1 166 0 11 5 23 12 27 12 7
42 96 34 102 -2 1 -65 29 -139 61 -74 32 -142 61 -150 65 -13 7 -14 25 -8 119
6 108 8 114 75 267 l68 156 106 99 105 98 -22 178 c-13 98 -23 183 -24 188 0
6 -45 52 -100 103 l-99 93 -203 14 c-225 16 -235 16 -297 4z"/>
</g>
</svg>
