<?xml version="1.0" standalone="no"?>
<!DOCTYPE svg PUBLIC "-//W3C//DTD SVG 20010904//EN"
 "http://www.w3.org/TR/2001/REC-SVG-20010904/DTD/svg10.dtd">
<svg version="1.0" xmlns="http://www.w3.org/2000/svg"
 width="36.000000pt" height="116.000000pt" viewBox="0 0 36.000000 116.000000"
 preserveAspectRatio="xMidYMid meet">
<metadata>
Created by potrace 1.14, written by Peter Selinger 2001-2017
</metadata>
<g transform="translate(0.000000,116.000000) scale(0.100000,-0.100000)"
fill="#000000" stroke="none">
<path fill="#000000" stroke="none" d="M101 1079 c-27 -44 -62 -104 -77 -134
l-28 -53 13 -133 c14 -146 48 -274 81 -304 11 -10 31 -43 45 -74 25 -54 26
-59 15 -143 -10 -73 -9 -96 5 -149 8 -35 21 -67 28 -71 50 -33 113 -9 151 56
27 46 28 52 24 165 -3 109 -5 121 -30 159 -23 34 -28 53 -28 102 0 41 -7 74
-20 99 -11 22 -20 52 -20 67 -3 90 3 180 11 196 8 14 5 27 -10 52 -23 37 -27
96 -9 125 9 14 8 26 -2 51 -13 31 -61 70 -87 70 -7 0 -34 -36 -62 -81z"/>
</g>
</svg>
