<?xml version="1.0" standalone="no"?>
<!DOCTYPE svg PUBLIC "-//W3C//DTD SVG 20010904//EN"
 "http://www.w3.org/TR/2001/REC-SVG-20010904/DTD/svg10.dtd">
<svg version="1.0" xmlns="http://www.w3.org/2000/svg"
 width="359.000000pt" height="345.000000pt" viewBox="0 0 359.000000 345.000000"
 preserveAspectRatio="xMidYMid meet">
<metadata>
Created by potrace 1.14, written by Peter Selinger 2001-2017
</metadata>
<g transform="translate(0.000000,345.000000) scale(0.100000,-0.100000)"
fill="#000000" stroke="none">
<path fill="#000000" stroke="none" d="M865 3434 c-198 -7 -384 -13 -413 -13
-42 -1 -57 -6 -73 -23 -10 -13 -92 -116 -183 -229 l-164 -206 -15 -204 -15
-204 109 -206 c60 -113 109 -210 109 -216 0 -5 59 -88 131 -184 l130 -174 92
-46 92 -47 37 19 37 19 46 -80 c33 -56 61 -90 96 -115 27 -20 49 -40 49 -45 0
-7 -74 -91 -192 -216 l-38 -40 51 -110 c28 -60 103 -219 166 -354 159 -341
245 -494 347 -616 l84 -102 184 -6 c298 -10 2050 -37 2056 -32 2 3 1 444 -3
981 l-7 975 -102 0 -102 0 -28 -58 c-23 -48 -26 -62 -17 -85 6 -15 21 -32 35
-38 28 -13 46 -84 46 -179 l0 -57 -52 8 c-36 6 -73 22 -118 52 -73 50 -248
121 -349 143 -36 8 -120 19 -186 25 -140 14 -340 53 -362 71 -10 8 -13 23 -10
47 6 37 36 153 43 160 2 2 36 -8 76 -22 40 -14 90 -28 111 -32 37 -6 37 -6 37
-54 0 -58 21 -72 85 -59 22 5 85 12 140 16 l99 7 -146 107 -147 107 -168 44
-168 44 -155 -13 c-225 -19 -204 -22 -229 37 -27 65 -26 71 5 119 l26 39 -18
138 -17 138 -40 41 -39 42 -20 148 c-11 81 -25 155 -31 164 -7 9 -66 78 -132
154 l-120 139 -104 48 c-82 39 -114 49 -150 48 -25 -1 -208 -8 -406 -15z"/>
</g>
</svg>
