<?xml version="1.0" standalone="no"?>
<!DOCTYPE svg PUBLIC "-//W3C//DTD SVG 20010904//EN"
 "http://www.w3.org/TR/2001/REC-SVG-20010904/DTD/svg10.dtd">
<svg version="1.0" xmlns="http://www.w3.org/2000/svg"
 width="34.000000pt" height="31.000000pt" viewBox="0 0 34.000000 31.000000"
 preserveAspectRatio="xMidYMid meet">
<metadata>
Created by potrace 1.14, written by Peter Selinger 2001-2017
</metadata>
<g transform="translate(0.000000,31.000000) scale(0.100000,-0.100000)"
fill="#000000" stroke="none">
<path fill="#000000" stroke="none" d="M76 261 c-14 -27 -26 -60 -26 -74 0
-15 -11 -37 -25 -51 -14 -14 -25 -34 -25 -44 0 -22 27 -92 35 -92 3 0 22 7 43
16 30 12 58 14 143 8 74 -4 108 -3 113 5 4 6 -21 39 -58 76 l-64 64 13 45 c13
41 12 45 -8 64 -12 11 -43 22 -68 25 l-46 6 -27 -48z"/>
</g>
</svg>
