<?xml version="1.0" standalone="no"?>
<!DOCTYPE svg PUBLIC "-//W3C//DTD SVG 20010904//EN"
 "http://www.w3.org/TR/2001/REC-SVG-20010904/DTD/svg10.dtd">
<svg version="1.0" xmlns="http://www.w3.org/2000/svg"
 width="23.000000pt" height="23.000000pt" viewBox="0 0 23.000000 23.000000"
 preserveAspectRatio="xMidYMid meet">
<metadata>
Created by potrace 1.14, written by Peter Selinger 2001-2017
</metadata>
<g transform="translate(0.000000,23.000000) scale(0.100000,-0.100000)"
fill="#000000" stroke="none">
<path fill="#000000" stroke="none" d="M135 215 c-33 -7 -64 -10 -70 -7 -5 3
9 -16 31 -43 l41 -50 -68 -54 c-38 -30 -69 -55 -69 -57 0 -2 13 5 30 14 28 16
31 16 60 -2 17 -10 33 -16 34 -14 2 1 10 25 19 51 9 26 29 65 45 85 42 54 45
61 32 77 -7 8 -15 15 -19 14 -3 -1 -33 -7 -66 -14z"/>
</g>
</svg>
