<?xml version="1.0" standalone="no"?>
<!DOCTYPE svg PUBLIC "-//W3C//DTD SVG 20010904//EN"
 "http://www.w3.org/TR/2001/REC-SVG-20010904/DTD/svg10.dtd">
<svg version="1.0" xmlns="http://www.w3.org/2000/svg"
 width="12.000000pt" height="38.000000pt" viewBox="0 0 12.000000 38.000000"
 preserveAspectRatio="xMidYMid meet">
<metadata>
Created by potrace 1.14, written by Peter Selinger 2001-2017
</metadata>
<g transform="translate(0.000000,38.000000) scale(0.100000,-0.100000)"
fill="#000000" stroke="none">
<path fill="#000000" stroke="none" d="M47 374 c-4 -4 -7 -18 -7 -30 0 -13 -9
-28 -20 -34 -14 -7 -20 -21 -20 -45 0 -18 4 -36 9 -39 5 -3 12 -42 16 -86 4
-44 11 -83 16 -86 5 -3 6 -16 3 -30 -4 -14 -2 -24 4 -24 6 0 18 25 27 56 19
66 27 68 15 4 -9 -45 -1 -68 19 -56 7 5 11 46 11 108 0 99 0 101 -19 84 -11
-10 -22 -28 -25 -42 -7 -26 -24 -32 -31 -11 -6 14 32 109 59 150 13 19 16 31
9 35 -6 4 -12 16 -14 27 -4 20 -38 32 -52 19z"/>
</g>
</svg>
