<?xml version="1.0" standalone="no"?>
<!DOCTYPE svg PUBLIC "-//W3C//DTD SVG 20010904//EN"
 "http://www.w3.org/TR/2001/REC-SVG-20010904/DTD/svg10.dtd">
<svg version="1.0" xmlns="http://www.w3.org/2000/svg"
 width="112.000000pt" height="243.000000pt" viewBox="0 0 112.000000 243.000000"
 preserveAspectRatio="xMidYMid meet">
<metadata>
Created by potrace 1.14, written by Peter Selinger 2001-2017
</metadata>
<g transform="translate(0.000000,243.000000) scale(0.100000,-0.100000)"
fill="#000000" stroke="none">
<path fill="#000000" stroke="none" d="M333 2420 c-13 -5 -34 -36 -53 -76 -28
-59 -32 -74 -27 -125 l5 -58 -62 -40 c-60 -40 -62 -42 -100 -138 -51 -131 -62
-186 -79 -393 -12 -153 -12 -177 0 -192 8 -9 32 -49 53 -89 l38 -73 -30 -59
c-25 -50 -28 -66 -22 -101 l7 -41 9 30 c5 17 30 74 55 127 l47 97 45 6 c25 4
57 8 71 11 20 4 34 -4 61 -33 32 -34 40 -56 78 -198 42 -162 46 -189 35 -243
-5 -25 -12 -31 -45 -36 -47 -8 -129 14 -211 55 l-56 28 58 -122 58 -122 -19
-27 c-24 -33 -24 -37 1 -63 19 -20 19 -21 -20 -145 -22 -69 -40 -129 -40 -134
0 -5 12 7 28 27 21 30 54 50 155 97 l127 59 72 -102 c91 -128 130 -219 118
-273 -7 -30 -5 -42 7 -56 14 -16 37 -18 194 -18 182 0 233 9 227 38 -3 17 -10
21 -89 55 -69 30 -110 82 -204 257 -36 65 -80 143 -99 173 -24 37 -45 93 -67
173 -19 75 -47 149 -74 199 -38 70 -44 93 -55 185 -7 57 -19 119 -27 138 -15
37 -11 52 16 52 12 0 24 15 36 45 15 42 24 49 93 84 43 21 120 53 172 71 52
19 105 40 118 48 21 14 112 143 112 160 0 4 -24 25 -52 47 -29 21 -89 75 -133
119 -62 63 -104 94 -188 141 -152 84 -149 79 -77 153 33 34 60 70 60 81 0 11
-11 28 -25 39 -14 11 -32 42 -42 75 -14 48 -22 58 -58 76 -45 22 -158 28 -202
11z"/>
<path fill="#ffffff" stroke="none" d="M870 1600 c0 -6 -10 -15 -22 -20 -23
-10 -748 -180 -767 -180 -19 0 -24 66 -7 97 13 27 21 31 77 37 34 3 89 6 123
6 96 0 375 30 462 50 93 21 134 24 134 10z"/>
</g>
</svg>
