<?xml version="1.0" standalone="no"?>
<!DOCTYPE svg PUBLIC "-//W3C//DTD SVG 20010904//EN"
 "http://www.w3.org/TR/2001/REC-SVG-20010904/DTD/svg10.dtd">
<svg version="1.0" xmlns="http://www.w3.org/2000/svg"
 width="75.000000pt" height="49.000000pt" viewBox="0 0 75.000000 49.000000"
 preserveAspectRatio="xMidYMid meet">
<metadata>
Created by potrace 1.14, written by Peter Selinger 2001-2017
</metadata>
<g transform="translate(0.000000,49.000000) scale(0.100000,-0.100000)"
fill="#000000" stroke="none">
<path fill="#000000" stroke="none" d="M415 485 c-5 -2 -44 -6 -86 -10 l-76
-6 -6 -64 c-5 -57 -13 -74 -60 -143 -41 -60 -56 -91 -61 -130 -6 -50 -8 -52
-68 -89 l-62 -38 175 -3 c96 -2 260 0 365 3 l192 7 11 87 c16 129 14 236 -5
255 -8 9 -22 16 -29 16 -8 0 -53 14 -100 31 -69 25 -89 37 -101 60 -12 23 -21
29 -47 28 -17 0 -36 -2 -42 -4z"/>
</g>
</svg>
