<?xml version="1.0" standalone="no"?>
<!DOCTYPE svg PUBLIC "-//W3C//DTD SVG 20010904//EN"
 "http://www.w3.org/TR/2001/REC-SVG-20010904/DTD/svg10.dtd">
<svg version="1.0" xmlns="http://www.w3.org/2000/svg"
 width="160.000000pt" height="77.000000pt" viewBox="0 0 160.000000 77.000000"
 preserveAspectRatio="xMidYMid meet">
<metadata>
Created by potrace 1.14, written by Peter Selinger 2001-2017
</metadata>
<g transform="translate(0.000000,77.000000) scale(0.100000,-0.100000)"
fill="#000000" stroke="none">
<path fill="#000000" stroke="none" d="M125 763 c-27 -3 -50 -14 -71 -34 l-30
-30 16 -85 c14 -75 19 -87 45 -103 33 -20 131 -154 136 -187 5 -28 -54 -99
-146 -174 -73 -59 -93 -90 -59 -90 14 0 14 -2 3 -16 -20 -25 15 -47 65 -41 44
6 65 28 38 39 -9 4 -11 7 -4 7 6 1 12 7 12 15 0 8 41 46 92 84 l92 71 106 -53
c58 -29 125 -59 150 -67 108 -31 458 -9 620 40 36 11 126 25 200 31 114 9 210
31 210 47 0 2 -8 15 -17 30 l-17 26 -191 -7 c-104 -3 -231 -11 -280 -18 -121
-15 -318 11 -345 45 -16 19 -29 22 -101 23 -46 0 -89 2 -95 2 -7 1 -42 29 -78
62 -37 33 -84 72 -106 86 -52 35 -80 81 -80 132 0 35 -4 43 -34 62 -19 11 -46
41 -61 65 -14 25 -27 44 -28 43 -1 -1 -20 -3 -42 -5z"/>
</g>
</svg>
