<?xml version="1.0" standalone="no"?>
<!DOCTYPE svg PUBLIC "-//W3C//DTD SVG 20010904//EN"
 "http://www.w3.org/TR/2001/REC-SVG-20010904/DTD/svg10.dtd">
<svg version="1.0" xmlns="http://www.w3.org/2000/svg"
 width="33.000000pt" height="43.000000pt" viewBox="0 0 33.000000 43.000000"
 preserveAspectRatio="xMidYMid meet">
<metadata>
Created by potrace 1.14, written by Peter Selinger 2001-2017
</metadata>
<g transform="translate(0.000000,43.000000) scale(0.100000,-0.100000)"
fill="#000000" stroke="none">
<path fill="#000000" stroke="none" d="M111 409 c-21 -20 -23 -28 -17 -81 5
-54 3 -62 -21 -92 -14 -19 -36 -58 -48 -87 l-21 -54 74 -48 c47 -30 81 -46 92
-42 10 3 50 48 88 99 l70 93 -34 39 c-21 25 -33 50 -34 69 0 17 -6 50 -14 75
-13 45 -13 45 -62 48 -40 2 -54 -1 -73 -19z"/>
</g>
</svg>
