<?xml version="1.0" standalone="no"?>
<!DOCTYPE svg PUBLIC "-//W3C//DTD SVG 20010904//EN"
 "http://www.w3.org/TR/2001/REC-SVG-20010904/DTD/svg10.dtd">
<svg version="1.0" xmlns="http://www.w3.org/2000/svg"
 width="115.000000pt" height="71.000000pt" viewBox="0 0 115.000000 71.000000"
 preserveAspectRatio="xMidYMid meet">
<metadata>
Created by potrace 1.14, written by Peter Selinger 2001-2017
</metadata>
<g transform="translate(0.000000,71.000000) scale(0.100000,-0.100000)"
fill="#000000" stroke="none">
<path fill="#000000" stroke="none" d="M541 696 l-95 -11 -135 -186 c-75 -102
-163 -216 -196 -253 -52 -59 -114 -149 -115 -167 0 -4 39 -23 86 -44 l86 -36
191 82 c106 45 217 94 247 109 95 47 340 120 406 120 33 0 76 3 97 6 36 7 38
8 31 38 -16 74 -43 135 -85 193 l-44 62 -150 50 c-160 54 -169 55 -324 37z"/>
</g>
</svg>
