<?xml version="1.0" standalone="no"?>
<!DOCTYPE svg PUBLIC "-//W3C//DTD SVG 20010904//EN"
 "http://www.w3.org/TR/2001/REC-SVG-20010904/DTD/svg10.dtd">
<svg version="1.0" xmlns="http://www.w3.org/2000/svg"
 width="162.000000pt" height="381.000000pt" viewBox="0 0 162.000000 381.000000"
 preserveAspectRatio="xMidYMid meet">
<metadata>
Created by potrace 1.14, written by Peter Selinger 2001-2017
</metadata>
<g transform="translate(0.000000,381.000000) scale(0.100000,-0.100000)"
fill="#000000" stroke="none">
<path fill="#000000" stroke="none" d="M698 3798 c-15 -5 -58 -42 -95 -81 -38
-39 -84 -85 -103 -102 -132 -116 -140 -126 -140 -169 0 -23 16 -88 37 -145
l37 -104 -20 -35 c-23 -43 -172 -160 -264 -207 -108 -55 -106 -51 -120 -270
-6 -104 -15 -209 -21 -233 -9 -41 -8 -44 40 -105 27 -34 76 -117 109 -184 34
-67 65 -124 70 -127 5 -3 -3 -67 -19 -143 l-27 -138 55 -350 56 -350 6 -317 6
-317 47 -48 48 -48 26 -156 27 -157 51 -6 c92 -11 199 -7 194 7 -3 6 -20 56
-38 111 -30 92 -32 103 -22 161 6 39 21 78 40 106 16 24 37 56 46 71 19 33
101 75 207 108 75 22 77 24 82 59 3 20 26 175 51 345 43 287 46 322 46 505 0
108 4 225 8 261 l7 65 40 6 c22 4 43 4 46 1 7 -9 117 -398 121 -431 l3 -25 35
30 35 30 95 -15 c86 -15 95 -18 100 -41 6 -25 7 -25 14 -3 11 35 -94 171 -164
212 l-55 32 -56 206 -56 207 -37 -70 c-81 -149 -204 -153 -250 -9 -23 75 -33
234 -17 274 12 27 15 28 44 20 18 -5 49 -9 70 -9 78 0 113 80 82 186 -9 31
-15 58 -13 59 2 2 36 8 76 13 41 6 76 12 78 14 2 2 -1 33 -6 69 -7 43 -41 135
-103 278 l-92 213 -77 45 c-75 43 -78 46 -78 81 0 28 12 52 45 96 52 68 54 88
29 212 -34 166 -111 265 -236 304 -71 22 -64 22 -100 8z"/>
</g>
</svg>
