<?xml version="1.0" standalone="no"?>
<!DOCTYPE svg PUBLIC "-//W3C//DTD SVG 20010904//EN"
 "http://www.w3.org/TR/2001/REC-SVG-20010904/DTD/svg10.dtd">
<svg version="1.0" xmlns="http://www.w3.org/2000/svg"
 width="17.000000pt" height="63.000000pt" viewBox="0 0 17.000000 63.000000"
 preserveAspectRatio="xMidYMid meet">
<metadata>
Created by potrace 1.14, written by Peter Selinger 2001-2017
</metadata>
<g transform="translate(0.000000,63.000000) scale(0.100000,-0.100000)"
fill="#000000" stroke="none">
<path fill="#000000" stroke="none" d="M7 603 c-3 -14 1 -43 8 -62 28 -80 35
-163 20 -220 -15 -57 -13 -71 10 -71 15 0 25 -21 25 -53 0 -12 11 -46 25 -75
14 -30 25 -67 25 -83 0 -16 4 -29 9 -29 5 0 17 -3 26 -6 14 -6 16 0 9 57 -4
38 -15 74 -25 88 -20 25 -26 86 -9 96 18 11 2 242 -21 310 -23 66 -31 75 -70
75 -21 0 -28 -6 -32 -27z"/>
</g>
</svg>
