<?xml version="1.0" standalone="no"?>
<!DOCTYPE svg PUBLIC "-//W3C//DTD SVG 20010904//EN"
 "http://www.w3.org/TR/2001/REC-SVG-20010904/DTD/svg10.dtd">
<svg version="1.0" xmlns="http://www.w3.org/2000/svg"
 width="201.000000pt" height="338.000000pt" viewBox="0 0 201.000000 338.000000"
 preserveAspectRatio="xMidYMid meet">
<metadata>
Created by potrace 1.14, written by Peter Selinger 2001-2017
</metadata>
<g transform="translate(0.000000,338.000000) scale(0.100000,-0.100000)"
fill="#000000" stroke="none">
<path fill="#000000" stroke="none" d="M978 3364 c-59 -25 -88 -86 -89 -188 0
-44 -4 -99 -8 -121 -7 -34 -3 -48 21 -91 l28 -52 -43 16 -42 15 -75 -40 c-41
-23 -91 -46 -111 -52 -55 -17 -69 -39 -78 -122 -12 -96 -41 -176 -90 -247 -56
-81 -59 -99 -21 -107 16 -4 30 -9 30 -11 0 -3 -23 -39 -51 -81 -29 -42 -63
-103 -76 -136 l-25 -61 22 -94 c16 -66 20 -110 16 -143 -6 -42 -3 -54 21 -90
25 -38 29 -40 62 -34 20 4 36 8 37 8 0 1 8 39 17 85 9 46 25 95 36 110 26 37
51 137 51 205 0 49 9 73 64 185 l64 130 4 -62 c3 -33 1 -92 -3 -131 -5 -38 -8
-158 -8 -265 -1 -181 1 -201 24 -273 14 -43 25 -84 25 -92 0 -8 -15 -17 -36
-21 -36 -7 -36 -7 -30 -48 6 -41 6 -42 -75 -121 -48 -47 -89 -98 -100 -124
-25 -57 -74 -263 -89 -376 -14 -111 -40 -209 -88 -343 l-37 -103 -120 -104
c-123 -106 -212 -192 -204 -198 2 -2 81 -27 176 -55 l172 -52 34 20 c33 19 36
26 52 113 30 160 79 294 136 377 91 132 109 177 115 288 2 53 10 130 16 170
l11 73 69 35 68 34 0 -38 c0 -25 13 -63 35 -106 32 -62 35 -74 35 -156 0 -105
-13 -93 179 -165 169 -62 216 -88 292 -159 36 -33 100 -87 142 -120 74 -56 78
-61 97 -125 45 -152 82 -226 138 -276 29 -26 54 -46 56 -44 26 26 192 507 180
518 -5 5 -61 25 -124 46 -105 34 -119 42 -165 89 -29 30 -84 69 -131 94 -111
59 -185 109 -271 181 -85 72 -93 91 -100 237 -5 97 -4 102 27 165 18 35 58 91
89 124 50 51 60 70 74 125 21 81 25 312 8 391 -11 52 -9 65 32 232 l44 177 86
-65 c100 -75 118 -98 119 -153 0 -42 -10 -102 -19 -102 -2 0 -32 7 -66 16 -57
15 -65 15 -99 1 l-38 -16 0 -68 0 -69 73 -70 c39 -39 91 -79 115 -89 l43 -18
46 44 c100 96 167 243 180 393 l6 72 -68 100 c-38 54 -70 101 -72 103 -2 2
-132 26 -291 52 -244 41 -368 65 -380 74 -8 6 22 61 41 74 20 15 119 33 112
21 -2 -3 67 -21 153 -40 86 -18 187 -41 225 -50 37 -9 67 -14 67 -11 0 3 -15
31 -33 61 -41 68 -151 149 -247 181 -36 12 -88 37 -116 55 -30 20 -64 34 -82
34 l-30 0 21 40 c12 22 34 45 50 51 19 8 27 19 27 35 0 14 -6 24 -14 24 -10 0
-16 19 -21 61 -13 112 -29 154 -75 195 -50 46 -58 49 -130 57 -39 5 -66 2 -92
-9z"/>
</g>
</svg>
