<?xml version="1.0" standalone="no"?>
<!DOCTYPE svg PUBLIC "-//W3C//DTD SVG 20010904//EN"
 "http://www.w3.org/TR/2001/REC-SVG-20010904/DTD/svg10.dtd">
<svg version="1.0" xmlns="http://www.w3.org/2000/svg"
 width="171.000000pt" height="119.000000pt" viewBox="0 0 171.000000 119.000000"
 preserveAspectRatio="xMidYMid meet">
<metadata>
Created by potrace 1.14, written by Peter Selinger 2001-2017
</metadata>
<g transform="translate(0.000000,119.000000) scale(0.100000,-0.100000)"
fill="#000000" stroke="none">
<path fill="#000000" stroke="none" d="M1575 1119 c-61 -42 -163 -132 -260
-228 -88 -86 -210 -198 -271 -249 l-111 -92 -359 -144 c-198 -79 -398 -156
-446 -172 -85 -27 -87 -28 -109 -76 -12 -26 -21 -49 -18 -51 2 -2 64 -28 138
-57 133 -53 134 -53 190 -42 124 26 128 28 186 106 l55 73 0 85 0 85 137 -33
c125 -31 150 -34 288 -34 121 0 165 4 225 21 58 16 119 22 272 28 112 4 202
11 208 17 8 8 -7 534 -23 796 l-2 38 -100 -71z"/>
</g>
</svg>
