<?xml version="1.0" standalone="no"?>
<!DOCTYPE svg PUBLIC "-//W3C//DTD SVG 20010904//EN"
 "http://www.w3.org/TR/2001/REC-SVG-20010904/DTD/svg10.dtd">
<svg version="1.0" xmlns="http://www.w3.org/2000/svg"
 width="36.000000pt" height="35.000000pt" viewBox="0 0 36.000000 35.000000"
 preserveAspectRatio="xMidYMid meet">
<metadata>
Created by potrace 1.14, written by Peter Selinger 2001-2017
</metadata>
<g transform="translate(0.000000,35.000000) scale(0.100000,-0.100000)"
fill="#000000" stroke="none">
<path fill="#000000" stroke="none" d="M137 333 c4 -10 13 -28 20 -40 13 -19
12 -23 -7 -41 -11 -11 -35 -27 -53 -37 -18 -10 -47 -35 -65 -56 l-33 -37 39
-7 c38 -6 72 -43 72 -78 0 -10 23 -17 83 -25 115 -17 127 -16 127 8 0 11 10
49 21 84 15 45 19 76 15 100 -6 32 -10 36 -39 36 -18 0 -39 5 -47 10 -13 8
-13 13 3 41 30 54 26 59 -63 59 -71 0 -79 -2 -73 -17z"/>
</g>
</svg>
