<?xml version="1.0" standalone="no"?>
<!DOCTYPE svg PUBLIC "-//W3C//DTD SVG 20010904//EN"
 "http://www.w3.org/TR/2001/REC-SVG-20010904/DTD/svg10.dtd">
<svg version="1.0" xmlns="http://www.w3.org/2000/svg"
 width="269.000000pt" height="99.000000pt" viewBox="0 0 269.000000 99.000000"
 preserveAspectRatio="xMidYMid meet">
<metadata>
Created by potrace 1.14, written by Peter Selinger 2001-2017
</metadata>
<g transform="translate(0.000000,99.000000) scale(0.100000,-0.100000)"
fill="#000000" stroke="none">
<path fill="#000000" stroke="none" d="M1964 979 c-20 -7 -94 -85 -94 -99 0
-3 -10 -6 -22 -7 -33 -3 -72 -37 -78 -68 -3 -16 -10 -30 -17 -32 -7 -3 -10 3
-7 15 8 27 -27 65 -59 65 -15 0 -27 5 -27 12 0 7 -8 23 -18 35 -25 31 -70 30
-97 -2 -15 -18 -27 -23 -41 -18 -44 16 -84 -19 -84 -73 0 -37 -1 -39 -17 -25
-25 21 -45 26 -68 18 -17 -6 -20 -16 -19 -66 0 -37 -4 -64 -13 -72 -7 -7 -14
-25 -14 -40 -1 -15 -3 -40 -5 -56 -2 -16 4 -42 11 -57 8 -15 15 -43 15 -62 0
-18 9 -69 21 -112 14 -56 17 -80 9 -85 -7 -4 -11 -36 -9 -87 2 -68 -11 -129
-23 -113 -2 3 -14 52 -27 110 -37 170 -56 167 -92 -10 -16 -80 -18 -104 -9
-116 15 -17 53 -18 83 -2 12 7 34 11 49 9 39 -4 65 15 73 51 4 18 16 52 26 75
11 23 19 63 19 89 0 26 5 65 12 87 l12 39 21 -43 c28 -61 51 -61 95 -2 19 26
34 50 33 55 -2 4 6 12 17 18 11 6 20 18 20 26 0 9 6 14 13 11 6 -2 26 9 43 25
l31 29 104 -47 c57 -26 109 -51 115 -56 8 -5 13 -1 17 12 4 14 -3 27 -24 43
l-29 23 11 79 c12 82 21 96 93 153 18 14 22 62 6 62 -6 0 -21 7 -34 16 l-24
15 38 42 c46 50 56 81 36 112 -17 26 -43 35 -72 24z"/>
<path fill="#ffffff" stroke="none" d="M1667 588 c-3 -7 -5 -2 -5 12 0 14 2
19 5 13 2 -7 2 -19 0 -25z"/>
<path fill="#ffffff" stroke="none" d="M1478 505 c-3 -3 -9 2 -12 12 -6 14 -5
15 5 6 7 -7 10 -15 7 -18z"/>
<path fill="#000000" stroke="none" d="M2249 976 c-39 -19 -70 -85 -64 -135 4
-33 1 -49 -12 -63 -16 -18 -16 -21 -1 -46 10 -15 28 -48 42 -74 17 -31 38 -53
61 -64 29 -14 33 -19 25 -35 -11 -19 -52 -35 -67 -26 -5 3 -16 0 -25 -7 -25
-18 -45 -127 -53 -286 -5 -101 -11 -139 -22 -152 -15 -16 -14 -20 3 -39 15
-16 27 -20 55 -16 21 3 43 -1 54 -9 25 -19 145 -19 170 0 14 10 20 29 22 72 5
86 8 101 24 120 9 10 15 42 15 83 4 152 3 145 19 131 10 -8 15 -31 15 -71 0
-33 5 -68 12 -79 9 -15 9 -24 -1 -44 -8 -14 -11 -37 -8 -54 5 -24 1 -33 -24
-51 -52 -39 -31 -121 31 -121 22 0 66 12 118 31 32 13 43 47 26 88 -18 43 -18
72 -4 191 7 52 14 122 16 155 1 33 6 103 9 156 8 112 -5 152 -57 173 -43 18
-62 11 -104 -40 l-36 -45 -44 48 c-24 26 -44 55 -44 66 0 10 -13 32 -30 47
-16 15 -30 34 -30 42 0 21 -27 55 -49 61 -11 2 -29 0 -42 -7z"/>
<path fill="#ffffff" stroke="none" d="M2264 180 c1 -76 -19 -69 -21 8 -2 49
1 62 9 54 6 -6 12 -34 12 -62z"/>
<path fill="#000000" stroke="none" d="M90 862 c-29 -9 -50 -35 -50 -62 0 -71
107 -83 124 -14 12 45 -32 89 -74 76z"/>
<path fill="#000000" stroke="none" d="M474 850 c-12 -5 -25 -14 -29 -20 -4
-7 7 -4 24 4 17 9 31 19 31 21 0 6 1 6 -26 -5z"/>
<path fill="#000000" stroke="none" d="M525 835 c4 -11 10 -28 12 -37 3 -10 9
-18 14 -18 16 0 10 27 -12 51 -18 21 -20 21 -14 4z"/>
<path fill="#000000" stroke="none" d="M300 832 c-29 -9 -50 -35 -50 -62 0
-71 107 -83 124 -14 12 45 -32 89 -74 76z"/>
<path fill="#000000" stroke="none" d="M310 652 c-46 -14 -67 -75 -35 -102 8
-7 15 -24 15 -39 0 -15 5 -32 11 -38 7 -7 4 -10 -13 -9 -13 1 -33 -1 -45 -6
-12 -4 -25 -3 -27 1 -11 18 -47 18 -79 1 -19 -10 -49 -18 -66 -18 -17 1 -40
-7 -51 -17 -21 -19 -27 -69 -10 -80 6 -3 10 -23 10 -44 0 -22 6 -44 15 -51 14
-12 14 -15 0 -30 -21 -24 -19 -73 5 -95 14 -13 17 -22 10 -29 -30 -30 3 -96
47 -96 39 0 52 12 79 67 22 48 24 59 14 84 -10 24 -9 40 9 98 12 38 21 75 21
83 0 13 21 15 152 17 35 0 37 3 44 38 14 71 10 127 -11 158 -11 17 -18 36 -17
43 8 34 -43 75 -78 64z"/>
<path fill="#000000" stroke="none" d="M1467 182 c-51 -56 25 -134 87 -89 24
17 19 92 -6 92 -9 0 -20 4 -24 8 -13 13 -40 7 -57 -11z"/>
</g>
</svg>
