<?xml version="1.0" standalone="no"?>
<!DOCTYPE svg PUBLIC "-//W3C//DTD SVG 20010904//EN"
 "http://www.w3.org/TR/2001/REC-SVG-20010904/DTD/svg10.dtd">
<svg version="1.0" xmlns="http://www.w3.org/2000/svg"
 width="368.000000pt" height="444.000000pt" viewBox="0 0 368.000000 444.000000"
 preserveAspectRatio="xMidYMid meet">
<metadata>
Created by potrace 1.14, written by Peter Selinger 2001-2017
</metadata>
<g transform="translate(0.000000,444.000000) scale(0.100000,-0.100000)"
fill="#000000" stroke="none">
<path fill="#000000" stroke="none" d="M1120 4409 c-107 -17 -289 -54 -405
-83 l-210 -53 -78 -80 c-43 -44 -83 -87 -90 -96 -7 -8 -84 -66 -172 -127 -88
-62 -161 -113 -162 -114 -1 -1 3 -20 9 -42 10 -36 20 -47 78 -83 58 -36 71
-51 95 -101 32 -66 33 -57 -23 -207 l-30 -81 55 -119 54 -120 189 -164 189
-164 1 -132 0 -133 -65 -215 -66 -215 55 -188 c44 -151 64 -248 106 -507 46
-286 59 -343 118 -538 l66 -218 117 -82 c131 -91 129 -87 129 -233 l0 -63 76
-68 c73 -65 82 -70 212 -114 103 -35 165 -50 248 -59 104 -11 121 -11 235 10
l124 23 125 90 125 90 352 76 c193 42 354 79 357 82 3 3 -39 114 -94 248 -55
133 -101 250 -102 259 -2 13 40 28 232 82 l235 67 3 66 3 66 47 9 c26 6 88 18
137 27 50 10 97 25 106 34 9 9 40 68 67 131 43 98 56 141 81 285 17 93 29 170
28 172 -9 8 -435 -42 -597 -70 l-185 -33 -77 90 c-43 49 -121 158 -174 243
l-95 155 35 43 36 43 -11 129 -12 128 -227 335 c-193 286 -246 373 -363 597
l-137 261 -18 124 -18 123 30 127 29 127 -37 46 c-84 102 -97 111 -166 123
-36 6 -135 13 -220 15 -136 4 -179 1 -350 -24z"/>
</g>
</svg>
