<?xml version="1.0" standalone="no"?>
<!DOCTYPE svg PUBLIC "-//W3C//DTD SVG 20010904//EN"
 "http://www.w3.org/TR/2001/REC-SVG-20010904/DTD/svg10.dtd">
<svg version="1.0" xmlns="http://www.w3.org/2000/svg"
 width="33.000000pt" height="57.000000pt" viewBox="0 0 33.000000 57.000000"
 preserveAspectRatio="xMidYMid meet">
<metadata>
Created by potrace 1.14, written by Peter Selinger 2001-2017
</metadata>
<g transform="translate(0.000000,57.000000) scale(0.100000,-0.100000)"
fill="#000000" stroke="none">
<path fill="#000000" stroke="none" d="M167 531 c-15 -22 -58 -65 -96 -96
l-69 -56 49 -121 c27 -67 50 -127 51 -134 2 -6 -14 -25 -34 -41 -25 -21 -34
-34 -28 -43 5 -8 7 -17 4 -21 -2 -4 21 -11 52 -15 41 -5 80 -1 143 13 l86 20
-2 64 c-1 55 -7 75 -42 138 -36 65 -43 89 -58 195 -9 67 -20 125 -23 129 -4 4
-19 -10 -33 -32z"/>
</g>
</svg>
