<?xml version="1.0" standalone="no"?>
<!DOCTYPE svg PUBLIC "-//W3C//DTD SVG 20010904//EN"
 "http://www.w3.org/TR/2001/REC-SVG-20010904/DTD/svg10.dtd">
<svg version="1.0" xmlns="http://www.w3.org/2000/svg"
 width="123.000000pt" height="348.000000pt" viewBox="0 0 123.000000 348.000000"
 preserveAspectRatio="xMidYMid meet">
<metadata>
Created by potrace 1.14, written by Peter Selinger 2001-2017
</metadata>
<g transform="translate(0.000000,348.000000) scale(0.100000,-0.100000)"
fill="#000000" stroke="none">
<path fill="#000000" stroke="none" d="M535 3468 c-24 -8 -37 -25 -67 -92 -50
-108 -68 -181 -75 -304 -3 -56 -10 -105 -16 -109 -5 -3 5 -14 23 -23 l34 -17
-33 -18 -33 -17 -38 37 c-20 20 -50 39 -66 44 -28 7 -107 -7 -136 -25 -7 -5
-38 -16 -68 -24 -43 -12 -56 -20 -58 -37 -4 -30 61 -223 93 -273 l26 -41 -22
-121 c-25 -140 -26 -138 63 -157 71 -16 102 -14 131 9 31 25 37 25 37 1 0 -11
4 -21 9 -23 11 -4 -8 -211 -19 -218 -5 -3 -23 -96 -41 -207 l-33 -202 28 -333
c26 -317 29 -336 57 -399 32 -73 34 -102 18 -260 -10 -102 -9 -105 17 -164 14
-33 34 -93 44 -133 l17 -73 -58 -30 c-40 -20 -59 -35 -59 -48 0 -10 -13 -51
-30 -91 -16 -40 -30 -83 -30 -96 0 -24 1 -24 114 -24 110 0 114 1 130 25 15
23 23 25 88 25 68 0 71 1 55 17 -16 16 -15 18 13 29 27 12 29 16 20 39 -6 15
-10 65 -9 113 1 48 -4 148 -10 222 -23 271 -23 312 -7 435 9 65 16 124 17 130
2 22 80 -298 105 -431 l26 -142 -20 -118 -20 -119 43 -45 c23 -25 48 -61 54
-81 24 -75 84 -99 246 -99 109 0 112 1 123 25 10 21 8 29 -14 54 -16 20 -27
48 -31 83 -5 40 -13 60 -35 81 -24 24 -26 32 -17 49 24 44 11 114 -74 398
l-86 286 11 144 c8 108 8 204 -1 380 -11 216 -15 248 -52 405 -36 148 -40 180
-35 247 3 49 13 92 26 117 18 36 20 59 20 234 0 246 -1 252 -56 286 -24 14
-44 28 -44 31 0 3 20 17 44 31 42 26 43 28 49 90 3 35 9 75 13 88 6 20 4 23
-9 18 -13 -5 -17 -1 -17 15 0 12 -7 29 -16 39 -15 17 -15 22 0 65 17 49 19
117 8 193 -7 43 -7 44 -87 80 -69 30 -92 36 -165 38 -47 1 -98 -3 -115 -9z"/>
</g>
</svg>
