<?xml version="1.0" standalone="no"?>
<!DOCTYPE svg PUBLIC "-//W3C//DTD SVG 20010904//EN"
 "http://www.w3.org/TR/2001/REC-SVG-20010904/DTD/svg10.dtd">
<svg version="1.0" xmlns="http://www.w3.org/2000/svg"
 width="36.000000pt" height="41.000000pt" viewBox="0 0 36.000000 41.000000"
 preserveAspectRatio="xMidYMid meet">
<metadata>
Created by potrace 1.14, written by Peter Selinger 2001-2017
</metadata>
<g transform="translate(0.000000,41.000000) scale(0.100000,-0.100000)"
fill="#000000" stroke="none">
<path fill="#000000" stroke="none" d="M194 396 c-9 -7 -20 -36 -25 -67 -5
-33 -15 -58 -25 -64 -45 -27 -74 -61 -108 -124 -36 -68 -42 -94 -30 -125 5
-13 23 -16 93 -16 84 0 88 1 99 25 7 14 12 36 12 49 0 22 5 24 75 31 70 6 75
8 75 30 0 33 -59 125 -80 125 -26 0 -29 9 -13 40 30 61 -23 132 -73 96z"/>
</g>
</svg>
