<?xml version="1.0" standalone="no"?>
<!DOCTYPE svg PUBLIC "-//W3C//DTD SVG 20010904//EN"
 "http://www.w3.org/TR/2001/REC-SVG-20010904/DTD/svg10.dtd">
<svg version="1.0" xmlns="http://www.w3.org/2000/svg"
 width="22.000000pt" height="46.000000pt" viewBox="0 0 22.000000 46.000000"
 preserveAspectRatio="xMidYMid meet">
<metadata>
Created by potrace 1.14, written by Peter Selinger 2001-2017
</metadata>
<g transform="translate(0.000000,46.000000) scale(0.100000,-0.100000)"
fill="#000000" stroke="none">
<path fill="#000000" stroke="none" d="M89 434 c-21 -22 -24 -35 -24 -94 0
-61 3 -72 27 -97 l28 -29 -58 -34 c-31 -19 -58 -35 -60 -35 -1 -1 12 -34 30
-74 17 -39 34 -68 38 -64 4 4 19 46 35 93 15 47 47 124 71 172 52 103 54 130
17 163 -37 32 -73 32 -104 -1z"/>
</g>
</svg>
