<?xml version="1.0" standalone="no"?>
<!DOCTYPE svg PUBLIC "-//W3C//DTD SVG 20010904//EN"
 "http://www.w3.org/TR/2001/REC-SVG-20010904/DTD/svg10.dtd">
<svg version="1.0" xmlns="http://www.w3.org/2000/svg"
 width="40.000000pt" height="58.000000pt" viewBox="0 0 40.000000 58.000000"
 preserveAspectRatio="xMidYMid meet">
<metadata>
Created by potrace 1.14, written by Peter Selinger 2001-2017
</metadata>
<g transform="translate(0.000000,58.000000) scale(0.100000,-0.100000)"
fill="#000000" stroke="none">
<path fill="#000000" stroke="none" d="M66 556 c-20 -32 -20 -58 0 -126 17
-59 20 -54 -41 -94 -17 -12 -20 -24 -19 -83 1 -45 7 -79 17 -94 10 -16 16 -45
16 -81 -1 -31 2 -61 6 -67 4 -7 61 -11 160 -11 l153 0 -9 38 c-13 58 -11 69
22 107 28 31 30 39 24 76 -13 77 -67 140 -149 174 -30 13 -34 19 -39 60 -10
95 -102 160 -141 101z"/>
</g>
</svg>
