<?xml version="1.0" standalone="no"?>
<!DOCTYPE svg PUBLIC "-//W3C//DTD SVG 20010904//EN"
 "http://www.w3.org/TR/2001/REC-SVG-20010904/DTD/svg10.dtd">
<svg version="1.0" xmlns="http://www.w3.org/2000/svg"
 width="80.000000pt" height="145.000000pt" viewBox="0 0 80.000000 145.000000"
 preserveAspectRatio="xMidYMid meet">
<metadata>
Created by potrace 1.14, written by Peter Selinger 2001-2017
</metadata>
<g transform="translate(0.000000,145.000000) scale(0.100000,-0.100000)"
fill="#000000" stroke="none">
<path fill="#000000" stroke="none" d="M8 1433 c-2 -10 0 -34 5 -53 13 -48
240 -289 296 -315 49 -21 52 -45 21 -127 -11 -30 -20 -77 -20 -109 0 -32 -10
-85 -24 -126 -13 -38 -27 -92 -31 -119 l-6 -50 40 -19 c23 -10 46 -24 52 -32
6 -7 25 -13 41 -13 18 0 31 -6 35 -17 4 -9 -1 -80 -10 -157 -10 -78 -17 -169
-17 -204 0 -67 -1 -65 66 -86 20 -6 21 -2 29 121 5 71 7 165 6 211 -3 89 0 93
52 73 22 -9 24 -16 30 -103 15 -216 20 -264 29 -281 8 -15 11 -16 37 -2 16 8
31 25 35 37 3 13 6 94 6 180 l0 157 33 -14 c32 -13 34 -13 50 15 22 37 21 96
-2 211 -10 52 -21 113 -25 137 -6 40 -5 42 19 42 52 0 55 62 15 237 l-21 92
-45 18 c-48 20 -50 25 -33 103 6 29 8 72 4 96 l-6 44 -44 0 c-38 0 -47 -4 -72
-37 -23 -29 -28 -44 -22 -63 17 -61 5 -74 -85 -95 -113 -26 -202 14 -296 132
-25 30 -66 73 -91 94 -40 33 -48 37 -51 22z"/>
</g>
</svg>
