<?xml version="1.0" standalone="no"?>
<!DOCTYPE svg PUBLIC "-//W3C//DTD SVG 20010904//EN"
 "http://www.w3.org/TR/2001/REC-SVG-20010904/DTD/svg10.dtd">
<svg version="1.0" xmlns="http://www.w3.org/2000/svg"
 width="12.000000pt" height="22.000000pt" viewBox="0 0 12.000000 22.000000"
 preserveAspectRatio="xMidYMid meet">
<metadata>
Created by potrace 1.14, written by Peter Selinger 2001-2017
</metadata>
<g transform="translate(0.000000,22.000000) scale(0.100000,-0.100000)"
fill="#000000" stroke="none">
<path fill="#000000" stroke="none" d="M70 206 c0 -7 -11 -21 -24 -29 -17 -12
-25 -29 -30 -69 -13 -91 -13 -91 18 -99 23 -6 29 -4 33 12 3 10 10 19 17 19 7
0 11 23 12 60 0 33 6 66 12 72 22 22 14 48 -13 48 -15 0 -25 -6 -25 -14z"/>
</g>
</svg>
