<?xml version="1.0" standalone="no"?>
<!DOCTYPE svg PUBLIC "-//W3C//DTD SVG 20010904//EN"
 "http://www.w3.org/TR/2001/REC-SVG-20010904/DTD/svg10.dtd">
<svg version="1.0" xmlns="http://www.w3.org/2000/svg"
 width="63.000000pt" height="177.000000pt" viewBox="0 0 63.000000 177.000000"
 preserveAspectRatio="xMidYMid meet">
<metadata>
Created by potrace 1.14, written by Peter Selinger 2001-2017
</metadata>
<g transform="translate(0.000000,177.000000) scale(0.100000,-0.100000)"
fill="#000000" stroke="none">
<path fill="#000000" stroke="none" d="M128 1752 c-42 -25 -39 -87 8 -172 l35
-65 -32 -25 c-18 -14 -47 -39 -66 -55 l-35 -30 -14 -155 c-7 -85 -16 -186 -20
-225 -8 -87 10 -244 31 -264 12 -12 18 -12 27 -3 9 9 8 12 -5 12 -17 0 -22 11
-10 23 3 4 12 2 20 -4 17 -14 18 5 2 50 -9 27 -8 35 6 51 10 11 21 20 25 20 4
0 10 -37 13 -82 9 -124 46 -397 62 -448 8 -25 17 -74 21 -110 6 -59 51 -206
60 -197 2 2 9 30 15 63 16 93 18 96 47 92 26 -3 28 -8 51 -115 23 -107 41
-145 41 -87 0 15 8 64 17 111 16 74 21 85 42 90 l24 6 -6 186 c-3 102 -11 202
-17 223 -8 29 -7 47 7 90 16 48 21 53 49 56 18 2 42 14 55 28 20 21 24 36 24
87 0 34 5 70 11 80 22 37 -33 304 -94 458 -16 39 -79 86 -134 99 -35 9 -48 17
-48 30 0 10 -7 23 -15 30 -8 7 -17 28 -21 49 -10 63 -24 99 -42 107 -36 15
-107 13 -134 -4z"/>
</g>
</svg>
