<?xml version="1.0" standalone="no"?>
<!DOCTYPE svg PUBLIC "-//W3C//DTD SVG 20010904//EN"
 "http://www.w3.org/TR/2001/REC-SVG-20010904/DTD/svg10.dtd">
<svg version="1.0" xmlns="http://www.w3.org/2000/svg"
 width="68.000000pt" height="90.000000pt" viewBox="0 0 68.000000 90.000000"
 preserveAspectRatio="xMidYMid meet">
<metadata>
Created by potrace 1.14, written by Peter Selinger 2001-2017
</metadata>
<g transform="translate(0.000000,90.000000) scale(0.100000,-0.100000)"
fill="#000000" stroke="none">
<path fill="#000000" stroke="none" d="M38 793 c-20 -59 -36 -108 -35 -109 1
0 36 -25 77 -55 59 -43 98 -62 179 -88 100 -31 116 -33 185 -15 25 6 26 5 26
-42 -1 -48 -3 -52 -125 -194 -138 -161 -152 -170 -210 -126 l-33 25 -5 -22
c-3 -12 -9 -49 -12 -82 l-7 -60 34 -13 c24 -8 115 -12 302 -12 l268 0 -7 23
c-4 12 -10 99 -12 194 l-5 171 -84 90 c-64 69 -479 422 -496 422 -2 0 -20 -48
-40 -107z"/>
</g>
</svg>
