<?xml version="1.0" standalone="no"?>
<!DOCTYPE svg PUBLIC "-//W3C//DTD SVG 20010904//EN"
 "http://www.w3.org/TR/2001/REC-SVG-20010904/DTD/svg10.dtd">
<svg version="1.0" xmlns="http://www.w3.org/2000/svg"
 width="501.000000pt" height="394.000000pt" viewBox="0 0 501.000000 394.000000"
 preserveAspectRatio="xMidYMid meet">
<metadata>
Created by potrace 1.14, written by Peter Selinger 2001-2017
</metadata>
<g transform="translate(0.000000,394.000000) scale(0.100000,-0.100000)"
fill="#000000" stroke="none">
<path fill="#000000" stroke="none" d="M2109 3824 l-215 -115 -144 -271 -143
-272 52 -270 c29 -149 54 -277 57 -285 3 -10 11 -5 24 17 11 18 25 32 31 32
22 0 38 -35 39 -81 0 -31 7 -55 20 -72 11 -14 20 -39 20 -56 0 -28 -3 -31 -32
-31 -18 0 -43 -3 -55 -6 -19 -5 -23 -1 -28 30 -4 20 -10 36 -14 35 -3 0 -64
-22 -136 -48 -85 -31 -129 -52 -127 -60 2 -10 -4 -12 -22 -7 -24 6 -158 -36
-181 -56 -5 -5 -26 -149 -45 -321 l-35 -312 -319 -161 -319 -161 -254 -639
c-139 -351 -260 -656 -268 -676 l-15 -38 2505 0 2505 0 0 53 c0 47 -23 102
-272 627 -236 499 -288 602 -398 780 l-126 204 -339 87 c-187 48 -350 90 -361
93 -12 3 -95 82 -184 176 l-163 171 46 127 46 127 6 280 7 280 -47 285 -47
285 -117 123 c-64 68 -132 142 -151 164 l-35 39 -235 20 c-129 10 -253 19
-275 19 -32 0 -84 -24 -256 -116z"/>
<path fill="#ffffff" stroke="none" d="M2063 1987 c4 -6 6 -71 4 -143 -4 -108
-9 -139 -27 -173 -20 -40 -23 -42 -53 -35 -91 19 -177 90 -242 198 -32 53 -34
61 -20 76 8 9 15 24 15 32 0 11 13 18 38 23 20 3 53 15 72 26 30 17 48 19 120
14 49 -3 88 -11 93 -18z"/>
</g>
</svg>
