<?xml version="1.0" standalone="no"?>
<!DOCTYPE svg PUBLIC "-//W3C//DTD SVG 20010904//EN"
 "http://www.w3.org/TR/2001/REC-SVG-20010904/DTD/svg10.dtd">
<svg version="1.0" xmlns="http://www.w3.org/2000/svg"
 width="52.000000pt" height="130.000000pt" viewBox="0 0 52.000000 130.000000"
 preserveAspectRatio="xMidYMid meet">
<metadata>
Created by potrace 1.14, written by Peter Selinger 2001-2017
</metadata>
<g transform="translate(0.000000,130.000000) scale(0.100000,-0.100000)"
fill="#000000" stroke="none">
<path fill="#000000" stroke="none" d="M157 1293 c-4 -3 -7 -37 -7 -74 0 -67
-2 -71 -58 -157 -78 -118 -98 -195 -81 -296 10 -62 17 -76 50 -107 l39 -37 0
-279 0 -279 42 4 42 4 -16 -23 c-8 -13 -28 -26 -44 -30 -28 -5 -28 -5 10 -13
34 -6 42 -4 67 20 26 25 29 35 29 88 0 34 5 144 12 246 9 145 15 188 27 197 9
7 19 13 22 13 11 0 49 -214 51 -290 2 -61 6 -81 26 -107 19 -26 21 -35 12 -52
-10 -20 -8 -21 29 -21 64 0 71 6 71 61 0 27 9 72 20 101 29 76 29 276 1 302
-26 24 -38 130 -21 190 10 36 9 54 -5 107 -10 35 -21 80 -25 99 -4 19 -21 64
-37 100 -16 36 -38 90 -48 120 -9 30 -31 70 -48 88 -28 29 -36 32 -92 32 -34
0 -65 -3 -68 -7z"/>
<path fill="#000000" stroke="none" d="M390 34 c0 -14 3 -15 18 -3 9 7 19 15
21 16 2 2 -5 3 -17 3 -14 0 -22 -6 -22 -16z"/>
</g>
</svg>
