<?xml version="1.0" standalone="no"?>
<!DOCTYPE svg PUBLIC "-//W3C//DTD SVG 20010904//EN"
 "http://www.w3.org/TR/2001/REC-SVG-20010904/DTD/svg10.dtd">
<svg version="1.0" xmlns="http://www.w3.org/2000/svg"
 width="306.000000pt" height="404.000000pt" viewBox="0 0 306.000000 404.000000"
 preserveAspectRatio="xMidYMid meet">
<metadata>
Created by potrace 1.14, written by Peter Selinger 2001-2017
</metadata>
<g transform="translate(0.000000,404.000000) scale(0.100000,-0.100000)"
fill="#000000" stroke="none">
<path fill="#000000" stroke="none" d="M1915 4033 l-111 -4 -116 -117 -117
-117 -6 -165 -7 -165 31 -78 c27 -68 31 -90 31 -172 l0 -95 -63 0 -63 0 -69
-71 c-39 -39 -132 -113 -207 -165 l-137 -94 -163 -218 c-90 -119 -207 -289
-261 -377 -84 -140 -107 -170 -180 -237 -64 -59 -100 -102 -148 -180 -35 -57
-123 -197 -196 -311 -73 -114 -133 -212 -133 -218 0 -5 31 -72 69 -148 l70
-138 185 -47 c144 -36 204 -46 267 -46 79 0 81 1 144 45 37 27 69 43 78 39 8
-3 28 1 44 9 32 16 208 70 238 72 14 1 21 10 23 30 l4 28 60 -7 c34 -3 71 -6
84 -6 22 0 22 0 8 -62 -11 -48 -22 -69 -46 -89 l-31 -26 18 -54 c10 -30 51
-142 92 -249 l75 -195 -12 -120 c-12 -111 -20 -143 -65 -249 l-16 -38 308 6
c371 8 376 9 393 44 46 100 82 234 95 351 8 69 15 133 15 142 0 13 42 28 183
68 100 28 187 51 192 51 6 0 35 60 64 133 29 72 109 246 177 386 107 220 124
261 124 303 0 27 8 63 17 81 9 18 20 64 23 102 6 57 23 110 93 280 l87 210 -7
124 c-6 125 -6 125 -75 300 -38 97 -83 210 -99 252 -29 76 -30 77 -107 124
-42 26 -114 76 -159 112 l-83 64 -36 117 -37 117 13 168 13 169 -39 36 c-22
21 -51 59 -64 85 -23 45 -34 53 -178 132 -84 47 -158 84 -165 83 -7 -1 -62 -4
-122 -5z"/>
<path fill="#ffffff" stroke="none" d="M1993 2813 c2 -5 7 -20 11 -36 6 -24 3
-28 -22 -33 -25 -5 -31 -14 -47 -62 -9 -32 -84 -238 -165 -459 -111 -300 -157
-412 -181 -442 -25 -32 -35 -38 -46 -30 -19 16 -88 -138 -110 -246 l-17 -83
-89 -7 c-49 -4 -90 -5 -92 -3 -10 11 129 352 288 703 149 331 201 436 271 545
47 74 86 141 86 148 0 13 106 18 113 5z"/>
</g>
</svg>
