<?xml version="1.0" standalone="no"?>
<!DOCTYPE svg PUBLIC "-//W3C//DTD SVG 20010904//EN"
 "http://www.w3.org/TR/2001/REC-SVG-20010904/DTD/svg10.dtd">
<svg version="1.0" xmlns="http://www.w3.org/2000/svg"
 width="110.000000pt" height="87.000000pt" viewBox="0 0 110.000000 87.000000"
 preserveAspectRatio="xMidYMid meet">
<metadata>
Created by potrace 1.14, written by Peter Selinger 2001-2017
</metadata>
<g transform="translate(0.000000,87.000000) scale(0.100000,-0.100000)"
fill="#000000" stroke="none">
<path fill="#000000" stroke="none" d="M470 834 c-47 -20 -94 -38 -105 -41
-21 -5 -267 -95 -273 -99 -2 -1 17 -66 41 -144 l45 -141 -89 -77 c-89 -77 -89
-77 -84 -117 3 -22 11 -45 18 -51 7 -6 95 -24 197 -39 102 -15 276 -49 387
-76 111 -27 204 -49 207 -49 3 0 1 12 -5 27 -8 23 -6 29 16 47 30 24 95 197
95 251 0 29 7 40 42 66 57 41 138 133 138 157 0 23 -97 64 -210 87 -68 14 -80
21 -126 66 -40 40 -50 55 -46 75 8 45 -57 94 -125 94 -21 0 -76 -16 -123 -36z"/>
</g>
</svg>
