<?xml version="1.0" standalone="no"?>
<!DOCTYPE svg PUBLIC "-//W3C//DTD SVG 20010904//EN"
 "http://www.w3.org/TR/2001/REC-SVG-20010904/DTD/svg10.dtd">
<svg version="1.0" xmlns="http://www.w3.org/2000/svg"
 width="9.000000pt" height="22.000000pt" viewBox="0 0 9.000000 22.000000"
 preserveAspectRatio="xMidYMid meet">
<metadata>
Created by potrace 1.14, written by Peter Selinger 2001-2017
</metadata>
<g transform="translate(0.000000,22.000000) scale(0.100000,-0.100000)"
fill="#000000" stroke="none">
<path fill="#000000" stroke="none" d="M0 197 c0 -13 3 -27 7 -31 12 -12 32
-119 26 -143 -5 -20 -1 -23 26 -23 l32 0 -4 53 c-2 30 -7 59 -11 65 -4 7 -2
12 3 12 21 0 11 38 -10 43 -16 4 -20 11 -16 26 4 18 0 21 -24 21 -24 0 -29 -4
-29 -23z"/>
</g>
</svg>
