<?xml version="1.0" standalone="no"?>
<!DOCTYPE svg PUBLIC "-//W3C//DTD SVG 20010904//EN"
 "http://www.w3.org/TR/2001/REC-SVG-20010904/DTD/svg10.dtd">
<svg version="1.0" xmlns="http://www.w3.org/2000/svg"
 width="11.000000pt" height="44.000000pt" viewBox="0 0 11.000000 44.000000"
 preserveAspectRatio="xMidYMid meet">
<metadata>
Created by potrace 1.14, written by Peter Selinger 2001-2017
</metadata>
<g transform="translate(0.000000,44.000000) scale(0.100000,-0.100000)"
fill="#000000" stroke="none">
<path fill="#000000" stroke="none" d="M21 431 c-10 -6 -12 -19 -7 -44 4 -21
2 -38 -4 -42 -5 -3 -10 -26 -10 -51 0 -37 4 -46 24 -56 42 -18 50 -56 26 -113
-27 -64 -24 -119 8 -123 17 -3 22 1 22 20 0 13 7 44 14 69 24 79 19 203 -12
282 -26 66 -34 75 -61 58z"/>
</g>
</svg>
