<?xml version="1.0" standalone="no"?>
<!DOCTYPE svg PUBLIC "-//W3C//DTD SVG 20010904//EN"
 "http://www.w3.org/TR/2001/REC-SVG-20010904/DTD/svg10.dtd">
<svg version="1.0" xmlns="http://www.w3.org/2000/svg"
 width="113.000000pt" height="198.000000pt" viewBox="0 0 113.000000 198.000000"
 preserveAspectRatio="xMidYMid meet">
<metadata>
Created by potrace 1.14, written by Peter Selinger 2001-2017
</metadata>
<g transform="translate(0.000000,198.000000) scale(0.100000,-0.100000)"
fill="#000000" stroke="none">
<path fill="#000000" stroke="none" d="M265 1917 l-80 -63 -3 -146 -3 -146 66
-120 65 -121 -63 -58 c-102 -96 -139 -135 -194 -206 l-53 -68 0 -137 c0 -75 3
-214 7 -307 l6 -170 276 -93 276 -93 96 -95 95 -95 87 71 c48 39 87 73 87 74
0 2 14 70 31 152 28 137 30 159 24 271 l-7 121 75 100 75 99 -50 230 -50 229
-137 51 -136 51 -3 113 -3 114 -42 55 c-24 30 -70 99 -102 153 l-59 97 -101 0
-100 -1 -80 -62z"/>
</g>
</svg>
