<?xml version="1.0" standalone="no"?>
<!DOCTYPE svg PUBLIC "-//W3C//DTD SVG 20010904//EN"
 "http://www.w3.org/TR/2001/REC-SVG-20010904/DTD/svg10.dtd">
<svg version="1.0" xmlns="http://www.w3.org/2000/svg"
 width="102.000000pt" height="212.000000pt" viewBox="0 0 102.000000 212.000000"
 preserveAspectRatio="xMidYMid meet">
<metadata>
Created by potrace 1.14, written by Peter Selinger 2001-2017
</metadata>
<g transform="translate(0.000000,212.000000) scale(0.100000,-0.100000)"
fill="#000000" stroke="none">
<path fill="#000000" stroke="none" d="M460 2094 c6 -14 10 -28 10 -31 0 -3
-46 -3 -102 1 l-103 6 -82 -55 c-75 -50 -86 -62 -117 -123 -19 -37 -39 -86
-45 -109 -11 -41 -10 -45 58 -181 l69 -139 60 -26 60 -26 -14 -66 c-12 -57
-12 -70 1 -94 14 -28 14 -28 -80 -114 l-93 -87 -42 -126 -42 -126 5 -216 c4
-185 32 -570 41 -579 2 -2 196 0 431 4 l428 8 49 108 50 109 -21 91 c-30 132
-28 285 7 502 l28 170 -57 148 -56 149 -101 101 c-92 94 -99 104 -90 127 11
28 15 444 5 476 -7 19 -61 45 -219 106 l-47 18 9 -26z"/>
</g>
</svg>
