<?xml version="1.0" standalone="no"?>
<!DOCTYPE svg PUBLIC "-//W3C//DTD SVG 20010904//EN"
 "http://www.w3.org/TR/2001/REC-SVG-20010904/DTD/svg10.dtd">
<svg version="1.0" xmlns="http://www.w3.org/2000/svg"
 width="52.000000pt" height="52.000000pt" viewBox="0 0 52.000000 52.000000"
 preserveAspectRatio="xMidYMid meet">
<metadata>
Created by potrace 1.14, written by Peter Selinger 2001-2017
</metadata>
<g transform="translate(0.000000,52.000000) scale(0.100000,-0.100000)"
fill="#000000" stroke="none">
<path fill="#000000" stroke="none" d="M150 513 c-14 -2 -39 -6 -56 -8 l-31
-5 -11 -95 c-7 -61 -7 -106 -1 -127 17 -62 12 -95 -21 -120 -28 -20 -30 -27
-30 -83 l0 -61 173 -2 c94 -1 213 -5 262 -8 l90 -6 -36 34 c-20 18 -57 60 -82
93 -25 33 -66 80 -91 105 l-46 44 0 74 c0 74 -1 75 -42 121 -47 51 -44 50 -78
44z"/>
</g>
</svg>
