<?xml version="1.0" standalone="no"?>
<!DOCTYPE svg PUBLIC "-//W3C//DTD SVG 20010904//EN"
 "http://www.w3.org/TR/2001/REC-SVG-20010904/DTD/svg10.dtd">
<svg version="1.0" xmlns="http://www.w3.org/2000/svg"
 width="30.000000pt" height="89.000000pt" viewBox="0 0 30.000000 89.000000"
 preserveAspectRatio="xMidYMid meet">
<metadata>
Created by potrace 1.14, written by Peter Selinger 2001-2017
</metadata>
<g transform="translate(0.000000,89.000000) scale(0.100000,-0.100000)"
fill="#000000" stroke="none">
<path fill="#000000" stroke="none" d="M114 883 c-21 -4 -21 -5 -7 -43 14 -36
14 -40 -4 -67 -47 -66 -63 -111 -63 -178 0 -39 -7 -81 -16 -103 -20 -44 -19
-90 2 -156 19 -57 16 -258 -4 -278 -20 -20 -14 -26 21 -19 27 5 36 15 58 61
l26 55 13 -73 c8 -40 17 -75 20 -77 4 -3 23 20 42 49 27 41 39 76 52 147 9 52
24 119 32 150 9 36 14 107 14 205 l0 150 -40 39 c-24 23 -42 52 -46 72 -3 18
-18 42 -31 53 -26 20 -30 21 -69 13z"/>
<path fill="#ffffff" stroke="none" d="M139 688 c-4 -29 -8 -84 -8 -121 -1
-50 -4 -68 -13 -64 -24 7 -2 237 22 237 3 0 3 -24 -1 -52z"/>
</g>
</svg>
