<?xml version="1.0" standalone="no"?>
<!DOCTYPE svg PUBLIC "-//W3C//DTD SVG 20010904//EN"
 "http://www.w3.org/TR/2001/REC-SVG-20010904/DTD/svg10.dtd">
<svg version="1.0" xmlns="http://www.w3.org/2000/svg"
 width="437.000000pt" height="421.000000pt" viewBox="0 0 437.000000 421.000000"
 preserveAspectRatio="xMidYMid meet">
<metadata>
Created by potrace 1.14, written by Peter Selinger 2001-2017
</metadata>
<g transform="translate(0.000000,421.000000) scale(0.100000,-0.100000)"
fill="#000000" stroke="none">
<path fill="#000000" stroke="none" d="M1593 4195 l-1012 -13 -82 -47 c-78
-46 -87 -55 -282 -297 -169 -209 -203 -256 -209 -291 -3 -23 -7 -152 -7 -287
l-1 -245 186 -250 c160 -215 407 -557 427 -591 3 -5 -32 -134 -79 -285 -46
-151 -84 -279 -84 -285 0 -7 15 -38 33 -69 31 -56 36 -59 162 -124 l129 -66
23 -100 23 -100 -28 -25 c-15 -14 -49 -43 -76 -65 l-48 -41 -54 -244 c-56
-252 -154 -738 -154 -761 0 -10 379 -11 1951 -6 1073 3 1954 8 1956 11 7 7
-24 2786 -31 2793 -3 3 -92 21 -198 40 -106 20 -196 38 -200 42 -4 3 -12 128
-18 276 l-11 269 -124 220 -124 220 -307 168 -307 168 -221 -2 c-121 0 -676
-7 -1233 -13z"/>
<path fill="#ffffff" stroke="none" d="M2306 2292 c-2 -4 -14 -32 -26 -62
l-21 -53 35 26 c64 49 98 34 191 -83 11 -14 65 -64 120 -111 120 -104 143
-128 129 -137 -6 -4 -58 -49 -116 -100 l-106 -92 -7 -75 c-6 -72 -12 -84 -122
-283 -63 -114 -119 -214 -124 -222 -6 -9 -7 184 -3 505 6 493 4 539 -21 620
-5 16 2 27 32 48 40 28 47 32 39 19z"/>
<path fill="#ffffff" stroke="none" d="M1853 1770 c12 -76 11 -102 -10 -270
-18 -149 -35 -230 -85 -412 -34 -126 -64 -228 -67 -228 -3 0 -42 40 -87 88
l-81 87 -6 104 c-6 90 -10 109 -33 142 -14 21 -46 50 -71 64 l-44 26 26 30
c14 17 25 35 25 39 0 9 413 420 417 416 2 -1 9 -40 16 -86z"/>
</g>
</svg>
