<?xml version="1.0" standalone="no"?>
<!DOCTYPE svg PUBLIC "-//W3C//DTD SVG 20010904//EN"
 "http://www.w3.org/TR/2001/REC-SVG-20010904/DTD/svg10.dtd">
<svg version="1.0" xmlns="http://www.w3.org/2000/svg"
 width="30.000000pt" height="56.000000pt" viewBox="0 0 30.000000 56.000000"
 preserveAspectRatio="xMidYMid meet">
<metadata>
Created by potrace 1.14, written by Peter Selinger 2001-2017
</metadata>
<g transform="translate(0.000000,56.000000) scale(0.100000,-0.100000)"
fill="#000000" stroke="none">
<path fill="#000000" stroke="none" d="M165 530 c-8 -16 -15 -35 -15 -43 0
-17 -55 -61 -90 -72 -49 -15 -74 -55 -35 -55 8 0 34 -14 58 -31 43 -30 44 -31
37 -76 -8 -49 5 -223 17 -234 14 -13 48 -19 61 -10 7 4 21 63 33 142 13 91 28
152 46 191 l26 57 -31 36 c-18 19 -37 56 -43 80 -14 54 -40 61 -64 15z"/>
</g>
</svg>
