<?xml version="1.0" standalone="no"?>
<!DOCTYPE svg PUBLIC "-//W3C//DTD SVG 20010904//EN"
 "http://www.w3.org/TR/2001/REC-SVG-20010904/DTD/svg10.dtd">
<svg version="1.0" xmlns="http://www.w3.org/2000/svg"
 width="369.000000pt" height="214.000000pt" viewBox="0 0 369.000000 214.000000"
 preserveAspectRatio="xMidYMid meet">
<metadata>
Created by potrace 1.14, written by Peter Selinger 2001-2017
</metadata>
<g transform="translate(0.000000,214.000000) scale(0.100000,-0.100000)"
fill="#000000" stroke="none">
<path fill="#000000" stroke="none" d="M3154 1981 c-51 -120 -75 -165 -90
-171 -14 -6 -84 -107 -183 -262 l-160 -253 69 -70 c82 -84 218 -250 244 -299
l19 -36 -27 -40 -26 -40 -73 0 c-48 0 -100 9 -157 26 -73 22 -110 27 -255 31
l-170 4 -192 -115 -192 -116 -248 23 c-233 22 -251 25 -299 52 -39 22 -62 46
-99 102 -26 41 -70 94 -97 118 -43 39 -55 44 -112 50 -64 7 -125 -1 -200 -28
-36 -12 -40 -18 -62 -88 -14 -40 -28 -91 -32 -112 l-7 -39 -182 -73 c-200 -80
-279 -95 -358 -68 -35 12 -44 12 -75 -2 -19 -9 -46 -31 -59 -48 -13 -18 -49
-50 -80 -72 l-56 -40 59 -7 c62 -8 100 -28 55 -29 -18 0 -12 -5 25 -20 l49
-20 66 22 c36 12 98 38 136 59 67 36 76 38 243 54 95 9 177 17 181 19 13 3 74
-57 93 -92 13 -23 23 -31 35 -27 10 3 34 6 53 8 33 3 36 0 65 -53 66 -123 139
-179 233 -179 31 0 54 -5 62 -14 6 -8 46 -26 89 -41 72 -24 82 -25 156 -14 44
6 93 18 109 26 16 8 65 24 109 34 71 17 86 18 126 6 29 -8 61 -10 86 -5 74 13
77 12 139 -67 32 -41 63 -75 68 -75 5 0 35 13 68 30 l59 30 -14 40 c-11 31
-12 53 -5 91 13 66 15 69 55 69 32 0 190 54 209 71 5 5 2 19 -8 33 -9 14 -16
27 -16 29 0 2 21 0 48 -4 169 -28 788 -10 936 27 60 15 70 21 97 60 l30 44
-67 128 c-37 70 -85 146 -106 170 -21 23 -43 52 -48 65 -5 12 -39 166 -76 342
-46 221 -68 356 -73 435 -7 96 -12 124 -34 167 -22 42 -27 66 -27 125 0 41 -8
99 -18 133 l-18 59 -70 -163z"/>
</g>
</svg>
