<?xml version="1.0" standalone="no"?>
<!DOCTYPE svg PUBLIC "-//W3C//DTD SVG 20010904//EN"
 "http://www.w3.org/TR/2001/REC-SVG-20010904/DTD/svg10.dtd">
<svg version="1.0" xmlns="http://www.w3.org/2000/svg"
 width="13.000000pt" height="19.000000pt" viewBox="0 0 13.000000 19.000000"
 preserveAspectRatio="xMidYMid meet">
<metadata>
Created by potrace 1.14, written by Peter Selinger 2001-2017
</metadata>
<g transform="translate(0.000000,19.000000) scale(0.100000,-0.100000)"
fill="#000000" stroke="none">
<path fill="#000000" stroke="none" d="M41 152 c-11 -22 -17 -48 -14 -64 3
-15 -2 -36 -12 -52 -10 -14 -13 -26 -7 -26 13 0 42 28 42 41 0 22 21 6 26 -21
12 -57 26 -33 25 43 0 25 4 37 14 37 10 0 7 11 -12 40 -15 22 -30 40 -35 40
-4 0 -16 -17 -27 -38z"/>
</g>
</svg>
