<?xml version="1.0" standalone="no"?>
<!DOCTYPE svg PUBLIC "-//W3C//DTD SVG 20010904//EN"
 "http://www.w3.org/TR/2001/REC-SVG-20010904/DTD/svg10.dtd">
<svg version="1.0" xmlns="http://www.w3.org/2000/svg"
 width="66.000000pt" height="185.000000pt" viewBox="0 0 66.000000 185.000000"
 preserveAspectRatio="xMidYMid meet">
<metadata>
Created by potrace 1.14, written by Peter Selinger 2001-2017
</metadata>
<g transform="translate(0.000000,185.000000) scale(0.100000,-0.100000)"
fill="#000000" stroke="none">
<path fill="#000000" stroke="none" d="M392 1838 l-53 -10 -31 -66 c-17 -37
-37 -80 -44 -96 -10 -20 -11 -32 -4 -41 6 -7 21 -44 34 -83 14 -39 35 -86 48
-105 l24 -35 47 56 c28 34 47 67 47 82 0 14 5 32 10 40 9 13 11 13 19 0 6 -8
16 -23 24 -34 12 -16 9 -31 -24 -122 -42 -113 -42 -119 -10 -314 13 -75 0 -92
-86 -120 -37 -13 -76 -29 -85 -38 -15 -12 -25 -13 -65 -3 -56 15 -73 35 -94
116 -14 56 -14 66 3 143 10 46 30 105 43 132 23 44 25 61 25 170 0 112 -1 120
-20 120 -10 0 -24 -8 -29 -17 -9 -15 -12 -16 -20 -4 -6 10 -12 5 -20 -21 -6
-19 -22 -44 -35 -55 -12 -11 -39 -47 -60 -81 l-36 -60 4 -135 c3 -111 8 -142
25 -175 18 -36 22 -70 31 -269 5 -125 14 -286 20 -358 11 -125 47 -395 54
-402 3 -3 38 -12 188 -47 11 -2 29 14 53 50 l37 53 39 423 c21 233 39 426 39
430 0 4 11 3 25 -2 19 -7 35 -6 59 4 32 13 34 19 60 123 l27 109 -26 103 c-14
57 -41 142 -60 189 -28 73 -34 104 -38 192 -5 98 -7 106 -31 125 -14 11 -26
26 -26 33 0 14 -13 14 -88 0z"/>
</g>
</svg>
