<?xml version="1.0" standalone="no"?>
<!DOCTYPE svg PUBLIC "-//W3C//DTD SVG 20010904//EN"
 "http://www.w3.org/TR/2001/REC-SVG-20010904/DTD/svg10.dtd">
<svg version="1.0" xmlns="http://www.w3.org/2000/svg"
 width="155.000000pt" height="257.000000pt" viewBox="0 0 155.000000 257.000000"
 preserveAspectRatio="xMidYMid meet">
<metadata>
Created by potrace 1.14, written by Peter Selinger 2001-2017
</metadata>
<g transform="translate(0.000000,257.000000) scale(0.100000,-0.100000)"
fill="#000000" stroke="none">
<path fill="#000000" stroke="none" d="M650 2558 c-14 -5 -79 -30 -144 -54
-65 -24 -121 -45 -123 -47 -2 -3 -10 -46 -19 -97 -11 -74 -12 -113 -4 -192 5
-55 10 -146 10 -202 l0 -102 -47 -39 c-26 -22 -70 -49 -98 -60 l-50 -20 -87
-170 c-48 -94 -87 -172 -88 -175 0 -3 114 -23 253 -44 138 -22 261 -42 273
-47 15 -5 64 -108 199 -421 98 -227 182 -431 186 -453 4 -22 38 -116 76 -208
l68 -167 34 0 c19 0 85 -14 146 -31 112 -31 114 -31 167 -15 31 10 71 32 95
54 l42 37 2 250 1 250 -76 375 c-42 206 -79 382 -82 390 -2 8 -41 40 -86 70
-112 75 -349 253 -371 278 -18 20 -18 23 32 156 57 153 62 201 40 401 -6 55
-13 124 -16 153 l-5 53 -91 45 c-78 38 -99 44 -151 43 -34 0 -72 -5 -86 -11z"/>
</g>
</svg>
