<?xml version="1.0" standalone="no"?>
<!DOCTYPE svg PUBLIC "-//W3C//DTD SVG 20010904//EN"
 "http://www.w3.org/TR/2001/REC-SVG-20010904/DTD/svg10.dtd">
<svg version="1.0" xmlns="http://www.w3.org/2000/svg"
 width="39.000000pt" height="181.000000pt" viewBox="0 0 39.000000 181.000000"
 preserveAspectRatio="xMidYMid meet">
<metadata>
Created by potrace 1.14, written by Peter Selinger 2001-2017
</metadata>
<g transform="translate(0.000000,181.000000) scale(0.100000,-0.100000)"
fill="#000000" stroke="none">
<path fill="#000000" stroke="none" d="M103 1797 l-43 -10 0 -48 c0 -39 -4
-49 -20 -54 -21 -7 -28 -49 -11 -60 5 -3 17 -31 26 -63 20 -67 15 -140 -13
-180 -41 -59 -52 -168 -28 -279 7 -34 11 -65 7 -69 -3 -4 12 -3 34 0 22 4 43
11 46 14 3 4 16 90 29 192 29 241 41 281 35 120 -5 -129 -25 -272 -50 -350 -8
-25 -17 -69 -21 -98 -6 -47 -4 -56 22 -93 22 -32 26 -44 17 -57 -11 -18 -25
-19 -56 -7 -18 7 -18 6 -1 -31 9 -22 23 -66 31 -99 8 -33 29 -107 48 -165 l33
-105 -16 -121 -16 -122 -49 -17 c-39 -14 -52 -25 -63 -51 -8 -18 -14 -36 -14
-39 0 -3 48 -5 108 -4 75 0 122 6 157 18 l50 18 -3 74 c-2 41 -14 188 -27 327
l-23 253 39 92 40 92 -2 255 c-1 169 2 274 10 311 11 51 10 60 -7 90 -11 19
-39 89 -63 156 l-44 123 -60 -1 c-33 -1 -79 -6 -102 -12z"/>
<path fill="#000000" stroke="none" d="M65 830 c-3 -5 -15 -10 -26 -10 -19 0
-19 -1 -2 -24 15 -20 19 -21 22 -8 1 10 10 25 19 35 8 9 10 17 4 17 -6 0 -14
-4 -17 -10z"/>
</g>
</svg>
