<?xml version="1.0" standalone="no"?>
<!DOCTYPE svg PUBLIC "-//W3C//DTD SVG 20010904//EN"
 "http://www.w3.org/TR/2001/REC-SVG-20010904/DTD/svg10.dtd">
<svg version="1.0" xmlns="http://www.w3.org/2000/svg"
 width="20.000000pt" height="40.000000pt" viewBox="0 0 20.000000 40.000000"
 preserveAspectRatio="xMidYMid meet">
<metadata>
Created by potrace 1.14, written by Peter Selinger 2001-2017
</metadata>
<g transform="translate(0.000000,40.000000) scale(0.100000,-0.100000)"
fill="#000000" stroke="none">
<path fill="#000000" stroke="none" d="M82 388 c-7 -7 -12 -30 -12 -53 0 -33
-7 -49 -35 -79 -19 -21 -35 -40 -35 -41 0 -2 11 -6 24 -9 25 -6 36 -38 36
-103 0 -43 16 -73 38 -73 10 0 27 -7 39 -15 20 -14 21 -14 28 80 4 62 11 98
20 103 17 9 -4 73 -35 107 -11 12 -25 39 -31 59 -11 38 -18 43 -37 24z"/>
</g>
</svg>
