<?xml version="1.0" standalone="no"?>
<!DOCTYPE svg PUBLIC "-//W3C//DTD SVG 20010904//EN"
 "http://www.w3.org/TR/2001/REC-SVG-20010904/DTD/svg10.dtd">
<svg version="1.0" xmlns="http://www.w3.org/2000/svg"
 width="99.000000pt" height="232.000000pt" viewBox="0 0 99.000000 232.000000"
 preserveAspectRatio="xMidYMid meet">
<metadata>
Created by potrace 1.14, written by Peter Selinger 2001-2017
</metadata>
<g transform="translate(0.000000,232.000000) scale(0.100000,-0.100000)"
fill="#000000" stroke="none">
<path fill="#000000" stroke="none" d="M478 2292 c-62 -29 -84 -53 -150 -167
-39 -66 -42 -76 -54 -198 -12 -126 -13 -129 -50 -174 -25 -30 -51 -84 -80
-162 -23 -64 -60 -147 -82 -186 -32 -56 -42 -87 -51 -156 l-11 -86 35 -76 c25
-56 47 -136 80 -298 43 -204 46 -228 40 -312 -6 -70 -13 -102 -31 -134 l-24
-42 28 -63 c16 -35 34 -85 41 -113 7 -27 16 -67 22 -87 l10 -38 178 0 179 0
27 48 c15 26 105 126 200 222 164 167 173 178 190 237 30 103 17 206 -61 472
-36 123 -85 305 -109 404 l-43 179 35 39 34 38 9 148 c5 81 10 194 10 250 l0
101 -62 50 c-61 48 -215 132 -240 132 -7 -1 -39 -13 -70 -28z"/>
</g>
</svg>
