<?xml version="1.0" standalone="no"?>
<!DOCTYPE svg PUBLIC "-//W3C//DTD SVG 20010904//EN"
 "http://www.w3.org/TR/2001/REC-SVG-20010904/DTD/svg10.dtd">
<svg version="1.0" xmlns="http://www.w3.org/2000/svg"
 width="14.000000pt" height="29.000000pt" viewBox="0 0 14.000000 29.000000"
 preserveAspectRatio="xMidYMid meet">
<metadata>
Created by potrace 1.14, written by Peter Selinger 2001-2017
</metadata>
<g transform="translate(0.000000,29.000000) scale(0.100000,-0.100000)"
fill="#000000" stroke="none">
<path fill="#000000" stroke="none" d="M36 243 c-3 -27 -6 -59 -6 -73 0 -14
-6 -58 -14 -98 -13 -67 -12 -73 3 -70 11 2 17 16 19 46 2 24 8 42 15 42 17 0
60 -67 52 -79 -10 -17 11 -13 25 4 11 13 8 21 -17 48 -37 39 -48 70 -33 97 8
15 8 35 0 75 -14 70 -36 73 -44 8z"/>
</g>
</svg>
