<?xml version="1.0" standalone="no"?>
<!DOCTYPE svg PUBLIC "-//W3C//DTD SVG 20010904//EN"
 "http://www.w3.org/TR/2001/REC-SVG-20010904/DTD/svg10.dtd">
<svg version="1.0" xmlns="http://www.w3.org/2000/svg"
 width="147.000000pt" height="182.000000pt" viewBox="0 0 147.000000 182.000000"
 preserveAspectRatio="xMidYMid meet">
<metadata>
Created by potrace 1.14, written by Peter Selinger 2001-2017
</metadata>
<g transform="translate(0.000000,182.000000) scale(0.100000,-0.100000)"
fill="#000000" stroke="none">
<path fill="#000000" stroke="none" d="M255 1813 c-16 -3 -67 -28 -112 -56
l-83 -52 -2 -95 c-5 -198 -7 -189 55 -266 31 -38 57 -72 57 -76 0 -3 -29 -33
-64 -65 -93 -85 -109 -122 -104 -244 3 -92 5 -100 32 -128 21 -22 33 -27 45
-21 9 5 48 15 86 23 78 14 167 6 261 -26 50 -17 52 -19 91 -105 62 -132 67
-164 43 -272 -26 -118 -28 -258 -3 -267 26 -10 154 -106 182 -137 31 -33 36
-33 49 1 28 71 32 162 12 272 -11 58 -20 120 -20 136 0 21 -9 38 -32 58 l-33
27 33 29 34 29 -16 106 c-33 223 -24 238 179 297 44 13 96 31 115 41 19 10 51
18 70 18 29 1 39 7 62 40 22 32 34 40 58 40 42 0 221 90 218 110 -4 21 -60 25
-95 6 -16 -8 -45 -17 -64 -21 -42 -8 -57 12 -37 48 11 21 10 21 -8 7 -10 -8
-25 -24 -33 -34 -31 -41 -62 -60 -104 -62 -23 -1 -81 -11 -130 -23 l-87 -22
-53 19 c-28 11 -107 48 -174 82 l-121 61 22 51 22 50 -28 132 c-27 126 -29
132 -68 166 -31 28 -40 43 -40 68 0 25 -6 35 -30 47 -28 14 -113 18 -185 8z"/>
</g>
</svg>
