<?xml version="1.0" standalone="no"?>
<!DOCTYPE svg PUBLIC "-//W3C//DTD SVG 20010904//EN"
 "http://www.w3.org/TR/2001/REC-SVG-20010904/DTD/svg10.dtd">
<svg version="1.0" xmlns="http://www.w3.org/2000/svg"
 width="254.000000pt" height="405.000000pt" viewBox="0 0 254.000000 405.000000"
 preserveAspectRatio="xMidYMid meet">
<metadata>
Created by potrace 1.14, written by Peter Selinger 2001-2017
</metadata>
<g transform="translate(0.000000,405.000000) scale(0.100000,-0.100000)"
fill="#000000" stroke="none">
<path fill="#000000" stroke="none" d="M2175 4009 c-55 -22 -190 -61 -300 -88
l-201 -47 -264 -185 c-146 -102 -332 -231 -415 -286 -156 -104 -223 -166 -410
-381 -79 -91 -81 -92 -212 -154 -73 -34 -133 -68 -133 -74 0 -7 -15 -18 -34
-25 -18 -8 -72 -55 -120 -107 -68 -72 -85 -97 -81 -115 2 -12 9 -58 16 -102 8
-56 24 -107 54 -172 24 -51 47 -93 52 -93 4 0 80 -9 168 -21 138 -18 192 -20
400 -15 213 4 251 8 335 30 l95 25 32 -31 c18 -18 33 -35 33 -38 0 -3 -60 -41
-134 -83 -74 -43 -140 -85 -148 -94 -7 -9 5 -5 28 10 103 65 347 64 484 -2 40
-20 87 -90 94 -143 6 -41 4 -52 -18 -80 -15 -20 -35 -74 -51 -139 -39 -150
-38 -149 -160 -135 -122 13 -187 34 -225 70 -19 19 -46 39 -58 46 -29 15 -72
5 -72 -16 0 -23 57 -92 83 -100 26 -7 55 -32 68 -55 8 -15 4 -16 -34 -12 -23
3 -52 12 -64 19 -35 22 -36 17 -5 -28 16 -24 45 -74 65 -113 41 -82 67 -109
123 -125 l42 -12 131 -337 c159 -407 160 -412 79 -482 -29 -25 -68 -56 -85
-69 -18 -13 -33 -27 -33 -31 0 -10 150 -174 181 -198 l26 -20 119 33 c124 35
499 170 520 187 21 17 27 188 14 365 l-12 166 56 57 c36 36 91 75 153 110 54
29 108 60 119 70 l21 17 23 1473 c12 810 18 1476 14 1481 -7 6 -206 74 -249
86 -5 1 -55 -16 -110 -37z"/>
</g>
</svg>
