<?xml version="1.0" standalone="no"?>
<!DOCTYPE svg PUBLIC "-//W3C//DTD SVG 20010904//EN"
 "http://www.w3.org/TR/2001/REC-SVG-20010904/DTD/svg10.dtd">
<svg version="1.0" xmlns="http://www.w3.org/2000/svg"
 width="85.000000pt" height="96.000000pt" viewBox="0 0 85.000000 96.000000"
 preserveAspectRatio="xMidYMid meet">
<metadata>
Created by potrace 1.14, written by Peter Selinger 2001-2017
</metadata>
<g transform="translate(0.000000,96.000000) scale(0.100000,-0.100000)"
fill="#000000" stroke="none">
<path fill="#000000" stroke="none" d="M705 949 c-35 -10 -64 -45 -65 -75 0
-25 -18 -34 -65 -34 -23 0 -38 -6 -44 -19 -15 -27 -69 -32 -113 -10 -40 20
-48 14 -48 -37 0 -24 0 -24 115 -24 63 0 115 -2 115 -5 0 -11 -50 -104 -58
-109 -5 -3 -37 20 -71 50 -61 56 -91 64 -91 27 0 -31 25 -68 44 -68 11 0 33
-17 49 -38 l31 -38 -26 -52 c-18 -36 -50 -73 -106 -122 -51 -44 -79 -76 -76
-85 7 -28 -77 -96 -190 -152 l-109 -55 54 -6 c45 -6 70 -2 147 24 51 17 106
42 123 56 28 24 31 24 48 9 24 -22 25 -21 79 20 l47 36 7 -44 c3 -23 7 -78 7
-120 l1 -78 28 0 c21 0 32 7 40 25 8 18 22 26 52 31 l40 7 0 51 c1 28 7 80 15
116 8 36 14 86 15 112 0 42 3 49 30 63 20 10 30 23 30 38 0 12 21 74 46 139
l47 117 -27 31 c-14 17 -26 40 -26 51 0 11 -4 17 -10 14 -5 -3 -3 10 6 30 13
33 13 39 -7 85 -22 52 -30 56 -84 39z"/>
</g>
</svg>
