<?xml version="1.0" standalone="no"?>
<!DOCTYPE svg PUBLIC "-//W3C//DTD SVG 20010904//EN"
 "http://www.w3.org/TR/2001/REC-SVG-20010904/DTD/svg10.dtd">
<svg version="1.0" xmlns="http://www.w3.org/2000/svg"
 width="255.000000pt" height="429.000000pt" viewBox="0 0 255.000000 429.000000"
 preserveAspectRatio="xMidYMid meet">
<metadata>
Created by potrace 1.14, written by Peter Selinger 2001-2017
</metadata>
<g transform="translate(0.000000,429.000000) scale(0.100000,-0.100000)"
fill="#000000" stroke="none">
<path fill="#000000" stroke="none" d="M641 4175 c-80 -63 -148 -120 -151
-127 -14 -26 -42 -210 -70 -453 l-28 -250 96 -241 97 -241 118 -10 c96 -9 121
-14 132 -29 18 -25 18 -25 -180 -59 l-160 -27 -152 -86 -153 -86 0 -55 c0 -31
7 -303 15 -605 l16 -549 -42 -141 c-23 -78 -72 -214 -110 -303 -61 -144 -69
-169 -69 -225 1 -70 25 -296 32 -304 3 -2 16 -1 29 4 73 27 68 30 177 -92
l102 -114 0 -81 0 -81 148 1 c131 1 141 3 92 12 -30 5 -56 11 -58 12 -2 2 35
88 82 191 46 104 106 255 132 337 l48 147 36 -1 c19 0 61 -4 92 -8 37 -4 62
-3 69 3 9 8 10 6 5 -9 -5 -11 -32 -90 -62 -175 -29 -85 -82 -234 -118 -330
-35 -96 -63 -176 -62 -177 5 -5 1300 -22 1305 -18 2 3 -29 164 -69 360 -41
195 -71 357 -68 360 3 4 132 9 287 12 154 3 281 7 282 7 0 1 15 164 32 364
l33 363 -198 532 c-109 292 -202 534 -206 538 -4 3 -50 44 -102 91 -73 66
-120 98 -200 138 l-105 52 50 -54 c28 -29 99 -103 158 -165 59 -61 105 -117
102 -125 -2 -7 -41 -166 -86 -353 -44 -187 -88 -352 -98 -366 -9 -14 -121
-162 -250 -328 l-234 -301 -41 0 c-39 0 -47 6 -216 175 l-175 174 -23 -17 -24
-18 74 -90 74 -89 -25 -38 -26 -37 -88 6 c-48 4 -102 10 -120 13 l-32 7 -58
239 -59 239 70 318 70 317 204 253 204 253 195 22 c107 12 203 22 214 23 11 1
-17 20 -66 45 -81 41 -88 47 -139 124 -29 45 -51 83 -49 85 2 2 39 19 83 37
43 18 79 37 81 43 2 6 8 156 13 334 l10 323 -128 207 -128 207 -243 2 -244 2
-144 -114z"/>
</g>
</svg>
