<?xml version="1.0" standalone="no"?>
<!DOCTYPE svg PUBLIC "-//W3C//DTD SVG 20010904//EN"
 "http://www.w3.org/TR/2001/REC-SVG-20010904/DTD/svg10.dtd">
<svg version="1.0" xmlns="http://www.w3.org/2000/svg"
 width="34.000000pt" height="55.000000pt" viewBox="0 0 34.000000 55.000000"
 preserveAspectRatio="xMidYMid meet">
<metadata>
Created by potrace 1.14, written by Peter Selinger 2001-2017
</metadata>
<g transform="translate(0.000000,55.000000) scale(0.100000,-0.100000)"
fill="#000000" stroke="none">
<path fill="#000000" stroke="none" d="M73 531 c-46 -29 -60 -57 -67 -137 -6
-64 -4 -79 21 -138 l27 -67 36 6 c72 12 140 -35 140 -96 0 -20 36 -99 46 -99
3 0 19 7 36 16 l30 16 -30 31 c-54 57 -63 93 -46 194 8 48 14 115 14 149 0 54
-3 65 -33 99 -29 34 -39 38 -88 42 -42 3 -61 0 -86 -16z"/>
</g>
</svg>
