<?xml version="1.0" standalone="no"?>
<!DOCTYPE svg PUBLIC "-//W3C//DTD SVG 20010904//EN"
 "http://www.w3.org/TR/2001/REC-SVG-20010904/DTD/svg10.dtd">
<svg version="1.0" xmlns="http://www.w3.org/2000/svg"
 width="393.000000pt" height="400.000000pt" viewBox="0 0 393.000000 400.000000"
 preserveAspectRatio="xMidYMid meet">
<metadata>
Created by potrace 1.14, written by Peter Selinger 2001-2017
</metadata>
<g transform="translate(0.000000,400.000000) scale(0.100000,-0.100000)"
fill="#000000" stroke="none">
<path fill="#000000" stroke="none" d="M634 3981 c-58 -14 -86 -29 -165 -88
-93 -70 -95 -72 -129 -154 -32 -76 -45 -94 -144 -194 -95 -96 -114 -120 -143
-188 -19 -43 -38 -102 -43 -130 -5 -30 -2 -241 6 -497 7 -245 14 -510 14 -590
0 -195 22 -267 121 -391 38 -47 76 -92 85 -99 8 -8 41 -57 71 -109 38 -64 86
-127 147 -191 191 -200 229 -253 314 -436 43 -93 135 -277 204 -409 145 -276
180 -346 202 -397 16 -40 58 -67 132 -87 66 -18 1064 -16 1129 1 60 17 222
124 268 179 17 21 44 41 59 44 23 6 29 2 52 -37 47 -81 81 -105 181 -128 50
-11 118 -31 151 -45 57 -22 65 -23 117 -11 30 7 68 23 83 35 26 21 122 192
167 296 9 23 39 63 66 90 37 37 51 58 53 84 3 33 4 34 93 61 82 25 93 32 127
74 20 25 46 72 58 103 19 50 21 69 15 138 -10 103 -45 195 -100 259 -35 42
-59 58 -125 86 -74 31 -84 39 -104 78 l-22 44 -30 -45 c-16 -25 -49 -61 -74
-81 l-45 -35 -27 26 c-16 16 -28 38 -28 52 0 14 -3 43 -6 64 -8 45 -21 47
-112 16 -60 -20 -62 -22 -69 -62 -11 -70 -57 -109 -176 -151 -196 -68 -198
-69 -342 -51 -161 20 -208 42 -256 117 -72 114 -136 181 -286 298 -101 78
-102 80 -123 146 -11 37 -19 68 -18 69 2 1 37 14 79 29 77 27 196 48 344 61
80 7 145 33 145 58 0 7 5 29 11 50 9 34 12 37 48 37 44 0 66 19 56 49 -6 20
-14 24 -73 36 -29 6 -33 10 -28 33 20 99 19 102 -4 102 -34 0 -129 -30 -184
-57 -33 -17 -103 -34 -221 -54 -95 -16 -189 -36 -209 -44 -42 -18 -128 -11
-151 11 -7 8 -19 14 -25 14 -14 0 -133 113 -201 192 l-49 56 26 74 c19 53 38
86 71 119 45 46 45 48 69 179 21 109 31 142 59 186 l34 53 -24 73 c-13 40 -43
116 -67 168 l-44 95 12 85 c6 47 14 140 18 207 l8 122 -65 46 c-36 26 -109 66
-163 89 -55 23 -127 58 -161 78 -51 30 -88 42 -215 67 -288 57 -331 60 -444
32z"/>
</g>
</svg>
