<?xml version="1.0" standalone="no"?>
<!DOCTYPE svg PUBLIC "-//W3C//DTD SVG 20010904//EN"
 "http://www.w3.org/TR/2001/REC-SVG-20010904/DTD/svg10.dtd">
<svg version="1.0" xmlns="http://www.w3.org/2000/svg"
 width="77.000000pt" height="88.000000pt" viewBox="0 0 77.000000 88.000000"
 preserveAspectRatio="xMidYMid meet">
<metadata>
Created by potrace 1.14, written by Peter Selinger 2001-2017
</metadata>
<g transform="translate(0.000000,88.000000) scale(0.100000,-0.100000)"
fill="#000000" stroke="none">
<path fill="#000000" stroke="none" d="M305 866 c-46 -20 -58 -40 -53 -90 3
-25 0 -57 -8 -76 -8 -18 -14 -46 -15 -64 0 -34 -34 -68 -80 -79 -20 -5 -33
-21 -51 -59 -13 -29 -42 -90 -63 -135 l-39 -82 19 -35 c17 -32 18 -41 6 -135
-8 -56 -11 -105 -7 -108 9 -9 85 15 131 41 44 25 150 42 160 26 9 -15 25 -12
19 4 -6 16 61 60 109 71 15 4 27 10 27 14 0 4 40 15 90 26 l90 19 -6 37 c-7
42 0 46 72 41 30 -3 44 -9 47 -20 3 -12 6 -8 12 12 6 22 4 31 -9 38 -9 5 -23
23 -32 41 -9 18 -41 58 -70 89 -30 31 -54 62 -54 70 0 7 -9 24 -20 38 -11 14
-20 33 -20 42 0 10 -13 32 -28 50 -38 44 -52 81 -52 131 0 24 -8 56 -20 75
-18 30 -24 32 -72 32 -29 -1 -67 -7 -83 -14z"/>
<path fill="#ffffff" stroke="none" d="M401 213 c-21 -40 -38 -52 -76 -58
l-40 -6 35 20 c19 10 44 28 54 40 23 25 40 28 27 4z"/>
</g>
</svg>
