<?xml version="1.0" standalone="no"?>
<!DOCTYPE svg PUBLIC "-//W3C//DTD SVG 20010904//EN"
 "http://www.w3.org/TR/2001/REC-SVG-20010904/DTD/svg10.dtd">
<svg version="1.0" xmlns="http://www.w3.org/2000/svg"
 width="107.000000pt" height="159.000000pt" viewBox="0 0 107.000000 159.000000"
 preserveAspectRatio="xMidYMid meet">
<metadata>
Created by potrace 1.14, written by Peter Selinger 2001-2017
</metadata>
<g transform="translate(0.000000,159.000000) scale(0.100000,-0.100000)"
fill="#000000" stroke="none">
<path fill="#000000" stroke="none" d="M472 1570 c-6 -11 -12 -31 -12 -45 0
-13 -12 -55 -27 -91 -35 -85 -83 -127 -201 -174 l-87 -36 -39 -74 c-35 -66
-43 -95 -72 -269 -36 -205 -44 -341 -21 -341 6 0 31 18 54 40 37 36 42 47 48
98 3 31 18 100 34 152 16 52 46 170 67 263 l38 167 39 0 c34 0 38 -3 32 -17
-5 -10 -28 -128 -52 -263 -41 -232 -47 -301 -25 -334 4 -6 12 -60 18 -121 13
-136 -1 -228 -51 -347 -21 -50 -35 -99 -35 -124 l0 -42 365 -7 c202 -4 367 -6
369 -4 1 2 -8 103 -21 224 -19 175 -28 224 -42 240 -18 20 -41 95 -41 133 0
20 23 26 167 48 38 5 43 9 48 37 33 199 46 305 40 333 -7 38 -27 60 -137 146
-94 73 -98 87 -75 231 23 143 18 149 -140 162 -59 4 -96 12 -104 21 -7 9 -32
14 -68 14 -45 0 -59 -4 -69 -20z"/>
</g>
</svg>
