<?xml version="1.0" standalone="no"?>
<!DOCTYPE svg PUBLIC "-//W3C//DTD SVG 20010904//EN"
 "http://www.w3.org/TR/2001/REC-SVG-20010904/DTD/svg10.dtd">
<svg version="1.0" xmlns="http://www.w3.org/2000/svg"
 width="19.000000pt" height="53.000000pt" viewBox="0 0 19.000000 53.000000"
 preserveAspectRatio="xMidYMid meet">
<metadata>
Created by potrace 1.14, written by Peter Selinger 2001-2017
</metadata>
<g transform="translate(0.000000,53.000000) scale(0.100000,-0.100000)"
fill="#000000" stroke="none">
<path fill="#000000" stroke="none" d="M37 513 c-3 -10 -5 -42 -5 -71 -1 -30
-7 -61 -16 -74 -20 -29 -20 -33 3 -55 17 -16 19 -29 14 -151 -5 -102 -9 -132
-19 -132 -24 0 -15 -17 11 -22 28 -6 30 -1 40 84 9 80 30 68 39 -23 10 -95 32
-94 29 2 -1 56 4 81 22 118 47 95 40 222 -14 251 -12 6 -21 19 -21 28 0 48
-72 87 -83 45z"/>
</g>
</svg>
