<?xml version="1.0" standalone="no"?>
<!DOCTYPE svg PUBLIC "-//W3C//DTD SVG 20010904//EN"
 "http://www.w3.org/TR/2001/REC-SVG-20010904/DTD/svg10.dtd">
<svg version="1.0" xmlns="http://www.w3.org/2000/svg"
 width="45.000000pt" height="175.000000pt" viewBox="0 0 45.000000 175.000000"
 preserveAspectRatio="xMidYMid meet">
<metadata>
Created by potrace 1.14, written by Peter Selinger 2001-2017
</metadata>
<g transform="translate(0.000000,175.000000) scale(0.100000,-0.100000)"
fill="#000000" stroke="none">
<path fill="#000000" stroke="none" d="M178 1713 l-78 -36 0 -71 0 -70 -50
-51 -49 -50 65 -102 66 -103 22 -221 22 -220 -58 -78 -57 -77 -27 -313 c-14
-172 -24 -313 -23 -315 7 -4 280 12 285 17 3 3 -4 27 -16 54 l-21 49 19 152
c16 138 17 165 5 278 l-14 125 24 29 c15 18 29 53 37 94 7 36 16 66 20 66 5 0
29 -24 54 -52 l46 -53 0 83 c0 55 -8 117 -24 180 -13 53 -30 147 -36 207 -12
108 -13 111 -53 152 l-40 42 20 99 20 99 -36 62 c-20 33 -38 60 -41 60 -3 0
-40 -16 -82 -36z"/>
</g>
</svg>
