<?xml version="1.0" standalone="no"?>
<!DOCTYPE svg PUBLIC "-//W3C//DTD SVG 20010904//EN"
 "http://www.w3.org/TR/2001/REC-SVG-20010904/DTD/svg10.dtd">
<svg version="1.0" xmlns="http://www.w3.org/2000/svg"
 width="43.000000pt" height="63.000000pt" viewBox="0 0 43.000000 63.000000"
 preserveAspectRatio="xMidYMid meet">
<metadata>
Created by potrace 1.14, written by Peter Selinger 2001-2017
</metadata>
<g transform="translate(0.000000,63.000000) scale(0.100000,-0.100000)"
fill="#000000" stroke="none">
<path fill="#000000" stroke="none" d="M0 601 c0 -15 9 -40 20 -53 21 -27 49
-30 292 -31 55 -1 56 -1 42 -21 -16 -23 -19 -92 -5 -101 6 -3 4 -17 -4 -33
-45 -91 -48 -100 -41 -134 4 -20 14 -42 22 -49 14 -11 13 -14 -5 -21 -27 -9
-37 -36 -24 -57 8 -12 5 -18 -11 -26 -25 -13 -32 -40 -16 -60 15 -18 111 -20
128 -3 18 18 15 46 -6 59 -18 11 -17 13 10 39 l28 27 0 247 0 246 -215 0 -215
0 0 -29z"/>
<path fill="#000000" stroke="none" d="M0 309 c0 -45 5 -81 11 -84 6 -4 8 -13
5 -21 -7 -18 40 -19 51 -1 4 7 21 18 36 25 33 14 44 38 29 62 -9 15 -7 19 9
23 24 6 35 35 22 56 -8 12 -28 16 -87 17 l-76 0 0 -77z"/>
<path fill="#ffffff" stroke="none" d="M50 300 c0 -5 -4 -10 -10 -10 -5 0 -10
5 -10 10 0 6 5 10 10 10 6 0 10 -4 10 -10z"/>
</g>
</svg>
