<?xml version="1.0" standalone="no"?>
<!DOCTYPE svg PUBLIC "-//W3C//DTD SVG 20010904//EN"
 "http://www.w3.org/TR/2001/REC-SVG-20010904/DTD/svg10.dtd">
<svg version="1.0" xmlns="http://www.w3.org/2000/svg"
 width="12.000000pt" height="27.000000pt" viewBox="0 0 12.000000 27.000000"
 preserveAspectRatio="xMidYMid meet">
<metadata>
Created by potrace 1.14, written by Peter Selinger 2001-2017
</metadata>
<g transform="translate(0.000000,27.000000) scale(0.100000,-0.100000)"
fill="#000000" stroke="none">
<path fill="#000000" stroke="none" d="M50 247 c0 -13 -11 -34 -25 -47 -27
-25 -30 -51 -18 -148 l6 -53 51 3 c48 3 51 5 54 31 3 22 -1 30 -17 34 -27 7
-27 38 0 82 14 23 19 46 17 75 -3 38 -5 41 -35 44 -29 3 -33 0 -33 -21z"/>
</g>
</svg>
