<?xml version="1.0" standalone="no"?>
<!DOCTYPE svg PUBLIC "-//W3C//DTD SVG 20010904//EN"
 "http://www.w3.org/TR/2001/REC-SVG-20010904/DTD/svg10.dtd">
<svg version="1.0" xmlns="http://www.w3.org/2000/svg"
 width="89.000000pt" height="349.000000pt" viewBox="0 0 89.000000 349.000000"
 preserveAspectRatio="xMidYMid meet">
<metadata>
Created by potrace 1.14, written by Peter Selinger 2001-2017
</metadata>
<g transform="translate(0.000000,349.000000) scale(0.100000,-0.100000)"
fill="#000000" stroke="none">
<path fill="#000000" stroke="none" d="M341 3371 l-134 -117 -82 -184 c-77
-169 -83 -189 -90 -269 -3 -47 -9 -95 -11 -107 -5 -18 1 -22 38 -30 32 -7 46
-16 56 -37 25 -52 52 -187 52 -260 0 -107 -37 -390 -75 -577 l-34 -165 80
-136 c66 -113 91 -169 141 -316 l60 -178 13 -230 c7 -126 12 -233 10 -236 -2
-3 -74 -40 -159 -83 -119 -59 -157 -83 -161 -99 -2 -12 -11 -78 -20 -147 -8
-69 -18 -142 -21 -162 l-6 -38 398 0 397 0 -7 188 c-4 103 -14 302 -22 442 -7
140 -14 336 -14 435 0 132 -5 209 -19 290 l-20 110 55 420 c29 231 69 503 88
605 l35 185 -76 73 -76 72 -24 153 c-19 126 -22 175 -17 287 l6 135 -79 48
c-118 71 -120 70 -282 -72z"/>
</g>
</svg>
