<?xml version="1.0" standalone="no"?>
<!DOCTYPE svg PUBLIC "-//W3C//DTD SVG 20010904//EN"
 "http://www.w3.org/TR/2001/REC-SVG-20010904/DTD/svg10.dtd">
<svg version="1.0" xmlns="http://www.w3.org/2000/svg"
 width="42.000000pt" height="67.000000pt" viewBox="0 0 42.000000 67.000000"
 preserveAspectRatio="xMidYMid meet">
<metadata>
Created by potrace 1.14, written by Peter Selinger 2001-2017
</metadata>
<g transform="translate(0.000000,67.000000) scale(0.100000,-0.100000)"
fill="#000000" stroke="none">
<path fill="#000000" stroke="none" d="M148 647 c-35 -20 -37 -25 -31 -56 3
-19 25 -62 49 -96 54 -77 52 -105 -9 -105 -32 0 -138 -25 -155 -36 -2 -1 1
-12 8 -23 9 -18 20 -21 76 -21 61 0 64 -1 54 -19 -5 -11 -10 -64 -10 -118 l0
-99 -36 -17 c-66 -32 -29 -54 94 -56 l72 -1 0 108 c0 59 4 113 8 119 4 7 41
16 80 19 61 6 72 10 67 23 -4 9 -11 42 -17 75 -9 49 -8 64 6 93 16 34 16 36
-9 69 -17 23 -39 37 -68 44 -23 6 -48 13 -54 15 -7 2 -18 25 -24 50 -6 25 -17
45 -24 45 -8 0 -19 2 -27 5 -7 2 -30 -6 -50 -18z"/>
</g>
</svg>
