<?xml version="1.0" standalone="no"?>
<!DOCTYPE svg PUBLIC "-//W3C//DTD SVG 20010904//EN"
 "http://www.w3.org/TR/2001/REC-SVG-20010904/DTD/svg10.dtd">
<svg version="1.0" xmlns="http://www.w3.org/2000/svg"
 width="149.000000pt" height="46.000000pt" viewBox="0 0 149.000000 46.000000"
 preserveAspectRatio="xMidYMid meet">
<metadata>
Created by potrace 1.14, written by Peter Selinger 2001-2017
</metadata>
<g transform="translate(0.000000,46.000000) scale(0.100000,-0.100000)"
fill="#000000" stroke="none">
<path fill="#000000" stroke="none" d="M301 439 l-22 -18 20 -63 19 -63 -20
-22 c-36 -39 -195 -123 -232 -123 -33 0 -66 -21 -66 -41 0 -14 137 -10 210 6
36 8 70 14 75 15 6 0 20 -21 33 -47 39 -83 45 -88 94 -74 23 7 54 26 68 41 24
26 26 34 22 96 -3 57 -10 79 -39 127 -31 52 -34 63 -28 106 8 57 -1 66 -66 73
-34 4 -51 1 -68 -13z"/>
<path fill="#000000" stroke="none" d="M1300 440 c-8 -15 -7 -26 5 -44 9 -14
19 -51 22 -83 3 -32 10 -64 15 -70 11 -14 13 -76 3 -92 -9 -16 -4 -14 71 27
78 42 91 68 54 107 -14 15 -23 41 -27 79 -6 53 -7 56 -48 76 -52 25 -81 25
-95 0z"/>
</g>
</svg>
