<?xml version="1.0" standalone="no"?>
<!DOCTYPE svg PUBLIC "-//W3C//DTD SVG 20010904//EN"
 "http://www.w3.org/TR/2001/REC-SVG-20010904/DTD/svg10.dtd">
<svg version="1.0" xmlns="http://www.w3.org/2000/svg"
 width="37.000000pt" height="39.000000pt" viewBox="0 0 37.000000 39.000000"
 preserveAspectRatio="xMidYMid meet">
<metadata>
Created by potrace 1.14, written by Peter Selinger 2001-2017
</metadata>
<g transform="translate(0.000000,39.000000) scale(0.100000,-0.100000)"
fill="#000000" stroke="none">
<path fill="#000000" stroke="none" d="M42 363 c-24 -16 -42 -35 -42 -46 0 -9
24 -53 54 -96 57 -84 73 -132 56 -175 -5 -15 -10 -32 -10 -38 0 -15 142 -6
148 10 2 7 10 12 18 12 16 0 17 1 14 108 l-2 84 44 -4 43 -3 3 47 c3 40 0 48
-20 59 -12 7 -29 18 -36 26 -7 7 -25 15 -40 18 -15 3 -43 10 -63 15 -67 18
-122 12 -167 -17z"/>
</g>
</svg>
