<?xml version="1.0" standalone="no"?>
<!DOCTYPE svg PUBLIC "-//W3C//DTD SVG 20010904//EN"
 "http://www.w3.org/TR/2001/REC-SVG-20010904/DTD/svg10.dtd">
<svg version="1.0" xmlns="http://www.w3.org/2000/svg"
 width="56.000000pt" height="168.000000pt" viewBox="0 0 56.000000 168.000000"
 preserveAspectRatio="xMidYMid meet">
<metadata>
Created by potrace 1.14, written by Peter Selinger 2001-2017
</metadata>
<g transform="translate(0.000000,168.000000) scale(0.100000,-0.100000)"
fill="#000000" stroke="none">
<path fill="#000000" stroke="none" d="M350 1673 c-32 -6 -75 -46 -107 -101
-22 -37 -24 -49 -17 -90 4 -26 8 -51 9 -55 0 -5 -22 -17 -50 -29 -101 -40
-116 -49 -112 -61 2 -6 -11 -22 -29 -34 -30 -21 -32 -27 -39 -102 -12 -141 13
-241 62 -241 25 0 27 -8 15 -75 -7 -33 -2 -52 25 -112 33 -71 33 -73 33 -220
0 -86 -6 -175 -14 -213 -10 -47 -11 -89 -5 -150 4 -47 8 -100 8 -119 l1 -34
56 6 c31 3 62 11 67 16 6 6 20 11 30 11 17 0 18 5 12 38 -4 20 -15 46 -26 58
-18 19 -19 31 -13 155 7 137 22 199 47 199 28 0 40 -88 28 -203 -11 -107 -4
-160 25 -202 8 -11 14 -30 14 -42 0 -15 13 -31 37 -48 45 -30 55 -30 110 -5
55 24 56 51 6 102 -36 37 -37 40 -41 125 -3 71 1 109 22 198 15 61 30 153 33
206 5 90 4 101 -24 175 -51 133 -69 353 -33 410 10 16 9 34 -9 97 -17 61 -21
106 -21 212 l0 135 -37 -1 c-21 -1 -49 -4 -63 -6z"/>
</g>
</svg>
