<?xml version="1.0" standalone="no"?>
<!DOCTYPE svg PUBLIC "-//W3C//DTD SVG 20010904//EN"
 "http://www.w3.org/TR/2001/REC-SVG-20010904/DTD/svg10.dtd">
<svg version="1.0" xmlns="http://www.w3.org/2000/svg"
 width="46.000000pt" height="113.000000pt" viewBox="0 0 46.000000 113.000000"
 preserveAspectRatio="xMidYMid meet">
<metadata>
Created by potrace 1.14, written by Peter Selinger 2001-2017
</metadata>
<g transform="translate(0.000000,113.000000) scale(0.100000,-0.100000)"
fill="#000000" stroke="none">
<path fill="#000000" stroke="none" d="M157 1113 c-9 -11 -17 -35 -17 -55 0
-29 -8 -43 -42 -74 l-43 -38 -6 -146 c-4 -80 -12 -161 -18 -180 -8 -26 -8 -54
0 -110 9 -64 8 -98 -10 -229 -12 -85 -21 -179 -21 -209 l0 -55 75 6 c62 6 77
4 81 -8 5 -12 27 -15 109 -15 102 0 103 0 109 26 10 38 -9 54 -62 54 l-45 0 8
143 c4 78 6 192 5 252 -1 61 -2 126 -1 145 1 19 2 70 2 113 1 42 3 77 5 77 3
0 30 -16 61 -36 85 -54 100 -58 107 -28 9 33 5 38 -49 63 -41 19 -50 30 -46
54 1 4 -16 35 -37 70 -29 47 -36 68 -31 87 4 14 7 39 8 56 1 28 -3 32 -31 37
-18 4 -47 9 -63 12 -23 5 -35 2 -48 -12z"/>
</g>
</svg>
