<?xml version="1.0" standalone="no"?>
<!DOCTYPE svg PUBLIC "-//W3C//DTD SVG 20010904//EN"
 "http://www.w3.org/TR/2001/REC-SVG-20010904/DTD/svg10.dtd">
<svg version="1.0" xmlns="http://www.w3.org/2000/svg"
 width="39.000000pt" height="104.000000pt" viewBox="0 0 39.000000 104.000000"
 preserveAspectRatio="xMidYMid meet">
<metadata>
Created by potrace 1.14, written by Peter Selinger 2001-2017
</metadata>
<g transform="translate(0.000000,104.000000) scale(0.100000,-0.100000)"
fill="#000000" stroke="none">
<path fill="#000000" stroke="none" d="M126 1024 c-3 -9 -6 -40 -6 -70 0 -45
-4 -56 -24 -69 -35 -23 -50 -69 -52 -155 0 -41 -11 -118 -22 -170 -12 -52 -20
-96 -18 -98 2 -2 18 4 34 12 l31 16 8 -48 c4 -26 7 -80 5 -121 -1 -45 4 -96
14 -132 14 -49 20 -59 39 -59 29 0 45 -37 38 -89 -5 -39 -5 -41 22 -41 27 0
27 1 23 49 -5 48 -4 49 18 41 23 -9 23 -8 19 33 -15 147 -15 164 10 236 13 39
39 92 57 117 30 42 33 53 35 125 1 47 9 98 19 124 14 39 15 51 4 92 -18 61
-63 113 -99 112 -17 -1 -20 -3 -8 -6 21 -5 49 -58 71 -135 29 -102 13 -106
-24 -6 -25 69 -64 134 -86 142 -9 3 -14 21 -14 49 0 24 -5 48 -12 55 -18 18
-75 15 -82 -4z"/>
</g>
</svg>
