<?xml version="1.0" standalone="no"?>
<!DOCTYPE svg PUBLIC "-//W3C//DTD SVG 20010904//EN"
 "http://www.w3.org/TR/2001/REC-SVG-20010904/DTD/svg10.dtd">
<svg version="1.0" xmlns="http://www.w3.org/2000/svg"
 width="7.000000pt" height="26.000000pt" viewBox="0 0 7.000000 26.000000"
 preserveAspectRatio="xMidYMid meet">
<metadata>
Created by potrace 1.14, written by Peter Selinger 2001-2017
</metadata>
<g transform="translate(0.000000,26.000000) scale(0.100000,-0.100000)"
fill="#000000" stroke="none">
<path fill="#000000" stroke="none" d="M23 253 c-7 -2 -13 -13 -13 -24 0 -14
7 -19 25 -19 23 0 25 -3 19 -27 -4 -16 -18 -43 -32 -62 -22 -30 -23 -37 -13
-71 14 -47 41 -62 41 -22 0 15 -4 41 -9 59 -8 26 -6 35 10 49 20 18 26 69 9
79 -5 3 -10 15 -10 26 0 19 -5 22 -27 12z"/>
</g>
</svg>
