<?xml version="1.0" standalone="no"?>
<!DOCTYPE svg PUBLIC "-//W3C//DTD SVG 20010904//EN"
 "http://www.w3.org/TR/2001/REC-SVG-20010904/DTD/svg10.dtd">
<svg version="1.0" xmlns="http://www.w3.org/2000/svg"
 width="334.000000pt" height="376.000000pt" viewBox="0 0 334.000000 376.000000"
 preserveAspectRatio="xMidYMid meet">
<metadata>
Created by potrace 1.14, written by Peter Selinger 2001-2017
</metadata>
<g transform="translate(0.000000,376.000000) scale(0.100000,-0.100000)"
fill="#000000" stroke="none">
<path fill="#000000" stroke="none" d="M685 3719 c-84 -37 -183 -65 -415 -119
l-95 -22 -87 -99 c-49 -55 -88 -105 -88 -113 0 -7 16 -83 35 -169 23 -101 35
-182 35 -230 0 -93 37 -192 143 -380 41 -72 109 -213 151 -312 l77 -180 116
-84 c64 -46 165 -110 224 -143 l109 -60 -28 -21 c-15 -11 -46 -36 -69 -54
l-43 -34 43 -77 c46 -85 60 -158 55 -287 -2 -38 -3 -140 -3 -225 l1 -155 61
-155 c33 -85 79 -198 102 -250 26 -59 47 -128 57 -186 l16 -91 -36 -130 c-20
-72 -36 -133 -36 -136 0 -4 524 -7 1166 -7 l1165 0 -3 878 -3 877 -98 140
c-54 77 -137 190 -185 251 l-87 111 -130 56 c-127 54 -134 56 -285 71 -85 8
-216 29 -290 46 -131 31 -140 32 -312 27 l-177 -6 -90 81 -91 80 -1 181 c-1
100 -4 210 -8 243 l-6 61 -90 80 c-49 43 -111 109 -136 146 -85 122 -249 317
-302 356 -42 31 -70 43 -150 60 -54 11 -103 21 -110 21 -7 0 -52 -18 -102 -41z"/>
</g>
</svg>
