<?xml version="1.0" standalone="no"?>
<!DOCTYPE svg PUBLIC "-//W3C//DTD SVG 20010904//EN"
 "http://www.w3.org/TR/2001/REC-SVG-20010904/DTD/svg10.dtd">
<svg version="1.0" xmlns="http://www.w3.org/2000/svg"
 width="174.000000pt" height="179.000000pt" viewBox="0 0 174.000000 179.000000"
 preserveAspectRatio="xMidYMid meet">
<metadata>
Created by potrace 1.14, written by Peter Selinger 2001-2017
</metadata>
<g transform="translate(0.000000,179.000000) scale(0.100000,-0.100000)"
fill="#000000" stroke="none">
<path fill="#000000" stroke="none" d="M853 1757 c-113 -44 -128 -60 -143
-157 -7 -44 -17 -83 -24 -88 -6 -5 -85 -40 -175 -78 -148 -61 -176 -77 -273
-154 l-109 -85 -56 -125 c-53 -120 -56 -130 -64 -243 l-9 -119 72 -135 c67
-125 78 -140 141 -190 61 -49 67 -57 55 -71 -8 -10 -38 -46 -68 -81 l-54 -63
29 -84 c22 -63 33 -83 45 -80 8 3 109 23 225 46 116 23 216 43 223 46 9 2 -10
30 -53 76 l-66 73 28 24 c15 13 74 67 131 119 94 88 109 107 176 226 168 298
163 288 171 413 l7 111 252 62 c138 34 259 64 268 66 19 6 158 161 158 178 0
5 -19 -8 -42 -30 -24 -23 -65 -54 -93 -69 -211 -118 -202 -117 -234 -35 -17
46 -27 60 -39 56 -68 -20 -185 -46 -189 -42 -3 3 -7 42 -10 88 -4 67 0 101 19
179 l25 96 -49 51 -49 52 -72 -1 c-56 0 -90 -7 -154 -32z"/>
</g>
</svg>
