<?xml version="1.0" standalone="no"?>
<!DOCTYPE svg PUBLIC "-//W3C//DTD SVG 20010904//EN"
 "http://www.w3.org/TR/2001/REC-SVG-20010904/DTD/svg10.dtd">
<svg version="1.0" xmlns="http://www.w3.org/2000/svg"
 width="95.000000pt" height="120.000000pt" viewBox="0 0 95.000000 120.000000"
 preserveAspectRatio="xMidYMid meet">
<metadata>
Created by potrace 1.14, written by Peter Selinger 2001-2017
</metadata>
<g transform="translate(0.000000,120.000000) scale(0.100000,-0.100000)"
fill="#000000" stroke="none">
<path fill="#000000" stroke="none" d="M440 1176 c-92 -33 -200 -83 -200 -93
1 -4 12 -21 25 -37 l24 -30 -133 -140 -133 -141 -12 -92 c-11 -87 -10 -94 11
-137 21 -43 25 -46 122 -83 56 -20 117 -46 136 -58 19 -11 96 -82 170 -157 90
-91 156 -148 196 -171 60 -33 61 -34 56 -11 -3 16 0 24 9 24 25 0 143 61 171
87 24 23 28 24 34 10 8 -21 20 -22 27 -3 8 20 -35 188 -68 266 -15 36 -33 87
-40 114 -8 26 -41 90 -75 141 -52 79 -97 185 -84 198 2 2 8 59 14 126 9 109 8
126 -7 152 -33 56 -141 72 -243 35z"/>
<path fill="#ffffff" stroke="none" d="M776 406 c26 -17 94 -127 94 -152 0 -4
-10 -4 -23 0 -13 3 -40 1 -61 -5 -26 -7 -42 -7 -48 -1 -12 12 -48 156 -48 191
0 26 -10 30 86 -33z"/>
</g>
</svg>
