<?xml version="1.0" standalone="no"?>
<!DOCTYPE svg PUBLIC "-//W3C//DTD SVG 20010904//EN"
 "http://www.w3.org/TR/2001/REC-SVG-20010904/DTD/svg10.dtd">
<svg version="1.0" xmlns="http://www.w3.org/2000/svg"
 width="60.000000pt" height="142.000000pt" viewBox="0 0 60.000000 142.000000"
 preserveAspectRatio="xMidYMid meet">
<metadata>
Created by potrace 1.14, written by Peter Selinger 2001-2017
</metadata>
<g transform="translate(0.000000,142.000000) scale(0.100000,-0.100000)"
fill="#000000" stroke="none">
<path fill="#000000" stroke="none" d="M155 1408 c-3 -7 -38 -157 -78 -333
-64 -280 -72 -325 -63 -362 l9 -43 147 0 146 0 -17 -172 c-9 -95 -19 -232 -22
-304 l-5 -131 65 -32 66 -32 42 41 42 41 17 127 c15 116 15 138 1 257 -8 72
-15 136 -15 144 0 11 12 13 55 8 l55 -6 0 405 0 404 -220 0 c-167 0 -222 -3
-225 -12z"/>
</g>
</svg>
