<?xml version="1.0" standalone="no"?>
<!DOCTYPE svg PUBLIC "-//W3C//DTD SVG 20010904//EN"
 "http://www.w3.org/TR/2001/REC-SVG-20010904/DTD/svg10.dtd">
<svg version="1.0" xmlns="http://www.w3.org/2000/svg"
 width="118.000000pt" height="87.000000pt" viewBox="0 0 118.000000 87.000000"
 preserveAspectRatio="xMidYMid meet">
<metadata>
Created by potrace 1.14, written by Peter Selinger 2001-2017
</metadata>
<g transform="translate(0.000000,87.000000) scale(0.100000,-0.100000)"
fill="#000000" stroke="none">
<path fill="#000000" stroke="none" d="M15 852 c12 -9 108 -89 214 -177 l194
-159 69 -142 c38 -78 88 -192 111 -253 24 -62 47 -112 52 -112 22 1 428 297
440 321 7 14 30 77 51 141 l38 117 -18 46 c-10 25 -23 46 -30 46 -23 0 -139
-51 -172 -76 -18 -14 -47 -27 -66 -30 l-34 -6 -54 151 -54 151 -380 0 c-361
-1 -380 -2 -361 -18z"/>
</g>
</svg>
