<?xml version="1.0" standalone="no"?>
<!DOCTYPE svg PUBLIC "-//W3C//DTD SVG 20010904//EN"
 "http://www.w3.org/TR/2001/REC-SVG-20010904/DTD/svg10.dtd">
<svg version="1.0" xmlns="http://www.w3.org/2000/svg"
 width="26.000000pt" height="50.000000pt" viewBox="0 0 26.000000 50.000000"
 preserveAspectRatio="xMidYMid meet">
<metadata>
Created by potrace 1.14, written by Peter Selinger 2001-2017
</metadata>
<g transform="translate(0.000000,50.000000) scale(0.100000,-0.100000)"
fill="#000000" stroke="none">
<path fill="#000000" stroke="none" d="M103 485 c-3 -9 -3 -29 1 -45 5 -26 3
-30 -18 -30 -28 0 -48 -22 -67 -75 -15 -41 -14 -75 2 -75 5 0 9 -15 9 -33 0
-18 5 -38 11 -44 8 -8 8 -17 0 -31 -14 -27 -14 -84 0 -116 12 -25 68 -42 80
-24 4 6 26 7 54 3 l47 -8 -3 87 c-3 61 -1 86 8 86 8 0 10 21 6 75 -5 64 -3 78
12 95 17 19 17 21 0 40 -12 13 -31 20 -57 20 -38 0 -49 14 -29 36 5 5 5 19 0
32 -10 25 -47 30 -56 7z"/>
</g>
</svg>
