<?xml version="1.0" standalone="no"?>
<!DOCTYPE svg PUBLIC "-//W3C//DTD SVG 20010904//EN"
 "http://www.w3.org/TR/2001/REC-SVG-20010904/DTD/svg10.dtd">
<svg version="1.0" xmlns="http://www.w3.org/2000/svg"
 width="318.000000pt" height="346.000000pt" viewBox="0 0 318.000000 346.000000"
 preserveAspectRatio="xMidYMid meet">
<metadata>
Created by potrace 1.14, written by Peter Selinger 2001-2017
</metadata>
<g transform="translate(0.000000,346.000000) scale(0.100000,-0.100000)"
fill="#000000" stroke="none">
<path fill="#000000" stroke="none" d="M1278 3410 c-50 -45 -59 -59 -84 -133
-47 -141 -59 -163 -91 -170 -15 -3 -68 -2 -118 2 l-90 8 -88 -51 -88 -51 7
-85 c6 -75 13 -97 57 -185 27 -55 50 -101 51 -102 2 -2 83 -14 182 -28 221
-31 224 -32 224 -50 0 -8 16 -40 35 -70 25 -39 32 -57 23 -60 -7 -2 -116 -34
-243 -69 -126 -36 -300 -93 -385 -127 l-155 -61 -86 -116 -87 -117 -42 -194
c-39 -180 -49 -208 -121 -365 -64 -141 -81 -188 -94 -266 -9 -52 -32 -169 -51
-260 l-36 -165 57 -155 c35 -96 67 -210 86 -299 16 -80 31 -146 33 -149 3 -2
508 -21 1123 -42 615 -21 1175 -41 1244 -44 l125 -6 -15 96 -15 95 38 117 c21
64 66 171 101 238 l63 121 -6 126 c-7 125 -7 126 13 107 20 -18 21 -17 110 65
73 68 86 84 68 85 -13 0 -23 2 -23 5 0 3 41 66 92 140 l92 134 -123 151 -122
151 6 52 7 53 -64 56 c-34 30 -101 103 -148 162 -66 83 -118 134 -237 230 -83
69 -159 129 -170 134 -10 5 -106 31 -213 57 -181 44 -204 52 -317 114 l-122
66 26 21 c31 25 230 91 402 134 116 29 127 34 192 87 38 30 69 58 69 61 0 3
-18 33 -40 67 l-40 61 -167 38 c-93 21 -177 42 -188 46 -15 6 -36 47 -74 143
-29 75 -58 140 -64 145 -7 5 -64 27 -127 50 -98 35 -131 41 -225 47 l-110 6
-57 -51z"/>
</g>
</svg>
