<?xml version="1.0" standalone="no"?>
<!DOCTYPE svg PUBLIC "-//W3C//DTD SVG 20010904//EN"
 "http://www.w3.org/TR/2001/REC-SVG-20010904/DTD/svg10.dtd">
<svg version="1.0" xmlns="http://www.w3.org/2000/svg"
 width="14.000000pt" height="35.000000pt" viewBox="0 0 14.000000 35.000000"
 preserveAspectRatio="xMidYMid meet">
<metadata>
Created by potrace 1.14, written by Peter Selinger 2001-2017
</metadata>
<g transform="translate(0.000000,35.000000) scale(0.100000,-0.100000)"
fill="#000000" stroke="none">
<path fill="#000000" stroke="none" d="M10 335 c-9 -11 -10 -22 -2 -42 22 -55
35 -155 29 -218 -6 -57 -4 -65 13 -70 41 -13 87 36 74 78 -11 31 -9 58 5 88
11 22 10 31 -3 57 -9 17 -13 37 -10 46 6 15 -12 56 -30 68 -19 13 -63 9 -76
-7z"/>
</g>
</svg>
