<?xml version="1.0" standalone="no"?>
<!DOCTYPE svg PUBLIC "-//W3C//DTD SVG 20010904//EN"
 "http://www.w3.org/TR/2001/REC-SVG-20010904/DTD/svg10.dtd">
<svg version="1.0" xmlns="http://www.w3.org/2000/svg"
 width="23.000000pt" height="24.000000pt" viewBox="0 0 23.000000 24.000000"
 preserveAspectRatio="xMidYMid meet">
<metadata>
Created by potrace 1.14, written by Peter Selinger 2001-2017
</metadata>
<g transform="translate(0.000000,24.000000) scale(0.100000,-0.100000)"
fill="#000000" stroke="none">
<path fill="#000000" stroke="none" d="M54 218 c-4 -13 -8 -36 -9 -53 -1 -16
-12 -49 -23 -72 -27 -53 -28 -69 -1 -84 22 -11 192 -10 204 3 3 3 -3 24 -14
47 -12 22 -21 47 -21 55 0 8 -11 27 -23 43 -13 15 -27 40 -31 56 -5 23 -12 27
-41 27 -26 0 -35 -5 -41 -22z"/>
</g>
</svg>
