<?xml version="1.0" standalone="no"?>
<!DOCTYPE svg PUBLIC "-//W3C//DTD SVG 20010904//EN"
 "http://www.w3.org/TR/2001/REC-SVG-20010904/DTD/svg10.dtd">
<svg version="1.0" xmlns="http://www.w3.org/2000/svg"
 width="61.000000pt" height="111.000000pt" viewBox="0 0 61.000000 111.000000"
 preserveAspectRatio="xMidYMid meet">
<metadata>
Created by potrace 1.14, written by Peter Selinger 2001-2017
</metadata>
<g transform="translate(0.000000,111.000000) scale(0.100000,-0.100000)"
fill="#000000" stroke="none">
<path fill="#000000" stroke="none" d="M272 1070 c-49 -59 -62 -89 -62 -144 0
-74 -27 -109 -118 -153 -42 -20 -79 -38 -81 -39 -9 -8 -1 -312 10 -399 9 -73
17 -97 39 -126 19 -24 34 -62 46 -118 10 -46 23 -85 29 -87 6 -3 28 -1 50 4
43 8 39 0 114 247 30 98 32 101 82 133 37 24 73 37 132 48 45 8 85 14 89 14 4
0 1 19 -7 43 -7 23 -26 87 -41 141 l-27 99 19 61 c16 51 18 73 11 134 l-9 73
-68 34 c-50 25 -175 79 -175 75 0 0 -15 -18 -33 -40z"/>
<path fill="#ffffff" stroke="none" d="M285 556 c19 -8 35 -16 35 -18 0 -2 8
-26 19 -54 l18 -51 -33 -27 c-19 -15 -52 -53 -74 -86 -22 -33 -43 -60 -45 -60
-13 0 -140 52 -153 62 -20 17 -9 84 23 147 45 90 125 122 210 87z"/>
</g>
</svg>
