<?xml version="1.0" standalone="no"?>
<!DOCTYPE svg PUBLIC "-//W3C//DTD SVG 20010904//EN"
 "http://www.w3.org/TR/2001/REC-SVG-20010904/DTD/svg10.dtd">
<svg version="1.0" xmlns="http://www.w3.org/2000/svg"
 width="424.000000pt" height="611.000000pt" viewBox="0 0 424.000000 611.000000"
 preserveAspectRatio="xMidYMid meet">
<metadata>
Created by potrace 1.14, written by Peter Selinger 2001-2017
</metadata>
<g transform="translate(0.000000,611.000000) scale(0.100000,-0.100000)"
fill="#000000" stroke="none">
<path fill="#000000" stroke="none" d="M852 6047 l-142 -60 -90 -98 -90 -97
-105 -288 c-58 -159 -108 -290 -110 -293 -3 -2 -11 2 -20 9 -9 7 -18 11 -20 8
-10 -9 -68 -214 -94 -328 -23 -100 -25 -129 -20 -220 3 -58 9 -122 14 -144 l8
-38 -32 7 -31 7 0 -56 c0 -30 5 -67 10 -81 9 -23 14 -26 40 -20 l29 6 -14 -48
c-8 -26 -26 -81 -40 -122 -15 -44 -25 -97 -25 -129 0 -44 -7 -68 -34 -117 -28
-51 -38 -88 -60 -217 l-26 -156 0 -1786 0 -1786 1651 0 c1433 0 1650 2 1646
14 -12 32 -28 267 -25 371 l3 110 69 -175 c37 -96 83 -208 102 -248 l33 -73
375 3 c206 2 377 6 381 9 10 11 -51 344 -107 584 -28 121 -66 299 -83 395 -18
96 -71 326 -118 510 -80 314 -86 350 -111 575 -15 132 -33 276 -41 320 -8 44
-23 164 -35 267 -18 162 -20 207 -11 335 7 99 6 244 -1 438 -10 287 -10 291
-43 390 -18 55 -45 148 -61 208 l-29 107 -30 -7 c-88 -22 -127 -4 -186 89 -29
44 -44 55 -213 143 -161 83 -186 94 -219 88 -32 -5 -48 2 -127 48 -49 29 -90
59 -90 66 0 14 -169 103 -197 103 -10 0 -104 29 -209 63 l-190 63 42 87 c69
142 69 210 -1 432 l-35 114 -273 273 c-259 261 -277 276 -367 325 -117 63
-212 83 -386 82 l-119 -1 -143 -61z"/>
<path fill="#ffffff" stroke="none" d="M772 4593 c44 -16 57 -27 98 -88 100
-147 182 -249 226 -280 26 -18 92 -50 148 -69 l102 -37 12 -43 c11 -43 7 -106
-10 -138 -14 -29 -90 -66 -154 -77 -45 -7 -78 -6 -130 5 -64 13 -72 18 -122
71 -73 80 -152 209 -152 248 0 22 -14 50 -45 91 -44 58 -55 84 -35 84 6 0 7
46 3 125 -3 69 -3 125 2 125 4 0 30 -8 57 -17z"/>
</g>
</svg>
