<?xml version="1.0" standalone="no"?>
<!DOCTYPE svg PUBLIC "-//W3C//DTD SVG 20010904//EN"
 "http://www.w3.org/TR/2001/REC-SVG-20010904/DTD/svg10.dtd">
<svg version="1.0" xmlns="http://www.w3.org/2000/svg"
 width="110.000000pt" height="301.000000pt" viewBox="0 0 110.000000 301.000000"
 preserveAspectRatio="xMidYMid meet">
<metadata>
Created by potrace 1.14, written by Peter Selinger 2001-2017
</metadata>
<g transform="translate(0.000000,301.000000) scale(0.100000,-0.100000)"
fill="#000000" stroke="none">
<path fill="#000000" stroke="none" d="M563 2995 c-20 -8 -39 -28 -50 -49 -9
-20 -34 -47 -55 -61 l-38 -25 0 -90 c0 -88 1 -90 30 -111 25 -19 60 -85 48
-93 -5 -4 -228 -64 -260 -71 -52 -10 -106 -92 -171 -257 -33 -84 -60 -162 -60
-173 -3 -96 2 -111 39 -129 35 -16 107 -16 167 0 14 5 17 -1 16 -33 0 -21 -6
-54 -13 -73 -12 -32 -11 -40 16 -93 l28 -57 -25 -51 c-26 -50 -26 -54 -32
-345 l-6 -294 30 -49 c20 -31 40 -89 58 -162 26 -109 27 -118 15 -219 l-11
-106 40 -79 c46 -89 48 -97 25 -116 -25 -21 -52 -83 -59 -135 -6 -43 -4 -52
17 -71 31 -28 118 -53 189 -53 l58 0 -6 34 c-4 25 2 47 21 83 l26 48 79 -3
c87 -4 94 1 120 79 6 20 21 45 31 54 23 21 28 103 9 122 -9 9 -9 43 0 135 7
68 11 191 9 273 -3 166 4 296 29 485 l16 125 -26 124 c-33 150 -33 154 -3 194
13 18 29 49 36 70 12 40 22 44 58 23 18 -9 36 -10 72 -3 l47 9 12 100 11 101
-41 151 c-48 174 -59 190 -174 258 -38 22 -89 56 -111 74 -39 31 -41 35 -34
71 4 21 18 63 32 93 23 51 24 61 16 135 -4 43 -16 95 -26 114 -15 30 -24 37
-72 48 -70 16 -88 15 -127 -2z"/>
</g>
</svg>
