<?xml version="1.0" standalone="no"?>
<!DOCTYPE svg PUBLIC "-//W3C//DTD SVG 20010904//EN"
 "http://www.w3.org/TR/2001/REC-SVG-20010904/DTD/svg10.dtd">
<svg version="1.0" xmlns="http://www.w3.org/2000/svg"
 width="23.000000pt" height="35.000000pt" viewBox="0 0 23.000000 35.000000"
 preserveAspectRatio="xMidYMid meet">
<metadata>
Created by potrace 1.14, written by Peter Selinger 2001-2017
</metadata>
<g transform="translate(0.000000,35.000000) scale(0.100000,-0.100000)"
fill="#000000" stroke="none">
<path fill="#000000" stroke="none" d="M118 343 c-29 -4 -53 -33 -83 -95 -15
-34 -15 -40 -2 -67 14 -29 14 -30 -9 -38 -21 -7 -13 -15 84 -76 l107 -68 9 63
c6 42 5 68 -3 80 -8 12 -8 25 0 45 10 26 5 116 -8 150 -5 13 -37 15 -95 6z"/>
</g>
</svg>
