<?xml version="1.0" standalone="no"?>
<!DOCTYPE svg PUBLIC "-//W3C//DTD SVG 20010904//EN"
 "http://www.w3.org/TR/2001/REC-SVG-20010904/DTD/svg10.dtd">
<svg version="1.0" xmlns="http://www.w3.org/2000/svg"
 width="82.000000pt" height="70.000000pt" viewBox="0 0 82.000000 70.000000"
 preserveAspectRatio="xMidYMid meet">
<metadata>
Created by potrace 1.14, written by Peter Selinger 2001-2017
</metadata>
<g transform="translate(0.000000,70.000000) scale(0.100000,-0.100000)"
fill="#000000" stroke="none">
<path fill="#000000" stroke="none" d="M85 683 c-9 -9 -15 -26 -12 -38 3 -17
-4 -27 -23 -39 -34 -20 -58 -72 -43 -95 12 -19 75 -32 124 -25 25 4 39 1 49
-10 21 -26 25 -19 22 39 -3 40 -9 59 -22 68 -13 9 -16 17 -9 27 36 58 -38 121
-86 73z"/>
<path fill="#000000" stroke="none" d="M708 290 c-9 -22 -25 -43 -35 -46 -75
-24 -86 -37 -98 -117 -3 -20 -8 -53 -11 -73 -5 -33 -4 -36 15 -31 12 3 23 2
26 -2 2 -4 27 -5 55 -1 36 5 56 2 71 -8 16 -11 26 -12 49 -2 33 14 43 42 24
67 -7 10 -14 27 -14 38 0 11 -7 31 -16 44 -10 14 -13 26 -7 30 18 11 33 49 33
84 0 28 -4 36 -24 41 -13 3 -30 8 -38 11 -8 3 -19 -10 -30 -35z"/>
</g>
</svg>
