<?xml version="1.0" standalone="no"?>
<!DOCTYPE svg PUBLIC "-//W3C//DTD SVG 20010904//EN"
 "http://www.w3.org/TR/2001/REC-SVG-20010904/DTD/svg10.dtd">
<svg version="1.0" xmlns="http://www.w3.org/2000/svg"
 width="136.000000pt" height="218.000000pt" viewBox="0 0 136.000000 218.000000"
 preserveAspectRatio="xMidYMid meet">
<metadata>
Created by potrace 1.14, written by Peter Selinger 2001-2017
</metadata>
<g transform="translate(0.000000,218.000000) scale(0.100000,-0.100000)"
fill="#000000" stroke="none">
<path fill="#000000" stroke="none" d="M748 2174 c-36 -11 -124 -146 -163
-252 -23 -63 -57 -130 -87 -174 -28 -38 -60 -93 -73 -122 -14 -31 -36 -59 -55
-71 -25 -16 -295 -355 -309 -388 -2 -5 11 -26 28 -47 17 -21 31 -45 31 -52 0
-7 -13 -51 -29 -98 -15 -47 -34 -124 -41 -171 -11 -79 -10 -90 6 -114 16 -24
16 -29 1 -61 -11 -23 -24 -34 -38 -34 -18 0 -20 -4 -14 -33 10 -43 20 -54 55
-59 24 -4 31 0 41 24 6 15 15 28 19 28 11 0 29 51 46 129 7 34 41 124 75 197
52 113 69 140 103 164 22 17 44 30 48 30 15 0 9 -234 -7 -280 -8 -23 -15 -55
-15 -70 0 -14 -16 -67 -36 -116 -19 -49 -39 -114 -44 -144 -5 -30 -12 -69 -15
-86 -8 -35 -36 -13 292 -225 l211 -137 85 -7 85 -7 106 62 106 62 0 49 c0 27
-7 66 -15 86 -8 21 -24 82 -35 135 -11 54 -30 119 -44 145 -22 45 -23 54 -15
133 4 47 8 96 8 109 1 20 15 5 66 -69 64 -92 65 -95 65 -159 0 -97 5 -107 55
-120 82 -21 108 6 109 114 1 38 -8 69 -37 130 -30 62 -107 279 -107 300 0 2
16 7 36 11 l37 7 -7 83 c-3 46 -15 107 -25 136 -11 29 -27 82 -36 117 -27 106
-66 172 -125 211 -31 22 -59 51 -72 75 -11 22 -36 59 -54 82 -39 47 -45 97
-18 139 14 20 15 30 5 50 -7 16 -9 45 -5 73 8 63 -9 118 -54 168 -31 35 -45
43 -82 47 -25 2 -53 2 -62 0z"/>
</g>
</svg>
