<?xml version="1.0" standalone="no"?>
<!DOCTYPE svg PUBLIC "-//W3C//DTD SVG 20010904//EN"
 "http://www.w3.org/TR/2001/REC-SVG-20010904/DTD/svg10.dtd">
<svg version="1.0" xmlns="http://www.w3.org/2000/svg"
 width="222.000000pt" height="43.000000pt" viewBox="0 0 222.000000 43.000000"
 preserveAspectRatio="xMidYMid meet">
<metadata>
Created by potrace 1.14, written by Peter Selinger 2001-2017
</metadata>
<g transform="translate(0.000000,43.000000) scale(0.100000,-0.100000)"
fill="#000000" stroke="none">
<path fill="#000000" stroke="none" d="M1260 419 c-30 -4 -149 -12 -265 -18
-236 -12 -489 -51 -622 -97 -43 -15 -137 -61 -210 -103 l-132 -76 -15 -54 c-9
-30 -15 -56 -13 -57 1 -1 500 -5 1110 -8 l1107 -7 0 144 0 145 -27 6 c-148 31
-793 136 -830 135 -26 -1 -73 -5 -103 -10z"/>
</g>
</svg>
