<?xml version="1.0" standalone="no"?>
<!DOCTYPE svg PUBLIC "-//W3C//DTD SVG 20010904//EN"
 "http://www.w3.org/TR/2001/REC-SVG-20010904/DTD/svg10.dtd">
<svg version="1.0" xmlns="http://www.w3.org/2000/svg"
 width="23.000000pt" height="67.000000pt" viewBox="0 0 23.000000 67.000000"
 preserveAspectRatio="xMidYMid meet">
<metadata>
Created by potrace 1.14, written by Peter Selinger 2001-2017
</metadata>
<g transform="translate(0.000000,67.000000) scale(0.100000,-0.100000)"
fill="#000000" stroke="none">
<path fill="#000000" stroke="none" d="M70 649 c-6 -11 -11 -32 -10 -47 3 -42
1 -54 -9 -48 -14 9 -39 -27 -41 -59 -4 -52 -1 -63 18 -69 12 -4 18 -17 18 -43
4 -126 24 -367 33 -376 19 -19 41 1 41 37 0 27 3 34 15 30 8 -4 15 -16 15 -29
0 -14 7 -25 19 -28 15 -4 21 2 26 32 10 47 9 162 -2 284 -9 97 -9 98 14 103
46 12 24 102 -32 135 -24 14 -35 28 -35 44 0 13 -3 30 -6 39 -9 23 -51 20 -64
-5z"/>
</g>
</svg>
