<?xml version="1.0" standalone="no"?>
<!DOCTYPE svg PUBLIC "-//W3C//DTD SVG 20010904//EN"
 "http://www.w3.org/TR/2001/REC-SVG-20010904/DTD/svg10.dtd">
<svg version="1.0" xmlns="http://www.w3.org/2000/svg"
 width="40.000000pt" height="104.000000pt" viewBox="0 0 40.000000 104.000000"
 preserveAspectRatio="xMidYMid meet">
<metadata>
Created by potrace 1.14, written by Peter Selinger 2001-2017
</metadata>
<g transform="translate(0.000000,104.000000) scale(0.100000,-0.100000)"
fill="#000000" stroke="none">
<path fill="#000000" stroke="none" d="M170 1026 c-29 -10 -36 -19 -55 -76
-12 -36 -35 -94 -52 -130 -28 -62 -29 -69 -23 -160 4 -52 15 -126 25 -165 l17
-70 -35 -165 c-20 -91 -39 -186 -42 -212 l-7 -48 91 0 c83 0 91 2 91 19 0 11
-17 33 -37 50 l-37 30 29 91 c16 50 32 93 35 95 4 2 19 -37 35 -88 16 -51 39
-113 52 -139 l23 -47 44 15 c24 8 52 24 61 34 16 18 15 20 -22 38 -21 11 -44
31 -52 44 -8 12 -22 90 -31 171 l-16 149 27 -6 c40 -8 55 14 34 54 -9 17 -36
100 -60 185 l-43 153 19 40 c11 22 22 55 25 73 5 30 1 36 -28 55 -29 18 -38
20 -68 10z"/>
</g>
</svg>
