<?xml version="1.0" standalone="no"?>
<!DOCTYPE svg PUBLIC "-//W3C//DTD SVG 20010904//EN"
 "http://www.w3.org/TR/2001/REC-SVG-20010904/DTD/svg10.dtd">
<svg version="1.0" xmlns="http://www.w3.org/2000/svg"
 width="51.000000pt" height="63.000000pt" viewBox="0 0 51.000000 63.000000"
 preserveAspectRatio="xMidYMid meet">
<metadata>
Created by potrace 1.14, written by Peter Selinger 2001-2017
</metadata>
<g transform="translate(0.000000,63.000000) scale(0.100000,-0.100000)"
fill="#000000" stroke="none">
<path fill="#000000" stroke="none" d="M229 619 c-14 -5 -31 -21 -37 -34 -8
-18 -20 -25 -40 -25 -15 0 -33 -5 -40 -12 -26 -26 -4 -102 39 -132 26 -18 17
-36 -19 -36 -49 0 -87 -33 -111 -97 l-22 -59 26 -69 c15 -39 31 -74 35 -79 5
-5 107 -23 227 -41 l218 -31 -3 91 c-5 124 -29 176 -89 189 l-43 10 0 65 c0
63 1 67 35 94 19 15 35 37 35 47 0 22 -20 26 -36 10 -7 -7 -19 -7 -35 -1 -18
6 -30 24 -44 65 -21 60 -35 67 -96 45z"/>
</g>
</svg>
