<?xml version="1.0" standalone="no"?>
<!DOCTYPE svg PUBLIC "-//W3C//DTD SVG 20010904//EN"
 "http://www.w3.org/TR/2001/REC-SVG-20010904/DTD/svg10.dtd">
<svg version="1.0" xmlns="http://www.w3.org/2000/svg"
 width="33.000000pt" height="34.000000pt" viewBox="0 0 33.000000 34.000000"
 preserveAspectRatio="xMidYMid meet">
<metadata>
Created by potrace 1.14, written by Peter Selinger 2001-2017
</metadata>
<g transform="translate(0.000000,34.000000) scale(0.100000,-0.100000)"
fill="#000000" stroke="none">
<path fill="#000000" stroke="none" d="M146 315 c-14 -13 -27 -30 -27 -37 -3
-28 4 -53 15 -61 8 -6 8 -10 -1 -13 -37 -16 -95 -69 -114 -105 l-21 -42 25
-25 c37 -36 126 -35 184 3 14 9 32 13 44 10 20 -7 28 0 65 52 26 37 11 69 -41
89 -33 12 -44 21 -41 33 2 9 7 26 11 38 6 23 -9 62 -29 75 -20 14 -43 8 -70
-17z"/>
</g>
</svg>
