<?xml version="1.0" standalone="no"?>
<!DOCTYPE svg PUBLIC "-//W3C//DTD SVG 20010904//EN"
 "http://www.w3.org/TR/2001/REC-SVG-20010904/DTD/svg10.dtd">
<svg version="1.0" xmlns="http://www.w3.org/2000/svg"
 width="38.000000pt" height="63.000000pt" viewBox="0 0 38.000000 63.000000"
 preserveAspectRatio="xMidYMid meet">
<metadata>
Created by potrace 1.14, written by Peter Selinger 2001-2017
</metadata>
<g transform="translate(0.000000,63.000000) scale(0.100000,-0.100000)"
fill="#000000" stroke="none">
<path fill="#000000" stroke="none" d="M180 623 c-8 -3 -18 -11 -22 -17 -12
-17 -9 -131 2 -142 7 -7 -2 -14 -29 -22 -43 -13 -95 -66 -117 -118 -22 -53
-18 -151 8 -207 13 -26 28 -47 35 -47 8 0 13 -13 13 -35 l0 -35 120 0 c129 0
120 -4 124 50 3 29 19 65 39 88 19 20 21 34 20 129 -1 95 -4 109 -21 123 -11
8 -37 28 -57 43 l-36 29 6 69 6 69 -35 15 c-19 8 -37 15 -38 14 -2 0 -10 -3
-18 -6z"/>
</g>
</svg>
