<?xml version="1.0" standalone="no"?>
<!DOCTYPE svg PUBLIC "-//W3C//DTD SVG 20010904//EN"
 "http://www.w3.org/TR/2001/REC-SVG-20010904/DTD/svg10.dtd">
<svg version="1.0" xmlns="http://www.w3.org/2000/svg"
 width="48.000000pt" height="227.000000pt" viewBox="0 0 48.000000 227.000000"
 preserveAspectRatio="xMidYMid meet">
<metadata>
Created by potrace 1.14, written by Peter Selinger 2001-2017
</metadata>
<g transform="translate(0.000000,227.000000) scale(0.100000,-0.100000)"
fill="#000000" stroke="none">
<path fill="#000000" stroke="none" d="M114 2258 c-23 -7 -37 -23 -54 -58 -22
-47 -22 -49 -6 -98 17 -50 17 -51 -6 -82 -14 -20 -22 -42 -20 -61 3 -21 -1
-29 -12 -29 -9 0 -16 -8 -16 -18 0 -25 69 -129 110 -167 17 -16 46 -57 63 -90
l32 -60 7 -240 c4 -132 8 -254 9 -270 0 -17 -21 -91 -49 -165 -78 -215 -79
-244 -2 -99 l39 74 1 -86 c0 -71 9 -121 55 -295 35 -133 60 -255 69 -336 8
-69 19 -135 25 -146 12 -22 70 -37 103 -26 20 6 21 10 15 133 -4 69 -7 168 -7
219 l0 92 -24 -6 -24 -6 4 159 c3 87 9 190 15 230 8 59 8 77 -5 101 -8 16 -20
72 -27 123 -9 77 -19 111 -55 184 l-44 90 0 140 c-1 223 32 323 133 396 l39
28 -29 6 c-15 4 -45 14 -65 22 -30 13 -36 19 -27 29 8 10 8 27 -1 62 -9 41
-16 50 -44 60 -33 12 -34 15 -46 93 -11 72 -15 82 -39 91 -41 15 -83 18 -117
6z"/>
</g>
</svg>
