<?xml version="1.0" standalone="no"?>
<!DOCTYPE svg PUBLIC "-//W3C//DTD SVG 20010904//EN"
 "http://www.w3.org/TR/2001/REC-SVG-20010904/DTD/svg10.dtd">
<svg version="1.0" xmlns="http://www.w3.org/2000/svg"
 width="252.000000pt" height="352.000000pt" viewBox="0 0 252.000000 352.000000"
 preserveAspectRatio="xMidYMid meet">
<metadata>
Created by potrace 1.14, written by Peter Selinger 2001-2017
</metadata>
<g transform="translate(0.000000,352.000000) scale(0.100000,-0.100000)"
fill="#000000" stroke="none">
<path fill="#000000" stroke="none" d="M886 3478 l-230 -39 -131 -70 -131 -71
110 -167 c88 -133 124 -178 181 -228 l71 -61 70 108 c38 60 72 106 76 104 3
-2 14 -27 23 -55 9 -27 48 -98 87 -156 53 -81 70 -116 74 -152 l5 -46 -160
-105 -159 -105 -163 -202 -164 -202 -37 -291 c-35 -272 -43 -312 -124 -628
-83 -322 -91 -347 -183 -561 l-97 -225 32 -154 c18 -84 34 -156 37 -158 2 -3
237 -8 520 -11 l516 -6 5 24 c3 13 17 107 31 209 15 102 29 195 33 207 7 21
14 19 206 -64 130 -55 217 -98 249 -124 48 -38 51 -39 130 -39 l81 0 -34 -35
c-28 -29 -31 -36 -20 -50 7 -9 19 -15 25 -13 14 3 373 341 369 347 -2 2 -52
14 -111 27 -84 18 -139 24 -247 24 l-139 0 -203 126 c-112 69 -207 130 -210
135 -6 11 36 129 46 129 4 0 147 -43 318 -95 293 -90 314 -95 373 -89 58 6 71
12 143 66 43 32 80 57 83 54 3 -3 13 -70 22 -150 10 -80 19 -147 22 -150 5 -4
233 171 237 183 1 5 -62 61 -142 125 l-145 118 -148 10 -148 10 -187 101 -188
102 0 200 c0 166 6 252 36 509 l36 309 -102 102 -102 102 155 112 156 112 11
57 c7 31 24 111 39 177 l27 120 -58 145 c-44 110 -76 172 -134 256 l-76 112
-176 6 c-98 4 -195 8 -217 10 -22 2 -143 -14 -269 -36z"/>
</g>
</svg>
