<?xml version="1.0" standalone="no"?>
<!DOCTYPE svg PUBLIC "-//W3C//DTD SVG 20010904//EN"
 "http://www.w3.org/TR/2001/REC-SVG-20010904/DTD/svg10.dtd">
<svg version="1.0" xmlns="http://www.w3.org/2000/svg"
 width="20.000000pt" height="36.000000pt" viewBox="0 0 20.000000 36.000000"
 preserveAspectRatio="xMidYMid meet">
<metadata>
Created by potrace 1.14, written by Peter Selinger 2001-2017
</metadata>
<g transform="translate(0.000000,36.000000) scale(0.100000,-0.100000)"
fill="#000000" stroke="none">
<path fill="#000000" stroke="none" d="M16 338 c-14 -70 -15 -146 -1 -164 8
-10 15 -34 15 -52 0 -45 24 -89 59 -106 26 -14 31 -13 62 10 29 21 35 32 40
77 7 60 -15 108 -76 167 -24 23 -35 43 -35 62 0 24 -4 28 -30 28 -23 0 -31 -5
-34 -22z"/>
</g>
</svg>
