<?xml version="1.0" standalone="no"?>
<!DOCTYPE svg PUBLIC "-//W3C//DTD SVG 20010904//EN"
 "http://www.w3.org/TR/2001/REC-SVG-20010904/DTD/svg10.dtd">
<svg version="1.0" xmlns="http://www.w3.org/2000/svg"
 width="43.000000pt" height="128.000000pt" viewBox="0 0 43.000000 128.000000"
 preserveAspectRatio="xMidYMid meet">
<metadata>
Created by potrace 1.14, written by Peter Selinger 2001-2017
</metadata>
<g transform="translate(0.000000,128.000000) scale(0.100000,-0.100000)"
fill="#000000" stroke="none">
<path fill="#000000" stroke="none" d="M125 1268 c-39 -14 -53 -26 -71 -60
-13 -25 -13 -31 2 -53 20 -31 13 -64 -27 -124 -26 -39 -29 -53 -29 -121 0 -42
4 -80 9 -86 4 -5 20 -40 34 -79 24 -65 26 -78 20 -185 -3 -63 -1 -137 4 -165
6 -35 6 -64 -3 -97 -10 -39 -8 -65 10 -170 18 -102 25 -123 40 -126 18 -4 18
3 12 129 -8 177 -12 917 -4 924 3 3 16 3 29 0 l24 -6 0 -332 c0 -302 2 -335
18 -360 9 -15 24 -27 31 -27 20 0 26 -22 32 -124 8 -137 20 -175 62 -193 43
-18 107 -14 107 7 0 12 -36 42 -82 68 -8 5 -16 71 -23 203 -6 107 -17 231 -24
276 -9 59 -10 85 -2 93 7 7 15 5 26 -9 8 -10 25 -22 37 -25 l22 -7 -20 68
c-12 37 -34 114 -49 171 -27 97 -64 166 -94 178 -9 4 -11 32 -8 108 4 99 4
104 -19 120 -27 18 -24 18 -64 4z"/>
</g>
</svg>
