<?xml version="1.0" standalone="no"?>
<!DOCTYPE svg PUBLIC "-//W3C//DTD SVG 20010904//EN"
 "http://www.w3.org/TR/2001/REC-SVG-20010904/DTD/svg10.dtd">
<svg version="1.0" xmlns="http://www.w3.org/2000/svg"
 width="69.000000pt" height="253.000000pt" viewBox="0 0 69.000000 253.000000"
 preserveAspectRatio="xMidYMid meet">
<metadata>
Created by potrace 1.14, written by Peter Selinger 2001-2017
</metadata>
<g transform="translate(0.000000,253.000000) scale(0.100000,-0.100000)"
fill="#000000" stroke="none">
<path fill="#000000" stroke="none" d="M135 2518 c-23 -74 -26 -92 -19 -121 3
-17 25 -59 47 -91 l40 -60 -61 -55 c-87 -79 -107 -129 -116 -291 -4 -69 -10
-168 -15 -220 -6 -89 -5 -104 31 -250 21 -85 47 -186 58 -225 10 -38 23 -124
28 -190 8 -112 7 -125 -16 -200 -22 -72 -24 -91 -18 -195 3 -63 15 -173 26
-245 17 -108 19 -143 10 -203 -17 -120 -18 -117 40 -87 27 14 51 25 53 25 2 0
7 -23 10 -51 4 -29 8 -54 10 -56 3 -2 98 8 213 22 259 33 272 41 154 96 -43
21 -88 40 -98 43 -10 4 -31 20 -47 36 -45 47 -45 117 0 310 28 122 41 214 60
429 14 151 26 275 28 276 1 1 23 14 49 29 27 16 57 41 69 57 19 27 20 38 14
125 -7 83 -12 105 -46 171 -45 88 -46 96 -19 141 17 28 20 50 20 170 0 94 5
150 15 177 21 60 19 68 -34 98 -59 33 -71 34 -71 5 0 -13 -10 -45 -23 -71
l-22 -49 -14 46 c-11 39 -21 50 -53 67 -39 20 -40 22 -34 62 4 22 18 63 31 90
14 27 25 66 25 88 l0 39 -68 0 c-44 0 -75 5 -88 15 -10 8 -34 15 -51 15 -18 0
-47 9 -65 20 -38 23 -47 25 -53 8z"/>
<path fill="#ffffff" stroke="none" d="M330 2196 c0 -3 -6 -35 -14 -73 -16
-73 -43 -299 -49 -400 -3 -61 -2 -64 29 -85 18 -12 39 -34 48 -49 9 -16 28
-29 47 -33 55 -11 124 -7 146 9 21 14 22 13 31 -33 32 -147 35 -171 28 -223
l-7 -56 -56 -17 -55 -18 -174 64 c-96 34 -174 68 -174 73 0 6 16 68 36 140 31
110 35 136 28 175 -7 34 -4 70 13 155 39 194 81 358 95 366 14 9 28 12 28 5z"/>
</g>
</svg>
