<?xml version="1.0" standalone="no"?>
<!DOCTYPE svg PUBLIC "-//W3C//DTD SVG 20010904//EN"
 "http://www.w3.org/TR/2001/REC-SVG-20010904/DTD/svg10.dtd">
<svg version="1.0" xmlns="http://www.w3.org/2000/svg"
 width="70.000000pt" height="19.000000pt" viewBox="0 0 70.000000 19.000000"
 preserveAspectRatio="xMidYMid meet">
<metadata>
Created by potrace 1.14, written by Peter Selinger 2001-2017
</metadata>
<g transform="translate(0.000000,19.000000) scale(0.100000,-0.100000)"
fill="#000000" stroke="none">
<path fill="#000000" stroke="none" d="M378 183 c-20 -2 -42 -10 -48 -18 -9
-11 -26 -13 -71 -8 -56 6 -62 4 -88 -21 -26 -25 -32 -26 -52 -15 -23 12 -107
14 -118 3 -9 -8 22 -24 47 -24 13 0 34 -11 47 -25 18 -20 29 -24 50 -19 27 7
27 7 10 -19 l-17 -26 36 -7 c24 -4 50 -1 76 10 22 9 68 16 101 16 52 0 67 4
98 28 58 45 94 56 171 49 63 -5 70 -4 75 14 11 33 11 33 -101 23 -56 -5 -64
-4 -87 20 -26 26 -39 28 -129 19z"/>
</g>
</svg>
