<?xml version="1.0" standalone="no"?>
<!DOCTYPE svg PUBLIC "-//W3C//DTD SVG 20010904//EN"
 "http://www.w3.org/TR/2001/REC-SVG-20010904/DTD/svg10.dtd">
<svg version="1.0" xmlns="http://www.w3.org/2000/svg"
 width="21.000000pt" height="19.000000pt" viewBox="0 0 21.000000 19.000000"
 preserveAspectRatio="xMidYMid meet">
<metadata>
Created by potrace 1.14, written by Peter Selinger 2001-2017
</metadata>
<g transform="translate(0.000000,19.000000) scale(0.100000,-0.100000)"
fill="#000000" stroke="none">
<path fill="#000000" stroke="none" d="M51 181 c-14 -9 -12 -64 4 -102 4 -12
-1 -18 -24 -22 -25 -5 -30 -11 -29 -32 2 -24 5 -25 74 -25 105 0 136 8 132 34
-2 11 -12 22 -23 24 -31 6 -45 22 -45 51 0 27 -42 81 -63 81 -7 0 -18 -4 -26
-9z"/>
</g>
</svg>
