<?xml version="1.0" standalone="no"?>
<!DOCTYPE svg PUBLIC "-//W3C//DTD SVG 20010904//EN"
 "http://www.w3.org/TR/2001/REC-SVG-20010904/DTD/svg10.dtd">
<svg version="1.0" xmlns="http://www.w3.org/2000/svg"
 width="141.000000pt" height="27.000000pt" viewBox="0 0 141.000000 27.000000"
 preserveAspectRatio="xMidYMid meet">
<metadata>
Created by potrace 1.14, written by Peter Selinger 2001-2017
</metadata>
<g transform="translate(0.000000,27.000000) scale(0.100000,-0.100000)"
fill="#000000" stroke="none">
<path fill="#000000" stroke="none" d="M73 252 c-2 -10 -20 -27 -39 -37 l-35
-19 43 -43 c28 -28 51 -43 68 -43 14 0 52 -7 85 -14 49 -11 72 -12 125 -2 45
8 65 17 65 27 0 7 4 17 9 20 5 4 1 34 -9 68 l-19 61 -144 0 c-130 0 -144 -2
-149 -18z"/>
<path fill="#000000" stroke="none" d="M1355 245 c-8 -14 -22 -36 -30 -50 -9
-14 -38 -38 -66 -53 -41 -22 -49 -31 -47 -52 2 -14 9 -24 15 -23 9 2 11 -6 7
-26 -5 -25 -3 -29 20 -33 14 -3 55 2 91 10 l65 16 0 118 c0 111 -1 118 -20
118 -11 0 -26 -11 -35 -25z"/>
</g>
</svg>
