<?xml version="1.0" standalone="no"?>
<!DOCTYPE svg PUBLIC "-//W3C//DTD SVG 20010904//EN"
 "http://www.w3.org/TR/2001/REC-SVG-20010904/DTD/svg10.dtd">
<svg version="1.0" xmlns="http://www.w3.org/2000/svg"
 width="41.000000pt" height="75.000000pt" viewBox="0 0 41.000000 75.000000"
 preserveAspectRatio="xMidYMid meet">
<metadata>
Created by potrace 1.14, written by Peter Selinger 2001-2017
</metadata>
<g transform="translate(0.000000,75.000000) scale(0.100000,-0.100000)"
fill="#000000" stroke="none">
<path fill="#000000" stroke="none" d="M64 725 l-52 -24 -7 -97 c-7 -93 -6
-99 14 -112 22 -15 29 -56 11 -67 -18 -11 -11 -23 75 -119 48 -55 111 -142
147 -202 l62 -105 50 142 c33 95 46 146 40 155 -151 221 -143 206 -134 254 6
28 5 66 -1 100 -10 54 -12 56 -62 78 -63 27 -78 27 -143 -3z"/>
</g>
</svg>
