<?xml version="1.0" standalone="no"?>
<!DOCTYPE svg PUBLIC "-//W3C//DTD SVG 20010904//EN"
 "http://www.w3.org/TR/2001/REC-SVG-20010904/DTD/svg10.dtd">
<svg version="1.0" xmlns="http://www.w3.org/2000/svg"
 width="57.000000pt" height="118.000000pt" viewBox="0 0 57.000000 118.000000"
 preserveAspectRatio="xMidYMid meet">
<metadata>
Created by potrace 1.14, written by Peter Selinger 2001-2017
</metadata>
<g transform="translate(0.000000,118.000000) scale(0.100000,-0.100000)"
fill="#000000" stroke="none">
<path fill="#000000" stroke="none" d="M41 1158 c-16 -43 -22 -117 -12 -135
28 -49 23 -50 153 37 191 128 190 120 15 120 -144 0 -148 -1 -156 -22z"/>
<path fill="#000000" stroke="none" d="M280 1083 c-104 -117 -132 -155 -123
-164 5 -4 34 -14 66 -23 l57 -17 -65 -78 c-40 -49 -77 -83 -96 -90 -30 -10
-30 -11 -28 -73 3 -77 -13 -130 -57 -184 l-34 -41 31 -29 30 -29 17 22 c10 12
38 27 65 34 26 6 50 15 53 20 3 5 -3 28 -13 51 -28 64 -12 137 40 185 21 19
41 33 43 30 3 -3 -6 -27 -19 -54 -60 -119 -30 -288 79 -446 l56 -82 -11 -48
c-6 -27 -11 -53 -11 -58 0 -5 29 -9 65 -9 l65 0 -6 28 c-3 15 -31 101 -61 192
l-55 165 76 163 c42 90 87 197 101 239 l24 75 -63 87 c-35 47 -81 119 -102
158 l-40 71 -84 -95z"/>
</g>
</svg>
