<?xml version="1.0" standalone="no"?>
<!DOCTYPE svg PUBLIC "-//W3C//DTD SVG 20010904//EN"
 "http://www.w3.org/TR/2001/REC-SVG-20010904/DTD/svg10.dtd">
<svg version="1.0" xmlns="http://www.w3.org/2000/svg"
 width="173.000000pt" height="260.000000pt" viewBox="0 0 173.000000 260.000000"
 preserveAspectRatio="xMidYMid meet">
<metadata>
Created by potrace 1.14, written by Peter Selinger 2001-2017
</metadata>
<g transform="translate(0.000000,260.000000) scale(0.100000,-0.100000)"
fill="#000000" stroke="none">
<path fill="#000000" stroke="none" d="M1545 2384 c-33 -141 -55 -218 -65
-224 -22 -11 -441 -122 -446 -118 -2 3 -16 58 -32 124 l-28 119 -84 47 c-51
28 -98 48 -117 48 -21 0 -65 -20 -135 -62 l-104 -62 -57 -140 c-31 -76 -55
-141 -53 -144 3 -2 37 -10 77 -18 39 -7 73 -15 74 -16 2 -2 -25 -42 -59 -89
-33 -47 -110 -178 -171 -291 l-109 -205 -71 -36 -71 -37 3 -92 c2 -51 8 -214
13 -363 l11 -270 -63 -57 c-38 -34 -56 -57 -47 -58 9 0 28 -9 43 -21 35 -27
47 -17 40 35 -6 41 -5 44 23 53 21 8 36 7 54 -3 21 -11 34 -11 75 1 27 7 81
19 120 25 69 11 71 12 82 46 9 31 4 54 -48 209 l-59 175 29 15 c15 8 36 26 47
41 l19 26 107 -8 c59 -3 114 -12 123 -18 14 -11 10 -24 -39 -122 -51 -103 -58
-123 -97 -319 -22 -116 -46 -224 -51 -242 -6 -20 -7 -39 -1 -50 6 -11 5 -37
-2 -68 -10 -41 -15 -50 -33 -49 -17 0 -22 -7 -27 -38 -5 -31 -1 -46 19 -77 25
-37 54 -51 106 -51 27 0 62 74 69 145 4 44 9 60 20 60 21 0 21 1 95 205 37
102 74 196 83 210 37 58 122 147 194 200 42 31 97 79 121 106 39 43 47 60 65
139 11 50 23 141 27 202 3 62 15 163 25 225 11 62 20 131 20 153 0 26 12 61
33 100 30 54 52 74 235 214 l202 154 -1 131 c-1 72 -4 176 -8 230 l-6 100 -55
12 c-30 7 -57 13 -60 14 -3 0 -27 -97 -55 -216z"/>
</g>
</svg>
