<?xml version="1.0" standalone="no"?>
<!DOCTYPE svg PUBLIC "-//W3C//DTD SVG 20010904//EN"
 "http://www.w3.org/TR/2001/REC-SVG-20010904/DTD/svg10.dtd">
<svg version="1.0" xmlns="http://www.w3.org/2000/svg"
 width="109.000000pt" height="136.000000pt" viewBox="0 0 109.000000 136.000000"
 preserveAspectRatio="xMidYMid meet">
<metadata>
Created by potrace 1.14, written by Peter Selinger 2001-2017
</metadata>
<g transform="translate(0.000000,136.000000) scale(0.100000,-0.100000)"
fill="#000000" stroke="none">
<path fill="#000000" stroke="none" d="M517 1274 c-44 -88 -44 -91 -50 -217
l-6 -128 32 -29 32 -29 -70 -65 -70 -65 -93 -1 -93 0 -30 -65 c-16 -35 -60
-143 -97 -238 l-68 -174 37 -21 c27 -16 55 -22 96 -22 32 0 68 -3 80 -6 22 -6
22 -7 6 -37 -8 -17 -12 -33 -7 -34 33 -12 36 -20 19 -53 -9 -17 -15 -34 -12
-36 4 -4 209 35 215 41 2 2 -1 13 -7 24 -9 16 -8 24 6 38 13 13 16 26 12 48
-12 57 -10 64 27 80 37 15 139 20 183 8 20 -5 23 -11 18 -43 -3 -24 2 -50 14
-75 11 -21 19 -48 19 -59 0 -11 22 -41 50 -68 l50 -48 119 0 118 0 6 58 c4 31
14 157 23 278 l17 221 -45 94 -45 94 -86 48 -86 48 16 52 c66 220 62 199 45
306 l-16 98 -110 26 c-61 14 -132 29 -158 32 l-47 7 -44 -88z"/>
</g>
</svg>
