<?xml version="1.0" standalone="no"?>
<!DOCTYPE svg PUBLIC "-//W3C//DTD SVG 20010904//EN"
 "http://www.w3.org/TR/2001/REC-SVG-20010904/DTD/svg10.dtd">
<svg version="1.0" xmlns="http://www.w3.org/2000/svg"
 width="66.000000pt" height="88.000000pt" viewBox="0 0 66.000000 88.000000"
 preserveAspectRatio="xMidYMid meet">
<metadata>
Created by potrace 1.14, written by Peter Selinger 2001-2017
</metadata>
<g transform="translate(0.000000,88.000000) scale(0.100000,-0.100000)"
fill="#000000" stroke="none">
<path fill="#000000" stroke="none" d="M520 868 c-89 -15 -90 -16 -90 -52 0
-31 -4 -35 -57 -59 -32 -14 -76 -31 -98 -37 -34 -10 -51 -26 -114 -113 -71
-97 -99 -154 -83 -168 4 -4 32 -12 62 -17 30 -6 76 -16 101 -23 53 -13 44 7
93 -229 38 -181 29 -170 133 -170 49 0 112 3 141 6 49 6 52 8 52 35 0 37 -17
79 -42 106 -16 17 -29 64 -52 180 l-31 158 -172 24 -173 24 0 27 c0 30 -14 27
211 46 l75 6 58 94 c57 93 58 94 44 132 l-13 38 -45 -8z"/>
<path fill="#000000" stroke="none" d="M4 128 c3 -13 6 -28 6 -34 0 -11 257
-81 265 -72 3 2 0 32 -6 66 l-11 62 -130 0 c-130 0 -130 0 -124 -22z"/>
</g>
</svg>
