<?xml version="1.0" standalone="no"?>
<!DOCTYPE svg PUBLIC "-//W3C//DTD SVG 20010904//EN"
 "http://www.w3.org/TR/2001/REC-SVG-20010904/DTD/svg10.dtd">
<svg version="1.0" xmlns="http://www.w3.org/2000/svg"
 width="72.000000pt" height="122.000000pt" viewBox="0 0 72.000000 122.000000"
 preserveAspectRatio="xMidYMid meet">
<metadata>
Created by potrace 1.14, written by Peter Selinger 2001-2017
</metadata>
<g transform="translate(0.000000,122.000000) scale(0.100000,-0.100000)"
fill="#000000" stroke="none">
<path fill="#000000" stroke="none" d="M425 1213 c-11 -2 -43 -13 -72 -25 -51
-20 -52 -21 -63 -76 -6 -32 -16 -73 -21 -92 -13 -51 -11 -97 6 -130 15 -28 14
-28 -30 -55 -25 -14 -69 -29 -98 -32 -63 -7 -117 -29 -117 -46 0 -6 12 -37 26
-67 32 -68 29 -117 -11 -210 -31 -73 -52 -168 -42 -193 5 -12 19 -17 51 -17
25 0 69 -9 98 -21 29 -11 98 -31 153 -43 l99 -22 59 32 58 33 -34 -42 c-58
-72 -58 -75 10 -50 8 3 10 -8 6 -36 -5 -37 -3 -41 15 -41 15 0 22 -7 24 -27
l3 -28 23 35 22 35 0 -32 c0 -37 9 -63 21 -63 5 0 18 18 29 40 20 40 20 40 1
128 -11 48 -31 117 -45 152 -32 77 -32 79 -3 52 30 -28 37 -20 37 40 0 26 4
48 9 48 5 0 25 21 44 47 33 45 34 47 21 90 -21 70 -45 102 -101 133 -29 16
-59 42 -67 57 -13 26 -12 29 28 64 41 37 41 37 22 58 -19 21 -19 22 3 69 30
66 29 108 -5 178 l-29 59 -55 2 c-30 0 -64 -1 -75 -4z"/>
</g>
</svg>
