<?xml version="1.0" standalone="no"?>
<!DOCTYPE svg PUBLIC "-//W3C//DTD SVG 20010904//EN"
 "http://www.w3.org/TR/2001/REC-SVG-20010904/DTD/svg10.dtd">
<svg version="1.0" xmlns="http://www.w3.org/2000/svg"
 width="76.000000pt" height="110.000000pt" viewBox="0 0 76.000000 110.000000"
 preserveAspectRatio="xMidYMid meet">
<metadata>
Created by potrace 1.14, written by Peter Selinger 2001-2017
</metadata>
<g transform="translate(0.000000,110.000000) scale(0.100000,-0.100000)"
fill="#000000" stroke="none">
<path fill="#000000" stroke="none" d="M170 1071 c-39 -23 -47 -34 -57 -77 -8
-31 -10 -70 -5 -109 l7 -60 59 -16 c56 -14 61 -18 78 -59 l18 -43 -44 -64 -44
-64 20 -72 c11 -40 28 -100 38 -134 16 -56 13 -82 -6 -52 -4 7 -28 9 -68 4
-128 -13 -132 -14 -151 -49 l-18 -34 46 -106 c26 -59 47 -114 47 -122 0 -23
111 -15 139 10 19 17 26 17 158 2 109 -13 159 -14 238 -6 55 5 105 10 112 10
6 0 14 17 18 38 6 40 -16 344 -40 537 -8 65 -15 122 -15 126 0 4 -30 28 -67
53 -49 33 -78 46 -103 46 -78 0 -80 3 -80 94 0 69 -3 86 -20 104 -12 12 -22
22 -23 22 -30 0 -173 33 -175 40 -5 14 -11 12 -62 -19z"/>
</g>
</svg>
