<?xml version="1.0" standalone="no"?>
<!DOCTYPE svg PUBLIC "-//W3C//DTD SVG 20010904//EN"
 "http://www.w3.org/TR/2001/REC-SVG-20010904/DTD/svg10.dtd">
<svg version="1.0" xmlns="http://www.w3.org/2000/svg"
 width="35.000000pt" height="58.000000pt" viewBox="0 0 35.000000 58.000000"
 preserveAspectRatio="xMidYMid meet">
<metadata>
Created by potrace 1.14, written by Peter Selinger 2001-2017
</metadata>
<g transform="translate(0.000000,58.000000) scale(0.100000,-0.100000)"
fill="#000000" stroke="none">
<path fill="#000000" stroke="none" d="M80 565 c-8 -10 -10 -33 -5 -75 l7 -60
-29 0 c-16 0 -34 -5 -41 -12 -14 -14 -16 -130 -2 -144 5 -5 13 -57 16 -114 7
-112 14 -130 49 -130 40 0 47 22 43 124 -1 52 0 92 5 89 4 -2 7 -50 7 -107 0
-116 10 -136 68 -136 51 0 62 27 62 152 l0 107 32 3 c23 2 37 11 48 31 13 24
13 30 0 55 -13 22 -24 28 -57 30 -23 2 -47 10 -53 18 -7 7 -23 14 -36 14 -23
0 -24 3 -24 73 0 43 -5 78 -12 85 -17 17 -63 15 -78 -3z"/>
</g>
</svg>
