<?xml version="1.0" standalone="no"?>
<!DOCTYPE svg PUBLIC "-//W3C//DTD SVG 20010904//EN"
 "http://www.w3.org/TR/2001/REC-SVG-20010904/DTD/svg10.dtd">
<svg version="1.0" xmlns="http://www.w3.org/2000/svg"
 width="64.000000pt" height="75.000000pt" viewBox="0 0 64.000000 75.000000"
 preserveAspectRatio="xMidYMid meet">
<metadata>
Created by potrace 1.14, written by Peter Selinger 2001-2017
</metadata>
<g transform="translate(0.000000,75.000000) scale(0.100000,-0.100000)"
fill="#000000" stroke="none">
<path fill="#000000" stroke="none" d="M215 727 c-27 -11 -53 -25 -56 -30 -4
-5 -12 -35 -19 -66 -10 -48 -9 -66 4 -111 9 -30 26 -64 38 -77 l22 -23 -22
-23 c-12 -12 -60 -34 -105 -48 -79 -26 -80 -27 -40 -28 l42 -1 3 -137 3 -138
70 -16 c44 -10 146 -19 278 -23 l207 -7 0 43 c0 69 -33 170 -70 216 -20 25
-54 52 -85 66 -48 22 -53 27 -74 85 -19 54 -21 69 -12 111 9 40 7 57 -10 107
-17 50 -27 63 -69 91 -27 17 -51 32 -52 31 -2 0 -25 -10 -53 -22z"/>
</g>
</svg>
