<?xml version="1.0" standalone="no"?>
<!DOCTYPE svg PUBLIC "-//W3C//DTD SVG 20010904//EN"
 "http://www.w3.org/TR/2001/REC-SVG-20010904/DTD/svg10.dtd">
<svg version="1.0" xmlns="http://www.w3.org/2000/svg"
 width="129.000000pt" height="151.000000pt" viewBox="0 0 129.000000 151.000000"
 preserveAspectRatio="xMidYMid meet">
<metadata>
Created by potrace 1.14, written by Peter Selinger 2001-2017
</metadata>
<g transform="translate(0.000000,151.000000) scale(0.100000,-0.100000)"
fill="#000000" stroke="none">
<path fill="#000000" stroke="none" d="M1100 1464 c-123 -77 -201 -153 -263
-257 -52 -88 -55 -97 -66 -197 -11 -98 -40 -234 -55 -259 -4 -6 -26 -11 -49
-11 -39 0 -44 -3 -68 -43 -15 -23 -39 -93 -54 -156 -22 -89 -30 -110 -36 -93
-9 23 -33 29 -44 12 -4 -6 -44 10 -98 39 -103 55 -198 83 -284 85 l-58 1 -13
-40 c-12 -36 -10 -47 15 -130 15 -49 46 -122 70 -161 37 -62 50 -74 92 -93 27
-11 60 -21 73 -21 20 0 30 -13 58 -70 l34 -70 400 0 c221 0 406 4 412 8 22 15
44 106 44 187 0 66 -5 95 -31 160 -30 78 -31 83 -26 205 5 113 10 141 55 290
42 140 52 190 66 327 l16 162 -55 85 c-30 47 -56 86 -58 86 -1 0 -36 -21 -77
-46z"/>
</g>
</svg>
