<?xml version="1.0" standalone="no"?>
<!DOCTYPE svg PUBLIC "-//W3C//DTD SVG 20010904//EN"
 "http://www.w3.org/TR/2001/REC-SVG-20010904/DTD/svg10.dtd">
<svg version="1.0" xmlns="http://www.w3.org/2000/svg"
 width="224.000000pt" height="400.000000pt" viewBox="0 0 224.000000 400.000000"
 preserveAspectRatio="xMidYMid meet">
<metadata>
Created by potrace 1.14, written by Peter Selinger 2001-2017
</metadata>
<g transform="translate(0.000000,400.000000) scale(0.100000,-0.100000)"
fill="#000000" stroke="none">
<path fill="#000000" stroke="none" d="M1063 3966 c-122 -18 -224 -34 -226
-36 -30 -37 -105 -155 -145 -228 l-51 -92 -11 -193 c-10 -186 -10 -199 19
-426 18 -150 33 -236 41 -241 7 -5 51 -16 97 -26 46 -9 86 -20 88 -24 12 -20
-63 -210 -215 -545 l-172 -380 -134 -447 c-74 -246 -134 -451 -134 -456 0 -4
31 -24 68 -44 37 -21 78 -48 91 -62 13 -14 39 -28 56 -32 30 -5 33 -10 44 -62
6 -31 12 -61 12 -67 2 -16 -30 -128 -38 -135 -5 -4 -108 -80 -230 -170 -222
-162 -223 -162 -223 -200 0 -32 5 -41 37 -63 l38 -25 1068 -7 1067 -7 0 25 c0
14 7 133 15 265 l16 239 -66 155 -65 156 -45 309 c-114 785 -185 1217 -203
1234 -9 9 -80 72 -157 139 -77 67 -151 140 -165 162 l-26 41 26 101 c16 62 70
203 139 364 l114 262 -17 43 c-9 23 -54 132 -100 241 l-84 200 -123 33 c-68
18 -137 32 -154 32 -16 -1 -130 -16 -252 -33z"/>
</g>
</svg>
