<?xml version="1.0" standalone="no"?>
<!DOCTYPE svg PUBLIC "-//W3C//DTD SVG 20010904//EN"
 "http://www.w3.org/TR/2001/REC-SVG-20010904/DTD/svg10.dtd">
<svg version="1.0" xmlns="http://www.w3.org/2000/svg"
 width="171.000000pt" height="240.000000pt" viewBox="0 0 171.000000 240.000000"
 preserveAspectRatio="xMidYMid meet">
<metadata>
Created by potrace 1.14, written by Peter Selinger 2001-2017
</metadata>
<g transform="translate(0.000000,240.000000) scale(0.100000,-0.100000)"
fill="#000000" stroke="none">
<path fill="#000000" stroke="none" d="M883 2357 c-58 -40 -65 -50 -149 -201
-48 -88 -104 -178 -124 -201 -111 -128 -297 -392 -350 -495 l-20 -39 25 -3
c23 -3 20 -9 -65 -142 -64 -98 -90 -148 -90 -170 0 -17 5 -157 11 -311 9 -238
15 -304 40 -440 17 -88 33 -170 35 -182 l6 -21 -94 24 c-51 13 -96 24 -100 24
-5 0 -8 -45 -8 -100 l0 -100 147 74 c128 64 154 81 189 125 l42 51 -50 197
-50 198 37 265 c20 146 40 274 44 285 5 11 42 58 82 105 41 47 85 99 99 115
l25 30 160 -6 c88 -4 311 -14 495 -24 l335 -17 74 45 c40 25 75 48 77 50 7 7
-277 260 -433 386 l-153 124 0 76 c0 69 -5 86 -50 186 -43 97 -52 111 -82 121
-43 16 -34 19 -105 -29z"/>
</g>
</svg>
