<?xml version="1.0" standalone="no"?>
<!DOCTYPE svg PUBLIC "-//W3C//DTD SVG 20010904//EN"
 "http://www.w3.org/TR/2001/REC-SVG-20010904/DTD/svg10.dtd">
<svg version="1.0" xmlns="http://www.w3.org/2000/svg"
 width="232.000000pt" height="378.000000pt" viewBox="0 0 232.000000 378.000000"
 preserveAspectRatio="xMidYMid meet">
<metadata>
Created by potrace 1.14, written by Peter Selinger 2001-2017
</metadata>
<g transform="translate(0.000000,378.000000) scale(0.100000,-0.100000)"
fill="#000000" stroke="none">
<path fill="#000000" stroke="none" d="M1469 3713 l-87 -66 -6 -211 c-4 -116
-10 -224 -13 -240 -5 -26 -3 -28 18 -23 43 11 440 59 445 54 5 -4 144 -986
144 -1013 0 -6 -70 -17 -182 -27 l-183 -16 -38 37 c-21 20 -70 72 -109 115
l-71 78 12 40 12 41 -60 71 c-33 40 -82 107 -108 149 -26 42 -50 75 -53 72 -3
-3 -9 -21 -15 -41 l-10 -35 -49 91 c-49 90 -50 91 -70 74 -12 -10 -22 -18 -23
-18 -1 -1 9 -40 22 -88 13 -48 23 -87 21 -87 -1 0 -27 36 -57 80 -48 71 -57
80 -86 80 -17 0 -34 -3 -36 -7 -2 -5 27 -66 65 -137 38 -71 67 -133 66 -136
-2 -4 -55 12 -118 36 -156 60 -147 58 -153 34 -4 -17 12 -35 91 -98 53 -43 99
-80 102 -84 3 -4 -43 -76 -102 -161 l-107 -154 -68 -6 c-37 -4 -80 -7 -95 -7
l-28 0 -1 318 c-2 349 -2 349 -49 -18 -26 -198 -31 -272 -28 -385 3 -126 1
-144 -16 -170 -11 -17 -115 -126 -231 -242 l-212 -213 68 -225 c37 -125 73
-234 81 -243 63 -80 335 -375 412 -445 103 -95 210 -155 289 -164 38 -5 45
-10 72 -56 17 -28 63 -86 104 -129 40 -43 70 -78 65 -79 -5 0 39 -13 98 -29
l107 -27 163 44 163 45 90 88 c69 68 117 104 205 154 90 52 135 85 200 151
l84 85 4 252 c3 150 8 258 14 266 20 24 28 11 28 -43 0 -52 1 -55 25 -55 40 0
45 43 45 430 l0 355 -95 348 c-52 191 -107 376 -124 410 -109 233 -122 277
-81 277 11 0 20 6 20 14 0 26 -190 890 -197 897 -5 3 -62 16 -128 28 -66 12
-129 24 -140 26 -13 3 -50 -18 -106 -62z"/>
</g>
</svg>
