<?xml version="1.0" standalone="no"?>
<!DOCTYPE svg PUBLIC "-//W3C//DTD SVG 20010904//EN"
 "http://www.w3.org/TR/2001/REC-SVG-20010904/DTD/svg10.dtd">
<svg version="1.0" xmlns="http://www.w3.org/2000/svg"
 width="40.000000pt" height="75.000000pt" viewBox="0 0 40.000000 75.000000"
 preserveAspectRatio="xMidYMid meet">
<metadata>
Created by potrace 1.14, written by Peter Selinger 2001-2017
</metadata>
<g transform="translate(0.000000,75.000000) scale(0.100000,-0.100000)"
fill="#000000" stroke="none">
<path fill="#000000" stroke="none" d="M135 634 c-41 -63 -89 -152 -106 -196
l-32 -81 27 -54 c14 -29 26 -61 26 -70 0 -9 -12 -54 -27 -100 l-27 -84 29 -24
c17 -13 33 -24 38 -25 4 0 26 38 49 85 23 47 45 85 48 85 3 0 12 -19 20 -42
14 -41 17 -43 58 -46 l42 -3 1 143 1 143 17 -65 c10 -36 24 -80 32 -98 l14
-33 27 28 28 29 -50 195 c-27 106 -55 214 -61 239 -20 79 -27 90 -53 90 -21 0
-38 -19 -101 -116z"/>
</g>
</svg>
