<?xml version="1.0" standalone="no"?>
<!DOCTYPE svg PUBLIC "-//W3C//DTD SVG 20010904//EN"
 "http://www.w3.org/TR/2001/REC-SVG-20010904/DTD/svg10.dtd">
<svg version="1.0" xmlns="http://www.w3.org/2000/svg"
 width="142.000000pt" height="132.000000pt" viewBox="0 0 142.000000 132.000000"
 preserveAspectRatio="xMidYMid meet">
<metadata>
Created by potrace 1.14, written by Peter Selinger 2001-2017
</metadata>
<g transform="translate(0.000000,132.000000) scale(0.100000,-0.100000)"
fill="#000000" stroke="none">
<path fill="#000000" stroke="none" d="M1222 1297 c-17 -18 -22 -36 -22 -79 0
-69 -19 -91 -44 -53 -22 33 -74 34 -104 2 -12 -13 -22 -31 -22 -40 0 -9 -4
-19 -10 -22 -5 -3 -10 -25 -10 -48 0 -40 0 -41 -16 -19 -11 16 -25 22 -54 22
-21 0 -41 -4 -44 -9 -3 -4 -19 -11 -35 -14 -21 -4 -36 -17 -47 -39 -9 -18 -27
-41 -40 -51 -31 -24 -32 -78 -3 -131 11 -21 19 -39 17 -40 -2 0 -17 -11 -35
-24 -18 -12 -35 -22 -39 -22 -3 0 -23 -13 -44 -30 -21 -16 -42 -30 -47 -30 -5
0 -23 -15 -41 -33 -27 -28 -32 -40 -32 -84 0 -33 -5 -55 -15 -63 -8 -7 -15
-19 -15 -26 0 -8 -5 -23 -12 -33 -12 -19 -12 -19 -36 0 -14 10 -31 19 -40 19
-8 0 -32 18 -53 40 -33 33 -38 44 -29 60 5 10 10 35 10 55 0 33 -2 36 -27 33
-28 -3 -28 -2 -39 77 -10 76 -32 136 -54 150 -6 4 -40 3 -76 -1 l-66 -7 -48
-101 c-43 -92 -46 -103 -32 -118 8 -10 20 -18 27 -18 18 0 45 -34 45 -57 0
-11 7 -26 15 -33 8 -7 15 -18 15 -24 0 -7 16 -31 35 -53 33 -39 35 -45 35
-117 0 -71 2 -80 36 -129 55 -79 62 -84 117 -98 63 -16 77 -14 99 13 18 20 18
19 18 -20 0 -28 7 -49 23 -67 19 -22 32 -26 99 -31 72 -5 77 -4 92 18 8 13 18
44 21 71 4 26 11 50 16 53 5 3 9 14 9 24 0 10 6 25 14 33 17 17 48 88 42 95
-3 2 -26 -3 -52 -12 -60 -20 -61 -20 -67 4 -7 25 -27 26 -27 1 0 -10 -6 -24
-14 -31 -8 -6 -17 -24 -20 -38 -2 -15 -3 -7 -2 18 2 25 6 52 10 61 5 12 -1 19
-23 29 l-30 12 31 47 c17 25 46 63 64 85 18 21 34 50 36 64 2 14 12 30 23 36
11 6 40 25 65 42 53 38 185 108 218 116 17 5 22 13 22 37 0 27 4 31 26 31 30
0 110 74 140 130 10 19 20 37 21 39 2 2 9 -2 17 -8 8 -7 29 -11 47 -9 37 4 68
38 78 89 5 25 13 35 29 37 44 7 66 69 37 108 -8 10 -15 31 -15 46 0 14 -12 40
-26 57 -22 27 -33 31 -73 31 -37 0 -52 -5 -69 -23z"/>
<path fill="#ffffff" stroke="none" d="M467 258 c-3 -7 -5 -2 -5 12 0 14 2 19
5 13 2 -7 2 -19 0 -25z"/>
<path fill="#ffffff" stroke="none" d="M467 208 c-3 -8 -6 -5 -6 6 -1 11 2 17
5 13 3 -3 4 -12 1 -19z"/>
<path fill="#000000" stroke="none" d="M55 1213 c-51 -8 -55 -17 -55 -124 0
-89 2 -99 18 -99 24 0 92 63 92 84 0 10 5 14 10 11 6 -3 10 -2 10 2 0 5 10 13
22 18 34 15 45 57 24 89 -17 27 -41 30 -121 19z"/>
<path fill="#000000" stroke="none" d="M1370 404 c-25 -6 -58 -17 -73 -23
l-28 -11 7 -122 c4 -71 12 -126 18 -130 6 -4 26 -8 43 -8 58 0 86 75 81 216
l-3 90 -45 -12z"/>
<path fill="#000000" stroke="none" d="M870 296 c-75 -24 -78 -30 -82 -151 -2
-61 -7 -118 -12 -127 -7 -16 -1 -18 68 -18 93 0 92 -2 36 151 -22 60 -40 113
-40 118 0 5 20 12 45 15 25 4 45 11 45 17 0 11 -15 10 -60 -5z"/>
</g>
</svg>
