<?xml version="1.0" standalone="no"?>
<!DOCTYPE svg PUBLIC "-//W3C//DTD SVG 20010904//EN"
 "http://www.w3.org/TR/2001/REC-SVG-20010904/DTD/svg10.dtd">
<svg version="1.0" xmlns="http://www.w3.org/2000/svg"
 width="196.000000pt" height="316.000000pt" viewBox="0 0 196.000000 316.000000"
 preserveAspectRatio="xMidYMid meet">
<metadata>
Created by potrace 1.14, written by Peter Selinger 2001-2017
</metadata>
<g transform="translate(0.000000,316.000000) scale(0.100000,-0.100000)"
fill="#000000" stroke="none">
<path fill="#000000" stroke="none" d="M1112 3141 c-34 -10 -65 -20 -67 -23
-2 -2 -27 -46 -54 -98 l-50 -94 32 -43 c30 -43 31 -43 14 -79 -17 -34 -18 -35
-61 -29 -56 9 -173 -23 -276 -75 -58 -29 -94 -57 -155 -121 -43 -46 -87 -84
-97 -84 -11 -1 -35 -17 -56 -37 -20 -19 -60 -51 -88 -71 -62 -44 -64 -54 -64
-287 0 -157 0 -158 -33 -231 -26 -58 -32 -81 -26 -107 7 -35 8 -34 -56 -56
-21 -7 -63 -103 -69 -158 l-6 -58 26 10 c34 13 34 14 28 -18 -4 -20 0 -33 14
-45 19 -18 21 -16 73 47 l54 64 95 -161 c77 -131 105 -169 144 -198 32 -24 55
-53 68 -81 l19 -45 -75 -124 -74 -124 -37 -265 c-31 -223 -41 -275 -65 -325
-30 -64 -54 -134 -48 -140 16 -15 247 -77 303 -81 126 -9 124 15 -11 136 -81
72 -98 100 -71 117 8 5 24 69 39 153 25 138 31 155 111 328 50 106 106 210
136 251 l51 68 -15 42 c-8 22 -12 41 -9 41 7 0 154 -121 154 -127 0 -2 -18
-30 -39 -62 -33 -48 -40 -68 -46 -126 -13 -139 -36 -228 -90 -361 -41 -100
-54 -144 -50 -164 6 -27 8 -28 98 -34 51 -4 145 -12 210 -18 114 -11 117 -12
101 -29 -27 -30 7 -24 36 6 31 33 16 50 -58 66 -53 10 -212 82 -212 95 0 3 20
53 44 112 74 180 193 420 232 467 34 42 53 92 54 142 0 15 -14 32 -43 52 -38
26 -59 57 -152 228 -153 278 -142 264 -214 292 -34 13 -60 28 -59 32 2 5 46
54 98 110 59 64 108 127 130 169 27 51 55 84 116 138 l82 72 33 -38 c19 -20
63 -74 99 -120 43 -54 100 -110 167 -162 101 -80 102 -80 162 -80 67 0 99 -11
152 -52 l36 -27 -5 24 c-2 14 -2 32 2 40 5 14 10 14 39 2 28 -12 36 -12 54 0
20 13 23 12 39 -12 21 -32 34 -18 34 36 0 87 -5 95 -81 111 -68 15 -69 14
-104 -10 l-35 -25 -95 78 c-91 73 -147 132 -247 256 -43 53 -45 60 -51 135 -6
87 2 75 -127 186 l-55 47 33 11 c28 11 41 28 87 119 30 58 76 140 104 181 l50
74 -33 61 c-34 60 -34 60 -123 92 -48 18 -92 32 -98 32 -5 0 -38 -9 -73 -18z"/>
</g>
</svg>
