<?xml version="1.0" standalone="no"?>
<!DOCTYPE svg PUBLIC "-//W3C//DTD SVG 20010904//EN"
 "http://www.w3.org/TR/2001/REC-SVG-20010904/DTD/svg10.dtd">
<svg version="1.0" xmlns="http://www.w3.org/2000/svg"
 width="58.000000pt" height="107.000000pt" viewBox="0 0 58.000000 107.000000"
 preserveAspectRatio="xMidYMid meet">
<metadata>
Created by potrace 1.14, written by Peter Selinger 2001-2017
</metadata>
<g transform="translate(0.000000,107.000000) scale(0.100000,-0.100000)"
fill="#000000" stroke="none">
<path fill="#000000" stroke="none" d="M7 1041 c2 -14 12 -89 23 -165 l18
-139 54 -78 c50 -75 56 -80 121 -105 37 -14 67 -29 67 -32 0 -14 -38 -131 -95
-290 l-57 -162 31 -35 c26 -30 31 -33 31 -15 0 11 3 20 8 20 4 0 44 4 90 10
71 8 97 17 183 62 l99 53 0 65 c0 63 -2 68 -63 160 -61 91 -65 100 -90 224
l-27 129 21 144 c12 79 20 146 17 148 -10 11 -165 -27 -206 -50 -25 -14 -46
-25 -48 -25 -2 0 -4 15 -4 34 0 19 -5 38 -10 41 -6 4 -46 12 -88 19 l-78 13 3
-26z"/>
</g>
</svg>
