<?xml version="1.0" standalone="no"?>
<!DOCTYPE svg PUBLIC "-//W3C//DTD SVG 20010904//EN"
 "http://www.w3.org/TR/2001/REC-SVG-20010904/DTD/svg10.dtd">
<svg version="1.0" xmlns="http://www.w3.org/2000/svg"
 width="86.000000pt" height="137.000000pt" viewBox="0 0 86.000000 137.000000"
 preserveAspectRatio="xMidYMid meet">
<metadata>
Created by potrace 1.14, written by Peter Selinger 2001-2017
</metadata>
<g transform="translate(0.000000,137.000000) scale(0.100000,-0.100000)"
fill="#000000" stroke="none">
<path fill="#000000" stroke="none" d="M257 1290 c-77 -105 -84 -150 -37 -258
27 -65 30 -76 17 -90 -8 -10 -19 -57 -25 -107 -10 -85 -9 -92 13 -136 l24 -46
-76 -7 c-63 -5 -81 -11 -113 -36 l-37 -29 -13 -141 -12 -140 58 -92 c32 -51
83 -119 113 -151 l54 -57 80 0 c78 0 79 0 72 23 -4 12 -11 54 -15 92 -4 39
-22 106 -40 150 -18 44 -41 101 -51 128 l-19 47 52 -26 c44 -22 61 -26 108
-21 47 5 59 11 85 40 27 32 39 36 125 52 177 31 188 34 194 58 3 12 14 105 26
206 l21 184 -38 95 c-35 88 -41 97 -88 127 -46 30 -119 52 -227 70 -45 7 -50
29 -16 83 l22 35 -27 -6 c-15 -4 -38 -10 -52 -13 -20 -5 -27 -1 -36 20 -10 21
-19 26 -48 26 -33 -1 -40 -7 -94 -80z"/>
<path fill="#ffffff" stroke="none" d="M326 1175 c9 -23 -6 -126 -17 -120 -5
4 -9 28 -9 56 0 27 -4 49 -10 49 -5 0 -10 -9 -10 -20 0 -11 -4 -20 -10 -20
-13 0 -13 12 0 44 11 29 47 36 56 11z"/>
</g>
</svg>
