<?xml version="1.0" standalone="no"?>
<!DOCTYPE svg PUBLIC "-//W3C//DTD SVG 20010904//EN"
 "http://www.w3.org/TR/2001/REC-SVG-20010904/DTD/svg10.dtd">
<svg version="1.0" xmlns="http://www.w3.org/2000/svg"
 width="264.000000pt" height="235.000000pt" viewBox="0 0 264.000000 235.000000"
 preserveAspectRatio="xMidYMid meet">
<metadata>
Created by potrace 1.14, written by Peter Selinger 2001-2017
</metadata>
<g transform="translate(0.000000,235.000000) scale(0.100000,-0.100000)"
fill="#000000" stroke="none">
<path fill="#000000" stroke="none" d="M110 2342 c-60 -3 -80 -18 -80 -60 0
-14 -8 -30 -17 -37 -15 -11 -16 -17 -3 -54 9 -29 18 -40 28 -36 7 3 38 -2 68
-11 41 -12 54 -20 54 -35 0 -27 35 -25 54 3 22 32 20 55 -9 84 -21 21 -23 28
-14 51 11 30 4 77 -14 90 -7 4 -37 7 -67 5z"/>
<path fill="#000000" stroke="none" d="M551 2224 c-26 -34 -27 -74 -1 -107 11
-14 20 -30 20 -37 0 -7 -9 -23 -20 -37 -19 -25 -28 -73 -12 -73 4 0 25 12 47
25 37 23 50 25 160 25 l121 0 36 -72 c35 -70 36 -72 43 -44 5 18 4 31 -4 36
-9 5 -4 25 18 75 41 91 40 114 -6 151 -72 57 -123 77 -177 70 -28 -3 -56 -12
-64 -19 -12 -12 -17 -11 -37 9 -35 35 -96 33 -124 -2z"/>
<path fill="#000000" stroke="none" d="M2500 2205 c-7 -8 -18 -15 -25 -15 -20
0 -55 -49 -55 -78 0 -14 14 -47 31 -75 27 -43 31 -60 33 -131 1 -45 4 -85 5
-91 11 -37 -30 -48 -74 -19 -35 23 -94 15 -117 -17 -51 -68 -23 -159 48 -159
20 0 44 5 54 10 13 7 21 7 25 0 3 -5 15 -10 26 -10 14 0 19 -7 19 -29 0 -34
34 -81 60 -81 15 0 13 -5 -12 -30 -26 -27 -29 -35 -24 -68 9 -52 9 -70 -4
-127 -32 -143 -34 -175 -13 -203 16 -21 31 -28 69 -32 41 -4 52 -10 71 -39
l23 -34 0 615 0 615 -37 7 c-61 10 -90 7 -103 -9z"/>
<path fill="#000000" stroke="none" d="M199 2064 c-13 -15 -18 -51 -23 -154
-5 -113 -3 -152 14 -240 11 -58 20 -139 21 -180 0 -41 6 -120 12 -175 l13
-100 27 40 c17 27 28 58 30 91 3 28 13 63 22 78 16 23 17 33 7 60 -16 42 -15
63 2 73 45 26 65 157 41 263 -12 56 -10 69 23 137 13 26 14 37 4 58 -7 14 -20
28 -29 31 -10 3 -26 10 -36 15 -10 6 -40 13 -65 16 -38 4 -50 2 -63 -13z"/>
<path fill="#000000" stroke="none" d="M2025 1760 c-22 -6 -61 -20 -87 -32
l-48 -21 0 -65 c0 -35 -8 -86 -17 -113 l-18 -49 33 -62 c18 -35 41 -76 51 -93
18 -28 71 -299 71 -361 0 -26 27 -44 39 -26 3 6 28 89 55 184 l48 173 38 -3
c21 -2 40 0 42 5 3 4 2 41 -1 82 -6 64 -4 77 15 105 12 17 24 40 27 51 3 11 8
29 11 40 5 16 -3 26 -34 45 -28 17 -49 42 -68 80 -15 30 -27 56 -28 57 -3 9
-96 10 -129 3z"/>
<path fill="#000000" stroke="none" d="M2254 1234 c-4 -10 -20 -53 -36 -94
-15 -41 -28 -81 -28 -90 1 -47 58 -197 134 -348 48 -96 107 -229 132 -295 44
-118 45 -124 39 -199 -7 -73 -8 -78 -29 -73 -11 3 -93 19 -181 35 -88 17 -172
35 -186 39 -26 9 -26 9 -38 -68 -6 -42 -14 -91 -18 -109 l-5 -32 301 0 c165 0
301 2 301 4 0 14 -106 289 -136 353 -20 43 -53 125 -74 181 -34 93 -37 107
-26 133 9 21 10 45 4 82 -5 28 -10 64 -12 79 -2 16 -11 36 -20 47 -11 12 -30
78 -49 173 -32 155 -59 222 -73 182z"/>
<path fill="#000000" stroke="none" d="M207 1113 c-9 -21 -41 -94 -72 -163
-55 -121 -57 -127 -52 -190 14 -164 17 -184 29 -192 15 -9 147 -10 201 -1 29
4 41 12 48 32 13 32 -3 71 -30 71 -10 0 -21 7 -25 15 -3 8 -17 15 -31 15 -39
0 -67 35 -69 86 -1 24 3 45 7 47 15 5 27 90 15 105 -7 8 -8 47 -4 112 4 55 5
100 3 100 -3 0 -12 -17 -20 -37z"/>
<path fill="#000000" stroke="none" d="M2021 475 c0 -27 6 -72 13 -100 18 -63
18 -34 1 70 -12 75 -13 77 -14 30z"/>
<path fill="#000000" stroke="none" d="M2051 294 c0 -11 3 -14 6 -6 3 7 2 16
-1 19 -3 4 -6 -2 -5 -13z"/>
</g>
</svg>
