<?xml version="1.0" standalone="no"?>
<!DOCTYPE svg PUBLIC "-//W3C//DTD SVG 20010904//EN"
 "http://www.w3.org/TR/2001/REC-SVG-20010904/DTD/svg10.dtd">
<svg version="1.0" xmlns="http://www.w3.org/2000/svg"
 width="26.000000pt" height="38.000000pt" viewBox="0 0 26.000000 38.000000"
 preserveAspectRatio="xMidYMid meet">
<metadata>
Created by potrace 1.14, written by Peter Selinger 2001-2017
</metadata>
<g transform="translate(0.000000,38.000000) scale(0.100000,-0.100000)"
fill="#000000" stroke="none">
<path fill="#000000" stroke="none" d="M43 359 c-30 -19 -33 -26 -33 -71 0
-28 7 -78 16 -111 15 -60 15 -62 -6 -79 l-21 -17 32 -41 33 -41 24 53 c14 29
30 71 37 93 12 38 15 40 69 51 32 7 59 14 61 16 3 2 -7 35 -21 72 -28 73 -38
80 -115 90 -35 5 -51 2 -76 -15z"/>
</g>
</svg>
