<?xml version="1.0" standalone="no"?>
<!DOCTYPE svg PUBLIC "-//W3C//DTD SVG 20010904//EN"
 "http://www.w3.org/TR/2001/REC-SVG-20010904/DTD/svg10.dtd">
<svg version="1.0" xmlns="http://www.w3.org/2000/svg"
 width="485.000000pt" height="201.000000pt" viewBox="0 0 485.000000 201.000000"
 preserveAspectRatio="xMidYMid meet">
<metadata>
Created by potrace 1.14, written by Peter Selinger 2001-2017
</metadata>
<g transform="translate(0.000000,201.000000) scale(0.100000,-0.100000)"
fill="#000000" stroke="none">
<path fill="#000000" stroke="none" d="M71 1993 c-54 -27 -71 -76 -71 -212 l0
-113 34 -34 c29 -29 41 -34 79 -34 30 0 53 7 71 21 14 11 31 17 37 13 14 -8
118 -23 220 -30 60 -5 83 -2 109 11 21 11 36 13 42 7 6 -6 11 -63 12 -129 1
-99 5 -125 23 -165 19 -38 21 -51 12 -77 -6 -17 -8 -57 -6 -88 3 -32 10 -116
17 -188 6 -78 18 -150 29 -180 11 -27 25 -68 32 -90 6 -22 20 -51 29 -65 10
-14 25 -42 33 -63 12 -28 22 -37 40 -37 36 0 67 -39 67 -86 0 -37 5 -45 81
-112 44 -40 89 -72 100 -72 10 0 19 -6 19 -14 0 -41 132 -146 185 -146 10 0
38 -18 62 -41 24 -22 60 -47 78 -55 44 -18 162 -18 195 1 16 8 40 12 65 8 52
-7 80 20 72 69 -6 36 19 139 37 151 6 4 63 4 126 1 110 -6 118 -5 166 19 28
14 56 33 63 41 8 9 24 16 38 16 13 0 33 5 44 10 16 9 19 7 19 -14 0 -35 45
-84 88 -96 53 -14 125 -12 148 5 33 25 54 19 54 -16 0 -22 10 -41 34 -65 29
-29 41 -34 79 -34 54 0 91 26 109 77 l13 35 67 -5 68 -6 0 43 c0 24 5 57 10
73 8 20 8 55 1 109 -9 77 -9 80 19 125 23 38 30 66 40 156 l12 110 74 -22 c40
-13 78 -26 83 -30 6 -3 11 -40 11 -86 l0 -79 43 0 44 0 16 -177 c10 -98 17
-193 17 -211 0 -29 3 -33 23 -31 12 2 32 -2 44 -9 27 -15 68 -15 152 -1 63 11
65 11 80 -12 9 -13 30 -39 47 -57 27 -27 39 -32 79 -32 47 0 76 19 113 75 10
17 14 17 19 5 3 -8 21 -30 39 -48 26 -26 40 -32 74 -32 23 0 51 5 62 11 12 7
49 18 82 26 34 8 71 21 84 29 18 12 56 15 185 14 189 -2 256 -7 277 -24 46
-38 112 -66 153 -66 77 0 77 0 77 110 l0 98 -34 12 c-51 17 -99 81 -89 119 5
19 1 21 -46 21 -58 0 -64 11 -30 54 17 21 20 35 15 66 -5 32 -2 41 14 53 19
13 19 14 -6 49 -15 20 -23 41 -19 47 3 6 33 11 65 11 35 0 74 7 95 17 l35 17
0 628 0 628 -54 0 c-30 0 -62 -3 -71 -6 -10 -4 -30 -36 -46 -70 -36 -82 -57
-85 -51 -9 7 86 4 87 -164 84 -79 -2 -146 0 -150 4 -4 4 -116 7 -249 7 -221 0
-244 -2 -280 -20 -22 -11 -43 -26 -47 -34 -12 -21 -63 -5 -89 28 l-22 28 -201
-6 c-111 -3 -212 -6 -226 -5 -188 6 -196 5 -243 -28 l-46 -32 -10 31 c-8 22
-15 29 -27 24 -9 -4 -23 -1 -30 5 -9 8 -252 9 -861 6 -466 -3 -852 -5 -858 -5
-5 0 -237 2 -515 4 -457 4 -508 2 -539 -13z"/>
<path fill="#ffffff" stroke="none" d="M4490 1791 c-21 -41 -12 -91 24 -127
32 -32 38 -34 100 -34 38 0 66 -4 66 -10 0 -14 -44 -30 -79 -30 -15 0 -47 -10
-71 -23 l-44 -23 -50 28 c-28 15 -63 28 -78 28 -25 0 -26 2 -21 43 3 23 12 61
20 85 13 35 20 42 42 42 14 0 42 8 61 19 19 10 36 19 38 20 1 0 -2 -8 -8 -18z"/>
<path fill="#ffffff" stroke="none" d="M2831 1672 c-14 -11 -17 -8 -24 25 -6
29 -4 46 10 72 l18 35 6 -60 c5 -47 3 -62 -10 -72z"/>
<path fill="#ffffff" stroke="none" d="M2291 1630 c14 -8 19 -21 19 -48 0 -34
-4 -40 -37 -55 -25 -10 -83 -18 -165 -23 -118 -6 -128 -6 -153 14 -14 11 -40
24 -57 28 l-32 6 30 17 c16 9 67 19 119 23 120 9 196 21 220 36 25 14 32 15
56 2z"/>
<path fill="#ffffff" stroke="none" d="M3746 1516 c-4 -12 -13 -30 -21 -40
-14 -19 -15 -18 -50 5 -41 28 -42 32 -12 46 13 6 35 24 48 40 l24 30 8 -30 c5
-17 6 -40 3 -51z"/>
<path fill="#ffffff" stroke="none" d="M1840 1546 c0 -2 -13 -6 -30 -8 -16 -3
-30 -1 -30 4 0 4 14 8 30 8 17 0 30 -2 30 -4z"/>
<path fill="#ffffff" stroke="none" d="M1440 1384 c0 -6 9 -19 19 -28 10 -9
21 -28 23 -41 4 -20 0 -24 -29 -30 -27 -5 -40 -1 -68 22 -37 29 -46 53 -20 53
10 0 15 10 15 29 0 20 6 31 18 33 17 4 41 -18 42 -38z"/>
<path fill="#ffffff" stroke="none" d="M1745 795 c1 -26 -16 -55 -32 -55 -15
0 -28 44 -19 66 9 23 51 14 51 -11z"/>
<path fill="#ffffff" stroke="none" d="M3907 634 c16 -26 17 -26 25 -5 5 14
16 21 33 21 21 0 25 -5 25 -29 0 -21 6 -32 21 -36 22 -7 63 -90 55 -112 -4 -9
-27 -13 -79 -13 l-74 0 5 26 c5 26 5 26 -49 20 -188 -19 -228 -25 -261 -39
-29 -12 -38 -13 -38 -4 0 23 74 85 110 92 56 12 94 34 112 65 15 26 33 35 80
39 10 0 25 -11 35 -25z"/>
<path fill="#ffffff" stroke="none" d="M2417 618 c6 -7 13 -36 17 -63 5 -45 3
-56 -24 -98 -16 -26 -36 -47 -44 -47 -7 0 -27 -3 -45 -6 l-31 -6 16 48 c9 27
25 56 35 66 21 18 24 39 9 54 -15 15 -3 39 23 52 29 14 33 14 44 0z"/>
<path fill="#ffffff" stroke="none" d="M2194 543 c4 -18 4 -52 1 -78 l-7 -45
-69 0 c-38 0 -69 2 -69 5 0 12 53 85 62 85 5 0 9 12 8 28 -3 46 -1 52 23 61
26 10 41 -6 51 -56z"/>
</g>
</svg>
