<?xml version="1.0" standalone="no"?>
<!DOCTYPE svg PUBLIC "-//W3C//DTD SVG 20010904//EN"
 "http://www.w3.org/TR/2001/REC-SVG-20010904/DTD/svg10.dtd">
<svg version="1.0" xmlns="http://www.w3.org/2000/svg"
 width="374.000000pt" height="325.000000pt" viewBox="0 0 374.000000 325.000000"
 preserveAspectRatio="xMidYMid meet">
<metadata>
Created by potrace 1.14, written by Peter Selinger 2001-2017
</metadata>
<g transform="translate(0.000000,325.000000) scale(0.100000,-0.100000)"
fill="#000000" stroke="none">
<path fill="#000000" stroke="none" d="M930 3229 c-50 -30 -89 -69 -110 -109
-14 -28 -27 -38 -62 -47 -45 -12 -133 -80 -142 -111 -5 -15 -24 -17 -183 -17
-166 0 -181 -2 -225 -23 -63 -31 -113 -90 -167 -195 l-44 -86 7 -93 c4 -51 13
-131 20 -178 8 -47 14 -101 14 -120 0 -19 4 -53 7 -75 8 -46 9 -113 1 -170
-16 -118 -19 -159 -17 -255 1 -58 3 -204 4 -325 l2 -221 31 -38 c18 -21 54
-48 80 -62 36 -17 43 -23 27 -24 -26 0 -99 -62 -108 -91 -4 -11 0 -26 10 -35
21 -21 12 -49 -31 -97 l-34 -37 0 -130 0 -130 36 -39 c81 -90 199 -107 327
-47 104 48 127 76 139 173 5 43 16 103 24 134 18 70 18 93 -1 158 -11 34 -30
67 -59 96 -23 25 -40 48 -37 51 3 3 -1 10 -9 15 -11 7 -4 9 25 4 22 -3 85 -9
141 -13 56 -4 108 -13 116 -20 8 -6 31 -18 50 -25 l36 -12 -81 -120 c-44 -66
-89 -145 -100 -175 -26 -70 -33 -234 -14 -304 12 -45 16 -50 52 -60 25 -7 44
-20 50 -34 13 -29 75 -32 75 -4 0 10 16 33 35 52 19 19 35 40 35 48 0 21 35 9
38 -13 2 -13 -5 -24 -19 -30 -13 -5 -37 -31 -53 -57 -27 -40 -36 -47 -65 -47
-31 -1 -33 -3 -27 -28 4 -16 20 -40 36 -55 17 -15 30 -34 30 -42 0 -20 76 -64
151 -87 86 -27 229 -26 311 2 116 39 213 120 293 245 79 122 92 140 163 227
39 50 72 95 72 101 0 6 9 65 18 131 l18 121 -62 229 c-33 126 -59 237 -57 246
4 16 9 15 55 -4 28 -11 53 -29 56 -39 4 -18 15 -23 74 -33 46 -9 59 -24 87
-101 19 -53 22 -77 19 -186 l-3 -125 90 75 c50 42 129 112 177 156 195 181
288 264 478 431 57 50 134 117 171 150 37 33 94 79 126 103 153 112 220 173
330 295 65 72 177 191 250 263 l133 131 0 97 0 96 -44 0 c-25 0 -48 5 -51 10
-4 6 5 31 20 55 19 34 32 45 50 45 l25 0 0 225 0 225 -1387 0 -1388 0 -35 -21z"/>
<path fill="#ffffff" stroke="none" d="M1441 3140 c22 -12 27 -68 7 -88 -13
-13 -74 -17 -81 -4 -17 30 -16 63 3 82 22 22 42 25 71 10z"/>
<path fill="#ffffff" stroke="none" d="M2223 3047 c14 -16 17 -30 12 -55 -6
-31 -2 -39 31 -73 33 -34 36 -41 31 -79 -3 -23 -8 -45 -12 -48 -7 -8 -235 -16
-235 -9 0 25 38 99 65 127 25 26 32 39 25 50 -14 22 -12 57 6 91 12 24 20 29
37 24 12 -4 30 -16 40 -28z"/>
<path fill="#ffffff" stroke="none" d="M3024 2895 c-7 -19 -14 -44 -14 -55 0
-25 -12 -26 -32 -2 -51 57 -42 92 23 92 l38 0 -15 -35z"/>
<path fill="#ffffff" stroke="none" d="M2038 2875 c1 -1 -7 -23 -18 -48 -14
-31 -27 -47 -39 -47 -10 0 -39 -3 -65 -6 -46 -7 -46 -7 -46 23 0 17 3 45 6 62
l7 32 76 -6 c42 -4 77 -8 79 -10z"/>
<path fill="#ffffff" stroke="none" d="M3625 2790 c12 -19 -7 -75 -31 -93 -20
-15 -35 -17 -82 -11 l-57 6 3 48 c4 48 4 49 40 53 75 8 121 7 127 -3z"/>
<path fill="#ffffff" stroke="none" d="M1944 2676 c58 -78 131 -139 216 -180
l65 -31 -21 -21 c-12 -11 -54 -47 -93 -79 -39 -33 -71 -62 -71 -66 0 -3 -45
-43 -99 -87 -55 -45 -127 -107 -161 -139 l-62 -57 -102 -1 c-95 0 -105 -2
-145 -28 -41 -27 -45 -28 -85 -16 -26 8 -117 14 -248 16 l-208 4 0 294 c0 162
3 295 8 296 134 14 183 20 262 33 52 8 130 15 174 16 43 0 95 4 115 9 112 28
208 52 301 74 58 14 106 26 106 26 1 1 23 -28 48 -63z"/>
<path fill="#ffffff" stroke="none" d="M2714 2559 c16 -12 31 -38 37 -65 9
-33 22 -54 50 -76 22 -17 39 -38 39 -46 0 -10 8 -6 25 12 30 33 93 39 75 7 -5
-11 -10 -42 -10 -70 0 -48 -2 -51 -25 -51 -16 0 -25 -6 -25 -16 0 -12 -6 -15
-22 -10 -13 3 -30 6 -38 6 -11 0 -15 12 -15 43 0 24 -6 51 -14 60 -17 21 -60
22 -89 1 -26 -18 -30 -78 -7 -111 14 -20 13 -22 -17 -32 -18 -6 -49 -12 -68
-13 -32 -3 -35 -1 -38 27 -5 37 14 101 40 138 18 26 19 33 9 69 -7 23 -10 57
-6 79 12 68 50 87 99 48z"/>
<path fill="#ffffff" stroke="none" d="M3055 2400 c3 -5 2 -17 -3 -25 -7 -13
-10 -12 -20 10 -9 20 -9 25 3 25 7 0 17 -4 20 -10z"/>
<path fill="#ffffff" stroke="none" d="M673 2286 c20 -15 22 -39 5 -54 -7 -5
-45 -13 -84 -17 l-71 -7 5 31 c2 17 5 31 6 31 0 0 19 7 41 15 50 18 75 18 98
1z"/>
<path fill="#ffffff" stroke="none" d="M244 1716 c3 -13 3 -38 0 -55 -6 -31
-7 -31 -68 -31 -33 0 -72 -3 -85 -7 -24 -6 -24 -5 -18 46 3 28 9 56 12 61 3 6
39 10 80 10 69 0 73 -1 79 -24z"/>
<path fill="#ffffff" stroke="none" d="M1297 454 c27 -7 45 -75 37 -138 l-7
-46 -59 0 c-67 0 -124 20 -131 47 -3 10 -9 46 -12 81 l-7 62 79 0 c43 0 88 -3
100 -6z"/>
<path fill="#000000" stroke="none" d="M3538 1841 c-67 -22 -128 -57 -183
-107 -22 -19 -29 -29 -15 -20 48 29 86 -3 105 -89 13 -59 16 -64 45 -70 17 -4
32 -11 35 -15 3 -5 11 -61 17 -124 l11 -115 -28 -68 c-42 -100 -51 -110 -98
-119 -23 -5 -48 -8 -55 -7 -10 1 -12 -5 -7 -20 4 -12 9 -37 12 -54 5 -34 4
-36 -49 -47 -19 -4 -30 -16 -39 -41 -7 -19 -19 -35 -26 -35 -10 0 -13 22 -13
88 0 48 -4 92 -8 99 -4 6 -23 14 -43 18 -30 6 -41 2 -68 -21 -31 -26 -33 -31
-28 -74 6 -46 5 -46 -36 -69 -37 -20 -47 -34 -82 -113 -24 -53 -47 -92 -57
-95 -14 -4 -18 -16 -18 -52 -1 -67 -42 -125 -92 -129 -66 -6 -116 15 -143 58
-14 22 -30 40 -35 40 -5 0 -17 12 -27 27 -14 20 -15 27 -5 31 21 7 31 46 22
88 -5 23 -5 45 1 56 7 13 6 18 -4 18 -19 0 -53 39 -64 75 -7 21 -6 46 4 85 17
69 33 110 43 110 11 0 92 61 87 66 -8 8 -209 -97 -297 -156 -209 -141 -306
-282 -318 -461 l-4 -77 40 11 c39 10 41 9 90 -34 57 -49 132 -140 132 -159 0
-14 -59 -97 -89 -124 -20 -18 -20 -18 21 -53 67 -56 181 -103 248 -103 25 0
28 5 39 57 23 115 12 188 -42 277 l-32 52 -65 -13 c-36 -7 -75 -15 -87 -18
-29 -7 -30 11 -2 76 l22 50 -21 15 c-19 13 -20 17 -7 52 7 20 22 57 34 82 11
25 21 66 21 91 0 34 6 51 23 67 13 12 26 22 30 22 3 0 21 -21 38 -47 18 -27
45 -59 60 -73 22 -21 32 -46 54 -145 33 -146 48 -264 40 -327 -3 -26 0 -67 6
-92 11 -43 13 -46 45 -46 40 0 72 -28 80 -70 5 -25 14 -32 58 -46 67 -22 337
-31 405 -14 25 7 89 16 141 21 174 15 246 27 313 54 l67 27 0 874 0 874 -72
-1 c-42 0 -98 -8 -130 -18z"/>
<path fill="#ffffff" stroke="none" d="M3435 857 c15 -12 17 -24 13 -80 l-6
-66 29 -5 c16 -4 43 -9 60 -12 21 -4 57 -31 106 -80 l75 -73 -25 -41 c-19 -32
-39 -48 -88 -71 -58 -28 -69 -30 -129 -23 -62 7 -64 6 -50 -11 30 -36 12 -280
-19 -261 -4 3 -18 39 -30 81 -25 82 -49 105 -110 105 -38 0 -41 -6 -52 -92
-10 -82 -20 -98 -61 -98 -33 0 -98 25 -98 38 0 5 18 23 40 41 44 35 49 57 21
92 -19 24 -19 25 2 64 16 31 20 57 18 118 -1 65 3 84 20 108 11 16 28 29 37
29 9 0 40 13 67 28 41 23 50 32 48 52 -2 14 -6 52 -9 84 -6 51 -4 61 11 73 24
17 106 17 130 0z"/>
<path fill="#000000" stroke="none" d="M3272 1638 c-26 -35 -50 -58 -62 -58
-33 0 -31 -17 4 -44 32 -24 35 -25 40 -8 4 10 21 23 39 28 l32 9 -5 65 -5 65
-43 -57z"/>
<path fill="#000000" stroke="none" d="M3025 1489 c-4 -6 -5 -11 -3 -12 2 -1
17 -14 33 -29 29 -26 30 -27 31 -5 0 12 4 30 8 40 7 14 3 17 -27 17 -20 0 -39
-5 -42 -11z"/>
<path fill="#000000" stroke="none" d="M3221 1474 c0 -11 3 -14 6 -6 3 7 2 16
-1 19 -3 4 -6 -2 -5 -13z"/>
<path fill="#000000" stroke="none" d="M2991 1443 c0 -10 4 -27 9 -38 7 -17 9
-15 9 12 1 17 -3 35 -9 38 -5 3 -10 -2 -9 -12z"/>
<path fill="#000000" stroke="none" d="M3231 1414 c0 -11 3 -14 6 -6 3 7 2 16
-1 19 -3 4 -6 -2 -5 -13z"/>
<path fill="#000000" stroke="none" d="M3100 1360 c-9 -16 -8 -18 5 -14 8 4
15 12 15 20 0 20 -7 17 -20 -6z"/>
<path fill="#000000" stroke="none" d="M3057 1319 c6 -23 9 -24 16 -5 3 8 0
17 -7 19 -10 4 -12 -1 -9 -14z"/>
<path fill="#000000" stroke="none" d="M2820 1273 c0 -5 12 -20 26 -34 24 -21
26 -22 16 -3 -13 25 -42 50 -42 37z"/>
<path fill="#000000" stroke="none" d="M2948 1056 c3 -66 0 -103 -11 -129
l-15 -36 30 19 c17 10 36 16 43 14 8 -4 14 18 18 72 12 131 11 134 -21 134
-15 0 -32 4 -37 10 -7 6 -9 -25 -7 -84z"/>
</g>
</svg>
