<?xml version="1.0" standalone="no"?>
<!DOCTYPE svg PUBLIC "-//W3C//DTD SVG 20010904//EN"
 "http://www.w3.org/TR/2001/REC-SVG-20010904/DTD/svg10.dtd">
<svg version="1.0" xmlns="http://www.w3.org/2000/svg"
 width="64.000000pt" height="40.000000pt" viewBox="0 0 64.000000 40.000000"
 preserveAspectRatio="xMidYMid meet">
<metadata>
Created by potrace 1.14, written by Peter Selinger 2001-2017
</metadata>
<g transform="translate(0.000000,40.000000) scale(0.100000,-0.100000)"
fill="#000000" stroke="none">
<path fill="#000000" stroke="none" d="M365 349 c-121 -27 -253 -56 -292 -65
-68 -15 -73 -18 -73 -43 0 -14 12 -48 25 -76 17 -33 25 -67 25 -101 l0 -51 37
-7 c21 -3 99 -6 173 -6 109 0 159 5 258 27 l124 26 -6 56 c-3 31 -8 109 -12
174 -5 99 -9 117 -23 116 -9 0 -115 -23 -236 -50z"/>
</g>
</svg>
