<?xml version="1.0" standalone="no"?>
<!DOCTYPE svg PUBLIC "-//W3C//DTD SVG 20010904//EN"
 "http://www.w3.org/TR/2001/REC-SVG-20010904/DTD/svg10.dtd">
<svg version="1.0" xmlns="http://www.w3.org/2000/svg"
 width="30.000000pt" height="65.000000pt" viewBox="0 0 30.000000 65.000000"
 preserveAspectRatio="xMidYMid meet">
<metadata>
Created by potrace 1.14, written by Peter Selinger 2001-2017
</metadata>
<g transform="translate(0.000000,65.000000) scale(0.100000,-0.100000)"
fill="#000000" stroke="none">
<path fill="#000000" stroke="none" d="M154 623 c-78 -30 -90 -53 -80 -160 l6
-76 -41 -44 -41 -45 52 -45 51 -46 -49 -51 c-50 -51 -50 -51 -43 -99 4 -26 10
-50 13 -52 3 -3 49 46 102 109 l96 115 0 76 c0 82 11 114 54 154 21 20 26 33
25 70 -1 41 -5 50 -42 82 l-42 36 -61 -24z"/>
</g>
</svg>
