<?xml version="1.0" standalone="no"?>
<!DOCTYPE svg PUBLIC "-//W3C//DTD SVG 20010904//EN"
 "http://www.w3.org/TR/2001/REC-SVG-20010904/DTD/svg10.dtd">
<svg version="1.0" xmlns="http://www.w3.org/2000/svg"
 width="26.000000pt" height="16.000000pt" viewBox="0 0 26.000000 16.000000"
 preserveAspectRatio="xMidYMid meet">
<metadata>
Created by potrace 1.14, written by Peter Selinger 2001-2017
</metadata>
<g transform="translate(0.000000,16.000000) scale(0.100000,-0.100000)"
fill="#000000" stroke="none">
<path fill="#000000" stroke="none" d="M147 142 c-9 -10 -17 -29 -17 -43 l0
-23 -16 22 c-19 28 -74 30 -97 4 -40 -44 -6 -106 55 -100 26 2 36 10 49 36 14
30 17 32 29 17 9 -11 25 -15 49 -13 28 2 39 9 50 32 12 26 12 33 0 55 -19 34
-77 41 -102 13z"/>
</g>
</svg>
