<?xml version="1.0" standalone="no"?>
<!DOCTYPE svg PUBLIC "-//W3C//DTD SVG 20010904//EN"
 "http://www.w3.org/TR/2001/REC-SVG-20010904/DTD/svg10.dtd">
<svg version="1.0" xmlns="http://www.w3.org/2000/svg"
 width="28.000000pt" height="53.000000pt" viewBox="0 0 28.000000 53.000000"
 preserveAspectRatio="xMidYMid meet">
<metadata>
Created by potrace 1.14, written by Peter Selinger 2001-2017
</metadata>
<g transform="translate(0.000000,53.000000) scale(0.100000,-0.100000)"
fill="#000000" stroke="none">
<path fill="#000000" stroke="none" d="M158 518 c-27 -7 -39 -17 -47 -39 -7
-21 -19 -31 -41 -35 -53 -11 -70 -48 -70 -153 0 -50 5 -135 11 -191 l12 -100
64 0 65 0 -7 43 c-4 23 -18 53 -31 68 l-24 25 31 43 31 43 19 -21 c25 -27 62
-36 88 -22 20 11 20 13 5 49 -62 144 -59 131 -42 179 14 38 14 51 4 81 -15 41
-18 43 -68 30z"/>
</g>
</svg>
