<?xml version="1.0" standalone="no"?>
<!DOCTYPE svg PUBLIC "-//W3C//DTD SVG 20010904//EN"
 "http://www.w3.org/TR/2001/REC-SVG-20010904/DTD/svg10.dtd">
<svg version="1.0" xmlns="http://www.w3.org/2000/svg"
 width="440.000000pt" height="633.000000pt" viewBox="0 0 440.000000 633.000000"
 preserveAspectRatio="xMidYMid meet">
<metadata>
Created by potrace 1.14, written by Peter Selinger 2001-2017
</metadata>
<g transform="translate(0.000000,633.000000) scale(0.100000,-0.100000)"
fill="#000000" stroke="none">
<path fill="#000000" stroke="none" d="M783 6242 l-93 -87 59 -100 c56 -96 63
-103 177 -190 l119 -90 111 -225 111 -225 -52 -29 -53 -29 -12 -88 c-14 -99
-13 -99 -115 -99 -51 0 -69 5 -119 36 -109 65 -154 85 -184 78 -15 -3 -91 -27
-170 -52 l-143 -47 -169 -146 c-92 -80 -187 -161 -209 -180 l-41 -34 6 -2353
7 -2352 141 0 c78 0 1025 -7 2106 -15 1081 -7 1965 -13 1966 -12 1 1 -20 51
-47 112 l-48 110 136 3 136 3 -6 1282 c-4 705 -7 1779 -7 2387 l0 1105 -476
274 c-352 204 -474 279 -471 290 2 9 22 74 42 144 l39 128 -16 67 c-9 37 -35
147 -58 245 l-42 177 -1267 0 -1266 -1 -92 -87z"/>
<path fill="#ffffff" stroke="none" d="M2814 2098 c21 -117 39 -220 42 -228 3
-13 -11 -18 -66 -28 -95 -16 -164 -15 -278 4 -74 13 -142 15 -308 12 -118 -2
-214 -2 -214 0 0 27 90 288 122 354 l42 88 200 3 c111 1 251 3 312 5 l111 2
37 -212z"/>
</g>
</svg>
