<?xml version="1.0" standalone="no"?>
<!DOCTYPE svg PUBLIC "-//W3C//DTD SVG 20010904//EN"
 "http://www.w3.org/TR/2001/REC-SVG-20010904/DTD/svg10.dtd">
<svg version="1.0" xmlns="http://www.w3.org/2000/svg"
 width="196.000000pt" height="200.000000pt" viewBox="0 0 196.000000 200.000000"
 preserveAspectRatio="xMidYMid meet">
<metadata>
Created by potrace 1.14, written by Peter Selinger 2001-2017
</metadata>
<g transform="translate(0.000000,200.000000) scale(0.100000,-0.100000)"
fill="#000000" stroke="none">
<path fill="#000000" stroke="none" d="M433 1993 c-25 -3 -47 -21 -97 -75
l-64 -70 -32 -132 c-18 -72 -53 -194 -78 -271 -40 -126 -50 -147 -99 -205 -53
-64 -54 -66 -48 -115 4 -27 17 -92 31 -142 l25 -93 -24 -72 c-32 -96 -47 -204
-47 -337 0 -179 38 -257 140 -287 77 -23 188 -7 269 38 50 28 61 30 75 19 9
-7 16 -17 16 -21 0 -4 -73 -52 -162 -106 l-162 -99 59 -6 c33 -4 427 -9 875
-13 l816 -6 17 29 c17 28 16 29 -32 117 -33 59 -51 107 -56 142 -6 46 -10 52
-30 52 -19 0 -197 -19 -417 -45 l-48 -6 0 156 c0 149 -2 161 -35 274 -34 114
-35 124 -35 282 0 161 -35 757 -45 767 -3 3 -69 15 -148 28 -136 22 -151 27
-347 114 -209 92 -220 95 -317 83z"/>
</g>
</svg>
