<?xml version="1.0" standalone="no"?>
<!DOCTYPE svg PUBLIC "-//W3C//DTD SVG 20010904//EN"
 "http://www.w3.org/TR/2001/REC-SVG-20010904/DTD/svg10.dtd">
<svg version="1.0" xmlns="http://www.w3.org/2000/svg"
 width="80.000000pt" height="116.000000pt" viewBox="0 0 80.000000 116.000000"
 preserveAspectRatio="xMidYMid meet">
<metadata>
Created by potrace 1.14, written by Peter Selinger 2001-2017
</metadata>
<g transform="translate(0.000000,116.000000) scale(0.100000,-0.100000)"
fill="#000000" stroke="none">
<path fill="#000000" stroke="none" d="M215 1148 l-160 -9 -27 -32 c-23 -27
-26 -38 -21 -72 6 -39 87 -179 179 -313 36 -51 44 -71 44 -107 0 -50 -3 -54
-97 -130 l-62 -49 26 -36 c15 -19 42 -55 60 -79 47 -63 45 -104 -8 -165 -34
-38 -77 -131 -66 -142 4 -4 657 -7 661 -3 5 6 56 162 56 171 0 4 -36 28 -79
54 -70 40 -81 51 -99 93 l-20 48 69 119 69 119 0 104 0 103 -157 167 c-118
124 -164 166 -183 167 -14 1 -97 -3 -185 -8z"/>
</g>
</svg>
