<?xml version="1.0" standalone="no"?>
<!DOCTYPE svg PUBLIC "-//W3C//DTD SVG 20010904//EN"
 "http://www.w3.org/TR/2001/REC-SVG-20010904/DTD/svg10.dtd">
<svg version="1.0" xmlns="http://www.w3.org/2000/svg"
 width="54.000000pt" height="74.000000pt" viewBox="0 0 54.000000 74.000000"
 preserveAspectRatio="xMidYMid meet">
<metadata>
Created by potrace 1.14, written by Peter Selinger 2001-2017
</metadata>
<g transform="translate(0.000000,74.000000) scale(0.100000,-0.100000)"
fill="#000000" stroke="none">
<path fill="#000000" stroke="none" d="M26 646 c-26 -90 -26 -95 -11 -158 8
-35 30 -106 49 -157 24 -64 32 -99 26 -110 -4 -9 -5 -32 -1 -51 6 -31 14 -39
72 -67 38 -18 79 -46 96 -67 l29 -36 33 34 c33 34 41 84 13 78 -8 -1 -12 12
-12 40 0 43 -30 174 -46 199 -9 15 -16 99 -8 99 2 0 50 -13 105 -30 93 -27
103 -29 135 -15 l34 14 0 68 -1 68 -92 57 c-51 31 -109 66 -129 78 l-38 22 -9
-24 c-9 -22 -10 -21 -10 8 -1 19 -7 34 -17 38 -21 8 -21 8 -27 -14 -4 -16 -9
-18 -36 -10 -34 9 -32 11 -53 -50 -4 -10 -12 -1 -23 25 -16 37 -31 54 -46 55
-4 0 -18 -42 -33 -94z"/>
</g>
</svg>
