<?xml version="1.0" standalone="no"?>
<!DOCTYPE svg PUBLIC "-//W3C//DTD SVG 20010904//EN"
 "http://www.w3.org/TR/2001/REC-SVG-20010904/DTD/svg10.dtd">
<svg version="1.0" xmlns="http://www.w3.org/2000/svg"
 width="26.000000pt" height="67.000000pt" viewBox="0 0 26.000000 67.000000"
 preserveAspectRatio="xMidYMid meet">
<metadata>
Created by potrace 1.14, written by Peter Selinger 2001-2017
</metadata>
<g transform="translate(0.000000,67.000000) scale(0.100000,-0.100000)"
fill="#000000" stroke="none">
<path fill="#000000" stroke="none" d="M125 644 l-25 -26 21 -26 20 -25 -30
-31 c-60 -62 -128 -290 -97 -322 8 -7 23 -10 37 -7 l24 7 -28 -33 c-15 -18
-27 -43 -27 -56 0 -13 -5 -27 -10 -30 -17 -10 -11 -61 9 -79 15 -13 34 -16 97
-14 l79 3 20 40 c18 39 37 134 26 133 -51 -5 -57 39 -11 72 l30 21 0 122 c0
110 -2 123 -19 134 -13 8 -22 29 -27 60 -3 26 -11 56 -16 66 -13 25 -45 21
-73 -9z"/>
</g>
</svg>
