<?xml version="1.0" standalone="no"?>
<!DOCTYPE svg PUBLIC "-//W3C//DTD SVG 20010904//EN"
 "http://www.w3.org/TR/2001/REC-SVG-20010904/DTD/svg10.dtd">
<svg version="1.0" xmlns="http://www.w3.org/2000/svg"
 width="50.000000pt" height="143.000000pt" viewBox="0 0 50.000000 143.000000"
 preserveAspectRatio="xMidYMid meet">
<metadata>
Created by potrace 1.14, written by Peter Selinger 2001-2017
</metadata>
<g transform="translate(0.000000,143.000000) scale(0.100000,-0.100000)"
fill="#000000" stroke="none">
<path fill="#000000" stroke="none" d="M186 1417 c-25 -18 -33 -99 -14 -129 8
-13 12 -31 9 -40 -8 -22 -73 -58 -104 -58 -20 0 -26 -9 -41 -55 -9 -31 -14
-65 -11 -76 4 -11 -1 -52 -10 -90 -18 -71 -17 -127 3 -346 6 -73 10 -86 38
-115 29 -30 32 -40 38 -123 3 -49 10 -106 16 -126 6 -20 14 -70 19 -110 9 -65
8 -77 -10 -105 -10 -17 -19 -34 -19 -38 0 -3 20 -6 44 -6 40 0 45 3 55 30 12
35 16 36 56 10 34 -23 85 -27 85 -7 0 7 -14 26 -31 43 l-30 29 6 85 c5 57 16
109 36 158 17 43 29 93 29 120 1 26 7 76 15 112 11 51 11 79 3 130 -11 67 -1
175 16 175 15 0 57 -137 49 -160 -11 -34 -2 -78 23 -107 22 -27 24 -28 34 -9
16 31 12 76 -19 226 -17 77 -35 172 -41 211 l-11 71 -70 56 c-72 60 -78 72
-60 132 5 20 3 46 -6 78 -13 44 -16 47 -46 47 -18 0 -41 -6 -51 -13z"/>
</g>
</svg>
