<?xml version="1.0" standalone="no"?>
<!DOCTYPE svg PUBLIC "-//W3C//DTD SVG 20010904//EN"
 "http://www.w3.org/TR/2001/REC-SVG-20010904/DTD/svg10.dtd">
<svg version="1.0" xmlns="http://www.w3.org/2000/svg"
 width="142.000000pt" height="346.000000pt" viewBox="0 0 142.000000 346.000000"
 preserveAspectRatio="xMidYMid meet">
<metadata>
Created by potrace 1.14, written by Peter Selinger 2001-2017
</metadata>
<g transform="translate(0.000000,346.000000) scale(0.100000,-0.100000)"
fill="#000000" stroke="none">
<path fill="#000000" stroke="none" d="M630 3447 c0 -7 -29 -58 -63 -113 l-64
-100 -6 -109 -6 -110 -81 -75 c-57 -53 -79 -81 -75 -92 4 -11 -5 -22 -29 -37
-19 -12 -65 -63 -102 -113 -54 -74 -78 -119 -122 -232 l-54 -141 11 -150 c7
-82 14 -176 18 -207 l6 -58 107 0 107 0 16 -40 c15 -40 15 -42 -59 -305 -41
-145 -74 -268 -74 -273 0 -5 14 -15 31 -22 20 -9 38 -28 52 -57 l21 -43 -42
-233 c-34 -188 -44 -270 -52 -430 l-10 -198 -81 -150 c-44 -83 -78 -153 -75
-156 2 -3 240 2 528 11 288 9 540 16 561 16 l37 0 0 153 c1 161 47 628 73 722
11 41 11 99 2 325 l-11 275 -42 94 c-37 82 -43 108 -52 205 -5 61 -10 127 -10
146 l0 35 28 -35 c15 -19 36 -45 47 -58 l21 -24 110 22 111 22 7 61 c3 33 6
119 6 191 0 113 -4 150 -32 270 l-32 140 -159 170 -160 170 7 75 c19 228 20
310 1 351 -21 47 -26 49 -230 85 -77 14 -150 27 -162 30 -15 4 -23 1 -23 -8z"/>
</g>
</svg>
