<?xml version="1.0" standalone="no"?>
<!DOCTYPE svg PUBLIC "-//W3C//DTD SVG 20010904//EN"
 "http://www.w3.org/TR/2001/REC-SVG-20010904/DTD/svg10.dtd">
<svg version="1.0" xmlns="http://www.w3.org/2000/svg"
 width="11.000000pt" height="44.000000pt" viewBox="0 0 11.000000 44.000000"
 preserveAspectRatio="xMidYMid meet">
<metadata>
Created by potrace 1.14, written by Peter Selinger 2001-2017
</metadata>
<g transform="translate(0.000000,44.000000) scale(0.100000,-0.100000)"
fill="#000000" stroke="none">
<path fill="#000000" stroke="none" d="M0 396 c0 -38 3 -46 18 -46 24 0 44
-59 29 -86 -7 -12 -7 -19 0 -21 6 -2 18 -9 27 -16 16 -12 16 -15 -4 -40 -20
-25 -21 -34 -14 -85 4 -31 7 -67 6 -79 -2 -17 2 -23 16 -23 17 0 20 11 25 83
4 45 7 111 7 145 0 62 -2 67 -55 139 l-55 76 0 -47z"/>
</g>
</svg>
