<?xml version="1.0" standalone="no"?>
<!DOCTYPE svg PUBLIC "-//W3C//DTD SVG 20010904//EN"
 "http://www.w3.org/TR/2001/REC-SVG-20010904/DTD/svg10.dtd">
<svg version="1.0" xmlns="http://www.w3.org/2000/svg"
 width="9.000000pt" height="12.000000pt" viewBox="0 0 9.000000 12.000000"
 preserveAspectRatio="xMidYMid meet">
<metadata>
Created by potrace 1.14, written by Peter Selinger 2001-2017
</metadata>
<g transform="translate(0.000000,12.000000) scale(0.100000,-0.100000)"
fill="#000000" stroke="none">
<path fill="#000000" stroke="none" d="M37 113 c-4 -3 -7 -16 -7 -29 0 -12 -4
-24 -9 -26 -4 -1 -12 -13 -15 -25 -7 -20 -4 -23 23 -23 16 0 36 -3 45 -6 12
-5 16 0 16 20 0 14 -4 34 -9 44 -5 9 -12 25 -15 35 -6 18 -18 22 -29 10z"/>
</g>
</svg>
