<?xml version="1.0" standalone="no"?>
<!DOCTYPE svg PUBLIC "-//W3C//DTD SVG 20010904//EN"
 "http://www.w3.org/TR/2001/REC-SVG-20010904/DTD/svg10.dtd">
<svg version="1.0" xmlns="http://www.w3.org/2000/svg"
 width="188.000000pt" height="148.000000pt" viewBox="0 0 188.000000 148.000000"
 preserveAspectRatio="xMidYMid meet">
<metadata>
Created by potrace 1.14, written by Peter Selinger 2001-2017
</metadata>
<g transform="translate(0.000000,148.000000) scale(0.100000,-0.100000)"
fill="#000000" stroke="none">
<path fill="#000000" stroke="none" d="M380 1443 c-35 -30 -40 -40 -40 -77 0
-23 -6 -51 -14 -61 -12 -17 -9 -23 33 -61 l46 -42 -26 -49 -27 -48 22 -48 21
-48 34 35 c19 20 38 36 42 36 4 0 9 -13 11 -30 4 -24 -1 -33 -21 -46 -14 -9
-91 -64 -170 -122 l-143 -105 -51 12 c-48 11 -52 10 -74 -11 l-23 -23 43 3
c40 3 43 2 59 -31 l17 -35 74 19 c40 10 125 42 188 70 96 44 122 61 164 107
l50 54 109 -90 c90 -75 117 -104 154 -167 28 -48 56 -81 74 -91 28 -15 30 -19
25 -57 -8 -56 54 -479 73 -500 4 -4 34 0 67 9 l61 17 7 206 c6 169 10 214 26
249 l19 44 27 -20 c16 -11 90 -67 165 -124 121 -91 145 -114 203 -196 53 -74
70 -91 80 -82 24 20 44 -34 33 -87 -6 -24 -8 -47 -5 -49 3 -3 34 15 68 41 60
43 98 91 99 125 0 9 -61 88 -136 175 -74 88 -186 228 -249 310 -102 134 -118
162 -157 263 l-43 114 -185 102 -185 103 -79 102 -79 101 -56 -1 c-31 0 -76
-8 -101 -19 l-45 -18 -30 28 c-16 15 -49 32 -72 37 -40 10 -44 9 -83 -24z"/>
</g>
</svg>
