<?xml version="1.0" standalone="no"?>
<!DOCTYPE svg PUBLIC "-//W3C//DTD SVG 20010904//EN"
 "http://www.w3.org/TR/2001/REC-SVG-20010904/DTD/svg10.dtd">
<svg version="1.0" xmlns="http://www.w3.org/2000/svg"
 width="35.000000pt" height="74.000000pt" viewBox="0 0 35.000000 74.000000"
 preserveAspectRatio="xMidYMid meet">
<metadata>
Created by potrace 1.14, written by Peter Selinger 2001-2017
</metadata>
<g transform="translate(0.000000,74.000000) scale(0.100000,-0.100000)"
fill="#000000" stroke="none">
<path fill="#000000" stroke="none" d="M274 732 c-18 -12 -64 -86 -64 -103 0
-12 -13 -18 -45 -22 -91 -13 -139 -58 -141 -132 -1 -22 -7 -96 -14 -164 -10
-99 -9 -136 0 -182 7 -32 10 -75 7 -94 -8 -50 8 -43 23 9 12 43 15 46 73 65
34 12 79 21 101 21 l41 0 34 78 c32 74 34 86 47 277 18 279 20 255 -18 255
-18 0 -38 -4 -44 -8z"/>
</g>
</svg>
