<?xml version="1.0" standalone="no"?>
<!DOCTYPE svg PUBLIC "-//W3C//DTD SVG 20010904//EN"
 "http://www.w3.org/TR/2001/REC-SVG-20010904/DTD/svg10.dtd">
<svg version="1.0" xmlns="http://www.w3.org/2000/svg"
 width="113.000000pt" height="359.000000pt" viewBox="0 0 113.000000 359.000000"
 preserveAspectRatio="xMidYMid meet">
<metadata>
Created by potrace 1.14, written by Peter Selinger 2001-2017
</metadata>
<g transform="translate(0.000000,359.000000) scale(0.100000,-0.100000)"
fill="#000000" stroke="none">
<path fill="#000000" stroke="none" d="M130 3583 c-13 -5 -29 -21 -97 -95 -16
-17 -16 -17 -13 -398 0 -14 0 -43 -1 -65 -1 -22 0 -58 1 -80 2 -46 -7 -283
-16 -426 -5 -77 -2 -107 12 -153 13 -42 15 -63 8 -84 -7 -18 -6 -50 2 -97 7
-38 9 -74 5 -80 -4 -5 -6 -37 -5 -70 2 -33 -4 -113 -13 -177 -21 -156 -5 -335
36 -404 18 -30 23 -61 31 -204 5 -92 14 -180 20 -195 6 -16 13 -145 16 -289 6
-293 12 -325 72 -377 71 -63 102 -217 63 -309 -37 -85 -52 -80 218 -80 179 0
241 3 248 13 29 36 45 119 41 220 -2 56 -8 111 -13 121 -6 14 3 10 34 -14 37
-30 51 -35 110 -38 80 -5 135 18 174 70 49 67 61 171 31 274 -13 46 -14 62 -3
107 9 35 14 157 16 372 1 176 5 349 8 385 4 36 2 77 -2 92 l-8 27 -42 -19 -41
-18 -36 101 c-60 169 -51 191 99 226 32 7 36 11 20 16 -18 5 -20 13 -17 70 3
53 0 70 -18 95 -12 16 -19 34 -16 39 3 5 -14 51 -38 102 -27 56 -41 98 -35
103 12 13 11 14 54 -84 49 -113 88 -156 84 -92 -1 15 1 45 5 67 4 23 2 63 -4
90 -7 28 -13 78 -15 113 -2 43 -11 79 -27 111 -16 29 -24 58 -21 77 2 16 -3
54 -11 84 -13 48 -13 62 1 114 12 48 13 70 4 117 -7 32 -9 69 -5 83 9 36 -13
125 -41 168 -16 23 -62 62 -123 101 -53 35 -110 80 -125 100 -36 47 -94 77
-150 77 -43 0 -60 -12 -106 -72 -16 -21 -22 -133 -10 -166 7 -19 4 -25 -16
-34 -33 -15 -55 4 -55 47 0 23 -11 48 -35 79 -23 30 -35 57 -35 78 0 25 -12
43 -60 91 -51 52 -63 59 -90 55 -34 -5 -36 -2 -13 24 15 17 15 18 -13 17 -16
0 -36 -3 -44 -6z"/>
</g>
</svg>
