<?xml version="1.0" standalone="no"?>
<!DOCTYPE svg PUBLIC "-//W3C//DTD SVG 20010904//EN"
 "http://www.w3.org/TR/2001/REC-SVG-20010904/DTD/svg10.dtd">
<svg version="1.0" xmlns="http://www.w3.org/2000/svg"
 width="154.000000pt" height="269.000000pt" viewBox="0 0 154.000000 269.000000"
 preserveAspectRatio="xMidYMid meet">
<metadata>
Created by potrace 1.14, written by Peter Selinger 2001-2017
</metadata>
<g transform="translate(0.000000,269.000000) scale(0.100000,-0.100000)"
fill="#000000" stroke="none">
<path fill="#000000" stroke="none" d="M998 2669 l-46 -21 -7 -76 c-8 -104
-14 -129 -31 -143 -10 -8 -14 -34 -14 -90 0 -74 -1 -79 -22 -83 -189 -37 -275
-68 -324 -114 -11 -11 -52 -63 -89 -116 -43 -59 -76 -96 -87 -96 -10 0 -27
-13 -39 -29 -12 -16 -41 -44 -66 -62 l-45 -34 7 -75 c3 -41 12 -101 20 -134
16 -68 12 -81 -43 -138 -32 -34 -36 -45 -40 -103 -4 -56 0 -75 32 -154 20 -49
36 -92 36 -96 0 -12 53 -76 59 -70 11 12 59 -228 50 -249 -9 -22 -62 -99 -100
-149 -29 -38 -93 -203 -115 -300 -10 -42 -22 -77 -28 -77 -11 0 -27 -24 -79
-123 l-31 -57 24 -25 c25 -24 27 -24 117 -15 74 8 98 7 127 -5 42 -18 90 -18
170 -2 71 15 82 32 27 42 -21 3 -47 15 -57 26 -10 11 -40 30 -67 41 l-49 21 6
43 c13 101 163 343 256 415 44 35 47 41 64 118 39 182 38 181 204 150 59 -11
110 -24 114 -28 4 -4 -14 -74 -40 -156 -27 -83 -54 -177 -61 -210 -7 -33 -22
-85 -32 -115 -10 -30 -19 -81 -19 -115 0 -56 -2 -61 -30 -80 -40 -27 -39 -56
4 -89 19 -14 39 -26 44 -26 4 0 30 -16 57 -34 27 -19 52 -33 57 -30 4 3 8 18
8 34 0 16 5 51 12 79 8 37 16 51 29 51 10 0 25 3 34 6 14 6 14 8 1 23 -9 10
-17 49 -21 102 -8 91 2 126 59 204 27 36 63 113 105 219 18 44 45 95 62 114
28 32 31 40 27 88 -3 29 -11 60 -18 69 -8 9 -45 32 -82 51 -38 19 -101 55
-141 81 -40 25 -94 52 -122 59 -51 14 -105 61 -126 112 -14 37 -11 178 6 218
24 57 91 130 153 166 75 44 72 43 72 19 0 -12 16 -53 35 -91 31 -62 38 -70 70
-76 25 -4 54 0 98 16 66 24 171 66 199 81 27 14 50 11 87 -12 33 -20 35 -20
51 -2 10 10 20 37 24 60 5 38 3 44 -19 59 -25 16 -34 15 -202 -20 -97 -21
-179 -34 -183 -29 -4 4 -15 53 -25 108 -10 55 -22 105 -27 111 -5 7 -15 36
-23 65 l-14 54 36 33 c20 17 41 32 47 32 23 0 86 69 86 93 0 13 9 36 20 50 45
57 58 189 24 244 -28 45 -178 208 -193 210 -9 2 -37 -7 -63 -18z"/>
</g>
</svg>
