<?xml version="1.0" standalone="no"?>
<!DOCTYPE svg PUBLIC "-//W3C//DTD SVG 20010904//EN"
 "http://www.w3.org/TR/2001/REC-SVG-20010904/DTD/svg10.dtd">
<svg version="1.0" xmlns="http://www.w3.org/2000/svg"
 width="8.000000pt" height="19.000000pt" viewBox="0 0 8.000000 19.000000"
 preserveAspectRatio="xMidYMid meet">
<metadata>
Created by potrace 1.14, written by Peter Selinger 2001-2017
</metadata>
<g transform="translate(0.000000,19.000000) scale(0.100000,-0.100000)"
fill="#000000" stroke="none">
<path fill="#000000" stroke="none" d="M6 175 c-11 -30 -6 -75 9 -81 16 -6 21
-34 7 -34 -5 0 -7 -14 -4 -30 2 -17 9 -30 15 -30 6 0 7 3 4 7 -4 3 2 17 14 29
17 18 19 26 10 43 -10 18 -9 21 6 21 16 1 16 2 3 13 -8 7 -20 25 -25 41 -12
34 -30 44 -39 21z"/>
</g>
</svg>
