<?xml version="1.0" standalone="no"?>
<!DOCTYPE svg PUBLIC "-//W3C//DTD SVG 20010904//EN"
 "http://www.w3.org/TR/2001/REC-SVG-20010904/DTD/svg10.dtd">
<svg version="1.0" xmlns="http://www.w3.org/2000/svg"
 width="35.000000pt" height="30.000000pt" viewBox="0 0 35.000000 30.000000"
 preserveAspectRatio="xMidYMid meet">
<metadata>
Created by potrace 1.14, written by Peter Selinger 2001-2017
</metadata>
<g transform="translate(0.000000,30.000000) scale(0.100000,-0.100000)"
fill="#000000" stroke="none">
<path fill="#000000" stroke="none" d="M235 280 c-10 -11 -31 -20 -46 -20 -17
0 -35 -9 -47 -25 -17 -21 -21 -23 -32 -10 -17 21 -73 19 -93 -3 -13 -14 -17
-39 -17 -104 0 -96 13 -118 67 -118 37 0 52 16 60 65 4 25 9 33 16 26 14 -14
74 -14 82 -1 3 5 22 10 40 10 40 0 57 21 77 93 11 41 10 52 -3 75 -20 36 -76
43 -104 12z"/>
</g>
</svg>
