<?xml version="1.0" standalone="no"?>
<!DOCTYPE svg PUBLIC "-//W3C//DTD SVG 20010904//EN"
 "http://www.w3.org/TR/2001/REC-SVG-20010904/DTD/svg10.dtd">
<svg version="1.0" xmlns="http://www.w3.org/2000/svg"
 width="28.000000pt" height="35.000000pt" viewBox="0 0 28.000000 35.000000"
 preserveAspectRatio="xMidYMid meet">
<metadata>
Created by potrace 1.14, written by Peter Selinger 2001-2017
</metadata>
<g transform="translate(0.000000,35.000000) scale(0.100000,-0.100000)"
fill="#000000" stroke="none">
<path fill="#000000" stroke="none" d="M55 330 c-20 -23 -25 -101 -7 -123 9
-11 5 -27 -19 -70 l-30 -56 123 -39 c77 -24 124 -34 127 -28 2 6 8 16 15 21 7
6 10 32 8 65 l-4 56 -52 28 -53 29 13 36 c7 20 13 43 14 52 1 47 -99 68 -135
29z"/>
</g>
</svg>
