<?xml version="1.0" standalone="no"?>
<!DOCTYPE svg PUBLIC "-//W3C//DTD SVG 20010904//EN"
 "http://www.w3.org/TR/2001/REC-SVG-20010904/DTD/svg10.dtd">
<svg version="1.0" xmlns="http://www.w3.org/2000/svg"
 width="40.000000pt" height="66.000000pt" viewBox="0 0 40.000000 66.000000"
 preserveAspectRatio="xMidYMid meet">
<metadata>
Created by potrace 1.14, written by Peter Selinger 2001-2017
</metadata>
<g transform="translate(0.000000,66.000000) scale(0.100000,-0.100000)"
fill="#000000" stroke="none">
<path fill="#000000" stroke="none" d="M173 652 c-43 -4 -52 -19 -46 -79 l5
-52 72 6 c39 3 72 7 74 8 1 1 3 19 5 40 2 36 -1 41 -38 60 -24 12 -53 19 -72
17z"/>
<path fill="#000000" stroke="none" d="M363 224 c-4 -10 -7 -51 -8 -91 0 -60
4 -76 20 -93 l20 -20 -6 106 c-7 108 -13 131 -26 98z"/>
<path fill="#000000" stroke="none" d="M248 175 c5 -52 -16 -144 -29 -123 -5
7 -9 40 -9 73 0 87 -1 88 -112 79 l-96 -7 25 -54 c24 -52 24 -55 7 -74 -10
-12 -14 -23 -8 -28 14 -14 168 -31 178 -21 6 6 14 6 20 1 6 -5 28 -12 49 -16
l37 -7 0 44 c0 62 -20 162 -33 170 -27 17 -35 8 -29 -37z"/>
</g>
</svg>
