<?xml version="1.0" standalone="no"?>
<!DOCTYPE svg PUBLIC "-//W3C//DTD SVG 20010904//EN"
 "http://www.w3.org/TR/2001/REC-SVG-20010904/DTD/svg10.dtd">
<svg version="1.0" xmlns="http://www.w3.org/2000/svg"
 width="54.000000pt" height="172.000000pt" viewBox="0 0 54.000000 172.000000"
 preserveAspectRatio="xMidYMid meet">
<metadata>
Created by potrace 1.14, written by Peter Selinger 2001-2017
</metadata>
<g transform="translate(0.000000,172.000000) scale(0.100000,-0.100000)"
fill="#000000" stroke="none">
<path fill="#000000" stroke="none" d="M196 1645 c-9 -38 -19 -85 -22 -104 -5
-26 -17 -40 -50 -60 -35 -21 -49 -40 -78 -101 -19 -41 -37 -91 -41 -110 -3
-19 1 -145 9 -280 16 -269 10 -248 83 -302 17 -12 18 -28 9 -295 -8 -279 -8
-283 14 -337 l22 -55 44 32 43 32 1 155 c1 162 40 445 53 390 3 -14 16 -117
27 -230 11 -113 28 -240 37 -283 l16 -79 31 6 c17 3 51 8 75 12 37 6 45 12 58
42 8 19 13 35 11 37 -2 2 -23 7 -48 12 l-45 9 5 224 c8 378 6 558 -7 571 -6 6
-53 14 -104 17 -52 3 -99 10 -105 16 -6 7 -20 51 -31 99 -23 100 -19 125 37
215 16 27 36 78 43 113 8 38 19 63 25 62 7 -2 12 4 12 12 0 8 4 15 9 15 14 0
20 63 14 143 l-6 74 -63 10 -63 9 -15 -71z"/>
<path fill="#000000" stroke="none" d="M370 1442 c1 -30 10 -47 52 -92 38 -41
47 -48 35 -25 -8 17 -22 56 -31 87 -12 39 -23 57 -36 61 -17 4 -20 0 -20 -31z"/>
</g>
</svg>
