<?xml version="1.0" standalone="no"?>
<!DOCTYPE svg PUBLIC "-//W3C//DTD SVG 20010904//EN"
 "http://www.w3.org/TR/2001/REC-SVG-20010904/DTD/svg10.dtd">
<svg version="1.0" xmlns="http://www.w3.org/2000/svg"
 width="82.000000pt" height="282.000000pt" viewBox="0 0 82.000000 282.000000"
 preserveAspectRatio="xMidYMid meet">
<metadata>
Created by potrace 1.14, written by Peter Selinger 2001-2017
</metadata>
<g transform="translate(0.000000,282.000000) scale(0.100000,-0.100000)"
fill="#000000" stroke="none">
<path fill="#000000" stroke="none" d="M656 2800 c-75 -24 -111 -58 -152 -147
-26 -54 -34 -85 -34 -126 0 -51 -3 -57 -36 -84 l-36 -29 32 -46 c18 -25 30
-50 27 -55 -4 -6 -44 -20 -89 -32 -79 -21 -85 -25 -121 -73 -42 -57 -71 -144
-112 -337 -15 -68 -33 -142 -41 -164 -39 -112 -82 -336 -89 -467 l-7 -135 23
22 23 23 23 -57 c13 -31 23 -62 23 -69 0 -7 20 -24 45 -38 43 -26 45 -29 46
-74 0 -26 8 -67 17 -92 20 -51 42 -61 112 -47 30 6 59 6 86 -2 l40 -11 53
-362 c29 -200 55 -365 57 -367 2 -2 6 -2 8 0 9 9 76 240 101 347 15 62 30 110
34 107 7 -7 22 -180 23 -265 1 -30 -3 -93 -7 -139 l-8 -84 53 6 c29 4 55 9 59
13 3 3 7 635 9 1405 l2 1399 -52 -1 c-29 0 -79 -9 -112 -19z"/>
</g>
</svg>
