<?xml version="1.0" standalone="no"?>
<!DOCTYPE svg PUBLIC "-//W3C//DTD SVG 20010904//EN"
 "http://www.w3.org/TR/2001/REC-SVG-20010904/DTD/svg10.dtd">
<svg version="1.0" xmlns="http://www.w3.org/2000/svg"
 width="12.000000pt" height="18.000000pt" viewBox="0 0 12.000000 18.000000"
 preserveAspectRatio="xMidYMid meet">
<metadata>
Created by potrace 1.14, written by Peter Selinger 2001-2017
</metadata>
<g transform="translate(0.000000,18.000000) scale(0.100000,-0.100000)"
fill="#000000" stroke="none">
<path fill="#000000" stroke="none" d="M34 143 c-10 -21 -22 -41 -26 -44 -5
-3 -6 -12 -3 -20 4 -10 16 -14 40 -11 19 2 35 0 35 -5 0 -5 7 -18 15 -29 14
-18 14 -17 9 14 -4 21 -3 32 5 32 21 0 11 37 -13 48 -13 6 -23 18 -23 28 3 33
-22 25 -39 -13z"/>
</g>
</svg>
