<?xml version="1.0" standalone="no"?>
<!DOCTYPE svg PUBLIC "-//W3C//DTD SVG 20010904//EN"
 "http://www.w3.org/TR/2001/REC-SVG-20010904/DTD/svg10.dtd">
<svg version="1.0" xmlns="http://www.w3.org/2000/svg"
 width="371.000000pt" height="75.000000pt" viewBox="0 0 371.000000 75.000000"
 preserveAspectRatio="xMidYMid meet">
<metadata>
Created by potrace 1.14, written by Peter Selinger 2001-2017
</metadata>
<g transform="translate(0.000000,75.000000) scale(0.100000,-0.100000)"
fill="#000000" stroke="none">
<path fill="#000000" stroke="none" d="M3515 710 c-44 -21 -84 -42 -90 -47 -5
-5 -34 -91 -64 -191 l-54 -182 -157 -85 -157 -85 -134 15 c-90 11 -167 27
-235 49 l-102 34 -53 -54 c-29 -30 -57 -54 -62 -54 -5 0 -23 11 -39 25 -29 24
-32 25 -49 9 -17 -15 -20 -15 -56 14 -23 18 -166 81 -366 161 -415 167 -384
166 -539 13 l-107 -106 -194 16 -194 16 -88 58 -87 59 -172 -1 c-99 0 -199 -5
-237 -13 -64 -12 -69 -16 -148 -95 -80 -80 -83 -86 -107 -167 -13 -46 -24 -87
-24 -90 0 -4 718 -8 1594 -8 l1595 -2 178 56 c97 31 179 58 181 60 2 1 40 119
84 261 93 297 93 298 13 343 l-50 28 -80 -37z"/>
</g>
</svg>
