<?xml version="1.0" standalone="no"?>
<!DOCTYPE svg PUBLIC "-//W3C//DTD SVG 20010904//EN"
 "http://www.w3.org/TR/2001/REC-SVG-20010904/DTD/svg10.dtd">
<svg version="1.0" xmlns="http://www.w3.org/2000/svg"
 width="27.000000pt" height="46.000000pt" viewBox="0 0 27.000000 46.000000"
 preserveAspectRatio="xMidYMid meet">
<metadata>
Created by potrace 1.14, written by Peter Selinger 2001-2017
</metadata>
<g transform="translate(0.000000,46.000000) scale(0.100000,-0.100000)"
fill="#000000" stroke="none">
<path fill="#000000" stroke="none" d="M107 418 c-15 -23 -30 -58 -33 -77 -4
-20 -11 -39 -16 -42 -6 -4 0 -16 12 -27 22 -20 22 -22 6 -47 -10 -15 -31 -39
-47 -53 -29 -26 -30 -30 -27 -102 3 -79 6 -78 32 10 8 31 26 66 37 79 21 22
27 23 113 18 l90 -5 -32 29 c-29 26 -32 34 -32 83 0 30 -4 65 -9 78 -6 13 -12
40 -16 61 -9 53 -41 51 -78 -5z"/>
</g>
</svg>
