<?xml version="1.0" standalone="no"?>
<!DOCTYPE svg PUBLIC "-//W3C//DTD SVG 20010904//EN"
 "http://www.w3.org/TR/2001/REC-SVG-20010904/DTD/svg10.dtd">
<svg version="1.0" xmlns="http://www.w3.org/2000/svg"
 width="101.000000pt" height="190.000000pt" viewBox="0 0 101.000000 190.000000"
 preserveAspectRatio="xMidYMid meet">
<metadata>
Created by potrace 1.14, written by Peter Selinger 2001-2017
</metadata>
<g transform="translate(0.000000,190.000000) scale(0.100000,-0.100000)"
fill="#000000" stroke="none">
<path fill="#000000" stroke="none" d="M748 1893 c-9 -2 -28 -22 -42 -44 l-26
-39 44 0 c31 0 46 -5 50 -16 9 -22 9 -22 -24 -39 -46 -24 -78 -20 -86 10 -6
25 -7 25 -20 7 -7 -10 -16 -32 -20 -48 -4 -16 -19 -45 -33 -65 l-27 -37 -29
80 c-32 85 -38 92 -100 102 -22 4 -47 9 -57 12 -11 3 -30 -14 -62 -55 l-46
-59 0 -84 c0 -82 -1 -85 -32 -114 -24 -22 -184 -151 -236 -190 -2 -1 0 -39 4
-84 l7 -81 49 -25 c39 -20 49 -29 45 -45 -3 -10 -1 -19 4 -19 6 0 5 -9 -2 -21
-17 -32 -36 -170 -28 -201 4 -17 -3 -76 -19 -157 l-27 -130 28 -193 27 -194
-21 -63 c-12 -34 -19 -64 -17 -66 2 -2 49 -7 104 -11 l100 -7 49 191 c27 105
51 189 53 187 3 -2 12 -89 21 -192 l16 -188 45 -7 c25 -3 75 -7 113 -7 l67 -1
0 231 0 231 51 59 50 58 -35 182 c-20 101 -34 184 -33 186 6 5 132 -20 141
-28 6 -6 4 -9 -5 -9 -34 0 -88 -22 -93 -38 -3 -9 5 -66 18 -127 26 -120 29
-120 26 1 -2 83 11 117 26 66 4 -15 9 -137 10 -272 1 -135 3 -250 3 -256 1 -7
21 -15 46 -19 40 -5 46 -10 51 -35 9 -40 53 -81 82 -73 26 6 26 8 6 64 -11 32
-17 89 -19 204 -2 131 -8 178 -28 260 -14 55 -30 145 -36 200 -9 99 -9 100 17
139 15 22 39 44 54 50 26 10 26 11 21 78 -4 47 -2 72 7 83 10 12 10 25 1 60
-10 39 -9 50 7 83 16 31 18 49 12 107 -12 113 -16 122 -67 141 -53 21 -66 45
-47 91 21 50 17 90 -13 131 -16 20 -32 40 -38 44 -11 8 -59 9 -87 1z"/>
<path fill="#ffffff" stroke="none" d="M625 1450 c-3 -11 -2 -20 3 -20 21 0
64 -58 112 -151 49 -95 87 -196 77 -205 -2 -3 -52 82 -111 188 -78 141 -103
194 -94 200 19 11 20 10 13 -12z"/>
<path fill="#ffffff" stroke="none" d="M410 1300 c8 -5 12 -11 9 -14 -9 -9
-79 6 -73 15 7 12 45 11 64 -1z"/>
</g>
</svg>
