<?xml version="1.0" standalone="no"?>
<!DOCTYPE svg PUBLIC "-//W3C//DTD SVG 20010904//EN"
 "http://www.w3.org/TR/2001/REC-SVG-20010904/DTD/svg10.dtd">
<svg version="1.0" xmlns="http://www.w3.org/2000/svg"
 width="43.000000pt" height="69.000000pt" viewBox="0 0 43.000000 69.000000"
 preserveAspectRatio="xMidYMid meet">
<metadata>
Created by potrace 1.14, written by Peter Selinger 2001-2017
</metadata>
<g transform="translate(0.000000,69.000000) scale(0.100000,-0.100000)"
fill="#000000" stroke="none">
<path fill="#000000" stroke="none" d="M157 683 c-3 -4 -10 -28 -17 -53 -6
-25 -41 -120 -76 -211 l-65 -165 8 -120 8 -119 35 -9 c29 -7 60 0 183 39 130
41 147 49 147 68 0 12 11 72 24 134 l23 111 -21 21 c-11 12 -39 69 -61 127
l-40 105 -72 40 c-39 22 -74 36 -76 32z"/>
</g>
</svg>
