<?xml version="1.0" standalone="no"?>
<!DOCTYPE svg PUBLIC "-//W3C//DTD SVG 20010904//EN"
 "http://www.w3.org/TR/2001/REC-SVG-20010904/DTD/svg10.dtd">
<svg version="1.0" xmlns="http://www.w3.org/2000/svg"
 width="330.000000pt" height="423.000000pt" viewBox="0 0 330.000000 423.000000"
 preserveAspectRatio="xMidYMid meet">
<metadata>
Created by potrace 1.14, written by Peter Selinger 2001-2017
</metadata>
<g transform="translate(0.000000,423.000000) scale(0.100000,-0.100000)"
fill="#000000" stroke="none">
<path fill="#000000" stroke="none" d="M1708 4200 c-31 -16 -59 -38 -61 -47
-16 -58 -48 -286 -55 -388 l-8 -120 33 -68 33 -67 -95 -182 c-53 -100 -99
-194 -102 -211 l-6 -29 39 20 c33 16 49 18 104 12 36 -5 79 -13 97 -20 l32
-12 -36 -72 -36 -73 -391 -205 -391 -205 -28 -104 c-15 -57 -45 -191 -67 -298
l-40 -194 19 -139 19 -138 -61 -101 -61 -100 43 -43 43 -44 -12 -73 c-6 -41
-14 -77 -18 -80 -4 -3 -90 -14 -192 -24 -274 -26 -269 -25 -334 -78 -31 -26
-84 -61 -117 -78 -54 -29 -59 -35 -55 -58 3 -14 13 -69 21 -121 24 -145 11
-133 152 -145 l73 -7 -30 -43 -29 -42 49 -23 49 -23 61 51 c61 51 61 51 38 66
-13 8 -35 20 -50 27 -23 10 -28 19 -28 49 0 52 47 100 109 112 40 8 53 5 102
-18 55 -26 57 -28 69 -82 8 -36 9 -57 3 -59 -34 -12 -49 -51 -138 -369 -52
-188 -95 -344 -95 -348 0 -8 216 -8 352 0 l106 7 110 196 c60 108 116 213 123
234 7 20 16 37 20 37 3 0 10 -89 13 -197 7 -184 9 -201 31 -234 l23 -36 438
-6 c240 -4 671 -7 957 -7 l520 0 -7 228 c-4 125 -11 259 -16 297 -6 56 -2 111
21 280 26 185 36 230 83 371 29 88 64 215 76 282 l23 121 -23 55 -22 55 23 37
c34 55 76 322 85 535 l7 169 -68 148 -68 147 -81 61 c-73 55 -98 67 -253 120
l-173 59 0 94 c0 89 2 99 55 233 31 77 55 155 55 175 0 20 -14 68 -32 106
l-32 69 28 79 28 80 -27 75 -27 75 27 39 27 40 -56 100 -57 100 -442 0 -442
-1 -57 -29z"/>
</g>
</svg>
