<?xml version="1.0" standalone="no"?>
<!DOCTYPE svg PUBLIC "-//W3C//DTD SVG 20010904//EN"
 "http://www.w3.org/TR/2001/REC-SVG-20010904/DTD/svg10.dtd">
<svg version="1.0" xmlns="http://www.w3.org/2000/svg"
 width="534.000000pt" height="361.000000pt" viewBox="0 0 534.000000 361.000000"
 preserveAspectRatio="xMidYMid meet">
<metadata>
Created by potrace 1.14, written by Peter Selinger 2001-2017
</metadata>
<g transform="translate(0.000000,361.000000) scale(0.100000,-0.100000)"
fill="#000000" stroke="none">
<path fill="#000000" stroke="none" d="M3641 3593 c-21 -10 -40 -31 -49 -53
-9 -19 -33 -48 -54 -63 -21 -15 -47 -42 -58 -60 -11 -17 -20 -26 -20 -19 0 25
-49 118 -75 142 -40 38 -127 40 -199 5 -80 -39 -112 -91 -122 -198 -7 -76 -8
-79 -17 -46 -4 20 -22 50 -38 65 -25 24 -40 29 -82 30 -29 1 -63 5 -75 9 -22
7 -23 12 -17 49 12 76 10 127 -5 136 -8 6 -56 10 -107 10 -102 0 -113 -7 -113
-68 0 -27 -26 -62 -46 -62 -21 0 -66 -48 -78 -85 -19 -56 -33 -54 -38 5 -8 78
-49 113 -171 145 -32 8 -68 15 -81 15 -13 0 -38 8 -57 17 -58 30 -289 17 -348
-18 -13 -8 -34 -36 -48 -63 l-25 -49 -44 50 c-48 56 -92 73 -184 73 -69 0
-115 -22 -166 -76 l-42 -46 -6 29 c-10 43 -56 84 -103 90 -43 6 -111 -19 -120
-44 -4 -11 -11 -9 -30 9 -51 48 -172 20 -213 -49 l-21 -36 -32 30 c-38 37 -68
47 -110 39 -49 -10 -75 -36 -97 -96 -31 -85 -27 -116 20 -161 28 -27 40 -46
40 -67 0 -24 -5 -29 -40 -39 -37 -9 -40 -9 -40 9 0 24 -27 86 -48 110 -12 15
-13 23 -2 48 7 17 10 52 8 81 -9 91 -86 140 -162 104 -41 -20 -62 -53 -72
-115 l-7 -42 -49 6 c-92 12 -148 -36 -148 -128 0 -29 -8 -59 -22 -83 -21 -34
-23 -53 -26 -203 -3 -128 0 -183 13 -245 10 -44 21 -109 25 -145 12 -97 26
-139 54 -169 16 -16 26 -39 26 -56 l0 -28 23 22 c22 20 25 20 38 5 15 -18 40
-114 33 -126 -2 -3 -28 -14 -57 -24 -97 -31 -117 -65 -117 -199 0 -53 -5 -106
-11 -117 -6 -11 -13 -56 -16 -99 l-6 -78 36 -36 c33 -33 38 -35 105 -35 61 0
75 3 99 25 l28 24 -73 1 c-42 0 -72 4 -70 9 6 19 119 100 153 111 19 6 35 15
35 19 0 3 -16 44 -35 89 -29 70 -33 86 -23 107 9 20 8 48 -1 118 -18 129 -8
165 55 195 l47 23 31 -30 c35 -34 56 -108 56 -199 l0 -51 57 -17 c32 -9 76
-29 98 -44 38 -26 43 -36 79 -149 30 -97 44 -126 68 -146 17 -14 34 -25 38
-23 4 2 27 28 52 58 30 38 52 56 71 58 25 3 26 6 21 45 -7 51 16 120 48 148
18 15 32 18 68 13 84 -10 106 -23 131 -75 22 -48 22 -49 4 -90 -18 -39 -18
-42 -2 -54 10 -7 35 -15 58 -19 34 -5 44 -13 70 -54 l30 -47 -23 -6 c-22 -5
-22 -6 13 -42 33 -33 43 -37 87 -37 38 0 57 6 79 23 15 13 42 28 58 33 29 8
29 8 -14 12 l-43 3 6 42 c13 80 71 145 162 180 l59 24 -3 81 c-4 95 10 148 41
158 12 4 42 6 67 5 57 -2 85 -28 100 -93 14 -55 24 -57 58 -7 21 29 23 44 20
106 -2 47 -9 78 -19 90 -9 10 -21 34 -28 53 -6 19 -21 44 -33 57 -24 26 -14
30 16 8 23 -17 86 -19 136 -5 22 6 55 32 92 72 46 50 59 60 67 49 11 -17 1
-41 -30 -72 -10 -10 -19 -23 -19 -28 0 -5 -12 -12 -27 -16 -80 -19 -143 -105
-143 -193 0 -37 6 -50 34 -78 28 -28 41 -34 78 -34 24 0 53 7 65 15 21 15 23
14 28 -7 3 -13 7 -50 8 -82 2 -59 2 -59 -31 -68 -44 -12 -132 -66 -132 -82 0
-7 4 -16 10 -22 5 -5 20 -39 34 -77 l26 -67 -23 0 c-18 0 -19 -2 -7 -10 23
-15 96 -12 151 6 47 16 49 18 49 54 0 34 5 40 55 74 60 39 62 44 68 155 3 53
9 78 21 86 8 7 12 16 9 21 -4 5 -2 4 6 -3 10 -8 21 -9 40 -1 37 14 91 12 106
-3 18 -20 72 -169 80 -223 7 -44 11 -49 59 -74 28 -14 65 -31 83 -38 29 -10
32 -9 37 12 11 43 54 82 99 89 23 4 49 14 58 21 15 14 15 18 -2 52 -26 51 -25
131 2 166 42 53 104 69 158 41 16 -8 32 -11 36 -7 4 4 6 0 4 -8 -2 -8 3 -32
10 -54 13 -37 11 -115 -4 -163 -6 -19 -2 -23 34 -33 47 -12 67 -37 76 -95 3
-22 8 -50 11 -62 3 -19 0 -23 -18 -23 -19 0 -20 -2 -8 -10 20 -13 156 -13 181
1 11 5 72 15 137 20 65 6 131 18 150 27 30 14 32 18 26 49 -11 57 15 178 42
204 30 28 30 60 2 126 -21 49 -25 53 -58 53 -42 0 -55 8 -65 38 -5 19 1 30 32
60 33 30 42 48 51 97 14 67 25 79 96 100 92 28 115 22 177 -42 31 -32 61 -71
67 -88 16 -45 42 -170 42 -203 0 -16 10 -44 23 -62 19 -28 37 -38 118 -64 88
-29 189 -85 222 -124 7 -8 19 -33 27 -56 15 -40 17 -41 60 -39 196 10 226 8
263 -17 37 -26 47 -44 47 -95 0 -30 0 -30 50 -27 37 3 58 -1 83 -17 26 -16 51
-21 99 -21 74 0 106 18 128 70 17 42 -1 131 -37 178 -18 24 -26 46 -25 66 8
116 7 126 -20 152 l-26 26 -7 -31 c-4 -17 -11 -31 -17 -31 -6 0 -35 14 -64 31
-62 35 -74 63 -74 171 0 88 -23 118 -95 125 -86 8 -91 10 -105 52 -7 22 -23
50 -35 61 -20 19 -21 26 -13 68 10 46 36 85 69 102 25 14 130 -33 152 -67 l19
-28 -6 35 c-7 35 -50 90 -72 90 -7 0 -25 11 -41 24 l-28 24 18 36 c28 59 23
154 -12 229 -51 110 -71 157 -71 165 0 20 -59 62 -102 73 -48 11 -48 12 -48
54 0 73 -19 148 -44 175 -19 20 -22 29 -14 47 16 33 1 86 -31 117 -38 37 -90
44 -138 19 -21 -11 -51 -23 -67 -27 -37 -9 -74 -34 -80 -54 -3 -10 -20 -23
-37 -31 -23 -10 -38 -28 -56 -70 -22 -48 -25 -66 -20 -128 3 -43 1 -85 -7
-106 l-12 -35 -34 101 c-21 62 -46 114 -64 135 -24 27 -30 43 -30 83 -1 43 -6
53 -39 86 l-37 38 -95 1 c-84 0 -97 3 -118 22 -33 31 -84 37 -126 15z"/>
<path fill="#ffffff" stroke="none" d="M1880 2910 c0 -5 -9 -14 -19 -19 -15
-8 -20 -7 -23 7 -8 30 1 43 23 32 10 -6 19 -15 19 -20z"/>
<path fill="#ffffff" stroke="none" d="M1780 2685 c0 -19 -2 -35 -4 -35 -8 0
-34 59 -28 64 17 17 32 3 32 -29z"/>
<path fill="#ffffff" stroke="none" d="M1371 2525 c-8 -5 -36 -25 -64 -43 -47
-31 -51 -32 -68 -16 -18 17 -18 18 8 34 40 25 70 60 87 102 24 57 40 54 46
-11 4 -41 1 -59 -9 -66z"/>
<path fill="#ffffff" stroke="none" d="M2520 2600 c0 -33 7 -48 40 -84 26 -28
40 -53 40 -71 0 -18 12 -39 35 -62 19 -19 35 -39 35 -44 0 -16 -48 -10 -90 12
-26 14 -52 20 -75 17 -30 -3 -34 -1 -28 11 4 9 9 71 11 139 3 98 6 122 18 122
10 0 14 -12 14 -40z"/>
<path fill="#ffffff" stroke="none" d="M3218 2611 c27 -24 28 -60 2 -111 -11
-22 -20 -50 -20 -62 0 -13 -5 -30 -10 -38 -8 -12 -10 -10 -10 10 0 14 -7 38
-15 54 -8 15 -15 36 -15 45 0 9 -7 29 -15 45 -8 15 -12 39 -9 52 5 19 13 24
38 24 17 -1 41 -9 54 -19z"/>
<path fill="#ffffff" stroke="none" d="M454 2566 c16 -18 18 -32 13 -98 -5
-69 -3 -78 17 -96 11 -11 37 -23 56 -27 19 -4 46 -17 59 -29 26 -23 101 -166
101 -192 0 -10 -27 9 -72 52 -49 44 -97 79 -145 101 -40 18 -73 37 -74 41 0 4
-2 28 -4 54 -3 57 -32 110 -64 118 -43 10 -48 34 -15 73 26 32 33 35 69 30 24
-3 48 -14 59 -27z"/>
<path fill="#ffffff" stroke="none" d="M4425 2552 c-3 -3 -11 0 -18 7 -9 10
-8 11 6 5 10 -3 15 -9 12 -12z"/>
<path fill="#ffffff" stroke="none" d="M4790 2429 c0 -5 -4 -9 -8 -9 -15 0
-32 24 -32 45 1 19 1 19 20 -4 11 -13 20 -27 20 -32z"/>
<path fill="#ffffff" stroke="none" d="M813 2385 c15 -13 27 -26 27 -29 0 -3
-16 -22 -34 -43 l-35 -37 -9 24 c-11 27 -47 64 -72 73 -8 3 -1 6 16 6 16 1 39
8 50 16 25 19 24 19 57 -10z"/>
<path fill="#ffffff" stroke="none" d="M357 2348 c-3 -8 -6 -5 -6 6 -1 11 2
17 5 13 3 -3 4 -12 1 -19z"/>
<path fill="#ffffff" stroke="none" d="M4665 2243 c3 -16 12 -35 19 -43 8 -8
16 -34 19 -57 6 -51 -1 -53 -87 -23 -31 10 -63 17 -70 14 -15 -6 -26 24 -26
73 0 29 3 33 38 39 20 4 48 12 62 19 30 16 36 13 45 -22z"/>
<path fill="#ffffff" stroke="none" d="M3467 2093 c-3 -10 -5 -4 -5 12 0 17 2
24 5 18 2 -7 2 -21 0 -30z"/>
<path fill="#ffffff" stroke="none" d="M2855 2080 l80 0 -30 -25 c-16 -14 -49
-30 -73 -36 -23 -6 -45 -15 -48 -20 -10 -17 -22 -9 -29 18 -3 14 -15 38 -26
51 -24 31 -7 49 25 26 14 -9 47 -14 101 -14z"/>
<path fill="#ffffff" stroke="none" d="M56 1825 c-14 -14 -16 -14 -16 -2 0 9
6 17 13 20 19 7 21 -1 3 -18z"/>
<path fill="#ffffff" stroke="none" d="M130 1806 c0 -2 -9 -6 -20 -9 -11 -3
-18 -1 -14 4 5 9 34 13 34 5z"/>
<path fill="#ffffff" stroke="none" d="M140 1765 c0 -8 -7 -15 -15 -15 -8 0
-15 7 -15 15 0 8 7 15 15 15 8 0 15 -7 15 -15z"/>
<path fill="#000000" stroke="none" d="M5300 3533 c-92 -34 -161 -88 -194
-150 -31 -61 -14 -156 35 -197 17 -14 37 -26 46 -26 8 0 26 -9 40 -20 17 -13
41 -20 69 -20 l44 0 0 210 c0 217 0 218 -40 203z"/>
<path fill="#000000" stroke="none" d="M1 2410 c0 -78 2 -110 9 -100 12 18 12
120 1 175 -7 31 -9 13 -10 -75z"/>
<path fill="#000000" stroke="none" d="M5003 2368 c-36 -18 -11 -55 50 -73 28
-8 52 -15 54 -15 7 0 -23 46 -46 73 -27 30 -27 30 -58 15z"/>
<path fill="#000000" stroke="none" d="M563 1919 c9 -5 24 -24 33 -40 18 -35
28 -33 19 4 -4 13 -18 30 -31 36 -31 14 -45 14 -21 0z"/>
<path fill="#000000" stroke="none" d="M1162 1514 c-19 -10 -40 -31 -47 -48
-7 -17 -23 -56 -35 -86 -44 -106 -52 -118 -85 -124 -34 -7 -95 -57 -114 -93
-6 -12 -11 -60 -11 -106 0 -50 -6 -102 -15 -128 -11 -31 -15 -80 -15 -174 2
-139 -14 -295 -32 -329 -6 -11 -13 -87 -16 -168 l-5 -147 36 -36 36 -36 88 4
c48 3 113 10 143 16 30 6 91 13 135 17 88 7 117 20 139 62 13 25 30 117 42
222 3 25 15 63 26 85 19 37 24 40 55 37 l34 -4 -7 -197 -7 -196 27 -32 c89
-106 367 -34 431 111 27 61 33 97 40 239 5 84 3 114 -9 137 -14 30 -14 30 13
30 57 0 108 66 97 128 -7 46 -37 76 -111 111 -33 16 -67 36 -74 44 -7 9 -45
23 -86 33 l-73 17 -5 45 c-7 67 -51 107 -116 107 -46 0 -50 2 -55 28 -3 16
-17 42 -30 57 -13 16 -26 46 -29 67 -4 25 -18 49 -37 68 -26 25 -40 30 -80 30
l-48 0 -15 45 c-9 25 -18 61 -21 81 -13 74 -97 117 -164 83z"/>
</g>
</svg>
