<?xml version="1.0" standalone="no"?>
<!DOCTYPE svg PUBLIC "-//W3C//DTD SVG 20010904//EN"
 "http://www.w3.org/TR/2001/REC-SVG-20010904/DTD/svg10.dtd">
<svg version="1.0" xmlns="http://www.w3.org/2000/svg"
 width="133.000000pt" height="326.000000pt" viewBox="0 0 133.000000 326.000000"
 preserveAspectRatio="xMidYMid meet">
<metadata>
Created by potrace 1.14, written by Peter Selinger 2001-2017
</metadata>
<g transform="translate(0.000000,326.000000) scale(0.100000,-0.100000)"
fill="#000000" stroke="none">
<path fill="#000000" stroke="none" d="M0 2725 l0 -536 30 22 c23 18 28 28 24
46 l-6 24 48 -20 c27 -10 91 -36 143 -57 l94 -37 111 26 c61 15 159 34 217 43
127 20 129 22 129 147 l0 83 46 44 c25 25 89 107 142 183 l96 137 50 -1 c28 0
73 -4 99 -8 47 -8 48 -7 77 29 l29 36 -14 100 c-8 54 -22 138 -32 187 l-17 87
-633 0 -633 0 0 -535z"/>
<path fill="#000000" stroke="none" d="M1 1740 c0 -19 3 -29 6 -22 4 10 8 10
21 0 13 -11 14 -11 4 7 -28 49 -32 51 -31 15z"/>
<path fill="#000000" stroke="none" d="M0 709 l0 -696 266 -7 c147 -3 269 -4
272 -2 4 5 -3 51 -24 159 -4 20 -20 37 -53 57 -26 16 -87 73 -137 128 l-90 98
-12 80 c-10 64 -9 90 2 138 l14 58 -43 97 c-32 72 -45 117 -52 179 -8 76 -8
82 9 82 10 0 18 5 18 11 0 11 -129 252 -157 294 -11 16 -13 -97 -13 -676z"/>
<path fill="#000000" stroke="none" d="M353 1283 c42 -56 77 -106 77 -111 0
-5 -10 -16 -22 -25 -21 -14 -17 -14 39 0 35 8 61 19 58 23 -2 4 -55 54 -117
111 l-112 104 77 -102z"/>
</g>
</svg>
