<?xml version="1.0" standalone="no"?>
<!DOCTYPE svg PUBLIC "-//W3C//DTD SVG 20010904//EN"
 "http://www.w3.org/TR/2001/REC-SVG-20010904/DTD/svg10.dtd">
<svg version="1.0" xmlns="http://www.w3.org/2000/svg"
 width="62.000000pt" height="122.000000pt" viewBox="0 0 62.000000 122.000000"
 preserveAspectRatio="xMidYMid meet">
<metadata>
Created by potrace 1.14, written by Peter Selinger 2001-2017
</metadata>
<g transform="translate(0.000000,122.000000) scale(0.100000,-0.100000)"
fill="#000000" stroke="none">
<path fill="#000000" stroke="none" d="M174 1209 c-3 -6 -25 -19 -48 -29 -22
-10 -56 -33 -74 -52 l-32 -34 22 -55 c12 -30 30 -67 41 -82 11 -16 18 -29 16
-31 -2 -1 -25 -10 -51 -20 -44 -16 -46 -19 -36 -42 8 -18 8 -31 0 -49 -31 -67
4 -288 54 -348 13 -15 24 -41 24 -55 0 -46 11 -70 33 -76 l22 -6 -21 -13 c-12
-6 -19 -17 -17 -23 2 -6 -5 -45 -17 -85 -25 -91 -27 -194 -4 -203 28 -11 297
-5 374 8 l75 13 -88 8 c-48 4 -86 9 -84 11 2 2 50 8 108 14 57 6 115 13 128
16 l24 5 -25 27 c-70 74 -163 287 -192 437 -11 57 -29 110 -49 145 -42 74 -55
153 -49 298 5 119 5 120 -23 157 -32 41 -100 81 -111 64z"/>
<path fill="#ffffff" stroke="none" d="M399 426 c9 -11 8 -15 -5 -20 -23 -9
-24 -8 -24 14 0 23 13 26 29 6z"/>
<path fill="#000000" stroke="none" d="M605 10 c-3 -5 -1 -10 4 -10 6 0 11 5
11 10 0 6 -2 10 -4 10 -3 0 -8 -4 -11 -10z"/>
</g>
</svg>
