<?xml version="1.0" standalone="no"?>
<!DOCTYPE svg PUBLIC "-//W3C//DTD SVG 20010904//EN"
 "http://www.w3.org/TR/2001/REC-SVG-20010904/DTD/svg10.dtd">
<svg version="1.0" xmlns="http://www.w3.org/2000/svg"
 width="94.000000pt" height="212.000000pt" viewBox="0 0 94.000000 212.000000"
 preserveAspectRatio="xMidYMid meet">
<metadata>
Created by potrace 1.14, written by Peter Selinger 2001-2017
</metadata>
<g transform="translate(0.000000,212.000000) scale(0.100000,-0.100000)"
fill="#000000" stroke="none">
<path fill="#000000" stroke="none" d="M190 2050 l0 -69 -47 -3 -46 -3 56 -66
c54 -63 57 -72 87 -190 26 -100 110 -557 110 -594 0 -5 -14 -25 -31 -42 -21
-23 -39 -33 -60 -33 -17 0 -61 -9 -98 -20 -59 -18 -69 -25 -94 -65 -26 -40
-28 -50 -21 -101 17 -136 36 -182 133 -322 82 -116 91 -134 80 -149 -33 -41
-79 -76 -139 -107 -60 -31 -68 -39 -95 -96 l-30 -63 70 -63 70 -64 403 0 c394
0 402 0 402 20 0 11 -23 100 -50 197 -28 98 -58 225 -67 283 -14 97 -24 124
-128 355 l-113 250 -106 390 c-103 378 -108 392 -155 462 -27 40 -54 87 -60
105 -8 23 -21 37 -41 45 l-30 11 0 -68z"/>
</g>
</svg>
