<?xml version="1.0" standalone="no"?>
<!DOCTYPE svg PUBLIC "-//W3C//DTD SVG 20010904//EN"
 "http://www.w3.org/TR/2001/REC-SVG-20010904/DTD/svg10.dtd">
<svg version="1.0" xmlns="http://www.w3.org/2000/svg"
 width="211.000000pt" height="504.000000pt" viewBox="0 0 211.000000 504.000000"
 preserveAspectRatio="xMidYMid meet">
<metadata>
Created by potrace 1.14, written by Peter Selinger 2001-2017
</metadata>
<g transform="translate(0.000000,504.000000) scale(0.100000,-0.100000)"
fill="#000000" stroke="none">
<path fill="#000000" stroke="none" d="M1559 4998 l-66 -41 -165 -331 -166
-331 -91 -34 c-50 -19 -90 -36 -88 -38 2 -1 29 2 60 8 55 11 57 11 90 -17 19
-16 46 -51 61 -79 l26 -50 -38 -150 c-21 -82 -54 -186 -73 -231 l-35 -80 -59
16 c-39 11 -59 22 -58 31 9 73 51 237 75 289 26 58 29 72 23 130 -6 53 -11 68
-32 83 l-24 19 -99 -67 c-85 -59 -106 -79 -157 -153 -56 -83 -58 -87 -55 -144
2 -57 0 -63 -36 -106 -41 -49 -82 -134 -176 -365 l-56 -137 16 -65 c16 -64 18
-66 78 -102 55 -34 69 -37 147 -41 77 -3 101 0 215 33 88 25 168 57 251 100
97 51 135 65 186 70 l64 7 10 -44 c8 -34 11 -37 12 -15 0 15 4 27 9 27 52 1
177 23 195 34 23 15 24 15 46 -30 14 -30 20 -56 16 -73 -8 -36 52 -318 75
-356 11 -17 22 -60 26 -95 l6 -65 -68 -36 c-65 -34 -72 -36 -129 -29 -101 13
-102 14 -115 88 -6 37 -21 128 -33 202 l-23 135 -43 -160 c-42 -154 -43 -166
-48 -345 l-6 -185 -91 -53 -92 -52 -185 -16 c-116 -10 -253 -15 -371 -12
l-188 3 59 -20 c33 -11 63 -23 66 -27 4 -4 -5 -47 -20 -96 l-27 -88 30 -60
c29 -58 30 -63 43 -307 7 -143 17 -253 23 -261 6 -7 89 -49 183 -92 95 -44
173 -83 173 -88 0 -5 -28 -57 -62 -116 l-61 -108 -223 -181 c-209 -169 -224
-180 -251 -171 -15 5 -51 16 -80 24 l-52 15 -54 -62 -55 -62 7 -95 c8 -94 7
-96 -35 -216 l-42 -122 36 -6 c21 -3 91 -6 158 -6 l121 0 97 123 97 122 112
51 c62 28 113 48 115 44 3 -7 -58 -273 -74 -322 -5 -17 5 -18 124 -18 l130 0
-14 54 -14 54 113 189 c206 342 178 309 405 471 l199 143 14 156 c11 136 16
159 35 183 16 19 38 86 73 227 l51 201 28 506 28 506 59 85 c52 77 59 91 65
152 4 43 16 87 32 118 14 28 31 82 38 122 12 69 12 73 -15 140 -23 58 -26 77
-21 129 9 92 31 154 75 212 45 61 45 69 -8 191 l-31 73 19 87 c32 140 36 443
10 650 l-21 164 -56 85 c-49 72 -64 88 -114 113 -52 26 -67 29 -150 28 -91 -1
-95 -2 -159 -41z"/>
</g>
</svg>
