<?xml version="1.0" standalone="no"?>
<!DOCTYPE svg PUBLIC "-//W3C//DTD SVG 20010904//EN"
 "http://www.w3.org/TR/2001/REC-SVG-20010904/DTD/svg10.dtd">
<svg version="1.0" xmlns="http://www.w3.org/2000/svg"
 width="106.000000pt" height="106.000000pt" viewBox="0 0 106.000000 106.000000"
 preserveAspectRatio="xMidYMid meet">
<metadata>
Created by potrace 1.14, written by Peter Selinger 2001-2017
</metadata>
<g transform="translate(0.000000,106.000000) scale(0.100000,-0.100000)"
fill="#000000" stroke="none">
<path fill="#000000" stroke="none" d="M495 1010 c-44 -45 -53 -49 -110 -55
-94 -10 -92 -8 -61 -121 l27 -97 -45 -46 c-51 -52 -127 -208 -221 -456 -30
-77 -57 -148 -60 -157 -4 -10 -12 -15 -19 -11 -7 4 -8 3 -1 -4 6 -6 42 -21 80
-33 39 -13 75 -25 81 -27 6 -2 51 55 99 127 49 71 92 130 95 130 3 0 11 -26
18 -58 11 -55 14 -58 72 -94 49 -31 78 -41 157 -54 85 -13 358 -43 403 -44 10
0 23 20 35 55 l18 56 -51 296 c-29 162 -54 299 -57 303 -2 4 -41 17 -86 30
-44 13 -83 29 -86 36 -2 7 5 44 17 84 12 40 20 73 18 74 -5 4 -166 72 -224 95
l-51 20 -48 -49z"/>
</g>
</svg>
