<?xml version="1.0" standalone="no"?>
<!DOCTYPE svg PUBLIC "-//W3C//DTD SVG 20010904//EN"
 "http://www.w3.org/TR/2001/REC-SVG-20010904/DTD/svg10.dtd">
<svg version="1.0" xmlns="http://www.w3.org/2000/svg"
 width="180.000000pt" height="270.000000pt" viewBox="0 0 180.000000 270.000000"
 preserveAspectRatio="xMidYMid meet">
<metadata>
Created by potrace 1.14, written by Peter Selinger 2001-2017
</metadata>
<g transform="translate(0.000000,270.000000) scale(0.100000,-0.100000)"
fill="#000000" stroke="none">
<path fill="#000000" stroke="none" d="M285 2680 c-123 -21 -106 -9 -233 -163
l-55 -68 16 -141 c16 -137 17 -142 67 -231 28 -51 73 -120 101 -154 44 -56 53
-63 85 -63 19 0 54 -5 78 -11 41 -10 43 -12 103 -132 l61 -122 -134 -89 c-74
-49 -134 -93 -134 -98 0 -6 -14 -28 -31 -49 -27 -34 -33 -54 -46 -147 -9 -59
-22 -114 -29 -123 -8 -8 -14 -20 -14 -25 0 -5 -27 -24 -60 -42 l-60 -33 6
-107 c3 -59 12 -149 21 -200 l17 -92 40 0 c41 0 41 -1 63 -57 l23 -57 -24 -40
c-23 -40 -23 -44 -11 -121 9 -64 20 -94 55 -151 43 -71 44 -71 103 -85 77 -18
88 -39 21 -39 -44 0 -47 -1 -29 -14 11 -7 34 -17 52 -20 26 -6 1324 11 1329
17 1 1 -11 83 -27 182 -16 99 -29 187 -29 196 0 14 14 11 90 -18 50 -20 93
-34 95 -31 4 4 -113 519 -119 526 -2 1 -34 -83 -72 -188 l-69 -190 -140 -139
-140 -139 -85 -7 -86 -6 -67 94 -66 94 29 104 30 104 -11 231 -12 231 92 233
91 233 124 131 c69 72 123 132 121 134 -1 1 -78 9 -171 17 -95 9 -203 24 -245
36 l-76 21 5 43 c5 47 -10 99 -64 233 -25 60 -34 98 -34 138 0 46 -8 74 -46
153 -41 88 -51 100 -112 147 -52 39 -89 57 -168 82 -56 18 -103 32 -105 31 -2
0 -53 -9 -114 -19z"/>
<path fill="#ffffff" stroke="none" d="M351 1186 c-16 -17 -20 -30 -16 -48 6
-25 -14 -58 -36 -58 -12 0 -12 -27 1 -50 10 -18 13 -18 51 -5 54 19 57 19 25
-6 -14 -11 -26 -29 -26 -40 0 -12 -7 -19 -19 -19 -14 0 -18 5 -14 19 7 26 -29
44 -68 36 -28 -6 -29 -5 -23 19 5 23 2 28 -24 37 -23 8 -31 18 -35 42 -2 18
-3 35 0 40 8 13 103 8 103 -5 0 -7 6 -2 13 12 13 25 50 50 76 50 10 0 8 -7 -8
-24z"/>
</g>
</svg>
