<?xml version="1.0" standalone="no"?>
<!DOCTYPE svg PUBLIC "-//W3C//DTD SVG 20010904//EN"
 "http://www.w3.org/TR/2001/REC-SVG-20010904/DTD/svg10.dtd">
<svg version="1.0" xmlns="http://www.w3.org/2000/svg"
 width="275.000000pt" height="293.000000pt" viewBox="0 0 275.000000 293.000000"
 preserveAspectRatio="xMidYMid meet">
<metadata>
Created by potrace 1.14, written by Peter Selinger 2001-2017
</metadata>
<g transform="translate(0.000000,293.000000) scale(0.100000,-0.100000)"
fill="#000000" stroke="none">
<path fill="#000000" stroke="none" d="M1407 2877 l-118 -52 -110 -215 -109
-214 -48 -248 -48 -249 -104 -70 c-58 -38 -134 -86 -170 -106 -36 -20 -117
-76 -180 -124 -145 -109 -171 -123 -224 -115 -33 5 -51 0 -91 -22 -56 -31 -63
-46 -23 -50 16 -2 28 -6 28 -10 0 -4 -23 -23 -51 -42 -90 -61 -115 -100 -137
-219 l-20 -105 36 -65 c33 -62 212 -303 243 -327 8 -7 43 -22 79 -34 36 -13
69 -26 73 -30 5 -4 -16 -47 -47 -94 -31 -48 -56 -92 -56 -99 0 -7 18 -59 40
-117 22 -58 40 -106 40 -107 0 -1 -8 -3 -17 -5 -39 -7 49 -50 153 -74 59 -14
129 -38 157 -54 l52 -29 185 9 c102 5 196 9 209 10 23 0 24 1 6 20 -10 11 -25
20 -34 20 -8 0 -83 43 -167 95 l-151 95 -7 47 c-3 25 -6 74 -6 107 0 52 -5 70
-30 109 -16 26 -30 55 -30 65 0 9 14 69 31 132 17 63 38 153 48 200 l17 85
200 11 c194 12 379 38 369 54 -3 4 -16 11 -30 14 -14 4 -44 20 -68 38 -23 17
-90 59 -150 93 l-107 62 852 6 c468 4 853 9 856 11 7 8 -20 156 -29 156 -26 0
-317 42 -331 48 -9 4 -41 37 -71 74 -52 63 -54 69 -61 140 -3 41 -31 244 -60
452 l-54 378 -128 192 -129 193 -80 7 c-44 3 -125 6 -180 5 -98 0 -102 -1
-218 -52z"/>
</g>
</svg>
