<?xml version="1.0" standalone="no"?>
<!DOCTYPE svg PUBLIC "-//W3C//DTD SVG 20010904//EN"
 "http://www.w3.org/TR/2001/REC-SVG-20010904/DTD/svg10.dtd">
<svg version="1.0" xmlns="http://www.w3.org/2000/svg"
 width="177.000000pt" height="270.000000pt" viewBox="0 0 177.000000 270.000000"
 preserveAspectRatio="xMidYMid meet">
<metadata>
Created by potrace 1.14, written by Peter Selinger 2001-2017
</metadata>
<g transform="translate(0.000000,270.000000) scale(0.100000,-0.100000)"
fill="#000000" stroke="none">
<path fill="#000000" stroke="none" d="M702 2622 l-172 -77 -51 -70 c-82 -113
-154 -268 -186 -397 -27 -104 -28 -118 -17 -183 6 -38 16 -81 22 -95 6 -14 16
-81 22 -150 6 -68 14 -127 18 -131 4 -3 53 -25 110 -49 56 -24 102 -45 102
-48 0 -23 -351 -391 -402 -421 -29 -18 -43 -40 -90 -144 l-55 -123 130 -280
c71 -153 130 -280 131 -281 2 -2 234 -28 517 -57 402 -43 542 -62 641 -85 70
-17 131 -31 135 -31 5 0 55 56 110 124 l102 123 -20 319 c-11 195 -28 383 -44
484 -14 91 -25 166 -25 167 0 2 -53 29 -117 62 -65 32 -155 79 -200 103 l-82
44 147 43 c81 24 152 49 159 55 6 6 27 85 47 175 l36 163 -83 248 -82 247
-101 52 c-59 30 -159 97 -242 161 -137 105 -143 109 -211 119 -38 6 -71 11
-73 11 -2 0 -81 -35 -176 -78z"/>
</g>
</svg>
