<?xml version="1.0" standalone="no"?>
<!DOCTYPE svg PUBLIC "-//W3C//DTD SVG 20010904//EN"
 "http://www.w3.org/TR/2001/REC-SVG-20010904/DTD/svg10.dtd">
<svg version="1.0" xmlns="http://www.w3.org/2000/svg"
 width="167.000000pt" height="144.000000pt" viewBox="0 0 167.000000 144.000000"
 preserveAspectRatio="xMidYMid meet">
<metadata>
Created by potrace 1.14, written by Peter Selinger 2001-2017
</metadata>
<g transform="translate(0.000000,144.000000) scale(0.100000,-0.100000)"
fill="#000000" stroke="none">
<path fill="#000000" stroke="none" d="M1500 1429 c-47 -4 -141 -8 -210 -8
-195 -2 -197 -3 -231 -75 -19 -42 -35 -104 -50 -198 l-21 -136 -48 -20 c-43
-18 -49 -18 -63 -5 -17 18 -37 10 -37 -15 0 -9 -9 -31 -19 -48 -11 -18 -23
-54 -27 -80 -6 -41 -14 -55 -60 -96 -29 -27 -75 -79 -102 -116 -45 -61 -50
-74 -56 -137 -4 -38 -21 -111 -38 -161 l-32 -92 -53 19 c-29 10 -74 35 -99 55
-45 37 -46 37 -132 36 -53 -1 -89 3 -93 10 -4 7 -20 8 -43 4 l-36 -7 15 -29
c22 -42 19 -48 -22 -52 -60 -5 -54 -28 9 -28 29 -1 64 -7 76 -14 18 -9 38 -10
79 -3 68 11 106 -4 200 -78 54 -43 78 -55 154 -75 49 -12 91 -21 93 -19 2 2
11 19 20 37 14 27 22 32 50 32 29 0 38 -6 56 -36 l23 -36 -22 -29 -22 -29 292
0 291 0 -7 37 c-3 20 -7 72 -7 114 0 67 4 85 28 127 l27 49 -22 149 c-18 129
-26 159 -58 220 l-37 72 23 144 c22 141 23 147 6 224 -9 43 -19 87 -21 96 -4
13 8 24 45 43 63 32 145 33 256 5 93 -24 95 -24 95 -7 0 8 -23 24 -50 37 -42
20 -49 27 -44 44 9 32 30 50 50 42 13 -5 15 -14 11 -40 -5 -31 4 -46 29 -46 2
0 4 22 4 49 0 40 -4 53 -22 65 -12 9 -32 15 -43 14 -11 0 -58 -4 -105 -9z"/>
</g>
</svg>
