<?xml version="1.0" standalone="no"?>
<!DOCTYPE svg PUBLIC "-//W3C//DTD SVG 20010904//EN"
 "http://www.w3.org/TR/2001/REC-SVG-20010904/DTD/svg10.dtd">
<svg version="1.0" xmlns="http://www.w3.org/2000/svg"
 width="57.000000pt" height="88.000000pt" viewBox="0 0 57.000000 88.000000"
 preserveAspectRatio="xMidYMid meet">
<metadata>
Created by potrace 1.14, written by Peter Selinger 2001-2017
</metadata>
<g transform="translate(0.000000,88.000000) scale(0.100000,-0.100000)"
fill="#000000" stroke="none">
<path fill="#000000" stroke="none" d="M13 873 c-18 -7 -16 -85 3 -132 14 -35
21 -41 63 -51 26 -6 62 -20 79 -30 28 -18 32 -25 32 -65 0 -25 -7 -62 -15 -82
-33 -78 -10 -198 39 -205 21 -3 29 -15 70 -111 17 -39 35 -63 56 -75 33 -18
32 -13 13 -100 -5 -22 -3 -23 33 -17 92 15 87 11 82 64 -3 30 -16 67 -34 96
-53 85 -67 118 -72 167 l-5 49 36 -14 c31 -13 36 -13 51 1 9 9 35 25 58 37 40
18 44 24 51 70 21 127 5 159 -113 228 -102 58 -193 97 -230 97 -17 0 -47 16
-78 40 -47 38 -83 48 -119 33z"/>
</g>
</svg>
