<?xml version="1.0" standalone="no"?>
<!DOCTYPE svg PUBLIC "-//W3C//DTD SVG 20010904//EN"
 "http://www.w3.org/TR/2001/REC-SVG-20010904/DTD/svg10.dtd">
<svg version="1.0" xmlns="http://www.w3.org/2000/svg"
 width="28.000000pt" height="59.000000pt" viewBox="0 0 28.000000 59.000000"
 preserveAspectRatio="xMidYMid meet">
<metadata>
Created by potrace 1.14, written by Peter Selinger 2001-2017
</metadata>
<g transform="translate(0.000000,59.000000) scale(0.100000,-0.100000)"
fill="#000000" stroke="none">
<path fill="#000000" stroke="none" d="M6 428 c9 -308 16 -407 27 -417 11 -9
234 12 245 23 2 3 -3 35 -11 72 -12 50 -24 75 -49 101 -32 33 -33 37 -33 117
0 79 -1 84 -30 108 -18 16 -37 49 -50 89 -22 64 -22 64 -63 67 l-42 3 6 -163z"/>
</g>
</svg>
