<?xml version="1.0" standalone="no"?>
<!DOCTYPE svg PUBLIC "-//W3C//DTD SVG 20010904//EN"
 "http://www.w3.org/TR/2001/REC-SVG-20010904/DTD/svg10.dtd">
<svg version="1.0" xmlns="http://www.w3.org/2000/svg"
 width="46.000000pt" height="87.000000pt" viewBox="0 0 46.000000 87.000000"
 preserveAspectRatio="xMidYMid meet">
<metadata>
Created by potrace 1.14, written by Peter Selinger 2001-2017
</metadata>
<g transform="translate(0.000000,87.000000) scale(0.100000,-0.100000)"
fill="#000000" stroke="none">
<path fill="#000000" stroke="none" d="M44 768 c24 -57 62 -160 85 -231 l43
-127 -22 -168 c-12 -92 -23 -174 -26 -182 -2 -9 10 -24 29 -38 27 -18 47 -22
104 -22 l72 0 7 57 c4 32 4 141 0 244 l-7 186 65 105 66 105 -23 87 -22 86
-207 0 -207 0 43 -102z"/>
</g>
</svg>
