<?xml version="1.0" standalone="no"?>
<!DOCTYPE svg PUBLIC "-//W3C//DTD SVG 20010904//EN"
 "http://www.w3.org/TR/2001/REC-SVG-20010904/DTD/svg10.dtd">
<svg version="1.0" xmlns="http://www.w3.org/2000/svg"
 width="231.000000pt" height="314.000000pt" viewBox="0 0 231.000000 314.000000"
 preserveAspectRatio="xMidYMid meet">
<metadata>
Created by potrace 1.14, written by Peter Selinger 2001-2017
</metadata>
<g transform="translate(0.000000,314.000000) scale(0.100000,-0.100000)"
fill="#000000" stroke="none">
<path fill="#000000" stroke="none" d="M1274 3091 c-98 -47 -104 -52 -177
-143 -56 -69 -92 -128 -135 -219 l-58 -124 22 -50 c17 -38 23 -69 23 -128 l1
-78 -50 -65 c-44 -60 -66 -76 -222 -172 -95 -58 -247 -140 -338 -182 l-164
-78 -31 -143 c-18 -79 -45 -180 -62 -224 -25 -64 -32 -100 -36 -185 -3 -58
-15 -170 -27 -250 -21 -142 -22 -152 -8 -376 12 -196 12 -254 0 -393 -7 -90
-11 -165 -9 -167 2 -3 476 -27 1053 -54 577 -27 1095 -52 1152 -55 l102 -7 0
215 0 216 -35 58 c-41 70 -79 246 -69 323 7 55 -82 463 -126 580 -16 41 -43
136 -60 210 -16 74 -40 164 -52 198 -21 59 -26 66 -73 89 -27 14 -77 35 -111
47 -39 14 -79 37 -112 67 -49 45 -50 47 -45 90 3 24 14 56 25 71 10 14 21 47
24 72 6 37 9 44 23 37 9 -4 33 -6 54 -4 l37 5 0 57 c-1 46 -6 63 -30 95 -17
22 -30 42 -30 46 0 3 15 11 33 18 l34 12 -4 128 c-4 104 -9 140 -30 197 -22
62 -33 77 -91 127 -79 66 -260 188 -282 188 -8 0 -61 -22 -116 -49z"/>
<path fill="#ffffff" stroke="none" d="M1407 1903 c51 -111 60 -139 73 -242 6
-46 30 -176 52 -290 45 -227 56 -388 41 -595 l-8 -109 -74 182 -74 182 12 72
c12 71 11 74 -29 198 -33 104 -40 142 -41 210 -1 46 -4 127 -8 179 l-6 95 -62
74 c-40 47 -63 83 -63 99 0 23 3 24 38 20 20 -3 48 -1 62 3 14 4 30 7 36 8 6
1 29 -38 51 -86z"/>
</g>
</svg>
