<?xml version="1.0" standalone="no"?>
<!DOCTYPE svg PUBLIC "-//W3C//DTD SVG 20010904//EN"
 "http://www.w3.org/TR/2001/REC-SVG-20010904/DTD/svg10.dtd">
<svg version="1.0" xmlns="http://www.w3.org/2000/svg"
 width="16.000000pt" height="22.000000pt" viewBox="0 0 16.000000 22.000000"
 preserveAspectRatio="xMidYMid meet">
<metadata>
Created by potrace 1.14, written by Peter Selinger 2001-2017
</metadata>
<g transform="translate(0.000000,22.000000) scale(0.100000,-0.100000)"
fill="#000000" stroke="none">
<path fill="#000000" stroke="none" d="M90 195 c-8 -22 -12 -24 -37 -14 -15 5
-33 15 -40 21 -8 7 -13 7 -13 0 0 -15 46 -42 71 -42 20 0 21 -4 16 -42 -3 -24
-9 -54 -12 -68 -6 -24 -6 -24 9 -6 15 19 16 18 16 -12 0 -18 4 -32 8 -32 12 0
32 62 32 98 0 18 5 41 12 51 10 16 8 23 -13 45 -30 32 -37 32 -49 1z"/>
</g>
</svg>
