<?xml version="1.0" standalone="no"?>
<!DOCTYPE svg PUBLIC "-//W3C//DTD SVG 20010904//EN"
 "http://www.w3.org/TR/2001/REC-SVG-20010904/DTD/svg10.dtd">
<svg version="1.0" xmlns="http://www.w3.org/2000/svg"
 width="53.000000pt" height="103.000000pt" viewBox="0 0 53.000000 103.000000"
 preserveAspectRatio="xMidYMid meet">
<metadata>
Created by potrace 1.14, written by Peter Selinger 2001-2017
</metadata>
<g transform="translate(0.000000,103.000000) scale(0.100000,-0.100000)"
fill="#000000" stroke="none">
<path fill="#000000" stroke="none" d="M125 1008 c-34 -17 -45 -29 -64 -79
-21 -55 -22 -64 -11 -130 10 -58 14 -68 26 -58 31 25 13 -33 -25 -84 -37 -49
-39 -56 -42 -134 l-3 -82 40 -35 39 -34 -6 -78 c-4 -44 -10 -99 -14 -124 l-7
-45 130 -2 c119 -1 134 -4 183 -29 30 -15 74 -42 99 -61 l45 -34 8 25 c5 16 2
61 -12 128 -11 57 -22 132 -25 168 -4 40 -22 106 -48 173 -38 99 -44 109 -82
130 -35 19 -41 28 -44 58 -2 23 7 58 22 94 15 32 26 64 26 71 0 8 -14 45 -31
83 -31 69 -31 69 -88 85 -69 19 -66 20 -116 -6z"/>
</g>
</svg>
