<?xml version="1.0" standalone="no"?>
<!DOCTYPE svg PUBLIC "-//W3C//DTD SVG 20010904//EN"
 "http://www.w3.org/TR/2001/REC-SVG-20010904/DTD/svg10.dtd">
<svg version="1.0" xmlns="http://www.w3.org/2000/svg"
 width="303.000000pt" height="431.000000pt" viewBox="0 0 303.000000 431.000000"
 preserveAspectRatio="xMidYMid meet">
<metadata>
Created by potrace 1.14, written by Peter Selinger 2001-2017
</metadata>
<g transform="translate(0.000000,431.000000) scale(0.100000,-0.100000)"
fill="#000000" stroke="none">
<path fill="#000000" stroke="none" d="M1636 4298 c-313 -4 -571 -10 -573 -12
-2 -2 12 -198 31 -435 20 -237 36 -486 36 -553 l0 -123 -493 -219 c-270 -120
-496 -222 -501 -227 -5 -5 -11 -43 -13 -84 -2 -42 -21 -176 -43 -298 l-39
-222 -21 -662 c-11 -363 -20 -753 -20 -866 l0 -205 102 -181 102 -181 55 0
c36 0 119 18 234 49 l177 50 408 -14 407 -15 190 -51 190 -51 465 212 465 212
110 118 110 119 6 198 c4 109 7 315 8 458 l1 260 -113 290 -113 290 -79 372
-78 372 -72 64 -71 65 -209 37 c-175 31 -215 41 -247 63 -21 15 -37 30 -35 33
1 4 56 106 122 226 l120 220 136 90 c133 89 136 92 149 139 7 27 42 123 78
214 35 91 72 186 82 213 l18 47 -256 -2 c-142 0 -513 -5 -826 -10z"/>
<path fill="#000000" stroke="none" d="M2866 4183 c-4 -71 -9 -139 -12 -153
-5 -24 -5 -24 15 -6 19 18 21 30 21 153 0 73 -4 133 -9 133 -5 0 -12 -57 -15
-127z"/>
</g>
</svg>
