<?xml version="1.0" standalone="no"?>
<!DOCTYPE svg PUBLIC "-//W3C//DTD SVG 20010904//EN"
 "http://www.w3.org/TR/2001/REC-SVG-20010904/DTD/svg10.dtd">
<svg version="1.0" xmlns="http://www.w3.org/2000/svg"
 width="21.000000pt" height="73.000000pt" viewBox="0 0 21.000000 73.000000"
 preserveAspectRatio="xMidYMid meet">
<metadata>
Created by potrace 1.14, written by Peter Selinger 2001-2017
</metadata>
<g transform="translate(0.000000,73.000000) scale(0.100000,-0.100000)"
fill="#000000" stroke="none">
<path fill="#000000" stroke="none" d="M88 723 c-14 -3 -18 -15 -18 -53 0 -27
5 -52 10 -55 7 -4 7 -12 0 -25 -5 -10 -10 -27 -10 -36 0 -10 -9 -37 -21 -60
-20 -41 -20 -49 -9 -181 7 -76 14 -170 17 -209 l5 -71 -31 -6 c-17 -4 -31 -12
-31 -18 0 -16 148 -8 159 9 4 8 11 84 14 170 4 96 12 180 22 217 22 80 15 139
-23 198 -24 38 -29 56 -25 83 3 21 1 34 -5 34 -6 0 -16 2 -24 4 -7 2 -21 2
-30 -1z"/>
</g>
</svg>
