<?xml version="1.0" standalone="no"?>
<!DOCTYPE svg PUBLIC "-//W3C//DTD SVG 20010904//EN"
 "http://www.w3.org/TR/2001/REC-SVG-20010904/DTD/svg10.dtd">
<svg version="1.0" xmlns="http://www.w3.org/2000/svg"
 width="30.000000pt" height="49.000000pt" viewBox="0 0 30.000000 49.000000"
 preserveAspectRatio="xMidYMid meet">
<metadata>
Created by potrace 1.14, written by Peter Selinger 2001-2017
</metadata>
<g transform="translate(0.000000,49.000000) scale(0.100000,-0.100000)"
fill="#000000" stroke="none">
<path fill="#000000" stroke="none" d="M197 472 c-37 -41 -115 -192 -110 -211
4 -15 1 -21 -11 -21 -10 0 -22 -13 -27 -30 -6 -17 -15 -30 -19 -30 -12 0 -27
-102 -21 -146 l6 -39 5 49 c4 37 11 54 30 68 23 17 32 17 105 7 59 -9 87 -18
106 -36 14 -12 28 -23 32 -23 4 0 7 63 7 139 0 114 -3 140 -15 145 -10 4 -15
19 -15 49 0 42 -9 61 -41 85 -13 10 -19 8 -32 -6z"/>
</g>
</svg>
