<?xml version="1.0" standalone="no"?>
<!DOCTYPE svg PUBLIC "-//W3C//DTD SVG 20010904//EN"
 "http://www.w3.org/TR/2001/REC-SVG-20010904/DTD/svg10.dtd">
<svg version="1.0" xmlns="http://www.w3.org/2000/svg"
 width="35.000000pt" height="35.000000pt" viewBox="0 0 35.000000 35.000000"
 preserveAspectRatio="xMidYMid meet">
<metadata>
Created by potrace 1.14, written by Peter Selinger 2001-2017
</metadata>
<g transform="translate(0.000000,35.000000) scale(0.100000,-0.100000)"
fill="#000000" stroke="none">
<path fill="#000000" stroke="none" d="M256 323 c-10 -13 -20 -40 -23 -59 -3
-20 -11 -37 -17 -39 -6 -2 -29 -9 -52 -14 -32 -9 -51 -24 -92 -76 -54 -66 -76
-110 -66 -126 3 -5 58 -9 122 -9 l117 0 47 74 c48 77 53 98 50 207 -2 56 -2
57 -35 61 -26 3 -37 -2 -51 -19z"/>
</g>
</svg>
