<?xml version="1.0" standalone="no"?>
<!DOCTYPE svg PUBLIC "-//W3C//DTD SVG 20010904//EN"
 "http://www.w3.org/TR/2001/REC-SVG-20010904/DTD/svg10.dtd">
<svg version="1.0" xmlns="http://www.w3.org/2000/svg"
 width="19.000000pt" height="149.000000pt" viewBox="0 0 19.000000 149.000000"
 preserveAspectRatio="xMidYMid meet">
<metadata>
Created by potrace 1.14, written by Peter Selinger 2001-2017
</metadata>
<g transform="translate(0.000000,149.000000) scale(0.100000,-0.100000)"
fill="#000000" stroke="none">
<path fill="#000000" stroke="none" d="M7 1353 c-4 -75 -7 -403 -7 -729 l0
-593 41 -11 c22 -6 47 -14 55 -17 12 -4 14 22 14 168 0 96 7 237 15 314 8 77
15 221 15 321 0 159 3 188 21 240 18 49 21 84 23 204 l1 145 -75 38 c-41 21
-80 43 -86 48 -8 6 -13 -30 -17 -128z"/>
</g>
</svg>
