<?xml version="1.0" standalone="no"?>
<!DOCTYPE svg PUBLIC "-//W3C//DTD SVG 20010904//EN"
 "http://www.w3.org/TR/2001/REC-SVG-20010904/DTD/svg10.dtd">
<svg version="1.0" xmlns="http://www.w3.org/2000/svg"
 width="76.000000pt" height="202.000000pt" viewBox="0 0 76.000000 202.000000"
 preserveAspectRatio="xMidYMid meet">
<metadata>
Created by potrace 1.14, written by Peter Selinger 2001-2017
</metadata>
<g transform="translate(0.000000,202.000000) scale(0.100000,-0.100000)"
fill="#000000" stroke="none">
<path fill="#000000" stroke="none" d="M519 2011 c-14 -3 -40 -22 -57 -42 -32
-36 -32 -38 -32 -145 l0 -108 -42 -50 c-42 -50 -43 -52 -45 -132 -1 -45 -7
-101 -13 -125 -6 -24 -15 -60 -19 -79 -4 -19 -13 -45 -19 -57 -17 -31 -15 -45
6 -39 22 7 77 -48 117 -117 15 -27 37 -52 49 -57 12 -4 32 -19 45 -33 21 -23
23 -33 19 -92 -5 -75 -27 -112 -50 -83 -16 19 -123 34 -111 15 4 -7 15 -49 24
-95 l16 -82 -43 -35 c-23 -19 -53 -52 -65 -73 -76 -125 -157 -191 -257 -207
l-42 -7 22 -40 c13 -22 31 -44 40 -49 10 -5 18 -20 18 -32 0 -31 23 -61 82
-108 46 -36 53 -38 66 -25 11 11 12 19 5 28 -34 43 -17 158 35 238 33 51 190
216 198 208 1 -2 -1 -49 -6 -103 -17 -184 -30 -370 -30 -416 l0 -47 113 -6
c61 -4 129 -9 149 -12 40 -6 50 4 61 64 6 31 6 32 -29 32 -46 0 -93 21 -126
57 -37 38 -38 90 -8 309 l23 172 39 6 c21 3 38 9 38 12 0 3 -14 60 -31 127
l-31 122 17 66 c9 37 15 86 13 110 -3 38 0 45 21 55 49 25 52 50 15 128 -40
85 -41 100 -31 286 7 111 13 152 27 175 25 42 60 149 60 183 0 21 -10 37 -40
61 -59 47 -118 60 -191 42z"/>
</g>
</svg>
