<?xml version="1.0" standalone="no"?>
<!DOCTYPE svg PUBLIC "-//W3C//DTD SVG 20010904//EN"
 "http://www.w3.org/TR/2001/REC-SVG-20010904/DTD/svg10.dtd">
<svg version="1.0" xmlns="http://www.w3.org/2000/svg"
 width="58.000000pt" height="80.000000pt" viewBox="0 0 58.000000 80.000000"
 preserveAspectRatio="xMidYMid meet">
<metadata>
Created by potrace 1.14, written by Peter Selinger 2001-2017
</metadata>
<g transform="translate(0.000000,80.000000) scale(0.100000,-0.100000)"
fill="#000000" stroke="none">
<path fill="#000000" stroke="none" d="M417 793 c-3 -5 -8 -34 -12 -66 -8 -60
-14 -72 -101 -172 -28 -33 -86 -121 -129 -195 -42 -74 -99 -165 -126 -201 -27
-37 -49 -69 -49 -72 0 -3 51 -22 113 -42 61 -20 118 -38 125 -40 15 -5 13 -2
-39 76 l-38 56 42 76 c37 67 59 90 194 207 l151 132 16 64 c9 35 16 81 16 102
l0 39 -74 21 c-84 25 -83 25 -89 15z"/>
</g>
</svg>
