<?xml version="1.0" standalone="no"?>
<!DOCTYPE svg PUBLIC "-//W3C//DTD SVG 20010904//EN"
 "http://www.w3.org/TR/2001/REC-SVG-20010904/DTD/svg10.dtd">
<svg version="1.0" xmlns="http://www.w3.org/2000/svg"
 width="238.000000pt" height="231.000000pt" viewBox="0 0 238.000000 231.000000"
 preserveAspectRatio="xMidYMid meet">
<metadata>
Created by potrace 1.14, written by Peter Selinger 2001-2017
</metadata>
<g transform="translate(0.000000,231.000000) scale(0.100000,-0.100000)"
fill="#000000" stroke="none">
<path fill="#000000" stroke="none" d="M1225 2296 c-112 -29 -117 -34 -148
-128 -17 -53 -27 -102 -25 -129 l3 -43 -55 -13 c-30 -7 -109 -16 -175 -20
-113 -6 -130 -10 -290 -66 -159 -55 -290 -86 -377 -87 -54 0 -68 -8 -68 -41 0
-16 -4 -29 -9 -29 -15 0 -22 -30 -11 -50 9 -16 5 -25 -21 -50 -18 -16 -36 -30
-41 -30 -5 0 -6 -5 -3 -11 5 -7 41 -8 109 -3 91 6 104 5 109 -10 5 -12 -2 -22
-23 -34 -32 -18 -48 -47 -42 -74 8 -38 56 -12 73 39 14 45 130 163 159 163 11
0 70 16 131 36 97 31 119 35 170 29 59 -7 59 -7 59 -40 0 -30 3 -33 42 -39 23
-4 98 -23 166 -42 l123 -36 82 -85 c45 -46 99 -112 119 -146 35 -59 37 -66 38
-151 l0 -90 50 -46 c63 -58 65 -75 8 -66 -24 3 -126 9 -228 13 -203 7 -237 1
-292 -45 -41 -35 -58 -79 -58 -151 0 -56 3 -64 42 -111 90 -108 165 -184 222
-226 35 -26 75 -68 102 -107 52 -78 85 -105 137 -114 34 -5 42 -11 58 -48 10
-23 26 -49 35 -56 22 -18 44 -71 44 -103 0 -33 20 -42 111 -50 106 -10 141 7
170 83 28 74 35 127 19 146 -7 8 -35 27 -62 42 -26 14 -57 41 -68 58 -19 30
-19 35 -5 75 26 75 20 84 -73 109 -22 6 -57 27 -78 46 -21 19 -52 38 -70 41
-18 3 -42 16 -54 29 l-21 23 83 -18 c46 -9 123 -30 173 -45 79 -24 99 -27 170
-21 44 3 90 9 102 12 18 5 26 0 40 -27 10 -19 43 -58 73 -88 48 -47 57 -63 74
-125 11 -39 18 -98 18 -131 -3 -75 3 -101 24 -109 19 -7 126 18 170 40 44 22
60 89 44 181 -7 38 -10 84 -8 103 3 33 6 35 43 40 75 10 79 21 34 91 -25 39
-39 51 -80 64 -30 10 -58 28 -74 48 l-25 32 41 39 c87 82 142 274 128 446 -11
125 -28 163 -84 185 -38 14 -50 27 -89 93 -28 48 -59 86 -81 100 -34 22 -35
24 -35 89 0 36 7 90 16 119 10 28 14 58 11 67 -3 8 -43 27 -88 42 -125 41
-352 139 -401 173 -59 41 -73 59 -93 121 -10 30 -32 70 -49 89 -30 32 -37 35
-102 38 -38 1 -91 -3 -119 -10z"/>
</g>
</svg>
