<?xml version="1.0" standalone="no"?>
<!DOCTYPE svg PUBLIC "-//W3C//DTD SVG 20010904//EN"
 "http://www.w3.org/TR/2001/REC-SVG-20010904/DTD/svg10.dtd">
<svg version="1.0" xmlns="http://www.w3.org/2000/svg"
 width="26.000000pt" height="28.000000pt" viewBox="0 0 26.000000 28.000000"
 preserveAspectRatio="xMidYMid meet">
<metadata>
Created by potrace 1.14, written by Peter Selinger 2001-2017
</metadata>
<g transform="translate(0.000000,28.000000) scale(0.100000,-0.100000)"
fill="#000000" stroke="none">
<path fill="#000000" stroke="none" d="M51 246 c-12 -18 -28 -52 -36 -75 -12
-36 -13 -43 0 -47 8 -3 17 -21 21 -39 5 -30 9 -33 50 -38 29 -3 50 -12 62 -27
l18 -23 18 56 c14 43 23 58 46 67 l29 12 -21 41 c-11 23 -32 56 -47 74 -23 29
-32 33 -73 33 -42 0 -48 -3 -67 -34z"/>
</g>
</svg>
