<?xml version="1.0" standalone="no"?>
<!DOCTYPE svg PUBLIC "-//W3C//DTD SVG 20010904//EN"
 "http://www.w3.org/TR/2001/REC-SVG-20010904/DTD/svg10.dtd">
<svg version="1.0" xmlns="http://www.w3.org/2000/svg"
 width="21.000000pt" height="34.000000pt" viewBox="0 0 21.000000 34.000000"
 preserveAspectRatio="xMidYMid meet">
<metadata>
Created by potrace 1.14, written by Peter Selinger 2001-2017
</metadata>
<g transform="translate(0.000000,34.000000) scale(0.100000,-0.100000)"
fill="#000000" stroke="none">
<path fill="#000000" stroke="none" d="M25 295 c-21 -37 -25 -56 -25 -129 0
-73 3 -85 18 -90 10 -4 33 -22 51 -40 29 -30 36 -33 57 -24 14 7 26 23 29 42
4 17 18 48 31 68 37 58 32 104 -17 156 -27 28 -53 45 -79 51 -39 9 -40 8 -65
-34z"/>
</g>
</svg>
