<?xml version="1.0" standalone="no"?>
<!DOCTYPE svg PUBLIC "-//W3C//DTD SVG 20010904//EN"
 "http://www.w3.org/TR/2001/REC-SVG-20010904/DTD/svg10.dtd">
<svg version="1.0" xmlns="http://www.w3.org/2000/svg"
 width="23.000000pt" height="24.000000pt" viewBox="0 0 23.000000 24.000000"
 preserveAspectRatio="xMidYMid meet">
<metadata>
Created by potrace 1.14, written by Peter Selinger 2001-2017
</metadata>
<g transform="translate(0.000000,24.000000) scale(0.100000,-0.100000)"
fill="#000000" stroke="none">
<path fill="#000000" stroke="none" d="M112 211 c-20 -19 -32 -39 -32 -56 0
-15 -11 -41 -24 -58 -13 -18 -31 -47 -40 -64 l-17 -33 115 0 114 0 -9 35 c-7
23 -6 41 1 54 5 11 10 37 10 59 0 35 -5 42 -40 66 -22 14 -41 26 -43 26 -1 0
-17 -13 -35 -29z"/>
</g>
</svg>
