<?xml version="1.0" standalone="no"?>
<!DOCTYPE svg PUBLIC "-//W3C//DTD SVG 20010904//EN"
 "http://www.w3.org/TR/2001/REC-SVG-20010904/DTD/svg10.dtd">
<svg version="1.0" xmlns="http://www.w3.org/2000/svg"
 width="336.000000pt" height="308.000000pt" viewBox="0 0 336.000000 308.000000"
 preserveAspectRatio="xMidYMid meet">
<metadata>
Created by potrace 1.14, written by Peter Selinger 2001-2017
</metadata>
<g transform="translate(0.000000,308.000000) scale(0.100000,-0.100000)"
fill="#000000" stroke="none">
<path fill="#000000" stroke="none" d="M1815 3060 c-10 -11 -22 -17 -28 -13
-7 4 -8 -7 -4 -31 l6 -37 -33 7 c-47 8 -51 -8 -15 -59 30 -43 30 -44 20 -117
-9 -67 -8 -74 10 -89 19 -15 19 -18 4 -66 -11 -39 -15 -104 -15 -291 l0 -241
55 -105 c73 -141 98 -212 90 -264 -5 -35 2 -58 50 -165 31 -68 62 -128 69
-133 10 -7 -5 -31 -65 -100 -103 -120 -104 -121 -179 -180 -50 -39 -72 -65
-96 -113 -26 -54 -32 -61 -45 -48 -8 8 -70 46 -139 86 -69 39 -138 83 -155 99
-49 46 -64 50 -146 39 -129 -16 -188 -29 -449 -96 -291 -75 -494 -116 -530
-108 -18 4 -34 23 -56 63 -38 69 -48 110 -45 178 2 50 1 52 -30 63 -71 25 -92
7 -81 -67 2 -16 81 -152 176 -303 l171 -274 73 -3 c60 -2 79 1 107 18 18 11
73 29 122 40 48 11 138 35 198 54 61 20 122 36 137 36 15 0 33 7 42 15 8 8 24
15 35 15 11 0 32 6 47 12 24 11 28 10 38 -6 6 -11 50 -72 99 -138 48 -65 87
-121 87 -126 0 -4 -39 -22 -88 -41 -48 -18 -105 -46 -127 -61 -32 -21 -56 -29
-119 -34 -89 -8 -114 -19 -201 -86 l-62 -48 -53 26 c-47 23 -122 33 -137 19
-2 -3 49 -91 113 -196 l117 -192 31 29 c26 23 85 71 143 115 9 6 16 1 23 -17
6 -18 25 -33 57 -47 l48 -20 79 38 c44 21 105 54 136 74 32 20 73 40 91 44 19
4 73 28 120 53 l86 46 39 -30 c70 -55 109 -73 176 -83 63 -11 69 -10 139 20
43 18 93 48 119 73 69 64 78 70 93 58 17 -15 54 42 39 61 -5 7 -7 29 -5 49 4
32 10 39 39 48 51 17 138 92 189 164 62 87 123 136 170 136 31 0 48 -10 114
-70 90 -81 100 -83 194 -41 l66 30 111 -61 c61 -33 146 -71 188 -83 l77 -22 6
66 c4 36 7 89 8 118 l1 51 -62 21 c-34 12 -74 21 -90 21 -18 0 -47 16 -85 47
-113 91 -192 166 -203 193 -6 14 -25 35 -43 45 -17 10 -67 52 -110 92 -43 40
-82 73 -87 73 -6 0 -10 6 -10 13 0 7 -13 26 -29 41 -25 24 -28 32 -20 53 5 13
9 42 9 64 0 29 4 39 16 39 35 0 72 39 84 90 6 27 20 66 31 87 46 90 11 236
-69 287 -78 50 -166 42 -227 -23 -16 -17 -54 -43 -85 -57 l-55 -27 33 -9 c38
-10 41 -29 12 -73 -11 -16 -20 -40 -20 -52 0 -58 -31 -64 -54 -9 -7 18 -28 45
-46 62 -76 67 -235 245 -256 285 -29 55 -64 279 -71 450 -6 156 -6 156 22 213
19 39 26 65 22 85 -4 17 1 50 10 76 15 45 14 48 -12 121 -26 71 -46 91 -59 58
-5 -14 -8 -14 -28 0 -29 21 -41 20 -63 -4z"/>
</g>
</svg>
