<?xml version="1.0" standalone="no"?>
<!DOCTYPE svg PUBLIC "-//W3C//DTD SVG 20010904//EN"
 "http://www.w3.org/TR/2001/REC-SVG-20010904/DTD/svg10.dtd">
<svg version="1.0" xmlns="http://www.w3.org/2000/svg"
 width="261.000000pt" height="457.000000pt" viewBox="0 0 261.000000 457.000000"
 preserveAspectRatio="xMidYMid meet">
<metadata>
Created by potrace 1.14, written by Peter Selinger 2001-2017
</metadata>
<g transform="translate(0.000000,457.000000) scale(0.100000,-0.100000)"
fill="#000000" stroke="none">
<path fill="#000000" stroke="none" d="M595 4558 c-106 -298 -141 -404 -180
-555 l-47 -182 141 -242 142 -241 -76 -83 -75 -83 -175 58 -174 58 -75 -91
c-41 -51 -71 -93 -68 -95 4 -1 194 -75 422 -165 l415 -163 13 -59 c8 -33 27
-102 44 -154 24 -74 29 -104 25 -143 -4 -29 0 -83 9 -129 l15 -79 -50 -182
c-28 -101 -68 -271 -90 -378 -45 -220 -42 -209 -106 -385 -25 -71 -53 -163
-61 -203 l-16 -72 40 -48 c22 -26 54 -60 72 -77 18 -16 72 -73 121 -127 l90
-96 41 -319 c22 -175 42 -320 44 -322 4 -4 1537 58 1541 63 2 1 33 2647 33
2788 0 36 -2 38 -212 190 -117 85 -235 169 -263 188 -27 19 -59 42 -70 51 -11
10 -78 60 -150 112 -109 79 -130 98 -128 118 1 13 23 171 48 350 l45 327 -39
93 c-21 51 -45 97 -52 101 -8 4 -268 46 -579 93 -311 47 -575 88 -588 90 -13
3 -24 0 -27 -7z"/>
</g>
</svg>
