<?xml version="1.0" standalone="no"?>
<!DOCTYPE svg PUBLIC "-//W3C//DTD SVG 20010904//EN"
 "http://www.w3.org/TR/2001/REC-SVG-20010904/DTD/svg10.dtd">
<svg version="1.0" xmlns="http://www.w3.org/2000/svg"
 width="47.000000pt" height="80.000000pt" viewBox="0 0 47.000000 80.000000"
 preserveAspectRatio="xMidYMid meet">
<metadata>
Created by potrace 1.14, written by Peter Selinger 2001-2017
</metadata>
<g transform="translate(0.000000,80.000000) scale(0.100000,-0.100000)"
fill="#000000" stroke="none">
<path fill="#000000" stroke="none" d="M310 791 c-48 -15 -125 -60 -141 -83
-8 -13 -26 -51 -38 -85 -14 -38 -30 -65 -41 -68 -34 -11 -63 -125 -66 -264 -1
-79 -6 -126 -14 -131 -8 -5 -7 -18 6 -49 10 -26 14 -55 11 -79 l-6 -37 26 50
c28 55 108 142 283 308 126 119 124 116 137 260 3 45 1 73 -6 80 -6 6 -11 24
-11 39 0 22 -8 32 -40 48 -41 21 -59 23 -100 11z"/>
</g>
</svg>
