<?xml version="1.0" standalone="no"?>
<!DOCTYPE svg PUBLIC "-//W3C//DTD SVG 20010904//EN"
 "http://www.w3.org/TR/2001/REC-SVG-20010904/DTD/svg10.dtd">
<svg version="1.0" xmlns="http://www.w3.org/2000/svg"
 width="51.000000pt" height="207.000000pt" viewBox="0 0 51.000000 207.000000"
 preserveAspectRatio="xMidYMid meet">
<metadata>
Created by potrace 1.14, written by Peter Selinger 2001-2017
</metadata>
<g transform="translate(0.000000,207.000000) scale(0.100000,-0.100000)"
fill="#000000" stroke="none">
<path fill="#000000" stroke="none" d="M155 2059 c-34 -10 -58 -39 -78 -95 -8
-22 -17 -46 -21 -55 -5 -12 11 -32 59 -74 37 -32 72 -70 80 -84 7 -14 19 -87
26 -161 7 -74 15 -127 17 -117 4 21 22 23 22 2 0 -9 10 -35 22 -58 21 -43 48
-130 48 -157 -1 -11 -5 -10 -16 5 -20 25 -84 159 -84 175 0 6 -13 -2 -30 -18
-16 -17 -43 -33 -60 -36 -16 -3 -43 -9 -60 -12 -38 -7 -48 -23 -25 -40 16 -12
18 -29 17 -149 0 -74 -1 -139 -1 -145 -1 -5 -17 -28 -37 -50 l-37 -41 33 -110
c19 -63 36 -105 40 -97 4 7 16 49 26 93 l18 80 9 -65 c4 -36 8 -213 8 -394 -1
-290 -3 -331 -17 -347 -22 -24 -11 -69 17 -69 11 0 32 -9 47 -19 19 -13 38
-18 63 -14 36 5 37 5 28 38 -7 23 -3 62 11 140 18 91 22 158 26 448 6 380 7
408 22 487 6 30 11 85 11 123 -1 69 15 137 32 137 14 0 11 -64 -6 -104 -13
-30 -13 -45 -4 -78 10 -37 41 -77 62 -78 5 0 27 39 49 87 l41 88 -16 80 c-10
44 -17 114 -17 157 0 73 -1 78 -39 125 -21 26 -48 57 -60 67 -11 11 -21 26
-21 35 0 8 -17 32 -37 53 l-37 38 17 46 c16 44 16 47 -3 84 -14 28 -30 42 -57
51 -21 7 -42 18 -48 24 -7 9 -19 10 -40 4z"/>
</g>
</svg>
