<?xml version="1.0" standalone="no"?>
<!DOCTYPE svg PUBLIC "-//W3C//DTD SVG 20010904//EN"
 "http://www.w3.org/TR/2001/REC-SVG-20010904/DTD/svg10.dtd">
<svg version="1.0" xmlns="http://www.w3.org/2000/svg"
 width="140.000000pt" height="357.000000pt" viewBox="0 0 140.000000 357.000000"
 preserveAspectRatio="xMidYMid meet">
<metadata>
Created by potrace 1.14, written by Peter Selinger 2001-2017
</metadata>
<g transform="translate(0.000000,357.000000) scale(0.100000,-0.100000)"
fill="#000000" stroke="none">
<path fill="#000000" stroke="none" d="M835 3541 c-117 -46 -176 -81 -224
-133 l-47 -51 11 -82 c7 -56 16 -90 29 -104 18 -20 18 -21 -20 -72 -27 -36
-57 -60 -99 -81 -66 -33 -83 -50 -150 -150 -25 -38 -50 -68 -55 -68 -17 0 -69
-81 -76 -119 -3 -20 -23 -63 -43 -96 -66 -108 -111 -226 -111 -292 0 -33 -5
-86 -11 -118 -8 -42 -8 -95 0 -189 l11 -130 -25 -26 c-32 -34 -32 -79 0 -145
14 -27 25 -56 25 -63 0 -20 30 -61 61 -83 26 -18 30 -19 64 -5 36 15 36 16 29
62 -6 44 -5 47 12 40 33 -13 39 -11 36 9 -9 61 -14 159 -7 153 4 -3 20 -44 35
-89 16 -46 38 -94 48 -109 11 -14 23 -46 27 -70 4 -25 20 -74 36 -110 17 -35
39 -100 50 -144 11 -44 27 -88 34 -99 13 -18 11 -24 -16 -59 -59 -73 -116
-302 -132 -527 -4 -47 -9 -58 -40 -85 -35 -31 -35 -31 -28 -94 4 -35 3 -66 -1
-68 -4 -3 -8 -24 -8 -46 l0 -41 53 7 c28 3 89 6 135 6 l82 0 0 48 c0 27 11 82
25 123 14 41 37 125 52 186 30 132 127 398 117 322 -3 -27 -1 -55 5 -67 8 -15
7 -23 -3 -31 -7 -6 -19 -53 -26 -104 -6 -50 -21 -130 -32 -177 -11 -47 -24
-143 -28 -214 -9 -130 -9 -130 16 -155 24 -24 27 -32 39 -104 5 -33 12 -41 48
-56 105 -45 227 -52 267 -16 29 26 10 50 -68 88 -62 30 -68 36 -91 90 l-24 57
31 67 c65 142 133 355 148 463 30 216 35 290 35 491 0 167 -4 229 -21 325 -11
65 -18 130 -15 143 l6 24 37 -35 c20 -19 63 -52 95 -73 72 -47 83 -70 51 -108
-20 -23 -22 -32 -12 -52 10 -23 12 -23 39 -10 15 8 30 15 32 15 3 0 10 -20 17
-45 7 -25 16 -45 21 -45 4 0 13 19 20 43 18 68 23 74 27 35 2 -29 8 -37 29
-43 14 -3 27 -4 29 -2 11 11 4 116 -15 212 -11 61 -25 164 -31 230 -5 66 -17
201 -25 300 -8 99 -19 212 -24 250 -5 39 -7 73 -4 77 7 12 -38 131 -58 153
-10 11 -23 41 -28 67 -6 26 -31 78 -54 115 -106 164 -109 179 -47 229 54 44
68 65 85 121 27 90 21 133 -30 215 -52 86 -101 123 -170 133 -28 4 -57 8 -65
10 -8 1 -46 -9 -85 -24z"/>
</g>
</svg>
