<?xml version="1.0" standalone="no"?>
<!DOCTYPE svg PUBLIC "-//W3C//DTD SVG 20010904//EN"
 "http://www.w3.org/TR/2001/REC-SVG-20010904/DTD/svg10.dtd">
<svg version="1.0" xmlns="http://www.w3.org/2000/svg"
 width="35.000000pt" height="101.000000pt" viewBox="0 0 35.000000 101.000000"
 preserveAspectRatio="xMidYMid meet">
<metadata>
Created by potrace 1.14, written by Peter Selinger 2001-2017
</metadata>
<g transform="translate(0.000000,101.000000) scale(0.100000,-0.100000)"
fill="#000000" stroke="none">
<path fill="#000000" stroke="none" d="M91 984 c-16 -21 -21 -41 -21 -89 0
-51 -4 -65 -21 -81 -42 -37 -49 -73 -42 -211 6 -121 8 -130 40 -183 30 -49 33
-63 33 -131 0 -69 2 -78 26 -100 31 -28 54 -76 55 -116 l1 -28 9 30 c4 17 11
62 15 100 l7 70 19 -70 c12 -47 17 -87 13 -122 -5 -47 -3 -53 14 -53 17 0 19
11 23 138 l3 138 43 53 c42 53 42 54 42 135 0 44 -6 101 -14 126 -33 107 -68
184 -101 222 -19 23 -35 52 -35 65 0 50 -24 111 -47 122 -34 16 -39 14 -62
-15z"/>
</g>
</svg>
