<?xml version="1.0" standalone="no"?>
<!DOCTYPE svg PUBLIC "-//W3C//DTD SVG 20010904//EN"
 "http://www.w3.org/TR/2001/REC-SVG-20010904/DTD/svg10.dtd">
<svg version="1.0" xmlns="http://www.w3.org/2000/svg"
 width="87.000000pt" height="105.000000pt" viewBox="0 0 87.000000 105.000000"
 preserveAspectRatio="xMidYMid meet">
<metadata>
Created by potrace 1.14, written by Peter Selinger 2001-2017
</metadata>
<g transform="translate(0.000000,105.000000) scale(0.100000,-0.100000)"
fill="#000000" stroke="none">
<path fill="#000000" stroke="none" d="M298 1041 c-36 -3 -68 -8 -70 -11 -3
-3 -17 -39 -31 -80 -24 -66 -27 -90 -27 -201 l0 -127 -51 -18 c-30 -11 -55
-27 -60 -39 -5 -11 -20 -86 -34 -166 -24 -140 -25 -150 -10 -219 8 -39 15 -74
15 -76 0 -3 8 -3 18 0 12 4 29 -5 51 -28 32 -33 35 -34 61 -21 25 13 29 13 34
-1 5 -12 17 -14 63 -9 32 3 94 2 138 -3 56 -6 82 -6 87 2 4 6 8 49 8 96 0 47
4 91 9 98 9 16 111 41 165 42 l38 0 -4 -141 -3 -141 70 7 c111 10 105 5 104
93 -1 52 -17 147 -50 295 -27 119 -49 219 -49 222 0 2 -32 14 -70 26 -78 26
-67 9 -105 158 -15 58 -25 73 -103 157 -58 62 -94 93 -107 92 -11 -1 -50 -4
-87 -7z"/>
</g>
</svg>
