<?xml version="1.0" standalone="no"?>
<!DOCTYPE svg PUBLIC "-//W3C//DTD SVG 20010904//EN"
 "http://www.w3.org/TR/2001/REC-SVG-20010904/DTD/svg10.dtd">
<svg version="1.0" xmlns="http://www.w3.org/2000/svg"
 width="234.000000pt" height="309.000000pt" viewBox="0 0 234.000000 309.000000"
 preserveAspectRatio="xMidYMid meet">
<metadata>
Created by potrace 1.14, written by Peter Selinger 2001-2017
</metadata>
<g transform="translate(0.000000,309.000000) scale(0.100000,-0.100000)"
fill="#000000" stroke="none">
<path fill="#000000" stroke="none" d="M1396 3044 c-3 -26 -6 -69 -6 -95 0
-40 -8 -62 -47 -126 -25 -43 -48 -80 -50 -82 -1 -2 -39 31 -84 73 -44 43 -86
76 -92 73 -7 -2 -50 -17 -97 -32 -47 -15 -90 -32 -97 -39 -13 -12 -87 -260
-103 -346 -14 -72 -47 -323 -56 -429 -6 -74 -18 -110 -109 -337 l-103 -254 68
-162 68 -163 -20 -129 -20 -130 -52 -63 -51 -62 -190 -67 c-104 -37 -220 -80
-256 -96 l-65 -29 -18 -134 c-10 -73 -16 -138 -12 -143 3 -5 64 -42 135 -81
71 -39 131 -77 134 -84 5 -16 124 -15 155 2 28 15 28 37 0 53 -21 11 -16 13
51 19 40 4 77 11 82 16 4 4 9 32 11 61 l3 54 -227 126 c-125 69 -227 127 -225
128 1 1 156 -18 345 -42 l343 -45 49 -36 50 -37 -54 -48 -54 -48 36 -65 c19
-36 40 -65 46 -65 8 0 89 -29 337 -123 l65 -25 -12 77 c-22 133 -30 120 101
176 l115 49 -1 170 c0 94 -4 304 -8 466 l-7 295 -51 90 c-39 69 -70 149 -133
344 -44 139 -80 255 -77 257 2 2 81 19 176 37 l173 34 -111 -111 -111 -112
467 -56 c257 -32 468 -56 470 -54 2 1 14 58 28 127 14 68 27 134 30 145 4 20
-12 27 -208 94 l-212 73 -91 86 -92 85 64 50 c54 41 64 54 65 80 0 17 8 133
17 258 l18 227 -187 85 c-168 78 -192 86 -246 86 l-60 0 -7 -46z"/>
<path fill="#000000" stroke="none" d="M320 50 c30 -38 35 -40 91 -42 112 -4
122 -3 126 9 3 7 -37 21 -109 37 -62 15 -119 29 -126 31 -8 3 1 -13 18 -35z"/>
</g>
</svg>
