<?xml version="1.0" standalone="no"?>
<!DOCTYPE svg PUBLIC "-//W3C//DTD SVG 20010904//EN"
 "http://www.w3.org/TR/2001/REC-SVG-20010904/DTD/svg10.dtd">
<svg version="1.0" xmlns="http://www.w3.org/2000/svg"
 width="63.000000pt" height="54.000000pt" viewBox="0 0 63.000000 54.000000"
 preserveAspectRatio="xMidYMid meet">
<metadata>
Created by potrace 1.14, written by Peter Selinger 2001-2017
</metadata>
<g transform="translate(0.000000,54.000000) scale(0.100000,-0.100000)"
fill="#000000" stroke="none">
<path fill="#000000" stroke="none" d="M73 533 c-7 -2 -13 -17 -13 -31 0 -15
-14 -65 -30 -112 -32 -92 -36 -120 -19 -137 18 -18 54 4 80 51 l24 41 6 -60
c4 -34 3 -65 -2 -72 -12 -13 -5 -18 37 -27 25 -6 35 -17 55 -59 l24 -52 95
-31 c145 -47 147 -47 160 -23 10 17 8 25 -9 43 -23 24 -35 59 -52 141 -8 40
-6 63 7 113 l17 63 44 -68 c52 -81 85 -99 115 -62 32 40 21 69 -84 240 -19 31
-30 38 -67 43 -52 7 -370 7 -388 -1z"/>
</g>
</svg>
