<?xml version="1.0" standalone="no"?>
<!DOCTYPE svg PUBLIC "-//W3C//DTD SVG 20010904//EN"
 "http://www.w3.org/TR/2001/REC-SVG-20010904/DTD/svg10.dtd">
<svg version="1.0" xmlns="http://www.w3.org/2000/svg"
 width="210.000000pt" height="310.000000pt" viewBox="0 0 210.000000 310.000000"
 preserveAspectRatio="xMidYMid meet">
<metadata>
Created by potrace 1.14, written by Peter Selinger 2001-2017
</metadata>
<g transform="translate(0.000000,310.000000) scale(0.100000,-0.100000)"
fill="#000000" stroke="none">
<path fill="#000000" stroke="none" d="M815 3093 l-120 -4 -30 -46 c-38 -60
-47 -82 -99 -233 -26 -73 -46 -155 -51 -198 -6 -61 -13 -81 -43 -125 -61 -88
-120 -205 -197 -388 l-74 -176 6 -79 c3 -43 16 -115 29 -160 13 -44 24 -90 24
-103 0 -12 -18 -86 -41 -163 -22 -78 -63 -256 -90 -397 -27 -141 -58 -294 -69
-341 -10 -47 -29 -154 -41 -238 -18 -123 -21 -159 -11 -184 8 -22 8 -52 0
-113 -16 -125 -24 -120 150 -109 81 4 185 7 232 5 61 -2 190 12 460 50 l375
53 370 -74 c363 -72 372 -73 432 -61 l61 13 7 102 7 103 -60 229 c-78 297 -88
404 -71 751 l11 241 -53 184 c-49 172 -55 186 -102 243 l-49 59 46 44 c25 24
46 45 46 46 0 2 -58 56 -129 121 l-128 116 -7 137 c-7 125 -53 603 -58 607
-24 13 -104 41 -183 65 -107 32 -140 33 -550 23z"/>
</g>
</svg>
