<?xml version="1.0" standalone="no"?>
<!DOCTYPE svg PUBLIC "-//W3C//DTD SVG 20010904//EN"
 "http://www.w3.org/TR/2001/REC-SVG-20010904/DTD/svg10.dtd">
<svg version="1.0" xmlns="http://www.w3.org/2000/svg"
 width="11.000000pt" height="16.000000pt" viewBox="0 0 11.000000 16.000000"
 preserveAspectRatio="xMidYMid meet">
<metadata>
Created by potrace 1.14, written by Peter Selinger 2001-2017
</metadata>
<g transform="translate(0.000000,16.000000) scale(0.100000,-0.100000)"
fill="#000000" stroke="none">
<path fill="#000000" stroke="none" d="M42 148 c-7 -7 -12 -18 -12 -25 0 -8
-7 -16 -16 -20 -11 -4 -15 -17 -13 -47 3 -56 7 -59 36 -36 23 18 28 19 43 5
25 -23 30 -19 30 25 0 29 -5 42 -20 50 -11 6 -20 19 -20 30 0 24 -13 33 -28
18z"/>
</g>
</svg>
