<?xml version="1.0" standalone="no"?>
<!DOCTYPE svg PUBLIC "-//W3C//DTD SVG 20010904//EN"
 "http://www.w3.org/TR/2001/REC-SVG-20010904/DTD/svg10.dtd">
<svg version="1.0" xmlns="http://www.w3.org/2000/svg"
 width="55.000000pt" height="90.000000pt" viewBox="0 0 55.000000 90.000000"
 preserveAspectRatio="xMidYMid meet">
<metadata>
Created by potrace 1.14, written by Peter Selinger 2001-2017
</metadata>
<g transform="translate(0.000000,90.000000) scale(0.100000,-0.100000)"
fill="#000000" stroke="none">
<path fill="#000000" stroke="none" d="M123 777 l-124 -123 22 -89 c12 -52 31
-101 43 -115 32 -37 46 -75 46 -128 0 -26 10 -90 21 -142 11 -52 23 -114 26
-137 l5 -42 47 22 c25 12 47 22 48 23 2 0 -9 64 -23 143 -17 91 -24 154 -19
178 l6 36 29 -44 c16 -24 32 -57 36 -74 7 -33 73 -268 77 -271 1 -1 44 3 95 9
85 10 92 12 92 33 0 18 -7 23 -39 29 -22 4 -42 12 -44 18 -79 186 -102 259
-122 394 -4 24 -1 83 5 132 13 93 7 147 -27 234 -13 31 -20 37 -46 37 -26 0
-50 -19 -154 -123z"/>
</g>
</svg>
