<?xml version="1.0" standalone="no"?>
<!DOCTYPE svg PUBLIC "-//W3C//DTD SVG 20010904//EN"
 "http://www.w3.org/TR/2001/REC-SVG-20010904/DTD/svg10.dtd">
<svg version="1.0" xmlns="http://www.w3.org/2000/svg"
 width="199.000000pt" height="326.000000pt" viewBox="0 0 199.000000 326.000000"
 preserveAspectRatio="xMidYMid meet">
<metadata>
Created by potrace 1.14, written by Peter Selinger 2001-2017
</metadata>
<g transform="translate(0.000000,326.000000) scale(0.100000,-0.100000)"
fill="#000000" stroke="none">
<path fill="#000000" stroke="none" d="M653 3235 c-50 -12 -131 -37 -180 -56
l-89 -33 -94 -175 -94 -176 13 -170 c27 -368 27 -357 -2 -401 -42 -63 -76
-222 -89 -409 l-10 -165 151 -231 c85 -129 151 -240 150 -252 0 -12 -6 -38
-12 -58 l-12 -37 -80 24 c-77 23 -84 28 -172 116 -69 69 -93 88 -93 73 -1 -11
-9 -82 -19 -158 l-17 -138 70 -278 71 -277 130 -217 130 -217 418 0 419 0 -20
33 c-11 17 -38 65 -61 105 l-41 74 0 208 0 209 -131 70 -132 69 98 101 c54 56
106 101 116 101 10 0 58 -9 108 -21 l91 -21 55 32 c30 17 55 35 55 38 0 4 -11
41 -24 82 l-24 75 -39 -1 c-21 -1 -72 -4 -115 -6 l-76 -5 -6 46 c-8 60 -8 57
5 196 16 175 3 246 -70 394 -32 64 -88 193 -125 286 l-68 171 46 76 c56 92
146 337 187 506 16 68 29 131 29 141 0 11 -28 45 -63 77 -76 71 -271 224 -283
223 -5 -1 -50 -11 -101 -24z"/>
<path fill="#000000" stroke="none" d="M1914 1436 c-25 -29 -98 -83 -198 -146
-144 -92 -164 -102 -222 -109 -35 -4 -66 -10 -70 -14 -5 -5 20 -97 33 -119 2
-5 21 0 41 11 20 10 136 44 257 76 121 32 223 61 228 65 7 6 -18 268 -26 277
-3 2 -22 -16 -43 -41z"/>
</g>
</svg>
