<?xml version="1.0" standalone="no"?>
<!DOCTYPE svg PUBLIC "-//W3C//DTD SVG 20010904//EN"
 "http://www.w3.org/TR/2001/REC-SVG-20010904/DTD/svg10.dtd">
<svg version="1.0" xmlns="http://www.w3.org/2000/svg"
 width="84.000000pt" height="256.000000pt" viewBox="0 0 84.000000 256.000000"
 preserveAspectRatio="xMidYMid meet">
<metadata>
Created by potrace 1.14, written by Peter Selinger 2001-2017
</metadata>
<g transform="translate(0.000000,256.000000) scale(0.100000,-0.100000)"
fill="#000000" stroke="none">
<path fill="#000000" stroke="none" d="M78 2540 c-48 -26 -63 -75 -60 -189 2
-45 -1 -88 -6 -95 -6 -6 -8 -448 -4 -1117 l5 -1106 36 -14 c20 -8 39 -15 42
-17 14 -6 83 105 95 153 16 65 33 357 36 615 1 174 -1 213 -16 258 -20 60 -17
100 15 172 13 29 20 63 18 95 -5 119 -4 124 49 146 81 35 105 74 62 101 -25
16 -26 67 -6 185 21 119 36 160 60 171 18 8 27 1 69 -52 26 -34 59 -82 72
-108 14 -25 47 -65 75 -89 27 -23 67 -65 89 -93 37 -49 40 -52 79 -48 34 3 41
8 45 30 5 22 -10 50 -70 140 -43 64 -90 123 -110 136 -35 24 -87 101 -113 166
-7 19 -31 70 -53 113 -45 88 -57 96 -187 127 -41 10 -65 19 -54 19 43 2 101
131 59 131 -12 0 -13 4 -5 19 16 30 12 96 -8 130 -15 27 -22 31 -62 31 -25 0
-61 2 -80 5 -24 4 -47 -1 -72 -15z"/>
</g>
</svg>
