<?xml version="1.0" standalone="no"?>
<!DOCTYPE svg PUBLIC "-//W3C//DTD SVG 20010904//EN"
 "http://www.w3.org/TR/2001/REC-SVG-20010904/DTD/svg10.dtd">
<svg version="1.0" xmlns="http://www.w3.org/2000/svg"
 width="31.000000pt" height="72.000000pt" viewBox="0 0 31.000000 72.000000"
 preserveAspectRatio="xMidYMid meet">
<metadata>
Created by potrace 1.14, written by Peter Selinger 2001-2017
</metadata>
<g transform="translate(0.000000,72.000000) scale(0.100000,-0.100000)"
fill="#000000" stroke="none">
<path fill="#000000" stroke="none" d="M75 707 c-16 -5 -31 -11 -32 -12 -2 -1
-12 -46 -24 -101 -19 -93 -20 -108 -9 -244 9 -106 18 -154 31 -178 13 -22 19
-53 19 -93 0 -55 2 -60 26 -69 26 -10 70 -4 90 12 7 5 15 46 19 93 5 58 11 85
21 89 8 3 14 -1 14 -9 0 -33 21 -22 50 27 35 61 35 96 -4 208 -13 36 -26 83
-30 104 -11 57 -45 143 -59 149 -7 3 -28 12 -47 20 -26 11 -43 12 -65 4z"/>
</g>
</svg>
