<?xml version="1.0" standalone="no"?>
<!DOCTYPE svg PUBLIC "-//W3C//DTD SVG 20010904//EN"
 "http://www.w3.org/TR/2001/REC-SVG-20010904/DTD/svg10.dtd">
<svg version="1.0" xmlns="http://www.w3.org/2000/svg"
 width="52.000000pt" height="54.000000pt" viewBox="0 0 52.000000 54.000000"
 preserveAspectRatio="xMidYMid meet">
<metadata>
Created by potrace 1.14, written by Peter Selinger 2001-2017
</metadata>
<g transform="translate(0.000000,54.000000) scale(0.100000,-0.100000)"
fill="#000000" stroke="none">
<path fill="#000000" stroke="none" d="M176 533 c-3 -4 -4 -33 0 -64 l6 -57
-41 -21 c-44 -23 -74 -70 -104 -166 -13 -42 -37 -180 -37 -217 0 -7 83 -9 250
-7 272 4 270 4 270 61 0 18 -13 42 -35 67 -20 22 -35 49 -35 63 0 58 -61 158
-96 158 -19 0 -23 39 -8 75 23 55 18 69 -31 93 -44 21 -124 30 -139 15z"/>
</g>
</svg>
