<?xml version="1.0" standalone="no"?>
<!DOCTYPE svg PUBLIC "-//W3C//DTD SVG 20010904//EN"
 "http://www.w3.org/TR/2001/REC-SVG-20010904/DTD/svg10.dtd">
<svg version="1.0" xmlns="http://www.w3.org/2000/svg"
 width="49.000000pt" height="86.000000pt" viewBox="0 0 49.000000 86.000000"
 preserveAspectRatio="xMidYMid meet">
<metadata>
Created by potrace 1.14, written by Peter Selinger 2001-2017
</metadata>
<g transform="translate(0.000000,86.000000) scale(0.100000,-0.100000)"
fill="#000000" stroke="none">
<path fill="#000000" stroke="none" d="M68 853 c-24 -4 -27 -10 -37 -67 -15
-84 -14 -90 11 -139 11 -23 29 -71 38 -107 16 -62 16 -67 -2 -109 -10 -24 -31
-99 -47 -168 -23 -98 -26 -123 -14 -119 50 20 181 81 179 84 -2 2 -29 -4 -61
-13 -31 -9 -58 -15 -60 -13 -2 2 25 24 61 48 l65 44 64 -65 c63 -62 65 -66 81
-147 l17 -82 32 0 c30 0 33 3 40 37 4 20 18 59 32 86 l24 49 -49 -7 c-37 -5
-51 -3 -54 7 -3 7 -18 91 -34 186 l-29 174 28 22 28 23 -12 141 -12 142 -131
-1 c-72 -1 -143 -4 -158 -6z"/>
</g>
</svg>
