<?xml version="1.0" standalone="no"?>
<!DOCTYPE svg PUBLIC "-//W3C//DTD SVG 20010904//EN"
 "http://www.w3.org/TR/2001/REC-SVG-20010904/DTD/svg10.dtd">
<svg version="1.0" xmlns="http://www.w3.org/2000/svg"
 width="198.000000pt" height="192.000000pt" viewBox="0 0 198.000000 192.000000"
 preserveAspectRatio="xMidYMid meet">
<metadata>
Created by potrace 1.14, written by Peter Selinger 2001-2017
</metadata>
<g transform="translate(0.000000,192.000000) scale(0.100000,-0.100000)"
fill="#000000" stroke="none">
<path fill="#000000" stroke="none" d="M81 1898 c-37 -96 -46 -115 -62 -133
-18 -21 -18 -21 82 -54 l101 -33 56 -78 57 -78 269 -158 c341 -201 336 -196
530 -557 l134 -252 7 -137 7 -137 131 -138 c72 -76 134 -139 137 -140 8 -4
171 287 166 296 -3 4 -33 25 -68 46 -35 21 -64 39 -65 39 -1 1 15 49 36 106
l38 105 64 27 64 27 29 143 c28 142 28 143 12 223 -9 44 -16 83 -16 87 0 4 18
13 40 19 22 7 44 17 49 23 8 10 87 389 93 445 3 20 -4 26 -52 43 l-55 19 -30
-33 c-16 -18 -48 -54 -70 -79 l-41 -47 -68 41 -68 41 -87 -13 c-47 -7 -107
-17 -132 -22 l-47 -10 -11 -60 c-12 -57 -13 -59 -43 -59 -27 0 -30 2 -22 23 4
12 9 74 11 137 l3 115 -46 28 c-43 26 -50 27 -102 17 -31 -5 -58 -10 -60 -10
-2 0 -1 -71 3 -159 l7 -158 -103 13 c-65 8 -160 31 -253 61 l-150 48 -118 109
c-100 92 -124 121 -163 191 -48 89 -57 95 -146 95 -32 0 -41 -4 -48 -22z"/>
</g>
</svg>
