<?xml version="1.0" standalone="no"?>
<!DOCTYPE svg PUBLIC "-//W3C//DTD SVG 20010904//EN"
 "http://www.w3.org/TR/2001/REC-SVG-20010904/DTD/svg10.dtd">
<svg version="1.0" xmlns="http://www.w3.org/2000/svg"
 width="5.000000pt" height="42.000000pt" viewBox="0 0 5.000000 42.000000"
 preserveAspectRatio="xMidYMid meet">
<metadata>
Created by potrace 1.14, written by Peter Selinger 2001-2017
</metadata>
<g transform="translate(0.000000,42.000000) scale(0.100000,-0.100000)"
fill="#000000" stroke="none">
<path fill="#000000" stroke="none" d="M0 373 c0 -39 4 -53 14 -53 18 0 19 63
0 87 -12 16 -13 12 -14 -34z"/>
<path fill="#000000" stroke="none" d="M2 151 c1 -141 2 -149 20 -142 16 6 19
20 23 83 2 42 0 91 -5 108 -6 21 -6 39 1 52 12 22 -3 48 -27 48 -11 0 -13 -29
-12 -149z"/>
</g>
</svg>
