<?xml version="1.0" standalone="no"?>
<!DOCTYPE svg PUBLIC "-//W3C//DTD SVG 20010904//EN"
 "http://www.w3.org/TR/2001/REC-SVG-20010904/DTD/svg10.dtd">
<svg version="1.0" xmlns="http://www.w3.org/2000/svg"
 width="126.000000pt" height="121.000000pt" viewBox="0 0 126.000000 121.000000"
 preserveAspectRatio="xMidYMid meet">
<metadata>
Created by potrace 1.14, written by Peter Selinger 2001-2017
</metadata>
<g transform="translate(0.000000,121.000000) scale(0.100000,-0.100000)"
fill="#000000" stroke="none">
<path fill="#000000" stroke="none" d="M547 1199 c-33 -19 -48 -64 -37 -111
14 -63 12 -76 -13 -90 -13 -7 -47 -28 -75 -47 -79 -51 -132 -149 -132 -243 0
-37 0 -37 30 -26 39 13 60 44 54 77 -6 29 17 57 51 63 19 3 20 -2 17 -87 -4
-136 -1 -130 -84 -149 -40 -10 -101 -24 -135 -32 -34 -7 -71 -14 -83 -14 -11
0 -28 -8 -39 -19 -16 -16 -18 -29 -14 -92 3 -41 15 -125 28 -186 24 -120 23
-123 -25 -138 -27 -8 -90 -56 -90 -67 0 -11 53 -35 70 -32 8 2 45 6 83 9 62 6
69 9 82 36 12 22 13 34 4 50 -10 20 -52 310 -45 316 2 2 49 6 104 10 l101 6 4
-34 c3 -19 10 -67 16 -107 6 -40 11 -88 11 -108 0 -28 4 -35 18 -32 20 3 53
95 73 200 11 59 15 68 34 68 11 0 26 5 33 12 7 7 32 11 57 9 40 -2 45 0 45 18
0 11 10 49 23 83 13 35 34 100 46 145 31 108 47 122 151 135 76 10 86 9 139
-12 31 -13 63 -29 72 -37 23 -19 97 -2 120 29 17 22 17 23 -4 35 -12 6 -49 15
-81 18 -58 7 -177 51 -226 84 -33 22 -69 38 -154 67 -93 32 -116 54 -116 114
0 36 -5 52 -23 68 -25 23 -61 28 -90 11z"/>
</g>
</svg>
