<?xml version="1.0" standalone="no"?>
<!DOCTYPE svg PUBLIC "-//W3C//DTD SVG 20010904//EN"
 "http://www.w3.org/TR/2001/REC-SVG-20010904/DTD/svg10.dtd">
<svg version="1.0" xmlns="http://www.w3.org/2000/svg"
 width="160.000000pt" height="219.000000pt" viewBox="0 0 160.000000 219.000000"
 preserveAspectRatio="xMidYMid meet">
<metadata>
Created by potrace 1.14, written by Peter Selinger 2001-2017
</metadata>
<g transform="translate(0.000000,219.000000) scale(0.100000,-0.100000)"
fill="#000000" stroke="none">
<path fill="#000000" stroke="none" d="M240 2171 c16 -32 30 -34 30 -7 0 19
-5 26 -20 26 -17 0 -19 -3 -10 -19z"/>
<path fill="#000000" stroke="none" d="M1147 2110 c-4 -47 -7 -120 -7 -162 l0
-78 -118 -59 c-109 -55 -134 -63 -300 -97 l-182 -37 -112 109 c-111 107 -113
110 -122 167 -5 31 -12 57 -15 57 -3 0 -69 -123 -147 -273 l-141 -272 36 -13
c19 -7 48 -15 63 -17 22 -4 358 -131 365 -138 0 -1 -14 -150 -33 -332 -35
-349 -35 -361 1 -582 6 -32 6 -32 -27 -22 -18 5 -34 9 -35 9 -1 0 -18 -186
-18 -208 0 -7 58 -46 130 -87 104 -59 131 -71 133 -57 11 72 38 528 32 532 -5
3 -11 43 -15 89 -8 83 -8 83 14 72 19 -10 21 -9 21 11 1 54 48 649 52 653 2 2
52 1 112 -2 97 -6 109 -8 116 -27 5 -12 55 -298 111 -636 56 -338 104 -617
106 -619 3 -4 420 117 431 125 2 1 -8 24 -21 51 l-25 48 -93 10 -93 10 -98
525 c-53 289 -97 531 -98 539 0 11 13 12 65 6 36 -3 65 -5 65 -3 0 2 -33 181
-74 398 l-73 395 -6 -85z"/>
</g>
</svg>
