<?xml version="1.0" standalone="no"?>
<!DOCTYPE svg PUBLIC "-//W3C//DTD SVG 20010904//EN"
 "http://www.w3.org/TR/2001/REC-SVG-20010904/DTD/svg10.dtd">
<svg version="1.0" xmlns="http://www.w3.org/2000/svg"
 width="58.000000pt" height="214.000000pt" viewBox="0 0 58.000000 214.000000"
 preserveAspectRatio="xMidYMid meet">
<metadata>
Created by potrace 1.14, written by Peter Selinger 2001-2017
</metadata>
<g transform="translate(0.000000,214.000000) scale(0.100000,-0.100000)"
fill="#000000" stroke="none">
<path fill="#000000" stroke="none" d="M47 2133 c-2 -5 -12 -39 -21 -78 l-16
-70 28 -90 29 -90 37 -3 c31 -3 36 -6 31 -20 -36 -89 -47 -143 -70 -342 -15
-124 -35 -274 -46 -333 -19 -108 -19 -119 7 -209 4 -13 16 -18 38 -18 l33 0
33 -307 34 -308 -72 -97 c-40 -53 -72 -101 -72 -106 0 -5 30 -12 68 -16 37 -4
103 -16 147 -28 68 -17 99 -19 208 -15 71 3 131 8 134 10 2 3 -3 22 -12 43
-11 26 -29 170 -56 434 l-39 395 23 20 c12 11 34 28 47 37 l25 17 -52 100 -52
100 41 128 c22 70 40 137 40 148 0 11 -32 94 -72 185 -55 128 -79 172 -107
198 l-37 32 24 100 24 100 -44 45 -44 45 -117 0 c-65 0 -120 -3 -122 -7z"/>
</g>
</svg>
