<?xml version="1.0" standalone="no"?>
<!DOCTYPE svg PUBLIC "-//W3C//DTD SVG 20010904//EN"
 "http://www.w3.org/TR/2001/REC-SVG-20010904/DTD/svg10.dtd">
<svg version="1.0" xmlns="http://www.w3.org/2000/svg"
 width="55.000000pt" height="81.000000pt" viewBox="0 0 55.000000 81.000000"
 preserveAspectRatio="xMidYMid meet">
<metadata>
Created by potrace 1.14, written by Peter Selinger 2001-2017
</metadata>
<g transform="translate(0.000000,81.000000) scale(0.100000,-0.100000)"
fill="#000000" stroke="none">
<path fill="#000000" stroke="none" d="M232 758 c-45 -61 -61 -128 -36 -148
13 -12 10 -18 -25 -54 -37 -38 -43 -51 -76 -185 -19 -80 -35 -170 -35 -201 0
-47 -5 -63 -30 -96 -16 -21 -30 -42 -30 -46 0 -5 27 -8 61 -8 33 0 68 -4 78
-9 13 -8 27 -1 62 28 24 21 87 57 139 81 52 23 121 58 153 77 l57 34 0 82 c-1
45 -6 109 -13 142 -11 53 -18 63 -57 93 -49 37 -57 55 -59 119 -1 54 -37 130
-65 137 -61 16 -84 8 -124 -46z"/>
</g>
</svg>
