<?xml version="1.0" standalone="no"?>
<!DOCTYPE svg PUBLIC "-//W3C//DTD SVG 20010904//EN"
 "http://www.w3.org/TR/2001/REC-SVG-20010904/DTD/svg10.dtd">
<svg version="1.0" xmlns="http://www.w3.org/2000/svg"
 width="32.000000pt" height="36.000000pt" viewBox="0 0 32.000000 36.000000"
 preserveAspectRatio="xMidYMid meet">
<metadata>
Created by potrace 1.14, written by Peter Selinger 2001-2017
</metadata>
<g transform="translate(0.000000,36.000000) scale(0.100000,-0.100000)"
fill="#000000" stroke="none">
<path fill="#000000" stroke="none" d="M83 333 c-9 -16 -29 -42 -45 -59 -24
-26 -30 -42 -35 -102 -5 -63 -3 -77 18 -117 21 -39 28 -45 59 -47 78 -3 145 5
166 20 20 16 19 17 -55 40 -42 13 -83 31 -91 38 -8 8 -27 24 -43 35 -15 11
-24 25 -21 31 11 17 69 1 167 -45 51 -24 98 -42 105 -39 6 2 12 16 12 32 0 31
-30 59 -104 95 -37 18 -41 24 -46 66 -9 79 -53 105 -87 52z"/>
</g>
</svg>
