<?xml version="1.0" standalone="no"?>
<!DOCTYPE svg PUBLIC "-//W3C//DTD SVG 20010904//EN"
 "http://www.w3.org/TR/2001/REC-SVG-20010904/DTD/svg10.dtd">
<svg version="1.0" xmlns="http://www.w3.org/2000/svg"
 width="88.000000pt" height="127.000000pt" viewBox="0 0 88.000000 127.000000"
 preserveAspectRatio="xMidYMid meet">
<metadata>
Created by potrace 1.14, written by Peter Selinger 2001-2017
</metadata>
<g transform="translate(0.000000,127.000000) scale(0.100000,-0.100000)"
fill="#000000" stroke="none">
<path fill="#000000" stroke="none" d="M123 1260 c-28 -11 -29 -39 -6 -137
l16 -72 -24 -30 c-13 -16 -43 -51 -65 -78 l-41 -48 13 -45 13 -45 51 3 c55 4
51 -3 35 77 -5 23 -2 25 29 25 37 0 40 -4 51 -95 4 -34 1 -64 -9 -93 -12 -33
-13 -48 -4 -68 l11 -24 29 27 c15 14 29 25 31 22 2 -2 9 -62 16 -134 10 -110
9 -153 -5 -280 -24 -227 -27 -265 -19 -265 5 0 42 12 83 28 l75 27 -5 151 c-5
145 -4 152 18 189 13 21 33 44 45 51 21 11 29 4 120 -105 54 -64 134 -154 177
-200 l79 -85 21 85 21 84 -24 25 c-13 14 -34 45 -47 70 -23 44 -168 233 -188
245 -5 3 -24 52 -41 108 -46 149 -86 229 -193 391 -86 129 -102 147 -151 175
-57 32 -75 36 -112 21z"/>
</g>
</svg>
