<?xml version="1.0" standalone="no"?>
<!DOCTYPE svg PUBLIC "-//W3C//DTD SVG 20010904//EN"
 "http://www.w3.org/TR/2001/REC-SVG-20010904/DTD/svg10.dtd">
<svg version="1.0" xmlns="http://www.w3.org/2000/svg"
 width="202.000000pt" height="290.000000pt" viewBox="0 0 202.000000 290.000000"
 preserveAspectRatio="xMidYMid meet">
<metadata>
Created by potrace 1.14, written by Peter Selinger 2001-2017
</metadata>
<g transform="translate(0.000000,290.000000) scale(0.100000,-0.100000)"
fill="#000000" stroke="none">
<path fill="#000000" stroke="none" d="M1435 2872 c-33 -16 -73 -40 -90 -54
-16 -14 -58 -39 -91 -56 -67 -34 -133 -102 -173 -178 l-25 -46 71 -70 72 -69
-35 -107 c-35 -104 -35 -109 -27 -201 6 -63 5 -94 -2 -97 -35 -13 -344 -84
-365 -84 -14 0 -160 33 -325 74 -165 40 -324 77 -354 80 l-55 7 135 -128 c74
-71 161 -154 194 -185 l60 -56 230 -41 c127 -23 242 -44 258 -47 23 -5 27 -10
27 -42 0 -36 -2 -38 -52 -56 -52 -18 -147 -75 -148 -88 0 -3 23 -23 50 -43 28
-20 50 -39 50 -42 0 -2 -25 -1 -56 3 -33 4 -109 29 -182 61 -89 38 -162 62
-246 79 -66 13 -144 32 -173 41 l-54 17 -54 -55 -54 -54 -11 -99 -11 -98 201
-429 c111 -236 199 -432 196 -437 -3 -5 -74 -61 -159 -126 l-153 -118 9 -62
c5 -33 10 -62 12 -64 4 -5 799 200 808 208 12 11 -92 166 -219 327 -63 79
-112 143 -110 143 3 0 76 -52 163 -115 l158 -116 145 7 c80 3 194 9 253 13
l109 6 300 560 c166 308 301 567 300 575 0 14 -137 624 -148 662 -4 15 3 14
53 -8 104 -47 105 -47 92 -22 -7 12 -26 45 -44 73 -17 27 -39 70 -49 95 -10
25 -55 115 -101 200 l-84 155 -111 68 c-61 37 -114 67 -118 67 -4 0 -34 -13
-67 -28z"/>
<path fill="#ffffff" stroke="none" d="M1295 2337 c16 -44 16 -50 2 -64 -19
-19 -31 -12 -62 38 -32 49 -31 70 3 121 l27 42 6 -45 c4 -24 14 -66 24 -92z"/>
</g>
</svg>
