<?xml version="1.0" standalone="no"?>
<!DOCTYPE svg PUBLIC "-//W3C//DTD SVG 20010904//EN"
 "http://www.w3.org/TR/2001/REC-SVG-20010904/DTD/svg10.dtd">
<svg version="1.0" xmlns="http://www.w3.org/2000/svg"
 width="62.000000pt" height="224.000000pt" viewBox="0 0 62.000000 224.000000"
 preserveAspectRatio="xMidYMid meet">
<metadata>
Created by potrace 1.14, written by Peter Selinger 2001-2017
</metadata>
<g transform="translate(0.000000,224.000000) scale(0.100000,-0.100000)"
fill="#000000" stroke="none">
<path fill="#000000" stroke="none" d="M65 2224 c-11 -9 -27 -21 -36 -27 -16
-11 -15 -21 2 -122 17 -95 18 -122 8 -200 -6 -49 -13 -213 -14 -363 l-3 -274
34 -131 c29 -109 41 -192 71 -480 l37 -347 -40 -41 c-21 -22 -56 -49 -77 -60
-20 -11 -37 -23 -37 -28 0 -5 -2 -16 -6 -24 -3 -9 12 -25 46 -47 28 -18 58
-44 67 -57 20 -30 75 -30 200 0 80 20 96 28 116 54 l23 31 -13 144 c-8 78 -13
230 -13 335 l0 193 60 146 c33 81 60 158 60 172 0 13 5 52 11 86 7 40 8 89 2
141 -9 79 -8 81 24 143 29 56 33 73 33 142 0 64 -6 95 -35 175 -47 128 -42
122 -133 199 -77 66 -79 70 -90 129 -9 46 -19 69 -44 94 l-32 33 -100 0 c-76
-1 -106 -5 -121 -16z"/>
</g>
</svg>
