<?xml version="1.0" standalone="no"?>
<!DOCTYPE svg PUBLIC "-//W3C//DTD SVG 20010904//EN"
 "http://www.w3.org/TR/2001/REC-SVG-20010904/DTD/svg10.dtd">
<svg version="1.0" xmlns="http://www.w3.org/2000/svg"
 width="103.000000pt" height="127.000000pt" viewBox="0 0 103.000000 127.000000"
 preserveAspectRatio="xMidYMid meet">
<metadata>
Created by potrace 1.14, written by Peter Selinger 2001-2017
</metadata>
<g transform="translate(0.000000,127.000000) scale(0.100000,-0.100000)"
fill="#000000" stroke="none">
<path fill="#000000" stroke="none" d="M85 1260 c-27 -11 -61 -49 -73 -80 -9
-23 -6 -28 29 -48 26 -15 39 -30 40 -45 4 -83 8 -106 21 -141 9 -21 33 -54 54
-72 l39 -33 -29 -24 c-29 -23 -29 -25 -19 -77 13 -65 -2 -93 -56 -106 -33 -8
-35 -13 -47 -69 -10 -51 -9 -65 4 -90 8 -16 18 -32 22 -35 4 -3 28 -46 53 -96
25 -49 52 -95 59 -102 11 -9 26 -7 66 8 29 11 64 20 78 20 13 0 44 10 67 22
23 12 73 27 110 33 l68 12 14 -28 15 -28 -68 -31 c-37 -17 -89 -41 -116 -54
l-50 -23 135 3 c74 1 155 5 180 9 36 5 53 3 73 -10 41 -27 34 -85 -14 -110
-21 -11 -27 -20 -23 -35 14 -53 52 -30 87 54 27 62 31 66 80 85 29 11 69 23
89 26 21 4 39 10 41 14 3 4 6 35 7 71 l3 64 -70 29 c-55 23 -209 54 -278 57
-6 0 5 15 22 33 21 21 30 39 27 50 -5 12 3 18 32 26 21 6 43 11 49 11 15 0 24
92 10 103 -6 4 -29 6 -51 3 -22 -3 -34 -3 -27 0 6 3 12 15 12 26 0 19 -2 20
-17 6 -36 -30 -45 -30 -22 1 12 17 28 31 35 31 6 0 14 11 16 24 4 21 2 23 -26
16 -36 -8 -96 -37 -162 -80 l-47 -29 -53 70 c-32 42 -55 85 -59 108 -5 29 -14
41 -42 57 l-36 19 29 5 c28 5 29 8 34 67 3 34 10 67 16 73 8 8 6 21 -7 48 -11
20 -19 41 -19 48 0 6 -18 32 -40 56 -29 34 -51 48 -84 57 -52 13 -152 14 -181
1z"/>
</g>
</svg>
