<?xml version="1.0" standalone="no"?>
<!DOCTYPE svg PUBLIC "-//W3C//DTD SVG 20010904//EN"
 "http://www.w3.org/TR/2001/REC-SVG-20010904/DTD/svg10.dtd">
<svg version="1.0" xmlns="http://www.w3.org/2000/svg"
 width="26.000000pt" height="24.000000pt" viewBox="0 0 26.000000 24.000000"
 preserveAspectRatio="xMidYMid meet">
<metadata>
Created by potrace 1.14, written by Peter Selinger 2001-2017
</metadata>
<g transform="translate(0.000000,24.000000) scale(0.100000,-0.100000)"
fill="#000000" stroke="none">
<path fill="#000000" stroke="none" d="M85 233 c-59 -6 -78 -28 -71 -80 3 -23
1 -45 -4 -48 -16 -10 -11 -61 8 -77 28 -24 48 -27 77 -12 15 8 35 14 45 14 10
0 23 7 30 15 7 8 18 15 25 15 22 0 65 60 65 90 0 16 -11 42 -26 59 -27 33 -40
35 -149 24z"/>
</g>
</svg>
