<?xml version="1.0" standalone="no"?>
<!DOCTYPE svg PUBLIC "-//W3C//DTD SVG 20010904//EN"
 "http://www.w3.org/TR/2001/REC-SVG-20010904/DTD/svg10.dtd">
<svg version="1.0" xmlns="http://www.w3.org/2000/svg"
 width="223.000000pt" height="427.000000pt" viewBox="0 0 223.000000 427.000000"
 preserveAspectRatio="xMidYMid meet">
<metadata>
Created by potrace 1.14, written by Peter Selinger 2001-2017
</metadata>
<g transform="translate(0.000000,427.000000) scale(0.100000,-0.100000)"
fill="#000000" stroke="none">
<path fill="#000000" stroke="none" d="M65 4260 c-3 -5 -18 -10 -31 -10 -32 0
-27 -24 5 -28 21 -3 70 -47 71 -63 0 -3 -25 -4 -55 -1 -44 4 -55 2 -55 -11 0
-9 12 -17 33 -20 71 -11 126 -41 172 -96 25 -30 44 -60 41 -67 -5 -12 16 -193
33 -289 5 -27 28 -108 50 -180 33 -102 44 -156 52 -255 8 -94 19 -151 44 -229
24 -73 31 -109 24 -117 -11 -14 -3 -176 13 -237 33 -133 46 -393 31 -656 l-6
-123 -43 -31 c-35 -26 -48 -45 -66 -96 -18 -50 -29 -67 -54 -78 -41 -20 -60
-56 -67 -128 -4 -33 -31 -161 -62 -285 -30 -124 -56 -241 -57 -261 -1 -24 10
-55 32 -95 18 -32 50 -91 72 -131 25 -47 60 -92 102 -130 35 -32 91 -91 126
-131 56 -65 62 -76 56 -105 -4 -17 -8 -48 -9 -68 -3 -50 -18 -64 -111 -111
-108 -54 -117 -62 -104 -98 8 -25 18 -31 77 -44 60 -14 83 -14 207 -1 80 8
180 26 235 42 l97 28 -23 45 c-12 25 -32 75 -44 112 -19 58 -26 67 -51 73 -39
8 -103 109 -140 221 -35 103 -99 215 -157 275 -36 37 -42 49 -31 55 8 5 37 50
63 99 71 132 163 274 209 323 22 23 43 42 46 42 18 0 66 -101 141 -299 l85
-226 65 -3 64 -4 67 -76 c37 -43 93 -111 125 -154 32 -42 88 -109 124 -150 55
-61 70 -86 94 -156 33 -95 32 -98 -44 -197 l-37 -50 20 -31 c18 -28 27 -33 93
-42 62 -8 83 -7 136 8 34 10 81 24 104 30 67 17 70 34 26 151 -33 87 -42 102
-69 114 -26 11 -41 34 -96 146 -36 74 -78 170 -92 214 -34 104 -78 161 -165
220 l-72 47 19 31 18 32 -58 189 c-32 104 -62 194 -68 200 -5 5 -10 21 -10 35
0 15 -12 64 -25 110 -17 59 -25 109 -25 164 0 60 -4 85 -18 105 -18 25 -18 41
-11 242 10 249 23 384 46 492 15 72 19 79 59 108 24 17 63 40 88 50 28 13 46
28 50 43 6 26 181 148 311 217 44 23 123 77 175 120 52 42 109 85 125 95 17
10 42 29 56 42 23 21 29 22 53 12 24 -11 29 -10 56 16 43 41 40 72 -15 133
-54 60 -80 61 -71 3 10 -60 -19 -79 -55 -36 -17 19 -17 19 -70 -10 -30 -15
-73 -45 -96 -65 -23 -20 -75 -49 -115 -65 -52 -20 -89 -43 -128 -80 -48 -45
-62 -52 -108 -58 -35 -4 -67 -16 -97 -37 -49 -34 -92 -44 -265 -60 -58 -6
-117 -13 -132 -16 -26 -6 -28 -4 -28 27 0 19 5 77 12 131 14 116 5 157 -50
221 -20 24 -46 57 -58 73 l-21 28 -76 -10 c-45 -7 -90 -21 -112 -34 -78 -48
-99 -175 -49 -305 6 -16 1 -15 -23 8 -32 30 -53 84 -77 198 -8 37 -23 80 -35
95 -12 16 -32 76 -46 134 -14 58 -34 134 -44 170 -11 36 -29 99 -41 140 -12
41 -31 93 -41 114 -11 22 -19 57 -19 78 0 26 -6 40 -19 47 -10 6 -34 26 -54
46 -19 19 -42 35 -50 35 -8 0 -18 11 -21 24 -3 13 -24 40 -46 60 -39 35 -73
46 -85 26z"/>
</g>
</svg>
