<?xml version="1.0" standalone="no"?>
<!DOCTYPE svg PUBLIC "-//W3C//DTD SVG 20010904//EN"
 "http://www.w3.org/TR/2001/REC-SVG-20010904/DTD/svg10.dtd">
<svg version="1.0" xmlns="http://www.w3.org/2000/svg"
 width="68.000000pt" height="136.000000pt" viewBox="0 0 68.000000 136.000000"
 preserveAspectRatio="xMidYMid meet">
<metadata>
Created by potrace 1.14, written by Peter Selinger 2001-2017
</metadata>
<g transform="translate(0.000000,136.000000) scale(0.100000,-0.100000)"
fill="#000000" stroke="none">
<path fill="#000000" stroke="none" d="M318 1340 c-51 -28 -69 -86 -66 -215
l3 -98 -81 -48 -80 -47 -22 -122 -23 -122 46 -49 c25 -26 45 -51 45 -55 0 -3
-23 -45 -52 -92 -47 -79 -53 -97 -68 -192 l-16 -105 40 -100 41 -100 11 70 c6
39 19 102 29 140 16 61 24 75 64 108 59 49 181 197 181 219 0 9 -32 45 -71 81
-61 55 -71 70 -76 106 -5 35 -2 44 19 61 20 15 26 31 32 81 3 34 8 64 11 67 8
8 67 -18 103 -46 22 -17 60 -33 92 -40 l55 -11 37 42 37 42 11 -30 c12 -32 10
-50 -11 -101 -11 -27 -9 -38 11 -87 13 -31 26 -55 28 -52 3 2 11 37 18 77 l12
73 -67 141 c-38 78 -83 190 -101 250 -18 60 -37 115 -43 122 -13 17 -82 52
-99 52 -7 -1 -29 -10 -50 -20z"/>
<path fill="#000000" stroke="none" d="M610 440 c-13 -8 -9 -21 25 -86 l40
-77 3 56 c2 46 -1 62 -19 87 -25 33 -27 34 -49 20z"/>
</g>
</svg>
