<?xml version="1.0" standalone="no"?>
<!DOCTYPE svg PUBLIC "-//W3C//DTD SVG 20010904//EN"
 "http://www.w3.org/TR/2001/REC-SVG-20010904/DTD/svg10.dtd">
<svg version="1.0" xmlns="http://www.w3.org/2000/svg"
 width="50.000000pt" height="391.000000pt" viewBox="0 0 50.000000 391.000000"
 preserveAspectRatio="xMidYMid meet">
<metadata>
Created by potrace 1.14, written by Peter Selinger 2001-2017
</metadata>
<g transform="translate(0.000000,391.000000) scale(0.100000,-0.100000)"
fill="#000000" stroke="none">
<path fill="#000000" stroke="none" d="M430 3888 c-25 -11 -80 -54 -122 -96
l-78 -77 0 -152 0 -153 60 -146 c34 -81 60 -147 58 -148 -2 -2 -49 -38 -106
-80 -73 -56 -102 -84 -102 -100 0 -11 21 -162 47 -334 44 -296 46 -314 32
-360 l-15 -47 -76 -3 c-90 -3 -85 6 -95 -178 -6 -119 -5 -121 18 -137 13 -10
27 -17 31 -17 4 0 56 45 115 100 60 55 109 96 111 91 8 -25 -60 -346 -153
-721 l-104 -415 -26 -270 c-21 -223 -23 -272 -12 -280 7 -5 117 -90 244 -187
128 -98 234 -178 237 -178 3 0 6 880 6 1955 0 1558 -3 1955 -12 1954 -7 0 -33
-10 -58 -21z"/>
</g>
</svg>
