<?xml version="1.0" standalone="no"?>
<!DOCTYPE svg PUBLIC "-//W3C//DTD SVG 20010904//EN"
 "http://www.w3.org/TR/2001/REC-SVG-20010904/DTD/svg10.dtd">
<svg version="1.0" xmlns="http://www.w3.org/2000/svg"
 width="22.000000pt" height="149.000000pt" viewBox="0 0 22.000000 149.000000"
 preserveAspectRatio="xMidYMid meet">
<metadata>
Created by potrace 1.14, written by Peter Selinger 2001-2017
</metadata>
<g transform="translate(0.000000,149.000000) scale(0.100000,-0.100000)"
fill="#000000" stroke="none">
<path fill="#000000" stroke="none" d="M199 1403 c-10 -60 -12 -98 -5 -120 17
-62 26 -33 26 87 0 66 -2 120 -4 120 -1 0 -10 -39 -17 -87z"/>
<path fill="#000000" stroke="none" d="M134 660 c-42 -9 -54 -18 -64 -46 -12
-30 2 -69 37 -106 23 -24 24 -28 9 -34 -9 -3 -23 -19 -32 -35 -11 -22 -22 -29
-44 -29 -33 0 -37 -10 -38 -94 0 -36 5 -68 14 -82 10 -15 12 -24 5 -29 -22
-13 -10 -45 26 -72 21 -15 49 -42 64 -58 15 -17 45 -40 68 -53 l41 -23 0 324
0 325 -27 9 c-16 5 -42 6 -59 3z"/>
</g>
</svg>
