<?xml version="1.0" standalone="no"?>
<!DOCTYPE svg PUBLIC "-//W3C//DTD SVG 20010904//EN"
 "http://www.w3.org/TR/2001/REC-SVG-20010904/DTD/svg10.dtd">
<svg version="1.0" xmlns="http://www.w3.org/2000/svg"
 width="223.000000pt" height="479.000000pt" viewBox="0 0 223.000000 479.000000"
 preserveAspectRatio="xMidYMid meet">
<metadata>
Created by potrace 1.14, written by Peter Selinger 2001-2017
</metadata>
<g transform="translate(0.000000,479.000000) scale(0.100000,-0.100000)"
fill="#000000" stroke="none">
<path fill="#000000" stroke="none" d="M770 4774 c-327 -6 -635 -12 -684 -13
l-88 -1 6 -1657 7 -1658 30 -480 c17 -264 32 -480 33 -481 0 0 144 -109 318
-242 l317 -242 350 0 350 0 -42 90 c-26 56 -91 159 -174 274 -143 197 -224
282 -400 420 l-101 80 -6 85 c-3 47 -9 175 -12 285 l-7 199 69 -7 c38 -4 88
-9 110 -12 41 -6 42 -5 50 28 4 18 7 37 6 42 -2 4 2 14 8 22 17 19 70 165 70
191 0 12 4 25 10 28 20 12 8 38 -100 205 l-110 170 0 95 c0 52 3 95 7 95 26 0
385 -145 524 -212 l170 -82 230 45 c127 24 234 46 238 49 5 3 51 64 104 135
l96 130 -47 14 c-56 16 -59 18 -44 33 8 8 21 6 51 -6 23 -9 41 -12 41 -8 0 4
-9 48 -21 99 -24 102 -15 94 -124 109 -38 5 -75 22 -154 73 l-104 66 169 8
c220 10 222 11 271 58 l43 40 -90 108 -90 109 0 72 c0 58 -4 75 -17 86 -17 12
-17 14 1 27 17 13 19 23 13 103 -3 49 -15 112 -25 139 -20 51 -20 143 0 114 8
-13 2 158 -7 207 -6 26 -140 139 -191 160 -20 9 -45 13 -55 11 -13 -4 -23 9
-42 57 -14 33 -29 81 -32 106 -4 25 -20 90 -36 144 -28 96 -29 108 -29 303 l0
203 -132 -2 c-73 0 -401 -7 -728 -14z"/>
</g>
</svg>
