<?xml version="1.0" standalone="no"?>
<!DOCTYPE svg PUBLIC "-//W3C//DTD SVG 20010904//EN"
 "http://www.w3.org/TR/2001/REC-SVG-20010904/DTD/svg10.dtd">
<svg version="1.0" xmlns="http://www.w3.org/2000/svg"
 width="86.000000pt" height="146.000000pt" viewBox="0 0 86.000000 146.000000"
 preserveAspectRatio="xMidYMid meet">
<metadata>
Created by potrace 1.14, written by Peter Selinger 2001-2017
</metadata>
<g transform="translate(0.000000,146.000000) scale(0.100000,-0.100000)"
fill="#000000" stroke="none">
<path fill="#000000" stroke="none" d="M80 1433 c-6 -16 -14 -66 -17 -113 -4
-70 -11 -95 -35 -138 l-29 -53 32 -30 c23 -22 41 -29 70 -29 44 0 54 12 64 83
4 28 12 47 20 47 17 0 28 31 16 43 -6 6 3 26 22 53 21 29 33 40 38 32 3 -7 14
-56 24 -108 9 -52 30 -126 47 -165 89 -206 88 -202 88 -293 0 -64 -8 -114 -31
-201 -37 -138 -45 -154 -116 -248 -52 -69 -81 -133 -68 -152 10 -17 165 -131
193 -143 34 -14 174 -10 184 5 4 7 38 10 96 8 52 -1 92 2 96 7 13 21 -9 44
-81 83 -88 49 -103 73 -103 163 0 52 12 102 61 253 55 172 62 204 81 373 12
102 23 187 25 189 1 2 9 -2 17 -8 12 -10 22 -8 50 14 l35 26 -5 142 c-3 78 -7
152 -10 165 l-4 22 -374 0 -373 0 -13 -27z"/>
</g>
</svg>
