<?xml version="1.0" standalone="no"?>
<!DOCTYPE svg PUBLIC "-//W3C//DTD SVG 20010904//EN"
 "http://www.w3.org/TR/2001/REC-SVG-20010904/DTD/svg10.dtd">
<svg version="1.0" xmlns="http://www.w3.org/2000/svg"
 width="16.000000pt" height="34.000000pt" viewBox="0 0 16.000000 34.000000"
 preserveAspectRatio="xMidYMid meet">
<metadata>
Created by potrace 1.14, written by Peter Selinger 2001-2017
</metadata>
<g transform="translate(0.000000,34.000000) scale(0.100000,-0.100000)"
fill="#000000" stroke="none">
<path fill="#000000" stroke="none" d="M65 329 c-3 -8 -18 -50 -34 -94 l-29
-80 41 -77 c23 -43 44 -78 47 -77 3 0 17 26 31 57 25 54 26 61 17 126 -9 58
-8 73 6 96 16 28 15 28 -12 38 -15 5 -35 13 -44 17 -11 4 -20 2 -23 -6z"/>
</g>
</svg>
