<?xml version="1.0" standalone="no"?>
<!DOCTYPE svg PUBLIC "-//W3C//DTD SVG 20010904//EN"
 "http://www.w3.org/TR/2001/REC-SVG-20010904/DTD/svg10.dtd">
<svg version="1.0" xmlns="http://www.w3.org/2000/svg"
 width="49.000000pt" height="117.000000pt" viewBox="0 0 49.000000 117.000000"
 preserveAspectRatio="xMidYMid meet">
<metadata>
Created by potrace 1.14, written by Peter Selinger 2001-2017
</metadata>
<g transform="translate(0.000000,117.000000) scale(0.100000,-0.100000)"
fill="#000000" stroke="none">
<path fill="#000000" stroke="none" d="M130 1153 c-37 -25 -48 -43 -55 -89 -3
-23 -20 -63 -38 -90 -29 -45 -32 -55 -30 -124 0 -41 6 -140 13 -220 7 -80 11
-174 11 -209 -2 -57 8 -100 39 -176 15 -35 22 -78 27 -152 l5 -73 36 0 37 0
-8 97 c-11 146 -16 406 -7 422 13 25 66 -111 99 -255 18 -76 35 -149 38 -161
4 -17 12 -23 33 -23 23 0 30 -6 35 -27 14 -62 82 -97 114 -59 17 20 -3 92 -29
106 -16 9 -20 21 -20 67 0 45 -7 70 -35 124 -19 38 -35 78 -35 91 0 13 -7 57
-16 98 -17 81 -20 240 -5 268 6 11 4 44 -4 90 -10 62 -18 79 -49 111 -26 26
-40 54 -51 96 -11 41 -24 67 -43 82 -32 27 -31 27 -62 6z"/>
</g>
</svg>
