<?xml version="1.0" standalone="no"?>
<!DOCTYPE svg PUBLIC "-//W3C//DTD SVG 20010904//EN"
 "http://www.w3.org/TR/2001/REC-SVG-20010904/DTD/svg10.dtd">
<svg version="1.0" xmlns="http://www.w3.org/2000/svg"
 width="586.000000pt" height="342.000000pt" viewBox="0 0 586.000000 342.000000"
 preserveAspectRatio="xMidYMid meet">
<metadata>
Created by potrace 1.14, written by Peter Selinger 2001-2017
</metadata>
<g transform="translate(0.000000,342.000000) scale(0.100000,-0.100000)"
fill="#000000" stroke="none">
<path fill="#000000" stroke="none" d="M0 3362 c0 -57 1 -59 43 -89 l42 -31
193 -502 194 -503 246 -381 246 -381 87 -230 c47 -126 108 -296 134 -377 l49
-146 135 -125 136 -125 128 -220 129 -220 241 -6 c443 -11 1960 -27 1966 -21
3 4 22 61 42 128 l35 122 272 9 271 9 474 491 474 491 155 94 155 94 7 120 c3
66 6 159 6 206 -1 85 -1 86 -39 128 l-38 42 -124 -97 c-68 -53 -374 -331 -679
-617 l-556 -520 -169 3 -170 4 -635 260 -635 260 -159 -9 -159 -8 -77 100
c-63 81 -95 138 -174 305 -80 170 -107 238 -152 395 -30 105 -56 195 -58 201
-3 7 -31 7 -92 1 -82 -8 -100 -7 -235 24 l-146 32 -28 44 c-15 25 -43 54 -61
66 -23 15 -35 32 -39 57 -4 19 -26 77 -50 128 l-44 92 -48 -19 c-127 -50 -140
-59 -147 -88 -4 -15 -16 -58 -27 -95 -20 -65 -23 -69 -102 -128 -79 -59 -84
-61 -127 -55 -25 4 -48 10 -51 13 -4 4 -63 143 -133 310 l-127 303 -11 122
c-6 67 -11 122 -12 123 0 0 -50 40 -109 87 -60 48 -149 109 -198 137 -86 48
-91 50 -169 50 l-80 0 0 -58z"/>
</g>
</svg>
