<?xml version="1.0" standalone="no"?>
<!DOCTYPE svg PUBLIC "-//W3C//DTD SVG 20010904//EN"
 "http://www.w3.org/TR/2001/REC-SVG-20010904/DTD/svg10.dtd">
<svg version="1.0" xmlns="http://www.w3.org/2000/svg"
 width="277.000000pt" height="340.000000pt" viewBox="0 0 277.000000 340.000000"
 preserveAspectRatio="xMidYMid meet">
<metadata>
Created by potrace 1.14, written by Peter Selinger 2001-2017
</metadata>
<g transform="translate(0.000000,340.000000) scale(0.100000,-0.100000)"
fill="#000000" stroke="none">
<path fill="#000000" stroke="none" d="M1281 3374 c-73 -13 -136 -26 -140 -29
-3 -4 -68 -77 -143 -163 l-137 -157 -75 -200 c-42 -110 -77 -205 -78 -211 -2
-5 29 -62 68 -125 l71 -116 -96 -60 c-63 -39 -146 -79 -238 -114 -79 -30 -144
-58 -146 -64 -3 -5 -87 -241 -187 -524 l-184 -515 33 -215 c18 -119 35 -224
37 -233 3 -9 67 -53 144 -99 156 -92 162 -100 129 -176 -18 -42 -109 -349
-109 -368 0 -4 8 -4 18 0 20 9 1054 8 1550 -1 l342 -7 -6 69 -6 70 115 164
115 165 28 122 27 121 76 -60 c117 -92 106 -87 194 -78 43 4 80 10 83 13 11
11 -36 511 -49 527 -7 8 -45 51 -83 96 -39 45 -92 120 -118 167 -35 64 -52 87
-67 87 -21 0 -78 58 -93 94 -12 30 -9 78 5 86 8 6 -8 46 -57 138 -65 123 -77
138 -214 279 l-145 150 -107 18 c-60 10 -108 22 -108 27 0 4 21 50 47 101 58
115 78 216 102 500 15 186 15 220 3 311 l-15 103 -166 48 c-318 92 -268 84
-420 59z"/>
</g>
</svg>
