<?xml version="1.0" standalone="no"?>
<!DOCTYPE svg PUBLIC "-//W3C//DTD SVG 20010904//EN"
 "http://www.w3.org/TR/2001/REC-SVG-20010904/DTD/svg10.dtd">
<svg version="1.0" xmlns="http://www.w3.org/2000/svg"
 width="51.000000pt" height="61.000000pt" viewBox="0 0 51.000000 61.000000"
 preserveAspectRatio="xMidYMid meet">
<metadata>
Created by potrace 1.14, written by Peter Selinger 2001-2017
</metadata>
<g transform="translate(0.000000,61.000000) scale(0.100000,-0.100000)"
fill="#000000" stroke="none">
<path fill="#000000" stroke="none" d="M362 597 c-20 -9 -23 -17 -19 -43 l5
-31 -62 -5 c-48 -4 -81 -15 -141 -47 -43 -22 -86 -41 -95 -41 -13 0 -50 -56
-50 -75 0 -14 35 -1 73 26 34 25 159 89 173 89 2 0 4 -20 4 -45 0 -37 -8 -57
-45 -111 -25 -36 -45 -72 -45 -79 0 -8 -11 -22 -26 -31 -30 -20 -29 -58 2 -62
14 -2 34 12 62 42 66 71 102 85 102 37 0 -16 7 -48 15 -71 20 -57 19 -80 -6
-106 -12 -12 -18 -27 -14 -33 9 -15 50 -14 63 2 12 14 19 143 9 154 -4 3 -1
13 5 21 8 9 13 50 14 106 1 72 4 92 16 94 19 4 53 -148 51 -226 -1 -30 1 -51
5 -48 3 3 14 -1 24 -11 34 -31 34 -10 -4 192 -6 33 -12 79 -13 102 0 31 -7 46
-25 61 -20 16 -22 22 -12 35 7 8 15 33 18 56 4 32 1 42 -15 50 -24 13 -39 13
-69 -2z"/>
</g>
</svg>
