<?xml version="1.0" standalone="no"?>
<!DOCTYPE svg PUBLIC "-//W3C//DTD SVG 20010904//EN"
 "http://www.w3.org/TR/2001/REC-SVG-20010904/DTD/svg10.dtd">
<svg version="1.0" xmlns="http://www.w3.org/2000/svg"
 width="47.000000pt" height="30.000000pt" viewBox="0 0 47.000000 30.000000"
 preserveAspectRatio="xMidYMid meet">
<metadata>
Created by potrace 1.14, written by Peter Selinger 2001-2017
</metadata>
<g transform="translate(0.000000,30.000000) scale(0.100000,-0.100000)"
fill="#000000" stroke="none">
<path fill="#000000" stroke="none" d="M105 280 c-10 -11 -30 -20 -45 -20 -27
0 -60 -27 -60 -48 0 -7 7 -12 15 -12 17 0 21 -18 30 -113 4 -54 3 -68 -7 -65
-7 3 -16 18 -19 34 l-7 29 -1 -30 c-1 -39 15 -55 55 -55 36 0 52 16 35 33 -12
12 -15 66 -3 83 4 7 26 17 49 24 23 7 56 28 74 46 l33 34 102 0 c61 0 105 4
109 10 4 6 0 22 -9 35 -14 21 -22 23 -107 24 -52 0 -99 -5 -109 -12 -15 -9
-23 -8 -38 6 -25 23 -75 22 -97 -3z"/>
</g>
</svg>
