<?xml version="1.0" standalone="no"?>
<!DOCTYPE svg PUBLIC "-//W3C//DTD SVG 20010904//EN"
 "http://www.w3.org/TR/2001/REC-SVG-20010904/DTD/svg10.dtd">
<svg version="1.0" xmlns="http://www.w3.org/2000/svg"
 width="157.000000pt" height="165.000000pt" viewBox="0 0 157.000000 165.000000"
 preserveAspectRatio="xMidYMid meet">
<metadata>
Created by potrace 1.14, written by Peter Selinger 2001-2017
</metadata>
<g transform="translate(0.000000,165.000000) scale(0.100000,-0.100000)"
fill="#000000" stroke="none">
<path fill="#000000" stroke="none" d="M570 1626 c-52 -12 -109 -30 -127 -39
-18 -9 -38 -17 -46 -17 -14 0 -33 -36 -39 -74 -2 -13 -15 -23 -35 -28 -43 -11
-79 -57 -86 -110 -3 -24 -11 -85 -18 -136 -9 -72 -17 -98 -35 -117 -30 -33
-44 -59 -44 -83 0 -11 -7 -25 -15 -32 -19 -16 -55 -131 -55 -176 0 -19 -11
-51 -24 -72 -13 -20 -30 -60 -37 -89 -11 -46 -10 -56 6 -92 10 -23 19 -41 20
-41 2 0 19 7 38 15 43 18 99 19 142 4 28 -10 47 -7 149 24 l116 35 353 -55
c193 -31 353 -56 354 -57 1 -1 9 -71 18 -156 8 -84 17 -155 20 -158 2 -3 26 9
52 26 26 16 67 41 89 55 l42 26 -25 83 c-13 46 -40 119 -59 163 -24 55 -34 95
-34 130 0 38 3 46 12 37 20 -20 49 -14 153 32 79 34 102 49 109 70 6 14 8 27
5 29 -2 2 -44 37 -94 79 -49 41 -147 112 -216 157 -126 81 -127 82 -170 72
-50 -11 -55 -10 -38 16 14 23 2 49 -82 174 -31 47 -78 129 -102 182 -45 96
-46 97 -102 122 -67 29 -71 29 -195 1z"/>
<path fill="#000000" stroke="none" d="M947 323 c-80 -25 -116 -40 -113 -48 2
-7 10 -40 17 -74 l12 -61 48 0 c27 0 49 -3 49 -6 0 -3 -19 -29 -42 -56 -40
-48 -41 -51 -23 -64 10 -8 25 -14 32 -14 8 0 55 29 106 65 l93 65 -15 115
c-12 91 -19 115 -31 114 -8 0 -68 -17 -133 -36z"/>
</g>
</svg>
