<?xml version="1.0" standalone="no"?>
<!DOCTYPE svg PUBLIC "-//W3C//DTD SVG 20010904//EN"
 "http://www.w3.org/TR/2001/REC-SVG-20010904/DTD/svg10.dtd">
<svg version="1.0" xmlns="http://www.w3.org/2000/svg"
 width="48.000000pt" height="54.000000pt" viewBox="0 0 48.000000 54.000000"
 preserveAspectRatio="xMidYMid meet">
<metadata>
Created by potrace 1.14, written by Peter Selinger 2001-2017
</metadata>
<g transform="translate(0.000000,54.000000) scale(0.100000,-0.100000)"
fill="#000000" stroke="none">
<path fill="#000000" stroke="none" d="M14 496 c7 -27 22 -53 39 -66 20 -16
27 -30 27 -57 0 -20 5 -53 12 -74 9 -33 15 -39 40 -39 30 0 34 -10 18 -40 -9
-17 -4 -21 52 -37 l63 -19 43 -82 43 -82 64 0 65 0 0 30 c0 27 -23 62 -47 71
-5 2 -19 39 -30 81 l-21 77 27 108 c20 80 25 116 19 141 l-9 32 -208 0 -209 0
12 -44z"/>
</g>
</svg>
