<?xml version="1.0" standalone="no"?>
<!DOCTYPE svg PUBLIC "-//W3C//DTD SVG 20010904//EN"
 "http://www.w3.org/TR/2001/REC-SVG-20010904/DTD/svg10.dtd">
<svg version="1.0" xmlns="http://www.w3.org/2000/svg"
 width="42.000000pt" height="84.000000pt" viewBox="0 0 42.000000 84.000000"
 preserveAspectRatio="xMidYMid meet">
<metadata>
Created by potrace 1.14, written by Peter Selinger 2001-2017
</metadata>
<g transform="translate(0.000000,84.000000) scale(0.100000,-0.100000)"
fill="#000000" stroke="none">
<path fill="#000000" stroke="none" d="M173 830 c-78 -18 -151 -105 -152 -180
-1 -15 -6 -31 -11 -36 -8 -8 -1 -23 22 -52 33 -41 33 -41 103 -41 69 -1 235
16 244 24 2 3 -1 55 -7 117 -11 105 -14 114 -44 145 -27 28 -38 33 -77 32 -26
-1 -60 -4 -78 -9z"/>
<path fill="#000000" stroke="none" d="M165 393 c-50 -2 -95 -5 -102 -8 -9 -3
-4 -26 16 -80 26 -71 33 -81 134 -176 59 -55 107 -98 107 -95 0 4 12 0 28 -7
15 -8 37 -18 50 -21 l22 -7 0 200 0 201 -82 -2 c-46 -1 -123 -4 -173 -5z"/>
</g>
</svg>
