<?xml version="1.0" standalone="no"?>
<!DOCTYPE svg PUBLIC "-//W3C//DTD SVG 20010904//EN"
 "http://www.w3.org/TR/2001/REC-SVG-20010904/DTD/svg10.dtd">
<svg version="1.0" xmlns="http://www.w3.org/2000/svg"
 width="100.000000pt" height="159.000000pt" viewBox="0 0 100.000000 159.000000"
 preserveAspectRatio="xMidYMid meet">
<metadata>
Created by potrace 1.14, written by Peter Selinger 2001-2017
</metadata>
<g transform="translate(0.000000,159.000000) scale(0.100000,-0.100000)"
fill="#000000" stroke="none">
<path fill="#000000" stroke="none" d="M282 1535 c-55 -92 -59 -160 -16 -306
3 -12 -27 -37 -114 -94 l-119 -78 -16 -96 c-15 -92 -15 -109 12 -421 l28 -325
51 -108 52 -107 362 2 362 3 17 30 c17 30 17 30 -67 249 -47 120 -83 220 -82
221 2 1 17 5 33 8 l30 5 90 -253 c50 -139 91 -252 92 -251 1 1 -4 80 -12 176
-12 150 -25 222 -89 507 l-75 333 -52 65 c-47 60 -61 71 -150 112 l-99 46 0
101 c0 56 -3 131 -7 169 l-6 67 -96 0 -96 0 -33 -55z"/>
</g>
</svg>
