<?xml version="1.0" standalone="no"?>
<!DOCTYPE svg PUBLIC "-//W3C//DTD SVG 20010904//EN"
 "http://www.w3.org/TR/2001/REC-SVG-20010904/DTD/svg10.dtd">
<svg version="1.0" xmlns="http://www.w3.org/2000/svg"
 width="11.000000pt" height="29.000000pt" viewBox="0 0 11.000000 29.000000"
 preserveAspectRatio="xMidYMid meet">
<metadata>
Created by potrace 1.14, written by Peter Selinger 2001-2017
</metadata>
<g transform="translate(0.000000,29.000000) scale(0.100000,-0.100000)"
fill="#000000" stroke="none">
<path fill="#000000" stroke="none" d="M40 273 c0 -8 -10 -32 -22 -51 -21 -34
-21 -36 -5 -64 11 -19 17 -52 17 -94 0 -41 4 -63 10 -59 5 3 10 26 10 51 0 24
5 44 10 44 6 0 10 -9 10 -19 0 -26 10 -51 21 -51 5 0 8 21 8 47 -1 27 2 70 6
96 7 43 5 50 -14 63 -11 8 -21 21 -21 28 0 8 -7 16 -15 20 -9 3 -15 -1 -15
-11z"/>
</g>
</svg>
