<?xml version="1.0" standalone="no"?>
<!DOCTYPE svg PUBLIC "-//W3C//DTD SVG 20010904//EN"
 "http://www.w3.org/TR/2001/REC-SVG-20010904/DTD/svg10.dtd">
<svg version="1.0" xmlns="http://www.w3.org/2000/svg"
 width="79.000000pt" height="68.000000pt" viewBox="0 0 79.000000 68.000000"
 preserveAspectRatio="xMidYMid meet">
<metadata>
Created by potrace 1.14, written by Peter Selinger 2001-2017
</metadata>
<g transform="translate(0.000000,68.000000) scale(0.100000,-0.100000)"
fill="#000000" stroke="none">
<path fill="#000000" stroke="none" d="M104 643 l-61 -37 5 -104 c4 -95 3
-109 -23 -171 l-27 -69 34 -53 c30 -46 46 -59 107 -89 63 -30 72 -38 68 -57
-9 -47 10 -55 140 -61 66 -2 181 1 254 7 216 19 211 0 41 166 l-147 144 60 -5
c79 -7 109 8 113 58 3 33 -1 40 -36 63 -40 26 -41 26 -93 11 -29 -9 -56 -16
-60 -16 -4 0 -10 25 -14 56 -12 95 -31 148 -62 165 -18 11 -65 19 -133 23
l-105 6 -61 -37z"/>
</g>
</svg>
