<?xml version="1.0" standalone="no"?>
<!DOCTYPE svg PUBLIC "-//W3C//DTD SVG 20010904//EN"
 "http://www.w3.org/TR/2001/REC-SVG-20010904/DTD/svg10.dtd">
<svg version="1.0" xmlns="http://www.w3.org/2000/svg"
 width="116.000000pt" height="117.000000pt" viewBox="0 0 116.000000 117.000000"
 preserveAspectRatio="xMidYMid meet">
<metadata>
Created by potrace 1.14, written by Peter Selinger 2001-2017
</metadata>
<g transform="translate(0.000000,117.000000) scale(0.100000,-0.100000)"
fill="#000000" stroke="none">
<path fill="#000000" stroke="none" d="M264 1114 l-112 -55 -66 -114 -66 -115
15 -102 c9 -57 18 -113 20 -124 3 -12 48 -56 100 -98 l95 -76 -107 -148 c-58
-81 -114 -158 -125 -171 -10 -13 -18 -40 -18 -61 l0 -37 257 -6 c141 -4 402
-7 580 -7 372 0 350 -9 244 96 -74 74 -181 202 -181 217 -1 63 -27 158 -66
250 l-48 109 17 63 c9 35 17 86 17 113 0 45 -3 52 -35 76 -26 20 -35 34 -35
57 0 18 -17 59 -40 98 l-40 68 -123 11 c-67 7 -133 12 -147 11 -14 0 -75 -25
-136 -55z"/>
</g>
</svg>
