<?xml version="1.0" standalone="no"?>
<!DOCTYPE svg PUBLIC "-//W3C//DTD SVG 20010904//EN"
 "http://www.w3.org/TR/2001/REC-SVG-20010904/DTD/svg10.dtd">
<svg version="1.0" xmlns="http://www.w3.org/2000/svg"
 width="161.000000pt" height="364.000000pt" viewBox="0 0 161.000000 364.000000"
 preserveAspectRatio="xMidYMid meet">
<metadata>
Created by potrace 1.14, written by Peter Selinger 2001-2017
</metadata>
<g transform="translate(0.000000,364.000000) scale(0.100000,-0.100000)"
fill="#000000" stroke="none">
<path fill="#000000" stroke="none" d="M527 3573 l-77 -64 0 -126 c0 -110 29
-347 46 -374 2 -5 -24 -66 -60 -137 l-64 -128 -16 -161 c-9 -88 -16 -191 -16
-228 0 -66 0 -67 -81 -193 -148 -231 -136 -202 -162 -369 l-23 -152 30 -30 29
-30 59 30 c54 27 59 32 54 57 -19 99 -18 139 8 221 32 100 79 174 153 240 46
41 65 51 112 59 40 7 58 7 64 -2 18 -28 25 -94 31 -279 l6 -198 -31 -46 c-36
-52 -116 -226 -187 -404 l-49 -124 -7 -185 c-13 -386 -28 -676 -36 -695 -4
-12 -66 -53 -147 -99 -127 -71 -142 -82 -151 -114 -6 -20 -9 -38 -7 -40 2 -2
118 -1 258 3 l255 7 12 77 c7 42 16 164 20 271 4 107 12 218 18 245 6 28 13
111 17 185 l7 136 46 48 46 49 75 -7 c42 -4 112 -9 156 -12 126 -8 117 -2 165
-111 59 -135 146 -367 186 -498 28 -90 35 -133 41 -238 3 -70 7 -127 7 -127 1
0 28 -5 61 -10 47 -8 75 -7 130 6 121 26 116 7 72 272 -33 198 -45 247 -91
372 -29 80 -60 159 -69 177 -10 18 -17 42 -17 55 0 13 31 150 69 304 l70 280
10 340 11 339 -157 347 c-86 191 -158 346 -161 344 -2 -3 -25 21 -51 52 -61
73 -141 127 -210 141 -65 14 -111 44 -111 74 0 12 7 45 15 72 15 46 14 59 -6
185 -13 74 -27 140 -33 147 -6 7 -63 34 -127 61 l-115 49 -77 -64z"/>
</g>
</svg>
