<?xml version="1.0" standalone="no"?>
<!DOCTYPE svg PUBLIC "-//W3C//DTD SVG 20010904//EN"
 "http://www.w3.org/TR/2001/REC-SVG-20010904/DTD/svg10.dtd">
<svg version="1.0" xmlns="http://www.w3.org/2000/svg"
 width="35.000000pt" height="36.000000pt" viewBox="0 0 35.000000 36.000000"
 preserveAspectRatio="xMidYMid meet">
<metadata>
Created by potrace 1.14, written by Peter Selinger 2001-2017
</metadata>
<g transform="translate(0.000000,36.000000) scale(0.100000,-0.100000)"
fill="#000000" stroke="none">
<path fill="#000000" stroke="none" d="M199 353 c-17 -4 -29 -43 -29 -93 0
-20 -10 -35 -34 -53 -28 -22 -35 -35 -43 -84 -6 -43 -12 -57 -23 -54 -35 10
-65 5 -68 -10 -5 -28 26 -49 72 -49 40 0 44 3 54 32 l10 33 1 -31 c1 -31 1
-31 68 -37 39 -4 71 -2 78 3 26 21 67 131 60 158 -9 36 -23 52 -46 52 -16 0
-19 8 -19 50 0 69 -28 98 -81 83z"/>
</g>
</svg>
