<?xml version="1.0" standalone="no"?>
<!DOCTYPE svg PUBLIC "-//W3C//DTD SVG 20010904//EN"
 "http://www.w3.org/TR/2001/REC-SVG-20010904/DTD/svg10.dtd">
<svg version="1.0" xmlns="http://www.w3.org/2000/svg"
 width="21.000000pt" height="132.000000pt" viewBox="0 0 21.000000 132.000000"
 preserveAspectRatio="xMidYMid meet">
<metadata>
Created by potrace 1.14, written by Peter Selinger 2001-2017
</metadata>
<g transform="translate(0.000000,132.000000) scale(0.100000,-0.100000)"
fill="#000000" stroke="none">
<path fill="#000000" stroke="none" d="M160 1276 c0 -31 5 -46 16 -50 30 -11
34 -6 34 44 0 47 -2 50 -25 50 -23 0 -25 -4 -25 -44z"/>
<path fill="#000000" stroke="none" d="M151 1046 l-54 -55 14 -149 c9 -90 11
-167 6 -198 -4 -27 -8 -80 -8 -117 0 -64 3 -74 48 -150 l48 -82 3 202 c1 112
1 293 0 403 l-3 201 -54 -55z"/>
<path fill="#000000" stroke="none" d="M197 252 c-8 -22 -19 -33 -140 -141
-57 -50 -57 -51 -33 -61 13 -5 27 -18 31 -29 6 -19 14 -21 76 -21 48 0 71 4
75 13 2 7 3 69 2 138 -2 80 -6 116 -11 101z"/>
</g>
</svg>
