<?xml version="1.0" standalone="no"?>
<!DOCTYPE svg PUBLIC "-//W3C//DTD SVG 20010904//EN"
 "http://www.w3.org/TR/2001/REC-SVG-20010904/DTD/svg10.dtd">
<svg version="1.0" xmlns="http://www.w3.org/2000/svg"
 width="15.000000pt" height="17.000000pt" viewBox="0 0 15.000000 17.000000"
 preserveAspectRatio="xMidYMid meet">
<metadata>
Created by potrace 1.14, written by Peter Selinger 2001-2017
</metadata>
<g transform="translate(0.000000,17.000000) scale(0.100000,-0.100000)"
fill="#000000" stroke="none">
<path fill="#000000" stroke="none" d="M47 152 c-10 -10 -17 -32 -17 -48 0
-17 -4 -34 -9 -40 -5 -5 -12 -19 -16 -32 -6 -21 -4 -22 19 -16 15 3 32 1 40
-5 18 -15 46 -3 46 19 0 10 10 22 23 26 l22 8 -25 6 c-21 5 -26 13 -28 45 -5
54 -26 69 -55 37z"/>
</g>
</svg>
