<?xml version="1.0" standalone="no"?>
<!DOCTYPE svg PUBLIC "-//W3C//DTD SVG 20010904//EN"
 "http://www.w3.org/TR/2001/REC-SVG-20010904/DTD/svg10.dtd">
<svg version="1.0" xmlns="http://www.w3.org/2000/svg"
 width="216.000000pt" height="241.000000pt" viewBox="0 0 216.000000 241.000000"
 preserveAspectRatio="xMidYMid meet">
<metadata>
Created by potrace 1.14, written by Peter Selinger 2001-2017
</metadata>
<g transform="translate(0.000000,241.000000) scale(0.100000,-0.100000)"
fill="#000000" stroke="none">
<path fill="#000000" stroke="none" d="M1140 2399 l-105 -9 -90 -93 -90 -92
-43 -143 -43 -143 21 -74 c15 -55 20 -97 18 -162 l-3 -87 -183 -37 c-100 -20
-185 -39 -188 -42 -3 -3 -80 -144 -170 -313 -162 -302 -164 -308 -179 -403
-10 -62 -14 -150 -13 -251 3 -152 2 -158 -37 -307 -22 -83 -37 -154 -35 -156
3 -3 109 -9 235 -14 l230 -9 100 88 100 88 163 0 162 0 0 -105 c0 -102 1 -105
22 -105 12 0 109 -7 216 -16 106 -8 205 -14 219 -12 24 3 29 12 59 113 26 88
33 128 33 201 1 64 5 93 14 96 6 3 64 15 129 28 111 23 117 25 122 51 3 15 3
43 -1 62 -8 52 16 62 152 58 138 -3 143 -4 147 -44 l3 -32 28 46 c15 25 27 52
27 60 0 8 -53 178 -118 378 l-117 364 -282 90 c-156 50 -283 96 -283 101 0 6
40 133 89 283 l88 272 -116 140 c-131 158 -102 144 -281 130z"/>
<path fill="#ffffff" stroke="none" d="M1245 1451 c-6 -34 -12 -42 -41 -53
-21 -7 -37 -21 -43 -39 -10 -30 -20 -33 -214 -47 -90 -7 -99 -6 -109 11 -7 15
-4 27 18 58 36 52 41 55 68 30 18 -17 35 -21 92 -21 67 0 72 2 149 54 44 29
82 52 83 50 2 -1 1 -21 -3 -43z"/>
</g>
</svg>
