<?xml version="1.0" standalone="no"?>
<!DOCTYPE svg PUBLIC "-//W3C//DTD SVG 20010904//EN"
 "http://www.w3.org/TR/2001/REC-SVG-20010904/DTD/svg10.dtd">
<svg version="1.0" xmlns="http://www.w3.org/2000/svg"
 width="163.000000pt" height="248.000000pt" viewBox="0 0 163.000000 248.000000"
 preserveAspectRatio="xMidYMid meet">
<metadata>
Created by potrace 1.14, written by Peter Selinger 2001-2017
</metadata>
<g transform="translate(0.000000,248.000000) scale(0.100000,-0.100000)"
fill="#000000" stroke="none">
<path fill="#000000" stroke="none" d="M16 2464 c-24 -23 -20 -77 7 -101 12
-11 38 -40 57 -64 19 -24 45 -54 58 -67 12 -12 22 -26 22 -31 0 -4 10 -17 23
-28 12 -12 31 -32 42 -46 57 -71 92 -114 113 -135 12 -12 22 -26 22 -31 0 -4
10 -17 23 -29 26 -24 35 -35 100 -117 27 -33 56 -68 65 -77 10 -10 26 -29 37
-44 11 -14 27 -33 35 -42 9 -10 36 -42 60 -72 24 -30 53 -65 64 -77 12 -11 30
-33 41 -47 11 -14 29 -36 40 -49 11 -13 38 -45 60 -72 22 -26 50 -59 62 -74
40 -47 44 -51 95 -114 28 -34 59 -70 67 -79 9 -10 25 -29 36 -43 11 -15 25
-32 32 -39 6 -7 35 -42 64 -77 29 -35 60 -72 68 -81 19 -20 28 -30 93 -111 28
-34 56 -66 63 -72 34 -28 41 -75 11 -75 -7 0 -23 -11 -37 -26 l-24 -25 2 -240
c1 -216 3 -242 19 -260 25 -28 85 -23 99 8 5 12 28 31 52 43 l43 21 0 275 c0
232 -2 277 -15 292 -9 9 -34 36 -55 60 -22 24 -40 48 -40 53 0 5 -9 14 -20 21
-11 7 -20 18 -20 24 0 6 -10 20 -22 31 -13 11 -39 40 -58 64 -19 24 -45 54
-57 67 -13 12 -23 27 -23 32 0 6 -9 15 -20 22 -11 7 -20 17 -20 22 0 5 -10 19
-22 31 -13 12 -39 42 -58 66 -19 24 -45 54 -57 67 -13 12 -23 26 -23 31 0 4
-10 17 -22 28 -13 11 -39 40 -58 64 -19 24 -45 54 -57 67 -13 12 -23 27 -23
32 0 6 -9 15 -20 22 -11 7 -20 18 -20 24 0 6 -10 20 -22 31 -13 11 -39 40 -58
64 -19 24 -45 54 -57 67 -13 12 -23 26 -23 31 0 4 -10 17 -22 28 -13 12 -32
32 -43 46 -57 71 -92 114 -112 135 -13 12 -23 26 -23 31 0 4 -10 17 -23 28
-12 11 -31 32 -42 47 -11 14 -29 36 -40 49 -11 13 -38 45 -60 72 -43 51 -77
91 -97 115 -7 8 -35 41 -61 75 -27 33 -56 67 -65 77 -10 9 -26 28 -37 42 -37
49 -46 56 -75 56 -16 0 -36 -7 -44 -16z"/>
<path fill="#000000" stroke="none" d="M0 77 l0 -77 73 1 72 0 -44 22 c-35 17
-47 30 -58 62 -7 22 -20 47 -28 55 -13 13 -15 5 -15 -63z"/>
<path fill="#000000" stroke="none" d="M560 33 l-22 -28 57 -3 c32 -2 59 -2
60 0 2 2 6 15 10 31 7 26 6 27 -38 27 -38 0 -49 -5 -67 -27z"/>
<path fill="#000000" stroke="none" d="M848 3 c12 -2 30 -2 40 0 9 3 -1 5 -23
4 -22 0 -30 -2 -17 -4z"/>
<path fill="#000000" stroke="none" d="M948 3 c6 -2 18 -2 25 0 6 3 1 5 -13 5
-14 0 -19 -2 -12 -5z"/>
</g>
</svg>
