<?xml version="1.0" standalone="no"?>
<!DOCTYPE svg PUBLIC "-//W3C//DTD SVG 20010904//EN"
 "http://www.w3.org/TR/2001/REC-SVG-20010904/DTD/svg10.dtd">
<svg version="1.0" xmlns="http://www.w3.org/2000/svg"
 width="119.000000pt" height="178.000000pt" viewBox="0 0 119.000000 178.000000"
 preserveAspectRatio="xMidYMid meet">
<metadata>
Created by potrace 1.14, written by Peter Selinger 2001-2017
</metadata>
<g transform="translate(0.000000,178.000000) scale(0.100000,-0.100000)"
fill="#000000" stroke="none">
<path fill="#000000" stroke="none" d="M521 1772 c-92 -4 -128 -33 -225 -177
l-79 -117 5 -222 5 -221 31 -60 c16 -33 37 -77 45 -97 l15 -36 -148 -113 -149
-112 -5 -51 c-3 -28 -8 -167 -11 -308 l-6 -258 489 0 c269 0 529 3 579 6 l90
7 11 376 c7 207 15 435 18 506 l6 130 -57 30 c-65 34 -69 39 -84 116 -11 50
-9 62 9 112 20 53 20 58 5 122 -19 84 -115 227 -203 304 -56 47 -64 51 -123
56 -106 9 -151 11 -218 7z"/>
</g>
</svg>
