<?xml version="1.0" standalone="no"?>
<!DOCTYPE svg PUBLIC "-//W3C//DTD SVG 20010904//EN"
 "http://www.w3.org/TR/2001/REC-SVG-20010904/DTD/svg10.dtd">
<svg version="1.0" xmlns="http://www.w3.org/2000/svg"
 width="67.000000pt" height="102.000000pt" viewBox="0 0 67.000000 102.000000"
 preserveAspectRatio="xMidYMid meet">
<metadata>
Created by potrace 1.14, written by Peter Selinger 2001-2017
</metadata>
<g transform="translate(0.000000,102.000000) scale(0.100000,-0.100000)"
fill="#000000" stroke="none">
<path fill="#000000" stroke="none" d="M189 1001 c-20 -9 -56 -33 -80 -54 -43
-37 -44 -39 -47 -110 l-3 -72 76 -85 c41 -46 75 -90 75 -96 0 -7 -39 -19 -90
-29 -49 -10 -90 -18 -90 -19 0 -1 -7 -56 -15 -121 -8 -66 -15 -127 -15 -136 0
-12 27 -23 107 -44 139 -36 258 -99 339 -177 61 -60 62 -60 90 -44 20 10 24
15 12 16 -12 0 -18 8 -19 23 0 12 -4 62 -8 112 -7 87 -6 92 22 151 l30 62 45
-19 c25 -11 47 -17 50 -15 4 5 -5 80 -24 192 -5 29 -15 36 -105 78 l-99 47 -1
42 c-1 23 -3 51 -4 62 -1 11 -2 37 -3 57 -2 34 -9 42 -94 109 -51 40 -97 75
-103 79 -5 4 -26 0 -46 -9z"/>
</g>
</svg>
