<?xml version="1.0" standalone="no"?>
<!DOCTYPE svg PUBLIC "-//W3C//DTD SVG 20010904//EN"
 "http://www.w3.org/TR/2001/REC-SVG-20010904/DTD/svg10.dtd">
<svg version="1.0" xmlns="http://www.w3.org/2000/svg"
 width="47.000000pt" height="118.000000pt" viewBox="0 0 47.000000 118.000000"
 preserveAspectRatio="xMidYMid meet">
<metadata>
Created by potrace 1.14, written by Peter Selinger 2001-2017
</metadata>
<g transform="translate(0.000000,118.000000) scale(0.100000,-0.100000)"
fill="#000000" stroke="none">
<path fill="#000000" stroke="none" d="M195 1166 c-90 -19 -112 -33 -140 -91
-25 -51 -25 -53 -10 -110 8 -33 15 -65 15 -72 0 -7 13 -32 30 -55 16 -22 30
-47 30 -55 0 -8 -14 -35 -31 -60 -18 -25 -38 -65 -45 -88 -7 -24 -20 -57 -29
-75 -16 -30 -16 -32 2 -26 15 5 178 -35 187 -45 2 -2 27 -44 56 -94 49 -83 53
-94 51 -149 -1 -32 3 -99 10 -150 l12 -92 32 4 33 4 7 143 c4 79 6 190 3 247
-3 99 -5 107 -41 167 -20 34 -37 73 -37 86 0 32 51 114 71 115 21 0 36 18 45
55 4 17 11 35 16 42 5 7 6 17 2 24 -4 6 -8 21 -9 33 -1 11 -3 26 -4 33 0 7 -9
20 -19 30 -24 23 -69 109 -76 144 -5 22 -14 29 -50 38 -25 6 -46 11 -48 10 -2
-1 -30 -7 -63 -13z"/>
</g>
</svg>
