<?xml version="1.0" standalone="no"?>
<!DOCTYPE svg PUBLIC "-//W3C//DTD SVG 20010904//EN"
 "http://www.w3.org/TR/2001/REC-SVG-20010904/DTD/svg10.dtd">
<svg version="1.0" xmlns="http://www.w3.org/2000/svg"
 width="26.000000pt" height="22.000000pt" viewBox="0 0 26.000000 22.000000"
 preserveAspectRatio="xMidYMid meet">
<metadata>
Created by potrace 1.14, written by Peter Selinger 2001-2017
</metadata>
<g transform="translate(0.000000,22.000000) scale(0.100000,-0.100000)"
fill="#000000" stroke="none">
<path fill="#000000" stroke="none" d="M159 207 c-15 -11 -15 -15 7 -40 25
-29 77 -46 88 -28 4 5 -5 17 -18 26 -14 9 -28 25 -31 36 -7 22 -23 24 -46 6z"/>
<path fill="#000000" stroke="none" d="M80 143 c-19 -8 -46 -19 -59 -24 -24
-9 -23 -10 30 -64 66 -67 79 -61 79 36 0 38 -3 69 -7 68 -5 0 -24 -8 -43 -16z"/>
</g>
</svg>
