<?xml version="1.0" standalone="no"?>
<!DOCTYPE svg PUBLIC "-//W3C//DTD SVG 20010904//EN"
 "http://www.w3.org/TR/2001/REC-SVG-20010904/DTD/svg10.dtd">
<svg version="1.0" xmlns="http://www.w3.org/2000/svg"
 width="348.000000pt" height="354.000000pt" viewBox="0 0 348.000000 354.000000"
 preserveAspectRatio="xMidYMid meet">
<metadata>
Created by potrace 1.14, written by Peter Selinger 2001-2017
</metadata>
<g transform="translate(0.000000,354.000000) scale(0.100000,-0.100000)"
fill="#000000" stroke="none">
<path fill="#000000" stroke="none" d="M1693 3521 c-842 -10 -1315 -20 -1321
-26 -5 -5 -23 -104 -41 -220 -18 -115 -71 -385 -117 -600 -90 -414 -81 -384
-185 -571 l-29 -51 99 -54 c98 -53 99 -54 145 -135 26 -45 64 -127 85 -181 35
-92 38 -110 44 -234 5 -115 2 -164 -24 -349 -16 -118 -29 -227 -29 -241 0 -24
61 -66 642 -444 l642 -417 123 7 c68 4 123 10 123 13 0 2 -29 59 -64 126 -57
108 -90 196 -72 196 3 0 60 -27 126 -60 66 -33 202 -94 302 -136 162 -67 201
-79 343 -105 233 -44 352 -46 689 -15 154 15 285 31 293 37 21 18 16 32 -24
70 -40 37 -182 105 -333 158 -77 27 -196 48 -380 67 -36 3 -72 12 -80 19 -8 7
-35 21 -60 30 -46 17 -59 30 -188 175 -70 78 -73 83 -56 101 9 10 64 37 122
60 l105 41 151 -22 c157 -23 548 -39 619 -26 l37 7 0 59 c0 70 -78 296 -183
531 -40 90 -69 167 -73 200 -4 30 -27 108 -51 174 -42 114 -44 124 -40 200 3
44 41 253 85 464 l80 384 -65 300 -65 300 93 93 94 94 -125 -2 c-69 0 -715 -8
-1437 -17z"/>
</g>
</svg>
