<?xml version="1.0" standalone="no"?>
<!DOCTYPE svg PUBLIC "-//W3C//DTD SVG 20010904//EN"
 "http://www.w3.org/TR/2001/REC-SVG-20010904/DTD/svg10.dtd">
<svg version="1.0" xmlns="http://www.w3.org/2000/svg"
 width="315.000000pt" height="432.000000pt" viewBox="0 0 315.000000 432.000000"
 preserveAspectRatio="xMidYMid meet">
<metadata>
Created by potrace 1.14, written by Peter Selinger 2001-2017
</metadata>
<g transform="translate(0.000000,432.000000) scale(0.100000,-0.100000)"
fill="#000000" stroke="none">
<path fill="#000000" stroke="none" d="M316 4237 l-136 -79 0 -210 0 -211 78
-93 c42 -51 93 -101 112 -111 19 -10 37 -21 40 -24 3 -4 44 -32 92 -63 l86
-56 114 0 114 0 33 -55 c29 -47 49 -65 140 -121 58 -37 113 -72 121 -79 8 -7
29 -16 47 -20 27 -5 34 -2 48 19 16 24 19 25 44 11 26 -13 29 -22 41 -107 13
-92 14 -94 65 -148 47 -50 57 -70 118 -235 37 -99 67 -187 67 -194 0 -8 -27
-57 -61 -110 l-61 -97 -259 -164 c-170 -108 -261 -172 -264 -185 -3 -11 -32
-177 -66 -368 l-61 -348 -180 -325 -180 -325 41 -62 41 -62 -88 -6 c-48 -4
-148 -7 -222 -8 -190 -2 -180 4 -180 -96 l0 -82 333 -73 c182 -40 363 -79 400
-87 l68 -15 -17 -25 c-20 -32 -14 -29 74 32 65 45 71 53 72 85 1 19 7 114 14
210 l12 175 133 190 c74 104 137 201 142 215 5 14 36 146 69 294 l61 269 91
98 c50 55 93 98 94 96 2 -2 71 -147 154 -322 l150 -319 -29 -96 -30 -95 -191
-140 c-104 -77 -190 -143 -190 -148 0 -4 25 -39 55 -76 l55 -68 152 -21 153
-21 303 63 c167 36 305 66 307 68 2 2 -28 105 -67 228 l-71 225 14 70 14 70
-66 205 c-47 148 -79 272 -114 448 -26 133 -45 245 -42 248 4 4 485 72 525 74
1 0 2 6 2 14 0 8 17 20 38 27 20 6 60 20 89 31 l52 19 170 254 170 253 -12 52
c-10 44 -43 90 -230 328 l-219 277 -396 367 -397 367 -151 65 -151 65 -349 7
-349 6 -221 52 -222 52 -136 -79z"/>
</g>
</svg>
