<?xml version="1.0" standalone="no"?>
<!DOCTYPE svg PUBLIC "-//W3C//DTD SVG 20010904//EN"
 "http://www.w3.org/TR/2001/REC-SVG-20010904/DTD/svg10.dtd">
<svg version="1.0" xmlns="http://www.w3.org/2000/svg"
 width="178.000000pt" height="197.000000pt" viewBox="0 0 178.000000 197.000000"
 preserveAspectRatio="xMidYMid meet">
<metadata>
Created by potrace 1.14, written by Peter Selinger 2001-2017
</metadata>
<g transform="translate(0.000000,197.000000) scale(0.100000,-0.100000)"
fill="#000000" stroke="none">
<path fill="#000000" stroke="none" d="M1055 1961 c-54 -7 -99 -37 -198 -130
-37 -36 -52 -60 -67 -108 -30 -99 -50 -230 -50 -335 0 -54 -1 -98 -2 -98 -2 0
-84 -11 -182 -25 -99 -14 -181 -25 -183 -25 -1 0 -25 -44 -52 -99 -47 -92 -53
-113 -95 -332 l-44 -234 -90 -170 c-50 -93 -89 -171 -89 -171 8 -6 164 21 169
29 3 6 12 39 18 74 8 41 17 63 26 63 8 0 14 10 14 25 0 20 7 26 43 36 51 14
207 4 256 -17 l34 -14 -7 -128 -7 -127 30 -29 30 -28 14 33 c7 19 26 66 41
106 15 39 33 76 39 81 7 5 64 12 127 16 63 3 134 9 158 12 40 6 42 5 42 -18 0
-14 6 -31 14 -37 12 -10 14 -35 10 -126 l-5 -113 43 -34 43 -34 170 11 c94 6
181 16 195 21 14 6 56 17 93 25 64 12 72 17 121 70 l53 57 6 242 c4 134 7 304
7 377 l0 135 -72 121 c-39 67 -77 128 -84 136 -6 7 -54 22 -105 32 -52 11
-117 24 -146 30 l-52 10 6 47 c4 28 18 64 36 89 24 34 31 55 35 112 4 60 2 73
-17 99 -17 24 -21 45 -21 106 0 76 0 77 -47 136 -42 51 -57 63 -116 85 -38 14
-74 24 -80 24 -7 -1 -35 -5 -62 -8z"/>
</g>
</svg>
