<?xml version="1.0" standalone="no"?>
<!DOCTYPE svg PUBLIC "-//W3C//DTD SVG 20010904//EN"
 "http://www.w3.org/TR/2001/REC-SVG-20010904/DTD/svg10.dtd">
<svg version="1.0" xmlns="http://www.w3.org/2000/svg"
 width="127.000000pt" height="233.000000pt" viewBox="0 0 127.000000 233.000000"
 preserveAspectRatio="xMidYMid meet">
<metadata>
Created by potrace 1.14, written by Peter Selinger 2001-2017
</metadata>
<g transform="translate(0.000000,233.000000) scale(0.100000,-0.100000)"
fill="#000000" stroke="none">
<path fill="#000000" stroke="none" d="M447 2305 c-32 -13 -76 -38 -97 -55
l-40 -32 0 -76 c0 -65 5 -87 30 -140 17 -35 30 -69 30 -76 0 -7 -56 -28 -135
-50 -74 -21 -135 -44 -135 -50 0 -40 -54 -413 -74 -516 -18 -90 -22 -126 -14
-131 7 -4 38 -11 71 -14 l59 -7 -6 -37 c-3 -20 -9 -54 -12 -76 l-5 -40 18 38
c12 24 42 54 87 86 56 41 81 52 138 61 99 17 148 9 282 -46 l119 -49 30 -62
31 -63 -12 -140 -11 -140 60 -127 c53 -113 62 -140 74 -233 8 -58 21 -125 30
-150 9 -25 23 -75 31 -112 l16 -68 130 0 130 0 -14 23 c-64 100 -94 164 -143
307 -31 91 -93 265 -136 388 l-80 223 3 112 3 111 35 8 c19 5 59 16 88 24 65
18 65 11 -13 194 -136 319 -157 353 -260 418 l-85 54 0 86 c0 76 -6 105 -48
232 l-48 145 -35 2 c-18 2 -60 -8 -92 -22z"/>
</g>
</svg>
