<?xml version="1.0" standalone="no"?>
<!DOCTYPE svg PUBLIC "-//W3C//DTD SVG 20010904//EN"
 "http://www.w3.org/TR/2001/REC-SVG-20010904/DTD/svg10.dtd">
<svg version="1.0" xmlns="http://www.w3.org/2000/svg"
 width="156.000000pt" height="248.000000pt" viewBox="0 0 156.000000 248.000000"
 preserveAspectRatio="xMidYMid meet">
<metadata>
Created by potrace 1.14, written by Peter Selinger 2001-2017
</metadata>
<g transform="translate(0.000000,248.000000) scale(0.100000,-0.100000)"
fill="#000000" stroke="none">
<path fill="#000000" stroke="none" d="M1134 2438 c-23 -24 -82 -89 -132 -146
l-92 -103 0 -69 c0 -59 -3 -71 -23 -87 -12 -10 -34 -43 -47 -74 l-25 -56 -93
-33 c-121 -43 -180 -88 -367 -286 -156 -165 -270 -303 -323 -389 -28 -47 -30
-55 -25 -124 l6 -74 71 7 c39 3 82 8 96 11 23 5 30 -3 94 -123 l70 -128 166 4
166 4 16 -59 c11 -37 42 -96 86 -163 56 -82 78 -108 113 -126 41 -20 45 -26
59 -85 14 -55 14 -70 3 -108 -21 -72 -17 -103 22 -153 34 -44 38 -46 113 -57
42 -7 87 -15 100 -18 22 -5 23 -3 20 37 -3 42 -4 43 -49 56 -35 11 -48 21 -61
47 -16 34 -16 35 17 67 38 36 75 154 55 174 -5 5 -10 25 -10 43 0 26 5 34 25
39 38 9 75 -3 75 -26 0 -10 4 -21 9 -24 10 -6 15 38 32 289 6 88 13 162 14
164 2 1 46 -40 99 -92 107 -108 100 -109 125 23 l16 85 -39 95 c-21 52 -60
169 -87 261 -31 110 -64 199 -98 268 -29 56 -60 124 -71 151 l-19 49 73 53
c72 51 75 55 90 115 19 74 20 152 4 316 -11 118 -12 124 -56 194 -42 69 -46
72 -82 71 -20 0 -46 5 -58 11 -31 16 -34 15 -78 -31z"/>
</g>
</svg>
