<?xml version="1.0" standalone="no"?>
<!DOCTYPE svg PUBLIC "-//W3C//DTD SVG 20010904//EN"
 "http://www.w3.org/TR/2001/REC-SVG-20010904/DTD/svg10.dtd">
<svg version="1.0" xmlns="http://www.w3.org/2000/svg"
 width="17.000000pt" height="20.000000pt" viewBox="0 0 17.000000 20.000000"
 preserveAspectRatio="xMidYMid meet">
<metadata>
Created by potrace 1.14, written by Peter Selinger 2001-2017
</metadata>
<g transform="translate(0.000000,20.000000) scale(0.100000,-0.100000)"
fill="#000000" stroke="none">
<path fill="#000000" stroke="none" d="M48 193 c-13 -3 -18 -15 -18 -44 0 -23
-7 -47 -15 -55 -8 -9 -15 -33 -15 -55 l0 -39 86 0 86 0 -7 47 c-4 30 -16 58
-31 74 -13 14 -24 35 -24 47 0 12 -4 22 -9 22 -5 0 -15 2 -23 4 -7 2 -21 2
-30 -1z"/>
</g>
</svg>
