<?xml version="1.0" standalone="no"?>
<!DOCTYPE svg PUBLIC "-//W3C//DTD SVG 20010904//EN"
 "http://www.w3.org/TR/2001/REC-SVG-20010904/DTD/svg10.dtd">
<svg version="1.0" xmlns="http://www.w3.org/2000/svg"
 width="25.000000pt" height="71.000000pt" viewBox="0 0 25.000000 71.000000"
 preserveAspectRatio="xMidYMid meet">
<metadata>
Created by potrace 1.14, written by Peter Selinger 2001-2017
</metadata>
<g transform="translate(0.000000,71.000000) scale(0.100000,-0.100000)"
fill="#000000" stroke="none">
<path fill="#000000" stroke="none" d="M46 614 l-47 -95 17 -107 c9 -59 22
-122 30 -140 9 -22 14 -73 14 -153 l0 -119 28 6 c38 9 42 13 42 36 0 11 4 37
10 57 5 20 12 72 16 116 7 77 7 79 20 50 8 -18 13 -72 14 -137 0 -60 4 -108 8
-108 16 0 32 24 32 48 0 13 4 20 10 17 12 -7 12 118 1 250 -5 50 -5 99 -1 110
11 29 -8 84 -47 138 -20 27 -37 64 -40 87 -5 36 -9 40 -33 40 -25 0 -32 -9
-74 -96z"/>
</g>
</svg>
