<?xml version="1.0" standalone="no"?>
<!DOCTYPE svg PUBLIC "-//W3C//DTD SVG 20010904//EN"
 "http://www.w3.org/TR/2001/REC-SVG-20010904/DTD/svg10.dtd">
<svg version="1.0" xmlns="http://www.w3.org/2000/svg"
 width="194.000000pt" height="429.000000pt" viewBox="0 0 194.000000 429.000000"
 preserveAspectRatio="xMidYMid meet">
<metadata>
Created by potrace 1.14, written by Peter Selinger 2001-2017
</metadata>
<g transform="translate(0.000000,429.000000) scale(0.100000,-0.100000)"
fill="#000000" stroke="none">
<path fill="#000000" stroke="none" d="M1760 4278 c-65 -14 -86 -38 -105 -121
-40 -171 -39 -170 -134 -235 -176 -121 -332 -192 -427 -192 -64 0 -70 -7 -199
-210 -73 -116 -196 -290 -295 -416 -158 -203 -175 -221 -242 -262 -101 -61
-115 -76 -159 -170 l-39 -84 16 -64 c16 -61 16 -67 -1 -104 -10 -22 -40 -57
-70 -81 l-51 -41 -27 -131 c-15 -73 -27 -164 -27 -203 0 -43 20 -181 50 -342
36 -197 50 -295 50 -361 0 -84 1 -91 20 -91 19 0 20 -7 20 -139 0 -77 -4 -142
-8 -145 -18 -11 7 -115 47 -193 l40 -81 7 -177 7 -176 50 -45 c100 -89 331
-225 357 -209 5 3 11 18 15 34 5 23 -3 44 -38 104 -25 41 -64 100 -87 132 -24
33 -53 91 -70 138 -15 45 -40 113 -55 151 l-28 68 6 192 c7 205 22 344 41 362
6 6 54 27 106 45 99 35 230 104 230 122 0 5 -13 31 -28 56 -26 43 -62 127 -62
145 0 11 82 -38 156 -93 45 -34 74 -66 107 -121 65 -107 77 -135 77 -172 0
-60 26 -131 118 -319 49 -103 102 -224 117 -270 34 -103 58 -134 112 -148 45
-12 26 -21 211 98 69 45 117 99 139 156 17 44 17 45 -30 45 -23 0 -88 15 -142
33 l-100 33 -48 92 c-38 74 -52 113 -68 201 -15 86 -33 138 -80 243 -88 194
-151 357 -156 403 -2 22 -9 68 -15 103 -10 62 -11 62 -79 112 l-69 50 0 68 c0
60 3 71 25 92 39 36 81 109 100 171 13 40 26 61 45 72 22 14 30 31 48 104 11
48 28 149 38 224 16 128 16 142 1 220 -10 46 -17 103 -17 126 0 36 5 45 41 73
44 35 119 175 175 323 26 71 37 86 114 160 47 45 98 102 114 127 30 48 170
162 234 190 21 9 52 33 70 54 30 34 32 42 32 107 0 87 -23 137 -74 162 -41 19
-42 19 -106 5z"/>
</g>
</svg>
