<?xml version="1.0" standalone="no"?>
<!DOCTYPE svg PUBLIC "-//W3C//DTD SVG 20010904//EN"
 "http://www.w3.org/TR/2001/REC-SVG-20010904/DTD/svg10.dtd">
<svg version="1.0" xmlns="http://www.w3.org/2000/svg"
 width="196.000000pt" height="397.000000pt" viewBox="0 0 196.000000 397.000000"
 preserveAspectRatio="xMidYMid meet">
<metadata>
Created by potrace 1.14, written by Peter Selinger 2001-2017
</metadata>
<g transform="translate(0.000000,397.000000) scale(0.100000,-0.100000)"
fill="#000000" stroke="none">
<path fill="#000000" stroke="none" d="M1215 3940 c-90 -26 -104 -33 -138 -72
-78 -88 -84 -100 -112 -223 -15 -66 -34 -136 -42 -156 -18 -47 -93 -102 -341
-251 l-194 -116 -40 -74 c-43 -78 -158 -433 -158 -486 0 -17 -21 -86 -46 -154
-38 -102 -50 -151 -70 -288 -13 -91 -24 -206 -24 -257 0 -88 -35 -427 -46
-445 -5 -8 23 -279 30 -285 13 -14 27 40 32 128 6 96 14 128 110 424 91 283
107 344 139 526 19 114 56 293 81 399 l45 193 87 151 87 151 105 54 105 53
-97 -98 -97 -99 -45 -175 -45 -175 -20 -350 -20 -350 67 -62 c58 -53 76 -64
134 -78 66 -17 69 -19 122 -89 30 -39 89 -129 131 -201 46 -77 102 -156 139
-195 l62 -66 -19 -255 c-19 -246 -19 -259 -2 -419 17 -159 21 -238 10 -248 -7
-7 -79 15 -155 48 -36 16 -148 49 -248 75 -148 37 -204 56 -292 100 -97 49
-337 131 -349 120 -2 -3 10 -54 27 -114 37 -127 44 -251 16 -282 -14 -16 -13
-21 10 -67 l25 -50 -29 -76 c-17 -43 -30 -79 -30 -82 0 -2 135 -4 300 -4 165
0 300 -3 300 -7 0 -5 137 -7 303 -5 l304 3 14 262 15 262 -30 113 -29 113 20
257 21 257 63 165 64 165 8 -100 c11 -141 11 -140 55 -153 22 -7 42 -12 46
-12 3 0 6 38 6 85 0 47 4 85 8 85 4 0 34 -47 67 -105 46 -83 61 -102 72 -94
17 15 16 39 -6 134 -11 44 -18 81 -17 83 2 1 26 -36 55 -83 46 -76 55 -85 81
-85 17 0 30 2 30 5 0 3 -20 55 -45 117 -25 61 -43 113 -42 115 2 1 35 -20 74
-47 73 -52 87 -57 98 -40 7 12 -33 70 -145 210 -99 124 -96 117 -70 145 l23
24 37 -19 c32 -17 39 -17 44 -5 10 28 -16 130 -50 191 -29 52 -40 63 -75 73
-23 7 -48 15 -57 18 -11 5 -13 3 -7 -7 6 -10 4 -12 -8 -7 -9 3 -35 11 -59 17
-23 7 -49 21 -56 31 -7 11 -58 42 -111 69 -76 38 -100 55 -109 77 -6 15 -13
114 -16 220 l-5 191 -47 89 c-25 48 -57 100 -71 115 -47 49 -16 68 82 49 37
-6 43 -4 85 32 37 32 44 44 42 68 -4 31 3 34 58 30 19 -1 30 7 44 30 17 29 21
31 62 25 l44 -6 0 85 c0 77 4 92 38 167 l38 83 -16 105 -15 105 -69 89 c-66
83 -75 91 -154 127 -46 22 -87 39 -90 38 -4 0 -52 -13 -107 -29z"/>
<path fill="#ffffff" stroke="none" d="M1417 2173 c3 -9 34 -29 69 -44 48 -22
70 -39 94 -74 l31 -45 -26 10 c-15 6 -66 10 -114 10 l-88 0 -7 46 c-3 26 -6
67 -6 91 0 41 1 43 21 33 11 -6 23 -18 26 -27z"/>
</g>
</svg>
