<?xml version="1.0" standalone="no"?>
<!DOCTYPE svg PUBLIC "-//W3C//DTD SVG 20010904//EN"
 "http://www.w3.org/TR/2001/REC-SVG-20010904/DTD/svg10.dtd">
<svg version="1.0" xmlns="http://www.w3.org/2000/svg"
 width="474.000000pt" height="65.000000pt" viewBox="0 0 474.000000 65.000000"
 preserveAspectRatio="xMidYMid meet">
<metadata>
Created by potrace 1.14, written by Peter Selinger 2001-2017
</metadata>
<g transform="translate(0.000000,65.000000) scale(0.100000,-0.100000)"
fill="#000000" stroke="none">
<path fill="#000000" stroke="none" d="M7 598 c1 -29 8 -163 13 -298 6 -134
13 -246 15 -248 2 -3 123 25 267 61 l263 65 155 -14 c141 -14 172 -20 341 -74
l187 -60 178 0 c99 0 287 -7 419 -16 l240 -16 239 60 c210 53 242 64 270 90
27 26 56 37 211 76 l180 45 277 -16 277 -15 598 67 c329 37 599 69 600 69 4 4
-15 247 -20 252 -2 3 -1046 9 -2318 14 -1273 5 -2332 10 -2355 10 l-41 0 4
-52z"/>
</g>
</svg>
