<?xml version="1.0" standalone="no"?>
<!DOCTYPE svg PUBLIC "-//W3C//DTD SVG 20010904//EN"
 "http://www.w3.org/TR/2001/REC-SVG-20010904/DTD/svg10.dtd">
<svg version="1.0" xmlns="http://www.w3.org/2000/svg"
 width="109.000000pt" height="139.000000pt" viewBox="0 0 109.000000 139.000000"
 preserveAspectRatio="xMidYMid meet">
<metadata>
Created by potrace 1.14, written by Peter Selinger 2001-2017
</metadata>
<g transform="translate(0.000000,139.000000) scale(0.100000,-0.100000)"
fill="#000000" stroke="none">
<path fill="#000000" stroke="none" d="M288 1348 c-29 -22 -57 -44 -62 -49 -5
-4 -15 -42 -22 -83 -12 -72 -12 -79 11 -146 16 -47 22 -81 18 -105 -4 -22 0
-46 8 -62 12 -22 11 -27 -4 -38 -17 -12 -16 -14 12 -20 36 -8 38 -13 14 -31
-17 -13 -17 -13 0 -14 14 0 9 -10 -24 -49 -35 -41 -46 -48 -61 -40 -15 8 -21
2 -43 -47 -14 -31 -25 -60 -25 -64 0 -5 -25 -39 -55 -75 -48 -59 -55 -73 -55
-111 0 -24 7 -58 16 -76 17 -36 86 -94 119 -100 16 -3 23 -20 40 -103 11 -55
24 -105 27 -111 4 -6 29 -14 55 -18 56 -7 63 0 63 69 0 38 3 46 12 37 18 -18
28 -15 28 8 0 10 9 24 20 30 17 9 31 5 79 -25 32 -19 75 -42 94 -50 34 -14 37
-14 51 6 11 17 18 19 33 10 17 -8 26 -3 59 30 36 37 133 90 227 125 52 19 121
75 105 86 -19 11 -60 10 -53 -2 3 -5 -3 -10 -13 -10 -30 0 -53 76 -45 151 l6
59 51 -6 c28 -4 53 -8 55 -10 2 -2 17 4 32 13 23 14 29 24 29 53 0 30 -14 52
-99 151 -86 101 -106 119 -149 134 -71 26 -81 74 -15 75 12 0 26 8 31 18 16
31 37 155 27 159 -6 2 -32 16 -60 31 -41 23 -53 35 -69 78 -18 46 -27 55 -100
101 l-81 50 -117 6 -117 6 -53 -41z"/>
</g>
</svg>
