<?xml version="1.0" standalone="no"?>
<!DOCTYPE svg PUBLIC "-//W3C//DTD SVG 20010904//EN"
 "http://www.w3.org/TR/2001/REC-SVG-20010904/DTD/svg10.dtd">
<svg version="1.0" xmlns="http://www.w3.org/2000/svg"
 width="35.000000pt" height="60.000000pt" viewBox="0 0 35.000000 60.000000"
 preserveAspectRatio="xMidYMid meet">
<metadata>
Created by potrace 1.14, written by Peter Selinger 2001-2017
</metadata>
<g transform="translate(0.000000,60.000000) scale(0.100000,-0.100000)"
fill="#000000" stroke="none">
<path fill="#000000" stroke="none" d="M98 577 c-42 -34 -58 -85 -58 -184 0
-49 -6 -112 -13 -140 l-14 -52 81 -80 81 -80 56 6 c34 3 64 1 75 -5 11 -7 13
-12 6 -12 -7 0 -10 -4 -7 -10 3 -5 1 -10 -6 -10 -7 0 -10 -2 -8 -5 3 -2 17 -1
31 3 l26 7 -34 80 c-33 79 -33 83 -34 230 l0 150 -72 63 c-39 34 -74 62 -77
62 -3 0 -18 -10 -33 -23z"/>
<path fill="#000000" stroke="none" d="M215 20 c-19 -7 -19 -8 -2 -15 19 -8
31 -2 26 13 -2 5 -13 6 -24 2z"/>
</g>
</svg>
