<?xml version="1.0" standalone="no"?>
<!DOCTYPE svg PUBLIC "-//W3C//DTD SVG 20010904//EN"
 "http://www.w3.org/TR/2001/REC-SVG-20010904/DTD/svg10.dtd">
<svg version="1.0" xmlns="http://www.w3.org/2000/svg"
 width="151.000000pt" height="299.000000pt" viewBox="0 0 151.000000 299.000000"
 preserveAspectRatio="xMidYMid meet">
<metadata>
Created by potrace 1.14, written by Peter Selinger 2001-2017
</metadata>
<g transform="translate(0.000000,299.000000) scale(0.100000,-0.100000)"
fill="#000000" stroke="none">
<path fill="#000000" stroke="none" d="M644 2961 c-57 -27 -65 -35 -98 -97
-33 -62 -37 -80 -46 -189 -14 -176 -16 -180 -79 -218 l-54 -32 -94 -250 c-76
-202 -99 -279 -123 -399 -17 -83 -26 -152 -21 -155 56 -37 121 -86 121 -91 0
-3 -27 -19 -60 -35 -59 -28 -60 -29 -90 -108 -35 -92 -35 -89 -11 -191 l19
-79 -54 -320 c-29 -177 -52 -323 -50 -325 4 -3 113 10 208 24 l37 6 21 -73
c27 -90 28 -90 -109 -231 -57 -60 -100 -108 -95 -108 5 0 103 -7 219 -15 290
-20 265 -22 265 23 0 20 -16 111 -36 202 -31 140 -39 210 -58 463 l-22 297 23
0 c12 0 46 -9 75 -19 47 -18 87 -20 372 -23 l319 -3 -6 -314 c-6 -309 -6 -315
15 -344 l21 -30 -31 -141 c-17 -77 -28 -144 -24 -148 4 -4 76 -13 160 -21 123
-10 152 -11 152 0 0 7 -11 77 -25 155 l-25 143 16 324 16 323 -37 232 -38 231
42 71 41 71 0 252 c0 199 -4 281 -21 398 l-20 147 -56 60 c-31 34 -63 64 -72
67 -9 4 -62 14 -118 24 l-103 18 0 60 c0 54 -6 70 -65 181 -59 112 -69 125
-128 169 -63 46 -66 47 -138 47 -61 0 -85 -5 -135 -29z"/>
</g>
</svg>
