<?xml version="1.0" standalone="no"?>
<!DOCTYPE svg PUBLIC "-//W3C//DTD SVG 20010904//EN"
 "http://www.w3.org/TR/2001/REC-SVG-20010904/DTD/svg10.dtd">
<svg version="1.0" xmlns="http://www.w3.org/2000/svg"
 width="70.000000pt" height="73.000000pt" viewBox="0 0 70.000000 73.000000"
 preserveAspectRatio="xMidYMid meet">
<metadata>
Created by potrace 1.14, written by Peter Selinger 2001-2017
</metadata>
<g transform="translate(0.000000,73.000000) scale(0.100000,-0.100000)"
fill="#000000" stroke="none">
<path fill="#000000" stroke="none" d="M283 723 c-19 -2 -45 -17 -61 -33 -24
-23 -29 -37 -30 -81 -1 -36 4 -59 14 -71 19 -20 11 -38 -19 -38 -14 -1 -33
-16 -52 -42 -24 -32 -42 -44 -85 -57 l-55 -17 52 -27 52 -27 30 25 c27 23 30
24 35 8 9 -28 10 -88 3 -100 -4 -6 -36 -21 -72 -34 -36 -12 -65 -26 -65 -29 0
-4 57 -5 128 -3 70 2 136 4 147 4 60 0 96 -18 205 -100 80 -61 126 -90 152
-94 l38 -6 -13 32 c-8 18 -32 45 -58 62 -25 17 -68 49 -96 73 -36 30 -60 42
-82 42 -17 0 -31 3 -31 6 0 4 20 29 45 55 25 26 45 55 45 62 0 9 -14 17 -36
21 -29 6 -38 14 -53 49 -10 23 -32 55 -49 70 l-30 29 25 44 c18 32 23 52 18
72 -8 33 -53 113 -63 110 -4 0 -22 -3 -39 -5z"/>
</g>
</svg>
