<?xml version="1.0" standalone="no"?>
<!DOCTYPE svg PUBLIC "-//W3C//DTD SVG 20010904//EN"
 "http://www.w3.org/TR/2001/REC-SVG-20010904/DTD/svg10.dtd">
<svg version="1.0" xmlns="http://www.w3.org/2000/svg"
 width="64.000000pt" height="71.000000pt" viewBox="0 0 64.000000 71.000000"
 preserveAspectRatio="xMidYMid meet">
<metadata>
Created by potrace 1.14, written by Peter Selinger 2001-2017
</metadata>
<g transform="translate(0.000000,71.000000) scale(0.100000,-0.100000)"
fill="#000000" stroke="none">
<path fill="#000000" stroke="none" d="M30 688 c0 -13 4 -28 8 -34 5 -8 146
-131 171 -150 2 -2 0 -36 -4 -76 -6 -72 -7 -74 -52 -107 -58 -45 -106 -121
-131 -210 l-20 -71 24 0 c18 0 31 11 52 46 42 71 44 73 88 80 l40 6 -8 -77
c-5 -42 -8 -78 -6 -80 2 -1 17 -6 35 -10 30 -6 33 -4 47 29 8 19 33 55 55 79
34 36 44 58 61 128 11 46 20 101 20 122 l0 38 44 -33 c31 -24 54 -53 77 -101
36 -73 51 -91 86 -100 21 -5 22 -2 16 21 -3 15 -16 43 -28 63 -13 19 -39 68
-60 109 -20 40 -55 97 -76 125 -28 37 -39 62 -39 87 0 26 -7 39 -30 56 -37 27
-86 29 -99 3 -14 -25 -35 -32 -68 -21 -15 5 -46 14 -69 20 -23 5 -62 26 -88
45 -44 35 -46 35 -46 13z"/>
</g>
</svg>
