<?xml version="1.0" standalone="no"?>
<!DOCTYPE svg PUBLIC "-//W3C//DTD SVG 20010904//EN"
 "http://www.w3.org/TR/2001/REC-SVG-20010904/DTD/svg10.dtd">
<svg version="1.0" xmlns="http://www.w3.org/2000/svg"
 width="115.000000pt" height="166.000000pt" viewBox="0 0 115.000000 166.000000"
 preserveAspectRatio="xMidYMid meet">
<metadata>
Created by potrace 1.14, written by Peter Selinger 2001-2017
</metadata>
<g transform="translate(0.000000,166.000000) scale(0.100000,-0.100000)"
fill="#000000" stroke="none">
<path fill="#000000" stroke="none" d="M510 1653 c-43 -5 -96 -44 -103 -75
-25 -115 -62 -226 -80 -244 -19 -19 -93 -60 -191 -105 -16 -8 -30 -18 -31 -24
-32 -113 -105 -453 -105 -487 0 -41 3 -46 35 -64 32 -17 35 -22 35 -65 0 -64
83 -223 143 -271 63 -52 80 -58 173 -65 81 -6 85 -7 62 -21 -12 -8 -36 -30
-52 -49 -29 -34 -29 -35 -17 -86 7 -29 19 -62 27 -74 l14 -22 66 19 c37 11 68
21 69 22 1 2 6 23 11 48 8 40 17 50 84 101 52 39 116 74 210 113 221 93 299
157 285 233 -17 93 -42 110 -170 119 -52 4 -98 11 -101 16 -4 5 3 20 15 32 31
33 20 82 -21 90 -69 14 -125 7 -156 -19 -17 -14 -32 -25 -35 -25 -3 0 -13 24
-22 53 -10 31 -30 64 -50 82 -26 25 -34 42 -44 96 -6 37 -11 87 -11 112 0 44
2 48 39 67 46 23 68 48 100 118 14 29 28 52 32 52 4 0 17 -8 30 -19 21 -17 26
-17 66 -4 l44 15 -27 47 c-14 25 -42 61 -61 79 -19 19 -42 50 -50 70 -25 60
-63 103 -110 123 -25 10 -50 18 -56 17 -7 0 -28 -3 -47 -5z"/>
</g>
</svg>
