<?xml version="1.0" standalone="no"?>
<!DOCTYPE svg PUBLIC "-//W3C//DTD SVG 20010904//EN"
 "http://www.w3.org/TR/2001/REC-SVG-20010904/DTD/svg10.dtd">
<svg version="1.0" xmlns="http://www.w3.org/2000/svg"
 width="19.000000pt" height="121.000000pt" viewBox="0 0 19.000000 121.000000"
 preserveAspectRatio="xMidYMid meet">
<metadata>
Created by potrace 1.14, written by Peter Selinger 2001-2017
</metadata>
<g transform="translate(0.000000,121.000000) scale(0.100000,-0.100000)"
fill="#000000" stroke="none">
<path fill="#000000" stroke="none" d="M1 938 c-1 -250 1 -283 18 -330 14 -38
21 -92 25 -190 3 -79 10 -145 17 -156 10 -15 8 -33 -10 -90 -35 -117 -23 -157
49 -162 61 -5 69 -1 81 40 11 37 10 43 -15 81 -23 34 -26 47 -21 80 4 23 14
43 26 49 17 10 19 23 19 144 0 106 -4 148 -20 198 -21 68 -26 221 -10 328 4
30 5 85 2 123 -4 55 -8 67 -23 67 -9 0 -42 10 -73 21 -45 17 -56 26 -59 48 -2
14 -5 -99 -6 -251z"/>
</g>
</svg>
