<?xml version="1.0" standalone="no"?>
<!DOCTYPE svg PUBLIC "-//W3C//DTD SVG 20010904//EN"
 "http://www.w3.org/TR/2001/REC-SVG-20010904/DTD/svg10.dtd">
<svg version="1.0" xmlns="http://www.w3.org/2000/svg"
 width="97.000000pt" height="21.000000pt" viewBox="0 0 97.000000 21.000000"
 preserveAspectRatio="xMidYMid meet">
<metadata>
Created by potrace 1.14, written by Peter Selinger 2001-2017
</metadata>
<g transform="translate(0.000000,21.000000) scale(0.100000,-0.100000)"
fill="#000000" stroke="none">
<path fill="#000000" stroke="none" d="M180 196 c0 -24 17 -28 23 -6 3 13 0
20 -9 20 -8 0 -14 -6 -14 -14z"/>
<path fill="#000000" stroke="none" d="M918 203 c12 -2 30 -2 40 0 9 3 -1 5
-23 4 -22 0 -30 -2 -17 -4z"/>
<path fill="#000000" stroke="none" d="M0 35 c0 -25 4 -35 16 -35 11 0 14 5
10 16 -3 9 -6 24 -6 35 0 10 -4 19 -10 19 -5 0 -10 -16 -10 -35z"/>
</g>
</svg>
