<?xml version="1.0" standalone="no"?>
<!DOCTYPE svg PUBLIC "-//W3C//DTD SVG 20010904//EN"
 "http://www.w3.org/TR/2001/REC-SVG-20010904/DTD/svg10.dtd">
<svg version="1.0" xmlns="http://www.w3.org/2000/svg"
 width="119.000000pt" height="326.000000pt" viewBox="0 0 119.000000 326.000000"
 preserveAspectRatio="xMidYMid meet">
<metadata>
Created by potrace 1.14, written by Peter Selinger 2001-2017
</metadata>
<g transform="translate(0.000000,326.000000) scale(0.100000,-0.100000)"
fill="#000000" stroke="none">
<path fill="#000000" stroke="none" d="M194 3251 c-35 -5 -49 -15 -83 -56 -37
-45 -41 -55 -41 -107 0 -38 10 -84 29 -136 l29 -79 -48 -54 c-26 -30 -46 -57
-43 -62 2 -4 -4 -44 -13 -90 -14 -62 -18 -130 -18 -282 -1 -211 12 -305 55
-398 12 -27 19 -65 19 -107 0 -35 7 -83 16 -107 15 -39 15 -49 0 -130 -11 -59
-16 -145 -16 -261 l0 -173 -26 -23 -27 -22 42 -144 c23 -79 62 -242 87 -364
34 -171 52 -238 79 -295 32 -66 35 -81 35 -161 0 -66 5 -100 21 -139 l22 -51
84 0 c110 0 107 -10 84 245 -9 110 -19 162 -46 245 -41 124 -64 315 -65 532 0
127 14 238 31 238 3 0 16 -24 28 -53 13 -31 41 -73 67 -98 37 -37 53 -65 103
-194 91 -233 89 -223 73 -329 l-14 -91 77 -180 c42 -99 87 -211 99 -250 21
-68 23 -70 58 -73 19 -2 70 6 111 16 70 18 80 24 129 77 l54 58 -20 58 -21 59
-56 0 c-59 0 -69 7 -69 52 0 11 -25 64 -55 117 l-55 97 0 121 c0 84 -4 123
-12 125 -7 3 -26 101 -49 249 -28 187 -43 258 -64 304 -27 61 -65 257 -71 365
-1 30 -5 74 -9 98 -5 36 -1 51 24 99 24 43 31 69 31 110 l0 53 59 0 60 0 34
58 c29 48 37 73 47 158 l12 101 -47 89 c-26 49 -70 123 -98 165 -44 65 -61 81
-124 117 -59 34 -82 42 -125 43 -35 0 -46 3 -34 8 18 7 18 8 2 14 -10 4 -35 7
-57 7 -21 0 -39 2 -39 5 0 3 12 28 26 56 26 49 27 54 20 166 -4 64 -11 124
-17 135 -31 58 -155 88 -285 69z"/>
</g>
</svg>
