<?xml version="1.0" standalone="no"?>
<!DOCTYPE svg PUBLIC "-//W3C//DTD SVG 20010904//EN"
 "http://www.w3.org/TR/2001/REC-SVG-20010904/DTD/svg10.dtd">
<svg version="1.0" xmlns="http://www.w3.org/2000/svg"
 width="565.000000pt" height="279.000000pt" viewBox="0 0 565.000000 279.000000"
 preserveAspectRatio="xMidYMid meet">
<metadata>
Created by potrace 1.14, written by Peter Selinger 2001-2017
</metadata>
<g transform="translate(0.000000,279.000000) scale(0.100000,-0.100000)"
fill="#000000" stroke="none">
<path fill="#000000" stroke="none" d="M3766 2762 c-291 -44 -524 -162 -637
-323 -23 -32 -45 -59 -50 -59 -4 0 -24 -16 -45 -35 -20 -19 -40 -35 -45 -35
-4 0 -3 -14 3 -30 17 -50 5 -63 -50 -57 -73 9 -166 24 -188 31 -27 8 -127 -36
-148 -66 -9 -13 -16 -43 -16 -69 0 -85 -9 -106 -49 -122 -20 -8 -53 -17 -73
-21 l-38 -7 0 -63 c0 -39 5 -69 15 -82 17 -22 21 -158 5 -198 -13 -35 -53 -53
-140 -61 -81 -7 -146 -25 -225 -62 -27 -12 -64 -23 -81 -23 -30 0 -32 2 -37
48 -16 121 -40 150 -110 131 -56 -15 -112 -61 -146 -120 l-27 -48 -18 29 c-11
19 -25 30 -39 30 -12 0 -31 3 -42 6 -13 3 -37 -8 -71 -33 l-51 -38 12 -35 c7
-20 16 -51 20 -69 l7 -34 -38 8 c-22 4 -41 8 -43 10 -2 2 1 18 7 34 13 37 -11
117 -52 178 -15 21 -31 54 -36 73 -5 20 -33 61 -61 93 -41 47 -56 57 -82 57
l-32 0 0 83 c0 97 6 109 80 142 28 13 74 47 105 80 30 31 72 65 93 76 44 23
44 23 56 109 5 36 12 72 16 81 5 13 -5 18 -54 28 -70 14 -83 27 -86 87 -2 58
-20 74 -117 109 -76 27 -78 28 -78 61 0 43 -21 54 -100 54 -59 0 -62 1 -73 30
-11 29 -14 30 -69 30 l-57 0 -135 -225 -135 -224 -125 -467 -126 -467 196
-346 c190 -337 195 -346 175 -362 -59 -48 -730 -643 -728 -645 2 -2 897 -10
1989 -19 1541 -12 1991 -13 2006 -4 19 12 19 14 2 69 l-17 58 47 6 c27 4 79
19 117 35 38 16 121 41 184 55 149 36 583 163 778 229 l153 52 120 138 120
138 53 147 c41 112 59 179 75 281 l21 134 -42 201 -42 201 -261 306 -261 306
-390 205 -390 206 -174 4 c-144 2 -202 -1 -325 -20z"/>
</g>
</svg>
