<?xml version="1.0" standalone="no"?>
<!DOCTYPE svg PUBLIC "-//W3C//DTD SVG 20010904//EN"
 "http://www.w3.org/TR/2001/REC-SVG-20010904/DTD/svg10.dtd">
<svg version="1.0" xmlns="http://www.w3.org/2000/svg"
 width="109.000000pt" height="20.000000pt" viewBox="0 0 109.000000 20.000000"
 preserveAspectRatio="xMidYMid meet">
<metadata>
Created by potrace 1.14, written by Peter Selinger 2001-2017
</metadata>
<g transform="translate(0.000000,20.000000) scale(0.100000,-0.100000)"
fill="#000000" stroke="none">
<path fill="#000000" stroke="none" d="M30 173 c0 -20 14 -42 51 -79 l51 -52
-41 -7 c-27 -4 -47 -3 -56 5 -11 9 -16 7 -25 -10 -6 -12 -10 -24 -7 -26 2 -2
249 -3 548 -2 l544 3 -50 29 c-44 27 -78 34 -335 72 -157 23 -325 45 -375 49
-86 6 -251 30 -287 41 -14 4 -18 -1 -18 -23z"/>
</g>
</svg>
