<?xml version="1.0" standalone="no"?>
<!DOCTYPE svg PUBLIC "-//W3C//DTD SVG 20010904//EN"
 "http://www.w3.org/TR/2001/REC-SVG-20010904/DTD/svg10.dtd">
<svg version="1.0" xmlns="http://www.w3.org/2000/svg"
 width="112.000000pt" height="235.000000pt" viewBox="0 0 112.000000 235.000000"
 preserveAspectRatio="xMidYMid meet">
<metadata>
Created by potrace 1.14, written by Peter Selinger 2001-2017
</metadata>
<g transform="translate(0.000000,235.000000) scale(0.100000,-0.100000)"
fill="#000000" stroke="none">
<path fill="#000000" stroke="none" d="M318 2308 c-29 -22 -54 -42 -56 -44 -2
-1 -14 -105 -27 -230 -18 -165 -23 -256 -18 -325 7 -117 3 -130 -93 -321 -60
-119 -79 -168 -99 -258 -25 -109 -25 -113 -13 -289 9 -139 9 -238 0 -446 -7
-148 -11 -269 -10 -271 2 -1 19 -4 38 -6 l34 -3 49 135 c51 143 146 476 172
602 19 88 48 171 58 162 4 -4 7 -2 7 6 0 7 68 96 151 199 109 135 183 216 273
296 118 106 126 116 227 278 57 92 103 173 101 180 -1 7 -16 51 -33 99 -29 82
-36 92 -104 152 l-72 65 -154 31 c-115 22 -182 30 -266 30 l-111 0 -54 -42z"/>
<path fill="#000000" stroke="none" d="M331 705 c-3 -17 -40 -500 -38 -501
180 -154 205 -171 274 -184 37 -6 77 -14 88 -17 11 -3 -53 69 -142 161 l-163
167 -1 57 c-2 86 -15 328 -18 317z"/>
</g>
</svg>
