<?xml version="1.0" standalone="no"?>
<!DOCTYPE svg PUBLIC "-//W3C//DTD SVG 20010904//EN"
 "http://www.w3.org/TR/2001/REC-SVG-20010904/DTD/svg10.dtd">
<svg version="1.0" xmlns="http://www.w3.org/2000/svg"
 width="375.000000pt" height="250.000000pt" viewBox="0 0 375.000000 250.000000"
 preserveAspectRatio="xMidYMid meet">
<metadata>
Created by potrace 1.14, written by Peter Selinger 2001-2017
</metadata>
<g transform="translate(0.000000,250.000000) scale(0.100000,-0.100000)"
fill="#000000" stroke="none">
<path fill="#000000" stroke="none" d="M1928 2488 c24 -24 13 -183 -27 -415
-34 -197 -41 -226 -67 -260 -16 -22 -81 -106 -144 -187 -99 -127 -116 -144
-121 -124 -5 20 -6 19 -13 -12 -11 -55 -24 -197 -25 -283 l-1 -79 73 -127 73
-127 109 73 c101 68 227 141 316 184 19 10 64 23 100 29 90 16 253 89 257 115
2 15 -6 24 -28 32 -28 10 -30 15 -30 60 0 55 -9 70 -63 105 -21 14 -63 58 -93
99 l-56 74 7 64 c11 113 81 205 294 381 l53 45 -31 5 -31 5 66 55 c36 30 77
65 92 77 l26 22 -24 26 c-19 20 -33 25 -70 25 -59 0 -86 -20 -144 -108 -24
-37 -57 -81 -73 -97 -25 -28 -75 -65 -87 -65 -4 0 -5 8 -9 176 -2 83 -5 106
-21 123 -24 27 -51 35 -74 22 -15 -8 -23 -5 -41 19 -17 24 -29 30 -57 30 -27
0 -41 7 -56 25 -14 18 -29 25 -56 25 -28 0 -33 -3 -24 -12z"/>
<path fill="#000000" stroke="none" d="M3088 2204 c26 -52 48 -89 50 -80 2 8
-2 24 -7 35 -6 11 -11 31 -11 45 0 25 -53 96 -71 96 -5 0 12 -43 39 -96z"/>
<path fill="#000000" stroke="none" d="M383 2218 c-23 -12 -45 -28 -48 -36 -3
-7 -8 -58 -12 -113 l-6 -99 -29 0 c-45 0 -33 -19 32 -48 l59 -27 1 -45 c0 -25
-7 -55 -15 -67 -13 -19 -19 -20 -45 -11 -26 9 -30 15 -30 49 0 34 -5 42 -39
63 -42 27 -69 26 -110 -6 -13 -10 -33 -18 -43 -18 -19 0 -20 -5 -13 -82 5 -56
14 -92 26 -110 l20 -27 -59 -40 c-33 -22 -62 -49 -65 -61 l-5 -21 34 21 c21
13 46 20 66 18 l33 -3 7 -84 c8 -93 13 -107 23 -62 7 32 6 32 118 46 41 6 55
3 86 -18 21 -14 46 -41 55 -61 13 -29 23 -36 45 -36 15 0 35 8 45 19 14 16 15
25 5 71 -11 50 -9 120 7 246 4 35 1 74 -11 119 -12 48 -15 85 -10 129 8 69 30
193 39 216 9 22 -66 100 -95 99 -13 0 -43 -10 -66 -21z"/>
<path fill="#000000" stroke="none" d="M2805 2170 c3 -5 16 -15 28 -21 22 -12
22 -12 3 10 -19 21 -43 30 -31 11z"/>
<path fill="#000000" stroke="none" d="M3005 2006 c10 -14 19 -26 22 -26 7 0
-17 39 -28 46 -6 3 -3 -5 6 -20z"/>
<path fill="#000000" stroke="none" d="M3438 1908 l-55 -63 14 -55 c7 -30 29
-109 47 -175 19 -66 37 -151 40 -189 l7 -68 -26 6 c-34 9 -32 2 9 -23 39 -25
98 -27 116 -6 7 8 19 15 27 15 21 0 51 80 93 250 l39 155 -52 53 c-50 51 -123
111 -178 146 l-26 16 -55 -62z"/>
<path fill="#ffffff" stroke="none" d="M3560 1539 c0 -11 -4 -18 -10 -14 -5 3
-7 12 -3 20 7 21 13 19 13 -6z"/>
<path fill="#000000" stroke="none" d="M75 1899 c-10 -15 1 -23 20 -15 9 3 13
10 10 16 -8 13 -22 13 -30 -1z"/>
<path fill="#000000" stroke="none" d="M3250 1885 c0 -3 22 -46 50 -97 38 -71
50 -87 50 -66 0 15 -5 39 -11 55 -18 48 -89 134 -89 108z"/>
<path fill="#000000" stroke="none" d="M681 1631 c-78 -40 -83 -51 -75 -146 3
-44 12 -93 20 -109 23 -47 18 -91 -11 -104 -19 -9 -25 -19 -25 -42 0 -31 30
-70 53 -70 17 0 37 -42 37 -77 0 -15 6 -34 14 -42 7 -9 18 -29 23 -45 7 -24
18 -32 58 -44 44 -12 52 -12 76 2 15 9 39 16 53 16 30 0 31 -7 12 -97 -12 -55
-12 -63 1 -63 8 0 21 17 29 38 15 37 15 37 72 37 85 0 87 12 27 229 -63 227
-52 219 -251 214 l-144 -3 0 51 c0 57 48 208 80 254 26 36 20 36 -49 1z"/>
<path fill="#000000" stroke="none" d="M1552 1555 c0 -16 2 -22 5 -12 2 9 2
23 0 30 -3 6 -5 -1 -5 -18z"/>
<path fill="#000000" stroke="none" d="M3096 1555 c-10 -15 -14 -34 -11 -45 5
-16 2 -20 -17 -20 -42 0 -51 -14 -44 -63 6 -42 15 -52 104 -132 56 -50 109
-108 125 -136 33 -56 55 -62 86 -23 24 30 26 55 9 87 -6 12 -14 41 -16 65 -3
42 -3 42 31 42 39 0 80 33 53 43 -10 4 -13 1 -10 -8 4 -9 -34 4 -94 32 -97 45
-100 47 -141 114 -24 38 -46 69 -51 69 -4 0 -15 -11 -24 -25z"/>
<path fill="#000000" stroke="none" d="M845 1550 c-13 -5 -14 -9 -5 -9 8 0 24
4 35 9 13 5 14 9 5 9 -8 0 -24 -4 -35 -9z"/>
<path fill="#000000" stroke="none" d="M2303 978 c-19 -9 -53 -76 -53 -106 0
-7 -4 -12 -10 -12 -5 0 -19 -9 -30 -20 -42 -42 -12 -120 48 -120 26 0 27 -1
24 -50 -2 -28 1 -63 6 -80 11 -30 11 -30 -45 -142 -20 -40 -16 -101 9 -133 20
-25 20 -31 10 -90 -15 -76 -15 -150 -2 -174 5 -10 28 -26 50 -35 48 -19 163
-22 177 -3 10 12 36 348 48 607 3 69 8 149 11 179 6 53 6 54 -20 49 -22 -4
-38 6 -99 68 -73 75 -85 81 -124 62z"/>
</g>
</svg>
