<?xml version="1.0" standalone="no"?>
<!DOCTYPE svg PUBLIC "-//W3C//DTD SVG 20010904//EN"
 "http://www.w3.org/TR/2001/REC-SVG-20010904/DTD/svg10.dtd">
<svg version="1.0" xmlns="http://www.w3.org/2000/svg"
 width="239.000000pt" height="531.000000pt" viewBox="0 0 239.000000 531.000000"
 preserveAspectRatio="xMidYMid meet">
<metadata>
Created by potrace 1.14, written by Peter Selinger 2001-2017
</metadata>
<g transform="translate(0.000000,531.000000) scale(0.100000,-0.100000)"
fill="#000000" stroke="none">
<path fill="#000000" stroke="none" d="M850 5178 l16 -133 -109 -22 c-60 -11
-110 -23 -113 -25 -2 -3 64 -31 147 -64 l151 -59 58 -70 c31 -38 61 -79 67
-90 6 -11 30 -103 54 -205 44 -184 44 -185 109 -285 37 -55 94 -145 128 -200
53 -87 60 -105 54 -130 -8 -29 -12 -30 -88 -41 -43 -6 -104 -14 -134 -17 l-55
-7 -192 178 c-154 141 -212 203 -291 307 -91 119 -106 146 -177 310 l-78 180
-88 89 -88 89 -95 -71 c-53 -40 -96 -74 -96 -76 0 -2 -7 -40 -15 -83 -8 -43
-15 -80 -15 -83 0 -3 45 -26 101 -50 94 -41 106 -50 168 -121 115 -132 123
-143 155 -194 17 -27 67 -102 111 -165 45 -63 84 -120 88 -126 4 -6 0 -32 -9
-58 l-16 -46 160 -182 160 -183 124 -54 123 -53 -1 -122 c-2 -279 -70 -744
-145 -989 -21 -71 -39 -139 -39 -151 0 -19 12 -28 71 -51 67 -26 71 -29 65
-54 -19 -82 -28 -189 -29 -371 l-1 -205 162 -454 c89 -249 167 -463 174 -475
6 -11 51 -78 99 -148 49 -70 121 -192 161 -272 l73 -146 317 0 c175 0 318 2
318 5 0 14 -220 303 -304 400 -53 61 -96 112 -96 115 0 3 45 48 101 99 l101
94 -63 63 -62 63 46 22 c37 18 46 27 42 43 -3 12 -21 101 -40 199 l-36 179 17
178 16 179 -31 173 c-22 116 -55 247 -103 398 l-70 225 6 110 c4 61 20 212 37
338 16 125 45 379 64 564 l34 336 -40 78 c-38 77 -39 80 -39 191 0 97 4 126
31 214 l31 102 -31 94 -32 95 -197 55 -197 56 -79 -78 -79 -78 -158 219 -157
219 29 108 c16 59 31 112 33 117 3 8 -204 94 -319 132 -7 2 -5 -42 5 -129z"/>
</g>
</svg>
