<?xml version="1.0" standalone="no"?>
<!DOCTYPE svg PUBLIC "-//W3C//DTD SVG 20010904//EN"
 "http://www.w3.org/TR/2001/REC-SVG-20010904/DTD/svg10.dtd">
<svg version="1.0" xmlns="http://www.w3.org/2000/svg"
 width="99.000000pt" height="149.000000pt" viewBox="0 0 99.000000 149.000000"
 preserveAspectRatio="xMidYMid meet">
<metadata>
Created by potrace 1.14, written by Peter Selinger 2001-2017
</metadata>
<g transform="translate(0.000000,149.000000) scale(0.100000,-0.100000)"
fill="#000000" stroke="none">
<path fill="#000000" stroke="none" d="M437 1466 c-24 -13 -41 -33 -48 -54 -6
-17 -20 -37 -31 -43 -16 -9 -19 -18 -15 -43 5 -31 3 -33 -52 -54 l-58 -22 -25
-143 c-22 -125 -23 -143 -10 -154 8 -7 19 -14 24 -15 5 -2 0 -43 -12 -91 -15
-64 -17 -93 -10 -107 8 -14 7 -29 -3 -53 -8 -18 -12 -48 -9 -66 3 -19 0 -36
-7 -40 -15 -10 -97 -290 -111 -381 -6 -41 -16 -78 -23 -82 -9 -6 -9 -10 0 -19
10 -10 6 -16 -18 -31 -16 -10 -27 -23 -24 -28 4 -6 10 -8 15 -5 5 3 13 -2 18
-10 5 -11 24 -17 54 -18 49 -2 78 14 78 43 0 10 11 25 24 33 31 21 83 171 89
257 4 68 23 114 63 163 20 23 21 31 12 58 -9 26 -5 48 27 147 20 64 45 142 54
172 16 51 21 57 69 82 29 15 58 28 63 30 6 2 15 27 20 56 5 35 18 65 40 92 30
38 35 40 86 40 29 0 53 4 53 9 0 18 -75 71 -122 87 -49 16 -59 32 -34 53 22
19 -38 117 -86 142 -44 23 -43 23 -91 -5z"/>
<path fill="#000000" stroke="none" d="M867 386 c-4 -9 1 -29 11 -45 15 -27
15 -35 2 -88 -15 -59 -18 -169 -7 -215 9 -34 52 -43 88 -17 l26 18 -17 68
c-24 96 -81 276 -90 286 -4 5 -10 1 -13 -7z"/>
</g>
</svg>
