<?xml version="1.0" standalone="no"?>
<!DOCTYPE svg PUBLIC "-//W3C//DTD SVG 20010904//EN"
 "http://www.w3.org/TR/2001/REC-SVG-20010904/DTD/svg10.dtd">
<svg version="1.0" xmlns="http://www.w3.org/2000/svg"
 width="170.000000pt" height="212.000000pt" viewBox="0 0 170.000000 212.000000"
 preserveAspectRatio="xMidYMid meet">
<metadata>
Created by potrace 1.14, written by Peter Selinger 2001-2017
</metadata>
<g transform="translate(0.000000,212.000000) scale(0.100000,-0.100000)"
fill="#000000" stroke="none">
<path fill="#000000" stroke="none" d="M635 2065 l-19 -56 -18 33 -19 33 5
-52 c3 -29 3 -53 1 -53 -2 0 -20 14 -39 31 -35 30 -35 30 20 -67 l56 -98 -48
-111 c-26 -60 -52 -115 -58 -122 -6 -6 -47 -27 -90 -46 l-80 -35 -58 29 -59
30 -27 -33 c-15 -17 -48 -57 -74 -88 -39 -45 -55 -76 -86 -170 l-39 -115 55
-125 c36 -83 70 -142 99 -176 l45 -52 82 35 c75 33 90 36 188 38 81 2 115 7
135 20 16 9 10 1 -13 -19 l-42 -36 19 -61 c10 -33 19 -70 19 -81 0 -11 -18
-78 -41 -149 l-41 -128 -78 -75 -78 -74 38 -31 39 -31 86 13 87 12 17 65 c9
36 39 107 67 158 l51 93 90 -118 91 -118 -31 -45 c-17 -25 -50 -71 -74 -103
-24 -31 -43 -63 -43 -70 0 -7 15 -27 33 -45 l32 -31 70 55 c39 30 123 86 188
125 64 38 117 72 117 75 0 3 -32 65 -71 137 -39 73 -74 137 -77 142 -10 20 8
-3 140 -167 l134 -168 -7 -72 c-10 -98 -10 -140 -1 -156 7 -10 35 -1 123 34
63 26 119 52 126 57 7 5 38 40 69 78 l56 69 -23 55 c-20 48 -53 85 -257 283
l-235 227 146 21 145 22 91 63 92 63 -7 61 c-5 49 -22 91 -96 232 l-89 172
-129 80 c-100 62 -136 80 -157 76 -16 -2 -100 -7 -189 -10 l-160 -5 -58 52
-58 53 41 52 c47 59 47 67 22 181 -17 79 -22 87 -72 138 l-55 54 -19 -55z"/>
</g>
</svg>
