<?xml version="1.0" standalone="no"?>
<!DOCTYPE svg PUBLIC "-//W3C//DTD SVG 20010904//EN"
 "http://www.w3.org/TR/2001/REC-SVG-20010904/DTD/svg10.dtd">
<svg version="1.0" xmlns="http://www.w3.org/2000/svg"
 width="34.000000pt" height="62.000000pt" viewBox="0 0 34.000000 62.000000"
 preserveAspectRatio="xMidYMid meet">
<metadata>
Created by potrace 1.14, written by Peter Selinger 2001-2017
</metadata>
<g transform="translate(0.000000,62.000000) scale(0.100000,-0.100000)"
fill="#000000" stroke="none">
<path fill="#000000" stroke="none" d="M169 605 c-27 -14 -28 -19 -44 -122 -6
-39 -10 -44 -59 -66 -52 -24 -53 -25 -59 -78 -7 -59 11 -319 24 -333 4 -5 30
-3 59 4 39 9 50 16 46 29 -2 9 -7 56 -10 106 -5 80 -3 95 17 134 19 39 31 48
95 76 40 17 77 36 82 41 16 16 14 85 -4 145 -16 54 -19 57 -54 63 -20 4 -44 9
-52 11 -8 2 -27 -2 -41 -10z"/>
</g>
</svg>
