<?xml version="1.0" standalone="no"?>
<!DOCTYPE svg PUBLIC "-//W3C//DTD SVG 20010904//EN"
 "http://www.w3.org/TR/2001/REC-SVG-20010904/DTD/svg10.dtd">
<svg version="1.0" xmlns="http://www.w3.org/2000/svg"
 width="151.000000pt" height="222.000000pt" viewBox="0 0 151.000000 222.000000"
 preserveAspectRatio="xMidYMid meet">
<metadata>
Created by potrace 1.14, written by Peter Selinger 2001-2017
</metadata>
<g transform="translate(0.000000,222.000000) scale(0.100000,-0.100000)"
fill="#000000" stroke="none">
<path fill="#000000" stroke="none" d="M1166 2208 l-129 -8 -101 -77 c-56 -42
-102 -77 -102 -77 -1 -1 -9 -66 -18 -145 l-16 -144 -85 -96 c-47 -53 -107
-121 -134 -151 l-50 -56 33 -157 33 -156 -43 -18 -42 -17 19 -49 20 -49 -23 5
c-116 29 -161 30 -278 2 -63 -15 -122 -29 -132 -31 -19 -5 -118 -175 -118
-202 0 -10 20 -106 45 -213 34 -150 43 -203 36 -226 -9 -31 -27 -313 -20 -313
2 0 42 -7 89 -15 47 -8 88 -15 91 -15 8 0 117 175 169 272 36 67 56 89 156
175 64 54 137 112 163 128 26 17 103 76 172 132 163 134 196 182 238 351 21
82 31 150 32 200 0 43 3 106 7 142 7 63 11 70 78 150 82 99 260 401 248 422
-16 27 -198 248 -204 247 -3 -1 -63 -6 -134 -11z"/>
</g>
</svg>
