<?xml version="1.0" standalone="no"?>
<!DOCTYPE svg PUBLIC "-//W3C//DTD SVG 20010904//EN"
 "http://www.w3.org/TR/2001/REC-SVG-20010904/DTD/svg10.dtd">
<svg version="1.0" xmlns="http://www.w3.org/2000/svg"
 width="31.000000pt" height="40.000000pt" viewBox="0 0 31.000000 40.000000"
 preserveAspectRatio="xMidYMid meet">
<metadata>
Created by potrace 1.14, written by Peter Selinger 2001-2017
</metadata>
<g transform="translate(0.000000,40.000000) scale(0.100000,-0.100000)"
fill="#000000" stroke="none">
<path fill="#000000" stroke="none" d="M176 382 c-38 -14 -51 -25 -62 -52 -13
-29 -13 -39 2 -83 l17 -50 -67 -59 c-36 -33 -66 -65 -66 -72 0 -7 13 -25 30
-41 27 -26 32 -27 56 -16 15 6 50 31 78 55 28 24 71 57 96 74 l45 30 -4 109
c-1 59 -4 109 -4 110 -1 0 -18 4 -37 7 -21 3 -54 -2 -84 -12z"/>
</g>
</svg>
