<?xml version="1.0" standalone="no"?>
<!DOCTYPE svg PUBLIC "-//W3C//DTD SVG 20010904//EN"
 "http://www.w3.org/TR/2001/REC-SVG-20010904/DTD/svg10.dtd">
<svg version="1.0" xmlns="http://www.w3.org/2000/svg"
 width="78.000000pt" height="257.000000pt" viewBox="0 0 78.000000 257.000000"
 preserveAspectRatio="xMidYMid meet">
<metadata>
Created by potrace 1.14, written by Peter Selinger 2001-2017
</metadata>
<g transform="translate(0.000000,257.000000) scale(0.100000,-0.100000)"
fill="#000000" stroke="none">
<path fill="#000000" stroke="none" d="M319 2563 c-36 -4 -36 -4 -54 -80 -11
-50 -17 -109 -16 -170 l2 -93 -43 0 -44 0 -31 -97 c-19 -58 -34 -132 -38 -183
-4 -46 -22 -186 -41 -310 -19 -124 -34 -231 -34 -237 0 -7 20 -18 43 -24 40
-10 46 -15 65 -62 11 -29 22 -74 25 -100 3 -30 13 -57 25 -70 12 -12 33 -49
49 -82 l28 -60 3 -328 3 -328 -102 2 -101 2 -30 -72 c-17 -40 -29 -73 -27 -75
2 -2 64 -24 137 -50 98 -34 148 -46 190 -46 54 0 58 -2 79 -34 16 -26 35 -38
70 -49 48 -14 61 -11 121 28 1 1 -9 33 -24 71 -14 38 -36 108 -49 156 -25 95
-25 101 20 253 16 55 28 140 39 275 26 300 24 290 52 280 14 -6 34 -6 48 0 45
17 53 67 76 480 l22 385 -20 79 c-23 90 -43 112 -152 170 -85 45 -110 91 -110
203 0 97 -20 134 -87 157 -26 9 -49 15 -52 14 -3 -1 -22 -3 -42 -5z"/>
</g>
</svg>
