<?xml version="1.0" standalone="no"?>
<!DOCTYPE svg PUBLIC "-//W3C//DTD SVG 20010904//EN"
 "http://www.w3.org/TR/2001/REC-SVG-20010904/DTD/svg10.dtd">
<svg version="1.0" xmlns="http://www.w3.org/2000/svg"
 width="55.000000pt" height="47.000000pt" viewBox="0 0 55.000000 47.000000"
 preserveAspectRatio="xMidYMid meet">
<metadata>
Created by potrace 1.14, written by Peter Selinger 2001-2017
</metadata>
<g transform="translate(0.000000,47.000000) scale(0.100000,-0.100000)"
fill="#000000" stroke="none">
<path fill="#000000" stroke="none" d="M220 463 c-35 -13 -70 -57 -70 -88 0
-29 -25 -70 -129 -205 l-19 -26 51 -28 c29 -16 78 -49 110 -74 l58 -44 102 27
c56 16 111 29 122 30 14 1 25 17 40 61 12 32 31 78 43 102 13 23 20 47 17 52
-12 19 -71 44 -130 55 -58 11 -60 12 -65 46 -4 19 -15 49 -25 67 -16 27 -25
32 -55 31 -19 0 -42 -3 -50 -6z"/>
</g>
</svg>
