<?xml version="1.0" standalone="no"?>
<!DOCTYPE svg PUBLIC "-//W3C//DTD SVG 20010904//EN"
 "http://www.w3.org/TR/2001/REC-SVG-20010904/DTD/svg10.dtd">
<svg version="1.0" xmlns="http://www.w3.org/2000/svg"
 width="58.000000pt" height="143.000000pt" viewBox="0 0 58.000000 143.000000"
 preserveAspectRatio="xMidYMid meet">
<metadata>
Created by potrace 1.14, written by Peter Selinger 2001-2017
</metadata>
<g transform="translate(0.000000,143.000000) scale(0.100000,-0.100000)"
fill="#000000" stroke="none">
<path fill="#000000" stroke="none" d="M305 1407 c-32 -18 -41 -30 -45 -57 -3
-19 -1 -48 6 -65 14 -38 2 -84 -30 -114 -37 -35 -88 -22 -162 39 l-59 49 -9
-25 c-15 -45 1 -90 45 -124 38 -31 42 -32 139 -32 55 0 100 0 100 -1 0 -1 -9
-48 -20 -105 -15 -76 -20 -143 -20 -260 l0 -157 55 -74 c57 -79 57 -78 68
-254 4 -54 2 -60 -26 -81 -22 -17 -28 -28 -23 -44 6 -17 18 -22 64 -27 72 -8
86 -15 90 -49 4 -29 32 -35 77 -14 24 11 25 15 25 95 0 59 -9 122 -31 215
l-32 132 16 132 c11 95 12 143 5 171 -5 21 -9 104 -8 185 1 138 0 149 -24 196
l-25 50 23 16 c22 14 23 18 13 52 -8 28 -27 49 -72 82 -33 24 -66 55 -73 68
-15 29 -17 29 -67 1z"/>
</g>
</svg>
