<?xml version="1.0" standalone="no"?>
<!DOCTYPE svg PUBLIC "-//W3C//DTD SVG 20010904//EN"
 "http://www.w3.org/TR/2001/REC-SVG-20010904/DTD/svg10.dtd">
<svg version="1.0" xmlns="http://www.w3.org/2000/svg"
 width="61.000000pt" height="59.000000pt" viewBox="0 0 61.000000 59.000000"
 preserveAspectRatio="xMidYMid meet">
<metadata>
Created by potrace 1.14, written by Peter Selinger 2001-2017
</metadata>
<g transform="translate(0.000000,59.000000) scale(0.100000,-0.100000)"
fill="#000000" stroke="none">
<path fill="#000000" stroke="none" d="M50 562 l-45 -27 14 -117 14 -116 71
-30 c70 -29 72 -30 111 -103 66 -123 67 -124 152 -149 63 -19 90 -22 156 -17
44 4 82 9 85 11 2 3 -11 30 -30 62 -32 51 -43 60 -117 95 l-82 38 -11 -25 -12
-25 -13 32 c-19 45 -17 51 27 101 28 32 43 61 51 97 10 49 10 51 -23 92 -18
23 -57 57 -86 75 -49 32 -58 34 -135 34 -72 0 -88 -4 -127 -28z"/>
</g>
</svg>
