<?xml version="1.0" standalone="no"?>
<!DOCTYPE svg PUBLIC "-//W3C//DTD SVG 20010904//EN"
 "http://www.w3.org/TR/2001/REC-SVG-20010904/DTD/svg10.dtd">
<svg version="1.0" xmlns="http://www.w3.org/2000/svg"
 width="172.000000pt" height="393.000000pt" viewBox="0 0 172.000000 393.000000"
 preserveAspectRatio="xMidYMid meet">
<metadata>
Created by potrace 1.14, written by Peter Selinger 2001-2017
</metadata>
<g transform="translate(0.000000,393.000000) scale(0.100000,-0.100000)"
fill="#000000" stroke="none">
<path fill="#000000" stroke="none" d="M1069 3910 c-111 -14 -182 -30 -292
-65 l-146 -46 -139 -112 -138 -112 -130 -209 c-139 -225 -177 -307 -199 -431
-8 -44 -17 -93 -20 -110 -6 -28 0 -35 96 -110 56 -44 107 -89 114 -100 8 -11
32 -90 54 -175 23 -85 58 -202 78 -259 35 -98 53 -129 136 -233 l30 -38 -6
-174 -5 -173 53 -7 c42 -5 66 -1 105 14 28 11 54 20 59 20 9 0 51 -99 51 -120
0 -8 -9 -42 -20 -74 -12 -36 -20 -86 -20 -128 0 -38 -6 -81 -14 -96 -7 -15
-16 -51 -19 -81 -4 -35 -17 -70 -37 -101 -27 -43 -31 -59 -37 -148 -4 -64 -2
-111 5 -132 10 -26 8 -50 -8 -123 -11 -50 -20 -94 -20 -98 0 -4 111 -44 248
-90 l247 -82 225 -132 c124 -73 249 -144 278 -159 l52 -26 0 92 c0 51 7 282
14 513 9 255 11 438 6 465 -16 82 -12 469 6 557 14 66 16 147 15 513 -2 286 3
543 14 749 15 306 15 324 -6 645 -11 182 -22 332 -23 333 -5 5 -399 63 -427
62 -19 -1 -100 -9 -180 -19z"/>
</g>
</svg>
