<?xml version="1.0" standalone="no"?>
<!DOCTYPE svg PUBLIC "-//W3C//DTD SVG 20010904//EN"
 "http://www.w3.org/TR/2001/REC-SVG-20010904/DTD/svg10.dtd">
<svg version="1.0" xmlns="http://www.w3.org/2000/svg"
 width="21.000000pt" height="84.000000pt" viewBox="0 0 21.000000 84.000000"
 preserveAspectRatio="xMidYMid meet">
<metadata>
Created by potrace 1.14, written by Peter Selinger 2001-2017
</metadata>
<g transform="translate(0.000000,84.000000) scale(0.100000,-0.100000)"
fill="#000000" stroke="none">
<path fill="#000000" stroke="none" d="M95 828 c-3 -7 -11 -32 -20 -56 -8 -24
-24 -57 -35 -73 -12 -16 -19 -29 -16 -29 4 0 -1 -16 -9 -36 -12 -29 -13 -45
-5 -75 6 -21 15 -41 20 -44 15 -9 13 -192 -2 -197 -18 -6 -24 -200 -7 -250 11
-33 18 -39 65 -53 69 -20 69 -20 93 14 20 28 20 32 6 93 -12 51 -13 100 -7
239 6 154 5 184 -13 262 -18 82 -18 89 -3 98 9 5 23 23 32 39 14 29 14 31 -18
55 -35 27 -74 33 -81 13z"/>
</g>
</svg>
