<?xml version="1.0" standalone="no"?>
<!DOCTYPE svg PUBLIC "-//W3C//DTD SVG 20010904//EN"
 "http://www.w3.org/TR/2001/REC-SVG-20010904/DTD/svg10.dtd">
<svg version="1.0" xmlns="http://www.w3.org/2000/svg"
 width="70.000000pt" height="169.000000pt" viewBox="0 0 70.000000 169.000000"
 preserveAspectRatio="xMidYMid meet">
<metadata>
Created by potrace 1.14, written by Peter Selinger 2001-2017
</metadata>
<g transform="translate(0.000000,169.000000) scale(0.100000,-0.100000)"
fill="#000000" stroke="none">
<path fill="#000000" stroke="none" d="M367 1667 c-38 -22 -39 -22 -35 -77 3
-30 12 -71 21 -91 l16 -37 -81 -33 -80 -32 -41 -86 c-22 -47 -54 -104 -71
-125 l-30 -39 43 6 43 5 -5 -36 c-3 -20 -33 -156 -67 -302 l-61 -265 -10 -274
c-5 -151 -8 -276 -5 -278 2 -2 87 51 189 119 216 143 196 108 197 353 1 83 4
192 8 243 l7 94 58 23 c46 19 69 23 110 18 29 -3 55 -11 59 -17 15 -23 21 12
32 206 7 113 17 212 24 224 10 20 5 29 -51 87 -48 51 -71 67 -99 72 -39 7 -48
24 -24 44 8 7 19 33 25 59 20 91 19 98 -23 131 -47 38 -94 40 -149 8z"/>
<path fill="#000000" stroke="none" d="M48 1128 c-4 -10 -10 -41 -13 -70 l-5
-53 15 50 c15 51 17 109 3 73z"/>
</g>
</svg>
