<?xml version="1.0" standalone="no"?>
<!DOCTYPE svg PUBLIC "-//W3C//DTD SVG 20010904//EN"
 "http://www.w3.org/TR/2001/REC-SVG-20010904/DTD/svg10.dtd">
<svg version="1.0" xmlns="http://www.w3.org/2000/svg"
 width="12.000000pt" height="39.000000pt" viewBox="0 0 12.000000 39.000000"
 preserveAspectRatio="xMidYMid meet">
<metadata>
Created by potrace 1.14, written by Peter Selinger 2001-2017
</metadata>
<g transform="translate(0.000000,39.000000) scale(0.100000,-0.100000)"
fill="#000000" stroke="none">
<path fill="#000000" stroke="none" d="M64 364 c-4 -14 -4 -40 -1 -59 3 -19 1
-35 -5 -37 -5 -2 -14 -28 -20 -57 -5 -30 -16 -64 -24 -76 -10 -16 -14 -42 -12
-80 l3 -56 42 33 c35 26 43 38 43 64 0 17 7 48 15 67 10 24 15 70 15 132 0 94
0 95 -25 95 -18 0 -26 -7 -31 -26z"/>
</g>
</svg>
