<?xml version="1.0" standalone="no"?>
<!DOCTYPE svg PUBLIC "-//W3C//DTD SVG 20010904//EN"
 "http://www.w3.org/TR/2001/REC-SVG-20010904/DTD/svg10.dtd">
<svg version="1.0" xmlns="http://www.w3.org/2000/svg"
 width="26.000000pt" height="84.000000pt" viewBox="0 0 26.000000 84.000000"
 preserveAspectRatio="xMidYMid meet">
<metadata>
Created by potrace 1.14, written by Peter Selinger 2001-2017
</metadata>
<g transform="translate(0.000000,84.000000) scale(0.100000,-0.100000)"
fill="#000000" stroke="none">
<path fill="#000000" stroke="none" d="M174 832 c-14 -9 -51 -81 -119 -232
-51 -115 -51 -116 -40 -172 8 -40 21 -67 46 -95 19 -21 50 -76 69 -122 l33
-83 -26 -53 -26 -53 42 -7 c23 -3 54 -8 68 -11 21 -4 28 0 33 18 3 13 3 183 0
378 l-6 355 -27 42 c-28 45 -30 47 -47 35z"/>
</g>
</svg>
