<?xml version="1.0" standalone="no"?>
<!DOCTYPE svg PUBLIC "-//W3C//DTD SVG 20010904//EN"
 "http://www.w3.org/TR/2001/REC-SVG-20010904/DTD/svg10.dtd">
<svg version="1.0" xmlns="http://www.w3.org/2000/svg"
 width="184.000000pt" height="397.000000pt" viewBox="0 0 184.000000 397.000000"
 preserveAspectRatio="xMidYMid meet">
<metadata>
Created by potrace 1.14, written by Peter Selinger 2001-2017
</metadata>
<g transform="translate(0.000000,397.000000) scale(0.100000,-0.100000)"
fill="#000000" stroke="none">
<path fill="#000000" stroke="none" d="M783 3963 l-41 -4 -11 -67 c-6 -37 -14
-89 -19 -117 -5 -32 -13 -50 -22 -52 -59 -7 -90 -15 -90 -22 0 -5 19 -16 43
-25 24 -9 56 -29 71 -45 26 -27 26 -30 15 -73 -10 -37 -9 -52 4 -93 10 -27 17
-68 17 -91 0 -37 5 -46 35 -70 l36 -27 -104 -57 c-57 -31 -120 -69 -140 -84
-50 -38 -137 -191 -137 -240 0 -25 -6 -40 -20 -48 -14 -9 -20 -24 -20 -49 0
-32 -6 -41 -50 -75 -40 -30 -50 -44 -50 -67 0 -20 -15 -47 -51 -90 -37 -45
-49 -66 -45 -82 4 -15 -1 -28 -14 -40 -11 -10 -20 -28 -20 -40 0 -36 -48 -113
-112 -178 -32 -34 -58 -65 -58 -70 0 -15 52 -77 66 -77 7 0 16 10 19 23 4 12
23 39 43 60 36 37 36 37 48 15 6 -12 9 -39 6 -60 -11 -84 60 -12 93 94 17 52
21 58 54 65 30 7 38 15 52 53 12 33 26 51 55 67 32 18 38 27 36 48 -4 28 53
115 74 115 7 0 18 -19 24 -42 6 -24 14 -51 17 -62 9 -30 -56 -183 -86 -202
-14 -9 -61 -42 -103 -72 l-78 -55 0 -58 0 -59 30 6 c39 8 39 -9 0 -33 -16 -9
-30 -26 -30 -36 0 -17 10 -18 133 -16 l134 2 66 -49 65 -49 66 -153 c47 -111
79 -207 116 -350 l51 -197 85 -85 c63 -64 130 -153 264 -350 169 -249 178
-265 155 -268 -24 -3 -25 -6 -25 -75 0 -62 7 -92 52 -215 l53 -142 36 0 c28 0
60 17 153 81 l118 82 -6 44 c-5 39 -18 58 -91 138 l-86 93 -73 219 c-40 120
-94 260 -120 311 -25 50 -44 92 -41 92 3 0 19 -7 35 -15 32 -16 41 -6 15 15
-9 7 -61 64 -116 126 l-101 113 23 41 c13 22 25 40 28 40 3 0 30 -39 59 -85
48 -76 57 -85 83 -85 24 0 48 10 87 36 2 2 -35 142 -82 312 -61 218 -99 338
-132 408 -25 55 -61 135 -79 179 -19 44 -41 96 -49 116 l-15 36 44 52 c25 29
45 54 45 55 0 2 36 141 80 308 l80 305 -21 61 -20 60 -52 7 c-45 5 -57 12 -90
50 -22 26 -48 74 -64 119 l-26 75 38 47 c22 27 41 62 44 83 6 32 11 38 58 54
50 18 51 20 55 63 3 44 2 45 -50 79 l-53 36 7 67 c4 37 8 74 8 82 1 11 -31 22
-129 42 -125 26 -226 32 -352 21z"/>
</g>
</svg>
