<?xml version="1.0" standalone="no"?>
<!DOCTYPE svg PUBLIC "-//W3C//DTD SVG 20010904//EN"
 "http://www.w3.org/TR/2001/REC-SVG-20010904/DTD/svg10.dtd">
<svg version="1.0" xmlns="http://www.w3.org/2000/svg"
 width="124.000000pt" height="140.000000pt" viewBox="0 0 124.000000 140.000000"
 preserveAspectRatio="xMidYMid meet">
<metadata>
Created by potrace 1.14, written by Peter Selinger 2001-2017
</metadata>
<g transform="translate(0.000000,140.000000) scale(0.100000,-0.100000)"
fill="#000000" stroke="none">
<path fill="#000000" stroke="none" d="M789 1350 c-83 -48 -90 -56 -215 -215
-155 -199 -154 -198 -362 -209 -122 -7 -184 -18 -205 -36 -4 -4 20 -32 55 -62
87 -76 218 -135 332 -150 68 -8 86 -14 85 -27 0 -9 -10 -101 -22 -205 l-22
-189 -155 -52 c-195 -65 -197 -66 -202 -110 -2 -19 -3 -35 -2 -35 1 0 26 -5
55 -10 124 -24 348 -50 430 -50 88 0 88 0 104 30 15 29 15 32 -5 57 -11 14
-20 36 -20 49 0 20 5 24 29 24 l29 0 5 143 c3 100 10 158 23 197 12 38 18 87
19 159 l0 104 40 32 c36 29 55 35 201 60 l162 28 6 38 c3 21 3 44 0 53 -6 14
5 77 27 159 8 31 14 37 37 37 22 0 10 11 -68 62 -92 59 -268 168 -273 168 -1
0 -41 -22 -88 -50z"/>
</g>
</svg>
