<?xml version="1.0" standalone="no"?>
<!DOCTYPE svg PUBLIC "-//W3C//DTD SVG 20010904//EN"
 "http://www.w3.org/TR/2001/REC-SVG-20010904/DTD/svg10.dtd">
<svg version="1.0" xmlns="http://www.w3.org/2000/svg"
 width="215.000000pt" height="182.000000pt" viewBox="0 0 215.000000 182.000000"
 preserveAspectRatio="xMidYMid meet">
<metadata>
Created by potrace 1.14, written by Peter Selinger 2001-2017
</metadata>
<g transform="translate(0.000000,182.000000) scale(0.100000,-0.100000)"
fill="#000000" stroke="none">
<path fill="#000000" stroke="none" d="M243 1788 c-28 -30 -63 -115 -63 -152
0 -9 -8 -16 -18 -16 -25 0 -68 -48 -76 -85 -6 -27 -20 -62 -47 -117 -12 -23
-11 -64 0 -86 5 -9 15 -31 22 -48 l13 -32 25 19 c22 16 33 17 71 8 25 -6 57
-22 72 -36 31 -29 62 -111 52 -136 -8 -22 17 -22 56 -2 25 13 29 22 35 72 3
32 12 69 20 83 8 15 12 48 11 83 -3 49 -8 63 -33 90 -78 82 -91 195 -31 276
61 81 -39 153 -109 79z"/>
<path fill="#000000" stroke="none" d="M2032 1760 c-12 -19 -10 -20 53 -20 36
0 65 4 65 8 0 7 -77 32 -98 32 -4 0 -13 -9 -20 -20z"/>
<path fill="#000000" stroke="none" d="M1387 1752 c-10 -10 -17 -30 -17 -43 0
-15 -12 -37 -30 -54 -16 -16 -30 -34 -30 -40 0 -23 -47 -100 -61 -100 -14 0
-18 10 -45 107 -22 84 -39 100 -103 101 -47 2 -56 -1 -74 -25 -14 -19 -21 -44
-22 -82 -1 -30 -6 -61 -12 -68 -28 -35 -43 -82 -43 -133 0 -54 3 -60 51 -116
29 -32 60 -59 70 -59 10 0 21 -4 24 -10 9 -15 85 -13 85 3 1 12 83 67 101 67
5 0 9 14 9 30 0 17 5 30 10 30 6 0 10 -11 10 -23 0 -20 5 -24 36 -25 20 -1 40
-4 43 -8 3 -3 7 -57 8 -120 3 -109 4 -116 28 -137 19 -17 33 -50 56 -136 l31
-113 -23 -24 c-16 -17 -33 -24 -60 -24 -46 0 -47 -3 -50 -132 -3 -119 5 -135
58 -113 32 14 37 14 48 -2 11 -15 14 -14 28 13 15 27 16 22 10 -92 -4 -86 -3
-123 6 -128 6 -4 11 -15 11 -25 0 -48 86 -70 114 -29 22 30 20 44 -8 81 l-24
32 24 105 c33 145 38 198 19 227 -9 13 -22 23 -30 23 -8 0 -17 12 -21 28 -10
48 -24 74 -44 79 -18 5 -18 6 2 41 29 52 41 66 58 71 80 20 79 20 100 -8 l20
-26 21 25 c19 23 20 32 14 138 -9 132 0 152 66 152 21 0 41 5 44 10 3 6 15 10
25 10 27 0 60 47 60 85 0 18 -9 44 -20 58 l-20 25 25 36 c14 20 25 40 25 45 0
4 9 16 20 26 11 10 20 24 20 30 0 7 7 15 15 19 8 3 15 12 15 19 0 8 9 22 20
32 11 10 20 22 20 27 0 5 12 25 27 45 l27 35 -39 -5 c-22 -4 -60 -9 -86 -13
-42 -5 -48 -10 -85 -65 -35 -53 -42 -59 -75 -59 -19 0 -40 -5 -46 -11 -13 -13
-48 -33 -83 -49 -43 -19 -80 -62 -80 -91 0 -28 39 -69 65 -69 24 0 -6 -68 -52
-118 -7 -7 -13 -20 -13 -28 0 -8 -4 -14 -10 -14 -5 0 -17 -14 -26 -31 l-16
-32 -19 39 c-11 21 -27 53 -36 69 -24 43 -31 135 -10 135 8 0 29 16 46 35 25
29 31 45 31 81 0 40 -5 51 -36 79 -35 33 -83 115 -84 145 0 9 -7 26 -16 38
-19 28 -74 30 -97 4z"/>
<path fill="#000000" stroke="none" d="M838 1208 c-19 -23 -39 -58 -42 -75 -4
-18 -12 -35 -17 -38 -5 -4 -9 -17 -9 -29 0 -13 -7 -29 -15 -36 -8 -7 -15 -17
-15 -23 0 -6 -8 -19 -17 -29 -16 -18 -15 -29 11 -187 24 -144 26 -175 17 -226
-6 -32 -11 -60 -11 -62 0 -2 8 -3 18 -3 16 0 22 -18 40 -102 12 -57 25 -128
28 -159 l6 -56 61 -7 c99 -10 127 -8 127 10 0 28 -20 54 -43 54 -16 1 -35 20
-68 68 -45 65 -46 68 -34 103 12 32 11 38 -6 53 -10 8 -19 21 -19 28 0 6 10 2
23 -10 18 -17 36 -22 83 -22 52 -1 63 -5 95 -33 l36 -32 -9 -94 c-10 -116 -2
-131 73 -131 41 0 51 4 65 25 14 22 15 32 6 63 -6 20 -14 57 -17 82 -3 25 -8
62 -11 82 -5 29 -2 39 10 44 11 4 15 20 15 57 0 29 4 66 10 84 9 31 8 33 -41
65 -28 17 -59 31 -70 31 -10 -1 -18 1 -19 5 0 4 -2 47 -5 96 -3 85 -5 92 -35
122 -31 32 -31 34 -20 81 12 45 11 49 -10 66 -22 18 -22 19 -6 47 39 66 4 116
-88 126 l-61 6 -36 -44z"/>
<path fill="#000000" stroke="none" d="M1 250 c0 -108 0 -110 24 -116 14 -3
25 -11 25 -18 1 -6 13 -29 28 -50 34 -49 74 -64 174 -65 69 -1 79 1 92 21 19
27 21 48 4 48 -7 0 -50 18 -96 39 -75 35 -88 45 -137 112 -41 54 -55 81 -55
106 0 30 -3 33 -30 33 l-29 0 0 -110z"/>
<path fill="#000000" stroke="none" d="M703 301 c-39 -17 -39 -18 -12 -81 16
-38 24 -47 40 -43 15 4 19 14 18 52 -1 25 -4 55 -7 66 -7 19 -9 19 -39 6z"/>
<path fill="#000000" stroke="none" d="M424 216 c-3 -7 2 -31 12 -52 13 -30
18 -35 21 -21 12 47 -18 112 -33 73z"/>
<path fill="#000000" stroke="none" d="M330 150 c0 -5 7 -10 16 -10 8 0 12 5
9 10 -3 6 -10 10 -16 10 -5 0 -9 -4 -9 -10z"/>
<path fill="#000000" stroke="none" d="M553 133 c9 -2 23 -2 30 0 6 3 -1 5
-18 5 -16 0 -22 -2 -12 -5z"/>
</g>
</svg>
