<?xml version="1.0" standalone="no"?>
<!DOCTYPE svg PUBLIC "-//W3C//DTD SVG 20010904//EN"
 "http://www.w3.org/TR/2001/REC-SVG-20010904/DTD/svg10.dtd">
<svg version="1.0" xmlns="http://www.w3.org/2000/svg"
 width="12.000000pt" height="19.000000pt" viewBox="0 0 12.000000 19.000000"
 preserveAspectRatio="xMidYMid meet">
<metadata>
Created by potrace 1.14, written by Peter Selinger 2001-2017
</metadata>
<g transform="translate(0.000000,19.000000) scale(0.100000,-0.100000)"
fill="#000000" stroke="none">
<path fill="#000000" stroke="none" d="M41 176 c-6 -7 -8 -21 -5 -30 4 -10 0
-22 -9 -29 -9 -7 -19 -28 -22 -47 l-6 -35 60 -16 61 -16 0 31 c0 17 -9 46 -20
64 -11 18 -20 41 -20 51 0 28 -24 45 -39 27z"/>
<path fill="#ffffff" stroke="none" d="M60 70 c14 -25 8 -25 -15 0 -10 11 -13
20 -7 20 6 0 16 -9 22 -20z"/>
</g>
</svg>
