<?xml version="1.0" standalone="no"?>
<!DOCTYPE svg PUBLIC "-//W3C//DTD SVG 20010904//EN"
 "http://www.w3.org/TR/2001/REC-SVG-20010904/DTD/svg10.dtd">
<svg version="1.0" xmlns="http://www.w3.org/2000/svg"
 width="159.000000pt" height="137.000000pt" viewBox="0 0 159.000000 137.000000"
 preserveAspectRatio="xMidYMid meet">
<metadata>
Created by potrace 1.14, written by Peter Selinger 2001-2017
</metadata>
<g transform="translate(0.000000,137.000000) scale(0.100000,-0.100000)"
fill="#000000" stroke="none">
<path fill="#000000" stroke="none" d="M384 1328 c-65 -33 -87 -50 -114 -89
l-33 -48 7 -96 c6 -74 14 -109 38 -162 29 -65 34 -121 11 -144 -5 -5 -44 -16
-88 -25 -67 -13 -90 -24 -140 -62 -33 -25 -61 -47 -63 -48 -2 -1 11 -36 28
-78 l32 -75 61 31 c34 17 94 37 132 44 60 10 74 10 100 -4 92 -47 131 -109
205 -329 47 -137 55 -154 98 -196 l47 -46 91 19 c51 11 152 24 225 30 171 14
166 13 218 58 l44 38 -65 54 -66 54 -6 82 c-10 120 -73 254 -162 345 -63 63
-70 67 -190 110 l-124 44 0 53 c0 39 6 62 25 90 l25 38 -25 113 c-13 62 -27
116 -30 120 -4 8 -190 122 -197 120 -2 0 -39 -19 -84 -41z"/>
<path fill="#000000" stroke="none" d="M872 1319 c10 -29 6 -123 -7 -195 -6
-26 0 -34 49 -73 48 -38 56 -49 56 -77 0 -25 10 -45 35 -72 33 -37 37 -39 127
-49 93 -11 93 -11 133 17 22 15 76 38 119 51 124 36 137 52 177 213 29 120 31
137 19 165 -7 18 -24 37 -37 42 -13 5 -172 9 -353 9 l-329 0 11 -31z"/>
</g>
</svg>
