<?xml version="1.0" standalone="no"?>
<!DOCTYPE svg PUBLIC "-//W3C//DTD SVG 20010904//EN"
 "http://www.w3.org/TR/2001/REC-SVG-20010904/DTD/svg10.dtd">
<svg version="1.0" xmlns="http://www.w3.org/2000/svg"
 width="85.000000pt" height="95.000000pt" viewBox="0 0 85.000000 95.000000"
 preserveAspectRatio="xMidYMid meet">
<metadata>
Created by potrace 1.14, written by Peter Selinger 2001-2017
</metadata>
<g transform="translate(0.000000,95.000000) scale(0.100000,-0.100000)"
fill="#000000" stroke="none">
<path fill="#000000" stroke="none" d="M218 943 c-21 -2 -38 -8 -38 -14 0 -5
-18 -9 -40 -9 -31 0 -40 -4 -41 -17 0 -10 -2 -27 -4 -37 -2 -11 -9 -69 -15
-130 -6 -63 -19 -131 -31 -158 -10 -26 -19 -56 -19 -67 0 -12 -4 -21 -9 -21
-24 0 -17 -56 25 -190 24 -79 46 -145 47 -146 1 -2 40 -8 87 -13 46 -6 87 -16
91 -23 5 -7 11 -29 14 -48 12 -69 10 -69 170 -7 l146 57 27 -19 c15 -11 45
-38 67 -60 37 -39 42 -41 97 -41 32 0 58 2 58 6 0 14 -135 236 -231 380 l-107
160 -68 25 -67 25 -34 130 c-18 71 -38 150 -45 177 -8 33 -16 46 -27 45 -9 -1
-33 -3 -53 -5z"/>
</g>
</svg>
