<?xml version="1.0" standalone="no"?>
<!DOCTYPE svg PUBLIC "-//W3C//DTD SVG 20010904//EN"
 "http://www.w3.org/TR/2001/REC-SVG-20010904/DTD/svg10.dtd">
<svg version="1.0" xmlns="http://www.w3.org/2000/svg"
 width="40.000000pt" height="80.000000pt" viewBox="0 0 40.000000 80.000000"
 preserveAspectRatio="xMidYMid meet">
<metadata>
Created by potrace 1.14, written by Peter Selinger 2001-2017
</metadata>
<g transform="translate(0.000000,80.000000) scale(0.100000,-0.100000)"
fill="#000000" stroke="none">
<path fill="#000000" stroke="none" d="M133 785 c-31 -13 -36 -21 -48 -85 -4
-19 -18 -55 -30 -80 -13 -25 -31 -72 -40 -104 l-17 -58 30 -29 c60 -58 151
-212 175 -294 13 -44 30 -92 38 -107 l14 -27 71 41 72 41 -55 116 c-30 64 -65
139 -77 166 -23 51 -24 85 -3 85 19 0 14 109 -6 148 -10 17 -21 32 -25 32 -4
0 -6 31 -4 69 4 69 3 70 -27 85 -35 19 -28 19 -68 1z"/>
</g>
</svg>
