<?xml version="1.0" standalone="no"?>
<!DOCTYPE svg PUBLIC "-//W3C//DTD SVG 20010904//EN"
 "http://www.w3.org/TR/2001/REC-SVG-20010904/DTD/svg10.dtd">
<svg version="1.0" xmlns="http://www.w3.org/2000/svg"
 width="19.000000pt" height="33.000000pt" viewBox="0 0 19.000000 33.000000"
 preserveAspectRatio="xMidYMid meet">
<metadata>
Created by potrace 1.14, written by Peter Selinger 2001-2017
</metadata>
<g transform="translate(0.000000,33.000000) scale(0.100000,-0.100000)"
fill="#000000" stroke="none">
<path fill="#000000" stroke="none" d="M22 320 c-24 -10 -29 -41 -12 -84 7
-20 17 -26 37 -26 46 1 63 20 54 62 -14 60 -27 68 -79 48z"/>
<path fill="#000000" stroke="none" d="M67 183 c-4 -3 -7 -18 -7 -32 0 -14
-11 -46 -25 -70 -39 -67 -35 -80 23 -73 93 10 131 73 80 131 -21 23 -21 24 -2
8 25 -20 54 -13 54 13 0 24 -33 34 -59 18 -16 -10 -23 -10 -33 0 -14 14 -22
15 -31 5z"/>
</g>
</svg>
