<?xml version="1.0" standalone="no"?>
<!DOCTYPE svg PUBLIC "-//W3C//DTD SVG 20010904//EN"
 "http://www.w3.org/TR/2001/REC-SVG-20010904/DTD/svg10.dtd">
<svg version="1.0" xmlns="http://www.w3.org/2000/svg"
 width="28.000000pt" height="66.000000pt" viewBox="0 0 28.000000 66.000000"
 preserveAspectRatio="xMidYMid meet">
<metadata>
Created by potrace 1.14, written by Peter Selinger 2001-2017
</metadata>
<g transform="translate(0.000000,66.000000) scale(0.100000,-0.100000)"
fill="#000000" stroke="none">
<path fill="#000000" stroke="none" d="M80 646 c-6 -8 -8 -30 -4 -54 5 -33 3
-41 -12 -46 -14 -4 -25 -30 -42 -99 -31 -129 -30 -151 11 -176 34 -21 34 -21
41 -118 9 -134 13 -152 37 -146 10 3 19 10 19 17 0 6 4 4 10 -4 7 -12 11 -12
28 3 15 13 23 43 32 114 12 87 16 100 48 135 l34 38 -11 78 c-7 52 -17 82 -29
92 -10 9 -17 20 -15 26 2 5 -13 25 -32 44 -19 19 -35 43 -35 55 0 29 -63 61
-80 41z"/>
</g>
</svg>
