<?xml version="1.0" standalone="no"?>
<!DOCTYPE svg PUBLIC "-//W3C//DTD SVG 20010904//EN"
 "http://www.w3.org/TR/2001/REC-SVG-20010904/DTD/svg10.dtd">
<svg version="1.0" xmlns="http://www.w3.org/2000/svg"
 width="51.000000pt" height="55.000000pt" viewBox="0 0 51.000000 55.000000"
 preserveAspectRatio="xMidYMid meet">
<metadata>
Created by potrace 1.14, written by Peter Selinger 2001-2017
</metadata>
<g transform="translate(0.000000,55.000000) scale(0.100000,-0.100000)"
fill="#000000" stroke="none">
<path fill="#000000" stroke="none" d="M204 538 c-16 -7 -28 -32 -44 -88 -16
-57 -26 -77 -36 -73 -28 11 -65 -8 -94 -49 -24 -32 -30 -51 -30 -90 0 -94 91
-242 145 -235 27 3 43 74 28 130 -13 46 -13 45 65 96 38 26 46 28 82 19 33 -9
40 -15 40 -34 0 -18 12 -32 47 -54 87 -55 103 -36 103 117 0 88 -2 100 -30
149 -18 31 -51 68 -79 88 -44 33 -55 36 -112 35 -35 0 -74 -5 -85 -11z"/>
</g>
</svg>
