<?xml version="1.0" standalone="no"?>
<!DOCTYPE svg PUBLIC "-//W3C//DTD SVG 20010904//EN"
 "http://www.w3.org/TR/2001/REC-SVG-20010904/DTD/svg10.dtd">
<svg version="1.0" xmlns="http://www.w3.org/2000/svg"
 width="23.000000pt" height="30.000000pt" viewBox="0 0 23.000000 30.000000"
 preserveAspectRatio="xMidYMid meet">
<metadata>
Created by potrace 1.14, written by Peter Selinger 2001-2017
</metadata>
<g transform="translate(0.000000,30.000000) scale(0.100000,-0.100000)"
fill="#000000" stroke="none">
<path fill="#000000" stroke="none" d="M90 289 c-58 -23 -94 -81 -84 -134 4
-23 21 -50 50 -77 l43 -41 -22 -19 c-20 -18 -20 -19 -2 -12 11 4 43 9 70 12
36 3 55 10 67 25 25 31 22 70 -7 99 -31 31 -55 87 -55 128 0 33 -14 37 -60 19z"/>
</g>
</svg>
