<?xml version="1.0" standalone="no"?>
<!DOCTYPE svg PUBLIC "-//W3C//DTD SVG 20010904//EN"
 "http://www.w3.org/TR/2001/REC-SVG-20010904/DTD/svg10.dtd">
<svg version="1.0" xmlns="http://www.w3.org/2000/svg"
 width="28.000000pt" height="83.000000pt" viewBox="0 0 28.000000 83.000000"
 preserveAspectRatio="xMidYMid meet">
<metadata>
Created by potrace 1.14, written by Peter Selinger 2001-2017
</metadata>
<g transform="translate(0.000000,83.000000) scale(0.100000,-0.100000)"
fill="#000000" stroke="none">
<path fill="#000000" stroke="none" d="M114 811 c-20 -12 -34 -32 -43 -62 -7
-24 -26 -62 -42 -86 -37 -53 -39 -108 -6 -138 l23 -20 -8 -225 c-8 -219 -3
-280 23 -280 5 0 16 14 25 32 14 26 15 49 10 124 l-6 92 32 5 c18 2 34 4 35 3
0 0 8 -48 17 -106 16 -108 27 -130 69 -130 16 0 18 4 12 23 -4 12 -10 46 -12
75 -3 28 -9 52 -14 52 -19 0 15 315 38 341 30 35 1 132 -62 207 -22 26 -24 34
-15 58 9 24 8 31 -6 41 -24 17 -33 16 -70 -6z"/>
</g>
</svg>
