<?xml version="1.0" standalone="no"?>
<!DOCTYPE svg PUBLIC "-//W3C//DTD SVG 20010904//EN"
 "http://www.w3.org/TR/2001/REC-SVG-20010904/DTD/svg10.dtd">
<svg version="1.0" xmlns="http://www.w3.org/2000/svg"
 width="189.000000pt" height="328.000000pt" viewBox="0 0 189.000000 328.000000"
 preserveAspectRatio="xMidYMid meet">
<metadata>
Created by potrace 1.14, written by Peter Selinger 2001-2017
</metadata>
<g transform="translate(0.000000,328.000000) scale(0.100000,-0.100000)"
fill="#000000" stroke="none">
<path fill="#000000" stroke="none" d="M932 3233 c-39 -94 -83 -293 -89 -408
-5 -105 -7 -113 -41 -165 -55 -86 -260 -325 -373 -435 -85 -84 -125 -134 -241
-309 -77 -115 -145 -223 -151 -240 -5 -17 -17 -41 -25 -54 -13 -20 -13 -35 -2
-110 11 -79 20 -100 91 -229 80 -145 101 -203 174 -473 20 -74 52 -183 70
-241 l34 -107 -28 -223 c-16 -123 -28 -225 -27 -225 0 -1 231 -5 513 -9 l512
-7 -5 53 c-10 92 -43 206 -85 297 l-41 87 2 460 c1 253 3 461 4 463 10 9 135
-93 156 -128 l25 -41 5 28 5 28 133 3 134 3 -114 120 c-62 66 -132 142 -156
169 l-43 49 51 105 c27 58 50 117 50 130 0 14 -19 59 -41 101 l-42 77 7 111
c14 242 15 248 52 294 19 23 34 51 34 62 0 28 11 27 148 -10 62 -17 115 -29
117 -27 20 25 137 193 140 201 3 7 -11 23 -30 37 -37 26 -114 124 -159 201
-18 32 -26 60 -26 93 0 78 -39 136 -125 186 -39 22 -74 40 -79 40 -4 0 -55 20
-113 45 l-105 45 -148 0 -148 0 -20 -47z"/>
</g>
</svg>
