<?xml version="1.0" standalone="no"?>
<!DOCTYPE svg PUBLIC "-//W3C//DTD SVG 20010904//EN"
 "http://www.w3.org/TR/2001/REC-SVG-20010904/DTD/svg10.dtd">
<svg version="1.0" xmlns="http://www.w3.org/2000/svg"
 width="138.000000pt" height="183.000000pt" viewBox="0 0 138.000000 183.000000"
 preserveAspectRatio="xMidYMid meet">
<metadata>
Created by potrace 1.14, written by Peter Selinger 2001-2017
</metadata>
<g transform="translate(0.000000,183.000000) scale(0.100000,-0.100000)"
fill="#000000" stroke="none">
<path fill="#000000" stroke="none" d="M1067 1820 c-15 -5 -57 -12 -94 -16
-63 -6 -68 -9 -128 -68 -62 -59 -65 -64 -104 -186 -51 -155 -56 -253 -18 -304
13 -17 26 -36 30 -42 5 -8 -33 -28 -111 -59 -106 -42 -123 -53 -185 -113 -79
-77 -126 -155 -232 -387 -53 -115 -71 -163 -64 -172 13 -15 11 -17 -67 -118
-95 -123 -111 -180 -78 -277 11 -33 23 -49 42 -56 40 -15 122 -21 169 -13 24
5 86 4 140 -1 l96 -9 33 32 c30 29 34 30 70 20 22 -6 41 -11 44 -11 3 0 4 48
2 107 l-3 108 43 22 c116 60 242 96 374 109 38 3 134 27 213 52 l143 45 -7 61
c-17 146 -24 246 -25 316 0 55 -7 94 -27 151 -25 69 -32 79 -70 100 l-42 23
53 61 c63 71 91 146 101 271 6 74 4 84 -28 164 -33 83 -35 86 -113 142 -80 58
-101 65 -157 48z"/>
</g>
</svg>
