<?xml version="1.0" standalone="no"?>
<!DOCTYPE svg PUBLIC "-//W3C//DTD SVG 20010904//EN"
 "http://www.w3.org/TR/2001/REC-SVG-20010904/DTD/svg10.dtd">
<svg version="1.0" xmlns="http://www.w3.org/2000/svg"
 width="10.000000pt" height="39.000000pt" viewBox="0 0 10.000000 39.000000"
 preserveAspectRatio="xMidYMid meet">
<metadata>
Created by potrace 1.14, written by Peter Selinger 2001-2017
</metadata>
<g transform="translate(0.000000,39.000000) scale(0.100000,-0.100000)"
fill="#000000" stroke="none">
<path fill="#000000" stroke="none" d="M24 333 c-19 -64 -19 -85 -5 -193 11
-85 22 -128 34 -132 11 -4 35 65 43 124 6 45 5 47 -16 41 -27 -7 -40 10 -40
57 0 39 23 80 46 80 11 0 13 7 8 28 -10 48 -13 52 -33 52 -15 0 -23 -13 -37
-57z"/>
</g>
</svg>
