<?xml version="1.0" standalone="no"?>
<!DOCTYPE svg PUBLIC "-//W3C//DTD SVG 20010904//EN"
 "http://www.w3.org/TR/2001/REC-SVG-20010904/DTD/svg10.dtd">
<svg version="1.0" xmlns="http://www.w3.org/2000/svg"
 width="173.000000pt" height="413.000000pt" viewBox="0 0 173.000000 413.000000"
 preserveAspectRatio="xMidYMid meet">
<metadata>
Created by potrace 1.14, written by Peter Selinger 2001-2017
</metadata>
<g transform="translate(0.000000,413.000000) scale(0.100000,-0.100000)"
fill="#000000" stroke="none">
<path fill="#000000" stroke="none" d="M685 4093 c-38 -21 -95 -55 -125 -75
l-54 -38 -42 25 -42 24 26 -101 25 -102 -14 -275 -15 -276 -95 -165 c-52 -91
-136 -233 -187 -316 -81 -132 -96 -165 -128 -274 -36 -122 -36 -124 -21 -174
23 -77 30 -205 31 -606 2 -365 2 -365 30 -470 64 -243 79 -287 141 -400 46
-85 77 -162 120 -295 56 -176 58 -183 63 -321 3 -97 1 -148 -7 -163 -11 -21
-8 -24 63 -56 41 -19 87 -35 103 -35 34 0 353 37 438 50 56 9 197 0 263 -17
l23 -5 -17 38 c-66 152 -96 245 -109 338 -7 56 -25 135 -40 176 -14 41 -39
134 -56 205 -16 72 -40 159 -54 195 -24 65 -40 137 -70 304 -22 120 -13 200
31 288 36 72 44 139 25 220 l-9 37 49 10 c53 12 185 74 191 90 1 6 107 115
234 243 214 216 274 289 274 332 0 20 -42 106 -51 106 -4 0 -19 -4 -33 -10
-26 -9 -26 -9 -26 40 0 45 -2 50 -23 50 -12 0 -33 -7 -45 -16 -27 -19 -98
-155 -107 -207 -7 -36 -12 -40 -164 -121 -121 -65 -162 -83 -183 -79 -22 4
-26 9 -18 22 27 51 49 182 50 296 1 105 -2 132 -27 215 l-29 95 17 83 c9 45
18 84 20 85 2 2 51 36 108 77 119 85 131 104 131 211 0 57 -8 93 -39 182 -22
62 -50 148 -62 192 -32 120 -78 204 -132 242 -62 45 -284 153 -327 159 -27 3
-50 -4 -105 -33z"/>
</g>
</svg>
