<?xml version="1.0" standalone="no"?>
<!DOCTYPE svg PUBLIC "-//W3C//DTD SVG 20010904//EN"
 "http://www.w3.org/TR/2001/REC-SVG-20010904/DTD/svg10.dtd">
<svg version="1.0" xmlns="http://www.w3.org/2000/svg"
 width="73.000000pt" height="119.000000pt" viewBox="0 0 73.000000 119.000000"
 preserveAspectRatio="xMidYMid meet">
<metadata>
Created by potrace 1.14, written by Peter Selinger 2001-2017
</metadata>
<g transform="translate(0.000000,119.000000) scale(0.100000,-0.100000)"
fill="#000000" stroke="none">
<path fill="#000000" stroke="none" d="M356 1179 c-87 -5 -161 -11 -164 -13
-2 -3 4 -52 15 -109 l19 -104 -90 -41 c-50 -23 -102 -42 -116 -44 -23 -3 -21
-6 20 -27 25 -12 57 -37 71 -53 l26 -31 38 26 c22 15 40 25 42 24 1 -2 -5 -45
-14 -97 -12 -70 -13 -111 -7 -159 l9 -66 57 -3 56 -3 4 -164 c2 -99 7 -168 14
-175 6 -6 50 -17 98 -25 49 -7 89 -15 90 -17 1 -2 19 -24 40 -50 34 -42 43
-48 75 -47 20 1 48 4 62 8 l27 6 -50 88 -50 89 16 156 c9 86 26 191 38 232 20
72 20 83 9 265 -6 105 -14 225 -18 268 l-6 77 -76 -1 c-42 -1 -148 -6 -235
-10z"/>
</g>
</svg>
