<?xml version="1.0" standalone="no"?>
<!DOCTYPE svg PUBLIC "-//W3C//DTD SVG 20010904//EN"
 "http://www.w3.org/TR/2001/REC-SVG-20010904/DTD/svg10.dtd">
<svg version="1.0" xmlns="http://www.w3.org/2000/svg"
 width="165.000000pt" height="121.000000pt" viewBox="0 0 165.000000 121.000000"
 preserveAspectRatio="xMidYMid meet">
<metadata>
Created by potrace 1.14, written by Peter Selinger 2001-2017
</metadata>
<g transform="translate(0.000000,121.000000) scale(0.100000,-0.100000)"
fill="#000000" stroke="none">
<path fill="#000000" stroke="none" d="M438 1193 l-56 -15 49 -146 49 -146
-32 -33 c-26 -27 -40 -33 -72 -33 -39 0 -137 12 -216 26 l-34 6 69 36 69 37
19 72 c18 66 18 74 4 96 l-15 24 -114 -18 c-174 -28 -158 -18 -158 -102 0 -71
1 -74 51 -142 79 -110 154 -243 212 -377 69 -158 108 -219 184 -291 60 -57 65
-60 172 -87 60 -15 112 -26 114 -24 2 2 79 12 172 23 l168 19 123 -53 123 -53
145 -7 145 -7 5 23 c3 13 7 72 10 131 3 59 9 115 15 125 6 13 0 86 -20 233
-15 118 -28 220 -29 226 0 8 -52 14 -162 19 l-163 7 -135 87 c-74 49 -214 132
-310 186 -96 53 -198 115 -227 136 -57 42 -70 44 -155 22z"/>
</g>
</svg>
