<?xml version="1.0" standalone="no"?>
<!DOCTYPE svg PUBLIC "-//W3C//DTD SVG 20010904//EN"
 "http://www.w3.org/TR/2001/REC-SVG-20010904/DTD/svg10.dtd">
<svg version="1.0" xmlns="http://www.w3.org/2000/svg"
 width="40.000000pt" height="62.000000pt" viewBox="0 0 40.000000 62.000000"
 preserveAspectRatio="xMidYMid meet">
<metadata>
Created by potrace 1.14, written by Peter Selinger 2001-2017
</metadata>
<g transform="translate(0.000000,62.000000) scale(0.100000,-0.100000)"
fill="#000000" stroke="none">
<path fill="#000000" stroke="none" d="M55 588 c-24 -29 -26 -37 -20 -82 3
-28 13 -62 22 -75 17 -27 6 -41 -34 -41 -22 0 -23 -3 -23 -103 l0 -103 36 -35
c19 -18 48 -55 65 -80 72 -113 182 -84 263 71 31 58 36 76 30 107 -9 54 -74
154 -96 147 -27 -8 -66 53 -70 111 -3 45 -6 52 -43 76 -22 15 -54 30 -72 33
-27 4 -36 0 -58 -26z"/>
</g>
</svg>
