<?xml version="1.0" standalone="no"?>
<!DOCTYPE svg PUBLIC "-//W3C//DTD SVG 20010904//EN"
 "http://www.w3.org/TR/2001/REC-SVG-20010904/DTD/svg10.dtd">
<svg version="1.0" xmlns="http://www.w3.org/2000/svg"
 width="301.000000pt" height="317.000000pt" viewBox="0 0 301.000000 317.000000"
 preserveAspectRatio="xMidYMid meet">
<metadata>
Created by potrace 1.14, written by Peter Selinger 2001-2017
</metadata>
<g transform="translate(0.000000,317.000000) scale(0.100000,-0.100000)"
fill="#000000" stroke="none">
<path fill="#000000" stroke="none" d="M2263 3141 c-24 -17 -43 -36 -43 -41 0
-6 -22 -10 -48 -10 -59 0 -100 -32 -127 -100 -11 -25 -38 -70 -60 -101 -23
-31 -63 -97 -88 -146 -40 -78 -51 -92 -87 -108 -41 -18 -43 -18 -143 5 -150
34 -152 34 -217 10 -59 -22 -60 -23 -60 -60 l0 -37 -56 -6 c-31 -3 -58 -8 -61
-10 -2 -3 0 -31 4 -63 l9 -59 -131 -88 c-71 -49 -168 -110 -215 -136 -274
-152 -410 -237 -420 -261 -12 -27 -200 -185 -282 -237 -46 -29 -57 -44 -119
-162 l-69 -130 0 -138 c0 -104 -6 -169 -24 -263 -16 -84 -21 -127 -14 -131 6
-4 47 -17 92 -29 l81 -22 47 -71 c25 -40 66 -112 91 -162 42 -84 52 -95 140
-166 l95 -76 -51 -69 c-44 -60 -167 -258 -167 -270 0 -2 93 -4 208 -4 l207 0
35 62 c19 33 51 81 71 105 20 24 55 87 79 141 24 53 45 99 47 101 2 3 20 -11
41 -31 20 -19 78 -62 127 -95 50 -33 154 -110 233 -172 l142 -111 265 0 c145
0 266 4 269 8 2 4 6 37 7 72 l3 65 -99 151 c-55 83 -131 205 -170 273 -38 67
-111 176 -162 242 -50 66 -108 148 -127 182 -27 48 -51 74 -105 112 -42 31
-72 60 -76 75 -3 14 -27 46 -52 72 l-46 47 25 33 c18 24 44 39 89 55 35 12 71
25 81 28 14 6 17 -5 23 -82 4 -48 9 -96 11 -105 3 -9 71 -66 152 -126 116 -87
185 -129 327 -200 l180 -91 38 -65 c21 -36 42 -66 46 -66 5 0 12 -20 16 -46 5
-33 12 -48 28 -55 12 -6 30 -23 39 -40 15 -25 23 -29 62 -29 24 0 50 -2 58 -5
8 -3 26 18 48 55 29 50 42 62 77 74 24 8 65 33 91 55 26 22 62 43 79 47 23 4
33 13 38 32 5 21 -2 33 -40 72 -48 49 -46 63 6 53 15 -3 30 1 38 11 20 24 -76
81 -153 90 -51 6 -69 2 -142 -25 -46 -17 -90 -29 -98 -26 -13 5 -15 27 -14
129 2 107 -1 130 -20 176 l-22 53 25 112 c32 149 62 246 125 402 40 100 56
158 71 250 17 111 18 123 3 168 -9 27 -14 50 -13 51 2 2 31 7 64 12 l59 9 21
62 c11 34 39 89 63 122 38 55 42 65 42 121 0 65 21 130 42 130 7 0 47 -7 88
-14 73 -15 75 -14 97 7 19 19 21 27 14 57 -5 19 -12 47 -15 61 -5 24 -14 29
-96 49 l-90 22 -31 52 c-76 124 -115 176 -139 183 -21 7 -108 7 -207 2 -16 -1
-48 1 -73 5 -40 7 -49 5 -87 -23z"/>
<path fill="#ffffff" stroke="none" d="M2500 843 c0 -10 9 -37 20 -60 22 -50
19 -52 -22 -18 -16 14 -40 25 -52 25 -37 0 -37 11 1 41 41 33 53 36 53 12z"/>
</g>
</svg>
