<?xml version="1.0" standalone="no"?>
<!DOCTYPE svg PUBLIC "-//W3C//DTD SVG 20010904//EN"
 "http://www.w3.org/TR/2001/REC-SVG-20010904/DTD/svg10.dtd">
<svg version="1.0" xmlns="http://www.w3.org/2000/svg"
 width="27.000000pt" height="18.000000pt" viewBox="0 0 27.000000 18.000000"
 preserveAspectRatio="xMidYMid meet">
<metadata>
Created by potrace 1.14, written by Peter Selinger 2001-2017
</metadata>
<g transform="translate(0.000000,18.000000) scale(0.100000,-0.100000)"
fill="#000000" stroke="none">
<path fill="#000000" stroke="none" d="M11 158 c-7 -18 -2 -30 20 -56 16 -18
29 -41 29 -52 0 -47 7 -50 111 -50 l99 0 -35 51 c-34 49 -35 53 -19 70 10 11
25 19 36 19 11 0 18 7 18 20 0 19 -7 20 -125 20 -121 0 -126 -1 -134 -22z"/>
</g>
</svg>
