<?xml version="1.0" standalone="no"?>
<!DOCTYPE svg PUBLIC "-//W3C//DTD SVG 20010904//EN"
 "http://www.w3.org/TR/2001/REC-SVG-20010904/DTD/svg10.dtd">
<svg version="1.0" xmlns="http://www.w3.org/2000/svg"
 width="77.000000pt" height="133.000000pt" viewBox="0 0 77.000000 133.000000"
 preserveAspectRatio="xMidYMid meet">
<metadata>
Created by potrace 1.14, written by Peter Selinger 2001-2017
</metadata>
<g transform="translate(0.000000,133.000000) scale(0.100000,-0.100000)"
fill="#000000" stroke="none">
<path fill="#000000" stroke="none" d="M244 1293 c-51 -38 -52 -39 -73 -132
-19 -85 -26 -100 -75 -161 l-55 -68 -19 -141 c-22 -172 -16 -270 22 -325 13
-20 38 -80 55 -134 28 -87 32 -111 30 -197 -2 -116 4 -125 87 -125 60 0 58 -5
69 133 5 61 11 82 28 97 27 26 35 25 77 -4 l35 -24 22 20 22 21 12 -29 c6 -16
15 -67 20 -114 11 -101 21 -115 77 -105 69 11 76 22 65 97 -11 81 16 245 44
266 16 11 16 14 3 22 -8 5 -20 13 -26 17 -6 4 -33 54 -59 111 -26 56 -52 102
-57 102 -5 0 -21 -6 -36 -14 -50 -25 -100 -28 -179 -10 l-77 17 23 18 c13 11
30 19 38 19 8 0 28 7 46 17 19 9 59 17 95 18 l63 1 69 -91 c44 -59 74 -110 82
-140 7 -26 21 -51 30 -56 23 -12 23 3 3 61 -8 23 -15 44 -15 46 0 2 15 3 33 2
32 -3 32 -2 41 53 5 31 6 67 3 80 -6 22 -42 47 -90 63 -35 11 -178 131 -161
134 21 5 164 -54 205 -84 18 -13 34 -22 36 -21 1 2 -9 45 -25 96 -29 100 -89
189 -127 191 -43 1 -58 26 -75 127 -12 64 -18 78 -59 122 -44 48 -49 50 -111
56 -64 6 -66 6 -116 -32z"/>
<path fill="#ffffff" stroke="none" d="M445 824 c0 -33 -4 -46 -17 -50 -19 -6
-59 15 -57 31 4 37 18 60 39 66 33 8 35 5 35 -47z"/>
</g>
</svg>
