<?xml version="1.0" standalone="no"?>
<!DOCTYPE svg PUBLIC "-//W3C//DTD SVG 20010904//EN"
 "http://www.w3.org/TR/2001/REC-SVG-20010904/DTD/svg10.dtd">
<svg version="1.0" xmlns="http://www.w3.org/2000/svg"
 width="65.000000pt" height="206.000000pt" viewBox="0 0 65.000000 206.000000"
 preserveAspectRatio="xMidYMid meet">
<metadata>
Created by potrace 1.14, written by Peter Selinger 2001-2017
</metadata>
<g transform="translate(0.000000,206.000000) scale(0.100000,-0.100000)"
fill="#000000" stroke="none">
<path fill="#000000" stroke="none" d="M452 2022 c-48 -32 -51 -37 -33 -44 20
-7 21 -15 21 -132 l0 -125 -34 -6 c-20 -4 -61 -29 -98 -60 -60 -50 -66 -59
-102 -152 -21 -54 -57 -127 -80 -162 -22 -36 -40 -73 -38 -82 2 -10 -4 -28
-12 -41 -8 -13 -22 -43 -31 -68 -8 -24 -22 -51 -31 -61 -8 -9 -12 -23 -8 -32
5 -14 12 -14 54 8 42 21 54 35 87 97 l38 73 3 -79 c3 -79 3 -79 -33 -116 -39
-40 -44 -70 -16 -97 16 -16 19 -39 24 -168 7 -195 37 -347 77 -390 15 -16 32
-43 37 -60 9 -27 7 -32 -28 -57 -25 -18 -42 -41 -52 -72 l-16 -46 33 25 33 25
7 -46 c9 -71 9 -71 -44 -90 l-50 -18 26 -21 c26 -21 29 -21 114 -7 l88 15 56
161 c54 154 56 165 56 261 0 88 4 110 31 180 19 50 33 110 38 164 5 48 16 106
25 130 9 24 16 61 16 83 0 21 6 51 14 66 24 46 30 98 13 105 -22 8 -40 100
-25 132 6 14 17 25 25 25 10 0 13 27 13 128 -1 126 -1 127 -30 159 l-29 33
-141 -85 c-77 -46 -140 -81 -140 -77 0 4 17 32 38 61 33 50 46 59 126 94 69
31 93 37 107 29 15 -10 17 -1 22 86 3 63 12 115 26 148 l20 51 -32 31 c-18 17
-50 37 -72 45 -39 14 -41 13 -93 -21z"/>
</g>
</svg>
