<?xml version="1.0" standalone="no"?>
<!DOCTYPE svg PUBLIC "-//W3C//DTD SVG 20010904//EN"
 "http://www.w3.org/TR/2001/REC-SVG-20010904/DTD/svg10.dtd">
<svg version="1.0" xmlns="http://www.w3.org/2000/svg"
 width="17.000000pt" height="32.000000pt" viewBox="0 0 17.000000 32.000000"
 preserveAspectRatio="xMidYMid meet">
<metadata>
Created by potrace 1.14, written by Peter Selinger 2001-2017
</metadata>
<g transform="translate(0.000000,32.000000) scale(0.100000,-0.100000)"
fill="#000000" stroke="none">
<path fill="#000000" stroke="none" d="M43 306 c-6 -8 -9 -23 -6 -35 3 -12 -4
-44 -16 -71 -20 -46 -21 -55 -9 -113 15 -81 29 -99 44 -62 l11 28 7 -27 c7
-27 25 -36 27 -13 3 29 4 41 25 175 3 18 11 32 19 32 28 0 23 17 -16 58 -42
43 -65 51 -86 28z"/>
<path fill="#ffffff" stroke="none" d="M39 123 c0 -25 -1 -26 -9 -8 -12 27
-12 35 0 35 6 0 10 -12 9 -27z"/>
</g>
</svg>
