<?xml version="1.0" standalone="no"?>
<!DOCTYPE svg PUBLIC "-//W3C//DTD SVG 20010904//EN"
 "http://www.w3.org/TR/2001/REC-SVG-20010904/DTD/svg10.dtd">
<svg version="1.0" xmlns="http://www.w3.org/2000/svg"
 width="47.000000pt" height="41.000000pt" viewBox="0 0 47.000000 41.000000"
 preserveAspectRatio="xMidYMid meet">
<metadata>
Created by potrace 1.14, written by Peter Selinger 2001-2017
</metadata>
<g transform="translate(0.000000,41.000000) scale(0.100000,-0.100000)"
fill="#000000" stroke="none">
<path fill="#000000" stroke="none" d="M226 365 c-19 -32 -28 -65 -32 -112 -8
-94 -16 -108 -85 -133 -57 -20 -127 -69 -101 -70 22 0 366 -39 399 -45 27 -5
35 -1 49 20 16 24 16 27 -3 48 -44 50 -50 68 -40 116 7 35 6 62 -7 117 -15 64
-20 72 -52 87 -19 10 -50 17 -68 17 -30 0 -37 -6 -60 -45z"/>
</g>
</svg>
