<?xml version="1.0" standalone="no"?>
<!DOCTYPE svg PUBLIC "-//W3C//DTD SVG 20010904//EN"
 "http://www.w3.org/TR/2001/REC-SVG-20010904/DTD/svg10.dtd">
<svg version="1.0" xmlns="http://www.w3.org/2000/svg"
 width="25.000000pt" height="74.000000pt" viewBox="0 0 25.000000 74.000000"
 preserveAspectRatio="xMidYMid meet">
<metadata>
Created by potrace 1.14, written by Peter Selinger 2001-2017
</metadata>
<g transform="translate(0.000000,74.000000) scale(0.100000,-0.100000)"
fill="#000000" stroke="none">
<path fill="#000000" stroke="none" d="M103 727 c-20 -9 -22 -15 -16 -51 3
-23 8 -43 10 -45 2 -3 -14 -23 -35 -45 -61 -65 -84 -194 -43 -235 13 -13 23
-45 30 -93 6 -40 20 -102 31 -136 11 -35 20 -77 20 -94 0 -27 3 -30 23 -24 12
3 30 6 40 6 13 0 17 9 17 38 1 20 7 66 15 102 8 36 14 88 15 115 0 39 4 53 20
63 18 11 20 19 14 65 -9 78 -40 183 -63 216 -13 18 -21 45 -21 70 0 47 -21 65
-57 48z"/>
</g>
</svg>
