<?xml version="1.0" standalone="no"?>
<!DOCTYPE svg PUBLIC "-//W3C//DTD SVG 20010904//EN"
 "http://www.w3.org/TR/2001/REC-SVG-20010904/DTD/svg10.dtd">
<svg version="1.0" xmlns="http://www.w3.org/2000/svg"
 width="197.000000pt" height="186.000000pt" viewBox="0 0 197.000000 186.000000"
 preserveAspectRatio="xMidYMid meet">
<metadata>
Created by potrace 1.14, written by Peter Selinger 2001-2017
</metadata>
<g transform="translate(0.000000,186.000000) scale(0.100000,-0.100000)"
fill="#000000" stroke="none">
<path fill="#000000" stroke="none" d="M1020 1773 c-63 -85 -74 -93 -400 -328
l-335 -241 -88 -165 c-48 -90 -113 -211 -143 -269 l-56 -105 158 -277 157
-277 56 40 56 39 285 -95 285 -95 92 92 c62 62 129 145 204 253 l113 162 190
-48 191 -48 94 56 94 56 -238 121 -239 121 -62 187 -62 187 79 243 78 243 -29
96 -30 96 -177 21 c-98 12 -185 22 -193 22 -8 0 -44 -39 -80 -87z"/>
</g>
</svg>
