<?xml version="1.0" standalone="no"?>
<!DOCTYPE svg PUBLIC "-//W3C//DTD SVG 20010904//EN"
 "http://www.w3.org/TR/2001/REC-SVG-20010904/DTD/svg10.dtd">
<svg version="1.0" xmlns="http://www.w3.org/2000/svg"
 width="238.000000pt" height="248.000000pt" viewBox="0 0 238.000000 248.000000"
 preserveAspectRatio="xMidYMid meet">
<metadata>
Created by potrace 1.14, written by Peter Selinger 2001-2017
</metadata>
<g transform="translate(0.000000,248.000000) scale(0.100000,-0.100000)"
fill="#000000" stroke="none">
<path fill="#000000" stroke="none" d="M962 2437 l-103 -43 -77 -99 -77 -100
-3 -113 c-4 -107 -2 -118 28 -205 20 -55 48 -111 71 -140 30 -39 39 -61 49
-120 6 -39 15 -94 20 -122 4 -27 6 -53 4 -56 -2 -4 -50 -34 -106 -67 -98 -58
-112 -63 -297 -106 -107 -25 -197 -49 -200 -52 -3 -3 -65 -256 -137 -562 -129
-553 -130 -557 -110 -571 12 -8 32 -24 46 -37 l25 -23 1140 -10 c626 -5 1141
-8 1143 -7 5 6 -86 280 -129 388 -21 54 -72 164 -112 245 -67 134 -75 158 -92
258 -15 96 -25 125 -76 226 l-58 117 -148 27 c-191 35 -374 73 -380 79 -2 2
13 39 35 82 22 44 56 134 76 201 20 67 44 139 52 160 14 32 15 65 9 227 l-7
189 -90 86 -90 86 -147 52 c-80 29 -148 52 -151 52 -3 0 -51 -19 -108 -42z"/>
<path fill="#ffffff" stroke="none" d="M2147 515 c11 -11 13 -26 9 -50 -7 -37
-12 -39 -123 -63 l-41 -9 -4 34 c-4 35 -3 36 66 68 39 18 72 34 74 34 2 1 10
-6 19 -14z"/>
<path fill="#ffffff" stroke="none" d="M1259 461 c45 -23 61 -27 70 -18 17 17
44 -21 35 -48 -3 -11 -9 -38 -11 -61 -4 -37 -2 -42 19 -47 12 -4 35 -7 50 -7
18 0 26 -4 22 -13 -3 -10 10 -11 64 -7 61 6 87 16 214 83 87 45 150 72 157 68
7 -5 11 -22 9 -42 -3 -29 -14 -40 -108 -105 -58 -40 -125 -80 -149 -89 -25 -8
-55 -25 -68 -37 -32 -30 -87 -28 -370 12 l-232 34 -3 70 c-3 60 1 76 20 105
12 19 22 44 22 56 0 16 9 26 30 35 16 7 35 18 41 26 22 26 122 18 188 -15z"/>
</g>
</svg>
