<?xml version="1.0" standalone="no"?>
<!DOCTYPE svg PUBLIC "-//W3C//DTD SVG 20010904//EN"
 "http://www.w3.org/TR/2001/REC-SVG-20010904/DTD/svg10.dtd">
<svg version="1.0" xmlns="http://www.w3.org/2000/svg"
 width="22.000000pt" height="65.000000pt" viewBox="0 0 22.000000 65.000000"
 preserveAspectRatio="xMidYMid meet">
<metadata>
Created by potrace 1.14, written by Peter Selinger 2001-2017
</metadata>
<g transform="translate(0.000000,65.000000) scale(0.100000,-0.100000)"
fill="#000000" stroke="none">
<path fill="#000000" stroke="none" d="M46 631 c-9 -10 -14 -25 -11 -34 4 -8
-1 -30 -11 -48 -25 -49 -20 -280 8 -335 6 -14 7 -28 1 -39 -6 -10 -7 -37 -1
-68 16 -94 17 -97 42 -97 22 0 23 2 15 43 -4 23 -8 61 -9 83 0 38 2 41 24 37
22 -5 25 -12 32 -81 l9 -77 37 -6 c34 -5 36 -4 27 13 -5 10 -17 18 -26 18 -13
0 -15 9 -9 58 3 31 13 62 21 68 12 9 10 26 -16 119 -17 60 -34 116 -39 125 -7
13 -4 22 10 35 23 20 13 55 -26 96 -21 22 -23 30 -14 54 18 49 -28 76 -64 36z"/>
</g>
</svg>
