<?xml version="1.0" standalone="no"?>
<!DOCTYPE svg PUBLIC "-//W3C//DTD SVG 20010904//EN"
 "http://www.w3.org/TR/2001/REC-SVG-20010904/DTD/svg10.dtd">
<svg version="1.0" xmlns="http://www.w3.org/2000/svg"
 width="191.000000pt" height="255.000000pt" viewBox="0 0 191.000000 255.000000"
 preserveAspectRatio="xMidYMid meet">
<metadata>
Created by potrace 1.14, written by Peter Selinger 2001-2017
</metadata>
<g transform="translate(0.000000,255.000000) scale(0.100000,-0.100000)"
fill="#000000" stroke="none">
<path fill="#000000" stroke="none" d="M1793 2493 c-37 -31 -75 -63 -85 -70
-22 -19 -220 -79 -336 -102 -70 -14 -106 -28 -145 -54 -50 -34 -58 -35 -190
-47 -76 -6 -141 -9 -145 -6 -3 3 -15 29 -26 58 -28 70 -59 87 -147 79 l-67 -6
-41 -55 c-42 -56 -47 -75 -42 -172 2 -40 0 -48 -14 -48 -40 0 -136 -69 -242
-173 l-112 -111 -17 39 c-9 22 -24 60 -35 84 -20 47 -20 47 25 106 20 25 25
37 14 33 -22 -9 -44 17 -30 35 16 19 -24 77 -53 77 -27 0 -29 -3 -45 -97 -12
-64 -11 -75 4 -97 13 -21 14 -29 4 -46 -7 -11 -18 -20 -24 -20 -30 0 -39 -117
-16 -200 18 -62 21 -66 56 -74 26 -7 50 -6 79 3 23 7 65 16 93 20 32 4 65 17
87 34 20 15 40 27 44 27 5 0 22 -38 38 -84 l29 -84 -43 -66 c-37 -57 -45 -77
-51 -139 -5 -39 -36 -163 -69 -275 -34 -111 -61 -209 -61 -218 0 -8 -11 -54
-24 -102 -17 -59 -28 -133 -34 -232 -9 -132 -13 -152 -45 -227 -20 -47 -55
-106 -81 -137 l-47 -54 34 -21 c19 -12 38 -21 42 -21 5 0 41 12 82 27 67 25
73 30 73 56 0 16 14 48 32 73 31 43 31 45 20 94 -12 50 -11 52 33 140 32 64
45 102 45 132 0 49 58 164 81 162 8 0 37 -4 65 -8 l52 -6 20 77 20 78 1 -66
c1 -36 6 -70 12 -76 8 -8 2 -27 -23 -70 -19 -32 -55 -94 -79 -138 -55 -103
-125 -213 -156 -246 -41 -44 -43 -75 -12 -164 15 -44 30 -88 34 -97 6 -15 20
-18 81 -18 71 0 74 1 80 25 4 15 0 44 -10 68 -9 24 -16 63 -16 88 0 43 5 51
129 197 105 123 138 170 174 245 39 83 48 94 78 103 l34 10 1 494 c1 340 5
512 13 550 7 30 15 81 18 113 5 50 10 61 40 86 20 16 69 39 114 52 43 13 79
29 79 35 0 16 21 23 88 30 32 4 125 33 207 64 175 67 360 130 380 130 9 0 19
26 31 77 16 73 16 79 -1 130 -10 29 -22 53 -26 53 -4 0 -38 -26 -76 -57z"/>
</g>
</svg>
