<?xml version="1.0" standalone="no"?>
<!DOCTYPE svg PUBLIC "-//W3C//DTD SVG 20010904//EN"
 "http://www.w3.org/TR/2001/REC-SVG-20010904/DTD/svg10.dtd">
<svg version="1.0" xmlns="http://www.w3.org/2000/svg"
 width="25.000000pt" height="54.000000pt" viewBox="0 0 25.000000 54.000000"
 preserveAspectRatio="xMidYMid meet">
<metadata>
Created by potrace 1.14, written by Peter Selinger 2001-2017
</metadata>
<g transform="translate(0.000000,54.000000) scale(0.100000,-0.100000)"
fill="#000000" stroke="none">
<path fill="#000000" stroke="none" d="M184 531 c-39 -10 -80 -39 -93 -69 -16
-33 -13 -69 5 -76 11 -4 12 -9 5 -18 -72 -87 -76 -97 -90 -185 -13 -86 -14
-198 -1 -168 5 11 9 34 9 52 1 45 61 88 61 43 0 -14 7 -20 23 -20 19 0 26 12
50 88 15 49 44 113 64 142 35 52 36 55 23 94 -7 23 -13 60 -14 84 0 23 -3 42
-6 41 -3 -1 -19 -4 -36 -8z"/>
</g>
</svg>
