<?xml version="1.0" standalone="no"?>
<!DOCTYPE svg PUBLIC "-//W3C//DTD SVG 20010904//EN"
 "http://www.w3.org/TR/2001/REC-SVG-20010904/DTD/svg10.dtd">
<svg version="1.0" xmlns="http://www.w3.org/2000/svg"
 width="12.000000pt" height="33.000000pt" viewBox="0 0 12.000000 33.000000"
 preserveAspectRatio="xMidYMid meet">
<metadata>
Created by potrace 1.14, written by Peter Selinger 2001-2017
</metadata>
<g transform="translate(0.000000,33.000000) scale(0.100000,-0.100000)"
fill="#000000" stroke="none">
<path fill="#000000" stroke="none" d="M33 323 c-7 -3 -13 -16 -13 -29 0 -13
-4 -24 -10 -24 -5 0 -10 -18 -10 -40 0 -31 5 -43 24 -55 18 -12 27 -31 36 -80
11 -61 41 -108 54 -87 3 6 1 33 -4 62 -6 29 -10 79 -10 112 0 84 -33 153 -67
141z"/>
</g>
</svg>
