<?xml version="1.0" standalone="no"?>
<!DOCTYPE svg PUBLIC "-//W3C//DTD SVG 20010904//EN"
 "http://www.w3.org/TR/2001/REC-SVG-20010904/DTD/svg10.dtd">
<svg version="1.0" xmlns="http://www.w3.org/2000/svg"
 width="127.000000pt" height="249.000000pt" viewBox="0 0 127.000000 249.000000"
 preserveAspectRatio="xMidYMid meet">
<metadata>
Created by potrace 1.14, written by Peter Selinger 2001-2017
</metadata>
<g transform="translate(0.000000,249.000000) scale(0.100000,-0.100000)"
fill="#000000" stroke="none">
<path fill="#000000" stroke="none" d="M166 2441 c-41 -55 -50 -121 -26 -179
13 -29 12 -38 -4 -85 -10 -28 -35 -88 -57 -132 -21 -44 -47 -106 -58 -137 -19
-56 -19 -58 -1 -107 22 -61 61 -112 139 -183 85 -77 95 -103 92 -220 -3 -130
21 -188 115 -272 79 -70 129 -137 183 -242 58 -114 60 -125 16 -148 -19 -11
-60 -53 -91 -94 -58 -77 -80 -99 -173 -172 -53 -42 -54 -42 -94 -29 l-40 13
-33 -39 c-23 -28 -33 -49 -32 -70 0 -16 -3 -96 -7 -177 l-8 -148 25 0 c21 0
39 21 111 128 94 138 179 223 271 269 60 30 125 75 217 149 36 30 70 54 74 54
4 0 6 -19 4 -42 -2 -25 7 -73 20 -113 18 -57 22 -91 22 -188 -1 -80 -6 -129
-16 -153 -8 -20 -15 -52 -15 -70 0 -34 0 -34 48 -34 26 0 128 -5 227 -10 99
-5 183 -6 188 -1 12 12 -32 51 -57 51 -34 0 -115 46 -162 92 -37 35 -42 46
-48 99 -3 33 -1 92 5 132 18 112 12 450 -8 500 -9 23 -72 130 -140 239 -122
196 -124 199 -133 276 -11 98 -18 127 -41 174 -13 25 -15 39 -8 44 6 3 9 28 7
59 -3 50 0 56 40 103 23 28 42 60 42 71 0 61 -134 370 -193 444 -28 37 -33 39
-79 35 l-48 -3 0 33 c0 40 -28 71 -98 106 -32 16 -68 26 -96 26 -41 0 -47 -3
-80 -49z"/>
</g>
</svg>
