<?xml version="1.0" standalone="no"?>
<!DOCTYPE svg PUBLIC "-//W3C//DTD SVG 20010904//EN"
 "http://www.w3.org/TR/2001/REC-SVG-20010904/DTD/svg10.dtd">
<svg version="1.0" xmlns="http://www.w3.org/2000/svg"
 width="129.000000pt" height="152.000000pt" viewBox="0 0 129.000000 152.000000"
 preserveAspectRatio="xMidYMid meet">
<metadata>
Created by potrace 1.14, written by Peter Selinger 2001-2017
</metadata>
<g transform="translate(0.000000,152.000000) scale(0.100000,-0.100000)"
fill="#000000" stroke="none">
<path fill="#000000" stroke="none" d="M667 1481 c-48 -21 -92 -42 -96 -47
-11 -12 -51 -134 -51 -155 0 -11 -45 -53 -108 -103 l-109 -85 -6 -77 c-12
-135 -8 -176 23 -269 l30 -88 -77 -244 c-50 -160 -81 -243 -90 -243 -8 0 -52
-29 -100 -65 -47 -36 -82 -65 -77 -65 5 0 58 -9 117 -19 129 -22 180 -14 204
33 43 82 113 262 113 291 0 23 7 37 23 48 12 8 31 37 42 66 28 74 98 157 156
186 l48 25 177 -258 c154 -225 185 -264 249 -317 41 -33 77 -61 82 -62 5 -2
24 10 43 25 l34 29 -121 216 -121 216 -17 128 c-11 86 -25 143 -40 175 l-23
46 20 19 c11 10 29 30 40 46 19 26 19 29 3 101 -16 72 -19 77 -88 143 -40 37
-96 84 -124 103 l-53 35 0 103 c0 56 -3 102 -7 101 -5 0 -48 -18 -96 -38z"/>
</g>
</svg>
