<?xml version="1.0" standalone="no"?>
<!DOCTYPE svg PUBLIC "-//W3C//DTD SVG 20010904//EN"
 "http://www.w3.org/TR/2001/REC-SVG-20010904/DTD/svg10.dtd">
<svg version="1.0" xmlns="http://www.w3.org/2000/svg"
 width="29.000000pt" height="102.000000pt" viewBox="0 0 29.000000 102.000000"
 preserveAspectRatio="xMidYMid meet">
<metadata>
Created by potrace 1.14, written by Peter Selinger 2001-2017
</metadata>
<g transform="translate(0.000000,102.000000) scale(0.100000,-0.100000)"
fill="#000000" stroke="none">
<path fill="#000000" stroke="none" d="M56 999 c-12 -17 -18 -19 -35 -10 -17
10 -21 9 -21 -3 0 -8 5 -18 10 -21 6 -4 10 -103 10 -263 0 -195 5 -285 18
-372 15 -98 16 -126 6 -195 -7 -44 -13 -93 -13 -109 l-1 -29 122 6 c67 4 123
9 125 11 10 10 -25 46 -59 62 -21 9 -38 24 -38 33 0 9 12 61 26 116 41 159 42
165 49 275 6 76 12 108 23 116 20 14 4 65 -25 78 -12 6 -29 28 -40 50 -15 33
-17 50 -10 86 7 37 4 56 -13 103 -22 60 -34 70 -87 80 -26 5 -35 2 -47 -14z"/>
</g>
</svg>
