<?xml version="1.0" standalone="no"?>
<!DOCTYPE svg PUBLIC "-//W3C//DTD SVG 20010904//EN"
 "http://www.w3.org/TR/2001/REC-SVG-20010904/DTD/svg10.dtd">
<svg version="1.0" xmlns="http://www.w3.org/2000/svg"
 width="31.000000pt" height="172.000000pt" viewBox="0 0 31.000000 172.000000"
 preserveAspectRatio="xMidYMid meet">
<metadata>
Created by potrace 1.14, written by Peter Selinger 2001-2017
</metadata>
<g transform="translate(0.000000,172.000000) scale(0.100000,-0.100000)"
fill="#000000" stroke="none">
<path fill="#000000" stroke="none" d="M5 933 c2 -774 7 -937 29 -930 6 2 15
46 20 101 l9 97 57 50 c32 28 79 77 104 109 l46 58 21 228 c19 201 20 256 12
478 l-8 251 -63 111 c-34 61 -62 115 -62 120 0 6 13 31 29 56 l29 45 -82 7
c-44 3 -95 6 -111 6 l-31 0 1 -787z"/>
</g>
</svg>
