<?xml version="1.0" standalone="no"?>
<!DOCTYPE svg PUBLIC "-//W3C//DTD SVG 20010904//EN"
 "http://www.w3.org/TR/2001/REC-SVG-20010904/DTD/svg10.dtd">
<svg version="1.0" xmlns="http://www.w3.org/2000/svg"
 width="156.000000pt" height="262.000000pt" viewBox="0 0 156.000000 262.000000"
 preserveAspectRatio="xMidYMid meet">
<metadata>
Created by potrace 1.14, written by Peter Selinger 2001-2017
</metadata>
<g transform="translate(0.000000,262.000000) scale(0.100000,-0.100000)"
fill="#000000" stroke="none">
<path fill="#000000" stroke="none" d="M881 2574 c-62 -23 -114 -44 -116 -46
-1 -2 -24 -41 -50 -87 l-47 -83 40 -42 c33 -33 43 -53 52 -103 12 -61 14 -63
48 -69 l35 -7 -29 -15 c-81 -41 -214 -125 -214 -135 0 -7 -9 -70 -20 -142 -11
-71 -20 -168 -20 -214 l0 -83 70 4 69 4 28 -113 27 -113 -116 -118 c-109 -109
-126 -132 -247 -329 l-130 -213 -26 -192 c-15 -106 -30 -213 -33 -237 -7 -44
-9 -46 -95 -96 -48 -28 -92 -56 -97 -61 -7 -7 32 -23 111 -48 114 -35 124 -36
177 -26 92 18 89 16 90 68 7 191 52 457 84 488 7 7 89 80 182 163 l169 150 51
-33 c49 -31 52 -35 71 -108 18 -70 28 -87 115 -195 52 -65 143 -169 203 -232
59 -63 107 -118 107 -123 0 -5 -13 -37 -29 -73 -33 -73 -38 -66 64 -85 53 -10
65 -9 107 9 l47 20 -23 68 c-29 85 -48 123 -184 359 -64 112 -123 230 -142
283 l-33 91 61 129 62 129 -38 129 -38 128 28 79 c21 56 34 125 48 246 20 170
18 220 -12 220 -8 0 -22 16 -33 36 -10 19 -40 50 -65 69 l-47 34 7 51 c4 31 1
82 -8 128 -11 58 -11 85 -3 113 6 20 11 71 11 113 l0 76 -77 39 -78 38 -114
-43z"/>
</g>
</svg>
