<?xml version="1.0" standalone="no"?>
<!DOCTYPE svg PUBLIC "-//W3C//DTD SVG 20010904//EN"
 "http://www.w3.org/TR/2001/REC-SVG-20010904/DTD/svg10.dtd">
<svg version="1.0" xmlns="http://www.w3.org/2000/svg"
 width="15.000000pt" height="22.000000pt" viewBox="0 0 15.000000 22.000000"
 preserveAspectRatio="xMidYMid meet">
<metadata>
Created by potrace 1.14, written by Peter Selinger 2001-2017
</metadata>
<g transform="translate(0.000000,22.000000) scale(0.100000,-0.100000)"
fill="#000000" stroke="none">
<path fill="#000000" stroke="none" d="M38 213 c-11 -3 -18 -14 -18 -27 0 -12
-6 -28 -12 -35 -11 -10 -8 -16 11 -30 l24 -19 -21 -6 c-18 -6 -22 -15 -22 -50
l0 -43 55 15 c48 13 55 19 55 40 0 14 9 39 19 56 11 18 17 37 12 44 -9 14 -72
63 -80 61 -3 -1 -14 -3 -23 -6z"/>
</g>
</svg>
