<?xml version="1.0" standalone="no"?>
<!DOCTYPE svg PUBLIC "-//W3C//DTD SVG 20010904//EN"
 "http://www.w3.org/TR/2001/REC-SVG-20010904/DTD/svg10.dtd">
<svg version="1.0" xmlns="http://www.w3.org/2000/svg"
 width="31.000000pt" height="73.000000pt" viewBox="0 0 31.000000 73.000000"
 preserveAspectRatio="xMidYMid meet">
<metadata>
Created by potrace 1.14, written by Peter Selinger 2001-2017
</metadata>
<g transform="translate(0.000000,73.000000) scale(0.100000,-0.100000)"
fill="#000000" stroke="none">
<path fill="#000000" stroke="none" d="M148 719 c-10 -5 -18 -21 -18 -33 0
-15 -14 -35 -37 -55 -67 -56 -72 -63 -84 -117 -10 -45 -10 -57 3 -76 13 -20
14 -26 1 -45 -13 -20 -12 -26 10 -65 21 -35 28 -68 39 -173 l13 -130 32 -1
c18 -1 38 -6 46 -12 22 -18 34 0 41 63 12 107 26 153 55 177 23 20 28 36 40
116 21 153 19 178 -23 221 -36 37 -45 64 -26 76 16 10 12 52 -6 59 -24 9 -67
7 -86 -5z"/>
</g>
</svg>
