<?xml version="1.0" standalone="no"?>
<!DOCTYPE svg PUBLIC "-//W3C//DTD SVG 20010904//EN"
 "http://www.w3.org/TR/2001/REC-SVG-20010904/DTD/svg10.dtd">
<svg version="1.0" xmlns="http://www.w3.org/2000/svg"
 width="22.000000pt" height="69.000000pt" viewBox="0 0 22.000000 69.000000"
 preserveAspectRatio="xMidYMid meet">
<metadata>
Created by potrace 1.14, written by Peter Selinger 2001-2017
</metadata>
<g transform="translate(0.000000,69.000000) scale(0.100000,-0.100000)"
fill="#000000" stroke="none">
<path fill="#000000" stroke="none" d="M47 678 c-21 -16 -36 -100 -39 -225 -3
-83 -1 -93 20 -115 12 -13 22 -32 22 -42 0 -9 7 -31 17 -49 12 -24 16 -56 15
-125 -1 -52 -4 -97 -7 -102 -8 -13 21 -19 52 -10 15 4 22 9 16 9 -7 1 -13 6
-13 12 0 6 9 8 21 4 19 -6 20 -4 14 25 -7 30 -7 103 -2 185 2 26 -2 30 -36 40
-50 14 -93 61 -100 107 -5 36 -4 39 39 64 24 14 50 24 58 21 11 -4 50 -94 72
-164 8 -28 24 -11 24 25 0 49 -33 145 -67 197 -15 22 -29 58 -31 79 -6 71 -34
94 -75 64z"/>
</g>
</svg>
