<?xml version="1.0" standalone="no"?>
<!DOCTYPE svg PUBLIC "-//W3C//DTD SVG 20010904//EN"
 "http://www.w3.org/TR/2001/REC-SVG-20010904/DTD/svg10.dtd">
<svg version="1.0" xmlns="http://www.w3.org/2000/svg"
 width="55.000000pt" height="111.000000pt" viewBox="0 0 55.000000 111.000000"
 preserveAspectRatio="xMidYMid meet">
<metadata>
Created by potrace 1.14, written by Peter Selinger 2001-2017
</metadata>
<g transform="translate(0.000000,111.000000) scale(0.100000,-0.100000)"
fill="#000000" stroke="none">
<path fill="#000000" stroke="none" d="M263 1089 c-10 -11 -30 -32 -44 -47
-55 -58 -64 -109 -24 -146 l24 -23 -18 -54 c-17 -49 -33 -176 -47 -379 -5 -71
0 -100 31 -173 6 -15 1 -17 -47 -17 -66 0 -115 -15 -128 -40 -26 -48 6 -176
49 -199 11 -6 49 -11 85 -11 l64 0 62 61 c80 81 89 100 89 194 0 77 25 185 43
185 22 0 91 68 119 118 33 56 34 76 4 42 -10 -11 -30 -20 -44 -20 -15 0 -33
-10 -46 -25 -12 -16 -34 -28 -59 -32 -37 -6 -39 -5 -33 18 32 137 48 227 54
297 3 45 9 81 12 80 44 -22 81 -55 100 -88 12 -22 24 -40 26 -40 1 0 -1 16 -5
36 -5 20 -22 51 -39 68 -17 18 -31 40 -31 50 0 10 -16 34 -35 53 -19 19 -35
41 -35 48 0 7 -9 24 -21 39 -26 33 -80 36 -106 5z"/>
</g>
</svg>
