<?xml version="1.0" standalone="no"?>
<!DOCTYPE svg PUBLIC "-//W3C//DTD SVG 20010904//EN"
 "http://www.w3.org/TR/2001/REC-SVG-20010904/DTD/svg10.dtd">
<svg version="1.0" xmlns="http://www.w3.org/2000/svg"
 width="16.000000pt" height="41.000000pt" viewBox="0 0 16.000000 41.000000"
 preserveAspectRatio="xMidYMid meet">
<metadata>
Created by potrace 1.14, written by Peter Selinger 2001-2017
</metadata>
<g transform="translate(0.000000,41.000000) scale(0.100000,-0.100000)"
fill="#000000" stroke="none">
<path fill="#000000" stroke="none" d="M51 399 c-20 -8 -22 -14 -17 -42 5 -25
2 -36 -14 -50 -16 -14 -20 -28 -19 -79 1 -35 5 -74 9 -88 l8 -25 1 25 c1 29
54 144 70 154 16 10 14 -6 -4 -31 -8 -11 -24 -55 -35 -97 l-21 -77 26 -44 c19
-34 32 -45 50 -45 18 0 25 5 25 20 0 11 -4 20 -10 20 -13 0 -13 77 -1 84 5 4
12 24 16 46 4 22 11 42 16 46 15 9 10 48 -8 74 -10 14 -16 33 -15 42 4 23 -25
78 -41 77 -6 0 -23 -5 -36 -10z"/>
</g>
</svg>
