<?xml version="1.0" standalone="no"?>
<!DOCTYPE svg PUBLIC "-//W3C//DTD SVG 20010904//EN"
 "http://www.w3.org/TR/2001/REC-SVG-20010904/DTD/svg10.dtd">
<svg version="1.0" xmlns="http://www.w3.org/2000/svg"
 width="245.000000pt" height="288.000000pt" viewBox="0 0 245.000000 288.000000"
 preserveAspectRatio="xMidYMid meet">
<metadata>
Created by potrace 1.14, written by Peter Selinger 2001-2017
</metadata>
<g transform="translate(0.000000,288.000000) scale(0.100000,-0.100000)"
fill="#000000" stroke="none">
<path fill="#000000" stroke="none" d="M1088 2847 c-51 -35 -58 -48 -58 -119
0 -38 4 -48 20 -53 19 -6 20 -15 20 -130 0 -115 11 -175 31 -175 4 0 13 -17
20 -37 6 -21 27 -68 46 -105 29 -59 31 -68 15 -68 -9 0 -27 -7 -38 -15 -24
-16 -110 -21 -205 -10 -59 7 -71 5 -107 -15 -22 -12 -78 -66 -124 -118 -95
-109 -324 -322 -347 -322 -8 0 -30 5 -48 12 -39 14 -161 -2 -196 -27 -14 -10
-26 -11 -38 -5 -14 8 -19 6 -24 -9 -3 -10 -17 -31 -31 -46 l-25 -27 44 6 c28
4 48 3 52 -4 3 -5 20 -10 37 -10 l31 0 -6 -74 -7 -73 38 -7 c20 -3 77 -6 125
-6 l89 0 67 65 c59 57 72 65 107 65 34 1 51 11 139 85 95 80 100 83 109 62 5
-12 20 -46 34 -76 20 -44 24 -63 19 -113 -6 -68 -14 -77 -94 -102 -33 -11 -59
-26 -69 -42 -9 -13 -25 -24 -35 -24 -16 0 -17 -2 -3 -27 23 -46 17 -67 -51
-176 l-65 -104 11 -104 c17 -156 55 -251 132 -335 46 -49 77 -72 117 -88 52
-21 55 -24 63 -67 5 -24 20 -87 35 -140 l26 -97 71 -12 c38 -7 260 -50 492
-95 l422 -83 51 16 50 16 1 100 c0 110 19 240 38 259 13 13 15 51 2 43 -8 -5
-21 71 -21 131 0 17 -20 97 -43 177 -24 80 -40 143 -35 140 15 -10 8 25 -58
282 -92 361 -90 340 -47 452 23 56 42 92 51 92 12 0 212 -173 220 -190 1 -3
-13 -42 -32 -85 -36 -83 -35 -98 6 -111 11 -3 26 1 37 10 16 15 19 13 36 -27
10 -23 32 -59 49 -80 l30 -38 23 45 23 45 63 -6 64 -6 6 33 c4 18 7 53 7 78 0
37 -6 51 -35 83 -30 33 -35 46 -35 87 0 48 -1 49 -101 147 -55 54 -108 109
-117 123 -12 19 -17 21 -21 9 -4 -10 -41 34 -111 130 -58 79 -111 149 -117
155 -9 7 -37 7 -90 0 -97 -13 -169 1 -251 50 l-57 34 -7 59 c-4 33 -14 82 -22
109 -15 48 -14 50 15 107 16 32 29 64 29 70 0 7 -18 60 -41 118 -39 100 -44
109 -102 156 -58 47 -64 50 -122 51 -33 0 -76 4 -95 7 -29 6 -43 1 -82 -26z"/>
</g>
</svg>
