<?xml version="1.0" standalone="no"?>
<!DOCTYPE svg PUBLIC "-//W3C//DTD SVG 20010904//EN"
 "http://www.w3.org/TR/2001/REC-SVG-20010904/DTD/svg10.dtd">
<svg version="1.0" xmlns="http://www.w3.org/2000/svg"
 width="35.000000pt" height="44.000000pt" viewBox="0 0 35.000000 44.000000"
 preserveAspectRatio="xMidYMid meet">
<metadata>
Created by potrace 1.14, written by Peter Selinger 2001-2017
</metadata>
<g transform="translate(0.000000,44.000000) scale(0.100000,-0.100000)"
fill="#000000" stroke="none">
<path fill="#000000" stroke="none" d="M239 425 c-15 -8 -30 -27 -34 -42 -3
-15 -34 -52 -68 -84 -40 -37 -75 -81 -100 -128 -41 -76 -42 -103 -4 -122 12
-6 32 -21 44 -32 l22 -20 57 29 c54 28 58 33 72 81 14 51 15 52 56 55 l41 3
14 108 14 107 -28 30 c-32 33 -48 36 -86 15z"/>
</g>
</svg>
