<?xml version="1.0" standalone="no"?>
<!DOCTYPE svg PUBLIC "-//W3C//DTD SVG 20010904//EN"
 "http://www.w3.org/TR/2001/REC-SVG-20010904/DTD/svg10.dtd">
<svg version="1.0" xmlns="http://www.w3.org/2000/svg"
 width="107.000000pt" height="165.000000pt" viewBox="0 0 107.000000 165.000000"
 preserveAspectRatio="xMidYMid meet">
<metadata>
Created by potrace 1.14, written by Peter Selinger 2001-2017
</metadata>
<g transform="translate(0.000000,165.000000) scale(0.100000,-0.100000)"
fill="#000000" stroke="none">
<path fill="#000000" stroke="none" d="M622 1629 c-151 -25 -175 -44 -230
-178 -42 -102 -74 -232 -91 -370 -11 -83 -12 -85 -70 -151 -33 -37 -67 -82
-76 -101 -9 -19 -47 -144 -84 -277 l-69 -244 26 -154 c15 -85 30 -154 33 -154
4 0 34 47 68 104 55 95 62 113 72 194 l12 89 124 97 c107 85 125 95 143 86 18
-10 28 -5 68 28 44 36 58 41 206 72 l159 34 76 62 77 63 -18 203 c-16 184 -21
212 -54 303 -30 82 -51 120 -117 208 -93 123 -72 116 -255 86z"/>
</g>
</svg>
