<?xml version="1.0" standalone="no"?>
<!DOCTYPE svg PUBLIC "-//W3C//DTD SVG 20010904//EN"
 "http://www.w3.org/TR/2001/REC-SVG-20010904/DTD/svg10.dtd">
<svg version="1.0" xmlns="http://www.w3.org/2000/svg"
 width="54.000000pt" height="197.000000pt" viewBox="0 0 54.000000 197.000000"
 preserveAspectRatio="xMidYMid meet">
<metadata>
Created by potrace 1.14, written by Peter Selinger 2001-2017
</metadata>
<g transform="translate(0.000000,197.000000) scale(0.100000,-0.100000)"
fill="#000000" stroke="none">
<path fill="#000000" stroke="none" d="M330 1939 c0 -20 -12 -43 -38 -72 l-39
-42 18 -55 c10 -30 18 -73 19 -95 1 -22 11 -67 23 -99 l22 -60 62 -13 62 -14
-31 -50 c-17 -27 -36 -49 -42 -49 -61 -1 -321 -42 -327 -52 -5 -7 -20 -45 -34
-84 l-26 -72 26 -73 c25 -70 26 -76 15 -167 -11 -86 -7 -182 8 -207 3 -5 20
35 38 90 l32 100 2 -340 1 -340 43 -120 c48 -133 44 -130 133 -106 l40 11 -20
112 c-18 106 -18 119 -4 198 11 62 14 125 10 235 -4 138 -3 154 16 197 15 32
28 48 43 50 18 2 26 18 47 86 l24 83 -21 96 c-22 96 -22 97 -2 118 26 28 70
183 70 249 0 32 8 73 19 100 l20 45 -30 19 c-28 17 -30 23 -34 95 -2 42 -14
107 -25 145 -21 68 -22 70 -71 90 l-49 21 0 -30z"/>
</g>
</svg>
