<?xml version="1.0" standalone="no"?>
<!DOCTYPE svg PUBLIC "-//W3C//DTD SVG 20010904//EN"
 "http://www.w3.org/TR/2001/REC-SVG-20010904/DTD/svg10.dtd">
<svg version="1.0" xmlns="http://www.w3.org/2000/svg"
 width="36.000000pt" height="79.000000pt" viewBox="0 0 36.000000 79.000000"
 preserveAspectRatio="xMidYMid meet">
<metadata>
Created by potrace 1.14, written by Peter Selinger 2001-2017
</metadata>
<g transform="translate(0.000000,79.000000) scale(0.100000,-0.100000)"
fill="#000000" stroke="none">
<path fill="#000000" stroke="none" d="M60 731 c-66 -65 -75 -94 -44 -154 13
-25 16 -50 11 -125 -5 -90 4 -142 24 -142 11 0 39 -67 39 -93 0 -34 40 -87 70
-94 26 -5 27 -8 23 -43 -7 -50 21 -80 75 -80 45 0 61 15 85 77 16 42 14 106
-5 130 -10 13 -45 133 -55 188 -3 16 -30 65 -60 107 l-54 78 7 69 c15 157 -16
179 -116 82z"/>
</g>
</svg>
