<?xml version="1.0" standalone="no"?>
<!DOCTYPE svg PUBLIC "-//W3C//DTD SVG 20010904//EN"
 "http://www.w3.org/TR/2001/REC-SVG-20010904/DTD/svg10.dtd">
<svg version="1.0" xmlns="http://www.w3.org/2000/svg"
 width="255.000000pt" height="241.000000pt" viewBox="0 0 255.000000 241.000000"
 preserveAspectRatio="xMidYMid meet">
<metadata>
Created by potrace 1.14, written by Peter Selinger 2001-2017
</metadata>
<g transform="translate(0.000000,241.000000) scale(0.100000,-0.100000)"
fill="#000000" stroke="none">
<path fill="#000000" stroke="none" d="M1424 2308 c-55 -57 -135 -151 -177
-209 l-77 -107 16 -147 c14 -126 24 -170 69 -304 l52 -157 -82 4 c-83 4 -84 4
-187 -45 -80 -38 -125 -68 -192 -128 -118 -105 -210 -145 -332 -145 -70 0 -93
4 -134 25 -44 22 -51 30 -65 77 -8 28 -15 57 -15 64 0 7 -5 35 -11 63 -8 39
-25 66 -78 128 -37 43 -97 117 -135 166 -37 48 -69 87 -72 87 -8 0 8 -327 18
-360 7 -20 10 -116 9 -235 -2 -180 0 -207 19 -270 42 -137 70 -185 163 -287
l89 -98 107 0 c70 0 135 7 191 20 73 18 340 53 346 47 9 -9 5 -253 -6 -340
-10 -85 -10 -111 -1 -116 22 -14 625 -33 1062 -35 l426 -1 17 29 c12 21 21 94
37 295 14 183 27 300 44 376 35 152 31 232 -13 284 -16 19 -23 20 -87 11 -38
-5 -70 -8 -71 -7 -1 1 15 41 36 89 32 72 36 90 26 109 -6 12 -16 24 -23 26 -7
3 -42 -41 -79 -96 -37 -56 -69 -99 -72 -97 -4 5 13 154 24 208 5 26 4 26 -58
33 -35 3 -92 7 -127 8 l-64 2 -36 57 c-21 34 -47 62 -63 69 -16 6 -28 13 -28
16 0 3 22 30 48 61 29 34 63 91 85 142 35 83 36 89 41 251 4 124 3 168 -7 178
-9 9 -9 14 2 20 11 7 11 15 2 42 -9 25 -41 57 -118 118 -103 81 -108 84 -241
126 -76 23 -146 45 -158 49 -16 5 -39 -13 -120 -96z"/>
</g>
</svg>
