<?xml version="1.0" standalone="no"?>
<!DOCTYPE svg PUBLIC "-//W3C//DTD SVG 20010904//EN"
 "http://www.w3.org/TR/2001/REC-SVG-20010904/DTD/svg10.dtd">
<svg version="1.0" xmlns="http://www.w3.org/2000/svg"
 width="345.000000pt" height="518.000000pt" viewBox="0 0 345.000000 518.000000"
 preserveAspectRatio="xMidYMid meet">
<metadata>
Created by potrace 1.14, written by Peter Selinger 2001-2017
</metadata>
<g transform="translate(0.000000,518.000000) scale(0.100000,-0.100000)"
fill="#000000" stroke="none">
<path fill="#000000" stroke="none" d="M1342 5064 l-68 -116 13 -141 c12 -125
19 -159 62 -282 l49 -140 -49 -155 c-44 -137 -49 -163 -47 -229 3 -73 4 -75
33 -83 17 -5 104 -7 195 -3 156 5 230 1 230 -14 0 -4 -24 -20 -54 -36 -31 -17
-53 -35 -52 -44 1 -13 -23 -18 -139 -28 -77 -6 -157 -12 -177 -12 l-38 -1 0
-48 c0 -26 -31 -203 -69 -392 -62 -311 -77 -415 -157 -1062 l-88 -716 -63 -29
-63 -28 -235 -310 c-190 -250 -271 -346 -414 -495 -98 -102 -185 -196 -194
-210 -16 -25 -15 -26 185 -252 l200 -228 62 0 c33 0 91 -3 128 -6 l66 -7 -68
274 c-38 150 -66 278 -62 284 11 18 694 765 833 911 l134 140 114 317 c63 174
117 317 120 317 3 0 142 -136 308 -303 l302 -302 80 -180 c43 -99 148 -322
234 -495 l155 -315 7 -151 7 -151 193 -62 194 -62 120 3 120 3 -86 140 c-47
77 -136 203 -198 280 l-112 140 -181 480 c-157 415 -211 545 -403 960 l-221
480 -28 310 -28 310 59 240 c33 132 64 257 70 277 9 34 22 44 177 139 92 56
171 105 175 109 9 8 -252 150 -275 150 -7 0 -47 -20 -88 -44 -50 -29 -77 -40
-81 -33 -3 7 -19 56 -35 109 l-28 98 -149 67 c-82 37 -151 72 -153 77 -2 6
-22 139 -44 295 -22 156 -41 285 -42 286 -2 2 -79 19 -173 40 -93 20 -176 38
-182 40 -7 3 -41 -44 -81 -111z"/>
</g>
</svg>
