<?xml version="1.0" standalone="no"?>
<!DOCTYPE svg PUBLIC "-//W3C//DTD SVG 20010904//EN"
 "http://www.w3.org/TR/2001/REC-SVG-20010904/DTD/svg10.dtd">
<svg version="1.0" xmlns="http://www.w3.org/2000/svg"
 width="445.000000pt" height="494.000000pt" viewBox="0 0 445.000000 494.000000"
 preserveAspectRatio="xMidYMid meet">
<metadata>
Created by potrace 1.14, written by Peter Selinger 2001-2017
</metadata>
<g transform="translate(0.000000,494.000000) scale(0.100000,-0.100000)"
fill="#000000" stroke="none">
<path fill="#000000" stroke="none" d="M1677 4697 c-205 -131 -377 -241 -383
-245 -7 -5 -2 -127 18 -409 l28 -403 176 -267 c97 -148 218 -327 270 -400 52
-73 97 -139 100 -146 9 -25 -57 -45 -206 -61 l-145 -16 -515 -211 c-283 -117
-519 -215 -523 -219 -4 -4 -73 -177 -153 -385 -126 -331 -157 -424 -241 -730
l-97 -350 -2 -130 c-1 -112 3 -147 29 -253 25 -104 33 -123 51 -127 109 -22
435 -56 621 -65 127 -6 246 -12 266 -14 l36 -4 6 62 c3 33 29 159 56 278 28
119 51 233 51 252 0 20 5 36 10 36 6 0 10 7 10 15 0 12 17 15 94 15 82 0 439
-31 537 -46 l36 -6 6 213 c4 117 7 250 7 296 0 82 1 85 61 206 34 67 78 142
98 167 41 51 81 111 113 173 20 38 22 54 19 187 -2 112 -6 147 -17 153 -8 4
-14 12 -14 16 0 14 153 102 159 92 3 -5 24 -12 46 -16 32 -6 168 -75 244 -124
11 -7 11 -15 2 -44 -10 -31 -32 -55 -115 -127 -9 -8 -41 -52 -71 -98 -54 -82
-55 -84 -49 -140 3 -31 12 -77 21 -101 17 -49 12 -183 -13 -326 -8 -44 -14
-106 -14 -139 0 -54 -12 -86 -160 -420 -89 -198 -165 -363 -170 -364 -17 -6
-11 -29 37 -149 80 -203 120 -237 343 -289 l151 -35 314 3 c172 2 316 5 319 8
2 3 11 64 19 137 8 72 17 136 21 141 3 6 30 18 59 28 91 29 148 64 294 175
l141 108 77 3 78 3 28 105 c40 149 38 215 -27 868 -31 310 -54 566 -51 569 4
3 131 -13 283 -36 l277 -41 64 56 64 57 -268 160 c-147 89 -475 279 -728 423
l-460 261 3 109 c2 60 6 117 8 126 3 10 20 19 44 23 45 8 37 -29 75 355 14
140 28 269 30 287 5 29 0 36 -70 93 l-75 61 0 237 -1 237 -112 126 -112 125
-195 62 -195 62 -173 3 -173 2 -372 -238z"/>
</g>
</svg>
