<?xml version="1.0" standalone="no"?>
<!DOCTYPE svg PUBLIC "-//W3C//DTD SVG 20010904//EN"
 "http://www.w3.org/TR/2001/REC-SVG-20010904/DTD/svg10.dtd">
<svg version="1.0" xmlns="http://www.w3.org/2000/svg"
 width="16.000000pt" height="42.000000pt" viewBox="0 0 16.000000 42.000000"
 preserveAspectRatio="xMidYMid meet">
<metadata>
Created by potrace 1.14, written by Peter Selinger 2001-2017
</metadata>
<g transform="translate(0.000000,42.000000) scale(0.100000,-0.100000)"
fill="#000000" stroke="none">
<path fill="#000000" stroke="none" d="M49 407 c-8 -7 -23 -33 -32 -60 -15
-44 -15 -51 3 -101 10 -29 21 -88 25 -130 6 -66 11 -79 33 -97 14 -11 32 -18
40 -17 25 5 40 67 41 160 1 78 -1 89 -23 115 -14 16 -28 43 -31 59 -9 42 -26
84 -34 84 -3 0 -13 -6 -22 -13z"/>
</g>
</svg>
