<?xml version="1.0" standalone="no"?>
<!DOCTYPE svg PUBLIC "-//W3C//DTD SVG 20010904//EN"
 "http://www.w3.org/TR/2001/REC-SVG-20010904/DTD/svg10.dtd">
<svg version="1.0" xmlns="http://www.w3.org/2000/svg"
 width="29.000000pt" height="34.000000pt" viewBox="0 0 29.000000 34.000000"
 preserveAspectRatio="xMidYMid meet">
<metadata>
Created by potrace 1.14, written by Peter Selinger 2001-2017
</metadata>
<g transform="translate(0.000000,34.000000) scale(0.100000,-0.100000)"
fill="#000000" stroke="none">
<path fill="#000000" stroke="none" d="M123 333 c-22 -4 -23 -9 -23 -86 l0
-82 -35 -19 c-46 -25 -51 -33 -60 -82 l-6 -42 48 -7 c52 -8 202 -9 210 -2 2 3
10 27 17 53 18 67 6 100 -39 108 -19 4 -35 8 -35 9 0 1 7 24 15 51 19 62 19
71 -1 90 -15 15 -44 18 -91 9z"/>
</g>
</svg>
