<?xml version="1.0" standalone="no"?>
<!DOCTYPE svg PUBLIC "-//W3C//DTD SVG 20010904//EN"
 "http://www.w3.org/TR/2001/REC-SVG-20010904/DTD/svg10.dtd">
<svg version="1.0" xmlns="http://www.w3.org/2000/svg"
 width="75.000000pt" height="149.000000pt" viewBox="0 0 75.000000 149.000000"
 preserveAspectRatio="xMidYMid meet">
<metadata>
Created by potrace 1.14, written by Peter Selinger 2001-2017
</metadata>
<g transform="translate(0.000000,149.000000) scale(0.100000,-0.100000)"
fill="#000000" stroke="none">
<path fill="#000000" stroke="none" d="M247 1459 c-20 -17 -37 -37 -37 -44 0
-7 -15 -40 -34 -72 -19 -32 -37 -78 -41 -103 -6 -38 -17 -56 -70 -110 l-64
-65 38 -100 38 -100 110 -55 c128 -64 203 -124 229 -183 11 -23 32 -53 47 -66
30 -25 167 -288 243 -466 37 -86 43 -95 43 -65 1 19 -4 184 -9 365 -7 251 -13
343 -26 384 -18 60 -94 188 -157 266 -51 61 -53 63 -97 70 -61 10 -64 16 -50
76 7 30 26 83 42 119 l29 66 -45 46 c-41 43 -91 68 -136 68 -9 0 -32 -14 -53
-31z"/>
</g>
</svg>
