<?xml version="1.0" standalone="no"?>
<!DOCTYPE svg PUBLIC "-//W3C//DTD SVG 20010904//EN"
 "http://www.w3.org/TR/2001/REC-SVG-20010904/DTD/svg10.dtd">
<svg version="1.0" xmlns="http://www.w3.org/2000/svg"
 width="307.000000pt" height="603.000000pt" viewBox="0 0 307.000000 603.000000"
 preserveAspectRatio="xMidYMid meet">
<metadata>
Created by potrace 1.14, written by Peter Selinger 2001-2017
</metadata>
<g transform="translate(0.000000,603.000000) scale(0.100000,-0.100000)"
fill="#000000" stroke="none">
<path fill="#000000" stroke="none" d="M1265 6014 c-495 -6 -962 -12 -1037
-13 l-138 -1 0 -57 c0 -32 7 -190 16 -351 l16 -293 -64 -124 -63 -124 29 -53
c66 -122 65 -121 92 -103 l24 15 0 -44 c0 -85 7 -100 68 -137 31 -19 73 -44
94 -57 l37 -22 138 123 c98 87 164 137 227 170 48 27 90 46 93 44 2 -3 12 -36
22 -74 10 -37 100 -292 200 -566 l182 -499 239 -876 238 -877 56 -395 c58
-410 80 -626 76 -744 -1 -64 -6 -77 -58 -169 -31 -54 -71 -115 -88 -135 -16
-21 -36 -51 -43 -69 -8 -20 -18 -30 -26 -26 -8 2 -27 -10 -43 -29 -17 -18 -64
-51 -106 -73 -42 -22 -75 -43 -73 -47 1 -3 103 -90 226 -192 183 -151 230
-186 255 -186 17 0 130 -7 251 -15 121 -7 220 -13 220 -12 1 1 31 56 67 122
36 66 77 146 91 177 29 66 15 61 217 83 80 9 150 18 157 20 7 2 -72 148 -196
361 l-208 357 -138 64 c-76 34 -140 65 -143 68 -3 2 14 107 38 232 l42 228 76
94 c43 52 172 211 288 354 l211 259 57 257 c40 180 77 311 123 443 l65 187
-31 243 c-26 207 -33 307 -45 678 l-14 435 -65 220 c-69 234 -164 461 -390
932 l-102 213 -130 -2 c-71 -1 -535 -7 -1030 -14z"/>
</g>
</svg>
