<?xml version="1.0" standalone="no"?>
<!DOCTYPE svg PUBLIC "-//W3C//DTD SVG 20010904//EN"
 "http://www.w3.org/TR/2001/REC-SVG-20010904/DTD/svg10.dtd">
<svg version="1.0" xmlns="http://www.w3.org/2000/svg"
 width="106.000000pt" height="299.000000pt" viewBox="0 0 106.000000 299.000000"
 preserveAspectRatio="xMidYMid meet">
<metadata>
Created by potrace 1.14, written by Peter Selinger 2001-2017
</metadata>
<g transform="translate(0.000000,299.000000) scale(0.100000,-0.100000)"
fill="#000000" stroke="none">
<path fill="#000000" stroke="none" d="M548 2975 c-84 -23 -101 -45 -155 -198
-32 -91 -52 -136 -60 -132 -10 3 -11 -10 -7 -53 6 -55 4 -59 -36 -116 l-43
-58 8 -136 7 -136 58 -117 c39 -76 80 -142 121 -188 52 -60 64 -82 79 -141 10
-38 32 -95 49 -125 l32 -56 -46 -197 c-39 -170 -52 -211 -97 -300 l-52 -103
18 -47 c10 -26 20 -58 23 -72 5 -28 -142 -559 -161 -576 -6 -6 -42 -24 -80
-39 -37 -16 -70 -35 -73 -41 -3 -7 -25 -16 -50 -20 -41 -6 -69 -24 -76 -48 -2
-12 355 -78 364 -68 3 4 52 115 109 247 104 240 160 397 160 446 0 15 9 46 19
70 11 24 40 109 66 189 26 80 48 146 49 147 1 2 63 -131 137 -294 l134 -297 8
322 8 323 -45 302 c-25 166 -55 367 -67 446 -21 138 -22 150 -8 307 l14 164
-105 113 -106 112 13 55 c14 55 10 189 -5 217 -14 24 -126 113 -142 112 -8 0
-36 -7 -62 -14z"/>
<path fill="#ffffff" stroke="none" d="M393 2340 c3 -55 3 -127 0 -160 -6 -59
-6 -60 -25 -43 -24 22 -48 65 -63 118 -10 31 -9 50 1 89 12 46 59 110 74 101
4 -2 10 -49 13 -105z"/>
<path fill="#000000" stroke="none" d="M995 24 l-50 -23 58 0 c50 -1 57 1 57
18 0 30 -10 30 -65 5z"/>
</g>
</svg>
