<?xml version="1.0" standalone="no"?>
<!DOCTYPE svg PUBLIC "-//W3C//DTD SVG 20010904//EN"
 "http://www.w3.org/TR/2001/REC-SVG-20010904/DTD/svg10.dtd">
<svg version="1.0" xmlns="http://www.w3.org/2000/svg"
 width="326.000000pt" height="420.000000pt" viewBox="0 0 326.000000 420.000000"
 preserveAspectRatio="xMidYMid meet">
<metadata>
Created by potrace 1.14, written by Peter Selinger 2001-2017
</metadata>
<g transform="translate(0.000000,420.000000) scale(0.100000,-0.100000)"
fill="#000000" stroke="none">
<path fill="#000000" stroke="none" d="M1053 4083 c-48 -65 -131 -178 -185
-251 -54 -73 -98 -136 -98 -141 0 -5 28 -76 63 -158 50 -118 83 -179 160 -290
73 -106 108 -170 146 -263 28 -67 51 -128 51 -134 0 -6 -206 -90 -457 -187
l-457 -176 -106 -309 -106 -309 9 -635 9 -635 -40 -97 c-23 -54 -38 -98 -35
-98 3 0 35 21 72 47 66 47 67 48 231 75 91 15 246 45 345 66 107 23 195 37
218 34 29 -3 44 1 60 16 21 20 38 21 292 27 237 6 476 -2 685 -21 62 -5 244
-38 335 -60 33 -8 98 -21 144 -30 46 -8 94 -22 106 -30 13 -8 72 -29 131 -45
l109 -31 110 -109 c61 -60 118 -109 126 -109 42 0 23 -72 -37 -143 -13 -16
-24 -32 -24 -35 0 -4 62 -15 138 -25 75 -10 154 -21 175 -24 l37 -6 0 1122 c0
1332 11 1208 -120 1312 l-85 68 -422 158 c-296 111 -423 162 -423 173 0 8 12
70 26 137 l27 123 99 87 c54 49 100 97 103 108 2 11 14 109 26 218 l21 199
-22 221 c-13 122 -26 226 -30 230 -6 7 -1050 44 -1288 47 -30 0 -39 -9 -119
-117z"/>
</g>
</svg>
