<?xml version="1.0" standalone="no"?>
<!DOCTYPE svg PUBLIC "-//W3C//DTD SVG 20010904//EN"
 "http://www.w3.org/TR/2001/REC-SVG-20010904/DTD/svg10.dtd">
<svg version="1.0" xmlns="http://www.w3.org/2000/svg"
 width="46.000000pt" height="36.000000pt" viewBox="0 0 46.000000 36.000000"
 preserveAspectRatio="xMidYMid meet">
<metadata>
Created by potrace 1.14, written by Peter Selinger 2001-2017
</metadata>
<g transform="translate(0.000000,36.000000) scale(0.100000,-0.100000)"
fill="#000000" stroke="none">
<path fill="#000000" stroke="none" d="M169 347 c-40 -9 -63 -41 -74 -102 -4
-22 -14 -51 -22 -64 -8 -13 -13 -37 -11 -53 4 -24 0 -32 -22 -43 -25 -13 -40
-39 -40 -72 0 -15 111 -17 308 -6 l121 6 15 44 15 44 -34 15 c-19 8 -39 14
-44 14 -20 0 -23 47 -6 74 17 25 16 26 -11 50 -16 13 -46 40 -67 59 -41 38
-74 47 -128 34z"/>
</g>
</svg>
