<?xml version="1.0" standalone="no"?>
<!DOCTYPE svg PUBLIC "-//W3C//DTD SVG 20010904//EN"
 "http://www.w3.org/TR/2001/REC-SVG-20010904/DTD/svg10.dtd">
<svg version="1.0" xmlns="http://www.w3.org/2000/svg"
 width="29.000000pt" height="91.000000pt" viewBox="0 0 29.000000 91.000000"
 preserveAspectRatio="xMidYMid meet">
<metadata>
Created by potrace 1.14, written by Peter Selinger 2001-2017
</metadata>
<g transform="translate(0.000000,91.000000) scale(0.100000,-0.100000)"
fill="#000000" stroke="none">
<path fill="#000000" stroke="none" d="M166 895 c-8 -8 -18 -25 -22 -38 -4
-12 -31 -47 -61 -77 -30 -30 -61 -67 -69 -83 -14 -26 -13 -29 14 -55 36 -34
43 -96 27 -247 -4 -48 -2 -84 7 -115 8 -29 11 -68 7 -110 -3 -36 -1 -70 4 -77
5 -7 6 -17 2 -23 -9 -15 13 -40 35 -40 24 0 33 40 25 115 -4 37 -2 86 5 121
l12 59 18 -45 c9 -25 14 -52 10 -60 -14 -29 -21 -167 -10 -194 8 -22 15 -27
38 -24 24 3 27 6 24 39 -4 40 34 314 46 335 4 8 2 55 -4 106 -8 66 -9 117 -2
175 8 70 7 86 -6 105 -9 13 -16 43 -16 69 0 67 -46 102 -84 64z"/>
</g>
</svg>
