<?xml version="1.0" standalone="no"?>
<!DOCTYPE svg PUBLIC "-//W3C//DTD SVG 20010904//EN"
 "http://www.w3.org/TR/2001/REC-SVG-20010904/DTD/svg10.dtd">
<svg version="1.0" xmlns="http://www.w3.org/2000/svg"
 width="48.000000pt" height="73.000000pt" viewBox="0 0 48.000000 73.000000"
 preserveAspectRatio="xMidYMid meet">
<metadata>
Created by potrace 1.14, written by Peter Selinger 2001-2017
</metadata>
<g transform="translate(0.000000,73.000000) scale(0.100000,-0.100000)"
fill="#000000" stroke="none">
<path fill="#000000" stroke="none" d="M90 706 l-85 -21 -3 -44 c-3 -42 -1
-46 48 -89 77 -67 100 -121 100 -233 0 -69 5 -107 21 -150 24 -66 36 -79 99
-104 47 -18 203 -65 206 -62 2 3 -25 206 -31 234 -4 15 -21 29 -54 44 -27 11
-59 31 -72 45 -21 23 -22 27 -11 104 18 126 -6 217 -72 269 -45 36 -36 35
-146 7z"/>
</g>
</svg>
