<?xml version="1.0" standalone="no"?>
<!DOCTYPE svg PUBLIC "-//W3C//DTD SVG 20010904//EN"
 "http://www.w3.org/TR/2001/REC-SVG-20010904/DTD/svg10.dtd">
<svg version="1.0" xmlns="http://www.w3.org/2000/svg"
 width="210.000000pt" height="206.000000pt" viewBox="0 0 210.000000 206.000000"
 preserveAspectRatio="xMidYMid meet">
<metadata>
Created by potrace 1.14, written by Peter Selinger 2001-2017
</metadata>
<g transform="translate(0.000000,206.000000) scale(0.100000,-0.100000)"
fill="#000000" stroke="none">
<path fill="#000000" stroke="none" d="M1408 2003 c-56 -58 -56 -59 -67 -142
-6 -46 -11 -108 -11 -137 0 -47 -6 -61 -55 -136 -75 -111 -125 -140 -372 -212
l-184 -54 -164 29 -164 30 -121 -35 c-112 -32 -125 -39 -196 -97 -61 -49 -75
-66 -70 -83 3 -11 8 -44 12 -72 3 -28 9 -56 13 -61 3 -6 96 -40 206 -76 183
-61 213 -68 346 -81 l145 -14 151 28 c104 20 181 41 247 68 76 31 96 36 92 23
-3 -9 -14 -60 -26 -114 -13 -65 -35 -127 -64 -186 l-45 -88 -163 27 c-90 16
-164 27 -165 26 -1 -1 159 -78 357 -171 l359 -170 -32 -14 c-191 -87 -545
-266 -535 -272 7 -3 280 -10 606 -13 l592 -7 0 995 0 995 -34 26 c-34 26 -37
26 -278 35 -133 5 -261 10 -283 10 -36 0 -47 -6 -97 -57z"/>
<path fill="#ffffff" stroke="none" d="M1316 803 c24 -16 44 -30 44 -33 0 -3
-43 -22 -95 -42 -52 -20 -95 -35 -95 -33 0 2 9 33 20 69 20 63 22 66 52 66 17
0 50 -12 74 -27z"/>
<path fill="#ffffff" stroke="none" d="M1290 613 c-8 -2 -25 -9 -37 -15 -13
-6 -26 -8 -29 -5 -8 8 34 26 61 26 13 -1 15 -2 5 -6z"/>
<path fill="#ffffff" stroke="none" d="M1394 506 c-10 -8 -23 -12 -28 -9 -5 3
2 12 15 19 30 16 39 9 13 -10z"/>
<path fill="#ffffff" stroke="none" d="M1728 361 c-26 -34 -32 -35 -95 -20
-39 10 -43 13 -27 23 11 6 44 13 74 17 30 3 59 7 63 8 5 0 -2 -12 -15 -28z"/>
</g>
</svg>
