<?xml version="1.0" standalone="no"?>
<!DOCTYPE svg PUBLIC "-//W3C//DTD SVG 20010904//EN"
 "http://www.w3.org/TR/2001/REC-SVG-20010904/DTD/svg10.dtd">
<svg version="1.0" xmlns="http://www.w3.org/2000/svg"
 width="101.000000pt" height="142.000000pt" viewBox="0 0 101.000000 142.000000"
 preserveAspectRatio="xMidYMid meet">
<metadata>
Created by potrace 1.14, written by Peter Selinger 2001-2017
</metadata>
<g transform="translate(0.000000,142.000000) scale(0.100000,-0.100000)"
fill="#000000" stroke="none">
<path fill="#000000" stroke="none" d="M356 1361 l-58 -59 7 -78 c4 -44 18
-115 31 -160 13 -44 24 -100 24 -125 l0 -45 -97 -60 c-54 -34 -121 -73 -148
-87 -80 -40 -91 -54 -103 -130 -15 -95 11 -341 60 -570 l10 -48 86 7 c82 6 93
10 185 63 53 30 97 58 97 62 0 4 -13 37 -29 72 -16 36 -39 100 -51 141 -11 41
-34 104 -50 140 -43 95 -41 147 8 208 29 37 52 53 112 78 l76 30 114 -21 c110
-21 118 -24 180 -73 36 -28 95 -79 132 -114 l67 -64 -24 89 -25 88 -110 103
-110 104 19 36 c19 37 19 38 -9 198 -40 225 -40 225 -133 252 -42 12 -103 22
-139 22 l-64 0 -58 -59z"/>
</g>
</svg>
