<?xml version="1.0" standalone="no"?>
<!DOCTYPE svg PUBLIC "-//W3C//DTD SVG 20010904//EN"
 "http://www.w3.org/TR/2001/REC-SVG-20010904/DTD/svg10.dtd">
<svg version="1.0" xmlns="http://www.w3.org/2000/svg"
 width="30.000000pt" height="36.000000pt" viewBox="0 0 30.000000 36.000000"
 preserveAspectRatio="xMidYMid meet">
<metadata>
Created by potrace 1.14, written by Peter Selinger 2001-2017
</metadata>
<g transform="translate(0.000000,36.000000) scale(0.100000,-0.100000)"
fill="#000000" stroke="none">
<path fill="#000000" stroke="none" d="M86 329 c-21 -16 -44 -29 -51 -29 -8 0
-17 -33 -25 -96 l-12 -95 42 -55 c22 -29 46 -54 53 -54 24 0 36 16 39 55 3 39
4 40 44 43 41 3 42 2 51 -35 7 -33 13 -38 39 -41 l31 -3 -20 75 c-19 72 -22
77 -73 110 -50 34 -52 36 -47 73 4 28 0 44 -13 60 l-19 21 -39 -29z"/>
</g>
</svg>
