<?xml version="1.0" standalone="no"?>
<!DOCTYPE svg PUBLIC "-//W3C//DTD SVG 20010904//EN"
 "http://www.w3.org/TR/2001/REC-SVG-20010904/DTD/svg10.dtd">
<svg version="1.0" xmlns="http://www.w3.org/2000/svg"
 width="34.000000pt" height="64.000000pt" viewBox="0 0 34.000000 64.000000"
 preserveAspectRatio="xMidYMid meet">
<metadata>
Created by potrace 1.14, written by Peter Selinger 2001-2017
</metadata>
<g transform="translate(0.000000,64.000000) scale(0.100000,-0.100000)"
fill="#000000" stroke="none">
<path fill="#000000" stroke="none" d="M190 589 c0 -43 -3 -50 -28 -63 -56
-29 -173 -190 -157 -216 10 -16 25 -11 25 8 0 11 3 13 8 5 5 -9 22 0 55 28
l47 41 0 -38 c0 -53 -57 -264 -81 -296 -31 -43 -25 -58 22 -58 37 0 41 3 56
38 67 161 101 200 71 80 -19 -72 -11 -112 23 -116 26 -3 26 -2 45 109 14 87
24 119 43 142 23 28 24 30 13 108 -7 49 -20 92 -32 109 -11 15 -20 43 -20 62
0 44 -32 94 -64 100 -25 5 -26 4 -26 -43z"/>
</g>
</svg>
