<?xml version="1.0" standalone="no"?>
<!DOCTYPE svg PUBLIC "-//W3C//DTD SVG 20010904//EN"
 "http://www.w3.org/TR/2001/REC-SVG-20010904/DTD/svg10.dtd">
<svg version="1.0" xmlns="http://www.w3.org/2000/svg"
 width="446.000000pt" height="475.000000pt" viewBox="0 0 446.000000 475.000000"
 preserveAspectRatio="xMidYMid meet">
<metadata>
Created by potrace 1.14, written by Peter Selinger 2001-2017
</metadata>
<g transform="translate(0.000000,475.000000) scale(0.100000,-0.100000)"
fill="#000000" stroke="none">
<path fill="#000000" stroke="none" d="M0 2383 l0 -2370 457 -6 c252 -3 459
-5 461 -3 1 2 -20 22 -48 44 -77 61 -196 236 -216 318 -15 60 -15 73 -1 167
10 62 27 320 42 652 28 610 42 736 101 917 l35 107 105 68 104 67 -166 167
-167 167 92 46 91 46 -48 73 c-79 118 -139 238 -146 292 -6 41 -2 63 20 120
l26 70 -5 250 c-2 138 -2 309 2 380 l6 130 43 58 c52 69 198 187 337 273 74
45 146 78 259 118 150 53 162 56 254 56 53 0 165 -9 247 -19 123 -16 178 -29
308 -73 l159 -54 82 -149 c141 -260 368 -591 442 -646 25 -19 55 -51 65 -72
19 -36 19 -41 4 -125 -12 -62 -39 -140 -96 -274 l-79 -186 0 -105 0 -104 98
-6 c53 -4 151 -7 217 -7 102 0 130 -4 180 -23 49 -19 64 -30 81 -63 224 -421
280 -524 284 -523 11 0 183 253 192 282 6 18 11 144 13 280 1 137 7 253 12
258 5 5 127 76 272 157 l262 147 38 85 37 85 -18 210 c-10 116 -36 396 -58
623 -22 227 -40 419 -40 426 0 11 -314 14 -1632 20 -898 3 -1875 9 -2170 12
l-538 7 0 -2370z"/>
</g>
</svg>
