<?xml version="1.0" standalone="no"?>
<!DOCTYPE svg PUBLIC "-//W3C//DTD SVG 20010904//EN"
 "http://www.w3.org/TR/2001/REC-SVG-20010904/DTD/svg10.dtd">
<svg version="1.0" xmlns="http://www.w3.org/2000/svg"
 width="42.000000pt" height="168.000000pt" viewBox="0 0 42.000000 168.000000"
 preserveAspectRatio="xMidYMid meet">
<metadata>
Created by potrace 1.14, written by Peter Selinger 2001-2017
</metadata>
<g transform="translate(0.000000,168.000000) scale(0.100000,-0.100000)"
fill="#000000" stroke="none">
<path fill="#000000" stroke="none" d="M248 1647 l-68 -30 0 -51 c0 -28 7 -77
14 -110 l14 -58 -33 -37 c-37 -41 -69 -101 -96 -180 -11 -30 -26 -65 -35 -78
-14 -22 -13 -25 17 -55 l31 -32 -42 -142 -42 -143 7 -194 7 -195 49 -21 49
-20 0 -59 c0 -67 -5 -73 -78 -107 l-47 -22 32 -7 c38 -9 42 -29 18 -77 l-16
-30 68 3 c59 3 68 6 71 23 2 11 19 36 38 56 33 34 34 38 25 77 -6 31 -6 42 3
42 12 0 57 174 61 235 2 17 8 43 14 58 6 16 11 46 11 67 0 21 9 91 21 157 11
65 22 154 23 198 2 44 16 131 31 194 33 135 30 183 -15 244 l-30 41 25 42 c20
34 25 56 25 113 l0 70 -42 29 -43 29 -67 -30z"/>
</g>
</svg>
