<?xml version="1.0" standalone="no"?>
<!DOCTYPE svg PUBLIC "-//W3C//DTD SVG 20010904//EN"
 "http://www.w3.org/TR/2001/REC-SVG-20010904/DTD/svg10.dtd">
<svg version="1.0" xmlns="http://www.w3.org/2000/svg"
 width="66.000000pt" height="132.000000pt" viewBox="0 0 66.000000 132.000000"
 preserveAspectRatio="xMidYMid meet">
<metadata>
Created by potrace 1.14, written by Peter Selinger 2001-2017
</metadata>
<g transform="translate(0.000000,132.000000) scale(0.100000,-0.100000)"
fill="#000000" stroke="none">
<path fill="#000000" stroke="none" d="M383 1289 c-48 -28 -51 -32 -57 -82
-14 -101 -13 -107 17 -125 26 -16 30 -16 105 11 42 15 92 27 110 27 38 0 39 7
11 63 -34 65 -61 98 -100 117 l-35 18 -51 -29z"/>
<path fill="#000000" stroke="none" d="M535 1003 c-27 -2 -78 -13 -112 -24
-61 -20 -63 -21 -102 -94 -35 -64 -41 -83 -41 -135 0 -57 -2 -61 -27 -71 -16
-6 -50 -11 -78 -10 -29 1 -71 -7 -101 -20 -42 -16 -53 -26 -61 -53 l-10 -33
68 -22 c75 -24 96 -23 217 11 71 21 73 21 87 2 9 -11 13 -31 10 -49 -2 -16 -7
-59 -11 -95 -6 -63 -5 -66 25 -98 l32 -33 -22 -32 c-13 -18 -23 -33 -25 -35
-1 -2 -31 9 -67 24 -74 30 -77 36 -65 124 5 33 3 76 -3 106 -11 47 -13 50 -36
46 l-25 -5 7 -156 c7 -171 -2 -227 -52 -301 -13 -19 -23 -38 -23 -42 0 -5 88
-8 195 -8 l194 0 7 38 c22 129 39 188 79 272 l44 95 11 230 c15 297 5 377 -43
373 -12 -1 -44 -3 -72 -5z"/>
</g>
</svg>
