<?xml version="1.0" standalone="no"?>
<!DOCTYPE svg PUBLIC "-//W3C//DTD SVG 20010904//EN"
 "http://www.w3.org/TR/2001/REC-SVG-20010904/DTD/svg10.dtd">
<svg version="1.0" xmlns="http://www.w3.org/2000/svg"
 width="21.000000pt" height="46.000000pt" viewBox="0 0 21.000000 46.000000"
 preserveAspectRatio="xMidYMid meet">
<metadata>
Created by potrace 1.14, written by Peter Selinger 2001-2017
</metadata>
<g transform="translate(0.000000,46.000000) scale(0.100000,-0.100000)"
fill="#000000" stroke="none">
<path fill="#000000" stroke="none" d="M85 439 c-4 -11 -4 -23 -1 -26 3 -4 -2
-12 -12 -19 -28 -20 -75 -148 -67 -184 9 -40 37 -41 29 -1 -4 16 -1 32 5 35
18 11 13 -45 -9 -116 -11 -34 -20 -73 -20 -85 0 -29 29 -44 73 -36 31 5 40 12
58 50 15 31 26 43 37 38 12 -4 14 2 9 39 -4 30 -2 54 9 75 13 26 13 34 1 58
-8 15 -18 46 -22 68 -4 22 -11 45 -17 52 -5 7 -7 17 -3 23 3 5 3 19 0 30 -9
28 -61 28 -70 -1z"/>
</g>
</svg>
