<?xml version="1.0" standalone="no"?>
<!DOCTYPE svg PUBLIC "-//W3C//DTD SVG 20010904//EN"
 "http://www.w3.org/TR/2001/REC-SVG-20010904/DTD/svg10.dtd">
<svg version="1.0" xmlns="http://www.w3.org/2000/svg"
 width="39.000000pt" height="261.000000pt" viewBox="0 0 39.000000 261.000000"
 preserveAspectRatio="xMidYMid meet">
<metadata>
Created by potrace 1.14, written by Peter Selinger 2001-2017
</metadata>
<g transform="translate(0.000000,261.000000) scale(0.100000,-0.100000)"
fill="#000000" stroke="none">
<path fill="#000000" stroke="none" d="M346 2585 c-31 -46 -5 -266 34 -290 7
-4 10 49 10 154 0 131 -3 161 -14 161 -7 0 -21 -11 -30 -25z"/>
<path fill="#000000" stroke="none" d="M373 1867 c-7 -24 -15 -85 -19 -135
l-7 -91 -41 -29 c-67 -48 -178 -100 -244 -113 l-62 -13 0 -42 c0 -41 1 -42 39
-49 52 -9 220 -9 260 0 29 6 32 5 28 -11 -3 -11 -27 -106 -52 -213 l-46 -193
21 -142 c33 -225 60 -439 60 -471 0 -18 -23 -69 -55 -125 -53 -92 -56 -96
-140 -146 l-86 -51 93 -22 c57 -13 126 -21 181 -21 l87 0 0 955 c0 525 -1 955
-3 955 -2 0 -8 -19 -14 -43z"/>
</g>
</svg>
