<?xml version="1.0" standalone="no"?>
<!DOCTYPE svg PUBLIC "-//W3C//DTD SVG 20010904//EN"
 "http://www.w3.org/TR/2001/REC-SVG-20010904/DTD/svg10.dtd">
<svg version="1.0" xmlns="http://www.w3.org/2000/svg"
 width="31.000000pt" height="39.000000pt" viewBox="0 0 31.000000 39.000000"
 preserveAspectRatio="xMidYMid meet">
<metadata>
Created by potrace 1.14, written by Peter Selinger 2001-2017
</metadata>
<g transform="translate(0.000000,39.000000) scale(0.100000,-0.100000)"
fill="#000000" stroke="none">
<path fill="#000000" stroke="none" d="M105 333 c-16 -31 -47 -76 -67 -100
-33 -39 -38 -51 -38 -95 0 -44 4 -54 33 -82 48 -45 98 -55 167 -34 30 10 67
20 83 23 26 5 27 8 27 68 -1 93 -14 142 -49 189 -18 24 -37 50 -44 59 -7 9
-28 20 -47 23 -34 6 -36 5 -65 -51z"/>
</g>
</svg>
