<?xml version="1.0" standalone="no"?>
<!DOCTYPE svg PUBLIC "-//W3C//DTD SVG 20010904//EN"
 "http://www.w3.org/TR/2001/REC-SVG-20010904/DTD/svg10.dtd">
<svg version="1.0" xmlns="http://www.w3.org/2000/svg"
 width="114.000000pt" height="197.000000pt" viewBox="0 0 114.000000 197.000000"
 preserveAspectRatio="xMidYMid meet">
<metadata>
Created by potrace 1.14, written by Peter Selinger 2001-2017
</metadata>
<g transform="translate(0.000000,197.000000) scale(0.100000,-0.100000)"
fill="#000000" stroke="none">
<path fill="#000000" stroke="none" d="M643 1885 c-112 -45 -224 -88 -249 -94
-31 -8 -66 -29 -106 -63 l-59 -52 58 -23 c32 -13 72 -38 90 -57 46 -50 57
-100 49 -239 -6 -113 -5 -121 22 -184 25 -61 31 -67 78 -89 51 -23 64 -40 64
-91 0 -20 -5 -23 -37 -23 -21 -1 -69 -7 -106 -14 -82 -16 -128 -50 -175 -129
l-33 -56 50 -64 c39 -49 51 -73 51 -98 0 -19 -4 -39 -8 -45 -17 -26 -150 -82
-224 -94 -89 -14 -80 1 -98 -172 -11 -100 -10 -112 10 -180 12 -40 30 -84 41
-97 l19 -23 53 21 c46 19 57 29 92 88 31 52 58 79 124 129 74 55 96 65 175 85
82 20 96 27 144 73 85 81 87 86 83 272 -2 90 2 208 9 266 12 104 13 105 46
123 29 15 51 17 156 13 136 -5 158 -3 158 17 0 7 4 15 10 17 15 5 -36 258 -71
344 -29 74 -31 90 -37 239 -5 158 -6 161 -36 207 -26 40 -39 50 -83 63 -28 8
-53 15 -55 14 -1 0 -94 -38 -205 -84z"/>
</g>
</svg>
