<?xml version="1.0" standalone="no"?>
<!DOCTYPE svg PUBLIC "-//W3C//DTD SVG 20010904//EN"
 "http://www.w3.org/TR/2001/REC-SVG-20010904/DTD/svg10.dtd">
<svg version="1.0" xmlns="http://www.w3.org/2000/svg"
 width="111.000000pt" height="186.000000pt" viewBox="0 0 111.000000 186.000000"
 preserveAspectRatio="xMidYMid meet">
<metadata>
Created by potrace 1.14, written by Peter Selinger 2001-2017
</metadata>
<g transform="translate(0.000000,186.000000) scale(0.100000,-0.100000)"
fill="#000000" stroke="none">
<path fill="#000000" stroke="none" d="M530 1835 c-47 -14 -102 -30 -123 -36
-33 -9 -38 -14 -34 -31 4 -12 2 -29 -3 -39 -5 -9 -19 -93 -30 -185 l-21 -169
-43 -45 c-24 -25 -61 -79 -81 -120 -70 -141 -113 -206 -154 -235 -23 -15 -41
-33 -41 -39 0 -7 56 -147 125 -311 68 -165 125 -309 125 -321 0 -11 16 -57 35
-101 19 -45 35 -87 35 -95 0 -8 19 -25 42 -38 24 -13 53 -34 65 -46 l22 -22
109 76 c107 77 333 248 426 325 28 24 64 43 84 46 l36 6 -2 98 c-1 54 -4 102
-7 107 -3 5 -20 1 -38 -10 -18 -10 -52 -24 -76 -31 -24 -7 -65 -32 -93 -58
-47 -42 -56 -46 -112 -49 -42 -3 -74 1 -100 12 l-39 16 6 68 c5 45 0 108 -13
196 -35 228 -22 305 68 389 27 25 46 55 58 90 9 28 22 58 28 66 24 29 33 113
19 176 -8 33 -18 94 -24 135 -25 182 -83 223 -249 175z"/>
</g>
</svg>
