<?xml version="1.0" standalone="no"?>
<!DOCTYPE svg PUBLIC "-//W3C//DTD SVG 20010904//EN"
 "http://www.w3.org/TR/2001/REC-SVG-20010904/DTD/svg10.dtd">
<svg version="1.0" xmlns="http://www.w3.org/2000/svg"
 width="11.000000pt" height="43.000000pt" viewBox="0 0 11.000000 43.000000"
 preserveAspectRatio="xMidYMid meet">
<metadata>
Created by potrace 1.14, written by Peter Selinger 2001-2017
</metadata>
<g transform="translate(0.000000,43.000000) scale(0.100000,-0.100000)"
fill="#000000" stroke="none">
<path fill="#000000" stroke="none" d="M71 411 c-12 -12 -21 -27 -21 -34 0 -8
-9 -22 -19 -31 -19 -17 -33 -73 -21 -81 4 -3 3 -27 -2 -55 -5 -27 -8 -85 -6
-127 2 -61 6 -78 18 -78 10 0 14 8 12 25 -4 33 6 70 18 70 6 0 10 -15 10 -34
0 -44 9 -66 26 -66 16 0 18 9 5 29 -5 8 -3 34 5 65 16 59 19 199 4 225 -6 12
-5 31 2 55 15 48 -1 67 -31 37z"/>
</g>
</svg>
