<?xml version="1.0" standalone="no"?>
<!DOCTYPE svg PUBLIC "-//W3C//DTD SVG 20010904//EN"
 "http://www.w3.org/TR/2001/REC-SVG-20010904/DTD/svg10.dtd">
<svg version="1.0" xmlns="http://www.w3.org/2000/svg"
 width="13.000000pt" height="32.000000pt" viewBox="0 0 13.000000 32.000000"
 preserveAspectRatio="xMidYMid meet">
<metadata>
Created by potrace 1.14, written by Peter Selinger 2001-2017
</metadata>
<g transform="translate(0.000000,32.000000) scale(0.100000,-0.100000)"
fill="#000000" stroke="none">
<path fill="#000000" stroke="none" d="M57 313 c-4 -3 -7 -16 -7 -28 0 -12
-11 -32 -25 -45 -25 -23 -33 -64 -16 -75 5 -3 12 7 14 22 2 16 5 -2 6 -39 0
-37 5 -70 11 -73 5 -3 10 -21 10 -38 0 -24 5 -33 18 -34 10 -1 18 6 19 15 1 9
4 46 7 82 3 36 6 70 6 75 0 6 4 4 9 -3 6 -10 10 -4 15 21 8 41 0 64 -25 78
-11 5 -19 19 -19 29 0 20 -11 26 -23 13z"/>
</g>
</svg>
