<?xml version="1.0" standalone="no"?>
<!DOCTYPE svg PUBLIC "-//W3C//DTD SVG 20010904//EN"
 "http://www.w3.org/TR/2001/REC-SVG-20010904/DTD/svg10.dtd">
<svg version="1.0" xmlns="http://www.w3.org/2000/svg"
 width="188.000000pt" height="231.000000pt" viewBox="0 0 188.000000 231.000000"
 preserveAspectRatio="xMidYMid meet">
<metadata>
Created by potrace 1.14, written by Peter Selinger 2001-2017
</metadata>
<g transform="translate(0.000000,231.000000) scale(0.100000,-0.100000)"
fill="#000000" stroke="none">
<path fill="#000000" stroke="none" d="M43 2293 c-22 -11 -33 -24 -33 -39 0
-12 -3 -35 -6 -50 -5 -29 -3 -30 73 -62 70 -28 85 -39 130 -95 43 -54 70 -74
187 -142 l138 -80 -4 -74 -4 -74 57 -25 56 -24 -57 -103 c-43 -76 -72 -150
-118 -293 l-61 -192 20 -117 c11 -65 23 -121 27 -125 4 -3 53 -20 108 -36 93
-28 118 -41 282 -151 156 -104 182 -125 190 -153 6 -22 2 -93 -11 -215 -17
-153 -18 -186 -7 -213 11 -28 17 -31 49 -28 l36 3 -3 82 c-4 73 -1 85 20 113
29 39 67 60 110 60 55 -1 152 -28 165 -47 12 -15 13 -15 13 6 0 32 -26 72 -66
101 l-33 25 -1 98 c0 61 -5 110 -14 132 -13 31 -12 46 18 182 18 81 30 151 27
154 -3 4 -90 53 -193 109 -104 56 -188 105 -188 108 0 4 10 20 23 35 29 36 81
44 167 24 54 -13 67 -14 79 -2 9 9 22 11 40 5 14 -5 105 -32 201 -61 96 -28
187 -60 202 -71 18 -12 32 -36 42 -72 14 -48 20 -55 47 -61 36 -8 29 -13 84
66 29 40 41 66 36 73 -5 6 -117 65 -249 130 l-239 119 -57 115 c-58 117 -60
131 -15 132 8 0 30 11 49 25 19 14 45 25 59 25 49 0 97 20 129 53 l32 33 -25
68 c-14 38 -39 88 -55 111 -42 61 -126 132 -164 138 -30 5 -41 -3 -142 -99
-60 -57 -112 -104 -115 -104 -4 0 -40 25 -82 55 l-75 55 -138 0 -138 0 -175
96 c-131 72 -196 115 -253 167 -43 38 -78 75 -78 82 0 15 -38 45 -55 44 -5 0
-25 -8 -42 -16z"/>
</g>
</svg>
