<?xml version="1.0" standalone="no"?>
<!DOCTYPE svg PUBLIC "-//W3C//DTD SVG 20010904//EN"
 "http://www.w3.org/TR/2001/REC-SVG-20010904/DTD/svg10.dtd">
<svg version="1.0" xmlns="http://www.w3.org/2000/svg"
 width="25.000000pt" height="11.000000pt" viewBox="0 0 25.000000 11.000000"
 preserveAspectRatio="xMidYMid meet">
<metadata>
Created by potrace 1.14, written by Peter Selinger 2001-2017
</metadata>
<g transform="translate(0.000000,11.000000) scale(0.100000,-0.100000)"
fill="#000000" stroke="none">
<path fill="#000000" stroke="none" d="M7 103 c-6 -6 -10 -103 -4 -103 1 0 26
9 55 20 29 11 81 21 118 22 70 2 79 7 69 38 -7 24 -41 26 -69 5 -14 -11 -23
-12 -33 -4 -7 6 -25 9 -39 6 -16 -3 -27 0 -31 9 -5 14 -54 19 -66 7z"/>
</g>
</svg>
