<?xml version="1.0" standalone="no"?>
<!DOCTYPE svg PUBLIC "-//W3C//DTD SVG 20010904//EN"
 "http://www.w3.org/TR/2001/REC-SVG-20010904/DTD/svg10.dtd">
<svg version="1.0" xmlns="http://www.w3.org/2000/svg"
 width="17.000000pt" height="28.000000pt" viewBox="0 0 17.000000 28.000000"
 preserveAspectRatio="xMidYMid meet">
<metadata>
Created by potrace 1.14, written by Peter Selinger 2001-2017
</metadata>
<g transform="translate(0.000000,28.000000) scale(0.100000,-0.100000)"
fill="#000000" stroke="none">
<path fill="#000000" stroke="none" d="M38 273 c-18 -5 -38 -52 -38 -92 0 -14
12 -51 26 -81 14 -30 24 -65 21 -77 -6 -30 20 -18 39 18 17 35 46 37 67 7 16
-22 16 -22 16 22 0 50 -14 75 -51 89 -24 9 -25 13 -20 56 6 58 -8 72 -60 58z"/>
</g>
</svg>
