<?xml version="1.0" standalone="no"?>
<!DOCTYPE svg PUBLIC "-//W3C//DTD SVG 20010904//EN"
 "http://www.w3.org/TR/2001/REC-SVG-20010904/DTD/svg10.dtd">
<svg version="1.0" xmlns="http://www.w3.org/2000/svg"
 width="33.000000pt" height="142.000000pt" viewBox="0 0 33.000000 142.000000"
 preserveAspectRatio="xMidYMid meet">
<metadata>
Created by potrace 1.14, written by Peter Selinger 2001-2017
</metadata>
<g transform="translate(0.000000,142.000000) scale(0.100000,-0.100000)"
fill="#000000" stroke="none">
<path fill="#000000" stroke="none" d="M103 1394 l-52 -23 6 -65 c5 -61 4 -65
-27 -105 l-33 -41 6 -137 c10 -195 44 -434 65 -451 15 -11 17 -35 15 -190 -2
-160 -7 -223 -29 -346 l-7 -38 64 6 c75 8 200 35 213 46 10 10 -22 29 -84 51
-41 14 -45 19 -42 45 2 16 11 97 22 179 10 83 22 216 25 296 7 149 -8 465 -25
530 -9 31 -6 44 20 95 18 36 30 75 30 99 l0 41 -57 15 c-56 15 -60 15 -110 -7z"/>
</g>
</svg>
