<?xml version="1.0" standalone="no"?>
<!DOCTYPE svg PUBLIC "-//W3C//DTD SVG 20010904//EN"
 "http://www.w3.org/TR/2001/REC-SVG-20010904/DTD/svg10.dtd">
<svg version="1.0" xmlns="http://www.w3.org/2000/svg"
 width="81.000000pt" height="168.000000pt" viewBox="0 0 81.000000 168.000000"
 preserveAspectRatio="xMidYMid meet">
<metadata>
Created by potrace 1.14, written by Peter Selinger 2001-2017
</metadata>
<g transform="translate(0.000000,168.000000) scale(0.100000,-0.100000)"
fill="#000000" stroke="none">
<path fill="#000000" stroke="none" d="M352 1635 c-22 -25 -45 -45 -51 -45 -7
0 -5 -13 6 -35 9 -19 20 -35 24 -35 12 0 69 -51 69 -62 0 -7 -26 -8 -75 -3
l-75 7 -80 -58 c-44 -31 -80 -63 -80 -69 0 -7 -20 -23 -45 -36 -70 -37 -64
-56 56 -164 55 -49 113 -94 129 -99 l28 -10 -4 -100 c-2 -56 -6 -111 -9 -124
-4 -14 2 -36 14 -55 21 -36 41 -119 41 -174 0 -21 11 -55 26 -81 l26 -45 -10
-186 c-5 -102 -13 -198 -17 -212 -6 -23 -3 -26 33 -37 39 -12 102 -16 102 -7
0 2 -7 23 -16 45 -13 33 -14 46 -5 66 6 14 11 34 11 46 0 25 67 91 86 84 15
-6 15 -4 -39 114 l-25 56 20 101 21 102 39 6 c40 7 40 7 32 44 -9 44 -14 110
-17 218 l-2 82 35 20 c19 11 49 31 65 45 17 14 35 26 42 26 26 0 103 55 98 69
-3 8 -42 77 -87 152 l-82 138 -51 6 -51 7 11 95 11 94 -33 30 c-27 24 -43 29
-82 29 -46 0 -52 -3 -89 -45z"/>
</g>
</svg>
