<?xml version="1.0" standalone="no"?>
<!DOCTYPE svg PUBLIC "-//W3C//DTD SVG 20010904//EN"
 "http://www.w3.org/TR/2001/REC-SVG-20010904/DTD/svg10.dtd">
<svg version="1.0" xmlns="http://www.w3.org/2000/svg"
 width="69.000000pt" height="99.000000pt" viewBox="0 0 69.000000 99.000000"
 preserveAspectRatio="xMidYMid meet">
<metadata>
Created by potrace 1.14, written by Peter Selinger 2001-2017
</metadata>
<g transform="translate(0.000000,99.000000) scale(0.100000,-0.100000)"
fill="#000000" stroke="none">
<path fill="#000000" stroke="none" d="M134 960 c-10 -16 -26 -32 -35 -35 -14
-5 -15 -11 -6 -40 6 -19 8 -38 4 -41 -3 -4 -24 3 -46 14 -22 12 -42 18 -44 14
-3 -4 29 -64 70 -134 l74 -128 -16 -52 c-8 -28 -15 -55 -15 -59 0 -13 122 -95
175 -116 48 -20 52 -25 120 -147 80 -144 106 -173 191 -208 l61 -26 11 76 c7
43 12 104 12 137 0 60 -1 63 -76 164 l-75 103 -84 -7 -85 -7 -30 67 c-31 69
-37 100 -21 110 20 12 157 -18 207 -46 94 -53 78 -16 -84 194 l-149 192 -71 3
c-69 3 -71 2 -88 -28z"/>
</g>
</svg>
