<?xml version="1.0" standalone="no"?>
<!DOCTYPE svg PUBLIC "-//W3C//DTD SVG 20010904//EN"
 "http://www.w3.org/TR/2001/REC-SVG-20010904/DTD/svg10.dtd">
<svg version="1.0" xmlns="http://www.w3.org/2000/svg"
 width="105.000000pt" height="138.000000pt" viewBox="0 0 105.000000 138.000000"
 preserveAspectRatio="xMidYMid meet">
<metadata>
Created by potrace 1.14, written by Peter Selinger 2001-2017
</metadata>
<g transform="translate(0.000000,138.000000) scale(0.100000,-0.100000)"
fill="#000000" stroke="none">
<path fill="#000000" stroke="none" d="M150 1354 c-79 -37 -90 -49 -90 -104 0
-30 -6 -52 -15 -60 -13 -11 -7 -16 40 -35 78 -32 88 -41 71 -68 -22 -35 -28
-164 -11 -227 8 -30 15 -76 15 -101 0 -38 4 -50 24 -62 14 -10 28 -33 34 -60
10 -38 9 -53 -10 -108 -12 -35 -37 -91 -56 -123 -46 -78 -152 -342 -152 -378
l0 -28 105 0 105 0 0 54 c0 108 -2 105 142 183 l131 71 176 -59 c167 -57 179
-59 246 -53 91 8 145 22 145 37 -1 24 -28 61 -91 123 -49 50 -68 63 -84 58
-28 -9 -28 -10 -15 -34 6 -12 10 -23 8 -25 -2 -2 -42 69 -90 157 l-87 160 38
57 c50 74 55 97 35 178 -29 116 -43 134 -153 187 -71 34 -108 46 -142 46 -96
0 -107 6 -125 69 -8 31 -27 82 -41 114 -25 54 -29 57 -62 57 -20 0 -61 -12
-91 -26z"/>
</g>
</svg>
