<?xml version="1.0" standalone="no"?>
<!DOCTYPE svg PUBLIC "-//W3C//DTD SVG 20010904//EN"
 "http://www.w3.org/TR/2001/REC-SVG-20010904/DTD/svg10.dtd">
<svg version="1.0" xmlns="http://www.w3.org/2000/svg"
 width="284.000000pt" height="218.000000pt" viewBox="0 0 284.000000 218.000000"
 preserveAspectRatio="xMidYMid meet">
<metadata>
Created by potrace 1.14, written by Peter Selinger 2001-2017
</metadata>
<g transform="translate(0.000000,218.000000) scale(0.100000,-0.100000)"
fill="#000000" stroke="none">
<path fill="#000000" stroke="none" d="M845 2170 c-55 -3 -122 -12 -149 -19
-46 -13 -51 -19 -113 -115 -87 -133 -93 -154 -93 -300 l0 -121 98 -225 98
-225 -7 -135 c-4 -74 -7 -169 -8 -211 -1 -68 -3 -77 -21 -82 -19 -5 -20 0 -20
97 l0 102 -30 17 c-29 18 -30 18 -30 -2 0 -17 -6 -21 -32 -21 -30 0 -38 7 -82
76 -28 42 -59 80 -70 85 -12 5 -76 20 -142 33 -152 28 -155 27 -178 -88 -9
-43 -16 -81 -16 -84 0 -3 -11 5 -25 18 l-25 23 0 -75 0 -75 31 -7 c17 -3 46
-6 63 -6 30 0 36 -7 101 -116 84 -142 96 -151 345 -277 169 -86 195 -96 300
-117 91 -17 132 -31 195 -66 45 -24 153 -69 240 -100 88 -30 201 -78 252 -105
l92 -49 39 58 40 57 -29 73 c-16 39 -40 122 -54 184 -24 106 -25 123 -19 288
8 204 25 280 64 291 14 4 113 7 220 8 157 1 216 -3 313 -20 l118 -22 70 28 69
27 139 201 c76 111 164 244 196 295 l58 94 -57 212 -58 212 -76 34 c-41 19
-79 36 -83 38 -4 2 -11 -13 -14 -32 -6 -30 3 -54 69 -182 l77 -148 -27 -61
c-21 -48 -40 -72 -97 -120 -39 -33 -113 -113 -164 -177 -78 -98 -99 -118 -121
-118 -76 -1 -414 -30 -462 -41 -108 -23 -396 5 -524 52 -51 19 -69 35 -143
118 -119 135 -168 249 -204 472 -20 120 -21 142 -9 214 7 44 18 95 26 113 12
30 12 32 -9 30 -12 -1 -67 -4 -122 -8z"/>
</g>
</svg>
