<?xml version="1.0" standalone="no"?>
<!DOCTYPE svg PUBLIC "-//W3C//DTD SVG 20010904//EN"
 "http://www.w3.org/TR/2001/REC-SVG-20010904/DTD/svg10.dtd">
<svg version="1.0" xmlns="http://www.w3.org/2000/svg"
 width="21.000000pt" height="48.000000pt" viewBox="0 0 21.000000 48.000000"
 preserveAspectRatio="xMidYMid meet">
<metadata>
Created by potrace 1.14, written by Peter Selinger 2001-2017
</metadata>
<g transform="translate(0.000000,48.000000) scale(0.100000,-0.100000)"
fill="#000000" stroke="none">
<path fill="#000000" stroke="none" d="M69 453 c0 -28 -1 -28 -11 -5 -16 32
-31 22 -44 -29 -13 -51 -11 -59 18 -59 19 0 20 -4 14 -70 -9 -87 7 -140 73
-247 18 -30 32 -42 46 -40 17 2 20 11 21 82 2 79 7 126 20 197 10 57 -3 126
-26 133 -11 3 -25 18 -32 33 -10 20 -22 28 -46 30 -29 3 -32 1 -33 -25z"/>
</g>
</svg>
