<?xml version="1.0" standalone="no"?>
<!DOCTYPE svg PUBLIC "-//W3C//DTD SVG 20010904//EN"
 "http://www.w3.org/TR/2001/REC-SVG-20010904/DTD/svg10.dtd">
<svg version="1.0" xmlns="http://www.w3.org/2000/svg"
 width="20.000000pt" height="26.000000pt" viewBox="0 0 20.000000 26.000000"
 preserveAspectRatio="xMidYMid meet">
<metadata>
Created by potrace 1.14, written by Peter Selinger 2001-2017
</metadata>
<g transform="translate(0.000000,26.000000) scale(0.100000,-0.100000)"
fill="#000000" stroke="none">
<path fill="#000000" stroke="none" d="M15 232 c28 -42 120 -163 155 -202 l31
-35 -17 35 c-9 19 -30 50 -46 69 -24 27 -29 40 -24 65 5 26 1 37 -21 58 -16
14 -43 28 -62 32 l-33 6 17 -28z"/>
<path fill="#000000" stroke="none" d="M2 58 l3 -53 38 -3 38 -3 -37 55 c-20
31 -39 56 -41 56 -2 0 -3 -24 -1 -52z"/>
</g>
</svg>
