<?xml version="1.0" standalone="no"?>
<!DOCTYPE svg PUBLIC "-//W3C//DTD SVG 20010904//EN"
 "http://www.w3.org/TR/2001/REC-SVG-20010904/DTD/svg10.dtd">
<svg version="1.0" xmlns="http://www.w3.org/2000/svg"
 width="501.000000pt" height="474.000000pt" viewBox="0 0 501.000000 474.000000"
 preserveAspectRatio="xMidYMid meet">
<metadata>
Created by potrace 1.14, written by Peter Selinger 2001-2017
</metadata>
<g transform="translate(0.000000,474.000000) scale(0.100000,-0.100000)"
fill="#000000" stroke="none">
<path fill="#000000" stroke="none" d="M3495 4733 l-50 -4 -65 -117 c-91 -163
-146 -305 -181 -459 l-29 -132 35 -293 c20 -161 42 -338 50 -393 7 -55 11
-128 8 -161 l-6 -61 -136 -44 -136 -43 -250 -7 -250 -7 -285 -66 c-157 -37
-406 -92 -555 -122 -230 -47 -319 -71 -600 -162 -253 -81 -364 -112 -477 -131
l-146 -26 -179 -152 c-172 -145 -180 -154 -209 -221 l-31 -69 121 -211 c67
-116 124 -214 127 -217 3 -3 136 -56 296 -118 l290 -114 154 -126 c118 -97
174 -151 239 -232 46 -58 93 -114 103 -123 11 -9 63 -26 118 -38 l99 -20 47
48 c41 42 61 53 141 78 51 17 100 30 110 30 9 0 46 -18 81 -41 61 -38 64 -39
77 -21 41 59 97 123 115 133 18 9 21 9 17 -2 -3 -8 -22 -72 -42 -142 -38 -128
-47 -148 -352 -772 -43 -88 -80 -163 -82 -167 -2 -5 750 -8 1672 -8 l1676 0
-5 43 c-3 23 -18 172 -32 332 -23 247 -28 361 -32 763 l-6 473 -34 -29 -33
-28 11 -85 c10 -78 8 -111 -23 -370 -19 -156 -40 -340 -46 -409 -11 -130 -24
-194 -66 -323 -27 -82 -26 -81 -104 -90 -19 -3 -44 -8 -55 -11 -17 -6 -26 4
-58 69 l-37 75 0 202 c0 241 13 332 101 683 l60 240 49 50 c27 28 56 67 64 87
l16 37 71 -30 c40 -16 76 -29 80 -29 5 0 9 138 9 308 l0 307 -35 98 c-31 86
-35 109 -35 195 l0 98 -86 97 c-66 73 -109 111 -176 153 -64 41 -87 61 -84 73
2 9 12 72 22 140 l18 125 -103 96 -103 97 90 140 c50 77 96 151 101 164 27 64
51 268 51 426 l0 162 -135 205 -135 206 -393 -2 c-215 -1 -414 -3 -442 -5z"/>
</g>
</svg>
