<?xml version="1.0" standalone="no"?>
<!DOCTYPE svg PUBLIC "-//W3C//DTD SVG 20010904//EN"
 "http://www.w3.org/TR/2001/REC-SVG-20010904/DTD/svg10.dtd">
<svg version="1.0" xmlns="http://www.w3.org/2000/svg"
 width="37.000000pt" height="82.000000pt" viewBox="0 0 37.000000 82.000000"
 preserveAspectRatio="xMidYMid meet">
<metadata>
Created by potrace 1.14, written by Peter Selinger 2001-2017
</metadata>
<g transform="translate(0.000000,82.000000) scale(0.100000,-0.100000)"
fill="#000000" stroke="none">
<path fill="#000000" stroke="none" d="M56 798 c-34 -30 -59 -126 -45 -167 6
-17 26 -42 45 -56 30 -23 34 -31 34 -74 0 -58 -14 -103 -50 -157 -25 -37 -27
-50 -34 -187 l-7 -147 63 0 c35 0 72 -3 84 -6 19 -5 22 1 34 54 14 70 73 145
149 193 25 16 40 29 34 29 -7 0 -13 7 -13 16 0 8 -7 46 -16 85 -13 58 -25 81
-70 135 l-54 67 0 81 c0 90 -11 116 -60 141 -40 21 -65 19 -94 -7z"/>
</g>
</svg>
