<?xml version="1.0" standalone="no"?>
<!DOCTYPE svg PUBLIC "-//W3C//DTD SVG 20010904//EN"
 "http://www.w3.org/TR/2001/REC-SVG-20010904/DTD/svg10.dtd">
<svg version="1.0" xmlns="http://www.w3.org/2000/svg"
 width="86.000000pt" height="103.000000pt" viewBox="0 0 86.000000 103.000000"
 preserveAspectRatio="xMidYMid meet">
<metadata>
Created by potrace 1.14, written by Peter Selinger 2001-2017
</metadata>
<g transform="translate(0.000000,103.000000) scale(0.100000,-0.100000)"
fill="#000000" stroke="none">
<path fill="#000000" stroke="none" d="M450 1025 c0 -3 15 -39 34 -80 32 -69
37 -75 107 -115 41 -24 86 -50 100 -59 l26 -16 -19 -45 -20 -45 -20 41 c-16
32 -33 47 -75 68 -48 24 -61 26 -121 20 -85 -8 -146 -51 -157 -111 -6 -33 -4
-39 29 -67 19 -17 41 -47 49 -67 l15 -36 -108 -50 -108 -51 -51 30 c-41 23
-59 27 -86 22 -45 -8 -51 -18 -22 -41 13 -10 37 -39 55 -64 19 -29 44 -51 63
-58 92 -32 219 14 219 79 0 30 27 60 55 60 10 0 33 -16 52 -35 24 -24 43 -35
63 -35 38 0 180 56 196 78 16 21 9 139 -12 198 -14 40 -13 45 11 98 20 44 30
56 49 56 12 0 31 9 42 21 19 21 19 21 -26 61 -50 45 -163 100 -251 123 -32 9
-65 18 -74 21 -8 3 -15 3 -15 -1z"/>
<path fill="#000000" stroke="none" d="M670 318 c-47 -22 -86 -44 -88 -49 -2
-5 -10 -9 -18 -9 -8 0 -34 -10 -57 -21 l-42 -22 33 -16 c25 -11 44 -35 78 -96
l44 -82 107 -11 c60 -7 114 -12 122 -12 11 0 12 14 6 67 -4 38 -13 79 -20 93
-8 14 -24 58 -36 99 -13 40 -28 79 -34 86 -8 10 -28 4 -95 -27z"/>
</g>
</svg>
