<?xml version="1.0" standalone="no"?>
<!DOCTYPE svg PUBLIC "-//W3C//DTD SVG 20010904//EN"
 "http://www.w3.org/TR/2001/REC-SVG-20010904/DTD/svg10.dtd">
<svg version="1.0" xmlns="http://www.w3.org/2000/svg"
 width="66.000000pt" height="151.000000pt" viewBox="0 0 66.000000 151.000000"
 preserveAspectRatio="xMidYMid meet">
<metadata>
Created by potrace 1.14, written by Peter Selinger 2001-2017
</metadata>
<g transform="translate(0.000000,151.000000) scale(0.100000,-0.100000)"
fill="#000000" stroke="none">
<path fill="#000000" stroke="none" d="M120 1483 c-17 -22 -20 -35 -14 -68 3
-22 11 -45 16 -52 5 -6 8 -24 6 -40 -2 -21 -17 -37 -60 -65 -75 -50 -76 -52
-54 -225 2 -13 8 -28 13 -35 6 -7 13 -46 17 -86 3 -41 11 -82 16 -92 7 -12 6
-55 -1 -125 -9 -77 -9 -117 -1 -143 6 -21 16 -62 23 -92 6 -30 17 -60 25 -66
10 -8 14 -36 14 -95 0 -46 1 -115 3 -154 1 -38 -2 -87 -6 -107 l-8 -38 66 0
67 0 -7 32 c-4 18 -13 43 -21 55 -11 18 -13 53 -9 169 2 80 7 149 10 154 3 4
24 11 46 15 29 5 43 13 46 26 6 23 19 25 30 5 4 -8 23 -16 42 -18 29 -2 40
-11 63 -48 55 -90 68 -120 68 -159 0 -46 9 -51 85 -51 54 0 54 0 61 35 7 42
-6 63 -44 67 -23 2 -29 11 -40 48 -16 57 -34 110 -62 180 -12 30 -28 77 -37
104 -16 55 -65 160 -85 183 -10 13 -46 129 -47 157 -1 5 6 3 14 -4 12 -10 15
-10 15 2 0 9 9 27 20 41 28 35 25 83 -10 145 -21 38 -28 62 -24 82 5 22 2 29
-14 34 -12 4 -23 19 -27 35 -7 33 -46 56 -64 38 -8 -8 -11 -7 -11 6 0 9 5 17
10 17 6 0 10 30 10 70 0 79 -9 90 -79 90 -31 0 -44 -6 -61 -27z"/>
</g>
</svg>
