<?xml version="1.0" standalone="no"?>
<!DOCTYPE svg PUBLIC "-//W3C//DTD SVG 20010904//EN"
 "http://www.w3.org/TR/2001/REC-SVG-20010904/DTD/svg10.dtd">
<svg version="1.0" xmlns="http://www.w3.org/2000/svg"
 width="364.000000pt" height="421.000000pt" viewBox="0 0 364.000000 421.000000"
 preserveAspectRatio="xMidYMid meet">
<metadata>
Created by potrace 1.14, written by Peter Selinger 2001-2017
</metadata>
<g transform="translate(0.000000,421.000000) scale(0.100000,-0.100000)"
fill="#000000" stroke="none">
<path fill="#000000" stroke="none" d="M1770 4194 l-85 -14 -60 -64 c-33 -35
-94 -87 -136 -114 l-75 -49 -177 -289 -176 -289 -148 -154 -147 -154 -273
-133 -273 -133 -105 -98 -104 -98 6 -985 c4 -669 2 -1083 -6 -1289 -6 -167 -9
-307 -5 -310 15 -16 1253 -15 2204 1 558 10 1108 17 1223 18 114 0 207 3 207
7 0 13 -60 187 -68 198 -4 6 -100 49 -215 96 l-207 85 -183 -22 c-180 -22
-185 -22 -517 -7 -320 14 -613 9 -802 -13 -45 -5 -48 -4 -58 20 -7 21 -16 26
-42 26 -55 0 -60 9 -53 86 l7 69 162 1 c223 2 346 17 403 51 48 28 133 145
133 183 0 11 7 20 15 20 9 0 18 6 21 14 4 12 12 13 32 5 14 -5 31 -8 38 -5 6
2 21 -2 33 -11 12 -8 67 -30 123 -49 l102 -34 23 27 c12 16 22 31 23 34 0 3
-86 44 -190 92 -149 68 -257 108 -493 182 -283 89 -310 96 -413 102 l-110 6
-22 270 -22 270 112 251 c109 245 115 255 220 392 l109 142 123 56 c101 46
132 56 178 56 45 0 59 4 78 25 21 23 22 30 16 107 -6 83 -6 83 33 153 26 46
79 113 152 189 l112 117 -6 115 -6 115 -116 169 c-151 221 -447 574 -484 577
-14 1 -64 -5 -111 -13z"/>
</g>
</svg>
