<?xml version="1.0" standalone="no"?>
<!DOCTYPE svg PUBLIC "-//W3C//DTD SVG 20010904//EN"
 "http://www.w3.org/TR/2001/REC-SVG-20010904/DTD/svg10.dtd">
<svg version="1.0" xmlns="http://www.w3.org/2000/svg"
 width="26.000000pt" height="70.000000pt" viewBox="0 0 26.000000 70.000000"
 preserveAspectRatio="xMidYMid meet">
<metadata>
Created by potrace 1.14, written by Peter Selinger 2001-2017
</metadata>
<g transform="translate(0.000000,70.000000) scale(0.100000,-0.100000)"
fill="#000000" stroke="none">
<path fill="#000000" stroke="none" d="M77 685 c-10 -9 -17 -23 -17 -31 0 -8
-14 -42 -31 -76 l-31 -62 5 -226 c4 -124 9 -239 13 -256 5 -29 7 -30 47 -24
l42 5 0 52 c0 60 10 78 19 34 20 -101 15 -94 48 -87 17 3 35 6 41 6 6 0 7 23
3 65 -6 63 -6 66 19 77 21 10 25 18 25 57 0 63 -39 289 -56 326 -8 17 -14 48
-12 68 3 44 -21 73 -68 83 -22 4 -36 1 -47 -11z"/>
</g>
</svg>
