<?xml version="1.0" standalone="no"?>
<!DOCTYPE svg PUBLIC "-//W3C//DTD SVG 20010904//EN"
 "http://www.w3.org/TR/2001/REC-SVG-20010904/DTD/svg10.dtd">
<svg version="1.0" xmlns="http://www.w3.org/2000/svg"
 width="22.000000pt" height="29.000000pt" viewBox="0 0 22.000000 29.000000"
 preserveAspectRatio="xMidYMid meet">
<metadata>
Created by potrace 1.14, written by Peter Selinger 2001-2017
</metadata>
<g transform="translate(0.000000,29.000000) scale(0.100000,-0.100000)"
fill="#000000" stroke="none">
<path fill="#000000" stroke="none" d="M19 264 c-6 -16 -13 -54 -16 -84 -5
-49 -1 -64 26 -118 l31 -62 80 0 c74 0 80 1 80 21 0 11 -10 29 -22 39 -19 15
-25 34 -33 101 -10 80 -11 83 -45 100 -19 10 -47 21 -62 24 -24 6 -29 3 -39
-21z"/>
</g>
</svg>
