<?xml version="1.0" standalone="no"?>
<!DOCTYPE svg PUBLIC "-//W3C//DTD SVG 20010904//EN"
 "http://www.w3.org/TR/2001/REC-SVG-20010904/DTD/svg10.dtd">
<svg version="1.0" xmlns="http://www.w3.org/2000/svg"
 width="34.000000pt" height="55.000000pt" viewBox="0 0 34.000000 55.000000"
 preserveAspectRatio="xMidYMid meet">
<metadata>
Created by potrace 1.14, written by Peter Selinger 2001-2017
</metadata>
<g transform="translate(0.000000,55.000000) scale(0.100000,-0.100000)"
fill="#000000" stroke="none">
<path fill="#000000" stroke="none" d="M134 515 c-6 -36 -28 -55 -62 -55 -30
0 -74 -39 -70 -64 3 -18 12 -22 63 -27 33 -3 71 -10 85 -16 16 -7 34 -7 50 -1
14 5 51 6 82 3 57 -7 58 -6 58 17 0 29 -16 44 -83 83 -35 20 -48 33 -46 49 3
41 -1 46 -36 46 -31 0 -35 -3 -41 -35z"/>
<path fill="#000000" stroke="none" d="M47 293 c-3 -21 -5 -95 -5 -166 l0
-127 38 0 38 0 6 63 c3 34 8 108 11 165 l5 102 -44 0 c-44 0 -44 -1 -49 -37z"/>
<path fill="#000000" stroke="none" d="M198 323 c-18 -3 -28 -12 -33 -31 -7
-29 -8 -262 -1 -269 2 -3 14 -2 25 2 19 6 21 14 22 98 0 51 4 118 8 150 4 31
7 56 7 56 -1 -1 -13 -4 -28 -6z"/>
</g>
</svg>
