<?xml version="1.0" standalone="no"?>
<!DOCTYPE svg PUBLIC "-//W3C//DTD SVG 20010904//EN"
 "http://www.w3.org/TR/2001/REC-SVG-20010904/DTD/svg10.dtd">
<svg version="1.0" xmlns="http://www.w3.org/2000/svg"
 width="35.000000pt" height="28.000000pt" viewBox="0 0 35.000000 28.000000"
 preserveAspectRatio="xMidYMid meet">
<metadata>
Created by potrace 1.14, written by Peter Selinger 2001-2017
</metadata>
<g transform="translate(0.000000,28.000000) scale(0.100000,-0.100000)"
fill="#000000" stroke="none">
<path fill="#000000" stroke="none" d="M9 266 c9 -10 12 -30 9 -54 -3 -20 0
-73 6 -117 l11 -80 70 -6 c39 -4 109 -7 158 -8 91 -1 101 5 73 42 -13 17 -16
17 -67 -3 -63 -23 -89 -25 -89 -6 0 7 -9 25 -20 39 -27 34 -25 61 5 75 30 14
42 55 25 88 -16 28 -23 31 -120 40 -69 7 -74 6 -61 -10z"/>
</g>
</svg>
