<?xml version="1.0" standalone="no"?>
<!DOCTYPE svg PUBLIC "-//W3C//DTD SVG 20010904//EN"
 "http://www.w3.org/TR/2001/REC-SVG-20010904/DTD/svg10.dtd">
<svg version="1.0" xmlns="http://www.w3.org/2000/svg"
 width="29.000000pt" height="41.000000pt" viewBox="0 0 29.000000 41.000000"
 preserveAspectRatio="xMidYMid meet">
<metadata>
Created by potrace 1.14, written by Peter Selinger 2001-2017
</metadata>
<g transform="translate(0.000000,41.000000) scale(0.100000,-0.100000)"
fill="#000000" stroke="none">
<path fill="#000000" stroke="none" d="M91 397 c-20 -9 -22 -16 -18 -48 5 -38
-14 -69 -42 -69 -18 0 -34 -45 -27 -75 l7 -26 66 57 c59 50 68 54 74 38 13
-32 9 -58 -10 -83 -18 -24 -18 -25 0 -65 10 -23 19 -60 19 -84 0 -36 3 -43 18
-40 14 3 16 12 14 51 -5 57 26 123 69 152 24 17 26 22 17 47 -11 30 -71 68
-108 68 -15 0 -20 6 -20 28 0 40 -28 63 -59 49z"/>
</g>
</svg>
