<?xml version="1.0" standalone="no"?>
<!DOCTYPE svg PUBLIC "-//W3C//DTD SVG 20010904//EN"
 "http://www.w3.org/TR/2001/REC-SVG-20010904/DTD/svg10.dtd">
<svg version="1.0" xmlns="http://www.w3.org/2000/svg"
 width="19.000000pt" height="36.000000pt" viewBox="0 0 19.000000 36.000000"
 preserveAspectRatio="xMidYMid meet">
<metadata>
Created by potrace 1.14, written by Peter Selinger 2001-2017
</metadata>
<g transform="translate(0.000000,36.000000) scale(0.100000,-0.100000)"
fill="#000000" stroke="none">
<path fill="#000000" stroke="none" d="M56 338 c-8 -13 -18 -43 -21 -68 -4
-25 -13 -64 -22 -88 -15 -43 -15 -163 0 -178 3 -4 20 -1 37 6 19 8 50 10 79 7
59 -7 65 2 50 71 -6 26 -10 68 -9 94 1 36 -3 49 -20 61 -12 9 -23 30 -27 53
-5 36 -25 64 -45 64 -4 0 -14 -10 -22 -22z"/>
</g>
</svg>
