<?xml version="1.0" standalone="no"?>
<!DOCTYPE svg PUBLIC "-//W3C//DTD SVG 20010904//EN"
 "http://www.w3.org/TR/2001/REC-SVG-20010904/DTD/svg10.dtd">
<svg version="1.0" xmlns="http://www.w3.org/2000/svg"
 width="120.000000pt" height="288.000000pt" viewBox="0 0 120.000000 288.000000"
 preserveAspectRatio="xMidYMid meet">
<metadata>
Created by potrace 1.14, written by Peter Selinger 2001-2017
</metadata>
<g transform="translate(0.000000,288.000000) scale(0.100000,-0.100000)"
fill="#000000" stroke="none">
<path fill="#000000" stroke="none" d="M538 2873 c-32 -5 -31 -2 -53 -157 -15
-103 -14 -110 3 -138 l18 -29 13 28 12 27 24 -30 c29 -35 31 -54 7 -85 -10
-13 -33 -50 -51 -81 -21 -38 -39 -58 -51 -58 -11 0 -22 -10 -26 -22 -4 -13
-15 -34 -25 -47 -15 -19 -19 -41 -19 -103 0 -44 -4 -88 -10 -98 -20 -38 -131
-96 -210 -109 -104 -18 -113 -26 -44 -39 57 -11 64 -10 223 37 l163 49 -5 -34
c-3 -18 -1 -36 4 -39 15 -10 11 -79 -17 -275 l-26 -185 -58 -80 -57 -81 -6
-174 -7 -175 -82 -327 -82 -327 -83 -56 c-46 -31 -85 -60 -87 -64 -3 -3 69
-32 158 -63 l163 -56 169 534 c92 294 170 534 173 534 4 0 43 -167 89 -370
l83 -370 -22 -101 -23 -101 54 -106 c44 -86 55 -102 58 -82 2 14 13 38 25 54
13 19 17 33 11 41 -37 50 -63 93 -66 110 -3 18 7 21 115 35 l119 15 43 60 c24
33 44 67 45 75 0 8 -42 200 -94 425 l-95 410 -2 160 c-2 154 -1 163 25 223 19
44 25 73 21 95 -5 25 3 48 34 107 22 41 46 75 53 75 22 0 20 30 -4 60 -13 16
-51 94 -85 174 -64 148 -109 225 -124 215 -5 -3 -9 -39 -9 -80 0 -63 5 -84 30
-134 17 -33 30 -65 30 -73 0 -7 -20 -27 -43 -44 l-44 -30 -38 76 c-34 67 -39
86 -43 166 -3 70 1 106 17 164 18 64 19 78 7 95 -7 12 -24 66 -37 120 -19 78
-35 117 -74 180 l-51 81 -54 1 c-30 1 -67 -1 -82 -3z"/>
</g>
</svg>
