<?xml version="1.0" standalone="no"?>
<!DOCTYPE svg PUBLIC "-//W3C//DTD SVG 20010904//EN"
 "http://www.w3.org/TR/2001/REC-SVG-20010904/DTD/svg10.dtd">
<svg version="1.0" xmlns="http://www.w3.org/2000/svg"
 width="58.000000pt" height="325.000000pt" viewBox="0 0 58.000000 325.000000"
 preserveAspectRatio="xMidYMid meet">
<metadata>
Created by potrace 1.14, written by Peter Selinger 2001-2017
</metadata>
<g transform="translate(0.000000,325.000000) scale(0.100000,-0.100000)"
fill="#000000" stroke="none">
<path fill="#000000" stroke="none" d="M141 3219 c-8 -24 -8 -36 0 -46 9 -10
9 -40 -1 -121 -20 -174 -37 -247 -76 -324 l-37 -73 -13 -258 -12 -259 49 -256
c28 -142 85 -483 128 -759 l77 -502 -17 -113 c-12 -77 -18 -174 -18 -304 l-1
-191 113 -6 c61 -4 142 -7 180 -7 l67 0 -6 43 c-3 23 -19 120 -35 215 l-28
173 34 160 35 160 0 984 c0 928 -1 984 -17 989 -10 2 -45 10 -78 16 -33 6 -67
13 -76 16 -8 2 -23 29 -33 59 -15 48 -16 67 -6 152 12 96 11 99 -17 183 -33
95 -36 97 -140 99 -60 1 -61 0 -72 -30z"/>
</g>
</svg>
