<?xml version="1.0" standalone="no"?>
<!DOCTYPE svg PUBLIC "-//W3C//DTD SVG 20010904//EN"
 "http://www.w3.org/TR/2001/REC-SVG-20010904/DTD/svg10.dtd">
<svg version="1.0" xmlns="http://www.w3.org/2000/svg"
 width="247.000000pt" height="318.000000pt" viewBox="0 0 247.000000 318.000000"
 preserveAspectRatio="xMidYMid meet">
<metadata>
Created by potrace 1.14, written by Peter Selinger 2001-2017
</metadata>
<g transform="translate(0.000000,318.000000) scale(0.100000,-0.100000)"
fill="#000000" stroke="none">
<path fill="#000000" stroke="none" d="M435 3146 l-80 -32 -82 -134 -82 -134
84 -92 c47 -50 85 -95 85 -99 0 -4 -81 -154 -179 -334 l-179 -326 19 -180 c10
-99 19 -185 19 -191 0 -6 42 -47 93 -92 76 -68 116 -94 227 -148 l135 -66 60
34 60 33 165 3 165 3 265 -100 c248 -93 275 -101 400 -118 l134 -18 9 -45 c4
-25 5 -122 2 -217 l-6 -172 57 -215 57 -216 -27 -91 c-15 -50 -26 -92 -24 -94
2 -2 62 -27 133 -55 l130 -52 148 5 c82 3 151 8 154 11 5 5 -69 91 -199 232
-27 28 -48 93 -132 404 -3 14 21 -29 55 -95 43 -83 99 -168 182 -277 67 -87
124 -158 127 -158 3 0 18 20 33 45 33 52 39 39 -82 177 l-85 95 3 165 2 164
-138 78 c-76 43 -140 80 -142 82 -3 2 89 563 93 571 1 1 70 10 154 19 84 10
147 21 140 25 -7 3 -114 37 -238 74 -131 39 -305 101 -417 147 l-193 80 -117
217 -116 216 -156 160 c-86 88 -188 194 -228 235 l-72 75 10 184 c5 101 7 186
5 189 -6 5 -325 63 -341 61 -5 0 -46 -15 -90 -33z"/>
</g>
</svg>
