<?xml version="1.0" standalone="no"?>
<!DOCTYPE svg PUBLIC "-//W3C//DTD SVG 20010904//EN"
 "http://www.w3.org/TR/2001/REC-SVG-20010904/DTD/svg10.dtd">
<svg version="1.0" xmlns="http://www.w3.org/2000/svg"
 width="281.000000pt" height="465.000000pt" viewBox="0 0 281.000000 465.000000"
 preserveAspectRatio="xMidYMid meet">
<metadata>
Created by potrace 1.14, written by Peter Selinger 2001-2017
</metadata>
<g transform="translate(0.000000,465.000000) scale(0.100000,-0.100000)"
fill="#000000" stroke="none">
<path fill="#000000" stroke="none" d="M1895 4555 l-200 -93 -315 -361 -315
-362 -418 -344 c-339 -279 -440 -368 -532 -468 l-113 -123 26 -189 27 -188
499 -311 499 -311 746 -687 746 -686 130 -215 130 -214 3 1355 c1 745 1 1356
0 1357 -2 1 -258 26 -570 56 l-567 53 22 30 c13 17 267 354 565 749 l542 718
-21 147 c-12 81 -23 149 -25 151 -4 4 -513 31 -594 30 -61 0 -78 -7 -265 -94z"/>
</g>
</svg>
