<?xml version="1.0" standalone="no"?>
<!DOCTYPE svg PUBLIC "-//W3C//DTD SVG 20010904//EN"
 "http://www.w3.org/TR/2001/REC-SVG-20010904/DTD/svg10.dtd">
<svg version="1.0" xmlns="http://www.w3.org/2000/svg"
 width="8.000000pt" height="14.000000pt" viewBox="0 0 8.000000 14.000000"
 preserveAspectRatio="xMidYMid meet">
<metadata>
Created by potrace 1.14, written by Peter Selinger 2001-2017
</metadata>
<g transform="translate(0.000000,14.000000) scale(0.100000,-0.100000)"
fill="#000000" stroke="none">
<path fill="#000000" stroke="none" d="M12 120 c-9 -15 -10 -26 -2 -40 5 -10
10 -34 10 -52 0 -25 3 -29 10 -18 6 10 10 11 10 3 0 -7 5 -13 11 -13 7 0 9 10
7 24 -3 16 0 27 9 30 18 7 8 44 -18 69 -23 21 -22 21 -37 -3z"/>
</g>
</svg>
