<?xml version="1.0" standalone="no"?>
<!DOCTYPE svg PUBLIC "-//W3C//DTD SVG 20010904//EN"
 "http://www.w3.org/TR/2001/REC-SVG-20010904/DTD/svg10.dtd">
<svg version="1.0" xmlns="http://www.w3.org/2000/svg"
 width="14.000000pt" height="57.000000pt" viewBox="0 0 14.000000 57.000000"
 preserveAspectRatio="xMidYMid meet">
<metadata>
Created by potrace 1.14, written by Peter Selinger 2001-2017
</metadata>
<g transform="translate(0.000000,57.000000) scale(0.100000,-0.100000)"
fill="#000000" stroke="none">
<path fill="#000000" stroke="none" d="M27 563 c-16 -29 -15 -62 3 -83 22 -25
20 -40 -11 -101 -10 -20 -16 -39 -13 -41 2 -3 9 -56 14 -119 11 -123 29 -219
41 -219 4 0 21 24 37 53 28 49 31 61 37 200 7 132 6 147 -9 147 -12 0 -16 10
-16 38 0 48 -8 57 -32 35 -20 -18 -19 -21 -22 61 -1 28 -19 46 -29 29z"/>
</g>
</svg>
