<?xml version="1.0" standalone="no"?>
<!DOCTYPE svg PUBLIC "-//W3C//DTD SVG 20010904//EN"
 "http://www.w3.org/TR/2001/REC-SVG-20010904/DTD/svg10.dtd">
<svg version="1.0" xmlns="http://www.w3.org/2000/svg"
 width="95.000000pt" height="160.000000pt" viewBox="0 0 95.000000 160.000000"
 preserveAspectRatio="xMidYMid meet">
<metadata>
Created by potrace 1.14, written by Peter Selinger 2001-2017
</metadata>
<g transform="translate(0.000000,160.000000) scale(0.100000,-0.100000)"
fill="#000000" stroke="none">
<path fill="#000000" stroke="none" d="M0 1581 c0 -16 6 -21 25 -21 14 0 25
-1 25 -2 1 -2 5 -47 9 -100 7 -69 15 -105 28 -125 11 -15 62 -131 113 -256
102 -249 94 -238 198 -271 28 -10 52 -20 52 -22 0 -2 -24 -53 -54 -112 l-54
-107 17 -67 c10 -37 25 -76 34 -86 9 -10 17 -25 17 -33 0 -8 -25 -72 -54 -144
-53 -126 -54 -130 -35 -144 10 -7 19 -22 19 -32 0 -12 15 -26 40 -39 39 -20
41 -20 192 -2 l153 18 0 136 c0 109 3 140 15 152 8 8 48 23 89 35 40 11 75 22
77 23 1 2 8 89 15 194 11 170 10 203 -5 305 l-17 114 -85 85 -84 85 36 54 c20
30 49 82 65 116 19 42 42 73 73 99 48 39 51 43 38 62 -5 9 -26 9 -81 -1 -82
-14 -115 -6 -178 41 -29 22 -41 24 -146 24 l-114 0 -18 -107 c-10 -60 -26
-133 -35 -164 -17 -55 -16 -58 5 -115 21 -58 22 -59 82 -79 61 -20 61 -20 76
-73 l15 -53 -71 3 -70 3 -112 208 c-62 114 -126 250 -144 301 -32 92 -33 94
-69 100 -20 3 -47 9 -59 12 -19 5 -23 2 -23 -15z"/>
</g>
</svg>
