<?xml version="1.0" standalone="no"?>
<!DOCTYPE svg PUBLIC "-//W3C//DTD SVG 20010904//EN"
 "http://www.w3.org/TR/2001/REC-SVG-20010904/DTD/svg10.dtd">
<svg version="1.0" xmlns="http://www.w3.org/2000/svg"
 width="20.000000pt" height="53.000000pt" viewBox="0 0 20.000000 53.000000"
 preserveAspectRatio="xMidYMid meet">
<metadata>
Created by potrace 1.14, written by Peter Selinger 2001-2017
</metadata>
<g transform="translate(0.000000,53.000000) scale(0.100000,-0.100000)"
fill="#000000" stroke="none">
<path fill="#000000" stroke="none" d="M83 514 c-34 -17 -42 -37 -20 -51 8 -5
2 -9 -17 -13 -39 -7 -51 -46 -35 -116 6 -29 8 -68 4 -90 -13 -74 -17 -192 -6
-212 15 -28 47 -33 75 -11 26 20 30 40 45 202 9 91 12 100 40 126 33 31 40 61
16 81 -8 6 -26 32 -40 56 -14 24 -27 44 -28 44 -1 0 -17 -8 -34 -16z"/>
</g>
</svg>
