<?xml version="1.0" standalone="no"?>
<!DOCTYPE svg PUBLIC "-//W3C//DTD SVG 20010904//EN"
 "http://www.w3.org/TR/2001/REC-SVG-20010904/DTD/svg10.dtd">
<svg version="1.0" xmlns="http://www.w3.org/2000/svg"
 width="97.000000pt" height="165.000000pt" viewBox="0 0 97.000000 165.000000"
 preserveAspectRatio="xMidYMid meet">
<metadata>
Created by potrace 1.14, written by Peter Selinger 2001-2017
</metadata>
<g transform="translate(0.000000,165.000000) scale(0.100000,-0.100000)"
fill="#000000" stroke="none">
<path fill="#000000" stroke="none" d="M513 1640 c-12 -5 -27 -19 -34 -32 -19
-35 -15 -126 8 -190 l20 -58 -66 -36 c-106 -58 -118 -79 -156 -261 -6 -29 -4
-32 26 -38 l31 -7 -7 -52 c-3 -28 -14 -60 -24 -71 -10 -11 -24 -36 -31 -55
-26 -68 -95 -184 -130 -218 -19 -18 -51 -40 -70 -48 -68 -29 -111 -92 -54 -81
26 5 26 5 7 -40 -11 -28 28 -10 60 27 l34 41 7 -40 c6 -39 6 -40 38 -30 18 5
34 9 35 9 2 0 3 -10 3 -23 0 -26 52 -221 74 -277 l14 -36 -53 -28 c-68 -35
-93 -62 -76 -79 16 -16 299 -14 329 2 18 10 22 21 22 61 0 48 1 50 28 50 15 0
51 -7 81 -15 30 -8 58 -12 62 -9 20 12 20 111 -1 193 -12 47 -20 105 -18 133
l3 50 80 25 c78 25 143 61 176 99 10 12 21 53 28 104 11 84 10 89 -23 210 -19
69 -51 174 -72 235 -40 118 -55 136 -143 186 -28 15 -44 31 -42 40 2 8 10 37
18 64 17 60 11 143 -12 179 -16 24 -23 26 -84 25 -36 0 -76 -4 -88 -9z"/>
</g>
</svg>
