<?xml version="1.0" standalone="no"?>
<!DOCTYPE svg PUBLIC "-//W3C//DTD SVG 20010904//EN"
 "http://www.w3.org/TR/2001/REC-SVG-20010904/DTD/svg10.dtd">
<svg version="1.0" xmlns="http://www.w3.org/2000/svg"
 width="18.000000pt" height="31.000000pt" viewBox="0 0 18.000000 31.000000"
 preserveAspectRatio="xMidYMid meet">
<metadata>
Created by potrace 1.14, written by Peter Selinger 2001-2017
</metadata>
<g transform="translate(0.000000,31.000000) scale(0.100000,-0.100000)"
fill="#000000" stroke="none">
<path fill="#000000" stroke="none" d="M72 298 c-7 -7 -12 -22 -12 -34 0 -13
-8 -24 -20 -27 -17 -4 -18 -9 -9 -37 10 -27 9 -36 -11 -62 -20 -27 -21 -33 -9
-56 23 -42 69 -82 95 -82 20 0 24 5 24 30 0 17 -4 30 -8 30 -5 0 -16 6 -26 13
-17 12 -17 15 0 50 12 25 28 40 51 48 18 6 33 12 33 15 0 2 -9 21 -20 41 -11
21 -20 43 -20 49 0 6 -11 16 -25 22 -31 15 -28 15 -43 0z"/>
</g>
</svg>
