<?xml version="1.0" standalone="no"?>
<!DOCTYPE svg PUBLIC "-//W3C//DTD SVG 20010904//EN"
 "http://www.w3.org/TR/2001/REC-SVG-20010904/DTD/svg10.dtd">
<svg version="1.0" xmlns="http://www.w3.org/2000/svg"
 width="37.000000pt" height="103.000000pt" viewBox="0 0 37.000000 103.000000"
 preserveAspectRatio="xMidYMid meet">
<metadata>
Created by potrace 1.14, written by Peter Selinger 2001-2017
</metadata>
<g transform="translate(0.000000,103.000000) scale(0.100000,-0.100000)"
fill="#000000" stroke="none">
<path fill="#000000" stroke="none" d="M12 1017 c-7 -8 -8 -62 -5 -153 5 -124
8 -141 22 -137 9 2 28 -8 41 -22 l25 -27 -48 -43 -47 -43 1 -89 c1 -48 3 -81
6 -72 3 11 12 14 33 11 23 -3 29 0 32 19 4 29 128 101 128 74 0 -16 -46 -65
-61 -65 -5 0 -9 -9 -9 -19 0 -13 8 -21 23 -23 20 -3 22 -10 25 -62 2 -35 -5
-94 -17 -146 -12 -48 -21 -98 -21 -111 0 -13 -11 -37 -24 -54 -36 -45 -25 -55
43 -38 l58 15 -4 42 c-3 23 2 77 11 120 9 43 16 112 16 153 0 66 2 75 19 80
11 3 24 17 29 32 6 14 24 40 42 58 28 29 32 40 37 107 l6 75 -44 56 c-24 31
-57 73 -72 93 -16 21 -49 46 -78 59 -27 12 -49 26 -49 31 0 4 -16 27 -36 50
-36 43 -63 52 -82 29z"/>
<path fill="#000000" stroke="none" d="M46 366 c27 -31 32 -44 27 -65 -12 -46
-9 -75 9 -79 34 -7 60 88 42 155 -5 18 -14 22 -59 25 l-52 3 33 -39z"/>
</g>
</svg>
