<?xml version="1.0" standalone="no"?>
<!DOCTYPE svg PUBLIC "-//W3C//DTD SVG 20010904//EN"
 "http://www.w3.org/TR/2001/REC-SVG-20010904/DTD/svg10.dtd">
<svg version="1.0" xmlns="http://www.w3.org/2000/svg"
 width="19.000000pt" height="76.000000pt" viewBox="0 0 19.000000 76.000000"
 preserveAspectRatio="xMidYMid meet">
<metadata>
Created by potrace 1.14, written by Peter Selinger 2001-2017
</metadata>
<g transform="translate(0.000000,76.000000) scale(0.100000,-0.100000)"
fill="#000000" stroke="none">
<path fill="#000000" stroke="none" d="M61 746 c-7 -8 -15 -31 -18 -53 -3 -21
-14 -48 -25 -60 -19 -20 -19 -28 -9 -155 5 -73 18 -157 27 -187 15 -46 16 -60
5 -110 -33 -148 -33 -145 -10 -163 16 -13 26 -15 40 -8 10 6 34 10 54 8 46 -3
53 7 27 42 -24 32 -27 50 -13 66 24 24 42 139 43 272 1 138 -11 210 -39 233
-7 7 -13 31 -13 58 0 26 -5 52 -12 59 -16 16 -43 15 -57 -2z"/>
</g>
</svg>
