<?xml version="1.0" standalone="no"?>
<!DOCTYPE svg PUBLIC "-//W3C//DTD SVG 20010904//EN"
 "http://www.w3.org/TR/2001/REC-SVG-20010904/DTD/svg10.dtd">
<svg version="1.0" xmlns="http://www.w3.org/2000/svg"
 width="12.000000pt" height="21.000000pt" viewBox="0 0 12.000000 21.000000"
 preserveAspectRatio="xMidYMid meet">
<metadata>
Created by potrace 1.14, written by Peter Selinger 2001-2017
</metadata>
<g transform="translate(0.000000,21.000000) scale(0.100000,-0.100000)"
fill="#000000" stroke="none">
<path fill="#000000" stroke="none" d="M41 196 c-16 -9 -20 -16 -12 -20 8 -5
5 -16 -9 -36 -20 -28 -25 -74 -14 -117 5 -20 13 -23 51 -23 40 0 44 2 38 20
-5 15 -2 20 10 20 12 0 15 5 11 16 -6 15 -17 59 -31 127 -6 30 -10 32 -44 13z"/>
</g>
</svg>
