<?xml version="1.0" standalone="no"?>
<!DOCTYPE svg PUBLIC "-//W3C//DTD SVG 20010904//EN"
 "http://www.w3.org/TR/2001/REC-SVG-20010904/DTD/svg10.dtd">
<svg version="1.0" xmlns="http://www.w3.org/2000/svg"
 width="136.000000pt" height="267.000000pt" viewBox="0 0 136.000000 267.000000"
 preserveAspectRatio="xMidYMid meet">
<metadata>
Created by potrace 1.14, written by Peter Selinger 2001-2017
</metadata>
<g transform="translate(0.000000,267.000000) scale(0.100000,-0.100000)"
fill="#000000" stroke="none">
<path fill="#000000" stroke="none" d="M1293 2651 c-28 -10 -63 -26 -78 -35
-26 -17 -28 -17 -67 9 -45 30 -49 29 -128 -26 -42 -30 -74 -63 -111 -121 -48
-72 -60 -105 -139 -361 l-86 -282 43 -130 43 -129 -36 -51 c-19 -27 -52 -73
-72 -101 l-36 -52 -131 -27 c-71 -15 -135 -30 -141 -34 -15 -8 -354 -403 -354
-412 0 -3 86 -44 191 -90 l191 -84 269 -336 c258 -322 320 -389 365 -389 24 0
173 105 257 182 l58 53 14 1060 c17 1243 17 1375 8 1374 -5 0 -31 -8 -60 -18z"/>
</g>
</svg>
