<?xml version="1.0" standalone="no"?>
<!DOCTYPE svg PUBLIC "-//W3C//DTD SVG 20010904//EN"
 "http://www.w3.org/TR/2001/REC-SVG-20010904/DTD/svg10.dtd">
<svg version="1.0" xmlns="http://www.w3.org/2000/svg"
 width="497.000000pt" height="145.000000pt" viewBox="0 0 497.000000 145.000000"
 preserveAspectRatio="xMidYMid meet">
<metadata>
Created by potrace 1.14, written by Peter Selinger 2001-2017
</metadata>
<g transform="translate(0.000000,145.000000) scale(0.100000,-0.100000)"
fill="#000000" stroke="none">
<path fill="#000000" stroke="none" d="M440 1441 c-30 -4 -65 -12 -77 -19 -15
-8 -29 -9 -48 -2 -14 5 -49 10 -76 10 -112 0 -199 -88 -199 -202 0 -24 -7 -65
-16 -93 -11 -36 -17 -113 -21 -281 -5 -197 -3 -241 12 -310 22 -98 64 -185
121 -246 24 -26 44 -52 44 -58 0 -22 125 -142 175 -169 44 -23 61 -26 150 -26
92 0 104 2 154 30 29 16 71 49 92 74 22 24 42 42 45 38 3 -3 14 -20 23 -39 18
-32 55 -60 156 -114 65 -36 188 -44 285 -19 36 9 90 21 119 26 71 13 143 52
205 111 27 26 67 59 87 73 55 36 83 95 83 172 0 35 1 63 3 63 2 0 8 -12 14
-28 l11 -27 13 35 c18 47 18 171 0 245 -28 115 -13 293 37 458 30 97 35 102
86 86 49 -14 52 -29 21 -91 -20 -39 -20 -42 -4 -87 9 -25 20 -73 25 -106 4
-33 18 -87 29 -119 15 -42 21 -83 21 -144 0 -74 -5 -96 -36 -175 -36 -88 -36
-91 -25 -163 8 -56 17 -79 37 -99 39 -39 27 -50 -50 -48 -36 1 -66 -1 -66 -5
0 -5 15 -22 33 -39 134 -131 370 -76 421 97 10 34 12 96 8 247 -4 181 -3 203
12 209 14 5 16 24 16 128 0 81 -4 129 -13 147 -8 14 -17 48 -20 77 -9 74 -26
101 -27 41 0 -25 -6 -52 -13 -61 -11 -15 -17 -15 -72 2 l-60 19 0 75 c1 69 3
78 29 105 35 36 28 48 -42 83 -63 30 -160 30 -218 0 -84 -43 -152 -148 -132
-203 7 -17 5 -32 -7 -51 -26 -44 -40 -259 -26 -394 15 -155 16 -151 -18 -159
-60 -13 -67 1 -75 141 -5 88 -14 143 -27 176 -10 27 -19 58 -19 69 0 35 -95
223 -128 251 -31 27 -31 28 -17 62 8 20 15 43 15 53 0 10 7 32 16 48 l16 30
-50 46 c-40 37 -60 47 -98 53 -59 8 -858 5 -934 -3z"/>
<path fill="#000000" stroke="none" d="M2655 1371 c-45 -11 -87 -36 -117 -68
-27 -28 -27 -29 -18 -118 9 -84 11 -92 41 -116 34 -27 86 -31 143 -9 21 8 32
7 42 -1 20 -16 18 -23 -17 -72 -24 -34 -32 -58 -36 -108 -4 -40 -14 -76 -27
-96 -17 -27 -29 -32 -74 -38 -74 -9 -88 5 -97 98 -7 63 -9 69 -21 52 -8 -11
-14 -43 -14 -74 0 -67 -26 -297 -36 -312 -3 -6 -17 -9 -31 -6 -72 14 -53 -183
25 -267 31 -33 116 -76 150 -76 13 0 37 -7 54 -16 48 -25 145 -15 197 19 52
35 77 84 85 172 4 39 12 86 17 106 9 37 -2 126 -17 138 -5 3 -10 43 -11 89 -1
45 -3 115 -4 155 -3 83 29 207 63 244 18 19 20 31 15 78 -9 90 -72 177 -153
211 -41 17 -122 25 -159 15z"/>
<path fill="#000000" stroke="none" d="M2433 993 c9 -2 25 -2 35 0 9 3 1 5
-18 5 -19 0 -27 -2 -17 -5z"/>
<path fill="#000000" stroke="none" d="M4825 890 c-24 -26 -44 -142 -44 -256
-1 -76 2 -95 19 -116 22 -28 56 -39 88 -27 19 7 20 13 15 76 -6 75 13 169 47
235 32 63 2 108 -73 108 -21 0 -41 -7 -52 -20z"/>
</g>
</svg>
