<?xml version="1.0" standalone="no"?>
<!DOCTYPE svg PUBLIC "-//W3C//DTD SVG 20010904//EN"
 "http://www.w3.org/TR/2001/REC-SVG-20010904/DTD/svg10.dtd">
<svg version="1.0" xmlns="http://www.w3.org/2000/svg"
 width="147.000000pt" height="363.000000pt" viewBox="0 0 147.000000 363.000000"
 preserveAspectRatio="xMidYMid meet">
<metadata>
Created by potrace 1.14, written by Peter Selinger 2001-2017
</metadata>
<g transform="translate(0.000000,363.000000) scale(0.100000,-0.100000)"
fill="#000000" stroke="none">
<path fill="#000000" stroke="none" d="M635 3616 c-17 -12 -18 -27 -12 -262 5
-208 4 -251 -8 -264 -9 -10 -17 -51 -21 -115 l-7 -100 -56 -53 c-31 -29 -100
-78 -154 -108 -107 -61 -132 -88 -259 -284 -30 -47 -69 -98 -87 -114 l-31 -30
0 -110 0 -111 31 -17 c17 -10 40 -18 51 -18 11 0 37 -5 57 -11 30 -9 47 -8 84
5 26 9 64 19 85 22 l38 6 17 -113 c10 -62 23 -117 30 -121 6 -4 14 -9 17 -10
3 -2 17 -21 31 -43 l26 -40 -13 -105 c-8 -58 -19 -130 -25 -160 -6 -30 -14
-102 -19 -160 -5 -58 -12 -126 -16 -151 l-6 -46 53 -7 c75 -9 237 -52 254 -66
20 -17 21 -128 1 -144 -12 -9 -16 -76 -21 -371 -4 -198 -10 -395 -14 -437 l-7
-78 65 0 c109 0 170 11 176 30 3 9 28 27 56 40 28 13 55 32 60 41 17 33 -1 76
-52 119 -39 33 -49 48 -49 71 0 54 61 300 105 424 23 66 46 138 50 159 3 22
19 65 35 96 28 55 28 57 32 280 l3 225 -52 108 -51 109 19 41 c25 56 24 196
-4 341 -3 15 156 56 220 56 53 0 72 6 135 40 l73 40 -221 0 -221 0 -13 113
c-15 141 -52 291 -81 330 -18 25 -19 31 -7 38 8 5 30 38 47 74 20 41 42 71 57
77 24 11 24 14 18 87 -3 42 -7 82 -10 89 -2 7 5 50 15 95 25 104 50 273 58
381 l6 83 -49 7 c-260 37 -408 45 -439 22z"/>
</g>
</svg>
