<?xml version="1.0" standalone="no"?>
<!DOCTYPE svg PUBLIC "-//W3C//DTD SVG 20010904//EN"
 "http://www.w3.org/TR/2001/REC-SVG-20010904/DTD/svg10.dtd">
<svg version="1.0" xmlns="http://www.w3.org/2000/svg"
 width="64.000000pt" height="104.000000pt" viewBox="0 0 64.000000 104.000000"
 preserveAspectRatio="xMidYMid meet">
<metadata>
Created by potrace 1.14, written by Peter Selinger 2001-2017
</metadata>
<g transform="translate(0.000000,104.000000) scale(0.100000,-0.100000)"
fill="#000000" stroke="none">
<path fill="#000000" stroke="none" d="M125 999 c-29 -27 -49 -56 -57 -83 -7
-22 -20 -53 -31 -67 -26 -37 -35 -88 -23 -136 15 -58 106 -166 160 -189 22
-10 66 -39 96 -64 30 -26 75 -60 100 -77 67 -46 139 -124 150 -163 6 -19 15
-68 21 -108 17 -118 25 -128 34 -38 4 46 18 104 34 144 33 81 30 106 -27 291
-21 69 -47 152 -56 185 -10 32 -48 107 -84 166 -73 117 -97 136 -207 166 -66
18 -59 20 -110 -27z"/>
</g>
</svg>
