<?xml version="1.0" standalone="no"?>
<!DOCTYPE svg PUBLIC "-//W3C//DTD SVG 20010904//EN"
 "http://www.w3.org/TR/2001/REC-SVG-20010904/DTD/svg10.dtd">
<svg version="1.0" xmlns="http://www.w3.org/2000/svg"
 width="121.000000pt" height="440.000000pt" viewBox="0 0 121.000000 440.000000"
 preserveAspectRatio="xMidYMid meet">
<metadata>
Created by potrace 1.14, written by Peter Selinger 2001-2017
</metadata>
<g transform="translate(0.000000,440.000000) scale(0.100000,-0.100000)"
fill="#000000" stroke="none">
<path fill="#000000" stroke="none" d="M447 4261 c-4 -76 -9 -145 -12 -153 -3
-8 -62 -45 -131 -83 -113 -61 -294 -195 -294 -216 0 -5 30 -70 66 -146 36 -76
76 -165 89 -198 55 -136 119 -732 96 -885 -7 -41 -18 -158 -26 -259 -16 -216
-14 -224 87 -378 57 -88 60 -95 67 -175 5 -53 3 -130 -6 -213 -12 -112 -24
-163 -90 -370 -70 -224 -132 -471 -182 -730 -12 -60 -28 -126 -36 -145 -26
-64 -77 -272 -68 -280 4 -4 33 -12 63 -18 53 -10 58 -9 335 85 154 52 281 96
283 98 4 3 270 1425 283 1510 15 100 11 95 61 81 101 -30 90 -35 139 58 l43
84 -41 88 c-68 145 -91 243 -134 569 -31 232 -49 332 -79 440 -37 132 -40 152
-51 367 l-12 227 -53 66 c-38 48 -56 81 -64 118 l-12 52 66 144 66 143 0 104
0 103 -32 5 c-43 7 -381 46 -400 46 -12 0 -16 -26 -21 -139z"/>
</g>
</svg>
