<?xml version="1.0" standalone="no"?>
<!DOCTYPE svg PUBLIC "-//W3C//DTD SVG 20010904//EN"
 "http://www.w3.org/TR/2001/REC-SVG-20010904/DTD/svg10.dtd">
<svg version="1.0" xmlns="http://www.w3.org/2000/svg"
 width="19.000000pt" height="28.000000pt" viewBox="0 0 19.000000 28.000000"
 preserveAspectRatio="xMidYMid meet">
<metadata>
Created by potrace 1.14, written by Peter Selinger 2001-2017
</metadata>
<g transform="translate(0.000000,28.000000) scale(0.100000,-0.100000)"
fill="#000000" stroke="none">
<path fill="#000000" stroke="none" d="M84 270 c-27 -11 -68 -80 -56 -92 11
-11 -3 -74 -20 -95 -5 -6 -6 -27 -3 -46 l7 -35 61 5 c34 3 64 10 65 15 2 5 15
22 28 37 29 35 30 55 4 81 -16 16 -19 28 -14 59 11 66 -17 93 -72 71z"/>
</g>
</svg>
