<?xml version="1.0" standalone="no"?>
<!DOCTYPE svg PUBLIC "-//W3C//DTD SVG 20010904//EN"
 "http://www.w3.org/TR/2001/REC-SVG-20010904/DTD/svg10.dtd">
<svg version="1.0" xmlns="http://www.w3.org/2000/svg"
 width="89.000000pt" height="148.000000pt" viewBox="0 0 89.000000 148.000000"
 preserveAspectRatio="xMidYMid meet">
<metadata>
Created by potrace 1.14, written by Peter Selinger 2001-2017
</metadata>
<g transform="translate(0.000000,148.000000) scale(0.100000,-0.100000)"
fill="#000000" stroke="none">
<path fill="#000000" stroke="none" d="M522 1455 c-6 -14 -18 -25 -25 -25 -10
0 -18 -32 -30 -117 -17 -130 -62 -246 -112 -293 -15 -14 -46 -57 -71 -95 -25
-42 -63 -85 -90 -105 -28 -21 -56 -55 -72 -85 -30 -60 -103 -275 -97 -285 3
-4 21 -11 40 -14 33 -7 35 -9 35 -47 0 -26 -13 -66 -39 -117 -31 -62 -39 -92
-44 -152 -3 -41 -9 -86 -13 -100 -6 -21 -5 -23 7 -13 21 17 139 40 239 48 62
4 99 13 140 32 30 15 58 31 61 36 4 5 9 36 13 70 7 66 52 227 64 228 175 12
225 19 258 35 69 35 75 50 85 250 21 379 13 458 -66 673 l-37 101 -118 0
c-115 0 -117 0 -128 -25z"/>
</g>
</svg>
