<?xml version="1.0" standalone="no"?>
<!DOCTYPE svg PUBLIC "-//W3C//DTD SVG 20010904//EN"
 "http://www.w3.org/TR/2001/REC-SVG-20010904/DTD/svg10.dtd">
<svg version="1.0" xmlns="http://www.w3.org/2000/svg"
 width="197.000000pt" height="144.000000pt" viewBox="0 0 197.000000 144.000000"
 preserveAspectRatio="xMidYMid meet">
<metadata>
Created by potrace 1.14, written by Peter Selinger 2001-2017
</metadata>
<g transform="translate(0.000000,144.000000) scale(0.100000,-0.100000)"
fill="#000000" stroke="none">
<path fill="#000000" stroke="none" d="M1650 1399 c-95 -42 -86 -27 -130 -200
-12 -47 -25 -92 -30 -98 -17 -29 -120 -30 -285 -4 -161 25 -232 29 -337 17
-51 -5 -59 -9 -77 -39 l-20 -34 82 -32 82 -32 193 7 193 7 -81 -78 c-82 -78
-82 -78 -159 -91 -139 -23 -394 -27 -505 -8 -54 9 -101 15 -103 12 -3 -2 -16
-41 -29 -86 -25 -86 -109 -247 -201 -385 -42 -64 -66 -89 -121 -124 -37 -24
-79 -59 -95 -79 l-27 -36 82 -34 c63 -26 117 -39 228 -54 212 -30 192 -34 206
42 7 36 13 108 13 161 1 88 4 103 35 170 33 71 37 75 85 93 41 14 55 26 73 59
l23 42 100 12 c99 11 103 11 294 -28 174 -35 210 -39 340 -39 l146 1 107 103
107 104 7 73 c5 66 3 80 -20 133 -14 32 -26 60 -26 62 0 1 39 24 86 51 l85 48
-6 100 c-7 111 -22 185 -39 190 -6 2 -52 10 -101 18 l-90 13 -85 -37z"/>
</g>
</svg>
