<?xml version="1.0" standalone="no"?>
<!DOCTYPE svg PUBLIC "-//W3C//DTD SVG 20010904//EN"
 "http://www.w3.org/TR/2001/REC-SVG-20010904/DTD/svg10.dtd">
<svg version="1.0" xmlns="http://www.w3.org/2000/svg"
 width="38.000000pt" height="26.000000pt" viewBox="0 0 38.000000 26.000000"
 preserveAspectRatio="xMidYMid meet">
<metadata>
Created by potrace 1.14, written by Peter Selinger 2001-2017
</metadata>
<g transform="translate(0.000000,26.000000) scale(0.100000,-0.100000)"
fill="#000000" stroke="none">
<path fill="#000000" stroke="none" d="M110 242 c-27 -13 -37 -27 -47 -61 -7
-25 -24 -56 -38 -71 -29 -31 -31 -42 -9 -79 l16 -27 168 16 c93 9 172 19 175
22 4 4 -9 32 -29 62 -27 43 -43 58 -66 63 -20 3 -44 22 -67 49 -39 49 -52 52
-103 26z"/>
</g>
</svg>
