<?xml version="1.0" standalone="no"?>
<!DOCTYPE svg PUBLIC "-//W3C//DTD SVG 20010904//EN"
 "http://www.w3.org/TR/2001/REC-SVG-20010904/DTD/svg10.dtd">
<svg version="1.0" xmlns="http://www.w3.org/2000/svg"
 width="15.000000pt" height="19.000000pt" viewBox="0 0 15.000000 19.000000"
 preserveAspectRatio="xMidYMid meet">
<metadata>
Created by potrace 1.14, written by Peter Selinger 2001-2017
</metadata>
<g transform="translate(0.000000,19.000000) scale(0.100000,-0.100000)"
fill="#000000" stroke="none">
<path fill="#000000" stroke="none" d="M23 183 c-7 -2 -15 -20 -19 -39 -5 -29
-2 -40 19 -62 14 -15 27 -36 29 -46 1 -10 11 -24 20 -30 14 -8 23 -5 47 18 26
24 28 32 20 59 -5 18 -18 38 -29 46 -11 7 -20 19 -20 27 0 23 -39 39 -67 27z"/>
</g>
</svg>
