<?xml version="1.0" standalone="no"?>
<!DOCTYPE svg PUBLIC "-//W3C//DTD SVG 20010904//EN"
 "http://www.w3.org/TR/2001/REC-SVG-20010904/DTD/svg10.dtd">
<svg version="1.0" xmlns="http://www.w3.org/2000/svg"
 width="25.000000pt" height="75.000000pt" viewBox="0 0 25.000000 75.000000"
 preserveAspectRatio="xMidYMid meet">
<metadata>
Created by potrace 1.14, written by Peter Selinger 2001-2017
</metadata>
<g transform="translate(0.000000,75.000000) scale(0.100000,-0.100000)"
fill="#000000" stroke="none">
<path fill="#000000" stroke="none" d="M62 734 c-18 -12 -22 -25 -22 -70 0
-35 -6 -64 -18 -82 -15 -23 -17 -49 -14 -207 1 -119 7 -202 18 -245 l15 -65
89 -31 88 -30 6 29 c10 48 7 107 -10 201 l-15 89 25 63 c34 83 34 137 1 176
-22 26 -25 39 -25 109 l0 79 -58 0 c-36 0 -66 -6 -80 -16z"/>
</g>
</svg>
