<?xml version="1.0" standalone="no"?>
<!DOCTYPE svg PUBLIC "-//W3C//DTD SVG 20010904//EN"
 "http://www.w3.org/TR/2001/REC-SVG-20010904/DTD/svg10.dtd">
<svg version="1.0" xmlns="http://www.w3.org/2000/svg"
 width="236.000000pt" height="434.000000pt" viewBox="0 0 236.000000 434.000000"
 preserveAspectRatio="xMidYMid meet">
<metadata>
Created by potrace 1.14, written by Peter Selinger 2001-2017
</metadata>
<g transform="translate(0.000000,434.000000) scale(0.100000,-0.100000)"
fill="#000000" stroke="none">
<path fill="#000000" stroke="none" d="M1765 4326 c-64 -10 -80 -18 -168 -81
-84 -61 -99 -76 -113 -116 -10 -27 -51 -87 -99 -144 -110 -131 -120 -163 -111
-383 3 -86 8 -175 12 -197 l5 -40 -115 -57 c-107 -53 -122 -58 -184 -58 -65 0
-208 -37 -240 -63 -34 -27 -155 -202 -197 -287 -63 -126 -150 -253 -220 -320
-105 -102 -272 -349 -281 -417 -3 -21 -17 -73 -31 -115 -22 -70 -23 -83 -13
-130 24 -106 44 -150 83 -182 37 -29 42 -31 170 -37 73 -4 166 -12 207 -19 72
-11 78 -10 145 15 39 15 103 30 143 34 39 3 72 6 73 6 7 -3 23 -344 17 -380
-4 -27 -12 -165 -17 -307 -7 -173 -17 -296 -31 -378 -19 -111 -20 -133 -9
-246 11 -113 10 -136 -11 -269 -12 -80 -20 -148 -18 -151 5 -4 284 93 498 174
58 21 150 62 205 89 55 28 152 69 215 92 63 24 179 75 256 116 78 40 166 79
197 85 l56 13 5 46 c3 25 8 96 11 156 5 97 35 404 51 524 l6 43 -45 -31 c-86
-62 -144 -134 -231 -286 -86 -150 -86 -150 -149 -182 -57 -29 -70 -32 -157
-33 l-95 0 -81 50 -80 49 -26 110 -26 110 33 130 c25 99 39 138 61 164 16 18
73 86 127 150 89 107 102 118 149 132 28 8 57 15 64 15 6 0 56 34 110 76 l99
75 25 77 c27 80 90 183 187 303 51 64 53 69 53 127 l0 60 -118 96 c-137 111
-154 137 -176 282 -13 84 -13 97 4 175 11 46 22 121 26 166 l7 82 71 30 c39
16 105 43 146 59 l75 30 1 93 c1 60 9 120 21 165 l20 71 -27 139 c-17 88 -41
170 -64 224 -31 74 -47 96 -119 166 l-82 81 -97 21 c-107 24 -105 24 -203 8z"/>
</g>
</svg>
