<?xml version="1.0" standalone="no"?>
<!DOCTYPE svg PUBLIC "-//W3C//DTD SVG 20010904//EN"
 "http://www.w3.org/TR/2001/REC-SVG-20010904/DTD/svg10.dtd">
<svg version="1.0" xmlns="http://www.w3.org/2000/svg"
 width="310.000000pt" height="574.000000pt" viewBox="0 0 310.000000 574.000000"
 preserveAspectRatio="xMidYMid meet">
<metadata>
Created by potrace 1.14, written by Peter Selinger 2001-2017
</metadata>
<g transform="translate(0.000000,574.000000) scale(0.100000,-0.100000)"
fill="#000000" stroke="none">
<path fill="#000000" stroke="none" d="M412 5725 l-134 -13 -51 -48 c-29 -27
-91 -86 -138 -132 l-85 -83 22 -175 c16 -133 26 -180 40 -197 10 -12 39 -44
64 -72 59 -64 196 -314 226 -412 l23 -75 -94 -187 -93 -188 -22 -178 c-12
-101 -45 -284 -76 -424 -30 -135 -54 -253 -54 -262 0 -12 32 -24 125 -49 114
-31 128 -38 164 -75 33 -34 42 -54 60 -130 12 -49 30 -171 41 -269 19 -170 22
-184 56 -243 l36 -64 -44 -55 c-73 -94 -80 -104 -70 -104 5 0 27 12 48 27 21
15 74 51 118 79 l79 53 36 -24 c20 -12 35 -30 35 -39 -2 -20 -7 -20 104 8 l94
24 -24 -26 c-12 -15 -60 -66 -105 -113 -44 -48 -121 -140 -170 -206 -72 -97
-95 -136 -123 -212 l-34 -94 52 -156 c28 -86 66 -214 85 -286 33 -124 35 -140
42 -360 9 -340 22 -549 45 -750 11 -98 22 -180 23 -181 2 -2 113 -8 247 -13
135 -6 281 -13 326 -16 l81 -6 56 69 c46 57 78 83 189 152 l134 84 -28 76
c-25 67 -29 95 -38 255 -7 142 -16 212 -43 333 -21 95 -30 152 -23 152 14 0
220 -40 221 -43 46 -80 301 -496 309 -503 8 -9 43 -8 138 5 l127 16 121 114
121 114 177 -85 c97 -47 178 -84 180 -83 7 6 91 860 85 866 -368 332 -476 424
-655 551 -183 129 -207 150 -316 272 l-118 132 -33 140 c-18 76 -48 200 -66
274 l-32 135 97 380 c75 294 109 409 151 508 29 70 58 127 63 127 6 0 137 -25
290 -56 l279 -56 79 79 79 79 -77 214 c-42 118 -84 252 -94 296 l-17 81 86
115 c71 95 100 125 164 169 44 30 81 58 84 62 3 5 -47 -19 -111 -53 -64 -34
-116 -59 -116 -57 0 3 37 76 82 163 45 86 75 153 67 149 -8 -5 -93 -58 -189
-119 -152 -96 -188 -114 -280 -141 l-104 -31 -169 48 c-93 27 -171 48 -172 46
-2 -2 54 -52 125 -112 144 -121 119 -80 214 -347 l34 -96 -216 82 c-120 46
-271 104 -337 130 -106 41 -140 50 -287 69 l-167 22 -216 -21 c-191 -18 -216
-19 -220 -5 -21 72 -27 175 -22 376 l5 221 -32 74 c-30 70 -36 76 -122 139
-50 36 -122 91 -159 123 -47 39 -77 57 -95 56 -14 -1 -85 -7 -158 -14z"/>
</g>
</svg>
