<?xml version="1.0" standalone="no"?>
<!DOCTYPE svg PUBLIC "-//W3C//DTD SVG 20010904//EN"
 "http://www.w3.org/TR/2001/REC-SVG-20010904/DTD/svg10.dtd">
<svg version="1.0" xmlns="http://www.w3.org/2000/svg"
 width="164.000000pt" height="510.000000pt" viewBox="0 0 164.000000 510.000000"
 preserveAspectRatio="xMidYMid meet">
<metadata>
Created by potrace 1.14, written by Peter Selinger 2001-2017
</metadata>
<g transform="translate(0.000000,510.000000) scale(0.100000,-0.100000)"
fill="#000000" stroke="none">
<path fill="#000000" stroke="none" d="M500 5064 c-67 -28 -97 -48 -141 -92
l-56 -57 -37 -147 c-39 -158 -43 -215 -22 -320 11 -58 20 -76 70 -135 32 -37
79 -90 106 -118 33 -35 53 -67 65 -107 l18 -56 -33 -54 c-19 -29 -35 -54 -36
-56 -1 -2 -48 -10 -104 -19 l-102 -16 -112 -92 -111 -91 1 -45 c17 -651 48
-986 116 -1233 l41 -149 20 53 19 53 71 -6 c61 -4 76 -2 104 17 18 11 33 29
33 39 0 12 12 23 30 30 18 7 30 19 30 29 0 54 122 9 251 -95 136 -108 128 -98
184 -245 47 -124 53 -147 59 -243 6 -104 6 -108 -19 -137 -14 -17 -66 -56
-115 -87 -81 -51 -97 -57 -164 -64 l-74 -7 -105 61 c-96 55 -110 67 -175 151
-53 68 -75 108 -93 163 l-24 74 -6 -39 c-16 -96 -31 -438 -24 -562 7 -131 8
-139 80 -356 68 -207 74 -234 103 -441 18 -128 36 -312 42 -440 7 -121 13
-222 16 -224 4 -4 558 25 677 36 l67 6 -5 31 c-3 21 4 50 23 93 l28 62 -22
150 -22 150 48 188 c79 309 73 296 141 354 52 46 59 56 59 88 0 26 32 100 121
274 l121 238 -19 82 -18 81 -35 -89 c-29 -74 -40 -90 -62 -96 -26 -7 -26 -5
-82 150 -31 86 -56 163 -56 170 0 7 32 71 71 142 66 121 71 132 65 173 -5 32
4 102 33 252 51 266 58 316 75 504 l15 155 -40 255 c-22 140 -42 264 -44 276
-3 15 -24 27 -83 48 -75 26 -82 31 -176 132 -76 81 -121 143 -203 275 l-105
171 37 38 36 37 15 139 c7 77 14 142 14 147 0 4 -27 7 -60 7 l-60 0 0 44 c0
24 -3 64 -6 90 -7 45 -9 48 -113 125 -82 60 -123 83 -178 99 -39 12 -73 22
-75 21 -1 0 -41 -16 -88 -35z"/>
<path fill="#ffffff" stroke="none" d="M1368 2825 l18 -190 -67 -205 -67 -205
-1 203 c-1 186 2 223 34 429 19 124 35 228 36 232 0 3 7 -12 15 -34 8 -22 22
-126 32 -230z"/>
</g>
</svg>
