<?xml version="1.0" standalone="no"?>
<!DOCTYPE svg PUBLIC "-//W3C//DTD SVG 20010904//EN"
 "http://www.w3.org/TR/2001/REC-SVG-20010904/DTD/svg10.dtd">
<svg version="1.0" xmlns="http://www.w3.org/2000/svg"
 width="48.000000pt" height="164.000000pt" viewBox="0 0 48.000000 164.000000"
 preserveAspectRatio="xMidYMid meet">
<metadata>
Created by potrace 1.14, written by Peter Selinger 2001-2017
</metadata>
<g transform="translate(0.000000,164.000000) scale(0.100000,-0.100000)"
fill="#000000" stroke="none">
<path fill="#000000" stroke="none" d="M168 1622 c-44 -27 -53 -109 -17 -148
10 -11 19 -28 19 -37 0 -16 -87 -107 -102 -107 -4 0 -18 -19 -32 -42 -20 -35
-26 -63 -31 -150 -7 -100 -6 -109 15 -137 14 -21 19 -38 14 -53 -3 -12 -12
-64 -19 -115 -10 -79 -9 -95 3 -105 10 -9 13 -32 11 -91 -3 -64 0 -80 13 -88
14 -8 15 -23 11 -106 -3 -64 0 -124 9 -173 8 -42 11 -90 7 -110 -3 -19 -9 -63
-13 -97 l-6 -63 66 0 66 0 -6 38 c-15 90 -18 324 -6 385 28 133 34 130 53 -26
9 -78 17 -190 17 -249 l0 -106 28 -6 c15 -3 62 -8 105 -12 116 -10 119 0 30
90 l-74 74 4 173 c4 167 17 265 50 376 13 45 13 65 -3 199 -11 91 -15 153 -9
158 5 6 9 55 9 111 l0 101 -50 37 c-54 40 -55 43 -40 132 7 41 7 76 -1 113
l-10 52 -42 -1 c-23 0 -54 -8 -69 -17z"/>
</g>
</svg>
