<?xml version="1.0" standalone="no"?>
<!DOCTYPE svg PUBLIC "-//W3C//DTD SVG 20010904//EN"
 "http://www.w3.org/TR/2001/REC-SVG-20010904/DTD/svg10.dtd">
<svg version="1.0" xmlns="http://www.w3.org/2000/svg"
 width="13.000000pt" height="64.000000pt" viewBox="0 0 13.000000 64.000000"
 preserveAspectRatio="xMidYMid meet">
<metadata>
Created by potrace 1.14, written by Peter Selinger 2001-2017
</metadata>
<g transform="translate(0.000000,64.000000) scale(0.100000,-0.100000)"
fill="#000000" stroke="none">
<path fill="#000000" stroke="none" d="M25 620 c-15 -16 -17 -54 -21 -309 l-5
-291 26 -10 c15 -6 43 -10 64 -10 l38 0 -8 48 c-4 26 -14 76 -21 112 -10 46
-11 73 -4 93 7 18 6 36 0 55 -7 19 -7 33 2 47 8 14 10 49 4 122 -6 88 -11 106
-33 132 -24 29 -25 29 -42 11z"/>
</g>
</svg>
