<?xml version="1.0" standalone="no"?>
<!DOCTYPE svg PUBLIC "-//W3C//DTD SVG 20010904//EN"
 "http://www.w3.org/TR/2001/REC-SVG-20010904/DTD/svg10.dtd">
<svg version="1.0" xmlns="http://www.w3.org/2000/svg"
 width="53.000000pt" height="130.000000pt" viewBox="0 0 53.000000 130.000000"
 preserveAspectRatio="xMidYMid meet">
<metadata>
Created by potrace 1.14, written by Peter Selinger 2001-2017
</metadata>
<g transform="translate(0.000000,130.000000) scale(0.100000,-0.100000)"
fill="#000000" stroke="none">
<path fill="#000000" stroke="none" d="M227 1290 c-53 -9 -70 -19 -135 -77
-41 -36 -45 -44 -68 -141 -13 -57 -24 -121 -24 -142 0 -22 20 -96 45 -167 l45
-127 0 -319 0 -319 113 7 c61 4 115 9 120 12 13 8 8 126 -13 279 -10 82 -24
209 -31 282 l-11 133 23 17 c13 9 60 42 104 73 l80 56 26 98 27 98 -36 79
c-30 68 -43 84 -95 123 -64 48 -77 50 -170 35z"/>
</g>
</svg>
