<?xml version="1.0" standalone="no"?>
<!DOCTYPE svg PUBLIC "-//W3C//DTD SVG 20010904//EN"
 "http://www.w3.org/TR/2001/REC-SVG-20010904/DTD/svg10.dtd">
<svg version="1.0" xmlns="http://www.w3.org/2000/svg"
 width="41.000000pt" height="122.000000pt" viewBox="0 0 41.000000 122.000000"
 preserveAspectRatio="xMidYMid meet">
<metadata>
Created by potrace 1.14, written by Peter Selinger 2001-2017
</metadata>
<g transform="translate(0.000000,122.000000) scale(0.100000,-0.100000)"
fill="#000000" stroke="none">
<path fill="#000000" stroke="none" d="M215 1211 c-34 -4 -50 -11 -52 -21 -1
-8 -5 -41 -8 -72 l-6 -57 -60 -22 c-32 -12 -59 -24 -59 -28 0 -3 -7 -46 -16
-96 -14 -82 -14 -101 1 -229 17 -144 33 -212 34 -147 1 31 3 33 28 26 16 -4
29 -8 30 -9 1 -1 -2 -31 -8 -67 -6 -35 -11 -71 -11 -79 -1 -36 35 -386 41
-391 3 -4 30 -9 59 -13 64 -8 63 -13 23 163 l-30 128 19 64 c10 35 24 84 30
109 l12 44 34 -88 34 -88 -13 -135 c-7 -74 -10 -136 -7 -137 3 -2 31 -7 63
-11 l58 -7 -6 99 c-4 54 -11 143 -16 198 -31 315 -31 339 -4 444 l24 97 -33
110 c-19 60 -41 135 -50 167 -18 63 -11 60 -111 48z"/>
</g>
</svg>
