<?xml version="1.0" standalone="no"?>
<!DOCTYPE svg PUBLIC "-//W3C//DTD SVG 20010904//EN"
 "http://www.w3.org/TR/2001/REC-SVG-20010904/DTD/svg10.dtd">
<svg version="1.0" xmlns="http://www.w3.org/2000/svg"
 width="21.000000pt" height="45.000000pt" viewBox="0 0 21.000000 45.000000"
 preserveAspectRatio="xMidYMid meet">
<metadata>
Created by potrace 1.14, written by Peter Selinger 2001-2017
</metadata>
<g transform="translate(0.000000,45.000000) scale(0.100000,-0.100000)"
fill="#000000" stroke="none">
<path fill="#000000" stroke="none" d="M103 442 c-27 -4 -37 -32 -23 -64 9
-19 5 -46 -20 -136 l-31 -112 20 -29 c11 -15 39 -45 62 -66 32 -28 44 -34 49
-24 7 13 37 185 47 270 5 36 -2 49 -72 151 -5 8 -20 12 -32 10z"/>
<path fill="#000000" stroke="none" d="M5 66 c-5 -23 -3 -41 5 -51 19 -23 37
-18 43 13 4 20 -1 33 -18 51 l-24 24 -6 -37z"/>
</g>
</svg>
