<?xml version="1.0" standalone="no"?>
<!DOCTYPE svg PUBLIC "-//W3C//DTD SVG 20010904//EN"
 "http://www.w3.org/TR/2001/REC-SVG-20010904/DTD/svg10.dtd">
<svg version="1.0" xmlns="http://www.w3.org/2000/svg"
 width="463.000000pt" height="470.000000pt" viewBox="0 0 463.000000 470.000000"
 preserveAspectRatio="xMidYMid meet">
<metadata>
Created by potrace 1.14, written by Peter Selinger 2001-2017
</metadata>
<g transform="translate(0.000000,470.000000) scale(0.100000,-0.100000)"
fill="#000000" stroke="none">
<path fill="#000000" stroke="none" d="M751 4517 l-141 -178 0 -232 0 -232 75
-405 c41 -223 77 -414 80 -426 2 -12 109 -158 236 -325 128 -167 243 -318 256
-335 l23 -31 -512 -301 -513 -301 -68 -91 c-37 -50 -72 -101 -77 -113 -17 -43
-50 -254 -64 -413 -8 -98 -20 -172 -29 -190 l-15 -29 82 -49 c52 -31 96 -66
123 -99 l41 -51 -23 -61 -23 -61 24 -47 c17 -32 35 -51 57 -60 30 -13 37 -26
121 -249 l90 -235 375 4 c571 5 3318 23 3554 23 124 0 206 4 203 9 -4 5 -20
108 -36 228 -17 120 -45 282 -62 360 l-31 142 -66 45 c-62 41 -74 45 -182 61
l-115 17 -159 645 c-88 355 -164 651 -170 658 -5 7 -203 70 -439 141 l-428
129 -94 105 c-93 105 -93 105 -114 195 -17 70 -23 136 -27 295 l-5 205 40 225
c29 159 46 293 58 459 l17 234 -123 247 -124 248 -360 6 c-199 3 -575 7 -838
9 l-476 2 -141 -178z"/>
<path fill="#ffffff" stroke="none" d="M2944 1423 c107 -20 141 -40 166 -99
20 -46 24 -48 120 -59 46 -5 62 -12 97 -45 23 -22 43 -50 45 -62 3 -21 10 -24
78 -29 41 -3 100 -16 131 -28 54 -22 56 -24 77 -84 11 -34 26 -92 32 -128 l12
-67 -67 -153 -67 -154 -131 -87 c-73 -47 -202 -121 -287 -163 l-155 -77 -185
21 c-102 12 -256 23 -343 25 l-158 2 -58 75 c-31 41 -76 109 -99 151 -35 65
-42 86 -42 134 0 54 3 60 54 123 33 40 85 129 134 226 77 153 84 164 169 245
247 238 226 221 289 235 80 17 84 17 188 -2z"/>
</g>
</svg>
