<?xml version="1.0" standalone="no"?>
<!DOCTYPE svg PUBLIC "-//W3C//DTD SVG 20010904//EN"
 "http://www.w3.org/TR/2001/REC-SVG-20010904/DTD/svg10.dtd">
<svg version="1.0" xmlns="http://www.w3.org/2000/svg"
 width="556.000000pt" height="412.000000pt" viewBox="0 0 556.000000 412.000000"
 preserveAspectRatio="xMidYMid meet">
<metadata>
Created by potrace 1.14, written by Peter Selinger 2001-2017
</metadata>
<g transform="translate(0.000000,412.000000) scale(0.100000,-0.100000)"
fill="#000000" stroke="none">
<path fill="#000000" stroke="none" d="M2660 4103 l-135 -14 -183 -107 -184
-107 -106 -160 -105 -160 -49 -240 c-27 -132 -64 -324 -83 -427 l-36 -187 90
-313 c49 -172 93 -325 96 -340 l7 -28 -223 -1 -224 -1 -177 -197 -177 -198
-218 -137 c-382 -239 -674 -509 -796 -734 -41 -76 -43 -83 -98 -412 -32 -184
-55 -337 -53 -339 2 -2 275 30 607 72 l604 75 359 137 c346 131 367 138 572
179 l214 44 46 45 c26 24 183 173 350 330 l303 285 98 -102 c54 -55 112 -117
130 -138 l31 -36 -57 -55 c-32 -29 -142 -131 -245 -225 -186 -170 -187 -171
-155 -176 17 -3 235 -22 482 -42 l450 -36 277 -63 278 -64 388 49 c214 27 453
61 533 75 141 26 145 28 182 66 l38 39 -7 75 c-7 80 -9 77 49 89 27 6 27 6 27
96 l0 89 -252 200 c-139 110 -301 244 -361 297 l-107 96 -603 222 c-331 122
-642 233 -692 245 -49 13 -94 27 -98 31 -5 4 31 67 79 141 l88 133 21 235 21
235 -47 410 c-27 226 -48 418 -49 427 0 8 -59 87 -131 174 l-131 160 -236 152
c-130 84 -243 152 -252 152 -8 -1 -76 -8 -150 -16z"/>
</g>
</svg>
