<?xml version="1.0" standalone="no"?>
<!DOCTYPE svg PUBLIC "-//W3C//DTD SVG 20010904//EN"
 "http://www.w3.org/TR/2001/REC-SVG-20010904/DTD/svg10.dtd">
<svg version="1.0" xmlns="http://www.w3.org/2000/svg"
 width="328.000000pt" height="480.000000pt" viewBox="0 0 328.000000 480.000000"
 preserveAspectRatio="xMidYMid meet">
<metadata>
Created by potrace 1.14, written by Peter Selinger 2001-2017
</metadata>
<g transform="translate(0.000000,480.000000) scale(0.100000,-0.100000)"
fill="#000000" stroke="none">
<path fill="#000000" stroke="none" d="M1964 4761 c-34 -20 -105 -71 -158
-114 l-97 -78 -41 35 c-47 41 -68 43 -193 25 l-75 -11 -52 -67 c-34 -43 -62
-92 -79 -141 -25 -70 -26 -82 -18 -170 9 -113 31 -190 93 -329 25 -57 43 -107
40 -112 -3 -5 -13 -9 -23 -9 -15 0 -47 -28 -78 -70 -8 -11 -9 -60 -3 -174 7
-138 6 -172 -11 -258 -10 -54 -19 -131 -19 -171 0 -44 -5 -79 -12 -88 -7 -9
-132 -62 -278 -120 l-265 -104 -121 0 c-116 0 -122 -1 -162 -29 -32 -22 -45
-40 -56 -75 -13 -44 -12 -49 14 -101 27 -53 31 -56 91 -76 l64 -20 22 27 c28
33 166 93 288 124 50 12 155 31 235 40 126 16 156 23 228 56 57 26 82 34 82
24 0 -7 -11 -22 -24 -32 -61 -48 -65 -120 -10 -174 23 -22 34 -42 34 -61 0
-24 -4 -28 -29 -28 -32 0 -36 -7 -46 -73 -6 -41 -3 -52 33 -112 37 -62 39 -68
29 -111 -8 -34 -16 -46 -34 -50 -16 -4 -32 -23 -49 -55 -16 -32 -31 -49 -43
-49 -13 0 -32 -30 -73 -117 -57 -122 -312 -524 -366 -578 -30 -30 -30 -31 -34
-163 -4 -118 -7 -135 -26 -155 -32 -33 -68 -148 -109 -342 -19 -93 -46 -191
-59 -217 -20 -40 -21 -48 -9 -58 22 -19 18 -33 -18 -68 -29 -28 -36 -31 -46
-18 -24 29 -151 -27 -204 -90 -21 -25 -40 -35 -83 -44 -86 -18 -166 -48 -191
-72 l-23 -21 38 -23 c28 -17 75 -28 185 -42 142 -19 155 -20 396 -4 l248 15
-5 66 c-2 36 -10 77 -17 90 -11 21 -9 35 10 90 12 36 28 91 35 121 7 30 53
135 102 234 95 190 117 266 118 401 1 90 35 147 135 228 81 64 273 193 279
186 2 -2 15 -52 29 -110 14 -58 41 -141 60 -185 29 -68 40 -83 79 -107 l45
-28 159 8 c143 7 163 6 202 -10 48 -21 125 -29 484 -52 226 -15 249 -15 271 0
24 16 25 15 52 -32 15 -26 42 -64 60 -83 23 -25 44 -71 75 -160 32 -93 51
-134 75 -159 l33 -34 36 22 c30 19 39 33 56 94 12 40 24 83 29 97 4 14 4 90 1
170 -3 80 -2 163 3 185 4 22 5 66 2 98 -7 57 -8 58 -54 81 -65 33 -175 42
-269 22 -129 -28 -189 -22 -450 43 -338 85 -351 87 -447 62 -43 -11 -82 -18
-86 -15 -20 12 -19 81 2 225 22 151 23 156 77 254 31 55 70 123 87 150 18 28
40 71 49 96 16 43 16 49 2 77 -21 40 -48 272 -34 289 6 7 27 12 47 11 70 -2
115 42 126 125 11 75 13 79 83 137 43 36 87 88 134 157 l69 105 -18 51 c-12
34 -52 93 -120 176 l-102 125 2 102 c2 120 2 120 -90 153 -53 20 -64 28 -85
67 -20 39 -30 46 -83 64 -52 17 -64 26 -90 68 -32 52 -133 162 -147 162 -6 0
-34 15 -64 32 -38 23 -54 39 -54 54 0 38 76 86 124 77 l29 -6 -23 -17 -22 -17
25 -48 25 -49 35 69 c61 121 106 125 156 12 27 -61 107 -197 116 -197 1 0 17
6 34 13 l31 13 -55 54 c-53 52 -55 57 -55 106 0 48 2 52 30 64 17 7 38 26 46
41 13 26 12 32 -7 72 -19 38 -34 51 -112 93 l-91 49 75 3 c65 3 164 -9 205
-25 11 -4 14 6 14 41 0 45 0 45 -42 56 -24 6 -58 15 -75 20 -21 5 -67 3 -132
-8 l-100 -16 -20 25 -20 24 88 13 87 14 29 46 28 47 -17 64 c-19 75 -27 86
-77 112 -49 25 -53 24 -125 -20z"/>
</g>
</svg>
