<?xml version="1.0" standalone="no"?>
<!DOCTYPE svg PUBLIC "-//W3C//DTD SVG 20010904//EN"
 "http://www.w3.org/TR/2001/REC-SVG-20010904/DTD/svg10.dtd">
<svg version="1.0" xmlns="http://www.w3.org/2000/svg"
 width="78.000000pt" height="200.000000pt" viewBox="0 0 78.000000 200.000000"
 preserveAspectRatio="xMidYMid meet">
<metadata>
Created by potrace 1.14, written by Peter Selinger 2001-2017
</metadata>
<g transform="translate(0.000000,200.000000) scale(0.100000,-0.100000)"
fill="#000000" stroke="none">
<path fill="#000000" stroke="none" d="M131 1936 c36 -57 40 -70 37 -117 -3
-51 -5 -55 -52 -90 -27 -21 -53 -43 -57 -51 -4 -7 -20 -107 -35 -221 -20 -149
-25 -210 -17 -215 6 -4 16 -26 22 -49 l12 -42 50 19 c36 15 73 20 137 20 86 0
88 -1 167 -49 79 -48 80 -49 82 -92 2 -24 8 -87 13 -139 11 -91 10 -99 -17
-188 -27 -90 -29 -94 -75 -122 -27 -17 -48 -33 -48 -37 0 -5 30 -19 67 -32 38
-13 106 -46 153 -72 l86 -49 26 -83 c15 -45 37 -138 50 -207 l23 -125 7 55 c4
30 8 136 9 235 1 166 -1 188 -26 285 -14 58 -32 112 -39 120 -15 17 -36 166
-36 256 0 32 -7 81 -15 108 -8 27 -15 68 -15 92 0 24 -11 73 -24 111 -18 48
-27 100 -31 178 -8 133 -43 269 -85 334 -16 26 -30 56 -30 67 0 10 -18 52 -40
92 l-41 72 -149 0 -149 0 40 -64z"/>
</g>
</svg>
