<?xml version="1.0" standalone="no"?>
<!DOCTYPE svg PUBLIC "-//W3C//DTD SVG 20010904//EN"
 "http://www.w3.org/TR/2001/REC-SVG-20010904/DTD/svg10.dtd">
<svg version="1.0" xmlns="http://www.w3.org/2000/svg"
 width="39.000000pt" height="43.000000pt" viewBox="0 0 39.000000 43.000000"
 preserveAspectRatio="xMidYMid meet">
<metadata>
Created by potrace 1.14, written by Peter Selinger 2001-2017
</metadata>
<g transform="translate(0.000000,43.000000) scale(0.100000,-0.100000)"
fill="#000000" stroke="none">
<path fill="#000000" stroke="none" d="M125 412 c-27 -22 -34 -42 -25 -67 5
-15 1 -24 -16 -35 -41 -28 -70 -83 -77 -145 -9 -90 -3 -108 51 -132 57 -25
102 -36 102 -25 0 5 29 14 65 21 35 7 69 18 74 25 19 23 90 197 85 210 -3 7
-24 23 -46 36 -23 13 -68 47 -100 77 -62 56 -81 62 -113 35z"/>
</g>
</svg>
