<?xml version="1.0" standalone="no"?>
<!DOCTYPE svg PUBLIC "-//W3C//DTD SVG 20010904//EN"
 "http://www.w3.org/TR/2001/REC-SVG-20010904/DTD/svg10.dtd">
<svg version="1.0" xmlns="http://www.w3.org/2000/svg"
 width="60.000000pt" height="64.000000pt" viewBox="0 0 60.000000 64.000000"
 preserveAspectRatio="xMidYMid meet">
<metadata>
Created by potrace 1.14, written by Peter Selinger 2001-2017
</metadata>
<g transform="translate(0.000000,64.000000) scale(0.100000,-0.100000)"
fill="#000000" stroke="none">
<path fill="#000000" stroke="none" d="M273 633 c-20 -7 -15 -69 7 -114 21
-39 21 -41 2 -106 l-18 -66 -130 -47 c-71 -25 -129 -51 -129 -57 0 -5 27 -53
60 -107 65 -105 62 -103 185 -127 l55 -11 126 66 c144 75 144 76 157 201 14
147 -11 216 -122 333 -40 42 -40 42 -111 41 -38 0 -76 -3 -82 -6z"/>
</g>
</svg>
