<?xml version="1.0" standalone="no"?>
<!DOCTYPE svg PUBLIC "-//W3C//DTD SVG 20010904//EN"
 "http://www.w3.org/TR/2001/REC-SVG-20010904/DTD/svg10.dtd">
<svg version="1.0" xmlns="http://www.w3.org/2000/svg"
 width="60.000000pt" height="84.000000pt" viewBox="0 0 60.000000 84.000000"
 preserveAspectRatio="xMidYMid meet">
<metadata>
Created by potrace 1.14, written by Peter Selinger 2001-2017
</metadata>
<g transform="translate(0.000000,84.000000) scale(0.100000,-0.100000)"
fill="#000000" stroke="none">
<path fill="#000000" stroke="none" d="M382 825 c-30 -7 -55 -15 -56 -17 -56
-72 -71 -107 -74 -171 -4 -60 -2 -71 19 -93 12 -13 21 -26 18 -28 -2 -2 -35
-19 -74 -39 l-70 -35 -48 -130 c-29 -78 -58 -139 -73 -153 -31 -29 -30 -64 2
-94 31 -29 33 -29 58 -10 16 12 19 25 17 66 -3 51 23 154 44 177 28 31 85 -26
85 -83 0 -30 -1 -30 75 -6 80 25 111 15 120 -40 4 -21 11 -39 17 -39 7 0 9
-16 5 -42 -4 -28 -1 -52 8 -68 13 -23 14 -16 13 70 -1 74 3 103 17 130 24 46
33 51 79 44 35 -6 38 -5 31 12 -5 11 -10 71 -11 134 -3 96 -6 117 -21 128 -17
12 -17 15 3 69 20 57 20 57 0 111 -14 40 -31 62 -64 88 -50 38 -46 37 -120 19z"/>
</g>
</svg>
