<?xml version="1.0" standalone="no"?>
<!DOCTYPE svg PUBLIC "-//W3C//DTD SVG 20010904//EN"
 "http://www.w3.org/TR/2001/REC-SVG-20010904/DTD/svg10.dtd">
<svg version="1.0" xmlns="http://www.w3.org/2000/svg"
 width="21.000000pt" height="42.000000pt" viewBox="0 0 21.000000 42.000000"
 preserveAspectRatio="xMidYMid meet">
<metadata>
Created by potrace 1.14, written by Peter Selinger 2001-2017
</metadata>
<g transform="translate(0.000000,42.000000) scale(0.100000,-0.100000)"
fill="#000000" stroke="none">
<path fill="#000000" stroke="none" d="M82 395 c-11 -14 -26 -25 -34 -25 -8 0
-22 -8 -30 -17 -24 -27 -22 -242 2 -298 22 -52 54 -68 90 -45 13 8 13 11 -2
22 -15 12 -15 18 -4 63 9 32 10 56 4 68 -10 19 -2 41 13 32 5 -4 9 1 9 10 0
12 6 15 20 10 11 -3 29 -3 40 0 18 6 20 12 14 43 -9 56 -15 73 -23 68 -19 -12
-35 15 -32 53 2 38 1 41 -23 41 -14 0 -33 -10 -44 -25z"/>
</g>
</svg>
