<?xml version="1.0" standalone="no"?>
<!DOCTYPE svg PUBLIC "-//W3C//DTD SVG 20010904//EN"
 "http://www.w3.org/TR/2001/REC-SVG-20010904/DTD/svg10.dtd">
<svg version="1.0" xmlns="http://www.w3.org/2000/svg"
 width="41.000000pt" height="94.000000pt" viewBox="0 0 41.000000 94.000000"
 preserveAspectRatio="xMidYMid meet">
<metadata>
Created by potrace 1.14, written by Peter Selinger 2001-2017
</metadata>
<g transform="translate(0.000000,94.000000) scale(0.100000,-0.100000)"
fill="#000000" stroke="none">
<path fill="#000000" stroke="none" d="M20 925 c-9 -10 -13 -37 -11 -73 2 -54
5 -60 52 -108 l50 -50 6 -90 c6 -100 30 -169 85 -250 54 -79 101 -200 95 -241
-5 -29 -1 -40 30 -74 39 -43 51 -41 73 10 10 24 8 42 -10 108 -12 43 -30 87
-40 98 -10 11 -23 45 -30 75 -10 49 -9 62 9 114 40 113 26 159 -79 279 -51 58
-83 106 -101 149 l-26 63 -45 3 c-32 2 -49 -2 -58 -13z"/>
</g>
</svg>
