<?xml version="1.0" standalone="no"?>
<!DOCTYPE svg PUBLIC "-//W3C//DTD SVG 20010904//EN"
 "http://www.w3.org/TR/2001/REC-SVG-20010904/DTD/svg10.dtd">
<svg version="1.0" xmlns="http://www.w3.org/2000/svg"
 width="46.000000pt" height="81.000000pt" viewBox="0 0 46.000000 81.000000"
 preserveAspectRatio="xMidYMid meet">
<metadata>
Created by potrace 1.14, written by Peter Selinger 2001-2017
</metadata>
<g transform="translate(0.000000,81.000000) scale(0.100000,-0.100000)"
fill="#000000" stroke="none">
<path fill="#000000" stroke="none" d="M319 797 c-9 -7 -26 -31 -37 -53 -12
-23 -39 -57 -61 -76 -21 -18 -47 -49 -56 -69 -14 -29 -32 -43 -88 -70 -39 -19
-73 -40 -75 -46 -7 -26 52 -12 144 31 l94 45 0 -164 0 -164 60 -53 c76 -66 80
-96 20 -123 -44 -20 -43 -26 9 -44 27 -9 43 -8 82 6 47 17 49 19 49 55 0 24
-8 46 -25 66 -23 28 -25 38 -31 198 -4 93 -3 166 1 162 4 -4 15 -45 25 -90 14
-66 19 -78 24 -58 8 27 -34 298 -60 387 -8 30 -23 57 -34 63 -23 12 -21 12
-41 -3z"/>
</g>
</svg>
