<?xml version="1.0" standalone="no"?>
<!DOCTYPE svg PUBLIC "-//W3C//DTD SVG 20010904//EN"
 "http://www.w3.org/TR/2001/REC-SVG-20010904/DTD/svg10.dtd">
<svg version="1.0" xmlns="http://www.w3.org/2000/svg"
 width="69.000000pt" height="395.000000pt" viewBox="0 0 69.000000 395.000000"
 preserveAspectRatio="xMidYMid meet">
<metadata>
Created by potrace 1.14, written by Peter Selinger 2001-2017
</metadata>
<g transform="translate(0.000000,395.000000) scale(0.100000,-0.100000)"
fill="#000000" stroke="none">
<path fill="#000000" stroke="none" d="M0 3723 l0 -228 90 -52 c48 -29 92 -53
97 -53 5 0 21 25 36 55 24 50 27 66 27 168 0 94 -4 125 -26 192 -15 44 -31 85
-38 91 -9 9 -159 54 -180 54 -3 0 -6 -102 -6 -227z"/>
<path fill="#000000" stroke="none" d="M0 826 l0 -796 98 0 c53 0 155 -7 227
-15 72 -8 135 -15 142 -15 7 0 32 25 55 56 l43 57 -45 36 c-24 20 -55 46 -69
59 l-26 23 60 -6 c33 -3 81 -8 107 -11 46 -6 47 -5 73 34 25 38 26 42 11 70
-14 28 -22 31 -127 51 -62 12 -114 22 -115 24 -1 1 -23 46 -47 99 l-45 97 10
183 11 183 58 164 59 163 -22 85 c-13 55 -26 87 -37 90 -12 4 -351 137 -408
160 -10 4 -13 -158 -13 -791z"/>
</g>
</svg>
