<?xml version="1.0" standalone="no"?>
<!DOCTYPE svg PUBLIC "-//W3C//DTD SVG 20010904//EN"
 "http://www.w3.org/TR/2001/REC-SVG-20010904/DTD/svg10.dtd">
<svg version="1.0" xmlns="http://www.w3.org/2000/svg"
 width="107.000000pt" height="170.000000pt" viewBox="0 0 107.000000 170.000000"
 preserveAspectRatio="xMidYMid meet">
<metadata>
Created by potrace 1.14, written by Peter Selinger 2001-2017
</metadata>
<g transform="translate(0.000000,170.000000) scale(0.100000,-0.100000)"
fill="#000000" stroke="none">
<path fill="#000000" stroke="none" d="M550 1681 c-62 -33 -79 -60 -92 -145
-11 -71 -15 -81 -46 -105 -18 -14 -42 -42 -52 -62 -21 -41 -19 -57 22 -149 14
-30 30 -96 37 -146 l12 -91 -54 -89 c-119 -195 -171 -289 -212 -382 -23 -53
-51 -115 -62 -137 -11 -22 -24 -62 -28 -90 -4 -27 -23 -89 -42 -137 -34 -86
-35 -87 -17 -118 12 -19 26 -30 41 -30 26 0 47 29 157 223 37 64 70 117 72
117 2 0 -3 -17 -11 -38 l-16 -37 25 30 c14 17 48 88 77 158 29 71 69 152 90
180 22 28 39 58 39 65 0 11 13 12 58 7 31 -4 60 -10 63 -14 4 -3 52 -89 107
-190 l101 -184 -23 -46 -23 -46 32 -90 c27 -75 37 -92 61 -102 53 -22 79 -17
92 20 11 30 4 67 -63 358 -41 178 -89 358 -105 399 -42 108 -48 165 -21 226
25 55 57 94 79 94 9 0 34 11 56 24 23 13 57 29 77 35 25 8 46 25 64 53 26 39
27 42 9 55 -10 7 -22 13 -27 13 -6 0 -26 12 -45 26 -20 16 -52 29 -78 32 -40
4 -44 3 -44 -17 0 -11 -6 -21 -14 -21 -9 0 -12 8 -8 25 4 21 1 25 -21 25 -13
0 -38 3 -54 6 -28 5 -30 10 -55 113 -29 124 -68 201 -101 201 -12 -1 -38 -9
-57 -19z"/>
</g>
</svg>
