<?xml version="1.0" standalone="no"?>
<!DOCTYPE svg PUBLIC "-//W3C//DTD SVG 20010904//EN"
 "http://www.w3.org/TR/2001/REC-SVG-20010904/DTD/svg10.dtd">
<svg version="1.0" xmlns="http://www.w3.org/2000/svg"
 width="196.000000pt" height="264.000000pt" viewBox="0 0 196.000000 264.000000"
 preserveAspectRatio="xMidYMid meet">
<metadata>
Created by potrace 1.14, written by Peter Selinger 2001-2017
</metadata>
<g transform="translate(0.000000,264.000000) scale(0.100000,-0.100000)"
fill="#000000" stroke="none">
<path fill="#000000" stroke="none" d="M7 2423 c-4 -120 -7 -292 -7 -381 l0
-164 43 7 c23 4 104 39 180 76 76 38 163 76 194 84 97 25 210 19 373 -20 154
-37 250 -53 250 -40 0 4 -17 28 -39 54 -57 68 -96 134 -220 367 l-111 212
-188 6 c-103 3 -250 8 -328 11 l-141 6 -6 -218z"/>
<path fill="#000000" stroke="none" d="M1212 1863 c-13 -3 -22 -8 -20 -13 2
-4 48 -48 104 -98 l100 -90 56 -143 c31 -79 70 -204 87 -277 l32 -134 -103
-196 c-90 -175 -104 -207 -118 -287 l-16 -90 28 -110 c39 -153 37 -213 -8
-315 -34 -78 -35 -82 -17 -95 22 -17 79 -10 143 17 61 27 381 68 434 56 21 -5
40 -7 42 -5 2 2 -15 18 -39 35 -23 17 -68 55 -99 85 -49 46 -58 59 -58 89 0
19 -5 60 -10 89 -6 30 -15 101 -20 159 -5 65 -26 174 -54 287 -33 129 -46 202
-46 251 0 38 -7 102 -16 141 -15 65 -15 73 -1 89 14 16 14 25 -3 97 -10 44
-22 93 -25 108 -3 16 -27 51 -53 79 -46 49 -47 51 -51 126 -4 87 -19 118 -68
138 -30 13 -148 17 -201 7z"/>
</g>
</svg>
