<?xml version="1.0" standalone="no"?>
<!DOCTYPE svg PUBLIC "-//W3C//DTD SVG 20010904//EN"
 "http://www.w3.org/TR/2001/REC-SVG-20010904/DTD/svg10.dtd">
<svg version="1.0" xmlns="http://www.w3.org/2000/svg"
 width="45.000000pt" height="50.000000pt" viewBox="0 0 45.000000 50.000000"
 preserveAspectRatio="xMidYMid meet">
<metadata>
Created by potrace 1.14, written by Peter Selinger 2001-2017
</metadata>
<g transform="translate(0.000000,50.000000) scale(0.100000,-0.100000)"
fill="#000000" stroke="none">
<path fill="#000000" stroke="none" d="M122 490 c-18 -4 -34 -9 -36 -11 -97
-110 -94 -99 -55 -205 19 -51 26 -58 73 -79 47 -21 54 -21 90 -9 22 8 40 13
41 12 1 -2 28 -46 61 -98 52 -83 62 -95 84 -92 21 2 29 13 46 62 20 56 20 59
3 92 -10 18 -32 67 -48 108 -25 63 -42 89 -105 153 -79 80 -87 83 -154 67z"/>
</g>
</svg>
