<?xml version="1.0" standalone="no"?>
<!DOCTYPE svg PUBLIC "-//W3C//DTD SVG 20010904//EN"
 "http://www.w3.org/TR/2001/REC-SVG-20010904/DTD/svg10.dtd">
<svg version="1.0" xmlns="http://www.w3.org/2000/svg"
 width="296.000000pt" height="387.000000pt" viewBox="0 0 296.000000 387.000000"
 preserveAspectRatio="xMidYMid meet">
<metadata>
Created by potrace 1.14, written by Peter Selinger 2001-2017
</metadata>
<g transform="translate(0.000000,387.000000) scale(0.100000,-0.100000)"
fill="#000000" stroke="none">
<path fill="#000000" stroke="none" d="M1800 3856 c-52 -7 -133 -24 -180 -39
l-85 -27 -60 -117 c-40 -79 -65 -143 -75 -193 -14 -66 -19 -77 -47 -95 -27
-17 -32 -26 -33 -59 0 -55 65 -187 137 -275 l61 -74 -28 -24 c-18 -14 -76 -38
-148 -58 -143 -42 -271 -111 -496 -271 l-153 -109 -148 -187 -148 -186 -97
-269 c-53 -147 -113 -308 -133 -358 -30 -76 -44 -140 -86 -400 -32 -192 -56
-384 -65 -504 l-15 -194 48 -154 c27 -85 50 -155 52 -157 14 -11 128 -85 147
-95 21 -11 57 -8 175 15 l29 6 -20 21 c-29 32 -68 130 -98 251 -26 103 -28
108 -74 146 l-47 40 9 52 c11 57 103 282 198 482 59 124 62 134 76 258 22 187
48 244 173 373 53 56 146 169 206 253 61 83 116 152 123 152 7 0 90 -25 185
-56 146 -47 195 -68 322 -141 83 -47 229 -137 325 -200 l175 -113 120 -149
c139 -173 122 -180 150 59 18 143 18 146 64 217 25 40 48 73 51 73 3 0 44
-115 93 -255 86 -250 87 -256 86 -347 0 -51 4 -138 10 -193 6 -55 11 -177 11
-270 l0 -171 -89 -107 c-88 -106 -91 -110 -132 -237 -24 -71 -41 -132 -38
-135 4 -4 401 -35 450 -35 4 0 21 40 39 89 l32 89 -9 134 -9 133 62 325 62
325 -119 649 c-66 357 -123 654 -127 660 -3 6 -52 63 -108 126 l-103 115 -199
103 -199 102 43 176 c24 97 52 186 61 199 10 12 36 44 57 69 l39 47 -55 117
c-31 64 -73 165 -94 224 l-39 108 -100 40 c-55 22 -104 40 -110 39 -5 -1 -53
-7 -105 -13z"/>
</g>
</svg>
