<?xml version="1.0" standalone="no"?>
<!DOCTYPE svg PUBLIC "-//W3C//DTD SVG 20010904//EN"
 "http://www.w3.org/TR/2001/REC-SVG-20010904/DTD/svg10.dtd">
<svg version="1.0" xmlns="http://www.w3.org/2000/svg"
 width="29.000000pt" height="36.000000pt" viewBox="0 0 29.000000 36.000000"
 preserveAspectRatio="xMidYMid meet">
<metadata>
Created by potrace 1.14, written by Peter Selinger 2001-2017
</metadata>
<g transform="translate(0.000000,36.000000) scale(0.100000,-0.100000)"
fill="#000000" stroke="none">
<path fill="#000000" stroke="none" d="M187 353 c-4 -3 -7 -14 -7 -23 0 -31
-77 -107 -117 -117 l-38 -9 3 -63 c3 -50 1 -65 -14 -75 -21 -16 -10 -36 21
-36 12 0 25 -7 29 -15 4 -11 13 -14 33 -9 41 10 47 19 58 87 9 55 13 62 34 65
15 2 28 -3 33 -12 16 -28 25 -17 47 59 l23 76 -34 38 c-31 37 -56 49 -71 34z"/>
</g>
</svg>
