<?xml version="1.0" standalone="no"?>
<!DOCTYPE svg PUBLIC "-//W3C//DTD SVG 20010904//EN"
 "http://www.w3.org/TR/2001/REC-SVG-20010904/DTD/svg10.dtd">
<svg version="1.0" xmlns="http://www.w3.org/2000/svg"
 width="638.000000pt" height="416.000000pt" viewBox="0 0 638.000000 416.000000"
 preserveAspectRatio="xMidYMid meet">
<metadata>
Created by potrace 1.14, written by Peter Selinger 2001-2017
</metadata>
<g transform="translate(0.000000,416.000000) scale(0.100000,-0.100000)"
fill="#000000" stroke="none">
<path fill="#000000" stroke="none" d="M6025 4135 c-29 -13 -65 -41 -86 -67
-33 -40 -37 -52 -48 -142 -16 -134 -57 -302 -86 -352 -31 -53 -39 -142 -23
-259 l13 -90 50 -17 50 -17 62 62 63 61 100 4 c101 4 104 4 213 -42 l38 -16
-7 135 c-4 77 -2 238 6 377 11 222 11 248 -4 300 -16 54 -19 57 -63 72 -73 25
-215 20 -278 -9z"/>
<path fill="#000000" stroke="none" d="M182 2634 l-114 -166 17 -151 c10 -84
27 -195 39 -248 l23 -97 -44 -123 c-65 -182 -103 -395 -97 -541 3 -62 7 -127
10 -144 l4 -31 105 -5 c58 -3 107 -7 110 -10 3 -3 -13 -35 -36 -72 -40 -64
-44 -78 -119 -433 l-78 -366 58 -124 c57 -119 60 -123 90 -123 30 0 33 4 91
126 58 123 59 127 59 212 l0 87 70 76 c66 73 73 85 170 310 55 128 100 240
100 249 0 8 4 20 8 26 8 13 575 94 654 94 26 0 49 4 53 9 16 27 35 342 35 597
l0 281 -164 18 -164 18 -111 111 -110 111 -70 158 c-79 174 -133 265 -165 272
-34 8 -283 45 -298 45 -7 -1 -64 -75 -126 -166z"/>
</g>
</svg>
