<?xml version="1.0" standalone="no"?>
<!DOCTYPE svg PUBLIC "-//W3C//DTD SVG 20010904//EN"
 "http://www.w3.org/TR/2001/REC-SVG-20010904/DTD/svg10.dtd">
<svg version="1.0" xmlns="http://www.w3.org/2000/svg"
 width="9.000000pt" height="13.000000pt" viewBox="0 0 9.000000 13.000000"
 preserveAspectRatio="xMidYMid meet">
<metadata>
Created by potrace 1.14, written by Peter Selinger 2001-2017
</metadata>
<g transform="translate(0.000000,13.000000) scale(0.100000,-0.100000)"
fill="#000000" stroke="none">
<path fill="#000000" stroke="none" d="M7 123 c-9 -16 -6 -78 4 -90 6 -7 8
-17 4 -23 -3 -5 -1 -10 4 -10 6 0 11 5 11 11 0 7 10 9 27 4 24 -6 25 -5 12 11
-12 16 -12 17 4 11 11 -4 17 -2 17 8 0 8 -7 15 -16 15 -8 0 -13 4 -9 9 3 5 -4
12 -15 16 -11 3 -20 13 -20 20 0 16 -17 29 -23 18z"/>
</g>
</svg>
