<?xml version="1.0" standalone="no"?>
<!DOCTYPE svg PUBLIC "-//W3C//DTD SVG 20010904//EN"
 "http://www.w3.org/TR/2001/REC-SVG-20010904/DTD/svg10.dtd">
<svg version="1.0" xmlns="http://www.w3.org/2000/svg"
 width="394.000000pt" height="233.000000pt" viewBox="0 0 394.000000 233.000000"
 preserveAspectRatio="xMidYMid meet">
<metadata>
Created by potrace 1.14, written by Peter Selinger 2001-2017
</metadata>
<g transform="translate(0.000000,233.000000) scale(0.100000,-0.100000)"
fill="#000000" stroke="none">
<path fill="#000000" stroke="none" d="M623 2262 c-87 -83 -96 -112 -63 -191
20 -46 26 -51 54 -51 17 0 63 9 101 19 39 10 81 18 95 17 38 -2 55 42 55 147
0 112 -13 127 -109 127 l-61 -1 -72 -67z"/>
<path fill="#000000" stroke="none" d="M1123 2239 c-14 -14 -7 -143 9 -175 7
-15 27 -25 64 -34 50 -12 55 -16 64 -49 5 -20 23 -81 38 -136 l29 -100 41 -3
c23 -2 50 2 61 8 24 12 61 88 61 122 0 13 7 33 15 45 9 12 19 41 24 65 5 24
15 68 21 99 10 46 10 62 -1 85 -28 57 -167 83 -245 45 -38 -19 -39 -19 -46 -1
-4 10 -16 23 -27 29 -26 14 -94 14 -108 0z"/>
<path fill="#000000" stroke="none" d="M1735 2205 c-35 -33 -37 -37 -31 -82 4
-26 7 -68 7 -93 0 -66 35 -130 85 -158 28 -15 56 -43 84 -87 24 -37 49 -65 59
-65 20 1 121 94 121 112 0 8 -13 32 -30 55 l-30 40 21 62 c16 48 31 69 66 98
40 33 44 40 39 67 -3 17 -16 39 -27 49 -26 21 -87 22 -117 1 -16 -11 -27 -13
-35 -6 -21 18 -101 42 -139 42 -28 0 -45 -8 -73 -35z"/>
<path fill="#000000" stroke="none" d="M73 2203 c-44 -6 -75 -46 -68 -87 4
-17 7 -150 8 -295 1 -208 4 -264 15 -268 10 -4 9 -9 -4 -24 -18 -20 -19 -51
-14 -669 1 -266 6 -377 14 -382 8 -6 8 -8 0 -8 -17 0 -17 -300 -1 -300 9 0 9
-2 1 -8 -15 -9 -15 -95 0 -104 8 -5 7 -8 -2 -8 -9 0 -8 -7 4 -25 12 -19 25
-25 53 -25 37 0 81 23 81 42 0 5 10 24 22 41 21 29 24 47 28 173 4 121 8 145
24 163 13 14 21 44 26 88 4 38 12 81 18 96 7 16 12 62 12 104 0 73 1 75 18 60
22 -20 81 -22 107 -3 18 13 18 16 1 101 -11 56 -33 120 -62 178 -64 130 -81
194 -89 339 -4 75 -13 137 -21 153 -8 15 -14 34 -14 41 0 8 -4 14 -9 14 -13 0
-31 104 -31 177 0 90 17 152 52 190 38 40 54 110 34 156 -7 18 -30 47 -50 65
-38 33 -59 36 -153 25z"/>
<path fill="#000000" stroke="none" d="M2334 2090 c-8 -8 -7 -26 3 -68 13 -57
10 -162 -7 -223 -8 -25 -4 -32 31 -60 21 -17 39 -38 39 -47 0 -15 37 -165 56
-229 5 -19 2 -23 -16 -23 -23 0 -23 0 -5 -20 14 -16 29 -20 59 -18 35 3 41 6
40 26 -1 27 3 27 60 2 l46 -19 24 22 c14 12 29 38 35 57 8 31 9 32 10 9 1 -15
10 -38 22 -53 l20 -26 153 0 c118 0 156 3 172 15 11 8 14 15 7 15 -8 0 -13 13
-13 33 0 24 13 47 55 97 30 35 55 71 55 80 0 8 9 21 20 28 11 7 20 17 20 23 0
15 89 98 118 110 13 5 20 13 17 19 -3 5 3 10 15 10 11 0 38 9 60 20 l39 20
-15 35 c-8 19 -17 63 -21 98 -3 34 -11 65 -17 69 -6 4 -38 8 -72 8 -47 0 -65
-4 -78 -19 -13 -14 -27 -18 -54 -15 -20 2 -100 9 -176 15 l-139 12 -23 -27
c-22 -25 -25 -26 -46 -12 -15 10 -75 19 -173 26 -269 21 -309 22 -321 10z"/>
<path fill="#000000" stroke="none" d="M3696 2003 c-3 -16 -8 -55 -11 -89 -6
-60 -6 -61 27 -86 26 -20 39 -43 61 -112 28 -84 29 -86 60 -86 70 0 105 64 72
134 -17 35 -17 36 6 55 21 17 24 28 24 91 0 63 -3 74 -24 91 -25 20 -95 26
-106 9 -4 -7 -14 -5 -28 5 -12 8 -34 15 -48 15 -22 0 -28 -6 -33 -27z"/>
</g>
</svg>
