<?xml version="1.0" standalone="no"?>
<!DOCTYPE svg PUBLIC "-//W3C//DTD SVG 20010904//EN"
 "http://www.w3.org/TR/2001/REC-SVG-20010904/DTD/svg10.dtd">
<svg version="1.0" xmlns="http://www.w3.org/2000/svg"
 width="85.000000pt" height="242.000000pt" viewBox="0 0 85.000000 242.000000"
 preserveAspectRatio="xMidYMid meet">
<metadata>
Created by potrace 1.14, written by Peter Selinger 2001-2017
</metadata>
<g transform="translate(0.000000,242.000000) scale(0.100000,-0.100000)"
fill="#000000" stroke="none">
<path fill="#000000" stroke="none" d="M533 2410 c-46 -11 -98 -53 -128 -103
-29 -48 -69 -89 -175 -174 -41 -33 -110 -93 -152 -133 l-78 -72 0 -516 0 -517
144 -102 c105 -76 152 -116 177 -153 24 -35 41 -50 57 -50 l23 0 -20 -27 c-20
-28 -20 -28 -1 -128 22 -108 18 -186 -14 -310 -9 -32 -16 -71 -16 -86 0 -34
23 -39 181 -39 118 0 120 0 131 25 16 36 84 36 122 0 33 -30 66 -33 66 -6 0
15 -16 25 -72 43 l-73 25 -2 80 c-1 64 -7 92 -26 130 -14 26 -32 73 -42 104
-16 52 -17 62 -1 150 8 52 18 139 22 194 l6 100 -144 140 c-79 77 -171 165
-204 195 l-62 55 18 71 c10 39 42 122 71 185 121 265 152 337 171 399 27 86
42 96 106 73 7 -3 12 3 12 15 0 12 8 25 17 31 14 8 15 12 4 25 -12 14 -10 16
12 16 14 0 27 7 31 15 3 8 12 12 19 9 9 -3 16 3 20 15 4 17 11 19 40 14 49 -8
54 11 14 57 -31 36 -33 44 -30 92 5 53 4 53 -49 104 -44 43 -61 53 -98 57 -25
3 -60 2 -77 -3z"/>
<path fill="#000000" stroke="none" d="M4 685 c0 -82 2 -115 3 -72 2 43 2 110
0 150 -1 40 -3 5 -3 -78z"/>
</g>
</svg>
