<?xml version="1.0" standalone="no"?>
<!DOCTYPE svg PUBLIC "-//W3C//DTD SVG 20010904//EN"
 "http://www.w3.org/TR/2001/REC-SVG-20010904/DTD/svg10.dtd">
<svg version="1.0" xmlns="http://www.w3.org/2000/svg"
 width="25.000000pt" height="71.000000pt" viewBox="0 0 25.000000 71.000000"
 preserveAspectRatio="xMidYMid meet">
<metadata>
Created by potrace 1.14, written by Peter Selinger 2001-2017
</metadata>
<g transform="translate(0.000000,71.000000) scale(0.100000,-0.100000)"
fill="#000000" stroke="none">
<path fill="#000000" stroke="none" d="M96 697 c-14 -10 -17 -23 -14 -51 4
-35 2 -39 -24 -48 -22 -8 -31 -20 -42 -58 -13 -43 -13 -61 0 -137 7 -48 14
-122 14 -163 0 -41 3 -112 6 -156 l7 -82 28 10 c29 10 29 11 29 91 0 82 18
197 31 197 4 0 21 -19 38 -42 l31 -42 0 121 c0 118 1 122 25 141 20 16 24 25
19 51 -4 18 -19 40 -35 52 -16 11 -29 29 -29 39 0 10 -7 21 -15 24 -9 3 -21
19 -26 36 -12 34 -17 36 -43 17z"/>
</g>
</svg>
