<?xml version="1.0" standalone="no"?>
<!DOCTYPE svg PUBLIC "-//W3C//DTD SVG 20010904//EN"
 "http://www.w3.org/TR/2001/REC-SVG-20010904/DTD/svg10.dtd">
<svg version="1.0" xmlns="http://www.w3.org/2000/svg"
 width="15.000000pt" height="21.000000pt" viewBox="0 0 15.000000 21.000000"
 preserveAspectRatio="xMidYMid meet">
<metadata>
Created by potrace 1.14, written by Peter Selinger 2001-2017
</metadata>
<g transform="translate(0.000000,21.000000) scale(0.100000,-0.100000)"
fill="#000000" stroke="none">
<path fill="#000000" stroke="none" d="M26 201 c-4 -5 -3 -16 0 -25 3 -8 -1
-25 -10 -38 -20 -28 -20 -38 -1 -38 14 0 21 -33 17 -82 -2 -24 46 -24 64 0 10
12 13 13 14 3 0 -8 8 -3 20 12 19 24 20 28 4 66 -8 22 -26 47 -39 55 -13 9
-26 25 -30 36 -7 21 -29 27 -39 11z"/>
</g>
</svg>
