<?xml version="1.0" standalone="no"?>
<!DOCTYPE svg PUBLIC "-//W3C//DTD SVG 20010904//EN"
 "http://www.w3.org/TR/2001/REC-SVG-20010904/DTD/svg10.dtd">
<svg version="1.0" xmlns="http://www.w3.org/2000/svg"
 width="33.000000pt" height="88.000000pt" viewBox="0 0 33.000000 88.000000"
 preserveAspectRatio="xMidYMid meet">
<metadata>
Created by potrace 1.14, written by Peter Selinger 2001-2017
</metadata>
<g transform="translate(0.000000,88.000000) scale(0.100000,-0.100000)"
fill="#000000" stroke="none">
<path fill="#000000" stroke="none" d="M126 865 c-16 -12 -18 -22 -12 -73 l7
-59 -61 -47 c-64 -50 -65 -53 -39 -123 9 -25 25 -30 32 -10 10 28 17 -6 27
-138 7 -92 22 -188 44 -280 l34 -140 2 115 c2 160 13 176 29 44 7 -60 17 -116
22 -125 13 -25 66 -30 72 -7 3 10 3 125 0 256 l-6 238 25 20 c23 18 25 25 21
69 -5 45 -10 53 -50 84 l-44 34 3 68 c1 37 0 70 -2 72 -15 14 -87 16 -104 2z"/>
</g>
</svg>
