<?xml version="1.0" standalone="no"?>
<!DOCTYPE svg PUBLIC "-//W3C//DTD SVG 20010904//EN"
 "http://www.w3.org/TR/2001/REC-SVG-20010904/DTD/svg10.dtd">
<svg version="1.0" xmlns="http://www.w3.org/2000/svg"
 width="88.000000pt" height="292.000000pt" viewBox="0 0 88.000000 292.000000"
 preserveAspectRatio="xMidYMid meet">
<metadata>
Created by potrace 1.14, written by Peter Selinger 2001-2017
</metadata>
<g transform="translate(0.000000,292.000000) scale(0.100000,-0.100000)"
fill="#000000" stroke="none">
<path fill="#000000" stroke="none" d="M380 2883 c-36 -20 -72 -42 -81 -50
-23 -20 -42 -172 -30 -243 l9 -55 -54 -70 c-30 -38 -79 -101 -108 -140 l-53
-70 -31 -224 c-30 -212 -31 -225 -14 -237 9 -6 46 -35 80 -63 50 -39 76 -53
121 -62 l58 -11 6 -242 c5 -194 16 -341 60 -751 38 -353 60 -523 72 -552 11
-29 32 -54 64 -76 44 -31 50 -32 118 -29 l73 4 0 57 c0 54 -4 63 -49 122 -44
59 -49 72 -61 149 -10 73 -10 97 4 169 9 46 16 127 17 180 l1 96 70 -210 c39
-116 72 -212 74 -214 4 -4 137 39 147 49 15 13 -76 195 -145 287 -52 70 -90
141 -158 290 l-90 198 5 290 c6 286 13 391 35 516 11 63 12 64 79 113 53 39
75 64 104 117 l36 67 -64 61 c-40 39 -69 59 -78 55 -27 -10 -27 115 0 236 l24
105 -23 58 c-22 54 -26 59 -87 87 -35 17 -64 30 -65 30 0 0 -30 -17 -66 -37z"/>
</g>
</svg>
