<?xml version="1.0" standalone="no"?>
<!DOCTYPE svg PUBLIC "-//W3C//DTD SVG 20010904//EN"
 "http://www.w3.org/TR/2001/REC-SVG-20010904/DTD/svg10.dtd">
<svg version="1.0" xmlns="http://www.w3.org/2000/svg"
 width="160.000000pt" height="144.000000pt" viewBox="0 0 160.000000 144.000000"
 preserveAspectRatio="xMidYMid meet">
<metadata>
Created by potrace 1.14, written by Peter Selinger 2001-2017
</metadata>
<g transform="translate(0.000000,144.000000) scale(0.100000,-0.100000)"
fill="#000000" stroke="none">
<path fill="#000000" stroke="none" d="M870 1430 c-91 -4 -188 -8 -216 -9
l-52 -1 -122 -490 -122 -490 -100 -142 -99 -143 -71 -10 c-82 -12 -101 -31
-76 -81 l13 -29 160 -12 c111 -8 183 -8 235 -1 41 5 76 11 78 12 1 2 -5 22
-13 46 -19 55 -20 52 17 48 l31 -3 125 265 c68 146 150 338 181 428 l57 162
73 -267 c63 -229 182 -607 196 -621 2 -3 22 3 45 12 22 9 43 16 46 16 4 0 3
-20 0 -44 -7 -42 -6 -44 21 -50 85 -16 222 -27 269 -21 53 6 54 7 54 40 0 29
-6 37 -49 64 -27 17 -68 37 -92 44 -63 18 -72 42 -46 122 l20 63 -112 483
c-62 266 -121 514 -132 552 l-20 67 -67 -2 c-37 -1 -141 -5 -232 -8z"/>
</g>
</svg>
