<?xml version="1.0" standalone="no"?>
<!DOCTYPE svg PUBLIC "-//W3C//DTD SVG 20010904//EN"
 "http://www.w3.org/TR/2001/REC-SVG-20010904/DTD/svg10.dtd">
<svg version="1.0" xmlns="http://www.w3.org/2000/svg"
 width="19.000000pt" height="40.000000pt" viewBox="0 0 19.000000 40.000000"
 preserveAspectRatio="xMidYMid meet">
<metadata>
Created by potrace 1.14, written by Peter Selinger 2001-2017
</metadata>
<g transform="translate(0.000000,40.000000) scale(0.100000,-0.100000)"
fill="#000000" stroke="none">
<path fill="#000000" stroke="none" d="M96 385 c-3 -8 -3 -22 0 -30 4 -9 0
-15 -9 -15 -9 0 -28 -16 -43 -35 -29 -39 -26 -71 6 -62 28 7 25 -15 -5 -43
-22 -21 -25 -32 -25 -92 0 -38 -5 -78 -11 -90 -11 -21 -14 -21 49 -3 24 7 27
23 13 73 -11 35 0 80 22 94 7 4 24 8 38 8 23 0 28 6 41 53 15 51 15 53 -8 78
-13 14 -24 32 -24 40 0 15 -19 39 -31 39 -4 0 -9 -7 -13 -15z"/>
</g>
</svg>
