<?xml version="1.0" standalone="no"?>
<!DOCTYPE svg PUBLIC "-//W3C//DTD SVG 20010904//EN"
 "http://www.w3.org/TR/2001/REC-SVG-20010904/DTD/svg10.dtd">
<svg version="1.0" xmlns="http://www.w3.org/2000/svg"
 width="22.000000pt" height="66.000000pt" viewBox="0 0 22.000000 66.000000"
 preserveAspectRatio="xMidYMid meet">
<metadata>
Created by potrace 1.14, written by Peter Selinger 2001-2017
</metadata>
<g transform="translate(0.000000,66.000000) scale(0.100000,-0.100000)"
fill="#000000" stroke="none">
<path fill="#000000" stroke="none" d="M70 630 c-19 -27 -20 -31 -5 -66 24
-58 20 -66 -19 -43 -31 18 -34 18 -40 3 -4 -11 7 -31 34 -60 22 -24 40 -46 40
-50 0 -3 -10 -24 -22 -45 -18 -32 -19 -41 -8 -54 11 -13 15 -12 35 15 12 16
25 27 28 23 4 -3 7 -39 7 -78 0 -39 8 -103 18 -142 11 -38 17 -84 14 -102 -5
-33 2 -36 46 -25 22 6 22 8 22 190 0 148 -4 200 -20 269 -11 48 -25 96 -32
108 -16 30 -62 87 -70 87 -4 0 -16 -13 -28 -30z"/>
</g>
</svg>
