<?xml version="1.0" standalone="no"?>
<!DOCTYPE svg PUBLIC "-//W3C//DTD SVG 20010904//EN"
 "http://www.w3.org/TR/2001/REC-SVG-20010904/DTD/svg10.dtd">
<svg version="1.0" xmlns="http://www.w3.org/2000/svg"
 width="11.000000pt" height="45.000000pt" viewBox="0 0 11.000000 45.000000"
 preserveAspectRatio="xMidYMid meet">
<metadata>
Created by potrace 1.14, written by Peter Selinger 2001-2017
</metadata>
<g transform="translate(0.000000,45.000000) scale(0.100000,-0.100000)"
fill="#000000" stroke="none">
<path fill="#000000" stroke="none" d="M33 443 c-7 -2 -13 -15 -13 -27 0 -12
-5 -27 -11 -33 -8 -8 -8 -33 -1 -90 7 -51 8 -111 2 -173 -12 -125 -13 -120 9
-120 20 0 23 7 37 105 l7 50 9 -65 c8 -56 23 -88 37 -75 2 3 -2 67 -10 142 -7
76 -12 141 -11 145 1 4 5 39 8 78 l7 70 -29 -1 c-16 0 -35 -3 -41 -6z"/>
</g>
</svg>
