<?xml version="1.0" standalone="no"?>
<!DOCTYPE svg PUBLIC "-//W3C//DTD SVG 20010904//EN"
 "http://www.w3.org/TR/2001/REC-SVG-20010904/DTD/svg10.dtd">
<svg version="1.0" xmlns="http://www.w3.org/2000/svg"
 width="39.000000pt" height="19.000000pt" viewBox="0 0 39.000000 19.000000"
 preserveAspectRatio="xMidYMid meet">
<metadata>
Created by potrace 1.14, written by Peter Selinger 2001-2017
</metadata>
<g transform="translate(0.000000,19.000000) scale(0.100000,-0.100000)"
fill="#000000" stroke="none">
<path fill="#000000" stroke="none" d="M185 180 c-3 -5 -16 -10 -29 -10 -12 0
-28 -6 -34 -12 -7 -7 -28 -11 -48 -9 -46 4 -74 -21 -74 -64 0 -46 29 -69 79
-62 28 3 44 1 52 -10 8 -8 26 -13 48 -11 28 2 39 9 51 33 20 41 31 47 51 29
27 -24 80 -14 99 19 13 24 13 30 0 55 -13 22 -23 27 -58 28 -24 0 -48 6 -54
12 -15 15 -74 16 -83 2z"/>
</g>
</svg>
