<?xml version="1.0" standalone="no"?>
<!DOCTYPE svg PUBLIC "-//W3C//DTD SVG 20010904//EN"
 "http://www.w3.org/TR/2001/REC-SVG-20010904/DTD/svg10.dtd">
<svg version="1.0" xmlns="http://www.w3.org/2000/svg"
 width="196.000000pt" height="42.000000pt" viewBox="0 0 196.000000 42.000000"
 preserveAspectRatio="xMidYMid meet">
<metadata>
Created by potrace 1.14, written by Peter Selinger 2001-2017
</metadata>
<g transform="translate(0.000000,42.000000) scale(0.100000,-0.100000)"
fill="#000000" stroke="none">
<path fill="#000000" stroke="none" d="M1641 406 c-11 -13 -9 -23 11 -58 29
-53 63 -59 88 -15 13 24 13 30 0 55 -19 32 -78 43 -99 18z"/>
<path fill="#000000" stroke="none" d="M1840 404 c-34 -18 -60 -52 -60 -77 0
-11 -10 -31 -21 -43 -20 -21 -20 -27 -9 -73 7 -30 9 -71 5 -106 -9 -70 8 -95
66 -95 43 0 43 0 54 105 6 63 24 92 59 97 19 3 21 10 24 82 4 96 -11 127 -61
125 -17 -1 -43 -7 -57 -15z"/>
<path fill="#000000" stroke="none" d="M1454 360 c0 -45 2 -51 23 -56 36 -10
56 2 47 28 -4 13 -7 34 -8 48 -1 20 -7 26 -31 28 -30 3 -30 2 -31 -48z"/>
<path fill="#000000" stroke="none" d="M93 322 c-42 -37 -58 -82 -33 -97 12
-8 -7 -43 -38 -68 -43 -35 -18 -102 46 -122 12 -3 22 -13 22 -20 0 -11 15 -13
73 -8 39 3 78 10 85 16 15 12 9 50 -19 111 -24 53 -25 122 -2 134 14 9 15 14
3 41 -25 62 -76 67 -137 13z"/>
</g>
</svg>
