<?xml version="1.0" standalone="no"?>
<!DOCTYPE svg PUBLIC "-//W3C//DTD SVG 20010904//EN"
 "http://www.w3.org/TR/2001/REC-SVG-20010904/DTD/svg10.dtd">
<svg version="1.0" xmlns="http://www.w3.org/2000/svg"
 width="201.000000pt" height="324.000000pt" viewBox="0 0 201.000000 324.000000"
 preserveAspectRatio="xMidYMid meet">
<metadata>
Created by potrace 1.14, written by Peter Selinger 2001-2017
</metadata>
<g transform="translate(0.000000,324.000000) scale(0.100000,-0.100000)"
fill="#000000" stroke="none">
<path fill="#000000" stroke="none" d="M600 3177 c-74 -35 -175 -90 -223 -122
-79 -53 -96 -70 -162 -165 -90 -129 -120 -160 -173 -184 l-42 -19 0 -86 c1
-356 29 -2594 33 -2597 4 -5 987 33 991 38 2 1 18 194 36 428 18 234 34 426
35 428 1 1 77 5 169 9 l166 6 0 49 0 50 51 -61 c59 -71 74 -81 124 -81 44 0
90 19 133 56 32 28 33 30 23 73 -5 25 -8 49 -5 53 3 4 39 8 80 8 131 0 174 50
174 207 l0 72 -273 -6 c-226 -5 -274 -3 -283 8 -18 23 -33 100 -33 170 0 74
-38 274 -76 396 -18 59 -31 83 -45 88 -12 4 -20 15 -20 29 0 13 -7 29 -15 36
-8 7 -28 36 -45 65 -39 68 -80 120 -125 155 -33 27 -94 105 -95 122 0 4 24 20
53 34 31 16 84 59 132 108 78 79 81 85 93 148 7 36 12 113 12 172 0 102 -2
110 -35 176 -40 80 -71 102 -219 157 -76 29 -108 35 -196 39 l-105 4 -135 -63z"/>
</g>
</svg>
