<?xml version="1.0" standalone="no"?>
<!DOCTYPE svg PUBLIC "-//W3C//DTD SVG 20010904//EN"
 "http://www.w3.org/TR/2001/REC-SVG-20010904/DTD/svg10.dtd">
<svg version="1.0" xmlns="http://www.w3.org/2000/svg"
 width="22.000000pt" height="57.000000pt" viewBox="0 0 22.000000 57.000000"
 preserveAspectRatio="xMidYMid meet">
<metadata>
Created by potrace 1.14, written by Peter Selinger 2001-2017
</metadata>
<g transform="translate(0.000000,57.000000) scale(0.100000,-0.100000)"
fill="#000000" stroke="none">
<path fill="#000000" stroke="none" d="M122 541 c-12 -17 -22 -38 -22 -47 0
-10 -13 -38 -29 -63 -33 -52 -72 -234 -54 -252 7 -7 5 -37 -3 -86 -8 -42 -12
-78 -10 -80 2 -2 23 -5 47 -6 42 -2 44 -1 71 48 l28 50 -33 31 -33 30 32 148
c30 140 34 150 70 187 32 33 36 41 24 49 -8 5 -20 10 -27 10 -6 0 -18 2 -25 5
-8 3 -23 -7 -36 -24z"/>
</g>
</svg>
