<?xml version="1.0" standalone="no"?>
<!DOCTYPE svg PUBLIC "-//W3C//DTD SVG 20010904//EN"
 "http://www.w3.org/TR/2001/REC-SVG-20010904/DTD/svg10.dtd">
<svg version="1.0" xmlns="http://www.w3.org/2000/svg"
 width="184.000000pt" height="308.000000pt" viewBox="0 0 184.000000 308.000000"
 preserveAspectRatio="xMidYMid meet">
<metadata>
Created by potrace 1.14, written by Peter Selinger 2001-2017
</metadata>
<g transform="translate(0.000000,308.000000) scale(0.100000,-0.100000)"
fill="#000000" stroke="none">
<path fill="#000000" stroke="none" d="M1280 3071 c-52 -8 -98 -35 -110 -66
-20 -52 -21 -171 -2 -270 11 -58 15 -109 11 -120 -4 -11 -42 -101 -85 -200
l-76 -180 5 -140 c4 -77 3 -183 -1 -235 -7 -86 -5 -108 24 -235 21 -97 45
-171 77 -240 25 -55 57 -147 71 -205 13 -58 56 -219 95 -359 39 -139 68 -259
64 -265 -4 -6 -45 -62 -92 -125 -67 -91 -82 -116 -70 -123 8 -5 40 -25 72 -44
l58 -36 -68 -52 c-145 -109 -148 -124 -32 -156 44 -12 87 -19 94 -16 8 3 36
22 64 43 72 56 92 108 161 415 l60 267 -55 127 c-30 71 -55 134 -55 141 0 8
29 67 64 131 38 70 74 152 90 204 l25 88 -35 162 -34 163 28 25 c15 14 41 36
57 50 17 14 59 66 93 116 l62 91 -84 146 c-108 187 -133 273 -102 349 l15 35
-59 58 c-58 57 -58 58 -96 192 -21 74 -54 164 -74 201 -35 64 -38 67 -76 68
-21 1 -59 -1 -84 -5z"/>
<path fill="#000000" stroke="none" d="M0 1180 c0 -216 0 -220 20 -210 33 17
38 39 23 89 -9 29 -13 85 -12 151 1 91 -12 190 -26 190 -3 0 -5 -99 -5 -220z"/>
</g>
</svg>
