<?xml version="1.0" standalone="no"?>
<!DOCTYPE svg PUBLIC "-//W3C//DTD SVG 20010904//EN"
 "http://www.w3.org/TR/2001/REC-SVG-20010904/DTD/svg10.dtd">
<svg version="1.0" xmlns="http://www.w3.org/2000/svg"
 width="345.000000pt" height="422.000000pt" viewBox="0 0 345.000000 422.000000"
 preserveAspectRatio="xMidYMid meet">
<metadata>
Created by potrace 1.14, written by Peter Selinger 2001-2017
</metadata>
<g transform="translate(0.000000,422.000000) scale(0.100000,-0.100000)"
fill="#000000" stroke="none">
<path fill="#000000" stroke="none" d="M1647 4182 c-107 -31 -131 -41 -143
-62 -17 -32 -18 -54 -1 -44 16 10 -16 -29 -78 -94 l-50 -53 0 -267 c0 -250 2
-273 24 -352 21 -79 28 -90 91 -155 37 -38 70 -79 73 -90 19 -69 28 -126 21
-137 -59 -96 -169 -239 -187 -243 -129 -29 -225 -48 -315 -60 -59 -9 -117 -18
-129 -20 -12 -3 -55 -45 -96 -95 -72 -89 -74 -91 -95 -191 -20 -91 -32 -120
-113 -266 l-92 -163 -101 -57 c-132 -74 -240 -178 -336 -322 -63 -96 -73 -119
-96 -211 -13 -57 -23 -109 -20 -115 2 -7 38 -18 80 -25 65 -11 100 -11 231 3
l155 15 100 61 c92 57 310 163 319 156 10 -10 -72 -121 -155 -211 -83 -90 -97
-110 -124 -183 -16 -45 -30 -84 -30 -86 0 -3 53 -44 117 -93 65 -49 127 -99
137 -111 16 -18 30 -21 89 -21 56 0 68 -3 64 -15 -4 -8 -36 -110 -72 -227 -56
-183 -65 -224 -65 -290 l0 -76 43 -5 c23 -3 175 -14 337 -23 l296 -17 87 47
c84 46 89 51 121 113 l33 66 57 -74 c42 -53 79 -87 130 -119 l71 -46 130 6
c72 3 265 -2 430 -10 165 -8 327 -14 361 -12 l61 4 12 46 c11 46 10 53 -54
235 -36 104 -65 190 -65 192 0 2 41 7 91 11 61 4 96 12 108 23 10 9 68 75 129
147 l111 131 55 240 55 239 -38 140 c-21 76 -70 219 -109 317 l-72 177 0 103
c1 90 -5 124 -46 288 l-48 185 -253 140 c-166 91 -253 144 -253 155 0 10 -34
32 -97 62 -151 71 -177 102 -193 228 -23 176 -23 326 -2 469 25 165 20 205
-44 380 -41 109 -52 130 -93 168 -25 24 -77 62 -114 84 l-68 41 -122 3 c-116
4 -128 2 -250 -34z"/>
<path fill="#ffffff" stroke="none" d="M2084 2684 l26 -47 -59 -76 -58 -76 44
-145 c41 -137 44 -154 49 -300 l6 -155 -101 -245 c-56 -134 -101 -246 -101
-247 0 -2 -17 -3 -38 -3 l-38 0 -78 295 -78 295 85 212 c46 117 88 228 92 246
5 25 -2 54 -31 127 -36 92 -37 95 -19 115 26 29 99 48 192 49 l81 1 26 -46z"/>
</g>
</svg>
