<?xml version="1.0" standalone="no"?>
<!DOCTYPE svg PUBLIC "-//W3C//DTD SVG 20010904//EN"
 "http://www.w3.org/TR/2001/REC-SVG-20010904/DTD/svg10.dtd">
<svg version="1.0" xmlns="http://www.w3.org/2000/svg"
 width="13.000000pt" height="28.000000pt" viewBox="0 0 13.000000 28.000000"
 preserveAspectRatio="xMidYMid meet">
<metadata>
Created by potrace 1.14, written by Peter Selinger 2001-2017
</metadata>
<g transform="translate(0.000000,28.000000) scale(0.100000,-0.100000)"
fill="#000000" stroke="none">
<path fill="#000000" stroke="none" d="M39 242 c-38 -88 -38 -96 -7 -141 15
-23 26 -46 23 -51 -3 -4 -1 -19 4 -32 9 -21 10 -20 11 12 l1 35 15 -27 c18
-34 28 -37 18 -5 -12 37 -4 120 13 139 15 17 15 20 -2 38 -10 11 -23 30 -29
42 -17 33 -30 31 -47 -10z"/>
</g>
</svg>
