<?xml version="1.0" standalone="no"?>
<!DOCTYPE svg PUBLIC "-//W3C//DTD SVG 20010904//EN"
 "http://www.w3.org/TR/2001/REC-SVG-20010904/DTD/svg10.dtd">
<svg version="1.0" xmlns="http://www.w3.org/2000/svg"
 width="49.000000pt" height="48.000000pt" viewBox="0 0 49.000000 48.000000"
 preserveAspectRatio="xMidYMid meet">
<metadata>
Created by potrace 1.14, written by Peter Selinger 2001-2017
</metadata>
<g transform="translate(0.000000,48.000000) scale(0.100000,-0.100000)"
fill="#000000" stroke="none">
<path fill="#000000" stroke="none" d="M163 451 c-32 -26 -33 -30 -33 -102 0
-72 -1 -77 -37 -118 -20 -24 -50 -51 -66 -61 l-28 -18 103 -75 c110 -80 116
-81 117 -14 l1 27 135 0 135 0 0 34 0 33 -133 18 -133 18 12 106 c7 58 15 123
19 144 5 36 5 37 -27 37 -21 -1 -45 -11 -65 -29z"/>
</g>
</svg>
