<?xml version="1.0" standalone="no"?>
<!DOCTYPE svg PUBLIC "-//W3C//DTD SVG 20010904//EN"
 "http://www.w3.org/TR/2001/REC-SVG-20010904/DTD/svg10.dtd">
<svg version="1.0" xmlns="http://www.w3.org/2000/svg"
 width="12.000000pt" height="50.000000pt" viewBox="0 0 12.000000 50.000000"
 preserveAspectRatio="xMidYMid meet">
<metadata>
Created by potrace 1.14, written by Peter Selinger 2001-2017
</metadata>
<g transform="translate(0.000000,50.000000) scale(0.100000,-0.100000)"
fill="#000000" stroke="none">
<path fill="#000000" stroke="none" d="M39 451 c-39 -54 -40 -67 -23 -228 5
-44 3 -67 -6 -78 -10 -12 -9 -20 4 -40 18 -27 38 -25 54 8 9 18 11 9 11 -47
l1 -69 21 19 c22 20 23 43 3 256 -4 40 -2 80 5 99 7 22 8 36 1 44 -7 9 -7 21
0 39 15 39 13 46 -12 46 -16 0 -35 -16 -59 -49z"/>
</g>
</svg>
