<?xml version="1.0" standalone="no"?>
<!DOCTYPE svg PUBLIC "-//W3C//DTD SVG 20010904//EN"
 "http://www.w3.org/TR/2001/REC-SVG-20010904/DTD/svg10.dtd">
<svg version="1.0" xmlns="http://www.w3.org/2000/svg"
 width="37.000000pt" height="89.000000pt" viewBox="0 0 37.000000 89.000000"
 preserveAspectRatio="xMidYMid meet">
<metadata>
Created by potrace 1.14, written by Peter Selinger 2001-2017
</metadata>
<g transform="translate(0.000000,89.000000) scale(0.100000,-0.100000)"
fill="#000000" stroke="none">
<path fill="#000000" stroke="none" d="M198 883 c-22 -3 -30 -13 -43 -53 -10
-31 -27 -57 -45 -70 -15 -11 -44 -49 -64 -85 -32 -58 -37 -76 -42 -163 l-7
-97 53 -25 53 -25 -6 -168 c-5 -162 -4 -168 16 -182 35 -25 63 -18 95 23 29
36 31 46 41 173 6 73 19 163 29 199 16 62 19 65 55 74 43 11 41 4 23 120 -13
80 -18 91 -48 117 -18 15 -36 28 -41 29 -4 0 -5 10 -2 23 5 19 -28 120 -37
116 -2 -1 -15 -4 -30 -6z"/>
</g>
</svg>
