<?xml version="1.0" standalone="no"?>
<!DOCTYPE svg PUBLIC "-//W3C//DTD SVG 20010904//EN"
 "http://www.w3.org/TR/2001/REC-SVG-20010904/DTD/svg10.dtd">
<svg version="1.0" xmlns="http://www.w3.org/2000/svg"
 width="640.000000pt" height="362.000000pt" viewBox="0 0 640.000000 362.000000"
 preserveAspectRatio="xMidYMid meet">
<metadata>
Created by potrace 1.14, written by Peter Selinger 2001-2017
</metadata>
<g transform="translate(0.000000,362.000000) scale(0.100000,-0.100000)"
fill="#000000" stroke="none">
<path fill="#000000" stroke="none" d="M5695 3613 c-33 -2 -125 -10 -204 -18
l-144 -15 -54 -48 c-30 -26 -66 -56 -80 -67 -14 -11 -98 -101 -188 -200 -89
-99 -194 -206 -232 -237 l-69 -57 7 -68 c4 -37 16 -93 27 -123 l19 -55 -81
-34 c-44 -19 -160 -71 -256 -117 -106 -50 -199 -86 -235 -93 -32 -6 -136 -34
-229 -63 l-170 -51 -231 14 c-283 17 -323 16 -405 -10 -47 -15 -92 -21 -160
-21 -140 0 -283 -29 -590 -118 l-275 -80 -290 -21 c-245 -18 -378 -21 -860
-21 -314 0 -659 5 -767 11 -159 10 -200 10 -213 -1 -13 -11 -15 -51 -15 -271
0 -201 3 -259 13 -259 6 1 28 9 47 19 34 19 34 19 66 -5 41 -32 394 -185 679
-294 127 -49 256 -100 287 -114 50 -22 66 -25 124 -19 l67 6 -25 -37 c-31 -45
-27 -78 13 -106 22 -17 54 -22 161 -30 122 -9 182 -22 713 -155 319 -81 688
-168 820 -195 343 -71 317 -61 361 -134 64 -105 115 -169 172 -216 30 -25 71
-61 91 -81 l36 -37 165 24 165 24 140 -25 c77 -14 178 -33 225 -41 47 -8 196
-51 331 -95 l247 -79 696 0 696 0 55 31 55 31 0 1411 0 1412 -41 269 -41 268
-65 62 c-51 48 -84 69 -156 99 -90 37 -92 37 -216 35 -69 -1 -153 -3 -186 -5z"/>
<path fill="#ffffff" stroke="none" d="M3515 753 l100 -39 3 -52 c3 -47 5 -52
22 -47 11 3 45 -2 75 -12 45 -14 66 -29 103 -73 31 -35 40 -51 27 -46 -61 23
-72 20 -106 -28 -18 -25 -36 -46 -41 -46 -4 0 -40 14 -79 32 -65 29 -75 38
-118 102 -27 39 -56 87 -66 106 -10 19 -31 50 -46 68 -16 18 -29 44 -29 58 0
23 3 26 28 21 15 -3 72 -22 127 -44z"/>
</g>
</svg>
