<?xml version="1.0" standalone="no"?>
<!DOCTYPE svg PUBLIC "-//W3C//DTD SVG 20010904//EN"
 "http://www.w3.org/TR/2001/REC-SVG-20010904/DTD/svg10.dtd">
<svg version="1.0" xmlns="http://www.w3.org/2000/svg"
 width="17.000000pt" height="83.000000pt" viewBox="0 0 17.000000 83.000000"
 preserveAspectRatio="xMidYMid meet">
<metadata>
Created by potrace 1.14, written by Peter Selinger 2001-2017
</metadata>
<g transform="translate(0.000000,83.000000) scale(0.100000,-0.100000)"
fill="#000000" stroke="none">
<path fill="#000000" stroke="none" d="M35 754 c-33 -73 -35 -81 -34 -188 0
-64 8 -151 18 -204 17 -87 17 -100 2 -202 -15 -106 -15 -109 4 -130 l20 -22 6
28 c4 16 7 52 8 79 l2 50 43 -85 44 -85 12 58 c13 54 12 59 -12 104 -16 29
-28 73 -32 111 -5 56 -2 72 23 130 l29 67 -7 153 c-6 147 -8 155 -31 173 -58
46 -57 46 -95 -37z"/>
</g>
</svg>
