<?xml version="1.0" standalone="no"?>
<!DOCTYPE svg PUBLIC "-//W3C//DTD SVG 20010904//EN"
 "http://www.w3.org/TR/2001/REC-SVG-20010904/DTD/svg10.dtd">
<svg version="1.0" xmlns="http://www.w3.org/2000/svg"
 width="219.000000pt" height="316.000000pt" viewBox="0 0 219.000000 316.000000"
 preserveAspectRatio="xMidYMid meet">
<metadata>
Created by potrace 1.14, written by Peter Selinger 2001-2017
</metadata>
<g transform="translate(0.000000,316.000000) scale(0.100000,-0.100000)"
fill="#000000" stroke="none">
<path fill="#000000" stroke="none" d="M967 3104 c-166 -69 -275 -144 -315
-217 -16 -28 -52 -89 -81 -134 l-53 -82 10 -188 c10 -183 10 -192 -15 -326
l-26 -137 -229 -176 -228 -175 0 -92 c0 -51 -7 -405 -15 -787 -8 -382 -15
-714 -15 -737 l0 -41 1093 -4 c600 -2 1094 -2 1095 -1 2 1 -8 21 -22 45 -16
27 -26 36 -26 25 0 -10 -5 -17 -11 -15 -7 2 -31 74 -55 158 -34 122 -46 191
-59 323 -16 154 -16 175 -1 261 l16 93 -41 174 c-23 102 -48 244 -59 344 l-19
169 -95 141 c-102 151 -180 285 -171 293 8 9 -27 42 -44 42 -9 0 -38 22 -65
49 l-48 48 7 55 c6 50 4 60 -20 96 l-26 40 41 134 c36 118 57 158 81 158 4 0
13 24 20 54 l12 55 -103 113 c-102 113 -158 155 -360 270 l-45 26 -128 -54z"/>
</g>
</svg>
