<?xml version="1.0" standalone="no"?>
<!DOCTYPE svg PUBLIC "-//W3C//DTD SVG 20010904//EN"
 "http://www.w3.org/TR/2001/REC-SVG-20010904/DTD/svg10.dtd">
<svg version="1.0" xmlns="http://www.w3.org/2000/svg"
 width="47.000000pt" height="48.000000pt" viewBox="0 0 47.000000 48.000000"
 preserveAspectRatio="xMidYMid meet">
<metadata>
Created by potrace 1.14, written by Peter Selinger 2001-2017
</metadata>
<g transform="translate(0.000000,48.000000) scale(0.100000,-0.100000)"
fill="#000000" stroke="none">
<path fill="#000000" stroke="none" d="M146 386 c-47 -52 -86 -98 -86 -104 0
-5 27 -27 60 -49 54 -35 59 -41 47 -57 -12 -16 -20 -17 -70 -9 l-56 10 -22
-59 c-12 -32 -19 -61 -16 -64 3 -3 70 -14 149 -24 78 -11 157 -21 175 -24 30
-4 34 0 88 82 l58 86 -22 92 c-11 51 -21 117 -21 147 l0 54 -46 7 c-26 3 -70
6 -99 6 l-53 0 -86 -94z"/>
</g>
</svg>
