<?xml version="1.0" standalone="no"?>
<!DOCTYPE svg PUBLIC "-//W3C//DTD SVG 20010904//EN"
 "http://www.w3.org/TR/2001/REC-SVG-20010904/DTD/svg10.dtd">
<svg version="1.0" xmlns="http://www.w3.org/2000/svg"
 width="122.000000pt" height="333.000000pt" viewBox="0 0 122.000000 333.000000"
 preserveAspectRatio="xMidYMid meet">
<metadata>
Created by potrace 1.14, written by Peter Selinger 2001-2017
</metadata>
<g transform="translate(0.000000,333.000000) scale(0.100000,-0.100000)"
fill="#000000" stroke="none">
<path fill="#000000" stroke="none" d="M559 3321 c-146 -13 -198 -100 -200
-331 0 -20 7 -56 15 -80 9 -25 16 -55 16 -67 0 -25 42 -58 64 -50 13 5 46 -21
46 -36 0 -3 -11 -16 -23 -29 -35 -34 -60 -112 -61 -190 0 -37 -2 -68 -4 -68
-12 0 -130 114 -143 137 -7 15 -20 33 -27 38 -22 18 -1 105 37 152 26 33 50
106 51 161 0 1 -7 2 -15 2 -12 0 -15 10 -14 38 3 43 -29 89 -53 79 -8 -2 -28
-31 -46 -63 l-32 -59 6 54 c6 48 5 53 -12 49 -24 -4 -46 -103 -39 -173 4 -35
2 -56 -9 -70 -17 -23 -28 -16 -54 36 -12 23 -25 35 -42 37 -21 2 -10 -11 58
-77 91 -88 119 -136 152 -266 16 -63 32 -95 88 -175 l69 -97 -16 -32 c-9 -17
-20 -29 -23 -25 -4 3 -22 -6 -42 -21 -31 -24 -35 -24 -39 -8 -3 10 -5 -10 -6
-44 l-1 -63 30 0 c23 0 33 -6 42 -26 7 -14 26 -31 42 -38 27 -11 36 -11 68 5
21 11 40 30 46 46 9 25 11 22 11 -27 1 -30 10 -98 22 -150 23 -109 22 -97 19
-175 -2 -39 3 -71 12 -90 12 -23 17 -87 22 -285 8 -321 40 -610 74 -657 17
-23 24 -55 32 -130 5 -54 22 -148 37 -210 l27 -111 -27 -101 c-32 -120 -32
-118 -6 -126 15 -5 37 5 81 36 58 40 64 42 140 44 44 1 83 6 86 12 15 23 120
73 154 73 19 0 37 3 41 6 3 4 -9 25 -27 48 -33 41 -56 102 -56 148 0 13 -18
101 -40 195 l-40 170 25 57 c17 39 25 74 25 114 0 31 5 107 11 167 7 61 11
127 10 148 -1 21 5 61 14 89 8 28 15 65 15 82 0 17 7 51 15 75 13 36 14 57 5
122 -6 44 -18 98 -25 120 -8 23 -15 56 -15 73 0 17 -7 42 -16 54 -9 13 -17 44
-19 70 -3 57 -23 132 -34 132 -5 0 -10 38 -10 85 -1 47 -6 129 -12 181 -8 74
-7 107 2 145 30 114 -46 256 -170 319 -33 16 -72 48 -95 75 -34 41 -38 51 -33
85 3 22 15 53 27 70 20 28 22 41 18 111 -4 69 -9 85 -35 122 -26 35 -106 97
-123 95 -3 -1 -35 -4 -71 -7z"/>
<path fill="#ffffff" stroke="none" d="M370 2135 c0 -29 6 -39 30 -53 16 -9
28 -21 27 -27 -7 -21 -39 -15 -71 13 -29 26 -32 31 -20 47 8 10 14 27 14 37 0
10 5 18 10 18 6 0 10 -16 10 -35z"/>
<path fill="#000000" stroke="none" d="M250 2270 c0 -19 7 -33 19 -40 24 -12
61 -13 61 -1 0 9 -66 71 -75 71 -3 0 -5 -13 -5 -30z"/>
</g>
</svg>
