<?xml version="1.0" standalone="no"?>
<!DOCTYPE svg PUBLIC "-//W3C//DTD SVG 20010904//EN"
 "http://www.w3.org/TR/2001/REC-SVG-20010904/DTD/svg10.dtd">
<svg version="1.0" xmlns="http://www.w3.org/2000/svg"
 width="22.000000pt" height="96.000000pt" viewBox="0 0 22.000000 96.000000"
 preserveAspectRatio="xMidYMid meet">
<metadata>
Created by potrace 1.14, written by Peter Selinger 2001-2017
</metadata>
<g transform="translate(0.000000,96.000000) scale(0.100000,-0.100000)"
fill="#000000" stroke="none">
<path fill="#000000" stroke="none" d="M157 942 c-3 -9 -20 -93 -37 -187 l-32
-170 19 -90 20 -90 -57 -170 c-31 -93 -60 -185 -63 -202 -6 -31 -5 -33 22 -33
25 0 37 11 78 68 27 37 63 91 81 120 l32 52 0 345 0 344 -29 16 c-27 14 -30
13 -34 -3z"/>
</g>
</svg>
