<?xml version="1.0" standalone="no"?>
<!DOCTYPE svg PUBLIC "-//W3C//DTD SVG 20010904//EN"
 "http://www.w3.org/TR/2001/REC-SVG-20010904/DTD/svg10.dtd">
<svg version="1.0" xmlns="http://www.w3.org/2000/svg"
 width="7.000000pt" height="18.000000pt" viewBox="0 0 7.000000 18.000000"
 preserveAspectRatio="xMidYMid meet">
<metadata>
Created by potrace 1.14, written by Peter Selinger 2001-2017
</metadata>
<g transform="translate(0.000000,18.000000) scale(0.100000,-0.100000)"
fill="#000000" stroke="none">
<path fill="#000000" stroke="none" d="M10 138 c0 -23 -3 -64 -6 -90 -4 -35
-3 -48 6 -48 7 0 10 8 7 20 -8 31 10 33 21 3 10 -26 11 -25 12 17 1 25 5 54 9
65 10 25 -5 46 -26 38 -12 -5 -15 -2 -10 10 3 9 2 19 -4 23 -6 3 -10 -11 -9
-38z"/>
</g>
</svg>
