<?xml version="1.0" standalone="no"?>
<!DOCTYPE svg PUBLIC "-//W3C//DTD SVG 20010904//EN"
 "http://www.w3.org/TR/2001/REC-SVG-20010904/DTD/svg10.dtd">
<svg version="1.0" xmlns="http://www.w3.org/2000/svg"
 width="32.000000pt" height="30.000000pt" viewBox="0 0 32.000000 30.000000"
 preserveAspectRatio="xMidYMid meet">
<metadata>
Created by potrace 1.14, written by Peter Selinger 2001-2017
</metadata>
<g transform="translate(0.000000,30.000000) scale(0.100000,-0.100000)"
fill="#000000" stroke="none">
<path fill="#000000" stroke="none" d="M67 271 c-19 -17 -42 -49 -51 -70 -14
-37 -14 -43 6 -101 11 -34 27 -64 34 -67 8 -3 14 -12 14 -21 0 -12 11 -14 68
-9 37 4 92 7 122 7 l55 0 3 109 4 110 -39 24 c-23 15 -61 28 -97 32 -33 4 -65
9 -71 12 -7 2 -29 -10 -48 -26z"/>
</g>
</svg>
