<?xml version="1.0" standalone="no"?>
<!DOCTYPE svg PUBLIC "-//W3C//DTD SVG 20010904//EN"
 "http://www.w3.org/TR/2001/REC-SVG-20010904/DTD/svg10.dtd">
<svg version="1.0" xmlns="http://www.w3.org/2000/svg"
 width="21.000000pt" height="30.000000pt" viewBox="0 0 21.000000 30.000000"
 preserveAspectRatio="xMidYMid meet">
<metadata>
Created by potrace 1.14, written by Peter Selinger 2001-2017
</metadata>
<g transform="translate(0.000000,30.000000) scale(0.100000,-0.100000)"
fill="#000000" stroke="none">
<path fill="#000000" stroke="none" d="M117 292 c-2 -4 -7 -19 -10 -33 -4 -14
-29 -47 -57 -73 -51 -48 -65 -86 -32 -86 9 0 26 7 36 15 48 37 96 10 111 -62
3 -17 12 -37 19 -43 11 -8 15 1 21 45 5 45 3 63 -14 98 -12 24 -21 59 -21 78
0 19 -4 39 -8 45 -9 14 -40 25 -45 16z"/>
</g>
</svg>
