<?xml version="1.0" standalone="no"?>
<!DOCTYPE svg PUBLIC "-//W3C//DTD SVG 20010904//EN"
 "http://www.w3.org/TR/2001/REC-SVG-20010904/DTD/svg10.dtd">
<svg version="1.0" xmlns="http://www.w3.org/2000/svg"
 width="67.000000pt" height="74.000000pt" viewBox="0 0 67.000000 74.000000"
 preserveAspectRatio="xMidYMid meet">
<metadata>
Created by potrace 1.14, written by Peter Selinger 2001-2017
</metadata>
<g transform="translate(0.000000,74.000000) scale(0.100000,-0.100000)"
fill="#000000" stroke="none">
<path fill="#000000" stroke="none" d="M295 721 l-69 -16 -23 -75 c-22 -73
-32 -170 -14 -141 6 9 12 -3 21 -39 15 -62 10 -70 -91 -128 l-64 -37 -27 -100
c-14 -55 -27 -119 -27 -142 l-1 -43 243 0 242 1 92 138 91 138 -23 25 c-13 14
-52 35 -87 48 -101 35 -103 38 -102 128 0 42 4 102 8 132 8 54 7 56 -26 86
-44 42 -60 45 -143 25z"/>
</g>
</svg>
