<?xml version="1.0" standalone="no"?>
<!DOCTYPE svg PUBLIC "-//W3C//DTD SVG 20010904//EN"
 "http://www.w3.org/TR/2001/REC-SVG-20010904/DTD/svg10.dtd">
<svg version="1.0" xmlns="http://www.w3.org/2000/svg"
 width="43.000000pt" height="78.000000pt" viewBox="0 0 43.000000 78.000000"
 preserveAspectRatio="xMidYMid meet">
<metadata>
Created by potrace 1.14, written by Peter Selinger 2001-2017
</metadata>
<g transform="translate(0.000000,78.000000) scale(0.100000,-0.100000)"
fill="#000000" stroke="none">
<path fill="#000000" stroke="none" d="M295 768 c-11 -6 -32 -22 -47 -36 -26
-24 -27 -26 -11 -56 9 -17 22 -35 30 -40 12 -6 10 -13 -13 -37 -15 -16 -34
-29 -41 -29 -8 0 -31 -9 -52 -19 -20 -11 -65 -23 -99 -27 -92 -10 -81 -30 20
-37 60 -4 89 -2 110 9 37 19 38 19 38 -20 0 -31 -4 -36 -36 -46 -19 -7 -46 -9
-59 -6 -27 7 -37 -10 -23 -37 8 -16 19 -18 70 -15 76 4 85 -11 27 -44 l-41
-23 5 -62 c2 -35 12 -73 21 -85 9 -13 23 -33 32 -45 15 -21 15 -24 -5 -49 -29
-37 -28 -64 3 -64 17 0 32 13 54 46 l30 46 -23 52 c-40 92 -40 93 2 101 37 7
89 42 108 74 5 9 14 67 20 129 11 111 10 114 -12 145 -18 24 -23 44 -23 94 0
59 -2 63 -30 78 -34 18 -30 17 -55 3z"/>
</g>
</svg>
