<?xml version="1.0" standalone="no"?>
<!DOCTYPE svg PUBLIC "-//W3C//DTD SVG 20010904//EN"
 "http://www.w3.org/TR/2001/REC-SVG-20010904/DTD/svg10.dtd">
<svg version="1.0" xmlns="http://www.w3.org/2000/svg"
 width="100.000000pt" height="184.000000pt" viewBox="0 0 100.000000 184.000000"
 preserveAspectRatio="xMidYMid meet">
<metadata>
Created by potrace 1.14, written by Peter Selinger 2001-2017
</metadata>
<g transform="translate(0.000000,184.000000) scale(0.100000,-0.100000)"
fill="#000000" stroke="none">
<path fill="#000000" stroke="none" d="M761 1831 c-11 -7 -11 -30 -1 -136 10
-102 10 -132 -1 -151 -7 -13 -15 -24 -18 -23 -5 0 -37 37 -164 191 -16 19 -19
20 -34 6 -14 -15 -8 -25 65 -116 80 -98 82 -102 108 -207 22 -88 34 -115 70
-161 l42 -55 79 91 c43 51 82 99 86 106 6 10 -6 35 -35 76 -34 49 -52 64 -85
75 -46 16 -44 10 -75 226 -6 48 -14 87 -18 87 -3 0 -11 -4 -19 -9z"/>
<path fill="#000000" stroke="none" d="M150 1549 c-72 -29 -77 -33 -114 -96
l-40 -66 54 -161 c40 -122 66 -181 106 -244 29 -46 50 -90 47 -98 -3 -8 -9
-11 -14 -9 -4 3 -29 -22 -54 -56 -40 -56 -43 -64 -30 -79 21 -23 19 -32 -18
-144 l-33 -98 22 -190 c12 -104 23 -191 25 -193 19 -18 146 -115 151 -115 10
0 570 340 584 354 7 8 7 111 -2 361 -7 193 -13 356 -13 363 -2 27 -52 34 -125
16 -71 -16 -137 -19 -188 -8 -27 5 -28 9 -28 62 0 47 -36 302 -43 308 -74 52
-190 124 -199 123 -7 0 -47 -14 -88 -30z"/>
</g>
</svg>
