<?xml version="1.0" standalone="no"?>
<!DOCTYPE svg PUBLIC "-//W3C//DTD SVG 20010904//EN"
 "http://www.w3.org/TR/2001/REC-SVG-20010904/DTD/svg10.dtd">
<svg version="1.0" xmlns="http://www.w3.org/2000/svg"
 width="110.000000pt" height="116.000000pt" viewBox="0 0 110.000000 116.000000"
 preserveAspectRatio="xMidYMid meet">
<metadata>
Created by potrace 1.14, written by Peter Selinger 2001-2017
</metadata>
<g transform="translate(0.000000,116.000000) scale(0.100000,-0.100000)"
fill="#000000" stroke="none">
<path fill="#000000" stroke="none" d="M994 1149 c-3 -5 -26 -9 -52 -9 -26 0
-55 -7 -65 -15 -10 -7 -59 -26 -109 -41 -86 -26 -92 -30 -146 -92 -31 -35 -77
-78 -102 -95 -25 -17 -56 -43 -70 -57 -18 -19 -51 -33 -115 -50 -115 -30 -140
-44 -176 -103 -23 -37 -42 -54 -82 -72 -37 -17 -45 -24 -29 -24 13 -1 34 -12
48 -25 22 -20 24 -27 15 -44 -6 -11 -11 -30 -11 -42 0 -12 -7 -37 -16 -56 -12
-25 -15 -49 -11 -84 5 -39 3 -50 -8 -50 -21 0 -65 -63 -65 -92 0 -14 8 -32 18
-41 24 -22 114 -23 132 -2 14 17 110 22 110 6 0 -5 7 -17 16 -25 23 -24 210
-23 236 1 17 15 18 14 18 -34 0 -36 6 -58 21 -77 21 -26 25 -27 98 -23 129 7
192 35 225 99 10 18 24 44 32 58 8 15 14 53 14 93 0 41 4 67 11 67 6 0 30 11
53 25 l43 25 -15 53 c-14 53 -14 54 12 95 14 23 26 44 26 46 0 3 -21 6 -47 8
-46 3 -48 4 -67 51 l-20 48 29 23 c22 18 30 34 34 72 l6 49 43 3 c64 5 71 22
71 172 1 146 -8 168 -64 168 -19 0 -38 -4 -41 -9z"/>
</g>
</svg>
