<?xml version="1.0" standalone="no"?>
<!DOCTYPE svg PUBLIC "-//W3C//DTD SVG 20010904//EN"
 "http://www.w3.org/TR/2001/REC-SVG-20010904/DTD/svg10.dtd">
<svg version="1.0" xmlns="http://www.w3.org/2000/svg"
 width="157.000000pt" height="298.000000pt" viewBox="0 0 157.000000 298.000000"
 preserveAspectRatio="xMidYMid meet">
<metadata>
Created by potrace 1.14, written by Peter Selinger 2001-2017
</metadata>
<g transform="translate(0.000000,298.000000) scale(0.100000,-0.100000)"
fill="#000000" stroke="none">
<path fill="#000000" stroke="none" d="M308 2953 c-39 -23 -50 -36 -70 -88
l-24 -60 31 -105 c17 -58 46 -139 64 -181 l32 -76 -57 -154 c-31 -85 -88 -262
-127 -394 -39 -132 -75 -243 -80 -247 -9 -5 -77 -324 -76 -353 1 -21 52 137
85 265 23 86 86 264 175 490 l140 355 67 36 67 37 34 104 c31 97 33 110 27
189 l-7 85 -50 43 c-33 29 -71 50 -112 62 -34 10 -64 19 -67 19 -3 0 -26 -13
-52 -27z"/>
<path fill="#000000" stroke="none" d="M866 2870 c-14 -22 -26 -42 -26 -46 0
-21 181 -262 243 -323 68 -67 77 -73 105 -66 28 6 33 3 57 -35 14 -22 23 -45
19 -51 -3 -6 7 -25 23 -42 33 -35 173 -276 173 -297 0 -8 -33 -86 -74 -174
-52 -114 -99 -198 -160 -285 -47 -69 -86 -129 -86 -134 0 -5 -11 -100 -25
-211 -20 -165 -26 -279 -34 -636 -8 -364 -12 -444 -27 -493 -9 -31 -15 -60
-11 -63 3 -3 32 -8 64 -11 56 -5 122 13 286 78 l27 11 0 132 c0 109 -7 166
-39 343 l-39 212 44 183 c24 101 73 320 109 488 64 299 66 309 72 500 l6 195
-68 135 c-58 116 -81 149 -170 250 -176 197 -257 267 -431 373 -7 4 -22 -10
-38 -33z"/>
</g>
</svg>
