<?xml version="1.0" standalone="no"?>
<!DOCTYPE svg PUBLIC "-//W3C//DTD SVG 20010904//EN"
 "http://www.w3.org/TR/2001/REC-SVG-20010904/DTD/svg10.dtd">
<svg version="1.0" xmlns="http://www.w3.org/2000/svg"
 width="78.000000pt" height="86.000000pt" viewBox="0 0 78.000000 86.000000"
 preserveAspectRatio="xMidYMid meet">
<metadata>
Created by potrace 1.14, written by Peter Selinger 2001-2017
</metadata>
<g transform="translate(0.000000,86.000000) scale(0.100000,-0.100000)"
fill="#000000" stroke="none">
<path fill="#000000" stroke="none" d="M265 821 c-46 -38 -50 -46 -67 -118
-17 -73 -23 -82 -82 -143 -45 -46 -70 -81 -84 -120 -11 -30 -24 -63 -28 -74
-6 -16 -3 -18 25 -14 49 7 97 -40 116 -117 8 -32 15 -72 15 -88 l0 -30 58 7
c31 4 106 11 165 16 59 4 111 10 114 14 3 3 -1 33 -10 66 -14 56 -14 60 2 48
79 -60 117 -100 172 -178 35 -49 69 -90 75 -90 36 0 44 12 44 70 0 76 -10 101
-69 169 -26 31 -56 69 -67 85 -24 38 -71 92 -162 187 -63 66 -72 80 -66 103 6
24 10 26 60 26 30 0 54 2 54 5 0 16 -57 116 -88 155 -20 25 -36 46 -36 46 -1
1 -22 4 -47 8 -43 6 -49 4 -94 -33z"/>
</g>
</svg>
