<?xml version="1.0" standalone="no"?>
<!DOCTYPE svg PUBLIC "-//W3C//DTD SVG 20010904//EN"
 "http://www.w3.org/TR/2001/REC-SVG-20010904/DTD/svg10.dtd">
<svg version="1.0" xmlns="http://www.w3.org/2000/svg"
 width="49.000000pt" height="196.000000pt" viewBox="0 0 49.000000 196.000000"
 preserveAspectRatio="xMidYMid meet">
<metadata>
Created by potrace 1.14, written by Peter Selinger 2001-2017
</metadata>
<g transform="translate(0.000000,196.000000) scale(0.100000,-0.100000)"
fill="#000000" stroke="none">
<path fill="#000000" stroke="none" d="M194 1932 c-51 -43 -57 -64 -49 -160 4
-47 13 -96 21 -107 12 -19 12 -28 1 -61 -8 -21 -17 -86 -21 -143 -3 -58 -7
-106 -9 -107 -1 -1 -18 1 -37 5 -29 6 -64 0 -88 -15 -6 -3 39 -87 64 -121 l24
-32 -17 -53 c-16 -48 -17 -77 -10 -293 4 -132 4 -344 -1 -470 -7 -218 -9 -233
-31 -263 -31 -44 -45 -94 -28 -104 19 -12 233 -9 262 4 16 7 28 24 34 47 75
288 82 334 88 586 4 162 10 240 19 264 18 44 18 139 -2 213 -15 59 -15 61 6
83 28 29 58 129 66 215 6 60 4 73 -19 116 -27 51 -49 144 -66 278 -8 68 -13
83 -42 112 -29 30 -39 34 -83 34 -41 0 -57 -6 -82 -28z"/>
</g>
</svg>
