<?xml version="1.0" standalone="no"?>
<!DOCTYPE svg PUBLIC "-//W3C//DTD SVG 20010904//EN"
 "http://www.w3.org/TR/2001/REC-SVG-20010904/DTD/svg10.dtd">
<svg version="1.0" xmlns="http://www.w3.org/2000/svg"
 width="21.000000pt" height="53.000000pt" viewBox="0 0 21.000000 53.000000"
 preserveAspectRatio="xMidYMid meet">
<metadata>
Created by potrace 1.14, written by Peter Selinger 2001-2017
</metadata>
<g transform="translate(0.000000,53.000000) scale(0.100000,-0.100000)"
fill="#000000" stroke="none">
<path fill="#000000" stroke="none" d="M37 523 c-4 -3 -7 -21 -7 -38 0 -18 -7
-38 -15 -45 -22 -18 -9 -81 36 -176 22 -45 43 -104 49 -133 5 -28 14 -60 20
-70 13 -25 59 -61 76 -61 20 0 17 47 -6 99 -11 24 -20 51 -20 61 0 9 -10 43
-21 76 -19 52 -37 167 -42 262 -2 29 -5 32 -33 32 -17 0 -34 -3 -37 -7z"/>
</g>
</svg>
