<?xml version="1.0" standalone="no"?>
<!DOCTYPE svg PUBLIC "-//W3C//DTD SVG 20010904//EN"
 "http://www.w3.org/TR/2001/REC-SVG-20010904/DTD/svg10.dtd">
<svg version="1.0" xmlns="http://www.w3.org/2000/svg"
 width="51.000000pt" height="149.000000pt" viewBox="0 0 51.000000 149.000000"
 preserveAspectRatio="xMidYMid meet">
<metadata>
Created by potrace 1.14, written by Peter Selinger 2001-2017
</metadata>
<g transform="translate(0.000000,149.000000) scale(0.100000,-0.100000)"
fill="#000000" stroke="none">
<path fill="#000000" stroke="none" d="M455 1481 c-11 -5 -52 -38 -91 -75 -40
-36 -74 -66 -77 -66 -3 0 -8 12 -12 27 -11 44 -24 53 -80 53 -64 0 -73 -9 -86
-92 -6 -34 -14 -78 -19 -97 -6 -21 -5 -39 1 -50 8 -11 6 -28 -4 -57 -13 -38
-12 -42 5 -53 20 -12 25 -41 7 -41 -8 0 -9 -19 -3 -62 9 -76 8 -133 -7 -214
-9 -50 -8 -70 6 -119 10 -31 18 -97 19 -144 1 -80 -2 -92 -32 -153 -52 -102
-82 -196 -82 -260 l0 -56 87 -6 c49 -4 103 -8 121 -11 l32 -4 0 62 c0 88 17
182 45 254 13 34 38 116 55 183 28 113 30 125 18 186 -10 57 -9 78 10 177 45
228 45 208 -4 269 -24 29 -43 59 -44 67 0 7 29 55 65 106 51 74 71 95 95 100
29 6 31 10 28 43 -3 39 -17 47 -53 33z"/>
</g>
</svg>
