<?xml version="1.0" standalone="no"?>
<!DOCTYPE svg PUBLIC "-//W3C//DTD SVG 20010904//EN"
 "http://www.w3.org/TR/2001/REC-SVG-20010904/DTD/svg10.dtd">
<svg version="1.0" xmlns="http://www.w3.org/2000/svg"
 width="21.000000pt" height="54.000000pt" viewBox="0 0 21.000000 54.000000"
 preserveAspectRatio="xMidYMid meet">
<metadata>
Created by potrace 1.14, written by Peter Selinger 2001-2017
</metadata>
<g transform="translate(0.000000,54.000000) scale(0.100000,-0.100000)"
fill="#000000" stroke="none">
<path fill="#000000" stroke="none" d="M67 523 c-36 -40 -68 -324 -39 -342 8
-5 7 -22 -4 -61 -25 -88 -24 -92 21 -106 l40 -11 -2 41 c-2 38 1 34 13 -21 3
-18 11 -23 34 -23 31 0 37 9 19 27 -7 7 -8 33 -4 77 7 60 9 66 30 66 25 0 35
22 35 84 0 44 -25 149 -43 177 -9 14 -9 24 -1 36 9 14 6 23 -17 45 -32 32 -59
36 -82 11z"/>
<path fill="#ffffff" stroke="none" d="M81 97 c-13 -13 -15 1 -4 30 7 17 8 17
11 -1 2 -10 -1 -23 -7 -29z"/>
</g>
</svg>
