<?xml version="1.0" standalone="no"?>
<!DOCTYPE svg PUBLIC "-//W3C//DTD SVG 20010904//EN"
 "http://www.w3.org/TR/2001/REC-SVG-20010904/DTD/svg10.dtd">
<svg version="1.0" xmlns="http://www.w3.org/2000/svg"
 width="42.000000pt" height="257.000000pt" viewBox="0 0 42.000000 257.000000"
 preserveAspectRatio="xMidYMid meet">
<metadata>
Created by potrace 1.14, written by Peter Selinger 2001-2017
</metadata>
<g transform="translate(0.000000,257.000000) scale(0.100000,-0.100000)"
fill="#000000" stroke="none">
<path fill="#000000" stroke="none" d="M384 2556 c-19 -15 -18 -16 9 -43 l27
-28 0 43 c0 45 -6 50 -36 28z"/>
<path fill="#000000" stroke="none" d="M340 2370 c-41 -61 -78 -110 -81 -110
-4 0 -19 25 -33 55 l-25 56 -42 -46 c-23 -24 -45 -43 -49 -40 -10 6 -39 -57
-69 -155 -22 -71 -25 -94 -19 -139 5 -30 5 -66 0 -80 -5 -16 3 -82 25 -200 34
-186 115 -733 108 -739 -2 -2 -13 1 -24 8 -20 10 -21 8 -21 -37 0 -26 7 -166
15 -311 l16 -262 -71 -121 c-38 -66 -70 -123 -70 -126 0 -4 17 -33 38 -65 32
-50 41 -58 68 -58 61 0 151 45 227 116 l74 67 7 1145 c4 629 5 1146 3 1148 -2
2 -37 -46 -77 -106z"/>
<path fill="#ffffff" stroke="none" d="M226 2015 c-4 -52 -15 -109 -30 -147
l-25 -63 0 63 c-2 123 25 232 57 232 3 0 2 -38 -2 -85z"/>
</g>
</svg>
