<?xml version="1.0" standalone="no"?>
<!DOCTYPE svg PUBLIC "-//W3C//DTD SVG 20010904//EN"
 "http://www.w3.org/TR/2001/REC-SVG-20010904/DTD/svg10.dtd">
<svg version="1.0" xmlns="http://www.w3.org/2000/svg"
 width="156.000000pt" height="199.000000pt" viewBox="0 0 156.000000 199.000000"
 preserveAspectRatio="xMidYMid meet">
<metadata>
Created by potrace 1.14, written by Peter Selinger 2001-2017
</metadata>
<g transform="translate(0.000000,199.000000) scale(0.100000,-0.100000)"
fill="#000000" stroke="none">
<path fill="#000000" stroke="none" d="M847 1972 c-10 -10 -47 -36 -83 -57
-36 -21 -67 -44 -69 -49 -1 -6 -8 -28 -14 -48 -9 -26 -9 -43 -2 -57 6 -10 13
-43 16 -72 l6 -54 -48 -30 c-26 -16 -64 -38 -83 -49 -19 -10 -56 -38 -82 -61
-26 -24 -83 -64 -125 -91 -43 -26 -118 -82 -166 -123 -48 -42 -102 -80 -120
-84 -18 -5 -42 -18 -54 -30 -23 -21 -31 -47 -14 -47 5 0 12 -9 16 -19 3 -11
13 -22 21 -25 12 -4 14 -1 9 14 -5 15 -2 20 10 20 10 0 31 15 49 33 19 21 56
43 96 57 60 22 222 121 312 192 l38 29 24 -55 c14 -31 34 -89 46 -130 17 -63
19 -85 12 -153 -5 -44 -18 -97 -31 -120 -16 -32 -21 -61 -21 -120 0 -43 -5
-123 -10 -177 -9 -95 -12 -185 -7 -251 1 -19 10 -35 24 -43 20 -11 23 -21 23
-68 0 -31 7 -81 16 -112 16 -55 16 -55 -7 -73 -13 -9 -37 -20 -53 -23 -16 -4
-38 -14 -48 -23 -17 -15 -17 -17 -1 -27 11 -7 56 -10 115 -8 l96 3 -10 30
c-14 39 25 213 64 289 19 38 28 70 28 105 l1 50 14 -33 c31 -71 52 -91 102
-94 l46 -3 28 -83 c15 -45 31 -117 35 -161 3 -43 9 -83 13 -88 3 -6 25 -20 48
-31 40 -21 43 -21 87 -5 l46 17 -52 32 c-42 26 -54 40 -64 75 -11 35 -10 47 2
70 16 31 21 239 5 239 -15 0 -20 27 -11 60 6 21 5 43 -4 68 -8 21 -17 71 -20
112 -15 156 -37 264 -62 297 -13 17 -24 42 -24 55 0 13 -7 33 -15 45 -9 12
-20 60 -26 105 -5 46 -16 124 -23 173 -10 67 -11 105 -4 143 10 47 13 51 34
46 31 -8 243 63 395 132 65 30 129 54 142 54 16 0 28 9 35 25 20 44 15 52 -38
59 -41 6 -58 2 -99 -18 -27 -14 -82 -33 -122 -42 -41 -9 -90 -24 -109 -34 -31
-16 -162 -50 -189 -50 -18 0 -12 20 7 27 9 3 25 14 34 24 19 19 36 71 21 67
-5 -2 -25 12 -45 31 -35 32 -36 36 -33 90 2 31 2 46 -1 34 -4 -17 -12 -23 -32
-23 -32 1 -64 22 -60 40 5 21 -17 22 -35 2z"/>
</g>
</svg>
