<?xml version="1.0" standalone="no"?>
<!DOCTYPE svg PUBLIC "-//W3C//DTD SVG 20010904//EN"
 "http://www.w3.org/TR/2001/REC-SVG-20010904/DTD/svg10.dtd">
<svg version="1.0" xmlns="http://www.w3.org/2000/svg"
 width="26.000000pt" height="48.000000pt" viewBox="0 0 26.000000 48.000000"
 preserveAspectRatio="xMidYMid meet">
<metadata>
Created by potrace 1.14, written by Peter Selinger 2001-2017
</metadata>
<g transform="translate(0.000000,48.000000) scale(0.100000,-0.100000)"
fill="#000000" stroke="none">
<path fill="#000000" stroke="none" d="M87 441 c-16 -25 -27 -54 -27 -75 0
-22 -11 -51 -31 -80 l-30 -46 33 -62 c24 -44 45 -69 75 -87 23 -14 43 -33 43
-42 0 -32 25 -52 55 -45 l28 7 -7 107 c-5 73 -4 117 4 137 7 17 15 52 20 79
10 65 -16 111 -73 127 -21 5 -44 12 -51 15 -7 3 -24 -13 -39 -35z"/>
</g>
</svg>
