<?xml version="1.0" standalone="no"?>
<!DOCTYPE svg PUBLIC "-//W3C//DTD SVG 20010904//EN"
 "http://www.w3.org/TR/2001/REC-SVG-20010904/DTD/svg10.dtd">
<svg version="1.0" xmlns="http://www.w3.org/2000/svg"
 width="20.000000pt" height="91.000000pt" viewBox="0 0 20.000000 91.000000"
 preserveAspectRatio="xMidYMid meet">
<metadata>
Created by potrace 1.14, written by Peter Selinger 2001-2017
</metadata>
<g transform="translate(0.000000,91.000000) scale(0.100000,-0.100000)"
fill="#000000" stroke="none">
<path fill="#000000" stroke="none" d="M118 903 c-48 -7 -74 -74 -49 -121 10
-20 -11 -52 -47 -71 -17 -9 -22 -21 -22 -49 l0 -37 20 25 c26 34 33 21 16 -28
-22 -62 -36 -278 -29 -459 l6 -163 33 0 c18 0 37 6 41 14 4 7 28 16 52 19 60
8 67 17 50 69 -16 49 -16 188 0 231 23 59 9 345 -20 415 -13 30 -12 37 9 74
l22 41 -22 24 c-12 13 -24 22 -27 22 -3 -1 -18 -4 -33 -6z"/>
</g>
</svg>
