<?xml version="1.0" standalone="no"?>
<!DOCTYPE svg PUBLIC "-//W3C//DTD SVG 20010904//EN"
 "http://www.w3.org/TR/2001/REC-SVG-20010904/DTD/svg10.dtd">
<svg version="1.0" xmlns="http://www.w3.org/2000/svg"
 width="143.000000pt" height="186.000000pt" viewBox="0 0 143.000000 186.000000"
 preserveAspectRatio="xMidYMid meet">
<metadata>
Created by potrace 1.14, written by Peter Selinger 2001-2017
</metadata>
<g transform="translate(0.000000,186.000000) scale(0.100000,-0.100000)"
fill="#000000" stroke="none">
<path fill="#000000" stroke="none" d="M500 1847 c-19 -6 -56 -26 -82 -45 -39
-27 -48 -39 -48 -64 0 -45 -47 -144 -106 -224 -48 -65 -62 -77 -158 -129
l-106 -58 0 -472 c0 -366 3 -475 12 -482 7 -6 42 -18 78 -27 105 -29 106 -30
54 -148 -24 -56 -44 -109 -44 -120 0 -33 55 -45 265 -57 110 -6 216 -14 236
-17 33 -5 38 -2 58 31 26 44 22 50 -49 89 -28 15 -72 50 -98 78 -48 52 -54 76
-30 121 8 15 202 247 270 323 11 12 43 89 72 172 50 142 52 151 39 187 -7 21
-11 40 -8 43 2 3 29 -2 58 -10 53 -15 57 -15 223 23 221 50 294 70 294 78 0 4
-22 32 -49 62 l-49 54 -34 -32 -34 -33 -109 15 c-175 23 -235 33 -312 51 -96
21 -96 33 2 155 41 52 75 101 75 109 0 8 3 25 6 36 5 19 1 23 -34 29 -33 5
-41 11 -45 33 -7 34 -3 39 34 47 29 6 31 10 25 38 -9 46 -47 96 -81 107 -149
47 -253 59 -325 37z"/>
</g>
</svg>
