<?xml version="1.0" standalone="no"?>
<!DOCTYPE svg PUBLIC "-//W3C//DTD SVG 20010904//EN"
 "http://www.w3.org/TR/2001/REC-SVG-20010904/DTD/svg10.dtd">
<svg version="1.0" xmlns="http://www.w3.org/2000/svg"
 width="116.000000pt" height="302.000000pt" viewBox="0 0 116.000000 302.000000"
 preserveAspectRatio="xMidYMid meet">
<metadata>
Created by potrace 1.14, written by Peter Selinger 2001-2017
</metadata>
<g transform="translate(0.000000,302.000000) scale(0.100000,-0.100000)"
fill="#000000" stroke="none">
<path fill="#000000" stroke="none" d="M552 2993 c-57 -34 -77 -73 -63 -127 5
-22 6 -45 2 -49 -14 -14 16 -108 50 -155 46 -65 35 -81 -99 -143 -98 -46 -110
-55 -141 -102 l-34 -51 -3 -141 c-2 -93 -8 -152 -17 -175 -9 -22 -17 -92 -22
-185 -6 -148 -6 -151 23 -236 l30 -87 -33 -178 c-28 -152 -33 -211 -38 -389
-4 -154 -16 -293 -44 -520 l-38 -310 -64 -67 -63 -68 98 0 c81 0 103 4 123 19
16 13 22 25 19 39 -5 18 0 22 36 27 113 19 130 51 145 270 7 92 12 217 11 279
-2 100 2 123 34 235 20 69 36 135 36 148 0 13 14 54 31 91 l30 67 20 -38 c11
-21 31 -99 44 -173 21 -124 22 -138 8 -171 -10 -25 -12 -48 -7 -72 13 -60 4
-119 -43 -296 -41 -154 -45 -177 -39 -244 3 -41 10 -79 15 -85 6 -7 5 -27 -2
-53 -6 -23 -9 -44 -6 -46 2 -2 46 -1 97 1 88 4 92 5 90 26 -1 11 10 46 25 77
43 88 83 335 102 617 18 280 34 363 76 395 48 35 66 76 74 168 4 46 25 156 47
244 33 133 39 173 37 240 -5 128 9 225 37 255 l23 25 -41 155 c-22 85 -48 164
-57 177 -9 13 -73 63 -142 112 -69 50 -130 96 -136 103 -16 18 -18 78 -4 111
33 83 21 191 -31 262 -33 44 -33 44 -93 44 -45 -1 -71 -7 -103 -26z"/>
</g>
</svg>
