<?xml version="1.0" standalone="no"?>
<!DOCTYPE svg PUBLIC "-//W3C//DTD SVG 20010904//EN"
 "http://www.w3.org/TR/2001/REC-SVG-20010904/DTD/svg10.dtd">
<svg version="1.0" xmlns="http://www.w3.org/2000/svg"
 width="49.000000pt" height="69.000000pt" viewBox="0 0 49.000000 69.000000"
 preserveAspectRatio="xMidYMid meet">
<metadata>
Created by potrace 1.14, written by Peter Selinger 2001-2017
</metadata>
<g transform="translate(0.000000,69.000000) scale(0.100000,-0.100000)"
fill="#000000" stroke="none">
<path fill="#000000" stroke="none" d="M210 684 c-77 -12 -129 -27 -143 -42
-8 -9 -26 -53 -41 -97 -32 -100 -27 -131 29 -160 54 -28 96 -75 84 -96 -6 -12
-2 -19 18 -28 15 -7 33 -21 40 -31 7 -10 75 -67 151 -125 l137 -107 3 91 3 91
-71 104 -70 105 0 123 0 123 -49 28 c-27 15 -53 26 -57 26 -5 -1 -20 -3 -34
-5z"/>
</g>
</svg>
