<?xml version="1.0" standalone="no"?>
<!DOCTYPE svg PUBLIC "-//W3C//DTD SVG 20010904//EN"
 "http://www.w3.org/TR/2001/REC-SVG-20010904/DTD/svg10.dtd">
<svg version="1.0" xmlns="http://www.w3.org/2000/svg"
 width="13.000000pt" height="22.000000pt" viewBox="0 0 13.000000 22.000000"
 preserveAspectRatio="xMidYMid meet">
<metadata>
Created by potrace 1.14, written by Peter Selinger 2001-2017
</metadata>
<g transform="translate(0.000000,22.000000) scale(0.100000,-0.100000)"
fill="#000000" stroke="none">
<path fill="#000000" stroke="none" d="M48 186 c-22 -27 -26 -40 -21 -73 3
-27 0 -50 -12 -72 -18 -36 -14 -51 10 -31 10 8 15 9 15 1 0 -22 15 -10 32 27
10 20 27 51 38 68 19 29 19 32 3 72 -9 23 -21 42 -27 42 -6 0 -23 -15 -38 -34z"/>
</g>
</svg>
