<?xml version="1.0" standalone="no"?>
<!DOCTYPE svg PUBLIC "-//W3C//DTD SVG 20010904//EN"
 "http://www.w3.org/TR/2001/REC-SVG-20010904/DTD/svg10.dtd">
<svg version="1.0" xmlns="http://www.w3.org/2000/svg"
 width="123.000000pt" height="148.000000pt" viewBox="0 0 123.000000 148.000000"
 preserveAspectRatio="xMidYMid meet">
<metadata>
Created by potrace 1.14, written by Peter Selinger 2001-2017
</metadata>
<g transform="translate(0.000000,148.000000) scale(0.100000,-0.100000)"
fill="#000000" stroke="none">
<path fill="#000000" stroke="none" d="M745 1460 c-44 -10 -107 -29 -140 -43
-59 -24 -61 -26 -107 -113 -32 -61 -55 -123 -72 -194 -39 -163 -40 -184 -16
-285 28 -119 22 -163 -32 -221 -27 -29 -52 -46 -75 -50 l-36 -7 6 -85 c5 -69
3 -90 -11 -114 -17 -30 -22 -31 -71 -22 -27 6 -31 11 -31 38 0 17 7 56 15 86
8 30 13 56 11 57 -2 2 -17 -4 -34 -14 -40 -23 -92 -111 -92 -157 0 -22 -11
-54 -30 -84 -28 -46 -30 -55 -30 -151 l0 -101 28 0 c55 0 262 31 702 105 245
42 457 78 473 81 l27 6 0 96 0 97 -86 140 -87 140 26 105 c50 198 51 226 10
380 -31 116 -43 145 -86 206 -44 64 -56 75 -111 98 -33 14 -63 25 -66 25 -3
-1 -41 -10 -85 -19z"/>
</g>
</svg>
