<?xml version="1.0" standalone="no"?>
<!DOCTYPE svg PUBLIC "-//W3C//DTD SVG 20010904//EN"
 "http://www.w3.org/TR/2001/REC-SVG-20010904/DTD/svg10.dtd">
<svg version="1.0" xmlns="http://www.w3.org/2000/svg"
 width="63.000000pt" height="204.000000pt" viewBox="0 0 63.000000 204.000000"
 preserveAspectRatio="xMidYMid meet">
<metadata>
Created by potrace 1.14, written by Peter Selinger 2001-2017
</metadata>
<g transform="translate(0.000000,204.000000) scale(0.100000,-0.100000)"
fill="#000000" stroke="none">
<path fill="#000000" stroke="none" d="M124 2026 c-18 -8 -36 -20 -40 -28 -5
-7 -26 -21 -46 -30 l-37 -17 16 -45 c12 -31 24 -46 37 -48 31 -5 41 -74 15
-110 -10 -15 -22 -52 -25 -82 -6 -50 -4 -59 19 -89 36 -47 67 -199 67 -329 0
-98 1 -103 27 -131 l28 -28 -49 -91 -48 -90 20 -27 c12 -16 28 -25 41 -24 21
3 21 -1 21 -155 1 -86 6 -197 13 -247 15 -103 7 -148 -32 -189 -17 -18 -35
-26 -57 -26 -30 0 -32 -2 -36 -41 -3 -35 0 -43 23 -60 32 -23 58 -24 102 -5
30 12 34 19 46 81 6 38 18 80 26 94 7 15 16 48 20 75 l8 48 60 -114 c33 -62
75 -132 95 -156 l34 -43 -25 -27 c-37 -40 -43 -68 -16 -82 17 -9 39 -7 109 10
l88 22 -44 91 c-24 50 -53 101 -65 113 -13 14 -19 32 -17 50 2 21 -20 75 -76
186 l-79 157 13 76 c7 42 19 82 26 89 6 7 62 28 123 46 l111 34 0 78 c0 69 -4
85 -29 130 l-29 51 21 29 22 29 -27 52 -27 52 11 144 c14 192 12 198 -102 302
l-90 82 26 44 26 45 -24 25 c-12 14 -47 40 -76 59 -44 29 -61 34 -110 34 -31
-1 -71 -7 -88 -14z"/>
</g>
</svg>
