<?xml version="1.0" standalone="no"?>
<!DOCTYPE svg PUBLIC "-//W3C//DTD SVG 20010904//EN"
 "http://www.w3.org/TR/2001/REC-SVG-20010904/DTD/svg10.dtd">
<svg version="1.0" xmlns="http://www.w3.org/2000/svg"
 width="378.000000pt" height="134.000000pt" viewBox="0 0 378.000000 134.000000"
 preserveAspectRatio="xMidYMid meet">
<metadata>
Created by potrace 1.14, written by Peter Selinger 2001-2017
</metadata>
<g transform="translate(0.000000,134.000000) scale(0.100000,-0.100000)"
fill="#000000" stroke="none">
<path fill="#000000" stroke="none" d="M7 1321 c7 -28 117 -138 145 -146 12
-3 33 -11 45 -17 12 -6 40 -8 67 -4 78 12 101 75 45 127 -54 50 -83 59 -200
59 -101 0 -107 -1 -102 -19z"/>
<path fill="#000000" stroke="none" d="M445 1330 c-39 -15 -46 -34 -39 -104 5
-53 12 -71 30 -85 13 -11 24 -25 24 -33 0 -40 66 -61 106 -34 16 11 30 12 70
4 27 -6 56 -16 64 -22 27 -21 64 -34 113 -40 55 -7 112 -34 146 -70 19 -20 52
-35 91 -41 3 0 11 -4 17 -8 21 -13 123 -27 244 -34 114 -6 116 -5 132 18 21
29 21 58 1 87 -12 17 -25 22 -62 22 -68 1 -85 17 -77 74 6 40 4 48 -18 70 -23
23 -34 26 -97 26 -68 0 -70 1 -60 20 13 25 4 106 -16 138 -25 40 -125 24 -149
-24 -5 -11 -22 -34 -36 -52 l-25 -33 -137 0 c-104 0 -144 4 -165 15 -15 9 -35
18 -44 22 -10 3 -18 14 -18 24 0 41 -56 76 -95 60z"/>
<path fill="#000000" stroke="none" d="M1950 1325 c16 -19 57 -19 90 0 24 14
22 14 -39 15 -55 0 -62 -2 -51 -15z"/>
<path fill="#000000" stroke="none" d="M2480 1325 c7 -8 29 -15 50 -15 21 0
43 7 50 15 11 13 4 15 -50 15 -54 0 -61 -2 -50 -15z"/>
<path fill="#000000" stroke="none" d="M2644 1308 c7 -37 42 -78 66 -78 9 0
20 -4 25 -9 24 -22 88 -51 115 -51 45 0 62 33 54 108 l-7 62 -130 0 -129 0 6
-32z"/>
<path fill="#000000" stroke="none" d="M2990 1317 c0 -32 30 -57 67 -57 23 0
39 9 62 35 17 20 31 38 31 40 0 3 -36 5 -80 5 -77 0 -80 -1 -80 -23z"/>
<path fill="#000000" stroke="none" d="M1650 1202 c-49 -15 -66 -74 -32 -105
17 -16 21 -16 60 0 48 18 60 44 38 77 -16 25 -42 36 -66 28z"/>
<path fill="#000000" stroke="none" d="M2350 947 c-38 -20 -47 -43 -28 -74 23
-38 40 -47 72 -39 36 9 53 52 34 85 -17 31 -49 42 -78 28z"/>
<path fill="#000000" stroke="none" d="M3277 672 c-10 -10 -17 -30 -17 -45 0
-15 -13 -41 -30 -60 -37 -42 -38 -76 -5 -107 14 -13 25 -31 25 -41 0 -9 7 -22
15 -29 12 -10 32 -92 27 -112 -1 -5 14 -8 33 -8 27 0 35 4 35 18 0 28 35 55
60 47 19 -6 21 -4 15 17 -4 12 -14 36 -22 51 -8 16 -12 35 -9 43 3 8 0 24 -6
34 -10 15 -10 22 -1 31 8 8 9 19 2 36 -6 15 -5 31 1 43 16 29 12 49 -15 75
-30 31 -84 34 -108 7z"/>
<path fill="#000000" stroke="none" d="M3526 337 c-23 -29 -26 -44 -26 -109 0
-57 4 -77 15 -81 12 -5 65 -95 65 -112 0 -3 -10 -5 -22 -5 -17 0 -19 -3 -10
-12 7 -7 57 -13 122 -16 l110 -5 0 162 0 161 -36 15 c-20 8 -49 15 -65 15 -15
0 -31 5 -34 10 -3 6 -26 10 -50 10 -38 0 -47 -4 -69 -33z"/>
<path fill="#ffffff" stroke="none" d="M3714 135 c6 -16 -20 -20 -61 -9 -36
10 -27 24 16 24 25 0 41 -5 45 -15z"/>
</g>
</svg>
