<?xml version="1.0" standalone="no"?>
<!DOCTYPE svg PUBLIC "-//W3C//DTD SVG 20010904//EN"
 "http://www.w3.org/TR/2001/REC-SVG-20010904/DTD/svg10.dtd">
<svg version="1.0" xmlns="http://www.w3.org/2000/svg"
 width="33.000000pt" height="46.000000pt" viewBox="0 0 33.000000 46.000000"
 preserveAspectRatio="xMidYMid meet">
<metadata>
Created by potrace 1.14, written by Peter Selinger 2001-2017
</metadata>
<g transform="translate(0.000000,46.000000) scale(0.100000,-0.100000)"
fill="#000000" stroke="none">
<path fill="#000000" stroke="none" d="M199 406 c-21 -48 -31 -59 -80 -86 -31
-16 -61 -35 -67 -42 -11 -15 -37 -132 -48 -222 l-7 -60 34 23 c19 12 44 27 57
33 12 6 22 18 22 26 0 10 9 13 32 9 48 -7 72 6 104 57 16 25 42 51 57 57 23
10 27 16 22 33 -4 12 -15 51 -26 88 -21 78 -30 96 -57 121 -19 17 -20 16 -43
-37z"/>
</g>
</svg>
