<?xml version="1.0" standalone="no"?>
<!DOCTYPE svg PUBLIC "-//W3C//DTD SVG 20010904//EN"
 "http://www.w3.org/TR/2001/REC-SVG-20010904/DTD/svg10.dtd">
<svg version="1.0" xmlns="http://www.w3.org/2000/svg"
 width="169.000000pt" height="254.000000pt" viewBox="0 0 169.000000 254.000000"
 preserveAspectRatio="xMidYMid meet">
<metadata>
Created by potrace 1.14, written by Peter Selinger 2001-2017
</metadata>
<g transform="translate(0.000000,254.000000) scale(0.100000,-0.100000)"
fill="#000000" stroke="none">
<path fill="#000000" stroke="none" d="M37 2493 c-31 -37 -35 -48 -26 -60 21
-24 71 -40 144 -45 81 -6 105 -18 130 -65 28 -52 40 -58 70 -35 14 12 49 28
77 38 47 15 50 18 33 30 -10 8 -59 30 -108 51 -64 27 -96 46 -116 71 -34 44
-70 62 -123 61 -38 0 -47 -5 -81 -46z"/>
<path fill="#000000" stroke="none" d="M540 2283 c0 -5 -18 -32 -40 -61 -22
-29 -40 -54 -40 -56 0 -2 24 -18 53 -34 79 -46 108 -77 101 -110 -5 -22 -1
-30 18 -40 13 -7 36 -28 50 -46 l26 -33 -45 -64 c-24 -35 -67 -109 -95 -164
-28 -55 -72 -132 -99 -172 -43 -63 -48 -75 -39 -98 8 -20 7 -30 -4 -41 -28
-27 -49 -157 -44 -272 4 -94 9 -115 36 -174 l32 -68 -1 -227 c0 -126 -4 -250
-8 -278 -5 -29 -5 -60 1 -74 7 -20 4 -30 -22 -57 -21 -21 -28 -34 -20 -39 6
-4 9 -18 5 -35 -4 -20 -2 -29 9 -33 23 -9 20 -27 -10 -58 l-25 -26 23 -6 c55
-13 120 -19 152 -13 29 6 36 12 41 39 4 18 18 52 33 76 22 39 24 50 15 83 -9
32 -7 40 10 55 17 16 19 27 14 98 -3 44 -2 103 2 132 4 28 4 60 0 71 -5 13 2
42 18 82 17 44 23 72 19 95 -4 21 0 46 14 76 11 24 20 64 20 88 0 53 34 114
59 107 9 -3 75 -19 146 -36 154 -36 282 -77 292 -93 4 -6 6 -64 6 -129 -1
-112 -3 -120 -27 -149 -14 -17 -26 -41 -26 -54 0 -29 60 -92 95 -101 41 -10
132 6 160 28 24 18 24 21 9 33 -16 11 -16 17 1 96 22 98 29 345 13 398 -24 77
-60 120 -148 176 -89 56 -151 86 -235 115 -27 9 -51 24 -53 32 -1 8 12 33 30
57 57 74 77 102 80 113 7 19 54 0 66 -27 7 -16 20 -25 34 -25 48 0 69 -14 126
-84 38 -45 81 -83 118 -105 33 -19 68 -42 79 -52 26 -22 106 -34 116 -18 13
22 -30 89 -130 198 -166 182 -215 257 -223 337 -3 36 0 40 40 62 69 39 76 56
62 157 -12 83 -14 87 -54 119 -57 46 -79 56 -123 56 -59 0 -185 -29 -213 -49
-14 -9 -30 -20 -36 -24 -6 -4 -38 12 -70 35 -33 23 -111 66 -174 96 -63 30
-136 70 -161 89 -48 34 -59 39 -59 26z"/>
</g>
</svg>
