<?xml version="1.0" standalone="no"?>
<!DOCTYPE svg PUBLIC "-//W3C//DTD SVG 20010904//EN"
 "http://www.w3.org/TR/2001/REC-SVG-20010904/DTD/svg10.dtd">
<svg version="1.0" xmlns="http://www.w3.org/2000/svg"
 width="16.000000pt" height="61.000000pt" viewBox="0 0 16.000000 61.000000"
 preserveAspectRatio="xMidYMid meet">
<metadata>
Created by potrace 1.14, written by Peter Selinger 2001-2017
</metadata>
<g transform="translate(0.000000,61.000000) scale(0.100000,-0.100000)"
fill="#000000" stroke="none">
<path fill="#000000" stroke="none" d="M76 594 c-3 -9 -6 -26 -6 -39 0 -14 -7
-26 -18 -29 -43 -14 -63 -113 -42 -201 23 -90 40 -204 40 -263 0 -60 1 -62 21
-52 19 10 20 18 15 68 -10 95 -10 105 -2 171 8 61 8 63 -13 56 -36 -11 -43 4
-17 38 29 39 91 162 100 199 5 22 1 29 -28 47 -40 25 -42 25 -50 5z"/>
</g>
</svg>
