<?xml version="1.0" standalone="no"?>
<!DOCTYPE svg PUBLIC "-//W3C//DTD SVG 20010904//EN"
 "http://www.w3.org/TR/2001/REC-SVG-20010904/DTD/svg10.dtd">
<svg version="1.0" xmlns="http://www.w3.org/2000/svg"
 width="9.000000pt" height="21.000000pt" viewBox="0 0 9.000000 21.000000"
 preserveAspectRatio="xMidYMid meet">
<metadata>
Created by potrace 1.14, written by Peter Selinger 2001-2017
</metadata>
<g transform="translate(0.000000,21.000000) scale(0.100000,-0.100000)"
fill="#000000" stroke="none">
<path fill="#000000" stroke="none" d="M30 193 c0 -9 -8 -25 -17 -35 -14 -16
-15 -23 -5 -38 7 -11 12 -29 12 -40 0 -15 7 -20 25 -20 21 0 25 -5 25 -30 0
-17 5 -30 11 -30 8 0 9 15 3 48 -4 26 -8 58 -8 72 -2 52 -46 122 -46 73z"/>
</g>
</svg>
