<?xml version="1.0" standalone="no"?>
<!DOCTYPE svg PUBLIC "-//W3C//DTD SVG 20010904//EN"
 "http://www.w3.org/TR/2001/REC-SVG-20010904/DTD/svg10.dtd">
<svg version="1.0" xmlns="http://www.w3.org/2000/svg"
 width="15.000000pt" height="68.000000pt" viewBox="0 0 15.000000 68.000000"
 preserveAspectRatio="xMidYMid meet">
<metadata>
Created by potrace 1.14, written by Peter Selinger 2001-2017
</metadata>
<g transform="translate(0.000000,68.000000) scale(0.100000,-0.100000)"
fill="#000000" stroke="none">
<path fill="#000000" stroke="none" d="M43 673 c-8 -2 -13 -22 -13 -45 0 -27
-6 -45 -17 -53 -16 -12 -15 -17 5 -86 19 -67 20 -79 9 -129 -11 -45 -10 -69 0
-130 8 -41 15 -110 16 -153 l2 -79 29 6 c15 3 40 6 53 6 l25 0 -7 93 c-4 50
-18 145 -33 209 l-26 117 22 103 c26 124 22 148 -22 147 -17 0 -37 -3 -43 -6z"/>
</g>
</svg>
