<?xml version="1.0" standalone="no"?>
<!DOCTYPE svg PUBLIC "-//W3C//DTD SVG 20010904//EN"
 "http://www.w3.org/TR/2001/REC-SVG-20010904/DTD/svg10.dtd">
<svg version="1.0" xmlns="http://www.w3.org/2000/svg"
 width="22.000000pt" height="22.000000pt" viewBox="0 0 22.000000 22.000000"
 preserveAspectRatio="xMidYMid meet">
<metadata>
Created by potrace 1.14, written by Peter Selinger 2001-2017
</metadata>
<g transform="translate(0.000000,22.000000) scale(0.100000,-0.100000)"
fill="#000000" stroke="none">
<path fill="#000000" stroke="none" d="M75 203 c-12 -11 -16 -28 -13 -55 3
-30 0 -38 -12 -38 -9 0 -24 -6 -35 -13 -14 -11 -16 -21 -11 -50 6 -32 11 -37
35 -37 25 0 29 4 35 38 3 20 6 49 6 65 0 22 5 27 24 27 23 0 23 -2 18 -70 -4
-67 -4 -70 18 -70 16 0 20 4 16 15 -4 11 2 15 28 15 30 0 32 2 28 29 -3 22
-11 31 -35 38 -30 9 -32 12 -29 52 4 65 -34 94 -73 54z"/>
</g>
</svg>
