<?xml version="1.0" standalone="no"?>
<!DOCTYPE svg PUBLIC "-//W3C//DTD SVG 20010904//EN"
 "http://www.w3.org/TR/2001/REC-SVG-20010904/DTD/svg10.dtd">
<svg version="1.0" xmlns="http://www.w3.org/2000/svg"
 width="34.000000pt" height="91.000000pt" viewBox="0 0 34.000000 91.000000"
 preserveAspectRatio="xMidYMid meet">
<metadata>
Created by potrace 1.14, written by Peter Selinger 2001-2017
</metadata>
<g transform="translate(0.000000,91.000000) scale(0.100000,-0.100000)"
fill="#000000" stroke="none">
<path fill="#000000" stroke="none" d="M150 869 c0 -22 5 -49 10 -59 8 -16 6
-22 -14 -35 -13 -9 -36 -34 -52 -56 -27 -39 -28 -44 -28 -177 -1 -98 -5 -146
-16 -169 -12 -27 -12 -40 -2 -78 7 -25 12 -78 12 -118 0 -64 -4 -79 -30 -120
-17 -26 -30 -50 -30 -52 0 -3 17 -5 38 -5 51 0 76 23 102 93 12 31 25 57 30
57 13 0 30 -59 30 -106 0 -43 1 -44 33 -44 58 0 62 9 60 114 -2 92 -2 94 22
100 35 9 32 33 -17 140 -44 95 -47 117 -39 256 2 30 0 70 -4 88 -6 26 -4 32 9
32 48 0 74 117 35 159 -16 17 -32 21 -84 21 l-65 0 0 -41z"/>
</g>
</svg>
