<?xml version="1.0" standalone="no"?>
<!DOCTYPE svg PUBLIC "-//W3C//DTD SVG 20010904//EN"
 "http://www.w3.org/TR/2001/REC-SVG-20010904/DTD/svg10.dtd">
<svg version="1.0" xmlns="http://www.w3.org/2000/svg"
 width="132.000000pt" height="330.000000pt" viewBox="0 0 132.000000 330.000000"
 preserveAspectRatio="xMidYMid meet">
<metadata>
Created by potrace 1.14, written by Peter Selinger 2001-2017
</metadata>
<g transform="translate(0.000000,330.000000) scale(0.100000,-0.100000)"
fill="#000000" stroke="none">
<path fill="#000000" stroke="none" d="M0 3075 c1 -405 38 -3067 43 -3072 16
-15 71 13 107 55 l41 46 67 -19 c41 -12 108 -21 172 -23 99 -3 115 -1 289 45
l183 48 58 66 c31 37 74 97 95 135 l38 68 -13 121 c-19 169 -17 178 42 267
l50 78 -26 107 c-15 60 -37 164 -49 233 l-23 125 90 185 c52 107 103 200 123
221 l33 35 -92 28 c-51 15 -125 41 -164 58 -78 32 -84 41 -84 127 0 20 -13 95
-28 166 l-28 130 37 475 c20 261 34 477 32 480 -2 2 -178 10 -391 17 -213 6
-435 13 -494 15 l-108 3 0 -220z"/>
</g>
</svg>
