<?xml version="1.0" standalone="no"?>
<!DOCTYPE svg PUBLIC "-//W3C//DTD SVG 20010904//EN"
 "http://www.w3.org/TR/2001/REC-SVG-20010904/DTD/svg10.dtd">
<svg version="1.0" xmlns="http://www.w3.org/2000/svg"
 width="53.000000pt" height="194.000000pt" viewBox="0 0 53.000000 194.000000"
 preserveAspectRatio="xMidYMid meet">
<metadata>
Created by potrace 1.14, written by Peter Selinger 2001-2017
</metadata>
<g transform="translate(0.000000,194.000000) scale(0.100000,-0.100000)"
fill="#000000" stroke="none">
<path fill="#000000" stroke="none" d="M259 1929 c-46 -17 -73 -82 -77 -189
-4 -93 -5 -96 -41 -135 -102 -112 -96 -96 -125 -318 -14 -106 -14 -110 10
-190 13 -45 27 -120 31 -167 4 -57 15 -103 31 -140 32 -72 39 -160 19 -247
-10 -45 -17 -140 -21 -280 l-5 -212 57 -21 c66 -25 141 -35 161 -22 10 7 11
14 2 31 -11 19 -9 21 16 21 15 -1 39 -7 53 -15 14 -8 44 -14 67 -15 37 0 43 3
49 25 6 25 5 27 -60 109 -26 33 -32 54 -49 174 -11 75 -20 157 -20 182 0 63
65 226 106 262 l30 27 -7 236 -7 236 25 20 25 20 -19 42 c-11 23 -20 53 -20
66 0 37 -48 162 -76 199 l-26 33 21 66 c12 37 21 75 21 85 0 11 7 18 19 18 50
0 33 36 -38 82 -47 29 -101 36 -152 17z"/>
</g>
</svg>
