<?xml version="1.0" standalone="no"?>
<!DOCTYPE svg PUBLIC "-//W3C//DTD SVG 20010904//EN"
 "http://www.w3.org/TR/2001/REC-SVG-20010904/DTD/svg10.dtd">
<svg version="1.0" xmlns="http://www.w3.org/2000/svg"
 width="52.000000pt" height="85.000000pt" viewBox="0 0 52.000000 85.000000"
 preserveAspectRatio="xMidYMid meet">
<metadata>
Created by potrace 1.14, written by Peter Selinger 2001-2017
</metadata>
<g transform="translate(0.000000,85.000000) scale(0.100000,-0.100000)"
fill="#000000" stroke="none">
<path fill="#000000" stroke="none" d="M375 842 c-46 -9 -70 -62 -46 -101 6
-9 1 -20 -16 -35 -21 -19 -27 -37 -39 -126 -18 -142 -18 -200 1 -200 8 0 21
-10 29 -23 22 -32 13 -293 -10 -318 -14 -16 -14 -18 4 -23 11 -4 31 -1 46 5
26 12 26 13 27 133 0 67 4 130 9 141 10 24 13 -23 10 -167 l-2 -97 37 -15 c21
-9 39 -16 41 -16 11 0 1 41 -15 61 -14 18 -17 30 -10 53 5 17 9 62 9 101 0 90
14 139 45 159 25 16 26 21 24 114 -1 135 -21 212 -61 235 -25 14 -29 22 -24
42 14 55 -11 87 -59 77z"/>
<path fill="#000000" stroke="none" d="M1 615 c0 -48 3 -64 9 -50 12 27 12 87
0 105 -7 10 -10 -6 -9 -55z"/>
</g>
</svg>
