<?xml version="1.0" standalone="no"?>
<!DOCTYPE svg PUBLIC "-//W3C//DTD SVG 20010904//EN"
 "http://www.w3.org/TR/2001/REC-SVG-20010904/DTD/svg10.dtd">
<svg version="1.0" xmlns="http://www.w3.org/2000/svg"
 width="48.000000pt" height="37.000000pt" viewBox="0 0 48.000000 37.000000"
 preserveAspectRatio="xMidYMid meet">
<metadata>
Created by potrace 1.14, written by Peter Selinger 2001-2017
</metadata>
<g transform="translate(0.000000,37.000000) scale(0.100000,-0.100000)"
fill="#000000" stroke="none">
<path fill="#000000" stroke="none" d="M415 361 c-71 -18 -203 -101 -307 -195
-37 -34 -68 -68 -68 -78 0 -11 -6 -15 -19 -11 -15 4 -18 0 -14 -21 10 -51 26
-55 168 -48 l130 7 3 58 c3 51 6 59 31 71 33 18 121 145 131 192 9 37 4 39
-55 25z"/>
</g>
</svg>
