<?xml version="1.0" standalone="no"?>
<!DOCTYPE svg PUBLIC "-//W3C//DTD SVG 20010904//EN"
 "http://www.w3.org/TR/2001/REC-SVG-20010904/DTD/svg10.dtd">
<svg version="1.0" xmlns="http://www.w3.org/2000/svg"
 width="42.000000pt" height="45.000000pt" viewBox="0 0 42.000000 45.000000"
 preserveAspectRatio="xMidYMid meet">
<metadata>
Created by potrace 1.14, written by Peter Selinger 2001-2017
</metadata>
<g transform="translate(0.000000,45.000000) scale(0.100000,-0.100000)"
fill="#000000" stroke="none">
<path fill="#000000" stroke="none" d="M139 378 c-39 -54 -64 -104 -96 -192
-23 -66 -42 -121 -40 -122 1 -1 78 -14 172 -28 94 -14 180 -28 192 -31 18 -4
24 2 37 42 17 51 19 85 10 157 -6 41 -12 51 -49 76 -31 22 -52 48 -77 97 -29
60 -37 68 -64 71 -29 3 -36 -3 -85 -70z"/>
</g>
</svg>
