<?xml version="1.0" standalone="no"?>
<!DOCTYPE svg PUBLIC "-//W3C//DTD SVG 20010904//EN"
 "http://www.w3.org/TR/2001/REC-SVG-20010904/DTD/svg10.dtd">
<svg version="1.0" xmlns="http://www.w3.org/2000/svg"
 width="377.000000pt" height="555.000000pt" viewBox="0 0 377.000000 555.000000"
 preserveAspectRatio="xMidYMid meet">
<metadata>
Created by potrace 1.14, written by Peter Selinger 2001-2017
</metadata>
<g transform="translate(0.000000,555.000000) scale(0.100000,-0.100000)"
fill="#000000" stroke="none">
<path fill="#000000" stroke="none" d="M2165 5541 c-75 -5 -99 -11 -144 -36
-53 -29 -56 -32 -109 -150 -29 -66 -65 -165 -78 -220 -21 -87 -36 -119 -110
-244 l-86 -143 58 -136 58 -135 -38 -71 c-27 -52 -46 -113 -71 -224 l-35 -152
29 -73 29 -72 118 -28 c66 -15 198 -36 294 -47 96 -11 204 -26 240 -33 43 -8
80 -10 108 -4 24 5 46 7 48 4 2 -2 10 -52 16 -111 l12 -108 28 4 c16 3 25 2
21 -2 -4 -4 -214 -166 -466 -360 l-459 -352 -781 94 -782 93 -3 158 -3 157
-29 0 -30 0 0 -1574 0 -1574 50 -36 51 -37 85 15 c74 13 100 24 183 74 87 53
108 61 221 85 69 15 139 31 155 35 27 8 39 2 120 -59 50 -37 145 -94 211 -128
67 -33 156 -80 198 -105 l76 -45 83 53 c45 29 90 67 99 83 10 17 73 106 141
199 97 132 129 186 152 247 18 50 36 82 49 89 12 6 25 17 29 25 5 8 16 11 28
8 13 -5 17 -2 14 8 -4 10 15 20 72 36 43 13 173 63 288 111 l210 89 135 7 c74
3 149 10 165 15 17 5 93 19 170 33 240 41 216 24 473 330 205 245 225 272 267
365 25 56 45 107 45 113 0 7 -66 132 -146 277 -129 233 -157 278 -233 363 -81
91 -89 103 -111 180 -13 46 -24 92 -25 104 0 21 -84 184 -94 184 -3 0 -67
-111 -141 -247 l-135 -246 -5 -196 -5 -195 -280 -182 -280 -183 -395 -149
c-217 -82 -405 -152 -417 -156 -35 -11 -53 46 -70 219 l-14 150 123 308 123
308 103 122 104 122 271 126 272 125 5 155 c5 141 7 157 28 187 13 17 27 32
31 32 4 0 45 -12 92 -26 67 -20 96 -24 146 -19 57 5 67 3 143 -34 44 -22 131
-79 191 -126 61 -48 116 -84 122 -81 7 3 88 52 181 108 l170 104 28 68 c23 57
27 77 21 126 l-6 57 -81 41 c-44 22 -101 48 -126 58 -25 9 -119 59 -210 110
-91 51 -205 107 -255 125 -49 17 -95 35 -101 40 -6 5 -16 26 -22 47 -18 59 5
127 70 209 30 37 82 109 116 158 l62 90 -14 380 c-10 249 -20 408 -30 461 -23
117 -69 195 -154 260 -207 157 -322 186 -657 165z"/>
</g>
</svg>
