<?xml version="1.0" standalone="no"?>
<!DOCTYPE svg PUBLIC "-//W3C//DTD SVG 20010904//EN"
 "http://www.w3.org/TR/2001/REC-SVG-20010904/DTD/svg10.dtd">
<svg version="1.0" xmlns="http://www.w3.org/2000/svg"
 width="25.000000pt" height="14.000000pt" viewBox="0 0 25.000000 14.000000"
 preserveAspectRatio="xMidYMid meet">
<metadata>
Created by potrace 1.14, written by Peter Selinger 2001-2017
</metadata>
<g transform="translate(0.000000,14.000000) scale(0.100000,-0.100000)"
fill="#000000" stroke="none">
<path fill="#000000" stroke="none" d="M97 133 c-4 -3 -7 -17 -7 -30 0 -18 -9
-28 -33 -38 -19 -8 -40 -21 -47 -30 -12 -14 -4 -15 85 -10 79 4 104 2 123 -11
13 -9 25 -14 28 -12 8 8 -29 50 -52 58 -16 6 -24 17 -24 33 0 13 -5 28 -12 35
-13 13 -50 16 -61 5z"/>
</g>
</svg>
