<?xml version="1.0" standalone="no"?>
<!DOCTYPE svg PUBLIC "-//W3C//DTD SVG 20010904//EN"
 "http://www.w3.org/TR/2001/REC-SVG-20010904/DTD/svg10.dtd">
<svg version="1.0" xmlns="http://www.w3.org/2000/svg"
 width="84.000000pt" height="116.000000pt" viewBox="0 0 84.000000 116.000000"
 preserveAspectRatio="xMidYMid meet">
<metadata>
Created by potrace 1.14, written by Peter Selinger 2001-2017
</metadata>
<g transform="translate(0.000000,116.000000) scale(0.100000,-0.100000)"
fill="#000000" stroke="none">
<path fill="#000000" stroke="none" d="M556 1105 c-9 -31 -28 -122 -41 -203
-21 -134 -28 -158 -82 -274 -32 -70 -60 -128 -63 -128 -3 0 -32 63 -65 140
-33 77 -64 140 -68 140 -5 0 -43 -26 -85 -59 -72 -54 -79 -63 -100 -125 l-24
-66 37 -110 37 -111 -50 -65 -50 -65 29 -67 c16 -37 29 -77 29 -90 0 -20 4
-22 33 -18 17 3 115 13 217 22 102 9 220 24 262 34 l78 17 21 -33 c11 -19 24
-34 27 -34 4 0 37 18 75 38 l67 39 -34 44 c-28 38 -44 48 -95 64 l-61 18 -19
62 c-18 62 -18 62 10 281 16 120 34 262 42 314 12 91 11 99 -11 180 -28 99
-35 110 -71 110 -24 0 -29 -6 -45 -55z"/>
</g>
</svg>
