<?xml version="1.0" standalone="no"?>
<!DOCTYPE svg PUBLIC "-//W3C//DTD SVG 20010904//EN"
 "http://www.w3.org/TR/2001/REC-SVG-20010904/DTD/svg10.dtd">
<svg version="1.0" xmlns="http://www.w3.org/2000/svg"
 width="80.000000pt" height="161.000000pt" viewBox="0 0 80.000000 161.000000"
 preserveAspectRatio="xMidYMid meet">
<metadata>
Created by potrace 1.14, written by Peter Selinger 2001-2017
</metadata>
<g transform="translate(0.000000,161.000000) scale(0.100000,-0.100000)"
fill="#000000" stroke="none">
<path fill="#000000" stroke="none" d="M485 1591 c-16 -10 -45 -34 -64 -54
-29 -31 -34 -44 -38 -100 l-6 -65 43 -41 44 -41 -26 -28 c-13 -15 -69 -78
-123 -140 l-98 -113 23 -142 c13 -78 26 -146 30 -152 11 -14 14 -47 7 -65 -3
-8 -7 -76 -10 -151 l-3 -135 -54 -88 c-65 -108 -113 -155 -157 -156 -33 0 -64
-34 -46 -50 10 -10 175 -60 196 -60 17 0 60 46 137 148 l55 72 18 -57 c9 -32
16 -71 15 -88 -3 -26 -7 -30 -38 -34 -32 -3 -29 -5 38 -25 40 -12 89 -20 108
-18 35 4 35 5 29 46 -2 22 -12 130 -21 239 l-16 198 43 94 43 94 25 -35 c13
-18 27 -34 31 -34 3 0 20 30 38 68 22 46 41 116 62 224 16 87 30 165 30 174 0
9 -28 78 -62 154 -62 136 -63 138 -99 144 l-36 6 -5 65 c-5 56 -11 72 -44 115
-21 27 -38 50 -39 50 0 0 -13 -9 -30 -19z"/>
</g>
</svg>
