<?xml version="1.0" standalone="no"?>
<!DOCTYPE svg PUBLIC "-//W3C//DTD SVG 20010904//EN"
 "http://www.w3.org/TR/2001/REC-SVG-20010904/DTD/svg10.dtd">
<svg version="1.0" xmlns="http://www.w3.org/2000/svg"
 width="45.000000pt" height="96.000000pt" viewBox="0 0 45.000000 96.000000"
 preserveAspectRatio="xMidYMid meet">
<metadata>
Created by potrace 1.14, written by Peter Selinger 2001-2017
</metadata>
<g transform="translate(0.000000,96.000000) scale(0.100000,-0.100000)"
fill="#000000" stroke="none">
<path fill="#000000" stroke="none" d="M297 948 c-21 -8 -35 -25 -56 -71 -16
-34 -51 -90 -80 -125 -45 -56 -51 -69 -51 -110 0 -26 -7 -57 -15 -69 -14 -20
-14 -28 6 -85 19 -57 20 -70 10 -133 -7 -38 -25 -106 -41 -150 -16 -44 -37
-108 -48 -143 l-20 -62 36 0 c20 0 56 8 79 18 37 15 43 21 43 47 0 48 69 215
88 215 51 -1 77 -69 54 -141 -9 -28 -12 -60 -8 -82 l7 -35 72 -4 c40 -2 74 -2
76 -1 9 6 -21 299 -34 323 -10 19 -11 37 -5 64 4 21 4 81 -2 139 -5 56 -11
131 -13 167 -12 211 -15 228 -43 238 -17 5 -38 5 -55 0z"/>
</g>
</svg>
