<?xml version="1.0" standalone="no"?>
<!DOCTYPE svg PUBLIC "-//W3C//DTD SVG 20010904//EN"
 "http://www.w3.org/TR/2001/REC-SVG-20010904/DTD/svg10.dtd">
<svg version="1.0" xmlns="http://www.w3.org/2000/svg"
 width="47.000000pt" height="31.000000pt" viewBox="0 0 47.000000 31.000000"
 preserveAspectRatio="xMidYMid meet">
<metadata>
Created by potrace 1.14, written by Peter Selinger 2001-2017
</metadata>
<g transform="translate(0.000000,31.000000) scale(0.100000,-0.100000)"
fill="#000000" stroke="none">
<path fill="#000000" stroke="none" d="M10 208 c-7 -54 -10 -108 -6 -120 5
-22 100 -85 121 -81 6 1 55 15 110 31 l100 29 5 43 5 44 57 11 c32 6 59 13 62
16 2 2 -5 27 -16 56 -19 49 -23 52 -62 57 -22 3 -114 7 -202 8 l-161 3 -13
-97z"/>
</g>
</svg>
