<?xml version="1.0" standalone="no"?>
<!DOCTYPE svg PUBLIC "-//W3C//DTD SVG 20010904//EN"
 "http://www.w3.org/TR/2001/REC-SVG-20010904/DTD/svg10.dtd">
<svg version="1.0" xmlns="http://www.w3.org/2000/svg"
 width="40.000000pt" height="8.000000pt" viewBox="0 0 40.000000 8.000000"
 preserveAspectRatio="xMidYMid meet">
<metadata>
Created by potrace 1.14, written by Peter Selinger 2001-2017
</metadata>
<g transform="translate(0.000000,8.000000) scale(0.100000,-0.100000)"
fill="#000000" stroke="none">
<path fill="#000000" stroke="none" d="M7 58 c-4 -12 -5 -23 -4 -24 1 -1 30
-4 65 -5 52 -2 65 1 77 17 8 10 15 22 15 27 0 4 -33 7 -74 7 -68 0 -74 -2 -79
-22z"/>
<path fill="#000000" stroke="none" d="M280 76 c0 -2 15 -13 33 -24 19 -11 46
-27 60 -37 l27 -17 0 41 0 41 -60 0 c-33 0 -60 -2 -60 -4z"/>
</g>
</svg>
