<?xml version="1.0" standalone="no"?>
<!DOCTYPE svg PUBLIC "-//W3C//DTD SVG 20010904//EN"
 "http://www.w3.org/TR/2001/REC-SVG-20010904/DTD/svg10.dtd">
<svg version="1.0" xmlns="http://www.w3.org/2000/svg"
 width="47.000000pt" height="121.000000pt" viewBox="0 0 47.000000 121.000000"
 preserveAspectRatio="xMidYMid meet">
<metadata>
Created by potrace 1.14, written by Peter Selinger 2001-2017
</metadata>
<g transform="translate(0.000000,121.000000) scale(0.100000,-0.100000)"
fill="#000000" stroke="none">
<path fill="#000000" stroke="none" d="M132 1188 c-29 -18 -32 -25 -26 -47 4
-14 8 -42 8 -61 1 -30 -4 -37 -34 -51 -31 -15 -36 -24 -56 -95 -19 -70 -20
-97 -16 -236 3 -110 9 -163 18 -175 12 -17 13 -16 14 7 1 24 1 24 12 5 6 -11
15 -22 18 -25 4 -3 9 -14 11 -25 3 -12 14 -21 26 -23 13 -2 31 -14 41 -27 27
-34 17 -73 -25 -97 l-34 -20 2 -92 c1 -50 -1 -111 -5 -136 -7 -43 -6 -46 27
-68 37 -25 67 -21 67 9 0 10 -8 40 -18 66 -22 59 -19 235 4 254 8 6 14 30 15
53 0 22 3 59 7 81 l7 40 31 -51 c43 -68 69 -222 60 -346 l-6 -88 90 0 c53 0
92 4 96 11 3 6 -15 29 -41 52 l-47 42 -24 230 c-13 127 -26 244 -29 261 -3 21
-1 35 9 43 12 10 9 27 -20 114 -31 91 -34 109 -29 169 7 66 7 67 -22 82 -28
14 -29 17 -25 74 4 59 4 61 -26 76 -39 20 -40 20 -80 -6z"/>
</g>
</svg>
