<?xml version="1.0" standalone="no"?>
<!DOCTYPE svg PUBLIC "-//W3C//DTD SVG 20010904//EN"
 "http://www.w3.org/TR/2001/REC-SVG-20010904/DTD/svg10.dtd">
<svg version="1.0" xmlns="http://www.w3.org/2000/svg"
 width="56.000000pt" height="72.000000pt" viewBox="0 0 56.000000 72.000000"
 preserveAspectRatio="xMidYMid meet">
<metadata>
Created by potrace 1.14, written by Peter Selinger 2001-2017
</metadata>
<g transform="translate(0.000000,72.000000) scale(0.100000,-0.100000)"
fill="#000000" stroke="none">
<path fill="#000000" stroke="none" d="M115 707 c-44 -7 -53 -12 -73 -47 -12
-22 -27 -40 -32 -40 -21 0 -8 -28 30 -65 34 -33 40 -45 40 -81 0 -23 3 -55 6
-72 6 -28 10 -30 60 -37 39 -5 57 -12 64 -26 6 -10 9 -19 8 -19 -2 0 -35 9
-73 20 -38 11 -71 20 -72 20 -2 0 -3 -12 -3 -27 0 -16 -6 -54 -14 -85 -8 -37
-10 -58 -3 -58 6 0 7 -19 4 -51 -5 -44 -3 -58 20 -96 14 -24 30 -42 37 -40 6
2 14 37 18 78 4 41 9 79 10 86 2 8 27 1 73 -19 65 -28 77 -30 157 -25 82 4 90
7 126 38 30 27 41 46 50 87 10 47 9 59 -9 103 -10 28 -35 71 -54 96 -19 25
-39 62 -45 83 -8 31 -18 40 -72 66 -34 16 -94 49 -133 74 -67 44 -72 45 -120
37z"/>
</g>
</svg>
