<?xml version="1.0" standalone="no"?>
<!DOCTYPE svg PUBLIC "-//W3C//DTD SVG 20010904//EN"
 "http://www.w3.org/TR/2001/REC-SVG-20010904/DTD/svg10.dtd">
<svg version="1.0" xmlns="http://www.w3.org/2000/svg"
 width="26.000000pt" height="64.000000pt" viewBox="0 0 26.000000 64.000000"
 preserveAspectRatio="xMidYMid meet">
<metadata>
Created by potrace 1.14, written by Peter Selinger 2001-2017
</metadata>
<g transform="translate(0.000000,64.000000) scale(0.100000,-0.100000)"
fill="#000000" stroke="none">
<path fill="#000000" stroke="none" d="M102 620 c-12 -11 -22 -25 -22 -31 0
-5 -19 -34 -41 -64 -43 -57 -46 -83 -9 -92 27 -7 34 -41 27 -123 -3 -38 -3
-118 0 -180 7 -126 13 -135 83 -124 30 5 38 10 30 19 -7 9 -5 52 8 141 10 71
17 145 14 165 -3 32 -1 37 22 43 15 4 32 18 38 31 10 22 6 30 -28 71 -47 56
-51 62 -58 94 -3 14 -14 35 -24 48 l-18 23 -22 -21z"/>
</g>
</svg>
