<?xml version="1.0" standalone="no"?>
<!DOCTYPE svg PUBLIC "-//W3C//DTD SVG 20010904//EN"
 "http://www.w3.org/TR/2001/REC-SVG-20010904/DTD/svg10.dtd">
<svg version="1.0" xmlns="http://www.w3.org/2000/svg"
 width="25.000000pt" height="42.000000pt" viewBox="0 0 25.000000 42.000000"
 preserveAspectRatio="xMidYMid meet">
<metadata>
Created by potrace 1.14, written by Peter Selinger 2001-2017
</metadata>
<g transform="translate(0.000000,42.000000) scale(0.100000,-0.100000)"
fill="#000000" stroke="none">
<path fill="#000000" stroke="none" d="M37 399 c-3 -11 -1 -34 5 -50 8 -24 7
-39 -5 -67 -22 -51 -37 -132 -37 -197 l0 -55 34 0 c19 0 71 -7 116 -16 45 -8
84 -13 87 -10 3 2 1 12 -4 21 -8 14 -6 55 11 201 5 37 2 42 -27 59 -44 26 -58
46 -52 73 12 50 -1 62 -65 62 -50 0 -58 -3 -63 -21z"/>
</g>
</svg>
