<?xml version="1.0" standalone="no"?>
<!DOCTYPE svg PUBLIC "-//W3C//DTD SVG 20010904//EN"
 "http://www.w3.org/TR/2001/REC-SVG-20010904/DTD/svg10.dtd">
<svg version="1.0" xmlns="http://www.w3.org/2000/svg"
 width="25.000000pt" height="111.000000pt" viewBox="0 0 25.000000 111.000000"
 preserveAspectRatio="xMidYMid meet">
<metadata>
Created by potrace 1.14, written by Peter Selinger 2001-2017
</metadata>
<g transform="translate(0.000000,111.000000) scale(0.100000,-0.100000)"
fill="#000000" stroke="none">
<path fill="#000000" stroke="none" d="M71 1092 c-16 -12 -24 -34 -30 -74 -4
-32 -16 -66 -25 -77 -11 -13 -15 -25 -9 -33 4 -7 11 -101 14 -208 3 -107 11
-213 17 -235 7 -22 17 -125 23 -230 7 -118 16 -193 23 -198 21 -14 116 -38
138 -35 21 3 19 5 -15 26 -48 30 -48 19 2 227 11 44 25 141 32 216 10 119 10
146 -5 220 -10 49 -33 116 -55 161 l-38 77 23 22 c20 19 24 33 24 79 l0 57
-39 11 c-50 16 -55 15 -80 -6z"/>
</g>
</svg>
