<?xml version="1.0" standalone="no"?>
<!DOCTYPE svg PUBLIC "-//W3C//DTD SVG 20010904//EN"
 "http://www.w3.org/TR/2001/REC-SVG-20010904/DTD/svg10.dtd">
<svg version="1.0" xmlns="http://www.w3.org/2000/svg"
 width="105.000000pt" height="137.000000pt" viewBox="0 0 105.000000 137.000000"
 preserveAspectRatio="xMidYMid meet">
<metadata>
Created by potrace 1.14, written by Peter Selinger 2001-2017
</metadata>
<g transform="translate(0.000000,137.000000) scale(0.100000,-0.100000)"
fill="#000000" stroke="none">
<path fill="#000000" stroke="none" d="M379 1353 c-20 -23 -15 -114 8 -161 19
-38 19 -40 1 -62 -21 -26 -22 -70 -3 -124 21 -60 4 -81 -115 -143 -59 -31 -80
-48 -98 -81 -21 -37 -21 -44 -9 -73 l13 -33 18 29 c19 32 145 136 189 156 39
18 67 -10 67 -66 0 -35 -7 -50 -38 -86 -52 -60 -188 -327 -238 -469 -39 -113
-41 -115 -68 -112 -22 2 -38 -6 -66 -33 -52 -51 -45 -69 33 -83 56 -11 65 -10
87 7 16 11 27 32 32 59 7 44 36 105 78 167 30 44 60 126 60 162 0 19 19 36 93
83 126 82 167 78 167 -14 0 -41 17 -117 35 -161 11 -27 25 -35 111 -64 55 -18
116 -45 136 -60 33 -23 38 -31 38 -69 0 -117 79 -106 109 15 7 26 16 63 21 82
12 46 1 57 -61 64 -29 4 -59 13 -68 21 -9 8 -47 31 -86 51 -38 20 -73 40 -78
44 -4 4 -1 27 8 50 9 27 15 82 16 149 1 108 -4 135 -26 162 -7 8 -16 29 -19
46 -6 28 -4 32 24 44 29 12 31 16 25 49 -8 43 -38 94 -69 119 -13 9 -31 34
-41 55 -19 41 -68 83 -128 110 -33 15 -37 20 -27 32 17 21 6 112 -16 136 -22
25 -96 26 -115 2z"/>
</g>
</svg>
