<?xml version="1.0" standalone="no"?>
<!DOCTYPE svg PUBLIC "-//W3C//DTD SVG 20010904//EN"
 "http://www.w3.org/TR/2001/REC-SVG-20010904/DTD/svg10.dtd">
<svg version="1.0" xmlns="http://www.w3.org/2000/svg"
 width="21.000000pt" height="98.000000pt" viewBox="0 0 21.000000 98.000000"
 preserveAspectRatio="xMidYMid meet">
<metadata>
Created by potrace 1.14, written by Peter Selinger 2001-2017
</metadata>
<g transform="translate(0.000000,98.000000) scale(0.100000,-0.100000)"
fill="#000000" stroke="none">
<path fill="#000000" stroke="none" d="M178 969 c-17 -9 -17 -12 -3 -39 21
-41 35 -37 35 10 0 42 -4 46 -32 29z"/>
<path fill="#000000" stroke="none" d="M134 840 c8 -73 4 -79 -80 -134 -29
-19 -44 -37 -48 -57 -6 -33 2 -89 14 -89 5 0 23 24 40 53 18 28 38 55 45 59 6
4 23 24 37 45 22 32 26 48 24 96 -2 40 -8 63 -20 75 -17 16 -18 14 -12 -48z"/>
<path fill="#000000" stroke="none" d="M123 636 c-46 -71 -83 -138 -83 -149 0
-24 153 -248 163 -238 4 4 6 122 5 262 l-3 254 -82 -129z"/>
<path fill="#000000" stroke="none" d="M191 87 c-6 -8 -8 -17 -5 -20 4 -3 10
-21 14 -39 7 -30 8 -28 9 20 1 56 -1 59 -18 39z"/>
</g>
</svg>
