<?xml version="1.0" standalone="no"?>
<!DOCTYPE svg PUBLIC "-//W3C//DTD SVG 20010904//EN"
 "http://www.w3.org/TR/2001/REC-SVG-20010904/DTD/svg10.dtd">
<svg version="1.0" xmlns="http://www.w3.org/2000/svg"
 width="26.000000pt" height="40.000000pt" viewBox="0 0 26.000000 40.000000"
 preserveAspectRatio="xMidYMid meet">
<metadata>
Created by potrace 1.14, written by Peter Selinger 2001-2017
</metadata>
<g transform="translate(0.000000,40.000000) scale(0.100000,-0.100000)"
fill="#000000" stroke="none">
<path fill="#000000" stroke="none" d="M126 384 c-9 -8 -16 -21 -16 -27 0 -6
-26 -38 -57 -70 -32 -33 -54 -61 -48 -63 6 -2 25 -13 43 -24 39 -24 82 -111
82 -166 l0 -35 31 23 c17 13 42 44 55 70 13 26 28 49 34 53 21 13 11 71 -16
96 -15 13 -33 39 -41 58 -13 31 -13 35 2 44 15 8 15 11 -6 33 -26 28 -42 30
-63 8z"/>
</g>
</svg>
