<?xml version="1.0" standalone="no"?>
<!DOCTYPE svg PUBLIC "-//W3C//DTD SVG 20010904//EN"
 "http://www.w3.org/TR/2001/REC-SVG-20010904/DTD/svg10.dtd">
<svg version="1.0" xmlns="http://www.w3.org/2000/svg"
 width="38.000000pt" height="125.000000pt" viewBox="0 0 38.000000 125.000000"
 preserveAspectRatio="xMidYMid meet">
<metadata>
Created by potrace 1.14, written by Peter Selinger 2001-2017
</metadata>
<g transform="translate(0.000000,125.000000) scale(0.100000,-0.100000)"
fill="#000000" stroke="none">
<path fill="#000000" stroke="none" d="M98 1225 c-19 -26 -24 -90 -8 -100 21
-13 8 -45 -30 -75 -25 -20 -43 -44 -50 -68 -13 -47 -13 -122 0 -122 6 0 10
-14 10 -31 0 -17 9 -44 21 -60 19 -27 19 -34 9 -111 -6 -46 -13 -91 -16 -100
-3 -9 4 -26 16 -38 20 -20 22 -31 20 -143 -3 -149 4 -365 12 -372 13 -14 55 8
66 35 11 24 11 33 0 52 -13 23 -17 229 -7 346 3 44 8 54 26 58 12 3 28 4 34 2
26 -9 61 -201 63 -348 1 -52 5 -100 9 -107 10 -15 74 -34 93 -26 18 7 18 42 0
49 -22 8 -27 29 -43 164 -26 233 -27 269 -11 275 13 5 13 14 1 65 -28 121 -44
308 -25 296 11 -6 22 48 22 112 0 47 -20 73 -82 106 -32 17 -34 21 -34 71 1
85 -56 126 -96 70z"/>
</g>
</svg>
