<?xml version="1.0" standalone="no"?>
<!DOCTYPE svg PUBLIC "-//W3C//DTD SVG 20010904//EN"
 "http://www.w3.org/TR/2001/REC-SVG-20010904/DTD/svg10.dtd">
<svg version="1.0" xmlns="http://www.w3.org/2000/svg"
 width="125.000000pt" height="305.000000pt" viewBox="0 0 125.000000 305.000000"
 preserveAspectRatio="xMidYMid meet">
<metadata>
Created by potrace 1.14, written by Peter Selinger 2001-2017
</metadata>
<g transform="translate(0.000000,305.000000) scale(0.100000,-0.100000)"
fill="#000000" stroke="none">
<path fill="#000000" stroke="none" d="M67 2876 l33 -173 -49 -233 -49 -233
48 -127 c63 -164 80 -240 80 -357 l0 -95 120 -158 120 -158 11 -141 c9 -107 9
-180 0 -297 -9 -119 -9 -201 0 -348 11 -178 15 -204 60 -370 26 -98 50 -180
52 -182 4 -4 334 14 348 19 3 1 -39 182 -92 402 -54 220 -97 403 -96 407 1 3
115 137 252 298 249 291 250 292 276 373 14 45 36 103 49 130 l24 47 -44 45
c-56 57 -83 58 -159 9 -59 -38 -128 -119 -111 -129 17 -11 11 -19 -44 -63 -45
-35 -62 -42 -98 -42 -42 0 -48 -4 -101 -64 l-57 -64 -62 5 c-119 11 -126 22
-84 134 l23 64 -26 56 c-18 39 -69 102 -166 208 -77 83 -141 155 -143 160 -1
4 31 36 71 70 l74 61 6 113 c5 101 10 123 48 221 l42 110 -11 108 -10 108 -56
62 c-31 34 -78 93 -103 130 l-47 68 -81 0 -82 0 34 -174z"/>
<path fill="#000000" stroke="none" d="M850 1714 c-11 -12 -10 -18 3 -32 16
-15 17 -14 17 16 0 36 -2 38 -20 16z"/>
</g>
</svg>
