<?xml version="1.0" standalone="no"?>
<!DOCTYPE svg PUBLIC "-//W3C//DTD SVG 20010904//EN"
 "http://www.w3.org/TR/2001/REC-SVG-20010904/DTD/svg10.dtd">
<svg version="1.0" xmlns="http://www.w3.org/2000/svg"
 width="10.000000pt" height="12.000000pt" viewBox="0 0 10.000000 12.000000"
 preserveAspectRatio="xMidYMid meet">
<metadata>
Created by potrace 1.14, written by Peter Selinger 2001-2017
</metadata>
<g transform="translate(0.000000,12.000000) scale(0.100000,-0.100000)"
fill="#000000" stroke="none">
<path fill="#000000" stroke="none" d="M15 98 c-13 -40 -14 -99 -2 -95 7 2 13
12 15 23 2 10 8 29 14 41 11 23 5 53 -11 53 -5 0 -12 -10 -16 -22z"/>
<path fill="#000000" stroke="none" d="M70 85 c0 -8 -4 -15 -10 -15 -5 0 -10
-14 -10 -31 0 -24 4 -30 15 -25 8 3 15 1 15 -5 0 -6 5 -7 10 -4 11 7 13 54 4
79 -8 20 -24 21 -24 1z"/>
</g>
</svg>
