<?xml version="1.0" standalone="no"?>
<!DOCTYPE svg PUBLIC "-//W3C//DTD SVG 20010904//EN"
 "http://www.w3.org/TR/2001/REC-SVG-20010904/DTD/svg10.dtd">
<svg version="1.0" xmlns="http://www.w3.org/2000/svg"
 width="19.000000pt" height="59.000000pt" viewBox="0 0 19.000000 59.000000"
 preserveAspectRatio="xMidYMid meet">
<metadata>
Created by potrace 1.14, written by Peter Selinger 2001-2017
</metadata>
<g transform="translate(0.000000,59.000000) scale(0.100000,-0.100000)"
fill="#000000" stroke="none">
<path fill="#000000" stroke="none" d="M71 576 c-8 -9 -9 -41 -3 -107 8 -85 6
-101 -15 -165 -21 -63 -23 -79 -15 -145 9 -71 8 -76 -16 -107 -32 -43 -21 -52
66 -52 l63 0 -2 131 c-2 125 -1 133 20 148 21 16 22 21 15 121 -5 78 -12 114
-26 138 -29 48 -65 64 -87 38z"/>
</g>
</svg>
