<?xml version="1.0" standalone="no"?>
<!DOCTYPE svg PUBLIC "-//W3C//DTD SVG 20010904//EN"
 "http://www.w3.org/TR/2001/REC-SVG-20010904/DTD/svg10.dtd">
<svg version="1.0" xmlns="http://www.w3.org/2000/svg"
 width="52.000000pt" height="22.000000pt" viewBox="0 0 52.000000 22.000000"
 preserveAspectRatio="xMidYMid meet">
<metadata>
Created by potrace 1.14, written by Peter Selinger 2001-2017
</metadata>
<g transform="translate(0.000000,22.000000) scale(0.100000,-0.100000)"
fill="#000000" stroke="none">
<path fill="#000000" stroke="none" d="M240 213 c-8 -3 -23 -12 -32 -21 -14
-12 -21 -12 -33 -2 -19 16 -134 4 -157 -18 -27 -23 -22 -42 12 -42 41 0 68
-40 53 -80 -13 -36 -1 -50 44 -50 44 0 68 36 65 98 -2 62 17 82 78 82 47 0
130 -32 130 -50 0 -6 7 -10 15 -10 8 0 22 -12 32 -26 13 -21 15 -32 6 -55 -11
-28 -10 -29 16 -29 37 0 51 17 51 65 0 49 -23 85 -54 85 -14 0 -30 10 -41 26
-14 21 -23 25 -55 23 -22 -2 -42 0 -46 4 -8 8 -62 8 -84 0z"/>
</g>
</svg>
