<?xml version="1.0" standalone="no"?>
<!DOCTYPE svg PUBLIC "-//W3C//DTD SVG 20010904//EN"
 "http://www.w3.org/TR/2001/REC-SVG-20010904/DTD/svg10.dtd">
<svg version="1.0" xmlns="http://www.w3.org/2000/svg"
 width="91.000000pt" height="173.000000pt" viewBox="0 0 91.000000 173.000000"
 preserveAspectRatio="xMidYMid meet">
<metadata>
Created by potrace 1.14, written by Peter Selinger 2001-2017
</metadata>
<g transform="translate(0.000000,173.000000) scale(0.100000,-0.100000)"
fill="#000000" stroke="none">
<path fill="#000000" stroke="none" d="M537 1720 c-114 -4 -210 -9 -212 -11
-2 -2 6 -96 17 -208 l21 -203 -29 -87 c-15 -47 -54 -158 -87 -246 l-59 -160
-42 -329 -42 -329 -48 -60 c-78 -97 -89 -91 145 -84 112 4 318 7 457 7 l252 0
0 703 c0 386 -3 773 -7 860 l-6 157 -76 -2 c-42 0 -170 -4 -284 -8z"/>
</g>
</svg>
