<?xml version="1.0" standalone="no"?>
<!DOCTYPE svg PUBLIC "-//W3C//DTD SVG 20010904//EN"
 "http://www.w3.org/TR/2001/REC-SVG-20010904/DTD/svg10.dtd">
<svg version="1.0" xmlns="http://www.w3.org/2000/svg"
 width="101.000000pt" height="223.000000pt" viewBox="0 0 101.000000 223.000000"
 preserveAspectRatio="xMidYMid meet">
<metadata>
Created by potrace 1.14, written by Peter Selinger 2001-2017
</metadata>
<g transform="translate(0.000000,223.000000) scale(0.100000,-0.100000)"
fill="#000000" stroke="none">
<path fill="#000000" stroke="none" d="M170 2218 c-112 -24 -119 -27 -140 -68
-17 -34 -20 -59 -20 -193 l0 -153 35 -17 c19 -9 41 -29 49 -45 13 -26 13 -32
0 -50 -8 -12 -33 -31 -55 -44 l-41 -23 6 -150 c3 -82 9 -243 12 -357 4 -115
10 -208 15 -208 4 0 106 38 226 84 165 65 238 88 301 96 66 9 92 17 128 43
l44 31 68 -23 68 -24 -40 -139 c-40 -137 -41 -138 -70 -138 -16 0 -77 -23
-135 -50 -136 -64 -136 -65 -219 -130 l-70 -55 16 -27 c9 -16 49 -51 90 -80
40 -29 78 -61 84 -71 5 -11 16 -62 24 -115 13 -83 22 -110 72 -204 31 -59 60
-108 63 -108 13 0 22 78 29 260 8 183 8 189 78 480 109 456 102 436 169 496
54 49 57 53 45 75 -8 13 -79 93 -160 177 l-147 153 -140 30 c-77 17 -144 34
-148 39 -5 4 5 34 21 66 28 57 29 61 16 114 -7 30 -13 76 -14 102 0 26 -10 72
-22 101 -20 49 -27 56 -99 95 -43 23 -81 42 -86 41 -4 -1 -28 -5 -53 -11z"/>
</g>
</svg>
