<?xml version="1.0" standalone="no"?>
<!DOCTYPE svg PUBLIC "-//W3C//DTD SVG 20010904//EN"
 "http://www.w3.org/TR/2001/REC-SVG-20010904/DTD/svg10.dtd">
<svg version="1.0" xmlns="http://www.w3.org/2000/svg"
 width="297.000000pt" height="39.000000pt" viewBox="0 0 297.000000 39.000000"
 preserveAspectRatio="xMidYMid meet">
<metadata>
Created by potrace 1.14, written by Peter Selinger 2001-2017
</metadata>
<g transform="translate(0.000000,39.000000) scale(0.100000,-0.100000)"
fill="#000000" stroke="none">
<path fill="#000000" stroke="none" d="M2945 381 c-8 -13 5 -61 16 -61 12 0
12 57 0 65 -5 3 -12 1 -16 -4z"/>
<path fill="#000000" stroke="none" d="M2631 336 c-16 -19 -19 -88 -3 -93 7
-3 12 5 12 21 0 14 4 26 9 26 5 0 9 14 9 30 -1 33 -9 38 -27 16z"/>
<path fill="#000000" stroke="none" d="M12 85 c-14 -30 -5 -85 14 -85 9 0 14
12 14 33 0 24 3 28 10 17 7 -11 10 -12 10 -2 0 8 -8 24 -19 37 l-18 24 -11
-24z"/>
</g>
</svg>
