<?xml version="1.0" standalone="no"?>
<!DOCTYPE svg PUBLIC "-//W3C//DTD SVG 20010904//EN"
 "http://www.w3.org/TR/2001/REC-SVG-20010904/DTD/svg10.dtd">
<svg version="1.0" xmlns="http://www.w3.org/2000/svg"
 width="44.000000pt" height="49.000000pt" viewBox="0 0 44.000000 49.000000"
 preserveAspectRatio="xMidYMid meet">
<metadata>
Created by potrace 1.14, written by Peter Selinger 2001-2017
</metadata>
<g transform="translate(0.000000,49.000000) scale(0.100000,-0.100000)"
fill="#000000" stroke="none">
<path fill="#000000" stroke="none" d="M64 469 c-13 -15 -20 -40 -22 -89 -3
-51 -9 -73 -23 -86 -28 -25 -24 -41 26 -96 25 -28 45 -58 45 -68 0 -10 12 -33
27 -50 23 -28 31 -31 67 -27 33 3 50 -2 84 -25 32 -21 55 -28 91 -28 57 0 71
12 78 69 6 43 -15 91 -40 91 -6 0 -29 35 -50 79 -37 75 -84 128 -144 160 -13
6 -23 20 -23 29 0 57 -77 84 -116 41z"/>
</g>
</svg>
