<?xml version="1.0" standalone="no"?>
<!DOCTYPE svg PUBLIC "-//W3C//DTD SVG 20010904//EN"
 "http://www.w3.org/TR/2001/REC-SVG-20010904/DTD/svg10.dtd">
<svg version="1.0" xmlns="http://www.w3.org/2000/svg"
 width="105.000000pt" height="292.000000pt" viewBox="0 0 105.000000 292.000000"
 preserveAspectRatio="xMidYMid meet">
<metadata>
Created by potrace 1.14, written by Peter Selinger 2001-2017
</metadata>
<g transform="translate(0.000000,292.000000) scale(0.100000,-0.100000)"
fill="#000000" stroke="none">
<path fill="#000000" stroke="none" d="M440 2907 c-36 -5 -67 -11 -69 -13 -1
-1 -14 -49 -27 -106 l-25 -103 38 -72 38 -72 -21 -28 c-11 -15 -70 -55 -129
-88 l-109 -60 -68 -270 -67 -270 -1 -227 0 -227 27 -46 c16 -25 30 -45 33 -45
3 0 18 25 33 55 31 64 37 157 12 185 -22 24 23 373 59 451 l24 54 1 -118 c1
-67 -9 -203 -23 -320 -14 -111 -27 -265 -31 -342 -4 -77 -13 -189 -21 -249
-19 -145 -20 -136 24 -136 l37 0 -3 -132 c-3 -102 3 -178 23 -323 14 -104 28
-238 32 -297 6 -107 6 -108 32 -108 14 0 48 14 77 31 l52 32 -34 63 -35 62 15
229 c10 142 24 268 37 333 13 58 23 106 24 107 1 1 17 -2 36 -7 31 -9 37 -16
62 -82 27 -72 27 -77 27 -296 l0 -222 -46 -91 c-25 -50 -44 -92 -42 -94 11
-11 83 -20 139 -17 l66 3 24 82 c22 78 23 99 26 419 3 378 11 449 84 740 36
145 39 168 39 296 0 76 3 181 7 233 l6 93 29 -119 c15 -66 40 -185 54 -265 25
-138 26 -150 14 -255 -12 -107 -12 -112 10 -155 12 -25 24 -46 25 -48 1 -2 23
2 49 9 l46 11 0 105 c0 96 -46 425 -95 686 -20 106 -19 120 11 164 l26 38 -40
17 -39 17 -6 73 c-10 119 -32 151 -156 231 -58 38 -113 72 -121 77 -12 8 -7
25 34 102 l49 93 -25 75 c-22 69 -29 78 -78 113 -57 39 -64 40 -170 24z"/>
</g>
</svg>
