<?xml version="1.0" standalone="no"?>
<!DOCTYPE svg PUBLIC "-//W3C//DTD SVG 20010904//EN"
 "http://www.w3.org/TR/2001/REC-SVG-20010904/DTD/svg10.dtd">
<svg version="1.0" xmlns="http://www.w3.org/2000/svg"
 width="190.000000pt" height="77.000000pt" viewBox="0 0 190.000000 77.000000"
 preserveAspectRatio="xMidYMid meet">
<metadata>
Created by potrace 1.14, written by Peter Selinger 2001-2017
</metadata>
<g transform="translate(0.000000,77.000000) scale(0.100000,-0.100000)"
fill="#000000" stroke="none">
<path fill="#000000" stroke="none" d="M2 489 c3 -238 5 -283 18 -290 8 -4 82
-40 165 -79 82 -39 157 -78 167 -87 31 -28 104 -32 348 -22 209 9 244 13 314
36 44 14 107 27 140 28 80 3 228 35 242 52 9 11 26 10 101 -6 49 -10 98 -24
109 -31 17 -10 26 -10 50 3 16 8 56 29 89 45 58 29 105 76 105 106 0 8 10 16
23 18 23 3 23 6 11 81 -5 30 -11 38 -33 42 -14 3 -51 13 -81 23 -42 13 -55 22
-55 37 0 17 -6 20 -44 17 -24 -1 -93 -19 -153 -38 -82 -27 -119 -34 -142 -29
-69 17 -158 7 -311 -34 -27 -7 -138 -8 -331 -4 l-291 6 -17 31 c-32 59 -81
103 -202 184 -107 71 -184 138 -184 160 0 4 -9 13 -20 20 -20 12 -20 11 -18
-269z"/>
</g>
</svg>
