<?xml version="1.0" standalone="no"?>
<!DOCTYPE svg PUBLIC "-//W3C//DTD SVG 20010904//EN"
 "http://www.w3.org/TR/2001/REC-SVG-20010904/DTD/svg10.dtd">
<svg version="1.0" xmlns="http://www.w3.org/2000/svg"
 width="30.000000pt" height="97.000000pt" viewBox="0 0 30.000000 97.000000"
 preserveAspectRatio="xMidYMid meet">
<metadata>
Created by potrace 1.14, written by Peter Selinger 2001-2017
</metadata>
<g transform="translate(0.000000,97.000000) scale(0.100000,-0.100000)"
fill="#000000" stroke="none">
<path fill="#000000" stroke="none" d="M171 959 c-25 -5 -48 -12 -51 -16 -4
-5 -33 -44 -65 -88 l-59 -80 23 -375 c13 -206 24 -375 25 -376 0 -1 55 -6 121
-12 81 -7 122 -7 126 0 4 5 5 29 2 51 -6 72 -53 835 -53 872 0 38 0 38 -69 24z"/>
</g>
</svg>
