<?xml version="1.0" standalone="no"?>
<!DOCTYPE svg PUBLIC "-//W3C//DTD SVG 20010904//EN"
 "http://www.w3.org/TR/2001/REC-SVG-20010904/DTD/svg10.dtd">
<svg version="1.0" xmlns="http://www.w3.org/2000/svg"
 width="57.000000pt" height="180.000000pt" viewBox="0 0 57.000000 180.000000"
 preserveAspectRatio="xMidYMid meet">
<metadata>
Created by potrace 1.14, written by Peter Selinger 2001-2017
</metadata>
<g transform="translate(0.000000,180.000000) scale(0.100000,-0.100000)"
fill="#000000" stroke="none">
<path fill="#000000" stroke="none" d="M275 1788 c-51 -18 -121 -95 -145 -158
-21 -55 -21 -61 -7 -116 29 -114 31 -150 9 -181 -39 -56 -60 -111 -93 -243
-30 -124 -33 -150 -37 -330 -3 -174 0 -221 27 -435 42 -329 35 -300 78 -313
20 -6 38 -10 40 -8 2 1 22 65 45 140 l42 138 46 26 45 25 -30 32 c-16 17 -43
57 -59 89 -27 52 -28 63 -23 131 4 40 12 85 19 99 17 39 68 66 120 66 43 0 46
2 53 33 4 17 10 97 14 177 9 169 20 202 99 297 49 59 51 63 32 73 -17 9 -20
21 -20 74 0 109 -33 244 -75 310 -50 79 -103 101 -180 74z"/>
</g>
</svg>
