<?xml version="1.0" standalone="no"?>
<!DOCTYPE svg PUBLIC "-//W3C//DTD SVG 20010904//EN"
 "http://www.w3.org/TR/2001/REC-SVG-20010904/DTD/svg10.dtd">
<svg version="1.0" xmlns="http://www.w3.org/2000/svg"
 width="23.000000pt" height="27.000000pt" viewBox="0 0 23.000000 27.000000"
 preserveAspectRatio="xMidYMid meet">
<metadata>
Created by potrace 1.14, written by Peter Selinger 2001-2017
</metadata>
<g transform="translate(0.000000,27.000000) scale(0.100000,-0.100000)"
fill="#000000" stroke="none">
<path fill="#000000" stroke="none" d="M170 245 c-8 -21 -16 -25 -52 -25 -43
0 -44 -1 -60 -47 -9 -27 -20 -70 -23 -98 -4 -27 -14 -56 -23 -62 -13 -11 6
-13 101 -13 l117 0 0 41 c0 46 -18 128 -32 146 -12 15 -2 33 18 33 19 0 18 14
-4 33 -25 23 -31 21 -42 -8z"/>
</g>
</svg>
