<?xml version="1.0" standalone="no"?>
<!DOCTYPE svg PUBLIC "-//W3C//DTD SVG 20010904//EN"
 "http://www.w3.org/TR/2001/REC-SVG-20010904/DTD/svg10.dtd">
<svg version="1.0" xmlns="http://www.w3.org/2000/svg"
 width="89.000000pt" height="85.000000pt" viewBox="0 0 89.000000 85.000000"
 preserveAspectRatio="xMidYMid meet">
<metadata>
Created by potrace 1.14, written by Peter Selinger 2001-2017
</metadata>
<g transform="translate(0.000000,85.000000) scale(0.100000,-0.100000)"
fill="#000000" stroke="none">
<path fill="#000000" stroke="none" d="M305 785 c-49 -36 -94 -65 -100 -65 -6
0 -22 -11 -34 -24 l-23 -25 20 -28 c30 -42 11 -78 -75 -140 -67 -49 -69 -52
-80 -108 -17 -95 -2 -139 69 -206 l60 -57 -45 -41 c-38 -35 -44 -46 -38 -64 8
-22 12 -22 182 -19 109 1 262 12 412 30 l237 27 0 36 c0 19 -7 60 -16 90 -19
65 -89 224 -115 260 -10 14 -58 50 -106 79 -48 29 -89 55 -91 56 -2 1 3 13 11
26 9 12 23 50 32 82 17 57 17 61 -1 94 -25 46 -60 62 -141 62 -68 0 -68 0
-158 -65z"/>
</g>
</svg>
