<?xml version="1.0" standalone="no"?>
<!DOCTYPE svg PUBLIC "-//W3C//DTD SVG 20010904//EN"
 "http://www.w3.org/TR/2001/REC-SVG-20010904/DTD/svg10.dtd">
<svg version="1.0" xmlns="http://www.w3.org/2000/svg"
 width="23.000000pt" height="38.000000pt" viewBox="0 0 23.000000 38.000000"
 preserveAspectRatio="xMidYMid meet">
<metadata>
Created by potrace 1.14, written by Peter Selinger 2001-2017
</metadata>
<g transform="translate(0.000000,38.000000) scale(0.100000,-0.100000)"
fill="#000000" stroke="none">
<path fill="#000000" stroke="none" d="M20 365 c-10 -12 -8 -26 12 -73 l25
-57 -28 -45 c-38 -61 -36 -65 13 -30 22 17 43 28 46 26 2 -3 -12 -34 -32 -69
-33 -59 -39 -97 -15 -97 5 0 27 17 50 37 45 40 53 37 65 -25 7 -35 11 -37 35
-19 11 8 20 41 28 95 12 94 11 96 -62 210 -40 60 -43 62 -83 62 -25 0 -47 -6
-54 -15z"/>
</g>
</svg>
