<?xml version="1.0" standalone="no"?>
<!DOCTYPE svg PUBLIC "-//W3C//DTD SVG 20010904//EN"
 "http://www.w3.org/TR/2001/REC-SVG-20010904/DTD/svg10.dtd">
<svg version="1.0" xmlns="http://www.w3.org/2000/svg"
 width="60.000000pt" height="270.000000pt" viewBox="0 0 60.000000 270.000000"
 preserveAspectRatio="xMidYMid meet">
<metadata>
Created by potrace 1.14, written by Peter Selinger 2001-2017
</metadata>
<g transform="translate(0.000000,270.000000) scale(0.100000,-0.100000)"
fill="#000000" stroke="none">
<path fill="#000000" stroke="none" d="M341 2657 c-80 -36 -101 -51 -151 -107
l-57 -65 -12 -98 -13 -98 30 -51 c29 -52 29 -52 131 -86 106 -35 110 -38 127
-106 5 -21 -3 -26 -78 -60 -149 -67 -153 -71 -215 -242 -30 -82 -66 -196 -79
-254 -22 -92 -23 -111 -13 -155 17 -74 22 -80 88 -100 34 -10 61 -19 61 -20 0
-1 -15 -44 -34 -94 -34 -90 -34 -96 -37 -264 l-3 -172 64 -100 c35 -55 79
-117 99 -137 l35 -38 -31 -103 c-18 -56 -34 -109 -37 -117 -4 -9 22 -50 66
-103 l72 -89 83 4 c80 3 83 4 113 38 l30 35 -7 110 c-4 61 -6 119 -5 130 1 11
2 71 2 133 0 72 6 128 15 155 8 23 15 65 15 94 0 62 -33 338 -57 477 -16 93
-16 106 0 235 22 177 22 290 -3 409 -27 134 -28 471 -3 700 21 182 26 166 -57
176 -38 5 -59 -1 -139 -37z"/>
</g>
</svg>
