<?xml version="1.0" standalone="no"?>
<!DOCTYPE svg PUBLIC "-//W3C//DTD SVG 20010904//EN"
 "http://www.w3.org/TR/2001/REC-SVG-20010904/DTD/svg10.dtd">
<svg version="1.0" xmlns="http://www.w3.org/2000/svg"
 width="165.000000pt" height="78.000000pt" viewBox="0 0 165.000000 78.000000"
 preserveAspectRatio="xMidYMid meet">
<metadata>
Created by potrace 1.14, written by Peter Selinger 2001-2017
</metadata>
<g transform="translate(0.000000,78.000000) scale(0.100000,-0.100000)"
fill="#000000" stroke="none">
<path fill="#000000" stroke="none" d="M1626 735 c-10 -24 -25 -46 -34 -49 -9
-3 -93 -17 -185 -31 -142 -22 -192 -26 -325 -23 -154 4 -317 25 -418 54 -28 8
-76 14 -108 14 -50 0 -64 -5 -116 -40 -32 -22 -92 -55 -132 -74 -62 -28 -82
-44 -131 -104 -50 -62 -60 -81 -77 -154 -11 -46 -27 -105 -35 -132 -8 -27 -15
-68 -15 -92 0 -33 -5 -47 -25 -62 l-25 -20 33 -6 c17 -3 55 -8 82 -11 l50 -7
49 82 c63 105 175 204 214 189 18 -7 37 -5 67 7 l42 16 10 99 c6 55 13 102 16
105 13 13 207 -17 292 -46 226 -77 459 -116 628 -106 54 3 114 13 133 21 l34
14 0 200 c0 111 -2 201 -4 201 -2 0 -11 -20 -20 -45z"/>
</g>
</svg>
