<?xml version="1.0" standalone="no"?>
<!DOCTYPE svg PUBLIC "-//W3C//DTD SVG 20010904//EN"
 "http://www.w3.org/TR/2001/REC-SVG-20010904/DTD/svg10.dtd">
<svg version="1.0" xmlns="http://www.w3.org/2000/svg"
 width="45.000000pt" height="102.000000pt" viewBox="0 0 45.000000 102.000000"
 preserveAspectRatio="xMidYMid meet">
<metadata>
Created by potrace 1.14, written by Peter Selinger 2001-2017
</metadata>
<g transform="translate(0.000000,102.000000) scale(0.100000,-0.100000)"
fill="#000000" stroke="none">
<path fill="#000000" stroke="none" d="M73 1013 c-21 -4 -23 -10 -23 -66 0
-43 -8 -81 -25 -122 -14 -33 -25 -77 -25 -97 0 -36 2 -38 31 -38 19 0 45 11
69 30 21 17 40 30 44 30 24 0 58 -211 45 -281 -14 -74 -89 -350 -103 -376 -28
-56 -25 -67 20 -73 l41 -6 17 45 c8 26 26 91 39 146 15 62 35 118 54 149 l30
48 17 -43 c43 -118 78 -240 83 -296 6 -61 7 -63 34 -63 l29 0 0 78 c0 42 -4
93 -10 112 -5 19 -14 81 -20 138 -10 95 -10 107 9 158 12 30 21 67 21 82 0 30
-54 140 -78 160 -9 7 -11 12 -4 12 19 0 14 37 -14 95 -27 57 -70 101 -110 111
-13 3 -24 10 -24 15 0 11 -95 59 -112 58 -7 -1 -23 -4 -35 -6z"/>
<path fill="#ffffff" stroke="none" d="M238 927 c-9 -7 -18 -24 -21 -37 -4
-22 -4 -21 -6 6 -1 34 5 44 28 44 14 -1 14 -2 -1 -13z"/>
<path fill="#ffffff" stroke="none" d="M300 792 c0 -11 -7 -10 -32 5 -46 27
-49 48 -4 26 20 -9 36 -23 36 -31z"/>
</g>
</svg>
