<?xml version="1.0" standalone="no"?>
<!DOCTYPE svg PUBLIC "-//W3C//DTD SVG 20010904//EN"
 "http://www.w3.org/TR/2001/REC-SVG-20010904/DTD/svg10.dtd">
<svg version="1.0" xmlns="http://www.w3.org/2000/svg"
 width="31.000000pt" height="143.000000pt" viewBox="0 0 31.000000 143.000000"
 preserveAspectRatio="xMidYMid meet">
<metadata>
Created by potrace 1.14, written by Peter Selinger 2001-2017
</metadata>
<g transform="translate(0.000000,143.000000) scale(0.100000,-0.100000)"
fill="#000000" stroke="none">
<path fill="#000000" stroke="none" d="M176 1421 c-35 -5 -40 -10 -56 -54 -10
-26 -35 -80 -56 -121 l-38 -73 33 -284 33 -284 -46 -80 -46 -81 26 -129 c14
-72 28 -170 32 -220 l7 -90 46 -3 c54 -4 47 -20 79 178 l22 135 -35 127 -35
127 30 208 c19 138 27 228 24 267 -5 48 -2 63 14 86 22 31 26 55 10 65 -17 10
-11 33 10 40 18 6 80 110 80 132 0 10 -75 63 -87 62 -4 -1 -25 -5 -47 -8z"/>
</g>
</svg>
