<?xml version="1.0" standalone="no"?>
<!DOCTYPE svg PUBLIC "-//W3C//DTD SVG 20010904//EN"
 "http://www.w3.org/TR/2001/REC-SVG-20010904/DTD/svg10.dtd">
<svg version="1.0" xmlns="http://www.w3.org/2000/svg"
 width="31.000000pt" height="106.000000pt" viewBox="0 0 31.000000 106.000000"
 preserveAspectRatio="xMidYMid meet">
<metadata>
Created by potrace 1.14, written by Peter Selinger 2001-2017
</metadata>
<g transform="translate(0.000000,106.000000) scale(0.100000,-0.100000)"
fill="#000000" stroke="none">
<path fill="#000000" stroke="none" d="M80 1050 c-11 -7 -15 -29 -15 -82 -1
-55 -6 -83 -23 -115 -18 -34 -21 -52 -16 -100 3 -34 0 -84 -9 -123 -12 -56
-12 -72 0 -105 8 -22 16 -96 18 -165 3 -69 9 -151 14 -182 5 -32 7 -73 4 -92
-4 -28 -1 -39 20 -60 24 -24 67 -27 67 -4 0 5 14 7 33 3 l32 -6 -40 35 c-33
30 -40 41 -40 74 0 22 7 47 15 57 13 15 16 10 30 -51 15 -64 19 -69 45 -72 43
-5 95 7 95 23 0 7 -14 24 -30 37 -40 32 -60 105 -60 226 0 59 -5 105 -15 128
-8 20 -12 47 -9 60 6 23 7 23 43 8 91 -40 96 -17 17 72 -30 33 -70 87 -89 119
l-35 60 24 28 c29 35 30 42 4 74 -20 26 -19 43 5 43 7 0 16 7 19 16 12 31 6
55 -20 79 -28 26 -58 31 -84 15z"/>
</g>
</svg>
