<?xml version="1.0" standalone="no"?>
<!DOCTYPE svg PUBLIC "-//W3C//DTD SVG 20010904//EN"
 "http://www.w3.org/TR/2001/REC-SVG-20010904/DTD/svg10.dtd">
<svg version="1.0" xmlns="http://www.w3.org/2000/svg"
 width="121.000000pt" height="149.000000pt" viewBox="0 0 121.000000 149.000000"
 preserveAspectRatio="xMidYMid meet">
<metadata>
Created by potrace 1.14, written by Peter Selinger 2001-2017
</metadata>
<g transform="translate(0.000000,149.000000) scale(0.100000,-0.100000)"
fill="#000000" stroke="none">
<path fill="#000000" stroke="none" d="M182 1467 c-38 -19 -50 -34 -99 -127
-31 -58 -60 -110 -65 -117 -9 -11 -13 -392 -9 -837 l1 -178 101 3 101 4 40
-101 40 -101 217 -4 c119 -2 322 -2 451 1 l235 5 5 60 c3 33 1 81 -3 106 -8
40 -14 48 -50 68 -40 21 -45 22 -102 8 -33 -8 -89 -33 -125 -55 -67 -43 -85
-41 -54 6 38 57 53 96 47 120 -5 23 -9 24 -53 19 -34 -4 -54 -1 -70 10 l-23
16 29 24 29 24 -40 -6 c-22 -3 -67 -9 -100 -14 -33 -4 -64 -9 -70 -11 -34 -9
-43 2 -55 66 -11 56 -11 68 1 75 42 25 42 24 16 76 -14 27 -28 66 -32 86 -4
21 -14 39 -24 42 -9 3 -34 23 -55 44 l-38 39 31 44 c17 24 36 55 42 70 6 15
21 29 35 32 22 6 25 11 22 46 -2 22 1 38 6 37 5 -1 21 48 35 108 l27 110 -47
78 c-37 61 -58 85 -100 112 -52 33 -57 34 -154 34 -82 0 -108 -4 -143 -22z"/>
<path fill="#ffffff" stroke="none" d="M720 303 c-1 -23 -9 -48 -21 -62 l-20
-24 -34 33 c-39 38 -35 52 20 76 48 21 55 18 55 -23z"/>
</g>
</svg>
