<?xml version="1.0" standalone="no"?>
<!DOCTYPE svg PUBLIC "-//W3C//DTD SVG 20010904//EN"
 "http://www.w3.org/TR/2001/REC-SVG-20010904/DTD/svg10.dtd">
<svg version="1.0" xmlns="http://www.w3.org/2000/svg"
 width="43.000000pt" height="40.000000pt" viewBox="0 0 43.000000 40.000000"
 preserveAspectRatio="xMidYMid meet">
<metadata>
Created by potrace 1.14, written by Peter Selinger 2001-2017
</metadata>
<g transform="translate(0.000000,40.000000) scale(0.100000,-0.100000)"
fill="#000000" stroke="none">
<path fill="#000000" stroke="none" d="M243 390 c-23 -9 -37 -54 -34 -106 1
-26 -7 -36 -64 -79 -35 -27 -78 -67 -93 -90 -27 -37 -56 -104 -49 -111 2 -2
87 24 190 59 155 52 185 65 177 77 -14 22 -14 22 25 68 35 40 35 41 24 89 -18
72 -24 80 -71 87 -24 4 -52 9 -63 11 -11 2 -30 0 -42 -5z"/>
</g>
</svg>
