<?xml version="1.0" standalone="no"?>
<!DOCTYPE svg PUBLIC "-//W3C//DTD SVG 20010904//EN"
 "http://www.w3.org/TR/2001/REC-SVG-20010904/DTD/svg10.dtd">
<svg version="1.0" xmlns="http://www.w3.org/2000/svg"
 width="26.000000pt" height="86.000000pt" viewBox="0 0 26.000000 86.000000"
 preserveAspectRatio="xMidYMid meet">
<metadata>
Created by potrace 1.14, written by Peter Selinger 2001-2017
</metadata>
<g transform="translate(0.000000,86.000000) scale(0.100000,-0.100000)"
fill="#000000" stroke="none">
<path fill="#000000" stroke="none" d="M100 801 c-12 -57 -15 -61 -41 -61 -24
0 -30 -5 -38 -38 -22 -82 -22 -97 4 -172 l25 -75 -21 -189 -21 -188 40 -40
c38 -39 41 -40 89 -33 27 3 55 10 62 14 9 6 17 81 27 272 8 145 18 305 22 356
l7 91 -48 7 -49 6 6 50 c5 39 4 49 -8 49 -8 0 -21 2 -29 6 -10 4 -17 -10 -27
-55z"/>
</g>
</svg>
