<?xml version="1.0" standalone="no"?>
<!DOCTYPE svg PUBLIC "-//W3C//DTD SVG 20010904//EN"
 "http://www.w3.org/TR/2001/REC-SVG-20010904/DTD/svg10.dtd">
<svg version="1.0" xmlns="http://www.w3.org/2000/svg"
 width="85.000000pt" height="57.000000pt" viewBox="0 0 85.000000 57.000000"
 preserveAspectRatio="xMidYMid meet">
<metadata>
Created by potrace 1.14, written by Peter Selinger 2001-2017
</metadata>
<g transform="translate(0.000000,57.000000) scale(0.100000,-0.100000)"
fill="#000000" stroke="none">
<path fill="#000000" stroke="none" d="M143 558 c-25 -12 -25 -12 -48 -118 -9
-41 -23 -95 -31 -120 -9 -25 -19 -59 -23 -75 -5 -17 -13 -40 -19 -52 -6 -11
-15 -46 -18 -77 -6 -47 -4 -60 12 -77 16 -17 26 -20 64 -15 25 3 85 -1 135 -9
122 -20 374 -20 401 0 11 8 14 15 7 15 -19 0 -16 41 5 57 9 8 12 12 6 9 -25
-12 -33 84 -9 104 8 7 15 28 15 46 0 27 4 34 20 34 15 0 22 -9 26 -30 4 -17
15 -32 26 -36 11 -3 26 -21 34 -40 12 -29 12 -39 0 -69 -9 -20 -11 -37 -5 -40
5 -4 9 -15 9 -26 0 -25 15 -24 34 3 10 14 16 44 16 75 0 38 5 58 18 71 15 15
20 41 25 133 7 143 -2 206 -34 232 -21 17 -34 19 -109 13 -174 -12 -217 -14
-305 -16 -49 -1 -106 -5 -126 -9 -28 -6 -40 -4 -58 10 -26 21 -36 22 -68 7z"/>
</g>
</svg>
