<?xml version="1.0" standalone="no"?>
<!DOCTYPE svg PUBLIC "-//W3C//DTD SVG 20010904//EN"
 "http://www.w3.org/TR/2001/REC-SVG-20010904/DTD/svg10.dtd">
<svg version="1.0" xmlns="http://www.w3.org/2000/svg"
 width="25.000000pt" height="56.000000pt" viewBox="0 0 25.000000 56.000000"
 preserveAspectRatio="xMidYMid meet">
<metadata>
Created by potrace 1.14, written by Peter Selinger 2001-2017
</metadata>
<g transform="translate(0.000000,56.000000) scale(0.100000,-0.100000)"
fill="#000000" stroke="none">
<path fill="#000000" stroke="none" d="M110 545 c-19 -23 -3 -128 24 -154 18
-17 25 -18 45 -8 32 16 39 37 12 37 -17 0 -21 6 -21 33 0 18 5 38 11 44 9 9 8
18 -5 37 -18 29 -47 34 -66 11z"/>
<path fill="#000000" stroke="none" d="M13 449 c-16 -61 -7 -146 18 -160 11
-5 19 -16 19 -23 0 -8 6 -19 13 -25 9 -7 16 -47 21 -113 6 -100 15 -128 42
-128 11 0 14 20 14 88 1 96 9 95 35 -4 20 -77 36 -94 58 -61 15 23 14 29 -13
94 -15 39 -35 105 -44 148 -9 43 -19 81 -22 84 -3 3 -31 6 -62 6 l-57 0 -5 70
-5 70 -12 -46z"/>
</g>
</svg>
