<?xml version="1.0" standalone="no"?>
<!DOCTYPE svg PUBLIC "-//W3C//DTD SVG 20010904//EN"
 "http://www.w3.org/TR/2001/REC-SVG-20010904/DTD/svg10.dtd">
<svg version="1.0" xmlns="http://www.w3.org/2000/svg"
 width="14.000000pt" height="20.000000pt" viewBox="0 0 14.000000 20.000000"
 preserveAspectRatio="xMidYMid meet">
<metadata>
Created by potrace 1.14, written by Peter Selinger 2001-2017
</metadata>
<g transform="translate(0.000000,20.000000) scale(0.100000,-0.100000)"
fill="#000000" stroke="none">
<path fill="#000000" stroke="none" d="M37 194 c-4 -4 -7 -15 -7 -24 0 -10 -7
-23 -15 -30 -8 -7 -15 -26 -15 -43 0 -29 1 -29 19 -13 20 19 24 16 55 -45 l19
-35 23 23 c34 34 34 100 0 113 -14 5 -26 19 -28 32 -3 23 -36 37 -51 22z"/>
</g>
</svg>
