<?xml version="1.0" standalone="no"?>
<!DOCTYPE svg PUBLIC "-//W3C//DTD SVG 20010904//EN"
 "http://www.w3.org/TR/2001/REC-SVG-20010904/DTD/svg10.dtd">
<svg version="1.0" xmlns="http://www.w3.org/2000/svg"
 width="124.000000pt" height="137.000000pt" viewBox="0 0 124.000000 137.000000"
 preserveAspectRatio="xMidYMid meet">
<metadata>
Created by potrace 1.14, written by Peter Selinger 2001-2017
</metadata>
<g transform="translate(0.000000,137.000000) scale(0.100000,-0.100000)"
fill="#000000" stroke="none">
<path fill="#000000" stroke="none" d="M558 1363 l-97 -4 -11 -42 c-6 -23 -22
-83 -36 -133 -13 -52 -24 -120 -24 -155 0 -91 -17 -108 -155 -155 -60 -21
-113 -42 -116 -47 -4 -5 -10 -50 -13 -101 -4 -50 -14 -116 -21 -146 -8 -31
-25 -128 -39 -217 -13 -89 -29 -170 -35 -182 -6 -11 -11 -53 -11 -94 l0 -74
112 -6 c175 -10 258 -8 375 9 84 13 153 15 308 11 110 -3 217 -10 237 -15 l37
-10 8 77 c7 66 7 490 1 741 -2 47 1 130 6 185 l9 101 36 13 c20 7 52 15 72 18
l35 5 -8 56 c-4 32 -5 83 -2 115 l7 57 -289 -2 c-159 -1 -333 -4 -386 -5z"/>
</g>
</svg>
