<?xml version="1.0" standalone="no"?>
<!DOCTYPE svg PUBLIC "-//W3C//DTD SVG 20010904//EN"
 "http://www.w3.org/TR/2001/REC-SVG-20010904/DTD/svg10.dtd">
<svg version="1.0" xmlns="http://www.w3.org/2000/svg"
 width="374.000000pt" height="80.000000pt" viewBox="0 0 374.000000 80.000000"
 preserveAspectRatio="xMidYMid meet">
<metadata>
Created by potrace 1.14, written by Peter Selinger 2001-2017
</metadata>
<g transform="translate(0.000000,80.000000) scale(0.100000,-0.100000)"
fill="#000000" stroke="none">
<path fill="#000000" stroke="none" d="M1930 783 c-95 -10 -140 -11 -152 -3
-10 5 -49 10 -87 10 -57 0 -126 -16 -363 -81 -280 -77 -300 -84 -441 -157 -95
-49 -152 -84 -157 -98 -6 -14 -24 -24 -62 -32 -42 -10 -117 -55 -363 -217
l-310 -205 1857 0 1858 0 4 22 c7 35 27 641 21 646 -10 11 -757 73 -1155 96
-234 14 -445 27 -470 29 -25 2 -106 -2 -180 -10z"/>
</g>
</svg>
