<?xml version="1.0" standalone="no"?>
<!DOCTYPE svg PUBLIC "-//W3C//DTD SVG 20010904//EN"
 "http://www.w3.org/TR/2001/REC-SVG-20010904/DTD/svg10.dtd">
<svg version="1.0" xmlns="http://www.w3.org/2000/svg"
 width="36.000000pt" height="63.000000pt" viewBox="0 0 36.000000 63.000000"
 preserveAspectRatio="xMidYMid meet">
<metadata>
Created by potrace 1.14, written by Peter Selinger 2001-2017
</metadata>
<g transform="translate(0.000000,63.000000) scale(0.100000,-0.100000)"
fill="#000000" stroke="none">
<path fill="#000000" stroke="none" d="M73 617 c-43 -16 -53 -28 -63 -72 -11
-47 -5 -60 29 -75 22 -9 37 -30 64 -88 19 -42 38 -85 41 -96 12 -35 -5 -83
-49 -136 -45 -54 -60 -96 -47 -129 6 -18 18 -13 122 60 169 117 192 136 188
166 -2 20 -15 30 -58 48 -36 16 -55 29 -54 40 16 166 15 190 -8 230 -36 62
-90 79 -165 52z"/>
</g>
</svg>
