<?xml version="1.0" standalone="no"?>
<!DOCTYPE svg PUBLIC "-//W3C//DTD SVG 20010904//EN"
 "http://www.w3.org/TR/2001/REC-SVG-20010904/DTD/svg10.dtd">
<svg version="1.0" xmlns="http://www.w3.org/2000/svg"
 width="17.000000pt" height="63.000000pt" viewBox="0 0 17.000000 63.000000"
 preserveAspectRatio="xMidYMid meet">
<metadata>
Created by potrace 1.14, written by Peter Selinger 2001-2017
</metadata>
<g transform="translate(0.000000,63.000000) scale(0.100000,-0.100000)"
fill="#000000" stroke="none">
<path fill="#000000" stroke="none" d="M102 622 c-20 -3 -22 -8 -17 -36 6 -28
3 -35 -20 -50 l-27 -18 6 -142 c4 -77 12 -155 17 -173 8 -25 6 -37 -11 -65
-11 -18 -20 -29 -20 -24 0 5 -7 3 -15 -4 -12 -10 -10 -16 18 -38 18 -15 39
-35 47 -45 9 -10 30 -20 47 -21 27 -2 30 0 22 15 -5 10 -14 21 -20 25 -12 7
-7 76 16 248 10 67 11 114 5 146 -6 34 -5 62 5 101 8 30 15 57 15 60 0 11 -45
25 -68 21z"/>
</g>
</svg>
