<?xml version="1.0" standalone="no"?>
<!DOCTYPE svg PUBLIC "-//W3C//DTD SVG 20010904//EN"
 "http://www.w3.org/TR/2001/REC-SVG-20010904/DTD/svg10.dtd">
<svg version="1.0" xmlns="http://www.w3.org/2000/svg"
 width="105.000000pt" height="163.000000pt" viewBox="0 0 105.000000 163.000000"
 preserveAspectRatio="xMidYMid meet">
<metadata>
Created by potrace 1.14, written by Peter Selinger 2001-2017
</metadata>
<g transform="translate(0.000000,163.000000) scale(0.100000,-0.100000)"
fill="#000000" stroke="none">
<path fill="#000000" stroke="none" d="M65 1598 c-3 -18 -18 -148 -34 -289
l-29 -255 59 -270 c32 -148 59 -279 59 -290 0 -12 -16 -88 -36 -169 -19 -81
-33 -150 -30 -152 4 -4 478 -130 629 -167 l27 -6 0 197 1 198 73 296 72 297
98 107 99 108 -7 61 c-3 33 -13 125 -22 202 l-17 142 -161 6 c-89 3 -299 8
-468 12 l-307 5 -6 -33z"/>
</g>
</svg>
