<?xml version="1.0" standalone="no"?>
<!DOCTYPE svg PUBLIC "-//W3C//DTD SVG 20010904//EN"
 "http://www.w3.org/TR/2001/REC-SVG-20010904/DTD/svg10.dtd">
<svg version="1.0" xmlns="http://www.w3.org/2000/svg"
 width="56.000000pt" height="110.000000pt" viewBox="0 0 56.000000 110.000000"
 preserveAspectRatio="xMidYMid meet">
<metadata>
Created by potrace 1.14, written by Peter Selinger 2001-2017
</metadata>
<g transform="translate(0.000000,110.000000) scale(0.100000,-0.100000)"
fill="#000000" stroke="none">
<path fill="#000000" stroke="none" d="M285 1095 c-5 -2 -28 -7 -50 -10 l-40
-7 41 -18 c36 -16 41 -23 57 -77 9 -33 19 -88 22 -124 6 -63 5 -67 -68 -244
-115 -277 -202 -477 -224 -512 -13 -21 -18 -44 -15 -67 l4 -36 205 0 205 0 -5
22 c-3 13 -11 61 -18 108 l-12 85 82 246 c45 135 84 268 87 295 3 27 1 86 -4
132 -16 137 -70 193 -197 205 -33 4 -64 4 -70 2z"/>
</g>
</svg>
