<?xml version="1.0" standalone="no"?>
<!DOCTYPE svg PUBLIC "-//W3C//DTD SVG 20010904//EN"
 "http://www.w3.org/TR/2001/REC-SVG-20010904/DTD/svg10.dtd">
<svg version="1.0" xmlns="http://www.w3.org/2000/svg"
 width="10.000000pt" height="29.000000pt" viewBox="0 0 10.000000 29.000000"
 preserveAspectRatio="xMidYMid meet">
<metadata>
Created by potrace 1.14, written by Peter Selinger 2001-2017
</metadata>
<g transform="translate(0.000000,29.000000) scale(0.100000,-0.100000)"
fill="#000000" stroke="none">
<path fill="#000000" stroke="none" d="M21 252 c-5 -20 -13 -55 -16 -77 -6
-37 -5 -39 9 -21 15 18 16 13 17 -70 1 -60 4 -81 9 -64 l8 25 1 -25 c1 -21 3
-22 14 -10 8 8 19 54 26 102 11 81 10 91 -8 127 -28 55 -48 59 -60 13z"/>
</g>
</svg>
