<?xml version="1.0" standalone="no"?>
<!DOCTYPE svg PUBLIC "-//W3C//DTD SVG 20010904//EN"
 "http://www.w3.org/TR/2001/REC-SVG-20010904/DTD/svg10.dtd">
<svg version="1.0" xmlns="http://www.w3.org/2000/svg"
 width="171.000000pt" height="274.000000pt" viewBox="0 0 171.000000 274.000000"
 preserveAspectRatio="xMidYMid meet">
<metadata>
Created by potrace 1.14, written by Peter Selinger 2001-2017
</metadata>
<g transform="translate(0.000000,274.000000) scale(0.100000,-0.100000)"
fill="#000000" stroke="none">
<path fill="#000000" stroke="none" d="M447 2733 l-109 -4 -101 -70 c-83 -56
-110 -82 -144 -133 -35 -55 -40 -68 -34 -97 5 -24 -2 -72 -26 -164 -18 -71
-33 -145 -33 -164 0 -44 100 -203 176 -282 l55 -55 -61 -43 c-54 -38 -61 -46
-56 -70 3 -14 12 -69 21 -121 9 -52 24 -111 34 -130 11 -20 21 -66 23 -105 5
-63 13 -86 85 -230 45 -88 92 -172 106 -187 25 -27 30 -28 125 -28 138 0 156
-5 176 -47 20 -41 22 -30 -79 -348 -35 -110 -79 -255 -98 -322 l-35 -123 168
0 c92 0 214 -3 271 -6 l104 -6 29 47 c32 51 16 48 145 29 33 -4 40 -10 48 -37
l9 -32 224 3 c124 2 227 6 229 8 3 2 0 32 -6 67 -8 53 -8 64 6 74 14 10 13 18
-6 80 -22 70 -36 167 -53 358 -8 103 -7 116 16 204 l26 93 -29 30 c-15 16 -42
38 -58 48 l-30 19 14 143 14 143 -143 262 c-151 277 -254 422 -336 474 -21 13
-41 26 -46 29 -4 3 3 62 17 130 13 69 25 135 25 148 0 13 -44 94 -97 181 l-97
157 -151 42 c-84 23 -165 41 -181 40 -16 -1 -78 -4 -137 -5z"/>
<path fill="#ffffff" stroke="none" d="M1079 1676 c30 -32 30 -94 1 -141 -22
-35 -34 -42 -87 -47 -74 -6 -126 79 -88 146 28 49 55 66 106 66 36 0 51 -5 68
-24z"/>
</g>
</svg>
