<?xml version="1.0" standalone="no"?>
<!DOCTYPE svg PUBLIC "-//W3C//DTD SVG 20010904//EN"
 "http://www.w3.org/TR/2001/REC-SVG-20010904/DTD/svg10.dtd">
<svg version="1.0" xmlns="http://www.w3.org/2000/svg"
 width="25.000000pt" height="23.000000pt" viewBox="0 0 25.000000 23.000000"
 preserveAspectRatio="xMidYMid meet">
<metadata>
Created by potrace 1.14, written by Peter Selinger 2001-2017
</metadata>
<g transform="translate(0.000000,23.000000) scale(0.100000,-0.100000)"
fill="#000000" stroke="none">
<path fill="#000000" stroke="none" d="M175 221 c-3 -5 -27 -17 -54 -26 -67
-22 -117 -84 -113 -138 3 -34 5 -36 24 -26 15 8 30 6 68 -10 27 -12 51 -21 54
-21 2 0 8 25 11 55 7 50 10 56 44 72 39 19 53 61 30 89 -13 16 -55 19 -64 5z"/>
</g>
</svg>
