<?xml version="1.0" standalone="no"?>
<!DOCTYPE svg PUBLIC "-//W3C//DTD SVG 20010904//EN"
 "http://www.w3.org/TR/2001/REC-SVG-20010904/DTD/svg10.dtd">
<svg version="1.0" xmlns="http://www.w3.org/2000/svg"
 width="32.000000pt" height="67.000000pt" viewBox="0 0 32.000000 67.000000"
 preserveAspectRatio="xMidYMid meet">
<metadata>
Created by potrace 1.14, written by Peter Selinger 2001-2017
</metadata>
<g transform="translate(0.000000,67.000000) scale(0.100000,-0.100000)"
fill="#000000" stroke="none">
<path fill="#000000" stroke="none" d="M64 659 c-20 -6 -36 -20 -47 -44 -23
-48 -21 -86 6 -138 20 -37 25 -70 37 -223 7 -98 16 -186 21 -195 5 -9 24 -26
43 -37 l35 -21 11 52 c6 29 22 107 37 175 l27 123 43 11 c23 5 40 15 37 20 -3
5 -9 7 -12 4 -15 -15 -35 43 -38 112 -7 146 -72 198 -200 161z"/>
</g>
</svg>
