<?xml version="1.0" standalone="no"?>
<!DOCTYPE svg PUBLIC "-//W3C//DTD SVG 20010904//EN"
 "http://www.w3.org/TR/2001/REC-SVG-20010904/DTD/svg10.dtd">
<svg version="1.0" xmlns="http://www.w3.org/2000/svg"
 width="162.000000pt" height="266.000000pt" viewBox="0 0 162.000000 266.000000"
 preserveAspectRatio="xMidYMid meet">
<metadata>
Created by potrace 1.14, written by Peter Selinger 2001-2017
</metadata>
<g transform="translate(0.000000,266.000000) scale(0.100000,-0.100000)"
fill="#000000" stroke="none">
<path fill="#000000" stroke="none" d="M196 2630 c-3 -14 -10 -76 -17 -138
l-12 -113 -56 6 c-31 3 -69 8 -86 11 -21 3 -5 -8 48 -36 61 -32 77 -45 77 -63
0 -16 22 -38 78 -80 42 -32 107 -94 143 -138 64 -78 67 -84 88 -182 13 -56 25
-112 28 -124 5 -22 2 -23 -45 -23 -58 0 -57 2 -67 -110 -12 -129 -14 -135
-172 -350 l-149 -205 200 -158 201 -157 49 -219 c27 -121 52 -225 57 -232 5
-8 104 44 327 172 262 150 317 185 300 192 -58 21 -120 81 -153 148 -33 64
-35 75 -35 162 0 52 -3 115 -6 140 l-7 47 -40 -25 -41 -24 -44 82 c-79 147
-292 575 -292 587 0 6 20 32 44 58 35 38 52 70 86 167 24 66 48 125 54 131 6
6 37 22 69 34 31 13 57 27 57 31 0 3 -24 25 -52 46 -52 39 -54 44 -108 187
-30 80 -59 146 -65 147 -5 0 -110 12 -232 27 l-222 28 -5 -26z"/>
<path fill="#000000" stroke="none" d="M1155 1284 l-70 -45 105 7 c58 3 106 7
107 8 4 4 -59 76 -65 75 -4 0 -38 -21 -77 -45z"/>
<path fill="#000000" stroke="none" d="M1340 1199 c0 -3 18 -52 40 -109 39
-98 40 -107 34 -177 -6 -70 -10 -78 -63 -148 -48 -63 -61 -74 -91 -77 -33 -3
-30 -5 38 -28 l72 -24 0 -117 0 -116 48 -6 c26 -2 54 -7 62 -11 11 -4 30 24
77 114 l61 119 -106 254 c-66 158 -119 269 -139 293 -18 22 -32 36 -33 33z"/>
<path fill="#000000" stroke="none" d="M1360 279 c-36 -10 -92 -19 -126 -19
-110 0 -108 -9 21 -142 63 -65 115 -116 115 -115 0 35 45 227 60 257 24 46 23
47 -70 19z"/>
</g>
</svg>
