<?xml version="1.0" standalone="no"?>
<!DOCTYPE svg PUBLIC "-//W3C//DTD SVG 20010904//EN"
 "http://www.w3.org/TR/2001/REC-SVG-20010904/DTD/svg10.dtd">
<svg version="1.0" xmlns="http://www.w3.org/2000/svg"
 width="140.000000pt" height="268.000000pt" viewBox="0 0 140.000000 268.000000"
 preserveAspectRatio="xMidYMid meet">
<metadata>
Created by potrace 1.14, written by Peter Selinger 2001-2017
</metadata>
<g transform="translate(0.000000,268.000000) scale(0.100000,-0.100000)"
fill="#000000" stroke="none">
<path fill="#000000" stroke="none" d="M660 2629 c-36 -28 -73 -58 -83 -68
-10 -9 -33 -76 -53 -150 l-35 -134 36 -105 c21 -64 31 -108 25 -112 -5 -3 -77
-24 -160 -46 l-149 -39 -70 -125 c-62 -112 -75 -144 -117 -300 -58 -217 -66
-326 -33 -448 13 -44 21 -103 20 -137 0 -33 0 -166 0 -295 l1 -234 55 -111
c60 -120 122 -195 230 -277 l62 -48 482 0 481 0 -7 27 c-4 16 -10 134 -13 263
l-7 235 -94 140 c-52 77 -114 166 -138 198 -24 33 -43 63 -43 67 0 5 54 41
120 82 l119 73 1 46 c0 38 5 50 36 80 20 18 39 41 44 49 4 8 13 75 20 148 l13
133 -28 67 c-16 37 -33 72 -40 77 -6 6 -15 24 -19 40 -3 17 -20 62 -37 102
-30 68 -35 74 -110 124 -43 29 -79 54 -79 56 0 2 7 15 16 28 12 18 15 37 10
68 -4 24 -2 55 3 69 5 14 11 71 13 128 l3 103 -135 98 c-74 54 -160 117 -190
139 -30 22 -62 39 -70 39 -8 0 -44 -23 -80 -50z"/>
<path fill="#ffffff" stroke="none" d="M940 1570 c12 -8 8 -16 -25 -50 -38
-39 -42 -41 -85 -35 -68 9 -102 9 -137 0 -26 -6 -33 -4 -33 7 0 12 18 17 76
22 61 6 83 13 116 36 43 31 63 36 88 20z"/>
<path fill="#ffffff" stroke="none" d="M1059 1273 c103 -25 116 -31 132 -58
l19 -30 -68 -68 c-65 -66 -70 -68 -178 -102 -207 -65 -313 -46 -409 71 l-44
54 19 43 c17 37 27 45 87 71 120 52 279 58 442 19z"/>
</g>
</svg>
