<?xml version="1.0" standalone="no"?>
<!DOCTYPE svg PUBLIC "-//W3C//DTD SVG 20010904//EN"
 "http://www.w3.org/TR/2001/REC-SVG-20010904/DTD/svg10.dtd">
<svg version="1.0" xmlns="http://www.w3.org/2000/svg"
 width="62.000000pt" height="77.000000pt" viewBox="0 0 62.000000 77.000000"
 preserveAspectRatio="xMidYMid meet">
<metadata>
Created by potrace 1.14, written by Peter Selinger 2001-2017
</metadata>
<g transform="translate(0.000000,77.000000) scale(0.100000,-0.100000)"
fill="#000000" stroke="none">
<path fill="#000000" stroke="none" d="M315 750 c-106 -27 -198 -72 -213 -104
-9 -21 -18 -26 -39 -24 -23 2 -31 -3 -47 -33 l-20 -37 38 -63 c37 -62 76 -185
76 -239 0 -15 7 -46 15 -69 11 -33 12 -53 4 -91 -13 -61 1 -97 30 -78 32 20
61 123 61 218 0 75 3 90 25 123 14 20 23 37 19 37 -3 0 -1 7 6 15 17 20 44 1
75 -51 13 -23 35 -48 48 -57 22 -14 30 -14 70 -2 l46 14 11 -37 c5 -20 10 -43
10 -51 0 -8 2 -12 5 -9 6 6 85 314 85 333 0 21 -16 19 -58 -10 -54 -37 -63
-33 -55 20 5 41 3 49 -22 75 l-27 29 21 29 c55 77 -9 101 -164 62z"/>
</g>
</svg>
