<?xml version="1.0" standalone="no"?>
<!DOCTYPE svg PUBLIC "-//W3C//DTD SVG 20010904//EN"
 "http://www.w3.org/TR/2001/REC-SVG-20010904/DTD/svg10.dtd">
<svg version="1.0" xmlns="http://www.w3.org/2000/svg"
 width="54.000000pt" height="83.000000pt" viewBox="0 0 54.000000 83.000000"
 preserveAspectRatio="xMidYMid meet">
<metadata>
Created by potrace 1.14, written by Peter Selinger 2001-2017
</metadata>
<g transform="translate(0.000000,83.000000) scale(0.100000,-0.100000)"
fill="#000000" stroke="none">
<path fill="#000000" stroke="none" d="M197 763 c-8 -38 -18 -82 -22 -100 -4
-22 0 -46 14 -79 18 -40 21 -67 21 -201 0 -210 -8 -225 -135 -264 -22 -6 -48
-18 -57 -27 -21 -17 -24 -53 -6 -47 7 2 66 6 131 10 l118 6 -16 -24 c-15 -23
-15 -25 7 -31 44 -11 143 -6 211 11 67 18 68 18 61 48 -3 16 -12 47 -19 69
-12 34 -10 59 12 205 23 146 25 173 14 221 -7 30 -15 103 -18 163 l-6 107
-148 0 -147 0 -15 -67z"/>
</g>
</svg>
