<?xml version="1.0" standalone="no"?>
<!DOCTYPE svg PUBLIC "-//W3C//DTD SVG 20010904//EN"
 "http://www.w3.org/TR/2001/REC-SVG-20010904/DTD/svg10.dtd">
<svg version="1.0" xmlns="http://www.w3.org/2000/svg"
 width="57.000000pt" height="80.000000pt" viewBox="0 0 57.000000 80.000000"
 preserveAspectRatio="xMidYMid meet">
<metadata>
Created by potrace 1.14, written by Peter Selinger 2001-2017
</metadata>
<g transform="translate(0.000000,80.000000) scale(0.100000,-0.100000)"
fill="#000000" stroke="none">
<path fill="#000000" stroke="none" d="M372 784 c-50 -11 -75 -24 -120 -61
-77 -65 -90 -82 -98 -128 -6 -36 -4 -42 25 -65 18 -15 31 -36 31 -49 0 -12 11
-37 24 -54 35 -47 41 -75 20 -98 -23 -26 -38 -24 -58 6 -19 29 -75 35 -99 10
-13 -12 -17 -12 -27 0 -6 7 -24 18 -41 24 -42 14 -38 -4 11 -49 35 -33 42 -46
51 -100 8 -49 6 -75 -6 -122 -11 -44 -12 -64 -4 -74 14 -17 54 -2 94 36 24 23
45 31 100 39 63 10 77 8 145 -14 60 -20 78 -31 92 -55 9 -17 21 -30 27 -30 16
0 25 108 11 125 -7 8 -9 22 -6 31 4 10 1 51 -5 93 -10 70 -9 80 10 124 24 55
27 120 7 156 -10 18 -11 35 -3 69 7 36 6 57 -7 98 -14 44 -24 57 -61 78 -24
14 -45 26 -47 25 -2 -1 -31 -7 -66 -15z"/>
</g>
</svg>
