<?xml version="1.0" standalone="no"?>
<!DOCTYPE svg PUBLIC "-//W3C//DTD SVG 20010904//EN"
 "http://www.w3.org/TR/2001/REC-SVG-20010904/DTD/svg10.dtd">
<svg version="1.0" xmlns="http://www.w3.org/2000/svg"
 width="100.000000pt" height="130.000000pt" viewBox="0 0 100.000000 130.000000"
 preserveAspectRatio="xMidYMid meet">
<metadata>
Created by potrace 1.14, written by Peter Selinger 2001-2017
</metadata>
<g transform="translate(0.000000,130.000000) scale(0.100000,-0.100000)"
fill="#000000" stroke="none">
<path fill="#000000" stroke="none" d="M41 1274 l-43 -27 7 -70 c3 -38 11 -81
16 -94 14 -36 10 -105 -6 -127 -24 -32 -18 -77 19 -131 28 -42 34 -62 38 -117
3 -52 9 -73 27 -91 35 -38 83 -172 76 -210 -17 -85 -39 -137 -57 -137 -30 0
-21 -16 38 -67 31 -26 64 -64 74 -83 10 -19 27 -43 39 -54 18 -16 26 -17 65
-7 75 19 97 14 138 -26 l38 -37 0 28 c0 15 -5 36 -10 46 -6 11 -15 73 -20 137
-5 69 -17 142 -28 174 -46 131 -47 158 -13 369 7 45 6 60 -8 80 -9 14 -18 52
-21 85 l-5 60 -64 17 c-35 9 -65 19 -68 22 -2 2 0 21 6 41 8 32 6 43 -14 83
-14 26 -27 68 -30 94 -7 52 -9 53 -95 63 -48 5 -61 2 -99 -21z"/>
<path fill="#000000" stroke="none" d="M932 580 c-7 -11 -29 -28 -48 -38 -30
-14 -35 -20 -31 -42 17 -81 42 -104 97 -86 31 10 36 16 44 57 8 40 6 50 -18
87 -14 23 -27 42 -29 42 -1 0 -8 -9 -15 -20z"/>
</g>
</svg>
