<?xml version="1.0" standalone="no"?>
<!DOCTYPE svg PUBLIC "-//W3C//DTD SVG 20010904//EN"
 "http://www.w3.org/TR/2001/REC-SVG-20010904/DTD/svg10.dtd">
<svg version="1.0" xmlns="http://www.w3.org/2000/svg"
 width="58.000000pt" height="91.000000pt" viewBox="0 0 58.000000 91.000000"
 preserveAspectRatio="xMidYMid meet">
<metadata>
Created by potrace 1.14, written by Peter Selinger 2001-2017
</metadata>
<g transform="translate(0.000000,91.000000) scale(0.100000,-0.100000)"
fill="#000000" stroke="none">
<path fill="#000000" stroke="none" d="M480 880 c-13 -31 -28 -38 -95 -42
l-40 -3 -6 -50 c-4 -27 -10 -107 -14 -177 l-8 -127 -106 -53 -106 -53 -11 -85
c-8 -66 -19 -103 -51 -165 -34 -68 -39 -84 -30 -104 l11 -23 271 7 c148 4 271
8 272 9 1 1 3 190 4 421 l3 418 -34 29 c-19 15 -37 28 -41 28 -4 0 -12 -14
-19 -30z"/>
<path fill="#ffffff" stroke="none" d="M444 594 c10 -25 7 -131 -3 -116 -7 12
-14 11 -40 -2 -38 -20 -40 -11 -4 26 30 31 16 37 -30 13 l-28 -14 6 37 c10 56
12 60 37 65 45 8 56 7 62 -9z"/>
</g>
</svg>
