<?xml version="1.0" standalone="no"?>
<!DOCTYPE svg PUBLIC "-//W3C//DTD SVG 20010904//EN"
 "http://www.w3.org/TR/2001/REC-SVG-20010904/DTD/svg10.dtd">
<svg version="1.0" xmlns="http://www.w3.org/2000/svg"
 width="19.000000pt" height="35.000000pt" viewBox="0 0 19.000000 35.000000"
 preserveAspectRatio="xMidYMid meet">
<metadata>
Created by potrace 1.14, written by Peter Selinger 2001-2017
</metadata>
<g transform="translate(0.000000,35.000000) scale(0.100000,-0.100000)"
fill="#000000" stroke="none">
<path fill="#000000" stroke="none" d="M105 329 c-27 -10 -56 -17 -63 -14 -9
3 -10 0 -2 -15 7 -13 7 -33 0 -62 -5 -24 -10 -84 -10 -135 0 -79 -2 -92 -17
-96 -10 -3 1 -5 23 -6 46 -1 49 2 59 73 4 25 11 48 15 51 5 3 16 -15 25 -40
15 -38 16 -47 4 -62 -12 -15 -12 -16 4 -10 10 4 25 7 33 7 18 0 18 28 -1 101
-12 45 -13 69 -6 97 7 26 7 51 -2 84 l-12 46 -50 -19z"/>
</g>
</svg>
