<?xml version="1.0" standalone="no"?>
<!DOCTYPE svg PUBLIC "-//W3C//DTD SVG 20010904//EN"
 "http://www.w3.org/TR/2001/REC-SVG-20010904/DTD/svg10.dtd">
<svg version="1.0" xmlns="http://www.w3.org/2000/svg"
 width="21.000000pt" height="67.000000pt" viewBox="0 0 21.000000 67.000000"
 preserveAspectRatio="xMidYMid meet">
<metadata>
Created by potrace 1.14, written by Peter Selinger 2001-2017
</metadata>
<g transform="translate(0.000000,67.000000) scale(0.100000,-0.100000)"
fill="#000000" stroke="none">
<path fill="#000000" stroke="none" d="M66 654 c-3 -9 -6 -26 -6 -39 0 -15
-11 -32 -30 -45 -31 -22 -37 -51 -24 -118 6 -29 7 -30 93 -39 55 -6 88 -6 92
0 4 5 10 33 14 61 6 49 5 52 -29 83 -19 18 -40 50 -47 73 -10 31 -17 40 -35
40 -12 0 -25 -7 -28 -16z"/>
<path fill="#000000" stroke="none" d="M46 253 c18 -87 34 -177 34 -199 0 -41
0 -42 40 -46 28 -2 42 1 47 12 4 8 8 93 8 187 l0 172 -25 5 c-14 3 -43 8 -65
12 -22 3 -47 8 -56 10 -14 4 -11 -19 17 -153z"/>
</g>
</svg>
