<?xml version="1.0" standalone="no"?>
<!DOCTYPE svg PUBLIC "-//W3C//DTD SVG 20010904//EN"
 "http://www.w3.org/TR/2001/REC-SVG-20010904/DTD/svg10.dtd">
<svg version="1.0" xmlns="http://www.w3.org/2000/svg"
 width="276.000000pt" height="237.000000pt" viewBox="0 0 276.000000 237.000000"
 preserveAspectRatio="xMidYMid meet">
<metadata>
Created by potrace 1.14, written by Peter Selinger 2001-2017
</metadata>
<g transform="translate(0.000000,237.000000) scale(0.100000,-0.100000)"
fill="#000000" stroke="none">
<path fill="#000000" stroke="none" d="M875 2356 c-33 -7 -82 -24 -110 -38
-27 -14 -77 -33 -111 -43 -37 -10 -84 -34 -125 -64 -58 -43 -67 -55 -91 -117
-18 -46 -30 -98 -34 -155 l-6 -85 50 -100 c27 -54 57 -127 67 -161 21 -74 20
-75 -65 -133 -30 -20 -85 -66 -121 -101 -83 -80 -203 -265 -214 -329 -4 -25
-32 -110 -61 -188 -30 -79 -54 -150 -54 -156 0 -14 96 -66 121 -66 32 0 107
-47 203 -129 119 -100 177 -138 234 -153 23 -6 42 -12 42 -14 0 -13 -121 -218
-152 -258 -21 -27 -38 -52 -38 -55 0 -4 505 -8 1123 -9 l1122 -2 51 92 51 93
-24 59 c-14 33 -36 74 -49 92 -32 42 -127 81 -218 89 -38 4 -83 13 -100 20
-33 14 -323 71 -414 82 -65 7 -82 23 -82 72 0 35 -4 40 -40 56 -23 10 -43 22
-46 26 -2 4 8 32 22 62 l27 55 -29 26 c-16 15 -55 40 -86 56 -55 29 -58 32
-58 68 l0 39 56 -8 c30 -4 106 -9 167 -10 109 -3 115 -2 216 37 97 36 107 43
147 94 l44 55 0 123 0 122 -41 0 -42 0 6 36 c6 33 0 44 -53 115 -33 43 -65 81
-71 84 -5 4 -33 -2 -62 -13 -29 -12 -61 -22 -72 -24 -31 -5 -33 -67 -2 -104
60 -72 58 -93 -15 -170 l-49 -52 -52 14 c-35 9 -61 24 -81 45 -16 18 -82 62
-148 99 l-120 68 1 145 2 145 -43 30 c-37 26 -47 42 -77 119 -61 161 -93 210
-204 321 l-103 102 -64 5 c-36 2 -92 -2 -125 -9z"/>
</g>
</svg>
