<?xml version="1.0" standalone="no"?>
<!DOCTYPE svg PUBLIC "-//W3C//DTD SVG 20010904//EN"
 "http://www.w3.org/TR/2001/REC-SVG-20010904/DTD/svg10.dtd">
<svg version="1.0" xmlns="http://www.w3.org/2000/svg"
 width="114.000000pt" height="310.000000pt" viewBox="0 0 114.000000 310.000000"
 preserveAspectRatio="xMidYMid meet">
<metadata>
Created by potrace 1.14, written by Peter Selinger 2001-2017
</metadata>
<g transform="translate(0.000000,310.000000) scale(0.100000,-0.100000)"
fill="#000000" stroke="none">
<path fill="#000000" stroke="none" d="M630 3089 c-41 -3 -95 -11 -120 -18
l-45 -12 -24 -129 c-29 -157 -23 -190 47 -257 l45 -43 -86 0 c-72 0 -95 -4
-149 -29 l-64 -28 -68 -163 -69 -162 17 -126 17 -127 -63 -321 -64 -322 23
-63 c24 -62 24 -65 14 -258 l-11 -196 24 -20 c13 -11 78 -68 144 -128 96 -85
122 -104 126 -90 2 10 19 91 37 180 18 90 33 162 34 160 5 -8 -17 -538 -26
-612 -20 -165 -25 -253 -16 -273 5 -11 31 -26 64 -36 47 -15 62 -16 98 -6 50
14 52 19 61 145 4 50 12 97 19 105 7 8 20 30 29 48 16 32 16 37 0 83 l-18 49
52 217 c29 120 60 253 70 296 16 74 20 81 64 114 44 34 48 41 63 112 31 143
26 134 81 154 144 52 132 42 144 105 20 97 21 101 43 105 12 2 -12 5 -53 6
-95 2 -246 53 -294 100 -31 30 -32 33 -25 90 7 64 32 146 53 173 10 14 33 18
122 20 l109 3 12 75 c7 41 17 118 23 170 5 52 13 124 18 159 7 53 4 78 -12
137 -19 67 -24 74 -70 105 -27 19 -72 53 -99 75 l-50 41 2 70 c2 54 -1 73 -14
83 -28 23 -37 48 -25 70 9 17 4 32 -26 85 -45 82 -66 93 -164 84z"/>
<path fill="#ffffff" stroke="none" d="M938 2582 c10 -7 5 -29 -19 -103 -37
-114 -52 -144 -88 -188 l-27 -33 8 82 c16 172 71 276 126 242z"/>
<path fill="#000000" stroke="none" d="M1082 2240 c0 -19 2 -27 5 -17 2 9 2
25 0 35 -3 9 -5 1 -5 -18z"/>
</g>
</svg>
