<?xml version="1.0" standalone="no"?>
<!DOCTYPE svg PUBLIC "-//W3C//DTD SVG 20010904//EN"
 "http://www.w3.org/TR/2001/REC-SVG-20010904/DTD/svg10.dtd">
<svg version="1.0" xmlns="http://www.w3.org/2000/svg"
 width="41.000000pt" height="133.000000pt" viewBox="0 0 41.000000 133.000000"
 preserveAspectRatio="xMidYMid meet">
<metadata>
Created by potrace 1.14, written by Peter Selinger 2001-2017
</metadata>
<g transform="translate(0.000000,133.000000) scale(0.100000,-0.100000)"
fill="#000000" stroke="none">
<path fill="#000000" stroke="none" d="M107 1304 c-53 -27 -82 -64 -90 -116
-5 -35 -4 -36 29 -42 19 -4 34 -9 34 -11 0 -3 -18 -28 -40 -57 -40 -53 -40
-53 -40 -145 0 -50 5 -104 11 -120 7 -15 11 -61 10 -100 -2 -54 4 -94 23 -157
24 -79 25 -86 11 -126 -22 -63 -19 -86 22 -154 27 -43 41 -81 49 -131 6 -38
19 -87 27 -107 l16 -38 68 0 c48 0 63 3 53 10 -8 5 -10 10 -4 10 6 0 17 12 23
28 9 22 8 38 -8 83 -21 63 -36 198 -23 216 4 7 2 63 -4 125 -11 96 -10 116 2
136 13 19 13 26 -2 54 -25 48 -12 183 19 209 l22 19 -27 23 c-20 16 -28 32
-28 55 0 18 -4 32 -9 32 -5 0 -23 23 -39 52 l-30 52 29 33 c26 30 69 103 69
118 0 3 -6 5 -14 5 -8 0 -36 15 -64 33 l-49 34 -46 -23z"/>
<path fill="#ffffff" stroke="none" d="M202 181 c17 -95 25 -119 47 -139 25
-24 25 -23 -31 4 -33 16 -58 35 -59 44 0 8 -4 46 -8 85 -6 52 -4 85 8 130 15
56 16 58 19 25 1 -19 12 -86 24 -149z"/>
<path fill="#000000" stroke="none" d="M390 986 c0 -22 3 -27 11 -19 8 8 8 16
0 30 -9 16 -10 14 -11 -11z"/>
</g>
</svg>
