<?xml version="1.0" standalone="no"?>
<!DOCTYPE svg PUBLIC "-//W3C//DTD SVG 20010904//EN"
 "http://www.w3.org/TR/2001/REC-SVG-20010904/DTD/svg10.dtd">
<svg version="1.0" xmlns="http://www.w3.org/2000/svg"
 width="159.000000pt" height="304.000000pt" viewBox="0 0 159.000000 304.000000"
 preserveAspectRatio="xMidYMid meet">
<metadata>
Created by potrace 1.14, written by Peter Selinger 2001-2017
</metadata>
<g transform="translate(0.000000,304.000000) scale(0.100000,-0.100000)"
fill="#000000" stroke="none">
<path fill="#000000" stroke="none" d="M953 2997 c-34 -23 -69 -55 -79 -72 -9
-16 -64 -101 -121 -187 -98 -150 -104 -161 -114 -234 -11 -73 -14 -79 -77
-153 -36 -42 -76 -101 -90 -131 -14 -30 -80 -171 -148 -312 -81 -170 -133
-293 -155 -367 l-32 -111 -69 -22 -70 -22 7 -70 c8 -80 23 -108 76 -141 l36
-24 59 18 c63 20 76 35 48 56 -26 18 -11 30 35 26 34 -2 40 1 66 41 16 24 46
75 67 113 21 39 38 67 38 62 0 -4 -18 -80 -40 -170 -39 -161 -40 -166 -64
-572 -13 -226 -21 -413 -18 -416 4 -3 60 -28 125 -55 l117 -48 0 -103 c0 -80
3 -103 13 -103 8 0 53 42 101 94 l86 95 83 -29 c45 -15 99 -35 119 -44 21 -9
43 -16 51 -16 16 0 34 213 42 505 3 105 8 223 11 262 5 68 4 73 -14 73 -17 0
-22 13 -36 89 -9 49 -16 97 -16 106 0 10 25 69 56 131 51 104 66 124 174 237
l119 124 13 87 12 87 76 92 c67 81 81 105 115 200 l38 109 -17 53 c-13 42 -15
73 -10 147 l6 93 -62 175 c-50 138 -73 189 -111 241 -44 60 -56 69 -124 98
-66 27 -85 31 -167 30 -92 0 -94 -1 -155 -42z"/>
<path fill="#000000" stroke="none" d="M1473 1189 c-51 -53 -93 -102 -93 -107
0 -6 9 -26 20 -45 l20 -34 -30 -13 c-16 -7 -28 -16 -25 -20 3 -5 0 -21 -6 -37
-6 -15 -21 -192 -34 -393 -13 -201 -27 -394 -30 -430 l-6 -65 34 35 c28 28 47
72 102 229 l68 195 -16 122 -17 122 55 268 c30 147 54 268 53 268 -2 1 -45
-42 -95 -95z"/>
<path fill="#000000" stroke="none" d="M1135 916 c14 -10 26 -11 49 -3 46 15
44 17 -14 17 -48 0 -52 -1 -35 -14z"/>
</g>
</svg>
