<?xml version="1.0" standalone="no"?>
<!DOCTYPE svg PUBLIC "-//W3C//DTD SVG 20010904//EN"
 "http://www.w3.org/TR/2001/REC-SVG-20010904/DTD/svg10.dtd">
<svg version="1.0" xmlns="http://www.w3.org/2000/svg"
 width="27.000000pt" height="56.000000pt" viewBox="0 0 27.000000 56.000000"
 preserveAspectRatio="xMidYMid meet">
<metadata>
Created by potrace 1.14, written by Peter Selinger 2001-2017
</metadata>
<g transform="translate(0.000000,56.000000) scale(0.100000,-0.100000)"
fill="#000000" stroke="none">
<path fill="#000000" stroke="none" d="M81 541 c-17 -17 -19 -28 -14 -69 9
-77 -14 -188 -44 -216 -29 -28 -25 -41 15 -49 l29 -6 -5 -97 -5 -98 28 20 c26
20 29 20 64 3 20 -9 50 -19 67 -23 l32 -5 -5 39 c-3 21 -1 52 5 69 6 17 7 33
3 36 -5 2 -11 44 -15 92 -4 48 -10 101 -12 118 l-5 30 15 -32 c8 -18 20 -33
26 -33 6 0 -3 27 -20 59 -16 33 -32 78 -36 100 -9 53 -21 68 -66 76 -29 6 -40
3 -57 -14z"/>
</g>
</svg>
