<?xml version="1.0" standalone="no"?>
<!DOCTYPE svg PUBLIC "-//W3C//DTD SVG 20010904//EN"
 "http://www.w3.org/TR/2001/REC-SVG-20010904/DTD/svg10.dtd">
<svg version="1.0" xmlns="http://www.w3.org/2000/svg"
 width="11.000000pt" height="37.000000pt" viewBox="0 0 11.000000 37.000000"
 preserveAspectRatio="xMidYMid meet">
<metadata>
Created by potrace 1.14, written by Peter Selinger 2001-2017
</metadata>
<g transform="translate(0.000000,37.000000) scale(0.100000,-0.100000)"
fill="#000000" stroke="none">
<path fill="#000000" stroke="none" d="M20 360 c-12 -7 -15 -31 -15 -110 0
-55 3 -100 7 -100 4 0 14 -7 22 -16 18 -17 22 -99 6 -109 -5 -3 -10 -10 -10
-16 0 -12 50 -12 70 1 12 7 12 11 -3 28 -14 16 -16 30 -11 76 5 43 3 60 -8 74
-9 10 -18 48 -22 92 -7 81 -13 94 -36 80z"/>
</g>
</svg>
