<?xml version="1.0" standalone="no"?>
<!DOCTYPE svg PUBLIC "-//W3C//DTD SVG 20010904//EN"
 "http://www.w3.org/TR/2001/REC-SVG-20010904/DTD/svg10.dtd">
<svg version="1.0" xmlns="http://www.w3.org/2000/svg"
 width="51.000000pt" height="66.000000pt" viewBox="0 0 51.000000 66.000000"
 preserveAspectRatio="xMidYMid meet">
<metadata>
Created by potrace 1.14, written by Peter Selinger 2001-2017
</metadata>
<g transform="translate(0.000000,66.000000) scale(0.100000,-0.100000)"
fill="#000000" stroke="none">
<path fill="#000000" stroke="none" d="M158 602 c-52 -82 -56 -115 -23 -216
l28 -83 -22 -37 c-13 -20 -29 -36 -37 -36 -7 0 -34 -10 -59 -22 l-45 -22 0
-93 0 -93 255 0 c216 0 255 2 255 15 0 7 -5 36 -10 63 -13 58 -66 116 -120
129 -29 8 -36 15 -43 47 -9 38 -9 39 62 110 l71 72 -30 88 c-16 49 -31 91 -33
92 -4 4 -196 44 -206 43 -3 0 -22 -26 -43 -57z"/>
</g>
</svg>
