<?xml version="1.0" standalone="no"?>
<!DOCTYPE svg PUBLIC "-//W3C//DTD SVG 20010904//EN"
 "http://www.w3.org/TR/2001/REC-SVG-20010904/DTD/svg10.dtd">
<svg version="1.0" xmlns="http://www.w3.org/2000/svg"
 width="109.000000pt" height="122.000000pt" viewBox="0 0 109.000000 122.000000"
 preserveAspectRatio="xMidYMid meet">
<metadata>
Created by potrace 1.14, written by Peter Selinger 2001-2017
</metadata>
<g transform="translate(0.000000,122.000000) scale(0.100000,-0.100000)"
fill="#000000" stroke="none">
<path fill="#000000" stroke="none" d="M175 1167 l-120 -49 -24 -55 c-21 -48
-24 -69 -22 -147 1 -54 11 -122 23 -166 19 -70 25 -79 86 -136 l66 -61 -36
-134 c-20 -74 -44 -182 -54 -241 l-17 -107 29 -35 29 -35 460 2 459 2 17 55
c11 35 15 73 12 105 -6 59 -43 214 -80 337 l-26 88 -149 79 c-114 61 -168 84
-228 97 -44 10 -80 21 -80 25 0 4 18 39 40 78 49 87 54 110 45 203 -6 64 -11
78 -41 112 l-34 39 -37 -27 c-21 -14 -52 -39 -70 -54 l-32 -27 -21 -225 c-12
-123 -24 -228 -26 -232 -11 -17 -30 -7 -47 25 -16 31 -16 42 6 254 21 203 22
224 8 251 l-16 29 -120 -50z"/>
</g>
</svg>
