<?xml version="1.0" standalone="no"?>
<!DOCTYPE svg PUBLIC "-//W3C//DTD SVG 20010904//EN"
 "http://www.w3.org/TR/2001/REC-SVG-20010904/DTD/svg10.dtd">
<svg version="1.0" xmlns="http://www.w3.org/2000/svg"
 width="33.000000pt" height="59.000000pt" viewBox="0 0 33.000000 59.000000"
 preserveAspectRatio="xMidYMid meet">
<metadata>
Created by potrace 1.14, written by Peter Selinger 2001-2017
</metadata>
<g transform="translate(0.000000,59.000000) scale(0.100000,-0.100000)"
fill="#000000" stroke="none">
<path fill="#000000" stroke="none" d="M11 581 c-23 -15 -3 -105 24 -109 31
-6 45 -22 45 -53 0 -33 -39 -65 -67 -55 -15 6 -16 5 -6 -5 10 -10 25 -11 63
-3 l50 11 -6 -47 c-4 -31 -2 -50 5 -54 7 -5 11 7 11 38 0 48 12 65 35 46 12
-10 11 -19 -10 -60 -13 -26 -31 -50 -40 -53 -17 -7 -19 -55 -8 -170 5 -56 9
-67 24 -67 26 0 34 40 20 107 -23 115 -7 123 79 43 50 -47 61 -62 55 -79 -8
-28 20 -29 35 -1 14 25 -6 73 -50 123 l-32 37 36 61 c36 60 36 61 20 94 -21
45 -115 132 -150 141 -16 4 -41 20 -56 35 -27 30 -52 36 -77 20z"/>
</g>
</svg>
