<?xml version="1.0" standalone="no"?>
<!DOCTYPE svg PUBLIC "-//W3C//DTD SVG 20010904//EN"
 "http://www.w3.org/TR/2001/REC-SVG-20010904/DTD/svg10.dtd">
<svg version="1.0" xmlns="http://www.w3.org/2000/svg"
 width="19.000000pt" height="76.000000pt" viewBox="0 0 19.000000 76.000000"
 preserveAspectRatio="xMidYMid meet">
<metadata>
Created by potrace 1.14, written by Peter Selinger 2001-2017
</metadata>
<g transform="translate(0.000000,76.000000) scale(0.100000,-0.100000)"
fill="#000000" stroke="none">
<path fill="#000000" stroke="none" d="M163 724 c-42 -76 -94 -221 -113 -314
-11 -52 -22 -104 -25 -116 -7 -33 29 -44 101 -30 l59 12 3 122 c1 67 1 177 0
243 l-3 121 -22 -38z"/>
<path fill="#000000" stroke="none" d="M103 167 c-45 -12 -84 -24 -86 -27 -2
-3 -7 -35 -10 -73 l-6 -67 94 0 95 0 0 95 c0 52 -1 95 -2 94 -2 0 -40 -11 -85
-22z"/>
</g>
</svg>
