<?xml version="1.0" standalone="no"?>
<!DOCTYPE svg PUBLIC "-//W3C//DTD SVG 20010904//EN"
 "http://www.w3.org/TR/2001/REC-SVG-20010904/DTD/svg10.dtd">
<svg version="1.0" xmlns="http://www.w3.org/2000/svg"
 width="127.000000pt" height="335.000000pt" viewBox="0 0 127.000000 335.000000"
 preserveAspectRatio="xMidYMid meet">
<metadata>
Created by potrace 1.14, written by Peter Selinger 2001-2017
</metadata>
<g transform="translate(0.000000,335.000000) scale(0.100000,-0.100000)"
fill="#000000" stroke="none">
<path fill="#000000" stroke="none" d="M985 3333 c-55 -9 -102 -17 -103 -18
-2 -2 3 -26 10 -53 l15 -48 -94 -110 -94 -109 -176 -60 -176 -60 -100 -143
-99 -142 -29 -140 c-26 -127 -34 -148 -79 -221 -27 -44 -50 -87 -50 -94 0 -16
57 -151 77 -181 8 -13 14 -24 12 -26 -1 -2 1 -12 5 -24 3 -11 -9 -158 -28
-325 l-35 -304 6 -490 6 -490 -27 -59 c-14 -32 -26 -64 -26 -71 0 -7 21 -39
47 -72 26 -32 48 -60 50 -62 12 -16 251 -40 265 -26 3 3 -12 78 -34 167 -21
88 -37 163 -34 165 2 2 19 -20 37 -48 19 -29 37 -56 40 -61 7 -11 309 32 309
43 0 4 -29 54 -64 111 l-64 105 78 504 c43 277 93 587 110 688 35 207 18 174
171 343 54 59 86 110 170 272 l103 200 -33 96 -32 95 75 159 76 159 -14 89
-15 89 -76 85 c-42 46 -78 83 -78 83 -1 -1 -47 -8 -102 -16z"/>
</g>
</svg>
