<?xml version="1.0" standalone="no"?>
<!DOCTYPE svg PUBLIC "-//W3C//DTD SVG 20010904//EN"
 "http://www.w3.org/TR/2001/REC-SVG-20010904/DTD/svg10.dtd">
<svg version="1.0" xmlns="http://www.w3.org/2000/svg"
 width="163.000000pt" height="258.000000pt" viewBox="0 0 163.000000 258.000000"
 preserveAspectRatio="xMidYMid meet">
<metadata>
Created by potrace 1.14, written by Peter Selinger 2001-2017
</metadata>
<g transform="translate(0.000000,258.000000) scale(0.100000,-0.100000)"
fill="#000000" stroke="none">
<path fill="#000000" stroke="none" d="M144 2572 c-50 -3 -51 -4 -72 -50 -35
-80 -35 -129 -1 -268 31 -121 31 -126 15 -167 -25 -65 -21 -172 10 -279 l26
-91 -22 -111 c-12 -61 -39 -169 -61 -239 -39 -124 -40 -132 -33 -220 3 -51 12
-103 20 -117 7 -14 35 -38 63 -53 l51 -28 48 17 c45 16 52 24 96 100 26 45 60
117 75 160 51 143 62 164 109 204 25 21 50 36 54 34 5 -3 17 -23 28 -45 l21
-39 -97 -135 -96 -135 22 -217 c21 -210 23 -218 51 -254 64 -81 137 -326 123
-416 -6 -40 -12 -47 -86 -100 -76 -53 -80 -57 -74 -86 3 -17 8 -33 11 -35 3
-3 76 13 162 36 101 26 257 56 430 82 248 36 450 74 462 86 2 2 -3 29 -13 59
-13 42 -36 77 -95 144 -60 68 -80 98 -84 127 -4 23 -38 91 -82 162 l-75 123 0
99 0 98 52 89 c29 48 78 124 108 168 l56 80 75 0 c71 0 76 2 126 40 41 30 54
47 59 75 3 19 9 51 13 70 11 56 -29 183 -92 293 -30 52 -109 167 -177 256
-151 202 -195 234 -366 275 l-110 27 -114 -21 c-62 -11 -121 -20 -131 -20 -9
0 -42 20 -73 45 -80 66 -190 128 -271 154 -86 28 -79 27 -141 23z"/>
</g>
</svg>
