<?xml version="1.0" standalone="no"?>
<!DOCTYPE svg PUBLIC "-//W3C//DTD SVG 20010904//EN"
 "http://www.w3.org/TR/2001/REC-SVG-20010904/DTD/svg10.dtd">
<svg version="1.0" xmlns="http://www.w3.org/2000/svg"
 width="529.000000pt" height="214.000000pt" viewBox="0 0 529.000000 214.000000"
 preserveAspectRatio="xMidYMid meet">
<metadata>
Created by potrace 1.14, written by Peter Selinger 2001-2017
</metadata>
<g transform="translate(0.000000,214.000000) scale(0.100000,-0.100000)"
fill="#000000" stroke="none">
<path fill="#000000" stroke="none" d="M348 2121 c-79 -26 -136 -61 -200 -125
-156 -157 -193 -392 -91 -587 l34 -67 40 5 c28 4 45 1 57 -10 10 -9 42 -20 72
-24 44 -7 57 -13 69 -35 14 -25 14 -32 -2 -74 -9 -26 -16 -49 -14 -51 2 -2 24
4 48 12 59 21 88 58 89 113 0 24 7 72 16 108 14 53 22 68 45 79 33 18 82 19
111 4 20 -11 21 -9 16 34 l-5 45 41 -18 41 -17 -1 -74 -1 -74 63 -20 63 -21
-6 28 c-8 41 23 50 52 14 12 -15 28 -26 36 -25 8 1 36 -1 62 -6 64 -10 77 -35
48 -92 l-20 -41 20 -18 c14 -13 42 -21 83 -24 l61 -5 0 -60 0 -59 -42 -12 -43
-13 -10 38 -10 37 -71 -7 c-68 -8 -106 -19 -62 -19 12 0 41 -16 65 -36 23 -20
57 -43 74 -52 17 -8 49 -38 70 -68 21 -29 41 -51 44 -49 8 5 289 -23 300 -30
5 -3 19 -33 31 -65 16 -44 27 -60 40 -60 14 0 19 7 19 28 0 15 6 37 14 48 8
11 16 31 18 44 3 22 8 25 43 25 32 0 40 -4 43 -20 2 -11 12 -29 22 -40 10 -11
20 -28 22 -38 3 -16 5 -16 37 1 29 16 36 27 50 85 10 36 25 75 34 85 16 17 15
20 -23 57 -36 36 -38 40 -24 56 50 55 124 41 116 -22 -1 -4 18 -2 41 3 90 21
219 -21 256 -83 20 -33 24 -31 35 14 5 21 0 40 -17 72 -19 32 -27 66 -32 133
l-7 89 51 37 52 38 64 -17 64 -18 20 -61 c11 -33 23 -86 27 -116 9 -71 18 -89
58 -105 18 -8 38 -21 45 -29 7 -8 34 -29 60 -45 47 -30 47 -31 81 -148 18 -65
34 -119 34 -119 1 -1 39 4 86 11 47 7 91 10 99 7 7 -3 17 1 21 8 4 7 16 9 28
6 19 -6 19 -8 -9 -96 -16 -50 -29 -108 -29 -131 0 -45 -30 -169 -41 -169 -4 0
-10 12 -14 28 -9 35 -79 127 -119 154 -28 19 -29 20 -15 2 41 -49 178 -297
203 -369 16 -44 36 -86 44 -93 22 -17 116 -16 132 2 6 8 20 36 30 63 14 37 23
49 42 51 l25 3 28 290 c22 219 32 289 42 289 7 0 13 -4 13 -10 0 -12 90 -13
109 -1 12 8 8 25 -26 99 l-40 89 34 47 c42 58 39 95 -7 113 -18 7 -30 19 -30
30 -1 10 -7 36 -15 58 -13 35 -12 42 4 70 10 16 22 44 25 60 4 17 18 46 32 66
20 29 34 38 66 43 39 6 40 7 34 41 -7 36 3 50 32 41 14 -5 17 -14 14 -40 -3
-27 0 -34 16 -38 18 -5 21 1 27 55 9 72 25 100 66 118 52 21 111 13 137 -18
21 -25 23 -35 17 -91 -3 -34 -8 -75 -11 -90 -4 -24 1 -30 56 -62 39 -22 63
-43 66 -57 6 -23 21 -27 62 -17 25 7 28 21 8 43 -7 9 -16 41 -19 71 -9 92 37
124 138 95 50 -15 55 -19 61 -51 4 -20 4 -60 0 -89 l-6 -54 59 -35 c57 -35 60
-39 89 -119 l30 -82 92 0 92 0 -6 -35 c-28 -183 -48 -351 -43 -357 13 -13 132
-3 143 12 8 11 34 15 103 15 65 0 109 6 151 20 69 23 201 100 197 115 -2 6
-17 16 -34 24 -27 12 -32 21 -38 62 -5 35 -10 46 -21 42 -10 -3 -14 -22 -14
-62 0 -55 -1 -55 -18 -35 -25 31 -69 37 -87 11 -9 -12 -12 -31 -8 -45 5 -22 4
-23 -16 -13 -18 10 -21 21 -21 74 -1 34 -6 108 -13 165 l-13 102 149 0 149 0
-6 24 c-7 29 11 36 96 36 49 0 59 3 77 26 20 26 21 39 21 294 l0 268 -36 21
c-148 88 -382 82 -522 -13 -50 -33 -51 -34 -143 -28 l-93 5 -51 55 c-61 68
-132 114 -216 142 -56 19 -80 21 -184 17 -118 -4 -121 -4 -167 24 -92 55 -160
71 -283 67 -126 -5 -196 -27 -272 -85 -26 -20 -73 -43 -109 -53 l-63 -17 -28
30 c-42 44 -122 93 -193 117 -49 17 -84 21 -164 20 -60 -1 -113 3 -131 10 -74
31 -125 40 -211 40 -153 0 -256 -43 -361 -149 -33 -33 -67 -57 -97 -67 -45
-15 -65 -31 -27 -21 13 3 33 -9 65 -42 l45 -46 -9 -87 c-10 -100 -27 -140 -75
-171 -40 -25 -40 -29 -20 -87 19 -54 19 -57 -5 -65 -12 -4 -24 -21 -31 -48 -9
-34 -8 -52 8 -108 l20 -66 -77 -28 -77 -28 -11 -47 c-8 -35 -8 -56 0 -78 10
-25 9 -35 -5 -56 -16 -24 -22 -26 -96 -26 -86 0 -111 14 -111 62 0 25 27 58
48 58 8 0 12 21 12 61 0 58 3 65 39 104 30 33 40 54 49 101 14 81 7 106 -39
140 -21 16 -37 34 -35 39 2 6 18 67 36 138 l33 127 63 45 c35 25 66 50 69 55
9 14 -92 75 -163 99 -47 16 -87 21 -166 21 -64 0 -107 4 -112 11 -13 21 -113
78 -172 98 -34 12 -81 21 -105 21 -24 0 -47 4 -53 9 -5 5 -38 19 -74 31 -53
18 -84 21 -175 19 -80 -2 -125 2 -164 14 -75 23 -227 22 -303 -2z"/>
<path fill="#ffffff" stroke="none" d="M4334 1641 c13 -20 29 -53 35 -73 7
-20 25 -55 42 -77 16 -23 29 -43 29 -45 0 -2 -13 1 -28 6 -41 16 -80 2 -124
-42 l-39 -39 -40 39 c-34 33 -39 42 -30 59 15 28 14 56 -4 71 -22 18 -20 112
3 133 21 19 78 26 109 13 12 -5 33 -25 47 -45z"/>
<path fill="#ffffff" stroke="none" d="M4646 1553 c38 -41 40 -56 20 -110 -8
-21 -17 -62 -20 -92 -3 -30 -9 -58 -14 -63 -9 -9 -130 81 -143 105 -12 22 -19
114 -11 136 11 30 60 59 101 60 26 1 40 -7 67 -36z"/>
<path fill="#ffffff" stroke="none" d="M4902 1444 c-8 -44 -73 -41 -96 5 l-14
26 51 10 c57 11 68 3 59 -41z"/>
<path fill="#000000" stroke="none" d="M5204 1075 l-81 -81 -7 -108 c-4 -60
-5 -111 -2 -114 8 -7 58 28 120 85 l57 52 -3 123 -3 123 -81 -80z"/>
<path fill="#000000" stroke="none" d="M3955 960 c-3 -5 -1 -10 4 -10 6 0 11
5 11 10 0 6 -2 10 -4 10 -3 0 -8 -4 -11 -10z"/>
<path fill="#000000" stroke="none" d="M2606 516 c6 -15 58 -26 114 -25 l35 1
-30 12 c-16 7 -51 16 -77 19 -37 5 -46 4 -42 -7z"/>
<path fill="#000000" stroke="none" d="M3287 161 c-3 -14 2 -16 30 -13 18 2
33 6 33 7 0 2 -13 8 -29 13 -24 9 -30 7 -34 -7z"/>
</g>
</svg>
