<?xml version="1.0" standalone="no"?>
<!DOCTYPE svg PUBLIC "-//W3C//DTD SVG 20010904//EN"
 "http://www.w3.org/TR/2001/REC-SVG-20010904/DTD/svg10.dtd">
<svg version="1.0" xmlns="http://www.w3.org/2000/svg"
 width="92.000000pt" height="119.000000pt" viewBox="0 0 92.000000 119.000000"
 preserveAspectRatio="xMidYMid meet">
<metadata>
Created by potrace 1.14, written by Peter Selinger 2001-2017
</metadata>
<g transform="translate(0.000000,119.000000) scale(0.100000,-0.100000)"
fill="#000000" stroke="none">
<path fill="#000000" stroke="none" d="M163 1183 l-163 -3 0 -56 c0 -68 42
-194 94 -279 20 -33 36 -64 36 -69 0 -5 7 -17 16 -27 14 -16 13 -17 -23 -24
-35 -6 -41 -12 -76 -75 l-37 -70 82 -53 c84 -54 123 -98 148 -168 11 -31 11
-49 -3 -115 l-15 -79 35 -57 34 -58 143 0 c126 0 151 -3 216 -25 92 -31 164
-32 224 -3 l44 21 -33 96 c-30 88 -34 110 -39 253 -6 128 -4 169 10 220 21 81
14 129 -31 218 l-35 70 -99 0 -98 0 -23 79 c-24 84 -71 162 -118 193 -18 12
-43 17 -77 16 -27 -1 -123 -4 -212 -5z"/>
</g>
</svg>
