<?xml version="1.0" standalone="no"?>
<!DOCTYPE svg PUBLIC "-//W3C//DTD SVG 20010904//EN"
 "http://www.w3.org/TR/2001/REC-SVG-20010904/DTD/svg10.dtd">
<svg version="1.0" xmlns="http://www.w3.org/2000/svg"
 width="19.000000pt" height="54.000000pt" viewBox="0 0 19.000000 54.000000"
 preserveAspectRatio="xMidYMid meet">
<metadata>
Created by potrace 1.14, written by Peter Selinger 2001-2017
</metadata>
<g transform="translate(0.000000,54.000000) scale(0.100000,-0.100000)"
fill="#000000" stroke="none">
<path fill="#000000" stroke="none" d="M65 520 c-3 -11 -4 -24 -1 -29 3 -4 0
-20 -7 -34 -8 -19 -17 -25 -30 -21 -21 6 -22 -14 -5 -62 10 -28 9 -36 -5 -52
-19 -20 -22 -48 -8 -57 5 -3 12 -1 16 5 11 18 25 11 25 -13 0 -12 -9 -28 -20
-35 -25 -16 -26 -63 -2 -85 10 -10 23 -17 28 -17 17 0 37 -41 25 -53 -16 -16
-13 -27 7 -27 16 -1 16 -1 0 -14 -19 -14 -14 -26 12 -26 33 0 48 31 41 85 -4
28 -10 55 -14 62 -4 6 -1 15 6 20 8 4 24 27 36 50 27 54 21 149 -10 158 -14 5
-19 16 -19 39 0 19 -7 39 -15 46 -8 7 -15 22 -15 34 0 22 -17 46 -31 46 -4 0
-10 -9 -14 -20z"/>
</g>
</svg>
