<?xml version="1.0" standalone="no"?>
<!DOCTYPE svg PUBLIC "-//W3C//DTD SVG 20010904//EN"
 "http://www.w3.org/TR/2001/REC-SVG-20010904/DTD/svg10.dtd">
<svg version="1.0" xmlns="http://www.w3.org/2000/svg"
 width="13.000000pt" height="21.000000pt" viewBox="0 0 13.000000 21.000000"
 preserveAspectRatio="xMidYMid meet">
<metadata>
Created by potrace 1.14, written by Peter Selinger 2001-2017
</metadata>
<g transform="translate(0.000000,21.000000) scale(0.100000,-0.100000)"
fill="#000000" stroke="none">
<path fill="#000000" stroke="none" d="M68 180 c-27 -31 -42 -60 -39 -74 1 -5
-5 -24 -14 -43 -19 -40 -14 -63 13 -63 13 0 24 13 36 44 15 38 19 43 43 38 23
-4 25 -2 18 14 -4 10 -10 40 -12 67 -3 26 -8 47 -12 47 -4 0 -18 -13 -33 -30z"/>
</g>
</svg>
