<?xml version="1.0" standalone="no"?>
<!DOCTYPE svg PUBLIC "-//W3C//DTD SVG 20010904//EN"
 "http://www.w3.org/TR/2001/REC-SVG-20010904/DTD/svg10.dtd">
<svg version="1.0" xmlns="http://www.w3.org/2000/svg"
 width="49.000000pt" height="59.000000pt" viewBox="0 0 49.000000 59.000000"
 preserveAspectRatio="xMidYMid meet">
<metadata>
Created by potrace 1.14, written by Peter Selinger 2001-2017
</metadata>
<g transform="translate(0.000000,59.000000) scale(0.100000,-0.100000)"
fill="#000000" stroke="none">
<path fill="#000000" stroke="none" d="M143 563 c-68 -25 -71 -27 -76 -62 -4
-31 16 -111 48 -193 5 -12 0 -17 -16 -20 -20 -3 -25 -14 -40 -93 -9 -49 -26
-111 -37 -136 l-20 -47 30 -6 c65 -13 110 -5 210 36 88 37 113 53 175 112 72
68 73 69 67 110 -9 56 -54 127 -149 235 -52 59 -87 91 -100 90 -11 0 -52 -12
-92 -26z"/>
</g>
</svg>
