<?xml version="1.0" standalone="no"?>
<!DOCTYPE svg PUBLIC "-//W3C//DTD SVG 20010904//EN"
 "http://www.w3.org/TR/2001/REC-SVG-20010904/DTD/svg10.dtd">
<svg version="1.0" xmlns="http://www.w3.org/2000/svg"
 width="378.000000pt" height="334.000000pt" viewBox="0 0 378.000000 334.000000"
 preserveAspectRatio="xMidYMid meet">
<metadata>
Created by potrace 1.14, written by Peter Selinger 2001-2017
</metadata>
<g transform="translate(0.000000,334.000000) scale(0.100000,-0.100000)"
fill="#000000" stroke="none">
<path fill="#000000" stroke="none" d="M1250 3329 c-19 -4 -102 -20 -185 -35
-82 -15 -156 -32 -163 -38 -6 -7 -46 -67 -87 -135 -74 -122 -74 -123 -100
-261 -29 -161 -30 -177 -9 -250 8 -30 21 -143 28 -250 l13 -195 50 -140 51
-140 -221 -178 -221 -178 -167 -210 c-92 -115 -170 -220 -173 -233 -3 -13 -19
-150 -36 -305 l-29 -280 39 -246 c22 -136 40 -247 40 -248 0 -1 834 -3 1853
-5 1781 -3 1851 -2 1827 15 -13 10 -35 32 -49 48 -80 96 -323 307 -386 336
-24 11 -100 79 -193 172 l-153 153 7 56 c7 62 22 35 -131 243 -138 189 -172
242 -188 300 -10 33 -32 97 -50 143 -30 77 -38 89 -114 158 -68 62 -113 91
-255 166 -260 135 -232 109 -251 239 -10 61 -26 132 -37 157 -26 63 -35 101
-65 272 -14 79 -25 175 -25 213 0 113 -18 197 -74 338 l-52 134 -109 64 c-78
45 -142 74 -220 97 -119 37 -114 36 -165 23z"/>
</g>
</svg>
