<?xml version="1.0" standalone="no"?>
<!DOCTYPE svg PUBLIC "-//W3C//DTD SVG 20010904//EN"
 "http://www.w3.org/TR/2001/REC-SVG-20010904/DTD/svg10.dtd">
<svg version="1.0" xmlns="http://www.w3.org/2000/svg"
 width="10.000000pt" height="25.000000pt" viewBox="0 0 10.000000 25.000000"
 preserveAspectRatio="xMidYMid meet">
<metadata>
Created by potrace 1.14, written by Peter Selinger 2001-2017
</metadata>
<g transform="translate(0.000000,25.000000) scale(0.100000,-0.100000)"
fill="#000000" stroke="none">
<path fill="#000000" stroke="none" d="M4 235 c-3 -8 -1 -37 5 -65 6 -28 11
-78 11 -110 0 -58 1 -60 25 -60 22 0 24 3 15 19 -5 11 -10 38 -10 60 0 36 3
41 24 41 l24 0 -22 65 c-18 55 -24 65 -44 65 -12 0 -25 -7 -28 -15z"/>
</g>
</svg>
