<?xml version="1.0" standalone="no"?>
<!DOCTYPE svg PUBLIC "-//W3C//DTD SVG 20010904//EN"
 "http://www.w3.org/TR/2001/REC-SVG-20010904/DTD/svg10.dtd">
<svg version="1.0" xmlns="http://www.w3.org/2000/svg"
 width="19.000000pt" height="26.000000pt" viewBox="0 0 19.000000 26.000000"
 preserveAspectRatio="xMidYMid meet">
<metadata>
Created by potrace 1.14, written by Peter Selinger 2001-2017
</metadata>
<g transform="translate(0.000000,26.000000) scale(0.100000,-0.100000)"
fill="#000000" stroke="none">
<path fill="#000000" stroke="none" d="M97 250 c-27 -5 -60 -16 -74 -25 -25
-17 -26 -19 -20 -107 3 -49 11 -96 18 -104 17 -20 73 -18 93 5 14 15 15 21 4
27 -7 5 -17 9 -23 9 -5 0 -11 16 -13 35 -2 19 -8 40 -13 46 -6 8 -5 13 4 17 7
3 18 -3 25 -13 14 -22 61 -35 76 -20 8 8 7 15 -5 23 -8 7 -18 22 -21 34 -4 17
0 23 18 27 26 7 31 25 12 44 -13 13 -12 13 -81 2z"/>
</g>
</svg>
