<?xml version="1.0" standalone="no"?>
<!DOCTYPE svg PUBLIC "-//W3C//DTD SVG 20010904//EN"
 "http://www.w3.org/TR/2001/REC-SVG-20010904/DTD/svg10.dtd">
<svg version="1.0" xmlns="http://www.w3.org/2000/svg"
 width="18.000000pt" height="66.000000pt" viewBox="0 0 18.000000 66.000000"
 preserveAspectRatio="xMidYMid meet">
<metadata>
Created by potrace 1.14, written by Peter Selinger 2001-2017
</metadata>
<g transform="translate(0.000000,66.000000) scale(0.100000,-0.100000)"
fill="#000000" stroke="none">
<path fill="#000000" stroke="none" d="M59 623 c-6 -19 -12 -41 -13 -49 -1 -8
-12 -21 -24 -30 -27 -19 -29 -60 -5 -112 15 -31 17 -66 15 -229 -1 -106 2
-193 6 -193 4 0 17 -3 30 -6 22 -6 22 -5 22 77 0 46 5 116 11 154 7 49 6 97
-1 160 -13 106 -2 146 52 189 29 22 31 27 18 39 -8 8 -34 19 -57 25 l-42 10
-12 -35z"/>
</g>
</svg>
