<?xml version="1.0" standalone="no"?>
<!DOCTYPE svg PUBLIC "-//W3C//DTD SVG 20010904//EN"
 "http://www.w3.org/TR/2001/REC-SVG-20010904/DTD/svg10.dtd">
<svg version="1.0" xmlns="http://www.w3.org/2000/svg"
 width="115.000000pt" height="325.000000pt" viewBox="0 0 115.000000 325.000000"
 preserveAspectRatio="xMidYMid meet">
<metadata>
Created by potrace 1.14, written by Peter Selinger 2001-2017
</metadata>
<g transform="translate(0.000000,325.000000) scale(0.100000,-0.100000)"
fill="#000000" stroke="none">
<path fill="#000000" stroke="none" d="M443 3243 c-47 -3 -65 -8 -72 -21 -23
-45 -60 -247 -67 -365 l-6 -128 -94 -47 -93 -46 -54 -131 -55 -130 8 -95 c4
-52 24 -183 45 -290 21 -114 41 -264 49 -360 11 -156 11 -174 -11 -325 -33
-230 -25 -359 37 -642 l46 -212 -16 -53 c-25 -78 -55 -131 -88 -152 l-30 -20
19 -44 c11 -24 19 -64 19 -88 l0 -45 38 7 c20 3 96 23 168 43 135 39 204 76
204 111 0 9 -24 57 -53 106 -47 77 -55 99 -61 159 -4 38 -16 115 -26 170 -20
99 -25 181 -14 221 12 45 226 87 238 47 20 -64 36 -229 36 -364 0 -148 -1
-159 -30 -238 l-31 -83 23 -78 22 -78 69 -37 c37 -20 70 -35 72 -34 14 16 35
89 35 125 0 54 22 217 61 449 l31 180 -12 225 c-6 124 -18 297 -26 385 -13
142 -13 189 1 420 23 389 23 388 61 125 18 -124 38 -252 44 -285 9 -50 58
-223 65 -233 1 -1 13 2 27 7 43 16 79 77 104 175 13 50 24 92 24 93 0 1 -12 9
-28 17 -26 13 -28 20 -45 143 -17 119 -35 217 -53 288 l-7 30 22 -19 c26 -23
26 -35 -4 158 l-24 159 -171 172 c-93 95 -170 179 -170 187 0 8 7 23 15 34 10
14 14 48 15 126 0 104 -1 110 -34 169 -26 47 -46 68 -83 90 -26 16 -55 28 -63
27 -8 -1 -43 -3 -77 -5z"/>
</g>
</svg>
