<?xml version="1.0" standalone="no"?>
<!DOCTYPE svg PUBLIC "-//W3C//DTD SVG 20010904//EN"
 "http://www.w3.org/TR/2001/REC-SVG-20010904/DTD/svg10.dtd">
<svg version="1.0" xmlns="http://www.w3.org/2000/svg"
 width="42.000000pt" height="131.000000pt" viewBox="0 0 42.000000 131.000000"
 preserveAspectRatio="xMidYMid meet">
<metadata>
Created by potrace 1.14, written by Peter Selinger 2001-2017
</metadata>
<g transform="translate(0.000000,131.000000) scale(0.100000,-0.100000)"
fill="#000000" stroke="none">
<path fill="#000000" stroke="none" d="M170 1268 c-17 -31 -27 -38 -53 -39
l-32 0 31 -16 c26 -13 33 -23 38 -57 3 -22 8 -50 12 -62 4 -16 -5 -31 -36 -60
l-41 -40 -8 -132 c-8 -128 -9 -132 -39 -163 -16 -17 -32 -39 -35 -50 -7 -26
34 -49 105 -59 34 -5 65 -13 70 -18 5 -5 16 -58 24 -117 8 -60 21 -147 29
-194 20 -117 19 -130 -15 -184 l-29 -46 37 -6 c20 -3 50 -10 66 -15 49 -16 56
5 54 155 -1 72 2 136 6 144 5 7 12 64 16 126 6 78 13 121 25 139 15 23 15 30
2 77 -14 45 -14 56 -1 93 23 63 29 168 14 233 -13 54 -16 57 -67 80 -42 20
-53 29 -53 48 0 39 21 75 44 75 12 0 28 5 36 10 25 16 -11 63 -57 74 -21 5
-42 15 -48 22 -5 6 -24 14 -42 16 -28 4 -34 0 -53 -34z"/>
</g>
</svg>
