<?xml version="1.0" standalone="no"?>
<!DOCTYPE svg PUBLIC "-//W3C//DTD SVG 20010904//EN"
 "http://www.w3.org/TR/2001/REC-SVG-20010904/DTD/svg10.dtd">
<svg version="1.0" xmlns="http://www.w3.org/2000/svg"
 width="399.000000pt" height="433.000000pt" viewBox="0 0 399.000000 433.000000"
 preserveAspectRatio="xMidYMid meet">
<metadata>
Created by potrace 1.14, written by Peter Selinger 2001-2017
</metadata>
<g transform="translate(0.000000,433.000000) scale(0.100000,-0.100000)"
fill="#000000" stroke="none">
<path fill="#000000" stroke="none" d="M212 4272 c-34 -31 -62 -62 -62 -67 0
-6 40 -125 89 -264 l90 -253 -39 -196 c-38 -195 -40 -200 -140 -427 -69 -157
-108 -236 -125 -248 l-25 -19 0 -1399 0 -1399 1182 0 1181 0 81 51 80 51 266
40 265 41 147 68 146 67 197 -74 c109 -41 203 -74 210 -74 7 0 64 54 126 121
l113 120 -28 87 c-15 48 -75 185 -134 306 l-107 218 -1151 -7 c-807 -5 -1161
-4 -1185 3 -19 6 -87 27 -151 47 l-117 36 -92 115 c-91 115 -93 117 -171 317
l-78 202 56 340 57 340 -10 159 -11 159 83 319 83 318 -57 225 -56 226 -190
196 -190 196 -123 59 c-68 32 -129 58 -136 58 -6 -1 -39 -26 -74 -58z"/>
</g>
</svg>
