<?xml version="1.0" standalone="no"?>
<!DOCTYPE svg PUBLIC "-//W3C//DTD SVG 20010904//EN"
 "http://www.w3.org/TR/2001/REC-SVG-20010904/DTD/svg10.dtd">
<svg version="1.0" xmlns="http://www.w3.org/2000/svg"
 width="28.000000pt" height="53.000000pt" viewBox="0 0 28.000000 53.000000"
 preserveAspectRatio="xMidYMid meet">
<metadata>
Created by potrace 1.14, written by Peter Selinger 2001-2017
</metadata>
<g transform="translate(0.000000,53.000000) scale(0.100000,-0.100000)"
fill="#000000" stroke="none">
<path fill="#000000" stroke="none" d="M95 516 c-11 -9 -28 -16 -37 -16 -20 0
-62 -65 -54 -85 3 -10 15 -12 40 -8 41 6 43 1 27 -84 -8 -37 -6 -64 4 -104 8
-30 18 -91 21 -136 7 -78 8 -83 30 -83 34 0 37 13 18 79 -12 44 -13 64 -5 78
10 17 10 17 11 -1 0 -10 7 -49 17 -87 14 -61 19 -69 40 -69 26 0 29 10 9 48
-21 41 -46 198 -46 285 l0 77 41 -20 c31 -16 44 -19 54 -10 12 10 11 17 -8 42
-12 16 -39 39 -59 49 -21 11 -38 26 -38 34 0 8 -4 15 -9 15 -5 0 -15 2 -23 5
-7 3 -22 -1 -33 -9z"/>
</g>
</svg>
