<?xml version="1.0" standalone="no"?>
<!DOCTYPE svg PUBLIC "-//W3C//DTD SVG 20010904//EN"
 "http://www.w3.org/TR/2001/REC-SVG-20010904/DTD/svg10.dtd">
<svg version="1.0" xmlns="http://www.w3.org/2000/svg"
 width="385.000000pt" height="386.000000pt" viewBox="0 0 385.000000 386.000000"
 preserveAspectRatio="xMidYMid meet">
<metadata>
Created by potrace 1.14, written by Peter Selinger 2001-2017
</metadata>
<g transform="translate(0.000000,386.000000) scale(0.100000,-0.100000)"
fill="#000000" stroke="none">
<path fill="#000000" stroke="none" d="M2685 3824 c-111 -25 -179 -47 -262
-85 l-111 -52 -115 -181 c-63 -100 -144 -229 -179 -287 -47 -76 -122 -171
-270 -340 l-205 -234 -190 -361 c-184 -350 -253 -499 -253 -550 0 -31 -20 -39
-145 -58 -105 -16 -242 -64 -374 -130 -59 -30 -108 -71 -291 -248 -183 -175
-219 -215 -214 -232 11 -36 34 -76 43 -76 5 0 13 -30 16 -66 6 -48 1 -111 -18
-242 -14 -97 -29 -213 -33 -257 -4 -46 -20 -119 -39 -176 -18 -53 -36 -123
-40 -155 l-6 -59 223 3 c123 1 302 6 398 10 96 5 402 8 680 6 460 -2 525 -5
725 -27 216 -24 231 -25 889 -21 418 3 683 8 708 14 34 10 38 14 38 43 0 18
16 76 35 130 23 64 35 116 35 150 0 29 9 120 21 202 l21 150 -71 158 c-39 87
-90 194 -112 238 l-40 80 26 121 c14 67 52 210 85 318 32 107 88 294 124 416
l64 220 -39 445 -39 444 -65 183 c-36 101 -69 192 -75 202 -5 10 -67 52 -137
93 -90 53 -147 95 -193 142 -61 62 -67 65 -100 60 -29 -5 -146 9 -340 40 -14
2 -92 -12 -175 -31z"/>
</g>
</svg>
