<?xml version="1.0" standalone="no"?>
<!DOCTYPE svg PUBLIC "-//W3C//DTD SVG 20010904//EN"
 "http://www.w3.org/TR/2001/REC-SVG-20010904/DTD/svg10.dtd">
<svg version="1.0" xmlns="http://www.w3.org/2000/svg"
 width="356.000000pt" height="357.000000pt" viewBox="0 0 356.000000 357.000000"
 preserveAspectRatio="xMidYMid meet">
<metadata>
Created by potrace 1.14, written by Peter Selinger 2001-2017
</metadata>
<g transform="translate(0.000000,357.000000) scale(0.100000,-0.100000)"
fill="#000000" stroke="none">
<path fill="#000000" stroke="none" d="M1147 3550 c-37 -10 -75 -24 -84 -31
-33 -28 -93 -119 -118 -180 -24 -58 -26 -72 -20 -149 l6 -85 -33 -31 c-18 -17
-68 -51 -111 -75 -50 -28 -79 -52 -83 -66 -3 -12 1 -46 10 -76 9 -30 16 -77
16 -104 0 -30 9 -68 25 -101 25 -53 25 -53 6 -90 -17 -34 -72 -90 -161 -167
-43 -37 -65 -67 -130 -179 -41 -72 -50 -96 -48 -131 1 -35 6 -45 25 -54 20 -9
23 -16 19 -43 -3 -18 -8 -69 -11 -112 -3 -44 -11 -88 -17 -99 -12 -23 -48
-170 -48 -197 0 -10 -4 -20 -10 -22 -5 -1 -14 -23 -18 -48 -5 -25 -25 -71 -46
-103 -25 -39 -40 -77 -47 -118 -5 -33 -17 -81 -25 -107 -80 -234 -124 -470
-124 -663 0 -41 -4 -88 -9 -106 -6 -19 -5 -35 1 -41 6 -6 -2 -27 -22 -59 -26
-42 -90 -254 -90 -300 0 -10 170 -13 815 -13 694 0 815 2 815 14 0 13 -75 197
-173 422 l-35 82 29 35 c38 46 54 86 69 167 6 36 29 126 50 200 21 74 44 154
50 178 11 43 11 44 49 37 36 -6 40 -4 87 49 27 31 54 56 61 56 6 0 21 16 33
35 12 19 28 35 36 35 8 0 14 10 14 25 0 19 -10 29 -39 45 -43 22 -60 40 -38
40 16 0 30 27 22 40 -3 5 -24 11 -48 15 -66 10 -77 15 -77 34 0 25 32 51 61
51 15 0 68 -35 139 -91 63 -49 153 -116 199 -149 l84 -60 157 0 c180 0 425 31
648 81 127 29 135 30 172 15 44 -17 145 -15 195 4 19 7 56 9 101 5 65 -7 73
-5 76 11 7 28 -53 134 -78 140 -12 3 -36 -1 -55 -8 -19 -8 -42 -12 -51 -10
-29 6 -22 48 13 75 l31 24 -32 13 c-25 10 -54 11 -148 1 -334 -34 -626 -36
-737 -6 -27 7 -85 17 -127 20 l-77 7 -41 53 c-22 28 -40 55 -40 59 0 3 -41 59
-92 123 -103 131 -178 252 -178 287 0 12 -9 31 -20 41 -11 10 -20 24 -20 31 0
31 -202 254 -231 254 -10 0 -35 11 -55 25 -20 14 -42 25 -48 25 -25 1 -56 39
-56 69 0 37 30 67 113 113 33 18 74 47 90 63 l30 30 -6 101 -7 102 25 6 c36 9
34 54 -5 91 -16 16 -30 37 -30 47 0 9 -11 47 -24 82 -14 36 -32 107 -42 158
-21 119 -36 140 -113 161 -85 24 -301 22 -394 -3z"/>
</g>
</svg>
