<?xml version="1.0" standalone="no"?>
<!DOCTYPE svg PUBLIC "-//W3C//DTD SVG 20010904//EN"
 "http://www.w3.org/TR/2001/REC-SVG-20010904/DTD/svg10.dtd">
<svg version="1.0" xmlns="http://www.w3.org/2000/svg"
 width="19.000000pt" height="29.000000pt" viewBox="0 0 19.000000 29.000000"
 preserveAspectRatio="xMidYMid meet">
<metadata>
Created by potrace 1.14, written by Peter Selinger 2001-2017
</metadata>
<g transform="translate(0.000000,29.000000) scale(0.100000,-0.100000)"
fill="#000000" stroke="none">
<path fill="#000000" stroke="none" d="M81 266 c-13 -14 -33 -27 -46 -30 -26
-7 -40 -55 -30 -103 4 -15 8 -38 11 -51 7 -33 88 -82 136 -82 38 0 38 0 38 40
0 23 -7 52 -16 66 -14 20 -15 29 -5 51 12 25 6 109 -8 117 -30 17 -60 14 -80
-8z"/>
</g>
</svg>
