<?xml version="1.0" standalone="no"?>
<!DOCTYPE svg PUBLIC "-//W3C//DTD SVG 20010904//EN"
 "http://www.w3.org/TR/2001/REC-SVG-20010904/DTD/svg10.dtd">
<svg version="1.0" xmlns="http://www.w3.org/2000/svg"
 width="499.000000pt" height="369.000000pt" viewBox="0 0 499.000000 369.000000"
 preserveAspectRatio="xMidYMid meet">
<metadata>
Created by potrace 1.14, written by Peter Selinger 2001-2017
</metadata>
<g transform="translate(0.000000,369.000000) scale(0.100000,-0.100000)"
fill="#000000" stroke="none">
<path fill="#000000" stroke="none" d="M975 3678 c-44 -5 -154 -26 -245 -48
-183 -43 -345 -60 -588 -60 l-142 0 0 -102 c-1 -217 32 -3443 35 -3446 4 -4
4946 -24 4951 -20 2 3 -11 172 -28 378 l-32 373 32 1305 c23 951 29 1308 21
1313 -6 4 -48 10 -92 14 -44 4 -333 47 -641 95 -541 86 -565 91 -681 134 -106
41 -129 46 -201 46 l-82 0 -45 -53 -45 -53 -158 -32 c-87 -18 -161 -36 -165
-40 -4 -4 -62 -108 -128 -232 -117 -218 -121 -228 -121 -287 0 -76 28 -145
149 -374 81 -151 98 -192 161 -396 74 -237 176 -680 319 -1379 l67 -332 -415
-6 c-229 -3 -557 -8 -728 -11 l-313 -6 0 36 c0 19 9 181 20 358 11 177 24 430
29 562 10 239 35 449 90 730 19 94 70 245 111 326 22 42 102 336 126 459 11
60 15 117 11 193 l-5 107 -42 56 c-48 61 -66 74 -105 74 -35 0 -176 40 -321
92 -117 41 -121 43 -217 132 l-97 91 -68 6 c-98 9 -325 8 -417 -3z"/>
</g>
</svg>
