<?xml version="1.0" standalone="no"?>
<!DOCTYPE svg PUBLIC "-//W3C//DTD SVG 20010904//EN"
 "http://www.w3.org/TR/2001/REC-SVG-20010904/DTD/svg10.dtd">
<svg version="1.0" xmlns="http://www.w3.org/2000/svg"
 width="28.000000pt" height="71.000000pt" viewBox="0 0 28.000000 71.000000"
 preserveAspectRatio="xMidYMid meet">
<metadata>
Created by potrace 1.14, written by Peter Selinger 2001-2017
</metadata>
<g transform="translate(0.000000,71.000000) scale(0.100000,-0.100000)"
fill="#000000" stroke="none">
<path fill="#000000" stroke="none" d="M0 703 c0 -3 18 -30 40 -60 36 -47 45
-70 76 -200 l34 -148 -44 -115 c-25 -66 -41 -119 -36 -125 5 -5 21 -17 37 -27
l28 -16 -3 96 c-2 60 0 93 6 87 5 -5 35 -48 67 -95 32 -47 62 -89 67 -94 4 -6
8 151 8 347 l0 357 -140 0 c-77 0 -140 -3 -140 -7z"/>
</g>
</svg>
