<?xml version="1.0" standalone="no"?>
<!DOCTYPE svg PUBLIC "-//W3C//DTD SVG 20010904//EN"
 "http://www.w3.org/TR/2001/REC-SVG-20010904/DTD/svg10.dtd">
<svg version="1.0" xmlns="http://www.w3.org/2000/svg"
 width="72.000000pt" height="117.000000pt" viewBox="0 0 72.000000 117.000000"
 preserveAspectRatio="xMidYMid meet">
<metadata>
Created by potrace 1.14, written by Peter Selinger 2001-2017
</metadata>
<g transform="translate(0.000000,117.000000) scale(0.100000,-0.100000)"
fill="#000000" stroke="none">
<path fill="#000000" stroke="none" d="M62 1090 l-62 -79 0 -74 0 -75 59 -38
58 -38 7 -225 c6 -234 -2 -392 -28 -496 -8 -33 -14 -60 -13 -61 1 0 45 8 97
18 71 14 126 34 222 80 l127 61 80 -6 c108 -8 116 -5 91 42 -10 21 -24 42 -32
48 -22 18 -123 43 -172 43 -39 0 -46 3 -51 22 -3 13 -20 95 -38 183 -31 153
-32 164 -21 240 7 44 13 126 13 181 l1 102 -40 48 c-35 43 -48 51 -117 71 -43
12 -87 24 -98 27 -15 3 -34 -14 -83 -74z"/>
</g>
</svg>
