<?xml version="1.0" standalone="no"?>
<!DOCTYPE svg PUBLIC "-//W3C//DTD SVG 20010904//EN"
 "http://www.w3.org/TR/2001/REC-SVG-20010904/DTD/svg10.dtd">
<svg version="1.0" xmlns="http://www.w3.org/2000/svg"
 width="9.000000pt" height="33.000000pt" viewBox="0 0 9.000000 33.000000"
 preserveAspectRatio="xMidYMid meet">
<metadata>
Created by potrace 1.14, written by Peter Selinger 2001-2017
</metadata>
<g transform="translate(0.000000,33.000000) scale(0.100000,-0.100000)"
fill="#000000" stroke="none">
<path fill="#000000" stroke="none" d="M43 323 c-7 -2 -13 -13 -13 -23 0 -9
-7 -23 -15 -30 -20 -17 -20 -102 0 -140 14 -27 14 -33 0 -60 -8 -16 -15 -37
-15 -47 0 -12 5 -8 16 12 27 52 37 55 30 7 -4 -30 -3 -42 6 -42 8 0 14 18 16
50 1 28 7 62 12 76 14 37 12 88 -6 150 -8 30 -16 54 -17 53 -1 0 -8 -3 -14 -6z"/>
</g>
</svg>
