<?xml version="1.0" standalone="no"?>
<!DOCTYPE svg PUBLIC "-//W3C//DTD SVG 20010904//EN"
 "http://www.w3.org/TR/2001/REC-SVG-20010904/DTD/svg10.dtd">
<svg version="1.0" xmlns="http://www.w3.org/2000/svg"
 width="120.000000pt" height="76.000000pt" viewBox="0 0 120.000000 76.000000"
 preserveAspectRatio="xMidYMid meet">
<metadata>
Created by potrace 1.14, written by Peter Selinger 2001-2017
</metadata>
<g transform="translate(0.000000,76.000000) scale(0.100000,-0.100000)"
fill="#000000" stroke="none">
<path fill="#000000" stroke="none" d="M68 753 c-9 -2 -27 -21 -41 -42 -34
-51 -27 -87 20 -106 87 -37 112 0 68 98 -13 31 -26 56 -27 56 -2 -1 -10 -3
-20 -6z"/>
<path fill="#000000" stroke="none" d="M717 163 c-8 -21 -18 -45 -21 -53 -2
-8 -5 0 -5 17 -1 23 -8 37 -26 49 -24 16 -27 16 -40 -2 -7 -10 -16 -39 -20
-62 -5 -36 -3 -46 12 -58 25 -19 50 -17 62 4 9 15 10 15 11 1 0 -9 9 -19 20
-22 14 -4 26 4 42 26 12 18 23 33 24 35 1 2 30 -11 65 -29 35 -17 92 -39 127
-49 102 -28 176 -1 223 82 8 14 2 21 -31 38 -37 19 -46 20 -129 9 -83 -11 -93
-10 -178 15 -50 14 -97 28 -105 31 -10 4 -20 -6 -31 -32z"/>
</g>
</svg>
