<?xml version="1.0" standalone="no"?>
<!DOCTYPE svg PUBLIC "-//W3C//DTD SVG 20010904//EN"
 "http://www.w3.org/TR/2001/REC-SVG-20010904/DTD/svg10.dtd">
<svg version="1.0" xmlns="http://www.w3.org/2000/svg"
 width="42.000000pt" height="77.000000pt" viewBox="0 0 42.000000 77.000000"
 preserveAspectRatio="xMidYMid meet">
<metadata>
Created by potrace 1.14, written by Peter Selinger 2001-2017
</metadata>
<g transform="translate(0.000000,77.000000) scale(0.100000,-0.100000)"
fill="#000000" stroke="none">
<path fill="#000000" stroke="none" d="M103 732 c-17 -21 -47 -70 -67 -110
-30 -60 -36 -82 -36 -137 0 -59 4 -73 44 -144 37 -64 133 -279 148 -329 3 -11
228 297 228 312 0 3 -10 6 -22 8 -31 4 -53 84 -62 218 -6 91 -11 110 -33 143
-41 59 -69 77 -123 77 -42 0 -50 -4 -77 -38z"/>
</g>
</svg>
