<?xml version="1.0" standalone="no"?>
<!DOCTYPE svg PUBLIC "-//W3C//DTD SVG 20010904//EN"
 "http://www.w3.org/TR/2001/REC-SVG-20010904/DTD/svg10.dtd">
<svg version="1.0" xmlns="http://www.w3.org/2000/svg"
 width="53.000000pt" height="132.000000pt" viewBox="0 0 53.000000 132.000000"
 preserveAspectRatio="xMidYMid meet">
<metadata>
Created by potrace 1.14, written by Peter Selinger 2001-2017
</metadata>
<g transform="translate(0.000000,132.000000) scale(0.100000,-0.100000)"
fill="#000000" stroke="none">
<path fill="#000000" stroke="none" d="M227 1313 c-31 -5 -41 -24 -52 -97 l-7
-47 -25 23 -24 22 1 -89 c1 -179 -8 -461 -17 -500 -8 -33 -5 -52 18 -115 14
-41 36 -107 47 -146 l20 -72 -38 -58 c-21 -33 -63 -93 -93 -134 -31 -41 -54
-76 -52 -78 2 -2 30 -7 63 -11 l60 -7 5 47 c5 38 21 68 89 163 l83 117 6 -88
c7 -99 39 -208 66 -229 11 -8 44 -13 88 -13 l70 0 -42 37 -41 37 -17 135 c-9
74 -28 184 -42 244 l-24 109 24 25 c23 23 24 27 12 71 -7 25 -26 78 -43 118
l-30 71 53 24 c45 19 55 29 64 59 6 20 11 41 11 48 0 21 -36 11 -65 -19 -44
-46 -60 -40 -74 27 -15 77 -14 93 8 117 20 23 51 107 51 141 0 14 -14 32 -38
49 -37 25 -54 28 -115 19z"/>
</g>
</svg>
