<?xml version="1.0" standalone="no"?>
<!DOCTYPE svg PUBLIC "-//W3C//DTD SVG 20010904//EN"
 "http://www.w3.org/TR/2001/REC-SVG-20010904/DTD/svg10.dtd">
<svg version="1.0" xmlns="http://www.w3.org/2000/svg"
 width="57.000000pt" height="164.000000pt" viewBox="0 0 57.000000 164.000000"
 preserveAspectRatio="xMidYMid meet">
<metadata>
Created by potrace 1.14, written by Peter Selinger 2001-2017
</metadata>
<g transform="translate(0.000000,164.000000) scale(0.100000,-0.100000)"
fill="#000000" stroke="none">
<path fill="#000000" stroke="none" d="M28 1633 l-26 -4 26 -52 c29 -54 36
-134 19 -209 -9 -35 -8 -36 22 -43 42 -9 148 -73 176 -107 13 -16 34 -60 46
-98 l23 -70 -22 -23 c-32 -34 -31 -158 2 -262 20 -63 23 -89 19 -155 l-6 -80
86 -87 c103 -106 120 -142 147 -310 10 -69 22 -128 26 -132 4 -3 4 36 0 88 -3
52 -6 111 -6 131 0 28 -17 64 -76 159 l-76 122 25 19 c16 13 28 35 32 61 6 37
4 44 -26 76 -33 33 -33 35 -15 49 16 11 19 24 17 63 -2 40 2 54 19 71 29 29
23 73 -29 216 -22 60 -45 127 -51 149 -9 36 -18 45 -82 82 -40 23 -85 45 -100
48 -33 8 -36 35 -14 126 12 50 11 60 -5 106 -26 67 -56 80 -151 66z"/>
</g>
</svg>
