<?xml version="1.0" standalone="no"?>
<!DOCTYPE svg PUBLIC "-//W3C//DTD SVG 20010904//EN"
 "http://www.w3.org/TR/2001/REC-SVG-20010904/DTD/svg10.dtd">
<svg version="1.0" xmlns="http://www.w3.org/2000/svg"
 width="37.000000pt" height="52.000000pt" viewBox="0 0 37.000000 52.000000"
 preserveAspectRatio="xMidYMid meet">
<metadata>
Created by potrace 1.14, written by Peter Selinger 2001-2017
</metadata>
<g transform="translate(0.000000,52.000000) scale(0.100000,-0.100000)"
fill="#000000" stroke="none">
<path fill="#000000" stroke="none" d="M101 505 c-5 -5 -11 -19 -15 -30 -3
-11 -23 -29 -43 -40 -36 -19 -38 -23 -41 -74 -3 -43 1 -58 18 -76 32 -34 42
-82 29 -142 -5 -29 -15 -55 -20 -58 -13 -9 -11 -59 3 -73 16 -16 88 -15 109 1
9 7 18 21 20 32 4 21 36 32 101 34 31 1 40 6 53 31 8 16 15 44 15 63 0 18 6
42 14 53 13 16 12 21 -1 36 -9 10 -13 24 -8 35 4 10 10 56 15 103 5 47 11 92
14 100 6 13 -11 16 -124 16 -78 0 -135 -5 -139 -11z"/>
</g>
</svg>
