<?xml version="1.0" standalone="no"?>
<!DOCTYPE svg PUBLIC "-//W3C//DTD SVG 20010904//EN"
 "http://www.w3.org/TR/2001/REC-SVG-20010904/DTD/svg10.dtd">
<svg version="1.0" xmlns="http://www.w3.org/2000/svg"
 width="246.000000pt" height="260.000000pt" viewBox="0 0 246.000000 260.000000"
 preserveAspectRatio="xMidYMid meet">
<metadata>
Created by potrace 1.14, written by Peter Selinger 2001-2017
</metadata>
<g transform="translate(0.000000,260.000000) scale(0.100000,-0.100000)"
fill="#000000" stroke="none">
<path fill="#000000" stroke="none" d="M1565 2544 c-30 -68 -30 -64 -6 -64 41
0 51 -11 51 -56 0 -24 5 -55 12 -69 8 -19 9 -28 0 -37 -8 -8 -4 -20 18 -47 21
-28 26 -41 19 -54 -6 -11 -6 -24 1 -36 37 -71 42 -65 -102 -137 -108 -54 -150
-82 -228 -151 -83 -75 -106 -103 -183 -227 -49 -77 -108 -179 -132 -226 -24
-47 -70 -114 -102 -150 -33 -36 -87 -103 -120 -150 -34 -47 -74 -97 -90 -111
-15 -15 -37 -44 -48 -65 -11 -21 -40 -74 -64 -116 -47 -84 -65 -98 -185 -133
-51 -15 -51 -15 -71 9 l-20 25 -97 -23 c-86 -20 -103 -28 -145 -67 -55 -50
-83 -113 -56 -128 13 -7 14 -14 5 -40 l-11 -31 81 -41 c73 -37 83 -39 110 -28
29 12 31 10 106 -62 42 -41 98 -93 123 -117 l46 -43 110 -9 111 -9 152 -76
c84 -42 153 -75 155 -73 1 2 61 91 132 198 92 138 155 247 216 374 75 153 101
196 180 295 77 95 114 155 209 336 63 121 157 308 208 415 110 232 150 287
251 342 77 41 113 46 177 24 41 -15 42 -15 62 14 l20 28 -21 56 c-20 52 -26
58 -104 103 -79 45 -85 50 -115 114 -32 65 -33 68 -28 183 l4 116 -303 0 -303
0 -25 -56z"/>
</g>
</svg>
