<?xml version="1.0" standalone="no"?>
<!DOCTYPE svg PUBLIC "-//W3C//DTD SVG 20010904//EN"
 "http://www.w3.org/TR/2001/REC-SVG-20010904/DTD/svg10.dtd">
<svg version="1.0" xmlns="http://www.w3.org/2000/svg"
 width="61.000000pt" height="62.000000pt" viewBox="0 0 61.000000 62.000000"
 preserveAspectRatio="xMidYMid meet">
<metadata>
Created by potrace 1.14, written by Peter Selinger 2001-2017
</metadata>
<g transform="translate(0.000000,62.000000) scale(0.100000,-0.100000)"
fill="#000000" stroke="none">
<path fill="#000000" stroke="none" d="M182 607 l-44 -10 3 -80 3 -79 -54 -36
c-62 -42 -57 -27 -81 -250 -11 -105 -11 -114 7 -133 16 -18 28 -20 84 -17 52
3 72 9 101 31 23 17 48 27 70 27 41 0 55 9 60 34 6 30 92 48 176 38 95 -11
103 -8 103 37 0 32 -8 46 -53 92 -29 30 -83 74 -120 99 l-66 45 -1 78 c0 113
-4 117 -120 131 -14 1 -44 -2 -68 -7z"/>
</g>
</svg>
