<?xml version="1.0" standalone="no"?>
<!DOCTYPE svg PUBLIC "-//W3C//DTD SVG 20010904//EN"
 "http://www.w3.org/TR/2001/REC-SVG-20010904/DTD/svg10.dtd">
<svg version="1.0" xmlns="http://www.w3.org/2000/svg"
 width="288.000000pt" height="342.000000pt" viewBox="0 0 288.000000 342.000000"
 preserveAspectRatio="xMidYMid meet">
<metadata>
Created by potrace 1.14, written by Peter Selinger 2001-2017
</metadata>
<g transform="translate(0.000000,342.000000) scale(0.100000,-0.100000)"
fill="#000000" stroke="none">
<path fill="#000000" stroke="none" d="M1740 3369 c-32 -36 -84 -72 -180 -127
l-134 -77 -22 -89 -23 -90 47 -51 c26 -28 130 -140 232 -248 102 -109 185
-201 185 -206 0 -4 -81 -204 -180 -443 l-179 -436 -413 -162 c-367 -145 -413
-166 -421 -189 -6 -14 -74 -208 -152 -431 -77 -223 -144 -408 -148 -412 -4 -4
-37 -11 -74 -16 l-67 -8 -69 77 -70 77 -38 -39 c-21 -21 -36 -40 -33 -42 2 -1
17 -9 34 -17 32 -17 455 -416 455 -431 0 -22 24 -3 94 77 71 81 90 95 274 208
197 120 199 122 319 251 l121 130 177 45 178 45 246 173 246 172 163 218 c89
119 217 302 284 407 112 177 126 204 204 406 46 119 84 220 84 226 0 5 -42 38
-94 74 l-94 64 39 77 c31 62 45 110 73 255 19 98 36 189 38 202 3 21 -13 34
-122 103 l-125 79 -110 -6 c-60 -3 -118 -8 -127 -11 -9 -3 -41 -37 -71 -77
l-55 -72 -9 -173 -9 -172 -43 -43 -43 -42 6 48 c6 48 4 50 -72 162 -63 92 -85
117 -121 135 -53 26 -56 22 -66 -68 -12 -115 -9 -115 -116 0 -52 57 -98 108
-103 115 -4 7 1 27 10 45 19 36 125 166 173 212 17 17 31 34 31 38 0 10 -72
108 -80 108 -3 0 -25 -23 -50 -51z"/>
</g>
</svg>
