<?xml version="1.0" standalone="no"?>
<!DOCTYPE svg PUBLIC "-//W3C//DTD SVG 20010904//EN"
 "http://www.w3.org/TR/2001/REC-SVG-20010904/DTD/svg10.dtd">
<svg version="1.0" xmlns="http://www.w3.org/2000/svg"
 width="29.000000pt" height="46.000000pt" viewBox="0 0 29.000000 46.000000"
 preserveAspectRatio="xMidYMid meet">
<metadata>
Created by potrace 1.14, written by Peter Selinger 2001-2017
</metadata>
<g transform="translate(0.000000,46.000000) scale(0.100000,-0.100000)"
fill="#000000" stroke="none">
<path fill="#000000" stroke="none" d="M53 450 c-31 -13 -39 -35 -47 -122 l-7
-76 41 -7 40 -7 0 -69 c0 -48 4 -69 13 -69 6 -1 28 -21 47 -46 31 -40 73 -65
86 -51 3 2 10 36 16 73 5 38 19 86 29 106 l19 37 -24 28 c-28 33 -72 118 -81
154 -11 46 -78 71 -132 49z"/>
</g>
</svg>
