<?xml version="1.0" standalone="no"?>
<!DOCTYPE svg PUBLIC "-//W3C//DTD SVG 20010904//EN"
 "http://www.w3.org/TR/2001/REC-SVG-20010904/DTD/svg10.dtd">
<svg version="1.0" xmlns="http://www.w3.org/2000/svg"
 width="48.000000pt" height="62.000000pt" viewBox="0 0 48.000000 62.000000"
 preserveAspectRatio="xMidYMid meet">
<metadata>
Created by potrace 1.14, written by Peter Selinger 2001-2017
</metadata>
<g transform="translate(0.000000,62.000000) scale(0.100000,-0.100000)"
fill="#000000" stroke="none">
<path fill="#000000" stroke="none" d="M0 476 c0 -78 3 -170 6 -202 l6 -59 61
-20 c52 -17 68 -28 102 -72 22 -28 48 -54 58 -58 9 -4 29 -17 45 -29 21 -18
45 -25 108 -30 l81 -7 6 26 c7 42 -2 63 -39 86 -31 19 -34 25 -32 61 2 47 -13
60 -59 52 -23 -4 -33 -2 -33 6 0 7 7 10 16 6 8 -3 13 -2 10 3 -3 5 9 14 27 21
31 11 31 12 13 26 -24 17 -30 17 -79 3 -35 -9 -41 -8 -71 18 -18 15 -41 33
-52 39 -15 9 -17 16 -9 30 6 11 9 43 7 72 l-3 52 -35 0 c-20 0 -42 -8 -53 -19
-19 -19 -19 -19 -14 34 5 48 3 56 -20 79 -14 14 -31 26 -37 26 -6 0 -10 -50
-10 -144z"/>
<path fill="#ffffff" stroke="none" d="M60 421 c0 -11 5 -23 10 -26 6 -3 17
-21 26 -38 16 -31 16 -32 -3 -15 -10 10 -29 36 -42 58 -19 33 -20 40 -7 40 9
0 16 -8 16 -19z"/>
<path fill="#ffffff" stroke="none" d="M283 243 c-7 -2 -21 -2 -30 0 -10 3 -4
5 12 5 17 0 24 -2 18 -5z"/>
</g>
</svg>
