<?xml version="1.0" standalone="no"?>
<!DOCTYPE svg PUBLIC "-//W3C//DTD SVG 20010904//EN"
 "http://www.w3.org/TR/2001/REC-SVG-20010904/DTD/svg10.dtd">
<svg version="1.0" xmlns="http://www.w3.org/2000/svg"
 width="40.000000pt" height="86.000000pt" viewBox="0 0 40.000000 86.000000"
 preserveAspectRatio="xMidYMid meet">
<metadata>
Created by potrace 1.14, written by Peter Selinger 2001-2017
</metadata>
<g transform="translate(0.000000,86.000000) scale(0.100000,-0.100000)"
fill="#000000" stroke="none">
<path fill="#000000" stroke="none" d="M27 843 c-30 -109 -30 -119 2 -215 16
-51 42 -165 57 -253 25 -150 30 -167 81 -267 30 -60 58 -108 62 -108 3 0 35
29 70 64 l63 64 -52 162 c-28 89 -50 163 -48 165 2 2 33 21 70 42 l67 38 -67
42 -67 41 -40 105 c-46 119 -65 137 -145 137 -38 0 -50 -4 -53 -17z"/>
</g>
</svg>
