<?xml version="1.0" standalone="no"?>
<!DOCTYPE svg PUBLIC "-//W3C//DTD SVG 20010904//EN"
 "http://www.w3.org/TR/2001/REC-SVG-20010904/DTD/svg10.dtd">
<svg version="1.0" xmlns="http://www.w3.org/2000/svg"
 width="36.000000pt" height="89.000000pt" viewBox="0 0 36.000000 89.000000"
 preserveAspectRatio="xMidYMid meet">
<metadata>
Created by potrace 1.14, written by Peter Selinger 2001-2017
</metadata>
<g transform="translate(0.000000,89.000000) scale(0.100000,-0.100000)"
fill="#000000" stroke="none">
<path fill="#000000" stroke="none" d="M60 878 c0 -9 -13 -184 -30 -390 -16
-205 -30 -386 -30 -403 0 -27 6 -32 64 -57 l65 -26 26 38 c25 36 28 38 61 28
33 -9 38 -7 90 37 63 54 60 24 35 315 l-18 215 -48 110 c-26 61 -49 112 -51
114 -2 2 -29 -1 -60 -8 -57 -13 -57 -13 -80 15 -17 22 -23 25 -24 12z"/>
</g>
</svg>
