<?xml version="1.0" standalone="no"?>
<!DOCTYPE svg PUBLIC "-//W3C//DTD SVG 20010904//EN"
 "http://www.w3.org/TR/2001/REC-SVG-20010904/DTD/svg10.dtd">
<svg version="1.0" xmlns="http://www.w3.org/2000/svg"
 width="225.000000pt" height="427.000000pt" viewBox="0 0 225.000000 427.000000"
 preserveAspectRatio="xMidYMid meet">
<metadata>
Created by potrace 1.14, written by Peter Selinger 2001-2017
</metadata>
<g transform="translate(0.000000,427.000000) scale(0.100000,-0.100000)"
fill="#000000" stroke="none">
<path fill="#000000" stroke="none" d="M1125 4246 c-22 -14 -73 -37 -112 -52
-62 -23 -78 -34 -112 -78 -35 -47 -40 -62 -61 -179 -25 -143 -25 -155 16 -417
24 -149 30 -171 62 -223 20 -32 56 -76 80 -97 l43 -39 -40 -27 c-32 -21 -59
-28 -132 -36 -77 -7 -97 -13 -137 -41 -26 -18 -65 -40 -87 -50 -22 -10 -49
-32 -60 -48 -11 -17 -46 -49 -78 -72 -47 -33 -120 -116 -160 -183 -11 -18
-115 -348 -173 -549 -30 -104 -82 -255 -116 -334 -52 -125 -58 -145 -44 -153
42 -23 66 -56 77 -103 17 -76 21 -80 67 -77 22 2 43 -2 47 -8 5 -8 17 -3 36
16 25 24 33 26 80 21 46 -6 130 -44 143 -65 3 -5 2 -21 -2 -37 -7 -24 0 -40
40 -101 26 -40 53 -74 59 -76 8 -3 11 -36 10 -107 -2 -97 -1 -105 27 -155 19
-34 37 -89 51 -159 20 -98 20 -110 6 -137 -10 -20 -15 -58 -15 -123 0 -62 -5
-107 -15 -131 -9 -20 -13 -47 -9 -61 6 -24 -20 -74 -102 -197 -19 -27 -34 -56
-34 -62 0 -7 -11 -22 -23 -35 -21 -19 -77 -31 -197 -41 -3 -1 6 -7 20 -15 21
-12 143 -14 773 -15 l748 0 -8 217 c-9 234 -9 278 -5 596 1 114 5 207 10 207
18 0 52 -77 91 -210 46 -156 77 -223 122 -266 21 -20 30 -24 33 -13 71 204
114 303 158 367 l50 74 -25 66 c-28 71 -52 227 -42 272 4 16 -4 53 -20 97 -24
67 -24 72 -10 114 14 40 14 54 -5 179 -26 168 -104 596 -129 710 -11 47 -37
146 -59 220 l-41 135 -58 52 c-45 40 -66 52 -91 53 -54 0 -102 33 -102 69 0 4
27 3 61 -3 65 -11 85 -5 103 30 6 10 24 42 42 69 17 28 37 75 44 105 16 73 30
92 79 115 48 21 49 26 17 140 l-22 80 22 56 23 56 -23 124 -22 124 22 56 23
57 -27 68 c-29 74 -70 119 -184 202 l-56 41 -304 6 -303 7 -40 -26z"/>
</g>
</svg>
