<?xml version="1.0" standalone="no"?>
<!DOCTYPE svg PUBLIC "-//W3C//DTD SVG 20010904//EN"
 "http://www.w3.org/TR/2001/REC-SVG-20010904/DTD/svg10.dtd">
<svg version="1.0" xmlns="http://www.w3.org/2000/svg"
 width="39.000000pt" height="26.000000pt" viewBox="0 0 39.000000 26.000000"
 preserveAspectRatio="xMidYMid meet">
<metadata>
Created by potrace 1.14, written by Peter Selinger 2001-2017
</metadata>
<g transform="translate(0.000000,26.000000) scale(0.100000,-0.100000)"
fill="#000000" stroke="none">
<path fill="#000000" stroke="none" d="M0 199 c0 -58 2 -64 36 -95 19 -19 44
-34 55 -34 12 0 19 -7 19 -18 0 -28 32 -52 69 -52 38 0 156 60 189 96 26 29
28 61 6 92 -20 29 -74 30 -99 2 l-18 -20 -14 20 c-15 21 -77 28 -88 10 -12
-19 -25 -10 -25 18 0 26 -2 27 -44 24 -24 -2 -53 1 -65 7 -20 11 -21 10 -21
-50z"/>
</g>
</svg>
