<?xml version="1.0" standalone="no"?>
<!DOCTYPE svg PUBLIC "-//W3C//DTD SVG 20010904//EN"
 "http://www.w3.org/TR/2001/REC-SVG-20010904/DTD/svg10.dtd">
<svg version="1.0" xmlns="http://www.w3.org/2000/svg"
 width="200.000000pt" height="295.000000pt" viewBox="0 0 200.000000 295.000000"
 preserveAspectRatio="xMidYMid meet">
<metadata>
Created by potrace 1.14, written by Peter Selinger 2001-2017
</metadata>
<g transform="translate(0.000000,295.000000) scale(0.100000,-0.100000)"
fill="#000000" stroke="none">
<path fill="#000000" stroke="none" d="M1350 2901 l-115 -48 -107 -145 -108
-145 -20 -144 c-11 -79 -20 -146 -20 -150 0 -3 -39 -21 -87 -39 -119 -45 -231
-110 -235 -134 -2 -14 -63 -57 -193 -136 -240 -147 -458 -291 -463 -307 -2 -9
6 -9 33 -2 20 6 39 9 41 6 3 -2 -9 -39 -25 -81 l-30 -78 52 -23 c32 -15 90
-28 152 -35 55 -7 101 -13 103 -14 1 -2 -3 -17 -9 -34 -17 -49 6 -166 43 -220
16 -23 57 -104 90 -180 33 -75 64 -141 68 -145 4 -5 10 13 14 40 4 26 18 122
33 213 l26 165 61 64 c54 57 61 74 14 33 -18 -15 -121 -23 -134 -9 -4 4 -11
35 -15 70 -10 77 4 99 44 72 37 -24 69 -6 60 35 -6 33 -5 34 30 21 16 -6 26
-20 30 -40 4 -20 16 -35 37 -46 16 -8 30 -22 30 -30 0 -13 -77 -121 -121 -171
-18 -19 -19 -42 -19 -297 0 -156 5 -297 11 -324 10 -46 12 -49 74 -77 56 -25
73 -28 142 -25 61 3 88 0 121 -15 l42 -19 0 -99 c0 -84 4 -108 26 -160 22 -53
24 -67 15 -97 -6 -20 -12 -47 -13 -61 -2 -19 -10 -26 -30 -28 -17 -2 -36 -15
-48 -33 l-21 -29 396 0 c350 0 396 2 402 16 5 14 -11 267 -24 370 l-5 41 111
24 111 23 0 31 c0 16 -11 131 -25 254 -20 179 -25 275 -25 471 l0 245 59 185
c33 102 62 210 66 241 l7 56 -95 89 -94 89 -46 125 c-45 124 -46 127 -52 285
-3 88 -9 171 -12 185 -5 24 -194 204 -225 214 -7 3 -65 -17 -128 -43z"/>
</g>
</svg>
