<?xml version="1.0" standalone="no"?>
<!DOCTYPE svg PUBLIC "-//W3C//DTD SVG 20010904//EN"
 "http://www.w3.org/TR/2001/REC-SVG-20010904/DTD/svg10.dtd">
<svg version="1.0" xmlns="http://www.w3.org/2000/svg"
 width="142.000000pt" height="156.000000pt" viewBox="0 0 142.000000 156.000000"
 preserveAspectRatio="xMidYMid meet">
<metadata>
Created by potrace 1.14, written by Peter Selinger 2001-2017
</metadata>
<g transform="translate(0.000000,156.000000) scale(0.100000,-0.100000)"
fill="#000000" stroke="none">
<path fill="#000000" stroke="none" d="M969 1518 l-64 -40 -59 -144 c-32 -80
-62 -146 -65 -149 -4 -2 -13 23 -19 55 -14 65 -10 62 -112 81 l-64 12 -68 -73
c-75 -82 -98 -132 -98 -220 l0 -57 -132 -38 c-73 -20 -168 -53 -210 -73 -76
-34 -78 -36 -78 -71 0 -54 32 -85 110 -105 62 -16 72 -16 214 4 l149 20 45
-35 c25 -19 60 -40 79 -47 l34 -12 -7 -56 c-5 -46 -2 -64 15 -99 12 -23 45
-105 72 -183 51 -140 51 -140 30 -155 -12 -8 -35 -40 -51 -72 l-29 -58 173 35
173 34 7 61 c6 58 4 63 -44 153 -27 51 -50 95 -50 98 0 3 13 6 30 6 39 0 161
-75 190 -117 20 -30 21 -33 5 -56 -15 -24 -15 -26 3 -36 14 -8 47 -3 133 20
62 16 117 33 120 37 4 4 10 30 14 57 l6 50 -116 90 c-64 50 -118 99 -120 110
-2 11 -9 46 -15 79 -8 47 -22 75 -69 141 -87 121 -111 212 -111 415 l0 150 50
100 50 100 -28 14 c-27 14 -31 12 -93 -26z"/>
</g>
</svg>
