<?xml version="1.0" standalone="no"?>
<!DOCTYPE svg PUBLIC "-//W3C//DTD SVG 20010904//EN"
 "http://www.w3.org/TR/2001/REC-SVG-20010904/DTD/svg10.dtd">
<svg version="1.0" xmlns="http://www.w3.org/2000/svg"
 width="15.000000pt" height="39.000000pt" viewBox="0 0 15.000000 39.000000"
 preserveAspectRatio="xMidYMid meet">
<metadata>
Created by potrace 1.14, written by Peter Selinger 2001-2017
</metadata>
<g transform="translate(0.000000,39.000000) scale(0.100000,-0.100000)"
fill="#000000" stroke="none">
<path fill="#000000" stroke="none" d="M52 378 c-5 -7 -6 -22 -2 -33 5 -14 2
-26 -11 -41 -20 -22 -43 -119 -32 -137 3 -6 5 -32 4 -59 -1 -30 2 -48 9 -48 7
0 9 -9 6 -22 -4 -13 5 1 19 31 14 30 28 51 32 48 3 -4 10 -30 14 -58 10 -61
11 -63 39 -54 19 6 21 11 14 39 -4 17 -8 84 -8 148 -1 79 -5 121 -14 130 -6 6
-12 19 -12 28 0 33 -38 52 -58 28z"/>
</g>
</svg>
