<?xml version="1.0" standalone="no"?>
<!DOCTYPE svg PUBLIC "-//W3C//DTD SVG 20010904//EN"
 "http://www.w3.org/TR/2001/REC-SVG-20010904/DTD/svg10.dtd">
<svg version="1.0" xmlns="http://www.w3.org/2000/svg"
 width="102.000000pt" height="423.000000pt" viewBox="0 0 102.000000 423.000000"
 preserveAspectRatio="xMidYMid meet">
<metadata>
Created by potrace 1.14, written by Peter Selinger 2001-2017
</metadata>
<g transform="translate(0.000000,423.000000) scale(0.100000,-0.100000)"
fill="#000000" stroke="none">
<path fill="#000000" stroke="none" d="M6 2120 c4 -1163 8 -2116 9 -2117 1 -2
30 62 65 142 34 80 64 144 66 142 2 -2 22 -46 43 -98 38 -88 42 -94 68 -92 66
4 758 66 761 68 2 2 -45 117 -103 256 l-107 254 -68 415 c-38 228 -73 426 -78
440 -5 14 -46 76 -92 137 -75 100 -105 129 -298 290 l-214 178 7 194 7 195
115 172 115 172 34 269 c19 147 41 364 50 482 l16 214 -201 201 -201 201 6
-2115z"/>
</g>
</svg>
