<?xml version="1.0" standalone="no"?>
<!DOCTYPE svg PUBLIC "-//W3C//DTD SVG 20010904//EN"
 "http://www.w3.org/TR/2001/REC-SVG-20010904/DTD/svg10.dtd">
<svg version="1.0" xmlns="http://www.w3.org/2000/svg"
 width="91.000000pt" height="277.000000pt" viewBox="0 0 91.000000 277.000000"
 preserveAspectRatio="xMidYMid meet">
<metadata>
Created by potrace 1.14, written by Peter Selinger 2001-2017
</metadata>
<g transform="translate(0.000000,277.000000) scale(0.100000,-0.100000)"
fill="#000000" stroke="none">
<path fill="#000000" stroke="none" d="M540 2763 c-57 -9 -87 -27 -127 -74
-49 -57 -50 -64 -34 -287 l8 -114 63 -63 62 -62 -34 -27 c-40 -30 -66 -32
-108 -11 -24 12 -30 13 -37 1 -4 -7 -18 -18 -31 -25 -31 -16 -21 -27 43 -45
30 -9 57 -21 60 -26 3 -5 8 -83 10 -172 3 -90 9 -199 15 -243 12 -96 7 -134
-29 -200 -15 -27 -36 -74 -46 -102 -11 -29 -38 -75 -61 -101 -28 -32 -63 -94
-100 -178 -54 -122 -57 -134 -60 -219 -2 -67 4 -118 22 -199 15 -67 24 -140
24 -192 0 -60 6 -98 20 -135 12 -28 19 -56 18 -61 -2 -6 -46 -23 -98 -40 -52
-16 -101 -31 -109 -34 -17 -5 54 -83 105 -114 50 -32 335 -55 374 -30 12 7 12
18 3 67 -7 32 -15 83 -19 113 -3 30 -17 87 -31 125 -44 126 -61 222 -62 345 0
137 9 156 98 218 l59 42 9 -39 c6 -21 8 -61 6 -87 -4 -33 3 -83 21 -152 14
-56 26 -128 26 -160 1 -31 7 -106 14 -165 l12 -108 -21 3 c-63 8 -73 -65 -19
-136 44 -58 64 -66 168 -66 98 0 127 14 109 52 -7 17 -9 66 -6 144 6 128 -10
292 -31 336 -8 15 -10 30 -5 35 9 9 -3 168 -20 274 -10 61 -4 106 22 156 10
18 17 38 17 46 0 7 12 36 26 63 18 33 29 73 34 123 7 70 4 82 -36 208 l-42
134 24 150 c24 148 24 153 9 270 -17 131 -25 157 -60 209 -42 63 -41 89 5 180
41 81 41 83 29 134 -11 47 -38 89 -121 188 -13 15 -43 34 -67 43 -44 15 -54
16 -101 8z"/>
</g>
</svg>
