<?xml version="1.0" standalone="no"?>
<!DOCTYPE svg PUBLIC "-//W3C//DTD SVG 20010904//EN"
 "http://www.w3.org/TR/2001/REC-SVG-20010904/DTD/svg10.dtd">
<svg version="1.0" xmlns="http://www.w3.org/2000/svg"
 width="141.000000pt" height="114.000000pt" viewBox="0 0 141.000000 114.000000"
 preserveAspectRatio="xMidYMid meet">
<metadata>
Created by potrace 1.14, written by Peter Selinger 2001-2017
</metadata>
<g transform="translate(0.000000,114.000000) scale(0.100000,-0.100000)"
fill="#000000" stroke="none">
<path fill="#000000" stroke="none" d="M214 1092 l-9 -47 -62 3 -63 3 0 -41
c0 -25 -16 -80 -41 -141 -36 -89 -40 -103 -29 -129 13 -32 18 -32 321 -44
l126 -5 9 32 c10 32 10 32 108 46 l99 15 55 -30 c96 -51 97 -107 11 -319 -60
-146 -61 -151 -50 -195 11 -41 54 -136 70 -152 3 -3 69 -12 146 -19 111 -9
155 -18 213 -40 40 -16 74 -29 77 -29 6 0 40 119 59 208 11 46 31 96 57 138
22 36 39 67 37 69 -2 1 -21 12 -43 23 -22 11 -56 37 -75 57 -33 36 -30 35 50
-19 46 -30 87 -52 91 -48 14 14 38 112 28 112 -6 0 -37 25 -69 56 -46 43 -63
54 -79 49 -15 -4 -21 -15 -21 -34 0 -32 -43 -80 -55 -61 -16 26 -64 -83 -80
-180 -17 -99 -61 -250 -74 -250 -25 0 -44 47 -94 225 -30 110 -61 243 -67 295
-11 86 -15 99 -45 132 -29 31 -42 37 -92 43 -42 5 -74 17 -115 44 -52 32 -58
40 -64 78 l-6 43 -158 79 -157 80 -9 -47z"/>
<path fill="#000000" stroke="none" d="M490 1081 l105 -59 45 44 c25 24 54 50
65 59 18 13 2 14 -150 15 l-170 0 105 -59z"/>
<path fill="#000000" stroke="none" d="M44 603 c3 -10 10 -38 16 -63 6 -25 48
-106 92 -182 l82 -136 80 30 c45 17 95 35 111 40 17 6 33 14 38 17 8 8 67 264
67 294 0 16 -18 17 -246 17 -229 0 -245 -1 -240 -17z"/>
</g>
</svg>
