<?xml version="1.0" standalone="no"?>
<!DOCTYPE svg PUBLIC "-//W3C//DTD SVG 20010904//EN"
 "http://www.w3.org/TR/2001/REC-SVG-20010904/DTD/svg10.dtd">
<svg version="1.0" xmlns="http://www.w3.org/2000/svg"
 width="40.000000pt" height="208.000000pt" viewBox="0 0 40.000000 208.000000"
 preserveAspectRatio="xMidYMid meet">
<metadata>
Created by potrace 1.14, written by Peter Selinger 2001-2017
</metadata>
<g transform="translate(0.000000,208.000000) scale(0.100000,-0.100000)"
fill="#000000" stroke="none">
<path fill="#000000" stroke="none" d="M73 2042 l-73 -36 0 -121 c0 -136 22
-1879 24 -1882 1 -1 31 6 66 17 36 10 76 21 90 24 19 4 35 24 66 83 35 65 44
96 59 191 16 111 16 113 -5 186 -20 65 -22 90 -17 203 4 118 8 139 51 268 43
130 46 147 46 245 0 68 -7 135 -20 190 -29 129 -27 231 9 328 l30 80 -24 87
c-14 48 -26 89 -27 90 -3 3 -166 70 -193 80 -5 2 -43 -13 -82 -33z"/>
</g>
</svg>
