<?xml version="1.0" standalone="no"?>
<!DOCTYPE svg PUBLIC "-//W3C//DTD SVG 20010904//EN"
 "http://www.w3.org/TR/2001/REC-SVG-20010904/DTD/svg10.dtd">
<svg version="1.0" xmlns="http://www.w3.org/2000/svg"
 width="62.000000pt" height="84.000000pt" viewBox="0 0 62.000000 84.000000"
 preserveAspectRatio="xMidYMid meet">
<metadata>
Created by potrace 1.14, written by Peter Selinger 2001-2017
</metadata>
<g transform="translate(0.000000,84.000000) scale(0.100000,-0.100000)"
fill="#000000" stroke="none">
<path fill="#000000" stroke="none" d="M131 798 c-17 -23 -31 -45 -31 -48 0
-4 11 -40 25 -81 24 -67 24 -75 9 -84 -107 -65 -101 -59 -108 -121 -4 -33 -12
-78 -18 -102 -13 -54 -3 -67 71 -89 69 -20 115 -63 131 -124 6 -24 23 -68 37
-96 25 -49 29 -53 62 -52 20 0 70 6 112 12 66 11 80 17 108 47 17 19 45 61 62
93 l30 59 -24 111 c-20 95 -27 113 -49 127 -14 8 -51 33 -83 55 l-58 40 -46
128 c-53 146 -71 167 -153 167 -43 0 -49 -3 -77 -42z"/>
</g>
</svg>
