<?xml version="1.0" standalone="no"?>
<!DOCTYPE svg PUBLIC "-//W3C//DTD SVG 20010904//EN"
 "http://www.w3.org/TR/2001/REC-SVG-20010904/DTD/svg10.dtd">
<svg version="1.0" xmlns="http://www.w3.org/2000/svg"
 width="107.000000pt" height="378.000000pt" viewBox="0 0 107.000000 378.000000"
 preserveAspectRatio="xMidYMid meet">
<metadata>
Created by potrace 1.14, written by Peter Selinger 2001-2017
</metadata>
<g transform="translate(0.000000,378.000000) scale(0.100000,-0.100000)"
fill="#000000" stroke="none">
<path fill="#000000" stroke="none" d="M107 3751 c-80 -38 -103 -74 -98 -160
1 -35 9 -81 17 -103 7 -21 18 -66 24 -100 13 -69 65 -182 80 -173 6 3 10 19
10 36 0 16 5 29 10 29 6 0 10 -7 10 -15 0 -8 9 -15 19 -15 19 0 36 -12 116
-82 25 -23 52 -38 68 -38 35 0 58 -34 50 -74 -3 -17 -10 -35 -14 -40 -5 -6 -9
-42 -9 -82 0 -61 -5 -83 -36 -150 -40 -88 -76 -256 -92 -424 l-9 -105 48 -97
c37 -73 61 -107 99 -140 l50 -43 0 -150 0 -150 46 -68 46 -69 -4 -131 c-3 -73
-12 -176 -22 -229 l-18 -97 52 -163 c61 -188 160 -526 160 -543 0 -6 -85 -87
-190 -179 -104 -93 -190 -172 -190 -177 0 -15 91 -21 148 -11 31 6 72 14 91
17 19 3 63 24 99 46 l65 41 121 -20 c76 -13 125 -16 131 -11 6 6 12 57 13 115
3 90 1 113 -17 154 -27 62 -27 115 0 176 13 29 27 93 35 159 l12 110 -23 20
c-62 52 -49 335 27 600 l40 140 -17 103 c-9 57 -25 132 -35 168 -18 63 -26
210 -35 634 -1 69 -6 184 -9 255 -7 129 -7 131 27 249 l35 119 -43 41 c-30 28
-65 81 -110 167 -57 110 -74 134 -133 186 -62 55 -212 157 -291 197 -18 10
-75 28 -126 41 -51 13 -108 33 -126 44 -40 25 -31 26 -102 -8z"/>
</g>
</svg>
