<?xml version="1.0" standalone="no"?>
<!DOCTYPE svg PUBLIC "-//W3C//DTD SVG 20010904//EN"
 "http://www.w3.org/TR/2001/REC-SVG-20010904/DTD/svg10.dtd">
<svg version="1.0" xmlns="http://www.w3.org/2000/svg"
 width="141.000000pt" height="13.000000pt" viewBox="0 0 141.000000 13.000000"
 preserveAspectRatio="xMidYMid meet">
<metadata>
Created by potrace 1.14, written by Peter Selinger 2001-2017
</metadata>
<g transform="translate(0.000000,13.000000) scale(0.100000,-0.100000)"
fill="#000000" stroke="none">
<path fill="#000000" stroke="none" d="M0 63 l0 -63 146 0 145 0 15 35 c7 19
14 36 14 39 0 5 -102 23 -222 40 l-98 13 0 -64z"/>
<path fill="#000000" stroke="none" d="M938 72 c-30 -14 -58 -46 -58 -67 0 -3
120 -5 268 -5 l267 0 -43 28 c-38 26 -56 30 -185 41 -78 7 -158 14 -177 16
-20 2 -51 -3 -72 -13z"/>
</g>
</svg>
