<?xml version="1.0" standalone="no"?>
<!DOCTYPE svg PUBLIC "-//W3C//DTD SVG 20010904//EN"
 "http://www.w3.org/TR/2001/REC-SVG-20010904/DTD/svg10.dtd">
<svg version="1.0" xmlns="http://www.w3.org/2000/svg"
 width="126.000000pt" height="381.000000pt" viewBox="0 0 126.000000 381.000000"
 preserveAspectRatio="xMidYMid meet">
<metadata>
Created by potrace 1.14, written by Peter Selinger 2001-2017
</metadata>
<g transform="translate(0.000000,381.000000) scale(0.100000,-0.100000)"
fill="#000000" stroke="none">
<path fill="#000000" stroke="none" d="M354 3803 c-30 -4 -33 -9 -83 -138
l-52 -134 20 -48 c11 -26 39 -97 61 -156 36 -92 40 -110 29 -125 -8 -9 -37
-44 -66 -78 -79 -91 -144 -279 -212 -607 l-51 -248 0 -237 0 -237 84 3 84 4
26 -44 c18 -30 30 -75 41 -147 22 -150 99 -449 146 -571 33 -85 43 -126 52
-217 10 -108 10 -114 -13 -162 -16 -36 -39 -61 -80 -91 -47 -34 -107 -100
-142 -156 -5 -7 12 -25 46 -49 l55 -37 133 5 c73 2 161 10 195 17 l63 12 31
98 31 98 -57 291 -57 291 27 128 c15 70 30 133 34 140 5 8 24 -11 55 -57 l48
-69 35 -259 c35 -252 36 -261 23 -377 -8 -75 -27 -170 -50 -252 l-38 -133 56
-130 57 -131 76 0 76 0 6 127 c4 71 16 191 26 268 32 230 44 467 37 715 -5
166 -2 273 9 408 l16 184 -27 81 -26 82 70 255 c126 455 116 402 108 579 -10
228 -32 331 -92 433 -26 46 -57 100 -68 120 -12 21 -26 38 -32 38 -5 0 -23
-13 -39 -30 -16 -16 -32 -30 -35 -30 -3 0 -19 27 -34 59 -24 50 -42 68 -112
121 -78 57 -88 69 -164 194 l-81 132 -102 37 c-56 21 -104 37 -107 36 -3 -1
-19 -4 -36 -6z"/>
</g>
</svg>
