<?xml version="1.0" standalone="no"?>
<!DOCTYPE svg PUBLIC "-//W3C//DTD SVG 20010904//EN"
 "http://www.w3.org/TR/2001/REC-SVG-20010904/DTD/svg10.dtd">
<svg version="1.0" xmlns="http://www.w3.org/2000/svg"
 width="47.000000pt" height="138.000000pt" viewBox="0 0 47.000000 138.000000"
 preserveAspectRatio="xMidYMid meet">
<metadata>
Created by potrace 1.14, written by Peter Selinger 2001-2017
</metadata>
<g transform="translate(0.000000,138.000000) scale(0.100000,-0.100000)"
fill="#000000" stroke="none">
<path fill="#000000" stroke="none" d="M161 1343 c-35 -43 -37 -54 -16 -113
23 -64 20 -97 -9 -104 -25 -6 -83 -71 -109 -122 -9 -18 -19 -50 -23 -73 -8
-49 10 -76 57 -86 31 -7 34 -14 43 -104 3 -31 1 -62 -6 -75 -14 -26 -11 -105
6 -154 7 -20 17 -72 20 -114 5 -52 13 -81 22 -86 31 -17 61 -223 41 -278 -7
-19 -3 -21 42 -22 49 -1 50 0 54 31 l4 32 1 -32 c2 -30 5 -33 37 -35 19 0 41
-1 48 -2 15 -1 10 43 -8 64 -9 10 -16 61 -21 148 -7 128 -6 134 15 163 20 27
23 45 26 147 2 64 8 151 14 192 6 41 10 84 11 96 0 12 10 26 26 33 23 10 25
16 23 64 -1 29 1 59 5 66 5 8 0 23 -12 39 -12 15 -37 50 -57 79 -39 57 -69 83
-97 83 -18 0 -25 30 -10 44 4 4 12 24 18 44 20 69 -13 112 -86 112 -21 0 -37
-10 -59 -37z"/>
<path fill="#ffffff" stroke="none" d="M281 211 c10 -52 3 -139 -9 -126 -4 4
-8 41 -8 83 -1 43 -4 93 -8 112 -6 31 -5 32 5 10 6 -14 15 -49 20 -79z"/>
</g>
</svg>
