<?xml version="1.0" standalone="no"?>
<!DOCTYPE svg PUBLIC "-//W3C//DTD SVG 20010904//EN"
 "http://www.w3.org/TR/2001/REC-SVG-20010904/DTD/svg10.dtd">
<svg version="1.0" xmlns="http://www.w3.org/2000/svg"
 width="35.000000pt" height="26.000000pt" viewBox="0 0 35.000000 26.000000"
 preserveAspectRatio="xMidYMid meet">
<metadata>
Created by potrace 1.14, written by Peter Selinger 2001-2017
</metadata>
<g transform="translate(0.000000,26.000000) scale(0.100000,-0.100000)"
fill="#000000" stroke="none">
<path fill="#000000" stroke="none" d="M57 253 c-9 -15 -11 -58 -4 -70 10 -16
0 -33 -18 -33 -25 0 -37 -38 -30 -91 5 -34 11 -49 22 -49 13 0 14 8 9 40 l-6
40 60 0 c58 0 60 -1 73 -32 20 -47 44 -65 68 -50 10 7 41 12 69 12 47 0 50 2
50 26 0 14 -4 23 -10 19 -6 -3 -31 -3 -56 1 -35 5 -47 12 -54 29 -11 29 -60
75 -80 75 -10 0 -15 10 -16 30 -1 16 -7 36 -14 45 -13 16 -55 21 -63 8z"/>
</g>
</svg>
