<?xml version="1.0" standalone="no"?>
<!DOCTYPE svg PUBLIC "-//W3C//DTD SVG 20010904//EN"
 "http://www.w3.org/TR/2001/REC-SVG-20010904/DTD/svg10.dtd">
<svg version="1.0" xmlns="http://www.w3.org/2000/svg"
 width="38.000000pt" height="46.000000pt" viewBox="0 0 38.000000 46.000000"
 preserveAspectRatio="xMidYMid meet">
<metadata>
Created by potrace 1.14, written by Peter Selinger 2001-2017
</metadata>
<g transform="translate(0.000000,46.000000) scale(0.100000,-0.100000)"
fill="#000000" stroke="none">
<path fill="#000000" stroke="none" d="M40 442 c-44 -21 -50 -56 -21 -115 22
-45 74 -107 104 -124 18 -9 17 -13 -7 -73 -14 -35 -25 -64 -23 -65 1 -2 35
-16 75 -33 61 -26 78 -29 103 -20 16 5 47 8 69 6 22 -2 40 -3 40 -1 0 22 -89
245 -105 263 -12 14 -25 40 -29 59 -3 19 -18 54 -34 78 -27 42 -28 43 -82 43
-32 0 -69 -7 -90 -18z"/>
<path fill="#000000" stroke="none" d="M8 3 c7 -3 16 -2 19 1 4 3 -2 6 -13 5
-11 0 -14 -3 -6 -6z"/>
</g>
</svg>
