<?xml version="1.0" standalone="no"?>
<!DOCTYPE svg PUBLIC "-//W3C//DTD SVG 20010904//EN"
 "http://www.w3.org/TR/2001/REC-SVG-20010904/DTD/svg10.dtd">
<svg version="1.0" xmlns="http://www.w3.org/2000/svg"
 width="22.000000pt" height="64.000000pt" viewBox="0 0 22.000000 64.000000"
 preserveAspectRatio="xMidYMid meet">
<metadata>
Created by potrace 1.14, written by Peter Selinger 2001-2017
</metadata>
<g transform="translate(0.000000,64.000000) scale(0.100000,-0.100000)"
fill="#000000" stroke="none">
<path fill="#000000" stroke="none" d="M57 633 c-4 -3 -7 -24 -7 -45 0 -32 -5
-40 -26 -50 l-27 -12 7 -96 c3 -52 17 -140 29 -195 22 -97 22 -129 2 -212 -5
-23 -4 -23 84 -23 49 0 92 4 95 8 3 5 -3 20 -12 35 -16 23 -17 39 -10 122 12
136 -3 318 -29 353 -11 15 -23 42 -26 61 -4 19 -12 40 -18 48 -12 14 -51 18
-62 6z"/>
</g>
</svg>
