<?xml version="1.0" standalone="no"?>
<!DOCTYPE svg PUBLIC "-//W3C//DTD SVG 20010904//EN"
 "http://www.w3.org/TR/2001/REC-SVG-20010904/DTD/svg10.dtd">
<svg version="1.0" xmlns="http://www.w3.org/2000/svg"
 width="77.000000pt" height="142.000000pt" viewBox="0 0 77.000000 142.000000"
 preserveAspectRatio="xMidYMid meet">
<metadata>
Created by potrace 1.14, written by Peter Selinger 2001-2017
</metadata>
<g transform="translate(0.000000,142.000000) scale(0.100000,-0.100000)"
fill="#000000" stroke="none">
<path fill="#000000" stroke="none" d="M314 1410 c-11 -4 -36 -26 -55 -47 -19
-21 -57 -56 -85 -76 -36 -26 -57 -50 -68 -79 -17 -40 -17 -41 8 -67 40 -42 38
-113 -11 -333 -41 -185 -42 -187 -30 -283 l11 -97 44 -30 c24 -17 62 -41 85
-54 26 -14 36 -25 27 -27 -8 -2 -37 -10 -65 -16 -27 -7 -78 -25 -112 -41 -80
-37 -82 -55 -12 -118 63 -57 105 -81 143 -82 28 0 28 1 23 43 -4 23 -9 54 -13
69 -6 25 -3 27 60 47 37 11 97 24 134 27 l67 7 -53 -49 c-47 -44 -53 -54 -59
-101 l-6 -51 40 -20 c29 -15 51 -19 81 -15 22 3 70 0 106 -7 37 -7 86 -9 110
-6 38 6 43 10 39 27 -7 26 -54 56 -111 71 -49 12 -64 34 -60 86 3 34 8 39 56
62 58 28 71 43 72 80 1 14 7 41 15 60 7 19 27 73 45 119 l31 84 -28 29 c-27
28 -28 29 -113 22 -47 -3 -118 -15 -158 -26 -95 -25 -111 -22 -82 15 25 31 80
61 190 102 125 47 154 82 85 105 -32 11 -43 8 -147 -39 -62 -27 -114 -46 -116
-41 -2 6 51 125 63 138 1 1 23 -7 50 -19 37 -16 61 -20 104 -16 54 4 138 33
128 43 -3 3 -36 10 -73 15 -76 11 -102 29 -154 108 l-29 43 26 52 c44 86 53
135 34 182 -30 72 -37 80 -100 97 -66 18 -104 20 -137 7z"/>
</g>
</svg>
