<?xml version="1.0" standalone="no"?>
<!DOCTYPE svg PUBLIC "-//W3C//DTD SVG 20010904//EN"
 "http://www.w3.org/TR/2001/REC-SVG-20010904/DTD/svg10.dtd">
<svg version="1.0" xmlns="http://www.w3.org/2000/svg"
 width="38.000000pt" height="84.000000pt" viewBox="0 0 38.000000 84.000000"
 preserveAspectRatio="xMidYMid meet">
<metadata>
Created by potrace 1.14, written by Peter Selinger 2001-2017
</metadata>
<g transform="translate(0.000000,84.000000) scale(0.100000,-0.100000)"
fill="#000000" stroke="none">
<path fill="#000000" stroke="none" d="M22 825 c-14 -6 -20 -15 -16 -25 3 -8
6 -192 5 -409 l-1 -394 82 6 c46 4 128 7 183 7 l100 0 -5 66 c-3 36 -10 68
-16 72 -6 4 -20 25 -32 47 -26 51 -122 304 -122 321 0 7 -23 37 -50 67 -29 32
-46 58 -40 62 5 3 10 17 10 31 0 14 7 35 15 48 15 22 14 25 -37 67 -46 39 -56
43 -76 34z"/>
</g>
</svg>
