<?xml version="1.0" standalone="no"?>
<!DOCTYPE svg PUBLIC "-//W3C//DTD SVG 20010904//EN"
 "http://www.w3.org/TR/2001/REC-SVG-20010904/DTD/svg10.dtd">
<svg version="1.0" xmlns="http://www.w3.org/2000/svg"
 width="25.000000pt" height="67.000000pt" viewBox="0 0 25.000000 67.000000"
 preserveAspectRatio="xMidYMid meet">
<metadata>
Created by potrace 1.14, written by Peter Selinger 2001-2017
</metadata>
<g transform="translate(0.000000,67.000000) scale(0.100000,-0.100000)"
fill="#000000" stroke="none">
<path fill="#000000" stroke="none" d="M42 644 c-23 -14 -40 -29 -37 -34 3 -5
8 -92 10 -192 5 -189 21 -370 37 -400 6 -13 21 -18 51 -18 36 0 45 4 60 29 9
16 17 37 17 48 0 25 49 223 62 250 12 25 -4 60 -66 147 -37 52 -38 55 -22 77
23 34 20 67 -10 94 -34 31 -49 31 -102 -1z"/>
</g>
</svg>
