<?xml version="1.0" standalone="no"?>
<!DOCTYPE svg PUBLIC "-//W3C//DTD SVG 20010904//EN"
 "http://www.w3.org/TR/2001/REC-SVG-20010904/DTD/svg10.dtd">
<svg version="1.0" xmlns="http://www.w3.org/2000/svg"
 width="168.000000pt" height="270.000000pt" viewBox="0 0 168.000000 270.000000"
 preserveAspectRatio="xMidYMid meet">
<metadata>
Created by potrace 1.14, written by Peter Selinger 2001-2017
</metadata>
<g transform="translate(0.000000,270.000000) scale(0.100000,-0.100000)"
fill="#000000" stroke="none">
<path fill="#000000" stroke="none" d="M1035 2663 l-130 -35 -81 -107 -81
-106 -75 -344 -76 -345 49 -98 c47 -94 49 -101 49 -184 l0 -87 -67 -104 c-36
-57 -70 -102 -74 -101 -4 2 -52 61 -105 133 -54 71 -99 124 -102 117 -4 -14
-33 0 -132 62 -36 23 -89 48 -118 58 -52 16 -53 16 -50 -4 2 -13 29 -36 72
-62 38 -23 75 -54 83 -70 14 -27 14 -28 -9 -20 -13 4 -36 17 -53 28 -40 29
-101 56 -109 49 -3 -4 -6 -19 -6 -33 0 -23 8 -31 51 -49 47 -20 69 -44 56 -58
-6 -5 -62 11 -110 32 -14 6 -17 2 -17 -18 0 -22 30 -44 233 -172 l233 -148 67
-256 c62 -236 69 -274 91 -484 13 -125 26 -230 29 -233 6 -6 911 -27 980 -22
l48 3 -114 141 -114 142 -27 116 -27 115 81 279 81 278 -20 168 -20 168 -77
94 -76 94 77 246 77 246 -34 220 -33 220 -48 56 c-40 48 -58 61 -120 84 -39
15 -83 27 -97 26 -14 0 -83 -16 -155 -35z"/>
</g>
</svg>
