<?xml version="1.0" standalone="no"?>
<!DOCTYPE svg PUBLIC "-//W3C//DTD SVG 20010904//EN"
 "http://www.w3.org/TR/2001/REC-SVG-20010904/DTD/svg10.dtd">
<svg version="1.0" xmlns="http://www.w3.org/2000/svg"
 width="203.000000pt" height="223.000000pt" viewBox="0 0 203.000000 223.000000"
 preserveAspectRatio="xMidYMid meet">
<metadata>
Created by potrace 1.14, written by Peter Selinger 2001-2017
</metadata>
<g transform="translate(0.000000,223.000000) scale(0.100000,-0.100000)"
fill="#000000" stroke="none">
<path fill="#000000" stroke="none" d="M839 2213 c-38 -10 -78 -32 -129 -71
-67 -52 -76 -64 -111 -142 -35 -78 -38 -93 -38 -178 -1 -57 5 -115 15 -148 15
-53 15 -54 -11 -88 -22 -29 -37 -37 -97 -50 -39 -9 -76 -16 -82 -16 -27 0
-286 -293 -286 -323 0 -34 -46 -350 -71 -485 l-30 -163 32 -27 c18 -15 36 -29
40 -33 12 -7 29 -102 29 -158 0 -26 15 -92 36 -153 33 -99 38 -107 57 -103 12
3 58 16 102 29 l80 23 13 72 13 73 -40 64 -41 65 0 143 0 142 46 63 c35 48 67
76 141 125 l96 62 88 -12 c74 -10 103 -20 173 -58 76 -42 90 -54 151 -136 54
-73 72 -106 91 -171 21 -71 22 -89 14 -152 -6 -40 -16 -98 -24 -130 l-14 -57
56 0 c54 0 63 -4 160 -69 61 -40 115 -85 134 -110 17 -23 32 -40 34 -38 3 2
11 112 19 243 15 234 29 344 44 344 4 0 19 -27 33 -60 15 -32 59 -111 98 -175
40 -63 87 -153 104 -201 18 -47 36 -85 40 -85 4 0 56 43 115 96 l109 97 -45
102 c-25 55 -60 135 -79 176 -30 67 -32 76 -17 87 9 7 21 36 27 64 l12 52
-146 316 -147 316 -107 82 c-84 64 -123 87 -184 107 -42 14 -92 35 -109 46
-30 18 -33 24 -33 67 0 27 9 80 20 118 22 78 27 213 9 292 -15 69 -67 106
-181 127 -100 19 -135 19 -209 -1z"/>
</g>
</svg>
