<?xml version="1.0" standalone="no"?>
<!DOCTYPE svg PUBLIC "-//W3C//DTD SVG 20010904//EN"
 "http://www.w3.org/TR/2001/REC-SVG-20010904/DTD/svg10.dtd">
<svg version="1.0" xmlns="http://www.w3.org/2000/svg"
 width="101.000000pt" height="161.000000pt" viewBox="0 0 101.000000 161.000000"
 preserveAspectRatio="xMidYMid meet">
<metadata>
Created by potrace 1.14, written by Peter Selinger 2001-2017
</metadata>
<g transform="translate(0.000000,161.000000) scale(0.100000,-0.100000)"
fill="#000000" stroke="none">
<path fill="#000000" stroke="none" d="M577 1600 c-58 -11 -87 -31 -109 -75
-37 -72 -76 -122 -106 -134 -16 -7 -44 -32 -62 -57 -17 -24 -50 -54 -73 -66
-79 -40 -122 -76 -153 -129 -28 -47 -33 -69 -43 -174 -7 -66 -17 -149 -23
-185 -10 -57 -9 -73 8 -125 11 -33 46 -99 78 -148 69 -103 78 -146 51 -237
-17 -56 -17 -61 0 -129 18 -68 21 -72 73 -107 l54 -36 87 12 c86 11 351 57
383 66 14 4 11 21 -28 136 -68 203 -61 285 34 381 55 56 94 62 131 23 16 -17
39 -27 73 -31 27 -4 52 -5 55 -2 2 3 -1 31 -8 62 -18 82 -31 87 -227 83 l-157
-3 -13 40 c-24 71 -52 246 -52 327 0 74 1 78 23 78 37 1 90 24 160 71 50 33
67 50 67 67 0 13 5 43 11 68 11 44 11 45 -41 125 -29 44 -60 84 -69 88 -27 14
-84 19 -124 11z"/>
</g>
</svg>
