<?xml version="1.0" standalone="no"?>
<!DOCTYPE svg PUBLIC "-//W3C//DTD SVG 20010904//EN"
 "http://www.w3.org/TR/2001/REC-SVG-20010904/DTD/svg10.dtd">
<svg version="1.0" xmlns="http://www.w3.org/2000/svg"
 width="154.000000pt" height="182.000000pt" viewBox="0 0 154.000000 182.000000"
 preserveAspectRatio="xMidYMid meet">
<metadata>
Created by potrace 1.14, written by Peter Selinger 2001-2017
</metadata>
<g transform="translate(0.000000,182.000000) scale(0.100000,-0.100000)"
fill="#000000" stroke="none">
<path fill="#000000" stroke="none" d="M1016 1801 c-10 -11 -43 -28 -74 -37
-104 -32 -182 -152 -182 -280 0 -38 -5 -55 -20 -69 -24 -21 -25 -44 -9 -236
11 -128 14 -138 35 -150 32 -16 33 -77 4 -104 -12 -11 -33 -41 -47 -67 -24
-44 -31 -50 -82 -64 -207 -56 -303 -106 -397 -206 -39 -41 -44 -53 -44 -92 0
-61 -32 -142 -123 -311 -41 -77 -74 -142 -72 -143 3 -3 413 -41 448 -42 5 0
-1 16 -13 36 l-22 35 98 -5 c251 -14 356 -16 432 -10 l82 7 107 329 107 329
143 -3 c78 -1 144 0 148 3 3 4 -21 16 -54 28 -49 18 -70 33 -114 84 -30 34
-71 88 -91 120 l-37 58 20 28 c12 16 46 51 76 79 42 39 55 57 55 79 0 16 9 61
20 101 25 89 25 153 0 261 -18 83 -20 85 -94 159 l-74 75 -79 13 c-107 18
-127 17 -147 -5z"/>
</g>
</svg>
