<?xml version="1.0" standalone="no"?>
<!DOCTYPE svg PUBLIC "-//W3C//DTD SVG 20010904//EN"
 "http://www.w3.org/TR/2001/REC-SVG-20010904/DTD/svg10.dtd">
<svg version="1.0" xmlns="http://www.w3.org/2000/svg"
 width="33.000000pt" height="109.000000pt" viewBox="0 0 33.000000 109.000000"
 preserveAspectRatio="xMidYMid meet">
<metadata>
Created by potrace 1.14, written by Peter Selinger 2001-2017
</metadata>
<g transform="translate(0.000000,109.000000) scale(0.100000,-0.100000)"
fill="#000000" stroke="none">
<path fill="#000000" stroke="none" d="M0 544 l0 -547 25 23 c15 14 25 35 25
52 0 37 20 45 166 59 l115 12 -5 26 c-3 14 -8 49 -12 76 -4 28 -17 70 -29 95
-13 25 -35 101 -50 170 -15 69 -40 176 -56 238 -16 62 -29 137 -29 165 0 85
-47 148 -127 172 l-23 6 0 -547z"/>
</g>
</svg>
