<?xml version="1.0" standalone="no"?>
<!DOCTYPE svg PUBLIC "-//W3C//DTD SVG 20010904//EN"
 "http://www.w3.org/TR/2001/REC-SVG-20010904/DTD/svg10.dtd">
<svg version="1.0" xmlns="http://www.w3.org/2000/svg"
 width="90.000000pt" height="172.000000pt" viewBox="0 0 90.000000 172.000000"
 preserveAspectRatio="xMidYMid meet">
<metadata>
Created by potrace 1.14, written by Peter Selinger 2001-2017
</metadata>
<g transform="translate(0.000000,172.000000) scale(0.100000,-0.100000)"
fill="#000000" stroke="none">
<path fill="#000000" stroke="none" d="M191 1696 l-125 -21 -33 -105 -33 -105
15 -230 c10 -170 13 -336 9 -640 l-5 -410 40 -85 40 -85 53 -8 c101 -15 95
-20 148 148 l47 150 76 45 75 46 -89 104 c-95 113 -94 111 -104 252 l-6 87 33
5 c32 6 402 46 419 46 5 0 9 72 9 161 0 188 12 246 89 437 l50 122 -25 55 -24
55 -267 -1 c-225 -1 -288 -5 -392 -23z"/>
</g>
</svg>
