<?xml version="1.0" standalone="no"?>
<!DOCTYPE svg PUBLIC "-//W3C//DTD SVG 20010904//EN"
 "http://www.w3.org/TR/2001/REC-SVG-20010904/DTD/svg10.dtd">
<svg version="1.0" xmlns="http://www.w3.org/2000/svg"
 width="149.000000pt" height="187.000000pt" viewBox="0 0 149.000000 187.000000"
 preserveAspectRatio="xMidYMid meet">
<metadata>
Created by potrace 1.14, written by Peter Selinger 2001-2017
</metadata>
<g transform="translate(0.000000,187.000000) scale(0.100000,-0.100000)"
fill="#000000" stroke="none">
<path fill="#000000" stroke="none" d="M785 1836 c-20 -20 -40 -36 -45 -36 -6
0 -34 -16 -63 -35 -62 -41 -81 -75 -102 -179 -8 -39 -27 -117 -42 -172 l-27
-102 -123 -47 -122 -47 -118 -192 -117 -191 -13 -325 c-7 -179 -12 -339 -11
-356 l3 -32 81 38 82 38 -24 133 c-13 74 -24 135 -24 136 0 1 36 -10 79 -23
66 -20 87 -23 123 -15 23 6 44 8 46 7 1 -2 -35 -82 -81 -179 l-85 -175 108
-41 c87 -33 119 -41 174 -41 50 0 67 3 63 13 -2 6 -13 38 -22 69 l-18 57 34
44 c19 24 84 107 144 184 l110 141 65 20 c36 11 66 18 68 17 2 -2 -50 -83
-115 -182 -118 -177 -119 -178 -110 -218 5 -22 20 -54 32 -70 l23 -31 213 18
c118 9 226 17 241 17 26 1 24 5 -44 69 l-71 68 104 203 104 203 75 -6 c41 -3
67 -2 58 2 -9 4 -33 28 -52 54 -33 43 -36 53 -36 112 0 57 3 65 21 71 11 4 27
21 35 38 19 44 36 64 58 68 11 2 21 9 23 16 2 6 -79 74 -181 149 -138 102
-186 143 -186 159 0 11 7 74 15 139 14 105 14 120 1 141 -13 20 -13 25 -1 35
11 9 13 24 8 54 -10 69 -19 81 -82 115 -33 17 -73 42 -88 55 -16 13 -48 26
-73 29 -25 3 -53 9 -62 12 -11 5 -29 -5 -53 -29z"/>
</g>
</svg>
