<?xml version="1.0" standalone="no"?>
<!DOCTYPE svg PUBLIC "-//W3C//DTD SVG 20010904//EN"
 "http://www.w3.org/TR/2001/REC-SVG-20010904/DTD/svg10.dtd">
<svg version="1.0" xmlns="http://www.w3.org/2000/svg"
 width="29.000000pt" height="37.000000pt" viewBox="0 0 29.000000 37.000000"
 preserveAspectRatio="xMidYMid meet">
<metadata>
Created by potrace 1.14, written by Peter Selinger 2001-2017
</metadata>
<g transform="translate(0.000000,37.000000) scale(0.100000,-0.100000)"
fill="#000000" stroke="none">
<path fill="#000000" stroke="none" d="M0 358 c0 -7 18 -78 40 -158 22 -80 40
-152 40 -160 1 -37 15 -43 75 -30 l58 12 -65 59 c-36 32 -68 67 -71 79 -3 11
-3 20 -1 20 2 0 44 -28 92 -63 99 -72 122 -83 122 -62 0 8 -9 15 -21 15 -11 0
-56 27 -99 60 -79 60 -99 92 -100 155 0 39 -12 63 -36 74 -31 14 -34 14 -34
-1z"/>
</g>
</svg>
