<?xml version="1.0" standalone="no"?>
<!DOCTYPE svg PUBLIC "-//W3C//DTD SVG 20010904//EN"
 "http://www.w3.org/TR/2001/REC-SVG-20010904/DTD/svg10.dtd">
<svg version="1.0" xmlns="http://www.w3.org/2000/svg"
 width="36.000000pt" height="155.000000pt" viewBox="0 0 36.000000 155.000000"
 preserveAspectRatio="xMidYMid meet">
<metadata>
Created by potrace 1.14, written by Peter Selinger 2001-2017
</metadata>
<g transform="translate(0.000000,155.000000) scale(0.100000,-0.100000)"
fill="#000000" stroke="none">
<path fill="#000000" stroke="none" d="M20 1496 c-15 -72 -15 -99 -1 -201 6
-44 13 -145 16 -225 3 -80 8 -159 11 -176 6 -31 48 -87 72 -95 7 -3 14 -62 20
-179 9 -185 7 -209 -48 -460 -10 -47 -21 -102 -25 -122 l-6 -38 120 0 119 0 6
27 c3 16 8 48 11 73 3 25 15 71 27 103 l21 57 -31 83 c-18 45 -40 125 -51 177
-11 52 -31 145 -44 205 -14 61 -33 163 -42 228 -12 77 -24 125 -36 141 -22 28
-27 49 -39 156 -10 96 -39 210 -68 266 l-20 38 -12 -58z"/>
</g>
</svg>
