<?xml version="1.0" standalone="no"?>
<!DOCTYPE svg PUBLIC "-//W3C//DTD SVG 20010904//EN"
 "http://www.w3.org/TR/2001/REC-SVG-20010904/DTD/svg10.dtd">
<svg version="1.0" xmlns="http://www.w3.org/2000/svg"
 width="149.000000pt" height="256.000000pt" viewBox="0 0 149.000000 256.000000"
 preserveAspectRatio="xMidYMid meet">
<metadata>
Created by potrace 1.14, written by Peter Selinger 2001-2017
</metadata>
<g transform="translate(0.000000,256.000000) scale(0.100000,-0.100000)"
fill="#000000" stroke="none">
<path fill="#000000" stroke="none" d="M824 2550 c-16 -4 -57 -27 -89 -53 -59
-46 -59 -46 -56 -96 2 -33 -4 -62 -17 -88 -23 -46 -19 -118 8 -148 10 -11 22
-33 26 -50 10 -43 64 -136 83 -143 22 -8 -27 -22 -117 -31 -110 -13 -186 -55
-258 -145 -56 -70 -109 -168 -115 -215 -5 -28 -51 -49 -113 -50 -37 -1 -38 -2
-23 -19 25 -27 22 -31 -30 -35 -27 -2 29 -5 122 -6 94 -2 181 -6 195 -11 l25
-7 -28 -12 c-16 -6 -31 -11 -34 -11 -3 0 -11 -8 -18 -17 -11 -14 -40 -18 -193
-23 -100 -3 -184 -9 -187 -12 -8 -7 62 -36 117 -48 26 -5 70 -19 98 -30 l51
-20 77 39 c54 27 83 37 93 30 8 -5 33 -9 57 -9 23 0 42 -5 42 -10 0 -6 -14
-38 -30 -71 -17 -33 -28 -64 -24 -70 3 -6 -8 -36 -25 -68 -39 -74 -64 -211
-65 -356 -1 -105 2 -123 78 -425 43 -173 82 -318 85 -321 3 -4 61 -9 127 -11
l122 -4 -44 65 -44 66 21 70 c31 101 62 150 149 235 l77 75 -9 189 c-8 166 -7
191 7 198 8 5 15 16 15 23 0 17 0 17 212 15 81 -1 152 1 157 4 9 6 -34 182
-49 201 -16 20 -40 134 -39 186 l1 54 26 -55 c15 -30 35 -75 45 -100 l19 -45
32 71 c18 39 44 79 58 90 45 35 48 51 27 148 -11 49 -24 97 -30 108 -8 16 -7
24 4 35 13 14 10 24 -26 92 -22 42 -67 105 -99 141 l-57 66 -96 23 c-52 13
-95 28 -95 34 0 6 14 34 30 64 26 46 30 62 30 134 0 66 -4 86 -20 106 -14 18
-20 41 -20 78 0 41 -5 57 -25 79 -13 14 -30 26 -37 26 -7 0 -28 15 -48 34 -38
36 -97 50 -156 36z"/>
<path fill="#000000" stroke="none" d="M28 1473 c6 -2 18 -2 25 0 6 3 1 5 -13
5 -14 0 -19 -2 -12 -5z"/>
</g>
</svg>
