<?xml version="1.0" standalone="no"?>
<!DOCTYPE svg PUBLIC "-//W3C//DTD SVG 20010904//EN"
 "http://www.w3.org/TR/2001/REC-SVG-20010904/DTD/svg10.dtd">
<svg version="1.0" xmlns="http://www.w3.org/2000/svg"
 width="426.000000pt" height="518.000000pt" viewBox="0 0 426.000000 518.000000"
 preserveAspectRatio="xMidYMid meet">
<metadata>
Created by potrace 1.14, written by Peter Selinger 2001-2017
</metadata>
<g transform="translate(0.000000,518.000000) scale(0.100000,-0.100000)"
fill="#000000" stroke="none">
<path fill="#000000" stroke="none" d="M2118 5052 l-196 -127 -125 -370 -126
-370 30 -279 c23 -227 35 -302 64 -406 24 -89 35 -148 35 -197 l0 -69 -77 -70
c-66 -59 -111 -87 -288 -178 -115 -60 -309 -167 -430 -238 l-220 -129 -182
-187 -181 -186 -27 -176 -27 -175 -95 -169 -94 -169 -35 -170 c-25 -126 -34
-196 -34 -269 0 -91 -4 -111 -46 -239 l-45 -140 -8 -352 c-7 -304 -6 -354 7
-369 14 -17 127 -18 2113 -18 l2098 0 5 52 c3 29 10 130 16 223 l11 170 -38
34 c-21 18 -85 64 -144 102 l-105 68 -43 368 -43 368 21 530 21 530 -50 95
-51 95 -324 193 c-179 106 -323 196 -321 200 2 4 45 111 95 237 77 196 96 258
132 420 23 105 44 227 46 272 l5 81 33 -19 c32 -19 34 -19 39 -2 86 287 107
368 99 383 -4 9 -57 86 -117 171 -82 115 -134 176 -205 243 -53 48 -142 131
-198 183 l-103 95 -347 44 c-192 24 -348 43 -348 43 0 -1 -88 -58 -197 -127z"/>
<path fill="#ffffff" stroke="none" d="M2885 2563 c14 -49 28 -92 29 -98 2 -5
-19 -53 -47 -106 l-51 -96 48 -209 c26 -115 83 -348 127 -519 44 -170 81 -317
81 -325 1 -11 -164 -459 -248 -675 -14 -35 -73 500 -74 665 l0 145 -74 282
-75 281 14 139 c19 180 19 300 0 352 -13 37 -12 46 5 97 10 31 25 64 34 72 13
13 164 74 198 81 4 0 19 -38 33 -86z"/>
</g>
</svg>
