<?xml version="1.0" standalone="no"?>
<!DOCTYPE svg PUBLIC "-//W3C//DTD SVG 20010904//EN"
 "http://www.w3.org/TR/2001/REC-SVG-20010904/DTD/svg10.dtd">
<svg version="1.0" xmlns="http://www.w3.org/2000/svg"
 width="34.000000pt" height="231.000000pt" viewBox="0 0 34.000000 231.000000"
 preserveAspectRatio="xMidYMid meet">
<metadata>
Created by potrace 1.14, written by Peter Selinger 2001-2017
</metadata>
<g transform="translate(0.000000,231.000000) scale(0.100000,-0.100000)"
fill="#000000" stroke="none">
<path fill="#000000" stroke="none" d="M125 2290 c-22 -10 -47 -19 -55 -19 -8
-1 -25 -9 -37 -19 l-21 -17 -4 -1117 -4 -1118 47 0 c73 0 199 12 199 19 0 4
-19 17 -42 29 -43 21 -43 21 -12 20 21 -2 44 7 68 25 20 16 36 30 36 32 0 2
-31 13 -69 25 l-68 20 -7 92 c-9 139 -8 327 5 488 l12 145 38 40 c50 52 85
173 99 334 29 356 36 531 21 531 -11 0 -104 78 -109 91 -2 5 17 30 41 56 42
45 46 54 56 126 15 105 14 192 -1 204 -7 6 -31 13 -53 16 -22 4 -53 9 -70 11
-18 3 -46 -2 -70 -14z"/>
</g>
</svg>
