<?xml version="1.0" standalone="no"?>
<!DOCTYPE svg PUBLIC "-//W3C//DTD SVG 20010904//EN"
 "http://www.w3.org/TR/2001/REC-SVG-20010904/DTD/svg10.dtd">
<svg version="1.0" xmlns="http://www.w3.org/2000/svg"
 width="20.000000pt" height="42.000000pt" viewBox="0 0 20.000000 42.000000"
 preserveAspectRatio="xMidYMid meet">
<metadata>
Created by potrace 1.14, written by Peter Selinger 2001-2017
</metadata>
<g transform="translate(0.000000,42.000000) scale(0.100000,-0.100000)"
fill="#000000" stroke="none">
<path fill="#000000" stroke="none" d="M31 385 c2 -22 -6 -61 -15 -87 -17 -44
-17 -49 -2 -72 9 -14 25 -30 36 -36 10 -6 17 -16 15 -23 -3 -6 -11 -40 -19
-75 l-14 -62 29 -16 c33 -17 33 -16 47 51 l9 40 22 -51 c17 -40 27 -51 40 -47
17 4 16 12 -14 91 -39 104 -125 315 -132 322 -2 2 -3 -13 -2 -35z"/>
</g>
</svg>
