<?xml version="1.0" standalone="no"?>
<!DOCTYPE svg PUBLIC "-//W3C//DTD SVG 20010904//EN"
 "http://www.w3.org/TR/2001/REC-SVG-20010904/DTD/svg10.dtd">
<svg version="1.0" xmlns="http://www.w3.org/2000/svg"
 width="9.000000pt" height="23.000000pt" viewBox="0 0 9.000000 23.000000"
 preserveAspectRatio="xMidYMid meet">
<metadata>
Created by potrace 1.14, written by Peter Selinger 2001-2017
</metadata>
<g transform="translate(0.000000,23.000000) scale(0.100000,-0.100000)"
fill="#000000" stroke="none">
<path fill="#000000" stroke="none" d="M48 219 c-10 -5 -18 -20 -18 -32 -1
-12 -7 -33 -15 -47 -20 -35 -18 -67 6 -107 l21 -34 23 21 c24 23 24 30 -2 113
-11 36 -12 52 -4 60 8 8 11 6 11 -8 0 -17 2 -18 10 -5 25 38 5 61 -32 39z"/>
</g>
</svg>
