<?xml version="1.0" standalone="no"?>
<!DOCTYPE svg PUBLIC "-//W3C//DTD SVG 20010904//EN"
 "http://www.w3.org/TR/2001/REC-SVG-20010904/DTD/svg10.dtd">
<svg version="1.0" xmlns="http://www.w3.org/2000/svg"
 width="18.000000pt" height="57.000000pt" viewBox="0 0 18.000000 57.000000"
 preserveAspectRatio="xMidYMid meet">
<metadata>
Created by potrace 1.14, written by Peter Selinger 2001-2017
</metadata>
<g transform="translate(0.000000,57.000000) scale(0.100000,-0.100000)"
fill="#000000" stroke="none">
<path fill="#000000" stroke="none" d="M85 558 c-2 -7 -5 -20 -8 -28 -2 -8 0
-23 4 -32 7 -12 4 -18 -11 -23 -14 -5 -20 -15 -20 -38 0 -18 -7 -57 -15 -87
-8 -30 -15 -77 -15 -104 0 -27 -5 -67 -12 -89 -12 -40 -12 -40 29 -76 35 -30
40 -39 32 -54 -14 -24 -4 -34 16 -17 11 9 15 9 15 1 0 -7 4 -10 9 -7 4 3 11
33 15 66 4 33 13 66 20 73 15 14 28 141 28 260 0 48 -5 72 -15 80 -8 7 -18 25
-22 42 -9 40 -41 61 -50 33z"/>
</g>
</svg>
