<?xml version="1.0" standalone="no"?>
<!DOCTYPE svg PUBLIC "-//W3C//DTD SVG 20010904//EN"
 "http://www.w3.org/TR/2001/REC-SVG-20010904/DTD/svg10.dtd">
<svg version="1.0" xmlns="http://www.w3.org/2000/svg"
 width="179.000000pt" height="82.000000pt" viewBox="0 0 179.000000 82.000000"
 preserveAspectRatio="xMidYMid meet">
<metadata>
Created by potrace 1.14, written by Peter Selinger 2001-2017
</metadata>
<g transform="translate(0.000000,82.000000) scale(0.100000,-0.100000)"
fill="#000000" stroke="none">
<path fill="#000000" stroke="none" d="M1385 778 c-38 -22 -107 -50 -152 -63
-112 -31 -418 -148 -528 -201 -49 -23 -173 -97 -275 -163 -102 -67 -240 -153
-308 -192 -109 -64 -122 -75 -122 -99 l0 -27 213 -7 c116 -3 343 -8 502 -11
160 -3 351 -8 426 -11 l135 -6 83 66 c46 36 109 82 141 102 49 33 70 57 156
188 90 138 100 158 114 231 l16 80 -50 62 c-36 47 -57 64 -80 68 -93 15 -163
25 -181 24 -11 -1 -51 -19 -90 -41z"/>
</g>
</svg>
