<?xml version="1.0" standalone="no"?>
<!DOCTYPE svg PUBLIC "-//W3C//DTD SVG 20010904//EN"
 "http://www.w3.org/TR/2001/REC-SVG-20010904/DTD/svg10.dtd">
<svg version="1.0" xmlns="http://www.w3.org/2000/svg"
 width="20.000000pt" height="39.000000pt" viewBox="0 0 20.000000 39.000000"
 preserveAspectRatio="xMidYMid meet">
<metadata>
Created by potrace 1.14, written by Peter Selinger 2001-2017
</metadata>
<g transform="translate(0.000000,39.000000) scale(0.100000,-0.100000)"
fill="#000000" stroke="none">
<path fill="#000000" stroke="none" d="M141 381 c-8 -5 -12 -18 -8 -30 4 -16
1 -21 -13 -21 -11 0 -23 -8 -29 -17 -8 -15 -13 -15 -36 -5 -54 25 -61 13 -17
-31 39 -40 41 -44 27 -64 -8 -12 -22 -50 -31 -85 -9 -35 -21 -69 -27 -76 -16
-20 15 -44 58 -46 l37 -1 29 95 c17 52 39 112 50 132 22 44 24 66 4 92 -10 13
-11 24 -5 36 15 27 -9 40 -39 21z"/>
</g>
</svg>
