<?xml version="1.0" standalone="no"?>
<!DOCTYPE svg PUBLIC "-//W3C//DTD SVG 20010904//EN"
 "http://www.w3.org/TR/2001/REC-SVG-20010904/DTD/svg10.dtd">
<svg version="1.0" xmlns="http://www.w3.org/2000/svg"
 width="23.000000pt" height="30.000000pt" viewBox="0 0 23.000000 30.000000"
 preserveAspectRatio="xMidYMid meet">
<metadata>
Created by potrace 1.14, written by Peter Selinger 2001-2017
</metadata>
<g transform="translate(0.000000,30.000000) scale(0.100000,-0.100000)"
fill="#000000" stroke="none">
<path fill="#000000" stroke="none" d="M80 281 c-5 -11 -10 -36 -10 -56 0 -25
-8 -47 -25 -66 -22 -26 -45 -85 -45 -115 0 -6 35 -19 78 -29 63 -14 86 -15
113 -6 33 11 34 12 33 63 -1 39 -8 59 -28 84 -14 19 -26 46 -26 62 0 29 -17
50 -57 71 -19 9 -24 8 -33 -8z"/>
</g>
</svg>
