<?xml version="1.0" standalone="no"?>
<!DOCTYPE svg PUBLIC "-//W3C//DTD SVG 20010904//EN"
 "http://www.w3.org/TR/2001/REC-SVG-20010904/DTD/svg10.dtd">
<svg version="1.0" xmlns="http://www.w3.org/2000/svg"
 width="36.000000pt" height="28.000000pt" viewBox="0 0 36.000000 28.000000"
 preserveAspectRatio="xMidYMid meet">
<metadata>
Created by potrace 1.14, written by Peter Selinger 2001-2017
</metadata>
<g transform="translate(0.000000,28.000000) scale(0.100000,-0.100000)"
fill="#000000" stroke="none">
<path fill="#000000" stroke="none" d="M177 262 c-20 -22 -22 -38 -4 -49 20
-12 53 -65 61 -97 4 -16 16 -41 27 -54 10 -14 19 -33 19 -43 0 -29 46 -25 66
6 15 23 15 30 -2 92 -21 83 -29 100 -62 136 -31 32 -80 37 -105 9z"/>
<path fill="#000000" stroke="none" d="M32 177 c-30 -32 -40 -108 -18 -142 12
-19 25 -25 51 -25 49 0 70 34 60 96 -14 94 -47 120 -93 71z"/>
</g>
</svg>
