<?xml version="1.0" standalone="no"?>
<!DOCTYPE svg PUBLIC "-//W3C//DTD SVG 20010904//EN"
 "http://www.w3.org/TR/2001/REC-SVG-20010904/DTD/svg10.dtd">
<svg version="1.0" xmlns="http://www.w3.org/2000/svg"
 width="120.000000pt" height="390.000000pt" viewBox="0 0 120.000000 390.000000"
 preserveAspectRatio="xMidYMid meet">
<metadata>
Created by potrace 1.14, written by Peter Selinger 2001-2017
</metadata>
<g transform="translate(0.000000,390.000000) scale(0.100000,-0.100000)"
fill="#000000" stroke="none">
<path fill="#000000" stroke="none" d="M685 3861 l-140 -38 -27 -129 c-15 -71
-27 -134 -28 -141 0 -6 56 -76 125 -155 69 -78 125 -149 125 -157 0 -8 -34
-146 -75 -308 -73 -281 -80 -304 -188 -556 l-113 -262 51 -135 51 -136 -94
-264 -95 -265 -7 -215 -7 -215 -83 -190 c-78 -178 -87 -204 -130 -402 l-46
-212 95 -22 c53 -11 131 -29 175 -39 l78 -18 18 42 c10 22 150 356 310 740
l292 699 56 379 56 378 58 0 58 0 0 583 0 583 -84 49 -84 50 -98 197 c-54 109
-101 198 -104 197 -3 0 -68 -17 -145 -38z"/>
</g>
</svg>
