<?xml version="1.0" standalone="no"?>
<!DOCTYPE svg PUBLIC "-//W3C//DTD SVG 20010904//EN"
 "http://www.w3.org/TR/2001/REC-SVG-20010904/DTD/svg10.dtd">
<svg version="1.0" xmlns="http://www.w3.org/2000/svg"
 width="36.000000pt" height="37.000000pt" viewBox="0 0 36.000000 37.000000"
 preserveAspectRatio="xMidYMid meet">
<metadata>
Created by potrace 1.14, written by Peter Selinger 2001-2017
</metadata>
<g transform="translate(0.000000,37.000000) scale(0.100000,-0.100000)"
fill="#000000" stroke="none">
<path fill="#000000" stroke="none" d="M50 363 c-44 -16 -50 -33 -50 -134 0
-54 4 -101 10 -104 6 -3 10 -24 10 -45 0 -30 6 -43 26 -59 23 -18 40 -20 146
-20 113 0 121 1 144 24 28 28 30 52 8 83 -10 14 -25 22 -45 22 -26 0 -29 3
-29 33 0 46 -34 96 -70 104 -24 4 -30 11 -30 32 0 44 -26 71 -68 70 -20 0 -44
-3 -52 -6z"/>
</g>
</svg>
