<?xml version="1.0" standalone="no"?>
<!DOCTYPE svg PUBLIC "-//W3C//DTD SVG 20010904//EN"
 "http://www.w3.org/TR/2001/REC-SVG-20010904/DTD/svg10.dtd">
<svg version="1.0" xmlns="http://www.w3.org/2000/svg"
 width="305.000000pt" height="370.000000pt" viewBox="0 0 305.000000 370.000000"
 preserveAspectRatio="xMidYMid meet">
<metadata>
Created by potrace 1.14, written by Peter Selinger 2001-2017
</metadata>
<g transform="translate(0.000000,370.000000) scale(0.100000,-0.100000)"
fill="#000000" stroke="none">
<path fill="#000000" stroke="none" d="M1880 3668 c-76 -24 -112 -43 -192
-101 -79 -57 -97 -75 -93 -91 23 -102 59 -349 74 -503 l19 -188 -82 -89 c-57
-62 -142 -136 -286 -245 l-205 -156 26 -163 c25 -161 33 -181 68 -182 11 0 13
-12 8 -60 -6 -52 -14 -69 -64 -137 -48 -65 -64 -96 -91 -185 -39 -129 -11
-112 -357 -223 l-240 -78 -197 -131 -197 -131 -1 -93 c0 -86 -3 -98 -35 -162
l-35 -70 6 -263 c3 -144 10 -279 15 -299 5 -21 14 -56 19 -78 l11 -40 113 0
c62 0 180 3 262 6 l149 7 67 126 67 127 -23 97 c-13 53 -19 97 -15 97 14 0
208 29 269 39 30 6 266 40 523 77 435 62 469 66 480 50 7 -9 19 -14 27 -11 23
9 263 421 283 486 10 33 36 143 57 246 49 232 139 491 174 498 11 2 127 16
256 30 129 14 252 28 274 31 l38 6 -7 56 c-7 55 -9 57 -269 364 l-262 309 -72
297 c-40 163 -75 313 -78 332 -3 19 -49 124 -102 233 l-96 197 -96 -1 c-77 0
-113 -6 -190 -31z"/>
</g>
</svg>
