<?xml version="1.0" standalone="no"?>
<!DOCTYPE svg PUBLIC "-//W3C//DTD SVG 20010904//EN"
 "http://www.w3.org/TR/2001/REC-SVG-20010904/DTD/svg10.dtd">
<svg version="1.0" xmlns="http://www.w3.org/2000/svg"
 width="44.000000pt" height="248.000000pt" viewBox="0 0 44.000000 248.000000"
 preserveAspectRatio="xMidYMid meet">
<metadata>
Created by potrace 1.14, written by Peter Selinger 2001-2017
</metadata>
<g transform="translate(0.000000,248.000000) scale(0.100000,-0.100000)"
fill="#000000" stroke="none">
<path fill="#000000" stroke="none" d="M120 2465 c-7 -9 -30 -25 -51 -35 -36
-19 -36 -20 -31 -65 3 -35 1 -50 -14 -66 -21 -24 -20 46 -17 -1364 l3 -890 62
-13 c101 -20 191 -33 196 -27 13 13 -27 59 -64 75 -23 10 -44 26 -48 35 -9 23
12 141 94 526 68 323 69 326 54 375 -10 30 -13 68 -10 98 3 27 1 56 -4 66 -7
13 -4 22 11 36 12 11 40 41 63 68 l41 50 15 152 c9 84 12 162 8 174 -4 12 -13
76 -19 143 -6 67 -15 126 -20 131 -5 6 -9 19 -9 30 0 21 -8 38 -86 184 l-38
73 26 47 c29 52 43 120 33 152 -8 27 -52 46 -126 55 -45 6 -58 4 -69 -10z"/>
</g>
</svg>
