<?xml version="1.0" standalone="no"?>
<!DOCTYPE svg PUBLIC "-//W3C//DTD SVG 20010904//EN"
 "http://www.w3.org/TR/2001/REC-SVG-20010904/DTD/svg10.dtd">
<svg version="1.0" xmlns="http://www.w3.org/2000/svg"
 width="125.000000pt" height="333.000000pt" viewBox="0 0 125.000000 333.000000"
 preserveAspectRatio="xMidYMid meet">
<metadata>
Created by potrace 1.14, written by Peter Selinger 2001-2017
</metadata>
<g transform="translate(0.000000,333.000000) scale(0.100000,-0.100000)"
fill="#000000" stroke="none">
<path fill="#000000" stroke="none" d="M755 3308 c-62 -24 -71 -32 -98 -82
-19 -36 -22 -57 -22 -168 0 -127 0 -128 23 -128 18 0 27 -9 40 -41 13 -33 25
-45 59 -60 l43 -18 -75 -152 c-61 -121 -213 -390 -231 -408 -2 -2 -61 8 -131
24 -94 20 -152 40 -217 72 -78 39 -90 43 -103 30 -13 -13 -13 -16 3 -21 20 -7
80 -96 65 -96 -5 0 -19 11 -32 25 -13 13 -30 25 -36 25 -7 0 -13 8 -13 17 0
33 -18 -2 -22 -41 l-3 -40 105 -31 105 -31 -4 -82 -3 -82 93 0 c52 0 100 -4
107 -9 11 -6 10 -24 -2 -97 -25 -151 -78 -525 -74 -529 16 -14 192 -95 208
-95 11 0 20 -3 20 -7 0 -5 13 -168 29 -363 l28 -355 77 -238 c42 -130 76 -239
76 -241 0 -3 -30 -23 -67 -45 l-68 -41 308 0 c169 0 307 2 307 4 0 3 -18 38
-40 78 -39 72 -42 88 -131 567 l-92 493 22 69 22 69 42 0 43 0 18 105 c16 89
18 133 12 283 l-6 177 52 326 52 327 -83 183 c-45 101 -102 214 -127 251 l-44
68 0 102 -1 103 -87 60 c-47 33 -89 61 -92 61 -3 1 -27 -7 -55 -18z"/>
</g>
</svg>
