<?xml version="1.0" standalone="no"?>
<!DOCTYPE svg PUBLIC "-//W3C//DTD SVG 20010904//EN"
 "http://www.w3.org/TR/2001/REC-SVG-20010904/DTD/svg10.dtd">
<svg version="1.0" xmlns="http://www.w3.org/2000/svg"
 width="17.000000pt" height="46.000000pt" viewBox="0 0 17.000000 46.000000"
 preserveAspectRatio="xMidYMid meet">
<metadata>
Created by potrace 1.14, written by Peter Selinger 2001-2017
</metadata>
<g transform="translate(0.000000,46.000000) scale(0.100000,-0.100000)"
fill="#000000" stroke="none">
<path fill="#000000" stroke="none" d="M60 438 c-5 -13 -16 -63 -24 -112 -9
-48 -20 -94 -25 -100 -7 -9 -7 -41 1 -99 11 -81 13 -87 35 -87 27 0 27 5 9
107 -7 40 -9 78 -5 85 5 7 9 11 9 8 1 -3 16 -57 34 -120 28 -100 35 -115 55
-118 18 -3 22 0 17 15 -30 100 -56 254 -56 330 0 84 -8 113 -32 113 -5 0 -13
-10 -18 -22z"/>
</g>
</svg>
