<?xml version="1.0" standalone="no"?>
<!DOCTYPE svg PUBLIC "-//W3C//DTD SVG 20010904//EN"
 "http://www.w3.org/TR/2001/REC-SVG-20010904/DTD/svg10.dtd">
<svg version="1.0" xmlns="http://www.w3.org/2000/svg"
 width="313.000000pt" height="613.000000pt" viewBox="0 0 313.000000 613.000000"
 preserveAspectRatio="xMidYMid meet">
<metadata>
Created by potrace 1.14, written by Peter Selinger 2001-2017
</metadata>
<g transform="translate(0.000000,613.000000) scale(0.100000,-0.100000)"
fill="#000000" stroke="none">
<path fill="#000000" stroke="none" d="M919 6066 l-236 -62 -175 -148 -176
-149 -6 -96 c-3 -53 -7 -158 -8 -234 l-2 -138 67 -62 67 -62 0 -66 c0 -52 18
-128 85 -370 72 -260 85 -316 85 -384 1 -44 5 -111 9 -150 7 -69 9 -73 178
-340 129 -205 176 -287 191 -339 16 -51 33 -82 72 -126 l51 -59 11 -138 c15
-187 21 -585 11 -711 l-9 -103 36 -15 c22 -10 101 -19 210 -26 96 -5 176 -11
178 -13 1 -1 8 -29 14 -62 10 -55 14 -61 44 -72 21 -8 34 -19 33 -29 0 -9 -19
-136 -42 -281 l-42 -265 -160 -73 c-141 -64 -166 -73 -212 -71 -42 1 -58 -3
-76 -20 -13 -12 -31 -22 -40 -22 -9 0 -128 20 -263 46 -136 25 -248 43 -250
41 -2 -2 6 -194 17 -426 l21 -423 -223 -227 c-123 -124 -260 -263 -304 -308
l-80 -83 1568 0 1567 0 0 1548 c0 1403 -2 1632 -25 2456 -14 500 -27 911 -29
913 -2 2 -167 -14 -366 -37 -200 -22 -364 -39 -366 -38 -1 2 -8 77 -14 168 -7
91 -18 177 -25 191 -6 14 -103 155 -214 312 l-203 285 -363 166 c-200 91 -365
166 -367 165 -2 0 -109 -29 -239 -63z"/>
</g>
</svg>
