<?xml version="1.0" standalone="no"?>
<!DOCTYPE svg PUBLIC "-//W3C//DTD SVG 20010904//EN"
 "http://www.w3.org/TR/2001/REC-SVG-20010904/DTD/svg10.dtd">
<svg version="1.0" xmlns="http://www.w3.org/2000/svg"
 width="119.000000pt" height="390.000000pt" viewBox="0 0 119.000000 390.000000"
 preserveAspectRatio="xMidYMid meet">
<metadata>
Created by potrace 1.14, written by Peter Selinger 2001-2017
</metadata>
<g transform="translate(0.000000,390.000000) scale(0.100000,-0.100000)"
fill="#000000" stroke="none">
<path fill="#000000" stroke="none" d="M679 3860 c-68 -47 -119 -121 -119
-173 0 -42 4 -41 -138 -37 l-82 2 9 -26 c25 -64 57 -115 102 -161 l48 -50 -55
-124 c-51 -116 -54 -125 -38 -142 20 -22 15 -30 -41 -66 -40 -24 -56 -46 -120
-163 -93 -170 -105 -203 -145 -375 -44 -193 -56 -268 -69 -425 -7 -74 -16
-179 -21 -233 -14 -135 -12 -204 5 -261 8 -27 15 -79 15 -115 l0 -66 56 -39
c30 -21 59 -48 64 -60 5 -11 19 -86 30 -166 12 -80 37 -215 57 -300 35 -155
35 -155 24 -275 -6 -66 -23 -188 -37 -272 -15 -93 -24 -179 -22 -225 l3 -73
179 -10 179 -10 23 35 c34 53 48 192 33 344 l-11 120 43 179 43 178 62 -228
c34 -125 76 -263 93 -306 29 -73 31 -85 31 -207 l0 -130 149 0 149 0 7 1303
c8 1551 5 2240 -12 2278 -7 17 -35 40 -72 60 -54 30 -62 38 -81 89 -12 30 -38
75 -59 98 -35 40 -45 45 -112 58 -101 19 -106 18 -170 -26z"/>
<path fill="#ffffff" stroke="none" d="M728 2388 c62 -35 146 -132 162 -186 9
-31 7 -51 -13 -122 l-23 -85 -45 -11 c-25 -6 -58 -18 -75 -27 -16 -8 -43 -18
-61 -21 -31 -7 -69 -49 -59 -65 3 -5 -2 -15 -12 -24 -16 -15 -24 -15 -87 2
-120 31 -160 62 -211 161 -22 44 -27 68 -27 123 0 58 5 78 37 142 51 100 71
116 164 135 107 22 184 15 250 -22z"/>
</g>
</svg>
