<?xml version="1.0" standalone="no"?>
<!DOCTYPE svg PUBLIC "-//W3C//DTD SVG 20010904//EN"
 "http://www.w3.org/TR/2001/REC-SVG-20010904/DTD/svg10.dtd">
<svg version="1.0" xmlns="http://www.w3.org/2000/svg"
 width="21.000000pt" height="42.000000pt" viewBox="0 0 21.000000 42.000000"
 preserveAspectRatio="xMidYMid meet">
<metadata>
Created by potrace 1.14, written by Peter Selinger 2001-2017
</metadata>
<g transform="translate(0.000000,42.000000) scale(0.100000,-0.100000)"
fill="#000000" stroke="none">
<path fill="#000000" stroke="none" d="M55 397 c-8 -12 -15 -30 -15 -41 0 -10
-6 -24 -14 -30 -18 -13 -34 -283 -19 -310 8 -15 11 -15 36 4 25 19 29 20 49 6
15 -11 34 -13 67 -9 25 3 48 7 50 9 1 1 -9 29 -24 60 -23 49 -27 66 -22 113 5
48 3 59 -15 78 -14 15 -21 34 -20 59 2 44 -11 70 -38 77 -13 3 -25 -2 -35 -16z"/>
</g>
</svg>
