<?xml version="1.0" standalone="no"?>
<!DOCTYPE svg PUBLIC "-//W3C//DTD SVG 20010904//EN"
 "http://www.w3.org/TR/2001/REC-SVG-20010904/DTD/svg10.dtd">
<svg version="1.0" xmlns="http://www.w3.org/2000/svg"
 width="14.000000pt" height="40.000000pt" viewBox="0 0 14.000000 40.000000"
 preserveAspectRatio="xMidYMid meet">
<metadata>
Created by potrace 1.14, written by Peter Selinger 2001-2017
</metadata>
<g transform="translate(0.000000,40.000000) scale(0.100000,-0.100000)"
fill="#000000" stroke="none">
<path fill="#000000" stroke="none" d="M25 367 c-14 -35 -14 -49 7 -186 11
-69 10 -74 -9 -90 -16 -12 -20 -24 -16 -50 l6 -34 17 23 c19 25 40 20 40 -11
0 -11 4 -18 8 -15 5 3 7 59 6 126 -2 66 0 120 4 120 4 0 18 -7 30 -16 32 -22
28 -1 -9 51 -18 25 -32 58 -33 77 -2 47 -32 50 -51 5z"/>
</g>
</svg>
