<?xml version="1.0" standalone="no"?>
<!DOCTYPE svg PUBLIC "-//W3C//DTD SVG 20010904//EN"
 "http://www.w3.org/TR/2001/REC-SVG-20010904/DTD/svg10.dtd">
<svg version="1.0" xmlns="http://www.w3.org/2000/svg"
 width="62.000000pt" height="69.000000pt" viewBox="0 0 62.000000 69.000000"
 preserveAspectRatio="xMidYMid meet">
<metadata>
Created by potrace 1.14, written by Peter Selinger 2001-2017
</metadata>
<g transform="translate(0.000000,69.000000) scale(0.100000,-0.100000)"
fill="#000000" stroke="none">
<path fill="#000000" stroke="none" d="M33 675 c-30 -13 -31 -15 -23 -52 5
-21 18 -64 29 -96 l20 -57 -23 -63 -24 -62 28 -55 c15 -30 31 -80 35 -110 10
-73 42 -158 65 -170 15 -8 22 -5 39 18 16 23 41 35 128 61 131 40 172 60 207
102 21 24 29 29 40 20 19 -16 68 6 62 28 -3 9 -7 31 -11 49 -9 46 -36 58 -87
37 -33 -13 -43 -14 -49 -3 -5 7 -9 16 -9 20 0 4 -32 45 -70 92 -66 80 -73 85
-118 92 -65 9 -76 17 -92 64 -10 31 -24 47 -62 70 -26 17 -49 30 -51 30 -1 -1
-16 -7 -34 -15z"/>
</g>
</svg>
