<?xml version="1.0" standalone="no"?>
<!DOCTYPE svg PUBLIC "-//W3C//DTD SVG 20010904//EN"
 "http://www.w3.org/TR/2001/REC-SVG-20010904/DTD/svg10.dtd">
<svg version="1.0" xmlns="http://www.w3.org/2000/svg"
 width="63.000000pt" height="114.000000pt" viewBox="0 0 63.000000 114.000000"
 preserveAspectRatio="xMidYMid meet">
<metadata>
Created by potrace 1.14, written by Peter Selinger 2001-2017
</metadata>
<g transform="translate(0.000000,114.000000) scale(0.100000,-0.100000)"
fill="#000000" stroke="none">
<path fill="#000000" stroke="none" d="M365 1133 c-50 -11 -103 -37 -132 -66
-27 -26 -33 -38 -33 -74 0 -24 -7 -54 -16 -68 -13 -19 -13 -30 -4 -67 7 -23
21 -56 33 -72 l20 -28 -22 7 c-13 4 -47 -2 -85 -15 -90 -30 -90 -31 -92 -290
-1 -158 -6 -235 -18 -289 -9 -41 -15 -75 -13 -77 1 -2 53 -21 114 -44 98 -36
124 -41 200 -42 140 -2 141 -1 189 100 38 80 42 95 48 197 5 84 3 123 -9 165
-25 91 -20 161 15 216 42 67 59 127 61 219 3 114 -4 137 -56 174 -71 51 -136
68 -200 54z"/>
</g>
</svg>
