<?xml version="1.0" standalone="no"?>
<!DOCTYPE svg PUBLIC "-//W3C//DTD SVG 20010904//EN"
 "http://www.w3.org/TR/2001/REC-SVG-20010904/DTD/svg10.dtd">
<svg version="1.0" xmlns="http://www.w3.org/2000/svg"
 width="248.000000pt" height="142.000000pt" viewBox="0 0 248.000000 142.000000"
 preserveAspectRatio="xMidYMid meet">
<metadata>
Created by potrace 1.14, written by Peter Selinger 2001-2017
</metadata>
<g transform="translate(0.000000,142.000000) scale(0.100000,-0.100000)"
fill="#000000" stroke="none">
<path fill="#000000" stroke="none" d="M2075 1348 c-60 -39 -155 -95 -211
-124 -89 -48 -102 -52 -120 -40 -10 7 -43 15 -72 18 -53 5 -54 5 -70 -28 -8
-19 -21 -34 -28 -34 -7 0 -50 9 -96 20 -71 17 -118 20 -327 20 l-244 0 -89
-47 c-89 -47 -90 -49 -170 -162 -86 -122 -93 -138 -103 -266 l-7 -84 -112 -39
c-61 -22 -116 -41 -123 -43 -6 -2 -77 -69 -158 -148 l-147 -144 17 -37 c16
-35 21 -38 68 -44 127 -14 231 -17 342 -8 110 10 128 14 223 56 56 25 108 46
115 46 7 0 83 -22 169 -50 l156 -50 125 70 c69 39 134 70 144 70 10 0 58 -14
108 -30 69 -24 109 -45 174 -94 78 -58 87 -63 113 -54 20 7 37 26 54 59 13 27
28 49 32 49 4 0 52 -25 107 -56 55 -30 164 -82 243 -115 l142 -59 48 24 48 24
26 142 27 143 -50 100 -51 100 20 47 19 46 -58 -8 c-50 -8 -63 -6 -99 12 -108
55 -108 79 10 400 74 200 90 255 90 301 l0 56 -82 17 c-46 9 -85 16 -88 16 -3
0 -54 -32 -115 -72z"/>
</g>
</svg>
