<?xml version="1.0" standalone="no"?>
<!DOCTYPE svg PUBLIC "-//W3C//DTD SVG 20010904//EN"
 "http://www.w3.org/TR/2001/REC-SVG-20010904/DTD/svg10.dtd">
<svg version="1.0" xmlns="http://www.w3.org/2000/svg"
 width="143.000000pt" height="144.000000pt" viewBox="0 0 143.000000 144.000000"
 preserveAspectRatio="xMidYMid meet">
<metadata>
Created by potrace 1.14, written by Peter Selinger 2001-2017
</metadata>
<g transform="translate(0.000000,144.000000) scale(0.100000,-0.100000)"
fill="#000000" stroke="none">
<path fill="#000000" stroke="none" d="M410 1382 c0 -46 6 -75 24 -110 13 -26
31 -80 40 -120 9 -40 22 -81 28 -91 11 -18 3 -91 -10 -91 -4 0 -15 7 -24 14
-14 11 -18 29 -18 89 0 59 -5 84 -21 111 -12 20 -24 36 -27 36 -4 -1 -23 -15
-43 -33 -28 -25 -46 -58 -83 -153 -25 -66 -46 -124 -46 -129 0 -20 33 -95 42
-95 25 0 108 -45 113 -61 8 -25 30 -24 68 3 46 31 57 48 57 88 0 44 44 156 72
187 12 13 29 25 40 29 29 9 22 56 -22 140 -43 81 -107 170 -159 218 l-31 30 0
-62z"/>
<path fill="#000000" stroke="none" d="M1153 760 c-75 -59 -109 -94 -132 -134
l-31 -53 20 -114 c11 -63 22 -123 25 -134 3 -11 35 -45 72 -75 75 -62 255
-172 264 -162 9 10 47 266 54 366 6 89 6 91 -40 217 -43 117 -49 127 -83 145
-21 10 -39 20 -42 21 -3 2 -51 -33 -107 -77z"/>
<path fill="#000000" stroke="none" d="M473 605 c-10 -18 -117 -50 -199 -61
-44 -5 -72 -17 -130 -56 -66 -44 -79 -58 -109 -117 l-34 -68 18 -70 c23 -88
20 -83 83 -126 38 -25 90 -45 187 -72 73 -20 135 -34 138 -32 6 7 135 598 131
602 -2 1 -20 5 -40 9 -28 5 -39 3 -45 -9z"/>
</g>
</svg>
