<?xml version="1.0" standalone="no"?>
<!DOCTYPE svg PUBLIC "-//W3C//DTD SVG 20010904//EN"
 "http://www.w3.org/TR/2001/REC-SVG-20010904/DTD/svg10.dtd">
<svg version="1.0" xmlns="http://www.w3.org/2000/svg"
 width="14.000000pt" height="85.000000pt" viewBox="0 0 14.000000 85.000000"
 preserveAspectRatio="xMidYMid meet">
<metadata>
Created by potrace 1.14, written by Peter Selinger 2001-2017
</metadata>
<g transform="translate(0.000000,85.000000) scale(0.100000,-0.100000)"
fill="#000000" stroke="none">
<path fill="#000000" stroke="none" d="M124 842 c-6 -4 -18 -43 -28 -87 -9
-45 -19 -91 -23 -103 -4 -15 -1 -22 9 -22 13 0 11 -16 -9 -97 -19 -78 -23
-115 -20 -182 5 -81 -8 -144 -31 -153 -13 -4 -23 -116 -11 -123 5 -4 9 -17 9
-30 0 -18 7 -25 30 -29 16 -3 43 -9 60 -12 l30 -6 0 426 c0 234 -1 426 -2 426
-2 0 -8 -4 -14 -8z"/>
</g>
</svg>
