<?xml version="1.0" standalone="no"?>
<!DOCTYPE svg PUBLIC "-//W3C//DTD SVG 20010904//EN"
 "http://www.w3.org/TR/2001/REC-SVG-20010904/DTD/svg10.dtd">
<svg version="1.0" xmlns="http://www.w3.org/2000/svg"
 width="79.000000pt" height="16.000000pt" viewBox="0 0 79.000000 16.000000"
 preserveAspectRatio="xMidYMid meet">
<metadata>
Created by potrace 1.14, written by Peter Selinger 2001-2017
</metadata>
<g transform="translate(0.000000,16.000000) scale(0.100000,-0.100000)"
fill="#000000" stroke="none">
<path fill="#000000" stroke="none" d="M0 156 c0 -4 11 -27 25 -51 l25 -43
220 -4 219 -4 29 -27 c15 -15 32 -27 37 -27 4 0 27 16 51 35 23 19 49 35 57
35 7 0 22 9 32 20 11 12 31 20 50 20 24 0 34 5 38 20 5 20 0 20 -207 20 -117
0 -295 3 -394 7 -100 3 -182 3 -182 -1z"/>
</g>
</svg>
