<?xml version="1.0" standalone="no"?>
<!DOCTYPE svg PUBLIC "-//W3C//DTD SVG 20010904//EN"
 "http://www.w3.org/TR/2001/REC-SVG-20010904/DTD/svg10.dtd">
<svg version="1.0" xmlns="http://www.w3.org/2000/svg"
 width="24.000000pt" height="111.000000pt" viewBox="0 0 24.000000 111.000000"
 preserveAspectRatio="xMidYMid meet">
<metadata>
Created by potrace 1.14, written by Peter Selinger 2001-2017
</metadata>
<g transform="translate(0.000000,111.000000) scale(0.100000,-0.100000)"
fill="#000000" stroke="none">
<path fill="#000000" stroke="none" d="M44 1100 c-27 -11 -48 -61 -39 -92 4
-13 15 -34 25 -48 9 -14 22 -41 29 -60 6 -20 28 -63 49 -95 21 -35 41 -83 48
-115 9 -50 8 -59 -14 -98 -22 -38 -23 -47 -14 -100 10 -54 9 -60 -20 -112 -17
-30 -44 -69 -60 -87 -30 -31 -30 -32 -31 -156 -2 -123 -2 -126 21 -130 12 -2
25 0 28 4 3 5 24 9 47 9 23 0 47 4 53 8 7 5 11 77 11 222 -1 213 0 216 30 305
30 90 30 90 18 202 -9 89 -16 119 -33 142 -12 17 -22 44 -22 60 0 57 -56 152
-89 150 -9 0 -25 -4 -37 -9z"/>
</g>
</svg>
