<?xml version="1.0" standalone="no"?>
<!DOCTYPE svg PUBLIC "-//W3C//DTD SVG 20010904//EN"
 "http://www.w3.org/TR/2001/REC-SVG-20010904/DTD/svg10.dtd">
<svg version="1.0" xmlns="http://www.w3.org/2000/svg"
 width="27.000000pt" height="53.000000pt" viewBox="0 0 27.000000 53.000000"
 preserveAspectRatio="xMidYMid meet">
<metadata>
Created by potrace 1.14, written by Peter Selinger 2001-2017
</metadata>
<g transform="translate(0.000000,53.000000) scale(0.100000,-0.100000)"
fill="#000000" stroke="none">
<path fill="#000000" stroke="none" d="M162 478 c-35 -61 -69 -143 -87 -208
-10 -39 -15 -45 -36 -43 l-24 2 22 -11 c27 -13 28 -20 9 -57 -8 -15 -21 -55
-29 -89 -16 -69 -14 -72 49 -72 25 0 34 4 34 17 0 9 12 61 27 117 l27 100 13
-49 c8 -28 15 -78 15 -113 2 -56 4 -63 24 -68 42 -11 64 12 64 64 0 26 -5 63
-10 82 -6 19 -12 99 -14 176 -3 105 -8 150 -20 173 -9 17 -21 31 -26 31 -4 0
-22 -24 -38 -52z"/>
</g>
</svg>
