<?xml version="1.0" standalone="no"?>
<!DOCTYPE svg PUBLIC "-//W3C//DTD SVG 20010904//EN"
 "http://www.w3.org/TR/2001/REC-SVG-20010904/DTD/svg10.dtd">
<svg version="1.0" xmlns="http://www.w3.org/2000/svg"
 width="54.000000pt" height="156.000000pt" viewBox="0 0 54.000000 156.000000"
 preserveAspectRatio="xMidYMid meet">
<metadata>
Created by potrace 1.14, written by Peter Selinger 2001-2017
</metadata>
<g transform="translate(0.000000,156.000000) scale(0.100000,-0.100000)"
fill="#000000" stroke="none">
<path fill="#000000" stroke="none" d="M290 1554 c-56 -19 -89 -40 -112 -74
-31 -43 -37 -95 -13 -126 20 -27 18 -36 -6 -29 -41 13 -66 -13 -114 -122 -47
-109 -57 -171 -30 -193 12 -10 16 -9 21 4 6 17 40 21 60 8 19 -12 32 -277 24
-487 -2 -55 2 -179 9 -275 7 -96 13 -194 13 -218 1 -23 4 -41 7 -40 3 2 22 9
42 17 45 17 59 55 59 160 0 49 13 125 40 240 22 92 40 185 40 206 0 94 65 256
149 370 58 79 68 113 49 170 -11 34 -27 49 -98 98 -47 32 -85 61 -85 65 1 4 7
27 14 51 19 65 7 145 -24 165 -13 9 -26 16 -27 15 -2 0 -10 -3 -18 -5z"/>
</g>
</svg>
