<?xml version="1.0" standalone="no"?>
<!DOCTYPE svg PUBLIC "-//W3C//DTD SVG 20010904//EN"
 "http://www.w3.org/TR/2001/REC-SVG-20010904/DTD/svg10.dtd">
<svg version="1.0" xmlns="http://www.w3.org/2000/svg"
 width="25.000000pt" height="50.000000pt" viewBox="0 0 25.000000 50.000000"
 preserveAspectRatio="xMidYMid meet">
<metadata>
Created by potrace 1.14, written by Peter Selinger 2001-2017
</metadata>
<g transform="translate(0.000000,50.000000) scale(0.100000,-0.100000)"
fill="#000000" stroke="none">
<path fill="#000000" stroke="none" d="M148 489 c-11 -6 -18 -22 -18 -39 0
-17 -10 -39 -23 -52 -24 -25 -107 -170 -107 -188 0 -6 6 -18 14 -25 18 -19 26
-9 66 81 l30 69 -6 -47 c-4 -32 0 -69 12 -114 17 -66 17 -67 -2 -83 -18 -15
-19 -20 -9 -51 11 -33 11 -34 27 -12 l15 22 11 -25 c14 -30 56 -36 49 -7 -16
55 -17 75 -6 88 9 11 47 252 49 307 0 4 -14 7 -30 7 -31 0 -33 8 -14 68 4 15
-34 16 -58 1z"/>
</g>
</svg>
