<?xml version="1.0" standalone="no"?>
<!DOCTYPE svg PUBLIC "-//W3C//DTD SVG 20010904//EN"
 "http://www.w3.org/TR/2001/REC-SVG-20010904/DTD/svg10.dtd">
<svg version="1.0" xmlns="http://www.w3.org/2000/svg"
 width="87.000000pt" height="203.000000pt" viewBox="0 0 87.000000 203.000000"
 preserveAspectRatio="xMidYMid meet">
<metadata>
Created by potrace 1.14, written by Peter Selinger 2001-2017
</metadata>
<g transform="translate(0.000000,203.000000) scale(0.100000,-0.100000)"
fill="#000000" stroke="none">
<path fill="#000000" stroke="none" d="M434 2013 c-70 -21 -94 -63 -101 -177
-5 -74 -4 -85 14 -97 22 -16 37 -49 23 -49 -26 0 -200 -76 -237 -104 -37 -28
-47 -44 -89 -154 -43 -112 -46 -127 -36 -156 7 -18 12 -45 12 -59 0 -15 12
-46 27 -68 l26 -40 -21 -29 c-19 -25 -22 -43 -22 -125 0 -53 5 -127 11 -166
11 -65 13 -68 29 -54 16 15 18 13 25 -17 7 -28 15 -203 19 -386 l1 -52 43 0
c30 0 64 -11 115 -37 39 -21 75 -39 79 -41 4 -2 12 16 18 40 31 118 62 208 70
203 6 -3 9 -56 8 -118 -1 -92 3 -123 20 -174 12 -34 22 -83 22 -108 l0 -45
100 0 c111 0 112 1 85 66 -14 33 -13 43 9 131 14 53 29 100 34 105 5 5 8 48 5
96 -3 66 -2 83 7 70 13 -21 82 -25 98 -5 6 7 13 126 17 297 7 277 7 287 -14
339 -21 52 -21 54 -3 67 11 7 25 26 31 42 11 26 7 47 -28 172 -23 78 -41 146
-41 152 0 18 -64 63 -129 91 -102 43 -111 60 -50 91 23 11 42 69 41 121 -1 39
-19 110 -33 133 -12 19 -106 64 -127 61 -4 -1 -30 -8 -58 -16z"/>
<path fill="#ffffff" stroke="none" d="M758 785 c18 -41 32 -80 32 -87 0 -21
-33 -102 -53 -129 l-17 -24 5 31 c3 18 -1 71 -10 119 -15 81 -13 165 4 165 4
0 21 -34 39 -75z"/>
</g>
</svg>
