<?xml version="1.0" standalone="no"?>
<!DOCTYPE svg PUBLIC "-//W3C//DTD SVG 20010904//EN"
 "http://www.w3.org/TR/2001/REC-SVG-20010904/DTD/svg10.dtd">
<svg version="1.0" xmlns="http://www.w3.org/2000/svg"
 width="79.000000pt" height="146.000000pt" viewBox="0 0 79.000000 146.000000"
 preserveAspectRatio="xMidYMid meet">
<metadata>
Created by potrace 1.14, written by Peter Selinger 2001-2017
</metadata>
<g transform="translate(0.000000,146.000000) scale(0.100000,-0.100000)"
fill="#000000" stroke="none">
<path fill="#000000" stroke="none" d="M488 1431 c-18 -16 -55 -58 -83 -94
-47 -61 -56 -67 -169 -117 -118 -54 -119 -54 -174 -129 l-55 -75 2 -320 c1
-177 4 -343 7 -371 3 -27 22 -99 42 -158 28 -84 41 -109 57 -112 32 -7 498
-55 501 -52 2 2 42 184 90 406 l88 404 -54 241 c-29 132 -57 250 -61 261 -4
11 -41 49 -82 83 l-76 62 -33 -29z"/>
</g>
</svg>
