<?xml version="1.0" standalone="no"?>
<!DOCTYPE svg PUBLIC "-//W3C//DTD SVG 20010904//EN"
 "http://www.w3.org/TR/2001/REC-SVG-20010904/DTD/svg10.dtd">
<svg version="1.0" xmlns="http://www.w3.org/2000/svg"
 width="133.000000pt" height="258.000000pt" viewBox="0 0 133.000000 258.000000"
 preserveAspectRatio="xMidYMid meet">
<metadata>
Created by potrace 1.14, written by Peter Selinger 2001-2017
</metadata>
<g transform="translate(0.000000,258.000000) scale(0.100000,-0.100000)"
fill="#000000" stroke="none">
<path fill="#000000" stroke="none" d="M746 2554 c-44 -13 -82 -26 -85 -29 -3
-3 -26 -59 -51 -124 l-47 -118 39 -24 c22 -13 43 -31 48 -39 6 -12 -32 -70
-149 -225 l-157 -209 19 -81 20 -82 -35 -217 -34 -217 22 -17 c22 -16 24 -30
44 -256 l20 -239 -32 -51 c-18 -28 -98 -150 -179 -271 -89 -135 -153 -241
-164 -275 -10 -30 -20 -60 -22 -66 -3 -7 35 -6 123 2 113 11 130 15 152 37
l25 25 -22 37 c-12 20 -18 42 -14 48 13 21 260 312 274 323 8 6 24 14 36 16
16 4 20 2 16 -9 -5 -12 -1 -14 18 -8 13 5 100 32 193 61 93 30 171 55 173 58
2 2 -24 127 -58 277 l-62 274 13 223 c10 173 16 225 27 229 8 3 93 -6 189 -21
l175 -26 34 23 c19 12 35 25 35 28 0 9 -32 35 -38 30 -2 -2 -24 13 -47 33
l-44 36 -150 0 c-150 0 -151 0 -151 23 -1 12 -7 91 -15 176 l-13 155 28 57
c26 51 33 57 68 63 l39 6 7 61 c14 135 15 131 -81 235 -48 52 -92 94 -98 93
-5 0 -46 -11 -89 -25z"/>
</g>
</svg>
