<?xml version="1.0" standalone="no"?>
<!DOCTYPE svg PUBLIC "-//W3C//DTD SVG 20010904//EN"
 "http://www.w3.org/TR/2001/REC-SVG-20010904/DTD/svg10.dtd">
<svg version="1.0" xmlns="http://www.w3.org/2000/svg"
 width="18.000000pt" height="76.000000pt" viewBox="0 0 18.000000 76.000000"
 preserveAspectRatio="xMidYMid meet">
<metadata>
Created by potrace 1.14, written by Peter Selinger 2001-2017
</metadata>
<g transform="translate(0.000000,76.000000) scale(0.100000,-0.100000)"
fill="#000000" stroke="none">
<path fill="#000000" stroke="none" d="M43 753 c-20 -4 -21 -11 -27 -136 -3
-73 -8 -242 -12 -376 -5 -225 -4 -243 11 -237 9 3 22 6 28 6 7 0 18 4 25 9 19
12 61 174 68 266 4 44 13 90 20 102 13 20 12 28 -6 63 l-21 40 25 91 c18 65
22 91 13 94 -7 2 -25 7 -42 12 -21 7 -32 19 -39 41 -5 18 -12 31 -15 31 -3 -1
-16 -4 -28 -6z"/>
</g>
</svg>
