<?xml version="1.0" standalone="no"?>
<!DOCTYPE svg PUBLIC "-//W3C//DTD SVG 20010904//EN"
 "http://www.w3.org/TR/2001/REC-SVG-20010904/DTD/svg10.dtd">
<svg version="1.0" xmlns="http://www.w3.org/2000/svg"
 width="206.000000pt" height="423.000000pt" viewBox="0 0 206.000000 423.000000"
 preserveAspectRatio="xMidYMid meet">
<metadata>
Created by potrace 1.14, written by Peter Selinger 2001-2017
</metadata>
<g transform="translate(0.000000,423.000000) scale(0.100000,-0.100000)"
fill="#000000" stroke="none">
<path fill="#000000" stroke="none" d="M1902 4183 c-12 -27 -35 -118 -53 -203
l-32 -156 -144 -174 c-79 -96 -173 -204 -207 -240 -35 -36 -93 -104 -131 -153
-38 -48 -70 -85 -72 -83 -2 2 -15 65 -28 141 -24 134 -26 139 -75 205 l-50 67
-96 -13 c-80 -11 -99 -18 -115 -37 -10 -14 -34 -44 -54 -67 -20 -24 -33 -50
-31 -59 3 -9 12 -58 21 -110 9 -55 35 -144 61 -210 34 -88 53 -160 79 -301 29
-163 34 -213 40 -425 l6 -240 -269 -189 -269 -188 -109 -192 c-75 -131 -150
-246 -241 -367 -73 -97 -133 -182 -133 -190 0 -9 46 -64 102 -123 l103 -107
145 104 144 105 81 169 c45 93 99 192 120 220 l38 51 36 -13 36 -12 3 -288 2
-287 -111 -184 -111 -183 -44 -7 c-24 -3 -44 -9 -44 -13 0 -11 73 -78 100 -91
14 -6 73 -44 132 -83 104 -69 107 -72 117 -119 7 -31 7 -56 1 -73 -7 -18 -6
-33 1 -48 11 -20 13 -18 35 24 12 24 96 186 186 359 l163 314 -32 299 -33 299
82 106 c45 58 160 183 255 277 208 207 223 232 223 378 0 51 -13 208 -29 349
l-30 257 -52 118 c-48 110 -52 125 -58 223 l-7 105 191 250 c112 145 216 294
250 355 l59 104 -3 146 c-3 203 -2 200 -64 228 -29 12 -55 22 -58 22 -3 0 -15
-21 -27 -47z"/>
</g>
</svg>
