<?xml version="1.0" standalone="no"?>
<!DOCTYPE svg PUBLIC "-//W3C//DTD SVG 20010904//EN"
 "http://www.w3.org/TR/2001/REC-SVG-20010904/DTD/svg10.dtd">
<svg version="1.0" xmlns="http://www.w3.org/2000/svg"
 width="235.000000pt" height="265.000000pt" viewBox="0 0 235.000000 265.000000"
 preserveAspectRatio="xMidYMid meet">
<metadata>
Created by potrace 1.14, written by Peter Selinger 2001-2017
</metadata>
<g transform="translate(0.000000,265.000000) scale(0.100000,-0.100000)"
fill="#000000" stroke="none">
<path fill="#000000" stroke="none" d="M1175 2635 c-38 -7 -109 -16 -157 -20
l-87 -8 -16 -41 c-14 -36 -14 -46 -1 -82 l14 -40 -40 -11 c-38 -10 -47 -7
-186 56 -81 37 -187 82 -235 101 l-88 33 -71 -34 -71 -34 -51 -105 c-49 -99
-53 -104 -89 -112 -22 -5 -48 -20 -65 -39 -24 -27 -27 -37 -23 -72 5 -34 16
-49 72 -98 l65 -59 133 29 c73 16 138 34 145 40 9 7 29 -4 76 -42 l63 -52 144
-295 144 -295 158 -160 c135 -137 169 -178 235 -283 l76 -123 0 -195 0 -194
54 -108 54 -107 211 -88 c195 -81 230 -92 452 -142 132 -30 245 -55 250 -55
10 0 3 1286 -8 1485 l-6 110 -274 250 -274 250 -155 206 c-140 187 -164 214
-248 278 -51 39 -101 70 -112 70 -10 -1 -50 -7 -89 -14z"/>
</g>
</svg>
