<?xml version="1.0" standalone="no"?>
<!DOCTYPE svg PUBLIC "-//W3C//DTD SVG 20010904//EN"
 "http://www.w3.org/TR/2001/REC-SVG-20010904/DTD/svg10.dtd">
<svg version="1.0" xmlns="http://www.w3.org/2000/svg"
 width="23.000000pt" height="26.000000pt" viewBox="0 0 23.000000 26.000000"
 preserveAspectRatio="xMidYMid meet">
<metadata>
Created by potrace 1.14, written by Peter Selinger 2001-2017
</metadata>
<g transform="translate(0.000000,26.000000) scale(0.100000,-0.100000)"
fill="#000000" stroke="none">
<path fill="#000000" stroke="none" d="M69 250 c-24 -14 -60 -106 -62 -155 -1
-23 5 -55 13 -70 13 -25 18 -27 59 -21 24 3 68 6 99 6 l55 0 -7 32 c-3 18 -21
47 -38 64 -28 27 -32 38 -30 75 1 24 -1 50 -6 56 -11 17 -63 25 -83 13z"/>
</g>
</svg>
