<?xml version="1.0" standalone="no"?>
<!DOCTYPE svg PUBLIC "-//W3C//DTD SVG 20010904//EN"
 "http://www.w3.org/TR/2001/REC-SVG-20010904/DTD/svg10.dtd">
<svg version="1.0" xmlns="http://www.w3.org/2000/svg"
 width="202.000000pt" height="135.000000pt" viewBox="0 0 202.000000 135.000000"
 preserveAspectRatio="xMidYMid meet">
<metadata>
Created by potrace 1.14, written by Peter Selinger 2001-2017
</metadata>
<g transform="translate(0.000000,135.000000) scale(0.100000,-0.100000)"
fill="#000000" stroke="none">
<path fill="#000000" stroke="none" d="M697 1338 c-59 -13 -90 -50 -81 -98 5
-25 11 -31 25 -27 16 4 19 -1 19 -38 0 -23 2 -55 5 -71 5 -26 1 -32 -50 -62
-46 -28 -55 -38 -55 -61 0 -15 -9 -36 -20 -46 -11 -10 -22 -26 -25 -36 -4 -11
-10 -17 -15 -14 -5 3 -27 2 -50 -1 -56 -9 -100 -53 -100 -101 0 -20 -20 -86
-44 -147 -25 -61 -48 -135 -52 -164 -4 -30 -13 -56 -20 -59 -7 -3 -18 -19 -24
-37 -9 -28 -15 -32 -35 -28 -30 5 -34 -14 -7 -34 16 -12 16 -14 -3 -28 -11 -8
-37 -16 -57 -16 -20 0 -40 -5 -43 -10 -4 -6 -19 -9 -33 -8 -17 2 -27 -2 -27
-10 0 -8 48 -34 113 -61 64 -27 132 -63 157 -84 25 -21 75 -51 112 -67 l68
-29 33 37 c17 20 54 60 82 87 40 40 47 53 39 67 -12 21 2 53 30 68 15 7 35 2
87 -22 44 -20 89 -34 126 -36 53 -4 61 -2 135 44 134 82 171 126 149 179 -28
66 -27 130 3 354 6 41 14 78 19 83 5 5 63 22 129 38 174 43 406 133 468 182
47 38 53 40 100 35 28 -3 65 -9 84 -13 31 -6 33 -5 26 15 -5 18 -2 21 19 21
26 0 35 14 15 25 -6 5 -4 12 8 20 17 13 17 14 0 20 -9 4 -16 15 -15 24 4 24
-36 25 -170 6 -92 -14 -131 -25 -187 -52 -38 -20 -142 -60 -231 -89 l-160 -53
-59 15 c-33 9 -73 23 -89 31 -22 11 -50 14 -108 11 -67 -4 -80 -2 -88 12 -5
10 -7 20 -4 22 7 8 34 117 34 142 0 12 -11 33 -25 46 -21 20 -38 25 -93 27
-37 1 -88 -3 -115 -9z"/>
</g>
</svg>
