<?xml version="1.0" standalone="no"?>
<!DOCTYPE svg PUBLIC "-//W3C//DTD SVG 20010904//EN"
 "http://www.w3.org/TR/2001/REC-SVG-20010904/DTD/svg10.dtd">
<svg version="1.0" xmlns="http://www.w3.org/2000/svg"
 width="21.000000pt" height="54.000000pt" viewBox="0 0 21.000000 54.000000"
 preserveAspectRatio="xMidYMid meet">
<metadata>
Created by potrace 1.14, written by Peter Selinger 2001-2017
</metadata>
<g transform="translate(0.000000,54.000000) scale(0.100000,-0.100000)"
fill="#000000" stroke="none">
<path fill="#000000" stroke="none" d="M77 533 c-4 -3 -7 -19 -7 -33 0 -23 -6
-29 -30 -34 -37 -7 -47 -29 -30 -61 10 -18 11 -62 6 -182 -6 -151 -1 -193 22
-180 5 4 12 29 16 56 7 55 25 111 34 111 14 0 42 -87 42 -131 0 -61 18 -85 56
-74 27 8 27 9 7 12 -13 3 -23 10 -24 16 -11 117 -14 238 -7 318 2 36 -2 54
-23 85 -20 30 -24 45 -17 58 5 9 7 24 4 32 -6 14 -37 19 -49 7z"/>
</g>
</svg>
