<?xml version="1.0" standalone="no"?>
<!DOCTYPE svg PUBLIC "-//W3C//DTD SVG 20010904//EN"
 "http://www.w3.org/TR/2001/REC-SVG-20010904/DTD/svg10.dtd">
<svg version="1.0" xmlns="http://www.w3.org/2000/svg"
 width="52.000000pt" height="96.000000pt" viewBox="0 0 52.000000 96.000000"
 preserveAspectRatio="xMidYMid meet">
<metadata>
Created by potrace 1.14, written by Peter Selinger 2001-2017
</metadata>
<g transform="translate(0.000000,96.000000) scale(0.100000,-0.100000)"
fill="#000000" stroke="none">
<path fill="#000000" stroke="none" d="M274 951 c-18 -3 -43 -20 -60 -40 -25
-30 -30 -46 -35 -115 -5 -86 1 -128 31 -190 18 -38 18 -39 -3 -72 -16 -23 -35
-36 -66 -45 -53 -15 -109 -61 -127 -106 -9 -21 -14 -73 -14 -142 l0 -109 53
-9 c42 -7 60 -5 92 9 51 22 128 24 149 2 29 -28 76 -102 76 -118 0 -23 16 -20
58 11 103 75 117 112 62 163 -17 15 -44 60 -60 99 -39 91 -41 170 -6 239 34
69 50 291 25 368 -15 50 -88 72 -175 55z"/>
</g>
</svg>
