<?xml version="1.0" standalone="no"?>
<!DOCTYPE svg PUBLIC "-//W3C//DTD SVG 20010904//EN"
 "http://www.w3.org/TR/2001/REC-SVG-20010904/DTD/svg10.dtd">
<svg version="1.0" xmlns="http://www.w3.org/2000/svg"
 width="640.000000pt" height="329.000000pt" viewBox="0 0 640.000000 329.000000"
 preserveAspectRatio="xMidYMid meet">
<metadata>
Created by potrace 1.14, written by Peter Selinger 2001-2017
</metadata>
<g transform="translate(0.000000,329.000000) scale(0.100000,-0.100000)"
fill="#000000" stroke="none">
<path fill="#000000" stroke="none" d="M1658 3273 c-27 -31 -38 -60 -38 -103
0 -73 32 -110 119 -135 12 -4 38 -17 57 -30 19 -13 47 -26 63 -30 16 -3 39
-17 51 -30 13 -14 39 -30 59 -36 20 -7 50 -24 68 -39 17 -16 45 -31 62 -35 17
-3 44 -19 61 -35 17 -16 45 -32 63 -36 17 -3 47 -19 65 -35 18 -16 45 -32 60
-35 15 -4 38 -17 52 -29 31 -28 63 -45 85 -45 9 0 30 -13 46 -30 16 -16 45
-32 64 -36 18 -3 42 -15 52 -26 23 -25 66 -48 91 -48 11 0 22 -7 26 -15 8 -21
66 -55 94 -55 12 0 25 -7 28 -15 8 -19 66 -55 89 -55 10 0 35 -16 56 -35 26
-23 49 -35 68 -35 16 0 31 -6 35 -15 7 -19 65 -55 89 -55 10 0 32 -13 48 -30
16 -16 46 -34 65 -39 19 -5 50 -23 70 -40 19 -17 43 -31 53 -31 10 0 29 -9 42
-19 l24 -19 -65 -7 c-53 -6 -74 -3 -118 14 -66 26 -114 26 -171 1 -24 -11 -55
-20 -70 -20 -14 0 -46 -9 -70 -20 -24 -11 -52 -20 -62 -20 -11 0 -37 -9 -58
-19 l-38 -20 5 24 c7 38 -16 91 -54 125 -29 25 -43 30 -87 30 -51 0 -117 -28
-117 -49 0 -15 -73 -55 -115 -63 -127 -23 -201 -29 -235 -19 -19 5 -109 13
-200 16 l-165 6 -66 -29 c-37 -17 -73 -40 -82 -52 l-15 -21 -6 24 c-3 14 -22
39 -42 57 -35 31 -40 32 -103 27 -40 -2 -89 1 -124 10 -46 11 -91 13 -225 6
-138 -7 -173 -6 -202 6 -19 8 -64 14 -100 14 -67 1 -64 2 -198 -73 -71 -39
-99 -114 -71 -187 6 -15 11 -54 12 -87 l2 -59 -70 6 c-104 8 -111 13 -70 48
63 56 70 140 16 202 -16 17 -38 53 -50 79 -28 57 -43 71 -106 92 -73 24 -152
30 -220 16 -76 -15 -80 -18 -60 -40 15 -16 13 -18 -17 -31 -17 -7 -47 -26 -65
-42 l-33 -29 0 -167 c0 -164 1 -168 24 -190 27 -25 25 -57 -5 -66 -21 -7 -26
-35 -6 -35 25 0 37 -21 25 -43 -6 -11 -15 -48 -19 -81 -5 -34 -12 -72 -15 -86
-3 -14 -7 -97 -9 -185 -4 -180 4 -212 59 -247 25 -15 45 -18 101 -15 70 4 180
27 205 42 7 5 68 7 134 6 70 -1 133 2 150 9 16 6 31 8 34 6 2 -3 7 -47 9 -98
3 -51 13 -122 23 -158 10 -36 21 -76 24 -90 2 -14 2 34 -1 105 -7 170 10 158
34 -23 16 -122 19 -135 42 -151 15 -10 40 -21 56 -25 17 -4 48 -12 69 -17 l39
-11 -6 -180 -5 -180 34 -14 c18 -8 48 -14 66 -14 18 -1 44 -7 58 -15 48 -27
171 -14 202 23 14 15 10 40 -38 242 -50 209 -54 234 -54 349 0 105 -4 140 -27
217 l-26 93 80 268 80 268 60 6 c66 6 83 13 83 34 0 8 9 19 21 25 18 10 19 13
5 23 -19 14 -41 116 -32 150 3 14 28 41 55 61 67 50 144 58 232 26 47 -17 74
-21 109 -16 38 5 50 3 63 -12 15 -17 13 -23 -38 -95 -38 -53 -55 -87 -55 -108
0 -39 -29 -89 -51 -89 -15 0 -29 -36 -29 -76 0 -7 27 -23 60 -35 33 -12 62
-29 64 -38 3 -9 24 -97 46 -196 23 -99 45 -184 49 -188 5 -5 71 -7 148 -5 136
3 141 4 189 33 49 31 49 31 63 108 14 74 14 80 -6 120 -11 23 -24 58 -27 77
-16 75 -13 74 -63 30 -25 -22 -52 -40 -59 -40 -7 0 -20 22 -28 49 -8 27 -21
60 -29 73 -14 20 -21 66 -18 106 1 6 8 12 17 12 11 0 15 6 11 19 -3 11 2 30
11 42 14 20 14 23 -1 34 -24 17 -21 25 10 25 l26 0 -22 23 -22 24 139 6 c164
7 287 0 324 -19 15 -8 38 -14 53 -14 28 0 32 -11 11 -29 -24 -20 -68 -121 -74
-166 l-4 -42 41 -7 c56 -9 101 -68 101 -133 0 -25 9 -62 21 -86 30 -58 39 -93
27 -105 -19 -19 51 -52 108 -52 46 0 57 5 103 43 l51 42 -6 75 c-4 41 -8 77
-10 79 -2 2 13 26 33 53 44 61 82 151 83 198 0 19 9 45 19 58 21 24 69 30 90
10 11 -11 13 -10 7 5 -3 10 -6 23 -6 28 0 5 -16 27 -36 49 -36 40 -37 40 -9
30 25 -10 164 -20 270 -20 l40 0 -31 -19 c-44 -27 -99 -95 -112 -140 -17 -57
-15 -126 7 -179 11 -26 25 -71 31 -99 7 -29 14 -53 16 -53 2 0 4 48 3 108 -1
59 0 114 1 122 2 8 0 44 -4 80 -3 36 -2 71 3 79 6 10 29 14 75 14 37 0 68 -2
69 -4 23 -36 33 -78 25 -108 -13 -48 9 -68 76 -73 52 -3 53 -3 39 18 -7 11
-31 26 -53 33 -22 6 -40 15 -40 19 -1 20 78 163 93 168 9 3 29 30 43 60 21 44
24 62 18 100 -6 45 -6 46 17 39 13 -4 39 -21 57 -36 43 -38 52 -37 52 9 0 31
5 41 25 52 18 10 27 25 32 53 7 44 18 52 56 38 19 -7 27 -18 27 -34 0 -12 16
-55 35 -95 l34 -72 -74 0 c-79 0 -90 -8 -52 -33 29 -19 97 -38 97 -27 0 4 17
10 37 12 30 4 47 -3 97 -36 60 -40 61 -42 64 -91 1 -27 5 -61 9 -75 5 -19 8
-12 13 33 4 32 15 66 25 77 26 29 90 48 178 54 77 4 78 4 88 -22 6 -15 9 -69
7 -122 -2 -86 1 -107 34 -215 20 -66 40 -137 43 -158 6 -36 7 -37 50 -37 l44
0 -6 49 c-4 40 -1 59 20 102 15 30 40 71 58 91 19 22 38 62 49 102 20 72 17
81 -37 95 -27 7 -28 10 -33 87 -3 43 -10 87 -16 97 -7 13 -8 31 -1 57 14 50
-12 121 -63 173 -35 35 -41 37 -99 37 -69 0 -96 -10 -127 -47 l-21 -24 5 30
c6 44 -15 96 -54 131 -29 25 -43 30 -88 30 -42 0 -62 -6 -100 -32 -54 -36 -86
-80 -86 -120 l0 -28 -32 20 c-18 11 -40 20 -49 20 -9 0 -24 9 -35 21 -22 24
-66 49 -87 49 -8 0 -29 13 -47 30 -17 16 -46 32 -65 36 -18 3 -46 19 -61 35
-15 16 -42 32 -60 35 -18 3 -41 15 -51 26 -23 25 -66 48 -91 48 -11 0 -22 7
-26 15 -7 19 -65 55 -90 55 -10 0 -36 16 -57 35 -26 23 -49 35 -68 35 -16 0
-31 6 -35 15 -7 19 -65 55 -89 55 -11 0 -31 13 -46 29 -15 16 -44 34 -64 39
-21 6 -53 24 -73 41 -19 17 -43 31 -54 31 -11 0 -35 14 -54 31 -20 17 -52 35
-73 41 -21 6 -43 18 -50 28 -7 10 -34 26 -60 36 -27 9 -59 28 -73 40 -14 13
-41 29 -60 35 -19 7 -49 25 -67 40 -17 15 -45 30 -62 34 -17 3 -44 19 -61 35
-17 16 -45 32 -63 36 -17 3 -47 19 -64 35 -18 15 -51 33 -73 39 -22 6 -56 20
-75 32 -20 11 -44 18 -56 15 -14 -4 -23 1 -30 17 -12 27 -58 56 -88 56 -11 0
-33 14 -49 32 -22 23 -38 31 -61 30 -20 0 -41 8 -58 24 -21 20 -36 24 -87 24
-34 0 -70 3 -81 6 -13 3 -27 -2 -37 -13z"/>
<path fill="#ffffff" stroke="none" d="M1015 1755 c-8 -22 -13 -29 -9 -15 3
14 9 52 12 85 7 59 7 59 10 15 1 -25 -4 -63 -13 -85z"/>
<path fill="#ffffff" stroke="none" d="M4581 1753 c13 -16 12 -17 -3 -4 -17
13 -22 21 -14 21 2 0 10 -8 17 -17z"/>
<path fill="#ffffff" stroke="none" d="M271 1517 c18 -12 52 -48 74 -80 24
-35 58 -68 84 -82 24 -14 61 -39 82 -56 33 -26 39 -36 39 -69 0 -24 5 -40 15
-44 21 -8 19 -42 -10 -126 -34 -101 -46 -116 -94 -124 -103 -16 -155 20 -171
117 -5 29 -12 64 -16 79 -3 15 -3 40 1 55 l7 28 18 -22 c10 -13 20 -23 23 -23
8 0 34 71 41 112 5 30 1 49 -23 96 -36 72 -98 134 -124 126 -16 -5 -17 -3 -5
15 16 26 18 26 59 -2z"/>
<path fill="#ffffff" stroke="none" d="M870 1184 c0 -7 -4 -16 -10 -19 -5 -3
-10 0 -10 7 0 7 -3 24 -6 38 -5 24 -5 24 10 6 9 -11 16 -25 16 -32z"/>
<path fill="#000000" stroke="none" d="M4993 2021 c-63 -22 -77 -32 -97 -75
-32 -67 -10 -152 48 -187 25 -15 48 -18 137 -16 59 1 109 0 111 -3 2 -3 2 -44
0 -91 l-3 -87 -46 -17 -45 -18 6 -56 c4 -31 17 -78 30 -106 13 -27 27 -66 30
-85 20 -111 51 -220 63 -220 7 0 20 11 28 24 14 20 14 31 5 63 -7 21 -10 49
-8 62 7 49 100 89 149 65 29 -14 49 -68 49 -131 0 -25 11 -60 31 -96 l31 -57
-79 0 -78 -1 34 -29 c19 -16 48 -32 65 -36 17 -3 37 -11 44 -16 6 -6 25 -8 42
-5 24 5 33 2 47 -19 46 -65 67 -84 106 -96 23 -7 50 -23 60 -35 10 -12 37 -28
60 -34 23 -7 56 -25 72 -40 17 -15 44 -31 60 -35 17 -3 41 -17 55 -29 32 -29
64 -45 88 -45 11 0 22 -7 26 -15 7 -19 65 -55 90 -55 10 0 36 -16 57 -35 34
-30 46 -35 89 -35 l50 0 0 259 c0 215 -2 261 -15 271 -13 11 -13 16 0 47 13
30 15 117 15 528 l0 493 -67 8 c-111 11 -362 -3 -397 -24 -85 -50 -87 -201 -2
-253 l31 -19 -48 0 c-55 0 -83 -12 -113 -47 l-21 -25 -5 114 c-6 131 -25 187
-78 232 -31 25 -38 27 -94 22 -83 -7 -328 -8 -456 -2 -85 5 -115 2 -157 -13z"/>
<path fill="#ffffff" stroke="none" d="M6160 1721 c-16 -30 -23 -31 -53 -5
l-28 24 46 0 c42 0 45 -1 35 -19z"/>
<path fill="#ffffff" stroke="none" d="M5817 1488 c15 -17 14 -18 -22 -18 -30
0 -36 3 -31 16 3 9 6 30 6 47 l0 32 16 -30 c8 -16 23 -38 31 -47z"/>
<path fill="#ffffff" stroke="none" d="M5710 1031 c0 -20 -30 -29 -110 -33
-82 -3 -85 -2 -88 20 -3 22 -1 22 97 22 56 0 101 -4 101 -9z"/>
<path fill="#ffffff" stroke="none" d="M6116 929 c19 -21 18 -69 -1 -69 -7 0
-18 6 -22 14 -10 17 -73 56 -92 56 -7 0 -29 14 -48 30 -18 17 -41 31 -51 32
-9 1 28 4 83 7 l100 6 8 -30 c5 -16 15 -37 23 -46z"/>
<path fill="#000000" stroke="none" d="M4023 1650 c-60 -27 -85 -71 -80 -138
3 -38 10 -60 25 -75 l22 -21 15 22 c9 12 30 25 47 30 37 9 43 27 51 135 4 63
4 67 -17 67 -11 0 -40 -9 -63 -20z"/>
<path fill="#000000" stroke="none" d="M4373 1527 c-10 -34 -9 -37 8 -37 20 0
22 9 10 49 -6 23 -7 22 -18 -12z"/>
<path fill="#000000" stroke="none" d="M4045 1411 c-9 -18 -11 -31 -5 -31 11
0 34 50 26 57 -2 3 -12 -9 -21 -26z"/>
<path fill="#000000" stroke="none" d="M4994 1310 c-12 -5 -25 -13 -29 -19 -4
-7 3 -7 22 1 51 22 57 39 7 18z"/>
<path fill="#000000" stroke="none" d="M3791 1268 c1 -24 4 -33 6 -20 5 25 7
26 36 11 18 -9 16 -6 -7 20 -17 17 -31 31 -33 31 -2 0 -2 -19 -2 -42z"/>
<path fill="#000000" stroke="none" d="M5055 1298 c5 -7 16 -22 25 -33 10 -11
20 -29 23 -40 3 -11 5 -4 6 17 1 32 -3 40 -30 54 -23 11 -29 12 -24 2z"/>
<path fill="#000000" stroke="none" d="M3988 1092 c4 -49 3 -52 -19 -53 -91
-3 -182 -10 -229 -18 -44 -8 -25 -9 97 -8 l152 2 10 39 c7 30 6 46 -3 65 -12
22 -13 20 -8 -27z"/>
<path fill="#000000" stroke="none" d="M3520 1001 c0 -8 90 -3 99 5 2 2 -19 4
-47 4 -29 0 -52 -4 -52 -9z"/>
<path fill="#000000" stroke="none" d="M3842 975 c-9 -19 -19 -25 -42 -25 -16
0 -30 4 -30 9 0 6 -16 3 -35 -5 -19 -7 -56 -14 -82 -14 -79 0 -86 -15 -23 -44
76 -36 166 -36 237 -1 28 15 57 33 63 40 11 13 5 15 -39 15 -49 0 -51 1 -41
21 7 11 10 23 7 25 -2 2 -9 -7 -15 -21z"/>
</g>
</svg>
