<?xml version="1.0" standalone="no"?>
<!DOCTYPE svg PUBLIC "-//W3C//DTD SVG 20010904//EN"
 "http://www.w3.org/TR/2001/REC-SVG-20010904/DTD/svg10.dtd">
<svg version="1.0" xmlns="http://www.w3.org/2000/svg"
 width="57.000000pt" height="54.000000pt" viewBox="0 0 57.000000 54.000000"
 preserveAspectRatio="xMidYMid meet">
<metadata>
Created by potrace 1.14, written by Peter Selinger 2001-2017
</metadata>
<g transform="translate(0.000000,54.000000) scale(0.100000,-0.100000)"
fill="#000000" stroke="none">
<path fill="#000000" stroke="none" d="M200 491 c-21 -46 -22 -53 -10 -113
l13 -64 -102 -133 c-56 -74 -100 -135 -99 -137 7 -7 559 -46 565 -40 7 7 -10
129 -27 188 -9 30 -25 47 -78 85 -37 26 -69 48 -71 50 -2 2 0 18 6 36 9 30 6
41 -29 105 l-40 72 -52 0 -53 0 -23 -49z"/>
</g>
</svg>
