<?xml version="1.0" standalone="no"?>
<!DOCTYPE svg PUBLIC "-//W3C//DTD SVG 20010904//EN"
 "http://www.w3.org/TR/2001/REC-SVG-20010904/DTD/svg10.dtd">
<svg version="1.0" xmlns="http://www.w3.org/2000/svg"
 width="133.000000pt" height="318.000000pt" viewBox="0 0 133.000000 318.000000"
 preserveAspectRatio="xMidYMid meet">
<metadata>
Created by potrace 1.14, written by Peter Selinger 2001-2017
</metadata>
<g transform="translate(0.000000,318.000000) scale(0.100000,-0.100000)"
fill="#000000" stroke="none">
<path fill="#000000" stroke="none" d="M136 3071 l-48 -109 39 -107 c30 -83
48 -119 86 -161 26 -31 47 -58 47 -63 0 -4 -23 -25 -51 -46 -28 -22 -57 -45
-65 -51 -10 -8 -24 -67 -40 -170 -13 -88 -41 -224 -63 -304 l-38 -145 126 -65
126 -65 87 -210 c48 -115 137 -359 198 -542 l111 -332 60 -38 c51 -32 59 -42
56 -62 -3 -16 17 -67 64 -156 69 -131 69 -132 69 -213 l0 -80 49 -36 c47 -35
49 -38 44 -76 -3 -22 -4 -40 -2 -40 2 0 79 22 171 48 l166 47 -247 690 -247
690 -32 -1 c-30 -2 -31 0 -43 54 -6 31 -13 61 -15 67 -3 6 9 16 26 22 18 7 30
18 30 30 0 14 24 26 115 58 64 21 114 44 112 50 -2 5 -25 82 -52 169 -45 152
-46 161 -29 173 13 10 21 37 29 101 10 82 9 93 -17 197 -15 61 -32 120 -37
132 -5 11 -53 54 -105 94 -84 64 -94 75 -82 88 7 9 16 30 19 47 5 26 1 36 -26
62 -30 29 -38 31 -139 37 -97 7 -107 9 -98 24 6 11 3 51 -8 111 -15 84 -20 97
-57 138 l-41 45 -90 -11 c-77 -10 -91 -10 -100 3 -9 12 -20 -6 -58 -94z"/>
</g>
</svg>
