<?xml version="1.0" standalone="no"?>
<!DOCTYPE svg PUBLIC "-//W3C//DTD SVG 20010904//EN"
 "http://www.w3.org/TR/2001/REC-SVG-20010904/DTD/svg10.dtd">
<svg version="1.0" xmlns="http://www.w3.org/2000/svg"
 width="137.000000pt" height="280.000000pt" viewBox="0 0 137.000000 280.000000"
 preserveAspectRatio="xMidYMid meet">
<metadata>
Created by potrace 1.14, written by Peter Selinger 2001-2017
</metadata>
<g transform="translate(0.000000,280.000000) scale(0.100000,-0.100000)"
fill="#000000" stroke="none">
<path fill="#000000" stroke="none" d="M525 2793 c-40 -4 -40 -5 -103 -121
l-64 -117 -23 -219 c-13 -120 -28 -222 -33 -225 -4 -3 -26 -17 -47 -30 -32
-21 -47 -44 -100 -155 -50 -107 -70 -166 -109 -321 -43 -173 -47 -197 -41
-265 l7 -76 53 -37 c29 -20 60 -37 67 -37 8 0 19 -16 25 -35 13 -40 0 -63 -86
-165 l-47 -55 4 -146 c4 -128 6 -146 22 -155 10 -5 45 -27 77 -49 73 -50 109
-61 256 -76 l117 -11 0 -42 c0 -22 -13 -130 -28 -238 l-28 -197 30 -6 c17 -4
38 -9 48 -11 11 -3 35 19 77 69 58 70 64 75 135 97 63 20 76 27 81 49 3 14 17
43 30 63 14 20 28 55 31 77 4 26 12 41 21 41 8 0 26 11 41 25 l27 25 12 -32
c7 -22 9 -69 6 -135 -7 -115 -10 -110 67 -93 102 23 90 -1 90 188 0 131 5 195
23 297 24 135 23 169 -10 207 -17 20 -64 186 -54 192 4 3 36 6 71 7 50 2 81
11 133 36 l67 33 0 75 c0 66 -11 111 -81 346 -115 381 -116 384 -221 463 l-86
65 30 78 c17 43 38 99 48 124 l18 45 -28 66 c-35 85 -147 230 -230 300 -60 50
-72 56 -150 71 -47 9 -89 16 -95 15 -5 -1 -28 -3 -50 -5z"/>
</g>
</svg>
