<?xml version="1.0" standalone="no"?>
<!DOCTYPE svg PUBLIC "-//W3C//DTD SVG 20010904//EN"
 "http://www.w3.org/TR/2001/REC-SVG-20010904/DTD/svg10.dtd">
<svg version="1.0" xmlns="http://www.w3.org/2000/svg"
 width="12.000000pt" height="24.000000pt" viewBox="0 0 12.000000 24.000000"
 preserveAspectRatio="xMidYMid meet">
<metadata>
Created by potrace 1.14, written by Peter Selinger 2001-2017
</metadata>
<g transform="translate(0.000000,24.000000) scale(0.100000,-0.100000)"
fill="#000000" stroke="none">
<path fill="#000000" stroke="none" d="M38 233 c0 -5 -2 -12 -3 -18 -3 -15
-15 -48 -26 -67 -13 -26 -11 -30 14 -26 17 2 23 -2 25 -22 5 -51 23 -101 35
-97 7 2 18 16 25 30 11 23 10 38 -9 104 -11 43 -26 84 -31 91 -12 13 -27 16
-30 5z"/>
</g>
</svg>
