<?xml version="1.0" standalone="no"?>
<!DOCTYPE svg PUBLIC "-//W3C//DTD SVG 20010904//EN"
 "http://www.w3.org/TR/2001/REC-SVG-20010904/DTD/svg10.dtd">
<svg version="1.0" xmlns="http://www.w3.org/2000/svg"
 width="58.000000pt" height="66.000000pt" viewBox="0 0 58.000000 66.000000"
 preserveAspectRatio="xMidYMid meet">
<metadata>
Created by potrace 1.14, written by Peter Selinger 2001-2017
</metadata>
<g transform="translate(0.000000,66.000000) scale(0.100000,-0.100000)"
fill="#000000" stroke="none">
<path fill="#000000" stroke="none" d="M240 651 c-43 -5 -76 -18 -148 -61 -51
-30 -92 -60 -92 -66 0 -6 45 -49 100 -95 61 -51 111 -102 127 -129 14 -25 66
-102 115 -173 82 -116 108 -141 108 -102 0 8 11 17 24 21 44 11 106 220 106
357 0 28 -11 69 -30 110 -24 54 -39 72 -87 106 -63 44 -81 47 -223 32z"/>
</g>
</svg>
