<?xml version="1.0" standalone="no"?>
<!DOCTYPE svg PUBLIC "-//W3C//DTD SVG 20010904//EN"
 "http://www.w3.org/TR/2001/REC-SVG-20010904/DTD/svg10.dtd">
<svg version="1.0" xmlns="http://www.w3.org/2000/svg"
 width="215.000000pt" height="267.000000pt" viewBox="0 0 215.000000 267.000000"
 preserveAspectRatio="xMidYMid meet">
<metadata>
Created by potrace 1.14, written by Peter Selinger 2001-2017
</metadata>
<g transform="translate(0.000000,267.000000) scale(0.100000,-0.100000)"
fill="#000000" stroke="none">
<path fill="#000000" stroke="none" d="M409 2637 l-56 -31 -13 -85 -13 -86
-93 -120 c-83 -106 -102 -139 -164 -283 -40 -89 -70 -166 -68 -171 8 -20 338
-332 346 -327 5 3 70 -74 143 -171 74 -97 216 -271 316 -386 l181 -210 212
-384 c117 -210 213 -383 214 -383 1 0 -7 43 -18 95 l-19 95 27 29 28 29 -42
124 -42 123 -8 255 c-5 140 -8 255 -7 256 1 1 42 -76 92 -172 49 -96 93 -174
98 -174 4 0 118 95 253 211 244 210 244 210 300 216 47 5 57 10 65 30 5 13 9
28 9 32 0 4 -35 29 -77 56 l-77 49 -45 -51 c-35 -39 -77 -66 -182 -121 l-135
-72 -104 258 c-57 141 -108 262 -113 269 -5 7 -72 51 -149 99 -77 48 -142 93
-145 100 -6 17 25 193 42 229 7 17 15 51 18 78 4 41 2 47 -14 47 -23 0 -23 -2
0 87 l19 72 -100 86 -100 85 -108 -57 -108 -58 -26 -96 c-14 -53 -26 -105 -26
-116 0 -11 18 -64 40 -118 l40 -98 -26 -34 c-14 -18 -31 -33 -38 -33 -8 0 -46
14 -84 30 -59 25 -84 30 -152 30 l-81 0 -95 58 c-51 31 -94 60 -94 64 0 4 54
99 121 212 108 184 124 206 155 216 19 6 34 14 34 17 0 30 -56 233 -64 233 -6
-1 -36 -15 -67 -33z"/>
</g>
</svg>
