<?xml version="1.0" standalone="no"?>
<!DOCTYPE svg PUBLIC "-//W3C//DTD SVG 20010904//EN"
 "http://www.w3.org/TR/2001/REC-SVG-20010904/DTD/svg10.dtd">
<svg version="1.0" xmlns="http://www.w3.org/2000/svg"
 width="98.000000pt" height="146.000000pt" viewBox="0 0 98.000000 146.000000"
 preserveAspectRatio="xMidYMid meet">
<metadata>
Created by potrace 1.14, written by Peter Selinger 2001-2017
</metadata>
<g transform="translate(0.000000,146.000000) scale(0.100000,-0.100000)"
fill="#000000" stroke="none">
<path fill="#000000" stroke="none" d="M433 1376 c-45 -66 -68 -89 -103 -106
-25 -12 -55 -28 -67 -35 l-21 -14 24 -97 c14 -53 24 -98 22 -99 -2 -1 -34 -22
-73 -45 -38 -24 -95 -62 -125 -86 -49 -38 -57 -50 -73 -107 -18 -62 -18 -69
-1 -196 l17 -132 74 -61 c83 -69 112 -120 173 -303 l32 -97 47 44 c114 110
270 209 533 339 l86 43 -29 42 c-18 26 -37 78 -51 135 -22 87 -26 95 -87 161
-56 61 -66 78 -87 149 l-23 80 21 54 c19 50 25 56 74 76 49 20 53 25 48 48
-22 97 -26 104 -106 182 -86 83 -74 77 -220 105 -23 5 -32 -3 -85 -80z"/>
</g>
</svg>
