<?xml version="1.0" standalone="no"?>
<!DOCTYPE svg PUBLIC "-//W3C//DTD SVG 20010904//EN"
 "http://www.w3.org/TR/2001/REC-SVG-20010904/DTD/svg10.dtd">
<svg version="1.0" xmlns="http://www.w3.org/2000/svg"
 width="14.000000pt" height="63.000000pt" viewBox="0 0 14.000000 63.000000"
 preserveAspectRatio="xMidYMid meet">
<metadata>
Created by potrace 1.14, written by Peter Selinger 2001-2017
</metadata>
<g transform="translate(0.000000,63.000000) scale(0.100000,-0.100000)"
fill="#000000" stroke="none">
<path fill="#000000" stroke="none" d="M81 621 c-9 -6 -12 -19 -8 -40 6 -27 3
-32 -18 -37 -32 -8 -36 -31 -31 -189 3 -71 1 -136 -4 -145 -4 -8 -9 -52 -11
-97 -4 -75 -2 -83 14 -83 10 0 25 -7 34 -15 8 -9 17 -14 20 -11 3 2 4 104 4
225 -1 212 0 223 20 251 18 24 20 32 9 45 -10 12 -10 15 3 15 16 0 33 62 22
80 -8 12 -35 13 -54 1z"/>
</g>
</svg>
