<?xml version="1.0" standalone="no"?>
<!DOCTYPE svg PUBLIC "-//W3C//DTD SVG 20010904//EN"
 "http://www.w3.org/TR/2001/REC-SVG-20010904/DTD/svg10.dtd">
<svg version="1.0" xmlns="http://www.w3.org/2000/svg"
 width="29.000000pt" height="13.000000pt" viewBox="0 0 29.000000 13.000000"
 preserveAspectRatio="xMidYMid meet">
<metadata>
Created by potrace 1.14, written by Peter Selinger 2001-2017
</metadata>
<g transform="translate(0.000000,13.000000) scale(0.100000,-0.100000)"
fill="#000000" stroke="none">
<path fill="#000000" stroke="none" d="M22 82 c-12 -28 -22 -58 -22 -66 0 -25
36 -19 58 9 16 20 21 22 26 10 3 -9 18 -15 40 -15 32 0 36 3 42 35 3 19 9 35
13 35 14 0 31 -25 31 -46 0 -16 9 -25 30 -33 28 -9 32 -8 40 15 6 14 7 36 4
49 -7 27 -46 38 -170 50 l-71 7 -21 -50z"/>
</g>
</svg>
