<?xml version="1.0" standalone="no"?>
<!DOCTYPE svg PUBLIC "-//W3C//DTD SVG 20010904//EN"
 "http://www.w3.org/TR/2001/REC-SVG-20010904/DTD/svg10.dtd">
<svg version="1.0" xmlns="http://www.w3.org/2000/svg"
 width="19.000000pt" height="25.000000pt" viewBox="0 0 19.000000 25.000000"
 preserveAspectRatio="xMidYMid meet">
<metadata>
Created by potrace 1.14, written by Peter Selinger 2001-2017
</metadata>
<g transform="translate(0.000000,25.000000) scale(0.100000,-0.100000)"
fill="#000000" stroke="none">
<path fill="#000000" stroke="none" d="M44 242 c-19 -12 -26 -50 -16 -86 8
-29 7 -37 -9 -52 -19 -17 -19 -17 0 -31 11 -7 21 -26 23 -41 3 -26 6 -27 67
-30 74 -4 83 3 68 59 -7 29 -16 41 -33 45 -27 7 -28 12 -14 48 10 28 -2 75
-23 88 -15 10 -49 10 -63 0z"/>
</g>
</svg>
