<?xml version="1.0" standalone="no"?>
<!DOCTYPE svg PUBLIC "-//W3C//DTD SVG 20010904//EN"
 "http://www.w3.org/TR/2001/REC-SVG-20010904/DTD/svg10.dtd">
<svg version="1.0" xmlns="http://www.w3.org/2000/svg"
 width="130.000000pt" height="203.000000pt" viewBox="0 0 130.000000 203.000000"
 preserveAspectRatio="xMidYMid meet">
<metadata>
Created by potrace 1.14, written by Peter Selinger 2001-2017
</metadata>
<g transform="translate(0.000000,203.000000) scale(0.100000,-0.100000)"
fill="#000000" stroke="none">
<path fill="#000000" stroke="none" d="M426 2021 c-49 -6 -50 -7 -92 -76 -42
-67 -43 -74 -44 -150 0 -44 -4 -86 -9 -94 -5 -7 -44 -22 -87 -32 -68 -16 -84
-24 -123 -63 -39 -40 -45 -50 -43 -83 2 -21 8 -41 15 -45 7 -4 61 -5 120 -1
l108 6 -6 -37 -7 -37 63 25 c35 13 72 27 82 31 30 12 21 -40 -14 -80 -27 -30
-30 -40 -24 -74 5 -33 15 -44 61 -76 30 -21 54 -41 54 -45 0 -4 -18 -15 -40
-25 -39 -18 -45 -35 -11 -35 10 0 65 18 122 39 l104 40 43 -91 c23 -50 41 -93
39 -95 -3 -2 -69 10 -148 28 -126 27 -157 31 -243 26 l-98 -5 -43 -49 -43 -48
-7 -115 c-4 -63 -5 -195 -1 -294 7 -202 16 -186 -80 -148 l-51 21 -13 -39
c-11 -33 -10 -46 10 -104 12 -36 27 -72 34 -79 7 -7 44 -25 82 -39 227 -88
202 -82 252 -63 66 26 76 41 91 133 11 66 17 82 28 78 8 -4 25 -9 37 -12 12
-3 28 -14 35 -25 11 -18 8 -26 -23 -64 l-35 -42 32 -37 c25 -29 60 -48 167
-90 74 -30 138 -51 141 -48 7 8 59 185 59 201 0 6 -34 83 -75 172 -41 88 -75
161 -75 163 0 2 72 6 160 10 88 4 176 12 195 19 19 7 62 39 95 71 l62 59 10
134 c10 125 8 152 -22 401 l-32 267 -71 141 -71 142 -88 26 c-68 20 -108 40
-173 87 l-85 60 -40 -21 -41 -21 -69 55 c-73 59 -73 59 -174 47z"/>
</g>
</svg>
