<?xml version="1.0" standalone="no"?>
<!DOCTYPE svg PUBLIC "-//W3C//DTD SVG 20010904//EN"
 "http://www.w3.org/TR/2001/REC-SVG-20010904/DTD/svg10.dtd">
<svg version="1.0" xmlns="http://www.w3.org/2000/svg"
 width="38.000000pt" height="88.000000pt" viewBox="0 0 38.000000 88.000000"
 preserveAspectRatio="xMidYMid meet">
<metadata>
Created by potrace 1.14, written by Peter Selinger 2001-2017
</metadata>
<g transform="translate(0.000000,88.000000) scale(0.100000,-0.100000)"
fill="#000000" stroke="none">
<path fill="#000000" stroke="none" d="M139 858 c-7 -14 -2 -22 25 -41 l35
-23 -48 -29 c-47 -27 -49 -30 -76 -119 -16 -50 -38 -111 -50 -136 -19 -40 -21
-50 -10 -90 8 -33 8 -65 0 -120 -6 -44 -8 -108 -4 -155 4 -44 8 -90 8 -101 1
-17 11 -24 45 -34 56 -15 71 -8 52 28 -22 44 -29 141 -13 187 l14 40 11 -40
c5 -22 15 -65 22 -95 21 -99 11 -89 116 -105 35 -5 42 -4 46 13 4 15 -6 26
-42 48 l-47 28 -12 184 -12 184 29 46 c26 42 33 47 68 48 21 1 44 2 51 3 14 1
33 54 33 92 0 15 -5 50 -11 76 -9 43 -16 52 -65 83 -67 43 -150 57 -165 28z"/>
</g>
</svg>
