<?xml version="1.0" standalone="no"?>
<!DOCTYPE svg PUBLIC "-//W3C//DTD SVG 20010904//EN"
 "http://www.w3.org/TR/2001/REC-SVG-20010904/DTD/svg10.dtd">
<svg version="1.0" xmlns="http://www.w3.org/2000/svg"
 width="180.000000pt" height="388.000000pt" viewBox="0 0 180.000000 388.000000"
 preserveAspectRatio="xMidYMid meet">
<metadata>
Created by potrace 1.14, written by Peter Selinger 2001-2017
</metadata>
<g transform="translate(0.000000,388.000000) scale(0.100000,-0.100000)"
fill="#000000" stroke="none">
<path fill="#000000" stroke="none" d="M955 3848 c-115 -75 -125 -86 -125
-137 0 -25 7 -75 16 -111 21 -85 19 -188 -3 -212 -9 -10 -12 -18 -8 -18 9 0
-93 -67 -255 -170 -47 -30 -86 -54 -87 -55 -7 -3 -36 -386 -43 -560 l-8 -210
-52 -94 c-71 -128 -219 -350 -290 -436 -54 -66 -100 -142 -100 -164 0 -11 130
-301 140 -314 4 -4 36 -2 71 4 56 11 68 18 94 51 29 37 72 68 94 68 6 0 26
-30 45 -67 42 -84 89 -123 181 -151 95 -29 130 -65 145 -150 6 -35 8 -83 5
-107 -6 -38 -3 -48 21 -81 29 -37 29 -38 34 -218 5 -196 7 -204 80 -311 15
-22 32 -61 39 -86 11 -40 11 -51 -3 -77 -15 -30 -101 -112 -117 -112 -16 0 -9
-14 24 -52 l33 -36 144 -16 c80 -9 156 -17 169 -19 22 -2 26 6 52 88 16 50 29
113 29 140 0 28 7 88 14 135 8 47 22 184 31 305 9 121 25 257 36 303 24 107
25 282 3 386 l-17 75 34 53 c77 122 174 250 200 263 15 8 31 25 35 37 6 22 7
21 35 -9 l28 -32 24 42 c14 23 42 75 62 115 l38 72 -13 103 c-32 258 -87 510
-184 836 -53 179 -98 327 -101 329 -2 3 -46 25 -97 51 l-92 46 -15 69 c-13 64
-13 71 4 103 22 40 17 69 -36 208 -47 121 -69 139 -189 149 -73 6 -77 6 -125
-26z"/>
</g>
</svg>
