<?xml version="1.0" standalone="no"?>
<!DOCTYPE svg PUBLIC "-//W3C//DTD SVG 20010904//EN"
 "http://www.w3.org/TR/2001/REC-SVG-20010904/DTD/svg10.dtd">
<svg version="1.0" xmlns="http://www.w3.org/2000/svg"
 width="100.000000pt" height="249.000000pt" viewBox="0 0 100.000000 249.000000"
 preserveAspectRatio="xMidYMid meet">
<metadata>
Created by potrace 1.14, written by Peter Selinger 2001-2017
</metadata>
<g transform="translate(0.000000,249.000000) scale(0.100000,-0.100000)"
fill="#000000" stroke="none">
<path fill="#000000" stroke="none" d="M4 2343 c4 -82 43 -521 87 -978 l80
-830 69 -253 c39 -140 70 -261 70 -269 0 -15 35 -16 341 -10 188 3 343 8 346
11 3 2 -75 354 -172 782 l-177 777 16 223 16 223 -66 133 c-83 168 -139 230
-266 294 l-88 44 -131 0 -132 0 7 -147z"/>
</g>
</svg>
