<?xml version="1.0" standalone="no"?>
<!DOCTYPE svg PUBLIC "-//W3C//DTD SVG 20010904//EN"
 "http://www.w3.org/TR/2001/REC-SVG-20010904/DTD/svg10.dtd">
<svg version="1.0" xmlns="http://www.w3.org/2000/svg"
 width="9.000000pt" height="25.000000pt" viewBox="0 0 9.000000 25.000000"
 preserveAspectRatio="xMidYMid meet">
<metadata>
Created by potrace 1.14, written by Peter Selinger 2001-2017
</metadata>
<g transform="translate(0.000000,25.000000) scale(0.100000,-0.100000)"
fill="#000000" stroke="none">
<path fill="#000000" stroke="none" d="M22 234 c-8 -8 -10 -23 -7 -35 5 -15 4
-19 -4 -15 -15 10 -14 -6 4 -40 17 -33 19 -72 6 -93 -6 -9 -6 -22 0 -34 21
-39 45 17 49 116 1 9 5 15 11 12 12 -8 11 0 -2 46 -7 21 -16 36 -20 33 -5 -3
-9 2 -9 10 0 20 -11 20 -28 0z"/>
</g>
</svg>
