<?xml version="1.0" standalone="no"?>
<!DOCTYPE svg PUBLIC "-//W3C//DTD SVG 20010904//EN"
 "http://www.w3.org/TR/2001/REC-SVG-20010904/DTD/svg10.dtd">
<svg version="1.0" xmlns="http://www.w3.org/2000/svg"
 width="185.000000pt" height="217.000000pt" viewBox="0 0 185.000000 217.000000"
 preserveAspectRatio="xMidYMid meet">
<metadata>
Created by potrace 1.14, written by Peter Selinger 2001-2017
</metadata>
<g transform="translate(0.000000,217.000000) scale(0.100000,-0.100000)"
fill="#000000" stroke="none">
<path fill="#000000" stroke="none" d="M494 2142 l-62 -27 -46 -170 -47 -170
-171 -172 -172 -172 47 -373 c40 -316 47 -399 47 -544 l0 -171 79 -169 79
-169 348 3 c915 6 1254 14 1254 30 0 4 -52 41 -115 82 l-116 75 -139 186 -140
186 -342 794 c-187 437 -346 797 -352 801 -22 15 -93 6 -152 -20z"/>
</g>
</svg>
