<?xml version="1.0" standalone="no"?>
<!DOCTYPE svg PUBLIC "-//W3C//DTD SVG 20010904//EN"
 "http://www.w3.org/TR/2001/REC-SVG-20010904/DTD/svg10.dtd">
<svg version="1.0" xmlns="http://www.w3.org/2000/svg"
 width="46.000000pt" height="46.000000pt" viewBox="0 0 46.000000 46.000000"
 preserveAspectRatio="xMidYMid meet">
<metadata>
Created by potrace 1.14, written by Peter Selinger 2001-2017
</metadata>
<g transform="translate(0.000000,46.000000) scale(0.100000,-0.100000)"
fill="#000000" stroke="none">
<path fill="#000000" stroke="none" d="M125 414 c-13 -33 -16 -62 -12 -100 6
-54 5 -54 -27 -68 -31 -13 -86 -68 -86 -86 0 -10 39 -21 135 -40 33 -7 98 -32
144 -56 72 -37 86 -42 95 -29 10 13 16 12 49 -10 l37 -26 0 85 c0 129 -18 158
-117 192 l-51 18 -7 57 c-9 78 -37 109 -98 109 -43 0 -45 -1 -62 -46z"/>
</g>
</svg>
