<?xml version="1.0" standalone="no"?>
<!DOCTYPE svg PUBLIC "-//W3C//DTD SVG 20010904//EN"
 "http://www.w3.org/TR/2001/REC-SVG-20010904/DTD/svg10.dtd">
<svg version="1.0" xmlns="http://www.w3.org/2000/svg"
 width="16.000000pt" height="43.000000pt" viewBox="0 0 16.000000 43.000000"
 preserveAspectRatio="xMidYMid meet">
<metadata>
Created by potrace 1.14, written by Peter Selinger 2001-2017
</metadata>
<g transform="translate(0.000000,43.000000) scale(0.100000,-0.100000)"
fill="#000000" stroke="none">
<path fill="#000000" stroke="none" d="M87 424 c-4 -4 -7 -18 -7 -30 0 -15
-10 -28 -27 -38 -21 -10 -30 -26 -39 -65 -8 -38 -8 -53 0 -60 13 -11 14 -174
1 -203 -5 -14 -2 -18 14 -18 16 0 21 6 21 28 0 15 7 50 14 77 l14 50 1 -76 c1
-74 2 -77 27 -83 15 -4 28 -5 31 -3 2 2 -1 24 -6 48 -16 69 -13 138 10 211 21
67 22 69 3 89 -10 12 -19 33 -19 47 0 26 -23 41 -38 26z"/>
</g>
</svg>
