<?xml version="1.0" standalone="no"?>
<!DOCTYPE svg PUBLIC "-//W3C//DTD SVG 20010904//EN"
 "http://www.w3.org/TR/2001/REC-SVG-20010904/DTD/svg10.dtd">
<svg version="1.0" xmlns="http://www.w3.org/2000/svg"
 width="13.000000pt" height="27.000000pt" viewBox="0 0 13.000000 27.000000"
 preserveAspectRatio="xMidYMid meet">
<metadata>
Created by potrace 1.14, written by Peter Selinger 2001-2017
</metadata>
<g transform="translate(0.000000,27.000000) scale(0.100000,-0.100000)"
fill="#000000" stroke="none">
<path fill="#000000" stroke="none" d="M63 263 c-7 -2 -13 -15 -13 -28 0 -13
-6 -28 -13 -32 -17 -11 -34 -54 -30 -75 2 -9 15 -19 29 -22 28 -7 30 -20 9
-60 -20 -38 -19 -46 5 -46 31 0 47 43 32 84 -19 52 -16 76 11 76 33 0 36 6 25
43 -20 61 -29 71 -55 60z"/>
</g>
</svg>
