<?xml version="1.0" standalone="no"?>
<!DOCTYPE svg PUBLIC "-//W3C//DTD SVG 20010904//EN"
 "http://www.w3.org/TR/2001/REC-SVG-20010904/DTD/svg10.dtd">
<svg version="1.0" xmlns="http://www.w3.org/2000/svg"
 width="200.000000pt" height="256.000000pt" viewBox="0 0 200.000000 256.000000"
 preserveAspectRatio="xMidYMid meet">
<metadata>
Created by potrace 1.14, written by Peter Selinger 2001-2017
</metadata>
<g transform="translate(0.000000,256.000000) scale(0.100000,-0.100000)"
fill="#000000" stroke="none">
<path fill="#000000" stroke="none" d="M993 2535 c-46 -36 -151 -179 -180
-244 -23 -53 -24 -65 -8 -131 7 -33 -8 -58 -27 -42 -27 22 -94 -6 -139 -57
-60 -68 -70 -91 -58 -135 10 -34 12 -36 54 -36 38 0 52 -6 86 -37 l41 -37 -50
-25 c-27 -14 -108 -64 -180 -111 -104 -67 -134 -92 -147 -120 -13 -29 -27 -40
-76 -59 -32 -13 -64 -30 -70 -37 -6 -8 -42 -36 -79 -64 -61 -45 -69 -55 -83
-105 l-16 -56 37 -68 c28 -53 47 -74 77 -91 l40 -22 212 26 c116 14 220 23
230 19 31 -12 82 -65 158 -164 l73 -96 -71 -93 c-53 -68 -81 -97 -105 -105
-18 -6 -31 -13 -27 -16 3 -3 -36 -9 -87 -12 -51 -3 -95 -2 -98 3 -3 4 -52 16
-110 25 l-105 17 -137 -57 c-87 -36 -138 -63 -141 -73 -2 -10 -1 -53 1 -97 4
-68 11 -93 48 -168 23 -48 44 -92 46 -99 4 -12 197 -47 266 -48 32 0 42 4 42
16 0 9 7 31 15 49 15 30 18 32 53 25 20 -4 66 -21 102 -37 240 -111 360 -162
391 -166 36 -5 37 -4 111 96 42 56 92 132 112 168 l36 66 -35 46 -35 45 73 30
c39 17 122 49 182 72 61 24 184 73 275 110 91 37 181 71 200 75 19 4 52 11 73
16 l37 10 0 90 c0 73 -8 123 -47 277 -46 186 -47 188 -136 344 -77 137 -106
176 -225 310 -76 85 -152 171 -169 193 l-33 40 0 128 c0 97 -5 148 -21 213
l-22 85 -76 52 c-129 88 -220 108 -278 62z"/>
</g>
</svg>
