<?xml version="1.0" standalone="no"?>
<!DOCTYPE svg PUBLIC "-//W3C//DTD SVG 20010904//EN"
 "http://www.w3.org/TR/2001/REC-SVG-20010904/DTD/svg10.dtd">
<svg version="1.0" xmlns="http://www.w3.org/2000/svg"
 width="75.000000pt" height="327.000000pt" viewBox="0 0 75.000000 327.000000"
 preserveAspectRatio="xMidYMid meet">
<metadata>
Created by potrace 1.14, written by Peter Selinger 2001-2017
</metadata>
<g transform="translate(0.000000,327.000000) scale(0.100000,-0.100000)"
fill="#000000" stroke="none">
<path fill="#000000" stroke="none" d="M726 3247 c-22 -32 -170 -151 -236
-190 -85 -49 -116 -91 -165 -225 -40 -110 -45 -132 -45 -208 0 -65 -5 -94 -20
-124 -42 -83 -70 -176 -95 -316 -30 -171 -28 -154 -10 -154 23 0 18 -14 -14
-38 -43 -31 -54 -112 -52 -356 2 -195 3 -200 33 -280 22 -58 31 -95 29 -131
-3 -70 -59 -438 -78 -510 -9 -33 -28 -142 -43 -241 l-27 -182 340 -147 c273
-119 341 -145 348 -134 11 18 12 48 9 270 -2 186 -2 186 24 226 l26 39 -2
1365 c-3 1340 -3 1364 -22 1336z"/>
</g>
</svg>
