<?xml version="1.0" standalone="no"?>
<!DOCTYPE svg PUBLIC "-//W3C//DTD SVG 20010904//EN"
 "http://www.w3.org/TR/2001/REC-SVG-20010904/DTD/svg10.dtd">
<svg version="1.0" xmlns="http://www.w3.org/2000/svg"
 width="63.000000pt" height="247.000000pt" viewBox="0 0 63.000000 247.000000"
 preserveAspectRatio="xMidYMid meet">
<metadata>
Created by potrace 1.14, written by Peter Selinger 2001-2017
</metadata>
<g transform="translate(0.000000,247.000000) scale(0.100000,-0.100000)"
fill="#000000" stroke="none">
<path fill="#000000" stroke="none" d="M335 2445 c-47 -23 -53 -31 -95 -115
-25 -50 -87 -164 -139 -252 l-93 -162 7 -139 c4 -81 2 -225 -5 -350 l-12 -212
42 -90 c23 -49 64 -144 91 -209 l49 -119 -51 -136 -51 -136 10 -160 11 -160
-42 -42 c-22 -24 -38 -45 -35 -48 6 -6 142 -45 157 -45 6 0 14 19 20 43 9 37
10 32 5 -35 l-5 -77 63 5 c35 2 124 9 198 14 122 8 136 11 151 32 10 12 16 25
14 28 -2 4 -56 20 -120 36 -99 24 -115 31 -116 49 0 11 -6 97 -13 190 l-12
170 67 202 c59 178 73 210 115 263 l47 60 -17 107 c-10 60 -20 117 -23 129 -3
16 2 24 25 33 l29 12 -17 111 c-15 104 -15 114 2 191 9 45 18 87 18 93 0 12
-131 178 -188 237 -36 37 -36 37 -11 37 25 0 89 55 89 76 0 6 9 19 20 29 15
13 20 31 20 67 0 27 7 62 15 77 10 20 12 44 8 79 -7 61 -6 60 -66 105 -58 44
-90 46 -162 12z"/>
</g>
</svg>
