<?xml version="1.0" standalone="no"?>
<!DOCTYPE svg PUBLIC "-//W3C//DTD SVG 20010904//EN"
 "http://www.w3.org/TR/2001/REC-SVG-20010904/DTD/svg10.dtd">
<svg version="1.0" xmlns="http://www.w3.org/2000/svg"
 width="15.000000pt" height="28.000000pt" viewBox="0 0 15.000000 28.000000"
 preserveAspectRatio="xMidYMid meet">
<metadata>
Created by potrace 1.14, written by Peter Selinger 2001-2017
</metadata>
<g transform="translate(0.000000,28.000000) scale(0.100000,-0.100000)"
fill="#000000" stroke="none">
<path fill="#000000" stroke="none" d="M96 238 c-19 -27 -31 -36 -34 -27 -10
39 -25 56 -43 52 -21 -6 -24 -37 -12 -180 6 -84 16 -100 43 -68 11 14 14 14
24 0 13 -17 60 -9 53 9 -3 6 -14 34 -26 63 l-20 52 34 26 c30 24 33 30 28 63
-8 54 -15 55 -47 10z"/>
</g>
</svg>
