<?xml version="1.0" standalone="no"?>
<!DOCTYPE svg PUBLIC "-//W3C//DTD SVG 20010904//EN"
 "http://www.w3.org/TR/2001/REC-SVG-20010904/DTD/svg10.dtd">
<svg version="1.0" xmlns="http://www.w3.org/2000/svg"
 width="43.000000pt" height="19.000000pt" viewBox="0 0 43.000000 19.000000"
 preserveAspectRatio="xMidYMid meet">
<metadata>
Created by potrace 1.14, written by Peter Selinger 2001-2017
</metadata>
<g transform="translate(0.000000,19.000000) scale(0.100000,-0.100000)"
fill="#000000" stroke="none">
<path fill="#000000" stroke="none" d="M17 172 c-40 -44 -8 -102 56 -102 20 0
39 -4 42 -10 3 -5 24 -10 45 -10 21 0 42 -4 45 -10 8 -13 72 -13 80 0 4 6 15
0 27 -15 16 -21 27 -25 56 -23 78 7 81 109 4 116 -19 2 -39 -2 -46 -7 -10 -9
-17 -5 -30 14 -13 20 -25 25 -56 25 -21 0 -42 5 -45 10 -3 6 -24 10 -45 10
-21 0 -42 5 -45 10 -10 17 -71 11 -88 -8z"/>
</g>
</svg>
