<?xml version="1.0" standalone="no"?>
<!DOCTYPE svg PUBLIC "-//W3C//DTD SVG 20010904//EN"
 "http://www.w3.org/TR/2001/REC-SVG-20010904/DTD/svg10.dtd">
<svg version="1.0" xmlns="http://www.w3.org/2000/svg"
 width="50.000000pt" height="76.000000pt" viewBox="0 0 50.000000 76.000000"
 preserveAspectRatio="xMidYMid meet">
<metadata>
Created by potrace 1.14, written by Peter Selinger 2001-2017
</metadata>
<g transform="translate(0.000000,76.000000) scale(0.100000,-0.100000)"
fill="#000000" stroke="none">
<path fill="#000000" stroke="none" d="M290 739 c-14 -25 -6 -63 21 -100 l19
-28 -22 -6 c-38 -12 -66 -44 -80 -92 -8 -29 -22 -52 -38 -61 -35 -22 -70 -54
-70 -64 0 -5 16 -16 35 -24 52 -21 46 -65 -12 -89 -47 -20 -47 -20 -87 16 -20
17 -40 27 -46 24 -15 -9 -3 -82 18 -115 10 -15 18 -59 21 -114 l6 -90 28 56
c34 67 52 85 91 90 25 3 32 10 47 56 11 31 32 66 53 86 33 30 35 35 26 67 -14
47 -12 112 3 133 7 9 29 21 50 26 35 7 39 6 52 -20 8 -16 15 -55 15 -87 0 -54
3 -60 33 -81 l32 -22 6 62 c4 35 7 98 8 140 l1 76 -38 34 c-32 27 -40 42 -45
81 -4 27 -9 53 -13 58 -3 5 -27 9 -54 9 -40 0 -51 -4 -60 -21z"/>
</g>
</svg>
