<?xml version="1.0" standalone="no"?>
<!DOCTYPE svg PUBLIC "-//W3C//DTD SVG 20010904//EN"
 "http://www.w3.org/TR/2001/REC-SVG-20010904/DTD/svg10.dtd">
<svg version="1.0" xmlns="http://www.w3.org/2000/svg"
 width="9.000000pt" height="79.000000pt" viewBox="0 0 9.000000 79.000000"
 preserveAspectRatio="xMidYMid meet">
<metadata>
Created by potrace 1.14, written by Peter Selinger 2001-2017
</metadata>
<g transform="translate(0.000000,79.000000) scale(0.100000,-0.100000)"
fill="#000000" stroke="none">
<path fill="#000000" stroke="none" d="M7 733 c1 -32 4 -87 6 -123 2 -55 7
-72 32 -103 17 -20 33 -37 38 -37 4 0 7 72 7 160 l0 160 -43 0 -43 0 3 -57z"/>
<path fill="#000000" stroke="none" d="M50 284 c-13 -32 -12 -87 3 -193 7 -50
17 -86 24 -89 10 -3 13 32 13 152 0 133 -2 156 -15 156 -9 0 -20 -12 -25 -26z"/>
</g>
</svg>
