<?xml version="1.0" standalone="no"?>
<!DOCTYPE svg PUBLIC "-//W3C//DTD SVG 20010904//EN"
 "http://www.w3.org/TR/2001/REC-SVG-20010904/DTD/svg10.dtd">
<svg version="1.0" xmlns="http://www.w3.org/2000/svg"
 width="25.000000pt" height="67.000000pt" viewBox="0 0 25.000000 67.000000"
 preserveAspectRatio="xMidYMid meet">
<metadata>
Created by potrace 1.14, written by Peter Selinger 2001-2017
</metadata>
<g transform="translate(0.000000,67.000000) scale(0.100000,-0.100000)"
fill="#000000" stroke="none">
<path fill="#000000" stroke="none" d="M148 658 c-31 -8 -38 -15 -38 -34 0
-14 -10 -30 -23 -39 -22 -14 -24 -23 -30 -148 -4 -72 -16 -175 -27 -227 -37
-172 -39 -155 16 -169 27 -7 64 -20 82 -28 19 -8 35 -13 36 -11 2 1 22 31 44
65 39 58 42 67 42 131 0 38 -7 102 -16 141 l-16 71 -28 -30 c-34 -36 -62 -31
-77 13 -12 35 -12 181 0 193 4 4 16 -1 28 -12 20 -18 22 -18 34 -1 6 9 17 17
24 17 6 0 11 17 11 40 0 43 -2 44 -62 28z"/>
<path fill="#ffffff" stroke="none" d="M170 34 c0 -9 -5 -14 -12 -12 -18 6
-21 28 -4 28 9 0 16 -7 16 -16z"/>
</g>
</svg>
