<?xml version="1.0" standalone="no"?>
<!DOCTYPE svg PUBLIC "-//W3C//DTD SVG 20010904//EN"
 "http://www.w3.org/TR/2001/REC-SVG-20010904/DTD/svg10.dtd">
<svg version="1.0" xmlns="http://www.w3.org/2000/svg"
 width="253.000000pt" height="321.000000pt" viewBox="0 0 253.000000 321.000000"
 preserveAspectRatio="xMidYMid meet">
<metadata>
Created by potrace 1.14, written by Peter Selinger 2001-2017
</metadata>
<g transform="translate(0.000000,321.000000) scale(0.100000,-0.100000)"
fill="#000000" stroke="none">
<path fill="#000000" stroke="none" d="M274 3153 c-27 -32 -55 -65 -62 -74
-20 -26 1 -212 33 -290 14 -34 25 -68 25 -74 0 -6 -17 -19 -37 -29 -92 -43
-144 -82 -170 -126 -14 -25 -34 -59 -45 -77 l-19 -32 80 -84 81 -84 0 -124 c0
-137 19 -279 51 -379 27 -83 92 -205 132 -247 48 -51 69 -44 102 29 l28 63
-42 77 c-40 75 -41 80 -36 145 11 127 13 128 55 18 30 -81 39 -119 45 -201 6
-93 4 -113 -26 -247 l-33 -145 27 -123 c22 -101 27 -149 27 -260 0 -106 5
-163 25 -259 14 -68 25 -124 25 -126 0 -8 210 -4 210 4 0 4 7 52 15 107 12 86
12 113 0 190 -7 50 -16 133 -20 187 -7 95 -6 97 40 238 27 85 70 188 106 256
57 107 69 121 189 236 l128 123 27 94 26 95 -37 80 c-21 45 -71 134 -111 199
-41 65 -90 157 -111 204 l-37 86 -155 98 -155 99 -6 107 c-4 60 -14 141 -24
181 -16 66 -21 76 -56 98 -34 21 -50 24 -142 24 l-104 0 -49 -57z"/>
<path fill="#000000" stroke="none" d="M2271 641 l-23 -129 51 -76 52 -76 58
0 c57 0 58 1 90 45 32 45 32 46 20 99 -11 50 -21 63 -118 160 l-106 106 -24
-129z"/>
<path fill="#000000" stroke="none" d="M765 261 c-48 -13 -84 -36 -178 -110
-65 -52 -116 -95 -114 -97 2 -2 54 -15 117 -28 l113 -25 53 27 c40 21 66 45
109 102 l55 74 -42 38 c-24 20 -45 37 -48 37 -3 0 -32 -8 -65 -18z"/>
</g>
</svg>
