<?xml version="1.0" standalone="no"?>
<!DOCTYPE svg PUBLIC "-//W3C//DTD SVG 20010904//EN"
 "http://www.w3.org/TR/2001/REC-SVG-20010904/DTD/svg10.dtd">
<svg version="1.0" xmlns="http://www.w3.org/2000/svg"
 width="49.000000pt" height="99.000000pt" viewBox="0 0 49.000000 99.000000"
 preserveAspectRatio="xMidYMid meet">
<metadata>
Created by potrace 1.14, written by Peter Selinger 2001-2017
</metadata>
<g transform="translate(0.000000,99.000000) scale(0.100000,-0.100000)"
fill="#000000" stroke="none">
<path fill="#000000" stroke="none" d="M58 979 c-23 -9 -27 -17 -30 -62 -5
-66 7 -95 41 -99 25 -3 26 -6 29 -69 3 -78 -12 -101 -52 -79 -26 13 -46 7 -46
-15 0 -36 78 -46 117 -15 34 26 38 25 53 -10 17 -41 -4 -71 -67 -95 -26 -10
-51 -23 -55 -29 -16 -23 -7 -36 22 -36 23 0 33 7 45 30 11 22 23 30 41 30 l26
0 -34 -62 c-57 -105 -66 -142 -70 -277 l-3 -123 -40 -34 -40 -34 73 0 72 0 0
64 c0 36 5 68 10 71 11 7 12 67 1 105 -10 32 32 116 88 179 39 43 40 44 45 20
2 -13 7 -56 10 -96 5 -74 26 -128 74 -191 l25 -33 -21 -45 c-12 -24 -22 -46
-22 -48 0 -2 32 6 70 17 39 12 70 25 70 30 0 5 -10 25 -21 44 -30 48 -98 190
-94 195 4 4 26 171 27 208 1 40 -52 148 -114 232 -32 43 -62 78 -67 78 -5 0
-17 8 -26 17 -16 15 -16 17 4 32 18 14 19 19 8 40 -25 50 -97 79 -149 60z"/>
</g>
</svg>
