<?xml version="1.0" standalone="no"?>
<!DOCTYPE svg PUBLIC "-//W3C//DTD SVG 20010904//EN"
 "http://www.w3.org/TR/2001/REC-SVG-20010904/DTD/svg10.dtd">
<svg version="1.0" xmlns="http://www.w3.org/2000/svg"
 width="167.000000pt" height="344.000000pt" viewBox="0 0 167.000000 344.000000"
 preserveAspectRatio="xMidYMid meet">
<metadata>
Created by potrace 1.14, written by Peter Selinger 2001-2017
</metadata>
<g transform="translate(0.000000,344.000000) scale(0.100000,-0.100000)"
fill="#000000" stroke="none">
<path fill="#000000" stroke="none" d="M21 3343 c1 -54 -3 -154 -8 -223 -9
-112 -7 -138 13 -251 28 -156 40 -181 98 -205 25 -10 47 -27 50 -36 2 -10 11
-18 20 -18 19 0 19 7 1 -110 -20 -127 -19 -385 0 -469 l15 -64 -45 -120 c-25
-65 -45 -125 -45 -131 0 -7 29 -36 64 -65 l64 -53 16 -126 c9 -70 20 -154 24
-187 4 -38 0 -131 -12 -257 -19 -196 -19 -198 0 -305 l20 -108 -48 -98 -49
-99 15 -79 c12 -62 31 -110 83 -209 l68 -130 55 0 55 0 54 153 c30 83 62 169
73 189 20 42 26 206 8 224 -6 6 -28 43 -49 83 l-37 71 27 168 c15 92 43 243
63 335 19 93 38 195 42 228 4 33 11 62 16 65 5 3 47 16 94 28 l85 23 -6 -56
c-3 -31 -10 -133 -15 -228 -11 -171 -11 -173 16 -260 23 -80 26 -102 24 -247
l-1 -158 -40 -64 c-34 -53 -47 -66 -80 -76 -43 -12 -53 -24 -63 -75 -6 -27 1
-44 45 -115 28 -45 88 -128 132 -183 44 -55 82 -102 84 -104 1 -2 27 1 57 8
l54 12 32 122 c21 80 51 159 86 229 l54 107 -14 68 c-8 37 -17 138 -21 223
-11 269 -25 543 -30 596 l-6 50 51 24 c56 26 61 35 26 44 -26 6 -36 31 -36 91
0 39 2 41 70 79 80 45 79 41 60 193 -10 81 -10 81 25 162 57 128 86 293 90
501 4 188 12 230 75 415 36 104 150 488 150 504 0 8 -239 11 -825 11 l-826 0
2 -97z"/>
</g>
</svg>
