<?xml version="1.0" standalone="no"?>
<!DOCTYPE svg PUBLIC "-//W3C//DTD SVG 20010904//EN"
 "http://www.w3.org/TR/2001/REC-SVG-20010904/DTD/svg10.dtd">
<svg version="1.0" xmlns="http://www.w3.org/2000/svg"
 width="27.000000pt" height="103.000000pt" viewBox="0 0 27.000000 103.000000"
 preserveAspectRatio="xMidYMid meet">
<metadata>
Created by potrace 1.14, written by Peter Selinger 2001-2017
</metadata>
<g transform="translate(0.000000,103.000000) scale(0.100000,-0.100000)"
fill="#000000" stroke="none">
<path fill="#000000" stroke="none" d="M140 988 c-11 -24 -47 -172 -80 -329
l-60 -286 30 -72 c16 -39 37 -113 46 -164 9 -51 25 -102 35 -115 l18 -23 10
38 c60 228 81 348 116 645 15 125 15 139 -2 222 -16 80 -21 91 -48 108 -16 10
-33 18 -38 18 -4 0 -16 -19 -27 -42z"/>
</g>
</svg>
