<?xml version="1.0" standalone="no"?>
<!DOCTYPE svg PUBLIC "-//W3C//DTD SVG 20010904//EN"
 "http://www.w3.org/TR/2001/REC-SVG-20010904/DTD/svg10.dtd">
<svg version="1.0" xmlns="http://www.w3.org/2000/svg"
 width="36.000000pt" height="18.000000pt" viewBox="0 0 36.000000 18.000000"
 preserveAspectRatio="xMidYMid meet">
<metadata>
Created by potrace 1.14, written by Peter Selinger 2001-2017
</metadata>
<g transform="translate(0.000000,18.000000) scale(0.100000,-0.100000)"
fill="#000000" stroke="none">
<path fill="#000000" stroke="none" d="M130 149 c-25 -16 -52 -35 -60 -42 -8
-6 -28 -18 -43 -26 -15 -8 -27 -20 -27 -28 0 -7 1 -13 3 -13 1 0 54 -9 117
-20 170 -29 252 -25 237 12 -3 8 -36 37 -74 63 -37 27 -74 57 -81 67 -17 23
-18 22 -72 -13z"/>
</g>
</svg>
