<?xml version="1.0" standalone="no"?>
<!DOCTYPE svg PUBLIC "-//W3C//DTD SVG 20010904//EN"
 "http://www.w3.org/TR/2001/REC-SVG-20010904/DTD/svg10.dtd">
<svg version="1.0" xmlns="http://www.w3.org/2000/svg"
 width="35.000000pt" height="75.000000pt" viewBox="0 0 35.000000 75.000000"
 preserveAspectRatio="xMidYMid meet">
<metadata>
Created by potrace 1.14, written by Peter Selinger 2001-2017
</metadata>
<g transform="translate(0.000000,75.000000) scale(0.100000,-0.100000)"
fill="#000000" stroke="none">
<path fill="#000000" stroke="none" d="M222 727 c-17 -18 -22 -36 -22 -78 l0
-55 -100 -69 c-55 -38 -100 -70 -100 -71 0 -1 13 -12 30 -24 35 -25 48 -20
123 42 39 32 48 36 53 23 4 -9 -4 -81 -17 -160 l-23 -144 26 -21 c19 -14 28
-33 33 -68 9 -69 21 -82 29 -31 6 39 8 41 21 23 8 -10 15 -36 15 -56 0 -51 15
-48 36 7 14 38 17 82 18 253 l1 207 -35 122 c-38 132 -48 143 -88 100z"/>
</g>
</svg>
