<?xml version="1.0" standalone="no"?>
<!DOCTYPE svg PUBLIC "-//W3C//DTD SVG 20010904//EN"
 "http://www.w3.org/TR/2001/REC-SVG-20010904/DTD/svg10.dtd">
<svg version="1.0" xmlns="http://www.w3.org/2000/svg"
 width="144.000000pt" height="174.000000pt" viewBox="0 0 144.000000 174.000000"
 preserveAspectRatio="xMidYMid meet">
<metadata>
Created by potrace 1.14, written by Peter Selinger 2001-2017
</metadata>
<g transform="translate(0.000000,174.000000) scale(0.100000,-0.100000)"
fill="#000000" stroke="none">
<path fill="#000000" stroke="none" d="M1025 1729 c-114 -27 -109 -23 -141
-100 -25 -60 -43 -84 -122 -160 l-93 -90 -40 -193 c-35 -167 -49 -214 -108
-355 l-69 -163 -191 -224 c-134 -157 -201 -244 -226 -294 -20 -39 -33 -76 -29
-82 6 -10 87 -48 132 -62 20 -7 22 -4 22 30 0 33 11 48 98 143 53 58 167 177
252 265 149 152 159 160 260 211 l105 53 98 -67 c53 -37 99 -70 101 -72 3 -2
24 -125 47 -272 l43 -267 32 -6 c23 -4 65 4 141 28 l108 34 -48 30 c-26 16
-50 38 -52 49 -2 11 -15 127 -29 257 l-25 237 -111 148 -111 148 65 3 c36 2
75 -2 86 -8 20 -10 20 -8 20 125 l0 135 -61 122 -61 121 40 87 39 86 -46 56
c-48 60 -57 63 -126 47z"/>
<path fill="#000000" stroke="none" d="M1315 987 c-4 -19 -5 -47 -3 -63 3 -26
5 -23 24 28 18 48 19 58 7 62 -22 9 -22 9 -28 -27z"/>
</g>
</svg>
