<?xml version="1.0" standalone="no"?>
<!DOCTYPE svg PUBLIC "-//W3C//DTD SVG 20010904//EN"
 "http://www.w3.org/TR/2001/REC-SVG-20010904/DTD/svg10.dtd">
<svg version="1.0" xmlns="http://www.w3.org/2000/svg"
 width="32.000000pt" height="44.000000pt" viewBox="0 0 32.000000 44.000000"
 preserveAspectRatio="xMidYMid meet">
<metadata>
Created by potrace 1.14, written by Peter Selinger 2001-2017
</metadata>
<g transform="translate(0.000000,44.000000) scale(0.100000,-0.100000)"
fill="#000000" stroke="none">
<path fill="#000000" stroke="none" d="M52 423 c-5 -10 -15 -42 -21 -71 -6
-30 -16 -63 -22 -74 -7 -13 -7 -18 -1 -14 6 3 13 0 16 -6 4 -7 4 -3 2 9 -2 13
0 25 4 28 5 3 9 -41 9 -97 -1 -115 7 -146 46 -176 37 -29 51 -19 58 40 4 28 8
53 11 55 2 3 39 -3 81 -12 42 -10 78 -15 81 -12 3 2 -11 15 -31 27 -20 13 -53
44 -74 70 -34 43 -39 56 -50 149 l-13 101 -44 0 c-31 0 -46 -5 -52 -17z"/>
</g>
</svg>
