<?xml version="1.0" standalone="no"?>
<!DOCTYPE svg PUBLIC "-//W3C//DTD SVG 20010904//EN"
 "http://www.w3.org/TR/2001/REC-SVG-20010904/DTD/svg10.dtd">
<svg version="1.0" xmlns="http://www.w3.org/2000/svg"
 width="346.000000pt" height="425.000000pt" viewBox="0 0 346.000000 425.000000"
 preserveAspectRatio="xMidYMid meet">
<metadata>
Created by potrace 1.14, written by Peter Selinger 2001-2017
</metadata>
<g transform="translate(0.000000,425.000000) scale(0.100000,-0.100000)"
fill="#000000" stroke="none">
<path fill="#000000" stroke="none" d="M7 2659 c-4 -876 -7 -1833 -7 -2127 l0
-535 293 8 c253 6 294 9 308 23 9 10 55 135 102 279 l87 262 -61 163 -60 163
-11 235 c-11 224 -11 238 8 284 l19 48 70 -7 c99 -9 181 -30 177 -45 -1 -7
-14 -27 -28 -46 -24 -31 -25 -34 -9 -57 14 -21 27 -26 88 -32 40 -4 101 -18
137 -31 75 -27 337 -54 525 -54 92 0 135 -5 227 -29 87 -22 147 -30 263 -35
l150 -7 104 45 c57 26 107 46 111 46 5 0 37 -17 73 -37 l64 -37 46 -150 c34
-111 227 -947 227 -982 0 -2 78 -4 174 -4 l174 0 45 103 c24 56 69 179 100
272 l55 170 -80 300 c-84 317 -107 441 -108 567 0 58 -6 94 -26 146 -25 68
-27 70 -71 81 l-44 12 -65 -51 -64 -50 -43 21 c-23 12 -89 35 -147 51 -147 41
-257 111 -503 321 -196 167 -197 169 -248 263 -28 52 -54 94 -57 94 -4 0 -78
-14 -166 -30 -134 -25 -183 -30 -317 -30 l-158 0 -171 -54 c-93 -29 -170 -52
-170 -49 0 2 31 36 68 76 37 40 106 131 152 204 l85 132 80 32 c44 18 81 33
83 34 1 1 -32 60 -74 131 -74 126 -78 130 -157 183 -80 53 -85 55 -187 67
-117 13 -187 36 -276 90 -43 26 -93 44 -184 65 -163 38 -166 40 -173 84 -9 54
36 290 71 371 16 38 39 119 51 179 14 72 30 122 46 145 13 19 29 56 35 83 9
43 8 51 -15 87 -14 22 -25 50 -25 62 0 13 -3 33 -6 44 -6 24 19 22 -430 40
l-151 6 -6 -1593z"/>
</g>
</svg>
