<?xml version="1.0" standalone="no"?>
<!DOCTYPE svg PUBLIC "-//W3C//DTD SVG 20010904//EN"
 "http://www.w3.org/TR/2001/REC-SVG-20010904/DTD/svg10.dtd">
<svg version="1.0" xmlns="http://www.w3.org/2000/svg"
 width="56.000000pt" height="82.000000pt" viewBox="0 0 56.000000 82.000000"
 preserveAspectRatio="xMidYMid meet">
<metadata>
Created by potrace 1.14, written by Peter Selinger 2001-2017
</metadata>
<g transform="translate(0.000000,82.000000) scale(0.100000,-0.100000)"
fill="#000000" stroke="none">
<path fill="#000000" stroke="none" d="M362 798 c-32 -20 -33 -23 -31 -76 l3
-55 -45 -21 c-68 -32 -122 -75 -170 -138 -25 -33 -57 -62 -76 -69 -68 -26 -55
-136 18 -162 11 -4 19 -22 23 -54 3 -26 8 -66 11 -88 5 -38 4 -41 -35 -69 -23
-15 -39 -33 -37 -39 4 -13 62 -26 123 -26 32 -1 46 5 69 29 l29 31 -17 48
c-10 30 -15 61 -11 80 l7 32 19 -31 c18 -30 21 -32 74 -28 59 3 57 5 66 -57 8
-53 87 -15 138 66 30 46 30 46 33 218 2 158 1 173 -16 189 -11 9 -30 36 -44
60 -22 37 -24 50 -19 95 l7 53 -36 17 c-44 21 -43 21 -83 -5z"/>
</g>
</svg>
