<?xml version="1.0" standalone="no"?>
<!DOCTYPE svg PUBLIC "-//W3C//DTD SVG 20010904//EN"
 "http://www.w3.org/TR/2001/REC-SVG-20010904/DTD/svg10.dtd">
<svg version="1.0" xmlns="http://www.w3.org/2000/svg"
 width="13.000000pt" height="15.000000pt" viewBox="0 0 13.000000 15.000000"
 preserveAspectRatio="xMidYMid meet">
<metadata>
Created by potrace 1.14, written by Peter Selinger 2001-2017
</metadata>
<g transform="translate(0.000000,15.000000) scale(0.100000,-0.100000)"
fill="#000000" stroke="none">
<path fill="#000000" stroke="none" d="M53 138 c1 -8 -10 -14 -26 -16 -28 -3
-28 -4 -11 -23 15 -17 16 -24 6 -39 -7 -11 -12 -27 -12 -37 0 -13 6 -11 30 12
24 23 32 26 45 15 8 -7 15 -21 15 -31 0 -11 5 -19 10 -19 19 0 22 27 7 57 -8
15 -12 33 -10 40 5 14 -27 53 -44 53 -7 0 -12 -6 -10 -12z"/>
</g>
</svg>
