<?xml version="1.0" standalone="no"?>
<!DOCTYPE svg PUBLIC "-//W3C//DTD SVG 20010904//EN"
 "http://www.w3.org/TR/2001/REC-SVG-20010904/DTD/svg10.dtd">
<svg version="1.0" xmlns="http://www.w3.org/2000/svg"
 width="21.000000pt" height="73.000000pt" viewBox="0 0 21.000000 73.000000"
 preserveAspectRatio="xMidYMid meet">
<metadata>
Created by potrace 1.14, written by Peter Selinger 2001-2017
</metadata>
<g transform="translate(0.000000,73.000000) scale(0.100000,-0.100000)"
fill="#000000" stroke="none">
<path fill="#000000" stroke="none" d="M95 722 c-11 -4 -31 -14 -43 -23 -20
-15 -21 -19 -11 -43 10 -21 9 -29 -4 -43 -35 -39 -36 -63 -11 -243 13 -96 24
-197 24 -223 0 -65 50 -163 71 -139 12 14 31 163 22 175 -14 18 38 255 55 250
6 -3 12 -1 12 2 0 24 -43 186 -51 191 -5 3 -9 27 -9 55 0 52 -6 56 -55 41z"/>
</g>
</svg>
