<?xml version="1.0" standalone="no"?>
<!DOCTYPE svg PUBLIC "-//W3C//DTD SVG 20010904//EN"
 "http://www.w3.org/TR/2001/REC-SVG-20010904/DTD/svg10.dtd">
<svg version="1.0" xmlns="http://www.w3.org/2000/svg"
 width="26.000000pt" height="85.000000pt" viewBox="0 0 26.000000 85.000000"
 preserveAspectRatio="xMidYMid meet">
<metadata>
Created by potrace 1.14, written by Peter Selinger 2001-2017
</metadata>
<g transform="translate(0.000000,85.000000) scale(0.100000,-0.100000)"
fill="#000000" stroke="none">
<path fill="#000000" stroke="none" d="M25 820 l-28 -29 27 -75 c24 -68 27
-90 26 -208 0 -73 7 -183 16 -245 15 -109 15 -114 -5 -168 -12 -31 -21 -58
-21 -60 0 -9 48 -5 74 5 25 9 26 12 26 107 0 54 5 105 10 113 9 13 10 13 10
-1 0 -55 32 -244 42 -250 7 -4 19 -4 28 1 15 8 17 33 14 227 -2 120 1 220 5
223 4 3 3 61 -1 130 -10 135 -13 142 -78 187 -19 13 -50 35 -69 48 -19 14 -37
25 -41 25 -3 0 -19 -13 -35 -30z"/>
</g>
</svg>
