<?xml version="1.0" standalone="no"?>
<!DOCTYPE svg PUBLIC "-//W3C//DTD SVG 20010904//EN"
 "http://www.w3.org/TR/2001/REC-SVG-20010904/DTD/svg10.dtd">
<svg version="1.0" xmlns="http://www.w3.org/2000/svg"
 width="53.000000pt" height="159.000000pt" viewBox="0 0 53.000000 159.000000"
 preserveAspectRatio="xMidYMid meet">
<metadata>
Created by potrace 1.14, written by Peter Selinger 2001-2017
</metadata>
<g transform="translate(0.000000,159.000000) scale(0.100000,-0.100000)"
fill="#000000" stroke="none">
<path fill="#000000" stroke="none" d="M105 1559 c-26 -23 -35 -39 -35 -63 -1
-17 -7 -60 -15 -96 -16 -77 -5 -154 27 -180 20 -16 20 -16 -6 -68 l-27 -53 10
-167 c6 -92 10 -221 10 -288 0 -66 2 -136 6 -155 5 -27 -2 -52 -34 -124 l-40
-91 10 -129 c5 -71 11 -130 12 -131 1 -1 64 -5 141 -9 l139 -8 -6 54 c-22 193
-20 249 12 377 24 92 46 151 90 235 62 119 81 180 105 347 29 201 30 269 7
322 -12 26 -34 57 -50 70 -16 13 -33 33 -39 44 -7 12 -50 49 -97 83 -77 55
-90 61 -135 61 -41 0 -55 -5 -85 -31z"/>
</g>
</svg>
