<?xml version="1.0" standalone="no"?>
<!DOCTYPE svg PUBLIC "-//W3C//DTD SVG 20010904//EN"
 "http://www.w3.org/TR/2001/REC-SVG-20010904/DTD/svg10.dtd">
<svg version="1.0" xmlns="http://www.w3.org/2000/svg"
 width="14.000000pt" height="43.000000pt" viewBox="0 0 14.000000 43.000000"
 preserveAspectRatio="xMidYMid meet">
<metadata>
Created by potrace 1.14, written by Peter Selinger 2001-2017
</metadata>
<g transform="translate(0.000000,43.000000) scale(0.100000,-0.100000)"
fill="#000000" stroke="none">
<path fill="#000000" stroke="none" d="M66 414 c-9 -8 -16 -26 -16 -40 0 -13
-4 -24 -9 -24 -19 0 -41 -32 -41 -61 0 -20 5 -29 16 -29 13 0 15 -6 10 -27 -3
-16 -9 -67 -12 -115 -6 -80 -5 -88 12 -95 10 -3 22 -11 27 -17 5 -7 12 -4 22
8 13 18 13 22 -4 40 -41 46 -38 154 5 177 17 8 21 16 14 23 -21 21 -11 57 21
70 26 11 28 14 15 25 -8 7 -18 26 -21 42 -8 37 -19 43 -39 23z"/>
</g>
</svg>
