<?xml version="1.0" standalone="no"?>
<!DOCTYPE svg PUBLIC "-//W3C//DTD SVG 20010904//EN"
 "http://www.w3.org/TR/2001/REC-SVG-20010904/DTD/svg10.dtd">
<svg version="1.0" xmlns="http://www.w3.org/2000/svg"
 width="12.000000pt" height="20.000000pt" viewBox="0 0 12.000000 20.000000"
 preserveAspectRatio="xMidYMid meet">
<metadata>
Created by potrace 1.14, written by Peter Selinger 2001-2017
</metadata>
<g transform="translate(0.000000,20.000000) scale(0.100000,-0.100000)"
fill="#000000" stroke="none">
<path fill="#000000" stroke="none" d="M56 191 c-4 -5 -3 -16 0 -24 3 -10 -3
-20 -18 -28 -13 -6 -26 -17 -30 -23 -11 -16 -9 -84 2 -91 6 -4 8 -11 5 -16 -4
-5 15 -9 43 -9 43 0 50 3 56 23 11 40 6 94 -9 107 -9 8 -12 22 -8 41 5 25 2
29 -15 29 -12 0 -23 -4 -26 -9z"/>
</g>
</svg>
