<?xml version="1.0" standalone="no"?>
<!DOCTYPE svg PUBLIC "-//W3C//DTD SVG 20010904//EN"
 "http://www.w3.org/TR/2001/REC-SVG-20010904/DTD/svg10.dtd">
<svg version="1.0" xmlns="http://www.w3.org/2000/svg"
 width="23.000000pt" height="32.000000pt" viewBox="0 0 23.000000 32.000000"
 preserveAspectRatio="xMidYMid meet">
<metadata>
Created by potrace 1.14, written by Peter Selinger 2001-2017
</metadata>
<g transform="translate(0.000000,32.000000) scale(0.100000,-0.100000)"
fill="#000000" stroke="none">
<path fill="#000000" stroke="none" d="M68 313 c-10 -2 -22 -21 -28 -43 -6
-21 -17 -43 -25 -50 -10 -8 -12 -25 -8 -63 7 -67 14 -73 56 -53 41 19 54 20
95 5 25 -9 32 -18 42 -60 13 -55 31 -67 25 -17 -3 18 -7 68 -11 110 -6 77 -6
78 -37 86 -26 6 -35 16 -47 50 -14 41 -22 46 -62 35z"/>
</g>
</svg>
