<?xml version="1.0" standalone="no"?>
<!DOCTYPE svg PUBLIC "-//W3C//DTD SVG 20010904//EN"
 "http://www.w3.org/TR/2001/REC-SVG-20010904/DTD/svg10.dtd">
<svg version="1.0" xmlns="http://www.w3.org/2000/svg"
 width="30.000000pt" height="75.000000pt" viewBox="0 0 30.000000 75.000000"
 preserveAspectRatio="xMidYMid meet">
<metadata>
Created by potrace 1.14, written by Peter Selinger 2001-2017
</metadata>
<g transform="translate(0.000000,75.000000) scale(0.100000,-0.100000)"
fill="#000000" stroke="none">
<path fill="#000000" stroke="none" d="M173 743 c-60 -6 -69 -22 -55 -92 16
-78 15 -86 -12 -100 -34 -19 -55 -69 -49 -122 6 -51 -21 -155 -43 -167 -12 -7
-12 -24 -2 -121 l13 -114 39 -14 c22 -7 41 -12 42 -10 2 1 -17 44 -41 94 -25
53 -41 100 -38 112 5 21 67 41 126 41 19 0 54 3 79 6 l45 6 -28 112 c-33 127
-36 168 -13 187 28 23 65 107 58 134 -11 43 -42 55 -121 48z"/>
</g>
</svg>
