<?xml version="1.0" standalone="no"?>
<!DOCTYPE svg PUBLIC "-//W3C//DTD SVG 20010904//EN"
 "http://www.w3.org/TR/2001/REC-SVG-20010904/DTD/svg10.dtd">
<svg version="1.0" xmlns="http://www.w3.org/2000/svg"
 width="73.000000pt" height="206.000000pt" viewBox="0 0 73.000000 206.000000"
 preserveAspectRatio="xMidYMid meet">
<metadata>
Created by potrace 1.14, written by Peter Selinger 2001-2017
</metadata>
<g transform="translate(0.000000,206.000000) scale(0.100000,-0.100000)"
fill="#000000" stroke="none">
<path fill="#000000" stroke="none" d="M341 2026 c-27 -21 -51 -50 -64 -80
l-20 -47 30 -100 c42 -135 37 -149 -67 -229 -44 -34 -80 -62 -80 -63 -1 -1 -7
-50 -14 -109 l-12 -107 33 -113 c32 -107 33 -116 22 -178 -6 -36 -34 -123 -61
-195 l-50 -130 -8 -205 c-10 -235 -27 -426 -42 -454 -10 -18 -7 -18 58 -12 38
4 83 10 101 13 l32 5 -19 37 c-18 36 -18 41 0 186 18 148 19 153 103 360 122
302 129 316 184 355 27 19 76 60 109 92 l61 59 44 -10 c24 -5 45 -9 46 -7 4 3
-57 438 -63 447 -2 4 -35 27 -73 50 l-70 43 -6 61 c-5 41 -2 79 8 118 14 54
14 63 -4 125 -10 37 -19 68 -19 69 0 1 -111 53 -114 53 0 0 -21 -15 -45 -34z"/>
</g>
</svg>
