<?xml version="1.0" standalone="no"?>
<!DOCTYPE svg PUBLIC "-//W3C//DTD SVG 20010904//EN"
 "http://www.w3.org/TR/2001/REC-SVG-20010904/DTD/svg10.dtd">
<svg version="1.0" xmlns="http://www.w3.org/2000/svg"
 width="60.000000pt" height="143.000000pt" viewBox="0 0 60.000000 143.000000"
 preserveAspectRatio="xMidYMid meet">
<metadata>
Created by potrace 1.14, written by Peter Selinger 2001-2017
</metadata>
<g transform="translate(0.000000,143.000000) scale(0.100000,-0.100000)"
fill="#000000" stroke="none">
<path fill="#000000" stroke="none" d="M398 1402 c-47 -27 -47 -27 -41 -71 l6
-43 -29 6 c-28 6 -31 3 -75 -71 -51 -85 -82 -173 -129 -360 -16 -67 -48 -164
-70 -215 -46 -106 -68 -238 -53 -323 7 -44 13 -53 45 -70 30 -16 36 -24 33
-45 -2 -14 -7 -67 -10 -119 l-6 -94 77 6 c42 4 99 7 126 7 46 0 48 1 38 20 -6
11 -25 27 -43 36 -42 22 -42 21 -29 37 14 16 -9 125 -29 138 -8 5 -38 9 -67 9
-45 0 -57 4 -88 33 l-35 32 25 72 c14 40 32 83 40 95 9 12 16 30 16 39 0 16
37 29 85 29 22 0 85 60 85 80 0 6 7 10 15 10 19 0 19 -13 0 -51 -12 -23 -13
-30 -3 -34 16 -5 118 -11 118 -7 0 1 -9 21 -20 42 -22 43 -13 55 13 17 15 -21
16 -20 16 35 1 31 12 103 25 160 13 56 31 153 40 213 15 100 15 114 1 154 -8
24 -15 45 -15 47 0 2 14 4 31 4 53 0 77 59 44 107 -15 21 -14 21 15 13 25 -7
30 -6 30 9 0 29 -23 49 -68 61 -24 6 -49 13 -55 15 -7 2 -33 -8 -59 -23z"/>
<path fill="#000000" stroke="none" d="M310 232 c0 -1 6 -15 14 -30 7 -15 16
-53 19 -86 9 -86 21 -96 127 -96 79 0 88 2 110 25 20 22 21 25 6 31 -9 3 -29
4 -45 1 -26 -6 -29 -3 -44 47 -10 29 -17 60 -17 69 0 9 -5 19 -10 22 -12 7
-160 23 -160 17z"/>
</g>
</svg>
