<?xml version="1.0" standalone="no"?>
<!DOCTYPE svg PUBLIC "-//W3C//DTD SVG 20010904//EN"
 "http://www.w3.org/TR/2001/REC-SVG-20010904/DTD/svg10.dtd">
<svg version="1.0" xmlns="http://www.w3.org/2000/svg"
 width="93.000000pt" height="394.000000pt" viewBox="0 0 93.000000 394.000000"
 preserveAspectRatio="xMidYMid meet">
<metadata>
Created by potrace 1.14, written by Peter Selinger 2001-2017
</metadata>
<g transform="translate(0.000000,394.000000) scale(0.100000,-0.100000)"
fill="#000000" stroke="none">
<path fill="#000000" stroke="none" d="M451 3906 l-134 -31 -48 -111 -49 -112
34 -91 c27 -73 33 -98 26 -124 -5 -18 -14 -50 -19 -73 -8 -28 -50 -91 -137
-200 l-125 -159 5 -55 c3 -30 8 -118 12 -195 6 -127 10 -153 49 -280 l43 -140
5 -235 c5 -227 8 -257 97 -915 89 -658 92 -686 91 -855 -1 -96 -3 -176 -5
-177 -1 -2 -31 -6 -66 -10 -59 -6 -100 -27 -100 -52 0 -5 25 -27 55 -50 l55
-42 80 12 c84 13 89 18 71 64 -7 16 -1 24 30 43 35 21 38 27 48 90 5 37 13 95
17 130 5 52 9 62 23 58 188 -57 277 -76 346 -76 68 0 76 2 71 18 -2 9 -37 205
-77 436 l-73 418 56 306 c31 169 54 310 52 314 -3 5 -25 8 -49 8 l-45 0 -2
-234 -3 -234 -67 40 -68 40 0 190 0 190 -170 -4 -170 -3 -5 30 c-3 17 -21 181
-40 365 -19 184 -37 349 -40 366 l-5 30 186 54 c102 30 191 58 197 62 9 5 13
167 16 618 3 589 2 610 -15 609 -11 -1 -79 -15 -153 -33z"/>
</g>
</svg>
