<?xml version="1.0" standalone="no"?>
<!DOCTYPE svg PUBLIC "-//W3C//DTD SVG 20010904//EN"
 "http://www.w3.org/TR/2001/REC-SVG-20010904/DTD/svg10.dtd">
<svg version="1.0" xmlns="http://www.w3.org/2000/svg"
 width="78.000000pt" height="80.000000pt" viewBox="0 0 78.000000 80.000000"
 preserveAspectRatio="xMidYMid meet">
<metadata>
Created by potrace 1.14, written by Peter Selinger 2001-2017
</metadata>
<g transform="translate(0.000000,80.000000) scale(0.100000,-0.100000)"
fill="#000000" stroke="none">
<path fill="#000000" stroke="none" d="M391 772 c-53 -26 -55 -29 -74 -93 -18
-63 -21 -67 -71 -91 -37 -18 -61 -40 -88 -79 -32 -48 -40 -71 -64 -199 -20
-108 -36 -163 -61 -214 -19 -38 -31 -72 -26 -76 4 -4 121 -10 260 -14 l252 -6
3 22 c3 20 11 24 58 30 37 4 62 2 80 -7 23 -12 28 -10 73 28 l48 40 -47 30
c-46 28 -52 29 -124 23 -75 -6 -76 -6 -91 21 -25 44 -62 220 -54 260 3 19 21
51 39 71 43 48 66 110 66 175 l0 52 -57 25 c-31 14 -59 26 -62 27 -3 1 -30
-10 -60 -25z"/>
</g>
</svg>
