<?xml version="1.0" standalone="no"?>
<!DOCTYPE svg PUBLIC "-//W3C//DTD SVG 20010904//EN"
 "http://www.w3.org/TR/2001/REC-SVG-20010904/DTD/svg10.dtd">
<svg version="1.0" xmlns="http://www.w3.org/2000/svg"
 width="61.000000pt" height="31.000000pt" viewBox="0 0 61.000000 31.000000"
 preserveAspectRatio="xMidYMid meet">
<metadata>
Created by potrace 1.14, written by Peter Selinger 2001-2017
</metadata>
<g transform="translate(0.000000,31.000000) scale(0.100000,-0.100000)"
fill="#000000" stroke="none">
<path fill="#000000" stroke="none" d="M42 288 c-30 -19 -30 -21 -30 -98 0
-44 -4 -85 -8 -91 -9 -14 -5 -13 83 36 67 37 73 43 73 72 0 49 -18 79 -55 90
-27 9 -38 7 -63 -9z"/>
<path fill="#000000" stroke="none" d="M427 224 c-30 -15 -52 -35 -58 -52 -6
-15 -17 -34 -25 -44 -14 -15 -9 -21 60 -67 42 -29 82 -54 90 -57 26 -10 93 62
105 113 7 25 8 49 4 53 -29 24 -112 80 -119 80 -5 -1 -31 -12 -57 -26z"/>
</g>
</svg>
