<?xml version="1.0" standalone="no"?>
<!DOCTYPE svg PUBLIC "-//W3C//DTD SVG 20010904//EN"
 "http://www.w3.org/TR/2001/REC-SVG-20010904/DTD/svg10.dtd">
<svg version="1.0" xmlns="http://www.w3.org/2000/svg"
 width="66.000000pt" height="218.000000pt" viewBox="0 0 66.000000 218.000000"
 preserveAspectRatio="xMidYMid meet">
<metadata>
Created by potrace 1.14, written by Peter Selinger 2001-2017
</metadata>
<g transform="translate(0.000000,218.000000) scale(0.100000,-0.100000)"
fill="#000000" stroke="none">
<path fill="#000000" stroke="none" d="M112 2169 c-38 -11 -86 -72 -104 -132
-10 -34 -10 -40 5 -49 68 -37 123 -174 86 -213 -5 -5 -9 -42 -9 -82 0 -77 7
-86 50 -63 13 7 21 7 25 0 3 -5 16 -10 28 -10 12 0 31 -12 41 -27 21 -28 17
-61 -20 -155 l-18 -46 62 -82 c34 -45 62 -91 62 -102 0 -11 -16 -45 -35 -76
l-35 -57 40 -120 c22 -66 40 -138 40 -160 0 -70 38 -187 72 -222 28 -28 31
-39 38 -125 6 -72 16 -113 45 -183 37 -92 41 -133 19 -226 -6 -26 -6 -27 71
-34 42 -4 78 -5 81 -2 2 2 -3 21 -12 43 -13 31 -16 70 -15 196 2 173 -6 232
-50 375 -16 52 -29 112 -29 132 0 22 -21 81 -55 155 -30 66 -55 129 -55 140 0
12 11 57 25 101 20 63 25 101 25 183 0 57 4 112 10 122 7 13 6 40 -4 87 -11
53 -21 73 -44 93 -86 74 -130 108 -159 125 -18 11 -33 27 -33 35 0 39 32 120
51 131 16 8 18 14 10 22 -6 6 -11 34 -11 62 0 54 -16 86 -68 143 -33 34 -65
40 -130 21z"/>
</g>
</svg>
