<?xml version="1.0" standalone="no"?>
<!DOCTYPE svg PUBLIC "-//W3C//DTD SVG 20010904//EN"
 "http://www.w3.org/TR/2001/REC-SVG-20010904/DTD/svg10.dtd">
<svg version="1.0" xmlns="http://www.w3.org/2000/svg"
 width="40.000000pt" height="143.000000pt" viewBox="0 0 40.000000 143.000000"
 preserveAspectRatio="xMidYMid meet">
<metadata>
Created by potrace 1.14, written by Peter Selinger 2001-2017
</metadata>
<g transform="translate(0.000000,143.000000) scale(0.100000,-0.100000)"
fill="#000000" stroke="none">
<path fill="#000000" stroke="none" d="M69 1417 c-61 -47 -76 -144 -36 -225
18 -34 23 -58 19 -89 -2 -24 -8 -41 -12 -38 -5 3 -16 -15 -25 -39 l-17 -44 76
-286 c42 -157 94 -365 116 -463 22 -97 41 -177 43 -178 8 -7 161 -54 164 -51
2 2 -19 139 -47 305 -34 202 -47 307 -41 318 5 10 16 52 26 95 16 75 16 78
-10 224 -14 81 -44 199 -65 263 -22 64 -44 135 -50 157 -11 46 -17 50 -81 58
-29 4 -50 2 -60 -7z"/>
</g>
</svg>
