<?xml version="1.0" standalone="no"?>
<!DOCTYPE svg PUBLIC "-//W3C//DTD SVG 20010904//EN"
 "http://www.w3.org/TR/2001/REC-SVG-20010904/DTD/svg10.dtd">
<svg version="1.0" xmlns="http://www.w3.org/2000/svg"
 width="22.000000pt" height="16.000000pt" viewBox="0 0 22.000000 16.000000"
 preserveAspectRatio="xMidYMid meet">
<metadata>
Created by potrace 1.14, written by Peter Selinger 2001-2017
</metadata>
<g transform="translate(0.000000,16.000000) scale(0.100000,-0.100000)"
fill="#000000" stroke="none">
<path fill="#000000" stroke="none" d="M0 91 c0 -55 3 -70 17 -75 10 -4 24 1
36 13 17 17 18 23 7 55 -6 20 -9 45 -5 56 5 17 2 20 -24 20 l-31 0 0 -69z"/>
<path fill="#000000" stroke="none" d="M120 111 c0 -31 -5 -53 -15 -61 -22
-18 -19 -27 16 -39 24 -8 37 -7 59 4 23 12 28 22 32 67 7 72 3 78 -48 78 l-44
0 0 -49z"/>
</g>
</svg>
