<?xml version="1.0" standalone="no"?>
<!DOCTYPE svg PUBLIC "-//W3C//DTD SVG 20010904//EN"
 "http://www.w3.org/TR/2001/REC-SVG-20010904/DTD/svg10.dtd">
<svg version="1.0" xmlns="http://www.w3.org/2000/svg"
 width="9.000000pt" height="11.000000pt" viewBox="0 0 9.000000 11.000000"
 preserveAspectRatio="xMidYMid meet">
<metadata>
Created by potrace 1.14, written by Peter Selinger 2001-2017
</metadata>
<g transform="translate(0.000000,11.000000) scale(0.100000,-0.100000)"
fill="#000000" stroke="none">
<path fill="#000000" stroke="none" d="M50 100 c0 -6 -11 -15 -25 -20 -25 -10
-32 -24 -16 -34 5 -3 7 -16 4 -27 -5 -19 -3 -20 18 -14 13 4 29 12 35 17 15
11 25 48 14 48 -4 0 -6 9 -3 20 4 14 0 20 -11 20 -9 0 -16 -5 -16 -10z"/>
</g>
</svg>
