<?xml version="1.0" standalone="no"?>
<!DOCTYPE svg PUBLIC "-//W3C//DTD SVG 20010904//EN"
 "http://www.w3.org/TR/2001/REC-SVG-20010904/DTD/svg10.dtd">
<svg version="1.0" xmlns="http://www.w3.org/2000/svg"
 width="93.000000pt" height="222.000000pt" viewBox="0 0 93.000000 222.000000"
 preserveAspectRatio="xMidYMid meet">
<metadata>
Created by potrace 1.14, written by Peter Selinger 2001-2017
</metadata>
<g transform="translate(0.000000,222.000000) scale(0.100000,-0.100000)"
fill="#000000" stroke="none">
<path fill="#000000" stroke="none" d="M434 2198 l-52 -20 -11 -71 c-11 -68
-16 -78 -93 -175 l-81 -103 -99 -325 c-80 -264 -98 -335 -96 -377 l3 -51 83
98 c80 95 196 255 430 592 l112 161 0 80 c0 44 -5 105 -11 135 -11 55 -12 56
-53 62 -22 4 -50 9 -61 11 -11 2 -43 -6 -71 -17z"/>
<path fill="#000000" stroke="none" d="M618 1421 l-126 -158 -12 -77 c-11 -68
-19 -84 -66 -148 -52 -69 -54 -74 -48 -119 5 -37 0 -66 -24 -141 -42 -127
-148 -536 -162 -626 -7 -41 -8 -77 -4 -81 5 -4 42 -22 82 -39 65 -29 82 -32
171 -32 55 0 102 4 105 8 3 4 -20 23 -51 41 l-55 33 7 142 c7 131 10 156 18
145 2 -2 39 -83 84 -179 l80 -175 55 1 c49 1 64 7 157 67 l102 65 -78 47 c-43
26 -79 48 -81 50 -1 1 -27 80 -56 176 -49 158 -56 192 -76 372 l-21 198 21
197 c12 108 22 198 24 199 1 1 33 -93 70 -210 l68 -212 21 29 c33 46 25 160
-29 390 -24 104 -45 191 -47 192 -1 2 -59 -68 -129 -155z"/>
</g>
</svg>
