<?xml version="1.0" standalone="no"?>
<!DOCTYPE svg PUBLIC "-//W3C//DTD SVG 20010904//EN"
 "http://www.w3.org/TR/2001/REC-SVG-20010904/DTD/svg10.dtd">
<svg version="1.0" xmlns="http://www.w3.org/2000/svg"
 width="69.000000pt" height="34.000000pt" viewBox="0 0 69.000000 34.000000"
 preserveAspectRatio="xMidYMid meet">
<metadata>
Created by potrace 1.14, written by Peter Selinger 2001-2017
</metadata>
<g transform="translate(0.000000,34.000000) scale(0.100000,-0.100000)"
fill="#000000" stroke="none">
<path fill="#000000" stroke="none" d="M33 317 c-35 -39 -35 -46 -3 -87 25
-32 38 -40 65 -40 18 0 38 7 45 15 11 13 8 15 -16 16 -25 0 -26 1 -9 9 42 16
47 34 20 70 -31 42 -73 49 -102 17z"/>
<path fill="#000000" stroke="none" d="M415 253 c-67 -3 -83 -7 -97 -24 -31
-37 -23 -73 26 -113 24 -20 49 -36 54 -36 5 0 15 -7 22 -15 7 -9 29 -15 53
-15 27 0 50 -8 73 -25 22 -17 45 -25 73 -25 55 0 69 24 70 119 1 81 -15 121
-49 121 -10 0 -22 5 -25 10 -3 6 -32 9 -63 8 -31 -1 -93 -3 -137 -5z"/>
</g>
</svg>
