<?xml version="1.0" standalone="no"?>
<!DOCTYPE svg PUBLIC "-//W3C//DTD SVG 20010904//EN"
 "http://www.w3.org/TR/2001/REC-SVG-20010904/DTD/svg10.dtd">
<svg version="1.0" xmlns="http://www.w3.org/2000/svg"
 width="65.000000pt" height="69.000000pt" viewBox="0 0 65.000000 69.000000"
 preserveAspectRatio="xMidYMid meet">
<metadata>
Created by potrace 1.14, written by Peter Selinger 2001-2017
</metadata>
<g transform="translate(0.000000,69.000000) scale(0.100000,-0.100000)"
fill="#000000" stroke="none">
<path fill="#000000" stroke="none" d="M0 627 c0 -42 6 -75 19 -101 11 -21 27
-72 36 -114 9 -42 23 -102 30 -132 7 -30 16 -77 20 -105 8 -57 34 -156 44
-167 9 -10 151 46 276 109 65 33 122 71 163 109 l64 59 -146 118 c-145 117
-225 163 -463 268 l-43 18 0 -62z"/>
</g>
</svg>
