<?xml version="1.0" standalone="no"?>
<!DOCTYPE svg PUBLIC "-//W3C//DTD SVG 20010904//EN"
 "http://www.w3.org/TR/2001/REC-SVG-20010904/DTD/svg10.dtd">
<svg version="1.0" xmlns="http://www.w3.org/2000/svg"
 width="78.000000pt" height="171.000000pt" viewBox="0 0 78.000000 171.000000"
 preserveAspectRatio="xMidYMid meet">
<metadata>
Created by potrace 1.14, written by Peter Selinger 2001-2017
</metadata>
<g transform="translate(0.000000,171.000000) scale(0.100000,-0.100000)"
fill="#000000" stroke="none">
<path fill="#000000" stroke="none" d="M145 1698 c-26 -8 -35 -22 -68 -103
l-38 -94 21 -71 c12 -39 19 -74 16 -79 -3 -5 -18 -11 -34 -14 l-29 -6 -6 -128
c-4 -70 -7 -365 -7 -655 l0 -527 32 -5 c18 -3 56 -7 85 -10 l52 -5 -5 32 c-2
18 -9 59 -14 92 -8 56 -7 65 22 132 18 40 34 73 38 73 3 0 38 -71 77 -157 l71
-158 138 2 c75 2 139 5 141 7 2 2 -3 43 -11 92 -15 84 -15 89 3 109 13 13 21
43 26 91 6 68 5 74 -30 145 -49 96 -87 152 -145 214 l-48 50 -5 255 -6 255 45
-48 c24 -27 44 -45 44 -39 0 5 48 1 112 -10 61 -10 116 -17 123 -15 6 3 16 22
22 42 19 59 3 73 -195 165 -97 46 -179 85 -181 86 -3 3 16 151 25 190 5 19 -7
26 -106 63 -118 44 -119 44 -165 29z"/>
</g>
</svg>
