<?xml version="1.0" standalone="no"?>
<!DOCTYPE svg PUBLIC "-//W3C//DTD SVG 20010904//EN"
 "http://www.w3.org/TR/2001/REC-SVG-20010904/DTD/svg10.dtd">
<svg version="1.0" xmlns="http://www.w3.org/2000/svg"
 width="8.000000pt" height="17.000000pt" viewBox="0 0 8.000000 17.000000"
 preserveAspectRatio="xMidYMid meet">
<metadata>
Created by potrace 1.14, written by Peter Selinger 2001-2017
</metadata>
<g transform="translate(0.000000,17.000000) scale(0.100000,-0.100000)"
fill="#000000" stroke="none">
<path fill="#000000" stroke="none" d="M35 160 c3 -5 0 -10 -8 -10 -18 0 -27
-21 -27 -59 0 -32 19 -91 29 -91 10 0 33 59 27 69 -4 5 -2 12 4 16 5 3 10 1
10 -6 0 -7 3 -10 6 -6 8 8 -28 97 -39 97 -5 0 -5 -4 -2 -10z"/>
</g>
</svg>
