<?xml version="1.0" standalone="no"?>
<!DOCTYPE svg PUBLIC "-//W3C//DTD SVG 20010904//EN"
 "http://www.w3.org/TR/2001/REC-SVG-20010904/DTD/svg10.dtd">
<svg version="1.0" xmlns="http://www.w3.org/2000/svg"
 width="74.000000pt" height="39.000000pt" viewBox="0 0 74.000000 39.000000"
 preserveAspectRatio="xMidYMid meet">
<metadata>
Created by potrace 1.14, written by Peter Selinger 2001-2017
</metadata>
<g transform="translate(0.000000,39.000000) scale(0.100000,-0.100000)"
fill="#000000" stroke="none">
<path fill="#000000" stroke="none" d="M89 359 c-60 -38 -75 -72 -83 -190 -9
-119 0 -131 90 -128 39 1 77 -5 114 -19 63 -24 166 -23 203 1 16 10 29 12 47
5 31 -12 101 -3 141 18 51 26 117 93 129 130 7 20 9 51 6 69 -9 46 -51 95 -82
95 -14 0 -22 4 -19 10 3 6 -3 10 -14 10 -11 0 -23 5 -26 10 -3 6 -20 10 -37
10 -26 0 -28 -2 -18 -15 23 -28 0 -35 -121 -35 -73 0 -119 -4 -119 -10 0 -24
-32 -7 -55 30 -23 37 -29 40 -68 39 -29 0 -57 -10 -88 -30z"/>
</g>
</svg>
