<?xml version="1.0" standalone="no"?>
<!DOCTYPE svg PUBLIC "-//W3C//DTD SVG 20010904//EN"
 "http://www.w3.org/TR/2001/REC-SVG-20010904/DTD/svg10.dtd">
<svg version="1.0" xmlns="http://www.w3.org/2000/svg"
 width="9.000000pt" height="27.000000pt" viewBox="0 0 9.000000 27.000000"
 preserveAspectRatio="xMidYMid meet">
<metadata>
Created by potrace 1.14, written by Peter Selinger 2001-2017
</metadata>
<g transform="translate(0.000000,27.000000) scale(0.100000,-0.100000)"
fill="#000000" stroke="none">
<path fill="#000000" stroke="none" d="M24 253 c-3 -10 -9 -25 -13 -33 -10
-21 -1 -220 10 -220 5 0 9 13 9 30 0 17 5 30 10 30 6 0 10 -13 10 -30 0 -17 5
-30 10 -30 6 0 10 31 10 74 0 41 5 78 10 81 15 9 12 55 -4 55 -7 0 -16 14 -19
30 -7 33 -25 40 -33 13z"/>
</g>
</svg>
