<?xml version="1.0" standalone="no"?>
<!DOCTYPE svg PUBLIC "-//W3C//DTD SVG 20010904//EN"
 "http://www.w3.org/TR/2001/REC-SVG-20010904/DTD/svg10.dtd">
<svg version="1.0" xmlns="http://www.w3.org/2000/svg"
 width="63.000000pt" height="178.000000pt" viewBox="0 0 63.000000 178.000000"
 preserveAspectRatio="xMidYMid meet">
<metadata>
Created by potrace 1.14, written by Peter Selinger 2001-2017
</metadata>
<g transform="translate(0.000000,178.000000) scale(0.100000,-0.100000)"
fill="#000000" stroke="none">
<path fill="#000000" stroke="none" d="M138 1769 c-20 -8 -33 -26 -52 -75 -14
-35 -26 -76 -26 -90 0 -15 -12 -41 -28 -58 l-27 -31 1 -321 c1 -294 2 -323 20
-352 18 -32 34 -42 34 -22 0 6 5 10 10 10 6 0 10 -13 10 -28 0 -21 7 -32 24
-40 21 -9 25 -20 31 -81 4 -40 24 -119 47 -183 51 -144 61 -253 30 -313 -11
-22 -28 -66 -38 -98 -22 -71 -21 -72 84 -82 55 -5 84 -3 111 8 20 8 56 21 81
29 72 23 86 60 95 255 12 262 8 505 -11 622 -14 87 -23 114 -48 151 -18 25
-35 50 -39 57 -5 8 23 30 82 65 l88 53 7 74 c12 148 12 149 -51 225 -51 60
-71 75 -163 121 -78 40 -109 61 -122 84 -16 29 -21 31 -70 30 -29 0 -65 -5
-80 -10z"/>
<path fill="#ffffff" stroke="none" d="M270 1099 c0 -6 7 -9 14 -6 11 4 13 1
9 -10 -4 -11 -2 -14 5 -9 17 10 15 -9 -3 -24 -12 -10 -18 -10 -30 0 -17 14
-21 60 -5 60 6 0 10 -5 10 -11z"/>
</g>
</svg>
