<?xml version="1.0" standalone="no"?>
<!DOCTYPE svg PUBLIC "-//W3C//DTD SVG 20010904//EN"
 "http://www.w3.org/TR/2001/REC-SVG-20010904/DTD/svg10.dtd">
<svg version="1.0" xmlns="http://www.w3.org/2000/svg"
 width="88.000000pt" height="79.000000pt" viewBox="0 0 88.000000 79.000000"
 preserveAspectRatio="xMidYMid meet">
<metadata>
Created by potrace 1.14, written by Peter Selinger 2001-2017
</metadata>
<g transform="translate(0.000000,79.000000) scale(0.100000,-0.100000)"
fill="#000000" stroke="none">
<path fill="#000000" stroke="none" d="M477 772 c-10 -10 -17 -23 -17 -29 0
-6 -8 -13 -17 -17 -10 -3 -38 -21 -63 -40 -34 -26 -59 -36 -102 -41 -32 -4
-63 -14 -69 -21 -6 -8 -24 -14 -39 -14 -30 0 -60 -27 -60 -54 0 -33 -20 -56
-49 -56 -58 0 -82 -72 -36 -108 15 -12 25 -30 25 -44 0 -33 29 -58 67 -58 23
0 39 9 61 34 16 19 38 36 48 38 11 1 25 18 33 36 11 25 21 32 42 32 34 0 52
22 53 64 2 40 21 66 48 66 37 0 118 59 118 86 0 7 12 19 27 26 62 30 47 118
-21 118 -19 0 -40 -8 -49 -18z"/>
<path fill="#000000" stroke="none" d="M737 595 c-15 -14 -38 -25 -51 -25 -13
0 -31 -9 -41 -20 -11 -12 -31 -20 -50 -20 -38 0 -65 -26 -65 -63 0 -24 -4 -27
-34 -27 -19 0 -37 -4 -40 -9 -3 -4 -40 -11 -82 -13 l-77 -5 -51 -58 c-58 -66
-76 -98 -76 -130 0 -59 90 -75 120 -20 34 60 75 95 113 95 20 0 39 4 42 10 3
6 33 10 65 10 32 0 61 4 64 9 6 10 66 21 66 12 -1 -12 -28 -41 -38 -41 -6 0
-21 -14 -35 -31 -19 -25 -37 -33 -92 -45 -38 -8 -76 -21 -85 -29 -9 -8 -21
-15 -27 -15 -6 0 -16 -7 -23 -15 -7 -8 -20 -15 -30 -15 -10 0 -23 -7 -30 -15
-7 -8 -20 -15 -30 -15 -44 0 -66 -72 -32 -103 23 -21 75 -22 92 -2 7 8 20 15
30 15 10 0 23 7 30 15 7 8 20 15 30 15 10 0 23 7 30 15 17 20 33 19 55 -5 20
-23 77 -27 93 -7 5 6 13 23 17 37 4 14 25 42 46 62 22 21 39 44 39 52 0 8 10
16 21 18 12 2 27 12 33 23 33 61 53 85 71 85 11 0 30 7 42 15 50 35 31 115
-27 115 -34 0 -33 20 2 35 32 15 44 60 24 90 -22 33 -71 33 -109 0z"/>
<path fill="#ffffff" stroke="none" d="M745 440 c-10 -11 -25 -20 -33 -20 -9
0 -27 -10 -40 -22 -22 -21 -23 -21 -14 -3 27 47 45 60 91 64 11 1 10 -4 -4
-19z"/>
</g>
</svg>
