<?xml version="1.0" standalone="no"?>
<!DOCTYPE svg PUBLIC "-//W3C//DTD SVG 20010904//EN"
 "http://www.w3.org/TR/2001/REC-SVG-20010904/DTD/svg10.dtd">
<svg version="1.0" xmlns="http://www.w3.org/2000/svg"
 width="32.000000pt" height="86.000000pt" viewBox="0 0 32.000000 86.000000"
 preserveAspectRatio="xMidYMid meet">
<metadata>
Created by potrace 1.14, written by Peter Selinger 2001-2017
</metadata>
<g transform="translate(0.000000,86.000000) scale(0.100000,-0.100000)"
fill="#000000" stroke="none">
<path fill="#000000" stroke="none" d="M70 840 c0 -11 11 -63 25 -116 14 -53
25 -107 25 -121 0 -24 -32 -63 -79 -96 -39 -26 -45 -112 -14 -201 29 -86 29
-111 0 -159 -16 -27 -21 -48 -19 -78 5 -50 14 -54 143 -63 134 -9 135 -8 154
153 14 110 14 134 0 226 -8 56 -15 153 -15 214 0 75 -5 123 -15 146 -14 36
-28 44 -157 96 -48 19 -48 19 -48 -1z"/>
</g>
</svg>
