<?xml version="1.0" standalone="no"?>
<!DOCTYPE svg PUBLIC "-//W3C//DTD SVG 20010904//EN"
 "http://www.w3.org/TR/2001/REC-SVG-20010904/DTD/svg10.dtd">
<svg version="1.0" xmlns="http://www.w3.org/2000/svg"
 width="29.000000pt" height="98.000000pt" viewBox="0 0 29.000000 98.000000"
 preserveAspectRatio="xMidYMid meet">
<metadata>
Created by potrace 1.14, written by Peter Selinger 2001-2017
</metadata>
<g transform="translate(0.000000,98.000000) scale(0.100000,-0.100000)"
fill="#000000" stroke="none">
<path fill="#000000" stroke="none" d="M90 967 c-33 -16 -47 -67 -30 -107 10
-23 18 -30 32 -27 26 7 30 -6 13 -40 -12 -24 -13 -44 -5 -109 l10 -79 -41 -85
c-25 -51 -41 -97 -40 -116 1 -17 -6 -48 -14 -68 -15 -36 -15 -40 3 -60 28 -30
42 -60 63 -133 l18 -64 -34 -16 c-18 -9 -38 -26 -44 -39 -9 -21 -8 -24 12 -24
47 1 111 19 122 33 8 12 5 40 -14 116 -13 56 -22 103 -19 107 3 3 21 -1 40 -9
33 -14 36 -20 55 -95 l20 -81 -23 -22 c-33 -31 -30 -39 14 -39 65 0 65 0 46
161 -11 100 -15 190 -12 294 3 83 1 186 -4 230 -8 70 -13 84 -40 112 -26 27
-29 35 -19 47 19 23 -3 77 -42 104 -39 26 -35 25 -67 9z"/>
</g>
</svg>
