<?xml version="1.0" standalone="no"?>
<!DOCTYPE svg PUBLIC "-//W3C//DTD SVG 20010904//EN"
 "http://www.w3.org/TR/2001/REC-SVG-20010904/DTD/svg10.dtd">
<svg version="1.0" xmlns="http://www.w3.org/2000/svg"
 width="11.000000pt" height="27.000000pt" viewBox="0 0 11.000000 27.000000"
 preserveAspectRatio="xMidYMid meet">
<metadata>
Created by potrace 1.14, written by Peter Selinger 2001-2017
</metadata>
<g transform="translate(0.000000,27.000000) scale(0.100000,-0.100000)"
fill="#000000" stroke="none">
<path fill="#000000" stroke="none" d="M30 255 c0 -8 0 -17 0 -20 0 -3 -7 -19
-16 -37 -12 -22 -14 -43 -9 -72 3 -23 10 -59 13 -80 4 -22 13 -41 20 -44 9 -3
11 6 6 36 -6 37 -3 44 30 78 41 42 47 81 16 109 -11 10 -20 24 -20 32 0 7 -9
13 -20 13 -11 0 -20 -7 -20 -15z"/>
</g>
</svg>
