<?xml version="1.0" standalone="no"?>
<!DOCTYPE svg PUBLIC "-//W3C//DTD SVG 20010904//EN"
 "http://www.w3.org/TR/2001/REC-SVG-20010904/DTD/svg10.dtd">
<svg version="1.0" xmlns="http://www.w3.org/2000/svg"
 width="193.000000pt" height="333.000000pt" viewBox="0 0 193.000000 333.000000"
 preserveAspectRatio="xMidYMid meet">
<metadata>
Created by potrace 1.14, written by Peter Selinger 2001-2017
</metadata>
<g transform="translate(0.000000,333.000000) scale(0.100000,-0.100000)"
fill="#000000" stroke="none">
<path fill="#000000" stroke="none" d="M1248 3323 c-55 -4 -59 -6 -100 -55
l-43 -52 -5 -100 c-5 -82 -10 -108 -29 -139 -22 -36 -25 -37 -45 -22 -68 49
-63 48 -132 39 l-67 -9 -33 -111 -34 -111 43 -292 43 -293 -53 -120 -53 -121
0 -137 c0 -75 -3 -192 -7 -258 l-6 -122 -41 0 c-37 0 -45 -5 -71 -39 -17 -21
-115 -131 -220 -244 -164 -177 -192 -204 -208 -195 -15 8 -35 -1 -103 -46 -46
-31 -84 -60 -84 -65 0 -32 112 -221 131 -221 13 0 97 109 134 174 30 53 57 79
197 190 90 72 185 156 211 187 30 36 79 78 130 110 71 45 95 68 167 161 46 59
87 108 91 108 14 0 42 -35 112 -138 67 -97 67 -97 82 -205 l15 -109 -46 -53
c-34 -40 -74 -117 -164 -312 -65 -142 -135 -291 -155 -332 -34 -68 -37 -80
-32 -137 4 -59 8 -67 78 -158 l74 -96 52 0 c28 0 54 4 58 9 8 14 -22 214 -46
306 l-21 81 225 374 226 375 14 124 15 124 -79 258 c-43 142 -79 271 -79 287
0 17 9 74 21 128 17 83 19 119 14 224 -4 69 -9 133 -11 142 -4 14 10 11 74
-17 l80 -35 176 23 c96 13 178 26 181 28 2 3 -34 130 -80 281 l-85 277 23 34
c13 19 30 50 37 67 13 32 12 34 -21 61 -42 35 -86 39 -91 8 -2 -12 -13 -28
-24 -36 -21 -13 -22 -12 -35 36 l-13 51 -58 0 c-62 0 -70 -8 -43 -44 21 -28
19 -33 -16 -40 -32 -6 -116 10 -124 25 -3 4 8 31 26 58 l31 51 -22 35 c-24 38
-20 38 -182 28z"/>
</g>
</svg>
