<?xml version="1.0" standalone="no"?>
<!DOCTYPE svg PUBLIC "-//W3C//DTD SVG 20010904//EN"
 "http://www.w3.org/TR/2001/REC-SVG-20010904/DTD/svg10.dtd">
<svg version="1.0" xmlns="http://www.w3.org/2000/svg"
 width="206.000000pt" height="287.000000pt" viewBox="0 0 206.000000 287.000000"
 preserveAspectRatio="xMidYMid meet">
<metadata>
Created by potrace 1.14, written by Peter Selinger 2001-2017
</metadata>
<g transform="translate(0.000000,287.000000) scale(0.100000,-0.100000)"
fill="#000000" stroke="none">
<path fill="#000000" stroke="none" d="M47 2822 l-47 -48 0 -69 c0 -94 7 -102
56 -77 22 11 56 27 76 35 l37 15 40 -114 c38 -107 41 -123 41 -222 l0 -107
-85 -85 -85 -85 0 -113 0 -114 76 -120 c42 -66 145 -214 230 -329 l154 -209
14 -103 c8 -56 18 -128 23 -160 l8 -58 63 -35 64 -35 -33 46 c-19 26 -37 49
-40 51 -4 2 -19 35 -34 73 -20 54 -25 83 -23 134 l3 64 116 -73 c82 -51 130
-74 163 -79 25 -4 49 -12 53 -18 8 -12 6 -172 -2 -198 -7 -22 -48 -39 -92 -39
-69 0 -27 -9 87 -19 l115 -10 47 29 47 29 53 -58 c48 -52 57 -69 96 -187 37
-113 42 -141 42 -219 0 -50 3 -141 7 -204 l6 -114 119 6 c66 3 122 7 125 10 2
3 -1 16 -8 29 -10 16 -15 91 -17 267 l-4 243 63 -43 c68 -46 359 -219 369
-219 6 0 93 171 88 175 -2 1 -23 15 -48 30 -25 15 -74 53 -110 83 -36 31 -66
56 -67 57 -1 0 -7 41 -13 90 -11 82 -18 101 -85 225 -72 133 -73 136 -65 185
5 28 9 55 9 61 1 14 137 64 174 64 15 0 30 7 33 15 4 8 12 15 18 15 17 0 49
37 69 78 l16 33 -90 120 c-69 93 -93 118 -103 110 -9 -8 -18 -5 -33 12 -47 52
-233 304 -233 315 0 7 -19 31 -42 52 -41 38 -42 40 -17 40 14 0 31 -6 39 -12
12 -11 12 -10 1 4 -7 10 -22 20 -33 24 -11 3 -16 9 -10 13 5 3 -25 55 -72 120
-75 106 -88 118 -166 167 -50 31 -99 71 -118 96 -71 91 -124 132 -385 296
l-98 62 -85 0 c-61 0 -103 -6 -147 -21 l-62 -22 -105 41 c-58 22 -112 43 -120
46 -10 4 -32 -11 -63 -42z"/>
<path fill="#ffffff" stroke="none" d="M1132 2235 l24 -59 -78 -264 c-43 -144
-104 -328 -136 -407 l-58 -145 -51 53 -52 52 59 105 60 105 0 121 c0 111 3
132 39 253 38 128 41 135 98 195 32 34 61 59 65 56 3 -3 17 -32 30 -65z"/>
</g>
</svg>
