<?xml version="1.0" standalone="no"?>
<!DOCTYPE svg PUBLIC "-//W3C//DTD SVG 20010904//EN"
 "http://www.w3.org/TR/2001/REC-SVG-20010904/DTD/svg10.dtd">
<svg version="1.0" xmlns="http://www.w3.org/2000/svg"
 width="22.000000pt" height="60.000000pt" viewBox="0 0 22.000000 60.000000"
 preserveAspectRatio="xMidYMid meet">
<metadata>
Created by potrace 1.14, written by Peter Selinger 2001-2017
</metadata>
<g transform="translate(0.000000,60.000000) scale(0.100000,-0.100000)"
fill="#000000" stroke="none">
<path fill="#000000" stroke="none" d="M144 578 c-17 -13 -56 -46 -88 -74 -53
-48 -56 -52 -34 -57 23 -6 23 -8 22 -139 0 -115 -3 -140 -22 -181 -12 -27 -22
-55 -22 -63 0 -21 30 -64 45 -64 17 0 27 41 14 56 -6 8 -6 21 2 40 6 16 17 66
24 110 10 57 26 107 56 165 45 90 79 181 79 211 0 26 -39 23 -76 -4z"/>
</g>
</svg>
