<?xml version="1.0" standalone="no"?>
<!DOCTYPE svg PUBLIC "-//W3C//DTD SVG 20010904//EN"
 "http://www.w3.org/TR/2001/REC-SVG-20010904/DTD/svg10.dtd">
<svg version="1.0" xmlns="http://www.w3.org/2000/svg"
 width="123.000000pt" height="352.000000pt" viewBox="0 0 123.000000 352.000000"
 preserveAspectRatio="xMidYMid meet">
<metadata>
Created by potrace 1.14, written by Peter Selinger 2001-2017
</metadata>
<g transform="translate(0.000000,352.000000) scale(0.100000,-0.100000)"
fill="#000000" stroke="none">
<path fill="#000000" stroke="none" d="M965 3426 l-57 -96 -2 -195 -1 -195
-86 0 c-80 0 -87 -2 -111 -27 -38 -42 -84 -270 -76 -383 l3 -44 -95 -23 c-95
-22 -185 -30 -193 -15 -3 4 -17 75 -31 157 -33 184 -52 226 -114 248 -44 17
-45 17 -112 -13 -38 -17 -73 -30 -79 -30 -6 0 -11 -9 -11 -20 0 -27 21 -70 35
-70 11 0 166 -382 165 -407 0 -7 -11 -15 -25 -19 -32 -8 -31 -14 2 -46 26 -23
38 -26 143 -32 144 -7 169 -13 164 -34 -3 -10 -1 -89 4 -177 6 -118 5 -177 -5
-230 -30 -164 -58 -253 -113 -365 l-56 -115 31 -250 c36 -278 82 -477 162
-690 l45 -120 -11 -86 c-16 -123 -15 -126 17 -134 20 -4 50 4 106 30 42 19 91
35 107 35 29 0 30 -2 24 -31 -9 -42 4 -49 90 -49 115 0 140 7 153 44 7 17 30
277 52 596 21 317 44 578 50 595 7 17 20 92 29 169 20 156 16 190 -51 461 -43
174 -43 284 0 471 17 73 34 163 37 201 7 70 7 70 -19 77 -30 7 -29 -4 -17 185
6 84 14 136 21 141 9 5 5 32 -14 104 l-27 96 39 68 c28 47 47 100 66 180 15
63 24 117 21 120 -4 4 -51 9 -105 10 l-98 4 -57 -96z"/>
</g>
</svg>
