<?xml version="1.0" standalone="no"?>
<!DOCTYPE svg PUBLIC "-//W3C//DTD SVG 20010904//EN"
 "http://www.w3.org/TR/2001/REC-SVG-20010904/DTD/svg10.dtd">
<svg version="1.0" xmlns="http://www.w3.org/2000/svg"
 width="18.000000pt" height="20.000000pt" viewBox="0 0 18.000000 20.000000"
 preserveAspectRatio="xMidYMid meet">
<metadata>
Created by potrace 1.14, written by Peter Selinger 2001-2017
</metadata>
<g transform="translate(0.000000,20.000000) scale(0.100000,-0.100000)"
fill="#000000" stroke="none">
<path fill="#000000" stroke="none" d="M93 193 c-7 -3 -13 -15 -13 -28 0 -14
-13 -32 -34 -48 -36 -28 -53 -81 -33 -106 10 -11 13 -9 17 9 8 33 26 36 34 5
4 -14 11 -25 16 -25 6 0 6 10 -1 26 -5 15 -8 28 -7 29 2 1 27 -1 56 -4 41 -6
52 -5 52 7 0 18 -32 72 -42 72 -4 0 -8 11 -8 24 0 26 -19 46 -37 39z"/>
</g>
</svg>
