<?xml version="1.0" standalone="no"?>
<!DOCTYPE svg PUBLIC "-//W3C//DTD SVG 20010904//EN"
 "http://www.w3.org/TR/2001/REC-SVG-20010904/DTD/svg10.dtd">
<svg version="1.0" xmlns="http://www.w3.org/2000/svg"
 width="76.000000pt" height="242.000000pt" viewBox="0 0 76.000000 242.000000"
 preserveAspectRatio="xMidYMid meet">
<metadata>
Created by potrace 1.14, written by Peter Selinger 2001-2017
</metadata>
<g transform="translate(0.000000,242.000000) scale(0.100000,-0.100000)"
fill="#000000" stroke="none">
<path fill="#000000" stroke="none" d="M200 2380 c-17 -34 -18 -40 -5 -40 19
0 20 4 -16 -116 l-31 -104 22 -103 c12 -56 37 -163 56 -237 l36 -135 73 -43
c44 -25 115 -55 175 -72 87 -25 108 -35 153 -76 l52 -47 6 120 c4 65 9 129 13
140 4 14 -1 37 -14 62 -26 51 -26 51 10 51 36 0 36 4 16 152 -8 62 -18 104
-29 116 -9 10 -17 29 -17 43 0 13 -32 77 -71 142 -62 102 -71 122 -66 152 l6
35 -174 0 -175 0 -20 -40z"/>
<path fill="#000000" stroke="none" d="M141 2239 c-6 -18 -11 -37 -10 -43 0
-6 7 7 15 28 8 22 12 41 10 43 -2 2 -9 -10 -15 -28z"/>
<path fill="#000000" stroke="none" d="M107 1992 c-3 -17 -4 -83 0 -146 6
-109 5 -116 -19 -158 -14 -23 -23 -48 -21 -54 2 -6 -12 -103 -31 -216 l-35
-204 39 -347 c21 -191 41 -351 45 -357 3 -5 34 -10 68 -11 101 -2 110 -7 124
-69 25 -104 45 -284 39 -341 -4 -31 -4 -62 -1 -70 6 -16 22 -15 264 6 154 13
183 23 159 52 -10 12 -115 48 -214 73 l-41 10 -7 108 c-4 59 -9 133 -13 165
l-6 57 51 0 51 0 24 53 c29 64 80 272 104 430 10 64 17 117 15 117 -2 0 -15
-6 -31 -14 -24 -13 -51 -12 -222 5 -107 11 -203 22 -215 24 -25 5 -63 111 -95
263 l-22 103 22 197 22 197 -24 79 c-22 73 -24 77 -30 48z"/>
</g>
</svg>
