<?xml version="1.0" standalone="no"?>
<!DOCTYPE svg PUBLIC "-//W3C//DTD SVG 20010904//EN"
 "http://www.w3.org/TR/2001/REC-SVG-20010904/DTD/svg10.dtd">
<svg version="1.0" xmlns="http://www.w3.org/2000/svg"
 width="17.000000pt" height="31.000000pt" viewBox="0 0 17.000000 31.000000"
 preserveAspectRatio="xMidYMid meet">
<metadata>
Created by potrace 1.14, written by Peter Selinger 2001-2017
</metadata>
<g transform="translate(0.000000,31.000000) scale(0.100000,-0.100000)"
fill="#000000" stroke="none">
<path fill="#000000" stroke="none" d="M31 300 c-7 -4 -11 -20 -10 -36 2 -16
-1 -35 -5 -43 -5 -7 -9 -36 -9 -63 0 -45 3 -51 31 -68 17 -11 38 -36 47 -56
13 -31 17 -34 30 -24 9 7 15 29 15 51 0 29 3 37 14 33 23 -9 29 15 16 62 -10
36 -19 48 -46 59 -27 11 -32 18 -31 45 2 24 -3 34 -19 40 -11 5 -26 5 -33 0z"/>
</g>
</svg>
