<?xml version="1.0" standalone="no"?>
<!DOCTYPE svg PUBLIC "-//W3C//DTD SVG 20010904//EN"
 "http://www.w3.org/TR/2001/REC-SVG-20010904/DTD/svg10.dtd">
<svg version="1.0" xmlns="http://www.w3.org/2000/svg"
 width="119.000000pt" height="276.000000pt" viewBox="0 0 119.000000 276.000000"
 preserveAspectRatio="xMidYMid meet">
<metadata>
Created by potrace 1.14, written by Peter Selinger 2001-2017
</metadata>
<g transform="translate(0.000000,276.000000) scale(0.100000,-0.100000)"
fill="#000000" stroke="none">
<path fill="#000000" stroke="none" d="M247 2753 c-42 -5 -60 -30 -93 -137
-15 -49 -27 -65 -70 -99 -30 -23 -60 -57 -69 -78 -17 -37 -17 -38 5 -71 13
-18 50 -65 82 -105 58 -71 58 -72 64 -150 3 -43 12 -109 20 -148 17 -82 115
-351 150 -412 23 -39 24 -50 23 -200 -1 -87 -4 -169 -8 -183 -4 -16 -25 -34
-61 -53 -54 -28 -55 -30 -73 -95 -15 -61 -16 -73 -3 -127 8 -33 47 -128 86
-210 70 -147 72 -150 86 -124 31 60 63 182 69 268 8 98 12 105 72 142 48 29
90 64 176 147 l67 65 0 60 c0 33 5 77 12 99 10 34 15 39 37 36 22 -2 27 -9 29
-37 3 -31 11 -19 94 135 49 93 123 236 164 318 l74 148 -22 41 c-14 24 -89
100 -187 187 -163 146 -165 147 -230 160 -36 7 -107 25 -157 41 l-91 29 -11
82 c-9 58 -20 94 -39 123 -35 53 -133 155 -147 153 -6 -1 -28 -3 -49 -5z"/>
<path fill="#000000" stroke="none" d="M1081 1227 c-29 -34 -61 -83 -71 -108
-17 -47 -55 -104 -112 -172 -49 -58 -54 -115 -50 -554 l4 -381 34 -4 c69 -8
88 52 98 317 4 77 13 172 22 210 8 39 19 99 24 135 19 134 31 168 66 192 49
33 73 101 84 237 9 110 9 114 -16 152 -13 21 -25 39 -27 38 -1 0 -26 -28 -56
-62z"/>
</g>
</svg>
