<?xml version="1.0" standalone="no"?>
<!DOCTYPE svg PUBLIC "-//W3C//DTD SVG 20010904//EN"
 "http://www.w3.org/TR/2001/REC-SVG-20010904/DTD/svg10.dtd">
<svg version="1.0" xmlns="http://www.w3.org/2000/svg"
 width="20.000000pt" height="36.000000pt" viewBox="0 0 20.000000 36.000000"
 preserveAspectRatio="xMidYMid meet">
<metadata>
Created by potrace 1.14, written by Peter Selinger 2001-2017
</metadata>
<g transform="translate(0.000000,36.000000) scale(0.100000,-0.100000)"
fill="#000000" stroke="none">
<path fill="#000000" stroke="none" d="M50 332 c0 -17 -10 -38 -25 -52 -23
-21 -25 -31 -25 -106 0 -67 3 -82 14 -78 9 4 19 -9 31 -40 13 -35 23 -46 39
-46 11 0 32 -3 45 -7 l23 -6 -6 114 -6 114 21 -42 c19 -41 39 -57 39 -30 0 23
-38 138 -51 153 -12 14 -81 54 -94 54 -3 0 -5 -13 -5 -28z"/>
</g>
</svg>
