<?xml version="1.0" standalone="no"?>
<!DOCTYPE svg PUBLIC "-//W3C//DTD SVG 20010904//EN"
 "http://www.w3.org/TR/2001/REC-SVG-20010904/DTD/svg10.dtd">
<svg version="1.0" xmlns="http://www.w3.org/2000/svg"
 width="34.000000pt" height="81.000000pt" viewBox="0 0 34.000000 81.000000"
 preserveAspectRatio="xMidYMid meet">
<metadata>
Created by potrace 1.14, written by Peter Selinger 2001-2017
</metadata>
<g transform="translate(0.000000,81.000000) scale(0.100000,-0.100000)"
fill="#000000" stroke="none">
<path fill="#000000" stroke="none" d="M153 791 c-5 -19 -30 -31 -66 -31 -26
0 -87 -43 -87 -61 0 -9 7 -22 15 -29 8 -7 15 -21 15 -31 0 -10 8 -23 19 -28
18 -10 18 -14 -5 -127 -23 -114 -24 -117 -5 -130 17 -12 18 -17 5 -71 -8 -32
-14 -100 -14 -151 0 -83 2 -93 17 -90 10 2 22 17 27 33 5 17 18 47 28 68 11
21 24 51 28 65 7 21 8 15 9 -30 1 -43 5 -59 19 -67 12 -7 17 -22 17 -58 0 -47
1 -48 32 -51 31 -3 32 -3 23 28 -5 17 -6 53 -3 79 4 33 1 58 -9 78 -12 25 -12
38 -1 88 7 33 18 90 25 128 6 37 16 67 22 67 22 0 34 -16 38 -48 3 -29 5 -32
20 -20 14 11 15 21 6 73 -5 33 -21 88 -36 123 -21 50 -31 62 -49 62 -29 0 -28
5 2 55 32 51 31 61 -5 80 -41 21 -81 20 -87 -4z"/>
</g>
</svg>
