<?xml version="1.0" standalone="no"?>
<!DOCTYPE svg PUBLIC "-//W3C//DTD SVG 20010904//EN"
 "http://www.w3.org/TR/2001/REC-SVG-20010904/DTD/svg10.dtd">
<svg version="1.0" xmlns="http://www.w3.org/2000/svg"
 width="37.000000pt" height="217.000000pt" viewBox="0 0 37.000000 217.000000"
 preserveAspectRatio="xMidYMid meet">
<metadata>
Created by potrace 1.14, written by Peter Selinger 2001-2017
</metadata>
<g transform="translate(0.000000,217.000000) scale(0.100000,-0.100000)"
fill="#000000" stroke="none">
<path fill="#000000" stroke="none" d="M231 2088 c-59 -78 -62 -84 -55 -122 3
-23 12 -57 19 -77 l13 -36 -74 -89 c-41 -49 -82 -102 -91 -119 -9 -16 -21 -33
-27 -38 -7 -5 -3 -14 13 -26 l25 -19 -28 -43 -29 -43 17 -80 c16 -72 23 -86
62 -126 41 -42 45 -53 68 -155 l24 -110 -25 -21 -26 -21 7 -229 6 -229 107
-253 c58 -139 108 -250 110 -248 5 5 26 2147 21 2151 -2 1 -19 5 -38 9 -35 6
-37 5 -99 -76z"/>
</g>
</svg>
