<?xml version="1.0" standalone="no"?>
<!DOCTYPE svg PUBLIC "-//W3C//DTD SVG 20010904//EN"
 "http://www.w3.org/TR/2001/REC-SVG-20010904/DTD/svg10.dtd">
<svg version="1.0" xmlns="http://www.w3.org/2000/svg"
 width="31.000000pt" height="76.000000pt" viewBox="0 0 31.000000 76.000000"
 preserveAspectRatio="xMidYMid meet">
<metadata>
Created by potrace 1.14, written by Peter Selinger 2001-2017
</metadata>
<g transform="translate(0.000000,76.000000) scale(0.100000,-0.100000)"
fill="#000000" stroke="none">
<path fill="#000000" stroke="none" d="M84 739 c-12 -14 -14 -29 -9 -73 7 -54
7 -55 -31 -90 -29 -27 -37 -41 -37 -68 0 -18 1 -98 2 -177 2 -119 5 -150 21
-180 23 -45 106 -126 143 -140 27 -11 29 -9 57 50 16 34 40 74 54 88 l24 26
-42 95 c-24 52 -51 128 -61 168 -11 47 -24 78 -36 85 -17 11 -16 14 22 53 29
30 42 52 46 81 5 36 2 42 -27 63 -47 33 -105 42 -126 19z"/>
</g>
</svg>
