<?xml version="1.0" standalone="no"?>
<!DOCTYPE svg PUBLIC "-//W3C//DTD SVG 20010904//EN"
 "http://www.w3.org/TR/2001/REC-SVG-20010904/DTD/svg10.dtd">
<svg version="1.0" xmlns="http://www.w3.org/2000/svg"
 width="39.000000pt" height="88.000000pt" viewBox="0 0 39.000000 88.000000"
 preserveAspectRatio="xMidYMid meet">
<metadata>
Created by potrace 1.14, written by Peter Selinger 2001-2017
</metadata>
<g transform="translate(0.000000,88.000000) scale(0.100000,-0.100000)"
fill="#000000" stroke="none">
<path fill="#000000" stroke="none" d="M266 873 c-27 -3 -74 -26 -150 -75 -61
-39 -112 -72 -113 -72 -1 -1 34 -66 78 -145 l79 -143 5 -96 c3 -54 8 -125 11
-160 l6 -63 75 -59 c53 -42 84 -60 104 -60 34 0 34 -7 13 165 -13 105 -14 186
-9 423 l7 292 -34 -2 c-18 -1 -51 -3 -72 -5z"/>
</g>
</svg>
