<?xml version="1.0" standalone="no"?>
<!DOCTYPE svg PUBLIC "-//W3C//DTD SVG 20010904//EN"
 "http://www.w3.org/TR/2001/REC-SVG-20010904/DTD/svg10.dtd">
<svg version="1.0" xmlns="http://www.w3.org/2000/svg"
 width="17.000000pt" height="25.000000pt" viewBox="0 0 17.000000 25.000000"
 preserveAspectRatio="xMidYMid meet">
<metadata>
Created by potrace 1.14, written by Peter Selinger 2001-2017
</metadata>
<g transform="translate(0.000000,25.000000) scale(0.100000,-0.100000)"
fill="#000000" stroke="none">
<path fill="#000000" stroke="none" d="M40 213 c-6 -21 -15 -47 -20 -58 -5
-11 -11 -48 -13 -82 l-5 -61 49 -4 c51 -3 59 3 59 43 0 14 7 19 30 19 17 0 30
5 30 10 0 6 -7 10 -15 10 -16 0 -45 59 -51 105 -6 46 -12 55 -33 55 -14 0 -23
-11 -31 -37z"/>
</g>
</svg>
