<?xml version="1.0" standalone="no"?>
<!DOCTYPE svg PUBLIC "-//W3C//DTD SVG 20010904//EN"
 "http://www.w3.org/TR/2001/REC-SVG-20010904/DTD/svg10.dtd">
<svg version="1.0" xmlns="http://www.w3.org/2000/svg"
 width="37.000000pt" height="155.000000pt" viewBox="0 0 37.000000 155.000000"
 preserveAspectRatio="xMidYMid meet">
<metadata>
Created by potrace 1.14, written by Peter Selinger 2001-2017
</metadata>
<g transform="translate(0.000000,155.000000) scale(0.100000,-0.100000)"
fill="#000000" stroke="none">
<path fill="#000000" stroke="none" d="M105 1545 c-5 -2 -22 -6 -37 -9 -32 -7
-49 -50 -41 -101 5 -31 13 -40 54 -61 46 -23 52 -31 108 -143 l60 -118 -68
-144 c-37 -79 -84 -170 -104 -201 l-37 -58 12 -128 12 -129 -33 -88 -34 -88
17 -54 c10 -30 34 -94 54 -141 34 -81 37 -85 43 -57 4 17 7 62 8 102 1 82 33
169 71 196 26 18 38 74 39 181 1 51 5 72 17 81 14 10 16 36 15 188 -2 193 -5
183 61 168 35 -8 37 -7 43 19 5 21 -2 41 -24 78 -26 42 -31 59 -31 115 0 80
-32 161 -77 194 -27 19 -31 28 -35 88 -7 87 -41 127 -93 110z"/>
</g>
</svg>
