<?xml version="1.0" standalone="no"?>
<!DOCTYPE svg PUBLIC "-//W3C//DTD SVG 20010904//EN"
 "http://www.w3.org/TR/2001/REC-SVG-20010904/DTD/svg10.dtd">
<svg version="1.0" xmlns="http://www.w3.org/2000/svg"
 width="21.000000pt" height="34.000000pt" viewBox="0 0 21.000000 34.000000"
 preserveAspectRatio="xMidYMid meet">
<metadata>
Created by potrace 1.14, written by Peter Selinger 2001-2017
</metadata>
<g transform="translate(0.000000,34.000000) scale(0.100000,-0.100000)"
fill="#000000" stroke="none">
<path fill="#000000" stroke="none" d="M49 333 c-13 -3 -15 -13 -11 -48 3 -32
-1 -56 -17 -87 -11 -25 -21 -55 -21 -67 0 -22 3 -23 77 -20 l77 4 28 -60 c16
-33 27 -49 24 -35 -3 14 -8 53 -12 87 -5 52 -11 66 -40 94 -19 18 -34 43 -34
55 0 12 -3 36 -6 53 -7 31 -20 36 -65 24z"/>
</g>
</svg>
