<?xml version="1.0" standalone="no"?>
<!DOCTYPE svg PUBLIC "-//W3C//DTD SVG 20010904//EN"
 "http://www.w3.org/TR/2001/REC-SVG-20010904/DTD/svg10.dtd">
<svg version="1.0" xmlns="http://www.w3.org/2000/svg"
 width="40.000000pt" height="44.000000pt" viewBox="0 0 40.000000 44.000000"
 preserveAspectRatio="xMidYMid meet">
<metadata>
Created by potrace 1.14, written by Peter Selinger 2001-2017
</metadata>
<g transform="translate(0.000000,44.000000) scale(0.100000,-0.100000)"
fill="#000000" stroke="none">
<path fill="#000000" stroke="none" d="M190 433 c-23 -9 -30 -24 -30 -69 0
-39 -3 -44 -51 -75 -64 -40 -94 -101 -103 -205 l-7 -72 51 -7 c28 -4 53 -5 54
-4 2 2 22 30 46 62 27 37 52 59 69 63 14 3 34 7 43 9 24 4 36 -13 44 -63 4
-23 11 -42 17 -42 5 0 25 17 44 37 34 35 35 39 31 100 -3 55 -8 67 -38 99 -19
20 -48 42 -63 50 -26 14 -28 18 -22 58 7 42 6 44 -26 55 -35 12 -37 12 -59 4z"/>
</g>
</svg>
