<?xml version="1.0" standalone="no"?>
<!DOCTYPE svg PUBLIC "-//W3C//DTD SVG 20010904//EN"
 "http://www.w3.org/TR/2001/REC-SVG-20010904/DTD/svg10.dtd">
<svg version="1.0" xmlns="http://www.w3.org/2000/svg"
 width="55.000000pt" height="79.000000pt" viewBox="0 0 55.000000 79.000000"
 preserveAspectRatio="xMidYMid meet">
<metadata>
Created by potrace 1.14, written by Peter Selinger 2001-2017
</metadata>
<g transform="translate(0.000000,79.000000) scale(0.100000,-0.100000)"
fill="#000000" stroke="none">
<path fill="#000000" stroke="none" d="M136 738 c-21 -32 -37 -72 -41 -100 -7
-45 -6 -47 20 -54 15 -4 50 -2 78 5 27 6 52 10 54 7 5 -5 -19 -183 -27 -196
-4 -6 -38 -15 -76 -21 -38 -5 -80 -15 -93 -22 -34 -17 -53 -69 -46 -125 11
-87 13 -90 53 -101 52 -15 62 -14 62 8 0 30 11 51 31 62 18 9 19 7 13 -29 -4
-25 -2 -42 5 -46 6 -4 11 -22 11 -39 0 -18 9 -45 20 -62 17 -26 20 -27 25 -10
4 11 11 30 15 42 6 14 5 25 0 28 -6 4 -10 22 -10 41 0 31 2 34 19 25 15 -9 27
1 81 68 63 79 63 79 120 85 l58 7 11 46 c7 25 10 48 7 51 -3 2 -38 -17 -77
-44 -91 -62 -275 -138 -284 -117 -13 34 -4 52 29 63 47 15 172 100 218 147 21
21 59 61 86 88 l49 50 -14 50 c-13 48 -12 91 2 128 7 16 -6 17 -179 17 l-186
0 -34 -52z"/>
</g>
</svg>
