<?xml version="1.0" standalone="no"?>
<!DOCTYPE svg PUBLIC "-//W3C//DTD SVG 20010904//EN"
 "http://www.w3.org/TR/2001/REC-SVG-20010904/DTD/svg10.dtd">
<svg version="1.0" xmlns="http://www.w3.org/2000/svg"
 width="384.000000pt" height="172.000000pt" viewBox="0 0 384.000000 172.000000"
 preserveAspectRatio="xMidYMid meet">
<metadata>
Created by potrace 1.14, written by Peter Selinger 2001-2017
</metadata>
<g transform="translate(0.000000,172.000000) scale(0.100000,-0.100000)"
fill="#000000" stroke="none">
<path fill="#000000" stroke="none" d="M3457 1664 c-31 -31 -60 -67 -63 -80
-9 -37 -21 -29 -28 20 -6 40 -10 44 -47 55 -23 7 -47 15 -53 17 -7 3 -25 -11
-40 -30 -26 -35 -27 -38 -36 -266 -7 -173 -13 -237 -25 -260 -8 -16 -18 -51
-22 -77 -4 -34 -16 -57 -42 -86 -19 -21 -56 -80 -83 -130 -44 -86 -47 -90 -48
-57 l-1 35 -24 -30 c-18 -22 -23 -25 -20 -10 3 11 30 155 61 320 45 240 54
311 49 354 -4 30 -9 60 -12 68 -13 34 -121 -1 -161 -52 -33 -42 -60 -138 -107
-379 -24 -124 -50 -236 -58 -248 -8 -13 -30 -53 -50 -89 l-37 -67 -62 14 c-35
7 -100 13 -144 14 l-81 0 -7 -60 c-4 -33 -8 -60 -10 -60 -4 0 -249 -87 -269
-95 -12 -5 10 36 56 107 l75 116 -52 50 -51 50 -335 -229 c-226 -154 -337
-225 -342 -217 -4 7 -3 17 2 23 5 6 14 40 20 77 l12 67 153 110 c136 99 171
130 330 301 97 105 185 208 195 228 l19 37 -32 32 c-17 18 -39 35 -49 39 -12
3 -113 -50 -306 -164 -158 -93 -312 -184 -342 -202 l-55 -32 25 28 c25 27 24
27 -22 -5 -27 -18 -48 -30 -48 -28 0 3 104 101 231 218 127 118 261 252 299
299 l69 85 -24 20 c-13 11 -40 29 -60 39 l-36 20 -190 -98 c-145 -75 -189 -94
-189 -81 0 11 -5 15 -14 12 -14 -6 -26 30 -26 79 0 19 -5 24 -24 24 -29 0
-283 -64 -319 -81 -15 -7 -44 -44 -74 -96 -62 -110 -77 -127 -103 -113 -14 8
-21 7 -27 -4 -6 -11 -28 1 -99 53 -50 37 -132 89 -182 114 -109 57 -152 91
-152 121 0 16 -21 38 -71 76 l-71 54 -114 -57 -114 -57 0 -39 c0 -22 18 -358
40 -747 22 -389 40 -709 40 -711 0 -6 3192 9 3344 16 l149 6 132 320 131 320
-59 46 c-33 26 -77 52 -97 59 -26 9 -37 17 -33 26 3 8 -6 24 -21 35 l-26 20 0
272 c0 251 -2 281 -25 392 -31 148 -46 205 -54 205 -3 0 -32 -25 -64 -56z"/>
</g>
</svg>
