<?xml version="1.0" standalone="no"?>
<!DOCTYPE svg PUBLIC "-//W3C//DTD SVG 20010904//EN"
 "http://www.w3.org/TR/2001/REC-SVG-20010904/DTD/svg10.dtd">
<svg version="1.0" xmlns="http://www.w3.org/2000/svg"
 width="45.000000pt" height="152.000000pt" viewBox="0 0 45.000000 152.000000"
 preserveAspectRatio="xMidYMid meet">
<metadata>
Created by potrace 1.14, written by Peter Selinger 2001-2017
</metadata>
<g transform="translate(0.000000,152.000000) scale(0.100000,-0.100000)"
fill="#000000" stroke="none">
<path fill="#000000" stroke="none" d="M202 1460 c-28 -49 -32 -68 -32 -129
l0 -71 -74 -78 c-72 -76 -73 -78 -79 -142 -4 -41 0 -120 12 -217 14 -113 17
-163 9 -195 -6 -25 -7 -93 -3 -163 7 -125 -9 -388 -26 -432 -12 -33 -5 -39 25
-25 33 15 64 115 101 322 15 85 31 159 35 163 4 4 19 3 33 -2 32 -12 35 -43
11 -114 -14 -42 -14 -53 -1 -114 8 -38 20 -100 27 -140 l12 -72 46 -15 c25 -9
64 -16 86 -16 l41 0 -49 43 c-40 35 -48 47 -41 63 7 18 16 159 31 497 4 95 11
150 18 152 6 2 23 6 37 9 26 6 26 6 14 48 -8 24 -21 104 -30 178 -19 149 -21
155 -72 211 -36 40 -36 40 -25 90 7 28 12 79 12 114 l0 63 -43 15 -44 15 -31
-58z"/>
</g>
</svg>
