<?xml version="1.0" standalone="no"?>
<!DOCTYPE svg PUBLIC "-//W3C//DTD SVG 20010904//EN"
 "http://www.w3.org/TR/2001/REC-SVG-20010904/DTD/svg10.dtd">
<svg version="1.0" xmlns="http://www.w3.org/2000/svg"
 width="157.000000pt" height="125.000000pt" viewBox="0 0 157.000000 125.000000"
 preserveAspectRatio="xMidYMid meet">
<metadata>
Created by potrace 1.14, written by Peter Selinger 2001-2017
</metadata>
<g transform="translate(0.000000,125.000000) scale(0.100000,-0.100000)"
fill="#000000" stroke="none">
<path fill="#000000" stroke="none" d="M890 1232 c-18 -15 -21 -22 -12 -38 7
-14 7 -26 -4 -44 -18 -33 -17 -60 2 -74 14 -10 14 -16 1 -52 -15 -46 -9 -75
23 -97 23 -16 25 -31 22 -129 l-2 -58 -48 0 c-27 0 -51 -3 -54 -6 -4 -3 0 -17
8 -32 24 -47 18 -72 -33 -119 l-48 -43 -9 27 c-5 16 -17 37 -27 49 -23 25 -24
38 -3 70 16 24 16 26 -6 49 -23 25 -60 34 -60 15 0 -5 5 -10 10 -10 6 0 10 -3
10 -7 0 -5 -20 -8 -44 -8 -25 0 -47 -3 -51 -6 -8 -9 -9 -71 -1 -96 6 -19 4
-23 -13 -23 -11 0 -28 -14 -41 -36 -25 -39 -71 -208 -61 -221 3 -4 -2 -1 -11
6 -9 7 -22 10 -28 6 -6 -4 -10 4 -10 19 0 14 -4 26 -8 26 -16 0 -42 -36 -42
-58 0 -21 -4 -22 -110 -22 -65 0 -110 -4 -110 -10 0 -17 136 -223 154 -234 10
-6 32 -23 48 -38 34 -32 72 -36 106 -12 15 10 27 12 35 7 17 -13 68 -15 81 -4
7 6 10 35 8 73 -3 62 -5 64 -40 83 -22 12 -37 27 -36 38 0 9 1 46 2 81 2 50 7
71 28 101 18 28 24 46 20 66 -7 36 21 57 64 51 39 -6 64 -41 58 -83 -4 -26 -1
-32 29 -44 18 -8 33 -19 33 -24 0 -17 27 -13 34 4 3 9 21 25 41 36 28 17 35
27 35 52 0 18 0 48 0 68 0 27 5 38 24 49 21 11 30 10 63 -7 36 -19 38 -23 43
-77 4 -50 8 -58 34 -71 15 -8 46 -15 67 -15 38 0 39 -1 39 -33 0 -38 25 -67
58 -67 26 0 25 1 11 -73 -7 -31 -19 -63 -28 -71 -12 -11 -16 -27 -13 -50 l4
-34 155 -7 c85 -4 157 -5 160 -1 3 3 8 48 11 101 4 87 6 95 23 90 11 -4 19 -2
19 4 0 15 -82 141 -92 141 -5 0 -6 15 -3 33 9 45 -14 68 -58 61 -51 -9 -53
-10 -65 -52 -11 -38 -36 -60 -46 -44 -3 5 0 26 6 48 5 21 12 54 15 72 3 18 9
35 14 38 12 7 12 91 0 99 -6 3 -4 22 5 47 7 22 14 52 14 66 0 33 -100 181
-139 207 -30 19 -31 23 -31 90 0 73 -24 135 -53 135 -7 0 -30 9 -52 20 -49 25
-96 26 -125 2z"/>
<path fill="#ffffff" stroke="none" d="M1110 700 c0 -5 -2 -10 -4 -10 -3 0 -8
5 -11 10 -3 6 -1 10 4 10 6 0 11 -4 11 -10z"/>
<path fill="#ffffff" stroke="none" d="M1151 480 c28 0 39 -4 39 -15 0 -16
-29 -19 -93 -9 -31 6 -35 9 -26 21 7 8 19 11 26 8 8 -3 32 -5 54 -5z"/>
<path fill="#ffffff" stroke="none" d="M326 266 c1 0 4 -25 5 -55 4 -46 1 -55
-18 -68 -21 -14 -23 -14 -23 5 0 12 -8 22 -22 25 -47 12 -61 31 -54 71 l7 38
52 -7 c29 -4 53 -8 53 -9z"/>
<path fill="#000000" stroke="none" d="M360 672 c0 -20 33 -102 41 -102 13 0
11 84 -3 98 -14 14 -38 16 -38 4z"/>
<path fill="#000000" stroke="none" d="M202 537 l-22 -23 23 -22 c13 -12 28
-22 34 -22 6 0 16 -7 23 -15 7 -8 27 -15 44 -15 39 0 96 53 96 90 0 23 -2 22
-34 -13 -47 -52 -95 -47 -125 11 l-17 33 -22 -24z"/>
<path fill="#000000" stroke="none" d="M1550 411 c0 -11 5 -23 10 -26 6 -4 10
5 10 19 0 14 -4 26 -10 26 -5 0 -10 -9 -10 -19z"/>
<path fill="#000000" stroke="none" d="M30 155 c0 -8 -7 -15 -15 -15 -25 0
-18 -55 11 -89 23 -28 32 -31 79 -31 30 0 57 5 61 11 6 11 -112 139 -128 139
-4 0 -8 -7 -8 -15z"/>
<path fill="#000000" stroke="none" d="M1142 43 c3 -14 13 -18 43 -17 22 1 93
-5 158 -14 64 -8 120 -13 123 -9 3 3 -2 17 -13 31 -18 25 -19 25 -166 26 -136
0 -148 -1 -145 -17z"/>
</g>
</svg>
