<?xml version="1.0" standalone="no"?>
<!DOCTYPE svg PUBLIC "-//W3C//DTD SVG 20010904//EN"
 "http://www.w3.org/TR/2001/REC-SVG-20010904/DTD/svg10.dtd">
<svg version="1.0" xmlns="http://www.w3.org/2000/svg"
 width="174.000000pt" height="228.000000pt" viewBox="0 0 174.000000 228.000000"
 preserveAspectRatio="xMidYMid meet">
<metadata>
Created by potrace 1.14, written by Peter Selinger 2001-2017
</metadata>
<g transform="translate(0.000000,228.000000) scale(0.100000,-0.100000)"
fill="#000000" stroke="none">
<path fill="#000000" stroke="none" d="M583 2262 c-57 -14 -81 -25 -116 -57
-37 -34 -45 -49 -57 -103 -12 -56 -11 -66 6 -103 l18 -41 -43 -41 -43 -40 17
-81 c14 -71 23 -90 68 -146 68 -85 116 -109 195 -99 31 3 94 17 140 29 98 27
111 43 86 112 -16 47 -10 58 31 61 27 2 31 -3 70 -96 23 -53 60 -124 83 -157
41 -58 56 -120 33 -134 -5 -4 -47 36 -93 88 -93 106 -103 110 -186 75 l-50
-21 84 -133 c46 -73 84 -135 84 -139 0 -3 -10 -6 -23 -6 -20 0 -35 22 -97 133
l-73 132 -86 -8 c-66 -7 -90 -13 -103 -29 -21 -23 -47 -108 -83 -268 -29 -129
-31 -147 -20 -210 l7 -44 -35 29 c-48 41 -85 142 -67 186 15 35 17 35 40 7 10
-13 20 -21 23 -18 2 3 18 93 34 200 l31 195 -21 35 c-11 19 -38 57 -60 83
l-40 48 -33 -32 c-18 -18 -32 -35 -30 -38 2 -3 -18 -24 -44 -46 -31 -27 -66
-74 -104 -140 -31 -55 -70 -116 -86 -135 -29 -35 -30 -40 -36 -170 l-7 -135
61 -29 c62 -29 72 -43 72 -98 0 -24 9 -32 68 -62 63 -32 112 -80 156 -154 5
-8 0 -53 -9 -101 -16 -79 -17 -89 -2 -116 12 -23 15 -25 15 -10 -1 19 39 171
49 188 2 4 16 -2 30 -13 14 -11 32 -20 39 -20 11 0 14 -21 14 -92 l1 -93 57
-61 c36 -38 84 -75 130 -99 l72 -39 0 -48 c0 -48 1 -48 48 -71 30 -15 46 -28
44 -39 -3 -17 4 -18 168 -38 134 -17 479 17 587 57 l71 27 -59 69 c-32 37 -59
72 -59 77 0 5 5 20 12 34 10 23 7 31 -25 72 -21 26 -37 54 -37 61 0 17 69 399
76 425 4 14 14 12 81 -18 41 -19 78 -32 81 -29 7 6 10 4 -71 51 l-69 39 30 9
c27 8 31 14 42 72 l12 63 -33 41 c-24 29 -55 51 -100 72 -51 23 -69 37 -82 63
-40 85 -87 134 -166 175 l-77 40 -17 71 c-14 59 -27 82 -76 142 -32 40 -102
114 -155 165 -82 80 -96 97 -96 125 0 18 -7 76 -17 130 l-17 98 -82 69 c-46
39 -89 70 -96 69 -7 -1 -45 -8 -85 -17z"/>
</g>
</svg>
