<?xml version="1.0" standalone="no"?>
<!DOCTYPE svg PUBLIC "-//W3C//DTD SVG 20010904//EN"
 "http://www.w3.org/TR/2001/REC-SVG-20010904/DTD/svg10.dtd">
<svg version="1.0" xmlns="http://www.w3.org/2000/svg"
 width="105.000000pt" height="102.000000pt" viewBox="0 0 105.000000 102.000000"
 preserveAspectRatio="xMidYMid meet">
<metadata>
Created by potrace 1.14, written by Peter Selinger 2001-2017
</metadata>
<g transform="translate(0.000000,102.000000) scale(0.100000,-0.100000)"
fill="#000000" stroke="none">
<path fill="#000000" stroke="none" d="M918 989 l-27 -30 30 -18 c29 -18 29
-18 9 -36 -38 -35 -50 -115 -14 -101 11 4 14 -8 14 -57 0 -34 7 -102 16 -151
8 -49 13 -95 10 -102 -8 -20 33 -28 52 -10 14 12 16 27 12 73 -3 38 0 68 8 86
8 15 13 49 11 75 -1 26 -1 80 0 121 2 71 0 76 -26 97 -15 13 -22 23 -15 24 8
0 5 10 -10 30 -27 37 -36 37 -70 -1z"/>
<path fill="#000000" stroke="none" d="M62 620 c-27 -13 -46 -29 -53 -47 -10
-26 -6 -145 8 -223 l6 -35 8 35 c5 19 6 47 3 63 -3 15 -2 41 1 59 l7 32 19
-23 c11 -13 19 -33 19 -45 1 -11 9 -46 20 -76 23 -65 38 -314 20 -335 -20 -24
8 -27 49 -6 l39 20 7 91 c7 85 9 91 35 107 24 14 29 25 34 72 3 31 6 77 5 103
0 38 4 48 20 53 19 6 19 7 -4 57 -19 40 -36 59 -77 85 -60 38 -101 41 -166 13z"/>
</g>
</svg>
