<?xml version="1.0" standalone="no"?>
<!DOCTYPE svg PUBLIC "-//W3C//DTD SVG 20010904//EN"
 "http://www.w3.org/TR/2001/REC-SVG-20010904/DTD/svg10.dtd">
<svg version="1.0" xmlns="http://www.w3.org/2000/svg"
 width="24.000000pt" height="54.000000pt" viewBox="0 0 24.000000 54.000000"
 preserveAspectRatio="xMidYMid meet">
<metadata>
Created by potrace 1.14, written by Peter Selinger 2001-2017
</metadata>
<g transform="translate(0.000000,54.000000) scale(0.100000,-0.100000)"
fill="#000000" stroke="none">
<path fill="#000000" stroke="none" d="M76 495 c-5 -29 -15 -51 -30 -63 -33
-25 -52 -132 -31 -173 8 -15 15 -39 15 -53 0 -14 16 -55 35 -92 19 -36 35 -74
35 -84 0 -22 40 -34 56 -17 6 7 18 39 26 72 9 33 25 93 36 133 l19 72 -24 68
c-13 37 -30 74 -38 82 -7 8 -16 31 -20 50 -8 39 -19 50 -51 50 -18 0 -23 -8
-28 -45z"/>
</g>
</svg>
