<?xml version="1.0" standalone="no"?>
<!DOCTYPE svg PUBLIC "-//W3C//DTD SVG 20010904//EN"
 "http://www.w3.org/TR/2001/REC-SVG-20010904/DTD/svg10.dtd">
<svg version="1.0" xmlns="http://www.w3.org/2000/svg"
 width="65.000000pt" height="79.000000pt" viewBox="0 0 65.000000 79.000000"
 preserveAspectRatio="xMidYMid meet">
<metadata>
Created by potrace 1.14, written by Peter Selinger 2001-2017
</metadata>
<g transform="translate(0.000000,79.000000) scale(0.100000,-0.100000)"
fill="#000000" stroke="none">
<path fill="#000000" stroke="none" d="M445 774 c-73 -22 -92 -33 -119 -73
-24 -35 -25 -40 -17 -115 l9 -79 -41 -48 c-23 -26 -52 -51 -66 -54 -13 -3 -44
-17 -67 -31 -42 -25 -43 -26 -93 -184 -49 -151 -58 -190 -45 -190 6 0 396 111
510 146 81 24 82 25 92 65 9 34 7 49 -10 88 -17 40 -19 59 -13 141 8 129 22
194 45 215 16 14 20 31 20 77 l0 58 -77 -1 c-43 0 -100 -7 -128 -15z"/>
</g>
</svg>
