<?xml version="1.0" standalone="no"?>
<!DOCTYPE svg PUBLIC "-//W3C//DTD SVG 20010904//EN"
 "http://www.w3.org/TR/2001/REC-SVG-20010904/DTD/svg10.dtd">
<svg version="1.0" xmlns="http://www.w3.org/2000/svg"
 width="52.000000pt" height="99.000000pt" viewBox="0 0 52.000000 99.000000"
 preserveAspectRatio="xMidYMid meet">
<metadata>
Created by potrace 1.14, written by Peter Selinger 2001-2017
</metadata>
<g transform="translate(0.000000,99.000000) scale(0.100000,-0.100000)"
fill="#000000" stroke="none">
<path fill="#000000" stroke="none" d="M35 969 c-18 -55 -28 -142 -27 -223 1
-83 3 -91 29 -118 15 -15 29 -24 33 -18 8 13 70 -178 70 -218 0 -18 13 -56 30
-85 35 -63 36 -76 11 -150 -11 -31 -19 -70 -19 -87 1 -26 6 -31 37 -40 70 -19
79 -10 51 51 -29 66 -26 73 20 49 36 -18 40 -25 41 -58 0 -20 4 -46 8 -56 7
-18 8 -18 14 5 4 13 7 38 7 55 0 17 7 37 15 44 23 19 18 37 -20 65 -19 15 -46
51 -61 83 -24 52 -27 68 -27 177 0 66 5 134 10 150 8 25 11 15 16 -66 4 -52 4
-116 1 -142 -7 -51 -1 -56 33 -28 20 16 22 25 17 64 -6 39 -2 53 26 102 30 53
33 65 38 171 4 103 7 114 23 114 17 0 19 -9 19 -95 0 -90 1 -96 23 -104 18 -7
24 -4 30 13 9 21 4 111 -9 173 -5 28 -3 34 18 44 22 10 24 15 18 47 -4 21 -14
52 -24 70 l-17 32 -214 0 c-208 0 -214 -1 -220 -21z"/>
<path fill="#ffffff" stroke="none" d="M71 729 c0 -34 -3 -65 -6 -68 -7 -7
-23 17 -31 45 -6 22 22 101 32 91 3 -3 6 -34 5 -68z"/>
</g>
</svg>
