<?xml version="1.0" standalone="no"?>
<!DOCTYPE svg PUBLIC "-//W3C//DTD SVG 20010904//EN"
 "http://www.w3.org/TR/2001/REC-SVG-20010904/DTD/svg10.dtd">
<svg version="1.0" xmlns="http://www.w3.org/2000/svg"
 width="50.000000pt" height="190.000000pt" viewBox="0 0 50.000000 190.000000"
 preserveAspectRatio="xMidYMid meet">
<metadata>
Created by potrace 1.14, written by Peter Selinger 2001-2017
</metadata>
<g transform="translate(0.000000,190.000000) scale(0.100000,-0.100000)"
fill="#000000" stroke="none">
<path fill="#000000" stroke="none" d="M62 1862 c-11 -20 -30 -74 -41 -120
l-22 -82 79 -108 c90 -123 101 -147 172 -372 l52 -165 -5 -185 c-6 -179 -7
-190 -47 -330 -23 -80 -52 -193 -65 -252 l-23 -108 51 -67 c27 -38 52 -70 53
-72 6 -8 166 65 174 79 14 26 60 520 59 641 0 112 -1 113 -15 74 -8 -22 -22
-71 -30 -109 -8 -39 -16 -71 -18 -73 -2 -2 -25 4 -51 14 l-49 18 3 70 c2 50 9
80 26 110 12 22 26 64 29 93 7 53 6 56 -48 138 -48 74 -55 93 -61 152 -3 37
-13 114 -20 172 -10 75 -11 133 -5 202 4 54 6 116 3 139 -6 39 -9 42 -79 77
-59 29 -74 41 -79 64 -10 41 -19 41 -43 0z"/>
</g>
</svg>
