<?xml version="1.0" standalone="no"?>
<!DOCTYPE svg PUBLIC "-//W3C//DTD SVG 20010904//EN"
 "http://www.w3.org/TR/2001/REC-SVG-20010904/DTD/svg10.dtd">
<svg version="1.0" xmlns="http://www.w3.org/2000/svg"
 width="199.000000pt" height="27.000000pt" viewBox="0 0 199.000000 27.000000"
 preserveAspectRatio="xMidYMid meet">
<metadata>
Created by potrace 1.14, written by Peter Selinger 2001-2017
</metadata>
<g transform="translate(0.000000,27.000000) scale(0.100000,-0.100000)"
fill="#000000" stroke="none">
<path fill="#000000" stroke="none" d="M1900 260 c0 -6 -11 -19 -24 -31 -23
-20 -24 -22 -10 -80 8 -33 15 -80 16 -105 l1 -45 36 3 36 3 -3 67 c-3 59 -1
69 17 80 28 17 26 42 -6 84 -26 32 -63 46 -63 24z"/>
<path fill="#000000" stroke="none" d="M43 37 c-4 -8 -17 -19 -28 -25 -16 -9
-6 -11 55 -10 41 0 65 3 52 5 -12 3 -28 13 -35 24 -14 22 -33 25 -44 6z"/>
</g>
</svg>
