<?xml version="1.0" standalone="no"?>
<!DOCTYPE svg PUBLIC "-//W3C//DTD SVG 20010904//EN"
 "http://www.w3.org/TR/2001/REC-SVG-20010904/DTD/svg10.dtd">
<svg version="1.0" xmlns="http://www.w3.org/2000/svg"
 width="212.000000pt" height="382.000000pt" viewBox="0 0 212.000000 382.000000"
 preserveAspectRatio="xMidYMid meet">
<metadata>
Created by potrace 1.14, written by Peter Selinger 2001-2017
</metadata>
<g transform="translate(0.000000,382.000000) scale(0.100000,-0.100000)"
fill="#000000" stroke="none">
<path fill="#000000" stroke="none" d="M827 3753 l-56 -66 36 -65 37 -65 -18
-88 c-13 -65 -15 -92 -7 -107 6 -12 11 -38 11 -60 0 -46 9 -55 69 -73 30 -9
50 -22 62 -43 24 -39 24 -39 -2 -51 -38 -17 -58 -88 -58 -206 -1 -167 -45
-496 -81 -609 -23 -71 -34 -130 -24 -130 4 0 16 8 27 18 19 16 19 16 14 -3
-21 -71 -329 -1531 -343 -1620 -9 -60 -22 -119 -29 -130 -6 -11 -15 -38 -19
-60 -11 -65 -16 -75 -36 -75 -11 0 -37 -19 -59 -43 l-40 -43 -146 14 c-80 8
-148 12 -150 10 -2 -1 -6 -23 -9 -48 l-7 -45 97 -70 c53 -38 103 -74 111 -79
9 -4 100 -5 204 -1 l188 7 15 67 c10 45 13 94 9 153 l-6 86 42 13 c26 8 55 27
78 53 20 23 60 61 90 86 39 32 75 80 131 171 l77 125 80 -18 c44 -9 104 -18
132 -18 52 0 52 0 47 29 -6 27 -3 29 39 40 25 6 48 11 50 11 2 0 7 -39 10 -88
l6 -87 73 -70 c67 -64 83 -73 173 -105 l100 -35 3 -49 c3 -43 0 -53 -27 -80
-16 -17 -45 -65 -64 -106 l-34 -75 -82 -30 c-44 -16 -81 -32 -81 -35 0 -3 6
-12 13 -21 22 -29 100 -39 289 -38 l183 1 40 36 c22 19 61 55 87 79 l48 43
-123 218 c-107 189 -133 245 -201 429 -43 117 -77 216 -76 220 1 4 30 16 63
25 77 21 103 48 83 86 -14 27 -55 157 -62 199 -2 12 -24 80 -48 150 -34 97
-50 166 -68 288 l-23 160 -112 143 c-62 78 -122 161 -134 185 -12 23 -28 49
-35 58 -12 13 -9 17 21 32 46 22 75 86 75 165 -1 111 -39 314 -89 476 l-50
158 34 87 33 87 -34 145 c-58 243 -39 211 -157 252 -56 19 -147 47 -202 62
-55 14 -107 28 -116 31 -10 3 -35 -19 -72 -63z"/>
<path fill="#000000" stroke="none" d="M677 1763 c-11 -18 -37 -136 -37 -168
l1 -30 24 27 c16 18 26 46 30 83 7 55 -4 110 -18 88z"/>
</g>
</svg>
