<?xml version="1.0" standalone="no"?>
<!DOCTYPE svg PUBLIC "-//W3C//DTD SVG 20010904//EN"
 "http://www.w3.org/TR/2001/REC-SVG-20010904/DTD/svg10.dtd">
<svg version="1.0" xmlns="http://www.w3.org/2000/svg"
 width="166.000000pt" height="304.000000pt" viewBox="0 0 166.000000 304.000000"
 preserveAspectRatio="xMidYMid meet">
<metadata>
Created by potrace 1.14, written by Peter Selinger 2001-2017
</metadata>
<g transform="translate(0.000000,304.000000) scale(0.100000,-0.100000)"
fill="#000000" stroke="none">
<path fill="#000000" stroke="none" d="M513 3009 c-11 -18 -58 -56 -115 -92
l-98 -62 0 -100 c0 -145 28 -236 108 -347 l60 -86 -30 -48 c-17 -27 -61 -76
-97 -109 -64 -58 -231 -242 -231 -254 0 -3 -20 -113 -44 -244 l-44 -238 16
-72 c15 -61 16 -88 7 -172 l-10 -100 37 -86 c34 -77 38 -96 38 -170 0 -82 0
-83 -56 -182 l-56 -99 7 -263 c4 -144 10 -267 14 -272 4 -7 688 5 944 16 15 1
17 13 17 109 0 106 0 108 35 159 19 29 35 57 35 63 0 5 -20 41 -45 80 -25 39
-45 74 -45 79 0 4 9 16 20 26 21 19 22 18 121 -81 77 -77 115 -124 167 -211
58 -98 78 -121 151 -181 l83 -68 73 11 c41 5 77 13 80 17 4 4 -14 34 -39 67
-54 70 -127 194 -201 342 -62 122 -57 119 -201 119 -137 0 -198 32 -297 156
-25 32 -38 65 -61 161 -16 66 -26 128 -23 137 9 23 51 20 97 -6 51 -30 69 -17
52 39 -6 20 -10 38 -8 40 2 2 17 -4 34 -14 76 -44 82 64 7 132 -12 11 -42 55
-61 92 -11 20 -11 21 12 13 13 -5 35 -17 49 -26 14 -9 28 -14 31 -11 3 3 -11
44 -31 92 l-37 86 46 93 46 92 -18 91 c-17 82 -24 98 -70 156 -28 35 -71 80
-96 100 -24 20 -66 67 -92 104 l-48 67 50 45 c28 25 69 69 92 97 37 45 42 58
42 101 0 37 -5 55 -20 68 -20 19 -20 19 9 49 16 17 41 58 56 92 l26 61 -43
114 -43 114 -95 49 c-75 39 -238 95 -282 96 -4 0 -15 -14 -25 -31z"/>
</g>
</svg>
