<?xml version="1.0" standalone="no"?>
<!DOCTYPE svg PUBLIC "-//W3C//DTD SVG 20010904//EN"
 "http://www.w3.org/TR/2001/REC-SVG-20010904/DTD/svg10.dtd">
<svg version="1.0" xmlns="http://www.w3.org/2000/svg"
 width="40.000000pt" height="132.000000pt" viewBox="0 0 40.000000 132.000000"
 preserveAspectRatio="xMidYMid meet">
<metadata>
Created by potrace 1.14, written by Peter Selinger 2001-2017
</metadata>
<g transform="translate(0.000000,132.000000) scale(0.100000,-0.100000)"
fill="#000000" stroke="none">
<path fill="#000000" stroke="none" d="M56 1227 c-10 -50 -22 -144 -27 -207
-4 -64 -12 -135 -18 -159 -11 -51 -16 -38 91 -234 95 -173 148 -364 121 -436
-7 -17 -3 -49 11 -108 20 -81 21 -84 46 -78 25 6 110 85 110 103 0 5 -13 26
-29 46 l-30 37 36 65 35 65 -33 77 c-22 51 -74 132 -156 244 l-124 167 10 62
c6 33 15 67 22 75 6 7 8 25 5 38 -4 15 -1 26 7 29 23 7 13 116 -21 211 -17 49
-33 90 -35 92 -2 2 -11 -38 -21 -89z"/>
</g>
</svg>
