<?xml version="1.0" standalone="no"?>
<!DOCTYPE svg PUBLIC "-//W3C//DTD SVG 20010904//EN"
 "http://www.w3.org/TR/2001/REC-SVG-20010904/DTD/svg10.dtd">
<svg version="1.0" xmlns="http://www.w3.org/2000/svg"
 width="37.000000pt" height="58.000000pt" viewBox="0 0 37.000000 58.000000"
 preserveAspectRatio="xMidYMid meet">
<metadata>
Created by potrace 1.14, written by Peter Selinger 2001-2017
</metadata>
<g transform="translate(0.000000,58.000000) scale(0.100000,-0.100000)"
fill="#000000" stroke="none">
<path fill="#000000" stroke="none" d="M109 573 c-24 -4 -28 -11 -39 -66 -6
-34 -25 -95 -41 -135 -27 -67 -29 -84 -29 -198 0 -69 5 -134 10 -145 14 -26
97 -27 116 -1 12 16 13 15 14 -5 0 -26 2 -27 107 -13 143 19 151 27 84 81 -45
36 -60 84 -62 192 0 34 -4 82 -8 107 -5 33 -3 57 10 91 l17 46 -54 26 c-53 26
-69 29 -125 20z"/>
<path fill="#ffffff" stroke="none" d="M144 233 c14 -43 16 -71 11 -120 l-7
-65 -22 21 c-22 21 -22 21 -17 189 1 48 15 39 35 -25z"/>
</g>
</svg>
