<?xml version="1.0" standalone="no"?>
<!DOCTYPE svg PUBLIC "-//W3C//DTD SVG 20010904//EN"
 "http://www.w3.org/TR/2001/REC-SVG-20010904/DTD/svg10.dtd">
<svg version="1.0" xmlns="http://www.w3.org/2000/svg"
 width="38.000000pt" height="33.000000pt" viewBox="0 0 38.000000 33.000000"
 preserveAspectRatio="xMidYMid meet">
<metadata>
Created by potrace 1.14, written by Peter Selinger 2001-2017
</metadata>
<g transform="translate(0.000000,33.000000) scale(0.100000,-0.100000)"
fill="#000000" stroke="none">
<path fill="#000000" stroke="none" d="M178 320 c-15 -4 -37 -15 -50 -24 -21
-15 -21 -16 -3 -16 15 -1 6 -14 -40 -58 -90 -86 -102 -122 -60 -182 l25 -37
153 4 c83 2 158 5 165 8 35 13 -5 115 -62 159 -22 16 -36 36 -36 49 0 25 -40
99 -55 103 -5 1 -22 -1 -37 -6z"/>
</g>
</svg>
