<?xml version="1.0" standalone="no"?>
<!DOCTYPE svg PUBLIC "-//W3C//DTD SVG 20010904//EN"
 "http://www.w3.org/TR/2001/REC-SVG-20010904/DTD/svg10.dtd">
<svg version="1.0" xmlns="http://www.w3.org/2000/svg"
 width="101.000000pt" height="103.000000pt" viewBox="0 0 101.000000 103.000000"
 preserveAspectRatio="xMidYMid meet">
<metadata>
Created by potrace 1.14, written by Peter Selinger 2001-2017
</metadata>
<g transform="translate(0.000000,103.000000) scale(0.100000,-0.100000)"
fill="#000000" stroke="none">
<path fill="#000000" stroke="none" d="M223 929 c-29 -96 -30 -105 -16 -132 8
-16 13 -30 11 -32 -2 -1 -41 -26 -88 -55 -47 -28 -87 -54 -89 -56 -10 -10 -41
-248 -41 -321 l0 -82 168 5 c92 3 210 7 262 10 l94 6 -34 29 -35 29 57 -19
c56 -19 57 -19 150 1 51 11 103 26 115 34 13 8 35 15 50 15 40 2 103 19 103
27 -1 27 -25 33 -181 43 -93 7 -169 16 -176 23 -6 6 -39 67 -73 135 l-62 124
32 84 c17 46 30 87 28 91 -2 4 -18 33 -37 64 -38 61 -24 55 -164 74 l-42 6
-32 -103z"/>
<path fill="#000000" stroke="none" d="M284 100 l-261 -5 8 -23 c17 -44 40
-46 319 -30 144 9 263 17 265 20 2 2 2 14 -2 26 -4 17 -12 22 -37 20 -17 -1
-149 -5 -292 -8z"/>
<path fill="#000000" stroke="none" d="M684 85 c3 -11 6 -29 6 -40 1 -43 7
-44 164 -35 81 5 150 11 153 14 4 4 -12 42 -23 55 -2 2 -71 9 -154 15 -150 12
-151 11 -146 -9z"/>
</g>
</svg>
