<?xml version="1.0" standalone="no"?>
<!DOCTYPE svg PUBLIC "-//W3C//DTD SVG 20010904//EN"
 "http://www.w3.org/TR/2001/REC-SVG-20010904/DTD/svg10.dtd">
<svg version="1.0" xmlns="http://www.w3.org/2000/svg"
 width="5.000000pt" height="21.000000pt" viewBox="0 0 5.000000 21.000000"
 preserveAspectRatio="xMidYMid meet">
<metadata>
Created by potrace 1.14, written by Peter Selinger 2001-2017
</metadata>
<g transform="translate(0.000000,21.000000) scale(0.100000,-0.100000)"
fill="#000000" stroke="none">
<path fill="#000000" stroke="none" d="M4 199 c-8 -14 11 -33 25 -25 6 4 11
11 11 16 0 13 -29 20 -36 9z"/>
<path fill="#000000" stroke="none" d="M5 137 c-4 -13 -5 -48 -3 -77 2 -43 7
-56 20 -58 18 -3 18 5 2 85 -3 17 0 21 11 17 18 -7 19 -3 3 31 -14 31 -26 32
-33 2z"/>
</g>
</svg>
