<?xml version="1.0" standalone="no"?>
<!DOCTYPE svg PUBLIC "-//W3C//DTD SVG 20010904//EN"
 "http://www.w3.org/TR/2001/REC-SVG-20010904/DTD/svg10.dtd">
<svg version="1.0" xmlns="http://www.w3.org/2000/svg"
 width="54.000000pt" height="88.000000pt" viewBox="0 0 54.000000 88.000000"
 preserveAspectRatio="xMidYMid meet">
<metadata>
Created by potrace 1.14, written by Peter Selinger 2001-2017
</metadata>
<g transform="translate(0.000000,88.000000) scale(0.100000,-0.100000)"
fill="#000000" stroke="none">
<path fill="#000000" stroke="none" d="M310 834 c-56 -39 -67 -52 -82 -96 -13
-37 -15 -55 -7 -64 12 -14 4 -34 -13 -34 -22 0 -107 -76 -108 -96 0 -27 -29
-64 -37 -46 -3 9 -15 0 -33 -25 l-29 -39 23 -90 c13 -49 37 -124 54 -166 32
-83 97 -177 122 -177 8 0 60 14 115 32 l99 33 28 119 c23 98 35 127 64 164 35
46 36 47 29 116 -8 85 -21 116 -59 133 -26 13 -27 17 -20 50 4 21 7 48 7 60
-1 26 -59 146 -77 161 -8 7 -33 -5 -76 -35z"/>
</g>
</svg>
