<?xml version="1.0" standalone="no"?>
<!DOCTYPE svg PUBLIC "-//W3C//DTD SVG 20010904//EN"
 "http://www.w3.org/TR/2001/REC-SVG-20010904/DTD/svg10.dtd">
<svg version="1.0" xmlns="http://www.w3.org/2000/svg"
 width="43.000000pt" height="60.000000pt" viewBox="0 0 43.000000 60.000000"
 preserveAspectRatio="xMidYMid meet">
<metadata>
Created by potrace 1.14, written by Peter Selinger 2001-2017
</metadata>
<g transform="translate(0.000000,60.000000) scale(0.100000,-0.100000)"
fill="#000000" stroke="none">
<path fill="#000000" stroke="none" d="M63 592 c-46 -5 -56 -24 -61 -115 -6
-117 17 -170 118 -286 72 -81 79 -92 70 -115 -9 -24 -7 -26 75 -52 46 -16 86
-26 89 -23 3 2 20 48 40 101 l35 97 -26 21 c-14 11 -31 20 -38 20 -7 0 -31 14
-53 30 l-42 30 0 100 c0 111 -11 145 -53 167 -34 17 -108 29 -154 25z"/>
</g>
</svg>
