<?xml version="1.0" standalone="no"?>
<!DOCTYPE svg PUBLIC "-//W3C//DTD SVG 20010904//EN"
 "http://www.w3.org/TR/2001/REC-SVG-20010904/DTD/svg10.dtd">
<svg version="1.0" xmlns="http://www.w3.org/2000/svg"
 width="314.000000pt" height="421.000000pt" viewBox="0 0 314.000000 421.000000"
 preserveAspectRatio="xMidYMid meet">
<metadata>
Created by potrace 1.14, written by Peter Selinger 2001-2017
</metadata>
<g transform="translate(0.000000,421.000000) scale(0.100000,-0.100000)"
fill="#000000" stroke="none">
<path fill="#000000" stroke="none" d="M1576 4174 l-188 -34 -99 -92 c-75 -69
-99 -97 -100 -117 0 -14 -6 -84 -13 -156 l-13 -130 117 -235 c82 -165 115
-241 111 -256 -3 -12 -47 -53 -96 -92 -50 -38 -124 -102 -165 -141 -57 -55
-79 -71 -95 -67 -27 8 -346 -104 -353 -124 -9 -24 -23 -30 -73 -30 -39 0 -185
-45 -310 -95 -9 -3 -38 -36 -64 -73 l-48 -67 14 -140 15 -140 -108 -223 -108
-223 0 -416 0 -416 31 -116 c17 -64 34 -122 38 -129 4 -6 85 -77 180 -156
l172 -144 125 -7 c68 -4 124 -8 124 -9 0 -1 -9 -75 -20 -165 -11 -89 -18 -167
-15 -172 4 -5 422 -9 1059 -9 l1054 0 6 31 c3 17 6 44 6 59 0 15 85 231 188
479 l188 452 -67 422 c-37 232 -97 581 -133 775 l-66 353 -78 104 -77 104
-112 27 c-62 16 -114 26 -116 23 -2 -2 -43 -206 -91 -454 -49 -247 -90 -460
-93 -471 -4 -20 1 -22 67 -28 l71 -7 -5 -32 c-3 -18 -7 -48 -8 -67 -3 -34 -2
-35 33 -38 l36 -3 -13 -56 c-7 -31 -27 -85 -44 -119 -17 -35 -40 -102 -51
-151 -11 -48 -36 -121 -57 -162 -62 -124 -181 -201 -311 -201 -59 0 -220 30
-254 47 -42 21 -84 8 -149 -48 -31 -27 -62 -49 -68 -49 -7 0 -29 12 -50 27
-32 23 -41 37 -50 76 -14 66 -13 70 15 97 14 13 25 27 25 32 0 4 -20 13 -45
19 -44 11 -44 11 -58 72 -11 50 -11 76 -2 136 14 89 28 104 170 181 50 26 165
93 257 147 155 91 171 98 212 95 42 -4 45 -6 48 -35 3 -28 399 1984 398 2024
0 9 -73 62 -183 131 -180 114 -187 117 -338 163 -85 25 -161 48 -169 50 -8 1
-100 -12 -204 -31z"/>
<path fill="#000000" stroke="none" d="M2080 1750 c0 -16 7 -20 38 -20 l37 0
-33 20 c-40 25 -42 25 -42 0z"/>
</g>
</svg>
