<?xml version="1.0" standalone="no"?>
<!DOCTYPE svg PUBLIC "-//W3C//DTD SVG 20010904//EN"
 "http://www.w3.org/TR/2001/REC-SVG-20010904/DTD/svg10.dtd">
<svg version="1.0" xmlns="http://www.w3.org/2000/svg"
 width="79.000000pt" height="105.000000pt" viewBox="0 0 79.000000 105.000000"
 preserveAspectRatio="xMidYMid meet">
<metadata>
Created by potrace 1.14, written by Peter Selinger 2001-2017
</metadata>
<g transform="translate(0.000000,105.000000) scale(0.100000,-0.100000)"
fill="#000000" stroke="none">
<path fill="#000000" stroke="none" d="M535 1034 c-27 -7 -58 -23 -68 -35 -17
-21 -20 -21 -49 -7 -28 13 -38 13 -93 -3 -70 -19 -270 -145 -297 -187 -21 -34
-25 -111 -8 -184 13 -57 14 -59 86 -103 39 -25 75 -53 79 -63 4 -9 10 -98 15
-197 5 -136 11 -189 24 -212 9 -18 19 -34 24 -36 7 -5 232 20 238 25 1 2 -2
37 -6 78 -13 112 -12 130 6 130 13 0 15 8 9 50 -4 30 -2 63 5 86 l13 37 19
-24 c11 -13 26 -39 34 -57 18 -41 28 -40 46 3 12 30 12 51 1 138 -12 97 -10
143 13 254 2 12 35 48 73 79 87 71 98 95 75 155 -30 76 -48 89 -123 88 -36 -1
-88 -8 -116 -15z"/>
</g>
</svg>
