<?xml version="1.0" standalone="no"?>
<!DOCTYPE svg PUBLIC "-//W3C//DTD SVG 20010904//EN"
 "http://www.w3.org/TR/2001/REC-SVG-20010904/DTD/svg10.dtd">
<svg version="1.0" xmlns="http://www.w3.org/2000/svg"
 width="91.000000pt" height="200.000000pt" viewBox="0 0 91.000000 200.000000"
 preserveAspectRatio="xMidYMid meet">
<metadata>
Created by potrace 1.14, written by Peter Selinger 2001-2017
</metadata>
<g transform="translate(0.000000,200.000000) scale(0.100000,-0.100000)"
fill="#000000" stroke="none">
<path fill="#000000" stroke="none" d="M318 1981 l-77 -14 -12 -56 c-8 -40 -9
-86 -2 -166 l10 -110 -61 -55 c-33 -30 -78 -71 -98 -90 l-37 -35 -21 -198
c-11 -109 -20 -204 -20 -211 0 -17 84 -56 120 -56 36 0 36 20 9 -253 -20 -200
-21 -230 -9 -347 16 -154 9 -236 -24 -312 l-25 -56 63 -11 c34 -6 66 -11 69
-11 4 0 7 135 7 299 0 269 2 309 22 397 11 55 23 120 25 146 5 45 3 48 -41 91
-27 25 -46 53 -46 65 0 31 -1 35 -10 53 -7 13 17 20 161 48 93 19 172 38 175
42 3 5 23 9 44 9 38 0 41 2 70 60 17 33 32 60 34 60 1 0 23 -29 47 -65 39 -57
47 -64 70 -59 21 4 31 -2 52 -29 l26 -34 -22 -21 -21 -22 57 0 c31 0 57 2 57
5 0 10 -113 210 -120 213 -31 12 -46 42 -84 177 l-43 150 -92 34 -92 34 5 36
c11 72 9 167 -4 217 -10 41 -19 53 -49 70 -34 18 -40 18 -113 5z"/>
</g>
</svg>
