<?xml version="1.0" standalone="no"?>
<!DOCTYPE svg PUBLIC "-//W3C//DTD SVG 20010904//EN"
 "http://www.w3.org/TR/2001/REC-SVG-20010904/DTD/svg10.dtd">
<svg version="1.0" xmlns="http://www.w3.org/2000/svg"
 width="98.000000pt" height="286.000000pt" viewBox="0 0 98.000000 286.000000"
 preserveAspectRatio="xMidYMid meet">
<metadata>
Created by potrace 1.14, written by Peter Selinger 2001-2017
</metadata>
<g transform="translate(0.000000,286.000000) scale(0.100000,-0.100000)"
fill="#000000" stroke="none">
<path fill="#000000" stroke="none" d="M650 2850 c-25 -4 -70 -10 -101 -14
l-56 -7 -17 -103 c-16 -97 -16 -106 1 -187 l19 -84 -28 -24 c-18 -14 -27 -30
-24 -40 19 -63 18 -67 -18 -91 -43 -31 -64 -73 -87 -182 -16 -77 -25 -96 -76
-165 -32 -43 -67 -95 -78 -116 l-19 -36 24 -48 c15 -31 25 -42 27 -32 3 10 17
18 36 21 l33 3 1 -75 c1 -71 0 -77 -28 -102 -35 -32 -35 -37 -8 -72 15 -20 26
-25 44 -20 19 5 31 -2 57 -31 18 -21 36 -46 40 -56 4 -11 12 -19 17 -19 11 0
-119 -512 -133 -522 -5 -3 -30 -9 -55 -12 -25 -4 -58 -9 -73 -12 -22 -4 -32 2
-62 42 -35 45 -36 46 -45 23 -5 -13 -16 -42 -26 -64 -17 -41 -17 -113 1 -376
l6 -86 118 -17 118 -18 6 -38 c8 -48 -21 -131 -59 -170 -25 -26 -26 -30 -15
-69 6 -22 14 -41 18 -41 4 0 66 20 137 43 l130 44 0 47 0 48 53 -4 c28 -2 53
1 55 5 3 9 205 43 212 35 4 -4 -28 -114 -50 -169 -4 -12 4 -23 31 -39 43 -27
48 -26 143 61 l62 56 -42 78 c-24 43 -37 75 -30 71 9 -6 11 47 9 236 l-3 243
-50 136 -49 136 19 76 c19 76 19 76 -4 212 -12 74 -25 184 -28 243 l-6 108 26
11 c22 10 32 30 62 130 20 65 48 154 62 199 l25 80 -27 100 c-29 106 -46 133
-120 184 l-41 28 -17 201 c-10 111 -23 213 -29 226 -12 26 -16 27 -88 15z"/>
</g>
</svg>
