<?xml version="1.0" standalone="no"?>
<!DOCTYPE svg PUBLIC "-//W3C//DTD SVG 20010904//EN"
 "http://www.w3.org/TR/2001/REC-SVG-20010904/DTD/svg10.dtd">
<svg version="1.0" xmlns="http://www.w3.org/2000/svg"
 width="25.000000pt" height="42.000000pt" viewBox="0 0 25.000000 42.000000"
 preserveAspectRatio="xMidYMid meet">
<metadata>
Created by potrace 1.14, written by Peter Selinger 2001-2017
</metadata>
<g transform="translate(0.000000,42.000000) scale(0.100000,-0.100000)"
fill="#000000" stroke="none">
<path fill="#000000" stroke="none" d="M71 412 c-21 -3 -23 -7 -17 -42 3 -21
9 -45 12 -54 4 -11 0 -16 -14 -16 -17 0 -21 -11 -32 -84 -7 -47 -9 -90 -5 -95
3 -6 28 -11 54 -11 36 0 52 -5 67 -21 19 -22 19 -22 -3 -10 -27 14 -88 14
-114 1 -13 -8 -19 -21 -19 -45 l0 -35 81 0 81 0 -7 33 -7 32 21 -19 22 -20 -7
42 c-6 37 -3 47 30 92 l37 51 -22 35 c-11 19 -36 41 -55 49 -29 12 -34 19 -34
48 0 41 -34 75 -69 69z"/>
</g>
</svg>
