<?xml version="1.0" standalone="no"?>
<!DOCTYPE svg PUBLIC "-//W3C//DTD SVG 20010904//EN"
 "http://www.w3.org/TR/2001/REC-SVG-20010904/DTD/svg10.dtd">
<svg version="1.0" xmlns="http://www.w3.org/2000/svg"
 width="271.000000pt" height="373.000000pt" viewBox="0 0 271.000000 373.000000"
 preserveAspectRatio="xMidYMid meet">
<metadata>
Created by potrace 1.14, written by Peter Selinger 2001-2017
</metadata>
<g transform="translate(0.000000,373.000000) scale(0.100000,-0.100000)"
fill="#000000" stroke="none">
<path fill="#000000" stroke="none" d="M1589 3711 c-62 -20 -143 -71 -159
-101 -5 -10 -10 -83 -10 -162 l0 -143 -33 -26 c-53 -43 -106 -64 -217 -89
-170 -38 -251 -72 -364 -154 -56 -41 -155 -103 -221 -139 -260 -140 -255 -137
-313 -221 -39 -56 -73 -90 -124 -126 -96 -67 -148 -128 -148 -173 l0 -34 83
-18 c45 -10 88 -20 95 -23 10 -4 13 7 11 44 -1 29 4 61 13 79 9 17 19 44 23
62 5 27 18 39 81 74 41 22 87 51 103 65 16 13 34 24 41 24 7 0 52 23 100 50
48 28 92 50 97 50 6 0 21 -25 34 -55 13 -30 27 -55 32 -55 4 0 38 16 76 34 66
34 230 86 269 86 10 0 26 -8 35 -18 18 -20 16 -32 -28 -172 -13 -41 -31 -118
-39 -170 -9 -53 -25 -131 -36 -174 -11 -44 -20 -102 -20 -129 0 -28 -7 -89
-16 -136 -30 -157 -2 -328 78 -482 35 -67 62 -105 88 -125 28 -21 40 -40 47
-71 10 -42 10 -44 -31 -81 -109 -101 -187 -230 -230 -382 -19 -68 -41 -118
-78 -175 -29 -44 -67 -111 -86 -150 l-35 -70 11 -86 c6 -48 18 -102 28 -120
11 -22 16 -53 15 -86 -3 -86 45 -133 139 -133 54 0 60 18 64 183 4 128 4 130
33 154 15 13 64 42 108 65 116 59 190 113 233 166 20 27 64 71 97 99 58 49 62
56 112 185 28 73 59 162 68 197 9 35 39 109 66 164 39 78 57 129 80 234 16 74
38 152 49 173 25 49 25 63 -1 163 -16 63 -20 100 -16 157 3 41 11 76 16 78 7
2 9 31 5 86 -7 91 4 396 15 396 3 0 37 -61 73 -135 60 -120 72 -137 107 -154
l39 -20 17 25 c9 13 37 38 63 54 26 16 57 42 69 58 12 17 73 66 136 110 146
103 321 293 355 385 24 63 27 93 12 102 -14 9 -50 -13 -50 -31 0 -15 -81 -107
-170 -191 -64 -62 -301 -236 -320 -236 -8 0 -23 -7 -32 -15 -17 -14 -18 -5
-18 182 0 131 -4 205 -12 219 -25 47 -76 103 -153 164 -109 88 -163 151 -171
199 -5 33 2 56 45 148 28 59 53 129 57 155 9 73 -26 121 -128 172 -43 21 -83
39 -90 38 -7 0 -38 -9 -69 -18z"/>
</g>
</svg>
