<?xml version="1.0" standalone="no"?>
<!DOCTYPE svg PUBLIC "-//W3C//DTD SVG 20010904//EN"
 "http://www.w3.org/TR/2001/REC-SVG-20010904/DTD/svg10.dtd">
<svg version="1.0" xmlns="http://www.w3.org/2000/svg"
 width="80.000000pt" height="89.000000pt" viewBox="0 0 80.000000 89.000000"
 preserveAspectRatio="xMidYMid meet">
<metadata>
Created by potrace 1.14, written by Peter Selinger 2001-2017
</metadata>
<g transform="translate(0.000000,89.000000) scale(0.100000,-0.100000)"
fill="#000000" stroke="none">
<path fill="#000000" stroke="none" d="M495 843 l-55 -43 0 -78 0 -79 -127
-18 c-71 -10 -138 -22 -149 -26 -21 -7 -99 -153 -138 -258 -15 -38 -15 -43 -1
-38 8 4 15 3 15 -1 0 -8 -23 -95 -34 -128 -5 -18 -2 -23 21 -29 15 -3 94 -38
175 -76 81 -38 152 -69 157 -69 5 0 12 18 16 40 4 22 11 43 17 46 5 4 25 38
44 78 43 90 124 174 250 258 l93 63 -24 25 c-14 15 -25 29 -25 33 0 3 13 27
29 52 44 69 49 136 16 208 -15 31 -30 57 -33 57 -4 1 -48 7 -99 14 l-92 13
-56 -44z"/>
</g>
</svg>
