<?xml version="1.0" standalone="no"?>
<!DOCTYPE svg PUBLIC "-//W3C//DTD SVG 20010904//EN"
 "http://www.w3.org/TR/2001/REC-SVG-20010904/DTD/svg10.dtd">
<svg version="1.0" xmlns="http://www.w3.org/2000/svg"
 width="28.000000pt" height="52.000000pt" viewBox="0 0 28.000000 52.000000"
 preserveAspectRatio="xMidYMid meet">
<metadata>
Created by potrace 1.14, written by Peter Selinger 2001-2017
</metadata>
<g transform="translate(0.000000,52.000000) scale(0.100000,-0.100000)"
fill="#000000" stroke="none">
<path fill="#000000" stroke="none" d="M38 499 c-21 -11 -38 -24 -38 -29 0 -6
20 -48 45 -94 51 -94 89 -199 100 -273 7 -51 7 -51 67 -77 33 -15 63 -24 65
-22 3 3 0 60 -8 128 -12 118 -13 124 -44 153 -31 29 -32 33 -27 88 5 67 -8
102 -48 121 -47 24 -74 25 -112 5z"/>
</g>
</svg>
