<?xml version="1.0" standalone="no"?>
<!DOCTYPE svg PUBLIC "-//W3C//DTD SVG 20010904//EN"
 "http://www.w3.org/TR/2001/REC-SVG-20010904/DTD/svg10.dtd">
<svg version="1.0" xmlns="http://www.w3.org/2000/svg"
 width="55.000000pt" height="113.000000pt" viewBox="0 0 55.000000 113.000000"
 preserveAspectRatio="xMidYMid meet">
<metadata>
Created by potrace 1.14, written by Peter Selinger 2001-2017
</metadata>
<g transform="translate(0.000000,113.000000) scale(0.100000,-0.100000)"
fill="#000000" stroke="none">
<path fill="#000000" stroke="none" d="M195 1121 c-97 -9 -159 -39 -181 -88
-16 -37 -16 -45 24 -283 l40 -245 -18 -130 c-16 -116 -16 -131 -2 -139 15 -8
88 -73 182 -159 62 -57 109 -77 185 -77 47 0 66 4 78 18 15 17 13 24 -33 107
-46 80 -50 94 -50 153 0 63 1 65 54 129 61 74 59 62 71 333 l6 125 -50 110
c-28 61 -51 116 -51 123 0 30 -84 38 -255 23z"/>
</g>
</svg>
