<?xml version="1.0" standalone="no"?>
<!DOCTYPE svg PUBLIC "-//W3C//DTD SVG 20010904//EN"
 "http://www.w3.org/TR/2001/REC-SVG-20010904/DTD/svg10.dtd">
<svg version="1.0" xmlns="http://www.w3.org/2000/svg"
 width="20.000000pt" height="35.000000pt" viewBox="0 0 20.000000 35.000000"
 preserveAspectRatio="xMidYMid meet">
<metadata>
Created by potrace 1.14, written by Peter Selinger 2001-2017
</metadata>
<g transform="translate(0.000000,35.000000) scale(0.100000,-0.100000)"
fill="#000000" stroke="none">
<path fill="#000000" stroke="none" d="M70 322 c0 -15 -6 -36 -14 -47 -7 -11
-16 -40 -19 -65 -3 -25 -13 -50 -23 -57 -18 -13 -10 -18 22 -14 12 1 24 -52
24 -108 0 -30 2 -33 23 -27 12 3 28 6 36 6 8 0 11 7 8 20 -3 13 0 20 9 20 10
0 14 13 14 46 0 35 6 54 26 76 32 39 28 66 -13 88 -18 9 -30 20 -27 23 3 3 3
19 -1 36 -5 26 -11 31 -36 31 -25 0 -29 -4 -29 -28z"/>
</g>
</svg>
