<?xml version="1.0" standalone="no"?>
<!DOCTYPE svg PUBLIC "-//W3C//DTD SVG 20010904//EN"
 "http://www.w3.org/TR/2001/REC-SVG-20010904/DTD/svg10.dtd">
<svg version="1.0" xmlns="http://www.w3.org/2000/svg"
 width="27.000000pt" height="114.000000pt" viewBox="0 0 27.000000 114.000000"
 preserveAspectRatio="xMidYMid meet">
<metadata>
Created by potrace 1.14, written by Peter Selinger 2001-2017
</metadata>
<g transform="translate(0.000000,114.000000) scale(0.100000,-0.100000)"
fill="#000000" stroke="none">
<path fill="#000000" stroke="none" d="M38 1104 c-2 -22 4 -68 14 -104 l17
-65 -36 -140 c-34 -134 -35 -144 -26 -231 8 -76 15 -100 40 -140 29 -45 32
-60 43 -194 l12 -144 -29 -26 c-16 -14 -33 -33 -36 -42 -6 -16 2 -18 71 -18
47 0 85 5 95 12 24 18 49 148 46 243 -1 44 0 114 3 155 3 41 3 59 1 40 -2 -19
-8 -39 -13 -44 -4 -4 -44 -5 -88 -1 -72 6 -81 9 -91 31 -15 34 -14 54 4 54 8
0 25 21 38 48 18 39 27 48 52 50 17 2 36 11 44 20 12 15 12 15 7 -5 -5 -16 -2
-25 13 -32 25 -14 33 5 15 39 -11 22 -9 41 14 132 l26 106 -40 127 c-21 71
-44 135 -50 143 -8 11 -33 17 -77 20 l-66 4 -3 -38z"/>
</g>
</svg>
