<?xml version="1.0" standalone="no"?>
<!DOCTYPE svg PUBLIC "-//W3C//DTD SVG 20010904//EN"
 "http://www.w3.org/TR/2001/REC-SVG-20010904/DTD/svg10.dtd">
<svg version="1.0" xmlns="http://www.w3.org/2000/svg"
 width="18.000000pt" height="60.000000pt" viewBox="0 0 18.000000 60.000000"
 preserveAspectRatio="xMidYMid meet">
<metadata>
Created by potrace 1.14, written by Peter Selinger 2001-2017
</metadata>
<g transform="translate(0.000000,60.000000) scale(0.100000,-0.100000)"
fill="#000000" stroke="none">
<path fill="#000000" stroke="none" d="M100 585 c-8 -9 -10 -28 -5 -52 12 -67
6 -115 -29 -243 -19 -69 -37 -156 -41 -195 -3 -38 -11 -72 -16 -76 -19 -11 33
-18 97 -12 l62 6 4 56 c2 31 -3 79 -10 106 -8 31 -11 73 -7 110 14 142 16 298
3 307 -20 12 -44 9 -58 -7z"/>
</g>
</svg>
