<?xml version="1.0" standalone="no"?>
<!DOCTYPE svg PUBLIC "-//W3C//DTD SVG 20010904//EN"
 "http://www.w3.org/TR/2001/REC-SVG-20010904/DTD/svg10.dtd">
<svg version="1.0" xmlns="http://www.w3.org/2000/svg"
 width="10.000000pt" height="51.000000pt" viewBox="0 0 10.000000 51.000000"
 preserveAspectRatio="xMidYMid meet">
<metadata>
Created by potrace 1.14, written by Peter Selinger 2001-2017
</metadata>
<g transform="translate(0.000000,51.000000) scale(0.100000,-0.100000)"
fill="#000000" stroke="none">
<path fill="#000000" stroke="none" d="M11 484 c-12 -27 0 -64 20 -64 6 0 3
-7 -5 -16 -17 -17 -21 -51 -8 -72 5 -7 4 -43 0 -79 -10 -75 2 -141 34 -182 10
-13 18 -34 18 -47 0 -14 6 -24 14 -24 13 0 15 33 12 218 -3 232 -10 267 -52
283 -17 6 -24 2 -33 -17z"/>
<path fill="#ffffff" stroke="none" d="M90 101 c0 -45 -6 -37 -13 18 -4 29 -2
40 4 30 5 -7 9 -29 9 -48z"/>
</g>
</svg>
