<?xml version="1.0" standalone="no"?>
<!DOCTYPE svg PUBLIC "-//W3C//DTD SVG 20010904//EN"
 "http://www.w3.org/TR/2001/REC-SVG-20010904/DTD/svg10.dtd">
<svg version="1.0" xmlns="http://www.w3.org/2000/svg"
 width="329.000000pt" height="481.000000pt" viewBox="0 0 329.000000 481.000000"
 preserveAspectRatio="xMidYMid meet">
<metadata>
Created by potrace 1.14, written by Peter Selinger 2001-2017
</metadata>
<g transform="translate(0.000000,481.000000) scale(0.100000,-0.100000)"
fill="#000000" stroke="none">
<path fill="#000000" stroke="none" d="M1258 4761 l-138 -45 -142 -219 -141
-219 7 -260 7 -260 36 -84 36 -85 27 26 c15 15 30 23 33 18 3 -4 26 -80 52
-168 65 -220 104 -327 126 -347 22 -19 25 -38 7 -38 -7 -1 -42 -19 -78 -40
-58 -36 -66 -38 -70 -22 -4 16 -10 17 -38 10 -28 -8 -38 -20 -82 -108 -28 -55
-50 -111 -50 -125 0 -15 -4 -24 -9 -20 -5 3 -12 1 -15 -3 -3 -5 -20 -123 -37
-263 -23 -186 -35 -257 -46 -266 -12 -9 -14 -27 -11 -73 2 -33 0 -60 -5 -60
-5 0 -6 -18 -2 -41 l7 -42 -58 8 c-32 4 -69 11 -83 17 -31 11 -241 0 -241 -13
0 -14 -26 -10 -40 6 -7 8 -27 15 -46 15 l-33 0 20 45 c30 68 20 85 -49 85
l-58 0 -73 -74 -74 -75 10 -174 11 -175 106 -139 c105 -137 108 -139 344 -325
l237 -186 83 -12 c45 -7 82 -14 82 -17 0 -33 -68 -283 -147 -538 -96 -310 -99
-322 -93 -392 3 -39 9 -75 13 -79 4 -5 130 9 280 30 225 31 401 66 1027 202
415 90 789 172 830 180 41 9 76 17 77 18 1 1 7 47 13 102 9 79 27 144 86 319
42 122 78 226 82 232 5 8 31 8 87 2 44 -4 99 -8 122 -8 l43 -1 -5 43 c-37 321
-55 490 -60 577 -17 301 -65 737 -102 924 -3 19 -62 91 -175 212 -136 147
-188 196 -259 244 -50 33 -87 60 -82 60 4 0 -17 16 -47 35 -30 18 -114 87
-186 152 l-131 118 -16 100 c-9 55 -19 196 -23 315 -3 118 -14 294 -24 391
l-17 176 -95 119 c-53 65 -120 143 -151 172 l-55 54 -232 17 -233 17 -139 -45z"/>
</g>
</svg>
