<?xml version="1.0" standalone="no"?>
<!DOCTYPE svg PUBLIC "-//W3C//DTD SVG 20010904//EN"
 "http://www.w3.org/TR/2001/REC-SVG-20010904/DTD/svg10.dtd">
<svg version="1.0" xmlns="http://www.w3.org/2000/svg"
 width="34.000000pt" height="55.000000pt" viewBox="0 0 34.000000 55.000000"
 preserveAspectRatio="xMidYMid meet">
<metadata>
Created by potrace 1.14, written by Peter Selinger 2001-2017
</metadata>
<g transform="translate(0.000000,55.000000) scale(0.100000,-0.100000)"
fill="#000000" stroke="none">
<path fill="#000000" stroke="none" d="M69 543 c-20 -5 -29 -32 -29 -86 0 -21
-9 -63 -20 -94 -24 -70 -25 -105 -4 -168 12 -35 24 -51 44 -58 15 -6 39 -30
54 -53 15 -24 42 -53 61 -64 30 -19 38 -19 82 -9 83 20 84 23 76 167 l-6 125
-34 30 c-28 24 -33 36 -33 72 0 23 -6 58 -14 77 -12 28 -23 37 -69 51 -53 17
-76 19 -108 10z"/>
</g>
</svg>
