<?xml version="1.0" standalone="no"?>
<!DOCTYPE svg PUBLIC "-//W3C//DTD SVG 20010904//EN"
 "http://www.w3.org/TR/2001/REC-SVG-20010904/DTD/svg10.dtd">
<svg version="1.0" xmlns="http://www.w3.org/2000/svg"
 width="52.000000pt" height="23.000000pt" viewBox="0 0 52.000000 23.000000"
 preserveAspectRatio="xMidYMid meet">
<metadata>
Created by potrace 1.14, written by Peter Selinger 2001-2017
</metadata>
<g transform="translate(0.000000,23.000000) scale(0.100000,-0.100000)"
fill="#000000" stroke="none">
<path fill="#000000" stroke="none" d="M12 193 c-9 -29 -9 -39 1 -45 25 -16
46 -7 81 37 l37 45 -54 0 c-53 0 -54 0 -65 -37z"/>
<path fill="#000000" stroke="none" d="M270 225 c0 -3 11 -27 24 -53 13 -26
32 -73 41 -104 l16 -56 47 -7 c34 -4 58 -1 87 11 l40 17 -50 17 c-46 15 -51
20 -59 56 -4 21 -15 58 -23 82 l-15 42 -54 0 c-30 0 -54 -2 -54 -5z"/>
</g>
</svg>
