<?xml version="1.0" standalone="no"?>
<!DOCTYPE svg PUBLIC "-//W3C//DTD SVG 20010904//EN"
 "http://www.w3.org/TR/2001/REC-SVG-20010904/DTD/svg10.dtd">
<svg version="1.0" xmlns="http://www.w3.org/2000/svg"
 width="21.000000pt" height="60.000000pt" viewBox="0 0 21.000000 60.000000"
 preserveAspectRatio="xMidYMid meet">
<metadata>
Created by potrace 1.14, written by Peter Selinger 2001-2017
</metadata>
<g transform="translate(0.000000,60.000000) scale(0.100000,-0.100000)"
fill="#000000" stroke="none">
<path fill="#000000" stroke="none" d="M122 577 c-12 -13 -22 -32 -22 -42 0
-10 -12 -31 -26 -46 -23 -24 -27 -38 -32 -117 -3 -58 -1 -96 7 -110 10 -18 7
-37 -14 -104 -34 -108 -37 -153 -10 -153 15 0 24 12 36 49 16 47 32 66 57 66
8 0 12 -18 12 -55 0 -52 1 -55 25 -55 24 0 25 2 25 74 l0 75 -52 43 c-58 47
-59 50 -37 156 12 59 28 66 66 30 l23 -21 0 32 c0 17 -6 44 -14 60 -13 25 -13
28 5 39 24 15 42 58 34 83 -9 27 -56 25 -83 -4z"/>
</g>
</svg>
