<?xml version="1.0" standalone="no"?>
<!DOCTYPE svg PUBLIC "-//W3C//DTD SVG 20010904//EN"
 "http://www.w3.org/TR/2001/REC-SVG-20010904/DTD/svg10.dtd">
<svg version="1.0" xmlns="http://www.w3.org/2000/svg"
 width="31.000000pt" height="74.000000pt" viewBox="0 0 31.000000 74.000000"
 preserveAspectRatio="xMidYMid meet">
<metadata>
Created by potrace 1.14, written by Peter Selinger 2001-2017
</metadata>
<g transform="translate(0.000000,74.000000) scale(0.100000,-0.100000)"
fill="#000000" stroke="none">
<path fill="#000000" stroke="none" d="M118 728 c-36 -12 -53 -60 -34 -96 13
-26 12 -29 -29 -73 -52 -56 -64 -111 -41 -190 9 -29 16 -67 16 -84 0 -17 9
-48 20 -69 17 -35 18 -47 10 -110 -6 -39 -13 -79 -16 -88 -5 -16 3 -18 70 -18
74 0 76 1 83 28 3 15 6 43 5 62 -3 80 -2 96 8 120 11 24 71 70 91 70 10 0 9
23 -12 165 -15 101 -15 101 -70 135 -40 24 -48 34 -40 44 16 19 3 95 -18 105
-9 5 -28 4 -43 -1z"/>
</g>
</svg>
