<?xml version="1.0" standalone="no"?>
<!DOCTYPE svg PUBLIC "-//W3C//DTD SVG 20010904//EN"
 "http://www.w3.org/TR/2001/REC-SVG-20010904/DTD/svg10.dtd">
<svg version="1.0" xmlns="http://www.w3.org/2000/svg"
 width="57.000000pt" height="105.000000pt" viewBox="0 0 57.000000 105.000000"
 preserveAspectRatio="xMidYMid meet">
<metadata>
Created by potrace 1.14, written by Peter Selinger 2001-2017
</metadata>
<g transform="translate(0.000000,105.000000) scale(0.100000,-0.100000)"
fill="#000000" stroke="none">
<path fill="#000000" stroke="none" d="M319 997 c-18 -29 -69 -89 -112 -134
l-80 -82 2 -85 2 -85 -50 -25 c-27 -14 -52 -30 -56 -35 -3 -6 10 -42 29 -80
l36 -70 -24 -63 c-15 -39 -28 -108 -36 -183 -6 -66 -17 -123 -23 -127 -22 -14
2 -19 114 -25 l114 -6 28 91 c15 50 27 110 27 132 0 51 23 87 61 95 16 4 29
12 29 18 0 7 -9 53 -21 102 -20 85 -21 92 -5 128 15 36 18 38 48 32 18 -4 44
-15 58 -25 14 -10 39 -20 57 -24 41 -7 58 12 49 56 -4 18 -6 50 -6 72 1 27
-10 56 -36 100 -20 33 -38 72 -39 86 -2 14 -16 56 -32 94 -26 61 -34 71 -66
82 l-36 13 -32 -52z"/>
</g>
</svg>
