<?xml version="1.0" standalone="no"?>
<!DOCTYPE svg PUBLIC "-//W3C//DTD SVG 20010904//EN"
 "http://www.w3.org/TR/2001/REC-SVG-20010904/DTD/svg10.dtd">
<svg version="1.0" xmlns="http://www.w3.org/2000/svg"
 width="177.000000pt" height="144.000000pt" viewBox="0 0 177.000000 144.000000"
 preserveAspectRatio="xMidYMid meet">
<metadata>
Created by potrace 1.14, written by Peter Selinger 2001-2017
</metadata>
<g transform="translate(0.000000,144.000000) scale(0.100000,-0.100000)"
fill="#000000" stroke="none">
<path fill="#000000" stroke="none" d="M126 1429 c-28 -4 -53 -6 -56 -4 -4 3
-22 -16 -40 -41 l-32 -46 10 -80 c6 -48 16 -84 24 -89 41 -24 53 -38 41 -49
-8 -9 4 -39 53 -122 35 -60 64 -113 64 -118 0 -5 -29 -30 -65 -56 l-66 -48 22
-17 c13 -9 35 -24 50 -33 l28 -16 27 60 c39 87 55 79 75 -41 12 -76 12 -78
-20 -168 l-33 -91 121 -179 c67 -99 121 -182 121 -186 0 -4 -13 -26 -30 -50
-16 -24 -30 -46 -30 -49 0 -9 244 -7 258 3 10 6 -16 55 -109 201 -96 152 -119
194 -108 202 8 5 75 40 151 78 l136 69 64 -21 c34 -12 91 -39 125 -59 149 -92
168 -98 362 -118 98 -10 188 -24 199 -30 11 -6 34 -11 51 -11 24 0 31 -4 31
-19 0 -13 37 -50 107 -105 58 -47 108 -85 109 -83 5 5 -46 251 -53 257 -4 4
-26 20 -49 37 l-40 32 -31 -20 -30 -19 -119 51 c-106 46 -130 52 -215 58 -63
5 -106 13 -122 24 -51 33 -209 192 -245 246 -55 82 -108 130 -152 137 -30 5
-45 15 -70 51 -39 54 -95 119 -168 197 -55 58 -57 59 -130 69 l-74 10 5 58 c5
56 4 57 -37 98 -23 23 -46 40 -51 40 -6 -1 -32 -5 -59 -10z"/>
</g>
</svg>
