<?xml version="1.0" standalone="no"?>
<!DOCTYPE svg PUBLIC "-//W3C//DTD SVG 20010904//EN"
 "http://www.w3.org/TR/2001/REC-SVG-20010904/DTD/svg10.dtd">
<svg version="1.0" xmlns="http://www.w3.org/2000/svg"
 width="31.000000pt" height="88.000000pt" viewBox="0 0 31.000000 88.000000"
 preserveAspectRatio="xMidYMid meet">
<metadata>
Created by potrace 1.14, written by Peter Selinger 2001-2017
</metadata>
<g transform="translate(0.000000,88.000000) scale(0.100000,-0.100000)"
fill="#000000" stroke="none">
<path fill="#000000" stroke="none" d="M87 873 c-11 -18 -30 -96 -57 -236 -26
-134 -28 -151 -14 -171 13 -20 21 -22 66 -18 l51 5 -5 -184 c-5 -172 -5 -181
9 -141 9 24 19 40 23 35 4 -4 17 -37 29 -73 29 -89 31 -90 74 -83 42 6 41 3
26 109 -9 65 -8 97 6 184 15 87 16 130 9 255 l-9 149 -39 11 c-31 9 -42 18
-48 40 -11 42 -109 137 -121 118z"/>
</g>
</svg>
