<?xml version="1.0" standalone="no"?>
<!DOCTYPE svg PUBLIC "-//W3C//DTD SVG 20010904//EN"
 "http://www.w3.org/TR/2001/REC-SVG-20010904/DTD/svg10.dtd">
<svg version="1.0" xmlns="http://www.w3.org/2000/svg"
 width="29.000000pt" height="15.000000pt" viewBox="0 0 29.000000 15.000000"
 preserveAspectRatio="xMidYMid meet">
<metadata>
Created by potrace 1.14, written by Peter Selinger 2001-2017
</metadata>
<g transform="translate(0.000000,15.000000) scale(0.100000,-0.100000)"
fill="#000000" stroke="none">
<path fill="#000000" stroke="none" d="M135 140 c-3 -5 -32 -10 -64 -10 -32 0
-61 -3 -64 -6 -12 -12 13 -43 38 -46 l25 -3 -25 -37 c-30 -44 -38 -43 120 -23
65 8 121 15 122 15 11 0 -3 24 -39 69 -35 42 -47 51 -74 51 -18 0 -36 -4 -39
-10z"/>
</g>
</svg>
