<?xml version="1.0" standalone="no"?>
<!DOCTYPE svg PUBLIC "-//W3C//DTD SVG 20010904//EN"
 "http://www.w3.org/TR/2001/REC-SVG-20010904/DTD/svg10.dtd">
<svg version="1.0" xmlns="http://www.w3.org/2000/svg"
 width="65.000000pt" height="164.000000pt" viewBox="0 0 65.000000 164.000000"
 preserveAspectRatio="xMidYMid meet">
<metadata>
Created by potrace 1.14, written by Peter Selinger 2001-2017
</metadata>
<g transform="translate(0.000000,164.000000) scale(0.100000,-0.100000)"
fill="#000000" stroke="none">
<path fill="#000000" stroke="none" d="M349 1633 l-106 -4 -38 -102 c-21 -56
-50 -117 -64 -135 l-24 -33 16 -72 c10 -40 17 -79 17 -88 0 -9 -34 -44 -75
-79 -41 -35 -75 -65 -75 -67 0 -3 48 -55 106 -116 l106 -112 -6 -60 c-3 -33
-10 -115 -16 -181 l-11 -122 107 -163 c89 -137 221 -307 229 -297 1 2 -5 86
-15 188 l-16 185 36 80 c20 44 58 135 85 203 l47 122 -24 98 c-22 89 -23 103
-12 162 20 105 19 282 -1 385 -17 88 -19 91 -79 153 -33 34 -65 61 -71 60 -5
-1 -58 -4 -116 -5z"/>
<path fill="#ffffff" stroke="none" d="M468 908 c-3 -32 -5 -33 -46 -33 -36 0
-48 -5 -68 -29 -14 -15 -28 -26 -31 -23 -3 4 -2 27 1 52 l7 45 39 -6 c27 -4
45 -2 61 10 34 23 41 20 37 -16z"/>
</g>
</svg>
