<?xml version="1.0" standalone="no"?>
<!DOCTYPE svg PUBLIC "-//W3C//DTD SVG 20010904//EN"
 "http://www.w3.org/TR/2001/REC-SVG-20010904/DTD/svg10.dtd">
<svg version="1.0" xmlns="http://www.w3.org/2000/svg"
 width="55.000000pt" height="67.000000pt" viewBox="0 0 55.000000 67.000000"
 preserveAspectRatio="xMidYMid meet">
<metadata>
Created by potrace 1.14, written by Peter Selinger 2001-2017
</metadata>
<g transform="translate(0.000000,67.000000) scale(0.100000,-0.100000)"
fill="#000000" stroke="none">
<path fill="#000000" stroke="none" d="M205 560 c-53 -87 -69 -124 -77 -175
l-11 -64 -46 -6 c-25 -4 -53 -9 -61 -11 -8 -3 58 -43 149 -91 155 -83 164 -89
203 -145 22 -33 46 -62 54 -65 8 -3 41 5 74 17 67 25 72 38 45 103 -8 20 -15
48 -15 62 0 14 -11 42 -25 63 -23 35 -25 48 -26 148 0 83 -5 125 -21 176 l-22
67 -67 16 c-38 8 -72 15 -78 15 -5 0 -40 -50 -76 -110z"/>
</g>
</svg>
