<?xml version="1.0" standalone="no"?>
<!DOCTYPE svg PUBLIC "-//W3C//DTD SVG 20010904//EN"
 "http://www.w3.org/TR/2001/REC-SVG-20010904/DTD/svg10.dtd">
<svg version="1.0" xmlns="http://www.w3.org/2000/svg"
 width="34.000000pt" height="92.000000pt" viewBox="0 0 34.000000 92.000000"
 preserveAspectRatio="xMidYMid meet">
<metadata>
Created by potrace 1.14, written by Peter Selinger 2001-2017
</metadata>
<g transform="translate(0.000000,92.000000) scale(0.100000,-0.100000)"
fill="#000000" stroke="none">
<path fill="#000000" stroke="none" d="M88 908 c-11 -10 -18 -50 -27 -158 -6
-80 -11 -171 -11 -202 0 -32 -8 -78 -19 -105 -31 -82 -33 -100 -12 -106 11 -3
38 -38 63 -82 53 -95 77 -125 103 -129 12 -2 21 -12 23 -25 2 -12 15 -41 28
-64 14 -23 23 -33 20 -22 -13 48 -7 96 23 179 37 106 35 141 -16 197 -32 35
-33 38 -13 44 11 3 20 11 20 16 0 6 14 23 31 38 28 26 30 33 30 93 0 96 -6
112 -62 148 -47 30 -58 51 -50 94 3 13 -30 46 -71 72 -44 28 -40 27 -60 12z"/>
</g>
</svg>
