<?xml version="1.0" standalone="no"?>
<!DOCTYPE svg PUBLIC "-//W3C//DTD SVG 20010904//EN"
 "http://www.w3.org/TR/2001/REC-SVG-20010904/DTD/svg10.dtd">
<svg version="1.0" xmlns="http://www.w3.org/2000/svg"
 width="225.000000pt" height="282.000000pt" viewBox="0 0 225.000000 282.000000"
 preserveAspectRatio="xMidYMid meet">
<metadata>
Created by potrace 1.14, written by Peter Selinger 2001-2017
</metadata>
<g transform="translate(0.000000,282.000000) scale(0.100000,-0.100000)"
fill="#000000" stroke="none">
<path fill="#000000" stroke="none" d="M865 2760 c-193 -89 -207 -110 -231
-337 -6 -68 -4 -77 58 -246 l40 -108 -10 -101 -11 -101 34 -66 c29 -58 44 -74
121 -130 49 -35 138 -87 199 -116 60 -29 143 -78 183 -109 59 -45 76 -54 91
-47 10 6 51 11 92 12 65 1 82 -3 145 -33 39 -19 149 -90 245 -158 96 -68 175
-124 177 -125 8 -6 -24 -68 -65 -127 l-46 -68 -51 44 c-177 150 -329 264 -424
316 l-43 24 -24 -29 c-20 -25 -24 -41 -25 -101 0 -55 -89 -565 -125 -720 -3
-16 -18 -24 -61 -33 -30 -7 -57 -11 -58 -9 -2 1 35 167 81 368 45 201 83 388
83 416 0 51 -29 164 -56 215 -11 22 -37 35 -138 72 -93 34 -145 60 -208 105
-91 65 -178 158 -178 191 0 18 -3 19 -27 10 -16 -6 -48 -23 -73 -39 -25 -16
-87 -45 -138 -64 -128 -49 -211 -110 -272 -201 -58 -86 -69 -111 -115 -264
-44 -147 -46 -229 -11 -387 14 -60 28 -131 31 -159 4 -27 24 -95 45 -150 20
-55 57 -183 81 -284 41 -174 45 -185 74 -202 28 -18 67 -19 708 -19 372 0 677
1 677 3 0 2 -7 24 -15 49 -11 30 -15 73 -13 133 l3 87 87 32 c83 30 92 36 217
154 90 85 150 152 197 220 73 105 79 121 114 328 22 130 24 164 12 164 -5 0
-33 -22 -63 -50 -30 -27 -59 -50 -64 -50 -6 0 -21 21 -35 47 -14 27 -40 65
-59 86 -27 30 -40 37 -70 37 -30 0 -44 7 -73 37 -19 21 -39 51 -42 67 -12 48
-57 96 -91 96 -24 0 -53 18 -120 73 -50 41 -132 101 -183 136 -60 40 -90 66
-86 74 42 71 67 96 114 113 43 16 66 33 43 34 -5 0 -27 17 -51 38 l-44 38 18
44 c10 25 29 56 44 70 23 21 29 39 38 108 10 70 9 89 -3 112 -8 16 -15 41 -15
56 0 74 -25 161 -62 216 -38 56 -38 57 -31 132 l6 76 -39 17 c-36 15 -94 22
-299 38 l-80 6 -130 -61z"/>
</g>
</svg>
