<?xml version="1.0" standalone="no"?>
<!DOCTYPE svg PUBLIC "-//W3C//DTD SVG 20010904//EN"
 "http://www.w3.org/TR/2001/REC-SVG-20010904/DTD/svg10.dtd">
<svg version="1.0" xmlns="http://www.w3.org/2000/svg"
 width="10.000000pt" height="29.000000pt" viewBox="0 0 10.000000 29.000000"
 preserveAspectRatio="xMidYMid meet">
<metadata>
Created by potrace 1.14, written by Peter Selinger 2001-2017
</metadata>
<g transform="translate(0.000000,29.000000) scale(0.100000,-0.100000)"
fill="#000000" stroke="none">
<path fill="#000000" stroke="none" d="M60 251 c0 -22 -4 -43 -10 -46 -5 -3
-10 -28 -10 -54 0 -35 -5 -53 -20 -66 -23 -21 -18 -35 10 -28 17 5 20 0 20
-26 0 -35 10 -39 33 -13 13 14 14 37 10 145 -5 97 -9 127 -19 127 -10 0 -14
-13 -14 -39z"/>
</g>
</svg>
