<?xml version="1.0" standalone="no"?>
<!DOCTYPE svg PUBLIC "-//W3C//DTD SVG 20010904//EN"
 "http://www.w3.org/TR/2001/REC-SVG-20010904/DTD/svg10.dtd">
<svg version="1.0" xmlns="http://www.w3.org/2000/svg"
 width="150.000000pt" height="241.000000pt" viewBox="0 0 150.000000 241.000000"
 preserveAspectRatio="xMidYMid meet">
<metadata>
Created by potrace 1.14, written by Peter Selinger 2001-2017
</metadata>
<g transform="translate(0.000000,241.000000) scale(0.100000,-0.100000)"
fill="#000000" stroke="none">
<path fill="#000000" stroke="none" d="M315 2347 c-123 -55 -147 -70 -195
-121 -51 -54 -56 -63 -66 -129 -11 -69 -10 -79 26 -231 22 -87 40 -159 42
-160 2 -1 42 -36 89 -78 47 -43 96 -81 110 -86 13 -5 60 -13 105 -17 l81 -7
-9 -46 c-20 -104 -41 -188 -51 -199 -5 -7 -18 -13 -28 -13 -11 0 -16 -5 -13
-14 6 -14 -23 -26 -66 -26 -36 0 -188 -104 -195 -133 -7 -27 -79 -77 -111 -77
-18 0 -22 -7 -28 -46 -3 -26 -6 -73 -6 -104 0 -52 4 -62 40 -107 35 -45 47
-52 114 -71 41 -12 82 -19 91 -16 10 4 21 1 25 -6 5 -8 35 -23 67 -35 l58 -22
23 -69 c24 -69 24 -69 7 -170 -15 -93 -15 -109 -1 -190 9 -49 16 -93 16 -97 0
-5 5 -5 10 -2 15 9 50 81 50 104 0 29 146 54 263 45 l87 -7 0 -77 0 -78 78
-16 c42 -9 94 -23 115 -31 l37 -13 2 56 c1 31 1 96 -1 143 -3 98 8 131 83 254
39 63 46 83 65 196 11 70 21 143 21 163 0 20 16 74 35 120 19 47 35 93 35 104
0 10 38 66 83 124 l84 105 6 87 c6 79 4 92 -20 149 -15 34 -27 63 -28 64 0 1
-59 20 -130 42 -194 60 -347 123 -398 165 l-45 37 -38 152 c-45 183 -86 278
-155 357 -43 50 -58 60 -100 69 -117 25 -114 26 -264 -42z"/>
</g>
</svg>
