<?xml version="1.0" standalone="no"?>
<!DOCTYPE svg PUBLIC "-//W3C//DTD SVG 20010904//EN"
 "http://www.w3.org/TR/2001/REC-SVG-20010904/DTD/svg10.dtd">
<svg version="1.0" xmlns="http://www.w3.org/2000/svg"
 width="140.000000pt" height="142.000000pt" viewBox="0 0 140.000000 142.000000"
 preserveAspectRatio="xMidYMid meet">
<metadata>
Created by potrace 1.14, written by Peter Selinger 2001-2017
</metadata>
<g transform="translate(0.000000,142.000000) scale(0.100000,-0.100000)"
fill="#000000" stroke="none">
<path fill="#000000" stroke="none" d="M930 1414 c-8 -1 -41 -6 -73 -9 -57 -6
-59 -8 -91 -58 l-33 -52 43 -50 c36 -40 44 -57 44 -89 0 -42 39 -106 66 -106
20 0 17 -13 -8 -37 -18 -16 -41 -22 -108 -26 -47 -3 -155 -21 -241 -41 -122
-28 -166 -34 -200 -28 -24 4 -79 6 -121 4 l-78 -4 0 -35 c0 -35 0 -35 33 -27
17 4 50 7 72 6 412 -16 405 -16 550 18 74 17 139 30 144 28 4 -1 -14 -63 -42
-135 l-50 -133 -110 0 -109 0 -132 -128 c-72 -70 -152 -146 -178 -169 -26 -23
-41 -44 -35 -46 7 -3 -8 -4 -33 -2 -46 3 -130 37 -185 74 -35 24 -55 27 -55 7
0 -49 146 -235 186 -236 23 0 114 60 249 166 152 118 214 154 268 154 45 0 47
-1 47 -29 0 -16 -10 -54 -21 -85 -21 -54 -21 -57 -4 -76 17 -18 16 -21 -5 -73
-18 -44 -32 -60 -70 -83 l-47 -29 30 -37 c16 -20 36 -39 43 -42 24 -9 100 119
144 244 23 63 42 115 43 117 2 1 68 -18 147 -42 177 -55 220 -57 299 -15 53
28 58 35 69 78 7 26 13 108 13 182 2 117 -1 144 -21 200 -30 87 -32 91 -117
203 -42 55 -96 114 -124 134 -47 33 -49 36 -43 73 9 57 -21 135 -74 192 -25
26 -50 47 -56 47 -6 -1 -18 -3 -26 -5z"/>
</g>
</svg>
