<?xml version="1.0" standalone="no"?>
<!DOCTYPE svg PUBLIC "-//W3C//DTD SVG 20010904//EN"
 "http://www.w3.org/TR/2001/REC-SVG-20010904/DTD/svg10.dtd">
<svg version="1.0" xmlns="http://www.w3.org/2000/svg"
 width="371.000000pt" height="165.000000pt" viewBox="0 0 371.000000 165.000000"
 preserveAspectRatio="xMidYMid meet">
<metadata>
Created by potrace 1.14, written by Peter Selinger 2001-2017
</metadata>
<g transform="translate(0.000000,165.000000) scale(0.100000,-0.100000)"
fill="#000000" stroke="none">
<path fill="#000000" stroke="none" d="M35 1630 c-18 -20 -18 -20 16 -20 l34
0 -42 -28 -41 -27 261 -28 c144 -15 368 -44 498 -64 l237 -37 41 -135 c71
-237 101 -360 126 -515 13 -83 27 -160 31 -171 4 -11 29 -44 56 -72 53 -57 52
-51 28 -165 l-8 -37 102 85 101 85 140 -7 c77 -4 150 -10 162 -15 15 -6 50 1
113 23 l91 30 27 -23 c15 -13 44 -39 65 -59 l37 -34 -49 -26 -49 -25 72 -183
c69 -177 72 -182 96 -177 48 12 95 52 124 106 16 30 49 85 75 122 25 38 55 94
66 124 17 45 33 65 82 104 l61 49 48 -75 c27 -41 52 -75 57 -75 14 0 233 167
255 194 11 15 28 49 37 76 9 27 23 54 31 60 9 9 14 33 14 77 0 88 42 235 83
287 17 23 72 83 122 134 68 71 107 103 160 129 97 49 187 132 256 235 33 48
59 90 59 94 0 4 -143 4 -317 0 -175 -3 -363 -5 -418 -4 -236 7 -229 8 -342
-58 -56 -32 -143 -95 -193 -139 -61 -54 -103 -82 -127 -88 -40 -8 -87 -39
-122 -80 -13 -16 -56 -50 -95 -76 -77 -52 -66 -49 -308 -70 -77 -7 -90 -11
-122 -39 -20 -18 -44 -32 -54 -32 -37 -1 -250 -19 -292 -25 l-45 -7 55 35 c35
22 73 37 105 41 37 4 56 13 74 33 22 25 23 32 16 102 -4 42 -6 83 -5 91 1 8 3
51 4 96 2 57 7 87 19 104 25 35 22 42 -30 73 -56 34 -41 34 -884 42 -570 6
-575 6 -594 -15z"/>
</g>
</svg>
