<?xml version="1.0" standalone="no"?>
<!DOCTYPE svg PUBLIC "-//W3C//DTD SVG 20010904//EN"
 "http://www.w3.org/TR/2001/REC-SVG-20010904/DTD/svg10.dtd">
<svg version="1.0" xmlns="http://www.w3.org/2000/svg"
 width="100.000000pt" height="180.000000pt" viewBox="0 0 100.000000 180.000000"
 preserveAspectRatio="xMidYMid meet">
<metadata>
Created by potrace 1.14, written by Peter Selinger 2001-2017
</metadata>
<g transform="translate(0.000000,180.000000) scale(0.100000,-0.100000)"
fill="#000000" stroke="none">
<path fill="#000000" stroke="none" d="M429 1767 l-97 -30 -61 -131 c-34 -72
-61 -137 -61 -145 0 -7 -18 -41 -40 -74 -38 -56 -40 -64 -34 -106 4 -25 10
-48 14 -51 4 -3 14 -28 22 -57 l15 -51 -46 -7 c-25 -4 -67 -11 -94 -17 l-47
-10 19 -26 c10 -15 24 -60 31 -101 12 -71 94 -399 101 -405 2 -2 44 -27 94
-56 50 -30 131 -82 181 -117 l91 -64 48 -122 47 -123 60 -37 60 -37 -6 72
c-31 377 -30 343 -6 428 l22 78 129 88 c71 48 129 89 129 91 0 2 -10 21 -22
43 -16 27 -44 51 -96 82 -51 29 -88 60 -117 98 l-43 55 78 115 78 115 7 175 7
175 -176 93 c-97 50 -179 91 -183 91 -5 -1 -51 -15 -104 -32z"/>
</g>
</svg>
