<?xml version="1.0" standalone="no"?>
<!DOCTYPE svg PUBLIC "-//W3C//DTD SVG 20010904//EN"
 "http://www.w3.org/TR/2001/REC-SVG-20010904/DTD/svg10.dtd">
<svg version="1.0" xmlns="http://www.w3.org/2000/svg"
 width="49.000000pt" height="94.000000pt" viewBox="0 0 49.000000 94.000000"
 preserveAspectRatio="xMidYMid meet">
<metadata>
Created by potrace 1.14, written by Peter Selinger 2001-2017
</metadata>
<g transform="translate(0.000000,94.000000) scale(0.100000,-0.100000)"
fill="#000000" stroke="none">
<path fill="#000000" stroke="none" d="M195 930 c-3 -5 -20 -10 -36 -10 -32 0
-69 -16 -81 -34 -4 -6 -8 -35 -8 -64 0 -29 -5 -63 -12 -75 -6 -12 -15 -93 -18
-182 -6 -118 -12 -168 -24 -190 -23 -42 -21 -113 4 -140 18 -19 18 -24 5 -69
-20 -65 -19 -89 3 -109 24 -22 75 -22 95 1 9 10 26 48 37 85 19 60 50 107 71
107 10 0 16 -38 24 -140 4 -58 10 -80 26 -95 l21 -20 -5 35 c-13 79 -29 231
-26 235 3 2 43 -52 89 -120 47 -67 86 -122 87 -121 8 7 -28 138 -49 176 -20
39 -22 52 -16 98 4 29 20 71 34 93 24 38 58 122 71 176 8 35 -5 70 -41 111
-41 46 -55 102 -26 102 22 0 50 36 50 65 0 11 -7 31 -16 43 -13 19 -24 22 -78
22 -44 0 -67 5 -76 15 -14 17 -95 21 -105 5z"/>
</g>
</svg>
