<?xml version="1.0" standalone="no"?>
<!DOCTYPE svg PUBLIC "-//W3C//DTD SVG 20010904//EN"
 "http://www.w3.org/TR/2001/REC-SVG-20010904/DTD/svg10.dtd">
<svg version="1.0" xmlns="http://www.w3.org/2000/svg"
 width="46.000000pt" height="49.000000pt" viewBox="0 0 46.000000 49.000000"
 preserveAspectRatio="xMidYMid meet">
<metadata>
Created by potrace 1.14, written by Peter Selinger 2001-2017
</metadata>
<g transform="translate(0.000000,49.000000) scale(0.100000,-0.100000)"
fill="#000000" stroke="none">
<path fill="#000000" stroke="none" d="M110 406 c0 -153 -16 -222 -67 -294
-25 -35 -43 -64 -41 -66 17 -13 116 -46 137 -46 47 0 95 19 140 55 24 19 54
35 67 35 20 0 31 15 69 89 l45 90 -158 97 c-86 54 -165 104 -174 112 -17 14
-18 10 -18 -72z"/>
</g>
</svg>
