<?xml version="1.0" standalone="no"?>
<!DOCTYPE svg PUBLIC "-//W3C//DTD SVG 20010904//EN"
 "http://www.w3.org/TR/2001/REC-SVG-20010904/DTD/svg10.dtd">
<svg version="1.0" xmlns="http://www.w3.org/2000/svg"
 width="155.000000pt" height="38.000000pt" viewBox="0 0 155.000000 38.000000"
 preserveAspectRatio="xMidYMid meet">
<metadata>
Created by potrace 1.14, written by Peter Selinger 2001-2017
</metadata>
<g transform="translate(0.000000,38.000000) scale(0.100000,-0.100000)"
fill="#000000" stroke="none">
<path fill="#000000" stroke="none" d="M524 335 c-4 -31 -2 -50 7 -61 12 -15
15 -14 31 6 22 27 23 49 2 78 -23 33 -32 27 -40 -23z"/>
<path fill="#000000" stroke="none" d="M238 293 c-24 -26 -26 -68 -5 -91 10
-11 26 -41 36 -68 l19 -48 7 45 c5 31 18 55 43 82 35 36 36 39 22 65 -13 22
-24 28 -61 30 -33 2 -49 -2 -61 -15z"/>
<path fill="#000000" stroke="none" d="M1386 261 c7 -7 10 -29 7 -50 -5 -35
-2 -39 40 -72 26 -18 51 -46 58 -61 6 -15 18 -33 27 -40 11 -9 8 0 -7 27 -13
22 -43 75 -68 117 -25 43 -50 81 -56 84 -9 5 -9 4 -1 -5z"/>
<path fill="#000000" stroke="none" d="M17 242 c-37 -41 -9 -102 47 -102 26 0
28 2 21 28 -9 37 -36 92 -45 92 -4 0 -14 -8 -23 -18z"/>
</g>
</svg>
