<?xml version="1.0" standalone="no"?>
<!DOCTYPE svg PUBLIC "-//W3C//DTD SVG 20010904//EN"
 "http://www.w3.org/TR/2001/REC-SVG-20010904/DTD/svg10.dtd">
<svg version="1.0" xmlns="http://www.w3.org/2000/svg"
 width="161.000000pt" height="511.000000pt" viewBox="0 0 161.000000 511.000000"
 preserveAspectRatio="xMidYMid meet">
<metadata>
Created by potrace 1.14, written by Peter Selinger 2001-2017
</metadata>
<g transform="translate(0.000000,511.000000) scale(0.100000,-0.100000)"
fill="#000000" stroke="none">
<path fill="#000000" stroke="none" d="M716 5091 c-61 -18 -62 -19 -146 -127
l-40 -51 -20 -183 c-11 -100 -20 -211 -20 -247 l0 -64 -79 -35 -78 -36 -39
-76 c-21 -42 -42 -79 -45 -82 -32 -27 -52 -234 -40 -410 7 -97 16 -140 60
-276 58 -184 62 -224 31 -352 -18 -77 -20 -118 -20 -548 l0 -464 -35 -108
c-35 -107 -125 -478 -125 -513 0 -10 14 -48 32 -83 l32 -65 -73 -403 c-65
-363 -72 -411 -65 -480 7 -77 7 -77 -20 -89 -15 -7 -25 -17 -23 -23 2 -6 13
-44 23 -85 16 -63 23 -76 47 -86 l28 -12 -43 -17 -43 -17 95 -49 c91 -47 98
-49 180 -49 80 -1 86 -2 116 -32 36 -35 34 -38 54 64 12 57 11 59 -23 117
l-35 58 34 119 c43 147 136 561 129 573 -3 5 -48 31 -100 60 l-95 51 0 40 c0
22 38 196 84 387 110 452 105 418 67 427 -27 6 -31 11 -31 40 0 54 18 83 59
92 l36 9 11 87 c7 49 15 91 18 94 4 4 68 11 143 15 110 7 143 13 170 29 l33
21 36 -22 35 -23 33 32 c31 30 36 32 84 25 l51 -6 11 43 c6 24 13 51 15 59 2
8 -2 28 -9 44 -10 24 -9 54 1 150 l13 121 -36 140 c-21 80 -47 157 -61 179
-23 35 -25 49 -24 120 1 44 5 85 9 92 7 13 127 114 180 152 26 18 44 22 105
22 l75 0 68 64 c38 35 66 67 63 71 -4 3 -39 -4 -79 -16 -63 -19 -88 -21 -194
-16 l-121 5 -73 -71 -72 -71 0 51 c0 35 14 90 45 177 l45 127 -31 39 -31 38
80 178 c43 99 82 187 85 196 3 10 29 32 57 49 38 23 50 37 50 55 0 14 7 41 15
60 11 27 12 41 4 56 -8 15 -7 24 6 38 16 17 15 20 -6 49 -18 25 -27 29 -51 24
-21 -4 -32 -1 -42 12 -12 17 -15 17 -37 2 -20 -15 -21 -17 -5 -17 15 0 16 -3
6 -15 -7 -8 -21 -15 -32 -15 -11 0 -37 -17 -57 -37 -31 -32 -40 -51 -54 -119
-13 -62 -24 -87 -45 -107 l-28 -27 -53 40 c-29 22 -70 45 -92 51 -65 20 -50
51 33 69 51 10 59 15 64 38 13 57 17 69 49 117 18 28 38 68 44 90 14 51 14
180 0 264 -10 59 -16 71 -63 119 -91 96 -181 120 -310 83z"/>
</g>
</svg>
