<?xml version="1.0" standalone="no"?>
<!DOCTYPE svg PUBLIC "-//W3C//DTD SVG 20010904//EN"
 "http://www.w3.org/TR/2001/REC-SVG-20010904/DTD/svg10.dtd">
<svg version="1.0" xmlns="http://www.w3.org/2000/svg"
 width="90.000000pt" height="99.000000pt" viewBox="0 0 90.000000 99.000000"
 preserveAspectRatio="xMidYMid meet">
<metadata>
Created by potrace 1.14, written by Peter Selinger 2001-2017
</metadata>
<g transform="translate(0.000000,99.000000) scale(0.100000,-0.100000)"
fill="#000000" stroke="none">
<path fill="#000000" stroke="none" d="M346 983 c-11 -3 -36 -16 -57 -28 -27
-18 -38 -32 -41 -57 -5 -33 16 -123 33 -144 6 -7 1 -18 -12 -30 -44 -39 -128
-152 -159 -215 -34 -67 -43 -131 -27 -209 7 -34 5 -36 -40 -62 l-47 -26 88
-41 c49 -23 96 -41 105 -41 9 0 33 -5 54 -11 30 -8 39 -16 43 -38 5 -21 15
-31 50 -44 38 -14 44 -14 44 -2 0 23 16 17 28 -10 17 -37 53 -32 113 18 58 46
63 58 80 185 6 46 17 96 25 110 7 14 21 59 30 99 10 40 23 73 30 73 15 0 84
-84 84 -102 0 -7 -13 -53 -29 -103 -25 -78 -31 -90 -50 -88 -16 2 -21 -3 -21
-20 0 -34 13 -47 53 -54 36 -5 37 -4 55 38 11 24 34 69 52 99 18 30 41 79 51
107 l18 53 -51 77 c-29 42 -86 111 -127 152 -71 71 -80 77 -137 89 l-61 12
-12 75 c-11 65 -17 78 -47 105 -19 16 -40 30 -47 30 -7 0 -21 2 -32 4 -11 2
-29 2 -39 -1z"/>
</g>
</svg>
