<?xml version="1.0" standalone="no"?>
<!DOCTYPE svg PUBLIC "-//W3C//DTD SVG 20010904//EN"
 "http://www.w3.org/TR/2001/REC-SVG-20010904/DTD/svg10.dtd">
<svg version="1.0" xmlns="http://www.w3.org/2000/svg"
 width="85.000000pt" height="186.000000pt" viewBox="0 0 85.000000 186.000000"
 preserveAspectRatio="xMidYMid meet">
<metadata>
Created by potrace 1.14, written by Peter Selinger 2001-2017
</metadata>
<g transform="translate(0.000000,186.000000) scale(0.100000,-0.100000)"
fill="#000000" stroke="none">
<path fill="#000000" stroke="none" d="M380 1837 c-53 -23 -55 -24 -68 -80
-14 -57 -14 -58 12 -90 15 -17 45 -55 67 -84 l40 -51 -20 -67 c-14 -44 -21
-95 -21 -145 l0 -78 -97 -12 c-85 -10 -196 -8 -244 6 -25 7 -49 -54 -35 -93 6
-18 16 -36 21 -41 20 -18 173 -42 263 -42 l92 0 -1 -97 c0 -54 -4 -134 -8
-178 -8 -91 16 -233 69 -405 27 -88 34 -100 70 -125 22 -15 40 -31 40 -35 0
-4 -14 -10 -30 -14 -27 -5 -29 -8 -18 -25 9 -15 8 -24 -5 -45 -9 -14 -17 -28
-17 -30 0 -9 60 -39 148 -73 88 -35 177 -44 200 -21 15 15 16 104 1 114 -6 3
-9 20 -7 36 4 23 -1 33 -18 44 -17 12 -28 40 -49 127 -16 62 -46 161 -68 221
-37 102 -39 115 -34 187 5 74 7 81 52 139 l47 61 -16 92 c-15 88 -15 98 6 239
l21 146 -55 134 c-30 73 -63 154 -72 180 -12 33 -32 60 -66 88 -42 35 -54 40
-96 40 -27 -1 -74 -11 -104 -23z"/>
</g>
</svg>
