<?xml version="1.0" standalone="no"?>
<!DOCTYPE svg PUBLIC "-//W3C//DTD SVG 20010904//EN"
 "http://www.w3.org/TR/2001/REC-SVG-20010904/DTD/svg10.dtd">
<svg version="1.0" xmlns="http://www.w3.org/2000/svg"
 width="116.000000pt" height="275.000000pt" viewBox="0 0 116.000000 275.000000"
 preserveAspectRatio="xMidYMid meet">
<metadata>
Created by potrace 1.14, written by Peter Selinger 2001-2017
</metadata>
<g transform="translate(0.000000,275.000000) scale(0.100000,-0.100000)"
fill="#000000" stroke="none">
<path fill="#000000" stroke="none" d="M437 2712 c-39 -30 -59 -56 -97 -133
l-49 -96 65 -41 64 -41 0 -126 c0 -116 -1 -126 -17 -121 -10 2 -45 7 -78 10
l-60 6 -75 -55 -75 -55 -43 -213 c-23 -116 -47 -232 -52 -257 -5 -25 -12 -59
-15 -77 l-6 -32 118 -59 c65 -32 178 -81 250 -108 l133 -49 102 -103 103 -102
-47 -333 c-26 -182 -50 -390 -53 -462 -3 -72 -8 -160 -11 -196 l-6 -65 107 14
107 15 -7 52 c-5 45 -1 62 30 136 36 83 37 90 72 429 27 270 36 407 40 629 l6
283 108 -7 109 -7 0 53 c0 74 -34 169 -143 399 l-93 194 -99 29 c-55 17 -103
35 -107 41 -17 25 -6 91 32 188 l39 102 -24 30 c-79 102 -99 117 -175 142 -41
13 -82 24 -90 23 -8 0 -37 -17 -63 -37z"/>
</g>
</svg>
