<?xml version="1.0" standalone="no"?>
<!DOCTYPE svg PUBLIC "-//W3C//DTD SVG 20010904//EN"
 "http://www.w3.org/TR/2001/REC-SVG-20010904/DTD/svg10.dtd">
<svg version="1.0" xmlns="http://www.w3.org/2000/svg"
 width="30.000000pt" height="25.000000pt" viewBox="0 0 30.000000 25.000000"
 preserveAspectRatio="xMidYMid meet">
<metadata>
Created by potrace 1.14, written by Peter Selinger 2001-2017
</metadata>
<g transform="translate(0.000000,25.000000) scale(0.100000,-0.100000)"
fill="#000000" stroke="none">
<path fill="#000000" stroke="none" d="M115 239 c-4 -5 -26 -9 -49 -9 -24 0
-48 -6 -54 -13 -6 -7 -10 -37 -9 -67 l1 -55 38 3 c35 4 38 2 38 -23 0 -14 -5
-35 -10 -46 -9 -16 -7 -19 10 -19 12 0 30 4 40 10 13 7 21 6 30 -5 16 -20 79
-20 86 0 4 8 14 15 25 15 28 0 39 31 39 110 0 104 -4 108 -100 108 -44 0 -82
-4 -85 -9z"/>
</g>
</svg>
