<?xml version="1.0" standalone="no"?>
<!DOCTYPE svg PUBLIC "-//W3C//DTD SVG 20010904//EN"
 "http://www.w3.org/TR/2001/REC-SVG-20010904/DTD/svg10.dtd">
<svg version="1.0" xmlns="http://www.w3.org/2000/svg"
 width="27.000000pt" height="23.000000pt" viewBox="0 0 27.000000 23.000000"
 preserveAspectRatio="xMidYMid meet">
<metadata>
Created by potrace 1.14, written by Peter Selinger 2001-2017
</metadata>
<g transform="translate(0.000000,23.000000) scale(0.100000,-0.100000)"
fill="#000000" stroke="none">
<path fill="#000000" stroke="none" d="M61 214 c-20 -14 -22 -23 -18 -55 4
-29 2 -39 -9 -39 -7 0 -18 -8 -23 -19 -10 -17 -5 -19 67 -25 102 -9 108 -12
122 -46 20 -49 70 -37 70 16 0 9 -11 14 -35 14 -19 0 -35 4 -35 9 0 5 -14 14
-30 21 -35 14 -50 37 -50 73 0 14 -8 34 -17 46 -17 21 -19 21 -42 5z"/>
</g>
</svg>
