<?xml version="1.0" standalone="no"?>
<!DOCTYPE svg PUBLIC "-//W3C//DTD SVG 20010904//EN"
 "http://www.w3.org/TR/2001/REC-SVG-20010904/DTD/svg10.dtd">
<svg version="1.0" xmlns="http://www.w3.org/2000/svg"
 width="21.000000pt" height="65.000000pt" viewBox="0 0 21.000000 65.000000"
 preserveAspectRatio="xMidYMid meet">
<metadata>
Created by potrace 1.14, written by Peter Selinger 2001-2017
</metadata>
<g transform="translate(0.000000,65.000000) scale(0.100000,-0.100000)"
fill="#000000" stroke="none">
<path fill="#000000" stroke="none" d="M77 643 c-4 -3 -7 -16 -7 -29 0 -12
-11 -44 -26 -71 -30 -59 -55 -246 -35 -266 8 -8 11 -2 11 25 0 20 4 40 10 43
8 5 17 -95 11 -128 -1 -5 -3 -47 -4 -93 -2 -59 1 -88 9 -95 20 -16 34 -2 35
34 0 18 4 50 9 72 7 34 8 27 8 -43 -1 -45 2 -85 5 -88 3 -3 14 -3 25 0 21 7
31 59 33 166 0 30 4 64 9 75 7 18 8 19 15 3 13 -33 25 -18 25 32 0 46 -2 50
-23 50 -13 0 -31 6 -41 13 -17 13 -18 19 -6 78 21 108 23 139 10 139 -8 0 -10
9 -6 25 9 34 -9 65 -38 65 -12 0 -26 -3 -29 -7z"/>
</g>
</svg>
