<?xml version="1.0" standalone="no"?>
<!DOCTYPE svg PUBLIC "-//W3C//DTD SVG 20010904//EN"
 "http://www.w3.org/TR/2001/REC-SVG-20010904/DTD/svg10.dtd">
<svg version="1.0" xmlns="http://www.w3.org/2000/svg"
 width="21.000000pt" height="35.000000pt" viewBox="0 0 21.000000 35.000000"
 preserveAspectRatio="xMidYMid meet">
<metadata>
Created by potrace 1.14, written by Peter Selinger 2001-2017
</metadata>
<g transform="translate(0.000000,35.000000) scale(0.100000,-0.100000)"
fill="#000000" stroke="none">
<path fill="#000000" stroke="none" d="M43 335 c-25 -18 -43 -84 -43 -164 0
-54 2 -61 20 -61 14 0 21 -9 25 -37 4 -21 9 -46 11 -55 8 -27 34 -9 34 22 0
17 7 30 17 34 20 8 33 -10 33 -46 0 -31 6 -33 44 -18 25 9 26 12 26 103 0 86
-2 95 -24 116 -13 12 -26 39 -30 61 -9 57 -64 79 -113 45z"/>
</g>
</svg>
