<?xml version="1.0" standalone="no"?>
<!DOCTYPE svg PUBLIC "-//W3C//DTD SVG 20010904//EN"
 "http://www.w3.org/TR/2001/REC-SVG-20010904/DTD/svg10.dtd">
<svg version="1.0" xmlns="http://www.w3.org/2000/svg"
 width="32.000000pt" height="42.000000pt" viewBox="0 0 32.000000 42.000000"
 preserveAspectRatio="xMidYMid meet">
<metadata>
Created by potrace 1.14, written by Peter Selinger 2001-2017
</metadata>
<g transform="translate(0.000000,42.000000) scale(0.100000,-0.100000)"
fill="#000000" stroke="none">
<path fill="#000000" stroke="none" d="M106 374 c-12 -31 -17 -58 -13 -86 5
-36 0 -50 -44 -120 -48 -78 -48 -80 -37 -122 l11 -43 126 3 c69 2 136 4 147 4
20 0 22 5 22 72 1 77 -10 108 -52 147 -14 14 -26 32 -26 42 0 9 -6 22 -14 28
-8 7 -17 30 -21 52 -8 46 -27 69 -58 69 -17 0 -27 -11 -41 -46z"/>
</g>
</svg>
