<?xml version="1.0" standalone="no"?>
<!DOCTYPE svg PUBLIC "-//W3C//DTD SVG 20010904//EN"
 "http://www.w3.org/TR/2001/REC-SVG-20010904/DTD/svg10.dtd">
<svg version="1.0" xmlns="http://www.w3.org/2000/svg"
 width="17.000000pt" height="34.000000pt" viewBox="0 0 17.000000 34.000000"
 preserveAspectRatio="xMidYMid meet">
<metadata>
Created by potrace 1.14, written by Peter Selinger 2001-2017
</metadata>
<g transform="translate(0.000000,34.000000) scale(0.100000,-0.100000)"
fill="#000000" stroke="none">
<path fill="#000000" stroke="none" d="M103 320 c3 -14 -1 -24 -15 -31 -20
-11 -20 -11 4 -36 l23 -26 -29 5 -28 6 6 -49 c4 -28 2 -57 -4 -68 -7 -13 -7
-28 0 -45 8 -21 7 -26 -6 -26 -8 0 -24 5 -35 10 -16 9 -19 7 -19 -8 0 -49 85
-71 114 -30 9 12 16 39 16 59 0 20 6 52 14 71 26 60 31 134 12 163 -21 31 -61
35 -53 5z"/>
<path fill="#000000" stroke="none" d="M6 158 c-3 -13 -5 -36 -5 -53 1 -21 4
-15 10 20 8 52 6 72 -5 33z"/>
</g>
</svg>
