<?xml version="1.0" standalone="no"?>
<!DOCTYPE svg PUBLIC "-//W3C//DTD SVG 20010904//EN"
 "http://www.w3.org/TR/2001/REC-SVG-20010904/DTD/svg10.dtd">
<svg version="1.0" xmlns="http://www.w3.org/2000/svg"
 width="16.000000pt" height="44.000000pt" viewBox="0 0 16.000000 44.000000"
 preserveAspectRatio="xMidYMid meet">
<metadata>
Created by potrace 1.14, written by Peter Selinger 2001-2017
</metadata>
<g transform="translate(0.000000,44.000000) scale(0.100000,-0.100000)"
fill="#000000" stroke="none">
<path fill="#000000" stroke="none" d="M68 429 c-10 -5 -18 -21 -18 -36 0 -14
-11 -38 -25 -55 -29 -34 -30 -44 -11 -159 8 -47 12 -107 9 -132 -5 -43 -4 -47
16 -47 11 0 21 2 21 4 0 2 7 38 14 80 13 65 20 80 49 106 l34 30 -17 62 c-23
81 -30 98 -41 98 -5 0 -4 11 1 24 13 35 0 44 -32 25z"/>
</g>
</svg>
