<?xml version="1.0" standalone="no"?>
<!DOCTYPE svg PUBLIC "-//W3C//DTD SVG 20010904//EN"
 "http://www.w3.org/TR/2001/REC-SVG-20010904/DTD/svg10.dtd">
<svg version="1.0" xmlns="http://www.w3.org/2000/svg"
 width="185.000000pt" height="312.000000pt" viewBox="0 0 185.000000 312.000000"
 preserveAspectRatio="xMidYMid meet">
<metadata>
Created by potrace 1.14, written by Peter Selinger 2001-2017
</metadata>
<g transform="translate(0.000000,312.000000) scale(0.100000,-0.100000)"
fill="#000000" stroke="none">
<path fill="#000000" stroke="none" d="M705 3085 c-41 -24 -68 -33 -85 -30
-20 4 -36 -5 -77 -44 -70 -67 -84 -91 -99 -174 -24 -131 -19 -165 31 -256 33
-59 45 -92 45 -122 0 -50 36 -136 61 -144 10 -3 21 -14 24 -24 3 -10 27 -28
55 -41 43 -20 49 -27 55 -62 4 -22 5 -40 3 -42 -1 -1 -25 -11 -53 -21 -83 -30
-169 -107 -222 -199 -42 -72 -47 -89 -53 -161 -5 -72 -2 -92 28 -195 44 -148
81 -465 70 -592 -11 -122 -12 -124 -30 -145 -12 -13 -18 -36 -18 -67 0 -32 -7
-56 -21 -76 -14 -18 -20 -37 -16 -52 3 -13 0 -31 -9 -42 -8 -11 -14 -27 -14
-36 0 -32 -57 -108 -87 -114 -20 -5 -36 -20 -55 -54 -14 -26 -74 -94 -133
-151 -83 -81 -103 -106 -92 -113 21 -11 104 26 147 66 19 18 45 33 56 34 19 0
21 -3 14 -34 l-8 -34 74 0 73 0 10 37 c15 52 76 112 123 120 34 5 39 9 48 47
16 63 30 85 89 143 l53 53 49 -27 c42 -24 50 -34 61 -76 6 -26 17 -52 23 -56
5 -4 41 -16 79 -25 37 -9 90 -28 117 -41 26 -14 53 -25 60 -25 6 0 64 42 129
94 91 72 128 96 160 101 40 7 44 10 73 73 41 89 95 445 76 504 -10 31 -7 69
19 245 17 119 40 236 54 273 23 65 23 65 139 146 l117 80 -27 35 c-14 19 -36
48 -49 64 l-23 29 -54 -27 c-30 -14 -57 -23 -60 -18 -6 11 -24 185 -28 271 -1
50 -5 64 -16 62 -8 -2 -65 4 -127 13 -89 13 -124 14 -164 6 -28 -6 -66 -11
-83 -11 -32 0 -34 3 -72 91 l-39 91 21 17 c15 11 23 34 30 83 l9 66 -32 26
-33 26 21 71 20 72 -32 82 c-29 76 -36 84 -72 101 -23 10 -51 34 -66 56 -22
34 -35 41 -106 63 -45 14 -86 25 -92 25 -5 0 -36 -16 -69 -35z"/>
<path fill="#000000" stroke="none" d="M1385 155 c-52 -29 -79 -50 -77 -60 5
-27 42 -100 42 -85 0 8 17 27 38 41 28 19 42 40 59 87 12 34 21 62 20 62 -1 0
-38 -21 -82 -45z"/>
</g>
</svg>
