<?xml version="1.0" standalone="no"?>
<!DOCTYPE svg PUBLIC "-//W3C//DTD SVG 20010904//EN"
 "http://www.w3.org/TR/2001/REC-SVG-20010904/DTD/svg10.dtd">
<svg version="1.0" xmlns="http://www.w3.org/2000/svg"
 width="49.000000pt" height="115.000000pt" viewBox="0 0 49.000000 115.000000"
 preserveAspectRatio="xMidYMid meet">
<metadata>
Created by potrace 1.14, written by Peter Selinger 2001-2017
</metadata>
<g transform="translate(0.000000,115.000000) scale(0.100000,-0.100000)"
fill="#000000" stroke="none">
<path fill="#000000" stroke="none" d="M118 1133 c-49 -20 -62 -62 -48 -150
10 -62 10 -62 -30 -128 -45 -74 -46 -75 -25 -75 8 0 15 -4 15 -9 0 -4 11 -25
25 -45 25 -37 25 -38 10 -91 -15 -51 -15 -57 6 -127 12 -40 32 -120 43 -178
20 -96 20 -108 7 -147 -15 -41 -14 -45 12 -98 21 -43 35 -58 64 -70 21 -9 47
-15 58 -13 19 3 20 9 16 143 -3 133 -2 143 23 203 15 34 26 78 24 96 -1 18 4
47 11 64 8 19 11 51 7 84 -3 29 -9 86 -13 126 -11 102 -6 112 61 112 30 0 67
5 83 11 l28 10 -24 19 c-14 10 -44 21 -69 24 -24 3 -65 17 -91 31 l-46 25 0
70 c0 62 -3 71 -29 99 -33 35 -60 38 -118 14z"/>
</g>
</svg>
