<?xml version="1.0" standalone="no"?>
<!DOCTYPE svg PUBLIC "-//W3C//DTD SVG 20010904//EN"
 "http://www.w3.org/TR/2001/REC-SVG-20010904/DTD/svg10.dtd">
<svg version="1.0" xmlns="http://www.w3.org/2000/svg"
 width="103.000000pt" height="131.000000pt" viewBox="0 0 103.000000 131.000000"
 preserveAspectRatio="xMidYMid meet">
<metadata>
Created by potrace 1.14, written by Peter Selinger 2001-2017
</metadata>
<g transform="translate(0.000000,131.000000) scale(0.100000,-0.100000)"
fill="#000000" stroke="none">
<path fill="#000000" stroke="none" d="M166 1285 c-81 -30 -96 -60 -89 -171 4
-61 2 -93 -11 -130 -16 -48 -16 -48 9 -72 14 -12 25 -27 25 -32 0 -6 15 -10
33 -10 23 0 41 -8 57 -25 26 -28 27 -26 -20 -50 -53 -26 -90 -65 -90 -94 0
-40 35 -123 85 -201 36 -56 43 -75 36 -89 -6 -10 -19 -58 -30 -107 -30 -136
-68 -216 -124 -261 l-47 -38 87 -3 c47 -2 92 -1 99 2 7 3 15 29 19 58 4 36 19
73 41 109 l34 54 0 -102 0 -103 103 0 c56 0 193 3 303 7 l202 6 -19 44 c-24
57 -24 67 3 85 22 15 22 18 11 82 l-11 67 44 75 c73 124 101 186 109 242 6 45
4 55 -11 68 -33 26 -127 65 -194 80 -190 42 -276 70 -323 103 -26 19 -47 36
-47 38 0 2 7 18 16 35 15 29 14 35 -11 117 -15 47 -33 98 -41 113 -20 39 -97
98 -146 112 -38 11 -50 10 -102 -9z"/>
</g>
</svg>
