<?xml version="1.0" standalone="no"?>
<!DOCTYPE svg PUBLIC "-//W3C//DTD SVG 20010904//EN"
 "http://www.w3.org/TR/2001/REC-SVG-20010904/DTD/svg10.dtd">
<svg version="1.0" xmlns="http://www.w3.org/2000/svg"
 width="10.000000pt" height="26.000000pt" viewBox="0 0 10.000000 26.000000"
 preserveAspectRatio="xMidYMid meet">
<metadata>
Created by potrace 1.14, written by Peter Selinger 2001-2017
</metadata>
<g transform="translate(0.000000,26.000000) scale(0.100000,-0.100000)"
fill="#000000" stroke="none">
<path fill="#000000" stroke="none" d="M15 244 c-13 -14 -15 -29 -9 -88 3 -39
10 -75 15 -80 5 -6 9 -25 9 -43 0 -26 4 -33 20 -33 15 0 20 7 20 28 0 15 7 37
15 50 14 19 14 27 0 74 -8 28 -15 62 -15 74 0 12 -7 25 -16 28 -21 8 -20 8
-39 -10z"/>
</g>
</svg>
