<?xml version="1.0" standalone="no"?>
<!DOCTYPE svg PUBLIC "-//W3C//DTD SVG 20010904//EN"
 "http://www.w3.org/TR/2001/REC-SVG-20010904/DTD/svg10.dtd">
<svg version="1.0" xmlns="http://www.w3.org/2000/svg"
 width="45.000000pt" height="42.000000pt" viewBox="0 0 45.000000 42.000000"
 preserveAspectRatio="xMidYMid meet">
<metadata>
Created by potrace 1.14, written by Peter Selinger 2001-2017
</metadata>
<g transform="translate(0.000000,42.000000) scale(0.100000,-0.100000)"
fill="#000000" stroke="none">
<path fill="#000000" stroke="none" d="M237 400 c-12 -10 -30 -40 -40 -66 -16
-44 -23 -51 -72 -73 -47 -20 -55 -28 -61 -57 -3 -19 -14 -44 -24 -57 -17 -22
-48 -123 -39 -131 2 -2 104 -7 227 -10 l222 -8 0 58 c0 51 -3 60 -29 83 -29
26 -50 81 -31 81 15 0 12 85 -4 125 -24 55 -108 87 -149 55z"/>
</g>
</svg>
