<?xml version="1.0" standalone="no"?>
<!DOCTYPE svg PUBLIC "-//W3C//DTD SVG 20010904//EN"
 "http://www.w3.org/TR/2001/REC-SVG-20010904/DTD/svg10.dtd">
<svg version="1.0" xmlns="http://www.w3.org/2000/svg"
 width="16.000000pt" height="18.000000pt" viewBox="0 0 16.000000 18.000000"
 preserveAspectRatio="xMidYMid meet">
<metadata>
Created by potrace 1.14, written by Peter Selinger 2001-2017
</metadata>
<g transform="translate(0.000000,18.000000) scale(0.100000,-0.100000)"
fill="#000000" stroke="none">
<path fill="#000000" stroke="none" d="M40 142 c-45 -43 -47 -56 -23 -107 13
-28 22 -35 45 -35 28 0 29 1 22 36 -7 40 0 40 42 2 20 -18 22 -18 28 -2 4 10
-3 29 -18 49 -17 22 -22 36 -15 46 5 8 9 22 9 32 0 31 -46 20 -90 -21z"/>
</g>
</svg>
