<?xml version="1.0" standalone="no"?>
<!DOCTYPE svg PUBLIC "-//W3C//DTD SVG 20010904//EN"
 "http://www.w3.org/TR/2001/REC-SVG-20010904/DTD/svg10.dtd">
<svg version="1.0" xmlns="http://www.w3.org/2000/svg"
 width="266.000000pt" height="633.000000pt" viewBox="0 0 266.000000 633.000000"
 preserveAspectRatio="xMidYMid meet">
<metadata>
Created by potrace 1.14, written by Peter Selinger 2001-2017
</metadata>
<g transform="translate(0.000000,633.000000) scale(0.100000,-0.100000)"
fill="#000000" stroke="none">
<path fill="#000000" stroke="none" d="M601 6309 c-243 -11 -407 -23 -411 -29
-3 -5 -12 -151 -18 -322 -11 -281 -19 -366 -78 -832 -35 -286 -62 -526 -60
-533 18 -47 80 -5 166 114 l60 81 97 33 c54 18 184 54 288 79 178 44 192 46
224 32 19 -7 78 -16 130 -19 84 -5 109 -12 195 -49 99 -42 100 -42 123 -94 13
-29 64 -186 114 -349 50 -163 92 -297 94 -299 4 -5 375 -99 418 -106 44 -8 44
-12 24 -166 -13 -92 -15 -99 -78 -195 l-65 -100 -100 -26 c-87 -22 -116 -25
-237 -23 l-137 3 -25 -37 c-22 -33 -24 -44 -19 -97 l6 -60 -115 -136 -115
-135 -96 -37 c-81 -31 -100 -35 -117 -24 -30 19 -50 -1 -87 -87 -21 -50 -35
-99 -38 -144 -4 -37 -12 -89 -20 -116 -8 -27 -14 -62 -14 -77 0 -14 -6 -32
-14 -38 -8 -7 -17 -27 -20 -46 l-7 -35 -74 0 -74 0 -5 -43 c-3 -23 -7 -80 -10
-126 -5 -76 -16 -110 -120 -385 l-115 -302 -135 -789 c-75 -434 -135 -789
-133 -790 2 -1 2104 11 2539 14 l118 1 -3 3134 -2 3134 -410 7 c-225 3 -483 5
-573 3 l-164 -3 147 -99 c80 -55 148 -103 150 -107 6 -9 -288 -939 -297 -939
-3 0 -85 114 -182 254 l-176 253 -25 154 c-14 85 -34 188 -43 229 l-18 75 28
105 c15 58 28 106 28 108 0 4 -94 0 -519 -19z"/>
</g>
</svg>
