<?xml version="1.0" standalone="no"?>
<!DOCTYPE svg PUBLIC "-//W3C//DTD SVG 20010904//EN"
 "http://www.w3.org/TR/2001/REC-SVG-20010904/DTD/svg10.dtd">
<svg version="1.0" xmlns="http://www.w3.org/2000/svg"
 width="16.000000pt" height="51.000000pt" viewBox="0 0 16.000000 51.000000"
 preserveAspectRatio="xMidYMid meet">
<metadata>
Created by potrace 1.14, written by Peter Selinger 2001-2017
</metadata>
<g transform="translate(0.000000,51.000000) scale(0.100000,-0.100000)"
fill="#000000" stroke="none">
<path fill="#000000" stroke="none" d="M63 503 c-18 -7 -16 -58 2 -73 13 -11
13 -15 0 -33 -23 -32 -19 -54 11 -60 19 -3 27 0 34 17 17 44 31 123 24 139 -6
16 -43 22 -71 10z"/>
<path fill="#000000" stroke="none" d="M143 373 c-7 -12 -13 -38 -13 -57 0
-20 -8 -48 -17 -64 -26 -42 -70 -92 -81 -92 -12 0 -31 -141 -21 -154 4 -5 27
-6 51 -2 l44 7 17 77 c31 138 38 185 35 246 -3 55 -4 59 -15 39z"/>
<path fill="#ffffff" stroke="none" d="M115 171 c-3 -6 -11 -11 -17 -11 -6 0
-6 6 2 15 14 17 26 13 15 -4z"/>
</g>
</svg>
