<?xml version="1.0" standalone="no"?>
<!DOCTYPE svg PUBLIC "-//W3C//DTD SVG 20010904//EN"
 "http://www.w3.org/TR/2001/REC-SVG-20010904/DTD/svg10.dtd">
<svg version="1.0" xmlns="http://www.w3.org/2000/svg"
 width="192.000000pt" height="251.000000pt" viewBox="0 0 192.000000 251.000000"
 preserveAspectRatio="xMidYMid meet">
<metadata>
Created by potrace 1.14, written by Peter Selinger 2001-2017
</metadata>
<g transform="translate(0.000000,251.000000) scale(0.100000,-0.100000)"
fill="#000000" stroke="none">
<path fill="#000000" stroke="none" d="M754 2448 c-68 -60 -70 -62 -127 -202
-37 -91 -61 -165 -66 -208 -9 -71 -17 -92 -31 -83 -12 7 -19 -22 -19 -78 1
-52 -13 -71 -61 -81 -14 -2 -68 -27 -121 -55 -88 -47 -97 -54 -117 -98 -109
-246 -122 -285 -122 -378 0 -33 -9 -92 -19 -130 -27 -107 -15 -219 38 -354 36
-90 44 -123 56 -244 l15 -140 -46 -101 c-26 -55 -66 -140 -90 -188 -38 -77
-41 -87 -26 -94 9 -4 382 -9 828 -12 l810 -4 -13 113 c-13 110 -13 115 12 221
14 60 38 134 54 166 19 38 44 128 75 267 l46 210 45 43 c43 42 45 45 45 103 0
65 -19 121 -52 156 -26 28 -38 28 -87 4 -61 -31 -121 -128 -121 -195 0 -11
-14 -54 -32 -94 l-32 -73 -59 303 c-63 328 -83 388 -132 388 -37 0 -56 11 -66
37 -10 27 -8 26 -111 48 -73 15 -77 18 -67 36 10 19 8 20 -25 13 -33 -6 -36
-4 -36 17 0 13 -3 33 -6 44 -4 16 13 34 84 89 l89 69 -18 86 c-11 47 -35 150
-56 229 -36 140 -38 144 -79 178 -39 33 -48 35 -131 40 -48 2 -104 6 -124 8
-31 3 -44 -3 -105 -56z"/>
</g>
</svg>
