<?xml version="1.0" standalone="no"?>
<!DOCTYPE svg PUBLIC "-//W3C//DTD SVG 20010904//EN"
 "http://www.w3.org/TR/2001/REC-SVG-20010904/DTD/svg10.dtd">
<svg version="1.0" xmlns="http://www.w3.org/2000/svg"
 width="123.000000pt" height="119.000000pt" viewBox="0 0 123.000000 119.000000"
 preserveAspectRatio="xMidYMid meet">
<metadata>
Created by potrace 1.14, written by Peter Selinger 2001-2017
</metadata>
<g transform="translate(0.000000,119.000000) scale(0.100000,-0.100000)"
fill="#000000" stroke="none">
<path fill="#000000" stroke="none" d="M590 1164 c-101 -19 -133 -30 -165 -54
-75 -56 -158 -110 -162 -106 -2 2 5 22 17 45 11 23 18 41 14 41 -3 0 -57 -32
-120 -71 l-114 -71 -30 -98 c-26 -84 -30 -113 -30 -211 0 -107 3 -122 41 -239
23 -69 46 -131 51 -137 23 -29 188 -138 300 -199 l121 -65 76 16 c42 9 135 41
206 71 l131 54 79 108 c44 59 112 141 152 183 l73 75 -29 192 c-16 105 -33
197 -37 204 -5 7 -41 60 -82 118 l-73 105 -117 32 c-64 18 -130 32 -147 32
-16 -1 -86 -12 -155 -25z"/>
</g>
</svg>
