<?xml version="1.0" standalone="no"?>
<!DOCTYPE svg PUBLIC "-//W3C//DTD SVG 20010904//EN"
 "http://www.w3.org/TR/2001/REC-SVG-20010904/DTD/svg10.dtd">
<svg version="1.0" xmlns="http://www.w3.org/2000/svg"
 width="40.000000pt" height="80.000000pt" viewBox="0 0 40.000000 80.000000"
 preserveAspectRatio="xMidYMid meet">
<metadata>
Created by potrace 1.14, written by Peter Selinger 2001-2017
</metadata>
<g transform="translate(0.000000,80.000000) scale(0.100000,-0.100000)"
fill="#000000" stroke="none">
<path fill="#000000" stroke="none" d="M207 792 c-2 -4 -10 -31 -17 -60 l-12
-53 -59 -16 c-49 -14 -65 -24 -89 -57 -29 -39 -30 -42 -30 -164 0 -118 1 -125
26 -158 l26 -34 -21 -35 c-17 -29 -21 -53 -21 -114 l0 -78 93 -9 92 -9 16 95
16 95 -27 40 -28 40 20 55 c11 30 24 59 28 63 4 4 23 -29 43 -74 23 -50 42
-79 50 -76 6 2 28 10 48 17 l37 13 -55 51 -55 51 -5 120 c-5 113 -4 123 21
178 14 32 26 60 26 62 0 9 -119 65 -123 57z"/>
</g>
</svg>
