<?xml version="1.0" standalone="no"?>
<!DOCTYPE svg PUBLIC "-//W3C//DTD SVG 20010904//EN"
 "http://www.w3.org/TR/2001/REC-SVG-20010904/DTD/svg10.dtd">
<svg version="1.0" xmlns="http://www.w3.org/2000/svg"
 width="105.000000pt" height="208.000000pt" viewBox="0 0 105.000000 208.000000"
 preserveAspectRatio="xMidYMid meet">
<metadata>
Created by potrace 1.14, written by Peter Selinger 2001-2017
</metadata>
<g transform="translate(0.000000,208.000000) scale(0.100000,-0.100000)"
fill="#000000" stroke="none">
<path fill="#000000" stroke="none" d="M403 2052 l-103 -26 0 -56 c0 -30 7
-79 14 -108 14 -50 13 -57 -5 -100 -11 -26 -44 -71 -73 -102 -45 -47 -57 -69
-88 -160 -31 -91 -43 -156 -88 -485 -28 -209 -54 -388 -56 -397 -5 -15 1 -18
35 -18 23 0 41 -4 41 -8 0 -5 -18 -59 -40 -121 -31 -87 -40 -126 -40 -178 0
-62 2 -68 42 -116 38 -45 43 -56 46 -114 l4 -63 345 2 345 3 65 170 c75 193
72 159 40 463 l-23 212 41 11 c22 6 48 12 57 15 9 3 33 27 53 55 l37 49 -7 98
c-5 77 -16 125 -53 232 -45 135 -45 135 -122 215 -43 44 -80 90 -84 103 -4 12
-13 22 -20 22 -8 0 -19 21 -25 48 -6 26 -26 94 -42 152 -30 99 -35 108 -92
168 -38 38 -69 62 -82 61 -11 -1 -66 -13 -122 -27z"/>
<path fill="#ffffff" stroke="none" d="M209 1245 c-4 -60 -8 -201 -8 -312 l-1
-202 34 -27 c54 -43 279 -125 361 -131 109 -8 116 -2 165 124 23 59 46 113 51
119 8 10 49 8 49 -2 0 -2 -19 -52 -41 -111 -102 -268 -150 -412 -169 -511 -26
-138 -27 -139 -52 -146 -55 -14 -367 55 -418 92 -53 39 -54 46 -41 404 7 184
9 398 5 487 -6 146 -5 164 15 232 12 41 30 80 38 86 9 7 17 12 18 10 1 -1 -1
-51 -6 -112z"/>
</g>
</svg>
