<?xml version="1.0" standalone="no"?>
<!DOCTYPE svg PUBLIC "-//W3C//DTD SVG 20010904//EN"
 "http://www.w3.org/TR/2001/REC-SVG-20010904/DTD/svg10.dtd">
<svg version="1.0" xmlns="http://www.w3.org/2000/svg"
 width="127.000000pt" height="197.000000pt" viewBox="0 0 127.000000 197.000000"
 preserveAspectRatio="xMidYMid meet">
<metadata>
Created by potrace 1.14, written by Peter Selinger 2001-2017
</metadata>
<g transform="translate(0.000000,197.000000) scale(0.100000,-0.100000)"
fill="#000000" stroke="none">
<path fill="#000000" stroke="none" d="M55 1896 l-58 -69 24 -166 24 -166 -22
-55 c-12 -30 -23 -63 -23 -73 0 -23 121 -247 160 -296 17 -21 48 -51 70 -67
37 -27 42 -38 85 -171 25 -77 45 -150 45 -161 0 -10 41 -111 91 -223 84 -190
91 -210 100 -299 9 -85 12 -97 37 -117 31 -26 48 -28 104 -11 28 8 48 23 64
48 l25 37 -61 285 c-55 261 -69 348 -55 348 3 0 24 -12 46 -27 29 -19 83 -87
191 -242 l151 -216 14 -120 c8 -66 16 -121 18 -123 1 -1 25 -5 52 -9 42 -5 56
-2 91 21 64 40 60 73 -32 244 -41 75 -101 208 -135 295 -58 152 -62 169 -121
504 -34 191 -64 352 -68 358 -3 5 -46 63 -95 127 -75 99 -96 119 -126 127 -20
6 -74 19 -121 31 -122 29 -127 33 -135 78 -5 30 -20 53 -73 104 l-67 66 -71 4
-71 4 -58 -70z"/>
</g>
</svg>
