<?xml version="1.0" standalone="no"?>
<!DOCTYPE svg PUBLIC "-//W3C//DTD SVG 20010904//EN"
 "http://www.w3.org/TR/2001/REC-SVG-20010904/DTD/svg10.dtd">
<svg version="1.0" xmlns="http://www.w3.org/2000/svg"
 width="123.000000pt" height="167.000000pt" viewBox="0 0 123.000000 167.000000"
 preserveAspectRatio="xMidYMid meet">
<metadata>
Created by potrace 1.14, written by Peter Selinger 2001-2017
</metadata>
<g transform="translate(0.000000,167.000000) scale(0.100000,-0.100000)"
fill="#000000" stroke="none">
<path fill="#000000" stroke="none" d="M820 1663 c-87 -15 -99 -22 -111 -66
-13 -50 -12 -231 2 -278 5 -19 14 -54 19 -79 l9 -45 -63 -65 c-38 -39 -70 -83
-80 -110 -25 -69 -49 -92 -101 -97 -37 -5 -48 -11 -69 -42 -22 -32 -86 -254
-141 -488 -16 -67 -21 -76 -88 -145 -40 -40 -101 -98 -137 -129 l-65 -57 23
-25 c31 -33 128 -44 236 -27 75 13 76 13 82 46 4 20 19 45 36 59 17 14 56 59
87 100 l57 74 -7 63 c-5 35 -5 106 -2 158 l6 95 119 17 c65 10 123 20 127 22
5 3 2 32 -5 63 -23 98 -18 197 15 294 45 133 66 160 151 193 85 34 132 32 223
-8 32 -14 64 -26 72 -26 25 0 17 17 -19 39 -70 44 -106 123 -106 234 0 72 -15
114 -58 159 -49 52 -143 83 -212 71z"/>
</g>
</svg>
