<?xml version="1.0" standalone="no"?>
<!DOCTYPE svg PUBLIC "-//W3C//DTD SVG 20010904//EN"
 "http://www.w3.org/TR/2001/REC-SVG-20010904/DTD/svg10.dtd">
<svg version="1.0" xmlns="http://www.w3.org/2000/svg"
 width="42.000000pt" height="48.000000pt" viewBox="0 0 42.000000 48.000000"
 preserveAspectRatio="xMidYMid meet">
<metadata>
Created by potrace 1.14, written by Peter Selinger 2001-2017
</metadata>
<g transform="translate(0.000000,48.000000) scale(0.100000,-0.100000)"
fill="#000000" stroke="none">
<path fill="#000000" stroke="none" d="M293 465 c-18 -8 -41 -31 -54 -54 -19
-35 -31 -43 -86 -62 -81 -27 -117 -57 -137 -116 -18 -53 -21 -155 -6 -184 10
-17 68 -55 75 -47 1 2 8 13 14 25 8 16 21 23 42 23 16 0 47 9 69 20 22 11 51
20 65 20 21 0 25 5 25 29 0 38 38 91 83 117 33 18 36 23 22 34 -11 9 -15 32
-15 84 0 112 -26 142 -97 111z"/>
</g>
</svg>
