<?xml version="1.0" standalone="no"?>
<!DOCTYPE svg PUBLIC "-//W3C//DTD SVG 20010904//EN"
 "http://www.w3.org/TR/2001/REC-SVG-20010904/DTD/svg10.dtd">
<svg version="1.0" xmlns="http://www.w3.org/2000/svg"
 width="25.000000pt" height="40.000000pt" viewBox="0 0 25.000000 40.000000"
 preserveAspectRatio="xMidYMid meet">
<metadata>
Created by potrace 1.14, written by Peter Selinger 2001-2017
</metadata>
<g transform="translate(0.000000,40.000000) scale(0.100000,-0.100000)"
fill="#000000" stroke="none">
<path fill="#000000" stroke="none" d="M53 378 c-24 -27 -41 -92 -44 -168 -2
-58 12 -94 53 -140 21 -22 29 -25 86 -22 57 3 62 2 62 -16 0 -11 -6 -23 -12
-25 -7 -3 2 -6 20 -6 38 -1 37 -16 14 224 l-17 170 -70 3 c-63 2 -73 0 -92
-20z"/>
</g>
</svg>
