<?xml version="1.0" standalone="no"?>
<!DOCTYPE svg PUBLIC "-//W3C//DTD SVG 20010904//EN"
 "http://www.w3.org/TR/2001/REC-SVG-20010904/DTD/svg10.dtd">
<svg version="1.0" xmlns="http://www.w3.org/2000/svg"
 width="91.000000pt" height="83.000000pt" viewBox="0 0 91.000000 83.000000"
 preserveAspectRatio="xMidYMid meet">
<metadata>
Created by potrace 1.14, written by Peter Selinger 2001-2017
</metadata>
<g transform="translate(0.000000,83.000000) scale(0.100000,-0.100000)"
fill="#000000" stroke="none">
<path fill="#000000" stroke="none" d="M90 823 c-61 -19 -90 -56 -90 -116 0
-19 9 -45 19 -58 15 -19 18 -34 14 -70 -8 -70 6 -89 70 -89 29 0 58 5 65 12 9
9 12 8 12 -5 0 -9 5 -17 12 -17 52 0 162 -102 137 -127 -14 -14 26 -61 67 -78
31 -13 47 -35 24 -35 -16 0 -40 -57 -40 -96 0 -28 8 -44 34 -70 19 -19 42 -34
52 -34 9 0 26 -7 35 -16 23 -21 66 -21 87 0 24 24 27 151 3 174 -21 20 -20 54
2 104 21 46 21 65 2 102 -8 15 -15 38 -15 50 0 12 -7 32 -16 44 -13 19 -24 22
-78 22 l-63 0 5 -29 c3 -25 0 -29 -27 -34 -49 -10 -81 7 -81 43 0 27 -3 30
-34 30 -29 0 -33 3 -29 23 2 12 -1 36 -7 52 -7 17 -14 52 -16 79 -2 27 -10 60
-17 74 -21 44 -87 78 -127 65z"/>
<path fill="#000000" stroke="none" d="M650 817 c0 -22 37 -49 67 -49 25 0 63
32 63 53 0 5 -29 9 -65 9 -48 0 -65 -4 -65 -13z"/>
<path fill="#000000" stroke="none" d="M830 775 c0 -25 61 -189 76 -204 2 -2
4 23 4 57 0 53 -2 60 -16 55 -22 -8 -44 22 -44 61 0 17 -5 38 -10 46 -7 12
-10 8 -10 -15z"/>
<path fill="#000000" stroke="none" d="M708 355 c-3 -3 -2 -25 3 -48 13 -66
11 -97 -6 -97 -9 0 -16 -10 -17 -27 0 -16 -2 -41 -3 -58 -2 -16 1 -35 6 -41 5
-6 7 -18 3 -27 -8 -21 25 -37 77 -37 35 0 47 6 74 35 40 42 69 123 60 165 -6
29 -56 80 -78 80 -7 0 -20 14 -29 30 -14 24 -24 30 -51 30 -18 0 -36 -2 -39
-5z"/>
<path fill="#000000" stroke="none" d="M12 168 c-15 -15 -16 -124 -2 -133 8
-5 7 -11 -1 -21 -10 -12 1 -14 69 -14 l80 0 -3 38 c-3 46 -11 68 -43 110 -19
24 -32 32 -56 32 -18 0 -37 -5 -44 -12z"/>
</g>
</svg>
