<?xml version="1.0" standalone="no"?>
<!DOCTYPE svg PUBLIC "-//W3C//DTD SVG 20010904//EN"
 "http://www.w3.org/TR/2001/REC-SVG-20010904/DTD/svg10.dtd">
<svg version="1.0" xmlns="http://www.w3.org/2000/svg"
 width="35.000000pt" height="53.000000pt" viewBox="0 0 35.000000 53.000000"
 preserveAspectRatio="xMidYMid meet">
<metadata>
Created by potrace 1.14, written by Peter Selinger 2001-2017
</metadata>
<g transform="translate(0.000000,53.000000) scale(0.100000,-0.100000)"
fill="#000000" stroke="none">
<path fill="#000000" stroke="none" d="M170 485 c0 -44 0 -44 -64 -80 -78 -43
-80 -46 -96 -114 -11 -48 -11 -81 2 -216 1 -5 -2 -25 -7 -44 l-7 -33 31 18
c80 47 82 51 88 157 6 92 5 97 -14 97 -11 0 -23 3 -26 6 -3 4 43 62 104 130
l110 124 -61 0 -60 0 0 -45z"/>
<path fill="#000000" stroke="none" d="M238 274 c-26 -13 -28 -19 -28 -74 l0
-60 69 0 69 0 -1 51 c-2 44 -7 55 -32 75 -35 28 -41 28 -77 8z"/>
</g>
</svg>
