<?xml version="1.0" standalone="no"?>
<!DOCTYPE svg PUBLIC "-//W3C//DTD SVG 20010904//EN"
 "http://www.w3.org/TR/2001/REC-SVG-20010904/DTD/svg10.dtd">
<svg version="1.0" xmlns="http://www.w3.org/2000/svg"
 width="10.000000pt" height="40.000000pt" viewBox="0 0 10.000000 40.000000"
 preserveAspectRatio="xMidYMid meet">
<metadata>
Created by potrace 1.14, written by Peter Selinger 2001-2017
</metadata>
<g transform="translate(0.000000,40.000000) scale(0.100000,-0.100000)"
fill="#000000" stroke="none">
<path fill="#000000" stroke="none" d="M32 368 c-31 -51 -35 -76 -22 -124 11
-40 14 -43 34 -32 33 18 46 40 46 83 -1 22 1 54 2 70 2 24 -1 31 -18 33 -16 2
-27 -6 -42 -30z"/>
<path fill="#000000" stroke="none" d="M26 124 c-3 -9 -6 -40 -6 -70 l0 -54
34 0 c38 0 55 14 30 24 -13 5 -15 15 -11 51 6 37 3 46 -13 55 -25 13 -27 13
-34 -6z"/>
</g>
</svg>
