<?xml version="1.0" standalone="no"?>
<!DOCTYPE svg PUBLIC "-//W3C//DTD SVG 20010904//EN"
 "http://www.w3.org/TR/2001/REC-SVG-20010904/DTD/svg10.dtd">
<svg version="1.0" xmlns="http://www.w3.org/2000/svg"
 width="47.000000pt" height="131.000000pt" viewBox="0 0 47.000000 131.000000"
 preserveAspectRatio="xMidYMid meet">
<metadata>
Created by potrace 1.14, written by Peter Selinger 2001-2017
</metadata>
<g transform="translate(0.000000,131.000000) scale(0.100000,-0.100000)"
fill="#000000" stroke="none">
<path fill="#000000" stroke="none" d="M197 1267 c-19 -24 -39 -60 -43 -81 -4
-23 -18 -48 -36 -64 -55 -49 -85 -118 -97 -223 -6 -53 -8 -110 -5 -126 3 -16
2 -45 -4 -64 -14 -52 -4 -95 25 -108 15 -7 23 -17 20 -25 -3 -7 -1 -18 5 -24
7 -7 7 -21 -1 -44 -8 -25 -28 -272 -31 -390 0 -5 24 -8 54 -8 l54 0 31 -55
c30 -53 33 -55 72 -55 43 0 43 0 7 52 -18 26 -18 27 18 125 19 54 58 168 85
253 43 133 50 164 46 215 -4 56 -2 64 35 117 36 54 38 61 38 135 0 86 -6 100
-85 203 -33 43 -45 69 -53 120 -13 70 -29 90 -73 90 -19 0 -36 -12 -62 -43z"/>
</g>
</svg>
