<?xml version="1.0" standalone="no"?>
<!DOCTYPE svg PUBLIC "-//W3C//DTD SVG 20010904//EN"
 "http://www.w3.org/TR/2001/REC-SVG-20010904/DTD/svg10.dtd">
<svg version="1.0" xmlns="http://www.w3.org/2000/svg"
 width="300.000000pt" height="231.000000pt" viewBox="0 0 300.000000 231.000000"
 preserveAspectRatio="xMidYMid meet">
<metadata>
Created by potrace 1.14, written by Peter Selinger 2001-2017
</metadata>
<g transform="translate(0.000000,231.000000) scale(0.100000,-0.100000)"
fill="#000000" stroke="none">
<path fill="#000000" stroke="none" d="M609 2303 l-506 -3 -6 -43 c-10 -71 24
-206 72 -286 59 -99 57 -137 -9 -238 -27 -42 -50 -83 -50 -92 0 -33 36 -100
61 -115 15 -9 47 -17 71 -17 92 -3 95 -5 158 -119 32 -58 60 -114 64 -126 5
-17 -9 -35 -76 -96 -46 -41 -96 -83 -113 -94 -16 -10 -73 -54 -126 -97 l-96
-78 -22 -102 c-24 -111 -37 -197 -29 -197 3 0 83 -20 179 -45 96 -25 343 -86
549 -136 206 -50 459 -117 561 -149 l187 -58 146 -106 c80 -58 151 -106 156
-106 22 0 660 289 922 417 247 122 278 140 288 166 6 17 10 126 10 257 l0 227
-181 138 -181 138 -307 102 c-289 97 -605 221 -678 266 -29 18 -33 26 -33 65
0 28 10 64 26 96 25 49 26 59 22 153 -4 90 -8 107 -41 171 -59 117 -53 114
-301 112 -116 -2 -439 -4 -717 -5z"/>
<path fill="#000000" stroke="none" d="M2825 232 c-93 -71 -213 -151 -265
-180 l-95 -52 268 0 267 0 0 180 c0 99 -1 180 -2 180 -2 0 -79 -58 -173 -128z"/>
</g>
</svg>
