<?xml version="1.0" standalone="no"?>
<!DOCTYPE svg PUBLIC "-//W3C//DTD SVG 20010904//EN"
 "http://www.w3.org/TR/2001/REC-SVG-20010904/DTD/svg10.dtd">
<svg version="1.0" xmlns="http://www.w3.org/2000/svg"
 width="13.000000pt" height="48.000000pt" viewBox="0 0 13.000000 48.000000"
 preserveAspectRatio="xMidYMid meet">
<metadata>
Created by potrace 1.14, written by Peter Selinger 2001-2017
</metadata>
<g transform="translate(0.000000,48.000000) scale(0.100000,-0.100000)"
fill="#000000" stroke="none">
<path fill="#000000" stroke="none" d="M20 461 c-6 -12 -7 -29 -1 -43 5 -13 6
-31 1 -39 -15 -29 -21 -125 -9 -155 7 -16 11 -56 10 -89 -1 -36 4 -75 14 -98
13 -31 20 -37 46 -37 l31 0 -7 58 c-5 47 -3 61 9 71 23 19 21 118 -4 181 -11
28 -20 62 -20 75 0 33 -31 95 -47 95 -7 0 -17 -9 -23 -19z"/>
</g>
</svg>
