<?xml version="1.0" standalone="no"?>
<!DOCTYPE svg PUBLIC "-//W3C//DTD SVG 20010904//EN"
 "http://www.w3.org/TR/2001/REC-SVG-20010904/DTD/svg10.dtd">
<svg version="1.0" xmlns="http://www.w3.org/2000/svg"
 width="33.000000pt" height="85.000000pt" viewBox="0 0 33.000000 85.000000"
 preserveAspectRatio="xMidYMid meet">
<metadata>
Created by potrace 1.14, written by Peter Selinger 2001-2017
</metadata>
<g transform="translate(0.000000,85.000000) scale(0.100000,-0.100000)"
fill="#000000" stroke="none">
<path fill="#000000" stroke="none" d="M100 786 l0 -64 -48 -28 c-26 -15 -49
-28 -51 -30 -2 -2 16 -46 39 -98 l43 -95 -21 -183 c-27 -225 -28 -274 -5 -282
9 -4 40 -2 70 4 45 10 53 15 53 33 0 13 13 77 30 143 16 67 28 139 27 160 -1
22 0 65 1 96 2 49 5 58 25 64 12 4 32 14 43 23 20 15 20 19 8 54 -7 20 -25 52
-38 70 -33 43 -56 99 -56 135 0 40 -28 62 -78 62 l-42 0 0 -64z"/>
</g>
</svg>
