<?xml version="1.0" standalone="no"?>
<!DOCTYPE svg PUBLIC "-//W3C//DTD SVG 20010904//EN"
 "http://www.w3.org/TR/2001/REC-SVG-20010904/DTD/svg10.dtd">
<svg version="1.0" xmlns="http://www.w3.org/2000/svg"
 width="94.000000pt" height="432.000000pt" viewBox="0 0 94.000000 432.000000"
 preserveAspectRatio="xMidYMid meet">
<metadata>
Created by potrace 1.14, written by Peter Selinger 2001-2017
</metadata>
<g transform="translate(0.000000,432.000000) scale(0.100000,-0.100000)"
fill="#000000" stroke="none">
<path fill="#000000" stroke="none" d="M6 4263 c3 -32 75 -969 159 -2083 153
-2006 154 -2026 182 -2103 l28 -78 40 5 c22 3 116 13 208 22 167 17 169 18
220 55 35 24 56 49 65 73 l13 36 -79 101 -78 100 17 122 c9 67 22 161 29 208
l12 87 59 12 59 13 0 91 c0 50 -7 746 -15 1546 -8 800 -15 1544 -15 1653 l0
197 -455 0 -455 0 6 -57z"/>
</g>
</svg>
