<?xml version="1.0" standalone="no"?>
<!DOCTYPE svg PUBLIC "-//W3C//DTD SVG 20010904//EN"
 "http://www.w3.org/TR/2001/REC-SVG-20010904/DTD/svg10.dtd">
<svg version="1.0" xmlns="http://www.w3.org/2000/svg"
 width="20.000000pt" height="46.000000pt" viewBox="0 0 20.000000 46.000000"
 preserveAspectRatio="xMidYMid meet">
<metadata>
Created by potrace 1.14, written by Peter Selinger 2001-2017
</metadata>
<g transform="translate(0.000000,46.000000) scale(0.100000,-0.100000)"
fill="#000000" stroke="none">
<path fill="#000000" stroke="none" d="M119 453 c-10 -3 -21 -22 -28 -48 -6
-24 -17 -48 -24 -52 -23 -14 -68 -133 -58 -151 8 -14 12 -11 25 20 9 21 16 42
16 48 0 5 5 10 10 10 6 0 10 -11 10 -24 0 -48 -31 -202 -46 -224 -13 -20 -13
-23 0 -28 34 -13 49 2 72 70 13 38 26 71 28 73 3 3 14 -14 26 -37 16 -31 20
-52 15 -77 -5 -30 -4 -34 12 -31 17 3 18 17 18 173 0 149 -2 172 -17 187 -10
10 -18 31 -18 47 0 32 -17 49 -41 44z"/>
</g>
</svg>
