<?xml version="1.0" standalone="no"?>
<!DOCTYPE svg PUBLIC "-//W3C//DTD SVG 20010904//EN"
 "http://www.w3.org/TR/2001/REC-SVG-20010904/DTD/svg10.dtd">
<svg version="1.0" xmlns="http://www.w3.org/2000/svg"
 width="266.000000pt" height="414.000000pt" viewBox="0 0 266.000000 414.000000"
 preserveAspectRatio="xMidYMid meet">
<metadata>
Created by potrace 1.14, written by Peter Selinger 2001-2017
</metadata>
<g transform="translate(0.000000,414.000000) scale(0.100000,-0.100000)"
fill="#000000" stroke="none">
<path fill="#000000" stroke="none" d="M1480 4114 c-203 -21 -206 -22 -330
-73 -108 -45 -131 -59 -172 -103 -31 -33 -57 -76 -77 -127 -27 -68 -32 -94
-41 -240 -5 -90 -7 -202 -4 -250 4 -68 -1 -125 -24 -271 l-30 -185 99 -162
c54 -89 99 -167 99 -173 0 -6 -68 -91 -150 -190 l-150 -179 -1 -138 0 -138
-62 -150 c-61 -147 -63 -150 -94 -153 -27 -3 -49 -22 -127 -107 l-95 -104 -41
46 c-22 25 -40 54 -40 64 0 10 -4 20 -9 24 -18 10 -23 92 -10 151 8 41 22 70
44 94 20 21 35 51 39 75 l7 40 -110 -109 c-62 -62 -112 -121 -116 -135 -8 -35
-48 -135 -56 -141 -4 -3 -12 -46 -19 -96 l-11 -92 149 -183 c110 -135 194
-226 319 -343 l170 -159 -64 -145 c-35 -79 -62 -147 -59 -149 2 -3 176 -75
386 -160 359 -145 383 -153 395 -136 7 10 89 123 182 250 l169 233 270 230
c148 127 270 227 272 221 2 -5 -6 -76 -18 -156 -12 -81 -19 -149 -17 -151 2
-3 28 30 57 73 30 43 143 196 252 341 109 144 198 269 198 277 0 9 -19 120
-41 248 -37 205 -83 394 -240 979 -6 23 -52 88 -129 180 -66 79 -120 148 -120
154 0 7 32 104 71 215 l70 204 -3 123 -3 122 -89 175 c-80 155 -98 183 -170
259 l-81 84 -120 29 -120 29 -205 -22z"/>
</g>
</svg>
