<?xml version="1.0" standalone="no"?>
<!DOCTYPE svg PUBLIC "-//W3C//DTD SVG 20010904//EN"
 "http://www.w3.org/TR/2001/REC-SVG-20010904/DTD/svg10.dtd">
<svg version="1.0" xmlns="http://www.w3.org/2000/svg"
 width="17.000000pt" height="38.000000pt" viewBox="0 0 17.000000 38.000000"
 preserveAspectRatio="xMidYMid meet">
<metadata>
Created by potrace 1.14, written by Peter Selinger 2001-2017
</metadata>
<g transform="translate(0.000000,38.000000) scale(0.100000,-0.100000)"
fill="#000000" stroke="none">
<path fill="#000000" stroke="none" d="M60 363 c0 -10 -4 -24 -9 -32 -8 -12
-12 -13 -25 -1 -23 18 -28 9 -14 -28 12 -32 13 -32 84 -32 67 0 72 2 67 19 -3
11 -15 21 -27 23 -16 2 -22 11 -24 36 -3 26 -7 32 -28 32 -16 0 -24 -6 -24
-17z"/>
<path fill="#000000" stroke="none" d="M54 243 c-15 -3 -23 -13 -26 -34 l-5
-29 58 0 57 0 4 35 c4 34 3 35 -32 34 -19 -1 -45 -4 -56 -6z"/>
<path fill="#000000" stroke="none" d="M20 120 c0 -43 24 -57 34 -20 3 11 9
29 12 40 4 16 1 20 -20 20 -24 0 -26 -4 -26 -40z"/>
<path fill="#000000" stroke="none" d="M104 138 c3 -13 6 -29 6 -35 0 -15 26
-17 35 -3 12 19 -7 60 -27 60 -16 0 -19 -5 -14 -22z"/>
<path fill="#000000" stroke="none" d="M10 51 c-17 -33 -12 -44 17 -36 35 8
33 7 26 33 -7 27 -29 29 -43 3z"/>
<path fill="#000000" stroke="none" d="M95 60 c-9 -15 12 -47 34 -53 29 -7 45
16 31 42 -11 22 -54 29 -65 11z"/>
</g>
</svg>
