<?xml version="1.0" standalone="no"?>
<!DOCTYPE svg PUBLIC "-//W3C//DTD SVG 20010904//EN"
 "http://www.w3.org/TR/2001/REC-SVG-20010904/DTD/svg10.dtd">
<svg version="1.0" xmlns="http://www.w3.org/2000/svg"
 width="18.000000pt" height="70.000000pt" viewBox="0 0 18.000000 70.000000"
 preserveAspectRatio="xMidYMid meet">
<metadata>
Created by potrace 1.14, written by Peter Selinger 2001-2017
</metadata>
<g transform="translate(0.000000,70.000000) scale(0.100000,-0.100000)"
fill="#000000" stroke="none">
<path fill="#000000" stroke="none" d="M52 687 c-12 -7 -29 -22 -37 -34 -13
-18 -12 -25 5 -59 25 -48 25 -66 0 -82 -18 -11 -20 -23 -20 -116 0 -68 5 -118
16 -147 8 -24 21 -73 28 -109 7 -36 17 -73 21 -82 5 -13 3 -18 -9 -18 -21 0
-21 -26 0 -34 24 -9 124 -7 124 3 0 5 -7 27 -15 50 -10 29 -13 66 -9 124 23
391 23 378 1 450 -19 64 -21 67 -51 67 -17 -1 -41 -6 -54 -13z"/>
</g>
</svg>
