<?xml version="1.0" standalone="no"?>
<!DOCTYPE svg PUBLIC "-//W3C//DTD SVG 20010904//EN"
 "http://www.w3.org/TR/2001/REC-SVG-20010904/DTD/svg10.dtd">
<svg version="1.0" xmlns="http://www.w3.org/2000/svg"
 width="44.000000pt" height="103.000000pt" viewBox="0 0 44.000000 103.000000"
 preserveAspectRatio="xMidYMid meet">
<metadata>
Created by potrace 1.14, written by Peter Selinger 2001-2017
</metadata>
<g transform="translate(0.000000,103.000000) scale(0.100000,-0.100000)"
fill="#000000" stroke="none">
<path fill="#000000" stroke="none" d="M37 1014 c-25 -13 -28 -20 -21 -42 4
-15 6 -36 6 -47 -1 -11 6 -28 16 -38 13 -14 14 -22 5 -37 -10 -14 -8 -21 8
-36 54 -49 76 -126 47 -162 -10 -11 -14 -1 -24 47 -7 34 -23 75 -35 93 -22 31
-23 31 -32 10 -8 -18 -6 -27 11 -45 12 -12 32 -64 47 -117 14 -52 32 -109 39
-125 8 -17 19 -57 26 -89 9 -43 17 -60 31 -63 11 -3 29 -24 41 -46 18 -35 19
-51 13 -121 -4 -51 -14 -93 -25 -114 -16 -26 -17 -37 -8 -57 12 -26 19 -29 55
-19 16 4 26 18 33 45 6 21 15 41 19 44 5 3 23 -12 40 -32 l31 -37 40 20 41 19
-50 67 -51 67 0 129 c0 85 -4 132 -12 140 -9 9 -8 16 5 30 23 25 21 44 -8 101
-19 39 -29 48 -44 44 -24 -6 -49 33 -32 50 17 17 13 56 -11 126 -18 50 -28 66
-49 73 -22 8 -28 17 -34 54 -9 64 -65 96 -118 68z"/>
</g>
</svg>
