<?xml version="1.0" standalone="no"?>
<!DOCTYPE svg PUBLIC "-//W3C//DTD SVG 20010904//EN"
 "http://www.w3.org/TR/2001/REC-SVG-20010904/DTD/svg10.dtd">
<svg version="1.0" xmlns="http://www.w3.org/2000/svg"
 width="25.000000pt" height="44.000000pt" viewBox="0 0 25.000000 44.000000"
 preserveAspectRatio="xMidYMid meet">
<metadata>
Created by potrace 1.14, written by Peter Selinger 2001-2017
</metadata>
<g transform="translate(0.000000,44.000000) scale(0.100000,-0.100000)"
fill="#000000" stroke="none">
<path fill="#000000" stroke="none" d="M118 418 c-21 -12 -38 -25 -38 -28 0
-3 18 -4 40 -2 40 4 41 4 29 -22 -8 -16 -20 -26 -34 -26 -12 0 -40 -19 -65
-45 -37 -38 -41 -46 -30 -60 9 -11 10 -19 3 -26 -7 -7 -7 -24 2 -53 11 -37 11
-47 -6 -82 -24 -52 -24 -74 1 -74 13 0 20 7 20 19 0 35 37 107 61 118 l24 11
-27 12 c-16 7 -28 20 -28 28 0 11 10 13 48 8 34 -4 41 -3 25 4 -13 5 -23 11
-23 13 0 15 45 102 61 118 10 10 19 29 19 41 l0 22 16 -22 c19 -28 34 -28 34
-2 0 28 -44 70 -72 70 -13 0 -40 -10 -60 -22z"/>
</g>
</svg>
