<?xml version="1.0" standalone="no"?>
<!DOCTYPE svg PUBLIC "-//W3C//DTD SVG 20010904//EN"
 "http://www.w3.org/TR/2001/REC-SVG-20010904/DTD/svg10.dtd">
<svg version="1.0" xmlns="http://www.w3.org/2000/svg"
 width="311.000000pt" height="291.000000pt" viewBox="0 0 311.000000 291.000000"
 preserveAspectRatio="xMidYMid meet">
<metadata>
Created by potrace 1.14, written by Peter Selinger 2001-2017
</metadata>
<g transform="translate(0.000000,291.000000) scale(0.100000,-0.100000)"
fill="#000000" stroke="none">
<path fill="#000000" stroke="none" d="M2040 2849 l-145 -60 -61 -117 -60
-117 34 -89 c27 -70 32 -90 21 -96 -7 -5 -117 -48 -243 -96 -127 -47 -236 -92
-243 -98 -7 -6 -95 -160 -196 -343 -126 -228 -213 -400 -278 -548 -88 -204
-99 -223 -183 -328 -339 -428 -578 -750 -631 -850 l-57 -107 165 0 165 0 131
46 130 46 109 187 109 186 194 67 194 67 225 0 c124 1 403 -2 621 -6 l396 -6
32 -221 c17 -122 37 -254 43 -293 l10 -73 183 0 184 0 10 53 c5 28 13 221 16
427 l6 375 -73 71 -73 72 -300 131 c-165 72 -293 131 -284 131 72 1 242 -35
364 -78 117 -41 160 -51 260 -61 108 -10 236 -4 252 12 9 10 42 280 35 292
-30 50 -166 235 -173 235 -5 0 -30 -13 -57 -30 -30 -18 -50 -26 -56 -20 -6 6
-17 10 -26 10 -11 0 -28 36 -58 130 l-43 130 -64 52 c-62 51 -67 59 -145 223
-44 94 -80 174 -80 178 0 5 -26 70 -59 145 -32 75 -61 156 -65 179 -6 39 -4
43 28 63 19 11 58 24 86 27 42 5 56 2 79 -15 27 -20 30 -20 45 -4 14 17 4 23
-149 100 -91 45 -168 82 -173 81 -4 0 -72 -28 -152 -60z"/>
</g>
</svg>
