<?xml version="1.0" standalone="no"?>
<!DOCTYPE svg PUBLIC "-//W3C//DTD SVG 20010904//EN"
 "http://www.w3.org/TR/2001/REC-SVG-20010904/DTD/svg10.dtd">
<svg version="1.0" xmlns="http://www.w3.org/2000/svg"
 width="197.000000pt" height="207.000000pt" viewBox="0 0 197.000000 207.000000"
 preserveAspectRatio="xMidYMid meet">
<metadata>
Created by potrace 1.14, written by Peter Selinger 2001-2017
</metadata>
<g transform="translate(0.000000,207.000000) scale(0.100000,-0.100000)"
fill="#000000" stroke="none">
<path fill="#000000" stroke="none" d="M1034 2038 c-79 -40 -93 -66 -98 -183
-4 -70 -14 -118 -45 -216 -45 -139 -52 -218 -25 -270 8 -16 12 -39 9 -49 -3
-10 -61 -69 -128 -131 -67 -62 -126 -121 -130 -133 -5 -12 -7 -63 -4 -114 4
-87 3 -93 -14 -89 -12 3 -20 -2 -24 -14 -9 -27 -18 -24 -39 15 -19 37 -44 52
-58 38 -4 -4 -14 -32 -20 -60 -13 -51 -14 -52 -43 -46 -41 9 -45 12 -45 39 0
30 -58 106 -94 124 -16 7 -48 13 -72 13 -36 -1 -53 -9 -101 -48 -80 -63 -100
-93 -95 -142 l4 -39 101 -42 c55 -22 102 -39 104 -37 2 2 -2 42 -10 89 -11 74
-11 87 1 92 7 3 16 5 18 5 2 0 4 -40 4 -89 0 -96 3 -100 68 -101 30 0 93 -33
136 -70 18 -17 78 -51 132 -76 l99 -46 142 23 142 23 110 -107 c135 -131 234
-197 364 -239 81 -27 99 -37 104 -56 4 -16 28 -34 84 -62 43 -22 82 -40 86
-40 5 1 25 16 46 34 l39 32 27 160 27 159 59 3 c33 2 63 9 67 15 11 17 10 142
-3 217 -6 36 -12 106 -14 155 -3 81 -9 105 -55 225 -43 111 -62 146 -112 208
-33 40 -66 75 -72 78 -6 2 -52 0 -103 -4 l-91 -7 20 40 c12 22 56 86 99 143
l79 103 -27 147 -26 147 -61 70 c-33 39 -62 73 -66 77 -9 12 -148 38 -255 48
-55 6 -118 12 -140 14 -31 4 -54 -2 -101 -26z"/>
</g>
</svg>
