<?xml version="1.0" standalone="no"?>
<!DOCTYPE svg PUBLIC "-//W3C//DTD SVG 20010904//EN"
 "http://www.w3.org/TR/2001/REC-SVG-20010904/DTD/svg10.dtd">
<svg version="1.0" xmlns="http://www.w3.org/2000/svg"
 width="306.000000pt" height="243.000000pt" viewBox="0 0 306.000000 243.000000"
 preserveAspectRatio="xMidYMid meet">
<metadata>
Created by potrace 1.14, written by Peter Selinger 2001-2017
</metadata>
<g transform="translate(0.000000,243.000000) scale(0.100000,-0.100000)"
fill="#000000" stroke="none">
<path fill="#000000" stroke="none" d="M1117 2243 c-16 -104 -41 -241 -57
-307 l-28 -118 -61 -62 -61 -62 0 -80 0 -81 99 -204 c54 -112 98 -205 97 -206
-1 -2 -33 -7 -72 -12 -46 -7 -101 -7 -165 0 -96 11 -97 10 -169 -20 -40 -17
-81 -31 -91 -31 -10 0 -100 27 -200 59 -171 56 -184 59 -210 45 -28 -14 -29
-13 -72 40 l-43 53 -42 -39 -42 -39 46 -53 c46 -54 46 -54 112 -58 57 -4 79
-12 150 -53 l82 -47 -33 -42 c-31 -37 -34 -49 -40 -126 l-6 -85 65 -65 c59
-60 68 -66 99 -62 21 3 35 10 35 18 0 8 6 14 14 14 7 0 27 3 44 6 28 6 29 4
25 -20 -4 -19 -1 -26 10 -26 13 0 80 -91 82 -111 0 -3 13 -20 29 -39 l28 -34
30 17 c17 10 32 16 33 15 1 -2 41 -98 90 -215 97 -233 84 -216 157 -197 16 5
57 108 61 151 2 28 -113 293 -127 293 -10 0 -46 77 -94 199 -4 10 -1 11 14 3
13 -7 103 -5 282 4 l263 14 145 82 c95 54 151 92 165 113 14 19 78 66 166 119
l145 89 153 -25 153 -24 154 58 153 58 50 -50 c28 -28 54 -50 58 -50 4 0 7 16
7 35 0 31 3 35 28 37 15 0 33 2 39 2 7 1 53 41 103 91 l89 89 -60 33 -61 32
-69 -34 -69 -35 -237 0 c-212 0 -252 3 -368 25 l-130 25 -135 -27 c-107 -21
-160 -38 -254 -80 -65 -30 -119 -53 -121 -51 -1 2 -77 88 -169 192 l-166 189
5 51 c3 28 14 175 25 326 11 151 23 302 26 336 l6 61 -67 41 c-36 23 -67 42
-68 42 -1 0 -15 -84 -30 -187z"/>
<path fill="#ffffff" stroke="none" d="M781 540 c32 -69 33 -70 20 -70 -5 0
-19 20 -31 45 -12 25 -33 54 -48 65 -14 12 -32 29 -39 40 -13 19 -13 19 27 1
34 -15 46 -29 71 -81z"/>
</g>
</svg>
