<?xml version="1.0" standalone="no"?>
<!DOCTYPE svg PUBLIC "-//W3C//DTD SVG 20010904//EN"
 "http://www.w3.org/TR/2001/REC-SVG-20010904/DTD/svg10.dtd">
<svg version="1.0" xmlns="http://www.w3.org/2000/svg"
 width="74.000000pt" height="122.000000pt" viewBox="0 0 74.000000 122.000000"
 preserveAspectRatio="xMidYMid meet">
<metadata>
Created by potrace 1.14, written by Peter Selinger 2001-2017
</metadata>
<g transform="translate(0.000000,122.000000) scale(0.100000,-0.100000)"
fill="#000000" stroke="none">
<path fill="#000000" stroke="none" d="M310 1199 c-6 -10 -10 -59 -10 -109 0
-90 -7 -117 -38 -153 -9 -10 -26 -56 -37 -103 -25 -98 -21 -110 48 -145 23
-12 45 -26 48 -32 11 -16 -2 -126 -22 -202 -13 -48 -26 -75 -41 -85 -13 -8
-59 -43 -104 -77 -45 -34 -93 -65 -108 -69 -48 -12 -52 -28 -21 -100 28 -65
68 -124 85 -124 5 0 14 26 20 58 7 31 14 66 16 77 3 12 51 50 120 95 107 69
119 81 168 155 29 44 71 97 94 117 34 31 42 45 42 73 l0 35 53 0 c41 0 61 6
87 25 19 14 29 25 22 25 -7 0 -12 9 -12 20 0 15 -7 20 -26 20 -14 0 -33 -4
-42 -9 -9 -4 -29 -11 -44 -15 -25 -6 -28 -3 -41 41 -21 69 -75 202 -98 242
-20 35 -15 50 19 51 16 0 15 45 -3 108 -19 61 -50 87 -118 94 -39 5 -49 2 -57
-13z"/>
</g>
</svg>
