<?xml version="1.0" standalone="no"?>
<!DOCTYPE svg PUBLIC "-//W3C//DTD SVG 20010904//EN"
 "http://www.w3.org/TR/2001/REC-SVG-20010904/DTD/svg10.dtd">
<svg version="1.0" xmlns="http://www.w3.org/2000/svg"
 width="55.000000pt" height="177.000000pt" viewBox="0 0 55.000000 177.000000"
 preserveAspectRatio="xMidYMid meet">
<metadata>
Created by potrace 1.14, written by Peter Selinger 2001-2017
</metadata>
<g transform="translate(0.000000,177.000000) scale(0.100000,-0.100000)"
fill="#000000" stroke="none">
<path fill="#000000" stroke="none" d="M73 1758 l-62 -10 -7 -55 -7 -55 78
-78 77 -77 -11 -55 c-7 -40 -4 -195 9 -559 11 -277 20 -538 20 -580 l0 -76
-71 -28 c-38 -15 -68 -29 -66 -31 2 -2 44 -11 93 -21 82 -15 134 -35 134 -52
0 -4 -28 -21 -61 -37 l-62 -29 39 -7 c82 -15 108 -10 170 31 32 22 68 48 80
58 l20 18 -32 386 -32 386 83 354 c45 195 81 357 78 362 -2 4 -30 7 -62 7 -32
0 -85 3 -119 6 l-61 7 -11 47 c-10 42 -17 51 -60 74 -51 28 -61 29 -157 14z"/>
</g>
</svg>
