<?xml version="1.0" standalone="no"?>
<!DOCTYPE svg PUBLIC "-//W3C//DTD SVG 20010904//EN"
 "http://www.w3.org/TR/2001/REC-SVG-20010904/DTD/svg10.dtd">
<svg version="1.0" xmlns="http://www.w3.org/2000/svg"
 width="120.000000pt" height="193.000000pt" viewBox="0 0 120.000000 193.000000"
 preserveAspectRatio="xMidYMid meet">
<metadata>
Created by potrace 1.14, written by Peter Selinger 2001-2017
</metadata>
<g transform="translate(0.000000,193.000000) scale(0.100000,-0.100000)"
fill="#000000" stroke="none">
<path fill="#000000" stroke="none" d="M476 1832 c-20 -72 -31 -136 -36 -224
-6 -110 -13 -143 -67 -323 -44 -145 -80 -241 -132 -349 -56 -119 -86 -199
-142 -390 -39 -133 -77 -257 -83 -278 l-13 -36 101 -64 c56 -36 147 -89 203
-118 l101 -53 161 28 c88 16 158 32 156 36 -3 3 -32 24 -65 45 l-60 39 0 88
c0 75 6 105 40 210 23 73 66 170 104 242 42 77 88 186 130 305 l64 185 15 188
c8 104 19 192 23 196 5 4 37 16 71 26 l62 18 46 143 c25 78 45 146 45 152 0 5
-85 12 -202 16 -112 3 -268 9 -348 12 l-145 6 -29 -100z"/>
</g>
</svg>
