<?xml version="1.0" standalone="no"?>
<!DOCTYPE svg PUBLIC "-//W3C//DTD SVG 20010904//EN"
 "http://www.w3.org/TR/2001/REC-SVG-20010904/DTD/svg10.dtd">
<svg version="1.0" xmlns="http://www.w3.org/2000/svg"
 width="97.000000pt" height="219.000000pt" viewBox="0 0 97.000000 219.000000"
 preserveAspectRatio="xMidYMid meet">
<metadata>
Created by potrace 1.14, written by Peter Selinger 2001-2017
</metadata>
<g transform="translate(0.000000,219.000000) scale(0.100000,-0.100000)"
fill="#000000" stroke="none">
<path fill="#000000" stroke="none" d="M365 2181 c-30 -8 -171 -86 -180 -101
-3 -4 13 -54 34 -111 59 -156 56 -147 40 -127 -13 16 -21 12 -99 -53 l-85 -71
-37 -111 c-21 -61 -38 -114 -38 -118 0 -3 27 -41 60 -84 33 -43 63 -88 65 -99
3 -12 16 -79 29 -150 l24 -129 -37 -126 c-21 -69 -55 -196 -76 -281 l-38 -156
73 -232 74 -232 167 0 166 0 18 46 c16 43 17 68 7 328 l-11 281 84 112 c86
114 143 219 289 531 57 122 74 168 67 180 -14 24 -100 105 -142 133 -70 46
-207 174 -218 203 -6 16 -11 71 -11 122 l0 93 -82 80 c-84 82 -90 84 -143 72z"/>
</g>
</svg>
