<?xml version="1.0" standalone="no"?>
<!DOCTYPE svg PUBLIC "-//W3C//DTD SVG 20010904//EN"
 "http://www.w3.org/TR/2001/REC-SVG-20010904/DTD/svg10.dtd">
<svg version="1.0" xmlns="http://www.w3.org/2000/svg"
 width="14.000000pt" height="48.000000pt" viewBox="0 0 14.000000 48.000000"
 preserveAspectRatio="xMidYMid meet">
<metadata>
Created by potrace 1.14, written by Peter Selinger 2001-2017
</metadata>
<g transform="translate(0.000000,48.000000) scale(0.100000,-0.100000)"
fill="#000000" stroke="none">
<path fill="#000000" stroke="none" d="M53 468 c-16 -21 -22 -57 -10 -61 8 -2
6 -12 -6 -30 -10 -16 -13 -28 -7 -32 6 -3 7 -17 4 -29 -3 -13 -1 -40 4 -59 8
-29 6 -43 -10 -77 -11 -22 -23 -69 -25 -104 -5 -53 -3 -64 12 -69 26 -11 33
-1 41 60 4 31 17 83 30 116 13 34 24 70 24 81 0 12 8 43 17 69 17 47 17 49 -2
63 -10 8 -24 28 -30 46 -11 35 -27 45 -42 26z"/>
</g>
</svg>
