<?xml version="1.0" standalone="no"?>
<!DOCTYPE svg PUBLIC "-//W3C//DTD SVG 20010904//EN"
 "http://www.w3.org/TR/2001/REC-SVG-20010904/DTD/svg10.dtd">
<svg version="1.0" xmlns="http://www.w3.org/2000/svg"
 width="54.000000pt" height="201.000000pt" viewBox="0 0 54.000000 201.000000"
 preserveAspectRatio="xMidYMid meet">
<metadata>
Created by potrace 1.14, written by Peter Selinger 2001-2017
</metadata>
<g transform="translate(0.000000,201.000000) scale(0.100000,-0.100000)"
fill="#000000" stroke="none">
<path fill="#000000" stroke="none" d="M489 1991 c-75 -47 -124 -100 -146
-158 -21 -55 -23 -75 -23 -281 0 -203 2 -226 20 -262 11 -21 29 -45 41 -54 21
-14 21 -15 -20 -41 -55 -34 -75 -41 -171 -59 -101 -20 -193 -61 -186 -84 3
-10 8 -30 12 -47 4 -16 21 -50 37 -74 44 -64 96 -204 103 -277 4 -36 1 -89 -6
-128 -11 -60 -10 -71 8 -119 15 -39 22 -86 26 -190 8 -180 11 -193 49 -208 29
-12 31 -11 78 42 27 30 74 101 105 159 31 58 72 121 90 141 l35 36 -8 771 c-8
704 -10 772 -26 789 -15 18 -15 20 0 36 23 23 13 28 -18 8z"/>
</g>
</svg>
