<?xml version="1.0" standalone="no"?>
<!DOCTYPE svg PUBLIC "-//W3C//DTD SVG 20010904//EN"
 "http://www.w3.org/TR/2001/REC-SVG-20010904/DTD/svg10.dtd">
<svg version="1.0" xmlns="http://www.w3.org/2000/svg"
 width="57.000000pt" height="91.000000pt" viewBox="0 0 57.000000 91.000000"
 preserveAspectRatio="xMidYMid meet">
<metadata>
Created by potrace 1.14, written by Peter Selinger 2001-2017
</metadata>
<g transform="translate(0.000000,91.000000) scale(0.100000,-0.100000)"
fill="#000000" stroke="none">
<path fill="#000000" stroke="none" d="M371 838 c2 -67 1 -71 -32 -104 l-34
-34 -44 29 -44 29 -53 -65 -54 -66 95 -75 96 -75 -78 -46 c-97 -58 -219 -150
-215 -163 2 -7 128 -200 147 -226 3 -4 150 -39 153 -37 9 7 -53 123 -93 175
l-46 60 26 10 c14 6 30 10 35 10 5 0 49 18 98 41 l88 40 22 68 c13 41 25 109
29 167 3 55 10 104 15 111 5 6 27 14 49 18 21 4 39 12 39 18 0 6 -10 41 -21
77 l-22 67 -79 21 -79 20 2 -70z"/>
</g>
</svg>
