<?xml version="1.0" standalone="no"?>
<!DOCTYPE svg PUBLIC "-//W3C//DTD SVG 20010904//EN"
 "http://www.w3.org/TR/2001/REC-SVG-20010904/DTD/svg10.dtd">
<svg version="1.0" xmlns="http://www.w3.org/2000/svg"
 width="192.000000pt" height="256.000000pt" viewBox="0 0 192.000000 256.000000"
 preserveAspectRatio="xMidYMid meet">
<metadata>
Created by potrace 1.14, written by Peter Selinger 2001-2017
</metadata>
<g transform="translate(0.000000,256.000000) scale(0.100000,-0.100000)"
fill="#000000" stroke="none">
<path fill="#000000" stroke="none" d="M1024 2495 l-101 -65 -6 -154 c-5 -146
-7 -156 -32 -195 l-27 -40 33 -42 c29 -37 34 -52 37 -112 l4 -68 52 -41 c62
-49 176 -180 176 -202 0 -9 6 -16 14 -16 32 0 36 -88 6 -115 -11 -10 -25 -37
-31 -59 -7 -25 -26 -55 -48 -76 -20 -19 -55 -57 -77 -84 -49 -61 -135 -131
-144 -117 -4 8 -20 7 -50 -2 -37 -11 -67 -10 -181 3 l-136 16 -119 94 c-65 51
-124 97 -130 102 -18 13 -186 40 -194 31 -4 -4 -22 -45 -40 -90 -33 -81 -33
-83 -22 -160 10 -76 12 -79 64 -129 48 -46 59 -52 113 -59 57 -7 58 -8 35 -21
-14 -7 -20 -14 -15 -14 6 -1 19 -3 30 -4 27 -4 75 -29 187 -100 104 -66 159
-113 351 -298 125 -120 135 -132 179 -225 39 -81 48 -111 53 -175 l7 -78 423
0 424 0 5 43 c24 187 39 501 45 942 9 576 21 496 -108 669 l-77 102 28 38 c15
22 49 77 74 123 l45 83 -58 92 c-48 76 -68 98 -123 134 -60 40 -72 55 -149
181 -47 76 -85 139 -85 139 -1 1 -75 5 -166 8 l-165 7 -101 -66z"/>
<path fill="#ffffff" stroke="none" d="M705 836 c82 -30 98 -33 168 -28 l77 5
0 -61 c0 -33 -4 -63 -8 -66 -9 -5 -272 133 -312 164 -33 26 -30 25 75 -14z"/>
</g>
</svg>
