<?xml version="1.0" standalone="no"?>
<!DOCTYPE svg PUBLIC "-//W3C//DTD SVG 20010904//EN"
 "http://www.w3.org/TR/2001/REC-SVG-20010904/DTD/svg10.dtd">
<svg version="1.0" xmlns="http://www.w3.org/2000/svg"
 width="18.000000pt" height="22.000000pt" viewBox="0 0 18.000000 22.000000"
 preserveAspectRatio="xMidYMid meet">
<metadata>
Created by potrace 1.14, written by Peter Selinger 2001-2017
</metadata>
<g transform="translate(0.000000,22.000000) scale(0.100000,-0.100000)"
fill="#000000" stroke="none">
<path fill="#000000" stroke="none" d="M0 211 c0 -5 14 -21 30 -35 30 -25 30
-26 15 -55 -16 -32 -22 -67 -7 -43 7 10 14 8 33 -6 13 -11 34 -22 46 -26 12
-4 25 -17 29 -28 6 -21 7 -21 20 -3 20 27 17 51 -10 77 -13 13 -29 40 -36 61
-6 20 -18 44 -27 52 -16 16 -93 21 -93 6z"/>
</g>
</svg>
