<?xml version="1.0" standalone="no"?>
<!DOCTYPE svg PUBLIC "-//W3C//DTD SVG 20010904//EN"
 "http://www.w3.org/TR/2001/REC-SVG-20010904/DTD/svg10.dtd">
<svg version="1.0" xmlns="http://www.w3.org/2000/svg"
 width="12.000000pt" height="34.000000pt" viewBox="0 0 12.000000 34.000000"
 preserveAspectRatio="xMidYMid meet">
<metadata>
Created by potrace 1.14, written by Peter Selinger 2001-2017
</metadata>
<g transform="translate(0.000000,34.000000) scale(0.100000,-0.100000)"
fill="#000000" stroke="none">
<path fill="#000000" stroke="none" d="M30 320 c-6 -11 -8 -31 -4 -44 3 -14
-1 -39 -11 -59 -15 -33 -15 -36 8 -80 20 -37 23 -53 17 -86 -4 -23 -3 -41 1
-41 5 0 12 0 16 -1 5 0 11 10 15 23 l6 23 1 -23 c1 -19 26 -42 35 -31 1 2 -1
75 -5 163 -7 163 -11 175 -51 176 -10 0 -22 -9 -28 -20z"/>
</g>
</svg>
