<?xml version="1.0" standalone="no"?>
<!DOCTYPE svg PUBLIC "-//W3C//DTD SVG 20010904//EN"
 "http://www.w3.org/TR/2001/REC-SVG-20010904/DTD/svg10.dtd">
<svg version="1.0" xmlns="http://www.w3.org/2000/svg"
 width="29.000000pt" height="33.000000pt" viewBox="0 0 29.000000 33.000000"
 preserveAspectRatio="xMidYMid meet">
<metadata>
Created by potrace 1.14, written by Peter Selinger 2001-2017
</metadata>
<g transform="translate(0.000000,33.000000) scale(0.100000,-0.100000)"
fill="#000000" stroke="none">
<path fill="#000000" stroke="none" d="M95 294 c-8 -21 -22 -42 -30 -48 -26
-20 -55 -90 -62 -148 -3 -32 -4 -58 -2 -58 236 -30 287 -35 283 -28 -3 4 -11
8 -17 8 -7 0 -35 16 -64 35 -39 26 -50 39 -46 53 4 17 8 18 34 9 36 -14 45 -5
52 53 5 38 3 48 -13 58 -16 10 -21 9 -30 -9 -9 -16 -14 -18 -25 -9 -10 8 -12
26 -8 66 l6 54 -31 0 c-27 0 -34 -6 -47 -36z"/>
</g>
</svg>
