<?xml version="1.0" standalone="no"?>
<!DOCTYPE svg PUBLIC "-//W3C//DTD SVG 20010904//EN"
 "http://www.w3.org/TR/2001/REC-SVG-20010904/DTD/svg10.dtd">
<svg version="1.0" xmlns="http://www.w3.org/2000/svg"
 width="264.000000pt" height="375.000000pt" viewBox="0 0 264.000000 375.000000"
 preserveAspectRatio="xMidYMid meet">
<metadata>
Created by potrace 1.14, written by Peter Selinger 2001-2017
</metadata>
<g transform="translate(0.000000,375.000000) scale(0.100000,-0.100000)"
fill="#000000" stroke="none">
<path fill="#000000" stroke="none" d="M110 3672 l0 -80 -35 -6 c-25 -5 -36
-13 -40 -29 -5 -20 -33 -317 -29 -317 0 0 15 5 32 11 24 8 35 22 52 64 12 30
33 61 48 71 27 17 24 18 170 -34 9 -3 12 16 12 76 l0 79 -44 41 -43 40 27 70
27 70 -66 7 c-36 3 -76 9 -88 12 -22 5 -23 3 -23 -75z"/>
<path fill="#000000" stroke="none" d="M1399 2329 c-152 -69 -158 -73 -194
-125 -37 -54 -49 -62 -59 -45 -7 11 -155 66 -161 60 -2 -3 -16 -46 -30 -96
-25 -87 -26 -93 -10 -123 25 -49 145 -232 167 -257 11 -12 18 -29 15 -37 -4
-9 -2 -18 3 -21 14 -8 -23 -66 -38 -60 -8 3 -22 -5 -32 -17 -17 -22 -18 -22
-58 -4 -22 10 -46 16 -54 13 -7 -2 -28 2 -47 9 -36 15 -217 19 -239 6 -6 -5
-21 -59 -33 -122 l-21 -114 39 -32 c45 -38 94 -46 229 -37 94 6 94 6 94 -17 0
-13 18 -139 40 -279 l40 -256 63 -58 c126 -117 92 -107 361 -114 l237 -6 111
-151 c61 -83 166 -217 232 -298 l121 -148 234 0 233 0 -6 67 c-3 38 -8 316
-11 618 -5 425 -11 596 -25 751 l-19 201 -68 99 c-65 94 -73 102 -158 151 -83
49 -124 64 -276 108 l-57 16 -38 93 c-34 81 -50 104 -129 188 l-90 95 -105 7
-105 6 -156 -71z"/>
</g>
</svg>
