<?xml version="1.0" standalone="no"?>
<!DOCTYPE svg PUBLIC "-//W3C//DTD SVG 20010904//EN"
 "http://www.w3.org/TR/2001/REC-SVG-20010904/DTD/svg10.dtd">
<svg version="1.0" xmlns="http://www.w3.org/2000/svg"
 width="117.000000pt" height="266.000000pt" viewBox="0 0 117.000000 266.000000"
 preserveAspectRatio="xMidYMid meet">
<metadata>
Created by potrace 1.14, written by Peter Selinger 2001-2017
</metadata>
<g transform="translate(0.000000,266.000000) scale(0.100000,-0.100000)"
fill="#000000" stroke="none">
<path fill="#000000" stroke="none" d="M551 2649 c-70 -8 -76 -11 -138 -65
-79 -70 -90 -86 -103 -153 -9 -46 -8 -56 6 -66 16 -11 16 -15 1 -59 -16 -46
-15 -50 7 -109 l23 -62 -96 -102 c-91 -96 -98 -108 -124 -185 -15 -48 -24 -93
-20 -106 4 -16 -1 -30 -15 -45 -27 -29 -53 -91 -43 -103 5 -5 36 -64 71 -131
l62 -121 -38 -59 c-49 -76 -89 -241 -70 -287 10 -24 8 -57 -6 -169 -10 -77
-20 -147 -22 -156 -3 -9 -12 -62 -20 -118 -9 -56 -18 -114 -22 -129 l-7 -27
44 30 c101 69 125 77 247 77 113 1 122 4 135 41 2 5 21 2 45 -9 l42 -19 0
-261 c1 -226 3 -259 15 -243 11 15 27 19 73 19 33 0 73 -3 89 -6 20 -5 34 -2
41 7 13 16 32 262 32 429 0 110 2 122 35 204 31 77 46 99 133 191 53 58 121
131 149 163 l53 58 21 144 21 143 -38 297 -38 297 -153 116 c-84 64 -153 122
-153 128 0 7 9 42 19 80 l20 67 -34 101 c-39 114 -107 210 -148 208 -12 -1
-55 -5 -96 -10z"/>
<path fill="#ffffff" stroke="none" d="M383 1754 l39 -7 -7 -91 c-4 -50 -12
-97 -18 -104 -8 -10 -25 -12 -66 -7 -72 9 -83 14 -76 35 3 10 1 36 -4 59 -7
33 -5 48 10 78 22 43 37 55 64 49 11 -3 37 -8 58 -12z"/>
<path fill="#ffffff" stroke="none" d="M300 1433 c0 -5 -7 -29 -15 -55 l-14
-47 30 -22 c42 -30 20 -41 -40 -22 -57 19 -74 33 -39 33 22 0 27 6 33 36 8 44
25 84 37 84 4 0 8 -3 8 -7z"/>
</g>
</svg>
