<?xml version="1.0" standalone="no"?>
<!DOCTYPE svg PUBLIC "-//W3C//DTD SVG 20010904//EN"
 "http://www.w3.org/TR/2001/REC-SVG-20010904/DTD/svg10.dtd">
<svg version="1.0" xmlns="http://www.w3.org/2000/svg"
 width="48.000000pt" height="172.000000pt" viewBox="0 0 48.000000 172.000000"
 preserveAspectRatio="xMidYMid meet">
<metadata>
Created by potrace 1.14, written by Peter Selinger 2001-2017
</metadata>
<g transform="translate(0.000000,172.000000) scale(0.100000,-0.100000)"
fill="#000000" stroke="none">
<path fill="#000000" stroke="none" d="M138 1673 c-11 -27 -24 -67 -28 -91 -6
-40 -5 -44 22 -64 l30 -20 -31 -32 c-20 -21 -50 -37 -81 -45 l-49 -13 21 -51
c60 -148 67 -222 47 -462 -7 -85 -8 -163 -2 -224 7 -71 6 -116 -5 -179 -14
-83 -14 -87 18 -249 l33 -165 41 -19 c22 -10 42 -17 43 -15 2 2 10 59 19 128
15 124 15 126 -10 236 l-25 111 21 63 c11 35 24 67 28 71 4 5 19 -2 33 -15 26
-22 27 -27 33 -181 7 -162 1 -222 -33 -317 -9 -25 -18 -66 -21 -92 l-4 -47 32
9 c17 5 60 6 94 3 61 -5 63 -5 84 25 l22 30 -47 7 -48 6 3 182 c1 109 8 212
17 257 36 181 37 203 15 302 -27 118 -37 310 -21 361 11 33 16 37 46 37 40 0
47 19 35 97 -11 67 -15 81 -46 160 -13 34 -24 76 -24 95 0 47 -12 60 -44 52
-60 -15 -62 -91 -3 -176 20 -31 13 -36 -17 -13 -11 8 -28 15 -39 15 -16 0 -18
7 -16 68 1 37 -1 85 -5 107 -6 35 -14 44 -57 68 -27 15 -51 27 -54 27 -3 0
-15 -21 -27 -47z"/>
</g>
</svg>
