<?xml version="1.0" standalone="no"?>
<!DOCTYPE svg PUBLIC "-//W3C//DTD SVG 20010904//EN"
 "http://www.w3.org/TR/2001/REC-SVG-20010904/DTD/svg10.dtd">
<svg version="1.0" xmlns="http://www.w3.org/2000/svg"
 width="64.000000pt" height="108.000000pt" viewBox="0 0 64.000000 108.000000"
 preserveAspectRatio="xMidYMid meet">
<metadata>
Created by potrace 1.14, written by Peter Selinger 2001-2017
</metadata>
<g transform="translate(0.000000,108.000000) scale(0.100000,-0.100000)"
fill="#000000" stroke="none">
<path fill="#000000" stroke="none" d="M307 1073 c-29 -5 -77 -63 -77 -94 0
-36 31 -101 60 -125 l30 -26 0 -109 c0 -133 -14 -171 -70 -188 -20 -6 -46 -11
-57 -11 -11 0 -34 -18 -51 -39 -23 -29 -42 -41 -69 -46 -24 -4 -45 -16 -56
-31 -16 -21 -17 -31 -8 -75 6 -27 11 -113 11 -189 0 -77 4 -140 9 -140 24 0
79 32 107 62 24 24 37 55 54 119 l22 87 67 -5 c36 -2 86 -8 111 -13 30 -6 63
-4 100 4 48 11 59 18 88 58 29 41 34 59 47 159 16 130 20 114 -101 400 -62
145 -69 157 -109 182 -41 26 -52 28 -108 20z"/>
</g>
</svg>
