<?xml version="1.0" standalone="no"?>
<!DOCTYPE svg PUBLIC "-//W3C//DTD SVG 20010904//EN"
 "http://www.w3.org/TR/2001/REC-SVG-20010904/DTD/svg10.dtd">
<svg version="1.0" xmlns="http://www.w3.org/2000/svg"
 width="52.000000pt" height="71.000000pt" viewBox="0 0 52.000000 71.000000"
 preserveAspectRatio="xMidYMid meet">
<metadata>
Created by potrace 1.14, written by Peter Selinger 2001-2017
</metadata>
<g transform="translate(0.000000,71.000000) scale(0.100000,-0.100000)"
fill="#000000" stroke="none">
<path fill="#000000" stroke="none" d="M16 693 c-15 -54 -17 -181 -2 -228 9
-28 16 -86 16 -134 0 -79 2 -87 27 -114 26 -27 28 -33 25 -111 -2 -78 -1 -83
22 -96 27 -14 113 -10 159 8 24 10 27 17 27 56 l0 45 45 -19 c43 -19 45 -19
112 1 37 10 69 19 70 19 2 0 3 11 3 24 0 16 -12 32 -42 52 -58 38 -68 52 -68
92 0 24 10 45 33 73 43 49 64 126 72 252 l5 97 -249 0 c-229 0 -250 -1 -255
-17z"/>
</g>
</svg>
