<?xml version="1.0" standalone="no"?>
<!DOCTYPE svg PUBLIC "-//W3C//DTD SVG 20010904//EN"
 "http://www.w3.org/TR/2001/REC-SVG-20010904/DTD/svg10.dtd">
<svg version="1.0" xmlns="http://www.w3.org/2000/svg"
 width="135.000000pt" height="41.000000pt" viewBox="0 0 135.000000 41.000000"
 preserveAspectRatio="xMidYMid meet">
<metadata>
Created by potrace 1.14, written by Peter Selinger 2001-2017
</metadata>
<g transform="translate(0.000000,41.000000) scale(0.100000,-0.100000)"
fill="#000000" stroke="none">
<path fill="#000000" stroke="none" d="M623 387 c-19 -25 -20 -25 -32 -5 -11
17 -20 20 -62 16 -28 -3 -58 -13 -69 -23 -20 -18 -21 -18 -36 3 -17 25 -72 30
-92 10 -9 -9 -15 -9 -24 0 -17 17 -68 15 -90 -5 -14 -13 -21 -14 -30 -5 -23
23 -134 6 -170 -26 -36 -31 -11 -102 36 -102 9 0 19 -8 23 -17 20 -57 89 -73
119 -28 24 37 52 33 46 -5 -3 -20 2 -37 12 -49 15 -16 15 -19 -4 -36 -11 -10
-20 -30 -20 -45 0 -62 89 -83 120 -27 14 25 13 30 -2 57 -14 24 -14 31 -3 40
8 7 17 22 21 33 4 12 15 33 25 46 11 13 19 33 19 45 0 11 6 29 13 38 12 15 14
15 25 -2 7 -12 8 -21 2 -25 -17 -10 -11 -61 8 -78 10 -10 35 -17 55 -17 31 0
41 5 56 30 16 27 20 29 31 15 14 -17 75 -21 85 -5 3 6 16 10 27 10 20 0 21 -4
15 -78 -2 -44 -11 -88 -18 -99 -16 -27 -5 -53 24 -53 48 0 56 17 63 134 6 95
5 111 -9 121 -15 11 -15 14 3 30 19 18 20 17 20 -3 0 -11 3 -28 6 -37 8 -20
85 -55 119 -55 18 0 24 -6 27 -27 3 -24 8 -28 33 -28 27 0 30 3 30 33 l0 33
57 -6 c31 -4 63 -3 70 1 22 14 82 3 96 -17 15 -22 55 -25 69 -6 6 6 13 30 16
52 3 22 9 49 12 60 13 43 -59 95 -91 66 -5 -5 -32 -11 -61 -14 -46 -5 -53 -4
-67 18 -15 22 -20 23 -141 24 -111 0 -128 -2 -145 -19 -18 -18 -19 -18 -25 0
-10 30 -26 37 -101 45 -68 6 -72 6 -91 -18z"/>
</g>
</svg>
