<?xml version="1.0" standalone="no"?>
<!DOCTYPE svg PUBLIC "-//W3C//DTD SVG 20010904//EN"
 "http://www.w3.org/TR/2001/REC-SVG-20010904/DTD/svg10.dtd">
<svg version="1.0" xmlns="http://www.w3.org/2000/svg"
 width="84.000000pt" height="172.000000pt" viewBox="0 0 84.000000 172.000000"
 preserveAspectRatio="xMidYMid meet">
<metadata>
Created by potrace 1.14, written by Peter Selinger 2001-2017
</metadata>
<g transform="translate(0.000000,172.000000) scale(0.100000,-0.100000)"
fill="#000000" stroke="none">
<path fill="#000000" stroke="none" d="M448 1713 c-17 -3 -38 -18 -53 -37 -30
-40 -34 -116 -8 -171 29 -60 13 -82 -102 -142 -113 -59 -111 -56 -62 -142 25
-44 31 -69 35 -130 4 -66 1 -84 -22 -135 -14 -32 -29 -75 -32 -95 -12 -81 76
-380 188 -640 l53 -125 84 -49 c45 -27 84 -47 86 -45 1 1 -19 120 -46 263 -27
143 -52 305 -55 361 -7 97 -6 102 21 147 l27 47 37 -29 c20 -16 52 -31 71 -33
32 -3 34 -1 42 32 4 19 5 50 2 69 l-5 34 48 -42 48 -41 18 42 18 41 -29 36
c-15 20 -39 65 -51 101 -25 68 -93 207 -134 274 l-24 39 22 51 c17 39 23 77
27 161 6 125 -1 150 -44 159 -32 6 -115 6 -160 -1z"/>
<path fill="#ffffff" stroke="none" d="M643 897 c-94 -12 -97 -10 -60 51 l32
53 43 -48 43 -48 -58 -8z"/>
<path fill="#000000" stroke="none" d="M40 756 c0 -2 -9 -48 -20 -101 l-20
-97 147 -269 c81 -147 148 -267 149 -266 1 1 -3 40 -8 87 -7 70 -20 113 -72
240 -36 85 -81 212 -102 283 -30 103 -41 127 -56 127 -10 0 -18 -2 -18 -4z"/>
</g>
</svg>
