<?xml version="1.0" standalone="no"?>
<!DOCTYPE svg PUBLIC "-//W3C//DTD SVG 20010904//EN"
 "http://www.w3.org/TR/2001/REC-SVG-20010904/DTD/svg10.dtd">
<svg version="1.0" xmlns="http://www.w3.org/2000/svg"
 width="88.000000pt" height="48.000000pt" viewBox="0 0 88.000000 48.000000"
 preserveAspectRatio="xMidYMid meet">
<metadata>
Created by potrace 1.14, written by Peter Selinger 2001-2017
</metadata>
<g transform="translate(0.000000,48.000000) scale(0.100000,-0.100000)"
fill="#000000" stroke="none">
<path fill="#000000" stroke="none" d="M755 417 c-66 -34 -161 -87 -212 -117
-103 -62 -94 -43 -109 -222 l-6 -78 226 0 226 0 0 240 c0 132 -1 240 -2 240
-2 -1 -57 -29 -123 -63z"/>
<path fill="#000000" stroke="none" d="M21 26 l-24 -26 159 1 159 0 -45 22
c-32 15 -71 22 -135 25 -86 4 -91 3 -114 -22z"/>
</g>
</svg>
