<?xml version="1.0" standalone="no"?>
<!DOCTYPE svg PUBLIC "-//W3C//DTD SVG 20010904//EN"
 "http://www.w3.org/TR/2001/REC-SVG-20010904/DTD/svg10.dtd">
<svg version="1.0" xmlns="http://www.w3.org/2000/svg"
 width="266.000000pt" height="389.000000pt" viewBox="0 0 266.000000 389.000000"
 preserveAspectRatio="xMidYMid meet">
<metadata>
Created by potrace 1.14, written by Peter Selinger 2001-2017
</metadata>
<g transform="translate(0.000000,389.000000) scale(0.100000,-0.100000)"
fill="#000000" stroke="none">
<path fill="#000000" stroke="none" d="M1370 3877 c-80 -5 -178 -16 -219 -25
l-75 -17 -147 -190 c-106 -137 -148 -198 -148 -218 -1 -19 -8 -31 -26 -39 -15
-6 -49 -49 -80 -98 -51 -81 -57 -98 -97 -266 -24 -98 -42 -192 -40 -207 3 -20
34 -60 108 -136 64 -67 104 -116 104 -129 0 -11 5 -24 10 -27 6 -4 9 -21 8
-38 -2 -18 1 -70 5 -117 8 -85 8 -85 -32 -182 -23 -53 -41 -107 -41 -120 0
-12 -25 -99 -54 -191 l-54 -168 -109 -116 c-59 -63 -145 -156 -190 -207 -72
-80 -87 -92 -125 -99 -50 -8 -124 -9 -152 0 -18 5 -19 -2 -13 -218 4 -123 10
-414 13 -646 l7 -423 458 0 458 0 10 37 c6 21 11 44 11 51 0 7 50 65 111 128
97 102 110 119 107 147 -3 29 4 36 105 108 59 43 108 81 107 86 0 4 -80 95
-178 202 -174 189 -178 195 -205 275 -31 92 -30 144 4 252 19 60 20 61 182
190 l162 131 280 106 280 106 340 51 c449 67 405 57 405 90 0 16 -9 69 -21
119 -16 71 -25 91 -38 91 -17 0 -71 95 -71 126 0 8 -22 39 -49 67 -39 42 -50
61 -56 99 -8 52 -6 51 -117 64 -55 6 -61 4 -127 -35 -76 -45 -81 -55 -81 -160
0 -67 -6 -78 -45 -83 -24 -3 -53 12 -150 77 -66 45 -161 107 -212 138 l-91 58
41 107 c29 77 64 142 125 232 l84 125 42 185 c51 219 51 215 -56 327 -78 80
-188 221 -188 241 0 31 -86 134 -120 143 -8 3 -80 1 -160 -4z"/>
</g>
</svg>
