<?xml version="1.0" standalone="no"?>
<!DOCTYPE svg PUBLIC "-//W3C//DTD SVG 20010904//EN"
 "http://www.w3.org/TR/2001/REC-SVG-20010904/DTD/svg10.dtd">
<svg version="1.0" xmlns="http://www.w3.org/2000/svg"
 width="29.000000pt" height="54.000000pt" viewBox="0 0 29.000000 54.000000"
 preserveAspectRatio="xMidYMid meet">
<metadata>
Created by potrace 1.14, written by Peter Selinger 2001-2017
</metadata>
<g transform="translate(0.000000,54.000000) scale(0.100000,-0.100000)"
fill="#000000" stroke="none">
<path fill="#000000" stroke="none" d="M75 514 c-15 -23 -16 -33 -6 -64 17
-57 14 -78 -11 -86 -54 -16 -58 -28 -58 -166 l0 -128 25 0 c21 0 25 -5 25 -29
0 -26 3 -29 46 -35 26 -3 64 -6 85 -6 38 0 38 0 44 48 4 26 15 65 25 87 27 59
37 124 28 172 -8 36 -14 43 -43 53 l-34 11 15 34 c8 19 14 54 14 79 0 50 -10
56 -91 56 -39 0 -49 -4 -64 -26z"/>
</g>
</svg>
