<?xml version="1.0" standalone="no"?>
<!DOCTYPE svg PUBLIC "-//W3C//DTD SVG 20010904//EN"
 "http://www.w3.org/TR/2001/REC-SVG-20010904/DTD/svg10.dtd">
<svg version="1.0" xmlns="http://www.w3.org/2000/svg"
 width="76.000000pt" height="147.000000pt" viewBox="0 0 76.000000 147.000000"
 preserveAspectRatio="xMidYMid meet">
<metadata>
Created by potrace 1.14, written by Peter Selinger 2001-2017
</metadata>
<g transform="translate(0.000000,147.000000) scale(0.100000,-0.100000)"
fill="#000000" stroke="none">
<path fill="#000000" stroke="none" d="M436 1411 c-43 -59 -46 -68 -46 -125
l-1 -61 -92 -64 -92 -63 -88 -222 c-73 -183 -88 -230 -87 -275 0 -38 -5 -57
-16 -65 -13 -10 -7 -14 34 -27 l49 -16 19 48 c10 27 21 49 24 49 3 0 16 -29
29 -65 17 -50 28 -66 46 -71 19 -5 23 -11 20 -32 -8 -49 -27 -413 -22 -418 2
-3 49 6 103 20 55 14 123 28 151 32 29 3 51 10 48 14 -2 4 -32 13 -65 20 -33
7 -66 18 -73 24 -12 9 -47 119 -47 145 0 17 129 90 188 106 51 15 64 24 100
70 23 29 42 64 42 77 0 13 23 91 51 173 l50 150 -6 104 c-4 57 -9 109 -12 117
-3 8 -47 44 -99 81 -52 36 -94 68 -94 70 0 2 11 31 26 64 29 69 30 65 -49 154
l-44 49 -47 -63z"/>
</g>
</svg>
