<?xml version="1.0" standalone="no"?>
<!DOCTYPE svg PUBLIC "-//W3C//DTD SVG 20010904//EN"
 "http://www.w3.org/TR/2001/REC-SVG-20010904/DTD/svg10.dtd">
<svg version="1.0" xmlns="http://www.w3.org/2000/svg"
 width="50.000000pt" height="42.000000pt" viewBox="0 0 50.000000 42.000000"
 preserveAspectRatio="xMidYMid meet">
<metadata>
Created by potrace 1.14, written by Peter Selinger 2001-2017
</metadata>
<g transform="translate(0.000000,42.000000) scale(0.100000,-0.100000)"
fill="#000000" stroke="none">
<path fill="#000000" stroke="none" d="M305 410 c-16 -4 -50 -11 -75 -14 -39
-6 -48 -12 -66 -44 -20 -34 -20 -41 -8 -92 7 -30 13 -55 14 -56 0 0 -38 -33
-85 -74 -47 -41 -85 -80 -85 -87 0 -7 1 -13 3 -13 31 -6 333 -27 337 -23 3 2
5 29 5 58 l0 53 37 6 c30 5 43 14 63 46 14 22 25 51 25 65 0 14 7 36 15 49 12
18 13 29 4 55 -9 25 -23 37 -66 57 -59 26 -71 27 -118 14z"/>
</g>
</svg>
