<?xml version="1.0" standalone="no"?>
<!DOCTYPE svg PUBLIC "-//W3C//DTD SVG 20010904//EN"
 "http://www.w3.org/TR/2001/REC-SVG-20010904/DTD/svg10.dtd">
<svg version="1.0" xmlns="http://www.w3.org/2000/svg"
 width="68.000000pt" height="148.000000pt" viewBox="0 0 68.000000 148.000000"
 preserveAspectRatio="xMidYMid meet">
<metadata>
Created by potrace 1.14, written by Peter Selinger 2001-2017
</metadata>
<g transform="translate(0.000000,148.000000) scale(0.100000,-0.100000)"
fill="#000000" stroke="none">
<path fill="#000000" stroke="none" d="M193 1458 c-35 -11 -64 -26 -68 -36 -3
-9 -8 -46 -11 -82 -11 -141 -12 -147 -65 -207 l-49 -56 0 -76 c0 -68 3 -78 27
-103 l27 -28 -13 -97 c-21 -157 -24 -212 -11 -244 13 -30 25 -35 49 -20 11 7
11 15 3 40 -16 45 9 55 117 48 69 -5 98 -12 147 -36 84 -43 94 -66 100 -240 2
-75 12 -178 21 -229 16 -86 18 -91 30 -68 7 14 29 42 48 63 l34 38 -22 13
c-21 13 -22 19 -22 170 0 144 -2 166 -30 262 -24 85 -39 117 -77 168 -67 88
-71 98 -63 151 3 25 9 63 12 83 l5 36 83 -49 c94 -55 129 -60 181 -28 19 11
34 22 34 24 0 2 -19 13 -43 23 -29 13 -64 44 -111 100 -40 47 -83 88 -105 97
-20 10 -56 27 -80 38 l-43 22 7 78 c7 84 -5 141 -33 155 -11 6 -41 1 -79 -10z"/>
</g>
</svg>
