<?xml version="1.0" standalone="no"?>
<!DOCTYPE svg PUBLIC "-//W3C//DTD SVG 20010904//EN"
 "http://www.w3.org/TR/2001/REC-SVG-20010904/DTD/svg10.dtd">
<svg version="1.0" xmlns="http://www.w3.org/2000/svg"
 width="19.000000pt" height="81.000000pt" viewBox="0 0 19.000000 81.000000"
 preserveAspectRatio="xMidYMid meet">
<metadata>
Created by potrace 1.14, written by Peter Selinger 2001-2017
</metadata>
<g transform="translate(0.000000,81.000000) scale(0.100000,-0.100000)"
fill="#000000" stroke="none">
<path fill="#000000" stroke="none" d="M122 795 c-32 -23 -67 -89 -96 -181
l-25 -81 21 -69 c17 -58 19 -85 14 -174 -3 -58 -10 -130 -16 -160 -5 -30 -12
-72 -16 -92 l-6 -38 58 0 c33 1 73 7 89 15 l30 13 -34 1 -34 1 6 63 c3 34 22
113 41 175 30 95 36 128 36 203 0 80 -3 96 -30 149 l-30 60 25 38 c21 32 24
44 16 65 -12 31 -18 33 -49 12z"/>
</g>
</svg>
