<?xml version="1.0" standalone="no"?>
<!DOCTYPE svg PUBLIC "-//W3C//DTD SVG 20010904//EN"
 "http://www.w3.org/TR/2001/REC-SVG-20010904/DTD/svg10.dtd">
<svg version="1.0" xmlns="http://www.w3.org/2000/svg"
 width="491.000000pt" height="445.000000pt" viewBox="0 0 491.000000 445.000000"
 preserveAspectRatio="xMidYMid meet">
<metadata>
Created by potrace 1.14, written by Peter Selinger 2001-2017
</metadata>
<g transform="translate(0.000000,445.000000) scale(0.100000,-0.100000)"
fill="#000000" stroke="none">
<path fill="#000000" stroke="none" d="M2879 4441 c-3 -7 -458 -14 -1439 -22
-789 -6 -1436 -12 -1438 -14 -1 -1 -1 -992 0 -2203 l3 -2201 235 185 c162 128
291 241 415 362 l180 177 127 43 c69 23 143 42 164 42 23 0 66 13 102 30 54
25 76 30 141 30 43 0 112 3 154 6 l76 7 47 58 47 59 88 0 c106 0 165 20 291
98 76 46 91 52 122 47 46 -9 136 20 136 43 0 9 -9 89 -19 178 -15 117 -26 176
-44 216 l-25 56 48 223 c27 123 80 343 118 489 59 226 67 266 55 275 -47 32
-47 30 1 56 29 15 46 31 46 42 0 10 26 65 57 121 l57 103 116 76 115 76 220
51 c121 28 234 57 250 65 42 19 111 25 404 30 l253 5 260 -111 c154 -67 306
-140 376 -181 64 -39 124 -74 134 -79 13 -7 22 2 49 49 24 42 43 101 70 222
20 91 35 167 33 169 -2 2 -190 -8 -416 -22 -346 -23 -415 -25 -423 -14 -5 8
-85 106 -178 218 l-167 204 -223 103 -223 103 -102 129 c-56 71 -102 134 -102
140 0 9 -155 236 -180 263 -4 5 -9 4 -11 -2z"/>
</g>
</svg>
