<?xml version="1.0" standalone="no"?>
<!DOCTYPE svg PUBLIC "-//W3C//DTD SVG 20010904//EN"
 "http://www.w3.org/TR/2001/REC-SVG-20010904/DTD/svg10.dtd">
<svg version="1.0" xmlns="http://www.w3.org/2000/svg"
 width="108.000000pt" height="197.000000pt" viewBox="0 0 108.000000 197.000000"
 preserveAspectRatio="xMidYMid meet">
<metadata>
Created by potrace 1.14, written by Peter Selinger 2001-2017
</metadata>
<g transform="translate(0.000000,197.000000) scale(0.100000,-0.100000)"
fill="#000000" stroke="none">
<path fill="#000000" stroke="none" d="M469 1937 c-20 -18 -42 -43 -48 -55
-11 -21 -10 -26 9 -39 20 -14 21 -21 15 -82 -6 -63 -5 -68 24 -108 23 -32 38
-42 69 -48 22 -3 48 -12 58 -20 18 -13 18 -14 0 -34 -10 -11 -52 -39 -92 -61
-71 -39 -75 -40 -172 -40 -97 0 -147 13 -202 51 -22 16 -124 -12 -128 -34 -5
-23 43 -43 253 -107 94 -29 188 -62 210 -75 22 -12 58 -25 80 -29 61 -11 75
-16 75 -30 0 -8 -36 -19 -97 -31 l-98 -18 -85 -83 c-75 -73 -94 -100 -162
-226 -78 -145 -153 -331 -143 -356 3 -7 -2 -27 -11 -44 l-16 -31 47 6 c26 4
63 7 81 7 l34 0 107 213 106 214 76 -18 c42 -10 95 -18 119 -19 48 0 48 2 30
-103 -10 -64 -18 -80 -84 -171 -40 -55 -72 -101 -71 -101 1 0 52 2 113 5 l110
5 88 80 c67 60 110 112 176 210 49 72 100 146 114 165 l25 35 -13 191 -14 190
-72 145 c-65 131 -77 150 -142 210 l-72 66 10 67 10 68 -68 34 c-59 30 -77 34
-140 34 -68 -1 -76 -3 -109 -33z"/>
<path fill="#000000" stroke="none" d="M366 219 c-84 -7 -90 -9 -116 -41 -16
-18 -38 -53 -50 -78 -15 -33 -34 -53 -68 -72 l-47 -27 115 -1 115 0 115 115
115 115 -45 -1 c-25 -1 -85 -5 -134 -10z"/>
</g>
</svg>
