<?xml version="1.0" standalone="no"?>
<!DOCTYPE svg PUBLIC "-//W3C//DTD SVG 20010904//EN"
 "http://www.w3.org/TR/2001/REC-SVG-20010904/DTD/svg10.dtd">
<svg version="1.0" xmlns="http://www.w3.org/2000/svg"
 width="293.000000pt" height="290.000000pt" viewBox="0 0 293.000000 290.000000"
 preserveAspectRatio="xMidYMid meet">
<metadata>
Created by potrace 1.14, written by Peter Selinger 2001-2017
</metadata>
<g transform="translate(0.000000,290.000000) scale(0.100000,-0.100000)"
fill="#000000" stroke="none">
<path fill="#000000" stroke="none" d="M2573 2704 c-170 -177 -207 -210 -391
-346 -203 -150 -645 -431 -874 -554 -116 -63 -362 -208 -468 -276 -55 -36
-608 -579 -752 -738 l-76 -85 -4 -347 -3 -347 25 -3 c14 -2 52 1 85 5 33 4 81
5 107 2 31 -5 66 -1 102 9 47 14 56 20 56 39 0 13 -32 173 -70 357 l-70 333
32 28 33 27 76 -381 c41 -210 79 -381 85 -381 5 1 39 9 76 19 57 15 67 21 73
44 4 14 77 169 162 343 l156 317 56 24 c31 14 151 64 266 110 116 47 230 97
255 110 25 14 126 51 225 82 101 32 403 147 688 263 l507 206 0 668 0 668 -84
0 -84 0 -189 -196z"/>
<path fill="#000000" stroke="none" d="M1242 660 c-106 -22 -200 -43 -208 -48
-8 -4 -76 -65 -153 -135 -160 -146 -151 -126 -151 -340 l0 -137 872 2 871 3
113 265 114 265 -158 52 c-100 33 -218 63 -324 82 -155 28 -174 29 -260 19
-83 -9 -327 -6 -473 7 -34 3 -113 -9 -243 -35z"/>
</g>
</svg>
