<?xml version="1.0" standalone="no"?>
<!DOCTYPE svg PUBLIC "-//W3C//DTD SVG 20010904//EN"
 "http://www.w3.org/TR/2001/REC-SVG-20010904/DTD/svg10.dtd">
<svg version="1.0" xmlns="http://www.w3.org/2000/svg"
 width="87.000000pt" height="254.000000pt" viewBox="0 0 87.000000 254.000000"
 preserveAspectRatio="xMidYMid meet">
<metadata>
Created by potrace 1.14, written by Peter Selinger 2001-2017
</metadata>
<g transform="translate(0.000000,254.000000) scale(0.100000,-0.100000)"
fill="#000000" stroke="none">
<path fill="#000000" stroke="none" d="M436 2524 c-72 -12 -83 -16 -120 -53
-36 -36 -41 -48 -46 -99 -5 -54 -4 -60 36 -119 l43 -62 -35 -113 c-37 -118
-56 -246 -89 -603 -12 -127 -32 -245 -65 -400 -41 -184 -51 -250 -61 -404 -6
-101 -9 -228 -7 -282 l5 -99 -43 0 c-24 0 -45 -3 -47 -8 -4 -6 78 -227 89
-241 2 -2 28 15 57 38 l54 41 17 184 c10 102 25 211 35 243 17 58 17 58 96
100 44 23 82 42 85 43 3 0 22 -48 42 -108 33 -95 39 -128 53 -292 8 -102 13
-199 9 -215 -4 -24 0 -35 19 -53 l24 -23 49 23 c27 12 51 23 52 25 2 1 -1 134
-8 296 l-12 294 56 192 56 192 7 253 6 254 -49 7 c-112 14 -178 35 -212 68
-50 46 -112 126 -112 143 0 19 34 18 51 -2 11 -14 15 -1 30 85 10 56 19 145
21 198 l3 97 -53 26 c-65 33 -68 36 -52 55 20 24 53 18 133 -25 l75 -40 32 30
c32 30 61 36 108 24 12 -4 22 -14 22 -24 0 -24 47 -80 67 -80 10 0 13 6 9 16
-3 9 -9 27 -12 40 -5 19 -26 35 -84 64 l-77 39 -21 108 c-12 59 -22 118 -22
130 0 15 -7 24 -22 28 -77 18 -120 20 -192 9z"/>
</g>
</svg>
