<?xml version="1.0" standalone="no"?>
<!DOCTYPE svg PUBLIC "-//W3C//DTD SVG 20010904//EN"
 "http://www.w3.org/TR/2001/REC-SVG-20010904/DTD/svg10.dtd">
<svg version="1.0" xmlns="http://www.w3.org/2000/svg"
 width="88.000000pt" height="137.000000pt" viewBox="0 0 88.000000 137.000000"
 preserveAspectRatio="xMidYMid meet">
<metadata>
Created by potrace 1.14, written by Peter Selinger 2001-2017
</metadata>
<g transform="translate(0.000000,137.000000) scale(0.100000,-0.100000)"
fill="#000000" stroke="none">
<path fill="#000000" stroke="none" d="M236 1362 c-28 -5 -47 -17 -67 -42
l-28 -35 14 -110 c8 -60 20 -131 27 -158 l12 -47 -41 -43 c-36 -38 -45 -59
-91 -207 -38 -127 -51 -185 -55 -252 -4 -70 -2 -88 9 -88 7 0 19 6 26 13 19
21 45 9 57 -24 6 -16 20 -98 32 -182 13 -91 27 -158 35 -167 12 -12 49 -15
207 -15 l192 0 107 38 c58 20 119 37 135 37 19 0 38 9 53 25 23 24 23 26 8 59
-11 22 -22 100 -32 232 -9 110 -25 275 -35 367 l-18 169 -49 49 c-31 32 -85
69 -145 100 l-95 50 -16 67 c-24 101 -43 141 -75 153 -36 14 -117 19 -167 11z"/>
</g>
</svg>
