<?xml version="1.0" standalone="no"?>
<!DOCTYPE svg PUBLIC "-//W3C//DTD SVG 20010904//EN"
 "http://www.w3.org/TR/2001/REC-SVG-20010904/DTD/svg10.dtd">
<svg version="1.0" xmlns="http://www.w3.org/2000/svg"
 width="169.000000pt" height="198.000000pt" viewBox="0 0 169.000000 198.000000"
 preserveAspectRatio="xMidYMid meet">
<metadata>
Created by potrace 1.14, written by Peter Selinger 2001-2017
</metadata>
<g transform="translate(0.000000,198.000000) scale(0.100000,-0.100000)"
fill="#000000" stroke="none">
<path fill="#000000" stroke="none" d="M551 1885 c-102 -52 -189 -99 -193
-103 -10 -10 57 -426 73 -454 5 -10 9 -28 9 -40 0 -14 11 -31 30 -43 22 -15
30 -28 30 -50 0 -25 -8 -35 -51 -60 -54 -32 -100 -75 -80 -75 8 0 7 -9 -5 -31
-23 -45 -278 -473 -325 -545 l-39 -61 26 -126 27 -127 88 0 c102 0 146 14 229
71 29 21 55 37 57 35 2 -2 -1 -16 -7 -32 -9 -23 -6 -49 16 -136 l26 -108 487
0 c267 0 480 4 474 8 -20 13 51 74 142 123 44 23 83 47 86 52 3 4 14 54 23
110 15 86 17 145 13 367 -2 146 -10 297 -17 335 l-12 70 -253 200 -253 200
-63 129 -64 129 -120 105 c-66 58 -131 116 -145 128 l-25 23 -184 -94z"/>
</g>
</svg>
