<?xml version="1.0" standalone="no"?>
<!DOCTYPE svg PUBLIC "-//W3C//DTD SVG 20010904//EN"
 "http://www.w3.org/TR/2001/REC-SVG-20010904/DTD/svg10.dtd">
<svg version="1.0" xmlns="http://www.w3.org/2000/svg"
 width="53.000000pt" height="154.000000pt" viewBox="0 0 53.000000 154.000000"
 preserveAspectRatio="xMidYMid meet">
<metadata>
Created by potrace 1.14, written by Peter Selinger 2001-2017
</metadata>
<g transform="translate(0.000000,154.000000) scale(0.100000,-0.100000)"
fill="#000000" stroke="none">
<path fill="#000000" stroke="none" d="M180 1485 l-54 -55 20 -63 21 -64 -42
-44 c-31 -33 -46 -60 -59 -111 l-18 -66 35 -47 36 -47 -25 -49 c-27 -54 -46
-211 -59 -498 -4 -78 -13 -204 -20 -280 -9 -96 -10 -138 -2 -143 6 -3 37 -10
70 -13 52 -6 61 -5 83 16 33 31 30 47 -9 54 l-33 7 11 93 c10 89 13 98 61 167
l51 73 -24 70 -23 70 45 -45 44 -45 16 -136 c9 -75 21 -169 28 -210 l13 -74
53 -5 c48 -5 58 -3 85 19 41 34 46 41 46 74 0 26 -2 27 -50 27 l-50 0 0 190
c0 185 -1 194 -35 322 -19 72 -33 133 -32 134 1 2 21 -9 44 -24 38 -24 41 -30
48 -85 l6 -60 29 28 29 28 -21 51 c-48 122 -67 205 -82 364 -12 132 -19 168
-35 188 -20 25 -20 27 -2 72 l17 47 -28 46 c-22 36 -37 48 -69 58 -23 7 -46
14 -53 17 -6 2 -36 -20 -66 -51z"/>
</g>
</svg>
