<?xml version="1.0" standalone="no"?>
<!DOCTYPE svg PUBLIC "-//W3C//DTD SVG 20010904//EN"
 "http://www.w3.org/TR/2001/REC-SVG-20010904/DTD/svg10.dtd">
<svg version="1.0" xmlns="http://www.w3.org/2000/svg"
 width="82.000000pt" height="155.000000pt" viewBox="0 0 82.000000 155.000000"
 preserveAspectRatio="xMidYMid meet">
<metadata>
Created by potrace 1.14, written by Peter Selinger 2001-2017
</metadata>
<g transform="translate(0.000000,155.000000) scale(0.100000,-0.100000)"
fill="#000000" stroke="none">
<path fill="#000000" stroke="none" d="M323 1511 c-85 -50 -97 -73 -89 -175 5
-74 4 -82 -14 -94 -17 -10 -19 -19 -13 -57 5 -42 3 -48 -27 -78 -71 -69 -87
-101 -95 -190 -8 -88 -44 -177 -73 -177 -12 0 -14 -15 -8 -97 12 -159 8 -155
83 -76 40 42 77 94 97 137 29 61 34 67 41 47 8 -27 -72 -157 -151 -241 -74
-79 -78 -97 -69 -321 7 -187 8 -190 29 -183 11 4 22 7 23 8 1 0 7 57 13 126
12 119 14 127 44 158 17 19 51 45 76 58 85 45 97 63 56 82 -28 13 -36 46 -36
154 0 74 2 82 33 120 l32 40 65 -5 c66 -6 148 -31 163 -51 4 -6 6 -37 3 -70
-6 -55 -5 -58 14 -53 18 4 20 0 20 -35 0 -24 -8 -51 -21 -69 -11 -16 -21 -41
-22 -55 -2 -22 4 -29 28 -37 17 -5 49 -25 72 -43 l41 -34 40 48 c49 59 85 129
84 163 0 15 -14 54 -31 88 -17 33 -31 76 -31 95 0 38 31 116 72 181 13 22 30
55 36 74 11 32 10 37 -16 65 -15 17 -44 52 -64 77 -28 35 -54 53 -112 79 -72
31 -76 34 -76 65 0 18 6 51 14 73 14 40 14 45 -15 114 -40 98 -55 114 -109
120 -38 4 -55 -1 -107 -31z"/>
</g>
</svg>
