<?xml version="1.0" standalone="no"?>
<!DOCTYPE svg PUBLIC "-//W3C//DTD SVG 20010904//EN"
 "http://www.w3.org/TR/2001/REC-SVG-20010904/DTD/svg10.dtd">
<svg version="1.0" xmlns="http://www.w3.org/2000/svg"
 width="47.000000pt" height="56.000000pt" viewBox="0 0 47.000000 56.000000"
 preserveAspectRatio="xMidYMid meet">
<metadata>
Created by potrace 1.14, written by Peter Selinger 2001-2017
</metadata>
<g transform="translate(0.000000,56.000000) scale(0.100000,-0.100000)"
fill="#000000" stroke="none">
<path fill="#000000" stroke="none" d="M139 545 c-15 -8 -30 -27 -33 -42 -4
-15 -22 -50 -40 -78 -17 -27 -40 -72 -50 -98 -15 -41 -16 -55 -6 -95 13 -54
22 -62 72 -62 30 0 40 -5 54 -29 16 -28 87 -62 229 -111 90 -31 104 -33 98
-10 -6 23 -116 106 -183 140 -47 24 -150 98 -150 109 1 20 23 33 71 40 73 12
189 84 189 118 0 29 -12 29 -78 -2 -42 -19 -58 -23 -73 -14 -15 7 -17 14 -10
23 14 16 3 54 -27 94 -28 36 -28 36 -63 17z"/>
</g>
</svg>
