<?xml version="1.0" standalone="no"?>
<!DOCTYPE svg PUBLIC "-//W3C//DTD SVG 20010904//EN"
 "http://www.w3.org/TR/2001/REC-SVG-20010904/DTD/svg10.dtd">
<svg version="1.0" xmlns="http://www.w3.org/2000/svg"
 width="37.000000pt" height="68.000000pt" viewBox="0 0 37.000000 68.000000"
 preserveAspectRatio="xMidYMid meet">
<metadata>
Created by potrace 1.14, written by Peter Selinger 2001-2017
</metadata>
<g transform="translate(0.000000,68.000000) scale(0.100000,-0.100000)"
fill="#000000" stroke="none">
<path fill="#000000" stroke="none" d="M67 673 l-67 -4 6 -27 c3 -15 14 -61
24 -102 15 -60 18 -99 13 -195 l-5 -120 39 -110 40 -110 107 -3 c101 -3 108
-1 126 20 11 13 19 26 20 30 0 4 -22 19 -49 33 -27 13 -52 33 -55 42 -3 10
-28 131 -56 268 -56 277 -58 286 -68 283 -4 -1 -37 -3 -75 -5z"/>
</g>
</svg>
