<?xml version="1.0" standalone="no"?>
<!DOCTYPE svg PUBLIC "-//W3C//DTD SVG 20010904//EN"
 "http://www.w3.org/TR/2001/REC-SVG-20010904/DTD/svg10.dtd">
<svg version="1.0" xmlns="http://www.w3.org/2000/svg"
 width="297.000000pt" height="345.000000pt" viewBox="0 0 297.000000 345.000000"
 preserveAspectRatio="xMidYMid meet">
<metadata>
Created by potrace 1.14, written by Peter Selinger 2001-2017
</metadata>
<g transform="translate(0.000000,345.000000) scale(0.100000,-0.100000)"
fill="#000000" stroke="none">
<path fill="#000000" stroke="none" d="M2813 3383 c-63 -105 -88 -160 -117
-263 -18 -61 -48 -132 -86 -200 -53 -94 -65 -109 -117 -141 -58 -36 -58 -37
-91 -134 -23 -69 -47 -117 -85 -168 -29 -40 -59 -82 -67 -94 -90 -132 -674
-886 -745 -961 -7 -7 -54 -24 -104 -37 -51 -13 -94 -25 -96 -27 -2 -1 -15 -43
-29 -92 -14 -50 -29 -93 -33 -97 -5 -4 -59 -37 -121 -73 -96 -56 -120 -66
-160 -66 -44 0 -49 3 -77 45 -18 27 -62 68 -110 101 -148 104 -199 157 -480
495 -154 185 -281 336 -282 335 -1 -1 4 -23 12 -48 12 -40 11 -178 -6 -989
-11 -518 -17 -945 -13 -948 3 -3 271 -10 595 -14 l589 -9 185 90 c102 50 204
104 228 121 27 19 66 34 107 42 136 25 195 78 280 249 23 47 76 136 117 197
l75 113 217 159 c125 92 241 169 272 181 29 12 70 34 91 50 37 26 38 28 16 33
-13 4 -42 26 -66 50 l-43 44 10 59 c19 101 171 1117 171 1138 0 11 -12 32 -26
47 l-26 27 20 38 c11 22 27 75 37 119 9 44 28 108 40 142 14 35 35 142 51 248
27 179 27 188 10 218 -13 26 -83 87 -98 87 -2 0 -22 -30 -45 -67z"/>
</g>
</svg>
