<?xml version="1.0" standalone="no"?>
<!DOCTYPE svg PUBLIC "-//W3C//DTD SVG 20010904//EN"
 "http://www.w3.org/TR/2001/REC-SVG-20010904/DTD/svg10.dtd">
<svg version="1.0" xmlns="http://www.w3.org/2000/svg"
 width="20.000000pt" height="21.000000pt" viewBox="0 0 20.000000 21.000000"
 preserveAspectRatio="xMidYMid meet">
<metadata>
Created by potrace 1.14, written by Peter Selinger 2001-2017
</metadata>
<g transform="translate(0.000000,21.000000) scale(0.100000,-0.100000)"
fill="#000000" stroke="none">
<path fill="#000000" stroke="none" d="M50 192 c-19 -11 -39 -26 -44 -35 -23
-36 36 -74 70 -46 21 17 24 9 11 -38 -8 -32 -8 -45 2 -57 18 -22 60 -20 67 2
4 9 15 36 25 59 10 24 19 46 19 50 0 16 -78 83 -96 83 -11 0 -35 -8 -54 -18z"/>
</g>
</svg>
