<?xml version="1.0" standalone="no"?>
<!DOCTYPE svg PUBLIC "-//W3C//DTD SVG 20010904//EN"
 "http://www.w3.org/TR/2001/REC-SVG-20010904/DTD/svg10.dtd">
<svg version="1.0" xmlns="http://www.w3.org/2000/svg"
 width="46.000000pt" height="39.000000pt" viewBox="0 0 46.000000 39.000000"
 preserveAspectRatio="xMidYMid meet">
<metadata>
Created by potrace 1.14, written by Peter Selinger 2001-2017
</metadata>
<g transform="translate(0.000000,39.000000) scale(0.100000,-0.100000)"
fill="#000000" stroke="none">
<path fill="#000000" stroke="none" d="M190 369 c-19 -11 -40 -27 -47 -36 -10
-13 -14 -12 -32 6 -13 13 -34 21 -55 21 -41 0 -47 -13 -47 -102 0 -35 -2 -102
-5 -149 -4 -71 -3 -88 11 -99 13 -11 21 -11 51 3 28 14 68 17 216 17 l181 0
-5 64 c-7 86 -64 207 -121 258 -50 44 -93 49 -147 17z"/>
</g>
</svg>
