<?xml version="1.0" standalone="no"?>
<!DOCTYPE svg PUBLIC "-//W3C//DTD SVG 20010904//EN"
 "http://www.w3.org/TR/2001/REC-SVG-20010904/DTD/svg10.dtd">
<svg version="1.0" xmlns="http://www.w3.org/2000/svg"
 width="207.000000pt" height="299.000000pt" viewBox="0 0 207.000000 299.000000"
 preserveAspectRatio="xMidYMid meet">
<metadata>
Created by potrace 1.14, written by Peter Selinger 2001-2017
</metadata>
<g transform="translate(0.000000,299.000000) scale(0.100000,-0.100000)"
fill="#000000" stroke="none">
<path fill="#000000" stroke="none" d="M1450 2970 c-71 -17 -78 -22 -140 -87
-36 -38 -88 -107 -115 -153 -28 -47 -93 -140 -145 -207 -107 -137 -105 -136
-277 -152 -84 -8 -193 -50 -193 -74 0 -7 -18 -24 -40 -40 -21 -15 -76 -69
-121 -120 -64 -73 -88 -110 -114 -173 -18 -43 -85 -203 -149 -354 -106 -251
-118 -286 -138 -400 l-22 -125 27 -150 c14 -83 29 -214 32 -294 7 -142 20
-203 58 -277 10 -20 60 -59 150 -117 l134 -87 87 0 86 0 -27 -48 c-24 -44 -34
-52 -102 -80 l-76 -31 230 -1 c127 0 368 3 538 7 l307 6 0 23 c0 26 -40 40
-70 24 -15 -8 -10 5 21 57 36 59 40 70 28 88 -80 127 -140 234 -155 274 -16
45 -21 50 -61 62 -34 9 -63 9 -133 0 -78 -11 -103 -20 -185 -65 -87 -48 -99
-52 -139 -46 -32 5 -60 20 -103 56 -57 48 -58 50 -44 75 10 18 39 36 100 60
47 19 136 64 197 102 103 62 116 67 168 67 45 0 56 3 56 16 0 12 6 15 23 11
35 -8 160 -21 177 -18 27 5 29 16 15 66 -7 28 -16 71 -20 98 -6 42 -8 46 -25
37 -21 -11 -70 -13 -94 -4 -13 5 -3 21 44 74 53 60 62 76 76 139 23 102 11
123 -44 76 -19 -16 -33 -22 -37 -15 -13 20 -6 95 23 256 l29 161 89 104 c127
148 211 224 275 253 47 21 58 22 79 11 15 -8 33 -10 52 -4 23 6 36 3 65 -17
20 -13 44 -24 55 -24 11 0 34 -11 51 -24 29 -21 117 -41 117 -26 0 3 -11 69
-24 145 -14 77 -27 201 -31 275 -7 131 -8 139 -61 278 -50 134 -58 149 -125
225 -39 45 -81 88 -92 94 -32 19 -198 14 -287 -7z"/>
</g>
</svg>
