<?xml version="1.0" standalone="no"?>
<!DOCTYPE svg PUBLIC "-//W3C//DTD SVG 20010904//EN"
 "http://www.w3.org/TR/2001/REC-SVG-20010904/DTD/svg10.dtd">
<svg version="1.0" xmlns="http://www.w3.org/2000/svg"
 width="94.000000pt" height="91.000000pt" viewBox="0 0 94.000000 91.000000"
 preserveAspectRatio="xMidYMid meet">
<metadata>
Created by potrace 1.14, written by Peter Selinger 2001-2017
</metadata>
<g transform="translate(0.000000,91.000000) scale(0.100000,-0.100000)"
fill="#000000" stroke="none">
<path fill="#000000" stroke="none" d="M678 885 c-43 -13 -93 -36 -113 -50
-33 -26 -35 -30 -35 -90 0 -34 -5 -76 -11 -94 -14 -41 6 -161 27 -161 8 0 14
-10 14 -23 0 -20 -10 -25 -92 -47 -88 -24 -98 -29 -199 -111 -58 -48 -129 -99
-158 -113 -28 -15 -66 -35 -83 -46 l-31 -19 36 -21 c20 -12 34 -26 31 -31 -3
-5 8 -25 23 -44 28 -34 29 -35 103 -35 110 0 139 25 105 90 l-16 30 82 0 81 0
44 45 43 45 96 0 95 0 -24 48 c-17 32 -27 72 -32 125 -7 74 -6 77 15 77 11 0
21 5 21 10 0 6 40 10 100 10 99 0 101 0 110 26 6 15 14 22 22 18 8 -5 10 20 5
102 -13 197 -10 189 -88 234 -37 22 -74 42 -81 44 -7 2 -48 -6 -90 -19z"/>
</g>
</svg>
