<?xml version="1.0" standalone="no"?>
<!DOCTYPE svg PUBLIC "-//W3C//DTD SVG 20010904//EN"
 "http://www.w3.org/TR/2001/REC-SVG-20010904/DTD/svg10.dtd">
<svg version="1.0" xmlns="http://www.w3.org/2000/svg"
 width="21.000000pt" height="71.000000pt" viewBox="0 0 21.000000 71.000000"
 preserveAspectRatio="xMidYMid meet">
<metadata>
Created by potrace 1.14, written by Peter Selinger 2001-2017
</metadata>
<g transform="translate(0.000000,71.000000) scale(0.100000,-0.100000)"
fill="#000000" stroke="none">
<path fill="#000000" stroke="none" d="M74 702 c-31 -20 -44 -88 -22 -110 8
-8 5 -16 -13 -31 -13 -11 -27 -20 -31 -21 -25 -1 9 -265 36 -282 6 -4 25 -8
43 -8 57 0 63 -7 63 -69 0 -31 8 -85 18 -121 l19 -65 6 73 c4 41 4 180 1 310
-4 156 -3 250 4 275 9 32 8 38 -8 47 -22 12 -100 13 -116 2z"/>
</g>
</svg>
