<?xml version="1.0" standalone="no"?>
<!DOCTYPE svg PUBLIC "-//W3C//DTD SVG 20010904//EN"
 "http://www.w3.org/TR/2001/REC-SVG-20010904/DTD/svg10.dtd">
<svg version="1.0" xmlns="http://www.w3.org/2000/svg"
 width="34.000000pt" height="54.000000pt" viewBox="0 0 34.000000 54.000000"
 preserveAspectRatio="xMidYMid meet">
<metadata>
Created by potrace 1.14, written by Peter Selinger 2001-2017
</metadata>
<g transform="translate(0.000000,54.000000) scale(0.100000,-0.100000)"
fill="#000000" stroke="none">
<path fill="#000000" stroke="none" d="M80 511 c-35 -35 -31 -60 17 -110 31
-32 45 -86 27 -104 -4 -3 -30 14 -58 38 -28 25 -54 45 -58 45 -5 0 -8 -12 -8
-27 0 -18 13 -39 44 -67 62 -58 68 -74 55 -136 -14 -65 -7 -82 30 -78 32 3 59
-15 72 -49 18 -49 36 -26 54 69 24 136 45 210 68 235 19 21 19 24 4 47 -9 14
-29 31 -44 38 -15 7 -33 24 -39 37 -7 13 -27 39 -44 57 -41 44 -80 45 -120 5z"/>
</g>
</svg>
