<?xml version="1.0" standalone="no"?>
<!DOCTYPE svg PUBLIC "-//W3C//DTD SVG 20010904//EN"
 "http://www.w3.org/TR/2001/REC-SVG-20010904/DTD/svg10.dtd">
<svg version="1.0" xmlns="http://www.w3.org/2000/svg"
 width="99.000000pt" height="251.000000pt" viewBox="0 0 99.000000 251.000000"
 preserveAspectRatio="xMidYMid meet">
<metadata>
Created by potrace 1.14, written by Peter Selinger 2001-2017
</metadata>
<g transform="translate(0.000000,251.000000) scale(0.100000,-0.100000)"
fill="#000000" stroke="none">
<path fill="#000000" stroke="none" d="M141 2481 c-50 -26 -56 -32 -78 -92
-21 -57 -22 -69 -11 -109 7 -25 13 -74 14 -110 1 -36 5 -117 9 -181 8 -127 4
-156 -47 -317 l-30 -94 23 -62 c19 -55 24 -62 44 -58 16 3 26 15 34 42 8 29
18 39 39 44 15 4 35 9 45 12 13 4 22 -5 38 -40 l20 -45 -25 -40 c-14 -22 -28
-51 -32 -65 -3 -14 -9 -26 -13 -27 -3 0 -25 -1 -48 -3 -24 -1 -46 -5 -49 -9
-14 -14 16 -390 37 -459 19 -64 22 -68 59 -79 32 -10 40 -17 40 -36 0 -13 16
-48 36 -78 34 -50 40 -55 74 -55 l38 0 13 82 c12 78 13 81 21 48 12 -48 10
-410 -3 -494 -6 -38 -27 -104 -49 -152 l-39 -83 42 -5 c132 -16 131 -16 154
23 19 34 21 48 16 157 -5 106 -2 130 20 219 15 55 33 119 41 142 12 35 13 59
4 144 -8 77 -8 126 2 205 14 112 10 107 85 119 73 11 74 12 64 48 -6 18 -25
88 -43 157 -31 117 -32 127 -18 157 14 30 13 39 -17 145 -18 62 -42 128 -53
146 -11 18 -29 61 -39 95 -25 82 -16 90 91 81 l75 -6 66 53 c37 30 88 84 114
121 26 37 56 75 66 84 18 16 17 18 -21 67 -22 27 -40 56 -40 63 0 19 -26 18
-34 -2 -3 -9 -6 -33 -6 -54 0 -34 -7 -44 -84 -114 -46 -42 -87 -76 -90 -76 -4
0 -52 40 -107 88 l-100 89 -52 -5 c-42 -3 -57 0 -78 17 -38 29 -41 54 -13 92
33 46 31 90 -8 155 -27 43 -41 56 -77 69 -57 19 -56 19 -120 -14z"/>
</g>
</svg>
