<?xml version="1.0" standalone="no"?>
<!DOCTYPE svg PUBLIC "-//W3C//DTD SVG 20010904//EN"
 "http://www.w3.org/TR/2001/REC-SVG-20010904/DTD/svg10.dtd">
<svg version="1.0" xmlns="http://www.w3.org/2000/svg"
 width="83.000000pt" height="158.000000pt" viewBox="0 0 83.000000 158.000000"
 preserveAspectRatio="xMidYMid meet">
<metadata>
Created by potrace 1.14, written by Peter Selinger 2001-2017
</metadata>
<g transform="translate(0.000000,158.000000) scale(0.100000,-0.100000)"
fill="#000000" stroke="none">
<path fill="#000000" stroke="none" d="M336 1548 c-24 -59 -25 -72 -7 -118 17
-45 17 -45 -9 -86 -15 -25 -46 -55 -77 -74 l-53 -31 0 -62 c0 -60 -1 -63 -40
-97 -40 -35 -154 -226 -144 -242 3 -4 52 -8 110 -8 l104 0 27 55 27 55 13 -42
c8 -27 9 -46 2 -54 -7 -8 27 -13 133 -18 160 -8 228 -21 228 -43 0 -9 5 -11
13 -7 6 4 3 -3 -8 -15 -11 -13 -33 -30 -50 -38 -42 -21 -85 -64 -85 -84 0 -9
6 -32 13 -50 8 -19 15 -68 16 -109 1 -41 7 -79 12 -85 5 -5 9 -16 9 -25 0 -8
18 -26 39 -39 l39 -25 -34 -41 c-36 -45 -41 -73 -28 -167 l6 -44 78 -26 78
-26 14 57 c14 54 14 57 -9 88 -20 25 -29 63 -49 198 -14 92 -23 178 -20 190 3
13 21 33 39 44 18 11 51 46 72 76 l39 57 -13 61 c-7 34 -13 76 -13 92 -1 17
-7 73 -14 126 l-12 96 -74 101 c-62 86 -80 104 -120 121 l-48 20 0 86 c0 71
-4 93 -22 125 l-23 40 -73 0 c-73 0 -73 0 -86 -32z"/>
<path fill="#000000" stroke="none" d="M12 730 c9 -30 97 -57 105 -32 3 8 -7
12 -33 12 -21 0 -46 7 -57 18 -16 13 -19 14 -15 2z"/>
<path fill="#000000" stroke="none" d="M145 653 c-11 -21 -44 -61 -74 -89
l-54 -52 11 -83 c7 -46 13 -118 13 -159 l2 -75 7 55 c5 30 8 87 9 126 l1 71
81 54 c45 30 86 57 90 60 5 3 0 33 -12 67 -25 73 -45 80 -74 25z"/>
<path fill="#000000" stroke="none" d="M57 85 c5 -63 15 -96 27 -84 2 2 -4 38
-14 79 l-19 75 6 -70z"/>
</g>
</svg>
