<?xml version="1.0" standalone="no"?>
<!DOCTYPE svg PUBLIC "-//W3C//DTD SVG 20010904//EN"
 "http://www.w3.org/TR/2001/REC-SVG-20010904/DTD/svg10.dtd">
<svg version="1.0" xmlns="http://www.w3.org/2000/svg"
 width="22.000000pt" height="86.000000pt" viewBox="0 0 22.000000 86.000000"
 preserveAspectRatio="xMidYMid meet">
<metadata>
Created by potrace 1.14, written by Peter Selinger 2001-2017
</metadata>
<g transform="translate(0.000000,86.000000) scale(0.100000,-0.100000)"
fill="#000000" stroke="none">
<path fill="#000000" stroke="none" d="M146 806 c-62 -48 -74 -63 -109 -138
-38 -81 -38 -85 -32 -163 3 -44 19 -122 35 -174 25 -80 29 -104 24 -165 -6
-71 -6 -71 32 -119 l37 -48 27 26 c24 23 26 30 20 70 -4 25 -10 48 -13 51 -4
4 3 20 15 37 21 29 22 46 30 341 5 171 7 317 6 323 -2 8 -32 -10 -72 -41z"/>
</g>
</svg>
