<?xml version="1.0" standalone="no"?>
<!DOCTYPE svg PUBLIC "-//W3C//DTD SVG 20010904//EN"
 "http://www.w3.org/TR/2001/REC-SVG-20010904/DTD/svg10.dtd">
<svg version="1.0" xmlns="http://www.w3.org/2000/svg"
 width="12.000000pt" height="17.000000pt" viewBox="0 0 12.000000 17.000000"
 preserveAspectRatio="xMidYMid meet">
<metadata>
Created by potrace 1.14, written by Peter Selinger 2001-2017
</metadata>
<g transform="translate(0.000000,17.000000) scale(0.100000,-0.100000)"
fill="#000000" stroke="none">
<path fill="#000000" stroke="none" d="M47 164 c-4 -4 -7 -14 -7 -22 0 -8 -7
-20 -16 -26 -8 -7 -18 -31 -21 -54 -5 -38 -3 -42 21 -52 46 -17 66 -13 66 15
0 13 7 28 17 33 19 11 11 42 -11 42 -9 0 -16 12 -18 32 -3 31 -17 45 -31 32z"/>
</g>
</svg>
