<?xml version="1.0" standalone="no"?>
<!DOCTYPE svg PUBLIC "-//W3C//DTD SVG 20010904//EN"
 "http://www.w3.org/TR/2001/REC-SVG-20010904/DTD/svg10.dtd">
<svg version="1.0" xmlns="http://www.w3.org/2000/svg"
 width="8.000000pt" height="52.000000pt" viewBox="0 0 8.000000 52.000000"
 preserveAspectRatio="xMidYMid meet">
<metadata>
Created by potrace 1.14, written by Peter Selinger 2001-2017
</metadata>
<g transform="translate(0.000000,52.000000) scale(0.100000,-0.100000)"
fill="#000000" stroke="none">
<path fill="#000000" stroke="none" d="M5 501 c-3 -12 -4 -25 0 -30 8 -15 12
-190 4 -193 -4 -2 1 -46 13 -98 31 -146 31 -149 18 -165 -10 -12 -9 -15 4 -15
9 0 20 10 24 23 4 12 5 128 2 257 l-5 235 -27 3 c-19 2 -28 -2 -33 -17z"/>
</g>
</svg>
