<?xml version="1.0" standalone="no"?>
<!DOCTYPE svg PUBLIC "-//W3C//DTD SVG 20010904//EN"
 "http://www.w3.org/TR/2001/REC-SVG-20010904/DTD/svg10.dtd">
<svg version="1.0" xmlns="http://www.w3.org/2000/svg"
 width="40.000000pt" height="25.000000pt" viewBox="0 0 40.000000 25.000000"
 preserveAspectRatio="xMidYMid meet">
<metadata>
Created by potrace 1.14, written by Peter Selinger 2001-2017
</metadata>
<g transform="translate(0.000000,25.000000) scale(0.100000,-0.100000)"
fill="#000000" stroke="none">
<path fill="#000000" stroke="none" d="M77 213 c-24 -21 -52 -43 -62 -48 -14
-8 -15 -16 -8 -44 8 -33 12 -35 88 -53 44 -10 92 -27 106 -37 19 -14 47 -20
111 -22 l86 -4 -26 45 c-14 25 -35 56 -46 68 -28 31 -174 132 -191 132 -8 0
-34 -17 -58 -37z"/>
</g>
</svg>
