<?xml version="1.0" standalone="no"?>
<!DOCTYPE svg PUBLIC "-//W3C//DTD SVG 20010904//EN"
 "http://www.w3.org/TR/2001/REC-SVG-20010904/DTD/svg10.dtd">
<svg version="1.0" xmlns="http://www.w3.org/2000/svg"
 width="17.000000pt" height="16.000000pt" viewBox="0 0 17.000000 16.000000"
 preserveAspectRatio="xMidYMid meet">
<metadata>
Created by potrace 1.14, written by Peter Selinger 2001-2017
</metadata>
<g transform="translate(0.000000,16.000000) scale(0.100000,-0.100000)"
fill="#000000" stroke="none">
<path fill="#000000" stroke="none" d="M50 134 c-13 -33 -13 -51 1 -60 8 -4 3
-12 -13 -20 -14 -7 -28 -23 -31 -34 -5 -21 -4 -21 71 -15 42 4 80 10 84 14 11
10 -20 51 -38 51 -10 0 -14 12 -14 39 0 26 -5 41 -16 45 -27 10 -34 7 -44 -20z"/>
</g>
</svg>
