<?xml version="1.0" standalone="no"?>
<!DOCTYPE svg PUBLIC "-//W3C//DTD SVG 20010904//EN"
 "http://www.w3.org/TR/2001/REC-SVG-20010904/DTD/svg10.dtd">
<svg version="1.0" xmlns="http://www.w3.org/2000/svg"
 width="9.000000pt" height="129.000000pt" viewBox="0 0 9.000000 129.000000"
 preserveAspectRatio="xMidYMid meet">
<metadata>
Created by potrace 1.14, written by Peter Selinger 2001-2017
</metadata>
<g transform="translate(0.000000,129.000000) scale(0.100000,-0.100000)"
fill="#000000" stroke="none">
<path fill="#000000" stroke="none" d="M42 1224 c-38 -57 -42 -70 -41 -121 1
-85 14 -111 22 -42 3 33 18 82 37 118 17 35 30 73 28 86 -3 20 -9 14 -46 -41z"/>
<path fill="#000000" stroke="none" d="M75 912 c-3 -26 -2 -58 4 -72 8 -20 10
-11 10 48 1 39 -1 72 -3 72 -2 0 -7 -21 -11 -48z"/>
<path fill="#000000" stroke="none" d="M72 678 c-10 -89 -9 -155 2 -313 l13
-200 2 313 c0 171 -1 312 -2 312 -2 0 -9 -51 -15 -112z"/>
<path fill="#000000" stroke="none" d="M30 98 l0 -98 30 0 30 0 0 63 c-1 54
-4 67 -30 97 l-29 35 -1 -97z"/>
</g>
</svg>
