<?xml version="1.0" standalone="no"?>
<!DOCTYPE svg PUBLIC "-//W3C//DTD SVG 20010904//EN"
 "http://www.w3.org/TR/2001/REC-SVG-20010904/DTD/svg10.dtd">
<svg version="1.0" xmlns="http://www.w3.org/2000/svg"
 width="17.000000pt" height="29.000000pt" viewBox="0 0 17.000000 29.000000"
 preserveAspectRatio="xMidYMid meet">
<metadata>
Created by potrace 1.14, written by Peter Selinger 2001-2017
</metadata>
<g transform="translate(0.000000,29.000000) scale(0.100000,-0.100000)"
fill="#000000" stroke="none">
<path fill="#000000" stroke="none" d="M33 283 c-13 -2 -23 -10 -23 -16 0 -26
26 -97 33 -91 14 15 6 -52 -9 -74 -8 -12 -19 -36 -24 -52 -8 -28 -7 -30 16
-30 14 0 36 11 49 24 l24 24 12 -29 c14 -35 22 -41 43 -33 22 8 20 38 -5 104
-15 39 -19 67 -15 97 5 42 5 43 -34 63 -21 11 -41 19 -42 19 -2 -1 -13 -4 -25
-6z"/>
</g>
</svg>
