<?xml version="1.0" standalone="no"?>
<!DOCTYPE svg PUBLIC "-//W3C//DTD SVG 20010904//EN"
 "http://www.w3.org/TR/2001/REC-SVG-20010904/DTD/svg10.dtd">
<svg version="1.0" xmlns="http://www.w3.org/2000/svg"
 width="58.000000pt" height="41.000000pt" viewBox="0 0 58.000000 41.000000"
 preserveAspectRatio="xMidYMid meet">
<metadata>
Created by potrace 1.14, written by Peter Selinger 2001-2017
</metadata>
<g transform="translate(0.000000,41.000000) scale(0.100000,-0.100000)"
fill="#000000" stroke="none">
<path fill="#000000" stroke="none" d="M21 361 c-27 -65 -27 -95 4 -125 16
-16 25 -36 25 -56 0 -29 1 -30 50 -30 63 0 84 -26 78 -95 -3 -41 -1 -46 19
-51 34 -9 53 2 53 31 0 40 25 90 56 112 29 20 127 41 214 46 l45 2 9 62 c9 63
-5 130 -25 117 -5 -3 -9 0 -9 7 0 10 -3 10 -11 2 -8 -8 -20 -6 -45 8 -31 17
-56 19 -238 19 l-204 0 -21 -49z"/>
</g>
</svg>
