<?xml version="1.0" standalone="no"?>
<!DOCTYPE svg PUBLIC "-//W3C//DTD SVG 20010904//EN"
 "http://www.w3.org/TR/2001/REC-SVG-20010904/DTD/svg10.dtd">
<svg version="1.0" xmlns="http://www.w3.org/2000/svg"
 width="112.000000pt" height="107.000000pt" viewBox="0 0 112.000000 107.000000"
 preserveAspectRatio="xMidYMid meet">
<metadata>
Created by potrace 1.14, written by Peter Selinger 2001-2017
</metadata>
<g transform="translate(0.000000,107.000000) scale(0.100000,-0.100000)"
fill="#000000" stroke="none">
<path fill="#000000" stroke="none" d="M1048 1065 c-3 -5 -33 -99 -67 -209
-34 -109 -78 -237 -100 -285 l-39 -86 -57 -3 c-51 -3 -56 -1 -51 15 3 10 17
65 31 123 l25 105 -62 58 c-35 31 -67 57 -71 57 -5 0 -27 -14 -48 -31 -22 -17
-46 -28 -54 -25 -8 3 -51 31 -95 62 -45 31 -84 54 -87 50 -3 -3 -47 -147 -98
-319 l-93 -314 -91 -126 -91 -127 198 0 c108 0 342 -3 518 -7 l321 -6 5 219
c5 206 8 229 43 396 l38 177 -34 143 c-19 79 -37 139 -41 133z"/>
</g>
</svg>
