<?xml version="1.0" standalone="no"?>
<!DOCTYPE svg PUBLIC "-//W3C//DTD SVG 20010904//EN"
 "http://www.w3.org/TR/2001/REC-SVG-20010904/DTD/svg10.dtd">
<svg version="1.0" xmlns="http://www.w3.org/2000/svg"
 width="150.000000pt" height="266.000000pt" viewBox="0 0 150.000000 266.000000"
 preserveAspectRatio="xMidYMid meet">
<metadata>
Created by potrace 1.14, written by Peter Selinger 2001-2017
</metadata>
<g transform="translate(0.000000,266.000000) scale(0.100000,-0.100000)"
fill="#000000" stroke="none">
<path fill="#000000" stroke="none" d="M712 2646 c-42 -9 -60 -19 -87 -51 -60
-70 -83 -175 -61 -270 8 -33 14 -61 12 -62 -1 -1 -22 15 -46 36 l-45 38 -85
-47 c-64 -36 -84 -53 -83 -67 1 -13 -19 -33 -71 -68 -67 -45 -75 -55 -89 -100
-16 -52 -50 -194 -61 -255 -5 -27 -15 -41 -46 -60 -33 -20 -40 -31 -46 -67 -5
-37 -2 -47 25 -81 16 -21 37 -45 46 -52 20 -17 19 -23 -11 -60 -25 -29 -26
-32 -8 -44 17 -13 17 -17 3 -77 l-16 -64 114 -225 c89 -178 113 -234 114 -270
2 -60 -9 -107 -27 -114 -10 -4 -14 -22 -14 -61 0 -57 -12 -94 -36 -108 -18
-10 -18 -36 1 -57 12 -13 12 -30 3 -108 -9 -70 -9 -100 0 -125 9 -26 9 -42 -3
-81 -20 -64 -20 -61 21 -93 28 -21 56 -30 123 -39 128 -19 128 -19 135 18 5
26 0 43 -29 89 -44 72 -45 110 -4 190 26 53 29 65 19 89 -9 22 -6 50 20 155
17 71 44 174 60 230 l30 101 -15 113 c-9 62 -14 115 -12 118 3 2 21 -10 40
-26 19 -17 40 -31 46 -31 13 0 221 137 221 146 0 3 -29 42 -64 88 l-64 82 63
103 c35 57 66 106 70 109 3 3 27 -16 54 -42 l48 -48 103 -5 102 -6 59 -51 c53
-44 62 -57 77 -110 l16 -59 71 -32 70 -32 23 38 23 39 -19 67 c-15 56 -24 71
-50 86 -23 14 -39 16 -64 10 -18 -4 -52 -7 -75 -5 -41 3 -47 8 -145 123 -100
116 -104 122 -119 194 -13 57 -14 86 -7 120 8 37 4 71 -22 195 l-32 149 25 33
c14 18 27 44 29 58 2 21 9 26 40 28 23 2 47 -3 63 -14 21 -14 13 4 -41 92 -86
140 -103 158 -196 205 -83 42 -93 43 -176 25z"/>
</g>
</svg>
