<?xml version="1.0" standalone="no"?>
<!DOCTYPE svg PUBLIC "-//W3C//DTD SVG 20010904//EN"
 "http://www.w3.org/TR/2001/REC-SVG-20010904/DTD/svg10.dtd">
<svg version="1.0" xmlns="http://www.w3.org/2000/svg"
 width="27.000000pt" height="29.000000pt" viewBox="0 0 27.000000 29.000000"
 preserveAspectRatio="xMidYMid meet">
<metadata>
Created by potrace 1.14, written by Peter Selinger 2001-2017
</metadata>
<g transform="translate(0.000000,29.000000) scale(0.100000,-0.100000)"
fill="#000000" stroke="none">
<path fill="#000000" stroke="none" d="M97 283 c-16 -15 -6 -65 18 -89 24 -24
24 -27 10 -54 -8 -16 -15 -38 -15 -48 0 -35 -41 -36 -73 -2 -15 17 -30 30 -33
30 -2 0 -4 -18 -4 -40 0 -34 3 -40 20 -40 12 0 38 -9 59 -20 37 -18 39 -18 55
-1 9 10 16 22 16 27 0 5 21 23 46 39 25 17 52 42 59 56 13 24 12 28 -8 46 -35
32 -57 66 -57 85 0 15 -8 18 -43 18 -24 0 -47 -3 -50 -7z"/>
</g>
</svg>
