<?xml version="1.0" standalone="no"?>
<!DOCTYPE svg PUBLIC "-//W3C//DTD SVG 20010904//EN"
 "http://www.w3.org/TR/2001/REC-SVG-20010904/DTD/svg10.dtd">
<svg version="1.0" xmlns="http://www.w3.org/2000/svg"
 width="81.000000pt" height="133.000000pt" viewBox="0 0 81.000000 133.000000"
 preserveAspectRatio="xMidYMid meet">
<metadata>
Created by potrace 1.14, written by Peter Selinger 2001-2017
</metadata>
<g transform="translate(0.000000,133.000000) scale(0.100000,-0.100000)"
fill="#000000" stroke="none">
<path fill="#000000" stroke="none" d="M307 1323 c-37 -6 -50 -35 -45 -99 3
-37 12 -63 32 -88 l27 -35 -21 -21 c-26 -26 -30 -25 -123 7 -59 21 -83 35 -95
56 -13 22 -23 27 -47 25 -25 -3 -30 -8 -33 -33 -3 -27 2 -33 32 -47 18 -9 66
-44 104 -77 63 -54 72 -67 86 -118 9 -32 27 -88 40 -124 l24 -66 -24 -99 c-28
-117 -30 -203 -8 -369 17 -133 15 -164 -16 -195 -30 -30 -17 -40 56 -40 l64 0
0 89 c0 49 -7 122 -15 163 l-16 75 53 76 52 77 39 -37 c48 -46 216 -297 246
-369 18 -42 26 -51 42 -47 28 8 52 59 46 98 -3 18 -27 65 -53 106 -82 128
-145 274 -155 358 -5 41 -24 122 -43 180 -21 63 -41 155 -50 226 -15 107 -19
122 -41 138 -19 15 -25 28 -25 58 0 86 -57 143 -133 132z"/>
</g>
</svg>
