<?xml version="1.0" standalone="no"?>
<!DOCTYPE svg PUBLIC "-//W3C//DTD SVG 20010904//EN"
 "http://www.w3.org/TR/2001/REC-SVG-20010904/DTD/svg10.dtd">
<svg version="1.0" xmlns="http://www.w3.org/2000/svg"
 width="168.000000pt" height="382.000000pt" viewBox="0 0 168.000000 382.000000"
 preserveAspectRatio="xMidYMid meet">
<metadata>
Created by potrace 1.14, written by Peter Selinger 2001-2017
</metadata>
<g transform="translate(0.000000,382.000000) scale(0.100000,-0.100000)"
fill="#000000" stroke="none">
<path fill="#000000" stroke="none" d="M596 3771 c-102 -46 -114 -54 -167
-118 -71 -85 -68 -98 19 -89 l65 7 -48 -57 c-41 -47 -51 -67 -61 -123 -7 -36
-13 -90 -14 -118 0 -61 -16 -70 -48 -26 l-20 27 -11 -56 c-10 -47 -16 -57 -37
-62 -22 -6 -25 -11 -19 -36 8 -35 4 -36 -31 -13 l-26 16 8 -73 c6 -68 5 -76
-22 -126 l-29 -54 -77 0 -78 0 0 -82 c0 -46 7 -155 15 -243 18 -195 21 -838 4
-965 -22 -169 -16 -315 25 -570 38 -232 38 -236 26 -355 l-12 -120 36 -95 c20
-52 40 -96 45 -98 6 -2 8 -9 5 -16 -10 -26 38 -110 123 -216 l88 -109 119 -1
c114 0 124 2 238 42 l119 41 37 67 c33 61 42 70 111 108 l76 41 85 225 c47
124 87 226 90 226 3 0 57 -52 120 -115 63 -63 120 -115 127 -115 24 0 61 67
88 160 15 52 38 112 51 132 21 33 25 57 34 195 5 87 10 199 10 250 0 50 4 95
10 98 21 13 9 182 -35 485 -25 174 -45 351 -45 398 l0 84 -92 156 c-50 87
-140 224 -199 306 l-107 148 33 79 c32 77 33 78 24 181 -4 57 -11 112 -14 123
-3 11 -28 35 -55 53 -39 25 -60 32 -99 32 l-49 0 -7 40 c-9 52 -36 103 -118
219 -54 77 -77 100 -124 127 -32 19 -62 33 -68 33 -5 0 -59 -22 -119 -48z"/>
<path fill="#000000" stroke="none" d="M257 3380 c-5 -20 15 -50 33 -50 10 0
-8 57 -20 65 -4 3 -10 -4 -13 -15z"/>
</g>
</svg>
