<?xml version="1.0" standalone="no"?>
<!DOCTYPE svg PUBLIC "-//W3C//DTD SVG 20010904//EN"
 "http://www.w3.org/TR/2001/REC-SVG-20010904/DTD/svg10.dtd">
<svg version="1.0" xmlns="http://www.w3.org/2000/svg"
 width="12.000000pt" height="24.000000pt" viewBox="0 0 12.000000 24.000000"
 preserveAspectRatio="xMidYMid meet">
<metadata>
Created by potrace 1.14, written by Peter Selinger 2001-2017
</metadata>
<g transform="translate(0.000000,24.000000) scale(0.100000,-0.100000)"
fill="#000000" stroke="none">
<path fill="#000000" stroke="none" d="M55 223 c-8 -20 -14 -50 -22 -107 -3
-21 -11 -50 -19 -64 -8 -16 -10 -30 -5 -35 12 -12 31 0 31 19 0 9 7 22 15 30
13 14 16 13 21 -3 14 -43 24 -63 34 -63 13 0 13 14 -2 62 -9 29 -9 41 0 50 18
18 14 38 -8 38 -15 0 -20 7 -20 24 0 14 5 28 10 31 8 5 7 11 -1 21 -15 19 -25
18 -34 -3z"/>
</g>
</svg>
