<?xml version="1.0" standalone="no"?>
<!DOCTYPE svg PUBLIC "-//W3C//DTD SVG 20010904//EN"
 "http://www.w3.org/TR/2001/REC-SVG-20010904/DTD/svg10.dtd">
<svg version="1.0" xmlns="http://www.w3.org/2000/svg"
 width="212.000000pt" height="302.000000pt" viewBox="0 0 212.000000 302.000000"
 preserveAspectRatio="xMidYMid meet">
<metadata>
Created by potrace 1.14, written by Peter Selinger 2001-2017
</metadata>
<g transform="translate(0.000000,302.000000) scale(0.100000,-0.100000)"
fill="#000000" stroke="none">
<path fill="#000000" stroke="none" d="M350 3013 c-68 -11 -128 -35 -154 -62
-16 -17 -56 -39 -91 -52 -72 -25 -64 -7 -91 -205 -16 -120 -15 -123 6 -199 12
-43 44 -119 70 -168 l48 -89 148 -78 c122 -63 210 -121 489 -325 187 -136 348
-255 358 -264 16 -16 8 -36 -147 -371 -90 -195 -192 -402 -226 -460 l-61 -105
6 -98 6 -98 -111 -200 c-62 -111 -109 -204 -105 -207 3 -4 259 -10 568 -14
309 -4 673 -8 810 -10 l247 -3 -1 1510 0 1510 -65 -127 c-72 -144 -139 -243
-292 -434 l-105 -131 -97 -42 -98 -43 -113 66 -114 65 -85 117 c-96 133 -369
442 -427 484 -37 26 -43 27 -193 32 -85 3 -166 3 -180 1z"/>
</g>
</svg>
