<?xml version="1.0" standalone="no"?>
<!DOCTYPE svg PUBLIC "-//W3C//DTD SVG 20010904//EN"
 "http://www.w3.org/TR/2001/REC-SVG-20010904/DTD/svg10.dtd">
<svg version="1.0" xmlns="http://www.w3.org/2000/svg"
 width="49.000000pt" height="39.000000pt" viewBox="0 0 49.000000 39.000000"
 preserveAspectRatio="xMidYMid meet">
<metadata>
Created by potrace 1.14, written by Peter Selinger 2001-2017
</metadata>
<g transform="translate(0.000000,39.000000) scale(0.100000,-0.100000)"
fill="#000000" stroke="none">
<path fill="#000000" stroke="none" d="M310 353 c-52 -20 -96 -37 -98 -38 -1
-1 5 -24 13 -51 19 -64 6 -111 -40 -143 -39 -27 -88 -22 -105 10 -11 20 -9 22
30 20 44 -2 73 30 74 82 1 54 -11 71 -47 62 -18 -5 -28 -16 -32 -36 -4 -16
-12 -29 -18 -28 -47 6 -73 -25 -77 -91 -5 -65 0 -87 25 -114 20 -21 33 -26 74
-26 27 0 61 4 75 10 15 5 89 69 166 141 l140 131 0 54 0 54 -42 0 c-24 -1 -86
-17 -138 -37z"/>
</g>
</svg>
