<?xml version="1.0" standalone="no"?>
<!DOCTYPE svg PUBLIC "-//W3C//DTD SVG 20010904//EN"
 "http://www.w3.org/TR/2001/REC-SVG-20010904/DTD/svg10.dtd">
<svg version="1.0" xmlns="http://www.w3.org/2000/svg"
 width="32.000000pt" height="66.000000pt" viewBox="0 0 32.000000 66.000000"
 preserveAspectRatio="xMidYMid meet">
<metadata>
Created by potrace 1.14, written by Peter Selinger 2001-2017
</metadata>
<g transform="translate(0.000000,66.000000) scale(0.100000,-0.100000)"
fill="#000000" stroke="none">
<path fill="#000000" stroke="none" d="M100 585 c-46 -41 -88 -75 -93 -75 -9
0 -2 -259 9 -347 l6 -41 65 19 c52 14 64 15 59 4 -2 -7 -8 -30 -12 -50 -6 -32
-4 -37 16 -42 16 -4 20 -11 16 -27 -5 -20 -2 -21 74 -18 l79 4 -19 26 c-18 25
-19 35 -9 137 11 107 9 209 -4 221 -3 4 -24 -1 -47 -10 l-40 -16 0 26 c0 14 8
38 19 52 34 49 61 111 61 141 0 33 -22 61 -50 61 -10 0 -25 2 -33 5 -8 4 -47
-24 -97 -70z"/>
</g>
</svg>
