<?xml version="1.0" standalone="no"?>
<!DOCTYPE svg PUBLIC "-//W3C//DTD SVG 20010904//EN"
 "http://www.w3.org/TR/2001/REC-SVG-20010904/DTD/svg10.dtd">
<svg version="1.0" xmlns="http://www.w3.org/2000/svg"
 width="133.000000pt" height="246.000000pt" viewBox="0 0 133.000000 246.000000"
 preserveAspectRatio="xMidYMid meet">
<metadata>
Created by potrace 1.14, written by Peter Selinger 2001-2017
</metadata>
<g transform="translate(0.000000,246.000000) scale(0.100000,-0.100000)"
fill="#000000" stroke="none">
<path fill="#000000" stroke="none" d="M742 2421 c-56 -52 -72 -93 -72 -190 0
-57 -4 -84 -15 -95 -8 -8 -15 -19 -15 -24 0 -5 -29 -29 -65 -52 -53 -34 -67
-49 -74 -79 -6 -20 -31 -121 -57 -226 -35 -142 -62 -224 -106 -322 -89 -203
-156 -375 -160 -412 -3 -34 -1 -36 69 -74 l73 -39 0 -48 c0 -39 -30 -121 -158
-436 l-158 -389 105 -12 c58 -6 143 -14 189 -18 l83 -7 -12 25 c-8 19 -25 28
-74 42 l-62 16 -16 57 c-9 31 -15 57 -14 57 10 4 757 -21 760 -25 2 -3 12 -40
21 -83 10 -42 20 -77 24 -77 4 0 77 31 162 70 147 66 155 71 158 100 l3 30
-83 0 c-141 0 -153 5 -176 61 l-21 48 37 11 c20 5 45 10 55 10 13 0 0 24 -53
93 l-70 94 0 116 0 116 -76 125 c-81 135 -82 138 -42 204 20 32 20 44 14 245
-10 314 -24 496 -43 539 l-15 36 80 195 c78 193 79 196 69 247 -9 47 -14 53
-61 81 -40 22 -63 29 -106 28 -50 0 -59 -4 -98 -38z"/>
</g>
</svg>
