<?xml version="1.0" standalone="no"?>
<!DOCTYPE svg PUBLIC "-//W3C//DTD SVG 20010904//EN"
 "http://www.w3.org/TR/2001/REC-SVG-20010904/DTD/svg10.dtd">
<svg version="1.0" xmlns="http://www.w3.org/2000/svg"
 width="56.000000pt" height="95.000000pt" viewBox="0 0 56.000000 95.000000"
 preserveAspectRatio="xMidYMid meet">
<metadata>
Created by potrace 1.14, written by Peter Selinger 2001-2017
</metadata>
<g transform="translate(0.000000,95.000000) scale(0.100000,-0.100000)"
fill="#000000" stroke="none">
<path fill="#000000" stroke="none" d="M311 933 c-13 -11 -25 -38 -31 -72 -6
-30 -11 -55 -13 -56 -15 -7 -100 -75 -174 -139 -71 -60 -93 -85 -93 -104 0
-28 -10 -34 118 71 45 37 82 66 82 64 0 -2 -12 -32 -26 -68 -24 -59 -26 -75
-24 -194 2 -166 -9 -213 -64 -282 l-42 -54 30 -32 c30 -31 79 -67 92 -67 3 0
3 22 -1 49 -7 49 -5 52 56 146 l62 97 29 -63 c15 -34 31 -79 34 -99 8 -49 12
-54 62 -79 43 -22 44 -22 74 -3 l30 20 -50 28 c-44 24 -54 36 -71 82 -15 43
-17 58 -8 73 10 15 5 33 -29 101 l-40 83 22 95 c16 68 22 85 23 59 1 -35 3
-37 84 -72 45 -21 87 -37 93 -37 7 0 14 10 16 23 4 20 -6 29 -68 66 l-73 42
-27 81 c-22 66 -24 82 -13 89 8 5 16 9 19 9 6 0 30 81 30 99 0 8 -71 61 -82
61 -3 0 -15 -8 -27 -17z"/>
</g>
</svg>
