<?xml version="1.0" standalone="no"?>
<!DOCTYPE svg PUBLIC "-//W3C//DTD SVG 20010904//EN"
 "http://www.w3.org/TR/2001/REC-SVG-20010904/DTD/svg10.dtd">
<svg version="1.0" xmlns="http://www.w3.org/2000/svg"
 width="21.000000pt" height="61.000000pt" viewBox="0 0 21.000000 61.000000"
 preserveAspectRatio="xMidYMid meet">
<metadata>
Created by potrace 1.14, written by Peter Selinger 2001-2017
</metadata>
<g transform="translate(0.000000,61.000000) scale(0.100000,-0.100000)"
fill="#000000" stroke="none">
<path fill="#000000" stroke="none" d="M106 595 c-3 -9 -6 -34 -6 -56 0 -31
-4 -39 -18 -39 -26 0 -42 -20 -42 -51 0 -14 -7 -45 -14 -68 -18 -50 -21 -107
-11 -238 6 -78 5 -106 -5 -118 -10 -12 -10 -15 2 -15 34 0 51 25 46 71 -5 42
13 99 30 99 17 0 34 -97 24 -133 -9 -32 -8 -36 12 -41 11 -3 29 -6 40 -6 17 0
17 1 1 26 -19 29 -14 89 10 121 9 11 14 43 15 82 0 36 5 103 12 149 l12 84
-27 24 c-23 19 -26 27 -17 43 20 39 9 66 -31 76 -19 5 -28 2 -33 -10z"/>
</g>
</svg>
