<?xml version="1.0" standalone="no"?>
<!DOCTYPE svg PUBLIC "-//W3C//DTD SVG 20010904//EN"
 "http://www.w3.org/TR/2001/REC-SVG-20010904/DTD/svg10.dtd">
<svg version="1.0" xmlns="http://www.w3.org/2000/svg"
 width="19.000000pt" height="74.000000pt" viewBox="0 0 19.000000 74.000000"
 preserveAspectRatio="xMidYMid meet">
<metadata>
Created by potrace 1.14, written by Peter Selinger 2001-2017
</metadata>
<g transform="translate(0.000000,74.000000) scale(0.100000,-0.100000)"
fill="#000000" stroke="none">
<path fill="#000000" stroke="none" d="M25 716 c-17 -25 -12 -90 6 -102 15 -9
10 -45 -12 -103 -16 -44 -17 -52 -5 -42 9 8 16 20 16 27 0 9 11 14 30 14 28 0
30 -2 24 -27 -4 -16 -11 -38 -16 -51 -4 -13 -4 -30 0 -38 7 -12 15 -9 44 13
21 16 47 41 59 57 21 27 22 31 9 75 -8 25 -15 67 -16 92 -3 72 -9 84 -59 97
-60 16 -62 16 -80 -12z"/>
<path fill="#000000" stroke="none" d="M101 194 c-52 -23 -53 -25 -46 -56 4
-18 8 -53 9 -77 1 -54 24 -75 54 -48 17 15 62 159 62 197 0 15 -19 11 -79 -16z"/>
</g>
</svg>
