<?xml version="1.0" standalone="no"?>
<!DOCTYPE svg PUBLIC "-//W3C//DTD SVG 20010904//EN"
 "http://www.w3.org/TR/2001/REC-SVG-20010904/DTD/svg10.dtd">
<svg version="1.0" xmlns="http://www.w3.org/2000/svg"
 width="45.000000pt" height="87.000000pt" viewBox="0 0 45.000000 87.000000"
 preserveAspectRatio="xMidYMid meet">
<metadata>
Created by potrace 1.14, written by Peter Selinger 2001-2017
</metadata>
<g transform="translate(0.000000,87.000000) scale(0.100000,-0.100000)"
fill="#000000" stroke="none">
<path fill="#000000" stroke="none" d="M243 813 c3 -32 9 -70 12 -84 6 -22 2
-28 -25 -39 -51 -21 -77 -93 -85 -237 -4 -65 -14 -145 -22 -178 -16 -57 -76
-186 -109 -232 -14 -20 -14 -22 6 -33 16 -9 38 -9 90 1 l68 12 13 95 c12 91
15 97 58 148 26 29 49 49 52 46 3 -4 25 -53 50 -109 l43 -103 23 38 c28 46 28
60 2 114 l-20 43 23 130 24 130 -22 70 c-13 39 -32 95 -43 125 -11 30 -20 67
-21 81 0 23 -5 27 -37 33 -85 14 -86 13 -80 -51z"/>
</g>
</svg>
