<?xml version="1.0" standalone="no"?>
<!DOCTYPE svg PUBLIC "-//W3C//DTD SVG 20010904//EN"
 "http://www.w3.org/TR/2001/REC-SVG-20010904/DTD/svg10.dtd">
<svg version="1.0" xmlns="http://www.w3.org/2000/svg"
 width="15.000000pt" height="34.000000pt" viewBox="0 0 15.000000 34.000000"
 preserveAspectRatio="xMidYMid meet">
<metadata>
Created by potrace 1.14, written by Peter Selinger 2001-2017
</metadata>
<g transform="translate(0.000000,34.000000) scale(0.100000,-0.100000)"
fill="#000000" stroke="none">
<path fill="#000000" stroke="none" d="M76 324 c-9 -8 -16 -19 -16 -24 0 -5
-13 -16 -30 -25 -31 -16 -44 -60 -15 -48 20 7 44 -24 37 -49 -2 -10 -12 -18
-22 -18 -15 0 -16 -5 -7 -40 10 -36 13 -38 27 -25 30 27 42 18 40 -28 -3 -55
-2 -67 9 -67 9 0 27 110 23 151 -1 16 4 29 13 33 22 8 19 69 -5 99 -11 14 -20
30 -20 35 0 19 -18 22 -34 6z"/>
</g>
</svg>
