<?xml version="1.0" standalone="no"?>
<!DOCTYPE svg PUBLIC "-//W3C//DTD SVG 20010904//EN"
 "http://www.w3.org/TR/2001/REC-SVG-20010904/DTD/svg10.dtd">
<svg version="1.0" xmlns="http://www.w3.org/2000/svg"
 width="24.000000pt" height="33.000000pt" viewBox="0 0 24.000000 33.000000"
 preserveAspectRatio="xMidYMid meet">
<metadata>
Created by potrace 1.14, written by Peter Selinger 2001-2017
</metadata>
<g transform="translate(0.000000,33.000000) scale(0.100000,-0.100000)"
fill="#000000" stroke="none">
<path fill="#000000" stroke="none" d="M42 318 c-17 -22 -24 -94 -11 -116 10
-16 9 -23 -9 -43 -28 -29 -27 -35 3 -71 15 -17 25 -42 25 -60 0 -30 1 -30 38
-24 20 3 62 6 92 6 l56 0 -6 45 c-4 34 -15 57 -48 95 -41 48 -42 51 -28 72 24
34 20 73 -9 92 -29 19 -88 21 -103 4z"/>
</g>
</svg>
