<?xml version="1.0" standalone="no"?>
<!DOCTYPE svg PUBLIC "-//W3C//DTD SVG 20010904//EN"
 "http://www.w3.org/TR/2001/REC-SVG-20010904/DTD/svg10.dtd">
<svg version="1.0" xmlns="http://www.w3.org/2000/svg"
 width="20.000000pt" height="49.000000pt" viewBox="0 0 20.000000 49.000000"
 preserveAspectRatio="xMidYMid meet">
<metadata>
Created by potrace 1.14, written by Peter Selinger 2001-2017
</metadata>
<g transform="translate(0.000000,49.000000) scale(0.100000,-0.100000)"
fill="#000000" stroke="none">
<path fill="#000000" stroke="none" d="M75 476 c-22 -9 -34 -24 -42 -50 -6
-20 -7 -36 -2 -36 19 0 9 -58 -12 -71 -20 -14 -20 -19 -13 -166 5 -122 9 -150
20 -146 8 3 14 20 14 42 0 37 1 38 58 55 111 35 102 25 82 98 -10 35 -25 79
-35 99 -17 35 -17 36 9 78 l27 42 -21 35 c-23 37 -38 40 -85 20z"/>
</g>
</svg>
