<?xml version="1.0" standalone="no"?>
<!DOCTYPE svg PUBLIC "-//W3C//DTD SVG 20010904//EN"
 "http://www.w3.org/TR/2001/REC-SVG-20010904/DTD/svg10.dtd">
<svg version="1.0" xmlns="http://www.w3.org/2000/svg"
 width="155.000000pt" height="24.000000pt" viewBox="0 0 155.000000 24.000000"
 preserveAspectRatio="xMidYMid meet">
<metadata>
Created by potrace 1.14, written by Peter Selinger 2001-2017
</metadata>
<g transform="translate(0.000000,24.000000) scale(0.100000,-0.100000)"
fill="#000000" stroke="none">
<path fill="#000000" stroke="none" d="M180 230 l-185 -5 103 -24 c94 -23 107
-24 167 -12 104 21 318 -11 390 -59 28 -19 55 -27 91 -28 28 -1 156 -13 285
-26 181 -19 249 -31 299 -50 66 -24 66 -24 140 -7 71 16 75 18 74 44 0 15 -1
61 -2 102 l-2 75 -587 -2 c-324 -1 -671 -5 -773 -8z"/>
</g>
</svg>
