<?xml version="1.0" standalone="no"?>
<!DOCTYPE svg PUBLIC "-//W3C//DTD SVG 20010904//EN"
 "http://www.w3.org/TR/2001/REC-SVG-20010904/DTD/svg10.dtd">
<svg version="1.0" xmlns="http://www.w3.org/2000/svg"
 width="11.000000pt" height="134.000000pt" viewBox="0 0 11.000000 134.000000"
 preserveAspectRatio="xMidYMid meet">
<metadata>
Created by potrace 1.14, written by Peter Selinger 2001-2017
</metadata>
<g transform="translate(0.000000,134.000000) scale(0.100000,-0.100000)"
fill="#000000" stroke="none">
<path fill="#000000" stroke="none" d="M18 1332 c-17 -3 -18 -43 -18 -662 0
-558 2 -659 14 -663 12 -5 15 21 19 151 7 225 31 489 57 624 l23 116 -38 69
c-21 37 -44 75 -52 84 -12 14 -11 29 12 108 20 73 23 98 16 132 -11 47 -10 47
-33 41z"/>
</g>
</svg>
