<?xml version="1.0" standalone="no"?>
<!DOCTYPE svg PUBLIC "-//W3C//DTD SVG 20010904//EN"
 "http://www.w3.org/TR/2001/REC-SVG-20010904/DTD/svg10.dtd">
<svg version="1.0" xmlns="http://www.w3.org/2000/svg"
 width="346.000000pt" height="458.000000pt" viewBox="0 0 346.000000 458.000000"
 preserveAspectRatio="xMidYMid meet">
<metadata>
Created by potrace 1.14, written by Peter Selinger 2001-2017
</metadata>
<g transform="translate(0.000000,458.000000) scale(0.100000,-0.100000)"
fill="#000000" stroke="none">
<path fill="#000000" stroke="none" d="M1794 4562 c-68 -19 -131 -58 -167
-106 -51 -66 -98 -175 -103 -239 -5 -56 -2 -69 29 -133 19 -39 53 -98 76 -131
46 -68 48 -73 25 -73 -9 0 -62 -14 -117 -31 -98 -30 -103 -33 -211 -129 -122
-107 -153 -123 -381 -193 -89 -28 -161 -62 -376 -181 -213 -117 -274 -146
-305 -146 -22 0 -61 -7 -88 -15 -27 -8 -63 -15 -81 -15 -22 0 -40 -9 -62 -32
l-31 -33 38 -85 c42 -96 54 -104 119 -71 23 12 59 21 87 21 38 0 79 16 243 98
139 70 242 114 353 150 86 28 175 60 198 72 23 12 93 41 154 65 l112 44 95
-14 c52 -8 111 -15 131 -15 41 0 35 12 72 -135 12 -48 24 -68 58 -101 24 -22
49 -43 56 -45 11 -4 12 -39 3 -187 l-10 -182 -37 -62 c-47 -81 -68 -157 -94
-337 -14 -94 -35 -188 -60 -266 -49 -153 -56 -211 -36 -317 9 -46 25 -150 36
-233 l20 -149 -26 -21 -26 -21 37 -194 c20 -107 59 -284 87 -392 l51 -198 50
88 c142 252 263 446 317 510 l60 71 -45 24 -46 23 39 59 c49 76 245 261 292
276 60 20 108 77 149 180 12 31 44 84 71 117 26 33 57 80 68 104 11 25 52 93
91 151 39 59 71 111 71 116 0 6 -37 68 -82 138 -45 71 -90 153 -100 183 -10
30 -29 75 -41 100 -36 74 -29 148 34 356 l54 177 52 25 51 25 132 -124 c107
-101 137 -136 163 -189 30 -61 32 -71 32 -175 0 -101 2 -114 27 -156 15 -25
34 -52 44 -59 14 -12 18 -12 30 5 8 10 14 33 14 49 0 17 5 38 10 46 9 13 12
13 21 -2 16 -29 32 -21 59 30 27 51 43 60 48 24 3 -18 8 -21 30 -16 15 4 31
11 37 15 5 5 22 9 38 9 22 0 28 4 23 16 -3 9 -6 20 -6 24 0 15 -63 71 -96 85
-52 23 -63 50 -57 143 l6 82 -40 37 c-22 21 -51 47 -64 59 -27 23 -210 227
-251 281 -18 23 -28 48 -28 69 0 28 -6 36 -40 55 -24 14 -64 54 -97 99 -79
104 -170 194 -223 220 -25 12 -74 46 -111 75 -36 29 -88 64 -116 78 -67 34
-83 77 -84 226 0 75 -5 119 -17 150 -16 41 -22 46 -106 83 -183 80 -245 93
-332 70z"/>
<path fill="#000000" stroke="none" d="M2256 721 c-3 -9 -23 -90 -46 -181 -51
-208 -52 -208 -109 -263 -61 -58 -111 -151 -111 -206 0 -45 -3 -43 94 -60 l49
-9 74 60 c68 55 78 69 125 164 40 82 59 109 87 127 l36 22 -52 9 c-31 5 -54
15 -58 24 -5 13 -15 100 -31 268 -5 45 -8 53 -29 57 -17 3 -26 -1 -29 -12z"/>
</g>
</svg>
