<?xml version="1.0" standalone="no"?>
<!DOCTYPE svg PUBLIC "-//W3C//DTD SVG 20010904//EN"
 "http://www.w3.org/TR/2001/REC-SVG-20010904/DTD/svg10.dtd">
<svg version="1.0" xmlns="http://www.w3.org/2000/svg"
 width="33.000000pt" height="71.000000pt" viewBox="0 0 33.000000 71.000000"
 preserveAspectRatio="xMidYMid meet">
<metadata>
Created by potrace 1.14, written by Peter Selinger 2001-2017
</metadata>
<g transform="translate(0.000000,71.000000) scale(0.100000,-0.100000)"
fill="#000000" stroke="none">
<path fill="#000000" stroke="none" d="M134 696 c-3 -8 -14 -18 -24 -21 -12
-4 -29 -32 -45 -76 -15 -38 -36 -75 -47 -83 -18 -13 -19 -16 -4 -44 11 -21 25
-31 51 -36 26 -5 35 -12 35 -27 0 -25 -43 -111 -64 -128 -13 -11 -16 -38 -16
-148 0 -119 2 -134 16 -129 9 3 20 6 26 6 6 0 7 38 3 109 -12 184 14 229 179
301 l81 36 3 69 c2 38 1 79 -3 92 -12 51 -176 119 -191 79z"/>
</g>
</svg>
