<?xml version="1.0" standalone="no"?>
<!DOCTYPE svg PUBLIC "-//W3C//DTD SVG 20010904//EN"
 "http://www.w3.org/TR/2001/REC-SVG-20010904/DTD/svg10.dtd">
<svg version="1.0" xmlns="http://www.w3.org/2000/svg"
 width="75.000000pt" height="86.000000pt" viewBox="0 0 75.000000 86.000000"
 preserveAspectRatio="xMidYMid meet">
<metadata>
Created by potrace 1.14, written by Peter Selinger 2001-2017
</metadata>
<g transform="translate(0.000000,86.000000) scale(0.100000,-0.100000)"
fill="#000000" stroke="none">
<path fill="#000000" stroke="none" d="M84 848 l-62 -9 -6 -82 c-3 -45 -8
-125 -11 -177 l-6 -95 87 -88 86 -88 119 -6 119 -6 64 -71 c74 -84 82 -97 91
-157 11 -71 12 -72 91 -54 38 9 75 19 82 21 9 2 0 21 -26 56 -22 29 -56 86
-76 126 -73 145 -136 215 -249 277 -49 26 -90 53 -92 59 -35 124 -122 309
-143 305 -4 -1 -35 -6 -68 -11z"/>
</g>
</svg>
