<?xml version="1.0" standalone="no"?>
<!DOCTYPE svg PUBLIC "-//W3C//DTD SVG 20010904//EN"
 "http://www.w3.org/TR/2001/REC-SVG-20010904/DTD/svg10.dtd">
<svg version="1.0" xmlns="http://www.w3.org/2000/svg"
 width="155.000000pt" height="309.000000pt" viewBox="0 0 155.000000 309.000000"
 preserveAspectRatio="xMidYMid meet">
<metadata>
Created by potrace 1.14, written by Peter Selinger 2001-2017
</metadata>
<g transform="translate(0.000000,309.000000) scale(0.100000,-0.100000)"
fill="#000000" stroke="none">
<path fill="#000000" stroke="none" d="M815 3026 c-106 -61 -106 -62 -170
-161 l-65 -100 7 -125 c5 -100 10 -134 28 -170 17 -35 20 -53 14 -80 -9 -36
-6 -79 13 -190 10 -63 41 -138 79 -192 11 -14 19 -30 19 -35 0 -9 -73 -23
-216 -42 -62 -8 -81 -16 -142 -58 -61 -42 -74 -57 -105 -119 -19 -39 -51 -131
-71 -205 -19 -74 -73 -244 -119 -379 -83 -242 -84 -246 -72 -292 22 -84 81
-179 151 -243 l66 -60 -59 -56 -58 -55 48 -35 c27 -19 64 -59 84 -91 20 -32
38 -58 40 -58 2 0 71 66 154 147 l149 147 -29 19 c-53 33 -50 49 27 150 38 51
83 122 100 159 16 36 48 90 69 120 75 101 124 196 135 261 9 49 23 80 70 150
32 48 62 87 67 87 4 0 47 36 95 81 l86 81 0 52 c0 52 0 53 38 65 27 9 44 24
61 53 l23 40 -26 27 c-32 33 -34 92 -8 196 14 53 23 71 38 74 10 2 44 25 74
51 54 47 56 50 78 142 29 123 62 286 62 308 0 10 -53 76 -119 146 -116 126
-121 130 -232 186 -105 52 -121 57 -196 61 l-82 5 -106 -62z"/>
<path fill="#000000" stroke="none" d="M655 408 c-28 -29 -100 -93 -161 -142
l-111 -89 55 -89 c30 -48 60 -88 67 -88 7 0 35 55 63 122 28 68 71 171 96 231
25 59 44 107 43 107 -2 0 -25 -24 -52 -52z"/>
</g>
</svg>
