<?xml version="1.0" standalone="no"?>
<!DOCTYPE svg PUBLIC "-//W3C//DTD SVG 20010904//EN"
 "http://www.w3.org/TR/2001/REC-SVG-20010904/DTD/svg10.dtd">
<svg version="1.0" xmlns="http://www.w3.org/2000/svg"
 width="27.000000pt" height="41.000000pt" viewBox="0 0 27.000000 41.000000"
 preserveAspectRatio="xMidYMid meet">
<metadata>
Created by potrace 1.14, written by Peter Selinger 2001-2017
</metadata>
<g transform="translate(0.000000,41.000000) scale(0.100000,-0.100000)"
fill="#000000" stroke="none">
<path fill="#000000" stroke="none" d="M52 398 c-6 -6 -12 -22 -12 -34 0 -14
-8 -24 -21 -27 -18 -5 -20 -10 -13 -54 10 -70 21 -93 43 -93 11 0 33 -11 49
-25 17 -14 34 -25 40 -25 5 0 16 -29 23 -64 11 -57 15 -65 38 -69 35 -7 48 3
26 20 -15 10 -18 24 -16 65 3 64 7 71 31 58 13 -7 19 -6 24 5 3 8 2 15 -3 15
-21 0 -100 83 -106 111 -5 20 -16 35 -33 42 -22 10 -27 19 -27 47 0 37 -20 51
-43 28z"/>
</g>
</svg>
