<?xml version="1.0" standalone="no"?>
<!DOCTYPE svg PUBLIC "-//W3C//DTD SVG 20010904//EN"
 "http://www.w3.org/TR/2001/REC-SVG-20010904/DTD/svg10.dtd">
<svg version="1.0" xmlns="http://www.w3.org/2000/svg"
 width="174.000000pt" height="304.000000pt" viewBox="0 0 174.000000 304.000000"
 preserveAspectRatio="xMidYMid meet">
<metadata>
Created by potrace 1.14, written by Peter Selinger 2001-2017
</metadata>
<g transform="translate(0.000000,304.000000) scale(0.100000,-0.100000)"
fill="#000000" stroke="none">
<path fill="#000000" stroke="none" d="M965 2999 l-110 -39 31 29 31 28 -66 7
c-36 3 -243 6 -458 6 l-393 0 0 -315 0 -315 270 0 c210 0 270 -3 269 -12 -1
-30 -27 -141 -28 -122 -1 20 -8 21 -128 27 -71 4 -185 7 -255 7 l-128 0 0
-525 0 -525 110 0 c61 0 110 3 110 8 0 4 -13 31 -29 60 l-29 52 40 99 c53 132
116 203 224 255 l76 36 -6 38 c-5 25 -4 32 3 23 8 -12 20 -10 78 16 37 17 106
41 153 53 110 29 300 126 364 185 27 25 47 47 45 48 -2 2 -26 10 -54 18 l-50
15 -19 72 -19 72 29 74 c26 70 30 74 63 80 62 10 103 -4 140 -46 30 -34 34
-45 35 -102 1 -74 -2 -74 87 11 l55 54 129 -50 c71 -28 130 -49 132 -47 2 2
19 84 38 184 l34 180 -30 126 c-41 181 -51 196 -136 196 -34 0 -41 8 -22 27 6
6 8 20 4 32 -6 21 -11 21 -243 20 l-237 0 -110 -40z"/>
<path fill="#ffffff" stroke="none" d="M578 2587 c-12 -64 -23 -115 -26 -113
-5 5 28 217 35 229 13 21 11 -8 -9 -116z"/>
<path fill="#ffffff" stroke="none" d="M547 2423 c-3 -10 -5 -4 -5 12 0 17 2
24 5 18 2 -7 2 -21 0 -30z"/>
<path fill="#000000" stroke="none" d="M83 1023 l-83 -4 0 -112 1 -112 74 80
c41 44 89 97 106 118 30 36 30 37 7 35 -12 -1 -60 -4 -105 -5z"/>
<path fill="#000000" stroke="none" d="M271 975 c-35 -13 -67 -27 -71 -32 -16
-17 -201 -316 -198 -319 2 -2 51 11 108 27 90 27 114 39 176 87 59 47 78 69
105 124 l32 67 -27 35 c-32 42 -40 43 -125 11z"/>
<path fill="#000000" stroke="none" d="M48 533 l-48 -4 0 -245 0 -244 44 0
c25 0 108 -9 186 -21 78 -11 144 -19 146 -17 2 3 -40 123 -94 269 l-98 264
-44 1 c-25 0 -66 -1 -92 -3z"/>
</g>
</svg>
