<?xml version="1.0" standalone="no"?>
<!DOCTYPE svg PUBLIC "-//W3C//DTD SVG 20010904//EN"
 "http://www.w3.org/TR/2001/REC-SVG-20010904/DTD/svg10.dtd">
<svg version="1.0" xmlns="http://www.w3.org/2000/svg"
 width="289.000000pt" height="471.000000pt" viewBox="0 0 289.000000 471.000000"
 preserveAspectRatio="xMidYMid meet">
<metadata>
Created by potrace 1.14, written by Peter Selinger 2001-2017
</metadata>
<g transform="translate(0.000000,471.000000) scale(0.100000,-0.100000)"
fill="#000000" stroke="none">
<path fill="#000000" stroke="none" d="M1140 4684 c-146 -14 -268 -28 -271
-32 -4 -4 -61 -160 -127 -347 l-121 -340 -16 -348 -16 -349 61 -183 c33 -100
60 -187 60 -192 0 -5 -126 -75 -280 -157 -159 -84 -281 -155 -284 -164 -3 -9
-37 -156 -75 -326 l-69 -310 104 -275 c81 -215 124 -349 195 -610 l91 -335 -7
-113 c-4 -63 -4 -174 0 -247 l7 -133 57 -18 c44 -14 86 -17 202 -16 l146 2 20
-68 20 -68 69 -23 c38 -12 85 -24 104 -25 30 -2 35 1 34 19 0 18 4 20 30 14
24 -4 55 5 139 43 l108 49 210 6 c115 3 209 8 209 12 0 13 -186 79 -265 93
-76 14 -82 14 -111 -4 -41 -25 -59 -24 -78 3 -22 31 -20 48 6 48 12 0 38 11
57 24 20 13 59 29 88 36 45 10 60 9 105 -5 85 -28 208 -94 274 -146 l62 -49
170 0 c152 0 171 2 177 17 10 26 185 502 199 541 l12 34 46 -114 47 -115 -6
-195 -6 -195 42 -17 42 -16 82 56 c92 64 172 137 192 174 11 22 6 62 -41 315
-30 160 -52 300 -49 312 3 12 14 30 24 40 37 36 41 99 19 367 l-20 251 -59
185 c-57 179 -60 198 -114 569 l-55 384 -81 181 c-96 214 -105 262 -118 601
l-8 210 -120 340 c-66 187 -137 401 -159 476 l-39 137 -130 6 c-376 17 -515
15 -785 -10z"/>
</g>
</svg>
