<?xml version="1.0" standalone="no"?>
<!DOCTYPE svg PUBLIC "-//W3C//DTD SVG 20010904//EN"
 "http://www.w3.org/TR/2001/REC-SVG-20010904/DTD/svg10.dtd">
<svg version="1.0" xmlns="http://www.w3.org/2000/svg"
 width="160.000000pt" height="206.000000pt" viewBox="0 0 160.000000 206.000000"
 preserveAspectRatio="xMidYMid meet">
<metadata>
Created by potrace 1.14, written by Peter Selinger 2001-2017
</metadata>
<g transform="translate(0.000000,206.000000) scale(0.100000,-0.100000)"
fill="#000000" stroke="none">
<path fill="#000000" stroke="none" d="M695 2035 c-60 -13 -113 -24 -117 -24
-14 -2 -98 -149 -127 -223 -72 -183 -180 -378 -290 -522 -103 -137 -107 -145
-135 -244 l-28 -101 85 -148 85 -148 7 -255 7 -255 39 -51 39 -51 242 -6 c149
-4 260 -2 287 4 24 5 110 9 190 7 240 -4 199 -31 426 282 l195 269 -31 52
c-17 29 -57 105 -89 169 -54 106 -63 119 -132 175 -116 95 -176 154 -183 183
-23 96 -25 100 -74 132 -80 51 -80 52 -6 100 l66 41 -25 34 c-22 29 -25 40
-20 79 6 38 12 50 40 67 19 11 34 22 34 23 0 43 -28 190 -47 247 -33 100 -58
124 -170 160 -103 34 -123 34 -268 4z"/>
</g>
</svg>
