<?xml version="1.0" standalone="no"?>
<!DOCTYPE svg PUBLIC "-//W3C//DTD SVG 20010904//EN"
 "http://www.w3.org/TR/2001/REC-SVG-20010904/DTD/svg10.dtd">
<svg version="1.0" xmlns="http://www.w3.org/2000/svg"
 width="17.000000pt" height="49.000000pt" viewBox="0 0 17.000000 49.000000"
 preserveAspectRatio="xMidYMid meet">
<metadata>
Created by potrace 1.14, written by Peter Selinger 2001-2017
</metadata>
<g transform="translate(0.000000,49.000000) scale(0.100000,-0.100000)"
fill="#000000" stroke="none">
<path fill="#000000" stroke="none" d="M100 481 c-81 -33 -104 -132 -75 -318
6 -36 11 -43 30 -43 17 0 24 7 29 30 3 18 12 30 21 30 11 0 14 7 10 29 -4 23
-1 30 15 34 14 3 20 14 20 31 0 14 5 26 10 26 15 0 12 56 -5 97 -8 19 -15 43
-15 53 0 23 -21 39 -40 31z"/>
<path fill="#000000" stroke="none" d="M15 75 c-4 -22 -9 -48 -12 -57 -3 -14
2 -18 20 -18 24 0 25 3 20 43 -9 65 -20 78 -28 32z"/>
</g>
</svg>
