<?xml version="1.0" standalone="no"?>
<!DOCTYPE svg PUBLIC "-//W3C//DTD SVG 20010904//EN"
 "http://www.w3.org/TR/2001/REC-SVG-20010904/DTD/svg10.dtd">
<svg version="1.0" xmlns="http://www.w3.org/2000/svg"
 width="30.000000pt" height="44.000000pt" viewBox="0 0 30.000000 44.000000"
 preserveAspectRatio="xMidYMid meet">
<metadata>
Created by potrace 1.14, written by Peter Selinger 2001-2017
</metadata>
<g transform="translate(0.000000,44.000000) scale(0.100000,-0.100000)"
fill="#000000" stroke="none">
<path fill="#000000" stroke="none" d="M7 433 c-8 -13 15 -197 26 -208 7 -7 8
-5 4 6 -4 13 -1 15 14 12 16 -5 19 0 19 30 0 20 5 39 10 42 16 10 12 25 -6 25
-11 0 -14 5 -10 17 13 33 -40 103 -57 76z"/>
<path fill="#000000" stroke="none" d="M223 418 c-6 -13 -7 -32 -3 -43 4 -11
6 -24 4 -30 -1 -5 -8 -42 -14 -82 l-12 -72 -61 -3 -61 -3 84 -70 c45 -38 96
-80 112 -93 l28 -23 0 184 c0 142 -3 193 -15 221 -18 42 -46 48 -62 14z"/>
</g>
</svg>
