<?xml version="1.0" standalone="no"?>
<!DOCTYPE svg PUBLIC "-//W3C//DTD SVG 20010904//EN"
 "http://www.w3.org/TR/2001/REC-SVG-20010904/DTD/svg10.dtd">
<svg version="1.0" xmlns="http://www.w3.org/2000/svg"
 width="134.000000pt" height="142.000000pt" viewBox="0 0 134.000000 142.000000"
 preserveAspectRatio="xMidYMid meet">
<metadata>
Created by potrace 1.14, written by Peter Selinger 2001-2017
</metadata>
<g transform="translate(0.000000,142.000000) scale(0.100000,-0.100000)"
fill="#000000" stroke="none">
<path fill="#000000" stroke="none" d="M732 1389 c-106 -62 -129 -136 -72
-235 24 -43 35 -53 64 -58 19 -4 38 -10 40 -15 9 -14 -104 -59 -294 -116 -245
-75 -296 -97 -304 -137 -3 -17 -6 -34 -6 -38 0 -5 31 -14 69 -21 68 -12 70
-11 202 30 74 23 193 53 264 68 72 14 138 33 147 41 15 12 18 13 23 1 25 -69
55 -166 55 -180 0 -10 -13 -27 -28 -37 -24 -17 -52 -21 -190 -28 l-163 -7 -28
-36 c-16 -20 -46 -63 -67 -97 -22 -33 -72 -103 -112 -155 -41 -52 -88 -127
-106 -169 -41 -92 -52 -95 -142 -45 -53 30 -68 35 -75 24 -20 -31 -6 -57 67
-123 l61 -55 70 47 c43 29 110 91 176 163 58 64 127 135 154 157 47 41 49 42
123 42 41 0 80 -4 87 -8 6 -4 19 -61 28 -127 10 -66 22 -125 29 -131 18 -18
126 -29 126 -12 0 7 -9 65 -20 128 -25 143 -25 140 4 140 22 0 24 -5 30 -63 9
-81 39 -123 80 -113 26 6 28 9 24 54 -3 26 -8 54 -12 64 -6 14 6 21 76 42 46
15 112 41 148 59 l65 32 8 123 9 122 -42 143 c-22 78 -55 173 -72 210 -27 58
-41 75 -93 112 -53 38 -70 45 -130 51 -76 8 -70 3 -152 113 -27 36 -53 66 -58
68 -6 1 -34 -11 -63 -28z"/>
</g>
</svg>
