<?xml version="1.0" standalone="no"?>
<!DOCTYPE svg PUBLIC "-//W3C//DTD SVG 20010904//EN"
 "http://www.w3.org/TR/2001/REC-SVG-20010904/DTD/svg10.dtd">
<svg version="1.0" xmlns="http://www.w3.org/2000/svg"
 width="72.000000pt" height="160.000000pt" viewBox="0 0 72.000000 160.000000"
 preserveAspectRatio="xMidYMid meet">
<metadata>
Created by potrace 1.14, written by Peter Selinger 2001-2017
</metadata>
<g transform="translate(0.000000,160.000000) scale(0.100000,-0.100000)"
fill="#000000" stroke="none">
<path fill="#000000" stroke="none" d="M118 1584 c-36 -24 -41 -47 -45 -204
-3 -176 -5 -191 -24 -220 -26 -40 -51 -93 -42 -87 5 3 54 -13 108 -36 117 -50
118 -52 151 -206 26 -119 24 -126 -44 -209 -31 -38 -33 -46 -23 -68 6 -14 25
-141 42 -282 17 -141 32 -258 32 -259 1 -1 86 -5 190 -9 158 -6 187 -5 183 7
-2 8 -10 53 -17 101 l-12 87 -54 12 c-50 12 -53 14 -53 43 0 24 8 36 35 55 19
13 37 33 41 45 3 11 18 40 32 63 21 33 33 42 64 47 22 4 38 12 38 19 0 20
-152 393 -189 462 -17 33 -56 91 -86 130 -30 38 -55 75 -55 82 0 7 15 24 34
38 38 29 50 73 62 222 6 66 3 92 -10 128 -17 42 -20 45 -55 45 -21 0 -91 2
-157 6 -103 4 -123 3 -146 -12z"/>
</g>
</svg>
