<?xml version="1.0" standalone="no"?>
<!DOCTYPE svg PUBLIC "-//W3C//DTD SVG 20010904//EN"
 "http://www.w3.org/TR/2001/REC-SVG-20010904/DTD/svg10.dtd">
<svg version="1.0" xmlns="http://www.w3.org/2000/svg"
 width="640.000000pt" height="488.000000pt" viewBox="0 0 640.000000 488.000000"
 preserveAspectRatio="xMidYMid meet">
<metadata>
Created by potrace 1.14, written by Peter Selinger 2001-2017
</metadata>
<g transform="translate(0.000000,488.000000) scale(0.100000,-0.100000)"
fill="#000000" stroke="none">
<path fill="#000000" stroke="none" d="M2280 4870 c-105 -19 -191 -61 -258
-126 -13 -13 -49 -30 -80 -39 -32 -9 -67 -23 -80 -31 -51 -33 -148 -55 -267
-60 -66 -3 -138 -10 -160 -15 -23 -6 -106 -12 -185 -14 -130 -3 -155 -6 -240
-34 -68 -23 -113 -31 -163 -31 -45 0 -93 -8 -140 -24 -40 -12 -93 -29 -120
-36 -83 -22 -161 -90 -205 -177 -12 -23 -37 -59 -57 -80 -19 -21 -39 -49 -45
-63 -8 -20 -22 -28 -63 -38 -61 -14 -133 -62 -177 -116 l-31 -40 5 -170 c3
-94 8 -208 11 -253 4 -48 3 -83 -3 -83 -5 0 -9 -115 -11 -265 l-2 -265 28 0
c22 0 25 -2 13 -10 -8 -5 -11 -10 -6 -10 6 0 1 -6 -9 -14 -16 -11 -19 -29 -20
-127 -1 -63 3 -120 8 -126 5 -8 6 -28 1 -50 -12 -54 -12 -96 -1 -110 5 -8 5
-25 -1 -45 -10 -30 -9 -88 1 -158 2 -14 -1 -30 -6 -37 -8 -12 -5 -75 6 -103 3
-8 5 -31 3 -50 -1 -19 2 -42 7 -51 6 -10 4 -25 -6 -46 -11 -21 -13 -33 -5 -41
6 -6 11 -44 12 -86 1 -41 5 -78 8 -82 4 -3 2 -18 -3 -33 -6 -14 -10 -27 -10
-28 1 -2 0 -6 0 -10 -1 -5 0 -16 1 -26 1 -10 -4 -24 -10 -31 -8 -10 -8 -26 0
-57 14 -55 18 -119 9 -125 -19 -11 -19 -57 1 -85 l21 -29 -23 -32 c-22 -31
-23 -44 -26 -205 -4 -166 -3 -174 21 -225 46 -98 48 -120 43 -496 l-1 -84 37
-34 c56 -51 74 -46 94 25 16 59 16 60 65 71 55 14 51 3 69 178 13 136 12 205
-4 275 -15 64 -13 72 8 25 7 -18 25 -44 40 -57 24 -23 28 -23 65 -11 37 12 46
11 123 -17 72 -26 83 -34 83 -54 0 -15 11 -29 33 -42 29 -17 33 -17 48 -3 8 9
19 16 23 16 5 0 21 12 36 27 24 25 27 33 21 77 -4 38 -2 54 11 68 21 24 68 23
93 -2 16 -16 18 -28 13 -69 l-6 -50 44 -3 c43 -3 44 -4 101 -96 32 -51 56 -97
53 -102 -3 -4 -19 -11 -35 -15 -17 -4 -30 -10 -30 -14 0 -4 9 -33 20 -65 14
-39 21 -87 23 -148 2 -82 0 -91 -20 -108 -12 -9 -20 -20 -17 -23 3 -3 1 -15
-6 -26 -10 -20 -19 -21 -133 -21 l-122 -1 38 -35 c37 -35 40 -35 115 -34 42 0
95 -2 117 -5 23 -4 53 -1 70 6 17 6 45 11 62 10 18 -2 46 4 61 12 16 8 42 12
58 10 16 -3 43 1 59 8 17 7 50 13 75 14 25 1 55 8 67 16 21 12 26 11 61 -25
46 -44 86 -55 198 -56 55 0 86 5 100 15 10 8 40 15 67 15 41 0 52 5 85 38 63
62 107 91 123 81 16 -10 152 -12 162 -3 4 4 44 6 89 5 81 -1 84 -1 127 34 34
27 53 35 85 35 35 0 44 -5 64 -34 42 -62 67 -78 144 -92 40 -7 101 -13 135
-13 57 -1 64 2 97 33 20 18 36 41 36 51 0 13 5 15 18 9 9 -4 40 -10 69 -12 47
-3 52 -6 58 -31 9 -41 57 -82 107 -92 24 -4 78 -8 122 -9 68 0 82 -3 108 -25
45 -38 121 -36 168 5 19 16 42 29 51 30 9 0 33 11 53 25 25 17 36 20 36 11 0
-8 18 -30 40 -50 36 -32 46 -36 94 -36 49 0 59 4 91 35 30 27 41 32 55 25 34
-18 110 -12 142 11 37 27 54 65 63 146 6 51 11 65 32 78 39 26 53 72 51 176
-1 128 -1 129 21 129 21 0 31 -19 31 -60 0 -40 17 -80 48 -112 l26 -28 -32 0
c-43 0 -99 -50 -108 -97 -4 -19 -2 -65 4 -101 11 -64 14 -69 81 -134 68 -66
70 -68 122 -68 40 0 60 6 85 25 65 50 70 153 10 210 -17 16 -37 49 -44 72 -7
23 -24 51 -39 62 l-26 21 36 0 c20 0 39 5 42 10 3 6 29 10 57 10 107 0 166 95
122 198 -9 20 -17 56 -18 79 -2 49 -3 49 124 59 75 6 90 11 132 41 63 45 96
86 104 128 14 78 -46 155 -122 155 -25 0 -34 -3 -26 -9 18 -11 -7 -21 -49 -21
-16 0 -42 -9 -57 -19 -36 -25 -162 -37 -162 -16 0 8 -5 15 -10 15 -7 0 -8 18
-4 49 4 29 1 63 -6 85 -13 40 -65 86 -97 86 -14 0 -23 11 -32 40 -17 57 -64
90 -130 90 -45 0 -56 -4 -89 -34 -35 -33 -37 -38 -37 -96 0 -58 2 -63 37 -96
21 -19 48 -34 62 -34 22 0 24 -4 28 -57 2 -32 0 -60 -5 -61 -4 -2 -21 -15 -36
-28 l-29 -24 -36 35 c-33 31 -44 35 -90 35 -52 0 -53 1 -48 26 4 24 -6 86 -29
176 -15 59 -61 88 -139 88 -59 0 -64 -2 -101 -39 -41 -41 -93 -57 -120 -38 -8
7 -21 39 -28 72 -7 33 -17 71 -21 85 -4 14 -5 49 -3 77 11 107 -41 173 -136
173 -45 0 -56 -4 -89 -34 l-37 -34 1 -124 c1 -68 3 -172 5 -231 3 -126 2 -127
-82 -127 -31 0 -80 -4 -110 -10 -30 -5 -76 -12 -102 -15 -36 -5 -58 -15 -85
-40 -35 -31 -37 -37 -37 -94 0 -52 4 -63 29 -90 16 -17 37 -33 47 -36 14 -5
16 -14 12 -48 -3 -23 -11 -56 -19 -74 -8 -17 -14 -39 -14 -50 0 -10 -15 -30
-34 -45 -29 -23 -34 -34 -40 -89 -4 -35 -11 -58 -15 -51 -5 8 -20 3 -50 -20
-43 -31 -44 -31 -95 -18 -28 7 -65 18 -83 26 l-32 13 30 73 30 72 -23 18 c-13
10 -26 18 -30 18 -5 0 -8 7 -8 16 0 8 19 24 44 35 l45 19 -15 44 c-15 43 -15
45 15 93 l31 48 -28 22 c-19 16 -40 23 -72 23 -29 0 -54 7 -70 20 -14 11 -32
20 -41 20 -8 0 -24 7 -35 15 -11 8 -41 15 -71 15 -41 0 -58 -5 -83 -27 -17
-14 -36 -37 -41 -50 -9 -26 -23 -28 -149 -24 -41 1 -96 -2 -123 -7 -27 -5 -50
-6 -53 -1 -3 5 -31 9 -63 9 -55 0 -62 -3 -113 -45 -53 -44 -57 -45 -153 -55
-97 -10 -164 -33 -222 -76 -22 -16 -23 -16 -23 10 0 40 -24 90 -55 112 l-27
20 31 48 c55 88 64 215 22 312 -11 23 -38 63 -61 88 l-42 45 12 58 c33 155
-42 307 -185 374 -102 49 -248 37 -331 -26 l-31 -24 -14 57 -14 57 82 -3 c72
-3 90 0 142 24 71 31 142 102 174 172 17 37 21 67 22 137 0 79 -3 97 -29 149
-26 53 -29 71 -31 160 -1 89 -4 109 -32 171 -17 39 -33 97 -37 129 -13 118
-83 216 -191 267 -50 24 -73 29 -136 29 -42 0 -94 -6 -116 -14 -36 -13 -40
-12 -68 10 -25 20 -41 24 -102 24 -40 0 -73 3 -73 6 0 30 57 71 135 97 16 6
104 14 195 19 91 4 199 11 241 14 l75 5 13 -40 c15 -50 59 -103 105 -125 48
-23 138 -21 186 4 80 41 125 140 102 226 -7 26 -22 59 -32 75 l-20 27 56 26
c37 17 74 26 108 26 64 0 146 37 201 90 36 34 47 39 105 44 36 3 87 9 115 12
l49 6 -33 -28 c-38 -32 -70 -95 -71 -137 0 -25 -3 -27 -22 -20 -13 4 -66 8
-118 8 -79 0 -103 -4 -142 -23 -60 -30 -122 -92 -156 -157 -24 -44 -27 -61
-27 -145 0 -84 3 -101 27 -145 34 -65 96 -127 156 -157 35 -17 69 -24 134 -26
77 -4 93 -1 147 23 71 32 142 103 173 173 22 49 30 156 16 220 -7 32 -7 32 33
32 80 0 154 60 179 147 l13 42 21 -42 c11 -22 38 -54 59 -71 32 -26 49 -31
106 -34 54 -3 76 0 109 17 22 11 43 25 46 30 4 6 17 4 34 -5 40 -21 135 -18
182 6 96 49 135 173 86 271 -9 18 -15 33 -14 35 2 1 20 9 42 18 28 12 71 16
153 16 72 0 138 6 176 16 66 17 151 56 182 84 35 32 102 43 230 39 66 -2 179
-3 250 -4 l131 0 -11 -22 c-9 -21 -17 -23 -91 -23 -66 0 -84 -3 -102 -20 -12
-11 -26 -20 -33 -20 -13 0 -69 -39 -86 -60 -17 -21 -16 -111 2 -134 9 -12 15
-42 15 -72 0 -42 5 -56 24 -75 l23 -22 -30 -26 c-63 -53 -84 -157 -48 -237 17
-38 84 -104 105 -104 5 0 24 -17 42 -39 18 -21 49 -46 68 -55 47 -22 137 -21
184 3 l37 19 0 -60 c0 -56 2 -62 37 -94 22 -20 48 -34 63 -34 15 0 25 -6 25
-14 0 -8 16 -28 35 -45 31 -26 44 -31 90 -31 47 0 58 4 88 33 51 48 56 88 22
182 -16 42 -38 84 -50 93 -22 17 -19 18 74 14 93 -3 97 -4 124 -35 84 -95 97
-107 123 -107 15 0 61 -16 103 -36 96 -46 87 -41 169 -96 38 -27 76 -48 84
-48 8 0 28 -15 44 -33 16 -18 43 -42 59 -52 17 -11 32 -23 35 -26 15 -19 115
-69 139 -69 33 0 56 -23 67 -64 4 -16 27 -49 50 -73 35 -34 51 -43 79 -43 33
0 35 -2 41 -38 11 -67 66 -112 137 -112 36 0 47 -4 52 -19 3 -10 17 -31 32
-45 24 -24 32 -26 118 -26 93 0 93 0 120 32 27 32 27 34 21 129 -4 64 -3 100
4 104 7 4 10 302 10 931 l0 925 -52 24 c-32 15 -71 25 -99 25 -29 0 -51 6 -59
15 -14 17 -95 21 -105 6 -3 -6 -16 -6 -34 0 -18 6 -37 6 -54 0 -24 -9 -28 -7
-43 20 -29 57 -97 121 -159 150 -59 29 -62 29 -247 29 -160 0 -195 -3 -237
-19 -50 -19 -50 -19 -68 2 -10 11 -45 33 -78 48 -76 37 -185 40 -267 9 -66
-25 -188 -27 -273 -4 -33 8 -122 18 -198 21 -116 5 -147 3 -198 -12 -55 -17
-71 -17 -157 -7 -114 14 -278 15 -342 2 -25 -5 -98 -12 -162 -16 l-118 -7 0
24 c0 38 -46 123 -97 179 -88 98 -210 135 -438 134 -106 0 -151 -5 -184 -17
l-45 -17 -40 39 c-23 22 -66 51 -96 65 -46 22 -69 26 -140 25 -47 -1 -105 -5
-130 -9z"/>
<path fill="#ffffff" stroke="none" d="M2031 3858 c25 -28 49 -80 43 -90 -9
-14 -49 -8 -74 12 -22 17 -23 22 -12 39 6 12 12 30 12 41 0 26 7 25 31 -2z"/>
<path fill="#ffffff" stroke="none" d="M4475 3810 c3 -5 2 -10 -4 -10 -5 0
-13 5 -16 10 -3 6 -2 10 4 10 5 0 13 -4 16 -10z"/>
<path fill="#ffffff" stroke="none" d="M6018 3751 c22 -13 -27 -82 -53 -74
-27 8 -27 7 -15 39 16 41 40 53 68 35z"/>
<path fill="#ffffff" stroke="none" d="M5829 3724 l71 -26 0 -54 0 -54 -32 13
c-135 58 -188 82 -188 88 0 4 8 10 19 14 10 3 26 14 36 25 10 11 19 20 21 20
2 0 35 -12 73 -26z"/>
<path fill="#ffffff" stroke="none" d="M2516 3726 c3 -8 23 -27 45 -42 l40
-27 -30 -31 c-32 -34 -61 -92 -62 -128 0 -20 -2 -19 -11 7 -27 78 -88 125
-173 135 l-50 5 70 23 c39 12 88 33 110 46 48 29 54 30 61 12z"/>
<path fill="#ffffff" stroke="none" d="M1340 3671 c14 -27 13 -31 -10 -31 -15
0 -20 7 -20 25 0 30 15 33 30 6z"/>
<path fill="#ffffff" stroke="none" d="M5810 3491 c0 -6 -4 -13 -10 -16 -5 -3
-10 -11 -10 -17 0 -6 8 -4 18 5 27 25 45 22 39 -5 -5 -21 -5 -21 7 -5 16 20
36 23 36 4 0 -23 -34 -49 -48 -35 -8 8 -15 8 -26 -2 -9 -7 -26 -10 -41 -6 -30
8 -34 40 -8 68 17 19 43 24 43 9z"/>
<path fill="#ffffff" stroke="none" d="M4569 3360 c11 0 23 -4 26 -10 3 -5 -1
-10 -10 -10 -23 0 -81 26 -90 40 -4 7 5 5 23 -4 17 -9 40 -16 51 -16z"/>
<path fill="#ffffff" stroke="none" d="M5800 3371 c-15 -28 -29 -34 -46 -21
-19 17 0 40 33 40 20 0 22 -3 13 -19z"/>
<path fill="#ffffff" stroke="none" d="M5420 3258 c0 -7 -5 -29 -10 -50 -8
-28 -14 -35 -30 -31 -10 3 -26 13 -35 23 -15 17 -14 19 17 44 36 28 58 33 58
14z"/>
<path fill="#ffffff" stroke="none" d="M5607 3235 c2 -6 -3 -19 -11 -30 -12
-16 -16 -17 -30 -6 -12 10 -13 18 -5 33 11 20 40 21 46 3z"/>
<path fill="#ffffff" stroke="none" d="M2050 3176 c0 -16 -18 -31 -27 -22 -8
8 5 36 17 36 5 0 10 -6 10 -14z"/>
<path fill="#ffffff" stroke="none" d="M4525 3160 c0 0 -1 -18 -3 -40 -5 -52
2 -80 28 -108 l21 -22 -43 0 c-24 0 -53 -7 -65 -15 l-22 -15 17 32 c18 35 23
127 9 165 -8 21 -6 21 25 12 18 -5 33 -9 33 -9z"/>
<path fill="#ffffff" stroke="none" d="M5320 3065 c0 -6 -11 -21 -25 -33 -18
-16 -25 -32 -25 -57 0 -37 -18 -47 -40 -20 -6 8 -37 21 -68 30 -101 30 -110
55 -20 55 62 0 98 17 98 46 0 7 6 14 13 17 15 6 67 -24 67 -38z"/>
<path fill="#ffffff" stroke="none" d="M5710 2893 c0 -7 4 -13 10 -13 5 0 14
-10 21 -22 10 -18 9 -20 -5 -15 -11 5 -25 -2 -40 -18 -23 -25 -50 -32 -60 -17
-10 17 8 92 27 113 19 21 21 21 34 3 7 -10 13 -24 13 -31z"/>
<path fill="#ffffff" stroke="none" d="M5470 2830 c0 -13 -11 -13 -30 0 -12 8
-11 10 8 10 12 0 22 -4 22 -10z"/>
<path fill="#ffffff" stroke="none" d="M931 2580 c24 0 29 -6 45 -52 9 -29 19
-58 21 -64 2 -6 -9 -11 -26 -12 -16 0 -39 -5 -49 -11 -17 -9 -21 -7 -26 12 -3
12 -6 34 -6 48 0 15 -7 44 -16 64 -13 31 -13 39 -2 46 9 6 16 2 22 -11 6 -13
19 -20 37 -20z"/>
<path fill="#ffffff" stroke="none" d="M600 2500 c0 -5 -2 -10 -4 -10 -3 0 -8
5 -11 10 -3 6 -1 10 4 10 6 0 11 -4 11 -10z"/>
<path fill="#ffffff" stroke="none" d="M567 2431 c3 -10 23 -26 46 -36 68 -28
72 -31 75 -59 3 -26 -20 -38 -33 -16 -3 6 -18 10 -33 10 -31 0 -102 47 -102
67 0 21 19 53 31 53 6 0 13 -8 16 -19z"/>
<path fill="#ffffff" stroke="none" d="M6079 2358 c6 -17 3 -31 -11 -50 -17
-25 -25 -28 -79 -28 -69 0 -75 11 -26 57 52 49 102 58 116 21z"/>
<path fill="#ffffff" stroke="none" d="M538 1780 c22 0 32 -5 32 -15 0 -12
-14 -15 -62 -15 -91 0 -108 7 -108 41 l0 29 53 -20 c28 -11 67 -20 85 -20z"/>
<path fill="#ffffff" stroke="none" d="M1105 1730 c4 -6 11 -7 17 -4 6 4 24 8
40 8 24 1 29 -3 34 -34 3 -19 12 -44 19 -55 6 -11 15 -33 19 -48 6 -26 5 -28
-26 -26 -18 1 -48 -1 -65 -5 -32 -7 -33 -6 -33 23 0 16 -5 42 -10 57 -22 58
-18 122 5 84z"/>
<path fill="#ffffff" stroke="none" d="M491 1501 c0 -124 3 -150 20 -183 l19
-38 -32 0 c-51 1 -68 20 -68 74 0 49 19 63 39 29 15 -26 13 -2 -3 44 -9 26
-11 45 -5 54 5 8 9 43 8 79 -1 36 -1 81 0 100 2 34 3 34 12 10 6 -14 10 -90
10 -169z"/>
<path fill="#ffffff" stroke="none" d="M781 1519 c22 -44 32 -76 30 -93 -2
-10 5 -38 14 -62 27 -71 15 -82 -28 -25 -36 46 -39 56 -43 126 -2 55 0 75 8
73 6 -2 15 -11 19 -19z"/>
<path fill="#ffffff" stroke="none" d="M512 1123 c-4 -29 20 -30 56 -4 30 21
84 18 103 -5 16 -19 -9 -84 -33 -84 -11 0 -18 -7 -18 -20 0 -23 3 -23 -73 -10
-63 10 -90 32 -105 85 -13 44 2 67 41 63 27 -2 31 -7 29 -25z"/>
<path fill="#ffffff" stroke="none" d="M4018 955 c-2 -1 -16 -5 -33 -9 l-30
-6 25 14 c14 8 28 12 33 9 5 -3 7 -6 5 -8z"/>
<path fill="#ffffff" stroke="none" d="M3945 930 c-3 -5 -13 -10 -21 -10 -8 0
-12 5 -9 10 3 6 13 10 21 10 8 0 12 -4 9 -10z"/>
<path fill="#ffffff" stroke="none" d="M3534 795 c-4 -8 -7 -15 -9 -15 -2 0
-5 7 -9 15 -3 9 0 15 9 15 9 0 12 -6 9 -15z"/>
<path fill="#ffffff" stroke="none" d="M1185 769 c-10 -15 -22 -10 -28 11 -4
17 -2 18 14 9 11 -5 17 -14 14 -20z"/>
<path fill="#000000" stroke="none" d="M1807 2705 c-116 -43 -205 -159 -215
-282 -3 -46 0 -71 12 -97 15 -31 20 -35 45 -30 34 7 39 0 47 -60 5 -31 3 -46
-5 -46 -6 0 -11 16 -11 35 0 32 -2 35 -30 35 -29 0 -30 -2 -31 -47 0 -36 -3
-43 -9 -28 -5 11 -9 14 -9 7 -2 -26 49 -110 89 -148 58 -54 88 -84 137 -137
64 -68 120 -91 230 -95 82 -4 97 -1 152 23 71 32 142 103 174 173 16 36 21 66
21 132 0 106 -19 153 -98 239 -33 36 -56 70 -56 83 -1 72 -93 186 -185 229
-51 25 -72 29 -140 28 -44 0 -97 -7 -118 -14z"/>
<path fill="#000000" stroke="none" d="M4932 2636 c-35 -33 -37 -38 -37 -96 0
-58 2 -63 37 -96 33 -30 44 -34 89 -34 97 0 157 79 130 170 -17 57 -64 90
-130 90 -45 0 -56 -4 -89 -34z"/>
<path fill="#000000" stroke="none" d="M5222 2436 c-35 -33 -37 -38 -37 -96 0
-59 2 -63 38 -97 37 -33 41 -35 103 -31 60 3 65 1 71 -19 3 -13 21 -36 39 -53
29 -25 43 -30 89 -30 47 0 58 4 88 33 64 60 60 161 -8 213 -31 23 -42 26 -95
22 -48 -3 -60 -1 -60 10 0 8 -16 30 -36 48 -32 31 -41 34 -95 34 -54 0 -63 -3
-97 -34z"/>
<path fill="#000000" stroke="none" d="M6175 1870 c-54 -14 -132 -58 -158 -89
-18 -21 -35 -31 -54 -31 -16 0 -37 -6 -48 -14 -11 -7 -58 -16 -105 -20 -179
-13 -199 -21 -323 -126 -23 -19 -57 -46 -76 -59 l-34 -24 -18 24 c-10 13 -19
33 -19 45 0 45 -33 115 -64 139 -26 19 -45 25 -86 25 -50 0 -56 -3 -96 -45
-63 -65 -70 -138 -22 -215 35 -56 48 -100 48 -173 0 -99 16 -151 57 -187 25
-22 44 -30 72 -30 38 0 38 0 44 -47 4 -38 12 -54 41 -80 31 -29 43 -33 88 -33
35 0 61 6 76 18 23 18 24 18 62 -20 l38 -38 83 0 c58 1 90 5 103 15 11 8 35
15 53 15 37 0 82 20 102 44 8 9 24 16 37 16 26 0 94 60 94 82 0 9 14 32 30 53
17 21 30 48 30 61 0 28 31 40 62 23 12 -7 64 -14 115 -17 l93 -5 0 302 c0 330
-1 339 -59 380 -31 22 -105 27 -166 11z"/>
<path fill="#000000" stroke="none" d="M5186 749 c-20 -17 -36 -36 -36 -43 0
-6 -27 -40 -60 -75 -71 -77 -73 -83 -74 -289 l-1 -153 37 -35 c34 -31 43 -34
98 -34 48 0 68 -5 100 -26 34 -23 48 -25 107 -23 40 2 77 -2 90 -9 26 -15 119
-16 128 -2 3 6 35 10 70 10 35 0 67 5 70 10 3 6 16 10 28 10 34 1 117 67 133
107 11 24 13 52 9 92 -10 92 -15 110 -41 140 -23 27 -23 29 -7 69 25 65 12
106 -58 174 -57 56 -60 58 -114 58 -33 0 -69 7 -92 19 -30 15 -70 20 -195 25
l-156 7 -36 -32z"/>
</g>
</svg>
