<?xml version="1.0" standalone="no"?>
<!DOCTYPE svg PUBLIC "-//W3C//DTD SVG 20010904//EN"
 "http://www.w3.org/TR/2001/REC-SVG-20010904/DTD/svg10.dtd">
<svg version="1.0" xmlns="http://www.w3.org/2000/svg"
 width="494.000000pt" height="441.000000pt" viewBox="0 0 494.000000 441.000000"
 preserveAspectRatio="xMidYMid meet">
<metadata>
Created by potrace 1.14, written by Peter Selinger 2001-2017
</metadata>
<g transform="translate(0.000000,441.000000) scale(0.100000,-0.100000)"
fill="#000000" stroke="none">
<path fill="#000000" stroke="none" d="M2240 4399 c-36 -5 -159 -11 -275 -13
-257 -6 -305 -16 -364 -80 -18 -19 -35 -26 -61 -26 -50 0 -135 -26 -196 -61
-47 -27 -60 -29 -150 -29 -78 0 -114 -6 -169 -24 l-70 -24 -83 41 c-78 38 -88
41 -191 45 -127 5 -187 -9 -298 -70 -105 -58 -161 -123 -195 -229 -15 -46 -30
-107 -34 -134 l-5 -50 17 27 c28 43 87 59 150 42 48 -13 54 -225 10 -351 -17
-49 -21 -73 -13 -73 7 -1 31 -18 53 -38 33 -30 43 -47 48 -82 17 -111 28 -150
41 -150 8 0 22 -12 31 -26 15 -21 15 -31 6 -58 -17 -45 -16 -48 22 -103 30
-43 36 -63 50 -167 9 -65 16 -145 16 -179 l0 -62 -103 -62 c-56 -34 -123 -70
-149 -80 -42 -15 -50 -23 -68 -68 -11 -27 -45 -79 -74 -114 l-53 -64 15 -58
c8 -33 18 -59 23 -59 5 0 9 3 9 8 0 19 97 115 139 137 25 13 64 42 85 64 26
27 52 43 75 47 47 8 121 44 121 59 0 28 39 48 81 42 23 -3 46 -11 50 -19 12
-18 11 -40 -1 -33 -6 3 -7 -1 -4 -10 8 -19 -35 -83 -74 -112 -26 -19 -78 -38
-95 -35 -4 1 -69 -44 -143 -100 -75 -57 -150 -111 -167 -120 -19 -11 -25 -18
-15 -18 9 0 31 12 49 27 25 21 30 23 21 8 -5 -11 -20 -29 -31 -39 -15 -13 -18
-23 -11 -31 6 -7 20 -39 31 -71 18 -49 21 -79 20 -184 -4 -268 -20 -362 -74
-435 -15 -19 -16 -17 -40 35 -13 30 -21 57 -17 60 4 3 13 47 20 97 13 91 9
199 -8 229 -12 22 -32 -51 -42 -151 -4 -44 -13 -92 -19 -107 -6 -15 -13 -81
-17 -146 -6 -113 -6 -119 21 -182 15 -36 27 -74 26 -85 -1 -11 -3 -59 -6 -106
-2 -49 -11 -104 -20 -125 -46 -109 -57 -233 -31 -335 19 -73 128 -288 163
-321 15 -15 50 -37 76 -48 45 -20 59 -21 190 -15 78 4 162 12 187 17 25 6 83
10 128 9 73 -2 91 1 138 24 116 57 173 200 128 320 -9 23 -17 83 -19 140 -3
100 -25 188 -61 243 -15 22 -14 26 9 60 39 57 49 113 44 231 -4 81 -11 122
-31 174 -39 101 -53 244 -36 366 9 61 14 197 14 376 1 304 2 310 60 364 21 20
26 34 26 70 0 25 14 87 30 137 25 73 38 98 73 130 44 43 98 64 163 64 22 1 60
7 86 13 41 11 54 21 85 67 l38 53 -3 117 c-3 138 4 151 95 195 l58 27 68 -23
c38 -13 73 -32 79 -42 6 -12 13 -15 21 -9 7 5 29 15 50 22 l38 12 -26 20 c-16
13 -25 29 -25 49 0 16 -5 60 -12 98 -11 65 -10 72 8 92 15 17 27 20 61 16 32
-3 43 -1 43 9 0 19 60 48 95 45 63 -4 113 -98 100 -186 -10 -63 7 -99 53 -114
26 -9 45 -9 63 -3 36 14 111 -4 138 -32 14 -15 26 -47 33 -90 10 -57 9 -72 -5
-102 -10 -19 -17 -43 -17 -53 0 -32 63 -73 131 -85 43 -8 57 -21 65 -64 6 -28
8 -30 35 -20 23 8 29 16 29 38 0 23 -4 27 -23 23 -51 -10 -63 35 -73 281 -6
135 2 156 62 156 45 0 62 -29 62 -100 0 -38 -3 -49 -9 -35 -5 13 -7 2 -7 -35
1 -49 1 -51 8 -20 7 32 7 33 9 7 0 -16 6 -48 12 -71 l11 -44 74 32 c73 31 74
31 74 70 0 21 -8 75 -17 120 -16 77 -16 84 1 128 17 43 22 48 69 62 47 14 53
13 88 -5 62 -31 73 -58 79 -183 l5 -110 35 -24 34 -23 12 58 c17 79 17 108 -1
123 -16 13 -21 90 -7 90 14 0 42 -35 42 -54 0 -9 11 -22 25 -28 17 -8 24 -17
20 -27 -4 -9 -9 -41 -11 -71 -3 -30 -12 -62 -20 -71 -17 -19 -11 -39 12 -39
25 0 52 -36 68 -94 9 -31 21 -56 27 -56 6 0 8 7 5 16 -14 37 -18 98 -11 178
l7 84 93 31 c52 17 100 31 108 31 7 0 19 17 25 39 10 31 9 47 -3 81 -8 23 -15
59 -15 79 l0 36 -25 -26 c-21 -21 -27 -38 -32 -97 l-6 -71 -38 20 c-23 11 -39
27 -39 37 1 52 24 110 64 157 24 27 47 64 53 80 6 19 17 31 32 33 20 3 21 1
15 -40 l-7 -43 32 29 c46 44 94 40 142 -11 30 -33 37 -48 43 -101 6 -51 3 -70
-14 -108 -11 -26 -20 -50 -20 -55 0 -19 36 -40 113 -63 97 -30 131 -51 124
-77 -3 -11 -4 -19 -2 -19 2 0 34 21 71 46 l66 47 55 -17 55 -18 45 -95 46 -96
-16 -49 -15 -48 29 0 c27 0 29 3 29 39 l0 38 63 12 c76 15 171 68 161 91 -4 8
-9 61 -12 118 -5 119 -4 121 80 163 l58 29 62 -25 c87 -35 92 -32 84 64 -15
188 -116 340 -277 421 -35 18 -93 60 -129 94 -36 33 -84 69 -107 80 -33 14
-43 26 -49 50 -12 56 -36 90 -130 183 -72 72 -102 94 -136 103 -23 7 -83 30
-132 53 -84 38 -94 41 -180 40 -50 -1 -122 -1 -161 -1 -585 2 -551 3 -602 -19
-110 -47 -136 -52 -193 -37 -29 7 -72 23 -94 34 -69 33 -368 56 -506 39z"/>
<path fill="#ffffff" stroke="none" d="M1704 4268 c12 -17 14 -37 9 -90 -4
-43 -1 -84 7 -112 11 -40 10 -49 -4 -71 -23 -35 -74 -34 -107 1 -22 24 -24 33
-24 139 0 97 3 116 19 134 26 29 80 28 100 -1z"/>
<path fill="#ffffff" stroke="none" d="M2148 4117 c32 -31 44 -36 92 -39 47
-3 56 -6 70 -30 13 -25 13 -31 0 -55 -15 -27 -19 -28 -104 -31 l-88 -3 -38 41
c-20 22 -43 40 -50 40 -23 0 -50 32 -50 58 0 45 28 65 83 59 38 -3 56 -12 85
-40z"/>
<path fill="#ffffff" stroke="none" d="M3836 4048 l27 -12 -5 -107 c-3 -59 -3
-111 1 -117 3 -6 33 -17 65 -26 62 -16 76 -27 76 -62 0 -12 3 -36 6 -53 l6
-31 -92 7 c-99 7 -110 2 -110 -44 0 -18 -6 -23 -25 -23 -31 0 -40 30 -31 105
6 56 -12 119 -41 140 -17 13 -28 74 -25 150 1 38 6 54 23 67 25 21 86 23 125
6z"/>
<path fill="#ffffff" stroke="none" d="M1519 3871 c24 -13 49 -39 72 -75 19
-31 39 -56 45 -56 18 0 84 -91 84 -114 0 -37 -28 -66 -62 -66 -32 0 -68 24
-68 45 0 7 -9 20 -20 30 -11 10 -20 24 -20 32 0 7 -7 13 -16 13 -9 0 -35 19
-59 43 -23 23 -54 50 -69 60 -17 12 -26 27 -26 44 0 61 65 81 139 44z"/>
<path fill="#ffffff" stroke="none" d="M1924 3818 c11 -15 16 -45 16 -88 0
-80 -17 -110 -62 -110 -54 0 -68 23 -68 108 0 88 14 112 66 112 23 0 38 -7 48
-22z"/>
<path fill="#ffffff" stroke="none" d="M2779 3650 c31 -62 34 -64 45 -18 4 19
11 26 21 22 11 -5 15 -23 15 -70 l0 -65 -30 16 c-16 8 -36 15 -45 15 -9 0 -27
11 -40 24 -20 20 -23 29 -15 54 9 34 5 42 -22 42 -11 0 -18 7 -18 20 0 15 7
20 29 20 26 0 33 -7 60 -60z"/>
<path fill="#ffffff" stroke="none" d="M4270 3621 c0 -4 -10 -21 -22 -36 l-22
-28 27 5 c15 3 27 4 27 2 0 -5 -31 -138 -36 -157 -3 -9 -18 -24 -33 -32 -27
-13 -29 -13 -49 14 l-20 28 39 94 c35 85 58 119 81 119 4 0 8 -4 8 -9z"/>
<path fill="#ffffff" stroke="none" d="M2976 3478 c48 -36 59 -40 75 -30 10 7
27 12 38 12 18 0 18 -2 2 -36 -16 -37 -30 -40 -83 -19 -14 5 -18 2 -18 -13 0
-29 -35 -34 -59 -8 -12 12 -21 27 -21 33 0 6 -7 16 -16 24 -14 12 -14 14 1 25
10 7 15 20 12 28 -5 13 0 26 10 26 2 0 29 -19 59 -42z"/>
<path fill="#ffffff" stroke="none" d="M596 3474 c13 -18 18 -54 21 -127 4
-90 2 -106 -16 -134 -17 -27 -27 -33 -54 -33 -57 0 -64 18 -63 161 1 142 8
159 62 159 25 0 38 -7 50 -26z"/>
<path fill="#ffffff" stroke="none" d="M4413 3314 c3 -3 -4 -26 -16 -50 l-21
-44 -83 0 -83 0 0 35 c0 40 -1 40 65 20 l49 -15 24 30 c22 28 50 38 65 24z"/>
<path fill="#ffffff" stroke="none" d="M4134 3233 c-8 -63 -26 -123 -36 -123
-5 0 -18 5 -29 10 -20 11 -20 13 2 102 8 29 15 38 37 41 15 2 28 5 29 6 1 0 0
-16 -3 -36z"/>
<path fill="#ffffff" stroke="none" d="M1451 3104 c36 -18 74 -94 84 -167 10
-65 -11 -97 -62 -97 -51 0 -73 23 -73 77 0 48 -14 83 -32 83 -21 0 -48 33 -48
58 0 57 66 80 131 46z"/>
<path fill="#ffffff" stroke="none" d="M1104 2768 c8 -13 19 -69 26 -126 10
-91 9 -106 -5 -128 -11 -17 -25 -24 -49 -24 -55 0 -68 25 -79 150 -10 100 -9
111 8 130 26 28 80 27 99 -2z"/>
<path fill="#000000" stroke="none" d="M2745 3180 c-3 -6 1 -7 9 -4 18 7 21
14 7 14 -6 0 -13 -4 -16 -10z"/>
<path fill="#000000" stroke="none" d="M3575 3001 c-3 -6 0 -11 8 -11 8 0 30
-3 48 -6 23 -5 31 -3 24 4 -15 15 -72 25 -80 13z"/>
<path fill="#000000" stroke="none" d="M2750 2360 c-8 -5 -29 -10 -46 -10 -43
0 -47 -18 -22 -97 18 -59 20 -83 15 -178 -4 -60 -17 -177 -31 -260 -14 -82
-26 -185 -28 -227 -2 -70 0 -79 22 -104 41 -44 116 -74 186 -74 l61 0 6 143
c4 98 2 174 -8 247 -8 58 -15 138 -15 178 0 58 -5 83 -27 125 -14 29 -42 100
-62 159 -30 89 -39 106 -51 98z"/>
<path fill="#000000" stroke="none" d="M674 2318 l-19 -23 23 19 c21 18 27 26
19 26 -2 0 -12 -10 -23 -22z"/>
<path fill="#000000" stroke="none" d="M625 2223 l-40 -36 40 28 c51 36 49 34
44 39 -2 2 -22 -12 -44 -31z"/>
<path fill="#000000" stroke="none" d="M25 2175 c-57 -119 -12 -268 100 -334
l34 -20 -6 47 c-9 69 -20 92 -43 92 -33 0 -63 72 -56 134 3 28 2 67 -2 86 l-8
34 -19 -39z"/>
<path fill="#000000" stroke="none" d="M3835 1991 l-49 -203 19 -67 c22 -75
23 -126 12 -363 l-8 -168 53 0 c31 0 71 9 96 20 40 18 43 22 38 52 -3 18 -13
106 -21 194 -11 118 -24 191 -47 270 -29 100 -33 125 -38 289 l-5 180 -50
-204z"/>
<path fill="#000000" stroke="none" d="M3111 1779 c0 -85 3 -106 10 -84 9 30
5 182 -5 193 -3 3 -6 -46 -5 -109z"/>
<path fill="#000000" stroke="none" d="M1728 1723 c-79 -165 -93 -219 -123
-463 -15 -118 -35 -241 -46 -274 -10 -32 -16 -63 -13 -68 4 -6 30 -21 58 -34
94 -44 211 -30 294 33 l35 26 -37 19 -36 18 0 304 0 304 -30 118 c-16 64 -33
121 -38 126 -4 4 -33 -45 -64 -109z"/>
</g>
</svg>
