<?xml version="1.0" standalone="no"?>
<!DOCTYPE svg PUBLIC "-//W3C//DTD SVG 20010904//EN"
 "http://www.w3.org/TR/2001/REC-SVG-20010904/DTD/svg10.dtd">
<svg version="1.0" xmlns="http://www.w3.org/2000/svg"
 width="41.000000pt" height="62.000000pt" viewBox="0 0 41.000000 62.000000"
 preserveAspectRatio="xMidYMid meet">
<metadata>
Created by potrace 1.14, written by Peter Selinger 2001-2017
</metadata>
<g transform="translate(0.000000,62.000000) scale(0.100000,-0.100000)"
fill="#000000" stroke="none">
<path fill="#000000" stroke="none" d="M204 610 c-22 -8 -47 -75 -59 -157 -6
-40 -5 -43 17 -43 34 -1 3 -16 -50 -25 -34 -5 -46 -13 -59 -38 -10 -18 -16
-36 -15 -40 1 -5 -7 -20 -19 -35 l-21 -27 36 -3 c19 -2 61 2 92 7 100 19 174
-14 174 -78 0 -20 3 -66 7 -104 5 -56 9 -67 24 -67 15 0 19 8 19 40 0 27 4 40
14 40 7 0 19 7 26 15 10 12 10 18 0 30 -9 11 -11 41 -7 110 4 69 2 95 -6 95
-7 1 -2 9 11 19 35 30 29 51 -14 51 -31 0 -35 2 -24 15 8 10 11 33 8 65 -4 38
-13 60 -42 95 -39 46 -64 55 -112 35z"/>
</g>
</svg>
