<?xml version="1.0" standalone="no"?>
<!DOCTYPE svg PUBLIC "-//W3C//DTD SVG 20010904//EN"
 "http://www.w3.org/TR/2001/REC-SVG-20010904/DTD/svg10.dtd">
<svg version="1.0" xmlns="http://www.w3.org/2000/svg"
 width="42.000000pt" height="52.000000pt" viewBox="0 0 42.000000 52.000000"
 preserveAspectRatio="xMidYMid meet">
<metadata>
Created by potrace 1.14, written by Peter Selinger 2001-2017
</metadata>
<g transform="translate(0.000000,52.000000) scale(0.100000,-0.100000)"
fill="#000000" stroke="none">
<path fill="#000000" stroke="none" d="M228 509 c-10 -5 -30 -31 -45 -56 -15
-25 -48 -70 -73 -100 -26 -29 -55 -74 -65 -101 -10 -26 -24 -54 -31 -63 -12
-13 -8 -24 32 -77 l46 -62 54 0 c35 0 76 -9 116 -25 37 -15 81 -25 111 -25
l49 0 -5 48 c-3 26 -10 92 -16 148 -14 148 -20 171 -47 189 -17 11 -24 25 -24
46 0 64 -55 106 -102 78z"/>
</g>
</svg>
