<?xml version="1.0" standalone="no"?>
<!DOCTYPE svg PUBLIC "-//W3C//DTD SVG 20010904//EN"
 "http://www.w3.org/TR/2001/REC-SVG-20010904/DTD/svg10.dtd">
<svg version="1.0" xmlns="http://www.w3.org/2000/svg"
 width="27.000000pt" height="98.000000pt" viewBox="0 0 27.000000 98.000000"
 preserveAspectRatio="xMidYMid meet">
<metadata>
Created by potrace 1.14, written by Peter Selinger 2001-2017
</metadata>
<g transform="translate(0.000000,98.000000) scale(0.100000,-0.100000)"
fill="#000000" stroke="none">
<path fill="#000000" stroke="none" d="M203 960 c-30 -13 -48 -31 -71 -74 -18
-30 -32 -58 -32 -60 0 -2 19 0 43 6 23 5 52 7 65 5 18 -3 23 1 28 22 3 14 11
45 18 68 16 52 6 59 -51 33z"/>
<path fill="#000000" stroke="none" d="M133 753 c-48 -52 -59 -79 -46 -119 8
-25 10 -25 54 42 91 137 85 124 58 124 -14 0 -39 -17 -66 -47z"/>
<path fill="#000000" stroke="none" d="M131 427 c-18 -6 -37 -20 -42 -31 -13
-32 -59 -275 -59 -312 0 -19 -6 -34 -15 -38 -8 -3 -15 -9 -15 -14 0 -11 49
-34 58 -28 4 2 18 37 32 78 13 40 25 74 26 76 1 2 11 -1 22 -7 18 -9 23 -6 42
23 31 51 36 122 15 200 -10 36 -21 66 -24 65 -3 -1 -21 -6 -40 -12z"/>
</g>
</svg>
