<?xml version="1.0" standalone="no"?>
<!DOCTYPE svg PUBLIC "-//W3C//DTD SVG 20010904//EN"
 "http://www.w3.org/TR/2001/REC-SVG-20010904/DTD/svg10.dtd">
<svg version="1.0" xmlns="http://www.w3.org/2000/svg"
 width="66.000000pt" height="40.000000pt" viewBox="0 0 66.000000 40.000000"
 preserveAspectRatio="xMidYMid meet">
<metadata>
Created by potrace 1.14, written by Peter Selinger 2001-2017
</metadata>
<g transform="translate(0.000000,40.000000) scale(0.100000,-0.100000)"
fill="#000000" stroke="none">
<path fill="#000000" stroke="none" d="M85 385 c-22 -8 -41 -15 -42 -15 -10
-1 -32 -65 -37 -111 -8 -61 10 -125 46 -166 38 -42 175 -56 286 -29 31 8 80
19 107 26 l50 12 46 -51 c53 -60 81 -65 104 -21 21 41 8 59 -75 104 -61 33
-75 36 -145 36 -43 0 -105 -5 -139 -11 -48 -8 -74 -8 -121 3 l-60 15 -3 87
c-2 67 1 94 13 112 8 13 14 24 13 24 -2 -1 -21 -7 -43 -15z"/>
</g>
</svg>
