<?xml version="1.0" standalone="no"?>
<!DOCTYPE svg PUBLIC "-//W3C//DTD SVG 20010904//EN"
 "http://www.w3.org/TR/2001/REC-SVG-20010904/DTD/svg10.dtd">
<svg version="1.0" xmlns="http://www.w3.org/2000/svg"
 width="108.000000pt" height="250.000000pt" viewBox="0 0 108.000000 250.000000"
 preserveAspectRatio="xMidYMid meet">
<metadata>
Created by potrace 1.14, written by Peter Selinger 2001-2017
</metadata>
<g transform="translate(0.000000,250.000000) scale(0.100000,-0.100000)"
fill="#000000" stroke="none">
<path fill="#000000" stroke="none" d="M1020 2491 c-60 -19 -138 -66 -175
-106 -33 -36 -59 -50 -152 -85 -62 -24 -113 -45 -113 -48 0 -3 41 -47 90 -98
101 -104 98 -97 82 -246 l-8 -67 68 -16 c95 -24 100 -33 84 -155 -7 -54 -8
-56 -59 -83 -44 -22 -55 -34 -67 -69 -12 -33 -31 -54 -85 -96 -79 -60 -357
-312 -454 -411 -36 -36 -102 -89 -148 -117 l-83 -51 75 -12 c42 -6 85 -11 95
-11 13 0 32 -20 57 -60 l37 -59 68 -7 68 -7 -47 -88 -46 -88 23 -86 23 -85
-18 -130 c-16 -119 -16 -131 -2 -152 30 -43 47 -62 51 -57 2 2 26 49 54 104
l51 100 97 50 c91 47 111 63 296 244 l198 194 0 196 c0 113 -7 251 -16 326
-13 112 -14 190 -5 565 6 239 13 499 16 578 7 156 9 152 -55 133z"/>
</g>
</svg>
