<?xml version="1.0" standalone="no"?>
<!DOCTYPE svg PUBLIC "-//W3C//DTD SVG 20010904//EN"
 "http://www.w3.org/TR/2001/REC-SVG-20010904/DTD/svg10.dtd">
<svg version="1.0" xmlns="http://www.w3.org/2000/svg"
 width="198.000000pt" height="79.000000pt" viewBox="0 0 198.000000 79.000000"
 preserveAspectRatio="xMidYMid meet">
<metadata>
Created by potrace 1.14, written by Peter Selinger 2001-2017
</metadata>
<g transform="translate(0.000000,79.000000) scale(0.100000,-0.100000)"
fill="#000000" stroke="none">
<path fill="#000000" stroke="none" d="M1695 749 c-8 -47 -14 -50 -139 -76
l-84 -17 5 -31 c6 -40 -44 -122 -135 -219 l-64 -69 5 -48 6 -49 -37 0 c-20 1
-109 7 -197 14 l-160 13 -151 91 c-106 64 -161 92 -183 92 -52 0 -269 88 -349
142 l-74 50 -51 -13 c-74 -17 -87 -25 -87 -59 0 -20 8 -34 28 -48 42 -29 202
-102 226 -102 23 -1 87 -60 301 -279 l140 -144 175 12 c164 12 187 16 361 67
206 60 278 66 426 40 l73 -13 -3 63 c-2 54 1 66 22 88 14 14 20 26 15 26 -6 0
-19 6 -29 14 -19 13 -18 15 8 55 15 22 31 41 36 41 5 0 51 -16 101 -35 50 -19
94 -35 96 -35 2 0 4 13 4 29 0 29 -20 60 -72 117 -25 26 -27 34 -19 57 6 15 8
56 4 94 -6 64 -9 71 -56 120 -45 48 -54 53 -93 53 -42 0 -42 -1 -49 -41z"/>
</g>
</svg>
