<?xml version="1.0" standalone="no"?>
<!DOCTYPE svg PUBLIC "-//W3C//DTD SVG 20010904//EN"
 "http://www.w3.org/TR/2001/REC-SVG-20010904/DTD/svg10.dtd">
<svg version="1.0" xmlns="http://www.w3.org/2000/svg"
 width="26.000000pt" height="83.000000pt" viewBox="0 0 26.000000 83.000000"
 preserveAspectRatio="xMidYMid meet">
<metadata>
Created by potrace 1.14, written by Peter Selinger 2001-2017
</metadata>
<g transform="translate(0.000000,83.000000) scale(0.100000,-0.100000)"
fill="#000000" stroke="none">
<path fill="#000000" stroke="none" d="M51 800 l-45 -28 3 -61 c1 -33 13 -102
27 -152 19 -71 24 -115 24 -207 l0 -117 35 -52 c39 -58 44 -100 20 -147 -8
-15 -15 -30 -15 -33 0 -6 115 5 143 14 17 4 17 6 1 17 -15 11 -15 25 -6 152
11 136 10 143 -24 359 -20 121 -38 235 -40 253 -5 30 -8 32 -42 31 -23 0 -54
-11 -81 -29z"/>
</g>
</svg>
