<?xml version="1.0" standalone="no"?>
<!DOCTYPE svg PUBLIC "-//W3C//DTD SVG 20010904//EN"
 "http://www.w3.org/TR/2001/REC-SVG-20010904/DTD/svg10.dtd">
<svg version="1.0" xmlns="http://www.w3.org/2000/svg"
 width="14.000000pt" height="42.000000pt" viewBox="0 0 14.000000 42.000000"
 preserveAspectRatio="xMidYMid meet">
<metadata>
Created by potrace 1.14, written by Peter Selinger 2001-2017
</metadata>
<g transform="translate(0.000000,42.000000) scale(0.100000,-0.100000)"
fill="#000000" stroke="none">
<path fill="#000000" stroke="none" d="M54 413 c4 -7 0 -23 -8 -35 -12 -17
-16 -50 -16 -143 0 -69 -6 -143 -14 -173 -19 -75 4 -68 28 8 25 79 44 79 36 1
-6 -59 -5 -59 23 -64 33 -4 43 6 21 24 -13 10 -15 24 -9 63 3 28 11 56 16 62
11 14 -6 147 -19 152 -5 1 -7 14 -4 28 4 22 2 25 -19 22 -16 -2 -23 -9 -22
-22 1 -11 -2 -15 -8 -9 -13 13 -1 41 22 48 10 4 19 13 19 22 0 9 -6 13 -14 10
-7 -3 -19 0 -26 6 -10 9 -11 9 -6 0z"/>
</g>
</svg>
