<?xml version="1.0" standalone="no"?>
<!DOCTYPE svg PUBLIC "-//W3C//DTD SVG 20010904//EN"
 "http://www.w3.org/TR/2001/REC-SVG-20010904/DTD/svg10.dtd">
<svg version="1.0" xmlns="http://www.w3.org/2000/svg"
 width="13.000000pt" height="42.000000pt" viewBox="0 0 13.000000 42.000000"
 preserveAspectRatio="xMidYMid meet">
<metadata>
Created by potrace 1.14, written by Peter Selinger 2001-2017
</metadata>
<g transform="translate(0.000000,42.000000) scale(0.100000,-0.100000)"
fill="#000000" stroke="none">
<path fill="#000000" stroke="none" d="M44 403 c-3 -10 -12 -34 -21 -53 -8
-19 -18 -63 -21 -98 -4 -51 -1 -66 13 -82 11 -13 20 -42 23 -77 4 -47 2 -57
-14 -67 -17 -9 -16 -11 11 -16 65 -12 72 -5 74 73 1 39 6 78 12 88 12 23 12
142 -1 155 -5 5 -13 27 -18 49 -6 30 -13 41 -30 43 -14 2 -24 -3 -28 -15z"/>
</g>
</svg>
