<?xml version="1.0" standalone="no"?>
<!DOCTYPE svg PUBLIC "-//W3C//DTD SVG 20010904//EN"
 "http://www.w3.org/TR/2001/REC-SVG-20010904/DTD/svg10.dtd">
<svg version="1.0" xmlns="http://www.w3.org/2000/svg"
 width="79.000000pt" height="189.000000pt" viewBox="0 0 79.000000 189.000000"
 preserveAspectRatio="xMidYMid meet">
<metadata>
Created by potrace 1.14, written by Peter Selinger 2001-2017
</metadata>
<g transform="translate(0.000000,189.000000) scale(0.100000,-0.100000)"
fill="#000000" stroke="none">
<path fill="#000000" stroke="none" d="M209 1861 c-45 -28 -45 -28 -58 -111
-15 -101 -8 -186 26 -303 15 -48 24 -89 22 -90 -13 -10 -147 -57 -161 -57 -9
0 -19 -3 -21 -7 -3 -5 -8 -297 -12 -650 l-7 -643 366 0 c221 0 366 4 366 9 0
6 -7 40 -16 78 -9 37 -16 91 -15 119 1 44 -4 58 -38 105 -23 33 -43 76 -51
109 -11 50 -10 60 6 95 18 37 23 40 64 43 24 2 50 8 56 13 13 10 28 83 44 210
10 81 9 89 -14 140 -17 40 -23 67 -20 104 3 29 -5 93 -18 154 -23 103 -23 104
-58 116 -25 8 -36 18 -38 36 -6 40 -19 49 -55 37 -18 -6 -37 -14 -42 -19 -6
-4 -30 1 -54 12 l-44 19 7 58 c4 37 13 62 25 73 39 32 52 76 53 178 0 54 -2
107 -6 118 -4 11 -29 34 -57 52 -45 28 -58 31 -128 31 -68 0 -83 -3 -122 -29z"/>
</g>
</svg>
