<?xml version="1.0" standalone="no"?>
<!DOCTYPE svg PUBLIC "-//W3C//DTD SVG 20010904//EN"
 "http://www.w3.org/TR/2001/REC-SVG-20010904/DTD/svg10.dtd">
<svg version="1.0" xmlns="http://www.w3.org/2000/svg"
 width="23.000000pt" height="41.000000pt" viewBox="0 0 23.000000 41.000000"
 preserveAspectRatio="xMidYMid meet">
<metadata>
Created by potrace 1.14, written by Peter Selinger 2001-2017
</metadata>
<g transform="translate(0.000000,41.000000) scale(0.100000,-0.100000)"
fill="#000000" stroke="none">
<path fill="#000000" stroke="none" d="M120 381 c-17 -16 -30 -38 -30 -48 0
-22 -33 -78 -66 -114 -23 -24 -25 -32 -22 -120 l3 -94 30 2 c17 1 61 7 98 14
54 9 67 14 63 26 -19 48 -18 64 2 70 26 6 39 42 21 54 -8 5 -24 8 -36 6 -19
-4 -23 0 -23 24 0 15 -3 34 -6 43 -4 10 -1 16 9 16 25 0 70 66 63 92 -9 34
-18 44 -49 52 -23 5 -33 1 -57 -23z"/>
</g>
</svg>
