<?xml version="1.0" standalone="no"?>
<!DOCTYPE svg PUBLIC "-//W3C//DTD SVG 20010904//EN"
 "http://www.w3.org/TR/2001/REC-SVG-20010904/DTD/svg10.dtd">
<svg version="1.0" xmlns="http://www.w3.org/2000/svg"
 width="112.000000pt" height="356.000000pt" viewBox="0 0 112.000000 356.000000"
 preserveAspectRatio="xMidYMid meet">
<metadata>
Created by potrace 1.14, written by Peter Selinger 2001-2017
</metadata>
<g transform="translate(0.000000,356.000000) scale(0.100000,-0.100000)"
fill="#000000" stroke="none">
<path fill="#000000" stroke="none" d="M64 3526 c-25 -39 -25 -35 49 -204 50
-111 92 -246 82 -262 -3 -6 -13 -10 -21 -10 -12 0 -14 -9 -10 -42 4 -24 13
-134 21 -245 8 -111 22 -232 31 -270 9 -37 23 -129 32 -203 l17 -134 -31 -31
c-17 -18 -68 -53 -112 -78 -44 -26 -83 -55 -86 -64 -11 -37 -36 -156 -34 -158
16 -13 74 -35 122 -46 39 -8 86 -30 135 -62 42 -28 95 -58 119 -68 l43 -19 62
42 c65 44 195 160 242 216 l28 33 -22 40 c-27 47 -21 59 27 59 20 0 52 9 70
20 46 28 45 77 -3 144 -19 27 -35 58 -35 68 0 37 50 96 96 114 36 14 51 29 92
93 101 158 143 240 136 267 -8 32 -65 75 -164 123 -41 20 -138 82 -215 139
-212 154 -195 137 -205 217 -8 62 -5 86 24 212 l33 143 -251 0 -251 -1 -21
-33z"/>
<path fill="#000000" stroke="none" d="M255 1448 c-50 -11 -90 -21 -91 -22 0
0 3 -44 7 -96 10 -134 46 -382 61 -416 22 -51 110 -177 170 -244 32 -36 78
-99 100 -140 23 -41 56 -94 74 -118 21 -28 38 -67 48 -111 l16 -68 -30 -54
c-24 -43 -30 -66 -30 -116 l0 -62 53 6 c61 7 130 47 123 72 -3 9 -8 39 -12 66
-3 28 -17 69 -30 92 -22 39 -24 52 -24 186 0 79 7 193 16 253 10 75 13 142 9
214 -3 58 -2 135 3 171 7 61 6 72 -27 162 -32 85 -40 98 -71 112 -19 9 -55 34
-80 54 -39 33 -154 83 -184 80 -6 0 -51 -10 -101 -21z"/>
</g>
</svg>
