<?xml version="1.0" standalone="no"?>
<!DOCTYPE svg PUBLIC "-//W3C//DTD SVG 20010904//EN"
 "http://www.w3.org/TR/2001/REC-SVG-20010904/DTD/svg10.dtd">
<svg version="1.0" xmlns="http://www.w3.org/2000/svg"
 width="16.000000pt" height="52.000000pt" viewBox="0 0 16.000000 52.000000"
 preserveAspectRatio="xMidYMid meet">
<metadata>
Created by potrace 1.14, written by Peter Selinger 2001-2017
</metadata>
<g transform="translate(0.000000,52.000000) scale(0.100000,-0.100000)"
fill="#000000" stroke="none">
<path fill="#000000" stroke="none" d="M80 498 c0 -24 -4 -28 -30 -28 -38 0
-46 -18 -29 -67 16 -46 20 -169 6 -203 -19 -52 -25 -144 -10 -173 7 -15 17
-27 22 -27 5 0 12 12 15 28 4 15 14 53 24 85 14 49 21 59 44 64 23 5 28 10 27
37 0 17 3 63 6 101 6 59 5 73 -9 84 -9 7 -16 26 -16 42 0 15 -11 40 -25 56
l-24 28 -1 -27z"/>
</g>
</svg>
