<?xml version="1.0" standalone="no"?>
<!DOCTYPE svg PUBLIC "-//W3C//DTD SVG 20010904//EN"
 "http://www.w3.org/TR/2001/REC-SVG-20010904/DTD/svg10.dtd">
<svg version="1.0" xmlns="http://www.w3.org/2000/svg"
 width="166.000000pt" height="123.000000pt" viewBox="0 0 166.000000 123.000000"
 preserveAspectRatio="xMidYMid meet">
<metadata>
Created by potrace 1.14, written by Peter Selinger 2001-2017
</metadata>
<g transform="translate(0.000000,123.000000) scale(0.100000,-0.100000)"
fill="#000000" stroke="none">
<path fill="#000000" stroke="none" d="M1378 1197 c-42 -32 -47 -34 -62 -19
-24 25 -132 29 -173 7 -18 -10 -33 -25 -33 -34 1 -51 20 -243 26 -252 4 -6 19
3 38 24 21 23 45 38 70 42 39 8 56 32 56 79 0 13 8 30 18 38 25 23 86 29 110
12 25 -17 46 -76 39 -110 -3 -17 -1 -21 7 -15 6 5 50 21 99 36 85 26 87 27 87
57 0 45 -34 110 -72 138 -25 19 -49 25 -98 28 -62 4 -68 2 -112 -31z"/>
<path fill="#000000" stroke="none" d="M195 1103 c-36 -26 -43 -28 -65 -16
-21 10 -110 19 -110 10 0 -1 5 -18 10 -37 6 -19 26 -107 45 -196 l35 -161 -31
-69 c-32 -70 -71 -176 -67 -179 2 -1 41 1 88 5 l85 7 94 -47 94 -47 -89 -11
c-54 -6 -126 -8 -184 -3 -52 4 -96 7 -97 7 -1 -1 22 -83 50 -184 l52 -182 38
0 c22 0 53 6 70 14 18 8 57 16 87 18 38 3 66 12 88 28 l32 24 0 126 c0 103 3
130 17 150 11 15 21 54 25 100 3 41 13 106 22 145 20 88 20 155 1 202 -8 19
-15 44 -15 55 0 13 -12 24 -38 35 l-38 15 8 61 c14 92 13 107 -11 130 -16 17
-36 22 -88 25 -62 3 -72 1 -108 -25z"/>
</g>
</svg>
