<?xml version="1.0" standalone="no"?>
<!DOCTYPE svg PUBLIC "-//W3C//DTD SVG 20010904//EN"
 "http://www.w3.org/TR/2001/REC-SVG-20010904/DTD/svg10.dtd">
<svg version="1.0" xmlns="http://www.w3.org/2000/svg"
 width="46.000000pt" height="51.000000pt" viewBox="0 0 46.000000 51.000000"
 preserveAspectRatio="xMidYMid meet">
<metadata>
Created by potrace 1.14, written by Peter Selinger 2001-2017
</metadata>
<g transform="translate(0.000000,51.000000) scale(0.100000,-0.100000)"
fill="#000000" stroke="none">
<path fill="#000000" stroke="none" d="M202 503 l-34 -4 4 -82 3 -81 -55 -33
c-30 -18 -61 -36 -68 -40 -9 -6 -51 -193 -52 -234 0 -4 19 -3 41 1 27 5 53 3
73 -5 17 -7 60 -15 96 -18 60 -6 66 -5 81 16 9 13 25 51 34 85 21 75 41 92 97
84 33 -4 40 -2 36 9 -3 8 -11 40 -18 71 l-13 57 -55 12 -54 11 4 79 5 79 -46
-2 c-25 0 -61 -3 -79 -5z"/>
</g>
</svg>
