<?xml version="1.0" standalone="no"?>
<!DOCTYPE svg PUBLIC "-//W3C//DTD SVG 20010904//EN"
 "http://www.w3.org/TR/2001/REC-SVG-20010904/DTD/svg10.dtd">
<svg version="1.0" xmlns="http://www.w3.org/2000/svg"
 width="45.000000pt" height="75.000000pt" viewBox="0 0 45.000000 75.000000"
 preserveAspectRatio="xMidYMid meet">
<metadata>
Created by potrace 1.14, written by Peter Selinger 2001-2017
</metadata>
<g transform="translate(0.000000,75.000000) scale(0.100000,-0.100000)"
fill="#000000" stroke="none">
<path fill="#000000" stroke="none" d="M15 684 c1 -36 6 -69 12 -72 33 -21 32
-279 -1 -441 -27 -128 -26 -155 5 -146 11 3 28 7 38 10 11 4 38 -3 60 -15 49
-24 79 -25 125 -4 39 19 46 39 47 143 l1 66 21 -62 c12 -34 25 -64 28 -68 4
-3 15 7 25 22 15 22 19 52 22 143 3 87 8 119 20 133 13 14 16 45 17 155 0 75
5 152 9 170 l9 32 -220 0 -220 0 2 -66z"/>
</g>
</svg>
