<?xml version="1.0" standalone="no"?>
<!DOCTYPE svg PUBLIC "-//W3C//DTD SVG 20010904//EN"
 "http://www.w3.org/TR/2001/REC-SVG-20010904/DTD/svg10.dtd">
<svg version="1.0" xmlns="http://www.w3.org/2000/svg"
 width="212.000000pt" height="341.000000pt" viewBox="0 0 212.000000 341.000000"
 preserveAspectRatio="xMidYMid meet">
<metadata>
Created by potrace 1.14, written by Peter Selinger 2001-2017
</metadata>
<g transform="translate(0.000000,341.000000) scale(0.100000,-0.100000)"
fill="#000000" stroke="none">
<path fill="#000000" stroke="none" d="M1010 3354 c-74 -31 -142 -63 -151 -72
-54 -55 -328 -475 -424 -650 l-110 -201 -65 -28 c-36 -15 -72 -35 -80 -44 -8
-9 -44 -38 -80 -65 -36 -27 -73 -58 -82 -69 -16 -19 -17 -95 -18 -1122 l0
-1103 273 0 c149 0 370 3 489 7 l216 6 -20 51 c-74 183 -94 293 -76 414 10 63
14 72 32 72 12 0 86 -5 166 -11 l146 -12 46 36 c26 19 78 49 115 67 37 18 69
33 71 35 2 2 -4 27 -12 56 -9 29 -16 57 -16 62 0 9 76 2 108 -10 12 -5 14 1 7
42 -5 39 -18 61 -60 111 l-53 63 125 268 c69 147 128 271 132 274 3 3 101 -49
216 -116 116 -68 211 -122 212 -121 1 1 -16 89 -38 196 -51 254 -111 413 -175
465 -37 30 -43 42 -52 92 -6 35 -6 65 -1 75 5 9 9 31 9 48 0 23 4 31 14 27 19
-7 36 35 36 88 0 41 2 45 25 45 14 0 25 1 25 3 0 2 -5 30 -11 62 -10 55 -9 60
12 75 20 16 21 20 10 51 -11 32 -10 36 14 55 l27 21 -60 139 c-44 105 -69 183
-101 318 -23 98 -43 182 -46 186 -2 4 -35 32 -72 62 l-68 55 -215 22 c-118 12
-235 24 -260 27 -38 3 -66 -5 -180 -52z"/>
</g>
</svg>
