<?xml version="1.0" standalone="no"?>
<!DOCTYPE svg PUBLIC "-//W3C//DTD SVG 20010904//EN"
 "http://www.w3.org/TR/2001/REC-SVG-20010904/DTD/svg10.dtd">
<svg version="1.0" xmlns="http://www.w3.org/2000/svg"
 width="19.000000pt" height="62.000000pt" viewBox="0 0 19.000000 62.000000"
 preserveAspectRatio="xMidYMid meet">
<metadata>
Created by potrace 1.14, written by Peter Selinger 2001-2017
</metadata>
<g transform="translate(0.000000,62.000000) scale(0.100000,-0.100000)"
fill="#000000" stroke="none">
<path fill="#000000" stroke="none" d="M61 613 c-22 -4 -23 -8 -18 -59 5 -44
2 -62 -14 -89 -18 -29 -21 -55 -23 -178 -3 -123 0 -149 15 -178 l18 -34 1 32
c0 18 5 55 11 84 l11 51 19 -28 c13 -21 19 -47 19 -90 0 -72 9 -124 21 -124 5
0 9 26 9 58 0 31 7 80 16 107 8 28 15 80 15 117 0 51 4 68 16 72 25 10 12 104
-17 128 -19 15 -21 22 -13 41 8 17 6 31 -8 60 -19 37 -26 40 -78 30z"/>
</g>
</svg>
