<?xml version="1.0" standalone="no"?>
<!DOCTYPE svg PUBLIC "-//W3C//DTD SVG 20010904//EN"
 "http://www.w3.org/TR/2001/REC-SVG-20010904/DTD/svg10.dtd">
<svg version="1.0" xmlns="http://www.w3.org/2000/svg"
 width="44.000000pt" height="47.000000pt" viewBox="0 0 44.000000 47.000000"
 preserveAspectRatio="xMidYMid meet">
<metadata>
Created by potrace 1.14, written by Peter Selinger 2001-2017
</metadata>
<g transform="translate(0.000000,47.000000) scale(0.100000,-0.100000)"
fill="#000000" stroke="none">
<path fill="#000000" stroke="none" d="M118 448 c-8 -13 -17 -42 -21 -66 -4
-35 -14 -51 -53 -87 -28 -27 -44 -48 -38 -53 5 -5 79 -53 164 -107 85 -54 165
-107 176 -117 26 -23 69 -16 86 15 17 33 3 132 -29 195 -23 46 -37 61 -73 79
-25 12 -55 22 -67 23 -19 0 -23 6 -23 30 0 16 -7 48 -16 70 -15 37 -19 40 -54
40 -28 0 -41 -6 -52 -22z"/>
</g>
</svg>
