<?xml version="1.0" standalone="no"?>
<!DOCTYPE svg PUBLIC "-//W3C//DTD SVG 20010904//EN"
 "http://www.w3.org/TR/2001/REC-SVG-20010904/DTD/svg10.dtd">
<svg version="1.0" xmlns="http://www.w3.org/2000/svg"
 width="5.000000pt" height="15.000000pt" viewBox="0 0 5.000000 15.000000"
 preserveAspectRatio="xMidYMid meet">
<metadata>
Created by potrace 1.14, written by Peter Selinger 2001-2017
</metadata>
<g transform="translate(0.000000,15.000000) scale(0.100000,-0.100000)"
fill="#000000" stroke="none">
<path fill="#000000" stroke="none" d="M0 138 c0 -7 4 -29 9 -49 5 -21 5 -43
0 -50 -9 -16 7 -39 28 -39 12 0 13 3 5 13 -7 8 -8 26 -2 50 4 22 4 39 -1 43
-5 3 -8 13 -7 22 2 9 -5 18 -14 20 -10 2 -18 -2 -18 -10z"/>
</g>
</svg>
