<?xml version="1.0" standalone="no"?>
<!DOCTYPE svg PUBLIC "-//W3C//DTD SVG 20010904//EN"
 "http://www.w3.org/TR/2001/REC-SVG-20010904/DTD/svg10.dtd">
<svg version="1.0" xmlns="http://www.w3.org/2000/svg"
 width="16.000000pt" height="47.000000pt" viewBox="0 0 16.000000 47.000000"
 preserveAspectRatio="xMidYMid meet">
<metadata>
Created by potrace 1.14, written by Peter Selinger 2001-2017
</metadata>
<g transform="translate(0.000000,47.000000) scale(0.100000,-0.100000)"
fill="#000000" stroke="none">
<path fill="#000000" stroke="none" d="M51 407 c-6 -35 -11 -76 -11 -91 0 -15
-9 -44 -19 -65 -11 -21 -16 -43 -12 -50 6 -9 10 -6 15 11 7 22 8 21 20 -12 7
-19 16 -61 20 -93 6 -48 5 -62 -10 -78 -15 -16 -15 -19 -2 -19 9 0 29 -3 45
-6 20 -4 35 -1 45 10 14 14 14 20 1 57 -16 48 -16 56 -7 199 6 103 6 107 -20
144 -14 21 -26 43 -26 47 0 5 -6 9 -14 9 -9 0 -18 -21 -25 -63z"/>
</g>
</svg>
