<?xml version="1.0" standalone="no"?>
<!DOCTYPE svg PUBLIC "-//W3C//DTD SVG 20010904//EN"
 "http://www.w3.org/TR/2001/REC-SVG-20010904/DTD/svg10.dtd">
<svg version="1.0" xmlns="http://www.w3.org/2000/svg"
 width="9.000000pt" height="27.000000pt" viewBox="0 0 9.000000 27.000000"
 preserveAspectRatio="xMidYMid meet">
<metadata>
Created by potrace 1.14, written by Peter Selinger 2001-2017
</metadata>
<g transform="translate(0.000000,27.000000) scale(0.100000,-0.100000)"
fill="#000000" stroke="none">
<path fill="#000000" stroke="none" d="M50 245 c0 -14 -4 -25 -10 -25 -18 0
-43 -49 -34 -67 4 -10 8 -27 10 -38 1 -11 7 -36 14 -55 7 -19 14 -41 16 -47 2
-7 10 -10 17 -7 18 6 27 70 27 180 0 77 -2 84 -20 84 -15 0 -20 -7 -20 -25z"/>
</g>
</svg>
