<?xml version="1.0" standalone="no"?>
<!DOCTYPE svg PUBLIC "-//W3C//DTD SVG 20010904//EN"
 "http://www.w3.org/TR/2001/REC-SVG-20010904/DTD/svg10.dtd">
<svg version="1.0" xmlns="http://www.w3.org/2000/svg"
 width="17.000000pt" height="35.000000pt" viewBox="0 0 17.000000 35.000000"
 preserveAspectRatio="xMidYMid meet">
<metadata>
Created by potrace 1.14, written by Peter Selinger 2001-2017
</metadata>
<g transform="translate(0.000000,35.000000) scale(0.100000,-0.100000)"
fill="#000000" stroke="none">
<path fill="#000000" stroke="none" d="M84 335 c-4 -11 -15 -31 -23 -44 -9
-14 -16 -38 -17 -55 -1 -60 -26 -201 -37 -214 -9 -11 -6 -13 13 -10 21 2 26
11 35 55 15 78 29 78 20 0 -5 -56 -4 -67 8 -67 15 0 17 8 33 154 4 33 10 53
14 46 6 -9 13 -3 24 19 16 30 16 33 -4 61 -12 17 -25 30 -29 30 -4 0 -13 10
-18 23 -11 21 -11 21 -19 2z"/>
</g>
</svg>
