<?xml version="1.0" standalone="no"?>
<!DOCTYPE svg PUBLIC "-//W3C//DTD SVG 20010904//EN"
 "http://www.w3.org/TR/2001/REC-SVG-20010904/DTD/svg10.dtd">
<svg version="1.0" xmlns="http://www.w3.org/2000/svg"
 width="246.000000pt" height="330.000000pt" viewBox="0 0 246.000000 330.000000"
 preserveAspectRatio="xMidYMid meet">
<metadata>
Created by potrace 1.14, written by Peter Selinger 2001-2017
</metadata>
<g transform="translate(0.000000,330.000000) scale(0.100000,-0.100000)"
fill="#000000" stroke="none">
<path fill="#000000" stroke="none" d="M1299 3261 c-174 -62 -202 -82 -254
-174 -43 -76 -45 -83 -45 -161 0 -136 22 -250 95 -503 l18 -63 43 0 c40 0 43
-2 55 -37 6 -20 8 -38 3 -40 -5 -2 -75 -40 -156 -86 -140 -79 -151 -87 -228
-177 -45 -52 -86 -105 -91 -118 -5 -13 -9 -53 -9 -89 0 -60 -27 -243 -50 -333
-16 -67 -90 -262 -104 -276 -8 -8 -17 -23 -21 -33 -7 -24 -172 -131 -242 -157
-38 -14 -60 -31 -82 -60 -17 -25 -65 -64 -119 -98 -58 -37 -92 -65 -95 -79
-11 -43 -19 -137 -13 -137 4 0 38 16 76 35 38 19 73 35 77 35 8 0 76 -113 76
-125 -1 -4 -25 -37 -54 -73 -58 -73 -51 -70 61 28 41 37 91 77 110 90 19 13
51 38 70 55 28 24 52 34 110 44 86 15 224 69 286 112 40 27 46 37 72 122 17
50 35 124 41 162 7 39 28 123 47 187 21 72 34 140 34 175 l1 58 35 -85 c19
-47 41 -116 49 -155 20 -103 43 -330 50 -495 l6 -145 -40 -126 c-52 -162 -52
-200 -2 -389 l38 -145 149 2 c82 2 357 6 612 9 254 4 462 9 462 13 0 3 9 58
20 121 23 131 20 275 -7 395 -13 57 -24 77 -62 118 l-45 48 56 52 57 52 36
171 c32 154 35 180 29 265 -3 52 -12 106 -19 121 -8 16 -9 30 -3 36 11 11 -5
196 -28 333 l-17 97 32 55 32 56 -20 38 c-10 21 -49 74 -86 118 -74 90 -105
109 -281 175 -119 45 -153 70 -190 142 -13 26 -40 59 -59 74 -42 31 -43 49
-10 98 24 36 26 47 32 211 8 226 -2 282 -61 327 -23 18 -70 55 -106 83 -60 48
-72 53 -156 69 -51 9 -96 16 -100 15 -5 0 -56 -18 -115 -38z"/>
<path fill="#ffffff" stroke="none" d="M1464 1152 c2 -4 16 -38 30 -75 l25
-68 -45 -29 c-40 -25 -52 -28 -98 -23 -28 3 -57 9 -64 13 -7 3 -30 35 -51 69
-27 45 -36 71 -33 92 l4 29 114 0 c62 0 115 -4 118 -8z"/>
</g>
</svg>
