<?xml version="1.0" standalone="no"?>
<!DOCTYPE svg PUBLIC "-//W3C//DTD SVG 20010904//EN"
 "http://www.w3.org/TR/2001/REC-SVG-20010904/DTD/svg10.dtd">
<svg version="1.0" xmlns="http://www.w3.org/2000/svg"
 width="91.000000pt" height="169.000000pt" viewBox="0 0 91.000000 169.000000"
 preserveAspectRatio="xMidYMid meet">
<metadata>
Created by potrace 1.14, written by Peter Selinger 2001-2017
</metadata>
<g transform="translate(0.000000,169.000000) scale(0.100000,-0.100000)"
fill="#000000" stroke="none">
<path fill="#000000" stroke="none" d="M290 1681 c-25 -4 -86 -28 -136 -53
-89 -46 -90 -47 -120 -112 l-31 -65 13 -83 c7 -49 25 -112 44 -153 17 -38 59
-137 92 -220 40 -96 70 -157 86 -171 l25 -21 -16 -82 c-16 -80 -16 -87 5 -204
16 -97 28 -134 54 -177 18 -30 41 -79 51 -109 15 -45 33 -67 114 -142 98 -90
119 -103 119 -71 0 9 25 147 56 307 l56 290 84 112 c46 62 84 115 84 118 0 3
-36 22 -80 43 l-80 37 100 65 c109 71 112 77 81 144 -47 100 -61 141 -61 175
0 31 -8 45 -55 91 -31 30 -85 100 -120 155 l-64 100 -84 18 c-87 17 -139 19
-217 8z"/>
</g>
</svg>
