<?xml version="1.0" standalone="no"?>
<!DOCTYPE svg PUBLIC "-//W3C//DTD SVG 20010904//EN"
 "http://www.w3.org/TR/2001/REC-SVG-20010904/DTD/svg10.dtd">
<svg version="1.0" xmlns="http://www.w3.org/2000/svg"
 width="124.000000pt" height="282.000000pt" viewBox="0 0 124.000000 282.000000"
 preserveAspectRatio="xMidYMid meet">
<metadata>
Created by potrace 1.14, written by Peter Selinger 2001-2017
</metadata>
<g transform="translate(0.000000,282.000000) scale(0.100000,-0.100000)"
fill="#000000" stroke="none">
<path fill="#000000" stroke="none" d="M1139 2785 c-7 -19 -19 -35 -26 -35
-56 0 -102 -82 -126 -227 -25 -148 -7 -169 130 -157 l72 7 15 39 c9 21 16 48
16 61 0 18 2 19 10 7 6 -10 9 43 9 155 -1 118 -4 172 -12 177 -7 4 -26 8 -44
8 -27 0 -33 -5 -44 -35z"/>
<path fill="#000000" stroke="none" d="M895 1963 c-106 -53 -157 -98 -195
-173 -15 -30 -60 -95 -100 -145 -40 -49 -94 -133 -120 -185 l-48 -95 -121 -74
-121 -74 -25 -81 c-13 -45 -27 -94 -31 -111 -4 -16 -36 -87 -71 -158 -48 -96
-61 -132 -54 -145 5 -9 48 -55 95 -101 l87 -84 20 -161 20 -161 39 -39 c33
-33 54 -43 152 -72 62 -18 147 -48 188 -67 l74 -34 39 54 c21 30 102 150 181
266 79 117 168 247 197 290 l53 78 -42 172 c-23 95 -62 270 -86 389 l-43 216
129 129 c70 70 128 131 128 134 0 8 -239 273 -249 276 -3 1 -46 -19 -96 -44z"/>
</g>
</svg>
