<?xml version="1.0" standalone="no"?>
<!DOCTYPE svg PUBLIC "-//W3C//DTD SVG 20010904//EN"
 "http://www.w3.org/TR/2001/REC-SVG-20010904/DTD/svg10.dtd">
<svg version="1.0" xmlns="http://www.w3.org/2000/svg"
 width="35.000000pt" height="58.000000pt" viewBox="0 0 35.000000 58.000000"
 preserveAspectRatio="xMidYMid meet">
<metadata>
Created by potrace 1.14, written by Peter Selinger 2001-2017
</metadata>
<g transform="translate(0.000000,58.000000) scale(0.100000,-0.100000)"
fill="#000000" stroke="none">
<path fill="#000000" stroke="none" d="M121 549 c-6 -18 -11 -58 -11 -90 0
-41 -4 -60 -15 -66 -11 -6 -18 -36 -24 -98 -6 -63 -18 -112 -40 -164 -26 -62
-41 -131 -27 -131 25 0 66 27 74 48 5 15 38 91 72 168 l63 142 68 28 c38 15
69 32 69 37 0 6 -12 43 -27 84 l-28 73 -81 0 -82 0 -11 -31z"/>
</g>
</svg>
