<?xml version="1.0" standalone="no"?>
<!DOCTYPE svg PUBLIC "-//W3C//DTD SVG 20010904//EN"
 "http://www.w3.org/TR/2001/REC-SVG-20010904/DTD/svg10.dtd">
<svg version="1.0" xmlns="http://www.w3.org/2000/svg"
 width="56.000000pt" height="19.000000pt" viewBox="0 0 56.000000 19.000000"
 preserveAspectRatio="xMidYMid meet">
<metadata>
Created by potrace 1.14, written by Peter Selinger 2001-2017
</metadata>
<g transform="translate(0.000000,19.000000) scale(0.100000,-0.100000)"
fill="#000000" stroke="none">
<path fill="#000000" stroke="none" d="M0 123 c0 -59 3 -70 27 -95 36 -38 73
-38 73 0 0 15 3 57 7 95 l6 67 -57 0 -56 0 0 -67z"/>
<path fill="#000000" stroke="none" d="M451 153 c23 -99 22 -98 67 -101 41 -3
42 -3 42 30 0 18 -3 50 -6 71 l-7 37 -52 0 -53 0 9 -37z"/>
</g>
</svg>
