<?xml version="1.0" standalone="no"?>
<!DOCTYPE svg PUBLIC "-//W3C//DTD SVG 20010904//EN"
 "http://www.w3.org/TR/2001/REC-SVG-20010904/DTD/svg10.dtd">
<svg version="1.0" xmlns="http://www.w3.org/2000/svg"
 width="28.000000pt" height="30.000000pt" viewBox="0 0 28.000000 30.000000"
 preserveAspectRatio="xMidYMid meet">
<metadata>
Created by potrace 1.14, written by Peter Selinger 2001-2017
</metadata>
<g transform="translate(0.000000,30.000000) scale(0.100000,-0.100000)"
fill="#000000" stroke="none">
<path fill="#000000" stroke="none" d="M120 281 c-14 -28 -13 -39 10 -69 l21
-26 -38 -38 c-27 -28 -43 -36 -58 -32 -11 3 -28 8 -37 10 -11 3 -18 0 -18 -8
0 -17 97 -71 112 -62 7 5 9 0 6 -14 -7 -24 0 -28 74 -37 l56 -7 7 40 c3 22 2
74 -4 117 -10 72 -10 79 10 103 l21 27 -39 7 c-72 13 -112 9 -123 -11z"/>
</g>
</svg>
