<?xml version="1.0" standalone="no"?>
<!DOCTYPE svg PUBLIC "-//W3C//DTD SVG 20010904//EN"
 "http://www.w3.org/TR/2001/REC-SVG-20010904/DTD/svg10.dtd">
<svg version="1.0" xmlns="http://www.w3.org/2000/svg"
 width="366.000000pt" height="427.000000pt" viewBox="0 0 366.000000 427.000000"
 preserveAspectRatio="xMidYMid meet">
<metadata>
Created by potrace 1.14, written by Peter Selinger 2001-2017
</metadata>
<g transform="translate(0.000000,427.000000) scale(0.100000,-0.100000)"
fill="#000000" stroke="none">
<path fill="#000000" stroke="none" d="M1007 4181 c-21 -50 -37 -95 -37 -99 0
-4 23 -34 51 -65 l51 -57 -29 -95 c-27 -92 -31 -98 -98 -164 l-70 -69 -210
-26 c-115 -15 -211 -29 -213 -31 -2 -2 -42 -158 -88 -347 -79 -318 -86 -356
-99 -518 -30 -385 -86 -802 -171 -1285 -46 -264 -87 -492 -90 -507 -5 -25 0
-29 70 -62 41 -20 126 -50 188 -66 62 -17 120 -33 128 -35 10 -3 23 7 34 25
l17 31 -50 58 c-28 32 -51 67 -51 76 0 10 31 153 70 319 75 324 239 871 252
839 3 -10 37 -247 73 -528 l67 -510 -5 -522 -5 -521 141 -6 c78 -3 548 -8
1044 -11 l902 -5 21 47 c20 46 21 53 10 268 l-11 220 -56 190 c-54 182 -60
196 -143 335 -77 127 -94 166 -144 316 l-57 171 -169 222 c-153 201 -170 226
-180 279 -14 69 -13 40 -11 266 l1 188 196 -273 c108 -151 197 -275 199 -276
1 -2 244 -55 541 -118 296 -64 548 -118 559 -121 21 -5 21 -4 8 163 -7 92 -14
176 -15 187 -3 15 -11 12 -55 -24 l-53 -42 -473 38 -473 38 -59 295 c-84 426
-121 611 -147 735 l-23 109 -65 30 c-36 16 -148 70 -250 119 -172 84 -184 91
-164 104 18 13 19 20 13 81 -16 139 -18 132 71 206 43 37 88 67 100 67 11 0
73 -12 136 -26 l115 -26 115 28 c96 24 114 31 114 47 0 17 -36 226 -61 353
l-10 51 -412 7 c-227 3 -545 9 -708 12 l-296 7 -36 -92z"/>
</g>
</svg>
