<?xml version="1.0" standalone="no"?>
<!DOCTYPE svg PUBLIC "-//W3C//DTD SVG 20010904//EN"
 "http://www.w3.org/TR/2001/REC-SVG-20010904/DTD/svg10.dtd">
<svg version="1.0" xmlns="http://www.w3.org/2000/svg"
 width="130.000000pt" height="269.000000pt" viewBox="0 0 130.000000 269.000000"
 preserveAspectRatio="xMidYMid meet">
<metadata>
Created by potrace 1.14, written by Peter Selinger 2001-2017
</metadata>
<g transform="translate(0.000000,269.000000) scale(0.100000,-0.100000)"
fill="#000000" stroke="none">
<path fill="#000000" stroke="none" d="M255 2683 c-16 -1 -54 -6 -83 -9 -49
-5 -55 -9 -91 -57 -71 -97 -69 -89 -29 -150 49 -73 88 -152 142 -286 l45 -113
-28 -38 c-53 -73 -51 -122 15 -330 19 -59 18 -84 -4 -103 -31 -28 -98 4 -163
78 l-33 38 -13 -29 c-12 -30 -18 -190 -7 -218 3 -9 12 -16 19 -16 7 0 18 -7
25 -15 6 -8 37 -26 68 -40 53 -25 63 -26 149 -19 74 5 93 4 96 -7 2 -8 10 -30
17 -49 21 -57 24 -109 7 -128 -25 -29 -35 -56 -52 -141 -17 -80 -16 -86 1
-137 l18 -53 -27 -68 c-14 -37 -29 -93 -33 -123 -3 -30 -15 -97 -25 -149 -30
-147 -26 -271 13 -407 l32 -111 125 5 c69 2 128 6 129 7 2 2 0 11 -5 20 -6 10
0 73 15 173 l24 157 86 119 85 119 24 -53 c13 -29 44 -111 69 -182 40 -109 52
-134 85 -161 l37 -33 -19 -24 c-25 -34 -23 -79 6 -114 l24 -30 150 -4 151 -4
-6 33 c-3 19 -21 84 -39 144 -19 61 -38 136 -44 167 -5 31 -26 88 -45 127 -20
38 -38 89 -41 113 -12 87 -14 91 -40 85 l-25 -4 0 216 c0 183 2 220 16 240 14
20 15 34 4 119 -10 79 -20 112 -55 182 l-42 85 -13 192 c-7 105 -10 202 -7
214 7 27 -9 68 -57 138 -20 29 -36 58 -36 65 0 15 -80 76 -135 104 -22 11 -72
30 -111 41 l-71 22 18 82 18 82 -52 83 c-52 83 -52 83 -139 123 -49 21 -94 38
-100 38 -7 -1 -26 -4 -43 -6z"/>
</g>
</svg>
