<?xml version="1.0" standalone="no"?>
<!DOCTYPE svg PUBLIC "-//W3C//DTD SVG 20010904//EN"
 "http://www.w3.org/TR/2001/REC-SVG-20010904/DTD/svg10.dtd">
<svg version="1.0" xmlns="http://www.w3.org/2000/svg"
 width="77.000000pt" height="254.000000pt" viewBox="0 0 77.000000 254.000000"
 preserveAspectRatio="xMidYMid meet">
<metadata>
Created by potrace 1.14, written by Peter Selinger 2001-2017
</metadata>
<g transform="translate(0.000000,254.000000) scale(0.100000,-0.100000)"
fill="#000000" stroke="none">
<path fill="#000000" stroke="none" d="M348 2534 c-22 -7 -48 -75 -58 -152 -5
-38 -16 -72 -27 -84 -10 -12 -13 -23 -8 -25 21 -8 33 -20 59 -60 23 -38 26
-52 25 -125 0 -70 -5 -93 -29 -143 -25 -53 -29 -57 -29 -31 -1 17 -12 66 -25
110 -13 45 -30 114 -36 153 l-12 73 -62 -53 c-58 -48 -61 -53 -42 -61 12 -6
23 -11 25 -12 2 -2 -18 -30 -44 -63 -25 -34 -44 -65 -41 -69 3 -4 0 -26 -5
-48 -5 -21 -16 -97 -24 -168 l-15 -129 32 -54 c18 -29 35 -53 38 -53 3 0 13
-7 24 -15 17 -13 17 -16 1 -66 -17 -50 -17 -57 5 -213 22 -153 26 -168 86
-304 l62 -142 -55 -182 c-30 -100 -58 -213 -62 -252 -5 -39 -17 -89 -28 -111
-11 -22 -23 -59 -26 -82 -4 -34 -1 -45 17 -61 34 -32 267 -99 367 -106 118 -8
145 2 153 58 6 38 11 44 39 53 41 11 48 45 15 73 -13 10 -44 37 -70 58 -26 22
-60 55 -77 74 -30 35 -30 35 -19 104 5 38 21 90 34 116 28 56 31 131 9 223 -8
33 -14 99 -15 147 0 71 4 93 21 122 12 20 27 55 34 78 12 42 11 56 -9 250 l-5
47 77 -28 c88 -32 122 -27 122 17 0 27 -75 162 -89 162 -18 0 -32 -30 -26 -52
7 -21 5 -21 -24 6 -22 22 -31 39 -31 62 0 18 -5 45 -12 59 -9 20 -9 46 0 114
11 82 10 92 -13 172 -13 46 -25 89 -25 96 0 7 14 28 30 46 17 19 30 38 30 43
0 5 -19 28 -42 51 l-42 43 27 55 c23 47 27 69 27 138 l0 82 -45 29 c-35 22
-60 29 -108 32 -34 1 -69 1 -79 -2z"/>
</g>
</svg>
