<?xml version="1.0" standalone="no"?>
<!DOCTYPE svg PUBLIC "-//W3C//DTD SVG 20010904//EN"
 "http://www.w3.org/TR/2001/REC-SVG-20010904/DTD/svg10.dtd">
<svg version="1.0" xmlns="http://www.w3.org/2000/svg"
 width="15.000000pt" height="18.000000pt" viewBox="0 0 15.000000 18.000000"
 preserveAspectRatio="xMidYMid meet">
<metadata>
Created by potrace 1.14, written by Peter Selinger 2001-2017
</metadata>
<g transform="translate(0.000000,18.000000) scale(0.100000,-0.100000)"
fill="#000000" stroke="none">
<path fill="#000000" stroke="none" d="M32 168 c-15 -15 -16 -50 -1 -65 8 -8
5 -13 -10 -18 -18 -5 -32 -45 -16 -45 3 0 37 -9 75 -19 l70 -20 0 31 c0 20 -9
39 -30 58 -17 15 -30 37 -30 47 0 21 -18 43 -35 43 -6 0 -16 -5 -23 -12z"/>
</g>
</svg>
