<?xml version="1.0" standalone="no"?>
<!DOCTYPE svg PUBLIC "-//W3C//DTD SVG 20010904//EN"
 "http://www.w3.org/TR/2001/REC-SVG-20010904/DTD/svg10.dtd">
<svg version="1.0" xmlns="http://www.w3.org/2000/svg"
 width="39.000000pt" height="81.000000pt" viewBox="0 0 39.000000 81.000000"
 preserveAspectRatio="xMidYMid meet">
<metadata>
Created by potrace 1.14, written by Peter Selinger 2001-2017
</metadata>
<g transform="translate(0.000000,81.000000) scale(0.100000,-0.100000)"
fill="#000000" stroke="none">
<path fill="#000000" stroke="none" d="M176 759 c-4 -30 -22 -115 -41 -189
-24 -97 -37 -177 -45 -285 l-12 -150 -34 -36 c-40 -41 -50 -91 -21 -97 50 -10
137 50 137 95 0 52 150 543 190 623 22 44 40 82 40 85 0 5 -45 -2 -120 -21
-52 -13 -56 -13 -71 8 -16 20 -16 19 -23 -33z"/>
</g>
</svg>
