<?xml version="1.0" standalone="no"?>
<!DOCTYPE svg PUBLIC "-//W3C//DTD SVG 20010904//EN"
 "http://www.w3.org/TR/2001/REC-SVG-20010904/DTD/svg10.dtd">
<svg version="1.0" xmlns="http://www.w3.org/2000/svg"
 width="27.000000pt" height="52.000000pt" viewBox="0 0 27.000000 52.000000"
 preserveAspectRatio="xMidYMid meet">
<metadata>
Created by potrace 1.14, written by Peter Selinger 2001-2017
</metadata>
<g transform="translate(0.000000,52.000000) scale(0.100000,-0.100000)"
fill="#000000" stroke="none">
<path fill="#000000" stroke="none" d="M86 466 c-13 -29 -29 -57 -35 -60 -6
-4 -11 -19 -11 -33 0 -14 -9 -41 -21 -59 -22 -36 -18 -64 7 -43 8 6 14 19 14
29 0 21 31 50 54 50 15 0 17 -6 12 -37 -4 -21 -11 -91 -16 -157 -9 -116 -9
-119 13 -137 12 -10 32 -18 45 -19 17 0 22 6 22 28 0 15 7 45 15 67 8 22 14
54 15 72 0 17 4 43 10 58 8 22 13 24 29 15 11 -5 22 -6 25 -1 9 14 -97 257
-119 273 -22 17 -36 6 -59 -46z"/>
</g>
</svg>
