<?xml version="1.0" standalone="no"?>
<!DOCTYPE svg PUBLIC "-//W3C//DTD SVG 20010904//EN"
 "http://www.w3.org/TR/2001/REC-SVG-20010904/DTD/svg10.dtd">
<svg version="1.0" xmlns="http://www.w3.org/2000/svg"
 width="62.000000pt" height="104.000000pt" viewBox="0 0 62.000000 104.000000"
 preserveAspectRatio="xMidYMid meet">
<metadata>
Created by potrace 1.14, written by Peter Selinger 2001-2017
</metadata>
<g transform="translate(0.000000,104.000000) scale(0.100000,-0.100000)"
fill="#000000" stroke="none">
<path fill="#000000" stroke="none" d="M138 1027 c-69 -11 -72 -21 -28 -90 24
-38 30 -58 29 -100 -2 -86 -9 -102 -52 -105 -31 -3 -42 -10 -64 -43 -22 -34
-24 -43 -14 -62 28 -50 52 -69 108 -84 32 -8 63 -19 68 -23 6 -5 30 -12 53
-16 42 -7 43 -8 36 -38 -3 -17 -13 -44 -21 -59 -8 -16 -29 -68 -48 -115 l-33
-86 21 -39 c21 -37 24 -38 62 -32 45 7 51 13 59 68 5 31 60 144 82 166 2 2 1
-18 -2 -45 -3 -27 -1 -62 4 -79 7 -23 1 -53 -25 -135 -18 -58 -33 -107 -33
-109 0 -13 45 58 94 145 45 81 60 119 76 199 16 76 31 117 66 177 36 63 44 85
39 109 -4 16 -12 32 -18 36 -7 5 -68 29 -137 54 l-125 45 -3 40 c-3 36 -46
107 -96 156 -8 9 -18 27 -22 42 -3 14 -9 28 -13 29 -3 2 -32 -1 -63 -6z"/>
</g>
</svg>
