<?xml version="1.0" standalone="no"?>
<!DOCTYPE svg PUBLIC "-//W3C//DTD SVG 20010904//EN"
 "http://www.w3.org/TR/2001/REC-SVG-20010904/DTD/svg10.dtd">
<svg version="1.0" xmlns="http://www.w3.org/2000/svg"
 width="116.000000pt" height="93.000000pt" viewBox="0 0 116.000000 93.000000"
 preserveAspectRatio="xMidYMid meet">
<metadata>
Created by potrace 1.14, written by Peter Selinger 2001-2017
</metadata>
<g transform="translate(0.000000,93.000000) scale(0.100000,-0.100000)"
fill="#000000" stroke="none">
<path fill="#000000" stroke="none" d="M506 863 c-12 -54 -22 -74 -48 -97 -18
-15 -73 -65 -122 -110 -92 -83 -129 -106 -175 -106 -27 0 -112 -38 -145 -64
-10 -8 -15 -20 -11 -26 5 -8 11 -8 19 -1 17 14 49 -62 34 -77 -14 -14 56 -58
107 -67 22 -4 78 -23 125 -42 47 -20 110 -38 143 -40 l57 -6 0 108 c0 74 5
125 17 162 l17 53 58 0 58 0 0 -269 0 -268 117 -6 c107 -5 121 -4 150 15 l33
20 0 141 c0 78 -3 166 -7 195 -6 50 -9 55 -65 98 -66 51 -108 94 -108 109 0 6
26 25 59 43 52 29 67 32 139 32 76 0 84 2 141 38 l61 37 0 73 0 72 -158 0
c-128 0 -171 4 -231 20 -65 18 -80 19 -128 9 -47 -11 -58 -10 -83 4 -15 9 -30
17 -33 17 -3 0 -12 -30 -21 -67z"/>
</g>
</svg>
