<?xml version="1.0" standalone="no"?>
<!DOCTYPE svg PUBLIC "-//W3C//DTD SVG 20010904//EN"
 "http://www.w3.org/TR/2001/REC-SVG-20010904/DTD/svg10.dtd">
<svg version="1.0" xmlns="http://www.w3.org/2000/svg"
 width="640.000000pt" height="319.000000pt" viewBox="0 0 640.000000 319.000000"
 preserveAspectRatio="xMidYMid meet">
<metadata>
Created by potrace 1.14, written by Peter Selinger 2001-2017
</metadata>
<g transform="translate(0.000000,319.000000) scale(0.100000,-0.100000)"
fill="#000000" stroke="none">
<path fill="#000000" stroke="none" d="M565 3170 c-22 -10 -55 -19 -72 -19
-33 -1 -73 -30 -73 -53 0 -9 -16 -12 -54 -10 -44 3 -58 0 -75 -17 -29 -29 -27
-73 6 -112 20 -24 26 -41 24 -66 -1 -19 4 -45 13 -59 23 -33 13 -30 -34 12
-36 32 -44 35 -77 30 -21 -4 -68 -10 -104 -14 -42 -4 -72 -13 -83 -25 -21 -21
-33 -127 -15 -127 8 0 8 -4 1 -13 -9 -11 -14 -130 -12 -327 0 -25 0 -82 0
-128 l-1 -82 33 5 c58 10 87 26 108 62 19 32 24 35 53 28 36 -7 96 -15 147
-19 20 -1 56 -12 80 -23 46 -22 123 -25 210 -9 19 4 66 8 103 11 64 4 78 9
132 49 7 6 35 -2 76 -22 62 -31 86 -37 194 -48 76 -8 176 -5 189 5 16 13 143
7 197 -9 39 -11 50 -11 76 2 20 10 52 14 104 11 41 -1 82 -3 92 -4 10 0 35 -6
57 -14 21 -7 41 -11 43 -8 3 3 12 -9 21 -25 19 -37 53 -49 135 -47 56 1 67 5
88 29 12 15 23 40 23 55 l0 28 48 -9 c66 -14 128 -20 192 -19 300 7 499 6 519
-1 45 -16 96 -20 268 -22 168 -1 172 -1 182 -23 10 -23 41 -32 41 -13 0 6 17
10 38 10 44 0 72 -23 72 -61 0 -13 7 -33 15 -43 8 -11 15 -28 15 -37 0 -9 13
-43 30 -74 17 -31 30 -66 30 -76 0 -14 10 -20 39 -25 41 -7 61 -32 61 -77 0
-29 8 -39 53 -66 21 -13 43 -35 48 -48 7 -19 14 -23 32 -17 34 10 60 36 45 45
-9 6 -8 21 4 66 l17 58 -30 52 c-17 29 -34 55 -40 58 -17 11 -9 35 21 61 16
15 32 35 35 45 6 17 8 17 50 -2 36 -16 48 -17 69 -8 19 9 32 9 53 0 33 -13 81
-6 105 16 9 8 21 12 26 9 5 -3 33 -8 62 -11 29 -3 55 -7 59 -9 3 -2 17 2 30 9
22 11 27 10 41 -7 21 -26 107 -31 135 -8 10 8 39 15 64 16 25 1 62 4 81 8 54
11 182 -26 219 -63 56 -56 144 -28 251 79 38 39 72 70 77 70 4 0 30 21 57 46
28 25 66 58 86 74 23 18 44 48 55 77 10 26 29 64 41 83 77 117 215 286 258
317 69 49 97 88 112 155 10 43 24 73 39 88 24 23 25 23 63 6 21 -10 49 -19 63
-20 77 -10 110 -32 124 -82 10 -35 10 -233 0 -291 -7 -41 -9 -43 -41 -43 -56
0 -75 -28 -73 -110 1 -50 -3 -77 -15 -95 -41 -62 -146 -286 -165 -353 -23 -77
-22 -86 18 -119 26 -23 46 -14 80 33 l32 46 -25 27 -26 27 32 52 c35 56 28 54
119 31 40 -10 49 -31 49 -114 0 -32 8 -52 33 -86 l34 -44 6 -165 c6 -144 9
-167 26 -180 26 -23 37 -104 18 -144 -21 -43 -37 -98 -37 -124 0 -12 -7 -36
-16 -55 -15 -31 -14 -35 10 -91 24 -54 25 -61 11 -82 -10 -16 -15 -49 -15
-103 0 -66 -4 -86 -25 -122 -35 -63 -33 -100 10 -143 25 -25 35 -44 35 -66 0
-34 30 -99 54 -119 9 -8 16 -29 16 -50 0 -28 -6 -40 -28 -53 -75 -48 -115 -77
-123 -89 -13 -21 -11 -64 5 -101 8 -18 17 -46 21 -61 10 -51 87 -67 158 -34
51 25 69 51 83 125 15 77 19 378 5 387 -20 11 -24 92 -7 126 14 29 16 150 16
1223 0 655 -3 1208 -6 1229 -5 28 -14 42 -35 52 -33 18 -130 20 -146 4 -18
-18 -140 -24 -170 -8 -17 9 -54 13 -112 12 -47 -1 -282 -6 -521 -11 -437 -10
-575 -21 -618 -49 -23 -14 -24 -14 -17 6 3 12 3 30 0 41 -5 17 -15 20 -69 20
-49 0 -67 -4 -80 -19 -24 -26 -57 -30 -118 -14 -29 7 -87 16 -128 18 -41 3
-109 10 -150 16 -96 13 -2899 8 -2919 -5 -8 -5 -26 -10 -40 -12 -14 -1 -66 -9
-116 -18 -49 -8 -120 -15 -156 -16 -61 0 -67 2 -87 29 l-21 29 -143 0 c-118 0
-150 -3 -183 -18z"/>
<path fill="#ffffff" stroke="none" d="M6270 3020 c13 -9 13 -10 0 -10 -8 0
-25 -3 -37 -6 -13 -4 -23 -2 -23 4 0 9 12 15 40 21 3 0 12 -4 20 -9z"/>
<path fill="#ffffff" stroke="none" d="M5280 3012 c-8 -2 -22 -8 -30 -12 -8
-4 -28 -1 -45 6 -29 12 -28 12 30 12 33 0 53 -3 45 -6z"/>
<path fill="#ffffff" stroke="none" d="M5327 3014 c-3 -3 -12 -4 -19 -1 -8 3
-5 6 6 6 11 1 17 -2 13 -5z"/>
<path fill="#ffffff" stroke="none" d="M5403 3013 c-7 -2 -21 -2 -30 0 -10 3
-4 5 12 5 17 0 24 -2 18 -5z"/>
<path fill="#ffffff" stroke="none" d="M5734 3011 c3 -5 0 -13 -7 -19 -8 -7
-19 -5 -36 9 l-23 19 30 0 c17 0 33 -4 36 -9z"/>
<path fill="#ffffff" stroke="none" d="M1931 2752 c16 -25 29 -53 29 -61 0 -8
20 -36 44 -61 50 -52 76 -118 76 -196 0 -49 -2 -53 -31 -63 -49 -17 -60 -14
-54 12 7 27 -16 52 -56 62 -21 5 -31 1 -48 -21 -11 -15 -21 -35 -21 -46 0 -18
-5 -19 -42 -13 -42 6 -78 34 -78 60 0 7 -20 33 -43 58 l-44 44 23 45 c16 31
38 54 69 72 38 23 45 31 45 59 0 56 10 75 48 90 21 8 41 13 45 10 5 -3 22 -26
38 -51z"/>
<path fill="#ffffff" stroke="none" d="M376 2662 c7 -5 8 -18 2 -41 -10 -36
-22 -32 -32 10 -8 35 5 48 30 31z"/>
<path fill="#ffffff" stroke="none" d="M4800 2573 c24 -28 28 -54 15 -114 -7
-35 -6 -37 28 -48 20 -7 41 -18 47 -26 7 -8 17 -12 24 -9 6 3 2 -1 -8 -10 -10
-8 -23 -17 -28 -18 -4 -2 -11 -26 -15 -53 -5 -46 -11 -54 -60 -93 l-53 -42
-33 33 c-18 18 -52 39 -75 46 -46 16 -46 16 -32 58 9 25 7 36 -10 65 l-20 35
44 17 c43 17 45 20 57 74 17 77 25 92 54 92 14 0 25 5 25 10 0 17 16 11 40
-17z"/>
<path fill="#ffffff" stroke="none" d="M1128 2363 l37 -17 -39 -4 c-40 -4 -63
8 -52 27 9 14 10 14 54 -6z"/>
<path fill="#ffffff" stroke="none" d="M1325 2350 c3 -6 -4 -10 -17 -10 -18 0
-20 2 -8 10 19 12 18 12 25 0z"/>
<path fill="#ffffff" stroke="none" d="M1265 2340 c3 -5 2 -10 -4 -10 -5 0
-13 5 -16 10 -3 6 -2 10 4 10 5 0 13 -4 16 -10z"/>
<path fill="#000000" stroke="none" d="M5780 2260 c-11 -11 -20 -27 -20 -36 0
-9 -18 -69 -40 -134 -22 -65 -40 -134 -40 -153 0 -19 -3 -49 -6 -66 -5 -26
-11 -31 -34 -31 -17 0 -36 -11 -53 -30 -15 -16 -31 -30 -35 -30 -16 0 -72 -98
-72 -124 0 -27 30 -65 53 -67 6 -1 28 -2 48 -3 20 -2 52 -12 70 -23 19 -11 57
-28 86 -37 59 -19 93 -11 120 30 13 20 10 26 -51 88 -36 36 -74 66 -85 66 -18
0 -18 2 -4 41 7 23 11 54 8 69 -5 24 -2 29 20 37 23 7 32 29 89 198 35 105 67
198 71 208 6 15 0 17 -49 17 -43 0 -61 -5 -76 -20z"/>
</g>
</svg>
