<?xml version="1.0" standalone="no"?>
<!DOCTYPE svg PUBLIC "-//W3C//DTD SVG 20010904//EN"
 "http://www.w3.org/TR/2001/REC-SVG-20010904/DTD/svg10.dtd">
<svg version="1.0" xmlns="http://www.w3.org/2000/svg"
 width="144.000000pt" height="210.000000pt" viewBox="0 0 144.000000 210.000000"
 preserveAspectRatio="xMidYMid meet">
<metadata>
Created by potrace 1.14, written by Peter Selinger 2001-2017
</metadata>
<g transform="translate(0.000000,210.000000) scale(0.100000,-0.100000)"
fill="#000000" stroke="none">
<path fill="#000000" stroke="none" d="M210 2094 c-66 -27 -79 -38 -99 -83
-24 -56 -27 -87 -17 -201 4 -52 15 -104 28 -133 19 -42 20 -51 8 -70 -48 -77
-48 -70 -6 -132 56 -84 115 -145 141 -145 58 0 281 -45 380 -77 61 -20 178
-50 261 -68 122 -26 160 -38 197 -63 25 -18 50 -32 55 -32 5 0 34 11 64 25 47
21 57 32 81 81 15 31 26 59 23 62 -9 8 -555 81 -613 82 -29 0 -89 12 -135 26
-102 32 -160 76 -177 135 -7 23 -15 48 -18 56 -5 13 -2 13 19 -1 l25 -17 27
63 c24 60 57 245 56 321 -1 25 -15 47 -64 101 l-64 69 -78 3 c-44 2 -86 1 -94
-2z"/>
<path fill="#000000" stroke="none" d="M0 1111 c0 -72 28 -175 75 -278 l47
-101 111 -17 c62 -9 189 -37 283 -61 94 -24 175 -44 180 -44 5 0 20 26 33 57
35 79 90 139 190 205 47 32 87 62 89 68 4 12 -172 13 -233 1 -32 -6 -53 -2
-110 22 -38 16 -102 33 -141 37 -78 9 -301 72 -427 120 -43 17 -83 30 -88 30
-5 0 -9 -18 -9 -39z"/>
<path fill="#000000" stroke="none" d="M1018 670 c-49 -87 -88 -163 -88 -168
0 -5 19 -14 43 -21 66 -20 116 -58 138 -104 15 -33 19 -66 19 -154 0 -98 3
-120 25 -168 13 -31 28 -54 32 -52 5 2 64 35 133 73 121 66 124 69 91 74 l-34
5 -38 125 c-21 69 -48 170 -59 225 -11 55 -34 140 -52 188 -28 80 -34 90 -73
112 -23 14 -44 25 -46 25 -2 0 -43 -72 -91 -160z"/>
</g>
</svg>
