<?xml version="1.0" standalone="no"?>
<!DOCTYPE svg PUBLIC "-//W3C//DTD SVG 20010904//EN"
 "http://www.w3.org/TR/2001/REC-SVG-20010904/DTD/svg10.dtd">
<svg version="1.0" xmlns="http://www.w3.org/2000/svg"
 width="26.000000pt" height="227.000000pt" viewBox="0 0 26.000000 227.000000"
 preserveAspectRatio="xMidYMid meet">
<metadata>
Created by potrace 1.14, written by Peter Selinger 2001-2017
</metadata>
<g transform="translate(0.000000,227.000000) scale(0.100000,-0.100000)"
fill="#000000" stroke="none">
<path fill="#000000" stroke="none" d="M8 1179 c2 -733 6 -1101 13 -1115 6
-11 30 -30 54 -42 49 -24 75 -20 145 19 37 21 40 26 40 64 0 30 -8 53 -28 81
-42 57 -115 121 -167 146 l-46 22 6 221 c3 121 5 256 5 300 0 44 9 188 21 320
27 307 25 403 -14 774 l-32 303 3 -1093z"/>
</g>
</svg>
