<?xml version="1.0" standalone="no"?>
<!DOCTYPE svg PUBLIC "-//W3C//DTD SVG 20010904//EN"
 "http://www.w3.org/TR/2001/REC-SVG-20010904/DTD/svg10.dtd">
<svg version="1.0" xmlns="http://www.w3.org/2000/svg"
 width="33.000000pt" height="129.000000pt" viewBox="0 0 33.000000 129.000000"
 preserveAspectRatio="xMidYMid meet">
<metadata>
Created by potrace 1.14, written by Peter Selinger 2001-2017
</metadata>
<g transform="translate(0.000000,129.000000) scale(0.100000,-0.100000)"
fill="#000000" stroke="none">
<path fill="#000000" stroke="none" d="M237 1283 c-34 -5 -47 -34 -47 -103 0
-29 -5 -50 -12 -53 -7 -3 13 -6 45 -6 62 -1 81 -21 20 -21 -21 0 -43 -4 -50
-8 -6 -4 -19 -39 -29 -79 -14 -60 -15 -77 -4 -102 21 -51 54 -36 100 43 17 30
40 58 51 61 18 6 20 12 14 43 -3 21 -6 75 -5 123 1 83 1 85 -25 97 -14 7 -27
11 -28 11 -1 -1 -15 -4 -30 -6z"/>
<path fill="#000000" stroke="none" d="M197 866 c-9 -7 -17 -25 -17 -38 0 -24
-5 -27 -64 -38 -63 -12 -64 -13 -55 -37 19 -50 10 -230 -20 -411 -34 -203 -40
-267 -24 -283 6 -6 32 -10 57 -7 41 3 47 1 52 -18 7 -26 30 -34 106 -34 65 0
80 13 49 43 -16 17 -23 19 -33 9 -20 -20 -43 -14 -134 31 l-86 42 7 50 c3 28
14 110 23 183 19 145 23 152 85 152 l37 0 -1 98 c-1 53 -3 89 -6 80 -6 -25
-18 -22 -31 6 -9 20 -7 27 8 41 11 10 25 34 31 54 7 20 19 46 27 59 18 27 13
35 -11 18z"/>
</g>
</svg>
