<?xml version="1.0" standalone="no"?>
<!DOCTYPE svg PUBLIC "-//W3C//DTD SVG 20010904//EN"
 "http://www.w3.org/TR/2001/REC-SVG-20010904/DTD/svg10.dtd">
<svg version="1.0" xmlns="http://www.w3.org/2000/svg"
 width="37.000000pt" height="82.000000pt" viewBox="0 0 37.000000 82.000000"
 preserveAspectRatio="xMidYMid meet">
<metadata>
Created by potrace 1.14, written by Peter Selinger 2001-2017
</metadata>
<g transform="translate(0.000000,82.000000) scale(0.100000,-0.100000)"
fill="#000000" stroke="none">
<path fill="#000000" stroke="none" d="M0 643 c0 -98 3 -282 7 -409 l6 -231
96 5 c53 2 97 6 99 7 13 11 42 162 42 218 0 38 3 67 8 65 4 -2 20 -10 36 -18
27 -14 30 -13 52 15 49 61 20 149 -93 283 -29 34 -53 66 -53 71 0 5 9 15 21
22 30 21 16 52 -21 44 -26 -6 -28 -3 -42 47 l-15 53 -71 3 -72 3 0 -178z"/>
</g>
</svg>
