<?xml version="1.0" standalone="no"?>
<!DOCTYPE svg PUBLIC "-//W3C//DTD SVG 20010904//EN"
 "http://www.w3.org/TR/2001/REC-SVG-20010904/DTD/svg10.dtd">
<svg version="1.0" xmlns="http://www.w3.org/2000/svg"
 width="108.000000pt" height="303.000000pt" viewBox="0 0 108.000000 303.000000"
 preserveAspectRatio="xMidYMid meet">
<metadata>
Created by potrace 1.14, written by Peter Selinger 2001-2017
</metadata>
<g transform="translate(0.000000,303.000000) scale(0.100000,-0.100000)"
fill="#000000" stroke="none">
<path fill="#000000" stroke="none" d="M550 3004 c-35 -20 -58 -45 -102 -117
-63 -99 -69 -127 -48 -237 9 -46 8 -55 -11 -81 -11 -16 -25 -29 -30 -29 -5 0
-51 -20 -102 -43 l-93 -44 -34 -104 -33 -104 7 -204 c3 -113 9 -207 12 -210 3
-3 44 -8 92 -11 l87 -5 -3 -95 c-2 -52 -9 -129 -17 -170 -7 -41 -14 -156 -15
-255 -3 -237 -27 -459 -56 -515 -7 -14 -24 -62 -38 -106 -14 -45 -50 -126 -81
-180 -61 -110 -70 -136 -80 -241 l-7 -71 44 -26 44 -25 86 44 86 45 79 232
c44 128 88 257 98 287 10 30 32 74 49 98 26 38 32 42 42 28 22 -30 -13 -400
-46 -490 -12 -35 -20 -94 -25 -201 l-7 -150 63 -12 c61 -11 64 -11 110 18 27
16 77 37 112 46 57 15 66 22 94 64 29 43 30 48 16 74 -13 25 -19 27 -51 24
-41 -5 -82 9 -82 27 0 6 11 45 25 86 31 90 50 174 71 322 10 68 37 179 69 282
30 94 67 224 84 290 l30 120 -18 115 c-13 85 -26 131 -49 177 -18 34 -32 64
-32 65 0 2 18 2 40 0 58 -6 88 4 121 41 32 35 39 88 15 122 -7 11 -16 47 -20
80 -4 33 -17 107 -28 164 -18 85 -31 118 -72 189 -49 81 -53 86 -113 110 -41
16 -65 33 -72 49 -12 27 -7 43 13 43 21 0 56 45 76 99 15 39 20 76 20 160 l0
108 -35 44 c-30 38 -32 45 -17 50 25 10 5 15 -103 29 -49 6 -97 13 -105 15 -8
3 -35 -7 -60 -21z"/>
</g>
</svg>
