<?xml version="1.0" standalone="no"?>
<!DOCTYPE svg PUBLIC "-//W3C//DTD SVG 20010904//EN"
 "http://www.w3.org/TR/2001/REC-SVG-20010904/DTD/svg10.dtd">
<svg version="1.0" xmlns="http://www.w3.org/2000/svg"
 width="79.000000pt" height="216.000000pt" viewBox="0 0 79.000000 216.000000"
 preserveAspectRatio="xMidYMid meet">
<metadata>
Created by potrace 1.14, written by Peter Selinger 2001-2017
</metadata>
<g transform="translate(0.000000,216.000000) scale(0.100000,-0.100000)"
fill="#000000" stroke="none">
<path fill="#000000" stroke="none" d="M257 2134 c-49 -12 -90 -24 -92 -26 -2
-1 -15 -48 -30 -103 -20 -79 -29 -147 -40 -325 -8 -124 -14 -240 -15 -259 0
-33 -1 -33 -40 -29 l-39 3 25 -26 c23 -24 26 -39 33 -130 l8 -104 73 -133 72
-132 -40 -93 c-41 -92 -41 -92 -46 -247 -6 -192 -25 -360 -42 -380 -11 -13 -4
-25 49 -84 l61 -68 205 7 c250 9 285 14 347 50 l49 28 -137 46 c-75 25 -140
49 -143 53 -4 3 1 42 10 85 9 43 36 210 59 372 l42 294 -68 246 c-37 135 -68
248 -68 251 0 3 37 -51 83 -119 l82 -124 3 115 c2 102 -1 132 -33 269 -40 173
-98 348 -103 311 -3 -21 -6 -19 -35 20 -18 24 -57 91 -87 149 l-55 106 -88
-23z"/>
</g>
</svg>
