<?xml version="1.0" standalone="no"?>
<!DOCTYPE svg PUBLIC "-//W3C//DTD SVG 20010904//EN"
 "http://www.w3.org/TR/2001/REC-SVG-20010904/DTD/svg10.dtd">
<svg version="1.0" xmlns="http://www.w3.org/2000/svg"
 width="116.000000pt" height="184.000000pt" viewBox="0 0 116.000000 184.000000"
 preserveAspectRatio="xMidYMid meet">
<metadata>
Created by potrace 1.14, written by Peter Selinger 2001-2017
</metadata>
<g transform="translate(0.000000,184.000000) scale(0.100000,-0.100000)"
fill="#000000" stroke="none">
<path fill="#000000" stroke="none" d="M270 1833 c-108 -4 -110 -6 -200 -119
-74 -91 -75 -102 -65 -714 4 -283 10 -572 14 -642 l6 -127 106 59 c98 55 109
59 138 49 17 -6 31 -13 31 -16 0 -2 -15 -41 -34 -86 -18 -45 -43 -114 -54
-153 l-20 -71 187 -6 c102 -4 235 -7 294 -7 l108 0 -69 60 -70 60 -83 7 -82 8
91 80 91 80 43 123 c37 108 50 132 102 193 44 52 63 68 75 62 9 -4 76 -9 149
-11 l132 -4 -25 37 c-13 20 -27 53 -31 74 -10 63 -14 71 -39 71 -12 0 -88 31
-168 69 -141 67 -146 70 -184 127 -22 33 -58 94 -81 137 -35 66 -42 88 -42
135 0 68 -45 398 -62 454 -16 53 -56 79 -118 76 -25 -1 -88 -4 -140 -5z"/>
</g>
</svg>
