<?xml version="1.0" standalone="no"?>
<!DOCTYPE svg PUBLIC "-//W3C//DTD SVG 20010904//EN"
 "http://www.w3.org/TR/2001/REC-SVG-20010904/DTD/svg10.dtd">
<svg version="1.0" xmlns="http://www.w3.org/2000/svg"
 width="316.000000pt" height="431.000000pt" viewBox="0 0 316.000000 431.000000"
 preserveAspectRatio="xMidYMid meet">
<metadata>
Created by potrace 1.14, written by Peter Selinger 2001-2017
</metadata>
<g transform="translate(0.000000,431.000000) scale(0.100000,-0.100000)"
fill="#000000" stroke="none">
<path fill="#000000" stroke="none" d="M560 4208 l-236 -101 -119 -216 -119
-215 -32 -346 c-18 -190 -37 -358 -43 -373 -8 -20 -11 -465 -11 -1463 l0
-1434 28 0 c45 0 1810 -38 2378 -51 l531 -12 59 33 c53 31 166 112 161 116 -1
1 -36 -4 -77 -12 -54 -10 -770 -73 -841 -74 -4 0 -12 30 -19 66 -8 44 -19 69
-31 77 -16 10 -19 25 -19 97 -1 47 -10 126 -21 175 -11 50 -32 241 -49 428
l-29 338 -63 189 -62 189 -106 145 c-158 217 -215 254 -461 297 l-133 23 -84
63 c-47 35 -91 63 -99 63 -8 0 -13 3 -11 8 2 4 146 222 321 485 174 263 317
484 317 490 0 7 -34 134 -74 282 -60 220 -71 273 -61 283 10 11 10 23 0 61
-10 40 -27 62 -111 142 -54 52 -136 129 -180 172 l-82 79 -188 49 c-104 27
-191 49 -194 49 -3 -1 -111 -46 -240 -102z"/>
</g>
</svg>
