<?xml version="1.0" standalone="no"?>
<!DOCTYPE svg PUBLIC "-//W3C//DTD SVG 20010904//EN"
 "http://www.w3.org/TR/2001/REC-SVG-20010904/DTD/svg10.dtd">
<svg version="1.0" xmlns="http://www.w3.org/2000/svg"
 width="136.000000pt" height="260.000000pt" viewBox="0 0 136.000000 260.000000"
 preserveAspectRatio="xMidYMid meet">
<metadata>
Created by potrace 1.14, written by Peter Selinger 2001-2017
</metadata>
<g transform="translate(0.000000,260.000000) scale(0.100000,-0.100000)"
fill="#000000" stroke="none">
<path fill="#000000" stroke="none" d="M812 2590 l-233 -5 -78 -63 -79 -64 -8
-106 c-11 -147 -11 -613 0 -807 l8 -160 -77 -225 c-68 -197 -88 -243 -162
-370 -46 -79 -107 -168 -135 -198 -28 -29 -47 -57 -42 -61 5 -5 68 -54 141
-109 l132 -101 102 -11 c57 -5 106 -7 110 -3 23 25 11 72 -45 176 -65 121 -64
117 -25 253 l21 71 80 48 79 49 32 -19 c18 -10 55 -33 82 -50 l50 -32 17 -199
c10 -127 13 -221 8 -259 -17 -124 -18 -121 58 -159 60 -30 502 -190 507 -184
1 2 -12 61 -29 132 -31 128 -31 129 -71 155 -99 63 -143 104 -149 135 -2 17
-19 144 -37 281 -31 249 -31 250 -71 318 l-39 68 37 166 c28 122 35 168 26
171 -21 7 -42 32 -48 58 -5 19 -1 29 15 41 52 36 72 59 66 74 -8 21 -48 39
-85 39 -21 0 -30 5 -30 16 0 24 39 84 55 84 19 0 52 -36 58 -63 3 -12 17 -49
31 -82 29 -68 32 -103 12 -131 -13 -17 -12 -22 6 -41 59 -63 65 -7 44 382 -9
170 -16 346 -16 390 0 44 -9 136 -20 205 -11 69 -20 142 -20 163 0 32 -3 37
-22 35 -13 -1 -128 -5 -256 -8z"/>
</g>
</svg>
