<?xml version="1.0" standalone="no"?>
<!DOCTYPE svg PUBLIC "-//W3C//DTD SVG 20010904//EN"
 "http://www.w3.org/TR/2001/REC-SVG-20010904/DTD/svg10.dtd">
<svg version="1.0" xmlns="http://www.w3.org/2000/svg"
 width="111.000000pt" height="125.000000pt" viewBox="0 0 111.000000 125.000000"
 preserveAspectRatio="xMidYMid meet">
<metadata>
Created by potrace 1.14, written by Peter Selinger 2001-2017
</metadata>
<g transform="translate(0.000000,125.000000) scale(0.100000,-0.100000)"
fill="#000000" stroke="none">
<path fill="#000000" stroke="none" d="M33 1243 c2 -5 47 -85 101 -179 53 -95
96 -177 96 -183 0 -5 -15 -68 -34 -138 -22 -80 -37 -163 -40 -223 -4 -52 -12
-123 -18 -158 -11 -61 -14 -65 -75 -114 -35 -28 -63 -54 -63 -57 0 -2 24 -46
53 -97 l52 -93 45 6 c30 3 50 12 60 27 8 11 29 37 46 56 17 19 36 50 42 68 6
18 32 70 58 115 l47 82 23 195 c20 159 24 234 22 404 l-3 210 -200 42 c-221
48 -218 47 -212 37z"/>
<path fill="#000000" stroke="none" d="M694 1235 c41 -12 54 -12 80 0 29 13
27 13 -49 13 l-80 0 49 -13z"/>
<path fill="#000000" stroke="none" d="M874 1215 c-3 -20 -5 -38 -3 -40 2 -2
55 -17 117 -33 l112 -31 0 38 c0 21 3 53 6 70 l7 31 -116 0 -116 0 -7 -35z"/>
<path fill="#000000" stroke="none" d="M800 1027 c-25 -24 -53 -48 -63 -53
-17 -10 -17 -14 3 -100 14 -61 29 -97 45 -114 l24 -25 -40 -62 c-34 -51 -75
-160 -65 -170 1 -2 27 10 57 27 70 38 126 47 167 26 40 -21 37 -21 60 17 19
30 19 36 6 97 -21 98 -17 146 15 230 l30 75 -92 47 c-51 26 -94 47 -97 47 -3
0 -25 -19 -50 -42z"/>
</g>
</svg>
