<?xml version="1.0" standalone="no"?>
<!DOCTYPE svg PUBLIC "-//W3C//DTD SVG 20010904//EN"
 "http://www.w3.org/TR/2001/REC-SVG-20010904/DTD/svg10.dtd">
<svg version="1.0" xmlns="http://www.w3.org/2000/svg"
 width="95.000000pt" height="136.000000pt" viewBox="0 0 95.000000 136.000000"
 preserveAspectRatio="xMidYMid meet">
<metadata>
Created by potrace 1.14, written by Peter Selinger 2001-2017
</metadata>
<g transform="translate(0.000000,136.000000) scale(0.100000,-0.100000)"
fill="#000000" stroke="none">
<path fill="#000000" stroke="none" d="M235 1327 c-80 -24 -127 -44 -172 -75
l-63 -43 0 -77 c0 -73 3 -85 72 -247 39 -93 90 -201 113 -240 36 -62 45 -71
84 -82 24 -7 45 -14 47 -16 2 -2 -48 -41 -111 -87 -63 -46 -117 -90 -119 -99
-13 -44 -35 -172 -37 -213 -3 -59 23 -91 87 -107 25 -6 47 -18 50 -26 4 -10
11 -11 22 -5 10 6 108 33 220 60 112 28 214 57 226 65 13 9 32 14 42 13 10 -2
72 13 137 32 l118 34 -7 29 c-17 79 -40 132 -62 143 -13 6 -35 23 -50 37 -19
18 -43 27 -84 32 -32 3 -58 8 -58 9 0 2 19 46 42 97 39 88 42 102 49 219 11
170 -18 365 -61 417 -35 44 -171 115 -265 139 -49 13 -94 23 -100 23 -5 0 -59
-15 -120 -32z"/>
</g>
</svg>
