<?xml version="1.0" standalone="no"?>
<!DOCTYPE svg PUBLIC "-//W3C//DTD SVG 20010904//EN"
 "http://www.w3.org/TR/2001/REC-SVG-20010904/DTD/svg10.dtd">
<svg version="1.0" xmlns="http://www.w3.org/2000/svg"
 width="91.000000pt" height="121.000000pt" viewBox="0 0 91.000000 121.000000"
 preserveAspectRatio="xMidYMid meet">
<metadata>
Created by potrace 1.14, written by Peter Selinger 2001-2017
</metadata>
<g transform="translate(0.000000,121.000000) scale(0.100000,-0.100000)"
fill="#000000" stroke="none">
<path fill="#000000" stroke="none" d="M144 1197 c-22 -7 -52 -21 -66 -32 -35
-28 -52 -108 -45 -200 6 -68 5 -73 -14 -78 -19 -5 -18 -9 19 -59 23 -29 99
-108 169 -174 97 -92 133 -120 144 -113 12 6 23 -7 50 -64 22 -46 62 -103 114
-162 45 -49 115 -138 158 -196 l76 -106 72 -7 c48 -5 75 -4 83 4 16 16 -11 30
-61 30 -36 0 -45 4 -57 28 -7 15 -17 42 -21 59 -3 18 -12 33 -18 33 -7 0 -35
44 -64 98 -28 53 -81 140 -117 192 -48 69 -64 100 -60 116 4 16 -15 56 -64
141 l-71 118 -64 24 -65 24 13 31 c7 17 18 59 24 92 13 73 2 106 -56 171 -38
41 -38 41 -79 30z"/>
</g>
</svg>
