<?xml version="1.0" standalone="no"?>
<!DOCTYPE svg PUBLIC "-//W3C//DTD SVG 20010904//EN"
 "http://www.w3.org/TR/2001/REC-SVG-20010904/DTD/svg10.dtd">
<svg version="1.0" xmlns="http://www.w3.org/2000/svg"
 width="22.000000pt" height="64.000000pt" viewBox="0 0 22.000000 64.000000"
 preserveAspectRatio="xMidYMid meet">
<metadata>
Created by potrace 1.14, written by Peter Selinger 2001-2017
</metadata>
<g transform="translate(0.000000,64.000000) scale(0.100000,-0.100000)"
fill="#000000" stroke="none">
<path fill="#000000" stroke="none" d="M150 620 c-15 -15 -17 -25 -10 -48 4
-17 4 -34 0 -38 -5 -5 -5 -27 0 -49 5 -22 10 -60 10 -85 0 -38 2 -42 14 -30
29 32 65 197 51 240 -8 27 -43 32 -65 10z"/>
<path fill="#000000" stroke="none" d="M66 271 c-9 -10 -16 -29 -16 -43 0 -13
-11 -62 -25 -107 -18 -62 -22 -88 -14 -102 24 -45 57 -13 95 91 14 41 32 86
39 100 7 14 11 37 8 52 -4 22 -10 26 -38 26 -19 0 -40 -7 -49 -17z"/>
</g>
</svg>
