<?xml version="1.0" standalone="no"?>
<!DOCTYPE svg PUBLIC "-//W3C//DTD SVG 20010904//EN"
 "http://www.w3.org/TR/2001/REC-SVG-20010904/DTD/svg10.dtd">
<svg version="1.0" xmlns="http://www.w3.org/2000/svg"
 width="44.000000pt" height="100.000000pt" viewBox="0 0 44.000000 100.000000"
 preserveAspectRatio="xMidYMid meet">
<metadata>
Created by potrace 1.14, written by Peter Selinger 2001-2017
</metadata>
<g transform="translate(0.000000,100.000000) scale(0.100000,-0.100000)"
fill="#000000" stroke="none">
<path fill="#000000" stroke="none" d="M227 945 c-24 -50 -27 -66 -27 -163 0
-97 -4 -119 -35 -213 -26 -76 -41 -148 -56 -269 l-21 -165 -45 -41 -45 -42 38
-26 c21 -14 42 -26 47 -26 5 0 53 39 108 86 l99 86 1 247 0 246 75 60 c62 49
74 63 69 80 -4 11 -10 45 -14 75 -4 30 -15 70 -26 88 -18 30 -22 32 -80 32
l-61 0 -27 -55z"/>
</g>
</svg>
