<?xml version="1.0" standalone="no"?>
<!DOCTYPE svg PUBLIC "-//W3C//DTD SVG 20010904//EN"
 "http://www.w3.org/TR/2001/REC-SVG-20010904/DTD/svg10.dtd">
<svg version="1.0" xmlns="http://www.w3.org/2000/svg"
 width="62.000000pt" height="103.000000pt" viewBox="0 0 62.000000 103.000000"
 preserveAspectRatio="xMidYMid meet">
<metadata>
Created by potrace 1.14, written by Peter Selinger 2001-2017
</metadata>
<g transform="translate(0.000000,103.000000) scale(0.100000,-0.100000)"
fill="#000000" stroke="none">
<path fill="#000000" stroke="none" d="M265 1022 c-73 -26 -100 -73 -90 -160
l7 -59 -71 -42 c-63 -37 -71 -46 -81 -84 -5 -23 -15 -56 -20 -73 -15 -45 -12
-126 6 -169 9 -22 17 -84 21 -156 6 -115 7 -120 30 -125 12 -4 23 -9 23 -13 0
-4 6 -16 14 -26 13 -18 15 -16 38 30 27 57 55 75 119 75 26 0 71 5 100 11 80
17 118 12 155 -19 l32 -27 -1 -93 -2 -92 27 0 c44 0 50 24 46 206 -3 147 -5
167 -21 176 -14 7 -17 17 -12 37 3 15 -3 61 -14 102 -11 41 -27 108 -36 150
l-16 77 -48 20 c-52 21 -72 52 -51 77 8 10 8 19 1 34 -16 30 -13 55 10 85 l20
26 -30 0 c-17 0 -34 7 -39 16 -10 18 -84 28 -117 16z"/>
</g>
</svg>
