<?xml version="1.0" standalone="no"?>
<!DOCTYPE svg PUBLIC "-//W3C//DTD SVG 20010904//EN"
 "http://www.w3.org/TR/2001/REC-SVG-20010904/DTD/svg10.dtd">
<svg version="1.0" xmlns="http://www.w3.org/2000/svg"
 width="13.000000pt" height="27.000000pt" viewBox="0 0 13.000000 27.000000"
 preserveAspectRatio="xMidYMid meet">
<metadata>
Created by potrace 1.14, written by Peter Selinger 2001-2017
</metadata>
<g transform="translate(0.000000,27.000000) scale(0.100000,-0.100000)"
fill="#000000" stroke="none">
<path fill="#000000" stroke="none" d="M50 250 c0 -11 -4 -20 -9 -20 -37 0
-55 -86 -26 -124 8 -11 15 -31 15 -44 0 -49 40 -84 54 -46 3 9 6 38 6 65 0 36
5 54 20 66 19 16 19 17 0 52 -10 20 -21 44 -24 54 -7 24 -36 22 -36 -3z"/>
</g>
</svg>
