<?xml version="1.0" standalone="no"?>
<!DOCTYPE svg PUBLIC "-//W3C//DTD SVG 20010904//EN"
 "http://www.w3.org/TR/2001/REC-SVG-20010904/DTD/svg10.dtd">
<svg version="1.0" xmlns="http://www.w3.org/2000/svg"
 width="34.000000pt" height="126.000000pt" viewBox="0 0 34.000000 126.000000"
 preserveAspectRatio="xMidYMid meet">
<metadata>
Created by potrace 1.14, written by Peter Selinger 2001-2017
</metadata>
<g transform="translate(0.000000,126.000000) scale(0.100000,-0.100000)"
fill="#000000" stroke="none">
<path fill="#000000" stroke="none" d="M195 1248 c-2 -7 -12 -48 -21 -92 -18
-76 -20 -80 -65 -110 -50 -33 -58 -53 -59 -141 0 -22 -10 -80 -23 -130 -15
-62 -21 -113 -19 -163 l3 -73 43 -18 c29 -13 47 -28 55 -50 12 -27 10 -38 -14
-100 -23 -59 -26 -78 -21 -125 8 -62 6 -61 98 -34 25 7 45 7 66 0 29 -10 29
-9 46 42 9 30 16 86 16 129 0 83 27 437 36 473 4 16 -1 33 -16 51 -19 24 -21
36 -15 80 6 53 6 53 -21 53 l-27 0 6 110 7 110 -36 0 c-19 0 -36 -6 -39 -12z"/>
<path fill="#000000" stroke="none" d="M202 109 c-30 -29 -54 -84 -45 -102 8
-14 51 -7 79 15 16 12 31 23 33 24 2 2 -6 16 -18 33 -12 16 -18 36 -15 45 9
23 2 20 -34 -15z"/>
</g>
</svg>
