<?xml version="1.0" standalone="no"?>
<!DOCTYPE svg PUBLIC "-//W3C//DTD SVG 20010904//EN"
 "http://www.w3.org/TR/2001/REC-SVG-20010904/DTD/svg10.dtd">
<svg version="1.0" xmlns="http://www.w3.org/2000/svg"
 width="24.000000pt" height="22.000000pt" viewBox="0 0 24.000000 22.000000"
 preserveAspectRatio="xMidYMid meet">
<metadata>
Created by potrace 1.14, written by Peter Selinger 2001-2017
</metadata>
<g transform="translate(0.000000,22.000000) scale(0.100000,-0.100000)"
fill="#000000" stroke="none">
<path fill="#000000" stroke="none" d="M98 208 c-25 -21 -27 -41 -5 -65 l20
-23 -35 0 c-33 0 -36 -3 -55 -52 l-20 -53 96 -8 c112 -9 155 1 128 31 -9 9
-20 29 -26 45 -6 15 -18 27 -27 27 -14 0 -16 7 -11 39 4 30 1 44 -12 55 -21
19 -32 20 -53 4z"/>
</g>
</svg>
