<?xml version="1.0" standalone="no"?>
<!DOCTYPE svg PUBLIC "-//W3C//DTD SVG 20010904//EN"
 "http://www.w3.org/TR/2001/REC-SVG-20010904/DTD/svg10.dtd">
<svg version="1.0" xmlns="http://www.w3.org/2000/svg"
 width="21.000000pt" height="67.000000pt" viewBox="0 0 21.000000 67.000000"
 preserveAspectRatio="xMidYMid meet">
<metadata>
Created by potrace 1.14, written by Peter Selinger 2001-2017
</metadata>
<g transform="translate(0.000000,67.000000) scale(0.100000,-0.100000)"
fill="#000000" stroke="none">
<path fill="#000000" stroke="none" d="M63 651 c-7 -12 -13 -34 -13 -50 0 -17
-6 -34 -14 -38 -31 -17 -40 -148 -12 -159 8 -3 10 -29 8 -79 -3 -54 0 -82 12
-106 18 -36 23 -174 6 -184 -6 -3 -10 -13 -10 -21 0 -15 46 -20 66 -6 11 7 27
91 39 213 4 31 13 65 20 75 8 11 15 37 15 60 0 22 7 55 16 73 20 40 5 90 -38
126 -24 21 -29 31 -25 53 7 35 -1 49 -33 57 -19 4 -28 1 -37 -14z"/>
</g>
</svg>
