<?xml version="1.0" standalone="no"?>
<!DOCTYPE svg PUBLIC "-//W3C//DTD SVG 20010904//EN"
 "http://www.w3.org/TR/2001/REC-SVG-20010904/DTD/svg10.dtd">
<svg version="1.0" xmlns="http://www.w3.org/2000/svg"
 width="63.000000pt" height="79.000000pt" viewBox="0 0 63.000000 79.000000"
 preserveAspectRatio="xMidYMid meet">
<metadata>
Created by potrace 1.14, written by Peter Selinger 2001-2017
</metadata>
<g transform="translate(0.000000,79.000000) scale(0.100000,-0.100000)"
fill="#000000" stroke="none">
<path fill="#000000" stroke="none" d="M412 762 l-54 -27 7 -70 c4 -38 13 -83
21 -99 8 -16 14 -33 14 -38 0 -5 -34 -25 -76 -44 -104 -47 -170 -115 -230
-239 -62 -128 -65 -159 -22 -208 l33 -37 68 11 67 12 -16 26 c-9 14 -27 37
-41 49 -13 13 -22 29 -20 35 5 15 96 72 103 64 3 -3 8 -39 11 -81 6 -75 6 -76
32 -70 81 18 100 27 135 63 l38 39 -31 58 c-30 56 -31 60 -31 193 l0 136 72
48 c39 26 81 47 92 47 36 0 48 15 44 55 -3 37 -5 39 -81 72 -44 18 -80 33 -80
32 -1 0 -26 -12 -55 -27z"/>
<path fill="#000000" stroke="none" d="M17 174 c-12 -17 -16 -32 -11 -47 7
-19 9 -17 21 22 7 25 12 46 10 47 -1 1 -10 -9 -20 -22z"/>
</g>
</svg>
