<?xml version="1.0" standalone="no"?>
<!DOCTYPE svg PUBLIC "-//W3C//DTD SVG 20010904//EN"
 "http://www.w3.org/TR/2001/REC-SVG-20010904/DTD/svg10.dtd">
<svg version="1.0" xmlns="http://www.w3.org/2000/svg"
 width="140.000000pt" height="522.000000pt" viewBox="0 0 140.000000 522.000000"
 preserveAspectRatio="xMidYMid meet">
<metadata>
Created by potrace 1.14, written by Peter Selinger 2001-2017
</metadata>
<g transform="translate(0.000000,522.000000) scale(0.100000,-0.100000)"
fill="#000000" stroke="none">
<path fill="#000000" stroke="none" d="M257 5210 c-136 -4 -250 -9 -251 -11
-2 -2 -1 -73 3 -158 l7 -153 115 -112 116 -111 -8 -155 c-4 -85 -37 -490 -73
-900 l-65 -745 7 -342 c4 -188 10 -345 14 -349 4 -3 40 -9 80 -11 130 -7 118
11 118 -172 l0 -159 40 -7 40 -7 0 -92 c0 -51 9 -157 20 -236 17 -122 20 -198
20 -497 l0 -353 -38 23 c-20 13 -43 27 -50 31 -12 7 -13 -32 -11 -230 l4 -239
-77 -90 -77 -90 32 -6 c55 -11 428 -42 434 -36 8 9 45 675 39 717 -2 19 -1 60
4 90 4 30 22 325 40 655 17 330 34 612 38 627 5 21 48 -120 181 -595 96 -342
179 -627 185 -634 6 -6 66 -36 132 -65 89 -40 120 -51 118 -39 -2 9 -44 288
-94 620 -88 591 -91 611 -112 975 l-21 371 41 290 c41 284 42 295 42 563 0
220 -3 280 -15 309 -8 19 -15 51 -15 71 0 48 -89 252 -226 519 l-115 222 -112
98 c-62 53 -113 98 -115 99 -1 1 -28 73 -60 160 -38 105 -62 159 -72 160 -8 0
-127 -2 -263 -6z"/>
</g>
</svg>
