<?xml version="1.0" standalone="no"?>
<!DOCTYPE svg PUBLIC "-//W3C//DTD SVG 20010904//EN"
 "http://www.w3.org/TR/2001/REC-SVG-20010904/DTD/svg10.dtd">
<svg version="1.0" xmlns="http://www.w3.org/2000/svg"
 width="54.000000pt" height="80.000000pt" viewBox="0 0 54.000000 80.000000"
 preserveAspectRatio="xMidYMid meet">
<metadata>
Created by potrace 1.14, written by Peter Selinger 2001-2017
</metadata>
<g transform="translate(0.000000,80.000000) scale(0.100000,-0.100000)"
fill="#000000" stroke="none">
<path fill="#000000" stroke="none" d="M180 793 c-19 -3 -38 -8 -42 -11 -15
-14 -42 -210 -42 -307 -1 -78 -7 -120 -28 -190 -15 -50 -35 -130 -46 -180
l-19 -90 48 -3 c29 -2 60 3 77 12 27 14 30 20 35 88 3 46 18 112 41 177 19 58
40 128 46 157 6 28 19 59 29 68 17 16 19 15 25 -15 3 -17 6 -45 6 -61 0 -16 6
-31 15 -35 27 -10 47 -64 61 -162 32 -232 37 -243 109 -238 36 2 40 5 43 30 2
16 -3 38 -11 50 -9 15 -16 68 -21 160 -5 95 -15 167 -32 234 -21 80 -25 114
-22 204 l3 108 -29 5 c-31 6 -189 5 -246 -1z"/>
</g>
</svg>
