<?xml version="1.0" standalone="no"?>
<!DOCTYPE svg PUBLIC "-//W3C//DTD SVG 20010904//EN"
 "http://www.w3.org/TR/2001/REC-SVG-20010904/DTD/svg10.dtd">
<svg version="1.0" xmlns="http://www.w3.org/2000/svg"
 width="515.000000pt" height="142.000000pt" viewBox="0 0 515.000000 142.000000"
 preserveAspectRatio="xMidYMid meet">
<metadata>
Created by potrace 1.14, written by Peter Selinger 2001-2017
</metadata>
<g transform="translate(0.000000,142.000000) scale(0.100000,-0.100000)"
fill="#000000" stroke="none">
<path fill="#000000" stroke="none" d="M3575 1389 c-59 -26 -89 -49 -195 -153
-69 -67 -153 -145 -186 -174 l-62 -52 -150 0 -150 0 -35 47 -35 47 19 54 c11
31 19 57 19 59 0 1 -44 3 -99 3 l-98 0 -230 -89 c-138 -54 -324 -137 -470
-210 -212 -106 -277 -133 -533 -220 -160 -56 -306 -111 -323 -123 -18 -12 -91
-66 -163 -118 -121 -88 -164 -111 -509 -275 l-378 -180 174 -3 c96 -2 1011 2
2033 7 l1859 10 543 198 c298 109 540 200 538 202 -3 4 -685 30 -801 31 -54 0
-67 4 -96 30 l-34 29 -236 7 -237 7 0 127 0 128 -89 54 -90 54 155 155 154
154 0 57 0 58 -110 55 c-60 30 -111 55 -112 55 -2 -1 -34 -14 -73 -31z"/>
</g>
</svg>
