<?xml version="1.0" standalone="no"?>
<!DOCTYPE svg PUBLIC "-//W3C//DTD SVG 20010904//EN"
 "http://www.w3.org/TR/2001/REC-SVG-20010904/DTD/svg10.dtd">
<svg version="1.0" xmlns="http://www.w3.org/2000/svg"
 width="28.000000pt" height="30.000000pt" viewBox="0 0 28.000000 30.000000"
 preserveAspectRatio="xMidYMid meet">
<metadata>
Created by potrace 1.14, written by Peter Selinger 2001-2017
</metadata>
<g transform="translate(0.000000,30.000000) scale(0.100000,-0.100000)"
fill="#000000" stroke="none">
<path fill="#000000" stroke="none" d="M144 275 c-9 -14 -14 -36 -12 -50 5
-22 -1 -28 -37 -44 -37 -16 -45 -26 -68 -84 -15 -37 -24 -73 -21 -82 8 -21 77
-20 110 2 16 10 44 16 75 15 105 -2 122 78 30 138 -22 15 -23 17 -9 45 17 33
14 54 -10 73 -24 18 -40 15 -58 -13z"/>
</g>
</svg>
