<?xml version="1.0" standalone="no"?>
<!DOCTYPE svg PUBLIC "-//W3C//DTD SVG 20010904//EN"
 "http://www.w3.org/TR/2001/REC-SVG-20010904/DTD/svg10.dtd">
<svg version="1.0" xmlns="http://www.w3.org/2000/svg"
 width="64.000000pt" height="232.000000pt" viewBox="0 0 64.000000 232.000000"
 preserveAspectRatio="xMidYMid meet">
<metadata>
Created by potrace 1.14, written by Peter Selinger 2001-2017
</metadata>
<g transform="translate(0.000000,232.000000) scale(0.100000,-0.100000)"
fill="#000000" stroke="none">
<path fill="#000000" stroke="none" d="M351 2298 c-18 -12 -54 -53 -78 -92
l-45 -70 40 -85 c23 -47 43 -104 46 -127 6 -39 3 -44 -64 -121 -41 -47 -82
-107 -99 -145 -26 -60 -29 -78 -37 -239 -10 -197 -6 -366 7 -391 6 -11 4 -51
-5 -110 -8 -51 -29 -226 -46 -388 -21 -199 -38 -312 -51 -348 -10 -30 -19 -76
-19 -102 0 -48 1 -49 38 -60 20 -5 53 -13 73 -16 36 -6 36 -6 58 47 13 33 34
143 55 284 28 189 40 244 67 305 25 59 109 295 109 307 0 2 -45 14 -103 27
-27 6 -27 7 -11 38 15 30 15 32 -1 44 -10 7 -22 15 -27 16 -5 2 -12 46 -15 98
-5 91 -4 101 41 255 26 88 49 168 52 177 3 10 52 37 128 68 l123 52 -24 82
c-37 124 -30 191 30 281 l46 70 -20 66 c-20 65 -22 67 -62 77 -23 6 -71 13
-107 16 -55 4 -71 1 -99 -16z"/>
</g>
</svg>
