<?xml version="1.0" standalone="no"?>
<!DOCTYPE svg PUBLIC "-//W3C//DTD SVG 20010904//EN"
 "http://www.w3.org/TR/2001/REC-SVG-20010904/DTD/svg10.dtd">
<svg version="1.0" xmlns="http://www.w3.org/2000/svg"
 width="20.000000pt" height="40.000000pt" viewBox="0 0 20.000000 40.000000"
 preserveAspectRatio="xMidYMid meet">
<metadata>
Created by potrace 1.14, written by Peter Selinger 2001-2017
</metadata>
<g transform="translate(0.000000,40.000000) scale(0.100000,-0.100000)"
fill="#000000" stroke="none">
<path fill="#000000" stroke="none" d="M30 373 c-18 -24 -20 -35 -14 -102 4
-42 8 -78 10 -80 2 -2 -2 -11 -10 -20 -10 -11 -12 -28 -7 -56 5 -33 11 -41 38
-48 17 -5 35 -19 40 -31 8 -16 12 -3 17 62 8 87 12 92 56 67 39 -23 43 -19 36
43 -4 31 -6 72 -6 89 1 39 -23 88 -45 97 -9 3 -34 6 -55 6 -30 0 -43 -6 -60
-27z"/>
<path fill="#000000" stroke="none" d="M108 3 c6 -2 18 -2 25 0 6 3 1 5 -13 5
-14 0 -19 -2 -12 -5z"/>
</g>
</svg>
