<?xml version="1.0" standalone="no"?>
<!DOCTYPE svg PUBLIC "-//W3C//DTD SVG 20010904//EN"
 "http://www.w3.org/TR/2001/REC-SVG-20010904/DTD/svg10.dtd">
<svg version="1.0" xmlns="http://www.w3.org/2000/svg"
 width="40.000000pt" height="86.000000pt" viewBox="0 0 40.000000 86.000000"
 preserveAspectRatio="xMidYMid meet">
<metadata>
Created by potrace 1.14, written by Peter Selinger 2001-2017
</metadata>
<g transform="translate(0.000000,86.000000) scale(0.100000,-0.100000)"
fill="#000000" stroke="none">
<path fill="#000000" stroke="none" d="M280 839 c-58 -10 -135 -23 -172 -29
l-67 -12 16 -40 c22 -55 13 -170 -22 -273 -49 -144 -45 -259 17 -429 l21 -58
103 4 c57 2 108 8 114 14 14 14 -3 60 -34 94 -41 45 -22 134 113 524 23 66 31
107 31 158 0 37 -3 68 -7 67 -5 -1 -55 -9 -113 -20z"/>
</g>
</svg>
