<?xml version="1.0" standalone="no"?>
<!DOCTYPE svg PUBLIC "-//W3C//DTD SVG 20010904//EN"
 "http://www.w3.org/TR/2001/REC-SVG-20010904/DTD/svg10.dtd">
<svg version="1.0" xmlns="http://www.w3.org/2000/svg"
 width="106.000000pt" height="366.000000pt" viewBox="0 0 106.000000 366.000000"
 preserveAspectRatio="xMidYMid meet">
<metadata>
Created by potrace 1.14, written by Peter Selinger 2001-2017
</metadata>
<g transform="translate(0.000000,366.000000) scale(0.100000,-0.100000)"
fill="#000000" stroke="none">
<path fill="#000000" stroke="none" d="M305 3563 c-116 -130 -124 -149 -125
-293 0 -104 -2 -119 -25 -155 -33 -53 -32 -116 1 -281 24 -118 26 -143 21
-299 -5 -166 -5 -170 19 -200 20 -26 22 -36 14 -61 -38 -113 -44 -179 -42
-406 l2 -228 -84 0 -84 0 9 -39 c5 -21 38 -113 74 -205 l66 -166 34 -272 c27
-218 35 -327 40 -543 l7 -270 47 -60 47 -60 101 -3 100 -3 9 143 c9 132 7 155
-16 299 l-26 156 15 164 c12 116 15 221 11 359 -4 150 -1 231 12 350 10 85 18
161 18 169 0 8 2 12 5 9 3 -3 0 -105 -5 -227 -10 -207 -9 -245 16 -549 24
-299 25 -343 16 -522 -10 -182 -9 -200 10 -276 l20 -82 95 -7 c52 -4 96 -5 99
-3 11 11 15 279 6 397 -11 134 -11 135 19 240 30 105 30 109 33 396 4 290 4
290 45 515 23 123 41 245 41 271 0 27 4 50 9 53 13 8 30 91 41 200 9 87 8 96
-21 196 l-31 105 56 129 c31 72 56 141 56 155 0 22 -69 433 -74 438 -1 1 -37
17 -81 36 l-80 34 -13 94 c-6 52 -15 113 -18 136 -5 40 -12 49 -119 137 -117
97 -119 98 -246 121 -35 7 -37 5 -124 -92z"/>
<path fill="#ffffff" stroke="none" d="M890 2368 c-6 -56 -18 -114 -26 -130
-18 -35 -18 -38 5 -38 17 0 20 -9 25 -62 12 -138 17 -298 9 -298 -4 0 -58 5
-120 11 -95 8 -126 16 -205 50 -51 23 -95 42 -97 45 -2 2 2 11 9 19 13 16 54
252 46 270 -2 5 -16 36 -30 68 -24 54 -25 57 -7 57 14 0 24 -13 36 -50 12 -36
23 -51 38 -55 71 -16 252 -54 253 -52 10 18 54 202 54 228 0 34 8 54 18 45 2
-3 -1 -51 -8 -108z"/>
<path fill="#000000" stroke="none" d="M88 2277 c-52 -37 -56 -42 -43 -57 9
-10 15 -36 15 -63 0 -47 0 -47 34 -47 33 0 34 1 40 48 14 115 18 162 15 161
-2 0 -30 -19 -61 -42z"/>
</g>
</svg>
