<?xml version="1.0" standalone="no"?>
<!DOCTYPE svg PUBLIC "-//W3C//DTD SVG 20010904//EN"
 "http://www.w3.org/TR/2001/REC-SVG-20010904/DTD/svg10.dtd">
<svg version="1.0" xmlns="http://www.w3.org/2000/svg"
 width="59.000000pt" height="142.000000pt" viewBox="0 0 59.000000 142.000000"
 preserveAspectRatio="xMidYMid meet">
<metadata>
Created by potrace 1.14, written by Peter Selinger 2001-2017
</metadata>
<g transform="translate(0.000000,142.000000) scale(0.100000,-0.100000)"
fill="#000000" stroke="none">
<path fill="#000000" stroke="none" d="M322 1410 c-43 -10 -44 -11 -76 -97
-25 -66 -27 -78 -17 -123 6 -28 11 -55 11 -60 0 -5 -27 -28 -60 -50 -74 -50
-121 -112 -155 -205 -29 -82 -35 -197 -10 -231 8 -12 12 -24 9 -26 -2 -3 4
-11 13 -19 17 -13 17 -13 3 6 -15 20 -14 20 8 1 23 -20 30 -32 12 -21 -20 13
-9 -13 12 -27 21 -14 21 -15 5 -63 -24 -69 -21 -89 18 -148 19 -28 35 -56 35
-62 0 -5 -13 -44 -30 -85 -33 -85 -39 -154 -14 -181 16 -17 19 -13 61 71 25
50 51 90 59 90 37 0 43 77 14 190 -13 50 -16 78 -9 86 5 7 7 23 4 36 -5 21 -3
25 17 24 18 -1 24 5 26 29 2 17 14 65 28 108 l26 77 103 0 103 0 31 50 c17 28
31 64 31 80 0 17 -18 70 -40 119 -22 49 -40 94 -40 100 0 21 37 85 63 109 l25
24 -19 55 c-25 75 -72 131 -112 137 -74 11 -104 12 -135 6z"/>
</g>
</svg>
