<?xml version="1.0" standalone="no"?>
<!DOCTYPE svg PUBLIC "-//W3C//DTD SVG 20010904//EN"
 "http://www.w3.org/TR/2001/REC-SVG-20010904/DTD/svg10.dtd">
<svg version="1.0" xmlns="http://www.w3.org/2000/svg"
 width="10.000000pt" height="35.000000pt" viewBox="0 0 10.000000 35.000000"
 preserveAspectRatio="xMidYMid meet">
<metadata>
Created by potrace 1.14, written by Peter Selinger 2001-2017
</metadata>
<g transform="translate(0.000000,35.000000) scale(0.100000,-0.100000)"
fill="#000000" stroke="none">
<path fill="#000000" stroke="none" d="M30 322 c0 -16 -4 -42 -9 -58 -16 -48
-20 -264 -5 -264 12 0 17 15 30 99 4 30 9 39 15 30 5 -8 9 -23 9 -34 1 -11 7
-33 14 -50 12 -27 13 -23 8 45 -2 41 -9 81 -15 88 -7 9 -5 18 6 30 12 13 14
30 9 77 -7 56 -9 60 -34 63 -25 3 -28 0 -28 -26z"/>
</g>
</svg>
