<?xml version="1.0" standalone="no"?>
<!DOCTYPE svg PUBLIC "-//W3C//DTD SVG 20010904//EN"
 "http://www.w3.org/TR/2001/REC-SVG-20010904/DTD/svg10.dtd">
<svg version="1.0" xmlns="http://www.w3.org/2000/svg"
 width="93.000000pt" height="263.000000pt" viewBox="0 0 93.000000 263.000000"
 preserveAspectRatio="xMidYMid meet">
<metadata>
Created by potrace 1.14, written by Peter Selinger 2001-2017
</metadata>
<g transform="translate(0.000000,263.000000) scale(0.100000,-0.100000)"
fill="#000000" stroke="none">
<path fill="#000000" stroke="none" d="M477 2599 l-78 -31 -45 -90 c-44 -88
-45 -93 -50 -207 -5 -96 -11 -134 -40 -223 l-35 -108 16 -81 c19 -101 19 -99
-4 -99 -17 0 -19 -15 -25 -232 -7 -216 -3 -285 20 -397 l5 -24 27 26 c42 41
67 28 91 -47 33 -103 39 -148 25 -189 -7 -20 -14 -76 -15 -125 -1 -73 -7 -102
-36 -177 -19 -49 -49 -155 -67 -235 l-33 -144 -116 -51 c-64 -27 -117 -55
-117 -60 0 -6 43 -32 95 -58 88 -43 101 -47 169 -47 109 0 106 -3 106 103 0
87 1 92 41 161 53 91 137 302 174 433 16 57 31 103 35 103 4 0 23 -35 43 -77
26 -58 41 -111 57 -207 12 -77 17 -133 12 -138 -5 -5 -46 -31 -91 -57 -66 -38
-88 -57 -116 -102 -19 -29 -35 -58 -35 -62 0 -8 122 -4 268 9 l63 6 56 84 57
85 -53 187 c-29 103 -73 248 -96 323 -40 124 -44 145 -45 250 l-2 114 61 170
61 170 0 210 c0 181 -4 228 -25 344 -19 102 -25 168 -25 273 l0 139 -116 55
c-63 30 -121 54 -127 54 -7 -1 -47 -14 -90 -31z"/>
</g>
</svg>
