<?xml version="1.0" standalone="no"?>
<!DOCTYPE svg PUBLIC "-//W3C//DTD SVG 20010904//EN"
 "http://www.w3.org/TR/2001/REC-SVG-20010904/DTD/svg10.dtd">
<svg version="1.0" xmlns="http://www.w3.org/2000/svg"
 width="11.000000pt" height="40.000000pt" viewBox="0 0 11.000000 40.000000"
 preserveAspectRatio="xMidYMid meet">
<metadata>
Created by potrace 1.14, written by Peter Selinger 2001-2017
</metadata>
<g transform="translate(0.000000,40.000000) scale(0.100000,-0.100000)"
fill="#000000" stroke="none">
<path fill="#000000" stroke="none" d="M42 391 c-8 -4 -12 -17 -10 -27 2 -11
-4 -28 -14 -38 -30 -32 -23 -176 8 -176 17 0 19 -46 4 -85 -14 -37 3 -65 38
-64 15 0 22 3 15 5 -9 4 -9 12 -2 32 16 43 32 263 20 287 -6 11 -11 31 -13 45
-3 26 -24 36 -46 21z"/>
</g>
</svg>
