<?xml version="1.0" standalone="no"?>
<!DOCTYPE svg PUBLIC "-//W3C//DTD SVG 20010904//EN"
 "http://www.w3.org/TR/2001/REC-SVG-20010904/DTD/svg10.dtd">
<svg version="1.0" xmlns="http://www.w3.org/2000/svg"
 width="54.000000pt" height="52.000000pt" viewBox="0 0 54.000000 52.000000"
 preserveAspectRatio="xMidYMid meet">
<metadata>
Created by potrace 1.14, written by Peter Selinger 2001-2017
</metadata>
<g transform="translate(0.000000,52.000000) scale(0.100000,-0.100000)"
fill="#000000" stroke="none">
<path fill="#000000" stroke="none" d="M124 513 c-24 -17 -32 -49 -24 -98 11
-66 -17 -136 -67 -166 -31 -19 -33 -25 -27 -53 8 -36 50 -88 111 -134 41 -31
45 -32 97 -24 44 7 80 4 173 -14 161 -32 157 -32 148 14 -8 45 -18 61 -80 130
-30 34 -55 52 -70 52 -27 0 -49 22 -35 36 6 6 -5 18 -30 34 -42 26 -60 61 -83
165 l-13 60 -45 3 c-24 1 -49 -1 -55 -5z"/>
</g>
</svg>
