<?xml version="1.0" standalone="no"?>
<!DOCTYPE svg PUBLIC "-//W3C//DTD SVG 20010904//EN"
 "http://www.w3.org/TR/2001/REC-SVG-20010904/DTD/svg10.dtd">
<svg version="1.0" xmlns="http://www.w3.org/2000/svg"
 width="78.000000pt" height="211.000000pt" viewBox="0 0 78.000000 211.000000"
 preserveAspectRatio="xMidYMid meet">
<metadata>
Created by potrace 1.14, written by Peter Selinger 2001-2017
</metadata>
<g transform="translate(0.000000,211.000000) scale(0.100000,-0.100000)"
fill="#000000" stroke="none">
<path fill="#000000" stroke="none" d="M359 2098 c-33 -14 -55 -54 -70 -130
-8 -42 -20 -72 -38 -91 -14 -15 -41 -58 -61 -95 -25 -48 -45 -72 -70 -86 -34
-18 -37 -23 -68 -145 -26 -104 -51 -233 -52 -275 0 -5 23 13 51 39 49 46 53
47 100 43 37 -4 52 -1 62 11 7 9 44 83 82 164 53 114 71 144 76 129 4 -11 12
-71 19 -133 l11 -114 -108 -187 -107 -186 -64 59 c-58 54 -66 59 -84 47 -10
-7 -19 -16 -19 -20 1 -5 1 -23 1 -41 0 -19 9 -42 22 -57 32 -36 103 -123 110
-135 4 -6 1 -37 -6 -70 -9 -47 -9 -74 0 -125 13 -67 13 -427 1 -447 -7 -12 8
-209 18 -236 6 -14 20 -17 71 -17 l64 0 0 40 c0 28 4 40 15 40 8 0 19 9 25 19
13 26 13 197 -1 223 -9 16 -7 24 10 42 18 19 19 26 9 66 -16 66 -10 166 11
208 l18 35 24 -74 c31 -96 34 -234 6 -295 -17 -37 -17 -49 -7 -105 6 -35 13
-80 14 -99 l3 -35 109 -22 c121 -24 164 -27 164 -14 0 5 -24 19 -54 32 l-54
24 20 39 c17 34 19 50 13 140 -6 94 -5 106 19 170 32 84 33 138 4 193 -20 37
-21 46 -10 76 10 27 9 43 -3 83 -21 68 -19 107 6 130 17 16 22 16 30 4 25 -39
29 -53 23 -85 l-6 -34 33 9 c59 17 62 27 45 113 -9 42 -16 101 -16 131 0 43
-84 453 -116 563 -3 12 -30 41 -60 63 l-54 41 0 62 c0 38 10 93 25 142 29 94
29 95 11 95 -7 0 -25 17 -39 39 -33 49 -93 64 -158 39z"/>
</g>
</svg>
