<?xml version="1.0" standalone="no"?>
<!DOCTYPE svg PUBLIC "-//W3C//DTD SVG 20010904//EN"
 "http://www.w3.org/TR/2001/REC-SVG-20010904/DTD/svg10.dtd">
<svg version="1.0" xmlns="http://www.w3.org/2000/svg"
 width="15.000000pt" height="81.000000pt" viewBox="0 0 15.000000 81.000000"
 preserveAspectRatio="xMidYMid meet">
<metadata>
Created by potrace 1.14, written by Peter Selinger 2001-2017
</metadata>
<g transform="translate(0.000000,81.000000) scale(0.100000,-0.100000)"
fill="#000000" stroke="none">
<path fill="#000000" stroke="none" d="M107 793 c-3 -10 -8 -30 -11 -45 -4
-19 -19 -34 -45 -47 l-39 -20 -4 -98 c-2 -54 -1 -111 2 -128 6 -25 9 -18 19
45 20 116 30 148 54 165 12 8 17 16 12 16 -6 1 4 4 20 8 20 4 30 12 29 24 0 9
-1 35 -2 57 -2 42 -26 57 -35 23z"/>
<path fill="#000000" stroke="none" d="M53 235 c3 -22 11 -84 18 -138 l11 -97
35 0 c31 0 35 2 30 23 -3 12 -9 47 -13 77 -7 59 -41 137 -70 161 -16 13 -17
11 -11 -26z"/>
</g>
</svg>
