<?xml version="1.0" standalone="no"?>
<!DOCTYPE svg PUBLIC "-//W3C//DTD SVG 20010904//EN"
 "http://www.w3.org/TR/2001/REC-SVG-20010904/DTD/svg10.dtd">
<svg version="1.0" xmlns="http://www.w3.org/2000/svg"
 width="33.000000pt" height="71.000000pt" viewBox="0 0 33.000000 71.000000"
 preserveAspectRatio="xMidYMid meet">
<metadata>
Created by potrace 1.14, written by Peter Selinger 2001-2017
</metadata>
<g transform="translate(0.000000,71.000000) scale(0.100000,-0.100000)"
fill="#000000" stroke="none">
<path fill="#000000" stroke="none" d="M80 691 c0 -9 -10 -23 -23 -30 -32 -17
-47 -45 -54 -100 -4 -36 -1 -50 11 -60 9 -8 28 -51 42 -98 20 -66 24 -95 19
-137 -5 -39 -3 -61 8 -83 12 -22 13 -39 7 -69 -5 -21 -10 -57 -10 -78 l0 -39
53 6 c69 9 81 25 72 97 -13 94 -10 112 38 232 26 64 47 127 47 141 0 14 9 44
20 68 26 59 26 65 -17 104 -31 29 -47 35 -103 41 -36 4 -75 10 -87 15 -19 7
-23 5 -23 -10z"/>
</g>
</svg>
