<?xml version="1.0" standalone="no"?>
<!DOCTYPE svg PUBLIC "-//W3C//DTD SVG 20010904//EN"
 "http://www.w3.org/TR/2001/REC-SVG-20010904/DTD/svg10.dtd">
<svg version="1.0" xmlns="http://www.w3.org/2000/svg"
 width="285.000000pt" height="351.000000pt" viewBox="0 0 285.000000 351.000000"
 preserveAspectRatio="xMidYMid meet">
<metadata>
Created by potrace 1.14, written by Peter Selinger 2001-2017
</metadata>
<g transform="translate(0.000000,351.000000) scale(0.100000,-0.100000)"
fill="#000000" stroke="none">
<path fill="#000000" stroke="none" d="M1415 3481 c-101 -33 -137 -61 -167
-131 l-24 -55 18 -95 c14 -70 19 -138 18 -261 l-1 -165 47 -90 c26 -49 58
-101 72 -116 13 -15 31 -50 38 -78 12 -49 12 -54 -8 -81 -12 -16 -39 -41 -60
-56 -47 -32 -136 -155 -172 -238 -49 -110 -106 -369 -106 -482 l0 -74 -92
-156 c-112 -188 -118 -193 -384 -326 -141 -70 -238 -110 -380 -157 l-191 -63
-12 -130 c-7 -71 -11 -130 -9 -131 2 -1 31 -11 66 -21 91 -27 195 -9 309 52
90 49 88 45 95 168 l3 40 280 62 c154 34 286 62 293 62 21 1 14 -184 -13 -367
-24 -153 -25 -177 -15 -290 5 -68 10 -132 10 -143 0 -15 14 -26 52 -43 44 -20
107 -29 366 -56 280 -29 314 -31 330 -17 9 8 33 17 52 20 19 3 100 22 180 42
113 29 153 35 180 28 40 -9 49 -36 24 -68 -13 -17 -30 -21 -122 -25 l-107 -5
53 -13 c29 -6 112 -15 184 -19 l131 -6 -6 64 c-6 62 -4 67 42 154 73 136 105
242 98 324 -4 49 0 85 15 143 21 76 21 76 112 156 77 68 104 99 164 196 l72
116 0 125 0 125 -103 333 -104 332 -109 106 c-60 59 -125 120 -144 136 -39 34
-343 254 -406 295 -41 26 -41 26 -70 140 -3 9 19 44 56 86 l61 71 -25 108
c-56 242 -124 416 -176 447 -34 20 -228 56 -295 55 -22 -1 -76 -13 -120 -28z"/>
</g>
</svg>
