<?xml version="1.0" standalone="no"?>
<!DOCTYPE svg PUBLIC "-//W3C//DTD SVG 20010904//EN"
 "http://www.w3.org/TR/2001/REC-SVG-20010904/DTD/svg10.dtd">
<svg version="1.0" xmlns="http://www.w3.org/2000/svg"
 width="162.000000pt" height="312.000000pt" viewBox="0 0 162.000000 312.000000"
 preserveAspectRatio="xMidYMid meet">
<metadata>
Created by potrace 1.14, written by Peter Selinger 2001-2017
</metadata>
<g transform="translate(0.000000,312.000000) scale(0.100000,-0.100000)"
fill="#000000" stroke="none">
<path fill="#000000" stroke="none" d="M74 3095 c-4 -15 -2 -120 4 -234 l10
-206 -42 -411 -42 -411 93 -349 c115 -436 111 -424 126 -424 7 -1 38 -38 70
-83 32 -45 64 -90 72 -100 12 -17 23 -16 233 24 l219 42 -5 63 c-6 86 9 119
67 149 l47 23 17 -61 c9 -34 24 -103 33 -153 15 -90 16 -92 46 -98 17 -3 45
-6 63 -6 44 0 53 -22 65 -170 5 -69 19 -179 30 -245 13 -80 20 -168 20 -265
l0 -146 43 -15 c52 -20 97 -9 98 24 0 12 10 350 23 752 l22 730 -23 485 -24
485 22 165 c12 91 23 167 25 169 2 2 54 16 116 31 62 15 113 31 113 36 0 5 -8
48 -19 96 l-18 87 -42 5 c-22 3 -264 10 -536 16 -272 6 -590 13 -707 17 l-212
6 -7 -28z"/>
<path fill="#000000" stroke="none" d="M599 668 l-196 -70 34 -151 c19 -84 55
-218 80 -299 l46 -148 159 0 159 0 -5 43 c-3 23 -8 90 -11 148 -3 59 -13 128
-21 154 -8 27 -14 81 -14 122 0 58 -25 263 -33 269 -1 1 -90 -30 -198 -68z"/>
</g>
</svg>
