<?xml version="1.0" standalone="no"?>
<!DOCTYPE svg PUBLIC "-//W3C//DTD SVG 20010904//EN"
 "http://www.w3.org/TR/2001/REC-SVG-20010904/DTD/svg10.dtd">
<svg version="1.0" xmlns="http://www.w3.org/2000/svg"
 width="18.000000pt" height="48.000000pt" viewBox="0 0 18.000000 48.000000"
 preserveAspectRatio="xMidYMid meet">
<metadata>
Created by potrace 1.14, written by Peter Selinger 2001-2017
</metadata>
<g transform="translate(0.000000,48.000000) scale(0.100000,-0.100000)"
fill="#000000" stroke="none">
<path fill="#000000" stroke="none" d="M4 465 c-4 -9 0 -23 9 -33 8 -9 22 -42
31 -72 22 -71 55 -309 44 -316 -4 -3 -8 -14 -8 -25 0 -13 7 -19 21 -19 21 0
21 3 15 93 -3 50 -7 99 -7 107 0 8 6 37 14 64 13 45 15 47 20 24 4 -14 13 -28
21 -31 28 -11 -23 87 -80 153 -12 14 -24 34 -26 45 -4 25 -46 33 -54 10z"/>
</g>
</svg>
