<?xml version="1.0" standalone="no"?>
<!DOCTYPE svg PUBLIC "-//W3C//DTD SVG 20010904//EN"
 "http://www.w3.org/TR/2001/REC-SVG-20010904/DTD/svg10.dtd">
<svg version="1.0" xmlns="http://www.w3.org/2000/svg"
 width="46.000000pt" height="80.000000pt" viewBox="0 0 46.000000 80.000000"
 preserveAspectRatio="xMidYMid meet">
<metadata>
Created by potrace 1.14, written by Peter Selinger 2001-2017
</metadata>
<g transform="translate(0.000000,80.000000) scale(0.100000,-0.100000)"
fill="#000000" stroke="none">
<path fill="#000000" stroke="none" d="M235 788 c-55 -6 -101 -11 -103 -13
-11 -11 25 -96 54 -126 l35 -36 -41 -12 c-59 -18 -75 -53 -75 -173 -1 -86 -3
-100 -23 -121 -19 -20 -22 -34 -22 -110 0 -47 -4 -88 -10 -92 -14 -9 -53 -66
-43 -64 27 5 43 -3 43 -21 0 -18 7 -20 88 -20 103 0 257 16 293 31 l25 10 -32
317 c-39 378 -50 443 -73 441 -9 -1 -61 -6 -116 -11z"/>
</g>
</svg>
