<?xml version="1.0" standalone="no"?>
<!DOCTYPE svg PUBLIC "-//W3C//DTD SVG 20010904//EN"
 "http://www.w3.org/TR/2001/REC-SVG-20010904/DTD/svg10.dtd">
<svg version="1.0" xmlns="http://www.w3.org/2000/svg"
 width="56.000000pt" height="174.000000pt" viewBox="0 0 56.000000 174.000000"
 preserveAspectRatio="xMidYMid meet">
<metadata>
Created by potrace 1.14, written by Peter Selinger 2001-2017
</metadata>
<g transform="translate(0.000000,174.000000) scale(0.100000,-0.100000)"
fill="#000000" stroke="none">
<path fill="#000000" stroke="none" d="M197 1696 l-36 -43 25 -84 26 -83 -53
-45 c-122 -105 -109 -80 -134 -247 l-23 -149 40 -57 40 -56 30 -414 c36 -475
29 -449 138 -492 36 -15 72 -26 80 -26 22 0 214 42 222 49 4 3 -6 134 -22 291
-16 157 -35 383 -41 503 l-12 218 42 43 42 43 -33 133 -33 133 -67 26 -68 26
0 131 0 131 -46 7 c-75 10 -80 8 -117 -38z"/>
</g>
</svg>
