<?xml version="1.0" standalone="no"?>
<!DOCTYPE svg PUBLIC "-//W3C//DTD SVG 20010904//EN"
 "http://www.w3.org/TR/2001/REC-SVG-20010904/DTD/svg10.dtd">
<svg version="1.0" xmlns="http://www.w3.org/2000/svg"
 width="8.000000pt" height="26.000000pt" viewBox="0 0 8.000000 26.000000"
 preserveAspectRatio="xMidYMid meet">
<metadata>
Created by potrace 1.14, written by Peter Selinger 2001-2017
</metadata>
<g transform="translate(0.000000,26.000000) scale(0.100000,-0.100000)"
fill="#000000" stroke="none">
<path fill="#000000" stroke="none" d="M36 253 c-3 -3 -6 -43 -6 -87 -1 -51
-6 -90 -15 -106 -25 -44 -19 -60 20 -60 34 0 35 1 35 40 0 22 -7 56 -14 75
-10 22 -11 35 -4 35 6 0 8 11 5 26 -3 16 0 28 9 31 8 3 14 11 14 19 0 15 -34
37 -44 27z"/>
</g>
</svg>
