<?xml version="1.0" standalone="no"?>
<!DOCTYPE svg PUBLIC "-//W3C//DTD SVG 20010904//EN"
 "http://www.w3.org/TR/2001/REC-SVG-20010904/DTD/svg10.dtd">
<svg version="1.0" xmlns="http://www.w3.org/2000/svg"
 width="60.000000pt" height="150.000000pt" viewBox="0 0 60.000000 150.000000"
 preserveAspectRatio="xMidYMid meet">
<metadata>
Created by potrace 1.14, written by Peter Selinger 2001-2017
</metadata>
<g transform="translate(0.000000,150.000000) scale(0.100000,-0.100000)"
fill="#000000" stroke="none">
<path fill="#000000" stroke="none" d="M358 1186 l-157 -314 -101 -73 c-55
-40 -100 -76 -100 -79 0 -4 51 -112 114 -241 l114 -234 146 -122 c112 -95 153
-123 175 -123 l28 0 7 88 c3 48 9 160 12 250 l7 163 -36 37 c-19 20 -42 55
-51 76 -16 39 -16 41 14 113 l31 74 -16 317 c-9 174 -19 332 -23 350 -6 30
-19 9 -164 -282z"/>
</g>
</svg>
