<?xml version="1.0" standalone="no"?>
<!DOCTYPE svg PUBLIC "-//W3C//DTD SVG 20010904//EN"
 "http://www.w3.org/TR/2001/REC-SVG-20010904/DTD/svg10.dtd">
<svg version="1.0" xmlns="http://www.w3.org/2000/svg"
 width="270.000000pt" height="188.000000pt" viewBox="0 0 270.000000 188.000000"
 preserveAspectRatio="xMidYMid meet">
<metadata>
Created by potrace 1.14, written by Peter Selinger 2001-2017
</metadata>
<g transform="translate(0.000000,188.000000) scale(0.100000,-0.100000)"
fill="#000000" stroke="none">
<path fill="#000000" stroke="none" d="M2546 1868 c-3 -7 -7 -49 -9 -94 -5
-75 -9 -88 -68 -200 -34 -65 -64 -121 -65 -122 -1 -2 -195 -53 -431 -113 -267
-68 -447 -109 -478 -109 -27 0 -108 14 -180 30 -71 16 -133 26 -136 22 -11
-12 -114 -320 -109 -325 3 -2 45 -32 94 -65 52 -36 83 -64 75 -66 -69 -24
-303 -95 -304 -93 -1 1 -23 49 -50 105 -57 119 -33 102 -300 220 -88 39 -213
101 -279 138 l-118 67 -92 -63 c-50 -35 -92 -64 -94 -65 -1 -1 7 -28 19 -59
15 -39 28 -58 43 -61 12 -3 73 -17 136 -30 84 -19 121 -31 136 -48 12 -12 101
-113 198 -224 l177 -203 268 -2 269 -3 -26 -65 c-14 -36 -74 -148 -133 -250
-59 -102 -106 -186 -104 -188 5 -6 246 100 303 133 64 38 95 73 664 746 59 70
223 252 365 406 l258 279 63 148 c35 82 62 149 60 151 -2 1 -36 5 -76 9 -54 5
-74 3 -76 -6z"/>
</g>
</svg>
