<?xml version="1.0" standalone="no"?>
<!DOCTYPE svg PUBLIC "-//W3C//DTD SVG 20010904//EN"
 "http://www.w3.org/TR/2001/REC-SVG-20010904/DTD/svg10.dtd">
<svg version="1.0" xmlns="http://www.w3.org/2000/svg"
 width="41.000000pt" height="72.000000pt" viewBox="0 0 41.000000 72.000000"
 preserveAspectRatio="xMidYMid meet">
<metadata>
Created by potrace 1.14, written by Peter Selinger 2001-2017
</metadata>
<g transform="translate(0.000000,72.000000) scale(0.100000,-0.100000)"
fill="#000000" stroke="none">
<path fill="#000000" stroke="none" d="M280 693 c-19 -13 -53 -43 -75 -67 -22
-24 -58 -52 -80 -64 -45 -23 -57 -40 -95 -132 -26 -64 -26 -68 -19 -210 4 -80
8 -162 8 -183 l1 -39 178 7 c97 4 178 9 180 10 2 2 -4 17 -12 34 -10 19 -16
56 -16 99 0 38 -7 91 -15 118 -8 27 -15 65 -15 85 0 22 -10 51 -24 72 l-24 35
34 18 c19 10 34 24 34 30 0 13 22 24 49 24 16 0 17 5 6 58 -14 64 -42 119 -65
125 -8 2 -31 -7 -50 -20z"/>
</g>
</svg>
