<?xml version="1.0" standalone="no"?>
<!DOCTYPE svg PUBLIC "-//W3C//DTD SVG 20010904//EN"
 "http://www.w3.org/TR/2001/REC-SVG-20010904/DTD/svg10.dtd">
<svg version="1.0" xmlns="http://www.w3.org/2000/svg"
 width="100.000000pt" height="156.000000pt" viewBox="0 0 100.000000 156.000000"
 preserveAspectRatio="xMidYMid meet">
<metadata>
Created by potrace 1.14, written by Peter Selinger 2001-2017
</metadata>
<g transform="translate(0.000000,156.000000) scale(0.100000,-0.100000)"
fill="#000000" stroke="none">
<path fill="#000000" stroke="none" d="M160 1554 c0 -43 39 -216 62 -273 l29
-74 -42 -71 c-24 -39 -80 -115 -126 -168 -46 -53 -83 -100 -83 -105 0 -4 87
-56 194 -114 l193 -106 6 75 c4 57 11 80 26 95 l20 21 -34 46 -35 47 57 12
c70 14 74 14 97 -4 18 -14 18 -15 -9 -51 -27 -35 -27 -38 -17 -99 9 -57 8 -70
-13 -127 l-24 -65 43 -36 c29 -23 98 -121 212 -297 l169 -263 7 284 c4 156 13
307 19 336 8 34 25 68 50 99 l39 46 0 103 0 102 -37 16 c-21 10 -85 35 -143
56 l-105 39 0 79 c1 43 5 135 9 204 5 69 6 143 2 163 l-7 36 -279 0 c-154 0
-280 -3 -280 -6z"/>
</g>
</svg>
