<?xml version="1.0" standalone="no"?>
<!DOCTYPE svg PUBLIC "-//W3C//DTD SVG 20010904//EN"
 "http://www.w3.org/TR/2001/REC-SVG-20010904/DTD/svg10.dtd">
<svg version="1.0" xmlns="http://www.w3.org/2000/svg"
 width="489.000000pt" height="365.000000pt" viewBox="0 0 489.000000 365.000000"
 preserveAspectRatio="xMidYMid meet">
<metadata>
Created by potrace 1.14, written by Peter Selinger 2001-2017
</metadata>
<g transform="translate(0.000000,365.000000) scale(0.100000,-0.100000)"
fill="#000000" stroke="none">
<path fill="#000000" stroke="none" d="M2130 3640 c-212 -4 -386 -7 -387 -8 0
-1 38 -157 86 -346 l86 -343 -34 10 c-35 9 -36 8 -106 -66 l-70 -75 -286 -100
c-283 -99 -287 -101 -360 -96 l-74 5 -195 -265 c-107 -147 -195 -275 -195
-285 0 -11 -9 -30 -21 -43 -25 -27 -148 -298 -159 -348 -8 -39 -40 -107 -61
-131 -45 -51 -307 -675 -335 -800 l-21 -88 35 -83 c19 -46 49 -117 67 -159
l32 -75 259 -147 259 -147 170 85 c93 47 172 85 174 85 2 0 -13 -46 -34 -102
-20 -57 -37 -104 -36 -104 1 -1 105 -4 232 -8 l231 -6 29 27 c80 75 160 132
242 172 l91 44 25 71 c13 39 45 143 69 231 25 88 63 200 86 249 34 73 43 104
47 166 4 60 2 79 -10 89 -14 12 -11 41 9 71 13 19 119 98 208 155 76 48 76 46
-30 65 l-61 11 -139 -64 c-76 -35 -176 -77 -223 -92 -47 -16 -108 -39 -136
-51 -45 -20 -60 -22 -115 -14 -35 4 -87 11 -115 14 l-52 6 -47 -112 c-26 -62
-51 -117 -56 -122 -5 -6 -9 -22 -9 -36 0 -27 -62 -94 -126 -138 -70 -48 -198
-32 -230 29 -8 17 -26 34 -38 39 -21 8 -25 18 -31 79 -4 39 -11 71 -16 71 -5
0 -9 -4 -9 -10 0 -6 -9 -6 -22 -1 -15 5 -34 3 -55 -7 -27 -13 -38 -13 -77 -2
-29 8 -48 19 -52 32 -4 13 -12 18 -24 15 -16 -4 -19 11 -32 162 l-14 166 182
185 c211 214 237 254 248 383 6 64 4 84 -9 103 -14 22 -14 30 -1 72 29 97 172
392 190 392 7 0 23 11 35 24 38 41 136 59 261 48 153 -12 175 -13 281 -12 l95
1 56 -41 c31 -22 63 -40 72 -40 8 0 20 -9 25 -19 6 -10 41 -40 78 -67 38 -26
120 -102 183 -168 63 -67 143 -151 178 -187 56 -59 63 -72 69 -117 l6 -52 39
31 c56 45 119 59 186 42 29 -8 62 -11 73 -8 14 5 48 -10 112 -48 88 -53 98
-56 231 -78 153 -25 171 -33 334 -146 120 -83 129 -98 144 -235 7 -62 12 -185
10 -272 l-2 -160 -35 -32 c-19 -17 -35 -41 -35 -52 0 -15 -9 -21 -37 -27 -62
-11 -78 -29 -142 -152 -57 -108 -63 -128 -81 -240 -11 -68 -20 -155 -20 -195
0 -48 -3 -68 -9 -59 -7 11 -11 6 -15 -20 -4 -19 -10 -55 -15 -81 l-8 -47 48
-20 c48 -19 54 -19 811 -6 420 8 789 15 821 15 l57 0 0 388 -1 387 -347 817
-347 816 -232 179 -233 178 -202 74 c-217 79 -437 167 -452 181 -5 5 2 94 18
212 15 112 30 245 33 296 l6 92 -309 -2 c-170 -1 -482 -5 -694 -8z"/>
</g>
</svg>
