<?xml version="1.0" standalone="no"?>
<!DOCTYPE svg PUBLIC "-//W3C//DTD SVG 20010904//EN"
 "http://www.w3.org/TR/2001/REC-SVG-20010904/DTD/svg10.dtd">
<svg version="1.0" xmlns="http://www.w3.org/2000/svg"
 width="20.000000pt" height="54.000000pt" viewBox="0 0 20.000000 54.000000"
 preserveAspectRatio="xMidYMid meet">
<metadata>
Created by potrace 1.14, written by Peter Selinger 2001-2017
</metadata>
<g transform="translate(0.000000,54.000000) scale(0.100000,-0.100000)"
fill="#000000" stroke="none">
<path fill="#000000" stroke="none" d="M75 520 c-22 -10 -48 -19 -57 -19 -27
-1 -23 -37 17 -153 34 -97 35 -107 26 -167 -8 -52 -7 -72 7 -114 15 -47 21
-52 55 -60 33 -8 42 -6 58 10 16 15 17 24 9 53 -6 21 -8 94 -4 185 l6 150 -30
68 c-17 37 -35 67 -39 66 -4 0 -26 -9 -48 -19z"/>
</g>
</svg>
