<?xml version="1.0" standalone="no"?>
<!DOCTYPE svg PUBLIC "-//W3C//DTD SVG 20010904//EN"
 "http://www.w3.org/TR/2001/REC-SVG-20010904/DTD/svg10.dtd">
<svg version="1.0" xmlns="http://www.w3.org/2000/svg"
 width="49.000000pt" height="71.000000pt" viewBox="0 0 49.000000 71.000000"
 preserveAspectRatio="xMidYMid meet">
<metadata>
Created by potrace 1.14, written by Peter Selinger 2001-2017
</metadata>
<g transform="translate(0.000000,71.000000) scale(0.100000,-0.100000)"
fill="#000000" stroke="none">
<path fill="#000000" stroke="none" d="M205 701 c-79 -14 -118 -58 -98 -111
10 -26 9 -28 -16 -34 -14 -3 -41 -14 -58 -25 -43 -27 -34 -48 23 -57 24 -3 48
-12 53 -18 6 -7 14 -45 17 -84 6 -59 4 -75 -9 -90 -16 -17 -15 -19 18 -35 20
-9 42 -17 50 -17 30 0 73 -50 81 -93 l7 -42 19 40 c11 24 17 56 15 79 -3 38
-2 38 13 15 8 -13 32 -43 53 -67 26 -31 37 -53 37 -76 0 -41 9 -51 27 -28 13
15 14 14 10 -16 -4 -38 7 -49 30 -31 23 20 11 89 -26 148 -44 68 -111 244
-111 291 0 39 -28 80 -56 80 -16 0 -6 37 12 44 9 4 14 22 14 55 0 41 -4 51
-25 65 -13 9 -28 15 -32 15 -4 -1 -26 -5 -48 -8z"/>
</g>
</svg>
