<?xml version="1.0" standalone="no"?>
<!DOCTYPE svg PUBLIC "-//W3C//DTD SVG 20010904//EN"
 "http://www.w3.org/TR/2001/REC-SVG-20010904/DTD/svg10.dtd">
<svg version="1.0" xmlns="http://www.w3.org/2000/svg"
 width="72.000000pt" height="66.000000pt" viewBox="0 0 72.000000 66.000000"
 preserveAspectRatio="xMidYMid meet">
<metadata>
Created by potrace 1.14, written by Peter Selinger 2001-2017
</metadata>
<g transform="translate(0.000000,66.000000) scale(0.100000,-0.100000)"
fill="#000000" stroke="none">
<path fill="#000000" stroke="none" d="M7 653 c-4 -3 -7 -21 -7 -38 0 -54 51
-81 101 -55 18 10 19 7 20 -67 1 -111 24 -143 147 -197 17 -8 32 -21 32 -29 0
-22 34 -47 64 -47 27 0 65 -32 66 -56 0 -6 11 -31 25 -55 14 -24 28 -51 31
-59 15 -33 38 -50 70 -50 55 0 66 27 118 285 12 61 27 120 34 132 31 56 3 123
-52 123 -52 0 -60 -16 -92 -175 -2 -11 -10 -47 -17 -80 l-14 -60 -11 40 c-7
22 -12 48 -12 58 0 10 -5 27 -11 38 -14 27 -18 131 -6 192 11 67 -8 97 -62 97
-44 0 -71 -24 -71 -63 0 -14 -4 -29 -10 -32 -6 -3 -10 -18 -11 -33 0 -24 -3
-22 -20 18 -39 87 -137 146 -178 108 -11 -10 -14 -10 -18 0 -5 13 -104 18
-116 5z"/>
</g>
</svg>
