<?xml version="1.0" standalone="no"?>
<!DOCTYPE svg PUBLIC "-//W3C//DTD SVG 20010904//EN"
 "http://www.w3.org/TR/2001/REC-SVG-20010904/DTD/svg10.dtd">
<svg version="1.0" xmlns="http://www.w3.org/2000/svg"
 width="37.000000pt" height="80.000000pt" viewBox="0 0 37.000000 80.000000"
 preserveAspectRatio="xMidYMid meet">
<metadata>
Created by potrace 1.14, written by Peter Selinger 2001-2017
</metadata>
<g transform="translate(0.000000,80.000000) scale(0.100000,-0.100000)"
fill="#000000" stroke="none">
<path fill="#000000" stroke="none" d="M29 771 c-35 -36 -36 -50 -5 -104 34
-60 38 -102 20 -198 -22 -109 -25 -355 -5 -422 8 -27 17 -44 20 -39 3 5 42 28
87 50 l81 41 21 98 c11 54 26 126 32 160 9 45 16 60 26 56 18 -7 18 -80 -1
-158 -8 -33 -15 -65 -15 -71 0 -9 41 -34 56 -34 2 0 4 37 3 83 -1 45 4 105 11
132 19 83 5 157 -41 215 -21 27 -58 62 -82 79 -31 21 -49 43 -61 75 -20 51
-39 66 -86 66 -22 0 -41 -9 -61 -29z"/>
</g>
</svg>
