<?xml version="1.0" standalone="no"?>
<!DOCTYPE svg PUBLIC "-//W3C//DTD SVG 20010904//EN"
 "http://www.w3.org/TR/2001/REC-SVG-20010904/DTD/svg10.dtd">
<svg version="1.0" xmlns="http://www.w3.org/2000/svg"
 width="35.000000pt" height="140.000000pt" viewBox="0 0 35.000000 140.000000"
 preserveAspectRatio="xMidYMid meet">
<metadata>
Created by potrace 1.14, written by Peter Selinger 2001-2017
</metadata>
<g transform="translate(0.000000,140.000000) scale(0.100000,-0.100000)"
fill="#000000" stroke="none">
<path fill="#000000" stroke="none" d="M124 1393 c-24 -5 -34 -29 -34 -85 0
-49 16 -88 36 -88 21 0 14 -53 -22 -153 -21 -59 -54 -238 -54 -295 0 -7 10
-16 23 -21 23 -9 23 -5 28 -186 1 -27 1 -140 0 -250 -2 -178 -4 -202 -21 -222
-12 -15 -29 -23 -49 -23 -24 0 -31 -4 -31 -19 0 -27 43 -41 140 -44 81 -2 85
-1 88 20 3 17 -5 27 -31 39 -39 19 -47 41 -47 133 0 40 6 66 22 91 26 42 47
149 47 244 1 54 11 102 47 215 26 80 54 192 64 248 18 112 16 122 -35 192 -21
28 -25 45 -25 102 0 60 -3 70 -22 83 -26 16 -91 26 -124 19z"/>
</g>
</svg>
