<?xml version="1.0" standalone="no"?>
<!DOCTYPE svg PUBLIC "-//W3C//DTD SVG 20010904//EN"
 "http://www.w3.org/TR/2001/REC-SVG-20010904/DTD/svg10.dtd">
<svg version="1.0" xmlns="http://www.w3.org/2000/svg"
 width="39.000000pt" height="140.000000pt" viewBox="0 0 39.000000 140.000000"
 preserveAspectRatio="xMidYMid meet">
<metadata>
Created by potrace 1.14, written by Peter Selinger 2001-2017
</metadata>
<g transform="translate(0.000000,140.000000) scale(0.100000,-0.100000)"
fill="#000000" stroke="none">
<path fill="#000000" stroke="none" d="M108 1390 c-26 -16 -32 -64 -13 -100
l17 -32 -40 -42 c-50 -52 -61 -86 -49 -151 13 -70 9 -198 -8 -245 -13 -36 -12
-44 5 -82 16 -35 20 -66 20 -168 0 -144 7 -200 25 -200 30 0 25 -105 -10 -230
-23 -82 -23 -83 12 -93 18 -5 35 -18 38 -28 5 -14 16 -19 45 -19 21 0 42 5 45
10 4 6 -1 34 -11 62 -14 42 -16 72 -10 164 7 131 10 140 41 148 20 5 25 15 34
73 6 38 13 154 16 258 6 248 8 254 67 271 30 9 47 21 51 33 5 21 -9 41 -29 41
-19 0 -51 46 -69 100 -10 30 -24 51 -36 55 -24 8 -25 32 -2 57 9 10 17 33 17
51 1 28 -4 34 -37 49 -50 23 -98 30 -119 18z"/>
</g>
</svg>
