<?xml version="1.0" standalone="no"?>
<!DOCTYPE svg PUBLIC "-//W3C//DTD SVG 20010904//EN"
 "http://www.w3.org/TR/2001/REC-SVG-20010904/DTD/svg10.dtd">
<svg version="1.0" xmlns="http://www.w3.org/2000/svg"
 width="20.000000pt" height="83.000000pt" viewBox="0 0 20.000000 83.000000"
 preserveAspectRatio="xMidYMid meet">
<metadata>
Created by potrace 1.14, written by Peter Selinger 2001-2017
</metadata>
<g transform="translate(0.000000,83.000000) scale(0.100000,-0.100000)"
fill="#000000" stroke="none">
<path fill="#000000" stroke="none" d="M60 810 c-8 -16 -8 -28 3 -50 14 -28
14 -30 -6 -36 -35 -10 -57 -35 -57 -64 0 -21 8 -31 36 -46 l35 -19 -6 -95 -7
-95 43 -49 c48 -54 46 -70 -9 -95 -18 -8 -35 -24 -39 -35 -8 -24 -6 -134 3
-188 5 -35 8 -38 39 -38 31 0 36 4 55 47 18 41 19 54 10 96 -9 44 -8 52 12 80
20 28 23 46 26 153 2 67 -1 147 -7 179 -7 40 -8 62 -1 69 5 5 10 30 10 54 0
39 -3 45 -30 55 -25 10 -30 17 -30 45 0 20 -4 31 -10 27 -6 -4 -22 0 -35 9
-23 15 -25 15 -35 -4z"/>
</g>
</svg>
