<?xml version="1.0" standalone="no"?>
<!DOCTYPE svg PUBLIC "-//W3C//DTD SVG 20010904//EN"
 "http://www.w3.org/TR/2001/REC-SVG-20010904/DTD/svg10.dtd">
<svg version="1.0" xmlns="http://www.w3.org/2000/svg"
 width="11.000000pt" height="16.000000pt" viewBox="0 0 11.000000 16.000000"
 preserveAspectRatio="xMidYMid meet">
<metadata>
Created by potrace 1.14, written by Peter Selinger 2001-2017
</metadata>
<g transform="translate(0.000000,16.000000) scale(0.100000,-0.100000)"
fill="#000000" stroke="none">
<path fill="#000000" stroke="none" d="M47 153 c-4 -3 -7 -15 -7 -25 0 -10 -9
-36 -20 -58 -22 -43 -18 -70 12 -70 12 0 23 10 29 29 6 16 17 32 26 35 8 4 13
13 9 21 -3 8 -1 17 4 20 16 10 12 42 -6 49 -20 8 -39 8 -47 -1z"/>
</g>
</svg>
