<?xml version="1.0" standalone="no"?>
<!DOCTYPE svg PUBLIC "-//W3C//DTD SVG 20010904//EN"
 "http://www.w3.org/TR/2001/REC-SVG-20010904/DTD/svg10.dtd">
<svg version="1.0" xmlns="http://www.w3.org/2000/svg"
 width="53.000000pt" height="50.000000pt" viewBox="0 0 53.000000 50.000000"
 preserveAspectRatio="xMidYMid meet">
<metadata>
Created by potrace 1.14, written by Peter Selinger 2001-2017
</metadata>
<g transform="translate(0.000000,50.000000) scale(0.100000,-0.100000)"
fill="#000000" stroke="none">
<path fill="#000000" stroke="none" d="M233 444 c2 -56 1 -58 -28 -67 -21 -7
-56 -42 -115 -117 -47 -59 -86 -117 -88 -127 -2 -14 17 -38 58 -76 l60 -56 25
25 25 25 -26 39 c-30 45 -28 73 9 115 27 32 52 26 72 -19 13 -30 13 -29 14 37
1 57 4 67 19 67 9 1 35 7 57 15 38 14 42 13 77 -11 29 -20 38 -34 43 -67 4
-23 11 -49 15 -57 5 -9 2 -26 -6 -40 -7 -14 -13 -36 -14 -49 0 -22 1 -23 23
-8 13 8 34 17 48 19 23 3 24 5 23 88 0 47 -6 110 -13 141 -11 52 -15 57 -57
77 -31 15 -48 32 -55 51 -9 25 -17 30 -57 35 -26 4 -61 9 -79 13 l-32 5 2 -58z"/>
</g>
</svg>
