<?xml version="1.0" standalone="no"?>
<!DOCTYPE svg PUBLIC "-//W3C//DTD SVG 20010904//EN"
 "http://www.w3.org/TR/2001/REC-SVG-20010904/DTD/svg10.dtd">
<svg version="1.0" xmlns="http://www.w3.org/2000/svg"
 width="93.000000pt" height="258.000000pt" viewBox="0 0 93.000000 258.000000"
 preserveAspectRatio="xMidYMid meet">
<metadata>
Created by potrace 1.14, written by Peter Selinger 2001-2017
</metadata>
<g transform="translate(0.000000,258.000000) scale(0.100000,-0.100000)"
fill="#000000" stroke="none">
<path fill="#000000" stroke="none" d="M392 2519 c-95 -51 -112 -64 -112 -84
0 -61 24 -224 32 -219 5 3 1 -11 -8 -33 -26 -59 -27 -92 -1 -320 l23 -213 -25
-45 -26 -45 -137 0 c-125 0 -138 -2 -138 -17 1 -31 75 -362 120 -533 l44 -165
-51 -395 c-28 -217 -49 -397 -47 -399 6 -7 149 -19 155 -13 10 11 155 627 188
797 l29 150 1 -90 c0 -49 -6 -268 -14 -485 -7 -217 -13 -395 -12 -396 1 -1 89
-5 196 -9 l194 -7 -29 35 c-16 19 -50 58 -75 88 l-46 54 -7 155 c-5 139 -2
193 34 525 35 324 39 389 35 520 l-6 150 48 -127 c26 -69 51 -127 56 -127 17
-2 88 12 92 19 2 4 -13 60 -35 124 l-39 117 25 9 c14 6 36 13 49 16 14 3 25 8
25 11 0 2 -63 126 -139 276 -131 255 -141 278 -157 369 -16 91 -16 99 -1 116
10 10 17 21 17 25 0 6 -125 202 -139 219 -3 4 -57 -20 -119 -53z"/>
<path fill="#000000" stroke="none" d="M771 1123 c-1 -6 -4 -20 -7 -30 -5 -17
-5 -17 6 0 6 10 9 23 6 30 -3 9 -5 9 -5 0z"/>
<path fill="#000000" stroke="none" d="M834 889 c82 -42 95 -42 96 6 0 18 -7
20 -57 20 -32 0 -71 3 -88 7 -16 5 6 -10 49 -33z"/>
</g>
</svg>
