<?xml version="1.0" standalone="no"?>
<!DOCTYPE svg PUBLIC "-//W3C//DTD SVG 20010904//EN"
 "http://www.w3.org/TR/2001/REC-SVG-20010904/DTD/svg10.dtd">
<svg version="1.0" xmlns="http://www.w3.org/2000/svg"
 width="33.000000pt" height="80.000000pt" viewBox="0 0 33.000000 80.000000"
 preserveAspectRatio="xMidYMid meet">
<metadata>
Created by potrace 1.14, written by Peter Selinger 2001-2017
</metadata>
<g transform="translate(0.000000,80.000000) scale(0.100000,-0.100000)"
fill="#000000" stroke="none">
<path fill="#000000" stroke="none" d="M38 790 c-9 -6 -19 -24 -23 -41 -5 -24
-2 -36 15 -54 l22 -24 -22 -66 c-19 -57 -21 -73 -11 -105 21 -72 12 -367 -14
-451 -4 -12 9 -20 60 -34 63 -17 67 -17 85 0 15 14 20 31 20 74 l0 56 30 -51
c24 -43 35 -53 66 -58 20 -4 37 -6 39 -4 1 2 8 25 14 53 14 56 22 44 -93 141
l-48 41 26 94 c14 51 24 94 23 96 -2 1 -20 -2 -41 -8 -46 -13 -62 -8 -68 23
-3 13 -9 31 -13 42 -8 18 -4 18 58 12 l67 -8 0 30 c0 18 -14 47 -36 77 -32 41
-35 50 -24 70 17 31 -3 61 -59 86 -50 22 -50 22 -73 9z"/>
</g>
</svg>
