<?xml version="1.0" standalone="no"?>
<!DOCTYPE svg PUBLIC "-//W3C//DTD SVG 20010904//EN"
 "http://www.w3.org/TR/2001/REC-SVG-20010904/DTD/svg10.dtd">
<svg version="1.0" xmlns="http://www.w3.org/2000/svg"
 width="55.000000pt" height="139.000000pt" viewBox="0 0 55.000000 139.000000"
 preserveAspectRatio="xMidYMid meet">
<metadata>
Created by potrace 1.14, written by Peter Selinger 2001-2017
</metadata>
<g transform="translate(0.000000,139.000000) scale(0.100000,-0.100000)"
fill="#000000" stroke="none">
<path fill="#000000" stroke="none" d="M233 1370 c-41 -24 -53 -48 -53 -103 0
-68 11 -108 31 -116 16 -5 14 -9 -16 -25 -59 -32 -114 -115 -130 -199 -8 -40
-23 -97 -33 -127 -10 -30 -22 -83 -26 -118 -7 -63 -7 -64 28 -103 20 -21 36
-49 36 -62 0 -12 -5 -86 -10 -165 -6 -91 -5 -164 1 -203 8 -51 7 -64 -6 -79
-8 -9 -15 -21 -15 -26 0 -10 52 -44 67 -44 5 0 26 23 47 51 l38 51 -4 109 c-3
106 -4 109 -36 142 -34 35 -38 51 -22 109 10 33 27 48 143 128 72 50 135 99
139 110 5 13 21 21 53 26 26 3 49 12 51 19 3 6 0 32 -5 56 -10 41 -9 45 16 66
31 25 32 24 -49 152 -49 79 -68 102 -90 106 -34 8 -35 13 -2 86 l26 58 -37 60
c-34 57 -39 61 -73 61 -20 0 -51 -9 -69 -20z"/>
<path fill="#000000" stroke="none" d="M306 164 c-3 -9 -6 -37 -6 -63 0 -37 5
-52 24 -70 23 -21 26 -22 54 -7 29 15 30 17 20 55 -12 47 -82 112 -92 85z"/>
</g>
</svg>
