<?xml version="1.0" standalone="no"?>
<!DOCTYPE svg PUBLIC "-//W3C//DTD SVG 20010904//EN"
 "http://www.w3.org/TR/2001/REC-SVG-20010904/DTD/svg10.dtd">
<svg version="1.0" xmlns="http://www.w3.org/2000/svg"
 width="21.000000pt" height="28.000000pt" viewBox="0 0 21.000000 28.000000"
 preserveAspectRatio="xMidYMid meet">
<metadata>
Created by potrace 1.14, written by Peter Selinger 2001-2017
</metadata>
<g transform="translate(0.000000,28.000000) scale(0.100000,-0.100000)"
fill="#000000" stroke="none">
<path fill="#000000" stroke="none" d="M55 265 c-16 -13 -20 -28 -21 -75 0
-36 -7 -68 -17 -84 -19 -28 -21 -44 -8 -65 7 -11 15 -9 43 13 54 40 107 29 87
-19 -12 -31 -12 -31 31 -27 l39 4 -6 67 c-3 36 -11 72 -17 80 -6 8 -22 37 -36
65 -28 56 -58 69 -95 41z"/>
</g>
</svg>
