<?xml version="1.0" standalone="no"?>
<!DOCTYPE svg PUBLIC "-//W3C//DTD SVG 20010904//EN"
 "http://www.w3.org/TR/2001/REC-SVG-20010904/DTD/svg10.dtd">
<svg version="1.0" xmlns="http://www.w3.org/2000/svg"
 width="261.000000pt" height="181.000000pt" viewBox="0 0 261.000000 181.000000"
 preserveAspectRatio="xMidYMid meet">
<metadata>
Created by potrace 1.14, written by Peter Selinger 2001-2017
</metadata>
<g transform="translate(0.000000,181.000000) scale(0.100000,-0.100000)"
fill="#000000" stroke="none">
<path fill="#000000" stroke="none" d="M1865 1763 c-121 -25 -221 -46 -222
-47 -1 0 -15 -97 -32 -215 -17 -118 -33 -216 -35 -218 -2 -3 -66 -18 -142 -35
l-138 -30 -158 27 c-86 15 -162 24 -168 20 -6 -4 -126 15 -266 41 -230 43
-255 50 -260 69 -4 17 -28 28 -113 57 l-108 35 -13 -55 c-10 -44 -10 -56 1
-63 7 -4 17 -5 21 -3 4 3 8 1 8 -5 0 -5 21 -16 47 -23 25 -7 48 -18 50 -24 6
-17 -93 -34 -219 -37 l-116 -2 31 -28 c37 -32 277 -155 589 -302 119 -57 305
-153 413 -215 l197 -113 161 -187 162 -186 275 -112 275 -112 241 0 241 0 12
368 13 368 -139 204 c-77 113 -147 217 -157 231 -16 26 -15 32 28 205 l46 179
-23 19 c-39 32 -140 131 -190 184 -31 34 -55 52 -70 51 -12 0 -121 -21 -242
-46z"/>
</g>
</svg>
