<?xml version="1.0" standalone="no"?>
<!DOCTYPE svg PUBLIC "-//W3C//DTD SVG 20010904//EN"
 "http://www.w3.org/TR/2001/REC-SVG-20010904/DTD/svg10.dtd">
<svg version="1.0" xmlns="http://www.w3.org/2000/svg"
 width="85.000000pt" height="126.000000pt" viewBox="0 0 85.000000 126.000000"
 preserveAspectRatio="xMidYMid meet">
<metadata>
Created by potrace 1.14, written by Peter Selinger 2001-2017
</metadata>
<g transform="translate(0.000000,126.000000) scale(0.100000,-0.100000)"
fill="#000000" stroke="none">
<path fill="#000000" stroke="none" d="M365 1253 c-27 -1 -69 -5 -92 -8 -41
-6 -42 -7 -49 -51 -6 -42 -8 -45 -31 -39 -39 10 -149 -34 -164 -65 -24 -52
-28 -93 -14 -153 8 -32 15 -61 18 -63 2 -2 39 -19 81 -38 72 -31 76 -34 49
-40 -15 -4 -59 -16 -96 -27 -60 -18 -68 -23 -65 -42 2 -12 8 -21 13 -20 6 1
56 7 112 13 98 12 103 11 132 -9 17 -13 35 -39 44 -64 12 -38 12 -50 -9 -132
-13 -49 -24 -96 -24 -103 0 -7 38 -30 85 -52 52 -24 111 -61 149 -94 l62 -55
13 -78 c21 -128 18 -126 152 -124 62 1 116 4 118 7 3 2 -9 19 -25 37 -17 17
-50 59 -74 92 -36 48 -43 66 -41 96 1 24 -7 55 -24 89 -22 44 -25 56 -16 82
14 39 -7 369 -23 380 -6 4 -27 8 -46 8 l-35 0 46 30 c43 28 47 35 72 120 35
117 35 146 -4 193 -36 44 -135 97 -179 97 -18 0 -29 4 -25 10 6 10 -1 10 -110
3z"/>
</g>
</svg>
