<?xml version="1.0" standalone="no"?>
<!DOCTYPE svg PUBLIC "-//W3C//DTD SVG 20010904//EN"
 "http://www.w3.org/TR/2001/REC-SVG-20010904/DTD/svg10.dtd">
<svg version="1.0" xmlns="http://www.w3.org/2000/svg"
 width="81.000000pt" height="163.000000pt" viewBox="0 0 81.000000 163.000000"
 preserveAspectRatio="xMidYMid meet">
<metadata>
Created by potrace 1.14, written by Peter Selinger 2001-2017
</metadata>
<g transform="translate(0.000000,163.000000) scale(0.100000,-0.100000)"
fill="#000000" stroke="none">
<path fill="#000000" stroke="none" d="M473 1595 c-83 -56 -105 -102 -58 -123
14 -7 25 -20 25 -31 0 -17 20 -80 47 -151 4 -8 5 -19 3 -25 -2 -5 -6 -34 -11
-64 -14 -95 -85 -140 -334 -210 l-130 -36 -9 -43 c-5 -23 -7 -45 -4 -48 3 -3
66 9 139 26 74 17 170 34 213 37 l79 6 -7 -37 c-6 -32 -1 -47 37 -114 34 -59
52 -108 77 -212 38 -155 73 -228 122 -252 33 -15 33 -16 59 -154 l25 -138 34
-14 33 -13 -6 168 c-4 92 -13 235 -22 318 -9 82 -14 159 -11 170 5 19 -17 505
-30 641 l-5 61 -41 12 c-34 10 -39 16 -35 34 3 12 9 48 12 80 4 31 12 57 17
57 5 0 -7 20 -28 45 -35 43 -39 45 -88 45 -42 0 -61 -6 -103 -35z"/>
</g>
</svg>
