<?xml version="1.0" standalone="no"?>
<!DOCTYPE svg PUBLIC "-//W3C//DTD SVG 20010904//EN"
 "http://www.w3.org/TR/2001/REC-SVG-20010904/DTD/svg10.dtd">
<svg version="1.0" xmlns="http://www.w3.org/2000/svg"
 width="70.000000pt" height="97.000000pt" viewBox="0 0 70.000000 97.000000"
 preserveAspectRatio="xMidYMid meet">
<metadata>
Created by potrace 1.14, written by Peter Selinger 2001-2017
</metadata>
<g transform="translate(0.000000,97.000000) scale(0.100000,-0.100000)"
fill="#000000" stroke="none">
<path fill="#000000" stroke="none" d="M320 955 l-65 -13 83 -1 c63 -1 83 2
80 12 -6 16 -22 17 -98 2z"/>
<path fill="#000000" stroke="none" d="M188 933 c-14 -3 -18 -15 -18 -46 0
-23 -3 -65 -6 -93 -6 -48 -9 -52 -58 -82 -28 -17 -56 -35 -63 -40 -7 -4 -19
-63 -28 -135 l-16 -128 30 -107 c16 -59 36 -144 44 -190 8 -45 16 -84 18 -86
2 -2 47 -6 99 -10 52 -3 87 -2 78 2 -15 6 -13 17 23 107 l40 100 -16 115 c-9
63 -33 171 -52 240 -32 110 -36 137 -34 224 1 55 7 108 12 118 8 15 6 18 -13
17 -13 -1 -31 -3 -40 -6z"/>
<path fill="#000000" stroke="none" d="M594 147 c4 -17 11 -49 17 -70 l10 -40
40 39 c38 37 53 84 27 84 -7 1 -33 5 -57 9 l-43 9 6 -31z"/>
<path fill="#000000" stroke="none" d="M498 3 c12 -2 30 -2 40 0 9 3 -1 5 -23
4 -22 0 -30 -2 -17 -4z"/>
</g>
</svg>
