<?xml version="1.0" standalone="no"?>
<!DOCTYPE svg PUBLIC "-//W3C//DTD SVG 20010904//EN"
 "http://www.w3.org/TR/2001/REC-SVG-20010904/DTD/svg10.dtd">
<svg version="1.0" xmlns="http://www.w3.org/2000/svg"
 width="84.000000pt" height="168.000000pt" viewBox="0 0 84.000000 168.000000"
 preserveAspectRatio="xMidYMid meet">
<metadata>
Created by potrace 1.14, written by Peter Selinger 2001-2017
</metadata>
<g transform="translate(0.000000,168.000000) scale(0.100000,-0.100000)"
fill="#000000" stroke="none">
<path fill="#000000" stroke="none" d="M303 1634 l-53 -46 0 -77 0 -78 -112
-68 c-62 -38 -114 -69 -114 -69 -1 -1 -5 -72 -9 -159 l-7 -158 41 -16 c22 -9
41 -20 41 -24 0 -5 -15 -30 -34 -56 -24 -33 -38 -68 -46 -112 -6 -34 -10 -64
-8 -66 2 -1 97 -60 213 -130 116 -70 215 -132 222 -137 10 -8 9 -18 -4 -46 -8
-21 -35 -117 -58 -214 l-42 -178 168 0 c162 0 168 1 174 21 6 17 -7 35 -64 93
-39 39 -71 75 -71 80 0 7 82 148 145 252 12 19 2 30 -154 166 l-167 146 -18
66 c-13 46 -16 80 -11 112 11 77 12 78 66 35 41 -32 67 -43 162 -66 114 -27
114 -27 153 -76 28 -36 45 -49 64 -49 41 0 53 15 57 72 l4 53 -164 90 -165 90
-22 113 -23 113 27 28 c23 24 27 39 37 140 6 62 9 114 7 116 -8 7 -169 85
-175 85 -5 0 -32 -21 -60 -46z"/>
</g>
</svg>
