<?xml version="1.0" standalone="no"?>
<!DOCTYPE svg PUBLIC "-//W3C//DTD SVG 20010904//EN"
 "http://www.w3.org/TR/2001/REC-SVG-20010904/DTD/svg10.dtd">
<svg version="1.0" xmlns="http://www.w3.org/2000/svg"
 width="27.000000pt" height="21.000000pt" viewBox="0 0 27.000000 21.000000"
 preserveAspectRatio="xMidYMid meet">
<metadata>
Created by potrace 1.14, written by Peter Selinger 2001-2017
</metadata>
<g transform="translate(0.000000,21.000000) scale(0.100000,-0.100000)"
fill="#000000" stroke="none">
<path fill="#000000" stroke="none" d="M103 195 c-27 -19 -34 -49 -17 -72 20
-27 18 -31 -26 -53 -36 -18 -68 -55 -57 -66 2 -3 65 -3 138 -2 l134 3 -41 40
c-23 22 -49 46 -59 54 -12 9 -15 23 -12 45 5 35 -7 66 -26 66 -7 0 -22 -7 -34
-15z"/>
</g>
</svg>
