<?xml version="1.0" standalone="no"?>
<!DOCTYPE svg PUBLIC "-//W3C//DTD SVG 20010904//EN"
 "http://www.w3.org/TR/2001/REC-SVG-20010904/DTD/svg10.dtd">
<svg version="1.0" xmlns="http://www.w3.org/2000/svg"
 width="86.000000pt" height="97.000000pt" viewBox="0 0 86.000000 97.000000"
 preserveAspectRatio="xMidYMid meet">
<metadata>
Created by potrace 1.14, written by Peter Selinger 2001-2017
</metadata>
<g transform="translate(0.000000,97.000000) scale(0.100000,-0.100000)"
fill="#000000" stroke="none">
<path fill="#000000" stroke="none" d="M345 930 c-38 -22 -74 -41 -80 -43 -5
-2 2 -26 17 -53 14 -27 31 -74 36 -104 10 -52 9 -57 -30 -135 -22 -44 -80
-135 -129 -203 l-89 -122 352 176 c194 97 355 178 357 180 3 2 -10 25 -27 49
-18 25 -32 47 -32 49 0 1 22 13 48 25 39 18 54 33 71 68 l22 46 -53 -7 c-29
-4 -69 -9 -89 -13 -32 -5 -38 -2 -44 18 -4 13 -22 43 -39 66 l-31 42 -95 0
c-92 1 -97 -1 -165 -39z"/>
<path fill="#000000" stroke="none" d="M306 220 c-159 -87 -293 -163 -298
-168 -6 -6 -7 -19 -3 -31 6 -20 12 -21 216 -21 l209 0 180 90 c179 90 181 91
165 113 -22 32 -145 156 -164 167 -12 6 -91 -32 -305 -150z"/>
</g>
</svg>
