<?xml version="1.0" standalone="no"?>
<!DOCTYPE svg PUBLIC "-//W3C//DTD SVG 20010904//EN"
 "http://www.w3.org/TR/2001/REC-SVG-20010904/DTD/svg10.dtd">
<svg version="1.0" xmlns="http://www.w3.org/2000/svg"
 width="18.000000pt" height="28.000000pt" viewBox="0 0 18.000000 28.000000"
 preserveAspectRatio="xMidYMid meet">
<metadata>
Created by potrace 1.14, written by Peter Selinger 2001-2017
</metadata>
<g transform="translate(0.000000,28.000000) scale(0.100000,-0.100000)"
fill="#000000" stroke="none">
<path fill="#000000" stroke="none" d="M46 264 c-19 -18 -19 -16 -6 -50 7 -18
7 -30 0 -39 -9 -11 -18 -45 -36 -142 -6 -31 -5 -33 22 -33 16 0 39 6 50 14 26
19 104 119 104 135 0 6 -16 19 -36 28 -31 15 -35 21 -30 44 3 18 -1 32 -13 43
-22 20 -35 20 -55 0z"/>
</g>
</svg>
