<?xml version="1.0" standalone="no"?>
<!DOCTYPE svg PUBLIC "-//W3C//DTD SVG 20010904//EN"
 "http://www.w3.org/TR/2001/REC-SVG-20010904/DTD/svg10.dtd">
<svg version="1.0" xmlns="http://www.w3.org/2000/svg"
 width="49.000000pt" height="123.000000pt" viewBox="0 0 49.000000 123.000000"
 preserveAspectRatio="xMidYMid meet">
<metadata>
Created by potrace 1.14, written by Peter Selinger 2001-2017
</metadata>
<g transform="translate(0.000000,123.000000) scale(0.100000,-0.100000)"
fill="#000000" stroke="none">
<path fill="#000000" stroke="none" d="M162 1208 c-30 -12 -56 -27 -59 -34 -3
-7 10 -57 27 -109 32 -95 32 -98 25 -226 l-7 -129 -64 0 c-34 0 -65 -3 -67 -7
-2 -5 -7 -25 -11 -45 l-7 -37 70 -36 c39 -19 73 -35 76 -35 3 0 5 9 5 20 0 15
7 20 26 20 23 0 25 -3 20 -28 l-6 -27 80 0 c92 0 96 -3 105 -80 4 -35 1 -63
-11 -95 -10 -29 -16 -70 -15 -114 1 -38 -3 -92 -10 -122 l-12 -53 -53 -7 c-32
-4 -66 -1 -89 6 -43 14 -49 11 -40 -28 6 -28 9 -29 73 -36 37 -3 93 -6 125 -6
l57 0 0 120 c0 93 4 126 16 145 14 22 14 30 -5 97 -31 115 -35 155 -17 165 22
12 36 98 26 153 -5 25 -9 76 -10 114 0 63 -3 72 -37 119 -37 50 -37 52 -34
131 1 45 6 100 10 123 9 47 9 47 -84 57 -38 4 -63 0 -103 -16z"/>
<path fill="#000000" stroke="none" d="M465 358 c-10 -26 -2 -43 12 -26 7 8 8
19 3 28 -8 12 -10 12 -15 -2z"/>
</g>
</svg>
