<?xml version="1.0" standalone="no"?>
<!DOCTYPE svg PUBLIC "-//W3C//DTD SVG 20010904//EN"
 "http://www.w3.org/TR/2001/REC-SVG-20010904/DTD/svg10.dtd">
<svg version="1.0" xmlns="http://www.w3.org/2000/svg"
 width="33.000000pt" height="63.000000pt" viewBox="0 0 33.000000 63.000000"
 preserveAspectRatio="xMidYMid meet">
<metadata>
Created by potrace 1.14, written by Peter Selinger 2001-2017
</metadata>
<g transform="translate(0.000000,63.000000) scale(0.100000,-0.100000)"
fill="#000000" stroke="none">
<path fill="#000000" stroke="none" d="M198 623 c-17 -3 -39 -20 -59 -44 -24
-31 -37 -39 -64 -39 -30 0 -33 -3 -39 -37 -3 -21 -6 -58 -6 -82 0 -24 -7 -69
-15 -101 -10 -39 -12 -66 -6 -82 5 -13 60 -71 122 -129 98 -91 117 -105 136
-98 50 18 73 121 49 214 -13 52 -13 61 1 88 19 37 11 97 -19 145 -17 28 -19
38 -10 53 19 30 14 74 -11 97 -23 22 -28 23 -79 15z"/>
</g>
</svg>
