<?xml version="1.0" standalone="no"?>
<!DOCTYPE svg PUBLIC "-//W3C//DTD SVG 20010904//EN"
 "http://www.w3.org/TR/2001/REC-SVG-20010904/DTD/svg10.dtd">
<svg version="1.0" xmlns="http://www.w3.org/2000/svg"
 width="254.000000pt" height="335.000000pt" viewBox="0 0 254.000000 335.000000"
 preserveAspectRatio="xMidYMid meet">
<metadata>
Created by potrace 1.14, written by Peter Selinger 2001-2017
</metadata>
<g transform="translate(0.000000,335.000000) scale(0.100000,-0.100000)"
fill="#000000" stroke="none">
<path fill="#000000" stroke="none" d="M1000 3249 l-295 -99 -72 -173 -72
-172 -22 -295 c-19 -265 -20 -318 -10 -519 9 -190 9 -227 -3 -240 -8 -9 -16
-25 -17 -35 -3 -13 -23 -27 -61 -42 -31 -12 -90 -46 -132 -75 -71 -52 -77 -59
-143 -179 -37 -69 -70 -129 -72 -135 -2 -5 -10 -14 -17 -20 -11 -9 -44 -104
-44 -127 0 -4 9 -8 20 -8 11 0 20 -6 20 -12 0 -29 -27 -100 -40 -108 -11 -7
-17 -62 -26 -240 l-12 -232 52 -126 51 -127 100 -3 c56 -2 164 4 245 14 l145
17 330 -57 c295 -51 339 -61 418 -96 l88 -39 54 21 c30 11 71 35 92 53 47 40
68 51 116 59 41 8 41 8 27 -29 -8 -21 -35 -38 -122 -79 l-112 -53 148 -47 149
-47 174 41 c114 27 173 46 170 53 -43 119 -62 270 -52 435 10 177 -7 166 256
170 l212 3 -6 582 c-7 596 -12 668 -47 689 -8 4 -106 39 -218 78 l-203 69
-107 -59 c-59 -32 -108 -57 -110 -55 -2 2 -10 27 -17 57 -25 96 -46 250 -55
413 -6 114 -18 202 -39 303 -30 137 -34 148 -99 254 -64 107 -71 114 -195 212
-70 55 -133 102 -140 103 -7 1 -145 -43 -307 -98z"/>
</g>
</svg>
