<?xml version="1.0" standalone="no"?>
<!DOCTYPE svg PUBLIC "-//W3C//DTD SVG 20010904//EN"
 "http://www.w3.org/TR/2001/REC-SVG-20010904/DTD/svg10.dtd">
<svg version="1.0" xmlns="http://www.w3.org/2000/svg"
 width="146.000000pt" height="158.000000pt" viewBox="0 0 146.000000 158.000000"
 preserveAspectRatio="xMidYMid meet">
<metadata>
Created by potrace 1.14, written by Peter Selinger 2001-2017
</metadata>
<g transform="translate(0.000000,158.000000) scale(0.100000,-0.100000)"
fill="#000000" stroke="none">
<path fill="#000000" stroke="none" d="M635 1558 c-18 -14 -78 -33 -168 -54
-76 -18 -140 -34 -142 -36 -11 -11 -45 -152 -45 -184 0 -22 -32 -141 -70 -264
-39 -124 -102 -346 -140 -494 l-69 -269 33 -43 c27 -35 35 -58 45 -128 l13
-86 614 0 c551 0 614 2 614 16 0 8 -25 97 -56 196 l-56 181 44 83 c23 45 45
80 48 78 3 -3 10 -20 16 -37 l11 -31 46 69 c26 38 47 79 47 90 0 11 8 43 18
70 18 49 18 54 -12 360 -16 171 -31 311 -32 313 -1 2 -136 17 -301 34 l-298
30 -28 33 c-15 18 -45 47 -66 64 l-39 31 -27 -22z"/>
</g>
</svg>
