<?xml version="1.0" standalone="no"?>
<!DOCTYPE svg PUBLIC "-//W3C//DTD SVG 20010904//EN"
 "http://www.w3.org/TR/2001/REC-SVG-20010904/DTD/svg10.dtd">
<svg version="1.0" xmlns="http://www.w3.org/2000/svg"
 width="157.000000pt" height="396.000000pt" viewBox="0 0 157.000000 396.000000"
 preserveAspectRatio="xMidYMid meet">
<metadata>
Created by potrace 1.14, written by Peter Selinger 2001-2017
</metadata>
<g transform="translate(0.000000,396.000000) scale(0.100000,-0.100000)"
fill="#000000" stroke="none">
<path fill="#000000" stroke="none" d="M800 3901 c-190 -82 -233 -105 -252
-138 -16 -27 -16 -34 -2 -88 14 -52 14 -65 -1 -131 l-16 -73 -47 -3 c-35 -2
-67 5 -123 29 l-77 31 -36 -77 c-20 -42 -36 -83 -36 -90 0 -7 -27 -42 -60 -79
-33 -37 -79 -96 -104 -132 l-45 -65 20 -340 c11 -187 23 -370 27 -407 7 -60 6
-68 -9 -68 -25 0 -27 -52 -16 -435 l9 -340 94 -430 c51 -236 103 -458 114
-493 l20 -63 -85 -176 c-47 -97 -85 -177 -85 -179 0 -2 16 -6 35 -10 53 -10
42 -24 -18 -24 -53 0 -53 0 -74 -43 l-21 -44 191 -17 c259 -22 278 -22 307 8
22 25 22 28 17 198 -3 103 -14 220 -25 288 -11 63 -24 148 -27 188 l-8 72 74
0 c41 0 104 3 141 6 l67 7 21 49 c11 27 61 205 111 395 50 190 99 369 110 397
10 28 19 65 19 82 0 16 6 38 13 48 12 17 24 14 196 -37 l183 -55 62 25 c60 24
106 64 106 93 0 8 -20 40 -43 70 -39 49 -67 68 -239 165 l-195 110 -33 105
c-17 58 -40 160 -50 227 -10 67 -25 137 -34 154 -9 18 -16 40 -16 49 0 9 -29
75 -64 146 -35 71 -76 167 -91 214 -15 47 -39 104 -52 127 l-24 41 58 17 c32
9 95 33 140 52 77 33 83 37 89 70 4 22 29 62 67 107 73 87 95 135 114 250 l14
89 -67 68 c-55 55 -80 73 -136 93 -38 15 -70 26 -71 26 -1 0 -63 -27 -137 -59z"/>
</g>
</svg>
