<?xml version="1.0" standalone="no"?>
<!DOCTYPE svg PUBLIC "-//W3C//DTD SVG 20010904//EN"
 "http://www.w3.org/TR/2001/REC-SVG-20010904/DTD/svg10.dtd">
<svg version="1.0" xmlns="http://www.w3.org/2000/svg"
 width="22.000000pt" height="39.000000pt" viewBox="0 0 22.000000 39.000000"
 preserveAspectRatio="xMidYMid meet">
<metadata>
Created by potrace 1.14, written by Peter Selinger 2001-2017
</metadata>
<g transform="translate(0.000000,39.000000) scale(0.100000,-0.100000)"
fill="#000000" stroke="none">
<path fill="#000000" stroke="none" d="M131 376 c-7 -8 -15 -31 -18 -52 -4
-26 -18 -47 -45 -72 -52 -47 -68 -81 -67 -139 2 -74 12 -107 33 -111 16 -4 18
1 13 31 l-5 35 36 -9 c20 -5 44 -6 53 -3 17 5 29 44 29 93 0 15 6 35 13 46 17
25 53 183 44 192 -4 3 -18 1 -32 -5 -15 -7 -25 -8 -25 -2 0 14 -16 12 -29 -4z"/>
</g>
</svg>
