<?xml version="1.0" standalone="no"?>
<!DOCTYPE svg PUBLIC "-//W3C//DTD SVG 20010904//EN"
 "http://www.w3.org/TR/2001/REC-SVG-20010904/DTD/svg10.dtd">
<svg version="1.0" xmlns="http://www.w3.org/2000/svg"
 width="203.000000pt" height="206.000000pt" viewBox="0 0 203.000000 206.000000"
 preserveAspectRatio="xMidYMid meet">
<metadata>
Created by potrace 1.14, written by Peter Selinger 2001-2017
</metadata>
<g transform="translate(0.000000,206.000000) scale(0.100000,-0.100000)"
fill="#000000" stroke="none">
<path fill="#000000" stroke="none" d="M1484 2053 l-321 -3 -254 -221 c-180
-157 -346 -315 -571 -543 l-316 -323 -12 -61 c-18 -101 12 -515 53 -720 35
-178 29 -169 94 -145 17 6 16 5 -2 -17 -15 -17 -3 -12 44 18 l65 40 22 84 c53
195 37 174 333 412 l264 211 113 240 114 240 164 160 165 161 288 109 c158 59
292 112 297 116 4 4 5 62 1 128 l-7 121 -107 -2 c-58 -2 -250 -4 -427 -5z"/>
</g>
</svg>
