<?xml version="1.0" standalone="no"?>
<!DOCTYPE svg PUBLIC "-//W3C//DTD SVG 20010904//EN"
 "http://www.w3.org/TR/2001/REC-SVG-20010904/DTD/svg10.dtd">
<svg version="1.0" xmlns="http://www.w3.org/2000/svg"
 width="63.000000pt" height="134.000000pt" viewBox="0 0 63.000000 134.000000"
 preserveAspectRatio="xMidYMid meet">
<metadata>
Created by potrace 1.14, written by Peter Selinger 2001-2017
</metadata>
<g transform="translate(0.000000,134.000000) scale(0.100000,-0.100000)"
fill="#000000" stroke="none">
<path fill="#000000" stroke="none" d="M278 1309 c-41 -27 -49 -39 -64 -87
-25 -82 -20 -128 20 -223 5 -11 -6 -22 -41 -42 -26 -14 -68 -50 -93 -79 -44
-51 -45 -55 -57 -153 -6 -55 -12 -129 -12 -165 -1 -36 -5 -81 -10 -100 -5 -19
-12 -100 -15 -180 l-6 -145 52 92 53 93 85 0 c47 0 101 3 121 6 37 6 37 6 79
-64 l41 -70 -10 -93 c-6 -51 -8 -95 -6 -97 14 -14 95 34 136 81 61 70 64 76
45 90 -27 20 -23 88 7 142 32 56 32 62 10 88 -16 17 -18 48 -21 268 -2 137 -7
249 -10 250 -34 3 -59 12 -72 24 -9 8 -22 15 -28 15 -16 0 -16 0 9 66 19 50
21 71 16 158 -3 56 -9 109 -12 118 -7 18 -81 38 -138 38 -19 0 -52 -13 -79
-31z"/>
</g>
</svg>
