<?xml version="1.0" standalone="no"?>
<!DOCTYPE svg PUBLIC "-//W3C//DTD SVG 20010904//EN"
 "http://www.w3.org/TR/2001/REC-SVG-20010904/DTD/svg10.dtd">
<svg version="1.0" xmlns="http://www.w3.org/2000/svg"
 width="36.000000pt" height="63.000000pt" viewBox="0 0 36.000000 63.000000"
 preserveAspectRatio="xMidYMid meet">
<metadata>
Created by potrace 1.14, written by Peter Selinger 2001-2017
</metadata>
<g transform="translate(0.000000,63.000000) scale(0.100000,-0.100000)"
fill="#000000" stroke="none">
<path fill="#000000" stroke="none" d="M165 616 c-17 -12 -18 -26 -1 -66 5
-12 -3 -19 -29 -29 -27 -9 -35 -18 -35 -37 0 -17 -6 -24 -18 -24 -19 0 -47
-28 -69 -67 -17 -30 -17 -185 -1 -201 9 -9 9 -15 0 -24 -18 -18 -14 -63 6 -81
27 -25 87 -22 106 5 9 12 19 19 22 15 8 -7 9 -52 3 -77 -2 -8 3 -15 11 -15 11
0 16 13 18 45 6 112 25 119 41 15 13 -76 16 -81 40 -66 10 7 11 13 1 30 -8 15
-9 51 -3 119 4 53 9 85 11 70 3 -23 8 -28 32 -28 45 0 60 31 60 127 0 53 -4
86 -13 95 -7 7 -19 29 -27 48 -19 49 -29 60 -55 60 -27 0 -47 22 -39 43 7 19
-12 57 -29 57 -7 0 -21 -6 -32 -14z"/>
<path fill="#ffffff" stroke="none" d="M262 448 c-5 -7 -12 -22 -15 -33 -5
-20 -5 -20 -6 1 0 11 4 25 11 32 16 16 23 15 10 0z"/>
</g>
</svg>
