<?xml version="1.0" standalone="no"?>
<!DOCTYPE svg PUBLIC "-//W3C//DTD SVG 20010904//EN"
 "http://www.w3.org/TR/2001/REC-SVG-20010904/DTD/svg10.dtd">
<svg version="1.0" xmlns="http://www.w3.org/2000/svg"
 width="41.000000pt" height="68.000000pt" viewBox="0 0 41.000000 68.000000"
 preserveAspectRatio="xMidYMid meet">
<metadata>
Created by potrace 1.14, written by Peter Selinger 2001-2017
</metadata>
<g transform="translate(0.000000,68.000000) scale(0.100000,-0.100000)"
fill="#000000" stroke="none">
<path fill="#000000" stroke="none" d="M188 655 c-9 -20 -9 -34 0 -59 18 -49
15 -61 -22 -94 -19 -17 -32 -33 -29 -36 4 -3 1 -6 -5 -6 -7 0 -29 -16 -51 -35
-21 -19 -45 -35 -54 -35 -12 0 -32 -49 -23 -58 2 -1 27 15 57 36 48 34 58 38
86 30 25 -7 38 -19 57 -56 24 -48 46 -158 46 -231 0 -24 5 -41 11 -41 6 0 33
-16 59 -35 26 -19 50 -32 54 -28 8 8 6 152 -3 228 -6 51 -4 69 15 117 21 51
22 63 13 115 -10 54 -16 64 -87 136 -42 42 -85 77 -94 77 -10 0 -24 -11 -30
-25z"/>
</g>
</svg>
