<?xml version="1.0" standalone="no"?>
<!DOCTYPE svg PUBLIC "-//W3C//DTD SVG 20010904//EN"
 "http://www.w3.org/TR/2001/REC-SVG-20010904/DTD/svg10.dtd">
<svg version="1.0" xmlns="http://www.w3.org/2000/svg"
 width="71.000000pt" height="91.000000pt" viewBox="0 0 71.000000 91.000000"
 preserveAspectRatio="xMidYMid meet">
<metadata>
Created by potrace 1.14, written by Peter Selinger 2001-2017
</metadata>
<g transform="translate(0.000000,91.000000) scale(0.100000,-0.100000)"
fill="#000000" stroke="none">
<path fill="#000000" stroke="none" d="M310 903 c-8 -3 -23 -15 -32 -27 -15
-18 -17 -33 -11 -96 4 -45 14 -87 25 -105 10 -16 18 -37 18 -46 0 -10 -41 -35
-119 -72 -142 -69 -143 -70 -169 -261 -17 -127 -17 -131 2 -186 l20 -56 84
-22 c83 -22 85 -22 200 -6 114 16 118 16 162 -3 44 -20 45 -20 109 1 61 20 65
23 87 71 l22 50 -24 175 c-27 201 -29 204 -135 234 -32 9 -59 21 -59 27 0 6 7
39 16 72 13 52 14 71 3 120 -6 32 -25 76 -41 98 -27 38 -30 39 -86 38 -31 0
-64 -3 -72 -6z"/>
</g>
</svg>
