<?xml version="1.0" standalone="no"?>
<!DOCTYPE svg PUBLIC "-//W3C//DTD SVG 20010904//EN"
 "http://www.w3.org/TR/2001/REC-SVG-20010904/DTD/svg10.dtd">
<svg version="1.0" xmlns="http://www.w3.org/2000/svg"
 width="76.000000pt" height="185.000000pt" viewBox="0 0 76.000000 185.000000"
 preserveAspectRatio="xMidYMid meet">
<metadata>
Created by potrace 1.14, written by Peter Selinger 2001-2017
</metadata>
<g transform="translate(0.000000,185.000000) scale(0.100000,-0.100000)"
fill="#000000" stroke="none">
<path fill="#000000" stroke="none" d="M279 1835 c-15 -8 -36 -28 -46 -46 -17
-26 -19 -37 -10 -77 5 -26 23 -66 39 -90 17 -24 28 -45 26 -47 -1 -1 -54 -28
-116 -59 -99 -50 -116 -62 -142 -104 -23 -36 -30 -59 -30 -100 0 -47 4 -57 40
-95 21 -24 55 -52 74 -62 22 -12 40 -32 48 -54 14 -35 12 -39 -44 -159 -35
-75 -58 -137 -58 -157 0 -19 -5 -57 -11 -85 -12 -58 -11 -60 71 -102 25 -13
60 -36 78 -52 27 -26 32 -37 32 -76 0 -40 -10 -62 -80 -173 l-81 -127 27 -46
c15 -25 37 -52 49 -60 39 -25 167 -64 213 -64 41 0 50 5 113 65 38 36 77 65
85 65 15 0 16 16 10 142 -3 79 -10 177 -14 218 -8 76 7 261 28 344 6 22 26 73
45 111 104 215 129 280 133 343 4 59 3 64 -35 115 -48 65 -96 141 -118 188
-10 20 -35 47 -62 64 -25 15 -50 40 -56 54 -6 14 -34 52 -61 84 -43 50 -53 57
-85 57 -20 -1 -48 -7 -62 -15z"/>
</g>
</svg>
