<?xml version="1.0" standalone="no"?>
<!DOCTYPE svg PUBLIC "-//W3C//DTD SVG 20010904//EN"
 "http://www.w3.org/TR/2001/REC-SVG-20010904/DTD/svg10.dtd">
<svg version="1.0" xmlns="http://www.w3.org/2000/svg"
 width="268.000000pt" height="285.000000pt" viewBox="0 0 268.000000 285.000000"
 preserveAspectRatio="xMidYMid meet">
<metadata>
Created by potrace 1.14, written by Peter Selinger 2001-2017
</metadata>
<g transform="translate(0.000000,285.000000) scale(0.100000,-0.100000)"
fill="#000000" stroke="none">
<path fill="#000000" stroke="none" d="M1735 2827 c-49 -18 -75 -37 -140 -103
-44 -44 -131 -122 -192 -173 -103 -85 -118 -101 -114 -123 0 -5 -3 -8 -9 -8
-5 0 -37 -40 -70 -89 -57 -86 -95 -159 -126 -246 -18 -49 -89 -387 -99 -470
-4 -33 -12 -71 -17 -84 -5 -13 -19 -75 -33 -137 -17 -84 -32 -125 -54 -157
-16 -24 -51 -97 -77 -163 -45 -114 -53 -125 -173 -269 -69 -82 -164 -193 -212
-245 -48 -52 -162 -200 -254 -329 l-167 -234 528 6 c290 4 607 7 704 7 l176 0
149 253 150 253 145 115 145 115 224 349 c123 193 243 373 266 400 24 28 76
101 117 164 l74 114 -62 229 c-34 126 -82 324 -105 440 l-43 210 -35 -7 c-19
-4 -96 -26 -171 -50 -131 -41 -344 -84 -356 -72 -7 7 6 110 16 127 5 8 76 24
184 41 165 26 246 45 246 59 0 3 -25 19 -54 36 -52 31 -59 32 -267 48 -118 9
-218 16 -224 15 -5 0 -37 -10 -70 -22z"/>
</g>
</svg>
