<?xml version="1.0" standalone="no"?>
<!DOCTYPE svg PUBLIC "-//W3C//DTD SVG 20010904//EN"
 "http://www.w3.org/TR/2001/REC-SVG-20010904/DTD/svg10.dtd">
<svg version="1.0" xmlns="http://www.w3.org/2000/svg"
 width="40.000000pt" height="71.000000pt" viewBox="0 0 40.000000 71.000000"
 preserveAspectRatio="xMidYMid meet">
<metadata>
Created by potrace 1.14, written by Peter Selinger 2001-2017
</metadata>
<g transform="translate(0.000000,71.000000) scale(0.100000,-0.100000)"
fill="#000000" stroke="none">
<path fill="#000000" stroke="none" d="M174 700 c-27 -11 -64 -62 -64 -87 0
-11 9 -46 20 -78 31 -90 29 -95 -50 -133 -67 -32 -69 -34 -76 -78 -9 -65 -1
-123 30 -189 14 -31 26 -75 26 -96 l0 -39 43 0 c57 1 83 25 118 111 16 40 49
99 72 133 24 34 54 80 67 104 13 23 28 42 32 42 5 0 6 4 3 10 -3 6 -21 10 -38
10 -52 0 -62 12 -43 48 13 25 14 40 6 74 -14 62 -13 67 15 80 32 14 32 24 -1
32 -14 4 -44 20 -66 36 -43 31 -59 35 -94 20z"/>
</g>
</svg>
