<?xml version="1.0" standalone="no"?>
<!DOCTYPE svg PUBLIC "-//W3C//DTD SVG 20010904//EN"
 "http://www.w3.org/TR/2001/REC-SVG-20010904/DTD/svg10.dtd">
<svg version="1.0" xmlns="http://www.w3.org/2000/svg"
 width="161.000000pt" height="229.000000pt" viewBox="0 0 161.000000 229.000000"
 preserveAspectRatio="xMidYMid meet">
<metadata>
Created by potrace 1.14, written by Peter Selinger 2001-2017
</metadata>
<g transform="translate(0.000000,229.000000) scale(0.100000,-0.100000)"
fill="#000000" stroke="none">
<path fill="#000000" stroke="none" d="M767 2242 c-120 -30 -191 -52 -196 -62
-14 -26 -573 -1661 -570 -1664 2 -1 88 -49 190 -106 l187 -103 -51 -86 c-28
-47 -68 -115 -89 -150 l-39 -64 58 6 c32 4 116 10 186 13 70 4 130 10 132 14
2 4 -2 29 -10 56 -14 47 -90 1012 -81 1022 6 5 813 172 834 172 10 0 36 -21
59 -47 l42 -48 -66 -67 -67 -67 -37 -473 c-21 -260 -40 -499 -43 -531 l-6 -58
133 6 c72 3 165 8 205 11 l72 6 0 1134 0 1134 -106 0 c-58 0 -160 -5 -227 -11
-89 -8 -122 -8 -125 0 -2 7 -38 11 -100 10 -80 0 -129 -8 -285 -47z"/>
</g>
</svg>
