<?xml version="1.0" standalone="no"?>
<!DOCTYPE svg PUBLIC "-//W3C//DTD SVG 20010904//EN"
 "http://www.w3.org/TR/2001/REC-SVG-20010904/DTD/svg10.dtd">
<svg version="1.0" xmlns="http://www.w3.org/2000/svg"
 width="103.000000pt" height="103.000000pt" viewBox="0 0 103.000000 103.000000"
 preserveAspectRatio="xMidYMid meet">
<metadata>
Created by potrace 1.14, written by Peter Selinger 2001-2017
</metadata>
<g transform="translate(0.000000,103.000000) scale(0.100000,-0.100000)"
fill="#000000" stroke="none">
<path fill="#000000" stroke="none" d="M631 1016 c-51 -8 -76 -16 -79 -26 -2
-8 -13 -35 -24 -58 -19 -40 -29 -48 -112 -86 -50 -24 -145 -77 -210 -119 -102
-66 -125 -86 -165 -142 l-45 -66 23 -67 c19 -56 31 -73 73 -107 28 -22 82 -52
122 -66 l71 -27 -57 -25 c-31 -14 -65 -28 -77 -32 -23 -7 -142 -145 -135 -156
2 -4 27 -15 55 -24 49 -17 51 -16 104 7 30 12 55 26 55 30 0 4 -10 13 -22 19
-21 12 -15 15 62 34 84 21 85 21 112 2 22 -17 42 -19 139 -18 153 1 162 13 56
75 l-38 22 51 67 c27 36 50 73 50 81 0 8 -18 30 -40 49 l-41 34 30 32 c20 21
38 31 58 31 27 0 29 2 25 30 -4 28 -7 30 -50 30 l-46 0 24 16 c14 10 48 38 75
65 l50 48 65 -14 c36 -8 102 -14 146 -15 l82 0 4 34 c4 32 2 34 -22 30 -14 -2
-63 2 -110 9 l-85 12 -7 94 c-7 98 -17 181 -22 181 -2 0 -19 6 -37 13 -27 10
-50 11 -108 3z"/>
</g>
</svg>
