<?xml version="1.0" standalone="no"?>
<!DOCTYPE svg PUBLIC "-//W3C//DTD SVG 20010904//EN"
 "http://www.w3.org/TR/2001/REC-SVG-20010904/DTD/svg10.dtd">
<svg version="1.0" xmlns="http://www.w3.org/2000/svg"
 width="47.000000pt" height="70.000000pt" viewBox="0 0 47.000000 70.000000"
 preserveAspectRatio="xMidYMid meet">
<metadata>
Created by potrace 1.14, written by Peter Selinger 2001-2017
</metadata>
<g transform="translate(0.000000,70.000000) scale(0.100000,-0.100000)"
fill="#000000" stroke="none">
<path fill="#000000" stroke="none" d="M68 666 c-52 -45 -73 -121 -53 -196 8
-30 22 -61 32 -68 10 -7 28 -21 41 -30 l22 -17 -25 -64 c-13 -35 -32 -72 -40
-81 -11 -12 -15 -39 -15 -93 0 -67 2 -77 18 -77 9 0 27 -3 40 -6 21 -6 22 -4
22 69 0 66 3 78 20 87 11 6 29 29 40 50 11 22 23 40 26 40 2 0 16 -7 29 -16
21 -14 25 -24 25 -64 0 -48 -1 -47 63 -78 4 -2 4 21 1 52 l-7 56 30 0 c43 0
58 -23 90 -135 l28 -99 8 54 c9 58 3 223 -8 253 -4 10 -31 30 -59 44 -28 14
-69 38 -92 54 -40 27 -41 29 -47 100 -8 94 -45 155 -109 179 l-44 17 -36 -31z"/>
</g>
</svg>
