<?xml version="1.0" standalone="no"?>
<!DOCTYPE svg PUBLIC "-//W3C//DTD SVG 20010904//EN"
 "http://www.w3.org/TR/2001/REC-SVG-20010904/DTD/svg10.dtd">
<svg version="1.0" xmlns="http://www.w3.org/2000/svg"
 width="158.000000pt" height="540.000000pt" viewBox="0 0 158.000000 540.000000"
 preserveAspectRatio="xMidYMid meet">
<metadata>
Created by potrace 1.14, written by Peter Selinger 2001-2017
</metadata>
<g transform="translate(0.000000,540.000000) scale(0.100000,-0.100000)"
fill="#000000" stroke="none">
<path fill="#000000" stroke="none" d="M384 5226 l-78 -173 -68 -23 c-37 -13
-76 -32 -85 -42 -17 -19 -17 -21 10 -43 16 -12 55 -35 86 -50 l58 -27 20 -133
c18 -118 25 -140 58 -193 22 -37 61 -79 97 -108 l60 -47 -5 -56 c-5 -45 -2
-61 14 -88 l20 -33 -50 -177 c-27 -98 -71 -268 -96 -378 -25 -110 -48 -208
-51 -218 -3 -10 -29 -33 -57 -51 -43 -28 -65 -35 -127 -41 -152 -13 -147 -11
-170 -72 -35 -94 -25 -155 30 -183 36 -18 39 -18 106 -1 42 10 94 34 133 59
35 23 67 40 71 37 4 -2 26 -47 49 -100 42 -95 42 -97 30 -153 -9 -46 -22 -69
-63 -117 -61 -71 -61 -80 -1 -172 35 -54 46 -64 99 -85 l60 -23 28 -85 28 -85
-4 -470 -5 -470 -73 -510 -74 -510 -114 -93 c-88 -72 -122 -106 -144 -147
l-28 -53 33 -48 c19 -27 36 -51 39 -55 3 -4 174 5 380 21 l374 28 33 39 c18
21 48 69 67 107 l33 70 -33 100 c-19 55 -32 101 -31 103 2 2 68 9 146 17 79 8
144 16 146 18 6 7 -56 551 -81 706 l-26 162 31 298 c18 163 41 333 52 377 12
44 38 167 60 273 l39 194 85 105 c47 57 85 110 85 116 -1 265 -99 1456 -122
1486 -7 9 -102 108 -210 221 -108 113 -221 236 -252 275 l-55 70 52 32 c45 27
53 38 63 78 12 45 12 46 -14 56 -35 13 -132 51 -133 53 -1 0 -7 74 -14 164 -7
89 -15 165 -19 169 -3 4 -81 14 -174 24 -92 10 -183 21 -203 24 l-37 5 -78
-174z"/>
</g>
</svg>
