<?xml version="1.0" standalone="no"?>
<!DOCTYPE svg PUBLIC "-//W3C//DTD SVG 20010904//EN"
 "http://www.w3.org/TR/2001/REC-SVG-20010904/DTD/svg10.dtd">
<svg version="1.0" xmlns="http://www.w3.org/2000/svg"
 width="180.000000pt" height="291.000000pt" viewBox="0 0 180.000000 291.000000"
 preserveAspectRatio="xMidYMid meet">
<metadata>
Created by potrace 1.14, written by Peter Selinger 2001-2017
</metadata>
<g transform="translate(0.000000,291.000000) scale(0.100000,-0.100000)"
fill="#000000" stroke="none">
<path fill="#000000" stroke="none" d="M747 2881 c-20 -14 -61 -56 -92 -93
l-55 -67 0 -185 0 -185 61 -101 c53 -88 68 -105 114 -131 41 -23 57 -39 66
-66 6 -19 7 -38 3 -42 -5 -4 -84 -67 -175 -139 l-166 -131 -6 -63 c-4 -35 -10
-176 -13 -314 -6 -226 -5 -253 10 -276 15 -23 16 -34 6 -85 -10 -51 -21 -69
-85 -144 -73 -85 -77 -88 -244 -176 l-170 -89 168 -28 169 -28 97 26 c79 21
110 36 166 76 38 28 73 50 78 50 14 0 51 -96 51 -133 0 -22 -12 -53 -32 -85
-32 -49 -35 -51 -122 -74 -80 -21 -121 -46 -105 -62 3 -3 36 -9 73 -13 64 -8
69 -10 81 -40 l14 -32 -79 -31 c-44 -16 -87 -30 -97 -30 -23 0 -38 -11 -46
-32 -8 -24 60 -44 223 -68 l125 -18 43 40 c41 38 197 118 230 118 8 0 80 -18
160 -40 109 -31 180 -59 292 -115 l148 -74 6 37 c3 20 6 118 6 217 -1 174 -2
182 -29 252 l-29 73 76 72 76 72 26 250 c22 221 25 278 20 481 l-6 230 -46
100 -46 100 -99 76 c-81 61 -118 82 -195 109 -86 30 -98 37 -124 77 -30 44
-39 50 -49 33 -20 -33 -42 6 -55 99 -10 69 -9 74 20 131 34 68 36 86 14 119
-10 14 -21 66 -29 133 l-13 110 -53 54 c-29 30 -67 58 -84 63 -16 5 -77 11
-136 14 -101 4 -106 4 -142 -22z"/>
</g>
</svg>
