<?xml version="1.0" standalone="no"?>
<!DOCTYPE svg PUBLIC "-//W3C//DTD SVG 20010904//EN"
 "http://www.w3.org/TR/2001/REC-SVG-20010904/DTD/svg10.dtd">
<svg version="1.0" xmlns="http://www.w3.org/2000/svg"
 width="32.000000pt" height="29.000000pt" viewBox="0 0 32.000000 29.000000"
 preserveAspectRatio="xMidYMid meet">
<metadata>
Created by potrace 1.14, written by Peter Selinger 2001-2017
</metadata>
<g transform="translate(0.000000,29.000000) scale(0.100000,-0.100000)"
fill="#000000" stroke="none">
<path fill="#000000" stroke="none" d="M153 282 c-19 -12 -34 -63 -28 -93 6
-25 3 -28 -37 -40 -33 -11 -48 -23 -65 -54 -22 -37 -28 -92 -10 -89 4 1 69 5
145 9 75 4 142 11 148 16 19 15 -5 77 -38 100 -23 17 -26 24 -18 39 17 32 11
60 -19 91 -29 29 -55 36 -78 21z"/>
</g>
</svg>
