<?xml version="1.0" standalone="no"?>
<!DOCTYPE svg PUBLIC "-//W3C//DTD SVG 20010904//EN"
 "http://www.w3.org/TR/2001/REC-SVG-20010904/DTD/svg10.dtd">
<svg version="1.0" xmlns="http://www.w3.org/2000/svg"
 width="94.000000pt" height="193.000000pt" viewBox="0 0 94.000000 193.000000"
 preserveAspectRatio="xMidYMid meet">
<metadata>
Created by potrace 1.14, written by Peter Selinger 2001-2017
</metadata>
<g transform="translate(0.000000,193.000000) scale(0.100000,-0.100000)"
fill="#000000" stroke="none">
<path fill="#000000" stroke="none" d="M589 1905 c-51 -26 -149 -111 -149
-128 0 -6 -36 -48 -81 -93 l-81 -81 -44 -154 c-61 -212 -121 -452 -148 -590
-22 -115 -22 -116 -3 -160 93 -216 136 -339 142 -404 l7 -70 -52 -19 c-45 -16
-59 -29 -116 -105 l-66 -86 128 -3 128 -3 46 46 46 45 -4 -33 -4 -33 69 -13
c37 -7 77 -14 88 -17 18 -4 22 3 34 73 8 43 17 141 21 218 6 117 12 156 38
238 17 55 32 100 34 102 2 2 50 -35 108 -81 102 -81 107 -84 158 -84 l52 0 0
64 0 64 -99 83 c-95 81 -99 86 -106 133 -6 43 -18 62 -82 135 -73 84 -74 87
-69 129 4 28 17 59 37 84 l32 39 -22 80 c-18 64 -21 94 -15 148 l6 68 37 -7
c20 -4 56 -17 80 -29 24 -13 47 -19 52 -14 4 4 1 36 -8 70 l-15 63 29 27 c44
42 91 115 97 154 6 32 3 37 -52 86 -49 43 -71 55 -126 67 -82 19 -71 20 -127
-9z"/>
</g>
</svg>
