<?xml version="1.0" standalone="no"?>
<!DOCTYPE svg PUBLIC "-//W3C//DTD SVG 20010904//EN"
 "http://www.w3.org/TR/2001/REC-SVG-20010904/DTD/svg10.dtd">
<svg version="1.0" xmlns="http://www.w3.org/2000/svg"
 width="122.000000pt" height="388.000000pt" viewBox="0 0 122.000000 388.000000"
 preserveAspectRatio="xMidYMid meet">
<metadata>
Created by potrace 1.14, written by Peter Selinger 2001-2017
</metadata>
<g transform="translate(0.000000,388.000000) scale(0.100000,-0.100000)"
fill="#000000" stroke="none">
<path fill="#000000" stroke="none" d="M570 3824 c-36 -30 -66 -58 -68 -63 -1
-4 22 -79 53 -166 30 -88 55 -160 55 -162 0 -2 -63 -3 -140 -3 l-139 0 -126
-180 c-69 -100 -128 -186 -130 -193 -2 -7 -13 -93 -25 -191 -24 -209 -26 -205
69 -213 34 -3 64 -9 66 -13 3 -4 -18 -38 -46 -74 -97 -129 -93 -102 -84 -566
5 -223 9 -437 10 -476 1 -49 6 -76 16 -86 11 -11 19 -59 28 -168 l13 -152 -29
-31 -30 -32 -12 -275 c-6 -151 -21 -352 -32 -446 l-21 -170 42 -84 c31 -62 44
-80 51 -69 29 43 46 89 90 246 27 95 63 201 81 236 l32 62 4 270 4 270 -111
262 c-61 144 -112 268 -113 275 -2 7 11 14 32 18 l35 5 6 240 c5 233 6 242 35
325 18 52 53 120 90 175 33 50 71 107 83 128 l23 38 -50 58 -51 58 -12 155
-11 155 36 54 c32 49 45 59 119 92 l84 38 103 -8 104 -8 68 -159 c75 -176 108
-316 108 -459 0 -78 1 -80 46 -145 1 -2 44 5 95 15 79 14 102 23 147 56 28 22
52 40 52 41 0 2 -7 23 -15 48 -16 44 -18 46 -80 63 l-65 17 0 263 0 263 -96
89 -96 88 42 175 c41 173 41 176 29 258 -7 45 -17 86 -23 91 -6 4 -72 11 -146
14 l-135 6 -65 -55z"/>
<path fill="#000000" stroke="none" d="M572 376 c-45 -132 -81 -241 -79 -242
6 -6 329 -46 333 -41 3 3 8 23 11 45 5 39 5 39 -59 80 l-65 40 -29 179 -29
178 -83 -239z"/>
</g>
</svg>
