<?xml version="1.0" standalone="no"?>
<!DOCTYPE svg PUBLIC "-//W3C//DTD SVG 20010904//EN"
 "http://www.w3.org/TR/2001/REC-SVG-20010904/DTD/svg10.dtd">
<svg version="1.0" xmlns="http://www.w3.org/2000/svg"
 width="437.000000pt" height="191.000000pt" viewBox="0 0 437.000000 191.000000"
 preserveAspectRatio="xMidYMid meet">
<metadata>
Created by potrace 1.14, written by Peter Selinger 2001-2017
</metadata>
<g transform="translate(0.000000,191.000000) scale(0.100000,-0.100000)"
fill="#000000" stroke="none">
<path fill="#000000" stroke="none" d="M3084 1893 c-37 -18 -74 -88 -74 -139
0 -21 -10 -50 -25 -72 -14 -20 -25 -42 -25 -48 0 -6 -24 -63 -54 -125 -36 -75
-60 -143 -71 -198 -10 -47 -32 -139 -51 -205 -25 -89 -34 -141 -34 -198 0
-104 -2 -108 -61 -108 l-49 0 0 83 c1 53 10 124 28 200 25 105 27 128 19 195
-5 43 -11 79 -13 81 -2 3 -14 -5 -27 -16 -19 -18 -24 -19 -35 -7 -7 8 -13 27
-12 42 1 15 2 49 1 75 -1 46 -2 47 -23 36 -13 -6 -33 -21 -46 -32 -13 -12 -46
-31 -73 -42 -50 -20 -52 -22 -85 -104 -45 -112 -45 -162 -2 -231 36 -58 38
-82 12 -192 l-16 -67 -49 31 c-36 22 -91 81 -202 217 -125 153 -178 209 -302
317 -146 127 -150 131 -165 187 -14 52 -25 67 -125 167 l-110 110 -75 0 c-61
0 -90 -6 -152 -31 l-78 -31 -18 -62 c-16 -54 -23 -64 -61 -85 -76 -42 -328
-99 -492 -112 -142 -11 -146 -11 -189 11 -24 12 -72 48 -106 78 -48 42 -64 64
-69 91 -3 20 -18 66 -32 103 -25 65 -26 66 -65 70 -37 3 -41 1 -55 -32 -9 -19
-18 -60 -20 -92 -6 -59 17 -142 79 -292 23 -55 28 -84 28 -147 0 -43 5 -99 12
-124 l12 -45 47 0 c26 0 87 12 135 26 204 60 285 66 452 34 56 -11 118 -20
137 -20 19 0 35 -3 35 -6 0 -27 -168 -547 -186 -575 -13 -20 -61 -64 -107 -98
-77 -55 -90 -61 -135 -61 -89 0 -126 -27 -115 -83 5 -23 10 -27 38 -27 18 0
35 6 38 13 4 10 52 9 253 -5 137 -9 265 -17 285 -17 l36 -1 6 139 c8 191 37
278 152 455 72 113 84 127 89 105 3 -13 26 -136 51 -272 33 -178 44 -261 40
-292 -10 -64 25 -111 144 -188 177 -116 137 -104 442 -132 151 -14 297 -29
324 -35 28 -6 272 -33 544 -60 384 -39 514 -48 583 -43 l89 6 53 57 c47 51 59
74 106 201 78 213 78 244 -2 276 -48 19 -68 62 -68 144 0 73 18 95 87 104 26
3 65 13 85 22 22 9 49 13 65 10 117 -26 213 -60 283 -101 44 -25 84 -46 88
-46 10 0 27 37 114 239 l48 113 -11 112 -11 111 -77 126 c-75 124 -77 127
-140 158 -61 31 -69 32 -230 38 -231 8 -262 -2 -335 -100 -71 -96 -126 -197
-126 -233 0 -16 -8 -41 -17 -54 -10 -14 -18 -45 -19 -70 -1 -25 -5 -93 -9
-152 l-8 -107 -31 17 c-23 12 -58 17 -131 18 -131 1 -149 7 -167 52 -12 32
-13 67 -2 247 18 309 16 299 90 401 61 84 64 90 64 147 0 49 -6 68 -32 113
-35 58 -45 62 -94 37z"/>
</g>
</svg>
