<?xml version="1.0" standalone="no"?>
<!DOCTYPE svg PUBLIC "-//W3C//DTD SVG 20010904//EN"
 "http://www.w3.org/TR/2001/REC-SVG-20010904/DTD/svg10.dtd">
<svg version="1.0" xmlns="http://www.w3.org/2000/svg"
 width="45.000000pt" height="62.000000pt" viewBox="0 0 45.000000 62.000000"
 preserveAspectRatio="xMidYMid meet">
<metadata>
Created by potrace 1.14, written by Peter Selinger 2001-2017
</metadata>
<g transform="translate(0.000000,62.000000) scale(0.100000,-0.100000)"
fill="#000000" stroke="none">
<path fill="#000000" stroke="none" d="M188 578 c-25 -27 -36 -48 -33 -60 3
-10 7 -27 10 -37 5 -16 -1 -20 -44 -26 -44 -6 -54 -12 -86 -53 -19 -25 -33
-52 -30 -60 3 -7 8 -46 11 -85 4 -40 16 -96 26 -125 17 -45 26 -56 67 -77 26
-13 78 -32 115 -41 l66 -18 32 31 c29 29 30 34 19 61 -11 27 -16 30 -45 25
-18 -3 -58 0 -89 7 -48 10 -57 15 -57 33 0 18 11 25 63 40 199 58 195 56 216
91 l21 33 -24 59 c-13 32 -34 101 -46 152 l-24 92 -64 0 c-63 0 -66 -1 -104
-42z"/>
</g>
</svg>
