<?xml version="1.0" standalone="no"?>
<!DOCTYPE svg PUBLIC "-//W3C//DTD SVG 20010904//EN"
 "http://www.w3.org/TR/2001/REC-SVG-20010904/DTD/svg10.dtd">
<svg version="1.0" xmlns="http://www.w3.org/2000/svg"
 width="27.000000pt" height="48.000000pt" viewBox="0 0 27.000000 48.000000"
 preserveAspectRatio="xMidYMid meet">
<metadata>
Created by potrace 1.14, written by Peter Selinger 2001-2017
</metadata>
<g transform="translate(0.000000,48.000000) scale(0.100000,-0.100000)"
fill="#000000" stroke="none">
<path fill="#000000" stroke="none" d="M119 453 c-5 -13 -9 -29 -9 -34 0 -17
-42 -93 -65 -119 -13 -15 -28 -50 -35 -84 -14 -70 -17 -67 95 -123 39 -19 84
-45 100 -57 57 -43 65 -41 65 12 0 88 -18 164 -45 192 -22 23 -23 28 -11 45 8
11 12 24 9 31 -2 6 2 37 10 67 l15 56 -60 19 -59 20 -10 -25z"/>
</g>
</svg>
