<?xml version="1.0" standalone="no"?>
<!DOCTYPE svg PUBLIC "-//W3C//DTD SVG 20010904//EN"
 "http://www.w3.org/TR/2001/REC-SVG-20010904/DTD/svg10.dtd">
<svg version="1.0" xmlns="http://www.w3.org/2000/svg"
 width="93.000000pt" height="108.000000pt" viewBox="0 0 93.000000 108.000000"
 preserveAspectRatio="xMidYMid meet">
<metadata>
Created by potrace 1.14, written by Peter Selinger 2001-2017
</metadata>
<g transform="translate(0.000000,108.000000) scale(0.100000,-0.100000)"
fill="#000000" stroke="none">
<path fill="#000000" stroke="none" d="M398 1044 c-38 -34 -38 -34 -135 -34
-54 0 -104 -4 -111 -8 -32 -21 -61 -77 -67 -131 -4 -31 -18 -75 -32 -99 -34
-60 -53 -117 -46 -142 5 -20 11 -22 56 -17 l49 4 -6 -44 c-3 -24 -17 -63 -30
-86 l-24 -42 28 -88 c15 -49 30 -91 33 -93 3 -3 14 -1 25 5 13 7 29 7 48 1 16
-5 94 -31 174 -56 80 -26 151 -49 157 -52 9 -3 11 4 7 26 -5 26 -3 30 23 35
15 3 36 9 46 13 16 6 17 2 11 -44 l-7 -52 84 -40 c46 -23 83 -45 82 -49 -5
-21 36 -39 98 -43 63 -4 65 -3 61 18 -2 12 -16 34 -31 48 l-28 26 19 123 c28
187 10 277 -59 296 -21 6 -46 11 -55 11 -19 0 -25 34 -8 45 5 3 32 9 60 12 57
7 58 10 33 90 -11 34 -22 53 -32 53 -9 1 -27 7 -40 14 -24 13 -23 14 26 30 89
30 118 121 65 205 -20 32 -40 48 -72 61 -43 17 -47 17 -94 -1 -26 -10 -56 -24
-65 -32 -32 -28 -52 -28 -94 1 -23 16 -58 38 -77 49 l-35 22 -37 -35z"/>
</g>
</svg>
