<?xml version="1.0" standalone="no"?>
<!DOCTYPE svg PUBLIC "-//W3C//DTD SVG 20010904//EN"
 "http://www.w3.org/TR/2001/REC-SVG-20010904/DTD/svg10.dtd">
<svg version="1.0" xmlns="http://www.w3.org/2000/svg"
 width="58.000000pt" height="74.000000pt" viewBox="0 0 58.000000 74.000000"
 preserveAspectRatio="xMidYMid meet">
<metadata>
Created by potrace 1.14, written by Peter Selinger 2001-2017
</metadata>
<g transform="translate(0.000000,74.000000) scale(0.100000,-0.100000)"
fill="#000000" stroke="none">
<path fill="#000000" stroke="none" d="M194 686 c-34 -72 -33 -144 3 -182 26
-28 35 -87 16 -105 -5 -3 -38 -16 -76 -29 -60 -19 -69 -26 -82 -57 -9 -20 -18
-54 -22 -77 -3 -23 -12 -53 -19 -68 -8 -15 -14 -56 -14 -91 l0 -64 76 -7 c56
-5 81 -4 93 6 11 9 56 13 158 13 l142 0 -6 132 -6 132 62 65 63 64 -24 15
c-12 8 -58 18 -101 22 -74 6 -79 8 -73 28 3 12 6 28 6 35 0 6 7 12 16 12 12 0
15 6 9 23 -4 12 -10 42 -15 67 -4 25 -10 52 -14 61 -10 24 -64 47 -119 52
l-49 5 -24 -52z"/>
<path fill="#000000" stroke="none" d="M328 13 c12 -2 32 -2 45 0 12 2 2 4
-23 4 -25 0 -35 -2 -22 -4z"/>
</g>
</svg>
