<?xml version="1.0" standalone="no"?>
<!DOCTYPE svg PUBLIC "-//W3C//DTD SVG 20010904//EN"
 "http://www.w3.org/TR/2001/REC-SVG-20010904/DTD/svg10.dtd">
<svg version="1.0" xmlns="http://www.w3.org/2000/svg"
 width="372.000000pt" height="73.000000pt" viewBox="0 0 372.000000 73.000000"
 preserveAspectRatio="xMidYMid meet">
<metadata>
Created by potrace 1.14, written by Peter Selinger 2001-2017
</metadata>
<g transform="translate(0.000000,73.000000) scale(0.100000,-0.100000)"
fill="#000000" stroke="none">
<path fill="#000000" stroke="none" d="M3568 705 c3 -17 -1 -27 -12 -31 -10
-4 -16 -18 -16 -36 0 -30 1 -30 38 -24 20 3 61 6 90 6 64 0 67 14 12 53 -22
16 -40 35 -40 43 0 10 -12 14 -39 14 -35 0 -38 -2 -33 -25z"/>
<path fill="#000000" stroke="none" d="M31 179 c-26 -28 -28 -34 -19 -68 6
-20 19 -53 30 -75 l20 -39 60 6 c58 5 85 16 61 24 -7 2 -9 11 -7 18 9 23 -56
135 -88 151 -27 14 -30 13 -57 -17z"/>
</g>
</svg>
