<?xml version="1.0" standalone="no"?>
<!DOCTYPE svg PUBLIC "-//W3C//DTD SVG 20010904//EN"
 "http://www.w3.org/TR/2001/REC-SVG-20010904/DTD/svg10.dtd">
<svg version="1.0" xmlns="http://www.w3.org/2000/svg"
 width="575.000000pt" height="112.000000pt" viewBox="0 0 575.000000 112.000000"
 preserveAspectRatio="xMidYMid meet">
<metadata>
Created by potrace 1.14, written by Peter Selinger 2001-2017
</metadata>
<g transform="translate(0.000000,112.000000) scale(0.100000,-0.100000)"
fill="#000000" stroke="none">
<path fill="#000000" stroke="none" d="M3130 1105 c-7 -8 -16 -15 -21 -15 -5
0 -31 -15 -57 -33 -80 -55 -94 -59 -163 -53 -98 9 -119 12 -126 19 -3 4 -23 7
-44 7 -30 0 -42 -6 -63 -32 -21 -27 -24 -29 -20 -11 9 35 -20 73 -56 73 -36 0
-59 -12 -123 -63 l-47 -39 -170 1 c-100 1 -179 -3 -190 -9 -12 -7 -21 -7 -25
0 -3 5 -33 10 -66 10 -55 0 -59 2 -59 23 0 12 -7 33 -16 45 -14 20 -23 22
-106 22 -72 0 -95 -4 -110 -17 -13 -12 -32 -16 -59 -14 -22 1 -47 -3 -55 -10
-12 -10 -18 -8 -30 10 -13 18 -24 22 -60 20 -25 -2 -49 2 -56 9 -13 13 -80 17
-92 5 -3 -4 -16 -8 -28 -10 -12 -2 -27 -8 -33 -13 -13 -11 -72 -3 -81 11 -3 5
-16 9 -28 9 -13 0 -29 7 -36 15 -8 9 -29 15 -56 15 -34 0 -51 -7 -77 -30 -19
-16 -39 -30 -44 -30 -6 0 -18 -8 -27 -19 -13 -15 -17 -41 -19 -125 -1 -77 -5
-106 -14 -106 -7 0 -13 10 -13 23 0 12 -7 33 -17 46 -15 22 -20 23 -93 18 -75
-6 -77 -6 -89 19 -6 14 -25 43 -43 65 -25 31 -38 39 -63 39 -18 0 -39 -8 -49
-18 -15 -18 -15 -21 4 -45 12 -15 20 -40 20 -62 0 -27 8 -44 29 -65 25 -25 26
-30 13 -43 -12 -13 -11 -21 14 -63 15 -27 31 -51 35 -54 7 -6 18 -51 24 -105
10 -86 -1 -79 136 -94 119 -12 125 -14 150 -43 l25 -31 55 13 c29 7 65 19 77
27 28 17 52 70 52 113 0 25 11 41 51 79 l52 47 -12 52 c-15 59 -3 87 46 107
24 10 37 8 85 -13 33 -14 60 -32 63 -43 4 -11 13 -19 21 -19 21 0 17 -17 -5
-23 -27 -7 -34 -75 -9 -90 10 -7 18 -24 18 -38 0 -14 9 -34 20 -44 11 -10 20
-23 20 -30 0 -21 34 -43 75 -49 22 -3 83 -8 135 -11 132 -8 160 -14 160 -35 0
-9 8 -24 18 -33 15 -13 46 -15 218 -13 194 2 202 2 214 -18 7 -12 15 -37 17
-56 7 -62 9 -68 22 -84 15 -18 61 -22 61 -6 0 6 19 28 42 50 34 31 56 41 105
51 56 11 63 15 63 36 0 22 4 23 63 23 35 0 67 4 72 9 6 4 27 6 48 4 30 -4 37
-9 37 -28 0 -25 29 -55 53 -55 20 0 67 21 67 30 0 3 16 25 36 49 31 36 36 47
31 77 -6 34 -4 36 40 55 39 17 50 18 85 7 26 -7 43 -20 49 -34 9 -27 1 -123
-13 -141 -6 -7 -5 -20 2 -33 7 -12 10 -33 7 -47 -3 -15 4 -35 19 -56 13 -18
32 -45 41 -61 32 -51 72 -93 107 -110 53 -25 142 -21 195 9 27 16 59 25 85 25
51 0 128 36 183 87 l42 38 -9 80 c-5 44 -9 104 -9 132 -1 49 -4 55 -44 92 -38
35 -43 44 -39 75 4 37 4 37 63 41 19 1 49 23 49 37 0 5 8 18 18 29 10 10 24
35 30 55 10 33 9 36 -14 46 -28 13 -68 73 -59 88 3 5 -2 11 -12 11 -10 1 -39
3 -66 5 -26 2 -57 10 -69 19 -13 8 -43 15 -70 15 -49 0 -75 10 -114 42 -17 15
-49 19 -186 24 -120 5 -167 4 -172 -4 -4 -7 -12 -12 -18 -12 -7 0 -6 6 2 15 7
8 18 15 25 15 18 0 65 57 65 79 0 9 -7 27 -16 39 -18 26 -75 30 -94 7z"/>
<path fill="#ffffff" stroke="none" d="M2754 876 c-3 -14 -12 -26 -20 -26 -18
0 -18 10 2 38 20 28 27 23 18 -12z"/>
<path fill="#ffffff" stroke="none" d="M2913 878 c28 -16 45 -36 58 -66 27
-61 24 -68 -23 -85 -41 -15 -41 -15 -13 -16 37 -2 68 -18 45 -24 -8 -2 -31 -9
-50 -15 -19 -6 -53 -14 -75 -18 -22 -3 -49 -12 -61 -19 -20 -13 -78 -13 -155
0 -55 9 -48 33 15 53 39 13 56 26 80 61 52 74 117 151 128 151 6 0 28 -10 51
-22z"/>
<path fill="#ffffff" stroke="none" d="M1576 659 c13 -14 13 -17 -1 -22 -28
-11 -45 3 -39 32 10 39 18 49 22 26 2 -11 11 -27 18 -36z"/>
<path fill="#ffffff" stroke="none" d="M1868 680 c-7 -11 -19 -20 -25 -20 -11
0 -11 4 -1 20 7 11 19 20 25 20 11 0 11 -4 1 -20z"/>
<path fill="#ffffff" stroke="none" d="M3195 651 c16 -7 13 -9 -17 -13 -25 -2
-39 0 -42 9 -6 15 26 17 59 4z"/>
<path fill="#ffffff" stroke="none" d="M3360 624 c17 -10 18 -13 5 -9 -11 4
-35 9 -53 10 -46 5 -54 15 -11 15 19 -1 45 -8 59 -16z"/>
<path fill="#ffffff" stroke="none" d="M3415 612 c-3 -3 -11 0 -18 7 -9 10 -8
11 6 5 10 -3 15 -9 12 -12z"/>
<path fill="#ffffff" stroke="none" d="M862 548 c-7 -7 -12 -8 -12 -2 0 14 12
26 19 19 2 -3 -1 -11 -7 -17z"/>
<path fill="#ffffff" stroke="none" d="M3256 485 c-27 -21 -53 -20 -36 0 7 8
22 15 34 15 21 -1 21 -1 2 -15z"/>
<path fill="#000000" stroke="none" d="M3885 1097 c-21 -18 -27 -34 -32 -82
-5 -52 -3 -62 16 -79 21 -19 22 -19 51 9 26 25 32 27 52 16 46 -24 56 -37 78
-99 14 -37 40 -83 65 -110 53 -59 65 -82 65 -124 0 -41 9 -53 37 -54 19 0 24
7 34 55 38 190 31 174 98 238 65 64 74 90 45 131 -18 26 -51 28 -136 8 l-58
-14 0 28 c0 52 -25 66 -145 84 -139 20 -139 20 -170 -7z"/>
<path fill="#000000" stroke="none" d="M137 1062 c-10 -10 -17 -35 -17 -55 0
-34 -2 -37 -28 -37 -52 0 -62 -22 -82 -190 -5 -41 -9 -120 -9 -176 -1 -111 9
-134 61 -134 31 0 38 15 38 78 0 41 5 51 41 88 39 40 40 43 26 65 -8 13 -18
38 -22 55 -5 29 -2 35 39 69 25 20 50 34 55 31 6 -4 10 15 10 47 0 30 3 71 6
91 10 53 -14 86 -64 86 -24 0 -44 -7 -54 -18z"/>
<path fill="#000000" stroke="none" d="M4704 976 c-29 -29 -34 -39 -28 -63 4
-15 10 -32 14 -36 4 -4 63 -25 131 -46 112 -34 124 -40 127 -62 1 -13 -6 -109
-16 -214 -15 -142 -17 -210 -10 -270 12 -112 16 -125 36 -125 15 0 22 24 46
143 20 102 39 166 68 228 l40 86 -31 87 c-17 48 -31 91 -31 94 0 4 12 20 26
35 l26 28 -48 45 c-27 25 -60 47 -74 50 -14 3 -35 10 -48 15 -13 5 -33 9 -45
9 -12 0 -31 7 -41 15 -11 8 -40 15 -64 15 -37 0 -50 -6 -78 -34z"/>
<path fill="#000000" stroke="none" d="M5458 960 c-99 -10 -119 -15 -151 -41
-27 -20 -27 -22 -26 -142 l0 -122 96 -79 96 -79 -7 -192 -7 -192 62 -7 c99
-10 194 -7 212 7 16 11 17 35 15 247 l-3 235 -31 3 c-34 3 -44 20 -44 74 0 15
-10 57 -21 92 -20 60 -20 66 -5 87 24 34 20 57 -15 90 -34 31 -37 32 -171 19z"/>
</g>
</svg>
