<?xml version="1.0" standalone="no"?>
<!DOCTYPE svg PUBLIC "-//W3C//DTD SVG 20010904//EN"
 "http://www.w3.org/TR/2001/REC-SVG-20010904/DTD/svg10.dtd">
<svg version="1.0" xmlns="http://www.w3.org/2000/svg"
 width="61.000000pt" height="25.000000pt" viewBox="0 0 61.000000 25.000000"
 preserveAspectRatio="xMidYMid meet">
<metadata>
Created by potrace 1.14, written by Peter Selinger 2001-2017
</metadata>
<g transform="translate(0.000000,25.000000) scale(0.100000,-0.100000)"
fill="#000000" stroke="none">
<path fill="#000000" stroke="none" d="M270 219 c-155 -19 -258 -35 -263 -42
-4 -7 -6 -34 -4 -61 4 -42 10 -55 41 -83 32 -30 42 -33 95 -33 33 0 62 4 65 9
8 13 108 23 223 22 102 -1 102 -1 137 32 42 40 55 92 34 145 -11 30 -19 37
-43 39 -17 0 -145 -12 -285 -28z"/>
</g>
</svg>
