<?xml version="1.0" standalone="no"?>
<!DOCTYPE svg PUBLIC "-//W3C//DTD SVG 20010904//EN"
 "http://www.w3.org/TR/2001/REC-SVG-20010904/DTD/svg10.dtd">
<svg version="1.0" xmlns="http://www.w3.org/2000/svg"
 width="138.000000pt" height="57.000000pt" viewBox="0 0 138.000000 57.000000"
 preserveAspectRatio="xMidYMid meet">
<metadata>
Created by potrace 1.14, written by Peter Selinger 2001-2017
</metadata>
<g transform="translate(0.000000,57.000000) scale(0.100000,-0.100000)"
fill="#000000" stroke="none">
<path fill="#000000" stroke="none" d="M1015 558 c-34 -18 -45 -40 -45 -87 0
-35 -3 -42 -12 -33 -17 17 -69 15 -95 -3 -18 -13 -22 -13 -35 3 -9 9 -21 28
-28 40 -14 27 -66 52 -110 52 -28 0 -41 -9 -78 -54 -7 -9 -28 -16 -47 -16 -19
0 -50 -8 -70 -17 -31 -15 -40 -15 -73 -3 -20 7 -49 22 -65 34 -24 17 -31 18
-60 8 -19 -7 -53 -12 -77 -12 -24 0 -57 -4 -74 -9 -17 -5 -44 -13 -61 -18 -21
-6 -32 -17 -39 -38 -5 -17 -15 -46 -22 -65 -7 -19 -16 -60 -20 -91 -5 -50 -3
-60 15 -78 33 -33 85 -28 113 9 21 29 25 30 94 30 88 0 104 -5 104 -35 0 -28
30 -55 62 -55 14 0 31 -7 38 -15 23 -28 213 -12 236 20 11 15 16 16 29 5 8 -7
28 -10 45 -8 26 4 30 1 30 -18 0 -12 7 -27 15 -34 8 -7 15 -18 15 -25 0 -6 9
-20 20 -30 16 -15 28 -16 76 -9 91 14 118 70 65 135 -18 23 -44 29 -128 31
-28 1 -33 5 -33 26 0 20 4 23 23 18 154 -44 268 -19 253 54 -6 31 6 40 54 40
19 0 35 9 48 25 16 20 21 22 26 10 3 -8 10 -15 16 -15 5 0 19 -9 30 -20 30
-30 83 -27 109 6 12 15 21 34 21 44 0 10 -9 29 -21 44 -25 32 -79 36 -108 7
-30 -30 -44 -29 -66 3 -11 17 -31 32 -43 34 -18 3 -22 10 -22 38 0 24 -8 43
-25 59 -26 27 -49 31 -80 13z"/>
<path fill="#000000" stroke="none" d="M1244 246 c-11 -28 4 -48 33 -44 22 2
28 8 28 28 0 20 -6 26 -28 28 -18 2 -29 -2 -33 -12z"/>
<path fill="#000000" stroke="none" d="M1110 170 c-11 -11 -20 -33 -20 -50 0
-68 96 -98 139 -44 12 15 21 34 21 44 0 10 -9 29 -21 44 -26 33 -88 37 -119 6z"/>
</g>
</svg>
