<?xml version="1.0" standalone="no"?>
<!DOCTYPE svg PUBLIC "-//W3C//DTD SVG 20010904//EN"
 "http://www.w3.org/TR/2001/REC-SVG-20010904/DTD/svg10.dtd">
<svg version="1.0" xmlns="http://www.w3.org/2000/svg"
 width="93.000000pt" height="38.000000pt" viewBox="0 0 93.000000 38.000000"
 preserveAspectRatio="xMidYMid meet">
<metadata>
Created by potrace 1.14, written by Peter Selinger 2001-2017
</metadata>
<g transform="translate(0.000000,38.000000) scale(0.100000,-0.100000)"
fill="#000000" stroke="none">
<path fill="#000000" stroke="none" d="M736 358 c-9 -12 -16 -32 -16 -44 0
-14 -8 -24 -22 -28 -13 -3 -40 -31 -63 -65 l-40 -59 -65 -6 c-36 -3 -112 -15
-170 -26 -58 -10 -147 -26 -198 -35 -99 -17 -162 -47 -162 -78 0 -15 6 -16 42
-11 24 4 55 13 69 20 61 30 179 29 179 -1 0 -8 3 -15 8 -15 97 2 265 26 376
54 76 20 143 33 148 30 5 -3 31 -3 58 1 58 8 65 27 24 66 -31 28 -69 96 -70
124 -1 11 -2 32 -3 46 -1 17 -10 30 -26 37 -37 17 -52 15 -69 -10z"/>
</g>
</svg>
