<?xml version="1.0" standalone="no"?>
<!DOCTYPE svg PUBLIC "-//W3C//DTD SVG 20010904//EN"
 "http://www.w3.org/TR/2001/REC-SVG-20010904/DTD/svg10.dtd">
<svg version="1.0" xmlns="http://www.w3.org/2000/svg"
 width="190.000000pt" height="80.000000pt" viewBox="0 0 190.000000 80.000000"
 preserveAspectRatio="xMidYMid meet">
<metadata>
Created by potrace 1.14, written by Peter Selinger 2001-2017
</metadata>
<g transform="translate(0.000000,80.000000) scale(0.100000,-0.100000)"
fill="#000000" stroke="none">
<path fill="#000000" stroke="none" d="M5 726 c-3 -39 -5 -165 -3 -280 l3
-209 495 -103 c272 -57 504 -108 514 -114 13 -8 125 -13 362 -14 337 -3 344
-3 363 18 10 12 27 37 36 56 10 19 30 53 45 75 45 66 55 112 76 370 l6 80 -42
34 c-37 29 -44 32 -57 19 -12 -13 -38 -10 -211 25 l-197 40 -150 -12 c-82 -6
-159 -9 -171 -5 -12 3 -76 -13 -153 -39 l-132 -45 -389 88 -389 87 -6 -71z"/>
</g>
</svg>
