<?xml version="1.0" standalone="no"?>
<!DOCTYPE svg PUBLIC "-//W3C//DTD SVG 20010904//EN"
 "http://www.w3.org/TR/2001/REC-SVG-20010904/DTD/svg10.dtd">
<svg version="1.0" xmlns="http://www.w3.org/2000/svg"
 width="20.000000pt" height="35.000000pt" viewBox="0 0 20.000000 35.000000"
 preserveAspectRatio="xMidYMid meet">
<metadata>
Created by potrace 1.14, written by Peter Selinger 2001-2017
</metadata>
<g transform="translate(0.000000,35.000000) scale(0.100000,-0.100000)"
fill="#000000" stroke="none">
<path fill="#000000" stroke="none" d="M87 332 c-10 -10 -17 -25 -17 -33 0 -8
-10 -19 -22 -24 -26 -12 -41 -57 -33 -102 3 -18 1 -33 -5 -35 -16 -5 -1 -128
16 -135 15 -5 89 34 141 76 27 21 33 33 33 65 0 57 -20 115 -42 122 -15 4 -18
12 -13 31 11 46 -28 69 -58 35z"/>
</g>
</svg>
