<?xml version="1.0" standalone="no"?>
<!DOCTYPE svg PUBLIC "-//W3C//DTD SVG 20010904//EN"
 "http://www.w3.org/TR/2001/REC-SVG-20010904/DTD/svg10.dtd">
<svg version="1.0" xmlns="http://www.w3.org/2000/svg"
 width="43.000000pt" height="78.000000pt" viewBox="0 0 43.000000 78.000000"
 preserveAspectRatio="xMidYMid meet">
<metadata>
Created by potrace 1.14, written by Peter Selinger 2001-2017
</metadata>
<g transform="translate(0.000000,78.000000) scale(0.100000,-0.100000)"
fill="#000000" stroke="none">
<path fill="#000000" stroke="none" d="M162 757 c-14 -14 -22 -36 -22 -56 0
-32 1 -33 31 -27 17 3 42 6 55 6 35 0 33 51 -2 79 -33 26 -36 26 -62 -2z"/>
<path fill="#000000" stroke="none" d="M211 590 c-39 -9 -51 -24 -51 -66 0
-30 -2 -31 -74 -48 l-73 -17 -7 -91 c-10 -154 -15 -142 57 -173 l64 -27 -13
-71 c-7 -40 -13 -76 -13 -82 -1 -6 52 -9 144 -7 l145 3 2 57 c3 103 5 117 21
171 20 65 21 143 3 228 -17 78 -27 90 -81 99 -25 3 -50 12 -56 20 -13 15 -18
16 -68 4z"/>
</g>
</svg>
