<?xml version="1.0" standalone="no"?>
<!DOCTYPE svg PUBLIC "-//W3C//DTD SVG 20010904//EN"
 "http://www.w3.org/TR/2001/REC-SVG-20010904/DTD/svg10.dtd">
<svg version="1.0" xmlns="http://www.w3.org/2000/svg"
 width="12.000000pt" height="20.000000pt" viewBox="0 0 12.000000 20.000000"
 preserveAspectRatio="xMidYMid meet">
<metadata>
Created by potrace 1.14, written by Peter Selinger 2001-2017
</metadata>
<g transform="translate(0.000000,20.000000) scale(0.100000,-0.100000)"
fill="#000000" stroke="none">
<path fill="#000000" stroke="none" d="M34 165 c-19 -47 -18 -58 6 -52 16 4
20 0 20 -19 0 -29 -24 -41 -45 -24 -9 7 -15 8 -15 2 0 -5 7 -13 16 -16 10 -4
14 -12 10 -23 -7 -16 8 -33 30 -33 7 0 15 16 18 35 5 26 12 35 26 35 24 0 27
25 4 34 -9 3 -14 13 -10 21 8 21 -14 75 -30 75 -8 0 -22 -16 -30 -35z"/>
</g>
</svg>
