<?xml version="1.0" standalone="no"?>
<!DOCTYPE svg PUBLIC "-//W3C//DTD SVG 20010904//EN"
 "http://www.w3.org/TR/2001/REC-SVG-20010904/DTD/svg10.dtd">
<svg version="1.0" xmlns="http://www.w3.org/2000/svg"
 width="70.000000pt" height="111.000000pt" viewBox="0 0 70.000000 111.000000"
 preserveAspectRatio="xMidYMid meet">
<metadata>
Created by potrace 1.14, written by Peter Selinger 2001-2017
</metadata>
<g transform="translate(0.000000,111.000000) scale(0.100000,-0.100000)"
fill="#000000" stroke="none">
<path fill="#000000" stroke="none" d="M388 1094 c-19 -10 -31 -28 -39 -57 -6
-23 -18 -50 -26 -59 -15 -17 -15 -95 1 -129 5 -11 -6 -20 -48 -38 -38 -16 -57
-30 -65 -50 -12 -28 -57 -61 -84 -61 -8 0 -38 10 -66 21 -28 12 -53 20 -55 18
-7 -7 20 -100 31 -107 6 -4 20 -25 31 -47 26 -51 53 -68 97 -59 41 7 42 5 24
-107 -9 -60 -8 -74 5 -94 9 -13 16 -42 16 -64 0 -32 9 -50 45 -94 24 -30 54
-80 66 -111 l20 -56 93 0 94 0 6 31 c3 17 6 47 6 65 0 33 1 34 44 34 38 0 47
5 69 33 44 57 52 127 32 263 -9 66 -17 140 -16 166 1 41 -7 60 -65 153 l-66
105 20 76 21 76 -21 43 c-15 30 -31 48 -51 55 -41 14 -87 12 -119 -6z"/>
</g>
</svg>
