<?xml version="1.0" standalone="no"?>
<!DOCTYPE svg PUBLIC "-//W3C//DTD SVG 20010904//EN"
 "http://www.w3.org/TR/2001/REC-SVG-20010904/DTD/svg10.dtd">
<svg version="1.0" xmlns="http://www.w3.org/2000/svg"
 width="39.000000pt" height="61.000000pt" viewBox="0 0 39.000000 61.000000"
 preserveAspectRatio="xMidYMid meet">
<metadata>
Created by potrace 1.14, written by Peter Selinger 2001-2017
</metadata>
<g transform="translate(0.000000,61.000000) scale(0.100000,-0.100000)"
fill="#000000" stroke="none">
<path fill="#000000" stroke="none" d="M155 590 c-41 -19 -41 -20 -54 -97 -10
-61 -19 -85 -41 -108 -25 -28 -29 -42 -44 -174 -21 -181 -26 -173 133 -195
l114 -16 51 47 c28 25 57 52 64 58 12 10 8 32 -18 125 -18 62 -42 156 -55 207
-19 81 -28 100 -61 134 -21 21 -41 39 -44 38 -3 0 -23 -9 -45 -19z"/>
</g>
</svg>
