<?xml version="1.0" standalone="no"?>
<!DOCTYPE svg PUBLIC "-//W3C//DTD SVG 20010904//EN"
 "http://www.w3.org/TR/2001/REC-SVG-20010904/DTD/svg10.dtd">
<svg version="1.0" xmlns="http://www.w3.org/2000/svg"
 width="169.000000pt" height="289.000000pt" viewBox="0 0 169.000000 289.000000"
 preserveAspectRatio="xMidYMid meet">
<metadata>
Created by potrace 1.14, written by Peter Selinger 2001-2017
</metadata>
<g transform="translate(0.000000,289.000000) scale(0.100000,-0.100000)"
fill="#000000" stroke="none">
<path fill="#000000" stroke="none" d="M944 2862 c-44 -15 -96 -40 -115 -56
-51 -43 -116 -146 -154 -245 -49 -130 -55 -153 -69 -295 -12 -113 -17 -131
-36 -146 -19 -14 -22 -24 -18 -61 5 -41 1 -48 -51 -114 -71 -89 -136 -155
-286 -290 -66 -59 -128 -115 -138 -125 -28 -26 -35 -73 -57 -385 l-20 -290 43
-248 43 -247 -32 -78 c-29 -68 -33 -88 -34 -171 0 -93 0 -94 20 -76 18 17 21
16 66 -10 l47 -28 216 23 216 24 100 58 c60 34 177 87 295 131 260 98 451 207
557 318 58 60 80 92 112 164 l40 90 -10 180 c-5 99 -13 227 -19 285 -5 58 -12
166 -16 240 -3 74 -14 194 -25 265 -17 120 -23 141 -75 249 -63 132 -63 137 0
171 l38 20 -4 70 c-3 39 -22 140 -43 225 l-38 155 -104 85 c-140 114 -195 140
-293 139 -54 0 -98 -8 -156 -27z"/>
</g>
</svg>
