<?xml version="1.0" standalone="no"?>
<!DOCTYPE svg PUBLIC "-//W3C//DTD SVG 20010904//EN"
 "http://www.w3.org/TR/2001/REC-SVG-20010904/DTD/svg10.dtd">
<svg version="1.0" xmlns="http://www.w3.org/2000/svg"
 width="239.000000pt" height="384.000000pt" viewBox="0 0 239.000000 384.000000"
 preserveAspectRatio="xMidYMid meet">
<metadata>
Created by potrace 1.14, written by Peter Selinger 2001-2017
</metadata>
<g transform="translate(0.000000,384.000000) scale(0.100000,-0.100000)"
fill="#000000" stroke="none">
<path fill="#000000" stroke="none" d="M950 3762 c-78 -70 -95 -81 -193 -117
l-106 -40 5 -75 c3 -41 15 -107 25 -147 19 -68 19 -78 5 -179 -13 -90 -13
-111 -2 -133 8 -14 21 -43 29 -64 l16 -37 -54 -31 c-30 -17 -55 -37 -55 -44 0
-35 89 -198 160 -292 l80 -106 0 -63 c0 -34 3 -69 6 -77 7 -20 -164 -161 -374
-307 l-165 -115 -108 -170 c-100 -156 -113 -182 -159 -321 l-50 -150 -6 -175
-6 -174 91 -260 c86 -244 99 -272 204 -457 l112 -197 70 -5 c140 -11 1756 -29
1764 -20 5 5 12 19 15 30 5 17 2 23 -18 28 -32 8 -117 156 -188 329 -43 105
-57 129 -102 170 l-51 48 70 -5 c39 -3 104 -9 146 -12 l77 -7 16 54 15 54 86
33 85 34 -26 33 -25 33 -112 4 c-112 3 -112 3 -221 -39 -61 -23 -112 -40 -115
-38 -2 3 -5 132 -6 287 l-3 283 -36 85 c-19 47 -60 171 -91 275 -30 105 -77
253 -105 329 -27 77 -47 142 -45 144 2 3 48 9 102 14 54 5 101 13 104 16 16
19 129 447 129 489 0 27 -9 137 -20 246 l-21 197 50 73 49 73 -174 204 c-95
113 -173 212 -174 220 0 17 -5 18 -300 106 -121 37 -159 44 -230 44 l-85 0
-85 -78z"/>
<path fill="#000000" stroke="none" d="M2316 29 l-39 -29 57 0 c56 0 56 0 56
30 0 39 -22 39 -74 -1z"/>
</g>
</svg>
