<?xml version="1.0" standalone="no"?>
<!DOCTYPE svg PUBLIC "-//W3C//DTD SVG 20010904//EN"
 "http://www.w3.org/TR/2001/REC-SVG-20010904/DTD/svg10.dtd">
<svg version="1.0" xmlns="http://www.w3.org/2000/svg"
 width="13.000000pt" height="23.000000pt" viewBox="0 0 13.000000 23.000000"
 preserveAspectRatio="xMidYMid meet">
<metadata>
Created by potrace 1.14, written by Peter Selinger 2001-2017
</metadata>
<g transform="translate(0.000000,23.000000) scale(0.100000,-0.100000)"
fill="#000000" stroke="none">
<path fill="#000000" stroke="none" d="M53 210 c-5 -19 -7 -20 -23 -5 -12 11
-20 13 -24 6 -10 -15 12 -51 29 -51 12 0 15 -14 15 -64 0 -76 6 -96 30 -96 31
0 38 21 29 85 -6 45 -5 65 6 81 15 23 10 33 -22 52 -30 16 -34 15 -40 -8z"/>
</g>
</svg>
