<?xml version="1.0" standalone="no"?>
<!DOCTYPE svg PUBLIC "-//W3C//DTD SVG 20010904//EN"
 "http://www.w3.org/TR/2001/REC-SVG-20010904/DTD/svg10.dtd">
<svg version="1.0" xmlns="http://www.w3.org/2000/svg"
 width="21.000000pt" height="36.000000pt" viewBox="0 0 21.000000 36.000000"
 preserveAspectRatio="xMidYMid meet">
<metadata>
Created by potrace 1.14, written by Peter Selinger 2001-2017
</metadata>
<g transform="translate(0.000000,36.000000) scale(0.100000,-0.100000)"
fill="#000000" stroke="none">
<path fill="#000000" stroke="none" d="M50 314 l-50 -47 0 -113 0 -114 41 -20
c23 -12 54 -20 72 -18 31 3 32 4 32 51 0 35 4 49 16 52 9 3 24 14 34 25 16 18
16 21 -9 74 -29 60 -31 77 -16 92 8 8 7 19 -1 37 -20 43 -60 36 -119 -19z"/>
</g>
</svg>
