<?xml version="1.0" standalone="no"?>
<!DOCTYPE svg PUBLIC "-//W3C//DTD SVG 20010904//EN"
 "http://www.w3.org/TR/2001/REC-SVG-20010904/DTD/svg10.dtd">
<svg version="1.0" xmlns="http://www.w3.org/2000/svg"
 width="119.000000pt" height="204.000000pt" viewBox="0 0 119.000000 204.000000"
 preserveAspectRatio="xMidYMid meet">
<metadata>
Created by potrace 1.14, written by Peter Selinger 2001-2017
</metadata>
<g transform="translate(0.000000,204.000000) scale(0.100000,-0.100000)"
fill="#000000" stroke="none">
<path fill="#000000" stroke="none" d="M628 2005 c-53 -16 -100 -33 -103 -37
-7 -7 -65 -292 -65 -319 0 -8 28 -56 63 -105 l64 -90 -77 -43 -78 -43 -27
-107 c-15 -58 -30 -110 -32 -114 -3 -5 -13 -1 -22 7 -25 23 -273 196 -281 196
-3 0 -20 -15 -38 -33 l-31 -32 30 -49 c17 -26 38 -50 48 -53 9 -2 28 -22 41
-43 23 -36 28 -40 94 -51 66 -11 76 -16 175 -96 l106 -84 46 -125 46 -126 -77
-184 -76 -185 10 -57 c6 -31 14 -62 19 -69 4 -6 60 -41 125 -77 89 -49 133
-67 182 -75 88 -15 84 -15 103 23 12 26 117 527 117 560 0 4 -5 4 -12 0 -8 -5
-9 2 -4 27 3 18 13 37 20 41 8 4 17 30 21 56 3 26 10 53 13 60 4 6 42 27 85
46 74 34 77 37 77 69 0 19 -24 128 -54 243 -49 193 -57 217 -106 294 -30 49
-79 109 -113 141 l-61 56 28 71 c26 69 27 76 19 168 l-8 97 -85 36 -85 37 -97
-31z"/>
</g>
</svg>
