<?xml version="1.0" standalone="no"?>
<!DOCTYPE svg PUBLIC "-//W3C//DTD SVG 20010904//EN"
 "http://www.w3.org/TR/2001/REC-SVG-20010904/DTD/svg10.dtd">
<svg version="1.0" xmlns="http://www.w3.org/2000/svg"
 width="49.000000pt" height="83.000000pt" viewBox="0 0 49.000000 83.000000"
 preserveAspectRatio="xMidYMid meet">
<metadata>
Created by potrace 1.14, written by Peter Selinger 2001-2017
</metadata>
<g transform="translate(0.000000,83.000000) scale(0.100000,-0.100000)"
fill="#000000" stroke="none">
<path fill="#000000" stroke="none" d="M164 808 c-60 -30 -80 -93 -48 -153 25
-48 9 -200 -28 -268 -16 -28 -42 -79 -58 -112 l-29 -60 13 -88 c7 -48 15 -89
17 -92 5 -4 248 -35 281 -35 21 0 51 98 42 135 -6 23 -3 25 24 25 28 0 31 -3
41 -50 6 -28 11 -57 11 -64 0 -13 47 -32 56 -23 3 2 -5 43 -16 91 -11 48 -20
100 -20 116 0 16 -4 31 -8 34 -5 3 -26 67 -46 143 l-38 138 -49 35 c-27 19
-49 42 -49 50 0 8 15 25 34 37 29 18 32 25 28 55 -5 37 -33 73 -74 94 -33 17
-34 17 -84 -8z"/>
</g>
</svg>
