<?xml version="1.0" standalone="no"?>
<!DOCTYPE svg PUBLIC "-//W3C//DTD SVG 20010904//EN"
 "http://www.w3.org/TR/2001/REC-SVG-20010904/DTD/svg10.dtd">
<svg version="1.0" xmlns="http://www.w3.org/2000/svg"
 width="112.000000pt" height="195.000000pt" viewBox="0 0 112.000000 195.000000"
 preserveAspectRatio="xMidYMid meet">
<metadata>
Created by potrace 1.14, written by Peter Selinger 2001-2017
</metadata>
<g transform="translate(0.000000,195.000000) scale(0.100000,-0.100000)"
fill="#000000" stroke="none">
<path fill="#000000" stroke="none" d="M268 1851 c-75 -53 -139 -99 -142 -101
-4 -4 33 -357 49 -462 5 -34 -1 -44 -73 -135 -43 -54 -82 -104 -86 -112 -5 -7
39 19 97 58 59 39 112 71 118 71 7 0 31 -11 54 -25 32 -18 48 -37 64 -76 17
-39 30 -54 53 -63 25 -9 38 -26 70 -95 21 -46 37 -85 36 -86 -2 -1 -14 -8 -28
-15 -22 -12 -26 -10 -49 21 -33 43 -145 151 -191 183 -22 15 -57 27 -92 31
l-58 7 -19 -46 c-11 -25 -25 -65 -31 -88 -6 -24 -18 -59 -26 -79 -16 -37 -16
-38 20 -99 20 -33 36 -73 36 -88 0 -19 15 -40 56 -79 l56 -52 -6 -55 c-5 -40
0 -92 19 -196 14 -78 23 -145 20 -150 -7 -11 -8 -11 230 -61 196 -41 203 -42
338 -36 117 6 137 4 137 -8 0 -11 16 -5 58 21 57 36 59 39 85 117 15 45 25 82
24 83 -1 2 -36 4 -78 5 -53 1 -84 -3 -107 -15 -37 -19 -32 -21 -134 56 -42 32
-79 58 -83 58 -3 0 -87 38 -187 85 -100 47 -188 83 -197 80 -9 -2 -38 12 -66
33 l-50 36 105 14 c97 13 113 12 220 -6 63 -12 180 -26 260 -32 80 -6 157 -13
171 -15 22 -3 32 3 55 38 15 23 50 66 78 95 l50 53 -40 122 c-34 107 -46 130
-92 185 -49 57 -58 78 -97 200 -24 76 -58 202 -75 282 -17 80 -35 154 -39 165
-7 16 -306 234 -366 267 -5 3 -72 -38 -147 -91z"/>
<path fill="#ffffff" stroke="none" d="M800 1080 c32 -63 50 -113 50 -135 0
-19 -3 -35 -7 -35 -17 0 -73 54 -106 102 l-37 53 22 58 c13 31 24 57 25 57 2
0 25 -45 53 -100z"/>
</g>
</svg>
