<?xml version="1.0" standalone="no"?>
<!DOCTYPE svg PUBLIC "-//W3C//DTD SVG 20010904//EN"
 "http://www.w3.org/TR/2001/REC-SVG-20010904/DTD/svg10.dtd">
<svg version="1.0" xmlns="http://www.w3.org/2000/svg"
 width="57.000000pt" height="99.000000pt" viewBox="0 0 57.000000 99.000000"
 preserveAspectRatio="xMidYMid meet">
<metadata>
Created by potrace 1.14, written by Peter Selinger 2001-2017
</metadata>
<g transform="translate(0.000000,99.000000) scale(0.100000,-0.100000)"
fill="#000000" stroke="none">
<path fill="#000000" stroke="none" d="M165 960 c-43 -45 -58 -150 -34 -242
l17 -67 -28 -11 c-15 -6 -48 -30 -74 -53 l-47 -42 21 -150 c26 -184 81 -355
115 -355 11 0 52 -9 90 -20 38 -11 74 -20 80 -20 5 0 28 26 49 58 32 47 35 53
13 33 -26 -23 -29 -24 -44 -8 -14 13 -18 49 -23 205 -6 147 -11 195 -24 221
-10 18 -16 34 -14 35 2 1 15 7 30 14 26 11 28 10 34 -16 3 -15 21 -79 39 -142
18 -63 39 -141 46 -174 7 -32 17 -60 23 -62 6 -2 38 5 71 15 55 18 60 21 58
47 -1 15 -12 37 -24 50 -18 19 -24 45 -35 156 -8 73 -18 134 -22 136 -4 1 -30
16 -59 32 -64 36 -70 60 -44 152 l20 68 -42 84 -42 85 -61 1 c-54 0 -63 -3
-89 -30z"/>
</g>
</svg>
