<?xml version="1.0" standalone="no"?>
<!DOCTYPE svg PUBLIC "-//W3C//DTD SVG 20010904//EN"
 "http://www.w3.org/TR/2001/REC-SVG-20010904/DTD/svg10.dtd">
<svg version="1.0" xmlns="http://www.w3.org/2000/svg"
 width="221.000000pt" height="360.000000pt" viewBox="0 0 221.000000 360.000000"
 preserveAspectRatio="xMidYMid meet">
<metadata>
Created by potrace 1.14, written by Peter Selinger 2001-2017
</metadata>
<g transform="translate(0.000000,360.000000) scale(0.100000,-0.100000)"
fill="#000000" stroke="none">
<path fill="#000000" stroke="none" d="M844 3514 l-122 -85 -11 -117 c-7 -64
-13 -124 -15 -132 -2 -14 8 -46 67 -201 l25 -66 -109 -118 c-60 -65 -109 -123
-109 -129 0 -6 7 -49 14 -96 13 -80 12 -114 -25 -560 l-39 -475 -133 -515
-134 -515 -121 -211 c-66 -116 -123 -227 -127 -246 l-7 -35 99 -6 c54 -4 133
-7 175 -7 l76 0 92 124 91 125 57 11 c31 6 61 12 66 14 6 1 48 97 96 212 l85
209 139 73 c76 40 140 71 141 70 1 -2 51 -135 111 -296 l108 -294 36 6 c19 3
60 9 91 12 l55 6 13 -126 14 -126 213 0 214 0 0 23 c0 13 -56 149 -124 303
l-123 279 -97 415 c-53 228 -96 425 -96 436 0 22 46 134 55 134 2 0 51 -32
107 -71 l103 -71 125 7 c112 6 201 16 268 31 l23 5 -27 48 c-18 32 -33 47 -43
45 -9 -2 -44 -1 -79 3 l-62 8 25 37 c14 21 36 41 50 44 24 6 22 9 -95 245
l-120 239 -87 328 -87 329 -167 74 c-93 40 -163 76 -157 80 6 4 49 15 95 25
45 9 83 20 83 23 0 4 -21 58 -46 121 -28 71 -69 150 -107 206 l-62 92 -165 66
c-91 36 -172 67 -180 70 -8 3 -69 -33 -136 -80z"/>
<path fill="#ffffff" stroke="none" d="M1964 1624 c13 -34 6 -61 -20 -73 -34
-15 -54 0 -54 41 0 20 6 31 23 38 33 13 44 12 51 -6z"/>
</g>
</svg>
