<?xml version="1.0" standalone="no"?>
<!DOCTYPE svg PUBLIC "-//W3C//DTD SVG 20010904//EN"
 "http://www.w3.org/TR/2001/REC-SVG-20010904/DTD/svg10.dtd">
<svg version="1.0" xmlns="http://www.w3.org/2000/svg"
 width="37.000000pt" height="57.000000pt" viewBox="0 0 37.000000 57.000000"
 preserveAspectRatio="xMidYMid meet">
<metadata>
Created by potrace 1.14, written by Peter Selinger 2001-2017
</metadata>
<g transform="translate(0.000000,57.000000) scale(0.100000,-0.100000)"
fill="#000000" stroke="none">
<path fill="#000000" stroke="none" d="M232 563 c-32 -6 -44 -45 -36 -113 l6
-57 -45 -7 c-24 -4 -52 -15 -60 -24 -22 -24 -97 -182 -97 -204 0 -11 14 -25
35 -35 32 -15 34 -18 21 -37 -7 -12 -15 -36 -18 -54 l-5 -32 71 0 c39 0 100 8
136 19 59 16 65 20 65 45 -1 20 4 26 21 26 27 0 31 10 39 122 7 92 3 103 -51
134 -16 9 -17 14 -6 35 6 13 22 36 34 51 18 24 20 33 12 65 -8 33 -13 38 -39
38 -20 0 -31 6 -33 18 -3 17 -8 18 -50 10z"/>
</g>
</svg>
