<?xml version="1.0" standalone="no"?>
<!DOCTYPE svg PUBLIC "-//W3C//DTD SVG 20010904//EN"
 "http://www.w3.org/TR/2001/REC-SVG-20010904/DTD/svg10.dtd">
<svg version="1.0" xmlns="http://www.w3.org/2000/svg"
 width="36.000000pt" height="56.000000pt" viewBox="0 0 36.000000 56.000000"
 preserveAspectRatio="xMidYMid meet">
<metadata>
Created by potrace 1.14, written by Peter Selinger 2001-2017
</metadata>
<g transform="translate(0.000000,56.000000) scale(0.100000,-0.100000)"
fill="#000000" stroke="none">
<path fill="#000000" stroke="none" d="M117 496 c-103 -55 -116 -65 -102 -76
29 -24 78 -133 90 -200 8 -49 8 -75 -1 -105 -10 -33 -9 -47 4 -79 l15 -38 106
7 c58 4 109 10 113 14 4 3 9 17 10 30 3 21 -5 26 -66 47 -106 36 -106 36 -85
175 12 76 12 77 54 97 l43 21 -30 82 c-16 46 -30 84 -31 85 -1 2 -55 -26 -120
-60z"/>
</g>
</svg>
