<?xml version="1.0" standalone="no"?>
<!DOCTYPE svg PUBLIC "-//W3C//DTD SVG 20010904//EN"
 "http://www.w3.org/TR/2001/REC-SVG-20010904/DTD/svg10.dtd">
<svg version="1.0" xmlns="http://www.w3.org/2000/svg"
 width="103.000000pt" height="166.000000pt" viewBox="0 0 103.000000 166.000000"
 preserveAspectRatio="xMidYMid meet">
<metadata>
Created by potrace 1.14, written by Peter Selinger 2001-2017
</metadata>
<g transform="translate(0.000000,166.000000) scale(0.100000,-0.100000)"
fill="#000000" stroke="none">
<path fill="#000000" stroke="none" d="M5 1639 c24 -77 31 -86 94 -107 45 -15
86 -41 150 -95 72 -60 98 -75 144 -86 53 -11 57 -15 121 -98 l66 -86 -40 -25
c-38 -22 -41 -27 -35 -55 13 -63 16 -67 45 -67 26 0 28 -3 32 -46 3 -46 3 -46
-109 -175 -141 -161 -140 -158 -94 -384 17 -88 32 -181 31 -207 0 -43 -3 -49
-37 -73 -21 -14 -31 -25 -24 -25 11 0 10 -5 -3 -19 -12 -13 -15 -27 -11 -41 8
-27 22 -23 145 40 l95 49 -3 103 c-2 66 -12 138 -28 200 -13 53 -24 105 -24
115 0 12 23 36 58 61 l57 43 5 -98 5 -98 70 -125 c38 -69 77 -131 87 -138 17
-12 16 -16 -8 -64 -24 -46 -24 -52 -9 -60 15 -9 15 -11 -1 -22 -25 -19 -11
-43 28 -49 23 -3 50 2 87 19 30 13 71 27 91 30 l37 6 -12 52 c-7 28 -32 88
-57 131 -25 44 -64 132 -87 196 l-41 115 51 125 c28 68 64 148 80 178 37 70
37 106 -5 189 -18 37 -40 99 -49 137 -19 84 -64 188 -101 233 -23 26 -35 32
-67 32 -32 0 -48 8 -82 38 -55 50 -144 112 -160 112 -6 0 -29 -5 -50 -11 -28
-8 -42 -19 -54 -45 -19 -39 -22 -40 -125 -15 -67 16 -84 25 -133 70 -34 31
-66 51 -80 51 -13 0 -31 3 -40 7 -14 5 -16 2 -10 -18z"/>
<path fill="#000000" stroke="none" d="M310 10 c0 -5 7 -7 15 -4 8 4 15 8 15
10 0 2 -7 4 -15 4 -8 0 -15 -4 -15 -10z"/>
</g>
</svg>
