<?xml version="1.0" standalone="no"?>
<!DOCTYPE svg PUBLIC "-//W3C//DTD SVG 20010904//EN"
 "http://www.w3.org/TR/2001/REC-SVG-20010904/DTD/svg10.dtd">
<svg version="1.0" xmlns="http://www.w3.org/2000/svg"
 width="216.000000pt" height="366.000000pt" viewBox="0 0 216.000000 366.000000"
 preserveAspectRatio="xMidYMid meet">
<metadata>
Created by potrace 1.14, written by Peter Selinger 2001-2017
</metadata>
<g transform="translate(0.000000,366.000000) scale(0.100000,-0.100000)"
fill="#000000" stroke="none">
<path fill="#000000" stroke="none" d="M481 3631 c-20 -27 -20 -34 -9 -172 11
-141 12 -149 80 -339 86 -239 130 -321 205 -373 43 -31 61 -52 92 -115 25 -50
42 -99 46 -137 7 -51 46 -155 60 -155 30 0 304 -66 316 -76 8 -8 29 -14 46
-14 17 0 36 -7 43 -15 11 -13 -15 -15 -222 -15 -128 0 -270 -5 -314 -10 -129
-16 -321 -32 -429 -35 -94 -2 -108 -6 -225 -53 l-125 -50 -24 -121 c-13 -67
-21 -125 -17 -128 4 -4 23 -6 42 -5 21 2 33 -1 30 -7 -4 -5 41 -11 111 -13
l118 -4 133 79 134 79 88 -6 c49 -4 113 -17 142 -28 29 -11 62 -22 73 -24 11
-2 67 -17 123 -33 l104 -30 101 31 c83 26 110 39 145 72 l42 40 0 -49 c0 -28
3 -144 6 -260 l6 -210 -57 -260 c-31 -143 -70 -314 -86 -380 -32 -130 -195
-632 -212 -653 -8 -10 -29 6 -94 70 -46 45 -83 88 -83 95 0 7 -29 32 -65 56
-48 32 -76 61 -106 108 -23 35 -45 68 -49 72 -11 12 -190 -43 -190 -58 0 -17
-28 -27 -36 -14 -3 6 -20 -13 -37 -43 -25 -42 -33 -70 -39 -138 -4 -47 -14
-119 -21 -160 -11 -65 -11 -80 2 -114 l15 -39 366 6 c201 4 610 10 909 14
l544 6 -6 791 c-4 435 -10 1253 -14 1819 l-6 1027 -818 0 -818 0 -20 -29z"/>
</g>
</svg>
