<?xml version="1.0" standalone="no"?>
<!DOCTYPE svg PUBLIC "-//W3C//DTD SVG 20010904//EN"
 "http://www.w3.org/TR/2001/REC-SVG-20010904/DTD/svg10.dtd">
<svg version="1.0" xmlns="http://www.w3.org/2000/svg"
 width="246.000000pt" height="392.000000pt" viewBox="0 0 246.000000 392.000000"
 preserveAspectRatio="xMidYMid meet">
<metadata>
Created by potrace 1.14, written by Peter Selinger 2001-2017
</metadata>
<g transform="translate(0.000000,392.000000) scale(0.100000,-0.100000)"
fill="#000000" stroke="none">
<path fill="#000000" stroke="none" d="M854 3900 c-3 -8 -26 -70 -50 -136
l-44 -121 79 -309 79 -309 -116 -138 -116 -138 -340 -205 c-188 -113 -329
-202 -314 -198 23 5 28 2 34 -20 11 -45 -2 -74 -36 -78 -22 -2 -27 -6 -21 -17
6 -9 61 -17 197 -27 l189 -13 261 -88 260 -87 51 43 c51 42 51 44 78 154 16
62 30 114 32 116 2 3 37 -28 78 -69 l75 -74 0 -101 c0 -95 -6 -124 -114 -546
-113 -445 -113 -446 -178 -570 l-65 -124 -33 -227 c-19 -125 -36 -232 -39
-236 -3 -5 -95 -59 -204 -121 l-197 -112 41 -50 c23 -27 43 -49 43 -50 1 -1
98 -11 217 -23 l217 -22 7 173 7 173 274 343 273 344 99 229 99 229 47 9 c28
6 50 6 56 0 8 -9 102 -323 281 -943 l94 -324 139 -113 c77 -62 142 -111 146
-109 25 16 11 88 -105 530 l-124 470 -64 555 -65 555 -208 537 -209 537 -112
97 -113 98 0 99 0 99 -102 149 -103 148 -40 1 c-22 1 -106 7 -187 13 -131 11
-148 11 -154 -3z"/>
</g>
</svg>
