<?xml version="1.0" standalone="no"?>
<!DOCTYPE svg PUBLIC "-//W3C//DTD SVG 20010904//EN"
 "http://www.w3.org/TR/2001/REC-SVG-20010904/DTD/svg10.dtd">
<svg version="1.0" xmlns="http://www.w3.org/2000/svg"
 width="40.000000pt" height="71.000000pt" viewBox="0 0 40.000000 71.000000"
 preserveAspectRatio="xMidYMid meet">
<metadata>
Created by potrace 1.14, written by Peter Selinger 2001-2017
</metadata>
<g transform="translate(0.000000,71.000000) scale(0.100000,-0.100000)"
fill="#000000" stroke="none">
<path fill="#000000" stroke="none" d="M250 703 c-30 -12 -33 -43 -13 -115 3
-12 -1 -18 -11 -18 -18 0 -45 -50 -71 -128 -18 -56 -25 -59 -77 -37 -13 5 -21
0 -30 -22 -7 -15 -21 -35 -31 -43 -17 -14 -14 -18 46 -63 59 -43 70 -47 120
-47 66 0 67 -2 67 -110 0 -58 -4 -81 -15 -90 -22 -18 -4 -33 28 -25 20 5 28
15 33 41 3 19 10 37 15 40 5 3 9 36 9 75 0 67 1 69 25 69 24 0 25 2 25 76 0
41 -5 84 -11 95 -6 13 -7 25 -1 32 5 7 14 26 20 42 5 17 13 38 17 47 5 12 -4
24 -35 44 -28 19 -40 34 -39 48 5 75 -20 108 -71 89z"/>
<path fill="#000000" stroke="none" d="M10 273 c0 -10 9 -37 21 -58 11 -22 23
-60 25 -85 3 -31 13 -53 30 -70 25 -25 25 -25 40 -5 10 14 12 33 8 70 -10 72
-35 116 -83 143 -38 22 -41 22 -41 5z"/>
</g>
</svg>
