<?xml version="1.0" standalone="no"?>
<!DOCTYPE svg PUBLIC "-//W3C//DTD SVG 20010904//EN"
 "http://www.w3.org/TR/2001/REC-SVG-20010904/DTD/svg10.dtd">
<svg version="1.0" xmlns="http://www.w3.org/2000/svg"
 width="162.000000pt" height="265.000000pt" viewBox="0 0 162.000000 265.000000"
 preserveAspectRatio="xMidYMid meet">
<metadata>
Created by potrace 1.14, written by Peter Selinger 2001-2017
</metadata>
<g transform="translate(0.000000,265.000000) scale(0.100000,-0.100000)"
fill="#000000" stroke="none">
<path fill="#000000" stroke="none" d="M83 2609 c-46 -24 -83 -47 -83 -50 0
-13 33 -19 45 -9 10 9 12 7 9 -7 -3 -13 22 -38 92 -93 105 -81 112 -88 234
-230 53 -62 87 -94 98 -92 13 3 14 1 5 -9 -10 -9 1 -38 49 -132 49 -95 67
-122 90 -132 23 -9 26 -14 14 -18 -13 -5 -12 -13 9 -59 13 -29 31 -84 41 -121
13 -54 22 -71 43 -82 25 -14 25 -14 4 -15 -25 0 -26 12 8 -160 13 -64 26 -102
42 -119 l22 -24 -22 6 c-21 5 -23 1 -24 -36 0 -23 -4 -84 -7 -136 -6 -79 -4
-98 10 -122 17 -28 17 -28 -5 -20 -21 8 -24 5 -38 -49 l-15 -58 32 21 c25 17
38 40 70 126 l39 106 26 -210 c23 -181 34 -236 82 -395 31 -102 68 -252 82
-335 15 -82 28 -151 29 -153 2 -1 23 1 47 4 l45 6 28 212 c15 116 38 281 52
366 26 168 30 317 14 465 -21 184 -29 157 61 204 64 35 80 48 91 77 8 22 17
33 26 29 7 -3 18 -5 23 -5 6 0 21 -24 34 -52 20 -41 24 -62 19 -95 l-6 -43 62
0 63 0 -5 116 c-5 96 -9 120 -26 143 -20 27 -26 101 -9 117 4 4 7 15 7 25 0
24 -51 40 -92 28 -47 -13 -53 -19 -69 -68 -8 -25 -19 -46 -24 -48 -6 -2 -26
36 -45 84 -47 121 -134 272 -178 310 -20 17 -57 37 -81 44 -24 7 -55 23 -69
36 -24 23 -25 24 -14 92 7 38 9 90 6 115 -6 40 -15 54 -66 101 -65 61 -83 68
-76 30 3 -14 1 -22 -5 -18 -5 3 -7 -6 -3 -23 20 -103 20 -101 -14 -108 -53
-10 -68 -7 -75 14 -3 11 -11 20 -16 20 -6 0 -7 -9 -4 -21 4 -12 1 -27 -8 -37
-8 -9 -35 -55 -60 -102 -43 -82 -77 -114 -77 -72 0 11 -7 25 -15 32 -12 10
-15 10 -15 -4 0 -26 -17 -19 -30 13 -8 21 -9 35 -1 49 8 14 6 39 -4 88 -22
103 -20 124 9 124 30 0 42 16 26 35 -10 12 -6 20 21 42 19 16 49 42 67 58 l33
30 -16 72 c-19 81 -3 73 -180 94 -57 7 -126 22 -160 36 -33 13 -89 27 -125 30
-62 5 -69 3 -147 -38z"/>
<path fill="#ffffff" stroke="none" d="M927 2047 c-6 -15 -15 -27 -19 -27 -12
0 -10 8 8 36 21 31 28 26 11 -9z"/>
<path fill="#ffffff" stroke="none" d="M967 1928 c-2 -13 -4 -5 -4 17 -1 22 1
32 4 23 2 -10 2 -28 0 -40z"/>
<path fill="#ffffff" stroke="none" d="M970 1835 c0 -25 -3 -45 -8 -45 -4 0
-6 20 -4 45 2 25 6 45 8 45 2 0 4 -20 4 -45z"/>
<path fill="#ffffff" stroke="none" d="M933 1783 c-9 -3 -13 -28 -13 -71 -1
-47 -7 -78 -20 -102 -11 -19 -19 -30 -19 -25 0 6 6 21 14 35 8 14 14 53 15 91
0 66 4 80 24 78 6 0 5 -3 -1 -6z"/>
<path fill="#ffffff" stroke="none" d="M867 1513 c-3 -10 -5 -4 -5 12 0 17 2
24 5 18 2 -7 2 -21 0 -30z"/>
<path fill="#ffffff" stroke="none" d="M857 1338 c-2 -18 -4 -6 -4 27 0 33 2
48 4 33 2 -15 2 -42 0 -60z"/>
<path fill="#ffffff" stroke="none" d="M1170 1355 c7 -8 9 -22 6 -31 -5 -14
-16 -16 -63 -10 -31 4 -58 8 -60 9 -1 2 0 13 4 25 4 19 12 22 53 22 30 0 52
-6 60 -15z"/>
<path fill="#ffffff" stroke="none" d="M847 1143 c-2 -16 -4 -5 -4 22 0 28 2
40 4 28 2 -13 2 -35 0 -50z"/>
</g>
</svg>
