<?xml version="1.0" standalone="no"?>
<!DOCTYPE svg PUBLIC "-//W3C//DTD SVG 20010904//EN"
 "http://www.w3.org/TR/2001/REC-SVG-20010904/DTD/svg10.dtd">
<svg version="1.0" xmlns="http://www.w3.org/2000/svg"
 width="48.000000pt" height="82.000000pt" viewBox="0 0 48.000000 82.000000"
 preserveAspectRatio="xMidYMid meet">
<metadata>
Created by potrace 1.14, written by Peter Selinger 2001-2017
</metadata>
<g transform="translate(0.000000,82.000000) scale(0.100000,-0.100000)"
fill="#000000" stroke="none">
<path fill="#000000" stroke="none" d="M280 795 l-105 -21 -38 -58 c-32 -48
-41 -73 -53 -149 -7 -51 -14 -146 -14 -213 0 -114 -2 -127 -36 -218 -20 -54
-34 -99 -32 -100 1 -2 26 -10 54 -18 46 -14 62 -13 177 6 l127 20 0 62 c0 37
15 122 36 210 32 135 84 406 84 445 0 9 -20 23 -47 35 l-48 20 -105 -21z"/>
</g>
</svg>
