<?xml version="1.0" standalone="no"?>
<!DOCTYPE svg PUBLIC "-//W3C//DTD SVG 20010904//EN"
 "http://www.w3.org/TR/2001/REC-SVG-20010904/DTD/svg10.dtd">
<svg version="1.0" xmlns="http://www.w3.org/2000/svg"
 width="215.000000pt" height="345.000000pt" viewBox="0 0 215.000000 345.000000"
 preserveAspectRatio="xMidYMid meet">
<metadata>
Created by potrace 1.14, written by Peter Selinger 2001-2017
</metadata>
<g transform="translate(0.000000,345.000000) scale(0.100000,-0.100000)"
fill="#000000" stroke="none">
<path fill="#000000" stroke="none" d="M836 3432 c-57 -16 -63 -21 -121 -97
-55 -73 -63 -89 -78 -164 -16 -81 -16 -84 4 -112 32 -46 77 -164 81 -214 l3
-46 -120 -53 c-66 -29 -154 -77 -196 -107 l-77 -54 -118 -250 c-85 -177 -133
-266 -166 -306 l-47 -57 19 -69 c44 -160 86 -208 249 -288 l91 -44 -20 -34
c-11 -18 -39 -48 -64 -66 -38 -29 -45 -40 -55 -88 -6 -30 -8 -59 -5 -64 11
-18 49 -8 169 45 l123 55 65 -20 c66 -20 67 -20 142 0 l76 19 141 -50 c126
-45 155 -60 270 -140 105 -73 145 -108 216 -191 48 -56 109 -136 136 -177 35
-53 76 -98 143 -154 l95 -80 -7 -65 c-4 -37 -9 -127 -11 -201 -3 -118 -31
-321 -48 -349 -3 -5 48 5 115 22 120 30 120 30 140 70 27 52 169 490 169 520
0 12 -8 60 -18 107 l-17 85 -173 213 c-96 116 -179 212 -186 212 -7 0 -59 48
-114 107 l-101 107 85 154 85 154 -15 88 c-16 92 -39 170 -99 333 -33 88 -34
97 -18 97 17 0 16 10 -17 143 -19 78 -46 158 -58 178 -22 35 -27 38 -153 69
l-130 32 -15 65 c-8 35 -26 83 -41 105 -33 50 -28 92 22 192 l35 69 -15 58
c-8 32 -40 104 -71 159 l-57 100 -92 -1 c-53 0 -117 -8 -151 -17z"/>
</g>
</svg>
