<?xml version="1.0" standalone="no"?>
<!DOCTYPE svg PUBLIC "-//W3C//DTD SVG 20010904//EN"
 "http://www.w3.org/TR/2001/REC-SVG-20010904/DTD/svg10.dtd">
<svg version="1.0" xmlns="http://www.w3.org/2000/svg"
 width="160.000000pt" height="280.000000pt" viewBox="0 0 160.000000 280.000000"
 preserveAspectRatio="xMidYMid meet">
<metadata>
Created by potrace 1.14, written by Peter Selinger 2001-2017
</metadata>
<g transform="translate(0.000000,280.000000) scale(0.100000,-0.100000)"
fill="#000000" stroke="none">
<path fill="#000000" stroke="none" d="M543 2793 c-20 -3 -42 -15 -56 -33 -17
-20 -39 -31 -80 -40 -32 -6 -57 -14 -57 -18 1 -18 22 -38 52 -48 35 -12 37
-20 23 -90 -4 -18 -2 -57 5 -88 9 -45 17 -59 39 -70 15 -8 40 -33 54 -55 l27
-41 -32 1 c-18 0 -42 4 -53 8 -15 6 -28 -2 -62 -38 -49 -53 -53 -73 -18 -89
23 -11 25 -10 25 12 0 17 7 25 25 28 39 8 39 -7 2 -49 -27 -30 -37 -53 -47
-108 -17 -94 -25 -111 -50 -118 -16 -4 -26 3 -43 29 -12 18 -25 34 -29 34 -4
0 -14 -26 -23 -57 -8 -32 -24 -74 -35 -94 -19 -36 -19 -37 1 -55 12 -11 39
-50 62 -88 l41 -69 30 36 c17 20 51 67 76 106 24 38 47 68 51 65 11 -7 29 -91
29 -137 0 -24 14 -80 30 -125 17 -46 30 -94 30 -107 0 -14 -13 -53 -29 -87
-42 -91 -51 -127 -51 -199 0 -58 -5 -74 -58 -179 l-59 -115 -12 -195 c-9 -130
-10 -228 -4 -293 9 -95 8 -98 -14 -119 -13 -12 -43 -57 -68 -99 -24 -42 -52
-80 -62 -84 -10 -4 -59 -10 -110 -12 l-91 -6 16 -35 17 -35 108 6 c86 5 116 3
145 -9 58 -24 150 -34 157 -16 3 7 5 57 5 110 0 81 8 127 46 282 47 193 49
212 28 367 l-6 42 69 -6 70 -6 13 48 c9 31 30 65 61 99 26 28 49 49 51 46 121
-156 226 -252 313 -285 39 -15 63 -39 158 -154 84 -102 121 -155 146 -213 32
-73 33 -81 26 -156 l-7 -78 59 -13 c32 -8 63 -15 68 -17 6 -2 20 12 33 31 30
48 32 163 2 190 -10 9 -36 67 -56 129 -66 199 -90 246 -153 311 -65 66 -105
137 -116 205 -4 25 -27 94 -51 154 -26 62 -55 160 -70 230 -21 103 -31 130
-66 181 -43 64 -48 92 -30 171 5 24 6 65 1 95 -4 30 -10 134 -13 232 -3 145
-7 182 -20 196 -9 10 -27 44 -40 77 -21 51 -29 61 -63 72 -21 8 -66 25 -100
39 l-62 25 14 37 c7 21 25 61 40 91 31 61 29 89 -11 158 -43 72 -120 100 -241
85z"/>
</g>
</svg>
