<?xml version="1.0" standalone="no"?>
<!DOCTYPE svg PUBLIC "-//W3C//DTD SVG 20010904//EN"
 "http://www.w3.org/TR/2001/REC-SVG-20010904/DTD/svg10.dtd">
<svg version="1.0" xmlns="http://www.w3.org/2000/svg"
 width="36.000000pt" height="60.000000pt" viewBox="0 0 36.000000 60.000000"
 preserveAspectRatio="xMidYMid meet">
<metadata>
Created by potrace 1.14, written by Peter Selinger 2001-2017
</metadata>
<g transform="translate(0.000000,60.000000) scale(0.100000,-0.100000)"
fill="#000000" stroke="none">
<path fill="#000000" stroke="none" d="M0 530 c0 -62 3 -77 22 -97 19 -21 24
-42 34 -171 14 -168 11 -195 -24 -222 l-25 -20 70 0 71 0 6 31 c3 17 6 61 7
98 1 36 4 91 8 121 l6 55 18 -110 c10 -60 22 -125 27 -143 7 -27 5 -34 -13
-44 -21 -11 -21 -11 -2 -19 11 -4 35 -8 53 -8 l32 -1 0 60 c0 33 5 90 10 127
24 149 41 280 43 318 2 22 6 50 11 63 7 21 5 22 -61 22 -37 0 -119 3 -180 7
l-113 6 0 -73z"/>
</g>
</svg>
