<?xml version="1.0" standalone="no"?>
<!DOCTYPE svg PUBLIC "-//W3C//DTD SVG 20010904//EN"
 "http://www.w3.org/TR/2001/REC-SVG-20010904/DTD/svg10.dtd">
<svg version="1.0" xmlns="http://www.w3.org/2000/svg"
 width="14.000000pt" height="25.000000pt" viewBox="0 0 14.000000 25.000000"
 preserveAspectRatio="xMidYMid meet">
<metadata>
Created by potrace 1.14, written by Peter Selinger 2001-2017
</metadata>
<g transform="translate(0.000000,25.000000) scale(0.100000,-0.100000)"
fill="#000000" stroke="none">
<path fill="#000000" stroke="none" d="M10 235 c-10 -12 -10 -18 0 -30 11 -13
11 -26 0 -70 -12 -49 -11 -57 7 -92 17 -32 26 -38 56 -41 29 -3 39 2 53 23 15
24 16 30 1 73 -8 27 -13 60 -10 75 8 41 -20 77 -61 77 -18 0 -39 -7 -46 -15z"/>
</g>
</svg>
