<?xml version="1.0" standalone="no"?>
<!DOCTYPE svg PUBLIC "-//W3C//DTD SVG 20010904//EN"
 "http://www.w3.org/TR/2001/REC-SVG-20010904/DTD/svg10.dtd">
<svg version="1.0" xmlns="http://www.w3.org/2000/svg"
 width="27.000000pt" height="49.000000pt" viewBox="0 0 27.000000 49.000000"
 preserveAspectRatio="xMidYMid meet">
<metadata>
Created by potrace 1.14, written by Peter Selinger 2001-2017
</metadata>
<g transform="translate(0.000000,49.000000) scale(0.100000,-0.100000)"
fill="#000000" stroke="none">
<path fill="#000000" stroke="none" d="M15 480 c-3 -5 1 -20 9 -32 20 -28 20
-38 2 -38 -25 0 -29 -70 -8 -120 11 -25 27 -99 37 -165 9 -66 19 -122 21 -125
13 -12 24 32 24 95 l1 70 18 -50 c42 -115 42 -115 67 -115 13 0 24 1 24 3 0 2
-15 41 -34 88 -23 56 -38 115 -45 178 -7 51 -10 95 -9 96 2 2 30 8 63 14 55
10 85 29 85 54 0 6 -35 8 -90 4 -74 -6 -90 -4 -90 7 0 33 -59 62 -75 36z"/>
</g>
</svg>
