<?xml version="1.0" standalone="no"?>
<!DOCTYPE svg PUBLIC "-//W3C//DTD SVG 20010904//EN"
 "http://www.w3.org/TR/2001/REC-SVG-20010904/DTD/svg10.dtd">
<svg version="1.0" xmlns="http://www.w3.org/2000/svg"
 width="19.000000pt" height="34.000000pt" viewBox="0 0 19.000000 34.000000"
 preserveAspectRatio="xMidYMid meet">
<metadata>
Created by potrace 1.14, written by Peter Selinger 2001-2017
</metadata>
<g transform="translate(0.000000,34.000000) scale(0.100000,-0.100000)"
fill="#000000" stroke="none">
<path fill="#000000" stroke="none" d="M83 328 c-6 -7 -13 -26 -17 -42 -4 -17
-21 -45 -37 -63 -28 -32 -29 -38 -29 -128 0 -91 5 -106 26 -86 5 6 43 13 84
18 l75 8 3 72 c2 57 -1 81 -18 112 -11 22 -20 56 -20 74 0 27 -5 36 -22 41
-32 8 -34 8 -45 -6z"/>
</g>
</svg>
