<?xml version="1.0" standalone="no"?>
<!DOCTYPE svg PUBLIC "-//W3C//DTD SVG 20010904//EN"
 "http://www.w3.org/TR/2001/REC-SVG-20010904/DTD/svg10.dtd">
<svg version="1.0" xmlns="http://www.w3.org/2000/svg"
 width="187.000000pt" height="336.000000pt" viewBox="0 0 187.000000 336.000000"
 preserveAspectRatio="xMidYMid meet">
<metadata>
Created by potrace 1.14, written by Peter Selinger 2001-2017
</metadata>
<g transform="translate(0.000000,336.000000) scale(0.100000,-0.100000)"
fill="#000000" stroke="none">
<path fill="#000000" stroke="none" d="M1026 3349 c-60 -5 -115 -14 -122 -19
-6 -6 -24 -28 -38 -49 l-27 -38 20 -79 c11 -44 23 -103 26 -132 8 -57 21 -77
118 -178 l49 -51 -34 -20 c-18 -11 -153 -82 -299 -157 -199 -102 -303 -148
-415 -186 -82 -28 -153 -57 -159 -64 -5 -7 -23 -16 -40 -20 -16 -4 -47 -25
-67 -47 -53 -55 -51 -90 6 -179 24 -37 48 -70 54 -74 19 -12 33 23 39 103 3
44 8 81 10 81 3 0 97 18 209 41 l205 40 35 -30 c19 -17 44 -31 56 -31 57 0
158 24 205 48 l53 27 29 -30 c16 -17 60 -95 97 -175 l68 -145 8 -155 c11 -219
6 -207 97 -264 l78 -49 7 -81 c13 -167 14 -162 -69 -300 l-76 -125 20 -38 c11
-21 34 -54 50 -73 l29 -34 -33 -51 c-29 -45 -31 -54 -20 -76 10 -21 1 -57 -73
-290 l-85 -265 29 -59 c29 -58 30 -58 115 -92 l85 -34 48 22 c43 19 48 24 43
48 -3 14 -9 65 -12 111 -7 83 -5 91 63 350 95 356 221 810 229 824 4 6 58 78
121 160 l114 148 -83 84 -84 84 -1 118 c0 64 -4 147 -8 183 l-8 66 50 20 c28
12 55 30 61 41 10 18 7 19 -44 20 -104 1 -166 64 -275 281 -25 50 -30 71 -25
97 3 19 7 34 8 34 1 0 38 -11 82 -25 93 -29 88 -28 80 -16 -3 5 8 19 24 30 32
23 95 28 107 9 11 -17 -27 -40 -56 -34 -14 2 -32 1 -40 -4 -10 -6 -7 -10 15
-16 34 -8 103 26 95 48 -2 7 -4 28 -4 46 l1 32 -22 -20 c-12 -11 -24 -20 -26
-20 -3 0 -25 27 -49 60 -24 33 -45 60 -47 60 -7 0 -270 41 -290 46 -27 5 -29
23 -12 135 12 74 11 77 -15 121 -15 25 -39 83 -55 129 l-28 84 -44 1 c-24 1
-93 -2 -153 -7z"/>
<path fill="#000000" stroke="none" d="M1815 2819 c-9 -13 -6 -16 29 -25 21
-5 27 -4 22 4 -12 20 -44 33 -51 21z"/>
</g>
</svg>
