<?xml version="1.0" standalone="no"?>
<!DOCTYPE svg PUBLIC "-//W3C//DTD SVG 20010904//EN"
 "http://www.w3.org/TR/2001/REC-SVG-20010904/DTD/svg10.dtd">
<svg version="1.0" xmlns="http://www.w3.org/2000/svg"
 width="26.000000pt" height="43.000000pt" viewBox="0 0 26.000000 43.000000"
 preserveAspectRatio="xMidYMid meet">
<metadata>
Created by potrace 1.14, written by Peter Selinger 2001-2017
</metadata>
<g transform="translate(0.000000,43.000000) scale(0.100000,-0.100000)"
fill="#000000" stroke="none">
<path fill="#000000" stroke="none" d="M85 417 c-27 -5 -53 -14 -56 -19 -14
-22 -29 -331 -16 -344 3 -3 43 5 89 19 l83 24 9 -48 c5 -27 12 -49 16 -49 3 0
17 11 30 25 22 23 23 29 12 58 -7 19 -12 41 -12 50 0 9 -10 35 -21 57 -18 33
-21 52 -16 97 3 33 1 65 -5 77 -13 25 -49 66 -57 65 -3 -1 -28 -6 -56 -12z"/>
</g>
</svg>
