<?xml version="1.0" standalone="no"?>
<!DOCTYPE svg PUBLIC "-//W3C//DTD SVG 20010904//EN"
 "http://www.w3.org/TR/2001/REC-SVG-20010904/DTD/svg10.dtd">
<svg version="1.0" xmlns="http://www.w3.org/2000/svg"
 width="207.000000pt" height="373.000000pt" viewBox="0 0 207.000000 373.000000"
 preserveAspectRatio="xMidYMid meet">
<metadata>
Created by potrace 1.14, written by Peter Selinger 2001-2017
</metadata>
<g transform="translate(0.000000,373.000000) scale(0.100000,-0.100000)"
fill="#000000" stroke="none">
<path fill="#000000" stroke="none" d="M975 3706 c-55 -33 -162 -158 -176
-205 -17 -57 1 -145 44 -212 32 -51 34 -61 40 -166 l7 -113 -138 0 c-127 -1
-142 -3 -206 -29 -65 -26 -72 -32 -108 -91 -21 -35 -53 -100 -70 -144 -18 -45
-57 -126 -86 -181 -153 -292 -271 -539 -277 -584 -9 -63 11 -166 41 -212 12
-20 49 -61 81 -90 92 -85 136 -131 167 -177 l29 -43 -42 -157 c-42 -153 -43
-162 -48 -347 -4 -160 -1 -229 21 -438 26 -240 26 -251 11 -371 -8 -68 -15
-130 -15 -137 0 -9 143 -11 687 -5 378 4 689 9 692 11 2 2 18 130 35 285 l32
281 -16 128 c-12 97 -14 155 -7 246 6 85 5 135 -4 171 -6 30 -9 71 -5 97 7 43
6 46 -21 55 l-28 10 26 1 c15 1 78 10 142 21 63 11 126 19 140 18 17 -2 39 10
69 37 44 40 44 40 61 150 24 151 23 169 -5 162 -13 -3 -76 -14 -140 -23 l-117
-17 -43 28 c-24 15 -77 57 -119 91 -72 60 -77 67 -83 112 -5 43 -14 55 -80
121 -55 54 -72 78 -68 93 4 18 -16 98 -25 98 -2 0 -22 -9 -44 -21 -39 -19 -42
-19 -97 -4 -34 10 -72 31 -99 55 -24 21 -58 41 -77 44 -27 5 -40 17 -70 66
-25 40 -50 67 -75 79 -35 18 -61 55 -61 87 0 8 -11 19 -25 26 -36 16 -40 56
-13 112 26 54 24 54 147 5 41 -16 77 -26 80 -21 27 41 55 61 106 80 58 22 63
22 125 8 59 -14 70 -21 144 -94 45 -44 110 -99 145 -123 61 -42 68 -44 135
-44 39 0 88 -4 109 -9 l39 -9 -21 41 c-15 29 -29 42 -51 47 -16 4 -28 11 -27
17 1 6 -75 65 -169 132 -143 101 -175 128 -193 164 -21 43 -27 102 -15 161 5
26 11 31 34 31 24 0 33 10 71 80 55 100 95 170 111 192 10 14 9 38 -5 118 -15
92 -22 108 -64 170 -47 68 -49 69 -133 98 -51 18 -125 35 -185 41 -55 6 -118
13 -140 16 -31 4 -49 -1 -80 -19z"/>
<path fill="#ffffff" stroke="none" d="M890 1652 c0 -13 -82 -62 -116 -68 -36
-7 -52 -38 -27 -53 14 -7 13 -11 -8 -24 -29 -18 -134 -41 -149 -32 -5 3 -10
16 -10 29 0 12 -11 37 -25 56 -30 41 -31 56 -4 71 36 19 339 38 339 21z"/>
</g>
</svg>
