<?xml version="1.0" standalone="no"?>
<!DOCTYPE svg PUBLIC "-//W3C//DTD SVG 20010904//EN"
 "http://www.w3.org/TR/2001/REC-SVG-20010904/DTD/svg10.dtd">
<svg version="1.0" xmlns="http://www.w3.org/2000/svg"
 width="67.000000pt" height="120.000000pt" viewBox="0 0 67.000000 120.000000"
 preserveAspectRatio="xMidYMid meet">
<metadata>
Created by potrace 1.14, written by Peter Selinger 2001-2017
</metadata>
<g transform="translate(0.000000,120.000000) scale(0.100000,-0.100000)"
fill="#000000" stroke="none">
<path fill="#000000" stroke="none" d="M373 1189 c-30 -9 -33 -13 -33 -47 0
-20 4 -52 9 -70 9 -32 9 -32 -60 -77 -67 -43 -69 -46 -70 -87 -2 -70 -11 -90
-49 -103 -27 -9 -48 -9 -95 1 -33 7 -63 13 -68 14 -4 0 11 -23 34 -52 39 -49
43 -52 82 -49 26 2 51 11 64 24 13 11 25 18 28 16 2 -3 8 -30 12 -60 l8 -54
43 -3 c34 -3 56 4 99 28 61 34 82 33 38 -2 -50 -41 -89 -58 -133 -58 -42 0
-43 -1 -38 -28 3 -15 8 -48 12 -74 3 -27 14 -54 25 -64 17 -16 19 -33 19 -214
l0 -196 35 -17 36 -17 16 37 c20 50 20 50 47 24 l23 -22 11 103 c7 57 14 135
17 173 4 39 13 114 22 168 l17 99 32 -5 c42 -7 54 7 54 65 0 34 9 67 31 110
l31 60 -26 60 c-36 83 -79 143 -131 181 -31 23 -51 49 -69 90 -14 31 -29 57
-33 56 -4 0 -23 -5 -40 -10z"/>
</g>
</svg>
