<?xml version="1.0" standalone="no"?>
<!DOCTYPE svg PUBLIC "-//W3C//DTD SVG 20010904//EN"
 "http://www.w3.org/TR/2001/REC-SVG-20010904/DTD/svg10.dtd">
<svg version="1.0" xmlns="http://www.w3.org/2000/svg"
 width="67.000000pt" height="106.000000pt" viewBox="0 0 67.000000 106.000000"
 preserveAspectRatio="xMidYMid meet">
<metadata>
Created by potrace 1.14, written by Peter Selinger 2001-2017
</metadata>
<g transform="translate(0.000000,106.000000) scale(0.100000,-0.100000)"
fill="#000000" stroke="none">
<path fill="#000000" stroke="none" d="M400 1051 c-30 -4 -76 -16 -102 -28
-43 -20 -47 -24 -53 -68 -11 -70 -2 -122 37 -210 l35 -80 -76 -147 c-61 -119
-80 -148 -97 -148 -12 0 -27 7 -34 15 -21 25 -75 19 -94 -10 -18 -27 -16 -36
17 -72 16 -18 31 -23 70 -23 32 0 57 -6 68 -16 16 -15 16 -19 -2 -85 -10 -38
-28 -92 -38 -120 -22 -57 -18 -63 40 -57 33 3 34 4 85 137 46 120 74 164 92
147 3 -4 7 -34 9 -69 7 -108 3 -104 118 -158 57 -27 107 -49 110 -49 3 0 5 46
5 103 1 56 5 121 9 144 7 36 5 48 -14 74 -19 28 -20 39 -13 86 5 29 28 107 52
173 l43 119 -53 45 c-50 43 -53 49 -58 103 -8 75 -24 184 -28 188 -9 8 -80 11
-128 6z"/>
</g>
</svg>
