<?xml version="1.0" standalone="no"?>
<!DOCTYPE svg PUBLIC "-//W3C//DTD SVG 20010904//EN"
 "http://www.w3.org/TR/2001/REC-SVG-20010904/DTD/svg10.dtd">
<svg version="1.0" xmlns="http://www.w3.org/2000/svg"
 width="62.000000pt" height="106.000000pt" viewBox="0 0 62.000000 106.000000"
 preserveAspectRatio="xMidYMid meet">
<metadata>
Created by potrace 1.14, written by Peter Selinger 2001-2017
</metadata>
<g transform="translate(0.000000,106.000000) scale(0.100000,-0.100000)"
fill="#000000" stroke="none">
<path fill="#000000" stroke="none" d="M317 1040 c-28 -22 -41 -83 -23 -114 9
-14 7 -20 -8 -30 -45 -27 -77 -61 -106 -110 -16 -30 -37 -60 -46 -67 -27 -22
-56 -98 -70 -184 -21 -122 -19 -135 17 -148 29 -11 31 -15 26 -50 -3 -21 -12
-46 -20 -55 -9 -9 -19 -34 -22 -55 -4 -21 -13 -41 -21 -44 -7 -2 -20 -16 -29
-29 -15 -24 -15 -27 20 -74 31 -43 42 -50 70 -50 43 0 51 22 20 59 -14 16 -25
35 -25 42 0 8 22 52 50 99 36 61 50 96 50 122 0 38 13 57 26 37 4 -7 10 -96
13 -198 l6 -186 43 -3 c48 -4 54 9 21 44 -20 21 -20 26 -9 160 6 77 14 202 17
278 l6 140 24 -47 c20 -40 28 -47 53 -47 17 0 30 2 30 5 0 3 -11 28 -25 55
-14 27 -25 59 -25 70 0 18 9 14 68 -32 37 -29 77 -66 88 -83 19 -30 59 -44 75
-28 15 15 -57 101 -104 124 -23 12 -54 32 -69 46 -26 25 -27 26 -27 173 0 81
-3 154 -6 162 -5 12 -45 38 -59 38 -2 0 -15 -9 -29 -20z"/>
</g>
</svg>
