<?xml version="1.0" standalone="no"?>
<!DOCTYPE svg PUBLIC "-//W3C//DTD SVG 20010904//EN"
 "http://www.w3.org/TR/2001/REC-SVG-20010904/DTD/svg10.dtd">
<svg version="1.0" xmlns="http://www.w3.org/2000/svg"
 width="54.000000pt" height="93.000000pt" viewBox="0 0 54.000000 93.000000"
 preserveAspectRatio="xMidYMid meet">
<metadata>
Created by potrace 1.14, written by Peter Selinger 2001-2017
</metadata>
<g transform="translate(0.000000,93.000000) scale(0.100000,-0.100000)"
fill="#000000" stroke="none">
<path fill="#000000" stroke="none" d="M222 894 c-23 -20 -62 -62 -87 -94 -41
-53 -45 -64 -45 -113 0 -30 -7 -71 -15 -90 -8 -20 -15 -61 -15 -91 0 -40 -4
-55 -16 -60 -23 -9 -24 -8 -17 10 4 12 2 15 -8 12 -16 -5 -16 -5 -6 -79 11
-80 23 -88 153 -99 156 -13 166 -17 182 -71 8 -26 11 -69 9 -104 -6 -72 -3
-82 31 -99 41 -21 69 -6 74 41 3 21 1 39 -3 41 -4 2 3 31 16 65 13 35 33 114
44 177 l21 115 -50 45 -50 45 0 91 c0 50 -7 124 -16 164 l-17 72 -63 29 c-35
16 -67 29 -71 29 -5 0 -27 -16 -51 -36z"/>
</g>
</svg>
