<?xml version="1.0" standalone="no"?>
<!DOCTYPE svg PUBLIC "-//W3C//DTD SVG 20010904//EN"
 "http://www.w3.org/TR/2001/REC-SVG-20010904/DTD/svg10.dtd">
<svg version="1.0" xmlns="http://www.w3.org/2000/svg"
 width="45.000000pt" height="71.000000pt" viewBox="0 0 45.000000 71.000000"
 preserveAspectRatio="xMidYMid meet">
<metadata>
Created by potrace 1.14, written by Peter Selinger 2001-2017
</metadata>
<g transform="translate(0.000000,71.000000) scale(0.100000,-0.100000)"
fill="#000000" stroke="none">
<path fill="#000000" stroke="none" d="M151 683 c0 -16 6 -59 13 -98 11 -64
10 -80 -11 -178 -22 -103 -25 -111 -88 -194 -38 -50 -63 -93 -61 -102 3 -9 10
-38 17 -64 l12 -49 156 7 c86 4 161 12 168 17 6 5 30 33 53 63 l41 54 -26 98
c-26 95 -27 101 -15 212 6 63 9 144 5 181 l-7 67 -81 7 c-45 3 -103 6 -129 6
-46 0 -48 -1 -47 -27z"/>
</g>
</svg>
