<?xml version="1.0" standalone="no"?>
<!DOCTYPE svg PUBLIC "-//W3C//DTD SVG 20010904//EN"
 "http://www.w3.org/TR/2001/REC-SVG-20010904/DTD/svg10.dtd">
<svg version="1.0" xmlns="http://www.w3.org/2000/svg"
 width="30.000000pt" height="52.000000pt" viewBox="0 0 30.000000 52.000000"
 preserveAspectRatio="xMidYMid meet">
<metadata>
Created by potrace 1.14, written by Peter Selinger 2001-2017
</metadata>
<g transform="translate(0.000000,52.000000) scale(0.100000,-0.100000)"
fill="#000000" stroke="none">
<path fill="#000000" stroke="none" d="M110 455 c-17 -51 -20 -72 -12 -94 9
-25 7 -32 -14 -52 -26 -25 -85 -125 -83 -143 0 -6 38 -44 84 -84 74 -65 89
-73 134 -79 l51 -6 0 79 c0 74 -2 80 -31 110 -30 31 -30 32 -15 63 9 17 27 38
40 46 31 21 42 92 26 169 l-11 56 -74 0 -73 0 -22 -65z"/>
</g>
</svg>
