<?xml version="1.0" standalone="no"?>
<!DOCTYPE svg PUBLIC "-//W3C//DTD SVG 20010904//EN"
 "http://www.w3.org/TR/2001/REC-SVG-20010904/DTD/svg10.dtd">
<svg version="1.0" xmlns="http://www.w3.org/2000/svg"
 width="61.000000pt" height="106.000000pt" viewBox="0 0 61.000000 106.000000"
 preserveAspectRatio="xMidYMid meet">
<metadata>
Created by potrace 1.14, written by Peter Selinger 2001-2017
</metadata>
<g transform="translate(0.000000,106.000000) scale(0.100000,-0.100000)"
fill="#000000" stroke="none">
<path fill="#000000" stroke="none" d="M264 978 c-32 -46 -68 -108 -80 -138
-18 -44 -30 -59 -61 -74 -21 -10 -58 -34 -81 -54 l-44 -35 7 -91 7 -91 41 -35
c23 -19 74 -64 112 -101 39 -36 90 -77 114 -90 30 -17 50 -38 67 -71 21 -41
28 -47 65 -53 51 -9 81 -37 78 -73 -5 -69 -4 -71 49 -55 26 8 52 17 59 18 16
5 -50 123 -149 271 l-75 112 -6 133 c-4 74 -10 218 -13 322 -5 143 -10 187
-20 187 -7 0 -39 -37 -70 -82z"/>
</g>
</svg>
