<?xml version="1.0" standalone="no"?>
<!DOCTYPE svg PUBLIC "-//W3C//DTD SVG 20010904//EN"
 "http://www.w3.org/TR/2001/REC-SVG-20010904/DTD/svg10.dtd">
<svg version="1.0" xmlns="http://www.w3.org/2000/svg"
 width="86.000000pt" height="156.000000pt" viewBox="0 0 86.000000 156.000000"
 preserveAspectRatio="xMidYMid meet">
<metadata>
Created by potrace 1.14, written by Peter Selinger 2001-2017
</metadata>
<g transform="translate(0.000000,156.000000) scale(0.100000,-0.100000)"
fill="#000000" stroke="none">
<path fill="#000000" stroke="none" d="M396 1506 c-27 -40 -38 -71 -51 -146
-19 -111 -37 -169 -69 -225 -13 -22 -21 -46 -19 -53 3 -7 -1 -10 -10 -6 -11 4
-21 -5 -31 -25 -20 -39 -20 -61 0 -61 17 0 17 -13 -2 -148 -5 -32 0 -57 17
-98 21 -52 21 -59 7 -88 -8 -17 -29 -89 -46 -161 -22 -90 -38 -134 -51 -145
-25 -19 -145 -247 -134 -253 4 -3 53 -25 109 -50 l101 -45 32 107 c30 100 31
108 18 146 -13 35 -13 45 -1 67 8 15 30 70 49 124 40 110 75 176 114 216 15
14 37 49 51 77 l23 51 134 0 c73 0 133 3 133 6 0 4 -20 40 -45 81 l-46 75 17
44 17 44 67 0 c74 0 80 5 80 76 0 28 -12 41 -105 115 -89 71 -106 90 -115 124
-9 34 -49 144 -55 153 -2 1 -37 13 -78 26 l-76 24 -35 -52z"/>
</g>
</svg>
