<?xml version="1.0" standalone="no"?>
<!DOCTYPE svg PUBLIC "-//W3C//DTD SVG 20010904//EN"
 "http://www.w3.org/TR/2001/REC-SVG-20010904/DTD/svg10.dtd">
<svg version="1.0" xmlns="http://www.w3.org/2000/svg"
 width="272.000000pt" height="430.000000pt" viewBox="0 0 272.000000 430.000000"
 preserveAspectRatio="xMidYMid meet">
<metadata>
Created by potrace 1.14, written by Peter Selinger 2001-2017
</metadata>
<g transform="translate(0.000000,430.000000) scale(0.100000,-0.100000)"
fill="#000000" stroke="none">
<path fill="#000000" stroke="none" d="M483 4248 c-34 -29 -84 -83 -112 -119
l-49 -66 26 -16 c15 -9 40 -27 56 -40 l28 -23 -86 -55 c-84 -52 -87 -56 -103
-109 -15 -51 -15 -66 1 -200 14 -116 22 -154 43 -190 14 -25 96 -114 182 -198
l156 -153 210 -109 c116 -60 223 -114 239 -120 33 -12 35 -16 -36 71 -41 49
-53 105 -20 95 9 -3 57 -6 105 -8 l89 -2 43 69 c24 39 55 81 69 95 23 23 25
29 15 63 -11 41 -5 59 35 96 32 30 32 32 1 81 l-25 39 33 163 c32 162 33 163
17 244 -19 100 -70 183 -174 282 -70 66 -75 69 -182 100 -187 54 -232 62 -369
62 l-131 0 -61 -52z"/>
<path fill="#000000" stroke="none" d="M246 2668 c-13 -20 -11 -62 14 -363 16
-187 34 -383 40 -435 l11 -95 -96 -325 -96 -325 6 -167 c6 -162 5 -172 -34
-390 -64 -366 -94 -558 -88 -564 10 -11 1697 8 1697 19 0 6 -20 44 -43 86 -49
84 -72 176 -65 245 l5 45 -52 16 c-29 8 -58 15 -64 15 -16 0 -14 18 9 86 17
46 29 65 60 86 l40 28 0 93 c0 57 -6 114 -16 148 -9 30 -20 81 -24 114 -6 54
-5 63 16 90 23 29 23 30 4 60 -23 38 -42 167 -26 177 6 4 52 21 101 38 110 37
110 37 118 78 5 25 0 51 -22 100 -27 65 -28 70 -21 187 6 97 13 133 34 185 20
48 26 78 24 116 -2 35 3 61 16 86 21 38 46 48 133 48 23 0 58 7 77 17 37 17
40 24 51 118 6 47 4 52 -27 81 -31 30 -38 32 -138 37 l-105 6 -95 -53 c-72
-40 -96 -50 -98 -39 -2 9 -11 13 -22 10 -14 -3 -27 7 -47 36 -15 22 -77 82
-138 133 -60 50 -132 115 -160 143 l-50 51 -12 -32 c-6 -18 -12 -43 -12 -56
-1 -24 57 -132 115 -214 18 -26 51 -82 73 -125 22 -43 52 -98 67 -121 l26 -44
-28 19 c-16 10 -25 13 -21 7 4 -7 -1 -21 -11 -33 -15 -19 -21 -20 -54 -11 -20
6 -39 18 -43 28 -6 16 -7 16 -16 1 -6 -11 -3 -35 10 -71 l19 -54 -31 -51 -30
-50 -95 121 c-52 66 -99 126 -104 131 -15 16 19 -63 58 -133 33 -58 35 -66 24
-93 -17 -39 -25 -43 -54 -24 -15 10 -33 14 -49 10 -23 -6 -29 0 -61 58 -24 42
-60 86 -101 122 -73 64 -74 63 -55 -51 6 -32 12 -70 14 -84 4 -23 1 -22 -41
17 -25 24 -49 43 -53 43 -4 0 -22 35 -40 78 -21 51 -94 166 -217 345 -101 147
-186 267 -189 267 -2 0 -10 -10 -18 -22z"/>
<path fill="#000000" stroke="none" d="M2250 833 c0 -59 17 -99 53 -126 23
-17 6 -79 -28 -101 -18 -12 -25 -26 -25 -47 0 -35 36 -89 60 -89 44 0 100 -85
100 -152 l0 -30 -55 4 c-53 3 -54 3 -48 -22 4 -14 19 -52 35 -85 15 -33 28
-66 28 -73 0 -7 9 -30 20 -52 19 -37 19 -40 2 -49 -12 -7 34 -10 156 -11 l173
0 -12 23 c-7 12 -45 84 -86 159 -40 76 -110 224 -154 330 -102 244 -142 321
-185 353 l-34 26 0 -58z"/>
</g>
</svg>
