<?xml version="1.0" standalone="no"?>
<!DOCTYPE svg PUBLIC "-//W3C//DTD SVG 20010904//EN"
 "http://www.w3.org/TR/2001/REC-SVG-20010904/DTD/svg10.dtd">
<svg version="1.0" xmlns="http://www.w3.org/2000/svg"
 width="19.000000pt" height="32.000000pt" viewBox="0 0 19.000000 32.000000"
 preserveAspectRatio="xMidYMid meet">
<metadata>
Created by potrace 1.14, written by Peter Selinger 2001-2017
</metadata>
<g transform="translate(0.000000,32.000000) scale(0.100000,-0.100000)"
fill="#000000" stroke="none">
<path fill="#000000" stroke="none" d="M49 288 c-19 -32 -20 -53 -5 -89 5 -13
0 -20 -21 -27 l-28 -10 33 -12 c40 -15 55 -40 43 -73 -11 -29 -4 -42 15 -26 9
7 14 2 19 -21 9 -40 29 -38 60 7 31 46 32 72 3 109 -19 23 -22 38 -20 87 4 67
-8 87 -49 87 -22 0 -34 -8 -50 -32z"/>
</g>
</svg>
