<?xml version="1.0" standalone="no"?>
<!DOCTYPE svg PUBLIC "-//W3C//DTD SVG 20010904//EN"
 "http://www.w3.org/TR/2001/REC-SVG-20010904/DTD/svg10.dtd">
<svg version="1.0" xmlns="http://www.w3.org/2000/svg"
 width="70.000000pt" height="116.000000pt" viewBox="0 0 70.000000 116.000000"
 preserveAspectRatio="xMidYMid meet">
<metadata>
Created by potrace 1.14, written by Peter Selinger 2001-2017
</metadata>
<g transform="translate(0.000000,116.000000) scale(0.100000,-0.100000)"
fill="#000000" stroke="none">
<path fill="#000000" stroke="none" d="M208 1143 c-25 -29 -38 -82 -38 -154 0
-86 -41 -298 -79 -412 -30 -88 -51 -187 -76 -350 l-14 -88 35 -60 c26 -43 40
-59 52 -55 9 2 34 7 55 11 45 7 38 -9 111 245 55 193 106 343 144 430 28 62
27 40 -4 -55 -42 -133 -64 -393 -48 -554 6 -53 11 -65 35 -82 26 -18 34 -19
87 -9 33 7 65 15 71 19 7 5 17 41 22 82 6 41 19 110 29 154 10 44 26 161 35
260 26 294 54 518 65 529 7 7 0 20 -22 43 -30 31 -36 33 -99 33 -37 0 -103 7
-146 15 -109 21 -196 20 -215 -2z"/>
</g>
</svg>
