<?xml version="1.0" standalone="no"?>
<!DOCTYPE svg PUBLIC "-//W3C//DTD SVG 20010904//EN"
 "http://www.w3.org/TR/2001/REC-SVG-20010904/DTD/svg10.dtd">
<svg version="1.0" xmlns="http://www.w3.org/2000/svg"
 width="64.000000pt" height="99.000000pt" viewBox="0 0 64.000000 99.000000"
 preserveAspectRatio="xMidYMid meet">
<metadata>
Created by potrace 1.14, written by Peter Selinger 2001-2017
</metadata>
<g transform="translate(0.000000,99.000000) scale(0.100000,-0.100000)"
fill="#000000" stroke="none">
<path fill="#000000" stroke="none" d="M162 965 c-21 -18 -32 -36 -32 -53 -1
-21 -13 -36 -60 -70 -34 -25 -60 -51 -60 -61 0 -10 -3 -45 -6 -78 l-7 -60 58
-8 c81 -10 87 -13 74 -37 -8 -15 -8 -27 0 -45 6 -13 11 -56 11 -96 0 -59 5
-81 28 -122 25 -45 31 -51 74 -58 39 -7 53 -17 87 -57 34 -41 41 -56 41 -92 0
-46 19 -73 82 -113 26 -16 31 -16 97 4 74 22 76 25 86 95 7 45 6 49 -66 159
-40 62 -100 141 -134 177 -78 83 -91 111 -69 150 13 20 32 32 75 45 33 10 59
22 59 28 0 25 -40 71 -82 94 -47 25 -48 27 -48 73 0 50 -15 108 -34 126 -6 7
-41 15 -77 19 -62 6 -68 5 -97 -20z"/>
</g>
</svg>
