<?xml version="1.0" standalone="no"?>
<!DOCTYPE svg PUBLIC "-//W3C//DTD SVG 20010904//EN"
 "http://www.w3.org/TR/2001/REC-SVG-20010904/DTD/svg10.dtd">
<svg version="1.0" xmlns="http://www.w3.org/2000/svg"
 width="21.000000pt" height="34.000000pt" viewBox="0 0 21.000000 34.000000"
 preserveAspectRatio="xMidYMid meet">
<metadata>
Created by potrace 1.14, written by Peter Selinger 2001-2017
</metadata>
<g transform="translate(0.000000,34.000000) scale(0.100000,-0.100000)"
fill="#000000" stroke="none">
<path fill="#000000" stroke="none" d="M112 330 c-12 -5 -28 -22 -35 -37 -6
-15 -28 -42 -47 -59 l-35 -33 39 -33 39 -34 -11 -59 c-5 -33 -9 -61 -8 -61 0
-1 20 -4 44 -7 l42 -5 0 42 c0 38 3 44 34 59 33 15 34 18 29 59 -3 24 -11 56
-19 71 -7 16 -11 41 -7 59 8 43 -16 57 -65 38z"/>
</g>
</svg>
