<?xml version="1.0" standalone="no"?>
<!DOCTYPE svg PUBLIC "-//W3C//DTD SVG 20010904//EN"
 "http://www.w3.org/TR/2001/REC-SVG-20010904/DTD/svg10.dtd">
<svg version="1.0" xmlns="http://www.w3.org/2000/svg"
 width="37.000000pt" height="65.000000pt" viewBox="0 0 37.000000 65.000000"
 preserveAspectRatio="xMidYMid meet">
<metadata>
Created by potrace 1.14, written by Peter Selinger 2001-2017
</metadata>
<g transform="translate(0.000000,65.000000) scale(0.100000,-0.100000)"
fill="#000000" stroke="none">
<path fill="#000000" stroke="none" d="M233 638 c-22 -11 -32 -35 -33 -78 0
-14 -6 -32 -13 -41 -15 -19 -95 -56 -142 -65 -18 -3 -36 -12 -39 -20 -7 -19
-1 -20 117 -6 51 7 67 6 67 -4 0 -20 -20 -28 -79 -34 -89 -8 -75 -28 19 -28
44 0 83 -2 86 -5 13 -13 -18 -47 -43 -47 -19 0 -100 -40 -130 -64 -1 -1 4 -37
11 -81 l12 -80 -35 -32 c-20 -17 -34 -33 -31 -36 3 -2 31 -7 63 -10 52 -5 58
-4 51 11 -12 27 -17 90 -10 127 7 33 9 35 46 35 34 0 41 -4 46 -25 5 -21 12
-25 44 -25 32 0 44 7 82 48 l44 47 -11 105 c-8 85 -16 115 -38 153 -24 40 -26
48 -12 53 11 5 13 10 5 19 -6 7 -8 25 -4 39 11 47 -24 68 -73 44z"/>
</g>
</svg>
