<?xml version="1.0" standalone="no"?>
<!DOCTYPE svg PUBLIC "-//W3C//DTD SVG 20010904//EN"
 "http://www.w3.org/TR/2001/REC-SVG-20010904/DTD/svg10.dtd">
<svg version="1.0" xmlns="http://www.w3.org/2000/svg"
 width="30.000000pt" height="49.000000pt" viewBox="0 0 30.000000 49.000000"
 preserveAspectRatio="xMidYMid meet">
<metadata>
Created by potrace 1.14, written by Peter Selinger 2001-2017
</metadata>
<g transform="translate(0.000000,49.000000) scale(0.100000,-0.100000)"
fill="#000000" stroke="none">
<path fill="#000000" stroke="none" d="M139 483 c-8 -2 -21 -18 -27 -36 -8
-23 -22 -37 -46 -45 -42 -16 -61 -56 -61 -136 0 -51 3 -61 25 -75 53 -34 62
-50 54 -89 -18 -86 0 -135 21 -57 5 22 16 50 23 63 10 18 11 30 2 58 -7 19 -9
50 -6 69 7 33 21 45 57 45 10 0 19 5 19 11 0 8 17 10 50 7 54 -5 57 -3 36 27
-7 11 -26 49 -42 85 -15 36 -33 68 -39 72 -11 8 -39 9 -66 1z"/>
</g>
</svg>
