<?xml version="1.0" standalone="no"?>
<!DOCTYPE svg PUBLIC "-//W3C//DTD SVG 20010904//EN"
 "http://www.w3.org/TR/2001/REC-SVG-20010904/DTD/svg10.dtd">
<svg version="1.0" xmlns="http://www.w3.org/2000/svg"
 width="118.000000pt" height="211.000000pt" viewBox="0 0 118.000000 211.000000"
 preserveAspectRatio="xMidYMid meet">
<metadata>
Created by potrace 1.14, written by Peter Selinger 2001-2017
</metadata>
<g transform="translate(0.000000,211.000000) scale(0.100000,-0.100000)"
fill="#000000" stroke="none">
<path fill="#000000" stroke="none" d="M129 2085 c-35 -18 -50 -34 -68 -72
l-23 -50 53 -121 52 -121 -42 -55 -42 -54 26 -85 27 -85 -53 -163 c-49 -153
-60 -222 -40 -242 4 -4 27 -5 50 -1 39 6 44 11 80 76 l38 69 11 -41 c10 -41 9
-45 -38 -118 -41 -65 -46 -77 -34 -89 22 -22 18 -35 -44 -161 -58 -116 -59
-117 -46 -160 7 -23 58 -130 114 -237 l101 -194 -73 -51 c-40 -28 -79 -55 -86
-59 -10 -5 -10 -14 -1 -39 6 -18 14 -32 17 -32 21 0 245 40 249 44 3 3 -17
144 -44 313 l-51 308 46 73 c55 90 67 102 98 102 14 0 38 7 53 15 27 13 30 13
56 -15 15 -15 24 -33 21 -39 -4 -5 7 -25 24 -44 33 -38 31 -47 -12 -47 -21 0
-28 -4 -26 -15 2 -7 84 -99 183 -202 118 -122 198 -215 230 -266 34 -54 61
-84 89 -101 23 -12 68 -38 100 -56 l60 -34 -27 35 c-31 41 -267 523 -291 595
-10 32 -24 53 -39 59 -17 8 -27 29 -45 95 -12 47 -20 96 -17 110 6 26 -52 209
-99 315 -25 56 -26 63 -16 128 10 64 9 72 -12 105 -56 94 -122 183 -182 248
-57 63 -70 84 -106 180 -33 88 -48 116 -81 146 -59 54 -85 60 -140 33z"/>
</g>
</svg>
