<?xml version="1.0" standalone="no"?>
<!DOCTYPE svg PUBLIC "-//W3C//DTD SVG 20010904//EN"
 "http://www.w3.org/TR/2001/REC-SVG-20010904/DTD/svg10.dtd">
<svg version="1.0" xmlns="http://www.w3.org/2000/svg"
 width="51.000000pt" height="81.000000pt" viewBox="0 0 51.000000 81.000000"
 preserveAspectRatio="xMidYMid meet">
<metadata>
Created by potrace 1.14, written by Peter Selinger 2001-2017
</metadata>
<g transform="translate(0.000000,81.000000) scale(0.100000,-0.100000)"
fill="#000000" stroke="none">
<path fill="#000000" stroke="none" d="M330 800 c-14 -5 -44 -14 -68 -20 -42
-11 -44 -13 -87 -105 l-43 -94 12 -168 c10 -140 17 -178 38 -229 31 -75 28
-81 -73 -129 -41 -19 -71 -34 -68 -35 4 0 62 21 130 46 101 38 133 55 174 93
28 26 71 62 98 79 26 18 47 38 47 45 0 7 -9 69 -19 139 -18 117 -22 131 -60
187 -23 33 -41 62 -41 65 0 4 20 6 45 6 50 0 95 17 95 36 0 37 -21 63 -58 73
-64 18 -96 21 -122 11z"/>
</g>
</svg>
