<?xml version="1.0" standalone="no"?>
<!DOCTYPE svg PUBLIC "-//W3C//DTD SVG 20010904//EN"
 "http://www.w3.org/TR/2001/REC-SVG-20010904/DTD/svg10.dtd">
<svg version="1.0" xmlns="http://www.w3.org/2000/svg"
 width="40.000000pt" height="65.000000pt" viewBox="0 0 40.000000 65.000000"
 preserveAspectRatio="xMidYMid meet">
<metadata>
Created by potrace 1.14, written by Peter Selinger 2001-2017
</metadata>
<g transform="translate(0.000000,65.000000) scale(0.100000,-0.100000)"
fill="#000000" stroke="none">
<path fill="#000000" stroke="none" d="M22 625 c-17 -21 -18 -31 -10 -67 7
-30 6 -67 -2 -123 -10 -66 -10 -106 4 -234 9 -85 17 -156 19 -157 1 -2 78 -13
170 -25 195 -26 197 -25 197 55 0 69 -18 122 -84 247 -37 70 -72 121 -101 148
-25 23 -45 50 -45 60 0 39 -37 108 -62 114 -43 12 -66 7 -86 -18z"/>
</g>
</svg>
