<?xml version="1.0" standalone="no"?>
<!DOCTYPE svg PUBLIC "-//W3C//DTD SVG 20010904//EN"
 "http://www.w3.org/TR/2001/REC-SVG-20010904/DTD/svg10.dtd">
<svg version="1.0" xmlns="http://www.w3.org/2000/svg"
 width="131.000000pt" height="238.000000pt" viewBox="0 0 131.000000 238.000000"
 preserveAspectRatio="xMidYMid meet">
<metadata>
Created by potrace 1.14, written by Peter Selinger 2001-2017
</metadata>
<g transform="translate(0.000000,238.000000) scale(0.100000,-0.100000)"
fill="#000000" stroke="none">
<path fill="#000000" stroke="none" d="M365 2320 l-59 -59 21 -116 c19 -99 27
-122 57 -164 l35 -48 -42 -30 c-23 -16 -88 -47 -144 -68 -55 -21 -105 -40
-110 -44 -5 -3 -35 -66 -66 -139 l-57 -133 0 -154 c0 -126 5 -175 25 -272 14
-65 30 -127 36 -138 5 -11 20 -66 33 -121 l22 -100 -19 -74 c-18 -69 -18 -86
-7 -210 6 -74 20 -202 31 -285 10 -82 19 -153 19 -157 0 -5 69 -8 153 -8 l154
0 27 168 c16 92 31 170 35 174 4 5 22 -56 40 -135 18 -78 35 -152 38 -164 4
-17 1 -23 -11 -23 -9 0 -16 -4 -16 -10 0 -6 68 -10 185 -10 l185 0 0 49 c0
128 -23 481 -46 721 -25 246 -26 284 -19 535 6 192 11 260 17 236 l9 -33 207
7 c114 4 208 8 210 10 6 5 -80 720 -87 725 -5 3 -48 14 -96 24 l-87 19 -24
-29 c-44 -54 -29 -103 50 -159 l56 -40 0 -194 0 -194 -32 26 c-18 15 -73 52
-122 83 -83 52 -93 56 -137 52 -36 -4 -55 0 -84 18 -21 12 -43 21 -49 18 -6
-2 -19 3 -29 11 -18 13 -18 14 1 42 17 24 21 50 25 194 l6 166 -48 47 -47 46
-90 0 -90 0 -59 -60z"/>
<path fill="#ffffff" stroke="none" d="M381 528 c34 -66 38 -102 12 -94 -10 2
-28 7 -41 11 -25 7 -67 81 -77 138 -6 29 -3 42 11 58 18 20 18 20 41 -18 13
-21 37 -64 54 -95z"/>
</g>
</svg>
