<?xml version="1.0" standalone="no"?>
<!DOCTYPE svg PUBLIC "-//W3C//DTD SVG 20010904//EN"
 "http://www.w3.org/TR/2001/REC-SVG-20010904/DTD/svg10.dtd">
<svg version="1.0" xmlns="http://www.w3.org/2000/svg"
 width="32.000000pt" height="58.000000pt" viewBox="0 0 32.000000 58.000000"
 preserveAspectRatio="xMidYMid meet">
<metadata>
Created by potrace 1.14, written by Peter Selinger 2001-2017
</metadata>
<g transform="translate(0.000000,58.000000) scale(0.100000,-0.100000)"
fill="#000000" stroke="none">
<path fill="#000000" stroke="none" d="M143 572 c-21 -13 -34 -63 -27 -111 6
-46 5 -46 -28 -59 -19 -6 -46 -12 -59 -12 -23 0 -25 -3 -21 -34 3 -27 10 -36
30 -41 37 -9 51 -33 52 -87 0 -26 4 -49 9 -52 5 -3 -11 -25 -35 -50 -73 -73
-56 -127 39 -126 l32 1 -24 19 c-19 16 -22 26 -17 52 9 46 39 73 126 114 88
41 100 57 100 140 0 42 -6 64 -25 92 -14 20 -25 46 -25 58 0 61 -12 84 -49 94
-43 12 -62 12 -78 2z"/>
</g>
</svg>
