<?xml version="1.0" standalone="no"?>
<!DOCTYPE svg PUBLIC "-//W3C//DTD SVG 20010904//EN"
 "http://www.w3.org/TR/2001/REC-SVG-20010904/DTD/svg10.dtd">
<svg version="1.0" xmlns="http://www.w3.org/2000/svg"
 width="196.000000pt" height="348.000000pt" viewBox="0 0 196.000000 348.000000"
 preserveAspectRatio="xMidYMid meet">
<metadata>
Created by potrace 1.14, written by Peter Selinger 2001-2017
</metadata>
<g transform="translate(0.000000,348.000000) scale(0.100000,-0.100000)"
fill="#000000" stroke="none">
<path fill="#000000" stroke="none" d="M915 3459 c-98 -16 -123 -25 -216 -75
-95 -52 -110 -63 -152 -123 -26 -36 -85 -109 -133 -161 -89 -99 -136 -176
-148 -245 -4 -23 -20 -53 -36 -70 -37 -40 -50 -123 -51 -342 l0 -168 -50 -42
c-27 -24 -60 -43 -72 -43 -49 0 -52 -10 -55 -168 l-4 -149 35 -69 35 -69 -14
-65 c-16 -73 -23 -318 -10 -367 5 -21 19 -39 37 -50 21 -12 48 -52 91 -133 86
-164 85 -162 170 -187 40 -13 94 -29 121 -37 26 -8 47 -11 47 -6 0 5 -34 38
-75 72 -41 34 -75 66 -75 70 0 4 9 12 20 18 17 9 31 3 84 -33 84 -58 145 -67
241 -38 86 27 97 26 157 -6 44 -24 55 -37 89 -105 46 -92 48 -123 12 -209 -36
-88 -222 -659 -214 -659 3 0 254 14 556 30 303 16 571 30 596 30 l47 0 7 1308
7 1307 -92 240 c-51 132 -96 247 -101 256 -4 9 -53 56 -109 104 -99 87 -103
90 -253 147 l-152 58 -115 -1 c-63 -1 -165 -10 -225 -20z"/>
</g>
</svg>
