<?xml version="1.0" standalone="no"?>
<!DOCTYPE svg PUBLIC "-//W3C//DTD SVG 20010904//EN"
 "http://www.w3.org/TR/2001/REC-SVG-20010904/DTD/svg10.dtd">
<svg version="1.0" xmlns="http://www.w3.org/2000/svg"
 width="9.000000pt" height="16.000000pt" viewBox="0 0 9.000000 16.000000"
 preserveAspectRatio="xMidYMid meet">
<metadata>
Created by potrace 1.14, written by Peter Selinger 2001-2017
</metadata>
<g transform="translate(0.000000,16.000000) scale(0.100000,-0.100000)"
fill="#000000" stroke="none">
<path fill="#000000" stroke="none" d="M30 145 c-7 -8 -10 -24 -7 -35 3 -11 1
-20 -4 -20 -5 0 -9 -9 -9 -21 0 -11 4 -17 10 -14 6 3 10 -3 10 -14 0 -12 -7
-21 -15 -21 -8 0 -15 -5 -15 -11 0 -6 17 -9 42 -7 l42 3 4 53 c2 37 -1 60 -12
78 -19 28 -29 30 -46 9z"/>
</g>
</svg>
