<?xml version="1.0" standalone="no"?>
<!DOCTYPE svg PUBLIC "-//W3C//DTD SVG 20010904//EN"
 "http://www.w3.org/TR/2001/REC-SVG-20010904/DTD/svg10.dtd">
<svg version="1.0" xmlns="http://www.w3.org/2000/svg"
 width="222.000000pt" height="394.000000pt" viewBox="0 0 222.000000 394.000000"
 preserveAspectRatio="xMidYMid meet">
<metadata>
Created by potrace 1.14, written by Peter Selinger 2001-2017
</metadata>
<g transform="translate(0.000000,394.000000) scale(0.100000,-0.100000)"
fill="#000000" stroke="none">
<path fill="#000000" stroke="none" d="M1250 3913 c-115 -25 -115 -25 -172
-81 l-58 -56 0 -117 0 -117 -44 -38 c-38 -34 -55 -62 -120 -211 -63 -144 -90
-226 -170 -510 -52 -186 -100 -363 -106 -393 -6 -30 -24 -91 -40 -135 -40
-108 -66 -247 -60 -315 3 -31 -1 -75 -8 -100 -7 -25 -28 -119 -47 -210 l-33
-164 21 -16 c11 -8 25 -18 30 -21 14 -10 -16 -68 -76 -147 -44 -59 -59 -89
-77 -155 -63 -234 -150 -481 -203 -575 -92 -163 -88 -146 -61 -216 13 -33 36
-77 50 -97 37 -54 162 -163 221 -193 l52 -26 56 21 c30 11 55 25 55 31 0 6
-25 89 -55 184 -48 150 -56 187 -62 282 -6 106 -5 111 31 223 32 97 43 119 76
149 22 19 59 63 82 97 24 33 69 92 101 130 32 37 79 100 104 138 58 88 67 95
120 95 l43 0 0 -56 c0 -31 -7 -82 -15 -113 -15 -59 -42 -231 -70 -451 -18
-145 -58 -302 -86 -342 -28 -38 -69 -164 -69 -209 0 -42 4 -44 84 -54 48 -6
61 -12 81 -39 20 -26 44 -38 143 -70 l119 -39 41 29 40 29 -20 40 c-11 22 -45
75 -75 118 -30 43 -59 93 -65 110 -6 18 -17 39 -25 48 -12 14 -11 34 2 140 17
131 110 490 149 576 12 26 31 89 41 138 10 50 27 102 37 116 24 32 41 165 63
467 8 117 17 224 20 237 3 14 7 35 10 48 2 14 23 33 53 51 59 35 72 70 73 214
0 53 6 158 12 232 11 126 13 135 32 132 11 -2 70 -4 131 -5 126 -2 140 4 150
62 19 103 88 171 241 238 41 17 92 46 114 64 40 31 41 34 35 77 -6 41 -3 49
34 98 39 52 47 82 34 130 -5 18 -16 23 -67 28 l-62 7 -167 -81 c-151 -73 -175
-82 -241 -87 -73 -6 -74 -5 -140 37 -37 23 -67 47 -67 53 0 7 -3 21 -6 32 -3
14 5 33 24 57 27 34 29 45 35 146 4 78 13 129 31 183 l25 74 -27 22 c-15 13
-40 23 -56 23 -16 0 -51 14 -78 30 -26 17 -49 30 -51 29 -1 0 -54 -12 -117
-26z"/>
</g>
</svg>
