<?xml version="1.0" standalone="no"?>
<!DOCTYPE svg PUBLIC "-//W3C//DTD SVG 20010904//EN"
 "http://www.w3.org/TR/2001/REC-SVG-20010904/DTD/svg10.dtd">
<svg version="1.0" xmlns="http://www.w3.org/2000/svg"
 width="69.000000pt" height="115.000000pt" viewBox="0 0 69.000000 115.000000"
 preserveAspectRatio="xMidYMid meet">
<metadata>
Created by potrace 1.14, written by Peter Selinger 2001-2017
</metadata>
<g transform="translate(0.000000,115.000000) scale(0.100000,-0.100000)"
fill="#000000" stroke="none">
<path fill="#000000" stroke="none" d="M20 1137 c-18 -14 -15 -47 5 -47 8 0
17 -9 20 -20 6 -17 15 -20 75 -20 38 0 90 5 117 11 45 11 53 9 101 -15 29 -14
52 -30 52 -34 0 -4 -20 -41 -44 -82 -54 -94 -126 -287 -126 -340 0 -54 -28
-238 -40 -259 -5 -10 -26 -31 -47 -46 -47 -36 -55 -47 -40 -57 20 -13 82 -9
103 7 10 8 40 15 65 15 l47 0 -11 38 c-16 60 -10 132 15 169 28 39 39 31 44
-34 2 -26 10 -75 18 -107 14 -59 14 -60 -24 -175 -41 -121 -40 -131 7 -131 12
0 28 -3 37 -6 10 -4 19 4 29 28 8 18 21 39 29 46 13 10 14 21 6 55 -7 29 -6
65 2 115 6 41 9 99 5 130 -6 56 -5 58 56 157 88 144 129 237 129 296 0 30 5
51 13 56 8 4 17 25 20 46 9 55 -19 81 -78 75 -38 -5 -44 -3 -54 19 -7 16 -42
39 -105 69 l-94 46 -159 4 c-114 2 -162 0 -173 -9z"/>
</g>
</svg>
