<?xml version="1.0" standalone="no"?>
<!DOCTYPE svg PUBLIC "-//W3C//DTD SVG 20010904//EN"
 "http://www.w3.org/TR/2001/REC-SVG-20010904/DTD/svg10.dtd">
<svg version="1.0" xmlns="http://www.w3.org/2000/svg"
 width="25.000000pt" height="43.000000pt" viewBox="0 0 25.000000 43.000000"
 preserveAspectRatio="xMidYMid meet">
<metadata>
Created by potrace 1.14, written by Peter Selinger 2001-2017
</metadata>
<g transform="translate(0.000000,43.000000) scale(0.100000,-0.100000)"
fill="#000000" stroke="none">
<path fill="#000000" stroke="none" d="M116 414 c-9 -8 -16 -28 -16 -43 0 -19
-8 -32 -24 -41 -46 -24 -88 -175 -56 -195 12 -7 3 -74 -11 -90 -18 -19 -8 -33
25 -37 32 -3 36 -1 55 39 22 46 47 55 74 29 22 -22 35 -1 30 48 -5 38 -2 45
26 69 45 37 43 79 -6 125 -24 22 -37 43 -35 55 3 18 -23 57 -39 57 -4 0 -15
-7 -23 -16z"/>
</g>
</svg>
