<?xml version="1.0" standalone="no"?>
<!DOCTYPE svg PUBLIC "-//W3C//DTD SVG 20010904//EN"
 "http://www.w3.org/TR/2001/REC-SVG-20010904/DTD/svg10.dtd">
<svg version="1.0" xmlns="http://www.w3.org/2000/svg"
 width="11.000000pt" height="18.000000pt" viewBox="0 0 11.000000 18.000000"
 preserveAspectRatio="xMidYMid meet">
<metadata>
Created by potrace 1.14, written by Peter Selinger 2001-2017
</metadata>
<g transform="translate(0.000000,18.000000) scale(0.100000,-0.100000)"
fill="#000000" stroke="none">
<path fill="#000000" stroke="none" d="M20 156 c0 -14 -5 -28 -10 -31 -6 -3
-10 -13 -10 -21 0 -11 6 -13 21 -9 23 8 23 -1 3 -72 -9 -32 14 -30 26 2 12 33
26 32 38 -2 8 -23 11 -25 17 -12 9 24 -21 118 -47 146 -28 29 -38 29 -38 -1z"/>
</g>
</svg>
