<?xml version="1.0" standalone="no"?>
<!DOCTYPE svg PUBLIC "-//W3C//DTD SVG 20010904//EN"
 "http://www.w3.org/TR/2001/REC-SVG-20010904/DTD/svg10.dtd">
<svg version="1.0" xmlns="http://www.w3.org/2000/svg"
 width="167.000000pt" height="284.000000pt" viewBox="0 0 167.000000 284.000000"
 preserveAspectRatio="xMidYMid meet">
<metadata>
Created by potrace 1.14, written by Peter Selinger 2001-2017
</metadata>
<g transform="translate(0.000000,284.000000) scale(0.100000,-0.100000)"
fill="#000000" stroke="none">
<path fill="#000000" stroke="none" d="M450 2786 l-105 -54 -24 -133 c-22
-126 -22 -142 -11 -254 13 -119 13 -120 56 -176 41 -51 44 -59 43 -115 0 -32
-3 -77 -7 -99 l-7 -39 -120 -37 -119 -36 -27 -169 c-20 -133 -36 -197 -73
-299 -26 -71 -48 -139 -48 -150 0 -12 24 -97 55 -190 l55 -170 -10 -95 c-8
-76 -7 -126 6 -245 l16 -149 -39 -41 c-38 -39 -39 -42 -50 -149 -7 -59 -10
-111 -7 -113 3 -3 96 0 208 6 257 14 568 14 699 0 56 -6 156 -26 223 -44 l123
-32 22 306 c13 168 26 319 30 336 7 28 13 31 167 78 87 27 160 50 162 52 2 2
-20 156 -48 342 l-52 338 -88 230 -87 230 -190 98 c-168 88 -192 103 -215 140
-48 78 -55 169 -27 333 10 59 10 64 -26 146 -25 58 -50 98 -80 128 -42 41 -48
43 -152 61 -59 10 -117 19 -128 18 -11 0 -67 -24 -125 -53z"/>
</g>
</svg>
