<?xml version="1.0" standalone="no"?>
<!DOCTYPE svg PUBLIC "-//W3C//DTD SVG 20010904//EN"
 "http://www.w3.org/TR/2001/REC-SVG-20010904/DTD/svg10.dtd">
<svg version="1.0" xmlns="http://www.w3.org/2000/svg"
 width="304.000000pt" height="473.000000pt" viewBox="0 0 304.000000 473.000000"
 preserveAspectRatio="xMidYMid meet">
<metadata>
Created by potrace 1.14, written by Peter Selinger 2001-2017
</metadata>
<g transform="translate(0.000000,473.000000) scale(0.100000,-0.100000)"
fill="#000000" stroke="none">
<path fill="#000000" stroke="none" d="M991 4504 c-226 -195 -261 -229 -255
-247 4 -12 33 -111 65 -221 44 -151 56 -202 46 -208 -6 -4 -199 -117 -429
-250 l-416 -242 44 -88 45 -89 47 6 c66 7 474 35 520 35 32 0 67 -22 268 -168
126 -93 363 -259 525 -370 l295 -201 452 -1083 451 -1083 7 -149 7 -148 161 7
c89 4 163 9 165 10 4 5 40 295 42 345 1 27 -80 210 -361 815 l-363 780 -98
377 c-55 208 -99 384 -99 393 0 9 63 88 141 176 l141 160 -71 342 c-39 187
-73 342 -75 344 -1 2 -135 53 -297 115 -162 61 -296 113 -298 115 -3 2 -17
101 -33 220 -15 120 -29 221 -30 225 -5 11 -321 308 -329 308 -4 0 -125 -102
-268 -226z"/>
</g>
</svg>
