<?xml version="1.0" standalone="no"?>
<!DOCTYPE svg PUBLIC "-//W3C//DTD SVG 20010904//EN"
 "http://www.w3.org/TR/2001/REC-SVG-20010904/DTD/svg10.dtd">
<svg version="1.0" xmlns="http://www.w3.org/2000/svg"
 width="58.000000pt" height="95.000000pt" viewBox="0 0 58.000000 95.000000"
 preserveAspectRatio="xMidYMid meet">
<metadata>
Created by potrace 1.14, written by Peter Selinger 2001-2017
</metadata>
<g transform="translate(0.000000,95.000000) scale(0.100000,-0.100000)"
fill="#000000" stroke="none">
<path fill="#000000" stroke="none" d="M16 928 c-3 -13 -9 -89 -12 -170 l-7
-147 24 -5 c152 -36 192 -46 196 -49 2 -2 15 -69 29 -148 25 -142 26 -144 96
-263 39 -67 76 -127 83 -134 10 -11 22 -9 66 13 30 15 57 32 60 37 4 6 12 87
19 182 13 172 13 172 -21 439 l-33 267 -247 0 -247 0 -6 -22z"/>
</g>
</svg>
