<?xml version="1.0" standalone="no"?>
<!DOCTYPE svg PUBLIC "-//W3C//DTD SVG 20010904//EN"
 "http://www.w3.org/TR/2001/REC-SVG-20010904/DTD/svg10.dtd">
<svg version="1.0" xmlns="http://www.w3.org/2000/svg"
 width="216.000000pt" height="392.000000pt" viewBox="0 0 216.000000 392.000000"
 preserveAspectRatio="xMidYMid meet">
<metadata>
Created by potrace 1.14, written by Peter Selinger 2001-2017
</metadata>
<g transform="translate(0.000000,392.000000) scale(0.100000,-0.100000)"
fill="#000000" stroke="none">
<path fill="#000000" stroke="none" d="M466 3869 c-55 -28 -131 -76 -169 -107
l-69 -56 130 -122 129 -123 -29 -122 c-16 -68 -39 -140 -52 -161 -22 -37 -22
-41 -10 -131 7 -50 13 -99 14 -108 0 -8 -41 -43 -92 -79 -72 -49 -119 -93
-207 -192 l-113 -129 26 -37 c23 -34 38 -41 168 -86 79 -27 157 -59 174 -72
l31 -23 -68 -170 c-76 -192 -122 -263 -203 -312 -28 -17 -52 -33 -54 -34 -2
-2 10 -21 26 -43 25 -35 30 -53 35 -131 5 -69 14 -106 36 -155 27 -60 34 -67
137 -137 l109 -74 12 -85 c6 -47 12 -90 12 -97 1 -6 9 -13 19 -15 9 -2 52 -40
94 -84 70 -74 78 -80 92 -65 8 9 26 83 41 166 14 84 32 154 39 160 11 8 8 17
-15 45 l-29 34 29 12 c33 14 86 78 76 93 -4 7 -16 4 -33 -8 -33 -23 -132 -36
-132 -17 0 26 28 45 123 86 53 24 97 47 97 51 0 14 -14 11 -96 -21 -97 -37
-174 -49 -174 -28 0 10 36 28 108 53 59 21 121 46 139 57 35 21 35 45 0 50
-15 2 -25 14 -32 39 l-10 36 -80 -18 c-51 -11 -99 -16 -132 -12 -29 3 -53 7
-53 9 0 1 -7 36 -16 76 -13 63 -14 88 -3 182 12 99 11 113 -5 155 -32 83 -32
83 24 125 28 21 52 37 54 35 1 -2 15 -26 31 -54 15 -27 40 -63 55 -80 15 -16
48 -55 72 -86 l46 -57 11 87 c6 47 16 131 22 186 12 97 14 102 63 169 27 38
51 65 53 60 1 -5 -12 -157 -30 -337 l-33 -328 23 -41 c33 -57 122 -342 129
-414 l6 -60 -88 -31 c-49 -17 -99 -34 -111 -38 -27 -8 -26 -5 -54 -201 l-23
-162 72 -291 71 -291 -26 -129 -27 -129 -30 9 c-16 5 -31 8 -32 6 -1 -1 0 -14
3 -29 4 -22 10 -27 27 -23 11 2 129 11 261 20 132 9 250 18 262 20 17 4 24 18
39 80 10 41 20 75 23 75 3 0 31 -38 61 -85 33 -50 62 -85 72 -85 9 0 126 -9
259 -20 133 -11 243 -19 244 -18 150 241 159 274 135 535 -5 61 -5 146 0 214
l9 111 -45 117 -44 117 8 123 7 123 -49 82 c-26 44 -64 122 -82 173 -18 51
-49 124 -69 162 -19 39 -35 75 -35 81 0 5 12 10 28 10 15 0 32 4 38 8 7 4 21
55 33 113 l22 107 -36 143 c-34 136 -44 159 -178 421 -89 173 -147 276 -154
273 -7 -2 -39 29 -72 69 l-59 72 -97 13 c-54 7 -143 23 -198 35 l-101 23 3
244 3 244 -32 30 c-18 17 -45 59 -61 95 -24 52 -42 75 -92 115 -57 46 -68 50
-132 57 -161 16 -191 12 -299 -43z"/>
<path fill="#ffffff" stroke="none" d="M835 3127 c17 -23 54 -56 82 -73 29
-17 68 -52 88 -78 33 -43 35 -50 25 -79 -6 -18 -23 -48 -39 -67 l-29 -35 -59
55 c-84 79 -98 102 -112 179 -12 67 -37 111 -64 111 -7 0 -3 7 7 15 35 27 68
18 101 -28z"/>
<path fill="#000000" stroke="none" d="M296 637 c-9 -23 -16 -49 -15 -57 0 -8
9 9 20 39 23 65 19 80 -5 18z"/>
</g>
</svg>
