<?xml version="1.0" standalone="no"?>
<!DOCTYPE svg PUBLIC "-//W3C//DTD SVG 20010904//EN"
 "http://www.w3.org/TR/2001/REC-SVG-20010904/DTD/svg10.dtd">
<svg version="1.0" xmlns="http://www.w3.org/2000/svg"
 width="181.000000pt" height="297.000000pt" viewBox="0 0 181.000000 297.000000"
 preserveAspectRatio="xMidYMid meet">
<metadata>
Created by potrace 1.14, written by Peter Selinger 2001-2017
</metadata>
<g transform="translate(0.000000,297.000000) scale(0.100000,-0.100000)"
fill="#000000" stroke="none">
<path fill="#000000" stroke="none" d="M420 2961 c-30 -4 -88 -19 -127 -35
-82 -31 -83 -33 -58 -126 8 -30 15 -85 15 -121 0 -53 4 -72 22 -95 18 -23 19
-27 5 -21 -13 5 -17 1 -17 -15 0 -18 -4 -20 -37 -15 -117 18 -214 30 -218 26
-2 -3 7 -46 19 -97 19 -74 32 -101 64 -139 58 -69 70 -78 145 -109 l69 -27 -7
-61 c-4 -35 -22 -95 -42 -141 -32 -71 -62 -170 -63 -202 0 -6 10 -13 22 -15
16 -2 25 -14 34 -48 14 -54 86 -210 115 -252 37 -52 147 -282 260 -545 83
-194 124 -276 178 -356 63 -95 74 -118 116 -258 25 -85 63 -189 83 -232 l36
-79 95 7 c93 7 287 34 497 71 l102 18 12 75 c6 42 25 136 41 208 16 73 29 136
29 139 0 3 -10 4 -23 0 -12 -3 -50 3 -85 14 -52 16 -79 18 -176 13 l-115 -6
-36 74 -35 74 52 26 53 27 32 -50 c17 -28 34 -52 37 -55 5 -6 156 116 156 126
0 3 -18 61 -41 128 l-41 123 -70 0 c-67 0 -74 2 -122 39 -91 71 -100 85 -176
291 -102 275 -129 319 -332 528 -200 207 -202 210 -108 267 56 34 60 39 60 74
0 24 9 49 25 72 15 19 45 68 69 109 36 62 44 87 50 147 6 70 5 74 -39 169 -25
54 -70 130 -99 169 l-54 71 -89 12 c-94 13 -190 13 -283 3z"/>
</g>
</svg>
