<?xml version="1.0" standalone="no"?>
<!DOCTYPE svg PUBLIC "-//W3C//DTD SVG 20010904//EN"
 "http://www.w3.org/TR/2001/REC-SVG-20010904/DTD/svg10.dtd">
<svg version="1.0" xmlns="http://www.w3.org/2000/svg"
 width="28.000000pt" height="47.000000pt" viewBox="0 0 28.000000 47.000000"
 preserveAspectRatio="xMidYMid meet">
<metadata>
Created by potrace 1.14, written by Peter Selinger 2001-2017
</metadata>
<g transform="translate(0.000000,47.000000) scale(0.100000,-0.100000)"
fill="#000000" stroke="none">
<path fill="#000000" stroke="none" d="M95 430 c-4 -26 -17 -50 -37 -67 -48
-45 -50 -54 -30 -145 11 -48 16 -92 11 -103 -4 -11 -14 -41 -22 -68 l-14 -47
58 0 59 0 0 76 c0 54 4 80 15 90 8 9 15 31 15 51 0 30 3 34 18 28 9 -4 26 -10
37 -13 11 -2 30 -13 41 -24 15 -14 24 -16 29 -8 12 19 -3 54 -29 70 -14 8 -41
37 -60 64 -28 40 -33 53 -25 69 6 10 8 30 5 43 -5 18 -13 24 -35 24 -26 0 -30
-4 -36 -40z"/>
</g>
</svg>
