<?xml version="1.0" standalone="no"?>
<!DOCTYPE svg PUBLIC "-//W3C//DTD SVG 20010904//EN"
 "http://www.w3.org/TR/2001/REC-SVG-20010904/DTD/svg10.dtd">
<svg version="1.0" xmlns="http://www.w3.org/2000/svg"
 width="56.000000pt" height="97.000000pt" viewBox="0 0 56.000000 97.000000"
 preserveAspectRatio="xMidYMid meet">
<metadata>
Created by potrace 1.14, written by Peter Selinger 2001-2017
</metadata>
<g transform="translate(0.000000,97.000000) scale(0.100000,-0.100000)"
fill="#000000" stroke="none">
<path fill="#000000" stroke="none" d="M2 884 c5 -95 16 -114 69 -114 23 0 34
-11 69 -65 22 -36 52 -71 65 -77 14 -6 25 -19 25 -30 0 -10 6 -18 13 -18 7 0
13 -15 13 -37 2 -40 4 -253 3 -288 -1 -11 2 -52 6 -91 7 -65 6 -72 -16 -96
-14 -14 -36 -28 -49 -30 -14 -1 -25 -10 -25 -18 0 -12 15 -15 73 -15 l73 0 3
70 c5 102 14 117 38 64 15 -34 17 -49 8 -72 -19 -54 -15 -60 36 -54 25 2 50 9
55 14 5 5 -4 47 -21 101 -17 50 -30 102 -30 115 0 13 19 73 41 133 23 60 46
139 52 176 9 57 14 67 34 73 13 3 23 10 23 16 0 28 -59 104 -118 154 -39 33
-238 105 -289 105 -27 0 -45 9 -74 35 -22 19 -49 35 -60 35 -21 0 -21 -4 -17
-86z"/>
</g>
</svg>
