<?xml version="1.0" standalone="no"?>
<!DOCTYPE svg PUBLIC "-//W3C//DTD SVG 20010904//EN"
 "http://www.w3.org/TR/2001/REC-SVG-20010904/DTD/svg10.dtd">
<svg version="1.0" xmlns="http://www.w3.org/2000/svg"
 width="24.000000pt" height="38.000000pt" viewBox="0 0 24.000000 38.000000"
 preserveAspectRatio="xMidYMid meet">
<metadata>
Created by potrace 1.14, written by Peter Selinger 2001-2017
</metadata>
<g transform="translate(0.000000,38.000000) scale(0.100000,-0.100000)"
fill="#000000" stroke="none">
<path fill="#000000" stroke="none" d="M73 350 c-15 -17 -36 -30 -50 -30 -36
0 -32 -53 7 -82 28 -20 30 -26 30 -84 0 -40 7 -77 21 -108 l20 -47 47 7 c26 3
50 8 54 11 14 8 8 37 -19 90 -20 42 -24 58 -16 75 9 21 11 19 28 -25 17 -44
45 -65 45 -32 0 8 -4 15 -10 15 -5 0 -10 12 -10 28 0 15 -8 38 -17 52 -10 14
-16 39 -14 64 1 21 -3 52 -10 68 -17 40 -68 40 -106 -2z"/>
</g>
</svg>
