<?xml version="1.0" standalone="no"?>
<!DOCTYPE svg PUBLIC "-//W3C//DTD SVG 20010904//EN"
 "http://www.w3.org/TR/2001/REC-SVG-20010904/DTD/svg10.dtd">
<svg version="1.0" xmlns="http://www.w3.org/2000/svg"
 width="37.000000pt" height="62.000000pt" viewBox="0 0 37.000000 62.000000"
 preserveAspectRatio="xMidYMid meet">
<metadata>
Created by potrace 1.14, written by Peter Selinger 2001-2017
</metadata>
<g transform="translate(0.000000,62.000000) scale(0.100000,-0.100000)"
fill="#000000" stroke="none">
<path fill="#000000" stroke="none" d="M253 598 c-12 -13 -24 -40 -28 -60 l-7
-38 -20 25 c-14 18 -29 25 -52 25 -42 0 -66 -26 -66 -71 0 -27 -7 -40 -35 -62
-41 -33 -47 -73 -15 -102 18 -16 28 -17 79 -9 39 6 65 6 77 -1 11 -5 20 -10
21 -10 0 0 4 -17 8 -38 l7 -37 -35 0 c-20 0 -39 -5 -42 -10 -11 -18 -23 -11
-18 10 9 34 -23 70 -61 70 -55 0 -66 -22 -66 -137 0 -84 3 -103 18 -116 21
-19 77 -23 87 -6 5 7 14 4 27 -8 15 -14 36 -18 91 -18 67 0 71 1 88 30 33 54
36 69 33 155 -6 148 -5 178 5 217 5 21 9 45 8 53 0 8 3 36 7 63 7 37 5 52 -8
72 -22 33 -74 34 -103 3z"/>
</g>
</svg>
