<?xml version="1.0" standalone="no"?>
<!DOCTYPE svg PUBLIC "-//W3C//DTD SVG 20010904//EN"
 "http://www.w3.org/TR/2001/REC-SVG-20010904/DTD/svg10.dtd">
<svg version="1.0" xmlns="http://www.w3.org/2000/svg"
 width="85.000000pt" height="149.000000pt" viewBox="0 0 85.000000 149.000000"
 preserveAspectRatio="xMidYMid meet">
<metadata>
Created by potrace 1.14, written by Peter Selinger 2001-2017
</metadata>
<g transform="translate(0.000000,149.000000) scale(0.100000,-0.100000)"
fill="#000000" stroke="none">
<path fill="#000000" stroke="none" d="M448 1449 c-32 -22 -60 -50 -63 -62 -3
-12 -11 -51 -19 -87 l-13 -65 -8 48 c-11 68 -27 46 -36 -48 -6 -64 -12 -81
-37 -109 -16 -19 -44 -56 -62 -83 -18 -26 -52 -70 -75 -98 l-42 -50 -18 -190
c-15 -164 -22 -198 -46 -253 -42 -92 -39 -123 14 -165 23 -19 76 -52 118 -75
l75 -41 -7 -58 c-12 -99 -11 -113 10 -113 10 0 38 7 61 15 34 12 55 13 110 4
55 -8 79 -7 131 6 35 9 78 25 94 35 17 10 72 35 123 55 50 20 92 40 92 45 0 4
-30 105 -66 225 l-65 219 35 30 36 31 -20 125 c-28 173 -36 195 -72 223 -18
15 -28 29 -24 36 4 7 32 26 62 42 l54 31 0 113 c0 62 2 120 5 127 4 10 -22 34
-75 71 -79 56 -82 57 -148 56 -61 0 -72 -3 -124 -40z"/>
</g>
</svg>
