<?xml version="1.0" standalone="no"?>
<!DOCTYPE svg PUBLIC "-//W3C//DTD SVG 20010904//EN"
 "http://www.w3.org/TR/2001/REC-SVG-20010904/DTD/svg10.dtd">
<svg version="1.0" xmlns="http://www.w3.org/2000/svg"
 width="237.000000pt" height="406.000000pt" viewBox="0 0 237.000000 406.000000"
 preserveAspectRatio="xMidYMid meet">
<metadata>
Created by potrace 1.14, written by Peter Selinger 2001-2017
</metadata>
<g transform="translate(0.000000,406.000000) scale(0.100000,-0.100000)"
fill="#000000" stroke="none">
<path fill="#000000" stroke="none" d="M920 4044 c-58 -7 -110 -15 -116 -16
-6 -2 -56 -55 -111 -119 l-100 -116 12 -91 c11 -87 10 -93 -12 -129 l-22 -37
79 -152 c76 -144 80 -155 80 -215 l-1 -64 -77 -52 c-42 -28 -126 -76 -187
-106 -91 -46 -129 -73 -219 -155 -112 -101 -142 -147 -131 -196 6 -25 -40
-175 -47 -155 -13 37 -38 -115 -51 -310 l-14 -214 24 -61 c19 -48 44 -81 113
-151 86 -88 88 -91 101 -160 16 -83 42 -118 87 -118 28 0 34 -5 48 -44 14 -37
16 -66 10 -187 l-7 -143 45 -50 c28 -31 62 -56 90 -67 43 -16 45 -20 87 -119
24 -56 60 -127 80 -157 20 -30 98 -190 174 -355 76 -165 140 -302 141 -304 2
-2 49 17 106 42 57 26 128 55 158 65 31 11 169 90 307 176 138 86 258 159 267
162 26 10 20 91 -23 320 -53 278 -85 394 -133 482 l-40 73 17 47 c30 87 29
163 -4 356 -17 99 -28 182 -26 184 2 2 29 -48 59 -111 66 -136 169 -445 261
-782 36 -132 83 -296 104 -365 l39 -125 47 -10 c25 -6 43 -14 39 -18 -4 -4 -2
-7 4 -7 23 0 192 114 192 129 0 9 -38 54 -85 101 l-84 84 -30 130 c-24 103
-35 190 -51 403 -20 253 -23 280 -60 408 -23 82 -53 161 -73 194 -31 52 -34
66 -40 161 -8 133 -64 430 -111 583 -19 65 -38 123 -41 128 -4 5 -19 9 -34 9
-18 0 -39 13 -66 41 -54 54 -176 119 -313 164 -104 34 -112 39 -106 58 14 50
44 106 89 172 l49 70 22 160 23 159 -52 81 c-29 44 -79 131 -112 192 l-60 111
-73 16 c-83 18 -99 18 -242 0z"/>
</g>
</svg>
