<?xml version="1.0" standalone="no"?>
<!DOCTYPE svg PUBLIC "-//W3C//DTD SVG 20010904//EN"
 "http://www.w3.org/TR/2001/REC-SVG-20010904/DTD/svg10.dtd">
<svg version="1.0" xmlns="http://www.w3.org/2000/svg"
 width="20.000000pt" height="34.000000pt" viewBox="0 0 20.000000 34.000000"
 preserveAspectRatio="xMidYMid meet">
<metadata>
Created by potrace 1.14, written by Peter Selinger 2001-2017
</metadata>
<g transform="translate(0.000000,34.000000) scale(0.100000,-0.100000)"
fill="#000000" stroke="none">
<path fill="#000000" stroke="none" d="M98 324 c-51 -27 -57 -75 -16 -120 18
-20 18 -21 -32 -87 -41 -55 -49 -70 -41 -86 9 -16 32 -31 47 -31 2 0 4 9 4 20
0 12 11 43 25 69 20 41 32 52 67 64 36 12 43 18 40 38 -2 13 -3 47 -4 74 0 28
-4 56 -10 63 -14 16 -47 15 -80 -4z"/>
</g>
</svg>
