<?xml version="1.0" standalone="no"?>
<!DOCTYPE svg PUBLIC "-//W3C//DTD SVG 20010904//EN"
 "http://www.w3.org/TR/2001/REC-SVG-20010904/DTD/svg10.dtd">
<svg version="1.0" xmlns="http://www.w3.org/2000/svg"
 width="38.000000pt" height="60.000000pt" viewBox="0 0 38.000000 60.000000"
 preserveAspectRatio="xMidYMid meet">
<metadata>
Created by potrace 1.14, written by Peter Selinger 2001-2017
</metadata>
<g transform="translate(0.000000,60.000000) scale(0.100000,-0.100000)"
fill="#000000" stroke="none">
<path fill="#000000" stroke="none" d="M247 590 c-20 -4 -39 -9 -41 -11 -11
-10 -8 -97 3 -117 19 -35 9 -46 -57 -71 l-60 -21 -7 -50 -7 -50 -39 0 c-36 0
-39 -2 -39 -28 0 -25 7 -32 52 -53 72 -34 78 -42 78 -110 0 -40 4 -59 13 -60
6 0 63 -4 125 -7 l114 -7 -4 174 -3 173 -32 27 c-37 31 -40 46 -17 79 20 29
12 83 -19 116 -19 19 -28 22 -60 16z"/>
</g>
</svg>
