<?xml version="1.0" standalone="no"?>
<!DOCTYPE svg PUBLIC "-//W3C//DTD SVG 20010904//EN"
 "http://www.w3.org/TR/2001/REC-SVG-20010904/DTD/svg10.dtd">
<svg version="1.0" xmlns="http://www.w3.org/2000/svg"
 width="212.000000pt" height="349.000000pt" viewBox="0 0 212.000000 349.000000"
 preserveAspectRatio="xMidYMid meet">
<metadata>
Created by potrace 1.14, written by Peter Selinger 2001-2017
</metadata>
<g transform="translate(0.000000,349.000000) scale(0.100000,-0.100000)"
fill="#000000" stroke="none">
<path fill="#000000" stroke="none" d="M870 3449 l-65 -39 -146 0 -146 0 -18
-137 c-19 -146 -15 -190 23 -258 9 -17 31 -55 47 -84 56 -101 116 -186 155
-221 47 -42 46 -73 -4 -90 -17 -6 -56 -26 -86 -44 -30 -19 -90 -43 -133 -54
-64 -17 -92 -31 -164 -85 -120 -89 -154 -127 -207 -232 -25 -49 -45 -82 -45
-72 -1 22 -17 22 -33 -2 -7 -10 -22 -20 -33 -23 -11 -2 49 -2 133 0 l153 4
-15 -38 c-8 -22 -17 -84 -21 -139 -3 -55 -9 -129 -12 -164 l-6 -65 36 21 c38
23 47 17 47 -28 0 -11 4 -27 10 -37 5 -9 23 -93 39 -187 30 -163 30 -178 24
-360 -7 -222 -3 -257 35 -283 38 -28 652 -142 760 -142 l78 0 32 -109 c18 -60
35 -116 38 -125 4 -11 0 -16 -14 -16 -20 0 -20 -2 -6 -27 9 -19 18 -92 27
-218 l12 -190 90 -3 c50 -2 104 0 121 3 l31 5 18 123 18 124 72 26 c39 15 76
27 81 27 5 0 65 -61 133 -135 68 -75 126 -134 128 -131 2 2 -2 41 -8 88 -9 63
-10 110 -1 193 6 60 7 112 3 115 -5 3 -12 24 -15 46 -6 36 -5 42 13 47 15 4
21 14 22 34 0 15 4 66 9 113 5 53 4 112 -2 157 -9 65 -8 76 8 100 24 36 29
184 16 438 -9 167 -12 186 -41 262 l-32 81 34 45 c30 39 35 55 46 146 l12 101
-69 118 c-38 64 -128 234 -200 377 -125 250 -132 261 -183 299 -53 39 -84 49
-191 61 -65 7 -59 -6 -62 130 -1 43 -13 106 -30 165 -24 81 -36 104 -82 156
-52 59 -55 62 -202 117 -82 31 -153 57 -158 56 -5 0 -38 -18 -74 -40z"/>
<path fill="#ffffff" stroke="none" d="M1440 2797 c0 -57 44 -94 53 -44 3 19
5 18 12 -10 8 -35 12 -38 35 -23 11 7 19 4 31 -12 16 -21 15 -25 -19 -95 -20
-40 -40 -73 -45 -73 -9 0 -36 21 -105 81 -31 28 -32 30 -22 75 6 26 20 54 33
64 20 16 21 21 9 52 -16 45 -15 58 3 34 8 -11 15 -33 15 -49z"/>
<path fill="#ffffff" stroke="none" d="M1675 700 l83 0 6 -77 c4 -43 9 -104
12 -136 l5 -58 -48 6 c-114 14 -112 13 -117 48 -3 18 -10 68 -16 112 -6 44
-13 91 -15 105 -2 14 -2 19 1 13 4 -9 32 -13 89 -13z"/>
</g>
</svg>
