<?xml version="1.0" standalone="no"?>
<!DOCTYPE svg PUBLIC "-//W3C//DTD SVG 20010904//EN"
 "http://www.w3.org/TR/2001/REC-SVG-20010904/DTD/svg10.dtd">
<svg version="1.0" xmlns="http://www.w3.org/2000/svg"
 width="13.000000pt" height="23.000000pt" viewBox="0 0 13.000000 23.000000"
 preserveAspectRatio="xMidYMid meet">
<metadata>
Created by potrace 1.14, written by Peter Selinger 2001-2017
</metadata>
<g transform="translate(0.000000,23.000000) scale(0.100000,-0.100000)"
fill="#000000" stroke="none">
<path fill="#000000" stroke="none" d="M21 152 c-12 -43 -21 -90 -21 -105 0
-28 24 -47 60 -47 20 0 22 4 16 35 -6 28 -4 35 9 35 17 0 20 36 6 59 -5 7 -5
26 -1 41 9 32 -4 60 -29 60 -15 0 -23 -17 -40 -78z"/>
<path fill="#000000" stroke="none" d="M90 20 c0 -14 7 -20 21 -20 15 0 19 4
15 16 -3 9 -6 18 -6 20 0 2 -7 4 -15 4 -8 0 -15 -9 -15 -20z"/>
</g>
</svg>
