<?xml version="1.0" standalone="no"?>
<!DOCTYPE svg PUBLIC "-//W3C//DTD SVG 20010904//EN"
 "http://www.w3.org/TR/2001/REC-SVG-20010904/DTD/svg10.dtd">
<svg version="1.0" xmlns="http://www.w3.org/2000/svg"
 width="41.000000pt" height="70.000000pt" viewBox="0 0 41.000000 70.000000"
 preserveAspectRatio="xMidYMid meet">
<metadata>
Created by potrace 1.14, written by Peter Selinger 2001-2017
</metadata>
<g transform="translate(0.000000,70.000000) scale(0.100000,-0.100000)"
fill="#000000" stroke="none">
<path fill="#000000" stroke="none" d="M191 679 c-39 -17 -41 -20 -41 -62 0
-31 -5 -47 -16 -51 -14 -5 -13 -9 3 -36 9 -16 20 -30 24 -30 4 0 4 -12 0 -27
-6 -24 -16 -30 -69 -44 -34 -8 -70 -22 -79 -32 -15 -15 -15 -19 10 -54 14 -21
29 -50 32 -66 4 -15 11 -27 16 -27 5 0 9 -7 9 -15 0 -8 -7 -15 -15 -15 -11 0
-15 -12 -15 -50 0 -27 5 -50 10 -50 16 0 12 -50 -5 -56 -8 -4 -15 -13 -15 -21
0 -12 8 -14 34 -9 25 5 37 3 43 -7 4 -8 26 -18 49 -21 l40 -7 0 73 c-1 72 -1
73 25 76 23 3 29 11 43 61 15 53 59 130 116 203 l20 26 -49 7 c-49 7 -72 27
-47 42 23 14 35 47 24 67 -5 10 -7 32 -4 50 5 26 1 37 -17 54 -38 36 -78 43
-126 21z"/>
</g>
</svg>
