<?xml version="1.0" standalone="no"?>
<!DOCTYPE svg PUBLIC "-//W3C//DTD SVG 20010904//EN"
 "http://www.w3.org/TR/2001/REC-SVG-20010904/DTD/svg10.dtd">
<svg version="1.0" xmlns="http://www.w3.org/2000/svg"
 width="175.000000pt" height="288.000000pt" viewBox="0 0 175.000000 288.000000"
 preserveAspectRatio="xMidYMid meet">
<metadata>
Created by potrace 1.14, written by Peter Selinger 2001-2017
</metadata>
<g transform="translate(0.000000,288.000000) scale(0.100000,-0.100000)"
fill="#000000" stroke="none">
<path fill="#000000" stroke="none" d="M777 2857 c-44 -21 -54 -32 -109 -127
-33 -58 -78 -154 -100 -215 -22 -60 -52 -129 -65 -153 -33 -56 -130 -118 -253
-162 -174 -62 -170 -59 -215 -144 l-40 -76 32 -57 c17 -32 113 -256 213 -498
l182 -439 290 -486 c160 -267 294 -488 297 -493 4 -4 60 75 125 175 66 101
148 224 184 275 l65 92 55 -40 c44 -31 64 -39 98 -39 l43 0 -20 57 c-10 31
-19 60 -19 65 0 4 37 8 83 8 117 0 123 3 119 50 l-4 39 -131 51 c-73 28 -139
54 -148 58 -9 4 -49 37 -89 73 l-72 67 17 163 c9 90 18 170 20 176 8 24 71
-25 99 -77 35 -65 69 -96 130 -125 l50 -22 38 59 38 58 -21 93 c-12 50 -30
106 -40 122 -10 17 -62 73 -116 127 l-98 96 -150 41 c-82 23 -159 45 -170 50
-31 13 -189 210 -173 215 7 3 38 12 68 20 30 9 80 33 110 53 54 37 55 39 52
81 -4 56 40 132 77 132 20 0 23 4 18 27 -3 18 4 44 19 75 l24 47 83 -28 c68
-24 90 -28 130 -22 26 4 50 11 54 15 14 14 -40 99 -140 223 -144 178 -184 215
-307 277 -97 50 -111 54 -195 59 -80 6 -95 4 -138 -16z"/>
</g>
</svg>
