<?xml version="1.0" standalone="no"?>
<!DOCTYPE svg PUBLIC "-//W3C//DTD SVG 20010904//EN"
 "http://www.w3.org/TR/2001/REC-SVG-20010904/DTD/svg10.dtd">
<svg version="1.0" xmlns="http://www.w3.org/2000/svg"
 width="109.000000pt" height="190.000000pt" viewBox="0 0 109.000000 190.000000"
 preserveAspectRatio="xMidYMid meet">
<metadata>
Created by potrace 1.14, written by Peter Selinger 2001-2017
</metadata>
<g transform="translate(0.000000,190.000000) scale(0.100000,-0.100000)"
fill="#000000" stroke="none">
<path fill="#000000" stroke="none" d="M450 1817 c-54 -99 -95 -138 -207 -197
l-85 -45 -79 -205 -79 -205 32 -92 c32 -90 32 -92 15 -127 -13 -29 -17 -64
-17 -159 0 -106 5 -145 36 -278 35 -154 64 -301 64 -329 0 -9 -22 -33 -50 -53
-27 -21 -50 -41 -50 -45 0 -9 160 -82 181 -82 9 0 45 23 79 50 l63 50 1 253 1
252 45 75 c41 67 52 78 112 110 l66 34 84 -20 83 -20 22 -56 23 -57 -18 -248
-19 -248 31 -27 c79 -70 94 -76 204 -80 100 -4 103 -3 96 17 -4 11 -10 196
-13 410 -6 377 -7 391 -28 431 -21 40 -21 44 -8 127 10 63 11 103 5 144 -6 32
-10 106 -10 165 l0 107 -102 71 c-73 51 -123 77 -175 93 l-73 22 0 46 c0 25
-3 80 -6 122 l-7 77 -86 0 -86 0 -45 -83z"/>
</g>
</svg>
