<?xml version="1.0" standalone="no"?>
<!DOCTYPE svg PUBLIC "-//W3C//DTD SVG 20010904//EN"
 "http://www.w3.org/TR/2001/REC-SVG-20010904/DTD/svg10.dtd">
<svg version="1.0" xmlns="http://www.w3.org/2000/svg"
 width="44.000000pt" height="71.000000pt" viewBox="0 0 44.000000 71.000000"
 preserveAspectRatio="xMidYMid meet">
<metadata>
Created by potrace 1.14, written by Peter Selinger 2001-2017
</metadata>
<g transform="translate(0.000000,71.000000) scale(0.100000,-0.100000)"
fill="#000000" stroke="none">
<path fill="#000000" stroke="none" d="M158 652 l-68 -57 0 -76 c0 -69 -5 -87
-46 -179 l-45 -103 6 -101 c10 -147 5 -140 80 -132 35 4 110 17 167 29 69 15
116 20 143 16 22 -4 41 -6 41 -5 1 0 -25 64 -57 141 -52 123 -60 150 -68 235
-7 74 -17 116 -47 192 l-39 97 -67 -57z"/>
</g>
</svg>
