<?xml version="1.0" standalone="no"?>
<!DOCTYPE svg PUBLIC "-//W3C//DTD SVG 20010904//EN"
 "http://www.w3.org/TR/2001/REC-SVG-20010904/DTD/svg10.dtd">
<svg version="1.0" xmlns="http://www.w3.org/2000/svg"
 width="60.000000pt" height="101.000000pt" viewBox="0 0 60.000000 101.000000"
 preserveAspectRatio="xMidYMid meet">
<metadata>
Created by potrace 1.14, written by Peter Selinger 2001-2017
</metadata>
<g transform="translate(0.000000,101.000000) scale(0.100000,-0.100000)"
fill="#000000" stroke="none">
<path fill="#000000" stroke="none" d="M150 1003 c-33 -6 -48 -19 -82 -72 -42
-67 -35 -154 15 -193 l22 -17 -42 -18 c-27 -11 -47 -28 -54 -45 -10 -24 -6
-33 30 -87 57 -83 126 -269 158 -423 20 -99 31 -132 45 -139 12 -7 24 -7 31
-1 7 5 47 13 90 17 72 6 78 9 92 35 8 16 15 42 15 59 0 28 21 61 39 61 5 0 27
-6 49 -14 l40 -15 -18 53 c-9 28 -27 70 -38 92 -11 23 -28 81 -37 130 -9 49
-21 93 -26 98 -5 6 -9 21 -9 35 0 15 -21 58 -46 96 -26 39 -53 95 -61 125 -7
30 -20 62 -28 70 -8 9 -15 23 -15 31 0 8 -9 32 -19 55 -14 31 -28 45 -60 57
-42 17 -47 18 -91 10z"/>
</g>
</svg>
