<?xml version="1.0" standalone="no"?>
<!DOCTYPE svg PUBLIC "-//W3C//DTD SVG 20010904//EN"
 "http://www.w3.org/TR/2001/REC-SVG-20010904/DTD/svg10.dtd">
<svg version="1.0" xmlns="http://www.w3.org/2000/svg"
 width="87.000000pt" height="149.000000pt" viewBox="0 0 87.000000 149.000000"
 preserveAspectRatio="xMidYMid meet">
<metadata>
Created by potrace 1.14, written by Peter Selinger 2001-2017
</metadata>
<g transform="translate(0.000000,149.000000) scale(0.100000,-0.100000)"
fill="#000000" stroke="none">
<path fill="#000000" stroke="none" d="M38 1483 c-21 -5 -28 -25 -35 -98 -4
-52 -2 -65 19 -95 14 -21 37 -39 56 -45 32 -9 32 -10 32 -71 0 -35 5 -66 10
-69 6 -3 10 -15 10 -27 0 -11 6 -34 13 -51 19 -44 35 -95 42 -139 4 -21 13
-42 21 -49 8 -6 14 -19 14 -29 0 -10 7 -23 15 -30 8 -7 15 -17 15 -22 0 -15
61 -138 72 -144 4 -3 8 -13 8 -23 0 -10 9 -26 20 -36 11 -10 20 -23 21 -29 0
-6 20 -38 45 -71 24 -33 48 -69 53 -80 5 -12 16 -27 25 -34 9 -7 16 -18 16
-23 0 -11 42 -72 52 -76 5 -2 8 -8 8 -14 0 -5 20 -35 45 -66 25 -31 53 -67 63
-80 46 -62 114 -92 163 -72 16 7 29 15 29 19 0 3 -16 26 -35 51 -20 25 -43 55
-53 68 -9 13 -25 31 -34 40 -10 9 -18 20 -18 25 0 6 -50 75 -90 124 -6 7 -10
16 -10 21 0 5 -9 17 -20 27 -11 10 -20 22 -20 26 0 5 -19 36 -42 69 -24 33
-48 68 -53 78 -6 9 -22 35 -36 57 -14 22 -36 64 -49 93 -14 28 -28 52 -32 52
-5 0 -8 6 -8 14 0 7 -11 34 -25 60 -14 26 -36 82 -49 124 -68 217 -68 218 -51
362 5 36 9 88 9 115 l1 50 -100 2 c-55 0 -107 -1 -117 -4z"/>
</g>
</svg>
