<?xml version="1.0" standalone="no"?>
<!DOCTYPE svg PUBLIC "-//W3C//DTD SVG 20010904//EN"
 "http://www.w3.org/TR/2001/REC-SVG-20010904/DTD/svg10.dtd">
<svg version="1.0" xmlns="http://www.w3.org/2000/svg"
 width="14.000000pt" height="25.000000pt" viewBox="0 0 14.000000 25.000000"
 preserveAspectRatio="xMidYMid meet">
<metadata>
Created by potrace 1.14, written by Peter Selinger 2001-2017
</metadata>
<g transform="translate(0.000000,25.000000) scale(0.100000,-0.100000)"
fill="#000000" stroke="none">
<path fill="#000000" stroke="none" d="M35 234 c-8 -9 -15 -25 -15 -38 0 -12
-5 -27 -12 -34 -9 -9 -6 -12 15 -12 27 0 27 0 20 -60 -5 -56 -4 -60 18 -68 68
-26 66 -27 73 34 6 50 4 60 -17 88 -14 17 -27 45 -31 63 -8 37 -29 48 -51 27z"/>
</g>
</svg>
