<?xml version="1.0" standalone="no"?>
<!DOCTYPE svg PUBLIC "-//W3C//DTD SVG 20010904//EN"
 "http://www.w3.org/TR/2001/REC-SVG-20010904/DTD/svg10.dtd">
<svg version="1.0" xmlns="http://www.w3.org/2000/svg"
 width="64.000000pt" height="110.000000pt" viewBox="0 0 64.000000 110.000000"
 preserveAspectRatio="xMidYMid meet">
<metadata>
Created by potrace 1.14, written by Peter Selinger 2001-2017
</metadata>
<g transform="translate(0.000000,110.000000) scale(0.100000,-0.100000)"
fill="#000000" stroke="none">
<path fill="#000000" stroke="none" d="M136 1078 l-28 -24 27 -74 c16 -41 30
-103 32 -136 l5 -61 -44 -7 c-27 -4 -58 -1 -83 8 -40 14 -40 14 -43 -11 -7
-50 0 -53 113 -53 l105 0 0 -77 c0 -74 -3 -83 -50 -172 l-50 -94 0 -142 0
-143 -36 -31 c-19 -17 -32 -35 -29 -40 8 -15 56 -20 103 -13 l43 7 5 138 c4
122 7 145 29 188 18 35 37 54 65 69 21 11 41 20 44 20 2 0 14 -30 26 -66 17
-49 43 -93 101 -167 46 -59 79 -111 79 -124 0 -29 6 -29 51 3 l38 26 -26 46
c-42 75 -69 116 -87 131 -9 7 -16 22 -16 32 0 11 -4 19 -10 19 -5 0 -8 33 -7
77 3 107 -12 230 -29 248 -19 18 -48 98 -32 89 6 -4 8 -1 5 7 -3 8 -16 46 -28
84 -25 79 -41 102 -85 121 -25 11 -33 21 -37 52 -13 76 -98 116 -151 70z"/>
</g>
</svg>
