<?xml version="1.0" standalone="no"?>
<!DOCTYPE svg PUBLIC "-//W3C//DTD SVG 20010904//EN"
 "http://www.w3.org/TR/2001/REC-SVG-20010904/DTD/svg10.dtd">
<svg version="1.0" xmlns="http://www.w3.org/2000/svg"
 width="33.000000pt" height="57.000000pt" viewBox="0 0 33.000000 57.000000"
 preserveAspectRatio="xMidYMid meet">
<metadata>
Created by potrace 1.14, written by Peter Selinger 2001-2017
</metadata>
<g transform="translate(0.000000,57.000000) scale(0.100000,-0.100000)"
fill="#000000" stroke="none">
<path fill="#000000" stroke="none" d="M63 563 l-31 -4 24 -71 c13 -39 22 -74
19 -78 -3 -4 -18 -10 -35 -13 -38 -8 -39 -35 -7 -127 23 -63 23 -67 7 -103
-10 -21 -22 -43 -29 -50 -18 -18 -13 -47 8 -47 48 0 67 17 80 72 7 33 23 66
42 86 17 19 32 32 33 30 24 -27 76 -170 76 -208 0 -18 7 -30 23 -37 21 -10 26
-8 41 18 17 28 17 37 2 142 -8 62 -18 137 -21 167 -3 30 -13 89 -22 131 -14
71 -17 77 -47 87 -31 12 -95 13 -163 5z"/>
</g>
</svg>
