<?xml version="1.0" standalone="no"?>
<!DOCTYPE svg PUBLIC "-//W3C//DTD SVG 20010904//EN"
 "http://www.w3.org/TR/2001/REC-SVG-20010904/DTD/svg10.dtd">
<svg version="1.0" xmlns="http://www.w3.org/2000/svg"
 width="190.000000pt" height="299.000000pt" viewBox="0 0 190.000000 299.000000"
 preserveAspectRatio="xMidYMid meet">
<metadata>
Created by potrace 1.14, written by Peter Selinger 2001-2017
</metadata>
<g transform="translate(0.000000,299.000000) scale(0.100000,-0.100000)"
fill="#000000" stroke="none">
<path fill="#000000" stroke="none" d="M1285 2983 c-39 -3 -69 -16 -142 -61
l-93 -57 -37 -100 -37 -101 -300 -43 -301 -42 -96 -72 -97 -73 19 -23 19 -23
0 23 c1 23 2 22 31 -11 23 -27 26 -36 14 -38 -44 -9 11 -52 115 -89 50 -18
164 -78 280 -146 l195 -115 36 -115 36 -114 -55 -119 c-63 -138 -242 -576
-265 -649 -9 -27 -19 -79 -22 -115 -7 -63 -12 -71 -124 -233 -64 -93 -194
-264 -289 -380 -94 -115 -170 -212 -167 -215 3 -3 484 38 492 42 1 1 -9 40
-22 87 l-23 86 190 224 c104 123 199 234 211 246 l22 23 90 -63 c79 -56 114
-72 280 -131 110 -39 226 -88 276 -117 l85 -48 28 -123 c15 -68 37 -163 48
-211 l20 -88 99 103 98 103 1 165 0 166 -87 13 -88 12 -198 150 c-187 142
-214 159 -279 173 -26 6 -26 7 -33 121 l-7 115 122 192 122 193 28 160 c23
135 42 200 119 420 108 307 114 329 97 364 -16 32 -46 163 -46 202 0 26 -5 29
-85 54 -78 24 -84 27 -73 44 18 30 -6 95 -64 174 -37 50 -55 67 -71 65 -12 -1
-44 -3 -72 -5z"/>
</g>
</svg>
