<?xml version="1.0" standalone="no"?>
<!DOCTYPE svg PUBLIC "-//W3C//DTD SVG 20010904//EN"
 "http://www.w3.org/TR/2001/REC-SVG-20010904/DTD/svg10.dtd">
<svg version="1.0" xmlns="http://www.w3.org/2000/svg"
 width="174.000000pt" height="298.000000pt" viewBox="0 0 174.000000 298.000000"
 preserveAspectRatio="xMidYMid meet">
<metadata>
Created by potrace 1.14, written by Peter Selinger 2001-2017
</metadata>
<g transform="translate(0.000000,298.000000) scale(0.100000,-0.100000)"
fill="#000000" stroke="none">
<path fill="#000000" stroke="none" d="M818 2903 l-118 -76 0 -151 c0 -128 4
-164 23 -237 l24 -85 -149 -47 c-125 -40 -171 -61 -281 -126 l-132 -79 -71
-101 c-57 -80 -76 -117 -94 -181 l-23 -81 23 -48 c21 -46 25 -50 69 -56 25 -3
54 -8 63 -11 13 -4 19 7 29 53 7 32 26 91 43 132 l31 73 128 64 127 64 0 -154
c0 -117 5 -177 21 -252 17 -83 19 -118 14 -215 l-7 -116 71 -171 71 -171 -45
-113 c-24 -62 -63 -187 -85 -278 -40 -163 -143 -430 -176 -456 -10 -8 7 -19
79 -48 l92 -38 37 43 c40 47 30 48 105 -7 22 -16 26 -14 85 23 l63 39 8 84 c8
84 9 86 66 155 32 39 98 131 148 205 75 114 96 155 133 260 24 69 70 179 102
244 57 113 61 127 84 273 22 136 23 166 15 251 -6 54 -8 106 -6 117 2 11 7 33
10 49 l6 30 24 -42 c21 -38 23 -47 14 -113 -7 -56 -6 -75 4 -81 6 -4 50 -8 97
-8 l85 0 50 88 c71 123 71 124 34 257 l-31 114 -91 83 c-49 46 -147 124 -216
173 -165 120 -166 121 -151 278 6 67 10 178 8 246 l-3 124 -130 44 c-71 24
-137 45 -145 47 -8 2 -68 -30 -132 -71z"/>
</g>
</svg>
