<?xml version="1.0" standalone="no"?>
<!DOCTYPE svg PUBLIC "-//W3C//DTD SVG 20010904//EN"
 "http://www.w3.org/TR/2001/REC-SVG-20010904/DTD/svg10.dtd">
<svg version="1.0" xmlns="http://www.w3.org/2000/svg"
 width="100.000000pt" height="173.000000pt" viewBox="0 0 100.000000 173.000000"
 preserveAspectRatio="xMidYMid meet">
<metadata>
Created by potrace 1.14, written by Peter Selinger 2001-2017
</metadata>
<g transform="translate(0.000000,173.000000) scale(0.100000,-0.100000)"
fill="#000000" stroke="none">
<path fill="#000000" stroke="none" d="M520 1634 c-58 -53 -147 -138 -199
-188 l-93 -91 6 -143 5 -142 -49 -37 c-30 -23 -46 -41 -41 -47 85 -112 91
-124 91 -188 0 -47 9 -89 37 -167 l37 -104 -30 -25 c-118 -100 -171 -167 -243
-309 -33 -67 -41 -93 -41 -138 l0 -55 39 0 c33 0 44 6 70 37 25 30 31 47 31
85 0 27 4 48 9 48 6 0 40 23 78 52 44 34 106 68 183 99 l115 47 21 -47 c46
-100 140 -129 244 -76 l50 25 0 51 c0 76 -31 138 -86 173 l-46 29 34 14 c32
13 34 17 51 98 9 46 44 159 77 251 48 135 66 175 95 204 19 20 35 40 35 45 0
5 -25 46 -56 91 l-56 81 -138 -70 c-78 -40 -151 -70 -167 -70 -15 0 -45 8 -65
17 l-38 16 0 73 0 73 127 90 c69 49 130 92 135 95 11 7 -92 198 -107 198 -5 1
-57 -43 -115 -95z"/>
</g>
</svg>
