<?xml version="1.0" standalone="no"?>
<!DOCTYPE svg PUBLIC "-//W3C//DTD SVG 20010904//EN"
 "http://www.w3.org/TR/2001/REC-SVG-20010904/DTD/svg10.dtd">
<svg version="1.0" xmlns="http://www.w3.org/2000/svg"
 width="131.000000pt" height="228.000000pt" viewBox="0 0 131.000000 228.000000"
 preserveAspectRatio="xMidYMid meet">
<metadata>
Created by potrace 1.14, written by Peter Selinger 2001-2017
</metadata>
<g transform="translate(0.000000,228.000000) scale(0.100000,-0.100000)"
fill="#000000" stroke="none">
<path fill="#000000" stroke="none" d="M421 2273 c-77 -5 -114 -29 -171 -114
-45 -65 -65 -153 -58 -251 4 -56 7 -63 46 -94 22 -19 55 -58 73 -87 17 -28 44
-68 59 -87 15 -19 39 -72 54 -117 15 -45 40 -98 57 -119 35 -44 35 -44 8 -96
-38 -74 -107 -267 -129 -361 -12 -50 -46 -153 -76 -228 -57 -145 -62 -173 -40
-256 8 -29 11 -53 8 -53 -3 0 -22 11 -42 25 -24 16 -57 28 -91 31 l-54 6 40
-36 c22 -19 54 -37 70 -40 70 -12 155 -16 155 -9 0 5 -11 47 -23 93 -24 84
-24 86 -5 120 10 19 18 52 18 73 0 30 5 39 24 47 13 4 33 21 45 36 l21 27 20
-26 21 -26 59 26 c50 21 68 24 115 18 30 -3 55 -11 55 -16 0 -5 21 -55 46
-110 25 -56 49 -127 55 -158 5 -31 11 -68 14 -83 4 -24 -2 -31 -56 -65 -64
-39 -79 -62 -79 -118 0 -31 2 -34 33 -33 17 1 67 -5 109 -13 l77 -13 30 -61
c16 -33 32 -70 36 -83 4 -13 12 -21 18 -19 7 3 32 13 57 22 93 37 101 48 139
196 19 74 47 177 63 229 18 59 40 176 58 313 29 215 29 218 11 270 -43 121
-58 141 -172 222 -66 47 -109 84 -113 98 -3 12 -21 41 -41 64 -19 23 -35 50
-35 60 0 11 16 35 36 54 19 18 59 63 88 99 50 62 54 69 65 150 6 47 11 129 11
182 l0 97 -62 62 c-72 72 -145 109 -273 139 -84 20 -187 23 -374 13z"/>
<path fill="#000000" stroke="none" d="M468 674 c-5 -4 -8 -15 -8 -25 0 -18
-43 -69 -74 -86 -17 -9 -15 -15 31 -84 36 -54 52 -88 57 -124 4 -30 14 -58 27
-70 l21 -20 -7 90 c-4 50 -11 97 -16 106 -13 25 1 59 23 59 11 0 33 -14 50
-30 25 -26 29 -36 24 -63 -21 -110 -21 -114 12 -119 39 -6 52 16 52 85 0 30 7
68 16 85 23 47 10 132 -25 165 -24 23 -81 47 -81 34 0 -3 4 -17 10 -31 9 -24
7 -26 -18 -26 -15 0 -36 -3 -48 -6 -17 -4 -22 1 -30 31 -5 21 -12 34 -16 29z"/>
<path fill="#000000" stroke="none" d="M6 391 c-4 -5 18 -28 48 -51 30 -23 57
-48 60 -56 10 -25 7 -74 -4 -74 -21 0 -8 -17 25 -33 25 -12 62 -17 124 -17 84
0 88 1 101 25 8 14 25 28 39 32 14 3 29 8 34 10 6 4 -22 46 -63 95 -3 5 -4 -8
-2 -28 4 -31 2 -35 -14 -31 -11 3 -53 11 -94 18 -74 12 -120 37 -120 65 0 10
-6 11 -23 5 -25 -10 -48 -1 -83 31 -14 12 -24 16 -28 9z"/>
</g>
</svg>
