<?xml version="1.0" standalone="no"?>
<!DOCTYPE svg PUBLIC "-//W3C//DTD SVG 20010904//EN"
 "http://www.w3.org/TR/2001/REC-SVG-20010904/DTD/svg10.dtd">
<svg version="1.0" xmlns="http://www.w3.org/2000/svg"
 width="243.000000pt" height="425.000000pt" viewBox="0 0 243.000000 425.000000"
 preserveAspectRatio="xMidYMid meet">
<metadata>
Created by potrace 1.14, written by Peter Selinger 2001-2017
</metadata>
<g transform="translate(0.000000,425.000000) scale(0.100000,-0.100000)"
fill="#000000" stroke="none">
<path fill="#000000" stroke="none" d="M1818 4100 l-177 -150 -402 50 c-329
41 -424 57 -523 85 -66 19 -123 35 -127 35 -3 0 -19 -58 -34 -128 l-29 -128
-140 -48 -141 -48 -122 -121 c-68 -67 -119 -124 -115 -128 4 -4 44 -27 90 -52
l82 -46 44 65 43 65 122 -128 121 -128 -64 142 -65 142 59 36 59 36 136 -7
136 -7 49 -73 49 -72 -135 -171 -136 -172 43 -229 43 -230 -65 -68 -65 -67 14
-113 c8 -64 10 -117 6 -121 -5 -5 -88 -29 -183 -55 -96 -26 -176 -48 -178 -50
-3 -3 13 -170 23 -233 l5 -32 42 14 c23 8 65 26 92 39 59 28 144 66 149 66 2
0 9 -13 16 -30 7 -17 17 -30 22 -30 6 0 51 -18 100 -40 98 -43 119 -47 137
-26 11 13 99 43 105 35 1 -2 20 -37 41 -76 l39 -73 -25 -27 c-47 -52 61 37
186 154 66 62 121 110 122 105 1 -4 -17 -322 -41 -707 l-43 -700 -53 -130
c-29 -72 -54 -135 -57 -141 -3 -8 185 -253 236 -307 11 -11 254 -78 260 -71 3
2 58 307 123 677 l118 672 24 539 24 538 -43 93 -43 94 95 113 c53 62 127 150
164 194 l69 81 -28 200 -28 200 168 144 c93 79 180 153 194 165 l25 21 -212
254 c-116 140 -214 255 -218 256 -3 1 -86 -65 -183 -147z"/>
</g>
</svg>
