<?xml version="1.0" standalone="no"?>
<!DOCTYPE svg PUBLIC "-//W3C//DTD SVG 20010904//EN"
 "http://www.w3.org/TR/2001/REC-SVG-20010904/DTD/svg10.dtd">
<svg version="1.0" xmlns="http://www.w3.org/2000/svg"
 width="75.000000pt" height="135.000000pt" viewBox="0 0 75.000000 135.000000"
 preserveAspectRatio="xMidYMid meet">
<metadata>
Created by potrace 1.14, written by Peter Selinger 2001-2017
</metadata>
<g transform="translate(0.000000,135.000000) scale(0.100000,-0.100000)"
fill="#000000" stroke="none">
<path fill="#000000" stroke="none" d="M132 1342 c-47 -7 -56 -100 -18 -178
44 -87 49 -107 56 -209 4 -55 13 -159 20 -232 11 -121 10 -142 -8 -240 -11
-59 -23 -148 -27 -197 -3 -50 -11 -99 -17 -110 -16 -32 -60 -65 -96 -72 -40
-8 -46 -17 -24 -36 15 -13 169 -45 176 -36 2 1 20 101 40 221 33 192 41 225
69 271 27 45 35 52 53 46 22 -9 62 -66 84 -120 8 -19 43 -68 79 -109 75 -86
88 -125 68 -204 -10 -39 -11 -62 -3 -94 l11 -41 77 46 76 46 -17 35 c-10 20
-31 70 -46 111 -16 41 -49 109 -75 150 -71 115 -86 155 -70 184 8 16 10 38 6
63 -13 69 -65 228 -114 347 -44 106 -56 124 -120 190 -57 58 -72 79 -72 103 0
47 -45 74 -108 65z"/>
</g>
</svg>
