<?xml version="1.0" standalone="no"?>
<!DOCTYPE svg PUBLIC "-//W3C//DTD SVG 20010904//EN"
 "http://www.w3.org/TR/2001/REC-SVG-20010904/DTD/svg10.dtd">
<svg version="1.0" xmlns="http://www.w3.org/2000/svg"
 width="52.000000pt" height="94.000000pt" viewBox="0 0 52.000000 94.000000"
 preserveAspectRatio="xMidYMid meet">
<metadata>
Created by potrace 1.14, written by Peter Selinger 2001-2017
</metadata>
<g transform="translate(0.000000,94.000000) scale(0.100000,-0.100000)"
fill="#000000" stroke="none">
<path fill="#000000" stroke="none" d="M153 915 c-29 -13 -53 -27 -53 -30 0
-3 7 -20 16 -36 10 -21 13 -40 8 -62 -4 -18 -7 -41 -5 -53 1 -15 -16 -37 -58
-74 l-61 -52 1 -71 c0 -84 20 -201 39 -237 7 -14 23 -37 35 -52 13 -15 53 -77
90 -138 49 -79 71 -107 76 -97 5 8 12 74 16 148 l8 134 125 13 c68 7 126 15
128 16 2 2 -12 55 -31 117 -19 63 -40 140 -47 172 l-13 57 -41 0 c-56 0 -96
48 -96 113 0 36 -5 48 -25 61 -14 9 -29 33 -35 56 -6 22 -14 40 -18 40 -4 0
-31 -11 -59 -25z"/>
<path fill="#ffffff" stroke="none" d="M280 640 c0 -11 -7 -20 -15 -20 -8 0
-19 -9 -25 -21 -11 -20 -12 -20 -25 -3 -12 17 -10 20 15 30 15 7 31 17 34 23
11 16 16 13 16 -9z"/>
</g>
</svg>
