<?xml version="1.0" standalone="no"?>
<!DOCTYPE svg PUBLIC "-//W3C//DTD SVG 20010904//EN"
 "http://www.w3.org/TR/2001/REC-SVG-20010904/DTD/svg10.dtd">
<svg version="1.0" xmlns="http://www.w3.org/2000/svg"
 width="106.000000pt" height="172.000000pt" viewBox="0 0 106.000000 172.000000"
 preserveAspectRatio="xMidYMid meet">
<metadata>
Created by potrace 1.14, written by Peter Selinger 2001-2017
</metadata>
<g transform="translate(0.000000,172.000000) scale(0.100000,-0.100000)"
fill="#000000" stroke="none">
<path fill="#000000" stroke="none" d="M530 1709 c-73 -14 -158 -58 -165 -87
-3 -13 -5 -90 -4 -171 1 -82 -4 -179 -12 -222 l-12 -76 -91 -42 -91 -42 -52
-123 c-51 -121 -53 -130 -77 -323 l-25 -198 92 -213 91 -212 58 57 57 57 52
-12 c29 -7 54 -10 57 -7 16 16 11 112 -12 218 -14 65 -26 148 -26 184 l0 65
83 -73 c45 -40 93 -83 107 -95 25 -22 26 -22 116 -8 86 14 94 14 142 -4 l51
-20 97 86 97 86 -7 96 c-4 52 -17 164 -30 248 l-23 154 -94 94 c-52 52 -115
109 -140 127 l-46 32 5 127 5 127 -54 90 c-59 100 -55 98 -149 80z"/>
</g>
</svg>
