<?xml version="1.0" standalone="no"?>
<!DOCTYPE svg PUBLIC "-//W3C//DTD SVG 20010904//EN"
 "http://www.w3.org/TR/2001/REC-SVG-20010904/DTD/svg10.dtd">
<svg version="1.0" xmlns="http://www.w3.org/2000/svg"
 width="40.000000pt" height="66.000000pt" viewBox="0 0 40.000000 66.000000"
 preserveAspectRatio="xMidYMid meet">
<metadata>
Created by potrace 1.14, written by Peter Selinger 2001-2017
</metadata>
<g transform="translate(0.000000,66.000000) scale(0.100000,-0.100000)"
fill="#000000" stroke="none">
<path fill="#000000" stroke="none" d="M163 625 c-13 -26 -25 -36 -50 -41 -29
-6 -38 -15 -65 -67 -29 -58 -30 -66 -24 -142 4 -59 2 -99 -11 -152 -16 -69
-16 -76 1 -129 12 -39 24 -58 42 -66 13 -6 27 -8 32 -4 4 4 9 48 10 97 3 64 8
89 17 89 15 0 25 -45 25 -117 0 -59 13 -93 35 -93 8 0 17 12 21 28 3 15 15 57
25 94 12 42 22 116 26 199 4 89 10 132 18 136 7 2 38 -2 68 -10 54 -14 55 -14
61 7 10 37 7 42 -48 80 -41 28 -58 48 -71 81 -16 43 -19 45 -56 45 -35 0 -41
-4 -56 -35z"/>
</g>
</svg>
