<?xml version="1.0" standalone="no"?>
<!DOCTYPE svg PUBLIC "-//W3C//DTD SVG 20010904//EN"
 "http://www.w3.org/TR/2001/REC-SVG-20010904/DTD/svg10.dtd">
<svg version="1.0" xmlns="http://www.w3.org/2000/svg"
 width="68.000000pt" height="112.000000pt" viewBox="0 0 68.000000 112.000000"
 preserveAspectRatio="xMidYMid meet">
<metadata>
Created by potrace 1.14, written by Peter Selinger 2001-2017
</metadata>
<g transform="translate(0.000000,112.000000) scale(0.100000,-0.100000)"
fill="#000000" stroke="none">
<path fill="#000000" stroke="none" d="M288 1098 c-50 -76 -60 -111 -56 -182
5 -73 54 -212 84 -237 27 -22 13 -29 -62 -29 -61 0 -89 -6 -147 -30 -102 -43
-109 -49 -96 -91 5 -19 19 -110 30 -204 22 -185 13 -165 110 -271 l47 -50 183
133 c101 74 210 160 242 192 l58 57 -75 162 c-41 89 -85 175 -97 191 -12 16
-48 43 -79 60 l-57 31 -6 82 c-4 46 -7 108 -7 139 0 43 -4 58 -16 63 -28 11
-41 7 -56 -16z"/>
</g>
</svg>
