<?xml version="1.0" standalone="no"?>
<!DOCTYPE svg PUBLIC "-//W3C//DTD SVG 20010904//EN"
 "http://www.w3.org/TR/2001/REC-SVG-20010904/DTD/svg10.dtd">
<svg version="1.0" xmlns="http://www.w3.org/2000/svg"
 width="18.000000pt" height="28.000000pt" viewBox="0 0 18.000000 28.000000"
 preserveAspectRatio="xMidYMid meet">
<metadata>
Created by potrace 1.14, written by Peter Selinger 2001-2017
</metadata>
<g transform="translate(0.000000,28.000000) scale(0.100000,-0.100000)"
fill="#000000" stroke="none">
<path fill="#000000" stroke="none" d="M49 273 c-9 -2 -19 -14 -22 -26 -3 -12
-11 -37 -18 -55 -12 -29 -12 -35 2 -45 8 -7 33 -41 55 -77 36 -60 41 -65 71
-62 26 3 33 9 38 32 5 23 -1 41 -29 85 -20 30 -36 68 -36 83 0 27 -25 73 -38
71 -4 -1 -14 -3 -23 -6z"/>
</g>
</svg>
