<?xml version="1.0" standalone="no"?>
<!DOCTYPE svg PUBLIC "-//W3C//DTD SVG 20010904//EN"
 "http://www.w3.org/TR/2001/REC-SVG-20010904/DTD/svg10.dtd">
<svg version="1.0" xmlns="http://www.w3.org/2000/svg"
 width="22.000000pt" height="39.000000pt" viewBox="0 0 22.000000 39.000000"
 preserveAspectRatio="xMidYMid meet">
<metadata>
Created by potrace 1.14, written by Peter Selinger 2001-2017
</metadata>
<g transform="translate(0.000000,39.000000) scale(0.100000,-0.100000)"
fill="#000000" stroke="none">
<path fill="#000000" stroke="none" d="M50 363 c-16 -20 -20 -37 -17 -59 3
-19 0 -40 -9 -52 -8 -11 -17 -47 -20 -80 -6 -58 -6 -59 24 -71 17 -7 34 -21
37 -30 3 -10 18 -30 34 -45 26 -25 30 -26 45 -11 9 9 16 25 16 36 0 21 12 24
41 8 19 -9 18 -7 -4 38 -14 26 -39 60 -56 76 -36 32 -37 37 -11 60 12 10 20
29 20 46 0 17 4 32 9 35 10 7 3 44 -12 64 -18 23 -74 14 -97 -15z"/>
</g>
</svg>
