<?xml version="1.0" standalone="no"?>
<!DOCTYPE svg PUBLIC "-//W3C//DTD SVG 20010904//EN"
 "http://www.w3.org/TR/2001/REC-SVG-20010904/DTD/svg10.dtd">
<svg version="1.0" xmlns="http://www.w3.org/2000/svg"
 width="88.000000pt" height="144.000000pt" viewBox="0 0 88.000000 144.000000"
 preserveAspectRatio="xMidYMid meet">
<metadata>
Created by potrace 1.14, written by Peter Selinger 2001-2017
</metadata>
<g transform="translate(0.000000,144.000000) scale(0.100000,-0.100000)"
fill="#000000" stroke="none">
<path fill="#000000" stroke="none" d="M360 1408 c-22 -16 -41 -37 -44 -46 -2
-9 -7 -29 -10 -44 -4 -15 -21 -44 -38 -64 l-33 -37 25 -16 c71 -46 88 -91 49
-127 -11 -10 -71 -42 -132 -69 l-112 -50 -26 -70 c-23 -60 -28 -92 -34 -221
-4 -84 -5 -167 -1 -187 6 -31 11 -36 52 -46 37 -10 45 -15 39 -29 -4 -9 -18
-51 -32 -93 -23 -68 -24 -79 -12 -105 20 -41 59 -43 107 -6 l37 30 46 -24 c27
-13 79 -58 125 -108 68 -73 85 -86 120 -91 39 -7 41 -6 82 48 41 53 42 55 28
88 -7 19 -17 44 -20 57 l-7 22 36 -22 c53 -30 118 -27 192 11 92 46 93 49 16
112 -36 30 -77 63 -90 74 -20 16 -23 26 -18 48 6 21 13 27 35 27 30 0 40 15
40 58 0 57 -10 58 -120 16 -56 -21 -104 -44 -107 -51 -3 -7 -30 -24 -61 -38
-53 -24 -59 -25 -83 -11 -24 14 -30 13 -97 -19 -58 -28 -71 -31 -76 -18 -9 22
-8 23 22 23 19 0 39 11 61 34 35 36 57 38 87 5 21 -23 57 -25 74 -4 7 8 23 15
36 15 28 0 31 16 7 42 -11 13 -12 18 -3 18 15 0 201 78 213 90 5 4 -4 70 -19
146 -31 155 -24 145 -138 209 -39 22 -72 48 -74 58 -2 9 8 27 22 39 24 22 27
31 33 140 l6 117 -39 43 c-31 35 -47 44 -82 49 -37 4 -49 1 -82 -23z"/>
<path fill="#ffffff" stroke="none" d="M475 953 c4 -10 9 -65 12 -123 5 -98 4
-106 -16 -124 -21 -19 -21 -19 -42 28 -17 39 -19 59 -14 106 4 38 3 66 -5 80
-6 12 -9 28 -6 36 8 20 62 18 71 -3z"/>
</g>
</svg>
