<?xml version="1.0" standalone="no"?>
<!DOCTYPE svg PUBLIC "-//W3C//DTD SVG 20010904//EN"
 "http://www.w3.org/TR/2001/REC-SVG-20010904/DTD/svg10.dtd">
<svg version="1.0" xmlns="http://www.w3.org/2000/svg"
 width="98.000000pt" height="164.000000pt" viewBox="0 0 98.000000 164.000000"
 preserveAspectRatio="xMidYMid meet">
<metadata>
Created by potrace 1.14, written by Peter Selinger 2001-2017
</metadata>
<g transform="translate(0.000000,164.000000) scale(0.100000,-0.100000)"
fill="#000000" stroke="none">
<path fill="#000000" stroke="none" d="M460 1629 c-19 -6 -42 -17 -51 -25 -31
-28 -48 -166 -28 -234 3 -11 -12 -18 -56 -28 -76 -17 -85 -22 -113 -62 -25
-38 -23 -31 -88 -322 -27 -119 -53 -214 -57 -211 -5 3 -22 -7 -38 -23 -44 -42
-40 -84 12 -126 117 -94 112 -88 105 -137 -4 -26 -10 -70 -13 -98 -3 -29 -12
-58 -19 -64 -17 -14 -18 -42 -2 -85 10 -28 9 -38 -7 -67 -15 -29 -17 -43 -9
-88 7 -45 13 -55 31 -57 21 -3 182 34 192 44 2 2 -4 22 -14 44 -16 35 -17 47
-7 91 7 28 12 81 12 118 0 46 7 85 23 126 21 56 26 60 58 63 65 7 138 -8 169
-35 l30 -25 31 26 c52 44 58 23 52 -174 l-6 -166 39 -16 c72 -29 126 -37 189
-27 83 14 93 25 56 63 -32 35 -77 120 -95 181 -10 33 -8 66 11 195 25 163 24
224 -5 269 -24 37 -54 60 -78 61 -11 0 -29 6 -40 14 -18 13 -19 26 -16 174 3
159 2 160 -23 190 -14 17 -42 41 -61 52 -39 25 -39 37 0 100 26 44 26 147 -1
193 -36 61 -109 88 -183 66z"/>
</g>
</svg>
