<?xml version="1.0" standalone="no"?>
<!DOCTYPE svg PUBLIC "-//W3C//DTD SVG 20010904//EN"
 "http://www.w3.org/TR/2001/REC-SVG-20010904/DTD/svg10.dtd">
<svg version="1.0" xmlns="http://www.w3.org/2000/svg"
 width="26.000000pt" height="45.000000pt" viewBox="0 0 26.000000 45.000000"
 preserveAspectRatio="xMidYMid meet">
<metadata>
Created by potrace 1.14, written by Peter Selinger 2001-2017
</metadata>
<g transform="translate(0.000000,45.000000) scale(0.100000,-0.100000)"
fill="#000000" stroke="none">
<path fill="#000000" stroke="none" d="M5 415 c8 -51 49 -95 88 -95 28 0 29
-1 22 -37 -3 -21 -15 -58 -26 -82 -10 -24 -19 -55 -19 -70 0 -14 -13 -46 -30
-71 -17 -25 -26 -48 -21 -53 18 -18 47 5 79 63 31 56 60 82 48 43 -19 -66 -19
-71 8 -66 15 3 29 10 33 16 8 14 33 146 33 180 0 15 4 27 9 27 5 0 14 -12 19
-27 l10 -28 1 28 c1 44 -26 77 -64 77 -18 0 -38 7 -46 16 -8 10 -21 13 -36 9
-13 -3 -23 -2 -23 2 -1 5 -21 31 -46 58 l-46 50 7 -40z"/>
<path fill="#000000" stroke="none" d="M156 425 c-29 -22 -14 -65 24 -65 37 0
45 14 30 51 -14 32 -26 35 -54 14z"/>
</g>
</svg>
