<?xml version="1.0" standalone="no"?>
<!DOCTYPE svg PUBLIC "-//W3C//DTD SVG 20010904//EN"
 "http://www.w3.org/TR/2001/REC-SVG-20010904/DTD/svg10.dtd">
<svg version="1.0" xmlns="http://www.w3.org/2000/svg"
 width="29.000000pt" height="45.000000pt" viewBox="0 0 29.000000 45.000000"
 preserveAspectRatio="xMidYMid meet">
<metadata>
Created by potrace 1.14, written by Peter Selinger 2001-2017
</metadata>
<g transform="translate(0.000000,45.000000) scale(0.100000,-0.100000)"
fill="#000000" stroke="none">
<path fill="#000000" stroke="none" d="M110 429 c-7 -11 -13 -53 -15 -92 -2
-40 -8 -85 -14 -100 -6 -16 -11 -47 -11 -71 0 -36 -5 -47 -35 -73 -19 -17 -35
-36 -35 -42 0 -16 35 -31 74 -31 38 0 56 19 72 75 8 27 9 25 12 -23 4 -66 28
-82 92 -63 45 13 50 29 19 57 -23 20 -23 27 -3 270 l7 82 -71 16 c-87 20 -79
20 -92 -5z"/>
</g>
</svg>
