<?xml version="1.0" standalone="no"?>
<!DOCTYPE svg PUBLIC "-//W3C//DTD SVG 20010904//EN"
 "http://www.w3.org/TR/2001/REC-SVG-20010904/DTD/svg10.dtd">
<svg version="1.0" xmlns="http://www.w3.org/2000/svg"
 width="90.000000pt" height="159.000000pt" viewBox="0 0 90.000000 159.000000"
 preserveAspectRatio="xMidYMid meet">
<metadata>
Created by potrace 1.14, written by Peter Selinger 2001-2017
</metadata>
<g transform="translate(0.000000,159.000000) scale(0.100000,-0.100000)"
fill="#000000" stroke="none">
<path fill="#000000" stroke="none" d="M408 1512 l-87 -77 -30 -96 -31 -97 25
-158 c14 -88 28 -169 30 -181 4 -16 -30 -60 -154 -199 l-160 -177 233 -160
c198 -137 240 -171 289 -231 32 -39 70 -86 85 -104 l27 -33 70 83 c39 46 76
90 82 98 9 12 9 27 1 57 -9 36 -21 50 -79 92 l-69 51 0 93 0 93 79 23 78 23
36 116 c19 65 43 175 53 246 15 113 16 146 5 280 -22 270 -18 252 -65 276 -33
17 -266 60 -321 59 -5 0 -49 -35 -97 -77z"/>
</g>
</svg>
