<?xml version="1.0" standalone="no"?>
<!DOCTYPE svg PUBLIC "-//W3C//DTD SVG 20010904//EN"
 "http://www.w3.org/TR/2001/REC-SVG-20010904/DTD/svg10.dtd">
<svg version="1.0" xmlns="http://www.w3.org/2000/svg"
 width="50.000000pt" height="80.000000pt" viewBox="0 0 50.000000 80.000000"
 preserveAspectRatio="xMidYMid meet">
<metadata>
Created by potrace 1.14, written by Peter Selinger 2001-2017
</metadata>
<g transform="translate(0.000000,80.000000) scale(0.100000,-0.100000)"
fill="#000000" stroke="none">
<path fill="#000000" stroke="none" d="M262 793 c-75 -6 -92 -35 -92 -158 l0
-91 -46 -44 c-62 -60 -94 -128 -94 -205 -1 -33 -7 -78 -15 -100 -8 -22 -15
-40 -15 -41 0 0 40 -13 89 -29 l90 -28 11 -49 c14 -55 27 -61 43 -18 7 20 17
28 27 25 8 -2 66 -15 128 -28 l112 -24 0 96 c0 86 -3 101 -24 129 -13 18 -40
72 -61 121 -33 80 -41 91 -76 106 -46 21 -48 28 -13 43 36 17 51 64 49 162 -1
86 -21 143 -49 138 -6 -1 -35 -3 -64 -5z"/>
</g>
</svg>
