<?xml version="1.0" standalone="no"?>
<!DOCTYPE svg PUBLIC "-//W3C//DTD SVG 20010904//EN"
 "http://www.w3.org/TR/2001/REC-SVG-20010904/DTD/svg10.dtd">
<svg version="1.0" xmlns="http://www.w3.org/2000/svg"
 width="26.000000pt" height="41.000000pt" viewBox="0 0 26.000000 41.000000"
 preserveAspectRatio="xMidYMid meet">
<metadata>
Created by potrace 1.14, written by Peter Selinger 2001-2017
</metadata>
<g transform="translate(0.000000,41.000000) scale(0.100000,-0.100000)"
fill="#000000" stroke="none">
<path fill="#000000" stroke="none" d="M213 403 c-39 -5 -73 -44 -72 -82 0
-14 6 -42 13 -61 12 -32 11 -38 -13 -70 -14 -19 -33 -39 -41 -44 -39 -23 -100
-98 -100 -122 0 -20 4 -25 16 -20 9 3 17 6 20 6 2 0 19 23 38 52 23 33 52 60
83 77 52 29 60 45 62 131 1 30 10 74 21 98 10 23 16 41 12 40 -4 0 -22 -3 -39
-5z"/>
</g>
</svg>
