<?xml version="1.0" standalone="no"?>
<!DOCTYPE svg PUBLIC "-//W3C//DTD SVG 20010904//EN"
 "http://www.w3.org/TR/2001/REC-SVG-20010904/DTD/svg10.dtd">
<svg version="1.0" xmlns="http://www.w3.org/2000/svg"
 width="34.000000pt" height="54.000000pt" viewBox="0 0 34.000000 54.000000"
 preserveAspectRatio="xMidYMid meet">
<metadata>
Created by potrace 1.14, written by Peter Selinger 2001-2017
</metadata>
<g transform="translate(0.000000,54.000000) scale(0.100000,-0.100000)"
fill="#000000" stroke="none">
<path fill="#000000" stroke="none" d="M121 529 c-30 -5 -57 -12 -60 -15 -3
-3 -7 -39 -9 -79 -4 -65 -7 -76 -29 -90 -24 -16 -24 -18 -20 -128 4 -123 20
-183 52 -191 11 -3 58 -6 105 -6 47 0 103 -5 125 -10 28 -6 42 -6 47 3 14 22
9 240 -7 293 -13 43 -21 52 -64 76 l-49 27 -7 65 c-4 41 -11 66 -18 65 -7 -1
-36 -5 -66 -10z"/>
</g>
</svg>
