<?xml version="1.0" standalone="no"?>
<!DOCTYPE svg PUBLIC "-//W3C//DTD SVG 20010904//EN"
 "http://www.w3.org/TR/2001/REC-SVG-20010904/DTD/svg10.dtd">
<svg version="1.0" xmlns="http://www.w3.org/2000/svg"
 width="71.000000pt" height="116.000000pt" viewBox="0 0 71.000000 116.000000"
 preserveAspectRatio="xMidYMid meet">
<metadata>
Created by potrace 1.14, written by Peter Selinger 2001-2017
</metadata>
<g transform="translate(0.000000,116.000000) scale(0.100000,-0.100000)"
fill="#000000" stroke="none">
<path fill="#000000" stroke="none" d="M275 1141 c-22 -10 -46 -24 -52 -33 -7
-8 -14 -52 -15 -104 -2 -78 0 -94 20 -125 12 -20 22 -40 22 -45 0 -5 -54 -36
-119 -69 l-119 -60 -7 -78 c-4 -43 -6 -80 -4 -81 2 -2 45 -24 96 -50 85 -42
94 -50 126 -103 l33 -58 78 -7 c43 -4 80 -9 81 -10 1 -2 42 -74 91 -162 l89
-158 6 43 c3 24 9 141 13 260 7 237 17 285 72 328 23 18 25 25 19 61 -7 40 -7
40 -84 64 -96 31 -147 60 -166 97 -21 39 -19 55 10 77 l24 19 -18 59 c-29 92
-42 114 -83 135 -46 23 -62 24 -113 0z"/>
<path fill="#ffffff" stroke="none" d="M353 747 c17 -6 16 -9 -4 -36 l-22 -30
28 -95 c27 -91 28 -98 15 -170 -8 -47 -18 -76 -25 -76 -16 0 -19 13 -41 163
-14 95 -15 125 -6 151 7 18 12 42 12 53 0 27 10 54 19 49 3 -1 14 -6 24 -9z"/>
</g>
</svg>
