<?xml version="1.0" standalone="no"?>
<!DOCTYPE svg PUBLIC "-//W3C//DTD SVG 20010904//EN"
 "http://www.w3.org/TR/2001/REC-SVG-20010904/DTD/svg10.dtd">
<svg version="1.0" xmlns="http://www.w3.org/2000/svg"
 width="36.000000pt" height="57.000000pt" viewBox="0 0 36.000000 57.000000"
 preserveAspectRatio="xMidYMid meet">
<metadata>
Created by potrace 1.14, written by Peter Selinger 2001-2017
</metadata>
<g transform="translate(0.000000,57.000000) scale(0.100000,-0.100000)"
fill="#000000" stroke="none">
<path fill="#000000" stroke="none" d="M192 553 c-5 -10 -7 -24 -5 -30 3 -7
-6 -18 -20 -24 -19 -9 -27 -25 -41 -82 -9 -40 -16 -98 -16 -129 0 -51 -5 -65
-51 -138 -67 -108 -66 -106 -29 -129 39 -23 65 -18 50 9 -18 33 -11 57 35 116
25 31 45 66 45 76 0 10 6 18 13 18 7 0 30 -49 54 -117 44 -129 54 -138 103
-103 34 24 40 45 10 37 -48 -13 -100 130 -100 275 0 60 -5 106 -12 118 -10 16
-10 22 6 33 26 19 19 81 -11 85 -13 2 -25 -4 -31 -15z"/>
</g>
</svg>
