<?xml version="1.0" standalone="no"?>
<!DOCTYPE svg PUBLIC "-//W3C//DTD SVG 20010904//EN"
 "http://www.w3.org/TR/2001/REC-SVG-20010904/DTD/svg10.dtd">
<svg version="1.0" xmlns="http://www.w3.org/2000/svg"
 width="61.000000pt" height="107.000000pt" viewBox="0 0 61.000000 107.000000"
 preserveAspectRatio="xMidYMid meet">
<metadata>
Created by potrace 1.14, written by Peter Selinger 2001-2017
</metadata>
<g transform="translate(0.000000,107.000000) scale(0.100000,-0.100000)"
fill="#000000" stroke="none">
<path fill="#000000" stroke="none" d="M460 1048 c-23 -14 -42 -37 -56 -68
-19 -42 -20 -51 -8 -79 9 -20 20 -31 34 -31 19 0 20 -2 5 -35 -8 -20 -39 -79
-69 -133 -30 -53 -69 -135 -86 -181 -31 -81 -32 -85 -16 -118 9 -18 16 -39 16
-47 0 -21 -41 -53 -102 -79 -32 -15 -80 -48 -111 -79 -47 -45 -56 -60 -62
-101 -4 -26 -6 -49 -4 -51 2 -2 30 -6 61 -8 l56 -5 28 66 c33 81 31 78 78 87
l39 7 -7 -39 c-4 -22 -10 -65 -13 -96 l-5 -58 59 0 c69 0 78 6 78 45 0 26 5
31 46 43 l46 15 28 87 c20 64 25 92 18 105 -8 14 -2 37 27 99 21 45 46 107 56
138 17 55 17 60 -1 135 -10 43 -24 88 -32 100 -17 28 -16 72 1 146 12 51 12
65 -2 108 -14 42 -19 49 -41 48 -14 -1 -42 -10 -61 -21z"/>
</g>
</svg>
