<?xml version="1.0" standalone="no"?>
<!DOCTYPE svg PUBLIC "-//W3C//DTD SVG 20010904//EN"
 "http://www.w3.org/TR/2001/REC-SVG-20010904/DTD/svg10.dtd">
<svg version="1.0" xmlns="http://www.w3.org/2000/svg"
 width="236.000000pt" height="400.000000pt" viewBox="0 0 236.000000 400.000000"
 preserveAspectRatio="xMidYMid meet">
<metadata>
Created by potrace 1.14, written by Peter Selinger 2001-2017
</metadata>
<g transform="translate(0.000000,400.000000) scale(0.100000,-0.100000)"
fill="#000000" stroke="none">
<path fill="#000000" stroke="none" d="M608 3979 c-114 -18 -416 -115 -445
-143 -6 -6 -29 -45 -51 -86 -34 -64 -44 -100 -71 -245 -43 -238 -45 -406 -7
-556 27 -103 27 -109 14 -175 l-14 -69 85 -157 85 -157 93 -42 c63 -28 92 -47
89 -55 -3 -8 -73 -121 -155 -252 -83 -132 -153 -246 -157 -255 -3 -8 51 -292
121 -631 l126 -615 141 -268 141 -269 606 4 606 5 265 124 c146 69 268 128
272 132 4 4 -85 44 -198 90 -189 77 -205 86 -199 105 4 12 9 127 12 256 l5
235 -30 100 c-17 55 -42 139 -56 187 l-26 87 -84 46 c-46 25 -85 45 -88 45
-14 0 -16 -92 -3 -141 8 -30 15 -57 15 -60 0 -3 -32 -12 -71 -19 -55 -11 -75
-11 -90 -2 -10 7 -28 12 -38 12 -16 0 -20 8 -23 37 -2 27 -8 39 -21 41 -41 8
-64 -9 -118 -88 -48 -73 -57 -80 -79 -75 -14 4 -25 7 -26 8 0 1 -13 18 -27 38
-17 22 -27 49 -27 70 0 19 -7 59 -15 88 l-14 55 36 44 c42 51 54 57 151 72 71
12 77 16 74 55 0 6 -28 104 -61 218 -34 115 -61 211 -61 213 0 2 18 16 41 31
25 17 50 45 65 76 14 27 61 108 105 179 l80 131 -10 151 c-6 88 -8 289 -4 483
l6 332 -66 129 c-37 72 -67 141 -67 156 0 14 -15 55 -32 91 -31 63 -37 68
-113 110 -68 37 -101 48 -220 70 -77 15 -184 37 -237 51 -53 13 -100 24 -105
23 -4 -1 -61 -10 -125 -20z"/>
</g>
</svg>
