<?xml version="1.0" standalone="no"?>
<!DOCTYPE svg PUBLIC "-//W3C//DTD SVG 20010904//EN"
 "http://www.w3.org/TR/2001/REC-SVG-20010904/DTD/svg10.dtd">
<svg version="1.0" xmlns="http://www.w3.org/2000/svg"
 width="189.000000pt" height="341.000000pt" viewBox="0 0 189.000000 341.000000"
 preserveAspectRatio="xMidYMid meet">
<metadata>
Created by potrace 1.14, written by Peter Selinger 2001-2017
</metadata>
<g transform="translate(0.000000,341.000000) scale(0.100000,-0.100000)"
fill="#000000" stroke="none">
<path fill="#000000" stroke="none" d="M530 3389 c-25 -11 -109 -36 -188 -54
-174 -41 -190 -53 -280 -202 -74 -122 -75 -133 -28 -287 34 -109 94 -399 117
-566 13 -95 28 -125 93 -190 25 -24 46 -49 46 -55 0 -6 -28 -9 -78 -7 l-78 3
9 -93 c10 -111 10 -138 -4 -243 -12 -97 -39 -538 -39 -650 -1 -155 110 -521
215 -708 34 -62 66 -123 70 -137 21 -69 59 -118 113 -144 61 -30 243 -61 304
-52 42 7 250 95 315 135 27 16 63 54 96 100 50 71 56 76 147 119 52 24 117 53
143 63 26 10 61 29 77 41 27 20 30 27 30 78 0 44 -4 61 -20 75 -15 13 -17 21
-9 31 6 7 25 44 44 81 l33 68 113 59 c63 33 116 61 118 62 2 2 -7 21 -21 42
-14 21 -37 60 -51 87 -14 28 -44 70 -65 95 l-40 45 47 10 46 10 6 60 c3 33 16
95 27 137 l22 77 -26 113 c-14 62 -29 115 -33 118 -4 3 -29 23 -55 44 l-46 39
-92 -13 -91 -12 -100 100 -100 100 32 66 c53 112 57 139 39 264 -14 96 -14
119 -2 174 11 48 13 112 8 273 l-6 210 -34 62 c-19 34 -68 105 -110 157 -67
85 -84 100 -158 141 -68 37 -103 49 -192 65 -60 10 -156 22 -214 25 -92 4
-110 3 -150 -16z"/>
</g>
</svg>
