<?xml version="1.0" standalone="no"?>
<!DOCTYPE svg PUBLIC "-//W3C//DTD SVG 20010904//EN"
 "http://www.w3.org/TR/2001/REC-SVG-20010904/DTD/svg10.dtd">
<svg version="1.0" xmlns="http://www.w3.org/2000/svg"
 width="16.000000pt" height="29.000000pt" viewBox="0 0 16.000000 29.000000"
 preserveAspectRatio="xMidYMid meet">
<metadata>
Created by potrace 1.14, written by Peter Selinger 2001-2017
</metadata>
<g transform="translate(0.000000,29.000000) scale(0.100000,-0.100000)"
fill="#000000" stroke="none">
<path fill="#000000" stroke="none" d="M52 273 c-5 -10 -7 -24 -5 -31 3 -7 -4
-23 -16 -36 -16 -17 -22 -40 -27 -107 l-7 -86 48 -6 c77 -11 115 -9 115 7 0 7
-5 37 -10 67 -7 38 -7 63 1 88 11 32 10 36 -13 55 -14 12 -31 31 -37 44 -14
26 -37 29 -49 5z"/>
</g>
</svg>
