<?xml version="1.0" standalone="no"?>
<!DOCTYPE svg PUBLIC "-//W3C//DTD SVG 20010904//EN"
 "http://www.w3.org/TR/2001/REC-SVG-20010904/DTD/svg10.dtd">
<svg version="1.0" xmlns="http://www.w3.org/2000/svg"
 width="25.000000pt" height="42.000000pt" viewBox="0 0 25.000000 42.000000"
 preserveAspectRatio="xMidYMid meet">
<metadata>
Created by potrace 1.14, written by Peter Selinger 2001-2017
</metadata>
<g transform="translate(0.000000,42.000000) scale(0.100000,-0.100000)"
fill="#000000" stroke="none">
<path fill="#000000" stroke="none" d="M85 410 c-11 -4 -36 -24 -55 -44 l-34
-36 21 -113 c12 -64 17 -116 12 -121 -8 -8 131 -95 154 -96 4 0 7 17 7 38 0
24 11 59 30 93 45 82 35 112 -25 73 -24 -15 -25 -15 -34 9 -7 18 -6 48 5 99
15 72 15 73 -6 90 -24 19 -44 22 -75 8z"/>
</g>
</svg>
