<?xml version="1.0" standalone="no"?>
<!DOCTYPE svg PUBLIC "-//W3C//DTD SVG 20010904//EN"
 "http://www.w3.org/TR/2001/REC-SVG-20010904/DTD/svg10.dtd">
<svg version="1.0" xmlns="http://www.w3.org/2000/svg"
 width="15.000000pt" height="27.000000pt" viewBox="0 0 15.000000 27.000000"
 preserveAspectRatio="xMidYMid meet">
<metadata>
Created by potrace 1.14, written by Peter Selinger 2001-2017
</metadata>
<g transform="translate(0.000000,27.000000) scale(0.100000,-0.100000)"
fill="#000000" stroke="none">
<path fill="#000000" stroke="none" d="M75 236 c-16 -22 -30 -55 -34 -88 -5
-29 -15 -72 -23 -95 -17 -47 -11 -54 17 -23 25 27 53 25 65 -5 5 -14 16 -25
25 -25 14 0 14 3 1 23 -8 12 -16 38 -18 57 -3 31 -1 35 20 32 26 -4 27 0 7 38
-9 17 -14 48 -13 71 4 54 -13 60 -47 15z"/>
</g>
</svg>
