<?xml version="1.0" standalone="no"?>
<!DOCTYPE svg PUBLIC "-//W3C//DTD SVG 20010904//EN"
 "http://www.w3.org/TR/2001/REC-SVG-20010904/DTD/svg10.dtd">
<svg version="1.0" xmlns="http://www.w3.org/2000/svg"
 width="21.000000pt" height="33.000000pt" viewBox="0 0 21.000000 33.000000"
 preserveAspectRatio="xMidYMid meet">
<metadata>
Created by potrace 1.14, written by Peter Selinger 2001-2017
</metadata>
<g transform="translate(0.000000,33.000000) scale(0.100000,-0.100000)"
fill="#000000" stroke="none">
<path fill="#000000" stroke="none" d="M7 323 c-21 -21 25 -133 54 -133 11 0
17 -7 16 -18 0 -10 9 -39 22 -64 17 -36 20 -51 12 -66 -17 -32 6 -44 56 -29
31 9 38 15 28 24 -7 6 -15 30 -19 53 -3 23 -19 67 -35 98 -15 31 -34 73 -40
93 -8 24 -20 39 -34 43 -29 8 -52 7 -60 -1z"/>
</g>
</svg>
