<?xml version="1.0" standalone="no"?>
<!DOCTYPE svg PUBLIC "-//W3C//DTD SVG 20010904//EN"
 "http://www.w3.org/TR/2001/REC-SVG-20010904/DTD/svg10.dtd">
<svg version="1.0" xmlns="http://www.w3.org/2000/svg"
 width="12.000000pt" height="20.000000pt" viewBox="0 0 12.000000 20.000000"
 preserveAspectRatio="xMidYMid meet">
<metadata>
Created by potrace 1.14, written by Peter Selinger 2001-2017
</metadata>
<g transform="translate(0.000000,20.000000) scale(0.100000,-0.100000)"
fill="#000000" stroke="none">
<path fill="#000000" stroke="none" d="M40 175 c0 -14 -6 -28 -14 -31 -19 -7
-29 -50 -17 -72 8 -15 12 -12 25 18 17 39 19 28 7 -43 l-8 -48 31 3 c30 3 31
5 28 45 -2 32 1 42 13 45 14 3 13 8 -9 41 -14 21 -26 44 -26 52 0 8 -7 15 -15
15 -9 0 -15 -9 -15 -25z"/>
</g>
</svg>
