<?xml version="1.0" standalone="no"?>
<!DOCTYPE svg PUBLIC "-//W3C//DTD SVG 20010904//EN"
 "http://www.w3.org/TR/2001/REC-SVG-20010904/DTD/svg10.dtd">
<svg version="1.0" xmlns="http://www.w3.org/2000/svg"
 width="35.000000pt" height="62.000000pt" viewBox="0 0 35.000000 62.000000"
 preserveAspectRatio="xMidYMid meet">
<metadata>
Created by potrace 1.14, written by Peter Selinger 2001-2017
</metadata>
<g transform="translate(0.000000,62.000000) scale(0.100000,-0.100000)"
fill="#000000" stroke="none">
<path fill="#000000" stroke="none" d="M125 601 c-52 -24 -125 -110 -125 -148
0 -16 6 -52 14 -79 8 -27 17 -74 21 -104 4 -30 10 -70 15 -87 5 -21 4 -50 -5
-81 -11 -43 -10 -53 4 -76 13 -22 23 -26 61 -26 47 0 159 16 167 24 3 2 10 26
17 53 9 37 17 49 34 51 16 3 22 10 22 29 0 45 -32 137 -60 173 -26 33 -26 37
-12 70 9 23 13 57 10 99 -4 58 -7 66 -39 92 -39 33 -68 35 -124 10z"/>
</g>
</svg>
