<?xml version="1.0" standalone="no"?>
<!DOCTYPE svg PUBLIC "-//W3C//DTD SVG 20010904//EN"
 "http://www.w3.org/TR/2001/REC-SVG-20010904/DTD/svg10.dtd">
<svg version="1.0" xmlns="http://www.w3.org/2000/svg"
 width="18.000000pt" height="28.000000pt" viewBox="0 0 18.000000 28.000000"
 preserveAspectRatio="xMidYMid meet">
<metadata>
Created by potrace 1.14, written by Peter Selinger 2001-2017
</metadata>
<g transform="translate(0.000000,28.000000) scale(0.100000,-0.100000)"
fill="#000000" stroke="none">
<path fill="#000000" stroke="none" d="M155 251 c4 -21 2 -30 -10 -35 -12 -4
-15 -1 -13 17 5 34 -39 37 -48 3 -8 -33 -15 -33 -53 3 -19 17 -31 24 -31 15 0
-7 12 -25 27 -39 26 -23 28 -31 30 -117 2 -50 4 -93 6 -95 2 -2 18 0 36 3 21
5 31 12 30 23 -5 34 13 128 33 173 20 46 19 78 -2 78 -8 0 -9 -11 -5 -29z"/>
</g>
</svg>
