<?xml version="1.0" standalone="no"?>
<!DOCTYPE svg PUBLIC "-//W3C//DTD SVG 20010904//EN"
 "http://www.w3.org/TR/2001/REC-SVG-20010904/DTD/svg10.dtd">
<svg version="1.0" xmlns="http://www.w3.org/2000/svg"
 width="172.000000pt" height="268.000000pt" viewBox="0 0 172.000000 268.000000"
 preserveAspectRatio="xMidYMid meet">
<metadata>
Created by potrace 1.14, written by Peter Selinger 2001-2017
</metadata>
<g transform="translate(0.000000,268.000000) scale(0.100000,-0.100000)"
fill="#000000" stroke="none">
<path fill="#000000" stroke="none" d="M1236 2583 l-136 -94 0 -89 0 -90 62 0
61 0 -22 -24 -23 -24 87 -7 86 -7 89 -133 89 -133 3 -77 3 -76 83 62 c56 41
81 67 77 76 -15 42 -15 72 5 206 l21 145 -67 148 c-36 82 -70 153 -75 159 -5
5 -54 19 -108 31 l-98 21 -137 -94z"/>
<path fill="#000000" stroke="none" d="M635 1804 c-60 -13 -112 -28 -116 -32
-13 -13 -319 -655 -319 -667 0 -7 6 -28 14 -47 14 -33 13 -38 -65 -218 -69
-160 -81 -197 -90 -274 -6 -48 -8 -94 -5 -101 3 -8 1 -28 -4 -47 -9 -31 -50
-410 -46 -415 6 -7 193 22 202 31 6 6 52 115 102 241 73 188 92 246 101 320 7
50 36 186 66 302 43 168 65 233 104 310 46 93 99 249 81 238 -5 -3 -5 6 0 22
5 15 30 98 55 183 25 85 48 161 50 168 6 15 1 15 -130 -14z"/>
</g>
</svg>
