<?xml version="1.0" standalone="no"?>
<!DOCTYPE svg PUBLIC "-//W3C//DTD SVG 20010904//EN"
 "http://www.w3.org/TR/2001/REC-SVG-20010904/DTD/svg10.dtd">
<svg version="1.0" xmlns="http://www.w3.org/2000/svg"
 width="38.000000pt" height="68.000000pt" viewBox="0 0 38.000000 68.000000"
 preserveAspectRatio="xMidYMid meet">
<metadata>
Created by potrace 1.14, written by Peter Selinger 2001-2017
</metadata>
<g transform="translate(0.000000,68.000000) scale(0.100000,-0.100000)"
fill="#000000" stroke="none">
<path fill="#000000" stroke="none" d="M0 353 l0 -330 95 -7 c52 -3 138 -9
190 -12 73 -5 95 -4 95 6 0 28 -92 325 -103 332 -7 4 -26 10 -44 14 -23 4 -40
18 -59 47 -25 37 -28 50 -25 114 3 85 -14 153 -39 153 -10 0 -38 3 -64 6 l-46
7 0 -330z"/>
</g>
</svg>
