<?xml version="1.0" standalone="no"?>
<!DOCTYPE svg PUBLIC "-//W3C//DTD SVG 20010904//EN"
 "http://www.w3.org/TR/2001/REC-SVG-20010904/DTD/svg10.dtd">
<svg version="1.0" xmlns="http://www.w3.org/2000/svg"
 width="14.000000pt" height="22.000000pt" viewBox="0 0 14.000000 22.000000"
 preserveAspectRatio="xMidYMid meet">
<metadata>
Created by potrace 1.14, written by Peter Selinger 2001-2017
</metadata>
<g transform="translate(0.000000,22.000000) scale(0.100000,-0.100000)"
fill="#000000" stroke="none">
<path fill="#000000" stroke="none" d="M52 213 c-9 -3 -11 -16 -6 -39 5 -27 3
-34 -10 -34 -23 0 -36 -32 -36 -91 0 -53 14 -59 23 -9 4 24 4 24 6 -2 1 -26 4
-28 44 -28 24 0 48 5 55 12 19 19 14 82 -8 111 -11 14 -20 36 -20 50 0 19 -21
42 -33 36 -1 0 -8 -3 -15 -6z"/>
</g>
</svg>
