<?xml version="1.0" standalone="no"?>
<!DOCTYPE svg PUBLIC "-//W3C//DTD SVG 20010904//EN"
 "http://www.w3.org/TR/2001/REC-SVG-20010904/DTD/svg10.dtd">
<svg version="1.0" xmlns="http://www.w3.org/2000/svg"
 width="258.000000pt" height="453.000000pt" viewBox="0 0 258.000000 453.000000"
 preserveAspectRatio="xMidYMid meet">
<metadata>
Created by potrace 1.14, written by Peter Selinger 2001-2017
</metadata>
<g transform="translate(0.000000,453.000000) scale(0.100000,-0.100000)"
fill="#000000" stroke="none">
<path fill="#000000" stroke="none" d="M1548 4490 l-208 -35 -265 -199 c-146
-109 -267 -202 -270 -206 -2 -4 -30 -159 -61 -344 l-56 -336 172 -265 c95
-146 171 -267 169 -269 -2 -1 -31 -8 -64 -15 -53 -11 -78 -27 -213 -128 -132
-100 -165 -131 -249 -234 -53 -66 -100 -119 -103 -119 -4 0 -23 45 -44 99 -36
96 -39 99 -80 115 -38 15 -47 15 -96 0 -30 -9 -60 -21 -67 -27 -15 -16 -113
-250 -113 -272 0 -32 338 -1026 354 -1043 3 -2 68 47 146 108 77 62 142 111
144 109 1 -2 24 -159 50 -349 37 -269 53 -425 71 -708 12 -200 24 -364 26
-366 6 -4 1392 14 1397 18 2 2 35 143 74 313 l70 308 -6 677 -6 677 131 -59
131 -59 -6 47 c-3 26 -22 216 -41 422 -20 206 -38 384 -40 396 -4 18 -30 26
-227 71 l-222 50 -29 109 -29 109 173 309 172 310 -28 180 -28 180 -132 176
-132 175 -129 55 -129 56 -207 -36z"/>
</g>
</svg>
