<?xml version="1.0" standalone="no"?>
<!DOCTYPE svg PUBLIC "-//W3C//DTD SVG 20010904//EN"
 "http://www.w3.org/TR/2001/REC-SVG-20010904/DTD/svg10.dtd">
<svg version="1.0" xmlns="http://www.w3.org/2000/svg"
 width="20.000000pt" height="32.000000pt" viewBox="0 0 20.000000 32.000000"
 preserveAspectRatio="xMidYMid meet">
<metadata>
Created by potrace 1.14, written by Peter Selinger 2001-2017
</metadata>
<g transform="translate(0.000000,32.000000) scale(0.100000,-0.100000)"
fill="#000000" stroke="none">
<path fill="#000000" stroke="none" d="M95 300 c-3 -11 -3 -25 0 -31 4 -5 -10
-25 -30 -42 -32 -28 -38 -40 -49 -105 -12 -69 -11 -73 9 -92 27 -26 80 -28
123 -6 30 16 32 16 32 -1 0 -15 2 -16 10 -3 15 23 12 36 -12 48 l-23 11 23 0
c26 1 28 10 7 37 -8 10 -19 36 -25 56 -9 32 -7 44 10 78 12 23 16 40 9 40 -6
0 -17 7 -25 15 -22 21 -52 19 -59 -5z"/>
</g>
</svg>
