<?xml version="1.0" standalone="no"?>
<!DOCTYPE svg PUBLIC "-//W3C//DTD SVG 20010904//EN"
 "http://www.w3.org/TR/2001/REC-SVG-20010904/DTD/svg10.dtd">
<svg version="1.0" xmlns="http://www.w3.org/2000/svg"
 width="286.000000pt" height="472.000000pt" viewBox="0 0 286.000000 472.000000"
 preserveAspectRatio="xMidYMid meet">
<metadata>
Created by potrace 1.14, written by Peter Selinger 2001-2017
</metadata>
<g transform="translate(0.000000,472.000000) scale(0.100000,-0.100000)"
fill="#000000" stroke="none">
<path fill="#000000" stroke="none" d="M1665 4695 c-93 -13 -262 -34 -375 -46
l-205 -22 -128 -55 -128 -55 -90 -131 -90 -131 7 -265 c3 -146 12 -318 19
-383 l14 -117 52 -73 c46 -62 63 -99 119 -264 37 -106 62 -193 56 -193 -14 0
-571 -62 -573 -64 -1 -1 -333 -716 -340 -732 -2 -6 39 -103 92 -215 l96 -204
29 -240 c23 -189 44 -305 98 -545 l70 -305 5 -308 c3 -170 7 -311 10 -314 7
-6 2435 -39 2440 -32 3 2 7 664 11 1472 l6 1467 -82 0 -83 0 -105 84 c-58 46
-141 106 -185 134 l-80 49 -6 359 c-6 333 -8 367 -31 470 l-25 112 -109 149
c-60 82 -149 211 -199 286 -52 79 -96 136 -105 136 -8 -1 -91 -12 -185 -24z"/>
<path fill="#ffffff" stroke="none" d="M1638 1834 c24 -4 32 -10 32 -26 0 -47
-55 -338 -136 -718 -68 -321 -89 -444 -104 -595 -11 -104 -27 -247 -37 -317
-18 -138 -20 -140 -76 -119 -19 8 -26 22 -39 81 -16 70 -15 78 13 268 16 107
28 196 26 198 -2 2 -34 -115 -71 -259 -38 -144 -71 -265 -75 -269 -4 -5 -21 4
-39 20 l-32 27 74 405 c41 223 111 590 155 815 44 226 83 426 87 445 11 64 6
62 101 55 49 -3 103 -8 121 -11z"/>
</g>
</svg>
