<?xml version="1.0" standalone="no"?>
<!DOCTYPE svg PUBLIC "-//W3C//DTD SVG 20010904//EN"
 "http://www.w3.org/TR/2001/REC-SVG-20010904/DTD/svg10.dtd">
<svg version="1.0" xmlns="http://www.w3.org/2000/svg"
 width="153.000000pt" height="259.000000pt" viewBox="0 0 153.000000 259.000000"
 preserveAspectRatio="xMidYMid meet">
<metadata>
Created by potrace 1.14, written by Peter Selinger 2001-2017
</metadata>
<g transform="translate(0.000000,259.000000) scale(0.100000,-0.100000)"
fill="#000000" stroke="none">
<path fill="#000000" stroke="none" d="M438 2514 c-35 -42 -83 -96 -108 -119
-124 -114 -138 -131 -169 -203 -30 -69 -31 -78 -31 -208 0 -191 13 -267 57
-327 l36 -48 -68 -152 c-48 -107 -80 -198 -110 -313 -39 -147 -41 -164 -29
-193 7 -18 34 -101 58 -184 39 -132 46 -172 55 -299 9 -137 13 -153 49 -240
22 -51 42 -106 46 -123 4 -16 12 -47 17 -67 l10 -38 639 0 c352 0 640 4 640 8
0 4 -11 46 -24 92 -23 77 -25 103 -25 280 0 168 3 202 20 248 15 43 19 79 19
194 l0 141 -66 88 c-36 49 -69 89 -72 89 -3 0 -15 -9 -27 -20 -21 -19 -21 -19
-164 5 -127 21 -148 28 -185 57 l-43 32 20 36 c34 58 42 64 141 100 94 34 94
35 120 87 l26 53 -45 0 c-39 0 -45 3 -51 25 -3 14 -3 40 0 58 6 30 1 38 -81
119 l-88 86 -80 13 c-44 6 -81 13 -83 14 -1 1 9 60 22 131 l24 129 -19 160
c-11 88 -23 162 -27 166 -4 3 -31 25 -59 48 -29 24 -88 58 -130 76 -43 18 -95
42 -115 54 l-37 22 -63 -77z"/>
</g>
</svg>
