<?xml version="1.0" standalone="no"?>
<!DOCTYPE svg PUBLIC "-//W3C//DTD SVG 20010904//EN"
 "http://www.w3.org/TR/2001/REC-SVG-20010904/DTD/svg10.dtd">
<svg version="1.0" xmlns="http://www.w3.org/2000/svg"
 width="61.000000pt" height="95.000000pt" viewBox="0 0 61.000000 95.000000"
 preserveAspectRatio="xMidYMid meet">
<metadata>
Created by potrace 1.14, written by Peter Selinger 2001-2017
</metadata>
<g transform="translate(0.000000,95.000000) scale(0.100000,-0.100000)"
fill="#000000" stroke="none">
<path fill="#000000" stroke="none" d="M152 897 c-32 -56 -32 -58 -32 -191 0
-130 -1 -135 -24 -153 -50 -40 -65 -91 -81 -274 -8 -95 -12 -187 -9 -206 l6
-33 228 0 c242 0 290 -4 290 -26 0 -8 9 -14 21 -14 17 0 19 4 13 23 -9 28 -9
36 22 314 l26 231 -43 39 c-54 49 -179 235 -179 267 0 15 -11 33 -27 46 -25
19 -37 22 -100 18 -44 -3 -74 -1 -76 5 -2 6 -18 -15 -35 -46z"/>
</g>
</svg>
