<?xml version="1.0" standalone="no"?>
<!DOCTYPE svg PUBLIC "-//W3C//DTD SVG 20010904//EN"
 "http://www.w3.org/TR/2001/REC-SVG-20010904/DTD/svg10.dtd">
<svg version="1.0" xmlns="http://www.w3.org/2000/svg"
 width="92.000000pt" height="163.000000pt" viewBox="0 0 92.000000 163.000000"
 preserveAspectRatio="xMidYMid meet">
<metadata>
Created by potrace 1.14, written by Peter Selinger 2001-2017
</metadata>
<g transform="translate(0.000000,163.000000) scale(0.100000,-0.100000)"
fill="#000000" stroke="none">
<path fill="#000000" stroke="none" d="M73 1610 c-18 -11 -33 -21 -33 -22 0
-2 -9 -28 -19 -58 -18 -54 -18 -56 2 -115 17 -49 32 -70 83 -118 57 -52 63
-62 63 -95 -2 -69 19 -187 52 -287 30 -95 31 -106 26 -211 -5 -113 -37 -245
-79 -327 -13 -27 -18 -54 -16 -94 l3 -56 138 216 c76 120 142 217 147 217 10
0 20 -25 20 -50 0 -10 -43 -87 -95 -171 -150 -238 -167 -281 -139 -356 16 -41
16 -41 105 -63 50 -13 91 -21 93 -19 2 2 0 30 -5 62 l-10 58 48 54 c43 48 51
54 78 49 41 -8 73 -40 77 -77 l3 -30 74 62 c40 34 93 76 117 93 l44 31 0 67
c0 58 4 73 35 124 19 32 35 67 35 78 0 19 -48 200 -55 207 -2 1 -35 -14 -74
-35 -53 -28 -73 -45 -82 -68 -6 -17 -16 -42 -22 -55 -16 -32 -86 -101 -104
-101 -14 0 -50 73 -59 120 -6 27 35 127 58 141 7 5 29 9 48 10 31 0 43 10 102
78 l67 78 -39 38 c-44 43 -47 54 -26 112 l14 40 -62 49 c-33 27 -90 79 -126
115 -62 63 -68 67 -131 78 -36 6 -75 11 -88 11 -13 0 -25 9 -30 23 -5 12 -24
60 -42 106 -28 72 -37 85 -65 97 -47 20 -93 17 -131 -6z"/>
</g>
</svg>
