<?xml version="1.0" standalone="no"?>
<!DOCTYPE svg PUBLIC "-//W3C//DTD SVG 20010904//EN"
 "http://www.w3.org/TR/2001/REC-SVG-20010904/DTD/svg10.dtd">
<svg version="1.0" xmlns="http://www.w3.org/2000/svg"
 width="270.000000pt" height="422.000000pt" viewBox="0 0 270.000000 422.000000"
 preserveAspectRatio="xMidYMid meet">
<metadata>
Created by potrace 1.14, written by Peter Selinger 2001-2017
</metadata>
<g transform="translate(0.000000,422.000000) scale(0.100000,-0.100000)"
fill="#000000" stroke="none">
<path fill="#000000" stroke="none" d="M1440 4173 c-80 -24 -210 -65 -290 -90
-83 -26 -194 -52 -259 -62 l-114 -16 -33 -105 c-18 -58 -69 -224 -115 -370
l-82 -265 -8 -235 c-4 -129 -17 -325 -28 -435 -12 -110 -21 -203 -21 -206 0
-3 -33 -16 -73 -28 -52 -17 -97 -41 -158 -85 l-84 -63 -55 -134 c-42 -105 -61
-169 -86 -298 l-31 -164 39 -120 c22 -66 69 -179 105 -251 l66 -131 49 -320
50 -319 -68 -226 c-37 -124 -69 -231 -72 -237 -3 -10 239 -13 1191 -13 l1195
0 7 53 c4 28 36 184 70 346 l64 294 -49 351 c-27 193 -57 377 -66 408 -15 50
-16 82 -9 245 13 288 9 389 -16 429 -17 29 -63 67 -115 97 -6 3 -22 -23 -39
-61 -16 -37 -54 -109 -85 -160 -49 -82 -63 -97 -120 -132 -54 -33 -74 -40
-117 -40 l-53 0 -82 -86 c-46 -48 -105 -104 -131 -125 -41 -33 -51 -37 -73
-29 -32 12 -51 3 -126 -64 -35 -30 -84 -91 -125 -154 -68 -105 -83 -116 -109
-76 -14 20 -5 30 158 185 235 224 376 351 426 384 23 15 52 44 64 64 12 20 52
68 89 106 37 39 99 122 139 185 l73 114 -17 49 c-26 72 -11 84 117 93 l97 7 0
37 c0 79 -10 98 -79 156 -36 31 -104 74 -149 95 -78 36 -91 39 -172 39 -86 0
-88 0 -93 26 -5 29 11 98 49 217 15 44 23 85 19 95 -4 9 -9 114 -11 232 l-3
215 -45 132 -45 133 -98 109 c-101 112 -269 252 -300 250 -10 0 -83 -21 -163
-46z"/>
</g>
</svg>
