<?xml version="1.0" standalone="no"?>
<!DOCTYPE svg PUBLIC "-//W3C//DTD SVG 20010904//EN"
 "http://www.w3.org/TR/2001/REC-SVG-20010904/DTD/svg10.dtd">
<svg version="1.0" xmlns="http://www.w3.org/2000/svg"
 width="66.000000pt" height="104.000000pt" viewBox="0 0 66.000000 104.000000"
 preserveAspectRatio="xMidYMid meet">
<metadata>
Created by potrace 1.14, written by Peter Selinger 2001-2017
</metadata>
<g transform="translate(0.000000,104.000000) scale(0.100000,-0.100000)"
fill="#000000" stroke="none">
<path fill="#000000" stroke="none" d="M261 992 c-53 -47 -53 -47 -49 -97 3
-28 11 -65 19 -83 17 -42 10 -54 -68 -112 -83 -61 -113 -124 -113 -236 0 -56
-7 -102 -25 -159 -14 -44 -25 -105 -25 -136 0 -49 3 -58 32 -86 18 -17 47 -34
63 -37 17 -4 39 -16 51 -27 20 -19 21 -19 39 1 11 12 46 37 78 57 l60 36 -6
81 c-4 45 -9 106 -13 136 l-6 55 46 33 46 33 55 -27 c30 -16 71 -44 90 -64 32
-33 36 -43 38 -96 1 -32 -2 -84 -7 -115 l-8 -56 35 -22 c63 -39 67 -34 67 87
0 94 -5 127 -45 276 -24 92 -45 169 -47 170 -2 2 -38 19 -80 38 -78 37 -111
69 -85 85 23 14 47 91 47 148 0 29 5 57 10 60 19 12 9 30 -39 68 -67 50 -92
49 -160 -11z"/>
</g>
</svg>
