<?xml version="1.0" standalone="no"?>
<!DOCTYPE svg PUBLIC "-//W3C//DTD SVG 20010904//EN"
 "http://www.w3.org/TR/2001/REC-SVG-20010904/DTD/svg10.dtd">
<svg version="1.0" xmlns="http://www.w3.org/2000/svg"
 width="148.000000pt" height="246.000000pt" viewBox="0 0 148.000000 246.000000"
 preserveAspectRatio="xMidYMid meet">
<metadata>
Created by potrace 1.14, written by Peter Selinger 2001-2017
</metadata>
<g transform="translate(0.000000,246.000000) scale(0.100000,-0.100000)"
fill="#000000" stroke="none">
<path fill="#000000" stroke="none" d="M0 2445 c0 -6 7 -65 15 -130 8 -66 15
-121 15 -122 0 -2 6 -3 13 -3 6 -1 47 -33 91 -73 78 -73 78 -73 90 -142 19
-117 12 -140 -81 -240 -68 -73 -81 -93 -77 -114 8 -48 154 -1192 154 -1209 0
-11 24 6 68 49 38 38 85 73 109 82 l42 16 183 -65 c177 -64 184 -66 232 -55
27 6 50 10 52 8 2 -1 -75 -101 -170 -222 -110 -140 -168 -221 -160 -223 15 -4
897 27 899 31 0 1 -2 76 -5 168 l-5 165 -75 85 -75 85 -81 17 c-121 25 -159
23 -204 -13 -21 -16 -40 -30 -44 -30 -3 0 10 32 29 72 67 139 49 247 -113 701
-137 380 -262 657 -391 865 -68 110 -94 141 -150 187 -41 33 -95 65 -137 81
-75 28 -224 48 -224 29z"/>
</g>
</svg>
