<?xml version="1.0" standalone="no"?>
<!DOCTYPE svg PUBLIC "-//W3C//DTD SVG 20010904//EN"
 "http://www.w3.org/TR/2001/REC-SVG-20010904/DTD/svg10.dtd">
<svg version="1.0" xmlns="http://www.w3.org/2000/svg"
 width="104.000000pt" height="180.000000pt" viewBox="0 0 104.000000 180.000000"
 preserveAspectRatio="xMidYMid meet">
<metadata>
Created by potrace 1.14, written by Peter Selinger 2001-2017
</metadata>
<g transform="translate(0.000000,180.000000) scale(0.100000,-0.100000)"
fill="#000000" stroke="none">
<path fill="#000000" stroke="none" d="M463 1789 c-23 -30 -84 -189 -89 -235
-6 -44 -2 -56 30 -109 20 -33 36 -65 36 -71 0 -5 -13 -20 -30 -32 -22 -17 -43
-22 -87 -22 -103 0 -145 -24 -239 -136 -75 -90 -81 -101 -69 -119 7 -12 23
-57 35 -100 14 -54 38 -106 72 -157 49 -76 50 -77 42 -135 -3 -32 -19 -91 -34
-130 l-28 -73 40 0 39 0 -7 -180 c-4 -99 -5 -180 -3 -181 2 0 137 -24 299 -53
l295 -52 5 314 5 314 25 20 c169 133 179 143 201 198 29 76 44 193 29 229 -9
23 -20 30 -52 35 -22 4 -65 24 -96 44 -32 21 -75 44 -97 51 -95 31 -109 42
-119 97 -7 45 -5 56 23 112 27 54 31 72 31 143 0 80 0 81 -47 149 -50 72 -56
75 -144 86 -40 5 -58 3 -66 -7z"/>
</g>
</svg>
