<?xml version="1.0" standalone="no"?>
<!DOCTYPE svg PUBLIC "-//W3C//DTD SVG 20010904//EN"
 "http://www.w3.org/TR/2001/REC-SVG-20010904/DTD/svg10.dtd">
<svg version="1.0" xmlns="http://www.w3.org/2000/svg"
 width="106.000000pt" height="176.000000pt" viewBox="0 0 106.000000 176.000000"
 preserveAspectRatio="xMidYMid meet">
<metadata>
Created by potrace 1.14, written by Peter Selinger 2001-2017
</metadata>
<g transform="translate(0.000000,176.000000) scale(0.100000,-0.100000)"
fill="#000000" stroke="none">
<path fill="#000000" stroke="none" d="M710 1735 c-29 -20 -48 -24 -110 -25
l-75 -1 -43 -49 c-42 -48 -62 -92 -62 -135 0 -16 44 -53 168 -142 92 -66 176
-123 188 -127 30 -9 90 -76 102 -114 l11 -33 -42 26 c-23 14 -75 45 -115 68
-40 23 -103 61 -140 84 l-67 42 -5 -52 c-6 -52 -43 -158 -105 -297 -19 -42
-50 -143 -70 -225 l-36 -150 -114 -119 c-108 -114 -114 -119 -139 -108 -24 11
-25 10 -30 -31 -21 -158 -26 -270 -15 -308 7 -22 16 -38 20 -37 25 9 289 274
364 365 89 108 161 168 170 141 2 -7 11 -53 20 -103 9 -49 32 -147 52 -217
l37 -128 45 0 c25 0 76 3 113 7 l68 6 -39 71 -40 71 8 150 7 150 -44 109 -44
110 36 30 c32 28 35 37 42 101 6 68 7 71 62 127 45 46 59 55 73 47 10 -5 36
-9 58 -9 36 0 40 2 33 19 -4 11 -49 67 -100 125 -119 135 -132 170 -132 364
l0 134 -32 44 c-17 24 -34 44 -37 43 -3 0 -22 -11 -41 -24z"/>
</g>
</svg>
