<?xml version="1.0" standalone="no"?>
<!DOCTYPE svg PUBLIC "-//W3C//DTD SVG 20010904//EN"
 "http://www.w3.org/TR/2001/REC-SVG-20010904/DTD/svg10.dtd">
<svg version="1.0" xmlns="http://www.w3.org/2000/svg"
 width="283.000000pt" height="458.000000pt" viewBox="0 0 283.000000 458.000000"
 preserveAspectRatio="xMidYMid meet">
<metadata>
Created by potrace 1.14, written by Peter Selinger 2001-2017
</metadata>
<g transform="translate(0.000000,458.000000) scale(0.100000,-0.100000)"
fill="#000000" stroke="none">
<path fill="#000000" stroke="none" d="M1240 4565 c-14 -7 -43 -17 -64 -21
-40 -6 -153 -52 -234 -93 -38 -19 -42 -25 -42 -59 0 -42 -35 -162 -41 -143 -3
7 -22 -46 -44 -117 l-40 -130 12 -139 c6 -76 12 -177 12 -225 l1 -87 -67 -58
c-41 -35 -152 -106 -280 -178 l-211 -120 -121 -292 -121 -292 0 -492 0 -492
85 -165 85 -165 -56 -331 -56 -331 -9 -315 c-4 -173 -7 -315 -6 -316 4 -4 787
42 790 46 2 3 129 249 281 547 l277 542 21 118 c12 65 23 120 24 121 1 2 78
-6 171 -17 197 -25 242 -19 318 44 74 60 84 80 76 155 -8 74 -22 106 -51 115
-19 6 -74 64 -67 71 2 2 52 -16 111 -41 121 -50 125 -51 167 -30 16 9 107 34
202 56 95 22 212 51 261 66 96 27 90 28 121 -22 9 -14 14 -14 49 -2 l39 13
-99 56 -99 55 -185 6 c-159 5 -196 4 -262 -12 l-77 -18 -38 22 c-21 12 -75 37
-121 56 l-83 34 6 125 c6 108 1 179 -35 525 l-43 400 -93 95 c-76 77 -105 100
-154 119 -33 13 -60 30 -60 37 0 7 33 79 74 161 41 81 91 193 112 248 37 99
38 101 45 295 3 107 10 207 14 223 6 22 -3 44 -51 125 -94 159 -93 158 -141
170 -24 7 -54 12 -66 12 -13 0 -66 13 -117 30 -52 16 -95 30 -95 29 0 0 -11
-6 -25 -14z"/>
</g>
</svg>
