<?xml version="1.0" standalone="no"?>
<!DOCTYPE svg PUBLIC "-//W3C//DTD SVG 20010904//EN"
 "http://www.w3.org/TR/2001/REC-SVG-20010904/DTD/svg10.dtd">
<svg version="1.0" xmlns="http://www.w3.org/2000/svg"
 width="223.000000pt" height="400.000000pt" viewBox="0 0 223.000000 400.000000"
 preserveAspectRatio="xMidYMid meet">
<metadata>
Created by potrace 1.14, written by Peter Selinger 2001-2017
</metadata>
<g transform="translate(0.000000,400.000000) scale(0.100000,-0.100000)"
fill="#000000" stroke="none">
<path fill="#000000" stroke="none" d="M334 3966 c-40 -19 -92 -49 -117 -67
-40 -30 -49 -45 -82 -132 -20 -55 -45 -149 -56 -216 l-20 -117 47 -106 47
-106 121 -86 c67 -48 140 -103 164 -124 l43 -37 -23 -54 c-22 -52 -25 -54
-128 -107 -90 -46 -121 -69 -218 -161 l-112 -108 77 -550 77 -550 77 -118 c69
-105 89 -127 168 -189 80 -62 90 -73 85 -97 -2 -14 -25 -180 -49 -368 -25
-188 -61 -415 -80 -504 -20 -89 -34 -164 -32 -165 6 -7 1810 37 1857 44 l45 7
-32 440 c-29 387 -39 475 -81 725 l-48 285 57 233 57 233 -43 97 c-23 53 -120
257 -215 452 l-172 355 -127 128 -127 128 -190 10 c-104 5 -211 15 -239 22
l-50 12 -27 76 c-18 54 -30 114 -37 201 -10 113 -14 133 -55 226 -24 56 -71
138 -103 183 -52 73 -65 85 -121 110 -57 26 -75 29 -165 29 -94 -1 -107 -3
-173 -34z"/>
</g>
</svg>
