<?xml version="1.0" standalone="no"?>
<!DOCTYPE svg PUBLIC "-//W3C//DTD SVG 20010904//EN"
 "http://www.w3.org/TR/2001/REC-SVG-20010904/DTD/svg10.dtd">
<svg version="1.0" xmlns="http://www.w3.org/2000/svg"
 width="59.000000pt" height="97.000000pt" viewBox="0 0 59.000000 97.000000"
 preserveAspectRatio="xMidYMid meet">
<metadata>
Created by potrace 1.14, written by Peter Selinger 2001-2017
</metadata>
<g transform="translate(0.000000,97.000000) scale(0.100000,-0.100000)"
fill="#000000" stroke="none">
<path fill="#000000" stroke="none" d="M363 939 c-32 -24 -43 -40 -43 -59 0
-38 -32 -66 -82 -74 -53 -8 -99 -51 -183 -171 l-55 -79 0 -128 0 -128 86 61
86 61 59 -58 c54 -53 59 -62 59 -102 0 -31 -11 -62 -40 -116 -22 -40 -40 -76
-40 -79 0 -17 105 -58 162 -63 l63 -7 -50 52 -50 52 68 -25 68 -25 -34 42
c-36 44 -37 56 -22 145 4 23 21 61 40 84 l32 43 -43 76 -44 76 21 69 c15 49
35 85 69 124 78 92 100 130 100 177 0 40 -3 44 -37 58 -21 9 -62 18 -93 21
-50 4 -59 2 -97 -27z"/>
</g>
</svg>
