<?xml version="1.0" standalone="no"?>
<!DOCTYPE svg PUBLIC "-//W3C//DTD SVG 20010904//EN"
 "http://www.w3.org/TR/2001/REC-SVG-20010904/DTD/svg10.dtd">
<svg version="1.0" xmlns="http://www.w3.org/2000/svg"
 width="170.000000pt" height="308.000000pt" viewBox="0 0 170.000000 308.000000"
 preserveAspectRatio="xMidYMid meet">
<metadata>
Created by potrace 1.14, written by Peter Selinger 2001-2017
</metadata>
<g transform="translate(0.000000,308.000000) scale(0.100000,-0.100000)"
fill="#000000" stroke="none">
<path fill="#000000" stroke="none" d="M550 3034 c-17 -39 -20 -69 -20 -195 0
-130 3 -155 20 -189 15 -29 20 -59 20 -117 0 -149 -49 -204 -227 -260 -130
-41 -222 -91 -291 -157 -50 -48 -52 -53 -52 -102 0 -49 2 -54 34 -73 41 -26
46 -26 46 -2 0 10 11 26 25 35 14 9 22 22 19 30 -6 16 69 117 95 128 9 4 66 7
126 8 l110 1 125 58 125 58 8 -61 c9 -68 -9 -46 280 -341 l118 -121 -75 -52
c-79 -55 -78 -54 -91 -160 -6 -44 -23 -77 -112 -215 -58 -89 -129 -198 -158
-243 l-53 -81 140 -181 139 -181 74 -182 c41 -101 75 -187 75 -191 0 -5 -36
-62 -79 -126 l-79 -118 207 24 c113 13 207 25 209 27 2 2 -13 40 -32 85 -20
44 -36 82 -36 84 0 2 32 15 71 31 53 20 69 31 64 42 -10 27 -196 333 -317 522
l-118 184 272 167 272 167 107 115 107 115 -18 94 c-29 151 -48 204 -136 381
l-83 167 -64 35 c-73 41 -119 100 -173 226 -18 41 -55 102 -82 135 -27 33 -82
116 -123 184 -57 97 -84 132 -121 159 -39 27 -48 40 -48 64 0 65 -7 68 -151
68 l-130 0 -19 -46z"/>
</g>
</svg>
