<?xml version="1.0" standalone="no"?>
<!DOCTYPE svg PUBLIC "-//W3C//DTD SVG 20010904//EN"
 "http://www.w3.org/TR/2001/REC-SVG-20010904/DTD/svg10.dtd">
<svg version="1.0" xmlns="http://www.w3.org/2000/svg"
 width="60.000000pt" height="93.000000pt" viewBox="0 0 60.000000 93.000000"
 preserveAspectRatio="xMidYMid meet">
<metadata>
Created by potrace 1.14, written by Peter Selinger 2001-2017
</metadata>
<g transform="translate(0.000000,93.000000) scale(0.100000,-0.100000)"
fill="#000000" stroke="none">
<path fill="#000000" stroke="none" d="M185 919 c-24 -7 -34 -19 -51 -61 -21
-52 -21 -53 -3 -96 l19 -45 -25 -62 c-42 -106 -55 -173 -55 -287 l0 -108 -35
-39 -35 -39 79 -50 c43 -28 90 -64 104 -81 35 -42 114 -53 215 -29 41 9 84 24
97 32 12 8 41 49 64 90 39 71 41 80 41 158 0 66 -6 103 -31 178 -30 91 -35 99
-114 180 -50 51 -94 107 -110 140 -31 62 -91 130 -115 129 -8 0 -28 -5 -45
-10z"/>
</g>
</svg>
