<?xml version="1.0" standalone="no"?>
<!DOCTYPE svg PUBLIC "-//W3C//DTD SVG 20010904//EN"
 "http://www.w3.org/TR/2001/REC-SVG-20010904/DTD/svg10.dtd">
<svg version="1.0" xmlns="http://www.w3.org/2000/svg"
 width="57.000000pt" height="91.000000pt" viewBox="0 0 57.000000 91.000000"
 preserveAspectRatio="xMidYMid meet">
<metadata>
Created by potrace 1.14, written by Peter Selinger 2001-2017
</metadata>
<g transform="translate(0.000000,91.000000) scale(0.100000,-0.100000)"
fill="#000000" stroke="none">
<path fill="#000000" stroke="none" d="M227 892 c-11 -12 -17 -36 -17 -66 0
-30 -9 -64 -26 -97 -37 -74 -42 -139 -15 -178 14 -19 31 -31 45 -31 20 0 23
-7 35 -92 18 -127 45 -157 110 -123 l29 14 21 -58 c16 -43 21 -81 21 -150 0
-91 -4 -102 -30 -79 -8 7 -6 3 4 -9 16 -19 29 -23 79 -23 l60 0 -8 53 c-5 28
-9 113 -10 188 -1 149 1 144 -79 232 -25 29 -26 32 -10 36 36 6 41 21 43 114
1 74 6 97 21 119 11 15 20 41 20 58 0 27 -3 30 -30 30 -23 0 -30 -5 -30 -19 0
-11 -5 -23 -11 -27 -6 -3 -8 -20 -5 -38 4 -20 1 -39 -7 -50 -13 -18 -15 -17
-58 4 -67 34 -72 40 -53 61 24 27 30 94 10 124 -21 31 -84 35 -109 7z"/>
<path fill="#000000" stroke="none" d="M0 180 l0 -180 133 0 133 0 -9 83 c-5
45 -13 84 -17 87 -4 3 -10 22 -14 43 -6 31 -11 37 -32 37 -17 0 -30 9 -42 29
-16 28 -106 81 -137 81 -13 0 -15 -28 -15 -180z"/>
<path fill="#000000" stroke="none" d="M348 273 c7 -3 16 -2 19 1 4 3 -2 6
-13 5 -11 0 -14 -3 -6 -6z"/>
<path fill="#000000" stroke="none" d="M561 54 c0 -11 3 -14 6 -6 3 7 2 16 -1
19 -3 4 -6 -2 -5 -13z"/>
</g>
</svg>
