<?xml version="1.0" standalone="no"?>
<!DOCTYPE svg PUBLIC "-//W3C//DTD SVG 20010904//EN"
 "http://www.w3.org/TR/2001/REC-SVG-20010904/DTD/svg10.dtd">
<svg version="1.0" xmlns="http://www.w3.org/2000/svg"
 width="67.000000pt" height="118.000000pt" viewBox="0 0 67.000000 118.000000"
 preserveAspectRatio="xMidYMid meet">
<metadata>
Created by potrace 1.14, written by Peter Selinger 2001-2017
</metadata>
<g transform="translate(0.000000,118.000000) scale(0.100000,-0.100000)"
fill="#000000" stroke="none">
<path fill="#000000" stroke="none" d="M233 1160 c-34 -20 -38 -36 -33 -127 1
-18 -3 -33 -8 -33 -6 0 -8 -17 -5 -39 5 -38 5 -38 -67 -86 -98 -66 -113 -97
-118 -239 -3 -69 -1 -106 6 -103 5 4 35 -32 66 -78 l56 -85 -22 -87 c-21 -85
-21 -87 -2 -97 32 -18 164 -157 165 -175 0 -12 3 -10 11 7 13 25 49 30 67 8
18 -21 116 87 125 137 10 52 50 71 132 64 l61 -6 -15 47 c-8 26 -23 70 -33 97
-11 28 -19 74 -19 103 0 60 -37 182 -75 247 -14 23 -25 56 -25 73 0 25 -8 36
-44 62 -25 16 -49 30 -54 30 -22 0 -31 28 -25 78 5 42 9 52 24 52 25 0 24 29
-1 89 -34 77 -101 102 -167 61z"/>
<path fill="#ffffff" stroke="none" d="M328 769 c-1 -15 3 -33 10 -42 11 -13
10 -32 -3 -106 -16 -85 -19 -91 -41 -91 -23 0 -24 3 -24 58 0 32 5 84 10 115
7 38 8 63 1 75 -14 27 5 45 31 29 12 -8 18 -21 16 -38z"/>
</g>
</svg>
