<?xml version="1.0" standalone="no"?>
<!DOCTYPE svg PUBLIC "-//W3C//DTD SVG 20010904//EN"
 "http://www.w3.org/TR/2001/REC-SVG-20010904/DTD/svg10.dtd">
<svg version="1.0" xmlns="http://www.w3.org/2000/svg"
 width="60.000000pt" height="109.000000pt" viewBox="0 0 60.000000 109.000000"
 preserveAspectRatio="xMidYMid meet">
<metadata>
Created by potrace 1.14, written by Peter Selinger 2001-2017
</metadata>
<g transform="translate(0.000000,109.000000) scale(0.100000,-0.100000)"
fill="#000000" stroke="none">
<path fill="#000000" stroke="none" d="M293 1076 c-111 -6 -205 -14 -209 -19
-7 -6 -83 -933 -84 -1019 l0 -38 294 0 294 0 7 76 c5 50 1 145 -11 276 -17
187 -20 201 -41 215 -23 15 -23 15 -4 42 15 21 17 35 11 71 -4 25 -12 57 -18
71 -7 17 -7 30 -1 36 14 14 -14 305 -29 301 -4 0 -98 -6 -209 -12z"/>
</g>
</svg>
