<?xml version="1.0" standalone="no"?>
<!DOCTYPE svg PUBLIC "-//W3C//DTD SVG 20010904//EN"
 "http://www.w3.org/TR/2001/REC-SVG-20010904/DTD/svg10.dtd">
<svg version="1.0" xmlns="http://www.w3.org/2000/svg"
 width="85.000000pt" height="131.000000pt" viewBox="0 0 85.000000 131.000000"
 preserveAspectRatio="xMidYMid meet">
<metadata>
Created by potrace 1.14, written by Peter Selinger 2001-2017
</metadata>
<g transform="translate(0.000000,131.000000) scale(0.100000,-0.100000)"
fill="#000000" stroke="none">
<path fill="#000000" stroke="none" d="M233 1288 l-81 -19 -6 -37 c-11 -63 -9
-164 3 -237 7 -38 13 -70 14 -71 1 0 10 -6 21 -11 17 -9 8 -21 -80 -116 l-100
-106 22 -341 c12 -187 23 -343 26 -345 3 -3 103 -2 223 1 l218 7 -8 152 -7
151 179 83 c98 46 182 86 186 90 4 4 -25 75 -65 157 l-73 149 -85 33 -85 33
-37 72 c-34 66 -38 83 -49 203 l-12 130 -51 18 c-28 10 -55 20 -61 21 -5 2
-47 -6 -92 -17z"/>
</g>
</svg>
