<?xml version="1.0" standalone="no"?>
<!DOCTYPE svg PUBLIC "-//W3C//DTD SVG 20010904//EN"
 "http://www.w3.org/TR/2001/REC-SVG-20010904/DTD/svg10.dtd">
<svg version="1.0" xmlns="http://www.w3.org/2000/svg"
 width="130.000000pt" height="236.000000pt" viewBox="0 0 130.000000 236.000000"
 preserveAspectRatio="xMidYMid meet">
<metadata>
Created by potrace 1.14, written by Peter Selinger 2001-2017
</metadata>
<g transform="translate(0.000000,236.000000) scale(0.100000,-0.100000)"
fill="#000000" stroke="none">
<path fill="#000000" stroke="none" d="M505 2341 c-27 -10 -76 -28 -108 -41
l-58 -23 34 -28 c18 -15 42 -46 52 -69 18 -40 18 -43 1 -93 -12 -35 -30 -62
-55 -81 -36 -29 -95 -101 -224 -268 l-67 -86 0 -82 c0 -74 -4 -91 -42 -177
l-41 -94 65 -60 c62 -55 67 -62 73 -111 13 -106 13 -107 58 -118 23 -6 76 -22
117 -35 46 -15 124 -29 200 -35 122 -11 127 -13 210 -59 47 -27 123 -68 170
-92 84 -44 85 -44 48 -47 -28 -2 -38 -9 -47 -30 -27 -68 -50 -186 -56 -287 -6
-108 -9 -120 -60 -227 -12 -23 -10 -30 10 -61 27 -40 119 -102 139 -94 8 3 19
-5 26 -19 8 -13 19 -24 26 -24 11 0 -59 197 -75 210 -3 3 -7 24 -8 48 -2 37 6
57 52 134 30 50 55 96 55 101 0 6 14 32 31 58 49 77 60 135 53 280 l-7 126
-33 18 c-29 16 -32 20 -18 30 14 10 13 13 -9 27 -13 9 -50 23 -82 32 -31 8
-58 16 -60 18 -1 2 -12 22 -24 46 -21 40 -21 45 -6 108 8 36 16 93 16 127 1
34 4 76 8 92 6 29 9 30 56 27 42 -2 54 -7 77 -35 42 -49 76 -112 98 -183 19
-63 19 -64 0 -120 -11 -32 -18 -60 -15 -63 3 -2 34 2 68 10 52 13 69 13 98 3
19 -7 37 -13 42 -13 4 -1 7 35 7 79 0 76 -2 82 -40 141 -25 39 -42 79 -46 108
-5 37 -31 85 -132 240 -124 190 -128 195 -190 229 l-62 34 17 30 c10 16 40 57
67 90 l49 60 -41 37 c-35 30 -45 50 -67 122 l-27 87 -55 11 c-86 17 -210 13
-268 -8z"/>
</g>
</svg>
