<?xml version="1.0" standalone="no"?>
<!DOCTYPE svg PUBLIC "-//W3C//DTD SVG 20010904//EN"
 "http://www.w3.org/TR/2001/REC-SVG-20010904/DTD/svg10.dtd">
<svg version="1.0" xmlns="http://www.w3.org/2000/svg"
 width="272.000000pt" height="489.000000pt" viewBox="0 0 272.000000 489.000000"
 preserveAspectRatio="xMidYMid meet">
<metadata>
Created by potrace 1.14, written by Peter Selinger 2001-2017
</metadata>
<g transform="translate(0.000000,489.000000) scale(0.100000,-0.100000)"
fill="#000000" stroke="none">
<path fill="#000000" stroke="none" d="M1031 4870 c-51 -11 -95 -21 -96 -22
-2 -2 -48 -102 -103 -223 l-100 -220 -16 -155 c-9 -85 -16 -203 -16 -262 l0
-108 -80 -53 -79 -53 39 -65 c22 -35 71 -149 109 -254 l70 -190 15 -187 c21
-244 20 -407 -1 -600 l-17 -156 -34 -16 -34 -16 -141 101 c-78 56 -155 117
-172 135 -29 33 -34 34 -175 54 -80 11 -155 23 -168 26 -42 9 -34 -21 39 -143
l71 -121 69 -27 c46 -19 69 -34 69 -45 0 -8 -11 -74 -25 -145 -14 -72 -39
-265 -55 -430 l-30 -300 42 -137 43 -138 38 3 39 2 150 -277 150 -277 4 -193
c7 -275 6 -270 57 -294 39 -19 53 -20 208 -12 91 5 258 5 370 0 112 -4 206 -7
208 -6 2 2 0 40 -5 86 -5 60 -9 76 -15 58 -4 -14 -7 -22 -8 -19 -37 226 -72
524 -77 652 l-7 164 34 49 34 49 10 -47 c7 -33 21 -59 47 -85 l37 -37 78 23
c43 13 85 25 94 28 23 7 34 -27 73 -220 l34 -169 -33 -136 c-46 -191 -72 -431
-47 -445 4 -3 135 -8 292 -12 l285 -7 142 288 142 289 -9 278 c-11 330 -19
401 -71 572 -71 237 -68 380 8 472 33 39 42 61 52 115 15 90 6 143 -29 168
-16 11 -34 20 -42 20 -25 1 -101 47 -89 54 6 4 8 12 5 18 -4 5 30 45 75 88 81
78 109 122 93 144 -5 6 -14 32 -21 58 l-11 47 43 40 c41 38 45 47 65 138 12
54 31 168 42 253 24 176 30 157 -64 212 l-46 28 0 101 0 102 -56 59 -57 59 7
65 c4 36 16 109 27 162 18 88 19 110 9 242 -10 129 -15 155 -46 230 l-35 86
-68 17 c-37 10 -105 20 -152 24 l-84 6 -62 -52 c-41 -34 -80 -81 -116 -139
-55 -86 -56 -89 -102 -306 -26 -121 -53 -230 -62 -242 -8 -13 -36 -31 -61 -40
-61 -22 -61 -23 -70 -74 l-7 -44 -34 109 c-18 61 -48 148 -66 195 -32 82 -33
92 -39 270 -6 175 -47 550 -66 596 -11 28 -269 184 -301 183 -13 0 -66 -9
-118 -19z"/>
<path fill="#ffffff" stroke="none" d="M1650 3276 c-7 -49 -21 -108 -31 -130
-11 -23 -17 -32 -15 -21 3 11 15 83 28 160 25 149 38 142 18 -9z"/>
<path fill="#ffffff" stroke="none" d="M1515 2776 c-24 -80 -33 -94 -118 -193
l-92 -107 0 -59 0 -59 90 -33 c211 -76 355 -151 355 -184 0 -37 -62 -282 -98
-391 -22 -63 -57 -143 -78 -177 l-40 -62 -38 142 c-21 78 -79 275 -127 439
-72 238 -89 309 -89 360 l0 64 128 176 c70 96 128 174 130 173 2 -2 -9 -42
-23 -89z"/>
<path fill="#ffffff" stroke="none" d="M770 2085 c0 -40 18 -77 158 -323 88
-152 164 -286 170 -297 9 -17 2 -32 -47 -97 l-58 -77 -46 97 c-25 53 -91 216
-146 362 -54 146 -102 273 -106 283 -4 10 -18 17 -34 17 -23 0 -18 5 34 40 33
22 63 40 68 40 4 0 7 -20 7 -45z"/>
<path fill="#ffffff" stroke="none" d="M2308 1975 l53 -25 -96 -115 c-54 -63
-100 -115 -105 -115 -4 0 -17 19 -30 43 l-22 42 42 75 c45 80 77 120 94 120 6
0 35 -11 64 -25z"/>
</g>
</svg>
