<?xml version="1.0" standalone="no"?>
<!DOCTYPE svg PUBLIC "-//W3C//DTD SVG 20010904//EN"
 "http://www.w3.org/TR/2001/REC-SVG-20010904/DTD/svg10.dtd">
<svg version="1.0" xmlns="http://www.w3.org/2000/svg"
 width="71.000000pt" height="119.000000pt" viewBox="0 0 71.000000 119.000000"
 preserveAspectRatio="xMidYMid meet">
<metadata>
Created by potrace 1.14, written by Peter Selinger 2001-2017
</metadata>
<g transform="translate(0.000000,119.000000) scale(0.100000,-0.100000)"
fill="#000000" stroke="none">
<path fill="#000000" stroke="none" d="M284 1169 c-49 -20 -52 -23 -89 -107
-32 -70 -55 -103 -117 -169 -99 -104 -101 -119 -23 -192 55 -53 56 -53 91
-184 19 -73 46 -160 61 -193 24 -60 25 -65 14 -155 -7 -52 -14 -111 -18 -131
-5 -35 -3 -38 18 -38 22 0 99 11 188 26 l34 5 -82 83 -82 83 16 40 c13 34 26
44 83 72 37 18 102 40 146 49 l78 17 18 56 c14 46 15 68 7 117 -9 58 -8 63 20
109 49 80 72 228 57 372 -7 61 -7 61 -58 90 -34 20 -87 36 -162 50 -133 25
-135 25 -200 0z"/>
</g>
</svg>
