<?xml version="1.0" standalone="no"?>
<!DOCTYPE svg PUBLIC "-//W3C//DTD SVG 20010904//EN"
 "http://www.w3.org/TR/2001/REC-SVG-20010904/DTD/svg10.dtd">
<svg version="1.0" xmlns="http://www.w3.org/2000/svg"
 width="16.000000pt" height="27.000000pt" viewBox="0 0 16.000000 27.000000"
 preserveAspectRatio="xMidYMid meet">
<metadata>
Created by potrace 1.14, written by Peter Selinger 2001-2017
</metadata>
<g transform="translate(0.000000,27.000000) scale(0.100000,-0.100000)"
fill="#000000" stroke="none">
<path fill="#000000" stroke="none" d="M36 254 c-3 -9 -6 -23 -6 -32 0 -8 -7
-23 -15 -32 -14 -16 -14 -20 8 -46 14 -16 33 -53 43 -82 19 -54 44 -72 80 -58
26 10 13 50 -16 54 -38 4 -53 34 -35 69 19 35 19 54 0 79 -8 10 -15 29 -15 42
0 26 -34 31 -44 6z"/>
</g>
</svg>
