<?xml version="1.0" standalone="no"?>
<!DOCTYPE svg PUBLIC "-//W3C//DTD SVG 20010904//EN"
 "http://www.w3.org/TR/2001/REC-SVG-20010904/DTD/svg10.dtd">
<svg version="1.0" xmlns="http://www.w3.org/2000/svg"
 width="24.000000pt" height="41.000000pt" viewBox="0 0 24.000000 41.000000"
 preserveAspectRatio="xMidYMid meet">
<metadata>
Created by potrace 1.14, written by Peter Selinger 2001-2017
</metadata>
<g transform="translate(0.000000,41.000000) scale(0.100000,-0.100000)"
fill="#000000" stroke="none">
<path fill="#000000" stroke="none" d="M47 392 c-10 -10 -17 -27 -17 -38 0
-10 -7 -28 -15 -38 -20 -26 -19 -61 2 -97 14 -24 15 -34 5 -62 -30 -84 0 -157
64 -157 20 0 44 5 55 11 19 10 19 10 -1 39 -26 36 -25 40 5 40 23 0 25 4 25
40 0 33 3 40 20 40 12 0 20 -7 20 -17 1 -14 4 -12 15 7 22 39 18 104 -10 159
-39 78 -129 116 -168 73z"/>
</g>
</svg>
