<?xml version="1.0" standalone="no"?>
<!DOCTYPE svg PUBLIC "-//W3C//DTD SVG 20010904//EN"
 "http://www.w3.org/TR/2001/REC-SVG-20010904/DTD/svg10.dtd">
<svg version="1.0" xmlns="http://www.w3.org/2000/svg"
 width="35.000000pt" height="63.000000pt" viewBox="0 0 35.000000 63.000000"
 preserveAspectRatio="xMidYMid meet">
<metadata>
Created by potrace 1.14, written by Peter Selinger 2001-2017
</metadata>
<g transform="translate(0.000000,63.000000) scale(0.100000,-0.100000)"
fill="#000000" stroke="none">
<path fill="#000000" stroke="none" d="M167 623 l-58 -4 7 -44 c5 -40 3 -49
-25 -83 -37 -47 -51 -82 -51 -127 0 -24 -6 -38 -20 -45 -11 -6 -20 -16 -20
-23 1 -26 79 -138 151 -216 75 -81 76 -82 114 -75 l37 7 -6 64 c-6 58 -4 73
25 143 l32 78 -22 65 c-18 55 -20 72 -11 111 9 41 7 51 -17 101 -23 47 -31 55
-53 53 -14 -1 -51 -3 -83 -5z"/>
</g>
</svg>
