<?xml version="1.0" standalone="no"?>
<!DOCTYPE svg PUBLIC "-//W3C//DTD SVG 20010904//EN"
 "http://www.w3.org/TR/2001/REC-SVG-20010904/DTD/svg10.dtd">
<svg version="1.0" xmlns="http://www.w3.org/2000/svg"
 width="159.000000pt" height="280.000000pt" viewBox="0 0 159.000000 280.000000"
 preserveAspectRatio="xMidYMid meet">
<metadata>
Created by potrace 1.14, written by Peter Selinger 2001-2017
</metadata>
<g transform="translate(0.000000,280.000000) scale(0.100000,-0.100000)"
fill="#000000" stroke="none">
<path fill="#000000" stroke="none" d="M973 2780 c-40 -24 -42 -47 -6 -101
l27 -41 -18 -71 c-38 -145 -92 -217 -166 -217 -21 0 -71 -20 -137 -56 -126
-67 -145 -67 -154 -3 -9 63 -54 146 -90 168 -17 10 -53 22 -80 25 -44 6 -53 4
-85 -20 -43 -33 -74 -91 -74 -139 0 -53 37 -133 89 -191 25 -28 54 -65 63 -81
l18 -30 -78 -13 c-42 -6 -97 -18 -121 -26 -25 -8 -71 -14 -104 -14 -52 0 -58
-2 -52 -17 4 -10 9 -26 12 -35 7 -24 74 -46 163 -53 81 -7 93 -12 162 -64 39
-28 53 -49 77 -106 47 -115 70 -194 90 -310 l18 -110 -67 -65 c-37 -36 -102
-109 -144 -162 -42 -53 -80 -100 -86 -103 -5 -3 -10 -27 -10 -52 0 -43 8 -56
124 -212 111 -150 126 -174 149 -252 24 -78 26 -91 16 -148 -11 -59 -14 -64
-60 -94 -42 -27 -49 -37 -49 -64 0 -32 2 -33 39 -33 22 0 87 18 146 39 58 21
114 37 124 34 11 -3 46 12 85 37 l66 42 -31 39 c-17 21 -49 54 -71 73 -40 35
-41 36 -34 85 6 48 5 53 -42 123 -102 151 -204 310 -200 312 1 1 37 17 78 34
41 18 116 57 167 88 82 49 96 54 131 48 38 -6 42 -11 115 -133 61 -100 81
-144 99 -216 19 -77 33 -106 96 -199 67 -100 76 -120 103 -223 16 -63 29 -121
29 -130 0 -8 7 -39 16 -69 11 -40 20 -54 34 -54 10 0 20 -5 22 -11 3 -8 40 1
110 25 l105 38 -9 46 c-13 74 -28 111 -58 145 -36 42 -53 76 -104 210 -50 131
-124 248 -207 327 -57 54 -59 57 -70 130 -11 69 -9 90 18 255 l29 180 -168
337 c-92 186 -168 341 -168 345 0 5 28 40 63 79 35 39 91 115 124 170 66 106
93 190 93 286 0 29 5 66 12 84 15 44 -5 75 -73 108 -61 31 -56 31 -96 6z"/>
</g>
</svg>
