<?xml version="1.0" standalone="no"?>
<!DOCTYPE svg PUBLIC "-//W3C//DTD SVG 20010904//EN"
 "http://www.w3.org/TR/2001/REC-SVG-20010904/DTD/svg10.dtd">
<svg version="1.0" xmlns="http://www.w3.org/2000/svg"
 width="29.000000pt" height="47.000000pt" viewBox="0 0 29.000000 47.000000"
 preserveAspectRatio="xMidYMid meet">
<metadata>
Created by potrace 1.14, written by Peter Selinger 2001-2017
</metadata>
<g transform="translate(0.000000,47.000000) scale(0.100000,-0.100000)"
fill="#000000" stroke="none">
<path fill="#000000" stroke="none" d="M46 444 c-4 -14 -2 -42 5 -62 10 -32 9
-37 -10 -51 -12 -9 -26 -33 -32 -54 -9 -35 -8 -41 20 -75 16 -21 35 -49 41
-63 10 -21 17 -24 51 -21 21 2 50 1 64 -2 25 -6 69 -64 77 -102 4 -16 6 -15
16 9 19 44 14 109 -14 210 -25 90 -27 93 -67 113 -32 15 -45 30 -57 59 -22 58
-28 65 -60 65 -22 0 -29 -6 -34 -26z"/>
</g>
</svg>
