<?xml version="1.0" standalone="no"?>
<!DOCTYPE svg PUBLIC "-//W3C//DTD SVG 20010904//EN"
 "http://www.w3.org/TR/2001/REC-SVG-20010904/DTD/svg10.dtd">
<svg version="1.0" xmlns="http://www.w3.org/2000/svg"
 width="20.000000pt" height="35.000000pt" viewBox="0 0 20.000000 35.000000"
 preserveAspectRatio="xMidYMid meet">
<metadata>
Created by potrace 1.14, written by Peter Selinger 2001-2017
</metadata>
<g transform="translate(0.000000,35.000000) scale(0.100000,-0.100000)"
fill="#000000" stroke="none">
<path fill="#000000" stroke="none" d="M87 343 c-4 -3 -7 -14 -7 -24 0 -10
-18 -42 -40 -71 -22 -29 -40 -55 -40 -58 0 -11 40 -70 47 -70 5 0 14 9 20 19
10 17 9 20 -13 25 -22 6 -33 34 -18 48 6 7 103 -29 122 -44 6 -6 12 -19 12
-30 0 -21 1 -21 -67 -2 -21 6 -23 3 -23 -38 0 -31 7 -54 21 -73 l22 -27 21 33
c11 18 28 74 37 124 15 85 15 95 -1 134 -9 23 -23 47 -31 52 -17 10 -53 12
-62 2z"/>
</g>
</svg>
