<?xml version="1.0" standalone="no"?>
<!DOCTYPE svg PUBLIC "-//W3C//DTD SVG 20010904//EN"
 "http://www.w3.org/TR/2001/REC-SVG-20010904/DTD/svg10.dtd">
<svg version="1.0" xmlns="http://www.w3.org/2000/svg"
 width="266.000000pt" height="436.000000pt" viewBox="0 0 266.000000 436.000000"
 preserveAspectRatio="xMidYMid meet">
<metadata>
Created by potrace 1.14, written by Peter Selinger 2001-2017
</metadata>
<g transform="translate(0.000000,436.000000) scale(0.100000,-0.100000)"
fill="#000000" stroke="none">
<path fill="#000000" stroke="none" d="M2169 4283 l-156 -75 -38 -161 -38
-162 -81 -118 -81 -118 -5 -204 -5 -204 -75 141 -74 141 -53 -113 c-29 -62
-53 -120 -53 -129 0 -9 -9 -24 -19 -33 -28 -24 -48 -95 -34 -117 10 -15 8 -17
-11 -14 -18 4 -26 -4 -45 -45 -23 -49 -23 -53 -12 -179 10 -102 20 -154 54
-257 l42 -128 125 -64 c69 -34 122 -63 118 -63 -4 -1 -76 33 -161 75 l-155 76
-7 102 c-8 121 -38 202 -126 341 -45 73 -66 96 -110 123 -49 30 -59 33 -109
27 -30 -3 -106 -8 -167 -12 -62 -3 -113 -9 -113 -13 0 -4 -10 -10 -23 -14 -13
-3 -67 -28 -121 -57 -83 -44 -102 -59 -132 -103 -50 -75 -56 -149 -19 -236 14
-36 35 -109 45 -163 10 -54 25 -106 32 -115 7 -9 30 -38 50 -63 21 -25 38 -50
38 -55 0 -17 -47 -56 -113 -94 -71 -41 -93 -75 -185 -274 l-54 -120 -6 -227
c-4 -202 -3 -230 13 -260 22 -44 34 -82 46 -149 25 -137 29 -123 -64 -250 -80
-111 -84 -119 -111 -225 -15 -60 -31 -164 -37 -230 -12 -151 -22 -203 -57
-287 -24 -62 -30 -68 -56 -68 -25 0 -28 -3 -22 -22 3 -13 6 -38 6 -55 l0 -33
233 1 234 1 26 44 c14 24 43 97 63 161 20 65 62 187 92 272 l55 153 71 59 c39
33 100 77 135 98 l65 39 61 -85 c99 -136 105 -166 105 -481 l0 -262 219 0 219
0 16 43 c18 48 36 251 36 396 0 56 7 131 17 172 14 63 14 87 5 174 -16 131
-15 181 4 344 12 106 24 159 53 241 21 58 42 122 45 143 l7 37 42 -6 c23 -3
47 -14 52 -23 6 -9 25 -31 44 -49 l35 -34 -73 37 c-41 20 -77 33 -81 28 -10
-11 -110 -545 -104 -555 3 -4 26 -22 51 -39 41 -29 53 -32 107 -30 34 1 69 8
80 14 10 7 42 56 70 109 l52 96 64 -103 c59 -93 69 -104 110 -119 65 -23 116
-21 131 5 6 11 36 94 67 183 38 108 61 161 70 159 6 -3 12 0 12 7 0 7 17 10
46 8 l46 -3 34 93 34 94 -96 105 c-55 62 -162 204 -258 342 -89 130 -165 241
-168 246 -3 6 11 168 32 361 l38 351 151 198 c83 108 151 202 151 208 0 47 34
279 56 395 l28 141 -86 113 -86 113 49 90 49 91 -93 92 c-51 51 -95 92 -97 91
-3 0 -75 -35 -161 -76z"/>
<path fill="#ffffff" stroke="none" d="M1516 2453 c-2 -2 -15 1 -30 7 -15 5
-45 10 -67 10 -44 0 -43 0 -28 34 l12 24 58 -36 c32 -20 57 -38 55 -39z"/>
<path fill="#ffffff" stroke="none" d="M1936 2059 c30 -61 49 -109 42 -107
-12 3 -87 146 -102 196 -16 50 7 16 60 -89z"/>
</g>
</svg>
