<?xml version="1.0" standalone="no"?>
<!DOCTYPE svg PUBLIC "-//W3C//DTD SVG 20010904//EN"
 "http://www.w3.org/TR/2001/REC-SVG-20010904/DTD/svg10.dtd">
<svg version="1.0" xmlns="http://www.w3.org/2000/svg"
 width="169.000000pt" height="264.000000pt" viewBox="0 0 169.000000 264.000000"
 preserveAspectRatio="xMidYMid meet">
<metadata>
Created by potrace 1.14, written by Peter Selinger 2001-2017
</metadata>
<g transform="translate(0.000000,264.000000) scale(0.100000,-0.100000)"
fill="#000000" stroke="none">
<path fill="#000000" stroke="none" d="M272 2580 c-85 -32 -155 -60 -157 -62
-1 -2 -29 -46 -60 -98 l-57 -95 7 -115 c4 -63 7 -115 8 -116 1 0 59 -48 128
-106 69 -58 164 -131 212 -162 47 -31 89 -61 92 -66 4 -6 20 -4 40 4 l34 15
21 -65 c16 -46 31 -72 55 -91 l34 -27 -97 -53 c-53 -29 -176 -94 -273 -143
l-176 -91 -7 -232 c-6 -227 -7 -234 -37 -313 l-31 -82 115 -153 116 -154 47 4
47 3 -22 -36 -23 -36 30 -38 c16 -20 57 -91 90 -157 48 -96 62 -116 68 -100
12 33 113 164 198 259 60 65 128 122 261 219 162 117 197 139 350 207 139 62
283 139 285 152 1 2 11 59 24 128 17 87 21 129 14 138 -8 9 -6 17 5 30 8 9 20
42 25 72 6 30 19 75 30 100 19 44 19 46 0 100 -10 30 -49 109 -87 175 l-68
120 -108 49 -109 48 -78 -32 c-53 -22 -82 -29 -91 -23 -6 6 -68 54 -137 108
-69 54 -126 99 -127 100 -2 0 -14 54 -28 118 -21 96 -37 141 -90 245 l-64 127
-117 85 c-65 47 -122 88 -128 91 -6 4 -80 -19 -164 -51z"/>
</g>
</svg>
