<?xml version="1.0" standalone="no"?>
<!DOCTYPE svg PUBLIC "-//W3C//DTD SVG 20010904//EN"
 "http://www.w3.org/TR/2001/REC-SVG-20010904/DTD/svg10.dtd">
<svg version="1.0" xmlns="http://www.w3.org/2000/svg"
 width="135.000000pt" height="216.000000pt" viewBox="0 0 135.000000 216.000000"
 preserveAspectRatio="xMidYMid meet">
<metadata>
Created by potrace 1.14, written by Peter Selinger 2001-2017
</metadata>
<g transform="translate(0.000000,216.000000) scale(0.100000,-0.100000)"
fill="#000000" stroke="none">
<path fill="#000000" stroke="none" d="M179 2118 l-76 -42 -51 -156 c-29 -86
-52 -162 -52 -169 0 -8 14 -65 31 -127 25 -91 38 -120 63 -146 18 -18 103 -73
189 -123 150 -86 159 -92 226 -175 l69 -86 129 -53 129 -53 21 -75 21 -76 -32
-112 -33 -112 216 -305 c119 -169 217 -305 218 -304 1 1 -27 114 -63 252 -38
144 -78 325 -94 429 -16 99 -28 180 -27 181 1 2 50 -11 109 -27 l107 -30 30
22 c17 12 32 28 35 35 3 8 -12 51 -33 98 -31 67 -48 91 -87 120 -28 22 -50 32
-54 26 -3 -5 -31 20 -61 56 -86 105 -126 132 -239 164 -54 16 -114 32 -134 36
l-36 6 0 186 0 186 -62 151 -62 151 -73 41 c-63 36 -188 74 -237 73 -6 -1 -45
-20 -87 -42z"/>
</g>
</svg>
