<?xml version="1.0" standalone="no"?>
<!DOCTYPE svg PUBLIC "-//W3C//DTD SVG 20010904//EN"
 "http://www.w3.org/TR/2001/REC-SVG-20010904/DTD/svg10.dtd">
<svg version="1.0" xmlns="http://www.w3.org/2000/svg"
 width="25.000000pt" height="45.000000pt" viewBox="0 0 25.000000 45.000000"
 preserveAspectRatio="xMidYMid meet">
<metadata>
Created by potrace 1.14, written by Peter Selinger 2001-2017
</metadata>
<g transform="translate(0.000000,45.000000) scale(0.100000,-0.100000)"
fill="#000000" stroke="none">
<path fill="#000000" stroke="none" d="M66 434 c-3 -9 -6 -31 -6 -50 0 -27 -7
-41 -30 -61 -39 -33 -38 -55 6 -90 31 -25 37 -37 51 -108 18 -93 26 -105 50
-83 12 11 28 14 46 11 31 -6 31 -7 15 -36 -10 -20 -10 -21 6 -8 53 44 55 129
6 236 -21 45 -28 73 -27 112 2 62 -10 78 -69 87 -33 5 -43 2 -48 -10z"/>
</g>
</svg>
