<?xml version="1.0" standalone="no"?>
<!DOCTYPE svg PUBLIC "-//W3C//DTD SVG 20010904//EN"
 "http://www.w3.org/TR/2001/REC-SVG-20010904/DTD/svg10.dtd">
<svg version="1.0" xmlns="http://www.w3.org/2000/svg"
 width="61.000000pt" height="101.000000pt" viewBox="0 0 61.000000 101.000000"
 preserveAspectRatio="xMidYMid meet">
<metadata>
Created by potrace 1.14, written by Peter Selinger 2001-2017
</metadata>
<g transform="translate(0.000000,101.000000) scale(0.100000,-0.100000)"
fill="#000000" stroke="none">
<path fill="#000000" stroke="none" d="M289 972 c-42 -20 -108 -62 -147 -92
-79 -62 -81 -65 -122 -274 l-22 -109 23 -160 23 -159 65 -41 c35 -23 59 -43
53 -45 -7 -2 -6 -17 5 -48 l15 -44 94 0 94 0 30 53 c20 35 58 75 119 125 l89
72 -17 68 -17 67 -107 3 c-114 3 -132 13 -83 46 13 8 40 46 59 84 40 82 53
173 42 309 -8 85 -8 88 -53 135 -24 26 -50 48 -56 47 -6 0 -45 -17 -87 -37z"/>
</g>
</svg>
