<?xml version="1.0" standalone="no"?>
<!DOCTYPE svg PUBLIC "-//W3C//DTD SVG 20010904//EN"
 "http://www.w3.org/TR/2001/REC-SVG-20010904/DTD/svg10.dtd">
<svg version="1.0" xmlns="http://www.w3.org/2000/svg"
 width="173.000000pt" height="283.000000pt" viewBox="0 0 173.000000 283.000000"
 preserveAspectRatio="xMidYMid meet">
<metadata>
Created by potrace 1.14, written by Peter Selinger 2001-2017
</metadata>
<g transform="translate(0.000000,283.000000) scale(0.100000,-0.100000)"
fill="#000000" stroke="none">
<path fill="#000000" stroke="none" d="M1333 2812 c-50 -14 -69 -25 -96 -57
-26 -31 -47 -44 -85 -54 -33 -8 -72 -30 -111 -61 -33 -27 -69 -51 -80 -55 -49
-15 -123 -139 -171 -285 -16 -49 -48 -119 -71 -157 -176 -287 -197 -326 -263
-494 l-70 -175 -193 -69 c-135 -49 -193 -74 -193 -85 0 -8 12 -58 25 -110 42
-161 52 -431 30 -813 l-17 -309 38 -39 c38 -37 41 -38 137 -45 l98 -7 145 74
144 74 -6 40 c-3 22 -8 43 -10 46 -7 12 -146 31 -180 25 -22 -5 -34 -3 -34 4
0 68 73 716 81 725 5 4 519 -143 528 -151 3 -2 -51 -151 -118 -330 -154 -407
-154 -393 0 -448 89 -32 96 -33 134 -19 22 7 75 23 117 34 53 13 96 32 135 60
69 48 79 63 64 95 -6 13 -8 37 -5 54 4 16 3 30 -1 30 -4 0 -45 -30 -92 -66
-46 -36 -87 -64 -89 -61 -3 3 6 42 20 88 14 45 24 85 22 87 -3 2 -13 -1 -24
-7 -12 -6 -25 -11 -31 -11 -16 0 67 173 93 195 18 15 37 63 75 191 28 94 51
175 51 181 0 5 -108 96 -240 203 -132 107 -240 198 -240 204 0 15 84 226 90
226 5 0 80 -69 326 -296 l101 -94 107 39 c59 22 109 41 111 43 18 18 79 178
109 288 l38 135 -74 150 c-65 131 -76 161 -87 240 l-13 91 40 79 c44 88 53
134 77 370 8 83 18 165 21 183 l5 32 -58 0 c-32 0 -87 5 -123 10 -36 6 -78 12
-95 14 -16 2 -58 -3 -92 -12z"/>
</g>
</svg>
