<?xml version="1.0" standalone="no"?>
<!DOCTYPE svg PUBLIC "-//W3C//DTD SVG 20010904//EN"
 "http://www.w3.org/TR/2001/REC-SVG-20010904/DTD/svg10.dtd">
<svg version="1.0" xmlns="http://www.w3.org/2000/svg"
 width="28.000000pt" height="49.000000pt" viewBox="0 0 28.000000 49.000000"
 preserveAspectRatio="xMidYMid meet">
<metadata>
Created by potrace 1.14, written by Peter Selinger 2001-2017
</metadata>
<g transform="translate(0.000000,49.000000) scale(0.100000,-0.100000)"
fill="#000000" stroke="none">
<path fill="#000000" stroke="none" d="M27 472 c-24 -26 -29 -67 -18 -147 5
-41 5 -74 0 -80 -14 -14 -10 -81 5 -94 9 -8 12 -25 10 -49 -3 -20 -1 -41 3
-47 19 -24 74 -55 97 -55 29 0 90 54 101 90 4 13 16 36 26 50 19 25 25 75 15
140 -10 73 -25 125 -35 128 -7 2 -24 17 -39 33 l-27 29 3 -42 c4 -45 -11 -98
-27 -98 -5 0 -16 16 -25 35 -11 23 -24 35 -38 35 -21 0 -21 4 -6 70 5 21 -26
23 -45 2z"/>
</g>
</svg>
