<?xml version="1.0" standalone="no"?>
<!DOCTYPE svg PUBLIC "-//W3C//DTD SVG 20010904//EN"
 "http://www.w3.org/TR/2001/REC-SVG-20010904/DTD/svg10.dtd">
<svg version="1.0" xmlns="http://www.w3.org/2000/svg"
 width="235.000000pt" height="424.000000pt" viewBox="0 0 235.000000 424.000000"
 preserveAspectRatio="xMidYMid meet">
<metadata>
Created by potrace 1.14, written by Peter Selinger 2001-2017
</metadata>
<g transform="translate(0.000000,424.000000) scale(0.100000,-0.100000)"
fill="#000000" stroke="none">
<path fill="#000000" stroke="none" d="M1593 4073 c-61 -92 -128 -205 -148
-249 l-37 -82 -45 -6 c-25 -3 -96 -6 -157 -7 -61 0 -133 -4 -159 -7 l-48 -7
-30 -70 c-16 -38 -43 -108 -59 -153 -17 -46 -44 -116 -62 -155 -17 -40 -41
-111 -53 -159 -21 -81 -28 -93 -97 -175 -154 -183 -158 -191 -259 -504 -50
-156 -96 -293 -102 -304 -6 -11 -84 -136 -174 -278 l-164 -259 3 -264 c3 -222
5 -266 18 -274 22 -14 222 -82 226 -77 3 2 -8 30 -22 61 -18 40 -24 63 -18 75
5 10 69 133 143 274 l134 256 29 -20 c18 -13 120 -44 256 -79 125 -32 349 -94
498 -138 l270 -81 171 -98 171 -98 101 -215 101 -215 1 -220 0 -220 52 -150
52 -150 59 -13 c32 -7 60 -11 63 -9 2 2 -6 44 -18 93 -24 101 -26 66 33 769
l31 380 -20 222 -20 222 -132 138 -132 138 -90 185 c-85 174 -92 193 -120 329
-16 80 -26 148 -22 152 5 4 71 30 148 59 77 28 141 53 142 54 2 1 -10 124 -26
272 -16 148 -32 343 -36 434 l-6 165 78 191 79 191 -80 116 -80 117 -71 0
c-38 0 -113 3 -165 6 l-95 5 -112 -168z"/>
</g>
</svg>
