<?xml version="1.0" standalone="no"?>
<!DOCTYPE svg PUBLIC "-//W3C//DTD SVG 20010904//EN"
 "http://www.w3.org/TR/2001/REC-SVG-20010904/DTD/svg10.dtd">
<svg version="1.0" xmlns="http://www.w3.org/2000/svg"
 width="36.000000pt" height="64.000000pt" viewBox="0 0 36.000000 64.000000"
 preserveAspectRatio="xMidYMid meet">
<metadata>
Created by potrace 1.14, written by Peter Selinger 2001-2017
</metadata>
<g transform="translate(0.000000,64.000000) scale(0.100000,-0.100000)"
fill="#000000" stroke="none">
<path fill="#000000" stroke="none" d="M208 588 c-16 -33 -59 -89 -117 -150
-101 -107 -101 -123 2 -68 31 17 65 30 76 30 28 0 45 -49 32 -96 -11 -39 -4
-53 27 -54 9 0 12 -32 12 -125 0 -105 2 -125 15 -125 21 0 30 24 60 164 18 83
24 132 19 162 -4 32 -2 51 9 68 21 32 12 91 -22 135 -14 19 -31 50 -36 70 -7
25 -17 37 -32 39 -17 3 -26 -7 -45 -50z"/>
</g>
</svg>
