<?xml version="1.0" standalone="no"?>
<!DOCTYPE svg PUBLIC "-//W3C//DTD SVG 20010904//EN"
 "http://www.w3.org/TR/2001/REC-SVG-20010904/DTD/svg10.dtd">
<svg version="1.0" xmlns="http://www.w3.org/2000/svg"
 width="174.000000pt" height="281.000000pt" viewBox="0 0 174.000000 281.000000"
 preserveAspectRatio="xMidYMid meet">
<metadata>
Created by potrace 1.14, written by Peter Selinger 2001-2017
</metadata>
<g transform="translate(0.000000,281.000000) scale(0.100000,-0.100000)"
fill="#000000" stroke="none">
<path fill="#000000" stroke="none" d="M1513 2796 c-57 -9 -82 -19 -127 -51
-72 -51 -136 -148 -136 -205 0 -22 -11 -64 -25 -95 l-24 -56 27 -12 c53 -24
-135 -25 -318 -2 l-165 21 -210 96 -210 96 -135 7 -136 7 -27 -50 c-31 -58
-32 -62 -12 -62 9 0 15 -6 14 -12 -2 -7 5 -30 14 -50 16 -38 16 -38 74 -38 46
0 66 5 96 25 l37 26 0 -48 0 -48 110 -49 c60 -26 117 -45 126 -42 21 8 83 -19
91 -40 7 -20 71 -49 263 -119 80 -29 171 -63 203 -75 l57 -21 0 -57 c1 -53 4
-60 45 -104 l43 -48 79 0 79 0 36 -47 c27 -36 39 -65 48 -118 19 -106 21 -107
73 -29 27 39 75 93 113 124 59 49 70 64 96 129 23 59 26 76 16 83 -7 4 -40 24
-74 43 -55 31 -63 40 -88 98 l-27 64 31 114 c25 90 43 132 87 202 54 86 55 90
49 140 -4 29 -17 89 -29 135 l-21 82 -36 -1 c-19 -1 -67 -7 -107 -13z"/>
<path fill="#000000" stroke="none" d="M1091 1493 c-7 -36 -16 -128 -22 -202
-5 -75 -14 -163 -19 -196 -6 -33 -15 -159 -20 -280 -5 -121 -16 -341 -24 -490
-8 -148 -14 -270 -13 -271 16 -13 111 -54 125 -54 19 0 31 56 63 288 16 119
90 289 165 382 52 64 58 78 80 171 13 55 24 104 24 108 0 4 -38 59 -85 121
-47 63 -89 130 -94 149 -6 20 -15 55 -21 79 -10 39 -108 220 -135 250 -9 10
-14 -2 -24 -55z"/>
</g>
</svg>
