<?xml version="1.0" standalone="no"?>
<!DOCTYPE svg PUBLIC "-//W3C//DTD SVG 20010904//EN"
 "http://www.w3.org/TR/2001/REC-SVG-20010904/DTD/svg10.dtd">
<svg version="1.0" xmlns="http://www.w3.org/2000/svg"
 width="41.000000pt" height="69.000000pt" viewBox="0 0 41.000000 69.000000"
 preserveAspectRatio="xMidYMid meet">
<metadata>
Created by potrace 1.14, written by Peter Selinger 2001-2017
</metadata>
<g transform="translate(0.000000,69.000000) scale(0.100000,-0.100000)"
fill="#000000" stroke="none">
<path fill="#000000" stroke="none" d="M224 671 c-36 -22 -48 -62 -45 -149 3
-70 -14 -94 -82 -117 -48 -16 -57 -24 -76 -62 -12 -25 -21 -63 -21 -89 l0 -45
34 26 34 26 69 -29 68 -29 21 -89 c19 -79 24 -90 50 -101 30 -12 116 -18 127
-7 3 3 -1 24 -9 46 -9 27 -14 83 -14 163 0 84 -5 136 -15 166 -9 23 -11 45 -7
48 17 12 32 50 32 85 0 19 4 37 9 41 6 3 -4 33 -22 68 -32 61 -33 62 -77 65
-31 2 -55 -4 -76 -17z"/>
</g>
</svg>
