<?xml version="1.0" standalone="no"?>
<!DOCTYPE svg PUBLIC "-//W3C//DTD SVG 20010904//EN"
 "http://www.w3.org/TR/2001/REC-SVG-20010904/DTD/svg10.dtd">
<svg version="1.0" xmlns="http://www.w3.org/2000/svg"
 width="21.000000pt" height="33.000000pt" viewBox="0 0 21.000000 33.000000"
 preserveAspectRatio="xMidYMid meet">
<metadata>
Created by potrace 1.14, written by Peter Selinger 2001-2017
</metadata>
<g transform="translate(0.000000,33.000000) scale(0.100000,-0.100000)"
fill="#000000" stroke="none">
<path fill="#000000" stroke="none" d="M67 312 c-20 -22 -22 -55 -5 -82 10
-16 10 -24 0 -40 -6 -11 -12 -35 -12 -54 0 -39 -9 -68 -19 -62 -3 2 -11 -2
-18 -9 -20 -22 21 -65 62 -65 19 0 37 4 40 10 3 5 17 10 30 10 35 0 53 35 56
110 4 115 0 137 -27 169 -30 36 -81 42 -107 13z"/>
</g>
</svg>
