<?xml version="1.0" standalone="no"?>
<!DOCTYPE svg PUBLIC "-//W3C//DTD SVG 20010904//EN"
 "http://www.w3.org/TR/2001/REC-SVG-20010904/DTD/svg10.dtd">
<svg version="1.0" xmlns="http://www.w3.org/2000/svg"
 width="29.000000pt" height="48.000000pt" viewBox="0 0 29.000000 48.000000"
 preserveAspectRatio="xMidYMid meet">
<metadata>
Created by potrace 1.14, written by Peter Selinger 2001-2017
</metadata>
<g transform="translate(0.000000,48.000000) scale(0.100000,-0.100000)"
fill="#000000" stroke="none">
<path fill="#000000" stroke="none" d="M31 433 c-36 -57 -37 -62 -12 -105 13
-24 22 -73 30 -173 7 -77 17 -144 23 -150 6 -7 7 14 3 60 -6 67 -4 74 34 160
l40 90 73 11 73 10 -39 17 c-21 9 -42 17 -46 17 -5 0 -28 22 -52 49 -24 27
-55 53 -70 56 -24 6 -30 2 -57 -42z"/>
</g>
</svg>
