<?xml version="1.0" standalone="no"?>
<!DOCTYPE svg PUBLIC "-//W3C//DTD SVG 20010904//EN"
 "http://www.w3.org/TR/2001/REC-SVG-20010904/DTD/svg10.dtd">
<svg version="1.0" xmlns="http://www.w3.org/2000/svg"
 width="88.000000pt" height="141.000000pt" viewBox="0 0 88.000000 141.000000"
 preserveAspectRatio="xMidYMid meet">
<metadata>
Created by potrace 1.14, written by Peter Selinger 2001-2017
</metadata>
<g transform="translate(0.000000,141.000000) scale(0.100000,-0.100000)"
fill="#000000" stroke="none">
<path fill="#000000" stroke="none" d="M236 1338 c-32 -40 -68 -95 -80 -123
-21 -47 -21 -57 -13 -190 14 -214 14 -537 -1 -650 -19 -147 -43 -252 -61 -269
-9 -9 -32 -29 -51 -46 -34 -30 -35 -30 -15 -46 17 -13 37 -15 118 -10 62 4
107 12 121 21 36 24 66 114 66 200 0 43 10 116 25 177 24 104 55 293 55 342 0
18 8 30 29 40 28 15 29 15 35 -16 9 -45 7 -199 -5 -429 -7 -151 -7 -215 1
-245 l12 -41 81 -12 c44 -6 82 -9 84 -7 2 1 6 75 9 162 6 154 5 162 -21 244
l-27 84 7 220 c7 191 10 228 30 279 l22 59 34 -29 c81 -67 104 -114 88 -180
-5 -21 -9 -50 -9 -65 0 -25 2 -26 40 -21 26 4 46 1 56 -8 14 -12 15 -7 9 46
-4 33 -10 76 -15 95 -4 19 -11 68 -15 109 -5 55 -14 87 -37 127 -16 30 -36 54
-43 54 -8 0 -27 24 -44 53 -17 28 -37 59 -44 68 -14 19 -273 79 -339 79 -43 0
-46 -2 -102 -72z"/>
</g>
</svg>
