<?xml version="1.0" standalone="no"?>
<!DOCTYPE svg PUBLIC "-//W3C//DTD SVG 20010904//EN"
 "http://www.w3.org/TR/2001/REC-SVG-20010904/DTD/svg10.dtd">
<svg version="1.0" xmlns="http://www.w3.org/2000/svg"
 width="134.000000pt" height="234.000000pt" viewBox="0 0 134.000000 234.000000"
 preserveAspectRatio="xMidYMid meet">
<metadata>
Created by potrace 1.14, written by Peter Selinger 2001-2017
</metadata>
<g transform="translate(0.000000,234.000000) scale(0.100000,-0.100000)"
fill="#000000" stroke="none">
<path fill="#000000" stroke="none" d="M534 2333 l-40 -4 -24 -117 c-13 -64
-29 -124 -36 -132 -11 -13 -11 -25 3 -68 16 -48 16 -54 0 -87 -9 -20 -17 -57
-17 -84 l0 -48 -102 -48 c-103 -47 -118 -57 -183 -113 -34 -31 -35 -32 -66
-217 l-31 -187 63 -140 c35 -77 71 -144 81 -149 31 -17 24 -94 -16 -180 -28
-60 -38 -101 -52 -204 -13 -102 -26 -154 -59 -240 -27 -71 -44 -132 -47 -171
l-4 -61 69 -43 c78 -48 74 -50 108 43 16 43 28 59 46 63 31 8 56 -13 49 -42
-4 -14 -1 -24 9 -28 10 -4 36 23 85 87 l69 92 -9 125 c-6 68 -8 126 -5 128 2
3 59 29 126 58 120 53 124 54 218 54 l96 0 33 -122 32 -121 -29 -46 -30 -46
33 -60 c28 -52 37 -60 65 -63 18 -2 48 4 67 13 19 9 38 14 42 11 4 -2 47 114
96 258 l90 263 -33 58 c-18 31 -55 86 -83 122 -28 35 -49 65 -47 67 2 2 24 15
49 29 82 47 117 93 136 177 9 41 22 84 29 95 32 51 28 67 -59 252 -46 99 -100
211 -120 250 l-35 71 -72 13 -71 13 -59 74 c-33 42 -61 85 -64 96 -2 12 -14
75 -26 141 -11 66 -21 121 -22 122 -6 4 -194 53 -202 51 -5 -1 -28 -3 -51 -5z"/>
</g>
</svg>
