<?xml version="1.0" standalone="no"?>
<!DOCTYPE svg PUBLIC "-//W3C//DTD SVG 20010904//EN"
 "http://www.w3.org/TR/2001/REC-SVG-20010904/DTD/svg10.dtd">
<svg version="1.0" xmlns="http://www.w3.org/2000/svg"
 width="117.000000pt" height="182.000000pt" viewBox="0 0 117.000000 182.000000"
 preserveAspectRatio="xMidYMid meet">
<metadata>
Created by potrace 1.14, written by Peter Selinger 2001-2017
</metadata>
<g transform="translate(0.000000,182.000000) scale(0.100000,-0.100000)"
fill="#000000" stroke="none">
<path fill="#000000" stroke="none" d="M309 1787 c-97 -36 -164 -79 -184 -116
-11 -23 -9 -38 16 -121 16 -52 29 -106 29 -120 0 -18 16 -39 52 -71 l52 -46
-17 -26 c-10 -15 -24 -27 -32 -27 -21 0 -24 -10 -51 -163 -31 -170 -34 -359
-8 -388 15 -16 14 -25 -2 -94 l-18 -77 -62 -36 c-54 -32 -64 -43 -74 -79 -7
-23 -9 -46 -5 -52 11 -18 111 -12 170 10 l55 20 29 -23 c27 -20 30 -29 30 -79
l1 -56 65 -27 c36 -16 67 -36 70 -46 3 -10 23 -25 44 -34 21 -8 52 -31 69 -52
27 -33 40 -39 129 -60 93 -23 212 -31 247 -18 21 8 23 104 2 104 -11 0 -12 8
-4 43 5 23 7 62 4 87 -5 42 -3 46 26 65 49 31 67 64 79 145 l11 76 49 28 c27
15 56 38 65 51 41 63 21 202 -71 491 l-46 141 -80 58 c-45 32 -115 70 -158 86
-60 23 -85 39 -121 78 -39 43 -51 67 -93 194 l-48 144 -44 6 c-25 4 -55 9 -67
11 -13 3 -62 -9 -109 -27z"/>
</g>
</svg>
