<?xml version="1.0" standalone="no"?>
<!DOCTYPE svg PUBLIC "-//W3C//DTD SVG 20010904//EN"
 "http://www.w3.org/TR/2001/REC-SVG-20010904/DTD/svg10.dtd">
<svg version="1.0" xmlns="http://www.w3.org/2000/svg"
 width="302.000000pt" height="473.000000pt" viewBox="0 0 302.000000 473.000000"
 preserveAspectRatio="xMidYMid meet">
<metadata>
Created by potrace 1.14, written by Peter Selinger 2001-2017
</metadata>
<g transform="translate(0.000000,473.000000) scale(0.100000,-0.100000)"
fill="#000000" stroke="none">
<path fill="#000000" stroke="none" d="M1287 4720 c-45 -14 -135 -89 -194
-162 -30 -38 -67 -78 -83 -90 -16 -12 -35 -38 -41 -57 -6 -20 -18 -48 -25 -63
-13 -24 -17 -26 -46 -17 -47 13 -479 42 -488 32 -27 -28 -320 -527 -313 -533
4 -4 63 -18 131 -31 67 -13 127 -26 133 -30 11 -7 -13 -234 -52 -489 -19 -122
-28 -154 -103 -340 -46 -113 -102 -271 -125 -351 l-42 -146 15 -122 c9 -71 18
-261 22 -454 l7 -332 -43 -255 -42 -255 36 -295 c29 -235 36 -331 36 -468 l0
-172 67 -45 68 -45 156 0 156 0 7 45 c5 44 2 53 -80 196 l-86 150 42 392 43
392 114 323 c62 177 129 357 147 400 l33 78 -64 168 c-35 93 -62 170 -60 173
3 2 28 10 56 18 38 10 53 10 58 2 4 -7 155 -290 335 -630 251 -474 329 -630
338 -675 6 -31 13 -67 15 -78 4 -18 37 -33 205 -90 l200 -69 462 -353 463
-354 110 4 c60 2 122 9 137 15 l26 12 -37 103 c-21 57 -73 166 -115 244 l-78
141 -82 51 c-44 28 -112 60 -151 72 -65 20 -73 25 -119 84 -35 45 -54 62 -66
59 -12 -3 -139 91 -396 294 -208 164 -392 312 -410 328 -31 28 -42 63 -189
571 l-156 540 46 130 c25 71 49 136 53 144 6 9 49 23 113 35 l104 21 43 409
c35 343 41 431 37 540 -5 113 -1 170 35 445 22 173 40 322 40 332 0 10 -16 22
-47 32 -25 9 -48 14 -51 12 -2 -3 2 -24 10 -48 8 -24 11 -56 8 -73 l-6 -30
-30 46 c-66 105 -179 151 -287 119z"/>
</g>
</svg>
