<?xml version="1.0" standalone="no"?>
<!DOCTYPE svg PUBLIC "-//W3C//DTD SVG 20010904//EN"
 "http://www.w3.org/TR/2001/REC-SVG-20010904/DTD/svg10.dtd">
<svg version="1.0" xmlns="http://www.w3.org/2000/svg"
 width="15.000000pt" height="26.000000pt" viewBox="0 0 15.000000 26.000000"
 preserveAspectRatio="xMidYMid meet">
<metadata>
Created by potrace 1.14, written by Peter Selinger 2001-2017
</metadata>
<g transform="translate(0.000000,26.000000) scale(0.100000,-0.100000)"
fill="#000000" stroke="none">
<path fill="#000000" stroke="none" d="M72 248 c-6 -7 -12 -29 -14 -48 -2 -27
-8 -35 -28 -40 -23 -5 -25 -11 -28 -62 -2 -47 1 -61 18 -78 l21 -21 54 43 c54
43 67 72 43 96 -7 7 -13 36 -13 65 0 45 -3 52 -21 55 -11 2 -26 -3 -32 -10z"/>
</g>
</svg>
