<?xml version="1.0" standalone="no"?>
<!DOCTYPE svg PUBLIC "-//W3C//DTD SVG 20010904//EN"
 "http://www.w3.org/TR/2001/REC-SVG-20010904/DTD/svg10.dtd">
<svg version="1.0" xmlns="http://www.w3.org/2000/svg"
 width="47.000000pt" height="76.000000pt" viewBox="0 0 47.000000 76.000000"
 preserveAspectRatio="xMidYMid meet">
<metadata>
Created by potrace 1.14, written by Peter Selinger 2001-2017
</metadata>
<g transform="translate(0.000000,76.000000) scale(0.100000,-0.100000)"
fill="#000000" stroke="none">
<path fill="#000000" stroke="none" d="M155 617 l-150 -142 -3 -55 c-4 -62 17
-334 28 -365 7 -19 7 -19 14 3 4 12 12 22 17 22 6 0 82 -18 171 -40 88 -23
163 -39 165 -36 3 2 -5 37 -16 78 -13 46 -23 121 -27 203 l-7 130 62 122 c33
68 61 127 61 133 0 6 -12 28 -26 50 -26 39 -28 40 -83 40 l-56 -1 -150 -142z"/>
</g>
</svg>
