<?xml version="1.0" standalone="no"?>
<!DOCTYPE svg PUBLIC "-//W3C//DTD SVG 20010904//EN"
 "http://www.w3.org/TR/2001/REC-SVG-20010904/DTD/svg10.dtd">
<svg version="1.0" xmlns="http://www.w3.org/2000/svg"
 width="13.000000pt" height="21.000000pt" viewBox="0 0 13.000000 21.000000"
 preserveAspectRatio="xMidYMid meet">
<metadata>
Created by potrace 1.14, written by Peter Selinger 2001-2017
</metadata>
<g transform="translate(0.000000,21.000000) scale(0.100000,-0.100000)"
fill="#000000" stroke="none">
<path fill="#000000" stroke="none" d="M15 190 c-14 -15 -16 -28 -11 -57 4
-21 8 -45 9 -53 3 -20 46 -80 58 -80 5 0 9 6 9 14 0 7 7 19 16 27 14 12 14 14
-6 21 -21 8 -21 8 9 39 35 34 38 54 15 87 -20 29 -74 30 -99 2z"/>
</g>
</svg>
