<?xml version="1.0" standalone="no"?>
<!DOCTYPE svg PUBLIC "-//W3C//DTD SVG 20010904//EN"
 "http://www.w3.org/TR/2001/REC-SVG-20010904/DTD/svg10.dtd">
<svg version="1.0" xmlns="http://www.w3.org/2000/svg"
 width="188.000000pt" height="312.000000pt" viewBox="0 0 188.000000 312.000000"
 preserveAspectRatio="xMidYMid meet">
<metadata>
Created by potrace 1.14, written by Peter Selinger 2001-2017
</metadata>
<g transform="translate(0.000000,312.000000) scale(0.100000,-0.100000)"
fill="#000000" stroke="none">
<path fill="#000000" stroke="none" d="M84 3113 c-8 -5 -24 -202 -48 -597
l-36 -588 133 -147 c73 -80 195 -215 271 -299 94 -104 142 -149 150 -143 7 6
72 -42 197 -148 133 -112 199 -161 229 -170 l42 -12 -94 -97 c-52 -53 -139
-153 -195 -222 -55 -69 -106 -130 -114 -136 -8 -6 -66 -19 -129 -29 -63 -10
-118 -21 -122 -24 -7 -6 16 -310 24 -315 2 -1 19 -13 38 -27 l35 -24 407 -5
406 -5 -24 -59 c-13 -33 -23 -61 -21 -62 8 -8 385 443 421 504 24 40 48 78 54
84 7 7 27 4 65 -10 l54 -21 12 117 c11 101 10 1007 -1 1742 -1 71 4 112 19
162 12 38 18 66 14 64 -4 -3 -22 -27 -40 -53 -40 -59 -155 -127 -172 -102 -33
48 -53 104 -78 216 l-29 127 64 134 c35 75 62 138 58 141 -9 9 -1578 13 -1590
4z"/>
</g>
</svg>
