<?xml version="1.0" standalone="no"?>
<!DOCTYPE svg PUBLIC "-//W3C//DTD SVG 20010904//EN"
 "http://www.w3.org/TR/2001/REC-SVG-20010904/DTD/svg10.dtd">
<svg version="1.0" xmlns="http://www.w3.org/2000/svg"
 width="16.000000pt" height="25.000000pt" viewBox="0 0 16.000000 25.000000"
 preserveAspectRatio="xMidYMid meet">
<metadata>
Created by potrace 1.14, written by Peter Selinger 2001-2017
</metadata>
<g transform="translate(0.000000,25.000000) scale(0.100000,-0.100000)"
fill="#000000" stroke="none">
<path fill="#000000" stroke="none" d="M30 220 c-7 -18 -9 -41 -5 -57 13 -47
7 -117 -10 -129 -14 -10 -14 -12 0 -18 24 -9 45 4 45 28 0 25 28 69 39 61 5
-2 11 -27 15 -55 6 -41 10 -51 24 -48 13 3 16 12 15 38 -1 19 -3 53 -4 75 -2
51 -12 70 -49 92 -17 9 -30 23 -30 30 0 25 -28 13 -40 -17z"/>
</g>
</svg>
