<?xml version="1.0" standalone="no"?>
<!DOCTYPE svg PUBLIC "-//W3C//DTD SVG 20010904//EN"
 "http://www.w3.org/TR/2001/REC-SVG-20010904/DTD/svg10.dtd">
<svg version="1.0" xmlns="http://www.w3.org/2000/svg"
 width="300.000000pt" height="492.000000pt" viewBox="0 0 300.000000 492.000000"
 preserveAspectRatio="xMidYMid meet">
<metadata>
Created by potrace 1.14, written by Peter Selinger 2001-2017
</metadata>
<g transform="translate(0.000000,492.000000) scale(0.100000,-0.100000)"
fill="#000000" stroke="none">
<path fill="#000000" stroke="none" d="M2321 4818 l-171 -100 -76 52 c-41 29
-114 68 -162 87 -86 35 -87 35 -157 23 -99 -17 -118 -27 -234 -129 -57 -50
-109 -91 -115 -91 -6 1 -40 9 -75 19 l-64 18 -110 -34 c-129 -39 -180 -69
-387 -224 -146 -109 -158 -121 -205 -198 -27 -45 -104 -147 -169 -227 -87
-106 -115 -148 -106 -154 7 -4 38 -11 69 -15 31 -4 59 -9 63 -11 11 -7 -165
-430 -266 -638 l-97 -200 -31 -212 -32 -212 40 -86 39 -86 184 183 184 182
-62 -117 -61 -117 72 -51 c59 -42 78 -50 102 -46 16 3 41 6 57 6 19 0 30 6 34
21 4 11 9 18 11 16 3 -3 -29 -150 -71 -328 l-76 -323 15 -279 c15 -275 14
-280 -9 -502 -17 -154 -22 -250 -18 -305 5 -72 4 -80 -12 -80 -16 0 -17 -7
-12 -58 3 -31 22 -144 43 -251 l38 -194 101 -80 c95 -75 102 -79 140 -73 22 3
118 15 213 28 107 14 172 27 172 34 0 6 -45 158 -100 339 -55 180 -100 336
-100 347 0 10 -4 17 -9 14 -10 -7 -18 119 -27 441 l-6 223 24 0 c13 0 29 4 36
8 23 15 62 354 62 541 0 107 7 220 20 321 11 85 20 156 20 157 0 4 209 143
214 143 2 0 30 -46 62 -102 46 -83 109 -182 165 -261 3 -4 57 -27 120 -51
l114 -43 25 -236 c19 -179 29 -239 42 -253 9 -11 42 -104 74 -209 49 -161 62
-195 89 -220 31 -29 32 -32 38 -147 7 -110 5 -123 -29 -265 -35 -147 -35 -149
-23 -245 7 -53 15 -101 18 -106 3 -5 53 -40 111 -79 78 -52 132 -98 204 -177
l98 -106 137 -43 136 -43 79 33 c43 18 82 35 86 38 14 9 -32 125 -85 217 l-50
87 -45 3 -45 3 -56 169 c-53 160 -56 177 -63 300 -8 157 -63 523 -111 734 -19
84 -55 276 -80 425 -25 150 -47 281 -50 293 -4 19 -10 21 -55 16 l-50 -5 7 34
c4 19 52 264 108 544 l100 510 41 3 41 3 28 123 28 122 249 -113 c137 -62 251
-113 253 -113 15 0 -1 114 -40 294 l-45 206 58 123 58 122 -22 229 c-12 125
-26 232 -31 236 -8 7 -308 187 -404 243 l-46 26 -172 -101z"/>
<path fill="#ffffff" stroke="none" d="M1554 2774 c13 -5 14 -9 5 -20 -17 -21
-3 -47 21 -39 11 4 32 -1 49 -11 27 -16 29 -19 15 -38 -19 -28 -18 -42 8 -66
27 -25 52 -25 88 0 l28 20 88 -51 c100 -58 114 -67 114 -81 0 -6 -36 -48 -81
-94 -66 -67 -88 -84 -120 -89 -48 -8 -87 10 -108 51 -9 17 -33 41 -53 53 -25
14 -47 39 -62 69 -30 59 -49 76 -76 67 -13 -4 -20 -2 -20 7 0 7 -16 26 -35 41
-19 15 -35 32 -35 36 0 16 59 18 73 3 12 -12 15 -11 20 7 2 11 -1 28 -8 37
-10 14 -9 23 4 48 26 50 50 64 85 50z"/>
</g>
</svg>
