<?xml version="1.0" standalone="no"?>
<!DOCTYPE svg PUBLIC "-//W3C//DTD SVG 20010904//EN"
 "http://www.w3.org/TR/2001/REC-SVG-20010904/DTD/svg10.dtd">
<svg version="1.0" xmlns="http://www.w3.org/2000/svg"
 width="105.000000pt" height="166.000000pt" viewBox="0 0 105.000000 166.000000"
 preserveAspectRatio="xMidYMid meet">
<metadata>
Created by potrace 1.14, written by Peter Selinger 2001-2017
</metadata>
<g transform="translate(0.000000,166.000000) scale(0.100000,-0.100000)"
fill="#000000" stroke="none">
<path fill="#000000" stroke="none" d="M541 1644 c-24 -7 -48 -20 -55 -28 -6
-8 -37 -45 -68 -83 l-57 -69 30 -113 c17 -62 29 -114 27 -115 -2 -1 -21 -16
-43 -33 -22 -17 -76 -49 -121 -71 l-81 -41 -11 -168 c-17 -231 -16 -252 13
-317 18 -40 25 -74 25 -117 0 -60 0 -61 -58 -122 -53 -56 -63 -73 -100 -181
-23 -65 -42 -122 -42 -127 0 -5 8 -9 17 -9 9 0 24 -6 32 -14 32 -28 141 -32
516 -18 204 8 371 16 373 17 2 2 5 9 6 17 2 7 19 47 39 88 48 99 55 157 58
450 l3 245 -51 119 c-46 108 -54 121 -94 146 -24 16 -53 37 -64 47 -11 11 -35
30 -52 43 -19 14 -33 33 -33 45 0 12 15 66 34 122 l34 100 -32 58 c-26 50 -42
66 -101 102 -77 47 -80 47 -144 27z"/>
</g>
</svg>
