<?xml version="1.0" standalone="no"?>
<!DOCTYPE svg PUBLIC "-//W3C//DTD SVG 20010904//EN"
 "http://www.w3.org/TR/2001/REC-SVG-20010904/DTD/svg10.dtd">
<svg version="1.0" xmlns="http://www.w3.org/2000/svg"
 width="22.000000pt" height="36.000000pt" viewBox="0 0 22.000000 36.000000"
 preserveAspectRatio="xMidYMid meet">
<metadata>
Created by potrace 1.14, written by Peter Selinger 2001-2017
</metadata>
<g transform="translate(0.000000,36.000000) scale(0.100000,-0.100000)"
fill="#000000" stroke="none">
<path fill="#000000" stroke="none" d="M124 345 c-12 -8 -27 -27 -33 -42 -7
-15 -30 -41 -52 -56 -27 -19 -39 -33 -35 -45 2 -9 7 -42 11 -73 6 -52 9 -58
55 -92 27 -20 51 -37 53 -37 3 0 7 22 11 49 6 49 7 50 44 53 34 3 37 5 34 32
-2 16 -10 46 -18 68 -8 23 -14 58 -14 80 0 39 -14 78 -28 78 -4 0 -17 -7 -28
-15z"/>
</g>
</svg>
