<?xml version="1.0" standalone="no"?>
<!DOCTYPE svg PUBLIC "-//W3C//DTD SVG 20010904//EN"
 "http://www.w3.org/TR/2001/REC-SVG-20010904/DTD/svg10.dtd">
<svg version="1.0" xmlns="http://www.w3.org/2000/svg"
 width="39.000000pt" height="66.000000pt" viewBox="0 0 39.000000 66.000000"
 preserveAspectRatio="xMidYMid meet">
<metadata>
Created by potrace 1.14, written by Peter Selinger 2001-2017
</metadata>
<g transform="translate(0.000000,66.000000) scale(0.100000,-0.100000)"
fill="#000000" stroke="none">
<path fill="#000000" stroke="none" d="M183 653 l-52 -4 -18 -62 -19 -62 43
-95 43 -95 -91 -89 c-49 -48 -89 -89 -87 -91 34 -27 203 -147 211 -151 7 -2
48 18 92 44 l80 48 3 122 3 122 -36 0 c-19 0 -35 3 -35 8 0 4 14 39 31 78 l31
70 -53 82 c-40 62 -58 82 -74 80 -11 -1 -43 -3 -72 -5z"/>
</g>
</svg>
