<?xml version="1.0" standalone="no"?>
<!DOCTYPE svg PUBLIC "-//W3C//DTD SVG 20010904//EN"
 "http://www.w3.org/TR/2001/REC-SVG-20010904/DTD/svg10.dtd">
<svg version="1.0" xmlns="http://www.w3.org/2000/svg"
 width="104.000000pt" height="164.000000pt" viewBox="0 0 104.000000 164.000000"
 preserveAspectRatio="xMidYMid meet">
<metadata>
Created by potrace 1.14, written by Peter Selinger 2001-2017
</metadata>
<g transform="translate(0.000000,164.000000) scale(0.100000,-0.100000)"
fill="#000000" stroke="none">
<path fill="#000000" stroke="none" d="M330 1620 c-46 -18 -82 -54 -129 -131
l-28 -45 22 -55 22 -54 -21 -37 c-19 -35 -27 -39 -93 -54 -39 -8 -79 -21 -89
-29 -16 -11 -14 -14 22 -35 22 -13 54 -44 72 -69 31 -47 32 -48 21 -110 -10
-54 -9 -69 4 -97 11 -21 21 -90 29 -189 l12 -155 53 -35 c65 -43 139 -140 147
-192 3 -21 8 -83 11 -138 9 -159 12 -172 45 -185 24 -10 35 -8 76 13 90 46 89
44 60 107 -22 49 -55 245 -43 257 12 11 109 14 139 4 40 -13 48 -35 48 -123 0
-66 18 -97 94 -157 55 -44 70 -51 107 -51 24 0 63 7 86 16 39 15 42 19 36 43
-9 38 -9 38 -71 66 -41 19 -67 40 -92 73 -33 45 -34 50 -40 162 -4 73 -12 128
-22 152 -17 37 -98 299 -98 315 0 5 37 14 82 22 46 7 84 14 86 16 2 2 -1 20
-8 39 -7 22 -31 53 -62 79 -34 28 -61 64 -84 109 -44 87 -91 120 -181 128
l-62 5 34 56 c40 64 55 150 36 197 -7 16 -34 45 -61 65 -56 42 -88 45 -160 17z"/>
</g>
</svg>
