<?xml version="1.0" standalone="no"?>
<!DOCTYPE svg PUBLIC "-//W3C//DTD SVG 20010904//EN"
 "http://www.w3.org/TR/2001/REC-SVG-20010904/DTD/svg10.dtd">
<svg version="1.0" xmlns="http://www.w3.org/2000/svg"
 width="25.000000pt" height="42.000000pt" viewBox="0 0 25.000000 42.000000"
 preserveAspectRatio="xMidYMid meet">
<metadata>
Created by potrace 1.14, written by Peter Selinger 2001-2017
</metadata>
<g transform="translate(0.000000,42.000000) scale(0.100000,-0.100000)"
fill="#000000" stroke="none">
<path fill="#000000" stroke="none" d="M83 413 c-9 -3 -13 -28 -13 -74 0 -69
-1 -70 -30 -80 -26 -10 -30 -16 -30 -47 0 -21 -3 -54 -6 -74 -6 -34 -4 -38 14
-38 28 0 34 -13 22 -44 -9 -26 -9 -26 45 -26 30 0 70 -7 90 -17 19 -9 38 -14
41 -10 4 3 10 46 15 94 5 48 12 95 14 105 4 11 -8 26 -40 49 -43 31 -45 34
-45 84 0 68 -30 98 -77 78z"/>
</g>
</svg>
