<?xml version="1.0" standalone="no"?>
<!DOCTYPE svg PUBLIC "-//W3C//DTD SVG 20010904//EN"
 "http://www.w3.org/TR/2001/REC-SVG-20010904/DTD/svg10.dtd">
<svg version="1.0" xmlns="http://www.w3.org/2000/svg"
 width="20.000000pt" height="32.000000pt" viewBox="0 0 20.000000 32.000000"
 preserveAspectRatio="xMidYMid meet">
<metadata>
Created by potrace 1.14, written by Peter Selinger 2001-2017
</metadata>
<g transform="translate(0.000000,32.000000) scale(0.100000,-0.100000)"
fill="#000000" stroke="none">
<path fill="#000000" stroke="none" d="M87 312 c-9 -4 -33 -33 -52 -65 -42
-69 -48 -131 -15 -142 16 -5 20 -15 20 -56 0 -47 2 -50 23 -47 18 2 23 10 25
40 3 30 7 38 23 38 24 0 25 -19 2 -36 -23 -16 -14 -24 36 -31 40 -5 41 -5 41
23 0 16 3 53 6 82 6 49 5 52 -15 52 -18 0 -21 4 -16 19 3 12 -3 37 -15 60 -11
22 -20 47 -20 56 0 16 -14 18 -43 7z"/>
</g>
</svg>
