<?xml version="1.0" standalone="no"?>
<!DOCTYPE svg PUBLIC "-//W3C//DTD SVG 20010904//EN"
 "http://www.w3.org/TR/2001/REC-SVG-20010904/DTD/svg10.dtd">
<svg version="1.0" xmlns="http://www.w3.org/2000/svg"
 width="28.000000pt" height="47.000000pt" viewBox="0 0 28.000000 47.000000"
 preserveAspectRatio="xMidYMid meet">
<metadata>
Created by potrace 1.14, written by Peter Selinger 2001-2017
</metadata>
<g transform="translate(0.000000,47.000000) scale(0.100000,-0.100000)"
fill="#000000" stroke="none">
<path fill="#000000" stroke="none" d="M42 463 c-47 -9 -55 -93 -17 -179 15
-34 25 -75 25 -103 0 -55 38 -119 94 -157 60 -41 73 -28 32 31 -21 29 -32 53
-27 58 10 10 86 5 114 -8 17 -7 18 -4 11 41 -4 29 -18 63 -34 84 -16 20 -30
53 -33 75 -2 22 -14 64 -27 92 -20 46 -26 52 -65 62 -24 6 -45 10 -47 10 -2
-1 -13 -4 -26 -6z"/>
</g>
</svg>
