<?xml version="1.0" standalone="no"?>
<!DOCTYPE svg PUBLIC "-//W3C//DTD SVG 20010904//EN"
 "http://www.w3.org/TR/2001/REC-SVG-20010904/DTD/svg10.dtd">
<svg version="1.0" xmlns="http://www.w3.org/2000/svg"
 width="44.000000pt" height="78.000000pt" viewBox="0 0 44.000000 78.000000"
 preserveAspectRatio="xMidYMid meet">
<metadata>
Created by potrace 1.14, written by Peter Selinger 2001-2017
</metadata>
<g transform="translate(0.000000,78.000000) scale(0.100000,-0.100000)"
fill="#000000" stroke="none">
<path fill="#000000" stroke="none" d="M72 752 c-56 -24 -62 -29 -57 -52 2
-14 9 -55 16 -91 9 -58 17 -75 65 -132 l54 -65 -33 -43 c-19 -24 -53 -73 -76
-108 l-43 -63 53 -77 c81 -117 84 -120 90 -121 3 0 16 23 29 51 20 41 26 47
31 32 4 -10 8 -30 8 -45 1 -32 -1 -31 40 -17 29 10 31 14 32 57 1 105 12 134
81 218 l65 79 8 100 7 99 -48 98 -48 98 -56 0 c-30 0 -77 2 -105 5 -39 4 -63
-1 -113 -23z"/>
</g>
</svg>
