<?xml version="1.0" standalone="no"?>
<!DOCTYPE svg PUBLIC "-//W3C//DTD SVG 20010904//EN"
 "http://www.w3.org/TR/2001/REC-SVG-20010904/DTD/svg10.dtd">
<svg version="1.0" xmlns="http://www.w3.org/2000/svg"
 width="640.000000pt" height="148.000000pt" viewBox="0 0 640.000000 148.000000"
 preserveAspectRatio="xMidYMid meet">
<metadata>
Created by potrace 1.14, written by Peter Selinger 2001-2017
</metadata>
<g transform="translate(0.000000,148.000000) scale(0.100000,-0.100000)"
fill="#000000" stroke="none">
<path fill="#000000" stroke="none" d="M46 1461 c-23 -25 -18 -176 7 -212 23
-32 22 -91 -2 -113 -16 -14 -21 -36 -25 -104 -2 -48 -10 -142 -16 -210 -11
-114 -10 -125 6 -143 13 -14 28 -19 53 -17 29 2 40 10 56 38 17 31 24 35 53
32 19 -2 41 3 50 10 11 10 34 13 67 10 47 -3 52 -6 80 -50 26 -40 35 -47 67
-50 43 -4 61 17 72 81 6 32 3 43 -18 68 -39 45 -49 94 -33 154 12 43 17 50 48
58 22 6 54 5 93 -2 65 -14 61 -14 75 19 9 24 10 23 10 -10 1 -33 5 -38 53 -61
l51 -25 -40 -29 -40 -29 14 -43 c18 -51 43 -57 70 -16 15 22 19 55 21 187 3
102 0 174 -8 199 -6 21 -11 78 -11 125 0 108 -13 132 -68 132 -46 0 -101 -39
-101 -72 0 -27 -19 -60 -31 -53 -5 4 -9 14 -9 23 0 10 -11 34 -25 55 -21 30
-32 37 -59 37 -34 0 -66 -24 -66 -51 0 -8 -9 -2 -21 14 -28 36 -79 38 -107 2
-12 -15 -30 -25 -44 -25 -35 0 -58 -30 -58 -76 0 -38 0 -38 -16 -16 -8 12 -21
51 -29 87 -7 37 -19 73 -25 81 -18 20 -74 18 -94 -5z"/>
<path fill="#000000" stroke="none" d="M4355 1204 c-27 -14 -66 -33 -85 -41
-19 -8 -43 -19 -52 -24 -9 -5 -48 -15 -86 -23 -121 -25 -183 -77 -190 -159 -6
-79 10 -89 147 -95 l109 -5 29 41 c26 37 33 41 83 45 30 3 72 9 93 12 25 5 67
0 128 -15 l92 -23 16 22 c13 17 19 19 29 9 6 -6 12 -20 12 -30 0 -10 6 -18 14
-18 8 0 29 -12 47 -27 l32 -27 18 23 c13 16 19 39 19 78 0 52 -2 57 -52 109
-39 39 -60 54 -80 54 -15 0 -44 11 -64 25 -20 14 -51 25 -68 25 -25 0 -34 7
-46 33 -13 28 -21 32 -55 34 -26 1 -57 -7 -90 -23z"/>
<path fill="#000000" stroke="none" d="M6132 524 l-163 -178 3 -60 3 -61 160
-113 c187 -133 205 -137 243 -62 20 40 22 58 21 165 -1 66 -5 127 -9 135 -5 9
-15 47 -24 85 -8 39 -20 88 -26 110 -6 22 -11 56 -10 76 0 21 -7 45 -18 59
l-18 22 -162 -178z"/>
</g>
</svg>
