<?xml version="1.0" standalone="no"?>
<!DOCTYPE svg PUBLIC "-//W3C//DTD SVG 20010904//EN"
 "http://www.w3.org/TR/2001/REC-SVG-20010904/DTD/svg10.dtd">
<svg version="1.0" xmlns="http://www.w3.org/2000/svg"
 width="150.000000pt" height="35.000000pt" viewBox="0 0 150.000000 35.000000"
 preserveAspectRatio="xMidYMid meet">
<metadata>
Created by potrace 1.14, written by Peter Selinger 2001-2017
</metadata>
<g transform="translate(0.000000,35.000000) scale(0.100000,-0.100000)"
fill="#000000" stroke="none">
<path fill="#000000" stroke="none" d="M1315 341 c-3 -5 0 -13 6 -16 13 -9 3
-54 -18 -77 -13 -15 -12 -21 15 -60 16 -24 31 -52 33 -63 3 -16 12 -20 43 -20
35 0 42 5 73 49 43 62 45 120 7 165 -24 29 -31 31 -89 31 -35 0 -66 -4 -70 -9z"/>
<path fill="#000000" stroke="none" d="M867 302 c-10 -10 -17 -23 -17 -28 0
-6 -16 -8 -36 -6 -30 4 -41 -1 -74 -34 l-39 -39 23 -25 c13 -14 27 -35 31 -47
9 -32 45 -31 45 0 0 13 11 34 25 47 14 13 25 33 25 45 0 12 6 29 13 39 12 17
16 17 43 4 21 -10 28 -19 25 -33 -6 -26 -5 -57 4 -127 7 -53 10 -58 32 -58
l25 0 -7 86 c-7 81 -6 86 16 110 l24 26 -33 29 c-39 35 -99 40 -125 11z"/>
<path fill="#000000" stroke="none" d="M238 243 c-9 -10 -19 -33 -23 -50 -9
-45 -26 -41 -64 12 -30 41 -36 45 -75 45 -73 0 -104 -66 -51 -108 17 -14 25
-30 25 -50 0 -35 4 -38 80 -69 52 -22 69 -19 70 10 0 4 24 7 53 7 58 0 66 6
120 87 33 52 34 64 1 102 -22 27 -33 31 -73 31 -33 0 -53 -5 -63 -17z"/>
</g>
</svg>
