<?xml version="1.0" standalone="no"?>
<!DOCTYPE svg PUBLIC "-//W3C//DTD SVG 20010904//EN"
 "http://www.w3.org/TR/2001/REC-SVG-20010904/DTD/svg10.dtd">
<svg version="1.0" xmlns="http://www.w3.org/2000/svg"
 width="57.000000pt" height="70.000000pt" viewBox="0 0 57.000000 70.000000"
 preserveAspectRatio="xMidYMid meet">
<metadata>
Created by potrace 1.14, written by Peter Selinger 2001-2017
</metadata>
<g transform="translate(0.000000,70.000000) scale(0.100000,-0.100000)"
fill="#000000" stroke="none">
<path fill="#000000" stroke="none" d="M256 679 c-27 -22 -28 -25 -22 -83 4
-34 8 -72 9 -84 2 -21 -6 -26 -67 -45 l-69 -22 -53 -105 c-30 -57 -54 -110
-54 -117 0 -7 9 -37 21 -67 19 -52 22 -55 49 -50 21 5 31 1 39 -14 12 -23 64
-47 86 -38 8 3 15 17 15 31 l0 26 103 -3 c97 -3 102 -4 105 -26 3 -19 9 -22
47 -22 46 0 65 16 65 57 0 10 9 29 20 43 28 36 25 74 -16 176 -37 94 -74 138
-126 149 -30 7 -36 31 -17 67 15 28 13 108 -3 124 -7 7 -33 15 -58 19 -38 5
-50 3 -74 -16z"/>
<path fill="#000000" stroke="none" d="M273 43 c-34 -4 -38 -9 -24 -31 5 -8
23 -12 47 -10 32 2 40 7 42 26 4 23 3 23 -65 15z"/>
<path fill="#000000" stroke="none" d="M405 37 c-10 -8 -15 -19 -11 -25 8 -14
86 -16 86 -3 0 40 -39 54 -75 28z"/>
</g>
</svg>
