<?xml version="1.0" standalone="no"?>
<!DOCTYPE svg PUBLIC "-//W3C//DTD SVG 20010904//EN"
 "http://www.w3.org/TR/2001/REC-SVG-20010904/DTD/svg10.dtd">
<svg version="1.0" xmlns="http://www.w3.org/2000/svg"
 width="239.000000pt" height="314.000000pt" viewBox="0 0 239.000000 314.000000"
 preserveAspectRatio="xMidYMid meet">
<metadata>
Created by potrace 1.14, written by Peter Selinger 2001-2017
</metadata>
<g transform="translate(0.000000,314.000000) scale(0.100000,-0.100000)"
fill="#000000" stroke="none">
<path fill="#000000" stroke="none" d="M1260 3043 l-100 -98 -7 -396 -6 -396
-275 -114 -275 -114 -300 -943 c-166 -525 -295 -947 -291 -952 5 -5 74 -10
153 -12 l144 -3 216 522 c119 288 218 523 221 523 3 0 22 -51 42 -112 l36
-113 -67 -415 -66 -415 674 -3 c371 -1 676 0 679 3 3 3 -16 87 -42 187 l-46
182 221 215 222 216 -12 240 c-7 132 -18 313 -24 401 l-13 162 -112 120 -112
120 -218 129 -217 129 -16 50 c-9 27 -25 82 -35 122 l-18 72 86 88 87 87 -43
213 c-24 117 -45 214 -47 216 -9 8 -306 175 -321 181 -13 5 -43 -19 -118 -92z"/>
<path fill="#ffffff" stroke="none" d="M1389 2011 c13 -8 13 -20 2 -78 -7 -37
-16 -126 -21 -198 -5 -71 -16 -165 -24 -207 -9 -42 -21 -150 -27 -240 -10
-149 -15 -176 -58 -314 -26 -83 -54 -161 -62 -174 -15 -22 -16 -20 -58 71
l-44 94 23 305 c21 289 24 310 56 406 28 83 34 118 35 190 1 121 7 138 49 145
54 10 114 10 129 0z"/>
</g>
</svg>
