<?xml version="1.0" standalone="no"?>
<!DOCTYPE svg PUBLIC "-//W3C//DTD SVG 20010904//EN"
 "http://www.w3.org/TR/2001/REC-SVG-20010904/DTD/svg10.dtd">
<svg version="1.0" xmlns="http://www.w3.org/2000/svg"
 width="71.000000pt" height="86.000000pt" viewBox="0 0 71.000000 86.000000"
 preserveAspectRatio="xMidYMid meet">
<metadata>
Created by potrace 1.14, written by Peter Selinger 2001-2017
</metadata>
<g transform="translate(0.000000,86.000000) scale(0.100000,-0.100000)"
fill="#000000" stroke="none">
<path fill="#000000" stroke="none" d="M15 813 c19 -71 61 -148 113 -206 74
-84 140 -195 167 -282 27 -89 49 -254 40 -297 l-7 -28 109 0 c67 0 127 6 157
15 27 8 64 15 83 15 l33 0 0 252 0 253 -65 61 c-67 65 -66 65 -232 99 -22 4
-33 12 -33 24 0 10 -9 26 -19 35 -18 16 -18 21 -5 58 8 22 14 42 14 44 0 2
-83 4 -184 4 l-184 0 13 -47z"/>
</g>
</svg>
