<?xml version="1.0" standalone="no"?>
<!DOCTYPE svg PUBLIC "-//W3C//DTD SVG 20010904//EN"
 "http://www.w3.org/TR/2001/REC-SVG-20010904/DTD/svg10.dtd">
<svg version="1.0" xmlns="http://www.w3.org/2000/svg"
 width="352.000000pt" height="461.000000pt" viewBox="0 0 352.000000 461.000000"
 preserveAspectRatio="xMidYMid meet">
<metadata>
Created by potrace 1.14, written by Peter Selinger 2001-2017
</metadata>
<g transform="translate(0.000000,461.000000) scale(0.100000,-0.100000)"
fill="#000000" stroke="none">
<path fill="#000000" stroke="none" d="M1411 4548 c-36 -44 -72 -76 -119 -103
-37 -22 -130 -92 -207 -156 l-140 -117 -48 -193 -47 -194 0 -198 0 -198 60
-217 c34 -119 63 -224 66 -233 6 -20 -148 -94 -321 -154 -160 -56 -366 -143
-467 -198 l-83 -44 -6 -94 c-6 -83 -12 -106 -53 -195 -40 -89 -46 -110 -46
-169 0 -62 8 -87 85 -282 102 -258 102 -251 44 -524 -22 -107 -55 -276 -73
-376 l-32 -181 16 -84 c9 -45 36 -146 60 -223 l43 -140 85 -90 c89 -93 102
-101 258 -160 l60 -23 54 23 c30 13 86 51 126 86 l72 64 -28 8 c-15 4 -30 13
-33 20 -77 186 -266 695 -272 732 -4 28 -29 139 -56 248 -27 109 -49 205 -49
213 0 8 25 69 55 137 l56 122 112 91 c83 67 170 123 337 217 l225 126 155 12
c145 11 167 16 344 71 l190 60 485 -57 c545 -63 601 -75 680 -139 36 -29 77
-50 138 -70 48 -16 139 -51 201 -77 63 -27 117 -49 122 -49 4 0 11 46 15 103
5 71 13 114 28 142 19 37 19 47 9 146 -12 120 -24 149 -104 271 -55 82 -140
166 -196 191 -12 6 -36 33 -53 61 -17 28 -33 53 -35 55 -2 2 -41 -22 -73 -45
-2 -2 4 -21 13 -44 9 -22 16 -53 16 -69 0 -25 -4 -29 -34 -33 -32 -4 -35 -2
-46 37 -21 72 -32 82 -102 90 -96 10 -139 25 -188 66 l-45 37 -24 153 c-13 85
-37 195 -53 244 -16 50 -41 153 -56 230 -27 137 -28 142 -12 213 13 65 20 77
68 124 43 43 66 58 130 79 l77 26 -1 61 c-1 49 -10 84 -48 174 -46 110 -49
115 -126 181 -45 38 -147 106 -232 156 l-153 88 -280 12 c-154 6 -328 14 -386
17 l-106 6 -52 -64z"/>
</g>
</svg>
