<?xml version="1.0" standalone="no"?>
<!DOCTYPE svg PUBLIC "-//W3C//DTD SVG 20010904//EN"
 "http://www.w3.org/TR/2001/REC-SVG-20010904/DTD/svg10.dtd">
<svg version="1.0" xmlns="http://www.w3.org/2000/svg"
 width="163.000000pt" height="197.000000pt" viewBox="0 0 163.000000 197.000000"
 preserveAspectRatio="xMidYMid meet">
<metadata>
Created by potrace 1.14, written by Peter Selinger 2001-2017
</metadata>
<g transform="translate(0.000000,197.000000) scale(0.100000,-0.100000)"
fill="#000000" stroke="none">
<path fill="#000000" stroke="none" d="M350 1945 c0 -5 4 -17 9 -24 7 -10 3
-24 -10 -42 -10 -15 -19 -36 -19 -47 0 -22 -25 -32 -81 -32 -34 0 -36 2 -54
55 l-19 54 -23 -34 c-28 -41 -24 -73 19 -158 28 -55 28 -60 13 -83 -9 -13 -37
-38 -63 -54 -46 -28 -47 -31 -82 -142 l-36 -113 23 -74 c33 -109 37 -150 19
-210 -24 -81 4 -271 40 -271 18 0 30 -28 44 -103 7 -32 14 -56 17 -53 3 3 16
58 29 122 13 65 26 119 28 121 7 8 46 -102 46 -131 0 -47 43 -386 50 -386 3 1
17 11 32 23 25 20 28 31 37 122 5 55 14 113 20 128 20 52 14 171 -12 229 -13
29 -34 96 -47 148 -12 52 -30 112 -38 133 -11 29 -12 41 -3 50 6 6 11 22 11
36 1 47 56 166 108 236 l53 69 -36 36 c-19 20 -35 42 -35 49 0 7 -14 40 -31
72 l-31 58 30 39 c29 36 30 42 23 93 -6 47 -30 112 -31 84z"/>
<path fill="#000000" stroke="none" d="M1292 1799 c-43 -58 -52 -132 -24 -199
18 -42 18 -49 5 -54 -13 -5 -14 -20 -8 -94 l6 -87 -51 -106 -51 -107 31 -138
31 -139 -17 -110 -17 -110 100 -176 c97 -170 101 -180 138 -327 l37 -152 79 0
79 0 -6 28 c-3 15 -24 131 -48 259 l-43 232 29 168 c23 140 27 186 22 278 -3
61 -7 120 -9 131 -4 17 1 23 20 28 24 6 25 8 25 103 0 126 -26 203 -83 242
-22 15 -40 37 -43 53 -4 15 -18 35 -31 44 -20 12 -24 22 -21 45 3 17 -1 34 -9
40 -7 6 -13 28 -13 48 0 71 -12 112 -34 120 -61 23 -63 23 -94 -20z"/>
</g>
</svg>
