<?xml version="1.0" standalone="no"?>
<!DOCTYPE svg PUBLIC "-//W3C//DTD SVG 20010904//EN"
 "http://www.w3.org/TR/2001/REC-SVG-20010904/DTD/svg10.dtd">
<svg version="1.0" xmlns="http://www.w3.org/2000/svg"
 width="87.000000pt" height="108.000000pt" viewBox="0 0 87.000000 108.000000"
 preserveAspectRatio="xMidYMid meet">
<metadata>
Created by potrace 1.14, written by Peter Selinger 2001-2017
</metadata>
<g transform="translate(0.000000,108.000000) scale(0.100000,-0.100000)"
fill="#000000" stroke="none">
<path fill="#000000" stroke="none" d="M348 1065 c-15 -8 -29 -27 -32 -42 -6
-25 -11 -28 -54 -30 -56 -3 -92 -20 -92 -44 0 -23 51 -59 84 -59 19 0 26 -5
26 -19 0 -10 11 -39 25 -65 14 -26 25 -53 25 -61 0 -8 -32 -33 -70 -55 -132
-77 -185 -170 -238 -411 -17 -80 -17 -90 -3 -141 9 -30 25 -67 36 -82 l20 -27
53 71 c52 69 52 71 37 100 -14 28 -22 150 -9 150 3 0 31 -23 62 -51 31 -28 67
-58 79 -67 23 -14 25 -13 41 9 9 13 34 44 56 67 l40 44 31 -90 30 -89 95 -80
c124 -104 134 -106 159 -39 10 28 42 111 70 184 28 74 51 140 51 148 0 8 -28
76 -62 151 -54 117 -67 138 -93 148 -16 6 -63 24 -102 40 -51 20 -73 33 -73
45 0 10 -3 37 -6 62 l-6 44 42 14 c47 16 70 42 70 82 0 37 -33 38 -56 2 l-17
-26 -24 60 c-17 42 -31 62 -46 66 -40 10 -122 5 -149 -9z"/>
</g>
</svg>
