<?xml version="1.0" standalone="no"?>
<!DOCTYPE svg PUBLIC "-//W3C//DTD SVG 20010904//EN"
 "http://www.w3.org/TR/2001/REC-SVG-20010904/DTD/svg10.dtd">
<svg version="1.0" xmlns="http://www.w3.org/2000/svg"
 width="80.000000pt" height="101.000000pt" viewBox="0 0 80.000000 101.000000"
 preserveAspectRatio="xMidYMid meet">
<metadata>
Created by potrace 1.14, written by Peter Selinger 2001-2017
</metadata>
<g transform="translate(0.000000,101.000000) scale(0.100000,-0.100000)"
fill="#000000" stroke="none">
<path fill="#000000" stroke="none" d="M350 997 c0 -9 4 -27 10 -42 l10 -26
-37 26 -37 25 -29 -28 c-29 -27 -29 -27 -23 -120 4 -72 10 -99 26 -119 l20
-26 -39 -29 c-49 -36 -148 -217 -211 -385 -38 -101 -41 -116 -30 -147 14 -42
47 -86 64 -86 17 0 28 67 16 91 -22 41 -10 73 61 169 39 52 74 99 79 104 13
13 29 -26 40 -105 17 -114 34 -145 89 -163 121 -39 125 -39 181 -6 28 17 69
39 90 50 l38 20 -1 -78 c-2 -123 36 -162 74 -77 11 25 29 96 39 158 l20 112
-37 37 c-42 43 -51 43 -124 -3 -25 -16 -51 -29 -56 -29 -17 0 -19 77 -8 228
l10 137 -33 94 c-43 122 -55 141 -111 176 -25 16 -56 35 -68 43 -20 13 -23 12
-23 -1z"/>
</g>
</svg>
