<?xml version="1.0" standalone="no"?>
<!DOCTYPE svg PUBLIC "-//W3C//DTD SVG 20010904//EN"
 "http://www.w3.org/TR/2001/REC-SVG-20010904/DTD/svg10.dtd">
<svg version="1.0" xmlns="http://www.w3.org/2000/svg"
 width="220.000000pt" height="288.000000pt" viewBox="0 0 220.000000 288.000000"
 preserveAspectRatio="xMidYMid meet">
<metadata>
Created by potrace 1.14, written by Peter Selinger 2001-2017
</metadata>
<g transform="translate(0.000000,288.000000) scale(0.100000,-0.100000)"
fill="#000000" stroke="none">
<path fill="#000000" stroke="none" d="M1685 2869 c-127 -12 -225 -49 -304
-112 l-67 -54 -129 -7 c-83 -5 -154 -15 -195 -28 -36 -10 -109 -24 -163 -29
-73 -7 -124 -19 -205 -50 l-107 -40 -120 -155 c-108 -139 -129 -162 -210 -217
l-90 -62 -16 -95 c-9 -52 -31 -156 -49 -230 l-33 -136 32 -229 31 -230 171
-590 c95 -324 175 -594 179 -598 7 -7 301 10 497 29 62 6 63 7 56 32 -3 15
-28 61 -55 103 l-49 77 7 83 c4 54 18 122 41 191 l35 108 41 10 c23 6 55 15
71 20 16 6 44 10 63 10 23 0 32 4 27 12 -5 8 15 9 77 4 212 -17 286 -19 293
-7 4 6 33 11 65 11 44 0 62 5 75 18 15 18 14 22 -26 67 -52 59 -93 78 -350
162 -109 35 -198 65 -198 68 0 2 -7 35 -15 74 -14 70 -14 70 14 133 l29 64
-24 119 c-13 66 -27 129 -30 140 -4 12 19 -4 57 -41 59 -57 77 -67 233 -133
93 -38 173 -68 178 -65 12 8 10 166 -4 205 -28 84 -49 103 -151 138 -92 32
-95 34 -121 81 l-27 49 83 42 c46 23 96 52 113 64 16 12 136 54 266 95 l235
72 88 81 c87 80 196 214 196 241 0 14 -113 327 -144 397 -14 33 -25 40 -118
78 -107 43 -116 44 -253 30z"/>
</g>
</svg>
