<?xml version="1.0" standalone="no"?>
<!DOCTYPE svg PUBLIC "-//W3C//DTD SVG 20010904//EN"
 "http://www.w3.org/TR/2001/REC-SVG-20010904/DTD/svg10.dtd">
<svg version="1.0" xmlns="http://www.w3.org/2000/svg"
 width="514.000000pt" height="624.000000pt" viewBox="0 0 514.000000 624.000000"
 preserveAspectRatio="xMidYMid meet">
<metadata>
Created by potrace 1.14, written by Peter Selinger 2001-2017
</metadata>
<g transform="translate(0.000000,624.000000) scale(0.100000,-0.100000)"
fill="#000000" stroke="none">
<path fill="#000000" stroke="none" d="M2547 6039 l-117 -198 0 -118 c0 -104
-4 -134 -36 -253 -33 -123 -36 -145 -35 -253 2 -112 0 -124 -34 -228 -30 -89
-47 -122 -93 -182 -32 -39 -118 -163 -193 -274 l-137 -202 -76 -283 -75 -283
-15 -220 -14 -220 -71 -202 c-66 -188 -71 -207 -71 -285 0 -112 -13 -154 -65
-208 -35 -37 -50 -66 -83 -161 -28 -81 -63 -153 -116 -240 l-76 -125 -117 -38
c-65 -21 -123 -42 -129 -47 -6 -5 -71 -112 -145 -239 l-134 -229 -45 -7 c-25
-3 -75 -14 -111 -25 -36 -10 -93 -19 -125 -19 -32 0 -95 -11 -139 -23 l-80
-23 -57 -109 c-31 -60 -80 -173 -108 -251 -46 -129 -51 -149 -48 -214 l3 -71
55 38 c30 21 60 42 67 46 7 4 27 -6 47 -23 24 -21 40 -29 50 -23 22 13 172
156 182 175 15 28 222 150 226 133 2 -11 23 -3 78 30 41 24 81 44 88 45 14 0
63 -100 55 -113 -2 -4 -14 4 -25 18 -25 32 -32 31 -77 -4 -21 -17 -49 -35 -63
-42 -21 -9 -33 -31 -63 -114 -36 -102 -54 -128 -108 -155 -45 -22 -103 -77
-116 -108 -8 -19 -38 -44 -92 -77 -43 -26 -79 -50 -79 -53 0 -4 19 -26 42 -49
l42 -43 93 0 c51 0 93 -2 93 -5 0 -3 -16 -31 -36 -63 -32 -50 -48 -64 -115
-101 -65 -35 -88 -55 -134 -113 -41 -53 -55 -80 -55 -104 0 -41 10 -48 46 -29
16 8 36 15 45 15 9 0 45 28 80 63 57 56 71 65 124 76 33 7 67 20 76 27 23 20
47 8 42 -20 -3 -13 -31 -70 -63 -127 -31 -57 -57 -105 -56 -106 1 -1 213 2
471 7 259 5 1170 14 2025 20 1323 10 1561 14 1595 27 38 14 46 25 172 246 72
128 141 252 153 277 13 25 78 127 146 226 l123 181 -9 129 c-5 71 -39 316 -76
544 l-66 415 12 232 c12 207 11 293 -7 782 l-21 549 -241 339 -241 339 -306
215 -305 214 6 100 c13 200 25 306 44 382 19 75 51 494 51 665 l0 66 -105 77
-106 77 -553 62 -552 62 -117 -197z"/>
</g>
</svg>
