<?xml version="1.0" standalone="no"?>
<!DOCTYPE svg PUBLIC "-//W3C//DTD SVG 20010904//EN"
 "http://www.w3.org/TR/2001/REC-SVG-20010904/DTD/svg10.dtd">
<svg version="1.0" xmlns="http://www.w3.org/2000/svg"
 width="19.000000pt" height="24.000000pt" viewBox="0 0 19.000000 24.000000"
 preserveAspectRatio="xMidYMid meet">
<metadata>
Created by potrace 1.14, written by Peter Selinger 2001-2017
</metadata>
<g transform="translate(0.000000,24.000000) scale(0.100000,-0.100000)"
fill="#000000" stroke="none">
<path fill="#000000" stroke="none" d="M69 194 l3 -44 -36 0 c-34 0 -36 -1
-36 -35 0 -28 4 -35 20 -35 24 0 26 -13 5 -30 -33 -27 -17 -40 48 -40 34 0 71
-3 83 -6 19 -5 22 0 27 44 9 73 -3 161 -22 171 -9 5 -34 11 -56 13 l-40 5 4
-43z"/>
</g>
</svg>
