<?xml version="1.0" standalone="no"?>
<!DOCTYPE svg PUBLIC "-//W3C//DTD SVG 20010904//EN"
 "http://www.w3.org/TR/2001/REC-SVG-20010904/DTD/svg10.dtd">
<svg version="1.0" xmlns="http://www.w3.org/2000/svg"
 width="55.000000pt" height="68.000000pt" viewBox="0 0 55.000000 68.000000"
 preserveAspectRatio="xMidYMid meet">
<metadata>
Created by potrace 1.14, written by Peter Selinger 2001-2017
</metadata>
<g transform="translate(0.000000,68.000000) scale(0.100000,-0.100000)"
fill="#000000" stroke="none">
<path fill="#000000" stroke="none" d="M324 638 c20 -23 36 -45 36 -48 0 -4
-18 -21 -40 -39 -22 -17 -47 -46 -56 -64 -10 -18 -57 -86 -107 -152 -78 -105
-115 -167 -148 -252 -7 -18 -3 -26 22 -44 36 -26 93 -40 129 -32 19 3 35 20
56 55 l29 50 95 -6 c52 -4 121 -9 153 -13 l57 -6 0 297 0 296 -131 0 -131 0
36 -42z"/>
</g>
</svg>
