<?xml version="1.0" standalone="no"?>
<!DOCTYPE svg PUBLIC "-//W3C//DTD SVG 20010904//EN"
 "http://www.w3.org/TR/2001/REC-SVG-20010904/DTD/svg10.dtd">
<svg version="1.0" xmlns="http://www.w3.org/2000/svg"
 width="52.000000pt" height="64.000000pt" viewBox="0 0 52.000000 64.000000"
 preserveAspectRatio="xMidYMid meet">
<metadata>
Created by potrace 1.14, written by Peter Selinger 2001-2017
</metadata>
<g transform="translate(0.000000,64.000000) scale(0.100000,-0.100000)"
fill="#000000" stroke="none">
<path fill="#000000" stroke="none" d="M314 633 c-31 -6 -68 -51 -88 -105 -28
-76 -57 -111 -121 -144 -33 -18 -70 -43 -83 -55 l-23 -24 68 -8 c38 -5 69 -10
71 -12 2 -1 -11 -57 -28 -123 -35 -140 -34 -132 -16 -132 8 0 16 -7 20 -15 4
-11 22 -15 69 -15 l63 0 34 142 c19 78 39 146 45 150 5 5 28 21 50 37 30 20
51 50 82 112 70 140 69 134 18 169 -43 30 -92 37 -161 23z"/>
</g>
</svg>
