<?xml version="1.0" standalone="no"?>
<!DOCTYPE svg PUBLIC "-//W3C//DTD SVG 20010904//EN"
 "http://www.w3.org/TR/2001/REC-SVG-20010904/DTD/svg10.dtd">
<svg version="1.0" xmlns="http://www.w3.org/2000/svg"
 width="338.000000pt" height="430.000000pt" viewBox="0 0 338.000000 430.000000"
 preserveAspectRatio="xMidYMid meet">
<metadata>
Created by potrace 1.14, written by Peter Selinger 2001-2017
</metadata>
<g transform="translate(0.000000,430.000000) scale(0.100000,-0.100000)"
fill="#000000" stroke="none">
<path fill="#000000" stroke="none" d="M840 4246 c-141 -50 -149 -54 -285
-158 -177 -134 -391 -351 -488 -494 -69 -101 -69 -102 -53 -132 8 -16 31 -89
50 -161 29 -110 50 -160 126 -309 50 -97 106 -193 124 -212 19 -19 36 -47 40
-62 12 -53 77 -144 145 -203 56 -50 75 -75 110 -145 23 -48 50 -127 62 -180
25 -111 83 -282 168 -501 l61 -156 128 -78 c70 -43 128 -79 129 -79 0 -1 6
-46 13 -101 13 -111 37 -234 110 -555 30 -132 55 -273 65 -365 l15 -150 62
-63 c35 -34 68 -60 74 -58 6 2 31 -16 55 -40 l43 -44 27 57 c14 32 35 66 46
76 17 15 19 24 12 65 -4 26 -5 50 -3 53 2 3 43 21 91 39 52 20 101 46 120 64
l32 31 -100 185 -101 185 -44 200 c-38 169 -61 243 -148 475 -58 151 -103 277
-101 278 2 2 79 -40 171 -95 l167 -98 134 -190 c110 -157 138 -203 157 -265
45 -142 115 -385 147 -508 l32 -123 56 54 c38 37 88 71 156 106 95 48 180 115
205 162 6 11 15 17 19 15 4 -3 20 8 35 23 l28 29 79 -29 c44 -16 81 -29 83
-29 1 0 8 18 15 40 l12 41 50 -60 c44 -52 56 -61 102 -71 83 -18 298 -52 302
-49 1 2 -7 240 -20 529 l-24 525 -55 308 c-31 170 -58 355 -62 412 l-7 103
-276 274 c-152 151 -358 354 -458 450 l-183 175 -272 93 -273 93 -144 160
c-135 149 -159 171 -380 336 l-236 178 -145 -51z"/>
</g>
</svg>
