<?xml version="1.0" standalone="no"?>
<!DOCTYPE svg PUBLIC "-//W3C//DTD SVG 20010904//EN"
 "http://www.w3.org/TR/2001/REC-SVG-20010904/DTD/svg10.dtd">
<svg version="1.0" xmlns="http://www.w3.org/2000/svg"
 width="282.000000pt" height="364.000000pt" viewBox="0 0 282.000000 364.000000"
 preserveAspectRatio="xMidYMid meet">
<metadata>
Created by potrace 1.14, written by Peter Selinger 2001-2017
</metadata>
<g transform="translate(0.000000,364.000000) scale(0.100000,-0.100000)"
fill="#000000" stroke="none">
<path fill="#000000" stroke="none" d="M1645 3454 c-143 -102 -268 -190 -278
-197 -10 -7 -32 -57 -51 -119 l-34 -107 109 -181 c69 -115 137 -214 188 -273
l80 -91 -173 -116 -174 -115 -111 -174 c-130 -202 -131 -204 -197 -598 -21
-127 -42 -229 -46 -227 -5 3 -8 0 -8 -5 0 -6 -16 -11 -35 -11 -28 0 -35 -4
-35 -20 0 -23 -8 -24 -105 -6 -54 10 -89 24 -155 65 -47 29 -102 68 -123 87
-21 19 -49 40 -62 46 -21 9 -22 13 -10 22 12 9 -6 28 -98 103 l-112 92 -108
-57 -109 -57 5 -35 c20 -144 28 -186 39 -201 7 -10 68 -68 136 -129 l122 -111
205 -94 c113 -51 282 -135 376 -186 l171 -92 -6 -51 c-6 -39 -21 -322 -26
-471 0 -17 -2 -17 -10 -5 -12 19 -12 12 1 -50 l11 -50 66 0 c37 0 371 -9 742
-19 371 -11 677 -17 680 -14 5 4 18 235 19 343 1 54 3 57 123 220 l122 165 24
669 24 668 -199 193 -198 192 -23 84 c-16 61 -24 126 -28 234 l-6 150 57 223
c35 132 55 226 49 231 -7 7 -525 244 -559 256 -5 2 -127 -79 -270 -181z"/>
</g>
</svg>
