<?xml version="1.0" standalone="no"?>
<!DOCTYPE svg PUBLIC "-//W3C//DTD SVG 20010904//EN"
 "http://www.w3.org/TR/2001/REC-SVG-20010904/DTD/svg10.dtd">
<svg version="1.0" xmlns="http://www.w3.org/2000/svg"
 width="29.000000pt" height="36.000000pt" viewBox="0 0 29.000000 36.000000"
 preserveAspectRatio="xMidYMid meet">
<metadata>
Created by potrace 1.14, written by Peter Selinger 2001-2017
</metadata>
<g transform="translate(0.000000,36.000000) scale(0.100000,-0.100000)"
fill="#000000" stroke="none">
<path fill="#000000" stroke="none" d="M120 336 c-7 -13 -9 -29 -6 -35 12 -18
-43 -92 -80 -107 -54 -23 -37 -63 21 -48 21 5 25 2 31 -30 4 -24 15 -41 31
-49 13 -7 32 -26 43 -41 l18 -29 18 56 c15 49 20 56 39 51 13 -3 27 2 39 15
19 21 19 21 -2 21 -16 0 -24 12 -38 53 -23 69 -60 137 -83 153 -16 11 -20 10
-31 -10z"/>
</g>
</svg>
