<?xml version="1.0" standalone="no"?>
<!DOCTYPE svg PUBLIC "-//W3C//DTD SVG 20010904//EN"
 "http://www.w3.org/TR/2001/REC-SVG-20010904/DTD/svg10.dtd">
<svg version="1.0" xmlns="http://www.w3.org/2000/svg"
 width="70.000000pt" height="88.000000pt" viewBox="0 0 70.000000 88.000000"
 preserveAspectRatio="xMidYMid meet">
<metadata>
Created by potrace 1.14, written by Peter Selinger 2001-2017
</metadata>
<g transform="translate(0.000000,88.000000) scale(0.100000,-0.100000)"
fill="#000000" stroke="none">
<path fill="#000000" stroke="none" d="M298 862 l-58 -16 0 -72 c0 -62 17
-177 36 -236 5 -16 -3 -18 -77 -18 -74 0 -86 -3 -118 -27 -49 -37 -51 -40 -51
-108 0 -33 -7 -88 -14 -122 -15 -72 -14 -73 63 -73 27 0 90 -15 151 -35 84
-28 119 -35 183 -35 l79 0 89 -61 c49 -34 91 -60 93 -58 1 2 7 38 13 79 9 62
8 95 -6 185 -23 149 -36 168 -153 226 -56 27 -92 51 -92 60 1 8 9 41 18 74 9
32 16 91 16 130 0 65 -2 74 -28 98 -32 31 -58 32 -144 9z"/>
</g>
</svg>
