<?xml version="1.0" standalone="no"?>
<!DOCTYPE svg PUBLIC "-//W3C//DTD SVG 20010904//EN"
 "http://www.w3.org/TR/2001/REC-SVG-20010904/DTD/svg10.dtd">
<svg version="1.0" xmlns="http://www.w3.org/2000/svg"
 width="37.000000pt" height="49.000000pt" viewBox="0 0 37.000000 49.000000"
 preserveAspectRatio="xMidYMid meet">
<metadata>
Created by potrace 1.14, written by Peter Selinger 2001-2017
</metadata>
<g transform="translate(0.000000,49.000000) scale(0.100000,-0.100000)"
fill="#000000" stroke="none">
<path fill="#000000" stroke="none" d="M240 483 c-32 -6 -56 -28 -82 -75 -12
-21 -32 -45 -45 -53 -14 -9 -27 -33 -34 -60 -6 -25 -15 -45 -20 -45 -4 0 -20
-12 -34 -27 -33 -36 -33 -84 0 -127 14 -19 25 -46 25 -64 0 -36 16 -40 80 -22
30 8 46 25 97 102 33 51 66 113 73 138 7 25 25 73 41 108 l28 63 -27 29 c-28
31 -60 41 -102 33z"/>
</g>
</svg>
