<?xml version="1.0" standalone="no"?>
<!DOCTYPE svg PUBLIC "-//W3C//DTD SVG 20010904//EN"
 "http://www.w3.org/TR/2001/REC-SVG-20010904/DTD/svg10.dtd">
<svg version="1.0" xmlns="http://www.w3.org/2000/svg"
 width="19.000000pt" height="24.000000pt" viewBox="0 0 19.000000 24.000000"
 preserveAspectRatio="xMidYMid meet">
<metadata>
Created by potrace 1.14, written by Peter Selinger 2001-2017
</metadata>
<g transform="translate(0.000000,24.000000) scale(0.100000,-0.100000)"
fill="#000000" stroke="none">
<path fill="#000000" stroke="none" d="M77 233 c-4 -3 -7 -15 -7 -25 0 -10 -6
-18 -14 -18 -7 0 -19 -6 -25 -14 -18 -22 -30 -116 -19 -148 13 -37 29 -36 22
2 -4 19 -2 30 5 30 6 0 11 -10 11 -22 1 -23 1 -23 14 2 8 14 12 38 9 57 -7 43
19 45 44 3 9 -16 22 -30 29 -30 12 0 44 32 44 44 0 10 -93 126 -101 126 -3 0
-9 -3 -12 -7z"/>
</g>
</svg>
