<?xml version="1.0" standalone="no"?>
<!DOCTYPE svg PUBLIC "-//W3C//DTD SVG 20010904//EN"
 "http://www.w3.org/TR/2001/REC-SVG-20010904/DTD/svg10.dtd">
<svg version="1.0" xmlns="http://www.w3.org/2000/svg"
 width="372.000000pt" height="449.000000pt" viewBox="0 0 372.000000 449.000000"
 preserveAspectRatio="xMidYMid meet">
<metadata>
Created by potrace 1.14, written by Peter Selinger 2001-2017
</metadata>
<g transform="translate(0.000000,449.000000) scale(0.100000,-0.100000)"
fill="#000000" stroke="none">
<path fill="#000000" stroke="none" d="M2568 4424 l-238 -64 -132 -86 c-73
-48 -202 -134 -286 -192 l-154 -107 -69 -117 c-38 -64 -69 -121 -69 -127 0 -5
276 -195 613 -423 501 -338 625 -417 684 -438 l73 -25 0 -51 0 -51 -48 -7
c-45 -6 -60 -1 -237 80 -188 86 -195 90 -684 425 -470 322 -494 337 -510 320
-9 -10 -188 -123 -397 -250 l-381 -231 -126 -213 c-69 -116 -191 -326 -271
-465 -80 -140 -182 -306 -226 -370 l-79 -117 -15 -143 -15 -142 129 -248 c70
-136 216 -401 323 -590 l194 -342 -83 -212 c-46 -116 -81 -214 -78 -217 3 -3
213 -9 467 -14 370 -6 515 -5 728 8 146 8 302 15 347 15 114 0 112 -2 112 89
l0 76 -163 212 -162 212 -225 436 c-124 240 -226 441 -228 448 -1 7 52 31 138
61 130 44 143 51 176 92 l36 43 80 -93 80 -94 78 33 c44 19 166 70 272 115
l194 81 209 175 c130 108 268 235 361 332 l152 157 23 -22 c13 -12 77 -58 142
-101 l118 -80 56 24 c30 14 74 34 96 46 45 23 147 106 147 121 0 4 -41 77 -91
162 -84 143 -93 164 -131 302 l-40 148 -67 65 c-36 35 -153 150 -259 254
l-193 189 127 128 128 128 8 143 c4 79 9 190 10 247 l3 105 -195 112 c-107 62
-199 113 -205 112 -5 0 -117 -29 -247 -64z"/>
</g>
</svg>
