<?xml version="1.0" standalone="no"?>
<!DOCTYPE svg PUBLIC "-//W3C//DTD SVG 20010904//EN"
 "http://www.w3.org/TR/2001/REC-SVG-20010904/DTD/svg10.dtd">
<svg version="1.0" xmlns="http://www.w3.org/2000/svg"
 width="41.000000pt" height="54.000000pt" viewBox="0 0 41.000000 54.000000"
 preserveAspectRatio="xMidYMid meet">
<metadata>
Created by potrace 1.14, written by Peter Selinger 2001-2017
</metadata>
<g transform="translate(0.000000,54.000000) scale(0.100000,-0.100000)"
fill="#000000" stroke="none">
<path fill="#000000" stroke="none" d="M174 529 c-20 -7 -34 -44 -34 -92 0
-11 -7 -28 -16 -38 -9 -10 -25 -53 -36 -96 -10 -43 -35 -106 -54 -140 -19 -34
-34 -63 -34 -66 0 -2 14 -21 30 -42 26 -33 30 -35 30 -16 0 12 19 43 44 69
l44 46 20 -40 c20 -39 24 -41 98 -58 43 -9 93 -26 113 -38 31 -20 34 -20 28
-4 -4 11 -44 126 -88 257 -85 250 -100 275 -145 258z"/>
</g>
</svg>
