<?xml version="1.0" standalone="no"?>
<!DOCTYPE svg PUBLIC "-//W3C//DTD SVG 20010904//EN"
 "http://www.w3.org/TR/2001/REC-SVG-20010904/DTD/svg10.dtd">
<svg version="1.0" xmlns="http://www.w3.org/2000/svg"
 width="15.000000pt" height="20.000000pt" viewBox="0 0 15.000000 20.000000"
 preserveAspectRatio="xMidYMid meet">
<metadata>
Created by potrace 1.14, written by Peter Selinger 2001-2017
</metadata>
<g transform="translate(0.000000,20.000000) scale(0.100000,-0.100000)"
fill="#000000" stroke="none">
<path fill="#000000" stroke="none" d="M40 185 c-7 -8 -9 -15 -4 -15 5 -1 -2
-7 -16 -15 -20 -11 -21 -14 -7 -15 14 0 17 -7 16 -32 -2 -18 -2 -51 0 -73 2
-37 3 -39 16 -21 9 12 15 42 15 73 0 52 1 53 28 53 16 0 36 8 45 18 23 25 9
37 -16 15 -19 -17 -20 -17 -34 5 -18 26 -26 27 -43 7z"/>
</g>
</svg>
