<?xml version="1.0" standalone="no"?>
<!DOCTYPE svg PUBLIC "-//W3C//DTD SVG 20010904//EN"
 "http://www.w3.org/TR/2001/REC-SVG-20010904/DTD/svg10.dtd">
<svg version="1.0" xmlns="http://www.w3.org/2000/svg"
 width="164.000000pt" height="207.000000pt" viewBox="0 0 164.000000 207.000000"
 preserveAspectRatio="xMidYMid meet">
<metadata>
Created by potrace 1.14, written by Peter Selinger 2001-2017
</metadata>
<g transform="translate(0.000000,207.000000) scale(0.100000,-0.100000)"
fill="#000000" stroke="none">
<path fill="#000000" stroke="none" d="M625 2045 c-44 -13 -151 -43 -237 -66
l-157 -42 -66 -61 c-58 -54 -70 -73 -114 -172 -36 -84 -44 -111 -32 -108 9 1
33 6 54 9 22 4 37 11 37 20 0 8 30 48 67 90 62 71 76 82 195 141 70 35 128 62
128 59 0 -3 -16 -29 -35 -58 -30 -44 -50 -60 -136 -107 l-101 -55 6 -170 c4
-93 9 -201 13 -238 l6 -68 98 -57 99 -57 0 -55 c0 -50 -37 -293 -74 -480 -12
-61 -54 -194 -91 -292 -6 -16 1 -18 69 -18 42 0 121 -7 174 -16 85 -14 104
-14 152 -2 l55 15 -30 15 c-16 9 -50 37 -74 62 l-45 45 -4 138 c-5 163 19 292
69 380 l30 52 -21 41 -21 42 33 -7 c18 -3 92 -22 163 -42 104 -28 146 -45 211
-86 l82 -51 6 -58 c6 -57 4 -62 -58 -186 -101 -203 -166 -358 -173 -411 -6
-49 -5 -49 38 -81 87 -64 138 -80 258 -80 71 0 123 -5 151 -15 23 -8 54 -15
69 -15 23 0 16 10 -70 97 -124 127 -123 126 -107 152 11 19 10 27 -8 59 l-21
37 70 173 c38 95 71 171 73 169 2 -2 -6 -51 -19 -110 l-24 -105 31 23 c17 13
58 31 91 40 33 10 64 21 69 25 4 5 3 55 -4 113 l-13 104 77 160 76 160 0 140
0 140 -84 223 -84 224 -73 51 c-131 92 -294 144 -539 175 -47 6 -101 12 -120
15 -20 2 -69 -6 -115 -20z"/>
</g>
</svg>
