<?xml version="1.0" standalone="no"?>
<!DOCTYPE svg PUBLIC "-//W3C//DTD SVG 20010904//EN"
 "http://www.w3.org/TR/2001/REC-SVG-20010904/DTD/svg10.dtd">
<svg version="1.0" xmlns="http://www.w3.org/2000/svg"
 width="42.000000pt" height="55.000000pt" viewBox="0 0 42.000000 55.000000"
 preserveAspectRatio="xMidYMid meet">
<metadata>
Created by potrace 1.14, written by Peter Selinger 2001-2017
</metadata>
<g transform="translate(0.000000,55.000000) scale(0.100000,-0.100000)"
fill="#000000" stroke="none">
<path fill="#000000" stroke="none" d="M20 483 l-20 -66 25 -27 c14 -14 25
-34 25 -44 0 -10 11 -31 25 -48 14 -16 25 -35 25 -43 0 -15 43 -45 64 -45 11
0 16 -15 18 -62 l3 -63 32 2 c24 2 35 -2 43 -18 9 -15 15 -18 24 -10 10 8 17
7 26 -4 7 -8 20 -15 30 -15 9 0 25 -9 35 -20 14 -15 21 -17 32 -9 10 9 13 65
13 269 l0 257 -77 7 c-42 3 -127 6 -189 6 l-113 0 -21 -67z"/>
</g>
</svg>
