<?xml version="1.0" standalone="no"?>
<!DOCTYPE svg PUBLIC "-//W3C//DTD SVG 20010904//EN"
 "http://www.w3.org/TR/2001/REC-SVG-20010904/DTD/svg10.dtd">
<svg version="1.0" xmlns="http://www.w3.org/2000/svg"
 width="92.000000pt" height="115.000000pt" viewBox="0 0 92.000000 115.000000"
 preserveAspectRatio="xMidYMid meet">
<metadata>
Created by potrace 1.14, written by Peter Selinger 2001-2017
</metadata>
<g transform="translate(0.000000,115.000000) scale(0.100000,-0.100000)"
fill="#000000" stroke="none">
<path fill="#000000" stroke="none" d="M685 1141 c-23 -4 -68 -27 -106 -54
-66 -46 -68 -47 -144 -47 -55 0 -102 -8 -164 -26 -80 -25 -91 -32 -159 -98
-95 -92 -116 -126 -108 -171 5 -27 12 -35 27 -35 12 0 43 -12 70 -27 42 -24
50 -33 58 -73 6 -25 31 -90 55 -145 34 -74 52 -102 68 -107 47 -13 107 -7 177
17 59 20 72 21 67 9 -3 -8 -13 -58 -22 -111 -22 -126 -11 -183 45 -237 l39
-38 45 30 c24 17 51 42 61 56 9 14 59 60 111 102 80 64 96 82 106 117 9 36 8
49 -17 111 -39 100 -153 295 -202 346 -23 23 -42 51 -42 61 0 10 18 43 39 74
27 38 44 78 56 128 25 111 26 117 16 117 -5 0 -15 2 -23 4 -7 2 -31 0 -53 -3z"/>
</g>
</svg>
