<?xml version="1.0" standalone="no"?>
<!DOCTYPE svg PUBLIC "-//W3C//DTD SVG 20010904//EN"
 "http://www.w3.org/TR/2001/REC-SVG-20010904/DTD/svg10.dtd">
<svg version="1.0" xmlns="http://www.w3.org/2000/svg"
 width="45.000000pt" height="55.000000pt" viewBox="0 0 45.000000 55.000000"
 preserveAspectRatio="xMidYMid meet">
<metadata>
Created by potrace 1.14, written by Peter Selinger 2001-2017
</metadata>
<g transform="translate(0.000000,55.000000) scale(0.100000,-0.100000)"
fill="#000000" stroke="none">
<path fill="#000000" stroke="none" d="M6 528 c-11 -41 -6 -91 10 -109 27 -30
43 -90 44 -161 l0 -68 58 -56 c112 -111 129 -122 204 -125 63 -4 69 -2 97 25
17 17 31 35 31 41 0 7 -23 31 -50 54 -59 50 -91 109 -113 206 -27 118 -38 136
-110 178 -51 29 -74 37 -114 37 -44 0 -51 -3 -57 -22z"/>
</g>
</svg>
