<?xml version="1.0" standalone="no"?>
<!DOCTYPE svg PUBLIC "-//W3C//DTD SVG 20010904//EN"
 "http://www.w3.org/TR/2001/REC-SVG-20010904/DTD/svg10.dtd">
<svg version="1.0" xmlns="http://www.w3.org/2000/svg"
 width="16.000000pt" height="20.000000pt" viewBox="0 0 16.000000 20.000000"
 preserveAspectRatio="xMidYMid meet">
<metadata>
Created by potrace 1.14, written by Peter Selinger 2001-2017
</metadata>
<g transform="translate(0.000000,20.000000) scale(0.100000,-0.100000)"
fill="#000000" stroke="none">
<path fill="#000000" stroke="none" d="M82 165 c2 -19 0 -35 -4 -35 -4 0 -8
-7 -8 -15 0 -11 -8 -13 -30 -9 -37 8 -48 -13 -31 -59 10 -30 10 -30 7 -4 -3
24 -1 26 13 15 9 -7 24 -23 34 -36 22 -26 59 -29 82 -5 13 13 16 30 13 79 -4
68 -25 104 -61 104 -16 0 -19 -6 -15 -35z"/>
</g>
</svg>
