<?xml version="1.0" standalone="no"?>
<!DOCTYPE svg PUBLIC "-//W3C//DTD SVG 20010904//EN"
 "http://www.w3.org/TR/2001/REC-SVG-20010904/DTD/svg10.dtd">
<svg version="1.0" xmlns="http://www.w3.org/2000/svg"
 width="237.000000pt" height="292.000000pt" viewBox="0 0 237.000000 292.000000"
 preserveAspectRatio="xMidYMid meet">
<metadata>
Created by potrace 1.14, written by Peter Selinger 2001-2017
</metadata>
<g transform="translate(0.000000,292.000000) scale(0.100000,-0.100000)"
fill="#000000" stroke="none">
<path fill="#000000" stroke="none" d="M1625 2861 l-90 -59 -97 11 -97 10 -80
-53 c-78 -51 -82 -55 -134 -154 l-54 -101 -12 -175 c-11 -161 -10 -185 9 -305
11 -71 20 -137 20 -146 0 -12 -36 -27 -142 -59 -79 -24 -150 -46 -158 -51 -9
-4 -73 -81 -142 -171 -110 -143 -135 -183 -191 -304 -63 -137 -64 -139 -46
-160 19 -20 18 -21 -20 -58 -53 -52 -89 -107 -220 -338 l-112 -198 -25 -227
c-13 -126 -25 -240 -27 -255 -3 -25 0 -27 57 -37 158 -27 533 -34 1289 -22
413 6 752 13 753 14 1 1 -10 74 -25 162 l-27 160 27 171 c25 160 30 179 82
290 53 115 112 288 176 519 34 120 37 155 19 173 -8 8 -11 42 -9 100 l2 88
-100 88 c-90 80 -99 91 -89 109 6 12 34 59 62 106 l52 86 -11 70 c-7 44 -25
98 -49 144 -33 65 -36 77 -25 98 11 20 5 42 -57 198 l-69 174 -170 81 c-93 44
-172 80 -175 80 -3 0 -45 -27 -95 -59z"/>
</g>
</svg>
