<?xml version="1.0" standalone="no"?>
<!DOCTYPE svg PUBLIC "-//W3C//DTD SVG 20010904//EN"
 "http://www.w3.org/TR/2001/REC-SVG-20010904/DTD/svg10.dtd">
<svg version="1.0" xmlns="http://www.w3.org/2000/svg"
 width="235.000000pt" height="296.000000pt" viewBox="0 0 235.000000 296.000000"
 preserveAspectRatio="xMidYMid meet">
<metadata>
Created by potrace 1.14, written by Peter Selinger 2001-2017
</metadata>
<g transform="translate(0.000000,296.000000) scale(0.100000,-0.100000)"
fill="#000000" stroke="none">
<path fill="#000000" stroke="none" d="M1140 2942 c-115 -31 -440 -228 -552
-335 -61 -58 -68 -69 -68 -103 0 -22 -14 -86 -30 -144 -27 -96 -30 -118 -30
-260 1 -116 4 -161 15 -180 8 -14 14 -47 15 -74 0 -43 -5 -55 -43 -101 l-43
-52 8 -99 c6 -65 16 -116 30 -147 21 -45 21 -50 6 -75 -16 -25 -22 -27 -105
-32 l-88 -5 -104 -85 c-58 -47 -108 -87 -112 -90 -5 -3 -13 -219 -18 -480 -6
-261 -13 -522 -14 -578 l-4 -104 996 6 c548 4 1055 9 1127 12 l131 6 46 256
47 256 -100 173 c-55 96 -123 228 -150 293 -49 117 -50 122 -50 223 l0 103 79
139 c75 135 79 146 115 302 l38 163 -22 132 c-12 73 -25 146 -30 161 -5 16
-57 105 -115 198 -101 160 -113 175 -248 304 l-141 135 -86 0 c-74 0 -110 7
-256 50 -93 27 -171 49 -174 49 -3 0 -34 -8 -70 -17z"/>
</g>
</svg>
