<?xml version="1.0" standalone="no"?>
<!DOCTYPE svg PUBLIC "-//W3C//DTD SVG 20010904//EN"
 "http://www.w3.org/TR/2001/REC-SVG-20010904/DTD/svg10.dtd">
<svg version="1.0" xmlns="http://www.w3.org/2000/svg"
 width="28.000000pt" height="34.000000pt" viewBox="0 0 28.000000 34.000000"
 preserveAspectRatio="xMidYMid meet">
<metadata>
Created by potrace 1.14, written by Peter Selinger 2001-2017
</metadata>
<g transform="translate(0.000000,34.000000) scale(0.100000,-0.100000)"
fill="#000000" stroke="none">
<path fill="#000000" stroke="none" d="M122 328 c-12 -6 -25 -21 -28 -34 -3
-12 -16 -25 -29 -28 -37 -9 -53 -32 -60 -86 -6 -41 -4 -55 11 -71 9 -10 23
-19 31 -19 8 0 13 -11 13 -28 0 -16 8 -36 18 -45 15 -13 22 -14 42 -4 20 10
26 22 31 61 8 74 69 110 69 41 0 -42 22 -47 45 -11 13 19 14 29 5 45 -6 12 -7
21 -3 21 4 0 -7 13 -25 29 -26 25 -31 35 -26 60 5 23 1 35 -19 55 -28 28 -40
30 -75 14z"/>
</g>
</svg>
