<?xml version="1.0" standalone="no"?>
<!DOCTYPE svg PUBLIC "-//W3C//DTD SVG 20010904//EN"
 "http://www.w3.org/TR/2001/REC-SVG-20010904/DTD/svg10.dtd">
<svg version="1.0" xmlns="http://www.w3.org/2000/svg"
 width="80.000000pt" height="97.000000pt" viewBox="0 0 80.000000 97.000000"
 preserveAspectRatio="xMidYMid meet">
<metadata>
Created by potrace 1.14, written by Peter Selinger 2001-2017
</metadata>
<g transform="translate(0.000000,97.000000) scale(0.100000,-0.100000)"
fill="#000000" stroke="none">
<path fill="#000000" stroke="none" d="M332 963 c-30 -6 -48 -49 -30 -71 7 -8
25 -23 40 -32 l28 -17 -51 -56 c-28 -32 -55 -55 -59 -52 -5 3 -16 31 -25 63
-19 67 -35 82 -87 82 -28 0 -46 -7 -64 -25 -23 -24 -25 -31 -21 -93 2 -37 11
-84 19 -106 17 -44 9 -87 -33 -167 -20 -39 -23 -62 -27 -209 -2 -91 -9 -174
-14 -184 -8 -14 -6 -21 6 -28 9 -5 16 -15 16 -23 0 -8 11 -22 24 -30 21 -14
26 -14 55 2 37 21 39 41 9 100 -20 39 -21 47 -9 80 7 20 19 65 27 101 7 36 21
76 30 89 l16 25 27 -26 c15 -14 36 -26 47 -26 11 0 37 -17 57 -38 34 -35 37
-43 37 -95 0 -46 4 -58 20 -67 11 -6 46 -31 76 -57 55 -44 59 -45 108 -40 36
4 57 2 70 -8 11 -8 37 -15 58 -15 l39 0 -41 53 c-27 37 -40 64 -40 85 0 18 2
32 4 32 2 0 24 -8 48 -18 24 -9 58 -16 76 -14 28 3 32 7 32 33 0 61 -66 162
-132 204 -27 17 -62 55 -95 103 -28 43 -64 94 -79 115 l-28 38 22 67 c12 37
24 86 28 108 l6 41 -50 12 c-31 8 -60 23 -78 42 -15 16 -30 28 -33 28 -3 -1
-16 -4 -29 -6z"/>
</g>
</svg>
