<?xml version="1.0" standalone="no"?>
<!DOCTYPE svg PUBLIC "-//W3C//DTD SVG 20010904//EN"
 "http://www.w3.org/TR/2001/REC-SVG-20010904/DTD/svg10.dtd">
<svg version="1.0" xmlns="http://www.w3.org/2000/svg"
 width="19.000000pt" height="25.000000pt" viewBox="0 0 19.000000 25.000000"
 preserveAspectRatio="xMidYMid meet">
<metadata>
Created by potrace 1.14, written by Peter Selinger 2001-2017
</metadata>
<g transform="translate(0.000000,25.000000) scale(0.100000,-0.100000)"
fill="#000000" stroke="none">
<path fill="#000000" stroke="none" d="M90 226 c0 -16 -6 -26 -15 -26 -8 0
-21 -13 -30 -30 -8 -16 -22 -33 -31 -38 -15 -8 -15 -10 0 -15 10 -4 20 1 26
13 16 29 30 24 30 -9 0 -22 -9 -37 -35 -57 -45 -34 -47 -64 -5 -64 28 0 30 3
30 34 0 49 18 54 22 6 l3 -39 43 39 c24 22 47 40 52 40 14 0 12 22 -5 44 -8
11 -15 29 -16 40 -2 56 -69 116 -69 62z"/>
</g>
</svg>
