<?xml version="1.0" standalone="no"?>
<!DOCTYPE svg PUBLIC "-//W3C//DTD SVG 20010904//EN"
 "http://www.w3.org/TR/2001/REC-SVG-20010904/DTD/svg10.dtd">
<svg version="1.0" xmlns="http://www.w3.org/2000/svg"
 width="259.000000pt" height="311.000000pt" viewBox="0 0 259.000000 311.000000"
 preserveAspectRatio="xMidYMid meet">
<metadata>
Created by potrace 1.14, written by Peter Selinger 2001-2017
</metadata>
<g transform="translate(0.000000,311.000000) scale(0.100000,-0.100000)"
fill="#000000" stroke="none">
<path fill="#000000" stroke="none" d="M1223 3028 l-133 -79 0 -160 0 -160 70
-99 c39 -54 70 -101 70 -104 0 -2 -73 -69 -162 -148 l-162 -143 -92 -191 -93
-190 -256 -287 c-141 -157 -264 -288 -273 -291 -9 -2 -56 -16 -104 -31 l-88
-26 0 -34 c0 -29 4 -36 25 -41 14 -3 25 -9 25 -13 0 -3 -11 -45 -24 -92 l-24
-87 65 -47 c77 -55 55 -65 206 103 91 100 129 133 349 293 136 99 256 192 266
207 10 15 68 114 128 219 l109 193 81 0 c45 0 101 3 126 6 l45 6 81 -117 80
-118 -261 -189 -262 -188 -48 -168 -47 -167 -30 -360 c-16 -198 -30 -374 -30
-392 0 -38 4 -40 125 -49 l90 -6 90 395 c50 217 92 394 95 392 3 -2 26 -60 50
-128 l45 -125 208 105 c115 57 211 102 213 100 7 -7 -95 -731 -109 -774 l-14
-43 136 7 c75 3 138 7 139 9 2 1 36 160 75 353 l72 350 256 263 255 263 -12
176 -13 176 -225 474 -225 474 -243 55 -243 56 -49 195 -50 195 -85 30 -86 31
-132 -79z"/>
</g>
</svg>
