<?xml version="1.0" standalone="no"?>
<!DOCTYPE svg PUBLIC "-//W3C//DTD SVG 20010904//EN"
 "http://www.w3.org/TR/2001/REC-SVG-20010904/DTD/svg10.dtd">
<svg version="1.0" xmlns="http://www.w3.org/2000/svg"
 width="71.000000pt" height="94.000000pt" viewBox="0 0 71.000000 94.000000"
 preserveAspectRatio="xMidYMid meet">
<metadata>
Created by potrace 1.14, written by Peter Selinger 2001-2017
</metadata>
<g transform="translate(0.000000,94.000000) scale(0.100000,-0.100000)"
fill="#000000" stroke="none">
<path fill="#000000" stroke="none" d="M310 931 c0 -4 -22 -23 -49 -43 -42
-32 -49 -43 -55 -81 -5 -32 -2 -57 9 -83 27 -65 14 -92 -69 -147 -40 -26 -85
-60 -101 -77 -26 -27 -27 -31 -13 -51 13 -20 12 -33 -10 -125 l-24 -103 26
-55 c14 -30 26 -59 26 -63 0 -5 7 -19 17 -32 l16 -24 17 33 17 32 37 -33 38
-32 22 28 c18 23 27 26 52 21 26 -6 31 -2 55 36 24 41 25 45 12 93 -31 108
-12 237 51 364 18 36 39 84 46 106 7 22 25 58 41 81 l28 41 -43 44 c-29 30
-58 49 -94 61 -29 9 -52 13 -52 9z"/>
<path fill="#000000" stroke="none" d="M502 532 c-61 -90 -62 -92 -82 -216
-11 -69 -20 -128 -20 -131 0 -2 21 -15 48 -29 26 -13 71 -49 100 -80 77 -81
102 -92 120 -52 8 18 7 39 -5 85 l-16 61 26 20 c36 29 39 86 10 184 -12 44
-23 89 -23 100 0 23 -24 63 -68 115 l-29 34 -61 -91z"/>
</g>
</svg>
