<?xml version="1.0" standalone="no"?>
<!DOCTYPE svg PUBLIC "-//W3C//DTD SVG 20010904//EN"
 "http://www.w3.org/TR/2001/REC-SVG-20010904/DTD/svg10.dtd">
<svg version="1.0" xmlns="http://www.w3.org/2000/svg"
 width="32.000000pt" height="38.000000pt" viewBox="0 0 32.000000 38.000000"
 preserveAspectRatio="xMidYMid meet">
<metadata>
Created by potrace 1.14, written by Peter Selinger 2001-2017
</metadata>
<g transform="translate(0.000000,38.000000) scale(0.100000,-0.100000)"
fill="#000000" stroke="none">
<path fill="#000000" stroke="none" d="M73 362 c-30 -23 -39 -73 -20 -103 15
-24 13 -79 -3 -79 -5 0 -18 -15 -29 -34 -27 -44 -27 -87 0 -104 12 -7 22 -12
23 -10 2 2 8 12 13 22 10 17 12 15 24 -17 7 -21 19 -37 26 -37 31 0 189 44
202 55 11 11 5 17 -36 35 -59 25 -90 67 -69 95 11 15 16 16 37 5 13 -7 37 -24
52 -39 l29 -26 -4 25 c-2 16 -20 37 -50 60 -43 31 -48 39 -48 73 0 22 -8 52
-17 68 -15 25 -23 29 -63 29 -27 0 -54 -7 -67 -18z"/>
</g>
</svg>
