<?xml version="1.0" standalone="no"?>
<!DOCTYPE svg PUBLIC "-//W3C//DTD SVG 20010904//EN"
 "http://www.w3.org/TR/2001/REC-SVG-20010904/DTD/svg10.dtd">
<svg version="1.0" xmlns="http://www.w3.org/2000/svg"
 width="208.000000pt" height="263.000000pt" viewBox="0 0 208.000000 263.000000"
 preserveAspectRatio="xMidYMid meet">
<metadata>
Created by potrace 1.14, written by Peter Selinger 2001-2017
</metadata>
<g transform="translate(0.000000,263.000000) scale(0.100000,-0.100000)"
fill="#000000" stroke="none">
<path fill="#000000" stroke="none" d="M600 2618 c-19 -5 -78 -39 -131 -75
-79 -53 -107 -79 -158 -148 l-61 -83 0 -106 0 -107 30 16 c16 8 36 27 43 41
l13 26 29 -44 c34 -52 156 -180 206 -217 l37 -27 -24 -57 c-13 -31 -48 -94
-77 -139 -29 -46 -73 -119 -97 -163 -23 -44 -86 -132 -138 -195 -91 -110 -179
-236 -217 -310 -10 -19 -21 -37 -25 -40 -15 -11 -30 -50 -30 -79 0 -47 33 -64
90 -47 48 14 48 15 96 148 13 39 30 58 103 114 47 38 113 93 145 124 l59 55
-6 -40 c-4 -23 0 -63 9 -99 14 -53 26 -70 117 -168 115 -123 184 -219 259
-358 28 -52 72 -131 98 -175 57 -96 68 -163 50 -309 -11 -86 -11 -97 6 -125
16 -26 23 -30 49 -26 16 2 82 9 145 15 100 10 269 36 276 43 1 1 34 57 73 125
l72 122 -27 78 c-24 69 -35 86 -113 165 -82 84 -85 89 -67 103 11 7 31 14 45
14 14 0 106 7 203 17 l178 16 77 65 c43 35 81 67 85 71 4 3 18 77 31 163 23
154 24 158 8 280 l-17 123 -212 325 -212 325 -176 146 -175 146 -107 36 c-71
24 -133 37 -185 41 l-78 5 -124 100 c-68 56 -127 101 -132 100 -4 0 -24 -5
-43 -11z"/>
</g>
</svg>
