<?xml version="1.0" standalone="no"?>
<!DOCTYPE svg PUBLIC "-//W3C//DTD SVG 20010904//EN"
 "http://www.w3.org/TR/2001/REC-SVG-20010904/DTD/svg10.dtd">
<svg version="1.0" xmlns="http://www.w3.org/2000/svg"
 width="250.000000pt" height="298.000000pt" viewBox="0 0 250.000000 298.000000"
 preserveAspectRatio="xMidYMid meet">
<metadata>
Created by potrace 1.14, written by Peter Selinger 2001-2017
</metadata>
<g transform="translate(0.000000,298.000000) scale(0.100000,-0.100000)"
fill="#000000" stroke="none">
<path fill="#000000" stroke="none" d="M1664 2961 c-76 -28 -93 -42 -120 -93
-13 -27 -31 -48 -39 -48 -11 0 -15 -12 -15 -42 0 -48 27 -100 60 -118 19 -10
21 -17 15 -65 -6 -48 -5 -54 13 -60 12 -3 24 -14 27 -24 3 -10 28 -28 55 -41
l50 -24 -34 -35 c-19 -20 -55 -78 -80 -128 -57 -115 -105 -189 -145 -228 -25
-23 -30 -35 -26 -55 5 -24 -3 -30 -154 -108 l-159 -83 -32 19 c-26 16 -39 18
-73 11 -72 -16 -87 -28 -87 -69 0 -54 42 -143 74 -158 34 -15 46 -15 46 1 0
36 167 116 414 197 56 19 71 28 79 51 9 22 19 29 51 34 23 4 56 9 74 12 28 4
32 2 32 -16 0 -11 -7 -38 -16 -60 -15 -37 -34 -51 -76 -51 -9 0 -34 -12 -55
-26 -90 -62 -305 -154 -358 -154 -30 0 -33 -3 -38 -37 -4 -27 1 -51 17 -83 19
-40 27 -46 61 -50 l39 -5 -85 -34 c-46 -19 -115 -50 -153 -69 -38 -18 -90 -36
-115 -38 -25 -2 -111 -22 -191 -43 -80 -22 -161 -42 -180 -46 -19 -4 -43 -14
-52 -22 -13 -12 -29 -13 -70 -7 -29 4 -56 7 -60 6 -11 -3 -10 46 2 68 12 23
-4 37 -25 20 -10 -9 -16 -7 -24 7 -9 14 -10 4 -5 -41 l7 -59 -38 7 c-21 4 -57
22 -79 40 -48 38 -132 86 -152 86 -23 0 -44 -54 -37 -96 7 -46 20 -74 34 -74
5 0 25 -16 45 -35 20 -21 45 -35 59 -35 25 0 67 -46 79 -86 13 -43 39 -61 98
-68 50 -6 57 -5 62 12 9 26 122 76 222 98 43 9 129 20 189 24 102 7 124 13
290 73 162 60 183 65 208 54 28 -12 28 -13 21 -67 -9 -65 -15 -339 -13 -641 1
-120 -2 -231 -6 -248 -6 -30 -8 -31 -47 -24 l-41 6 7 -36 c8 -41 -8 -57 -85
-82 -26 -9 -55 -25 -65 -37 l-19 -20 120 7 c96 5 133 4 183 -9 40 -11 81 -15
115 -11 95 11 97 12 97 48 0 53 -29 137 -46 137 -14 0 -15 15 -9 113 4 61 15
144 26 182 17 65 17 76 4 150 -8 44 -14 95 -15 113 0 29 3 32 28 32 24 0 40
14 98 87 38 48 87 112 109 143 37 53 42 56 69 49 17 -5 31 -7 32 -6 27 35 110
182 126 224 24 64 52 115 85 156 13 16 23 35 23 42 0 8 28 55 62 105 61 92 62
92 66 176 4 82 15 101 25 47 3 -16 17 -56 31 -90 15 -35 26 -82 27 -110 1 -53
-15 -155 -31 -197 -5 -15 -10 -52 -10 -81 0 -54 0 -54 35 -61 39 -7 40 -9 20
-44 -13 -24 -12 -27 27 -63 38 -35 45 -38 87 -33 25 2 48 5 50 5 2 1 1 8 -3
16 -3 9 0 15 9 15 25 0 18 86 -15 180 -16 47 -30 99 -30 115 0 17 -7 58 -16
90 -23 89 -57 294 -55 340 1 22 -9 82 -21 134 -18 81 -28 103 -70 157 -26 35
-64 92 -83 127 -34 61 -97 128 -209 222 l-48 40 23 111 c21 102 22 115 9 168
-14 58 -14 58 -83 93 -87 43 -151 50 -223 24z"/>
</g>
</svg>
