<?xml version="1.0" standalone="no"?>
<!DOCTYPE svg PUBLIC "-//W3C//DTD SVG 20010904//EN"
 "http://www.w3.org/TR/2001/REC-SVG-20010904/DTD/svg10.dtd">
<svg version="1.0" xmlns="http://www.w3.org/2000/svg"
 width="160.000000pt" height="194.000000pt" viewBox="0 0 160.000000 194.000000"
 preserveAspectRatio="xMidYMid meet">
<metadata>
Created by potrace 1.14, written by Peter Selinger 2001-2017
</metadata>
<g transform="translate(0.000000,194.000000) scale(0.100000,-0.100000)"
fill="#000000" stroke="none">
<path fill="#000000" stroke="none" d="M493 1832 c-93 -140 -156 -260 -183
-349 -12 -40 -41 -110 -64 -155 -49 -99 -173 -306 -216 -363 l-30 -41 20 -309
21 -310 41 -115 c22 -63 45 -120 52 -126 6 -7 68 -24 137 -38 117 -24 144 -26
380 -25 153 0 246 4 234 9 -11 5 -64 27 -117 50 -90 39 -101 47 -142 101 l-44
60 21 38 21 38 66 -22 c36 -13 98 -35 137 -49 l73 -27 89 42 89 41 16 88 c13
70 14 98 5 142 l-11 56 -117 6 c-64 3 -142 8 -173 12 l-56 6 -31 58 -31 58 57
46 c39 31 68 46 87 46 34 0 144 -68 180 -111 20 -23 39 -31 108 -45 83 -16 85
-16 125 5 51 25 93 78 93 115 0 15 -6 55 -14 89 -8 34 -17 74 -20 88 -4 16
-21 37 -46 53 -22 15 -65 49 -95 76 -30 28 -59 50 -63 50 -4 0 -15 7 -25 15
-18 13 -18 15 4 44 12 17 45 46 73 64 l51 34 44 -16 c35 -13 48 -25 64 -58 21
-44 29 -48 113 -59 45 -5 55 -3 91 22 36 26 43 38 68 120 21 72 25 96 16 112
-6 11 -11 30 -11 41 0 14 -83 82 -306 251 l-306 232 -113 5 c-96 4 -113 2
-118 -11 -9 -22 -24 -20 -30 4 -4 18 -13 20 -74 20 l-68 0 -72 -108z"/>
</g>
</svg>
