<?xml version="1.0" standalone="no"?>
<!DOCTYPE svg PUBLIC "-//W3C//DTD SVG 20010904//EN"
 "http://www.w3.org/TR/2001/REC-SVG-20010904/DTD/svg10.dtd">
<svg version="1.0" xmlns="http://www.w3.org/2000/svg"
 width="28.000000pt" height="34.000000pt" viewBox="0 0 28.000000 34.000000"
 preserveAspectRatio="xMidYMid meet">
<metadata>
Created by potrace 1.14, written by Peter Selinger 2001-2017
</metadata>
<g transform="translate(0.000000,34.000000) scale(0.100000,-0.100000)"
fill="#000000" stroke="none">
<path fill="#000000" stroke="none" d="M69 313 c-1 -16 -1 -42 0 -60 2 -24 -2
-33 -18 -38 -25 -7 -38 -48 -47 -144 l-7 -74 119 8 c81 5 124 12 135 21 46 41
17 190 -42 214 -20 9 -29 19 -29 35 0 30 -44 65 -81 65 -25 0 -29 -4 -30 -27z"/>
</g>
</svg>
