<?xml version="1.0" standalone="no"?>
<!DOCTYPE svg PUBLIC "-//W3C//DTD SVG 20010904//EN"
 "http://www.w3.org/TR/2001/REC-SVG-20010904/DTD/svg10.dtd">
<svg version="1.0" xmlns="http://www.w3.org/2000/svg"
 width="27.000000pt" height="33.000000pt" viewBox="0 0 27.000000 33.000000"
 preserveAspectRatio="xMidYMid meet">
<metadata>
Created by potrace 1.14, written by Peter Selinger 2001-2017
</metadata>
<g transform="translate(0.000000,33.000000) scale(0.100000,-0.100000)"
fill="#000000" stroke="none">
<path fill="#000000" stroke="none" d="M125 307 c-38 -27 -45 -37 -45 -65 0
-13 -9 -36 -20 -52 -29 -40 -62 -122 -53 -130 16 -14 220 -59 241 -53 19 5 22
12 22 55 0 57 -30 123 -60 133 -12 4 -20 15 -20 29 0 24 -18 86 -29 98 -3 4
-19 -3 -36 -15z"/>
</g>
</svg>
