<?xml version="1.0" standalone="no"?>
<!DOCTYPE svg PUBLIC "-//W3C//DTD SVG 20010904//EN"
 "http://www.w3.org/TR/2001/REC-SVG-20010904/DTD/svg10.dtd">
<svg version="1.0" xmlns="http://www.w3.org/2000/svg"
 width="158.000000pt" height="195.000000pt" viewBox="0 0 158.000000 195.000000"
 preserveAspectRatio="xMidYMid meet">
<metadata>
Created by potrace 1.14, written by Peter Selinger 2001-2017
</metadata>
<g transform="translate(0.000000,195.000000) scale(0.100000,-0.100000)"
fill="#000000" stroke="none">
<path fill="#000000" stroke="none" d="M122 1880 l-52 -69 -21 -163 c-11 -90
-26 -271 -34 -403 l-13 -240 69 -65 c57 -55 84 -72 172 -108 57 -24 163 -62
235 -85 l132 -42 -45 -79 c-25 -43 -45 -85 -45 -92 0 -8 21 -70 46 -137 38
-98 57 -134 99 -182 28 -33 75 -95 105 -138 l53 -77 26 16 c14 10 47 31 73 48
26 17 48 37 48 44 0 16 -34 82 -76 149 -21 33 -36 72 -42 110 -8 56 -7 61 36
148 35 71 101 181 128 214 2 2 14 -7 27 -20 13 -13 54 -53 91 -88 36 -36 69
-75 72 -87 3 -13 -4 -53 -16 -89 -21 -63 -22 -127 -2 -139 4 -2 36 2 72 10
100 21 108 20 116 -21 4 -22 2 -41 -6 -50 -20 -24 -8 -60 21 -63 24 -3 28 4
83 160 34 96 69 218 84 296 24 121 25 135 12 160 -9 15 -29 33 -45 40 -20 9
-46 39 -75 85 -43 69 -44 74 -42 142 3 62 -4 95 -64 290 -108 356 -149 464
-194 506 -64 59 -114 67 -520 79 -195 5 -378 10 -405 10 l-51 0 -52 -70z"/>
</g>
</svg>
