<?xml version="1.0" standalone="no"?>
<!DOCTYPE svg PUBLIC "-//W3C//DTD SVG 20010904//EN"
 "http://www.w3.org/TR/2001/REC-SVG-20010904/DTD/svg10.dtd">
<svg version="1.0" xmlns="http://www.w3.org/2000/svg"
 width="43.000000pt" height="55.000000pt" viewBox="0 0 43.000000 55.000000"
 preserveAspectRatio="xMidYMid meet">
<metadata>
Created by potrace 1.14, written by Peter Selinger 2001-2017
</metadata>
<g transform="translate(0.000000,55.000000) scale(0.100000,-0.100000)"
fill="#000000" stroke="none">
<path fill="#000000" stroke="none" d="M4 537 c-2 -7 -3 -69 -2 -138 l3 -124
73 -3 72 -3 0 -38 c0 -35 3 -39 31 -45 17 -3 44 -6 59 -6 30 0 28 8 30 -127 1
-42 2 -43 33 -43 18 0 43 -3 57 -6 23 -5 22 -4 -6 14 -28 18 -32 27 -38 82 -4
34 -5 64 -2 67 10 11 27 -10 23 -28 -5 -17 1 -19 44 -19 53 0 67 17 21 26 -24
5 -35 19 -67 85 -42 86 -42 86 -124 70 -43 -9 -45 -8 -83 33 -51 53 -62 74
-60 113 5 64 -46 135 -64 90z"/>
</g>
</svg>
