<?xml version="1.0" standalone="no"?>
<!DOCTYPE svg PUBLIC "-//W3C//DTD SVG 20010904//EN"
 "http://www.w3.org/TR/2001/REC-SVG-20010904/DTD/svg10.dtd">
<svg version="1.0" xmlns="http://www.w3.org/2000/svg"
 width="177.000000pt" height="218.000000pt" viewBox="0 0 177.000000 218.000000"
 preserveAspectRatio="xMidYMid meet">
<metadata>
Created by potrace 1.14, written by Peter Selinger 2001-2017
</metadata>
<g transform="translate(0.000000,218.000000) scale(0.100000,-0.100000)"
fill="#000000" stroke="none">
<path fill="#000000" stroke="none" d="M691 2156 c-32 -34 -91 -201 -91 -258
l0 -47 -60 -7 c-54 -6 -64 -11 -100 -50 -22 -24 -40 -52 -40 -61 0 -10 7 -139
15 -286 11 -205 11 -274 3 -293 -9 -19 -47 -44 -140 -90 -154 -77 -149 -70
-178 -292 -26 -207 -44 -294 -75 -371 -14 -36 -25 -85 -25 -111 0 -43 4 -49
69 -114 l69 -69 46 39 c67 56 97 150 103 329 l5 131 64 36 63 36 143 -11 142
-12 92 -144 c100 -156 158 -228 257 -314 61 -54 67 -57 168 -78 74 -16 132
-36 201 -71 89 -44 104 -48 165 -47 l68 0 58 75 57 74 -41 37 c-53 49 -87 66
-179 89 -50 13 -120 44 -210 94 l-135 75 -51 87 c-38 65 -59 116 -80 195 -25
100 -28 123 -28 305 -1 143 2 191 9 177 6 -11 41 -40 78 -64 66 -45 66 -45
115 -34 47 11 51 15 99 93 87 141 107 180 95 184 -7 2 -12 17 -12 32 0 46 -28
92 -84 137 l-51 42 -17 -32 c-18 -34 -18 -34 29 -64 16 -10 16 -13 3 -23 -8
-6 -25 -9 -37 -7 -20 4 -23 -1 -29 -45 -4 -26 -10 -50 -14 -53 -4 -2 -13 15
-19 38 -34 115 -90 161 -281 230 -185 68 -209 78 -205 90 2 7 6 24 9 38 4 20
14 28 37 33 30 6 83 -20 227 -112 37 -24 25 -4 -43 68 -36 38 -65 78 -65 88 0
10 8 43 19 73 26 78 34 144 21 183 -10 32 -16 35 -78 49 -127 30 -136 30 -161
3z"/>
</g>
</svg>
