<?xml version="1.0" standalone="no"?>
<!DOCTYPE svg PUBLIC "-//W3C//DTD SVG 20010904//EN"
 "http://www.w3.org/TR/2001/REC-SVG-20010904/DTD/svg10.dtd">
<svg version="1.0" xmlns="http://www.w3.org/2000/svg"
 width="28.000000pt" height="36.000000pt" viewBox="0 0 28.000000 36.000000"
 preserveAspectRatio="xMidYMid meet">
<metadata>
Created by potrace 1.14, written by Peter Selinger 2001-2017
</metadata>
<g transform="translate(0.000000,36.000000) scale(0.100000,-0.100000)"
fill="#000000" stroke="none">
<path fill="#000000" stroke="none" d="M61 328 c-15 -42 -14 -61 6 -102 15
-32 15 -37 0 -60 -10 -14 -17 -38 -17 -54 0 -18 -10 -38 -25 -52 -34 -32 -24
-37 119 -51 138 -14 136 -15 136 77 0 48 -4 65 -20 79 -16 14 -20 31 -20 77 0
74 -11 96 -53 102 -118 18 -114 19 -126 -16z"/>
</g>
</svg>
