<?xml version="1.0" standalone="no"?>
<!DOCTYPE svg PUBLIC "-//W3C//DTD SVG 20010904//EN"
 "http://www.w3.org/TR/2001/REC-SVG-20010904/DTD/svg10.dtd">
<svg version="1.0" xmlns="http://www.w3.org/2000/svg"
 width="300.000000pt" height="382.000000pt" viewBox="0 0 300.000000 382.000000"
 preserveAspectRatio="xMidYMid meet">
<metadata>
Created by potrace 1.14, written by Peter Selinger 2001-2017
</metadata>
<g transform="translate(0.000000,382.000000) scale(0.100000,-0.100000)"
fill="#000000" stroke="none">
<path fill="#000000" stroke="none" d="M1823 3701 l-162 -120 19 -61 c16 -52
17 -70 8 -125 l-11 -65 48 -61 c45 -58 47 -63 42 -109 -3 -27 -20 -76 -37
-109 l-30 -61 19 -77 c33 -131 43 -111 -122 -272 l-148 -145 -597 -321 -597
-321 3 -55 c7 -118 9 -120 92 -146 l75 -23 115 47 c95 38 198 64 600 154 266
59 486 106 489 104 11 -12 117 -427 109 -431 -5 -3 -6 -21 -2 -40 6 -33 5 -35
-42 -55 -43 -19 -61 -21 -178 -17 -109 4 -142 2 -201 -15 -38 -10 -108 -20
-155 -21 -47 -2 -123 -8 -170 -15 -47 -7 -138 -14 -203 -15 -65 -2 -122 -7
-127 -12 -4 -5 -126 -220 -270 -479 -236 -423 -268 -487 -325 -640 l-63 -170
37 -6 c20 -4 106 -10 192 -14 l156 -7 64 33 c54 28 91 37 234 58 l169 26 47
358 c26 197 50 361 53 364 3 3 225 -11 493 -32 l488 -38 175 47 175 47 330
176 c182 97 333 179 337 182 4 4 16 237 27 519 l19 513 -228 438 -229 438 6
140 6 139 -112 160 -112 160 -162 47 c-89 26 -167 47 -173 47 -5 0 -83 -54
-171 -119z"/>
</g>
</svg>
