<?xml version="1.0" standalone="no"?>
<!DOCTYPE svg PUBLIC "-//W3C//DTD SVG 20010904//EN"
 "http://www.w3.org/TR/2001/REC-SVG-20010904/DTD/svg10.dtd">
<svg version="1.0" xmlns="http://www.w3.org/2000/svg"
 width="133.000000pt" height="157.000000pt" viewBox="0 0 133.000000 157.000000"
 preserveAspectRatio="xMidYMid meet">
<metadata>
Created by potrace 1.14, written by Peter Selinger 2001-2017
</metadata>
<g transform="translate(0.000000,157.000000) scale(0.100000,-0.100000)"
fill="#000000" stroke="none">
<path fill="#000000" stroke="none" d="M453 1532 c42 -48 42 -47 22 -95 -16
-39 -30 -53 -40 -38 -3 6 -12 8 -20 5 -10 -4 61 -63 199 -167 l214 -162 56
-145 c31 -80 56 -150 56 -156 0 -5 -154 -125 -342 -265 -299 -222 -355 -260
-433 -292 -50 -20 -107 -37 -127 -39 l-37 -3 123 -88 c68 -48 127 -87 131 -87
3 0 92 82 196 182 l189 182 87 26 c49 15 124 43 167 64 88 40 80 42 121 -35
l24 -47 -28 -43 c-15 -24 -36 -51 -46 -59 -17 -14 -11 -16 66 -30 46 -9 112
-14 147 -12 57 3 64 6 73 29 8 22 0 39 -66 139 -57 87 -70 114 -57 114 9 1 36
18 59 38 42 37 42 37 53 134 6 54 10 103 9 110 -5 41 28 56 38 18 6 -24 16
-25 33 -5 19 23 6 149 -28 273 l-28 102 -63 39 c-35 22 -68 44 -74 50 -6 6
-18 45 -27 88 -18 84 -24 90 -101 92 -47 1 -121 -46 -139 -88 -11 -28 -11 -37
3 -67 10 -19 17 -37 17 -40 0 -18 -66 25 -218 143 -94 73 -189 143 -210 155
l-37 22 38 -42z"/>
</g>
</svg>
