<?xml version="1.0" standalone="no"?>
<!DOCTYPE svg PUBLIC "-//W3C//DTD SVG 20010904//EN"
 "http://www.w3.org/TR/2001/REC-SVG-20010904/DTD/svg10.dtd">
<svg version="1.0" xmlns="http://www.w3.org/2000/svg"
 width="111.000000pt" height="145.000000pt" viewBox="0 0 111.000000 145.000000"
 preserveAspectRatio="xMidYMid meet">
<metadata>
Created by potrace 1.14, written by Peter Selinger 2001-2017
</metadata>
<g transform="translate(0.000000,145.000000) scale(0.100000,-0.100000)"
fill="#000000" stroke="none">
<path fill="#000000" stroke="none" d="M165 1425 c-54 -33 -61 -64 -29 -126
13 -27 27 -69 30 -93 7 -51 2 -58 -96 -116 l-65 -38 1 -53 c1 -30 5 -88 9
-129 7 -74 8 -76 63 -132 l56 -58 -18 -227 c-10 -126 -21 -247 -23 -270 l-5
-42 39 -3 38 -3 5 -67 5 -66 45 23 45 23 10 73 c10 71 11 73 45 84 32 11 38
10 70 -16 19 -16 41 -42 50 -59 l16 -30 111 -3 c108 -2 112 -1 122 21 6 13 11
38 11 57 0 28 6 37 29 50 29 14 29 17 25 72 -3 32 -16 105 -29 163 -49 215
-50 226 -27 255 l20 25 56 -92 c65 -107 78 -124 126 -160 30 -22 126 -48 177
-48 14 0 40 83 28 87 -6 2 -39 18 -75 36 l-64 33 -38 98 c-21 54 -53 115 -71
136 -17 21 -67 108 -110 193 l-78 155 -44 11 c-24 6 -61 11 -82 11 -61 0 -86
19 -100 73 -15 62 -45 109 -93 147 -50 40 -125 42 -185 5z"/>
<path fill="#ffffff" stroke="none" d="M298 1167 c17 -18 19 -26 10 -35 -17
-17 -28 -15 -21 4 4 10 0 20 -10 26 -18 9 -23 28 -9 28 5 0 18 -10 30 -23z"/>
<path fill="#ffffff" stroke="none" d="M400 1077 c0 -12 11 -32 24 -46 26 -27
129 -263 147 -338 9 -33 8 -46 -3 -62 -14 -20 -15 -20 -47 13 -37 38 -141 299
-141 355 0 22 -8 43 -21 57 -27 29 -20 53 15 47 18 -4 26 -12 26 -26z"/>
</g>
</svg>
