<?xml version="1.0" standalone="no"?>
<!DOCTYPE svg PUBLIC "-//W3C//DTD SVG 20010904//EN"
 "http://www.w3.org/TR/2001/REC-SVG-20010904/DTD/svg10.dtd">
<svg version="1.0" xmlns="http://www.w3.org/2000/svg"
 width="33.000000pt" height="40.000000pt" viewBox="0 0 33.000000 40.000000"
 preserveAspectRatio="xMidYMid meet">
<metadata>
Created by potrace 1.14, written by Peter Selinger 2001-2017
</metadata>
<g transform="translate(0.000000,40.000000) scale(0.100000,-0.100000)"
fill="#000000" stroke="none">
<path fill="#000000" stroke="none" d="M147 372 c-31 -25 -33 -30 -19 -40 15
-10 14 -11 -5 -11 -34 -1 -93 -84 -93 -132 0 -25 -6 -41 -17 -48 -16 -8 -16
-12 2 -51 22 -48 67 -90 98 -90 16 0 50 33 116 112 83 98 95 117 99 156 7 83
-33 132 -106 132 -28 0 -50 -8 -75 -28z"/>
</g>
</svg>
