<?xml version="1.0" standalone="no"?>
<!DOCTYPE svg PUBLIC "-//W3C//DTD SVG 20010904//EN"
 "http://www.w3.org/TR/2001/REC-SVG-20010904/DTD/svg10.dtd">
<svg version="1.0" xmlns="http://www.w3.org/2000/svg"
 width="37.000000pt" height="48.000000pt" viewBox="0 0 37.000000 48.000000"
 preserveAspectRatio="xMidYMid meet">
<metadata>
Created by potrace 1.14, written by Peter Selinger 2001-2017
</metadata>
<g transform="translate(0.000000,48.000000) scale(0.100000,-0.100000)"
fill="#000000" stroke="none">
<path fill="#000000" stroke="none" d="M43 238 l-40 -238 72 0 72 0 7 37 c3
21 6 76 7 123 0 47 4 109 7 139 l7 54 74 -83 74 -82 19 24 c34 44 31 53 -39
158 -61 93 -68 100 -81 83 -7 -10 -22 -29 -33 -43 l-20 -25 4 47 5 48 -48 -3
-48 -2 -39 -237z"/>
</g>
</svg>
