<?xml version="1.0" standalone="no"?>
<!DOCTYPE svg PUBLIC "-//W3C//DTD SVG 20010904//EN"
 "http://www.w3.org/TR/2001/REC-SVG-20010904/DTD/svg10.dtd">
<svg version="1.0" xmlns="http://www.w3.org/2000/svg"
 width="73.000000pt" height="87.000000pt" viewBox="0 0 73.000000 87.000000"
 preserveAspectRatio="xMidYMid meet">
<metadata>
Created by potrace 1.14, written by Peter Selinger 2001-2017
</metadata>
<g transform="translate(0.000000,87.000000) scale(0.100000,-0.100000)"
fill="#000000" stroke="none">
<path fill="#000000" stroke="none" d="M219 834 c-24 -39 -28 -70 -16 -120 7
-27 3 -35 -25 -63 -18 -18 -52 -44 -75 -57 -54 -33 -79 -84 -94 -199 -15 -117
-8 -290 13 -312 24 -23 88 -32 401 -57 272 -20 289 -21 298 -5 24 46 -13 71
-77 51 -40 -12 -41 -6 -14 45 25 47 25 54 0 81 -17 18 -32 22 -76 22 -35 0
-69 7 -94 20 l-39 20 6 79 c3 43 3 98 -1 122 -6 39 -13 48 -55 76 -36 24 -50
39 -55 64 -5 28 -2 38 29 69 32 33 35 41 35 97 0 59 -1 62 -34 82 -18 12 -49
21 -69 21 -30 0 -39 -6 -58 -36z"/>
</g>
</svg>
