<?xml version="1.0" standalone="no"?>
<!DOCTYPE svg PUBLIC "-//W3C//DTD SVG 20010904//EN"
 "http://www.w3.org/TR/2001/REC-SVG-20010904/DTD/svg10.dtd">
<svg version="1.0" xmlns="http://www.w3.org/2000/svg"
 width="53.000000pt" height="67.000000pt" viewBox="0 0 53.000000 67.000000"
 preserveAspectRatio="xMidYMid meet">
<metadata>
Created by potrace 1.14, written by Peter Selinger 2001-2017
</metadata>
<g transform="translate(0.000000,67.000000) scale(0.100000,-0.100000)"
fill="#000000" stroke="none">
<path fill="#000000" stroke="none" d="M41 652 c-5 -9 -12 -34 -16 -55 -6 -32
-4 -38 15 -45 15 -6 28 -28 46 -80 23 -69 23 -74 8 -104 l-16 -31 32 7 c18 3
36 6 41 6 4 0 9 15 11 32 3 33 22 45 46 30 9 -6 10 -16 2 -39 -9 -26 -18 -32
-65 -42 -31 -7 -74 -9 -100 -6 l-45 7 0 -31 c0 -30 2 -31 43 -31 70 1 128 19
179 56 45 33 48 39 48 79 0 48 -5 45 103 69 l28 7 -27 -48 c-15 -26 -31 -52
-35 -58 -4 -5 -14 -37 -23 -69 l-15 -59 45 -63 c25 -35 62 -77 82 -94 l37 -30
-28 0 c-23 0 -27 -4 -27 -30 0 -28 3 -30 35 -30 29 0 37 5 46 26 13 35 -12
123 -52 180 -16 24 -29 45 -29 49 0 3 17 32 39 63 56 84 83 140 79 170 -2 22
-17 35 -75 68 l-71 40 -74 -8 c-40 -4 -90 -5 -111 -2 -32 5 -37 9 -32 25 5 15
-2 23 -37 39 -54 24 -75 25 -87 2z"/>
</g>
</svg>
