<?xml version="1.0" standalone="no"?>
<!DOCTYPE svg PUBLIC "-//W3C//DTD SVG 20010904//EN"
 "http://www.w3.org/TR/2001/REC-SVG-20010904/DTD/svg10.dtd">
<svg version="1.0" xmlns="http://www.w3.org/2000/svg"
 width="74.000000pt" height="95.000000pt" viewBox="0 0 74.000000 95.000000"
 preserveAspectRatio="xMidYMid meet">
<metadata>
Created by potrace 1.14, written by Peter Selinger 2001-2017
</metadata>
<g transform="translate(0.000000,95.000000) scale(0.100000,-0.100000)"
fill="#000000" stroke="none">
<path fill="#000000" stroke="none" d="M508 839 l-38 -115 -135 -94 -134 -94
-103 3 c-132 3 -125 -5 9 -12 94 -5 105 -3 129 16 25 19 38 21 163 19 75 -2
150 1 168 7 l32 9 21 -56 c48 -129 55 -170 55 -350 0 -94 3 -172 6 -172 3 0
14 9 25 21 17 19 19 43 24 248 3 124 3 228 -1 231 -3 3 -51 36 -106 74 -97 66
-103 68 -134 57 l-33 -11 24 27 c14 16 38 44 55 63 l31 35 -11 104 -10 104
-37 -114z"/>
</g>
</svg>
