<?xml version="1.0" standalone="no"?>
<!DOCTYPE svg PUBLIC "-//W3C//DTD SVG 20010904//EN"
 "http://www.w3.org/TR/2001/REC-SVG-20010904/DTD/svg10.dtd">
<svg version="1.0" xmlns="http://www.w3.org/2000/svg"
 width="45.000000pt" height="57.000000pt" viewBox="0 0 45.000000 57.000000"
 preserveAspectRatio="xMidYMid meet">
<metadata>
Created by potrace 1.14, written by Peter Selinger 2001-2017
</metadata>
<g transform="translate(0.000000,57.000000) scale(0.100000,-0.100000)"
fill="#000000" stroke="none">
<path fill="#000000" stroke="none" d="M210 485 l0 -87 -45 -51 c-36 -41 -56
-55 -98 -67 -49 -15 -52 -18 -61 -58 -5 -23 -7 -45 -4 -47 3 -3 43 -8 89 -12
46 -3 95 -10 108 -15 23 -8 22 -9 -24 -42 l-47 -34 67 -38 68 -37 93 46 c52
26 94 50 94 54 0 5 -25 75 -55 156 -45 121 -55 160 -55 211 l0 62 -52 19 c-29
10 -59 20 -65 23 -10 3 -13 -18 -13 -83z"/>
</g>
</svg>
