<?xml version="1.0" standalone="no"?>
<!DOCTYPE svg PUBLIC "-//W3C//DTD SVG 20010904//EN"
 "http://www.w3.org/TR/2001/REC-SVG-20010904/DTD/svg10.dtd">
<svg version="1.0" xmlns="http://www.w3.org/2000/svg"
 width="76.000000pt" height="95.000000pt" viewBox="0 0 76.000000 95.000000"
 preserveAspectRatio="xMidYMid meet">
<metadata>
Created by potrace 1.14, written by Peter Selinger 2001-2017
</metadata>
<g transform="translate(0.000000,95.000000) scale(0.100000,-0.100000)"
fill="#000000" stroke="none">
<path fill="#000000" stroke="none" d="M265 929 c-41 -25 -61 -72 -68 -154 -7
-86 -12 -99 -41 -113 -33 -15 -156 -132 -156 -148 0 -8 38 -25 96 -44 203 -65
261 -117 283 -255 6 -38 19 -103 28 -142 17 -73 17 -73 50 -73 l33 0 0 70 0
70 -30 0 c-16 0 -30 3 -29 8 0 4 6 36 12 71 11 55 10 82 -5 180 -9 64 -17 122
-18 129 0 16 -45 62 -60 62 -5 0 -10 -7 -10 -16 0 -10 -6 -14 -14 -11 -8 3
-17 -1 -20 -9 -8 -21 -36 -17 -36 6 0 10 -8 24 -19 29 -10 6 -26 22 -36 37
l-18 27 32 -22 c17 -12 31 -26 31 -31 0 -14 62 0 85 19 11 10 32 22 48 29 15
6 27 17 28 24 0 7 3 22 5 33 3 11 6 49 8 85 3 64 -9 102 -37 113 -115 46 -110
45 -142 26z"/>
<path fill="#000000" stroke="none" d="M640 762 c-98 -26 -106 -42 -112 -234
-3 -84 -3 -156 1 -160 9 -10 99 37 133 69 21 20 28 36 29 67 0 23 6 70 12 106
10 51 17 67 35 75 20 9 22 15 17 45 -11 55 -18 57 -115 32z"/>
</g>
</svg>
