<?xml version="1.0" standalone="no"?>
<!DOCTYPE svg PUBLIC "-//W3C//DTD SVG 20010904//EN"
 "http://www.w3.org/TR/2001/REC-SVG-20010904/DTD/svg10.dtd">
<svg version="1.0" xmlns="http://www.w3.org/2000/svg"
 width="41.000000pt" height="51.000000pt" viewBox="0 0 41.000000 51.000000"
 preserveAspectRatio="xMidYMid meet">
<metadata>
Created by potrace 1.14, written by Peter Selinger 2001-2017
</metadata>
<g transform="translate(0.000000,51.000000) scale(0.100000,-0.100000)"
fill="#000000" stroke="none">
<path fill="#000000" stroke="none" d="M86 502 c-40 -5 -75 -30 -82 -58 -5
-19 5 -34 57 -85 64 -61 91 -73 133 -54 17 7 18 5 12 -31 -22 -127 -22 -128
34 -204 29 -38 56 -70 60 -70 5 0 30 30 57 68 l49 67 -51 97 c-37 70 -72 120
-126 176 -83 88 -101 99 -143 94z"/>
</g>
</svg>
