<?xml version="1.0" standalone="no"?>
<!DOCTYPE svg PUBLIC "-//W3C//DTD SVG 20010904//EN"
 "http://www.w3.org/TR/2001/REC-SVG-20010904/DTD/svg10.dtd">
<svg version="1.0" xmlns="http://www.w3.org/2000/svg"
 width="25.000000pt" height="32.000000pt" viewBox="0 0 25.000000 32.000000"
 preserveAspectRatio="xMidYMid meet">
<metadata>
Created by potrace 1.14, written by Peter Selinger 2001-2017
</metadata>
<g transform="translate(0.000000,32.000000) scale(0.100000,-0.100000)"
fill="#000000" stroke="none">
<path fill="#000000" stroke="none" d="M127 312 c-2 -4 -7 -20 -11 -37 -4 -16
-27 -55 -52 -86 -24 -32 -48 -69 -54 -84 -12 -32 -13 -105 -2 -105 5 0 18 18
30 39 37 65 92 64 174 -1 36 -28 45 -18 19 21 -12 17 -31 45 -42 63 -21 30
-21 33 -5 77 9 25 16 53 16 63 0 17 -66 62 -73 50z"/>
</g>
</svg>
