<?xml version="1.0" standalone="no"?>
<!DOCTYPE svg PUBLIC "-//W3C//DTD SVG 20010904//EN"
 "http://www.w3.org/TR/2001/REC-SVG-20010904/DTD/svg10.dtd">
<svg version="1.0" xmlns="http://www.w3.org/2000/svg"
 width="86.000000pt" height="106.000000pt" viewBox="0 0 86.000000 106.000000"
 preserveAspectRatio="xMidYMid meet">
<metadata>
Created by potrace 1.14, written by Peter Selinger 2001-2017
</metadata>
<g transform="translate(0.000000,106.000000) scale(0.100000,-0.100000)"
fill="#000000" stroke="none">
<path fill="#000000" stroke="none" d="M435 1038 c-90 -35 -134 -94 -115 -154
7 -20 9 -54 6 -78 -6 -35 -2 -49 19 -80 14 -20 25 -43 25 -51 0 -24 -42 -45
-90 -45 -45 0 -133 -24 -157 -42 -18 -14 -59 -145 -92 -295 -26 -117 -29 -140
-20 -195 6 -34 11 -64 13 -65 8 -8 66 11 66 22 0 29 38 46 102 47 73 1 108 -8
108 -28 0 -10 12 -14 38 -14 20 0 84 -14 142 -30 140 -40 150 -39 150 4 0 59
15 84 55 92 20 3 55 3 78 -2 l42 -9 3 -58 c2 -31 8 -57 14 -57 5 0 7 7 4 16
-3 9 1 37 10 62 18 54 31 286 20 374 l-7 55 -72 46 c-40 25 -89 53 -110 63
-27 13 -36 22 -31 33 11 25 33 191 34 247 0 57 -18 80 -100 126 -64 36 -79 38
-135 16z"/>
</g>
</svg>
