<?xml version="1.0" standalone="no"?>
<!DOCTYPE svg PUBLIC "-//W3C//DTD SVG 20010904//EN"
 "http://www.w3.org/TR/2001/REC-SVG-20010904/DTD/svg10.dtd">
<svg version="1.0" xmlns="http://www.w3.org/2000/svg"
 width="23.000000pt" height="30.000000pt" viewBox="0 0 23.000000 30.000000"
 preserveAspectRatio="xMidYMid meet">
<metadata>
Created by potrace 1.14, written by Peter Selinger 2001-2017
</metadata>
<g transform="translate(0.000000,30.000000) scale(0.100000,-0.100000)"
fill="#000000" stroke="none">
<path fill="#000000" stroke="none" d="M60 285 c-7 -8 -10 -32 -8 -54 3 -34 0
-39 -24 -49 -27 -10 -28 -13 -28 -80 l0 -70 27 7 c22 6 35 2 61 -17 27 -20 40
-24 78 -19 25 2 48 7 51 11 3 3 8 28 11 54 4 44 0 55 -30 101 -19 28 -38 48
-41 45 -3 -4 -12 6 -19 22 -11 27 -45 63 -59 64 -4 0 -12 -7 -19 -15z"/>
</g>
</svg>
