<?xml version="1.0" standalone="no"?>
<!DOCTYPE svg PUBLIC "-//W3C//DTD SVG 20010904//EN"
 "http://www.w3.org/TR/2001/REC-SVG-20010904/DTD/svg10.dtd">
<svg version="1.0" xmlns="http://www.w3.org/2000/svg"
 width="212.000000pt" height="269.000000pt" viewBox="0 0 212.000000 269.000000"
 preserveAspectRatio="xMidYMid meet">
<metadata>
Created by potrace 1.14, written by Peter Selinger 2001-2017
</metadata>
<g transform="translate(0.000000,269.000000) scale(0.100000,-0.100000)"
fill="#000000" stroke="none">
<path fill="#000000" stroke="none" d="M484 2597 l-122 -92 -7 -150 -7 -150
56 -104 c32 -57 75 -130 97 -162 21 -32 39 -60 39 -62 0 -3 -12 -10 -27 -17
-30 -13 -502 -541 -510 -569 -3 -13 9 -21 51 -34 66 -21 61 6 41 -257 l-14
-185 56 -350 c30 -192 59 -353 62 -358 4 -4 403 -27 887 -52 483 -24 915 -47
958 -50 l79 -6 -40 44 c-43 46 -45 50 -63 137 -15 74 -40 130 -57 130 -8 0
-11 5 -8 11 11 17 -16 69 -39 75 -18 4 -26 22 -45 92 -17 60 -96 240 -258 582
-129 272 -239 499 -244 505 -5 5 -9 -4 -9 -25 0 -32 -5 -26 -55 66 -44 82 -65
109 -109 143 -30 24 -60 48 -66 55 -7 10 -1 59 24 179 l34 166 -39 108 c-21
59 -67 165 -100 234 l-62 126 -166 28 c-91 15 -177 29 -191 31 -19 3 -53 -18
-146 -89z"/>
</g>
</svg>
