<?xml version="1.0" standalone="no"?>
<!DOCTYPE svg PUBLIC "-//W3C//DTD SVG 20010904//EN"
 "http://www.w3.org/TR/2001/REC-SVG-20010904/DTD/svg10.dtd">
<svg version="1.0" xmlns="http://www.w3.org/2000/svg"
 width="268.000000pt" height="335.000000pt" viewBox="0 0 268.000000 335.000000"
 preserveAspectRatio="xMidYMid meet">
<metadata>
Created by potrace 1.14, written by Peter Selinger 2001-2017
</metadata>
<g transform="translate(0.000000,335.000000) scale(0.100000,-0.100000)"
fill="#000000" stroke="none">
<path fill="#000000" stroke="none" d="M170 3259 c-69 -50 -131 -96 -138 -103
-8 -8 -16 -77 -24 -205 l-11 -194 68 -131 68 -131 238 -205 c131 -112 236
-207 233 -211 -2 -4 -65 -42 -140 -86 -131 -75 -140 -82 -226 -183 l-90 -105
7 -215 c3 -118 10 -237 15 -265 13 -76 12 -224 -4 -333 -8 -53 -17 -135 -21
-182 -4 -47 -18 -161 -31 -253 -16 -113 -24 -214 -24 -306 l0 -138 332 -6
c182 -4 577 -7 878 -7 l547 0 -5 70 c-6 95 14 237 49 335 27 77 28 92 43 425
9 190 19 377 22 416 l5 70 86 28 c83 27 90 28 227 21 123 -6 146 -10 182 -31
39 -23 84 -32 84 -17 0 3 -7 14 -16 24 -14 16 -13 25 12 111 24 81 35 102 84
158 l57 65 -15 66 c-13 59 -22 75 -91 155 l-77 89 -74 6 c-90 6 -127 26 -384
199 l-169 114 -158 -23 -157 -23 -168 37 c-93 20 -177 39 -187 41 -33 10 -66
77 -117 238 -47 148 -56 166 -116 248 -62 83 -69 97 -120 260 -41 130 -52 177
-45 190 12 19 2 23 -136 58 -63 16 -113 20 -225 20 l-143 -1 -125 -90z"/>
</g>
</svg>
