<?xml version="1.0" standalone="no"?>
<!DOCTYPE svg PUBLIC "-//W3C//DTD SVG 20010904//EN"
 "http://www.w3.org/TR/2001/REC-SVG-20010904/DTD/svg10.dtd">
<svg version="1.0" xmlns="http://www.w3.org/2000/svg"
 width="156.000000pt" height="189.000000pt" viewBox="0 0 156.000000 189.000000"
 preserveAspectRatio="xMidYMid meet">
<metadata>
Created by potrace 1.14, written by Peter Selinger 2001-2017
</metadata>
<g transform="translate(0.000000,189.000000) scale(0.100000,-0.100000)"
fill="#000000" stroke="none">
<path fill="#000000" stroke="none" d="M853 1864 c-38 -22 -42 -28 -53 -90 -8
-41 -22 -76 -37 -95 -14 -16 -31 -50 -39 -75 -7 -24 -29 -64 -48 -87 -20 -25
-36 -56 -38 -75 -3 -32 -9 -37 -173 -125 l-170 -91 -101 -6 c-99 -5 -102 -6
-142 -42 -22 -20 -43 -46 -47 -58 -7 -22 -6 -22 69 -15 43 4 76 3 76 -2 0 -5
-26 -16 -57 -25 -55 -15 -56 -16 -21 -17 21 -1 41 -7 45 -15 6 -12 51 6 222
90 118 57 215 103 217 101 2 -1 -18 -62 -45 -135 -47 -132 -47 -133 -38 -210
15 -116 62 -182 223 -306 68 -53 124 -101 124 -106 0 -6 -10 -10 -22 -11 -16
0 -36 -18 -66 -61 -24 -33 -45 -65 -48 -72 -2 -6 18 -25 44 -42 26 -17 59 -38
73 -48 l27 -17 47 61 48 60 67 0 c61 0 69 -3 84 -25 10 -14 30 -27 51 -31 l35
-6 1 -147 1 -146 20 45 c11 25 40 88 65 140 l44 96 -50 107 -51 108 80 119
c62 92 90 146 126 245 l47 126 -33 34 c-31 32 -35 33 -139 40 -58 4 -118 10
-133 13 l-27 7 90 120 c101 134 127 159 182 169 23 4 43 16 53 30 19 31 87 78
105 74 11 -2 14 14 14 74 -1 77 -1 77 -45 126 -40 43 -51 49 -95 54 l-50 6
-70 -68 -70 -69 -115 105 c-63 58 -122 117 -130 131 -8 13 -31 33 -51 43 -35
19 -36 18 -76 -6z"/>
</g>
</svg>
