<?xml version="1.0" standalone="no"?>
<!DOCTYPE svg PUBLIC "-//W3C//DTD SVG 20010904//EN"
 "http://www.w3.org/TR/2001/REC-SVG-20010904/DTD/svg10.dtd">
<svg version="1.0" xmlns="http://www.w3.org/2000/svg"
 width="42.000000pt" height="55.000000pt" viewBox="0 0 42.000000 55.000000"
 preserveAspectRatio="xMidYMid meet">
<metadata>
Created by potrace 1.14, written by Peter Selinger 2001-2017
</metadata>
<g transform="translate(0.000000,55.000000) scale(0.100000,-0.100000)"
fill="#000000" stroke="none">
<path fill="#000000" stroke="none" d="M157 516 c-10 -21 -17 -60 -17 -91 0
-72 -14 -99 -72 -136 -54 -35 -68 -54 -68 -97 l0 -29 97 -12 c141 -18 133 -13
133 -81 0 -51 3 -60 21 -65 11 -4 22 -5 24 -3 3 2 11 49 20 103 22 147 21 143
75 176 52 32 54 36 44 87 -5 26 -12 32 -44 37 l-38 6 -7 65 c-6 57 -9 64 -28
64 -12 0 -45 3 -72 6 -50 6 -50 6 -68 -30z"/>
</g>
</svg>
