<?xml version="1.0" standalone="no"?>
<!DOCTYPE svg PUBLIC "-//W3C//DTD SVG 20010904//EN"
 "http://www.w3.org/TR/2001/REC-SVG-20010904/DTD/svg10.dtd">
<svg version="1.0" xmlns="http://www.w3.org/2000/svg"
 width="85.000000pt" height="113.000000pt" viewBox="0 0 85.000000 113.000000"
 preserveAspectRatio="xMidYMid meet">
<metadata>
Created by potrace 1.14, written by Peter Selinger 2001-2017
</metadata>
<g transform="translate(0.000000,113.000000) scale(0.100000,-0.100000)"
fill="#000000" stroke="none">
<path fill="#000000" stroke="none" d="M559 1102 c-60 -21 -68 -27 -84 -65
-11 -24 -17 -61 -16 -87 2 -37 10 -52 43 -86 l40 -41 -28 -7 c-56 -14 -156 4
-244 44 -67 30 -100 39 -152 42 -66 3 -68 2 -93 -32 -28 -37 -25 -42 32 -55
21 -4 33 -3 33 4 0 6 -11 11 -25 11 -19 0 -25 5 -25 21 0 17 4 20 23 15 12 -3
32 -6 45 -6 21 0 23 -3 17 -30 l-7 -30 62 0 c56 0 60 -1 51 -19 -9 -16 -2 -20
72 -40 45 -12 113 -21 152 -22 l70 0 -30 -16 -30 -17 78 -13 c43 -8 127 -33
187 -57 l109 -44 7 65 c8 80 3 114 -47 286 -21 76 -39 140 -39 143 0 4 -71 37
-115 53 -12 4 -46 -2 -86 -17z"/>
<path fill="#000000" stroke="none" d="M325 370 c-129 -51 -130 -53 -134 -132
-1 -22 5 -28 37 -38 48 -16 59 -26 35 -34 -10 -3 -29 -27 -41 -52 l-22 -45 77
-36 77 -36 181 12 c184 12 225 18 225 31 0 4 -8 31 -19 61 -16 47 -36 72 -139
173 -67 65 -129 124 -139 131 -15 11 -37 5 -138 -35z"/>
</g>
</svg>
