<?xml version="1.0" standalone="no"?>
<!DOCTYPE svg PUBLIC "-//W3C//DTD SVG 20010904//EN"
 "http://www.w3.org/TR/2001/REC-SVG-20010904/DTD/svg10.dtd">
<svg version="1.0" xmlns="http://www.w3.org/2000/svg"
 width="28.000000pt" height="34.000000pt" viewBox="0 0 28.000000 34.000000"
 preserveAspectRatio="xMidYMid meet">
<metadata>
Created by potrace 1.14, written by Peter Selinger 2001-2017
</metadata>
<g transform="translate(0.000000,34.000000) scale(0.100000,-0.100000)"
fill="#000000" stroke="none">
<path fill="#000000" stroke="none" d="M148 323 c-13 -15 -13 -23 -3 -47 11
-26 5 -74 -11 -94 -4 -6 -57 25 -83 47 -13 12 -31 21 -40 20 -10 0 -12 -2 -4
-6 7 -2 13 -10 14 -16 1 -18 88 -87 110 -87 25 0 25 -32 -1 -48 -27 -17 -25
-39 3 -39 13 0 36 -12 50 -26 31 -28 67 -26 67 3 0 10 7 23 15 30 34 28 6 150
-44 194 -13 12 -21 31 -21 53 0 25 -4 33 -18 33 -11 0 -26 -8 -34 -17z"/>
</g>
</svg>
