<?xml version="1.0" standalone="no"?>
<!DOCTYPE svg PUBLIC "-//W3C//DTD SVG 20010904//EN"
 "http://www.w3.org/TR/2001/REC-SVG-20010904/DTD/svg10.dtd">
<svg version="1.0" xmlns="http://www.w3.org/2000/svg"
 width="18.000000pt" height="22.000000pt" viewBox="0 0 18.000000 22.000000"
 preserveAspectRatio="xMidYMid meet">
<metadata>
Created by potrace 1.14, written by Peter Selinger 2001-2017
</metadata>
<g transform="translate(0.000000,22.000000) scale(0.100000,-0.100000)"
fill="#000000" stroke="none">
<path fill="#000000" stroke="none" d="M97 213 c-4 -3 -7 -16 -7 -27 0 -15
-12 -26 -45 -40 -52 -21 -54 -39 -4 -46 26 -4 42 -16 69 -52 19 -27 43 -48 52
-48 23 0 22 2 -3 52 -14 28 -18 43 -10 46 16 5 13 22 -4 22 -18 0 -20 41 -4
57 16 16 4 43 -19 43 -10 0 -22 -3 -25 -7z"/>
</g>
</svg>
