<?xml version="1.0" standalone="no"?>
<!DOCTYPE svg PUBLIC "-//W3C//DTD SVG 20010904//EN"
 "http://www.w3.org/TR/2001/REC-SVG-20010904/DTD/svg10.dtd">
<svg version="1.0" xmlns="http://www.w3.org/2000/svg"
 width="33.000000pt" height="41.000000pt" viewBox="0 0 33.000000 41.000000"
 preserveAspectRatio="xMidYMid meet">
<metadata>
Created by potrace 1.14, written by Peter Selinger 2001-2017
</metadata>
<g transform="translate(0.000000,41.000000) scale(0.100000,-0.100000)"
fill="#000000" stroke="none">
<path fill="#000000" stroke="none" d="M135 390 c-25 -16 -33 -30 -43 -77 -11
-50 -17 -60 -44 -73 -49 -23 -55 -41 -30 -89 12 -23 22 -52 22 -65 0 -13 3
-38 6 -55 l6 -31 94 0 93 0 -6 80 c-7 91 4 103 33 39 10 -23 24 -48 32 -55 24
-24 33 -15 19 19 -10 22 -11 40 -5 56 7 19 4 29 -13 47 -17 19 -19 26 -10 38
9 11 7 21 -8 47 -10 19 -24 50 -30 70 -8 25 -21 40 -47 52 -42 20 -33 21 -69
-3z"/>
</g>
</svg>
