<?xml version="1.0" standalone="no"?>
<!DOCTYPE svg PUBLIC "-//W3C//DTD SVG 20010904//EN"
 "http://www.w3.org/TR/2001/REC-SVG-20010904/DTD/svg10.dtd">
<svg version="1.0" xmlns="http://www.w3.org/2000/svg"
 width="55.000000pt" height="66.000000pt" viewBox="0 0 55.000000 66.000000"
 preserveAspectRatio="xMidYMid meet">
<metadata>
Created by potrace 1.14, written by Peter Selinger 2001-2017
</metadata>
<g transform="translate(0.000000,66.000000) scale(0.100000,-0.100000)"
fill="#000000" stroke="none">
<path fill="#000000" stroke="none" d="M228 633 c-15 -17 -41 -70 -61 -128
l-34 -100 -53 -26 c-44 -21 -56 -33 -67 -64 l-13 -39 44 -45 43 -46 -17 -80
c-10 -44 -17 -81 -16 -82 1 -2 442 -23 477 -23 39 0 29 34 -78 287 l-35 83 20
57 c11 32 23 78 26 103 5 39 3 49 -21 76 -24 27 -39 34 -100 43 -93 14 -85 15
-115 -16z"/>
</g>
</svg>
