<?xml version="1.0" standalone="no"?>
<!DOCTYPE svg PUBLIC "-//W3C//DTD SVG 20010904//EN"
 "http://www.w3.org/TR/2001/REC-SVG-20010904/DTD/svg10.dtd">
<svg version="1.0" xmlns="http://www.w3.org/2000/svg"
 width="301.000000pt" height="394.000000pt" viewBox="0 0 301.000000 394.000000"
 preserveAspectRatio="xMidYMid meet">
<metadata>
Created by potrace 1.14, written by Peter Selinger 2001-2017
</metadata>
<g transform="translate(0.000000,394.000000) scale(0.100000,-0.100000)"
fill="#000000" stroke="none">
<path fill="#000000" stroke="none" d="M1570 3859 c-51 -81 -51 -82 -45 -143
l7 -62 -71 -67 -72 -67 12 -43 c7 -25 9 -76 6 -127 -9 -126 8 -162 96 -210
134 -73 235 -179 221 -234 -5 -20 -13 -24 -63 -29 -42 -3 -85 -19 -166 -60
-61 -30 -207 -95 -325 -145 -167 -71 -222 -90 -245 -85 -16 3 -120 9 -230 13
-155 5 -224 12 -308 31 l-109 24 -53 66 c-59 72 -130 129 -184 148 -19 6 -36
11 -37 11 -14 0 4 -52 53 -156 l58 -122 85 -42 c125 -62 395 -157 560 -196
l145 -34 185 11 c169 10 196 14 308 49 67 21 122 35 122 32 0 -3 -27 -33 -60
-68 -33 -34 -60 -68 -60 -76 0 -7 7 -53 16 -103 15 -80 22 -97 66 -158 l50
-67 -20 -263 c-19 -245 -20 -266 -4 -329 15 -66 15 -77 -22 -436 -21 -203 -41
-422 -45 -488 l-8 -119 40 -67 c34 -59 40 -78 44 -148 l6 -80 66 0 c36 0 232
-5 435 -11 202 -5 371 -8 374 -4 5 4 27 107 82 368 11 54 15 59 70 97 l58 39
47 -30 c56 -36 58 -35 189 25 88 41 97 48 119 92 l24 47 -22 86 c-12 47 -30
102 -40 121 -31 60 -28 137 28 590 l53 435 -54 125 c-29 69 -89 181 -133 250
-43 69 -152 243 -242 388 l-162 263 -130 60 c-71 33 -130 61 -132 62 -1 2 -5
28 -9 59 -6 54 -5 58 45 143 65 111 101 226 101 326 0 70 -3 82 -67 225 l-68
151 -104 7 c-57 3 -177 6 -267 6 l-162 0 -52 -81z"/>
</g>
</svg>
