<?xml version="1.0" standalone="no"?>
<!DOCTYPE svg PUBLIC "-//W3C//DTD SVG 20010904//EN"
 "http://www.w3.org/TR/2001/REC-SVG-20010904/DTD/svg10.dtd">
<svg version="1.0" xmlns="http://www.w3.org/2000/svg"
 width="32.000000pt" height="38.000000pt" viewBox="0 0 32.000000 38.000000"
 preserveAspectRatio="xMidYMid meet">
<metadata>
Created by potrace 1.14, written by Peter Selinger 2001-2017
</metadata>
<g transform="translate(0.000000,38.000000) scale(0.100000,-0.100000)"
fill="#000000" stroke="none">
<path fill="#000000" stroke="none" d="M137 362 c-22 -25 -21 -65 2 -86 10 -9
21 -31 24 -49 3 -18 8 -40 12 -49 6 -16 1 -18 -47 -18 -63 0 -84 -17 -110 -87
-16 -42 -16 -43 4 -43 14 0 18 -5 14 -15 -8 -22 33 -19 69 5 22 14 39 18 63
14 28 -5 32 -4 32 15 0 16 6 21 28 21 16 0 32 8 39 19 7 11 21 21 31 23 18 3
18 7 2 105 -14 88 -20 107 -45 133 -34 36 -91 42 -118 12z"/>
</g>
</svg>
