<?xml version="1.0" standalone="no"?>
<!DOCTYPE svg PUBLIC "-//W3C//DTD SVG 20010904//EN"
 "http://www.w3.org/TR/2001/REC-SVG-20010904/DTD/svg10.dtd">
<svg version="1.0" xmlns="http://www.w3.org/2000/svg"
 width="10.000000pt" height="13.000000pt" viewBox="0 0 10.000000 13.000000"
 preserveAspectRatio="xMidYMid meet">
<metadata>
Created by potrace 1.14, written by Peter Selinger 2001-2017
</metadata>
<g transform="translate(0.000000,13.000000) scale(0.100000,-0.100000)"
fill="#000000" stroke="none">
<path fill="#000000" stroke="none" d="M47 124 c-4 -4 -7 -17 -7 -28 0 -12 -9
-29 -20 -39 -22 -19 -25 -33 -10 -42 6 -3 10 -1 10 6 0 8 5 5 13 -5 19 -26 61
-18 65 12 2 13 0 31 -4 40 -4 9 -8 26 -8 37 -1 20 -26 32 -39 19z"/>
</g>
</svg>
