<?xml version="1.0" standalone="no"?>
<!DOCTYPE svg PUBLIC "-//W3C//DTD SVG 20010904//EN"
 "http://www.w3.org/TR/2001/REC-SVG-20010904/DTD/svg10.dtd">
<svg version="1.0" xmlns="http://www.w3.org/2000/svg"
 width="75.000000pt" height="98.000000pt" viewBox="0 0 75.000000 98.000000"
 preserveAspectRatio="xMidYMid meet">
<metadata>
Created by potrace 1.14, written by Peter Selinger 2001-2017
</metadata>
<g transform="translate(0.000000,98.000000) scale(0.100000,-0.100000)"
fill="#000000" stroke="none">
<path fill="#000000" stroke="none" d="M267 950 c-60 -16 -110 -30 -112 -32
-3 -2 -22 -32 -44 -65 l-39 -61 30 -208 c38 -271 32 -383 -23 -419 -18 -13
-38 -42 -53 -80 l-24 -60 66 -12 c37 -6 83 -12 102 -12 30 -1 296 70 304 81 2
1 10 22 19 46 13 32 17 75 17 176 l0 133 36 11 35 11 21 -47 c12 -26 23 -74
26 -107 4 -56 6 -62 43 -88 21 -16 43 -26 48 -23 5 3 14 35 21 70 l12 64 -73
131 -72 130 -52 12 -52 12 -7 71 c-4 39 -15 104 -26 145 -15 60 -26 82 -57
112 l-38 36 -108 -27z"/>
</g>
</svg>
