<?xml version="1.0" standalone="no"?>
<!DOCTYPE svg PUBLIC "-//W3C//DTD SVG 20010904//EN"
 "http://www.w3.org/TR/2001/REC-SVG-20010904/DTD/svg10.dtd">
<svg version="1.0" xmlns="http://www.w3.org/2000/svg"
 width="120.000000pt" height="151.000000pt" viewBox="0 0 120.000000 151.000000"
 preserveAspectRatio="xMidYMid meet">
<metadata>
Created by potrace 1.14, written by Peter Selinger 2001-2017
</metadata>
<g transform="translate(0.000000,151.000000) scale(0.100000,-0.100000)"
fill="#000000" stroke="none">
<path fill="#000000" stroke="none" d="M673 1488 c-36 -18 -43 -27 -49 -62 -3
-23 -13 -50 -20 -61 -8 -11 -14 -45 -14 -82 0 -74 -25 -137 -51 -130 -10 3
-20 -1 -22 -8 -3 -6 -26 -18 -51 -25 -36 -10 -57 -25 -95 -69 -51 -59 -86
-132 -152 -316 -22 -60 -50 -126 -63 -145 -12 -19 -33 -64 -46 -100 -12 -36
-38 -95 -57 -131 -40 -77 -54 -160 -46 -259 5 -65 8 -69 32 -74 14 -3 118 -8
231 -11 113 -4 214 -9 225 -12 16 -4 18 -3 8 8 -17 17 -16 44 1 58 8 7 18 25
21 41 3 16 23 52 44 82 21 29 41 70 45 91 4 20 20 67 35 105 15 37 43 118 62
180 33 110 34 112 63 112 16 0 39 -9 51 -20 17 -16 27 -18 51 -11 38 11 89 -9
99 -38 3 -12 14 -21 23 -21 9 0 33 -3 53 -6 35 -6 38 -4 68 39 17 25 31 55 31
67 0 11 11 38 26 59 33 51 26 79 -32 114 -52 32 -64 33 -64 10 -1 -25 -45 -73
-67 -73 -10 0 -39 19 -63 43 -50 47 -190 207 -190 216 0 4 16 15 36 26 40 21
74 68 93 128 14 42 35 57 80 57 29 0 30 2 19 21 -7 11 -28 27 -45 34 -29 12
-33 19 -33 51 0 30 -7 44 -40 75 -38 36 -92 60 -135 58 -11 0 -39 -10 -62 -21z"/>
<path fill="#ffffff" stroke="none" d="M1060 775 c10 -12 10 -15 -4 -15 -9 0
-16 7 -16 15 0 8 2 15 4 15 2 0 9 -7 16 -15z"/>
</g>
</svg>
