<?xml version="1.0" standalone="no"?>
<!DOCTYPE svg PUBLIC "-//W3C//DTD SVG 20010904//EN"
 "http://www.w3.org/TR/2001/REC-SVG-20010904/DTD/svg10.dtd">
<svg version="1.0" xmlns="http://www.w3.org/2000/svg"
 width="351.000000pt" height="463.000000pt" viewBox="0 0 351.000000 463.000000"
 preserveAspectRatio="xMidYMid meet">
<metadata>
Created by potrace 1.14, written by Peter Selinger 2001-2017
</metadata>
<g transform="translate(0.000000,463.000000) scale(0.100000,-0.100000)"
fill="#000000" stroke="none">
<path fill="#000000" stroke="none" d="M325 4624 c-16 -2 -66 -11 -111 -20
l-81 -16 -51 -69 c-50 -66 -52 -71 -52 -132 0 -41 9 -89 25 -137 14 -40 25
-93 25 -118 0 -51 17 -80 100 -167 44 -46 62 -75 78 -124 19 -55 20 -66 8 -90
-25 -46 -138 -145 -203 -175 l-63 -30 0 -170 c0 -94 5 -224 10 -288 l10 -118
65 -93 64 -94 108 -13 107 -12 76 -62 c42 -34 104 -79 137 -101 64 -41 108
-103 186 -260 l35 -70 83 -22 c61 -15 102 -20 149 -16 77 6 90 15 90 58 0 44
9 65 27 65 9 0 51 -26 93 -57 71 -53 82 -66 129 -153 63 -118 142 -193 250
-235 l70 -28 27 -81 c15 -45 126 -277 248 -516 122 -239 237 -472 256 -517 30
-75 41 -90 119 -161 47 -43 105 -91 129 -107 31 -20 57 -53 97 -119 77 -131
185 -241 309 -314 l99 -59 87 29 87 29 22 95 21 95 -132 196 c-90 133 -149
210 -186 242 -67 57 -150 196 -181 301 -32 106 -147 431 -234 660 -66 174 -76
211 -96 343 -14 91 -31 168 -46 201 -13 29 -31 89 -41 133 -17 81 -17 81 -112
183 l-95 101 70 72 c83 86 118 131 167 215 36 61 38 62 81 62 40 0 44 -2 54
-33 24 -71 70 -126 187 -220 l118 -95 81 74 c55 51 88 74 105 74 18 0 55 -26
124 -87 100 -89 116 -111 116 -166 0 -23 12 -46 38 -79 l39 -46 43 28 43 29
73 -65 73 -65 15 30 c19 35 21 163 6 361 -7 102 -12 127 -26 135 -10 6 -78 55
-153 110 -75 56 -174 128 -221 162 -113 81 -488 425 -622 570 -75 82 -132 132
-195 174 -81 54 -93 59 -143 59 -42 0 -75 -9 -136 -36 -78 -35 -83 -39 -196
-172 -133 -156 -174 -197 -205 -207 -21 -6 -23 -3 -23 32 0 21 -5 93 -10 161
-10 122 -10 124 -57 205 l-48 82 -100 34 c-94 31 -108 33 -250 35 l-150 1 -76
-52 c-69 -49 -80 -53 -132 -53 l-57 0 0 198 0 199 -26 23 c-14 14 -52 75 -85
137 -33 62 -63 114 -67 117 -11 7 -163 15 -197 10z"/>
<path fill="#ffffff" stroke="none" d="M667 3699 c14 -52 22 -63 52 -79 60
-30 131 -137 131 -197 0 -27 -150 -228 -171 -228 -3 0 -37 34 -74 74 l-66 75
38 19 c21 11 51 31 66 45 25 23 27 32 22 67 -4 22 -27 71 -52 109 -25 38 -53
93 -63 122 l-19 54 59 0 60 0 17 -61z"/>
</g>
</svg>
