<?xml version="1.0" standalone="no"?>
<!DOCTYPE svg PUBLIC "-//W3C//DTD SVG 20010904//EN"
 "http://www.w3.org/TR/2001/REC-SVG-20010904/DTD/svg10.dtd">
<svg version="1.0" xmlns="http://www.w3.org/2000/svg"
 width="285.000000pt" height="376.000000pt" viewBox="0 0 285.000000 376.000000"
 preserveAspectRatio="xMidYMid meet">
<metadata>
Created by potrace 1.14, written by Peter Selinger 2001-2017
</metadata>
<g transform="translate(0.000000,376.000000) scale(0.100000,-0.100000)"
fill="#000000" stroke="none">
<path fill="#000000" stroke="none" d="M1369 3712 c-95 -52 -115 -73 -230
-242 -56 -82 -67 -106 -78 -168 -7 -39 -21 -100 -32 -134 -10 -35 -19 -85 -19
-113 0 -27 -7 -90 -15 -140 -19 -116 -11 -379 16 -515 26 -131 69 -231 106
-245 60 -22 73 -34 73 -71 0 -40 -27 -97 -77 -164 -29 -39 -49 -52 -111 -78
-82 -34 -156 -96 -211 -175 -63 -92 -139 -263 -176 -397 -28 -101 -60 -180
-125 -315 -81 -166 -91 -194 -129 -355 -23 -96 -45 -183 -49 -194 -5 -11 -44
-33 -102 -56 -92 -37 -94 -38 -130 -98 -22 -36 -46 -96 -59 -146 -11 -47 -21
-87 -21 -89 0 -8 2765 -20 2809 -12 l42 7 -6 41 c-4 22 -8 248 -9 501 l-2 461
-38 145 c-61 238 -73 255 -366 520 -135 123 -282 247 -327 277 -46 31 -80 60
-77 67 5 13 -71 157 -118 222 l-30 42 28 98 c26 92 32 102 91 165 70 74 103
146 103 228 0 26 19 104 44 183 l44 136 -12 94 c-14 109 -53 190 -143 297 -30
35 -68 88 -84 117 -34 59 -38 61 -232 123 -78 25 -114 31 -180 30 -78 0 -86
-2 -168 -47z"/>
<path fill="#000000" stroke="none" d="M2040 2030 c0 -5 5 -10 11 -10 5 0 7 5
4 10 -3 6 -8 10 -11 10 -2 0 -4 -4 -4 -10z"/>
</g>
</svg>
