<?xml version="1.0" standalone="no"?>
<!DOCTYPE svg PUBLIC "-//W3C//DTD SVG 20010904//EN"
 "http://www.w3.org/TR/2001/REC-SVG-20010904/DTD/svg10.dtd">
<svg version="1.0" xmlns="http://www.w3.org/2000/svg"
 width="36.000000pt" height="48.000000pt" viewBox="0 0 36.000000 48.000000"
 preserveAspectRatio="xMidYMid meet">
<metadata>
Created by potrace 1.14, written by Peter Selinger 2001-2017
</metadata>
<g transform="translate(0.000000,48.000000) scale(0.100000,-0.100000)"
fill="#000000" stroke="none">
<path fill="#000000" stroke="none" d="M171 456 c-17 -18 -22 -35 -21 -68 4
-91 2 -95 -46 -130 -54 -38 -83 -94 -93 -179 -6 -49 -5 -58 12 -69 15 -9 23
-8 40 7 12 10 25 22 28 27 12 16 180 74 200 69 15 -4 19 0 19 20 0 31 27 97
40 97 18 0 11 19 -20 53 -25 29 -30 43 -30 86 0 65 -11 86 -51 100 -45 15 -53
14 -78 -13z"/>
</g>
</svg>
