<?xml version="1.0" standalone="no"?>
<!DOCTYPE svg PUBLIC "-//W3C//DTD SVG 20010904//EN"
 "http://www.w3.org/TR/2001/REC-SVG-20010904/DTD/svg10.dtd">
<svg version="1.0" xmlns="http://www.w3.org/2000/svg"
 width="31.000000pt" height="37.000000pt" viewBox="0 0 31.000000 37.000000"
 preserveAspectRatio="xMidYMid meet">
<metadata>
Created by potrace 1.14, written by Peter Selinger 2001-2017
</metadata>
<g transform="translate(0.000000,37.000000) scale(0.100000,-0.100000)"
fill="#000000" stroke="none">
<path fill="#000000" stroke="none" d="M130 350 c-7 -13 -8 -43 -4 -79 6 -57
6 -58 -23 -70 -17 -7 -47 -29 -67 -50 -29 -30 -34 -40 -24 -48 28 -22 175 -93
205 -99 30 -6 34 -3 62 42 38 58 38 86 6 160 -14 31 -25 67 -25 79 0 12 -5 36
-11 54 -10 29 -14 31 -60 31 -38 0 -51 -4 -59 -20z"/>
</g>
</svg>
