<?xml version="1.0" standalone="no"?>
<!DOCTYPE svg PUBLIC "-//W3C//DTD SVG 20010904//EN"
 "http://www.w3.org/TR/2001/REC-SVG-20010904/DTD/svg10.dtd">
<svg version="1.0" xmlns="http://www.w3.org/2000/svg"
 width="267.000000pt" height="347.000000pt" viewBox="0 0 267.000000 347.000000"
 preserveAspectRatio="xMidYMid meet">
<metadata>
Created by potrace 1.14, written by Peter Selinger 2001-2017
</metadata>
<g transform="translate(0.000000,347.000000) scale(0.100000,-0.100000)"
fill="#000000" stroke="none">
<path fill="#000000" stroke="none" d="M728 3444 c-32 -13 -102 -49 -156 -79
-79 -44 -122 -61 -208 -80 -60 -14 -121 -25 -135 -25 -25 0 -91 -41 -117 -72
-6 -8 -23 -74 -36 -146 l-25 -132 34 -198 c28 -171 32 -209 24 -273 -4 -41 -8
-79 -9 -84 0 -6 38 -40 85 -75 83 -63 87 -68 151 -190 39 -72 122 -201 197
-303 110 -151 140 -185 196 -224 109 -77 102 -62 76 -154 -13 -45 -27 -85 -32
-89 -4 -5 -107 -59 -228 -121 -200 -102 -229 -121 -316 -198 -91 -81 -99 -93
-163 -214 -38 -71 -66 -130 -64 -132 2 -3 62 8 132 23 l127 28 112 98 c69 61
148 143 205 215 51 64 118 137 148 163 135 117 137 118 251 148 l108 28 140
-34 140 -35 61 -60 61 -60 7 -152 c4 -84 10 -177 15 -208 l7 -56 -190 -63
c-255 -84 -293 -98 -299 -114 -4 -10 15 -7 71 10 42 13 78 21 81 19 2 -3 -7
-18 -21 -33 -15 -15 -33 -45 -42 -67 -19 -44 -76 -387 -76 -454 l0 -44 738 7
c405 3 772 9 815 12 l77 6 0 919 c0 505 -1 919 -2 920 -2 1 -122 7 -268 14
-146 7 -322 20 -393 30 l-127 18 -138 99 c-75 55 -144 106 -152 114 -8 8 48
-14 125 -50 77 -35 141 -63 143 -61 8 8 -31 201 -58 285 -24 78 -30 112 -30
192 l0 98 -101 165 c-67 110 -119 183 -153 215 -42 39 -61 70 -97 151 l-44
101 -65 33 c-36 19 -117 70 -180 114 l-115 81 -115 -1 c-98 -1 -124 -4 -172
-25z"/>
<path fill="#000000" stroke="none" d="M636 256 c-71 -104 -144 -199 -168
-220 l-43 -36 228 0 228 0 -5 33 c-3 17 -8 106 -12 197 -8 201 -10 210 -63
210 l-40 0 -125 -184z"/>
</g>
</svg>
