<?xml version="1.0" standalone="no"?>
<!DOCTYPE svg PUBLIC "-//W3C//DTD SVG 20010904//EN"
 "http://www.w3.org/TR/2001/REC-SVG-20010904/DTD/svg10.dtd">
<svg version="1.0" xmlns="http://www.w3.org/2000/svg"
 width="283.000000pt" height="353.000000pt" viewBox="0 0 283.000000 353.000000"
 preserveAspectRatio="xMidYMid meet">
<metadata>
Created by potrace 1.14, written by Peter Selinger 2001-2017
</metadata>
<g transform="translate(0.000000,353.000000) scale(0.100000,-0.100000)"
fill="#000000" stroke="none">
<path fill="#000000" stroke="none" d="M1510 3491 c-85 -21 -358 -103 -606
-183 l-451 -146 -224 -144 -224 -144 4 -875 c2 -481 7 -1127 10 -1436 l6 -562
109 667 c60 367 130 762 156 879 l46 211 75 113 c46 70 78 129 84 158 l10 46
231 5 231 5 48 40 c54 44 74 49 332 81 l143 18 104 -34 105 -34 78 -115 c74
-110 85 -121 222 -229 133 -103 152 -123 235 -236 l90 -123 140 -31 c77 -17
141 -30 142 -29 1 1 4 70 5 153 l3 151 -30 49 c-25 41 -56 67 -188 156 l-158
107 -53 120 -53 121 -8 220 c-4 121 -3 220 1 220 4 0 39 -18 78 -40 54 -31
108 -50 241 -84 l172 -43 27 38 c23 31 27 48 27 102 0 63 1 64 35 83 19 10 56
43 82 72 l46 54 -7 132 c-9 193 -4 181 -132 279 l-110 85 -260 -27 -259 -27
-189 108 c-103 59 -193 108 -200 107 -6 0 -81 -18 -166 -38z"/>
</g>
</svg>
