<?xml version="1.0" standalone="no"?>
<!DOCTYPE svg PUBLIC "-//W3C//DTD SVG 20010904//EN"
 "http://www.w3.org/TR/2001/REC-SVG-20010904/DTD/svg10.dtd">
<svg version="1.0" xmlns="http://www.w3.org/2000/svg"
 width="70.000000pt" height="91.000000pt" viewBox="0 0 70.000000 91.000000"
 preserveAspectRatio="xMidYMid meet">
<metadata>
Created by potrace 1.14, written by Peter Selinger 2001-2017
</metadata>
<g transform="translate(0.000000,91.000000) scale(0.100000,-0.100000)"
fill="#000000" stroke="none">
<path fill="#000000" stroke="none" d="M170 824 c-80 -46 -148 -85 -152 -86
-4 -2 -10 -77 -14 -168 l-6 -165 45 -69 c31 -49 60 -78 97 -102 43 -27 48 -33
29 -36 -12 -2 -37 -22 -56 -44 l-34 -42 38 -22 c21 -12 86 -37 146 -55 l108
-33 15 37 c8 20 46 92 84 161 56 101 85 140 149 204 l80 80 -71 135 c-39 75
-76 139 -82 143 -6 4 -61 38 -121 76 l-111 69 -144 -83z"/>
</g>
</svg>
