<?xml version="1.0" standalone="no"?>
<!DOCTYPE svg PUBLIC "-//W3C//DTD SVG 20010904//EN"
 "http://www.w3.org/TR/2001/REC-SVG-20010904/DTD/svg10.dtd">
<svg version="1.0" xmlns="http://www.w3.org/2000/svg"
 width="77.000000pt" height="101.000000pt" viewBox="0 0 77.000000 101.000000"
 preserveAspectRatio="xMidYMid meet">
<metadata>
Created by potrace 1.14, written by Peter Selinger 2001-2017
</metadata>
<g transform="translate(0.000000,101.000000) scale(0.100000,-0.100000)"
fill="#000000" stroke="none">
<path fill="#000000" stroke="none" d="M226 979 c-14 -17 -26 -40 -26 -52 0
-31 -10 -41 -55 -58 -59 -22 -90 -76 -120 -208 -16 -68 -25 -141 -25 -192 0
-73 3 -88 32 -140 29 -52 34 -57 48 -44 9 8 43 18 76 21 57 6 64 4 159 -44 83
-41 120 -68 214 -156 63 -59 119 -105 124 -103 5 1 34 42 64 90 55 86 56 88
37 108 -18 20 -18 20 -60 -28 -43 -48 -43 -48 -62 -28 -16 16 -22 43 -30 125
-6 62 -19 128 -33 163 l-22 57 -53 0 c-29 0 -88 -7 -131 -15 -72 -14 -79 -14
-90 2 -17 23 -16 42 10 152 l22 94 97 33 c108 36 248 100 248 113 0 13 -57 19
-76 8 -10 -6 -66 -25 -125 -42 -125 -38 -132 -35 -100 50 l20 52 -25 37 c-33
48 -80 51 -118 5z"/>
</g>
</svg>
