<?xml version="1.0" standalone="no"?>
<!DOCTYPE svg PUBLIC "-//W3C//DTD SVG 20010904//EN"
 "http://www.w3.org/TR/2001/REC-SVG-20010904/DTD/svg10.dtd">
<svg version="1.0" xmlns="http://www.w3.org/2000/svg"
 width="152.000000pt" height="200.000000pt" viewBox="0 0 152.000000 200.000000"
 preserveAspectRatio="xMidYMid meet">
<metadata>
Created by potrace 1.14, written by Peter Selinger 2001-2017
</metadata>
<g transform="translate(0.000000,200.000000) scale(0.100000,-0.100000)"
fill="#000000" stroke="none">
<path fill="#000000" stroke="none" d="M410 1991 c-173 -14 -373 -126 -399
-223 l-11 -43 42 -38 c49 -44 76 -62 205 -138 l93 -54 0 -67 c0 -74 -8 -98
-58 -175 l-34 -52 25 -53 c52 -115 156 -149 387 -129 167 16 158 17 233 -45
l67 -56 0 -56 0 -57 49 -32 c27 -17 87 -43 133 -57 59 -18 93 -35 113 -56 35
-36 32 -44 -58 -144 l-62 -68 -98 -12 c-89 -10 -100 -14 -118 -38 l-20 -27 37
-16 c20 -8 38 -15 40 -15 2 0 124 -76 271 -170 147 -93 268 -168 271 -166 2 2
0 311 -4 686 l-7 681 -95 75 c-84 65 -105 89 -173 191 l-78 117 -148 60 c-82
34 -196 89 -254 124 l-105 62 -85 -2 c-46 -1 -118 -4 -159 -7z"/>
</g>
</svg>
