<?xml version="1.0" standalone="no"?>
<!DOCTYPE svg PUBLIC "-//W3C//DTD SVG 20010904//EN"
 "http://www.w3.org/TR/2001/REC-SVG-20010904/DTD/svg10.dtd">
<svg version="1.0" xmlns="http://www.w3.org/2000/svg"
 width="102.000000pt" height="120.000000pt" viewBox="0 0 102.000000 120.000000"
 preserveAspectRatio="xMidYMid meet">
<metadata>
Created by potrace 1.14, written by Peter Selinger 2001-2017
</metadata>
<g transform="translate(0.000000,120.000000) scale(0.100000,-0.100000)"
fill="#000000" stroke="none">
<path fill="#000000" stroke="none" d="M202 1093 l-11 -107 30 -33 c20 -24 29
-44 29 -69 0 -44 31 -106 64 -128 40 -26 17 -62 -61 -97 -34 -15 -89 -46 -122
-68 l-59 -41 -37 -155 c-21 -86 -35 -158 -33 -160 2 -3 78 20 168 50 91 30
167 55 171 55 4 0 71 -74 149 -164 l141 -163 180 -8 c99 -4 182 -5 185 -2 3 3
10 90 15 195 l10 189 -49 119 c-46 110 -54 121 -97 150 -31 21 -65 34 -100 39
-31 3 -65 15 -81 27 l-27 22 4 189 4 190 -85 38 -85 38 -146 0 -146 1 -11
-107z"/>
</g>
</svg>
