<?xml version="1.0" standalone="no"?>
<!DOCTYPE svg PUBLIC "-//W3C//DTD SVG 20010904//EN"
 "http://www.w3.org/TR/2001/REC-SVG-20010904/DTD/svg10.dtd">
<svg version="1.0" xmlns="http://www.w3.org/2000/svg"
 width="31.000000pt" height="38.000000pt" viewBox="0 0 31.000000 38.000000"
 preserveAspectRatio="xMidYMid meet">
<metadata>
Created by potrace 1.14, written by Peter Selinger 2001-2017
</metadata>
<g transform="translate(0.000000,38.000000) scale(0.100000,-0.100000)"
fill="#000000" stroke="none">
<path fill="#000000" stroke="none" d="M32 323 l-30 -58 19 -85 c10 -47 19
-107 19 -134 0 -38 3 -46 13 -38 6 6 41 18 77 27 l65 17 58 -25 57 -26 -4 22
c-3 12 -8 62 -11 112 -3 50 -15 122 -27 161 -20 70 -22 72 -57 78 -20 3 -61 6
-92 6 l-56 0 -31 -57z"/>
</g>
</svg>
