<?xml version="1.0" standalone="no"?>
<!DOCTYPE svg PUBLIC "-//W3C//DTD SVG 20010904//EN"
 "http://www.w3.org/TR/2001/REC-SVG-20010904/DTD/svg10.dtd">
<svg version="1.0" xmlns="http://www.w3.org/2000/svg"
 width="28.000000pt" height="34.000000pt" viewBox="0 0 28.000000 34.000000"
 preserveAspectRatio="xMidYMid meet">
<metadata>
Created by potrace 1.14, written by Peter Selinger 2001-2017
</metadata>
<g transform="translate(0.000000,34.000000) scale(0.100000,-0.100000)"
fill="#000000" stroke="none">
<path fill="#000000" stroke="none" d="M26 311 c-25 -48 -27 -87 -10 -155 15
-61 20 -68 52 -82 20 -8 39 -18 42 -23 3 -5 23 -18 46 -29 l40 -21 44 38 c44
38 44 38 27 64 -9 15 -17 38 -17 52 0 21 -5 25 -28 25 -27 0 -30 4 -42 55 -18
76 -29 87 -89 95 -49 6 -53 5 -65 -19z"/>
</g>
</svg>
