<?xml version="1.0" standalone="no"?>
<!DOCTYPE svg PUBLIC "-//W3C//DTD SVG 20010904//EN"
 "http://www.w3.org/TR/2001/REC-SVG-20010904/DTD/svg10.dtd">
<svg version="1.0" xmlns="http://www.w3.org/2000/svg"
 width="45.000000pt" height="53.000000pt" viewBox="0 0 45.000000 53.000000"
 preserveAspectRatio="xMidYMid meet">
<metadata>
Created by potrace 1.14, written by Peter Selinger 2001-2017
</metadata>
<g transform="translate(0.000000,53.000000) scale(0.100000,-0.100000)"
fill="#000000" stroke="none">
<path fill="#000000" stroke="none" d="M92 500 c-46 -33 -51 -53 -39 -145 5
-33 5 -91 1 -130 -4 -38 -8 -82 -9 -96 -2 -14 -12 -48 -24 -74 -12 -26 -21
-49 -21 -51 0 -2 47 -4 105 -4 93 0 105 2 105 18 0 25 37 82 54 82 16 0 21 12
32 73 l6 37 52 1 c44 0 54 4 74 29 l22 28 -37 32 c-35 28 -39 29 -48 13 -15
-25 -53 -63 -63 -63 -11 0 -22 49 -22 100 0 21 -6 55 -14 76 -7 22 -11 54 -9
72 l5 32 -64 0 c-56 0 -71 -4 -106 -30z"/>
</g>
</svg>
