<?xml version="1.0" standalone="no"?>
<!DOCTYPE svg PUBLIC "-//W3C//DTD SVG 20010904//EN"
 "http://www.w3.org/TR/2001/REC-SVG-20010904/DTD/svg10.dtd">
<svg version="1.0" xmlns="http://www.w3.org/2000/svg"
 width="32.000000pt" height="42.000000pt" viewBox="0 0 32.000000 42.000000"
 preserveAspectRatio="xMidYMid meet">
<metadata>
Created by potrace 1.14, written by Peter Selinger 2001-2017
</metadata>
<g transform="translate(0.000000,42.000000) scale(0.100000,-0.100000)"
fill="#000000" stroke="none">
<path fill="#000000" stroke="none" d="M227 408 c-9 -5 -17 -19 -17 -32 0 -16
-10 -27 -35 -39 -37 -18 -41 -30 -25 -72 9 -24 8 -26 -12 -19 -25 7 -31 8 -65
6 -21 -2 -23 -7 -23 -61 0 -38 -4 -61 -12 -64 -9 -3 -7 -9 6 -19 16 -13 17
-18 6 -39 -7 -13 -22 -32 -34 -41 -15 -13 -17 -18 -6 -18 8 0 24 -3 36 -6 17
-5 22 0 27 23 3 15 19 46 35 68 26 36 36 42 93 54 60 11 67 15 92 55 30 48 35
97 12 116 -8 7 -15 27 -15 45 0 37 -34 60 -63 43z"/>
</g>
</svg>
