<?xml version="1.0" standalone="no"?>
<!DOCTYPE svg PUBLIC "-//W3C//DTD SVG 20010904//EN"
 "http://www.w3.org/TR/2001/REC-SVG-20010904/DTD/svg10.dtd">
<svg version="1.0" xmlns="http://www.w3.org/2000/svg"
 width="119.000000pt" height="147.000000pt" viewBox="0 0 119.000000 147.000000"
 preserveAspectRatio="xMidYMid meet">
<metadata>
Created by potrace 1.14, written by Peter Selinger 2001-2017
</metadata>
<g transform="translate(0.000000,147.000000) scale(0.100000,-0.100000)"
fill="#000000" stroke="none">
<path fill="#000000" stroke="none" d="M394 1448 c-53 -18 -63 -26 -84 -64
-12 -24 -26 -44 -29 -44 -3 0 -64 16 -136 35 -71 19 -131 32 -134 29 -7 -7 -2
-1056 5 -1179 l6 -100 55 -24 c31 -14 83 -42 116 -64 57 -37 63 -39 115 -32
73 9 80 12 98 46 11 22 22 29 45 29 17 0 94 21 172 46 116 38 163 59 255 116
l112 70 54 102 c41 75 67 143 101 264 l47 162 -18 80 c-25 119 -33 124 -272
185 -171 44 -197 53 -200 71 -2 16 5 23 36 32 l38 12 19 97 c10 54 20 103 22
108 7 19 -138 5 -174 -16 -39 -24 -66 -19 -130 27 -26 19 -50 34 -53 33 -3 0
-32 -10 -66 -21z"/>
</g>
</svg>
