<?xml version="1.0" standalone="no"?>
<!DOCTYPE svg PUBLIC "-//W3C//DTD SVG 20010904//EN"
 "http://www.w3.org/TR/2001/REC-SVG-20010904/DTD/svg10.dtd">
<svg version="1.0" xmlns="http://www.w3.org/2000/svg"
 width="152.000000pt" height="195.000000pt" viewBox="0 0 152.000000 195.000000"
 preserveAspectRatio="xMidYMid meet">
<metadata>
Created by potrace 1.14, written by Peter Selinger 2001-2017
</metadata>
<g transform="translate(0.000000,195.000000) scale(0.100000,-0.100000)"
fill="#000000" stroke="none">
<path fill="#000000" stroke="none" d="M896 1928 c-31 -18 -44 -34 -57 -73
-24 -65 -23 -102 0 -149 l20 -38 -32 -12 c-18 -7 -39 -16 -48 -19 -9 -3 -38
-42 -64 -87 l-48 -81 -140 -71 -141 -70 -65 8 c-36 5 -77 8 -90 7 -45 -4 -55
-52 -20 -89 19 -20 25 -21 43 -11 14 8 71 12 166 12 l146 0 88 53 c48 28 91
52 94 52 4 0 24 -25 45 -54 38 -56 43 -82 31 -158 -6 -32 -14 -42 -68 -74
-105 -64 -172 -131 -283 -280 l-107 -145 -70 -192 -71 -192 -88 -18 c-49 -9
-101 -23 -115 -31 -26 -14 -24 -15 106 -80 72 -36 136 -66 140 -66 5 0 34 57
66 128 31 70 73 153 94 183 31 47 40 55 53 46 14 -8 48 7 167 75 126 72 152
83 157 69 4 -9 31 -87 61 -175 l54 -158 -10 -81 c-5 -45 -10 -87 -10 -94 0
-10 141 -63 168 -63 4 0 5 30 4 67 -2 37 6 148 18 248 24 200 50 284 157 525
l56 124 -6 113 c-5 107 -4 115 16 139 l22 25 31 -33 31 -33 -8 -135 c-6 -98
-15 -151 -30 -193 -21 -55 -21 -59 -5 -102 10 -24 23 -42 29 -40 7 2 24 6 38
9 38 8 51 47 44 125 -5 53 0 95 25 214 32 149 32 149 15 215 -11 43 -41 108
-84 182 l-67 114 -103 61 c-101 59 -103 61 -127 120 -14 33 -32 85 -40 115 -9
30 -21 60 -28 66 -6 7 -36 15 -66 18 -46 5 -61 2 -94 -16z"/>
</g>
</svg>
