<?xml version="1.0" standalone="no"?>
<!DOCTYPE svg PUBLIC "-//W3C//DTD SVG 20010904//EN"
 "http://www.w3.org/TR/2001/REC-SVG-20010904/DTD/svg10.dtd">
<svg version="1.0" xmlns="http://www.w3.org/2000/svg"
 width="280.000000pt" height="369.000000pt" viewBox="0 0 280.000000 369.000000"
 preserveAspectRatio="xMidYMid meet">
<metadata>
Created by potrace 1.14, written by Peter Selinger 2001-2017
</metadata>
<g transform="translate(0.000000,369.000000) scale(0.100000,-0.100000)"
fill="#000000" stroke="none">
<path fill="#000000" stroke="none" d="M1425 3634 l-131 -54 -78 -159 -79
-158 42 -90 41 -90 0 -151 c0 -184 -11 -241 -57 -282 -18 -17 -33 -35 -33 -39
0 -5 -59 -55 -130 -111 -72 -55 -137 -111 -144 -123 -24 -37 -84 -298 -89
-386 -8 -131 29 -327 87 -463 25 -59 46 -113 46 -120 0 -8 -9 -41 -20 -74 -17
-49 -33 -73 -93 -131 -69 -68 -77 -72 -186 -109 -79 -26 -141 -56 -205 -96
-50 -33 -127 -79 -171 -104 -78 -44 -83 -49 -132 -132 l-50 -87 -17 -255 c-9
-140 -19 -285 -22 -322 l-6 -66 33 -18 c30 -15 55 -16 244 -10 115 4 210 8
211 9 1 1 -4 64 -12 139 l-15 137 30 115 c33 133 50 158 171 254 l75 60 214
22 213 22 38 -37 37 -37 73 37 c73 37 74 37 89 17 67 -84 146 -170 153 -166 4
3 8 33 8 67 0 34 3 79 6 99 6 33 11 39 43 48 20 5 39 10 42 10 4 0 77 -83 163
-184 l156 -185 133 63 132 62 3 125 3 124 92 93 c90 91 91 93 57 87 -91 -16
-343 58 -467 138 -27 16 -74 38 -105 47 -38 12 -92 44 -163 96 -97 71 -117 91
-230 238 -68 89 -173 221 -235 294 -109 131 -111 134 -96 157 12 19 16 51 16
138 l0 113 146 28 c136 25 251 61 537 170 l67 25 30 -58 c28 -56 32 -60 92
-81 35 -12 90 -28 123 -34 53 -10 60 -15 63 -36 2 -23 -8 -29 -163 -89 l-166
-64 -75 11 c-71 11 -77 11 -123 -12 -55 -28 -67 -51 -74 -142 -6 -70 13 -123
57 -163 25 -23 32 -24 129 -22 93 2 105 4 142 30 35 24 45 27 79 19 22 -5 71
-26 110 -47 86 -47 179 -83 263 -101 63 -13 63 -13 116 19 87 53 91 58 218
274 l122 209 -34 84 c-26 66 -55 111 -127 202 l-94 117 -140 30 -139 30 -155
120 -155 120 -88 155 c-71 125 -90 166 -95 210 -7 59 -54 361 -61 396 -5 23
-109 85 -141 83 -11 0 -78 -25 -149 -55z"/>
</g>
</svg>
