<?xml version="1.0" standalone="no"?>
<!DOCTYPE svg PUBLIC "-//W3C//DTD SVG 20010904//EN"
 "http://www.w3.org/TR/2001/REC-SVG-20010904/DTD/svg10.dtd">
<svg version="1.0" xmlns="http://www.w3.org/2000/svg"
 width="234.000000pt" height="286.000000pt" viewBox="0 0 234.000000 286.000000"
 preserveAspectRatio="xMidYMid meet">
<metadata>
Created by potrace 1.14, written by Peter Selinger 2001-2017
</metadata>
<g transform="translate(0.000000,286.000000) scale(0.100000,-0.100000)"
fill="#000000" stroke="none">
<path fill="#000000" stroke="none" d="M1613 2853 l-32 -4 -4 -87 c-2 -48 -9
-123 -16 -168 -12 -70 -12 -87 3 -136 27 -95 29 -93 -75 -106 -85 -12 -93 -15
-153 -62 -59 -46 -71 -51 -169 -70 -59 -11 -122 -21 -141 -22 -27 -1 -45 -11
-78 -45 -23 -23 -46 -43 -51 -43 -5 0 -25 -12 -43 -27 -19 -16 -50 -41 -70
-57 -63 -52 -114 -130 -114 -175 0 -22 -9 -64 -19 -93 -27 -72 -32 -305 -8
-358 12 -27 17 -91 22 -280 l7 -245 -53 -40 c-30 -22 -74 -52 -100 -67 -85
-49 -201 -225 -280 -425 -44 -113 -94 -198 -155 -264 -51 -55 -54 -57 -54 -32
0 33 -16 20 -25 -20 l-7 -27 183 2 184 3 3 24 c2 13 -6 36 -17 52 -25 34 -25
34 50 145 27 40 77 96 113 126 36 29 103 103 149 163 47 61 116 138 154 171
38 34 87 89 109 122 35 51 44 78 68 193 28 132 91 388 98 394 2 2 11 5 22 7
14 2 34 -22 86 -107 79 -128 171 -245 291 -369 83 -85 87 -88 140 -95 44 -5
67 -15 116 -51 l61 -45 6 -85 c15 -193 0 -341 -39 -372 -28 -21 -54 -102 -55
-168 0 -25 -1 -55 -1 -68 -1 -13 2 -26 6 -30 10 -10 525 -15 570 -5 31 7 41
14 43 32 5 32 -32 68 -77 76 -67 11 -201 106 -201 142 0 9 12 30 27 45 25 26
25 28 6 28 -11 0 -26 -7 -33 -15 -17 -21 -29 -19 -41 8 -8 19 -4 46 21 131
l31 107 -60 95 -61 94 30 15 c36 19 38 19 36 -2 -1 -12 13 -21 47 -31 27 -7
51 -11 54 -8 3 3 14 54 25 113 10 60 23 134 28 166 8 41 7 64 -1 80 -22 42
-116 162 -187 238 l-72 77 10 48 c6 33 5 70 -2 110 -10 57 -9 67 22 160 18 54
53 149 78 209 39 94 45 120 46 183 1 43 -4 76 -10 80 -6 4 -12 15 -12 25 -1 9
-3 23 -4 31 -1 7 4 34 11 59 10 36 17 44 31 40 18 -5 19 3 19 116 1 157 -11
185 -112 273 -63 55 -85 68 -143 83 -38 10 -78 23 -88 28 -22 11 -96 16 -143
10z"/>
<path fill="#ffffff" stroke="none" d="M1834 879 c39 -35 67 -56 63 -46 -9 23
9 13 23 -13 9 -18 8 -19 -12 -11 -80 31 -136 60 -235 119 l-112 67 -1 43 0 42
103 -69 c56 -37 133 -97 171 -132z"/>
</g>
</svg>
