<?xml version="1.0" standalone="no"?>
<!DOCTYPE svg PUBLIC "-//W3C//DTD SVG 20010904//EN"
 "http://www.w3.org/TR/2001/REC-SVG-20010904/DTD/svg10.dtd">
<svg version="1.0" xmlns="http://www.w3.org/2000/svg"
 width="161.000000pt" height="207.000000pt" viewBox="0 0 161.000000 207.000000"
 preserveAspectRatio="xMidYMid meet">
<metadata>
Created by potrace 1.14, written by Peter Selinger 2001-2017
</metadata>
<g transform="translate(0.000000,207.000000) scale(0.100000,-0.100000)"
fill="#000000" stroke="none">
<path fill="#000000" stroke="none" d="M557 2024 c-25 -26 -49 -60 -52 -76 -8
-35 1 -94 26 -167 l19 -55 -47 -46 c-27 -25 -64 -69 -83 -98 l-35 -52 -70 0
-70 0 -18 -51 c-22 -60 -16 -101 19 -123 22 -15 24 -15 24 2 0 15 6 18 25 15
26 -5 44 -41 27 -52 -6 -4 13 -38 46 -82 65 -86 73 -88 120 -23 17 23 40 44
51 47 19 5 21 1 20 -41 -2 -163 -13 -211 -88 -386 -54 -124 -90 -192 -135
-255 -35 -47 -102 -162 -151 -256 -48 -93 -102 -186 -120 -205 -18 -19 -40
-52 -48 -72 -19 -44 -13 -48 72 -48 56 0 58 1 75 37 9 20 55 89 101 152 61 86
109 139 186 206 58 51 146 144 205 216 97 119 107 128 174 158 l71 31 86 -67
c48 -38 120 -109 162 -160 63 -75 85 -113 124 -205 37 -88 47 -125 47 -168 0
-44 6 -63 30 -99 17 -24 30 -57 30 -72 l0 -28 113 6 c61 3 114 7 116 9 2 2
-30 39 -71 83 l-76 80 -11 83 c-16 110 -43 213 -95 366 -39 114 -58 150 -179
342 l-136 215 11 47 c9 39 8 51 -5 72 -12 18 -17 48 -17 107 0 46 -5 122 -11
171 -11 87 -12 89 -52 118 -23 17 -72 40 -110 52 l-69 23 7 50 c3 27 9 68 12
90 5 40 4 42 -62 98 -89 76 -121 78 -188 11z"/>
</g>
</svg>
