<?xml version="1.0" standalone="no"?>
<!DOCTYPE svg PUBLIC "-//W3C//DTD SVG 20010904//EN"
 "http://www.w3.org/TR/2001/REC-SVG-20010904/DTD/svg10.dtd">
<svg version="1.0" xmlns="http://www.w3.org/2000/svg"
 width="150.000000pt" height="183.000000pt" viewBox="0 0 150.000000 183.000000"
 preserveAspectRatio="xMidYMid meet">
<metadata>
Created by potrace 1.14, written by Peter Selinger 2001-2017
</metadata>
<g transform="translate(0.000000,183.000000) scale(0.100000,-0.100000)"
fill="#000000" stroke="none">
<path fill="#000000" stroke="none" d="M650 1824 c-12 -4 -27 -61 -59 -222
-40 -204 -46 -222 -92 -309 l-50 -93 -42 1 c-23 0 -115 8 -205 18 l-162 17
-20 -30 c-10 -17 -18 -31 -17 -32 6 -5 413 -124 425 -124 8 0 47 18 87 40 40
22 75 40 79 40 3 0 33 -53 65 -118 l59 -119 -77 -329 c-59 -248 -86 -346 -112
-397 -26 -52 -31 -70 -21 -76 16 -10 192 23 249 46 l42 18 -20 21 c-20 21 -20
21 8 132 15 62 30 106 34 99 4 -6 19 -53 33 -104 l27 -91 -50 -101 c-28 -55
-51 -103 -51 -106 0 -13 35 -1 156 52 71 31 165 66 208 78 l80 22 -61 12 -61
13 -66 194 -66 193 91 211 c84 198 89 213 79 248 -5 20 -10 41 -10 45 0 5 74
-30 163 -77 l164 -85 23 31 23 32 -64 58 c-35 32 -177 158 -316 280 l-251 223
-71 148 c-70 146 -71 147 -103 146 -18 -1 -40 -3 -48 -5z"/>
</g>
</svg>
