<?xml version="1.0" standalone="no"?>
<!DOCTYPE svg PUBLIC "-//W3C//DTD SVG 20010904//EN"
 "http://www.w3.org/TR/2001/REC-SVG-20010904/DTD/svg10.dtd">
<svg version="1.0" xmlns="http://www.w3.org/2000/svg"
 width="229.000000pt" height="292.000000pt" viewBox="0 0 229.000000 292.000000"
 preserveAspectRatio="xMidYMid meet">
<metadata>
Created by potrace 1.14, written by Peter Selinger 2001-2017
</metadata>
<g transform="translate(0.000000,292.000000) scale(0.100000,-0.100000)"
fill="#000000" stroke="none">
<path fill="#000000" stroke="none" d="M1424 2891 c-67 -31 -72 -41 -89 -166
-4 -27 -15 -58 -23 -68 -14 -15 -14 -24 -3 -65 12 -45 11 -48 -14 -69 -19 -17
-39 -23 -74 -23 -39 0 -60 -8 -117 -44 -46 -30 -85 -47 -119 -51 -34 -5 -59
-16 -80 -35 -16 -15 -45 -31 -64 -35 -18 -4 -61 -25 -95 -46 -34 -21 -86 -47
-116 -57 -30 -11 -91 -37 -135 -60 l-80 -40 -79 -143 c-47 -87 -94 -189 -117
-257 -30 -88 -47 -124 -82 -165 -47 -55 -106 -179 -127 -266 -12 -49 -11 -54
14 -91 l26 -40 185 0 c172 0 188 -2 254 -25 58 -21 74 -24 90 -13 24 15 26 24
42 156 7 56 14 101 15 99 6 -6 64 -1035 64 -1131 0 -72 -5 -108 -20 -147 l-20
-51 27 -21 c40 -33 51 -36 146 -36 86 -1 88 -1 99 27 13 33 15 181 4 367 -6
109 -4 162 8 239 20 132 6 242 -36 282 l-27 27 29 58 c16 31 38 98 49 148 11
51 34 134 50 186 23 71 29 105 25 137 -4 31 2 69 20 133 l27 90 -26 20 -25 21
33 32 c18 18 38 32 44 32 6 0 13 13 16 30 7 34 48 51 78 31 10 -6 27 -11 36
-11 26 -1 45 -18 86 -79 35 -52 35 -55 22 -88 -13 -32 -13 -33 5 -23 10 6 22
15 26 21 3 6 22 -13 41 -43 73 -109 158 -179 335 -273 71 -37 107 -52 115 -44
14 14 193 -145 193 -172 0 -10 7 -19 15 -19 19 0 19 33 0 70 -12 24 -12 29 -1
33 23 9 45 -15 59 -62 7 -25 18 -46 26 -49 10 -3 11 2 6 19 -6 20 -5 22 6 11
18 -17 29 -15 29 6 1 14 3 14 19 -5 21 -26 51 -31 51 -9 0 8 4 16 9 18 5 2
-24 38 -63 80 -68 74 -74 78 -131 89 -33 6 -75 19 -94 30 -61 36 -248 187
-266 216 -10 15 -39 47 -65 71 -56 49 -138 160 -150 201 -13 45 19 89 70 97
22 4 40 9 40 12 0 2 -5 22 -12 44 l-12 40 -15 -29 c-25 -44 -84 -123 -93 -123
-4 0 -10 12 -14 28 -3 15 -10 37 -15 50 -15 39 -11 49 43 100 40 38 56 48 69
41 14 -7 22 5 49 74 42 107 50 185 22 224 -17 24 -19 35 -12 73 5 25 9 48 10
53 0 4 12 7 26 7 27 0 27 0 20 60 -6 50 -4 61 9 66 14 6 14 9 2 23 -8 9 -17
36 -21 61 -16 103 -23 116 -90 144 -75 32 -86 32 -162 -3z"/>
</g>
</svg>
