<?xml version="1.0" standalone="no"?>
<!DOCTYPE svg PUBLIC "-//W3C//DTD SVG 20010904//EN"
 "http://www.w3.org/TR/2001/REC-SVG-20010904/DTD/svg10.dtd">
<svg version="1.0" xmlns="http://www.w3.org/2000/svg"
 width="121.000000pt" height="144.000000pt" viewBox="0 0 121.000000 144.000000"
 preserveAspectRatio="xMidYMid meet">
<metadata>
Created by potrace 1.14, written by Peter Selinger 2001-2017
</metadata>
<g transform="translate(0.000000,144.000000) scale(0.100000,-0.100000)"
fill="#000000" stroke="none">
<path fill="#000000" stroke="none" d="M487 1315 c-37 -69 -77 -148 -88 -177
-11 -28 -29 -65 -41 -81 -23 -32 -24 -27 26 -110 17 -27 -25 -95 -103 -169
-56 -55 -75 -66 -124 -78 -65 -15 -94 -44 -104 -104 -4 -28 -2 -35 16 -41 31
-9 26 -40 -14 -83 -36 -41 -54 -97 -55 -169 l0 -42 103 -32 c56 -17 120 -34
142 -37 69 -8 75 -15 75 -87 0 -36 2 -65 4 -65 29 0 361 -32 367 -35 4 -3 44
37 90 89 l84 94 166 57 c162 54 167 57 173 87 8 39 8 200 0 303 l-7 81 -72 52
c-40 29 -97 63 -127 75 -29 12 -67 30 -84 41 l-31 19 35 51 c19 28 45 72 58
97 l23 47 -21 73 c-11 41 -35 103 -53 139 l-33 65 -125 33 c-68 17 -144 32
-168 32 l-44 0 -68 -125z"/>
</g>
</svg>
