<?xml version="1.0" standalone="no"?>
<!DOCTYPE svg PUBLIC "-//W3C//DTD SVG 20010904//EN"
 "http://www.w3.org/TR/2001/REC-SVG-20010904/DTD/svg10.dtd">
<svg version="1.0" xmlns="http://www.w3.org/2000/svg"
 width="75.000000pt" height="90.000000pt" viewBox="0 0 75.000000 90.000000"
 preserveAspectRatio="xMidYMid meet">
<metadata>
Created by potrace 1.14, written by Peter Selinger 2001-2017
</metadata>
<g transform="translate(0.000000,90.000000) scale(0.100000,-0.100000)"
fill="#000000" stroke="none">
<path fill="#000000" stroke="none" d="M151 875 c-10 -11 -27 -34 -39 -51 -11
-17 -39 -43 -60 -58 l-40 -27 24 -75 c17 -55 35 -90 68 -129 39 -45 46 -60 46
-97 l0 -43 54 -1 c38 -1 69 -10 106 -30 l52 -28 -6 -101 -6 -100 91 -68 c50
-38 93 -67 95 -64 12 12 22 156 13 200 -9 48 -8 51 26 88 19 21 43 56 54 78
12 22 27 44 35 48 25 15 86 259 86 341 -1 39 -7 54 -36 87 l-35 39 -132 3
c-73 2 -187 4 -255 6 -113 3 -124 1 -141 -18z"/>
<path fill="#000000" stroke="none" d="M44 120 l-41 -105 25 -7 c20 -6 34 0
64 23 21 17 38 35 38 39 0 5 -9 31 -19 58 -10 26 -21 59 -23 72 -2 18 -14 -3
-44 -80z"/>
</g>
</svg>
