<?xml version="1.0" standalone="no"?>
<!DOCTYPE svg PUBLIC "-//W3C//DTD SVG 20010904//EN"
 "http://www.w3.org/TR/2001/REC-SVG-20010904/DTD/svg10.dtd">
<svg version="1.0" xmlns="http://www.w3.org/2000/svg"
 width="49.000000pt" height="61.000000pt" viewBox="0 0 49.000000 61.000000"
 preserveAspectRatio="xMidYMid meet">
<metadata>
Created by potrace 1.14, written by Peter Selinger 2001-2017
</metadata>
<g transform="translate(0.000000,61.000000) scale(0.100000,-0.100000)"
fill="#000000" stroke="none">
<path fill="#000000" stroke="none" d="M80 567 c-18 -22 -40 -58 -47 -81 -8
-22 -19 -43 -24 -47 -6 -3 -6 -38 1 -95 5 -49 10 -97 10 -106 0 -12 8 -18 25
-18 23 0 65 -31 65 -47 0 -5 -9 -23 -20 -41 l-21 -34 32 -49 c17 -27 33 -49
36 -49 3 0 3 18 0 40 -3 21 1 56 8 77 12 35 16 38 75 51 56 13 66 12 101 -4
22 -9 39 -23 39 -31 0 -7 4 -13 10 -13 16 0 120 70 120 80 0 5 -12 27 -27 49
-25 34 -34 39 -78 44 -66 6 -125 -22 -155 -75 -34 -60 -51 -41 -88 101 -18 67
-32 132 -32 146 0 14 16 51 35 81 19 30 35 57 35 60 0 2 -15 4 -34 2 -25 -1
-41 -12 -66 -41z"/>
<path fill="#ffffff" stroke="none" d="M90 240 c-6 -12 -14 -19 -17 -17 -2 3
1 15 7 27 6 12 14 19 17 17 2 -3 -1 -15 -7 -27z"/>
</g>
</svg>
