<?xml version="1.0" standalone="no"?>
<!DOCTYPE svg PUBLIC "-//W3C//DTD SVG 20010904//EN"
 "http://www.w3.org/TR/2001/REC-SVG-20010904/DTD/svg10.dtd">
<svg version="1.0" xmlns="http://www.w3.org/2000/svg"
 width="324.000000pt" height="429.000000pt" viewBox="0 0 324.000000 429.000000"
 preserveAspectRatio="xMidYMid meet">
<metadata>
Created by potrace 1.14, written by Peter Selinger 2001-2017
</metadata>
<g transform="translate(0.000000,429.000000) scale(0.100000,-0.100000)"
fill="#000000" stroke="none">
<path fill="#000000" stroke="none" d="M1529 4276 l-167 -11 -97 -69 c-53 -38
-101 -78 -106 -90 -5 -11 -27 -80 -47 -151 -27 -92 -36 -138 -31 -155 4 -14
15 -50 24 -82 10 -35 35 -81 65 -122 l50 -65 0 -84 c0 -73 -5 -95 -39 -184
-22 -55 -57 -136 -80 -180 -26 -52 -46 -111 -57 -169 l-17 -90 88 -159 c48
-88 132 -260 186 -383 98 -220 99 -223 99 -300 0 -51 -15 -149 -44 -288 -53
-261 -58 -269 -217 -362 -93 -54 -149 -77 -381 -154 -247 -82 -281 -97 -358
-148 -47 -32 -92 -65 -99 -74 -8 -9 -43 -36 -80 -60 -36 -24 -101 -80 -145
-123 l-78 -78 6 -125 c3 -69 6 -158 6 -197 l0 -73 84 0 84 0 139 119 c79 69
161 150 193 191 l55 72 328 73 c180 40 341 78 357 84 l30 10 0 -112 0 -112
-153 -58 c-149 -57 -154 -60 -168 -95 -8 -20 -16 -41 -18 -46 -2 -4 19 -5 46
-1 34 4 118 -3 269 -24 120 -18 229 -34 241 -36 19 -5 31 -30 80 -185 l57
-180 752 0 752 0 6 73 c7 80 46 952 76 1662 l19 460 -77 407 -77 406 -130 165
-130 165 -102 43 -102 44 -99 220 c-55 121 -118 263 -141 315 l-42 95 -280
118 c-221 92 -289 117 -322 115 -23 0 -117 -6 -208 -12z"/>
</g>
</svg>
