<?xml version="1.0" standalone="no"?>
<!DOCTYPE svg PUBLIC "-//W3C//DTD SVG 20010904//EN"
 "http://www.w3.org/TR/2001/REC-SVG-20010904/DTD/svg10.dtd">
<svg version="1.0" xmlns="http://www.w3.org/2000/svg"
 width="12.000000pt" height="16.000000pt" viewBox="0 0 12.000000 16.000000"
 preserveAspectRatio="xMidYMid meet">
<metadata>
Created by potrace 1.14, written by Peter Selinger 2001-2017
</metadata>
<g transform="translate(0.000000,16.000000) scale(0.100000,-0.100000)"
fill="#000000" stroke="none">
<path fill="#000000" stroke="none" d="M17 154 c-13 -13 -7 -46 13 -71 25 -32
26 -52 2 -30 -21 19 -32 22 -32 8 0 -5 16 -21 35 -35 l35 -27 10 26 c7 18 15
25 25 21 13 -4 12 0 -2 27 -10 17 -20 43 -23 57 -4 18 -13 26 -30 28 -14 2
-29 0 -33 -4z"/>
</g>
</svg>
