<?xml version="1.0" standalone="no"?>
<!DOCTYPE svg PUBLIC "-//W3C//DTD SVG 20010904//EN"
 "http://www.w3.org/TR/2001/REC-SVG-20010904/DTD/svg10.dtd">
<svg version="1.0" xmlns="http://www.w3.org/2000/svg"
 width="59.000000pt" height="75.000000pt" viewBox="0 0 59.000000 75.000000"
 preserveAspectRatio="xMidYMid meet">
<metadata>
Created by potrace 1.14, written by Peter Selinger 2001-2017
</metadata>
<g transform="translate(0.000000,75.000000) scale(0.100000,-0.100000)"
fill="#000000" stroke="none">
<path fill="#000000" stroke="none" d="M86 726 c-9 -14 -22 -36 -29 -48 -8
-13 -22 -47 -32 -76 l-17 -54 31 -32 32 -33 -36 -27 -35 -27 0 -94 c0 -84 4
-106 39 -205 22 -62 41 -113 43 -115 2 -1 77 -5 167 -7 l164 -4 -6 118 -5 118
36 -22 c21 -12 49 -30 64 -40 14 -10 40 -18 57 -18 53 0 41 35 -44 120 -67 67
-77 83 -94 140 l-18 65 -59 9 c-32 5 -60 9 -61 10 -1 1 3 24 10 51 10 38 10
62 2 100 -13 61 -44 82 -132 91 -58 6 -62 5 -77 -20z"/>
</g>
</svg>
