<?xml version="1.0" standalone="no"?>
<!DOCTYPE svg PUBLIC "-//W3C//DTD SVG 20010904//EN"
 "http://www.w3.org/TR/2001/REC-SVG-20010904/DTD/svg10.dtd">
<svg version="1.0" xmlns="http://www.w3.org/2000/svg"
 width="28.000000pt" height="37.000000pt" viewBox="0 0 28.000000 37.000000"
 preserveAspectRatio="xMidYMid meet">
<metadata>
Created by potrace 1.14, written by Peter Selinger 2001-2017
</metadata>
<g transform="translate(0.000000,37.000000) scale(0.100000,-0.100000)"
fill="#000000" stroke="none">
<path fill="#000000" stroke="none" d="M89 338 c-16 -22 -22 -43 -20 -74 2
-37 -3 -49 -34 -82 -29 -33 -35 -47 -35 -83 l0 -44 23 29 c19 24 28 27 53 22
30 -7 64 -55 64 -92 0 -11 9 -8 35 12 19 14 35 33 35 41 0 9 16 30 36 49 35
31 36 36 31 80 -3 26 -20 76 -38 111 l-34 63 -47 0 c-41 0 -49 -4 -69 -32z"/>
</g>
</svg>
