<?xml version="1.0" standalone="no"?>
<!DOCTYPE svg PUBLIC "-//W3C//DTD SVG 20010904//EN"
 "http://www.w3.org/TR/2001/REC-SVG-20010904/DTD/svg10.dtd">
<svg version="1.0" xmlns="http://www.w3.org/2000/svg"
 width="316.000000pt" height="379.000000pt" viewBox="0 0 316.000000 379.000000"
 preserveAspectRatio="xMidYMid meet">
<metadata>
Created by potrace 1.14, written by Peter Selinger 2001-2017
</metadata>
<g transform="translate(0.000000,379.000000) scale(0.100000,-0.100000)"
fill="#000000" stroke="none">
<path fill="#000000" stroke="none" d="M1914 3781 c-98 -7 -98 -6 -225 -100
l-77 -56 -14 -102 c-12 -87 -12 -120 0 -234 l14 -133 -26 -21 c-15 -12 -86
-43 -159 -71 -107 -40 -143 -59 -191 -99 -32 -27 -69 -58 -81 -68 -18 -14 -92
-100 -147 -173 -6 -8 14 -29 57 -64 l66 -52 41 28 c22 16 72 57 112 93 48 44
100 78 161 107 119 56 135 60 190 39 25 -10 45 -18 45 -19 0 0 -11 -36 -24
-78 -21 -68 -35 -90 -131 -205 -58 -70 -120 -135 -138 -144 -31 -17 -33 -16
-112 23 -44 22 -121 73 -170 113 -75 61 -97 74 -132 76 -49 4 -113 -26 -113
-54 0 -15 5 -17 34 -12 63 12 98 -15 60 -45 -39 -33 -36 -47 19 -82 28 -18
104 -77 167 -132 94 -80 138 -110 240 -161 69 -34 136 -66 149 -70 13 -4 39
-13 57 -21 l32 -14 -71 -68 c-40 -38 -121 -108 -182 -157 -99 -81 -428 -357
-465 -392 -12 -11 -12 -17 -2 -34 12 -18 11 -24 -6 -43 -10 -11 -39 -78 -65
-148 -26 -69 -58 -151 -71 -182 -35 -79 -133 -220 -202 -292 -57 -59 -60 -65
-109 -212 l-49 -151 -56 -11 c-79 -16 -78 -15 -96 -59 -10 -26 -22 -39 -33
-38 -16 1 -188 -68 -203 -82 -4 -3 15 -46 41 -95 l48 -88 32 56 c18 31 37 56
42 56 6 0 67 -9 137 -20 183 -28 255 -28 320 0 l52 22 0 75 c0 47 -6 85 -15
103 -14 27 -14 33 0 60 9 17 20 30 25 30 18 0 50 44 50 70 0 25 52 110 67 110
3 0 14 -7 24 -16 11 -10 23 -13 32 -7 8 4 96 112 195 238 l180 230 129 76 c70
42 135 78 144 82 14 5 18 -24 29 -258 l13 -264 166 -75 c91 -41 245 -102 341
-135 166 -57 183 -61 337 -75 146 -13 168 -17 226 -46 36 -17 84 -34 108 -37
28 -4 89 -33 183 -88 143 -84 213 -108 234 -82 7 8 5 38 -7 97 -15 76 -27 101
-105 227 -72 118 -97 151 -146 188 -47 36 -65 44 -84 39 -27 -6 -227 33 -236
47 -3 4 -107 33 -230 64 -299 74 -299 74 -339 140 l-33 54 87 248 c70 199 98
267 146 346 l59 98 0 93 c0 119 30 281 69 375 20 48 40 126 56 223 14 82 34
188 45 236 11 48 31 146 43 217 l23 130 -80 165 -81 164 -85 26 c-81 24 -85
27 -92 60 -4 19 -11 111 -14 203 l-7 168 -58 40 c-32 21 -62 38 -66 37 -4 -1
-49 -4 -99 -7z"/>
</g>
</svg>
