<?xml version="1.0" standalone="no"?>
<!DOCTYPE svg PUBLIC "-//W3C//DTD SVG 20010904//EN"
 "http://www.w3.org/TR/2001/REC-SVG-20010904/DTD/svg10.dtd">
<svg version="1.0" xmlns="http://www.w3.org/2000/svg"
 width="72.000000pt" height="85.000000pt" viewBox="0 0 72.000000 85.000000"
 preserveAspectRatio="xMidYMid meet">
<metadata>
Created by potrace 1.14, written by Peter Selinger 2001-2017
</metadata>
<g transform="translate(0.000000,85.000000) scale(0.100000,-0.100000)"
fill="#000000" stroke="none">
<path fill="#000000" stroke="none" d="M311 836 c-9 -11 -8 -15 4 -20 18 -7
20 -26 2 -26 -8 0 -24 -12 -38 -26 -13 -14 -49 -41 -79 -59 -70 -43 -139 -123
-173 -203 l-27 -63 23 -57 c18 -44 31 -61 60 -77 35 -19 39 -19 84 -3 27 9 63
19 81 23 32 7 33 6 26 -22 -3 -15 -22 -66 -42 -113 -19 -47 -38 -109 -40 -137
l-4 -53 31 0 c28 0 30 2 22 23 l-9 23 69 -9 c44 -5 84 -5 107 1 l37 10 -32 1
c-24 1 -39 10 -61 39 l-30 37 49 70 c78 111 92 148 92 238 l1 77 24 -22 c13
-13 40 -47 59 -75 42 -63 77 -77 136 -55 47 19 50 51 9 81 -16 11 -46 41 -66
66 l-38 45 31 6 c43 9 68 41 84 111 l14 62 -53 36 c-61 40 -84 43 -102 15 -7
-11 -21 -20 -32 -20 -10 0 -26 -10 -34 -22 -9 -12 -16 -17 -16 -10 0 7 -13 12
-29 12 -28 0 -29 2 -24 33 6 39 -15 61 -68 71 -25 4 -40 2 -48 -8z"/>
</g>
</svg>
