<?xml version="1.0" standalone="no"?>
<!DOCTYPE svg PUBLIC "-//W3C//DTD SVG 20010904//EN"
 "http://www.w3.org/TR/2001/REC-SVG-20010904/DTD/svg10.dtd">
<svg version="1.0" xmlns="http://www.w3.org/2000/svg"
 width="306.000000pt" height="391.000000pt" viewBox="0 0 306.000000 391.000000"
 preserveAspectRatio="xMidYMid meet">
<metadata>
Created by potrace 1.14, written by Peter Selinger 2001-2017
</metadata>
<g transform="translate(0.000000,391.000000) scale(0.100000,-0.100000)"
fill="#000000" stroke="none">
<path fill="#000000" stroke="none" d="M1063 3862 c-22 -26 -80 -78 -129 -116
-49 -38 -103 -88 -120 -110 -84 -113 -78 -98 -84 -225 l-5 -117 -45 -74 c-25
-43 -96 -129 -162 -200 -133 -141 -165 -194 -294 -484 -69 -155 -79 -188 -125
-390 -42 -188 -50 -242 -55 -361 -3 -77 -10 -153 -15 -170 -5 -16 -14 -70 -20
-121 -8 -72 -7 -100 4 -130 13 -39 361 -528 422 -594 18 -19 47 -57 66 -85 18
-27 53 -71 77 -97 85 -92 182 -223 167 -226 -11 -3 -12 -8 -5 -21 5 -10 25
-89 45 -176 19 -87 36 -159 37 -160 6 -3 731 35 735 39 2 2 25 163 51 359 l48
355 -26 99 c-24 92 -35 114 -188 359 -89 143 -162 264 -162 267 0 4 68 41 152
83 99 49 219 122 343 207 l190 130 85 -18 c141 -31 124 -39 244 120 l105 140
-67 23 c-36 12 -74 22 -83 22 -14 0 -19 10 -21 48 l-3 49 -140 -59 c-77 -33
-302 -138 -499 -234 -198 -95 -360 -173 -361 -171 -4 7 -147 489 -149 501 0 8
36 57 81 109 93 107 149 144 262 172 l71 17 22 69 c12 38 26 69 31 69 5 0 137
-61 294 -135 l285 -135 274 96 274 96 126 -23 126 -23 51 28 c88 47 92 51 75
78 -9 13 -33 41 -54 62 l-38 39 30 23 c16 13 32 24 35 24 4 0 9 8 12 18 2 9 8
25 12 35 5 12 2 17 -10 17 -9 0 -19 -9 -22 -21 -4 -16 -13 -20 -37 -18 -46 4
-77 -9 -117 -47 -47 -46 -130 -63 -221 -46 -35 6 -64 16 -66 22 -2 6 -59 10
-145 10 -78 1 -235 9 -348 19 l-207 18 -153 94 c-144 88 -154 96 -157 127 -3
25 5 43 30 74 35 45 46 102 47 241 1 77 -35 238 -75 333 l-25 62 -94 41 c-93
41 -94 41 -218 41 l-124 0 -40 -48z"/>
<path fill="#ffffff" stroke="none" d="M2965 2746 c17 -12 15 -15 -29 -35 -60
-26 -111 -28 -125 -3 -9 15 -2 19 57 33 37 9 70 17 73 18 3 0 14 -5 24 -13z"/>
</g>
</svg>
