<?xml version="1.0" standalone="no"?>
<!DOCTYPE svg PUBLIC "-//W3C//DTD SVG 20010904//EN"
 "http://www.w3.org/TR/2001/REC-SVG-20010904/DTD/svg10.dtd">
<svg version="1.0" xmlns="http://www.w3.org/2000/svg"
 width="67.000000pt" height="89.000000pt" viewBox="0 0 67.000000 89.000000"
 preserveAspectRatio="xMidYMid meet">
<metadata>
Created by potrace 1.14, written by Peter Selinger 2001-2017
</metadata>
<g transform="translate(0.000000,89.000000) scale(0.100000,-0.100000)"
fill="#000000" stroke="none">
<path fill="#000000" stroke="none" d="M305 871 c-50 -18 -50 -18 -52 -63 -2
-64 -20 -122 -43 -143 -17 -15 -18 -20 -5 -29 8 -6 20 -29 27 -51 11 -33 11
-49 0 -90 -14 -57 -31 -213 -32 -297 l0 -57 -42 -11 c-77 -20 -130 -45 -145
-68 -9 -12 -13 -25 -10 -28 3 -3 106 -10 229 -14 122 -5 230 -10 238 -12 24
-4 175 13 189 21 34 21 -54 78 -156 101 -61 14 -59 -1 -35 177 l18 131 -24 44
c-19 34 -20 38 -4 18 l20 -25 6 25 c9 46 16 285 8 324 -6 35 -11 40 -52 52
-57 17 -73 17 -135 -5z"/>
</g>
</svg>
