<?xml version="1.0" standalone="no"?>
<!DOCTYPE svg PUBLIC "-//W3C//DTD SVG 20010904//EN"
 "http://www.w3.org/TR/2001/REC-SVG-20010904/DTD/svg10.dtd">
<svg version="1.0" xmlns="http://www.w3.org/2000/svg"
 width="83.000000pt" height="105.000000pt" viewBox="0 0 83.000000 105.000000"
 preserveAspectRatio="xMidYMid meet">
<metadata>
Created by potrace 1.14, written by Peter Selinger 2001-2017
</metadata>
<g transform="translate(0.000000,105.000000) scale(0.100000,-0.100000)"
fill="#000000" stroke="none">
<path fill="#000000" stroke="none" d="M150 1026 c0 -14 5 -28 10 -31 14 -9
13 -48 -2 -63 -7 -7 -22 -12 -34 -12 -30 0 -84 -70 -107 -138 -18 -52 -18 -55
0 -74 16 -18 25 -19 97 -13 l80 7 -17 -25 c-9 -15 -17 -36 -17 -47 0 -11 -4
-28 -9 -38 -14 -27 -28 -64 -42 -110 -7 -23 -18 -47 -26 -53 -8 -7 -13 -33
-13 -69 0 -68 18 -90 73 -90 39 0 56 -15 38 -33 -6 -6 -11 -45 -11 -87 0 -99
11 -110 103 -110 62 0 67 2 87 30 14 19 30 30 45 30 39 0 55 36 50 105 -3 33
-5 68 -6 77 0 10 26 42 58 72 74 70 83 63 86 -60 l2 -89 -37 -17 c-41 -19 -98
-96 -98 -132 0 -46 27 -56 148 -56 105 0 112 1 126 22 11 18 14 70 15 227 l2
205 33 36 c62 69 54 199 -14 208 -14 2 -31 13 -39 24 -12 18 -21 20 -69 14
-31 -4 -64 -14 -74 -23 -20 -18 -23 -54 -8 -84 14 -26 -2 -24 -27 4 -29 31
-43 61 -43 91 0 30 -55 96 -80 96 -11 0 -19 10 -23 28 -6 27 -48 52 -90 52 -9
0 -17 8 -17 17 0 9 -12 43 -27 75 l-28 58 -47 0 c-44 0 -48 -2 -48 -24z"/>
</g>
</svg>
