<?xml version="1.0" standalone="no"?>
<!DOCTYPE svg PUBLIC "-//W3C//DTD SVG 20010904//EN"
 "http://www.w3.org/TR/2001/REC-SVG-20010904/DTD/svg10.dtd">
<svg version="1.0" xmlns="http://www.w3.org/2000/svg"
 width="201.000000pt" height="266.000000pt" viewBox="0 0 201.000000 266.000000"
 preserveAspectRatio="xMidYMid meet">
<metadata>
Created by potrace 1.14, written by Peter Selinger 2001-2017
</metadata>
<g transform="translate(0.000000,266.000000) scale(0.100000,-0.100000)"
fill="#000000" stroke="none">
<path fill="#000000" stroke="none" d="M963 2641 c-61 -14 -78 -23 -121 -63
-44 -41 -51 -53 -57 -100 -4 -29 -11 -60 -15 -69 -6 -10 -3 -19 11 -27 13 -8
19 -23 19 -47 0 -40 2 -39 -42 -21 l-34 14 -126 -81 c-69 -45 -152 -95 -185
-110 l-59 -29 -58 -286 -58 -287 16 -60 c13 -50 13 -62 2 -70 -7 -5 -68 -53
-135 -105 l-122 -95 6 -315 c3 -173 8 -376 12 -450 l6 -135 56 221 56 221 74
82 73 81 98 0 c53 0 131 3 173 6 71 6 76 9 87 35 7 16 21 31 31 34 10 4 75
-14 146 -38 70 -24 153 -50 183 -57 90 -21 295 -130 376 -199 l70 -61 43 -223
44 -223 -16 -89 c-8 -50 -14 -91 -12 -93 2 -2 117 33 256 78 l252 82 -75 76
c-59 61 -88 102 -136 192 -58 110 -62 122 -87 270 l-27 155 -126 250 c-68 137
-158 329 -197 427 l-73 178 43 163 42 163 -71 28 c-39 16 -90 43 -113 61 -23
17 -63 43 -88 56 -37 19 -45 28 -40 44 4 11 9 31 12 45 3 14 17 40 30 58 14
19 33 60 43 92 l17 57 -39 62 c-21 33 -43 61 -48 61 -6 0 -18 13 -28 28 l-17
28 -72 -15z"/>
</g>
</svg>
