<?xml version="1.0" standalone="no"?>
<!DOCTYPE svg PUBLIC "-//W3C//DTD SVG 20010904//EN"
 "http://www.w3.org/TR/2001/REC-SVG-20010904/DTD/svg10.dtd">
<svg version="1.0" xmlns="http://www.w3.org/2000/svg"
 width="22.000000pt" height="29.000000pt" viewBox="0 0 22.000000 29.000000"
 preserveAspectRatio="xMidYMid meet">
<metadata>
Created by potrace 1.14, written by Peter Selinger 2001-2017
</metadata>
<g transform="translate(0.000000,29.000000) scale(0.100000,-0.100000)"
fill="#000000" stroke="none">
<path fill="#000000" stroke="none" d="M117 272 c-11 -12 -17 -36 -17 -71 0
-44 -3 -54 -19 -58 -11 -3 -27 -22 -35 -44 -9 -21 -20 -39 -25 -39 -5 0 -11
-9 -14 -19 -4 -15 2 -22 26 -30 43 -15 62 -14 128 10 58 21 59 22 59 60 0 27
-6 42 -23 56 -19 14 -23 25 -19 54 4 36 -20 99 -37 99 -4 0 -15 -8 -24 -18z"/>
</g>
</svg>
