<?xml version="1.0" standalone="no"?>
<!DOCTYPE svg PUBLIC "-//W3C//DTD SVG 20010904//EN"
 "http://www.w3.org/TR/2001/REC-SVG-20010904/DTD/svg10.dtd">
<svg version="1.0" xmlns="http://www.w3.org/2000/svg"
 width="279.000000pt" height="354.000000pt" viewBox="0 0 279.000000 354.000000"
 preserveAspectRatio="xMidYMid meet">
<metadata>
Created by potrace 1.14, written by Peter Selinger 2001-2017
</metadata>
<g transform="translate(0.000000,354.000000) scale(0.100000,-0.100000)"
fill="#000000" stroke="none">
<path fill="#000000" stroke="none" d="M1257 3502 l-108 -37 -41 -70 c-44 -76
-61 -128 -78 -243 -10 -65 -16 -77 -48 -107 -20 -18 -154 -102 -297 -185
l-260 -152 -210 -307 -210 -306 6 -115 c5 -112 7 -120 73 -295 38 -99 95 -258
127 -353 36 -108 77 -208 109 -265 l51 -92 -37 -77 -37 -77 11 -95 c7 -53 12
-227 12 -394 l0 -299 54 -16 c51 -14 74 -13 438 23 l383 38 113 48 112 48 0
106 c1 58 5 168 11 245 5 77 16 273 23 435 19 397 64 793 122 1093 l47 237
140 112 139 112 396 108 c255 71 412 119 443 137 l48 27 -50 43 -49 42 -125
-12 c-172 -16 -894 4 -1007 27 l-77 17 6 51 c3 28 17 73 31 101 23 46 24 55
18 155 -4 58 -12 131 -19 164 -11 54 -16 62 -76 112 -36 30 -68 54 -71 53 -3
0 -54 -17 -113 -37z"/>
</g>
</svg>
