<?xml version="1.0" standalone="no"?>
<!DOCTYPE svg PUBLIC "-//W3C//DTD SVG 20010904//EN"
 "http://www.w3.org/TR/2001/REC-SVG-20010904/DTD/svg10.dtd">
<svg version="1.0" xmlns="http://www.w3.org/2000/svg"
 width="19.000000pt" height="24.000000pt" viewBox="0 0 19.000000 24.000000"
 preserveAspectRatio="xMidYMid meet">
<metadata>
Created by potrace 1.14, written by Peter Selinger 2001-2017
</metadata>
<g transform="translate(0.000000,24.000000) scale(0.100000,-0.100000)"
fill="#000000" stroke="none">
<path fill="#000000" stroke="none" d="M50 226 c-7 -9 -10 -26 -7 -38 4 -12
-4 -43 -19 -75 -14 -29 -24 -65 -22 -80 3 -28 4 -28 78 -31 l75 -3 18 72 c18
76 13 99 -23 99 -11 0 -20 12 -26 33 -7 24 -16 33 -35 35 -14 2 -31 -4 -39
-12z"/>
</g>
</svg>
