<?xml version="1.0" standalone="no"?>
<!DOCTYPE svg PUBLIC "-//W3C//DTD SVG 20010904//EN"
 "http://www.w3.org/TR/2001/REC-SVG-20010904/DTD/svg10.dtd">
<svg version="1.0" xmlns="http://www.w3.org/2000/svg"
 width="34.000000pt" height="40.000000pt" viewBox="0 0 34.000000 40.000000"
 preserveAspectRatio="xMidYMid meet">
<metadata>
Created by potrace 1.14, written by Peter Selinger 2001-2017
</metadata>
<g transform="translate(0.000000,40.000000) scale(0.100000,-0.100000)"
fill="#000000" stroke="none">
<path fill="#000000" stroke="none" d="M111 383 c-25 -22 -110 -263 -109 -314
0 -59 8 -64 93 -62 85 3 151 30 197 81 14 16 32 32 39 34 8 3 10 15 5 41 -6
31 -12 39 -37 44 -32 6 -34 12 -19 62 9 31 6 37 -32 82 -36 43 -46 49 -78 49
-21 0 -47 -8 -59 -17z"/>
</g>
</svg>
