<?xml version="1.0" standalone="no"?>
<!DOCTYPE svg PUBLIC "-//W3C//DTD SVG 20010904//EN"
 "http://www.w3.org/TR/2001/REC-SVG-20010904/DTD/svg10.dtd">
<svg version="1.0" xmlns="http://www.w3.org/2000/svg"
 width="346.000000pt" height="421.000000pt" viewBox="0 0 346.000000 421.000000"
 preserveAspectRatio="xMidYMid meet">
<metadata>
Created by potrace 1.14, written by Peter Selinger 2001-2017
</metadata>
<g transform="translate(0.000000,421.000000) scale(0.100000,-0.100000)"
fill="#000000" stroke="none">
<path fill="#000000" stroke="none" d="M2295 4191 l-230 -16 -247 -135 c-141
-77 -251 -143 -257 -155 -6 -11 -26 -47 -45 -80 -103 -181 -146 -262 -181
-344 -38 -87 -42 -93 -102 -132 -66 -44 -72 -53 -119 -202 -15 -50 -24 -62
-55 -78 -21 -10 -47 -32 -59 -49 -35 -49 -86 -70 -143 -59 -26 4 -57 14 -68
20 -143 76 -412 299 -427 353 -8 29 0 139 13 174 3 7 15 12 26 10 18 -3 31 14
80 109 33 62 59 122 59 133 0 10 12 39 27 64 22 36 35 47 68 55 23 6 50 20 60
31 19 21 18 21 -18 58 l-37 37 -216 -108 c-152 -76 -246 -130 -320 -185 l-105
-77 8 -320 c4 -176 7 -989 7 -1807 l-1 -1488 136 0 c150 0 3175 41 3178 44 1
0 31 208 68 462 l67 460 -87 168 c-70 134 -91 166 -104 160 -41 -16 -50 -15
-67 11 -13 19 -14 29 -5 38 6 6 11 14 11 17 0 3 -119 94 -265 201 -145 107
-264 197 -265 200 0 4 123 200 273 435 l272 429 108 271 108 271 -41 185 -40
185 -111 184 -112 184 -166 112 c-179 121 -335 194 -409 192 -20 -1 -140 -9
-267 -18z"/>
</g>
</svg>
