<?xml version="1.0" standalone="no"?>
<!DOCTYPE svg PUBLIC "-//W3C//DTD SVG 20010904//EN"
 "http://www.w3.org/TR/2001/REC-SVG-20010904/DTD/svg10.dtd">
<svg version="1.0" xmlns="http://www.w3.org/2000/svg"
 width="22.000000pt" height="27.000000pt" viewBox="0 0 22.000000 27.000000"
 preserveAspectRatio="xMidYMid meet">
<metadata>
Created by potrace 1.14, written by Peter Selinger 2001-2017
</metadata>
<g transform="translate(0.000000,27.000000) scale(0.100000,-0.100000)"
fill="#000000" stroke="none">
<path fill="#000000" stroke="none" d="M162 258 c-7 -7 -12 -19 -12 -27 0 -9
-27 -38 -60 -66 -35 -29 -62 -61 -66 -75 -2 -14 -9 -40 -13 -58 -14 -52 7 -38
37 25 15 34 34 58 42 58 9 0 29 10 44 23 35 27 42 27 55 5 9 -16 12 -16 21 -3
26 37 -19 147 -48 118z"/>
</g>
</svg>
