<?xml version="1.0" standalone="no"?>
<!DOCTYPE svg PUBLIC "-//W3C//DTD SVG 20010904//EN"
 "http://www.w3.org/TR/2001/REC-SVG-20010904/DTD/svg10.dtd">
<svg version="1.0" xmlns="http://www.w3.org/2000/svg"
 width="217.000000pt" height="272.000000pt" viewBox="0 0 217.000000 272.000000"
 preserveAspectRatio="xMidYMid meet">
<metadata>
Created by potrace 1.14, written by Peter Selinger 2001-2017
</metadata>
<g transform="translate(0.000000,272.000000) scale(0.100000,-0.100000)"
fill="#000000" stroke="none">
<path fill="#000000" stroke="none" d="M1733 2689 c-81 -30 -83 -32 -143 -112
l-61 -82 5 -60 c3 -33 8 -116 10 -185 l6 -125 -48 -39 c-96 -79 -479 -432
-537 -496 -33 -36 -129 -134 -214 -218 -152 -152 -154 -155 -176 -226 l-22
-72 21 -57 c11 -31 26 -60 31 -65 13 -12 314 -102 340 -102 11 0 82 20 157 44
141 46 414 113 422 105 13 -12 -31 -132 -84 -233 -92 -172 -117 -242 -136
-373 l-17 -118 -126 -127 -126 -128 -103 103 c-96 95 -108 112 -186 257 -46
85 -108 199 -137 252 l-54 97 -90 22 c-49 12 -153 44 -229 70 -77 27 -142 49
-146 49 -11 0 -60 -122 -75 -188 -14 -58 -13 -65 7 -118 12 -31 28 -59 37 -62
8 -3 76 -20 149 -36 l135 -31 89 -207 90 -206 101 -6 c56 -3 427 -8 825 -12
l722 -6 -2 1307 -3 1307 -50 19 c-44 17 -289 90 -297 88 -2 0 -40 -14 -85 -30z"/>
</g>
</svg>
