<?xml version="1.0" standalone="no"?>
<!DOCTYPE svg PUBLIC "-//W3C//DTD SVG 20010904//EN"
 "http://www.w3.org/TR/2001/REC-SVG-20010904/DTD/svg10.dtd">
<svg version="1.0" xmlns="http://www.w3.org/2000/svg"
 width="324.000000pt" height="398.000000pt" viewBox="0 0 324.000000 398.000000"
 preserveAspectRatio="xMidYMid meet">
<metadata>
Created by potrace 1.14, written by Peter Selinger 2001-2017
</metadata>
<g transform="translate(0.000000,398.000000) scale(0.100000,-0.100000)"
fill="#000000" stroke="none">
<path fill="#000000" stroke="none" d="M1935 3965 c-49 -7 -127 -14 -171 -14
-73 -1 -223 -25 -325 -52 -30 -7 -53 -30 -124 -117 l-87 -107 4 -315 5 -315
40 -95 c22 -52 43 -114 47 -138 3 -23 18 -66 33 -96 24 -49 33 -57 97 -89 39
-19 95 -43 124 -53 l52 -18 0 -98 c0 -120 -19 -166 -104 -246 -54 -51 -56 -55
-85 -165 -37 -136 -71 -353 -106 -672 l-27 -240 -62 -97 -61 -97 -115 -45
c-63 -24 -189 -63 -280 -86 -174 -43 -431 -138 -642 -238 l-117 -55 -7 -53
c-8 -70 -3 -81 45 -89 23 -4 41 -8 41 -10 0 -2 -25 -27 -56 -57 -39 -37 -53
-58 -49 -70 8 -21 103 -38 210 -38 65 0 85 4 121 25 23 14 52 41 64 60 19 31
21 42 13 83 -5 28 -5 66 1 93 l9 46 226 32 c308 42 391 51 496 51 82 0 105 5
240 50 82 27 151 48 154 45 2 -3 6 -101 9 -218 4 -184 1 -226 -16 -317 -12
-57 -18 -107 -16 -110 11 -10 819 -39 1134 -39 l335 -1 100 33 100 32 17 165
c29 281 42 758 30 1062 l-11 268 -51 147 c-28 82 -87 232 -133 335 l-82 187
-93 52 -92 53 -61 106 c-65 112 -103 152 -214 229 -82 56 -147 70 -217 45 -50
-17 -65 -8 -97 62 -17 36 -21 63 -21 159 0 107 2 120 30 183 23 49 36 104 51
207 25 171 21 200 -54 358 -30 63 -62 146 -72 185 -17 70 -48 114 -79 111 -6
-1 -51 -7 -101 -14z"/>
</g>
</svg>
