<?xml version="1.0" standalone="no"?>
<!DOCTYPE svg PUBLIC "-//W3C//DTD SVG 20010904//EN"
 "http://www.w3.org/TR/2001/REC-SVG-20010904/DTD/svg10.dtd">
<svg version="1.0" xmlns="http://www.w3.org/2000/svg"
 width="200.000000pt" height="259.000000pt" viewBox="0 0 200.000000 259.000000"
 preserveAspectRatio="xMidYMid meet">
<metadata>
Created by potrace 1.14, written by Peter Selinger 2001-2017
</metadata>
<g transform="translate(0.000000,259.000000) scale(0.100000,-0.100000)"
fill="#000000" stroke="none">
<path fill="#000000" stroke="none" d="M870 2521 c-11 -37 -20 -77 -20 -87 0
-10 -9 -57 -20 -104 -12 -47 -38 -156 -59 -242 l-38 -157 -85 -129 c-84 -126
-86 -132 -168 -376 l-82 -248 26 -68 c46 -117 45 -134 -28 -433 -36 -147 -66
-280 -66 -295 0 -23 -9 -33 -49 -57 -37 -23 -55 -42 -72 -78 -20 -42 -34 -55
-108 -99 -48 -28 -86 -52 -87 -52 -1 -1 -4 -16 -7 -33 -6 -29 -3 -35 21 -47
25 -13 60 -13 273 -1 134 8 252 15 262 15 21 0 22 26 3 169 l-14 105 34 90
c19 49 53 171 75 270 32 148 62 255 75 274 1 2 83 -38 184 -88 135 -67 192
-90 221 -90 l39 0 -1 -117 c0 -65 -4 -145 -9 -178 -7 -56 -6 -62 18 -87 19
-21 35 -28 62 -28 34 0 40 5 92 78 30 42 62 96 71 119 9 23 52 101 96 172 77
125 79 131 69 168 -12 48 -31 57 -178 82 -72 13 -160 39 -280 85 -265 101
-265 100 -268 119 -2 9 23 49 56 89 32 40 78 104 102 143 24 38 90 123 149
188 171 192 184 212 211 333 19 89 22 122 17 216 -5 104 -3 123 29 262 19 83
36 155 37 160 6 20 125 -95 162 -155 37 -62 38 -69 51 -209 26 -282 81 -478
162 -578 l47 -56 7 40 c7 31 16 44 44 59 52 28 76 67 69 108 -5 27 -20 44 -69
80 l-63 46 -6 68 c-4 37 -7 91 -7 118 0 62 -64 338 -99 425 l-26 65 -120 6
c-66 4 -254 7 -417 8 l-297 1 -21 -69z"/>
</g>
</svg>
