<?xml version="1.0" standalone="no"?>
<!DOCTYPE svg PUBLIC "-//W3C//DTD SVG 20010904//EN"
 "http://www.w3.org/TR/2001/REC-SVG-20010904/DTD/svg10.dtd">
<svg version="1.0" xmlns="http://www.w3.org/2000/svg"
 width="112.000000pt" height="134.000000pt" viewBox="0 0 112.000000 134.000000"
 preserveAspectRatio="xMidYMid meet">
<metadata>
Created by potrace 1.14, written by Peter Selinger 2001-2017
</metadata>
<g transform="translate(0.000000,134.000000) scale(0.100000,-0.100000)"
fill="#000000" stroke="none">
<path fill="#000000" stroke="none" d="M445 1328 c-73 -13 -100 -40 -136 -133
-17 -44 -37 -96 -45 -115 -7 -19 -13 -72 -14 -118 0 -80 2 -86 40 -149 22 -37
40 -70 40 -75 0 -4 -29 -8 -65 -8 -63 0 -140 -24 -129 -41 2 -5 -25 -30 -60
-56 -66 -49 -83 -70 -68 -85 4 -4 38 -16 74 -27 60 -16 76 -27 167 -111 l101
-93 0 -81 c1 -160 35 -229 112 -230 85 0 219 28 318 67 120 47 170 87 226 178
32 53 39 59 69 59 32 0 34 2 41 46 4 26 2 62 -5 82 -15 50 -137 245 -159 254
-9 4 -63 11 -120 17 -129 12 -152 25 -152 84 0 40 3 43 50 69 28 16 50 32 50
38 0 5 -13 24 -29 42 -26 30 -29 43 -41 163 -13 145 -17 151 -100 205 -50 32
-76 35 -165 18z"/>
</g>
</svg>
