<?xml version="1.0" standalone="no"?>
<!DOCTYPE svg PUBLIC "-//W3C//DTD SVG 20010904//EN"
 "http://www.w3.org/TR/2001/REC-SVG-20010904/DTD/svg10.dtd">
<svg version="1.0" xmlns="http://www.w3.org/2000/svg"
 width="42.000000pt" height="54.000000pt" viewBox="0 0 42.000000 54.000000"
 preserveAspectRatio="xMidYMid meet">
<metadata>
Created by potrace 1.14, written by Peter Selinger 2001-2017
</metadata>
<g transform="translate(0.000000,54.000000) scale(0.100000,-0.100000)"
fill="#000000" stroke="none">
<path fill="#000000" stroke="none" d="M195 518 c-64 -25 -69 -30 -84 -78 -9
-32 -9 -50 4 -99 29 -112 26 -120 -79 -246 -42 -49 -39 -64 10 -65 12 0 42 -3
68 -6 38 -6 46 -4 46 10 0 21 47 21 74 1 11 -8 34 -15 50 -15 17 0 47 -4 65
-10 19 -5 36 -8 38 -6 7 7 -28 89 -51 119 l-24 31 18 36 c11 22 31 42 49 50
31 13 36 28 22 65 -5 13 -3 31 6 49 14 27 14 30 -5 45 -11 9 -23 26 -26 37 -8
26 -28 44 -86 76 l-45 25 -50 -19z"/>
</g>
</svg>
