<?xml version="1.0" standalone="no"?>
<!DOCTYPE svg PUBLIC "-//W3C//DTD SVG 20010904//EN"
 "http://www.w3.org/TR/2001/REC-SVG-20010904/DTD/svg10.dtd">
<svg version="1.0" xmlns="http://www.w3.org/2000/svg"
 width="23.000000pt" height="29.000000pt" viewBox="0 0 23.000000 29.000000"
 preserveAspectRatio="xMidYMid meet">
<metadata>
Created by potrace 1.14, written by Peter Selinger 2001-2017
</metadata>
<g transform="translate(0.000000,29.000000) scale(0.100000,-0.100000)"
fill="#000000" stroke="none">
<path fill="#000000" stroke="none" d="M65 270 c-12 -13 -16 -31 -13 -60 3
-36 0 -44 -24 -62 -30 -20 -33 -40 -21 -112 l6 -39 106 7 c58 4 107 9 110 11
2 3 -14 42 -36 87 -37 79 -38 84 -24 110 13 23 13 30 1 52 -11 21 -21 26 -50
26 -24 0 -43 -7 -55 -20z"/>
</g>
</svg>
