<?xml version="1.0" standalone="no"?>
<!DOCTYPE svg PUBLIC "-//W3C//DTD SVG 20010904//EN"
 "http://www.w3.org/TR/2001/REC-SVG-20010904/DTD/svg10.dtd">
<svg version="1.0" xmlns="http://www.w3.org/2000/svg"
 width="373.000000pt" height="465.000000pt" viewBox="0 0 373.000000 465.000000"
 preserveAspectRatio="xMidYMid meet">
<metadata>
Created by potrace 1.14, written by Peter Selinger 2001-2017
</metadata>
<g transform="translate(0.000000,465.000000) scale(0.100000,-0.100000)"
fill="#000000" stroke="none">
<path fill="#000000" stroke="none" d="M2815 4575 l-280 -72 -142 -219 c-78
-120 -146 -220 -151 -222 -5 -1 -196 38 -425 88 -229 49 -423 90 -432 90 -8 0
-173 -79 -365 -175 -304 -152 -380 -195 -569 -321 l-219 -146 -115 -471 -116
-472 22 -1292 c12 -710 26 -1295 29 -1299 4 -3 238 -19 520 -35 450 -25 555
-28 853 -23 187 4 354 9 371 13 l30 6 -213 810 c-132 501 -210 816 -206 827 5
9 166 219 358 466 l350 451 260 2 c143 1 342 4 442 8 l182 6 366 288 c201 158
365 292 365 296 0 5 -24 17 -52 29 -29 11 -61 23 -70 27 -16 6 -16 3 2 -38 24
-54 14 -94 -29 -120 l-29 -17 -7 42 c-4 24 -9 46 -12 50 -8 15 -141 -61 -170
-97 -29 -35 -31 -36 -93 -33 l-64 3 -18 60 c-10 33 -18 62 -18 65 0 3 74 33
164 65 148 53 188 75 138 75 -9 0 -149 -47 -311 -105 -162 -58 -296 -103 -299
-100 -14 14 -110 190 -106 196 2 4 131 82 286 174 156 93 290 174 298 182 8 7
53 147 100 311 l86 297 -90 84 c-50 46 -147 137 -216 201 l-125 117 -280 -72z"/>
</g>
</svg>
