<?xml version="1.0" standalone="no"?>
<!DOCTYPE svg PUBLIC "-//W3C//DTD SVG 20010904//EN"
 "http://www.w3.org/TR/2001/REC-SVG-20010904/DTD/svg10.dtd">
<svg version="1.0" xmlns="http://www.w3.org/2000/svg"
 width="23.000000pt" height="29.000000pt" viewBox="0 0 23.000000 29.000000"
 preserveAspectRatio="xMidYMid meet">
<metadata>
Created by potrace 1.14, written by Peter Selinger 2001-2017
</metadata>
<g transform="translate(0.000000,29.000000) scale(0.100000,-0.100000)"
fill="#000000" stroke="none">
<path fill="#000000" stroke="none" d="M80 269 c0 -11 -18 -41 -39 -65 -33
-38 -38 -49 -32 -72 4 -15 6 -44 3 -65 -6 -53 10 -67 74 -67 43 0 54 3 54 16
0 9 20 34 45 56 34 30 45 47 45 69 0 37 -28 106 -46 113 -8 3 -14 12 -14 21 0
11 -11 15 -45 15 -39 0 -45 -3 -45 -21z"/>
</g>
</svg>
