<?xml version="1.0" standalone="no"?>
<!DOCTYPE svg PUBLIC "-//W3C//DTD SVG 20010904//EN"
 "http://www.w3.org/TR/2001/REC-SVG-20010904/DTD/svg10.dtd">
<svg version="1.0" xmlns="http://www.w3.org/2000/svg"
 width="371.000000pt" height="474.000000pt" viewBox="0 0 371.000000 474.000000"
 preserveAspectRatio="xMidYMid meet">
<metadata>
Created by potrace 1.14, written by Peter Selinger 2001-2017
</metadata>
<g transform="translate(0.000000,474.000000) scale(0.100000,-0.100000)"
fill="#000000" stroke="none">
<path fill="#000000" stroke="none" d="M1015 4651 l-180 -87 -118 -268 -117
-267 31 -307 c30 -296 32 -311 69 -411 l39 -104 -22 -17 c-12 -10 -53 -43 -92
-74 -61 -50 -74 -56 -104 -52 -24 4 -55 -4 -109 -26 -79 -34 -84 -45 -12 -29
l44 10 195 -141 c108 -78 197 -142 199 -144 2 -1 28 -80 58 -176 l54 -173 -30
-260 c-40 -336 -75 -574 -83 -555 -31 75 -63 266 -97 567 -27 236 -49 386 -72
486 l-33 146 -198 97 -198 96 -119 -52 -118 -52 5 -1427 c3 -784 6 -1427 7
-1428 3 -4 2248 26 2252 30 2 2 -15 94 -39 205 l-43 200 31 114 31 113 78 46
c43 26 107 71 143 99 l65 52 56 -16 c32 -9 107 -31 169 -50 l112 -34 63 44 63
44 80 -16 c44 -8 118 -19 165 -24 l85 -9 70 69 70 69 114 3 114 3 10 28 c7 22
6 33 -4 42 -8 8 -107 30 -229 50 -118 20 -215 37 -215 38 0 1 -13 18 -27 38
-21 28 -45 43 -113 69 l-87 34 43 37 43 37 -71 78 c-114 127 -91 117 -286 129
l-172 11 -226 -81 -225 -81 -56 573 -56 573 -58 76 c-33 42 -66 86 -74 98 -79
114 -132 175 -157 180 -16 3 -71 12 -123 21 -143 23 -150 25 -150 42 0 8 -8
27 -19 41 -19 27 -41 93 -41 123 0 13 10 15 56 11 100 -8 160 40 178 142 9 48
36 106 51 106 6 0 45 98 87 218 70 200 79 233 107 415 l31 198 -42 187 c-23
103 -44 190 -48 195 -5 6 -604 167 -620 166 -3 0 -86 -39 -185 -88z"/>
</g>
</svg>
