<?xml version="1.0" standalone="no"?>
<!DOCTYPE svg PUBLIC "-//W3C//DTD SVG 20010904//EN"
 "http://www.w3.org/TR/2001/REC-SVG-20010904/DTD/svg10.dtd">
<svg version="1.0" xmlns="http://www.w3.org/2000/svg"
 width="231.000000pt" height="301.000000pt" viewBox="0 0 231.000000 301.000000"
 preserveAspectRatio="xMidYMid meet">
<metadata>
Created by potrace 1.14, written by Peter Selinger 2001-2017
</metadata>
<g transform="translate(0.000000,301.000000) scale(0.100000,-0.100000)"
fill="#000000" stroke="none">
<path fill="#000000" stroke="none" d="M930 2986 c-107 -11 -201 -25 -207 -29
-29 -18 -65 -103 -123 -284 l-61 -192 36 -248 c19 -137 41 -270 48 -298 12
-45 12 -53 -6 -82 -16 -27 -32 -37 -100 -59 -45 -14 -145 -36 -221 -50 -77
-13 -143 -27 -147 -31 -4 -4 -26 -42 -48 -83 -28 -53 -50 -115 -71 -202 -29
-122 -30 -135 -30 -361 0 -128 5 -260 11 -293 39 -223 143 -460 281 -647 l80
-107 147 0 148 0 6 191 c6 172 11 206 43 343 25 102 61 212 111 338 73 182 77
189 126 228 28 22 54 39 58 38 5 -2 55 -70 113 -152 100 -141 111 -153 243
-260 129 -104 141 -116 178 -188 37 -72 41 -76 79 -83 41 -6 114 -55 170 -114
16 -16 52 -39 80 -51 48 -19 54 -25 70 -73 26 -73 84 -156 126 -177 l35 -18
37 36 38 36 0 -57 0 -57 45 0 45 0 -5 68 c-4 43 2 131 18 249 l23 183 -62 288
c-75 348 -132 542 -187 635 -51 87 -119 145 -384 327 -197 135 -210 146 -202
168 5 13 9 59 9 104 l0 80 53 74 53 73 12 174 c7 97 10 223 6 284 l-7 110 -64
52 c-57 48 -78 57 -206 97 -78 24 -155 43 -172 43 -16 -1 -118 -11 -225 -23z"/>
</g>
</svg>
