<?xml version="1.0" standalone="no"?>
<!DOCTYPE svg PUBLIC "-//W3C//DTD SVG 20010904//EN"
 "http://www.w3.org/TR/2001/REC-SVG-20010904/DTD/svg10.dtd">
<svg version="1.0" xmlns="http://www.w3.org/2000/svg"
 width="17.000000pt" height="34.000000pt" viewBox="0 0 17.000000 34.000000"
 preserveAspectRatio="xMidYMid meet">
<metadata>
Created by potrace 1.14, written by Peter Selinger 2001-2017
</metadata>
<g transform="translate(0.000000,34.000000) scale(0.100000,-0.100000)"
fill="#000000" stroke="none">
<path fill="#000000" stroke="none" d="M81 321 c-6 -11 -11 -26 -11 -34 0 -8
-7 -20 -16 -28 -26 -21 -54 -86 -54 -124 0 -20 5 -56 11 -80 8 -33 16 -44 34
-47 28 -6 77 23 100 58 20 31 29 140 18 214 -8 52 -10 55 -40 58 -23 2 -34 -2
-42 -17z"/>
</g>
</svg>
