<?xml version="1.0" standalone="no"?>
<!DOCTYPE svg PUBLIC "-//W3C//DTD SVG 20010904//EN"
 "http://www.w3.org/TR/2001/REC-SVG-20010904/DTD/svg10.dtd">
<svg version="1.0" xmlns="http://www.w3.org/2000/svg"
 width="59.000000pt" height="128.000000pt" viewBox="0 0 59.000000 128.000000"
 preserveAspectRatio="xMidYMid meet">
<metadata>
Created by potrace 1.14, written by Peter Selinger 2001-2017
</metadata>
<g transform="translate(0.000000,128.000000) scale(0.100000,-0.100000)"
fill="#000000" stroke="none">
<path fill="#000000" stroke="none" d="M164 1262 c-67 -36 -121 -97 -143 -163
-11 -35 -21 -68 -21 -74 0 -5 25 -39 55 -73 30 -35 55 -71 55 -81 0 -10 14
-45 30 -78 19 -39 65 -192 125 -423 51 -199 96 -364 98 -367 3 -2 50 22 106
54 l100 58 1 47 c0 26 5 50 10 53 6 4 10 64 10 148 0 150 -12 214 -50 266 -43
62 -132 247 -141 297 -9 46 -7 58 15 109 14 31 28 78 32 103 6 47 5 48 -45 95
l-50 47 -78 0 c-54 -1 -88 -6 -109 -18z"/>
</g>
</svg>
