<?xml version="1.0" standalone="no"?>
<!DOCTYPE svg PUBLIC "-//W3C//DTD SVG 20010904//EN"
 "http://www.w3.org/TR/2001/REC-SVG-20010904/DTD/svg10.dtd">
<svg version="1.0" xmlns="http://www.w3.org/2000/svg"
 width="157.000000pt" height="289.000000pt" viewBox="0 0 157.000000 289.000000"
 preserveAspectRatio="xMidYMid meet">
<metadata>
Created by potrace 1.14, written by Peter Selinger 2001-2017
</metadata>
<g transform="translate(0.000000,289.000000) scale(0.100000,-0.100000)"
fill="#000000" stroke="none">
<path fill="#000000" stroke="none" d="M874 2853 c-60 -32 -62 -35 -79 -96
-10 -34 -23 -98 -29 -142 l-11 -79 -62 -51 c-34 -27 -86 -81 -116 -118 -50
-64 -56 -76 -77 -175 -18 -87 -38 -139 -110 -287 l-87 -182 -14 -349 c-9 -213
-12 -365 -6 -389 5 -22 6 -69 2 -103 -6 -53 -12 -70 -40 -101 -30 -33 -39 -59
-84 -237 -28 -109 -76 -263 -106 -342 -69 -180 -70 -187 -9 -196 26 -3 67 -6
91 -6 l44 0 -7 103 -7 102 66 130 c116 233 239 518 269 625 29 104 97 279 109
280 3 0 47 -51 98 -114 50 -63 98 -119 105 -125 21 -18 51 13 75 78 32 89 94
131 219 149 41 6 77 13 80 16 3 4 -16 60 -42 126 -36 91 -46 127 -41 150 4 16
10 30 13 30 51 -3 142 -35 207 -73 78 -46 80 -46 94 -27 20 29 59 26 67 -4 3
-14 3 -31 -2 -38 -4 -7 14 7 39 31 25 24 43 49 40 55 -13 22 -67 91 -80 102
-7 7 -80 35 -161 64 -144 51 -148 53 -204 113 -45 48 -63 76 -81 132 l-24 70
26 80 c27 81 111 230 122 217 4 -4 45 -80 92 -169 l85 -162 11 -107 c6 -59 13
-109 15 -111 2 -3 32 3 65 13 41 11 61 22 61 32 0 50 -28 166 -72 302 -41 126
-67 183 -135 303 -61 106 -91 148 -106 151 -12 3 -39 8 -59 11 l-38 6 0 73 c0
145 -4 157 -79 218 l-66 55 -61 -34z"/>
</g>
</svg>
