<?xml version="1.0" standalone="no"?>
<!DOCTYPE svg PUBLIC "-//W3C//DTD SVG 20010904//EN"
 "http://www.w3.org/TR/2001/REC-SVG-20010904/DTD/svg10.dtd">
<svg version="1.0" xmlns="http://www.w3.org/2000/svg"
 width="36.000000pt" height="74.000000pt" viewBox="0 0 36.000000 74.000000"
 preserveAspectRatio="xMidYMid meet">
<metadata>
Created by potrace 1.14, written by Peter Selinger 2001-2017
</metadata>
<g transform="translate(0.000000,74.000000) scale(0.100000,-0.100000)"
fill="#000000" stroke="none">
<path fill="#000000" stroke="none" d="M167 726 c-64 -18 -69 -41 -42 -163 4
-15 -1 -23 -15 -28 -25 -8 -27 -56 -4 -111 9 -20 14 -53 12 -71 l-4 -34 115 3
116 3 9 58 c4 31 5 77 2 102 -6 38 -13 49 -50 75 -40 27 -44 34 -50 82 -10 82
-31 101 -89 84z"/>
<path fill="#000000" stroke="none" d="M48 145 l-45 -135 137 0 c76 0 151 -3
168 -6 l30 -6 -9 49 c-5 28 -6 90 -1 141 l8 92 -121 0 -122 0 -45 -135z"/>
</g>
</svg>
