<?xml version="1.0" standalone="no"?>
<!DOCTYPE svg PUBLIC "-//W3C//DTD SVG 20010904//EN"
 "http://www.w3.org/TR/2001/REC-SVG-20010904/DTD/svg10.dtd">
<svg version="1.0" xmlns="http://www.w3.org/2000/svg"
 width="36.000000pt" height="76.000000pt" viewBox="0 0 36.000000 76.000000"
 preserveAspectRatio="xMidYMid meet">
<metadata>
Created by potrace 1.14, written by Peter Selinger 2001-2017
</metadata>
<g transform="translate(0.000000,76.000000) scale(0.100000,-0.100000)"
fill="#000000" stroke="none">
<path fill="#000000" stroke="none" d="M110 745 c0 -9 -11 -26 -24 -38 -36
-34 -54 -77 -61 -148 -3 -35 -10 -100 -16 -144 -8 -66 -6 -96 9 -175 10 -52
26 -109 35 -127 23 -44 21 -78 -5 -97 -22 -15 -18 -15 57 -10 104 7 145 13
145 23 0 4 -16 48 -35 97 -19 49 -35 95 -35 102 0 7 9 31 20 52 11 22 23 59
26 82 5 36 13 49 52 78 52 40 82 84 75 110 -4 16 -9 17 -31 9 -14 -5 -43 -25
-64 -44 -64 -59 -74 -47 -42 48 27 80 31 132 10 140 -16 6 -39 -9 -54 -38 -10
-17 -11 -14 -12 22 0 24 -7 48 -16 57 -20 20 -34 20 -34 1z"/>
</g>
</svg>
