<?xml version="1.0" standalone="no"?>
<!DOCTYPE svg PUBLIC "-//W3C//DTD SVG 20010904//EN"
 "http://www.w3.org/TR/2001/REC-SVG-20010904/DTD/svg10.dtd">
<svg version="1.0" xmlns="http://www.w3.org/2000/svg"
 width="28.000000pt" height="52.000000pt" viewBox="0 0 28.000000 52.000000"
 preserveAspectRatio="xMidYMid meet">
<metadata>
Created by potrace 1.14, written by Peter Selinger 2001-2017
</metadata>
<g transform="translate(0.000000,52.000000) scale(0.100000,-0.100000)"
fill="#000000" stroke="none">
<path fill="#000000" stroke="none" d="M135 506 c-16 -12 -20 -26 -20 -75 0
-50 -4 -64 -26 -88 -21 -23 -29 -48 -43 -143 -10 -63 -24 -127 -32 -142 -26
-50 -13 -58 100 -58 55 0 111 3 123 6 28 8 36 44 18 81 -13 27 -13 35 7 93 19
57 20 69 9 128 -9 47 -9 67 -1 78 17 20 3 67 -28 97 -35 32 -81 42 -107 23z"/>
</g>
</svg>
