<?xml version="1.0" standalone="no"?>
<!DOCTYPE svg PUBLIC "-//W3C//DTD SVG 20010904//EN"
 "http://www.w3.org/TR/2001/REC-SVG-20010904/DTD/svg10.dtd">
<svg version="1.0" xmlns="http://www.w3.org/2000/svg"
 width="64.000000pt" height="134.000000pt" viewBox="0 0 64.000000 134.000000"
 preserveAspectRatio="xMidYMid meet">
<metadata>
Created by potrace 1.14, written by Peter Selinger 2001-2017
</metadata>
<g transform="translate(0.000000,134.000000) scale(0.100000,-0.100000)"
fill="#000000" stroke="none">
<path fill="#000000" stroke="none" d="M144 1333 c-40 -8 -45 -76 -10 -131 35
-55 22 -82 -41 -83 -97 -2 -96 0 -38 -123 l51 -109 53 65 c52 64 54 66 111 72
45 5 67 3 90 -9 l31 -16 -25 50 c-18 34 -38 56 -66 72 -33 19 -40 28 -35 44
17 58 16 83 -4 122 -26 52 -47 60 -117 46z"/>
<path fill="#000000" stroke="none" d="M474 864 c3 -9 9 -27 12 -40 4 -14 25
-38 48 -54 l42 -28 32 20 c38 24 35 29 -38 83 -51 37 -107 48 -96 19z"/>
<path fill="#000000" stroke="none" d="M175 328 c-9 -132 -9 -169 0 -263 l6
-60 85 6 c47 4 87 9 90 11 6 7 -24 206 -35 226 -5 10 -21 28 -35 41 -19 18
-26 35 -27 65 0 23 -4 50 -9 61 -6 13 -9 -10 -10 -70 -1 -49 -5 -117 -9 -150
-6 -57 -7 -52 -25 98 -10 86 -20 157 -21 157 -1 0 -6 -55 -10 -122z"/>
</g>
</svg>
