<?xml version="1.0" standalone="no"?>
<!DOCTYPE svg PUBLIC "-//W3C//DTD SVG 20010904//EN"
 "http://www.w3.org/TR/2001/REC-SVG-20010904/DTD/svg10.dtd">
<svg version="1.0" xmlns="http://www.w3.org/2000/svg"
 width="18.000000pt" height="33.000000pt" viewBox="0 0 18.000000 33.000000"
 preserveAspectRatio="xMidYMid meet">
<metadata>
Created by potrace 1.14, written by Peter Selinger 2001-2017
</metadata>
<g transform="translate(0.000000,33.000000) scale(0.100000,-0.100000)"
fill="#000000" stroke="none">
<path fill="#000000" stroke="none" d="M9 316 c9 -11 10 -27 3 -58 -8 -41 -7
-45 31 -87 34 -38 39 -47 34 -78 -4 -19 -3 -48 0 -64 5 -27 9 -29 47 -28 22 1
32 4 20 6 -15 3 -23 16 -30 53 -6 28 -7 50 -3 50 9 0 69 62 69 70 0 3 -25 25
-55 48 -44 35 -55 49 -55 73 0 27 -3 29 -36 29 -31 0 -35 -2 -25 -14z"/>
</g>
</svg>
