<?xml version="1.0" standalone="no"?>
<!DOCTYPE svg PUBLIC "-//W3C//DTD SVG 20010904//EN"
 "http://www.w3.org/TR/2001/REC-SVG-20010904/DTD/svg10.dtd">
<svg version="1.0" xmlns="http://www.w3.org/2000/svg"
 width="226.000000pt" height="417.000000pt" viewBox="0 0 226.000000 417.000000"
 preserveAspectRatio="xMidYMid meet">
<metadata>
Created by potrace 1.14, written by Peter Selinger 2001-2017
</metadata>
<g transform="translate(0.000000,417.000000) scale(0.100000,-0.100000)"
fill="#000000" stroke="none">
<path fill="#000000" stroke="none" d="M1860 4152 c-29 -14 -36 -23 -38 -52
-2 -19 -12 -66 -22 -104 -11 -38 -17 -73 -14 -77 10 -17 -20 -35 -161 -97 -77
-35 -209 -100 -292 -145 -150 -81 -151 -83 -206 -159 -99 -138 -177 -281 -184
-336 -4 -37 -11 -53 -27 -62 -31 -17 -108 -124 -91 -128 10 -2 11 -11 5 -32
-11 -37 11 -57 110 -105 41 -19 64 -33 50 -30 -14 2 -54 11 -90 19 -36 8 -66
13 -67 12 -1 -1 31 -26 72 -55 l75 -54 -79 -115 -79 -115 25 -56 c14 -31 25
-65 25 -76 0 -11 -54 -191 -120 -400 -104 -328 -131 -403 -202 -550 -179 -373
-238 -525 -281 -728 -12 -56 -30 -118 -39 -137 -10 -19 -66 -88 -124 -152 -97
-110 -104 -120 -96 -145 5 -16 16 -71 25 -123 8 -52 18 -107 21 -123 l6 -27
99 0 99 0 136 163 c74 89 139 161 144 160 5 -2 18 13 30 32 l21 34 -21 72
c-25 81 -21 121 14 178 12 20 29 59 36 86 8 28 26 66 41 85 16 19 35 55 44 79
8 24 33 63 55 87 22 24 40 52 40 62 0 10 8 43 19 73 10 30 21 74 25 99 6 38
19 58 86 129 l78 84 45 -26 c25 -15 48 -27 51 -27 3 0 48 83 99 185 l92 186
78 -151 c72 -138 84 -155 153 -217 41 -36 88 -88 105 -114 l30 -48 -17 -196
-18 -196 -28 -6 c-35 -7 -59 -50 -93 -162 l-22 -76 81 -43 c110 -60 141 -91
167 -171 18 -55 33 -78 91 -138 77 -78 104 -89 158 -67 75 32 80 43 80 183 0
175 -11 205 -87 256 l-60 40 14 70 c8 39 33 111 58 162 24 50 53 127 65 170
20 72 21 92 15 253 l-7 175 -108 385 -108 385 13 90 c8 50 21 146 29 215 13
113 18 131 51 187 20 34 52 73 70 87 18 14 57 58 88 98 30 40 69 87 87 103 67
62 91 151 74 276 -5 37 -13 49 -44 72 -21 15 -50 27 -64 27 -19 0 -26 5 -26
20 0 21 -41 93 -60 105 -8 5 -7 12 4 23 8 10 24 42 36 72 12 30 30 63 41 73
15 14 19 32 19 79 0 33 5 89 12 124 10 55 9 66 -5 81 -8 10 -25 38 -36 63 -11
25 -40 66 -65 93 -44 46 -45 47 -108 47 -40 0 -76 -6 -98 -18z"/>
<path fill="#000000" stroke="none" d="M524 308 c-37 -63 -37 -63 -11 -33 25
28 33 45 23 45 -3 0 -8 -6 -12 -12z"/>
</g>
</svg>
