<?xml version="1.0" standalone="no"?>
<!DOCTYPE svg PUBLIC "-//W3C//DTD SVG 20010904//EN"
 "http://www.w3.org/TR/2001/REC-SVG-20010904/DTD/svg10.dtd">
<svg version="1.0" xmlns="http://www.w3.org/2000/svg"
 width="10.000000pt" height="21.000000pt" viewBox="0 0 10.000000 21.000000"
 preserveAspectRatio="xMidYMid meet">
<metadata>
Created by potrace 1.14, written by Peter Selinger 2001-2017
</metadata>
<g transform="translate(0.000000,21.000000) scale(0.100000,-0.100000)"
fill="#000000" stroke="none">
<path fill="#000000" stroke="none" d="M16 201 c-3 -5 -7 -51 -9 -103 -2 -77
1 -93 13 -93 8 0 16 6 16 13 5 43 6 46 13 22 4 -14 15 -27 25 -28 15 -3 17 0
11 14 -19 48 -23 83 -8 88 9 4 12 1 7 -7 -5 -9 -4 -9 6 0 11 11 10 17 -7 35
-12 13 -23 32 -25 43 -3 21 -32 32 -42 16z"/>
</g>
</svg>
