<?xml version="1.0" standalone="no"?>
<!DOCTYPE svg PUBLIC "-//W3C//DTD SVG 20010904//EN"
 "http://www.w3.org/TR/2001/REC-SVG-20010904/DTD/svg10.dtd">
<svg version="1.0" xmlns="http://www.w3.org/2000/svg"
 width="17.000000pt" height="31.000000pt" viewBox="0 0 17.000000 31.000000"
 preserveAspectRatio="xMidYMid meet">
<metadata>
Created by potrace 1.14, written by Peter Selinger 2001-2017
</metadata>
<g transform="translate(0.000000,31.000000) scale(0.100000,-0.100000)"
fill="#000000" stroke="none">
<path fill="#000000" stroke="none" d="M56 283 c-20 -20 -26 -33 -21 -51 3
-14 -2 -37 -16 -61 -20 -36 -20 -41 -6 -72 8 -19 19 -46 24 -61 4 -16 11 -28
16 -28 4 0 24 0 45 0 l38 0 18 74 c20 79 16 146 -9 146 -7 0 -17 15 -20 33 -7
29 -20 46 -36 47 -4 0 -18 -12 -33 -27z"/>
</g>
</svg>
