<?xml version="1.0" standalone="no"?>
<!DOCTYPE svg PUBLIC "-//W3C//DTD SVG 20010904//EN"
 "http://www.w3.org/TR/2001/REC-SVG-20010904/DTD/svg10.dtd">
<svg version="1.0" xmlns="http://www.w3.org/2000/svg"
 width="65.000000pt" height="138.000000pt" viewBox="0 0 65.000000 138.000000"
 preserveAspectRatio="xMidYMid meet">
<metadata>
Created by potrace 1.14, written by Peter Selinger 2001-2017
</metadata>
<g transform="translate(0.000000,138.000000) scale(0.100000,-0.100000)"
fill="#000000" stroke="none">
<path fill="#000000" stroke="none" d="M181 1361 l-25 -19 19 -41 c14 -33 31
-48 75 -72 34 -18 62 -41 69 -56 14 -31 7 -38 -49 -47 -69 -11 -114 -112 -79
-177 5 -9 28 -29 52 -44 l43 -28 -14 -91 c-14 -87 -17 -94 -73 -168 -63 -82
-111 -190 -123 -274 -12 -82 -17 -92 -47 -104 -39 -17 -37 -32 11 -62 l39 -26
71 33 c38 19 70 33 70 31 0 -2 -13 -35 -29 -74 l-29 -71 26 -35 c15 -19 29
-35 32 -36 3 0 16 18 30 41 21 34 85 82 177 134 2 1 -6 32 -16 70 l-19 69 26
38 c15 20 62 61 106 90 l78 53 -6 92 c-9 136 -22 189 -57 238 -28 39 -35 43
-63 38 -52 -9 -100 -36 -116 -66 -14 -26 -14 -29 5 -43 42 -30 55 -44 55 -58
0 -11 -6 -12 -34 -4 -29 9 -35 18 -50 64 -25 78 0 114 79 114 20 0 49 7 65 15
26 13 28 18 20 47 -25 102 -22 107 33 58 19 -16 45 -30 59 -30 15 0 30 -10 40
-27 11 -18 18 -22 18 -12 0 22 -16 39 -87 93 -66 50 -68 53 -103 196 -10 38
-20 51 -68 86 -60 43 -143 84 -171 84 -9 0 -27 -9 -40 -19z"/>
</g>
</svg>
