<?xml version="1.0" standalone="no"?>
<!DOCTYPE svg PUBLIC "-//W3C//DTD SVG 20010904//EN"
 "http://www.w3.org/TR/2001/REC-SVG-20010904/DTD/svg10.dtd">
<svg version="1.0" xmlns="http://www.w3.org/2000/svg"
 width="139.000000pt" height="264.000000pt" viewBox="0 0 139.000000 264.000000"
 preserveAspectRatio="xMidYMid meet">
<metadata>
Created by potrace 1.14, written by Peter Selinger 2001-2017
</metadata>
<g transform="translate(0.000000,264.000000) scale(0.100000,-0.100000)"
fill="#000000" stroke="none">
<path fill="#000000" stroke="none" d="M815 2588 c-95 -47 -103 -54 -154 -125
-46 -64 -60 -95 -91 -200 -34 -116 -39 -128 -77 -159 -23 -19 -64 -63 -91 -97
-45 -55 -65 -70 -188 -136 -77 -41 -156 -86 -177 -99 l-38 -25 79 -81 c126
-129 226 -246 269 -313 22 -34 64 -94 93 -133 50 -67 52 -73 46 -116 -4 -31 1
-71 14 -125 11 -43 18 -89 15 -101 -3 -13 3 -89 14 -170 l20 -146 -21 -54
c-12 -29 -20 -66 -19 -82 1 -26 48 -173 58 -186 7 -8 42 44 44 65 1 11 7 -14
14 -55 l13 -75 -29 -25 c-29 -25 -29 -25 -18 -88 l11 -62 394 0 c217 0 394 3
394 8 0 4 -11 47 -24 96 -24 86 -25 94 -16 278 8 158 6 223 -10 401 -11 117
-30 276 -43 355 l-23 142 53 121 c50 112 53 123 42 157 -10 34 -20 42 -146
108 l-135 71 -34 82 -35 83 23 160 23 160 65 24 c36 14 95 36 132 50 l66 25
-28 69 c-15 37 -53 101 -84 142 l-56 74 -112 17 c-63 9 -118 17 -123 16 -6 0
-55 -23 -110 -51z"/>
<path fill="#ffffff" stroke="none" d="M1219 1099 l-22 -144 -125 -170 c-69
-93 -126 -172 -128 -174 -8 -10 -13 9 -24 92 l-12 87 94 128 c52 70 126 173
164 229 38 56 70 100 72 99 1 -2 -7 -68 -19 -147z"/>
<path fill="#000000" stroke="none" d="M421 554 c-7 -25 -10 -48 -8 -51 3 -2
10 17 16 43 7 25 10 48 8 51 -3 2 -10 -17 -16 -43z"/>
<path fill="#000000" stroke="none" d="M363 414 c-30 -41 -31 -43 -8 -32 19 9
52 66 43 73 -2 1 -17 -17 -35 -41z"/>
</g>
</svg>
