<?xml version="1.0" standalone="no"?>
<!DOCTYPE svg PUBLIC "-//W3C//DTD SVG 20010904//EN"
 "http://www.w3.org/TR/2001/REC-SVG-20010904/DTD/svg10.dtd">
<svg version="1.0" xmlns="http://www.w3.org/2000/svg"
 width="7.000000pt" height="13.000000pt" viewBox="0 0 7.000000 13.000000"
 preserveAspectRatio="xMidYMid meet">
<metadata>
Created by potrace 1.14, written by Peter Selinger 2001-2017
</metadata>
<g transform="translate(0.000000,13.000000) scale(0.100000,-0.100000)"
fill="#000000" stroke="none">
<path fill="#000000" stroke="none" d="M19 123 c-1 -5 -1 -11 0 -15 0 -5 -3
-8 -9 -8 -5 0 -10 -4 -10 -10 0 -5 6 -10 14 -10 9 0 19 -17 24 -42 6 -24 10
-34 11 -23 1 17 3 18 12 5 14 -19 3 64 -12 91 -10 19 -28 26 -30 12z"/>
</g>
</svg>
