<?xml version="1.0" standalone="no"?>
<!DOCTYPE svg PUBLIC "-//W3C//DTD SVG 20010904//EN"
 "http://www.w3.org/TR/2001/REC-SVG-20010904/DTD/svg10.dtd">
<svg version="1.0" xmlns="http://www.w3.org/2000/svg"
 width="247.000000pt" height="481.000000pt" viewBox="0 0 247.000000 481.000000"
 preserveAspectRatio="xMidYMid meet">
<metadata>
Created by potrace 1.14, written by Peter Selinger 2001-2017
</metadata>
<g transform="translate(0.000000,481.000000) scale(0.100000,-0.100000)"
fill="#000000" stroke="none">
<path fill="#000000" stroke="none" d="M118 4677 c-64 -72 -114 -135 -112
-139 3 -4 107 -90 232 -191 125 -101 297 -241 382 -311 l154 -128 79 -271 79
-272 -21 -120 c-19 -102 -23 -181 -31 -520 l-9 -400 -34 -108 -35 -107 22
-288 22 -287 57 -123 c31 -67 73 -180 93 -250 31 -110 49 -150 135 -304 l99
-178 0 -88 c0 -128 -16 -195 -66 -276 -33 -53 -41 -73 -32 -83 6 -7 73 -63
148 -123 l138 -110 315 2 316 3 -265 415 c-145 228 -264 417 -264 420 0 3 -29
131 -64 285 -35 154 -61 285 -57 290 4 6 72 99 151 209 l144 199 36 173 37
174 -73 178 -72 178 -14 151 c-9 100 -10 149 -3 144 63 -47 185 -131 190 -131
6 0 578 266 642 298 l33 17 -60 90 c-33 50 -61 94 -63 99 -2 5 -31 -9 -65 -32
-33 -23 -63 -42 -66 -42 -7 0 -56 77 -56 87 0 5 25 26 55 47 53 38 66 58 45
71 -5 3 -66 -26 -135 -65 -73 -41 -131 -67 -138 -63 -7 4 -69 49 -139 101
-107 79 -127 97 -123 115 3 12 23 129 45 259 l41 237 -72 144 -72 144 -188 7
c-183 6 -189 6 -241 -17 -53 -24 -53 -25 -92 -121 -22 -53 -47 -103 -56 -111
-15 -14 -41 21 -276 372 l-259 388 -150 47 c-82 26 -154 48 -160 47 -5 0 -62
-59 -127 -132z"/>
</g>
</svg>
