<?xml version="1.0" standalone="no"?>
<!DOCTYPE svg PUBLIC "-//W3C//DTD SVG 20010904//EN"
 "http://www.w3.org/TR/2001/REC-SVG-20010904/DTD/svg10.dtd">
<svg version="1.0" xmlns="http://www.w3.org/2000/svg"
 width="50.000000pt" height="109.000000pt" viewBox="0 0 50.000000 109.000000"
 preserveAspectRatio="xMidYMid meet">
<metadata>
Created by potrace 1.14, written by Peter Selinger 2001-2017
</metadata>
<g transform="translate(0.000000,109.000000) scale(0.100000,-0.100000)"
fill="#000000" stroke="none">
<path fill="#000000" stroke="none" d="M162 1083 c-31 -12 -57 -113 -32 -128
22 -14 7 -37 -45 -66 -33 -19 -57 -39 -60 -52 -25 -112 -26 -120 -10 -137 8
-9 15 -22 15 -28 0 -7 15 -12 35 -12 39 0 41 -7 26 -72 -10 -41 -10 -41 62
-54 35 -6 37 -8 37 -45 0 -21 -5 -41 -10 -44 -6 -4 -8 -11 -4 -16 12 -20 -7
-59 -38 -75 l-31 -16 8 -111 c13 -199 14 -208 20 -217 4 -6 19 -10 34 -10 33
0 51 31 51 89 0 51 23 60 133 54 82 -6 86 -7 89 -30 l3 -25 29 23 c28 22 28
24 23 93 -3 39 -9 79 -12 89 -7 17 -10 16 -34 -7 l-26 -25 -52 25 c-49 24
-113 85 -113 109 0 6 20 28 45 48 l45 38 -16 31 c-13 25 -14 35 -4 53 10 18 9
28 -5 55 -9 17 -15 33 -13 34 2 2 22 7 45 12 l43 9 -34 83 c-40 98 -53 115
-106 132 -42 14 -52 37 -25 60 22 18 20 102 -3 123 -18 17 -45 20 -70 10z"/>
</g>
</svg>
