<?xml version="1.0" standalone="no"?>
<!DOCTYPE svg PUBLIC "-//W3C//DTD SVG 20010904//EN"
 "http://www.w3.org/TR/2001/REC-SVG-20010904/DTD/svg10.dtd">
<svg version="1.0" xmlns="http://www.w3.org/2000/svg"
 width="14.000000pt" height="27.000000pt" viewBox="0 0 14.000000 27.000000"
 preserveAspectRatio="xMidYMid meet">
<metadata>
Created by potrace 1.14, written by Peter Selinger 2001-2017
</metadata>
<g transform="translate(0.000000,27.000000) scale(0.100000,-0.100000)"
fill="#000000" stroke="none">
<path fill="#000000" stroke="none" d="M67 263 c-4 -3 -7 -12 -7 -19 0 -7 -14
-35 -31 -63 -20 -32 -29 -56 -25 -68 6 -14 9 -15 16 -3 6 9 12 -6 20 -48 8
-40 17 -62 26 -62 8 0 14 10 14 22 0 12 13 44 28 72 31 56 31 91 1 107 -11 5
-19 18 -18 27 3 39 -6 53 -24 35z"/>
</g>
</svg>
