<?xml version="1.0" standalone="no"?>
<!DOCTYPE svg PUBLIC "-//W3C//DTD SVG 20010904//EN"
 "http://www.w3.org/TR/2001/REC-SVG-20010904/DTD/svg10.dtd">
<svg version="1.0" xmlns="http://www.w3.org/2000/svg"
 width="62.000000pt" height="114.000000pt" viewBox="0 0 62.000000 114.000000"
 preserveAspectRatio="xMidYMid meet">
<metadata>
Created by potrace 1.14, written by Peter Selinger 2001-2017
</metadata>
<g transform="translate(0.000000,114.000000) scale(0.100000,-0.100000)"
fill="#000000" stroke="none">
<path fill="#000000" stroke="none" d="M254 1129 c-33 -8 -45 -16 -55 -41 -13
-31 -12 -32 37 -74 58 -52 117 -74 194 -74 52 0 59 -3 93 -38 31 -31 43 -38
67 -34 l30 4 0 72 0 71 -83 29 c-45 16 -112 44 -149 62 -73 37 -72 36 -134 23z"/>
<path fill="#000000" stroke="none" d="M120 1032 c-56 -7 -86 -23 -103 -55
-14 -26 -16 -38 -6 -64 6 -18 18 -35 27 -38 10 -3 33 -32 53 -63 31 -51 43
-60 98 -82 39 -16 103 -58 174 -113 91 -72 227 -157 252 -157 3 0 5 65 5 143
l0 144 -112 23 c-62 12 -118 25 -124 29 -6 3 -36 35 -66 71 -81 96 -167 166
-198 162z"/>
<path fill="#000000" stroke="none" d="M575 330 c-16 -5 -104 -18 -195 -30
-110 -14 -189 -31 -237 -48 -69 -26 -72 -29 -82 -68 -6 -23 -14 -73 -17 -113
l-7 -71 230 0 230 0 7 51 c6 40 18 66 61 123 48 64 55 78 55 119 0 26 -3 47
-7 46 -5 0 -21 -5 -38 -9z"/>
<path fill="#000000" stroke="none" d="M606 138 c-3 -7 -13 -41 -25 -75 l-20
-63 30 0 29 0 0 75 c0 70 -5 92 -14 63z"/>
</g>
</svg>
