<?xml version="1.0" standalone="no"?>
<!DOCTYPE svg PUBLIC "-//W3C//DTD SVG 20010904//EN"
 "http://www.w3.org/TR/2001/REC-SVG-20010904/DTD/svg10.dtd">
<svg version="1.0" xmlns="http://www.w3.org/2000/svg"
 width="15.000000pt" height="31.000000pt" viewBox="0 0 15.000000 31.000000"
 preserveAspectRatio="xMidYMid meet">
<metadata>
Created by potrace 1.14, written by Peter Selinger 2001-2017
</metadata>
<g transform="translate(0.000000,31.000000) scale(0.100000,-0.100000)"
fill="#000000" stroke="none">
<path fill="#000000" stroke="none" d="M34 277 c-12 -17 -25 -42 -29 -54 -6
-22 -4 -23 54 -23 57 0 61 2 61 23 0 30 -39 86 -60 87 -3 0 -15 -15 -26 -33z"/>
<path fill="#000000" stroke="none" d="M110 180 c-11 -7 -12 -14 -2 -35 7 -14
12 -39 12 -55 0 -49 18 -43 25 10 8 55 -10 96 -35 80z"/>
<path fill="#000000" stroke="none" d="M7 103 c6 -96 8 -104 27 -97 13 5 14
19 9 82 -5 69 -14 91 -35 92 -3 0 -4 -35 -1 -77z"/>
</g>
</svg>
