<?xml version="1.0" standalone="no"?>
<!DOCTYPE svg PUBLIC "-//W3C//DTD SVG 20010904//EN"
 "http://www.w3.org/TR/2001/REC-SVG-20010904/DTD/svg10.dtd">
<svg version="1.0" xmlns="http://www.w3.org/2000/svg"
 width="182.000000pt" height="396.000000pt" viewBox="0 0 182.000000 396.000000"
 preserveAspectRatio="xMidYMid meet">
<metadata>
Created by potrace 1.14, written by Peter Selinger 2001-2017
</metadata>
<g transform="translate(0.000000,396.000000) scale(0.100000,-0.100000)"
fill="#000000" stroke="none">
<path fill="#000000" stroke="none" d="M802 3949 c-67 -7 -98 -17 -171 -53
l-88 -45 -13 -63 c-6 -34 -23 -91 -36 -127 -30 -80 -32 -170 -4 -235 10 -25
18 -46 16 -46 -2 0 -22 7 -45 15 -39 13 -41 13 -41 -5 0 -26 58 -171 76 -191
13 -15 8 -22 -58 -71 -40 -30 -94 -69 -119 -87 -45 -32 -47 -34 -83 -159 -20
-70 -73 -291 -116 -492 l-80 -365 0 -285 c-1 -157 -5 -330 -10 -385 -5 -55
-14 -220 -20 -366 l-11 -266 37 -62 37 -62 -10 -82 c-11 -92 -3 -114 57 -157
28 -20 35 -21 118 -11 49 6 121 22 162 36 40 14 74 24 75 22 1 -1 12 -30 24
-64 23 -61 23 -63 7 -142 -15 -72 -15 -84 -2 -109 14 -28 21 -30 194 -60 104
-19 212 -32 258 -32 70 1 86 4 138 33 55 30 60 36 72 82 7 28 13 51 14 51 0 1
-24 5 -54 8 l-54 7 4 37 c24 262 28 282 85 485 l59 209 -21 66 c-19 62 -89
476 -89 532 0 14 16 66 35 116 l35 90 -29 86 -29 86 38 37 c36 35 38 42 44
114 3 42 2 114 -2 160 -8 83 -7 86 19 115 23 28 27 42 32 131 5 77 2 122 -12
193 -22 115 -15 126 57 94 26 -11 62 -23 80 -26 31 -5 34 -3 51 36 17 42 18
42 65 39 52 -3 151 31 173 58 27 34 72 141 82 196 6 32 11 136 11 231 0 132 4
180 15 208 9 21 20 58 25 84 5 26 11 54 15 63 8 21 -40 79 -66 79 -10 0 -19 6
-19 14 0 20 -26 27 -57 15 -17 -6 -28 -6 -32 0 -10 16 -71 -19 -86 -50 -8 -15
-26 -58 -39 -95 l-25 -67 26 -33 c25 -33 25 -36 18 -146 -5 -88 -12 -127 -32
-175 -14 -35 -29 -63 -33 -63 -3 0 -15 7 -26 15 -10 8 -29 15 -41 15 -13 0
-43 16 -69 35 -25 19 -56 38 -69 41 -13 3 -31 16 -39 29 -9 13 -25 26 -36 30
-34 11 -21 72 32 147 10 13 9 20 -4 35 -12 13 -19 54 -27 148 l-10 130 -123
118 c-94 90 -129 117 -148 116 -14 -1 -62 -6 -108 -10z"/>
</g>
</svg>
