<?xml version="1.0" standalone="no"?>
<!DOCTYPE svg PUBLIC "-//W3C//DTD SVG 20010904//EN"
 "http://www.w3.org/TR/2001/REC-SVG-20010904/DTD/svg10.dtd">
<svg version="1.0" xmlns="http://www.w3.org/2000/svg"
 width="12.000000pt" height="24.000000pt" viewBox="0 0 12.000000 24.000000"
 preserveAspectRatio="xMidYMid meet">
<metadata>
Created by potrace 1.14, written by Peter Selinger 2001-2017
</metadata>
<g transform="translate(0.000000,24.000000) scale(0.100000,-0.100000)"
fill="#000000" stroke="none">
<path fill="#000000" stroke="none" d="M8 210 c-1 -16 -2 -38 -2 -47 -1 -10 5
-17 12 -15 6 1 12 -5 12 -13 0 -8 9 -34 19 -57 11 -24 23 -52 26 -63 5 -12 9
-15 12 -7 3 6 11 12 19 12 16 0 19 21 5 36 -6 5 -12 32 -14 59 -5 70 -37 125
-71 125 -11 0 -17 -10 -18 -30z"/>
</g>
</svg>
