<?xml version="1.0" standalone="no"?>
<!DOCTYPE svg PUBLIC "-//W3C//DTD SVG 20010904//EN"
 "http://www.w3.org/TR/2001/REC-SVG-20010904/DTD/svg10.dtd">
<svg version="1.0" xmlns="http://www.w3.org/2000/svg"
 width="57.000000pt" height="122.000000pt" viewBox="0 0 57.000000 122.000000"
 preserveAspectRatio="xMidYMid meet">
<metadata>
Created by potrace 1.14, written by Peter Selinger 2001-2017
</metadata>
<g transform="translate(0.000000,122.000000) scale(0.100000,-0.100000)"
fill="#000000" stroke="none">
<path fill="#000000" stroke="none" d="M259 1178 c-56 -52 -69 -93 -43 -137
17 -29 17 -31 -9 -68 -14 -21 -31 -50 -38 -65 -7 -16 -15 -28 -19 -28 -4 0
-20 -48 -35 -107 -23 -89 -34 -114 -63 -145 l-35 -37 26 -6 c14 -4 33 -15 43
-26 16 -18 16 -22 1 -59 -15 -39 -10 -53 10 -27 5 6 36 76 68 154 32 79 60
141 62 140 3 -4 -24 -231 -40 -334 l-13 -81 24 9 c48 18 59 29 117 113 l58 86
-12 109 c-11 104 -10 118 15 255 l26 145 -43 75 c-24 42 -46 76 -49 76 -3 0
-26 -19 -51 -42z"/>
<path fill="#000000" stroke="none" d="M377 309 c-76 -39 -113 -51 -163 -56
l-64 -6 0 -80 c0 -78 -1 -81 -31 -106 l-30 -26 45 -16 45 -16 32 87 c29 82 35
91 93 137 33 27 66 52 72 56 13 7 78 -162 89 -231 l7 -44 47 7 c25 4 47 8 48
8 3 3 -82 326 -87 330 -3 3 -49 -17 -103 -44z"/>
</g>
</svg>
