<?xml version="1.0" standalone="no"?>
<!DOCTYPE svg PUBLIC "-//W3C//DTD SVG 20010904//EN"
 "http://www.w3.org/TR/2001/REC-SVG-20010904/DTD/svg10.dtd">
<svg version="1.0" xmlns="http://www.w3.org/2000/svg"
 width="39.000000pt" height="77.000000pt" viewBox="0 0 39.000000 77.000000"
 preserveAspectRatio="xMidYMid meet">
<metadata>
Created by potrace 1.14, written by Peter Selinger 2001-2017
</metadata>
<g transform="translate(0.000000,77.000000) scale(0.100000,-0.100000)"
fill="#000000" stroke="none">
<path fill="#000000" stroke="none" d="M203 749 c-40 -17 -43 -21 -43 -58 0
-33 -5 -43 -32 -62 -47 -32 -66 -59 -73 -101 -4 -20 -17 -51 -31 -69 -13 -18
-24 -38 -24 -44 0 -6 32 -19 70 -29 66 -17 70 -19 70 -46 0 -31 -19 -55 -50
-65 -11 -3 -20 -14 -20 -23 0 -9 -3 -70 -7 -135 l-6 -117 40 0 40 0 -14 69
c-13 62 -12 75 3 126 l16 57 40 -6 c27 -4 46 -2 56 6 12 10 14 10 8 1 -9 -16
17 -17 45 -3 25 14 25 14 -16 -114 -19 -60 -35 -113 -35 -118 0 -5 14 -8 32
-6 32 3 32 4 75 138 24 74 43 143 43 153 0 10 -11 35 -25 55 -21 31 -25 48
-25 113 0 64 -4 81 -22 105 -19 23 -22 39 -20 84 3 57 0 64 -33 91 -19 15 -23
15 -62 -2z"/>
</g>
</svg>
