<?xml version="1.0" standalone="no"?>
<!DOCTYPE svg PUBLIC "-//W3C//DTD SVG 20010904//EN"
 "http://www.w3.org/TR/2001/REC-SVG-20010904/DTD/svg10.dtd">
<svg version="1.0" xmlns="http://www.w3.org/2000/svg"
 width="94.000000pt" height="195.000000pt" viewBox="0 0 94.000000 195.000000"
 preserveAspectRatio="xMidYMid meet">
<metadata>
Created by potrace 1.14, written by Peter Selinger 2001-2017
</metadata>
<g transform="translate(0.000000,195.000000) scale(0.100000,-0.100000)"
fill="#000000" stroke="none">
<path fill="#000000" stroke="none" d="M192 1874 l-62 -73 19 -33 c11 -18 39
-78 62 -133 l42 -100 -18 -90 c-24 -121 -102 -333 -134 -365 -14 -14 -44 -39
-65 -56 l-39 -31 43 -61 c24 -34 48 -62 52 -62 5 0 38 7 74 16 l65 17 67 -65
c37 -35 82 -76 101 -90 l35 -26 -18 -212 c-13 -164 -23 -230 -42 -292 -14 -44
-22 -84 -17 -89 4 -4 35 -9 68 -11 l60 -3 19 -57 c17 -49 22 -57 40 -53 53 13
227 35 281 36 33 1 72 4 87 8 l26 6 -43 107 c-37 92 -51 115 -95 155 l-51 48
-6 90 c-5 87 -4 93 34 185 38 92 39 98 33 180 -5 69 -15 109 -54 210 -43 109
-61 141 -145 255 -54 72 -100 135 -103 140 -4 6 -16 80 -28 165 -34 252 -21
223 -130 294 l-96 63 -62 -73z"/>
</g>
</svg>
