<?xml version="1.0" standalone="no"?>
<!DOCTYPE svg PUBLIC "-//W3C//DTD SVG 20010904//EN"
 "http://www.w3.org/TR/2001/REC-SVG-20010904/DTD/svg10.dtd">
<svg version="1.0" xmlns="http://www.w3.org/2000/svg"
 width="76.000000pt" height="156.000000pt" viewBox="0 0 76.000000 156.000000"
 preserveAspectRatio="xMidYMid meet">
<metadata>
Created by potrace 1.14, written by Peter Selinger 2001-2017
</metadata>
<g transform="translate(0.000000,156.000000) scale(0.100000,-0.100000)"
fill="#000000" stroke="none">
<path fill="#000000" stroke="none" d="M380 1541 c-14 -11 -43 -21 -65 -23
-53 -4 -54 -20 -2 -45 41 -20 44 -23 55 -84 11 -62 11 -64 -15 -91 -14 -15
-43 -39 -63 -53 -34 -24 -40 -36 -85 -178 -26 -83 -70 -200 -97 -260 l-49
-107 6 -243 7 -242 -35 -97 -35 -96 27 8 c14 5 58 18 96 29 l70 20 0 108 c0
59 4 161 9 226 7 103 11 122 32 146 13 16 36 32 51 36 16 3 42 12 58 19 17 7
49 17 72 23 40 9 42 9 47 -16 3 -14 8 -136 12 -271 3 -135 10 -269 15 -297
l10 -53 39 0 c58 0 75 30 61 105 -12 63 -4 148 13 142 13 -5 18 125 12 312
l-1 45 55 16 55 16 6 49 c5 34 1 74 -12 127 -24 95 -24 116 0 203 10 39 22
100 25 137 9 89 -15 139 -90 192 -55 38 -110 108 -99 126 4 6 15 10 25 10 24
0 34 16 16 27 -7 4 -15 17 -17 28 -4 18 -13 20 -94 22 -76 2 -94 0 -115 -16z"/>
</g>
</svg>
