<?xml version="1.0" standalone="no"?>
<!DOCTYPE svg PUBLIC "-//W3C//DTD SVG 20010904//EN"
 "http://www.w3.org/TR/2001/REC-SVG-20010904/DTD/svg10.dtd">
<svg version="1.0" xmlns="http://www.w3.org/2000/svg"
 width="19.000000pt" height="42.000000pt" viewBox="0 0 19.000000 42.000000"
 preserveAspectRatio="xMidYMid meet">
<metadata>
Created by potrace 1.14, written by Peter Selinger 2001-2017
</metadata>
<g transform="translate(0.000000,42.000000) scale(0.100000,-0.100000)"
fill="#000000" stroke="none">
<path fill="#000000" stroke="none" d="M87 413 c-4 -3 -7 -21 -7 -40 0 -28 -4
-33 -24 -33 -20 0 -26 -8 -39 -57 -17 -57 -17 -58 8 -95 14 -21 25 -42 25 -48
0 -5 5 -10 10 -10 6 0 10 5 10 10 0 6 6 10 13 10 9 0 17 -24 24 -71 12 -77 16
-85 33 -74 12 7 8 115 -6 186 -4 23 0 29 25 40 17 8 31 17 31 21 0 18 -33 88
-41 88 -5 0 -9 18 -9 40 0 35 -3 40 -23 40 -13 0 -27 -3 -30 -7z"/>
</g>
</svg>
