<?xml version="1.0" standalone="no"?>
<!DOCTYPE svg PUBLIC "-//W3C//DTD SVG 20010904//EN"
 "http://www.w3.org/TR/2001/REC-SVG-20010904/DTD/svg10.dtd">
<svg version="1.0" xmlns="http://www.w3.org/2000/svg"
 width="52.000000pt" height="105.000000pt" viewBox="0 0 52.000000 105.000000"
 preserveAspectRatio="xMidYMid meet">
<metadata>
Created by potrace 1.14, written by Peter Selinger 2001-2017
</metadata>
<g transform="translate(0.000000,105.000000) scale(0.100000,-0.100000)"
fill="#000000" stroke="none">
<path fill="#000000" stroke="none" d="M65 1032 c-3 -8 0 -21 6 -28 7 -9 9
-52 4 -136 -10 -182 -20 -237 -50 -268 -30 -31 -30 -46 -7 -123 16 -54 21 -60
89 -105 l73 -48 -60 -29 c-71 -34 -78 -59 -29 -107 29 -30 32 -30 102 -25 40
3 89 10 110 17 l37 11 -5 77 c-4 46 -1 107 7 152 13 73 15 75 43 76 59 2 65 4
65 19 0 9 -12 26 -26 38 l-26 22 21 55 c27 72 27 86 -9 179 -25 65 -30 91 -28
147 l3 69 -97 -3 c-57 -2 -120 3 -157 11 -52 12 -61 12 -66 -1z"/>
<path fill="#000000" stroke="none" d="M359 96 c-12 -16 -25 -44 -29 -62 l-8
-34 99 0 99 0 0 59 0 59 -70 4 c-67 3 -71 2 -91 -26z"/>
</g>
</svg>
