<?xml version="1.0" standalone="no"?>
<!DOCTYPE svg PUBLIC "-//W3C//DTD SVG 20010904//EN"
 "http://www.w3.org/TR/2001/REC-SVG-20010904/DTD/svg10.dtd">
<svg version="1.0" xmlns="http://www.w3.org/2000/svg"
 width="191.000000pt" height="400.000000pt" viewBox="0 0 191.000000 400.000000"
 preserveAspectRatio="xMidYMid meet">
<metadata>
Created by potrace 1.14, written by Peter Selinger 2001-2017
</metadata>
<g transform="translate(0.000000,400.000000) scale(0.100000,-0.100000)"
fill="#000000" stroke="none">
<path fill="#000000" stroke="none" d="M140 3981 c0 -27 -17 -35 -28 -15 -11
20 -42 12 -42 -11 0 -8 12 -34 26 -56 26 -41 23 -42 -29 -6 -47 32 -55 6 -14
-39 l35 -39 -44 4 c-26 2 -44 -1 -44 -8 0 -5 29 -26 65 -46 58 -33 72 -47 152
-163 49 -70 115 -167 146 -217 62 -98 124 -168 190 -214 53 -37 101 -84 152
-150 22 -29 62 -64 88 -79 44 -25 48 -29 43 -57 -3 -16 -9 -59 -12 -95 -5 -43
-16 -80 -33 -110 -25 -43 -26 -54 -31 -215 -5 -156 -7 -173 -28 -202 l-22 -31
52 -42 c29 -23 83 -59 121 -79 61 -32 67 -38 61 -61 -3 -14 -13 -33 -21 -42
-11 -12 -19 -49 -23 -107 -5 -49 -11 -94 -14 -99 -3 -5 2 -36 13 -68 10 -33
24 -84 31 -114 16 -70 66 -180 125 -274 39 -62 47 -85 54 -147 10 -82 16 -102
43 -141 33 -47 55 -166 68 -358 11 -175 11 -189 -9 -271 -26 -113 -103 -288
-142 -325 -35 -32 -51 -67 -43 -88 4 -11 33 -5 142 31 121 41 143 51 188 93
27 26 60 51 72 54 29 10 28 42 -1 86 -60 89 -69 178 -38 355 11 61 24 136 28
168 l8 58 42 -63 c24 -36 58 -108 79 -168 20 -58 43 -118 51 -134 10 -19 13
-41 9 -65 -4 -20 -6 -90 -6 -156 1 -80 -4 -136 -14 -168 l-14 -48 31 -20 c40
-24 39 -24 68 9 63 68 95 121 131 215 23 62 50 113 68 132 22 22 31 42 33 71
l2 39 -75 30 -75 30 -48 140 c-28 79 -54 175 -59 220 -10 75 -16 87 -80 187
-38 58 -80 113 -93 122 -17 11 -26 29 -31 63 -6 40 -4 49 14 63 19 16 20 23
12 81 -5 36 -17 85 -26 109 -22 61 -20 77 16 209 22 80 30 124 25 148 -5 30 1
47 48 126 79 133 84 152 64 226 -14 49 -15 65 -5 80 10 17 5 34 -31 110 -32
67 -44 106 -48 153 -2 35 -9 77 -15 93 -19 52 -87 151 -126 182 -20 17 -45 44
-54 61 l-18 30 38 32 c84 72 91 81 117 160 l27 80 -24 28 c-128 152 -142 162
-234 162 -43 0 -84 -30 -84 -61 0 -9 -11 -22 -25 -29 -14 -7 -25 -19 -25 -25
0 -6 -16 -19 -36 -28 -27 -13 -34 -22 -29 -36 3 -11 1 -22 -5 -26 -7 -4 -8
-11 -2 -18 6 -7 6 -21 1 -36 -8 -20 -14 -23 -47 -19 -20 3 -91 31 -157 63
-110 53 -127 65 -213 152 -52 52 -109 105 -126 118 -56 43 -192 243 -214 316
-36 116 -78 199 -101 199 -14 0 -21 -6 -21 -19z"/>
</g>
</svg>
