<?xml version="1.0" standalone="no"?>
<!DOCTYPE svg PUBLIC "-//W3C//DTD SVG 20010904//EN"
 "http://www.w3.org/TR/2001/REC-SVG-20010904/DTD/svg10.dtd">
<svg version="1.0" xmlns="http://www.w3.org/2000/svg"
 width="172.000000pt" height="377.000000pt" viewBox="0 0 172.000000 377.000000"
 preserveAspectRatio="xMidYMid meet">
<metadata>
Created by potrace 1.14, written by Peter Selinger 2001-2017
</metadata>
<g transform="translate(0.000000,377.000000) scale(0.100000,-0.100000)"
fill="#000000" stroke="none">
<path fill="#000000" stroke="none" d="M843 3745 c-29 -13 -53 -26 -53 -28 0
-2 9 -30 21 -63 19 -55 20 -73 15 -259 l-6 -200 -55 -184 c-30 -102 -59 -188
-65 -191 -5 -3 -78 -30 -160 -60 -106 -37 -150 -57 -146 -66 3 -7 6 -51 7 -97
l2 -84 -95 -139 c-84 -122 -108 -168 -202 -386 l-106 -246 40 -230 c37 -212
45 -242 96 -364 30 -73 62 -162 70 -198 22 -98 128 -470 134 -470 3 0 29 27
58 59 l52 59 34 194 35 193 -18 100 c-13 76 -31 130 -73 222 l-56 122 65 93
c35 51 68 99 72 106 6 11 24 10 99 -4 l91 -16 95 -152 95 -152 -5 -90 c-5 -88
-4 -94 90 -443 l94 -354 -54 -125 c-30 -69 -51 -129 -47 -133 26 -26 256 -94
423 -125 l185 -34 72 18 73 17 -153 130 c-145 124 -153 133 -173 190 -17 48
-34 71 -84 117 l-62 57 -49 407 c-50 417 -136 1052 -145 1065 -2 4 -47 40 -99
80 -52 39 -95 75 -95 79 0 4 27 41 59 81 l59 74 129 29 130 28 101 85 c90 74
100 86 93 106 -5 12 -43 103 -85 202 l-76 180 31 73 c18 40 29 75 26 78 -3 4
-41 3 -84 -2 l-78 -7 -49 -53 -48 -53 50 -57 c53 -59 58 -74 78 -231 l7 -53
-33 0 -32 0 7 57 c4 31 9 61 11 67 2 6 -14 39 -35 73 l-40 62 -63 3 -63 3 -6
50 c-4 28 -11 67 -17 88 -8 29 -5 104 13 316 22 258 22 284 8 345 -17 77 -26
81 -110 41z"/>
</g>
</svg>
