<?xml version="1.0" standalone="no"?>
<!DOCTYPE svg PUBLIC "-//W3C//DTD SVG 20010904//EN"
 "http://www.w3.org/TR/2001/REC-SVG-20010904/DTD/svg10.dtd">
<svg version="1.0" xmlns="http://www.w3.org/2000/svg"
 width="86.000000pt" height="160.000000pt" viewBox="0 0 86.000000 160.000000"
 preserveAspectRatio="xMidYMid meet">
<metadata>
Created by potrace 1.14, written by Peter Selinger 2001-2017
</metadata>
<g transform="translate(0.000000,160.000000) scale(0.100000,-0.100000)"
fill="#000000" stroke="none">
<path fill="#000000" stroke="none" d="M162 1590 c-38 -16 -94 -58 -82 -62 9
-3 9 -18 1 -63 -6 -32 -11 -85 -11 -118 0 -48 -6 -70 -31 -114 -21 -36 -33
-73 -36 -111 -5 -52 -2 -62 31 -119 40 -68 44 -83 21 -83 -14 0 -13 -4 1 -32
9 -18 26 -46 38 -63 31 -44 56 -132 56 -197 l0 -57 43 -12 c59 -16 102 -44
186 -121 l73 -66 -46 -95 c-36 -74 -56 -101 -87 -122 l-40 -28 68 -62 67 -62
46 9 c25 4 56 10 69 13 l24 6 -28 29 -27 28 23 31 c12 16 35 33 51 36 17 4 28
13 28 24 0 9 15 32 34 50 29 28 33 37 26 57 -8 19 -5 26 10 34 32 17 27 83 -9
129 -49 62 -91 141 -91 171 0 27 3 30 31 30 27 0 30 3 27 27 -2 20 -11 29 -36
38 -38 12 -47 24 -57 80 -3 21 -15 56 -26 77 -10 20 -19 48 -19 61 0 14 -7 41
-15 60 -8 20 -15 38 -15 41 0 9 79 -18 158 -54 45 -22 114 -48 152 -59 69 -19
70 -19 81 0 8 15 5 28 -11 57 -20 35 -30 41 -108 66 -119 38 -178 72 -220 126
-19 25 -52 61 -73 80 -46 42 -75 115 -85 214 -6 60 -10 70 -38 90 -55 41 -109
53 -154 36z"/>
</g>
</svg>
