<?xml version="1.0" standalone="no"?>
<!DOCTYPE svg PUBLIC "-//W3C//DTD SVG 20010904//EN"
 "http://www.w3.org/TR/2001/REC-SVG-20010904/DTD/svg10.dtd">
<svg version="1.0" xmlns="http://www.w3.org/2000/svg"
 width="32.000000pt" height="64.000000pt" viewBox="0 0 32.000000 64.000000"
 preserveAspectRatio="xMidYMid meet">
<metadata>
Created by potrace 1.14, written by Peter Selinger 2001-2017
</metadata>
<g transform="translate(0.000000,64.000000) scale(0.100000,-0.100000)"
fill="#000000" stroke="none">
<path fill="#000000" stroke="none" d="M81 603 c-6 -21 -11 -44 -11 -51 0 -8
-16 -42 -35 -76 -52 -94 -49 -124 25 -227 35 -50 62 -98 65 -119 13 -86 20
-105 46 -119 22 -12 34 -13 65 -3 69 21 75 31 64 96 -5 31 -18 68 -30 83 -14
18 -20 40 -20 75 0 27 -7 63 -16 79 -18 36 -14 42 25 41 17 0 36 7 46 18 16
18 16 21 -5 55 -12 19 -34 42 -50 50 -16 8 -31 26 -35 42 -3 15 -18 43 -31 61
-20 25 -32 32 -59 32 -31 0 -35 -4 -44 -37z"/>
</g>
</svg>
