<?xml version="1.0" standalone="no"?>
<!DOCTYPE svg PUBLIC "-//W3C//DTD SVG 20010904//EN"
 "http://www.w3.org/TR/2001/REC-SVG-20010904/DTD/svg10.dtd">
<svg version="1.0" xmlns="http://www.w3.org/2000/svg"
 width="46.000000pt" height="99.000000pt" viewBox="0 0 46.000000 99.000000"
 preserveAspectRatio="xMidYMid meet">
<metadata>
Created by potrace 1.14, written by Peter Selinger 2001-2017
</metadata>
<g transform="translate(0.000000,99.000000) scale(0.100000,-0.100000)"
fill="#000000" stroke="none">
<path fill="#000000" stroke="none" d="M107 959 c-41 -33 -46 -59 -19 -88 40
-44 57 -79 60 -122 2 -35 -2 -48 -13 -53 -18 -7 -19 -27 -2 -45 6 -6 12 -35
12 -64 1 -29 5 -72 10 -96 8 -41 7 -44 -11 -36 -10 5 -44 11 -75 13 -52 3 -57
2 -62 -19 -8 -29 -1 -39 25 -39 11 0 28 -10 38 -23 10 -13 36 -29 58 -36 l39
-13 6 -91 c3 -50 2 -97 -2 -106 -4 -9 -3 -43 3 -76 12 -65 8 -63 86 -48 19 3
48 19 64 35 17 15 33 28 36 28 3 0 5 15 3 33 -4 41 34 111 64 115 17 3 22 11
25 50 3 28 -1 58 -9 74 -15 31 -12 153 7 257 l11 64 -36 53 c-22 33 -35 66
-35 86 -1 38 -23 67 -62 85 -17 8 -28 20 -28 32 0 32 -51 61 -107 61 -39 0
-55 -6 -86 -31z"/>
</g>
</svg>
