<?xml version="1.0" standalone="no"?>
<!DOCTYPE svg PUBLIC "-//W3C//DTD SVG 20010904//EN"
 "http://www.w3.org/TR/2001/REC-SVG-20010904/DTD/svg10.dtd">
<svg version="1.0" xmlns="http://www.w3.org/2000/svg"
 width="126.000000pt" height="261.000000pt" viewBox="0 0 126.000000 261.000000"
 preserveAspectRatio="xMidYMid meet">
<metadata>
Created by potrace 1.14, written by Peter Selinger 2001-2017
</metadata>
<g transform="translate(0.000000,261.000000) scale(0.100000,-0.100000)"
fill="#000000" stroke="none">
<path fill="#000000" stroke="none" d="M156 2576 c-4 -22 -13 -36 -26 -39 -29
-8 -26 -59 9 -142 16 -38 26 -72 21 -75 -5 -3 3 -77 16 -165 l25 -160 -101
-299 -101 -300 231 -231 231 -232 39 -357 38 -357 69 -75 c37 -42 81 -91 96
-110 16 -19 32 -34 36 -34 4 0 60 76 124 168 l116 169 27 159 c24 147 31 167
79 264 29 58 76 177 103 265 l50 160 11 205 c6 113 11 247 11 298 l0 92 -136
201 -136 202 77 77 c77 77 78 79 91 152 20 113 20 113 -35 146 l-49 31 -388
10 c-214 6 -419 11 -455 11 l-67 0 -6 -34z"/>
</g>
</svg>
