<?xml version="1.0" standalone="no"?>
<!DOCTYPE svg PUBLIC "-//W3C//DTD SVG 20010904//EN"
 "http://www.w3.org/TR/2001/REC-SVG-20010904/DTD/svg10.dtd">
<svg version="1.0" xmlns="http://www.w3.org/2000/svg"
 width="20.000000pt" height="43.000000pt" viewBox="0 0 20.000000 43.000000"
 preserveAspectRatio="xMidYMid meet">
<metadata>
Created by potrace 1.14, written by Peter Selinger 2001-2017
</metadata>
<g transform="translate(0.000000,43.000000) scale(0.100000,-0.100000)"
fill="#000000" stroke="none">
<path fill="#000000" stroke="none" d="M40 415 c-10 -12 -10 -24 1 -57 7 -24
13 -82 13 -130 1 -82 0 -87 -26 -108 -38 -29 -36 -49 3 -48 33 1 49 -14 49
-49 0 -20 3 -21 29 -12 18 6 32 20 35 35 4 15 14 24 25 24 28 0 28 19 6 155
-16 94 -27 131 -48 164 -29 44 -63 54 -87 26z"/>
</g>
</svg>
