<?xml version="1.0" standalone="no"?>
<!DOCTYPE svg PUBLIC "-//W3C//DTD SVG 20010904//EN"
 "http://www.w3.org/TR/2001/REC-SVG-20010904/DTD/svg10.dtd">
<svg version="1.0" xmlns="http://www.w3.org/2000/svg"
 width="16.000000pt" height="34.000000pt" viewBox="0 0 16.000000 34.000000"
 preserveAspectRatio="xMidYMid meet">
<metadata>
Created by potrace 1.14, written by Peter Selinger 2001-2017
</metadata>
<g transform="translate(0.000000,34.000000) scale(0.100000,-0.100000)"
fill="#000000" stroke="none">
<path fill="#000000" stroke="none" d="M100 330 c0 -5 -7 -10 -16 -10 -9 0
-32 -16 -50 -34 l-35 -35 7 -103 c9 -139 13 -148 65 -148 38 0 41 2 34 23 -11
35 -5 107 11 146 8 20 12 46 9 58 -3 12 -1 25 5 28 5 3 15 15 20 25 8 15 6 24
-10 40 -22 22 -40 26 -40 10z"/>
</g>
</svg>
