<?xml version="1.0" standalone="no"?>
<!DOCTYPE svg PUBLIC "-//W3C//DTD SVG 20010904//EN"
 "http://www.w3.org/TR/2001/REC-SVG-20010904/DTD/svg10.dtd">
<svg version="1.0" xmlns="http://www.w3.org/2000/svg"
 width="45.000000pt" height="82.000000pt" viewBox="0 0 45.000000 82.000000"
 preserveAspectRatio="xMidYMid meet">
<metadata>
Created by potrace 1.14, written by Peter Selinger 2001-2017
</metadata>
<g transform="translate(0.000000,82.000000) scale(0.100000,-0.100000)"
fill="#000000" stroke="none">
<path fill="#000000" stroke="none" d="M163 813 c-29 -4 -33 -8 -33 -34 0 -17
10 -47 22 -68 29 -51 19 -84 -47 -146 -71 -67 -92 -131 -101 -313 -7 -133 -7
-134 21 -193 l29 -59 144 0 c138 0 145 1 173 24 15 13 32 26 37 28 4 1 15 30
24 63 15 56 15 66 -2 160 -10 55 -32 138 -49 185 -30 84 -30 85 -10 106 16 17
19 35 19 115 l0 95 -45 22 c-44 21 -95 26 -182 15z"/>
</g>
</svg>
