<?xml version="1.0" standalone="no"?>
<!DOCTYPE svg PUBLIC "-//W3C//DTD SVG 20010904//EN"
 "http://www.w3.org/TR/2001/REC-SVG-20010904/DTD/svg10.dtd">
<svg version="1.0" xmlns="http://www.w3.org/2000/svg"
 width="37.000000pt" height="72.000000pt" viewBox="0 0 37.000000 72.000000"
 preserveAspectRatio="xMidYMid meet">
<metadata>
Created by potrace 1.14, written by Peter Selinger 2001-2017
</metadata>
<g transform="translate(0.000000,72.000000) scale(0.100000,-0.100000)"
fill="#000000" stroke="none">
<path fill="#000000" stroke="none" d="M170 711 c-123 -11 -170 -50 -169 -141
l1 -45 18 50 c15 40 19 44 19 24 1 -15 13 -71 27 -125 29 -113 27 -157 -12
-244 -22 -46 -24 -64 -19 -110 11 -88 25 -106 87 -113 95 -12 117 -9 172 27
41 26 57 44 66 72 18 54 7 143 -35 274 -34 106 -37 120 -30 193 7 88 -6 148
-33 145 -9 0 -51 -4 -92 -7z"/>
</g>
</svg>
