<?xml version="1.0" standalone="no"?>
<!DOCTYPE svg PUBLIC "-//W3C//DTD SVG 20010904//EN"
 "http://www.w3.org/TR/2001/REC-SVG-20010904/DTD/svg10.dtd">
<svg version="1.0" xmlns="http://www.w3.org/2000/svg"
 width="174.000000pt" height="355.000000pt" viewBox="0 0 174.000000 355.000000"
 preserveAspectRatio="xMidYMid meet">
<metadata>
Created by potrace 1.14, written by Peter Selinger 2001-2017
</metadata>
<g transform="translate(0.000000,355.000000) scale(0.100000,-0.100000)"
fill="#000000" stroke="none">
<path fill="#000000" stroke="none" d="M106 3279 l-107 -272 15 -186 15 -186
172 -300 173 -299 -36 -66 -36 -66 21 -78 21 -78 -21 -102 c-19 -88 -38 -135
-151 -366 l-128 -265 48 -40 c32 -27 49 -50 52 -70 3 -16 10 -140 17 -275 12
-274 15 -252 -61 -496 -21 -71 -37 -130 -35 -133 3 -2 312 15 687 38 376 23
687 41 692 41 6 0 -4 15 -21 33 -30 31 -32 35 -38 152 l-7 120 141 339 c78
187 141 342 141 346 0 4 -22 23 -49 41 -43 30 -48 37 -45 64 3 17 43 426 89
909 68 700 82 882 73 894 -10 11 -27 13 -75 9 -78 -8 -101 -22 -114 -72 -6
-22 -25 -87 -43 -145 l-32 -105 -225 -6 c-339 -9 -465 -42 -575 -150 l-61 -60
-57 28 c-47 23 -58 33 -66 63 -5 19 -21 84 -36 144 l-27 109 22 198 c12 109
37 267 56 351 19 84 33 153 32 155 -4 3 -283 53 -299 53 -10 0 -51 -91 -122
-271z"/>
</g>
</svg>
