<?xml version="1.0" standalone="no"?>
<!DOCTYPE svg PUBLIC "-//W3C//DTD SVG 20010904//EN"
 "http://www.w3.org/TR/2001/REC-SVG-20010904/DTD/svg10.dtd">
<svg version="1.0" xmlns="http://www.w3.org/2000/svg"
 width="24.000000pt" height="51.000000pt" viewBox="0 0 24.000000 51.000000"
 preserveAspectRatio="xMidYMid meet">
<metadata>
Created by potrace 1.14, written by Peter Selinger 2001-2017
</metadata>
<g transform="translate(0.000000,51.000000) scale(0.100000,-0.100000)"
fill="#000000" stroke="none">
<path fill="#000000" stroke="none" d="M74 498 c-4 -6 -8 -33 -9 -59 -1 -35
-10 -58 -33 -90 -38 -51 -40 -74 -10 -106 19 -20 20 -27 10 -62 -17 -55 -15
-85 10 -136 l22 -45 71 0 c111 0 109 -4 102 191 -5 161 -6 166 -41 242 l-35
77 -40 0 c-22 0 -43 -5 -47 -12z"/>
</g>
</svg>
