<?xml version="1.0" standalone="no"?>
<!DOCTYPE svg PUBLIC "-//W3C//DTD SVG 20010904//EN"
 "http://www.w3.org/TR/2001/REC-SVG-20010904/DTD/svg10.dtd">
<svg version="1.0" xmlns="http://www.w3.org/2000/svg"
 width="135.000000pt" height="289.000000pt" viewBox="0 0 135.000000 289.000000"
 preserveAspectRatio="xMidYMid meet">
<metadata>
Created by potrace 1.14, written by Peter Selinger 2001-2017
</metadata>
<g transform="translate(0.000000,289.000000) scale(0.100000,-0.100000)"
fill="#000000" stroke="none">
<path fill="#000000" stroke="none" d="M589 2849 l-86 -40 -18 -105 c-12 -69
-16 -125 -11 -167 l6 -62 -66 -98 -65 -98 -9 -242 c-12 -315 -12 -879 0 -1032
l9 -120 -68 -70 c-67 -69 -69 -71 -75 -135 -12 -115 -78 -314 -144 -435 -33
-60 -57 -111 -54 -112 4 -2 65 -20 135 -42 l128 -39 86 14 c47 7 87 15 89 16
1 2 -31 28 -72 58 l-74 55 6 85 c4 57 19 127 46 215 l40 130 71 73 72 73 95
-6 c88 -6 102 -5 190 24 52 17 96 28 98 26 2 -2 -1 -91 -6 -197 -6 -106 -10
-236 -9 -288 1 -52 -2 -131 -7 -175 l-8 -80 121 -36 c67 -20 121 -33 121 -30
0 3 -14 81 -30 173 l-30 168 29 307 c29 307 29 308 10 329 -33 35 -59 118 -59
189 0 47 -8 87 -31 151 l-32 87 12 141 c11 130 11 149 -7 234 l-20 94 117 87
c64 47 144 106 179 130 64 45 74 62 76 130 l1 36 -50 -3 c-54 -4 -73 -16 -116
-76 -16 -21 -29 -34 -29 -27 0 7 -5 9 -11 5 -6 -4 -52 -17 -102 -30 -69 -17
-93 -20 -99 -11 -34 52 -168 296 -168 305 0 7 13 39 30 71 16 33 36 90 45 128
14 66 14 70 -8 132 -22 59 -28 66 -83 97 -32 19 -63 34 -69 33 -5 0 -49 -18
-96 -40z"/>
</g>
</svg>
