<?xml version="1.0" standalone="no"?>
<!DOCTYPE svg PUBLIC "-//W3C//DTD SVG 20010904//EN"
 "http://www.w3.org/TR/2001/REC-SVG-20010904/DTD/svg10.dtd">
<svg version="1.0" xmlns="http://www.w3.org/2000/svg"
 width="273.000000pt" height="519.000000pt" viewBox="0 0 273.000000 519.000000"
 preserveAspectRatio="xMidYMid meet">
<metadata>
Created by potrace 1.14, written by Peter Selinger 2001-2017
</metadata>
<g transform="translate(0.000000,519.000000) scale(0.100000,-0.100000)"
fill="#000000" stroke="none">
<path fill="#000000" stroke="none" d="M0 4845 l0 -346 40 -52 39 -53 12 -204
11 -205 -51 -143 -51 -144 0 -961 c1 -703 22 -2669 30 -2737 0 -3 18 27 39 65
21 39 69 160 106 268 l68 197 41 -24 c23 -13 78 -45 124 -71 l83 -48 227 17
c125 10 274 24 332 31 l105 14 341 -74 c280 -62 357 -75 429 -75 84 0 89 1
124 32 20 17 48 49 62 70 15 22 29 40 32 41 2 1 25 -23 50 -54 43 -51 49 -55
82 -51 30 4 43 13 73 53 l36 49 31 -30 c59 -58 138 -59 164 -4 6 14 11 54 11
89 0 64 0 65 28 65 25 0 30 8 64 93 20 50 39 106 43 122 4 24 -16 82 -96 270
-55 132 -104 243 -107 247 -4 4 -110 25 -237 48 -216 38 -244 46 -445 121
l-215 79 -534 -125 c-294 -69 -535 -124 -536 -123 -1 2 21 80 50 173 48 158
60 182 152 340 132 225 305 477 450 654 l117 143 -3 85 -3 84 44 47 c27 29 54
74 72 119 l29 73 -48 72 c-27 40 -48 77 -48 83 0 6 17 54 37 107 l38 97 -152
207 -152 207 54 273 55 274 -41 60 c-35 52 -56 70 -149 125 l-108 65 -137 0
c-75 0 -148 3 -160 7 -22 5 -23 10 -18 48 4 23 12 63 19 90 l12 48 129 52 c70
29 132 59 137 66 5 8 16 37 25 64 9 28 18 52 20 54 2 2 41 11 87 21 76 15 92
23 168 80 46 35 88 67 94 72 5 4 -291 8 -658 8 l-667 0 0 -345z"/>
</g>
</svg>
