<?xml version="1.0" standalone="no"?>
<!DOCTYPE svg PUBLIC "-//W3C//DTD SVG 20010904//EN"
 "http://www.w3.org/TR/2001/REC-SVG-20010904/DTD/svg10.dtd">
<svg version="1.0" xmlns="http://www.w3.org/2000/svg"
 width="90.000000pt" height="195.000000pt" viewBox="0 0 90.000000 195.000000"
 preserveAspectRatio="xMidYMid meet">
<metadata>
Created by potrace 1.14, written by Peter Selinger 2001-2017
</metadata>
<g transform="translate(0.000000,195.000000) scale(0.100000,-0.100000)"
fill="#000000" stroke="none">
<path fill="#000000" stroke="none" d="M407 1902 c-40 -41 -47 -53 -47 -87 0
-61 18 -112 52 -150 l30 -35 -21 -58 c-18 -50 -31 -101 -60 -243 -15 -69 -160
-226 -308 -332 -54 -39 -57 -52 -25 -89 10 -13 30 -18 62 -18 50 0 60 10 60
67 0 16 36 51 130 128 116 94 200 182 200 206 0 24 20 2 58 -65 39 -67 42 -80
42 -145 0 -69 -2 -75 -70 -199 -42 -76 -70 -139 -70 -157 0 -19 -11 -40 -32
-62 -31 -32 -31 -33 -19 -86 16 -71 58 -158 131 -271 33 -51 60 -100 60 -109
0 -28 -24 -70 -54 -98 l-29 -26 49 -18 c27 -10 68 -26 90 -35 41 -17 94 -16
94 1 0 6 -7 26 -15 46 -20 46 -19 104 2 199 14 66 15 88 5 158 -11 75 -11 82
6 96 11 9 36 67 57 130 21 63 55 159 76 213 31 78 39 111 39 162 0 98 -42 260
-117 452 l-67 173 -63 22 -63 23 0 81 c0 128 -27 174 -103 174 -26 0 -42 -10
-80 -48z"/>
</g>
</svg>
