<?xml version="1.0" standalone="no"?>
<!DOCTYPE svg PUBLIC "-//W3C//DTD SVG 20010904//EN"
 "http://www.w3.org/TR/2001/REC-SVG-20010904/DTD/svg10.dtd">
<svg version="1.0" xmlns="http://www.w3.org/2000/svg"
 width="158.000000pt" height="317.000000pt" viewBox="0 0 158.000000 317.000000"
 preserveAspectRatio="xMidYMid meet">
<metadata>
Created by potrace 1.14, written by Peter Selinger 2001-2017
</metadata>
<g transform="translate(0.000000,317.000000) scale(0.100000,-0.100000)"
fill="#000000" stroke="none">
<path fill="#000000" stroke="none" d="M0 2198 l1 -973 25 30 c13 17 86 112
161 212 l137 182 129 58 c112 49 135 64 171 106 30 35 65 61 129 93 l88 45 41
-32 41 -33 28 35 c61 73 87 120 94 172 11 83 103 359 128 382 12 11 53 55 91
98 67 75 69 77 116 77 75 0 163 20 183 42 21 25 23 119 3 151 -8 12 -26 67
-41 122 -14 55 -33 124 -41 153 l-15 52 -735 0 -734 0 0 -972z"/>
<path fill="#000000" stroke="none" d="M1443 1368 c-16 -17 -20 -31 -16 -47
17 -65 -65 -802 -102 -921 -3 -8 -18 -86 -34 -172 -24 -127 -28 -163 -19 -191
l11 -34 97 39 c74 30 99 45 104 61 3 12 3 128 -1 257 -5 198 -3 245 11 296 20
78 20 120 0 175 -13 35 -18 99 -23 302 l-6 259 -22 -24z"/>
</g>
</svg>
