<?xml version="1.0" standalone="no"?>
<!DOCTYPE svg PUBLIC "-//W3C//DTD SVG 20010904//EN"
 "http://www.w3.org/TR/2001/REC-SVG-20010904/DTD/svg10.dtd">
<svg version="1.0" xmlns="http://www.w3.org/2000/svg"
 width="26.000000pt" height="51.000000pt" viewBox="0 0 26.000000 51.000000"
 preserveAspectRatio="xMidYMid meet">
<metadata>
Created by potrace 1.14, written by Peter Selinger 2001-2017
</metadata>
<g transform="translate(0.000000,51.000000) scale(0.100000,-0.100000)"
fill="#000000" stroke="none">
<path fill="#000000" stroke="none" d="M142 494 c-12 -8 -22 -24 -22 -35 0
-33 -27 -87 -47 -93 -29 -9 -49 -62 -63 -162 -18 -128 -13 -135 97 -170 48
-16 93 -30 100 -32 8 -2 9 7 2 35 -5 21 -9 80 -9 131 0 71 -4 101 -17 123 -18
30 -18 30 15 55 17 14 32 33 32 42 0 9 7 25 15 35 7 11 11 26 8 35 -18 51 -67
67 -111 36z"/>
</g>
</svg>
