<?xml version="1.0" standalone="no"?>
<!DOCTYPE svg PUBLIC "-//W3C//DTD SVG 20010904//EN"
 "http://www.w3.org/TR/2001/REC-SVG-20010904/DTD/svg10.dtd">
<svg version="1.0" xmlns="http://www.w3.org/2000/svg"
 width="29.000000pt" height="55.000000pt" viewBox="0 0 29.000000 55.000000"
 preserveAspectRatio="xMidYMid meet">
<metadata>
Created by potrace 1.14, written by Peter Selinger 2001-2017
</metadata>
<g transform="translate(0.000000,55.000000) scale(0.100000,-0.100000)"
fill="#000000" stroke="none">
<path fill="#000000" stroke="none" d="M59 528 c-2 -54 4 -95 19 -123 16 -30
19 -158 6 -228 -6 -29 -16 -31 -68 -11 -13 5 -16 -1 -16 -25 0 -21 5 -31 15
-31 9 0 15 -6 14 -13 -6 -46 2 -65 35 -81 43 -20 82 -21 90 0 3 9 6 58 6 109
l0 93 38 6 c97 17 92 14 92 59 0 36 -6 46 -46 84 -26 24 -51 43 -55 43 -14 0
-10 20 6 36 15 16 20 60 9 88 -5 12 -21 16 -75 16 -65 0 -69 -1 -70 -22z"/>
</g>
</svg>
