<?xml version="1.0" standalone="no"?>
<!DOCTYPE svg PUBLIC "-//W3C//DTD SVG 20010904//EN"
 "http://www.w3.org/TR/2001/REC-SVG-20010904/DTD/svg10.dtd">
<svg version="1.0" xmlns="http://www.w3.org/2000/svg"
 width="17.000000pt" height="34.000000pt" viewBox="0 0 17.000000 34.000000"
 preserveAspectRatio="xMidYMid meet">
<metadata>
Created by potrace 1.14, written by Peter Selinger 2001-2017
</metadata>
<g transform="translate(0.000000,34.000000) scale(0.100000,-0.100000)"
fill="#000000" stroke="none">
<path fill="#000000" stroke="none" d="M91 327 c-7 -9 -8 -24 -2 -44 10 -35
-1 -53 -33 -53 -17 0 -24 -12 -38 -60 -21 -69 -22 -82 -7 -132 l10 -38 68 0
c54 0 70 4 75 16 11 28 7 219 -5 231 -8 8 -8 17 0 30 17 32 3 63 -29 63 -15 0
-33 -6 -39 -13z"/>
</g>
</svg>
