<?xml version="1.0" standalone="no"?>
<!DOCTYPE svg PUBLIC "-//W3C//DTD SVG 20010904//EN"
 "http://www.w3.org/TR/2001/REC-SVG-20010904/DTD/svg10.dtd">
<svg version="1.0" xmlns="http://www.w3.org/2000/svg"
 width="13.000000pt" height="28.000000pt" viewBox="0 0 13.000000 28.000000"
 preserveAspectRatio="xMidYMid meet">
<metadata>
Created by potrace 1.14, written by Peter Selinger 2001-2017
</metadata>
<g transform="translate(0.000000,28.000000) scale(0.100000,-0.100000)"
fill="#000000" stroke="none">
<path fill="#000000" stroke="none" d="M15 257 c-12 -19 -13 -34 -5 -76 11
-58 20 -78 63 -138 34 -49 57 -47 57 4 0 30 -3 34 -22 33 -13 -1 -29 -2 -35
-1 -19 1 -16 42 3 56 11 7 18 31 21 63 4 48 2 52 -26 67 -38 19 -38 19 -56 -8z"/>
</g>
</svg>
