<?xml version="1.0" standalone="no"?>
<!DOCTYPE svg PUBLIC "-//W3C//DTD SVG 20010904//EN"
 "http://www.w3.org/TR/2001/REC-SVG-20010904/DTD/svg10.dtd">
<svg version="1.0" xmlns="http://www.w3.org/2000/svg"
 width="144.000000pt" height="275.000000pt" viewBox="0 0 144.000000 275.000000"
 preserveAspectRatio="xMidYMid meet">
<metadata>
Created by potrace 1.14, written by Peter Selinger 2001-2017
</metadata>
<g transform="translate(0.000000,275.000000) scale(0.100000,-0.100000)"
fill="#000000" stroke="none">
<path fill="#000000" stroke="none" d="M645 2741 c-37 -9 -88 -35 -102 -53 -6
-7 -20 -48 -31 -91 -18 -71 -30 -91 -120 -210 -55 -73 -166 -232 -248 -355
l-148 -222 38 -133 c35 -126 37 -139 36 -284 0 -84 2 -153 5 -153 3 0 43 20
88 45 46 25 86 45 89 45 3 0 17 -18 32 -40 26 -39 26 -45 32 -242 4 -177 33
-534 50 -638 5 -30 12 -13 44 115 21 83 52 190 69 239 27 77 31 104 31 190 0
97 24 323 38 359 6 14 19 6 82 -52 l75 -69 28 20 c16 11 32 17 36 12 4 -5 18
-184 30 -399 12 -214 31 -455 42 -535 17 -128 23 -153 56 -217 l38 -73 78 0
c42 0 77 2 77 4 0 2 7 38 14 80 13 66 13 82 0 125 -12 43 -12 61 0 144 l14 95
-48 278 -48 277 19 56 c11 31 22 62 25 70 3 10 34 -14 99 -79 52 -52 96 -92
98 -89 2 2 16 26 31 53 l27 49 -26 181 c-14 100 -27 190 -30 202 -4 17 8 26
74 59 l79 38 9 67 9 68 -62 51 c-60 49 -66 58 -158 247 -97 199 -127 244 -265
400 -63 71 -75 100 -91 220 -10 75 -13 81 -53 116 -36 33 -48 38 -87 37 -25
-1 -58 -4 -75 -8z"/>
</g>
</svg>
