<?xml version="1.0" standalone="no"?>
<!DOCTYPE svg PUBLIC "-//W3C//DTD SVG 20010904//EN"
 "http://www.w3.org/TR/2001/REC-SVG-20010904/DTD/svg10.dtd">
<svg version="1.0" xmlns="http://www.w3.org/2000/svg"
 width="268.000000pt" height="560.000000pt" viewBox="0 0 268.000000 560.000000"
 preserveAspectRatio="xMidYMid meet">
<metadata>
Created by potrace 1.14, written by Peter Selinger 2001-2017
</metadata>
<g transform="translate(0.000000,560.000000) scale(0.100000,-0.100000)"
fill="#000000" stroke="none">
<path fill="#000000" stroke="none" d="M790 5560 c-6 -23 -13 -47 -16 -55 -3
-7 2 -15 11 -17 20 -4 376 -729 364 -742 -4 -5 -50 -12 -101 -15 l-93 -6 -41
-217 -41 -217 -47 -53 c-25 -29 -81 -95 -124 -147 l-77 -94 -6 -91 c-4 -50 -5
-93 -4 -94 2 -2 52 -16 112 -31 l108 -27 3 -90 2 -89 -50 -41 -49 -42 -193 49
c-259 66 -338 74 -454 45 l-89 -22 -3 -55 -3 -55 126 -146 c144 -169 89 -143
430 -203 206 -36 324 -62 338 -75 5 -4 44 -222 87 -484 64 -388 83 -484 102
-514 12 -20 52 -82 88 -137 l65 -100 49 -270 c57 -316 57 -317 162 -354 l68
-24 -33 -28 -34 -28 96 -135 95 -134 56 -207 c31 -114 53 -211 50 -216 -3 -5
-86 -75 -186 -155 l-180 -147 88 -37 c72 -30 111 -40 204 -50 l115 -12 230 92
c127 51 240 96 252 101 21 8 18 19 -157 545 -99 296 -185 541 -192 546 -7 4
-25 8 -40 8 -15 0 -29 4 -32 9 -5 8 31 402 37 408 2 1 60 -133 131 -298 l128
-299 -43 -38 -42 -38 28 -136 29 -136 160 -7 161 -7 122 59 121 58 -176 401
c-172 390 -180 405 -269 527 l-91 125 14 174 c11 131 23 208 51 318 l36 145
-111 210 c-98 186 -118 232 -172 404 -55 174 -73 215 -166 386 l-104 192 0
187 c0 180 -1 193 -40 373 -38 174 -41 205 -50 423 -9 214 -12 248 -44 379
l-34 143 -63 64 c-60 61 -88 74 -115 56 -23 -14 -40 -142 -33 -232 9 -109 9
-331 0 -274 -5 27 -46 107 -115 222 -105 176 -129 207 -392 511 -1 1 -8 -16
-14 -39z"/>
</g>
</svg>
