<?xml version="1.0" standalone="no"?>
<!DOCTYPE svg PUBLIC "-//W3C//DTD SVG 20010904//EN"
 "http://www.w3.org/TR/2001/REC-SVG-20010904/DTD/svg10.dtd">
<svg version="1.0" xmlns="http://www.w3.org/2000/svg"
 width="28.000000pt" height="58.000000pt" viewBox="0 0 28.000000 58.000000"
 preserveAspectRatio="xMidYMid meet">
<metadata>
Created by potrace 1.14, written by Peter Selinger 2001-2017
</metadata>
<g transform="translate(0.000000,58.000000) scale(0.100000,-0.100000)"
fill="#000000" stroke="none">
<path fill="#000000" stroke="none" d="M177 545 c-10 -22 -17 -60 -17 -100 0
-55 -3 -66 -24 -82 -29 -21 -120 -184 -129 -229 -10 -52 9 -58 71 -22 l55 31
-6 -74 c-6 -70 -4 -66 42 101 26 96 62 209 79 250 33 76 36 97 26 138 -5 18
-13 22 -43 22 -33 0 -39 -4 -54 -35z"/>
</g>
</svg>
