<?xml version="1.0" standalone="no"?>
<!DOCTYPE svg PUBLIC "-//W3C//DTD SVG 20010904//EN"
 "http://www.w3.org/TR/2001/REC-SVG-20010904/DTD/svg10.dtd">
<svg version="1.0" xmlns="http://www.w3.org/2000/svg"
 width="63.000000pt" height="115.000000pt" viewBox="0 0 63.000000 115.000000"
 preserveAspectRatio="xMidYMid meet">
<metadata>
Created by potrace 1.14, written by Peter Selinger 2001-2017
</metadata>
<g transform="translate(0.000000,115.000000) scale(0.100000,-0.100000)"
fill="#000000" stroke="none">
<path fill="#000000" stroke="none" d="M368 1119 l-56 -28 5 -68 c3 -45 13
-85 30 -118 23 -46 24 -53 12 -82 l-14 -32 -60 38 c-59 37 -143 74 -198 87
-25 6 -27 4 -27 -28 0 -32 3 -34 63 -56 71 -25 170 -101 187 -143 12 -28 10
-31 -40 -76 -29 -27 -60 -52 -69 -57 -9 -5 -20 -15 -24 -23 -4 -7 -14 -13 -22
-13 -7 0 -40 -17 -73 -37 l-59 -37 24 -80 c19 -68 22 -94 17 -167 -6 -81 -8
-87 -35 -103 l-29 -17 32 -40 c18 -23 40 -39 52 -39 36 0 246 42 246 49 0 4
-24 28 -54 54 -51 44 -56 53 -85 146 -17 54 -31 104 -31 110 0 5 19 16 42 23
36 11 58 9 189 -18 102 -20 156 -27 173 -21 24 8 26 13 26 71 0 50 4 65 21 79
19 17 20 25 14 90 -3 40 -10 81 -15 92 -10 22 -40 162 -45 210 -2 17 -11 48
-20 69 -11 26 -16 60 -13 99 l3 61 -56 16 -56 17 -55 -28z"/>
</g>
</svg>
