<?xml version="1.0" standalone="no"?>
<!DOCTYPE svg PUBLIC "-//W3C//DTD SVG 20010904//EN"
 "http://www.w3.org/TR/2001/REC-SVG-20010904/DTD/svg10.dtd">
<svg version="1.0" xmlns="http://www.w3.org/2000/svg"
 width="11.000000pt" height="21.000000pt" viewBox="0 0 11.000000 21.000000"
 preserveAspectRatio="xMidYMid meet">
<metadata>
Created by potrace 1.14, written by Peter Selinger 2001-2017
</metadata>
<g transform="translate(0.000000,21.000000) scale(0.100000,-0.100000)"
fill="#000000" stroke="none">
<path fill="#000000" stroke="none" d="M27 196 c-10 -10 -13 -30 -11 -60 1
-25 -1 -48 -5 -50 -3 -3 -5 -23 -3 -45 l4 -41 49 0 c53 0 55 3 35 39 -10 18
-11 31 -2 53 10 27 8 32 -16 53 -17 14 -23 26 -17 32 6 6 5 14 -5 22 -11 9
-17 8 -29 -3z"/>
</g>
</svg>
