<?xml version="1.0" standalone="no"?>
<!DOCTYPE svg PUBLIC "-//W3C//DTD SVG 20010904//EN"
 "http://www.w3.org/TR/2001/REC-SVG-20010904/DTD/svg10.dtd">
<svg version="1.0" xmlns="http://www.w3.org/2000/svg"
 width="117.000000pt" height="215.000000pt" viewBox="0 0 117.000000 215.000000"
 preserveAspectRatio="xMidYMid meet">
<metadata>
Created by potrace 1.14, written by Peter Selinger 2001-2017
</metadata>
<g transform="translate(0.000000,215.000000) scale(0.100000,-0.100000)"
fill="#000000" stroke="none">
<path fill="#000000" stroke="none" d="M226 2110 c-76 -22 -142 -43 -146 -47
-4 -4 -23 -71 -43 -149 -35 -134 -37 -146 -31 -250 5 -72 13 -121 24 -144 30
-60 40 -159 40 -387 0 -268 6 -343 29 -343 23 -1 51 -24 51 -44 0 -8 9 -21 21
-28 11 -7 52 -55 91 -107 l71 -95 -12 -45 c-7 -25 -14 -47 -16 -50 -3 -2 -49
15 -103 37 -89 37 -102 40 -130 30 -20 -8 -35 -23 -42 -42 -9 -26 -5 -37 48
-119 43 -67 69 -97 104 -119 36 -22 50 -38 58 -66 6 -20 25 -54 44 -76 30 -35
40 -40 117 -53 l84 -14 35 38 c31 34 40 38 85 38 34 1 73 12 122 34 l71 33
-59 147 c-48 118 -67 153 -98 181 -21 19 -46 55 -56 80 -9 25 -19 51 -22 58
-4 10 0 10 18 3 13 -6 61 -17 107 -26 114 -23 203 -8 303 49 l73 41 38 135 38
135 -29 65 c-16 36 -37 90 -46 120 -10 30 -35 89 -56 132 l-38 76 38 59 c21
32 66 84 99 117 l60 59 -23 61 -23 61 -118 45 c-66 25 -139 58 -164 72 -25 14
-70 34 -100 43 -30 10 -58 20 -62 24 -4 4 13 32 37 64 30 37 45 66 45 85 l0
29 -162 43 c-90 23 -179 44 -198 46 -19 1 -97 -15 -174 -36z"/>
</g>
</svg>
