<?xml version="1.0" standalone="no"?>
<!DOCTYPE svg PUBLIC "-//W3C//DTD SVG 20010904//EN"
 "http://www.w3.org/TR/2001/REC-SVG-20010904/DTD/svg10.dtd">
<svg version="1.0" xmlns="http://www.w3.org/2000/svg"
 width="9.000000pt" height="17.000000pt" viewBox="0 0 9.000000 17.000000"
 preserveAspectRatio="xMidYMid meet">
<metadata>
Created by potrace 1.14, written by Peter Selinger 2001-2017
</metadata>
<g transform="translate(0.000000,17.000000) scale(0.100000,-0.100000)"
fill="#000000" stroke="none">
<path fill="#000000" stroke="none" d="M7 164 c-4 -4 -2 -13 5 -21 8 -10 8
-17 0 -25 -19 -19 -14 -28 18 -28 35 0 38 -10 11 -34 -11 -10 -17 -25 -14 -37
7 -26 23 -24 23 4 0 12 9 31 21 40 l20 18 -24 42 c-24 41 -46 55 -60 41z"/>
</g>
</svg>
