<?xml version="1.0" standalone="no"?>
<!DOCTYPE svg PUBLIC "-//W3C//DTD SVG 20010904//EN"
 "http://www.w3.org/TR/2001/REC-SVG-20010904/DTD/svg10.dtd">
<svg version="1.0" xmlns="http://www.w3.org/2000/svg"
 width="24.000000pt" height="45.000000pt" viewBox="0 0 24.000000 45.000000"
 preserveAspectRatio="xMidYMid meet">
<metadata>
Created by potrace 1.14, written by Peter Selinger 2001-2017
</metadata>
<g transform="translate(0.000000,45.000000) scale(0.100000,-0.100000)"
fill="#000000" stroke="none">
<path fill="#000000" stroke="none" d="M66 434 c-3 -9 -6 -29 -6 -44 0 -17 -8
-34 -18 -42 -26 -18 -42 -51 -42 -87 0 -26 4 -31 24 -31 15 0 27 -7 30 -18 3
-10 31 -30 61 -45 l55 -27 1 33 1 32 10 -27 c19 -52 44 -30 52 47 8 70 -3 93
-55 110 -30 10 -34 16 -37 53 -3 35 -7 42 -34 51 -38 14 -35 14 -42 -5z"/>
<path fill="#000000" stroke="none" d="M27 107 c-24 -99 -23 -107 13 -107 16
0 51 5 79 11 41 8 54 17 70 44 l20 34 -39 11 c-21 6 -57 26 -80 45 -23 19 -43
35 -43 35 -1 0 -10 -33 -20 -73z"/>
</g>
</svg>
