<?xml version="1.0" standalone="no"?>
<!DOCTYPE svg PUBLIC "-//W3C//DTD SVG 20010904//EN"
 "http://www.w3.org/TR/2001/REC-SVG-20010904/DTD/svg10.dtd">
<svg version="1.0" xmlns="http://www.w3.org/2000/svg"
 width="37.000000pt" height="69.000000pt" viewBox="0 0 37.000000 69.000000"
 preserveAspectRatio="xMidYMid meet">
<metadata>
Created by potrace 1.14, written by Peter Selinger 2001-2017
</metadata>
<g transform="translate(0.000000,69.000000) scale(0.100000,-0.100000)"
fill="#000000" stroke="none">
<path fill="#000000" stroke="none" d="M202 677 c-28 -13 -38 -50 -23 -83 6
-14 11 -27 11 -28 0 -2 -24 -9 -52 -16 -85 -19 -87 -20 -114 -55 -25 -33 -25
-34 -9 -70 17 -35 30 -42 90 -47 29 -3 30 -4 47 -103 9 -55 31 -140 47 -190
l30 -90 1 60 c0 33 7 114 14 179 16 133 30 162 87 181 35 13 38 21 19 71 -6
14 -18 24 -30 24 -15 0 -20 7 -20 26 0 19 8 28 35 40 35 14 46 42 27 70 -12
19 -134 42 -160 31z"/>
</g>
</svg>
