<?xml version="1.0" standalone="no"?>
<!DOCTYPE svg PUBLIC "-//W3C//DTD SVG 20010904//EN"
 "http://www.w3.org/TR/2001/REC-SVG-20010904/DTD/svg10.dtd">
<svg version="1.0" xmlns="http://www.w3.org/2000/svg"
 width="24.000000pt" height="48.000000pt" viewBox="0 0 24.000000 48.000000"
 preserveAspectRatio="xMidYMid meet">
<metadata>
Created by potrace 1.14, written by Peter Selinger 2001-2017
</metadata>
<g transform="translate(0.000000,48.000000) scale(0.100000,-0.100000)"
fill="#000000" stroke="none">
<path fill="#000000" stroke="none" d="M88 473 c-26 -4 -28 -8 -28 -47 0 -29
-10 -61 -30 -97 -16 -30 -30 -57 -30 -60 0 -4 18 -9 39 -13 46 -7 46 -8 57
-161 l7 -100 32 122 c27 101 39 130 69 165 l37 42 -46 23 -45 23 0 55 c0 59 2
58 -62 48z"/>
</g>
</svg>
