<?xml version="1.0" standalone="no"?>
<!DOCTYPE svg PUBLIC "-//W3C//DTD SVG 20010904//EN"
 "http://www.w3.org/TR/2001/REC-SVG-20010904/DTD/svg10.dtd">
<svg version="1.0" xmlns="http://www.w3.org/2000/svg"
 width="25.000000pt" height="55.000000pt" viewBox="0 0 25.000000 55.000000"
 preserveAspectRatio="xMidYMid meet">
<metadata>
Created by potrace 1.14, written by Peter Selinger 2001-2017
</metadata>
<g transform="translate(0.000000,55.000000) scale(0.100000,-0.100000)"
fill="#000000" stroke="none">
<path fill="#000000" stroke="none" d="M95 538 c-2 -7 -9 -38 -15 -69 -7 -38
-19 -63 -35 -77 -14 -12 -25 -28 -26 -34 0 -7 -4 -53 -9 -103 -6 -67 -4 -98 5
-122 7 -17 12 -33 11 -35 -2 -2 -6 -22 -10 -45 l-6 -43 43 0 c38 0 44 3 61 34
l18 35 29 -21 c16 -12 29 -30 29 -39 0 -14 5 -16 28 -10 l27 7 -2 151 c-2 165
-9 195 -63 256 -28 32 -31 40 -22 65 6 18 6 35 0 45 -11 20 -57 23 -63 5z"/>
</g>
</svg>
