<?xml version="1.0" standalone="no"?>
<!DOCTYPE svg PUBLIC "-//W3C//DTD SVG 20010904//EN"
 "http://www.w3.org/TR/2001/REC-SVG-20010904/DTD/svg10.dtd">
<svg version="1.0" xmlns="http://www.w3.org/2000/svg"
 width="186.000000pt" height="382.000000pt" viewBox="0 0 186.000000 382.000000"
 preserveAspectRatio="xMidYMid meet">
<metadata>
Created by potrace 1.14, written by Peter Selinger 2001-2017
</metadata>
<g transform="translate(0.000000,382.000000) scale(0.100000,-0.100000)"
fill="#000000" stroke="none">
<path fill="#000000" stroke="none" d="M875 3778 l-100 -40 -80 -104 -80 -103
-7 -107 -6 -107 -52 -52 -52 -52 29 -59 c16 -33 36 -75 43 -94 7 -19 22 -45
32 -56 l19 -22 -141 -46 c-208 -68 -202 -64 -259 -150 -28 -41 -51 -79 -51
-83 0 -4 -34 -71 -75 -148 -94 -177 -99 -188 -91 -228 5 -28 12 -36 44 -45 95
-29 366 3 467 55 28 14 100 51 160 83 61 32 115 56 121 54 6 -3 15 6 21 18 10
22 11 21 32 -19 14 -29 34 -49 61 -63 46 -23 87 -75 135 -171 21 -41 49 -79
75 -99 22 -17 56 -59 75 -91 l35 -60 0 -177 c0 -204 10 -303 46 -440 30 -115
41 -140 73 -161 l24 -15 -7 94 c-24 348 -16 515 27 545 18 13 22 12 34 -5 20
-28 48 -41 109 -49 44 -6 54 -5 59 8 78 196 83 216 74 264 -13 74 -28 206 -30
267 -3 105 11 130 121 227 93 82 100 90 100 125 0 45 -26 53 -36 13 -8 -32
-44 -55 -44 -28 0 10 9 38 20 62 11 24 20 51 20 60 0 21 -39 46 -66 42 -18 -2
-20 2 -16 29 3 19 -1 38 -10 48 -8 9 -18 25 -21 35 -9 24 -47 23 -47 -2 0 -10
7 -24 16 -31 26 -23 37 -50 24 -65 -7 -8 -9 -23 -4 -37 11 -33 5 -89 -12 -116
-19 -28 -3 -62 29 -62 12 0 33 -7 46 -16 l23 -17 -53 -30 c-30 -16 -80 -45
-112 -64 -52 -31 -61 -34 -73 -21 -13 13 -11 20 20 56 21 26 32 49 29 60 -2
10 -29 31 -59 45 -44 22 -58 36 -76 72 -17 34 -28 45 -45 45 l-23 0 36 -97
c20 -54 42 -120 50 -148 14 -50 19 -206 7 -218 -3 -4 -23 23 -44 61 -32 56
-37 73 -32 108 6 48 4 52 -89 194 -88 133 -96 140 -164 140 -69 0 -139 26
-123 46 18 21 55 17 98 -12 44 -29 47 -28 129 28 31 22 52 48 79 101 19 40 49
88 64 107 27 32 29 41 29 113 0 78 1 80 41 128 34 41 45 64 59 131 11 45 16
87 13 92 -28 47 -125 141 -208 201 -100 71 -101 72 -180 79 -188 16 -173 18
-280 -26z"/>
<path fill="#000000" stroke="none" d="M250 1881 l-124 -47 -9 -40 c-5 -21 -6
-90 -3 -152 5 -95 10 -121 30 -155 14 -23 28 -64 32 -92 4 -27 28 -108 54
-180 26 -71 56 -164 66 -205 10 -41 19 -76 20 -78 4 -6 124 59 124 67 0 4 -15
48 -33 97 -29 79 -32 96 -26 154 4 36 10 203 14 373 6 256 5 307 -6 306 -8 0
-70 -22 -139 -48z"/>
<path fill="#000000" stroke="none" d="M577 678 c-136 -46 -137 -48 -137 -158
0 -76 -14 -236 -31 -353 -14 -98 -2 -132 44 -123 19 4 26 2 21 -6 -4 -6 1 -17
11 -24 15 -11 24 -11 52 1 30 13 38 13 55 1 18 -13 24 -13 44 1 15 9 24 11 24
4 0 -6 11 -11 24 -11 30 0 68 54 96 134 16 47 20 85 20 183 l0 125 -41 69
c-34 56 -42 81 -47 134 -2 36 -7 65 -11 64 -3 0 -59 -19 -124 -41z"/>
</g>
</svg>
