<?xml version="1.0" standalone="no"?>
<!DOCTYPE svg PUBLIC "-//W3C//DTD SVG 20010904//EN"
 "http://www.w3.org/TR/2001/REC-SVG-20010904/DTD/svg10.dtd">
<svg version="1.0" xmlns="http://www.w3.org/2000/svg"
 width="60.000000pt" height="130.000000pt" viewBox="0 0 60.000000 130.000000"
 preserveAspectRatio="xMidYMid meet">
<metadata>
Created by potrace 1.14, written by Peter Selinger 2001-2017
</metadata>
<g transform="translate(0.000000,130.000000) scale(0.100000,-0.100000)"
fill="#000000" stroke="none">
<path fill="#000000" stroke="none" d="M238 1279 c-38 -20 -52 -55 -42 -108 5
-25 1 -32 -39 -61 -63 -45 -133 -129 -147 -177 -15 -50 1 -86 67 -155 44 -45
46 -48 40 -95 -3 -26 0 -104 8 -173 7 -69 16 -190 20 -270 3 -80 11 -158 16
-175 16 -50 49 -66 126 -63 l68 3 -37 35 c-20 19 -46 58 -58 86 l-21 51 23
113 24 113 32 -109 c17 -60 39 -141 48 -180 17 -71 18 -72 53 -78 47 -8 166
-8 174 0 13 13 -7 34 -42 44 -29 8 -42 20 -64 59 -24 44 -27 59 -27 145 0 142
-18 282 -41 319 -24 40 -26 141 -4 183 20 38 19 123 -1 206 -14 59 -21 70 -55
94 -36 25 -38 29 -26 48 8 12 17 39 20 61 5 32 2 45 -16 66 -29 35 -56 40 -99
18z"/>
</g>
</svg>
