<?xml version="1.0" standalone="no"?>
<!DOCTYPE svg PUBLIC "-//W3C//DTD SVG 20010904//EN"
 "http://www.w3.org/TR/2001/REC-SVG-20010904/DTD/svg10.dtd">
<svg version="1.0" xmlns="http://www.w3.org/2000/svg"
 width="20.000000pt" height="40.000000pt" viewBox="0 0 20.000000 40.000000"
 preserveAspectRatio="xMidYMid meet">
<metadata>
Created by potrace 1.14, written by Peter Selinger 2001-2017
</metadata>
<g transform="translate(0.000000,40.000000) scale(0.100000,-0.100000)"
fill="#000000" stroke="none">
<path fill="#000000" stroke="none" d="M53 388 c-5 -7 -15 -42 -22 -78 -7 -36
-16 -69 -21 -75 -4 -5 -6 -61 -3 -124 l6 -114 76 6 c113 8 111 6 111 94 0 74
0 74 -31 85 -22 8 -28 15 -24 27 20 49 35 114 30 129 -6 21 -68 62 -94 62 -10
0 -23 -6 -28 -12z"/>
</g>
</svg>
