<?xml version="1.0" standalone="no"?>
<!DOCTYPE svg PUBLIC "-//W3C//DTD SVG 20010904//EN"
 "http://www.w3.org/TR/2001/REC-SVG-20010904/DTD/svg10.dtd">
<svg version="1.0" xmlns="http://www.w3.org/2000/svg"
 width="27.000000pt" height="60.000000pt" viewBox="0 0 27.000000 60.000000"
 preserveAspectRatio="xMidYMid meet">
<metadata>
Created by potrace 1.14, written by Peter Selinger 2001-2017
</metadata>
<g transform="translate(0.000000,60.000000) scale(0.100000,-0.100000)"
fill="#000000" stroke="none">
<path fill="#000000" stroke="none" d="M65 564 c-54 -54 -65 -88 -65 -203 0
-90 2 -104 25 -137 14 -20 25 -49 25 -64 0 -15 3 -48 6 -74 10 -71 30 -41 39
57 l7 82 30 -105 c17 -58 34 -109 38 -114 5 -4 29 0 55 10 l47 18 -30 25 c-24
20 -32 37 -37 76 -4 28 -15 90 -25 140 -10 50 -21 121 -25 160 -7 64 -28 138
-45 158 -4 5 -24 -8 -45 -29z"/>
</g>
</svg>
