<?xml version="1.0" standalone="no"?>
<!DOCTYPE svg PUBLIC "-//W3C//DTD SVG 20010904//EN"
 "http://www.w3.org/TR/2001/REC-SVG-20010904/DTD/svg10.dtd">
<svg version="1.0" xmlns="http://www.w3.org/2000/svg"
 width="82.000000pt" height="150.000000pt" viewBox="0 0 82.000000 150.000000"
 preserveAspectRatio="xMidYMid meet">
<metadata>
Created by potrace 1.14, written by Peter Selinger 2001-2017
</metadata>
<g transform="translate(0.000000,150.000000) scale(0.100000,-0.100000)"
fill="#000000" stroke="none">
<path fill="#000000" stroke="none" d="M441 1489 c-29 -4 -58 -13 -63 -21 -5
-7 -7 -48 -4 -90 5 -71 4 -77 -15 -83 -18 -6 -20 -12 -14 -43 3 -21 27 -82 53
-137 37 -81 46 -110 45 -152 l0 -53 53 0 c74 0 84 19 42 83 -28 43 -29 49 -16
65 9 9 23 31 31 48 15 29 15 36 1 87 -16 54 -16 57 9 118 14 35 28 74 31 86
10 32 -19 82 -52 89 -15 3 -31 7 -37 8 -5 1 -34 -1 -64 -5z"/>
<path fill="#000000" stroke="none" d="M47 820 c-3 -24 -14 -48 -26 -58 -20
-16 -20 -22 -12 -97 4 -44 9 -63 10 -43 l1 38 63 -6 c174 -17 170 -16 179 -52
7 -26 5 -38 -12 -59 -12 -15 -18 -34 -15 -44 4 -10 -2 -30 -12 -44 -17 -23
-22 -24 -74 -19 l-57 6 5 -26 c4 -20 11 -26 32 -26 14 0 37 -3 51 -5 22 -5 22
-4 5 4 l-20 10 20 0 c11 0 43 -4 70 -8 63 -11 78 -3 99 53 16 41 16 47 1 75
-8 17 -27 38 -40 47 -15 10 -25 26 -25 41 0 23 1 23 22 9 12 -9 42 -16 65 -16
57 0 67 -20 60 -123 -5 -77 -4 -82 26 -129 26 -39 37 -48 57 -46 23 3 25 8 31
63 3 33 2 71 -3 84 -5 13 -7 25 -6 27 4 3 105 -39 113 -48 3 -3 -8 -55 -25
-114 l-32 -109 18 -102 17 -103 95 0 c82 0 93 2 88 16 -3 9 -6 24 -6 34 0 13
-13 23 -42 32 l-43 15 -3 87 c-2 75 1 95 22 141 l24 54 -24 95 c-30 117 -55
155 -148 222 -68 48 -71 51 -68 87 2 20 0 37 -5 37 -4 0 -100 9 -213 20 -276
27 -256 28 -263 -20z"/>
</g>
</svg>
