<?xml version="1.0" standalone="no"?>
<!DOCTYPE svg PUBLIC "-//W3C//DTD SVG 20010904//EN"
 "http://www.w3.org/TR/2001/REC-SVG-20010904/DTD/svg10.dtd">
<svg version="1.0" xmlns="http://www.w3.org/2000/svg"
 width="191.000000pt" height="365.000000pt" viewBox="0 0 191.000000 365.000000"
 preserveAspectRatio="xMidYMid meet">
<metadata>
Created by potrace 1.14, written by Peter Selinger 2001-2017
</metadata>
<g transform="translate(0.000000,365.000000) scale(0.100000,-0.100000)"
fill="#000000" stroke="none">
<path fill="#000000" stroke="none" d="M814 3643 c-18 -2 -50 -20 -72 -39 -36
-31 -45 -34 -80 -28 -50 8 -80 -8 -99 -53 -11 -28 -12 -42 -3 -62 12 -30 57
-61 89 -61 19 0 21 -6 21 -61 0 -68 23 -161 45 -179 19 -16 19 -50 1 -50 -20
0 -173 -48 -213 -67 -73 -34 -117 -271 -93 -497 11 -105 35 -174 76 -217 l24
-25 -20 -120 c-11 -65 -23 -154 -25 -197 -2 -44 -11 -129 -21 -190 -17 -116
-16 -233 2 -245 22 -14 56 -216 61 -357 l5 -140 -51 -57 c-65 -76 -123 -183
-155 -289 -43 -142 -93 -237 -143 -272 -30 -22 -43 -38 -43 -54 0 -15 -23 -51
-60 -94 -33 -38 -60 -78 -60 -88 0 -40 60 -91 134 -112 52 -15 68 -3 106 79
19 42 49 93 66 112 20 22 34 51 38 79 8 53 40 99 144 213 44 47 99 115 123
150 23 34 79 115 124 178 98 137 115 190 115 353 0 58 7 135 14 173 8 38 17
85 21 105 l5 36 50 -10 c41 -8 56 -17 92 -60 81 -96 187 -240 207 -281 67
-139 133 -294 161 -381 46 -139 87 -242 119 -295 15 -25 45 -83 66 -130 31
-68 39 -98 40 -150 4 -127 17 -201 41 -229 21 -25 26 -26 126 -26 l103 0 2 33
c1 19 4 36 7 39 5 6 -79 171 -119 233 -17 25 -29 74 -45 170 -42 257 -70 385
-105 475 -47 120 -92 276 -100 350 -4 33 -28 123 -55 200 -26 77 -55 174 -65
216 l-18 76 26 55 c14 30 33 61 42 68 8 7 15 21 15 31 0 22 -114 140 -158 163
-18 9 -32 23 -32 32 0 8 -13 41 -30 74 -16 33 -30 62 -30 66 0 4 18 -14 41
-40 22 -25 45 -46 50 -46 4 0 16 15 25 33 10 17 34 52 54 77 35 42 38 51 43
128 6 75 4 89 -20 147 -24 58 -30 65 -54 65 -18 0 -34 -9 -46 -25 l-18 -26
-35 37 -35 36 44 36 c102 84 94 73 86 131 -8 62 -50 110 -133 153 -48 26 -52
31 -52 63 0 41 2 42 41 14 33 -23 46 -11 31 31 -9 23 5 100 20 111 8 5 -34 44
-115 104 l-40 30 -2 76 c-3 104 -23 142 -99 190 -63 40 -97 45 -202 32z"/>
</g>
</svg>
