<?xml version="1.0" standalone="no"?>
<!DOCTYPE svg PUBLIC "-//W3C//DTD SVG 20010904//EN"
 "http://www.w3.org/TR/2001/REC-SVG-20010904/DTD/svg10.dtd">
<svg version="1.0" xmlns="http://www.w3.org/2000/svg"
 width="159.000000pt" height="351.000000pt" viewBox="0 0 159.000000 351.000000"
 preserveAspectRatio="xMidYMid meet">
<metadata>
Created by potrace 1.14, written by Peter Selinger 2001-2017
</metadata>
<g transform="translate(0.000000,351.000000) scale(0.100000,-0.100000)"
fill="#000000" stroke="none">
<path fill="#000000" stroke="none" d="M555 3482 c-40 -19 -74 -45 -101 -78
-78 -93 -90 -159 -53 -300 20 -79 33 -110 83 -195 23 -41 26 -53 20 -104 l-7
-57 -103 -48 c-57 -27 -126 -68 -154 -92 -66 -57 -148 -201 -122 -217 5 -3
-17 -76 -55 -175 -35 -93 -60 -173 -56 -176 5 -4 42 -21 83 -39 41 -18 83 -40
94 -49 25 -23 46 -74 46 -115 0 -18 14 -73 30 -122 19 -57 30 -109 30 -146 0
-55 1 -57 40 -83 22 -14 40 -31 40 -37 0 -7 -27 -61 -61 -122 -58 -105 -62
-118 -84 -247 -14 -83 -39 -179 -64 -250 -23 -63 -54 -167 -69 -230 -31 -130
-29 -166 21 -251 14 -24 39 -96 56 -159 17 -63 36 -132 42 -152 6 -25 16 -38
27 -38 9 0 91 11 182 26 l165 26 48 48 c44 45 46 51 36 77 -45 117 -102 287
-109 328 -5 28 -12 60 -16 71 -5 18 4 28 58 60 34 21 79 51 99 67 20 15 43 29
50 30 8 2 20 6 27 10 6 5 12 7 13 5 0 -2 6 -65 12 -140 l12 -137 -32 -6 c-26
-5 -33 -11 -33 -28 0 -57 32 -209 59 -277 28 -73 30 -75 67 -82 22 -3 109 2
194 13 85 10 156 19 157 19 1 0 11 30 23 67 34 112 67 331 101 663 32 314 32
315 19 527 -10 171 -10 218 0 242 10 25 10 34 0 46 -10 12 -8 17 13 26 17 8
37 37 63 92 20 44 37 85 37 91 -1 6 -8 48 -18 94 -12 63 -13 87 -5 97 7 8 9
23 5 34 -4 15 7 29 51 65 30 25 60 46 65 46 5 0 9 20 9 44 0 68 -72 225 -150
324 -17 22 -72 57 -167 107 -78 41 -145 75 -150 75 -7 -1 -40 -41 -164 -201
-14 -19 -19 -20 -60 -8 -24 7 -45 14 -47 15 -2 1 24 57 58 123 33 67 58 126
56 130 -3 5 -19 14 -35 21 -42 17 -67 80 -47 118 16 32 36 159 36 235 0 76
-37 202 -74 251 -36 46 -70 61 -166 70 -58 5 -72 3 -125 -22z"/>
<path fill="#ffffff" stroke="none" d="M722 2163 c13 -11 18 -30 18 -64 0 -42
-4 -50 -31 -70 l-32 -22 -28 31 c-40 44 -37 74 8 111 44 36 41 36 65 14z"/>
</g>
</svg>
