<?xml version="1.0" standalone="no"?>
<!DOCTYPE svg PUBLIC "-//W3C//DTD SVG 20010904//EN"
 "http://www.w3.org/TR/2001/REC-SVG-20010904/DTD/svg10.dtd">
<svg version="1.0" xmlns="http://www.w3.org/2000/svg"
 width="96.000000pt" height="211.000000pt" viewBox="0 0 96.000000 211.000000"
 preserveAspectRatio="xMidYMid meet">
<metadata>
Created by potrace 1.14, written by Peter Selinger 2001-2017
</metadata>
<g transform="translate(0.000000,211.000000) scale(0.100000,-0.100000)"
fill="#000000" stroke="none">
<path fill="#000000" stroke="none" d="M503 2092 c-28 -9 -54 -19 -56 -22 -3
-3 -2 -66 2 -140 7 -131 6 -140 -31 -313 -37 -175 -39 -180 -81 -229 -36 -42
-72 -66 -193 -130 -82 -43 -138 -76 -124 -74 14 3 95 12 180 21 85 9 164 18
175 20 15 3 29 -10 56 -49 l36 -52 -21 -30 c-12 -16 -87 -96 -167 -177 l-147
-148 43 -114 c55 -142 105 -305 105 -336 0 -35 -54 -124 -95 -156 -29 -23 -35
-35 -35 -65 0 -43 -4 -42 135 -58 141 -16 130 -20 143 58 6 37 16 123 22 192
6 69 18 156 27 195 l16 69 59 -204 58 -205 -19 -67 -19 -68 25 -6 c28 -7 229
14 254 27 8 4 23 34 32 67 l16 59 -45 158 -44 159 39 121 c27 82 45 161 56
250 9 72 25 180 37 241 l20 111 -26 129 c-14 71 -37 163 -51 204 l-25 75 -140
100 -139 100 47 50 c26 28 64 68 84 90 l37 40 -13 60 -12 60 -84 2 c-56 1
-103 -4 -137 -15z"/>
</g>
</svg>
