<?xml version="1.0" standalone="no"?>
<!DOCTYPE svg PUBLIC "-//W3C//DTD SVG 20010904//EN"
 "http://www.w3.org/TR/2001/REC-SVG-20010904/DTD/svg10.dtd">
<svg version="1.0" xmlns="http://www.w3.org/2000/svg"
 width="169.000000pt" height="367.000000pt" viewBox="0 0 169.000000 367.000000"
 preserveAspectRatio="xMidYMid meet">
<metadata>
Created by potrace 1.14, written by Peter Selinger 2001-2017
</metadata>
<g transform="translate(0.000000,367.000000) scale(0.100000,-0.100000)"
fill="#000000" stroke="none">
<path fill="#000000" stroke="none" d="M272 3622 l-183 -46 -46 -94 -45 -95 7
-131 c7 -122 11 -141 56 -269 l48 -137 -38 -108 c-38 -107 -38 -107 -34 -232
3 -71 -2 -226 -11 -356 l-17 -231 34 -74 33 -74 -22 -71 -22 -72 49 -70 49
-70 25 -475 c14 -262 25 -494 25 -515 0 -30 5 -41 23 -50 22 -11 22 -11 -4
-11 -23 -1 -36 -17 -98 -120 -39 -66 -71 -122 -71 -125 0 -4 11 -4 25 0 22 5
25 3 25 -20 0 -14 8 -42 18 -62 l17 -37 166 7 c161 7 171 9 325 55 l159 49 39
156 39 157 112 -108 c128 -124 145 -138 161 -138 7 0 37 -27 67 -60 54 -59 55
-60 117 -65 l63 -5 26 -60 26 -60 134 25 c74 14 136 30 138 35 1 6 -8 62 -21
125 l-23 115 -32 3 c-27 3 -31 7 -31 34 0 16 9 41 20 55 16 20 19 34 14 61 -8
43 -110 202 -128 202 -8 0 -19 13 -25 29 -7 16 -35 55 -62 87 -37 44 -46 60
-35 64 11 4 -26 69 -146 254 l-160 250 -74 235 c-41 129 -74 242 -74 251 0 9
16 81 36 161 l36 144 -5 351 -4 352 -55 72 -55 72 19 92 c10 50 16 102 12 116
-3 14 -9 96 -13 183 l-6 159 -85 35 c-112 45 -290 103 -315 102 -11 0 -102
-21 -203 -47z"/>
</g>
</svg>
