<?xml version="1.0" standalone="no"?>
<!DOCTYPE svg PUBLIC "-//W3C//DTD SVG 20010904//EN"
 "http://www.w3.org/TR/2001/REC-SVG-20010904/DTD/svg10.dtd">
<svg version="1.0" xmlns="http://www.w3.org/2000/svg"
 width="61.000000pt" height="130.000000pt" viewBox="0 0 61.000000 130.000000"
 preserveAspectRatio="xMidYMid meet">
<metadata>
Created by potrace 1.14, written by Peter Selinger 2001-2017
</metadata>
<g transform="translate(0.000000,130.000000) scale(0.100000,-0.100000)"
fill="#000000" stroke="none">
<path fill="#000000" stroke="none" d="M263 1280 c-34 -21 -40 -38 -23 -70 9
-17 4 -24 -29 -48 -22 -16 -54 -35 -71 -42 -38 -16 -95 -108 -119 -193 -16
-57 -16 -70 -3 -137 8 -41 15 -106 17 -144 2 -59 6 -72 26 -87 13 -10 27 -19
31 -19 18 0 19 77 3 158 -17 83 -17 89 0 127 l18 40 8 -40 c4 -22 7 -105 6
-185 -1 -121 3 -156 20 -215 13 -41 26 -127 33 -205 17 -215 16 -210 56 -210
19 0 46 7 59 16 25 16 25 19 25 150 0 73 4 135 8 138 5 3 19 -52 31 -122 12
-70 25 -139 27 -154 7 -37 50 -47 78 -18 19 19 22 36 28 198 3 97 10 195 15
217 6 26 4 66 -4 115 -10 55 -43 339 -43 368 0 2 24 0 53 -3 51 -7 54 -5 72
21 25 38 27 146 4 170 -16 15 -18 14 -30 -20 -7 -20 -16 -36 -20 -36 -11 0
-89 60 -89 69 0 5 -16 15 -36 21 -32 11 -35 15 -34 49 4 83 3 87 -39 99 -48
15 -40 16 -78 -8z"/>
</g>
</svg>
