<?xml version="1.0" standalone="no"?>
<!DOCTYPE svg PUBLIC "-//W3C//DTD SVG 20010904//EN"
 "http://www.w3.org/TR/2001/REC-SVG-20010904/DTD/svg10.dtd">
<svg version="1.0" xmlns="http://www.w3.org/2000/svg"
 width="43.000000pt" height="84.000000pt" viewBox="0 0 43.000000 84.000000"
 preserveAspectRatio="xMidYMid meet">
<metadata>
Created by potrace 1.14, written by Peter Selinger 2001-2017
</metadata>
<g transform="translate(0.000000,84.000000) scale(0.100000,-0.100000)"
fill="#000000" stroke="none">
<path fill="#000000" stroke="none" d="M61 796 l-44 -44 13 -82 c12 -78 12
-83 -9 -110 -21 -29 -21 -30 -5 -167 8 -76 20 -155 25 -175 7 -26 6 -44 -1
-57 -11 -22 -13 -68 -4 -123 l7 -38 138 0 139 0 5 28 c3 15 14 65 25 112 11
47 20 95 20 107 0 12 4 23 8 25 4 2 18 20 30 40 25 40 24 54 -16 176 -18 58
-36 71 -114 86 -43 8 -42 4 -28 77 8 38 7 74 -1 122 l-11 67 -67 0 c-66 0 -67
-1 -110 -44z"/>
</g>
</svg>
