<?xml version="1.0" standalone="no"?>
<!DOCTYPE svg PUBLIC "-//W3C//DTD SVG 20010904//EN"
 "http://www.w3.org/TR/2001/REC-SVG-20010904/DTD/svg10.dtd">
<svg version="1.0" xmlns="http://www.w3.org/2000/svg"
 width="30.000000pt" height="55.000000pt" viewBox="0 0 30.000000 55.000000"
 preserveAspectRatio="xMidYMid meet">
<metadata>
Created by potrace 1.14, written by Peter Selinger 2001-2017
</metadata>
<g transform="translate(0.000000,55.000000) scale(0.100000,-0.100000)"
fill="#000000" stroke="none">
<path fill="#000000" stroke="none" d="M20 530 c-24 -24 -24 -24 -4 -83 14
-43 14 -48 0 -63 -9 -8 -16 -18 -16 -21 0 -4 23 -80 52 -170 42 -134 55 -163
70 -163 11 0 32 -7 48 -15 l29 -15 51 87 c38 64 49 92 42 103 -5 8 -15 39 -21
67 -16 64 -44 103 -76 103 -26 0 -30 9 -41 83 -12 87 -86 135 -134 87z"/>
</g>
</svg>
