<?xml version="1.0" standalone="no"?>
<!DOCTYPE svg PUBLIC "-//W3C//DTD SVG 20010904//EN"
 "http://www.w3.org/TR/2001/REC-SVG-20010904/DTD/svg10.dtd">
<svg version="1.0" xmlns="http://www.w3.org/2000/svg"
 width="142.000000pt" height="266.000000pt" viewBox="0 0 142.000000 266.000000"
 preserveAspectRatio="xMidYMid meet">
<metadata>
Created by potrace 1.14, written by Peter Selinger 2001-2017
</metadata>
<g transform="translate(0.000000,266.000000) scale(0.100000,-0.100000)"
fill="#000000" stroke="none">
<path fill="#000000" stroke="none" d="M359 2628 c-56 -25 -68 -36 -93 -79
l-28 -50 17 -67 c13 -54 22 -72 46 -87 16 -11 29 -23 29 -26 0 -15 -35 -19
-68 -8 -57 19 -94 6 -148 -51 -98 -104 -101 -111 -109 -280 -4 -83 -5 -153 -2
-156 3 -3 19 2 35 11 27 17 30 25 57 169 16 83 31 159 35 169 3 11 14 -68 24
-175 10 -106 31 -260 48 -343 16 -82 32 -181 34 -220 3 -38 6 -87 8 -107 4
-34 1 -37 -25 -43 -16 -4 -32 -12 -36 -19 -5 -7 -28 -18 -53 -25 l-45 -12 7
-120 c7 -116 8 -122 38 -156 42 -47 50 -72 50 -149 0 -43 25 -179 75 -409 41
-189 79 -355 85 -369 9 -25 10 -25 50 -11 22 8 59 27 83 43 23 16 59 35 80 42
34 11 77 57 77 83 0 4 -20 7 -43 7 l-44 0 -26 63 c-51 121 -75 234 -91 431 -9
104 -15 190 -14 191 2 1 51 0 109 -3 l107 -4 25 -67 c14 -36 30 -97 36 -136
11 -73 58 -517 63 -595 l3 -45 73 -3 c67 -3 72 -2 72 18 0 19 5 21 58 19 51
-2 66 2 136 41 72 39 77 44 60 57 -10 7 -35 13 -56 13 -21 0 -54 6 -72 14 -32
13 -33 16 -40 87 -3 40 -22 186 -41 325 -19 139 -35 265 -35 281 0 25 6 31 51
48 28 11 55 28 60 38 15 27 -57 239 -130 385 -32 63 -125 452 -108 452 3 0 18
-21 33 -47 15 -27 64 -94 108 -151 58 -75 95 -111 131 -132 81 -46 202 -90
248 -90 53 0 102 29 111 66 6 23 2 33 -26 60 -37 36 -163 86 -215 85 -29 -1
-33 3 -42 37 -6 20 -11 40 -11 45 0 4 -13 25 -29 48 -16 22 -33 54 -37 72 -3
17 -17 48 -29 67 -13 20 -42 74 -65 120 -36 71 -42 93 -41 140 1 49 -2 59 -26
82 -16 14 -53 35 -83 46 -30 11 -83 33 -118 49 -59 27 -61 30 -45 46 14 14 17
31 15 80 -5 96 -17 128 -69 179 -45 43 -52 46 -108 50 -51 3 -72 -1 -126 -24z"/>
</g>
</svg>
