<?xml version="1.0" standalone="no"?>
<!DOCTYPE svg PUBLIC "-//W3C//DTD SVG 20010904//EN"
 "http://www.w3.org/TR/2001/REC-SVG-20010904/DTD/svg10.dtd">
<svg version="1.0" xmlns="http://www.w3.org/2000/svg"
 width="30.000000pt" height="57.000000pt" viewBox="0 0 30.000000 57.000000"
 preserveAspectRatio="xMidYMid meet">
<metadata>
Created by potrace 1.14, written by Peter Selinger 2001-2017
</metadata>
<g transform="translate(0.000000,57.000000) scale(0.100000,-0.100000)"
fill="#000000" stroke="none">
<path fill="#000000" stroke="none" d="M120 551 l-95 -16 -8 -75 c-4 -41 -10
-148 -13 -238 l-6 -162 46 0 c32 0 46 -4 46 -14 0 -23 25 -36 78 -43 l50 -6
22 42 c11 23 24 66 26 94 3 29 13 74 21 101 18 57 13 129 -16 221 -11 33 -22
72 -25 88 -4 15 -12 26 -19 26 -6 -1 -55 -9 -107 -18z"/>
</g>
</svg>
