<?xml version="1.0" standalone="no"?>
<!DOCTYPE svg PUBLIC "-//W3C//DTD SVG 20010904//EN"
 "http://www.w3.org/TR/2001/REC-SVG-20010904/DTD/svg10.dtd">
<svg version="1.0" xmlns="http://www.w3.org/2000/svg"
 width="32.000000pt" height="69.000000pt" viewBox="0 0 32.000000 69.000000"
 preserveAspectRatio="xMidYMid meet">
<metadata>
Created by potrace 1.14, written by Peter Selinger 2001-2017
</metadata>
<g transform="translate(0.000000,69.000000) scale(0.100000,-0.100000)"
fill="#000000" stroke="none">
<path fill="#000000" stroke="none" d="M110 651 c0 -33 -5 -43 -28 -56 -18
-11 -36 -38 -54 -81 l-27 -64 26 -46 26 -47 -12 -136 c-6 -75 -14 -150 -17
-167 -5 -29 -4 -31 47 -42 28 -7 54 -10 58 -7 3 3 7 35 9 70 2 36 8 65 12 65
4 0 15 -29 25 -65 l17 -65 64 0 c74 0 78 8 40 68 -30 47 -44 204 -20 236 9 13
14 46 14 99 0 75 -2 82 -35 128 -21 29 -38 67 -42 96 l-8 48 -48 3 -47 3 0
-40z"/>
</g>
</svg>
