<?xml version="1.0" standalone="no"?>
<!DOCTYPE svg PUBLIC "-//W3C//DTD SVG 20010904//EN"
 "http://www.w3.org/TR/2001/REC-SVG-20010904/DTD/svg10.dtd">
<svg version="1.0" xmlns="http://www.w3.org/2000/svg"
 width="298.000000pt" height="637.000000pt" viewBox="0 0 298.000000 637.000000"
 preserveAspectRatio="xMidYMid meet">
<metadata>
Created by potrace 1.14, written by Peter Selinger 2001-2017
</metadata>
<g transform="translate(0.000000,637.000000) scale(0.100000,-0.100000)"
fill="#000000" stroke="none">
<path fill="#000000" stroke="none" d="M2083 6358 c-6 -7 -36 -59 -67 -115
-40 -73 -71 -115 -106 -144 -53 -45 -48 -30 -105 -287 -14 -62 -24 -82 -66
-129 l-49 -56 0 -131 c0 -123 4 -148 63 -418 l63 -287 -57 -186 c-31 -103 -59
-188 -61 -189 -1 -2 -138 -47 -303 -100 -221 -72 -357 -123 -516 -194 l-215
-97 -93 -180 -92 -180 -108 -575 -108 -575 -67 -110 c-55 -92 -77 -144 -131
-305 -62 -184 -65 -199 -65 -289 l0 -94 98 -116 c141 -167 138 -162 152 -276
l13 -100 87 -110 88 -110 208 -33 c115 -18 267 -43 337 -56 l128 -23 106 118
c58 66 107 119 110 119 2 0 33 -60 68 -134 l63 -134 -29 -423 c-16 -232 -28
-423 -27 -424 2 -1 350 -5 774 -9 l772 -6 6 682 c3 376 8 1342 11 2148 3 806
8 1932 11 2503 l7 1037 -445 0 c-345 0 -448 -3 -455 -12z"/>
<path fill="#ffffff" stroke="none" d="M2675 5590 c39 -78 43 -93 34 -114 -17
-38 -82 -76 -127 -76 -34 0 -41 4 -59 38 -31 54 -55 152 -38 152 7 0 28 20 46
45 28 36 40 44 66 45 31 0 35 -4 78 -90z"/>
</g>
</svg>
