<?xml version="1.0" standalone="no"?>
<!DOCTYPE svg PUBLIC "-//W3C//DTD SVG 20010904//EN"
 "http://www.w3.org/TR/2001/REC-SVG-20010904/DTD/svg10.dtd">
<svg version="1.0" xmlns="http://www.w3.org/2000/svg"
 width="160.000000pt" height="315.000000pt" viewBox="0 0 160.000000 315.000000"
 preserveAspectRatio="xMidYMid meet">
<metadata>
Created by potrace 1.14, written by Peter Selinger 2001-2017
</metadata>
<g transform="translate(0.000000,315.000000) scale(0.100000,-0.100000)"
fill="#000000" stroke="none">
<path fill="#000000" stroke="none" d="M810 3137 c-102 -5 -186 -10 -186 -11
-1 0 -12 -109 -24 -240 l-23 -240 -115 -189 c-156 -256 -244 -462 -368 -867
l-94 -305 93 -152 c50 -84 99 -162 107 -173 12 -16 39 -24 128 -37 64 -10 112
-21 112 -28 0 -6 -9 -60 -20 -120 -22 -122 -101 -768 -94 -774 6 -6 1214 16
1221 23 3 3 1 32 -5 64 -9 53 -7 76 22 208 l32 149 -204 3 -203 2 -207 147
c-114 80 -209 148 -211 150 -3 2 -20 126 -38 275 l-33 271 71 271 c71 268 73
273 182 504 l111 233 162 159 162 159 -46 156 -47 156 -120 109 c-100 91 -125
109 -150 108 -16 -1 -113 -6 -215 -11z"/>
</g>
</svg>
