<?xml version="1.0" standalone="no"?>
<!DOCTYPE svg PUBLIC "-//W3C//DTD SVG 20010904//EN"
 "http://www.w3.org/TR/2001/REC-SVG-20010904/DTD/svg10.dtd">
<svg version="1.0" xmlns="http://www.w3.org/2000/svg"
 width="67.000000pt" height="124.000000pt" viewBox="0 0 67.000000 124.000000"
 preserveAspectRatio="xMidYMid meet">
<metadata>
Created by potrace 1.14, written by Peter Selinger 2001-2017
</metadata>
<g transform="translate(0.000000,124.000000) scale(0.100000,-0.100000)"
fill="#000000" stroke="none">
<path fill="#000000" stroke="none" d="M256 1204 l-70 -34 -38 -91 c-26 -63
-38 -106 -38 -140 0 -52 -15 -70 -73 -84 -15 -4 -30 -11 -32 -16 -8 -13 63
-56 120 -72 28 -8 75 -22 106 -31 90 -26 101 -45 214 -368 33 -92 60 -166 62
-164 2 1 7 92 13 202 l10 199 72 67 73 68 -45 46 c-26 26 -78 63 -122 85 -43
22 -78 43 -78 48 0 5 7 14 15 21 8 7 12 16 9 21 -3 5 2 36 12 68 15 57 15 63
-1 109 -16 44 -24 52 -72 76 -29 14 -57 26 -61 25 -4 0 -38 -16 -76 -35z"/>
<path fill="#000000" stroke="none" d="M278 278 c-9 -8 -18 -36 -22 -68 -5
-47 -2 -66 26 -133 17 -42 35 -74 39 -70 4 5 17 43 28 85 l22 77 -39 61 c-33
52 -40 58 -54 48z"/>
</g>
</svg>
