<?xml version="1.0" standalone="no"?>
<!DOCTYPE svg PUBLIC "-//W3C//DTD SVG 20010904//EN"
 "http://www.w3.org/TR/2001/REC-SVG-20010904/DTD/svg10.dtd">
<svg version="1.0" xmlns="http://www.w3.org/2000/svg"
 width="19.000000pt" height="36.000000pt" viewBox="0 0 19.000000 36.000000"
 preserveAspectRatio="xMidYMid meet">
<metadata>
Created by potrace 1.14, written by Peter Selinger 2001-2017
</metadata>
<g transform="translate(0.000000,36.000000) scale(0.100000,-0.100000)"
fill="#000000" stroke="none">
<path fill="#000000" stroke="none" d="M71 336 c-20 -22 -23 -31 -16 -72 3
-25 9 -52 11 -58 3 -7 -6 -17 -19 -23 -17 -8 -28 -25 -36 -58 -10 -42 -9 -50
10 -85 17 -30 26 -37 37 -31 9 5 42 6 74 3 l59 -5 -5 64 c-3 35 -8 107 -12
160 l-6 96 -34 17 c-43 20 -36 21 -63 -8z"/>
</g>
</svg>
