<?xml version="1.0" standalone="no"?>
<!DOCTYPE svg PUBLIC "-//W3C//DTD SVG 20010904//EN"
 "http://www.w3.org/TR/2001/REC-SVG-20010904/DTD/svg10.dtd">
<svg version="1.0" xmlns="http://www.w3.org/2000/svg"
 width="12.000000pt" height="26.000000pt" viewBox="0 0 12.000000 26.000000"
 preserveAspectRatio="xMidYMid meet">
<metadata>
Created by potrace 1.14, written by Peter Selinger 2001-2017
</metadata>
<g transform="translate(0.000000,26.000000) scale(0.100000,-0.100000)"
fill="#000000" stroke="none">
<path fill="#000000" stroke="none" d="M32 217 c-7 -25 -16 -49 -22 -52 -17
-11 -11 -25 15 -35 23 -9 25 -15 25 -70 0 -47 3 -60 15 -60 12 0 15 13 15 61
0 52 3 62 20 66 27 7 25 24 -5 57 -14 15 -25 30 -25 35 0 4 -6 15 -13 26 -13
16 -15 14 -25 -28z"/>
</g>
</svg>
