<?xml version="1.0" standalone="no"?>
<!DOCTYPE svg PUBLIC "-//W3C//DTD SVG 20010904//EN"
 "http://www.w3.org/TR/2001/REC-SVG-20010904/DTD/svg10.dtd">
<svg version="1.0" xmlns="http://www.w3.org/2000/svg"
 width="221.000000pt" height="479.000000pt" viewBox="0 0 221.000000 479.000000"
 preserveAspectRatio="xMidYMid meet">
<metadata>
Created by potrace 1.14, written by Peter Selinger 2001-2017
</metadata>
<g transform="translate(0.000000,479.000000) scale(0.100000,-0.100000)"
fill="#000000" stroke="none">
<path fill="#000000" stroke="none" d="M879 4745 c-83 -42 -84 -43 -117 -111
-86 -184 -121 -300 -196 -666 -68 -330 -77 -361 -110 -415 l-36 -58 135 -384
135 -384 0 -109 0 -110 75 -135 c42 -74 100 -174 131 -223 l54 -89 -44 -73
-43 -73 -7 -157 -6 -158 -49 -111 c-26 -61 -50 -111 -53 -112 -2 -1 -110 70
-239 158 -212 144 -238 159 -273 157 -22 -1 -41 -3 -42 -5 -2 -2 -28 -199 -59
-437 -30 -239 -72 -568 -93 -731 l-38 -297 21 -78 c19 -71 25 -81 66 -111 24
-18 51 -33 60 -33 31 0 58 35 78 103 12 38 38 106 59 150 47 99 84 133 229
206 56 28 106 59 111 68 5 10 17 61 27 114 l17 96 50 24 c54 25 72 50 82 118
4 24 19 87 35 140 16 53 31 120 35 148 4 29 22 88 40 130 l33 78 -34 51 c-43
64 -51 110 -24 144 l19 24 23 -39 23 -39 22 70 c12 39 40 102 63 141 22 38 41
74 41 80 0 5 22 35 49 66 27 31 51 60 52 64 4 10 163 79 194 85 11 2 44 38 75
82 l55 79 84 29 c47 15 86 27 87 25 1 -1 25 -61 53 -133 46 -118 57 -137 104
-181 99 -94 76 -121 231 270 l136 343 6 204 c6 190 5 211 -15 290 -49 188 -63
222 -131 319 -36 52 -72 98 -80 102 -8 4 -40 19 -70 33 -88 39 -87 37 -51 89
17 25 31 49 31 54 0 5 -18 32 -39 61 -22 29 -46 68 -53 88 -10 28 -29 45 -95
86 l-83 51 0 80 c0 63 -4 87 -21 113 -16 26 -20 48 -18 101 2 57 -4 83 -35
163 -94 245 -110 259 -412 360 l-170 57 -85 -42z"/>
</g>
</svg>
