<?xml version="1.0" standalone="no"?>
<!DOCTYPE svg PUBLIC "-//W3C//DTD SVG 20010904//EN"
 "http://www.w3.org/TR/2001/REC-SVG-20010904/DTD/svg10.dtd">
<svg version="1.0" xmlns="http://www.w3.org/2000/svg"
 width="27.000000pt" height="55.000000pt" viewBox="0 0 27.000000 55.000000"
 preserveAspectRatio="xMidYMid meet">
<metadata>
Created by potrace 1.14, written by Peter Selinger 2001-2017
</metadata>
<g transform="translate(0.000000,55.000000) scale(0.100000,-0.100000)"
fill="#000000" stroke="none">
<path fill="#000000" stroke="none" d="M40 510 c19 -37 19 -42 5 -64 -15 -23
-15 -25 3 -35 19 -10 19 -13 4 -73 -8 -35 -24 -75 -35 -90 -20 -27 -20 -27 3
-88 17 -47 21 -72 17 -111 l-6 -51 47 6 c26 3 61 5 77 4 106 -5 110 -4 113 22
2 18 -9 41 -32 70 -39 49 -45 83 -20 118 25 36 9 126 -32 180 -18 23 -35 60
-39 81 -6 35 -10 39 -59 54 -29 10 -56 17 -60 17 -3 0 3 -18 14 -40z"/>
</g>
</svg>
