<?xml version="1.0" standalone="no"?>
<!DOCTYPE svg PUBLIC "-//W3C//DTD SVG 20010904//EN"
 "http://www.w3.org/TR/2001/REC-SVG-20010904/DTD/svg10.dtd">
<svg version="1.0" xmlns="http://www.w3.org/2000/svg"
 width="20.000000pt" height="39.000000pt" viewBox="0 0 20.000000 39.000000"
 preserveAspectRatio="xMidYMid meet">
<metadata>
Created by potrace 1.14, written by Peter Selinger 2001-2017
</metadata>
<g transform="translate(0.000000,39.000000) scale(0.100000,-0.100000)"
fill="#000000" stroke="none">
<path fill="#000000" stroke="none" d="M64 363 c-4 -15 -20 -48 -37 -74 -30
-48 -31 -79 -2 -79 8 0 16 8 17 18 1 17 18 -146 20 -201 1 -25 4 -28 32 -25
30 3 31 5 34 53 2 28 7 54 13 60 5 5 9 32 10 60 0 27 3 44 6 38 2 -7 14 -13
25 -13 25 0 18 26 -23 89 -16 25 -29 54 -29 67 0 41 -56 47 -66 7z"/>
</g>
</svg>
