<?xml version="1.0" standalone="no"?>
<!DOCTYPE svg PUBLIC "-//W3C//DTD SVG 20010904//EN"
 "http://www.w3.org/TR/2001/REC-SVG-20010904/DTD/svg10.dtd">
<svg version="1.0" xmlns="http://www.w3.org/2000/svg"
 width="13.000000pt" height="26.000000pt" viewBox="0 0 13.000000 26.000000"
 preserveAspectRatio="xMidYMid meet">
<metadata>
Created by potrace 1.14, written by Peter Selinger 2001-2017
</metadata>
<g transform="translate(0.000000,26.000000) scale(0.100000,-0.100000)"
fill="#000000" stroke="none">
<path fill="#000000" stroke="none" d="M47 253 c-4 -3 -7 -14 -7 -22 0 -9 -9
-32 -19 -52 -18 -34 -18 -36 -2 -46 17 -11 46 -89 39 -108 -3 -10 4 -15 21
-15 9 0 20 26 41 97 10 34 10 48 0 72 -7 17 -19 31 -27 31 -10 0 -14 7 -10 19
3 12 -1 22 -10 25 -18 7 -18 7 -26 -1z"/>
</g>
</svg>
