<?xml version="1.0" standalone="no"?>
<!DOCTYPE svg PUBLIC "-//W3C//DTD SVG 20010904//EN"
 "http://www.w3.org/TR/2001/REC-SVG-20010904/DTD/svg10.dtd">
<svg version="1.0" xmlns="http://www.w3.org/2000/svg"
 width="71.000000pt" height="143.000000pt" viewBox="0 0 71.000000 143.000000"
 preserveAspectRatio="xMidYMid meet">
<metadata>
Created by potrace 1.14, written by Peter Selinger 2001-2017
</metadata>
<g transform="translate(0.000000,143.000000) scale(0.100000,-0.100000)"
fill="#000000" stroke="none">
<path fill="#000000" stroke="none" d="M145 1397 l-60 -32 -1 -76 c-1 -62 -6
-85 -27 -120 -14 -24 -31 -73 -37 -109 -6 -36 -13 -77 -16 -92 -4 -20 -1 -28
15 -33 20 -6 21 -14 22 -193 0 -103 4 -212 9 -242 6 -38 2 -110 -11 -234 l-19
-179 29 -45 29 -45 19 39 c11 21 32 82 48 136 l28 96 68 18 67 17 12 61 11 61
77 -75 c43 -41 95 -97 116 -123 35 -43 134 -107 164 -107 5 0 12 32 15 71 l6
72 -69 76 c-38 42 -86 100 -106 129 l-37 52 -1 138 c0 75 4 167 8 205 8 64 7
74 -34 197 -24 72 -47 130 -52 130 -4 0 -20 -19 -35 -41 l-27 -42 -12 28 c-7
19 -8 38 0 65 8 31 6 51 -8 97 -10 32 -26 66 -35 77 -13 15 -83 57 -93 56 -2
0 -30 -15 -63 -33z"/>
</g>
</svg>
