<?xml version="1.0" standalone="no"?>
<!DOCTYPE svg PUBLIC "-//W3C//DTD SVG 20010904//EN"
 "http://www.w3.org/TR/2001/REC-SVG-20010904/DTD/svg10.dtd">
<svg version="1.0" xmlns="http://www.w3.org/2000/svg"
 width="16.000000pt" height="31.000000pt" viewBox="0 0 16.000000 31.000000"
 preserveAspectRatio="xMidYMid meet">
<metadata>
Created by potrace 1.14, written by Peter Selinger 2001-2017
</metadata>
<g transform="translate(0.000000,31.000000) scale(0.100000,-0.100000)"
fill="#000000" stroke="none">
<path fill="#000000" stroke="none" d="M54 285 c-14 -22 -15 -30 -5 -49 11
-20 10 -26 -11 -48 -15 -14 -28 -42 -32 -67 -6 -36 -3 -48 14 -66 11 -12 20
-29 20 -39 0 -14 5 -17 23 -12 12 3 28 6 35 6 9 0 10 4 1 18 -18 29 -3 92 22
92 23 0 40 36 29 65 -4 11 -4 29 1 40 14 37 9 53 -23 69 -43 22 -55 20 -74 -9z"/>
</g>
</svg>
