<?xml version="1.0" standalone="no"?>
<!DOCTYPE svg PUBLIC "-//W3C//DTD SVG 20010904//EN"
 "http://www.w3.org/TR/2001/REC-SVG-20010904/DTD/svg10.dtd">
<svg version="1.0" xmlns="http://www.w3.org/2000/svg"
 width="54.000000pt" height="105.000000pt" viewBox="0 0 54.000000 105.000000"
 preserveAspectRatio="xMidYMid meet">
<metadata>
Created by potrace 1.14, written by Peter Selinger 2001-2017
</metadata>
<g transform="translate(0.000000,105.000000) scale(0.100000,-0.100000)"
fill="#000000" stroke="none">
<path fill="#000000" stroke="none" d="M287 1040 c-21 -4 -60 -17 -86 -30
l-48 -22 -6 -145 -6 -146 -61 -78 c-58 -76 -80 -115 -80 -145 0 -10 12 -14 44
-14 54 0 74 -20 130 -137 37 -77 42 -82 80 -92 39 -10 43 -15 88 -103 25 -51
49 -101 52 -111 4 -14 17 -17 70 -17 l65 0 -4 63 c-3 34 -7 168 -10 298 -4
196 -2 239 10 255 10 14 14 48 15 119 0 109 -15 181 -51 246 -22 38 -30 44
-79 55 -61 15 -69 15 -123 4z"/>
</g>
</svg>
