<?xml version="1.0" standalone="no"?>
<!DOCTYPE svg PUBLIC "-//W3C//DTD SVG 20010904//EN"
 "http://www.w3.org/TR/2001/REC-SVG-20010904/DTD/svg10.dtd">
<svg version="1.0" xmlns="http://www.w3.org/2000/svg"
 width="46.000000pt" height="88.000000pt" viewBox="0 0 46.000000 88.000000"
 preserveAspectRatio="xMidYMid meet">
<metadata>
Created by potrace 1.14, written by Peter Selinger 2001-2017
</metadata>
<g transform="translate(0.000000,88.000000) scale(0.100000,-0.100000)"
fill="#000000" stroke="none">
<path fill="#000000" stroke="none" d="M304 865 c-55 -23 -79 -79 -54 -125 7
-14 6 -23 -6 -35 -25 -24 -92 -56 -168 -79 -88 -27 -104 -53 -25 -41 30 4 82
10 117 14 59 6 62 6 62 -16 0 -19 -6 -22 -52 -25 -41 -2 -54 -7 -56 -20 -3
-15 4 -18 48 -18 30 0 49 -4 45 -10 -6 -10 24 -45 46 -52 8 -3 15 -33 20 -90
5 -54 20 -120 39 -176 30 -85 31 -91 15 -115 -10 -16 -22 -23 -35 -20 -24 6
-49 -35 -29 -48 13 -8 70 -5 128 7 22 5 23 8 18 57 -4 29 -16 87 -27 131 -25
94 -20 126 26 180 32 37 34 45 34 110 0 39 3 87 6 106 5 31 0 42 -34 85 -39
49 -39 50 -24 82 19 40 6 75 -35 97 -24 12 -33 12 -59 1z"/>
</g>
</svg>
