<?xml version="1.0" standalone="no"?>
<!DOCTYPE svg PUBLIC "-//W3C//DTD SVG 20010904//EN"
 "http://www.w3.org/TR/2001/REC-SVG-20010904/DTD/svg10.dtd">
<svg version="1.0" xmlns="http://www.w3.org/2000/svg"
 width="30.000000pt" height="59.000000pt" viewBox="0 0 30.000000 59.000000"
 preserveAspectRatio="xMidYMid meet">
<metadata>
Created by potrace 1.14, written by Peter Selinger 2001-2017
</metadata>
<g transform="translate(0.000000,59.000000) scale(0.100000,-0.100000)"
fill="#000000" stroke="none">
<path fill="#000000" stroke="none" d="M2 333 c1 -211 4 -261 16 -275 8 -10
21 -18 28 -18 7 0 30 -10 51 -21 52 -29 158 -23 185 11 22 28 23 49 2 79 -15
20 -23 23 -67 18 -55 -5 -107 14 -107 40 0 9 -7 24 -16 34 -12 13 -16 40 -18
101 0 46 -4 88 -8 93 -4 6 -3 17 3 25 5 8 9 43 9 77 0 53 -3 64 -22 77 -12 9
-31 16 -40 16 -17 0 -18 -16 -16 -257z"/>
</g>
</svg>
