<?xml version="1.0" standalone="no"?>
<!DOCTYPE svg PUBLIC "-//W3C//DTD SVG 20010904//EN"
 "http://www.w3.org/TR/2001/REC-SVG-20010904/DTD/svg10.dtd">
<svg version="1.0" xmlns="http://www.w3.org/2000/svg"
 width="27.000000pt" height="60.000000pt" viewBox="0 0 27.000000 60.000000"
 preserveAspectRatio="xMidYMid meet">
<metadata>
Created by potrace 1.14, written by Peter Selinger 2001-2017
</metadata>
<g transform="translate(0.000000,60.000000) scale(0.100000,-0.100000)"
fill="#000000" stroke="none">
<path fill="#000000" stroke="none" d="M94 588 c-43 -20 -45 -47 -7 -120 19
-36 33 -77 31 -90 -3 -21 -7 -23 -54 -20 -55 4 -69 -5 -59 -37 4 -13 19 -21
51 -26 l46 -7 -7 -66 c-3 -37 -7 -89 -8 -116 -2 -46 0 -51 31 -69 18 -11 48
-23 67 -27 61 -14 67 2 78 224 l10 194 -31 49 c-18 28 -32 54 -32 60 0 6 -9
22 -21 37 -22 28 -57 33 -95 14z"/>
</g>
</svg>
