<?xml version="1.0" standalone="no"?>
<!DOCTYPE svg PUBLIC "-//W3C//DTD SVG 20010904//EN"
 "http://www.w3.org/TR/2001/REC-SVG-20010904/DTD/svg10.dtd">
<svg version="1.0" xmlns="http://www.w3.org/2000/svg"
 width="13.000000pt" height="25.000000pt" viewBox="0 0 13.000000 25.000000"
 preserveAspectRatio="xMidYMid meet">
<metadata>
Created by potrace 1.14, written by Peter Selinger 2001-2017
</metadata>
<g transform="translate(0.000000,25.000000) scale(0.100000,-0.100000)"
fill="#000000" stroke="none">
<path fill="#000000" stroke="none" d="M57 215 c-30 -38 -60 -112 -51 -126 3
-5 12 -9 20 -9 18 0 18 -10 -2 -38 -23 -33 5 -29 33 6 l22 27 1 -31 c0 -19 6
-34 15 -38 12 -4 14 0 9 18 -3 15 1 29 11 40 13 12 15 26 10 59 -8 60 -26 127
-34 127 -3 0 -19 -16 -34 -35z"/>
</g>
</svg>
