<?xml version="1.0" standalone="no"?>
<!DOCTYPE svg PUBLIC "-//W3C//DTD SVG 20010904//EN"
 "http://www.w3.org/TR/2001/REC-SVG-20010904/DTD/svg10.dtd">
<svg version="1.0" xmlns="http://www.w3.org/2000/svg"
 width="241.000000pt" height="511.000000pt" viewBox="0 0 241.000000 511.000000"
 preserveAspectRatio="xMidYMid meet">
<metadata>
Created by potrace 1.14, written by Peter Selinger 2001-2017
</metadata>
<g transform="translate(0.000000,511.000000) scale(0.100000,-0.100000)"
fill="#000000" stroke="none">
<path fill="#000000" stroke="none" d="M1272 5083 c-57 -23 -69 -33 -113 -96
-27 -39 -49 -76 -49 -84 0 -8 -7 -46 -16 -84 l-16 -71 -68 -44 c-53 -34 -79
-60 -117 -116 -26 -39 -55 -73 -64 -74 -43 -5 -226 -80 -264 -107 -38 -28 -49
-46 -87 -138 -41 -101 -46 -109 -113 -165 -38 -32 -90 -79 -116 -104 l-48 -45
52 -171 51 -170 69 -55 c38 -30 78 -61 89 -70 20 -15 19 -18 -72 -215 -119
-256 -120 -259 -77 -332 l34 -58 -57 -41 c-31 -23 -68 -46 -81 -52 -14 -5 -66
-35 -116 -67 l-91 -59 18 -36 c10 -19 82 -90 163 -162 l144 -127 9 -110 c9
-108 8 -115 -39 -358 -26 -136 -69 -397 -96 -580 l-48 -333 38 -20 c46 -23 46
-25 53 -291 3 -129 1 -188 -6 -188 -7 0 -8 -13 -5 -35 5 -29 -6 -60 -58 -174
l-63 -139 57 -54 56 -54 91 10 91 11 92 107 92 107 -7 63 c-4 34 -15 89 -25
122 l-18 60 23 30 c30 41 53 207 37 276 -6 25 -11 48 -11 52 0 3 24 16 54 29
51 20 54 24 45 46 -19 52 -11 80 35 118 l43 37 7 96 c5 66 11 99 21 106 13 9
13 27 3 122 l-11 111 55 78 c51 69 60 91 95 216 21 76 42 139 46 139 5 0 22
-9 38 -21 26 -19 29 -25 28 -77 0 -31 -4 -83 -8 -116 -4 -34 -2 -100 5 -160
20 -157 17 -283 -11 -446 -30 -176 -30 -181 -5 -187 11 -3 20 -8 20 -12 0 -3
4 -32 10 -64 6 -38 6 -97 -1 -168 -9 -94 -8 -117 6 -159 16 -47 15 -50 -6 -92
-12 -24 -27 -61 -32 -83 -11 -43 -13 -172 -3 -208 3 -12 33 -42 67 -66 l61
-44 104 6 c58 3 107 7 109 8 2 2 8 63 15 135 11 116 10 134 -4 162 -9 17 -16
37 -16 44 0 7 25 107 57 222 57 204 58 209 90 224 37 17 37 21 22 76 -8 29 -7
60 5 131 9 51 14 100 11 107 -6 16 -4 25 75 383 45 204 56 243 77 263 21 19
27 40 39 120 7 53 14 149 14 213 l0 116 113 50 112 49 6 55 c3 30 19 86 36
126 l31 71 -23 94 c-23 90 -24 96 -10 183 12 71 19 93 37 107 22 16 23 16 30
-10 4 -15 15 -112 24 -217 12 -132 22 -195 32 -207 13 -15 12 -21 -5 -50 -15
-25 -18 -44 -13 -80 3 -27 -1 -82 -10 -132 -18 -96 -12 -130 19 -102 10 9 28
39 41 66 13 28 28 50 33 50 6 0 8 -35 5 -87 -3 -49 -1 -100 4 -114 9 -27 10
-27 47 -12 37 15 38 16 71 131 28 96 34 130 32 197 -2 44 -10 101 -19 126 -16
46 -12 86 7 74 5 -3 10 -1 10 4 0 6 -7 11 -15 11 -18 0 -18 -2 1 51 12 33 17
101 21 267 6 203 8 225 25 235 22 14 23 44 3 67 -10 11 -17 52 -21 130 l-7
115 -67 140 c-37 77 -100 226 -140 330 -41 105 -91 216 -112 249 -40 62 -37
60 -356 207 -56 26 -62 31 -52 48 5 11 10 58 10 106 0 67 4 95 21 127 19 37
19 42 5 50 -9 5 -16 21 -16 36 0 15 -16 70 -36 122 -49 132 -90 173 -184 189
-91 15 -95 14 -168 -16z"/>
<path fill="#ffffff" stroke="none" d="M1207 4556 c-1 -30 -3 -33 -18 -25 -10
5 -31 9 -48 9 -26 0 -31 4 -31 25 0 23 3 25 49 25 l49 0 -1 -34z"/>
</g>
</svg>
