<?xml version="1.0" standalone="no"?>
<!DOCTYPE svg PUBLIC "-//W3C//DTD SVG 20010904//EN"
 "http://www.w3.org/TR/2001/REC-SVG-20010904/DTD/svg10.dtd">
<svg version="1.0" xmlns="http://www.w3.org/2000/svg"
 width="80.000000pt" height="168.000000pt" viewBox="0 0 80.000000 168.000000"
 preserveAspectRatio="xMidYMid meet">
<metadata>
Created by potrace 1.14, written by Peter Selinger 2001-2017
</metadata>
<g transform="translate(0.000000,168.000000) scale(0.100000,-0.100000)"
fill="#000000" stroke="none">
<path fill="#000000" stroke="none" d="M70 1668 c0 -7 7 -52 15 -101 l16 -88
-46 -339 -45 -339 -1 -396 c-1 -218 1 -398 3 -401 3 -2 90 4 194 14 l189 17 6
80 c3 44 24 172 47 285 23 113 58 322 78 465 33 236 39 263 64 297 l27 37 23
-159 c13 -87 26 -164 30 -170 6 -9 21 -9 63 0 l55 11 7 54 c5 47 3 58 -17 85
-21 29 -23 45 -31 238 -8 199 -9 211 -43 315 l-36 107 -299 0 c-233 0 -299 -3
-299 -12z"/>
</g>
</svg>
