<?xml version="1.0" standalone="no"?>
<!DOCTYPE svg PUBLIC "-//W3C//DTD SVG 20010904//EN"
 "http://www.w3.org/TR/2001/REC-SVG-20010904/DTD/svg10.dtd">
<svg version="1.0" xmlns="http://www.w3.org/2000/svg"
 width="14.000000pt" height="30.000000pt" viewBox="0 0 14.000000 30.000000"
 preserveAspectRatio="xMidYMid meet">
<metadata>
Created by potrace 1.14, written by Peter Selinger 2001-2017
</metadata>
<g transform="translate(0.000000,30.000000) scale(0.100000,-0.100000)"
fill="#000000" stroke="none">
<path fill="#000000" stroke="none" d="M60 281 c0 -10 -6 -24 -14 -30 -8 -7
-22 -28 -31 -47 -16 -33 -15 -37 2 -62 9 -15 20 -52 23 -82 6 -67 21 -71 33
-10 l10 45 14 -48 c17 -59 27 -61 19 -2 -5 30 -2 64 10 105 15 55 15 62 0 84
-9 14 -16 34 -16 46 0 15 -7 20 -25 20 -18 0 -25 -5 -25 -19z"/>
</g>
</svg>
