<?xml version="1.0" standalone="no"?>
<!DOCTYPE svg PUBLIC "-//W3C//DTD SVG 20010904//EN"
 "http://www.w3.org/TR/2001/REC-SVG-20010904/DTD/svg10.dtd">
<svg version="1.0" xmlns="http://www.w3.org/2000/svg"
 width="165.000000pt" height="358.000000pt" viewBox="0 0 165.000000 358.000000"
 preserveAspectRatio="xMidYMid meet">
<metadata>
Created by potrace 1.14, written by Peter Selinger 2001-2017
</metadata>
<g transform="translate(0.000000,358.000000) scale(0.100000,-0.100000)"
fill="#000000" stroke="none">
<path fill="#000000" stroke="none" d="M933 3568 c-24 -11 -27 -19 -37 -80 -5
-24 -13 -39 -26 -43 -10 -3 -22 -16 -26 -28 -4 -11 -13 -27 -20 -35 -8 -7 -14
-28 -14 -46 0 -27 -5 -34 -33 -44 -19 -7 -40 -24 -48 -40 -8 -16 -26 -53 -41
-83 -16 -30 -28 -71 -28 -91 0 -36 -3 -39 -59 -67 -71 -36 -106 -76 -126 -144
-8 -29 -20 -59 -25 -67 -9 -13 -12 -13 -20 2 -13 21 -75 60 -92 57 -7 -1 -25
1 -39 5 -27 8 -70 -8 -107 -39 -145 -121 -177 -176 -170 -285 3 -41 0 -76 -8
-95 -21 -47 -19 -399 2 -456 14 -38 15 -91 11 -409 -3 -201 -2 -374 2 -385 5
-12 2 -33 -6 -52 -38 -93 8 -211 102 -260 32 -17 131 -23 154 -9 11 7 12 39 7
175 l-7 166 120 139 c66 76 123 146 125 155 2 9 12 63 22 121 13 84 16 144 11
300 -6 251 1 298 56 345 l40 34 -18 48 c-10 26 -33 81 -51 120 l-33 73 42 73
42 73 85 -13 c159 -22 148 -17 166 -80 11 -37 17 -103 19 -196 l2 -140 75 -87
c42 -48 81 -96 87 -108 24 -46 57 -15 83 78 33 121 33 119 7 146 -21 22 -25
38 -30 132 -4 59 -10 118 -14 131 -7 22 -6 23 16 18 13 -3 42 -12 65 -21 80
-29 165 14 163 83 -1 20 6 52 14 71 15 36 15 36 -11 38 -14 1 -29 8 -34 14
-11 19 -20 106 -16 162 l3 49 55 19 c30 11 70 22 88 25 37 6 52 31 52 86 0 18
7 41 15 51 8 11 15 38 15 61 0 32 -6 46 -29 66 -24 21 -33 23 -62 16 -19 -5
-39 -13 -45 -18 -6 -5 -26 -6 -43 -3 -31 6 -33 9 -29 43 5 35 -15 101 -30 101
-4 0 -28 20 -54 45 -49 47 -66 52 -99 34 -11 -5 -42 -12 -70 -14 -47 -4 -49
-3 -49 21 0 27 -40 74 -62 73 -7 0 -23 -5 -35 -11z"/>
<path fill="#000000" stroke="none" d="M260 3241 c-17 -32 -11 -60 15 -77 52
-34 111 31 70 76 -23 26 -71 26 -85 1z"/>
<path fill="#000000" stroke="none" d="M1600 3190 c-12 -8 -12 -10 4 -16 10
-4 21 -16 25 -28 7 -17 9 -15 13 17 4 39 -9 48 -42 27z"/>
<path fill="#000000" stroke="none" d="M1613 2990 c0 -36 2 -50 4 -32 2 17 2
47 0 65 -2 17 -4 3 -4 -33z"/>
<path fill="#000000" stroke="none" d="M1612 2860 c0 -19 2 -27 5 -17 2 9 2
25 0 35 -3 9 -5 1 -5 -18z"/>
<path fill="#000000" stroke="none" d="M262 688 c-24 -12 -37 -47 -29 -78 3
-11 2 -20 -3 -20 -4 0 -26 -18 -49 -40 -47 -46 -46 -38 -27 -234 l12 -128 44
-40 c44 -38 46 -39 103 -33 35 4 64 2 71 -4 7 -6 23 -12 35 -14 13 -2 37 -20
55 -40 l31 -37 110 -4 c61 -3 187 -8 282 -12 l172 -6 103 105 c86 88 109 107
142 113 69 12 135 69 136 117 0 10 -12 29 -26 43 -24 25 -35 26 -76 9 -13 -5
-18 -2 -18 10 0 9 -5 25 -10 36 -10 17 -14 18 -43 6 -30 -12 -63 -5 -496 115
-256 70 -469 132 -475 138 -12 12 -14 12 -44 -2z"/>
</g>
</svg>
