<?xml version="1.0" standalone="no"?>
<!DOCTYPE svg PUBLIC "-//W3C//DTD SVG 20010904//EN"
 "http://www.w3.org/TR/2001/REC-SVG-20010904/DTD/svg10.dtd">
<svg version="1.0" xmlns="http://www.w3.org/2000/svg"
 width="21.000000pt" height="46.000000pt" viewBox="0 0 21.000000 46.000000"
 preserveAspectRatio="xMidYMid meet">
<metadata>
Created by potrace 1.14, written by Peter Selinger 2001-2017
</metadata>
<g transform="translate(0.000000,46.000000) scale(0.100000,-0.100000)"
fill="#000000" stroke="none">
<path fill="#000000" stroke="none" d="M103 437 c-27 -18 -39 -39 -64 -112
-17 -49 -33 -96 -36 -103 -3 -9 9 -7 36 7 38 20 41 20 42 4 0 -10 6 -58 14
-108 11 -77 11 -92 -1 -101 -11 -9 -3 -13 37 -18 28 -4 53 -5 55 -3 13 13 24
131 24 262 0 145 -1 152 -23 173 -29 27 -43 27 -84 -1z"/>
</g>
</svg>
