<?xml version="1.0" standalone="no"?>
<!DOCTYPE svg PUBLIC "-//W3C//DTD SVG 20010904//EN"
 "http://www.w3.org/TR/2001/REC-SVG-20010904/DTD/svg10.dtd">
<svg version="1.0" xmlns="http://www.w3.org/2000/svg"
 width="214.000000pt" height="434.000000pt" viewBox="0 0 214.000000 434.000000"
 preserveAspectRatio="xMidYMid meet">
<metadata>
Created by potrace 1.14, written by Peter Selinger 2001-2017
</metadata>
<g transform="translate(0.000000,434.000000) scale(0.100000,-0.100000)"
fill="#000000" stroke="none">
<path fill="#000000" stroke="none" d="M1145 4275 l-140 -61 -48 -69 c-46 -67
-52 -72 -136 -108 l-89 -38 -68 50 c-41 30 -100 88 -147 145 l-78 96 -37 -15
c-22 -9 -68 -48 -113 -96 l-76 -80 -7 -222 c-4 -122 -14 -280 -22 -352 -15
-120 -20 -137 -64 -225 -26 -52 -65 -135 -85 -185 l-37 -90 17 -130 c9 -71 29
-182 44 -245 16 -63 32 -144 35 -180 4 -36 14 -111 22 -166 l16 -101 108 -23
108 -22 68 22 c69 22 69 22 117 101 45 73 57 85 158 153 l110 75 45 -62 c25
-34 54 -78 64 -98 11 -21 58 -71 105 -112 47 -41 103 -97 125 -125 l40 -50 0
-518 c0 -500 -1 -527 -27 -739 -42 -352 -42 -680 1 -764 13 -25 22 -29 74 -34
32 -4 75 -4 96 0 l37 6 -38 17 -38 17 50 7 c93 14 95 15 95 53 0 27 -17 62
-73 147 l-73 111 32 150 c17 83 61 254 97 380 47 163 72 274 87 380 13 90 35
191 55 252 l33 103 -44 71 c-25 40 -43 73 -41 75 1 2 26 -3 55 -10 38 -11 52
-11 52 -3 2 52 36 185 78 297 42 116 52 158 71 303 l23 167 73 153 c112 234
186 524 260 1012 l27 180 -45 150 -44 150 -199 5 -199 5 -185 76 -185 75 -140
-61z"/>
</g>
</svg>
