<?xml version="1.0" standalone="no"?>
<!DOCTYPE svg PUBLIC "-//W3C//DTD SVG 20010904//EN"
 "http://www.w3.org/TR/2001/REC-SVG-20010904/DTD/svg10.dtd">
<svg version="1.0" xmlns="http://www.w3.org/2000/svg"
 width="22.000000pt" height="47.000000pt" viewBox="0 0 22.000000 47.000000"
 preserveAspectRatio="xMidYMid meet">
<metadata>
Created by potrace 1.14, written by Peter Selinger 2001-2017
</metadata>
<g transform="translate(0.000000,47.000000) scale(0.100000,-0.100000)"
fill="#000000" stroke="none">
<path fill="#000000" stroke="none" d="M62 458 c-7 -7 -12 -22 -12 -33 0 -12
-11 -32 -25 -45 -24 -22 -35 -77 -19 -93 22 -22 39 -106 32 -157 -7 -51 -2
-130 8 -130 3 0 18 7 35 15 28 15 29 16 13 40 -15 23 -14 48 2 108 11 38 24 2
24 -65 l0 -70 31 6 c17 3 39 6 48 6 10 1 7 6 -10 15 -25 14 -27 19 -32 117 -3
57 -9 114 -13 127 -6 20 -4 22 15 16 24 -7 61 2 61 16 0 6 -13 15 -28 22 -44
18 -90 62 -94 87 -4 28 -19 35 -36 18z"/>
</g>
</svg>
