<?xml version="1.0" standalone="no"?>
<!DOCTYPE svg PUBLIC "-//W3C//DTD SVG 20010904//EN"
 "http://www.w3.org/TR/2001/REC-SVG-20010904/DTD/svg10.dtd">
<svg version="1.0" xmlns="http://www.w3.org/2000/svg"
 width="12.000000pt" height="22.000000pt" viewBox="0 0 12.000000 22.000000"
 preserveAspectRatio="xMidYMid meet">
<metadata>
Created by potrace 1.14, written by Peter Selinger 2001-2017
</metadata>
<g transform="translate(0.000000,22.000000) scale(0.100000,-0.100000)"
fill="#000000" stroke="none">
<path fill="#000000" stroke="none" d="M30 204 c0 -9 -8 -22 -17 -29 -16 -12
-16 -14 0 -39 10 -14 26 -26 36 -26 22 0 31 -19 31 -65 0 -34 17 -57 24 -33 2
7 7 39 9 70 l5 57 -34 13 c-28 10 -34 17 -34 40 0 15 -4 28 -10 28 -5 0 -10
-7 -10 -16z"/>
</g>
</svg>
