<?xml version="1.0" standalone="no"?>
<!DOCTYPE svg PUBLIC "-//W3C//DTD SVG 20010904//EN"
 "http://www.w3.org/TR/2001/REC-SVG-20010904/DTD/svg10.dtd">
<svg version="1.0" xmlns="http://www.w3.org/2000/svg"
 width="25.000000pt" height="50.000000pt" viewBox="0 0 25.000000 50.000000"
 preserveAspectRatio="xMidYMid meet">
<metadata>
Created by potrace 1.14, written by Peter Selinger 2001-2017
</metadata>
<g transform="translate(0.000000,50.000000) scale(0.100000,-0.100000)"
fill="#000000" stroke="none">
<path fill="#000000" stroke="none" d="M8 439 c3 -44 12 -74 27 -97 19 -28 23
-30 27 -14 6 20 45 32 107 32 48 0 67 16 75 62 10 54 -17 68 -142 75 l-98 6 4
-64z"/>
<path fill="#000000" stroke="none" d="M87 292 c-15 -9 -31 -28 -34 -42 -8
-32 -35 -53 -45 -37 -4 7 -8 -39 -8 -100 l0 -113 64 0 c48 0 69 4 82 18 17 16
18 16 11 -1 -5 -14 -3 -18 10 -15 13 2 23 27 40 93 29 122 29 138 -8 180 -35
40 -67 45 -112 17z"/>
<path fill="#ffffff" stroke="none" d="M103 100 c35 0 33 -4 -5 -14 -33 -8
-43 8 -51 79 l-6 50 16 -57 c14 -55 17 -58 46 -58z"/>
</g>
</svg>
