<?xml version="1.0" standalone="no"?>
<!DOCTYPE svg PUBLIC "-//W3C//DTD SVG 20010904//EN"
 "http://www.w3.org/TR/2001/REC-SVG-20010904/DTD/svg10.dtd">
<svg version="1.0" xmlns="http://www.w3.org/2000/svg"
 width="14.000000pt" height="31.000000pt" viewBox="0 0 14.000000 31.000000"
 preserveAspectRatio="xMidYMid meet">
<metadata>
Created by potrace 1.14, written by Peter Selinger 2001-2017
</metadata>
<g transform="translate(0.000000,31.000000) scale(0.100000,-0.100000)"
fill="#000000" stroke="none">
<path fill="#000000" stroke="none" d="M57 303 c-4 -3 -7 -21 -7 -39 0 -19
-11 -49 -25 -70 -25 -37 -33 -74 -15 -74 5 0 14 8 19 17 8 14 10 6 11 -35 0
-45 4 -57 28 -77 56 -50 72 -26 72 107 0 61 -4 77 -32 124 -33 54 -39 60 -51
47z"/>
</g>
</svg>
