<?xml version="1.0" standalone="no"?>
<!DOCTYPE svg PUBLIC "-//W3C//DTD SVG 20010904//EN"
 "http://www.w3.org/TR/2001/REC-SVG-20010904/DTD/svg10.dtd">
<svg version="1.0" xmlns="http://www.w3.org/2000/svg"
 width="48.000000pt" height="99.000000pt" viewBox="0 0 48.000000 99.000000"
 preserveAspectRatio="xMidYMid meet">
<metadata>
Created by potrace 1.14, written by Peter Selinger 2001-2017
</metadata>
<g transform="translate(0.000000,99.000000) scale(0.100000,-0.100000)"
fill="#000000" stroke="none">
<path fill="#000000" stroke="none" d="M177 962 l-68 -27 -34 -74 c-19 -41
-32 -78 -29 -82 2 -4 16 -10 30 -13 15 -4 42 -17 61 -30 l34 -23 -53 -15 c-50
-13 -55 -18 -85 -74 -18 -32 -33 -65 -33 -73 0 -8 12 -33 27 -57 20 -32 41
-49 77 -65 l49 -21 -7 -76 c-6 -75 -6 -80 41 -199 47 -119 49 -123 82 -129 19
-4 50 -3 70 2 31 8 40 17 66 70 17 33 38 68 48 78 22 22 22 24 -5 127 -22 86
-22 86 -3 168 10 44 22 81 26 81 6 0 -25 158 -33 164 -1 1 -24 18 -50 36 -37
26 -47 38 -43 54 11 46 -62 207 -93 206 -4 -1 -38 -13 -75 -28z"/>
</g>
</svg>
