<?xml version="1.0" standalone="no"?>
<!DOCTYPE svg PUBLIC "-//W3C//DTD SVG 20010904//EN"
 "http://www.w3.org/TR/2001/REC-SVG-20010904/DTD/svg10.dtd">
<svg version="1.0" xmlns="http://www.w3.org/2000/svg"
 width="36.000000pt" height="69.000000pt" viewBox="0 0 36.000000 69.000000"
 preserveAspectRatio="xMidYMid meet">
<metadata>
Created by potrace 1.14, written by Peter Selinger 2001-2017
</metadata>
<g transform="translate(0.000000,69.000000) scale(0.100000,-0.100000)"
fill="#000000" stroke="none">
<path fill="#000000" stroke="none" d="M78 683 c-10 -2 -22 -21 -28 -44 -9
-31 -7 -51 8 -100 l18 -60 -23 -49 c-18 -38 -53 -177 -53 -211 0 -13 109 -20
129 -9 30 16 57 -3 65 -44 6 -31 58 -119 91 -155 22 -23 62 132 69 269 8 149
-4 178 -81 199 -49 13 -52 15 -58 54 -8 46 -82 156 -105 155 -8 0 -23 -2 -32
-5z"/>
</g>
</svg>
