<?xml version="1.0" standalone="no"?>
<!DOCTYPE svg PUBLIC "-//W3C//DTD SVG 20010904//EN"
 "http://www.w3.org/TR/2001/REC-SVG-20010904/DTD/svg10.dtd">
<svg version="1.0" xmlns="http://www.w3.org/2000/svg"
 width="72.000000pt" height="147.000000pt" viewBox="0 0 72.000000 147.000000"
 preserveAspectRatio="xMidYMid meet">
<metadata>
Created by potrace 1.14, written by Peter Selinger 2001-2017
</metadata>
<g transform="translate(0.000000,147.000000) scale(0.100000,-0.100000)"
fill="#000000" stroke="none">
<path fill="#000000" stroke="none" d="M255 1463 c-23 -4 -47 -25 -107 -95
l-76 -91 14 -40 14 -40 -52 -60 -51 -59 77 -152 c42 -83 93 -181 114 -218 l37
-68 -59 -113 -59 -113 16 -45 c16 -46 107 -293 126 -342 l11 -28 38 20 c37 19
422 409 422 428 0 12 -51 65 -118 125 -40 35 -60 63 -81 115 -16 37 -45 103
-65 146 -20 43 -36 87 -36 98 0 11 17 41 38 67 20 26 46 67 56 90 10 23 24 42
30 42 6 1 24 19 39 41 26 37 27 44 16 77 -13 43 -38 74 -53 69 -14 -5 -46 36
-46 60 0 64 -113 104 -245 86z"/>
</g>
</svg>
