<?xml version="1.0" standalone="no"?>
<!DOCTYPE svg PUBLIC "-//W3C//DTD SVG 20010904//EN"
 "http://www.w3.org/TR/2001/REC-SVG-20010904/DTD/svg10.dtd">
<svg version="1.0" xmlns="http://www.w3.org/2000/svg"
 width="44.000000pt" height="97.000000pt" viewBox="0 0 44.000000 97.000000"
 preserveAspectRatio="xMidYMid meet">
<metadata>
Created by potrace 1.14, written by Peter Selinger 2001-2017
</metadata>
<g transform="translate(0.000000,97.000000) scale(0.100000,-0.100000)"
fill="#000000" stroke="none">
<path fill="#000000" stroke="none" d="M94 963 c-19 -2 -43 -17 -61 -36 l-30
-32 28 -375 c15 -206 28 -391 29 -410 0 -33 5 -37 72 -73 39 -21 75 -34 78
-30 4 4 40 69 81 143 40 74 90 161 112 193 37 57 39 61 32 115 -4 31 -16 79
-27 107 -26 68 -188 365 -210 387 -17 17 -37 19 -104 11z"/>
</g>
</svg>
