<?xml version="1.0" standalone="no"?>
<!DOCTYPE svg PUBLIC "-//W3C//DTD SVG 20010904//EN"
 "http://www.w3.org/TR/2001/REC-SVG-20010904/DTD/svg10.dtd">
<svg version="1.0" xmlns="http://www.w3.org/2000/svg"
 width="179.000000pt" height="372.000000pt" viewBox="0 0 179.000000 372.000000"
 preserveAspectRatio="xMidYMid meet">
<metadata>
Created by potrace 1.14, written by Peter Selinger 2001-2017
</metadata>
<g transform="translate(0.000000,372.000000) scale(0.100000,-0.100000)"
fill="#000000" stroke="none">
<path fill="#000000" stroke="none" d="M304 3650 c-32 -38 -63 -70 -69 -70 -5
0 -59 9 -120 19 -61 10 -111 18 -113 17 -1 -2 25 -60 58 -129 l61 -125 9 -159
c7 -126 6 -183 -7 -281 -15 -116 -15 -127 2 -180 12 -39 34 -76 71 -118 69
-79 97 -165 119 -363 l15 -144 77 -101 c43 -56 93 -121 113 -146 29 -38 45
-80 93 -250 l59 -205 -72 -314 c-39 -172 -69 -315 -66 -318 2 -2 -35 -123 -84
-267 -59 -179 -89 -285 -94 -332 -3 -38 -9 -95 -12 -126 l-6 -58 379 1 c208 1
405 4 438 8 l60 6 -162 105 c-89 58 -162 107 -163 110 0 3 102 98 228 212 125
114 299 280 388 370 l161 163 63 184 c36 105 58 186 53 190 -5 3 -82 64 -171
134 -182 146 -149 96 -275 407 l-54 135 -23 233 c-12 128 -20 235 -17 238 4 5
72 -20 234 -84 l51 -21 63 57 62 57 -8 78 -7 78 -121 139 c-67 76 -125 139
-129 139 -5 1 -8 -87 -8 -195 0 -108 -4 -194 -8 -192 -5 2 -42 18 -83 36 l-75
34 -63 247 -63 246 47 145 c30 94 57 158 76 183 34 42 34 42 -12 23 -35 -15
-30 -16 -146 31 -9 4 -13 -6 -13 -28 0 -78 -12 -106 -69 -169 l-56 -63 -69
215 -69 215 -196 27 c-108 14 -201 26 -207 26 -6 0 -37 -31 -70 -70z"/>
</g>
</svg>
