<?xml version="1.0" standalone="no"?>
<!DOCTYPE svg PUBLIC "-//W3C//DTD SVG 20010904//EN"
 "http://www.w3.org/TR/2001/REC-SVG-20010904/DTD/svg10.dtd">
<svg version="1.0" xmlns="http://www.w3.org/2000/svg"
 width="30.000000pt" height="60.000000pt" viewBox="0 0 30.000000 60.000000"
 preserveAspectRatio="xMidYMid meet">
<metadata>
Created by potrace 1.14, written by Peter Selinger 2001-2017
</metadata>
<g transform="translate(0.000000,60.000000) scale(0.100000,-0.100000)"
fill="#000000" stroke="none">
<path fill="#000000" stroke="none" d="M101 582 c-24 -12 -41 -34 -65 -82
l-32 -65 9 -205 c4 -113 10 -211 13 -219 6 -18 103 -9 137 14 29 19 35 37 29
86 -3 28 -13 43 -43 65 -21 16 -39 33 -39 38 0 4 16 30 35 57 34 46 111 99
143 99 25 0 10 160 -19 200 -21 27 -28 30 -78 29 -31 0 -71 -8 -90 -17z"/>
</g>
</svg>
