<?xml version="1.0" standalone="no"?>
<!DOCTYPE svg PUBLIC "-//W3C//DTD SVG 20010904//EN"
 "http://www.w3.org/TR/2001/REC-SVG-20010904/DTD/svg10.dtd">
<svg version="1.0" xmlns="http://www.w3.org/2000/svg"
 width="153.000000pt" height="306.000000pt" viewBox="0 0 153.000000 306.000000"
 preserveAspectRatio="xMidYMid meet">
<metadata>
Created by potrace 1.14, written by Peter Selinger 2001-2017
</metadata>
<g transform="translate(0.000000,306.000000) scale(0.100000,-0.100000)"
fill="#000000" stroke="none">
<path fill="#000000" stroke="none" d="M634 3005 l-81 -53 -6 -108 c-7 -161
-23 -196 -122 -277 l-80 -65 -25 -134 -26 -134 27 -344 c15 -190 30 -364 34
-387 5 -33 1 -52 -19 -90 -15 -29 -31 -89 -41 -153 -39 -249 -139 -543 -235
-693 -35 -54 -61 -99 -59 -100 2 -2 38 -24 79 -50 l76 -46 93 9 c52 5 97 12
102 17 4 4 51 121 104 258 72 185 106 291 134 410 31 133 46 175 86 250 27 49
65 140 84 202 l36 112 78 -72 79 -72 39 -170 c47 -201 113 -599 128 -774 7
-69 13 -126 15 -128 2 -2 30 -8 62 -14 83 -15 92 -30 100 -166 7 -108 7 -108
-24 -161 -20 -32 -27 -52 -19 -53 6 0 67 -4 135 -7 l122 -7 0 35 c-1 19 -5 69
-10 110 -6 57 -4 102 10 192 l18 119 -69 212 c-37 117 -89 268 -113 336 -35
96 -48 147 -56 230 -6 58 -20 153 -31 211 -18 93 -18 115 -8 199 13 103 8 355
-11 576 -10 115 -15 139 -47 206 l-35 76 -149 89 c-82 49 -149 93 -149 99 0 5
7 39 16 75 14 59 13 70 -2 128 -17 62 -19 65 -88 111 l-71 48 -81 -52z"/>
</g>
</svg>
