<?xml version="1.0" standalone="no"?>
<!DOCTYPE svg PUBLIC "-//W3C//DTD SVG 20010904//EN"
 "http://www.w3.org/TR/2001/REC-SVG-20010904/DTD/svg10.dtd">
<svg version="1.0" xmlns="http://www.w3.org/2000/svg"
 width="30.000000pt" height="63.000000pt" viewBox="0 0 30.000000 63.000000"
 preserveAspectRatio="xMidYMid meet">
<metadata>
Created by potrace 1.14, written by Peter Selinger 2001-2017
</metadata>
<g transform="translate(0.000000,63.000000) scale(0.100000,-0.100000)"
fill="#000000" stroke="none">
<path fill="#000000" stroke="none" d="M79 608 l-36 -22 -6 -96 c-4 -52 -13
-164 -21 -249 -15 -163 -10 -201 25 -201 10 0 21 -10 24 -21 7 -20 10 -17 35
23 16 25 33 72 39 103 6 32 19 68 28 79 57 69 78 86 106 86 l29 0 -31 55 c-17
30 -31 65 -31 77 0 28 -53 134 -82 165 -26 28 -33 28 -79 1z"/>
</g>
</svg>
