<?xml version="1.0" standalone="no"?>
<!DOCTYPE svg PUBLIC "-//W3C//DTD SVG 20010904//EN"
 "http://www.w3.org/TR/2001/REC-SVG-20010904/DTD/svg10.dtd">
<svg version="1.0" xmlns="http://www.w3.org/2000/svg"
 width="158.000000pt" height="341.000000pt" viewBox="0 0 158.000000 341.000000"
 preserveAspectRatio="xMidYMid meet">
<metadata>
Created by potrace 1.14, written by Peter Selinger 2001-2017
</metadata>
<g transform="translate(0.000000,341.000000) scale(0.100000,-0.100000)"
fill="#000000" stroke="none">
<path fill="#000000" stroke="none" d="M952 3313 l-22 -97 32 -33 c28 -29 30
-34 16 -45 -9 -7 -18 -22 -20 -32 -5 -30 -101 -53 -263 -62 -138 -9 -141 -9
-200 17 -76 34 -245 79 -293 79 -76 0 -142 -13 -142 -26 0 -8 19 -28 43 -45
l42 -31 -72 6 -73 7 0 -30 c0 -29 3 -31 86 -58 83 -27 87 -29 110 -74 31 -63
98 -105 180 -114 59 -7 64 -6 114 28 45 31 56 34 83 26 18 -5 142 -28 276 -50
135 -22 251 -45 259 -51 10 -9 13 -28 10 -72 l-5 -60 19 40 c10 21 97 201 192
399 l174 360 43 6 c24 3 -93 7 -261 7 l-306 2 -22 -97z"/>
<path fill="#000000" stroke="none" d="M1466 2919 c-60 -129 -112 -238 -115
-244 -3 -6 1 -5 10 1 8 6 57 25 109 44 52 18 98 36 103 40 4 3 6 94 5 200 l-3
193 -109 -234z"/>
<path fill="#000000" stroke="none" d="M1327 2623 c-15 -33 -15 -44 -4 -88
l14 -50 7 83 c4 46 6 86 3 88 -2 2 -11 -13 -20 -33z"/>
<path fill="#000000" stroke="none" d="M1280 2451 c-43 -27 -47 -33 -82 -137
-21 -60 -49 -156 -63 -214 -13 -58 -40 -143 -60 -189 -20 -47 -38 -105 -42
-130 -3 -25 -11 -55 -17 -66 -7 -11 -17 -38 -24 -60 -13 -47 -66 -599 -87
-905 l-14 -215 22 -20 23 -21 -38 -139 c-48 -175 -61 -259 -48 -307 17 -61 34
-53 64 31 29 76 175 398 248 545 l40 79 -36 36 c-51 52 -82 151 -100 322 -9
78 -16 193 -16 256 l0 114 75 35 c65 30 87 35 161 37 l86 2 -34 29 -34 29 35
275 35 274 -35 67 -35 66 13 95 c7 52 12 105 11 117 -3 22 -3 22 -48 -6z"/>
<path fill="#000000" stroke="none" d="M1550 1498 c0 -13 5 -30 10 -38 7 -11
10 -7 10 17 0 17 -4 35 -10 38 -6 3 -10 -4 -10 -17z"/>
</g>
</svg>
