<?xml version="1.0" standalone="no"?>
<!DOCTYPE svg PUBLIC "-//W3C//DTD SVG 20010904//EN"
 "http://www.w3.org/TR/2001/REC-SVG-20010904/DTD/svg10.dtd">
<svg version="1.0" xmlns="http://www.w3.org/2000/svg"
 width="15.000000pt" height="33.000000pt" viewBox="0 0 15.000000 33.000000"
 preserveAspectRatio="xMidYMid meet">
<metadata>
Created by potrace 1.14, written by Peter Selinger 2001-2017
</metadata>
<g transform="translate(0.000000,33.000000) scale(0.100000,-0.100000)"
fill="#000000" stroke="none">
<path fill="#000000" stroke="none" d="M42 317 c-6 -7 -9 -22 -6 -33 3 -12 -3
-27 -15 -38 -26 -24 -26 -31 -1 -63 12 -16 20 -41 20 -66 0 -22 5 -56 11 -76
10 -35 12 -36 53 -33 l42 4 -8 56 c-10 86 -35 225 -43 245 -8 20 -38 23 -53 4z"/>
</g>
</svg>
