<?xml version="1.0" standalone="no"?>
<!DOCTYPE svg PUBLIC "-//W3C//DTD SVG 20010904//EN"
 "http://www.w3.org/TR/2001/REC-SVG-20010904/DTD/svg10.dtd">
<svg version="1.0" xmlns="http://www.w3.org/2000/svg"
 width="199.000000pt" height="392.000000pt" viewBox="0 0 199.000000 392.000000"
 preserveAspectRatio="xMidYMid meet">
<metadata>
Created by potrace 1.14, written by Peter Selinger 2001-2017
</metadata>
<g transform="translate(0.000000,392.000000) scale(0.100000,-0.100000)"
fill="#000000" stroke="none">
<path fill="#000000" stroke="none" d="M575 3909 c-144 -6 -154 -8 -251 -47
-89 -36 -108 -48 -160 -102 -33 -34 -63 -69 -68 -77 -5 -9 -28 -90 -52 -180
-40 -151 -44 -175 -44 -284 0 -69 5 -130 11 -142 6 -12 46 -57 88 -100 l76
-78 -55 -102 -55 -102 -3 -280 -4 -280 37 -200 c20 -110 52 -262 70 -339 l33
-138 -33 -99 c-23 -67 -44 -165 -65 -306 l-32 -208 48 -396 48 -395 375 -27
376 -27 18 21 c9 12 27 53 38 93 18 59 106 230 168 325 l15 24 -39 -8 c-71
-14 -69 -15 -77 50 -8 72 4 109 41 124 33 14 35 31 16 138 l-14 82 69 67 70
67 -50 56 c-27 31 -73 82 -101 114 -28 31 -45 55 -38 53 8 -3 110 -33 227 -66
204 -59 222 -63 470 -89 l257 -27 3 32 c2 24 -8 47 -44 99 -117 168 -213 337
-245 433 -32 97 -59 138 -121 183 -32 23 -260 68 -265 52 -3 -7 -18 -7 -48 0
-32 7 -56 23 -93 61 l-50 51 -26 150 c-14 83 -56 258 -92 390 -60 217 -67 253
-74 375 -10 175 -5 538 11 758 l13 172 -34 70 -34 70 -80 -2 c-45 -1 -148 -5
-231 -9z"/>
</g>
</svg>
