<?xml version="1.0" standalone="no"?>
<!DOCTYPE svg PUBLIC "-//W3C//DTD SVG 20010904//EN"
 "http://www.w3.org/TR/2001/REC-SVG-20010904/DTD/svg10.dtd">
<svg version="1.0" xmlns="http://www.w3.org/2000/svg"
 width="18.000000pt" height="36.000000pt" viewBox="0 0 18.000000 36.000000"
 preserveAspectRatio="xMidYMid meet">
<metadata>
Created by potrace 1.14, written by Peter Selinger 2001-2017
</metadata>
<g transform="translate(0.000000,36.000000) scale(0.100000,-0.100000)"
fill="#000000" stroke="none">
<path fill="#000000" stroke="none" d="M68 348 c-24 -8 -28 -15 -28 -47 0 -20
-9 -62 -20 -92 -10 -31 -17 -64 -15 -75 2 -10 7 -37 10 -59 6 -32 9 -36 16
-22 6 9 21 17 35 17 19 0 29 -8 41 -37 l16 -38 7 30 c4 17 16 49 28 72 30 57
29 103 -3 133 -15 14 -25 35 -25 51 0 33 -16 79 -27 78 -5 0 -20 -5 -35 -11z"/>
</g>
</svg>
