<?xml version="1.0" standalone="no"?>
<!DOCTYPE svg PUBLIC "-//W3C//DTD SVG 20010904//EN"
 "http://www.w3.org/TR/2001/REC-SVG-20010904/DTD/svg10.dtd">
<svg version="1.0" xmlns="http://www.w3.org/2000/svg"
 width="288.000000pt" height="601.000000pt" viewBox="0 0 288.000000 601.000000"
 preserveAspectRatio="xMidYMid meet">
<metadata>
Created by potrace 1.14, written by Peter Selinger 2001-2017
</metadata>
<g transform="translate(0.000000,601.000000) scale(0.100000,-0.100000)"
fill="#000000" stroke="none">
<path fill="#000000" stroke="none" d="M810 5969 l-116 -39 -108 -109 -108
-108 -65 -331 -65 -331 -52 -15 c-37 -11 -69 -13 -114 -7 -72 8 -63 20 -82
-114 l-11 -79 43 -42 c33 -32 424 -403 542 -514 21 -21 111 -399 97 -413 -4
-4 -126 -85 -271 -180 l-264 -173 -17 -84 c-14 -73 -17 -199 -23 -902 l-7
-817 -92 -273 -93 -273 9 -83 c8 -71 11 -81 21 -65 7 10 102 146 211 303 431
619 475 679 697 923 l210 232 89 32 90 33 57 -23 c50 -20 57 -27 65 -59 13
-57 -82 -236 -247 -461 -332 -455 -534 -738 -608 -852 l-80 -125 -205 -131
-206 -130 -34 33 c-28 26 -34 29 -30 13 3 -11 8 -50 12 -87 4 -38 10 -68 13
-68 39 0 476 -31 479 -34 2 -2 6 -41 10 -87 l6 -84 -76 -214 c-42 -118 -75
-217 -73 -218 2 -2 14 1 27 7 17 8 308 7 1034 -4 555 -8 1011 -13 1013 -11 2
2 -25 281 -61 622 -36 343 -60 621 -55 624 4 3 99 11 211 18 111 6 205 15 208
19 3 4 25 82 48 174 l41 167 -209 868 -208 868 -294 290 c-162 160 -333 329
-382 375 l-88 85 30 668 29 668 -81 78 c-45 43 -149 140 -230 216 l-148 139
-167 63 c-92 35 -176 62 -187 62 -11 0 -72 -18 -135 -40z"/>
</g>
</svg>
