<?xml version="1.0" standalone="no"?>
<!DOCTYPE svg PUBLIC "-//W3C//DTD SVG 20010904//EN"
 "http://www.w3.org/TR/2001/REC-SVG-20010904/DTD/svg10.dtd">
<svg version="1.0" xmlns="http://www.w3.org/2000/svg"
 width="52.000000pt" height="99.000000pt" viewBox="0 0 52.000000 99.000000"
 preserveAspectRatio="xMidYMid meet">
<metadata>
Created by potrace 1.14, written by Peter Selinger 2001-2017
</metadata>
<g transform="translate(0.000000,99.000000) scale(0.100000,-0.100000)"
fill="#000000" stroke="none">
<path fill="#000000" stroke="none" d="M233 966 c-98 -27 -175 -79 -167 -112
3 -12 -1 -36 -10 -52 -9 -17 -16 -52 -16 -78 0 -72 29 -207 49 -224 18 -16 45
-116 35 -131 -3 -5 -16 -9 -29 -9 -22 0 -27 -9 -50 -83 -24 -77 -51 -244 -41
-254 12 -12 229 -21 319 -13 102 9 102 9 135 47 36 42 37 52 11 219 -10 61
-15 73 -39 87 l-28 17 16 44 c10 26 26 49 39 55 15 7 24 22 28 48 4 21 13 54
22 75 12 27 14 63 12 145 -4 100 -7 112 -34 155 -50 80 -126 99 -252 64z"/>
</g>
</svg>
