<?xml version="1.0" standalone="no"?>
<!DOCTYPE svg PUBLIC "-//W3C//DTD SVG 20010904//EN"
 "http://www.w3.org/TR/2001/REC-SVG-20010904/DTD/svg10.dtd">
<svg version="1.0" xmlns="http://www.w3.org/2000/svg"
 width="70.000000pt" height="145.000000pt" viewBox="0 0 70.000000 145.000000"
 preserveAspectRatio="xMidYMid meet">
<metadata>
Created by potrace 1.14, written by Peter Selinger 2001-2017
</metadata>
<g transform="translate(0.000000,145.000000) scale(0.100000,-0.100000)"
fill="#000000" stroke="none">
<path fill="#000000" stroke="none" d="M233 1444 c-14 -6 -83 -100 -83 -112 0
-5 11 -19 25 -32 13 -12 29 -38 36 -57 9 -30 8 -41 -15 -86 -13 -29 -30 -74
-36 -101 -6 -26 -17 -61 -25 -77 -16 -30 -27 -30 -71 -2 -20 13 -24 11 -44
-14 -17 -22 -21 -36 -15 -68 3 -22 11 -43 18 -48 17 -11 188 -3 214 11 18 10
22 9 27 -12 3 -13 6 -93 5 -177 0 -136 -3 -163 -26 -234 -21 -67 -25 -98 -24
-186 1 -93 -2 -114 -24 -163 -13 -30 -22 -62 -19 -71 10 -24 61 -17 154 19 69
27 84 37 82 52 -11 64 -17 80 -30 90 -13 10 -14 21 -6 66 6 32 6 68 1 87 -6
27 -5 36 10 47 10 7 20 13 23 13 3 0 25 -45 49 -100 49 -112 50 -140 7 -203
-54 -80 -1 -85 140 -14 96 49 107 66 74 120 -11 20 -35 87 -52 150 -30 113
-30 114 -19 234 10 99 9 137 -3 210 -8 49 -18 97 -21 107 -5 11 -1 25 10 37
10 11 20 39 22 64 5 38 2 48 -20 70 -14 14 -37 52 -52 83 -23 53 -31 60 -81
82 -36 16 -56 31 -59 45 -3 11 -10 43 -15 70 -12 53 -27 87 -44 98 -12 8 -94
9 -113 2z"/>
</g>
</svg>
