<?xml version="1.0" standalone="no"?>
<!DOCTYPE svg PUBLIC "-//W3C//DTD SVG 20010904//EN"
 "http://www.w3.org/TR/2001/REC-SVG-20010904/DTD/svg10.dtd">
<svg version="1.0" xmlns="http://www.w3.org/2000/svg"
 width="58.000000pt" height="118.000000pt" viewBox="0 0 58.000000 118.000000"
 preserveAspectRatio="xMidYMid meet">
<metadata>
Created by potrace 1.14, written by Peter Selinger 2001-2017
</metadata>
<g transform="translate(0.000000,118.000000) scale(0.100000,-0.100000)"
fill="#000000" stroke="none">
<path fill="#000000" stroke="none" d="M276 1149 c-29 -34 -45 -128 -28 -171
12 -32 14 -31 -58 -52 -80 -23 -111 -56 -154 -160 -30 -73 -35 -95 -27 -115 5
-15 12 -48 14 -74 3 -26 19 -76 36 -111 l31 -63 -10 -193 c-6 -106 -13 -198
-17 -204 -12 -23 27 23 112 129 48 61 107 130 131 155 23 25 77 99 119 165 43
66 96 142 118 168 49 59 47 84 -13 179 -34 56 -49 70 -86 84 -24 9 -44 18 -44
21 0 2 14 30 30 63 30 59 36 106 21 160 -7 25 -18 29 -113 43 -32 5 -41 2 -62
-24z"/>
</g>
</svg>
