<?xml version="1.0" standalone="no"?>
<!DOCTYPE svg PUBLIC "-//W3C//DTD SVG 20010904//EN"
 "http://www.w3.org/TR/2001/REC-SVG-20010904/DTD/svg10.dtd">
<svg version="1.0" xmlns="http://www.w3.org/2000/svg"
 width="109.000000pt" height="218.000000pt" viewBox="0 0 109.000000 218.000000"
 preserveAspectRatio="xMidYMid meet">
<metadata>
Created by potrace 1.14, written by Peter Selinger 2001-2017
</metadata>
<g transform="translate(0.000000,218.000000) scale(0.100000,-0.100000)"
fill="#000000" stroke="none">
<path fill="#000000" stroke="none" d="M568 2173 c-57 -4 -58 -5 -58 -34 0
-20 -24 -67 -75 -145 -75 -115 -75 -115 -75 -183 0 -63 4 -75 47 -150 l46 -83
-79 -79 c-62 -62 -138 -126 -161 -134 -1 0 5 -34 13 -74 15 -70 14 -78 -4
-140 -11 -36 -24 -81 -29 -100 -7 -29 -20 -41 -89 -80 l-82 -46 -6 -95 c-3
-52 -9 -216 -12 -363 -6 -230 -5 -273 9 -305 8 -20 21 -64 29 -97 l13 -60 151
-3 151 -3 6 41 c3 26 -2 66 -14 108 -11 37 -26 117 -34 177 -8 61 -20 126 -25
145 -6 19 -10 57 -10 84 0 44 5 55 57 120 31 39 57 72 59 74 1 2 35 16 76 31
101 38 203 37 265 -2 74 -47 203 -116 203 -109 0 4 16 133 36 287 32 252 39
288 70 364 l35 84 2 273 2 274 -85 86 c-53 54 -106 96 -142 115 -60 30 -102
33 -290 22z"/>
</g>
</svg>
