<?xml version="1.0" standalone="no"?>
<!DOCTYPE svg PUBLIC "-//W3C//DTD SVG 20010904//EN"
 "http://www.w3.org/TR/2001/REC-SVG-20010904/DTD/svg10.dtd">
<svg version="1.0" xmlns="http://www.w3.org/2000/svg"
 width="22.000000pt" height="41.000000pt" viewBox="0 0 22.000000 41.000000"
 preserveAspectRatio="xMidYMid meet">
<metadata>
Created by potrace 1.14, written by Peter Selinger 2001-2017
</metadata>
<g transform="translate(0.000000,41.000000) scale(0.100000,-0.100000)"
fill="#000000" stroke="none">
<path fill="#000000" stroke="none" d="M113 373 c-6 -21 -18 -67 -27 -103 -31
-120 -39 -145 -63 -181 -21 -32 -22 -40 -12 -63 11 -23 17 -26 38 -21 34 9 33
7 38 60 5 35 12 51 37 71 92 74 101 96 80 197 -12 62 -24 77 -60 77 -16 0 -23
-9 -31 -37z"/>
</g>
</svg>
