<?xml version="1.0" standalone="no"?>
<!DOCTYPE svg PUBLIC "-//W3C//DTD SVG 20010904//EN"
 "http://www.w3.org/TR/2001/REC-SVG-20010904/DTD/svg10.dtd">
<svg version="1.0" xmlns="http://www.w3.org/2000/svg"
 width="39.000000pt" height="85.000000pt" viewBox="0 0 39.000000 85.000000"
 preserveAspectRatio="xMidYMid meet">
<metadata>
Created by potrace 1.14, written by Peter Selinger 2001-2017
</metadata>
<g transform="translate(0.000000,85.000000) scale(0.100000,-0.100000)"
fill="#000000" stroke="none">
<path fill="#000000" stroke="none" d="M233 835 c-42 -8 -85 -23 -102 -36 -28
-21 -31 -28 -31 -80 0 -40 5 -61 14 -66 8 -4 16 -24 18 -43 2 -27 8 -36 26
-38 30 -5 28 -12 -14 -53 -39 -37 -82 -116 -121 -219 -21 -55 -24 -75 -18
-130 4 -36 14 -85 24 -110 14 -39 21 -46 51 -50 41 -7 138 15 161 36 19 17 26
45 39 149 4 39 18 101 29 140 12 40 21 98 21 134 0 55 4 69 25 91 22 23 25 36
31 151 l7 126 -33 6 c-38 8 -35 8 -127 -8z"/>
</g>
</svg>
