<?xml version="1.0" standalone="no"?>
<!DOCTYPE svg PUBLIC "-//W3C//DTD SVG 20010904//EN"
 "http://www.w3.org/TR/2001/REC-SVG-20010904/DTD/svg10.dtd">
<svg version="1.0" xmlns="http://www.w3.org/2000/svg"
 width="149.000000pt" height="326.000000pt" viewBox="0 0 149.000000 326.000000"
 preserveAspectRatio="xMidYMid meet">
<metadata>
Created by potrace 1.14, written by Peter Selinger 2001-2017
</metadata>
<g transform="translate(0.000000,326.000000) scale(0.100000,-0.100000)"
fill="#000000" stroke="none">
<path fill="#000000" stroke="none" d="M200 3244 c-31 -9 -63 -31 -99 -68
l-53 -54 24 -34 c40 -53 40 -55 4 -72 -32 -15 -35 -20 -34 -58 0 -32 -5 -46
-21 -56 -25 -17 -27 -35 -6 -52 11 -9 15 -32 15 -81 0 -38 6 -83 15 -101 8
-18 21 -68 29 -110 16 -78 11 -117 -14 -133 -9 -5 -10 -37 -5 -114 8 -107 27
-188 71 -293 30 -72 41 -182 25 -251 -13 -52 -12 -53 24 -112 33 -55 36 -65
31 -112 -4 -29 -17 -77 -30 -107 l-24 -55 31 -14 c18 -9 78 -31 134 -51 122
-42 159 -60 196 -95 44 -40 57 -74 57 -144 l0 -65 47 -21 c27 -11 61 -32 78
-46 26 -21 30 -33 35 -92 4 -37 1 -104 -6 -148 -13 -87 -91 -333 -128 -404
l-23 -43 21 -72 20 -73 75 -27 c195 -72 332 -96 384 -69 23 12 28 20 25 46 -2
24 -16 41 -57 75 -30 24 -69 62 -88 84 -28 34 -33 47 -33 94 0 40 6 64 24 93
71 112 125 242 170 408 42 156 46 182 46 283 0 157 -8 171 -147 244 -72 38
-136 63 -193 77 -163 38 -292 86 -338 127 l-43 37 -9 100 c-14 151 -12 223 6
255 l17 27 71 -32 c39 -18 96 -36 126 -40 43 -6 82 -23 175 -79 158 -94 572
-253 629 -242 34 6 36 9 36 45 0 23 -9 51 -23 72 -19 29 -34 37 -106 57 -88
24 -151 61 -263 155 -35 29 -90 70 -123 91 -110 71 -172 125 -226 193 -30 38
-88 109 -130 159 -64 76 -78 99 -84 140 -5 27 -7 53 -6 58 1 5 18 72 38 150
32 128 35 147 26 201 -7 39 -7 68 0 81 13 31 -17 119 -60 172 -51 62 -154 112
-230 111 -32 -1 -78 -7 -103 -15z"/>
</g>
</svg>
