<?xml version="1.0" standalone="no"?>
<!DOCTYPE svg PUBLIC "-//W3C//DTD SVG 20010904//EN"
 "http://www.w3.org/TR/2001/REC-SVG-20010904/DTD/svg10.dtd">
<svg version="1.0" xmlns="http://www.w3.org/2000/svg"
 width="23.000000pt" height="45.000000pt" viewBox="0 0 23.000000 45.000000"
 preserveAspectRatio="xMidYMid meet">
<metadata>
Created by potrace 1.14, written by Peter Selinger 2001-2017
</metadata>
<g transform="translate(0.000000,45.000000) scale(0.100000,-0.100000)"
fill="#000000" stroke="none">
<path fill="#000000" stroke="none" d="M60 430 c-11 -11 -20 -33 -20 -50 0
-17 -7 -42 -16 -56 -14 -21 -15 -31 -5 -63 16 -54 14 -129 -5 -185 -20 -58
-16 -61 69 -71 59 -7 60 -7 95 29 30 30 36 43 38 83 1 26 5 59 8 73 5 18 1 34
-12 50 -19 26 -22 80 -8 130 5 19 1 32 -16 53 -30 34 -97 38 -128 7z"/>
</g>
</svg>
