<?xml version="1.0" standalone="no"?>
<!DOCTYPE svg PUBLIC "-//W3C//DTD SVG 20010904//EN"
 "http://www.w3.org/TR/2001/REC-SVG-20010904/DTD/svg10.dtd">
<svg version="1.0" xmlns="http://www.w3.org/2000/svg"
 width="84.000000pt" height="156.000000pt" viewBox="0 0 84.000000 156.000000"
 preserveAspectRatio="xMidYMid meet">
<metadata>
Created by potrace 1.14, written by Peter Selinger 2001-2017
</metadata>
<g transform="translate(0.000000,156.000000) scale(0.100000,-0.100000)"
fill="#000000" stroke="none">
<path fill="#000000" stroke="none" d="M142 1553 c-13 -3 -33 -20 -44 -39 -11
-19 -33 -41 -47 -49 -18 -9 -32 -28 -40 -55 -7 -23 -10 -45 -7 -48 17 -16 183
-72 216 -72 44 0 45 -2 55 -95 13 -126 11 -122 95 -184 l77 -56 -17 -80 -17
-79 31 38 c17 21 54 78 81 127 59 107 189 276 261 340 l52 47 -53 46 c-34 29
-63 46 -79 46 -15 0 -67 23 -117 51 l-90 52 -82 -8 c-102 -9 -94 -9 -142 9
-39 15 -86 18 -133 9z"/>
<path fill="#000000" stroke="none" d="M453 557 c-29 -29 -33 -43 -52 -167
l-20 -135 -42 -39 -42 -40 14 -70 14 -70 68 -17 68 -17 -5 66 c-18 227 -17
264 9 391 14 68 24 126 22 127 -2 2 -17 -11 -34 -29z"/>
</g>
</svg>
