<?xml version="1.0" standalone="no"?>
<!DOCTYPE svg PUBLIC "-//W3C//DTD SVG 20010904//EN"
 "http://www.w3.org/TR/2001/REC-SVG-20010904/DTD/svg10.dtd">
<svg version="1.0" xmlns="http://www.w3.org/2000/svg"
 width="21.000000pt" height="44.000000pt" viewBox="0 0 21.000000 44.000000"
 preserveAspectRatio="xMidYMid meet">
<metadata>
Created by potrace 1.14, written by Peter Selinger 2001-2017
</metadata>
<g transform="translate(0.000000,44.000000) scale(0.100000,-0.100000)"
fill="#000000" stroke="none">
<path fill="#000000" stroke="none" d="M102 428 c-7 -7 -12 -25 -12 -40 0 -18
-10 -37 -30 -55 -17 -15 -29 -31 -27 -37 2 -6 -5 -38 -15 -71 -24 -79 -16
-188 16 -210 11 -8 23 -15 27 -15 13 0 29 53 29 95 0 67 57 203 92 221 54 28
26 124 -36 124 -18 0 -37 -5 -44 -12z"/>
</g>
</svg>
