<?xml version="1.0" standalone="no"?>
<!DOCTYPE svg PUBLIC "-//W3C//DTD SVG 20010904//EN"
 "http://www.w3.org/TR/2001/REC-SVG-20010904/DTD/svg10.dtd">
<svg version="1.0" xmlns="http://www.w3.org/2000/svg"
 width="46.000000pt" height="86.000000pt" viewBox="0 0 46.000000 86.000000"
 preserveAspectRatio="xMidYMid meet">
<metadata>
Created by potrace 1.14, written by Peter Selinger 2001-2017
</metadata>
<g transform="translate(0.000000,86.000000) scale(0.100000,-0.100000)"
fill="#000000" stroke="none">
<path fill="#000000" stroke="none" d="M160 843 c-41 -8 -81 -19 -87 -25 -26
-21 -15 -64 25 -100 70 -64 70 -64 8 -82 -61 -18 -54 -6 -92 -154 l-17 -68 31
-46 31 -45 -6 -163 c-6 -158 -6 -163 13 -157 10 3 51 18 91 32 39 14 107 30
150 37 43 6 81 17 85 22 4 6 8 33 8 59 0 41 5 53 28 73 l28 25 -16 147 c-13
129 -19 153 -44 196 -27 47 -28 51 -14 76 15 26 14 29 -51 108 -36 44 -73 81
-81 80 -8 0 -49 -7 -90 -15z"/>
</g>
</svg>
