<?xml version="1.0" standalone="no"?>
<!DOCTYPE svg PUBLIC "-//W3C//DTD SVG 20010904//EN"
 "http://www.w3.org/TR/2001/REC-SVG-20010904/DTD/svg10.dtd">
<svg version="1.0" xmlns="http://www.w3.org/2000/svg"
 width="139.000000pt" height="258.000000pt" viewBox="0 0 139.000000 258.000000"
 preserveAspectRatio="xMidYMid meet">
<metadata>
Created by potrace 1.14, written by Peter Selinger 2001-2017
</metadata>
<g transform="translate(0.000000,258.000000) scale(0.100000,-0.100000)"
fill="#000000" stroke="none">
<path fill="#000000" stroke="none" d="M792 2567 c-39 -9 -46 -16 -71 -66 -50
-101 -80 -194 -96 -301 -9 -57 -17 -105 -18 -105 -1 -1 -68 -27 -149 -59
l-148 -57 -91 -97 -91 -98 -65 -184 -64 -185 21 -202 21 -201 60 -144 c32 -78
64 -153 71 -165 9 -18 6 -42 -17 -125 -15 -57 -33 -151 -39 -211 -7 -59 -12
-107 -11 -107 0 0 47 -9 105 -20 132 -25 140 -25 140 0 0 12 7 34 15 50 15 30
16 30 102 30 47 0 83 3 80 6 -4 4 2 19 12 33 27 37 61 206 61 299 0 66 3 82
20 97 19 17 21 16 69 -24 54 -45 55 -49 67 -196 3 -44 18 -129 33 -190 l27
-110 -21 -95 -22 -95 74 -25 c85 -28 81 -31 114 68 14 43 28 66 43 72 11 4 47
35 78 67 l57 58 21 115 20 115 70 65 70 65 26 129 c26 127 26 133 22 500 l-3
371 -144 170 c-79 94 -165 187 -191 207 -27 21 -52 47 -55 59 -9 26 12 67 36
74 67 21 79 132 29 262 -36 91 -45 105 -85 125 -25 13 -131 41 -138 37 -1 -1
-21 -6 -45 -12z"/>
</g>
</svg>
