<?xml version="1.0" standalone="no"?>
<!DOCTYPE svg PUBLIC "-//W3C//DTD SVG 20010904//EN"
 "http://www.w3.org/TR/2001/REC-SVG-20010904/DTD/svg10.dtd">
<svg version="1.0" xmlns="http://www.w3.org/2000/svg"
 width="159.000000pt" height="294.000000pt" viewBox="0 0 159.000000 294.000000"
 preserveAspectRatio="xMidYMid meet">
<metadata>
Created by potrace 1.14, written by Peter Selinger 2001-2017
</metadata>
<g transform="translate(0.000000,294.000000) scale(0.100000,-0.100000)"
fill="#000000" stroke="none">
<path fill="#000000" stroke="none" d="M1278 2920 c-59 -8 -109 -18 -111 -20
-2 -3 -35 -57 -74 -120 -123 -198 -119 -194 -204 -209 -62 -11 -86 -22 -149
-66 -131 -93 -245 -200 -289 -274 l-42 -68 11 -89 c17 -152 13 -273 -15 -396
-14 -60 -34 -184 -46 -275 -21 -162 -23 -172 -134 -493 -70 -202 -124 -375
-140 -451 -14 -68 -36 -158 -49 -199 -29 -93 -42 -201 -26 -229 12 -23 40 -26
149 -15 l61 7 0 37 c0 21 7 57 16 81 8 24 33 113 54 197 l38 152 66 80 c105
126 151 210 177 323 l23 97 84 95 c47 52 88 95 92 95 3 0 43 -51 89 -114 87
-121 122 -158 213 -220 64 -44 58 -24 89 -271 16 -120 22 -228 23 -367 1 -132
5 -199 12 -202 6 -2 60 2 120 9 60 7 146 16 192 20 45 4 82 11 82 16 0 5 -21
24 -47 42 -26 17 -64 48 -85 67 l-39 35 -5 300 c-6 294 -5 302 18 393 13 50
23 92 22 92 -1 0 -11 -15 -22 -32 -17 -30 -106 -89 -115 -78 -2 3 -24 50 -49
106 -43 92 -47 109 -55 213 l-9 113 34 38 33 39 35 -19 c44 -25 46 -25 34 3
-14 31 -50 242 -50 289 0 21 16 127 35 235 30 168 35 219 35 350 0 117 3 159
14 176 8 12 38 103 66 201 47 168 50 183 40 234 -5 31 -11 56 -12 57 -2 1 -21
8 -43 17 -36 13 -51 13 -147 -2z"/>
<path fill="#ffffff" stroke="none" d="M595 2085 c25 -24 35 -75 15 -75 -5 0
-10 -13 -10 -30 0 -23 -4 -30 -20 -30 -10 0 -23 7 -28 16 -5 8 -20 21 -33 27
-17 9 -25 22 -27 46 -7 65 56 94 103 46z"/>
</g>
</svg>
