<?xml version="1.0" standalone="no"?>
<!DOCTYPE svg PUBLIC "-//W3C//DTD SVG 20010904//EN"
 "http://www.w3.org/TR/2001/REC-SVG-20010904/DTD/svg10.dtd">
<svg version="1.0" xmlns="http://www.w3.org/2000/svg"
 width="159.000000pt" height="292.000000pt" viewBox="0 0 159.000000 292.000000"
 preserveAspectRatio="xMidYMid meet">
<metadata>
Created by potrace 1.14, written by Peter Selinger 2001-2017
</metadata>
<g transform="translate(0.000000,292.000000) scale(0.100000,-0.100000)"
fill="#000000" stroke="none">
<path fill="#000000" stroke="none" d="M559 2851 c-86 -96 -98 -122 -99 -202
0 -37 -6 -84 -14 -106 -8 -22 -17 -85 -21 -139 -9 -129 7 -187 70 -255 25 -26
45 -54 45 -62 0 -11 -26 -15 -110 -20 -117 -7 -148 -17 -192 -64 -21 -23 -29
-48 -44 -131 -16 -93 -17 -127 -7 -355 13 -280 19 -307 112 -509 61 -132 71
-189 71 -415 l0 -195 -36 -59 -35 -59 -77 0 c-89 0 -143 -13 -189 -43 -38 -26
-41 -47 -14 -109 40 -92 130 -133 264 -118 148 17 254 95 375 275 76 114 95
132 212 194 111 58 250 100 460 137 80 15 148 29 152 33 4 3 4 25 1 49 -4 31
-10 42 -23 42 -23 0 -74 120 -94 224 -9 43 -16 121 -16 173 l0 94 69 117 c80
136 146 277 162 350 11 48 10 57 -14 119 l-27 68 -98 52 c-53 29 -108 62 -121
73 l-24 21 16 91 c15 86 15 93 -2 127 -23 45 -30 94 -40 293 l-8 156 -47 100
-48 99 -172 7 c-94 3 -216 9 -272 12 l-100 6 -65 -71z"/>
</g>
</svg>
