<?xml version="1.0" standalone="no"?>
<!DOCTYPE svg PUBLIC "-//W3C//DTD SVG 20010904//EN"
 "http://www.w3.org/TR/2001/REC-SVG-20010904/DTD/svg10.dtd">
<svg version="1.0" xmlns="http://www.w3.org/2000/svg"
 width="25.000000pt" height="52.000000pt" viewBox="0 0 25.000000 52.000000"
 preserveAspectRatio="xMidYMid meet">
<metadata>
Created by potrace 1.14, written by Peter Selinger 2001-2017
</metadata>
<g transform="translate(0.000000,52.000000) scale(0.100000,-0.100000)"
fill="#000000" stroke="none">
<path fill="#000000" stroke="none" d="M45 499 c-16 -17 -17 -25 -8 -49 9 -25
8 -31 -13 -51 -21 -20 -24 -32 -24 -94 0 -48 5 -78 16 -93 10 -15 14 -32 10
-48 -10 -38 59 -164 89 -164 34 0 35 7 10 71 -13 32 -20 59 -15 59 5 0 28 -27
51 -60 42 -60 52 -67 77 -51 11 6 5 26 -28 91 -38 76 -43 92 -47 180 -6 93 -7
97 -34 116 -22 14 -29 27 -29 51 0 64 -21 80 -55 42z"/>
</g>
</svg>
