<?xml version="1.0" standalone="no"?>
<!DOCTYPE svg PUBLIC "-//W3C//DTD SVG 20010904//EN"
 "http://www.w3.org/TR/2001/REC-SVG-20010904/DTD/svg10.dtd">
<svg version="1.0" xmlns="http://www.w3.org/2000/svg"
 width="34.000000pt" height="62.000000pt" viewBox="0 0 34.000000 62.000000"
 preserveAspectRatio="xMidYMid meet">
<metadata>
Created by potrace 1.14, written by Peter Selinger 2001-2017
</metadata>
<g transform="translate(0.000000,62.000000) scale(0.100000,-0.100000)"
fill="#000000" stroke="none">
<path fill="#000000" stroke="none" d="M74 602 c-28 -22 -45 -56 -59 -117 -14
-60 -3 -111 30 -140 32 -29 58 -101 49 -139 -4 -17 -6 -44 -5 -61 1 -16 -5
-46 -13 -66 -9 -21 -11 -40 -6 -49 5 -8 6 -18 3 -24 -4 -5 4 -7 18 -3 13 4 32
7 42 7 14 0 17 9 17 45 0 25 8 62 19 83 10 20 26 73 35 116 9 46 23 84 33 91
10 8 14 19 9 30 -3 10 -4 33 0 52 l6 33 24 -25 c27 -29 37 -31 55 -9 10 13 10
25 -2 72 -13 48 -22 61 -57 86 -56 40 -68 28 -52 -47 7 -30 10 -70 6 -89 -6
-34 -8 -35 -73 -46 -36 -6 -70 -9 -75 -6 -14 9 -9 129 7 174 8 24 14 44 12 46
-1 1 -12 -5 -23 -14z"/>
</g>
</svg>
