<?xml version="1.0" standalone="no"?>
<!DOCTYPE svg PUBLIC "-//W3C//DTD SVG 20010904//EN"
 "http://www.w3.org/TR/2001/REC-SVG-20010904/DTD/svg10.dtd">
<svg version="1.0" xmlns="http://www.w3.org/2000/svg"
 width="10.000000pt" height="19.000000pt" viewBox="0 0 10.000000 19.000000"
 preserveAspectRatio="xMidYMid meet">
<metadata>
Created by potrace 1.14, written by Peter Selinger 2001-2017
</metadata>
<g transform="translate(0.000000,19.000000) scale(0.100000,-0.100000)"
fill="#000000" stroke="none">
<path fill="#000000" stroke="none" d="M21 168 c1 -13 -1 -30 -4 -38 -3 -8 -8
-27 -11 -42 -5 -23 -3 -28 12 -28 10 0 22 -12 29 -30 6 -16 17 -30 23 -30 12
0 10 15 -5 53 -5 12 -2 17 9 17 22 0 32 47 14 68 -8 9 -18 25 -21 35 -4 9 -16
17 -27 17 -16 0 -21 -6 -19 -22z"/>
</g>
</svg>
