<?xml version="1.0" standalone="no"?>
<!DOCTYPE svg PUBLIC "-//W3C//DTD SVG 20010904//EN"
 "http://www.w3.org/TR/2001/REC-SVG-20010904/DTD/svg10.dtd">
<svg version="1.0" xmlns="http://www.w3.org/2000/svg"
 width="154.000000pt" height="286.000000pt" viewBox="0 0 154.000000 286.000000"
 preserveAspectRatio="xMidYMid meet">
<metadata>
Created by potrace 1.14, written by Peter Selinger 2001-2017
</metadata>
<g transform="translate(0.000000,286.000000) scale(0.100000,-0.100000)"
fill="#000000" stroke="none">
<path fill="#000000" stroke="none" d="M882 2838 c-49 -25 -56 -43 -73 -184
-14 -106 -1 -221 30 -283 l20 -38 -128 -99 c-71 -54 -142 -106 -158 -115 -32
-17 -109 -142 -98 -159 3 -6 15 -10 26 -10 10 0 19 -4 19 -8 0 -4 -25 -70 -56
-147 -53 -133 -55 -141 -43 -177 10 -31 10 -48 -1 -91 -7 -28 -16 -140 -21
-247 -8 -237 -20 -322 -53 -380 -30 -56 -86 -247 -88 -306 l-2 -43 -46 6 c-33
4 -52 13 -70 34 -79 90 -150 32 -133 -110 5 -46 8 -50 53 -71 30 -14 72 -49
115 -97 77 -85 99 -98 149 -89 46 9 66 51 71 150 4 78 37 151 126 283 26 40
53 91 59 115 6 24 18 60 26 81 8 21 12 42 9 47 -3 5 -1 11 5 15 5 3 10 -2 10
-11 0 -15 112 -143 133 -153 5 -2 22 6 38 18 16 12 29 17 29 12 0 -5 -4 -12
-9 -16 -5 -3 -15 -22 -21 -43 -7 -20 -23 -58 -35 -83 -13 -26 -26 -62 -30 -80
-12 -54 -53 -127 -75 -134 -34 -11 -80 -115 -80 -182 0 -31 -6 -84 -12 -117
-10 -47 -10 -60 0 -64 6 -2 12 -14 12 -27 0 -21 6 -24 69 -30 54 -5 75 -3 100
9 l31 17 0 139 0 139 94 65 c84 58 100 75 141 143 26 43 49 79 50 81 2 2 31
-2 64 -8 59 -11 63 -10 81 12 11 13 25 50 32 82 12 54 18 63 73 109 51 42 71
71 131 180 49 88 76 149 84 190 14 71 13 421 -2 577 -10 107 -134 643 -163
708 l-15 32 -94 0 -94 0 3 128 c2 111 0 131 -17 162 -29 54 -72 77 -153 84
-59 5 -76 2 -113 -16z"/>
</g>
</svg>
