<?xml version="1.0" standalone="no"?>
<!DOCTYPE svg PUBLIC "-//W3C//DTD SVG 20010904//EN"
 "http://www.w3.org/TR/2001/REC-SVG-20010904/DTD/svg10.dtd">
<svg version="1.0" xmlns="http://www.w3.org/2000/svg"
 width="30.000000pt" height="65.000000pt" viewBox="0 0 30.000000 65.000000"
 preserveAspectRatio="xMidYMid meet">
<metadata>
Created by potrace 1.14, written by Peter Selinger 2001-2017
</metadata>
<g transform="translate(0.000000,65.000000) scale(0.100000,-0.100000)"
fill="#000000" stroke="none">
<path fill="#000000" stroke="none" d="M110 618 c-20 -18 -52 -47 -72 -65
l-37 -32 23 -69 c23 -66 23 -73 10 -128 -13 -55 -13 -62 7 -105 l21 -46 74 -7
c41 -4 81 -10 90 -13 19 -7 55 -76 65 -123 4 -19 7 110 8 288 l1 322 -57 0
c-32 0 -67 2 -78 5 -13 3 -32 -6 -55 -27z"/>
</g>
</svg>
