<?xml version="1.0" standalone="no"?>
<!DOCTYPE svg PUBLIC "-//W3C//DTD SVG 20010904//EN"
 "http://www.w3.org/TR/2001/REC-SVG-20010904/DTD/svg10.dtd">
<svg version="1.0" xmlns="http://www.w3.org/2000/svg"
 width="39.000000pt" height="77.000000pt" viewBox="0 0 39.000000 77.000000"
 preserveAspectRatio="xMidYMid meet">
<metadata>
Created by potrace 1.14, written by Peter Selinger 2001-2017
</metadata>
<g transform="translate(0.000000,77.000000) scale(0.100000,-0.100000)"
fill="#000000" stroke="none">
<path fill="#000000" stroke="none" d="M4 753 c3 -10 14 -70 25 -133 21 -113
21 -116 2 -180 -27 -96 -21 -116 55 -174 l64 -48 0 -67 c0 -92 6 -105 54 -129
l43 -20 36 36 c42 44 81 134 98 224 12 63 11 67 -26 179 -32 95 -44 119 -74
145 -20 18 -61 66 -91 108 l-55 75 -68 1 c-60 0 -68 -2 -63 -17z"/>
</g>
</svg>
