<?xml version="1.0" standalone="no"?>
<!DOCTYPE svg PUBLIC "-//W3C//DTD SVG 20010904//EN"
 "http://www.w3.org/TR/2001/REC-SVG-20010904/DTD/svg10.dtd">
<svg version="1.0" xmlns="http://www.w3.org/2000/svg"
 width="18.000000pt" height="39.000000pt" viewBox="0 0 18.000000 39.000000"
 preserveAspectRatio="xMidYMid meet">
<metadata>
Created by potrace 1.14, written by Peter Selinger 2001-2017
</metadata>
<g transform="translate(0.000000,39.000000) scale(0.100000,-0.100000)"
fill="#000000" stroke="none">
<path fill="#000000" stroke="none" d="M90 366 c-12 -14 -20 -32 -17 -40 16
-41 -38 -226 -66 -226 -4 0 -7 -12 -5 -27 4 -33 29 -41 52 -18 15 15 16 15 22
-2 11 -35 21 -48 40 -48 16 0 18 9 15 102 -3 102 -2 103 23 113 27 10 33 24
15 36 -7 4 -8 20 -4 41 6 32 5 34 -15 28 -19 -6 -21 -4 -16 13 7 20 -1 52 -13
52 -4 0 -18 -11 -31 -24z"/>
</g>
</svg>
