<?xml version="1.0" standalone="no"?>
<!DOCTYPE svg PUBLIC "-//W3C//DTD SVG 20010904//EN"
 "http://www.w3.org/TR/2001/REC-SVG-20010904/DTD/svg10.dtd">
<svg version="1.0" xmlns="http://www.w3.org/2000/svg"
 width="186.000000pt" height="350.000000pt" viewBox="0 0 186.000000 350.000000"
 preserveAspectRatio="xMidYMid meet">
<metadata>
Created by potrace 1.14, written by Peter Selinger 2001-2017
</metadata>
<g transform="translate(0.000000,350.000000) scale(0.100000,-0.100000)"
fill="#000000" stroke="none">
<path fill="#000000" stroke="none" d="M640 3476 c-94 -28 -95 -29 -170 -100
-79 -75 -166 -211 -149 -232 9 -11 9 -18 -1 -29 -16 -20 -7 -345 10 -355 7 -4
10 -85 8 -248 -2 -133 0 -242 5 -242 4 0 7 -51 7 -113 l0 -113 -49 -18 c-27
-9 -59 -28 -71 -41 -22 -24 -23 -26 -16 -217 7 -175 15 -268 32 -353 6 -29 5
-29 -49 23 -71 67 -90 67 -150 3 l-45 -48 40 -114 c22 -63 49 -121 58 -129 14
-12 20 -37 25 -115 3 -55 14 -146 23 -202 l17 -102 138 -161 139 -161 -9 -167
c-5 -92 -9 -168 -9 -169 2 -4 1337 -75 1342 -71 3 3 -8 174 -23 379 -23 301
-27 398 -21 499 9 137 2 124 93 197 l40 31 0 319 c0 306 -1 323 -27 448 -15
72 -29 139 -31 151 -3 17 0 20 21 16 25 -5 25 -5 18 54 -4 32 -9 68 -12 80 -9
36 -117 103 -257 159 l-132 53 -56 233 c-53 216 -64 248 -138 411 -66 143 -79
181 -71 195 9 14 7 29 -9 65 -18 39 -37 58 -119 114 -97 68 -97 68 -197 81
-125 15 -116 16 -205 -11z"/>
</g>
</svg>
