<?xml version="1.0" standalone="no"?>
<!DOCTYPE svg PUBLIC "-//W3C//DTD SVG 20010904//EN"
 "http://www.w3.org/TR/2001/REC-SVG-20010904/DTD/svg10.dtd">
<svg version="1.0" xmlns="http://www.w3.org/2000/svg"
 width="79.000000pt" height="152.000000pt" viewBox="0 0 79.000000 152.000000"
 preserveAspectRatio="xMidYMid meet">
<metadata>
Created by potrace 1.14, written by Peter Selinger 2001-2017
</metadata>
<g transform="translate(0.000000,152.000000) scale(0.100000,-0.100000)"
fill="#000000" stroke="none">
<path fill="#000000" stroke="none" d="M261 1470 c-55 -28 -101 -53 -101 -57
0 -3 14 -28 30 -55 21 -33 30 -61 30 -90 0 -28 8 -51 24 -72 34 -45 66 -112
66 -138 0 -13 9 -38 21 -57 l20 -33 -20 -22 c-12 -12 -21 -35 -21 -52 0 -16
-8 -43 -18 -59 -28 -45 -45 -129 -40 -193 3 -31 2 -64 -3 -72 -4 -8 -10 -23
-13 -32 -7 -22 -39 -23 -72 -2 -19 13 -39 15 -85 11 -34 -3 -66 -10 -71 -15
-6 -6 10 -6 43 -1 29 5 55 6 57 4 3 -3 7 -38 10 -80 l5 -75 42 0 43 0 6 -63
c3 -34 8 -109 11 -167 9 -158 5 -150 75 -150 l60 0 0 41 c0 35 10 54 62 125
53 72 67 85 97 90 99 15 180 33 212 47 l35 14 14 103 c30 239 -13 477 -108
595 -92 115 -106 152 -92 241 6 32 7 91 4 130 l-6 71 -53 31 c-82 49 -136 45
-264 -18z"/>
</g>
</svg>
