<?xml version="1.0" standalone="no"?>
<!DOCTYPE svg PUBLIC "-//W3C//DTD SVG 20010904//EN"
 "http://www.w3.org/TR/2001/REC-SVG-20010904/DTD/svg10.dtd">
<svg version="1.0" xmlns="http://www.w3.org/2000/svg"
 width="323.000000pt" height="608.000000pt" viewBox="0 0 323.000000 608.000000"
 preserveAspectRatio="xMidYMid meet">
<metadata>
Created by potrace 1.14, written by Peter Selinger 2001-2017
</metadata>
<g transform="translate(0.000000,608.000000) scale(0.100000,-0.100000)"
fill="#000000" stroke="none">
<path fill="#000000" stroke="none" d="M950 6058 c-26 -13 -95 -66 -156 -117
l-110 -94 23 -186 c12 -102 25 -206 28 -231 5 -45 5 -46 -73 -134 l-78 -90 9
-85 c6 -57 5 -113 -2 -166 -17 -126 -14 -282 9 -376 10 -45 23 -86 27 -90 4
-4 50 -24 101 -44 l92 -37 0 -93 c0 -92 1 -96 100 -380 55 -159 99 -290 97
-291 -2 -2 -49 -23 -104 -48 -55 -24 -123 -60 -150 -81 -42 -31 -50 -41 -44
-61 4 -16 193 -150 681 -482 l675 -459 3 -42 c2 -22 1 -41 -2 -41 -4 0 -315
215 -694 478 -378 263 -699 486 -714 496 l-28 18 -112 -106 -113 -105 -73
-220 c-72 -216 -75 -229 -208 -921 l-134 -702 0 -217 -1 -216 98 -247 c67
-171 103 -248 113 -248 8 0 186 32 395 70 208 38 381 67 383 65 3 -2 14 -130
26 -284 12 -154 24 -282 27 -285 3 -4 458 -5 1011 -4 l1005 3 -164 263 c-89
144 -163 265 -163 267 0 3 47 36 104 74 l104 70 6 63 c3 35 11 162 17 283 l11
220 130 209 129 210 -36 80 -36 81 -167 86 -167 86 -180 -9 c-109 -5 -194 -14
-215 -22 l-35 -14 -73 131 -72 130 0 202 0 202 -80 145 c-78 141 -82 147 -202
259 -68 63 -158 146 -200 183 l-78 69 0 101 c0 80 4 107 18 131 10 17 42 100
70 185 l52 155 64 50 65 50 145 326 146 327 -15 202 -16 202 -58 117 c-36 72
-74 170 -101 259 -42 142 -44 146 -179 360 l-137 217 -99 42 c-88 37 -117 44
-243 57 -79 9 -202 19 -275 22 -125 6 -134 5 -177 -18z"/>
</g>
</svg>
