<?xml version="1.0" standalone="no"?>
<!DOCTYPE svg PUBLIC "-//W3C//DTD SVG 20010904//EN"
 "http://www.w3.org/TR/2001/REC-SVG-20010904/DTD/svg10.dtd">
<svg version="1.0" xmlns="http://www.w3.org/2000/svg"
 width="20.000000pt" height="39.000000pt" viewBox="0 0 20.000000 39.000000"
 preserveAspectRatio="xMidYMid meet">
<metadata>
Created by potrace 1.14, written by Peter Selinger 2001-2017
</metadata>
<g transform="translate(0.000000,39.000000) scale(0.100000,-0.100000)"
fill="#000000" stroke="none">
<path fill="#000000" stroke="none" d="M82 378 c-6 -6 -12 -22 -12 -34 0 -14
-8 -25 -20 -29 -36 -11 -60 -154 -31 -188 8 -10 28 -17 47 -17 33 0 34 -1 34
-40 0 -29 4 -40 15 -40 9 0 12 -6 8 -17 -4 -11 -3 -14 5 -9 7 4 12 33 12 72 0
35 4 64 10 64 5 0 19 19 31 41 26 52 19 99 -19 129 -15 12 -29 34 -32 48 -6
30 -29 39 -48 20z"/>
</g>
</svg>
