<?xml version="1.0" standalone="no"?>
<!DOCTYPE svg PUBLIC "-//W3C//DTD SVG 20010904//EN"
 "http://www.w3.org/TR/2001/REC-SVG-20010904/DTD/svg10.dtd">
<svg version="1.0" xmlns="http://www.w3.org/2000/svg"
 width="32.000000pt" height="59.000000pt" viewBox="0 0 32.000000 59.000000"
 preserveAspectRatio="xMidYMid meet">
<metadata>
Created by potrace 1.14, written by Peter Selinger 2001-2017
</metadata>
<g transform="translate(0.000000,59.000000) scale(0.100000,-0.100000)"
fill="#000000" stroke="none">
<path fill="#000000" stroke="none" d="M115 575 c-16 -7 -38 -27 -47 -43 -16
-27 -16 -34 -4 -70 l15 -41 -40 -44 c-21 -25 -39 -50 -39 -56 0 -7 9 -30 21
-53 14 -28 24 -73 29 -137 12 -132 11 -131 75 -131 61 0 59 -2 70 95 3 33 9
75 12 93 l6 34 53 -4 54 -3 0 32 c0 21 -8 38 -23 50 -45 35 -62 74 -68 155 -5
68 -9 82 -34 108 -32 33 -37 34 -80 15z"/>
</g>
</svg>
