<?xml version="1.0" standalone="no"?>
<!DOCTYPE svg PUBLIC "-//W3C//DTD SVG 20010904//EN"
 "http://www.w3.org/TR/2001/REC-SVG-20010904/DTD/svg10.dtd">
<svg version="1.0" xmlns="http://www.w3.org/2000/svg"
 width="14.000000pt" height="28.000000pt" viewBox="0 0 14.000000 28.000000"
 preserveAspectRatio="xMidYMid meet">
<metadata>
Created by potrace 1.14, written by Peter Selinger 2001-2017
</metadata>
<g transform="translate(0.000000,28.000000) scale(0.100000,-0.100000)"
fill="#000000" stroke="none">
<path fill="#000000" stroke="none" d="M40 269 c0 -7 -7 -17 -16 -24 -14 -9
-16 -27 -14 -91 2 -43 3 -93 4 -111 2 -62 36 -51 36 12 0 17 6 39 14 50 7 11
19 37 25 58 9 27 18 37 34 38 15 0 17 2 7 6 -8 3 -28 21 -46 40 -33 35 -44 40
-44 22z"/>
</g>
</svg>
