<?xml version="1.0" standalone="no"?>
<!DOCTYPE svg PUBLIC "-//W3C//DTD SVG 20010904//EN"
 "http://www.w3.org/TR/2001/REC-SVG-20010904/DTD/svg10.dtd">
<svg version="1.0" xmlns="http://www.w3.org/2000/svg"
 width="18.000000pt" height="40.000000pt" viewBox="0 0 18.000000 40.000000"
 preserveAspectRatio="xMidYMid meet">
<metadata>
Created by potrace 1.14, written by Peter Selinger 2001-2017
</metadata>
<g transform="translate(0.000000,40.000000) scale(0.100000,-0.100000)"
fill="#000000" stroke="none">
<path fill="#000000" stroke="none" d="M117 393 c-4 -3 -7 -20 -7 -37 0 -17
-3 -47 -6 -67 -6 -33 -8 -35 -38 -32 -29 4 -30 3 -12 -11 10 -8 24 -17 30 -19
6 -3 -5 -22 -26 -43 -28 -30 -37 -49 -40 -84 -3 -25 -8 -53 -12 -62 -14 -31
18 -21 37 12 20 34 29 37 47 15 10 -12 10 -19 2 -27 -14 -14 -16 -38 -3 -38 6
0 22 10 36 23 l26 22 -30 42 -30 41 21 19 c32 29 48 69 48 122 0 28 5 62 12
77 11 23 10 28 -7 40 -20 15 -38 18 -48 7z"/>
</g>
</svg>
