<?xml version="1.0" standalone="no"?>
<!DOCTYPE svg PUBLIC "-//W3C//DTD SVG 20010904//EN"
 "http://www.w3.org/TR/2001/REC-SVG-20010904/DTD/svg10.dtd">
<svg version="1.0" xmlns="http://www.w3.org/2000/svg"
 width="21.000000pt" height="46.000000pt" viewBox="0 0 21.000000 46.000000"
 preserveAspectRatio="xMidYMid meet">
<metadata>
Created by potrace 1.14, written by Peter Selinger 2001-2017
</metadata>
<g transform="translate(0.000000,46.000000) scale(0.100000,-0.100000)"
fill="#000000" stroke="none">
<path fill="#000000" stroke="none" d="M147 453 c-4 -6 0 -27 8 -47 14 -32 14
-36 0 -36 -9 0 -15 9 -15 24 0 34 -30 43 -52 16 -10 -12 -18 -29 -18 -38 0 -8
-8 -24 -17 -34 -22 -25 -20 -154 3 -179 13 -14 13 -18 -1 -29 -9 -7 -25 -26
-36 -41 -16 -23 -17 -32 -8 -53 16 -34 28 -33 35 3 3 15 16 41 28 56 l22 28
-4 -62 c-4 -61 -4 -61 19 -52 13 4 25 17 25 27 6 65 5 169 -1 227 -7 62 -6 67
12 67 26 0 63 28 63 48 0 24 -55 89 -63 75z"/>
</g>
</svg>
