<?xml version="1.0" standalone="no"?>
<!DOCTYPE svg PUBLIC "-//W3C//DTD SVG 20010904//EN"
 "http://www.w3.org/TR/2001/REC-SVG-20010904/DTD/svg10.dtd">
<svg version="1.0" xmlns="http://www.w3.org/2000/svg"
 width="24.000000pt" height="44.000000pt" viewBox="0 0 24.000000 44.000000"
 preserveAspectRatio="xMidYMid meet">
<metadata>
Created by potrace 1.14, written by Peter Selinger 2001-2017
</metadata>
<g transform="translate(0.000000,44.000000) scale(0.100000,-0.100000)"
fill="#000000" stroke="none">
<path fill="#000000" stroke="none" d="M104 429 c-26 -7 -33 -16 -39 -46 -3
-20 -20 -64 -37 -96 l-30 -60 21 -64 c12 -35 21 -70 21 -77 0 -13 94 -63 149
-81 19 -6 20 -3 14 47 -6 47 -4 52 9 40 13 -11 16 -2 21 70 4 64 2 87 -9 99
-12 14 -12 21 2 54 20 49 6 86 -42 108 -39 19 -37 19 -80 6z"/>
</g>
</svg>
