<?xml version="1.0" standalone="no"?>
<!DOCTYPE svg PUBLIC "-//W3C//DTD SVG 20010904//EN"
 "http://www.w3.org/TR/2001/REC-SVG-20010904/DTD/svg10.dtd">
<svg version="1.0" xmlns="http://www.w3.org/2000/svg"
 width="30.000000pt" height="58.000000pt" viewBox="0 0 30.000000 58.000000"
 preserveAspectRatio="xMidYMid meet">
<metadata>
Created by potrace 1.14, written by Peter Selinger 2001-2017
</metadata>
<g transform="translate(0.000000,58.000000) scale(0.100000,-0.100000)"
fill="#000000" stroke="none">
<path fill="#000000" stroke="none" d="M57 573 c-14 -4 -17 -14 -16 -51 2 -27
-7 -77 -19 -115 l-22 -69 26 -44 c23 -39 26 -55 27 -156 l2 -111 28 -10 c38
-12 57 5 34 31 -13 15 -14 24 -5 60 6 23 14 42 18 42 10 0 33 -107 25 -119 -9
-16 34 -33 66 -26 17 4 28 10 27 13 -28 51 -39 101 -52 227 -9 81 -16 149 -16
150 0 1 27 10 60 20 48 15 60 22 60 39 0 19 -5 21 -60 18 -71 -4 -111 18 -126
70 -10 33 -23 40 -57 31z"/>
</g>
</svg>
