<?xml version="1.0" standalone="no"?>
<!DOCTYPE svg PUBLIC "-//W3C//DTD SVG 20010904//EN"
 "http://www.w3.org/TR/2001/REC-SVG-20010904/DTD/svg10.dtd">
<svg version="1.0" xmlns="http://www.w3.org/2000/svg"
 width="136.000000pt" height="284.000000pt" viewBox="0 0 136.000000 284.000000"
 preserveAspectRatio="xMidYMid meet">
<metadata>
Created by potrace 1.14, written by Peter Selinger 2001-2017
</metadata>
<g transform="translate(0.000000,284.000000) scale(0.100000,-0.100000)"
fill="#000000" stroke="none">
<path fill="#000000" stroke="none" d="M911 2807 l-84 -32 -81 -114 -81 -114
-175 -98 c-181 -101 -194 -111 -274 -228 -45 -64 -51 -82 -131 -384 l-83 -317
23 -162 c22 -151 22 -172 11 -282 l-12 -120 85 -218 84 -219 -46 -117 c-53
-133 -87 -269 -87 -348 l0 -54 160 0 160 0 -10 24 c-6 16 -4 94 5 218 16 216
34 350 67 483 17 74 28 96 58 129 l37 40 56 -87 c49 -75 60 -87 84 -87 16 0
52 -3 81 -6 l52 -7 0 46 c0 42 3 47 26 53 20 5 24 11 20 28 -3 11 -8 40 -12
63 l-7 43 84 0 c46 0 90 4 97 9 10 6 1 34 -41 125 l-55 118 40 86 c22 48 44
90 47 95 4 4 18 -18 30 -48 l23 -55 62 0 c70 0 86 10 86 55 0 23 -20 53 -90
135 -49 58 -90 112 -90 120 0 8 7 71 14 139 13 114 13 136 -5 260 -10 74 -19
137 -19 138 0 2 31 23 69 48 56 38 80 63 134 143 36 53 83 132 103 174 l38 78
-39 79 -38 79 -128 61 c-70 34 -136 61 -146 61 -10 -1 -56 -15 -102 -33z"/>
</g>
</svg>
