<?xml version="1.0" standalone="no"?>
<!DOCTYPE svg PUBLIC "-//W3C//DTD SVG 20010904//EN"
 "http://www.w3.org/TR/2001/REC-SVG-20010904/DTD/svg10.dtd">
<svg version="1.0" xmlns="http://www.w3.org/2000/svg"
 width="49.000000pt" height="95.000000pt" viewBox="0 0 49.000000 95.000000"
 preserveAspectRatio="xMidYMid meet">
<metadata>
Created by potrace 1.14, written by Peter Selinger 2001-2017
</metadata>
<g transform="translate(0.000000,95.000000) scale(0.100000,-0.100000)"
fill="#000000" stroke="none">
<path fill="#000000" stroke="none" d="M165 930 c-25 -28 -21 -123 6 -161 22
-31 24 -67 6 -90 -7 -8 -40 -31 -75 -49 -47 -25 -68 -43 -83 -71 -25 -49 -25
-49 14 -43 19 4 45 20 63 40 17 19 34 34 38 34 14 0 5 -37 -19 -75 -19 -31
-24 -54 -25 -102 0 -58 2 -65 40 -108 46 -53 49 -82 26 -212 l-13 -72 46 -6
c25 -3 56 -7 68 -9 19 -3 22 3 28 59 7 70 27 96 101 133 48 25 59 60 38 121
-7 20 -13 54 -13 76 0 35 5 44 39 70 35 27 39 34 40 77 0 45 -3 51 -76 128
-79 85 -113 144 -114 196 0 48 -34 84 -79 84 -25 0 -44 -7 -56 -20z"/>
</g>
</svg>
