<?xml version="1.0" standalone="no"?>
<!DOCTYPE svg PUBLIC "-//W3C//DTD SVG 20010904//EN"
 "http://www.w3.org/TR/2001/REC-SVG-20010904/DTD/svg10.dtd">
<svg version="1.0" xmlns="http://www.w3.org/2000/svg"
 width="63.000000pt" height="118.000000pt" viewBox="0 0 63.000000 118.000000"
 preserveAspectRatio="xMidYMid meet">
<metadata>
Created by potrace 1.14, written by Peter Selinger 2001-2017
</metadata>
<g transform="translate(0.000000,118.000000) scale(0.100000,-0.100000)"
fill="#000000" stroke="none">
<path fill="#000000" stroke="none" d="M117 1162 c-10 -10 -17 -26 -17 -34 0
-9 -7 -31 -15 -51 -8 -19 -19 -68 -26 -109 -6 -40 -17 -95 -25 -122 -8 -30
-14 -97 -15 -165 0 -64 -3 -146 -8 -183 -4 -40 -3 -72 2 -77 11 -11 242 -4
272 9 40 17 54 19 60 10 4 -6 26 -10 50 -10 47 0 75 24 75 63 0 14 5 17 23 12
12 -4 26 -11 32 -16 5 -5 24 -9 41 -9 38 0 64 29 64 70 0 45 -24 66 -89 79
-32 6 -64 18 -70 25 -7 8 -22 17 -35 20 -29 7 -99 89 -114 134 -6 19 -29 55
-50 80 -52 63 -58 82 -27 82 39 0 55 34 48 104 -8 93 -20 106 -97 106 -48 0
-67 -4 -79 -18z"/>
<path fill="#ffffff" stroke="none" d="M259 586 c7 -8 8 -17 3 -20 -6 -3 -12
3 -15 14 -6 24 -4 25 12 6z"/>
<path fill="#000000" stroke="none" d="M594 299 c-17 -10 -48 -46 -68 -79 -21
-33 -43 -60 -49 -60 -7 0 -50 7 -97 15 -47 8 -127 15 -177 15 l-93 0 0 -44 c0
-32 5 -46 18 -51 9 -5 88 -10 175 -13 l158 -4 16 -33 c15 -31 20 -33 80 -40
36 -4 67 -5 69 -2 3 2 3 74 2 160 l-3 156 -31 -20z"/>
</g>
</svg>
