<?xml version="1.0" standalone="no"?>
<!DOCTYPE svg PUBLIC "-//W3C//DTD SVG 20010904//EN"
 "http://www.w3.org/TR/2001/REC-SVG-20010904/DTD/svg10.dtd">
<svg version="1.0" xmlns="http://www.w3.org/2000/svg"
 width="72.000000pt" height="151.000000pt" viewBox="0 0 72.000000 151.000000"
 preserveAspectRatio="xMidYMid meet">
<metadata>
Created by potrace 1.14, written by Peter Selinger 2001-2017
</metadata>
<g transform="translate(0.000000,151.000000) scale(0.100000,-0.100000)"
fill="#000000" stroke="none">
<path fill="#000000" stroke="none" d="M220 1496 c-29 -10 -38 -21 -52 -62
-21 -61 -23 -136 -3 -173 21 -41 9 -97 -25 -123 -21 -15 -32 -37 -44 -87 -14
-56 -96 -765 -96 -827 0 -28 59 -50 155 -59 119 -10 187 -30 212 -62 l23 -28
-27 -22 c-15 -12 -24 -25 -20 -29 7 -8 138 -26 144 -21 2 2 6 31 9 65 5 47 11
63 25 67 18 6 23 22 37 120 7 45 10 50 41 59 21 6 42 23 58 48 22 33 25 48 24
112 -1 48 4 89 15 117 29 79 28 97 -25 249 -65 189 -73 208 -113 251 -25 27
-44 38 -78 43 -40 6 -48 11 -67 49 -20 37 -22 52 -17 132 8 115 -1 137 -65
170 -56 28 -62 29 -111 11z"/>
<path fill="#ffffff" stroke="none" d="M435 737 c8 -13 46 -38 84 -57 l70 -33
7 -53 c6 -49 4 -55 -26 -93 -22 -27 -34 -54 -37 -85 -8 -66 -59 -123 -117
-131 -75 -12 -118 1 -146 42 -14 20 -42 57 -63 82 -31 38 -37 53 -37 92 0 54
28 149 46 156 7 2 29 0 49 -6 33 -9 40 -8 57 12 13 16 17 32 14 60 l-4 37 44
0 c34 0 47 -5 59 -23z"/>
</g>
</svg>
