<?xml version="1.0" standalone="no"?>
<!DOCTYPE svg PUBLIC "-//W3C//DTD SVG 20010904//EN"
 "http://www.w3.org/TR/2001/REC-SVG-20010904/DTD/svg10.dtd">
<svg version="1.0" xmlns="http://www.w3.org/2000/svg"
 width="19.000000pt" height="38.000000pt" viewBox="0 0 19.000000 38.000000"
 preserveAspectRatio="xMidYMid meet">
<metadata>
Created by potrace 1.14, written by Peter Selinger 2001-2017
</metadata>
<g transform="translate(0.000000,38.000000) scale(0.100000,-0.100000)"
fill="#000000" stroke="none">
<path fill="#000000" stroke="none" d="M60 370 c-12 -7 -13 -15 -4 -39 10 -26
9 -32 -14 -55 -24 -24 -26 -31 -27 -133 -1 -59 -3 -115 -6 -123 -7 -25 49 -25
72 -1 24 26 32 27 25 3 -5 -16 -2 -18 24 -14 28 4 30 7 30 46 1 22 7 52 14 65
21 38 9 120 -25 163 -16 20 -29 48 -29 61 0 33 -30 46 -60 27z"/>
</g>
</svg>
