<?xml version="1.0" standalone="no"?>
<!DOCTYPE svg PUBLIC "-//W3C//DTD SVG 20010904//EN"
 "http://www.w3.org/TR/2001/REC-SVG-20010904/DTD/svg10.dtd">
<svg version="1.0" xmlns="http://www.w3.org/2000/svg"
 width="47.000000pt" height="89.000000pt" viewBox="0 0 47.000000 89.000000"
 preserveAspectRatio="xMidYMid meet">
<metadata>
Created by potrace 1.14, written by Peter Selinger 2001-2017
</metadata>
<g transform="translate(0.000000,89.000000) scale(0.100000,-0.100000)"
fill="#000000" stroke="none">
<path fill="#000000" stroke="none" d="M194 857 c-4 -23 -23 -46 -65 -81 -70
-57 -85 -87 -81 -163 4 -49 7 -57 33 -72 34 -19 36 -40 8 -101 -25 -54 -40
-180 -30 -247 6 -43 4 -53 -25 -99 -30 -48 -31 -51 -14 -72 21 -25 48 -23 179
14 46 13 91 24 101 24 10 0 39 12 65 26 53 30 49 37 -27 48 -57 8 -54 -10 -33
212 19 211 25 245 36 238 18 -11 59 -103 59 -132 0 -51 13 -44 42 23 l29 65
-32 61 c-20 37 -58 84 -97 120 l-65 59 16 40 c8 22 12 40 9 40 -4 0 -28 7 -54
15 l-47 14 -7 -32z"/>
<path fill="#000000" stroke="none" d="M220 15 l-45 -14 49 2 c29 1 51 7 54
15 4 14 1 14 -58 -3z"/>
</g>
</svg>
