<?xml version="1.0" standalone="no"?>
<!DOCTYPE svg PUBLIC "-//W3C//DTD SVG 20010904//EN"
 "http://www.w3.org/TR/2001/REC-SVG-20010904/DTD/svg10.dtd">
<svg version="1.0" xmlns="http://www.w3.org/2000/svg"
 width="49.000000pt" height="91.000000pt" viewBox="0 0 49.000000 91.000000"
 preserveAspectRatio="xMidYMid meet">
<metadata>
Created by potrace 1.14, written by Peter Selinger 2001-2017
</metadata>
<g transform="translate(0.000000,91.000000) scale(0.100000,-0.100000)"
fill="#000000" stroke="none">
<path fill="#000000" stroke="none" d="M236 783 c3 -71 7 -134 10 -141 7 -23
-28 -82 -50 -82 -12 0 -30 -3 -42 -6 -16 -4 -24 1 -34 25 l-12 30 -38 -30
c-21 -17 -44 -48 -53 -69 -14 -38 -14 -39 27 -112 22 -41 95 -149 161 -239
l120 -164 3 41 c3 36 8 44 41 62 21 12 52 22 69 22 28 0 31 3 41 50 6 28 11
121 11 206 l0 155 -56 51 c-45 41 -54 56 -50 74 7 27 -27 182 -49 225 -14 26
-21 29 -60 29 l-45 0 6 -127z"/>
</g>
</svg>
