<?xml version="1.0" standalone="no"?>
<!DOCTYPE svg PUBLIC "-//W3C//DTD SVG 20010904//EN"
 "http://www.w3.org/TR/2001/REC-SVG-20010904/DTD/svg10.dtd">
<svg version="1.0" xmlns="http://www.w3.org/2000/svg"
 width="181.000000pt" height="352.000000pt" viewBox="0 0 181.000000 352.000000"
 preserveAspectRatio="xMidYMid meet">
<metadata>
Created by potrace 1.14, written by Peter Selinger 2001-2017
</metadata>
<g transform="translate(0.000000,352.000000) scale(0.100000,-0.100000)"
fill="#000000" stroke="none">
<path fill="#000000" stroke="none" d="M1339 3248 l-203 -273 -36 -125 c-20
-69 -38 -131 -41 -138 -7 -20 -257 191 -564 478 -322 300 -290 284 -419 203
l-72 -46 23 -66 c23 -61 70 -119 98 -121 5 0 23 13 40 30 l30 29 38 -22 c29
-17 73 -76 185 -244 l147 -220 148 -124 147 -124 0 -107 0 -108 79 -40 80 -40
-6 -37 c-3 -21 -15 -67 -25 -103 -11 -36 -24 -92 -29 -125 -5 -33 -19 -100
-32 -148 -22 -86 -22 -92 -10 -259 l13 -171 -50 -187 c-50 -185 -50 -188 -50
-336 0 -82 5 -167 11 -189 6 -22 10 -47 11 -55 0 -8 4 -37 9 -65 7 -38 3 -91
-17 -229 -14 -99 -32 -192 -40 -208 -8 -15 -14 -36 -14 -46 0 -18 13 -19 227
-25 124 -4 304 -7 398 -7 l172 0 16 60 c12 43 17 100 17 208 l0 149 93 19 92
20 3 173 c2 167 1 177 -30 294 l-32 121 23 587 c18 475 20 591 10 610 -7 13
-32 54 -57 91 l-44 67 11 298 c6 164 13 337 16 384 4 58 -1 132 -15 230 -11
79 -20 145 -20 146 0 6 -106 63 -117 63 -6 0 -103 -123 -214 -272z"/>
</g>
</svg>
