<?xml version="1.0" standalone="no"?>
<!DOCTYPE svg PUBLIC "-//W3C//DTD SVG 20010904//EN"
 "http://www.w3.org/TR/2001/REC-SVG-20010904/DTD/svg10.dtd">
<svg version="1.0" xmlns="http://www.w3.org/2000/svg"
 width="103.000000pt" height="225.000000pt" viewBox="0 0 103.000000 225.000000"
 preserveAspectRatio="xMidYMid meet">
<metadata>
Created by potrace 1.14, written by Peter Selinger 2001-2017
</metadata>
<g transform="translate(0.000000,225.000000) scale(0.100000,-0.100000)"
fill="#000000" stroke="none">
<path fill="#000000" stroke="none" d="M406 2166 c-42 -46 -76 -88 -76 -94 0
-5 27 -57 60 -115 33 -57 60 -108 60 -114 0 -5 -59 -38 -132 -74 l-132 -64
-44 -125 c-24 -69 -66 -187 -93 -263 l-49 -138 102 54 101 55 45 106 c25 58
47 104 49 102 3 -2 -1 -83 -7 -179 -10 -144 -24 -238 -79 -519 l-67 -342 51
-208 50 -208 41 0 c23 0 56 3 74 6 l32 7 -6 66 c-4 36 -9 89 -12 116 l-6 50
57 16 c41 12 58 14 60 5 3 -6 18 -65 36 -131 17 -66 35 -127 39 -135 6 -10 37
-18 95 -26 l87 -10 -6 55 c-21 206 -20 231 15 383 l33 146 -22 378 c-11 208
-20 380 -18 381 1 1 43 -100 94 -226 l92 -228 -39 -89 -39 -89 21 -40 c11 -22
26 -50 35 -62 16 -25 12 -27 91 40 l33 27 -52 448 c-28 246 -54 463 -57 483
-5 33 -20 49 -129 139 -68 56 -124 106 -124 111 0 5 20 50 45 99 l45 89 -33
24 c-50 37 -179 130 -213 155 l-32 22 -76 -84z"/>
</g>
</svg>
