<?xml version="1.0" standalone="no"?>
<!DOCTYPE svg PUBLIC "-//W3C//DTD SVG 20010904//EN"
 "http://www.w3.org/TR/2001/REC-SVG-20010904/DTD/svg10.dtd">
<svg version="1.0" xmlns="http://www.w3.org/2000/svg"
 width="220.000000pt" height="426.000000pt" viewBox="0 0 220.000000 426.000000"
 preserveAspectRatio="xMidYMid meet">
<metadata>
Created by potrace 1.14, written by Peter Selinger 2001-2017
</metadata>
<g transform="translate(0.000000,426.000000) scale(0.100000,-0.100000)"
fill="#000000" stroke="none">
<path fill="#000000" stroke="none" d="M579 4252 c-32 -3 -48 -18 -176 -166
l-141 -163 38 -125 c34 -115 46 -139 144 -292 59 -92 109 -173 112 -180 5 -14
-132 -385 -193 -521 -29 -63 -71 -122 -199 -279 l-163 -200 6 -65 c5 -50 24
-107 85 -250 64 -151 87 -218 119 -355 47 -202 48 -239 18 -610 -19 -236 -24
-268 -49 -331 -26 -63 -32 -104 -60 -388 -17 -176 -29 -322 -26 -325 9 -8
1539 46 1546 55 4 5 62 194 128 420 l122 413 -45 297 c-25 164 -47 305 -49
314 -2 12 44 35 196 99 109 45 201 87 204 91 2 5 -18 163 -46 351 l-50 343
-78 207 -77 208 -285 199 c-157 109 -292 200 -300 202 -9 2 -54 29 -102 59
-102 65 -96 45 -104 315 -5 175 -8 199 -37 300 -31 108 -33 111 -105 186 -65
69 -80 79 -155 107 -185 70 -243 87 -278 84z"/>
</g>
</svg>
