<?xml version="1.0" standalone="no"?>
<!DOCTYPE svg PUBLIC "-//W3C//DTD SVG 20010904//EN"
 "http://www.w3.org/TR/2001/REC-SVG-20010904/DTD/svg10.dtd">
<svg version="1.0" xmlns="http://www.w3.org/2000/svg"
 width="16.000000pt" height="30.000000pt" viewBox="0 0 16.000000 30.000000"
 preserveAspectRatio="xMidYMid meet">
<metadata>
Created by potrace 1.14, written by Peter Selinger 2001-2017
</metadata>
<g transform="translate(0.000000,30.000000) scale(0.100000,-0.100000)"
fill="#000000" stroke="none">
<path fill="#000000" stroke="none" d="M42 288 c-17 -21 -39 -82 -35 -95 3 -7
13 -13 22 -13 28 0 29 -7 11 -63 -10 -28 -20 -67 -23 -84 -6 -30 -4 -33 17
-33 23 0 24 2 15 36 -7 24 -7 45 0 67 13 37 71 80 98 71 14 -4 15 -4 4 4 -11
8 -11 10 0 15 11 4 12 7 2 18 -7 7 -13 25 -13 39 0 14 -5 31 -12 38 -16 16
-73 15 -86 0z"/>
</g>
</svg>
