<?xml version="1.0" standalone="no"?>
<!DOCTYPE svg PUBLIC "-//W3C//DTD SVG 20010904//EN"
 "http://www.w3.org/TR/2001/REC-SVG-20010904/DTD/svg10.dtd">
<svg version="1.0" xmlns="http://www.w3.org/2000/svg"
 width="27.000000pt" height="60.000000pt" viewBox="0 0 27.000000 60.000000"
 preserveAspectRatio="xMidYMid meet">
<metadata>
Created by potrace 1.14, written by Peter Selinger 2001-2017
</metadata>
<g transform="translate(0.000000,60.000000) scale(0.100000,-0.100000)"
fill="#000000" stroke="none">
<path fill="#000000" stroke="none" d="M123 590 c-31 -13 -34 -57 -7 -108 34
-65 9 -112 -61 -112 l-43 0 -6 -57 c-10 -103 -3 -135 35 -160 19 -12 56 -29
82 -37 l47 -14 0 48 c0 44 3 51 39 79 36 29 40 36 46 94 9 87 8 95 -8 160 -15
61 -58 118 -86 116 -9 0 -26 -4 -38 -9z"/>
<path fill="#000000" stroke="none" d="M2 86 c3 -25 11 -52 17 -60 7 -8 39
-17 73 -21 66 -8 78 -1 78 43 0 19 -4 22 -20 17 -14 -4 -43 6 -87 30 l-66 36
5 -45z"/>
</g>
</svg>
