<?xml version="1.0" standalone="no"?>
<!DOCTYPE svg PUBLIC "-//W3C//DTD SVG 20010904//EN"
 "http://www.w3.org/TR/2001/REC-SVG-20010904/DTD/svg10.dtd">
<svg version="1.0" xmlns="http://www.w3.org/2000/svg"
 width="105.000000pt" height="228.000000pt" viewBox="0 0 105.000000 228.000000"
 preserveAspectRatio="xMidYMid meet">
<metadata>
Created by potrace 1.14, written by Peter Selinger 2001-2017
</metadata>
<g transform="translate(0.000000,228.000000) scale(0.100000,-0.100000)"
fill="#000000" stroke="none">
<path fill="#000000" stroke="none" d="M376 2262 c-34 -38 -38 -85 -17 -169
22 -84 20 -89 -32 -118 -31 -16 -35 -25 -61 -126 -24 -92 -37 -121 -90 -200
-59 -88 -64 -92 -116 -108 -48 -15 -55 -20 -58 -45 -2 -18 4 -36 18 -51 35
-38 81 -24 171 51 l76 63 34 -42 c18 -23 59 -69 91 -102 l57 -61 6 -94 c4 -52
23 -166 42 -254 l36 -158 -17 -162 c-25 -234 -25 -234 -50 -240 -12 -3 -41
-22 -64 -42 -64 -54 -57 -69 63 -131 55 -29 103 -52 107 -53 4 0 10 9 13 20 9
28 54 80 70 80 7 0 18 -21 24 -47 7 -27 14 -55 16 -63 3 -10 -15 -27 -50 -50
-30 -19 -55 -38 -55 -41 0 -17 63 -58 115 -73 33 -10 72 -24 86 -32 21 -11 34
-10 75 2 l50 14 -4 63 c-2 34 -24 140 -48 235 -31 120 -55 249 -78 420 l-33
247 65 73 c53 59 70 72 86 67 45 -14 49 -11 62 40 6 28 15 76 19 108 5 44 14
66 36 91 l29 33 -22 99 c-38 179 -109 458 -125 487 -18 35 -25 29 -47 -39 -16
-49 -16 -52 8 -115 13 -35 49 -119 80 -186 44 -96 54 -127 47 -145 -5 -13 -5
-33 1 -48 6 -18 4 -35 -7 -61 -15 -31 -27 -40 -83 -62 -54 -20 -170 -47 -205
-47 -11 0 -37 58 -46 103 -12 55 -65 174 -128 284 -28 48 -72 130 -97 181 -40
80 -45 96 -35 115 7 12 18 26 26 30 18 11 53 81 53 109 0 32 58 68 110 68 22
0 40 3 40 8 -1 4 -22 24 -48 45 -41 32 -54 37 -99 37 -28 0 -58 2 -65 5 -8 3
-22 -3 -32 -13z"/>
</g>
</svg>
