<?xml version="1.0" standalone="no"?>
<!DOCTYPE svg PUBLIC "-//W3C//DTD SVG 20010904//EN"
 "http://www.w3.org/TR/2001/REC-SVG-20010904/DTD/svg10.dtd">
<svg version="1.0" xmlns="http://www.w3.org/2000/svg"
 width="68.000000pt" height="140.000000pt" viewBox="0 0 68.000000 140.000000"
 preserveAspectRatio="xMidYMid meet">
<metadata>
Created by potrace 1.14, written by Peter Selinger 2001-2017
</metadata>
<g transform="translate(0.000000,140.000000) scale(0.100000,-0.100000)"
fill="#000000" stroke="none">
<path fill="#000000" stroke="none" d="M260 1356 c-15 -33 -19 -54 -14 -80 6
-36 6 -36 -52 -61 -56 -24 -62 -30 -107 -109 -51 -91 -53 -96 -34 -96 13 0 15
-129 1 -163 -7 -18 20 -102 37 -112 5 -3 18 -1 30 5 15 9 19 17 14 33 -4 12
-6 32 -6 44 0 12 -4 25 -9 28 -6 4 -6 15 0 31 6 14 10 40 10 59 0 19 6 35 14
38 11 4 16 -8 21 -51 10 -97 8 -125 -15 -177 -21 -45 -22 -59 -17 -177 5 -106
2 -137 -13 -188 -16 -52 -17 -71 -8 -121 7 -39 7 -64 0 -72 -5 -6 -15 -28 -21
-48 -8 -25 -23 -42 -51 -58 -29 -16 -40 -29 -40 -46 0 -19 7 -25 33 -30 39 -7
147 24 158 45 4 8 19 108 34 222 19 149 32 222 49 259 l22 51 12 -28 c23 -50
34 -179 22 -267 -7 -45 -15 -86 -18 -92 -4 -5 -5 -34 -3 -63 1 -29 -1 -52 -7
-52 -13 0 -21 -35 -12 -51 7 -10 16 -10 49 -1 40 12 57 36 46 64 -3 8 1 21 10
28 8 7 15 27 15 44 0 17 7 51 16 75 9 28 17 100 21 195 3 83 11 161 17 173 8
16 9 58 4 135 -6 92 -4 123 9 165 13 42 19 50 30 42 7 -7 13 -20 13 -29 0 -10
22 -44 49 -76 43 -50 48 -61 40 -82 -12 -32 -4 -40 20 -18 17 16 19 15 34 -6
l16 -23 0 32 c1 17 -3 34 -8 38 -5 3 -13 20 -17 38 -3 17 -24 58 -46 89 -29
44 -36 62 -30 75 7 13 -1 42 -31 106 l-40 87 -73 22 c-78 22 -89 35 -58 69 12
13 14 28 9 58 -6 37 -10 42 -48 52 -23 6 -45 13 -49 15 -3 2 -16 -16 -28 -40z"/>
</g>
</svg>
