<?xml version="1.0" standalone="no"?>
<!DOCTYPE svg PUBLIC "-//W3C//DTD SVG 20010904//EN"
 "http://www.w3.org/TR/2001/REC-SVG-20010904/DTD/svg10.dtd">
<svg version="1.0" xmlns="http://www.w3.org/2000/svg"
 width="12.000000pt" height="25.000000pt" viewBox="0 0 12.000000 25.000000"
 preserveAspectRatio="xMidYMid meet">
<metadata>
Created by potrace 1.14, written by Peter Selinger 2001-2017
</metadata>
<g transform="translate(0.000000,25.000000) scale(0.100000,-0.100000)"
fill="#000000" stroke="none">
<path fill="#000000" stroke="none" d="M62 238 c-7 -7 -12 -23 -12 -37 0 -14
-9 -34 -20 -46 -15 -16 -22 -41 -26 -91 -4 -50 -3 -65 5 -54 6 8 11 21 11 29
0 7 11 26 25 43 14 17 25 42 25 59 0 19 10 39 25 55 29 29 31 40 9 48 -22 8
-28 8 -42 -6z"/>
</g>
</svg>
