<?xml version="1.0" standalone="no"?>
<!DOCTYPE svg PUBLIC "-//W3C//DTD SVG 20010904//EN"
 "http://www.w3.org/TR/2001/REC-SVG-20010904/DTD/svg10.dtd">
<svg version="1.0" xmlns="http://www.w3.org/2000/svg"
 width="141.000000pt" height="307.000000pt" viewBox="0 0 141.000000 307.000000"
 preserveAspectRatio="xMidYMid meet">
<metadata>
Created by potrace 1.14, written by Peter Selinger 2001-2017
</metadata>
<g transform="translate(0.000000,307.000000) scale(0.100000,-0.100000)"
fill="#000000" stroke="none">
<path fill="#000000" stroke="none" d="M593 3058 c-39 -13 -40 -16 -48 -138
l-7 -96 -44 -28 c-29 -19 -53 -45 -69 -75 -13 -25 -55 -77 -93 -115 -65 -64
-72 -68 -103 -61 -19 4 -67 25 -106 46 -71 38 -74 39 -98 23 -16 -10 -24 -23
-21 -33 3 -9 10 -38 17 -66 8 -32 35 -83 74 -140 81 -117 133 -223 180 -365
21 -63 39 -117 41 -119 2 -2 11 0 21 4 10 4 31 7 47 6 l29 -3 -7 59 c-4 32
-16 107 -27 167 -10 60 -19 110 -19 111 0 1 11 0 24 -2 19 -4 32 -23 64 -96
22 -51 46 -114 53 -140 14 -59 31 -67 133 -67 l73 0 6 -82 c11 -140 7 -259
-12 -351 l-18 -87 30 -26 c17 -15 59 -40 93 -57 61 -30 62 -31 73 -85 11 -54
11 -55 -36 -141 -25 -47 -66 -107 -91 -133 l-46 -47 12 -64 c7 -36 12 -106 12
-157 0 -103 19 -180 71 -296 20 -43 40 -115 54 -195 18 -99 29 -135 52 -167
l28 -41 238 -1 c223 0 238 1 233 18 -19 61 -56 275 -56 327 0 47 -8 82 -36
151 -27 69 -37 111 -43 184 -5 52 -14 108 -20 124 -7 17 -23 89 -36 160 -14
72 -33 166 -43 209 l-19 77 85 0 c83 0 84 0 78 22 -3 13 -6 55 -6 94 l0 72
-64 41 c-36 24 -66 52 -70 64 -9 36 -6 71 9 90 7 10 19 41 25 68 11 45 10 52
-10 86 -39 67 -122 306 -109 314 10 6 -150 133 -244 194 -14 9 -13 17 4 80 32
118 35 216 10 325 -11 52 -25 126 -31 163 -6 38 -24 95 -40 127 -28 56 -31 58
-77 65 -26 3 -57 8 -68 10 -11 2 -35 -1 -52 -7z"/>
</g>
</svg>
