<?xml version="1.0" standalone="no"?>
<!DOCTYPE svg PUBLIC "-//W3C//DTD SVG 20010904//EN"
 "http://www.w3.org/TR/2001/REC-SVG-20010904/DTD/svg10.dtd">
<svg version="1.0" xmlns="http://www.w3.org/2000/svg"
 width="39.000000pt" height="77.000000pt" viewBox="0 0 39.000000 77.000000"
 preserveAspectRatio="xMidYMid meet">
<metadata>
Created by potrace 1.14, written by Peter Selinger 2001-2017
</metadata>
<g transform="translate(0.000000,77.000000) scale(0.100000,-0.100000)"
fill="#000000" stroke="none">
<path fill="#000000" stroke="none" d="M205 753 c-16 -8 -32 -17 -34 -19 -8
-7 34 -84 47 -84 13 0 15 -10 4 -25 -8 -12 -174 -4 -204 10 -22 9 -24 -12 -3
-39 8 -11 15 -26 15 -34 0 -12 -3 -12 -17 -1 -10 7 -5 -1 12 -19 19 -21 35
-30 45 -26 26 12 109 14 115 4 4 -6 6 -95 6 -198 0 -204 -11 -277 -42 -285
-10 -3 -19 -13 -19 -22 0 -13 9 -16 53 -13 l52 3 6 50 c3 28 17 76 31 109 l25
58 7 -77 c6 -70 5 -80 -14 -100 -26 -28 -18 -35 42 -35 l48 0 -5 38 c-4 20 -2
59 4 87 7 40 6 55 -7 80 -13 24 -16 67 -18 210 -1 152 -5 191 -23 250 -29 95
-59 114 -126 78z"/>
</g>
</svg>
