<?xml version="1.0" standalone="no"?>
<!DOCTYPE svg PUBLIC "-//W3C//DTD SVG 20010904//EN"
 "http://www.w3.org/TR/2001/REC-SVG-20010904/DTD/svg10.dtd">
<svg version="1.0" xmlns="http://www.w3.org/2000/svg"
 width="115.000000pt" height="233.000000pt" viewBox="0 0 115.000000 233.000000"
 preserveAspectRatio="xMidYMid meet">
<metadata>
Created by potrace 1.14, written by Peter Selinger 2001-2017
</metadata>
<g transform="translate(0.000000,233.000000) scale(0.100000,-0.100000)"
fill="#000000" stroke="none">
<path fill="#000000" stroke="none" d="M50 2317 c-25 -5 -47 -12 -49 -13 -2
-2 4 -25 14 -51 17 -43 17 -72 9 -422 -9 -389 -9 -675 2 -820 l6 -83 58 -25
c55 -24 58 -27 55 -57 -13 -106 -13 -220 1 -325 9 -64 19 -206 22 -316 l7
-200 57 -3 c47 -2 64 1 97 23 47 29 45 25 29 62 -25 60 -26 211 -2 518 13 165
24 309 24 319 0 19 1 19 22 -1 13 -11 88 -39 168 -63 80 -23 148 -45 152 -49
14 -13 69 -442 75 -583 l6 -146 31 -6 c17 -3 85 -8 151 -11 66 -3 130 -8 143
-11 20 -4 22 -1 22 40 l0 45 -70 41 c-69 40 -69 41 -89 108 -15 53 -21 122
-29 339 -13 336 -11 330 -164 448 -87 67 -107 77 -158 86 -37 6 -83 23 -120
45 -57 33 -60 37 -60 74 0 29 5 40 19 45 28 8 30 20 32 167 1 133 1 134 -37
226 l-37 92 -51 14 c-28 8 -72 20 -97 27 l-46 12 23 61 c15 37 24 81 24 115 0
31 7 78 15 105 15 49 15 50 -15 96 -25 39 -41 51 -86 69 -60 23 -85 24 -154 8z"/>
</g>
</svg>
