<?xml version="1.0" standalone="no"?>
<!DOCTYPE svg PUBLIC "-//W3C//DTD SVG 20010904//EN"
 "http://www.w3.org/TR/2001/REC-SVG-20010904/DTD/svg10.dtd">
<svg version="1.0" xmlns="http://www.w3.org/2000/svg"
 width="19.000000pt" height="42.000000pt" viewBox="0 0 19.000000 42.000000"
 preserveAspectRatio="xMidYMid meet">
<metadata>
Created by potrace 1.14, written by Peter Selinger 2001-2017
</metadata>
<g transform="translate(0.000000,42.000000) scale(0.100000,-0.100000)"
fill="#000000" stroke="none">
<path fill="#000000" stroke="none" d="M78 386 c-36 -31 -51 -76 -38 -111 8
-22 -13 -185 -26 -202 -22 -30 -16 -39 39 -56 30 -9 56 -17 59 -17 3 0 11 46
18 102 10 77 18 109 33 126 29 32 28 107 -2 155 -12 20 -28 37 -34 37 -7 -1
-29 -16 -49 -34z"/>
</g>
</svg>
