<?xml version="1.0" standalone="no"?>
<!DOCTYPE svg PUBLIC "-//W3C//DTD SVG 20010904//EN"
 "http://www.w3.org/TR/2001/REC-SVG-20010904/DTD/svg10.dtd">
<svg version="1.0" xmlns="http://www.w3.org/2000/svg"
 width="20.000000pt" height="39.000000pt" viewBox="0 0 20.000000 39.000000"
 preserveAspectRatio="xMidYMid meet">
<metadata>
Created by potrace 1.14, written by Peter Selinger 2001-2017
</metadata>
<g transform="translate(0.000000,39.000000) scale(0.100000,-0.100000)"
fill="#000000" stroke="none">
<path fill="#000000" stroke="none" d="M41 343 l-41 -48 6 -85 c5 -61 12 -91
24 -105 10 -11 21 -33 25 -50 4 -16 9 -37 12 -45 9 -26 22 19 22 81 1 51 3 57
25 61 30 6 58 -15 73 -55 8 -22 12 -26 12 -12 0 30 -23 131 -49 210 -13 39
-25 76 -26 83 -7 26 -44 10 -83 -35z"/>
</g>
</svg>
