<?xml version="1.0" standalone="no"?>
<!DOCTYPE svg PUBLIC "-//W3C//DTD SVG 20010904//EN"
 "http://www.w3.org/TR/2001/REC-SVG-20010904/DTD/svg10.dtd">
<svg version="1.0" xmlns="http://www.w3.org/2000/svg"
 width="18.000000pt" height="36.000000pt" viewBox="0 0 18.000000 36.000000"
 preserveAspectRatio="xMidYMid meet">
<metadata>
Created by potrace 1.14, written by Peter Selinger 2001-2017
</metadata>
<g transform="translate(0.000000,36.000000) scale(0.100000,-0.100000)"
fill="#000000" stroke="none">
<path fill="#000000" stroke="none" d="M36 347 c-22 -16 -24 -54 -6 -128 11
-43 10 -50 -9 -76 -19 -26 -20 -32 -9 -85 12 -55 14 -58 43 -58 16 0 46 3 66
6 35 6 35 7 47 73 11 64 11 67 -11 86 l-23 21 23 49 c14 30 22 64 21 85 l-3
35 -60 3 c-40 2 -67 -2 -79 -11z"/>
</g>
</svg>
