<?xml version="1.0" standalone="no"?>
<!DOCTYPE svg PUBLIC "-//W3C//DTD SVG 20010904//EN"
 "http://www.w3.org/TR/2001/REC-SVG-20010904/DTD/svg10.dtd">
<svg version="1.0" xmlns="http://www.w3.org/2000/svg"
 width="39.000000pt" height="72.000000pt" viewBox="0 0 39.000000 72.000000"
 preserveAspectRatio="xMidYMid meet">
<metadata>
Created by potrace 1.14, written by Peter Selinger 2001-2017
</metadata>
<g transform="translate(0.000000,72.000000) scale(0.100000,-0.100000)"
fill="#000000" stroke="none">
<path fill="#000000" stroke="none" d="M222 692 c-34 -22 -42 -31 -37 -49 9
-39 25 -215 20 -223 -3 -5 -32 -23 -64 -41 l-58 -32 -28 -86 c-15 -47 -30 -92
-33 -99 -4 -12 -1 -12 16 -1 17 10 29 9 75 -8 l55 -20 6 40 c7 39 70 130 129
186 l26 23 -51 70 -51 70 79 78 79 77 -50 18 c-27 10 -54 19 -60 21 -5 1 -29
-10 -53 -24z"/>
</g>
</svg>
