<?xml version="1.0" standalone="no"?>
<!DOCTYPE svg PUBLIC "-//W3C//DTD SVG 20010904//EN"
 "http://www.w3.org/TR/2001/REC-SVG-20010904/DTD/svg10.dtd">
<svg version="1.0" xmlns="http://www.w3.org/2000/svg"
 width="24.000000pt" height="45.000000pt" viewBox="0 0 24.000000 45.000000"
 preserveAspectRatio="xMidYMid meet">
<metadata>
Created by potrace 1.14, written by Peter Selinger 2001-2017
</metadata>
<g transform="translate(0.000000,45.000000) scale(0.100000,-0.100000)"
fill="#000000" stroke="none">
<path fill="#000000" stroke="none" d="M80 425 c0 -14 -8 -33 -18 -43 -10 -10
-28 -34 -41 -55 -20 -32 -21 -38 -7 -43 9 -3 22 -4 30 -1 10 4 15 -7 20 -39 3
-25 18 -65 32 -90 23 -39 25 -52 20 -102 l-6 -57 24 45 c17 30 25 61 26 95 0
28 5 56 11 62 9 9 9 20 0 44 -19 54 -12 66 14 26 23 -33 55 -50 55 -29 0 39
-35 115 -64 139 -18 15 -39 38 -45 51 -16 31 -51 30 -51 -3z"/>
</g>
</svg>
