<?xml version="1.0" standalone="no"?>
<!DOCTYPE svg PUBLIC "-//W3C//DTD SVG 20010904//EN"
 "http://www.w3.org/TR/2001/REC-SVG-20010904/DTD/svg10.dtd">
<svg version="1.0" xmlns="http://www.w3.org/2000/svg"
 width="58.000000pt" height="106.000000pt" viewBox="0 0 58.000000 106.000000"
 preserveAspectRatio="xMidYMid meet">
<metadata>
Created by potrace 1.14, written by Peter Selinger 2001-2017
</metadata>
<g transform="translate(0.000000,106.000000) scale(0.100000,-0.100000)"
fill="#000000" stroke="none">
<path fill="#000000" stroke="none" d="M254 1044 c19 -45 16 -56 -33 -136 -41
-68 -64 -93 -125 -138 -96 -70 -105 -107 -72 -290 l16 -84 77 -78 c43 -43 107
-96 144 -118 65 -38 65 -39 89 -115 13 -42 27 -78 30 -80 4 -2 48 10 98 28
l91 32 4 150 c3 140 2 155 -22 228 -25 76 -28 80 -83 113 -32 20 -58 37 -58
40 0 2 23 50 52 107 30 60 57 129 64 166 12 63 12 66 -17 123 l-29 58 -93 0
c-50 0 -103 3 -116 7 -21 5 -23 4 -17 -13z"/>
</g>
</svg>
