<?xml version="1.0" standalone="no"?>
<!DOCTYPE svg PUBLIC "-//W3C//DTD SVG 20010904//EN"
 "http://www.w3.org/TR/2001/REC-SVG-20010904/DTD/svg10.dtd">
<svg version="1.0" xmlns="http://www.w3.org/2000/svg"
 width="69.000000pt" height="130.000000pt" viewBox="0 0 69.000000 130.000000"
 preserveAspectRatio="xMidYMid meet">
<metadata>
Created by potrace 1.14, written by Peter Selinger 2001-2017
</metadata>
<g transform="translate(0.000000,130.000000) scale(0.100000,-0.100000)"
fill="#000000" stroke="none">
<path fill="#000000" stroke="none" d="M328 1291 c-51 -5 -72 -11 -87 -27 -11
-12 -40 -36 -64 -54 l-44 -31 -26 -132 c-40 -202 -41 -232 -12 -347 14 -54 25
-107 25 -118 0 -10 -25 -113 -55 -228 -30 -115 -58 -237 -61 -271 l-7 -61 54
-9 c53 -9 55 -9 91 26 l38 35 0 87 c0 187 60 345 156 414 40 30 55 35 82 30
l33 -6 -15 30 c-9 16 -16 34 -16 40 0 5 29 33 65 61 64 51 65 51 102 39 36
-12 37 -11 70 27 44 52 43 85 -9 254 l-42 137 -73 48 c-40 26 -73 51 -73 56 0
10 -24 9 -132 0z"/>
</g>
</svg>
