<?xml version="1.0" standalone="no"?>
<!DOCTYPE svg PUBLIC "-//W3C//DTD SVG 20010904//EN"
 "http://www.w3.org/TR/2001/REC-SVG-20010904/DTD/svg10.dtd">
<svg version="1.0" xmlns="http://www.w3.org/2000/svg"
 width="19.000000pt" height="37.000000pt" viewBox="0 0 19.000000 37.000000"
 preserveAspectRatio="xMidYMid meet">
<metadata>
Created by potrace 1.14, written by Peter Selinger 2001-2017
</metadata>
<g transform="translate(0.000000,37.000000) scale(0.100000,-0.100000)"
fill="#000000" stroke="none">
<path fill="#000000" stroke="none" d="M103 362 c-13 -8 -15 -30 -11 -87 3
-25 -1 -31 -21 -33 -28 -4 -42 -17 -58 -53 -10 -23 -8 -32 14 -64 14 -21 28
-58 31 -82 l5 -44 18 30 c10 16 27 34 38 40 42 23 65 80 68 169 2 77 1 85 -22
108 -25 25 -41 29 -62 16z"/>
</g>
</svg>
