<?xml version="1.0" standalone="no"?>
<!DOCTYPE svg PUBLIC "-//W3C//DTD SVG 20010904//EN"
 "http://www.w3.org/TR/2001/REC-SVG-20010904/DTD/svg10.dtd">
<svg version="1.0" xmlns="http://www.w3.org/2000/svg"
 width="21.000000pt" height="39.000000pt" viewBox="0 0 21.000000 39.000000"
 preserveAspectRatio="xMidYMid meet">
<metadata>
Created by potrace 1.14, written by Peter Selinger 2001-2017
</metadata>
<g transform="translate(0.000000,39.000000) scale(0.100000,-0.100000)"
fill="#000000" stroke="none">
<path fill="#000000" stroke="none" d="M41 366 c-11 -12 -19 -25 -16 -28 3 -3
10 -31 15 -61 8 -49 6 -67 -16 -129 -27 -80 -31 -133 -10 -141 9 -4 17 10 25
49 7 30 16 54 21 54 12 0 45 -44 60 -80 9 -22 18 -30 33 -28 16 2 25 18 39 68
27 96 24 111 -27 168 -35 38 -45 58 -45 84 0 26 -6 37 -29 51 -27 16 -29 16
-50 -7z"/>
</g>
</svg>
