<?xml version="1.0" standalone="no"?>
<!DOCTYPE svg PUBLIC "-//W3C//DTD SVG 20010904//EN"
 "http://www.w3.org/TR/2001/REC-SVG-20010904/DTD/svg10.dtd">
<svg version="1.0" xmlns="http://www.w3.org/2000/svg"
 width="42.000000pt" height="77.000000pt" viewBox="0 0 42.000000 77.000000"
 preserveAspectRatio="xMidYMid meet">
<metadata>
Created by potrace 1.14, written by Peter Selinger 2001-2017
</metadata>
<g transform="translate(0.000000,77.000000) scale(0.100000,-0.100000)"
fill="#000000" stroke="none">
<path fill="#000000" stroke="none" d="M122 758 c-15 -8 -28 -31 -42 -76 -24
-78 -25 -102 -4 -102 13 0 10 -5 -8 -20 -30 -23 -44 -76 -26 -97 9 -11 9 -19
1 -33 -9 -13 -9 -20 0 -29 9 -10 8 -15 -3 -24 -11 -8 -16 -32 -18 -80 -1 -37
-6 -76 -12 -87 -11 -21 -14 -193 -3 -203 9 -10 49 59 69 118 22 67 48 93 112
111 41 12 52 19 47 31 -3 9 0 41 6 73 9 44 17 60 37 73 35 20 79 11 107 -21
18 -20 23 -22 28 -10 3 9 -13 44 -40 84 -61 92 -80 112 -115 119 -22 5 -27 10
-19 18 28 28 -9 135 -55 155 -29 14 -32 14 -62 0z"/>
</g>
</svg>
