<?xml version="1.0" standalone="no"?>
<!DOCTYPE svg PUBLIC "-//W3C//DTD SVG 20010904//EN"
 "http://www.w3.org/TR/2001/REC-SVG-20010904/DTD/svg10.dtd">
<svg version="1.0" xmlns="http://www.w3.org/2000/svg"
 width="75.000000pt" height="164.000000pt" viewBox="0 0 75.000000 164.000000"
 preserveAspectRatio="xMidYMid meet">
<metadata>
Created by potrace 1.14, written by Peter Selinger 2001-2017
</metadata>
<g transform="translate(0.000000,164.000000) scale(0.100000,-0.100000)"
fill="#000000" stroke="none">
<path fill="#000000" stroke="none" d="M322 1580 l-52 -59 11 -46 c11 -44 10
-48 -13 -72 -14 -13 -58 -44 -99 -67 l-74 -41 -47 -113 -48 -112 17 -43 c26
-67 49 -73 68 -18 l11 34 17 -26 c14 -22 15 -34 6 -77 -9 -42 -7 -66 10 -146
12 -52 21 -114 21 -137 0 -23 7 -81 15 -129 15 -83 15 -91 -5 -167 -16 -62
-20 -108 -19 -220 l1 -141 35 0 c21 0 47 10 67 25 18 14 54 32 80 41 25 9 48
19 51 24 2 4 -16 72 -40 151 l-45 143 57 91 c31 49 72 112 90 139 36 50 92
205 114 315 18 85 27 55 28 -87 1 -111 1 -113 27 -122 14 -6 34 -10 45 -10 17
0 18 5 13 38 -9 56 10 141 51 226 l36 76 -91 129 c-49 71 -93 143 -96 160 -4
21 -12 31 -24 31 -46 0 -50 8 -30 61 23 57 24 70 9 138 -10 48 -13 51 -47 56
-104 17 -93 20 -150 -45z"/>
</g>
</svg>
