<?xml version="1.0" standalone="no"?>
<!DOCTYPE svg PUBLIC "-//W3C//DTD SVG 20010904//EN"
 "http://www.w3.org/TR/2001/REC-SVG-20010904/DTD/svg10.dtd">
<svg version="1.0" xmlns="http://www.w3.org/2000/svg"
 width="270.000000pt" height="521.000000pt" viewBox="0 0 270.000000 521.000000"
 preserveAspectRatio="xMidYMid meet">
<metadata>
Created by potrace 1.14, written by Peter Selinger 2001-2017
</metadata>
<g transform="translate(0.000000,521.000000) scale(0.100000,-0.100000)"
fill="#000000" stroke="none">
<path fill="#000000" stroke="none" d="M1290 5148 c0 -56 -3 -66 -41 -117 -23
-31 -55 -67 -71 -82 l-30 -25 -1 -175 -2 -175 -53 -66 c-95 -117 -140 -128
-432 -109 -159 10 -167 10 -210 -11 -86 -40 -109 -54 -269 -161 l-161 -109 0
-71 c-1 -466 -9 -2315 -14 -3077 -3 -567 -2 -960 4 -940 4 19 36 103 70 185
56 134 71 161 143 250 45 55 106 143 136 195 43 73 104 150 266 330 268 300
308 350 443 551 94 141 118 171 161 197 27 17 55 40 60 51 9 15 19 19 47 17
30 -3 49 -17 120 -90 73 -76 96 -93 179 -132 53 -25 140 -58 195 -74 120 -34
120 -34 120 -67 0 -15 9 -36 19 -47 16 -17 22 -47 31 -166 14 -161 3 -139 108
-230 l42 -38 -14 -34 c-14 -34 -14 -35 14 -51 27 -16 31 -16 75 3 26 11 48 20
50 20 1 0 0 -38 -2 -84 -7 -100 0 -107 67 -76 40 19 52 31 76 81 15 32 31 59
36 59 4 0 8 -28 8 -63 l0 -63 51 -13 c28 -7 54 -9 58 -5 19 22 39 95 46 167 7
77 8 79 46 103 l39 24 -1 78 c0 42 -6 106 -13 142 -13 70 -23 81 -142 155 -44
28 -75 72 -392 565 -189 294 -373 585 -408 645 -36 61 -89 145 -117 188 l-51
79 -2 116 c-2 116 -2 118 32 184 21 41 49 124 70 210 29 119 40 148 65 174 29
30 29 31 15 66 -8 19 -31 91 -51 159 -19 68 -50 154 -67 190 l-31 67 21 30
c12 16 63 53 114 83 105 60 185 130 223 195 21 37 33 46 70 55 34 9 50 20 66
45 20 33 20 35 3 86 -18 57 -16 141 10 278 8 41 17 111 21 155 l6 80 -68 66
-68 67 -310 11 c-170 6 -331 11 -357 11 l-48 0 0 -62z"/>
<path fill="#ffffff" stroke="none" d="M1538 3908 c6 -18 13 -146 17 -285 6
-222 4 -276 -16 -463 l-22 -211 -23 23 c-20 21 -23 40 -34 178 -6 85 -16 184
-22 220 -5 36 -9 128 -9 205 2 138 2 141 44 253 23 61 45 112 49 112 3 0 11
-15 16 -32z"/>
</g>
</svg>
