<?xml version="1.0" standalone="no"?>
<!DOCTYPE svg PUBLIC "-//W3C//DTD SVG 20010904//EN"
 "http://www.w3.org/TR/2001/REC-SVG-20010904/DTD/svg10.dtd">
<svg version="1.0" xmlns="http://www.w3.org/2000/svg"
 width="33.000000pt" height="64.000000pt" viewBox="0 0 33.000000 64.000000"
 preserveAspectRatio="xMidYMid meet">
<metadata>
Created by potrace 1.14, written by Peter Selinger 2001-2017
</metadata>
<g transform="translate(0.000000,64.000000) scale(0.100000,-0.100000)"
fill="#000000" stroke="none">
<path fill="#000000" stroke="none" d="M35 626 c-13 -9 -21 -32 -26 -72 -14
-112 -10 -166 16 -219 14 -27 25 -56 25 -63 0 -26 73 -222 83 -222 5 0 25 -11
43 -25 l33 -25 17 25 c9 14 14 32 10 40 -4 11 2 15 22 15 45 0 63 21 69 76 5
40 3 47 -8 36 -7 -6 -13 -24 -14 -39 0 -14 -5 -28 -12 -30 -19 -7 -25 32 -12
81 15 60 7 87 -41 137 -44 47 -46 53 -25 89 28 48 12 133 -26 145 -10 3 -32
19 -50 36 -34 32 -73 38 -104 15z"/>
</g>
</svg>
