<?xml version="1.0" standalone="no"?>
<!DOCTYPE svg PUBLIC "-//W3C//DTD SVG 20010904//EN"
 "http://www.w3.org/TR/2001/REC-SVG-20010904/DTD/svg10.dtd">
<svg version="1.0" xmlns="http://www.w3.org/2000/svg"
 width="10.000000pt" height="20.000000pt" viewBox="0 0 10.000000 20.000000"
 preserveAspectRatio="xMidYMid meet">
<metadata>
Created by potrace 1.14, written by Peter Selinger 2001-2017
</metadata>
<g transform="translate(0.000000,20.000000) scale(0.100000,-0.100000)"
fill="#000000" stroke="none">
<path fill="#000000" stroke="none" d="M30 182 c-20 -16 -21 -19 -6 -31 22
-18 20 -54 -4 -76 -11 -10 -20 -23 -20 -29 0 -6 5 -5 12 2 19 19 26 14 30 -16
2 -21 9 -28 31 -30 27 -3 27 -3 27 55 0 33 -5 65 -12 72 -10 11 -10 13 0 7 17
-10 15 15 -4 42 -18 27 -25 27 -54 4z"/>
</g>
</svg>
