<?xml version="1.0" standalone="no"?>
<!DOCTYPE svg PUBLIC "-//W3C//DTD SVG 20010904//EN"
 "http://www.w3.org/TR/2001/REC-SVG-20010904/DTD/svg10.dtd">
<svg version="1.0" xmlns="http://www.w3.org/2000/svg"
 width="174.000000pt" height="335.000000pt" viewBox="0 0 174.000000 335.000000"
 preserveAspectRatio="xMidYMid meet">
<metadata>
Created by potrace 1.14, written by Peter Selinger 2001-2017
</metadata>
<g transform="translate(0.000000,335.000000) scale(0.100000,-0.100000)"
fill="#000000" stroke="none">
<path fill="#000000" stroke="none" d="M545 3326 c-27 -13 -93 -35 -145 -50
-52 -15 -119 -34 -148 -42 -44 -13 -55 -21 -67 -50 -8 -19 -12 -40 -9 -48 3
-7 -10 -39 -29 -72 -67 -119 -73 -149 -42 -219 7 -16 40 -106 73 -200 67 -189
107 -277 174 -380 26 -38 42 -71 37 -73 -5 -2 -6 -14 -3 -27 10 -41 -26 -92
-96 -135 l-65 -38 -13 24 -13 25 -54 -47 c-45 -38 -53 -50 -50 -72 18 -105 27
-213 32 -383 l6 -196 -38 -41 c-28 -31 -45 -42 -67 -42 -27 0 -29 -2 -24 -28
3 -15 21 -160 41 -322 l36 -295 77 -208 76 -209 93 -43 c74 -35 210 -75 253
-75 4 0 13 35 19 78 7 42 15 87 18 99 4 20 23 7 166 -117 l162 -140 100 0
c141 0 145 2 145 61 0 40 4 51 23 64 13 8 29 25 36 38 6 12 33 31 59 41 87 36
92 42 92 105 1 55 1 57 73 137 40 45 82 104 95 130 12 27 44 135 72 239 l49
190 26 442 c14 243 25 454 25 470 0 25 -16 38 -148 124 -81 53 -231 143 -334
200 -165 92 -187 107 -188 129 0 14 15 89 34 167 l33 142 -43 158 c-39 143
-43 169 -41 259 1 54 -2 105 -7 113 -5 7 -56 36 -113 62 -92 44 -111 49 -172
49 -38 0 -88 7 -111 15 -51 18 -43 19 -105 -9z"/>
</g>
</svg>
