<?xml version="1.0" standalone="no"?>
<!DOCTYPE svg PUBLIC "-//W3C//DTD SVG 20010904//EN"
 "http://www.w3.org/TR/2001/REC-SVG-20010904/DTD/svg10.dtd">
<svg version="1.0" xmlns="http://www.w3.org/2000/svg"
 width="33.000000pt" height="69.000000pt" viewBox="0 0 33.000000 69.000000"
 preserveAspectRatio="xMidYMid meet">
<metadata>
Created by potrace 1.14, written by Peter Selinger 2001-2017
</metadata>
<g transform="translate(0.000000,69.000000) scale(0.100000,-0.100000)"
fill="#000000" stroke="none">
<path fill="#000000" stroke="none" d="M133 677 c-52 -8 -53 -9 -53 -42 0 -22
-9 -45 -26 -65 -24 -28 -25 -33 -12 -46 12 -12 13 -26 6 -68 -7 -39 -6 -67 5
-108 18 -68 7 -169 -27 -248 -28 -66 -21 -85 37 -92 l38 -4 25 83 c14 46 27
83 29 83 2 0 10 3 19 6 14 5 16 -6 16 -83 l0 -89 40 4 c39 4 40 5 40 44 0 21
-5 69 -10 106 -6 37 -12 112 -13 168 l-2 100 37 -6 c37 -7 48 -4 48 11 0 15
-64 43 -92 41 -32 -3 -38 21 -13 54 8 10 14 30 14 44 1 27 -31 105 -45 112 -5
2 -33 0 -61 -5z"/>
</g>
</svg>
