<?xml version="1.0" standalone="no"?>
<!DOCTYPE svg PUBLIC "-//W3C//DTD SVG 20010904//EN"
 "http://www.w3.org/TR/2001/REC-SVG-20010904/DTD/svg10.dtd">
<svg version="1.0" xmlns="http://www.w3.org/2000/svg"
 width="24.000000pt" height="48.000000pt" viewBox="0 0 24.000000 48.000000"
 preserveAspectRatio="xMidYMid meet">
<metadata>
Created by potrace 1.14, written by Peter Selinger 2001-2017
</metadata>
<g transform="translate(0.000000,48.000000) scale(0.100000,-0.100000)"
fill="#000000" stroke="none">
<path fill="#000000" stroke="none" d="M64 455 c-3 -14 -12 -29 -18 -33 -7 -4
-20 -46 -30 -95 -16 -81 -16 -91 0 -146 13 -47 21 -61 38 -63 18 -3 21 -11 24
-61 l3 -58 42 32 c23 18 58 48 79 67 l36 34 -34 82 c-20 44 -46 100 -59 122
-21 37 -23 43 -10 54 22 18 19 67 -4 80 -34 18 -60 12 -67 -15z"/>
</g>
</svg>
