<?xml version="1.0" standalone="no"?>
<!DOCTYPE svg PUBLIC "-//W3C//DTD SVG 20010904//EN"
 "http://www.w3.org/TR/2001/REC-SVG-20010904/DTD/svg10.dtd">
<svg version="1.0" xmlns="http://www.w3.org/2000/svg"
 width="21.000000pt" height="41.000000pt" viewBox="0 0 21.000000 41.000000"
 preserveAspectRatio="xMidYMid meet">
<metadata>
Created by potrace 1.14, written by Peter Selinger 2001-2017
</metadata>
<g transform="translate(0.000000,41.000000) scale(0.100000,-0.100000)"
fill="#000000" stroke="none">
<path fill="#000000" stroke="none" d="M38 247 c-2 -137 -6 -167 -21 -191 -10
-15 -17 -29 -15 -31 2 -1 13 -7 25 -14 21 -10 22 -8 29 36 4 27 18 70 31 97
25 50 25 50 39 25 7 -13 18 -45 24 -71 12 -49 33 -77 44 -59 4 5 -3 51 -14
102 -11 51 -20 94 -20 95 0 1 9 4 19 7 29 7 29 45 2 110 -21 50 -28 57 -45 52
-29 -10 -47 -10 -73 -1 -21 7 -21 6 -25 -157z"/>
</g>
</svg>
