<?xml version="1.0" standalone="no"?>
<!DOCTYPE svg PUBLIC "-//W3C//DTD SVG 20010904//EN"
 "http://www.w3.org/TR/2001/REC-SVG-20010904/DTD/svg10.dtd">
<svg version="1.0" xmlns="http://www.w3.org/2000/svg"
 width="24.000000pt" height="53.000000pt" viewBox="0 0 24.000000 53.000000"
 preserveAspectRatio="xMidYMid meet">
<metadata>
Created by potrace 1.14, written by Peter Selinger 2001-2017
</metadata>
<g transform="translate(0.000000,53.000000) scale(0.100000,-0.100000)"
fill="#000000" stroke="none">
<path fill="#000000" stroke="none" d="M19 499 c-21 -29 -21 -36 -11 -92 7
-34 26 -85 46 -119 26 -43 41 -85 54 -156 21 -108 20 -110 40 58 l8 65 23
-116 c17 -86 28 -118 42 -127 17 -11 19 -9 19 13 0 14 -9 57 -19 95 -17 62
-18 81 -9 170 10 95 5 192 -10 216 -4 6 -41 14 -84 18 l-76 7 -23 -32z"/>
</g>
</svg>
