<?xml version="1.0" standalone="no"?>
<!DOCTYPE svg PUBLIC "-//W3C//DTD SVG 20010904//EN"
 "http://www.w3.org/TR/2001/REC-SVG-20010904/DTD/svg10.dtd">
<svg version="1.0" xmlns="http://www.w3.org/2000/svg"
 width="146.000000pt" height="266.000000pt" viewBox="0 0 146.000000 266.000000"
 preserveAspectRatio="xMidYMid meet">
<metadata>
Created by potrace 1.14, written by Peter Selinger 2001-2017
</metadata>
<g transform="translate(0.000000,266.000000) scale(0.100000,-0.100000)"
fill="#000000" stroke="none">
<path fill="#000000" stroke="none" d="M263 2632 c-37 -32 -70 -94 -79 -153
-6 -34 -2 -50 17 -85 l23 -44 -19 -56 c-11 -31 -32 -73 -47 -93 -62 -81 -103
-150 -130 -221 -28 -71 -29 -80 -24 -188 4 -74 13 -132 26 -170 24 -67 25
-148 5 -216 -10 -33 -15 -94 -15 -188 l0 -139 51 -112 c89 -197 98 -229 109
-403 9 -152 11 -158 42 -208 l33 -51 -3 -142 c-2 -111 0 -143 10 -143 7 -1 32
-5 55 -9 39 -8 46 -6 79 23 36 31 37 34 38 107 1 40 -5 134 -12 207 -10 105
-10 161 -1 260 7 79 8 168 4 237 -5 61 -7 126 -6 146 2 56 48 180 77 210 l27
28 54 -47 c30 -26 78 -78 106 -117 41 -56 54 -85 68 -145 20 -89 77 -217 109
-245 22 -19 21 -18 -4 22 -43 70 -88 193 -100 278 -22 142 7 275 61 283 39 6
102 -36 137 -91 19 -29 46 -63 60 -76 24 -23 26 -23 26 -5 0 18 48 54 74 54 6
0 19 -13 29 -29 17 -29 17 -29 -17 -59 -19 -17 -43 -33 -54 -36 -17 -6 -20
-20 -25 -119 -4 -61 -7 -134 -7 -162 0 -44 -4 -53 -33 -76 -18 -14 -43 -29
-55 -33 -19 -6 -22 -13 -17 -34 3 -15 12 -72 19 -127 10 -75 23 -119 50 -177
20 -42 36 -88 36 -101 0 -13 3 -45 6 -69 6 -42 10 -47 53 -68 44 -20 52 -21
129 -10 104 14 175 35 194 57 8 10 20 32 26 50 10 31 9 34 -26 62 -20 16 -53
35 -73 44 -19 8 -56 36 -81 63 -51 54 -69 103 -108 299 -30 146 -23 309 15
393 18 39 26 79 31 145 l6 92 -59 36 c-84 53 -98 59 -208 99 l-100 35 -3 47
c-4 59 46 235 82 287 33 47 35 114 5 165 -20 35 -59 50 -59 24 -1 -18 -18 14
-56 99 -24 57 -30 80 -24 110 13 77 -30 155 -93 169 -26 5 -28 8 -15 18 10 7
17 34 20 83 5 69 4 73 -25 109 -40 48 -169 111 -245 119 -31 3 -75 7 -97 10
-33 3 -46 -1 -72 -23z"/>
<path fill="#ffffff" stroke="none" d="M753 1798 c-4 -59 -9 -78 -20 -78 -14
0 -13 43 3 150 10 63 22 10 17 -72z"/>
<path fill="#ffffff" stroke="none" d="M835 1733 c-6 -32 -18 -40 -42 -25 -17
11 1 83 24 100 16 12 18 10 21 -14 2 -15 1 -42 -3 -61z"/>
</g>
</svg>
