<?xml version="1.0" standalone="no"?>
<!DOCTYPE svg PUBLIC "-//W3C//DTD SVG 20010904//EN"
 "http://www.w3.org/TR/2001/REC-SVG-20010904/DTD/svg10.dtd">
<svg version="1.0" xmlns="http://www.w3.org/2000/svg"
 width="142.000000pt" height="297.000000pt" viewBox="0 0 142.000000 297.000000"
 preserveAspectRatio="xMidYMid meet">
<metadata>
Created by potrace 1.14, written by Peter Selinger 2001-2017
</metadata>
<g transform="translate(0.000000,297.000000) scale(0.100000,-0.100000)"
fill="#000000" stroke="none">
<path fill="#000000" stroke="none" d="M488 2912 c-47 -31 -89 -60 -93 -64 -4
-3 3 -69 15 -146 l22 -140 -36 -56 c-20 -31 -59 -102 -87 -159 l-52 -102 6
-200 c8 -247 22 -363 46 -388 14 -14 41 -20 116 -26 l99 -7 49 38 c40 29 54
35 69 27 10 -5 18 -13 18 -17 0 -13 -61 -72 -100 -98 -44 -29 -54 -62 -42
-139 11 -68 -29 -263 -59 -285 -16 -13 -18 -20 -9 -45 5 -17 16 -74 24 -129
l15 -98 -191 -267 c-203 -283 -220 -305 -193 -253 9 19 15 36 12 38 -10 10
-49 -49 -81 -125 l-36 -83 86 -94 86 -94 80 73 c44 39 99 92 122 117 22 25
125 131 228 235 l187 190 36 95 c35 91 36 99 30 180 -8 101 -44 282 -81 411
l-27 93 28 87 28 87 100 -114 c55 -63 103 -114 107 -114 4 0 56 -33 117 -74
l110 -73 93 44 93 43 -59 41 c-148 104 -226 174 -246 219 -47 106 -90 232
-114 330 -23 98 -110 375 -157 500 -16 42 -22 90 -27 205 -4 86 -14 182 -24
225 l-18 76 -88 47 c-48 26 -94 47 -101 46 -8 0 -53 -26 -101 -57z"/>
</g>
</svg>
