<?xml version="1.0" standalone="no"?>
<!DOCTYPE svg PUBLIC "-//W3C//DTD SVG 20010904//EN"
 "http://www.w3.org/TR/2001/REC-SVG-20010904/DTD/svg10.dtd">
<svg version="1.0" xmlns="http://www.w3.org/2000/svg"
 width="22.000000pt" height="45.000000pt" viewBox="0 0 22.000000 45.000000"
 preserveAspectRatio="xMidYMid meet">
<metadata>
Created by potrace 1.14, written by Peter Selinger 2001-2017
</metadata>
<g transform="translate(0.000000,45.000000) scale(0.100000,-0.100000)"
fill="#000000" stroke="none">
<path fill="#000000" stroke="none" d="M16 434 c-22 -21 -20 -51 4 -71 15 -14
20 -30 20 -72 0 -48 4 -58 36 -94 34 -37 36 -43 32 -93 -4 -45 -1 -57 16 -73
12 -10 31 -22 42 -25 20 -6 22 -2 29 61 4 37 11 73 17 80 6 8 6 18 0 29 -5 10
-7 35 -4 56 4 31 0 44 -18 63 -17 18 -21 31 -17 54 7 33 1 40 -67 76 -55 29
-69 31 -90 9z"/>
</g>
</svg>
