<?xml version="1.0" standalone="no"?>
<!DOCTYPE svg PUBLIC "-//W3C//DTD SVG 20010904//EN"
 "http://www.w3.org/TR/2001/REC-SVG-20010904/DTD/svg10.dtd">
<svg version="1.0" xmlns="http://www.w3.org/2000/svg"
 width="22.000000pt" height="48.000000pt" viewBox="0 0 22.000000 48.000000"
 preserveAspectRatio="xMidYMid meet">
<metadata>
Created by potrace 1.14, written by Peter Selinger 2001-2017
</metadata>
<g transform="translate(0.000000,48.000000) scale(0.100000,-0.100000)"
fill="#000000" stroke="none">
<path fill="#000000" stroke="none" d="M103 449 c-4 -22 -14 -34 -33 -40 -24
-9 -29 -19 -43 -87 -33 -158 -30 -293 8 -301 11 -2 23 -8 27 -14 5 -8 13 -7
30 0 13 7 17 12 11 12 -9 1 -10 8 -3 27 6 14 10 41 10 60 0 37 20 83 75 168
36 56 43 112 17 138 -7 7 -12 20 -12 30 0 20 -29 38 -60 38 -15 0 -22 -8 -27
-31z"/>
</g>
</svg>
