<?xml version="1.0" standalone="no"?>
<!DOCTYPE svg PUBLIC "-//W3C//DTD SVG 20010904//EN"
 "http://www.w3.org/TR/2001/REC-SVG-20010904/DTD/svg10.dtd">
<svg version="1.0" xmlns="http://www.w3.org/2000/svg"
 width="100.000000pt" height="184.000000pt" viewBox="0 0 100.000000 184.000000"
 preserveAspectRatio="xMidYMid meet">
<metadata>
Created by potrace 1.14, written by Peter Selinger 2001-2017
</metadata>
<g transform="translate(0.000000,184.000000) scale(0.100000,-0.100000)"
fill="#000000" stroke="none">
<path fill="#000000" stroke="none" d="M0 1813 c0 -15 9 -381 20 -813 11 -432
20 -834 20 -894 l0 -109 178 6 c97 4 292 10 433 13 l257 7 -9 31 c-5 17 -9 57
-9 89 0 54 3 62 40 104 62 70 76 132 60 268 -6 61 -15 153 -20 205 -7 85 -13
107 -58 204 -41 90 -62 121 -114 172 l-63 64 -60 -15 c-36 -9 -113 -14 -192
-15 l-133 0 0 44 c0 37 5 48 30 68 16 13 47 49 70 81 38 56 40 61 40 136 0 70
-4 87 -40 164 l-39 85 -93 55 c-87 51 -98 55 -178 61 -47 4 -97 9 -112 12 -25
5 -28 3 -28 -23z"/>
</g>
</svg>
