<?xml version="1.0" standalone="no"?>
<!DOCTYPE svg PUBLIC "-//W3C//DTD SVG 20010904//EN"
 "http://www.w3.org/TR/2001/REC-SVG-20010904/DTD/svg10.dtd">
<svg version="1.0" xmlns="http://www.w3.org/2000/svg"
 width="67.000000pt" height="136.000000pt" viewBox="0 0 67.000000 136.000000"
 preserveAspectRatio="xMidYMid meet">
<metadata>
Created by potrace 1.14, written by Peter Selinger 2001-2017
</metadata>
<g transform="translate(0.000000,136.000000) scale(0.100000,-0.100000)"
fill="#000000" stroke="none">
<path fill="#000000" stroke="none" d="M298 1336 c-112 -34 -191 -67 -211 -91
-32 -36 -49 -88 -62 -190 -26 -192 -18 -356 26 -515 16 -58 29 -123 29 -144 0
-29 12 -58 44 -110 24 -39 45 -80 47 -90 3 -14 22 -25 63 -39 l58 -19 -5 -37
c-3 -20 -8 -52 -12 -71 -5 -25 -4 -31 3 -21 6 8 16 52 22 98 l12 84 -33 62
c-18 34 -40 72 -49 84 -10 12 -23 42 -30 67 -12 43 -12 45 28 103 22 32 61 83
87 113 l48 55 -6 160 -5 161 48 113 47 114 110 57 109 57 -125 12 c-157 14
-150 14 -243 -13z"/>
</g>
</svg>
