<?xml version="1.0" standalone="no"?>
<!DOCTYPE svg PUBLIC "-//W3C//DTD SVG 20010904//EN"
 "http://www.w3.org/TR/2001/REC-SVG-20010904/DTD/svg10.dtd">
<svg version="1.0" xmlns="http://www.w3.org/2000/svg"
 width="114.000000pt" height="209.000000pt" viewBox="0 0 114.000000 209.000000"
 preserveAspectRatio="xMidYMid meet">
<metadata>
Created by potrace 1.14, written by Peter Selinger 2001-2017
</metadata>
<g transform="translate(0.000000,209.000000) scale(0.100000,-0.100000)"
fill="#000000" stroke="none">
<path fill="#000000" stroke="none" d="M565 2058 c-30 -36 -95 -160 -95 -183
0 -27 -84 -185 -101 -190 -10 -3 -34 -17 -54 -31 l-37 -25 -56 33 c-47 28 -59
42 -83 95 -16 35 -29 69 -29 77 0 26 -75 37 -98 14 -34 -34 1 -97 129 -234 55
-60 108 -115 117 -121 9 -7 40 -13 70 -13 44 0 67 7 119 35 l63 36 0 -158 c0
-256 -19 -344 -129 -609 l-92 -218 -5 -146 c-6 -135 -8 -148 -33 -191 l-28
-45 129 -28 c138 -30 176 -30 295 1 55 14 62 18 58 37 -35 150 -64 315 -66
372 l-4 70 64 72 c36 39 67 69 71 67 4 -3 11 -89 15 -192 4 -104 12 -237 19
-298 l12 -110 -28 -60 -28 -60 28 -27 c27 -28 28 -28 77 -14 28 8 69 20 92 26
l43 11 0 343 0 342 60 71 59 71 11 169 c21 350 14 419 -58 601 -36 92 -38 95
-115 154 -86 66 -163 156 -188 222 -20 51 -47 66 -121 66 -51 0 -59 -3 -83
-32z"/>
</g>
</svg>
