<?xml version="1.0" standalone="no"?>
<!DOCTYPE svg PUBLIC "-//W3C//DTD SVG 20010904//EN"
 "http://www.w3.org/TR/2001/REC-SVG-20010904/DTD/svg10.dtd">
<svg version="1.0" xmlns="http://www.w3.org/2000/svg"
 width="31.000000pt" height="58.000000pt" viewBox="0 0 31.000000 58.000000"
 preserveAspectRatio="xMidYMid meet">
<metadata>
Created by potrace 1.14, written by Peter Selinger 2001-2017
</metadata>
<g transform="translate(0.000000,58.000000) scale(0.100000,-0.100000)"
fill="#000000" stroke="none">
<path fill="#000000" stroke="none" d="M88 569 c-12 -7 -15 -19 -11 -49 5 -32
2 -40 -10 -40 -20 0 -67 -56 -67 -80 0 -10 18 -34 40 -52 51 -41 80 -95 80
-149 0 -35 -6 -46 -40 -78 -42 -39 -51 -71 -26 -104 21 -27 36 -20 36 18 0 26
9 45 36 75 19 21 39 52 44 67 8 28 8 28 9 3 1 -40 52 -149 72 -155 23 -8 59
11 59 30 0 7 -13 16 -29 20 -32 7 -55 51 -66 124 -3 24 -12 53 -20 64 -10 15
-15 48 -15 104 0 88 -14 137 -38 128 -10 -3 -13 3 -12 23 4 53 -9 69 -42 51z"/>
</g>
</svg>
