<?xml version="1.0" standalone="no"?>
<!DOCTYPE svg PUBLIC "-//W3C//DTD SVG 20010904//EN"
 "http://www.w3.org/TR/2001/REC-SVG-20010904/DTD/svg10.dtd">
<svg version="1.0" xmlns="http://www.w3.org/2000/svg"
 width="151.000000pt" height="328.000000pt" viewBox="0 0 151.000000 328.000000"
 preserveAspectRatio="xMidYMid meet">
<metadata>
Created by potrace 1.14, written by Peter Selinger 2001-2017
</metadata>
<g transform="translate(0.000000,328.000000) scale(0.100000,-0.100000)"
fill="#000000" stroke="none">
<path fill="#000000" stroke="none" d="M8 1796 c-2 -817 -3 -1539 -3 -1603 l0
-118 55 -7 c30 -4 113 -13 185 -22 93 -10 132 -19 141 -30 6 -9 23 -16 37 -16
23 0 25 3 21 32 -2 18 -15 166 -29 328 -14 162 -27 313 -30 335 l-5 40 82 32
c78 30 91 32 219 34 111 1 142 -2 170 -16 19 -10 36 -19 38 -21 2 -2 5 -45 7
-96 2 -51 8 -204 14 -339 5 -136 10 -263 10 -283 l0 -36 139 0 139 0 60 103
c33 56 87 136 119 177 87 110 127 178 126 214 0 17 -4 93 -8 168 -9 150 -8
148 -77 148 -30 0 -167 85 -239 149 -45 39 -47 43 -68 145 l-22 105 32 177
c28 159 31 192 26 309 -5 148 -14 178 -71 254 -23 29 -57 77 -78 105 -20 29
-58 69 -85 90 -26 21 -59 51 -73 66 -41 45 -240 130 -365 156 -60 13 -123 23
-140 24 -79 1 -150 50 -210 145 l-38 60 6 178 c5 160 7 181 25 200 19 21 19
26 6 117 -15 98 -26 118 -86 162 l-28 19 -2 -1485z"/>
</g>
</svg>
