<?xml version="1.0" standalone="no"?>
<!DOCTYPE svg PUBLIC "-//W3C//DTD SVG 20010904//EN"
 "http://www.w3.org/TR/2001/REC-SVG-20010904/DTD/svg10.dtd">
<svg version="1.0" xmlns="http://www.w3.org/2000/svg"
 width="26.000000pt" height="53.000000pt" viewBox="0 0 26.000000 53.000000"
 preserveAspectRatio="xMidYMid meet">
<metadata>
Created by potrace 1.14, written by Peter Selinger 2001-2017
</metadata>
<g transform="translate(0.000000,53.000000) scale(0.100000,-0.100000)"
fill="#000000" stroke="none">
<path fill="#000000" stroke="none" d="M12 518 c-20 -20 -14 -44 20 -79 55
-59 85 -172 53 -199 -19 -16 -20 -60 0 -60 14 0 25 29 43 115 8 39 8 40 21 16
11 -20 9 -31 -14 -83 -20 -45 -25 -69 -21 -96 3 -21 9 -58 12 -84 4 -27 10
-48 14 -48 3 0 17 11 30 25 l23 25 -26 48 c-17 31 -23 52 -17 62 12 20 31 1
61 -59 41 -85 68 -59 29 28 -25 54 -25 68 0 130 11 28 17 59 13 68 -10 26
-126 153 -140 153 -7 0 -16 6 -20 14 -8 14 -45 36 -60 36 -5 0 -14 -5 -21 -12z"/>
</g>
</svg>
