<?xml version="1.0" standalone="no"?>
<!DOCTYPE svg PUBLIC "-//W3C//DTD SVG 20010904//EN"
 "http://www.w3.org/TR/2001/REC-SVG-20010904/DTD/svg10.dtd">
<svg version="1.0" xmlns="http://www.w3.org/2000/svg"
 width="19.000000pt" height="39.000000pt" viewBox="0 0 19.000000 39.000000"
 preserveAspectRatio="xMidYMid meet">
<metadata>
Created by potrace 1.14, written by Peter Selinger 2001-2017
</metadata>
<g transform="translate(0.000000,39.000000) scale(0.100000,-0.100000)"
fill="#000000" stroke="none">
<path fill="#000000" stroke="none" d="M27 378 c-24 -18 -23 -105 2 -201 11
-43 23 -100 27 -128 6 -43 9 -49 30 -49 22 0 24 4 24 53 l1 52 19 -35 c13 -25
15 -39 8 -47 -12 -15 9 -18 30 -4 11 6 7 21 -17 69 -17 34 -31 63 -31 66 0 2
13 7 30 11 43 10 46 23 8 39 -38 16 -78 78 -78 121 0 28 -16 65 -28 65 -5 0
-16 -6 -25 -12z"/>
</g>
</svg>
