<?xml version="1.0" standalone="no"?>
<!DOCTYPE svg PUBLIC "-//W3C//DTD SVG 20010904//EN"
 "http://www.w3.org/TR/2001/REC-SVG-20010904/DTD/svg10.dtd">
<svg version="1.0" xmlns="http://www.w3.org/2000/svg"
 width="32.000000pt" height="66.000000pt" viewBox="0 0 32.000000 66.000000"
 preserveAspectRatio="xMidYMid meet">
<metadata>
Created by potrace 1.14, written by Peter Selinger 2001-2017
</metadata>
<g transform="translate(0.000000,66.000000) scale(0.100000,-0.100000)"
fill="#000000" stroke="none">
<path fill="#000000" stroke="none" d="M105 653 c-36 -9 -45 -24 -76 -124 -27
-89 -29 -103 -20 -156 14 -81 15 -148 1 -221 -14 -74 -3 -97 38 -81 25 9 28
34 12 89 -10 33 -4 177 7 166 3 -2 13 -53 24 -113 28 -165 22 -153 71 -140
l42 10 -36 31 -35 31 4 115 c3 63 6 116 7 117 1 1 20 -42 43 -95 32 -74 43
-115 48 -175 8 -99 10 -105 41 -99 28 5 29 8 9 55 -13 31 -12 45 7 138 14 70
21 145 21 230 1 119 -1 128 -26 171 -24 41 -31 46 -73 52 -51 7 -78 6 -109 -1z"/>
</g>
</svg>
