<?xml version="1.0" standalone="no"?>
<!DOCTYPE svg PUBLIC "-//W3C//DTD SVG 20010904//EN"
 "http://www.w3.org/TR/2001/REC-SVG-20010904/DTD/svg10.dtd">
<svg version="1.0" xmlns="http://www.w3.org/2000/svg"
 width="29.000000pt" height="58.000000pt" viewBox="0 0 29.000000 58.000000"
 preserveAspectRatio="xMidYMid meet">
<metadata>
Created by potrace 1.14, written by Peter Selinger 2001-2017
</metadata>
<g transform="translate(0.000000,58.000000) scale(0.100000,-0.100000)"
fill="#000000" stroke="none">
<path fill="#000000" stroke="none" d="M5 509 c3 -38 7 -101 10 -140 4 -58 11
-79 36 -116 17 -24 50 -90 73 -146 23 -55 47 -102 52 -104 11 -3 56 67 84 133
29 66 35 131 20 195 -20 86 -45 126 -93 150 -23 12 -53 32 -67 45 -14 13 -47
30 -73 38 l-47 14 5 -69z"/>
</g>
</svg>
