<?xml version="1.0" standalone="no"?>
<!DOCTYPE svg PUBLIC "-//W3C//DTD SVG 20010904//EN"
 "http://www.w3.org/TR/2001/REC-SVG-20010904/DTD/svg10.dtd">
<svg version="1.0" xmlns="http://www.w3.org/2000/svg"
 width="57.000000pt" height="122.000000pt" viewBox="0 0 57.000000 122.000000"
 preserveAspectRatio="xMidYMid meet">
<metadata>
Created by potrace 1.14, written by Peter Selinger 2001-2017
</metadata>
<g transform="translate(0.000000,122.000000) scale(0.100000,-0.100000)"
fill="#000000" stroke="none">
<path fill="#000000" stroke="none" d="M184 1203 c-23 -19 -54 -73 -54 -94 0
-7 10 -23 22 -36 l22 -24 -45 -39 c-38 -32 -48 -48 -59 -97 -8 -32 -13 -77
-12 -100 2 -30 -6 -59 -28 -102 l-30 -60 16 -78 c12 -60 27 -96 64 -154 l48
-77 -30 -6 c-17 -3 -46 -6 -65 -6 -19 0 -33 -3 -31 -7 2 -5 10 -25 18 -46 14
-36 16 -38 55 -35 48 4 48 7 2 -127 -19 -55 -32 -101 -28 -102 3 -1 52 -3 109
-6 l102 -4 -26 35 -27 35 40 131 39 131 -24 85 c-19 68 -23 99 -19 159 5 70 8
76 46 115 27 27 83 62 160 100 113 56 118 60 112 85 -6 20 -14 26 -39 27 -24
1 -32 -3 -32 -16 0 -19 -30 -50 -49 -50 -9 0 -9 5 -1 20 19 36 -7 21 -35 -20
-32 -46 -65 -54 -65 -16 0 14 12 34 29 49 l29 24 -45 -5 -44 -5 6 74 c4 41 11
90 16 109 14 57 11 67 -34 104 -53 44 -85 52 -113 29z"/>
</g>
</svg>
