<?xml version="1.0" standalone="no"?>
<!DOCTYPE svg PUBLIC "-//W3C//DTD SVG 20010904//EN"
 "http://www.w3.org/TR/2001/REC-SVG-20010904/DTD/svg10.dtd">
<svg version="1.0" xmlns="http://www.w3.org/2000/svg"
 width="166.000000pt" height="329.000000pt" viewBox="0 0 166.000000 329.000000"
 preserveAspectRatio="xMidYMid meet">
<metadata>
Created by potrace 1.14, written by Peter Selinger 2001-2017
</metadata>
<g transform="translate(0.000000,329.000000) scale(0.100000,-0.100000)"
fill="#000000" stroke="none">
<path fill="#000000" stroke="none" d="M519 3282 c-9 -4 -42 -38 -75 -76 -32
-38 -60 -64 -62 -58 -5 16 -39 15 -44 0 -4 -11 -1 -94 6 -178 3 -47 47 -120
92 -152 60 -43 58 -62 -19 -161 -35 -45 -78 -104 -96 -131 -35 -53 -62 -154
-54 -202 3 -16 32 -83 64 -149 33 -66 59 -125 59 -130 0 -6 -9 -16 -20 -23
-25 -16 -19 -48 22 -108 l29 -43 -21 -40 c-11 -22 -20 -46 -20 -53 0 -6 -12
-24 -26 -39 -38 -40 -56 -115 -37 -153 10 -19 13 -42 9 -65 -3 -20 -10 -61
-15 -91 -8 -53 -34 -143 -51 -185 -9 -20 -22 -77 -25 -105 0 -9 -4 -20 -8 -26
-6 -11 -25 -78 -34 -126 -3 -15 -11 -33 -19 -39 -17 -14 -18 -166 -3 -244 6
-27 12 -96 14 -152 2 -56 6 -107 10 -112 3 -6 -8 -17 -25 -26 -16 -8 -30 -24
-30 -33 0 -24 -22 -53 -43 -56 -33 -4 -101 -103 -91 -131 12 -29 163 -34 216
-6 20 10 60 21 89 25 81 11 89 18 89 79 0 29 7 65 15 81 10 18 15 51 14 81 -1
29 1 57 5 64 18 28 56 208 57 270 2 62 6 74 75 197 41 73 91 181 113 244 28
78 50 123 70 143 l29 30 31 -31 c17 -17 31 -37 31 -44 0 -7 6 -22 14 -33 7
-11 16 -32 20 -48 17 -71 36 4 36 144 l0 79 35 0 c19 0 35 -3 35 -7 0 -54 48
-352 80 -495 52 -237 54 -363 6 -422 -21 -26 -21 -26 -70 -11 -39 12 -46 12
-37 1 7 -8 9 -29 6 -52 -4 -22 -1 -70 5 -109 7 -38 13 -79 14 -90 1 -11 5 -27
8 -35 8 -20 20 -90 19 -115 0 -11 -5 -37 -12 -59 -11 -34 -11 -40 4 -51 27
-19 154 -26 193 -10 61 25 65 57 69 565 l3 445 -32 85 c-32 83 -33 89 -40 300
l-7 215 34 66 c33 64 33 66 20 112 -9 31 -25 56 -48 74 -34 27 -35 30 -35 101
0 48 -7 92 -21 130 -11 31 -26 86 -33 122 -8 36 -17 72 -20 81 -5 11 -1 19 9
23 24 9 32 1 39 -43 4 -27 12 -42 26 -46 11 -3 20 -13 20 -21 0 -8 4 -14 10
-14 5 0 25 -14 44 -31 27 -23 37 -43 46 -85 10 -47 17 -58 50 -79 21 -13 40
-29 42 -36 3 -9 10 -9 28 1 19 10 25 10 28 0 3 -7 13 -21 23 -31 10 -10 16
-25 13 -34 -8 -19 31 -81 63 -102 15 -10 23 -24 21 -36 -2 -17 4 -23 32 -29
19 -4 45 -5 58 -3 19 5 22 12 22 54 0 51 -32 141 -49 141 -18 0 -92 114 -87
134 3 10 -2 32 -10 47 -7 15 -14 39 -14 51 0 13 -29 63 -65 112 -57 78 -158
236 -204 321 -9 16 -19 32 -22 35 -3 3 -12 17 -20 31 -16 31 -89 91 -139 115
-19 9 -78 20 -130 25 -52 4 -96 8 -97 9 -2 0 -3 6 -3 14 0 7 -9 20 -21 27 -18
12 -19 19 -11 54 5 23 5 51 1 63 -5 13 -4 22 1 22 13 0 13 77 1 84 -5 3 -7 15
-4 26 6 22 -48 80 -73 80 -8 0 -14 8 -14 18 -1 23 -22 50 -37 45 -6 -2 -22 2
-35 11 -28 18 -87 28 -109 18z"/>
</g>
</svg>
