<?xml version="1.0" standalone="no"?>
<!DOCTYPE svg PUBLIC "-//W3C//DTD SVG 20010904//EN"
 "http://www.w3.org/TR/2001/REC-SVG-20010904/DTD/svg10.dtd">
<svg version="1.0" xmlns="http://www.w3.org/2000/svg"
 width="284.000000pt" height="573.000000pt" viewBox="0 0 284.000000 573.000000"
 preserveAspectRatio="xMidYMid meet">
<metadata>
Created by potrace 1.14, written by Peter Selinger 2001-2017
</metadata>
<g transform="translate(0.000000,573.000000) scale(0.100000,-0.100000)"
fill="#000000" stroke="none">
<path fill="#000000" stroke="none" d="M1865 5704 c-185 -31 -269 -64 -392
-154 -93 -69 -106 -83 -162 -173 l-61 -99 0 -228 c0 -180 3 -235 15 -263 19
-46 19 -50 -4 -42 -14 4 -24 -3 -41 -29 -33 -54 -20 -150 36 -275 39 -88 47
-100 101 -138 43 -31 62 -39 75 -32 27 14 28 12 28 -53 0 -35 5 -111 11 -169
12 -103 11 -108 -10 -143 -13 -20 -27 -34 -32 -30 -5 3 -52 -37 -104 -88 l-94
-93 -7 -80 c-5 -62 -11 -86 -29 -105 -12 -14 -32 -52 -45 -85 -13 -33 -64
-142 -113 -243 l-90 -183 -26 25 c-15 15 -30 26 -34 26 -12 0 -7 -74 9 -115
40 -104 37 -176 -8 -191 -30 -9 -41 8 -93 146 -26 69 -51 129 -56 134 -19 20
-9 -129 12 -193 26 -77 16 -130 -27 -150 -15 -6 -28 -10 -29 -9 -1 2 -19 46
-39 98 -37 93 -65 221 -67 310 l-1 45 -14 -50 c-8 -27 -18 -102 -21 -165 -3
-63 -10 -123 -15 -132 -6 -12 -20 -18 -42 -18 -44 0 -46 7 -53 210 l-5 165 30
82 c28 76 29 81 10 70 -32 -19 -68 -109 -68 -170 0 -73 -8 -96 -41 -112 -54
-29 -58 -24 -61 78 -5 143 15 202 97 289 37 38 65 72 62 74 -20 20 -252 -73
-294 -118 -41 -44 -63 -123 -70 -247 -4 -83 -15 -155 -39 -251 -65 -266 -68
-433 -8 -592 l29 -77 -34 -133 c-32 -126 -34 -147 -42 -383 -5 -137 -6 -559
-2 -936 l6 -687 181 -6 c100 -3 736 -8 1414 -11 l1232 -5 0 221 c0 201 -3 236
-30 394 -17 96 -39 258 -49 360 -10 102 -22 190 -27 195 -5 5 -88 43 -184 84
-243 106 -320 154 -365 228 -34 55 -46 64 -198 154 l-162 96 -91 126 c-51 70
-95 143 -99 162 -4 19 -14 45 -22 57 -10 15 -12 27 -5 39 18 32 -7 106 -51
152 l-41 42 24 45 c14 25 25 45 26 45 1 0 18 -7 37 -15 53 -22 73 -19 86 13 9
22 8 38 -9 87 -17 47 -56 324 -47 331 1 1 19 10 41 21 l38 20 162 -33 c99 -20
154 -27 143 -19 -17 12 -17 18 9 106 15 52 29 99 31 106 3 7 -17 36 -45 65
-27 29 -62 76 -77 103 -16 28 -49 77 -74 109 -42 56 -43 60 -26 72 10 8 24 14
31 14 6 0 23 9 36 20 l26 20 77 -32 77 -31 67 21 c37 12 74 22 83 22 8 0 23
-18 33 -39 17 -38 16 -44 -4 -164 l-21 -125 55 -157 c31 -87 54 -160 51 -162
-2 -2 -21 0 -42 6 -22 5 -73 12 -114 16 l-75 6 90 -25 c50 -13 109 -29 131
-35 44 -12 56 -29 69 -101 28 -148 36 -169 71 -191 19 -12 36 -20 37 -18 1 2
15 41 30 86 l28 83 -12 137 c-8 90 -10 217 -6 366 l7 229 -45 105 c-30 69 -45
119 -45 148 0 40 -4 46 -70 104 -38 35 -70 67 -70 72 0 6 23 58 50 116 28 58
50 114 50 124 0 11 4 19 10 19 22 0 49 84 79 245 17 94 45 225 61 292 20 82
30 148 30 200 0 70 -2 79 -25 98 -25 20 -25 21 -15 110 10 96 2 179 -27 295
-35 139 -200 321 -388 426 -108 61 -134 65 -290 38z"/>
</g>
</svg>
