<?xml version="1.0" standalone="no"?>
<!DOCTYPE svg PUBLIC "-//W3C//DTD SVG 20010904//EN"
 "http://www.w3.org/TR/2001/REC-SVG-20010904/DTD/svg10.dtd">
<svg version="1.0" xmlns="http://www.w3.org/2000/svg"
 width="18.000000pt" height="40.000000pt" viewBox="0 0 18.000000 40.000000"
 preserveAspectRatio="xMidYMid meet">
<metadata>
Created by potrace 1.14, written by Peter Selinger 2001-2017
</metadata>
<g transform="translate(0.000000,40.000000) scale(0.100000,-0.100000)"
fill="#000000" stroke="none">
<path fill="#000000" stroke="none" d="M57 393 c-4 -3 -7 -24 -7 -45 0 -21 -5
-38 -11 -38 -6 0 -9 -23 -8 -62 2 -48 -1 -70 -16 -92 -18 -28 -19 -29 0 -42
10 -8 30 -14 43 -14 22 0 24 -3 19 -33 -3 -17 -9 -40 -12 -50 -7 -16 -2 -18
41 -15 l49 3 12 70 c6 39 12 97 12 130 1 50 -4 67 -29 105 -16 25 -30 52 -30
61 0 23 -46 39 -63 22z"/>
</g>
</svg>
