<?xml version="1.0" standalone="no"?>
<!DOCTYPE svg PUBLIC "-//W3C//DTD SVG 20010904//EN"
 "http://www.w3.org/TR/2001/REC-SVG-20010904/DTD/svg10.dtd">
<svg version="1.0" xmlns="http://www.w3.org/2000/svg"
 width="22.000000pt" height="43.000000pt" viewBox="0 0 22.000000 43.000000"
 preserveAspectRatio="xMidYMid meet">
<metadata>
Created by potrace 1.14, written by Peter Selinger 2001-2017
</metadata>
<g transform="translate(0.000000,43.000000) scale(0.100000,-0.100000)"
fill="#000000" stroke="none">
<path fill="#000000" stroke="none" d="M0 386 c0 -46 16 -127 30 -156 4 -9 11
-43 15 -77 6 -57 9 -61 35 -65 l27 -4 -5 64 c-6 81 10 77 28 -8 12 -58 21 -67
52 -55 11 5 13 21 6 83 -4 42 -10 82 -12 88 -3 6 0 16 5 21 6 6 3 35 -9 79
l-19 69 -76 3 -77 3 0 -45z"/>
<path fill="#000000" stroke="none" d="M164 64 c-22 -9 7 -64 33 -64 26 0 28
8 11 45 -11 24 -21 28 -44 19z"/>
<path fill="#000000" stroke="none" d="M60 47 c0 -29 12 -47 32 -47 30 0 21
54 -9 58 -15 2 -23 -2 -23 -11z"/>
</g>
</svg>
