<?xml version="1.0" standalone="no"?>
<!DOCTYPE svg PUBLIC "-//W3C//DTD SVG 20010904//EN"
 "http://www.w3.org/TR/2001/REC-SVG-20010904/DTD/svg10.dtd">
<svg version="1.0" xmlns="http://www.w3.org/2000/svg"
 width="43.000000pt" height="85.000000pt" viewBox="0 0 43.000000 85.000000"
 preserveAspectRatio="xMidYMid meet">
<metadata>
Created by potrace 1.14, written by Peter Selinger 2001-2017
</metadata>
<g transform="translate(0.000000,85.000000) scale(0.100000,-0.100000)"
fill="#000000" stroke="none">
<path fill="#000000" stroke="none" d="M184 779 c-22 -44 -40 -104 -54 -177
l-21 -111 25 -38 c30 -43 31 -42 -62 -99 l-67 -41 2 -79 c1 -43 5 -98 8 -122
6 -41 9 -44 77 -78 38 -19 71 -34 73 -32 8 10 44 179 40 190 -2 7 -6 73 -9
146 -3 109 -2 134 10 139 9 3 14 20 14 48 l0 43 63 9 c34 5 81 6 105 2 52 -7
52 -9 3 141 l-37 115 -68 5 -68 5 -34 -66z"/>
</g>
</svg>
