<?xml version="1.0" standalone="no"?>
<!DOCTYPE svg PUBLIC "-//W3C//DTD SVG 20010904//EN"
 "http://www.w3.org/TR/2001/REC-SVG-20010904/DTD/svg10.dtd">
<svg version="1.0" xmlns="http://www.w3.org/2000/svg"
 width="32.000000pt" height="66.000000pt" viewBox="0 0 32.000000 66.000000"
 preserveAspectRatio="xMidYMid meet">
<metadata>
Created by potrace 1.14, written by Peter Selinger 2001-2017
</metadata>
<g transform="translate(0.000000,66.000000) scale(0.100000,-0.100000)"
fill="#000000" stroke="none">
<path fill="#000000" stroke="none" d="M133 652 c-35 -4 -35 -3 -54 -107 -9
-54 -20 -79 -45 -109 l-33 -39 1 -145 1 -146 33 -32 c18 -18 35 -42 39 -54 8
-25 39 -20 103 17 34 19 42 29 42 52 0 46 24 112 64 174 43 66 42 70 -31 138
l-49 46 24 48 c13 26 26 64 29 84 4 30 1 38 -18 50 -31 19 -68 27 -106 23z"/>
</g>
</svg>
