<?xml version="1.0" standalone="no"?>
<!DOCTYPE svg PUBLIC "-//W3C//DTD SVG 20010904//EN"
 "http://www.w3.org/TR/2001/REC-SVG-20010904/DTD/svg10.dtd">
<svg version="1.0" xmlns="http://www.w3.org/2000/svg"
 width="114.000000pt" height="208.000000pt" viewBox="0 0 114.000000 208.000000"
 preserveAspectRatio="xMidYMid meet">
<metadata>
Created by potrace 1.14, written by Peter Selinger 2001-2017
</metadata>
<g transform="translate(0.000000,208.000000) scale(0.100000,-0.100000)"
fill="#000000" stroke="none">
<path fill="#000000" stroke="none" d="M397 2039 c-73 -37 -78 -42 -73 -67 3
-15 8 -56 12 -91 3 -36 14 -83 23 -104 l17 -40 -30 -32 c-17 -18 -85 -77 -151
-132 -66 -56 -132 -114 -148 -130 -36 -38 -52 -91 -34 -112 8 -9 45 -53 84
-98 39 -45 76 -90 81 -100 6 -10 29 -86 51 -168 23 -84 103 -311 181 -514
l139 -364 -26 -34 c-14 -18 -24 -35 -22 -37 2 -2 73 -6 157 -10 l152 -6 0 68
c0 65 5 79 98 288 55 120 117 260 139 310 l41 91 -74 158 c-41 87 -74 161 -74
166 0 17 144 256 171 284 l29 31 -218 190 -217 191 -34 97 -34 97 -72 55 c-39
30 -76 54 -81 54 -5 -1 -44 -19 -87 -41z"/>
</g>
</svg>
