<?xml version="1.0" standalone="no"?>
<!DOCTYPE svg PUBLIC "-//W3C//DTD SVG 20010904//EN"
 "http://www.w3.org/TR/2001/REC-SVG-20010904/DTD/svg10.dtd">
<svg version="1.0" xmlns="http://www.w3.org/2000/svg"
 width="22.000000pt" height="222.000000pt" viewBox="0 0 22.000000 222.000000"
 preserveAspectRatio="xMidYMid meet">
<metadata>
Created by potrace 1.14, written by Peter Selinger 2001-2017
</metadata>
<g transform="translate(0.000000,222.000000) scale(0.100000,-0.100000)"
fill="#000000" stroke="none">
<path fill="#000000" stroke="none" d="M172 2205 c-24 -5 -47 -17 -52 -25 -4
-8 -22 -69 -39 -136 -28 -109 -31 -136 -31 -268 0 -155 4 -171 49 -219 24 -26
26 -35 25 -115 -2 -217 -23 -769 -29 -792 -4 -14 -20 -65 -35 -115 -23 -74
-30 -124 -40 -280 -6 -104 -13 -197 -16 -206 -6 -23 103 -53 143 -39 28 10 28
11 29 98 0 66 6 99 22 137 l22 50 -2 960 -3 961 -43 -11z"/>
</g>
</svg>
