<?xml version="1.0" standalone="no"?>
<!DOCTYPE svg PUBLIC "-//W3C//DTD SVG 20010904//EN"
 "http://www.w3.org/TR/2001/REC-SVG-20010904/DTD/svg10.dtd">
<svg version="1.0" xmlns="http://www.w3.org/2000/svg"
 width="18.000000pt" height="221.000000pt" viewBox="0 0 18.000000 221.000000"
 preserveAspectRatio="xMidYMid meet">
<metadata>
Created by potrace 1.14, written by Peter Selinger 2001-2017
</metadata>
<g transform="translate(0.000000,221.000000) scale(0.100000,-0.100000)"
fill="#000000" stroke="none">
<path fill="#000000" stroke="none" d="M51 2168 c-28 -23 -51 -44 -51 -47 0
-3 26 -19 57 -36 55 -29 57 -32 85 -110 16 -44 31 -81 34 -84 2 -2 4 68 4 157
l0 162 -39 0 c-30 0 -49 -9 -90 -42z"/>
<path fill="#000000" stroke="none" d="M147 1288 c-26 -130 -26 -144 -32 -650
l-6 -516 36 -64 35 -63 0 713 c0 391 -2 712 -3 712 -2 0 -16 -60 -30 -132z"/>
</g>
</svg>
