<?xml version="1.0" standalone="no"?>
<!DOCTYPE svg PUBLIC "-//W3C//DTD SVG 20010904//EN"
 "http://www.w3.org/TR/2001/REC-SVG-20010904/DTD/svg10.dtd">
<svg version="1.0" xmlns="http://www.w3.org/2000/svg"
 width="16.000000pt" height="126.000000pt" viewBox="0 0 16.000000 126.000000"
 preserveAspectRatio="xMidYMid meet">
<metadata>
Created by potrace 1.14, written by Peter Selinger 2001-2017
</metadata>
<g transform="translate(0.000000,126.000000) scale(0.100000,-0.100000)"
fill="#000000" stroke="none">
<path fill="#000000" stroke="none" d="M121 1144 c-34 -114 -34 -117 -15 -131
56 -42 54 -46 54 107 0 77 -1 140 -2 140 -2 0 -18 -52 -37 -116z"/>
<path fill="#000000" stroke="none" d="M142 871 c-9 -27 -21 -42 -40 -50 -65
-28 -72 -40 -87 -150 l-15 -104 45 -231 c25 -127 50 -255 56 -284 9 -46 13
-52 35 -52 l24 0 0 455 c0 250 -2 455 -3 455 -2 0 -9 -17 -15 -39z"/>
</g>
</svg>
