<?xml version="1.0" standalone="no"?>
<!DOCTYPE svg PUBLIC "-//W3C//DTD SVG 20010904//EN"
 "http://www.w3.org/TR/2001/REC-SVG-20010904/DTD/svg10.dtd">
<svg version="1.0" xmlns="http://www.w3.org/2000/svg"
 width="28.000000pt" height="233.000000pt" viewBox="0 0 28.000000 233.000000"
 preserveAspectRatio="xMidYMid meet">
<metadata>
Created by potrace 1.14, written by Peter Selinger 2001-2017
</metadata>
<g transform="translate(0.000000,233.000000) scale(0.100000,-0.100000)"
fill="#000000" stroke="none">
<path fill="#000000" stroke="none" d="M37 2309 l-37 -19 0 -1118 0 -1118 96
-28 c53 -15 99 -25 101 -22 3 3 -11 72 -31 155 -20 82 -36 156 -36 164 0 23
41 115 98 221 43 79 53 106 49 130 -3 17 -31 141 -61 276 -53 234 -56 256 -70
490 -9 135 -23 282 -32 327 l-17 83 26 60 c15 33 48 93 75 133 27 39 54 87 62
106 14 34 13 35 -27 70 -23 20 -68 52 -100 72 l-59 37 -37 -19z"/>
</g>
</svg>
