<?xml version="1.0" standalone="no"?>
<!DOCTYPE svg PUBLIC "-//W3C//DTD SVG 20010904//EN"
 "http://www.w3.org/TR/2001/REC-SVG-20010904/DTD/svg10.dtd">
<svg version="1.0" xmlns="http://www.w3.org/2000/svg"
 width="26.000000pt" height="288.000000pt" viewBox="0 0 26.000000 288.000000"
 preserveAspectRatio="xMidYMid meet">
<metadata>
Created by potrace 1.14, written by Peter Selinger 2001-2017
</metadata>
<g transform="translate(0.000000,288.000000) scale(0.100000,-0.100000)"
fill="#000000" stroke="none">
<path fill="#000000" stroke="none" d="M127 2654 l-125 -226 42 -71 c39 -65
45 -72 96 -89 30 -10 58 -22 63 -27 4 -4 -1 -147 -13 -317 l-21 -309 -60 -176
-59 -176 35 -204 c33 -190 35 -219 35 -421 l0 -217 -35 -77 c-32 -71 -35 -84
-35 -174 l0 -98 57 -36 58 -35 47 52 47 52 1 1388 c0 763 -2 1387 -4 1387 -2
0 -60 -102 -129 -226z"/>
</g>
</svg>
