<?xml version="1.0" standalone="no"?>
<!DOCTYPE svg PUBLIC "-//W3C//DTD SVG 20010904//EN"
 "http://www.w3.org/TR/2001/REC-SVG-20010904/DTD/svg10.dtd">
<svg version="1.0" xmlns="http://www.w3.org/2000/svg"
 width="10.000000pt" height="198.000000pt" viewBox="0 0 10.000000 198.000000"
 preserveAspectRatio="xMidYMid meet">
<metadata>
Created by potrace 1.14, written by Peter Selinger 2001-2017
</metadata>
<g transform="translate(0.000000,198.000000) scale(0.100000,-0.100000)"
fill="#000000" stroke="none">
<path fill="#000000" stroke="none" d="M51 1903 l-43 -77 7 -138 c4 -82 2
-227 -5 -351 l-12 -212 51 -110 51 -110 0 538 c0 295 -1 537 -2 537 -2 0 -23
-35 -47 -77z"/>
<path fill="#000000" stroke="none" d="M85 448 c-3 -18 -2 -91 3 -163 l9 -130
2 163 c0 89 -1 162 -4 162 -2 0 -7 -15 -10 -32z"/>
<path fill="#000000" stroke="none" d="M58 73 c-21 -22 -38 -42 -38 -45 0 -8
72 -30 77 -24 2 2 3 27 1 55 l-3 52 -37 -38z"/>
</g>
</svg>
