<?xml version="1.0" standalone="no"?>
<!DOCTYPE svg PUBLIC "-//W3C//DTD SVG 20010904//EN"
 "http://www.w3.org/TR/2001/REC-SVG-20010904/DTD/svg10.dtd">
<svg version="1.0" xmlns="http://www.w3.org/2000/svg"
 width="6.000000pt" height="70.000000pt" viewBox="0 0 6.000000 70.000000"
 preserveAspectRatio="xMidYMid meet">
<metadata>
Created by potrace 1.14, written by Peter Selinger 2001-2017
</metadata>
<g transform="translate(0.000000,70.000000) scale(0.100000,-0.100000)"
fill="#000000" stroke="none">
<path fill="#000000" stroke="none" d="M0 603 l1 -98 29 35 c19 23 30 46 30
68 0 40 -25 92 -45 92 -12 0 -15 -18 -15 -97z"/>
<path fill="#000000" stroke="none" d="M0 405 c0 -49 3 -85 6 -82 7 7 6 159
-2 166 -2 2 -4 -35 -4 -84z"/>
<path fill="#000000" stroke="none" d="M1 93 c-1 -34 2 -68 5 -77 10 -25 33
-19 45 11 8 23 7 30 -10 43 -11 8 -24 31 -29 50 -10 33 -10 31 -11 -27z"/>
</g>
</svg>
