<?xml version="1.0" standalone="no"?>
<!DOCTYPE svg PUBLIC "-//W3C//DTD SVG 20010904//EN"
 "http://www.w3.org/TR/2001/REC-SVG-20010904/DTD/svg10.dtd">
<svg version="1.0" xmlns="http://www.w3.org/2000/svg"
 width="11.000000pt" height="125.000000pt" viewBox="0 0 11.000000 125.000000"
 preserveAspectRatio="xMidYMid meet">
<metadata>
Created by potrace 1.14, written by Peter Selinger 2001-2017
</metadata>
<g transform="translate(0.000000,125.000000) scale(0.100000,-0.100000)"
fill="#000000" stroke="none">
<path fill="#000000" stroke="none" d="M59 1225 l-35 -23 -13 -121 c-12 -115
-11 -135 15 -337 23 -189 25 -222 14 -268 -11 -48 -10 -55 9 -86 19 -31 21
-51 22 -175 0 -114 4 -147 19 -180 18 -39 19 -31 19 588 1 345 -2 627 -6 626
-5 0 -24 -11 -44 -24z"/>
</g>
</svg>
