<?xml version="1.0" standalone="no"?>
<!DOCTYPE svg PUBLIC "-//W3C//DTD SVG 20010904//EN"
 "http://www.w3.org/TR/2001/REC-SVG-20010904/DTD/svg10.dtd">
<svg version="1.0" xmlns="http://www.w3.org/2000/svg"
 width="13.000000pt" height="113.000000pt" viewBox="0 0 13.000000 113.000000"
 preserveAspectRatio="xMidYMid meet">
<metadata>
Created by potrace 1.14, written by Peter Selinger 2001-2017
</metadata>
<g transform="translate(0.000000,113.000000) scale(0.100000,-0.100000)"
fill="#000000" stroke="none">
<path fill="#000000" stroke="none" d="M0 653 l0 -478 25 -37 c14 -20 35 -61
48 -90 l23 -53 18 46 17 46 -42 129 c-41 128 -42 129 -30 204 12 84 0 314 -18
349 -9 17 -7 30 13 69 13 26 32 74 41 106 16 54 16 61 0 102 -13 34 -26 49
-56 64 l-39 20 0 -477z"/>
</g>
</svg>
