<?xml version="1.0" standalone="no"?>
<!DOCTYPE svg PUBLIC "-//W3C//DTD SVG 20010904//EN"
 "http://www.w3.org/TR/2001/REC-SVG-20010904/DTD/svg10.dtd">
<svg version="1.0" xmlns="http://www.w3.org/2000/svg"
 width="483.000000pt" height="298.000000pt" viewBox="0 0 483.000000 298.000000"
 preserveAspectRatio="xMidYMid meet">
<metadata>
Created by potrace 1.14, written by Peter Selinger 2001-2017
</metadata>
<g transform="translate(0.000000,298.000000) scale(0.100000,-0.100000)"
fill="#000000" stroke="none">
<path fill="#000000" stroke="none" d="M2442 2954 l-29 -29 -156 0 c-176 0
-191 -5 -234 -81 -30 -51 -29 -58 9 -75 24 -10 41 -31 65 -76 l31 -62 -30 -78
c-34 -85 -39 -144 -14 -172 14 -16 13 -20 -23 -55 l-39 -38 13 -54 c10 -43 10
-56 0 -64 -10 -8 -16 -2 -25 27 -16 51 -36 80 -62 94 -18 9 -16 4 10 -23 29
-30 32 -40 32 -92 0 -51 4 -65 36 -109 21 -28 46 -71 56 -95 11 -23 34 -57 53
-75 24 -23 39 -52 55 -107 12 -41 37 -100 56 -131 19 -31 34 -59 34 -63 0 -3
-11 -6 -25 -6 -14 0 -25 -4 -25 -9 0 -21 49 -78 80 -93 47 -24 136 -24 176 1
l30 18 -18 104 c-9 57 -18 124 -18 149 0 40 -7 54 -60 120 -48 60 -68 77 -101
87 -54 16 -69 30 -69 63 0 14 -3 30 -7 34 -4 4 -8 21 -9 37 -1 16 -9 38 -18
48 -21 23 -20 37 2 69 11 15 24 42 30 60 10 28 9 34 -6 38 -77 25 -106 50
-117 102 -9 41 0 44 95 34 l75 -8 56 38 c39 25 73 39 109 44 l52 7 -5 39 c-6
44 11 68 47 68 35 0 125 34 101 37 -55 10 -65 16 -90 58 l-26 45 22 33 c13 17
36 48 51 68 26 32 28 39 17 62 -10 22 -18 26 -48 25 -20 0 -53 3 -73 7 -33 7
-40 4 -66 -21z"/>
<path fill="#000000" stroke="none" d="M1635 2956 c-16 -7 -39 -23 -49 -35
-11 -11 -29 -21 -42 -21 -39 0 -75 -19 -127 -66 l-50 -45 -13 28 c-43 94 -131
124 -255 87 -44 -13 -103 -16 -313 -16 -143 0 -271 -4 -285 -10 -14 -5 -47
-29 -72 -54 -25 -25 -61 -53 -80 -62 -19 -9 -45 -34 -58 -54 -23 -36 -24 -37
-52 -23 -59 31 -181 13 -221 -31 -15 -17 -15 -24 -2 -74 10 -37 12 -76 8 -117
l-6 -61 43 -28 c59 -37 135 -104 131 -116 -2 -6 7 -8 19 -5 32 9 145 -82 154
-124 9 -39 53 -59 127 -59 113 0 190 92 173 206 -3 24 -17 58 -30 78 -14 21
-24 51 -25 78 -4 88 -8 83 74 83 68 0 74 -1 60 -16 -32 -35 -5 -99 43 -99 11
0 30 11 43 25 20 21 29 24 62 19 23 -4 43 -2 52 5 10 9 16 8 26 -4 14 -17 53
-20 80 -5 22 12 34 55 21 79 -9 16 -5 19 31 25 47 8 165 42 191 57 14 7 17 5
17 -14 0 -16 9 -28 25 -35 14 -6 24 -15 23 -19 -2 -5 8 -23 22 -40 23 -33 24
-33 44 -14 29 26 59 12 78 -36 9 -21 21 -94 28 -163 14 -147 15 -150 34 -150
9 0 21 29 36 89 18 73 26 90 46 100 14 6 28 11 31 11 10 0 -6 -89 -22 -120 -8
-16 -15 -37 -15 -47 0 -10 11 5 24 33 29 62 84 127 102 120 10 -4 14 5 14 35
0 29 6 46 20 57 19 16 19 20 6 63 -8 25 -17 75 -21 110 -6 55 -4 67 10 79 10
8 26 34 36 57 10 23 27 47 39 53 19 10 21 17 16 53 -18 114 -143 180 -251 133z"/>
<path fill="#000000" stroke="none" d="M3195 2960 c-77 -5 -101 -11 -161 -42
-93 -48 -143 -107 -136 -161 5 -40 -10 -67 -37 -67 -32 0 -42 -15 -32 -44 7
-17 20 -28 39 -32 22 -5 38 -22 74 -82 25 -43 48 -86 50 -97 3 -11 -4 -42 -14
-70 -9 -27 -27 -104 -38 -169 -11 -66 -22 -121 -24 -123 -2 -2 -15 1 -30 7
-23 8 -25 14 -20 37 l7 27 -39 -31 c-21 -17 -55 -37 -75 -46 -20 -8 -39 -20
-43 -25 -4 -6 25 -33 66 -60 40 -27 97 -77 127 -111 44 -51 56 -60 66 -49 13
14 51 480 40 498 -3 5 -3 16 2 23 4 6 13 74 19 149 5 76 14 141 18 145 4 4
101 13 214 19 160 8 209 8 217 -2 14 -16 59 7 101 51 32 33 32 34 17 78 -17
51 -84 125 -146 162 -47 27 -74 29 -262 15z"/>
<path fill="#000000" stroke="none" d="M4150 2952 c-29 -9 -50 -35 -50 -62 0
-32 17 -50 46 -50 26 0 84 -61 114 -120 12 -23 26 -79 32 -126 7 -51 16 -84
23 -84 7 0 46 -34 88 -75 41 -41 83 -75 91 -75 9 0 16 -6 16 -13 0 -19 43 -57
63 -57 16 0 16 -3 3 -27 -13 -27 -11 -33 55 -153 84 -152 86 -176 17 -249 -24
-25 -61 -67 -81 -93 -21 -26 -58 -62 -82 -79 -44 -32 -45 -34 -45 -88 0 -46 4
-59 27 -83 15 -15 37 -28 49 -28 12 0 38 -7 57 -15 85 -35 188 -10 235 59 l22
32 0 498 0 497 -27 -3 c-41 -5 -55 -40 -49 -122 4 -52 10 -74 26 -91 37 -39 8
-71 -88 -101 -78 -23 -82 -21 -82 37 0 55 48 212 81 265 25 41 24 54 -4 54
-29 0 -55 43 -63 104 -5 37 -16 55 -64 105 -75 77 -106 93 -180 90 -38 -2 -65
2 -75 11 -9 7 -30 13 -48 13 -18 0 -39 5 -47 12 -21 17 -42 23 -60 17z"/>
<path fill="#000000" stroke="none" d="M3930 2753 c-30 -11 -50 -37 -50 -64 0
-15 5 -31 10 -34 13 -8 4 -43 -16 -66 -17 -19 -2 -69 34 -114 l23 -29 27 27
c24 24 27 36 31 107 2 50 -1 86 -8 94 -8 10 -8 16 4 26 22 19 18 39 -11 50
-14 6 -26 10 -27 9 -1 0 -9 -3 -17 -6z"/>
<path fill="#000000" stroke="none" d="M3494 2588 c3 -18 8 -75 12 -125 l7
-93 26 7 c14 3 29 8 34 10 10 6 9 37 -2 49 -5 5 -11 35 -14 66 -2 35 -10 65
-20 76 -10 10 -17 24 -17 30 0 7 -7 12 -16 12 -13 0 -15 -7 -10 -32z"/>
<path fill="#000000" stroke="none" d="M3484 252 c-6 -4 -14 -44 -17 -90 -5
-82 -5 -83 20 -93 35 -13 41 -12 68 16 19 19 25 35 25 70 0 68 -23 105 -65
105 -11 0 -25 -4 -31 -8z"/>
<path fill="#000000" stroke="none" d="M3660 240 c-21 -21 -26 -60 -11 -89 13
-24 111 -56 144 -47 15 3 34 18 43 31 27 41 5 78 -63 104 -68 26 -88 26 -113
1z"/>
<path fill="#000000" stroke="none" d="M4074 245 c-10 -8 -40 -15 -65 -15 -58
0 -107 -17 -119 -40 -26 -49 1 -110 63 -146 57 -34 76 -36 252 -37 181 0 252
9 269 36 7 11 16 12 42 4 38 -11 72 5 100 48 14 21 14 30 4 55 -15 36 -50 48
-88 30 -15 -6 -28 -8 -29 -3 -11 31 -28 38 -120 49 -54 7 -120 17 -148 23 -74
14 -138 13 -161 -4z"/>
</g>
</svg>
