<?xml version="1.0" standalone="no"?>
<!DOCTYPE svg PUBLIC "-//W3C//DTD SVG 20010904//EN"
 "http://www.w3.org/TR/2001/REC-SVG-20010904/DTD/svg10.dtd">
<svg version="1.0" xmlns="http://www.w3.org/2000/svg"
 width="117.000000pt" height="71.000000pt" viewBox="0 0 117.000000 71.000000"
 preserveAspectRatio="xMidYMid meet">
<metadata>
Created by potrace 1.14, written by Peter Selinger 2001-2017
</metadata>
<g transform="translate(0.000000,71.000000) scale(0.100000,-0.100000)"
fill="#000000" stroke="none">
<path fill="#000000" stroke="none" d="M1007 703 c-4 -3 -7 -21 -7 -39 0 -29
-10 -39 -127 -127 -71 -52 -153 -107 -183 -122 -49 -25 -61 -27 -125 -21 -38
3 -145 6 -236 7 l-167 0 -53 -56 c-63 -66 -109 -133 -109 -157 0 -9 32 -55 72
-102 l71 -85 71 59 c39 32 100 83 135 113 l65 54 189 -44 c267 -61 252 -63
378 48 57 51 123 109 146 130 l42 39 -71 155 c-40 85 -75 155 -78 155 -4 0
-10 -3 -13 -7z"/>
</g>
</svg>
