<?xml version="1.0" standalone="no"?>
<!DOCTYPE svg PUBLIC "-//W3C//DTD SVG 20010904//EN"
 "http://www.w3.org/TR/2001/REC-SVG-20010904/DTD/svg10.dtd">
<svg version="1.0" xmlns="http://www.w3.org/2000/svg"
 width="44.000000pt" height="27.000000pt" viewBox="0 0 44.000000 27.000000"
 preserveAspectRatio="xMidYMid meet">
<metadata>
Created by potrace 1.14, written by Peter Selinger 2001-2017
</metadata>
<g transform="translate(0.000000,27.000000) scale(0.100000,-0.100000)"
fill="#000000" stroke="none">
<path fill="#000000" stroke="none" d="M0 267 c0 -2 11 -36 25 -76 24 -72 82
-152 128 -178 28 -15 107 -16 144 -2 15 6 50 14 78 18 46 6 50 8 56 41 4 19 5
37 2 40 -2 3 -53 4 -111 2 -59 -1 -128 3 -153 8 l-45 11 -12 59 c-12 56 -14
60 -50 70 -37 10 -62 13 -62 7z"/>
</g>
</svg>
