<?xml version="1.0" standalone="no"?>
<!DOCTYPE svg PUBLIC "-//W3C//DTD SVG 20010904//EN"
 "http://www.w3.org/TR/2001/REC-SVG-20010904/DTD/svg10.dtd">
<svg version="1.0" xmlns="http://www.w3.org/2000/svg"
 width="153.000000pt" height="96.000000pt" viewBox="0 0 153.000000 96.000000"
 preserveAspectRatio="xMidYMid meet">
<metadata>
Created by potrace 1.14, written by Peter Selinger 2001-2017
</metadata>
<g transform="translate(0.000000,96.000000) scale(0.100000,-0.100000)"
fill="#000000" stroke="none">
<path fill="#000000" stroke="none" d="M1371 947 c-21 -10 -23 -16 -17 -53 4
-32 2 -44 -9 -48 -33 -12 -17 -60 38 -114 l54 -53 18 41 c10 23 31 52 47 65
15 13 28 26 28 28 0 2 -17 12 -39 21 -41 19 -63 52 -55 83 7 26 -32 44 -65 30z"/>
<path fill="#000000" stroke="none" d="M132 917 c-7 -18 -12 -45 -12 -58 0
-16 -15 -39 -41 -64 -36 -35 -69 -83 -69 -100 0 -3 9 -5 20 -5 13 0 24 10 30
25 5 14 15 25 21 25 19 0 3 -161 -22 -220 -21 -48 -21 -51 -4 -70 13 -14 20
-53 30 -157 7 -76 20 -155 29 -175 12 -28 13 -44 6 -63 -6 -15 -10 -30 -10
-35 0 -13 30 -21 48 -11 14 8 17 25 16 112 -1 111 9 107 21 -9 7 -67 9 -72 31
-72 30 0 39 33 24 89 -9 35 -9 47 4 66 13 20 14 34 5 80 -10 54 -7 93 12 144
8 19 12 21 24 11 12 -10 15 -10 15 3 0 8 3 24 6 34 5 14 4 15 -5 7 -7 -7 -21
-10 -31 -7 -15 4 -17 10 -9 36 5 18 9 47 9 65 0 19 7 47 17 62 14 25 15 32 2
62 -7 18 -12 38 -11 45 1 7 -9 35 -23 62 -14 28 -25 62 -25 75 0 14 -5 37 -12
51 -9 20 -18 25 -48 25 -32 0 -37 -4 -48 -33z"/>
<path fill="#ffffff" stroke="none" d="M167 253 c-3 -10 -5 -2 -5 17 0 19 2
27 5 18 2 -10 2 -26 0 -35z"/>
<path fill="#000000" stroke="none" d="M52 601 c-11 -7 -11 -9 2 -14 10 -4 16
-1 16 8 0 17 -1 17 -18 6z"/>
</g>
</svg>
