<?xml version="1.0" standalone="no"?>
<!DOCTYPE svg PUBLIC "-//W3C//DTD SVG 20010904//EN"
 "http://www.w3.org/TR/2001/REC-SVG-20010904/DTD/svg10.dtd">
<svg version="1.0" xmlns="http://www.w3.org/2000/svg"
 width="129.000000pt" height="82.000000pt" viewBox="0 0 129.000000 82.000000"
 preserveAspectRatio="xMidYMid meet">
<metadata>
Created by potrace 1.14, written by Peter Selinger 2001-2017
</metadata>
<g transform="translate(0.000000,82.000000) scale(0.100000,-0.100000)"
fill="#000000" stroke="none">
<path fill="#000000" stroke="none" d="M665 784 c-44 -20 -84 -39 -88 -43 -4
-5 -24 -66 -44 -137 l-35 -129 16 -99 17 -100 -43 -38 c-40 -36 -46 -38 -93
-34 -27 3 -95 8 -150 11 l-100 6 -73 -110 -72 -111 645 0 c725 0 664 -8 593
73 -33 38 -34 38 -138 49 -58 6 -109 14 -113 18 -5 4 0 38 11 76 11 38 25 130
31 205 l11 136 -56 120 -56 120 -68 12 c-97 16 -106 15 -195 -25z"/>
</g>
</svg>
