<?xml version="1.0" standalone="no"?>
<!DOCTYPE svg PUBLIC "-//W3C//DTD SVG 20010904//EN"
 "http://www.w3.org/TR/2001/REC-SVG-20010904/DTD/svg10.dtd">
<svg version="1.0" xmlns="http://www.w3.org/2000/svg"
 width="84.000000pt" height="53.000000pt" viewBox="0 0 84.000000 53.000000"
 preserveAspectRatio="xMidYMid meet">
<metadata>
Created by potrace 1.14, written by Peter Selinger 2001-2017
</metadata>
<g transform="translate(0.000000,53.000000) scale(0.100000,-0.100000)"
fill="#000000" stroke="none">
<path fill="#000000" stroke="none" d="M530 521 c-14 -3 -39 -14 -56 -23 -26
-14 -33 -26 -38 -63 -7 -41 -14 -51 -89 -113 -45 -38 -113 -86 -152 -106 -133
-73 -205 -147 -190 -197 6 -18 19 -19 241 -19 l234 0 35 37 c19 21 49 62 66
90 16 29 34 55 38 57 7 5 79 -101 110 -161 10 -19 20 -23 62 -23 60 0 60 -6
-7 139 -24 52 -44 100 -44 108 0 8 -8 30 -19 51 -10 20 -22 53 -26 72 -4 19
-24 59 -43 90 -20 30 -36 55 -37 56 -2 6 -66 9 -85 5z"/>
</g>
</svg>
