<?xml version="1.0" standalone="no"?>
<!DOCTYPE svg PUBLIC "-//W3C//DTD SVG 20010904//EN"
 "http://www.w3.org/TR/2001/REC-SVG-20010904/DTD/svg10.dtd">
<svg version="1.0" xmlns="http://www.w3.org/2000/svg"
 width="23.000000pt" height="14.000000pt" viewBox="0 0 23.000000 14.000000"
 preserveAspectRatio="xMidYMid meet">
<metadata>
Created by potrace 1.14, written by Peter Selinger 2001-2017
</metadata>
<g transform="translate(0.000000,14.000000) scale(0.100000,-0.100000)"
fill="#000000" stroke="none">
<path fill="#000000" stroke="none" d="M129 133 l-87 -4 5 -39 c5 -32 2 -40
-10 -40 -9 0 -21 -9 -27 -19 -8 -17 -6 -20 18 -25 15 -4 48 -2 74 2 26 5 59 7
72 5 21 -4 27 1 40 32 17 39 22 97 9 93 -5 -1 -47 -4 -94 -5z"/>
</g>
</svg>
