<?xml version="1.0" standalone="no"?>
<!DOCTYPE svg PUBLIC "-//W3C//DTD SVG 20010904//EN"
 "http://www.w3.org/TR/2001/REC-SVG-20010904/DTD/svg10.dtd">
<svg version="1.0" xmlns="http://www.w3.org/2000/svg"
 width="189.000000pt" height="120.000000pt" viewBox="0 0 189.000000 120.000000"
 preserveAspectRatio="xMidYMid meet">
<metadata>
Created by potrace 1.14, written by Peter Selinger 2001-2017
</metadata>
<g transform="translate(0.000000,120.000000) scale(0.100000,-0.100000)"
fill="#000000" stroke="none">
<path fill="#000000" stroke="none" d="M103 1191 c-62 -8 -103 -40 -103 -82 0
-34 66 -193 87 -211 12 -9 46 -12 119 -10 l103 2 -9 -32 c-17 -57 6 -103 79
-165 36 -31 84 -77 106 -104 22 -27 81 -78 130 -115 50 -37 122 -97 160 -134
88 -85 117 -100 196 -100 53 0 66 4 94 29 23 20 30 33 24 42 -14 23 -11 99 4
99 25 0 198 -90 262 -135 34 -25 89 -57 121 -71 80 -35 124 -78 124 -121 0
-19 7 -45 16 -58 13 -20 25 -25 60 -25 49 0 55 6 155 162 l60 93 -24 21 c-18
15 -50 24 -116 33 -95 13 -121 29 -121 73 0 25 61 48 125 48 69 0 85 7 85 37
0 18 -21 47 -71 98 l-71 73 -111 21 c-62 12 -126 21 -142 21 -38 0 -75 25 -75
50 0 35 -12 50 -41 50 -33 0 -40 7 -78 80 -31 59 -37 64 -154 111 -55 22 -75
34 -65 40 9 6 4 9 -17 10 -16 0 -46 7 -65 14 -29 11 -31 14 -12 14 48 2 10 18
-54 24 -60 6 -76 13 -86 39 -4 8 -302 78 -333 78 -28 0 -91 -55 -74 -66 17
-10 -10 -24 -48 -24 -25 0 -33 4 -33 18 0 10 -15 32 -33 50 -35 34 -56 37
-174 23z"/>
</g>
</svg>
