<?xml version="1.0" standalone="no"?>
<!DOCTYPE svg PUBLIC "-//W3C//DTD SVG 20010904//EN"
 "http://www.w3.org/TR/2001/REC-SVG-20010904/DTD/svg10.dtd">
<svg version="1.0" xmlns="http://www.w3.org/2000/svg"
 width="183.000000pt" height="115.000000pt" viewBox="0 0 183.000000 115.000000"
 preserveAspectRatio="xMidYMid meet">
<metadata>
Created by potrace 1.14, written by Peter Selinger 2001-2017
</metadata>
<g transform="translate(0.000000,115.000000) scale(0.100000,-0.100000)"
fill="#000000" stroke="none">
<path fill="#000000" stroke="none" d="M36 1119 c-9 -64 -36 -923 -28 -930 4
-4 82 -48 173 -98 l165 -91 455 83 454 83 25 121 25 120 95 112 c60 70 100
109 109 106 34 -13 258 203 294 285 24 53 30 186 9 198 -6 5 -317 14 -690 20
-372 7 -768 15 -879 19 l-202 6 -5 -34z"/>
</g>
</svg>
