<?xml version="1.0" standalone="no"?>
<!DOCTYPE svg PUBLIC "-//W3C//DTD SVG 20010904//EN"
 "http://www.w3.org/TR/2001/REC-SVG-20010904/DTD/svg10.dtd">
<svg version="1.0" xmlns="http://www.w3.org/2000/svg"
 width="52.000000pt" height="33.000000pt" viewBox="0 0 52.000000 33.000000"
 preserveAspectRatio="xMidYMid meet">
<metadata>
Created by potrace 1.14, written by Peter Selinger 2001-2017
</metadata>
<g transform="translate(0.000000,33.000000) scale(0.100000,-0.100000)"
fill="#000000" stroke="none">
<path fill="#000000" stroke="none" d="M0 223 l1 -108 19 24 c24 28 26 70 5
97 -18 23 -19 66 -3 82 9 9 8 12 -5 12 -15 0 -17 -13 -17 -107z"/>
<path fill="#000000" stroke="none" d="M195 310 c-13 -15 -16 -28 -10 -57 4
-21 7 -60 7 -88 0 -27 -3 -67 -7 -88 -10 -54 13 -77 76 -77 46 0 50 2 68 37
23 47 45 66 95 87 38 16 39 16 33 62 -4 37 -1 50 14 65 10 10 26 19 35 19 22
0 9 16 -28 34 -49 25 -110 21 -138 -9 l-23 -25 -19 30 c-14 24 -25 30 -51 30
-21 0 -41 -8 -52 -20z"/>
</g>
</svg>
