<?xml version="1.0" standalone="no"?>
<!DOCTYPE svg PUBLIC "-//W3C//DTD SVG 20010904//EN"
 "http://www.w3.org/TR/2001/REC-SVG-20010904/DTD/svg10.dtd">
<svg version="1.0" xmlns="http://www.w3.org/2000/svg"
 width="201.000000pt" height="123.000000pt" viewBox="0 0 201.000000 123.000000"
 preserveAspectRatio="xMidYMid meet">
<metadata>
Created by potrace 1.14, written by Peter Selinger 2001-2017
</metadata>
<g transform="translate(0.000000,123.000000) scale(0.100000,-0.100000)"
fill="#000000" stroke="none">
<path fill="#000000" stroke="none" d="M324 1058 l-100 -173 29 -75 c16 -41
46 -125 67 -186 l38 -111 -41 -86 c-33 -67 -60 -105 -125 -172 l-83 -85 -55
35 c-31 20 -54 32 -52 28 45 -101 91 -172 129 -199 43 -30 45 -31 99 -20 64
14 137 63 192 129 23 27 70 63 120 92 46 26 124 73 173 105 l90 59 274 56 274
57 221 -12 c122 -6 260 -15 308 -19 101 -8 88 -24 113 144 14 98 14 132 1 318
-7 114 -16 210 -19 214 -3 3 -307 18 -674 33 -367 16 -715 31 -773 34 l-105 6
-101 -172z"/>
</g>
</svg>
