<?xml version="1.0" standalone="no"?>
<!DOCTYPE svg PUBLIC "-//W3C//DTD SVG 20010904//EN"
 "http://www.w3.org/TR/2001/REC-SVG-20010904/DTD/svg10.dtd">
<svg version="1.0" xmlns="http://www.w3.org/2000/svg"
 width="346.000000pt" height="220.000000pt" viewBox="0 0 346.000000 220.000000"
 preserveAspectRatio="xMidYMid meet">
<metadata>
Created by potrace 1.14, written by Peter Selinger 2001-2017
</metadata>
<g transform="translate(0.000000,220.000000) scale(0.100000,-0.100000)"
fill="#000000" stroke="none">
<path fill="#000000" stroke="none" d="M1189 2140 c-118 -32 -258 -71 -312
-88 l-99 -31 -185 20 c-177 19 -192 19 -297 4 -132 -20 -161 -32 -237 -103
-58 -53 -59 -55 -59 -108 0 -42 3 -54 15 -54 21 0 32 -32 40 -115 6 -56 13
-76 35 -100 15 -16 48 -58 73 -91 41 -54 45 -66 40 -98 l-6 -36 42 0 c29 0 41
-4 41 -14 0 -8 60 -86 134 -173 l135 -158 98 -44 c168 -76 180 -85 220 -165
44 -88 108 -178 165 -232 l43 -42 140 89 c77 49 265 166 417 259 267 164 284
173 445 229 93 33 262 87 377 122 l209 62 246 -11 c244 -11 286 -17 534 -76
16 -4 17 13 17 245 0 226 -2 249 -17 258 -27 14 -323 14 -546 1 -136 -9 -228
-10 -290 -3 -87 9 -99 8 -222 -24 -71 -18 -133 -33 -137 -33 -4 0 -30 44 -57
98 l-48 97 20 27 20 27 -68 120 c-38 67 -74 121 -79 121 -14 0 -494 57 -572
68 -57 8 -77 4 -275 -48z"/>
<path fill="#ffffff" stroke="none" d="M1187 1538 c38 -51 86 -117 107 -146
l38 -53 -28 7 c-70 16 -111 36 -243 119 -99 61 -141 93 -141 105 0 26 10 30
103 45 45 7 85 13 89 14 4 0 38 -41 75 -91z"/>
<path fill="#000000" stroke="none" d="M696 35 c-18 -28 -20 -35 -7 -35 5 0
14 13 20 30 12 36 9 38 -13 5z"/>
<path fill="#000000" stroke="none" d="M793 3 c48 -2 126 -2 175 0 48 1 8 3
-88 3 -96 0 -136 -2 -87 -3z"/>
</g>
</svg>
