<?xml version="1.0" standalone="no"?>
<!DOCTYPE svg PUBLIC "-//W3C//DTD SVG 20010904//EN"
 "http://www.w3.org/TR/2001/REC-SVG-20010904/DTD/svg10.dtd">
<svg version="1.0" xmlns="http://www.w3.org/2000/svg"
 width="204.000000pt" height="83.000000pt" viewBox="0 0 204.000000 83.000000"
 preserveAspectRatio="xMidYMid meet">
<metadata>
Created by potrace 1.14, written by Peter Selinger 2001-2017
</metadata>
<g transform="translate(0.000000,83.000000) scale(0.100000,-0.100000)"
fill="#000000" stroke="none">
<path fill="#000000" stroke="none" d="M135 809 c-4 -11 -36 -57 -71 -101
l-65 -79 3 -107 3 -107 45 -22 c25 -12 58 -22 74 -23 16 0 72 23 128 53 96 51
100 54 130 114 41 85 58 98 58 47 0 -22 3 -48 6 -59 3 -14 -13 -44 -55 -100
-38 -51 -61 -90 -61 -107 0 -24 6 -28 63 -47 747 -242 850 -272 876 -261 14 6
46 40 71 75 43 61 85 89 99 66 3 -5 44 -15 90 -21 91 -12 197 -43 309 -89 l71
-30 11 37 c6 20 35 138 66 261 l55 224 -11 101 c-7 56 -18 119 -27 142 l-15
41 -141 6 c-78 4 -494 7 -924 7 l-782 0 -6 -21z"/>
</g>
</svg>
