<?xml version="1.0" standalone="no"?>
<!DOCTYPE svg PUBLIC "-//W3C//DTD SVG 20010904//EN"
 "http://www.w3.org/TR/2001/REC-SVG-20010904/DTD/svg10.dtd">
<svg version="1.0" xmlns="http://www.w3.org/2000/svg"
 width="184.000000pt" height="73.000000pt" viewBox="0 0 184.000000 73.000000"
 preserveAspectRatio="xMidYMid meet">
<metadata>
Created by potrace 1.14, written by Peter Selinger 2001-2017
</metadata>
<g transform="translate(0.000000,73.000000) scale(0.100000,-0.100000)"
fill="#000000" stroke="none">
<path fill="#000000" stroke="none" d="M1186 708 c-9 -12 -16 -32 -16 -44 0
-20 -6 -21 -142 -27 -238 -11 -257 -10 -278 15 -17 22 -25 23 -186 24 -136 0
-172 -2 -186 -14 -19 -16 -24 -67 -8 -77 7 -4 7 -12 0 -25 -5 -10 -10 -32 -10
-47 l0 -29 -61 4 c-47 3 -65 0 -80 -14 -25 -23 -24 -72 2 -100 17 -18 18 -22
5 -27 -8 -3 -20 1 -26 9 -29 34 -110 5 -110 -39 0 -9 -4 -19 -10 -22 -5 -3
-10 -18 -10 -33 0 -16 -13 -43 -29 -63 -23 -27 -31 -50 -37 -98 -11 -96 -3
-101 161 -101 72 0 135 3 138 7 4 3 2 12 -3 18 -13 16 9 123 38 185 18 40 20
42 21 18 1 -24 17 -46 26 -37 1 2 0 25 -4 51 -9 54 7 78 51 78 29 0 48 -33 48
-85 0 -19 5 -35 10 -35 23 0 73 62 79 98 5 31 11 38 36 42 26 5 33 1 53 -32
13 -21 29 -38 37 -38 23 0 37 -36 20 -50 -13 -10 -13 -16 0 -41 19 -36 19 -58
0 -65 -12 -5 -13 -10 -4 -20 16 -20 159 -20 159 0 0 7 15 25 33 38 18 14 39
38 47 54 8 16 23 35 33 42 13 10 16 22 11 48 -5 29 -3 35 20 45 39 18 72 -1
83 -48 5 -23 17 -42 31 -49 12 -6 30 -18 40 -27 10 -10 23 -17 29 -17 6 0 24
-7 39 -15 16 -8 39 -15 50 -15 12 0 27 -7 34 -15 7 -8 27 -15 46 -15 37 0 64
29 64 67 0 16 6 23 20 23 28 0 54 44 46 78 -3 15 -7 50 -9 78 -2 50 -2 51 17
38 11 -8 32 -14 47 -14 l26 0 -1 -95 c-1 -52 -5 -95 -10 -95 -4 0 -26 -14 -47
-31 -36 -28 -39 -35 -39 -78 0 -70 21 -86 102 -77 41 4 69 13 83 26 l21 20 24
-25 c32 -34 93 -35 115 -2 16 25 20 182 5 227 -5 14 -11 36 -14 50 -3 14 -26
47 -51 75 -25 27 -45 58 -45 69 0 30 -68 125 -95 132 -38 10 -59 38 -45 64 6
11 10 33 8 48 l-3 27 -102 3 -103 3 0 -28 -1 -28 -15 28 c-14 26 -18 27 -89
27 -65 0 -76 -3 -89 -22z"/>
<path fill="#ffffff" stroke="none" d="M1394 635 c3 -8 1 -15 -4 -15 -6 0 -10
7 -10 15 0 8 2 15 4 15 2 0 6 -7 10 -15z"/>
<path fill="#ffffff" stroke="none" d="M932 498 c-7 -7 -12 -32 -12 -57 0 -41
-4 -48 -30 -63 l-31 -17 -19 32 c-12 18 -20 50 -20 75 l0 42 62 0 c48 0 59 -3
50 -12z"/>
</g>
</svg>
