<?xml version="1.0" standalone="no"?>
<!DOCTYPE svg PUBLIC "-//W3C//DTD SVG 20010904//EN"
 "http://www.w3.org/TR/2001/REC-SVG-20010904/DTD/svg10.dtd">
<svg version="1.0" xmlns="http://www.w3.org/2000/svg"
 width="35.000000pt" height="14.000000pt" viewBox="0 0 35.000000 14.000000"
 preserveAspectRatio="xMidYMid meet">
<metadata>
Created by potrace 1.14, written by Peter Selinger 2001-2017
</metadata>
<g transform="translate(0.000000,14.000000) scale(0.100000,-0.100000)"
fill="#000000" stroke="none">
<path fill="#000000" stroke="none" d="M21 98 c-26 -46 -25 -49 42 -84 27 -15
29 -15 22 5 -9 28 31 105 51 97 9 -3 20 -6 26 -6 10 0 8 -21 -8 -84 l-6 -26
95 0 c88 0 128 10 93 23 -8 3 -21 28 -30 55 l-17 49 -91 7 c-154 10 -150 11
-177 -36z"/>
</g>
</svg>
