<?xml version="1.0" standalone="no"?>
<!DOCTYPE svg PUBLIC "-//W3C//DTD SVG 20010904//EN"
 "http://www.w3.org/TR/2001/REC-SVG-20010904/DTD/svg10.dtd">
<svg version="1.0" xmlns="http://www.w3.org/2000/svg"
 width="50.000000pt" height="34.000000pt" viewBox="0 0 50.000000 34.000000"
 preserveAspectRatio="xMidYMid meet">
<metadata>
Created by potrace 1.14, written by Peter Selinger 2001-2017
</metadata>
<g transform="translate(0.000000,34.000000) scale(0.100000,-0.100000)"
fill="#000000" stroke="none">
<path fill="#000000" stroke="none" d="M12 328 c-7 -7 -12 -31 -12 -54 0 -33
5 -45 24 -57 15 -10 28 -33 35 -64 7 -26 19 -72 28 -101 l15 -54 193 4 c106 2
196 6 199 9 10 10 -33 122 -57 147 -40 43 -130 89 -205 106 -41 9 -100 30
-133 46 -66 34 -70 35 -87 18z"/>
</g>
</svg>
