<?xml version="1.0" standalone="no"?>
<!DOCTYPE svg PUBLIC "-//W3C//DTD SVG 20010904//EN"
 "http://www.w3.org/TR/2001/REC-SVG-20010904/DTD/svg10.dtd">
<svg version="1.0" xmlns="http://www.w3.org/2000/svg"
 width="592.000000pt" height="399.000000pt" viewBox="0 0 592.000000 399.000000"
 preserveAspectRatio="xMidYMid meet">
<metadata>
Created by potrace 1.14, written by Peter Selinger 2001-2017
</metadata>
<g transform="translate(0.000000,399.000000) scale(0.100000,-0.100000)"
fill="#000000" stroke="none">
<path fill="#000000" stroke="none" d="M2850 3944 c-569 -23 -1039 -43 -1044
-43 -4 -1 -5 -44 -1 -96 l7 -95 -97 -246 -97 -245 47 -213 46 -213 -10 -228
-10 -228 44 -171 c25 -94 41 -173 37 -177 -4 -3 -133 -13 -286 -23 l-279 -16
-251 -80 c-215 -68 -301 -102 -596 -235 -190 -86 -348 -159 -353 -164 -4 -4
24 -74 63 -155 l70 -148 0 -207 c0 -179 10 -353 26 -457 l4 -31 332 114 c182
62 332 112 333 111 7 -9 205 -392 205 -397 0 -3 -73 -43 -162 -87 l-163 -80
-270 37 c-148 20 -271 35 -273 34 -2 -2 5 -46 14 -99 l17 -96 1828 0 1829 0 5
22 c2 13 11 80 19 151 17 140 15 134 95 257 l57 86 754 -263 755 -263 150 0
c82 0 167 3 188 6 l37 7 0 817 0 817 -148 154 c-118 123 -169 185 -249 304
-55 83 -107 156 -116 163 -13 11 -38 9 -152 -14 -74 -15 -138 -24 -141 -21 -9
8 -35 139 -30 145 3 2 43 19 90 37 l86 32 -25 23 c-14 13 -69 77 -122 142 -53
65 -99 118 -102 118 -4 0 -17 -18 -31 -40 -14 -22 -27 -40 -30 -40 -3 0 -24
18 -45 40 -21 22 -44 40 -50 40 -6 0 -50 -16 -97 -35 -70 -28 -92 -33 -115
-25 -15 5 -52 16 -81 24 l-52 15 -24 -48 -25 -48 -73 -13 c-40 -7 -81 -16 -91
-19 -10 -4 -42 -51 -71 -104 l-52 -98 14 -112 c11 -88 20 -123 43 -164 34 -62
35 -69 9 -76 -21 -5 -27 -40 -11 -65 4 -8 75 -36 157 -63 l149 -49 158 40 c86
23 162 38 168 35 5 -4 110 -123 232 -265 l222 -258 144 -254 c80 -139 154
-268 164 -286 l19 -33 -53 22 c-300 118 -399 165 -744 354 -397 218 -699 366
-997 491 -104 43 -188 83 -188 88 0 6 13 41 29 78 l29 67 -67 -26 c-57 -22
-82 -25 -177 -25 -61 0 -129 3 -152 7 l-42 7 30 41 c51 71 78 83 255 111 88
14 173 26 188 26 15 0 27 2 27 4 0 3 43 167 95 366 95 358 96 363 174 519 l79
157 13 230 c11 202 10 249 -5 399 -9 94 -19 187 -22 208 l-6 37 -111 -1 c-62
-1 -578 -21 -1147 -45z"/>
</g>
</svg>
