<?xml version="1.0" standalone="no"?>
<!DOCTYPE svg PUBLIC "-//W3C//DTD SVG 20010904//EN"
 "http://www.w3.org/TR/2001/REC-SVG-20010904/DTD/svg10.dtd">
<svg version="1.0" xmlns="http://www.w3.org/2000/svg"
 width="191.000000pt" height="128.000000pt" viewBox="0 0 191.000000 128.000000"
 preserveAspectRatio="xMidYMid meet">
<metadata>
Created by potrace 1.14, written by Peter Selinger 2001-2017
</metadata>
<g transform="translate(0.000000,128.000000) scale(0.100000,-0.100000)"
fill="#000000" stroke="none">
<path fill="#000000" stroke="none" d="M680 1268 c-355 -5 -645 -10 -646 -11
-1 -2 -26 -934 -28 -1071 l-1 -79 75 -32 74 -32 101 66 c69 45 115 67 150 74
27 5 53 13 56 19 4 6 98 21 210 34 l204 23 47 -52 c26 -29 57 -73 69 -99 25
-54 39 -62 134 -83 39 -9 78 -18 87 -21 12 -3 31 15 67 62 59 78 61 93 32 228
-19 86 -19 90 -1 196 10 59 28 124 39 146 26 49 26 74 -4 324 -31 251 -30 250
-5 250 14 0 20 7 20 24 0 13 7 27 16 30 9 3 67 6 129 6 l113 0 6 -27 c2 -16
28 -151 58 -301 l52 -272 75 -53 c41 -28 80 -55 87 -60 8 -5 6 16 -8 65 -11
40 -58 204 -103 363 l-82 290 -189 1 c-104 0 -479 -3 -834 -8z"/>
</g>
</svg>
