<?xml version="1.0" standalone="no"?>
<!DOCTYPE svg PUBLIC "-//W3C//DTD SVG 20010904//EN"
 "http://www.w3.org/TR/2001/REC-SVG-20010904/DTD/svg10.dtd">
<svg version="1.0" xmlns="http://www.w3.org/2000/svg"
 width="74.000000pt" height="50.000000pt" viewBox="0 0 74.000000 50.000000"
 preserveAspectRatio="xMidYMid meet">
<metadata>
Created by potrace 1.14, written by Peter Selinger 2001-2017
</metadata>
<g transform="translate(0.000000,50.000000) scale(0.100000,-0.100000)"
fill="#000000" stroke="none">
<path fill="#000000" stroke="none" d="M84 412 c1 -97 -9 -122 -50 -122 -19 0
-24 -6 -26 -27 -2 -46 1 -64 23 -148 32 -117 27 -115 238 -115 l176 1 43 40
c24 23 45 53 49 71 3 16 11 32 18 34 7 3 46 -3 87 -14 74 -19 75 -19 87 0 7
11 11 21 9 23 -2 2 -41 20 -87 40 -181 77 -237 112 -321 203 -44 47 -80 89
-80 93 0 5 -38 9 -84 9 l-83 0 1 -88z"/>
</g>
</svg>
