<?xml version="1.0" standalone="no"?>
<!DOCTYPE svg PUBLIC "-//W3C//DTD SVG 20010904//EN"
 "http://www.w3.org/TR/2001/REC-SVG-20010904/DTD/svg10.dtd">
<svg version="1.0" xmlns="http://www.w3.org/2000/svg"
 width="88.000000pt" height="57.000000pt" viewBox="0 0 88.000000 57.000000"
 preserveAspectRatio="xMidYMid meet">
<metadata>
Created by potrace 1.14, written by Peter Selinger 2001-2017
</metadata>
<g transform="translate(0.000000,57.000000) scale(0.100000,-0.100000)"
fill="#000000" stroke="none">
<path fill="#000000" stroke="none" d="M465 556 c-16 -7 -38 -22 -48 -34 -17
-19 -20 -19 -58 -4 -34 13 -45 13 -82 1 -23 -7 -49 -12 -57 -11 -56 8 -125
-32 -153 -86 -11 -24 -11 -30 0 -41 8 -7 12 -20 9 -28 -4 -9 5 -20 24 -31 25
-14 30 -23 30 -57 -1 -35 -2 -38 -14 -22 -24 32 -71 11 -64 -29 2 -11 -4 -20
-16 -22 -17 -4 -18 1 -12 59 5 47 4 61 -4 53 -18 -18 -24 -81 -10 -114 l12
-30 114 0 114 0 0 -30 c0 -16 3 -30 8 -30 4 0 28 22 54 48 85 85 82 79 67 114
-11 28 -10 32 12 49 49 37 97 53 131 43 l33 -10 5 -79 c6 -99 23 -109 66 -41
34 54 62 66 152 66 56 0 63 2 58 17 -4 9 -9 44 -12 77 l-6 61 31 -35 31 -35
-11 32 c-25 74 -106 108 -180 76 l-43 -19 -16 30 c-31 61 -106 89 -165 62z"/>
<path fill="#000000" stroke="none" d="M50 10 c20 -13 97 -13 105 0 4 6 -17
10 -57 10 -44 0 -59 -3 -48 -10z"/>
</g>
</svg>
