<?xml version="1.0" standalone="no"?>
<!DOCTYPE svg PUBLIC "-//W3C//DTD SVG 20010904//EN"
 "http://www.w3.org/TR/2001/REC-SVG-20010904/DTD/svg10.dtd">
<svg version="1.0" xmlns="http://www.w3.org/2000/svg"
 width="265.000000pt" height="173.000000pt" viewBox="0 0 265.000000 173.000000"
 preserveAspectRatio="xMidYMid meet">
<metadata>
Created by potrace 1.14, written by Peter Selinger 2001-2017
</metadata>
<g transform="translate(0.000000,173.000000) scale(0.100000,-0.100000)"
fill="#000000" stroke="none">
<path fill="#000000" stroke="none" d="M517 1708 c-8 -13 -81 -135 -162 -273
l-147 -250 -103 -301 -103 -301 63 -85 c42 -57 82 -128 120 -216 l57 -130 76
-8 c120 -13 160 -8 271 29 101 33 104 34 122 16 11 -11 29 -19 42 -19 34 0 55
-16 39 -32 -6 -6 -12 -15 -12 -19 0 -4 29 -32 65 -64 l65 -57 338 18 c185 9
341 20 345 24 5 4 -69 97 -164 206 -95 110 -178 206 -186 216 -12 14 -12 28 4
102 l18 86 125 148 c114 136 132 153 209 197 123 71 243 181 317 293 1 2 48
-25 105 -59 97 -57 110 -62 192 -72 76 -9 88 -13 92 -31 3 -12 48 -210 101
-441 52 -231 97 -428 100 -437 4 -15 17 -18 75 -18 l69 0 0 739 0 739 -352 6
c-194 3 -671 8 -1060 12 l-707 5 -14 -23z"/>
</g>
</svg>
