<?xml version="1.0" standalone="no"?>
<!DOCTYPE svg PUBLIC "-//W3C//DTD SVG 20010904//EN"
 "http://www.w3.org/TR/2001/REC-SVG-20010904/DTD/svg10.dtd">
<svg version="1.0" xmlns="http://www.w3.org/2000/svg"
 width="196.000000pt" height="132.000000pt" viewBox="0 0 196.000000 132.000000"
 preserveAspectRatio="xMidYMid meet">
<metadata>
Created by potrace 1.14, written by Peter Selinger 2001-2017
</metadata>
<g transform="translate(0.000000,132.000000) scale(0.100000,-0.100000)"
fill="#000000" stroke="none">
<path fill="#000000" stroke="none" d="M623 1276 c-20 -40 -27 -46 -63 -52
-22 -4 -40 -8 -40 -9 0 -2 20 -36 45 -76 25 -40 45 -78 45 -84 0 -6 -28 -34
-62 -62 l-63 -51 -155 -10 -155 -10 -48 34 c-27 20 -50 34 -52 32 -1 -2 -8
-13 -14 -26 -9 -17 -17 -21 -36 -16 -24 6 -25 4 -25 -44 0 -111 -5 -106 144
-135 l133 -25 144 29 c79 16 176 32 214 36 l71 6 41 -96 c35 -83 39 -98 26
-108 -8 -7 -56 -69 -106 -138 l-92 -125 -41 -157 -41 -156 56 -13 c31 -6 65
-14 77 -16 18 -5 25 7 59 106 l38 111 140 70 140 71 106 -45 c58 -25 162 -61
230 -82 68 -20 217 -77 332 -126 114 -49 212 -89 217 -89 17 0 66 84 63 110
-3 32 -22 48 -124 103 -62 34 -125 56 -246 88 l-162 42 -62 86 c-34 47 -88
118 -119 157 -65 80 -72 113 -42 195 19 56 13 88 -33 164 -48 80 -110 127
-194 148 -37 9 -79 21 -93 27 -26 9 -26 11 -11 39 15 29 14 30 -33 80 -46 48
-49 50 -117 56 l-70 7 -22 -46z"/>
</g>
</svg>
