<?xml version="1.0" standalone="no"?>
<!DOCTYPE svg PUBLIC "-//W3C//DTD SVG 20010904//EN"
 "http://www.w3.org/TR/2001/REC-SVG-20010904/DTD/svg10.dtd">
<svg version="1.0" xmlns="http://www.w3.org/2000/svg"
 width="54.000000pt" height="36.000000pt" viewBox="0 0 54.000000 36.000000"
 preserveAspectRatio="xMidYMid meet">
<metadata>
Created by potrace 1.14, written by Peter Selinger 2001-2017
</metadata>
<g transform="translate(0.000000,36.000000) scale(0.100000,-0.100000)"
fill="#000000" stroke="none">
<path fill="#000000" stroke="none" d="M155 323 c-10 -21 -21 -60 -24 -88 -6
-48 -7 -50 -40 -53 -23 -2 -43 3 -63 18 l-29 21 20 -38 c10 -21 40 -58 65 -83
34 -32 46 -52 46 -73 l0 -29 31 26 c36 30 86 34 189 12 60 -13 67 -13 85 4 11
10 34 25 52 34 33 16 53 61 53 117 0 22 -6 28 -33 33 -17 3 -48 1 -67 -4 -19
-6 -36 -10 -37 -10 -2 0 -3 15 -3 34 0 48 -64 106 -118 106 -20 0 -53 3 -72 6
-33 6 -37 3 -55 -33z"/>
</g>
</svg>
