<?xml version="1.0" standalone="no"?>
<!DOCTYPE svg PUBLIC "-//W3C//DTD SVG 20010904//EN"
 "http://www.w3.org/TR/2001/REC-SVG-20010904/DTD/svg10.dtd">
<svg version="1.0" xmlns="http://www.w3.org/2000/svg"
 width="33.000000pt" height="22.000000pt" viewBox="0 0 33.000000 22.000000"
 preserveAspectRatio="xMidYMid meet">
<metadata>
Created by potrace 1.14, written by Peter Selinger 2001-2017
</metadata>
<g transform="translate(0.000000,22.000000) scale(0.100000,-0.100000)"
fill="#000000" stroke="none">
<path fill="#000000" stroke="none" d="M147 202 c-10 -10 -17 -24 -17 -30 0
-7 -8 -12 -18 -12 -11 0 -27 -9 -37 -20 -10 -11 -24 -20 -30 -20 -33 0 -58
-83 -33 -108 19 -19 66 -14 85 8 10 11 28 20 41 20 15 0 29 10 40 30 22 39 29
38 24 -3 -8 -67 84 -94 118 -35 13 25 13 31 0 55 -10 18 -26 29 -43 31 -23 3
-26 7 -21 28 10 38 -19 74 -60 74 -19 0 -40 -8 -49 -18z"/>
<path fill="#ffffff" stroke="none" d="M77 36 c-6 -19 -25 -17 -32 3 -10 31 5
48 22 25 7 -10 12 -23 10 -28z"/>
</g>
</svg>
