<?xml version="1.0" standalone="no"?>
<!DOCTYPE svg PUBLIC "-//W3C//DTD SVG 20010904//EN"
 "http://www.w3.org/TR/2001/REC-SVG-20010904/DTD/svg10.dtd">
<svg version="1.0" xmlns="http://www.w3.org/2000/svg"
 width="636.000000pt" height="418.000000pt" viewBox="0 0 636.000000 418.000000"
 preserveAspectRatio="xMidYMid meet">
<metadata>
Created by potrace 1.14, written by Peter Selinger 2001-2017
</metadata>
<g transform="translate(0.000000,418.000000) scale(0.100000,-0.100000)"
fill="#000000" stroke="none">
<path fill="#000000" stroke="none" d="M21 4113 c10 -38 19 -71 19 -74 0 -3
41 -70 91 -149 111 -175 151 -262 289 -631 l108 -288 147 -237 c149 -242 389
-679 452 -827 25 -57 50 -97 85 -133 48 -50 49 -52 36 -79 -14 -26 -8 -45 123
-386 161 -417 178 -452 272 -579 66 -88 78 -114 183 -375 l112 -280 108 -3
c184 -4 4185 -72 4252 -72 l62 0 -1 1043 c-1 573 -5 1170 -8 1327 l-6 285 -8
-529 c-5 -292 -10 -533 -12 -536 -3 -4 -126 -60 -275 -126 l-270 -118 0 -49 0
-48 -180 -199 c-100 -109 -195 -206 -212 -214 -20 -10 -58 -16 -104 -16 -73 0
-74 0 -96 35 -13 20 -32 38 -43 41 -14 3 -61 72 -138 198 -117 192 -117 193
-148 325 -19 82 -51 179 -85 256 -35 83 -58 154 -69 212 -11 67 -42 155 -128
363 -105 258 -174 406 -184 396 -9 -9 29 -226 62 -356 19 -74 41 -193 49 -265
l15 -130 -51 -215 c-54 -226 -68 -258 -113 -244 -11 3 -36 7 -56 9 -77 6 -98
16 -145 68 -25 28 -54 67 -64 86 -10 20 -37 54 -59 76 -41 39 -50 62 -112 271
-5 17 -9 68 -9 115 0 51 -12 146 -30 243 -17 87 -30 169 -30 182 0 12 14 58
30 101 32 81 79 289 81 352 0 20 6 52 13 71 11 31 19 37 77 56 47 15 72 19 94
13 42 -12 122 -11 130 1 4 6 2 17 -4 24 -6 7 -33 61 -59 119 -46 100 -53 110
-108 149 -32 23 -86 65 -119 93 -63 54 -276 195 -295 195 -6 0 -299 -92 -652
-205 -409 -131 -697 -229 -794 -270 -85 -36 -157 -65 -162 -65 -4 0 -28 13
-53 28 -43 28 -46 33 -73 124 l-28 94 -381 53 -382 52 -117 62 c-104 56 -122
69 -170 130 -47 59 -66 97 -139 286 l-84 218 -149 7 c-82 3 -229 6 -327 6
l-178 0 20 -67z"/>
<path fill="#ffffff" stroke="none" d="M2615 2280 c105 -45 120 -57 131 -105
3 -16 56 -174 116 -350 132 -383 124 -355 103 -330 -16 19 -16 19 -9 -10 4
-16 13 -48 21 -69 7 -22 12 -40 10 -42 -1 -1 -131 212 -289 473 -279 463 -287
477 -265 488 24 13 18 15 182 -55z"/>
</g>
</svg>
