<?xml version="1.0" standalone="no"?>
<!DOCTYPE svg PUBLIC "-//W3C//DTD SVG 20010904//EN"
 "http://www.w3.org/TR/2001/REC-SVG-20010904/DTD/svg10.dtd">
<svg version="1.0" xmlns="http://www.w3.org/2000/svg"
 width="132.000000pt" height="91.000000pt" viewBox="0 0 132.000000 91.000000"
 preserveAspectRatio="xMidYMid meet">
<metadata>
Created by potrace 1.14, written by Peter Selinger 2001-2017
</metadata>
<g transform="translate(0.000000,91.000000) scale(0.100000,-0.100000)"
fill="#000000" stroke="none">
<path fill="#000000" stroke="none" d="M0 902 c0 -10 33 -42 44 -42 14 0 95
-40 101 -50 3 -5 26 -10 50 -10 41 0 47 4 80 46 19 26 35 51 35 55 0 13 -54
11 -68 -3 -9 -9 -12 -9 -12 0 0 9 -32 12 -115 12 -63 0 -115 -4 -115 -8z"/>
<path fill="#000000" stroke="none" d="M327 893 c-22 -25 -22 -66 1 -86 10
-10 22 -17 25 -17 4 0 26 -19 48 -41 l42 -42 161 8 c136 6 165 10 188 27 51
36 46 97 -10 120 -29 11 -228 36 -357 45 -70 4 -82 2 -98 -14z"/>
<path fill="#000000" stroke="none" d="M1038 683 c-8 -10 -18 -27 -22 -38 -7
-19 -8 -19 -18 -2 -24 43 -131 62 -161 29 -18 -19 -24 -78 -8 -68 5 4 21 -8
36 -26 22 -26 25 -37 18 -62 -15 -55 -8 -247 11 -304 16 -47 20 -52 47 -52 31
0 36 9 17 28 -8 8 -5 14 16 22 24 9 27 14 21 38 -4 15 -7 32 -6 37 1 6 4 55 7
110 6 127 10 146 29 139 8 -4 15 -2 15 4 0 15 50 24 65 12 30 -25 57 85 31
125 -20 30 -75 35 -98 8z"/>
<path fill="#000000" stroke="none" d="M401 609 c-31 -23 -39 -34 -30 -40 10
-6 9 -19 -5 -66 -24 -83 -24 -85 10 -107 31 -20 32 -23 27 -76 -5 -48 -11 -61
-49 -100 -48 -50 -52 -64 -28 -91 14 -15 15 -27 7 -74 l-10 -56 31 3 c26 3 35
11 57 56 14 29 39 67 57 85 17 17 38 48 46 67 21 51 29 164 17 243 -8 58 -7
72 7 97 15 27 16 32 2 57 -23 42 -81 43 -139 2z"/>
<path fill="#000000" stroke="none" d="M1177 552 c-21 -23 -22 -60 -3 -81 18
-22 57 -232 45 -247 -13 -16 0 -24 37 -24 56 0 64 23 64 192 0 119 -3 148 -14
148 -7 0 -19 7 -26 15 -18 21 -83 19 -103 -3z"/>
</g>
</svg>
