<?xml version="1.0" standalone="no"?>
<!DOCTYPE svg PUBLIC "-//W3C//DTD SVG 20010904//EN"
 "http://www.w3.org/TR/2001/REC-SVG-20010904/DTD/svg10.dtd">
<svg version="1.0" xmlns="http://www.w3.org/2000/svg"
 width="37.000000pt" height="25.000000pt" viewBox="0 0 37.000000 25.000000"
 preserveAspectRatio="xMidYMid meet">
<metadata>
Created by potrace 1.14, written by Peter Selinger 2001-2017
</metadata>
<g transform="translate(0.000000,25.000000) scale(0.100000,-0.100000)"
fill="#000000" stroke="none">
<path fill="#000000" stroke="none" d="M214 242 c-17 -11 -34 -48 -34 -76 0
-37 -30 -41 -79 -9 -22 14 -41 31 -41 36 0 18 -31 -17 -46 -51 -17 -42 -14
-48 33 -56 96 -17 93 -15 93 -52 0 -19 2 -34 5 -34 3 0 31 13 63 29 39 19 67
27 88 24 29 -5 32 -2 52 47 12 29 22 60 22 70 0 36 -124 94 -156 72z"/>
</g>
</svg>
