<?xml version="1.0" standalone="no"?>
<!DOCTYPE svg PUBLIC "-//W3C//DTD SVG 20010904//EN"
 "http://www.w3.org/TR/2001/REC-SVG-20010904/DTD/svg10.dtd">
<svg version="1.0" xmlns="http://www.w3.org/2000/svg"
 width="150.000000pt" height="97.000000pt" viewBox="0 0 150.000000 97.000000"
 preserveAspectRatio="xMidYMid meet">
<metadata>
Created by potrace 1.14, written by Peter Selinger 2001-2017
</metadata>
<g transform="translate(0.000000,97.000000) scale(0.100000,-0.100000)"
fill="#000000" stroke="none">
<path fill="#000000" stroke="none" d="M1 555 c-2 -424 0 -444 35 -397 7 9 14
27 14 39 0 48 22 123 35 123 19 0 85 69 85 89 0 9 -7 27 -15 41 -72 128 -81
173 -37 185 15 5 36 8 47 9 15 1 21 9 23 31 5 42 29 65 69 65 31 0 44 12 24
24 -5 3 -7 15 -4 27 4 12 -3 32 -16 49 -11 16 -21 35 -21 42 0 31 -31 57 -75
64 -25 3 -45 10 -45 15 0 5 -27 9 -59 9 l-59 0 -1 -415z"/>
<path fill="#000000" stroke="none" d="M1475 960 c-6 -10 -45 -140 -45 -150 0
-3 16 -4 35 -2 l35 4 0 79 c0 72 -9 96 -25 69z"/>
<path fill="#000000" stroke="none" d="M607 772 c-10 -10 -17 -29 -17 -41 0
-30 155 -221 179 -221 10 0 24 -7 31 -15 7 -8 20 -15 29 -15 9 0 22 -5 29 -12
22 -22 24 0 11 89 -12 82 -36 133 -61 133 -4 0 -16 7 -25 16 -75 68 -100 84
-129 84 -17 0 -38 -8 -47 -18z"/>
<path fill="#000000" stroke="none" d="M1422 679 c-7 -10 -12 -26 -12 -35 0
-9 -11 -25 -25 -36 -31 -24 -33 -64 -4 -112 37 -63 52 -40 43 64 -5 51 -3 75
9 99 17 34 8 51 -11 20z"/>
<path fill="#000000" stroke="none" d="M362 661 c-6 -17 -21 -35 -34 -41 l-23
-9 22 0 c15 -1 33 -17 54 -48 18 -27 41 -58 51 -70 12 -13 21 -38 21 -62 2
-47 10 -51 33 -16 21 33 12 68 -26 95 -38 27 -70 87 -63 120 2 14 -2 34 -10
44 -13 18 -15 17 -25 -13z"/>
<path fill="#000000" stroke="none" d="M420 276 c0 -6 -20 -29 -45 -49 -25
-21 -45 -41 -45 -45 0 -4 15 -13 33 -20 56 -23 77 -35 77 -43 0 -5 21 -22 48
-40 26 -17 55 -42 65 -55 24 -31 52 -30 73 1 17 25 15 25 81 -9 17 -9 39 -16
50 -16 23 1 154 80 131 80 -9 0 -29 6 -45 14 -15 8 -39 19 -53 24 -14 5 -51
22 -83 36 -32 14 -64 26 -72 26 -7 0 -17 5 -20 10 -3 6 -15 10 -26 10 -10 0
-36 17 -57 38 -38 40 -112 65 -112 38z"/>
</g>
</svg>
