<?xml version="1.0" standalone="no"?>
<!DOCTYPE svg PUBLIC "-//W3C//DTD SVG 20010904//EN"
 "http://www.w3.org/TR/2001/REC-SVG-20010904/DTD/svg10.dtd">
<svg version="1.0" xmlns="http://www.w3.org/2000/svg"
 width="273.000000pt" height="184.000000pt" viewBox="0 0 273.000000 184.000000"
 preserveAspectRatio="xMidYMid meet">
<metadata>
Created by potrace 1.14, written by Peter Selinger 2001-2017
</metadata>
<g transform="translate(0.000000,184.000000) scale(0.100000,-0.100000)"
fill="#000000" stroke="none">
<path fill="#000000" stroke="none" d="M270 1816 c-118 -42 -125 -47 -162
-105 -34 -53 -37 -63 -45 -176 -8 -106 -7 -128 10 -190 11 -38 30 -92 44 -119
l24 -48 -20 -48 c-15 -35 -21 -70 -21 -122 0 -56 -11 -114 -49 -252 -41 -146
-48 -182 -39 -202 6 -13 16 -24 22 -24 29 2 91 32 149 74 36 25 72 46 80 46
32 0 47 -13 47 -39 -1 -19 -17 -40 -64 -81 -67 -58 -76 -78 -76 -165 l0 -40
127 -50 c105 -41 137 -49 178 -47 72 5 95 23 95 74 0 23 -3 38 -7 35 -3 -4
-11 -3 -17 2 -6 5 -45 19 -86 31 -117 34 -113 30 -85 98 13 31 26 74 30 95 7
34 4 42 -24 71 l-32 33 17 42 c10 26 22 41 34 41 15 0 19 12 25 79 6 68 4 84
-14 119 -16 31 -18 42 -8 50 19 16 64 25 91 18 22 -5 23 -9 16 -41 -7 -30 -1
-54 38 -150 53 -133 57 -135 133 -75 28 22 54 40 59 40 4 0 38 -9 75 -21 37
-11 85 -21 108 -22 l41 -2 17 85 c25 117 16 133 -111 205 -104 59 -136 81
-200 138 l-42 39 29 67 30 67 -18 178 c-10 99 -20 180 -21 181 -2 2 -28 15
-58 30 -30 15 -69 39 -87 52 -29 23 -118 53 -153 53 -8 0 -44 -11 -80 -24z"/>
<path fill="#000000" stroke="none" d="M1498 653 l-88 -26 -2 -123 c-1 -68 -2
-132 -2 -142 -1 -16 91 -99 191 -174 7 -5 62 -5 132 2 114 10 130 10 261 -15
77 -14 225 -50 328 -80 214 -62 362 -99 369 -91 9 9 43 360 35 366 -4 4 -209
53 -457 109 -309 71 -464 110 -494 127 -24 13 -62 27 -84 31 -22 3 -48 14 -59
25 -22 22 -23 22 -130 -9z"/>
</g>
</svg>
