<?xml version="1.0" standalone="no"?>
<!DOCTYPE svg PUBLIC "-//W3C//DTD SVG 20010904//EN"
 "http://www.w3.org/TR/2001/REC-SVG-20010904/DTD/svg10.dtd">
<svg version="1.0" xmlns="http://www.w3.org/2000/svg"
 width="30.000000pt" height="20.000000pt" viewBox="0 0 30.000000 20.000000"
 preserveAspectRatio="xMidYMid meet">
<metadata>
Created by potrace 1.14, written by Peter Selinger 2001-2017
</metadata>
<g transform="translate(0.000000,20.000000) scale(0.100000,-0.100000)"
fill="#000000" stroke="none">
<path fill="#000000" stroke="none" d="M97 182 c-10 -10 -17 -26 -17 -35 0
-11 -8 -17 -23 -17 -13 0 -31 -8 -40 -18 -38 -42 -6 -107 50 -100 23 2 30 10
43 48 21 63 27 70 59 70 25 0 30 -5 35 -36 4 -20 4 -49 1 -65 -7 -30 -6 -30
31 -27 30 2 42 9 54 30 13 25 13 31 0 55 -11 20 -25 29 -48 31 -22 2 -32 8
-32 20 0 10 -7 28 -16 40 -19 28 -74 30 -97 4z"/>
</g>
</svg>
