<?xml version="1.0" standalone="no"?>
<!DOCTYPE svg PUBLIC "-//W3C//DTD SVG 20010904//EN"
 "http://www.w3.org/TR/2001/REC-SVG-20010904/DTD/svg10.dtd">
<svg version="1.0" xmlns="http://www.w3.org/2000/svg"
 width="35.000000pt" height="33.000000pt" viewBox="0 0 35.000000 33.000000"
 preserveAspectRatio="xMidYMid meet">
<metadata>
Created by potrace 1.14, written by Peter Selinger 2001-2017
</metadata>
<g transform="translate(0.000000,33.000000) scale(0.100000,-0.100000)"
fill="#000000" stroke="none">
<path fill="#000000" stroke="none" d="M102 317 c-26 -12 -37 -45 -29 -86 6
-31 -7 -51 -34 -51 -23 0 -28 -9 -35 -63 -5 -37 -2 -51 18 -80 19 -29 27 -33
42 -25 10 5 32 8 49 5 17 -2 50 2 73 10 37 13 46 12 91 -6 52 -20 81 -15 70
13 -5 12 -14 15 -31 10 -22 -5 -26 -1 -35 33 -6 21 -11 43 -11 49 0 6 -21 30
-46 53 -38 36 -46 50 -51 91 -5 39 -10 49 -27 52 -12 3 -32 0 -44 -5z"/>
</g>
</svg>
