<?xml version="1.0" standalone="no"?>
<!DOCTYPE svg PUBLIC "-//W3C//DTD SVG 20010904//EN"
 "http://www.w3.org/TR/2001/REC-SVG-20010904/DTD/svg10.dtd">
<svg version="1.0" xmlns="http://www.w3.org/2000/svg"
 width="146.000000pt" height="131.000000pt" viewBox="0 0 146.000000 131.000000"
 preserveAspectRatio="xMidYMid meet">
<metadata>
Created by potrace 1.14, written by Peter Selinger 2001-2017
</metadata>
<g transform="translate(0.000000,131.000000) scale(0.100000,-0.100000)"
fill="#000000" stroke="none">
<path fill="#000000" stroke="none" d="M1112 1262 l-29 -47 30 -61 30 -61 -32
-57 c-25 -43 -38 -56 -56 -56 -24 0 -55 -23 -55 -42 0 -5 20 -28 45 -51 44
-41 45 -43 36 -82 -18 -82 -22 -115 -12 -115 5 0 12 8 14 18 4 13 5 12 6 -5 0
-12 10 -31 22 -42 19 -18 21 -32 25 -183 2 -89 8 -194 13 -233 6 -38 11 -75
11 -80 0 -6 -23 -42 -51 -80 l-51 -70 138 -8 c75 -5 153 -6 172 -2 l35 6 -5
377 -5 376 33 73 33 72 -30 88 c-21 64 -40 98 -68 128 -28 29 -111 135 -135
171 -1 1 -20 4 -43 8 -41 6 -42 5 -71 -42z"/>
<path fill="#ffffff" stroke="none" d="M1303 157 c-9 -17 -13 -42 -9 -58 3
-16 -1 -43 -9 -61 -13 -30 -14 -19 -14 132 l1 165 23 -74 c22 -69 23 -77 8
-104z"/>
<path fill="#000000" stroke="none" d="M175 1230 c-3 -5 -10 -42 -15 -82 -5
-40 -14 -96 -19 -125 -12 -68 -14 -155 -5 -274 3 -53 3 -145 -1 -204 -6 -98
-9 -110 -33 -132 -14 -12 -43 -28 -64 -35 l-40 -12 34 -17 c41 -22 67 -23 132
-4 28 8 76 17 106 20 l55 6 1 286 c1 280 2 287 23 304 35 29 27 67 -26 121
-40 41 -47 53 -45 82 3 26 -2 38 -24 55 -28 22 -69 28 -79 11z"/>
</g>
</svg>
