<?xml version="1.0" standalone="no"?>
<!DOCTYPE svg PUBLIC "-//W3C//DTD SVG 20010904//EN"
 "http://www.w3.org/TR/2001/REC-SVG-20010904/DTD/svg10.dtd">
<svg version="1.0" xmlns="http://www.w3.org/2000/svg"
 width="132.000000pt" height="118.000000pt" viewBox="0 0 132.000000 118.000000"
 preserveAspectRatio="xMidYMid meet">
<metadata>
Created by potrace 1.14, written by Peter Selinger 2001-2017
</metadata>
<g transform="translate(0.000000,118.000000) scale(0.100000,-0.100000)"
fill="#000000" stroke="none">
<path fill="#000000" stroke="none" d="M840 1165 c0 -9 -9 -15 -25 -15 -14 0
-53 -8 -88 -17 -53 -14 -71 -26 -122 -78 -33 -33 -81 -74 -107 -90 -27 -17
-48 -34 -48 -40 0 -5 -11 -80 -25 -165 l-24 -155 20 -44 c10 -24 22 -58 25
-74 8 -49 21 -65 47 -60 22 4 24 -1 45 -91 12 -52 22 -101 22 -109 0 -9 -24
-17 -77 -25 -88 -14 -285 -76 -323 -102 -14 -9 -49 -20 -78 -24 -29 -4 -60
-10 -70 -14 -22 -8 246 -38 464 -51 l171 -10 271 108 c240 96 278 115 336 162
l66 54 0 207 0 206 -64 207 c-35 113 -65 207 -67 209 -5 5 -261 26 -310 26
-28 0 -39 -4 -39 -15z"/>
</g>
</svg>
