<?xml version="1.0" standalone="no"?>
<!DOCTYPE svg PUBLIC "-//W3C//DTD SVG 20010904//EN"
 "http://www.w3.org/TR/2001/REC-SVG-20010904/DTD/svg10.dtd">
<svg version="1.0" xmlns="http://www.w3.org/2000/svg"
 width="289.000000pt" height="272.000000pt" viewBox="0 0 289.000000 272.000000"
 preserveAspectRatio="xMidYMid meet">
<metadata>
Created by potrace 1.14, written by Peter Selinger 2001-2017
</metadata>
<g transform="translate(0.000000,272.000000) scale(0.100000,-0.100000)"
fill="#000000" stroke="none">
<path fill="#000000" stroke="none" d="M1637 2545 l-209 -177 6 -87 c15 -201
9 -186 79 -225 51 -29 67 -44 90 -88 46 -89 70 -208 62 -313 -11 -156 -26
-329 -30 -351 -7 -35 -148 -142 -282 -215 -125 -68 -127 -69 -202 -69 -72 0
-242 13 -341 25 -75 10 257 -148 399 -190 124 -36 352 -114 336 -114 -5 -1
-50 6 -100 14 -49 8 -119 15 -155 15 -36 0 -133 5 -216 11 -151 12 -152 12
-168 40 -26 44 -52 53 -171 60 -60 3 -124 12 -140 19 -44 18 -125 6 -125 -19
0 -14 18 -24 80 -42 44 -12 87 -31 96 -40 15 -17 13 -17 -48 -3 -34 8 -97 23
-138 34 -44 11 -78 16 -84 10 -11 -11 91 -131 161 -189 41 -33 53 -50 53 -71
0 -15 -6 -32 -13 -37 -6 -5 -86 -31 -177 -58 -91 -26 -179 -53 -196 -60 -41
-17 -204 -145 -204 -160 0 -21 44 -92 81 -132 l36 -39 684 -47 c376 -26 694
-47 706 -47 16 0 27 11 41 43 11 23 46 67 78 98 57 54 62 56 164 78 l105 23
83 -47 c45 -26 87 -45 92 -43 5 2 67 65 139 140 l129 137 12 73 c18 103 74
213 137 263 84 68 183 158 183 166 0 4 23 73 51 153 l51 146 59 41 c66 47 66
43 4 129 -61 86 -133 225 -155 300 -14 48 -54 132 -110 230 -83 144 -92 167
-141 335 l-51 180 -92 127 -91 126 -70 6 c-38 3 -117 8 -175 12 l-105 6 -208
-177z"/>
<path fill="#ffffff" stroke="none" d="M912 596 c57 -14 185 -35 286 -47 l182
-23 0 -67 0 -66 -124 -52 c-286 -117 -440 -169 -545 -183 -118 -17 -153 -9
-207 43 -28 27 -51 36 -156 60 -68 15 -137 28 -154 29 -37 0 -43 5 -36 32 10
39 100 83 287 138 126 37 191 62 216 82 45 35 120 78 136 78 6 0 58 -11 115
-24z"/>
</g>
</svg>
