<?xml version="1.0" standalone="no"?>
<!DOCTYPE svg PUBLIC "-//W3C//DTD SVG 20010904//EN"
 "http://www.w3.org/TR/2001/REC-SVG-20010904/DTD/svg10.dtd">
<svg version="1.0" xmlns="http://www.w3.org/2000/svg"
 width="39.000000pt" height="34.000000pt" viewBox="0 0 39.000000 34.000000"
 preserveAspectRatio="xMidYMid meet">
<metadata>
Created by potrace 1.14, written by Peter Selinger 2001-2017
</metadata>
<g transform="translate(0.000000,34.000000) scale(0.100000,-0.100000)"
fill="#000000" stroke="none">
<path fill="#000000" stroke="none" d="M185 320 c-10 -11 -34 -25 -53 -32 -25
-10 -48 -32 -84 -82 -26 -38 -45 -72 -42 -75 3 -3 15 7 27 24 37 51 61 73 85
80 22 6 23 5 16 -30 -7 -41 -59 -136 -94 -174 -17 -18 -18 -22 -5 -18 9 4 27
7 41 7 18 0 29 10 45 44 11 24 29 52 40 62 18 16 18 15 -2 -37 -12 -30 -28
-59 -35 -65 -21 -17 -5 -24 23 -11 29 13 93 132 94 174 0 27 1 28 11 6 6 -13
15 -23 20 -23 4 0 29 -33 54 -72 55 -86 52 -83 60 -75 3 3 -17 38 -45 78 -42
60 -51 80 -51 116 0 32 -5 45 -20 53 -11 6 -27 24 -35 40 -18 35 -26 37 -50
10z"/>
</g>
</svg>
