<?xml version="1.0" standalone="no"?>
<!DOCTYPE svg PUBLIC "-//W3C//DTD SVG 20010904//EN"
 "http://www.w3.org/TR/2001/REC-SVG-20010904/DTD/svg10.dtd">
<svg version="1.0" xmlns="http://www.w3.org/2000/svg"
 width="33.000000pt" height="30.000000pt" viewBox="0 0 33.000000 30.000000"
 preserveAspectRatio="xMidYMid meet">
<metadata>
Created by potrace 1.14, written by Peter Selinger 2001-2017
</metadata>
<g transform="translate(0.000000,30.000000) scale(0.100000,-0.100000)"
fill="#000000" stroke="none">
<path fill="#000000" stroke="none" d="M122 240 c-48 -47 -69 -60 -93 -60
l-31 0 7 -62 c5 -48 13 -70 33 -90 23 -25 26 -26 37 -11 15 21 87 43 140 43
33 0 45 6 66 33 14 17 31 49 38 70 12 36 12 38 -29 87 -59 70 -85 69 -168 -10z"/>
</g>
</svg>
