<?xml version="1.0" standalone="no"?>
<!DOCTYPE svg PUBLIC "-//W3C//DTD SVG 20010904//EN"
 "http://www.w3.org/TR/2001/REC-SVG-20010904/DTD/svg10.dtd">
<svg version="1.0" xmlns="http://www.w3.org/2000/svg"
 width="282.000000pt" height="250.000000pt" viewBox="0 0 282.000000 250.000000"
 preserveAspectRatio="xMidYMid meet">
<metadata>
Created by potrace 1.14, written by Peter Selinger 2001-2017
</metadata>
<g transform="translate(0.000000,250.000000) scale(0.100000,-0.100000)"
fill="#000000" stroke="none">
<path fill="#000000" stroke="none" d="M1426 2386 l-218 -111 -100 -210 -99
-209 -2 -307 -2 -307 -93 -59 c-51 -32 -90 -63 -88 -70 3 -7 -40 -44 -95 -83
-98 -71 -101 -73 -210 -237 -61 -91 -201 -287 -310 -435 -110 -148 -200 -273
-202 -277 -1 -5 18 -24 42 -44 l43 -34 252 157 252 158 483 66 483 66 171 132
172 132 210 48 c116 26 211 48 213 48 1 0 2 12 2 26 l0 27 118 -5 c95 -5 140
-1 240 17 68 12 125 25 127 27 3 2 -17 25 -43 51 -48 47 -48 47 -157 63 l-110
17 -164 -82 c-90 -45 -164 -81 -166 -79 -1 2 -16 49 -33 106 -22 71 -44 121
-73 162 l-41 59 66 150 67 151 -35 242 -34 243 -83 140 -83 140 -141 116 -141
116 -218 -111z"/>
</g>
</svg>
