<?xml version="1.0" standalone="no"?>
<!DOCTYPE svg PUBLIC "-//W3C//DTD SVG 20010904//EN"
 "http://www.w3.org/TR/2001/REC-SVG-20010904/DTD/svg10.dtd">
<svg version="1.0" xmlns="http://www.w3.org/2000/svg"
 width="243.000000pt" height="223.000000pt" viewBox="0 0 243.000000 223.000000"
 preserveAspectRatio="xMidYMid meet">
<metadata>
Created by potrace 1.14, written by Peter Selinger 2001-2017
</metadata>
<g transform="translate(0.000000,223.000000) scale(0.100000,-0.100000)"
fill="#000000" stroke="none">
<path fill="#000000" stroke="none" d="M2090 2223 c-32 -6 -60 -31 -60 -53 0
-10 -7 -31 -15 -46 -8 -16 -15 -45 -15 -64 l0 -35 -20 33 c-23 38 -35 40 -61
10 -27 -33 -23 -62 12 -103 17 -19 26 -35 20 -35 -6 0 -11 -5 -11 -11 0 -7 11
-8 31 -4 44 10 132 -51 163 -114 47 -93 60 -152 48 -220 -11 -59 -15 -66 -79
-125 -59 -55 -66 -65 -54 -79 18 -22 69 -47 96 -47 16 0 25 -8 29 -24 3 -14
14 -27 25 -31 27 -8 46 -62 81 -227 l31 -147 -19 -38 c-11 -21 -25 -65 -32
-98 -9 -44 -21 -70 -45 -95 -55 -59 -78 -212 -50 -335 l16 -75 34 0 c52 0 72
36 58 102 -8 39 -7 59 5 92 8 22 18 63 23 90 5 27 21 67 36 90 25 36 29 54 36
151 19 288 19 272 -2 321 -27 61 -27 94 -1 94 30 0 53 43 46 84 -9 48 -8 121
9 421 5 87 3 106 -16 150 -39 93 -44 100 -76 109 -25 8 -33 17 -39 45 -4 20
-6 43 -5 51 3 26 -57 148 -78 160 -20 10 -74 11 -121 3z"/>
<path fill="#000000" stroke="none" d="M333 2131 c-15 -22 -35 -40 -44 -41
-44 -1 -45 -45 -3 -90 13 -14 26 -39 29 -55 5 -26 0 -34 -41 -65 -54 -41 -93
-111 -101 -181 -5 -45 -9 -51 -39 -64 -30 -12 -34 -18 -34 -53 0 -25 9 -52 25
-76 23 -34 25 -45 25 -156 0 -68 -4 -121 -10 -125 -6 -4 -10 -83 -10 -203 0
-151 -3 -202 -14 -217 -7 -11 -15 -51 -18 -88 -4 -67 -5 -69 -51 -108 -57 -49
-63 -86 -20 -131 24 -25 34 -28 89 -28 87 0 99 16 107 147 5 99 21 152 58 202
12 16 21 49 24 90 3 35 10 72 15 82 23 41 11 122 -34 236 l-45 113 9 92 c5 51
12 127 15 168 17 229 49 342 130 461 67 100 69 123 8 127 -40 3 -44 0 -70 -37z"/>
<path fill="#000000" stroke="none" d="M595 2067 l-70 -34 -74 -170 -73 -170
52 -179 c46 -157 53 -196 62 -319 5 -77 7 -231 4 -342 -6 -190 -9 -216 -51
-420 -26 -120 -50 -226 -56 -236 -5 -10 -7 -45 -3 -82 8 -76 26 -98 76 -93 28
3 36 10 56 48 12 24 22 61 22 82 0 35 -2 38 -30 38 l-29 0 19 46 c11 25 20 61
20 79 0 23 8 42 24 58 13 13 31 50 41 83 9 32 29 86 45 119 15 33 32 71 37 85
8 19 11 2 17 -82 4 -65 3 -116 -4 -132 -13 -35 -13 -202 0 -227 10 -17 7 -19
-21 -19 l-32 0 6 -81 c7 -94 23 -119 71 -119 48 0 119 40 130 72 8 23 6 34
-12 58 -19 25 -22 42 -22 119 0 50 5 93 10 96 6 4 19 24 30 46 15 29 26 39 45
39 43 0 57 36 48 126 -10 103 -2 206 17 212 37 13 60 51 60 101 0 52 16 100
37 114 16 10 56 87 46 87 -5 0 -8 30 -9 68 0 37 -4 96 -8 132 -6 51 -4 81 11
140 22 88 21 103 -12 118 -32 15 -32 32 0 62 30 28 31 54 5 114 l-19 46 27 31
c14 18 50 47 79 66 57 36 61 48 38 93 -23 45 -66 70 -122 70 -44 0 -49 3 -63
33 -15 32 -16 32 -83 31 -56 0 -71 -4 -92 -24 -23 -22 -25 -30 -25 -114 0 -77
3 -93 21 -112 28 -30 15 -49 -14 -21 -13 12 -31 27 -40 32 -12 7 -20 31 -26
82 -10 76 -54 176 -81 181 -8 1 -47 -13 -85 -31z"/>
</g>
</svg>
