<?xml version="1.0" standalone="no"?>
<!DOCTYPE svg PUBLIC "-//W3C//DTD SVG 20010904//EN"
 "http://www.w3.org/TR/2001/REC-SVG-20010904/DTD/svg10.dtd">
<svg version="1.0" xmlns="http://www.w3.org/2000/svg"
 width="267.000000pt" height="240.000000pt" viewBox="0 0 267.000000 240.000000"
 preserveAspectRatio="xMidYMid meet">
<metadata>
Created by potrace 1.14, written by Peter Selinger 2001-2017
</metadata>
<g transform="translate(0.000000,240.000000) scale(0.100000,-0.100000)"
fill="#000000" stroke="none">
<path fill="#000000" stroke="none" d="M571 2369 c-65 -26 -78 -28 -108 -18
-19 6 -35 9 -37 7 -1 -1 -53 -90 -116 -196 -115 -198 -129 -232 -130 -332 0
-30 -7 -77 -15 -104 -8 -27 -15 -55 -15 -61 0 -7 35 -59 78 -116 71 -95 81
-113 105 -202 23 -81 36 -108 77 -161 28 -35 50 -68 50 -73 0 -6 -33 -50 -72
-99 -40 -50 -138 -177 -217 -283 l-144 -192 10 -185 c11 -185 11 -186 -14
-260 -14 -41 -24 -77 -22 -78 2 -2 604 -7 1336 -11 l1333 -8 -104 214 c-74
153 -121 268 -166 404 l-63 190 -100 125 c-55 69 -174 200 -266 293 l-166 167
-152 50 -151 50 -154 0 c-118 0 -170 5 -226 19 -41 11 -75 21 -77 23 -2 2 16
59 40 127 25 68 45 129 45 136 0 7 -27 71 -61 141 -33 71 -63 149 -66 174 -5
45 -6 45 -169 168 -90 67 -169 122 -176 121 -7 0 -46 -13 -87 -30z"/>
</g>
</svg>
