<?xml version="1.0" standalone="no"?>
<!DOCTYPE svg PUBLIC "-//W3C//DTD SVG 20010904//EN"
 "http://www.w3.org/TR/2001/REC-SVG-20010904/DTD/svg10.dtd">
<svg version="1.0" xmlns="http://www.w3.org/2000/svg"
 width="47.000000pt" height="44.000000pt" viewBox="0 0 47.000000 44.000000"
 preserveAspectRatio="xMidYMid meet">
<metadata>
Created by potrace 1.14, written by Peter Selinger 2001-2017
</metadata>
<g transform="translate(0.000000,44.000000) scale(0.100000,-0.100000)"
fill="#000000" stroke="none">
<path fill="#000000" stroke="none" d="M158 433 c-15 -2 -39 -18 -53 -34 -22
-27 -24 -37 -19 -87 7 -67 21 -118 41 -150 18 -29 8 -42 -48 -67 -28 -13 -47
-31 -60 -57 l-19 -38 235 0 235 0 0 35 c0 32 -5 37 -71 75 -43 26 -74 51 -80
66 -5 14 -9 59 -9 101 0 66 -4 82 -27 119 -29 46 -41 50 -125 37z"/>
</g>
</svg>
