<?xml version="1.0" standalone="no"?>
<!DOCTYPE svg PUBLIC "-//W3C//DTD SVG 20010904//EN"
 "http://www.w3.org/TR/2001/REC-SVG-20010904/DTD/svg10.dtd">
<svg version="1.0" xmlns="http://www.w3.org/2000/svg"
 width="52.000000pt" height="47.000000pt" viewBox="0 0 52.000000 47.000000"
 preserveAspectRatio="xMidYMid meet">
<metadata>
Created by potrace 1.14, written by Peter Selinger 2001-2017
</metadata>
<g transform="translate(0.000000,47.000000) scale(0.100000,-0.100000)"
fill="#000000" stroke="none">
<path fill="#000000" stroke="none" d="M212 460 c-18 -4 -35 -10 -38 -13 -3
-3 -1 -33 4 -66 l9 -61 -70 -62 c-38 -35 -81 -72 -94 -83 -25 -21 -25 -22 -13
-78 l13 -57 52 0 52 0 7 38 c3 20 6 53 6 72 0 34 17 62 52 89 26 20 118 -12
118 -42 0 -11 5 -61 11 -110 l12 -89 78 4 c43 2 83 8 90 15 6 6 13 31 16 55 4
41 1 47 -80 153 -46 61 -87 124 -91 140 -4 17 -18 47 -32 68 -26 39 -38 42
-102 27z"/>
</g>
</svg>
