<?xml version="1.0" standalone="no"?>
<!DOCTYPE svg PUBLIC "-//W3C//DTD SVG 20010904//EN"
 "http://www.w3.org/TR/2001/REC-SVG-20010904/DTD/svg10.dtd">
<svg version="1.0" xmlns="http://www.w3.org/2000/svg"
 width="39.000000pt" height="36.000000pt" viewBox="0 0 39.000000 36.000000"
 preserveAspectRatio="xMidYMid meet">
<metadata>
Created by potrace 1.14, written by Peter Selinger 2001-2017
</metadata>
<g transform="translate(0.000000,36.000000) scale(0.100000,-0.100000)"
fill="#000000" stroke="none">
<path fill="#000000" stroke="none" d="M170 334 c-6 -14 -10 -32 -10 -40 0 -9
-10 -14 -29 -14 -22 0 -41 -13 -80 -56 -28 -30 -51 -62 -51 -70 0 -16 56 -48
70 -39 5 3 15 -3 22 -13 21 -31 114 -73 143 -66 31 8 34 12 44 66 5 26 10 37
14 28 4 -8 16 -41 27 -72 18 -48 26 -58 44 -58 19 0 22 4 19 25 -3 13 -11 29
-19 36 -7 6 -23 43 -34 82 -33 109 -47 137 -70 137 -15 0 -20 7 -20 24 0 27
-24 56 -46 56 -8 0 -19 -12 -24 -26z"/>
</g>
</svg>
