<?xml version="1.0" standalone="no"?>
<!DOCTYPE svg PUBLIC "-//W3C//DTD SVG 20010904//EN"
 "http://www.w3.org/TR/2001/REC-SVG-20010904/DTD/svg10.dtd">
<svg version="1.0" xmlns="http://www.w3.org/2000/svg"
 width="343.000000pt" height="313.000000pt" viewBox="0 0 343.000000 313.000000"
 preserveAspectRatio="xMidYMid meet">
<metadata>
Created by potrace 1.14, written by Peter Selinger 2001-2017
</metadata>
<g transform="translate(0.000000,313.000000) scale(0.100000,-0.100000)"
fill="#000000" stroke="none">
<path fill="#000000" stroke="none" d="M49 3072 l-35 -57 14 -155 c13 -151 13
-157 -7 -222 l-22 -67 86 -150 c47 -82 94 -152 103 -155 9 -3 96 -19 192 -37
96 -17 176 -33 178 -34 3 -3 37 -115 112 -365 l20 -66 145 14 146 14 452 -447
c536 -530 433 -427 629 -627 l163 -168 600 -274 c330 -151 601 -273 603 -271
2 1 -132 295 -297 651 l-299 649 71 75 c40 41 95 99 122 128 l50 53 -50 -28
-50 -27 36 50 37 51 -397 112 -396 113 -590 255 -590 255 -357 214 c-304 183
-359 219 -364 242 -22 97 -25 102 -112 186 -48 46 -103 97 -122 114 l-36 31
-35 -57z"/>
</g>
</svg>
