<?xml version="1.0" standalone="no"?>
<!DOCTYPE svg PUBLIC "-//W3C//DTD SVG 20010904//EN"
 "http://www.w3.org/TR/2001/REC-SVG-20010904/DTD/svg10.dtd">
<svg version="1.0" xmlns="http://www.w3.org/2000/svg"
 width="78.000000pt" height="73.000000pt" viewBox="0 0 78.000000 73.000000"
 preserveAspectRatio="xMidYMid meet">
<metadata>
Created by potrace 1.14, written by Peter Selinger 2001-2017
</metadata>
<g transform="translate(0.000000,73.000000) scale(0.100000,-0.100000)"
fill="#000000" stroke="none">
<path fill="#000000" stroke="none" d="M735 716 c-17 -12 -17 -18 -7 -71 15
-76 17 -71 -18 -85 -22 -9 -85 -11 -233 -8 -198 4 -205 5 -255 31 -28 15 -62
27 -75 27 -14 0 -36 14 -56 35 -54 60 -114 42 -67 -20 14 -18 26 -37 26 -42 0
-4 10 -27 22 -50 18 -33 35 -48 86 -73 90 -44 159 -70 185 -70 12 0 73 -9 135
-21 l112 -21 0 -44 c0 -52 34 -235 49 -261 27 -48 28 -48 50 -29 31 28 26 63
-19 134 -49 77 -53 125 -15 170 19 23 37 32 75 37 l50 7 0 184 c0 194 -2 202
-45 170z"/>
</g>
</svg>
