<?xml version="1.0" standalone="no"?>
<!DOCTYPE svg PUBLIC "-//W3C//DTD SVG 20010904//EN"
 "http://www.w3.org/TR/2001/REC-SVG-20010904/DTD/svg10.dtd">
<svg version="1.0" xmlns="http://www.w3.org/2000/svg"
 width="35.000000pt" height="33.000000pt" viewBox="0 0 35.000000 33.000000"
 preserveAspectRatio="xMidYMid meet">
<metadata>
Created by potrace 1.14, written by Peter Selinger 2001-2017
</metadata>
<g transform="translate(0.000000,33.000000) scale(0.100000,-0.100000)"
fill="#000000" stroke="none">
<path fill="#000000" stroke="none" d="M290 295 l0 -36 -26 20 c-32 25 -79 27
-133 5 -35 -14 -43 -23 -61 -72 -19 -50 -20 -63 -10 -123 15 -91 26 -94 149
-54 l96 32 1 69 c0 87 0 87 24 74 18 -9 20 -8 20 15 0 30 -21 75 -44 94 -14
12 -16 9 -16 -24z"/>
<path fill="#000000" stroke="none" d="M12 275 c-14 -31 -16 -63 -3 -50 9 11
25 75 18 75 -2 0 -9 -11 -15 -25z"/>
</g>
</svg>
