<?xml version="1.0" standalone="no"?>
<!DOCTYPE svg PUBLIC "-//W3C//DTD SVG 20010904//EN"
 "http://www.w3.org/TR/2001/REC-SVG-20010904/DTD/svg10.dtd">
<svg version="1.0" xmlns="http://www.w3.org/2000/svg"
 width="223.000000pt" height="202.000000pt" viewBox="0 0 223.000000 202.000000"
 preserveAspectRatio="xMidYMid meet">
<metadata>
Created by potrace 1.14, written by Peter Selinger 2001-2017
</metadata>
<g transform="translate(0.000000,202.000000) scale(0.100000,-0.100000)"
fill="#000000" stroke="none">
<path fill="#000000" stroke="none" d="M49 2000 l-37 -19 -7 -228 c-8 -237 -8
-239 36 -339 16 -35 25 -44 44 -44 25 0 35 -23 15 -35 -5 -3 23 -53 62 -110
54 -79 85 -114 125 -140 46 -31 55 -33 78 -23 20 9 25 18 25 48 0 40 -12 54
-89 106 -25 16 -77 67 -116 114 -68 82 -72 90 -98 190 -17 68 -30 154 -37 244
l-10 139 35 39 c29 32 34 42 25 58 -6 11 -12 20 -13 20 -1 -1 -18 -10 -38 -20z"/>
<path fill="#000000" stroke="none" d="M928 1638 c-41 -38 -48 -51 -64 -118
-16 -70 -24 -83 -114 -195 -53 -66 -121 -152 -152 -191 l-57 -71 91 -35 91
-34 139 -379 139 -380 112 -113 113 -113 502 -6 502 -6 0 337 0 336 -27 -6
c-16 -3 -35 -7 -43 -9 -8 -2 -82 -24 -165 -49 -128 -38 -169 -46 -280 -53
-100 -7 -145 -6 -193 5 -60 14 -66 18 -139 97 l-76 82 -83 234 c-46 129 -111
322 -144 429 -73 233 -89 280 -99 280 -3 0 -27 -19 -53 -42z"/>
</g>
</svg>
