<?xml version="1.0" standalone="no"?>
<!DOCTYPE svg PUBLIC "-//W3C//DTD SVG 20010904//EN"
 "http://www.w3.org/TR/2001/REC-SVG-20010904/DTD/svg10.dtd">
<svg version="1.0" xmlns="http://www.w3.org/2000/svg"
 width="345.000000pt" height="300.000000pt" viewBox="0 0 345.000000 300.000000"
 preserveAspectRatio="xMidYMid meet">
<metadata>
Created by potrace 1.14, written by Peter Selinger 2001-2017
</metadata>
<g transform="translate(0.000000,300.000000) scale(0.100000,-0.100000)"
fill="#000000" stroke="none">
<path fill="#000000" stroke="none" d="M2085 2984 c-27 -7 -86 -19 -130 -25
-87 -12 -149 -41 -246 -115 -66 -51 -74 -75 -60 -180 9 -58 7 -81 -11 -151
l-21 -83 26 -73 c27 -76 27 -133 -2 -186 -12 -21 -11 -26 5 -38 10 -7 27 -13
39 -13 18 0 27 -20 68 -144 48 -144 48 -145 105 -194 31 -26 68 -56 80 -64 23
-15 23 -17 5 -26 -10 -5 -66 -23 -125 -40 -60 -17 -120 -40 -135 -52 l-27 -21
-17 22 c-12 16 -32 25 -70 30 -142 20 -253 0 -291 -53 -29 -41 -16 -49 86 -55
86 -6 87 -6 117 -44 l30 -39 -32 -39 c-17 -22 -57 -57 -88 -79 -48 -34 -66
-41 -131 -47 -57 -6 -93 -16 -151 -45 -75 -38 -77 -38 -147 -30 -63 8 -76 7
-129 -14 -48 -20 -68 -23 -118 -17 -54 5 -60 8 -60 29 0 13 -29 59 -64 104
-54 67 -64 86 -63 117 3 67 12 88 46 106 24 13 37 30 45 57 7 21 16 36 20 34
5 -3 17 11 27 30 l19 36 -46 86 c-41 79 -52 92 -117 136 l-71 49 -43 -21 c-24
-11 -51 -23 -60 -26 -9 -3 -42 -39 -73 -80 -52 -69 -59 -84 -80 -180 -19 -84
-32 -115 -62 -157 -34 -47 -43 -75 -83 -244 l-46 -191 48 -229 c27 -126 49
-229 51 -230 1 -1 42 -32 91 -69 111 -83 189 -109 366 -125 69 -6 193 -19 275
-29 116 -14 186 -16 310 -11 88 4 203 7 255 8 l96 1 30 -177 30 -178 903 -8
c497 -4 905 -6 907 -4 2 2 22 99 43 216 40 210 40 215 31 345 -20 282 -31 357
-77 516 -25 85 -53 185 -63 222 -10 37 -41 114 -70 170 -62 121 -126 192 -232
257 -62 38 -94 70 -210 208 -151 178 -154 185 -123 272 20 58 20 154 0 236 -9
39 -25 109 -35 157 -17 81 -24 95 -87 180 -38 51 -79 107 -91 125 -12 17 -45
45 -72 62 -48 29 -56 31 -148 30 -53 0 -119 -7 -147 -15z"/>
<path fill="#000000" stroke="none" d="M1180 1557 c3 -24 16 -59 28 -78 12
-19 29 -50 38 -69 9 -19 25 -42 36 -51 19 -14 22 -14 49 14 16 15 29 32 29 36
0 4 -32 40 -71 81 -39 41 -77 83 -85 93 -23 28 -31 20 -24 -26z"/>
</g>
</svg>
