<?xml version="1.0" standalone="no"?>
<!DOCTYPE svg PUBLIC "-//W3C//DTD SVG 20010904//EN"
 "http://www.w3.org/TR/2001/REC-SVG-20010904/DTD/svg10.dtd">
<svg version="1.0" xmlns="http://www.w3.org/2000/svg"
 width="104.000000pt" height="92.000000pt" viewBox="0 0 104.000000 92.000000"
 preserveAspectRatio="xMidYMid meet">
<metadata>
Created by potrace 1.14, written by Peter Selinger 2001-2017
</metadata>
<g transform="translate(0.000000,92.000000) scale(0.100000,-0.100000)"
fill="#000000" stroke="none">
<path fill="#000000" stroke="none" d="M342 885 c-73 -18 -137 -36 -141 -41
-5 -5 -30 -46 -56 -92 -67 -116 -120 -333 -136 -550 -6 -85 -8 -159 -6 -166 5
-12 90 -36 131 -36 12 0 177 60 366 133 190 74 389 151 442 171 l97 38 -40 76
c-44 84 -155 239 -226 315 -71 76 -231 187 -268 186 -16 -1 -90 -16 -163 -34z"/>
</g>
</svg>
