<?xml version="1.0" standalone="no"?>
<!DOCTYPE svg PUBLIC "-//W3C//DTD SVG 20010904//EN"
 "http://www.w3.org/TR/2001/REC-SVG-20010904/DTD/svg10.dtd">
<svg version="1.0" xmlns="http://www.w3.org/2000/svg"
 width="393.000000pt" height="369.000000pt" viewBox="0 0 393.000000 369.000000"
 preserveAspectRatio="xMidYMid meet">
<metadata>
Created by potrace 1.14, written by Peter Selinger 2001-2017
</metadata>
<g transform="translate(0.000000,369.000000) scale(0.100000,-0.100000)"
fill="#000000" stroke="none">
<path fill="#000000" stroke="none" d="M1512 3632 l-204 -57 -58 -78 c-47 -63
-66 -102 -104 -208 -37 -104 -58 -148 -105 -213 -183 -254 -377 -610 -461
-846 -21 -58 -81 -217 -134 -353 -85 -218 -103 -258 -154 -325 -40 -53 -73
-114 -108 -197 -27 -66 -49 -124 -49 -130 0 -5 -3 -12 -6 -15 -4 -3 -23 -50
-43 -105 -35 -95 -38 -114 -59 -357 -23 -254 -23 -260 -6 -440 10 -101 18
-195 18 -209 1 -25 4 -27 91 -39 71 -10 96 -18 117 -38 l27 -24 353 8 c198 5
424 5 516 0 105 -5 221 -4 332 3 94 6 314 11 490 11 176 0 350 3 387 6 l67 7
16 67 c14 57 15 79 5 146 -11 72 -29 256 -26 261 3 4 366 23 447 23 l89 0 0
-241 0 -242 88 7 c289 20 352 19 462 -7 133 -32 247 -50 284 -45 41 5 112 130
132 235 8 42 13 77 12 78 -2 1 -41 12 -88 24 -60 16 -118 43 -200 91 -103 60
-129 70 -245 98 -71 17 -164 36 -205 43 -99 15 -285 90 -462 186 -79 42 -195
101 -258 131 -114 54 -214 124 -360 253 -36 31 -117 85 -180 120 -79 43 -137
83 -185 128 -38 37 -123 104 -187 151 -65 46 -118 87 -118 91 0 10 34 29 50
29 7 0 40 -27 74 -60 l63 -60 66 0 c45 0 112 -12 200 -35 119 -31 145 -35 263
-35 l132 0 115 56 c115 55 116 56 206 161 84 98 91 110 91 149 0 41 38 217 99
462 55 217 91 412 107 579 l16 166 -52 166 -52 166 -137 101 -136 101 -140 37
c-123 33 -169 40 -380 57 -132 10 -256 18 -275 18 -19 0 -127 -26 -238 -57z"/>
<path fill="#ffffff" stroke="none" d="M3664 388 c25 -11 26 -13 20 -82 -8
-89 -22 -112 -88 -141 -102 -45 -127 -49 -192 -30 l-59 17 44 26 44 26 -6 63
-6 64 47 21 c50 23 126 46 154 47 9 1 28 -4 42 -11z"/>
</g>
</svg>
