<?xml version="1.0" standalone="no"?>
<!DOCTYPE svg PUBLIC "-//W3C//DTD SVG 20010904//EN"
 "http://www.w3.org/TR/2001/REC-SVG-20010904/DTD/svg10.dtd">
<svg version="1.0" xmlns="http://www.w3.org/2000/svg"
 width="279.000000pt" height="258.000000pt" viewBox="0 0 279.000000 258.000000"
 preserveAspectRatio="xMidYMid meet">
<metadata>
Created by potrace 1.14, written by Peter Selinger 2001-2017
</metadata>
<g transform="translate(0.000000,258.000000) scale(0.100000,-0.100000)"
fill="#000000" stroke="none">
<path fill="#000000" stroke="none" d="M1303 2573 l-213 -3 0 -54 c0 -29 6
-73 13 -97 6 -24 11 -63 9 -86 -3 -41 -6 -44 -110 -122 -59 -43 -145 -118
-191 -164 l-84 -86 -71 -11 c-58 -10 -103 -28 -249 -106 l-178 -94 -110 0
c-60 0 -109 -3 -109 -6 0 -3 10 -28 22 -56 14 -32 18 -53 11 -55 -5 -2 -18
-10 -28 -17 -17 -12 -16 -15 6 -54 34 -58 94 -71 123 -27 11 17 85 59 219 126
136 68 220 117 258 150 58 50 124 84 242 125 38 13 111 46 162 73 l94 49 20
-22 c12 -12 21 -31 21 -42 0 -22 12 -43 58 -108 l33 -47 -53 -23 c-29 -13 -62
-26 -72 -30 -18 -6 -17 -9 9 -36 24 -25 37 -30 77 -30 l47 0 19 -60 c17 -56
17 -68 4 -151 -13 -82 -12 -99 5 -204 21 -124 18 -203 -13 -322 -15 -56 -15
-76 0 -250 30 -344 33 -431 18 -518 -12 -67 -20 -86 -51 -120 l-36 -40 37 -3
c34 -3 114 7 213 26 l40 7 6 140 c4 77 11 153 16 170 6 20 5 53 -3 100 -21
115 -22 111 71 216 l84 96 3 79 3 79 130 -130 c72 -72 170 -172 220 -224 69
-71 115 -108 197 -157 85 -51 123 -82 185 -150 42 -47 94 -110 115 -141 35
-54 43 -59 153 -109 117 -53 136 -54 95 -1 -11 14 -20 40 -20 60 0 28 -26 70
-147 240 -235 326 -226 317 -321 356 -45 18 -85 38 -90 45 -5 6 -20 39 -32 73
-19 53 -21 68 -11 111 10 47 8 58 -39 198 -28 82 -57 187 -66 234 -20 111 -48
198 -95 291 -47 94 -79 217 -79 301 0 55 -8 82 -66 219 -41 98 -80 174 -103
202 -21 25 -62 80 -92 121 -39 55 -59 75 -74 74 -11 -2 -116 -4 -232 -5z"/>
</g>
</svg>
