<?xml version="1.0" standalone="no"?>
<!DOCTYPE svg PUBLIC "-//W3C//DTD SVG 20010904//EN"
 "http://www.w3.org/TR/2001/REC-SVG-20010904/DTD/svg10.dtd">
<svg version="1.0" xmlns="http://www.w3.org/2000/svg"
 width="61.000000pt" height="57.000000pt" viewBox="0 0 61.000000 57.000000"
 preserveAspectRatio="xMidYMid meet">
<metadata>
Created by potrace 1.14, written by Peter Selinger 2001-2017
</metadata>
<g transform="translate(0.000000,57.000000) scale(0.100000,-0.100000)"
fill="#000000" stroke="none">
<path fill="#000000" stroke="none" d="M130 563 c-80 -5 -116 -33 -122 -93 -2
-21 -2 -37 1 -35 10 11 157 -214 202 -311 21 -44 46 -87 56 -96 14 -12 47 -17
147 -19 l130 -4 33 59 c23 40 33 71 33 100 0 40 -3 43 -90 111 -50 39 -119 84
-155 102 -54 27 -65 38 -76 70 -14 44 -69 123 -84 121 -5 -1 -39 -3 -75 -5z"/>
</g>
</svg>
