<?xml version="1.0" standalone="no"?>
<!DOCTYPE svg PUBLIC "-//W3C//DTD SVG 20010904//EN"
 "http://www.w3.org/TR/2001/REC-SVG-20010904/DTD/svg10.dtd">
<svg version="1.0" xmlns="http://www.w3.org/2000/svg"
 width="86.000000pt" height="76.000000pt" viewBox="0 0 86.000000 76.000000"
 preserveAspectRatio="xMidYMid meet">
<metadata>
Created by potrace 1.14, written by Peter Selinger 2001-2017
</metadata>
<g transform="translate(0.000000,76.000000) scale(0.100000,-0.100000)"
fill="#000000" stroke="none">
<path fill="#000000" stroke="none" d="M450 745 c-19 -7 -47 -16 -61 -19 -30
-6 -36 -21 -49 -114 -9 -72 -28 -99 -76 -108 -41 -7 -57 -26 -71 -84 -7 -25
-15 -54 -19 -64 -7 -19 -6 -19 23 2 17 12 36 22 43 22 19 0 59 54 60 80 1 28
42 80 62 80 33 -1 40 -16 24 -48 -9 -17 -16 -40 -16 -52 0 -11 -21 -54 -47
-95 -43 -67 -51 -75 -79 -75 -31 0 -64 25 -64 49 0 7 -5 9 -11 6 -5 -4 -18 0
-28 9 -17 15 -21 8 -78 -116 -43 -94 -58 -135 -49 -140 6 -4 45 -15 87 -26 41
-11 92 -27 113 -36 38 -16 40 -15 91 10 51 24 59 25 221 24 269 -2 254 -3 254
23 0 43 21 98 51 131 16 19 29 38 29 42 0 5 -21 29 -48 54 -26 25 -62 62 -79
82 -18 21 -43 40 -57 44 -17 4 -27 15 -32 37 -10 39 -10 35 -1 135 6 78 5 85
-16 106 -23 24 -96 56 -125 55 -9 0 -33 -6 -52 -14z"/>
</g>
</svg>
