<?xml version="1.0" standalone="no"?>
<!DOCTYPE svg PUBLIC "-//W3C//DTD SVG 20010904//EN"
 "http://www.w3.org/TR/2001/REC-SVG-20010904/DTD/svg10.dtd">
<svg version="1.0" xmlns="http://www.w3.org/2000/svg"
 width="38.000000pt" height="36.000000pt" viewBox="0 0 38.000000 36.000000"
 preserveAspectRatio="xMidYMid meet">
<metadata>
Created by potrace 1.14, written by Peter Selinger 2001-2017
</metadata>
<g transform="translate(0.000000,36.000000) scale(0.100000,-0.100000)"
fill="#000000" stroke="none">
<path fill="#000000" stroke="none" d="M122 340 c-23 -11 -42 -24 -42 -30 0
-5 -9 -10 -20 -10 -27 0 -25 -25 2 -45 16 -12 19 -19 11 -22 -7 -3 -13 -12
-13 -22 0 -9 -5 -22 -12 -29 -14 -14 28 -16 172 -5 81 5 90 8 75 20 -11 7 -33
13 -50 13 l-31 0 7 58 c7 62 7 63 -32 79 -21 9 -34 7 -67 -7z"/>
<path fill="#000000" stroke="none" d="M16 145 c-5 -13 16 -15 149 -15 131 0
155 2 155 15 0 22 -295 22 -304 0z"/>
<path fill="#000000" stroke="none" d="M21 94 c-12 -16 -21 -41 -21 -62 l0
-34 178 4 c97 2 183 7 190 11 9 6 5 20 -13 58 l-25 49 -144 0 c-144 0 -145 0
-165 -26z"/>
</g>
</svg>
