<?xml version="1.0" standalone="no"?>
<!DOCTYPE svg PUBLIC "-//W3C//DTD SVG 20010904//EN"
 "http://www.w3.org/TR/2001/REC-SVG-20010904/DTD/svg10.dtd">
<svg version="1.0" xmlns="http://www.w3.org/2000/svg"
 width="29.000000pt" height="26.000000pt" viewBox="0 0 29.000000 26.000000"
 preserveAspectRatio="xMidYMid meet">
<metadata>
Created by potrace 1.14, written by Peter Selinger 2001-2017
</metadata>
<g transform="translate(0.000000,26.000000) scale(0.100000,-0.100000)"
fill="#000000" stroke="none">
<path fill="#000000" stroke="none" d="M22 249 c-34 -13 -22 -33 23 -39 35 -4
40 -9 47 -40 4 -19 6 -48 3 -65 -4 -23 2 -38 28 -67 l32 -38 64 9 c35 6 66 12
68 15 3 3 0 26 -7 51 -11 40 -19 49 -60 70 -26 13 -58 40 -74 63 -34 50 -72
63 -124 41z"/>
</g>
</svg>
