<?xml version="1.0" standalone="no"?>
<!DOCTYPE svg PUBLIC "-//W3C//DTD SVG 20010904//EN"
 "http://www.w3.org/TR/2001/REC-SVG-20010904/DTD/svg10.dtd">
<svg version="1.0" xmlns="http://www.w3.org/2000/svg"
 width="55.000000pt" height="48.000000pt" viewBox="0 0 55.000000 48.000000"
 preserveAspectRatio="xMidYMid meet">
<metadata>
Created by potrace 1.14, written by Peter Selinger 2001-2017
</metadata>
<g transform="translate(0.000000,48.000000) scale(0.100000,-0.100000)"
fill="#000000" stroke="none">
<path fill="#000000" stroke="none" d="M208 449 c-65 -33 -66 -35 -70 -156
l-3 -83 -70 -70 c-38 -38 -67 -72 -64 -75 3 -2 113 -16 245 -30 131 -14 254
-27 272 -30 l32 -6 0 53 c0 69 -24 107 -92 148 l-53 32 3 73 c3 42 -1 81 -7
94 -9 16 -119 83 -133 81 -2 -1 -29 -14 -60 -31z"/>
</g>
</svg>
