<?xml version="1.0" standalone="no"?>
<!DOCTYPE svg PUBLIC "-//W3C//DTD SVG 20010904//EN"
 "http://www.w3.org/TR/2001/REC-SVG-20010904/DTD/svg10.dtd">
<svg version="1.0" xmlns="http://www.w3.org/2000/svg"
 width="66.000000pt" height="61.000000pt" viewBox="0 0 66.000000 61.000000"
 preserveAspectRatio="xMidYMid meet">
<metadata>
Created by potrace 1.14, written by Peter Selinger 2001-2017
</metadata>
<g transform="translate(0.000000,61.000000) scale(0.100000,-0.100000)"
fill="#000000" stroke="none">
<path fill="#000000" stroke="none" d="M73 597 c-54 -20 -59 -30 -44 -89 13
-48 12 -53 -6 -68 -18 -14 -19 -19 -7 -42 11 -22 22 -26 81 -33 37 -4 76 -10
86 -14 16 -6 16 -9 -8 -31 -21 -19 -25 -33 -25 -77 0 -70 -10 -86 -65 -107
-52 -20 -56 -30 -17 -44 18 -6 34 -22 42 -41 11 -27 17 -31 51 -31 37 0 38 1
45 45 8 54 25 55 37 2 8 -32 13 -37 38 -37 23 0 32 6 43 32 12 31 11 37 -15
90 -26 51 -29 68 -29 152 0 90 -1 96 -26 115 -14 11 -40 25 -58 31 -33 10 -33
12 -29 58 2 26 5 57 7 69 5 33 -41 42 -101 20z"/>
<path fill="#000000" stroke="none" d="M476 408 c-10 -15 -16 -45 -16 -85 0
-58 -2 -65 -33 -93 -31 -28 -34 -38 -47 -125 -7 -53 -11 -98 -8 -100 5 -5 266
39 272 46 2 2 7 43 11 91 l7 86 -42 22 c-34 17 -41 25 -37 43 3 12 9 43 12 69
7 45 6 48 -20 58 -44 17 -82 12 -99 -12z"/>
</g>
</svg>
