<?xml version="1.0" standalone="no"?>
<!DOCTYPE svg PUBLIC "-//W3C//DTD SVG 20010904//EN"
 "http://www.w3.org/TR/2001/REC-SVG-20010904/DTD/svg10.dtd">
<svg version="1.0" xmlns="http://www.w3.org/2000/svg"
 width="396.000000pt" height="373.000000pt" viewBox="0 0 396.000000 373.000000"
 preserveAspectRatio="xMidYMid meet">
<metadata>
Created by potrace 1.14, written by Peter Selinger 2001-2017
</metadata>
<g transform="translate(0.000000,373.000000) scale(0.100000,-0.100000)"
fill="#000000" stroke="none">
<path fill="#000000" stroke="none" d="M3203 3720 l-253 -8 -104 -88 -104 -88
-58 -120 -58 -120 12 -269 12 -270 42 -76 c22 -42 50 -91 61 -109 l19 -33 -38
6 c-22 3 -70 13 -107 22 -38 9 -93 14 -126 11 -55 -4 -64 -8 -147 -75 -83 -66
-97 -73 -199 -103 -107 -31 -208 -78 -219 -103 -3 -7 -3 -1 0 12 l6 24 -53
-31 c-30 -16 -116 -64 -192 -106 l-137 -76 -144 0 -144 0 -72 100 c-39 55 -76
98 -81 94 -6 -3 -26 5 -45 18 -31 21 -34 26 -29 59 6 34 0 46 -86 165 -64 89
-119 152 -177 203 l-83 74 -157 44 c-86 24 -164 45 -172 45 -8 1 -73 -17 -145
-40 l-130 -41 -36 -68 c-21 -38 -42 -97 -49 -134 -10 -58 -10 -74 6 -122 9
-31 20 -54 24 -52 4 3 13 24 20 49 12 43 15 46 134 110 l123 66 79 -11 80 -12
65 -141 c52 -112 114 -217 308 -513 156 -240 249 -373 260 -373 9 0 180 16
381 36 l365 36 214 94 c118 52 218 91 222 87 16 -18 38 -158 44 -288 l6 -140
-75 -285 c-41 -157 -92 -335 -114 -397 -22 -61 -38 -114 -35 -117 8 -8 -37
-150 -51 -161 -22 -17 -75 -196 -91 -305 -8 -58 -17 -121 -20 -140 -4 -23 -2
-30 4 -20 5 8 12 43 16 77 5 42 12 63 23 68 30 11 34 -11 18 -91 -9 -42 -14
-80 -10 -83 3 -3 399 -7 880 -9 l874 -3 0 28 c1 15 7 91 14 167 12 120 16 142
34 157 20 15 22 35 36 265 9 137 20 346 26 464 6 118 29 388 50 600 22 211 40
400 40 418 0 29 -14 49 -94 136 l-94 101 29 40 30 39 -66 29 -65 30 0 96 c0
64 11 167 35 311 l36 215 -99 315 -99 315 -59 1 c-32 1 -173 -2 -311 -6z"/>
</g>
</svg>
