<?xml version="1.0" standalone="no"?>
<!DOCTYPE svg PUBLIC "-//W3C//DTD SVG 20010904//EN"
 "http://www.w3.org/TR/2001/REC-SVG-20010904/DTD/svg10.dtd">
<svg version="1.0" xmlns="http://www.w3.org/2000/svg"
 width="112.000000pt" height="98.000000pt" viewBox="0 0 112.000000 98.000000"
 preserveAspectRatio="xMidYMid meet">
<metadata>
Created by potrace 1.14, written by Peter Selinger 2001-2017
</metadata>
<g transform="translate(0.000000,98.000000) scale(0.100000,-0.100000)"
fill="#000000" stroke="none">
<path fill="#000000" stroke="none" d="M476 955 c-32 -13 -74 -38 -91 -55 -18
-18 -56 -42 -84 -55 -48 -23 -51 -26 -51 -62 0 -21 4 -53 9 -71 5 -17 13 -68
17 -112 l7 -80 -36 0 c-28 0 -52 -12 -104 -51 -86 -65 -96 -79 -77 -100 12
-14 9 -27 -26 -110 -34 -78 -40 -103 -38 -149 l3 -55 98 99 98 99 118 -14
c106 -13 118 -13 113 1 -3 8 -10 18 -16 22 -7 5 -4 8 6 8 9 0 23 8 30 18 9 13
37 22 93 30 98 15 451 16 460 2 3 -5 11 -10 16 -10 14 0 -43 79 -88 121 -24
23 -66 46 -114 63 -88 31 -114 62 -103 121 5 30 1 41 -36 87 -43 55 -44 63
-19 126 13 30 12 33 -11 49 -14 9 -44 36 -66 60 -23 24 -43 43 -45 43 -2 0
-31 -11 -63 -25z"/>
<path fill="#000000" stroke="none" d="M1060 125 l0 -125 24 0 c22 0 24 5 31
68 6 59 3 73 -20 125 -15 31 -28 57 -31 57 -2 0 -4 -56 -4 -125z"/>
</g>
</svg>
