<?xml version="1.0" standalone="no"?>
<!DOCTYPE svg PUBLIC "-//W3C//DTD SVG 20010904//EN"
 "http://www.w3.org/TR/2001/REC-SVG-20010904/DTD/svg10.dtd">
<svg version="1.0" xmlns="http://www.w3.org/2000/svg"
 width="66.000000pt" height="61.000000pt" viewBox="0 0 66.000000 61.000000"
 preserveAspectRatio="xMidYMid meet">
<metadata>
Created by potrace 1.14, written by Peter Selinger 2001-2017
</metadata>
<g transform="translate(0.000000,61.000000) scale(0.100000,-0.100000)"
fill="#000000" stroke="none">
<path fill="#000000" stroke="none" d="M115 577 c-104 -43 -107 -49 -108 -226
-1 -121 1 -143 23 -201 13 -36 33 -77 44 -92 22 -32 23 -31 -24 -46 -19 -7
-24 -9 -10 -6 14 3 81 9 150 13 105 7 454 64 470 78 10 9 -28 22 -104 33 -45
7 -84 17 -87 23 -4 5 -5 72 -2 147 l6 137 -33 56 c-19 30 -45 61 -59 67 -34
16 -152 50 -171 50 -8 0 -51 -15 -95 -33z"/>
</g>
</svg>
