<?xml version="1.0" standalone="no"?>
<!DOCTYPE svg PUBLIC "-//W3C//DTD SVG 20010904//EN"
 "http://www.w3.org/TR/2001/REC-SVG-20010904/DTD/svg10.dtd">
<svg version="1.0" xmlns="http://www.w3.org/2000/svg"
 width="383.000000pt" height="353.000000pt" viewBox="0 0 383.000000 353.000000"
 preserveAspectRatio="xMidYMid meet">
<metadata>
Created by potrace 1.14, written by Peter Selinger 2001-2017
</metadata>
<g transform="translate(0.000000,353.000000) scale(0.100000,-0.100000)"
fill="#000000" stroke="none">
<path fill="#000000" stroke="none" d="M2334 3496 c-103 -26 -135 -40 -220
-93 -97 -60 -101 -64 -132 -130 -26 -57 -34 -91 -47 -205 -21 -188 -19 -253
11 -448 l26 -170 -32 -187 c-21 -122 -39 -199 -52 -220 -23 -38 -27 -38 82
-13 80 18 93 18 235 5 82 -8 266 -32 409 -52 l258 -38 65 -74 65 -75 -93 -46
c-85 -43 -120 -53 -359 -104 -146 -31 -434 -83 -640 -115 l-375 -60 -392 -16
c-321 -13 -436 -14 -640 -4 -279 12 -251 2 -309 106 -32 57 -34 66 -24 101 9
36 15 41 92 75 75 33 378 126 417 128 9 0 11 3 5 5 -6 2 -117 -18 -247 -46
-130 -27 -238 -50 -240 -50 -2 0 -48 -48 -101 -106 l-97 -106 108 -81 108 -81
295 -24 c162 -13 296 -25 298 -27 2 -1 -44 -88 -101 -191 -93 -171 -108 -204
-151 -352 l-48 -163 48 -153 48 -154 67 -32 67 -33 163 9 163 9 43 76 c34 61
67 99 161 188 114 106 120 110 136 92 9 -10 37 -90 63 -177 43 -149 46 -168
51 -305 l4 -146 82 -7 c189 -14 1523 1 1682 20 37 4 49 14 148 128 84 96 126
156 192 272 47 82 96 157 109 167 13 10 40 45 60 77 l36 60 -20 177 c-11 98
-22 282 -25 410 l-6 231 -110 109 c-79 77 -126 115 -164 132 -53 23 -55 25
-80 95 -76 212 -279 818 -356 1064 -49 156 -95 293 -103 305 -43 64 -106 120
-204 179 -88 54 -123 69 -187 82 -98 20 -97 20 -242 -18z"/>
<path fill="#000000" stroke="none" d="M1332 2015 l-153 -64 -78 28 -77 29
-77 -49 c-43 -27 -85 -50 -95 -50 -9 -1 39 -10 107 -20 l124 -18 55 31 c52 30
62 32 206 39 162 8 307 23 396 40 84 16 87 17 61 36 -19 12 -30 14 -57 5 -30
-9 -34 -8 -34 8 0 14 -16 20 -89 34 -49 9 -99 16 -112 15 -13 0 -93 -29 -177
-64z"/>
<path fill="#000000" stroke="none" d="M708 1873 c7 -3 16 -2 19 1 4 3 -2 6
-13 5 -11 0 -14 -3 -6 -6z"/>
</g>
</svg>
