<?xml version="1.0" standalone="no"?>
<!DOCTYPE svg PUBLIC "-//W3C//DTD SVG 20010904//EN"
 "http://www.w3.org/TR/2001/REC-SVG-20010904/DTD/svg10.dtd">
<svg version="1.0" xmlns="http://www.w3.org/2000/svg"
 width="280.000000pt" height="264.000000pt" viewBox="0 0 280.000000 264.000000"
 preserveAspectRatio="xMidYMid meet">
<metadata>
Created by potrace 1.14, written by Peter Selinger 2001-2017
</metadata>
<g transform="translate(0.000000,264.000000) scale(0.100000,-0.100000)"
fill="#000000" stroke="none">
<path fill="#000000" stroke="none" d="M262 2627 c-6 -6 -12 -27 -14 -46 l-3
-33 -45 36 c-53 42 -56 43 -63 15 -4 -16 15 -47 79 -127 47 -58 83 -108 82
-111 -2 -3 -12 -23 -22 -43 l-19 -37 -118 60 c-112 56 -119 58 -129 39 -9 -17
1 -28 87 -94 153 -117 155 -119 151 -146 -2 -20 -13 -26 -68 -41 -36 -9 -81
-24 -101 -34 -30 -15 -35 -21 -31 -46 4 -29 5 -29 73 -29 56 0 80 -5 127 -29
54 -27 66 -29 231 -35 l175 -6 142 -61 143 -61 60 -107 c33 -59 76 -143 96
-186 l36 -79 -11 -93 c-6 -51 -25 -133 -42 -181 -17 -48 -34 -109 -37 -136
l-6 -50 -99 -31 -99 -30 -48 -105 c-26 -58 -48 -111 -48 -118 -1 -8 23 -40 52
-72 48 -53 56 -70 101 -206 26 -82 66 -180 87 -217 33 -59 39 -78 39 -128 0
-32 1 -59 3 -59 1 0 52 9 114 19 111 20 114 21 276 115 151 88 192 107 508
225 189 71 399 154 467 185 90 41 146 59 210 70 115 19 202 51 202 76 0 41
-65 459 -73 466 -1 1 -39 13 -85 28 -66 21 -94 24 -141 20 -55 -6 -63 -11
-157 -90 l-99 -83 -6 117 c-3 73 -12 134 -22 161 -10 24 -16 46 -14 48 3 2 44
10 92 19 48 8 111 24 139 35 28 11 87 26 131 32 l79 12 74 105 73 105 -6 55
c-5 42 -21 80 -68 162 -58 100 -66 109 -126 145 -36 21 -86 46 -113 55 -47 17
-48 16 -134 -15 -79 -28 -91 -36 -135 -89 -45 -54 -49 -63 -49 -111 l0 -53
-55 -27 c-42 -21 -70 -27 -118 -27 -55 0 -86 10 -271 85 -151 61 -221 85 -252
85 -39 0 -45 4 -60 32 -15 28 -49 62 -94 95 -14 10 -29 9 -73 -4 -54 -15 -61
-15 -141 6 -47 11 -105 21 -128 21 -27 0 -102 21 -203 57 -159 56 -160 58
-211 115 -29 32 -99 132 -155 223 -57 91 -109 165 -115 165 -6 0 -16 -6 -22
-13z"/>
</g>
</svg>
