<?xml version="1.0" standalone="no"?>
<!DOCTYPE svg PUBLIC "-//W3C//DTD SVG 20010904//EN"
 "http://www.w3.org/TR/2001/REC-SVG-20010904/DTD/svg10.dtd">
<svg version="1.0" xmlns="http://www.w3.org/2000/svg"
 width="110.000000pt" height="99.000000pt" viewBox="0 0 110.000000 99.000000"
 preserveAspectRatio="xMidYMid meet">
<metadata>
Created by potrace 1.14, written by Peter Selinger 2001-2017
</metadata>
<g transform="translate(0.000000,99.000000) scale(0.100000,-0.100000)"
fill="#000000" stroke="none">
<path fill="#000000" stroke="none" d="M362 983 c-36 -4 -45 -9 -53 -31 -11
-28 -7 -181 6 -218 6 -19 1 -22 -57 -33 -98 -20 -139 -59 -205 -197 -29 -62
-53 -116 -53 -121 0 -5 58 -40 129 -79 134 -74 224 -105 244 -85 8 8 19 4 42
-13 17 -13 80 -39 140 -59 139 -44 536 -150 542 -144 5 6 -52 200 -92 314 -14
40 -25 88 -25 108 0 21 -17 68 -42 119 l-42 85 -116 55 c-64 31 -122 56 -129
56 -8 0 -6 8 5 25 9 13 20 42 25 64 7 34 5 50 -17 100 l-27 61 -116 -2 c-64
-1 -135 -3 -159 -5z"/>
<path fill="#ffffff" stroke="none" d="M504 436 c6 -23 90 -86 114 -86 7 0 12
-4 12 -9 0 -11 -85 -83 -117 -100 -12 -6 -24 -21 -26 -33 -4 -21 -4 -21 -6 3
0 14 -14 46 -31 72 -31 49 -38 81 -20 92 16 10 12 43 -6 53 -13 7 -11 12 17
29 37 22 53 17 63 -21z"/>
</g>
</svg>
