<?xml version="1.0" standalone="no"?>
<!DOCTYPE svg PUBLIC "-//W3C//DTD SVG 20010904//EN"
 "http://www.w3.org/TR/2001/REC-SVG-20010904/DTD/svg10.dtd">
<svg version="1.0" xmlns="http://www.w3.org/2000/svg"
 width="119.000000pt" height="113.000000pt" viewBox="0 0 119.000000 113.000000"
 preserveAspectRatio="xMidYMid meet">
<metadata>
Created by potrace 1.14, written by Peter Selinger 2001-2017
</metadata>
<g transform="translate(0.000000,113.000000) scale(0.100000,-0.100000)"
fill="#000000" stroke="none">
<path fill="#000000" stroke="none" d="M0 1113 c1 -44 68 -844 71 -847 2 -2
21 -6 42 -9 l37 -6 -7 56 c-7 64 -17 66 100 -13 84 -57 98 -61 251 -78 82 -9
101 -14 110 -31 6 -11 11 -21 11 -22 1 -3 562 -163 570 -163 3 0 5 19 5 43 0
37 -4 45 -31 61 -17 10 -47 36 -67 58 -20 22 -65 55 -102 73 -85 43 -103 76
-110 199 l-5 89 -365 254 c-201 139 -398 276 -437 304 -58 40 -73 47 -73 32z"/>
</g>
</svg>
