<?xml version="1.0" standalone="no"?>
<!DOCTYPE svg PUBLIC "-//W3C//DTD SVG 20010904//EN"
 "http://www.w3.org/TR/2001/REC-SVG-20010904/DTD/svg10.dtd">
<svg version="1.0" xmlns="http://www.w3.org/2000/svg"
 width="25.000000pt" height="23.000000pt" viewBox="0 0 25.000000 23.000000"
 preserveAspectRatio="xMidYMid meet">
<metadata>
Created by potrace 1.14, written by Peter Selinger 2001-2017
</metadata>
<g transform="translate(0.000000,23.000000) scale(0.100000,-0.100000)"
fill="#000000" stroke="none">
<path fill="#000000" stroke="none" d="M0 222 c0 -5 14 -21 31 -38 17 -16 49
-50 71 -77 36 -43 39 -50 29 -77 l-10 -30 65 0 c57 0 65 2 60 18 -2 9 -10 49
-16 88 -11 67 -13 72 -53 97 -34 23 -52 27 -109 27 -37 0 -68 -4 -68 -8z"/>
</g>
</svg>
