<?xml version="1.0" standalone="no"?>
<!DOCTYPE svg PUBLIC "-//W3C//DTD SVG 20010904//EN"
 "http://www.w3.org/TR/2001/REC-SVG-20010904/DTD/svg10.dtd">
<svg version="1.0" xmlns="http://www.w3.org/2000/svg"
 width="354.000000pt" height="311.000000pt" viewBox="0 0 354.000000 311.000000"
 preserveAspectRatio="xMidYMid meet">
<metadata>
Created by potrace 1.14, written by Peter Selinger 2001-2017
</metadata>
<g transform="translate(0.000000,311.000000) scale(0.100000,-0.100000)"
fill="#000000" stroke="none">
<path fill="#000000" stroke="none" d="M1913 3042 l-132 -66 -41 -88 c-47
-101 -70 -237 -70 -417 -1 -64 -8 -142 -20 -196 l-18 -90 32 -45 c18 -25 36
-58 40 -75 4 -16 9 -38 12 -47 4 -13 1 -16 -9 -12 -10 4 -23 -14 -44 -59 l-30
-64 -99 -41 c-55 -23 -135 -51 -178 -63 -123 -33 -154 -50 -312 -169 -160
-119 -168 -129 -261 -314 -19 -38 -48 -83 -64 -99 -26 -25 -29 -36 -29 -90 -1
-38 -9 -84 -22 -117 -11 -30 -21 -69 -23 -87 -1 -18 -10 -44 -20 -59 -10 -15
-20 -47 -23 -71 -6 -53 -40 -82 -78 -64 -13 6 -30 8 -38 5 -8 -3 -20 3 -27 14
-20 28 -179 106 -179 88 0 -14 -55 -36 -88 -36 -7 0 -22 -20 -33 -44 -14 -32
-26 -46 -46 -51 -43 -10 -73 -33 -73 -55 0 -11 -4 -20 -10 -20 -5 0 -14 -9
-20 -19 -8 -16 -4 -29 17 -65 24 -40 32 -46 63 -47 57 -1 133 -32 147 -60 7
-13 17 -56 23 -94 6 -38 12 -71 14 -73 9 -8 189 -53 194 -47 11 11 -69 329
-92 365 -14 22 -25 59 -29 99 l-7 63 27 -7 c29 -7 82 -60 83 -82 0 -7 -7 -31
-16 -52 l-16 -40 71 -95 c45 -59 81 -121 99 -166 35 -94 49 -103 95 -63 19 16
60 41 91 53 55 23 59 27 139 153 69 111 87 133 122 148 35 16 40 16 43 3 2 -8
-1 -125 -7 -258 -6 -134 -11 -259 -11 -277 l1 -34 29 33 c21 22 39 32 59 32
59 0 267 31 327 49 60 18 60 18 140 -6 57 -18 92 -23 126 -18 65 8 130 -8 225
-56 105 -54 172 -62 210 -28 24 23 25 28 20 94 -6 70 -6 70 -61 121 -36 33
-56 59 -56 74 0 12 -17 59 -38 104 -33 69 -40 96 -45 174 l-7 93 93 -71 c50
-39 130 -106 177 -149 47 -42 102 -90 123 -106 21 -16 59 -57 84 -93 l46 -64
-13 -79 c-7 -44 -11 -81 -9 -84 2 -2 204 3 449 11 245 7 460 13 478 14 31 0
32 1 20 23 -22 42 -22 240 1 375 21 127 43 175 83 185 19 5 19 7 -8 42 -15 20
-28 46 -29 59 -1 24 -243 426 -257 426 -4 0 -24 33 -44 73 -20 39 -61 112 -92
162 -30 49 -62 106 -71 125 -27 60 -98 116 -192 150 -46 17 -106 45 -134 63
-27 18 -77 43 -110 56 -33 14 -70 31 -82 39 -22 14 -22 15 -5 41 32 45 70 165
78 242 6 68 11 80 57 143 l49 69 -7 180 -7 180 -40 66 c-22 36 -67 105 -100
152 -59 86 -61 87 -151 129 -71 32 -114 45 -192 56 -55 7 -109 13 -120 13 -11
0 -79 -30 -152 -67z"/>
</g>
</svg>
