<?xml version="1.0" standalone="no"?>
<!DOCTYPE svg PUBLIC "-//W3C//DTD SVG 20010904//EN"
 "http://www.w3.org/TR/2001/REC-SVG-20010904/DTD/svg10.dtd">
<svg version="1.0" xmlns="http://www.w3.org/2000/svg"
 width="54.000000pt" height="51.000000pt" viewBox="0 0 54.000000 51.000000"
 preserveAspectRatio="xMidYMid meet">
<metadata>
Created by potrace 1.14, written by Peter Selinger 2001-2017
</metadata>
<g transform="translate(0.000000,51.000000) scale(0.100000,-0.100000)"
fill="#000000" stroke="none">
<path fill="#000000" stroke="none" d="M231 497 c-14 -6 -36 -34 -50 -60 -22
-44 -24 -54 -15 -98 6 -27 7 -49 2 -49 -15 0 -163 -112 -160 -122 1 -6 30 -46
63 -90 58 -75 63 -79 93 -74 17 2 83 10 146 16 115 11 178 27 214 55 19 14 18
16 -10 80 l-29 65 -97 31 -96 30 8 29 c5 16 16 40 24 52 9 12 16 37 16 54 0
26 -8 39 -39 63 -45 36 -39 34 -70 18z"/>
</g>
</svg>
