<?xml version="1.0" standalone="no"?>
<!DOCTYPE svg PUBLIC "-//W3C//DTD SVG 20010904//EN"
 "http://www.w3.org/TR/2001/REC-SVG-20010904/DTD/svg10.dtd">
<svg version="1.0" xmlns="http://www.w3.org/2000/svg"
 width="211.000000pt" height="192.000000pt" viewBox="0 0 211.000000 192.000000"
 preserveAspectRatio="xMidYMid meet">
<metadata>
Created by potrace 1.14, written by Peter Selinger 2001-2017
</metadata>
<g transform="translate(0.000000,192.000000) scale(0.100000,-0.100000)"
fill="#000000" stroke="none">
<path fill="#000000" stroke="none" d="M1195 1906 c-44 -9 -208 -80 -232 -100
-1 -1 -26 -76 -54 -167 l-51 -165 -277 -103 c-152 -57 -280 -107 -285 -111 -9
-9 -296 -736 -296 -751 0 -4 25 -50 55 -101 l55 -94 -40 -142 c-22 -78 -40
-146 -40 -151 0 -4 42 -11 93 -15 74 -5 133 -1 303 23 l211 29 78 -19 79 -18
77 45 c43 25 94 48 113 51 20 3 36 10 36 14 0 5 7 9 15 9 8 0 15 5 15 11 0 5
13 15 29 20 32 11 75 73 65 92 -4 7 -16 22 -27 34 -12 13 -20 38 -21 60 -1 36
-2 37 -56 50 -88 22 -88 22 -35 52 55 31 90 33 215 10 63 -11 69 -14 85 -48
14 -27 17 -57 16 -123 -1 -49 -1 -88 1 -88 2 0 94 9 205 19 l203 20 177 137
c98 75 184 142 191 149 10 9 -27 71 -184 306 -158 236 -214 312 -286 385 l-90
92 20 123 c12 68 24 154 28 191 l7 66 -49 62 c-40 51 -62 68 -143 110 -102 53
-113 55 -206 36z"/>
</g>
</svg>
