<?xml version="1.0" standalone="no"?>
<!DOCTYPE svg PUBLIC "-//W3C//DTD SVG 20010904//EN"
 "http://www.w3.org/TR/2001/REC-SVG-20010904/DTD/svg10.dtd">
<svg version="1.0" xmlns="http://www.w3.org/2000/svg"
 width="320.000000pt" height="303.000000pt" viewBox="0 0 320.000000 303.000000"
 preserveAspectRatio="xMidYMid meet">
<metadata>
Created by potrace 1.14, written by Peter Selinger 2001-2017
</metadata>
<g transform="translate(0.000000,303.000000) scale(0.100000,-0.100000)"
fill="#000000" stroke="none">
<path fill="#000000" stroke="none" d="M1846 3009 c-119 -21 -145 -35 -200
-102 l-34 -42 11 -63 10 -64 -81 -81 -82 -82 15 -55 c8 -30 15 -76 15 -101 0
-46 -1 -48 -105 -147 -57 -56 -101 -103 -96 -106 4 -3 27 -30 51 -61 l43 -56
-18 -64 -17 -65 -47 0 c-33 0 -54 -6 -73 -23 l-27 -22 14 -60 c8 -33 15 -65
15 -71 0 -11 -438 -224 -460 -224 -6 0 -38 22 -73 48 -34 27 -87 64 -118 83
l-56 35 28 49 c26 45 29 59 29 145 l0 95 -78 42 c-72 39 -114 49 -182 44 -22
-1 -23 -3 -8 -12 10 -5 22 -27 28 -48 7 -27 22 -46 50 -66 22 -15 40 -29 40
-31 0 -1 -15 -12 -34 -24 -19 -11 -36 -31 -38 -42 -2 -15 -13 -24 -33 -30 -17
-4 -45 -23 -63 -41 l-33 -34 35 -7 c19 -4 38 -11 41 -16 3 -5 15 -80 26 -167
l22 -158 59 -95 c33 -52 85 -118 115 -147 54 -51 54 -52 51 -104 l-3 -52 -168
-92 c-92 -51 -176 -100 -187 -110 -17 -15 -19 -26 -14 -71 l7 -54 -67 0 -66 0
-44 -88 -44 -88 138 -122 138 -123 -15 -37 c-8 -20 -33 -72 -54 -114 -22 -43
-39 -80 -39 -83 0 -7 1264 3 1407 11 l101 6 44 66 c41 63 46 67 103 82 67 18
51 4 312 287 l139 153 27 112 26 113 -23 195 c-18 148 -33 229 -65 338 l-41
143 55 110 55 109 -36 0 -37 0 77 80 c43 45 130 130 195 191 117 108 119 110
159 207 22 53 45 116 51 140 l12 42 91 0 91 0 119 98 c66 53 131 106 144 117
l24 20 -51 135 c-28 74 -56 140 -63 146 -13 14 -218 70 -297 82 -55 8 -57 8
-75 -20 -10 -15 -24 -28 -29 -28 -6 0 -67 14 -135 31 -100 25 -166 34 -330 45
-251 16 -241 16 -374 -7z"/>
<path fill="#ffffff" stroke="none" d="M2186 2132 c62 -45 67 -56 68 -134 1
-69 0 -71 -36 -102 -40 -35 -331 -156 -373 -156 -17 0 -25 -6 -25 -18 0 -18
-10 -26 -102 -78 -32 -18 -58 -29 -58 -25 0 5 15 40 32 77 36 76 48 172 30
236 l-10 35 147 81 c80 45 162 88 181 96 55 24 102 20 146 -12z"/>
<path fill="#ffffff" stroke="none" d="M1610 1820 c-13 -30 -57 -77 -65 -68
-3 2 -2 39 1 81 l7 76 31 3 c29 3 31 0 34 -31 2 -18 -2 -46 -8 -61z"/>
<path fill="#ffffff" stroke="none" d="M1425 1823 c-10 -69 -14 -70 -39 -16
l-23 48 26 6 c14 4 30 7 35 8 4 0 5 -20 1 -46z"/>
</g>
</svg>
