<?xml version="1.0" standalone="no"?>
<!DOCTYPE svg PUBLIC "-//W3C//DTD SVG 20010904//EN"
 "http://www.w3.org/TR/2001/REC-SVG-20010904/DTD/svg10.dtd">
<svg version="1.0" xmlns="http://www.w3.org/2000/svg"
 width="131.000000pt" height="118.000000pt" viewBox="0 0 131.000000 118.000000"
 preserveAspectRatio="xMidYMid meet">
<metadata>
Created by potrace 1.14, written by Peter Selinger 2001-2017
</metadata>
<g transform="translate(0.000000,118.000000) scale(0.100000,-0.100000)"
fill="#000000" stroke="none">
<path fill="#000000" stroke="none" d="M447 1118 c-127 -58 -130 -59 -165 -45
-21 8 -53 17 -73 21 -33 6 -39 3 -72 -33 l-36 -40 21 -53 c12 -29 23 -55 24
-57 2 -3 203 51 366 98 l67 19 50 -37 50 -38 -65 -48 c-96 -70 -115 -105 -122
-215 -2 -49 -10 -94 -16 -99 -31 -25 -211 -71 -303 -77 -71 -5 -102 -12 -111
-23 -19 -23 -49 -91 -57 -127 -6 -31 -4 -32 41 -48 63 -21 67 -21 87 14 10 17
31 37 47 45 27 14 33 13 74 -7 44 -21 45 -22 30 -49 -18 -37 -17 -94 4 -145
l17 -42 60 55 c55 49 63 53 95 47 19 -3 38 -8 42 -10 13 -8 9 -69 -7 -114 -8
-23 -15 -57 -15 -76 0 -33 0 -33 32 -22 17 6 111 70 207 143 97 72 237 167
311 210 74 43 136 79 138 80 1 1 14 45 28 96 14 52 32 101 40 110 8 8 14 34
14 55 0 32 6 46 30 69 17 16 30 37 30 47 0 37 -33 98 -68 125 -31 23 -45 27
-85 25 -73 -6 -131 13 -365 114 -118 52 -215 94 -216 93 -1 0 -59 -28 -129
-61z"/>
</g>
</svg>
