<?xml version="1.0" standalone="no"?>
<!DOCTYPE svg PUBLIC "-//W3C//DTD SVG 20010904//EN"
 "http://www.w3.org/TR/2001/REC-SVG-20010904/DTD/svg10.dtd">
<svg version="1.0" xmlns="http://www.w3.org/2000/svg"
 width="36.000000pt" height="33.000000pt" viewBox="0 0 36.000000 33.000000"
 preserveAspectRatio="xMidYMid meet">
<metadata>
Created by potrace 1.14, written by Peter Selinger 2001-2017
</metadata>
<g transform="translate(0.000000,33.000000) scale(0.100000,-0.100000)"
fill="#000000" stroke="none">
<path fill="#000000" stroke="none" d="M90 316 c-27 -16 -48 -64 -49 -114 -1
-18 -10 -51 -22 -74 l-21 -41 44 6 c39 5 46 3 78 -28 29 -28 46 -36 105 -44
39 -6 85 -13 103 -17 l33 -5 -15 29 c-9 17 -41 51 -71 78 -55 47 -56 48 -49
90 5 35 2 51 -17 81 -12 21 -23 39 -23 40 -1 0 -17 4 -36 7 -22 4 -44 1 -60
-8z"/>
</g>
</svg>
