<?xml version="1.0" standalone="no"?>
<!DOCTYPE svg PUBLIC "-//W3C//DTD SVG 20010904//EN"
 "http://www.w3.org/TR/2001/REC-SVG-20010904/DTD/svg10.dtd">
<svg version="1.0" xmlns="http://www.w3.org/2000/svg"
 width="32.000000pt" height="30.000000pt" viewBox="0 0 32.000000 30.000000"
 preserveAspectRatio="xMidYMid meet">
<metadata>
Created by potrace 1.14, written by Peter Selinger 2001-2017
</metadata>
<g transform="translate(0.000000,30.000000) scale(0.100000,-0.100000)"
fill="#000000" stroke="none">
<path fill="#000000" stroke="none" d="M164 286 c-3 -8 -4 -23 -2 -33 3 -13
-11 -25 -52 -46 -32 -16 -56 -24 -58 -17 -6 17 -31 11 -42 -10 -16 -29 -4 -40
43 -40 l42 -1 -28 -23 c-32 -26 -57 -69 -57 -97 0 -15 7 -19 33 -19 18 0 42 7
53 15 10 8 37 15 60 15 47 0 63 11 98 67 14 23 34 44 46 48 28 9 25 16 -15 43
-30 19 -35 28 -35 61 0 41 -11 51 -56 51 -14 0 -27 -6 -30 -14z"/>
</g>
</svg>
