<?xml version="1.0" standalone="no"?>
<!DOCTYPE svg PUBLIC "-//W3C//DTD SVG 20010904//EN"
 "http://www.w3.org/TR/2001/REC-SVG-20010904/DTD/svg10.dtd">
<svg version="1.0" xmlns="http://www.w3.org/2000/svg"
 width="37.000000pt" height="35.000000pt" viewBox="0 0 37.000000 35.000000"
 preserveAspectRatio="xMidYMid meet">
<metadata>
Created by potrace 1.14, written by Peter Selinger 2001-2017
</metadata>
<g transform="translate(0.000000,35.000000) scale(0.100000,-0.100000)"
fill="#000000" stroke="none">
<path fill="#000000" stroke="none" d="M171 337 c-9 -11 -16 -43 -20 -89 -1
-5 -9 -8 -18 -8 -35 0 -80 -37 -87 -71 -3 -18 -12 -40 -20 -48 -21 -24 -24
-53 -9 -83 11 -23 20 -27 75 -33 35 -3 109 -5 166 -3 l104 3 4 56 c4 65 -25
137 -70 177 -20 17 -26 31 -24 55 1 18 -2 38 -6 45 -10 16 -81 15 -95 -1z"/>
</g>
</svg>
