<?xml version="1.0" standalone="no"?>
<!DOCTYPE svg PUBLIC "-//W3C//DTD SVG 20010904//EN"
 "http://www.w3.org/TR/2001/REC-SVG-20010904/DTD/svg10.dtd">
<svg version="1.0" xmlns="http://www.w3.org/2000/svg"
 width="113.000000pt" height="105.000000pt" viewBox="0 0 113.000000 105.000000"
 preserveAspectRatio="xMidYMid meet">
<metadata>
Created by potrace 1.14, written by Peter Selinger 2001-2017
</metadata>
<g transform="translate(0.000000,105.000000) scale(0.100000,-0.100000)"
fill="#000000" stroke="none">
<path fill="#000000" stroke="none" d="M290 1032 c0 -13 -10 -24 -24 -29 -30
-10 -266 -303 -266 -329 0 -11 17 -114 38 -230 l38 -211 63 -76 c35 -43 67
-77 70 -77 4 0 108 -18 232 -40 219 -39 227 -39 298 -26 40 8 75 16 77 19 3 3
-6 66 -20 139 -14 74 -26 144 -26 155 0 21 54 84 231 269 l87 91 22 97 c12 54
19 100 16 103 -3 4 -16 -3 -29 -14 -12 -12 -41 -24 -64 -28 l-43 -7 0 36 c0
33 -2 36 -29 36 -15 0 -49 -3 -74 -6 l-45 -6 -11 -59 c-11 -54 -15 -61 -51
-79 l-38 -20 -4 129 c-2 71 -6 132 -9 136 -4 3 -80 12 -170 20 -90 8 -188 17
-216 20 -48 6 -53 5 -53 -13z"/>
</g>
</svg>
