<?xml version="1.0" standalone="no"?>
<!DOCTYPE svg PUBLIC "-//W3C//DTD SVG 20010904//EN"
 "http://www.w3.org/TR/2001/REC-SVG-20010904/DTD/svg10.dtd">
<svg version="1.0" xmlns="http://www.w3.org/2000/svg"
 width="324.000000pt" height="302.000000pt" viewBox="0 0 324.000000 302.000000"
 preserveAspectRatio="xMidYMid meet">
<metadata>
Created by potrace 1.14, written by Peter Selinger 2001-2017
</metadata>
<g transform="translate(0.000000,302.000000) scale(0.100000,-0.100000)"
fill="#000000" stroke="none">
<path fill="#000000" stroke="none" d="M1168 2979 c-49 -23 -88 -46 -88 -51 0
-5 -20 -62 -45 -128 l-44 -119 50 -108 c46 -98 103 -243 96 -248 -1 -2 -26
-15 -55 -29 -53 -27 -55 -27 -150 -16 -82 10 -110 19 -193 60 l-97 49 -58 93
c-33 51 -94 142 -138 202 -43 61 -82 121 -87 135 -4 15 -15 52 -24 84 l-16 57
-159 0 c-88 0 -160 -2 -160 -4 0 -2 7 -23 15 -46 8 -23 15 -75 15 -114 0 -63
4 -78 31 -122 17 -27 38 -55 47 -61 20 -16 74 -17 90 -1 18 18 25 3 24 -56 0
-45 5 -63 27 -93 15 -21 43 -73 63 -115 37 -78 120 -199 189 -275 21 -23 54
-73 74 -112 86 -172 186 -302 329 -426 l73 -64 12 -73 c6 -40 27 -120 45 -178
26 -82 35 -130 40 -220 4 -63 18 -227 32 -365 l25 -249 78 -131 c43 -71 88
-149 100 -173 l22 -44 137 4 c205 4 916 -19 1119 -38 l62 -5 -15 53 c-8 29
-21 96 -30 148 -11 69 -30 131 -70 225 l-56 130 -123 53 c-86 37 -125 60 -133
76 -5 12 -33 78 -61 148 -36 87 -59 128 -73 135 -19 8 -14 12 43 36 35 14 93
28 129 32 56 5 98 21 295 114 211 100 241 111 355 134 69 14 171 29 228 32 56
4 102 10 102 14 0 3 -7 60 -15 125 -14 108 -18 124 -52 177 -28 43 -48 62 -78
74 l-40 16 -45 -50 c-32 -35 -54 -51 -75 -53 -25 -3 -31 -9 -38 -39 -10 -42
-40 -62 -153 -102 -55 -20 -106 -28 -230 -37 -98 -7 -196 -21 -256 -36 -53
-13 -103 -24 -110 -24 -8 0 -38 51 -68 113 -47 96 -68 125 -141 202 -83 87
-88 93 -119 188 l-32 98 -96 49 c-56 28 -117 69 -145 95 l-47 47 30 38 c38 48
93 96 119 105 27 8 45 120 38 244 -5 84 -13 117 -65 265 -49 141 -63 171 -83
178 -13 5 -82 11 -154 14 l-130 6 -87 -43z"/>
</g>
</svg>
