<?xml version="1.0" standalone="no"?>
<!DOCTYPE svg PUBLIC "-//W3C//DTD SVG 20010904//EN"
 "http://www.w3.org/TR/2001/REC-SVG-20010904/DTD/svg10.dtd">
<svg version="1.0" xmlns="http://www.w3.org/2000/svg"
 width="169.000000pt" height="152.000000pt" viewBox="0 0 169.000000 152.000000"
 preserveAspectRatio="xMidYMid meet">
<metadata>
Created by potrace 1.14, written by Peter Selinger 2001-2017
</metadata>
<g transform="translate(0.000000,152.000000) scale(0.100000,-0.100000)"
fill="#000000" stroke="none">
<path fill="#000000" stroke="none" d="M337 1407 c-127 -220 -302 -690 -322
-868 -3 -30 -6 -149 -7 -264 l-1 -208 123 -34 c67 -19 132 -32 144 -29 40 10
128 71 147 101 17 28 17 34 4 59 -8 16 -15 32 -15 36 0 10 49 22 100 25 19 1
57 6 84 10 l50 8 -24 19 c-27 22 -28 20 29 42 35 13 42 14 33 3 -10 -12 0 -16
62 -27 41 -7 78 -10 83 -7 6 4 60 11 121 17 201 19 409 95 475 174 35 42 37
49 37 111 0 37 -5 75 -10 86 -6 10 -7 19 -2 19 5 0 15 -21 22 -46 14 -48 14
-48 81 -28 9 2 31 -8 49 -22 26 -22 33 -25 41 -13 12 19 11 26 -3 49 -16 25
-3 38 22 22 11 -7 23 -12 26 -12 8 0 -4 65 -18 94 -11 25 -86 66 -119 66 -12
0 -32 9 -46 20 -24 19 -41 20 -303 20 -175 0 -289 4 -309 11 l-31 11 0 128 c0
120 -2 132 -30 194 l-29 66 42 29 c23 16 66 51 95 78 52 49 52 49 52 111 l0
62 -294 0 -293 0 -66 -113z"/>
<path fill="#ffffff" stroke="none" d="M1410 735 c0 -8 -2 -15 -4 -15 -2 0 -6
7 -10 15 -3 8 -1 15 4 15 6 0 10 -7 10 -15z"/>
<path fill="#ffffff" stroke="none" d="M1424 695 c3 -8 1 -15 -4 -15 -6 0 -10
7 -10 15 0 8 2 15 4 15 2 0 6 -7 10 -15z"/>
<path fill="#ffffff" stroke="none" d="M1305 690 c-3 -5 -12 -10 -18 -10 -7 0
-6 4 3 10 19 12 23 12 15 0z"/>
<path fill="#ffffff" stroke="none" d="M1249 609 c-39 -69 -135 -91 -252 -57
l-37 11 32 20 c25 15 57 21 141 25 102 5 109 6 120 29 5 12 12 21 15 19 2 -3
-6 -24 -19 -47z"/>
</g>
</svg>
