<?xml version="1.0" standalone="no"?>
<!DOCTYPE svg PUBLIC "-//W3C//DTD SVG 20010904//EN"
 "http://www.w3.org/TR/2001/REC-SVG-20010904/DTD/svg10.dtd">
<svg version="1.0" xmlns="http://www.w3.org/2000/svg"
 width="40.000000pt" height="35.000000pt" viewBox="0 0 40.000000 35.000000"
 preserveAspectRatio="xMidYMid meet">
<metadata>
Created by potrace 1.14, written by Peter Selinger 2001-2017
</metadata>
<g transform="translate(0.000000,35.000000) scale(0.100000,-0.100000)"
fill="#000000" stroke="none">
<path fill="#000000" stroke="none" d="M28 327 c-16 -13 -28 -27 -28 -33 0 -6
26 -18 58 -27 49 -13 58 -19 58 -39 1 -213 3 -228 27 -228 19 0 24 8 35 53 6
29 12 65 12 80 0 26 2 27 53 27 67 0 97 26 97 83 0 27 5 40 18 44 20 8 41 33
42 51 0 9 -41 12 -172 12 -164 -1 -174 -2 -200 -23z"/>
</g>
</svg>
