<?xml version="1.0" standalone="no"?>
<!DOCTYPE svg PUBLIC "-//W3C//DTD SVG 20010904//EN"
 "http://www.w3.org/TR/2001/REC-SVG-20010904/DTD/svg10.dtd">
<svg version="1.0" xmlns="http://www.w3.org/2000/svg"
 width="20.000000pt" height="19.000000pt" viewBox="0 0 20.000000 19.000000"
 preserveAspectRatio="xMidYMid meet">
<metadata>
Created by potrace 1.14, written by Peter Selinger 2001-2017
</metadata>
<g transform="translate(0.000000,19.000000) scale(0.100000,-0.100000)"
fill="#000000" stroke="none">
<path fill="#000000" stroke="none" d="M28 177 c-9 -6 -19 -31 -23 -54 l-7
-42 54 -27 c29 -15 58 -34 65 -43 15 -20 17 -7 2 20 -9 18 -8 19 18 13 15 -3
33 -13 39 -20 14 -18 24 -18 24 -1 0 8 -29 35 -65 62 -37 27 -65 55 -65 65 0
27 -23 42 -42 27z"/>
</g>
</svg>
