<?xml version="1.0" standalone="no"?>
<!DOCTYPE svg PUBLIC "-//W3C//DTD SVG 20010904//EN"
 "http://www.w3.org/TR/2001/REC-SVG-20010904/DTD/svg10.dtd">
<svg version="1.0" xmlns="http://www.w3.org/2000/svg"
 width="412.000000pt" height="368.000000pt" viewBox="0 0 412.000000 368.000000"
 preserveAspectRatio="xMidYMid meet">
<metadata>
Created by potrace 1.14, written by Peter Selinger 2001-2017
</metadata>
<g transform="translate(0.000000,368.000000) scale(0.100000,-0.100000)"
fill="#000000" stroke="none">
<path fill="#000000" stroke="none" d="M950 3575 l-70 -104 0 -84 c0 -75 5
-99 45 -211 67 -189 68 -182 -69 -411 l-115 -190 -52 -180 c-67 -235 -131
-366 -426 -870 -234 -401 -275 -483 -253 -510 10 -13 16 -13 47 0 20 8 37 15
38 15 2 0 11 -23 20 -51 18 -54 13 -68 -25 -69 -33 0 22 -35 81 -51 l61 -17
39 85 c21 47 39 87 39 90 0 3 65 100 143 216 79 117 192 294 251 393 l107 181
164 162 c90 88 171 161 180 161 8 0 53 -9 99 -21 83 -21 83 -21 95 -60 14 -46
20 -32 -84 -179 -79 -110 -84 -122 -133 -276 -60 -188 -68 -246 -82 -655 l-9
-266 -75 -179 c-45 -107 -85 -187 -99 -199 -13 -11 -62 -48 -108 -81 -81 -59
-85 -64 -97 -114 -7 -29 -11 -54 -10 -55 2 -1 40 -12 84 -24 l82 -23 323 22
c178 11 334 23 345 25 14 3 32 25 49 58 l28 54 -51 96 c-84 156 -83 133 -49
742 16 292 30 531 31 532 1 2 44 -13 95 -33 l92 -36 47 -94 46 -93 141 -88
c153 -95 285 -203 508 -415 l144 -138 339 0 339 0 299 -49 298 -49 103 -70
c91 -63 106 -71 137 -66 l34 6 -17 82 c-26 116 -109 335 -183 484 l-64 127
-76 48 c-41 26 -79 47 -84 47 -5 0 -24 -38 -41 -85 l-33 -85 -267 0 c-264 0
-271 1 -456 35 -104 19 -189 36 -191 37 -1 2 -74 122 -161 268 l-159 265 67
285 c38 157 68 294 68 306 1 13 -59 90 -164 209 -90 104 -162 191 -159 194 3
4 39 11 79 17 l74 10 245 -115 246 -116 51 -68 50 -68 57 32 c31 17 87 49 124
71 l68 39 -70 88 -70 88 -112 42 c-90 34 -146 64 -278 151 -162 106 -168 109
-320 155 -175 54 -195 62 -230 100 -51 55 -72 63 -206 81 -88 11 -166 15 -246
11 -103 -4 -118 -3 -122 11 -3 10 -19 66 -35 125 -29 102 -36 116 -122 235
-51 70 -93 129 -95 130 -1 2 -49 10 -106 18 -57 7 -115 16 -130 19 -26 4 -33
-3 -98 -100z"/>
</g>
</svg>
