<?xml version="1.0" standalone="no"?>
<!DOCTYPE svg PUBLIC "-//W3C//DTD SVG 20010904//EN"
 "http://www.w3.org/TR/2001/REC-SVG-20010904/DTD/svg10.dtd">
<svg version="1.0" xmlns="http://www.w3.org/2000/svg"
 width="80.000000pt" height="75.000000pt" viewBox="0 0 80.000000 75.000000"
 preserveAspectRatio="xMidYMid meet">
<metadata>
Created by potrace 1.14, written by Peter Selinger 2001-2017
</metadata>
<g transform="translate(0.000000,75.000000) scale(0.100000,-0.100000)"
fill="#000000" stroke="none">
<path fill="#000000" stroke="none" d="M236 720 c-52 -46 -56 -89 -14 -167
l33 -62 -65 -67 c-36 -36 -93 -86 -128 -111 l-62 -45 0 -128 c0 -107 3 -129
16 -134 9 -3 189 -6 401 -6 l385 0 -24 42 c-14 24 -55 97 -92 164 -65 116 -70
122 -138 164 -38 24 -72 48 -74 52 -3 4 2 18 10 30 9 12 16 42 16 65 0 37 5
47 41 81 37 34 41 42 35 69 -6 27 -16 35 -72 57 -51 21 -81 26 -149 26 -79 0
-86 -2 -119 -30z"/>
</g>
</svg>
