<?xml version="1.0" standalone="no"?>
<!DOCTYPE svg PUBLIC "-//W3C//DTD SVG 20010904//EN"
 "http://www.w3.org/TR/2001/REC-SVG-20010904/DTD/svg10.dtd">
<svg version="1.0" xmlns="http://www.w3.org/2000/svg"
 width="37.000000pt" height="34.000000pt" viewBox="0 0 37.000000 34.000000"
 preserveAspectRatio="xMidYMid meet">
<metadata>
Created by potrace 1.14, written by Peter Selinger 2001-2017
</metadata>
<g transform="translate(0.000000,34.000000) scale(0.100000,-0.100000)"
fill="#000000" stroke="none">
<path fill="#000000" stroke="none" d="M118 329 c-10 -5 -18 -19 -18 -30 0
-29 -48 -107 -69 -114 -23 -7 -36 -108 -20 -153 8 -24 14 -28 35 -24 13 2 27
8 30 13 3 5 16 9 30 9 13 0 24 1 24 3 0 1 -7 23 -14 49 l-14 46 35 7 c44 8 56
-6 49 -55 -7 -46 13 -73 51 -68 l28 3 -3 75 c-2 41 -7 92 -12 112 -7 36 -7 36
18 27 13 -5 38 -21 54 -34 52 -44 66 -25 23 31 -18 23 -42 38 -88 53 -34 12
-70 30 -80 41 -19 22 -33 24 -59 9z"/>
</g>
</svg>
