<?xml version="1.0" standalone="no"?>
<!DOCTYPE svg PUBLIC "-//W3C//DTD SVG 20010904//EN"
 "http://www.w3.org/TR/2001/REC-SVG-20010904/DTD/svg10.dtd">
<svg version="1.0" xmlns="http://www.w3.org/2000/svg"
 width="89.000000pt" height="84.000000pt" viewBox="0 0 89.000000 84.000000"
 preserveAspectRatio="xMidYMid meet">
<metadata>
Created by potrace 1.14, written by Peter Selinger 2001-2017
</metadata>
<g transform="translate(0.000000,84.000000) scale(0.100000,-0.100000)"
fill="#000000" stroke="none">
<path fill="#000000" stroke="none" d="M79 823 l-57 -15 -6 -196 c-3 -108 -9
-289 -12 -402 l-6 -205 298 3 c165 2 355 7 423 10 l124 7 17 51 c10 28 21 77
24 110 8 67 11 61 -140 237 -39 45 -78 102 -88 127 -22 57 -77 150 -89 150
-22 0 -196 92 -217 115 -22 23 -29 25 -119 24 -53 -1 -121 -8 -152 -16z"/>
</g>
</svg>
