<?xml version="1.0" standalone="no"?>
<!DOCTYPE svg PUBLIC "-//W3C//DTD SVG 20010904//EN"
 "http://www.w3.org/TR/2001/REC-SVG-20010904/DTD/svg10.dtd">
<svg version="1.0" xmlns="http://www.w3.org/2000/svg"
 width="72.000000pt" height="64.000000pt" viewBox="0 0 72.000000 64.000000"
 preserveAspectRatio="xMidYMid meet">
<metadata>
Created by potrace 1.14, written by Peter Selinger 2001-2017
</metadata>
<g transform="translate(0.000000,64.000000) scale(0.100000,-0.100000)"
fill="#000000" stroke="none">
<path fill="#000000" stroke="none" d="M0 614 c0 -36 14 -59 90 -144 37 -41
94 -113 128 -159 59 -82 81 -100 232 -202 41 -28 89 -64 107 -81 31 -30 32
-30 83 -18 28 7 54 19 57 27 3 8 1 48 -5 89 -9 64 -7 83 9 137 10 34 19 87 19
117 l0 55 -112 103 -111 102 -249 0 -248 0 0 -26z"/>
</g>
</svg>
