<?xml version="1.0" standalone="no"?>
<!DOCTYPE svg PUBLIC "-//W3C//DTD SVG 20010904//EN"
 "http://www.w3.org/TR/2001/REC-SVG-20010904/DTD/svg10.dtd">
<svg version="1.0" xmlns="http://www.w3.org/2000/svg"
 width="460.000000pt" height="422.000000pt" viewBox="0 0 460.000000 422.000000"
 preserveAspectRatio="xMidYMid meet">
<metadata>
Created by potrace 1.14, written by Peter Selinger 2001-2017
</metadata>
<g transform="translate(0.000000,422.000000) scale(0.100000,-0.100000)"
fill="#000000" stroke="none">
<path fill="#000000" stroke="none" d="M1302 4161 c-54 -29 -110 -64 -127 -76
-16 -12 -104 -52 -195 -88 -91 -36 -235 -99 -321 -139 l-157 -73 -203 -279
-203 -279 -48 -278 -48 -278 45 -74 c42 -70 48 -75 92 -87 26 -6 84 -31 128
-56 l81 -44 111 -497 c62 -274 176 -811 254 -1194 l143 -697 1046 -6 c575 -3
1172 -8 1328 -10 251 -4 282 -2 282 12 0 8 -20 49 -44 91 -25 42 -61 117 -81
168 l-36 91 18 35 c10 19 63 77 118 128 l100 94 5 76 6 76 127 134 c120 126
132 135 193 156 l64 22 31 -67 c53 -118 102 -183 196 -258 112 -90 119 -94
192 -94 58 0 61 1 85 37 24 35 24 37 7 59 -26 33 -71 69 -116 92 -69 35 -147
110 -172 164 -13 27 -23 54 -23 59 0 16 39 10 101 -16 34 -13 66 -22 71 -19 6
4 8 26 4 54 -6 47 -6 47 31 63 59 25 83 29 96 19 7 -6 32 -18 55 -28 37 -14
45 -15 53 -3 13 21 11 75 -8 163 -15 69 -22 84 -58 118 -22 21 -75 57 -117 79
-52 26 -78 45 -78 57 -1 24 -40 69 -85 96 l-38 23 -131 -52 c-116 -45 -147
-62 -256 -145 -124 -94 -125 -94 -279 -143 l-155 -50 -24 28 -23 27 200 134
c174 116 207 142 245 195 l44 60 -31 55 c-41 70 -69 79 -231 71 -115 -6 -120
-7 -185 -45 -36 -22 -88 -45 -116 -51 -27 -7 -63 -18 -80 -26 -122 -53 -264
-91 -271 -71 -24 67 -36 127 -41 211 -5 83 -2 112 16 175 11 41 24 121 27 178
7 103 7 104 51 160 25 31 55 77 68 103 13 25 45 62 71 82 53 41 101 117 118
186 11 44 13 46 80 74 l68 29 65 -18 c57 -15 70 -23 108 -71 24 -29 45 -57 47
-63 5 -16 106 29 112 49 2 9 7 60 11 113 l7 97 92 76 92 76 34 97 33 97 -27
95 c-18 63 -46 128 -84 193 -66 113 -279 386 -303 386 -18 1 -274 76 -307 91
-12 5 -46 27 -75 49 l-52 38 -595 17 c-327 9 -716 17 -863 19 l-269 3 -96 -55z"/>
</g>
</svg>
