<?xml version="1.0" standalone="no"?>
<!DOCTYPE svg PUBLIC "-//W3C//DTD SVG 20010904//EN"
 "http://www.w3.org/TR/2001/REC-SVG-20010904/DTD/svg10.dtd">
<svg version="1.0" xmlns="http://www.w3.org/2000/svg"
 width="13.000000pt" height="12.000000pt" viewBox="0 0 13.000000 12.000000"
 preserveAspectRatio="xMidYMid meet">
<metadata>
Created by potrace 1.14, written by Peter Selinger 2001-2017
</metadata>
<g transform="translate(0.000000,12.000000) scale(0.100000,-0.100000)"
fill="#000000" stroke="none">
<path fill="#000000" stroke="none" d="M29 115 c-1 -3 -2 -8 -3 -12 -1 -5 -4
-12 -7 -18 -14 -22 -20 -75 -10 -75 6 0 11 8 11 18 1 15 2 15 13 1 14 -18 97
-35 97 -20 0 6 -4 13 -10 16 -5 3 -10 14 -10 24 0 25 -76 87 -81 66z"/>
</g>
</svg>
