<?xml version="1.0" standalone="no"?>
<!DOCTYPE svg PUBLIC "-//W3C//DTD SVG 20010904//EN"
 "http://www.w3.org/TR/2001/REC-SVG-20010904/DTD/svg10.dtd">
<svg version="1.0" xmlns="http://www.w3.org/2000/svg"
 width="57.000000pt" height="34.000000pt" viewBox="0 0 57.000000 34.000000"
 preserveAspectRatio="xMidYMid meet">
<metadata>
Created by potrace 1.14, written by Peter Selinger 2001-2017
</metadata>
<g transform="translate(0.000000,34.000000) scale(0.100000,-0.100000)"
fill="#000000" stroke="none">
<path fill="#000000" stroke="none" d="M38 323 c-9 -10 -22 -38 -29 -61 -10
-36 -10 -48 1 -65 29 -48 60 -116 60 -134 0 -42 29 -53 141 -53 57 0 110 4
118 9 8 5 24 3 40 -5 14 -8 44 -14 66 -14 139 0 183 186 59 250 -15 8 -37 26
-48 39 -35 43 -74 51 -239 51 -134 0 -156 -2 -169 -17z"/>
</g>
</svg>
