<?xml version="1.0" standalone="no"?>
<!DOCTYPE svg PUBLIC "-//W3C//DTD SVG 20010904//EN"
 "http://www.w3.org/TR/2001/REC-SVG-20010904/DTD/svg10.dtd">
<svg version="1.0" xmlns="http://www.w3.org/2000/svg"
 width="464.000000pt" height="272.000000pt" viewBox="0 0 464.000000 272.000000"
 preserveAspectRatio="xMidYMid meet">
<metadata>
Created by potrace 1.14, written by Peter Selinger 2001-2017
</metadata>
<g transform="translate(0.000000,272.000000) scale(0.100000,-0.100000)"
fill="#000000" stroke="none">
<path fill="#000000" stroke="none" d="M0 2038 l0 -682 40 39 c51 49 68 100
52 153 -7 21 -21 47 -31 56 -19 18 -19 19 30 52 27 18 66 43 87 54 21 12 48
37 62 57 22 32 25 48 27 147 2 63 10 133 19 163 12 42 15 93 12 261 -3 203 -4
209 -28 245 -36 52 -86 77 -154 77 -55 0 -57 1 -62 30 -5 23 -12 30 -30 30
l-24 0 0 -682z"/>
<path fill="#000000" stroke="none" d="M1928 2713 c-41 -6 -71 -50 -65 -94 3
-22 -1 -43 -10 -55 -9 -11 -13 -37 -12 -66 3 -51 -15 -77 -53 -78 -31 0 -58
-37 -58 -77 0 -21 -7 -47 -15 -57 -11 -15 -15 -50 -15 -138 0 -116 -1 -120
-26 -143 -43 -40 -74 -87 -74 -112 0 -14 -14 -36 -34 -53 -19 -17 -41 -49 -51
-72 -21 -54 -58 -88 -96 -88 -44 0 -69 -31 -69 -88 0 -44 -2 -49 -30 -59 -17
-6 -32 -21 -35 -35 -4 -14 -18 -29 -35 -35 -19 -7 -32 -21 -36 -38 -4 -15 -22
-42 -40 -61 -19 -18 -34 -40 -34 -49 0 -31 -39 -56 -80 -53 l-39 3 124 127
c131 134 144 157 132 234 -6 33 -4 34 25 34 42 0 99 34 128 77 21 30 25 50 28
132 l4 97 42 22 c61 33 91 82 91 152 0 68 -29 117 -88 150 -34 19 -50 21 -152
18 -98 -3 -117 -6 -143 -25 -34 -25 -82 -40 -82 -26 0 5 -17 19 -39 31 -34 19
-54 22 -155 22 -87 0 -126 -4 -154 -17 -64 -29 -125 -44 -200 -52 -83 -9 -115
-27 -149 -87 -21 -37 -23 -51 -23 -235 0 -153 -3 -199 -14 -208 -7 -6 -26 -31
-42 -56 -25 -40 -32 -45 -65 -45 -44 0 -76 -24 -118 -87 -28 -42 -31 -54 -31
-123 0 -65 -3 -80 -21 -96 -30 -27 -51 -72 -46 -97 4 -22 4 -22 6 1 1 15 7 22
22 22 30 0 22 -44 -8 -48 -21 -3 -23 -9 -23 -56 0 -41 -5 -57 -21 -72 -67 -61
-64 -157 7 -213 21 -17 41 -21 96 -21 l69 0 -20 -26 c-27 -34 -27 -74 0 -108
19 -24 26 -26 99 -26 57 0 81 -4 90 -15 9 -11 34 -15 100 -15 74 0 90 -3 105
-20 16 -18 31 -20 145 -20 102 0 130 -3 140 -15 11 -13 37 -15 144 -14 83 0
132 -3 134 -10 2 -5 12 -21 23 -35 24 -30 82 -36 115 -12 13 10 23 11 31 4 17
-14 16 -79 -2 -102 -24 -31 -20 -137 6 -170 17 -22 28 -26 73 -26 29 0 60 6
70 13 16 12 16 14 -3 31 -31 28 -29 97 4 140 14 18 25 38 25 44 0 7 4 12 10
12 5 0 29 21 53 46 34 35 51 65 72 126 15 45 25 91 22 104 -4 22 -1 24 42 24
79 0 141 58 141 131 0 11 11 30 24 40 24 19 53 85 43 96 -3 3 -10 -10 -15 -28
-8 -31 -42 -55 -42 -30 0 29 36 89 63 104 16 10 31 26 34 37 3 11 11 20 18 20
21 0 43 33 50 75 4 22 13 47 20 55 6 8 15 23 18 33 4 11 17 17 37 17 37 0 122
66 139 109 7 14 22 31 34 36 12 6 28 22 35 38 7 15 19 27 27 27 15 0 75 71 75
89 0 6 15 28 33 48 18 21 38 49 45 63 6 14 16 32 22 40 5 8 21 40 35 70 14 30
29 62 35 70 5 8 19 38 31 65 12 28 35 68 52 89 30 38 34 54 36 152 1 11 30 51
66 88 62 65 85 112 73 148 -3 7 4 30 15 51 15 29 17 43 10 60 -7 16 -6 31 5
54 13 26 13 37 2 63 -7 17 -22 36 -34 42 -15 8 -147 12 -446 14 -234 1 -437 0
-452 -3z"/>
<path fill="#ffffff" stroke="none" d="M860 2066 c0 -2 3 -11 6 -20 10 -26
-82 -22 -96 4 -10 19 -8 20 40 20 27 0 50 -2 50 -4z"/>
<path fill="#ffffff" stroke="none" d="M938 2012 c4 -28 -48 -84 -67 -72 -8 4
-10 16 -7 28 5 15 1 21 -19 26 -14 4 -31 4 -37 0 -6 -4 -9 -1 -6 7 6 18 45 24
62 10 10 -9 15 -7 19 10 8 29 51 23 55 -9z"/>
<path fill="#ffffff" stroke="none" d="M2062 1740 c15 -27 15 -32 2 -60 -15
-29 -34 -40 -34 -20 0 6 -7 10 -15 10 -19 0 -19 33 0 70 19 37 26 37 47 0z"/>
<path fill="#ffffff" stroke="none" d="M2214 1718 c24 -53 23 -91 -2 -116 -27
-27 -42 -28 -42 -3 0 10 -6 21 -13 24 -10 4 -12 16 -7 44 16 90 38 107 64 51z"/>
<path fill="#ffffff" stroke="none" d="M1900 1605 c0 -7 6 -18 14 -22 7 -4 17
-23 21 -40 5 -26 3 -33 -8 -33 -9 0 -22 -3 -31 -6 -11 -4 -16 0 -16 12 0 9 -6
25 -14 33 -20 22 -9 71 15 71 11 0 19 -7 19 -15z"/>
<path fill="#ffffff" stroke="none" d="M1748 1415 c24 -15 31 -25 27 -40 -2
-11 -5 -28 -5 -37 0 -28 -34 -21 -59 13 -17 22 -21 37 -16 60 4 17 10 29 13
27 4 -2 22 -12 40 -23z"/>
<path fill="#ffffff" stroke="none" d="M1491 1278 l21 -41 -30 -28 c-28 -26
-32 -27 -47 -13 -8 9 -13 25 -10 35 3 10 8 29 11 42 6 21 22 47 30 47 2 0 13
-19 25 -42z"/>
<path fill="#ffffff" stroke="none" d="M1403 1134 c-3 -8 -9 -14 -13 -14 -14
0 -22 20 -16 37 5 12 9 13 21 3 7 -6 11 -18 8 -26z"/>
<path fill="#ffffff" stroke="none" d="M880 1120 c0 -5 -29 -40 -65 -77 -35
-37 -65 -74 -65 -80 0 -7 -7 -13 -15 -13 -8 0 -15 3 -15 7 0 5 148 167 158
172 1 0 2 -3 2 -9z"/>
<path fill="#ffffff" stroke="none" d="M630 815 c0 -28 -26 -34 -60 -13 -18
12 -17 13 13 24 46 17 47 17 47 -11z"/>
<path fill="#ffffff" stroke="none" d="M969 756 c9 -11 6 -12 -14 -8 -14 2
-28 8 -31 13 -9 15 33 10 45 -5z"/>
<path fill="#ffffff" stroke="none" d="M1263 742 c30 -2 47 -8 44 -15 -2 -7
-9 -12 -15 -11 -7 1 -44 2 -83 3 l-71 1 23 20 c14 11 31 17 39 13 8 -4 37 -8
63 -11z"/>
<path fill="#ffffff" stroke="none" d="M1290 640 c15 -15 19 -28 14 -48 -10
-40 -12 -42 -50 -42 l-34 0 6 43 c11 68 29 82 64 47z"/>
<path fill="#ffffff" stroke="none" d="M1393 313 l-10 -58 -2 70 c-1 51 2 66
10 58 8 -8 9 -28 2 -70z"/>
<path fill="#ffffff" stroke="none" d="M1438 313 c-5 -25 -28 -28 -28 -4 0 12
6 21 16 21 9 0 14 -7 12 -17z"/>
<path fill="#000000" stroke="none" d="M3020 2705 c-7 -9 -16 -46 -19 -83 -5
-53 -12 -75 -36 -106 -26 -34 -30 -49 -35 -125 -3 -47 -11 -95 -17 -106 -6
-11 -24 -46 -39 -78 -15 -32 -42 -70 -60 -85 -39 -32 -64 -77 -64 -114 0 -16
-8 -31 -19 -37 -23 -13 -51 -70 -51 -105 0 -14 -8 -30 -19 -35 -22 -12 -51
-70 -51 -101 0 -15 -32 -54 -96 -118 -94 -93 -114 -122 -114 -164 0 -23 -36
-60 -80 -83 -38 -20 -150 -133 -150 -152 0 -8 -70 -85 -155 -170 -86 -85 -160
-166 -165 -179 -6 -14 -10 -42 -10 -64 0 -21 -7 -51 -15 -66 -10 -19 -16 -57
-16 -109 0 -44 -2 -105 -5 -135 -6 -67 6 -91 36 -72 11 6 35 12 54 12 l34 0 4
71 c3 52 8 73 20 80 13 7 15 15 7 41 -11 38 -9 41 25 32 21 -5 24 -9 16 -24
-11 -21 -13 -77 -4 -132 l7 -38 52 0 c61 0 85 19 85 69 0 29 3 32 28 29 22 -2
27 -8 27 -30 -1 -25 1 -26 17 -11 11 10 23 13 35 7 16 -7 16 -8 -5 -11 -12 -3
-38 -25 -57 -50 -31 -41 -35 -53 -35 -105 0 -45 -5 -66 -20 -85 -28 -35 -27
-111 1 -147 15 -20 29 -26 57 -26 60 0 63 6 67 126 4 109 4 109 37 136 18 16
38 28 45 28 7 0 13 9 13 20 0 18 7 20 54 20 63 0 106 28 134 89 l17 36 112 5
c102 5 114 7 138 30 26 24 49 62 77 122 6 14 22 31 34 37 42 19 166 145 185
189 13 29 24 42 38 42 54 0 141 139 141 224 0 35 11 49 47 60 19 6 22 4 16
-11 -3 -10 -15 -29 -25 -42 -10 -13 -18 -38 -18 -55 0 -17 -7 -40 -15 -50 -8
-11 -15 -34 -15 -52 0 -17 -7 -37 -16 -45 -21 -18 -44 -64 -44 -90 0 -14 -27
-50 -75 -100 -41 -42 -75 -82 -75 -88 0 -7 -16 -33 -35 -58 -27 -36 -35 -55
-35 -88 0 -48 30 -95 61 -95 19 0 25 27 20 82 -1 10 4 18 13 18 9 0 16 9 16
20 0 28 28 25 42 -5 6 -14 18 -25 26 -25 10 0 13 -7 8 -22 -3 -13 -6 -36 -6
-52 0 -23 -3 -27 -20 -23 -27 7 -25 -5 5 -41 30 -36 33 -50 5 -22 -17 17 -33
20 -104 20 -76 0 -85 2 -91 20 -10 30 -40 42 -104 39 -48 -2 -61 1 -79 19 -15
15 -34 22 -61 22 -44 0 -75 -24 -41 -33 29 -7 25 -40 -10 -79 -35 -38 -37 -56
-9 -92 15 -20 29 -26 57 -26 20 0 43 4 51 9 10 7 20 2 33 -15 18 -23 25 -24
122 -24 90 0 105 -2 121 -20 12 -13 31 -20 55 -20 22 0 43 -7 51 -16 10 -12
31 -15 108 -12 53 2 104 7 113 12 12 5 24 -1 44 -23 33 -38 92 -43 123 -12 19
19 20 19 37 0 16 -17 33 -19 218 -19 l201 -1 20 -32 20 -32 164 -2 c130 -2
167 -6 181 -18 9 -8 27 -15 41 -15 16 -1 31 -11 44 -33 20 -31 23 -32 98 -35
l77 -3 0 271 c0 179 -3 270 -10 270 -7 0 -7 6 0 19 13 26 13 124 -1 138 -8 8
-8 13 0 17 7 5 11 61 11 162 l0 154 -54 0 c-47 0 -57 -4 -75 -26 -21 -27 -27
-69 -13 -92 6 -8 -4 -26 -28 -52 -30 -32 -44 -40 -73 -40 -54 0 -77 -35 -77
-118 0 -63 -1 -66 -40 -102 l-40 -37 0 -84 0 -84 -85 3 c-83 3 -86 4 -78 25 4
12 7 41 6 64 -1 28 2 43 10 43 20 0 86 99 93 138 3 21 28 83 55 139 28 58 46
108 43 117 -3 9 -1 16 5 16 6 0 11 -7 11 -16 0 -31 56 40 94 119 20 42 41 77
46 77 13 0 40 54 40 79 0 11 9 22 20 26 27 8 50 55 50 100 0 31 3 35 26 35 14
0 34 5 45 10 18 10 19 29 19 680 l0 670 -133 0 c-132 0 -133 0 -160 -27 -28
-30 -66 -107 -67 -135 0 -10 -5 -18 -11 -18 -6 0 -53 -43 -105 -95 -81 -81
-94 -99 -94 -128 0 -39 -26 -94 -69 -142 -21 -24 -31 -46 -31 -67 0 -24 -12
-44 -55 -89 -30 -32 -55 -65 -55 -73 0 -9 -18 -34 -41 -57 -22 -22 -47 -56
-55 -74 -19 -47 -35 -54 -28 -13 4 18 17 44 29 58 13 14 33 50 46 80 12 30 28
62 35 70 6 8 23 42 37 75 14 34 44 78 70 105 25 25 55 69 68 100 12 30 28 62
35 70 6 8 23 42 37 75 14 33 35 78 46 100 25 46 27 102 7 150 l-15 35 -549 0
c-482 0 -551 -2 -562 -15z"/>
<path fill="#ffffff" stroke="none" d="M3704 1693 c-10 -21 -58 -79 -106 -129
-49 -50 -88 -96 -88 -103 0 -6 -6 -11 -13 -11 -19 0 -47 -33 -56 -66 -4 -15
-12 -29 -19 -32 -22 -7 -1 61 30 96 15 18 28 38 28 44 0 6 7 20 17 30 9 10 21
39 28 65 10 41 18 51 55 70 24 13 49 23 56 23 8 0 28 13 46 29 18 16 35 27 37
25 2 -2 -4 -21 -15 -41z"/>
<path fill="#ffffff" stroke="none" d="M2826 1586 c6 -44 5 -48 -10 -43 -10 4
-26 7 -36 7 -27 0 -29 29 -7 74 16 32 21 36 32 25 7 -8 17 -36 21 -63z"/>
<path fill="#ffffff" stroke="none" d="M2266 1223 c3 -10 10 -26 15 -35 15
-28 11 -45 -15 -62 -24 -15 -26 -14 -51 15 -23 29 -24 33 -10 49 8 9 15 24 15
33 0 23 39 22 46 0z"/>
<path fill="#ffffff" stroke="none" d="M2256 1015 c9 -38 -2 -55 -36 -55 -28
0 -30 2 -30 40 0 38 2 40 30 40 23 0 31 -5 36 -25z"/>
<path fill="#ffffff" stroke="none" d="M1858 623 c-13 -47 -17 -55 -28 -48 -6
4 27 85 35 85 2 0 -1 -17 -7 -37z"/>
<path fill="#ffffff" stroke="none" d="M1910 520 c0 -25 -4 -30 -25 -30 -30 0
-35 33 -7 49 27 16 32 13 32 -19z"/>
<path fill="#000000" stroke="none" d="M2480 370 c-16 -4 -23 -12 -20 -21 9
-25 1 -143 -12 -183 l-12 -38 -58 5 c-32 3 -58 2 -58 -3 0 -25 43 -58 82 -64
24 -3 59 -8 79 -11 26 -5 40 -2 52 10 28 28 20 42 -28 49 l-45 7 16 32 c9 18
32 49 50 70 20 21 34 48 34 62 0 16 6 25 15 25 23 0 18 35 -7 47 -34 16 -60
20 -88 13z"/>
<path fill="#000000" stroke="none" d="M1744 325 c-45 -43 -67 -81 -60 -103 4
-13 1 -22 -9 -26 -22 -8 -19 -68 6 -100 21 -26 65 -35 104 -20 59 23 62 257 3
276 -7 2 -27 -10 -44 -27z"/>
</g>
</svg>
