<?xml version="1.0" standalone="no"?>
<!DOCTYPE svg PUBLIC "-//W3C//DTD SVG 20010904//EN"
 "http://www.w3.org/TR/2001/REC-SVG-20010904/DTD/svg10.dtd">
<svg version="1.0" xmlns="http://www.w3.org/2000/svg"
 width="43.000000pt" height="26.000000pt" viewBox="0 0 43.000000 26.000000"
 preserveAspectRatio="xMidYMid meet">
<metadata>
Created by potrace 1.14, written by Peter Selinger 2001-2017
</metadata>
<g transform="translate(0.000000,26.000000) scale(0.100000,-0.100000)"
fill="#000000" stroke="none">
<path fill="#000000" stroke="none" d="M173 241 c-84 -9 -157 -21 -162 -26 -5
-6 -7 -22 -4 -37 4 -23 12 -27 71 -38 37 -7 70 -15 74 -17 4 -2 -14 -23 -41
-46 -27 -23 -50 -45 -50 -48 -2 -10 49 -29 77 -29 78 1 148 26 220 80 l73 55
-6 50 c-4 28 -10 53 -14 57 -14 15 -94 15 -238 -1z"/>
</g>
</svg>
