<?xml version="1.0" standalone="no"?>
<!DOCTYPE svg PUBLIC "-//W3C//DTD SVG 20010904//EN"
 "http://www.w3.org/TR/2001/REC-SVG-20010904/DTD/svg10.dtd">
<svg version="1.0" xmlns="http://www.w3.org/2000/svg"
 width="71.000000pt" height="42.000000pt" viewBox="0 0 71.000000 42.000000"
 preserveAspectRatio="xMidYMid meet">
<metadata>
Created by potrace 1.14, written by Peter Selinger 2001-2017
</metadata>
<g transform="translate(0.000000,42.000000) scale(0.100000,-0.100000)"
fill="#000000" stroke="none">
<path fill="#000000" stroke="none" d="M467 380 c-28 -28 -43 -38 -51 -30 -12
12 -106 13 -125 1 -10 -7 -25 -1 -50 20 -31 25 -44 29 -98 29 -58 0 -67 -3
-99 -33 -43 -40 -56 -103 -31 -158 8 -19 18 -52 21 -73 6 -41 44 -91 80 -102
11 -4 26 -13 34 -20 27 -28 102 -8 102 27 0 18 81 10 107 -11 39 -30 126 -28
169 5 18 14 36 34 39 45 3 11 12 20 19 20 8 0 19 7 26 15 9 10 9 15 1 15 -7 0
-11 30 -11 90 0 55 4 90 10 90 17 0 30 -47 30 -108 l0 -57 25 30 c58 70 57
157 -2 212 -31 30 -40 33 -95 33 -57 0 -62 -2 -101 -40z"/>
<path fill="#ffffff" stroke="none" d="M436 223 c3 -12 -1 -36 -10 -54 -9 -18
-16 -42 -16 -54 0 -18 -6 -22 -30 -23 -30 -1 -30 0 -23 41 5 23 7 59 6 80 0
20 3 37 7 37 4 0 10 10 14 23 l6 22 20 -25 c11 -14 23 -35 26 -47z"/>
<path fill="#ffffff" stroke="none" d="M539 271 c11 -20 16 -73 13 -139 -2
-35 -5 -43 -19 -40 -12 2 -18 13 -18 30 -1 14 -7 33 -14 42 -12 14 -12 26 -1
71 14 58 23 67 39 36z"/>
<path fill="#ffffff" stroke="none" d="M292 215 c8 -19 8 -31 0 -50 -15 -32
-34 -33 -26 -1 3 13 1 27 -4 30 -12 7 -4 46 9 46 5 0 15 -11 21 -25z"/>
</g>
</svg>
