<?xml version="1.0" standalone="no"?>
<!DOCTYPE svg PUBLIC "-//W3C//DTD SVG 20010904//EN"
 "http://www.w3.org/TR/2001/REC-SVG-20010904/DTD/svg10.dtd">
<svg version="1.0" xmlns="http://www.w3.org/2000/svg"
 width="430.000000pt" height="251.000000pt" viewBox="0 0 430.000000 251.000000"
 preserveAspectRatio="xMidYMid meet">
<metadata>
Created by potrace 1.14, written by Peter Selinger 2001-2017
</metadata>
<g transform="translate(0.000000,251.000000) scale(0.100000,-0.100000)"
fill="#000000" stroke="none">
<path fill="#000000" stroke="none" d="M4110 2476 l-75 -33 -395 -28 c-217
-15 -396 -28 -397 -29 -1 -1 -51 -97 -111 -214 l-109 -213 -96 -65 c-53 -35
-101 -64 -106 -64 -5 0 -170 50 -367 111 -281 86 -411 121 -597 158 l-239 49
-127 -172 c-69 -94 -175 -237 -235 -319 -60 -81 -112 -149 -115 -151 -3 -2
-98 5 -211 15 -195 18 -220 18 -495 4 -159 -9 -313 -18 -342 -21 -49 -5 -51
-7 -48 -32 1 -15 11 -101 20 -192 10 -92 24 -175 32 -187 13 -22 20 -23 133
-23 l120 0 -1 28 c0 15 -3 57 -7 93 l-8 66 92 19 93 18 267 -32 c147 -18 270
-34 272 -37 3 -2 -12 -39 -32 -81 l-36 -77 -63 7 c-190 20 -195 20 -482 -24
l-278 -44 -76 -51 -76 -51 -9 -95 c-11 -118 5 -283 35 -361 12 -32 26 -58 31
-58 6 0 23 9 39 21 l29 20 0 144 c0 118 3 144 15 149 8 3 15 14 15 26 0 14 15
27 50 45 39 20 48 22 43 9 -4 -12 4 -10 33 9 l39 26 389 -49 390 -48 122 95
c105 81 160 136 379 379 141 156 258 284 260 284 1 0 105 -63 229 -141 l226
-140 -133 -147 -133 -147 24 -185 23 -185 79 -145 c43 -80 107 -204 144 -277
l65 -132 33 9 c18 4 45 11 61 14 l27 6 0 129 0 129 -94 258 c-68 186 -91 261
-82 266 7 4 81 32 165 63 84 30 165 62 180 70 14 8 71 57 126 109 55 52 103
92 107 90 3 -2 37 -56 73 -119 37 -63 71 -117 76 -120 4 -3 73 43 152 102
l144 108 43 130 c24 72 45 135 47 142 3 6 -39 59 -91 116 l-96 105 47 244 c25
134 48 245 50 247 1 2 107 27 233 55 222 50 234 51 316 43 93 -10 100 -8 306
87 l76 36 -51 95 c-29 52 -54 94 -57 94 -3 0 -39 -15 -80 -33z"/>
</g>
</svg>
