<?xml version="1.0" standalone="no"?>
<!DOCTYPE svg PUBLIC "-//W3C//DTD SVG 20010904//EN"
 "http://www.w3.org/TR/2001/REC-SVG-20010904/DTD/svg10.dtd">
<svg version="1.0" xmlns="http://www.w3.org/2000/svg"
 width="480.000000pt" height="284.000000pt" viewBox="0 0 480.000000 284.000000"
 preserveAspectRatio="xMidYMid meet">
<metadata>
Created by potrace 1.14, written by Peter Selinger 2001-2017
</metadata>
<g transform="translate(0.000000,284.000000) scale(0.100000,-0.100000)"
fill="#000000" stroke="none">
<path fill="#000000" stroke="none" d="M1629 2753 c-103 -146 -274 -347 -331
-390 -46 -35 -59 -52 -92 -129 -118 -270 -166 -391 -166 -424 1 -19 9 -88 19
-152 14 -93 15 -118 5 -122 -7 -3 -102 26 -211 65 -109 38 -227 74 -263 79
-36 6 -96 24 -135 39 -38 16 -150 57 -249 92 -98 34 -184 69 -192 77 -12 11
-14 -125 -14 -937 l0 -951 1276 2 1277 3 41 110 c23 61 70 157 103 214 l61
105 8 -40 c33 -183 73 -376 79 -382 11 -11 619 -14 1313 -7 l642 7 0 379 0
379 -560 -280 c-308 -154 -561 -280 -563 -280 -2 0 -3 298 -3 663 1 364 -3
765 -8 890 l-8 228 -97 73 c-53 40 -101 76 -108 79 -7 4 -38 -6 -69 -23 -50
-26 -67 -30 -140 -30 l-83 0 -27 88 c-15 48 -32 110 -39 137 l-12 50 -94 0
-95 0 -169 -110 c-94 -60 -255 -171 -360 -246 -124 -89 -193 -133 -197 -125
-13 20 -9 64 13 117 18 46 19 59 9 101 -10 38 -21 55 -53 80 -77 58 -78 63
-50 229 l16 100 -27 28 c-22 23 -39 30 -87 35 -32 3 -85 9 -117 12 l-58 6 9
68 c8 65 7 70 -19 109 -14 23 -31 41 -36 41 -5 0 -7 4 -4 9 6 9 -25 21 -56 21
-10 0 -42 -36 -79 -87z"/>
<path fill="#ffffff" stroke="none" d="M2980 1560 c91 -16 168 -30 172 -30 3
0 42 -57 85 -127 53 -87 112 -206 185 -377 l108 -249 -40 -88 c-22 -48 -47
-115 -57 -149 -12 -42 -26 -68 -43 -79 -14 -10 -108 -39 -210 -65 -102 -26
-192 -49 -201 -52 -10 -3 -68 41 -154 115 l-139 119 -27 121 c-16 67 -48 180
-73 251 -42 119 -46 142 -52 256 l-7 126 59 -7 c46 -6 82 -20 162 -66 73 -41
132 -66 203 -85 54 -15 101 -25 103 -23 2 2 5 29 7 61 l4 56 -115 128 c-137
152 -168 194 -142 194 4 0 81 -13 172 -30z"/>
</g>
</svg>
