<?xml version="1.0" standalone="no"?>
<!DOCTYPE svg PUBLIC "-//W3C//DTD SVG 20010904//EN"
 "http://www.w3.org/TR/2001/REC-SVG-20010904/DTD/svg10.dtd">
<svg version="1.0" xmlns="http://www.w3.org/2000/svg"
 width="128.000000pt" height="75.000000pt" viewBox="0 0 128.000000 75.000000"
 preserveAspectRatio="xMidYMid meet">
<metadata>
Created by potrace 1.14, written by Peter Selinger 2001-2017
</metadata>
<g transform="translate(0.000000,75.000000) scale(0.100000,-0.100000)"
fill="#000000" stroke="none">
<path fill="#000000" stroke="none" d="M800 708 c-17 -23 -33 -52 -36 -65 -7
-25 -215 -193 -320 -257 -56 -34 -119 -104 -178 -196 -24 -39 -101 -63 -189
-59 l-72 4 -3 -33 c-3 -27 3 -39 35 -69 l38 -35 125 5 c69 3 222 15 340 27
160 17 227 20 262 13 40 -8 52 -6 77 9 31 20 42 48 79 196 l15 63 49 -88 c51
-92 97 -146 148 -176 25 -15 29 -16 24 -3 -5 14 1 15 40 10 38 -6 46 -4 46 9
0 16 -10 20 -83 32 -32 5 -40 12 -61 53 -41 82 -60 153 -47 174 6 10 11 41 11
70 0 52 -1 54 -83 143 -72 78 -82 93 -76 115 11 40 10 46 -16 74 -17 19 -34
26 -59 26 -31 0 -40 -6 -66 -42z"/>
</g>
</svg>
