<?xml version="1.0" standalone="no"?>
<!DOCTYPE svg PUBLIC "-//W3C//DTD SVG 20010904//EN"
 "http://www.w3.org/TR/2001/REC-SVG-20010904/DTD/svg10.dtd">
<svg version="1.0" xmlns="http://www.w3.org/2000/svg"
 width="42.000000pt" height="11.000000pt" viewBox="0 0 42.000000 11.000000"
 preserveAspectRatio="xMidYMid meet">
<metadata>
Created by potrace 1.14, written by Peter Selinger 2001-2017
</metadata>
<g transform="translate(0.000000,11.000000) scale(0.100000,-0.100000)"
fill="#000000" stroke="none">
<path fill="#000000" stroke="none" d="M245 100 c-5 -7 -25 -9 -58 -5 -38 5
-60 2 -82 -9 -16 -9 -39 -16 -51 -16 -24 0 -54 -29 -54 -53 0 -15 20 -17 205
-17 l205 0 6 26 c5 18 1 34 -13 52 -18 24 -28 27 -86 30 -40 2 -68 -1 -72 -8z"/>
</g>
</svg>
