<?xml version="1.0" standalone="no"?>
<!DOCTYPE svg PUBLIC "-//W3C//DTD SVG 20010904//EN"
 "http://www.w3.org/TR/2001/REC-SVG-20010904/DTD/svg10.dtd">
<svg version="1.0" xmlns="http://www.w3.org/2000/svg"
 width="113.000000pt" height="30.000000pt" viewBox="0 0 113.000000 30.000000"
 preserveAspectRatio="xMidYMid meet">
<metadata>
Created by potrace 1.14, written by Peter Selinger 2001-2017
</metadata>
<g transform="translate(0.000000,30.000000) scale(0.100000,-0.100000)"
fill="#000000" stroke="none">
<path fill="#000000" stroke="none" d="M575 253 c4 -27 13 -72 21 -101 8 -29
12 -57 9 -62 -3 -4 8 -18 24 -29 30 -22 85 -28 96 -11 3 5 25 7 50 3 30 -4 50
-1 60 7 12 10 19 10 27 2 17 -17 73 -15 88 3 7 8 23 15 37 15 16 0 29 10 41
30 12 20 26 30 47 32 20 2 34 12 45 31 13 24 13 30 0 55 -11 19 -25 28 -47 30
-17 2 -39 12 -49 23 -14 16 -31 19 -100 19 -46 0 -129 -5 -184 -11 -76 -9
-104 -9 -113 0 -6 6 -22 11 -35 11 -22 0 -23 -2 -17 -47z"/>
<path fill="#000000" stroke="none" d="M170 283 c-38 -11 -60 -28 -60 -44 0
-10 -10 -19 -25 -23 -37 -9 -86 -82 -79 -115 10 -40 33 -71 53 -71 10 0 24 -7
31 -15 10 -12 38 -15 129 -15 64 0 121 4 127 9 5 5 20 11 34 13 32 4 38 46 15
109 -20 53 -20 55 -11 102 6 35 5 37 -18 37 -14 0 -27 4 -31 9 -6 10 -137 13
-165 4z"/>
</g>
</svg>
