<?xml version="1.0" standalone="no"?>
<!DOCTYPE svg PUBLIC "-//W3C//DTD SVG 20010904//EN"
 "http://www.w3.org/TR/2001/REC-SVG-20010904/DTD/svg10.dtd">
<svg version="1.0" xmlns="http://www.w3.org/2000/svg"
 width="43.000000pt" height="9.000000pt" viewBox="0 0 43.000000 9.000000"
 preserveAspectRatio="xMidYMid meet">
<metadata>
Created by potrace 1.14, written by Peter Selinger 2001-2017
</metadata>
<g transform="translate(0.000000,9.000000) scale(0.100000,-0.100000)"
fill="#000000" stroke="none">
<path fill="#000000" stroke="none" d="M34 56 c-19 -19 -34 -39 -34 -45 0 -7
25 -11 69 -11 67 0 69 1 74 28 7 33 -17 62 -51 62 -14 0 -38 -14 -58 -34z"/>
<path fill="#ffffff" stroke="none" d="M108 37 c2 -11 -3 -17 -16 -17 -24 0
-32 8 -25 26 7 20 37 13 41 -9z"/>
<path fill="#000000" stroke="none" d="M339 20 l-24 -19 58 -1 c50 0 57 2 57
20 0 16 -7 20 -34 20 -19 0 -44 -9 -57 -20z"/>
</g>
</svg>
