<?xml version="1.0" standalone="no"?>
<!DOCTYPE svg PUBLIC "-//W3C//DTD SVG 20010904//EN"
 "http://www.w3.org/TR/2001/REC-SVG-20010904/DTD/svg10.dtd">
<svg version="1.0" xmlns="http://www.w3.org/2000/svg"
 width="76.000000pt" height="24.000000pt" viewBox="0 0 76.000000 24.000000"
 preserveAspectRatio="xMidYMid meet">
<metadata>
Created by potrace 1.14, written by Peter Selinger 2001-2017
</metadata>
<g transform="translate(0.000000,24.000000) scale(0.100000,-0.100000)"
fill="#000000" stroke="none">
<path fill="#000000" stroke="none" d="M256 231 c-3 -4 -40 -11 -82 -14 -42
-3 -81 -10 -87 -16 -6 -6 -21 -11 -32 -11 -51 0 -72 -70 -33 -107 49 -45 107
-63 199 -63 51 0 91 4 94 10 5 8 11 7 20 0 11 -9 16 -5 23 22 l9 33 12 -28 c6
-16 11 -35 11 -44 0 -12 7 -14 33 -9 17 4 50 10 72 13 22 3 45 10 52 15 7 5
17 7 23 3 6 -4 10 7 10 28 0 31 4 35 53 55 42 18 59 20 86 12 19 -5 37 -7 40
-5 11 11 -16 60 -39 72 -31 16 -226 18 -235 2 -5 -7 -13 -5 -25 6 -28 25 -192
47 -204 26z"/>
</g>
</svg>
