<?xml version="1.0" standalone="no"?>
<!DOCTYPE svg PUBLIC "-//W3C//DTD SVG 20010904//EN"
 "http://www.w3.org/TR/2001/REC-SVG-20010904/DTD/svg10.dtd">
<svg version="1.0" xmlns="http://www.w3.org/2000/svg"
 width="29.000000pt" height="81.000000pt" viewBox="0 0 29.000000 81.000000"
 preserveAspectRatio="xMidYMid meet">
<metadata>
Created by potrace 1.14, written by Peter Selinger 2001-2017
</metadata>
<g transform="translate(0.000000,81.000000) scale(0.100000,-0.100000)"
fill="#000000" stroke="none">
<path fill="#000000" stroke="none" d="M100 795 c-8 -9 -10 -29 -7 -49 5 -30
2 -36 -23 -46 -39 -16 -65 -85 -65 -173 0 -62 2 -69 28 -90 24 -18 32 -37 46
-107 10 -47 30 -129 45 -183 21 -77 24 -102 15 -113 -9 -11 -7 -16 12 -23 21
-8 49 2 97 34 1 1 -7 56 -19 121 -24 138 -17 209 26 254 31 32 33 66 9 164
-16 70 -22 82 -51 99 -27 16 -33 25 -33 54 0 19 -5 43 -10 54 -13 23 -52 25
-70 4z"/>
</g>
</svg>
