<?xml version="1.0" standalone="no"?>
<!DOCTYPE svg PUBLIC "-//W3C//DTD SVG 20010904//EN"
 "http://www.w3.org/TR/2001/REC-SVG-20010904/DTD/svg10.dtd">
<svg version="1.0" xmlns="http://www.w3.org/2000/svg"
 width="61.000000pt" height="157.000000pt" viewBox="0 0 61.000000 157.000000"
 preserveAspectRatio="xMidYMid meet">
<metadata>
Created by potrace 1.14, written by Peter Selinger 2001-2017
</metadata>
<g transform="translate(0.000000,157.000000) scale(0.100000,-0.100000)"
fill="#000000" stroke="none">
<path fill="#000000" stroke="none" d="M333 1547 l-213 -21 0 -36 c0 -86 -11
-127 -37 -136 -17 -6 -33 -29 -54 -76 l-30 -68 55 -107 c59 -117 97 -241 186
-605 35 -147 61 -231 89 -290 22 -46 50 -111 63 -146 l23 -63 95 7 c52 3 96 7
98 9 1 1 -1 351 -4 779 l-7 776 -26 -1 c-14 -1 -122 -11 -238 -22z"/>
</g>
</svg>
