<?xml version="1.0" standalone="no"?>
<!DOCTYPE svg PUBLIC "-//W3C//DTD SVG 20010904//EN"
 "http://www.w3.org/TR/2001/REC-SVG-20010904/DTD/svg10.dtd">
<svg version="1.0" xmlns="http://www.w3.org/2000/svg"
 width="14.000000pt" height="37.000000pt" viewBox="0 0 14.000000 37.000000"
 preserveAspectRatio="xMidYMid meet">
<metadata>
Created by potrace 1.14, written by Peter Selinger 2001-2017
</metadata>
<g transform="translate(0.000000,37.000000) scale(0.100000,-0.100000)"
fill="#000000" stroke="none">
<path fill="#000000" stroke="none" d="M72 354 c-12 -8 -22 -21 -22 -29 0 -8
-10 -30 -21 -50 -25 -41 -30 -105 -11 -128 8 -9 27 -19 44 -22 l30 -7 -6 -59
c-5 -45 -4 -59 6 -59 29 0 40 19 43 71 2 42 -3 62 -21 91 -29 46 -31 101 -5
135 14 17 18 31 12 46 -10 28 -22 30 -49 11z"/>
</g>
</svg>
