<?xml version="1.0" standalone="no"?>
<!DOCTYPE svg PUBLIC "-//W3C//DTD SVG 20010904//EN"
 "http://www.w3.org/TR/2001/REC-SVG-20010904/DTD/svg10.dtd">
<svg version="1.0" xmlns="http://www.w3.org/2000/svg"
 width="85.000000pt" height="196.000000pt" viewBox="0 0 85.000000 196.000000"
 preserveAspectRatio="xMidYMid meet">
<metadata>
Created by potrace 1.14, written by Peter Selinger 2001-2017
</metadata>
<g transform="translate(0.000000,196.000000) scale(0.100000,-0.100000)"
fill="#000000" stroke="none">
<path fill="#000000" stroke="none" d="M575 1941 l-79 -16 -48 -80 c-26 -44
-52 -81 -58 -83 -13 -5 -13 -49 -1 -54 5 -1 13 -30 16 -64 l7 -61 -68 -39
c-60 -35 -78 -53 -161 -166 l-94 -127 -6 -163 c-5 -159 -10 -193 -68 -441
l-13 -57 71 -93 c79 -103 158 -229 219 -351 22 -44 42 -83 44 -85 2 -2 60 -16
129 -31 112 -25 139 -27 255 -22 l130 5 0 59 c0 158 -71 1572 -86 1710 -16
147 -18 157 -41 167 -30 14 -49 13 -148 -8z"/>
</g>
</svg>
