<?xml version="1.0" standalone="no"?>
<!DOCTYPE svg PUBLIC "-//W3C//DTD SVG 20010904//EN"
 "http://www.w3.org/TR/2001/REC-SVG-20010904/DTD/svg10.dtd">
<svg version="1.0" xmlns="http://www.w3.org/2000/svg"
 width="110.000000pt" height="283.000000pt" viewBox="0 0 110.000000 283.000000"
 preserveAspectRatio="xMidYMid meet">
<metadata>
Created by potrace 1.14, written by Peter Selinger 2001-2017
</metadata>
<g transform="translate(0.000000,283.000000) scale(0.100000,-0.100000)"
fill="#000000" stroke="none">
<path fill="#000000" stroke="none" d="M582 2779 c-20 -31 -40 -81 -52 -133
-18 -76 -19 -87 -5 -132 8 -27 15 -50 15 -50 0 -3 -90 -34 -130 -44 -61 -16
-96 -49 -262 -245 l-144 -170 43 -60 c24 -32 46 -62 51 -66 4 -4 39 -1 77 7
59 12 77 22 115 57 66 63 75 69 104 61 l26 -6 0 -159 c0 -109 -8 -219 -24
-352 -14 -105 -28 -230 -32 -276 -4 -58 -19 -123 -49 -210 l-42 -127 22 -120
c12 -65 48 -225 80 -354 l58 -235 -52 -84 -53 -84 33 22 c19 12 72 41 119 65
50 26 94 57 107 74 22 29 22 35 13 129 -5 54 -23 195 -40 313 l-30 215 23 17
c56 43 61 43 126 -1 l61 -42 0 -72 c0 -121 -36 -305 -96 -489 -30 -94 -54
-172 -52 -173 2 -2 48 -12 104 -22 l100 -19 36 23 35 24 7 127 c4 70 16 191
27 270 10 79 28 265 39 413 18 250 22 274 45 312 22 39 23 48 15 107 -5 36
-10 188 -12 338 l-3 274 55 22 c35 15 54 28 52 37 -2 8 -50 120 -108 249
l-104 235 0 125 c0 69 -3 134 -6 145 -3 12 -35 39 -72 61 -51 31 -82 42 -127
47 l-60 6 -33 -50z"/>
</g>
</svg>
