<?xml version="1.0" standalone="no"?>
<!DOCTYPE svg PUBLIC "-//W3C//DTD SVG 20010904//EN"
 "http://www.w3.org/TR/2001/REC-SVG-20010904/DTD/svg10.dtd">
<svg version="1.0" xmlns="http://www.w3.org/2000/svg"
 width="80.000000pt" height="180.000000pt" viewBox="0 0 80.000000 180.000000"
 preserveAspectRatio="xMidYMid meet">
<metadata>
Created by potrace 1.14, written by Peter Selinger 2001-2017
</metadata>
<g transform="translate(0.000000,180.000000) scale(0.100000,-0.100000)"
fill="#000000" stroke="none">
<path fill="#000000" stroke="none" d="M337 1790 c-32 -4 -60 -10 -64 -13 -17
-18 -33 -137 -33 -258 0 -125 -2 -141 -26 -195 -15 -33 -53 -135 -86 -229 -32
-93 -75 -211 -95 -262 l-36 -91 31 -159 c16 -87 43 -243 58 -348 22 -150 32
-195 47 -212 l20 -23 64 61 c34 33 67 58 72 55 5 -3 44 -13 86 -21 43 -8 88
-21 100 -29 17 -11 25 -12 34 -3 9 9 13 6 17 -10 6 -21 51 -59 60 -50 3 2 16
47 30 98 13 52 38 134 54 184 45 139 98 450 116 690 l16 210 -55 90 c-33 53
-77 147 -108 230 -39 106 -66 158 -108 217 -63 87 -59 85 -194 68z"/>
</g>
</svg>
