<?xml version="1.0" standalone="no"?>
<!DOCTYPE svg PUBLIC "-//W3C//DTD SVG 20010904//EN"
 "http://www.w3.org/TR/2001/REC-SVG-20010904/DTD/svg10.dtd">
<svg version="1.0" xmlns="http://www.w3.org/2000/svg"
 width="34.000000pt" height="80.000000pt" viewBox="0 0 34.000000 80.000000"
 preserveAspectRatio="xMidYMid meet">
<metadata>
Created by potrace 1.14, written by Peter Selinger 2001-2017
</metadata>
<g transform="translate(0.000000,80.000000) scale(0.100000,-0.100000)"
fill="#000000" stroke="none">
<path fill="#000000" stroke="none" d="M153 785 c-41 -18 -50 -61 -30 -140 18
-71 9 -102 -37 -132 -53 -34 -79 -101 -84 -212 -5 -99 3 -119 39 -100 33 17
36 9 22 -83 -7 -51 -12 -98 -11 -104 2 -8 41 2 115 28 l111 39 -20 57 c-11 31
-20 70 -19 86 2 35 54 168 81 206 26 37 26 39 -15 100 -32 47 -35 58 -35 124
0 93 -7 114 -41 131 -34 18 -35 18 -76 0z"/>
</g>
</svg>
