<?xml version="1.0" standalone="no"?>
<!DOCTYPE svg PUBLIC "-//W3C//DTD SVG 20010904//EN"
 "http://www.w3.org/TR/2001/REC-SVG-20010904/DTD/svg10.dtd">
<svg version="1.0" xmlns="http://www.w3.org/2000/svg"
 width="59.000000pt" height="145.000000pt" viewBox="0 0 59.000000 145.000000"
 preserveAspectRatio="xMidYMid meet">
<metadata>
Created by potrace 1.14, written by Peter Selinger 2001-2017
</metadata>
<g transform="translate(0.000000,145.000000) scale(0.100000,-0.100000)"
fill="#000000" stroke="none">
<path fill="#000000" stroke="none" d="M200 1429 c-51 -14 -72 -27 -97 -56
-18 -21 -33 -33 -34 -28 0 6 -5 -3 -9 -19 -8 -24 -2 -38 35 -95 37 -57 44 -76
49 -135 6 -78 8 -76 -85 -127 l-56 -30 24 -122 c14 -71 22 -139 19 -164 -5
-35 -1 -47 24 -78 33 -42 55 -131 65 -264 8 -100 50 -218 99 -275 l33 -38 22
30 22 31 -61 31 c-53 27 -60 34 -54 53 10 34 54 119 79 152 12 17 55 90 95
163 57 104 80 137 104 149 17 8 50 39 74 69 41 51 42 55 42 124 0 64 -4 77
-37 134 -24 41 -55 76 -89 100 -28 21 -70 56 -92 79 l-41 42 38 44 38 45 -63
94 c-35 52 -64 99 -64 103 0 11 0 11 -80 -12z"/>
</g>
</svg>
