<?xml version="1.0" standalone="no"?>
<!DOCTYPE svg PUBLIC "-//W3C//DTD SVG 20010904//EN"
 "http://www.w3.org/TR/2001/REC-SVG-20010904/DTD/svg10.dtd">
<svg version="1.0" xmlns="http://www.w3.org/2000/svg"
 width="30.000000pt" height="78.000000pt" viewBox="0 0 30.000000 78.000000"
 preserveAspectRatio="xMidYMid meet">
<metadata>
Created by potrace 1.14, written by Peter Selinger 2001-2017
</metadata>
<g transform="translate(0.000000,78.000000) scale(0.100000,-0.100000)"
fill="#000000" stroke="none">
<path fill="#000000" stroke="none" d="M28 763 c-11 -12 -19 -49 -23 -108 l-7
-90 27 25 c23 20 27 21 22 7 -21 -58 -20 -63 42 -135 34 -39 65 -74 71 -77 5
-3 10 -25 10 -48 0 -23 7 -67 15 -97 8 -30 15 -91 15 -135 0 -44 5 -87 11 -95
7 -11 9 17 6 99 -3 75 -1 109 5 100 10 -15 10 -10 -13 93 -11 52 -10 59 10 91
17 29 21 50 21 127 l0 93 23 -21 c31 -30 38 -28 26 8 -15 41 -63 79 -110 86
-31 5 -39 11 -39 28 0 12 -7 32 -16 44 -19 27 -74 30 -96 5z"/>
</g>
</svg>
