<?xml version="1.0" standalone="no"?>
<!DOCTYPE svg PUBLIC "-//W3C//DTD SVG 20010904//EN"
 "http://www.w3.org/TR/2001/REC-SVG-20010904/DTD/svg10.dtd">
<svg version="1.0" xmlns="http://www.w3.org/2000/svg"
 width="115.000000pt" height="314.000000pt" viewBox="0 0 115.000000 314.000000"
 preserveAspectRatio="xMidYMid meet">
<metadata>
Created by potrace 1.14, written by Peter Selinger 2001-2017
</metadata>
<g transform="translate(0.000000,314.000000) scale(0.100000,-0.100000)"
fill="#000000" stroke="none">
<path fill="#000000" stroke="none" d="M235 2994 c-18 -142 -18 -150 0 -239
l18 -92 -34 -45 c-19 -24 -76 -82 -128 -129 l-94 -84 7 -130 c4 -71 12 -150
16 -175 5 -25 17 -136 25 -248 10 -131 22 -215 32 -240 11 -26 15 -63 14 -126
-2 -81 0 -92 25 -130 29 -43 31 -63 33 -306 0 -77 -24 -192 -49 -236 -11 -20
-14 -36 -9 -46 5 -9 3 -44 -6 -84 -8 -38 -15 -103 -15 -144 -1 -41 -11 -161
-23 -267 -21 -173 -22 -196 -8 -230 8 -21 15 -39 15 -40 3 -4 223 18 288 28
l66 11 -10 29 c-8 23 -29 40 -99 77 -62 33 -87 52 -84 62 10 36 54 343 60 425
7 97 22 176 33 185 4 3 18 61 31 130 13 69 26 131 29 138 3 8 33 12 103 12
l99 0 24 -54 c16 -35 28 -91 36 -162 6 -60 22 -183 35 -274 27 -189 45 -395
45 -516 l0 -84 103 0 c57 0 145 -3 195 -6 l92 -7 0 40 0 40 -76 33 c-67 30
-81 40 -112 88 l-36 54 -8 156 c-5 87 -15 198 -23 247 -29 182 -37 313 -24
430 10 98 9 132 -9 290 -12 99 -26 244 -32 322 -6 79 -15 166 -20 195 -4 29
-7 54 -5 56 4 4 205 -265 205 -276 0 -7 105 -218 115 -230 3 -3 63 25 73 33
12 10 -67 204 -148 360 -83 162 -98 199 -103 250 -5 59 -49 198 -108 345 l-31
75 -71 23 c-52 16 -85 34 -120 66 l-48 43 30 13 c26 10 35 25 62 101 17 48 40
96 50 105 28 25 24 84 -10 152 -47 93 -54 98 -162 116 -53 9 -128 16 -166 16
l-70 0 -18 -146z"/>
</g>
</svg>
