<?xml version="1.0" standalone="no"?>
<!DOCTYPE svg PUBLIC "-//W3C//DTD SVG 20010904//EN"
 "http://www.w3.org/TR/2001/REC-SVG-20010904/DTD/svg10.dtd">
<svg version="1.0" xmlns="http://www.w3.org/2000/svg"
 width="109.000000pt" height="256.000000pt" viewBox="0 0 109.000000 256.000000"
 preserveAspectRatio="xMidYMid meet">
<metadata>
Created by potrace 1.14, written by Peter Selinger 2001-2017
</metadata>
<g transform="translate(0.000000,256.000000) scale(0.100000,-0.100000)"
fill="#000000" stroke="none">
<path fill="#000000" stroke="none" d="M435 2541 c-33 -10 -100 -37 -149 -59
-87 -39 -91 -42 -119 -98 -16 -32 -49 -78 -74 -103 -64 -64 -70 -77 -84 -172
-12 -82 -12 -87 9 -116 47 -66 218 -96 302 -53 37 19 40 19 40 3 0 -9 -17 -34
-37 -56 l-38 -38 3 -82 c1 -45 -2 -121 -8 -168 l-11 -86 33 -54 33 -54 -2
-242 c-1 -138 2 -256 8 -275 5 -18 16 -68 24 -110 15 -85 8 -205 -19 -291 -12
-37 -13 -53 -4 -72 10 -22 18 -25 63 -25 47 0 53 -3 64 -27 7 -16 21 -84 31
-153 10 -69 23 -137 28 -151 14 -36 99 -59 223 -59 l95 0 42 43 42 43 -30 22
c-16 12 -52 27 -80 34 -40 9 -54 18 -75 49 -34 53 -33 108 5 197 36 84 37 109
14 377 -14 164 -14 200 -2 265 l13 75 134 5 134 5 26 47 26 46 -25 27 c-27 28
-79 54 -152 74 -69 19 -93 51 -122 161 -14 52 -32 131 -41 176 -22 112 -9 141
80 186 54 28 70 43 104 96 40 61 41 65 41 149 0 95 -17 213 -31 213 -5 0 -33
22 -63 49 -57 51 -74 57 -186 64 l-45 2 -38 73 c-34 64 -41 72 -67 72 -15 0
-34 2 -42 4 -7 3 -40 -3 -73 -13z"/>
</g>
</svg>
