<?xml version="1.0" standalone="no"?>
<!DOCTYPE svg PUBLIC "-//W3C//DTD SVG 20010904//EN"
 "http://www.w3.org/TR/2001/REC-SVG-20010904/DTD/svg10.dtd">
<svg version="1.0" xmlns="http://www.w3.org/2000/svg"
 width="109.000000pt" height="269.000000pt" viewBox="0 0 109.000000 269.000000"
 preserveAspectRatio="xMidYMid meet">
<metadata>
Created by potrace 1.14, written by Peter Selinger 2001-2017
</metadata>
<g transform="translate(0.000000,269.000000) scale(0.100000,-0.100000)"
fill="#000000" stroke="none">
<path fill="#000000" stroke="none" d="M544 2679 c-30 -7 -50 -21 -73 -49 -30
-38 -31 -43 -42 -192 -6 -84 -15 -156 -20 -159 -5 -3 -52 -13 -104 -23 l-95
-18 -9 -37 c-67 -251 -101 -429 -132 -686 -9 -83 -17 -107 -41 -142 -24 -35
-29 -51 -26 -90 2 -35 7 -49 20 -51 11 -2 18 5 20 20 2 12 11 24 20 26 13 3
16 -1 12 -15 -3 -10 5 0 17 22 12 22 32 78 44 125 22 83 84 244 92 237 2 -3
-1 -53 -7 -113 -16 -172 -13 -209 25 -339 51 -171 69 -345 49 -467 -13 -80
-13 -107 0 -223 14 -127 14 -135 -5 -184 -24 -66 -28 -261 -5 -261 8 0 17 -8
21 -19 3 -12 19 -21 43 -25 20 -3 51 -8 69 -12 28 -6 34 -3 52 27 l20 32 -24
41 c-13 23 -30 77 -39 121 -16 77 -16 84 10 250 25 164 108 566 124 593 10 19
47 -79 56 -148 3 -29 15 -74 25 -98 15 -33 19 -68 19 -148 0 -73 6 -130 21
-189 20 -78 20 -87 6 -132 -8 -26 -18 -66 -22 -88 -3 -22 -8 -52 -11 -68 l-6
-27 60 0 c58 0 91 12 180 67 l23 14 -49 55 -48 55 22 142 22 142 -26 148 -26
147 29 111 c27 106 28 117 22 276 -4 104 -2 162 4 156 5 -5 29 -41 53 -80 37
-60 45 -83 51 -142 6 -58 11 -73 31 -85 37 -25 60 -20 75 16 7 17 12 39 12 47
-1 9 -29 102 -63 206 -49 153 -68 232 -97 409 l-37 219 -88 92 c-81 85 -88 96
-88 133 0 25 6 45 17 53 22 19 43 72 43 110 0 17 -8 60 -17 96 -17 63 -19 65
-79 99 -65 36 -67 37 -130 23z"/>
</g>
</svg>
