<?xml version="1.0" standalone="no"?>
<!DOCTYPE svg PUBLIC "-//W3C//DTD SVG 20010904//EN"
 "http://www.w3.org/TR/2001/REC-SVG-20010904/DTD/svg10.dtd">
<svg version="1.0" xmlns="http://www.w3.org/2000/svg"
 width="93.000000pt" height="236.000000pt" viewBox="0 0 93.000000 236.000000"
 preserveAspectRatio="xMidYMid meet">
<metadata>
Created by potrace 1.14, written by Peter Selinger 2001-2017
</metadata>
<g transform="translate(0.000000,236.000000) scale(0.100000,-0.100000)"
fill="#000000" stroke="none">
<path fill="#000000" stroke="none" d="M785 2340 c-12 -13 -16 -28 -12 -49 4
-21 1 -33 -12 -45 -25 -22 -32 -75 -14 -102 7 -12 16 -44 19 -71 5 -40 11 -51
32 -61 34 -16 42 -15 81 4 45 23 59 56 37 90 -11 16 -15 35 -12 50 4 13 1 34
-6 47 -11 21 -17 51 -18 92 -2 57 -59 84 -95 45z"/>
<path fill="#000000" stroke="none" d="M40 2335 c-7 -8 -18 -15 -26 -15 -10 0
-12 -124 -9 -672 4 -808 4 -667 0 -1066 l-3 -333 29 -6 c34 -6 29 -23 -7 -23
-24 0 -24 0 -24 -110 l0 -110 43 0 c23 0 53 7 65 16 28 19 52 65 53 101 1 26
2 26 9 -7 5 -19 20 -45 34 -57 14 -12 26 -29 26 -38 0 -12 15 -15 85 -15 l84
0 -4 102 c-4 83 -9 108 -25 130 -11 15 -20 29 -20 32 0 3 15 21 34 39 37 37
53 96 38 137 -7 18 -5 31 5 47 14 22 11 63 -18 191 -5 23 -9 50 -9 60 0 9 -6
28 -13 43 -18 34 -29 127 -17 150 11 20 23 133 24 231 1 57 -2 70 -23 91 -12
14 -21 30 -17 35 3 5 -29 12 -74 16 -112 9 -110 8 -111 80 0 33 -4 114 -7 178
-7 124 -6 128 39 128 24 0 24 11 -1 60 -14 28 -29 42 -53 49 l-32 9 36 1 c39
1 73 -28 103 -86 9 -18 20 -33 24 -33 4 0 22 -27 40 -59 18 -32 44 -66 58 -76
40 -26 40 -10 0 20 -20 15 -36 35 -36 45 0 9 -12 35 -28 56 -15 21 -33 51 -39
67 -7 15 -19 27 -26 27 -8 0 -19 11 -25 25 -8 18 -19 25 -39 25 -27 0 -28 1
-28 58 0 31 -5 73 -10 92 -6 19 -10 42 -9 50 1 8 2 25 3 38 1 17 7 22 27 22
31 0 80 46 90 84 13 53 -1 77 -95 159 -36 31 -100 37 -121 12z"/>
<path fill="#000000" stroke="none" d="M446 1495 c24 -39 24 -40 24 -28 0 6
-9 21 -21 34 l-20 24 17 -30z"/>
<path fill="#000000" stroke="none" d="M452 1369 c-12 -22 -17 -37 -12 -34 13
8 43 65 38 71 -3 2 -14 -14 -26 -37z"/>
</g>
</svg>
