<?xml version="1.0" standalone="no"?>
<!DOCTYPE svg PUBLIC "-//W3C//DTD SVG 20010904//EN"
 "http://www.w3.org/TR/2001/REC-SVG-20010904/DTD/svg10.dtd">
<svg version="1.0" xmlns="http://www.w3.org/2000/svg"
 width="56.000000pt" height="135.000000pt" viewBox="0 0 56.000000 135.000000"
 preserveAspectRatio="xMidYMid meet">
<metadata>
Created by potrace 1.14, written by Peter Selinger 2001-2017
</metadata>
<g transform="translate(0.000000,135.000000) scale(0.100000,-0.100000)"
fill="#000000" stroke="none">
<path fill="#000000" stroke="none" d="M335 1319 c-4 -16 -18 -38 -32 -49 -20
-16 -24 -23 -15 -32 7 -7 12 -18 12 -26 0 -8 9 -26 20 -42 l19 -27 -33 -18
c-24 -13 -43 -37 -69 -91 -36 -72 -36 -74 -22 -115 23 -64 19 -91 -24 -152
-22 -31 -36 -59 -30 -62 19 -13 7 -79 -40 -213 -27 -77 -56 -184 -66 -242 -10
-57 -26 -129 -36 -159 -11 -30 -19 -57 -19 -61 0 -4 21 -11 46 -15 26 -3 53
-9 60 -12 17 -6 15 -13 54 177 27 128 42 175 88 273 30 64 56 116 58 114 1 -1
10 -45 18 -97 13 -83 13 -113 1 -238 -12 -124 -17 -149 -39 -183 -14 -21 -26
-41 -26 -44 0 -3 36 -5 81 -5 79 0 80 0 73 22 -10 32 -8 63 12 159 9 46 18
131 19 189 2 61 10 128 20 160 10 34 16 86 15 137 -2 97 25 200 47 182 15 -13
19 -6 28 65 6 41 1 63 -26 135 -18 47 -41 96 -50 109 -16 21 -16 25 -1 51 14
25 14 34 2 70 -16 49 -27 56 -92 63 -45 5 -47 4 -53 -23z"/>
</g>
</svg>
