<?xml version="1.0" standalone="no"?>
<!DOCTYPE svg PUBLIC "-//W3C//DTD SVG 20010904//EN"
 "http://www.w3.org/TR/2001/REC-SVG-20010904/DTD/svg10.dtd">
<svg version="1.0" xmlns="http://www.w3.org/2000/svg"
 width="80.000000pt" height="218.000000pt" viewBox="0 0 80.000000 218.000000"
 preserveAspectRatio="xMidYMid meet">
<metadata>
Created by potrace 1.14, written by Peter Selinger 2001-2017
</metadata>
<g transform="translate(0.000000,218.000000) scale(0.100000,-0.100000)"
fill="#000000" stroke="none">
<path fill="#000000" stroke="none" d="M220 2078 c-108 -129 -190 -238 -190
-252 0 -6 -7 -55 -15 -108 l-13 -98 58 -167 59 -168 7 -330 c6 -306 5 -341
-15 -484 -12 -84 -20 -155 -18 -158 3 -2 41 1 85 8 l80 12 5 36 c3 20 15 128
27 241 12 113 24 212 27 220 3 8 21 -28 40 -80 l35 -95 5 -232 5 -232 117 -97
c107 -89 116 -95 120 -73 7 53 -20 129 -67 187 -84 102 -82 99 -38 74 21 -13
40 -22 41 -20 2 2 -1 23 -5 48 -5 25 -9 83 -10 130 0 64 -8 113 -33 200 l-33
115 18 85 c14 69 17 140 18 375 l1 290 39 -75 c24 -44 40 -88 40 -108 0 -27 3
-32 18 -28 9 2 52 10 94 17 l77 12 -4 41 c-2 22 -7 75 -9 116 -5 67 -11 87
-61 181 l-55 106 -114 53 -114 53 -7 96 c-11 170 -9 165 -68 189 -29 12 -55
22 -58 22 -2 0 -43 -46 -89 -102z"/>
</g>
</svg>
