<?xml version="1.0" standalone="no"?>
<!DOCTYPE svg PUBLIC "-//W3C//DTD SVG 20010904//EN"
 "http://www.w3.org/TR/2001/REC-SVG-20010904/DTD/svg10.dtd">
<svg version="1.0" xmlns="http://www.w3.org/2000/svg"
 width="129.000000pt" height="329.000000pt" viewBox="0 0 129.000000 329.000000"
 preserveAspectRatio="xMidYMid meet">
<metadata>
Created by potrace 1.14, written by Peter Selinger 2001-2017
</metadata>
<g transform="translate(0.000000,329.000000) scale(0.100000,-0.100000)"
fill="#000000" stroke="none">
<path fill="#000000" stroke="none" d="M18 2601 c3 -378 -1 -890 -7 -1138
l-12 -449 30 -67 c23 -51 41 -127 75 -320 41 -232 124 -567 148 -592 7 -8 248
-36 248 -29 0 1 -11 79 -25 174 -14 95 -25 173 -25 175 0 1 -27 -4 -60 -12
-34 -9 -64 -13 -67 -9 -10 10 15 385 32 471 8 44 18 143 21 220 l6 139 20 -38
c16 -32 22 -36 33 -25 23 26 256 339 261 353 4 10 -74 345 -102 439 -5 16 -2
16 44 -2 l49 -20 22 39 c11 21 21 43 21 50 0 7 -27 86 -59 174 -56 153 -174
405 -246 526 -18 30 -36 76 -39 101 l-7 46 41 7 c32 5 69 29 168 107 69 55
136 102 148 105 20 5 21 9 12 34 -9 26 -12 28 -39 18 -16 -5 -29 -14 -29 -19
0 -5 -6 -9 -12 -9 -7 0 -30 -5 -50 -10 -33 -10 -39 -17 -59 -69 l-21 -59 -76
-29 c-42 -15 -80 -29 -84 -31 -4 -2 -8 8 -8 23 0 27 -25 85 -37 85 -4 0 -14
-7 -23 -15 -16 -14 -17 -14 -13 8 4 19 -1 26 -26 37 -21 8 -67 59 -142 156
-61 79 -112 144 -113 144 -1 0 0 -310 2 -689z"/>
<path fill="#000000" stroke="none" d="M846 861 c-14 -15 -26 -60 -41 -159
-13 -75 -22 -138 -21 -139 1 -1 28 -5 59 -9 l57 -7 -1 34 c0 19 -8 94 -17 168
-17 133 -17 133 -36 112z"/>
<path fill="#000000" stroke="none" d="M756 420 c-4 -43 -4 -123 -1 -177 7
-95 9 -100 54 -170 l46 -73 128 0 127 0 81 40 c71 36 99 63 99 96 0 2 -20 4
-45 4 -37 0 -250 45 -263 56 -2 1 -21 66 -42 144 -22 79 -41 144 -42 145 -2 1
-33 5 -69 8 l-67 6 -6 -79z"/>
</g>
</svg>
