<?xml version="1.0" standalone="no"?>
<!DOCTYPE svg PUBLIC "-//W3C//DTD SVG 20010904//EN"
 "http://www.w3.org/TR/2001/REC-SVG-20010904/DTD/svg10.dtd">
<svg version="1.0" xmlns="http://www.w3.org/2000/svg"
 width="36.000000pt" height="102.000000pt" viewBox="0 0 36.000000 102.000000"
 preserveAspectRatio="xMidYMid meet">
<metadata>
Created by potrace 1.14, written by Peter Selinger 2001-2017
</metadata>
<g transform="translate(0.000000,102.000000) scale(0.100000,-0.100000)"
fill="#000000" stroke="none">
<path fill="#000000" stroke="none" d="M32 1009 c-36 -11 -37 -13 -22 -128 6
-48 19 -90 36 -118 19 -33 27 -64 31 -118 5 -67 3 -78 -21 -119 -24 -42 -25
-49 -15 -93 6 -26 15 -113 19 -193 9 -169 20 -212 56 -228 13 -7 26 -12 28
-12 9 0 47 95 62 152 15 61 19 68 41 68 40 0 102 37 109 66 12 48 -4 184 -26
221 -19 33 -19 36 -4 84 29 88 -7 195 -57 169 -30 -17 -62 -3 -54 23 3 12 8
47 11 77 4 44 1 61 -15 88 -40 62 -101 83 -179 61z"/>
</g>
</svg>
