<?xml version="1.0" standalone="no"?>
<!DOCTYPE svg PUBLIC "-//W3C//DTD SVG 20010904//EN"
 "http://www.w3.org/TR/2001/REC-SVG-20010904/DTD/svg10.dtd">
<svg version="1.0" xmlns="http://www.w3.org/2000/svg"
 width="112.000000pt" height="295.000000pt" viewBox="0 0 112.000000 295.000000"
 preserveAspectRatio="xMidYMid meet">
<metadata>
Created by potrace 1.14, written by Peter Selinger 2001-2017
</metadata>
<g transform="translate(0.000000,295.000000) scale(0.100000,-0.100000)"
fill="#000000" stroke="none">
<path fill="#000000" stroke="none" d="M512 2937 c-36 -8 -51 -20 -83 -63 -35
-48 -39 -59 -39 -112 0 -32 7 -81 15 -109 l15 -51 -158 -159 -157 -159 -53
-124 c-29 -68 -51 -124 -50 -125 2 0 21 -15 44 -33 l41 -31 -5 -280 c-5 -293
-3 -311 38 -311 9 0 38 11 64 25 l46 24 0 -37 c0 -44 8 -57 37 -66 25 -8 27
-12 48 -125 53 -286 65 -401 65 -607 l0 -205 43 -142 c24 -78 48 -157 53 -176
l9 -33 37 53 36 54 11 255 c5 142 21 346 35 460 36 293 56 599 45 685 -17 129
-18 129 -50 25 -32 -107 -36 -171 -14 -223 20 -48 19 -166 -1 -217 -13 -33
-21 -40 -44 -40 -69 0 -86 10 -113 66 l-27 54 10 173 c6 94 19 210 29 256 l19
83 -24 54 c-17 38 -24 73 -24 115 0 58 5 72 95 244 l96 183 110 103 110 102
-58 32 -58 32 -8 82 c-7 83 -34 151 -94 243 -28 41 -27 41 -91 25z"/>
<path fill="#000000" stroke="none" d="M950 530 c0 -275 1 -500 3 -500 1 0 39
-6 85 -14 l82 -13 0 97 c0 67 -11 157 -34 286 -66 366 -121 644 -128 644 -5 0
-8 -225 -8 -500z"/>
</g>
</svg>
