<?xml version="1.0" standalone="no"?>
<!DOCTYPE svg PUBLIC "-//W3C//DTD SVG 20010904//EN"
 "http://www.w3.org/TR/2001/REC-SVG-20010904/DTD/svg10.dtd">
<svg version="1.0" xmlns="http://www.w3.org/2000/svg"
 width="39.000000pt" height="91.000000pt" viewBox="0 0 39.000000 91.000000"
 preserveAspectRatio="xMidYMid meet">
<metadata>
Created by potrace 1.14, written by Peter Selinger 2001-2017
</metadata>
<g transform="translate(0.000000,91.000000) scale(0.100000,-0.100000)"
fill="#000000" stroke="none">
<path fill="#000000" stroke="none" d="M187 892 c-8 -9 -20 -30 -26 -46 -9
-22 -14 -26 -24 -17 -17 13 -37 -4 -37 -31 0 -11 -22 -41 -50 -69 -44 -44 -50
-55 -50 -91 0 -23 11 -70 26 -105 14 -37 22 -72 19 -84 -4 -10 -1 -43 5 -72
11 -47 10 -63 -9 -130 -21 -78 -27 -152 -13 -173 9 -15 74 -54 88 -54 8 0 14
30 17 83 6 87 31 245 42 255 4 4 6 -56 5 -133 -1 -77 -1 -145 -1 -151 1 -16
95 -74 120 -74 20 0 20 0 2 32 -17 30 -18 47 -11 183 5 83 9 171 9 197 1 39 7
53 36 84 50 53 59 95 36 175 -27 93 -40 117 -72 128 -25 8 -29 15 -29 45 0 25
-6 39 -22 50 -29 20 -41 20 -61 -2z"/>
</g>
</svg>
