<?xml version="1.0" standalone="no"?>
<!DOCTYPE svg PUBLIC "-//W3C//DTD SVG 20010904//EN"
 "http://www.w3.org/TR/2001/REC-SVG-20010904/DTD/svg10.dtd">
<svg version="1.0" xmlns="http://www.w3.org/2000/svg"
 width="16.000000pt" height="39.000000pt" viewBox="0 0 16.000000 39.000000"
 preserveAspectRatio="xMidYMid meet">
<metadata>
Created by potrace 1.14, written by Peter Selinger 2001-2017
</metadata>
<g transform="translate(0.000000,39.000000) scale(0.100000,-0.100000)"
fill="#000000" stroke="none">
<path fill="#000000" stroke="none" d="M6 381 c-3 -4 2 -23 12 -42 14 -28 15
-45 8 -98 -13 -94 21 -290 40 -225 3 12 16 26 29 32 42 19 65 44 56 61 -5 9
-9 62 -10 119 -1 89 -4 106 -23 132 -17 23 -24 27 -35 18 -10 -8 -17 -8 -25 0
-14 14 -44 16 -52 3z"/>
</g>
</svg>
