<?xml version="1.0" standalone="no"?>
<!DOCTYPE svg PUBLIC "-//W3C//DTD SVG 20010904//EN"
 "http://www.w3.org/TR/2001/REC-SVG-20010904/DTD/svg10.dtd">
<svg version="1.0" xmlns="http://www.w3.org/2000/svg"
 width="11.000000pt" height="28.000000pt" viewBox="0 0 11.000000 28.000000"
 preserveAspectRatio="xMidYMid meet">
<metadata>
Created by potrace 1.14, written by Peter Selinger 2001-2017
</metadata>
<g transform="translate(0.000000,28.000000) scale(0.100000,-0.100000)"
fill="#000000" stroke="none">
<path fill="#000000" stroke="none" d="M5 269 c-3 -9 0 -32 8 -51 9 -20 14
-66 14 -114 -1 -84 8 -117 24 -93 5 8 8 33 7 55 -1 26 5 52 16 69 13 20 16 33
8 49 -7 16 -5 28 10 49 21 29 16 32 -32 18 -19 -6 -28 -3 -37 13 -10 18 -12
19 -18 5z"/>
</g>
</svg>
