<?xml version="1.0" standalone="no"?>
<!DOCTYPE svg PUBLIC "-//W3C//DTD SVG 20010904//EN"
 "http://www.w3.org/TR/2001/REC-SVG-20010904/DTD/svg10.dtd">
<svg version="1.0" xmlns="http://www.w3.org/2000/svg"
 width="13.000000pt" height="34.000000pt" viewBox="0 0 13.000000 34.000000"
 preserveAspectRatio="xMidYMid meet">
<metadata>
Created by potrace 1.14, written by Peter Selinger 2001-2017
</metadata>
<g transform="translate(0.000000,34.000000) scale(0.100000,-0.100000)"
fill="#000000" stroke="none">
<path fill="#000000" stroke="none" d="M77 329 c-9 -6 -17 -19 -17 -29 0 -11
-9 -24 -20 -30 -24 -13 -25 -25 -5 -64 8 -16 16 -47 17 -69 1 -33 -3 -43 -25
-59 -26 -19 -38 -68 -17 -68 6 0 10 8 10 18 0 16 14 27 64 50 4 3 5 -14 1 -37
-7 -41 -2 -48 23 -32 12 7 13 26 13 201 0 47 -12 119 -20 124 -3 3 -14 0 -24
-5z"/>
</g>
</svg>
