<?xml version="1.0" standalone="no"?>
<!DOCTYPE svg PUBLIC "-//W3C//DTD SVG 20010904//EN"
 "http://www.w3.org/TR/2001/REC-SVG-20010904/DTD/svg10.dtd">
<svg version="1.0" xmlns="http://www.w3.org/2000/svg"
 width="109.000000pt" height="304.000000pt" viewBox="0 0 109.000000 304.000000"
 preserveAspectRatio="xMidYMid meet">
<metadata>
Created by potrace 1.14, written by Peter Selinger 2001-2017
</metadata>
<g transform="translate(0.000000,304.000000) scale(0.100000,-0.100000)"
fill="#000000" stroke="none">
<path fill="#000000" stroke="none" d="M535 2985 l-130 -53 -23 -183 c-12
-101 -24 -188 -26 -194 -2 -5 -83 -39 -180 -75 l-176 -65 0 -125 0 -125 67
-39 67 -39 134 67 c74 37 136 66 137 64 1 -2 15 -77 30 -167 l27 -164 -36 -84
c-36 -83 -37 -84 -43 -263 -5 -143 -4 -180 7 -180 9 0 10 -4 2 -13 -14 -16
-16 -711 -3 -857 6 -58 11 -125 13 -149 l2 -44 -79 -28 -80 -27 50 -1 50 -1
-38 -26 c-27 -18 -46 -24 -63 -20 -21 6 -24 3 -24 -23 0 -36 -14 -31 218 -75
l182 -35 60 36 c59 35 62 35 115 25 45 -9 59 -8 87 6 18 9 52 16 76 16 23 -1
42 2 42 5 0 3 -9 63 -19 133 -18 118 -18 134 -4 215 l15 88 -39 169 -39 170
88 275 89 276 -8 135 -8 134 -58 -92 c-72 -114 -86 -123 -135 -88 -77 53 -186
141 -189 152 -2 7 28 24 69 40 43 17 92 46 120 71 26 23 68 54 94 69 46 27 48
27 76 11 l30 -17 -6 37 c-3 21 -13 97 -21 168 -17 139 -77 424 -93 434 -169
110 -169 110 -191 169 -12 31 -41 121 -64 199 l-42 141 -130 -53z"/>
<path fill="#000000" stroke="none" d="M390 58 c3 -3 34 -18 69 -33 55 -23 66
-25 78 -12 13 12 7 16 -44 26 -32 6 -69 14 -83 18 -14 3 -23 4 -20 1z"/>
</g>
</svg>
