<?xml version="1.0" standalone="no"?>
<!DOCTYPE svg PUBLIC "-//W3C//DTD SVG 20010904//EN"
 "http://www.w3.org/TR/2001/REC-SVG-20010904/DTD/svg10.dtd">
<svg version="1.0" xmlns="http://www.w3.org/2000/svg"
 width="15.000000pt" height="39.000000pt" viewBox="0 0 15.000000 39.000000"
 preserveAspectRatio="xMidYMid meet">
<metadata>
Created by potrace 1.14, written by Peter Selinger 2001-2017
</metadata>
<g transform="translate(0.000000,39.000000) scale(0.100000,-0.100000)"
fill="#000000" stroke="none">
<path fill="#000000" stroke="none" d="M57 383 c-4 -3 -7 -17 -7 -30 0 -12 -8
-31 -18 -41 -30 -30 -33 -51 -16 -115 14 -55 14 -66 0 -123 -9 -35 -16 -65
-16 -67 0 -3 15 -2 32 2 28 6 33 12 36 38 2 17 10 37 18 44 14 11 15 7 9 -35
-7 -45 -6 -47 11 -38 46 25 50 185 7 280 -9 20 -17 44 -18 52 -1 8 -3 21 -4
28 -1 13 -23 16 -34 5z"/>
</g>
</svg>
