<?xml version="1.0" standalone="no"?>
<!DOCTYPE svg PUBLIC "-//W3C//DTD SVG 20010904//EN"
 "http://www.w3.org/TR/2001/REC-SVG-20010904/DTD/svg10.dtd">
<svg version="1.0" xmlns="http://www.w3.org/2000/svg"
 width="26.000000pt" height="59.000000pt" viewBox="0 0 26.000000 59.000000"
 preserveAspectRatio="xMidYMid meet">
<metadata>
Created by potrace 1.14, written by Peter Selinger 2001-2017
</metadata>
<g transform="translate(0.000000,59.000000) scale(0.100000,-0.100000)"
fill="#000000" stroke="none">
<path fill="#000000" stroke="none" d="M32 574 c-19 -13 -22 -24 -22 -81 0
-47 5 -72 16 -84 14 -16 14 -18 -7 -29 -21 -12 -21 -16 -15 -94 4 -44 8 -126
9 -181 l2 -100 34 -3 c19 -2 45 -1 58 3 29 7 63 60 63 97 0 15 11 44 25 64 17
25 25 50 25 81 0 24 9 61 20 83 27 52 25 91 -5 148 -14 26 -25 52 -25 59 0 6
-12 21 -26 32 -33 26 -118 29 -152 5z"/>
</g>
</svg>
