<?xml version="1.0" standalone="no"?>
<!DOCTYPE svg PUBLIC "-//W3C//DTD SVG 20010904//EN"
 "http://www.w3.org/TR/2001/REC-SVG-20010904/DTD/svg10.dtd">
<svg version="1.0" xmlns="http://www.w3.org/2000/svg"
 width="15.000000pt" height="37.000000pt" viewBox="0 0 15.000000 37.000000"
 preserveAspectRatio="xMidYMid meet">
<metadata>
Created by potrace 1.14, written by Peter Selinger 2001-2017
</metadata>
<g transform="translate(0.000000,37.000000) scale(0.100000,-0.100000)"
fill="#000000" stroke="none">
<path fill="#000000" stroke="none" d="M17 352 c-19 -23 -9 -311 13 -337 13
-15 15 -15 26 -1 7 10 10 36 7 64 l-5 47 20 -30 c24 -39 48 -58 62 -50 16 10
12 25 -15 57 -21 25 -25 40 -25 95 0 48 -6 80 -22 114 -26 55 -40 65 -61 41z"/>
</g>
</svg>
