<?xml version="1.0" standalone="no"?>
<!DOCTYPE svg PUBLIC "-//W3C//DTD SVG 20010904//EN"
 "http://www.w3.org/TR/2001/REC-SVG-20010904/DTD/svg10.dtd">
<svg version="1.0" xmlns="http://www.w3.org/2000/svg"
 width="167.000000pt" height="470.000000pt" viewBox="0 0 167.000000 470.000000"
 preserveAspectRatio="xMidYMid meet">
<metadata>
Created by potrace 1.14, written by Peter Selinger 2001-2017
</metadata>
<g transform="translate(0.000000,470.000000) scale(0.100000,-0.100000)"
fill="#000000" stroke="none">
<path fill="#000000" stroke="none" d="M713 4661 l-201 -36 -139 -105 -139
-105 -68 -130 c-66 -128 -67 -132 -88 -274 -19 -131 -20 -152 -8 -240 7 -53
16 -105 20 -116 5 -11 34 -48 65 -83 53 -58 56 -64 50 -100 -11 -66 -13 -67
-106 -54 -45 7 -83 11 -84 9 -1 -1 -6 -768 -9 -1703 l-7 -1701 323 -7 c770
-15 1218 -18 1218 -10 0 5 -8 21 -17 34 -84 118 -85 121 -99 320 -8 102 -28
355 -45 562 l-31 378 39 49 c56 73 62 75 173 52 52 -11 97 -18 99 -16 1 2 -45
66 -103 141 -58 76 -106 143 -106 150 0 7 4 23 9 36 6 17 1 65 -18 159 l-27
135 17 79 c10 44 18 95 18 113 1 35 21 64 131 186 102 113 96 96 61 163 -79
153 -111 190 -227 267 -111 73 -105 70 -422 172 -10 3 -12 24 -9 86 6 111 9
120 56 217 27 55 62 105 103 150 88 92 160 189 152 202 -3 6 9 44 27 85 l34
73 46 1 c46 0 46 1 90 68 l45 67 -22 155 c-21 155 -21 155 -89 291 l-68 136
-191 78 c-105 43 -204 84 -221 90 -25 10 -61 7 -232 -24z"/>
</g>
</svg>
