<?xml version="1.0" standalone="no"?>
<!DOCTYPE svg PUBLIC "-//W3C//DTD SVG 20010904//EN"
 "http://www.w3.org/TR/2001/REC-SVG-20010904/DTD/svg10.dtd">
<svg version="1.0" xmlns="http://www.w3.org/2000/svg"
 width="192.000000pt" height="431.000000pt" viewBox="0 0 192.000000 431.000000"
 preserveAspectRatio="xMidYMid meet">
<metadata>
Created by potrace 1.14, written by Peter Selinger 2001-2017
</metadata>
<g transform="translate(0.000000,431.000000) scale(0.100000,-0.100000)"
fill="#000000" stroke="none">
<path fill="#000000" stroke="none" d="M1052 4300 c-187 -9 -153 7 -309 -145
l-83 -80 0 -119 0 -120 50 -83 c50 -80 51 -83 53 -169 l2 -87 -254 -142 -253
-141 -74 -229 c-59 -185 -71 -232 -61 -244 7 -9 8 -12 1 -8 -12 7 -39 -48 -48
-98 -5 -27 -3 -26 14 10 10 22 19 46 19 54 1 8 3 12 6 9 3 -2 -22 -128 -55
-279 l-60 -274 21 -95 c40 -185 23 -162 150 -205 89 -30 139 -41 241 -50 70
-7 131 -14 133 -17 3 -2 -5 -32 -16 -66 l-21 -62 -48 0 -48 0 -17 -98 c-9 -53
-57 -299 -106 -547 -83 -418 -88 -451 -72 -463 9 -7 71 -43 136 -80 94 -52
123 -74 132 -97 7 -16 43 -108 80 -202 l68 -173 392 0 393 0 6 23 c3 12 6 30
6 40 0 10 16 43 35 73 19 30 35 67 35 82 0 27 52 80 121 126 15 9 38 34 52 54
24 36 25 41 30 287 l5 250 42 154 c41 151 43 155 106 235 l65 81 -4 245 c-5
337 -48 902 -89 1159 l-33 204 -80 88 c-44 48 -116 120 -160 160 -44 40 -99
98 -122 128 l-41 55 19 28 c13 18 18 35 13 52 -9 39 14 123 57 205 l39 73 -26
189 c-15 103 -30 192 -33 197 -7 12 -228 123 -238 120 -5 0 -81 -4 -171 -8z"/>
<path fill="#ffffff" stroke="none" d="M665 3030 l-33 -45 25 -65 25 -65 -5
-298 c-3 -165 -8 -301 -10 -304 -6 -6 -139 -24 -143 -20 -2 2 5 53 16 113 15
83 70 721 70 808 0 8 20 -6 44 -32 l44 -47 -33 -45z"/>
<path fill="#ffffff" stroke="none" d="M1508 2708 l115 -11 -6 -136 c-5 -125
-8 -142 -38 -208 l-32 -73 -98 -2 c-55 -1 -113 -2 -131 -2 -30 -1 -33 2 -50
59 -23 73 -20 90 32 255 47 150 24 137 208 118z"/>
<path fill="#ffffff" stroke="none" d="M1420 1904 c0 -18 14 -31 65 -59 36
-20 65 -43 65 -50 0 -16 -104 -28 -168 -20 -55 8 -132 34 -132 46 0 4 22 20
49 35 46 26 49 30 44 60 l-5 32 41 -10 c33 -8 41 -15 41 -34z"/>
</g>
</svg>
