<?xml version="1.0" standalone="no"?>
<!DOCTYPE svg PUBLIC "-//W3C//DTD SVG 20010904//EN"
 "http://www.w3.org/TR/2001/REC-SVG-20010904/DTD/svg10.dtd">
<svg version="1.0" xmlns="http://www.w3.org/2000/svg"
 width="33.000000pt" height="91.000000pt" viewBox="0 0 33.000000 91.000000"
 preserveAspectRatio="xMidYMid meet">
<metadata>
Created by potrace 1.14, written by Peter Selinger 2001-2017
</metadata>
<g transform="translate(0.000000,91.000000) scale(0.100000,-0.100000)"
fill="#000000" stroke="none">
<path fill="#000000" stroke="none" d="M144 889 c-12 -14 -17 -34 -16 -67 2
-46 1 -47 -38 -65 -52 -24 -70 -60 -70 -139 0 -51 5 -70 25 -100 21 -32 24
-44 19 -80 -4 -24 -17 -59 -30 -78 -28 -44 -43 -150 -21 -150 8 0 27 19 43 43
l29 42 9 -132 9 -133 28 0 c29 0 29 1 29 59 0 32 3 86 6 120 6 50 9 59 20 50
10 -8 14 -41 14 -119 0 -120 10 -140 67 -140 47 0 52 39 18 139 -25 77 -26 79
-8 122 12 31 17 77 19 159 1 63 9 139 17 167 8 31 12 75 9 104 -4 43 -10 54
-43 81 -31 25 -36 33 -27 48 16 24 -1 48 -50 70 -39 18 -41 18 -58 -1z"/>
</g>
</svg>
