<?xml version="1.0" standalone="no"?>
<!DOCTYPE svg PUBLIC "-//W3C//DTD SVG 20010904//EN"
 "http://www.w3.org/TR/2001/REC-SVG-20010904/DTD/svg10.dtd">
<svg version="1.0" xmlns="http://www.w3.org/2000/svg"
 width="27.000000pt" height="64.000000pt" viewBox="0 0 27.000000 64.000000"
 preserveAspectRatio="xMidYMid meet">
<metadata>
Created by potrace 1.14, written by Peter Selinger 2001-2017
</metadata>
<g transform="translate(0.000000,64.000000) scale(0.100000,-0.100000)"
fill="#000000" stroke="none">
<path fill="#000000" stroke="none" d="M85 620 c-11 -13 -16 -30 -13 -50 3
-16 1 -30 -4 -30 -5 0 -22 -28 -39 -62 -26 -56 -29 -70 -23 -123 7 -65 17 -85
44 -85 35 0 43 -25 25 -74 l-17 -45 78 -75 c44 -40 80 -73 81 -72 2 2 -8 39
-21 84 -14 44 -28 102 -31 129 -4 26 -16 77 -26 112 -11 35 -18 66 -16 68 2 2
33 8 68 14 35 6 67 14 71 18 4 4 -14 34 -41 67 -38 47 -48 66 -44 87 4 22 0
28 -32 41 -45 19 -38 20 -60 -4z"/>
</g>
</svg>
