<?xml version="1.0" standalone="no"?>
<!DOCTYPE svg PUBLIC "-//W3C//DTD SVG 20010904//EN"
 "http://www.w3.org/TR/2001/REC-SVG-20010904/DTD/svg10.dtd">
<svg version="1.0" xmlns="http://www.w3.org/2000/svg"
 width="172.000000pt" height="442.000000pt" viewBox="0 0 172.000000 442.000000"
 preserveAspectRatio="xMidYMid meet">
<metadata>
Created by potrace 1.14, written by Peter Selinger 2001-2017
</metadata>
<g transform="translate(0.000000,442.000000) scale(0.100000,-0.100000)"
fill="#000000" stroke="none">
<path fill="#000000" stroke="none" d="M730 4411 c-68 -10 -110 -39 -149 -105
-30 -50 -35 -69 -39 -139 -3 -45 -10 -85 -15 -89 -8 -4 -5 -13 7 -27 11 -13
21 -47 27 -98 15 -122 27 -173 50 -205 12 -16 18 -33 13 -37 -31 -27 -116 -81
-127 -81 -22 0 -77 -39 -77 -55 0 -9 -15 -29 -33 -45 -33 -28 -96 -148 -102
-193 -12 -87 -50 -239 -69 -274 l-16 -32 45 -7 c25 -3 45 -10 45 -14 0 -19
-55 -152 -90 -215 -27 -49 -46 -105 -65 -190 -26 -118 -96 -360 -114 -393 -5
-9 -12 -100 -15 -202 l-7 -185 36 -38 c20 -21 40 -35 45 -32 5 3 7 27 3 52 -3
27 -2 44 3 41 5 -3 19 -2 31 3 22 8 22 12 19 137 -2 74 -8 138 -15 151 -11 19
-7 32 30 99 23 42 75 126 116 187 90 131 126 201 143 275 14 62 24 94 72 227
29 81 36 93 60 99 22 4 28 11 28 32 l0 26 34 -33 c28 -27 35 -42 40 -91 10
-87 32 -163 76 -262 38 -85 38 -89 29 -154 -9 -62 -7 -73 17 -134 25 -64 25
-69 10 -98 -9 -17 -16 -46 -16 -65 0 -19 -6 -40 -14 -46 -11 -9 -10 -29 9
-119 20 -98 63 -230 84 -256 4 -6 11 -21 14 -34 8 -34 -37 -467 -80 -759 l-16
-112 26 -40 c16 -23 42 -46 67 -57 l40 -18 0 -64 c0 -36 -5 -94 -12 -129 -10
-54 -17 -70 -44 -91 -29 -23 -31 -27 -22 -61 5 -20 13 -39 16 -42 4 -4 63 -9
130 -13 l124 -6 -7 68 c-29 322 -3 518 85 642 11 15 20 42 20 58 0 60 19 41
36 -34 13 -60 16 -108 12 -221 -5 -143 -5 -145 18 -160 13 -8 42 -17 65 -20
l41 -6 -4 -97 c-2 -54 -8 -104 -14 -111 -6 -8 -14 -65 -17 -127 -7 -112 -6
-114 20 -148 20 -27 27 -51 33 -110 4 -41 9 -76 11 -78 66 -50 79 -56 121 -56
71 0 108 11 125 37 23 34 20 99 -5 126 -11 12 -27 40 -36 61 -9 22 -25 46 -36
53 -34 24 -63 94 -71 168 -6 56 -2 93 17 185 24 116 33 133 88 165 14 8 19 37
27 173 9 160 10 163 42 208 l32 46 -1 123 c-2 113 0 124 17 128 23 6 25 41 4
94 -8 23 -16 91 -19 168 -16 376 -27 596 -34 634 -4 23 -4 108 0 189 4 84 3
162 -3 182 -12 46 -12 260 0 260 5 0 21 4 34 9 l25 10 -35 92 c-29 80 -35 107
-38 197 -4 126 -38 259 -70 274 -11 5 -38 32 -59 60 -32 41 -55 58 -130 93
-54 25 -114 63 -149 93 -61 55 -147 89 -192 78 -32 -8 -42 12 -12 23 13 5 27
17 31 26 8 22 8 165 -1 165 -3 0 -15 -7 -25 -17 -17 -15 -18 -14 -18 34 0 160
-51 250 -153 272 -51 12 -57 12 -127 2z"/>
<path fill="#000000" stroke="none" d="M550 411 c-31 -8 -39 -54 -16 -80 18
-20 109 -45 145 -40 23 4 21 7 -30 66 -30 35 -58 63 -64 62 -5 -1 -21 -4 -35
-8z"/>
</g>
</svg>
