<?xml version="1.0" standalone="no"?>
<!DOCTYPE svg PUBLIC "-//W3C//DTD SVG 20010904//EN"
 "http://www.w3.org/TR/2001/REC-SVG-20010904/DTD/svg10.dtd">
<svg version="1.0" xmlns="http://www.w3.org/2000/svg"
 width="123.000000pt" height="328.000000pt" viewBox="0 0 123.000000 328.000000"
 preserveAspectRatio="xMidYMid meet">
<metadata>
Created by potrace 1.14, written by Peter Selinger 2001-2017
</metadata>
<g transform="translate(0.000000,328.000000) scale(0.100000,-0.100000)"
fill="#000000" stroke="none">
<path fill="#000000" stroke="none" d="M355 3268 c-55 -152 -57 -173 -36 -345
l19 -148 55 -81 c62 -89 72 -132 43 -175 l-17 -27 -62 15 c-88 20 -86 20 -148
-17 -66 -39 -95 -89 -139 -240 -15 -52 -37 -119 -49 -148 -11 -29 -21 -59 -21
-67 0 -23 27 -42 68 -49 l40 -6 -5 -187 c-2 -104 -11 -231 -19 -283 -31 -206
-67 -682 -53 -710 4 -8 26 -83 48 -167 31 -115 41 -169 41 -227 0 -72 41 -278
60 -299 7 -8 295 -96 315 -97 15 0 45 80 45 120 0 22 13 54 34 87 l33 52 53
-119 c39 -86 59 -120 74 -124 29 -8 150 -6 213 3 39 5 67 3 114 -12 33 -10 63
-16 66 -14 2 3 -7 65 -21 138 -14 74 -35 220 -47 326 l-21 192 51 85 c49 81
53 91 68 203 10 74 17 212 18 373 3 214 7 282 29 425 l26 170 -57 286 -58 287
-78 6 c-76 6 -80 8 -141 60 -35 29 -86 61 -115 72 -39 14 -56 26 -62 44 -5 14
-13 32 -18 41 -5 9 -10 119 -10 245 -1 204 -2 230 -18 241 -9 7 -26 13 -38 13
-12 0 -36 16 -55 35 l-34 35 -93 0 c-66 0 -95 -4 -98 -12z"/>
</g>
</svg>
