<?xml version="1.0" standalone="no"?>
<!DOCTYPE svg PUBLIC "-//W3C//DTD SVG 20010904//EN"
 "http://www.w3.org/TR/2001/REC-SVG-20010904/DTD/svg10.dtd">
<svg version="1.0" xmlns="http://www.w3.org/2000/svg"
 width="46.000000pt" height="123.000000pt" viewBox="0 0 46.000000 123.000000"
 preserveAspectRatio="xMidYMid meet">
<metadata>
Created by potrace 1.14, written by Peter Selinger 2001-2017
</metadata>
<g transform="translate(0.000000,123.000000) scale(0.100000,-0.100000)"
fill="#000000" stroke="none">
<path fill="#000000" stroke="none" d="M179 1182 c-14 -32 -19 -60 -16 -89 4
-40 2 -45 -42 -85 -25 -24 -62 -55 -81 -69 l-35 -27 -3 -211 c-4 -257 5 -321
56 -419 l39 -74 -12 -77 c-7 -43 -11 -90 -8 -104 5 -27 6 -27 93 -27 139 0
147 3 167 67 l17 55 42 -4 42 -3 6 50 c7 60 -7 314 -25 444 l-12 94 26 19 c25
18 27 26 27 86 0 58 -5 77 -37 139 -21 40 -46 75 -55 79 -19 6 -38 61 -38 110
0 40 -43 80 -93 87 -38 6 -38 5 -58 -41z"/>
</g>
</svg>
