<?xml version="1.0" standalone="no"?>
<!DOCTYPE svg PUBLIC "-//W3C//DTD SVG 20010904//EN"
 "http://www.w3.org/TR/2001/REC-SVG-20010904/DTD/svg10.dtd">
<svg version="1.0" xmlns="http://www.w3.org/2000/svg"
 width="9.000000pt" height="24.000000pt" viewBox="0 0 9.000000 24.000000"
 preserveAspectRatio="xMidYMid meet">
<metadata>
Created by potrace 1.14, written by Peter Selinger 2001-2017
</metadata>
<g transform="translate(0.000000,24.000000) scale(0.100000,-0.100000)"
fill="#000000" stroke="none">
<path fill="#000000" stroke="none" d="M13 233 c-14 -5 -17 -66 -6 -151 5 -44
9 -52 23 -47 12 4 19 -1 23 -16 11 -43 32 -14 35 49 2 49 0 64 -13 68 -20 8
-19 33 1 41 9 3 12 9 7 12 -4 3 -13 15 -19 26 -12 21 -30 27 -51 18z"/>
</g>
</svg>
