<?xml version="1.0" standalone="no"?>
<!DOCTYPE svg PUBLIC "-//W3C//DTD SVG 20010904//EN"
 "http://www.w3.org/TR/2001/REC-SVG-20010904/DTD/svg10.dtd">
<svg version="1.0" xmlns="http://www.w3.org/2000/svg"
 width="118.000000pt" height="334.000000pt" viewBox="0 0 118.000000 334.000000"
 preserveAspectRatio="xMidYMid meet">
<metadata>
Created by potrace 1.14, written by Peter Selinger 2001-2017
</metadata>
<g transform="translate(0.000000,334.000000) scale(0.100000,-0.100000)"
fill="#000000" stroke="none">
<path fill="#000000" stroke="none" d="M515 3329 c-61 -8 -74 -13 -97 -40
l-26 -31 19 -56 c17 -51 18 -67 9 -149 -5 -51 -10 -96 -10 -101 0 -5 14 -15
30 -22 17 -7 30 -15 30 -18 0 -4 -22 -29 -49 -57 -47 -49 -50 -54 -78 -175
-28 -121 -28 -130 -19 -263 l9 -138 -104 -108 -104 -109 -62 -1 -63 -1 0 -32
0 -33 63 0 c51 0 69 -5 103 -28 l42 -28 44 48 c24 26 63 68 85 93 l41 45 6
-45 c3 -25 8 -87 11 -138 l7 -92 -37 -65 c-33 -59 -36 -87 -5 -50 17 20 50 19
50 -2 0 -9 7 -24 15 -33 13 -14 10 -34 -30 -176 -64 -226 -85 -358 -85 -538 0
-137 1 -148 18 -141 9 4 51 19 93 35 l76 27 26 -171 c15 -94 27 -176 27 -183
0 -7 -31 -30 -68 -52 -62 -36 -69 -44 -83 -89 -14 -43 -14 -52 -2 -76 8 -15
12 -34 9 -42 -3 -8 -2 -14 2 -14 8 0 385 131 391 136 2 2 -28 80 -67 175 l-72
171 32 139 c20 83 35 132 39 122 3 -10 12 -63 19 -118 l13 -100 56 -58 55 -58
23 -166 23 -166 -95 -151 c-55 -88 -95 -163 -95 -178 l0 -25 114 1 115 1 67
119 67 119 -15 41 c-13 36 -12 66 1 252 l16 210 42 51 42 50 -19 104 c-11 57
-35 220 -53 362 l-33 257 34 73 34 72 -15 471 -16 471 -48 98 -49 97 -114 47
-114 47 -22 100 c-12 54 -29 134 -38 177 -17 74 -19 78 -56 97 -42 22 -49 22
-155 9z"/>
</g>
</svg>
