<?xml version="1.0" standalone="no"?>
<!DOCTYPE svg PUBLIC "-//W3C//DTD SVG 20010904//EN"
 "http://www.w3.org/TR/2001/REC-SVG-20010904/DTD/svg10.dtd">
<svg version="1.0" xmlns="http://www.w3.org/2000/svg"
 width="57.000000pt" height="135.000000pt" viewBox="0 0 57.000000 135.000000"
 preserveAspectRatio="xMidYMid meet">
<metadata>
Created by potrace 1.14, written by Peter Selinger 2001-2017
</metadata>
<g transform="translate(0.000000,135.000000) scale(0.100000,-0.100000)"
fill="#000000" stroke="none">
<path fill="#000000" stroke="none" d="M0 964 l0 -390 119 -125 c117 -123 220
-266 283 -391 l28 -58 68 41 c37 23 68 43 70 44 2 2 -20 66 -49 142 -46 122
-57 142 -91 168 -34 26 -50 54 -120 215 -80 183 -81 186 -164 272 -46 48 -84
93 -84 100 -1 33 -49 361 -54 366 -3 3 -6 -170 -6 -384z"/>
</g>
</svg>
