<?xml version="1.0" standalone="no"?>
<!DOCTYPE svg PUBLIC "-//W3C//DTD SVG 20010904//EN"
 "http://www.w3.org/TR/2001/REC-SVG-20010904/DTD/svg10.dtd">
<svg version="1.0" xmlns="http://www.w3.org/2000/svg"
 width="28.000000pt" height="65.000000pt" viewBox="0 0 28.000000 65.000000"
 preserveAspectRatio="xMidYMid meet">
<metadata>
Created by potrace 1.14, written by Peter Selinger 2001-2017
</metadata>
<g transform="translate(0.000000,65.000000) scale(0.100000,-0.100000)"
fill="#000000" stroke="none">
<path fill="#000000" stroke="none" d="M91 637 c-6 -6 -11 -23 -11 -38 0 -14
-8 -37 -18 -50 -62 -82 -77 -193 -40 -304 18 -57 20 -75 11 -131 -10 -73 -5
-87 40 -104 37 -13 50 -5 42 29 -5 23 3 83 34 239 l6 33 34 -35 c19 -20 41
-36 48 -36 18 0 46 47 37 62 -25 43 -68 88 -85 88 -30 0 -41 79 -21 155 8 29
8 46 -1 64 -14 28 -59 45 -76 28z"/>
</g>
</svg>
