<?xml version="1.0" standalone="no"?>
<!DOCTYPE svg PUBLIC "-//W3C//DTD SVG 20010904//EN"
 "http://www.w3.org/TR/2001/REC-SVG-20010904/DTD/svg10.dtd">
<svg version="1.0" xmlns="http://www.w3.org/2000/svg"
 width="89.000000pt" height="216.000000pt" viewBox="0 0 89.000000 216.000000"
 preserveAspectRatio="xMidYMid meet">
<metadata>
Created by potrace 1.14, written by Peter Selinger 2001-2017
</metadata>
<g transform="translate(0.000000,216.000000) scale(0.100000,-0.100000)"
fill="#000000" stroke="none">
<path fill="#000000" stroke="none" d="M168 2146 c-82 -30 -140 -94 -154 -169
-10 -52 -8 -69 13 -135 14 -42 15 -57 5 -72 -15 -24 6 -48 50 -57 20 -4 33
-15 39 -32 6 -14 19 -35 29 -46 10 -11 20 -31 22 -45 3 -22 9 -26 53 -31 28
-4 65 -13 81 -22 17 -9 52 -21 79 -28 39 -10 50 -18 61 -44 36 -88 24 -172
-43 -282 -18 -31 -30 -59 -26 -63 4 -4 60 -21 123 -40 161 -46 199 -62 246
-106 22 -22 61 -53 86 -71 l45 -32 6 112 c5 111 -13 340 -33 425 -13 55 -140
210 -179 218 -14 3 -51 14 -81 25 -30 11 -60 21 -67 23 -6 1 -27 11 -47 21
-46 25 -62 68 -57 156 2 41 -1 69 -8 73 -6 4 -11 22 -11 39 0 52 -42 129 -87
160 -49 34 -96 42 -145 23z"/>
<path fill="#000000" stroke="none" d="M443 367 c-43 -88 -212 -277 -249 -277
-25 0 -10 -23 22 -32 16 -5 51 -7 79 -4 43 5 53 2 77 -20 25 -25 31 -26 92
-19 66 7 66 7 67 38 1 76 36 83 46 8 5 -36 9 -41 32 -41 14 0 41 -4 58 -9 l33
-10 -34 44 c-24 33 -37 65 -50 127 -32 149 -35 157 -92 199 -29 21 -55 39 -57
39 -1 0 -12 -19 -24 -43z"/>
</g>
</svg>
