<?xml version="1.0" standalone="no"?>
<!DOCTYPE svg PUBLIC "-//W3C//DTD SVG 20010904//EN"
 "http://www.w3.org/TR/2001/REC-SVG-20010904/DTD/svg10.dtd">
<svg version="1.0" xmlns="http://www.w3.org/2000/svg"
 width="111.000000pt" height="294.000000pt" viewBox="0 0 111.000000 294.000000"
 preserveAspectRatio="xMidYMid meet">
<metadata>
Created by potrace 1.14, written by Peter Selinger 2001-2017
</metadata>
<g transform="translate(0.000000,294.000000) scale(0.100000,-0.100000)"
fill="#000000" stroke="none">
<path fill="#000000" stroke="none" d="M340 2888 c0 -36 3 -48 9 -39 8 12 23
6 82 -33 l72 -48 61 12 c34 6 69 13 78 16 15 4 87 89 112 132 6 9 -38 12 -203
12 l-211 0 0 -52z"/>
<path fill="#000000" stroke="none" d="M480 2729 c-36 -5 -92 -11 -126 -13
-44 -3 -89 -16 -171 -52 l-111 -49 -38 -190 -37 -190 36 -124 c20 -68 39 -126
41 -128 2 -2 44 16 92 40 88 45 89 46 138 129 27 45 56 93 64 105 13 22 11 24
-72 65 l-87 43 3 98 3 99 87 55 88 56 87 -22 c49 -12 163 -43 255 -68 186 -52
172 -37 129 -135 l-20 -48 -69 0 c-38 0 -97 -3 -131 -6 l-61 -7 0 -43 0 -42
-27 13 c-16 8 -40 17 -55 20 -28 7 -28 7 -28 -41 0 -27 -4 -44 -8 -37 -4 7
-26 -19 -57 -69 -44 -70 -63 -89 -159 -160 l-108 -79 6 -52 c20 -178 48 -660
59 -1002 10 -317 10 -437 1 -580 -7 -99 -13 -198 -13 -220 l-1 -41 118 -23
c64 -13 127 -26 140 -29 l22 -4 0 208 c0 156 8 300 32 568 l32 358 34 -129 34
-130 -34 -351 -34 -352 83 -55 c46 -30 85 -55 87 -55 2 0 30 41 62 91 l57 91
-6 136 c-5 110 -1 176 18 337 14 110 29 227 35 260 5 33 10 96 10 140 0 44 13
159 28 256 l28 175 -17 105 c-10 57 -18 159 -18 226 -1 176 -10 191 -153 268
-168 92 -168 105 2 46 98 -34 166 -65 214 -97 78 -52 71 -55 123 34 24 40 25
49 21 160 -3 106 -7 128 -43 231 -29 81 -50 125 -75 152 -33 37 -40 40 -130
54 -102 16 -275 18 -380 4z"/>
</g>
</svg>
