<?xml version="1.0" standalone="no"?>
<!DOCTYPE svg PUBLIC "-//W3C//DTD SVG 20010904//EN"
 "http://www.w3.org/TR/2001/REC-SVG-20010904/DTD/svg10.dtd">
<svg version="1.0" xmlns="http://www.w3.org/2000/svg"
 width="18.000000pt" height="45.000000pt" viewBox="0 0 18.000000 45.000000"
 preserveAspectRatio="xMidYMid meet">
<metadata>
Created by potrace 1.14, written by Peter Selinger 2001-2017
</metadata>
<g transform="translate(0.000000,45.000000) scale(0.100000,-0.100000)"
fill="#000000" stroke="none">
<path fill="#000000" stroke="none" d="M73 443 c-7 -2 -13 -15 -13 -28 0 -12
-7 -28 -16 -35 -8 -8 -22 -29 -29 -48 -16 -36 -11 -55 22 -85 17 -15 20 -31
20 -123 0 -79 4 -108 14 -115 25 -15 29 -10 29 36 0 33 4 45 15 45 10 0 15
-10 15 -33 0 -38 6 -48 25 -41 9 4 10 15 4 42 -6 30 -23 235 -21 267 1 6 10
12 22 15 21 5 19 8 -21 58 -23 28 -45 52 -48 51 -3 0 -12 -3 -18 -6z"/>
</g>
</svg>
