<?xml version="1.0" standalone="no"?>
<!DOCTYPE svg PUBLIC "-//W3C//DTD SVG 20010904//EN"
 "http://www.w3.org/TR/2001/REC-SVG-20010904/DTD/svg10.dtd">
<svg version="1.0" xmlns="http://www.w3.org/2000/svg"
 width="41.000000pt" height="101.000000pt" viewBox="0 0 41.000000 101.000000"
 preserveAspectRatio="xMidYMid meet">
<metadata>
Created by potrace 1.14, written by Peter Selinger 2001-2017
</metadata>
<g transform="translate(0.000000,101.000000) scale(0.100000,-0.100000)"
fill="#000000" stroke="none">
<path fill="#000000" stroke="none" d="M276 997 c-31 -9 -46 -22 -71 -62 -18
-27 -36 -66 -40 -85 -16 -76 -79 -216 -112 -251 -46 -48 -57 -98 -38 -166 11
-38 25 -60 50 -80 30 -24 35 -34 35 -70 0 -39 19 -143 40 -225 l10 -36 80 5
c64 5 84 3 105 -11 24 -16 25 -15 25 2 0 10 -7 41 -15 67 -24 81 -30 248 -12
340 9 44 21 123 27 175 6 52 18 122 25 156 24 105 22 144 -11 202 -30 55 -35
56 -98 39z"/>
<path fill="#ffffff" stroke="none" d="M251 770 c32 -18 24 -74 -26 -170 -24
-47 -44 -82 -44 -77 -1 4 17 43 39 87 22 44 40 90 40 103 0 26 -17 52 -40 60
-10 4 -11 6 -2 6 7 1 22 -4 33 -9z"/>
<path fill="#ffffff" stroke="none" d="M131 564 c-5 -34 -6 -76 -2 -95 8 -35
-6 -109 -19 -109 -38 0 -66 43 -71 107 -3 37 3 49 45 103 26 34 49 60 51 58 2
-2 0 -31 -4 -64z"/>
</g>
</svg>
