<?xml version="1.0" standalone="no"?>
<!DOCTYPE svg PUBLIC "-//W3C//DTD SVG 20010904//EN"
 "http://www.w3.org/TR/2001/REC-SVG-20010904/DTD/svg10.dtd">
<svg version="1.0" xmlns="http://www.w3.org/2000/svg"
 width="26.000000pt" height="69.000000pt" viewBox="0 0 26.000000 69.000000"
 preserveAspectRatio="xMidYMid meet">
<metadata>
Created by potrace 1.14, written by Peter Selinger 2001-2017
</metadata>
<g transform="translate(0.000000,69.000000) scale(0.100000,-0.100000)"
fill="#000000" stroke="none">
<path fill="#000000" stroke="none" d="M4 588 c3 -57 9 -160 13 -231 l6 -127
37 -10 c33 -9 39 -16 49 -53 9 -30 9 -57 1 -96 -5 -30 -9 -55 -8 -56 2 -2 35
-6 74 -10 l71 -7 6 135 7 135 -31 66 c-26 56 -30 74 -25 110 6 35 2 57 -18
104 -21 49 -24 66 -16 93 6 19 10 37 10 41 0 5 -41 8 -92 8 l-91 0 7 -102z"/>
</g>
</svg>
