<?xml version="1.0" standalone="no"?>
<!DOCTYPE svg PUBLIC "-//W3C//DTD SVG 20010904//EN"
 "http://www.w3.org/TR/2001/REC-SVG-20010904/DTD/svg10.dtd">
<svg version="1.0" xmlns="http://www.w3.org/2000/svg"
 width="112.000000pt" height="307.000000pt" viewBox="0 0 112.000000 307.000000"
 preserveAspectRatio="xMidYMid meet">
<metadata>
Created by potrace 1.14, written by Peter Selinger 2001-2017
</metadata>
<g transform="translate(0.000000,307.000000) scale(0.100000,-0.100000)"
fill="#000000" stroke="none">
<path fill="#000000" stroke="none" d="M650 2880 l0 -190 -240 120 c-238 119
-240 120 -310 120 -67 0 -70 -1 -85 -30 -8 -16 -15 -30 -15 -32 0 -2 20 -14
45 -28 25 -14 45 -28 45 -32 0 -5 -18 -8 -39 -8 -22 0 -42 -4 -45 -8 -2 -4 85
-62 194 -127 185 -111 198 -121 194 -145 -3 -14 -22 -148 -43 -298 l-39 -273
43 -285 44 -286 75 -178 c42 -99 76 -192 76 -207 0 -15 -16 -154 -34 -308 -32
-267 -36 -286 -80 -409 -25 -70 -46 -132 -46 -137 0 -5 69 -9 153 -9 l152 -1
94 -64 c92 -63 97 -65 157 -65 35 0 66 5 69 10 4 6 -34 98 -84 205 l-91 195 0
299 0 299 49 259 c28 142 59 299 70 350 25 111 51 470 51 705 l0 169 56 104
55 104 -11 118 c-11 106 -16 124 -48 179 l-36 61 -141 7 c-77 3 -161 6 -187 6
l-48 0 0 -190z"/>
</g>
</svg>
