<?xml version="1.0" standalone="no"?>
<!DOCTYPE svg PUBLIC "-//W3C//DTD SVG 20010904//EN"
 "http://www.w3.org/TR/2001/REC-SVG-20010904/DTD/svg10.dtd">
<svg version="1.0" xmlns="http://www.w3.org/2000/svg"
 width="122.000000pt" height="300.000000pt" viewBox="0 0 122.000000 300.000000"
 preserveAspectRatio="xMidYMid meet">
<metadata>
Created by potrace 1.14, written by Peter Selinger 2001-2017
</metadata>
<g transform="translate(0.000000,300.000000) scale(0.100000,-0.100000)"
fill="#000000" stroke="none">
<path fill="#000000" stroke="none" d="M643 2983 c-18 -9 -33 -22 -33 -28 0
-6 -24 -44 -54 -84 l-54 -72 14 -47 c22 -70 54 -222 54 -252 0 -22 -18 -35
-145 -105 -140 -78 -144 -81 -166 -130 -17 -40 -23 -82 -31 -215 -9 -150 -8
-182 14 -352 l24 -186 -133 -123 -132 -122 5 -56 c3 -31 13 -171 24 -311 l18
-255 66 -162 c36 -90 66 -168 66 -174 0 -6 -36 -60 -80 -120 -68 -93 -80 -115
-80 -149 0 -46 -5 -44 121 -31 75 8 76 8 192 96 64 48 117 88 117 89 0 1 -13
40 -28 87 -29 84 -29 86 -36 420 l-7 336 72 69 c39 38 78 75 85 82 8 8 19 22
24 33 26 48 108 5 185 -95 l58 -76 -7 -188 c-4 -103 -18 -294 -32 -426 -25
-233 -26 -240 -9 -332 10 -55 22 -94 28 -94 14 0 129 18 168 26 37 7 42 50 19
149 l-18 77 78 262 c42 143 97 329 120 411 l43 150 -11 108 c-9 97 -8 125 14
265 22 143 24 188 24 509 0 291 -2 351 -13 347 -17 -6 -187 105 -187 122 0 12
-97 63 -147 79 -13 3 -23 12 -23 19 0 8 -3 26 -6 42 -5 27 -2 31 40 52 25 12
46 27 46 34 0 26 -125 284 -144 298 -18 13 -92 41 -106 39 -3 0 -20 -8 -37
-16z"/>
</g>
</svg>
