<?xml version="1.0" standalone="no"?>
<!DOCTYPE svg PUBLIC "-//W3C//DTD SVG 20010904//EN"
 "http://www.w3.org/TR/2001/REC-SVG-20010904/DTD/svg10.dtd">
<svg version="1.0" xmlns="http://www.w3.org/2000/svg"
 width="18.000000pt" height="49.000000pt" viewBox="0 0 18.000000 49.000000"
 preserveAspectRatio="xMidYMid meet">
<metadata>
Created by potrace 1.14, written by Peter Selinger 2001-2017
</metadata>
<g transform="translate(0.000000,49.000000) scale(0.100000,-0.100000)"
fill="#000000" stroke="none">
<path fill="#000000" stroke="none" d="M34 480 c-27 -11 -37 -26 -27 -42 4 -7
8 -26 10 -43 8 -120 36 -250 58 -275 15 -17 15 -21 -5 -60 -24 -46 -18 -60 27
-60 26 0 40 18 20 26 -12 4 -7 20 25 75 39 67 40 74 35 136 -4 58 -8 68 -41
97 -37 35 -56 72 -56 110 0 31 -20 46 -46 36z"/>
</g>
</svg>
