<?xml version="1.0" standalone="no"?>
<!DOCTYPE svg PUBLIC "-//W3C//DTD SVG 20010904//EN"
 "http://www.w3.org/TR/2001/REC-SVG-20010904/DTD/svg10.dtd">
<svg version="1.0" xmlns="http://www.w3.org/2000/svg"
 width="28.000000pt" height="71.000000pt" viewBox="0 0 28.000000 71.000000"
 preserveAspectRatio="xMidYMid meet">
<metadata>
Created by potrace 1.14, written by Peter Selinger 2001-2017
</metadata>
<g transform="translate(0.000000,71.000000) scale(0.100000,-0.100000)"
fill="#000000" stroke="none">
<path fill="#000000" stroke="none" d="M150 683 c-16 -21 -20 -37 -16 -61 5
-32 -16 -81 -52 -125 -14 -16 -16 -16 -30 4 -13 19 -15 20 -34 3 -19 -18 -18
-18 19 -38 21 -11 47 -20 58 -21 30 -2 30 -65 0 -184 l-26 -102 22 -60 c12
-33 20 -61 18 -63 -2 -1 -15 -10 -29 -19 -24 -17 -24 -17 28 -17 l52 0 0 98
c0 94 1 99 24 110 l24 11 7 -110 c7 -109 12 -120 44 -100 18 12 18 202 0 337
-6 49 -11 98 -11 109 4 92 2 110 -17 125 -18 13 -18 17 -6 40 8 14 14 40 15
58 0 30 -2 32 -34 32 -26 0 -40 -7 -56 -27z"/>
</g>
</svg>
