<?xml version="1.0" standalone="no"?>
<!DOCTYPE svg PUBLIC "-//W3C//DTD SVG 20010904//EN"
 "http://www.w3.org/TR/2001/REC-SVG-20010904/DTD/svg10.dtd">
<svg version="1.0" xmlns="http://www.w3.org/2000/svg"
 width="12.000000pt" height="27.000000pt" viewBox="0 0 12.000000 27.000000"
 preserveAspectRatio="xMidYMid meet">
<metadata>
Created by potrace 1.14, written by Peter Selinger 2001-2017
</metadata>
<g transform="translate(0.000000,27.000000) scale(0.100000,-0.100000)"
fill="#000000" stroke="none">
<path fill="#000000" stroke="none" d="M0 244 c0 -15 5 -44 12 -66 9 -31 9
-44 0 -59 -16 -26 -16 -109 1 -109 6 0 22 -3 33 -6 25 -7 32 16 41 123 4 48 8
61 19 56 15 -6 17 8 8 56 -6 30 -8 31 -60 31 -52 0 -54 -1 -54 -26z"/>
<path fill="#ffffff" stroke="none" d="M40 56 c-6 -16 -13 -26 -16 -23 -3 3
-1 14 5 25 6 12 12 33 12 49 2 27 2 27 6 2 2 -14 -1 -38 -7 -53z"/>
</g>
</svg>
