<?xml version="1.0" standalone="no"?>
<!DOCTYPE svg PUBLIC "-//W3C//DTD SVG 20010904//EN"
 "http://www.w3.org/TR/2001/REC-SVG-20010904/DTD/svg10.dtd">
<svg version="1.0" xmlns="http://www.w3.org/2000/svg"
 width="234.000000pt" height="525.000000pt" viewBox="0 0 234.000000 525.000000"
 preserveAspectRatio="xMidYMid meet">
<metadata>
Created by potrace 1.14, written by Peter Selinger 2001-2017
</metadata>
<g transform="translate(0.000000,525.000000) scale(0.100000,-0.100000)"
fill="#000000" stroke="none">
<path fill="#000000" stroke="none" d="M1004 5198 l-141 -50 -121 -256 c-106
-225 -125 -275 -157 -402 l-36 -145 -156 -80 c-225 -115 -203 -96 -242 -218
l-35 -106 86 -330 86 -330 -129 -415 -128 -415 -16 -517 -16 -517 102 -428
101 -428 -29 -256 c-28 -255 -28 -256 -8 -260 11 -2 124 -11 250 -20 127 -9
246 -18 266 -21 l37 -5 6 118 c4 65 18 226 31 358 24 232 28 251 104 540 44
165 80 291 80 280 1 -11 23 -184 50 -385 l48 -365 164 -264 164 -263 239 6
c132 3 241 8 244 11 2 2 -53 138 -123 302 l-127 297 56 350 c31 193 59 352 61
354 2 3 75 26 162 52 l158 48 -3 273 -3 273 -114 385 c-72 243 -110 388 -104
392 6 3 91 8 190 11 99 3 182 8 185 10 6 7 154 408 154 419 0 5 -57 10 -127
11 l-128 3 -21 200 c-15 131 -48 336 -99 595 l-77 395 -145 301 -145 301 -214
122 c-118 66 -220 120 -227 120 -6 -1 -76 -24 -153 -51z"/>
</g>
</svg>
