<?xml version="1.0" standalone="no"?>
<!DOCTYPE svg PUBLIC "-//W3C//DTD SVG 20010904//EN"
 "http://www.w3.org/TR/2001/REC-SVG-20010904/DTD/svg10.dtd">
<svg version="1.0" xmlns="http://www.w3.org/2000/svg"
 width="16.000000pt" height="40.000000pt" viewBox="0 0 16.000000 40.000000"
 preserveAspectRatio="xMidYMid meet">
<metadata>
Created by potrace 1.14, written by Peter Selinger 2001-2017
</metadata>
<g transform="translate(0.000000,40.000000) scale(0.100000,-0.100000)"
fill="#000000" stroke="none">
<path fill="#000000" stroke="none" d="M75 392 c-17 -12 -36 -52 -30 -62 4 -6
-1 -13 -11 -17 -15 -5 -16 -17 -10 -99 5 -74 3 -101 -10 -133 -9 -23 -13 -49
-9 -58 6 -15 12 -12 42 22 l35 40 -5 -42 c-5 -41 -4 -42 16 -31 12 6 25 16 29
22 13 19 8 160 -7 186 -12 22 -11 27 2 43 9 9 22 17 30 17 15 0 18 36 3 45 -5
3 -18 1 -29 -4 -14 -8 -22 -7 -31 4 -9 11 -9 15 -1 15 6 0 11 14 11 30 0 30
-6 36 -25 22z"/>
</g>
</svg>
