<?xml version="1.0" standalone="no"?>
<!DOCTYPE svg PUBLIC "-//W3C//DTD SVG 20010904//EN"
 "http://www.w3.org/TR/2001/REC-SVG-20010904/DTD/svg10.dtd">
<svg version="1.0" xmlns="http://www.w3.org/2000/svg"
 width="21.000000pt" height="55.000000pt" viewBox="0 0 21.000000 55.000000"
 preserveAspectRatio="xMidYMid meet">
<metadata>
Created by potrace 1.14, written by Peter Selinger 2001-2017
</metadata>
<g transform="translate(0.000000,55.000000) scale(0.100000,-0.100000)"
fill="#000000" stroke="none">
<path fill="#000000" stroke="none" d="M84 542 c-6 -4 -19 -22 -28 -39 -9 -18
-20 -33 -25 -33 -12 0 -31 -56 -31 -90 0 -15 9 -39 20 -52 29 -37 49 -251 26
-276 -14 -16 -14 -19 4 -30 16 -9 21 -9 28 5 9 14 10 14 16 -5 4 -12 16 -22
26 -22 15 0 20 14 30 83 7 45 14 114 15 153 2 58 7 76 24 93 20 20 21 23 5 59
-9 20 -23 53 -31 72 -18 41 -51 90 -61 90 -4 0 -12 -4 -18 -8z"/>
</g>
</svg>
