<?xml version="1.0" standalone="no"?>
<!DOCTYPE svg PUBLIC "-//W3C//DTD SVG 20010904//EN"
 "http://www.w3.org/TR/2001/REC-SVG-20010904/DTD/svg10.dtd">
<svg version="1.0" xmlns="http://www.w3.org/2000/svg"
 width="203.000000pt" height="452.000000pt" viewBox="0 0 203.000000 452.000000"
 preserveAspectRatio="xMidYMid meet">
<metadata>
Created by potrace 1.14, written by Peter Selinger 2001-2017
</metadata>
<g transform="translate(0.000000,452.000000) scale(0.100000,-0.100000)"
fill="#000000" stroke="none">
<path fill="#000000" stroke="none" d="M565 4482 l-110 -35 -74 -108 c-40 -60
-76 -109 -80 -109 -36 -1 -27 -25 84 -238 l115 -221 0 -333 c-1 -237 -5 -362
-15 -433 -8 -55 -15 -105 -15 -112 0 -6 -34 -19 -75 -29 -42 -10 -74 -21 -73
-25 6 -15 264 -196 295 -207 21 -7 44 -8 63 -2 27 8 32 6 42 -15 6 -14 20 -27
30 -31 16 -5 18 -11 12 -37 -3 -17 -15 -47 -25 -67 -10 -19 -81 -208 -158
-419 l-141 -384 -1 -401 c0 -340 -4 -432 -22 -603 l-22 -202 -194 -145 c-107
-80 -196 -148 -199 -151 -3 -3 10 -43 29 -90 l34 -85 126 0 c112 0 147 5 330
45 112 25 212 48 222 51 15 5 17 22 17 183 l0 177 84 246 c80 230 86 254 97
374 11 123 15 137 76 289 76 189 165 396 169 393 1 -2 86 -307 188 -680 l186
-676 -44 -84 c-30 -57 -49 -110 -61 -168 -9 -47 -19 -93 -21 -102 -5 -17 7
-18 163 -17 92 0 185 3 207 7 61 11 72 41 79 229 6 133 2 207 -22 469 l-29
310 -71 168 -71 167 0 157 0 157 136 55 135 55 35 65 35 65 -78 265 -78 264
-107 167 -108 166 0 66 c0 55 11 96 64 250 l65 185 -361 419 c-198 230 -387
448 -419 486 -49 56 -59 74 -59 105 0 75 -4 79 -141 148 -71 35 -130 63 -131
63 -2 -1 -52 -17 -113 -37z"/>
</g>
</svg>
