<?xml version="1.0" standalone="no"?>
<!DOCTYPE svg PUBLIC "-//W3C//DTD SVG 20010904//EN"
 "http://www.w3.org/TR/2001/REC-SVG-20010904/DTD/svg10.dtd">
<svg version="1.0" xmlns="http://www.w3.org/2000/svg"
 width="23.000000pt" height="53.000000pt" viewBox="0 0 23.000000 53.000000"
 preserveAspectRatio="xMidYMid meet">
<metadata>
Created by potrace 1.14, written by Peter Selinger 2001-2017
</metadata>
<g transform="translate(0.000000,53.000000) scale(0.100000,-0.100000)"
fill="#000000" stroke="none">
<path fill="#000000" stroke="none" d="M52 523 c-17 -3 -22 -9 -17 -21 17 -39
16 -52 -3 -79 -29 -41 -30 -55 -11 -86 13 -22 16 -43 12 -86 -4 -46 -1 -63 16
-91 11 -19 21 -45 21 -57 0 -24 15 -29 38 -14 10 6 12 21 7 56 l-8 47 28 -18
c23 -15 26 -22 21 -50 -6 -28 -4 -32 20 -38 31 -8 39 1 49 52 5 27 2 39 -15
57 -16 17 -23 39 -26 80 -5 70 -20 131 -37 147 -7 6 -11 24 -9 40 3 18 -2 36
-13 48 -18 20 -28 21 -73 13z"/>
<path fill="#000000" stroke="none" d="M66 24 c-9 -24 -9 -24 32 -24 26 0 45
7 57 20 18 20 17 20 -32 20 -37 0 -53 -4 -57 -16z"/>
</g>
</svg>
