<?xml version="1.0" standalone="no"?>
<!DOCTYPE svg PUBLIC "-//W3C//DTD SVG 20010904//EN"
 "http://www.w3.org/TR/2001/REC-SVG-20010904/DTD/svg10.dtd">
<svg version="1.0" xmlns="http://www.w3.org/2000/svg"
 width="9.000000pt" height="23.000000pt" viewBox="0 0 9.000000 23.000000"
 preserveAspectRatio="xMidYMid meet">
<metadata>
Created by potrace 1.14, written by Peter Selinger 2001-2017
</metadata>
<g transform="translate(0.000000,23.000000) scale(0.100000,-0.100000)"
fill="#000000" stroke="none">
<path fill="#000000" stroke="none" d="M40 216 c0 -8 -9 -31 -21 -51 -17 -28
-19 -38 -9 -50 7 -8 10 -24 7 -35 -4 -14 1 -25 14 -33 10 -6 19 -21 20 -32 0
-14 4 -10 13 13 6 18 15 30 19 26 8 -8 -1 155 -10 169 -8 13 -33 7 -33 -7z"/>
</g>
</svg>
