<?xml version="1.0" standalone="no"?>
<!DOCTYPE svg PUBLIC "-//W3C//DTD SVG 20010904//EN"
 "http://www.w3.org/TR/2001/REC-SVG-20010904/DTD/svg10.dtd">
<svg version="1.0" xmlns="http://www.w3.org/2000/svg"
 width="133.000000pt" height="299.000000pt" viewBox="0 0 133.000000 299.000000"
 preserveAspectRatio="xMidYMid meet">
<metadata>
Created by potrace 1.14, written by Peter Selinger 2001-2017
</metadata>
<g transform="translate(0.000000,299.000000) scale(0.100000,-0.100000)"
fill="#000000" stroke="none">
<path fill="#000000" stroke="none" d="M547 2956 c-53 -22 -93 -48 -126 -80
-45 -45 -49 -51 -53 -110 -3 -38 -15 -81 -31 -112 l-26 -51 26 -43 c36 -59 44
-103 31 -169 -6 -31 -12 -57 -13 -58 -1 -2 -60 -8 -131 -14 -124 -10 -130 -12
-161 -42 -19 -18 -33 -41 -33 -54 0 -13 -7 -37 -15 -53 -15 -29 -12 -41 79
-327 l94 -298 7 -225 7 -225 -26 -24 c-70 -65 -100 -353 -83 -789 l11 -282
163 0 c161 0 163 0 167 23 3 12 10 101 16 197 10 152 15 180 35 213 24 42 141
127 174 127 28 0 86 -96 200 -333 55 -114 106 -207 113 -207 32 0 324 44 330
49 4 4 -4 43 -18 86 -23 70 -27 101 -30 241 -4 176 -23 290 -88 519 -19 66
-37 136 -41 155 -3 19 -29 129 -57 244 l-51 210 38 212 38 213 58 41 c106 74
158 199 175 423 6 81 5 89 -15 111 -19 21 -27 22 -66 15 -24 -4 -57 -4 -74 1
l-31 9 0 -108 0 -107 -116 -12 -116 -11 -63 28 c-62 29 -63 29 -75 83 -12 52
-11 55 20 108 l32 54 -7 136 -7 137 -89 67 c-49 36 -90 66 -91 66 -2 -1 -38
-16 -81 -34z"/>
</g>
</svg>
