<?xml version="1.0" standalone="no"?>
<!DOCTYPE svg PUBLIC "-//W3C//DTD SVG 20010904//EN"
 "http://www.w3.org/TR/2001/REC-SVG-20010904/DTD/svg10.dtd">
<svg version="1.0" xmlns="http://www.w3.org/2000/svg"
 width="157.000000pt" height="419.000000pt" viewBox="0 0 157.000000 419.000000"
 preserveAspectRatio="xMidYMid meet">
<metadata>
Created by potrace 1.14, written by Peter Selinger 2001-2017
</metadata>
<g transform="translate(0.000000,419.000000) scale(0.100000,-0.100000)"
fill="#000000" stroke="none">
<path fill="#000000" stroke="none" d="M480 4180 c-73 -9 -186 -68 -226 -117
-17 -21 -38 -61 -46 -90 -14 -48 -14 -56 9 -145 23 -87 24 -95 9 -121 -11 -20
-16 -54 -16 -110 0 -60 -4 -85 -16 -98 -14 -16 -15 -27 -4 -91 7 -40 12 -88
12 -106 -2 -37 -46 -103 -107 -162 -20 -19 -49 -57 -63 -85 l-27 -50 3 -340
c3 -310 5 -353 28 -488 14 -82 23 -154 21 -161 -3 -8 15 -33 39 -57 30 -30 44
-51 42 -66 -2 -12 11 -38 31 -63 30 -38 32 -43 17 -59 -30 -33 -9 -101 32
-101 7 0 12 -9 12 -19 0 -11 7 -26 15 -35 10 -10 15 -35 15 -78 0 -108 18
-189 48 -222 45 -48 102 -68 173 -60 l60 7 -5 -27 c-4 -14 -8 -37 -11 -51 -3
-15 3 -45 15 -72 11 -25 20 -62 20 -82 0 -20 4 -51 10 -70 8 -27 5 -40 -13
-71 l-22 -38 24 -42 c16 -30 21 -50 17 -73 -4 -21 2 -54 18 -97 18 -50 21 -69
13 -87 -9 -21 -3 -30 69 -97 67 -63 89 -91 143 -192 80 -148 159 -266 171
-259 15 9 12 43 -4 52 -7 5 -16 35 -19 71 -4 35 -14 76 -23 91 -16 27 -15 31
20 111 31 69 36 90 30 124 -3 22 -6 71 -5 110 0 39 -4 95 -10 124 -11 57 -5
100 11 72 4 -8 20 -85 35 -170 29 -164 57 -240 102 -281 l26 -24 -23 40 c-13
22 -32 52 -42 68 -22 32 -21 32 69 12 37 -9 78 -18 90 -20 14 -3 45 -38 83
-93 32 -48 71 -100 85 -117 l26 -30 -7 30 c-4 17 -11 40 -15 53 -5 13 -9 41
-9 63 0 22 -5 49 -10 59 -6 11 -17 53 -26 94 -13 66 -14 78 0 103 18 36 24
151 8 179 -8 16 -8 33 2 70 7 27 11 55 9 62 -3 7 8 34 23 60 23 38 27 57 25
102 -1 30 -2 63 -2 73 1 28 1 39 -2 89 -2 39 -8 53 -32 75 -29 27 -32 36 -55
185 -23 155 -23 158 -5 193 17 30 21 33 35 20 13 -11 18 -11 39 6 13 10 31 19
41 19 47 0 110 136 110 238 0 58 -3 71 -26 95 -24 27 -25 29 -13 85 8 39 10
112 5 232 l-6 175 -31 28 c-22 20 -29 34 -26 49 18 66 -122 460 -225 638 -63
109 -148 220 -177 231 -9 4 -63 15 -119 25 -98 17 -102 18 -102 43 0 36 -44
119 -85 161 -41 43 -48 92 -20 144 17 32 18 40 7 83 -21 79 -44 108 -80 106
-30 -3 -31 -1 -38 44 -5 35 -17 57 -47 90 -22 24 -42 42 -46 42 -3 -1 -31 -5
-61 -9z"/>
</g>
</svg>
