<?xml version="1.0" standalone="no"?>
<!DOCTYPE svg PUBLIC "-//W3C//DTD SVG 20010904//EN"
 "http://www.w3.org/TR/2001/REC-SVG-20010904/DTD/svg10.dtd">
<svg version="1.0" xmlns="http://www.w3.org/2000/svg"
 width="101.000000pt" height="241.000000pt" viewBox="0 0 101.000000 241.000000"
 preserveAspectRatio="xMidYMid meet">
<metadata>
Created by potrace 1.14, written by Peter Selinger 2001-2017
</metadata>
<g transform="translate(0.000000,241.000000) scale(0.100000,-0.100000)"
fill="#000000" stroke="none">
<path fill="#000000" stroke="none" d="M311 2389 c-62 -10 -115 -20 -117 -22
-3 -2 -10 -53 -18 -113 -10 -90 -10 -124 1 -199 7 -49 16 -97 19 -107 4 -13
-8 -25 -43 -47 -26 -17 -51 -32 -55 -33 -4 -2 -27 -47 -52 -100 l-45 -96 102
-114 102 -113 5 -264 5 -265 192 -56 193 -55 0 -31 c0 -18 11 -51 24 -74 20
-35 22 -48 14 -71 -6 -19 -6 -34 2 -48 8 -17 6 -37 -13 -99 -17 -54 -27 -114
-31 -200 l-7 -124 52 -79 c28 -43 54 -79 57 -79 3 0 33 16 68 35 73 41 73 23
0 179 -30 64 -46 112 -46 137 0 22 3 39 6 39 3 0 28 -12 56 -27 45 -25 54 -37
99 -125 49 -99 63 -116 74 -98 12 20 44 257 50 382 7 120 6 129 -13 145 -13
12 -32 64 -57 157 l-37 138 7 177 c3 97 15 242 26 323 19 136 19 150 5 193 -9
25 -16 56 -16 68 0 13 -28 54 -66 99 l-66 76 -86 22 c-48 12 -92 26 -99 32 -7
6 -13 27 -13 47 0 52 -67 343 -82 356 -7 7 -29 21 -48 32 -35 20 -37 20 -149
2z"/>
</g>
</svg>
