<?xml version="1.0" standalone="no"?>
<!DOCTYPE svg PUBLIC "-//W3C//DTD SVG 20010904//EN"
 "http://www.w3.org/TR/2001/REC-SVG-20010904/DTD/svg10.dtd">
<svg version="1.0" xmlns="http://www.w3.org/2000/svg"
 width="107.000000pt" height="239.000000pt" viewBox="0 0 107.000000 239.000000"
 preserveAspectRatio="xMidYMid meet">
<metadata>
Created by potrace 1.14, written by Peter Selinger 2001-2017
</metadata>
<g transform="translate(0.000000,239.000000) scale(0.100000,-0.100000)"
fill="#000000" stroke="none">
<path fill="#000000" stroke="none" d="M229 2383 c-14 -2 -47 -26 -74 -53
l-48 -49 1 -88 c1 -48 5 -106 8 -128 4 -31 -2 -56 -25 -111 l-30 -71 6 -219
c4 -157 12 -255 27 -344 21 -119 21 -129 7 -205 -9 -44 -14 -102 -11 -130 5
-49 5 -50 19 -25 l15 25 7 -35 c15 -67 32 -352 24 -408 -3 -32 -7 -69 -8 -85
-1 -17 -27 -58 -70 -112 -64 -78 -69 -89 -74 -143 l-5 -59 91 -70 92 -70 91
28 c122 39 174 69 182 110 3 17 6 35 6 38 0 4 -28 23 -61 42 l-62 34 69 6 c85
8 134 25 133 47 0 10 -25 36 -55 60 l-54 43 1 182 c1 100 4 227 8 282 l6 100
56 30 55 30 -27 250 c-15 138 -30 269 -33 292 l-5 41 74 46 c40 26 121 69 178
97 l105 50 83 -37 c77 -34 85 -36 109 -23 39 23 37 52 -7 88 -37 30 -39 31
-148 31 -60 1 -174 9 -253 19 -159 20 -186 33 -198 99 -6 29 -1 47 26 94 l32
59 -16 70 c-21 94 -60 143 -131 164 -53 15 -66 16 -116 8z"/>
<path fill="#ffffff" stroke="none" d="M411 606 c-7 -33 -19 -72 -27 -86 -13
-24 -14 -22 -8 25 3 28 10 74 16 104 9 46 12 52 21 36 7 -13 7 -36 -2 -79z"/>
</g>
</svg>
