<?xml version="1.0" standalone="no"?>
<!DOCTYPE svg PUBLIC "-//W3C//DTD SVG 20010904//EN"
 "http://www.w3.org/TR/2001/REC-SVG-20010904/DTD/svg10.dtd">
<svg version="1.0" xmlns="http://www.w3.org/2000/svg"
 width="31.000000pt" height="80.000000pt" viewBox="0 0 31.000000 80.000000"
 preserveAspectRatio="xMidYMid meet">
<metadata>
Created by potrace 1.14, written by Peter Selinger 2001-2017
</metadata>
<g transform="translate(0.000000,80.000000) scale(0.100000,-0.100000)"
fill="#000000" stroke="none">
<path fill="#000000" stroke="none" d="M124 789 c-23 -7 -35 -20 -52 -56 -82
-187 -82 -187 -58 -263 17 -54 56 -317 56 -380 0 -88 3 -90 87 -90 48 0 85 6
105 16 l31 16 -7 116 c-5 97 -4 118 10 133 13 14 15 41 12 161 -3 133 -5 146
-28 180 -14 21 -35 43 -47 49 -13 7 -23 19 -23 28 -1 22 -37 101 -47 100 -4 0
-22 -5 -39 -10z"/>
</g>
</svg>
