<?xml version="1.0" standalone="no"?>
<!DOCTYPE svg PUBLIC "-//W3C//DTD SVG 20010904//EN"
 "http://www.w3.org/TR/2001/REC-SVG-20010904/DTD/svg10.dtd">
<svg version="1.0" xmlns="http://www.w3.org/2000/svg"
 width="34.000000pt" height="80.000000pt" viewBox="0 0 34.000000 80.000000"
 preserveAspectRatio="xMidYMid meet">
<metadata>
Created by potrace 1.14, written by Peter Selinger 2001-2017
</metadata>
<g transform="translate(0.000000,80.000000) scale(0.100000,-0.100000)"
fill="#000000" stroke="none">
<path fill="#000000" stroke="none" d="M77 743 l-33 -58 25 -60 c33 -79 32
-123 -2 -168 -34 -45 -37 -115 -8 -156 19 -26 19 -31 5 -86 -9 -32 -27 -87
-41 -122 -14 -35 -24 -66 -22 -68 8 -7 320 -27 327 -20 4 4 5 107 3 228 -3
212 -4 224 -28 270 -13 27 -27 72 -30 100 -7 72 -54 170 -87 185 -54 24 -73
16 -109 -45z"/>
</g>
</svg>
