<?xml version="1.0" standalone="no"?>
<!DOCTYPE svg PUBLIC "-//W3C//DTD SVG 20010904//EN"
 "http://www.w3.org/TR/2001/REC-SVG-20010904/DTD/svg10.dtd">
<svg version="1.0" xmlns="http://www.w3.org/2000/svg"
 width="35.000000pt" height="83.000000pt" viewBox="0 0 35.000000 83.000000"
 preserveAspectRatio="xMidYMid meet">
<metadata>
Created by potrace 1.14, written by Peter Selinger 2001-2017
</metadata>
<g transform="translate(0.000000,83.000000) scale(0.100000,-0.100000)"
fill="#000000" stroke="none">
<path fill="#000000" stroke="none" d="M145 806 c-13 -13 -29 -42 -35 -65 -6
-23 -18 -45 -26 -48 -8 -3 -31 -37 -51 -76 -30 -61 -35 -78 -30 -119 3 -26 16
-65 28 -86 l22 -38 -21 -62 -21 -63 62 3 62 3 3 57 3 57 28 -17 c28 -16 28
-17 34 -141 9 -176 15 -211 38 -211 21 0 23 8 43 190 15 129 26 173 52 202 14
15 14 23 1 75 -9 32 -34 105 -56 162 -31 80 -38 108 -30 122 8 15 5 26 -13 49
-28 36 -61 38 -93 6z"/>
</g>
</svg>
