<?xml version="1.0" standalone="no"?>
<!DOCTYPE svg PUBLIC "-//W3C//DTD SVG 20010904//EN"
 "http://www.w3.org/TR/2001/REC-SVG-20010904/DTD/svg10.dtd">
<svg version="1.0" xmlns="http://www.w3.org/2000/svg"
 width="41.000000pt" height="111.000000pt" viewBox="0 0 41.000000 111.000000"
 preserveAspectRatio="xMidYMid meet">
<metadata>
Created by potrace 1.14, written by Peter Selinger 2001-2017
</metadata>
<g transform="translate(0.000000,111.000000) scale(0.100000,-0.100000)"
fill="#000000" stroke="none">
<path fill="#000000" stroke="none" d="M195 1102 c-11 -2 -30 -13 -42 -25 -19
-17 -23 -31 -23 -78 0 -54 -2 -60 -28 -73 -56 -29 -79 -73 -86 -166 -19 -255
-19 -272 -5 -281 21 -13 35 -11 21 3 -7 7 -12 20 -12 30 0 28 39 23 50 -6 31
-82 73 -393 61 -448 -7 -29 -5 -38 6 -42 33 -13 63 -5 79 20 16 24 16 30 1 97
-9 40 -19 81 -22 93 -6 18 -3 20 28 16 35 -4 35 -4 56 -89 33 -131 44 -153 79
-153 25 0 30 5 36 31 3 19 -2 58 -13 98 -10 36 -24 127 -30 201 -9 115 -25
231 -46 340 -3 17 3 10 20 -20 13 -25 24 -56 25 -68 0 -13 10 -32 22 -42 45
-36 49 -4 13 120 -13 48 -20 86 -15 88 15 5 12 16 -21 91 -23 53 -39 73 -65
87 -37 20 -40 31 -22 80 20 55 -17 107 -67 96z"/>
</g>
</svg>
