<?xml version="1.0" standalone="no"?>
<!DOCTYPE svg PUBLIC "-//W3C//DTD SVG 20010904//EN"
 "http://www.w3.org/TR/2001/REC-SVG-20010904/DTD/svg10.dtd">
<svg version="1.0" xmlns="http://www.w3.org/2000/svg"
 width="66.000000pt" height="160.000000pt" viewBox="0 0 66.000000 160.000000"
 preserveAspectRatio="xMidYMid meet">
<metadata>
Created by potrace 1.14, written by Peter Selinger 2001-2017
</metadata>
<g transform="translate(0.000000,160.000000) scale(0.100000,-0.100000)"
fill="#000000" stroke="none">
<path fill="#000000" stroke="none" d="M515 1590 c-91 -19 -110 -33 -144 -107
-19 -41 -22 -43 -63 -42 -24 0 -68 4 -98 8 -45 7 -67 4 -126 -16 l-71 -24 -7
-701 c-3 -385 -5 -703 -2 -705 2 -3 35 -1 72 4 65 8 69 9 77 39 11 38 32 44
144 44 55 0 74 3 71 13 -2 6 -52 37 -110 67 -59 30 -115 66 -126 80 -25 33
-41 160 -44 355 -3 140 -1 156 25 236 26 81 29 86 62 96 19 6 72 39 117 72 80
59 85 65 143 176 l60 115 61 0 62 0 17 43 c10 23 20 75 23 115 4 61 2 76 -14
93 -20 22 -67 50 -81 48 -4 -1 -26 -5 -48 -9z"/>
</g>
</svg>
