<?xml version="1.0" standalone="no"?>
<!DOCTYPE svg PUBLIC "-//W3C//DTD SVG 20010904//EN"
 "http://www.w3.org/TR/2001/REC-SVG-20010904/DTD/svg10.dtd">
<svg version="1.0" xmlns="http://www.w3.org/2000/svg"
 width="32.000000pt" height="72.000000pt" viewBox="0 0 32.000000 72.000000"
 preserveAspectRatio="xMidYMid meet">
<metadata>
Created by potrace 1.14, written by Peter Selinger 2001-2017
</metadata>
<g transform="translate(0.000000,72.000000) scale(0.100000,-0.100000)"
fill="#000000" stroke="none">
<path fill="#000000" stroke="none" d="M140 680 c0 -39 -2 -41 -55 -67 -37
-18 -54 -32 -50 -41 3 -8 5 -55 5 -105 0 -90 1 -92 18 -69 18 23 18 23 41 -75
l23 -98 -21 -69 c-15 -47 -18 -73 -11 -80 5 -5 10 -20 10 -33 0 -18 7 -25 30
-29 16 -4 33 -6 37 -5 5 0 11 34 14 76 4 47 19 108 40 165 30 81 37 91 66 101
33 11 33 11 33 77 0 90 -15 140 -55 182 -22 23 -35 47 -37 70 -3 33 -5 35 -45
38 l-43 3 0 -41z"/>
</g>
</svg>
