<?xml version="1.0" standalone="no"?>
<!DOCTYPE svg PUBLIC "-//W3C//DTD SVG 20010904//EN"
 "http://www.w3.org/TR/2001/REC-SVG-20010904/DTD/svg10.dtd">
<svg version="1.0" xmlns="http://www.w3.org/2000/svg"
 width="147.000000pt" height="358.000000pt" viewBox="0 0 147.000000 358.000000"
 preserveAspectRatio="xMidYMid meet">
<metadata>
Created by potrace 1.14, written by Peter Selinger 2001-2017
</metadata>
<g transform="translate(0.000000,358.000000) scale(0.100000,-0.100000)"
fill="#000000" stroke="none">
<path fill="#000000" stroke="none" d="M795 3558 c-69 -35 -76 -45 -69 -98 6
-44 4 -47 -33 -81 -21 -19 -69 -48 -106 -64 l-68 -28 46 -30 c33 -21 63 -32
101 -35 l54 -4 0 -53 0 -52 -87 -27 c-49 -15 -135 -35 -193 -44 l-105 -16 -66
-66 c-36 -36 -83 -92 -104 -125 -20 -33 -59 -94 -86 -135 -63 -98 -79 -152
-79 -272 l0 -96 47 -59 c57 -70 60 -73 98 -73 64 -1 68 -6 106 -113 29 -85 34
-109 28 -147 -4 -25 -8 -71 -8 -102 -1 -31 -7 -87 -15 -125 -7 -37 -17 -104
-20 -148 -4 -44 -20 -123 -36 -175 -15 -52 -31 -126 -35 -165 -3 -38 -15 -117
-25 -175 -36 -199 -70 -435 -70 -485 0 -27 -7 -75 -15 -105 -10 -38 -15 -107
-15 -227 l0 -173 33 -14 c58 -24 229 -48 259 -37 26 10 27 12 30 113 3 57 12
213 22 348 l17 245 59 125 c33 69 79 181 104 250 24 69 54 150 66 180 31 76
34 288 7 367 l-18 52 28 36 c17 21 42 39 63 45 96 25 161 40 219 50 34 6 83
21 107 33 l44 21 0 90 c0 112 16 149 80 186 56 33 64 65 26 115 -32 41 -32 46
-2 75 l25 23 43 -26 c24 -14 53 -36 66 -50 20 -21 28 -23 63 -17 22 4 41 9 43
11 1 2 12 30 24 62 19 49 22 80 22 190 l0 131 -39 56 c-21 30 -44 73 -51 95
-9 30 -22 46 -48 61 -21 12 -65 38 -99 59 l-63 38 0 51 c0 28 -5 69 -10 91 -5
22 -6 59 -3 82 l6 43 47 0 c44 0 130 35 145 59 2 5 -30 14 -73 20 -42 7 -93
20 -112 29 -32 16 -36 22 -46 82 -6 36 -17 84 -24 108 l-13 42 -126 0 c-107
-1 -132 -4 -166 -22z"/>
</g>
</svg>
