<?xml version="1.0" standalone="no"?>
<!DOCTYPE svg PUBLIC "-//W3C//DTD SVG 20010904//EN"
 "http://www.w3.org/TR/2001/REC-SVG-20010904/DTD/svg10.dtd">
<svg version="1.0" xmlns="http://www.w3.org/2000/svg"
 width="40.000000pt" height="105.000000pt" viewBox="0 0 40.000000 105.000000"
 preserveAspectRatio="xMidYMid meet">
<metadata>
Created by potrace 1.14, written by Peter Selinger 2001-2017
</metadata>
<g transform="translate(0.000000,105.000000) scale(0.100000,-0.100000)"
fill="#000000" stroke="none">
<path fill="#000000" stroke="none" d="M193 1034 c-18 -8 -46 -33 -63 -56 -35
-47 -40 -108 -15 -177 l14 -41 -27 -6 c-15 -3 -34 -8 -42 -10 -8 -2 -26 -21
-39 -41 l-24 -38 18 -105 c21 -121 21 -112 0 -244 l-17 -101 71 -105 c40 -58
75 -105 79 -104 16 1 52 70 52 100 0 28 -8 38 -60 76 l-59 43 -1 73 c0 40 10
115 21 166 30 127 84 202 209 286 83 56 90 63 90 94 0 18 -9 59 -21 92 -11 32
-23 67 -26 76 -6 19 -61 38 -103 37 -14 0 -40 -7 -57 -15z"/>
</g>
</svg>
