<?xml version="1.0" standalone="no"?>
<!DOCTYPE svg PUBLIC "-//W3C//DTD SVG 20010904//EN"
 "http://www.w3.org/TR/2001/REC-SVG-20010904/DTD/svg10.dtd">
<svg version="1.0" xmlns="http://www.w3.org/2000/svg"
 width="104.000000pt" height="242.000000pt" viewBox="0 0 104.000000 242.000000"
 preserveAspectRatio="xMidYMid meet">
<metadata>
Created by potrace 1.14, written by Peter Selinger 2001-2017
</metadata>
<g transform="translate(0.000000,242.000000) scale(0.100000,-0.100000)"
fill="#000000" stroke="none">
<path fill="#000000" stroke="none" d="M330 2375 c-88 -53 -100 -67 -79 -92 9
-10 21 -57 28 -111 11 -93 11 -93 -15 -127 -16 -21 -44 -41 -72 -51 -26 -9
-52 -22 -58 -28 -37 -37 -144 -448 -128 -490 3 -7 24 -23 47 -36 23 -13 58
-34 78 -46 l36 -23 -32 -93 c-30 -84 -31 -96 -19 -120 8 -15 43 -130 79 -256
l65 -230 20 -313 c12 -173 23 -324 26 -336 4 -21 10 -23 67 -23 l63 0 17 73
c10 39 18 88 18 107 1 20 6 4 11 -37 l10 -73 39 -10 c35 -10 50 -7 131 22 73
26 85 34 62 36 l-29 3 3 317 3 317 69 217 c43 132 70 233 70 260 0 24 -23 115
-54 210 -29 92 -48 165 -42 161 6 -4 46 -33 88 -65 42 -32 81 -58 86 -58 5 0
35 38 66 85 l56 86 -47 19 c-108 45 -101 37 -193 205 l-88 159 -68 28 c-37 16
-71 33 -75 40 -4 6 -10 64 -14 130 l-7 118 -63 35 c-34 19 -66 35 -71 34 -5 0
-43 -20 -84 -44z"/>
</g>
</svg>
