<?xml version="1.0" standalone="no"?>
<!DOCTYPE svg PUBLIC "-//W3C//DTD SVG 20010904//EN"
 "http://www.w3.org/TR/2001/REC-SVG-20010904/DTD/svg10.dtd">
<svg version="1.0" xmlns="http://www.w3.org/2000/svg"
 width="44.000000pt" height="113.000000pt" viewBox="0 0 44.000000 113.000000"
 preserveAspectRatio="xMidYMid meet">
<metadata>
Created by potrace 1.14, written by Peter Selinger 2001-2017
</metadata>
<g transform="translate(0.000000,113.000000) scale(0.100000,-0.100000)"
fill="#000000" stroke="none">
<path fill="#000000" stroke="none" d="M238 1114 c-24 -13 -28 -21 -29 -62 -2
-73 -11 -95 -49 -114 -49 -25 -67 -53 -86 -135 -11 -53 -13 -76 -5 -91 6 -12
18 -50 26 -86 13 -56 14 -85 4 -178 -6 -61 -19 -139 -29 -172 -10 -34 -26 -99
-35 -146 -10 -47 -21 -92 -26 -101 -10 -20 13 -29 51 -19 20 5 28 16 41 65 20
77 78 211 113 261 l28 39 -7 -150 c-4 -82 -11 -154 -16 -160 -5 -5 -9 -19 -9
-32 0 -19 5 -23 29 -23 16 0 33 6 39 13 15 19 39 131 58 274 16 116 20 133 36
133 24 0 37 35 54 140 19 123 17 179 -11 268 -19 60 -31 82 -50 92 -26 14 -28
20 -40 95 -8 50 -34 105 -49 105 -6 -1 -23 -8 -38 -16z"/>
</g>
</svg>
