<?xml version="1.0" standalone="no"?>
<!DOCTYPE svg PUBLIC "-//W3C//DTD SVG 20010904//EN"
 "http://www.w3.org/TR/2001/REC-SVG-20010904/DTD/svg10.dtd">
<svg version="1.0" xmlns="http://www.w3.org/2000/svg"
 width="92.000000pt" height="244.000000pt" viewBox="0 0 92.000000 244.000000"
 preserveAspectRatio="xMidYMid meet">
<metadata>
Created by potrace 1.14, written by Peter Selinger 2001-2017
</metadata>
<g transform="translate(0.000000,244.000000) scale(0.100000,-0.100000)"
fill="#000000" stroke="none">
<path fill="#000000" stroke="none" d="M474 2427 c-17 -7 -47 -24 -65 -38 -33
-26 -34 -29 -33 -97 0 -56 6 -81 28 -125 16 -30 27 -59 25 -65 -2 -5 -33 -31
-69 -58 -74 -57 -95 -89 -105 -161 l-7 -53 101 0 101 0 0 -117 c0 -130 22
-342 39 -386 18 -47 13 -97 -21 -179 l-32 -78 -53 0 -53 0 24 -47 c13 -27 27
-72 31 -101 4 -29 13 -76 20 -104 13 -48 13 -53 -7 -82 -11 -17 -47 -56 -80
-86 -32 -30 -89 -98 -127 -150 -60 -85 -73 -96 -121 -116 -72 -29 -78 -40 -57
-106 8 -29 21 -72 27 -96 13 -51 68 -116 112 -131 l30 -11 -8 33 c-5 17 -9 66
-8 107 0 134 57 208 260 342 118 77 131 83 124 60 -17 -54 -19 -187 -5 -248
20 -81 19 -222 -1 -269 -25 -61 -17 -63 191 -56 l180 6 3 35 3 35 -53 1 c-32
1 -75 12 -109 27 l-56 25 -6 60 c-3 39 1 94 12 152 10 50 16 102 13 116 -2 13
-1 67 3 119 5 72 10 95 21 95 8 0 14 7 14 16 0 9 5 68 11 132 7 73 8 134 2
162 l-9 45 -52 6 c-75 10 -82 14 -82 52 0 19 -7 54 -15 77 -17 49 -19 181 -5
285 7 48 7 85 0 121 -8 37 -8 80 0 150 25 229 25 247 -2 272 -24 22 -25 24
-10 56 10 22 25 36 46 42 28 8 31 13 34 54 1 25 8 55 14 67 9 18 8 26 -4 40
-9 10 -21 35 -27 57 -5 21 -18 47 -27 57 -10 11 -22 29 -28 42 -9 17 -21 22
-56 24 -25 1 -59 -3 -76 -10z"/>
</g>
</svg>
