<?xml version="1.0" standalone="no"?>
<!DOCTYPE svg PUBLIC "-//W3C//DTD SVG 20010904//EN"
 "http://www.w3.org/TR/2001/REC-SVG-20010904/DTD/svg10.dtd">
<svg version="1.0" xmlns="http://www.w3.org/2000/svg"
 width="49.000000pt" height="121.000000pt" viewBox="0 0 49.000000 121.000000"
 preserveAspectRatio="xMidYMid meet">
<metadata>
Created by potrace 1.14, written by Peter Selinger 2001-2017
</metadata>
<g transform="translate(0.000000,121.000000) scale(0.100000,-0.100000)"
fill="#000000" stroke="none">
<path fill="#000000" stroke="none" d="M150 1193 c-83 -28 -150 -165 -150
-306 0 -53 6 -57 96 -57 l64 0 0 -74 c0 -70 1 -75 23 -78 22 -3 22 -7 30 -183
5 -113 4 -209 -3 -259 -16 -128 -14 -144 26 -193 20 -25 40 -41 45 -36 4 4 28
57 53 117 l45 108 -9 111 -9 111 48 77 c49 76 49 77 60 199 6 67 14 126 16
131 3 4 -10 30 -29 56 -21 30 -41 76 -52 118 -23 92 -71 146 -144 163 -60 14
-53 14 -110 -5z"/>
</g>
</svg>
