<?xml version="1.0" standalone="no"?>
<!DOCTYPE svg PUBLIC "-//W3C//DTD SVG 20010904//EN"
 "http://www.w3.org/TR/2001/REC-SVG-20010904/DTD/svg10.dtd">
<svg version="1.0" xmlns="http://www.w3.org/2000/svg"
 width="33.000000pt" height="77.000000pt" viewBox="0 0 33.000000 77.000000"
 preserveAspectRatio="xMidYMid meet">
<metadata>
Created by potrace 1.14, written by Peter Selinger 2001-2017
</metadata>
<g transform="translate(0.000000,77.000000) scale(0.100000,-0.100000)"
fill="#000000" stroke="none">
<path fill="#000000" stroke="none" d="M161 753 c-21 -17 -22 -22 -12 -58 6
-21 9 -39 8 -40 -1 -1 -19 -12 -40 -24 -41 -25 -67 -22 -67 6 0 18 -37 49 -47
40 -11 -11 40 -127 58 -132 32 -11 41 -44 45 -169 4 -111 18 -270 29 -323 4
-16 0 -23 -17 -26 -21 -3 -21 -4 -4 -12 10 -4 35 -4 55 1 l36 9 -1 60 c-2 58
-2 59 12 30 7 -16 13 -39 14 -50 0 -26 10 -39 38 -54 42 -22 54 3 23 47 -16
21 -20 46 -22 117 -3 161 -3 163 29 167 24 3 27 7 30 48 2 25 -6 91 -19 147
-21 97 -23 102 -50 108 -32 7 -35 16 -18 43 8 13 9 28 2 48 -12 36 -49 43 -82
17z"/>
</g>
</svg>
