<?xml version="1.0" standalone="no"?>
<!DOCTYPE svg PUBLIC "-//W3C//DTD SVG 20010904//EN"
 "http://www.w3.org/TR/2001/REC-SVG-20010904/DTD/svg10.dtd">
<svg version="1.0" xmlns="http://www.w3.org/2000/svg"
 width="113.000000pt" height="258.000000pt" viewBox="0 0 113.000000 258.000000"
 preserveAspectRatio="xMidYMid meet">
<metadata>
Created by potrace 1.14, written by Peter Selinger 2001-2017
</metadata>
<g transform="translate(0.000000,258.000000) scale(0.100000,-0.100000)"
fill="#000000" stroke="none">
<path fill="#000000" stroke="none" d="M796 2561 l-89 -16 -40 -90 c-31 -69
-42 -108 -46 -165 l-6 -75 -159 -30 -159 -30 -98 -158 -98 -157 -11 -137 c-6
-77 -7 -139 -2 -142 5 -3 32 -21 60 -40 29 -18 52 -37 52 -42 0 -42 -60 -242
-110 -364 l-61 -150 -15 -189 c-8 -103 -13 -191 -10 -194 4 -3 50 16 104 43
79 39 113 64 183 132 l87 85 26 -80 27 -79 -32 -73 -31 -73 30 -66 c46 -103
46 -105 -4 -216 -39 -88 -44 -105 -38 -145 5 -34 16 -53 43 -78 l36 -33 23 28
c12 15 43 93 68 173 25 80 67 215 94 300 l49 155 71 70 c56 54 80 88 109 151
21 44 56 112 79 150 22 38 76 155 121 261 l81 192 0 231 0 231 -30 60 c-29 56
-36 62 -95 89 -87 39 -88 49 -26 183 48 104 50 109 44 175 l-6 69 -64 32 c-35
17 -64 31 -66 30 -1 -1 -42 -9 -91 -18z"/>
</g>
</svg>
