<?xml version="1.0" standalone="no"?>
<!DOCTYPE svg PUBLIC "-//W3C//DTD SVG 20010904//EN"
 "http://www.w3.org/TR/2001/REC-SVG-20010904/DTD/svg10.dtd">
<svg version="1.0" xmlns="http://www.w3.org/2000/svg"
 width="39.000000pt" height="111.000000pt" viewBox="0 0 39.000000 111.000000"
 preserveAspectRatio="xMidYMid meet">
<metadata>
Created by potrace 1.14, written by Peter Selinger 2001-2017
</metadata>
<g transform="translate(0.000000,111.000000) scale(0.100000,-0.100000)"
fill="#000000" stroke="none">
<path fill="#000000" stroke="none" d="M174 1070 c-63 -36 -74 -46 -119 -120
l-49 -81 3 -107 2 -107 69 -102 70 -102 0 -93 c0 -55 -9 -137 -21 -199 -20
-100 -20 -108 -5 -132 l17 -25 74 27 75 26 0 125 c1 69 7 161 15 205 9 47 15
144 15 233 0 154 0 154 35 233 25 58 35 94 35 132 l0 53 -73 36 -73 36 -70
-38z"/>
</g>
</svg>
