<?xml version="1.0" standalone="no"?>
<!DOCTYPE svg PUBLIC "-//W3C//DTD SVG 20010904//EN"
 "http://www.w3.org/TR/2001/REC-SVG-20010904/DTD/svg10.dtd">
<svg version="1.0" xmlns="http://www.w3.org/2000/svg"
 width="31.000000pt" height="82.000000pt" viewBox="0 0 31.000000 82.000000"
 preserveAspectRatio="xMidYMid meet">
<metadata>
Created by potrace 1.14, written by Peter Selinger 2001-2017
</metadata>
<g transform="translate(0.000000,82.000000) scale(0.100000,-0.100000)"
fill="#000000" stroke="none">
<path fill="#000000" stroke="none" d="M114 810 c-30 -12 -37 -26 -45 -88 -5
-32 -16 -63 -28 -76 -11 -11 -24 -32 -29 -46 -4 -14 -6 -154 -4 -312 l4 -288
130 0 130 0 -3 179 c-4 175 -3 180 19 203 18 20 22 36 22 84 0 85 -16 133 -58
171 -34 31 -35 36 -33 91 2 53 0 60 -23 75 -28 19 -50 20 -82 7z"/>
</g>
</svg>
