<?xml version="1.0" standalone="no"?>
<!DOCTYPE svg PUBLIC "-//W3C//DTD SVG 20010904//EN"
 "http://www.w3.org/TR/2001/REC-SVG-20010904/DTD/svg10.dtd">
<svg version="1.0" xmlns="http://www.w3.org/2000/svg"
 width="164.000000pt" height="422.000000pt" viewBox="0 0 164.000000 422.000000"
 preserveAspectRatio="xMidYMid meet">
<metadata>
Created by potrace 1.14, written by Peter Selinger 2001-2017
</metadata>
<g transform="translate(0.000000,422.000000) scale(0.100000,-0.100000)"
fill="#000000" stroke="none">
<path fill="#000000" stroke="none" d="M679 4213 c-54 -4 -58 -6 -104 -59 -43
-50 -48 -62 -57 -128 -9 -64 -8 -81 10 -137 18 -56 42 -182 42 -222 0 -9 -22
-20 -63 -30 -34 -9 -98 -32 -141 -52 l-78 -35 -65 -138 c-64 -135 -66 -138
-128 -181 l-64 -44 74 -88 75 -87 -31 -89 c-29 -82 -31 -94 -25 -173 5 -60 22
-131 58 -244 l50 -160 -22 -97 c-19 -83 -20 -105 -11 -149 8 -36 8 -71 1 -115
-6 -35 -14 -137 -19 -227 -11 -177 -2 -279 38 -455 l21 -91 -45 -85 -45 -84
35 -217 c28 -170 35 -244 35 -351 l0 -135 -86 -116 c-48 -64 -97 -141 -111
-172 l-24 -55 117 7 c101 6 124 11 175 36 49 25 70 30 132 30 l74 0 -27 113
c-15 61 -36 141 -48 177 -20 59 -21 75 -13 170 7 83 18 129 50 217 38 105 40
116 31 170 -6 32 -10 114 -10 183 1 101 6 147 28 240 25 103 34 124 90 207 60
89 132 160 118 117 -9 -29 -36 -164 -36 -177 0 -7 52 -43 115 -82 l115 -70 20
-61 c13 -39 65 -129 138 -240 65 -99 133 -203 151 -232 l33 -52 -16 -65 c-9
-35 -16 -68 -16 -73 0 -5 31 -48 69 -96 58 -75 71 -97 81 -149 12 -63 83 -187
106 -187 18 0 117 20 122 24 2 2 12 36 21 74 l18 70 -46 73 c-26 41 -74 126
-108 189 -72 138 -131 334 -143 477 -8 92 -8 92 -60 158 l-53 67 -3 221 c-3
142 -9 238 -17 267 -12 42 -16 45 -67 61 -35 10 -72 32 -102 58 -26 23 -67 53
-90 66 -24 14 -76 51 -117 84 -50 40 -92 64 -132 76 -37 12 -59 24 -59 33 0
19 -29 41 -54 42 -12 0 -16 5 -12 16 3 9 6 22 6 29 0 14 45 26 162 46 62 10
72 15 134 72 37 34 119 94 183 133 l116 72 7 48 c3 27 7 102 7 167 l1 118 43
19 c32 14 51 33 79 78 l36 59 -43 92 c-26 54 -52 130 -65 187 -19 87 -27 105
-85 189 -64 91 -66 93 -143 126 l-78 33 32 59 c28 49 35 73 42 155 l9 97 -30
45 c-16 25 -55 71 -86 103 -61 63 -50 61 -222 50z"/>
<path fill="#ffffff" stroke="none" d="M474 2314 c19 -7 21 -50 3 -79 -29 -48
-57 -10 -37 50 13 38 12 38 34 29z"/>
</g>
</svg>
