<?xml version="1.0" standalone="no"?>
<!DOCTYPE svg PUBLIC "-//W3C//DTD SVG 20010904//EN"
 "http://www.w3.org/TR/2001/REC-SVG-20010904/DTD/svg10.dtd">
<svg version="1.0" xmlns="http://www.w3.org/2000/svg"
 width="61.000000pt" height="140.000000pt" viewBox="0 0 61.000000 140.000000"
 preserveAspectRatio="xMidYMid meet">
<metadata>
Created by potrace 1.14, written by Peter Selinger 2001-2017
</metadata>
<g transform="translate(0.000000,140.000000) scale(0.100000,-0.100000)"
fill="#000000" stroke="none">
<path fill="#000000" stroke="none" d="M89 1375 c-45 -23 -73 -65 -43 -65 8 0
14 -4 14 -10 0 -5 -6 -10 -14 -10 -22 0 -33 -21 -39 -77 l-6 -53 53 0 c50 0
54 -2 66 -30 10 -24 9 -37 -3 -75 -21 -60 -12 -107 31 -172 31 -47 34 -58 30
-102 -3 -27 -12 -57 -21 -66 -10 -9 -17 -27 -17 -41 0 -33 46 -34 60 -1 8 19
9 18 9 -13 0 -47 -42 -98 -65 -79 -19 16 -44 63 -44 83 0 8 8 22 17 32 13 13
14 16 3 12 -8 -2 -20 -20 -26 -39 -10 -29 -9 -38 8 -62 14 -20 18 -36 13 -55
-17 -69 -24 -154 -14 -178 5 -15 25 -44 44 -67 31 -36 65 -120 65 -162 0 -9
-15 -22 -35 -31 -27 -11 -35 -20 -35 -39 0 -22 4 -25 35 -25 29 0 37 -5 45
-25 9 -24 13 -25 102 -25 158 0 196 22 149 88 -10 15 -32 54 -49 87 l-30 60
20 38 19 38 -46 62 c-25 34 -45 67 -44 72 1 6 40 45 87 88 77 70 89 78 119 75
22 -3 33 0 33 9 0 7 6 13 14 13 25 0 5 54 -36 94 -29 28 -43 53 -54 95 -23 88
-91 222 -135 264 -21 21 -39 41 -39 46 0 5 -18 21 -41 35 -38 25 -40 29 -25
45 8 9 22 37 31 61 15 42 14 45 -7 76 -24 34 -34 39 -108 48 -36 5 -54 1 -91
-19z"/>
</g>
</svg>
