<?xml version="1.0" standalone="no"?>
<!DOCTYPE svg PUBLIC "-//W3C//DTD SVG 20010904//EN"
 "http://www.w3.org/TR/2001/REC-SVG-20010904/DTD/svg10.dtd">
<svg version="1.0" xmlns="http://www.w3.org/2000/svg"
 width="34.000000pt" height="88.000000pt" viewBox="0 0 34.000000 88.000000"
 preserveAspectRatio="xMidYMid meet">
<metadata>
Created by potrace 1.14, written by Peter Selinger 2001-2017
</metadata>
<g transform="translate(0.000000,88.000000) scale(0.100000,-0.100000)"
fill="#000000" stroke="none">
<path fill="#000000" stroke="none" d="M250 873 c-14 -2 -39 -6 -57 -9 -21 -3
-40 -16 -54 -35 -22 -32 -21 -52 11 -135 6 -16 -7 -44 -60 -127 l-69 -106 -11
-222 c-11 -224 -9 -238 23 -239 16 0 47 67 47 105 0 73 12 117 32 123 14 3 18
14 18 47 0 64 24 130 74 204 24 37 50 78 56 92 6 13 27 34 45 47 29 18 35 28
35 57 0 28 -5 37 -30 50 -35 18 -35 23 -15 73 17 39 13 83 -8 81 -6 -1 -23 -3
-37 -6z"/>
</g>
</svg>
