<?xml version="1.0" standalone="no"?>
<!DOCTYPE svg PUBLIC "-//W3C//DTD SVG 20010904//EN"
 "http://www.w3.org/TR/2001/REC-SVG-20010904/DTD/svg10.dtd">
<svg version="1.0" xmlns="http://www.w3.org/2000/svg"
 width="28.000000pt" height="76.000000pt" viewBox="0 0 28.000000 76.000000"
 preserveAspectRatio="xMidYMid meet">
<metadata>
Created by potrace 1.14, written by Peter Selinger 2001-2017
</metadata>
<g transform="translate(0.000000,76.000000) scale(0.100000,-0.100000)"
fill="#000000" stroke="none">
<path fill="#000000" stroke="none" d="M200 741 c-14 -10 -48 -24 -77 -31 -42
-9 -59 -20 -88 -56 l-36 -44 35 -46 c43 -56 44 -75 11 -146 -40 -86 -40 -104
-2 -193 19 -45 44 -99 55 -121 l21 -41 -27 -26 c-14 -15 -24 -28 -21 -30 2 -2
37 -2 78 1 l74 4 -7 167 c-6 132 -4 181 8 239 14 62 56 319 56 336 0 13 -57 4
-80 -13z"/>
</g>
</svg>
