<?xml version="1.0" standalone="no"?>
<!DOCTYPE svg PUBLIC "-//W3C//DTD SVG 20010904//EN"
 "http://www.w3.org/TR/2001/REC-SVG-20010904/DTD/svg10.dtd">
<svg version="1.0" xmlns="http://www.w3.org/2000/svg"
 width="22.000000pt" height="52.000000pt" viewBox="0 0 22.000000 52.000000"
 preserveAspectRatio="xMidYMid meet">
<metadata>
Created by potrace 1.14, written by Peter Selinger 2001-2017
</metadata>
<g transform="translate(0.000000,52.000000) scale(0.100000,-0.100000)"
fill="#000000" stroke="none">
<path fill="#000000" stroke="none" d="M103 513 c-7 -3 -13 -11 -13 -19 0 -8
-15 -44 -34 -79 -36 -67 -54 -148 -38 -168 9 -11 0 -158 -13 -213 -6 -26 18
-39 45 -24 13 7 20 27 25 78 4 38 10 74 14 81 9 14 68 -71 80 -116 4 -15 10
-27 14 -25 4 1 14 2 22 2 21 0 19 46 -4 84 -16 26 -19 48 -17 131 2 82 -1 107
-18 140 -11 22 -19 51 -18 65 2 29 -27 70 -45 63z"/>
</g>
</svg>
