<?xml version="1.0" standalone="no"?>
<!DOCTYPE svg PUBLIC "-//W3C//DTD SVG 20010904//EN"
 "http://www.w3.org/TR/2001/REC-SVG-20010904/DTD/svg10.dtd">
<svg version="1.0" xmlns="http://www.w3.org/2000/svg"
 width="57.000000pt" height="145.000000pt" viewBox="0 0 57.000000 145.000000"
 preserveAspectRatio="xMidYMid meet">
<metadata>
Created by potrace 1.14, written by Peter Selinger 2001-2017
</metadata>
<g transform="translate(0.000000,145.000000) scale(0.100000,-0.100000)"
fill="#000000" stroke="none">
<path fill="#000000" stroke="none" d="M304 1427 l-29 -25 23 -46 c36 -75 25
-156 -22 -156 -23 0 -24 -2 -15 -42 5 -24 23 -73 41 -110 30 -62 36 -68 64
-68 17 0 38 -8 48 -19 15 -17 15 -19 1 -25 -9 -3 -38 -6 -65 -6 -41 0 -52 -4
-70 -27 -16 -20 -21 -38 -18 -65 l3 -37 -50 -3 c-55 -3 -55 -3 -42 -85 9 -51
-4 -56 -45 -16 l-28 27 0 -53 c0 -54 -16 -96 -56 -144 -27 -32 -30 -54 -13
-91 9 -19 8 -40 -4 -93 -9 -37 -18 -103 -21 -147 -7 -97 13 -141 69 -152 19
-3 41 -15 51 -25 16 -18 34 -19 231 -19 l215 0 -5 58 c-4 54 -42 294 -102 642
-14 85 -24 164 -20 177 3 13 16 25 31 29 39 10 52 48 55 164 4 98 3 105 -16
108 -33 6 -45 32 -45 98 0 42 5 65 15 74 22 18 18 43 -10 70 -19 18 -40 25
-83 28 -51 4 -62 1 -88 -21z"/>
</g>
</svg>
