<?xml version="1.0" standalone="no"?>
<!DOCTYPE svg PUBLIC "-//W3C//DTD SVG 20010904//EN"
 "http://www.w3.org/TR/2001/REC-SVG-20010904/DTD/svg10.dtd">
<svg version="1.0" xmlns="http://www.w3.org/2000/svg"
 width="59.000000pt" height="153.000000pt" viewBox="0 0 59.000000 153.000000"
 preserveAspectRatio="xMidYMid meet">
<metadata>
Created by potrace 1.14, written by Peter Selinger 2001-2017
</metadata>
<g transform="translate(0.000000,153.000000) scale(0.100000,-0.100000)"
fill="#000000" stroke="none">
<path fill="#000000" stroke="none" d="M374 1523 c-50 -4 -53 -6 -89 -60 l-37
-55 10 -103 c6 -59 18 -122 29 -147 31 -70 17 -100 -65 -142 -74 -38 -128 -86
-154 -137 -23 -45 -64 -302 -58 -359 4 -38 8 -45 26 -44 21 0 22 0 7 -50 -8
-28 -18 -55 -22 -61 -3 -5 -7 -53 -8 -105 -1 -52 -5 -124 -8 -160 -8 -74 -1
-85 53 -96 41 -8 42 9 5 48 -23 24 -25 32 -17 56 10 29 31 33 86 18 l26 -8 -9
41 c-7 34 -4 58 16 129 13 48 29 117 35 154 13 84 20 103 71 188 l41 69 -3
112 -3 111 61 44 c60 43 60 44 98 151 21 59 57 141 81 181 24 40 44 83 44 97
0 17 -19 39 -67 79 -37 31 -74 55 -83 54 -8 -1 -38 -3 -66 -5z"/>
</g>
</svg>
