<?xml version="1.0" standalone="no"?>
<!DOCTYPE svg PUBLIC "-//W3C//DTD SVG 20010904//EN"
 "http://www.w3.org/TR/2001/REC-SVG-20010904/DTD/svg10.dtd">
<svg version="1.0" xmlns="http://www.w3.org/2000/svg"
 width="69.000000pt" height="183.000000pt" viewBox="0 0 69.000000 183.000000"
 preserveAspectRatio="xMidYMid meet">
<metadata>
Created by potrace 1.14, written by Peter Selinger 2001-2017
</metadata>
<g transform="translate(0.000000,183.000000) scale(0.100000,-0.100000)"
fill="#000000" stroke="none">
<path fill="#000000" stroke="none" d="M244 1809 l-52 -20 -7 -92 c-3 -51 -11
-117 -17 -148 -9 -53 -14 -59 -89 -124 -43 -37 -79 -71 -79 -76 0 -4 45 -44
99 -89 118 -96 129 -110 208 -260 l61 -115 5 -130 c4 -89 21 -226 56 -434 28
-168 53 -306 54 -307 2 -2 21 -6 42 -9 62 -9 73 15 120 255 l41 205 -14 100
c-7 55 -31 177 -53 271 l-41 171 32 45 c29 41 32 55 45 179 l13 134 -25 45
c-21 38 -45 57 -144 118 l-119 73 0 80 c0 72 -3 83 -27 115 -32 39 -40 40
-109 13z"/>
</g>
</svg>
