<?xml version="1.0" standalone="no"?>
<!DOCTYPE svg PUBLIC "-//W3C//DTD SVG 20010904//EN"
 "http://www.w3.org/TR/2001/REC-SVG-20010904/DTD/svg10.dtd">
<svg version="1.0" xmlns="http://www.w3.org/2000/svg"
 width="128.000000pt" height="358.000000pt" viewBox="0 0 128.000000 358.000000"
 preserveAspectRatio="xMidYMid meet">
<metadata>
Created by potrace 1.14, written by Peter Selinger 2001-2017
</metadata>
<g transform="translate(0.000000,358.000000) scale(0.100000,-0.100000)"
fill="#000000" stroke="none">
<path fill="#000000" stroke="none" d="M265 3508 c-77 -38 -141 -71 -143 -73
-2 -2 35 -274 43 -311 3 -16 22 -28 67 -44 35 -13 64 -24 66 -26 2 -1 -35
-159 -81 -350 -47 -192 -116 -502 -153 -688 l-68 -340 28 -245 c15 -135 30
-270 34 -300 l7 -54 76 97 77 98 68 346 69 345 7 -79 c3 -43 16 -369 28 -724
12 -355 23 -654 25 -666 3 -11 62 -95 133 -188 170 -220 199 -241 396 -280
l139 -28 23 29 c13 15 23 34 24 41 0 21 -96 335 -114 369 l-16 33 -56 -28 -56
-27 -24 28 c-24 28 -31 75 -17 125 5 21 11 23 54 20 l48 -3 -41 74 c-40 73
-41 74 -34 149 8 85 35 158 72 193 24 22 24 22 66 4 24 -10 66 -42 93 -71 l50
-53 33 482 c24 345 41 530 61 652 l27 170 -12 245 c-7 135 -13 270 -13 300
l-1 55 -161 90 c-100 56 -164 98 -169 111 -5 11 -23 76 -41 145 -29 109 -42
139 -106 244 -40 66 -77 126 -82 134 -6 10 -253 72 -281 70 -3 0 -68 -32 -145
-71z"/>
<path fill="#ffffff" stroke="none" d="M1016 1725 c28 -35 29 -44 10 -70 -15
-21 -73 -27 -81 -7 -2 6 -11 12 -18 12 -8 0 -20 6 -27 14 -6 8 -25 16 -41 18
l-29 3 18 30 c18 28 22 30 81 30 58 0 65 -2 87 -30z"/>
</g>
</svg>
