<?xml version="1.0" standalone="no"?>
<!DOCTYPE svg PUBLIC "-//W3C//DTD SVG 20010904//EN"
 "http://www.w3.org/TR/2001/REC-SVG-20010904/DTD/svg10.dtd">
<svg version="1.0" xmlns="http://www.w3.org/2000/svg"
 width="7.000000pt" height="19.000000pt" viewBox="0 0 7.000000 19.000000"
 preserveAspectRatio="xMidYMid meet">
<metadata>
Created by potrace 1.14, written by Peter Selinger 2001-2017
</metadata>
<g transform="translate(0.000000,19.000000) scale(0.100000,-0.100000)"
fill="#000000" stroke="none">
<path fill="#000000" stroke="none" d="M10 175 c7 -8 19 -15 26 -15 9 0 14
-11 14 -29 0 -17 5 -33 10 -36 6 -4 10 13 10 44 l0 51 -36 0 c-31 0 -35 -2
-24 -15z"/>
<path fill="#000000" stroke="none" d="M57 73 c-11 -10 -8 -61 3 -68 6 -4 10
10 10 34 0 42 -2 46 -13 34z"/>
</g>
</svg>
