<?xml version="1.0" standalone="no"?>
<!DOCTYPE svg PUBLIC "-//W3C//DTD SVG 20010904//EN"
 "http://www.w3.org/TR/2001/REC-SVG-20010904/DTD/svg10.dtd">
<svg version="1.0" xmlns="http://www.w3.org/2000/svg"
 width="28.000000pt" height="75.000000pt" viewBox="0 0 28.000000 75.000000"
 preserveAspectRatio="xMidYMid meet">
<metadata>
Created by potrace 1.14, written by Peter Selinger 2001-2017
</metadata>
<g transform="translate(0.000000,75.000000) scale(0.100000,-0.100000)"
fill="#000000" stroke="none">
<path fill="#000000" stroke="none" d="M30 730 c-6 -12 -7 -33 -2 -58 9 -39 2
-75 -17 -87 -7 -4 1 -16 19 -31 27 -23 29 -30 24 -67 -4 -23 -11 -49 -15 -58
-5 -9 -11 -62 -13 -118 -5 -88 -2 -111 19 -174 13 -39 26 -87 30 -105 6 -27 9
-31 21 -21 11 9 13 26 8 70 -5 41 -3 59 5 59 6 0 11 -4 11 -9 0 -5 9 -7 20 -4
14 4 18 12 15 32 -2 14 -7 43 -10 63 -4 25 -12 39 -25 43 -18 6 -19 13 -14 74
5 50 3 74 -9 97 -13 25 -13 34 -1 69 7 22 14 41 14 42 0 0 14 6 31 12 27 9 29
13 19 31 -6 12 -23 26 -36 32 -21 10 -25 17 -20 41 12 59 -49 114 -74 67z"/>
<path fill="#000000" stroke="none" d="M117 476 c-3 -8 1 -22 8 -33 13 -17 14
-16 15 15 0 33 -13 43 -23 18z"/>
<path fill="#000000" stroke="none" d="M195 230 c3 -19 10 -73 14 -119 8 -84
17 -101 54 -101 21 0 21 3 1 41 -8 17 -24 65 -35 107 -22 84 -45 132 -34 72z"/>
</g>
</svg>
