<?xml version="1.0" standalone="no"?>
<!DOCTYPE svg PUBLIC "-//W3C//DTD SVG 20010904//EN"
 "http://www.w3.org/TR/2001/REC-SVG-20010904/DTD/svg10.dtd">
<svg version="1.0" xmlns="http://www.w3.org/2000/svg"
 width="9.000000pt" height="23.000000pt" viewBox="0 0 9.000000 23.000000"
 preserveAspectRatio="xMidYMid meet">
<metadata>
Created by potrace 1.14, written by Peter Selinger 2001-2017
</metadata>
<g transform="translate(0.000000,23.000000) scale(0.100000,-0.100000)"
fill="#000000" stroke="none">
<path fill="#000000" stroke="none" d="M40 194 c-7 -20 -10 -58 -8 -85 4 -39
1 -52 -13 -65 -11 -10 -19 -24 -19 -32 0 -12 6 -9 25 8 l26 24 6 -22 c3 -12
12 -22 20 -22 8 0 12 4 9 8 -4 6 -14 141 -16 215 0 21 -20 2 -30 -29z"/>
</g>
</svg>
