<?xml version="1.0" standalone="no"?>
<!DOCTYPE svg PUBLIC "-//W3C//DTD SVG 20010904//EN"
 "http://www.w3.org/TR/2001/REC-SVG-20010904/DTD/svg10.dtd">
<svg version="1.0" xmlns="http://www.w3.org/2000/svg"
 width="58.000000pt" height="142.000000pt" viewBox="0 0 58.000000 142.000000"
 preserveAspectRatio="xMidYMid meet">
<metadata>
Created by potrace 1.14, written by Peter Selinger 2001-2017
</metadata>
<g transform="translate(0.000000,142.000000) scale(0.100000,-0.100000)"
fill="#000000" stroke="none">
<path fill="#000000" stroke="none" d="M161 1356 c-12 -33 -21 -80 -21 -103 0
-32 -5 -46 -25 -61 -36 -29 -103 -180 -111 -252 l-7 -59 53 -61 c47 -54 52
-64 47 -98 -6 -48 26 -282 55 -394 23 -89 22 -100 -14 -149 -10 -14 0 -30 63
-98 62 -68 79 -81 105 -81 27 0 32 5 43 38 12 36 11 43 -17 98 l-30 60 88 136
88 136 -35 139 c-21 84 -33 151 -30 170 3 19 -1 50 -11 74 -10 25 -12 44 -7
46 6 2 48 19 95 36 52 20 85 38 85 47 0 8 -18 25 -40 37 l-40 23 -32 -38 c-17
-20 -33 -35 -36 -32 -2 3 -32 49 -65 103 -47 76 -61 107 -61 135 0 20 -5 66
-11 102 -12 65 -12 65 -59 86 l-48 21 -22 -61z"/>
</g>
</svg>
