<?xml version="1.0" standalone="no"?>
<!DOCTYPE svg PUBLIC "-//W3C//DTD SVG 20010904//EN"
 "http://www.w3.org/TR/2001/REC-SVG-20010904/DTD/svg10.dtd">
<svg version="1.0" xmlns="http://www.w3.org/2000/svg"
 width="34.000000pt" height="97.000000pt" viewBox="0 0 34.000000 97.000000"
 preserveAspectRatio="xMidYMid meet">
<metadata>
Created by potrace 1.14, written by Peter Selinger 2001-2017
</metadata>
<g transform="translate(0.000000,97.000000) scale(0.100000,-0.100000)"
fill="#000000" stroke="none">
<path fill="#000000" stroke="none" d="M103 955 c-11 -8 -24 -31 -28 -52 -4
-21 -20 -69 -35 -108 -16 -38 -32 -96 -36 -127 l-6 -58 45 0 c25 0 48 -4 51
-9 3 -5 -6 -41 -21 -80 l-26 -71 30 -57 c26 -50 32 -73 37 -164 l7 -107 -29
-33 c-16 -19 -32 -44 -36 -55 -6 -19 -2 -22 31 -28 21 -3 85 -6 143 -6 l104 0
-39 40 -40 41 34 230 c18 126 31 232 28 235 -3 3 -31 -2 -62 -11 -75 -22 -105
-11 -105 39 0 19 5 38 10 41 7 4 9 36 4 90 l-7 84 34 20 33 20 24 -22 c13 -12
36 -47 52 -77 l27 -54 5 38 c3 30 -3 49 -32 96 -20 33 -42 77 -50 99 -19 58
-96 82 -147 46z"/>
</g>
</svg>
