<?xml version="1.0" standalone="no"?>
<!DOCTYPE svg PUBLIC "-//W3C//DTD SVG 20010904//EN"
 "http://www.w3.org/TR/2001/REC-SVG-20010904/DTD/svg10.dtd">
<svg version="1.0" xmlns="http://www.w3.org/2000/svg"
 width="123.000000pt" height="319.000000pt" viewBox="0 0 123.000000 319.000000"
 preserveAspectRatio="xMidYMid meet">
<metadata>
Created by potrace 1.14, written by Peter Selinger 2001-2017
</metadata>
<g transform="translate(0.000000,319.000000) scale(0.100000,-0.100000)"
fill="#000000" stroke="none">
<path fill="#000000" stroke="none" d="M620 3159 c-68 -16 -127 -33 -131 -37
-4 -4 -19 -36 -33 -71 l-26 -64 46 -74 c26 -41 42 -78 38 -82 -5 -4 -36 -18
-69 -31 -46 -18 -105 -61 -253 -184 -105 -88 -192 -164 -192 -167 0 -11 44
-17 160 -24 102 -5 108 -4 226 33 l122 39 138 113 c242 197 262 217 299 290
l34 67 -40 108 c-21 60 -39 110 -39 112 0 2 -35 3 -77 2 -47 -1 -127 -13 -203
-30z"/>
<path fill="#000000" stroke="none" d="M657 2377 l-169 -102 6 -56 5 -57 -53
-40 -53 -40 -47 46 -48 47 47 -88 47 -88 -29 -125 -29 -125 24 -202 23 -202
61 -115 c34 -63 71 -130 83 -147 l22 -33 -35 -177 -34 -178 43 -197 42 -198
-42 -96 c-23 -53 -40 -98 -39 -99 2 -2 35 -19 74 -38 96 -48 231 -67 483 -67
l189 0 -12 50 c-9 42 -26 66 -120 169 l-110 119 -38 133 c-42 147 -44 178 -27
372 11 132 4 225 -55 801 l-24 229 34 90 35 91 -25 203 c-14 111 -28 207 -31
213 -3 5 -12 10 -18 9 -7 0 -88 -46 -180 -102z"/>
</g>
</svg>
