<?xml version="1.0" standalone="no"?>
<!DOCTYPE svg PUBLIC "-//W3C//DTD SVG 20010904//EN"
 "http://www.w3.org/TR/2001/REC-SVG-20010904/DTD/svg10.dtd">
<svg version="1.0" xmlns="http://www.w3.org/2000/svg"
 width="145.000000pt" height="414.000000pt" viewBox="0 0 145.000000 414.000000"
 preserveAspectRatio="xMidYMid meet">
<metadata>
Created by potrace 1.14, written by Peter Selinger 2001-2017
</metadata>
<g transform="translate(0.000000,414.000000) scale(0.100000,-0.100000)"
fill="#000000" stroke="none">
<path fill="#000000" stroke="none" d="M684 4063 c18 -43 51 -114 73 -158 l40
-80 -24 -80 c-20 -67 -23 -100 -22 -205 1 -107 -2 -140 -26 -233 l-28 -108 21
-75 20 -74 -135 0 -136 0 6 -92 5 -93 91 -86 90 -85 327 -93 c179 -50 328 -90
330 -88 2 2 -20 102 -49 222 l-53 218 -210 94 c-115 52 -211 97 -214 99 -2 3
1 8 7 12 20 12 103 372 126 548 l23 171 -105 94 c-57 52 -124 111 -148 132
l-43 39 34 -79z"/>
<path fill="#000000" stroke="none" d="M310 2145 c0 -36 71 -1209 73 -1212 2
-1 109 28 238 65 234 68 234 68 468 192 230 122 234 126 298 200 l65 75 -5
264 c-3 145 -8 265 -10 268 -3 2 -243 35 -533 73 -291 38 -544 71 -561 74 -18
3 -33 3 -33 1z"/>
<path fill="#000000" stroke="none" d="M960 529 c-279 -184 -333 -215 -635
-366 -181 -90 -321 -162 -310 -159 11 2 104 8 207 11 l186 7 17 77 c9 42 18
83 21 91 4 14 143 84 151 76 2 -2 15 -43 28 -92 13 -49 30 -107 38 -129 l14
-40 279 0 279 0 27 325 c29 333 30 391 13 396 -5 2 -147 -87 -315 -197z"/>
</g>
</svg>
