<?xml version="1.0" standalone="no"?>
<!DOCTYPE svg PUBLIC "-//W3C//DTD SVG 20010904//EN"
 "http://www.w3.org/TR/2001/REC-SVG-20010904/DTD/svg10.dtd">
<svg version="1.0" xmlns="http://www.w3.org/2000/svg"
 width="83.000000pt" height="206.000000pt" viewBox="0 0 83.000000 206.000000"
 preserveAspectRatio="xMidYMid meet">
<metadata>
Created by potrace 1.14, written by Peter Selinger 2001-2017
</metadata>
<g transform="translate(0.000000,206.000000) scale(0.100000,-0.100000)"
fill="#000000" stroke="none">
<path fill="#000000" stroke="none" d="M418 2045 c-27 -15 -30 -24 -44 -145
l-6 -55 -150 -119 c-82 -65 -147 -121 -144 -124 3 -3 -12 -26 -34 -52 -43 -51
-50 -85 -23 -105 13 -10 33 -6 109 25 l92 38 6 -142 c3 -77 9 -227 12 -332 4
-119 24 -347 53 -610 l47 -419 79 2 c44 1 137 5 207 9 l126 6 12 48 c9 37 8
82 -4 206 -26 269 -48 674 -41 765 4 58 3 89 -4 94 -14 8 -14 94 0 189 l11 75
29 -14 c39 -21 58 -19 70 8 9 19 5 41 -18 110 -16 49 -25 91 -21 95 15 15 -24
94 -61 126 -105 91 -94 71 -106 207 l-10 124 -80 2 c-55 2 -88 -2 -107 -12z"/>
</g>
</svg>
