<?xml version="1.0" standalone="no"?>
<!DOCTYPE svg PUBLIC "-//W3C//DTD SVG 20010904//EN"
 "http://www.w3.org/TR/2001/REC-SVG-20010904/DTD/svg10.dtd">
<svg version="1.0" xmlns="http://www.w3.org/2000/svg"
 width="263.000000pt" height="627.000000pt" viewBox="0 0 263.000000 627.000000"
 preserveAspectRatio="xMidYMid meet">
<metadata>
Created by potrace 1.14, written by Peter Selinger 2001-2017
</metadata>
<g transform="translate(0.000000,627.000000) scale(0.100000,-0.100000)"
fill="#000000" stroke="none">
<path fill="#000000" stroke="none" d="M387 6263 c-3 -5 -42 -91 -87 -193 -61
-137 -111 -275 -192 -529 l-109 -344 15 -2595 c8 -1427 16 -2595 18 -2597 2
-2 343 3 758 10 415 8 794 15 841 15 l86 0 -39 108 c-22 59 -42 109 -44 111
-2 3 -10 -1 -16 -7 -28 -28 -63 -13 -128 53 l-64 65 18 31 c18 30 18 31 -3 50
-39 36 -26 109 20 109 32 0 28 -9 58 140 l20 95 -115 428 c-63 236 -114 434
-114 440 0 7 38 99 85 205 80 181 88 206 127 390 43 198 49 258 34 344 -8 46
-8 47 38 93 26 26 49 59 53 76 3 16 14 34 24 40 12 6 19 21 19 39 0 25 15 41
116 120 64 49 121 90 128 90 6 0 65 109 131 243 l120 242 180 184 c113 115
171 180 156 176 -18 -5 -6 11 42 56 39 37 67 73 67 84 0 11 -9 35 -20 53 -17
27 -25 32 -59 32 -35 0 -51 -11 -152 -95 -118 -99 -169 -130 -201 -119 -35 11
-43 3 169 148 79 54 143 101 143 105 0 4 -38 25 -84 45 -79 35 -87 37 -123 26
-64 -21 -147 -76 -190 -128 -37 -44 -202 -172 -221 -172 -4 0 -13 4 -21 9 -34
22 134 193 247 254 36 20 81 65 82 82 0 6 -32 30 -71 54 l-71 43 -65 -27 c-49
-21 -91 -52 -169 -124 -57 -53 -129 -118 -160 -146 -31 -27 -104 -116 -162
-198 -59 -81 -149 -205 -199 -274 -51 -69 -93 -129 -93 -134 0 -4 4 -10 9 -13
12 -8 25 -82 22 -123 -1 -17 2 -41 8 -52 10 -17 2 -32 -52 -103 -34 -46 -87
-123 -117 -172 -61 -100 -59 -101 -86 28 l-17 78 -19 -31 c-11 -17 -23 -31
-27 -31 -3 0 -58 221 -120 492 l-114 492 29 23 c71 57 230 156 272 169 41 12
59 28 132 115 67 80 107 117 195 177 l110 77 95 5 95 5 80 225 80 225 117 160
c132 181 120 173 328 236 58 18 108 35 112 38 4 4 -2 80 -14 170 l-22 163
-136 121 c-74 67 -136 122 -138 123 -2 1 6 39 18 84 12 45 19 84 16 87 -4 4
-1327 32 -1568 33 -59 0 -109 -3 -111 -7z"/>
</g>
</svg>
