<?xml version="1.0" standalone="no"?>
<!DOCTYPE svg PUBLIC "-//W3C//DTD SVG 20010904//EN"
 "http://www.w3.org/TR/2001/REC-SVG-20010904/DTD/svg10.dtd">
<svg version="1.0" xmlns="http://www.w3.org/2000/svg"
 width="53.000000pt" height="143.000000pt" viewBox="0 0 53.000000 143.000000"
 preserveAspectRatio="xMidYMid meet">
<metadata>
Created by potrace 1.14, written by Peter Selinger 2001-2017
</metadata>
<g transform="translate(0.000000,143.000000) scale(0.100000,-0.100000)"
fill="#000000" stroke="none">
<path fill="#000000" stroke="none" d="M148 1402 l-45 -26 -10 -120 c-10 -115
-10 -122 10 -143 31 -34 61 -29 88 13 15 25 27 34 40 31 11 -3 16 0 13 8 -3 7
-1 16 5 20 7 4 11 47 11 109 l0 102 -33 16 c-32 15 -35 15 -79 -10z"/>
<path fill="#000000" stroke="none" d="M478 1373 c-6 -79 -3 -189 5 -195 21
-13 27 3 27 67 0 35 5 67 10 70 6 3 10 11 10 16 0 6 -5 7 -12 3 -8 -5 -9 2 -5
24 6 27 4 32 -13 32 -12 0 -21 -7 -22 -17z"/>
<path fill="#000000" stroke="none" d="M249 1094 l-22 -36 23 -47 c25 -51 50
-176 43 -215 -4 -18 -18 -30 -54 -45 -42 -18 -55 -20 -96 -11 -26 6 -53 16
-61 22 -11 9 -12 7 -8 -13 55 -241 60 -327 21 -389 -24 -37 -25 -48 -25 -179
l0 -140 46 -21 c46 -20 108 -25 152 -14 33 9 29 48 -8 74 -35 25 -38 50 -14
145 14 54 20 65 45 75 32 14 39 44 12 58 -15 9 -15 12 1 47 15 31 16 44 7 82
-11 40 -9 71 5 140 3 14 9 20 18 17 22 -9 38 57 41 169 2 54 8 104 14 110 7 9
2 34 -16 84 -21 59 -32 76 -63 97 l-39 25 -22 -35z"/>
<path fill="#000000" stroke="none" d="M16 1066 c-11 -17 -13 -32 -7 -47 l8
-23 27 27 c22 22 25 30 16 47 -14 26 -24 25 -44 -4z"/>
</g>
</svg>
