<?xml version="1.0" standalone="no"?>
<!DOCTYPE svg PUBLIC "-//W3C//DTD SVG 20010904//EN"
 "http://www.w3.org/TR/2001/REC-SVG-20010904/DTD/svg10.dtd">
<svg version="1.0" xmlns="http://www.w3.org/2000/svg"
 width="8.000000pt" height="21.000000pt" viewBox="0 0 8.000000 21.000000"
 preserveAspectRatio="xMidYMid meet">
<metadata>
Created by potrace 1.14, written by Peter Selinger 2001-2017
</metadata>
<g transform="translate(0.000000,21.000000) scale(0.100000,-0.100000)"
fill="#000000" stroke="none">
<path fill="#000000" stroke="none" d="M34 193 c-3 -10 -12 -30 -20 -45 -18
-34 -18 -42 2 -34 13 5 15 -3 13 -49 -1 -30 0 -58 4 -62 4 -3 7 1 7 10 0 20
11 22 29 5 11 -11 12 -9 6 12 -4 14 -9 39 -12 55 -3 23 -2 27 6 15 9 -12 11
-11 11 9 0 33 -21 101 -32 101 -5 0 -11 -8 -14 -17z"/>
</g>
</svg>
