<?xml version="1.0" standalone="no"?>
<!DOCTYPE svg PUBLIC "-//W3C//DTD SVG 20010904//EN"
 "http://www.w3.org/TR/2001/REC-SVG-20010904/DTD/svg10.dtd">
<svg version="1.0" xmlns="http://www.w3.org/2000/svg"
 width="153.000000pt" height="437.000000pt" viewBox="0 0 153.000000 437.000000"
 preserveAspectRatio="xMidYMid meet">
<metadata>
Created by potrace 1.14, written by Peter Selinger 2001-2017
</metadata>
<g transform="translate(0.000000,437.000000) scale(0.100000,-0.100000)"
fill="#000000" stroke="none">
<path fill="#000000" stroke="none" d="M659 4352 c-45 -12 -61 -22 -74 -46
-21 -36 -99 -115 -140 -142 l-28 -18 7 -96 c3 -52 15 -132 25 -177 16 -71 17
-81 3 -76 -27 11 -5 -77 30 -121 l31 -38 -54 -49 c-38 -34 -71 -53 -109 -64
-87 -25 -112 -37 -148 -69 -64 -57 -132 -225 -132 -329 0 -67 -26 -244 -51
-345 l-21 -84 23 -91 c12 -51 50 -153 84 -227 34 -74 65 -156 68 -181 6 -47
35 -119 47 -119 4 0 19 -11 34 -25 21 -20 26 -33 27 -77 0 -29 12 -141 27
-248 l27 -194 40 -15 c22 -8 45 -22 52 -31 7 -8 35 -71 63 -139 41 -97 49
-126 38 -132 -22 -15 -38 -10 -47 14 -6 16 -32 31 -96 55 -78 29 -91 31 -120
21 -23 -9 -39 -24 -50 -49 -16 -35 -15 -41 9 -135 l25 -98 -38 -76 c-52 -103
-64 -206 -30 -256 25 -36 75 -50 116 -32 25 11 113 192 121 250 5 40 18 46 66
27 25 -9 25 -12 20 -67 -11 -104 58 -500 101 -584 20 -38 20 -107 1 -197 -21
-97 -21 -98 17 -55 65 74 95 119 132 198 46 96 52 140 61 452 5 177 9 220 20
216 7 -2 42 10 78 27 l65 32 15 69 c9 37 16 74 16 82 0 7 13 33 29 58 32 51
101 250 101 292 0 48 -29 85 -72 92 -38 7 -45 18 -29 44 6 9 18 11 40 6 34 -7
38 0 16 29 -19 26 -19 60 0 76 13 11 20 9 39 -9 26 -25 38 -18 30 16 -5 16 0
31 13 46 16 17 24 53 38 152 17 129 17 132 -4 235 -25 124 -76 284 -103 322
-34 49 -109 68 -272 68 -117 0 -146 3 -156 15 -11 13 -8 21 21 52 40 42 102
70 178 83 120 18 350 83 356 99 4 11 -8 28 -37 53 -30 26 -38 37 -25 38 20 0
21 6 6 79 -9 45 -9 63 2 89 l14 34 63 -65 62 -65 0 -101 c0 -56 4 -101 8 -101
7 0 72 37 140 80 33 22 30 93 -7 167 -16 32 -32 70 -35 86 -6 24 -3 27 18 27
13 0 38 3 56 6 30 7 31 8 25 43 -13 69 -76 195 -141 279 -36 46 -63 86 -61 88
2 2 24 -3 48 -11 l44 -16 -39 40 -39 40 37 15 c32 13 36 19 31 38 -12 37 -22
44 -81 57 -49 11 -60 11 -88 -4 -29 -16 -34 -16 -80 3 -45 17 -51 24 -62 63
-12 40 -21 49 -73 79 -51 28 -59 36 -50 51 5 10 14 21 19 24 20 12 9 95 -26
217 -20 68 -38 131 -41 141 -6 18 -171 108 -195 106 -7 -1 -38 -9 -69 -17z"/>
</g>
</svg>
