<?xml version="1.0" standalone="no"?>
<!DOCTYPE svg PUBLIC "-//W3C//DTD SVG 20010904//EN"
 "http://www.w3.org/TR/2001/REC-SVG-20010904/DTD/svg10.dtd">
<svg version="1.0" xmlns="http://www.w3.org/2000/svg"
 width="154.000000pt" height="388.000000pt" viewBox="0 0 154.000000 388.000000"
 preserveAspectRatio="xMidYMid meet">
<metadata>
Created by potrace 1.14, written by Peter Selinger 2001-2017
</metadata>
<g transform="translate(0.000000,388.000000) scale(0.100000,-0.100000)"
fill="#000000" stroke="none">
<path fill="#000000" stroke="none" d="M1047 3870 c-55 -10 -60 -20 -32 -62
39 -58 32 -97 -15 -90 -41 6 -80 -5 -80 -23 0 -24 44 -46 110 -55 34 -5 63
-10 64 -12 2 -2 15 -20 30 -40 16 -21 25 -38 20 -38 -4 0 2 -10 13 -22 35 -40
70 -111 96 -193 44 -145 50 -129 -51 -150 -48 -9 -112 -16 -142 -14 -115 8
-217 0 -272 -21 -31 -11 -62 -18 -69 -15 -21 8 -22 99 -3 178 9 38 14 83 11
102 -3 19 -1 49 4 68 12 45 -3 122 -31 152 -18 19 -35 24 -110 30 -83 7 -129
0 -180 -25 -21 -10 -38 -91 -39 -187 -1 -73 2 -85 24 -111 14 -17 25 -38 25
-47 0 -20 -38 -54 -61 -55 -16 0 -43 -33 -68 -82 l-14 -27 -28 20 c-16 11 -29
28 -29 37 1 39 30 273 35 282 9 15 24 166 18 188 -5 23 -22 28 -108 38 l-60 7
21 -24 c45 -51 37 -102 -52 -309 -48 -112 -57 -142 -59 -202 -3 -67 0 -76 40
-154 48 -92 92 -160 123 -188 12 -10 29 -41 38 -69 9 -29 28 -76 42 -107 55
-126 103 -266 104 -309 1 -61 -15 -159 -42 -251 -29 -102 -37 -254 -17 -347 9
-39 31 -107 50 -150 19 -43 38 -94 41 -113 4 -19 30 -81 57 -137 l50 -101 -21
-80 c-11 -44 -20 -90 -20 -102 0 -13 -22 -43 -56 -76 -49 -49 -63 -71 -119
-204 -80 -186 -90 -205 -131 -257 -23 -28 -32 -47 -27 -59 5 -13 -11 -33 -60
-79 -53 -50 -67 -69 -67 -92 0 -34 10 -48 67 -92 41 -31 47 -43 79 -159 6 -22
71 -42 137 -42 94 0 116 32 48 71 -55 30 -66 57 -66 158 0 99 0 99 141 311 98
148 141 200 148 179 2 -8 17 -59 32 -114 15 -55 33 -112 40 -127 8 -15 14 -37
14 -48 0 -28 30 -120 40 -120 14 0 32 -135 21 -164 -6 -15 -11 -41 -11 -57 l0
-29 108 0 c115 1 187 11 205 29 18 18 -4 44 -52 61 -47 17 -63 36 -90 111 -29
81 -49 205 -61 387 -6 89 -16 177 -22 194 -8 22 -7 49 2 100 7 38 13 109 14
156 2 73 9 103 40 186 20 54 48 148 61 208 14 61 39 156 56 212 l31 101 -6
370 c-4 204 -12 418 -17 478 -10 113 -4 144 37 178 9 7 27 31 40 51 20 31 30
38 57 38 55 0 219 63 293 112 141 95 180 144 140 177 -8 7 -27 42 -42 79 -16
37 -79 137 -141 224 -89 123 -113 165 -113 190 0 51 -23 113 -53 147 -29 33
-52 37 -130 21z"/>
</g>
</svg>
