<?xml version="1.0" standalone="no"?>
<!DOCTYPE svg PUBLIC "-//W3C//DTD SVG 20010904//EN"
 "http://www.w3.org/TR/2001/REC-SVG-20010904/DTD/svg10.dtd">
<svg version="1.0" xmlns="http://www.w3.org/2000/svg"
 width="42.000000pt" height="103.000000pt" viewBox="0 0 42.000000 103.000000"
 preserveAspectRatio="xMidYMid meet">
<metadata>
Created by potrace 1.14, written by Peter Selinger 2001-2017
</metadata>
<g transform="translate(0.000000,103.000000) scale(0.100000,-0.100000)"
fill="#000000" stroke="none">
<path fill="#000000" stroke="none" d="M110 1012 l-35 -17 -3 -85 c-2 -47 -4
-96 -4 -110 -1 -14 2 -52 6 -86 l8 -61 -38 -23 c-22 -13 -40 -24 -42 -26 -2
-1 0 -13 4 -28 6 -25 7 -25 36 -10 45 23 81 10 132 -48 37 -42 53 -74 90 -182
l44 -131 -25 -20 -25 -21 34 -55 c50 -82 61 -95 86 -102 34 -8 45 28 32 108
-5 34 -7 83 -4 108 5 37 2 51 -15 75 -14 21 -21 45 -21 79 0 26 -7 91 -16 143
-9 56 -13 117 -9 149 3 30 3 81 -1 112 -6 53 -10 60 -45 83 -27 18 -37 32 -37
48 4 61 -2 79 -34 98 -41 25 -73 25 -118 2z"/>
</g>
</svg>
