<?xml version="1.0" standalone="no"?>
<!DOCTYPE svg PUBLIC "-//W3C//DTD SVG 20010904//EN"
 "http://www.w3.org/TR/2001/REC-SVG-20010904/DTD/svg10.dtd">
<svg version="1.0" xmlns="http://www.w3.org/2000/svg"
 width="167.000000pt" height="399.000000pt" viewBox="0 0 167.000000 399.000000"
 preserveAspectRatio="xMidYMid meet">
<metadata>
Created by potrace 1.14, written by Peter Selinger 2001-2017
</metadata>
<g transform="translate(0.000000,399.000000) scale(0.100000,-0.100000)"
fill="#000000" stroke="none">
<path fill="#000000" stroke="none" d="M431 3961 c-39 -20 -57 -37 -68 -62
-72 -168 -82 -260 -39 -375 14 -39 26 -78 26 -87 0 -9 -25 -25 -66 -41 -94
-38 -245 -132 -267 -167 -16 -25 -18 -40 -12 -101 l7 -73 72 -67 c39 -37 94
-78 122 -92 57 -27 55 -22 109 -258 26 -113 31 -125 137 -304 l110 -187 -37
-161 c-21 -89 -47 -190 -58 -226 -25 -82 -21 -199 19 -651 l28 -317 -34 -83
c-31 -78 -34 -94 -38 -224 -4 -121 -7 -146 -27 -186 l-23 -45 80 -100 c44 -54
91 -112 104 -128 l24 -28 64 28 64 27 12 73 c12 69 11 77 -25 230 l-37 157 17
106 c17 111 59 252 124 424 56 147 71 211 95 401 l21 170 30 8 c16 4 30 6 30
5 1 -1 37 -135 79 -297 48 -181 107 -373 152 -498 71 -193 75 -211 95 -370 11
-92 18 -183 15 -202 l-5 -35 157 -42 c86 -23 158 -40 160 -38 2 2 -15 208 -37
457 -37 409 -44 462 -71 543 -48 148 -52 202 -50 690 l1 450 -42 180 -43 180
-67 83 -68 82 28 63 28 62 77 9 c55 7 76 13 72 22 -5 14 6 17 117 35 91 15 90
2 12 165 l-52 111 -74 17 c-41 10 -84 21 -96 26 -19 8 -23 6 -23 -8 0 -29 -29
-62 -56 -62 -40 0 -185 78 -235 127 -43 41 -46 48 -38 75 4 17 10 33 13 35 2
2 39 -9 81 -26 89 -34 88 -33 -20 37 -98 63 -136 77 -163 63 -15 -8 -23 -7
-30 2 -27 34 -44 86 -53 165 -5 48 -14 101 -19 117 -11 32 -89 114 -127 134
-12 6 -68 11 -125 11 -93 -1 -108 -4 -157 -29z"/>
</g>
</svg>
