<?xml version="1.0" standalone="no"?>
<!DOCTYPE svg PUBLIC "-//W3C//DTD SVG 20010904//EN"
 "http://www.w3.org/TR/2001/REC-SVG-20010904/DTD/svg10.dtd">
<svg version="1.0" xmlns="http://www.w3.org/2000/svg"
 width="127.000000pt" height="322.000000pt" viewBox="0 0 127.000000 322.000000"
 preserveAspectRatio="xMidYMid meet">
<metadata>
Created by potrace 1.14, written by Peter Selinger 2001-2017
</metadata>
<g transform="translate(0.000000,322.000000) scale(0.100000,-0.100000)"
fill="#000000" stroke="none">
<path fill="#000000" stroke="none" d="M447 3157 c-60 -38 -100 -71 -107 -87
-8 -20 0 -69 38 -234 34 -147 46 -220 43 -249 l-6 -40 -170 -69 c-93 -38 -171
-70 -172 -72 -2 -2 -12 -34 -23 -72 -19 -67 -19 -87 -8 -824 l11 -755 -27
-373 c-16 -205 -26 -375 -24 -377 1 -2 34 -1 71 2 58 5 70 9 76 27 5 12 28
108 52 214 l43 192 117 0 116 0 7 97 c4 53 8 98 9 100 2 1 47 8 100 15 53 7
97 15 97 20 0 22 30 -9 45 -48 9 -24 20 -44 23 -44 4 0 47 133 96 296 87 287
91 297 143 366 29 39 66 105 82 147 16 42 66 168 110 280 l81 204 -20 78 c-11
42 -20 99 -20 125 0 26 -10 98 -22 160 l-22 112 -43 21 c-24 11 -92 34 -150
51 -89 24 -113 36 -142 65 l-36 35 23 88 c13 48 34 112 47 142 19 45 24 79 29
181 l5 127 -82 54 c-70 46 -95 57 -172 73 -49 10 -97 21 -105 26 -11 5 -46
-12 -113 -54z"/>
</g>
</svg>
