<?xml version="1.0" standalone="no"?>
<!DOCTYPE svg PUBLIC "-//W3C//DTD SVG 20010904//EN"
 "http://www.w3.org/TR/2001/REC-SVG-20010904/DTD/svg10.dtd">
<svg version="1.0" xmlns="http://www.w3.org/2000/svg"
 width="166.000000pt" height="399.000000pt" viewBox="0 0 166.000000 399.000000"
 preserveAspectRatio="xMidYMid meet">
<metadata>
Created by potrace 1.14, written by Peter Selinger 2001-2017
</metadata>
<g transform="translate(0.000000,399.000000) scale(0.100000,-0.100000)"
fill="#000000" stroke="none">
<path fill="#000000" stroke="none" d="M478 3962 l-107 -25 -42 -91 c-38 -81
-43 -101 -47 -181 -3 -56 -10 -98 -20 -113 -8 -12 -51 -55 -96 -94 -103 -90
-133 -145 -152 -277 -7 -53 -14 -148 -14 -212 0 -113 2 -122 60 -324 63 -217
74 -244 122 -310 27 -39 28 -43 18 -94 -19 -100 -13 -225 16 -320 27 -85 135
-344 193 -460 17 -33 61 -136 97 -228 57 -148 72 -200 120 -428 29 -143 79
-373 111 -512 l57 -252 57 -21 57 -22 110 22 110 22 27 103 27 103 -37 114
c-21 62 -53 151 -70 198 -24 63 -39 129 -55 249 -23 166 -22 211 6 418 l6 42
43 -32 c34 -25 46 -42 55 -77 6 -25 31 -94 54 -155 39 -100 56 -170 96 -405
10 -55 21 -77 77 -153 70 -96 75 -108 93 -210 14 -75 20 -81 151 -155 l56 -32
-4 78 c-3 42 -13 259 -23 482 -17 384 -19 408 -43 470 -13 36 -28 90 -32 120
-3 30 -40 147 -80 260 -96 268 -99 280 -84 355 6 33 13 101 16 150 4 88 3 91
-26 133 -17 23 -31 52 -31 64 0 13 -14 57 -32 98 l-32 76 -116 -4 -115 -4
-102 57 c-56 31 -106 62 -111 68 -6 7 -12 34 -13 61 l-3 49 179 53 c98 30 183
54 187 54 5 0 38 -26 74 -57 47 -41 64 -63 64 -82 0 -15 4 -21 9 -16 6 6 -6
69 -30 165 -21 85 -52 219 -69 296 -38 182 -86 295 -174 408 -42 53 -72 103
-81 135 -9 27 -53 125 -99 218 -75 149 -89 171 -123 190 -31 17 -105 43 -168
58 -5 1 -58 -9 -117 -23z"/>
</g>
</svg>
