<?xml version="1.0" standalone="no"?>
<!DOCTYPE svg PUBLIC "-//W3C//DTD SVG 20010904//EN"
 "http://www.w3.org/TR/2001/REC-SVG-20010904/DTD/svg10.dtd">
<svg version="1.0" xmlns="http://www.w3.org/2000/svg"
 width="89.000000pt" height="235.000000pt" viewBox="0 0 89.000000 235.000000"
 preserveAspectRatio="xMidYMid meet">
<metadata>
Created by potrace 1.14, written by Peter Selinger 2001-2017
</metadata>
<g transform="translate(0.000000,235.000000) scale(0.100000,-0.100000)"
fill="#000000" stroke="none">
<path fill="#000000" stroke="none" d="M484 2300 c-69 -47 -73 -52 -113 -143
-22 -52 -41 -101 -41 -110 0 -8 -18 -50 -40 -91 -38 -72 -40 -78 -25 -99 8
-12 15 -25 15 -28 0 -4 -21 -33 -47 -64 -44 -55 -47 -64 -78 -204 -19 -84 -44
-169 -60 -200 -23 -47 -26 -63 -21 -106 3 -29 1 -99 -4 -156 -6 -57 -17 -183
-25 -279 -8 -96 -19 -194 -25 -217 -13 -55 -15 -178 -5 -341 l8 -133 109 -64
c59 -36 113 -65 118 -65 14 0 16 16 45 355 14 171 28 319 30 330 3 11 29 36
60 55 l55 35 0 59 c0 72 23 162 59 235 15 31 40 90 55 132 27 74 30 78 79 102
29 14 82 36 118 48 l67 23 -24 35 c-13 20 -24 40 -24 46 0 5 -18 37 -40 70
-22 33 -40 65 -40 72 0 22 23 63 34 61 7 -2 32 14 57 35 57 46 89 121 89 206
0 31 5 94 11 141 5 46 7 95 4 109 -3 13 -36 55 -71 92 -60 61 -70 68 -116 74
-28 4 -66 14 -84 21 -47 20 -51 19 -130 -36z"/>
<path fill="#000000" stroke="none" d="M790 1584 c0 -20 32 -118 47 -141 8
-12 13 -30 9 -38 -3 -8 -1 -15 4 -15 10 0 14 35 10 75 -4 35 -69 146 -70 119z"/>
</g>
</svg>
