<?xml version="1.0" standalone="no"?>
<!DOCTYPE svg PUBLIC "-//W3C//DTD SVG 20010904//EN"
 "http://www.w3.org/TR/2001/REC-SVG-20010904/DTD/svg10.dtd">
<svg version="1.0" xmlns="http://www.w3.org/2000/svg"
 width="17.000000pt" height="46.000000pt" viewBox="0 0 17.000000 46.000000"
 preserveAspectRatio="xMidYMid meet">
<metadata>
Created by potrace 1.14, written by Peter Selinger 2001-2017
</metadata>
<g transform="translate(0.000000,46.000000) scale(0.100000,-0.100000)"
fill="#000000" stroke="none">
<path fill="#000000" stroke="none" d="M70 443 c-16 -11 -19 -18 -11 -26 17
-17 13 -24 -19 -37 -17 -7 -30 -15 -31 -19 0 -3 -2 -16 -5 -28 -3 -18 1 -23
16 -23 28 0 48 -45 32 -70 -8 -13 -10 -52 -5 -130 l6 -110 26 1 c60 1 60 1 64
179 2 67 8 124 15 137 15 28 15 28 -5 49 -10 10 -18 25 -19 33 -1 9 -2 23 -3
32 -2 23 -36 30 -61 12z"/>
</g>
</svg>
