<?xml version="1.0" standalone="no"?>
<!DOCTYPE svg PUBLIC "-//W3C//DTD SVG 20010904//EN"
 "http://www.w3.org/TR/2001/REC-SVG-20010904/DTD/svg10.dtd">
<svg version="1.0" xmlns="http://www.w3.org/2000/svg"
 width="141.000000pt" height="375.000000pt" viewBox="0 0 141.000000 375.000000"
 preserveAspectRatio="xMidYMid meet">
<metadata>
Created by potrace 1.14, written by Peter Selinger 2001-2017
</metadata>
<g transform="translate(0.000000,375.000000) scale(0.100000,-0.100000)"
fill="#000000" stroke="none">
<path fill="#000000" stroke="none" d="M777 3702 l-88 -47 -43 -90 -42 -90 16
-65 c14 -57 15 -85 5 -225 l-12 -160 -55 -110 c-83 -166 -105 -228 -138 -374
-17 -74 -38 -144 -47 -155 -57 -69 -98 -102 -176 -144 -76 -40 -95 -55 -136
-112 -40 -54 -49 -74 -54 -122 -6 -66 -20 -60 162 -79 l115 -13 123 130 c67
71 123 125 123 119 0 -5 9 -60 19 -120 34 -199 36 -350 8 -610 -43 -385 -42
-369 -13 -478 14 -53 43 -131 64 -174 l39 -77 -37 -106 c-29 -80 -40 -128 -45
-201 l-7 -97 -44 -36 c-29 -25 -44 -45 -44 -61 0 -33 10 -55 25 -55 17 0 85
-76 85 -95 0 -8 13 -21 30 -30 l29 -15 23 43 c13 24 42 60 65 81 l42 38 64
-21 c41 -14 75 -34 97 -56 19 -19 40 -35 47 -35 17 0 16 -5 -4 -37 l-17 -25
43 21 c76 39 157 109 247 213 l89 102 0 181 0 180 -93 190 c-65 132 -100 216
-114 275 l-20 85 70 240 c134 457 151 540 152 768 0 82 3 94 34 150 l34 62 5
268 6 267 -48 75 c-80 125 -176 229 -250 274 l-67 40 -22 123 -21 123 -63 57
c-35 32 -65 57 -68 58 -3 0 -45 -22 -93 -48z"/>
</g>
</svg>
