<?xml version="1.0" standalone="no"?>
<!DOCTYPE svg PUBLIC "-//W3C//DTD SVG 20010904//EN"
 "http://www.w3.org/TR/2001/REC-SVG-20010904/DTD/svg10.dtd">
<svg version="1.0" xmlns="http://www.w3.org/2000/svg"
 width="19.000000pt" height="47.000000pt" viewBox="0 0 19.000000 47.000000"
 preserveAspectRatio="xMidYMid meet">
<metadata>
Created by potrace 1.14, written by Peter Selinger 2001-2017
</metadata>
<g transform="translate(0.000000,47.000000) scale(0.100000,-0.100000)"
fill="#000000" stroke="none">
<path fill="#000000" stroke="none" d="M63 453 c-3 -10 -11 -25 -18 -33 -6 -8
-19 -34 -28 -58 -15 -41 -15 -47 3 -105 10 -34 24 -91 29 -127 6 -36 14 -80
17 -97 6 -40 24 -44 25 -5 0 15 4 36 9 47 8 18 9 18 9 -5 2 -36 12 -70 22 -70
4 0 10 15 13 33 24 149 30 183 37 193 5 6 4 26 -1 45 -6 18 -10 46 -10 61 0
15 -12 52 -27 83 -21 43 -32 55 -50 55 -13 0 -26 -8 -30 -17z"/>
</g>
</svg>
