<?xml version="1.0" standalone="no"?>
<!DOCTYPE svg PUBLIC "-//W3C//DTD SVG 20010904//EN"
 "http://www.w3.org/TR/2001/REC-SVG-20010904/DTD/svg10.dtd">
<svg version="1.0" xmlns="http://www.w3.org/2000/svg"
 width="27.000000pt" height="74.000000pt" viewBox="0 0 27.000000 74.000000"
 preserveAspectRatio="xMidYMid meet">
<metadata>
Created by potrace 1.14, written by Peter Selinger 2001-2017
</metadata>
<g transform="translate(0.000000,74.000000) scale(0.100000,-0.100000)"
fill="#000000" stroke="none">
<path fill="#000000" stroke="none" d="M137 724 c-15 -8 -27 -23 -27 -33 0
-11 -6 -22 -12 -24 -7 -3 -2 -6 12 -7 14 0 34 -7 44 -15 19 -14 19 -19 8 -75
-7 -33 -10 -65 -6 -71 8 -14 -14 -56 -34 -64 -9 -3 -31 2 -49 12 -30 16 -33
22 -33 63 l-1 45 -19 -55 c-19 -51 -19 -57 -4 -119 15 -60 15 -107 -2 -181 -4
-18 1 -34 14 -50 25 -31 32 -25 37 31 8 86 29 178 42 183 37 14 60 -22 39 -62
-14 -28 -11 -88 5 -98 5 -3 9 -34 9 -68 0 -113 15 -148 56 -132 15 6 15 8 0
31 -19 29 -20 75 -2 218 11 87 18 113 36 132 21 22 22 30 16 97 -4 43 -14 86
-26 106 -11 18 -20 50 -20 70 0 42 -7 55 -35 70 -15 7 -27 6 -48 -4z"/>
</g>
</svg>
