<?xml version="1.0" standalone="no"?>
<!DOCTYPE svg PUBLIC "-//W3C//DTD SVG 20010904//EN"
 "http://www.w3.org/TR/2001/REC-SVG-20010904/DTD/svg10.dtd">
<svg version="1.0" xmlns="http://www.w3.org/2000/svg"
 width="108.000000pt" height="268.000000pt" viewBox="0 0 108.000000 268.000000"
 preserveAspectRatio="xMidYMid meet">
<metadata>
Created by potrace 1.14, written by Peter Selinger 2001-2017
</metadata>
<g transform="translate(0.000000,268.000000) scale(0.100000,-0.100000)"
fill="#000000" stroke="none">
<path fill="#000000" stroke="none" d="M282 2560 c-53 -112 -54 -117 -48 -180
3 -36 9 -81 12 -101 l6 -36 -70 -17 -70 -18 -50 -106 c-44 -96 -50 -116 -55
-198 l-7 -91 39 -54 39 -54 70 0 70 0 4 115 c5 113 5 116 46 186 23 39 47 85
53 102 6 18 15 32 21 32 6 0 8 7 4 15 -4 12 3 15 34 15 44 0 50 -9 21 -27 -12
-8 -21 -27 -24 -55 -2 -24 -21 -87 -41 -141 -21 -57 -36 -116 -36 -141 0 -29
-8 -55 -25 -80 -15 -22 -20 -36 -12 -36 7 0 86 -7 177 -15 293 -25 402 -29
503 -15 l94 12 -39 227 c-46 274 -45 271 -61 271 -6 0 -47 -14 -91 -31 -43
-16 -79 -29 -81 -27 -80 87 -225 275 -225 291 1 68 28 199 44 210 16 12 16 14
2 26 -9 7 -23 10 -32 7 -10 -4 -25 1 -37 11 -15 14 -37 18 -100 18 l-81 0 -54
-115z"/>
<path fill="#000000" stroke="none" d="M955 1590 c-111 -17 -223 -72 -465
-228 -210 -135 -247 -163 -342 -259 l-108 -108 69 -328 69 -328 69 -72 c60
-61 73 -82 92 -142 13 -38 32 -78 42 -87 20 -17 126 -44 136 -35 11 11 -19
340 -43 472 -19 104 -24 154 -18 195 4 30 6 110 5 176 -3 142 -14 131 136 141
100 6 100 7 104 78 2 19 4 12 8 -20 l6 -50 50 -3 c41 -3 54 -9 77 -35 l27 -32
1 153 0 154 45 58 c24 32 71 115 104 184 l60 126 -37 -1 c-20 -1 -59 -5 -87
-9z"/>
</g>
</svg>
