<?xml version="1.0" standalone="no"?>
<!DOCTYPE svg PUBLIC "-//W3C//DTD SVG 20010904//EN"
 "http://www.w3.org/TR/2001/REC-SVG-20010904/DTD/svg10.dtd">
<svg version="1.0" xmlns="http://www.w3.org/2000/svg"
 width="83.000000pt" height="191.000000pt" viewBox="0 0 83.000000 191.000000"
 preserveAspectRatio="xMidYMid meet">
<metadata>
Created by potrace 1.14, written by Peter Selinger 2001-2017
</metadata>
<g transform="translate(0.000000,191.000000) scale(0.100000,-0.100000)"
fill="#000000" stroke="none">
<path fill="#000000" stroke="none" d="M465 1860 c-44 -29 -102 -71 -130 -95
-27 -23 -112 -79 -187 -124 -75 -44 -139 -85 -142 -90 -3 -5 22 -14 56 -20 59
-10 64 -13 132 -87 39 -43 86 -103 104 -135 l33 -58 -71 -141 -70 -140 55 -95
c52 -87 56 -100 62 -175 3 -44 10 -83 14 -85 4 -3 30 4 57 14 l50 20 16 -42
c11 -27 34 -56 66 -81 41 -32 53 -49 71 -103 11 -35 19 -65 18 -67 -2 -1 -25
-14 -51 -29 -35 -21 -45 -31 -41 -46 4 -17 -7 -103 -23 -172 -5 -23 1 -29 63
-65 67 -39 69 -39 159 -36 l92 3 16 43 c9 23 16 46 16 51 0 6 -34 29 -75 53
l-75 42 0 60 c0 59 0 59 37 72 24 9 45 27 63 56 l27 43 -18 122 c-11 67 -41
199 -68 292 -27 94 -55 195 -63 225 -10 43 -18 56 -34 58 -12 2 -35 17 -52 35
l-31 32 11 300 c7 187 8 322 2 358 l-9 59 -80 -52z"/>
</g>
</svg>
