<?xml version="1.0" standalone="no"?>
<!DOCTYPE svg PUBLIC "-//W3C//DTD SVG 20010904//EN"
 "http://www.w3.org/TR/2001/REC-SVG-20010904/DTD/svg10.dtd">
<svg version="1.0" xmlns="http://www.w3.org/2000/svg"
 width="118.000000pt" height="265.000000pt" viewBox="0 0 118.000000 265.000000"
 preserveAspectRatio="xMidYMid meet">
<metadata>
Created by potrace 1.14, written by Peter Selinger 2001-2017
</metadata>
<g transform="translate(0.000000,265.000000) scale(0.100000,-0.100000)"
fill="#000000" stroke="none">
<path fill="#000000" stroke="none" d="M580 2643 c-14 -2 -54 -30 -89 -62
l-64 -58 11 -84 c7 -46 12 -118 12 -159 l-1 -75 -61 -65 c-44 -48 -59 -58 -53
-40 7 25 7 25 -25 -5 -18 -16 -45 -48 -61 -69 -28 -38 -29 -42 -29 -160 1 -77
7 -147 18 -194 l17 -74 28 29 c15 15 34 37 42 48 15 19 16 19 48 -20 17 -22
49 -56 69 -77 21 -20 40 -48 44 -62 16 -65 91 -40 239 79 55 44 126 98 158
119 32 22 63 48 69 60 16 29 44 50 118 90 53 28 69 43 87 79 l21 44 -20 31
c-25 40 -54 41 -76 3 -14 -26 -22 -29 -57 -28 -28 1 -40 7 -41 17 -3 44 -5 51
-14 45 -5 -3 -20 -27 -33 -53 -60 -117 -172 -266 -209 -276 -42 -11 -95 -6
-108 9 -7 8 -15 46 -18 83 l-4 67 57 58 c73 74 93 74 150 -2 l40 -54 3 33 c5
49 -5 76 -42 118 -53 59 -55 92 -11 160 37 55 38 56 31 131 -3 41 -17 111 -31
156 -24 75 -28 83 -81 123 -56 41 -71 45 -134 35z"/>
<path fill="#000000" stroke="none" d="M625 656 l-279 -272 -125 170 c-121
164 -126 169 -133 140 -4 -16 -24 -162 -43 -324 -19 -162 -38 -312 -41 -334
l-6 -38 443 7 444 7 27 31 c33 38 34 53 13 267 -29 306 -37 496 -25 556 7 31
10 57 8 59 -2 2 -129 -119 -283 -269z"/>
</g>
</svg>
