<?xml version="1.0" standalone="no"?>
<!DOCTYPE svg PUBLIC "-//W3C//DTD SVG 20010904//EN"
 "http://www.w3.org/TR/2001/REC-SVG-20010904/DTD/svg10.dtd">
<svg version="1.0" xmlns="http://www.w3.org/2000/svg"
 width="43.000000pt" height="107.000000pt" viewBox="0 0 43.000000 107.000000"
 preserveAspectRatio="xMidYMid meet">
<metadata>
Created by potrace 1.14, written by Peter Selinger 2001-2017
</metadata>
<g transform="translate(0.000000,107.000000) scale(0.100000,-0.100000)"
fill="#000000" stroke="none">
<path fill="#000000" stroke="none" d="M86 1048 l-38 -20 6 -86 c4 -48 9 -113
12 -144 6 -62 -14 -134 -45 -162 -24 -22 -12 -125 23 -201 20 -45 26 -73 26
-130 0 -131 0 -131 109 -184 59 -28 108 -60 128 -82 25 -27 39 -36 55 -31 20
5 20 9 14 111 -3 58 -10 135 -15 170 -13 93 -6 125 35 147 44 24 44 45 -2 177
l-35 103 -48 19 c-48 18 -49 20 -55 69 -3 28 -6 74 -6 101 0 47 -16 125 -25
125 -2 0 -26 9 -52 19 -48 19 -49 19 -87 -1z"/>
<path fill="#ffffff" stroke="none" d="M292 495 c-6 -71 -41 -70 -42 1 0 35 8
46 30 41 11 -2 14 -13 12 -42z"/>
<path fill="#ffffff" stroke="none" d="M283 390 c4 -15 0 -20 -14 -20 -17 0
-18 3 -7 20 7 11 13 20 14 20 1 0 4 -9 7 -20z"/>
<path fill="#000000" stroke="none" d="M37 45 l-16 -45 94 0 95 0 -12 26 c-14
30 -75 64 -117 64 -26 0 -31 -5 -44 -45z"/>
</g>
</svg>
