<?xml version="1.0" standalone="no"?>
<!DOCTYPE svg PUBLIC "-//W3C//DTD SVG 20010904//EN"
 "http://www.w3.org/TR/2001/REC-SVG-20010904/DTD/svg10.dtd">
<svg version="1.0" xmlns="http://www.w3.org/2000/svg"
 width="15.000000pt" height="37.000000pt" viewBox="0 0 15.000000 37.000000"
 preserveAspectRatio="xMidYMid meet">
<metadata>
Created by potrace 1.14, written by Peter Selinger 2001-2017
</metadata>
<g transform="translate(0.000000,37.000000) scale(0.100000,-0.100000)"
fill="#000000" stroke="none">
<path fill="#000000" stroke="none" d="M75 347 c-8 -12 -15 -27 -15 -35 0 -7
-8 -27 -17 -45 -9 -18 -22 -77 -29 -132 -18 -141 -19 -135 17 -135 26 0 29 3
20 14 -9 10 -9 20 0 40 15 31 29 18 29 -27 0 -24 3 -26 18 -18 14 8 17 25 18
101 1 61 7 102 18 128 22 48 11 111 -21 123 -17 6 -26 3 -38 -14z"/>
</g>
</svg>
