<?xml version="1.0" standalone="no"?>
<!DOCTYPE svg PUBLIC "-//W3C//DTD SVG 20010904//EN"
 "http://www.w3.org/TR/2001/REC-SVG-20010904/DTD/svg10.dtd">
<svg version="1.0" xmlns="http://www.w3.org/2000/svg"
 width="158.000000pt" height="378.000000pt" viewBox="0 0 158.000000 378.000000"
 preserveAspectRatio="xMidYMid meet">
<metadata>
Created by potrace 1.14, written by Peter Selinger 2001-2017
</metadata>
<g transform="translate(0.000000,378.000000) scale(0.100000,-0.100000)"
fill="#000000" stroke="none">
<path fill="#000000" stroke="none" d="M535 3739 c-46 -51 -55 -76 -55 -148 0
-40 -5 -63 -15 -71 -19 -16 -19 -71 1 -185 13 -78 21 -98 59 -150 24 -33 51
-70 60 -83 9 -12 34 -30 56 -39 45 -17 58 -38 86 -133 26 -88 16 -133 -36
-159 -64 -34 -107 -90 -171 -226 -65 -137 -100 -254 -100 -335 0 -58 43 -175
96 -264 l37 -61 -12 -160 c-7 -91 -22 -205 -36 -265 -13 -58 -27 -130 -31
-160 -4 -35 -35 -118 -81 -225 -74 -169 -393 -1028 -393 -1059 0 -14 26 -16
234 -16 195 0 236 2 246 15 8 10 30 15 64 15 48 0 52 2 72 38 12 20 36 73 55
117 38 91 168 300 180 288 4 -4 12 -46 17 -93 5 -47 19 -121 30 -165 12 -44
24 -110 28 -148 l6 -67 233 0 233 0 11 48 c45 211 143 743 157 855 16 122 16
156 5 310 -8 115 -9 188 -2 221 8 46 7 55 -20 104 -19 37 -29 69 -29 99 0 30
-9 59 -28 91 -25 44 -27 54 -26 152 1 100 5 130 39 280 24 108 20 309 -11 495
l-27 160 -72 62 c-40 34 -110 81 -158 105 -48 23 -87 47 -87 53 0 6 31 26 70
45 39 19 72 42 76 52 3 11 17 23 30 28 31 12 38 32 27 67 -8 23 -17 29 -49 33
-38 5 -39 6 -53 65 -13 55 -13 64 6 118 l20 58 -36 15 c-20 8 -55 20 -79 27
-52 14 -43 26 -118 -160 -32 -78 -62 -139 -67 -136 -5 3 -6 -4 -2 -17 5 -17 4
-20 -5 -15 -8 5 -11 3 -8 -6 3 -8 -2 -20 -9 -28 -12 -12 -16 -12 -29 1 -12 12
-5 36 54 184 l69 171 -201 106 c-111 58 -217 113 -238 121 l-36 15 -37 -40z"/>
</g>
</svg>
