<?xml version="1.0" standalone="no"?>
<!DOCTYPE svg PUBLIC "-//W3C//DTD SVG 20010904//EN"
 "http://www.w3.org/TR/2001/REC-SVG-20010904/DTD/svg10.dtd">
<svg version="1.0" xmlns="http://www.w3.org/2000/svg"
 width="94.000000pt" height="242.000000pt" viewBox="0 0 94.000000 242.000000"
 preserveAspectRatio="xMidYMid meet">
<metadata>
Created by potrace 1.14, written by Peter Selinger 2001-2017
</metadata>
<g transform="translate(0.000000,242.000000) scale(0.100000,-0.100000)"
fill="#000000" stroke="none">
<path fill="#000000" stroke="none" d="M160 2384 c-34 -18 -67 -37 -74 -43 -7
-6 -21 -48 -30 -94 l-18 -82 40 -92 40 -91 -59 -7 -59 -7 0 -549 0 -549 85 0
c47 0 85 -2 85 -4 0 -2 -34 -147 -75 -321 -67 -283 -75 -327 -75 -415 0 -95 1
-100 23 -104 20 -4 405 -26 454 -26 18 0 25 10 38 52 8 28 15 57 15 63 0 6
-54 49 -120 95 -66 46 -120 85 -120 86 0 1 33 89 74 196 41 106 96 259 122
341 26 81 52 147 56 147 5 0 59 -22 120 -50 119 -53 122 -54 114 -42 -2 4 11
6 30 4 26 -3 36 -10 40 -28 7 -29 51 -44 65 -23 17 26 9 74 -21 125 -26 47
-34 53 -80 64 -54 13 -56 17 -40 84 6 27 5 47 -2 60 -6 12 -78 113 -161 225
-123 169 -155 220 -184 294 -19 49 -32 91 -30 93 2 3 40 -4 84 -14 l81 -19 37
77 37 77 -10 144 c-9 130 -34 272 -51 292 -4 4 -89 22 -189 40 l-182 34 -60
-33z"/>
</g>
</svg>
