<?xml version="1.0" standalone="no"?>
<!DOCTYPE svg PUBLIC "-//W3C//DTD SVG 20010904//EN"
 "http://www.w3.org/TR/2001/REC-SVG-20010904/DTD/svg10.dtd">
<svg version="1.0" xmlns="http://www.w3.org/2000/svg"
 width="50.000000pt" height="135.000000pt" viewBox="0 0 50.000000 135.000000"
 preserveAspectRatio="xMidYMid meet">
<metadata>
Created by potrace 1.14, written by Peter Selinger 2001-2017
</metadata>
<g transform="translate(0.000000,135.000000) scale(0.100000,-0.100000)"
fill="#000000" stroke="none">
<path fill="#000000" stroke="none" d="M210 1343 c-51 -19 -62 -58 -30 -111
11 -18 20 -34 20 -37 0 -2 -27 -19 -60 -37 -33 -18 -63 -42 -66 -53 -4 -11
-22 -46 -40 -78 -19 -32 -34 -64 -34 -70 0 -7 16 -45 35 -86 26 -53 35 -86 35
-123 0 -40 8 -65 35 -114 19 -34 35 -75 35 -91 0 -15 7 -63 15 -106 9 -46 13
-100 9 -130 -4 -40 1 -73 20 -142 15 -49 32 -92 38 -96 9 -6 8 -12 -2 -24 -16
-20 -5 -32 35 -37 l30 -3 3 105 4 105 14 -45 c7 -25 14 -70 14 -101 0 -43 4
-58 16 -63 26 -10 144 -7 144 4 0 6 -5 10 -10 10 -6 0 -22 11 -35 25 -21 20
-25 34 -25 87 -1 35 -7 110 -14 168 -9 72 -10 116 -3 140 5 19 7 70 5 114 -4
70 -3 80 16 98 l21 19 3 -33 c5 -46 19 -60 44 -47 19 10 20 18 15 108 -3 53
-14 134 -25 181 -11 47 -23 108 -27 135 -11 85 -20 98 -88 131 -47 22 -63 35
-65 53 -2 13 1 28 6 33 14 14 2 91 -16 106 -16 12 -46 15 -72 5z"/>
<path fill="#ffffff" stroke="none" d="M265 1090 c0 -32 -4 -40 -19 -40 -15 0
-17 5 -12 34 5 23 3 36 -6 39 -7 3 -2 6 12 6 23 1 25 -3 25 -39z"/>
</g>
</svg>
