<?xml version="1.0" standalone="no"?>
<!DOCTYPE svg PUBLIC "-//W3C//DTD SVG 20010904//EN"
 "http://www.w3.org/TR/2001/REC-SVG-20010904/DTD/svg10.dtd">
<svg version="1.0" xmlns="http://www.w3.org/2000/svg"
 width="16.000000pt" height="44.000000pt" viewBox="0 0 16.000000 44.000000"
 preserveAspectRatio="xMidYMid meet">
<metadata>
Created by potrace 1.14, written by Peter Selinger 2001-2017
</metadata>
<g transform="translate(0.000000,44.000000) scale(0.100000,-0.100000)"
fill="#000000" stroke="none">
<path fill="#000000" stroke="none" d="M51 421 c-13 -23 -14 -51 -3 -51 8 0 7
-85 -2 -211 -5 -63 -25 -139 -38 -139 -4 0 -8 -4 -8 -10 0 -5 16 -10 35 -10
35 0 35 0 36 48 1 26 1 61 0 78 -1 17 8 55 20 85 35 89 39 110 26 133 -6 11
-12 37 -12 56 0 28 -4 36 -22 38 -14 2 -26 -4 -32 -17z"/>
<path fill="#000000" stroke="none" d="M124 68 c0 -28 -6 -45 -19 -54 -17 -13
-16 -14 19 -14 l39 0 -7 43 c-10 61 -31 78 -32 25z"/>
</g>
</svg>
