<?xml version="1.0" standalone="no"?>
<!DOCTYPE svg PUBLIC "-//W3C//DTD SVG 20010904//EN"
 "http://www.w3.org/TR/2001/REC-SVG-20010904/DTD/svg10.dtd">
<svg version="1.0" xmlns="http://www.w3.org/2000/svg"
 width="40.000000pt" height="99.000000pt" viewBox="0 0 40.000000 99.000000"
 preserveAspectRatio="xMidYMid meet">
<metadata>
Created by potrace 1.14, written by Peter Selinger 2001-2017
</metadata>
<g transform="translate(0.000000,99.000000) scale(0.100000,-0.100000)"
fill="#000000" stroke="none">
<path fill="#000000" stroke="none" d="M124 971 c-55 -34 -63 -67 -57 -236 5
-128 3 -156 -11 -190 -30 -69 -48 -185 -53 -332 -4 -123 -2 -147 14 -180 l18
-38 12 170 c7 98 26 247 45 350 l33 180 95 17 c52 9 114 17 138 17 34 1 42 4
42 20 0 10 -8 29 -19 42 -10 13 -26 49 -35 80 -23 81 -68 119 -139 119 -33 0
-63 -7 -83 -19z"/>
</g>
</svg>
