<?xml version="1.0" standalone="no"?>
<!DOCTYPE svg PUBLIC "-//W3C//DTD SVG 20010904//EN"
 "http://www.w3.org/TR/2001/REC-SVG-20010904/DTD/svg10.dtd">
<svg version="1.0" xmlns="http://www.w3.org/2000/svg"
 width="53.000000pt" height="119.000000pt" viewBox="0 0 53.000000 119.000000"
 preserveAspectRatio="xMidYMid meet">
<metadata>
Created by potrace 1.14, written by Peter Selinger 2001-2017
</metadata>
<g transform="translate(0.000000,119.000000) scale(0.100000,-0.100000)"
fill="#000000" stroke="none">
<path fill="#000000" stroke="none" d="M123 1173 c-29 -20 -32 -84 -4 -110 43
-42 42 -54 -4 -104 -55 -59 -80 -134 -51 -158 11 -10 8 -28 -21 -114 -45 -134
-52 -203 -25 -237 11 -14 23 -23 26 -20 2 3 10 46 16 95 6 51 19 103 29 120
10 16 24 47 30 67 8 25 17 35 26 32 8 -4 27 9 46 30 17 20 39 36 48 36 44 0
78 -91 47 -123 -20 -20 -11 -45 21 -53 16 -4 32 -22 47 -53 19 -39 21 -53 14
-95 -5 -27 -16 -54 -24 -60 -23 -17 -2 -181 31 -246 14 -27 25 -55 25 -62 0
-7 10 -37 22 -65 23 -52 24 -53 66 -53 37 0 42 3 42 23 -1 66 -60 214 -108
269 -12 14 -12 39 -3 167 6 82 9 156 7 163 -12 39 -15 68 -7 68 19 0 28 -104
15 -173 -4 -20 -1 -29 13 -34 10 -3 21 -10 24 -15 3 -5 13 0 23 11 16 18 17
28 7 113 -14 115 -54 276 -86 344 -19 42 -34 58 -78 83 -30 17 -62 31 -70 31
-14 0 -14 4 -2 32 12 31 11 35 -17 70 -25 32 -36 38 -66 37 -21 0 -47 -7 -59
-16z"/>
</g>
</svg>
