<?xml version="1.0" standalone="no"?>
<!DOCTYPE svg PUBLIC "-//W3C//DTD SVG 20010904//EN"
 "http://www.w3.org/TR/2001/REC-SVG-20010904/DTD/svg10.dtd">
<svg version="1.0" xmlns="http://www.w3.org/2000/svg"
 width="46.000000pt" height="115.000000pt" viewBox="0 0 46.000000 115.000000"
 preserveAspectRatio="xMidYMid meet">
<metadata>
Created by potrace 1.14, written by Peter Selinger 2001-2017
</metadata>
<g transform="translate(0.000000,115.000000) scale(0.100000,-0.100000)"
fill="#000000" stroke="none">
<path fill="#000000" stroke="none" d="M106 1120 c-52 -39 -52 -40 -38 -49 10
-6 10 -18 3 -52 -16 -69 -14 -149 4 -156 14 -5 14 -8 -1 -24 -9 -11 -23 -19
-31 -19 -8 0 -13 -13 -13 -38 0 -21 -4 -42 -9 -48 -5 -5 -12 -19 -15 -31 -6
-20 -1 -23 71 -38 114 -24 114 -24 127 -57 11 -25 14 -27 18 -12 4 15 31 26
122 49 l118 30 -7 45 c-4 25 -28 86 -55 135 -26 50 -53 112 -59 139 -7 27 -21
66 -31 87 -17 32 -28 40 -74 53 -73 21 -85 20 -130 -14z"/>
<path fill="#000000" stroke="none" d="M277 558 c-16 -17 -32 -39 -38 -49 -15
-29 -10 -89 10 -117 13 -20 20 -51 23 -118 3 -49 10 -100 17 -112 10 -19 7
-27 -25 -62 l-37 -41 28 -29 c24 -25 55 -40 55 -27 0 2 11 84 25 183 14 98 25
199 25 224 0 25 8 76 19 113 l18 67 -46 0 c-40 0 -51 -5 -74 -32z"/>
</g>
</svg>
