<?xml version="1.0" standalone="no"?>
<!DOCTYPE svg PUBLIC "-//W3C//DTD SVG 20010904//EN"
 "http://www.w3.org/TR/2001/REC-SVG-20010904/DTD/svg10.dtd">
<svg version="1.0" xmlns="http://www.w3.org/2000/svg"
 width="13.000000pt" height="31.000000pt" viewBox="0 0 13.000000 31.000000"
 preserveAspectRatio="xMidYMid meet">
<metadata>
Created by potrace 1.14, written by Peter Selinger 2001-2017
</metadata>
<g transform="translate(0.000000,31.000000) scale(0.100000,-0.100000)"
fill="#000000" stroke="none">
<path fill="#000000" stroke="none" d="M35 283 c-3 -16 -11 -39 -18 -53 -7
-14 -14 -71 -16 -128 l-3 -102 25 0 c14 0 32 3 41 6 14 5 14 9 0 35 -13 25
-13 33 0 56 7 16 19 54 25 85 7 31 18 62 26 68 11 9 11 17 3 36 -9 18 -19 24
-44 24 -29 0 -34 -4 -39 -27z"/>
</g>
</svg>
