<?xml version="1.0" standalone="no"?>
<!DOCTYPE svg PUBLIC "-//W3C//DTD SVG 20010904//EN"
 "http://www.w3.org/TR/2001/REC-SVG-20010904/DTD/svg10.dtd">
<svg version="1.0" xmlns="http://www.w3.org/2000/svg"
 width="124.000000pt" height="311.000000pt" viewBox="0 0 124.000000 311.000000"
 preserveAspectRatio="xMidYMid meet">
<metadata>
Created by potrace 1.14, written by Peter Selinger 2001-2017
</metadata>
<g transform="translate(0.000000,311.000000) scale(0.100000,-0.100000)"
fill="#000000" stroke="none">
<path fill="#000000" stroke="none" d="M285 3055 c-64 -75 -86 -131 -74 -186
6 -24 8 -53 5 -65 -4 -16 2 -29 22 -46 15 -13 35 -40 45 -61 l17 -39 -38 -46
c-34 -41 -41 -58 -51 -127 -7 -44 -51 -217 -98 -385 -74 -267 -83 -309 -74
-336 9 -24 8 -41 -5 -78 -9 -26 -14 -60 -12 -76 2 -16 -1 -93 -7 -171 -9 -121
-9 -142 4 -147 12 -5 140 24 149 33 2 2 -2 60 -10 130 l-14 126 84 207 c46
114 85 208 87 210 2 2 8 -29 15 -68 10 -58 9 -100 -3 -226 l-15 -155 43 -317
c24 -174 58 -457 76 -629 l33 -312 -27 -77 -27 -77 21 -23 c17 -18 28 -21 58
-17 28 4 53 22 117 85 l80 79 -4 107 c-3 72 1 134 11 188 15 76 15 88 -4 200
-17 108 -18 133 -7 277 6 86 14 157 18 157 3 0 18 -64 33 -142 54 -274 137
-613 172 -695 l34 -83 -9 -102 c-5 -57 -9 -118 -10 -135 l0 -33 89 0 89 0 35
41 35 40 -33 83 -34 82 10 106 c9 96 7 120 -20 284 l-30 179 14 220 c8 121 15
234 15 251 0 25 9 38 48 68 l47 37 25 391 25 391 -90 267 -90 268 -54 42 c-30
24 -51 38 -48 33 12 -19 -22 -367 -40 -421 l-18 -53 -33 94 c-35 98 -40 146
-33 306 4 89 1 96 -49 106 -14 3 -50 18 -80 34 -49 25 -59 36 -95 104 -22 41
-53 91 -70 110 -29 35 -32 36 -117 40 l-87 5 -46 -53z"/>
<path fill="#ffffff" stroke="none" d="M354 2618 c16 -75 16 -116 0 -158 -10
-26 -19 -92 -23 -155 -6 -110 -7 -110 -20 -70 -10 26 -16 103 -18 223 l-5 182
31 0 c24 0 32 -5 35 -22z"/>
</g>
</svg>
