<?xml version="1.0" standalone="no"?>
<!DOCTYPE svg PUBLIC "-//W3C//DTD SVG 20010904//EN"
 "http://www.w3.org/TR/2001/REC-SVG-20010904/DTD/svg10.dtd">
<svg version="1.0" xmlns="http://www.w3.org/2000/svg"
 width="21.000000pt" height="53.000000pt" viewBox="0 0 21.000000 53.000000"
 preserveAspectRatio="xMidYMid meet">
<metadata>
Created by potrace 1.14, written by Peter Selinger 2001-2017
</metadata>
<g transform="translate(0.000000,53.000000) scale(0.100000,-0.100000)"
fill="#000000" stroke="none">
<path fill="#000000" stroke="none" d="M95 520 c-3 -5 -1 -18 5 -29 8 -16 6
-20 -12 -23 -16 -2 -29 -22 -57 -87 l-35 -83 21 -17 c32 -25 46 -108 31 -187
-8 -43 -16 -64 -26 -64 -24 0 -7 -25 20 -28 25 -3 26 0 44 87 22 107 41 100
30 -10 -6 -68 -6 -69 19 -69 l24 0 -1 142 c-1 79 2 163 6 187 8 43 9 44 21 21
12 -22 13 -20 19 25 7 42 5 50 -17 74 -13 14 -22 32 -20 40 10 25 -57 45 -72
21z"/>
</g>
</svg>
