<?xml version="1.0" standalone="no"?>
<!DOCTYPE svg PUBLIC "-//W3C//DTD SVG 20010904//EN"
 "http://www.w3.org/TR/2001/REC-SVG-20010904/DTD/svg10.dtd">
<svg version="1.0" xmlns="http://www.w3.org/2000/svg"
 width="32.000000pt" height="76.000000pt" viewBox="0 0 32.000000 76.000000"
 preserveAspectRatio="xMidYMid meet">
<metadata>
Created by potrace 1.14, written by Peter Selinger 2001-2017
</metadata>
<g transform="translate(0.000000,76.000000) scale(0.100000,-0.100000)"
fill="#000000" stroke="none">
<path fill="#000000" stroke="none" d="M133 750 c-13 -5 -23 -18 -23 -29 0
-13 -9 -21 -29 -26 -26 -6 -30 -13 -49 -88 -12 -45 -23 -108 -26 -141 l-5 -58
66 -90 65 -89 -1 -114 -2 -115 52 0 52 0 -5 140 -4 140 31 0 c23 0 35 7 48 29
9 16 17 32 17 35 0 11 -40 6 -74 -8 -32 -13 -34 -13 -40 7 -3 12 3 36 14 55
24 40 25 68 5 115 -14 35 -14 38 11 74 22 32 25 45 19 83 -9 57 -10 59 -51 76
-38 16 -41 16 -71 4z"/>
</g>
</svg>
