<?xml version="1.0" standalone="no"?>
<!DOCTYPE svg PUBLIC "-//W3C//DTD SVG 20010904//EN"
 "http://www.w3.org/TR/2001/REC-SVG-20010904/DTD/svg10.dtd">
<svg version="1.0" xmlns="http://www.w3.org/2000/svg"
 width="38.000000pt" height="105.000000pt" viewBox="0 0 38.000000 105.000000"
 preserveAspectRatio="xMidYMid meet">
<metadata>
Created by potrace 1.14, written by Peter Selinger 2001-2017
</metadata>
<g transform="translate(0.000000,105.000000) scale(0.100000,-0.100000)"
fill="#000000" stroke="none">
<path fill="#000000" stroke="none" d="M136 1026 c-26 -20 -28 -26 -25 -79 l4
-56 -38 -17 c-73 -33 -97 -137 -62 -271 8 -31 15 -70 15 -85 0 -15 13 -49 28
-75 44 -75 48 -151 16 -296 -15 -67 -23 -122 -18 -126 5 -5 26 -11 46 -14 35
-5 37 -4 51 32 9 21 21 65 28 99 7 34 15 59 18 56 3 -3 13 -31 21 -61 8 -31
23 -61 32 -67 27 -17 66 28 74 84 5 40 2 51 -30 98 -35 52 -35 54 -30 135 3
45 10 94 16 110 8 19 7 45 -1 88 -11 55 -10 81 4 67 3 -3 10 -41 15 -85 5 -44
12 -92 16 -107 6 -27 7 -27 35 22 l28 49 -26 69 c-15 42 -27 100 -30 149 -5
78 -7 81 -48 125 -30 31 -49 63 -61 103 -22 72 -40 84 -78 53z"/>
</g>
</svg>
