<?xml version="1.0" standalone="no"?>
<!DOCTYPE svg PUBLIC "-//W3C//DTD SVG 20010904//EN"
 "http://www.w3.org/TR/2001/REC-SVG-20010904/DTD/svg10.dtd">
<svg version="1.0" xmlns="http://www.w3.org/2000/svg"
 width="43.000000pt" height="97.000000pt" viewBox="0 0 43.000000 97.000000"
 preserveAspectRatio="xMidYMid meet">
<metadata>
Created by potrace 1.14, written by Peter Selinger 2001-2017
</metadata>
<g transform="translate(0.000000,97.000000) scale(0.100000,-0.100000)"
fill="#000000" stroke="none">
<path fill="#000000" stroke="none" d="M159 931 c-43 -43 -51 -84 -24 -125 14
-21 14 -24 -1 -30 -11 -4 -14 -13 -10 -29 5 -21 -2 -27 -54 -52 -57 -27 -60
-30 -66 -74 -5 -30 -1 -75 11 -131 21 -99 20 -92 11 -152 l-7 -48 34 0 c19 0
48 3 65 6 28 6 31 10 42 73 19 100 16 97 122 103 96 6 148 21 148 45 0 7 -9
45 -20 85 -21 78 -62 145 -97 161 -20 9 -21 15 -15 61 11 91 9 98 -27 123 -47
32 -67 29 -112 -16z"/>
<path fill="#000000" stroke="none" d="M233 409 c-32 -9 -33 -12 -33 -59 0
-46 2 -50 23 -50 24 0 50 23 81 73 28 45 4 57 -71 36z"/>
<path fill="#000000" stroke="none" d="M0 186 c0 -30 5 -58 11 -61 5 -4 37 -4
70 0 l59 7 0 54 0 54 -70 0 -70 0 0 -54z"/>
<path fill="#000000" stroke="none" d="M48 49 c24 -38 77 -57 86 -32 12 31 5
42 -31 48 -21 4 -47 9 -57 12 -19 5 -19 4 2 -28z"/>
</g>
</svg>
