<?xml version="1.0" standalone="no"?>
<!DOCTYPE svg PUBLIC "-//W3C//DTD SVG 20010904//EN"
 "http://www.w3.org/TR/2001/REC-SVG-20010904/DTD/svg10.dtd">
<svg version="1.0" xmlns="http://www.w3.org/2000/svg"
 width="46.000000pt" height="118.000000pt" viewBox="0 0 46.000000 118.000000"
 preserveAspectRatio="xMidYMid meet">
<metadata>
Created by potrace 1.14, written by Peter Selinger 2001-2017
</metadata>
<g transform="translate(0.000000,118.000000) scale(0.100000,-0.100000)"
fill="#000000" stroke="none">
<path fill="#000000" stroke="none" d="M125 1162 l-35 -14 0 -97 0 -97 -45
-22 c-38 -18 -45 -26 -40 -44 2 -13 12 -74 20 -136 15 -110 14 -115 -4 -141
l-20 -27 54 -60 53 -60 9 -137 c7 -116 6 -144 -9 -193 -9 -32 -15 -61 -13 -64
3 -4 18 -13 35 -20 27 -11 34 -10 69 13 42 28 51 26 51 -9 0 -54 8 -56 71 -23
32 18 59 35 59 38 0 4 -9 94 -20 201 -11 107 -20 199 -20 205 0 6 28 26 61 44
l61 34 -5 51 c-3 28 -11 103 -18 166 l-13 114 -65 81 c-41 50 -73 102 -87 140
-22 60 -22 60 -68 65 -28 4 -59 1 -81 -8z"/>
</g>
</svg>
