<?xml version="1.0" standalone="no"?>
<!DOCTYPE svg PUBLIC "-//W3C//DTD SVG 20010904//EN"
 "http://www.w3.org/TR/2001/REC-SVG-20010904/DTD/svg10.dtd">
<svg version="1.0" xmlns="http://www.w3.org/2000/svg"
 width="15.000000pt" height="39.000000pt" viewBox="0 0 15.000000 39.000000"
 preserveAspectRatio="xMidYMid meet">
<metadata>
Created by potrace 1.14, written by Peter Selinger 2001-2017
</metadata>
<g transform="translate(0.000000,39.000000) scale(0.100000,-0.100000)"
fill="#000000" stroke="none">
<path fill="#000000" stroke="none" d="M87 384 c-3 -4 -4 -18 -1 -33 6 -31
-46 -145 -70 -154 -9 -4 -16 -12 -16 -19 0 -6 13 1 30 17 l29 28 -6 -39 c-3
-21 -7 -41 -9 -42 -1 -2 4 -22 12 -44 8 -22 14 -53 14 -69 0 -22 5 -29 20 -29
16 0 19 5 14 24 -3 13 6 71 20 129 31 124 32 154 9 201 -17 34 -32 44 -46 30z"/>
</g>
</svg>
