<?xml version="1.0" standalone="no"?>
<!DOCTYPE svg PUBLIC "-//W3C//DTD SVG 20010904//EN"
 "http://www.w3.org/TR/2001/REC-SVG-20010904/DTD/svg10.dtd">
<svg version="1.0" xmlns="http://www.w3.org/2000/svg"
 width="13.000000pt" height="31.000000pt" viewBox="0 0 13.000000 31.000000"
 preserveAspectRatio="xMidYMid meet">
<metadata>
Created by potrace 1.14, written by Peter Selinger 2001-2017
</metadata>
<g transform="translate(0.000000,31.000000) scale(0.100000,-0.100000)"
fill="#000000" stroke="none">
<path fill="#000000" stroke="none" d="M53 303 c-7 -2 -13 -12 -13 -20 0 -9
-8 -21 -17 -28 -14 -10 -17 -32 -18 -128 -2 -127 0 -131 55 -120 22 4 30 11
30 27 0 12 9 27 21 34 18 12 20 21 17 92 -2 63 -6 80 -19 83 -9 3 -20 19 -24
36 -7 31 -10 34 -32 24z"/>
</g>
</svg>
