<?xml version="1.0" standalone="no"?>
<!DOCTYPE svg PUBLIC "-//W3C//DTD SVG 20010904//EN"
 "http://www.w3.org/TR/2001/REC-SVG-20010904/DTD/svg10.dtd">
<svg version="1.0" xmlns="http://www.w3.org/2000/svg"
 width="179.000000pt" height="443.000000pt" viewBox="0 0 179.000000 443.000000"
 preserveAspectRatio="xMidYMid meet">
<metadata>
Created by potrace 1.14, written by Peter Selinger 2001-2017
</metadata>
<g transform="translate(0.000000,443.000000) scale(0.100000,-0.100000)"
fill="#000000" stroke="none">
<path fill="#000000" stroke="none" d="M947 4336 c-81 -51 -152 -97 -158 -103
-5 -5 -18 -65 -28 -134 -10 -68 -28 -148 -40 -177 -11 -29 -21 -59 -21 -66 0
-7 32 -55 70 -106 39 -51 70 -94 70 -96 0 -1 -57 -39 -127 -85 -71 -45 -166
-115 -213 -154 -83 -71 -89 -73 -290 -148 l-205 -75 -3 -57 c-2 -35 1 -55 7
-51 19 12 321 -111 321 -130 0 -3 -35 -47 -79 -98 l-79 -91 10 -58 10 -57 47
0 46 0 45 -71 c40 -63 45 -69 57 -53 7 10 13 21 13 26 0 16 16 7 76 -42 57
-47 66 -50 193 -79 73 -16 135 -31 137 -34 3 -2 12 -46 21 -97 13 -77 13 -102
3 -147 l-12 -54 -133 -66 -133 -67 -31 -65 -32 -66 50 -590 c28 -324 58 -653
67 -730 l17 -140 -72 -179 c-39 -99 -70 -180 -69 -182 2 -1 66 -5 143 -9 l140
-7 111 143 111 144 51 170 51 170 -51 80 -51 80 -28 318 c-15 174 -29 338 -30
363 l-3 46 204 116 203 117 66 90 c62 84 66 93 67 145 2 77 66 357 124 535 35
107 51 174 55 235 7 80 11 93 75 215 l68 130 -30 166 -31 165 -156 59 c-86 32
-159 61 -163 64 -4 3 40 80 97 171 58 91 105 169 105 174 0 18 -142 391 -154
403 -13 14 -324 133 -346 133 -8 -1 -82 -43 -163 -94z"/>
</g>
</svg>
