<?xml version="1.0" standalone="no"?>
<!DOCTYPE svg PUBLIC "-//W3C//DTD SVG 20010904//EN"
 "http://www.w3.org/TR/2001/REC-SVG-20010904/DTD/svg10.dtd">
<svg version="1.0" xmlns="http://www.w3.org/2000/svg"
 width="20.000000pt" height="53.000000pt" viewBox="0 0 20.000000 53.000000"
 preserveAspectRatio="xMidYMid meet">
<metadata>
Created by potrace 1.14, written by Peter Selinger 2001-2017
</metadata>
<g transform="translate(0.000000,53.000000) scale(0.100000,-0.100000)"
fill="#000000" stroke="none">
<path fill="#000000" stroke="none" d="M0 320 l0 -210 23 0 c16 0 26 -10 39
-40 14 -34 21 -40 47 -40 30 0 31 2 31 43 0 23 -7 63 -15 90 l-14 47 44 33
c24 17 43 37 41 43 -2 6 -14 48 -26 93 l-22 82 -69 34 c-38 19 -71 35 -74 35
-3 0 -5 -94 -5 -210z"/>
<path fill="#000000" stroke="none" d="M0 43 c0 -39 2 -43 25 -43 25 0 25 1
11 28 -32 58 -36 59 -36 15z"/>
</g>
</svg>
