<?xml version="1.0" standalone="no"?>
<!DOCTYPE svg PUBLIC "-//W3C//DTD SVG 20010904//EN"
 "http://www.w3.org/TR/2001/REC-SVG-20010904/DTD/svg10.dtd">
<svg version="1.0" xmlns="http://www.w3.org/2000/svg"
 width="27.000000pt" height="69.000000pt" viewBox="0 0 27.000000 69.000000"
 preserveAspectRatio="xMidYMid meet">
<metadata>
Created by potrace 1.14, written by Peter Selinger 2001-2017
</metadata>
<g transform="translate(0.000000,69.000000) scale(0.100000,-0.100000)"
fill="#000000" stroke="none">
<path fill="#000000" stroke="none" d="M154 669 c-10 -12 -15 -29 -12 -48 4
-28 0 -32 -38 -50 -53 -25 -78 -75 -95 -190 -12 -78 -12 -84 6 -97 26 -19 32
-18 48 13 14 25 15 23 21 -53 3 -43 9 -110 12 -148 5 -52 3 -67 -6 -61 -8 5
-11 1 -8 -11 4 -22 42 -29 95 -19 l33 6 -25 33 c-31 41 -31 50 -1 103 14 24
28 64 32 89 4 28 16 56 31 72 24 26 25 32 21 119 -4 86 -6 95 -33 123 -27 28
-28 33 -19 70 12 44 8 54 -23 62 -14 4 -28 -1 -39 -13z"/>
</g>
</svg>
