<?xml version="1.0" standalone="no"?>
<!DOCTYPE svg PUBLIC "-//W3C//DTD SVG 20010904//EN"
 "http://www.w3.org/TR/2001/REC-SVG-20010904/DTD/svg10.dtd">
<svg version="1.0" xmlns="http://www.w3.org/2000/svg"
 width="101.000000pt" height="261.000000pt" viewBox="0 0 101.000000 261.000000"
 preserveAspectRatio="xMidYMid meet">
<metadata>
Created by potrace 1.14, written by Peter Selinger 2001-2017
</metadata>
<g transform="translate(0.000000,261.000000) scale(0.100000,-0.100000)"
fill="#000000" stroke="none">
<path fill="#000000" stroke="none" d="M463 2544 l-113 -65 0 -127 0 -127 -44
-28 c-25 -15 -72 -56 -104 -89 l-60 -62 1 -400 c0 -384 -1 -405 -23 -501 -14
-62 -39 -133 -67 -188 l-44 -88 -5 -392 c-7 -475 -8 -470 79 -475 l56 -3 27
52 c40 80 54 125 73 235 16 90 16 115 5 219 -7 64 -14 142 -15 173 l-3 56 63
58 64 58 36 -22 c53 -32 52 -29 77 -140 39 -171 41 -245 10 -367 -24 -93 -26
-109 -15 -160 7 -35 25 -75 47 -106 20 -27 37 -51 38 -53 4 -6 79 37 104 60
32 29 46 94 55 243 10 177 53 445 77 478 11 15 34 63 51 105 31 79 33 94 57
407 5 66 21 183 35 260 15 77 37 201 51 275 13 74 26 140 29 148 10 26 -37 72
-80 79 -49 7 -107 64 -153 150 -25 48 -33 78 -42 168 -10 91 -17 120 -43 168
-22 40 -38 57 -52 57 -11 0 -29 2 -40 5 -12 2 -64 -22 -132 -61z"/>
</g>
</svg>
