<?xml version="1.0" standalone="no"?>
<!DOCTYPE svg PUBLIC "-//W3C//DTD SVG 20010904//EN"
 "http://www.w3.org/TR/2001/REC-SVG-20010904/DTD/svg10.dtd">
<svg version="1.0" xmlns="http://www.w3.org/2000/svg"
 width="148.000000pt" height="352.000000pt" viewBox="0 0 148.000000 352.000000"
 preserveAspectRatio="xMidYMid meet">
<metadata>
Created by potrace 1.14, written by Peter Selinger 2001-2017
</metadata>
<g transform="translate(0.000000,352.000000) scale(0.100000,-0.100000)"
fill="#000000" stroke="none">
<path fill="#000000" stroke="none" d="M335 3504 c-49 -18 -100 -85 -162 -215
-38 -80 -47 -114 -73 -268 -29 -172 -29 -180 -19 -345 8 -118 8 -176 0 -192
-5 -13 -27 -260 -48 -549 l-37 -526 43 -132 c24 -73 74 -197 112 -276 l70
-143 -1 -292 c-1 -160 1 -298 3 -306 3 -8 8 -27 11 -42 5 -22 21 -35 74 -62
55 -28 71 -42 86 -73 11 -24 31 -46 57 -61 l40 -23 79 76 79 77 36 -28 c20
-16 45 -46 56 -68 18 -34 24 -37 47 -31 15 3 106 8 202 10 96 3 208 7 248 11
89 7 88 5 73 193 l-11 138 32 69 c18 38 58 109 91 158 67 103 67 101 16 266
-16 52 -38 158 -50 235 -11 77 -26 163 -34 190 -7 28 -13 64 -13 80 -1 75 -85
538 -116 640 -37 119 -54 197 -86 400 -42 262 -69 340 -173 495 -65 96 -103
188 -112 270 -7 62 -30 180 -37 184 -2 1 -28 22 -58 47 -89 73 -117 86 -215
98 -115 14 -160 13 -210 -5z"/>
</g>
</svg>
