<?xml version="1.0" standalone="no"?>
<!DOCTYPE svg PUBLIC "-//W3C//DTD SVG 20010904//EN"
 "http://www.w3.org/TR/2001/REC-SVG-20010904/DTD/svg10.dtd">
<svg version="1.0" xmlns="http://www.w3.org/2000/svg"
 width="21.000000pt" height="56.000000pt" viewBox="0 0 21.000000 56.000000"
 preserveAspectRatio="xMidYMid meet">
<metadata>
Created by potrace 1.14, written by Peter Selinger 2001-2017
</metadata>
<g transform="translate(0.000000,56.000000) scale(0.100000,-0.100000)"
fill="#000000" stroke="none">
<path fill="#000000" stroke="none" d="M93 554 c-6 -3 -29 -21 -50 -41 l-38
-36 -3 -94 c-4 -87 -2 -96 24 -140 25 -42 29 -61 32 -145 l4 -98 42 6 c22 4
43 9 46 11 2 2 15 39 29 81 42 135 40 300 -4 348 -12 13 -28 45 -34 69 -11 42
-20 50 -48 39z"/>
</g>
</svg>
