<?xml version="1.0" standalone="no"?>
<!DOCTYPE svg PUBLIC "-//W3C//DTD SVG 20010904//EN"
 "http://www.w3.org/TR/2001/REC-SVG-20010904/DTD/svg10.dtd">
<svg version="1.0" xmlns="http://www.w3.org/2000/svg"
 width="45.000000pt" height="104.000000pt" viewBox="0 0 45.000000 104.000000"
 preserveAspectRatio="xMidYMid meet">
<metadata>
Created by potrace 1.14, written by Peter Selinger 2001-2017
</metadata>
<g transform="translate(0.000000,104.000000) scale(0.100000,-0.100000)"
fill="#000000" stroke="none">
<path fill="#000000" stroke="none" d="M242 1018 c-35 -14 -68 -38 -100 -73
-46 -50 -49 -57 -79 -186 -17 -74 -39 -172 -48 -218 -17 -82 -17 -84 4 -112
12 -16 30 -41 41 -56 11 -16 23 -57 28 -94 10 -79 69 -181 115 -200 l27 -12
-49 -22 c-85 -40 -76 -45 88 -45 83 0 151 1 151 3 0 2 -9 54 -20 117 -13 72
-28 124 -42 142 -19 28 -20 39 -15 171 4 98 12 165 27 217 11 41 23 122 26
180 5 86 11 113 31 148 14 24 23 45 21 47 -1 1 -37 5 -78 8 -62 5 -84 3 -128
-15z"/>
</g>
</svg>
