<?xml version="1.0" standalone="no"?>
<!DOCTYPE svg PUBLIC "-//W3C//DTD SVG 20010904//EN"
 "http://www.w3.org/TR/2001/REC-SVG-20010904/DTD/svg10.dtd">
<svg version="1.0" xmlns="http://www.w3.org/2000/svg"
 width="170.000000pt" height="384.000000pt" viewBox="0 0 170.000000 384.000000"
 preserveAspectRatio="xMidYMid meet">
<metadata>
Created by potrace 1.14, written by Peter Selinger 2001-2017
</metadata>
<g transform="translate(0.000000,384.000000) scale(0.100000,-0.100000)"
fill="#000000" stroke="none">
<path fill="#000000" stroke="none" d="M387 3829 c-54 -8 -363 -174 -370 -199
-3 -8 -8 -24 -13 -35 -6 -14 6 -8 42 20 90 74 91 75 68 40 -12 -16 -26 -55
-32 -85 l-11 -55 36 -30 c35 -31 35 -31 28 -92 -5 -45 -2 -77 9 -117 11 -36
13 -62 8 -74 -5 -9 -12 -42 -15 -72 l-6 -55 77 -44 c42 -25 78 -45 80 -46 3
-2 -15 -182 -24 -232 -5 -31 -7 -33 -45 -33 -39 0 -40 -1 -35 -27 3 -16 24
-137 46 -271 39 -237 42 -246 110 -418 l70 -175 -41 -252 -41 -252 27 -238 27
-238 -27 -420 c-15 -231 -25 -423 -22 -425 3 -3 67 2 143 10 77 8 257 20 402
27 144 7 262 16 262 20 0 4 18 110 41 236 39 222 40 232 34 383 -6 146 -8 160
-42 246 l-35 91 -179 152 -180 153 7 76 c4 42 9 80 13 83 3 4 76 21 161 38 85
17 157 36 160 42 4 5 12 87 19 182 7 95 19 224 27 287 7 63 14 118 14 121 0 4
64 10 143 14 138 7 145 8 252 52 61 24 114 48 118 52 9 9 -66 368 -80 382 -9
9 -329 109 -348 109 -6 0 -39 -21 -74 -46 -35 -25 -67 -42 -71 -37 -4 4 -49
73 -99 152 -89 142 -91 146 -86 195 8 77 35 461 35 495 0 26 -10 37 -73 79
-73 50 -205 119 -372 196 -80 37 -95 41 -138 35z"/>
</g>
</svg>
