<?xml version="1.0" standalone="no"?>
<!DOCTYPE svg PUBLIC "-//W3C//DTD SVG 20010904//EN"
 "http://www.w3.org/TR/2001/REC-SVG-20010904/DTD/svg10.dtd">
<svg version="1.0" xmlns="http://www.w3.org/2000/svg"
 width="13.000000pt" height="34.000000pt" viewBox="0 0 13.000000 34.000000"
 preserveAspectRatio="xMidYMid meet">
<metadata>
Created by potrace 1.14, written by Peter Selinger 2001-2017
</metadata>
<g transform="translate(0.000000,34.000000) scale(0.100000,-0.100000)"
fill="#000000" stroke="none">
<path fill="#000000" stroke="none" d="M0 170 c0 -94 4 -170 8 -170 16 0 32
24 32 47 0 17 10 28 34 40 19 8 39 26 45 39 14 31 3 82 -20 95 -14 7 -19 21
-19 49 0 36 -3 41 -36 55 -20 8 -38 15 -40 15 -2 0 -4 -76 -4 -170z"/>
</g>
</svg>
