<?xml version="1.0" standalone="no"?>
<!DOCTYPE svg PUBLIC "-//W3C//DTD SVG 20010904//EN"
 "http://www.w3.org/TR/2001/REC-SVG-20010904/DTD/svg10.dtd">
<svg version="1.0" xmlns="http://www.w3.org/2000/svg"
 width="177.000000pt" height="431.000000pt" viewBox="0 0 177.000000 431.000000"
 preserveAspectRatio="xMidYMid meet">
<metadata>
Created by potrace 1.14, written by Peter Selinger 2001-2017
</metadata>
<g transform="translate(0.000000,431.000000) scale(0.100000,-0.100000)"
fill="#000000" stroke="none">
<path fill="#000000" stroke="none" d="M425 4274 c-49 -18 -94 -34 -99 -36 -5
-2 21 -111 58 -242 37 -131 65 -243 63 -249 -3 -7 -77 -32 -165 -57 l-160 -44
-59 -206 -59 -205 103 -210 103 -210 0 -351 0 -351 57 -88 57 -89 53 -280 c72
-388 93 -618 93 -1042 l0 -324 68 -126 c53 -100 73 -129 97 -139 17 -7 100
-16 189 -20 l158 -7 -8 23 c-29 93 -73 244 -70 246 1 2 47 -18 100 -43 l98
-46 161 11 c89 7 162 13 162 14 1 1 15 20 32 42 l31 41 -166 178 -167 179 3
251 c9 686 24 1302 36 1486 8 113 14 206 13 206 -1 1 -100 -65 -219 -147
l-218 -150 -53 41 c-47 35 -74 73 -212 296 l-157 255 58 139 59 138 90 44 90
44 195 -11 195 -11 60 28 c55 25 67 26 141 21 l82 -6 77 -99 c43 -54 80 -96
84 -93 3 4 70 174 147 378 l141 372 -91 7 c-50 3 -91 6 -92 5 0 -1 -49 -123
-109 -272 -59 -148 -111 -274 -115 -278 -4 -4 -45 10 -91 31 -81 37 -89 44
-154 128 -38 49 -102 127 -142 174 l-73 85 0 215 0 215 -44 56 -45 55 -143 32
c-79 18 -145 32 -148 31 -3 -1 -45 -16 -95 -35z"/>
</g>
</svg>
