<?xml version="1.0" standalone="no"?>
<!DOCTYPE svg PUBLIC "-//W3C//DTD SVG 20010904//EN"
 "http://www.w3.org/TR/2001/REC-SVG-20010904/DTD/svg10.dtd">
<svg version="1.0" xmlns="http://www.w3.org/2000/svg"
 width="45.000000pt" height="118.000000pt" viewBox="0 0 45.000000 118.000000"
 preserveAspectRatio="xMidYMid meet">
<metadata>
Created by potrace 1.14, written by Peter Selinger 2001-2017
</metadata>
<g transform="translate(0.000000,118.000000) scale(0.100000,-0.100000)"
fill="#000000" stroke="none">
<path fill="#000000" stroke="none" d="M143 1174 c-8 -4 -9 -13 -3 -28 6 -17
1 -33 -22 -70 -38 -62 -78 -202 -85 -296 -2 -41 -11 -96 -20 -122 -18 -60 -11
-97 27 -133 l30 -29 0 68 c0 70 17 156 30 156 5 0 11 -39 15 -87 4 -48 16
-107 26 -131 23 -53 24 -86 4 -163 -12 -44 -13 -69 -5 -101 5 -24 10 -59 10
-78 1 -23 10 -46 29 -68 l28 -32 12 40 c7 25 11 104 10 212 -1 184 4 217 27
197 11 -9 14 -46 14 -163 1 -84 7 -182 14 -221 8 -38 11 -75 9 -82 -3 -7 2
-13 11 -13 9 0 19 -7 22 -15 4 -8 10 -15 15 -15 20 0 25 45 13 108 -9 48 -9
83 -2 131 6 36 8 110 5 163 -7 106 3 153 33 161 26 7 29 58 8 137 -27 98 -25
110 18 110 l36 0 -7 57 c-12 101 -79 200 -150 223 -24 8 -44 24 -56 45 -23 38
-60 53 -96 39z"/>
</g>
</svg>
