<?xml version="1.0" standalone="no"?>
<!DOCTYPE svg PUBLIC "-//W3C//DTD SVG 20010904//EN"
 "http://www.w3.org/TR/2001/REC-SVG-20010904/DTD/svg10.dtd">
<svg version="1.0" xmlns="http://www.w3.org/2000/svg"
 width="12.000000pt" height="28.000000pt" viewBox="0 0 12.000000 28.000000"
 preserveAspectRatio="xMidYMid meet">
<metadata>
Created by potrace 1.14, written by Peter Selinger 2001-2017
</metadata>
<g transform="translate(0.000000,28.000000) scale(0.100000,-0.100000)"
fill="#000000" stroke="none">
<path fill="#000000" stroke="none" d="M22 231 c-27 -59 -27 -57 -1 -105 13
-25 19 -52 17 -79 -1 -25 2 -42 10 -45 8 -2 12 10 12 42 0 26 5 46 11 46 7 0
8 -16 3 -45 -7 -49 11 -65 20 -17 12 66 19 129 17 152 -4 30 -42 100 -56 100
-6 0 -20 -22 -33 -49z"/>
</g>
</svg>
