<?xml version="1.0" standalone="no"?>
<!DOCTYPE svg PUBLIC "-//W3C//DTD SVG 20010904//EN"
 "http://www.w3.org/TR/2001/REC-SVG-20010904/DTD/svg10.dtd">
<svg version="1.0" xmlns="http://www.w3.org/2000/svg"
 width="81.000000pt" height="193.000000pt" viewBox="0 0 81.000000 193.000000"
 preserveAspectRatio="xMidYMid meet">
<metadata>
Created by potrace 1.14, written by Peter Selinger 2001-2017
</metadata>
<g transform="translate(0.000000,193.000000) scale(0.100000,-0.100000)"
fill="#000000" stroke="none">
<path fill="#000000" stroke="none" d="M331 1921 c-18 -5 -31 -21 -45 -56 -11
-28 -23 -52 -27 -55 -15 -11 -27 -58 -38 -149 -7 -52 -41 -226 -76 -387 l-65
-294 22 -103 21 -104 -62 -204 -63 -204 6 -173 c3 -95 8 -177 11 -183 4 -5 54
-9 113 -8 l107 1 -56 26 -56 25 51 156 c29 86 79 247 112 358 32 112 62 203
65 203 3 0 58 -109 122 -242 108 -228 117 -251 141 -372 14 -71 27 -130 29
-131 1 -1 39 13 85 30 51 19 79 35 73 40 -5 6 -32 54 -60 109 -42 80 -59 130
-92 270 -23 94 -63 230 -90 303 -33 92 -50 155 -55 208 l-7 76 -73 72 c-65 63
-90 99 -66 96 4 0 36 -34 72 -74 36 -41 68 -74 73 -74 13 -2 7 236 -9 344
l-15 106 30 153 c17 85 31 163 31 174 0 11 -14 32 -31 46 -26 22 -40 26 -92
25 -34 -1 -73 -4 -86 -8z"/>
<path fill="#ffffff" stroke="none" d="M261 1509 c-2 -61 1 -90 14 -119 10
-22 15 -47 11 -57 -11 -28 -36 38 -47 124 -8 60 -7 78 6 103 9 16 17 30 18 30
1 0 0 -36 -2 -81z"/>
</g>
</svg>
