<?xml version="1.0" standalone="no"?>
<!DOCTYPE svg PUBLIC "-//W3C//DTD SVG 20010904//EN"
 "http://www.w3.org/TR/2001/REC-SVG-20010904/DTD/svg10.dtd">
<svg version="1.0" xmlns="http://www.w3.org/2000/svg"
 width="109.000000pt" height="291.000000pt" viewBox="0 0 109.000000 291.000000"
 preserveAspectRatio="xMidYMid meet">
<metadata>
Created by potrace 1.14, written by Peter Selinger 2001-2017
</metadata>
<g transform="translate(0.000000,291.000000) scale(0.100000,-0.100000)"
fill="#000000" stroke="none">
<path fill="#000000" stroke="none" d="M515 2896 c-44 -8 -97 -21 -117 -29
l-38 -16 0 -143 c0 -79 5 -161 10 -183 20 -75 42 -125 55 -125 8 0 16 -19 20
-47 l7 -47 -65 -58 c-80 -71 -142 -171 -156 -252 -6 -33 -11 -139 -11 -237 0
-167 -1 -180 -25 -233 -32 -72 -43 -124 -56 -251 -7 -79 -19 -128 -50 -211
-22 -60 -51 -147 -64 -193 l-23 -84 47 -91 47 -91 42 0 41 0 10 -60 c5 -33 26
-168 47 -300 20 -132 37 -240 38 -241 6 -3 606 35 613 39 6 4 22 24 37 45 26
39 28 46 37 236 6 108 9 212 7 232 l-3 35 -72 -61 c-46 -39 -90 -67 -119 -76
-60 -18 -193 -18 -311 0 -87 14 -94 17 -125 52 -50 57 -58 64 -74 64 -8 0 -17
13 -21 30 -3 17 -12 30 -20 30 -10 0 -13 6 -8 17 4 10 8 52 9 93 l2 75 93 160
c51 88 98 166 105 173 10 11 22 9 64 -7 41 -16 77 -21 172 -22 112 -1 123 1
163 25 86 52 78 25 103 338 13 156 28 297 32 313 6 18 9 -101 9 -310 0 -187 3
-449 7 -582 7 -212 10 -244 25 -257 17 -15 20 -12 49 51 44 99 44 102 22 201
-36 162 -44 308 -31 549 18 329 23 511 12 488 -6 -16 -10 -8 -13 35 -8 87 -42
158 -119 247 -22 24 -42 55 -45 67 -3 13 -20 31 -38 41 -43 23 -116 156 -98
178 7 8 28 48 48 88 27 56 35 81 31 109 -3 19 -11 72 -17 118 l-13 82 -46 0
c-25 0 -68 2 -96 4 -27 3 -86 -1 -130 -8z"/>
</g>
</svg>
