<?xml version="1.0" standalone="no"?>
<!DOCTYPE svg PUBLIC "-//W3C//DTD SVG 20010904//EN"
 "http://www.w3.org/TR/2001/REC-SVG-20010904/DTD/svg10.dtd">
<svg version="1.0" xmlns="http://www.w3.org/2000/svg"
 width="147.000000pt" height="352.000000pt" viewBox="0 0 147.000000 352.000000"
 preserveAspectRatio="xMidYMid meet">
<metadata>
Created by potrace 1.14, written by Peter Selinger 2001-2017
</metadata>
<g transform="translate(0.000000,352.000000) scale(0.100000,-0.100000)"
fill="#000000" stroke="none">
<path fill="#000000" stroke="none" d="M395 3470 c-60 -27 -113 -51 -118 -52
-4 -2 21 -138 57 -303 35 -165 63 -301 61 -303 -1 -1 -46 -11 -99 -21 -54 -10
-101 -22 -105 -27 -4 -5 -35 -76 -69 -159 l-61 -150 -31 -340 -31 -340 26
-350 c14 -192 25 -359 25 -370 0 -15 27 -34 118 -80 64 -33 122 -60 128 -59 6
1 19 -88 33 -235 32 -337 26 -311 72 -311 29 0 39 -5 44 -20 4 -12 15 -20 29
-20 21 0 23 -3 18 -48 -3 -40 4 -70 39 -165 33 -86 48 -117 61 -117 9 0 68 36
131 81 l113 81 -58 341 -58 341 24 30 c13 17 39 49 59 71 l34 40 8 -165 c4
-91 12 -258 19 -373 l11 -207 211 104 c233 114 219 101 230 213 5 50 -69 1209
-82 1270 -2 13 -25 33 -60 53 l-56 31 158 152 c86 84 165 158 175 165 16 11
14 19 -31 115 -28 61 -107 189 -194 317 l-146 214 -177 39 c-97 21 -178 39
-179 40 -2 1 14 69 34 150 l37 148 -140 134 c-77 74 -142 134 -145 134 -3 0
-54 -22 -115 -49z"/>
<path fill="#ffffff" stroke="none" d="M336 1838 c-9 -304 -27 -666 -35 -707
-5 -24 -15 30 -38 200 l-31 233 51 248 c28 136 53 248 55 248 3 0 2 -100 -2
-222z"/>
</g>
</svg>
