<?xml version="1.0" standalone="no"?>
<!DOCTYPE svg PUBLIC "-//W3C//DTD SVG 20010904//EN"
 "http://www.w3.org/TR/2001/REC-SVG-20010904/DTD/svg10.dtd">
<svg version="1.0" xmlns="http://www.w3.org/2000/svg"
 width="87.000000pt" height="244.000000pt" viewBox="0 0 87.000000 244.000000"
 preserveAspectRatio="xMidYMid meet">
<metadata>
Created by potrace 1.14, written by Peter Selinger 2001-2017
</metadata>
<g transform="translate(0.000000,244.000000) scale(0.100000,-0.100000)"
fill="#000000" stroke="none">
<path fill="#000000" stroke="none" d="M308 2332 c-38 -61 -68 -113 -68 -117
0 -3 19 -37 43 -73 24 -37 46 -72 50 -79 5 -8 -12 -25 -48 -49 -55 -37 -59
-49 -20 -56 16 -2 24 -21 43 -97 l23 -94 -26 -125 c-15 -69 -33 -139 -41 -156
-13 -28 -14 -8 -10 189 4 202 3 222 -14 245 l-18 24 -34 -26 c-26 -20 -39 -42
-61 -110 -25 -77 -27 -98 -27 -234 0 -82 9 -225 20 -317 17 -149 22 -173 45
-202 31 -41 31 -44 3 -91 -26 -44 -26 -50 9 -239 14 -77 31 -176 38 -220 7
-44 19 -115 26 -158 l13 -78 -83 -83 c-46 -46 -81 -88 -77 -94 7 -12 -30 -46
-42 -38 -5 3 -19 -5 -31 -18 l-22 -23 38 -7 c21 -3 124 -6 230 -6 l191 0 -24
80 -25 81 72 91 73 90 13 107 c7 58 19 183 28 276 8 94 18 195 21 225 l6 55
49 -97 c45 -89 52 -98 86 -107 21 -6 45 -11 54 -11 22 0 68 51 52 57 -7 3 -13
12 -13 21 0 10 -24 36 -52 58 l-53 41 -54 232 -53 233 7 156 c5 122 3 177 -9
245 -14 82 -14 95 5 225 l21 137 -34 112 c-18 62 -38 115 -44 117 -6 2 -55 7
-110 11 l-99 6 -67 -109z"/>
<path fill="#ffffff" stroke="none" d="M357 1403 c14 -42 14 -45 -33 -160
l-48 -117 -17 99 c-9 55 -20 128 -24 163 l-7 63 58 -3 57 -3 14 -42z"/>
</g>
</svg>
