<?xml version="1.0" standalone="no"?>
<!DOCTYPE svg PUBLIC "-//W3C//DTD SVG 20010904//EN"
 "http://www.w3.org/TR/2001/REC-SVG-20010904/DTD/svg10.dtd">
<svg version="1.0" xmlns="http://www.w3.org/2000/svg"
 width="152.000000pt" height="377.000000pt" viewBox="0 0 152.000000 377.000000"
 preserveAspectRatio="xMidYMid meet">
<metadata>
Created by potrace 1.14, written by Peter Selinger 2001-2017
</metadata>
<g transform="translate(0.000000,377.000000) scale(0.100000,-0.100000)"
fill="#000000" stroke="none">
<path fill="#000000" stroke="none" d="M429 3763 c-14 -2 -55 -21 -90 -41
l-64 -37 -18 -95 c-13 -69 -16 -119 -12 -180 9 -134 26 -240 39 -240 18 0 88
-117 98 -166 16 -74 8 -85 -115 -170 -61 -42 -147 -109 -190 -148 l-79 -70 7
-55 c3 -31 31 -243 61 -471 l56 -415 -26 -205 c-14 -113 -33 -279 -43 -370
l-16 -165 26 -165 c14 -91 34 -221 43 -290 15 -118 86 -466 97 -476 5 -5 1097
13 1102 18 1 2 -21 163 -51 358 -29 195 -63 447 -76 560 l-24 205 34 112 35
111 142 166 142 166 6 214 6 213 -35 179 c-34 176 -35 180 -120 355 l-86 176
-167 18 -166 18 -73 88 -73 88 25 203 c23 189 23 209 11 293 l-14 90 -69 68
-70 67 -113 -1 c-63 -1 -126 -4 -140 -6z"/>
<path fill="#ffffff" stroke="none" d="M635 2643 c-27 -153 -27 -154 9 -213
l33 -56 7 -290 c4 -160 11 -355 16 -435 l9 -144 -91 -92 -91 -91 -84 56 -84
55 6 71 c3 39 17 273 30 520 14 248 29 452 33 455 5 4 26 17 48 30 21 14 41
26 42 27 2 1 -6 24 -17 49 -35 78 -42 73 111 83 25 2 27 -1 23 -25z"/>
</g>
</svg>
