<?xml version="1.0" standalone="no"?>
<!DOCTYPE svg PUBLIC "-//W3C//DTD SVG 20010904//EN"
 "http://www.w3.org/TR/2001/REC-SVG-20010904/DTD/svg10.dtd">
<svg version="1.0" xmlns="http://www.w3.org/2000/svg"
 width="21.000000pt" height="48.000000pt" viewBox="0 0 21.000000 48.000000"
 preserveAspectRatio="xMidYMid meet">
<metadata>
Created by potrace 1.14, written by Peter Selinger 2001-2017
</metadata>
<g transform="translate(0.000000,48.000000) scale(0.100000,-0.100000)"
fill="#000000" stroke="none">
<path fill="#000000" stroke="none" d="M45 473 c-36 -9 -40 -21 -16 -54 l23
-31 -20 -28 c-32 -43 -31 -78 7 -153 26 -52 34 -80 35 -127 1 -55 3 -60 28
-69 14 -5 29 -7 32 -4 3 3 -3 27 -13 53 -13 33 -16 60 -12 86 l7 39 12 -34 c7
-19 12 -46 12 -60 1 -25 20 -61 34 -61 19 0 -7 231 -30 264 -16 23 -18 36 -6
36 5 0 17 -18 27 -40 37 -82 61 -72 28 12 -21 56 -51 88 -81 88 -21 0 -23 3
-18 25 6 25 -8 66 -22 64 -4 -1 -16 -3 -27 -6z"/>
</g>
</svg>
