<?xml version="1.0" standalone="no"?>
<!DOCTYPE svg PUBLIC "-//W3C//DTD SVG 20010904//EN"
 "http://www.w3.org/TR/2001/REC-SVG-20010904/DTD/svg10.dtd">
<svg version="1.0" xmlns="http://www.w3.org/2000/svg"
 width="75.000000pt" height="173.000000pt" viewBox="0 0 75.000000 173.000000"
 preserveAspectRatio="xMidYMid meet">
<metadata>
Created by potrace 1.14, written by Peter Selinger 2001-2017
</metadata>
<g transform="translate(0.000000,173.000000) scale(0.100000,-0.100000)"
fill="#000000" stroke="none">
<path fill="#000000" stroke="none" d="M369 1714 c-36 -11 -55 -26 -91 -71
-53 -69 -68 -136 -57 -254 7 -67 4 -88 -31 -224 -22 -82 -44 -188 -51 -235
l-12 -85 37 -60 c57 -94 53 -118 -45 -294 -45 -80 -91 -159 -102 -175 l-21
-29 30 -24 c31 -26 52 -36 98 -47 l29 -7 -6 65 c-6 63 -4 69 36 148 l42 83 3
-57 c3 -52 6 -59 36 -78 19 -11 37 -27 40 -35 3 -9 8 -77 11 -153 9 -198 1
-182 93 -182 71 1 78 3 96 26 27 38 9 74 -38 74 -65 0 -73 57 -25 177 17 43
42 128 55 188 22 104 22 113 8 169 -9 35 -13 74 -9 95 4 19 15 111 25 205 10
94 24 195 30 224 11 47 14 52 39 52 15 0 53 5 83 11 l56 11 7 94 c4 51 5 100
1 109 -3 8 0 15 6 15 7 0 9 18 4 57 -8 66 -4 60 -37 68 -23 6 -28 1 -55 -54
-16 -33 -34 -60 -41 -60 -21 -1 -60 62 -78 129 -24 90 -39 116 -76 129 -38 13
-32 13 -90 -5z"/>
</g>
</svg>
