<?xml version="1.0" standalone="no"?>
<!DOCTYPE svg PUBLIC "-//W3C//DTD SVG 20010904//EN"
 "http://www.w3.org/TR/2001/REC-SVG-20010904/DTD/svg10.dtd">
<svg version="1.0" xmlns="http://www.w3.org/2000/svg"
 width="43.000000pt" height="120.000000pt" viewBox="0 0 43.000000 120.000000"
 preserveAspectRatio="xMidYMid meet">
<metadata>
Created by potrace 1.14, written by Peter Selinger 2001-2017
</metadata>
<g transform="translate(0.000000,120.000000) scale(0.100000,-0.100000)"
fill="#000000" stroke="none">
<path fill="#000000" stroke="none" d="M215 1190 c-81 -9 -100 -16 -119 -45
-9 -14 -35 -34 -58 -46 -37 -19 -40 -23 -25 -34 9 -7 17 -16 17 -20 0 -5 7
-17 16 -27 10 -10 19 -40 21 -70 2 -29 8 -63 15 -75 16 -31 4 -50 -36 -57 -19
-4 -38 -10 -40 -15 -3 -4 4 -25 14 -47 26 -49 25 -89 0 -125 l-21 -28 50 -26
c41 -20 51 -31 56 -57 3 -18 9 -54 14 -79 5 -31 3 -59 -6 -90 -13 -42 -43
-264 -43 -321 l0 -28 113 0 c128 0 129 0 142 88 4 24 15 67 25 95 10 29 17 53
15 55 -2 2 -13 -2 -26 -8 -39 -21 -80 10 -119 90 -27 56 -32 75 -27 112 4 28
13 48 26 57 14 9 21 24 21 46 0 41 76 195 123 250 28 33 33 46 29 74 -3 25 -2
32 8 26 25 -15 30 19 6 45 -25 26 -46 97 -46 152 -1 80 -51 118 -145 108z"/>
</g>
</svg>
