<?xml version="1.0" standalone="no"?>
<!DOCTYPE svg PUBLIC "-//W3C//DTD SVG 20010904//EN"
 "http://www.w3.org/TR/2001/REC-SVG-20010904/DTD/svg10.dtd">
<svg version="1.0" xmlns="http://www.w3.org/2000/svg"
 width="11.000000pt" height="29.000000pt" viewBox="0 0 11.000000 29.000000"
 preserveAspectRatio="xMidYMid meet">
<metadata>
Created by potrace 1.14, written by Peter Selinger 2001-2017
</metadata>
<g transform="translate(0.000000,29.000000) scale(0.100000,-0.100000)"
fill="#000000" stroke="none">
<path fill="#000000" stroke="none" d="M34 276 c-4 -9 -4 -25 -1 -36 4 -15 0
-20 -15 -20 -16 0 -19 -5 -14 -22 3 -13 12 -50 19 -83 11 -45 18 -60 31 -59
11 1 16 -6 16 -27 0 -19 5 -29 15 -29 12 0 15 15 16 73 2 98 -2 151 -11 157
-4 3 -10 16 -11 30 -5 28 -36 39 -45 16z"/>
</g>
</svg>
