<?xml version="1.0" standalone="no"?>
<!DOCTYPE svg PUBLIC "-//W3C//DTD SVG 20010904//EN"
 "http://www.w3.org/TR/2001/REC-SVG-20010904/DTD/svg10.dtd">
<svg version="1.0" xmlns="http://www.w3.org/2000/svg"
 width="35.000000pt" height="99.000000pt" viewBox="0 0 35.000000 99.000000"
 preserveAspectRatio="xMidYMid meet">
<metadata>
Created by potrace 1.14, written by Peter Selinger 2001-2017
</metadata>
<g transform="translate(0.000000,99.000000) scale(0.100000,-0.100000)"
fill="#000000" stroke="none">
<path fill="#000000" stroke="none" d="M229 975 c-21 -11 -28 -27 -42 -93 -17
-78 -19 -81 -71 -121 -61 -45 -81 -88 -91 -196 -5 -50 -2 -64 13 -84 19 -23
19 -25 -4 -90 -30 -85 -38 -174 -29 -297 8 -113 17 -107 35 21 7 50 19 102 27
118 7 15 70 82 138 148 l125 122 0 141 c0 78 5 159 10 181 14 59 -5 151 -34
159 -32 9 -48 7 -77 -9z"/>
</g>
</svg>
