<?xml version="1.0" standalone="no"?>
<!DOCTYPE svg PUBLIC "-//W3C//DTD SVG 20010904//EN"
 "http://www.w3.org/TR/2001/REC-SVG-20010904/DTD/svg10.dtd">
<svg version="1.0" xmlns="http://www.w3.org/2000/svg"
 width="11.000000pt" height="28.000000pt" viewBox="0 0 11.000000 28.000000"
 preserveAspectRatio="xMidYMid meet">
<metadata>
Created by potrace 1.14, written by Peter Selinger 2001-2017
</metadata>
<g transform="translate(0.000000,28.000000) scale(0.100000,-0.100000)"
fill="#000000" stroke="none">
<path fill="#000000" stroke="none" d="M3 194 c3 -76 7 -88 29 -109 13 -12 30
-37 38 -54 7 -17 19 -31 26 -31 18 0 18 12 -2 58 -8 20 -16 63 -17 95 -1 31
-5 57 -9 57 -5 0 -8 9 -8 19 0 35 -12 51 -36 51 -25 0 -25 -1 -21 -86z"/>
</g>
</svg>
