<?xml version="1.0" standalone="no"?>
<!DOCTYPE svg PUBLIC "-//W3C//DTD SVG 20010904//EN"
 "http://www.w3.org/TR/2001/REC-SVG-20010904/DTD/svg10.dtd">
<svg version="1.0" xmlns="http://www.w3.org/2000/svg"
 width="78.000000pt" height="189.000000pt" viewBox="0 0 78.000000 189.000000"
 preserveAspectRatio="xMidYMid meet">
<metadata>
Created by potrace 1.14, written by Peter Selinger 2001-2017
</metadata>
<g transform="translate(0.000000,189.000000) scale(0.100000,-0.100000)"
fill="#000000" stroke="none">
<path fill="#000000" stroke="none" d="M584 1868 c-26 -18 -40 -47 -88 -182
-31 -89 -81 -260 -112 -381 -30 -121 -59 -232 -65 -246 -6 -15 -28 -34 -56
-48 -66 -32 -154 -102 -209 -166 -41 -49 -47 -61 -46 -98 3 -54 8 -71 47 -131
58 -92 83 -164 89 -259 8 -109 30 -152 124 -237 47 -42 88 -68 142 -90 100
-40 146 -40 204 3 41 29 45 36 45 76 1 31 -13 74 -51 160 -50 112 -52 120 -56
221 -2 60 1 131 8 165 22 107 23 124 5 167 -36 90 16 241 141 415 l74 102 -21
52 c-11 29 -27 65 -34 79 -41 74 -73 182 -85 285 -7 61 -16 116 -19 122 -5 9
-15 7 -37 -9z"/>
</g>
</svg>
