<?xml version="1.0" standalone="no"?>
<!DOCTYPE svg PUBLIC "-//W3C//DTD SVG 20010904//EN"
 "http://www.w3.org/TR/2001/REC-SVG-20010904/DTD/svg10.dtd">
<svg version="1.0" xmlns="http://www.w3.org/2000/svg"
 width="240.000000pt" height="599.000000pt" viewBox="0 0 240.000000 599.000000"
 preserveAspectRatio="xMidYMid meet">
<metadata>
Created by potrace 1.14, written by Peter Selinger 2001-2017
</metadata>
<g transform="translate(0.000000,599.000000) scale(0.100000,-0.100000)"
fill="#000000" stroke="none">
<path fill="#000000" stroke="none" d="M1325 5974 c-22 -7 -73 -23 -113 -35
-67 -19 -76 -26 -111 -73 -36 -47 -40 -60 -55 -166 -9 -63 -16 -127 -16 -143
0 -15 -43 -133 -96 -262 l-96 -234 21 -29 c19 -27 29 -31 116 -43 52 -7 92
-16 88 -20 -18 -17 -165 -48 -253 -54 -173 -11 -175 -12 -196 -57 -10 -23 -40
-68 -66 -101 -27 -33 -58 -76 -69 -96 -11 -20 -37 -46 -58 -58 -27 -16 -41
-32 -49 -60 -14 -46 -39 -66 -158 -126 -77 -38 -98 -55 -148 -115 -53 -64 -58
-74 -59 -120 -2 -74 27 -130 72 -142 154 -41 281 -71 369 -86 l102 -19 0 -45
c0 -47 -19 -157 -94 -555 -25 -132 -54 -289 -64 -349 l-20 -108 36 -15 c20 -8
58 -20 84 -26 42 -10 48 -15 48 -38 0 -18 16 -41 55 -78 30 -29 55 -59 55 -66
0 -8 8 -22 19 -32 10 -10 22 -39 25 -66 13 -87 223 -653 326 -877 l98 -215 5
-290 c4 -271 5 -293 26 -339 l21 -49 -20 -54 c-28 -76 -25 -109 15 -173 31
-48 35 -62 35 -120 0 -36 -7 -119 -15 -185 -8 -66 -15 -151 -15 -189 l0 -68
159 3 160 4 35 34 35 34 6 -26 c11 -42 44 -39 176 17 l121 51 42 90 42 90 -13
75 c-13 74 -13 75 11 95 24 20 66 130 66 173 0 14 -24 51 -61 95 -33 40 -72
95 -86 122 -14 28 -32 62 -40 77 -7 14 -16 64 -20 110 -6 81 -7 85 -64 168
-32 47 -75 102 -97 123 l-38 37 18 143 c10 78 25 162 33 186 20 60 19 75 -9
120 -23 35 -24 44 -17 122 4 46 4 131 0 189 -7 90 -5 124 16 239 14 74 25 164
25 200 0 57 63 519 72 526 2 1 56 -5 120 -13 65 -8 120 -13 122 -11 2 2 0 24
-5 49 -5 25 -11 160 -14 300 -2 140 -7 325 -10 410 l-6 155 36 -53 c36 -53 36
-53 24 -106 -10 -44 -9 -61 4 -102 9 -27 37 -148 62 -269 l46 -220 -18 -39
c-21 -46 -19 -70 9 -108 19 -27 21 -28 122 -28 l102 0 32 33 32 33 -14 60
c-13 54 -25 224 -30 419 -3 92 -18 188 -33 207 -6 7 -18 47 -28 88 -13 56 -32
98 -76 167 -48 76 -60 104 -69 160 -7 47 -20 81 -40 111 -22 31 -28 50 -24 67
8 31 -12 112 -43 182 -15 35 -23 73 -23 107 0 31 -5 58 -12 63 -7 6 -51 23
-98 38 -47 15 -124 48 -172 72 -79 41 -88 48 -88 73 0 28 0 29 53 23 64 -6
123 9 160 42 28 25 29 26 17 78 -7 29 -41 131 -75 227 -58 161 -64 183 -68
275 -3 70 -13 129 -33 198 -27 95 -30 100 -77 134 -42 31 -63 39 -136 49 -47
7 -95 15 -106 18 -11 2 -38 -2 -60 -10z"/>
<path fill="#ffffff" stroke="none" d="M1377 4468 c6 -7 13 -97 16 -200 l5
-188 -52 -15 c-90 -27 -121 -29 -155 -9 -20 12 -31 26 -31 40 0 23 -24 54 -40
54 -5 0 -14 10 -21 21 -8 16 -8 27 1 45 11 19 10 31 -3 66 -8 24 -17 62 -20
84 -5 41 -4 42 42 62 42 18 174 48 227 51 12 0 26 -5 31 -11z"/>
</g>
</svg>
