<?xml version="1.0" standalone="no"?>
<!DOCTYPE svg PUBLIC "-//W3C//DTD SVG 20010904//EN"
 "http://www.w3.org/TR/2001/REC-SVG-20010904/DTD/svg10.dtd">
<svg version="1.0" xmlns="http://www.w3.org/2000/svg"
 width="20.000000pt" height="50.000000pt" viewBox="0 0 20.000000 50.000000"
 preserveAspectRatio="xMidYMid meet">
<metadata>
Created by potrace 1.14, written by Peter Selinger 2001-2017
</metadata>
<g transform="translate(0.000000,50.000000) scale(0.100000,-0.100000)"
fill="#000000" stroke="none">
<path fill="#000000" stroke="none" d="M81 481 c-12 -12 -21 -25 -21 -31 0 -5
-13 -10 -30 -10 -29 0 -30 -1 -30 -50 0 -49 4 -54 40 -52 3 0 5 -76 5 -169 0
-165 1 -170 20 -165 11 3 32 6 48 6 l27 0 0 123 c0 166 6 197 36 197 20 0 24
5 24 33 0 56 -9 74 -34 70 -18 -4 -24 1 -32 28 -12 40 -27 46 -53 20z"/>
</g>
</svg>
