<?xml version="1.0" standalone="no"?>
<!DOCTYPE svg PUBLIC "-//W3C//DTD SVG 20010904//EN"
 "http://www.w3.org/TR/2001/REC-SVG-20010904/DTD/svg10.dtd">
<svg version="1.0" xmlns="http://www.w3.org/2000/svg"
 width="124.000000pt" height="327.000000pt" viewBox="0 0 124.000000 327.000000"
 preserveAspectRatio="xMidYMid meet">
<metadata>
Created by potrace 1.14, written by Peter Selinger 2001-2017
</metadata>
<g transform="translate(0.000000,327.000000) scale(0.100000,-0.100000)"
fill="#000000" stroke="none">
<path fill="#000000" stroke="none" d="M550 3241 l-95 -28 -3 -99 c-3 -96 -1
-103 43 -222 34 -94 45 -137 45 -181 0 -56 1 -59 30 -71 26 -11 30 -17 26 -39
-3 -14 -10 -69 -16 -121 -10 -87 -122 -486 -164 -583 -12 -30 -28 -38 -212
-110 l-199 -78 10 -104 c6 -57 13 -106 16 -110 4 -3 41 0 83 8 l76 15 0 -149
0 -148 75 -3 76 -3 -120 -169 -120 -170 112 -119 c104 -112 319 -319 498 -483
71 -64 79 -76 119 -172 l43 -102 83 0 c46 0 84 1 84 3 0 1 -11 37 -24 79 l-24
78 49 41 c47 39 50 45 47 82 l-3 40 -97 41 -96 41 -35 70 c-19 38 -85 141
-147 228 l-111 157 -62 0 -62 1 140 134 c89 86 194 174 287 241 l148 105 95
184 96 184 -59 116 -58 117 43 226 c43 226 43 228 33 342 -18 195 2 167 -175
250 -145 69 -154 75 -150 99 2 14 7 86 10 160 l6 134 -58 59 -57 58 -66 -1
c-39 0 -102 -11 -160 -28z"/>
</g>
</svg>
