<?xml version="1.0" standalone="no"?>
<!DOCTYPE svg PUBLIC "-//W3C//DTD SVG 20010904//EN"
 "http://www.w3.org/TR/2001/REC-SVG-20010904/DTD/svg10.dtd">
<svg version="1.0" xmlns="http://www.w3.org/2000/svg"
 width="53.000000pt" height="145.000000pt" viewBox="0 0 53.000000 145.000000"
 preserveAspectRatio="xMidYMid meet">
<metadata>
Created by potrace 1.14, written by Peter Selinger 2001-2017
</metadata>
<g transform="translate(0.000000,145.000000) scale(0.100000,-0.100000)"
fill="#000000" stroke="none">
<path fill="#000000" stroke="none" d="M250 1443 c-20 -3 -47 -16 -63 -31 -25
-24 -28 -32 -23 -69 3 -24 8 -53 11 -66 5 -20 0 -25 -50 -42 -51 -17 -59 -24
-91 -77 -37 -64 -43 -108 -21 -169 12 -34 14 -36 32 -23 10 8 22 11 26 7 18
-19 54 -722 44 -862 -5 -79 -4 -93 8 -88 8 3 36 9 62 13 l48 7 -6 140 c-6 129
8 296 29 357 11 31 57 -88 115 -299 33 -119 61 -221 63 -226 2 -6 24 -9 48 -7
l44 4 -18 101 c-61 328 -90 475 -100 501 -13 32 -12 23 -22 246 -7 160 -7 167
17 237 l26 72 -52 43 c-29 23 -56 45 -61 49 -5 5 -5 14 2 21 14 17 -6 169 -22
166 -6 0 -27 -3 -46 -5z"/>
</g>
</svg>
