<?xml version="1.0" standalone="no"?>
<!DOCTYPE svg PUBLIC "-//W3C//DTD SVG 20010904//EN"
 "http://www.w3.org/TR/2001/REC-SVG-20010904/DTD/svg10.dtd">
<svg version="1.0" xmlns="http://www.w3.org/2000/svg"
 width="230.000000pt" height="537.000000pt" viewBox="0 0 230.000000 537.000000"
 preserveAspectRatio="xMidYMid meet">
<metadata>
Created by potrace 1.14, written by Peter Selinger 2001-2017
</metadata>
<g transform="translate(0.000000,537.000000) scale(0.100000,-0.100000)"
fill="#000000" stroke="none">
<path fill="#000000" stroke="none" d="M864 5302 l-150 -65 -31 -111 c-17 -61
-59 -213 -93 -338 l-62 -226 41 -109 c32 -83 49 -151 72 -293 l31 -185 -26
-81 c-14 -44 -26 -85 -26 -91 0 -6 42 -43 93 -81 75 -57 119 -81 235 -127
l143 -58 35 -68 c33 -67 34 -70 40 -237 l7 -168 -48 -100 c-26 -54 -58 -122
-70 -150 l-23 -51 69 -104 c39 -58 92 -157 121 -224 49 -116 53 -131 103 -428
l52 -307 -72 -292 c-58 -239 -75 -293 -91 -300 -10 -4 -208 -39 -439 -78 -231
-39 -429 -74 -441 -78 -20 -7 -18 -18 86 -467 l106 -460 50 -6 c27 -4 273 -10
547 -13 l497 -6 0 22 c0 14 120 197 290 443 160 231 290 427 290 435 0 8 22
169 48 357 l48 342 -132 753 c-73 414 -138 782 -144 818 l-11 65 -231 265
c-126 146 -282 325 -345 397 l-115 133 -7 79 -7 79 86 78 85 78 28 105 c19 73
31 149 37 244 l9 138 -64 201 c-35 110 -65 201 -67 203 -2 2 -91 31 -198 65
-107 35 -197 64 -200 65 -3 1 -73 -27 -156 -63z"/>
<path fill="#000000" stroke="none" d="M145 3489 c-129 -75 -145 -89 -145
-128 0 -21 16 -37 87 -86 47 -33 89 -59 92 -58 3 1 25 68 48 150 55 195 55
193 46 193 -5 -1 -62 -32 -128 -71z"/>
<path fill="#000000" stroke="none" d="M366 3055 l-98 -106 71 -112 c39 -61
94 -149 123 -194 l53 -83 35 138 c19 75 34 142 33 147 -1 6 -7 70 -13 143
l-13 133 -38 19 c-21 11 -42 20 -46 20 -5 0 -53 -47 -107 -105z"/>
</g>
</svg>
