<?xml version="1.0" standalone="no"?>
<!DOCTYPE svg PUBLIC "-//W3C//DTD SVG 20010904//EN"
 "http://www.w3.org/TR/2001/REC-SVG-20010904/DTD/svg10.dtd">
<svg version="1.0" xmlns="http://www.w3.org/2000/svg"
 width="197.000000pt" height="481.000000pt" viewBox="0 0 197.000000 481.000000"
 preserveAspectRatio="xMidYMid meet">
<metadata>
Created by potrace 1.14, written by Peter Selinger 2001-2017
</metadata>
<g transform="translate(0.000000,481.000000) scale(0.100000,-0.100000)"
fill="#000000" stroke="none">
<path fill="#000000" stroke="none" d="M430 4728 l-70 -83 -122 -15 c-121 -15
-122 -15 -141 -48 -11 -18 -30 -74 -43 -125 -20 -77 -24 -117 -24 -244 0 -134
-9 -295 -25 -460 l-5 -53 58 0 59 0 78 -129 79 -129 138 -43 139 -43 -28 -17
c-15 -9 -57 -35 -92 -57 l-64 -41 46 -22 47 -23 -58 -31 c-106 -58 -147 -87
-183 -132 l-36 -44 -12 -307 -12 -307 69 -259 c53 -200 71 -254 77 -235 5 18
11 -2 23 -80 15 -100 14 -108 -6 -205 -12 -56 -24 -153 -28 -216 -5 -97 -12
-135 -46 -240 -22 -69 -40 -134 -40 -145 0 -23 80 -218 146 -357 l46 -98 0
-270 0 -270 63 0 c106 0 902 23 906 26 2 2 -9 65 -24 141 l-28 138 87 194 c48
106 175 356 282 555 l196 361 -15 225 -15 225 58 276 59 275 -44 302 -43 301
-33 39 c-213 246 -247 278 -454 416 l-200 134 -27 64 c-19 44 -31 100 -40 186
l-14 123 43 262 c23 144 43 264 43 267 0 3 -48 44 -107 92 -137 109 -222 147
-420 182 -78 15 -148 26 -157 26 -8 0 -47 -37 -86 -82z"/>
<path fill="#ffffff" stroke="none" d="M1145 3655 c10 -30 26 -62 37 -71 10
-10 18 -23 18 -30 0 -13 -69 -66 -140 -107 -40 -23 -47 -24 -64 -11 -11 8 -28
14 -38 14 -12 0 -21 12 -28 39 -6 22 -16 41 -23 44 -15 6 -18 3 91 76 51 34
98 71 105 81 6 11 14 20 17 20 3 0 14 -25 25 -55z"/>
</g>
</svg>
