<?xml version="1.0" standalone="no"?>
<!DOCTYPE svg PUBLIC "-//W3C//DTD SVG 20010904//EN"
 "http://www.w3.org/TR/2001/REC-SVG-20010904/DTD/svg10.dtd">
<svg version="1.0" xmlns="http://www.w3.org/2000/svg"
 width="114.000000pt" height="264.000000pt" viewBox="0 0 114.000000 264.000000"
 preserveAspectRatio="xMidYMid meet">
<metadata>
Created by potrace 1.14, written by Peter Selinger 2001-2017
</metadata>
<g transform="translate(0.000000,264.000000) scale(0.100000,-0.100000)"
fill="#000000" stroke="none">
<path fill="#000000" stroke="none" d="M37 2571 l-37 -69 31 -148 31 -149 71
-87 c65 -82 73 -88 107 -88 32 0 43 7 92 63 l55 62 59 -5 59 -5 -4 -75 c-2
-52 -12 -98 -32 -150 -16 -41 -29 -78 -29 -81 0 -4 18 -10 40 -14 35 -6 43
-13 70 -60 l30 -52 1 -254 c0 -140 6 -328 13 -419 12 -149 11 -166 -3 -178
-14 -12 -11 -13 19 -8 34 6 252 26 277 26 9 0 6 -19 -10 -62 -22 -60 -23 -71
-17 -243 l6 -180 -28 -46 c-15 -25 -28 -56 -28 -69 0 -15 -16 -41 -41 -66
l-40 -41 96 -72 c116 -87 158 -107 192 -92 19 9 23 16 17 34 -13 45 -23 54
-25 22 0 -18 -12 14 -29 79 l-28 108 92 172 93 171 -14 275 c-7 151 -11 307
-8 345 l5 70 -132 99 -133 99 -3 155 -3 155 -78 164 -78 165 -148 66 -148 67
2 128 c2 128 2 129 -29 176 l-30 48 -124 16 c-68 10 -128 17 -133 17 -5 0 -26
-31 -46 -69z"/>
<path fill="#000000" stroke="none" d="M0 1925 l0 -90 25 40 c30 50 30 51 0
100 l-24 40 -1 -90z"/>
<path fill="#000000" stroke="none" d="M0 370 c0 -250 2 -300 14 -300 23 0 27
27 26 199 0 100 5 204 14 260 16 102 17 101 -36 132 -17 9 -18 -7 -18 -291z"/>
</g>
</svg>
