<?xml version="1.0" standalone="no"?>
<!DOCTYPE svg PUBLIC "-//W3C//DTD SVG 20010904//EN"
 "http://www.w3.org/TR/2001/REC-SVG-20010904/DTD/svg10.dtd">
<svg version="1.0" xmlns="http://www.w3.org/2000/svg"
 width="10.000000pt" height="28.000000pt" viewBox="0 0 10.000000 28.000000"
 preserveAspectRatio="xMidYMid meet">
<metadata>
Created by potrace 1.14, written by Peter Selinger 2001-2017
</metadata>
<g transform="translate(0.000000,28.000000) scale(0.100000,-0.100000)"
fill="#000000" stroke="none">
<path fill="#000000" stroke="none" d="M33 222 c-36 -96 -37 -115 -8 -150 14
-16 25 -39 25 -51 0 -16 6 -21 25 -21 27 0 26 17 -7 59 -22 29 -23 50 -2 79 9
13 13 31 9 43 -4 11 -9 36 -11 56 -3 21 -6 38 -7 39 -1 1 -12 -23 -24 -54z"/>
</g>
</svg>
