<?xml version="1.0" standalone="no"?>
<!DOCTYPE svg PUBLIC "-//W3C//DTD SVG 20010904//EN"
 "http://www.w3.org/TR/2001/REC-SVG-20010904/DTD/svg10.dtd">
<svg version="1.0" xmlns="http://www.w3.org/2000/svg"
 width="28.000000pt" height="64.000000pt" viewBox="0 0 28.000000 64.000000"
 preserveAspectRatio="xMidYMid meet">
<metadata>
Created by potrace 1.14, written by Peter Selinger 2001-2017
</metadata>
<g transform="translate(0.000000,64.000000) scale(0.100000,-0.100000)"
fill="#000000" stroke="none">
<path fill="#000000" stroke="none" d="M90 621 c-5 -11 -10 -35 -10 -54 0 -19
-13 -58 -29 -88 -33 -63 -56 -128 -47 -136 10 -10 36 18 36 39 0 10 11 35 25
55 l24 36 11 -29 c21 -52 23 -94 10 -165 -13 -67 -13 -69 13 -108 34 -51 34
-57 -3 -70 -34 -11 -43 -42 -10 -34 11 3 31 2 45 -1 32 -8 34 -43 3 -56 -20
-8 -19 -9 13 -9 35 -1 36 0 47 48 6 27 9 72 5 99 -4 41 0 63 26 129 l32 80
-16 64 c-21 78 -37 112 -70 137 -14 11 -25 29 -25 41 0 38 -62 55 -80 22z"/>
</g>
</svg>
