<?xml version="1.0" standalone="no"?>
<!DOCTYPE svg PUBLIC "-//W3C//DTD SVG 20010904//EN"
 "http://www.w3.org/TR/2001/REC-SVG-20010904/DTD/svg10.dtd">
<svg version="1.0" xmlns="http://www.w3.org/2000/svg"
 width="17.000000pt" height="43.000000pt" viewBox="0 0 17.000000 43.000000"
 preserveAspectRatio="xMidYMid meet">
<metadata>
Created by potrace 1.14, written by Peter Selinger 2001-2017
</metadata>
<g transform="translate(0.000000,43.000000) scale(0.100000,-0.100000)"
fill="#000000" stroke="none">
<path fill="#000000" stroke="none" d="M44 409 c-14 -16 -15 -23 -6 -26 18 -7
15 -20 -8 -26 -21 -5 -25 -27 -10 -62 5 -13 3 -26 -7 -37 -13 -14 -12 -19 7
-38 20 -20 22 -30 18 -121 l-3 -99 25 0 c36 0 56 15 43 32 -16 21 -24 84 -14
109 5 13 12 36 15 52 8 36 26 35 26 -3 0 -36 16 -39 31 -6 14 31 -23 149 -53
170 -11 8 -18 20 -15 28 5 15 -10 48 -22 48 -4 0 -16 -10 -27 -21z"/>
</g>
</svg>
