<?xml version="1.0" standalone="no"?>
<!DOCTYPE svg PUBLIC "-//W3C//DTD SVG 20010904//EN"
 "http://www.w3.org/TR/2001/REC-SVG-20010904/DTD/svg10.dtd">
<svg version="1.0" xmlns="http://www.w3.org/2000/svg"
 width="61.000000pt" height="136.000000pt" viewBox="0 0 61.000000 136.000000"
 preserveAspectRatio="xMidYMid meet">
<metadata>
Created by potrace 1.14, written by Peter Selinger 2001-2017
</metadata>
<g transform="translate(0.000000,136.000000) scale(0.100000,-0.100000)"
fill="#000000" stroke="none">
<path fill="#000000" stroke="none" d="M331 1266 c-17 -52 -31 -104 -31 -114
0 -17 -10 -20 -85 -27 l-85 -7 6 -26 c8 -30 26 -68 48 -96 11 -14 25 -17 55
-14 l41 4 0 -47 c0 -26 -3 -61 -6 -78 -6 -27 -11 -31 -37 -31 -17 0 -49 -11
-73 -25 -42 -25 -42 -25 -68 -135 -14 -60 -40 -137 -58 -170 -20 -39 -33 -80
-36 -115 -4 -54 -4 -55 22 -55 15 0 45 9 66 20 34 17 47 35 89 118 44 88 55
102 106 136 69 45 71 44 114 -66 41 -102 71 -281 71 -424 0 -63 4 -114 8 -114
5 0 35 11 68 24 l59 25 -3 55 c-1 34 -12 78 -28 113 -21 46 -28 81 -34 173 -5
69 -17 145 -30 190 -23 79 -38 256 -39 461 -1 98 -3 107 -25 128 -14 13 -30
45 -37 75 -13 53 -36 116 -43 116 -3 0 -18 -42 -35 -94z"/>
</g>
</svg>
