<?xml version="1.0" standalone="no"?>
<!DOCTYPE svg PUBLIC "-//W3C//DTD SVG 20010904//EN"
 "http://www.w3.org/TR/2001/REC-SVG-20010904/DTD/svg10.dtd">
<svg version="1.0" xmlns="http://www.w3.org/2000/svg"
 width="33.000000pt" height="81.000000pt" viewBox="0 0 33.000000 81.000000"
 preserveAspectRatio="xMidYMid meet">
<metadata>
Created by potrace 1.14, written by Peter Selinger 2001-2017
</metadata>
<g transform="translate(0.000000,81.000000) scale(0.100000,-0.100000)"
fill="#000000" stroke="none">
<path fill="#000000" stroke="none" d="M28 798 c-27 -9 -28 -13 -28 -75 0 -47
6 -78 21 -109 21 -41 22 -49 12 -186 -9 -138 -9 -145 13 -193 l22 -50 1 35 c1
19 8 60 16 90 8 30 15 69 15 86 0 16 6 38 13 48 12 16 17 13 53 -36 l41 -53
-5 -177 -5 -177 26 12 c36 17 46 65 30 147 -7 36 -12 92 -12 125 0 62 28 192
45 203 5 4 17 16 26 27 16 19 14 25 -35 125 -51 102 -55 106 -112 137 -63 34
-91 38 -137 21z"/>
</g>
</svg>
