<?xml version="1.0" standalone="no"?>
<!DOCTYPE svg PUBLIC "-//W3C//DTD SVG 20010904//EN"
 "http://www.w3.org/TR/2001/REC-SVG-20010904/DTD/svg10.dtd">
<svg version="1.0" xmlns="http://www.w3.org/2000/svg"
 width="132.000000pt" height="320.000000pt" viewBox="0 0 132.000000 320.000000"
 preserveAspectRatio="xMidYMid meet">
<metadata>
Created by potrace 1.14, written by Peter Selinger 2001-2017
</metadata>
<g transform="translate(0.000000,320.000000) scale(0.100000,-0.100000)"
fill="#000000" stroke="none">
<path fill="#000000" stroke="none" d="M851 3147 l-94 -52 -55 -115 c-30 -63
-72 -152 -93 -198 l-38 -83 54 -36 c30 -19 52 -39 50 -43 -14 -22 -78 -18
-206 13 l-136 33 -30 -35 c-16 -20 -65 -99 -108 -176 l-79 -140 -17 -445 -18
-445 -29 -80 c-27 -70 -32 -101 -41 -255 -17 -273 -16 -319 14 -373 23 -41 27
-64 40 -249 8 -112 15 -209 15 -215 0 -7 -12 -13 -26 -13 l-27 0 8 -117 c3
-65 8 -119 9 -121 2 -1 148 1 324 4 l321 7 16 48 c28 83 34 186 15 238 -10 24
-25 50 -34 56 -8 7 -12 15 -8 19 4 4 7 12 7 18 0 6 26 33 57 62 l57 51 26 215
c14 118 39 287 54 375 16 88 35 203 41 255 7 52 32 176 55 275 24 99 58 253
76 341 l32 162 -32 156 -33 156 53 87 c29 49 97 152 151 231 l98 142 -46 110
-46 110 -128 40 c-70 22 -134 40 -141 40 -8 -1 -56 -24 -108 -53z"/>
</g>
</svg>
