<?xml version="1.0" standalone="no"?>
<!DOCTYPE svg PUBLIC "-//W3C//DTD SVG 20010904//EN"
 "http://www.w3.org/TR/2001/REC-SVG-20010904/DTD/svg10.dtd">
<svg version="1.0" xmlns="http://www.w3.org/2000/svg"
 width="54.000000pt" height="149.000000pt" viewBox="0 0 54.000000 149.000000"
 preserveAspectRatio="xMidYMid meet">
<metadata>
Created by potrace 1.14, written by Peter Selinger 2001-2017
</metadata>
<g transform="translate(0.000000,149.000000) scale(0.100000,-0.100000)"
fill="#000000" stroke="none">
<path fill="#000000" stroke="none" d="M141 1438 c-27 -47 -31 -62 -31 -133
l0 -81 -40 -39 c-58 -56 -75 -118 -62 -216 10 -74 11 -77 66 -129 50 -47 56
-58 55 -89 -2 -20 3 -47 10 -59 10 -18 11 -79 6 -260 -3 -131 -8 -252 -11
-270 -4 -28 -2 -34 15 -39 11 -3 25 -19 31 -38 11 -33 46 -73 56 -63 5 6 33
142 70 341 12 67 23 101 34 107 15 8 18 -15 30 -231 l13 -240 41 6 c23 4 44
10 47 14 19 18 28 174 17 292 -8 100 -7 151 5 266 14 128 14 150 0 227 l-15
84 25 34 c36 47 40 118 12 184 -12 28 -58 95 -103 150 -44 54 -98 128 -119
164 -37 61 -42 65 -81 68 -40 3 -42 2 -71 -50z"/>
</g>
</svg>
