<?xml version="1.0" standalone="no"?>
<!DOCTYPE svg PUBLIC "-//W3C//DTD SVG 20010904//EN"
 "http://www.w3.org/TR/2001/REC-SVG-20010904/DTD/svg10.dtd">
<svg version="1.0" xmlns="http://www.w3.org/2000/svg"
 width="178.000000pt" height="422.000000pt" viewBox="0 0 178.000000 422.000000"
 preserveAspectRatio="xMidYMid meet">
<metadata>
Created by potrace 1.14, written by Peter Selinger 2001-2017
</metadata>
<g transform="translate(0.000000,422.000000) scale(0.100000,-0.100000)"
fill="#000000" stroke="none">
<path fill="#000000" stroke="none" d="M963 4170 l-118 -47 -61 -142 -61 -142
22 -126 c22 -123 22 -126 4 -144 -11 -11 -19 -25 -19 -32 0 -8 -9 -40 -20 -72
-11 -32 -20 -61 -20 -65 0 -4 25 -13 55 -20 31 -7 58 -17 61 -21 2 -4 -21 -95
-51 -201 -52 -180 -59 -214 -96 -512 -22 -176 -40 -320 -42 -321 -1 -1 -17 -7
-34 -13 l-33 -11 0 57 c0 31 5 158 10 282 7 179 13 239 29 290 13 40 25 123
32 215 11 143 11 155 -10 248 l-23 97 -58 -32 c-32 -17 -81 -52 -109 -77 l-49
-46 -92 -275 -91 -275 -25 -332 -24 -332 -54 -119 c-44 -96 -57 -139 -71 -227
l-17 -108 50 -49 49 -50 96 59 96 58 6 55 c18 159 15 153 63 163 24 5 46 6 49
3 3 -3 18 -72 34 -153 27 -140 29 -162 29 -418 l0 -270 78 -397 78 -396 90
-102 c49 -56 103 -117 119 -136 l30 -35 73 17 c39 9 72 19 72 23 0 4 -48 165
-50 166 0 0 32 -2 71 -5 l71 -5 69 80 69 80 -88 3 -88 3 -34 57 c-28 46 -37
75 -46 147 l-12 90 43 45 c55 58 76 117 126 354 49 234 162 631 225 787 l47
117 83 -70 83 -71 6 -62 c10 -90 12 -92 83 -56 l60 30 27 115 26 114 -42 133
-42 134 11 277 10 278 -33 306 c-23 217 -37 309 -46 315 -8 5 -62 34 -120 66
-94 51 -107 61 -122 97 -9 23 -17 46 -17 53 0 6 27 28 60 49 33 22 60 46 60
54 -1 45 -23 167 -47 256 l-27 101 -75 48 c-59 38 -94 52 -172 70 l-97 22
-119 -47z"/>
<path fill="#ffffff" stroke="none" d="M1499 3464 c36 -14 41 -20 50 -65 15
-68 14 -75 -10 -150 -27 -80 -33 -87 -47 -52 -24 59 -63 238 -57 260 6 27 12
28 64 7z"/>
</g>
</svg>
