<?xml version="1.0" standalone="no"?>
<!DOCTYPE svg PUBLIC "-//W3C//DTD SVG 20010904//EN"
 "http://www.w3.org/TR/2001/REC-SVG-20010904/DTD/svg10.dtd">
<svg version="1.0" xmlns="http://www.w3.org/2000/svg"
 width="13.000000pt" height="37.000000pt" viewBox="0 0 13.000000 37.000000"
 preserveAspectRatio="xMidYMid meet">
<metadata>
Created by potrace 1.14, written by Peter Selinger 2001-2017
</metadata>
<g transform="translate(0.000000,37.000000) scale(0.100000,-0.100000)"
fill="#000000" stroke="none">
<path fill="#000000" stroke="none" d="M25 255 c-4 -63 -11 -118 -16 -121 -5
-3 0 -17 11 -31 22 -28 26 -58 10 -68 -16 -10 -12 -23 8 -27 9 -2 24 5 33 16
13 16 20 18 31 8 25 -20 29 -1 6 31 -19 27 -22 45 -24 141 -1 114 -13 166 -38
166 -11 0 -16 -25 -21 -115z"/>
</g>
</svg>
