<?xml version="1.0" standalone="no"?>
<!DOCTYPE svg PUBLIC "-//W3C//DTD SVG 20010904//EN"
 "http://www.w3.org/TR/2001/REC-SVG-20010904/DTD/svg10.dtd">
<svg version="1.0" xmlns="http://www.w3.org/2000/svg"
 width="40.000000pt" height="90.000000pt" viewBox="0 0 40.000000 90.000000"
 preserveAspectRatio="xMidYMid meet">
<metadata>
Created by potrace 1.14, written by Peter Selinger 2001-2017
</metadata>
<g transform="translate(0.000000,90.000000) scale(0.100000,-0.100000)"
fill="#000000" stroke="none">
<path fill="#000000" stroke="none" d="M145 877 c-8 -12 -15 -39 -15 -60 0
-23 -4 -36 -10 -32 -6 3 -13 -1 -17 -11 -3 -9 -23 -32 -43 -51 -64 -57 -78
-163 -33 -240 l26 -45 15 28 c9 16 17 24 19 17 2 -7 0 -21 -6 -32 -16 -29 -14
-53 10 -105 16 -38 18 -53 10 -79 -5 -18 -11 -70 -14 -116 -4 -84 -4 -85 29
-120 29 -31 34 -33 34 -16 0 11 7 28 14 38 12 15 15 15 26 2 19 -23 33 -18 28
10 -3 13 -1 26 4 27 4 2 10 62 12 133 3 82 10 145 19 172 9 23 13 51 10 62 -5
21 24 171 34 171 3 0 18 -9 34 -21 41 -29 69 -18 69 27 0 19 -5 34 -11 34 -5
0 -28 20 -50 44 -23 25 -59 52 -81 61 -39 15 -40 17 -34 51 10 51 1 71 -34 72
-20 0 -35 -7 -45 -21z"/>
</g>
</svg>
