<?xml version="1.0" standalone="no"?>
<!DOCTYPE svg PUBLIC "-//W3C//DTD SVG 20010904//EN"
 "http://www.w3.org/TR/2001/REC-SVG-20010904/DTD/svg10.dtd">
<svg version="1.0" xmlns="http://www.w3.org/2000/svg"
 width="96.000000pt" height="220.000000pt" viewBox="0 0 96.000000 220.000000"
 preserveAspectRatio="xMidYMid meet">
<metadata>
Created by potrace 1.14, written by Peter Selinger 2001-2017
</metadata>
<g transform="translate(0.000000,220.000000) scale(0.100000,-0.100000)"
fill="#000000" stroke="none">
<path fill="#000000" stroke="none" d="M535 2193 c-30 -8 -45 -22 -86 -86 -26
-40 -40 -74 -44 -111 -7 -50 -4 -69 31 -187 3 -12 -3 -18 -26 -21 -28 -4 -30
-2 -36 31 -8 53 -35 144 -39 139 -3 -2 0 -20 5 -39 16 -54 14 -58 -30 -52
l-40 6 0 -46 c0 -36 -16 -79 -78 -209 -69 -145 -86 -197 -64 -198 4 -1 26 -4
49 -9 l41 -8 43 101 c23 56 45 105 49 109 4 5 13 -21 20 -58 l12 -66 -47 -72
c-67 -100 -69 -133 -19 -281 l38 -113 -38 -134 c-21 -74 -60 -183 -87 -244
-26 -60 -80 -204 -118 -318 -60 -177 -69 -211 -59 -232 10 -22 18 -25 63 -25
l53 0 20 58 c12 31 26 77 32 102 6 25 42 101 80 170 38 69 94 188 126 265 47
114 106 225 120 225 2 0 46 -62 98 -139 88 -128 99 -149 136 -266 l40 -127 -6
-121 -6 -122 60 -59 60 -59 36 22 c41 26 41 28 21 95 -9 29 -15 89 -15 149 0
81 -6 118 -31 206 -17 58 -53 200 -80 315 -41 172 -51 238 -61 376 -11 153
-10 178 7 281 13 72 20 165 20 254 2 193 4 200 73 231 l56 24 -40 41 c-31 32
-41 51 -49 96 l-10 56 -75 28 c-72 27 -151 35 -205 22z"/>
<path fill="#ffffff" stroke="none" d="M391 1721 c20 -16 21 -21 10 -35 -7 -9
-26 -16 -42 -16 -22 0 -30 6 -35 24 -12 47 24 62 67 27z"/>
</g>
</svg>
