<?xml version="1.0" standalone="no"?>
<!DOCTYPE svg PUBLIC "-//W3C//DTD SVG 20010904//EN"
 "http://www.w3.org/TR/2001/REC-SVG-20010904/DTD/svg10.dtd">
<svg version="1.0" xmlns="http://www.w3.org/2000/svg"
 width="17.000000pt" height="43.000000pt" viewBox="0 0 17.000000 43.000000"
 preserveAspectRatio="xMidYMid meet">
<metadata>
Created by potrace 1.14, written by Peter Selinger 2001-2017
</metadata>
<g transform="translate(0.000000,43.000000) scale(0.100000,-0.100000)"
fill="#000000" stroke="none">
<path fill="#000000" stroke="none" d="M44 405 c-3 -14 -4 -32 0 -40 3 -9 0
-15 -9 -15 -10 0 -15 -9 -14 -27 1 -16 -3 -41 -10 -56 -17 -43 -14 -47 29 -47
55 0 80 -26 80 -86 0 -25 5 -65 11 -90 10 -40 13 -43 25 -27 8 10 13 44 14 78
0 48 -5 68 -25 97 -21 31 -23 40 -14 68 10 27 8 35 -15 68 -17 26 -23 44 -19
61 4 14 1 26 -8 32 -24 15 -38 10 -45 -16z"/>
</g>
</svg>
