<?xml version="1.0" standalone="no"?>
<!DOCTYPE svg PUBLIC "-//W3C//DTD SVG 20010904//EN"
 "http://www.w3.org/TR/2001/REC-SVG-20010904/DTD/svg10.dtd">
<svg version="1.0" xmlns="http://www.w3.org/2000/svg"
 width="192.000000pt" height="531.000000pt" viewBox="0 0 192.000000 531.000000"
 preserveAspectRatio="xMidYMid meet">
<metadata>
Created by potrace 1.14, written by Peter Selinger 2001-2017
</metadata>
<g transform="translate(0.000000,531.000000) scale(0.100000,-0.100000)"
fill="#000000" stroke="none">
<path fill="#000000" stroke="none" d="M545 5245 c-113 -54 -145 -76 -240
-160 -136 -121 -134 -119 -226 -140 l-76 -18 21 -85 21 -86 92 -43 c52 -25 94
-51 97 -61 16 -57 67 -324 64 -334 -2 -6 -53 -30 -114 -52 l-109 -42 -14 -179
c-14 -172 -14 -187 7 -331 20 -149 22 -154 130 -425 l109 -274 32 -230 c17
-126 68 -421 112 -654 l80 -423 116 -311 c114 -306 116 -314 172 -588 l57
-279 -42 -217 c-24 -120 -39 -221 -36 -224 4 -4 97 -23 207 -43 110 -21 209
-39 221 -42 17 -5 25 5 49 58 24 51 34 101 56 268 23 166 25 208 15 220 -7 8
-27 47 -44 86 l-32 71 0 174 c0 96 -6 226 -14 289 -31 251 -31 312 2 450 17
69 49 176 71 238 38 106 41 121 41 222 l0 108 38 6 c64 12 70 16 76 49 6 30
15 37 94 76 l87 42 90 -34 c50 -19 91 -34 93 -32 2 1 12 58 23 126 12 80 25
251 35 483 16 341 15 362 -1 417 -17 56 -35 73 -51 48 -10 -17 -61 149 -98
324 l-34 157 -158 166 c-88 92 -195 211 -239 265 -44 54 -87 98 -96 99 -28 0
-87 83 -99 136 -69 314 -153 486 -327 676 -58 62 -110 114 -116 115 -7 1 -70
-27 -142 -62z"/>
</g>
</svg>
