<?xml version="1.0" standalone="no"?>
<!DOCTYPE svg PUBLIC "-//W3C//DTD SVG 20010904//EN"
 "http://www.w3.org/TR/2001/REC-SVG-20010904/DTD/svg10.dtd">
<svg version="1.0" xmlns="http://www.w3.org/2000/svg"
 width="103.000000pt" height="258.000000pt" viewBox="0 0 103.000000 258.000000"
 preserveAspectRatio="xMidYMid meet">
<metadata>
Created by potrace 1.14, written by Peter Selinger 2001-2017
</metadata>
<g transform="translate(0.000000,258.000000) scale(0.100000,-0.100000)"
fill="#000000" stroke="none">
<path fill="#000000" stroke="none" d="M489 2553 c-19 -15 -60 -56 -91 -91
l-58 -64 0 -94 0 -93 -91 -3 -91 -3 -28 -75 c-16 -41 -50 -126 -77 -189 l-49
-114 21 -91 c21 -85 24 -92 56 -107 19 -10 56 -20 84 -24 37 -5 62 -16 100
-48 l51 -42 -93 -79 -93 -78 0 -84 c0 -70 5 -96 31 -161 47 -116 69 -209 69
-293 0 -42 11 -125 25 -190 17 -74 33 -205 47 -370 11 -140 22 -257 24 -259 1
-2 64 0 139 4 l137 8 -6 31 c-4 17 -9 94 -12 171 l-4 140 44 -119 c41 -110 49
-124 98 -167 l53 -46 123 32 c68 18 125 34 126 36 2 2 -32 29 -75 59 l-78 55
-1 132 c0 104 7 178 35 350 46 283 43 273 68 282 18 7 25 23 38 96 14 74 14
88 2 92 -11 4 -13 19 -8 67 7 73 -34 366 -58 413 -16 30 -15 81 7 341 4 50 4
52 -20 52 -18 0 -52 24 -110 77 l-84 77 6 61 c5 49 1 79 -21 155 l-26 95 -79
43 c-43 23 -83 42 -88 42 -5 0 -24 -12 -43 -27z"/>
</g>
</svg>
