<?xml version="1.0" standalone="no"?>
<!DOCTYPE svg PUBLIC "-//W3C//DTD SVG 20010904//EN"
 "http://www.w3.org/TR/2001/REC-SVG-20010904/DTD/svg10.dtd">
<svg version="1.0" xmlns="http://www.w3.org/2000/svg"
 width="26.000000pt" height="73.000000pt" viewBox="0 0 26.000000 73.000000"
 preserveAspectRatio="xMidYMid meet">
<metadata>
Created by potrace 1.14, written by Peter Selinger 2001-2017
</metadata>
<g transform="translate(0.000000,73.000000) scale(0.100000,-0.100000)"
fill="#000000" stroke="none">
<path fill="#000000" stroke="none" d="M134 722 c-28 -18 -67 -138 -79 -243
-5 -47 -10 -58 -31 -68 -23 -10 -23 -13 -10 -33 22 -36 28 -74 35 -212 l6
-129 68 -20 c37 -11 70 -17 74 -13 4 4 2 37 -4 73 -11 61 -9 80 17 208 49 241
51 263 35 302 -8 20 -15 53 -15 74 0 28 -6 42 -22 53 -24 17 -56 20 -74 8z"/>
</g>
</svg>
