<?xml version="1.0" standalone="no"?>
<!DOCTYPE svg PUBLIC "-//W3C//DTD SVG 20010904//EN"
 "http://www.w3.org/TR/2001/REC-SVG-20010904/DTD/svg10.dtd">
<svg version="1.0" xmlns="http://www.w3.org/2000/svg"
 width="76.000000pt" height="184.000000pt" viewBox="0 0 76.000000 184.000000"
 preserveAspectRatio="xMidYMid meet">
<metadata>
Created by potrace 1.14, written by Peter Selinger 2001-2017
</metadata>
<g transform="translate(0.000000,184.000000) scale(0.100000,-0.100000)"
fill="#000000" stroke="none">
<path fill="#000000" stroke="none" d="M265 1833 c-38 -9 -44 -28 -29 -96 7
-34 13 -86 14 -115 0 -51 -1 -52 -51 -89 l-51 -36 7 -46 c5 -25 9 -116 11
-201 3 -177 -7 -227 -78 -387 -28 -65 -46 -93 -58 -93 -27 0 -32 -167 -15
-467 19 -320 9 -303 176 -303 60 0 109 3 109 6 0 3 -9 62 -21 130 l-21 124 97
162 97 163 23 225 c17 157 30 245 46 293 13 37 26 67 30 67 4 0 20 -20 35 -44
l28 -44 24 31 c25 34 122 221 122 236 0 5 -21 22 -47 37 -27 15 -92 61 -145
102 l-98 75 0 56 c0 59 -18 101 -69 154 -25 28 -92 68 -108 66 -4 -1 -17 -3
-28 -6z"/>
</g>
</svg>
