<?xml version="1.0" standalone="no"?>
<!DOCTYPE svg PUBLIC "-//W3C//DTD SVG 20010904//EN"
 "http://www.w3.org/TR/2001/REC-SVG-20010904/DTD/svg10.dtd">
<svg version="1.0" xmlns="http://www.w3.org/2000/svg"
 width="43.000000pt" height="115.000000pt" viewBox="0 0 43.000000 115.000000"
 preserveAspectRatio="xMidYMid meet">
<metadata>
Created by potrace 1.14, written by Peter Selinger 2001-2017
</metadata>
<g transform="translate(0.000000,115.000000) scale(0.100000,-0.100000)"
fill="#000000" stroke="none">
<path fill="#000000" stroke="none" d="M337 1124 c-14 -14 -28 -43 -32 -65 -8
-49 -25 -60 -182 -126 -76 -32 -113 -53 -113 -63 0 -34 31 -134 50 -160 27
-38 28 -181 1 -288 -10 -43 -29 -144 -42 -225 l-22 -148 27 -27 27 -27 37 21
c30 18 37 28 38 55 1 19 27 90 57 159 31 69 57 134 58 145 2 20 9 -51 24 -248
5 -53 11 -97 15 -97 25 0 82 34 100 60 l22 30 -31 6 c-17 4 -31 7 -31 8 0 2
11 35 25 75 22 67 23 78 14 157 -9 75 -9 88 7 112 33 50 41 118 32 272 -4 80
-9 199 -11 265 -2 143 -16 163 -70 109z"/>
</g>
</svg>
