<?xml version="1.0" standalone="no"?>
<!DOCTYPE svg PUBLIC "-//W3C//DTD SVG 20010904//EN"
 "http://www.w3.org/TR/2001/REC-SVG-20010904/DTD/svg10.dtd">
<svg version="1.0" xmlns="http://www.w3.org/2000/svg"
 width="13.000000pt" height="36.000000pt" viewBox="0 0 13.000000 36.000000"
 preserveAspectRatio="xMidYMid meet">
<metadata>
Created by potrace 1.14, written by Peter Selinger 2001-2017
</metadata>
<g transform="translate(0.000000,36.000000) scale(0.100000,-0.100000)"
fill="#000000" stroke="none">
<path fill="#000000" stroke="none" d="M10 341 c-14 -27 -13 -77 3 -93 37 -37
40 -63 21 -211 l-4 -38 31 18 c30 18 66 70 55 81 -3 3 -1 11 5 18 6 8 8 22 4
31 -4 10 -9 42 -10 71 -2 42 -8 57 -25 69 -11 8 -20 22 -18 31 6 41 -42 59
-62 23z"/>
</g>
</svg>
