<?xml version="1.0" standalone="no"?>
<!DOCTYPE svg PUBLIC "-//W3C//DTD SVG 20010904//EN"
 "http://www.w3.org/TR/2001/REC-SVG-20010904/DTD/svg10.dtd">
<svg version="1.0" xmlns="http://www.w3.org/2000/svg"
 width="50.000000pt" height="127.000000pt" viewBox="0 0 50.000000 127.000000"
 preserveAspectRatio="xMidYMid meet">
<metadata>
Created by potrace 1.14, written by Peter Selinger 2001-2017
</metadata>
<g transform="translate(0.000000,127.000000) scale(0.100000,-0.100000)"
fill="#000000" stroke="none">
<path fill="#000000" stroke="none" d="M189 1174 l-71 -96 12 -49 c12 -49 12
-49 -37 -131 -41 -71 -50 -97 -65 -183 -9 -55 -15 -101 -13 -103 2 -2 13 15
26 37 25 45 65 66 91 47 9 -6 19 -35 23 -65 8 -60 -10 -115 -53 -162 -24 -27
-24 -27 -7 -85 l16 -59 -34 -87 -35 -87 42 -8 c34 -7 41 -13 44 -35 2 -15 -4
-41 -13 -58 -9 -18 -15 -33 -13 -35 2 -1 20 -5 40 -9 32 -6 37 -4 43 16 4 13
13 33 21 46 l14 22 59 -30 c58 -29 59 -29 76 -9 18 18 17 20 -6 46 -13 15 -38
41 -55 58 -18 16 -41 46 -53 67 l-21 36 42 36 c41 35 90 48 103 26 14 -22 28
-5 71 87 53 112 71 201 47 220 -13 10 -14 17 -3 43 9 21 11 55 6 113 l-7 82
-76 71 -77 72 17 39 c24 52 10 158 -25 186 -55 43 -52 44 -129 -59z"/>
</g>
</svg>
