<?xml version="1.0" standalone="no"?>
<!DOCTYPE svg PUBLIC "-//W3C//DTD SVG 20010904//EN"
 "http://www.w3.org/TR/2001/REC-SVG-20010904/DTD/svg10.dtd">
<svg version="1.0" xmlns="http://www.w3.org/2000/svg"
 width="64.000000pt" height="144.000000pt" viewBox="0 0 64.000000 144.000000"
 preserveAspectRatio="xMidYMid meet">
<metadata>
Created by potrace 1.14, written by Peter Selinger 2001-2017
</metadata>
<g transform="translate(0.000000,144.000000) scale(0.100000,-0.100000)"
fill="#000000" stroke="none">
<path fill="#000000" stroke="none" d="M290 1431 l-75 -6 -3 -67 c-2 -46 2
-77 13 -97 23 -46 19 -56 -40 -97 -41 -28 -70 -60 -114 -129 l-59 -91 -3 -194
c-3 -233 2 -251 62 -243 33 5 39 3 39 -13 -1 -47 -28 -276 -34 -281 -7 -8 145
-94 154 -88 4 2 15 47 25 99 10 53 22 93 25 89 21 -25 60 -168 60 -221 l0 -60
66 -16 c37 -9 68 -16 69 -14 1 2 10 79 19 173 9 94 29 247 44 340 27 162 30
173 66 223 l38 52 -32 199 -32 199 -74 32 c-80 35 -73 25 -95 153 -9 52 -15
67 -28 65 -9 -1 -50 -4 -91 -7z"/>
</g>
</svg>
