<?xml version="1.0" standalone="no"?>
<!DOCTYPE svg PUBLIC "-//W3C//DTD SVG 20010904//EN"
 "http://www.w3.org/TR/2001/REC-SVG-20010904/DTD/svg10.dtd">
<svg version="1.0" xmlns="http://www.w3.org/2000/svg"
 width="83.000000pt" height="190.000000pt" viewBox="0 0 83.000000 190.000000"
 preserveAspectRatio="xMidYMid meet">
<metadata>
Created by potrace 1.14, written by Peter Selinger 2001-2017
</metadata>
<g transform="translate(0.000000,190.000000) scale(0.100000,-0.100000)"
fill="#000000" stroke="none">
<path fill="#000000" stroke="none" d="M250 1891 c-21 -6 -26 -15 -33 -60 -7
-43 -5 -61 11 -99 26 -61 55 -184 50 -213 -2 -15 -29 -44 -78 -81 l-75 -58
-28 -112 c-15 -62 -43 -187 -63 -278 -33 -154 -35 -173 -31 -290 4 -79 13
-152 26 -199 19 -72 19 -74 1 -100 -11 -14 -22 -38 -25 -52 -6 -23 -1 -29 50
-55 l56 -29 -2 -75 c-3 -66 0 -81 24 -120 18 -31 37 -50 60 -58 43 -15 57 -15
57 1 0 6 16 38 35 70 56 92 52 103 -59 162 -87 46 -93 51 -81 68 13 18 17 17
102 -17 l88 -36 22 27 c21 26 71 153 144 372 36 106 37 115 23 142 -11 22 -24
30 -54 35 -39 6 -52 25 -29 40 6 3 41 6 78 6 36 0 78 6 93 14 32 17 70 20 125
10 47 -9 43 -15 62 95 23 135 24 221 2 299 -20 70 -20 76 -4 88 9 6 21 12 26
12 24 0 -8 18 -41 24 -56 8 -169 62 -228 107 l-51 39 -5 88 c-6 96 -11 111
-70 190 l-39 52 -57 -1 c-31 -1 -68 -4 -82 -8z"/>
</g>
</svg>
