<?xml version="1.0" standalone="no"?>
<!DOCTYPE svg PUBLIC "-//W3C//DTD SVG 20010904//EN"
 "http://www.w3.org/TR/2001/REC-SVG-20010904/DTD/svg10.dtd">
<svg version="1.0" xmlns="http://www.w3.org/2000/svg"
 width="20.000000pt" height="45.000000pt" viewBox="0 0 20.000000 45.000000"
 preserveAspectRatio="xMidYMid meet">
<metadata>
Created by potrace 1.14, written by Peter Selinger 2001-2017
</metadata>
<g transform="translate(0.000000,45.000000) scale(0.100000,-0.100000)"
fill="#000000" stroke="none">
<path fill="#000000" stroke="none" d="M48 392 c3 -45 0 -67 -17 -97 -18 -34
-19 -40 -5 -50 14 -10 14 -15 -2 -47 -13 -28 -15 -42 -6 -66 8 -23 7 -35 -3
-49 -22 -28 -18 -33 21 -33 l37 0 -5 68 c-5 73 3 98 37 104 18 3 21 -5 27 -82
8 -106 18 -142 36 -131 16 9 35 189 26 241 -7 44 -43 122 -60 133 -7 4 -11 13
-8 21 6 15 -37 46 -64 46 -16 0 -18 -7 -14 -58z"/>
</g>
</svg>
