<?xml version="1.0" standalone="no"?>
<!DOCTYPE svg PUBLIC "-//W3C//DTD SVG 20010904//EN"
 "http://www.w3.org/TR/2001/REC-SVG-20010904/DTD/svg10.dtd">
<svg version="1.0" xmlns="http://www.w3.org/2000/svg"
 width="108.000000pt" height="292.000000pt" viewBox="0 0 108.000000 292.000000"
 preserveAspectRatio="xMidYMid meet">
<metadata>
Created by potrace 1.14, written by Peter Selinger 2001-2017
</metadata>
<g transform="translate(0.000000,292.000000) scale(0.100000,-0.100000)"
fill="#000000" stroke="none">
<path fill="#000000" stroke="none" d="M424 2885 c-60 -19 -122 -38 -138 -45
l-29 -10 7 -73 c9 -97 10 -99 53 -122 33 -17 39 -27 48 -70 8 -41 19 -58 58
-94 26 -24 47 -47 47 -51 0 -4 -26 -17 -57 -29 -123 -47 -147 -76 -218 -261
-18 -48 -45 -110 -59 -138 -22 -43 -26 -65 -26 -136 0 -96 -57 -395 -92 -484
-11 -29 -19 -54 -17 -56 41 -33 90 -56 119 -56 73 0 127 96 87 155 -8 11 -19
34 -24 50 -6 17 -14 37 -17 46 -5 12 8 25 53 52 l61 36 0 -45 c0 -25 -9 -80
-19 -122 -13 -53 -21 -131 -25 -252 -4 -140 -9 -185 -25 -226 -35 -91 -93
-356 -105 -479 l-12 -120 32 -42 c31 -41 32 -47 39 -177 6 -121 9 -134 23
-126 10 5 46 25 81 46 l63 37 -6 54 c-5 42 -2 61 14 93 11 21 20 59 20 83 0
24 20 142 44 263 39 195 49 227 83 286 l38 67 24 -41 c12 -22 29 -61 37 -88 9
-32 21 -49 34 -53 12 -3 20 -14 20 -26 0 -12 12 -39 26 -61 26 -40 26 -40 19
-176 -7 -130 -6 -135 11 -125 11 6 61 17 113 25 51 8 95 16 97 18 1 2 -8 71
-22 153 l-24 150 62 234 62 235 -29 137 c-27 136 -28 139 -9 166 22 34 53 125
100 297 l34 129 -30 186 c-16 102 -32 197 -35 211 -4 19 -41 50 -144 120
l-138 95 -27 155 c-15 85 -30 158 -34 161 -4 3 -37 22 -73 41 l-65 36 -110
-33z"/>
</g>
</svg>
