<?xml version="1.0" standalone="no"?>
<!DOCTYPE svg PUBLIC "-//W3C//DTD SVG 20010904//EN"
 "http://www.w3.org/TR/2001/REC-SVG-20010904/DTD/svg10.dtd">
<svg version="1.0" xmlns="http://www.w3.org/2000/svg"
 width="20.000000pt" height="50.000000pt" viewBox="0 0 20.000000 50.000000"
 preserveAspectRatio="xMidYMid meet">
<metadata>
Created by potrace 1.14, written by Peter Selinger 2001-2017
</metadata>
<g transform="translate(0.000000,50.000000) scale(0.100000,-0.100000)"
fill="#000000" stroke="none">
<path fill="#000000" stroke="none" d="M68 493 c-21 -5 -35 -48 -43 -134 -8
-88 -1 -117 29 -112 21 4 24 0 30 -47 4 -29 6 -53 4 -55 -2 -1 -21 -9 -43 -17
-45 -18 -54 -42 -35 -89 14 -32 40 -39 40 -11 0 18 18 42 31 42 4 0 10 -16 13
-35 5 -25 12 -35 25 -35 33 0 44 24 28 62 -14 32 -13 37 9 74 34 55 43 95 33
145 -4 26 -4 60 2 82 10 36 -1 99 -20 118 -9 10 -82 18 -103 12z"/>
</g>
</svg>
