<?xml version="1.0" standalone="no"?>
<!DOCTYPE svg PUBLIC "-//W3C//DTD SVG 20010904//EN"
 "http://www.w3.org/TR/2001/REC-SVG-20010904/DTD/svg10.dtd">
<svg version="1.0" xmlns="http://www.w3.org/2000/svg"
 width="179.000000pt" height="499.000000pt" viewBox="0 0 179.000000 499.000000"
 preserveAspectRatio="xMidYMid meet">
<metadata>
Created by potrace 1.14, written by Peter Selinger 2001-2017
</metadata>
<g transform="translate(0.000000,499.000000) scale(0.100000,-0.100000)"
fill="#000000" stroke="none">
<path fill="#000000" stroke="none" d="M421 4913 l-61 -78 5 -55 c4 -36 -2
-96 -16 -170 -40 -219 -40 -194 -1 -251 19 -29 53 -108 77 -180 26 -76 57
-147 76 -174 l33 -46 -92 -187 c-116 -239 -210 -529 -278 -864 -61 -302 -166
-961 -154 -968 14 -9 300 -54 305 -48 3 2 -2 98 -9 214 -8 115 -13 210 -11
212 1 1 26 -34 55 -77 51 -79 52 -82 66 -196 l13 -115 -96 -283 -95 -282 22
-70 c12 -38 42 -114 66 -168 l44 -99 0 -184 0 -184 162 -323 161 -324 325 -7
c179 -4 326 -5 327 -4 2 2 -21 86 -51 188 -30 102 -82 289 -115 415 -60 226
-61 234 -73 434 -12 197 -11 209 13 405 l26 201 78 102 c66 86 88 125 136 243
53 129 62 145 112 189 30 26 98 76 152 110 l97 63 0 51 c0 41 7 64 34 109 l35
57 -9 88 c-5 48 -10 90 -10 92 0 2 -6 -2 -14 -8 -11 -10 -15 -8 -20 6 -2 10
-51 175 -107 367 l-101 350 -135 147 c-92 101 -143 149 -161 153 -58 11 -214
28 -218 23 -3 -3 -21 -132 -40 -288 -22 -184 -47 -334 -70 -428 -21 -91 -46
-238 -64 -390 -16 -134 -31 -245 -33 -247 -2 -2 -32 6 -67 17 l-63 22 7 266
c9 362 10 743 2 876 l-6 110 164 140 164 140 138 41 c77 22 145 43 153 45 11
4 4 17 -24 48 l-38 42 14 47 c13 42 13 58 -1 144 -9 54 -19 101 -22 104 -3 3
-32 -27 -64 -66 l-59 -71 -5 103 -6 103 -67 120 c-56 101 -67 128 -67 168 l0
47 -117 0 -118 0 -100 49 c-148 73 -133 74 -204 -16z"/>
</g>
</svg>
