<?xml version="1.0" standalone="no"?>
<!DOCTYPE svg PUBLIC "-//W3C//DTD SVG 20010904//EN"
 "http://www.w3.org/TR/2001/REC-SVG-20010904/DTD/svg10.dtd">
<svg version="1.0" xmlns="http://www.w3.org/2000/svg"
 width="90.000000pt" height="201.000000pt" viewBox="0 0 90.000000 201.000000"
 preserveAspectRatio="xMidYMid meet">
<metadata>
Created by potrace 1.14, written by Peter Selinger 2001-2017
</metadata>
<g transform="translate(0.000000,201.000000) scale(0.100000,-0.100000)"
fill="#000000" stroke="none">
<path fill="#000000" stroke="none" d="M578 2001 c-71 -10 -126 -73 -143 -162
-10 -51 -29 -70 -155 -149 -146 -92 -209 -145 -242 -206 l-25 -49 -7 -651 -6
-651 41 -27 41 -28 28 34 c15 18 25 38 22 43 -3 6 -23 36 -44 67 l-38 58 25 6
c21 5 29 18 49 83 13 42 47 129 76 193 57 129 45 121 131 84 27 -11 45 -13 70
-6 18 5 34 9 35 7 3 -3 -42 -242 -60 -320 -21 -88 -20 -109 4 -140 20 -25 20
-25 -2 -76 -16 -41 -19 -57 -10 -75 9 -20 20 -24 88 -29 42 -4 135 -7 207 -7
119 0 129 1 122 17 -4 10 -10 29 -13 42 -4 18 -20 31 -63 50 -55 24 -59 28
-59 59 0 28 5 36 30 45 22 8 31 19 35 42 15 87 35 287 40 401 6 125 5 130 -17
154 -37 41 -225 180 -266 197 -20 8 -39 17 -41 19 -11 11 64 103 101 124 24
13 49 31 55 39 36 45 169 272 181 309 14 41 16 42 58 42 24 0 44 2 44 5 0 3
-6 21 -14 40 -13 29 -12 40 0 82 31 99 41 177 30 224 -10 41 -15 46 -79 78
-72 37 -137 46 -229 32z"/>
</g>
</svg>
