<?xml version="1.0" standalone="no"?>
<!DOCTYPE svg PUBLIC "-//W3C//DTD SVG 20010904//EN"
 "http://www.w3.org/TR/2001/REC-SVG-20010904/DTD/svg10.dtd">
<svg version="1.0" xmlns="http://www.w3.org/2000/svg"
 width="41.000000pt" height="110.000000pt" viewBox="0 0 41.000000 110.000000"
 preserveAspectRatio="xMidYMid meet">
<metadata>
Created by potrace 1.14, written by Peter Selinger 2001-2017
</metadata>
<g transform="translate(0.000000,110.000000) scale(0.100000,-0.100000)"
fill="#000000" stroke="none">
<path fill="#000000" stroke="none" d="M36 1069 c-28 -33 -32 -59 -15 -107 8
-23 7 -42 -5 -83 -19 -63 -21 -210 -4 -227 7 -7 40 -12 80 -12 66 0 68 1 68
25 0 43 79 55 196 30 22 -5 34 -2 45 11 11 13 11 18 2 21 -7 3 -13 15 -13 28
0 27 -117 135 -147 135 -39 0 -63 13 -63 33 0 11 -5 49 -11 85 -11 59 -14 65
-45 78 -48 20 -59 18 -88 -17z"/>
<path fill="#000000" stroke="none" d="M108 600 c-54 -3 -101 -9 -104 -13 -3
-3 -3 -134 1 -290 l7 -284 110 -5 c60 -3 118 -4 128 -1 22 6 27 44 36 266 4
104 3 151 -5 161 -8 9 -10 40 -5 95 l7 81 -39 -2 c-21 0 -83 -4 -136 -8z"/>
</g>
</svg>
