<?xml version="1.0" standalone="no"?>
<!DOCTYPE svg PUBLIC "-//W3C//DTD SVG 20010904//EN"
 "http://www.w3.org/TR/2001/REC-SVG-20010904/DTD/svg10.dtd">
<svg version="1.0" xmlns="http://www.w3.org/2000/svg"
 width="40.000000pt" height="108.000000pt" viewBox="0 0 40.000000 108.000000"
 preserveAspectRatio="xMidYMid meet">
<metadata>
Created by potrace 1.14, written by Peter Selinger 2001-2017
</metadata>
<g transform="translate(0.000000,108.000000) scale(0.100000,-0.100000)"
fill="#000000" stroke="none">
<path fill="#000000" stroke="none" d="M155 1018 c-7 -56 -13 -70 -58 -123
-98 -118 -111 -189 -38 -207 l34 -9 -7 -97 c-4 -53 -16 -180 -27 -282 -19
-166 -28 -211 -54 -273 -7 -16 -3 -18 40 -15 48 3 48 3 66 53 10 30 18 81 18
128 l1 77 45 0 c27 0 47 -5 50 -12 3 -7 -3 -65 -13 -130 l-19 -116 35 -4 c19
-2 36 1 37 6 2 6 11 64 21 129 l17 118 38 20 c22 11 39 22 39 25 0 2 -8 21
-19 42 -14 28 -20 71 -26 176 l-7 139 36 31 37 31 -21 67 c-19 63 -25 70 -80
108 -45 31 -60 47 -65 72 -18 87 -28 108 -51 108 -20 0 -23 -7 -29 -62z"/>
</g>
</svg>
