<?xml version="1.0" standalone="no"?>
<!DOCTYPE svg PUBLIC "-//W3C//DTD SVG 20010904//EN"
 "http://www.w3.org/TR/2001/REC-SVG-20010904/DTD/svg10.dtd">
<svg version="1.0" xmlns="http://www.w3.org/2000/svg"
 width="31.000000pt" height="71.000000pt" viewBox="0 0 31.000000 71.000000"
 preserveAspectRatio="xMidYMid meet">
<metadata>
Created by potrace 1.14, written by Peter Selinger 2001-2017
</metadata>
<g transform="translate(0.000000,71.000000) scale(0.100000,-0.100000)"
fill="#000000" stroke="none">
<path fill="#000000" stroke="none" d="M96 684 c-11 -16 -16 -37 -13 -53 4
-19 -2 -34 -22 -56 -16 -16 -35 -48 -44 -71 -15 -39 -15 -41 7 -70 13 -16 31
-50 41 -76 16 -42 16 -59 6 -155 -12 -111 -9 -122 29 -123 18 0 60 101 60 145
0 24 6 17 30 -40 19 -45 30 -86 30 -117 0 -43 3 -50 26 -58 41 -16 67 -13 61
8 -2 9 -19 64 -37 122 -28 92 -33 124 -39 261 -5 138 -8 160 -26 179 -11 12
-25 45 -30 73 -9 45 -14 52 -36 55 -19 2 -31 -4 -43 -24z"/>
</g>
</svg>
