<?xml version="1.0" standalone="no"?>
<!DOCTYPE svg PUBLIC "-//W3C//DTD SVG 20010904//EN"
 "http://www.w3.org/TR/2001/REC-SVG-20010904/DTD/svg10.dtd">
<svg version="1.0" xmlns="http://www.w3.org/2000/svg"
 width="31.000000pt" height="76.000000pt" viewBox="0 0 31.000000 76.000000"
 preserveAspectRatio="xMidYMid meet">
<metadata>
Created by potrace 1.14, written by Peter Selinger 2001-2017
</metadata>
<g transform="translate(0.000000,76.000000) scale(0.100000,-0.100000)"
fill="#000000" stroke="none">
<path fill="#000000" stroke="none" d="M198 736 c-36 -13 -87 -38 -112 -57
l-47 -33 7 -57 c6 -51 4 -61 -19 -91 -25 -32 -26 -35 -15 -113 19 -146 80
-247 197 -329 43 -31 84 -56 90 -56 7 0 11 36 11 108 0 106 -1 109 -53 241
l-53 134 16 101 c11 64 25 115 39 139 13 20 19 37 14 37 -4 0 -38 -11 -75 -24z"/>
</g>
</svg>
