<?xml version="1.0" standalone="no"?>
<!DOCTYPE svg PUBLIC "-//W3C//DTD SVG 20010904//EN"
 "http://www.w3.org/TR/2001/REC-SVG-20010904/DTD/svg10.dtd">
<svg version="1.0" xmlns="http://www.w3.org/2000/svg"
 width="28.000000pt" height="78.000000pt" viewBox="0 0 28.000000 78.000000"
 preserveAspectRatio="xMidYMid meet">
<metadata>
Created by potrace 1.14, written by Peter Selinger 2001-2017
</metadata>
<g transform="translate(0.000000,78.000000) scale(0.100000,-0.100000)"
fill="#000000" stroke="none">
<path fill="#000000" stroke="none" d="M81 764 c-40 -7 -75 -15 -78 -18 -5 -5
33 -83 51 -106 10 -11 11 -83 5 -305 -5 -159 -7 -291 -5 -293 2 -2 54 -11 115
-21 l111 -18 0 26 c0 14 -11 145 -25 291 -18 189 -23 293 -18 363 l6 97 -44
-1 c-24 -1 -77 -7 -118 -15z"/>
</g>
</svg>
