<?xml version="1.0" standalone="no"?>
<!DOCTYPE svg PUBLIC "-//W3C//DTD SVG 20010904//EN"
 "http://www.w3.org/TR/2001/REC-SVG-20010904/DTD/svg10.dtd">
<svg version="1.0" xmlns="http://www.w3.org/2000/svg"
 width="32.000000pt" height="79.000000pt" viewBox="0 0 32.000000 79.000000"
 preserveAspectRatio="xMidYMid meet">
<metadata>
Created by potrace 1.14, written by Peter Selinger 2001-2017
</metadata>
<g transform="translate(0.000000,79.000000) scale(0.100000,-0.100000)"
fill="#000000" stroke="none">
<path fill="#000000" stroke="none" d="M204 748 c-16 -24 -33 -45 -38 -47 -6
-2 -20 -15 -33 -27 -14 -14 -36 -24 -52 -24 -23 0 -31 6 -40 30 -5 17 -14 30
-20 30 -18 0 -24 -66 -10 -107 16 -44 25 -53 58 -53 23 0 23 -2 16 -57 -11
-78 -4 -470 8 -479 1 0 17 -4 35 -7 l32 -7 1 138 c1 75 4 151 8 167 7 29 7 30
19 8 7 -12 12 -35 12 -50 0 -16 5 -34 11 -40 7 -7 11 -49 10 -112 l-2 -101 51
0 c55 0 62 11 29 46 l-20 21 21 41 c22 41 22 42 5 149 -14 88 -16 142 -10 294
5 148 4 191 -6 208 -22 34 -53 26 -85 -21z"/>
</g>
</svg>
