<?xml version="1.0" standalone="no"?>
<!DOCTYPE svg PUBLIC "-//W3C//DTD SVG 20010904//EN"
 "http://www.w3.org/TR/2001/REC-SVG-20010904/DTD/svg10.dtd">
<svg version="1.0" xmlns="http://www.w3.org/2000/svg"
 width="21.000000pt" height="53.000000pt" viewBox="0 0 21.000000 53.000000"
 preserveAspectRatio="xMidYMid meet">
<metadata>
Created by potrace 1.14, written by Peter Selinger 2001-2017
</metadata>
<g transform="translate(0.000000,53.000000) scale(0.100000,-0.100000)"
fill="#000000" stroke="none">
<path fill="#000000" stroke="none" d="M98 519 c-23 -13 -23 -45 -1 -58 13 -7
14 -13 6 -23 -13 -16 -33 -158 -42 -291 -6 -97 -14 -116 -48 -117 -7 0 -13 -4
-13 -10 0 -12 45 -24 58 -16 5 3 22 45 38 93 19 61 29 81 32 65 5 -34 40 -66
56 -53 9 8 11 24 5 58 -14 85 -11 153 7 160 22 8 13 50 -23 105 -14 24 -27 54
-27 68 -1 27 -21 35 -48 19z"/>
</g>
</svg>
