<?xml version="1.0" standalone="no"?>
<!DOCTYPE svg PUBLIC "-//W3C//DTD SVG 20010904//EN"
 "http://www.w3.org/TR/2001/REC-SVG-20010904/DTD/svg10.dtd">
<svg version="1.0" xmlns="http://www.w3.org/2000/svg"
 width="96.000000pt" height="235.000000pt" viewBox="0 0 96.000000 235.000000"
 preserveAspectRatio="xMidYMid meet">
<metadata>
Created by potrace 1.14, written by Peter Selinger 2001-2017
</metadata>
<g transform="translate(0.000000,235.000000) scale(0.100000,-0.100000)"
fill="#000000" stroke="none">
<path fill="#000000" stroke="none" d="M189 2330 c-49 -26 -63 -63 -57 -153 4
-51 13 -87 31 -124 19 -37 27 -68 27 -106 0 -49 -3 -55 -32 -77 -18 -13 -61
-46 -95 -73 l-63 -50 0 -60 c0 -76 28 -243 47 -281 8 -16 35 -51 60 -77 l44
-47 -19 -39 c-23 -45 -37 -189 -23 -227 8 -19 5 -37 -11 -76 l-21 -51 28 -29
c24 -25 26 -32 17 -62 -6 -18 -12 -76 -13 -128 -3 -81 0 -101 19 -137 12 -23
22 -56 22 -73 0 -16 11 -83 25 -147 14 -65 29 -160 32 -211 l6 -92 47 0 c26 0
82 -3 125 -7 l78 -6 -7 164 c-6 136 -4 177 10 234 9 39 19 92 23 120 l6 50 67
-170 c68 -175 128 -353 128 -381 0 -12 6 -15 23 -10 12 3 67 6 122 6 55 0 106
4 114 9 11 7 10 24 -8 100 -12 51 -31 106 -41 124 -12 19 -20 50 -20 75 0 28
-7 54 -20 71 -35 51 -71 164 -89 289 -17 109 -23 129 -55 177 -41 62 -42 65
-20 65 17 0 17 6 -2 131 -5 35 -3 37 54 74 l59 39 -29 85 c-16 47 -38 124 -49
171 -19 79 -20 85 -4 95 42 25 114 83 110 87 -3 3 -28 3 -55 0 -32 -3 -55 0
-65 8 -23 19 -18 30 15 30 23 0 30 4 30 20 0 15 -7 20 -28 20 -36 0 -87 53
-97 100 -12 57 -48 87 -131 106 -41 10 -76 24 -79 32 -3 7 4 25 14 38 26 33
36 112 21 176 -31 140 -43 184 -54 194 -6 6 -49 14 -96 17 -71 4 -91 2 -121
-13z"/>
</g>
</svg>
