<?xml version="1.0" standalone="no"?>
<!DOCTYPE svg PUBLIC "-//W3C//DTD SVG 20010904//EN"
 "http://www.w3.org/TR/2001/REC-SVG-20010904/DTD/svg10.dtd">
<svg version="1.0" xmlns="http://www.w3.org/2000/svg"
 width="31.000000pt" height="74.000000pt" viewBox="0 0 31.000000 74.000000"
 preserveAspectRatio="xMidYMid meet">
<metadata>
Created by potrace 1.14, written by Peter Selinger 2001-2017
</metadata>
<g transform="translate(0.000000,74.000000) scale(0.100000,-0.100000)"
fill="#000000" stroke="none">
<path fill="#000000" stroke="none" d="M86 718 c-7 -13 -19 -40 -26 -62 -7
-21 -21 -47 -31 -57 -21 -21 -22 -31 -19 -174 2 -105 14 -168 37 -186 7 -7 13
-32 13 -60 0 -62 28 -166 47 -174 28 -10 33 6 33 101 0 85 2 94 19 94 17 0 19
12 23 165 4 153 9 187 24 173 3 -4 7 -84 8 -180 2 -180 13 -252 51 -316 39
-65 48 -20 33 163 -10 122 -14 135 -41 135 -17 0 -19 2 -8 9 16 10 51 96 51
123 0 40 -32 96 -61 108 -33 14 -32 13 -19 60 13 45 -7 75 -57 89 -53 15 -61
14 -77 -11z"/>
</g>
</svg>
