<?xml version="1.0" standalone="no"?>
<!DOCTYPE svg PUBLIC "-//W3C//DTD SVG 20010904//EN"
 "http://www.w3.org/TR/2001/REC-SVG-20010904/DTD/svg10.dtd">
<svg version="1.0" xmlns="http://www.w3.org/2000/svg"
 width="10.000000pt" height="27.000000pt" viewBox="0 0 10.000000 27.000000"
 preserveAspectRatio="xMidYMid meet">
<metadata>
Created by potrace 1.14, written by Peter Selinger 2001-2017
</metadata>
<g transform="translate(0.000000,27.000000) scale(0.100000,-0.100000)"
fill="#000000" stroke="none">
<path fill="#000000" stroke="none" d="M23 258 c-5 -7 -10 -51 -11 -98 -1 -47
-4 -102 -8 -122 -5 -31 -3 -38 10 -38 10 0 16 9 16 24 0 14 5 37 11 53 l11 28
15 -42 c8 -24 19 -43 25 -43 5 0 6 9 2 23 -4 12 -7 54 -6 94 1 42 -2 75 -9 78
-5 4 -14 18 -19 31 -10 27 -23 30 -37 12z"/>
</g>
</svg>
