<?xml version="1.0" standalone="no"?>
<!DOCTYPE svg PUBLIC "-//W3C//DTD SVG 20010904//EN"
 "http://www.w3.org/TR/2001/REC-SVG-20010904/DTD/svg10.dtd">
<svg version="1.0" xmlns="http://www.w3.org/2000/svg"
 width="64.000000pt" height="148.000000pt" viewBox="0 0 64.000000 148.000000"
 preserveAspectRatio="xMidYMid meet">
<metadata>
Created by potrace 1.14, written by Peter Selinger 2001-2017
</metadata>
<g transform="translate(0.000000,148.000000) scale(0.100000,-0.100000)"
fill="#000000" stroke="none">
<path fill="#000000" stroke="none" d="M400 1439 c-17 -33 -21 -53 -16 -88 l5
-46 -99 -69 c-55 -39 -103 -79 -106 -90 -9 -26 -5 -135 5 -172 7 -27 13 -29
187 -71 98 -23 182 -43 185 -43 18 -1 60 105 70 176 15 107 6 148 -56 272 -62
123 -89 159 -127 167 -24 6 -29 2 -48 -36z"/>
<path fill="#000000" stroke="none" d="M132 618 c-39 -124 -125 -486 -129
-545 l-6 -73 69 0 c94 0 105 9 71 53 l-26 34 26 25 c24 25 25 26 8 52 -17 26
-17 28 15 101 27 63 36 75 56 75 23 0 24 3 24 65 0 47 7 80 25 121 14 31 25
62 25 69 0 7 -26 17 -62 25 -35 6 -68 16 -75 21 -8 7 -14 0 -21 -23z"/>
<path fill="#000000" stroke="none" d="M370 297 c0 -146 3 -268 8 -270 4 -3
45 -6 91 -8 95 -4 118 11 57 36 -42 18 -41 15 -19 118 l17 78 -50 50 c-44 45
-49 55 -51 97 0 26 -4 62 -8 80 -5 21 -3 38 5 47 15 18 13 21 -23 30 l-27 7 0
-265z"/>
</g>
</svg>
