<?xml version="1.0" standalone="no"?>
<!DOCTYPE svg PUBLIC "-//W3C//DTD SVG 20010904//EN"
 "http://www.w3.org/TR/2001/REC-SVG-20010904/DTD/svg10.dtd">
<svg version="1.0" xmlns="http://www.w3.org/2000/svg"
 width="30.000000pt" height="76.000000pt" viewBox="0 0 30.000000 76.000000"
 preserveAspectRatio="xMidYMid meet">
<metadata>
Created by potrace 1.14, written by Peter Selinger 2001-2017
</metadata>
<g transform="translate(0.000000,76.000000) scale(0.100000,-0.100000)"
fill="#000000" stroke="none">
<path fill="#000000" stroke="none" d="M103 753 c-16 -6 -17 -55 -3 -69 18
-18 0 -43 -33 -46 -37 -3 -57 -36 -65 -104 -4 -37 -1 -44 21 -59 44 -28 52
-72 52 -277 l0 -187 25 -6 c35 -9 50 17 51 89 l1 61 8 -52 c15 -99 18 -106 48
-98 15 3 30 9 34 13 11 12 11 112 0 206 -7 50 -8 95 -3 105 5 9 12 40 16 69 4
28 11 52 16 52 5 0 9 11 9 24 0 14 4 28 10 31 6 3 10 13 10 21 0 25 -69 108
-105 126 -31 16 -33 20 -28 58 5 32 2 40 -10 40 -8 0 -21 2 -29 4 -7 3 -19 2
-25 -1z"/>
</g>
</svg>
