<?xml version="1.0" standalone="no"?>
<!DOCTYPE svg PUBLIC "-//W3C//DTD SVG 20010904//EN"
 "http://www.w3.org/TR/2001/REC-SVG-20010904/DTD/svg10.dtd">
<svg version="1.0" xmlns="http://www.w3.org/2000/svg"
 width="32.000000pt" height="79.000000pt" viewBox="0 0 32.000000 79.000000"
 preserveAspectRatio="xMidYMid meet">
<metadata>
Created by potrace 1.14, written by Peter Selinger 2001-2017
</metadata>
<g transform="translate(0.000000,79.000000) scale(0.100000,-0.100000)"
fill="#000000" stroke="none">
<path fill="#000000" stroke="none" d="M163 780 c-42 -17 -50 -47 -56 -200 -5
-135 -8 -150 -37 -220 -48 -111 -88 -360 -59 -360 6 0 56 24 110 53 108 57
119 71 119 161 0 21 18 117 40 213 22 97 40 184 40 194 0 27 -101 169 -120
168 -8 0 -25 -4 -37 -9z"/>
</g>
</svg>
