<?xml version="1.0" standalone="no"?>
<!DOCTYPE svg PUBLIC "-//W3C//DTD SVG 20010904//EN"
 "http://www.w3.org/TR/2001/REC-SVG-20010904/DTD/svg10.dtd">
<svg version="1.0" xmlns="http://www.w3.org/2000/svg"
 width="176.000000pt" height="429.000000pt" viewBox="0 0 176.000000 429.000000"
 preserveAspectRatio="xMidYMid meet">
<metadata>
Created by potrace 1.14, written by Peter Selinger 2001-2017
</metadata>
<g transform="translate(0.000000,429.000000) scale(0.100000,-0.100000)"
fill="#000000" stroke="none">
<path fill="#000000" stroke="none" d="M726 4279 c-3 -8 -30 -138 -61 -289
-32 -151 -61 -282 -65 -290 -4 -8 -51 -69 -104 -135 l-96 -120 -89 -226 c-56
-142 -110 -302 -145 -429 -31 -112 -81 -272 -111 -355 -65 -179 -66 -201 -28
-367 l27 -117 92 -117 c51 -64 113 -156 140 -203 26 -47 58 -101 72 -118 17
-23 43 -104 87 -268 35 -130 64 -237 66 -239 2 -2 45 -17 94 -35 88 -31 93
-35 210 -150 66 -64 136 -130 155 -145 l34 -28 48 -276 c37 -212 52 -278 66
-288 9 -6 37 -27 62 -46 l44 -35 68 81 68 81 73 -3 c39 -1 88 -5 107 -8 28 -4
55 4 128 39 l92 44 -96 68 c-85 60 -106 81 -193 199 l-97 131 21 130 c19 123
24 136 83 248 l63 118 -44 92 c-24 51 -50 97 -58 103 -8 6 -32 15 -54 19 -59
10 -167 73 -161 94 5 16 96 526 96 536 0 3 20 5 44 5 28 0 46 5 49 14 3 7 -8
56 -24 107 -28 90 -29 100 -29 289 1 169 4 214 28 340 l28 145 -66 51 c-37 28
-142 115 -234 193 l-167 141 34 15 c33 13 44 11 328 -80 162 -52 297 -95 302
-95 4 0 7 37 7 82 0 79 -1 83 -46 155 -37 60 -74 98 -192 200 -80 69 -183 150
-229 181 -68 45 -82 59 -78 76 28 128 27 130 -22 310 -26 94 -47 172 -47 172
-1 1 -63 5 -138 9 -113 6 -139 5 -142 -6z"/>
<path fill="#ffffff" stroke="none" d="M890 2793 c0 -5 -11 -51 -23 -103 -19
-78 -32 -109 -76 -173 l-53 -78 -20 -192 -20 -192 -46 -50 c-26 -27 -81 -85
-122 -127 -74 -77 -75 -78 -126 -78 l-51 0 -26 88 c-15 48 -43 154 -63 235
l-37 148 58 157 c31 86 66 181 77 210 11 28 24 52 30 52 5 0 61 -36 124 -80
62 -44 117 -80 122 -80 21 0 132 207 132 245 0 24 2 25 60 25 33 0 60 -3 60
-7z"/>
</g>
</svg>
