<?xml version="1.0" standalone="no"?>
<!DOCTYPE svg PUBLIC "-//W3C//DTD SVG 20010904//EN"
 "http://www.w3.org/TR/2001/REC-SVG-20010904/DTD/svg10.dtd">
<svg version="1.0" xmlns="http://www.w3.org/2000/svg"
 width="16.000000pt" height="43.000000pt" viewBox="0 0 16.000000 43.000000"
 preserveAspectRatio="xMidYMid meet">
<metadata>
Created by potrace 1.14, written by Peter Selinger 2001-2017
</metadata>
<g transform="translate(0.000000,43.000000) scale(0.100000,-0.100000)"
fill="#000000" stroke="none">
<path fill="#000000" stroke="none" d="M52 418 c-7 -7 -12 -20 -12 -29 0 -9
-7 -22 -15 -29 -21 -18 -19 -38 10 -72 14 -16 25 -39 25 -50 0 -17 -5 -20 -31
-16 l-31 5 6 -71 c15 -161 13 -156 60 -156 l41 0 0 98 c0 116 11 180 28 163
18 -18 27 -13 27 17 0 27 -26 66 -50 74 -6 2 -15 19 -19 38 -7 37 -20 47 -39
28z"/>
</g>
</svg>
