<?xml version="1.0" standalone="no"?>
<!DOCTYPE svg PUBLIC "-//W3C//DTD SVG 20010904//EN"
 "http://www.w3.org/TR/2001/REC-SVG-20010904/DTD/svg10.dtd">
<svg version="1.0" xmlns="http://www.w3.org/2000/svg"
 width="57.000000pt" height="140.000000pt" viewBox="0 0 57.000000 140.000000"
 preserveAspectRatio="xMidYMid meet">
<metadata>
Created by potrace 1.14, written by Peter Selinger 2001-2017
</metadata>
<g transform="translate(0.000000,140.000000) scale(0.100000,-0.100000)"
fill="#000000" stroke="none">
<path fill="#000000" stroke="none" d="M301 1348 c-44 -43 -55 -49 -60 -36 -5
14 -21 6 -90 -48 -47 -36 -95 -81 -107 -102 -22 -35 -22 -44 -17 -192 4 -124
2 -167 -11 -216 -29 -112 -14 -189 52 -271 19 -24 30 -44 26 -44 -5 -1 5 -4
21 -8 24 -5 37 -1 65 20 19 14 58 34 85 43 44 15 59 15 125 4 73 -13 75 -14
78 -44 3 -33 -13 -44 -65 -44 -12 0 -25 -5 -29 -11 -7 -11 -44 -147 -44 -162
0 -4 20 -17 44 -27 l44 -20 12 -79 c11 -67 17 -81 39 -94 25 -14 27 -14 28 1
1 9 9 42 18 72 17 57 20 138 9 225 -4 37 1 77 20 152 31 122 33 181 6 232 -10
21 -23 65 -29 97 -5 33 -19 83 -30 112 -27 67 -30 258 -6 315 8 20 15 56 15
80 0 57 -27 83 -95 91 -50 6 -50 6 -104 -46z"/>
</g>
</svg>
