<?xml version="1.0" standalone="no"?>
<!DOCTYPE svg PUBLIC "-//W3C//DTD SVG 20010904//EN"
 "http://www.w3.org/TR/2001/REC-SVG-20010904/DTD/svg10.dtd">
<svg version="1.0" xmlns="http://www.w3.org/2000/svg"
 width="36.000000pt" height="90.000000pt" viewBox="0 0 36.000000 90.000000"
 preserveAspectRatio="xMidYMid meet">
<metadata>
Created by potrace 1.14, written by Peter Selinger 2001-2017
</metadata>
<g transform="translate(0.000000,90.000000) scale(0.100000,-0.100000)"
fill="#000000" stroke="none">
<path fill="#000000" stroke="none" d="M120 893 c-8 -3 -18 -10 -21 -15 -3 -4
-6 -75 -7 -156 l-1 -147 -46 -40 c-25 -22 -45 -43 -45 -47 0 -4 27 -28 61 -54
l61 -46 -4 -183 c-2 -101 0 -187 5 -191 12 -13 124 -17 131 -6 4 6 -5 19 -19
28 -15 9 -24 23 -21 31 8 20 9 464 1 506 -7 37 -7 37 18 28 22 -9 27 -5 52 32
15 23 28 52 29 64 0 12 11 27 24 32 27 13 29 41 2 41 -10 0 -24 9 -29 19 -8
15 -6 22 12 34 12 9 16 16 10 16 -13 1 -19 -5 -71 -67 -23 -28 -32 -32 -55
-27 -27 7 -37 30 -15 37 16 6 13 77 -4 93 -17 17 -49 25 -68 18z"/>
</g>
</svg>
