<?xml version="1.0" standalone="no"?>
<!DOCTYPE svg PUBLIC "-//W3C//DTD SVG 20010904//EN"
 "http://www.w3.org/TR/2001/REC-SVG-20010904/DTD/svg10.dtd">
<svg version="1.0" xmlns="http://www.w3.org/2000/svg"
 width="22.000000pt" height="61.000000pt" viewBox="0 0 22.000000 61.000000"
 preserveAspectRatio="xMidYMid meet">
<metadata>
Created by potrace 1.14, written by Peter Selinger 2001-2017
</metadata>
<g transform="translate(0.000000,61.000000) scale(0.100000,-0.100000)"
fill="#000000" stroke="none">
<path fill="#000000" stroke="none" d="M53 603 c-7 -2 -13 -15 -13 -27 0 -13
-8 -38 -17 -57 -15 -28 -18 -59 -17 -169 2 -223 4 -283 12 -316 11 -48 41 -29
82 52 33 66 35 73 33 166 l-2 98 30 -16 c17 -8 37 -14 46 -12 13 2 12 8 -9 33
-49 59 -88 141 -88 183 0 24 -7 47 -16 56 -16 17 -21 18 -41 9z"/>
</g>
</svg>
