<?xml version="1.0" standalone="no"?>
<!DOCTYPE svg PUBLIC "-//W3C//DTD SVG 20010904//EN"
 "http://www.w3.org/TR/2001/REC-SVG-20010904/DTD/svg10.dtd">
<svg version="1.0" xmlns="http://www.w3.org/2000/svg"
 width="34.000000pt" height="79.000000pt" viewBox="0 0 34.000000 79.000000"
 preserveAspectRatio="xMidYMid meet">
<metadata>
Created by potrace 1.14, written by Peter Selinger 2001-2017
</metadata>
<g transform="translate(0.000000,79.000000) scale(0.100000,-0.100000)"
fill="#000000" stroke="none">
<path fill="#000000" stroke="none" d="M154 783 c-61 -4 -62 -4 -67 -36 -4
-26 0 -36 21 -54 23 -20 72 -30 100 -20 4 1 8 28 8 60 1 31 1 56 0 55 0 -1
-29 -3 -62 -5z"/>
<path fill="#000000" stroke="none" d="M133 512 c-13 -52 -25 -139 -29 -217
-7 -138 -23 -190 -81 -259 -13 -16 -22 -30 -19 -33 2 -2 22 1 45 7 34 9 45 18
62 53 12 23 47 69 79 102 32 33 79 95 103 137 l45 77 -16 100 c-12 79 -19 101
-32 101 -9 0 -21 -5 -27 -11 -8 -8 -19 -7 -39 4 -68 34 -67 35 -91 -61z"/>
</g>
</svg>
