<?xml version="1.0" standalone="no"?>
<!DOCTYPE svg PUBLIC "-//W3C//DTD SVG 20010904//EN"
 "http://www.w3.org/TR/2001/REC-SVG-20010904/DTD/svg10.dtd">
<svg version="1.0" xmlns="http://www.w3.org/2000/svg"
 width="33.000000pt" height="74.000000pt" viewBox="0 0 33.000000 74.000000"
 preserveAspectRatio="xMidYMid meet">
<metadata>
Created by potrace 1.14, written by Peter Selinger 2001-2017
</metadata>
<g transform="translate(0.000000,74.000000) scale(0.100000,-0.100000)"
fill="#000000" stroke="none">
<path fill="#000000" stroke="none" d="M73 640 l-72 -99 15 -51 c11 -38 16
-108 17 -269 l2 -218 77 61 c42 34 77 66 77 71 1 6 22 31 47 55 65 64 67 71
44 125 -11 26 -20 48 -20 50 0 1 16 6 35 9 34 7 35 8 35 57 0 43 -5 57 -35 93
-19 24 -49 73 -66 111 -26 59 -62 105 -79 104 -3 0 -37 -45 -77 -99z"/>
</g>
</svg>
