<?xml version="1.0" standalone="no"?>
<!DOCTYPE svg PUBLIC "-//W3C//DTD SVG 20010904//EN"
 "http://www.w3.org/TR/2001/REC-SVG-20010904/DTD/svg10.dtd">
<svg version="1.0" xmlns="http://www.w3.org/2000/svg"
 width="46.000000pt" height="113.000000pt" viewBox="0 0 46.000000 113.000000"
 preserveAspectRatio="xMidYMid meet">
<metadata>
Created by potrace 1.14, written by Peter Selinger 2001-2017
</metadata>
<g transform="translate(0.000000,113.000000) scale(0.100000,-0.100000)"
fill="#000000" stroke="none">
<path fill="#000000" stroke="none" d="M328 1105 c-20 -14 -41 -32 -46 -40 -7
-13 -14 -14 -36 -5 -15 5 -51 10 -80 10 -43 0 -61 -6 -93 -29 -71 -51 -96
-144 -48 -175 24 -16 33 -30 49 -83 6 -20 4 -23 -19 -23 -18 0 -24 -4 -18 -12
4 -7 6 -39 4 -70 -2 -49 0 -58 14 -58 14 0 15 -9 10 -72 -9 -112 -14 -136 -30
-142 -23 -8 -21 -235 2 -283 21 -45 86 -93 127 -93 17 0 39 -7 50 -15 14 -10
48 -14 132 -13 l114 0 0 564 0 564 -48 0 c-34 0 -58 -7 -84 -25z"/>
</g>
</svg>
