<?xml version="1.0" standalone="no"?>
<!DOCTYPE svg PUBLIC "-//W3C//DTD SVG 20010904//EN"
 "http://www.w3.org/TR/2001/REC-SVG-20010904/DTD/svg10.dtd">
<svg version="1.0" xmlns="http://www.w3.org/2000/svg"
 width="161.000000pt" height="457.000000pt" viewBox="0 0 161.000000 457.000000"
 preserveAspectRatio="xMidYMid meet">
<metadata>
Created by potrace 1.14, written by Peter Selinger 2001-2017
</metadata>
<g transform="translate(0.000000,457.000000) scale(0.100000,-0.100000)"
fill="#000000" stroke="none">
<path fill="#000000" stroke="none" d="M1435 4537 c-88 -16 -161 -30 -162 -31
-1 -1 -20 -110 -43 -241 l-40 -240 41 -200 41 -201 -46 -154 c-40 -135 -54
-166 -103 -237 -48 -71 -68 -90 -152 -146 -84 -56 -116 -70 -261 -116 -244
-78 -384 -136 -472 -198 l-78 -54 0 -73 c0 -59 -13 -119 -76 -341 l-76 -270
-5 -170 -5 -170 41 -25 c36 -22 42 -31 66 -110 15 -47 51 -147 81 -223 71
-180 73 -191 41 -225 l-25 -27 14 -94 c8 -52 16 -97 19 -99 2 -3 28 2 57 10
l53 15 57 -455 c31 -250 59 -457 62 -459 2 -3 252 -2 554 2 l549 8 7 371 c21
1229 37 3243 29 3691 l-8 490 -160 -28z"/>
</g>
</svg>
