<?xml version="1.0" standalone="no"?>
<!DOCTYPE svg PUBLIC "-//W3C//DTD SVG 20010904//EN"
 "http://www.w3.org/TR/2001/REC-SVG-20010904/DTD/svg10.dtd">
<svg version="1.0" xmlns="http://www.w3.org/2000/svg"
 width="96.000000pt" height="240.000000pt" viewBox="0 0 96.000000 240.000000"
 preserveAspectRatio="xMidYMid meet">
<metadata>
Created by potrace 1.14, written by Peter Selinger 2001-2017
</metadata>
<g transform="translate(0.000000,240.000000) scale(0.100000,-0.100000)"
fill="#000000" stroke="none">
<path fill="#000000" stroke="none" d="M717 2376 c-15 -23 -24 -26 -71 -26
-51 0 -55 -2 -103 -53 -44 -46 -53 -63 -67 -126 -19 -85 -14 -147 20 -240 31
-83 25 -152 -18 -194 -19 -19 -35 -27 -48 -24 -38 10 -132 -27 -252 -100 -74
-44 -159 -157 -164 -217 -2 -23 -5 -173 -8 -334 l-5 -292 30 0 29 0 0 -87 0
-86 49 -77 49 -76 8 -145 c6 -130 9 -150 34 -199 l28 -56 94 9 c131 12 278 5
289 -14 25 -41 26 -41 48 -29 17 9 26 9 38 -2 13 -11 18 -9 32 12 39 60 68 71
137 51 l31 -9 13 157 c12 151 12 157 -8 191 -15 26 -29 96 -53 262 l-33 227
26 48 c56 107 66 149 78 338 6 99 14 199 17 222 l6 42 -76 48 c-42 26 -84 53
-94 59 -17 11 -17 13 5 42 12 17 22 34 22 38 0 3 20 28 44 55 27 30 58 82 81
136 34 81 36 93 31 156 -11 126 -86 242 -170 263 -15 3 -32 17 -40 31 l-13 25
-16 -26z"/>
</g>
</svg>
