<?xml version="1.0" standalone="no"?>
<!DOCTYPE svg PUBLIC "-//W3C//DTD SVG 20010904//EN"
 "http://www.w3.org/TR/2001/REC-SVG-20010904/DTD/svg10.dtd">
<svg version="1.0" xmlns="http://www.w3.org/2000/svg"
 width="41.000000pt" height="113.000000pt" viewBox="0 0 41.000000 113.000000"
 preserveAspectRatio="xMidYMid meet">
<metadata>
Created by potrace 1.14, written by Peter Selinger 2001-2017
</metadata>
<g transform="translate(0.000000,113.000000) scale(0.100000,-0.100000)"
fill="#000000" stroke="none">
<path fill="#000000" stroke="none" d="M194 1082 l-52 -47 14 -45 c19 -63 18
-67 -20 -74 -26 -5 -48 -22 -86 -66 -29 -33 -48 -60 -43 -60 4 0 16 -7 26 -15
18 -13 18 -17 2 -96 l-17 -83 28 -22 c19 -16 32 -41 44 -86 10 -35 23 -84 31
-110 12 -42 11 -58 -8 -140 -12 -51 -24 -123 -27 -159 -7 -73 -3 -79 53 -79
l27 0 -4 93 c-3 70 0 106 14 152 l19 60 3 -47 c2 -26 -1 -63 -7 -83 -12 -45
14 -137 39 -133 16 3 26 79 29 220 1 74 25 164 58 213 8 12 13 50 13 102 0 73
2 82 20 88 14 4 20 15 20 35 0 19 7 33 19 40 19 10 19 12 -11 80 -21 48 -41
76 -60 88 -30 18 -34 36 -18 91 9 31 6 40 -21 83 -17 26 -32 48 -33 48 0 -1
-24 -22 -52 -48z"/>
</g>
</svg>
