<?xml version="1.0" standalone="no"?>
<!DOCTYPE svg PUBLIC "-//W3C//DTD SVG 20010904//EN"
 "http://www.w3.org/TR/2001/REC-SVG-20010904/DTD/svg10.dtd">
<svg version="1.0" xmlns="http://www.w3.org/2000/svg"
 width="16.000000pt" height="45.000000pt" viewBox="0 0 16.000000 45.000000"
 preserveAspectRatio="xMidYMid meet">
<metadata>
Created by potrace 1.14, written by Peter Selinger 2001-2017
</metadata>
<g transform="translate(0.000000,45.000000) scale(0.100000,-0.100000)"
fill="#000000" stroke="none">
<path fill="#000000" stroke="none" d="M19 438 c-20 -14 -8 -119 20 -179 16
-33 20 -59 19 -124 -2 -63 2 -88 15 -108 18 -28 47 -36 47 -14 0 7 9 20 20 30
27 22 27 95 2 128 -12 15 -22 50 -26 89 -5 51 -11 69 -28 82 -18 13 -22 25
-19 54 4 47 -17 65 -50 42z"/>
</g>
</svg>
