<?xml version="1.0" standalone="no"?>
<!DOCTYPE svg PUBLIC "-//W3C//DTD SVG 20010904//EN"
 "http://www.w3.org/TR/2001/REC-SVG-20010904/DTD/svg10.dtd">
<svg version="1.0" xmlns="http://www.w3.org/2000/svg"
 width="43.000000pt" height="105.000000pt" viewBox="0 0 43.000000 105.000000"
 preserveAspectRatio="xMidYMid meet">
<metadata>
Created by potrace 1.14, written by Peter Selinger 2001-2017
</metadata>
<g transform="translate(0.000000,105.000000) scale(0.100000,-0.100000)"
fill="#000000" stroke="none">
<path fill="#000000" stroke="none" d="M150 1032 c-42 -21 -50 -59 -26 -130
20 -58 20 -59 -7 -66 -22 -5 -25 -15 -46 -163 -12 -87 -34 -197 -48 -244 -25
-85 -25 -88 -8 -130 11 -30 34 -58 70 -87 l54 -42 3 -77 3 -77 33 -7 c17 -3
32 -5 32 -3 0 2 -7 22 -16 44 -16 40 -16 41 10 79 15 21 38 48 51 59 21 18 25
31 25 77 0 69 34 140 90 191 l40 36 0 99 c0 59 4 99 10 99 18 0 11 66 -14 131
-24 63 -24 64 -65 67 -32 3 -41 7 -41 22 0 10 -5 41 -11 68 -10 48 -12 50 -54
61 -54 13 -44 14 -85 -7z"/>
</g>
</svg>
