<?xml version="1.0" standalone="no"?>
<!DOCTYPE svg PUBLIC "-//W3C//DTD SVG 20010904//EN"
 "http://www.w3.org/TR/2001/REC-SVG-20010904/DTD/svg10.dtd">
<svg version="1.0" xmlns="http://www.w3.org/2000/svg"
 width="44.000000pt" height="101.000000pt" viewBox="0 0 44.000000 101.000000"
 preserveAspectRatio="xMidYMid meet">
<metadata>
Created by potrace 1.14, written by Peter Selinger 2001-2017
</metadata>
<g transform="translate(0.000000,101.000000) scale(0.100000,-0.100000)"
fill="#000000" stroke="none">
<path fill="#000000" stroke="none" d="M41 945 c-50 -79 -55 -138 -17 -213 13
-26 27 -63 31 -82 10 -46 60 -137 99 -178 24 -25 30 -40 28 -66 -2 -24 6 -48
27 -83 36 -59 37 -63 13 -63 -10 0 -22 -3 -25 -7 -12 -11 47 -56 105 -79 l58
-22 34 46 c25 34 36 62 41 102 6 52 4 61 -45 160 -56 114 -57 116 -45 270 7
101 7 107 -18 155 -38 75 -62 93 -151 110 -43 8 -81 15 -86 15 -5 0 -27 -29
-49 -65z"/>
<path fill="#000000" stroke="none" d="M98 253 c6 -2 18 -2 25 0 6 3 1 5 -13
5 -14 0 -19 -2 -12 -5z"/>
<path fill="#000000" stroke="none" d="M40 39 l-20 -39 89 0 c84 0 89 1 95 23
8 32 7 37 -7 31 -7 -2 -41 2 -75 10 l-62 14 -20 -39z"/>
</g>
</svg>
