<?xml version="1.0" standalone="no"?>
<!DOCTYPE svg PUBLIC "-//W3C//DTD SVG 20010904//EN"
 "http://www.w3.org/TR/2001/REC-SVG-20010904/DTD/svg10.dtd">
<svg version="1.0" xmlns="http://www.w3.org/2000/svg"
 width="105.000000pt" height="270.000000pt" viewBox="0 0 105.000000 270.000000"
 preserveAspectRatio="xMidYMid meet">
<metadata>
Created by potrace 1.14, written by Peter Selinger 2001-2017
</metadata>
<g transform="translate(0.000000,270.000000) scale(0.100000,-0.100000)"
fill="#000000" stroke="none">
<path fill="#000000" stroke="none" d="M259 2683 c-28 -11 -38 -22 -43 -45 -9
-47 -7 -94 6 -125 6 -15 12 -41 14 -57 3 -49 46 -125 74 -132 14 -4 33 -13 42
-22 16 -14 14 -18 -31 -67 -45 -50 -48 -58 -54 -122 -4 -37 -7 -86 -7 -107 l0
-40 -31 32 c-17 17 -36 29 -45 25 -8 -3 -14 -7 -14 -8 0 -4 94 -160 113 -187
9 -13 6 -20 -14 -37 -13 -11 -32 -20 -43 -21 -15 0 -16 -3 -6 -15 11 -13 7
-15 -29 -15 -22 0 -59 7 -80 16 -22 9 -46 14 -53 11 -9 -4 -9 -6 2 -7 8 0 23
-12 33 -26 18 -24 18 -26 2 -44 -10 -11 -27 -23 -39 -27 -20 -6 -20 -7 4 -14
14 -4 64 -7 113 -8 77 -1 92 2 127 24 48 30 44 30 80 4 l28 -21 -19 -45 c-17
-40 -18 -48 -4 -100 8 -32 15 -87 15 -124 0 -44 14 -124 44 -245 57 -231 73
-320 85 -479 9 -112 8 -140 -7 -200 l-17 -70 -85 -35 c-105 -43 -110 -47 -110
-71 0 -27 83 -76 145 -84 27 -4 79 -14 113 -22 l64 -16 24 25 25 24 -17 93
c-16 88 -16 96 0 147 9 30 20 54 24 54 4 0 35 -59 70 -132 l62 -132 -55 -56
c-66 -66 -72 -101 -27 -150 l27 -31 85 16 c47 8 110 23 141 32 l57 18 -52 160
c-29 88 -62 179 -74 202 -17 32 -22 60 -22 113 0 64 -5 81 -49 175 -37 78 -56
136 -76 234 l-27 129 72 128 72 127 -5 81 c-9 133 -14 179 -26 224 -11 38 -18
45 -72 72 l-60 31 7 48 c5 41 2 56 -19 92 -13 24 -28 56 -31 72 -6 27 -6 27
48 27 l53 0 7 58 c6 55 4 62 -59 197 -36 77 -65 145 -65 152 0 7 -4 13 -9 13
-5 0 -21 25 -35 55 -17 38 -36 61 -60 76 -29 17 -37 29 -47 75 -18 78 -43 94
-146 93 -44 -1 -94 -7 -114 -16z"/>
<path fill="#000000" stroke="none" d="M2 1680 c0 -14 2 -19 5 -12 2 6 2 18 0
25 -3 6 -5 1 -5 -13z"/>
</g>
</svg>
