<?xml version="1.0" standalone="no"?>
<!DOCTYPE svg PUBLIC "-//W3C//DTD SVG 20010904//EN"
 "http://www.w3.org/TR/2001/REC-SVG-20010904/DTD/svg10.dtd">
<svg version="1.0" xmlns="http://www.w3.org/2000/svg"
 width="149.000000pt" height="347.000000pt" viewBox="0 0 149.000000 347.000000"
 preserveAspectRatio="xMidYMid meet">
<metadata>
Created by potrace 1.14, written by Peter Selinger 2001-2017
</metadata>
<g transform="translate(0.000000,347.000000) scale(0.100000,-0.100000)"
fill="#000000" stroke="none">
<path fill="#000000" stroke="none" d="M1070 3450 c-119 -27 -144 -43 -184
-120 -28 -54 -37 -82 -42 -148 -6 -75 -5 -87 19 -140 15 -32 28 -73 29 -92 l3
-34 -170 -86 c-240 -120 -381 -218 -554 -386 -78 -76 -149 -150 -157 -166 -13
-26 -13 -31 12 -67 29 -44 28 -69 -7 -145 -23 -51 -24 -127 -2 -192 9 -27 47
-90 83 -139 83 -112 77 -101 140 -270 43 -114 61 -148 96 -185 l42 -45 -22
-60 c-13 -33 -44 -107 -69 -165 l-45 -105 -29 -264 c-30 -279 -28 -274 -83
-285 -23 -5 -28 -17 -61 -145 l-36 -140 131 -32 c108 -26 158 -32 287 -36
l155 -6 18 66 c10 36 15 71 11 76 -3 6 -48 45 -100 85 -130 104 -145 126 -145
210 0 65 2 69 59 154 53 80 65 108 134 322 l75 235 -23 125 c-12 69 -22 126
-21 126 0 1 20 -15 44 -35 36 -32 49 -54 87 -154 33 -86 52 -124 76 -145 l33
-29 -3 -192 -3 -191 27 -46 c19 -32 29 -67 34 -119 6 -70 6 -74 -20 -103 -23
-26 -27 -41 -34 -126 -4 -54 -5 -99 -3 -102 3 -2 88 -15 189 -28 167 -22 422
-37 432 -26 2 3 7 29 10 58 l6 52 -77 39 c-59 30 -90 53 -132 102 -30 35 -58
66 -63 67 -4 2 -29 21 -55 42 -46 36 -49 41 -58 103 -8 56 -7 71 7 99 16 31
16 48 -2 296 -19 253 -21 267 -51 340 l-32 76 -97 45 c-84 38 -98 48 -101 72
-4 25 -2 26 20 18 30 -12 72 -12 72 0 0 5 -7 17 -16 26 -16 15 -16 19 -1 49
l15 33 -84 162 c-46 89 -90 171 -98 183 -14 20 -13 23 31 50 25 16 46 28 47
26 2 -2 19 -43 40 -93 21 -49 60 -127 87 -171 27 -45 49 -89 49 -98 0 -28 26
-29 79 -1 l52 26 -7 52 c-6 53 -29 181 -40 229 l-6 27 58 -14 c33 -8 62 -11
65 -7 3 4 19 86 34 182 15 96 41 230 57 298 l30 122 -22 55 c-17 42 -34 63
-76 95 -53 40 -66 66 -46 98 7 9 16 10 40 1 57 -20 86 1 116 82 23 61 26 86
26 189 l0 118 45 29 c25 15 45 33 45 40 0 7 -14 28 -31 48 -29 33 -35 35 -91
35 -55 0 -64 3 -116 43 l-57 44 -75 -17z"/>
</g>
</svg>
