<?xml version="1.0" standalone="no"?>
<!DOCTYPE svg PUBLIC "-//W3C//DTD SVG 20010904//EN"
 "http://www.w3.org/TR/2001/REC-SVG-20010904/DTD/svg10.dtd">
<svg version="1.0" xmlns="http://www.w3.org/2000/svg"
 width="130.000000pt" height="294.000000pt" viewBox="0 0 130.000000 294.000000"
 preserveAspectRatio="xMidYMid meet">
<metadata>
Created by potrace 1.14, written by Peter Selinger 2001-2017
</metadata>
<g transform="translate(0.000000,294.000000) scale(0.100000,-0.100000)"
fill="#000000" stroke="none">
<path fill="#000000" stroke="none" d="M650 2931 c-35 -11 -80 -36 -113 -64
-37 -31 -46 -75 -47 -217 0 -89 4 -121 16 -138 13 -19 14 -31 4 -76 l-11 -54
-102 -36 c-61 -22 -115 -49 -134 -66 -35 -32 -161 -226 -210 -325 -43 -84 -56
-191 -51 -410 3 -164 5 -184 26 -222 13 -26 29 -43 40 -43 12 0 25 -17 39 -49
21 -51 62 -86 113 -97 40 -9 67 -59 68 -128 1 -32 6 -113 12 -180 24 -280 50
-673 50 -747 0 -43 3 -79 8 -79 14 0 181 414 171 424 -19 20 -7 43 51 101 56
55 110 145 110 182 0 7 10 27 21 43 l22 28 72 -54 c39 -30 76 -54 81 -54 5 0
26 49 46 109 35 109 36 110 16 130 -10 12 -27 21 -36 21 -25 0 -55 55 -46 83
4 12 19 36 34 53 15 17 40 67 55 110 62 175 122 293 231 459 18 28 52 94 75
149 41 97 42 99 29 155 -7 31 -38 103 -68 161 -109 204 -149 240 -267 240
l-65 0 0 38 c0 39 -7 56 -26 63 -8 3 -4 29 13 84 21 69 24 93 19 180 -6 121
-27 197 -61 219 -26 17 -137 21 -185 7z"/>
</g>
</svg>
