<?xml version="1.0" standalone="no"?>
<!DOCTYPE svg PUBLIC "-//W3C//DTD SVG 20010904//EN"
 "http://www.w3.org/TR/2001/REC-SVG-20010904/DTD/svg10.dtd">
<svg version="1.0" xmlns="http://www.w3.org/2000/svg"
 width="29.000000pt" height="75.000000pt" viewBox="0 0 29.000000 75.000000"
 preserveAspectRatio="xMidYMid meet">
<metadata>
Created by potrace 1.14, written by Peter Selinger 2001-2017
</metadata>
<g transform="translate(0.000000,75.000000) scale(0.100000,-0.100000)"
fill="#000000" stroke="none">
<path fill="#000000" stroke="none" d="M97 613 c-14 -76 -38 -235 -52 -353
-14 -118 -30 -223 -35 -232 -6 -10 -10 -20 -10 -23 0 -3 57 -5 126 -5 l127 0
-6 78 c-4 56 1 124 19 245 13 93 24 177 24 186 0 11 -15 25 -39 36 -35 15 -41
23 -52 69 -9 40 -60 136 -72 136 -2 0 -15 -62 -30 -137z"/>
</g>
</svg>
