<?xml version="1.0" standalone="no"?>
<!DOCTYPE svg PUBLIC "-//W3C//DTD SVG 20010904//EN"
 "http://www.w3.org/TR/2001/REC-SVG-20010904/DTD/svg10.dtd">
<svg version="1.0" xmlns="http://www.w3.org/2000/svg"
 width="28.000000pt" height="67.000000pt" viewBox="0 0 28.000000 67.000000"
 preserveAspectRatio="xMidYMid meet">
<metadata>
Created by potrace 1.14, written by Peter Selinger 2001-2017
</metadata>
<g transform="translate(0.000000,67.000000) scale(0.100000,-0.100000)"
fill="#000000" stroke="none">
<path fill="#000000" stroke="none" d="M58 641 c-44 -28 -46 -31 -51 -87 -4
-54 -2 -64 28 -113 l33 -54 -25 -22 -25 -21 88 -25 89 -24 40 -149 40 -148 3
168 c3 180 4 174 -48 204 -12 7 -12 13 -2 35 9 19 11 54 6 116 l-7 89 -52 30
c-29 17 -57 30 -62 30 -5 0 -30 -13 -55 -29z"/>
</g>
</svg>
