<?xml version="1.0" standalone="no"?>
<!DOCTYPE svg PUBLIC "-//W3C//DTD SVG 20010904//EN"
 "http://www.w3.org/TR/2001/REC-SVG-20010904/DTD/svg10.dtd">
<svg version="1.0" xmlns="http://www.w3.org/2000/svg"
 width="157.000000pt" height="392.000000pt" viewBox="0 0 157.000000 392.000000"
 preserveAspectRatio="xMidYMid meet">
<metadata>
Created by potrace 1.14, written by Peter Selinger 2001-2017
</metadata>
<g transform="translate(0.000000,392.000000) scale(0.100000,-0.100000)"
fill="#000000" stroke="none">
<path fill="#000000" stroke="none" d="M524 3875 c-29 -23 -63 -51 -77 -62
l-26 -20 64 -217 63 -216 -155 -128 -155 -127 -119 -325 -119 -325 47 -102 46
-103 79 0 c95 0 116 -10 110 -54 -9 -58 -66 -73 -136 -35 l-39 20 6 -23 c3
-13 9 -42 13 -66 5 -33 10 -41 23 -38 9 3 46 12 82 21 36 9 70 20 76 23 6 4
19 97 29 222 l19 215 51 60 c27 33 55 59 60 58 5 -2 34 -103 65 -225 l55 -223
-23 -145 c-21 -136 -23 -170 -20 -552 2 -358 4 -409 18 -420 9 -7 24 -50 33
-96 9 -45 58 -200 108 -345 l91 -262 4 -159 4 -159 -33 -35 -33 -35 210 7
c116 3 270 9 342 13 l133 6 5 31 c3 17 2 130 -3 251 -6 179 -3 306 16 685 19
385 22 528 18 830 -6 364 -6 365 -41 550 -19 102 -35 193 -35 203 0 17 6 18
74 12 l74 -7 12 58 c7 33 15 74 19 93 5 28 -9 81 -79 285 l-86 250 -116 96
c-112 94 -118 97 -239 138 l-124 43 3 73 c4 73 4 75 -49 169 l-53 95 -110 17
c-61 9 -115 18 -121 20 -5 1 -33 -17 -61 -40z"/>
<path fill="#ffffff" stroke="none" d="M705 3230 c-3 -5 10 -17 30 -27 24 -11
31 -19 23 -25 -23 -14 -75 -9 -82 8 -10 27 -7 42 12 47 9 3 18 5 20 6 2 0 0
-3 -3 -9z"/>
<path fill="#ffffff" stroke="none" d="M1014 2964 c4 -15 2 -32 -3 -37 -15
-15 -61 8 -61 31 0 24 8 32 36 32 15 0 24 -8 28 -26z"/>
</g>
</svg>
