<?xml version="1.0" standalone="no"?>
<!DOCTYPE svg PUBLIC "-//W3C//DTD SVG 20010904//EN"
 "http://www.w3.org/TR/2001/REC-SVG-20010904/DTD/svg10.dtd">
<svg version="1.0" xmlns="http://www.w3.org/2000/svg"
 width="34.000000pt" height="81.000000pt" viewBox="0 0 34.000000 81.000000"
 preserveAspectRatio="xMidYMid meet">
<metadata>
Created by potrace 1.14, written by Peter Selinger 2001-2017
</metadata>
<g transform="translate(0.000000,81.000000) scale(0.100000,-0.100000)"
fill="#000000" stroke="none">
<path fill="#000000" stroke="none" d="M162 800 c-77 -33 -136 -122 -151 -228
-7 -50 -6 -55 21 -82 27 -28 28 -30 17 -77 -6 -26 -17 -128 -23 -225 l-11
-176 43 -7 c82 -12 97 15 123 221 l11 90 74 60 73 59 1 163 0 163 -47 20 c-59
26 -101 32 -131 19z"/>
</g>
</svg>
