<?xml version="1.0" standalone="no"?>
<!DOCTYPE svg PUBLIC "-//W3C//DTD SVG 20010904//EN"
 "http://www.w3.org/TR/2001/REC-SVG-20010904/DTD/svg10.dtd">
<svg version="1.0" xmlns="http://www.w3.org/2000/svg"
 width="51.000000pt" height="138.000000pt" viewBox="0 0 51.000000 138.000000"
 preserveAspectRatio="xMidYMid meet">
<metadata>
Created by potrace 1.14, written by Peter Selinger 2001-2017
</metadata>
<g transform="translate(0.000000,138.000000) scale(0.100000,-0.100000)"
fill="#000000" stroke="none">
<path fill="#000000" stroke="none" d="M0 691 l0 -691 47 0 c45 0 300 79 331
103 6 5 12 25 12 43 0 37 4 35 -108 54 -62 11 -132 37 -132 50 0 3 25 21 56
40 39 23 61 45 71 68 l14 34 55 -7 c49 -6 60 -4 95 19 40 27 43 33 57 132 13
94 -27 452 -58 519 -20 45 -23 63 -21 176 l2 127 -98 6 c-54 3 -149 8 -210 12
l-113 6 0 -691z"/>
</g>
</svg>
