<?xml version="1.0" standalone="no"?>
<!DOCTYPE svg PUBLIC "-//W3C//DTD SVG 20010904//EN"
 "http://www.w3.org/TR/2001/REC-SVG-20010904/DTD/svg10.dtd">
<svg version="1.0" xmlns="http://www.w3.org/2000/svg"
 width="78.000000pt" height="194.000000pt" viewBox="0 0 78.000000 194.000000"
 preserveAspectRatio="xMidYMid meet">
<metadata>
Created by potrace 1.14, written by Peter Selinger 2001-2017
</metadata>
<g transform="translate(0.000000,194.000000) scale(0.100000,-0.100000)"
fill="#000000" stroke="none">
<path fill="#000000" stroke="none" d="M377 1928 c-51 -14 -78 -56 -71 -112 7
-51 -6 -69 -71 -104 -39 -21 -57 -39 -79 -80 -45 -84 -79 -223 -80 -325 -1
-48 -3 -87 -6 -87 -3 0 -12 21 -20 48 -14 44 -15 45 -18 17 -2 -16 -10 -45
-18 -63 -8 -18 -14 -45 -12 -60 3 -24 8 -27 45 -30 41 -3 42 -2 54 37 7 23 23
48 36 56 l23 15 0 -72 c0 -44 -8 -99 -20 -138 -27 -87 -26 -100 5 -100 14 0
25 -3 26 -7 0 -5 4 -73 8 -153 8 -138 10 -148 43 -215 20 -38 41 -97 48 -130
6 -33 20 -72 31 -87 14 -21 19 -44 19 -100 1 -78 16 -217 25 -227 3 -3 29 -4
58 -3 61 3 74 14 109 97 23 54 27 82 38 291 7 128 10 236 6 242 -7 12 29 217
55 306 18 61 20 87 15 225 -6 149 -5 153 8 96 8 -33 22 -77 31 -98 25 -59 31
-158 12 -193 -15 -27 -37 -117 -37 -151 0 -23 28 2 33 30 4 22 4 22 6 -1 0
-12 -6 -34 -15 -47 -23 -36 -4 -31 44 11 l42 36 0 71 c0 40 7 97 15 127 19 69
19 123 1 208 -8 37 -17 120 -20 186 -4 108 -7 121 -29 145 -13 14 -34 40 -46
58 -12 17 -31 33 -44 35 -15 2 -23 11 -25 28 -2 13 -12 30 -23 38 -10 7 -26
38 -35 68 -28 98 -83 134 -167 112z"/>
</g>
</svg>
