<?xml version="1.0" standalone="no"?>
<!DOCTYPE svg PUBLIC "-//W3C//DTD SVG 20010904//EN"
 "http://www.w3.org/TR/2001/REC-SVG-20010904/DTD/svg10.dtd">
<svg version="1.0" xmlns="http://www.w3.org/2000/svg"
 width="26.000000pt" height="61.000000pt" viewBox="0 0 26.000000 61.000000"
 preserveAspectRatio="xMidYMid meet">
<metadata>
Created by potrace 1.14, written by Peter Selinger 2001-2017
</metadata>
<g transform="translate(0.000000,61.000000) scale(0.100000,-0.100000)"
fill="#000000" stroke="none">
<path fill="#000000" stroke="none" d="M138 597 c-36 -10 -48 -27 -48 -71 0
-11 -20 -38 -45 -60 l-45 -41 20 -65 c13 -43 20 -95 21 -155 0 -49 4 -112 7
-140 6 -45 10 -50 32 -50 24 0 25 2 34 103 8 90 11 102 27 102 17 0 19 -9 19
-95 0 -94 0 -95 29 -109 29 -15 29 -15 35 17 3 18 12 95 21 172 l16 139 -25
91 c-14 49 -30 109 -36 133 -6 23 -14 41 -18 41 -4 -1 -24 -6 -44 -12z"/>
</g>
</svg>
