<?xml version="1.0" standalone="no"?>
<!DOCTYPE svg PUBLIC "-//W3C//DTD SVG 20010904//EN"
 "http://www.w3.org/TR/2001/REC-SVG-20010904/DTD/svg10.dtd">
<svg version="1.0" xmlns="http://www.w3.org/2000/svg"
 width="37.000000pt" height="92.000000pt" viewBox="0 0 37.000000 92.000000"
 preserveAspectRatio="xMidYMid meet">
<metadata>
Created by potrace 1.14, written by Peter Selinger 2001-2017
</metadata>
<g transform="translate(0.000000,92.000000) scale(0.100000,-0.100000)"
fill="#000000" stroke="none">
<path fill="#000000" stroke="none" d="M119 892 c-44 -28 -60 -53 -74 -116 -3
-16 -15 -41 -26 -54 -24 -31 -24 -77 0 -126 18 -34 18 -41 5 -78 -7 -22 -11
-50 -8 -62 3 -12 1 -47 -4 -79 l-9 -58 106 3 106 3 3 -52 3 -53 32 16 c18 9
51 28 74 43 l43 26 0 145 c0 95 -4 150 -11 157 -8 8 -9 20 -1 42 21 59 -44
232 -94 251 -63 24 -97 22 -145 -8z"/>
<path fill="#000000" stroke="none" d="M265 186 c-33 -11 -61 -21 -62 -21 -1
0 -4 -37 -8 -82 l-7 -82 67 22 c75 24 79 29 90 125 8 71 11 70 -80 38z"/>
</g>
</svg>
