<?xml version="1.0" standalone="no"?>
<!DOCTYPE svg PUBLIC "-//W3C//DTD SVG 20010904//EN"
 "http://www.w3.org/TR/2001/REC-SVG-20010904/DTD/svg10.dtd">
<svg version="1.0" xmlns="http://www.w3.org/2000/svg"
 width="21.000000pt" height="54.000000pt" viewBox="0 0 21.000000 54.000000"
 preserveAspectRatio="xMidYMid meet">
<metadata>
Created by potrace 1.14, written by Peter Selinger 2001-2017
</metadata>
<g transform="translate(0.000000,54.000000) scale(0.100000,-0.100000)"
fill="#000000" stroke="none">
<path fill="#000000" stroke="none" d="M97 522 c-10 -10 -17 -30 -17 -44 0
-14 -7 -31 -15 -38 -11 -9 -15 -33 -15 -89 0 -62 -5 -85 -25 -123 -17 -32 -25
-63 -25 -95 0 -44 4 -53 43 -91 35 -34 50 -42 80 -42 57 0 66 22 72 184 3 84
1 145 -5 157 -8 14 -6 27 5 48 19 39 19 100 -1 129 -19 28 -74 30 -97 4z"/>
</g>
</svg>
