<?xml version="1.0" standalone="no"?>
<!DOCTYPE svg PUBLIC "-//W3C//DTD SVG 20010904//EN"
 "http://www.w3.org/TR/2001/REC-SVG-20010904/DTD/svg10.dtd">
<svg version="1.0" xmlns="http://www.w3.org/2000/svg"
 width="104.000000pt" height="284.000000pt" viewBox="0 0 104.000000 284.000000"
 preserveAspectRatio="xMidYMid meet">
<metadata>
Created by potrace 1.14, written by Peter Selinger 2001-2017
</metadata>
<g transform="translate(0.000000,284.000000) scale(0.100000,-0.100000)"
fill="#000000" stroke="none">
<path fill="#000000" stroke="none" d="M723 2808 l-62 -32 -17 -75 c-17 -77
-13 -179 7 -191 5 -4 -26 -23 -68 -43 -78 -37 -185 -106 -228 -147 -13 -12
-30 -49 -40 -83 -9 -34 -26 -89 -38 -122 -11 -33 -28 -96 -37 -140 -10 -44
-49 -160 -88 -258 -38 -97 -67 -179 -63 -182 4 -2 43 -98 85 -212 43 -114 100
-267 127 -339 27 -72 49 -137 49 -143 0 -7 -22 -50 -48 -95 -27 -45 -84 -171
-128 -280 -72 -183 -81 -200 -111 -214 -33 -16 -42 -33 -59 -118 l-6 -29 94
-23 c196 -47 416 -82 521 -82 27 0 24 66 -3 75 -12 4 -26 2 -33 -3 -8 -6 -25
-5 -47 3 -29 10 -38 20 -53 61 -10 27 -24 56 -31 64 -8 8 -11 21 -9 27 3 7 -6
17 -20 22 -14 5 -27 21 -31 35 -8 32 62 229 102 288 40 59 82 143 82 166 0 11
7 26 17 33 17 15 73 126 73 146 0 6 9 18 20 26 16 11 22 40 40 183 23 194 25
254 9 254 -9 0 -9 17 -3 63 5 34 9 127 9 207 1 188 -1 182 29 170 22 -8 26 -5
42 33 12 28 23 106 34 227 15 157 15 190 4 219 -22 54 -18 77 17 91 40 17 74
53 104 112 14 25 29 48 35 50 9 3 39 155 40 198 0 37 -129 90 -215 89 -24 0
-65 -13 -102 -31z"/>
</g>
</svg>
