<?xml version="1.0" standalone="no"?>
<!DOCTYPE svg PUBLIC "-//W3C//DTD SVG 20010904//EN"
 "http://www.w3.org/TR/2001/REC-SVG-20010904/DTD/svg10.dtd">
<svg version="1.0" xmlns="http://www.w3.org/2000/svg"
 width="19.000000pt" height="48.000000pt" viewBox="0 0 19.000000 48.000000"
 preserveAspectRatio="xMidYMid meet">
<metadata>
Created by potrace 1.14, written by Peter Selinger 2001-2017
</metadata>
<g transform="translate(0.000000,48.000000) scale(0.100000,-0.100000)"
fill="#000000" stroke="none">
<path fill="#000000" stroke="none" d="M44 445 c-25 -34 -26 -39 -29 -191 -2
-85 -6 -158 -9 -161 -13 -13 -5 -61 12 -76 23 -21 75 -22 92 -2 7 9 14 30 14
48 1 18 5 38 10 45 5 8 8 55 8 105 0 78 3 93 20 107 13 10 22 33 25 62 5 40 2
50 -20 72 -40 40 -88 36 -123 -9z"/>
</g>
</svg>
