<?xml version="1.0" standalone="no"?>
<!DOCTYPE svg PUBLIC "-//W3C//DTD SVG 20010904//EN"
 "http://www.w3.org/TR/2001/REC-SVG-20010904/DTD/svg10.dtd">
<svg version="1.0" xmlns="http://www.w3.org/2000/svg"
 width="9.000000pt" height="22.000000pt" viewBox="0 0 9.000000 22.000000"
 preserveAspectRatio="xMidYMid meet">
<metadata>
Created by potrace 1.14, written by Peter Selinger 2001-2017
</metadata>
<g transform="translate(0.000000,22.000000) scale(0.100000,-0.100000)"
fill="#000000" stroke="none">
<path fill="#000000" stroke="none" d="M15 186 c-13 -28 -14 -42 -6 -73 6 -21
11 -53 11 -70 0 -18 4 -33 9 -33 5 0 16 -3 25 -6 13 -5 16 2 16 44 0 28 5 63
12 76 9 21 8 29 -4 43 -8 10 -18 26 -21 36 -10 26 -24 20 -42 -17z"/>
</g>
</svg>
