<?xml version="1.0" standalone="no"?>
<!DOCTYPE svg PUBLIC "-//W3C//DTD SVG 20010904//EN"
 "http://www.w3.org/TR/2001/REC-SVG-20010904/DTD/svg10.dtd">
<svg version="1.0" xmlns="http://www.w3.org/2000/svg"
 width="12.000000pt" height="31.000000pt" viewBox="0 0 12.000000 31.000000"
 preserveAspectRatio="xMidYMid meet">
<metadata>
Created by potrace 1.14, written by Peter Selinger 2001-2017
</metadata>
<g transform="translate(0.000000,31.000000) scale(0.100000,-0.100000)"
fill="#000000" stroke="none">
<path fill="#000000" stroke="none" d="M67 303 c-4 -3 -7 -14 -7 -24 0 -10 -9
-20 -19 -24 -11 -3 -22 -14 -25 -23 -13 -49 -15 -72 -9 -88 5 -14 9 -9 19 22
l13 39 -6 -45 c-11 -81 0 -146 25 -152 15 -4 21 6 34 51 9 31 19 84 22 117 6
52 3 67 -15 98 -23 39 -23 39 -32 29z"/>
</g>
</svg>
