<?xml version="1.0" standalone="no"?>
<!DOCTYPE svg PUBLIC "-//W3C//DTD SVG 20010904//EN"
 "http://www.w3.org/TR/2001/REC-SVG-20010904/DTD/svg10.dtd">
<svg version="1.0" xmlns="http://www.w3.org/2000/svg"
 width="33.000000pt" height="91.000000pt" viewBox="0 0 33.000000 91.000000"
 preserveAspectRatio="xMidYMid meet">
<metadata>
Created by potrace 1.14, written by Peter Selinger 2001-2017
</metadata>
<g transform="translate(0.000000,91.000000) scale(0.100000,-0.100000)"
fill="#000000" stroke="none">
<path fill="#000000" stroke="none" d="M68 897 c-26 -21 -44 -72 -58 -168 -15
-104 -7 -175 21 -184 16 -5 19 -16 19 -73 0 -60 16 -158 50 -311 7 -30 10 -74
7 -98 -5 -47 2 -53 74 -56 30 -2 33 1 44 43 7 25 33 100 59 168 28 76 46 139
46 165 0 51 -20 137 -62 272 -30 96 -34 129 -22 187 5 24 1 27 -43 42 -75 24
-116 28 -135 13z"/>
</g>
</svg>
