<?xml version="1.0" standalone="no"?>
<!DOCTYPE svg PUBLIC "-//W3C//DTD SVG 20010904//EN"
 "http://www.w3.org/TR/2001/REC-SVG-20010904/DTD/svg10.dtd">
<svg version="1.0" xmlns="http://www.w3.org/2000/svg"
 width="67.000000pt" height="150.000000pt" viewBox="0 0 67.000000 150.000000"
 preserveAspectRatio="xMidYMid meet">
<metadata>
Created by potrace 1.14, written by Peter Selinger 2001-2017
</metadata>
<g transform="translate(0.000000,150.000000) scale(0.100000,-0.100000)"
fill="#000000" stroke="none">
<path fill="#000000" stroke="none" d="M240 1463 c-67 -48 -95 -110 -85 -189
4 -37 1 -64 -13 -100 -15 -42 -17 -59 -8 -119 21 -156 6 -229 -57 -276 l-32
-23 25 -7 c14 -4 41 -8 60 -8 25 -1 52 -15 95 -47 51 -38 63 -54 82 -106 20
-52 23 -74 18 -133 -6 -67 -39 -165 -57 -165 -11 0 -10 6 6 68 13 49 13 57
-10 130 -31 99 -43 108 -167 117 l-97 7 1 -53 c0 -30 6 -70 13 -89 12 -33 16
-35 56 -35 39 0 44 -3 53 -30 5 -16 17 -34 26 -39 37 -22 169 -159 250 -260
l86 -108 3 40 c4 51 -13 240 -22 249 -4 4 -11 1 -15 -6 -7 -10 -10 -8 -16 9
-9 28 5 289 15 295 5 3 12 -50 16 -117 l8 -123 8 163 c7 138 6 167 -7 192 -18
35 -12 50 35 95 53 50 76 95 84 164 4 35 23 123 42 196 47 182 46 182 -24 243
-52 46 -69 53 -159 76 -134 34 -149 33 -213 -11z"/>
</g>
</svg>
