<?xml version="1.0" standalone="no"?>
<!DOCTYPE svg PUBLIC "-//W3C//DTD SVG 20010904//EN"
 "http://www.w3.org/TR/2001/REC-SVG-20010904/DTD/svg10.dtd">
<svg version="1.0" xmlns="http://www.w3.org/2000/svg"
 width="47.000000pt" height="121.000000pt" viewBox="0 0 47.000000 121.000000"
 preserveAspectRatio="xMidYMid meet">
<metadata>
Created by potrace 1.14, written by Peter Selinger 2001-2017
</metadata>
<g transform="translate(0.000000,121.000000) scale(0.100000,-0.100000)"
fill="#000000" stroke="none">
<path fill="#000000" stroke="none" d="M295 1190 c-5 -16 -10 -18 -25 -10 -20
11 -66 4 -87 -12 -6 -5 -15 -35 -19 -66 -5 -43 -19 -77 -54 -137 -27 -44 -51
-98 -55 -120 -4 -22 -15 -74 -25 -115 -10 -41 -21 -121 -25 -178 -6 -91 -5
-105 10 -122 17 -19 17 -21 2 -38 -10 -10 -17 -28 -17 -40 0 -17 158 -333 175
-350 1 -2 36 6 77 18 40 12 81 24 91 26 15 5 17 21 17 163 l0 157 55 175 c30
95 55 188 55 206 0 43 -41 133 -84 186 -34 42 -34 42 -35 150 -1 60 -4 113 -7
118 -10 17 -43 9 -49 -11z"/>
<path fill="#ffffff" stroke="none" d="M185 963 c-6 -27 -3 -28 35 -8 17 9 42
20 57 25 25 9 26 8 11 -4 -10 -7 -18 -22 -18 -32 1 -41 37 -169 47 -167 6 1
-1 -37 -16 -85 l-27 -87 -49 -3 c-28 -2 -67 2 -89 8 l-39 12 6 62 c3 34 20
107 37 161 19 57 30 112 28 131 -3 27 -1 31 10 22 8 -7 11 -21 7 -35z"/>
</g>
</svg>
