<?xml version="1.0" standalone="no"?>
<!DOCTYPE svg PUBLIC "-//W3C//DTD SVG 20010904//EN"
 "http://www.w3.org/TR/2001/REC-SVG-20010904/DTD/svg10.dtd">
<svg version="1.0" xmlns="http://www.w3.org/2000/svg"
 width="69.000000pt" height="193.000000pt" viewBox="0 0 69.000000 193.000000"
 preserveAspectRatio="xMidYMid meet">
<metadata>
Created by potrace 1.14, written by Peter Selinger 2001-2017
</metadata>
<g transform="translate(0.000000,193.000000) scale(0.100000,-0.100000)"
fill="#000000" stroke="none">
<path fill="#000000" stroke="none" d="M40 1911 c0 -11 -9 -35 -20 -53 -36
-60 -22 -118 54 -226 40 -56 65 -122 106 -277 26 -94 29 -121 21 -152 -16 -64
-32 -272 -31 -408 1 -72 -3 -154 -9 -184 -6 -29 -11 -56 -11 -58 0 -2 -4 -2
-9 1 -12 8 -24 -125 -18 -200 3 -32 28 -124 55 -204 l49 -145 49 -3 49 -2 48
92 c43 85 47 97 41 143 -5 43 -11 54 -38 72 -31 20 -33 26 -70 200 -38 179
-38 179 -22 236 13 46 15 65 6 99 -10 36 -8 50 20 128 32 88 32 89 28 253 l-3
166 42 10 c23 6 48 11 56 11 21 0 64 -69 72 -116 10 -66 61 -215 76 -225 8 -5
28 -9 46 -9 30 0 33 3 48 52 l15 52 -49 70 c-42 61 -81 157 -107 262 -5 21
-174 95 -280 123 -100 26 -109 30 -123 60 -14 29 -13 34 2 60 10 18 17 50 17
83 0 48 -3 57 -29 76 -16 11 -41 24 -55 28 -22 5 -26 3 -26 -15z"/>
</g>
</svg>
