<?xml version="1.0" standalone="no"?>
<!DOCTYPE svg PUBLIC "-//W3C//DTD SVG 20010904//EN"
 "http://www.w3.org/TR/2001/REC-SVG-20010904/DTD/svg10.dtd">
<svg version="1.0" xmlns="http://www.w3.org/2000/svg"
 width="204.000000pt" height="467.000000pt" viewBox="0 0 204.000000 467.000000"
 preserveAspectRatio="xMidYMid meet">
<metadata>
Created by potrace 1.14, written by Peter Selinger 2001-2017
</metadata>
<g transform="translate(0.000000,467.000000) scale(0.100000,-0.100000)"
fill="#000000" stroke="none">
<path fill="#000000" stroke="none" d="M476 4640 c-55 -16 -103 -35 -108 -42
-4 -7 -44 -79 -88 -160 l-80 -146 29 -154 c17 -91 43 -190 64 -243 19 -49 34
-91 33 -91 0 -1 -61 4 -133 10 -73 6 -133 9 -133 6 0 -4 15 -90 34 -193 l35
-187 -65 -157 -64 -156 25 -31 c14 -17 61 -78 105 -136 59 -78 112 -133 208
-215 l129 -110 65 -155 c54 -129 81 -215 157 -510 51 -195 93 -356 95 -357 1
-2 31 104 67 234 l64 237 355 248 c195 137 360 252 367 256 9 5 -25 120 -121
412 l-133 405 -195 130 -195 130 39 84 38 83 0 217 0 217 -76 164 c-42 91 -78
166 -78 167 -3 3 -326 73 -334 72 -4 0 -52 -14 -106 -29z"/>
<path fill="#ffffff" stroke="none" d="M587 3707 c1 -2 0 -13 -4 -25 -7 -28
-70 -62 -113 -62 -38 0 -161 -29 -177 -43 -10 -7 -13 -1 -13 27 0 26 4 36 16
36 15 0 53 14 159 58 34 14 63 19 90 16 21 -3 40 -6 42 -7z"/>
<path fill="#ffffff" stroke="none" d="M900 2822 c66 -16 141 -56 238 -127 1
-1 -14 -76 -33 -166 -20 -90 -38 -174 -40 -186 -3 -12 -17 -35 -31 -52 -23
-28 -31 -31 -83 -31 -31 0 -94 5 -139 10 -73 9 -89 16 -131 48 l-48 37 -13
126 c-16 159 -5 271 33 322 12 17 77 33 142 36 17 0 64 -7 105 -17z"/>
<path fill="#000000" stroke="none" d="M2030 3405 c-1 -5 -3 -17 -5 -25 -5
-27 -77 -133 -125 -185 -100 -108 -112 -129 -176 -304 -42 -115 -42 -152 -4
-301 17 -63 37 -167 45 -230 10 -87 21 -132 46 -185 67 -147 79 -198 86 -361
l6 -152 -103 -188 c-208 -379 -269 -474 -416 -640 l-135 -153 -145 -295 -145
-296 37 -45 38 -45 346 0 c190 0 376 5 415 11 62 8 75 14 110 49 27 27 50 40
68 40 15 0 28 1 28 3 1 1 7 144 13 318 8 232 8 466 1 880 -10 508 -9 585 6
774 15 180 16 230 5 343 -9 104 -9 219 1 549 11 358 12 483 3 438z"/>
</g>
</svg>
