<?xml version="1.0" standalone="no"?>
<!DOCTYPE svg PUBLIC "-//W3C//DTD SVG 20010904//EN"
 "http://www.w3.org/TR/2001/REC-SVG-20010904/DTD/svg10.dtd">
<svg version="1.0" xmlns="http://www.w3.org/2000/svg"
 width="15.000000pt" height="38.000000pt" viewBox="0 0 15.000000 38.000000"
 preserveAspectRatio="xMidYMid meet">
<metadata>
Created by potrace 1.14, written by Peter Selinger 2001-2017
</metadata>
<g transform="translate(0.000000,38.000000) scale(0.100000,-0.100000)"
fill="#000000" stroke="none">
<path fill="#000000" stroke="none" d="M15 355 c14 -48 14 -155 1 -168 -18
-18 -8 -167 11 -167 8 0 13 8 12 18 -3 32 1 33 32 12 17 -13 28 -28 25 -36 -8
-20 18 -17 37 4 19 21 22 42 7 42 -5 0 -10 9 -10 19 0 11 -13 33 -29 48 -27
28 -29 33 -24 94 6 71 -6 107 -47 144 l-23 20 8 -30z"/>
</g>
</svg>
