<?xml version="1.0" standalone="no"?>
<!DOCTYPE svg PUBLIC "-//W3C//DTD SVG 20010904//EN"
 "http://www.w3.org/TR/2001/REC-SVG-20010904/DTD/svg10.dtd">
<svg version="1.0" xmlns="http://www.w3.org/2000/svg"
 width="22.000000pt" height="61.000000pt" viewBox="0 0 22.000000 61.000000"
 preserveAspectRatio="xMidYMid meet">
<metadata>
Created by potrace 1.14, written by Peter Selinger 2001-2017
</metadata>
<g transform="translate(0.000000,61.000000) scale(0.100000,-0.100000)"
fill="#000000" stroke="none">
<path fill="#000000" stroke="none" d="M10 591 c-19 -37 -12 -68 25 -98 30
-24 38 -41 59 -120 14 -51 30 -137 36 -190 19 -174 21 -183 31 -178 5 4 9 43
9 88 0 69 3 86 24 116 24 36 24 37 10 115 -23 131 -28 143 -76 150 l-41 7 6
41 c7 56 -9 88 -44 88 -18 0 -32 -7 -39 -19z"/>
</g>
</svg>
