<?xml version="1.0" standalone="no"?>
<!DOCTYPE svg PUBLIC "-//W3C//DTD SVG 20010904//EN"
 "http://www.w3.org/TR/2001/REC-SVG-20010904/DTD/svg10.dtd">
<svg version="1.0" xmlns="http://www.w3.org/2000/svg"
 width="18.000000pt" height="51.000000pt" viewBox="0 0 18.000000 51.000000"
 preserveAspectRatio="xMidYMid meet">
<metadata>
Created by potrace 1.14, written by Peter Selinger 2001-2017
</metadata>
<g transform="translate(0.000000,51.000000) scale(0.100000,-0.100000)"
fill="#000000" stroke="none">
<path fill="#000000" stroke="none" d="M66 489 c-14 -11 -26 -29 -26 -39 0
-10 -9 -28 -19 -41 -19 -24 -19 -24 1 -57 24 -40 21 -115 -6 -135 -14 -10 -15
-18 -7 -39 6 -17 6 -49 1 -90 -13 -84 -12 -88 4 -88 9 0 19 19 26 49 8 32 20
55 35 65 13 9 26 24 30 35 4 12 19 21 43 26 l37 7 -26 21 c-21 18 -27 34 -32
80 -3 32 -13 70 -22 83 -15 23 -15 26 4 42 29 24 36 65 16 86 -21 21 -27 20
-59 -5z"/>
</g>
</svg>
