<?xml version="1.0" standalone="no"?>
<!DOCTYPE svg PUBLIC "-//W3C//DTD SVG 20010904//EN"
 "http://www.w3.org/TR/2001/REC-SVG-20010904/DTD/svg10.dtd">
<svg version="1.0" xmlns="http://www.w3.org/2000/svg"
 width="83.000000pt" height="199.000000pt" viewBox="0 0 83.000000 199.000000"
 preserveAspectRatio="xMidYMid meet">
<metadata>
Created by potrace 1.14, written by Peter Selinger 2001-2017
</metadata>
<g transform="translate(0.000000,199.000000) scale(0.100000,-0.100000)"
fill="#000000" stroke="none">
<path fill="#000000" stroke="none" d="M400 1978 c-25 -6 -48 -15 -51 -20 -4
-6 -9 -35 -13 -66 -12 -103 -12 -102 -70 -102 -37 0 -82 -12 -156 -41 -58 -22
-106 -42 -108 -44 -6 -5 37 -284 73 -476 l34 -181 -19 -117 c-11 -64 -20 -125
-20 -137 0 -15 21 -36 69 -70 l70 -49 11 -70 c7 -38 27 -137 46 -219 19 -82
34 -159 34 -171 0 -12 -11 -54 -25 -94 l-24 -72 52 -23 52 -23 30 22 c17 12
48 47 69 78 37 53 38 58 26 87 -7 17 -21 36 -31 43 -15 11 -19 38 -28 172
l-11 160 -32 28 c-18 15 -36 27 -40 27 -13 0 31 81 59 111 22 24 24 34 21 90
l-3 64 38 3 c41 4 41 5 27 -68 -14 -73 -8 -87 34 -82 32 4 34 7 41 49 10 67
78 251 124 335 57 105 74 203 65 382 -7 131 -8 139 -33 162 -14 13 -31 24 -38
24 -7 0 -13 4 -13 8 0 5 -11 15 -25 22 -35 19 -49 70 -41 154 l6 72 -45 22
c-49 24 -83 26 -155 10z"/>
<path fill="#000000" stroke="none" d="M623 639 l10 -68 61 -14 c33 -8 62 -13
63 -13 1 1 -5 29 -13 62 l-16 61 -57 20 -57 21 9 -69z"/>
<path fill="#000000" stroke="none" d="M640 415 c0 -8 5 -47 11 -87 8 -57 7
-91 -4 -154 l-14 -81 26 -32 c14 -17 30 -31 34 -31 5 0 36 17 71 37 l62 37
-23 100 c-12 56 -23 119 -23 141 -1 80 -5 85 -76 85 -49 0 -64 -3 -64 -15z"/>
</g>
</svg>
