<?xml version="1.0" standalone="no"?>
<!DOCTYPE svg PUBLIC "-//W3C//DTD SVG 20010904//EN"
 "http://www.w3.org/TR/2001/REC-SVG-20010904/DTD/svg10.dtd">
<svg version="1.0" xmlns="http://www.w3.org/2000/svg"
 width="21.000000pt" height="51.000000pt" viewBox="0 0 21.000000 51.000000"
 preserveAspectRatio="xMidYMid meet">
<metadata>
Created by potrace 1.14, written by Peter Selinger 2001-2017
</metadata>
<g transform="translate(0.000000,51.000000) scale(0.100000,-0.100000)"
fill="#000000" stroke="none">
<path fill="#000000" stroke="none" d="M41 493 c-25 -21 -27 -45 -10 -158 16
-114 13 -184 -11 -239 -11 -26 -20 -52 -20 -57 0 -10 25 -21 74 -33 29 -7 29
-7 13 17 -14 22 -13 30 19 123 23 65 33 109 30 129 -7 40 17 117 49 160 34 44
26 58 -31 49 -35 -5 -45 -3 -50 10 -8 21 -36 20 -63 -1z"/>
</g>
</svg>
