<?xml version="1.0" standalone="no"?>
<!DOCTYPE svg PUBLIC "-//W3C//DTD SVG 20010904//EN"
 "http://www.w3.org/TR/2001/REC-SVG-20010904/DTD/svg10.dtd">
<svg version="1.0" xmlns="http://www.w3.org/2000/svg"
 width="130.000000pt" height="351.000000pt" viewBox="0 0 130.000000 351.000000"
 preserveAspectRatio="xMidYMid meet">
<metadata>
Created by potrace 1.14, written by Peter Selinger 2001-2017
</metadata>
<g transform="translate(0.000000,351.000000) scale(0.100000,-0.100000)"
fill="#000000" stroke="none">
<path fill="#000000" stroke="none" d="M382 3490 c-6 -11 -36 -32 -64 -46
-144 -72 -202 -150 -261 -349 -26 -88 -39 -154 -46 -248 -18 -218 -18 -220 44
-343 65 -128 66 -130 127 -174 l48 -33 2 -71 c2 -84 2 -85 -12 -160 -8 -43 -8
-62 1 -72 8 -10 10 -39 5 -94 -4 -50 -3 -81 4 -85 6 -4 10 9 11 32 2 60 28
-122 29 -197 0 -36 9 -126 20 -200 11 -74 25 -192 30 -262 6 -71 15 -152 21
-180 6 -29 14 -100 19 -158 13 -176 47 -381 71 -435 18 -39 23 -70 24 -140 1
-59 9 -121 25 -180 12 -50 23 -90 24 -90 1 -1 57 2 126 5 l125 5 1 90 c0 51 6
103 14 121 13 30 11 35 -33 105 -75 122 -86 168 -90 384 -2 109 1 189 6 192 6
3 8 46 4 102 -4 77 -1 110 14 166 24 85 52 291 44 324 -7 28 4 111 15 111 4 0
12 -48 18 -107 6 -60 25 -155 41 -212 27 -92 30 -114 25 -190 -6 -78 -4 -93
23 -166 28 -77 29 -82 15 -130 -18 -65 -16 -278 4 -406 14 -90 14 -97 -5 -138
l-19 -43 23 -67 c13 -36 27 -83 30 -103 l6 -38 117 0 c208 1 243 18 250 118 5
69 -14 115 -59 140 -32 19 -36 38 -14 68 11 14 14 50 14 149 1 107 -4 144 -23
210 -22 77 -23 89 -15 250 4 94 12 188 17 210 6 22 16 135 22 250 7 116 14
213 17 218 13 22 22 -11 16 -66 -6 -66 7 -94 40 -81 17 6 32 68 21 86 -5 7 -7
62 -5 123 2 107 1 112 -23 138 l-26 28 0 275 c0 156 -4 274 -9 274 -5 0 -42
50 -83 111 -60 90 -80 132 -113 232 l-40 121 -285 322 c-157 178 -292 323
-300 323 -8 1 -21 -8 -28 -19z"/>
<path fill="#ffffff" stroke="none" d="M257 1908 c-2 -13 -4 -5 -4 17 -1 22 1
32 4 23 2 -10 2 -28 0 -40z"/>
</g>
</svg>
