<?xml version="1.0" standalone="no"?>
<!DOCTYPE svg PUBLIC "-//W3C//DTD SVG 20010904//EN"
 "http://www.w3.org/TR/2001/REC-SVG-20010904/DTD/svg10.dtd">
<svg version="1.0" xmlns="http://www.w3.org/2000/svg"
 width="21.000000pt" height="48.000000pt" viewBox="0 0 21.000000 48.000000"
 preserveAspectRatio="xMidYMid meet">
<metadata>
Created by potrace 1.14, written by Peter Selinger 2001-2017
</metadata>
<g transform="translate(0.000000,48.000000) scale(0.100000,-0.100000)"
fill="#000000" stroke="none">
<path fill="#000000" stroke="none" d="M85 450 c-9 -16 -20 -30 -26 -30 -16 0
-59 -47 -59 -65 0 -8 11 -21 25 -27 l26 -11 -7 -126 c-4 -69 -7 -137 -8 -150
-1 -21 5 -26 37 -34 48 -12 67 3 67 53 0 21 9 57 20 81 11 24 20 65 20 90 0
25 7 54 15 65 22 29 18 66 -11 105 -14 19 -30 44 -35 57 -12 32 -45 28 -64 -8z"/>
</g>
</svg>
