<?xml version="1.0" standalone="no"?>
<!DOCTYPE svg PUBLIC "-//W3C//DTD SVG 20010904//EN"
 "http://www.w3.org/TR/2001/REC-SVG-20010904/DTD/svg10.dtd">
<svg version="1.0" xmlns="http://www.w3.org/2000/svg"
 width="57.000000pt" height="149.000000pt" viewBox="0 0 57.000000 149.000000"
 preserveAspectRatio="xMidYMid meet">
<metadata>
Created by potrace 1.14, written by Peter Selinger 2001-2017
</metadata>
<g transform="translate(0.000000,149.000000) scale(0.100000,-0.100000)"
fill="#000000" stroke="none">
<path fill="#000000" stroke="none" d="M158 1457 c-2 -24 8 -50 40 -102 23
-38 42 -82 42 -97 0 -16 -1 -28 -3 -28 -2 0 -52 9 -112 20 -60 11 -112 20
-117 20 -4 0 -8 -24 -8 -54 l0 -54 117 -27 c65 -15 121 -30 124 -34 4 -3 10
-67 14 -141 l7 -135 -116 -38 c-64 -21 -117 -41 -120 -45 -2 -4 26 -52 63
-108 64 -98 67 -100 90 -88 33 17 40 11 32 -28 -5 -21 -13 -33 -22 -32 -13 1
-14 -6 -5 -46 9 -40 28 -65 114 -157 l102 -111 0 -86 c0 -98 -2 -97 80 -56 72
37 85 69 54 132 -13 26 -24 50 -24 52 0 10 35 -8 47 -23 7 -9 12 -11 13 -6 0
6 -50 74 -110 152 l-109 143 24 27 c16 18 24 23 25 13 0 -8 29 14 65 50 l64
64 1 130 c0 72 6 192 13 266 13 128 13 138 -6 195 -11 33 -43 95 -71 137 l-51
78 -78 0 c-63 0 -87 5 -127 25 l-49 25 -3 -33z"/>
</g>
</svg>
