<?xml version="1.0" standalone="no"?>
<!DOCTYPE svg PUBLIC "-//W3C//DTD SVG 20010904//EN"
 "http://www.w3.org/TR/2001/REC-SVG-20010904/DTD/svg10.dtd">
<svg version="1.0" xmlns="http://www.w3.org/2000/svg"
 width="21.000000pt" height="51.000000pt" viewBox="0 0 21.000000 51.000000"
 preserveAspectRatio="xMidYMid meet">
<metadata>
Created by potrace 1.14, written by Peter Selinger 2001-2017
</metadata>
<g transform="translate(0.000000,51.000000) scale(0.100000,-0.100000)"
fill="#000000" stroke="none">
<path fill="#000000" stroke="none" d="M90 495 c-7 -8 -13 -45 -14 -82 l-1
-67 -37 -9 c-28 -7 -38 -14 -38 -28 0 -14 7 -19 29 -19 17 0 31 -6 35 -16 3
-9 6 -70 6 -136 0 -67 3 -118 7 -115 3 4 12 2 19 -3 8 -8 12 -7 11 2 0 7 1 38
2 68 1 48 3 53 15 37 9 -11 12 -33 8 -62 -5 -46 -2 -49 46 -48 6 1 12 -3 12
-9 0 -5 4 -7 9 -3 12 7 4 293 -10 355 -13 57 -59 150 -74 150 -7 0 -18 -7 -25
-15z"/>
</g>
</svg>
