<?xml version="1.0" standalone="no"?>
<!DOCTYPE svg PUBLIC "-//W3C//DTD SVG 20010904//EN"
 "http://www.w3.org/TR/2001/REC-SVG-20010904/DTD/svg10.dtd">
<svg version="1.0" xmlns="http://www.w3.org/2000/svg"
 width="89.000000pt" height="202.000000pt" viewBox="0 0 89.000000 202.000000"
 preserveAspectRatio="xMidYMid meet">
<metadata>
Created by potrace 1.14, written by Peter Selinger 2001-2017
</metadata>
<g transform="translate(0.000000,202.000000) scale(0.100000,-0.100000)"
fill="#000000" stroke="none">
<path fill="#000000" stroke="none" d="M205 2010 c-27 -4 -79 -19 -115 -32
-70 -27 -90 -49 -90 -105 0 -27 4 -34 28 -39 35 -7 72 -25 72 -35 0 -4 -16
-10 -35 -13 -40 -8 -41 -14 -20 -78 20 -58 76 -93 137 -85 49 7 104 -16 112
-46 3 -12 3 -39 -1 -62 -9 -68 36 -178 100 -243 43 -43 54 -62 62 -104 9 -43
14 -53 35 -58 23 -6 22 -7 -20 -31 -41 -22 -45 -28 -50 -70 -4 -32 -16 -59
-40 -89 -33 -42 -35 -48 -34 -119 1 -57 15 -131 56 -296 31 -121 59 -246 62
-277 6 -52 4 -58 -19 -76 -14 -11 -41 -44 -61 -72 -27 -40 -33 -54 -23 -61 19
-11 174 -22 206 -14 15 3 90 10 166 15 77 5 141 11 144 14 2 2 -3 25 -11 50
-22 64 -21 86 4 86 19 0 20 7 20 208 l0 207 -35 52 c-19 28 -39 70 -44 91 l-8
40 43 11 44 11 0 353 0 352 -133 126 c-108 103 -141 129 -183 143 -66 22 -82
40 -95 112 -18 93 -21 99 -87 122 -61 23 -100 25 -187 12z"/>
</g>
</svg>
