<?xml version="1.0" standalone="no"?>
<!DOCTYPE svg PUBLIC "-//W3C//DTD SVG 20010904//EN"
 "http://www.w3.org/TR/2001/REC-SVG-20010904/DTD/svg10.dtd">
<svg version="1.0" xmlns="http://www.w3.org/2000/svg"
 width="18.000000pt" height="14.000000pt" viewBox="0 0 18.000000 14.000000"
 preserveAspectRatio="xMidYMid meet">
<metadata>
Created by potrace 1.14, written by Peter Selinger 2001-2017
</metadata>
<g transform="translate(0.000000,14.000000) scale(0.100000,-0.100000)"
fill="#000000" stroke="none">
<path fill="#000000" stroke="none" d="M11 130 c-10 -6 2 -14 38 -27 48 -17
52 -20 49 -48 -2 -23 2 -32 22 -42 14 -7 34 -12 45 -12 11 0 14 3 8 6 -8 3
-11 14 -7 28 3 12 1 26 -5 29 -17 11 -13 44 7 50 9 3 5 4 -11 2 -17 -2 -31 3
-37 13 -9 14 -11 14 -25 -4 -14 -18 -17 -18 -43 -3 -17 10 -33 13 -41 8z"/>
</g>
</svg>
