<?xml version="1.0" standalone="no"?>
<!DOCTYPE svg PUBLIC "-//W3C//DTD SVG 20010904//EN"
 "http://www.w3.org/TR/2001/REC-SVG-20010904/DTD/svg10.dtd">
<svg version="1.0" xmlns="http://www.w3.org/2000/svg"
 width="464.000000pt" height="349.000000pt" viewBox="0 0 464.000000 349.000000"
 preserveAspectRatio="xMidYMid meet">
<metadata>
Created by potrace 1.14, written by Peter Selinger 2001-2017
</metadata>
<g transform="translate(0.000000,349.000000) scale(0.100000,-0.100000)"
fill="#000000" stroke="none">
<path fill="#000000" stroke="none" d="M1831 3470 c-19 -12 -89 -68 -156 -125
l-121 -103 -56 -194 c-51 -175 -59 -212 -78 -398 -25 -249 -27 -260 -45 -254
-7 3 -38 -11 -69 -32 l-56 -37 41 -76 c23 -42 70 -121 105 -177 35 -55 64
-105 64 -111 0 -13 -33 -26 -130 -53 -56 -15 -105 -20 -197 -20 l-123 0 0
-123 c0 -116 -3 -131 -46 -281 -25 -87 -43 -164 -40 -171 2 -7 -5 -50 -16 -96
-24 -97 -45 -123 -107 -134 -37 -6 -51 -18 -122 -98 -119 -135 -152 -150 -442
-198 -126 -20 -231 -40 -234 -43 -3 -3 -2 -170 2 -371 l7 -365 23 -6 c13 -3
81 3 152 14 113 18 142 19 248 10 l120 -11 163 52 c163 51 164 51 296 51 l133
0 47 -36 46 -35 50 28 c28 16 50 35 50 44 0 11 17 22 49 33 71 23 79 21 87
-20 8 -46 19 -49 199 -69 l145 -16 45 38 c25 21 45 46 46 58 0 11 4 28 8 38 6
16 14 7 46 -45 21 -34 39 -64 41 -66 4 -6 104 48 104 57 0 5 -11 34 -25 65
-18 41 -22 58 -13 61 7 2 81 14 163 26 83 11 238 43 345 69 107 27 270 61 363
76 92 15 167 30 167 33 0 3 -18 65 -40 136 -22 72 -67 268 -100 438 -47 242
-70 337 -106 438 -26 71 -45 131 -43 133 8 7 172 -25 199 -39 41 -21 251 -387
295 -515 13 -36 52 -149 88 -251 l65 -186 -65 -18 c-60 -16 -268 -123 -258
-133 2 -2 32 1 67 7 69 11 450 30 563 28 64 -2 75 1 121 31 28 17 59 32 70 32
14 0 11 -5 -14 -21 -32 -21 -72 -83 -72 -112 0 -35 99 -49 152 -21 25 13 164
64 174 64 1 0 7 -20 13 -45 11 -44 12 -45 52 -45 46 0 233 52 290 81 32 16 38
25 57 92 12 42 22 82 22 90 0 8 -22 31 -49 50 -44 32 -51 43 -75 113 -22 66
-35 88 -83 136 -51 51 -70 63 -182 107 -111 44 -147 52 -307 76 -177 25 -185
28 -324 89 -138 61 -144 65 -166 107 -16 32 -34 50 -66 65 -43 21 -44 23 -96
160 -44 115 -70 166 -156 298 -99 151 -103 160 -93 191 8 27 3 60 -28 183
l-37 150 17 185 c26 278 31 262 -198 578 -178 246 -184 253 -258 299 l-75 48
-300 7 c-295 6 -299 6 -333 -15z"/>
<path fill="#ffffff" stroke="none" d="M1436 864 l121 -16 -20 -64 c-20 -61
-23 -64 -53 -64 -29 0 -316 39 -321 44 -1 1 12 47 30 104 l31 102 46 -45 46
-45 120 -16z"/>
</g>
</svg>
