<?xml version="1.0" standalone="no"?>
<!DOCTYPE svg PUBLIC "-//W3C//DTD SVG 20010904//EN"
 "http://www.w3.org/TR/2001/REC-SVG-20010904/DTD/svg10.dtd">
<svg version="1.0" xmlns="http://www.w3.org/2000/svg"
 width="17.000000pt" height="13.000000pt" viewBox="0 0 17.000000 13.000000"
 preserveAspectRatio="xMidYMid meet">
<metadata>
Created by potrace 1.14, written by Peter Selinger 2001-2017
</metadata>
<g transform="translate(0.000000,13.000000) scale(0.100000,-0.100000)"
fill="#000000" stroke="none">
<path fill="#000000" stroke="none" d="M7 124 c-12 -13 15 -34 43 -34 15 0 41
-3 58 -6 28 -6 30 -8 25 -45 -4 -25 -2 -39 6 -39 6 0 11 9 11 21 0 11 5 29 10
39 9 17 3 21 -57 40 -38 12 -73 23 -79 26 -5 2 -13 1 -17 -2z"/>
</g>
</svg>
