<?xml version="1.0" standalone="no"?>
<!DOCTYPE svg PUBLIC "-//W3C//DTD SVG 20010904//EN"
 "http://www.w3.org/TR/2001/REC-SVG-20010904/DTD/svg10.dtd">
<svg version="1.0" xmlns="http://www.w3.org/2000/svg"
 width="138.000000pt" height="110.000000pt" viewBox="0 0 138.000000 110.000000"
 preserveAspectRatio="xMidYMid meet">
<metadata>
Created by potrace 1.14, written by Peter Selinger 2001-2017
</metadata>
<g transform="translate(0.000000,110.000000) scale(0.100000,-0.100000)"
fill="#000000" stroke="none">
<path fill="#000000" stroke="none" d="M617 1044 c-33 -48 -38 -62 -35 -99 l3
-45 -43 -6 c-47 -7 -62 -23 -167 -181 -59 -89 -132 -140 -252 -174 l-83 -23
-19 -50 c-19 -50 -19 -52 0 -81 19 -30 27 -33 74 -21 22 6 29 0 59 -46 18 -29
44 -89 58 -133 22 -75 26 -81 63 -99 22 -10 58 -21 80 -23 47 -6 85 19 113 74
l18 35 27 -60 c24 -57 28 -61 84 -82 70 -26 78 -27 124 -11 31 10 35 15 31 36
-2 13 5 56 17 94 l21 69 -51 49 -51 49 25 30 c22 26 23 32 11 48 -16 22 -10
36 16 36 21 0 24 6 45 120 8 46 19 87 25 90 5 3 22 36 39 73 28 62 33 67 61
67 17 0 72 16 121 35 71 27 105 35 158 35 66 0 131 25 131 50 0 6 11 15 24 21
14 7 22 17 19 24 -2 8 1 23 7 35 14 26 -6 53 -50 69 -26 9 -31 7 -47 -19 -26
-41 -106 -99 -181 -130 l-65 -28 -85 29 c-47 16 -103 29 -124 29 -36 0 -38 2
-38 31 0 16 -5 50 -11 74 -9 35 -16 44 -39 48 -15 4 -38 8 -51 11 -20 5 -30
-3 -62 -50z"/>
</g>
</svg>
