<?xml version="1.0" standalone="no"?>
<!DOCTYPE svg PUBLIC "-//W3C//DTD SVG 20010904//EN"
 "http://www.w3.org/TR/2001/REC-SVG-20010904/DTD/svg10.dtd">
<svg version="1.0" xmlns="http://www.w3.org/2000/svg"
 width="64.000000pt" height="50.000000pt" viewBox="0 0 64.000000 50.000000"
 preserveAspectRatio="xMidYMid meet">
<metadata>
Created by potrace 1.14, written by Peter Selinger 2001-2017
</metadata>
<g transform="translate(0.000000,50.000000) scale(0.100000,-0.100000)"
fill="#000000" stroke="none">
<path fill="#000000" stroke="none" d="M311 449 c-12 -29 -21 -73 -21 -101 0
-46 2 -50 33 -63 46 -20 4 -20 -55 1 -54 18 -91 11 -156 -30 -37 -23 -112
-119 -112 -142 0 -4 10 -18 21 -30 20 -22 24 -22 50 -8 22 11 30 24 35 52 4
27 14 43 37 58 29 19 36 19 80 8 27 -7 51 -14 53 -17 2 -2 -4 -15 -15 -28 -10
-13 -23 -50 -28 -81 l-10 -58 113 0 112 0 21 34 c34 54 48 62 71 41 12 -11 20
-31 20 -52 0 -25 4 -33 18 -33 20 0 62 66 62 96 0 11 -36 62 -80 114 -69 82
-80 100 -80 135 -1 22 -9 63 -19 90 -15 41 -23 51 -47 56 -72 16 -80 13 -103
-42z"/>
</g>
</svg>
