<?xml version="1.0" standalone="no"?>
<!DOCTYPE svg PUBLIC "-//W3C//DTD SVG 20010904//EN"
 "http://www.w3.org/TR/2001/REC-SVG-20010904/DTD/svg10.dtd">
<svg version="1.0" xmlns="http://www.w3.org/2000/svg"
 width="39.000000pt" height="30.000000pt" viewBox="0 0 39.000000 30.000000"
 preserveAspectRatio="xMidYMid meet">
<metadata>
Created by potrace 1.14, written by Peter Selinger 2001-2017
</metadata>
<g transform="translate(0.000000,30.000000) scale(0.100000,-0.100000)"
fill="#000000" stroke="none">
<path fill="#000000" stroke="none" d="M75 292 c-6 -4 -25 -26 -43 -48 -31
-41 -32 -44 -32 -143 l0 -101 195 0 c123 0 195 4 195 10 0 6 -4 10 -9 10 -4 0
-6 11 -3 25 10 56 -8 112 -49 154 -61 61 -139 101 -196 101 -27 0 -53 -4 -58
-8z"/>
</g>
</svg>
