<?xml version="1.0" standalone="no"?>
<!DOCTYPE svg PUBLIC "-//W3C//DTD SVG 20010904//EN"
 "http://www.w3.org/TR/2001/REC-SVG-20010904/DTD/svg10.dtd">
<svg version="1.0" xmlns="http://www.w3.org/2000/svg"
 width="541.000000pt" height="423.000000pt" viewBox="0 0 541.000000 423.000000"
 preserveAspectRatio="xMidYMid meet">
<metadata>
Created by potrace 1.14, written by Peter Selinger 2001-2017
</metadata>
<g transform="translate(0.000000,423.000000) scale(0.100000,-0.100000)"
fill="#000000" stroke="none">
<path fill="#000000" stroke="none" d="M1389 4154 l-65 -76 -420 -224 c-230
-123 -429 -234 -441 -247 -11 -12 -82 -102 -156 -199 -102 -134 -137 -187
-141 -215 -3 -21 -42 -477 -87 -1013 l-82 -975 18 -205 18 -205 90 -180 c49
-99 95 -183 101 -187 21 -14 91 -8 291 23 l200 32 131 -131 c115 -114 133
-137 143 -179 l12 -47 -38 -33 -38 -32 1315 -1 1315 0 -45 -30 -45 -30 766 0
767 0 6 22 c18 67 5 253 -35 528 l-42 285 112 336 111 335 -51 322 c-29 177
-50 324 -48 326 2 2 69 14 149 26 204 30 185 21 198 95 12 63 12 65 -98 537
-61 260 -135 583 -165 717 l-55 244 -71 121 c-40 67 -72 126 -72 131 0 6 3 46
7 91 l7 80 -338 13 c-186 6 -388 14 -449 18 l-111 6 -47 -79 -48 -78 46 -195
c25 -108 46 -198 46 -201 0 -3 -19 -16 -42 -29 -36 -19 -81 -76 -258 -321
-118 -164 -216 -297 -217 -296 -1 1 -7 51 -14 112 -12 107 -14 115 -78 240
l-66 128 -405 176 -405 176 -23 48 c-20 42 -22 50 -9 64 8 10 58 67 112 127
l97 110 -363 6 c-200 3 -490 7 -644 7 l-280 1 -66 -75z"/>
<path fill="#ffffff" stroke="none" d="M4576 4046 c16 -13 17 -18 6 -36 -11
-18 -8 -32 24 -103 19 -45 55 -109 78 -142 24 -33 47 -71 51 -83 l7 -24 -28
18 c-26 18 -123 141 -161 205 -13 22 -24 29 -43 27 -23 -3 -25 -8 -28 -60 -2
-33 3 -71 12 -91 l14 -35 -51 23 c-81 38 -84 53 -37 186 22 62 46 116 53 121
20 13 82 9 103 -6z"/>
<path fill="#ffffff" stroke="none" d="M4796 3933 c9 -3 54 -186 54 -216 0
-16 -53 33 -93 85 -44 59 -90 154 -82 168 5 8 28 1 121 -37z"/>
<path fill="#ffffff" stroke="none" d="M3577 2678 c-3 -8 -6 -5 -6 6 -1 11 2
17 5 13 3 -3 4 -12 1 -19z"/>
<path fill="#ffffff" stroke="none" d="M3710 2160 c8 -5 68 -10 132 -10 106 0
118 -2 128 -19 16 -32 12 -61 -15 -93 -35 -42 -42 -76 -19 -93 18 -13 17 -14
-11 -15 -16 -1 -77 -5 -135 -9 -58 -5 -109 -5 -115 -1 -23 16 -112 40 -154 41
-100 2 -100 5 -12 93 61 61 92 84 129 95 l49 16 -48 180 c-27 99 -51 211 -54
250 -4 54 8 12 52 -178 37 -159 63 -251 73 -257z"/>
<path fill="#ffffff" stroke="none" d="M3755 1630 l70 -29 -53 0 c-46 -1 -53
-3 -48 -18 3 -10 32 -109 65 -220 34 -111 61 -208 61 -215 0 -10 -201 -679
-224 -743 -2 -5 -7 24 -11 65 -7 74 -6 78 55 255 40 118 70 189 86 206 14 15
36 61 49 103 l24 76 -35 102 c-20 62 -31 110 -28 125 4 16 -8 55 -41 126 -46
100 -48 103 -118 150 l-72 47 75 -1 c59 0 90 -6 145 -29z"/>
<path fill="#ffffff" stroke="none" d="M3970 1615 c0 -12 -14 -15 -67 -14
l-68 1 55 13 c75 17 80 17 80 0z"/>
<path fill="#ffffff" stroke="none" d="M3508 317 c1 -13 8 -42 17 -66 8 -24
15 -49 14 -55 -1 -12 -49 122 -49 136 0 19 16 6 18 -15z"/>
</g>
</svg>
