<?xml version="1.0" standalone="no"?>
<!DOCTYPE svg PUBLIC "-//W3C//DTD SVG 20010904//EN"
 "http://www.w3.org/TR/2001/REC-SVG-20010904/DTD/svg10.dtd">
<svg version="1.0" xmlns="http://www.w3.org/2000/svg"
 width="144.000000pt" height="111.000000pt" viewBox="0 0 144.000000 111.000000"
 preserveAspectRatio="xMidYMid meet">
<metadata>
Created by potrace 1.14, written by Peter Selinger 2001-2017
</metadata>
<g transform="translate(0.000000,111.000000) scale(0.100000,-0.100000)"
fill="#000000" stroke="none">
<path fill="#000000" stroke="none" d="M530 1103 c1 -4 12 -114 25 -243 l24
-235 -47 -95 -47 -95 -241 -135 -241 -136 396 -81 395 -81 64 24 c35 13 73 34
85 45 12 11 49 38 82 59 133 86 135 88 135 118 0 47 26 118 71 197 37 65 45
74 65 69 30 -8 34 0 88 206 26 96 49 180 51 186 6 20 -236 81 -550 139 -165
30 -312 57 -327 61 -16 3 -28 2 -28 -3z"/>
</g>
</svg>
