<?xml version="1.0" standalone="no"?>
<!DOCTYPE svg PUBLIC "-//W3C//DTD SVG 20010904//EN"
 "http://www.w3.org/TR/2001/REC-SVG-20010904/DTD/svg10.dtd">
<svg version="1.0" xmlns="http://www.w3.org/2000/svg"
 width="61.000000pt" height="47.000000pt" viewBox="0 0 61.000000 47.000000"
 preserveAspectRatio="xMidYMid meet">
<metadata>
Created by potrace 1.14, written by Peter Selinger 2001-2017
</metadata>
<g transform="translate(0.000000,47.000000) scale(0.100000,-0.100000)"
fill="#000000" stroke="none">
<path fill="#000000" stroke="none" d="M102 451 c-40 -10 -74 -20 -76 -22 -2
-2 -7 -26 -11 -53 l-7 -49 144 9 c79 5 166 9 195 9 l51 0 -31 57 c-18 31 -41
59 -52 62 -39 11 -141 4 -213 -13z"/>
<path fill="#000000" stroke="none" d="M11 301 c-17 -11 -5 -114 12 -108 9 3
36 83 37 110 0 10 -32 9 -49 -2z"/>
<path fill="#000000" stroke="none" d="M267 295 c-65 -6 -122 -16 -128 -22
-12 -12 8 -152 25 -170 6 -6 49 -26 95 -42 109 -40 223 -41 321 -4 8 4 19 5
23 4 12 -2 1 14 -62 94 -77 98 -132 155 -145 154 -6 -1 -64 -7 -129 -14z"/>
</g>
</svg>
