<?xml version="1.0" standalone="no"?>
<!DOCTYPE svg PUBLIC "-//W3C//DTD SVG 20010904//EN"
 "http://www.w3.org/TR/2001/REC-SVG-20010904/DTD/svg10.dtd">
<svg version="1.0" xmlns="http://www.w3.org/2000/svg"
 width="207.000000pt" height="164.000000pt" viewBox="0 0 207.000000 164.000000"
 preserveAspectRatio="xMidYMid meet">
<metadata>
Created by potrace 1.14, written by Peter Selinger 2001-2017
</metadata>
<g transform="translate(0.000000,164.000000) scale(0.100000,-0.100000)"
fill="#000000" stroke="none">
<path fill="#000000" stroke="none" d="M1549 1624 c-15 -19 -35 -52 -44 -74
-4 -8 -11 -23 -16 -32 -5 -10 -9 -43 -9 -73 0 -50 -3 -56 -24 -65 -27 -10 -30
-24 -41 -213 l-6 -97 57 -81 c45 -64 66 -85 101 -100 43 -18 56 -36 78 -107 6
-22 3 -21 -63 15 -57 31 -76 48 -107 96 l-38 58 -20 -21 c-15 -17 -27 -20 -52
-16 l-32 6 -7 -56 c-5 -47 -3 -59 14 -81 20 -26 20 -29 -11 -73 -14 -21 -16
-39 -12 -88 4 -43 2 -62 -6 -62 -6 0 -11 -9 -11 -20 0 -11 -4 -20 -10 -20 -5
0 -16 -10 -25 -23 -13 -20 -13 -30 -2 -68 9 -32 10 -56 3 -88 -7 -31 -6 -49 2
-62 18 -28 16 -70 -3 -63 -9 4 -15 0 -15 -10 0 -9 -6 -16 -13 -16 -21 0 -47
-34 -47 -62 0 -31 28 -58 61 -58 14 0 33 -6 44 -14 11 -7 53 -16 94 -19 45 -4
80 -12 90 -22 11 -9 36 -15 64 -15 58 0 77 25 82 104 2 31 9 71 16 90 10 27
10 41 1 61 -10 21 -8 31 8 58 14 23 20 50 20 95 0 59 1 62 24 62 13 0 26 -7
30 -15 9 -25 -14 -129 -35 -151 -40 -43 -13 -114 43 -114 14 0 31 -7 38 -15 7
-8 23 -15 35 -15 24 0 38 -25 50 -90 10 -48 32 -70 71 -70 39 0 64 29 64 76 0
17 7 49 16 70 50 118 64 171 64 241 0 44 -5 75 -12 79 -8 5 -9 2 -5 -10 7 -17
-13 -8 -152 73 -34 21 -81 77 -220 266 l-177 240 155 118 c85 65 161 115 168
113 7 -3 51 -33 97 -68 l85 -63 0 -55 c0 -30 -4 -149 -9 -263 -8 -199 -8 -211
12 -263 23 -60 29 -60 46 2 17 57 17 794 1 794 -8 0 -9 13 -5 41 10 61 -13 91
-65 88 -21 -2 -44 2 -51 9 -7 7 -16 12 -22 12 -5 0 -22 12 -37 26 -36 34 -102
44 -129 19 -19 -17 -20 -27 -15 -109 l6 -91 -19 50 c-10 28 -23 59 -29 70 -16
30 -33 89 -33 111 0 11 -7 30 -16 42 -18 27 -75 30 -95 6z"/>
<path fill="#000000" stroke="none" d="M231 1424 c-12 -15 -21 -35 -21 -45 0
-10 -4 -20 -9 -23 -5 -3 -12 -32 -16 -65 -5 -48 -12 -64 -38 -89 -18 -16 -40
-34 -50 -39 -15 -8 -7 -18 60 -75 81 -68 116 -83 164 -73 27 6 29 10 29 57 l0
50 26 -16 c36 -24 130 -13 145 18 6 11 25 35 41 52 35 38 30 63 -13 58 -16 -2
-41 -5 -57 -8 -132 -22 -134 -21 -105 70 18 59 10 98 -24 111 -10 4 -24 15
-31 25 -21 28 -76 24 -101 -8z"/>
<path fill="#000000" stroke="none" d="M1278 1355 c-3 -3 -23 -8 -44 -10 -22
-3 -51 -7 -66 -10 -16 -3 -40 -7 -55 -9 -16 -2 -46 -7 -68 -11 -22 -3 -52 -8
-68 -10 -15 -2 -41 -6 -57 -9 -17 -3 -45 -8 -63 -10 -17 -3 -39 -6 -47 -7 -30
-2 -66 -20 -79 -41 -12 -19 -11 -23 8 -37 15 -11 22 -32 27 -73 10 -88 -17
-108 -94 -69 -45 22 -61 18 -54 -15 3 -19 14 -27 48 -35 47 -12 72 -33 54 -44
-19 -11 -10 -25 16 -25 37 0 114 -21 114 -31 0 -5 -4 -9 -10 -9 -5 0 -9 -11
-8 -25 3 -30 0 -30 47 -5 39 19 51 41 51 92 0 15 5 39 12 53 8 19 8 34 -1 62
-7 24 -8 49 -3 68 8 29 11 30 112 47 57 9 107 22 111 29 4 6 10 29 13 50 7 47
32 63 78 51 26 -7 36 -17 48 -50 20 -54 28 -46 22 21 -5 54 -24 81 -44 62z"/>
<path fill="#000000" stroke="none" d="M426 961 c-3 -5 -15 -7 -25 -4 -15 4
-24 -4 -39 -34 -17 -32 -18 -46 -11 -93 6 -30 7 -111 4 -180 -5 -97 -3 -140 9
-193 9 -38 16 -92 16 -121 0 -71 25 -96 97 -96 83 0 87 9 80 197 -3 87 -13
209 -22 271 -9 63 -13 121 -9 130 10 24 4 72 -12 104 -12 22 -22 28 -49 28
-18 0 -36 -4 -39 -9z"/>
<path fill="#000000" stroke="none" d="M823 829 c-7 -7 -9 -31 -6 -63 4 -36
-3 -83 -22 -159 -14 -60 -25 -110 -23 -112 2 -2 53 -5 113 -7 l110 -3 3 48 c2
38 -3 58 -23 93 -14 24 -30 44 -35 44 -6 0 -10 7 -10 16 0 19 -78 154 -88 154
-5 0 -13 -5 -19 -11z"/>
<path fill="#000000" stroke="none" d="M172 773 l-30 -38 29 0 c37 0 60 23 53
53 -9 31 -18 28 -52 -15z"/>
<path fill="#000000" stroke="none" d="M16 601 c-23 -25 -18 -84 7 -89 14 -3
17 5 17 52 0 31 -2 56 -3 56 -2 0 -12 -9 -21 -19z"/>
<path fill="#000000" stroke="none" d="M190 516 c0 -9 5 -16 10 -16 6 0 10 4
10 9 0 6 -4 13 -10 16 -5 3 -10 -1 -10 -9z"/>
</g>
</svg>
