<?xml version="1.0" standalone="no"?>
<!DOCTYPE svg PUBLIC "-//W3C//DTD SVG 20010904//EN"
 "http://www.w3.org/TR/2001/REC-SVG-20010904/DTD/svg10.dtd">
<svg version="1.0" xmlns="http://www.w3.org/2000/svg"
 width="74.000000pt" height="58.000000pt" viewBox="0 0 74.000000 58.000000"
 preserveAspectRatio="xMidYMid meet">
<metadata>
Created by potrace 1.14, written by Peter Selinger 2001-2017
</metadata>
<g transform="translate(0.000000,58.000000) scale(0.100000,-0.100000)"
fill="#000000" stroke="none">
<path fill="#000000" stroke="none" d="M6 534 c-10 -79 -8 -89 45 -158 l51
-68 -7 -91 c-4 -51 -8 -94 -8 -97 0 -3 26 -20 58 -39 50 -29 76 -36 214 -56
86 -12 179 -20 206 -18 l50 5 63 118 62 119 -57 6 c-128 14 -125 12 -166 71
-22 31 -37 57 -35 59 1 1 58 26 126 55 67 29 122 56 122 61 0 6 -7 25 -14 44
l-15 35 -344 0 -344 0 -7 -46z"/>
</g>
</svg>
