<?xml version="1.0" standalone="no"?>
<!DOCTYPE svg PUBLIC "-//W3C//DTD SVG 20010904//EN"
 "http://www.w3.org/TR/2001/REC-SVG-20010904/DTD/svg10.dtd">
<svg version="1.0" xmlns="http://www.w3.org/2000/svg"
 width="151.000000pt" height="117.000000pt" viewBox="0 0 151.000000 117.000000"
 preserveAspectRatio="xMidYMid meet">
<metadata>
Created by potrace 1.14, written by Peter Selinger 2001-2017
</metadata>
<g transform="translate(0.000000,117.000000) scale(0.100000,-0.100000)"
fill="#000000" stroke="none">
<path fill="#000000" stroke="none" d="M121 1154 c-36 -8 -66 -16 -69 -18 -8
-9 -3 -194 7 -237 6 -24 20 -75 31 -114 11 -38 20 -74 20 -80 0 -5 -25 -26
-55 -45 -30 -19 -55 -38 -55 -41 0 -3 14 -25 31 -48 17 -24 53 -82 81 -129 28
-48 80 -116 114 -152 61 -64 63 -68 83 -157 29 -134 30 -136 99 -128 34 4 85
20 127 41 70 34 70 34 213 34 l144 0 -4 55 -3 55 52 30 52 30 6 -38 c4 -20 8
-41 9 -46 1 -5 13 27 25 71 l23 80 71 41 72 40 23 -22 c22 -21 23 -27 14 -77
-6 -30 -8 -87 -5 -126 l6 -73 -39 -1 c-52 -2 144 -38 209 -38 26 -1 61 6 77
14 27 14 30 20 30 63 -1 83 -25 164 -74 249 -57 99 -136 163 -226 182 -30 6
-125 33 -210 59 l-155 46 -170 1 -170 0 -12 27 c-21 43 -32 114 -39 253 -5 91
-13 143 -25 173 l-18 42 -113 -1 c-62 -1 -142 -7 -177 -15z"/>
</g>
</svg>
