<?xml version="1.0" standalone="no"?>
<!DOCTYPE svg PUBLIC "-//W3C//DTD SVG 20010904//EN"
 "http://www.w3.org/TR/2001/REC-SVG-20010904/DTD/svg10.dtd">
<svg version="1.0" xmlns="http://www.w3.org/2000/svg"
 width="236.000000pt" height="180.000000pt" viewBox="0 0 236.000000 180.000000"
 preserveAspectRatio="xMidYMid meet">
<metadata>
Created by potrace 1.14, written by Peter Selinger 2001-2017
</metadata>
<g transform="translate(0.000000,180.000000) scale(0.100000,-0.100000)"
fill="#000000" stroke="none">
<path fill="#000000" stroke="none" d="M1569 1751 l-75 -48 -38 -129 c-40
-135 -79 -334 -91 -466 -4 -43 -12 -84 -19 -91 -6 -8 -57 -22 -121 -32 -60 -9
-199 -36 -309 -61 -188 -41 -200 -46 -240 -81 -49 -44 -54 -53 -28 -53 35 0
43 -48 22 -130 -10 -40 -20 -73 -22 -75 -2 -1 -44 -23 -95 -49 l-92 -46 -22
37 -23 36 -39 -44 c-54 -61 -177 -220 -177 -227 0 -4 4 -13 9 -21 6 -9 -7 -40
-40 -95 -45 -76 -54 -85 -109 -111 -43 -20 -57 -32 -50 -39 8 -8 293 -11 918
-12 499 0 1025 -4 1169 -8 l263 -8 -15 48 c-8 27 -23 75 -34 106 -17 49 -19
76 -15 185 4 110 0 150 -23 283 l-28 155 -90 72 -90 72 -157 38 c-174 41 -171
38 -144 112 10 29 31 47 121 101 l108 67 29 79 c29 78 30 81 20 187 l-10 108
-68 77 c-37 42 -72 80 -78 83 -10 6 -196 29 -229 29 -7 0 -46 -22 -88 -49z"/>
</g>
</svg>
