<?xml version="1.0" standalone="no"?>
<!DOCTYPE svg PUBLIC "-//W3C//DTD SVG 20010904//EN"
 "http://www.w3.org/TR/2001/REC-SVG-20010904/DTD/svg10.dtd">
<svg version="1.0" xmlns="http://www.w3.org/2000/svg"
 width="484.000000pt" height="385.000000pt" viewBox="0 0 484.000000 385.000000"
 preserveAspectRatio="xMidYMid meet">
<metadata>
Created by potrace 1.14, written by Peter Selinger 2001-2017
</metadata>
<g transform="translate(0.000000,385.000000) scale(0.100000,-0.100000)"
fill="#000000" stroke="none">
<path fill="#000000" stroke="none" d="M710 3841 l-105 -6 -227 -114 -226
-115 -7 -71 c-5 -53 -1 -100 15 -187 16 -87 19 -124 12 -150 -9 -33 -3 -49 87
-236 84 -174 100 -202 128 -216 22 -10 54 -47 98 -113 57 -85 65 -104 65 -144
l0 -46 -77 -50 c-51 -33 -102 -56 -148 -68 -38 -10 -79 -22 -90 -28 -22 -11
-211 -162 -218 -175 -3 -4 -8 -483 -12 -1065 l-7 -1057 1266 0 c696 0 1266 3
1266 6 0 4 -25 42 -56 87 -54 77 -58 87 -115 296 -59 216 -59 216 -65 396 -5
133 -2 223 10 345 l16 165 -30 140 c-16 77 -30 146 -30 153 0 7 14 33 30 58
l31 44 152 0 c84 0 244 9 357 20 113 11 210 20 216 20 16 0 564 421 811 623
166 137 224 190 233 215 l12 32 128 0 128 0 55 60 c50 56 61 63 128 82 53 15
96 36 151 76 l77 55 -24 42 c-14 23 -25 46 -25 51 0 5 28 29 63 54 l62 45 -50
6 c-28 3 -67 4 -89 1 -24 -3 -41 0 -45 7 -5 8 -63 15 -166 22 -88 5 -175 14
-194 19 -33 9 -44 5 -181 -72 -80 -45 -201 -117 -270 -161 -98 -63 -156 -92
-270 -134 -293 -108 -340 -131 -396 -192 l-51 -56 -299 -20 -299 -21 -215 74
c-227 77 -328 100 -650 147 -107 15 -205 36 -252 52 -69 25 -78 30 -78 53 0
14 -7 115 -15 225 -8 110 -15 265 -15 345 l0 145 -118 140 -119 141 -94 32
c-52 18 -110 31 -129 30 -19 -1 -82 -4 -140 -7z"/>
</g>
</svg>
