<?xml version="1.0" standalone="no"?>
<!DOCTYPE svg PUBLIC "-//W3C//DTD SVG 20010904//EN"
 "http://www.w3.org/TR/2001/REC-SVG-20010904/DTD/svg10.dtd">
<svg version="1.0" xmlns="http://www.w3.org/2000/svg"
 width="52.000000pt" height="41.000000pt" viewBox="0 0 52.000000 41.000000"
 preserveAspectRatio="xMidYMid meet">
<metadata>
Created by potrace 1.14, written by Peter Selinger 2001-2017
</metadata>
<g transform="translate(0.000000,41.000000) scale(0.100000,-0.100000)"
fill="#000000" stroke="none">
<path fill="#000000" stroke="none" d="M223 403 c-34 -3 -49 -12 -85 -50 -24
-25 -64 -62 -90 -83 l-47 -38 40 -15 c39 -15 40 -17 38 -59 -1 -28 8 -63 25
-101 l26 -57 195 0 c109 0 194 4 191 9 -3 4 -18 14 -34 20 -29 12 -62 57 -62
85 0 9 14 40 30 69 44 78 40 118 -14 141 -17 7 -52 29 -79 50 -26 20 -57 35
-70 34 -12 -1 -41 -3 -64 -5z"/>
</g>
</svg>
