<?xml version="1.0" standalone="no"?>
<!DOCTYPE svg PUBLIC "-//W3C//DTD SVG 20010904//EN"
 "http://www.w3.org/TR/2001/REC-SVG-20010904/DTD/svg10.dtd">
<svg version="1.0" xmlns="http://www.w3.org/2000/svg"
 width="639.000000pt" height="238.000000pt" viewBox="0 0 639.000000 238.000000"
 preserveAspectRatio="xMidYMid meet">
<metadata>
Created by potrace 1.14, written by Peter Selinger 2001-2017
</metadata>
<g transform="translate(0.000000,238.000000) scale(0.100000,-0.100000)"
fill="#000000" stroke="none">
<path fill="#000000" stroke="none" d="M567 2321 c-31 -32 -57 -62 -57 -67 0
-5 -40 -8 -90 -7 -49 2 -141 -1 -204 -5 -101 -8 -119 -12 -149 -35 -18 -14
-34 -31 -35 -39 0 -7 -6 -31 -13 -53 -8 -28 -13 -182 -16 -517 l-3 -476 44
-10 c25 -5 62 -6 83 -2 125 23 182 116 182 300 1 84 -2 98 -24 132 -30 45 -31
54 -5 68 25 13 74 115 66 136 -3 9 -1 45 6 80 10 54 17 68 47 92 59 47 100 58
168 43 76 -17 93 -27 93 -54 0 -25 25 -66 34 -56 4 3 -2 33 -12 66 l-19 60 40
49 c21 27 40 50 41 51 3 3 111 -15 137 -23 17 -5 57 75 66 133 8 48 -16 120
-52 159 l-32 34 -120 0 -119 0 -57 -59z"/>
<path fill="#ffffff" stroke="none" d="M217 1543 c0 -8 -14 -13 -39 -13 -46 0
-53 23 -11 37 29 10 50 0 50 -24z"/>
<path fill="#000000" stroke="none" d="M3140 2331 c-57 -57 -91 -71 -173 -71
-75 0 -127 -15 -168 -50 l-32 -26 -51 34 c-48 32 -55 34 -123 30 -62 -3 -77
-7 -110 -34 -59 -47 -84 -105 -82 -189 1 -56 -2 -77 -20 -105 -64 -105 -48
-224 39 -291 68 -52 76 -50 115 36 19 42 53 99 76 126 37 45 43 58 53 132 l12
82 44 16 45 17 27 -52 c15 -28 27 -65 28 -82 0 -37 10 -46 73 -67 l47 -16 0
29 c0 31 6 35 83 46 41 5 51 12 75 47 42 64 77 79 157 71 54 -6 69 -11 72 -26
4 -15 15 -18 62 -18 33 0 65 6 76 14 17 12 20 10 38 -25 10 -21 34 -52 53 -68
33 -30 34 -30 75 -16 54 19 103 19 213 -1 l88 -16 34 -75 c19 -41 34 -81 34
-89 0 -13 21 -19 60 -16 21 1 30 -17 30 -64 0 -23 10 -61 24 -88 13 -26 27
-68 30 -94 11 -78 37 -156 55 -169 17 -12 17 -17 0 -120 -11 -59 -19 -120 -19
-135 0 -37 60 -85 124 -98 49 -9 170 -6 207 5 13 5 24 -9 49 -63 24 -52 40
-74 71 -92 21 -14 39 -30 39 -37 0 -16 82 -32 127 -23 82 15 137 64 163 144
17 52 8 102 -31 181 -24 50 -32 80 -33 123 -1 76 -29 128 -92 171 -48 32 -51
33 -132 29 l-82 -4 -20 64 c-26 84 -26 85 13 76 92 -21 217 22 217 76 0 9 12
40 26 69 20 40 25 61 20 90 -5 33 -2 40 23 59 15 11 31 33 34 49 4 22 17 34
51 51 80 41 123 10 111 -79 -4 -27 -5 -49 -2 -49 3 0 15 29 27 65 18 54 32 75
86 127 72 69 75 83 30 143 -12 17 -28 50 -35 75 -18 61 -44 95 -97 126 -39 23
-53 26 -113 22 -56 -3 -75 -9 -106 -32 -21 -16 -45 -41 -54 -57 l-15 -27 -43
25 c-38 22 -53 25 -113 21 -58 -3 -75 -8 -107 -34 -21 -16 -49 -51 -61 -77
l-24 -47 -28 15 c-33 17 -155 20 -193 6 -22 -9 -30 -3 -78 56 -30 36 -73 76
-97 90 -37 22 -52 25 -110 21 -51 -2 -76 -9 -101 -27 -27 -20 -36 -22 -57 -12
-64 29 -204 1 -204 -40 0 -11 -4 -19 -10 -19 -5 0 -10 4 -10 9 0 5 -8 12 -17
14 -17 4 -17 5 0 6 14 1 17 6 12 24 -12 40 -30 72 -40 72 -6 1 -39 20 -75 43
-64 41 -67 42 -153 42 l-88 0 -49 -49z"/>
<path fill="#ffffff" stroke="none" d="M4550 1740 c0 -12 -48 -41 -54 -32 -9
15 24 52 39 46 8 -4 15 -10 15 -14z"/>
<path fill="#000000" stroke="none" d="M1835 2344 c-79 -41 -121 -118 -111
-201 3 -26 10 -92 14 -145 4 -54 11 -100 14 -103 3 -4 14 7 24 23 33 57 95 67
174 27 53 -27 68 -52 50 -86 -8 -14 -9 -24 -2 -31 7 -7 7 -16 -1 -29 -32 -52
41 -21 96 40 41 45 43 54 22 91 -22 39 -19 132 5 160 22 26 26 70 8 121 -17
52 -47 89 -96 120 -38 24 -57 29 -106 29 -36 0 -74 -7 -91 -16z"/>
<path fill="#000000" stroke="none" d="M1345 2304 c-96 -50 -140 -164 -101
-259 11 -26 12 -42 5 -64 -18 -52 -8 -84 29 -95 l32 -9 0 -94 c0 -69 4 -95 13
-99 8 -3 48 30 95 78 44 45 84 79 88 75 5 -4 -28 -44 -72 -88 l-81 -81 55 -52
55 -52 -17 -96 c-9 -53 -16 -110 -16 -127 0 -31 1 -32 22 -17 30 22 38 20 38
-7 0 -23 28 -45 101 -78 l36 -17 7 64 c7 70 -4 109 -50 176 -28 39 -30 61 -21
188 6 96 10 105 58 124 35 14 39 19 33 39 -12 34 -17 182 -12 305 4 75 -22
126 -86 170 -43 28 -56 32 -115 32 -40 0 -78 -6 -96 -16z"/>
<path fill="#000000" stroke="none" d="M5862 2253 c-32 -15 -85 -68 -95 -95
-4 -9 -9 -7 -21 9 -33 44 -98 73 -164 73 -34 0 -62 -3 -62 -8 0 -4 15 -30 33
-57 l34 -49 -49 -77 -49 -77 27 -104 c14 -56 29 -127 33 -157 l6 -54 90 -31
90 -31 30 34 c17 19 50 49 75 67 32 23 56 54 85 108 50 93 78 111 151 92 46
-11 50 -15 67 -61 15 -40 16 -59 8 -117 -9 -64 -7 -78 29 -206 l37 -137 -18
-36 c-10 -20 -31 -51 -46 -70 -26 -30 -29 -43 -38 -153 -6 -73 -7 -144 -1
-178 8 -52 12 -58 44 -74 52 -24 132 -21 184 8 l43 23 3 647 2 647 -43 26
c-52 30 -149 35 -202 9 -31 -15 -34 -14 -81 15 -40 26 -58 31 -108 31 -35 0
-75 -7 -94 -17z"/>
<path fill="#ffffff" stroke="none" d="M6042 2197 c4 -6 8 -18 8 -25 0 -13
-57 -52 -77 -52 -19 0 -27 48 -14 77 10 22 16 24 43 19 18 -3 36 -12 40 -19z"/>
<path fill="#000000" stroke="none" d="M1594 1151 c-26 -60 -101 -85 -155 -52
-19 12 -37 21 -41 21 -4 0 8 -32 27 -71 46 -95 42 -147 -15 -200 -31 -29 -40
-46 -49 -92 -8 -43 -24 -77 -63 -132 -28 -41 -56 -75 -62 -75 -6 0 -26 9 -44
20 -32 20 -55 59 -66 112 -9 41 -75 74 -162 82 l-71 6 -7 -50 c-4 -28 -4 -67
-1 -88 3 -23 -7 -2 -28 52 l-34 90 -6 -40 c-4 -21 -7 -57 -8 -79 -1 -38 -2
-38 -11 15 -6 30 -14 60 -19 66 -4 5 -38 25 -73 43 -97 49 -105 43 -146 -94
-19 -64 -25 -74 -78 -114 -31 -25 -61 -44 -66 -43 -6 0 -33 67 -62 148 -28 82
-55 149 -60 151 -5 2 -31 -14 -59 -35 -92 -69 -122 -179 -71 -266 36 -63 63
-335 35 -363 -23 -23 48 -110 110 -135 14 -6 49 -10 77 -10 52 0 78 11 174 71
l45 28 31 -24 c17 -12 46 -26 65 -29 19 -4 46 -15 60 -25 35 -25 107 -40 155
-32 52 8 208 87 231 116 10 13 30 27 44 30 14 4 41 18 60 31 19 14 56 38 84
53 59 33 125 97 125 121 0 11 6 7 19 -13 10 -16 27 -38 39 -48 20 -18 21 -18
63 63 64 125 73 130 197 130 103 0 103 0 96 23 -9 31 -42 75 -63 87 -16 8 -19
4 -25 -30 l-6 -40 -58 37 c-90 57 -92 59 -85 112 5 42 3 49 -19 63 -34 22 -74
98 -52 98 26 0 96 41 91 53 -40 109 -49 153 -45 223 2 41 3 74 1 74 -1 0 -9
-18 -19 -39z"/>
</g>
</svg>
