<?xml version="1.0" standalone="no"?>
<!DOCTYPE svg PUBLIC "-//W3C//DTD SVG 20010904//EN"
 "http://www.w3.org/TR/2001/REC-SVG-20010904/DTD/svg10.dtd">
<svg version="1.0" xmlns="http://www.w3.org/2000/svg"
 width="32.000000pt" height="35.000000pt" viewBox="0 0 32.000000 35.000000"
 preserveAspectRatio="xMidYMid meet">
<metadata>
Created by potrace 1.14, written by Peter Selinger 2001-2017
</metadata>
<g transform="translate(0.000000,35.000000) scale(0.100000,-0.100000)"
fill="#000000" stroke="none">
<path fill="#000000" stroke="none" d="M25 327 c-11 -18 -13 -31 -5 -58 8 -27
7 -42 -6 -72 -21 -46 -9 -79 36 -105 16 -9 35 -30 41 -45 22 -52 43 -52 93 -2
41 40 50 45 91 45 51 0 56 7 20 34 -14 11 -25 29 -25 42 0 14 -10 32 -21 42
-12 9 -37 30 -55 45 -23 20 -40 27 -54 22 -16 -5 -20 -2 -20 18 0 52 -67 76
-95 34z"/>
</g>
</svg>
