<?xml version="1.0" standalone="no"?>
<!DOCTYPE svg PUBLIC "-//W3C//DTD SVG 20010904//EN"
 "http://www.w3.org/TR/2001/REC-SVG-20010904/DTD/svg10.dtd">
<svg version="1.0" xmlns="http://www.w3.org/2000/svg"
 width="93.000000pt" height="109.000000pt" viewBox="0 0 93.000000 109.000000"
 preserveAspectRatio="xMidYMid meet">
<metadata>
Created by potrace 1.14, written by Peter Selinger 2001-2017
</metadata>
<g transform="translate(0.000000,109.000000) scale(0.100000,-0.100000)"
fill="#000000" stroke="none">
<path fill="#000000" stroke="none" d="M350 1071 c-5 -11 -10 -35 -10 -55 0
-30 -4 -36 -34 -46 -53 -17 -66 -38 -61 -98 2 -28 6 -56 9 -61 3 -5 -7 -13
-22 -19 -21 -7 -33 -6 -47 4 -25 19 -61 18 -69 -2 -3 -9 -6 -33 -6 -54 0 -33
3 -38 27 -43 18 -3 37 2 54 14 15 10 32 19 37 19 7 0 9 -41 5 -122 -4 -75 -1
-143 5 -175 l11 -51 -42 -44 c-158 -164 -225 -261 -203 -296 3 -6 26 -17 50
-25 l45 -15 15 46 c12 34 41 72 115 147 68 69 109 121 135 170 20 39 43 78 51
89 14 18 15 18 47 -2 18 -12 57 -45 87 -76 51 -52 55 -59 82 -166 22 -84 37
-123 61 -152 l32 -40 59 6 c33 3 81 6 106 6 l46 1 -66 34 c-66 34 -67 36 -98
109 -17 41 -31 83 -31 93 0 10 -13 46 -30 80 -16 35 -32 80 -36 100 -8 45 -61
133 -112 185 l-36 38 28 97 c16 54 30 105 33 114 3 10 -15 28 -53 54 -57 37
-58 38 -36 53 20 13 20 16 7 42 -26 50 -134 79 -155 41z"/>
<path fill="#ffffff" stroke="none" d="M230 759 c0 -11 -4 -17 -10 -14 -5 3
-10 13 -10 21 0 8 5 14 10 14 6 0 10 -9 10 -21z"/>
</g>
</svg>
