<?xml version="1.0" standalone="no"?>
<!DOCTYPE svg PUBLIC "-//W3C//DTD SVG 20010904//EN"
 "http://www.w3.org/TR/2001/REC-SVG-20010904/DTD/svg10.dtd">
<svg version="1.0" xmlns="http://www.w3.org/2000/svg"
 width="22.000000pt" height="25.000000pt" viewBox="0 0 22.000000 25.000000"
 preserveAspectRatio="xMidYMid meet">
<metadata>
Created by potrace 1.14, written by Peter Selinger 2001-2017
</metadata>
<g transform="translate(0.000000,25.000000) scale(0.100000,-0.100000)"
fill="#000000" stroke="none">
<path fill="#000000" stroke="none" d="M36 238 c-11 -42 -29 -140 -33 -179 -4
-37 -1 -47 13 -53 9 -3 18 -5 19 -4 0 2 9 38 19 81 19 82 29 90 41 30 3 -20
13 -54 22 -75 14 -36 18 -38 59 -38 24 0 44 5 44 10 0 6 -13 10 -29 10 -34 0
-43 18 -65 128 -15 75 -33 101 -69 102 -10 0 -19 -6 -21 -12z"/>
</g>
</svg>
