<?xml version="1.0" standalone="no"?>
<!DOCTYPE svg PUBLIC "-//W3C//DTD SVG 20010904//EN"
 "http://www.w3.org/TR/2001/REC-SVG-20010904/DTD/svg10.dtd">
<svg version="1.0" xmlns="http://www.w3.org/2000/svg"
 width="146.000000pt" height="163.000000pt" viewBox="0 0 146.000000 163.000000"
 preserveAspectRatio="xMidYMid meet">
<metadata>
Created by potrace 1.14, written by Peter Selinger 2001-2017
</metadata>
<g transform="translate(0.000000,163.000000) scale(0.100000,-0.100000)"
fill="#000000" stroke="none">
<path fill="#000000" stroke="none" d="M534 1600 c-32 -15 -72 -42 -89 -60
-16 -18 -67 -57 -112 -86 -46 -30 -83 -55 -83 -57 2 -31 34 -113 49 -124 20
-13 20 -16 5 -38 -10 -15 -40 -33 -75 -46 -57 -21 -63 -27 -133 -125 l-73
-103 -6 -168 c-4 -92 -10 -309 -13 -480 l-7 -313 221 0 220 0 52 132 c29 73
62 171 74 218 l22 85 98 7 c54 4 120 14 146 23 27 9 75 15 107 14 63 -2 122 7
166 26 l29 12 -39 45 c-48 58 -89 66 -185 37 -37 -11 -70 -24 -73 -29 -3 -6
-33 -10 -65 -10 -78 0 -86 14 -69 113 7 40 13 73 14 75 1 1 31 -4 66 -13 81
-19 119 -19 119 -1 0 14 27 9 190 -41 39 -12 84 -16 155 -14 80 2 111 -1 151
-17 l52 -19 6 36 c9 55 9 54 -43 93 -34 26 -89 50 -178 79 -108 35 -145 52
-233 112 -155 104 -253 181 -269 211 -13 24 -12 28 8 50 21 23 22 25 7 61 -12
28 -15 54 -10 100 l6 61 -43 38 c-40 34 -44 41 -43 80 1 41 -1 44 -31 53 -26
9 -42 6 -91 -17z"/>
</g>
</svg>
