<?xml version="1.0" standalone="no"?>
<!DOCTYPE svg PUBLIC "-//W3C//DTD SVG 20010904//EN"
 "http://www.w3.org/TR/2001/REC-SVG-20010904/DTD/svg10.dtd">
<svg version="1.0" xmlns="http://www.w3.org/2000/svg"
 width="18.000000pt" height="21.000000pt" viewBox="0 0 18.000000 21.000000"
 preserveAspectRatio="xMidYMid meet">
<metadata>
Created by potrace 1.14, written by Peter Selinger 2001-2017
</metadata>
<g transform="translate(0.000000,21.000000) scale(0.100000,-0.100000)"
fill="#000000" stroke="none">
<path fill="#000000" stroke="none" d="M95 147 c-20 -34 -49 -71 -65 -83 l-30
-20 30 -22 c34 -26 86 -21 95 9 4 11 16 24 27 30 19 10 20 9 15 -13 -3 -13 -2
-30 3 -38 7 -10 10 15 10 76 0 86 -1 93 -24 108 -24 15 -25 15 -61 -47z"/>
</g>
</svg>
