<?xml version="1.0" standalone="no"?>
<!DOCTYPE svg PUBLIC "-//W3C//DTD SVG 20010904//EN"
 "http://www.w3.org/TR/2001/REC-SVG-20010904/DTD/svg10.dtd">
<svg version="1.0" xmlns="http://www.w3.org/2000/svg"
 width="325.000000pt" height="367.000000pt" viewBox="0 0 325.000000 367.000000"
 preserveAspectRatio="xMidYMid meet">
<metadata>
Created by potrace 1.14, written by Peter Selinger 2001-2017
</metadata>
<g transform="translate(0.000000,367.000000) scale(0.100000,-0.100000)"
fill="#000000" stroke="none">
<path fill="#000000" stroke="none" d="M473 3663 l-443 -3 0 -98 c0 -53 -7
-306 -15 -562 -8 -256 -14 -724 -15 -1040 l0 -575 53 -58 52 -58 110 32 c61
17 147 48 192 69 l82 38 41 132 c34 110 39 135 28 145 -7 7 -120 74 -251 150
-132 76 -241 143 -243 149 -2 6 9 78 26 160 16 82 30 152 30 155 0 3 59 -53
131 -124 83 -83 174 -187 250 -287 106 -141 119 -162 119 -198 0 -38 3 -42 61
-77 34 -21 109 -70 168 -110 164 -110 485 -301 561 -334 50 -21 85 -29 128
-29 l60 0 7 -97 c4 -56 15 -121 27 -153 19 -50 20 -76 18 -310 -1 -162 2 -270
9 -295 8 -30 29 -57 87 -109 l76 -69 62 30 61 30 30 -54 c27 -51 36 -58 98
-84 38 -16 73 -29 77 -29 5 0 11 28 15 63 l7 63 66 37 c97 53 108 65 136 140
25 67 25 69 10 135 -22 96 -23 99 -42 104 -10 3 -27 30 -41 64 -58 145 -140
246 -211 261 -40 8 -54 36 -75 153 -9 52 -23 114 -32 138 -8 24 -14 45 -12 47
2 1 72 38 154 81 l150 78 220 11 220 10 131 59 132 58 55 117 c53 111 58 127
111 396 30 154 67 369 81 478 30 239 27 285 -42 572 -89 373 -98 401 -164 508
l-60 97 -1022 -2 c-562 -2 -1221 -4 -1464 -5z"/>
</g>
</svg>
