<?xml version="1.0" standalone="no"?>
<!DOCTYPE svg PUBLIC "-//W3C//DTD SVG 20010904//EN"
 "http://www.w3.org/TR/2001/REC-SVG-20010904/DTD/svg10.dtd">
<svg version="1.0" xmlns="http://www.w3.org/2000/svg"
 width="33.000000pt" height="35.000000pt" viewBox="0 0 33.000000 35.000000"
 preserveAspectRatio="xMidYMid meet">
<metadata>
Created by potrace 1.14, written by Peter Selinger 2001-2017
</metadata>
<g transform="translate(0.000000,35.000000) scale(0.100000,-0.100000)"
fill="#000000" stroke="none">
<path fill="#000000" stroke="none" d="M48 338 c-29 -10 -30 -12 -33 -68 -1
-19 -5 -48 -9 -65 -6 -24 -2 -38 19 -68 20 -30 24 -46 19 -71 -7 -42 -1 -44
129 -51 56 -3 114 -8 130 -10 40 -6 34 13 -19 65 -67 65 -125 146 -118 165 7
17 -12 71 -34 98 -17 19 -43 21 -84 5z"/>
</g>
</svg>
