<?xml version="1.0" standalone="no"?>
<!DOCTYPE svg PUBLIC "-//W3C//DTD SVG 20010904//EN"
 "http://www.w3.org/TR/2001/REC-SVG-20010904/DTD/svg10.dtd">
<svg version="1.0" xmlns="http://www.w3.org/2000/svg"
 width="64.000000pt" height="70.000000pt" viewBox="0 0 64.000000 70.000000"
 preserveAspectRatio="xMidYMid meet">
<metadata>
Created by potrace 1.14, written by Peter Selinger 2001-2017
</metadata>
<g transform="translate(0.000000,70.000000) scale(0.100000,-0.100000)"
fill="#000000" stroke="none">
<path fill="#000000" stroke="none" d="M215 668 c-47 -112 -59 -136 -83 -161
-24 -25 -25 -30 -14 -60 7 -19 12 -45 12 -59 0 -22 -5 -26 -41 -31 -22 -3 -43
-7 -45 -10 -3 -3 -13 -38 -22 -78 -15 -62 -16 -85 -7 -142 7 -37 14 -70 17
-73 4 -3 42 -15 87 -28 78 -21 86 -21 248 -9 93 6 171 12 175 12 11 1 86 243
90 288 l3 42 -90 32 c-49 17 -95 38 -101 45 -6 8 -17 42 -23 77 -26 132 -39
164 -73 176 -17 6 -51 11 -75 11 -40 0 -45 -3 -58 -32z"/>
</g>
</svg>
