<?xml version="1.0" standalone="no"?>
<!DOCTYPE svg PUBLIC "-//W3C//DTD SVG 20010904//EN"
 "http://www.w3.org/TR/2001/REC-SVG-20010904/DTD/svg10.dtd">
<svg version="1.0" xmlns="http://www.w3.org/2000/svg"
 width="36.000000pt" height="40.000000pt" viewBox="0 0 36.000000 40.000000"
 preserveAspectRatio="xMidYMid meet">
<metadata>
Created by potrace 1.14, written by Peter Selinger 2001-2017
</metadata>
<g transform="translate(0.000000,40.000000) scale(0.100000,-0.100000)"
fill="#000000" stroke="none">
<path fill="#000000" stroke="none" d="M103 386 c-50 -6 -94 -14 -98 -17 -3
-4 -3 -29 1 -57 6 -44 10 -51 33 -55 23 -5 28 -13 39 -65 7 -33 22 -89 33
-126 20 -64 22 -66 54 -66 41 0 53 15 30 40 -17 19 -45 109 -45 148 0 18 5 22
34 22 42 0 47 -11 47 -112 l0 -79 62 3 c75 4 88 24 32 51 l-35 17 0 87 c0 67
-4 91 -17 105 -12 13 -16 33 -14 68 l2 50 -33 -1 c-18 -1 -74 -7 -125 -13z"/>
</g>
</svg>
