<?xml version="1.0" standalone="no"?>
<!DOCTYPE svg PUBLIC "-//W3C//DTD SVG 20010904//EN"
 "http://www.w3.org/TR/2001/REC-SVG-20010904/DTD/svg10.dtd">
<svg version="1.0" xmlns="http://www.w3.org/2000/svg"
 width="94.000000pt" height="108.000000pt" viewBox="0 0 94.000000 108.000000"
 preserveAspectRatio="xMidYMid meet">
<metadata>
Created by potrace 1.14, written by Peter Selinger 2001-2017
</metadata>
<g transform="translate(0.000000,108.000000) scale(0.100000,-0.100000)"
fill="#000000" stroke="none">
<path fill="#000000" stroke="none" d="M377 1052 c-19 -19 -27 -39 -27 -63 0
-31 -13 -47 -127 -160 -71 -70 -149 -139 -175 -154 l-48 -27 23 -27 c20 -25
25 -27 54 -17 17 6 79 58 138 114 59 57 108 102 109 100 37 -53 102 -170 111
-201 11 -39 9 -53 -26 -180 l-37 -139 54 -102 c30 -57 54 -109 54 -117 0 -8
-14 -22 -31 -32 -18 -10 -29 -20 -26 -23 3 -4 37 -3 75 1 l69 7 -17 76 c-9 43
-31 105 -49 140 -30 60 -31 63 -15 93 8 17 17 29 19 27 3 -2 21 -49 40 -104
20 -54 49 -118 66 -141 l29 -42 -30 -21 c-32 -23 -34 -28 -22 -48 7 -10 20 -8
63 9 67 28 75 34 61 52 -7 8 -19 49 -28 93 -13 60 -24 88 -50 120 -19 23 -34
50 -34 61 0 11 16 64 35 117 l34 95 -34 81 c-19 44 -39 99 -45 122 -6 24 -13
51 -16 60 -4 12 35 0 150 -50 139 -59 157 -70 179 -105 26 -39 26 -39 32 -14
16 62 -8 82 -248 207 -170 88 -178 94 -175 120 1 16 -7 42 -22 64 -32 46 -73
49 -113 8z"/>
</g>
</svg>
