<?xml version="1.0" standalone="no"?>
<!DOCTYPE svg PUBLIC "-//W3C//DTD SVG 20010904//EN"
 "http://www.w3.org/TR/2001/REC-SVG-20010904/DTD/svg10.dtd">
<svg version="1.0" xmlns="http://www.w3.org/2000/svg"
 width="116.000000pt" height="123.000000pt" viewBox="0 0 116.000000 123.000000"
 preserveAspectRatio="xMidYMid meet">
<metadata>
Created by potrace 1.14, written by Peter Selinger 2001-2017
</metadata>
<g transform="translate(0.000000,123.000000) scale(0.100000,-0.100000)"
fill="#000000" stroke="none">
<path fill="#000000" stroke="none" d="M949 1202 l-76 -25 -44 -90 c-24 -49
-57 -100 -73 -114 -18 -15 -34 -42 -40 -67 -8 -31 -24 -53 -57 -82 -112 -96
-349 -284 -423 -336 -73 -52 -86 -58 -131 -58 -28 1 -58 7 -69 15 -33 25 -38
17 -13 -20 l24 -35 -18 -108 c-11 -59 -17 -112 -15 -118 2 -6 25 -17 49 -24
38 -10 51 -21 81 -66 20 -30 40 -54 44 -54 5 0 37 11 71 25 l63 24 43 -34 42
-35 149 21 c128 19 156 20 210 10 56 -11 66 -11 110 7 27 12 76 23 109 27 81
8 95 13 95 34 0 32 -32 49 -105 55 -133 12 -136 14 -123 41 8 19 4 47 -23 144
-18 66 -31 122 -28 124 2 2 27 22 55 45 29 23 56 42 61 42 6 0 16 -51 24 -112
l14 -113 33 -3 33 -3 -6 58 c-3 32 -12 119 -19 193 l-13 135 62 100 c35 56 75
125 90 154 l27 53 -17 69 c-15 59 -23 73 -58 102 -23 18 -46 36 -52 39 -5 3
-44 -6 -86 -20z"/>
</g>
</svg>
