<?xml version="1.0" standalone="no"?>
<!DOCTYPE svg PUBLIC "-//W3C//DTD SVG 20010904//EN"
 "http://www.w3.org/TR/2001/REC-SVG-20010904/DTD/svg10.dtd">
<svg version="1.0" xmlns="http://www.w3.org/2000/svg"
 width="175.000000pt" height="199.000000pt" viewBox="0 0 175.000000 199.000000"
 preserveAspectRatio="xMidYMid meet">
<metadata>
Created by potrace 1.14, written by Peter Selinger 2001-2017
</metadata>
<g transform="translate(0.000000,199.000000) scale(0.100000,-0.100000)"
fill="#000000" stroke="none">
<path fill="#000000" stroke="none" d="M1107 1981 c-53 -8 -82 -36 -144 -138
-39 -63 -39 -63 -14 -111 12 -24 21 -71 26 -137 6 -77 14 -116 36 -169 l30
-69 -46 -136 c-80 -239 -87 -250 -270 -416 -176 -161 -237 -200 -349 -221 -84
-16 -119 -50 -136 -131 l-11 -52 -112 -37 c-62 -20 -113 -38 -115 -39 -2 -2 1
-21 7 -42 10 -37 14 -40 100 -73 85 -33 89 -36 90 -65 0 -16 7 -50 14 -75 l14
-45 114 -8 c167 -12 187 -12 271 3 73 13 78 15 84 43 3 16 22 43 41 60 l35 31
-2 135 c-4 218 -5 212 29 205 33 -7 73 14 111 58 22 25 36 30 85 35 50 4 63 2
77 -13 16 -18 14 -23 -25 -92 -23 -40 -46 -71 -52 -68 -6 2 -9 -11 -7 -36 l4
-40 27 26 c15 15 35 51 45 81 17 54 17 55 41 39 13 -8 26 -22 29 -31 4 -8 12
-13 19 -11 6 3 50 0 97 -7 l85 -11 -75 -25 c-69 -22 -75 -26 -72 -49 2 -14 6
-51 9 -82 l5 -56 71 -15 c40 -9 90 -18 111 -22 21 -4 55 -19 75 -35 20 -16 47
-31 60 -32 23 -3 29 8 93 182 152 410 164 500 98 782 -22 95 -47 179 -55 187
-11 11 -15 12 -15 2 0 -8 -11 -4 -32 10 -40 29 -52 43 -78 96 -12 23 -28 47
-36 54 -29 24 -42 76 -53 215 -14 166 -37 235 -99 305 l-44 49 -71 -1 c-40 -1
-93 -5 -120 -8z"/>
</g>
</svg>
