<?xml version="1.0" standalone="no"?>
<!DOCTYPE svg PUBLIC "-//W3C//DTD SVG 20010904//EN"
 "http://www.w3.org/TR/2001/REC-SVG-20010904/DTD/svg10.dtd">
<svg version="1.0" xmlns="http://www.w3.org/2000/svg"
 width="32.000000pt" height="35.000000pt" viewBox="0 0 32.000000 35.000000"
 preserveAspectRatio="xMidYMid meet">
<metadata>
Created by potrace 1.14, written by Peter Selinger 2001-2017
</metadata>
<g transform="translate(0.000000,35.000000) scale(0.100000,-0.100000)"
fill="#000000" stroke="none">
<path fill="#000000" stroke="none" d="M32 317 c-53 -55 -34 -117 36 -117 38
0 53 -32 28 -59 -17 -19 -22 -51 -7 -51 5 0 11 -12 14 -27 11 -47 22 -55 85
-60 54 -4 61 -3 76 18 22 32 20 48 -9 91 -14 20 -25 39 -25 42 0 4 13 6 30 6
40 0 64 36 55 84 -4 19 -12 39 -19 44 -14 12 -69 23 -121 25 -25 1 -45 9 -53
20 -20 26 -55 20 -90 -16z"/>
</g>
</svg>
