<?xml version="1.0" standalone="no"?>
<!DOCTYPE svg PUBLIC "-//W3C//DTD SVG 20010904//EN"
 "http://www.w3.org/TR/2001/REC-SVG-20010904/DTD/svg10.dtd">
<svg version="1.0" xmlns="http://www.w3.org/2000/svg"
 width="46.000000pt" height="53.000000pt" viewBox="0 0 46.000000 53.000000"
 preserveAspectRatio="xMidYMid meet">
<metadata>
Created by potrace 1.14, written by Peter Selinger 2001-2017
</metadata>
<g transform="translate(0.000000,53.000000) scale(0.100000,-0.100000)"
fill="#000000" stroke="none">
<path fill="#000000" stroke="none" d="M315 524 c-11 -2 -73 -6 -138 -10
l-118 -6 7 -82 c4 -46 18 -114 34 -158 26 -75 26 -78 11 -124 -14 -41 -21 -49
-61 -64 -37 -15 -45 -22 -45 -44 0 -14 3 -26 8 -27 34 -5 248 16 255 25 9 11
180 444 190 479 4 15 -3 17 -59 16 -35 -1 -73 -3 -84 -5z"/>
</g>
</svg>
