<?xml version="1.0" standalone="no"?>
<!DOCTYPE svg PUBLIC "-//W3C//DTD SVG 20010904//EN"
 "http://www.w3.org/TR/2001/REC-SVG-20010904/DTD/svg10.dtd">
<svg version="1.0" xmlns="http://www.w3.org/2000/svg"
 width="34.000000pt" height="37.000000pt" viewBox="0 0 34.000000 37.000000"
 preserveAspectRatio="xMidYMid meet">
<metadata>
Created by potrace 1.14, written by Peter Selinger 2001-2017
</metadata>
<g transform="translate(0.000000,37.000000) scale(0.100000,-0.100000)"
fill="#000000" stroke="none">
<path fill="#000000" stroke="none" d="M143 355 c-35 -15 -38 -21 -23 -45 11
-18 -5 -40 -30 -40 -10 0 -21 7 -24 16 -3 9 -15 14 -28 12 -24 -3 -36 -35 -30
-80 4 -23 10 -28 48 -34 51 -7 52 -12 28 -110 -9 -36 -14 -67 -11 -70 6 -7
167 75 224 113 l42 29 -31 51 c-21 34 -41 54 -64 62 -23 8 -36 20 -39 37 -18
86 -12 81 -62 59z"/>
</g>
</svg>
