<?xml version="1.0" standalone="no"?>
<!DOCTYPE svg PUBLIC "-//W3C//DTD SVG 20010904//EN"
 "http://www.w3.org/TR/2001/REC-SVG-20010904/DTD/svg10.dtd">
<svg version="1.0" xmlns="http://www.w3.org/2000/svg"
 width="78.000000pt" height="86.000000pt" viewBox="0 0 78.000000 86.000000"
 preserveAspectRatio="xMidYMid meet">
<metadata>
Created by potrace 1.14, written by Peter Selinger 2001-2017
</metadata>
<g transform="translate(0.000000,86.000000) scale(0.100000,-0.100000)"
fill="#000000" stroke="none">
<path fill="#000000" stroke="none" d="M506 820 c-49 -54 -58 -101 -31 -164 5
-12 5 -17 -1 -13 -5 3 -46 7 -89 8 -79 3 -81 2 -132 -35 -42 -32 -52 -46 -57
-78 -4 -26 -1 -48 10 -69 24 -48 12 -91 -38 -131 -35 -27 -51 -33 -105 -36
-60 -4 -64 -6 -59 -26 3 -11 8 -40 12 -64 6 -37 12 -46 45 -62 50 -26 53 -26
75 15 10 19 20 35 21 35 1 0 21 -7 44 -17 l42 -16 -6 -73 -5 -72 31 -6 c18 -3
60 -8 93 -12 l62 -6 11 63 c6 35 14 85 17 111 7 54 8 54 144 84 57 12 81 23
102 45 15 16 33 29 41 29 8 0 22 12 32 26 21 32 16 69 -20 165 -21 54 -34 73
-62 90 l-35 22 6 71 c4 39 9 78 12 87 5 19 -71 69 -104 69 -11 0 -36 -18 -56
-40z"/>
</g>
</svg>
