<?xml version="1.0" standalone="no"?>
<!DOCTYPE svg PUBLIC "-//W3C//DTD SVG 20010904//EN"
 "http://www.w3.org/TR/2001/REC-SVG-20010904/DTD/svg10.dtd">
<svg version="1.0" xmlns="http://www.w3.org/2000/svg"
 width="37.000000pt" height="41.000000pt" viewBox="0 0 37.000000 41.000000"
 preserveAspectRatio="xMidYMid meet">
<metadata>
Created by potrace 1.14, written by Peter Selinger 2001-2017
</metadata>
<g transform="translate(0.000000,41.000000) scale(0.100000,-0.100000)"
fill="#000000" stroke="none">
<path fill="#000000" stroke="none" d="M6 364 c-3 -26 -6 -106 -6 -179 l0
-132 37 -16 c60 -25 71 -27 203 -29 l124 -3 -3 100 c-1 55 -5 103 -7 106 -2 3
-32 12 -66 19 -34 6 -83 22 -107 35 l-45 22 25 13 c45 24 54 60 14 60 -14 0
-48 11 -75 25 -73 37 -86 34 -94 -21z"/>
</g>
</svg>
