<?xml version="1.0" standalone="no"?>
<!DOCTYPE svg PUBLIC "-//W3C//DTD SVG 20010904//EN"
 "http://www.w3.org/TR/2001/REC-SVG-20010904/DTD/svg10.dtd">
<svg version="1.0" xmlns="http://www.w3.org/2000/svg"
 width="225.000000pt" height="244.000000pt" viewBox="0 0 225.000000 244.000000"
 preserveAspectRatio="xMidYMid meet">
<metadata>
Created by potrace 1.14, written by Peter Selinger 2001-2017
</metadata>
<g transform="translate(0.000000,244.000000) scale(0.100000,-0.100000)"
fill="#000000" stroke="none">
<path fill="#000000" stroke="none" d="M1490 2423 c-19 -8 -105 -27 -190 -42
l-154 -26 -74 -95 c-86 -111 -146 -225 -192 -365 l-32 -100 -102 -103 c-55
-57 -117 -112 -136 -123 -31 -17 -40 -33 -74 -123 -35 -96 -37 -107 -26 -143
20 -61 64 -100 129 -113 31 -7 65 -14 77 -16 15 -4 49 17 120 72 89 69 94 72
52 28 -31 -33 -87 -122 -168 -269 -73 -132 -139 -238 -164 -265 -24 -25 -89
-110 -146 -190 -178 -251 -246 -331 -332 -390 -43 -30 -78 -54 -78 -56 0 -1 7
-18 16 -39 13 -33 19 -37 42 -32 15 3 87 13 160 23 l133 18 33 46 c19 25 58
85 87 135 29 50 89 133 134 185 45 52 110 140 145 195 44 71 104 144 207 252
80 84 149 153 153 153 5 0 13 -14 19 -31 6 -16 32 -69 59 -117 l49 -87 18
-160 c10 -88 21 -163 24 -168 4 -4 56 -12 117 -17 l109 -11 60 -59 c54 -53
467 -392 471 -387 48 66 214 310 214 315 0 4 -5 24 -11 45 -9 33 -23 46 -107
102 l-97 63 -255 37 c-140 21 -258 40 -261 44 -4 3 -21 53 -39 111 l-32 104
33 156 c31 151 34 157 96 256 58 93 65 110 83 205 17 89 20 147 20 397 l0 293
-59 78 c-57 74 -59 80 -66 154 -8 83 -9 84 -65 60z"/>
</g>
</svg>
