<?xml version="1.0" standalone="no"?>
<!DOCTYPE svg PUBLIC "-//W3C//DTD SVG 20010904//EN"
 "http://www.w3.org/TR/2001/REC-SVG-20010904/DTD/svg10.dtd">
<svg version="1.0" xmlns="http://www.w3.org/2000/svg"
 width="375.000000pt" height="420.000000pt" viewBox="0 0 375.000000 420.000000"
 preserveAspectRatio="xMidYMid meet">
<metadata>
Created by potrace 1.14, written by Peter Selinger 2001-2017
</metadata>
<g transform="translate(0.000000,420.000000) scale(0.100000,-0.100000)"
fill="#000000" stroke="none">
<path fill="#000000" stroke="none" d="M1970 4184 c-641 -6 -1287 -12 -1435
-13 l-271 -1 -2 -32 c-1 -18 -9 -85 -17 -148 -18 -137 -18 -143 -4 -134 7 4 9
0 5 -12 -3 -11 -49 -228 -102 -484 l-96 -465 -24 -300 c-13 -165 -24 -338 -24
-385 l0 -85 78 -42 c121 -65 112 -52 128 -199 7 -72 51 -314 99 -543 l85 -413
6 -217 6 -216 101 -212 101 -211 45 -21 c40 -18 80 -22 301 -31 140 -5 289
-13 331 -16 l76 -5 -28 153 c-18 92 -41 288 -59 493 -17 187 -41 420 -54 518
-22 171 -25 180 -54 210 -25 27 -34 49 -52 141 -12 59 -33 138 -47 175 -14 36
-34 95 -45 130 -11 35 -22 69 -24 76 -3 8 6 15 23 18 21 4 393 91 515 121 10
2 15 -1 12 -9 -3 -7 21 -46 54 -86 32 -41 71 -95 86 -122 l28 -47 -33 -14
c-19 -8 -59 -22 -90 -31 l-55 -18 -12 -82 c-10 -68 -10 -95 2 -151 11 -51 12
-87 6 -139 -13 -97 -12 -730 1 -840 5 -49 33 -174 62 -278 l52 -187 60 0 c112
0 1678 70 1683 75 6 5 -14 494 -28 710 -5 78 -25 283 -44 457 -35 314 -35 317
-82 444 -26 71 -48 130 -48 131 -1 1 -39 7 -86 13 -47 6 -88 15 -93 19 -4 4
-12 43 -17 88 -7 57 -19 96 -40 134 -16 30 -30 57 -30 61 -1 30 196 50 580 61
l74 2 51 142 c27 79 52 143 55 143 3 0 14 -16 24 -35 11 -19 23 -35 27 -35 21
0 16 54 -25 241 -42 193 -48 214 -128 389 -46 103 -121 244 -167 318 -68 111
-91 159 -132 278 l-49 144 7 195 6 195 -54 -2 c-30 0 -578 -7 -1219 -14z"/>
</g>
</svg>
