<?xml version="1.0" standalone="no"?>
<!DOCTYPE svg PUBLIC "-//W3C//DTD SVG 20010904//EN"
 "http://www.w3.org/TR/2001/REC-SVG-20010904/DTD/svg10.dtd">
<svg version="1.0" xmlns="http://www.w3.org/2000/svg"
 width="122.000000pt" height="130.000000pt" viewBox="0 0 122.000000 130.000000"
 preserveAspectRatio="xMidYMid meet">
<metadata>
Created by potrace 1.14, written by Peter Selinger 2001-2017
</metadata>
<g transform="translate(0.000000,130.000000) scale(0.100000,-0.100000)"
fill="#000000" stroke="none">
<path fill="#000000" stroke="none" d="M638 1258 c-40 -37 -50 -54 -68 -117
l-22 -74 39 -39 c21 -22 61 -52 89 -69 l52 -29 16 -113 c10 -61 19 -119 21
-127 4 -13 -10 -15 -83 -15 -86 0 -88 -1 -191 -55 l-104 -55 -78 -125 c-90
-147 -121 -180 -206 -215 -45 -20 -67 -36 -82 -60 l-20 -34 34 -21 c45 -28
182 -52 208 -36 33 19 126 173 144 237 9 32 18 58 19 56 2 -1 -3 -79 -11 -172
-10 -129 -10 -172 -2 -178 15 -9 57 -20 61 -16 10 11 116 230 115 236 -1 5 2
28 6 52 l8 44 94 -6 c147 -9 163 2 163 114 l0 56 53 7 c28 3 92 6 140 6 96 0
176 15 183 35 3 7 -25 63 -62 125 -37 63 -79 150 -94 196 -28 86 -78 165 -136
216 -32 28 -34 34 -34 92 l0 61 -53 27 c-28 16 -74 31 -102 34 -48 5 -52 4
-97 -38z"/>
</g>
</svg>
