<?xml version="1.0" standalone="no"?>
<!DOCTYPE svg PUBLIC "-//W3C//DTD SVG 20010904//EN"
 "http://www.w3.org/TR/2001/REC-SVG-20010904/DTD/svg10.dtd">
<svg version="1.0" xmlns="http://www.w3.org/2000/svg"
 width="38.000000pt" height="43.000000pt" viewBox="0 0 38.000000 43.000000"
 preserveAspectRatio="xMidYMid meet">
<metadata>
Created by potrace 1.14, written by Peter Selinger 2001-2017
</metadata>
<g transform="translate(0.000000,43.000000) scale(0.100000,-0.100000)"
fill="#000000" stroke="none">
<path fill="#000000" stroke="none" d="M187 412 c-10 -10 -17 -33 -17 -50 0
-51 -16 -82 -43 -82 -37 0 -57 -30 -57 -84 0 -42 -4 -51 -35 -79 -39 -34 -47
-75 -19 -98 14 -11 21 -10 46 4 45 26 178 19 178 -9 0 -8 5 -14 11 -14 6 0 8
7 4 18 -5 14 -4 15 6 4 22 -21 86 -15 103 10 31 44 7 108 -39 108 -40 0 -39
19 4 65 23 25 41 52 41 61 0 29 -59 143 -79 154 -31 16 -86 12 -104 -8z"/>
</g>
</svg>
