<?xml version="1.0" standalone="no"?>
<!DOCTYPE svg PUBLIC "-//W3C//DTD SVG 20010904//EN"
 "http://www.w3.org/TR/2001/REC-SVG-20010904/DTD/svg10.dtd">
<svg version="1.0" xmlns="http://www.w3.org/2000/svg"
 width="35.000000pt" height="41.000000pt" viewBox="0 0 35.000000 41.000000"
 preserveAspectRatio="xMidYMid meet">
<metadata>
Created by potrace 1.14, written by Peter Selinger 2001-2017
</metadata>
<g transform="translate(0.000000,41.000000) scale(0.100000,-0.100000)"
fill="#000000" stroke="none">
<path fill="#000000" stroke="none" d="M43 391 c-25 -21 -31 -77 -13 -111 8
-15 6 -21 -9 -30 -20 -10 -19 -11 3 -63 13 -28 26 -66 30 -83 5 -21 22 -42 57
-67 48 -36 51 -37 89 -26 43 13 47 18 28 38 -11 10 -8 10 15 2 15 -6 41 -18
58 -27 26 -13 33 -14 40 -2 14 21 11 27 -29 47 -20 10 -52 41 -71 67 -19 27
-45 61 -58 75 -20 22 -22 32 -17 72 4 31 12 47 21 47 9 0 3 14 -18 40 -27 33
-38 40 -68 40 -20 -1 -46 -9 -58 -19z"/>
</g>
</svg>
