<?xml version="1.0" standalone="no"?>
<!DOCTYPE svg PUBLIC "-//W3C//DTD SVG 20010904//EN"
 "http://www.w3.org/TR/2001/REC-SVG-20010904/DTD/svg10.dtd">
<svg version="1.0" xmlns="http://www.w3.org/2000/svg"
 width="274.000000pt" height="308.000000pt" viewBox="0 0 274.000000 308.000000"
 preserveAspectRatio="xMidYMid meet">
<metadata>
Created by potrace 1.14, written by Peter Selinger 2001-2017
</metadata>
<g transform="translate(0.000000,308.000000) scale(0.100000,-0.100000)"
fill="#000000" stroke="none">
<path fill="#000000" stroke="none" d="M1975 2689 c-316 -251 -583 -474 -751
-625 l-260 -235 -203 -422 c-194 -405 -633 -1222 -725 -1352 l-36 -50 1197 -3
1198 -3 25 32 c14 17 92 115 174 217 l149 185 -82 76 -83 76 -4 60 c-2 33 -25
582 -50 1220 -25 638 -48 1172 -52 1187 -7 27 -18 19 -497 -363z"/>
</g>
</svg>
