<?xml version="1.0" standalone="no"?>
<!DOCTYPE svg PUBLIC "-//W3C//DTD SVG 20010904//EN"
 "http://www.w3.org/TR/2001/REC-SVG-20010904/DTD/svg10.dtd">
<svg version="1.0" xmlns="http://www.w3.org/2000/svg"
 width="41.000000pt" height="45.000000pt" viewBox="0 0 41.000000 45.000000"
 preserveAspectRatio="xMidYMid meet">
<metadata>
Created by potrace 1.14, written by Peter Selinger 2001-2017
</metadata>
<g transform="translate(0.000000,45.000000) scale(0.100000,-0.100000)"
fill="#000000" stroke="none">
<path fill="#000000" stroke="none" d="M130 353 c-45 -54 -88 -113 -96 -132
-13 -32 -13 -37 11 -79 25 -45 25 -46 7 -66 -11 -12 -27 -33 -36 -47 l-17 -27
68 5 c91 6 113 11 113 27 0 25 39 62 78 75 34 12 41 19 47 48 6 34 21 45 78
58 27 5 27 6 11 31 -10 14 -37 39 -61 55 -40 28 -43 33 -43 74 0 49 -19 75
-56 75 -18 0 -43 -24 -104 -97z"/>
</g>
</svg>
