<?xml version="1.0" standalone="no"?>
<!DOCTYPE svg PUBLIC "-//W3C//DTD SVG 20010904//EN"
 "http://www.w3.org/TR/2001/REC-SVG-20010904/DTD/svg10.dtd">
<svg version="1.0" xmlns="http://www.w3.org/2000/svg"
 width="19.000000pt" height="22.000000pt" viewBox="0 0 19.000000 22.000000"
 preserveAspectRatio="xMidYMid meet">
<metadata>
Created by potrace 1.14, written by Peter Selinger 2001-2017
</metadata>
<g transform="translate(0.000000,22.000000) scale(0.100000,-0.100000)"
fill="#000000" stroke="none">
<path fill="#000000" stroke="none" d="M26 198 c-9 -12 -13 -31 -10 -43 3 -11
1 -32 -5 -46 -7 -20 -5 -36 9 -67 l19 -42 60 0 c58 0 60 1 66 30 4 16 3 34 0
40 -4 6 1 17 11 25 17 12 17 14 -10 36 -16 13 -40 34 -53 47 -42 39 -70 45
-87 20z"/>
</g>
</svg>
