<?xml version="1.0" standalone="no"?>
<!DOCTYPE svg PUBLIC "-//W3C//DTD SVG 20010904//EN"
 "http://www.w3.org/TR/2001/REC-SVG-20010904/DTD/svg10.dtd">
<svg version="1.0" xmlns="http://www.w3.org/2000/svg"
 width="223.000000pt" height="235.000000pt" viewBox="0 0 223.000000 235.000000"
 preserveAspectRatio="xMidYMid meet">
<metadata>
Created by potrace 1.14, written by Peter Selinger 2001-2017
</metadata>
<g transform="translate(0.000000,235.000000) scale(0.100000,-0.100000)"
fill="#000000" stroke="none">
<path fill="#000000" stroke="none" d="M1597 2303 c-41 -82 -70 -212 -60 -264
5 -25 5 -67 0 -100 -9 -54 -11 -57 -71 -96 -53 -36 -85 -47 -251 -87 -234 -57
-411 -76 -695 -76 -189 0 -441 -13 -481 -25 -9 -3 -21 -15 -26 -28 -9 -18 -6
-25 14 -41 20 -15 38 -17 99 -14 67 3 73 2 68 -14 -3 -10 4 -34 16 -52 l21
-35 72 41 c39 23 94 47 120 54 48 12 51 12 158 -32 l109 -45 189 7 189 7 16
-31 17 -32 102 0 c56 0 111 -3 122 -6 l21 -5 -18 -197 c-18 -202 -23 -415 -12
-472 5 -21 30 -55 75 -101 l69 -70 0 -62 c0 -132 -2 -128 139 -225 76 -52 171
-130 239 -196 61 -60 112 -105 112 -100 0 5 7 63 15 129 8 66 15 127 15 135 0
9 24 28 55 43 37 18 56 34 59 49 2 13 12 145 21 293 22 379 19 360 69 466 l44
94 -14 180 c-12 156 -36 324 -50 346 -2 4 -19 11 -37 14 -59 13 -130 56 -184
113 -29 31 -55 64 -58 73 -3 10 10 50 30 90 32 63 36 77 30 119 -6 42 -15 56
-81 124 l-75 76 -84 0 -85 0 -23 -47z"/>
</g>
</svg>
