<?xml version="1.0" standalone="no"?>
<!DOCTYPE svg PUBLIC "-//W3C//DTD SVG 20010904//EN"
 "http://www.w3.org/TR/2001/REC-SVG-20010904/DTD/svg10.dtd">
<svg version="1.0" xmlns="http://www.w3.org/2000/svg"
 width="65.000000pt" height="71.000000pt" viewBox="0 0 65.000000 71.000000"
 preserveAspectRatio="xMidYMid meet">
<metadata>
Created by potrace 1.14, written by Peter Selinger 2001-2017
</metadata>
<g transform="translate(0.000000,71.000000) scale(0.100000,-0.100000)"
fill="#000000" stroke="none">
<path fill="#000000" stroke="none" d="M532 692 c-12 -10 -26 -31 -30 -47 -8
-30 -9 -30 -91 -33 -102 -3 -270 28 -308 58 -44 34 -103 22 -103 -21 0 -27 40
-49 90 -49 45 -1 216 -33 226 -43 3 -2 -22 -14 -55 -25 -76 -26 -121 -60 -161
-121 -38 -61 -34 -101 16 -132 18 -11 51 -43 74 -71 38 -49 39 -52 21 -64 -31
-22 -72 -100 -63 -121 6 -16 14 -17 81 -9 l74 8 -24 18 c-23 18 -23 19 -5 39
10 11 42 30 72 42 34 14 54 29 54 39 0 20 56 110 68 110 17 0 61 -74 71 -118
5 -24 12 -46 15 -50 8 -8 75 -6 84 2 7 8 -18 52 -69 122 -52 71 -66 147 -40
213 11 25 22 54 25 64 3 10 15 17 30 17 20 0 30 9 46 40 26 51 25 79 -3 111
-29 35 -66 43 -95 21z"/>
</g>
</svg>
