<?xml version="1.0" standalone="no"?>
<!DOCTYPE svg PUBLIC "-//W3C//DTD SVG 20010904//EN"
 "http://www.w3.org/TR/2001/REC-SVG-20010904/DTD/svg10.dtd">
<svg version="1.0" xmlns="http://www.w3.org/2000/svg"
 width="232.000000pt" height="266.000000pt" viewBox="0 0 232.000000 266.000000"
 preserveAspectRatio="xMidYMid meet">
<metadata>
Created by potrace 1.14, written by Peter Selinger 2001-2017
</metadata>
<g transform="translate(0.000000,266.000000) scale(0.100000,-0.100000)"
fill="#000000" stroke="none">
<path fill="#000000" stroke="none" d="M925 2651 c-22 -3 -66 -20 -98 -36 -52
-26 -58 -33 -53 -55 2 -14 0 -61 -6 -105 -9 -71 -14 -83 -41 -107 -24 -22 -41
-28 -75 -28 -54 0 -75 -11 -101 -53 -35 -56 -18 -133 119 -542 l90 -270 0
-135 1 -135 47 -84 48 -84 -39 -107 -39 -108 -99 -57 c-55 -31 -99 -59 -99
-61 0 -10 54 -90 71 -107 24 -23 24 -61 -1 -101 -14 -24 -38 -40 -97 -64 -82
-33 -93 -35 -160 -33 -40 1 -43 3 -53 41 -6 22 -12 40 -14 40 -1 0 -42 -14
-92 -30 -82 -28 -95 -36 -161 -102 -40 -40 -73 -75 -73 -78 0 -4 70 -61 155
-129 l155 -122 59 12 c71 14 71 13 71 161 0 93 2 107 18 112 9 3 69 21 132 41
l115 37 64 74 c52 61 77 82 141 114 l77 39 128 215 c70 119 132 216 137 216
27 0 182 -134 251 -218 95 -117 216 -341 242 -449 11 -48 22 -74 33 -77 18 -5
486 -96 495 -96 3 0 15 15 26 33 l21 34 -28 51 c-14 28 -39 58 -54 66 -14 9
-72 54 -127 101 -56 47 -113 92 -127 102 -16 10 -51 68 -96 157 -76 152 -126
224 -224 326 -66 69 -154 191 -281 391 -85 133 -101 177 -124 340 l-12 86 32
46 c17 25 31 51 31 58 0 6 -14 55 -31 108 -29 90 -30 100 -20 159 17 95 6 156
-42 222 -87 119 -136 168 -184 184 -26 9 -51 15 -57 14 -6 0 -29 -4 -51 -7z"/>
</g>
</svg>
