<?xml version="1.0" standalone="no"?>
<!DOCTYPE svg PUBLIC "-//W3C//DTD SVG 20010904//EN"
 "http://www.w3.org/TR/2001/REC-SVG-20010904/DTD/svg10.dtd">
<svg version="1.0" xmlns="http://www.w3.org/2000/svg"
 width="280.000000pt" height="325.000000pt" viewBox="0 0 280.000000 325.000000"
 preserveAspectRatio="xMidYMid meet">
<metadata>
Created by potrace 1.14, written by Peter Selinger 2001-2017
</metadata>
<g transform="translate(0.000000,325.000000) scale(0.100000,-0.100000)"
fill="#000000" stroke="none">
<path fill="#000000" stroke="none" d="M1775 3230 c-27 -9 -83 -34 -124 -54
l-74 -38 -99 11 c-54 6 -158 11 -231 11 -112 0 -146 -4 -218 -25 -46 -13 -107
-25 -135 -25 -60 0 -240 -58 -297 -96 -22 -14 -80 -43 -128 -63 -129 -54 -212
-125 -276 -238 -28 -48 -53 -98 -57 -110 -4 -12 -36 -70 -72 -129 -78 -129
-80 -153 -31 -330 26 -90 49 -145 95 -227 58 -101 62 -113 68 -190 5 -65 15
-102 49 -182 24 -55 46 -122 50 -150 5 -36 19 -65 47 -104 45 -60 25 -56 171
-35 42 6 45 5 64 -27 13 -22 26 -75 37 -149 9 -67 33 -165 56 -235 22 -66 57
-190 79 -275 21 -85 48 -179 60 -209 21 -56 21 -73 -5 -176 -33 -130 -8 -170
109 -178 66 -5 68 -4 82 23 9 17 41 43 79 64 66 37 92 65 115 124 10 23 20 32
37 32 28 0 30 -10 10 -48 -29 -56 -47 -126 -40 -155 l6 -30 177 6 c104 4 195
12 222 21 67 21 208 86 259 120 104 69 83 81 -176 107 -60 6 -140 20 -178 31
l-69 21 7 167 c6 148 4 177 -14 261 -19 85 -20 110 -12 235 9 150 3 185 -59
349 -20 51 -24 80 -24 195 l-1 135 -132 178 c-73 97 -132 181 -132 186 0 5 8
23 17 39 l17 30 65 -60 c72 -65 83 -71 249 -128 63 -22 179 -75 264 -122 84
-45 168 -85 188 -89 l35 -7 -38 -1 c-21 0 -51 6 -67 14 -17 9 -30 14 -30 12 0
-2 15 -51 34 -110 21 -68 46 -123 70 -155 l37 -51 -36 -27 c-34 -26 -36 -29
-30 -73 4 -25 17 -92 31 -148 l24 -103 -45 -63 c-24 -35 -56 -88 -71 -118 -15
-30 -49 -87 -76 -126 -70 -104 -72 -114 -39 -153 l27 -33 113 16 c69 9 117 20
123 29 5 7 7 27 4 43 -4 35 43 122 94 170 l31 30 -45 -129 c-53 -148 -57 -186
-21 -221 29 -30 64 -32 162 -10 135 31 162 43 183 85 l20 39 -86 27 -86 27 7
36 c4 20 22 70 40 111 43 97 61 163 76 280 11 91 11 99 -15 194 l-28 100 21
15 c19 15 19 19 6 81 -8 36 -14 68 -15 73 0 4 23 7 52 7 28 0 121 18 206 41
85 22 164 38 176 35 17 -4 27 5 53 47 40 66 31 79 -57 79 -50 0 -66 -4 -85
-22 -21 -20 -38 -23 -136 -28 -104 -5 -115 -3 -155 19 -24 13 -44 27 -44 31 0
5 -4 8 -9 8 -18 0 -20 -32 -6 -87 23 -87 22 -91 -30 -99 -25 -3 -89 -3 -141 1
l-96 7 -23 50 c-13 28 -30 55 -37 59 -10 7 -9 9 3 9 9 0 24 -17 34 -40 10 -23
22 -43 27 -46 12 -7 176 -34 209 -34 39 0 54 41 36 101 -14 46 -9 74 16 90 15
11 -22 69 -59 91 l-34 20 25 20 c31 24 46 53 86 160 17 46 42 98 56 116 22 30
24 37 13 58 -43 79 -179 188 -280 224 -33 11 -37 10 -75 -24 -22 -19 -59 -52
-83 -73 -36 -31 -44 -46 -49 -83 -3 -25 -13 -58 -21 -75 -8 -16 -23 -56 -32
-87 l-18 -56 62 -79 c77 -96 82 -100 159 -129 68 -25 67 -30 -4 -11 -25 7 -86
41 -137 77 l-91 65 0 75 c-1 41 6 100 14 130 14 49 75 424 75 457 0 7 10 13
21 13 26 0 192 159 208 199 22 55 37 156 29 196 -17 82 -27 94 -107 134 -95
48 -180 58 -256 31z"/>
</g>
</svg>
