<?xml version="1.0" standalone="no"?>
<!DOCTYPE svg PUBLIC "-//W3C//DTD SVG 20010904//EN"
 "http://www.w3.org/TR/2001/REC-SVG-20010904/DTD/svg10.dtd">
<svg version="1.0" xmlns="http://www.w3.org/2000/svg"
 width="32.000000pt" height="37.000000pt" viewBox="0 0 32.000000 37.000000"
 preserveAspectRatio="xMidYMid meet">
<metadata>
Created by potrace 1.14, written by Peter Selinger 2001-2017
</metadata>
<g transform="translate(0.000000,37.000000) scale(0.100000,-0.100000)"
fill="#000000" stroke="none">
<path fill="#000000" stroke="none" d="M51 344 c-12 -15 -21 -36 -21 -48 0
-11 -7 -34 -15 -50 -10 -19 -15 -57 -15 -115 l0 -86 73 -23 c51 -16 96 -22
154 -22 93 0 100 7 88 83 -9 58 -27 81 -78 106 -51 25 -106 95 -114 146 -5 28
-10 35 -29 35 -12 0 -32 -12 -43 -26z"/>
</g>
</svg>
