<?xml version="1.0" standalone="no"?>
<!DOCTYPE svg PUBLIC "-//W3C//DTD SVG 20010904//EN"
 "http://www.w3.org/TR/2001/REC-SVG-20010904/DTD/svg10.dtd">
<svg version="1.0" xmlns="http://www.w3.org/2000/svg"
 width="234.000000pt" height="268.000000pt" viewBox="0 0 234.000000 268.000000"
 preserveAspectRatio="xMidYMid meet">
<metadata>
Created by potrace 1.14, written by Peter Selinger 2001-2017
</metadata>
<g transform="translate(0.000000,268.000000) scale(0.100000,-0.100000)"
fill="#000000" stroke="none">
<path fill="#000000" stroke="none" d="M942 2617 c-111 -56 -120 -63 -102 -75
14 -8 20 -23 20 -47 0 -27 13 -54 50 -108 76 -108 73 -118 -66 -232 -61 -49
-123 -109 -138 -132 -29 -46 -128 -112 -272 -184 -57 -29 -101 -60 -145 -105
-64 -65 -66 -71 -24 -88 7 -2 7 -7 0 -14 -10 -11 -210 8 -248 23 -9 4 -17 5
-17 2 0 -17 32 -76 50 -92 21 -19 21 -19 49 16 l29 35 78 -7 78 -8 152 65 c99
43 206 99 304 160 84 53 153 94 154 92 2 -2 31 -44 66 -94 l62 -91 29 -164
c24 -139 29 -191 29 -339 0 -175 0 -175 41 -320 29 -101 48 -150 63 -162 11
-10 26 -22 32 -27 6 -5 16 -48 24 -97 10 -73 26 -118 88 -254 l74 -165 -8 -97
-9 -96 67 -7 c38 -4 100 -4 138 0 59 6 70 10 66 24 -3 9 -13 59 -22 111 -14
83 -15 111 -4 221 14 138 9 196 -35 399 l-23 105 36 145 35 146 -65 244 c-66
244 -66 246 -73 414 -5 152 -8 173 -31 217 -13 27 -24 51 -24 54 0 3 73 5 163
5 115 0 198 -6 286 -20 116 -19 132 -25 245 -84 l121 -64 37 19 38 19 -43 65
c-23 35 -49 67 -57 71 -8 3 -51 8 -95 11 -64 5 -115 19 -255 69 -105 37 -201
65 -240 69 -49 6 -78 16 -118 41 -44 29 -62 34 -110 34 -52 0 -66 5 -130 46
l-72 46 0 67 0 67 -68 67 c-37 37 -72 67 -77 66 -6 0 -65 -28 -133 -62z"/>
</g>
</svg>
