<?xml version="1.0" standalone="no"?>
<!DOCTYPE svg PUBLIC "-//W3C//DTD SVG 20010904//EN"
 "http://www.w3.org/TR/2001/REC-SVG-20010904/DTD/svg10.dtd">
<svg version="1.0" xmlns="http://www.w3.org/2000/svg"
 width="27.000000pt" height="30.000000pt" viewBox="0 0 27.000000 30.000000"
 preserveAspectRatio="xMidYMid meet">
<metadata>
Created by potrace 1.14, written by Peter Selinger 2001-2017
</metadata>
<g transform="translate(0.000000,30.000000) scale(0.100000,-0.100000)"
fill="#000000" stroke="none">
<path fill="#000000" stroke="none" d="M17 282 c-14 -15 -17 -41 -17 -134 0
-127 9 -148 64 -148 28 0 65 33 66 59 0 9 4 10 13 4 21 -16 106 -3 118 18 8
16 6 21 -14 28 -29 11 -44 51 -42 106 3 51 -9 65 -56 65 -21 0 -41 5 -44 10
-10 17 -71 11 -88 -8z"/>
</g>
</svg>
