<?xml version="1.0" standalone="no"?>
<!DOCTYPE svg PUBLIC "-//W3C//DTD SVG 20010904//EN"
 "http://www.w3.org/TR/2001/REC-SVG-20010904/DTD/svg10.dtd">
<svg version="1.0" xmlns="http://www.w3.org/2000/svg"
 width="184.000000pt" height="202.000000pt" viewBox="0 0 184.000000 202.000000"
 preserveAspectRatio="xMidYMid meet">
<metadata>
Created by potrace 1.14, written by Peter Selinger 2001-2017
</metadata>
<g transform="translate(0.000000,202.000000) scale(0.100000,-0.100000)"
fill="#000000" stroke="none">
<path fill="#000000" stroke="none" d="M864 1993 c-38 -24 -42 -31 -47 -76 -4
-27 -2 -72 4 -99 6 -27 9 -51 7 -53 -1 -1 -36 -30 -76 -63 -59 -50 -82 -63
-130 -72 -31 -7 -86 -18 -121 -25 -63 -13 -67 -13 -172 20 -59 19 -123 41
-144 49 -32 14 -39 14 -59 0 -13 -8 -47 -17 -75 -21 -28 -3 -51 -8 -51 -11 0
-3 20 -26 43 -51 l44 -47 49 22 49 22 76 -38 c63 -32 99 -42 217 -61 l142 -22
70 47 c81 54 76 62 57 -99 -12 -98 -12 -101 14 -170 l27 -70 -28 -155 c-32
-179 -69 -412 -63 -407 2 3 23 32 47 66 29 43 60 73 98 95 l55 33 11 -251 c8
-206 14 -263 31 -316 27 -83 26 -87 -8 -104 -20 -11 -32 -28 -41 -60 -7 -24
-9 -49 -6 -54 14 -24 63 -23 117 3 30 13 67 25 82 25 16 0 37 5 47 10 19 10
19 11 1 53 -12 27 -22 92 -29 182 -19 233 -19 302 2 401 l19 91 81 7 c131 10
132 10 154 -26 10 -18 52 -84 92 -145 65 -102 74 -122 91 -204 18 -86 23 -96
73 -153 40 -46 60 -81 82 -143 l29 -83 57 0 56 0 -34 95 c-19 53 -34 111 -34
129 0 45 -32 126 -128 331 -70 146 -78 171 -64 176 9 4 25 16 35 27 17 19 17
23 1 111 -16 79 -35 125 -148 355 -96 193 -122 254 -99 226 28 -32 41 -39 84
-45 28 -4 54 -3 59 1 4 5 3 40 -3 78 -12 77 -8 73 -161 169 -70 44 -76 50 -76
81 0 40 -5 45 -96 79 l-71 28 -24 69 -24 70 -75 -1 c-63 0 -82 -5 -116 -26z"/>
</g>
</svg>
