<?xml version="1.0" standalone="no"?>
<!DOCTYPE svg PUBLIC "-//W3C//DTD SVG 20010904//EN"
 "http://www.w3.org/TR/2001/REC-SVG-20010904/DTD/svg10.dtd">
<svg version="1.0" xmlns="http://www.w3.org/2000/svg"
 width="46.000000pt" height="53.000000pt" viewBox="0 0 46.000000 53.000000"
 preserveAspectRatio="xMidYMid meet">
<metadata>
Created by potrace 1.14, written by Peter Selinger 2001-2017
</metadata>
<g transform="translate(0.000000,53.000000) scale(0.100000,-0.100000)"
fill="#000000" stroke="none">
<path fill="#000000" stroke="none" d="M137 448 c-52 -82 -54 -85 -70 -206 -9
-67 -13 -130 -10 -139 4 -11 -5 -25 -28 -44 -33 -28 -34 -28 -9 -29 14 0 99
-7 190 -15 91 -8 173 -15 182 -15 11 0 27 18 42 48 l25 49 -24 24 c-20 21 -47
101 -116 345 -8 26 -17 33 -62 47 -30 9 -56 17 -60 17 -3 0 -30 -37 -60 -82z"/>
</g>
</svg>
