<?xml version="1.0" standalone="no"?>
<!DOCTYPE svg PUBLIC "-//W3C//DTD SVG 20010904//EN"
 "http://www.w3.org/TR/2001/REC-SVG-20010904/DTD/svg10.dtd">
<svg version="1.0" xmlns="http://www.w3.org/2000/svg"
 width="114.000000pt" height="127.000000pt" viewBox="0 0 114.000000 127.000000"
 preserveAspectRatio="xMidYMid meet">
<metadata>
Created by potrace 1.14, written by Peter Selinger 2001-2017
</metadata>
<g transform="translate(0.000000,127.000000) scale(0.100000,-0.100000)"
fill="#000000" stroke="none">
<path fill="#000000" stroke="none" d="M736 1207 l-78 -61 4 -87 4 -87 -30 -9
c-17 -5 -56 -6 -86 -2 -30 4 -79 9 -107 12 l-52 6 -12 -40 c-12 -37 -19 -43
-143 -109 -188 -100 -176 -86 -197 -226 -10 -66 -23 -206 -28 -312 l-10 -194
25 -49 24 -49 543 2 542 3 3 91 c2 77 0 93 -16 107 -10 9 -80 29 -162 47 -218
45 -220 46 -220 79 0 44 34 55 190 56 74 0 143 5 154 9 17 8 18 17 11 115 -5
75 -15 126 -33 174 -22 61 -32 74 -88 117 l-64 48 39 16 c32 12 44 25 60 62
25 55 26 70 6 81 -12 7 -12 15 1 61 15 50 15 55 -2 73 -13 15 -191 131 -198
129 0 -1 -36 -29 -80 -63z"/>
</g>
</svg>
