<?xml version="1.0" standalone="no"?>
<!DOCTYPE svg PUBLIC "-//W3C//DTD SVG 20010904//EN"
 "http://www.w3.org/TR/2001/REC-SVG-20010904/DTD/svg10.dtd">
<svg version="1.0" xmlns="http://www.w3.org/2000/svg"
 width="191.000000pt" height="203.000000pt" viewBox="0 0 191.000000 203.000000"
 preserveAspectRatio="xMidYMid meet">
<metadata>
Created by potrace 1.14, written by Peter Selinger 2001-2017
</metadata>
<g transform="translate(0.000000,203.000000) scale(0.100000,-0.100000)"
fill="#000000" stroke="none">
<path fill="#000000" stroke="none" d="M1066 2023 c-10 -3 -65 -30 -122 -60
-56 -30 -181 -88 -276 -129 -150 -65 -180 -81 -226 -127 l-54 -52 7 -85 c14
-185 19 -204 86 -318 34 -59 71 -117 82 -129 20 -22 20 -22 -5 -33 -14 -7 -32
-25 -42 -41 l-17 -29 -29 20 c-22 15 -44 20 -98 20 -79 0 -76 3 -87 -87 l-7
-51 -50 -13 c-28 -6 -66 -22 -84 -34 -17 -12 -45 -27 -60 -34 -41 -17 -75 -74
-81 -137 l-6 -53 65 -67 64 -66 105 -25 c57 -14 117 -27 132 -30 29 -6 29 -6
22 -61 -4 -31 -15 -77 -25 -102 -12 -31 -16 -57 -11 -85 l6 -39 209 -90 208
-89 137 32 c75 18 138 34 139 36 2 2 -42 58 -98 125 -56 68 -98 126 -93 130 4
4 17 10 28 14 17 5 40 -18 129 -125 90 -106 113 -129 130 -125 12 3 54 13 94
23 82 19 80 16 57 122 l-13 65 28 41 c28 40 32 43 106 55 59 10 88 22 128 49
48 34 57 36 145 41 82 4 95 8 108 26 13 21 11 23 -38 52 l-52 30 34 7 c50 11
52 14 23 48 -24 29 -25 32 -8 44 24 17 27 17 83 -11 l48 -25 12 41 c7 22 11
41 9 42 -2 1 -26 12 -55 24 -36 15 -72 22 -120 22 l-68 0 -23 -60 -24 -60 -69
0 -69 0 -18 38 c-10 20 -24 64 -31 97 -7 33 -26 84 -42 112 -35 63 -37 116
-10 245 13 63 26 97 48 125 17 21 45 67 63 102 l32 64 -33 111 c-38 130 -90
249 -153 345 l-44 69 -100 31 c-55 17 -102 30 -104 30 -1 -1 -11 -3 -22 -6z"/>
</g>
</svg>
