<?xml version="1.0" standalone="no"?>
<!DOCTYPE svg PUBLIC "-//W3C//DTD SVG 20010904//EN"
 "http://www.w3.org/TR/2001/REC-SVG-20010904/DTD/svg10.dtd">
<svg version="1.0" xmlns="http://www.w3.org/2000/svg"
 width="142.000000pt" height="157.000000pt" viewBox="0 0 142.000000 157.000000"
 preserveAspectRatio="xMidYMid meet">
<metadata>
Created by potrace 1.14, written by Peter Selinger 2001-2017
</metadata>
<g transform="translate(0.000000,157.000000) scale(0.100000,-0.100000)"
fill="#000000" stroke="none">
<path fill="#000000" stroke="none" d="M1192 1494 c-44 -51 -69 -73 -80 -70
-10 3 -34 6 -55 8 -37 2 -38 1 -127 -116 l-90 -119 0 -102 0 -101 -86 -49
c-77 -43 -132 -90 -170 -143 -11 -16 -11 -40 2 -140 l14 -120 -26 -44 -27 -44
-267 -99 c-298 -110 -280 -97 -280 -195 0 -34 7 -44 70 -100 64 -57 73 -62
104 -56 19 4 49 17 68 30 31 21 38 22 60 10 23 -12 40 -7 204 63 98 41 189 84
201 95 12 11 26 17 32 14 6 -4 47 66 100 172 l89 179 63 27 c34 15 65 23 69
19 4 -4 15 -32 25 -61 13 -42 15 -70 10 -137 -4 -47 -4 -105 0 -130 l6 -46 20
25 c11 14 47 65 80 113 l60 88 -7 135 -7 135 57 217 c46 172 57 230 55 280 -2
53 3 74 29 132 l32 69 -16 52 c-14 43 -23 56 -51 69 -68 32 -91 23 -161 -60z"/>
</g>
</svg>
