<?xml version="1.0" standalone="no"?>
<!DOCTYPE svg PUBLIC "-//W3C//DTD SVG 20010904//EN"
 "http://www.w3.org/TR/2001/REC-SVG-20010904/DTD/svg10.dtd">
<svg version="1.0" xmlns="http://www.w3.org/2000/svg"
 width="26.000000pt" height="29.000000pt" viewBox="0 0 26.000000 29.000000"
 preserveAspectRatio="xMidYMid meet">
<metadata>
Created by potrace 1.14, written by Peter Selinger 2001-2017
</metadata>
<g transform="translate(0.000000,29.000000) scale(0.100000,-0.100000)"
fill="#000000" stroke="none">
<path fill="#000000" stroke="none" d="M158 274 c-34 -15 -37 -19 -43 -68 -9
-66 -10 -68 -68 -97 l-48 -25 32 -41 c35 -45 51 -46 69 -3 15 36 47 58 91 62
28 2 35 8 37 28 2 14 8 30 14 37 17 21 12 95 -8 110 -22 16 -30 16 -76 -3z"/>
</g>
</svg>
