<?xml version="1.0" standalone="no"?>
<!DOCTYPE svg PUBLIC "-//W3C//DTD SVG 20010904//EN"
 "http://www.w3.org/TR/2001/REC-SVG-20010904/DTD/svg10.dtd">
<svg version="1.0" xmlns="http://www.w3.org/2000/svg"
 width="42.000000pt" height="47.000000pt" viewBox="0 0 42.000000 47.000000"
 preserveAspectRatio="xMidYMid meet">
<metadata>
Created by potrace 1.14, written by Peter Selinger 2001-2017
</metadata>
<g transform="translate(0.000000,47.000000) scale(0.100000,-0.100000)"
fill="#000000" stroke="none">
<path fill="#000000" stroke="none" d="M53 446 c-61 -51 -65 -142 -7 -158 16
-5 50 -7 76 -4 26 3 50 1 53 -5 4 -5 16 -9 28 -10 20 -1 20 -2 -3 -9 -14 -4
-20 -8 -13 -9 20 -2 63 -85 63 -123 0 -19 3 -56 6 -82 l7 -46 74 0 c84 0 93 8
75 69 -10 31 -23 44 -86 81 -41 25 -77 52 -79 61 -2 8 -1 41 3 72 16 116 -21
177 -112 185 -47 4 -58 1 -85 -22z"/>
</g>
</svg>
