<?xml version="1.0" standalone="no"?>
<!DOCTYPE svg PUBLIC "-//W3C//DTD SVG 20010904//EN"
 "http://www.w3.org/TR/2001/REC-SVG-20010904/DTD/svg10.dtd">
<svg version="1.0" xmlns="http://www.w3.org/2000/svg"
 width="74.000000pt" height="80.000000pt" viewBox="0 0 74.000000 80.000000"
 preserveAspectRatio="xMidYMid meet">
<metadata>
Created by potrace 1.14, written by Peter Selinger 2001-2017
</metadata>
<g transform="translate(0.000000,80.000000) scale(0.100000,-0.100000)"
fill="#000000" stroke="none">
<path fill="#000000" stroke="none" d="M360 764 l-75 -33 -7 -58 c-3 -32 -9
-88 -13 -124 -6 -66 -7 -67 -84 -150 l-78 -84 -51 -150 -52 -150 293 -8 c329
-8 452 1 444 33 -3 10 -15 71 -28 136 l-24 117 -70 71 c-38 39 -79 76 -89 82
-19 10 -19 12 2 97 l22 87 -51 78 c-29 42 -54 80 -58 83 -3 3 -40 -9 -81 -27z"/>
<path fill="#ffffff" stroke="none" d="M408 234 c2 -126 1 -146 -12 -141 -8 3
-30 9 -49 12 l-34 7 18 91 c10 51 18 108 18 128 1 41 7 49 35 49 20 0 21 -6
24 -146z"/>
</g>
</svg>
