<?xml version="1.0" standalone="no"?>
<!DOCTYPE svg PUBLIC "-//W3C//DTD SVG 20010904//EN"
 "http://www.w3.org/TR/2001/REC-SVG-20010904/DTD/svg10.dtd">
<svg version="1.0" xmlns="http://www.w3.org/2000/svg"
 width="335.000000pt" height="358.000000pt" viewBox="0 0 335.000000 358.000000"
 preserveAspectRatio="xMidYMid meet">
<metadata>
Created by potrace 1.14, written by Peter Selinger 2001-2017
</metadata>
<g transform="translate(0.000000,358.000000) scale(0.100000,-0.100000)"
fill="#000000" stroke="none">
<path fill="#000000" stroke="none" d="M1970 3573 c-41 -16 -153 -130 -195
-200 l-46 -75 15 -101 c8 -56 16 -146 17 -200 l3 -99 -267 -108 -266 -108
-393 -24 -393 -24 -111 63 -111 63 -54 -22 c-68 -27 -65 -25 -46 -46 10 -10
17 -23 17 -29 0 -6 57 -39 126 -72 69 -34 128 -69 131 -77 7 -19 -26 -94 -41
-94 -6 0 -24 9 -40 20 -27 17 -30 23 -27 69 3 56 -5 61 -54 39 -22 -10 -28 -9
-41 10 -8 12 -26 22 -38 22 -42 0 -86 12 -86 24 0 10 -49 46 -64 46 -11 0 20
-71 51 -115 55 -77 128 -103 448 -160 l268 -47 231 20 c127 11 260 18 296 15
l65 -5 18 36 c9 20 22 36 29 36 49 -2 212 -40 227 -54 13 -12 38 -16 102 -16
l84 -1 95 -176 c52 -97 112 -208 133 -247 21 -39 88 -162 149 -274 60 -111
149 -294 197 -405 l87 -202 -72 -252 -72 -252 19 -258 c10 -142 19 -266 19
-277 0 -18 14 -18 433 -11 237 4 434 9 436 11 2 2 -37 117 -87 256 l-90 253
14 75 c21 119 21 120 -26 120 -40 0 -40 0 -40 40 0 22 14 90 31 152 50 184
127 454 171 592 37 119 40 137 37 220 -4 86 -3 91 17 94 19 3 23 19 47 156
l27 153 -187 337 -188 336 -120 80 c-102 68 -139 86 -245 121 -114 38 -130 46
-178 93 l-53 51 7 107 7 107 -48 84 c-70 121 -99 137 -248 136 -62 0 -119 -3
-127 -6z"/>
</g>
</svg>
