<?xml version="1.0" standalone="no"?>
<!DOCTYPE svg PUBLIC "-//W3C//DTD SVG 20010904//EN"
 "http://www.w3.org/TR/2001/REC-SVG-20010904/DTD/svg10.dtd">
<svg version="1.0" xmlns="http://www.w3.org/2000/svg"
 width="58.000000pt" height="67.000000pt" viewBox="0 0 58.000000 67.000000"
 preserveAspectRatio="xMidYMid meet">
<metadata>
Created by potrace 1.14, written by Peter Selinger 2001-2017
</metadata>
<g transform="translate(0.000000,67.000000) scale(0.100000,-0.100000)"
fill="#000000" stroke="none">
<path fill="#000000" stroke="none" d="M240 656 c-86 -19 -111 -39 -163 -131
-42 -74 -47 -89 -47 -144 0 -34 -7 -78 -15 -98 -8 -19 -15 -60 -15 -89 0 -50
2 -54 28 -59 90 -19 87 -16 90 -73 2 -30 8 -55 15 -57 7 -3 52 10 102 29 82
31 92 38 128 87 42 59 114 104 147 94 13 -4 28 2 46 20 30 30 29 40 -7 197
-25 105 -73 175 -150 213 -53 27 -77 29 -159 11z"/>
</g>
</svg>
