<?xml version="1.0" standalone="no"?>
<!DOCTYPE svg PUBLIC "-//W3C//DTD SVG 20010904//EN"
 "http://www.w3.org/TR/2001/REC-SVG-20010904/DTD/svg10.dtd">
<svg version="1.0" xmlns="http://www.w3.org/2000/svg"
 width="268.000000pt" height="293.000000pt" viewBox="0 0 268.000000 293.000000"
 preserveAspectRatio="xMidYMid meet">
<metadata>
Created by potrace 1.14, written by Peter Selinger 2001-2017
</metadata>
<g transform="translate(0.000000,293.000000) scale(0.100000,-0.100000)"
fill="#000000" stroke="none">
<path fill="#000000" stroke="none" d="M2140 2894 c-58 -18 -124 -36 -148 -40
-38 -6 -51 -15 -105 -80 -34 -41 -65 -74 -70 -74 -5 0 -25 -8 -44 -17 l-36
-16 6 -96 c3 -53 12 -116 21 -141 15 -42 15 -49 -2 -105 -15 -49 -26 -66 -61
-92 -39 -30 -49 -33 -114 -33 -40 0 -136 7 -215 16 -167 20 -195 16 -332 -45
-64 -28 -117 -63 -201 -132 -149 -123 -445 -354 -515 -402 l-54 -38 -76 63
c-42 35 -94 77 -115 93 -23 18 -46 50 -59 80 l-20 50 5 -444 6 -443 25 -50
c14 -27 30 -51 37 -54 7 -2 66 -8 132 -12 148 -10 197 2 225 58 12 24 36 45
72 65 29 15 107 61 173 100 147 88 185 108 192 101 10 -10 21 -198 33 -566
l11 -355 -45 -126 -45 -126 172 -7 c95 -3 404 -9 687 -12 l515 -7 -73 63 -73
63 1 336 c1 259 -3 382 -17 536 -15 152 -17 225 -11 305 7 87 5 128 -12 237
-11 73 -20 156 -20 185 0 49 -3 55 -35 77 l-35 24 62 43 63 42 57 -56 56 -57
-9 -58 c-9 -54 -5 -72 55 -300 l64 -242 12 -255 c9 -204 28 -419 62 -683 0 -7
4 17 8 53 3 36 2 101 -3 145 -13 120 -1 272 33 405 41 161 48 213 56 395 l6
160 56 100 c31 55 84 147 119 204 l63 104 -29 51 -29 51 -123 -3 c-68 -2 -158
2 -200 9 l-77 12 8 28 c14 49 63 123 124 190 111 119 131 157 156 299 29 168
23 230 -32 323 -22 37 -44 69 -47 72 -4 2 -47 17 -97 32 l-89 29 -105 -32z"/>
<path fill="#000000" stroke="none" d="M2316 128 c-10 -51 -25 -101 -33 -110
-15 -17 -14 -18 10 -18 22 0 26 5 31 38 9 63 18 182 14 182 -2 0 -12 -42 -22
-92z"/>
</g>
</svg>
