<?xml version="1.0" standalone="no"?>
<!DOCTYPE svg PUBLIC "-//W3C//DTD SVG 20010904//EN"
 "http://www.w3.org/TR/2001/REC-SVG-20010904/DTD/svg10.dtd">
<svg version="1.0" xmlns="http://www.w3.org/2000/svg"
 width="62.000000pt" height="71.000000pt" viewBox="0 0 62.000000 71.000000"
 preserveAspectRatio="xMidYMid meet">
<metadata>
Created by potrace 1.14, written by Peter Selinger 2001-2017
</metadata>
<g transform="translate(0.000000,71.000000) scale(0.100000,-0.100000)"
fill="#000000" stroke="none">
<path fill="#000000" stroke="none" d="M227 699 c-41 -24 -64 -123 -32 -136 9
-3 27 -27 40 -52 l23 -47 -33 -27 c-19 -15 -44 -27 -57 -27 -34 0 -41 -8 -87
-88 -22 -41 -50 -85 -61 -99 -24 -30 -25 -60 -5 -87 8 -11 15 -37 15 -57 0
-59 8 -69 50 -69 21 0 43 6 49 14 7 8 34 20 61 26 28 7 50 15 50 19 0 4 6 16
14 26 13 18 14 18 41 -3 33 -26 44 -27 90 -5 29 14 38 26 52 71 15 45 20 52
38 48 11 -3 31 -6 44 -6 23 0 24 -1 17 -66 -4 -37 -13 -79 -21 -95 -15 -28
-15 -28 21 -35 22 -4 39 -2 43 4 4 6 15 63 24 126 18 114 18 116 -3 185 -19
66 -25 74 -108 150 -77 70 -90 87 -101 129 -14 56 -41 86 -86 96 -16 4 -37 9
-45 11 -8 2 -23 0 -33 -6z"/>
</g>
</svg>
