<?xml version="1.0" standalone="no"?>
<!DOCTYPE svg PUBLIC "-//W3C//DTD SVG 20010904//EN"
 "http://www.w3.org/TR/2001/REC-SVG-20010904/DTD/svg10.dtd">
<svg version="1.0" xmlns="http://www.w3.org/2000/svg"
 width="104.000000pt" height="114.000000pt" viewBox="0 0 104.000000 114.000000"
 preserveAspectRatio="xMidYMid meet">
<metadata>
Created by potrace 1.14, written by Peter Selinger 2001-2017
</metadata>
<g transform="translate(0.000000,114.000000) scale(0.100000,-0.100000)"
fill="#000000" stroke="none">
<path fill="#000000" stroke="none" d="M233 1124 c-75 -19 -122 -46 -170 -96
-43 -44 -63 -83 -63 -120 0 -19 4 -20 54 -14 53 6 54 5 81 -30 33 -43 30 -80
-11 -145 -45 -72 -74 -157 -74 -218 0 -119 141 -449 205 -481 41 -20 171 -24
285 -8 l95 14 3 32 c3 33 14 38 81 32 13 -1 43 4 67 10 39 11 46 10 72 -9 22
-15 45 -21 84 -21 94 0 123 17 69 40 -16 6 -37 20 -45 29 -15 16 -13 19 15 40
35 26 26 41 -22 41 -14 0 -29 3 -32 7 -12 12 25 43 52 43 40 0 56 14 35 31
-13 11 -57 14 -198 14 l-181 0 -37 35 c-21 19 -44 52 -53 73 -8 20 -35 63 -59
95 -24 31 -49 69 -57 83 -32 60 -75 108 -101 114 -18 4 -28 13 -28 25 0 14 10
18 50 22 60 6 80 21 80 62 0 17 5 47 10 67 9 32 6 43 -33 118 -33 65 -50 87
-82 106 -38 21 -43 22 -92 9z"/>
</g>
</svg>
