<?xml version="1.0" standalone="no"?>
<!DOCTYPE svg PUBLIC "-//W3C//DTD SVG 20010904//EN"
 "http://www.w3.org/TR/2001/REC-SVG-20010904/DTD/svg10.dtd">
<svg version="1.0" xmlns="http://www.w3.org/2000/svg"
 width="410.000000pt" height="471.000000pt" viewBox="0 0 410.000000 471.000000"
 preserveAspectRatio="xMidYMid meet">
<metadata>
Created by potrace 1.14, written by Peter Selinger 2001-2017
</metadata>
<g transform="translate(0.000000,471.000000) scale(0.100000,-0.100000)"
fill="#000000" stroke="none">
<path fill="#000000" stroke="none" d="M989 4573 c-103 -104 -149 -160 -188
-225 -42 -70 -67 -100 -129 -150 -42 -34 -117 -98 -165 -142 l-89 -80 -136 -8
c-125 -7 -264 -27 -278 -40 -2 -3 2 -761 11 -1684 8 -924 15 -1806 15 -1961
l0 -283 1111 0 1110 0 -6 78 c-3 42 -10 160 -15 261 -10 181 -11 188 -70 401
-33 119 -60 222 -60 228 0 9 33 12 110 12 91 0 110 3 110 15 0 9 9 15 23 15
12 0 75 5 139 10 111 10 125 9 245 -16 124 -26 135 -27 348 -20 244 7 406 27
608 77 113 28 128 34 133 55 3 13 4 30 1 37 -6 16 -164 52 -292 67 -49 6 -107
13 -127 16 l-38 6 72 78 71 78 126 45 c143 51 303 74 396 56 27 -5 55 -7 62
-4 22 8 14 33 -19 58 l-31 25 33 17 c31 16 32 19 26 58 -4 23 -12 44 -18 48
-6 4 -41 10 -77 14 -36 3 -80 11 -97 16 -24 7 -63 5 -150 -10 -136 -24 -275
-76 -573 -215 -162 -76 -190 -86 -239 -86 -32 0 -96 -5 -144 -10 -78 -9 -113
-7 -305 20 -224 31 -333 50 -333 56 0 2 19 34 43 71 43 67 44 72 107 388 64
320 64 320 118 422 58 112 50 105 176 134 l51 11 42 117 c23 64 47 138 54 165
11 44 25 62 116 150 99 97 120 126 89 126 -9 0 -16 16 -19 48 -2 26 -16 90
-31 142 l-25 95 63 60 c99 92 120 132 156 286 17 73 33 166 37 206 5 64 9 74
27 79 18 4 27 24 53 122 l31 117 -17 90 c-13 68 -29 112 -65 178 -26 48 -49
87 -49 87 -1 0 -450 29 -997 65 -547 36 -995 65 -995 65 0 0 -61 -62 -136
-137z"/>
<path fill="#000000" stroke="none" d="M3972 895 c-116 -111 -122 -119 -106
-136 19 -21 19 -19 -57 -120 -76 -101 -308 -323 -439 -420 -58 -43 -124 -100
-148 -128 l-42 -50 42 -5 c90 -11 569 -36 699 -36 129 0 137 1 157 23 l22 23
-2 483 -3 483 -123 -117z"/>
</g>
</svg>
