<?xml version="1.0" standalone="no"?>
<!DOCTYPE svg PUBLIC "-//W3C//DTD SVG 20010904//EN"
 "http://www.w3.org/TR/2001/REC-SVG-20010904/DTD/svg10.dtd">
<svg version="1.0" xmlns="http://www.w3.org/2000/svg"
 width="395.000000pt" height="429.000000pt" viewBox="0 0 395.000000 429.000000"
 preserveAspectRatio="xMidYMid meet">
<metadata>
Created by potrace 1.14, written by Peter Selinger 2001-2017
</metadata>
<g transform="translate(0.000000,429.000000) scale(0.100000,-0.100000)"
fill="#000000" stroke="none">
<path fill="#000000" stroke="none" d="M1679 4240 c-88 -45 -104 -58 -211
-173 -64 -68 -122 -135 -131 -148 -9 -15 -23 -98 -37 -229 -12 -113 -25 -217
-28 -231 -10 -40 -213 -216 -399 -348 l-161 -114 -108 -231 -108 -231 -47
-370 c-43 -332 -54 -390 -100 -560 -48 -176 -62 -213 -200 -510 l-149 -320 80
-365 c45 -200 82 -365 84 -367 6 -6 1488 -45 1493 -39 4 3 25 106 48 227 23
122 47 224 53 228 7 4 52 15 101 25 l88 18 7 91 c3 49 6 145 6 211 0 70 10
192 24 291 23 166 24 172 66 238 l42 67 -15 147 c-9 81 -15 149 -13 151 2 2
24 -7 48 -19 23 -12 108 -44 188 -70 80 -27 342 -131 583 -231 398 -166 440
-186 454 -213 8 -16 47 -73 87 -125 l71 -94 5 -152 c3 -84 8 -155 11 -159 4
-3 64 29 134 71 125 75 128 76 159 63 36 -17 116 -4 116 17 0 77 -163 343
-320 524 l-112 129 -385 256 c-211 140 -475 307 -586 371 -216 124 -233 137
-502 399 l-123 120 -7 65 c-4 36 -7 102 -8 148 l-2 83 98 42 c128 55 192 109
200 169 3 23 10 44 15 46 36 12 44 30 52 123 8 111 26 155 91 224 66 71 77
121 44 204 -13 34 -70 135 -126 224 l-102 162 -179 105 c-98 58 -182 106 -186
107 -4 1 -50 -20 -103 -47z"/>
<path fill="#000000" stroke="none" d="M3920 710 c20 -13 33 -13 25 0 -3 6
-14 10 -23 10 -15 0 -15 -2 -2 -10z"/>
</g>
</svg>
