<?xml version="1.0" standalone="no"?>
<!DOCTYPE svg PUBLIC "-//W3C//DTD SVG 20010904//EN"
 "http://www.w3.org/TR/2001/REC-SVG-20010904/DTD/svg10.dtd">
<svg version="1.0" xmlns="http://www.w3.org/2000/svg"
 width="284.000000pt" height="313.000000pt" viewBox="0 0 284.000000 313.000000"
 preserveAspectRatio="xMidYMid meet">
<metadata>
Created by potrace 1.14, written by Peter Selinger 2001-2017
</metadata>
<g transform="translate(0.000000,313.000000) scale(0.100000,-0.100000)"
fill="#000000" stroke="none">
<path fill="#000000" stroke="none" d="M1390 3120 c-30 -4 -93 -18 -140 -31
-72 -19 -97 -32 -162 -83 -76 -60 -79 -63 -128 -173 l-50 -112 -20 -202 c-11
-111 -20 -208 -20 -215 0 -8 -11 -14 -25 -14 -21 0 -25 -4 -20 -22 17 -77 56
-425 54 -483 -1 -38 6 -116 16 -172 23 -126 17 -142 -67 -184 -50 -25 -74 -30
-190 -38 l-133 -9 -65 44 c-55 37 -166 83 -174 72 -39 -54 -70 -124 -82 -185
-9 -41 -33 -113 -55 -160 l-39 -85 45 -172 c61 -235 61 -284 0 -466 -52 -153
-135 -423 -132 -427 2 -1 20 2 42 7 22 4 617 11 1323 15 l1283 7 11 27 c5 14
18 62 29 106 11 44 33 127 49 185 36 129 50 223 50 332 0 57 8 111 25 173 20
70 25 114 25 198 l0 107 -66 133 c-37 72 -68 134 -70 136 -1 1 -91 -5 -199
-14 -108 -10 -199 -15 -202 -12 -3 4 19 46 49 94 61 100 86 155 167 368 47
123 56 156 48 178 -8 26 -81 100 -180 186 -48 41 -49 41 -129 41 -76 0 -83 2
-128 35 l-47 35 -5 100 c-3 55 -8 103 -12 107 -3 4 -21 -8 -39 -25 -18 -18
-35 -32 -38 -32 -3 0 -14 63 -24 141 l-19 141 -79 124 -80 125 -91 54 c-92 55
-92 55 -171 54 -44 -1 -105 -5 -135 -9z"/>
</g>
</svg>
