<?xml version="1.0" standalone="no"?>
<!DOCTYPE svg PUBLIC "-//W3C//DTD SVG 20010904//EN"
 "http://www.w3.org/TR/2001/REC-SVG-20010904/DTD/svg10.dtd">
<svg version="1.0" xmlns="http://www.w3.org/2000/svg"
 width="54.000000pt" height="60.000000pt" viewBox="0 0 54.000000 60.000000"
 preserveAspectRatio="xMidYMid meet">
<metadata>
Created by potrace 1.14, written by Peter Selinger 2001-2017
</metadata>
<g transform="translate(0.000000,60.000000) scale(0.100000,-0.100000)"
fill="#000000" stroke="none">
<path fill="#000000" stroke="none" d="M234 581 c-41 -18 -54 -40 -54 -87 0
-12 7 -27 15 -34 8 -7 15 -22 15 -34 0 -11 7 -30 15 -40 21 -27 19 -49 -5 -64
-12 -7 -19 -19 -18 -26 2 -8 -13 -44 -32 -80 -32 -60 -39 -68 -76 -77 -48 -12
-83 -52 -91 -105 -5 -32 -4 -34 21 -34 27 0 54 11 136 55 26 13 63 24 86 24
39 1 42 3 48 34 5 29 14 37 74 65 37 17 90 34 118 38 l51 6 -7 37 c-12 62 -50
143 -88 190 -44 55 -59 77 -74 113 -19 42 -68 49 -134 19z"/>
</g>
</svg>
