<?xml version="1.0" standalone="no"?>
<!DOCTYPE svg PUBLIC "-//W3C//DTD SVG 20010904//EN"
 "http://www.w3.org/TR/2001/REC-SVG-20010904/DTD/svg10.dtd">
<svg version="1.0" xmlns="http://www.w3.org/2000/svg"
 width="83.000000pt" height="94.000000pt" viewBox="0 0 83.000000 94.000000"
 preserveAspectRatio="xMidYMid meet">
<metadata>
Created by potrace 1.14, written by Peter Selinger 2001-2017
</metadata>
<g transform="translate(0.000000,94.000000) scale(0.100000,-0.100000)"
fill="#000000" stroke="none">
<path fill="#000000" stroke="none" d="M218 926 c-34 -15 -67 -56 -74 -94 -5
-27 -2 -32 27 -48 19 -9 39 -23 44 -29 19 -23 71 -26 90 -5 35 39 49 14 39
-70 -6 -58 -6 -58 -57 -81 -28 -13 -55 -28 -61 -34 -24 -22 -84 -63 -131 -90
-27 -16 -60 -36 -71 -45 -21 -15 -21 -17 -5 -38 l16 -22 66 39 c36 22 107 56
157 76 87 35 94 40 139 101 26 35 48 64 50 64 15 0 83 -54 83 -66 0 -8 -20
-24 -47 -36 -68 -30 -102 -58 -123 -98 -16 -34 -16 -37 1 -75 15 -31 17 -54
12 -102 l-6 -63 29 0 c36 1 113 15 120 23 4 3 -3 18 -13 34 -40 58 -35 56 33
-7 38 -36 83 -86 101 -111 30 -43 31 -49 21 -88 -6 -25 -7 -46 -2 -51 12 -11
105 10 111 26 8 22 -65 152 -102 180 -27 20 -40 41 -54 87 l-18 61 116 67 c64
36 116 71 115 78 -1 6 -2 28 -3 49 -1 31 -12 49 -73 115 -61 68 -83 84 -157
118 -84 39 -88 40 -145 30 -68 -12 -83 -4 -142 74 -37 48 -44 50 -86 31z"/>
</g>
</svg>
