<?xml version="1.0" standalone="no"?>
<!DOCTYPE svg PUBLIC "-//W3C//DTD SVG 20010904//EN"
 "http://www.w3.org/TR/2001/REC-SVG-20010904/DTD/svg10.dtd">
<svg version="1.0" xmlns="http://www.w3.org/2000/svg"
 width="278.000000pt" height="320.000000pt" viewBox="0 0 278.000000 320.000000"
 preserveAspectRatio="xMidYMid meet">
<metadata>
Created by potrace 1.14, written by Peter Selinger 2001-2017
</metadata>
<g transform="translate(0.000000,320.000000) scale(0.100000,-0.100000)"
fill="#000000" stroke="none">
<path fill="#000000" stroke="none" d="M1267 3131 c-154 -96 -170 -114 -175
-198 -2 -37 -8 -72 -13 -77 -4 -5 -2 -24 6 -42 12 -29 12 -38 -2 -64 -12 -24
-12 -37 -4 -62 6 -17 11 -48 11 -68 0 -32 8 -44 55 -89 46 -44 55 -58 55 -87
0 -41 12 -40 -205 -14 l-164 20 -43 -21 c-28 -13 -60 -43 -92 -85 -26 -35 -75
-92 -107 -128 -45 -49 -59 -71 -59 -95 0 -23 -4 -31 -18 -31 -13 0 -23 -12
-31 -42 -10 -32 -46 -75 -159 -193 -141 -145 -149 -157 -205 -268 -33 -69 -57
-130 -57 -149 0 -17 -8 -41 -18 -52 -16 -17 -21 -51 -30 -196 -13 -185 -16
-440 -6 -477 l6 -22 40 25 c35 22 38 23 29 5 -16 -29 -13 -99 5 -161 20 -67
79 -139 144 -174 27 -15 52 -31 55 -36 4 -7 13 -6 25 0 10 5 32 10 48 10 l29
0 10 146 c9 125 13 149 30 166 l21 20 42 -78 42 -79 64 3 c58 3 72 0 176 -48
62 -28 226 -111 363 -185 138 -74 320 -164 405 -200 l155 -67 104 11 c57 6
106 12 107 14 2 2 11 70 19 153 15 137 22 165 82 339 36 105 80 229 99 277 19
48 39 123 45 165 6 43 16 83 23 90 6 7 71 50 143 97 73 47 160 107 192 133 53
42 70 50 162 70 56 13 104 25 106 27 2 2 -13 38 -33 79 -32 64 -44 78 -77 93
-25 11 -43 28 -49 44 -5 16 -43 52 -91 88 -125 93 -243 202 -238 221 2 9 5 54
5 101 l1 84 -47 29 c-44 28 -56 30 -210 40 -150 9 -165 12 -183 32 -11 13 -51
33 -88 45 -76 25 -78 29 -29 102 21 32 26 55 33 160 8 103 13 126 31 145 20
21 21 29 14 148 -6 103 -12 137 -33 185 l-25 59 -102 50 c-211 104 -240 105
-389 12z"/>
<path fill="#ffffff" stroke="none" d="M1359 1984 c11 -30 11 -38 -2 -52 -12
-14 -13 -37 -7 -137 5 -66 9 -194 9 -285 1 -91 15 -381 31 -645 16 -264 30
-499 30 -522 0 -37 -5 -45 -51 -84 l-51 -42 -76 41 -76 41 2 208 c5 474 47
1302 68 1357 10 25 13 53 8 81 -5 37 -3 45 17 59 13 9 37 16 54 16 26 0 33 -5
44 -36z"/>
<path fill="#000000" stroke="none" d="M450 381 c0 -14 5 -69 10 -121 6 -52
11 -133 12 -179 l1 -84 210 6 c116 4 282 7 369 7 l159 0 -63 53 c-87 74 -317
195 -524 277 l-174 68 0 -27z"/>
</g>
</svg>
