<?xml version="1.0" standalone="no"?>
<!DOCTYPE svg PUBLIC "-//W3C//DTD SVG 20010904//EN"
 "http://www.w3.org/TR/2001/REC-SVG-20010904/DTD/svg10.dtd">
<svg version="1.0" xmlns="http://www.w3.org/2000/svg"
 width="277.000000pt" height="299.000000pt" viewBox="0 0 277.000000 299.000000"
 preserveAspectRatio="xMidYMid meet">
<metadata>
Created by potrace 1.14, written by Peter Selinger 2001-2017
</metadata>
<g transform="translate(0.000000,299.000000) scale(0.100000,-0.100000)"
fill="#000000" stroke="none">
<path fill="#000000" stroke="none" d="M1051 2942 l-105 -47 -48 -121 c-45
-112 -52 -123 -89 -144 -23 -12 -86 -59 -142 -103 -55 -44 -141 -109 -191
-143 -129 -92 -148 -124 -235 -410 -61 -199 -75 -260 -100 -430 -23 -159 -40
-238 -86 -392 l-58 -192 18 -236 18 -236 127 -165 127 -166 12 -75 c6 -42 13
-77 15 -79 6 -6 575 20 585 26 5 4 13 105 18 226 l9 220 -45 53 c-25 29 -56
65 -68 80 l-21 27 15 190 15 190 47 75 c37 59 53 76 74 78 22 3 29 11 43 56
l17 54 -33 46 c-31 43 -37 46 -77 46 -37 0 -45 4 -55 25 -21 46 48 140 155
209 24 17 27 24 27 77 0 33 3 59 7 59 3 0 115 -56 249 -125 134 -69 253 -125
266 -125 13 0 156 25 318 55 204 38 319 55 375 55 62 0 104 7 185 32 58 17
116 41 129 52 12 12 68 69 122 127 l99 106 -53 67 c-52 66 -52 66 -103 66 -28
0 -86 -3 -128 -7 l-77 -6 -107 -123 -107 -122 -235 -1 c-137 -1 -271 -7 -322
-14 -79 -12 -88 -12 -110 5 -12 9 -29 18 -35 18 -7 0 -23 10 -34 21 -12 12
-58 46 -103 75 -44 29 -88 59 -96 66 -47 41 -52 43 -65 25 -11 -15 -13 -15
-33 6 -15 16 -23 43 -29 97 l-8 75 -53 3 c-43 3 -53 6 -48 18 3 9 6 18 6 20 0
2 30 4 68 4 50 0 83 7 130 27 l62 26 25 -23 c14 -13 27 -22 28 -19 2 2 12 36
21 74 38 155 22 136 145 179 66 23 108 43 106 49 -2 7 -20 65 -40 130 -21 69
-54 147 -79 189 l-42 72 -139 38 c-77 21 -144 38 -150 38 -5 -1 -57 -22 -114
-48z"/>
<path fill="#000000" stroke="none" d="M1114 1253 c-6 -63 0 -280 9 -289 2 -2
22 -1 43 4 l39 8 19 96 20 96 -58 76 c-32 42 -60 76 -61 76 -2 0 -7 -30 -11
-67z"/>
</g>
</svg>
