<?xml version="1.0" standalone="no"?>
<!DOCTYPE svg PUBLIC "-//W3C//DTD SVG 20010904//EN"
 "http://www.w3.org/TR/2001/REC-SVG-20010904/DTD/svg10.dtd">
<svg version="1.0" xmlns="http://www.w3.org/2000/svg"
 width="285.000000pt" height="311.000000pt" viewBox="0 0 285.000000 311.000000"
 preserveAspectRatio="xMidYMid meet">
<metadata>
Created by potrace 1.14, written by Peter Selinger 2001-2017
</metadata>
<g transform="translate(0.000000,311.000000) scale(0.100000,-0.100000)"
fill="#000000" stroke="none">
<path fill="#000000" stroke="none" d="M1073 2952 l-283 -157 -230 -353 c-126
-194 -230 -359 -230 -367 0 -9 42 -158 94 -333 52 -174 107 -368 121 -430 l27
-113 -43 -242 -43 -242 -237 -323 c-211 -286 -264 -370 -246 -389 7 -6 2554
21 2560 27 3 3 10 104 16 225 6 121 13 234 16 252 3 27 -6 45 -60 115 l-63 82
23 35 c12 20 88 137 169 261 113 173 152 241 168 295 22 73 21 91 -19 323 -4
26 -16 39 -59 65 -49 29 -54 36 -65 85 -8 35 -21 60 -37 73 l-24 19 16 64 c9
36 16 69 16 74 0 5 -36 33 -80 62 -79 52 -83 57 -196 228 -63 96 -113 177
-110 179 3 3 105 23 227 44 121 20 222 39 224 41 1 2 7 13 13 24 10 19 6 26
-35 58 -26 20 -56 39 -68 41 -11 3 -98 18 -193 34 l-173 30 -112 97 c-62 54
-121 106 -132 116 -20 17 -22 17 -68 -21 l-47 -39 -272 109 c-150 60 -275 109
-278 108 -3 0 -132 -71 -287 -157z"/>
</g>
</svg>
