<?xml version="1.0" standalone="no"?>
<!DOCTYPE svg PUBLIC "-//W3C//DTD SVG 20010904//EN"
 "http://www.w3.org/TR/2001/REC-SVG-20010904/DTD/svg10.dtd">
<svg version="1.0" xmlns="http://www.w3.org/2000/svg"
 width="141.000000pt" height="160.000000pt" viewBox="0 0 141.000000 160.000000"
 preserveAspectRatio="xMidYMid meet">
<metadata>
Created by potrace 1.14, written by Peter Selinger 2001-2017
</metadata>
<g transform="translate(0.000000,160.000000) scale(0.100000,-0.100000)"
fill="#000000" stroke="none">
<path fill="#000000" stroke="none" d="M650 1575 c-16 -17 -34 -25 -57 -25
-20 0 -60 -14 -94 -32 -56 -31 -60 -36 -78 -93 -16 -51 -17 -75 -10 -157 10
-116 18 -162 36 -205 7 -18 13 -44 13 -58 0 -14 9 -43 20 -65 11 -22 20 -43
20 -48 0 -4 -23 -14 -51 -21 -75 -20 -248 -105 -291 -144 -48 -43 -118 -189
-118 -244 0 -21 -9 -70 -20 -108 -25 -86 -25 -80 5 -93 22 -10 25 -18 26 -64
0 -29 6 -91 13 -138 l11 -85 27 46 c15 25 34 52 43 59 12 10 171 22 623 46
334 18 607 33 607 34 0 0 -2 39 -5 87 -5 81 -4 90 17 116 13 16 23 32 23 36 0
23 -78 172 -125 238 -42 59 -69 86 -131 126 -44 29 -83 55 -88 59 -5 3 -2 18
8 33 14 22 15 32 7 57 -6 17 -11 32 -11 34 0 1 14 5 31 9 17 4 32 12 35 19 3
7 -2 41 -11 77 -21 90 -22 88 28 78 62 -12 65 -11 33 14 -27 22 -29 28 -27 89
3 100 -19 145 -103 208 -43 33 -87 57 -120 65 -28 8 -91 27 -141 44 -49 17
-97 31 -106 31 -8 0 -26 -11 -39 -25z"/>
</g>
</svg>
