<?xml version="1.0" standalone="no"?>
<!DOCTYPE svg PUBLIC "-//W3C//DTD SVG 20010904//EN"
 "http://www.w3.org/TR/2001/REC-SVG-20010904/DTD/svg10.dtd">
<svg version="1.0" xmlns="http://www.w3.org/2000/svg"
 width="190.000000pt" height="219.000000pt" viewBox="0 0 190.000000 219.000000"
 preserveAspectRatio="xMidYMid meet">
<metadata>
Created by potrace 1.14, written by Peter Selinger 2001-2017
</metadata>
<g transform="translate(0.000000,219.000000) scale(0.100000,-0.100000)"
fill="#000000" stroke="none">
<path fill="#000000" stroke="none" d="M583 2176 c-55 -10 -66 -16 -102 -58
-38 -43 -41 -51 -41 -104 0 -32 -7 -83 -16 -115 -14 -50 -14 -62 -2 -105 14
-47 13 -50 -11 -87 -16 -25 -45 -49 -80 -67 -31 -16 -87 -53 -125 -82 l-69
-53 -64 -160 -63 -160 -6 -135 -7 -135 43 -53 c41 -52 42 -55 31 -91 -6 -21
-11 -84 -11 -140 0 -100 0 -101 23 -96 12 3 131 -8 263 -25 133 -16 258 -30
277 -30 32 0 42 -7 75 -48 l38 -49 19 -173 18 -172 31 -13 c67 -27 75 -28 85
-3 5 13 18 47 30 76 l21 52 -65 43 c-35 23 -65 45 -65 49 0 9 113 90 156 111
17 9 34 26 37 38 5 17 11 20 32 15 44 -11 115 28 193 107 57 58 76 84 92 132
l21 60 -38 55 -38 55 -147 10 c-145 10 -148 11 -178 40 -25 26 -33 47 -51 136
l-21 106 27 44 c15 24 29 46 31 48 2 2 38 -17 81 -41 68 -39 84 -45 121 -41
41 5 48 2 140 -70 88 -67 111 -79 245 -128 136 -49 149 -56 170 -90 22 -36
120 -129 136 -129 20 0 44 44 61 111 11 40 18 75 16 76 -1 2 -34 14 -73 27
-47 16 -116 55 -214 121 -120 82 -175 128 -334 284 -190 186 -190 187 -340
270 -82 46 -158 94 -168 107 -17 22 -16 26 8 110 37 127 34 166 -20 271 -25
48 -45 93 -45 100 0 16 -39 15 -127 -1z"/>
</g>
</svg>
