<?xml version="1.0" standalone="no"?>
<!DOCTYPE svg PUBLIC "-//W3C//DTD SVG 20010904//EN"
 "http://www.w3.org/TR/2001/REC-SVG-20010904/DTD/svg10.dtd">
<svg version="1.0" xmlns="http://www.w3.org/2000/svg"
 width="172.000000pt" height="202.000000pt" viewBox="0 0 172.000000 202.000000"
 preserveAspectRatio="xMidYMid meet">
<metadata>
Created by potrace 1.14, written by Peter Selinger 2001-2017
</metadata>
<g transform="translate(0.000000,202.000000) scale(0.100000,-0.100000)"
fill="#000000" stroke="none">
<path fill="#000000" stroke="none" d="M329 1978 c10 -24 30 -69 44 -100 17
-37 22 -58 14 -58 -7 0 -43 5 -82 11 -38 5 -103 7 -143 3 l-73 -6 -46 -69 -45
-68 33 -40 34 -41 155 0 155 0 146 -52 146 -52 97 -275 98 -276 50 -325 50
-325 44 -67 c46 -70 51 -87 34 -117 -8 -15 3 -25 73 -64 l82 -46 148 -7 c95
-4 147 -3 147 3 0 5 -13 77 -30 158 -16 81 -30 152 -30 157 0 44 99 -111 101
-159 1 -15 4 -38 7 -49 7 -21 7 -21 89 10 45 17 84 34 88 38 4 3 -3 38 -14 76
l-21 71 -103 74 c-56 41 -131 93 -167 116 l-66 41 -86 367 c-101 428 -129 611
-109 729 11 63 16 72 57 108 31 26 62 42 97 50 l52 11 7 70 c4 39 9 84 13 101
l5 31 -202 6 c-112 4 -352 7 -535 7 l-332 0 18 -42z"/>
</g>
</svg>
