<?xml version="1.0" standalone="no"?>
<!DOCTYPE svg PUBLIC "-//W3C//DTD SVG 20010904//EN"
 "http://www.w3.org/TR/2001/REC-SVG-20010904/DTD/svg10.dtd">
<svg version="1.0" xmlns="http://www.w3.org/2000/svg"
 width="12.000000pt" height="14.000000pt" viewBox="0 0 12.000000 14.000000"
 preserveAspectRatio="xMidYMid meet">
<metadata>
Created by potrace 1.14, written by Peter Selinger 2001-2017
</metadata>
<g transform="translate(0.000000,14.000000) scale(0.100000,-0.100000)"
fill="#000000" stroke="none">
<path fill="#000000" stroke="none" d="M88 128 c5 -5 16 -8 23 -6 8 3 3 7 -10
11 -17 4 -21 3 -13 -5z"/>
<path fill="#000000" stroke="none" d="M26 109 c-14 -11 -26 -30 -25 -42 l0
-22 9 21 c4 12 21 31 37 42 15 12 23 22 17 22 -6 0 -23 -9 -38 -21z"/>
<path fill="#000000" stroke="none" d="M103 49 c-7 -7 -29 -15 -50 -19 l-38
-8 33 -1 c18 0 42 -6 53 -11 17 -10 19 -7 19 20 0 34 -1 35 -17 19z"/>
</g>
</svg>
