<?xml version="1.0" standalone="no"?>
<!DOCTYPE svg PUBLIC "-//W3C//DTD SVG 20010904//EN"
 "http://www.w3.org/TR/2001/REC-SVG-20010904/DTD/svg10.dtd">
<svg version="1.0" xmlns="http://www.w3.org/2000/svg"
 width="200.000000pt" height="214.000000pt" viewBox="0 0 200.000000 214.000000"
 preserveAspectRatio="xMidYMid meet">
<metadata>
Created by potrace 1.14, written by Peter Selinger 2001-2017
</metadata>
<g transform="translate(0.000000,214.000000) scale(0.100000,-0.100000)"
fill="#000000" stroke="none">
<path fill="#000000" stroke="none" d="M751 1958 l-60 -181 -78 -81 c-82 -85
-260 -226 -353 -279 -30 -17 -79 -50 -107 -73 -29 -23 -68 -47 -86 -53 -32
-11 -34 -15 -46 -84 -7 -39 -14 -79 -17 -87 -2 -8 32 -66 75 -128 71 -103 86
-118 155 -160 l75 -47 1 -73 c0 -68 -3 -79 -51 -175 -50 -98 -109 -254 -109
-286 0 -9 14 -55 31 -103 l32 -88 79 -17 c71 -15 77 -18 57 -29 -19 -10 -15
-11 27 -7 27 2 302 21 612 42 309 21 565 41 568 43 2 3 -6 76 -19 162 -23 150
-23 157 -6 172 10 9 16 20 14 24 -3 4 33 32 80 61 80 50 87 58 119 124 19 38
64 153 101 255 52 142 69 203 74 260 5 63 12 85 43 135 34 57 37 65 31 118 -5
51 -9 59 -39 78 -33 20 -36 20 -106 4 -73 -16 -73 -17 -128 -88 -30 -39 -88
-107 -128 -151 -41 -46 -97 -124 -128 -178 -55 -97 -55 -98 -93 -98 l-39 0
-16 64 c-15 61 -15 75 5 245 l22 180 -37 108 c-41 118 -153 323 -239 437 -41
54 -66 76 -116 102 -40 21 -78 34 -102 34 l-37 0 -61 -182z"/>
<path fill="#000000" stroke="none" d="M1858 1741 c-25 -14 -56 -38 -67 -53
-23 -29 -29 -98 -8 -98 6 0 45 14 85 32 l72 32 0 52 c0 38 -4 53 -16 58 -9 3
-16 6 -17 5 -1 -1 -23 -13 -49 -28z"/>
</g>
</svg>
