<?xml version="1.0" standalone="no"?>
<!DOCTYPE svg PUBLIC "-//W3C//DTD SVG 20010904//EN"
 "http://www.w3.org/TR/2001/REC-SVG-20010904/DTD/svg10.dtd">
<svg version="1.0" xmlns="http://www.w3.org/2000/svg"
 width="225.000000pt" height="250.000000pt" viewBox="0 0 225.000000 250.000000"
 preserveAspectRatio="xMidYMid meet">
<metadata>
Created by potrace 1.14, written by Peter Selinger 2001-2017
</metadata>
<g transform="translate(0.000000,250.000000) scale(0.100000,-0.100000)"
fill="#000000" stroke="none">
<path fill="#000000" stroke="none" d="M43 2493 c-24 -2 -43 -6 -43 -9 0 -2
17 -29 37 -60 32 -48 47 -60 117 -94 56 -26 112 -65 181 -125 55 -48 111 -92
125 -98 14 -7 59 -39 101 -72 41 -33 87 -69 102 -80 l26 -20 -14 -70 -14 -70
27 -25 c15 -14 54 -48 87 -76 l58 -51 -11 -71 c-7 -39 -12 -150 -12 -247 0
-164 -1 -178 -21 -205 -24 -32 -22 -70 8 -167 l16 -51 -56 -80 c-74 -105 -110
-192 -108 -256 2 -44 -2 -54 -45 -110 -39 -49 -47 -68 -46 -96 5 -70 7 -72 75
-65 57 6 64 5 85 -18 l24 -25 -40 -54 c-38 -51 -72 -117 -72 -142 0 -19 52
-44 102 -47 43 -4 52 0 98 36 l51 40 -7 75 c-5 63 -3 83 15 123 16 37 18 53
11 73 -9 22 -4 41 29 113 43 94 59 146 71 235 10 65 25 86 90 127 39 24 47 26
60 14 9 -8 49 -19 90 -26 41 -6 86 -15 99 -21 16 -5 28 -5 35 2 15 15 76 12
82 -3 2 -7 1 -24 -4 -37 -5 -14 -5 -34 1 -50 8 -22 6 -32 -11 -56 -18 -24 -20
-35 -13 -67 8 -31 6 -39 -9 -47 -36 -19 -31 -60 15 -143 39 -70 42 -78 26 -86
-9 -5 -29 -37 -43 -70 l-26 -61 56 -50 c72 -63 178 -108 201 -85 13 13 13 27
2 102 -6 49 -19 98 -27 111 -9 14 -12 31 -8 40 3 9 8 54 10 100 3 62 10 95 28
130 17 35 26 78 35 172 7 69 17 147 22 174 8 45 6 53 -24 108 -30 56 -38 62
-142 120 -159 89 -228 137 -221 154 3 8 13 40 22 72 16 57 37 83 99 123 41 26
85 24 180 -7 67 -22 89 -35 140 -84 43 -41 77 -64 120 -79 33 -12 91 -36 128
-53 l69 -32 -4 -50 c-3 -28 -8 -60 -13 -71 -8 -18 -7 -18 8 -7 26 22 116 6
126 -21 8 -21 9 -20 24 9 11 22 13 34 5 48 -8 15 -7 22 6 31 15 11 13 14 -12
24 -15 6 -38 28 -51 49 -12 20 -46 52 -74 71 -29 19 -90 64 -137 101 -47 37
-96 73 -110 80 -74 38 -162 106 -200 155 -23 30 -46 55 -51 55 -4 0 -19 4 -34
10 l-26 10 23 30 c16 22 30 30 52 30 52 0 60 14 21 33 l-36 17 7 62 c6 62 5
64 -30 99 -19 19 -52 47 -73 62 -35 24 -42 25 -85 16 -52 -11 -79 -39 -142
-143 -18 -30 -36 -53 -38 -50 -3 2 -31 9 -62 14 -34 5 -80 23 -114 44 -31 18
-74 39 -94 44 -41 11 -188 99 -188 112 0 5 -31 19 -68 31 -62 20 -72 27 -106
76 -34 49 -50 60 -145 107 -170 83 -240 132 -263 183 -19 42 -20 43 -66 41
-26 -1 -66 -3 -89 -5z"/>
</g>
</svg>
