<?xml version="1.0" standalone="no"?>
<!DOCTYPE svg PUBLIC "-//W3C//DTD SVG 20010904//EN"
 "http://www.w3.org/TR/2001/REC-SVG-20010904/DTD/svg10.dtd">
<svg version="1.0" xmlns="http://www.w3.org/2000/svg"
 width="29.000000pt" height="32.000000pt" viewBox="0 0 29.000000 32.000000"
 preserveAspectRatio="xMidYMid meet">
<metadata>
Created by potrace 1.14, written by Peter Selinger 2001-2017
</metadata>
<g transform="translate(0.000000,32.000000) scale(0.100000,-0.100000)"
fill="#000000" stroke="none">
<path fill="#000000" stroke="none" d="M17 309 c-26 -15 -21 -33 23 -84 34
-40 60 -56 52 -32 -1 4 5 7 14 7 12 0 15 9 12 44 -2 24 -10 51 -17 60 -15 18
-57 21 -84 5z"/>
<path fill="#000000" stroke="none" d="M96 119 c-3 -13 -9 -46 -14 -72 l-10
-48 24 16 c14 9 24 11 24 5 0 -18 132 0 155 21 19 19 19 19 -23 19 -26 0 -41
-4 -37 -10 17 -28 -20 -4 -64 42 -48 49 -50 50 -55 27z"/>
</g>
</svg>
