<?xml version="1.0" standalone="no"?>
<!DOCTYPE svg PUBLIC "-//W3C//DTD SVG 20010904//EN"
 "http://www.w3.org/TR/2001/REC-SVG-20010904/DTD/svg10.dtd">
<svg version="1.0" xmlns="http://www.w3.org/2000/svg"
 width="295.000000pt" height="344.000000pt" viewBox="0 0 295.000000 344.000000"
 preserveAspectRatio="xMidYMid meet">
<metadata>
Created by potrace 1.14, written by Peter Selinger 2001-2017
</metadata>
<g transform="translate(0.000000,344.000000) scale(0.100000,-0.100000)"
fill="#000000" stroke="none">
<path fill="#000000" stroke="none" d="M1989 3289 c-132 -148 -136 -154 -242
-357 -59 -113 -110 -208 -112 -210 -2 -2 -122 12 -267 32 -145 20 -274 36
-285 36 -14 0 -45 -27 -89 -75 l-67 -76 2 -73 2 -73 -112 -49 -112 -49 -151
-220 c-206 -299 -248 -389 -387 -815 -84 -257 -117 -374 -141 -502 l-32 -167
43 -343 c24 -189 44 -344 44 -345 1 -1 112 6 247 15 216 15 249 19 275 38 26
18 87 27 439 67 225 26 410 48 412 49 1 2 31 50 66 108 57 95 80 121 248 281
162 154 292 263 311 264 4 0 70 39 148 87 l141 87 281 75 c155 42 283 77 285
78 2 2 3 91 4 198 1 151 -3 204 -14 235 l-15 40 -1 -41 c0 -33 -5 -45 -26 -59
-21 -13 -25 -23 -22 -52 3 -34 1 -36 -44 -54 l-48 -19 -35 78 c-20 42 -47 102
-61 133 -20 44 -30 56 -43 52 -36 -9 -153 79 -234 177 -94 112 -93 120 27 121
44 0 115 6 156 12 l75 12 24 90 c20 80 29 97 77 151 82 94 125 164 114 185 -8
14 -3 22 25 39 44 27 48 44 40 153 -15 195 -37 278 -124 466 -45 96 -89 180
-99 187 -78 60 -95 67 -332 125 -133 32 -246 59 -250 59 -4 0 -68 -68 -141
-151z"/>
</g>
</svg>
