<?xml version="1.0" standalone="no"?>
<!DOCTYPE svg PUBLIC "-//W3C//DTD SVG 20010904//EN"
 "http://www.w3.org/TR/2001/REC-SVG-20010904/DTD/svg10.dtd">
<svg version="1.0" xmlns="http://www.w3.org/2000/svg"
 width="76.000000pt" height="83.000000pt" viewBox="0 0 76.000000 83.000000"
 preserveAspectRatio="xMidYMid meet">
<metadata>
Created by potrace 1.14, written by Peter Selinger 2001-2017
</metadata>
<g transform="translate(0.000000,83.000000) scale(0.100000,-0.100000)"
fill="#000000" stroke="none">
<path fill="#000000" stroke="none" d="M8 688 l-4 -143 45 -85 c25 -48 76
-122 119 -170 71 -82 142 -188 142 -213 0 -7 -9 -27 -20 -45 -12 -19 -17 -32
-13 -30 5 1 47 23 94 47 l86 45 -29 57 c-37 75 -47 126 -24 135 9 3 54 1 100
-6 l85 -12 3 -39 3 -39 82 52 c74 47 82 55 76 78 -11 49 -21 57 -84 69 -108
22 -257 68 -288 90 l-30 22 34 54 35 53 -34 30 c-63 55 -121 89 -162 96 -36 6
-44 13 -59 46 -19 42 -35 50 -107 50 l-46 0 -4 -142z"/>
</g>
</svg>
