<?xml version="1.0" standalone="no"?>
<!DOCTYPE svg PUBLIC "-//W3C//DTD SVG 20010904//EN"
 "http://www.w3.org/TR/2001/REC-SVG-20010904/DTD/svg10.dtd">
<svg version="1.0" xmlns="http://www.w3.org/2000/svg"
 width="26.000000pt" height="30.000000pt" viewBox="0 0 26.000000 30.000000"
 preserveAspectRatio="xMidYMid meet">
<metadata>
Created by potrace 1.14, written by Peter Selinger 2001-2017
</metadata>
<g transform="translate(0.000000,30.000000) scale(0.100000,-0.100000)"
fill="#000000" stroke="none">
<path fill="#000000" stroke="none" d="M50 270 c-7 -17 -10 -52 -8 -80 4 -43
3 -50 -12 -50 -23 0 -33 -39 -19 -79 6 -17 13 -31 14 -31 2 0 19 9 39 20 32
19 37 20 69 6 20 -8 40 -24 47 -35 12 -24 38 -27 64 -8 16 12 16 16 -5 71 -17
44 -32 64 -56 78 -29 17 -33 25 -33 60 0 57 -14 78 -54 78 -28 0 -36 -5 -46
-30z"/>
</g>
</svg>
