<?xml version="1.0" standalone="no"?>
<!DOCTYPE svg PUBLIC "-//W3C//DTD SVG 20010904//EN"
 "http://www.w3.org/TR/2001/REC-SVG-20010904/DTD/svg10.dtd">
<svg version="1.0" xmlns="http://www.w3.org/2000/svg"
 width="232.000000pt" height="262.000000pt" viewBox="0 0 232.000000 262.000000"
 preserveAspectRatio="xMidYMid meet">
<metadata>
Created by potrace 1.14, written by Peter Selinger 2001-2017
</metadata>
<g transform="translate(0.000000,262.000000) scale(0.100000,-0.100000)"
fill="#000000" stroke="none">
<path fill="#000000" stroke="none" d="M1671 2602 c-18 -12 -25 -14 -29 -4 -2
8 -29 12 -84 12 l-80 0 -42 -41 c-22 -23 -95 -79 -161 -125 l-120 -82 -28 -76
-28 -76 66 -120 67 -120 -32 -56 -32 -55 23 -25 22 -24 -34 0 c-61 0 -481 -81
-608 -117 -68 -19 -155 -52 -195 -73 -64 -35 -81 -39 -171 -46 -55 -4 -103
-12 -107 -18 -4 -6 -8 -21 -8 -33 0 -17 -6 -23 -22 -23 -59 0 -68 -9 -68 -63
l0 -50 75 6 75 7 0 -65 c0 -37 4 -65 10 -65 6 0 10 27 10 60 0 63 24 130 47
130 7 0 29 -18 49 -39 46 -52 128 -97 190 -106 27 -4 58 -12 68 -17 10 -6 76
-63 145 -128 l126 -117 130 -41 c72 -23 135 -45 142 -50 15 -9 -19 -62 -185
-292 l-112 -155 -117 -45 -117 -46 -33 -134 -33 -135 23 -69 c15 -47 28 -71
42 -76 12 -4 79 -1 150 7 99 11 238 13 584 11 l454 -3 58 135 c32 74 58 150
58 168 1 18 17 87 37 152 32 106 35 125 26 166 -8 38 -5 78 19 219 16 99 35
260 42 382 8 115 17 215 21 222 4 6 33 11 65 11 l59 0 60 83 c33 46 82 130
107 188 l47 104 -5 190 -5 190 -41 119 c-22 66 -51 130 -63 143 -13 14 -62 47
-110 74 l-88 49 -157 -1 c-131 0 -162 -3 -182 -17z"/>
<path fill="#ffffff" stroke="none" d="M1083 1473 c4 -38 7 -94 7 -126 l0 -58
-109 56 c-84 44 -123 72 -177 126 l-68 69 170 0 171 0 6 -67z"/>
</g>
</svg>
