<?xml version="1.0" standalone="no"?>
<!DOCTYPE svg PUBLIC "-//W3C//DTD SVG 20010904//EN"
 "http://www.w3.org/TR/2001/REC-SVG-20010904/DTD/svg10.dtd">
<svg version="1.0" xmlns="http://www.w3.org/2000/svg"
 width="352.000000pt" height="376.000000pt" viewBox="0 0 352.000000 376.000000"
 preserveAspectRatio="xMidYMid meet">
<metadata>
Created by potrace 1.14, written by Peter Selinger 2001-2017
</metadata>
<g transform="translate(0.000000,376.000000) scale(0.100000,-0.100000)"
fill="#000000" stroke="none">
<path fill="#000000" stroke="none" d="M2295 3749 c-55 -5 -109 -13 -120 -18
-11 -5 -47 -14 -80 -19 -106 -18 -155 -48 -254 -159 -62 -69 -109 -133 -151
-209 -72 -129 -75 -139 -62 -199 8 -36 6 -61 -9 -118 -10 -40 -19 -88 -18
-107 0 -19 -22 -117 -48 -217 -37 -146 -51 -183 -64 -183 -9 0 -23 10 -32 23
-14 21 -20 22 -158 22 -79 -1 -171 -7 -204 -14 l-60 -13 -100 -134 c-55 -74
-103 -134 -108 -134 -4 0 -30 -21 -57 -46 -49 -46 -53 -47 -248 -98 -110 -29
-210 -59 -223 -68 -13 -8 -86 -105 -162 -216 l-137 -200 0 -61 c0 -33 10 -116
21 -183 l22 -123 115 -144 116 -144 170 6 c169 6 173 6 386 -34 118 -22 221
-42 229 -45 8 -2 -55 -45 -144 -97 -86 -51 -166 -105 -177 -119 l-19 -27 43
-103 c39 -93 48 -106 91 -135 25 -17 52 -33 59 -35 8 -3 4 -19 -15 -50 l-27
-46 50 -37 50 -37 43 15 c32 11 69 13 135 9 l92 -5 52 -56 c29 -31 88 -83 130
-117 l77 -61 353 -6 c194 -4 617 -7 939 -7 l587 0 16 65 c16 63 15 74 -33 562
-57 572 -55 562 -163 712 -72 99 -235 251 -248 231 -4 -6 -25 9 -48 34 -22 24
-77 64 -121 90 l-81 47 0 94 0 94 82 -35 81 -35 38 25 c40 27 94 80 145 143
147 179 169 218 153 276 -6 23 -3 29 19 41 52 28 120 110 155 186 47 104 103
277 126 388 l19 93 -24 87 c-38 140 -33 133 -177 219 -73 43 -193 121 -267
174 -78 55 -195 126 -275 167 -131 66 -146 71 -240 82 -55 6 -109 13 -120 15
-11 1 -65 -1 -120 -6z"/>
</g>
</svg>
