<?xml version="1.0" standalone="no"?>
<!DOCTYPE svg PUBLIC "-//W3C//DTD SVG 20010904//EN"
 "http://www.w3.org/TR/2001/REC-SVG-20010904/DTD/svg10.dtd">
<svg version="1.0" xmlns="http://www.w3.org/2000/svg"
 width="246.000000pt" height="285.000000pt" viewBox="0 0 246.000000 285.000000"
 preserveAspectRatio="xMidYMid meet">
<metadata>
Created by potrace 1.14, written by Peter Selinger 2001-2017
</metadata>
<g transform="translate(0.000000,285.000000) scale(0.100000,-0.100000)"
fill="#000000" stroke="none">
<path fill="#000000" stroke="none" d="M1370 2843 c-80 -12 -112 -27 -150 -71
-43 -48 -59 -92 -80 -210 l-14 -74 -50 -23 c-28 -12 -103 -62 -166 -109 -112
-85 -116 -87 -160 -82 -25 3 -115 8 -200 12 -85 4 -207 14 -270 23 -70 10
-146 14 -195 11 l-80 -5 3 -89 c1 -49 3 -91 5 -92 1 -1 166 -17 367 -35 l365
-32 158 76 159 77 114 -235 c134 -277 133 -270 79 -485 -34 -133 -35 -146 -35
-320 0 -170 -3 -202 -60 -573 -33 -215 -62 -401 -65 -412 -3 -11 -44 -49 -90
-84 -47 -35 -82 -67 -78 -71 4 -4 70 -15 146 -25 l138 -18 28 27 c26 25 32 26
94 20 62 -6 67 -5 67 13 0 11 20 208 45 439 l46 419 65 199 66 198 42 -6 c22
-4 44 -10 47 -14 3 -4 131 -273 284 -598 l278 -592 81 -24 c95 -29 90 -33 101
83 l7 76 -167 507 -166 508 15 46 c28 80 21 114 -70 368 -59 167 -109 284
-163 389 -43 83 -78 157 -78 165 -1 17 -254 482 -311 572 -36 57 -38 58 -82
57 -25 -1 -56 -3 -70 -6z"/>
</g>
</svg>
