<?xml version="1.0" standalone="no"?>
<!DOCTYPE svg PUBLIC "-//W3C//DTD SVG 20010904//EN"
 "http://www.w3.org/TR/2001/REC-SVG-20010904/DTD/svg10.dtd">
<svg version="1.0" xmlns="http://www.w3.org/2000/svg"
 width="120.000000pt" height="130.000000pt" viewBox="0 0 120.000000 130.000000"
 preserveAspectRatio="xMidYMid meet">
<metadata>
Created by potrace 1.14, written by Peter Selinger 2001-2017
</metadata>
<g transform="translate(0.000000,130.000000) scale(0.100000,-0.100000)"
fill="#000000" stroke="none">
<path fill="#000000" stroke="none" d="M171 1253 c-48 -53 -53 -92 -21 -160
l19 -42 -22 -18 c-12 -10 -46 -49 -76 -86 -42 -53 -54 -76 -55 -107 -2 -31 2
-40 20 -49 20 -9 25 -6 45 27 28 47 69 92 84 92 7 0 17 -11 23 -24 10 -22 7
-25 -28 -41 -21 -10 -42 -25 -45 -33 -8 -21 23 -44 50 -38 11 2 46 8 77 11 68
9 103 -8 112 -52 4 -16 15 -41 26 -57 l19 -29 -53 -61 c-101 -117 -130 -170
-177 -330 l-44 -148 -61 4 c-55 3 -61 2 -56 -15 6 -22 121 -82 173 -90 l37 -5
30 96 c17 53 41 141 53 195 22 96 23 98 70 132 26 19 71 46 100 60 56 29 54
29 84 -26 7 -14 40 -42 73 -62 55 -34 66 -37 134 -37 40 0 119 9 176 20 135
26 193 26 217 0 24 -27 45 -25 45 3 0 14 -20 42 -52 74 l-53 52 -140 -14 c-77
-8 -165 -15 -196 -15 l-56 0 -37 55 c-22 34 -36 67 -36 86 0 35 -23 79 -111
210 -62 92 -124 219 -108 219 6 0 9 15 7 32 -3 30 -7 33 -46 41 -26 5 -45 15
-49 25 -24 71 -54 122 -81 136 -31 16 -31 16 -71 -31z"/>
</g>
</svg>
