<?xml version="1.0" standalone="no"?>
<!DOCTYPE svg PUBLIC "-//W3C//DTD SVG 20010904//EN"
 "http://www.w3.org/TR/2001/REC-SVG-20010904/DTD/svg10.dtd">
<svg version="1.0" xmlns="http://www.w3.org/2000/svg"
 width="24.000000pt" height="28.000000pt" viewBox="0 0 24.000000 28.000000"
 preserveAspectRatio="xMidYMid meet">
<metadata>
Created by potrace 1.14, written by Peter Selinger 2001-2017
</metadata>
<g transform="translate(0.000000,28.000000) scale(0.100000,-0.100000)"
fill="#000000" stroke="none">
<path fill="#000000" stroke="none" d="M54 270 c-38 -15 -48 -39 -52 -131 -4
-83 -3 -92 18 -115 13 -13 34 -24 47 -24 20 0 23 5 23 38 0 26 6 42 20 52 15
11 20 26 20 63 0 60 18 59 38 -1 15 -45 20 -49 45 -29 48 36 19 111 -43 109
-22 0 -38 6 -47 17 -15 23 -42 30 -69 21z"/>
</g>
</svg>
