<?xml version="1.0" standalone="no"?>
<!DOCTYPE svg PUBLIC "-//W3C//DTD SVG 20010904//EN"
 "http://www.w3.org/TR/2001/REC-SVG-20010904/DTD/svg10.dtd">
<svg version="1.0" xmlns="http://www.w3.org/2000/svg"
 width="221.000000pt" height="252.000000pt" viewBox="0 0 221.000000 252.000000"
 preserveAspectRatio="xMidYMid meet">
<metadata>
Created by potrace 1.14, written by Peter Selinger 2001-2017
</metadata>
<g transform="translate(0.000000,252.000000) scale(0.100000,-0.100000)"
fill="#000000" stroke="none">
<path fill="#000000" stroke="none" d="M194 2480 c-77 -43 -138 -112 -174
-194 -16 -37 -18 -61 -13 -167 3 -77 11 -141 21 -169 15 -43 198 -274 223
-282 8 -3 0 -47 -25 -140 -20 -74 -36 -143 -36 -151 0 -28 240 -380 305 -447
57 -59 66 -74 94 -160 29 -90 34 -98 82 -134 67 -50 166 -71 236 -50 26 8 50
13 53 12 4 -2 -24 -77 -62 -168 l-69 -165 57 -116 57 -115 96 -15 c121 -19
201 -15 201 11 0 34 36 60 150 111 103 45 118 50 146 40 31 -11 32 -11 268 78
14 5 -30 33 -177 112 -178 95 -198 108 -228 153 -19 27 -59 68 -90 91 l-57 42
14 33 c8 18 11 37 7 41 -5 3 -60 26 -123 50 -63 23 -120 47 -126 53 -35 35
-66 216 -47 272 13 39 -8 89 -45 108 -29 15 -102 90 -102 104 0 4 7 34 15 67
8 33 14 84 15 114 0 29 8 94 17 145 14 76 25 105 68 176 l51 84 108 49 c84 38
129 52 202 62 51 8 118 19 149 25 56 12 57 12 111 -24 l54 -36 67 11 c60 10
74 9 118 -9 42 -16 56 -30 95 -88 49 -75 75 -88 125 -61 l27 13 -28 33 c-15
18 -23 36 -18 40 5 5 37 19 72 31 52 19 69 21 97 13 l34 -11 -14 35 c-19 45
-19 67 0 83 8 7 15 20 15 29 0 23 -39 75 -85 111 -31 25 -47 30 -89 30 -47 0
-53 3 -69 30 -13 21 -26 30 -45 30 -15 0 -58 7 -97 15 -65 14 -74 14 -145 -6
-180 -49 -176 -49 -265 -37 -58 8 -101 8 -139 2 -37 -7 -59 -7 -65 -1 -6 6
-59 11 -118 13 -99 2 -110 1 -138 -21 -27 -20 -207 -115 -219 -115 -3 0 -23
37 -44 83 -71 149 -104 196 -174 240 -61 39 -67 41 -158 44 l-95 4 -71 -41z"/>
</g>
</svg>
