<?xml version="1.0" standalone="no"?>
<!DOCTYPE svg PUBLIC "-//W3C//DTD SVG 20010904//EN"
 "http://www.w3.org/TR/2001/REC-SVG-20010904/DTD/svg10.dtd">
<svg version="1.0" xmlns="http://www.w3.org/2000/svg"
 width="438.000000pt" height="472.000000pt" viewBox="0 0 438.000000 472.000000"
 preserveAspectRatio="xMidYMid meet">
<metadata>
Created by potrace 1.14, written by Peter Selinger 2001-2017
</metadata>
<g transform="translate(0.000000,472.000000) scale(0.100000,-0.100000)"
fill="#000000" stroke="none">
<path fill="#000000" stroke="none" d="M1660 4712 l-85 -3 -38 -47 c-109 -133
-225 -279 -234 -297 -19 -35 -63 -209 -63 -246 l0 -37 -46 6 -47 5 7 -99 c11
-155 12 -159 57 -179 34 -16 87 -73 221 -241 17 -21 16 -24 -21 -81 l-38 -59
104 -49 c75 -35 105 -54 109 -69 4 -19 23 -26 132 -51 134 -31 142 -35 214
-122 22 -27 34 -33 85 -38 57 -7 61 -6 99 26 80 68 78 66 66 44 -5 -11 -31
-56 -57 -100 -26 -44 -58 -116 -72 -160 -23 -76 -24 -84 -13 -180 11 -92 11
-105 -8 -165 -34 -109 -116 -278 -199 -411 -44 -70 -86 -148 -93 -174 -13 -46
-25 -57 -307 -293 l-294 -245 -203 -251 -202 -251 -115 -64 c-100 -57 -125
-77 -204 -162 -73 -79 -97 -99 -125 -104 -20 -3 -40 -9 -46 -13 -6 -4 -63
-110 -127 -236 l-117 -228 25 -30 c30 -35 30 -37 9 -67 -14 -19 -14 -25 -3
-32 17 -11 589 -12 589 -1 0 4 -13 27 -29 52 l-28 45 43 51 c51 61 58 75 73
170 7 39 20 83 31 98 13 21 120 83 390 227 l371 199 224 203 c206 187 236 218
395 416 107 135 201 265 251 348 44 73 84 133 89 133 5 0 75 -14 156 -31 115
-25 152 -29 166 -20 15 9 42 -1 159 -59 89 -45 161 -75 197 -81 34 -5 109 -34
182 -70 l126 -61 467 303 466 304 1 135 c0 74 7 497 15 939 9 442 14 805 13
806 -2 1 -82 28 -180 59 l-176 56 -499 0 c-440 0 -512 3 -614 19 -64 11 -125
24 -135 29 -13 6 -53 6 -118 -1 -92 -10 -101 -9 -110 8 -29 49 -142 184 -193
230 -32 29 -98 77 -148 108 -78 48 -104 58 -194 76 -101 20 -145 22 -351 13z"/>
</g>
</svg>
