<?xml version="1.0" standalone="no"?>
<!DOCTYPE svg PUBLIC "-//W3C//DTD SVG 20010904//EN"
 "http://www.w3.org/TR/2001/REC-SVG-20010904/DTD/svg10.dtd">
<svg version="1.0" xmlns="http://www.w3.org/2000/svg"
 width="49.000000pt" height="53.000000pt" viewBox="0 0 49.000000 53.000000"
 preserveAspectRatio="xMidYMid meet">
<metadata>
Created by potrace 1.14, written by Peter Selinger 2001-2017
</metadata>
<g transform="translate(0.000000,53.000000) scale(0.100000,-0.100000)"
fill="#000000" stroke="none">
<path fill="#000000" stroke="none" d="M121 508 c-12 -12 -43 -67 -71 -123
l-50 -101 6 -132 c4 -72 10 -135 13 -140 4 -6 67 -7 154 -4 l147 5 0 30 c0 22
22 60 85 143 86 115 93 134 54 155 -23 12 -50 -3 -73 -43 -9 -15 -38 -40 -64
-55 -26 -14 -55 -33 -64 -41 -16 -14 -20 -10 -44 42 l-26 58 42 43 c43 43 43
44 37 100 -7 73 -18 85 -78 85 -37 0 -53 -5 -68 -22z"/>
</g>
</svg>
