<?xml version="1.0" standalone="no"?>
<!DOCTYPE svg PUBLIC "-//W3C//DTD SVG 20010904//EN"
 "http://www.w3.org/TR/2001/REC-SVG-20010904/DTD/svg10.dtd">
<svg version="1.0" xmlns="http://www.w3.org/2000/svg"
 width="69.000000pt" height="77.000000pt" viewBox="0 0 69.000000 77.000000"
 preserveAspectRatio="xMidYMid meet">
<metadata>
Created by potrace 1.14, written by Peter Selinger 2001-2017
</metadata>
<g transform="translate(0.000000,77.000000) scale(0.100000,-0.100000)"
fill="#000000" stroke="none">
<path fill="#000000" stroke="none" d="M17 752 c-12 -13 -17 -36 -17 -74 0
-63 7 -88 24 -88 17 -1 43 -41 55 -86 16 -59 13 -110 -9 -154 -11 -22 -20 -56
-20 -77 0 -49 42 -177 66 -204 26 -29 84 -23 103 12 13 24 12 34 -12 111 -17
53 -27 107 -27 145 0 82 -12 111 -47 115 -24 3 -29 9 -34 42 -4 25 0 59 12 98
35 112 19 178 -45 178 -19 0 -40 -8 -49 -18z"/>
<path fill="#000000" stroke="none" d="M427 752 c-10 -10 -17 -25 -17 -33 0
-9 -7 -24 -15 -35 -9 -12 -15 -44 -15 -94 0 -41 -9 -113 -20 -160 -22 -96 -26
-254 -8 -309 33 -105 50 -124 104 -119 29 2 42 9 53 29 14 25 13 31 -11 85
-23 52 -27 73 -28 184 -3 181 11 277 52 345 36 61 13 125 -46 125 -19 0 -40
-8 -49 -18z"/>
<path fill="#000000" stroke="none" d="M672 688 c-17 -17 -15 -86 3 -104 13
-14 15 -8 15 50 0 36 -1 66 -3 66 -2 0 -8 -5 -15 -12z"/>
</g>
</svg>
