<?xml version="1.0" standalone="no"?>
<!DOCTYPE svg PUBLIC "-//W3C//DTD SVG 20010904//EN"
 "http://www.w3.org/TR/2001/REC-SVG-20010904/DTD/svg10.dtd">
<svg version="1.0" xmlns="http://www.w3.org/2000/svg"
 width="171.000000pt" height="201.000000pt" viewBox="0 0 171.000000 201.000000"
 preserveAspectRatio="xMidYMid meet">
<metadata>
Created by potrace 1.14, written by Peter Selinger 2001-2017
</metadata>
<g transform="translate(0.000000,201.000000) scale(0.100000,-0.100000)"
fill="#000000" stroke="none">
<path fill="#000000" stroke="none" d="M310 1984 c-53 -41 -105 -91 -182 -177
l-70 -77 -28 -223 c-16 -122 -26 -244 -23 -272 2 -27 31 -129 64 -225 52 -153
72 -196 157 -340 108 -182 86 -163 226 -191 l59 -11 -6 -114 -6 -115 -85 -107
c-46 -59 -82 -109 -79 -112 4 -4 1363 -18 1371 -14 12 6 -140 254 -225 367
l-104 138 -48 172 c-27 95 -56 213 -66 264 -16 88 -18 91 -39 83 -21 -8 -24
-4 -39 58 -9 37 -19 97 -23 133 -6 61 -4 68 14 73 20 7 20 7 2 89 -34 155 -72
282 -91 302 -28 32 -49 91 -43 123 6 28 3 30 -80 67 -48 21 -94 38 -104 38
-14 0 -419 75 -492 92 -18 4 -35 -2 -60 -21z"/>
</g>
</svg>
