<?xml version="1.0" standalone="no"?>
<!DOCTYPE svg PUBLIC "-//W3C//DTD SVG 20010904//EN"
 "http://www.w3.org/TR/2001/REC-SVG-20010904/DTD/svg10.dtd">
<svg version="1.0" xmlns="http://www.w3.org/2000/svg"
 width="30.000000pt" height="32.000000pt" viewBox="0 0 30.000000 32.000000"
 preserveAspectRatio="xMidYMid meet">
<metadata>
Created by potrace 1.14, written by Peter Selinger 2001-2017
</metadata>
<g transform="translate(0.000000,32.000000) scale(0.100000,-0.100000)"
fill="#000000" stroke="none">
<path fill="#000000" stroke="none" d="M25 237 c-16 -46 -26 -91 -22 -100 4
-11 23 -18 57 -23 53 -7 54 -9 41 -66 l-8 -36 96 -4 c53 -2 97 -4 98 -3 1 1
-4 23 -12 50 -14 46 -14 50 5 70 21 23 24 54 14 143 l-7 52 -117 0 -117 0 -28
-83z"/>
</g>
</svg>
