<?xml version="1.0" standalone="no"?>
<!DOCTYPE svg PUBLIC "-//W3C//DTD SVG 20010904//EN"
 "http://www.w3.org/TR/2001/REC-SVG-20010904/DTD/svg10.dtd">
<svg version="1.0" xmlns="http://www.w3.org/2000/svg"
 width="32.000000pt" height="37.000000pt" viewBox="0 0 32.000000 37.000000"
 preserveAspectRatio="xMidYMid meet">
<metadata>
Created by potrace 1.14, written by Peter Selinger 2001-2017
</metadata>
<g transform="translate(0.000000,37.000000) scale(0.100000,-0.100000)"
fill="#000000" stroke="none">
<path fill="#000000" stroke="none" d="M173 362 c-22 -3 -43 -49 -43 -97 0
-41 -12 -62 -50 -85 -33 -20 -41 -33 -55 -84 -9 -34 -19 -69 -21 -78 -5 -16 4
-18 83 -18 l88 0 71 71 c65 65 71 74 62 95 -7 14 -24 26 -47 32 -24 6 -35 13
-32 23 3 8 6 34 9 59 3 37 0 48 -20 66 -13 11 -33 18 -45 16z"/>
</g>
</svg>
