<?xml version="1.0" standalone="no"?>
<!DOCTYPE svg PUBLIC "-//W3C//DTD SVG 20010904//EN"
 "http://www.w3.org/TR/2001/REC-SVG-20010904/DTD/svg10.dtd">
<svg version="1.0" xmlns="http://www.w3.org/2000/svg"
 width="47.000000pt" height="55.000000pt" viewBox="0 0 47.000000 55.000000"
 preserveAspectRatio="xMidYMid meet">
<metadata>
Created by potrace 1.14, written by Peter Selinger 2001-2017
</metadata>
<g transform="translate(0.000000,55.000000) scale(0.100000,-0.100000)"
fill="#000000" stroke="none">
<path fill="#000000" stroke="none" d="M125 510 c-4 -21 -4 -48 0 -59 4 -15
-3 -24 -36 -43 -28 -16 -49 -38 -65 -70 l-24 -47 52 -88 c74 -127 127 -203
140 -203 7 0 22 12 34 27 20 26 22 26 46 11 23 -15 25 -15 40 12 14 25 14 29
1 43 -23 22 -7 39 30 32 30 -6 35 -2 80 60 34 48 47 75 47 100 0 36 -4 38 -70
50 -29 5 -42 16 -72 63 -20 31 -41 76 -47 98 -11 39 -13 42 -57 48 -87 12 -92
10 -99 -34z"/>
</g>
</svg>
