<?xml version="1.0" standalone="no"?>
<!DOCTYPE svg PUBLIC "-//W3C//DTD SVG 20010904//EN"
 "http://www.w3.org/TR/2001/REC-SVG-20010904/DTD/svg10.dtd">
<svg version="1.0" xmlns="http://www.w3.org/2000/svg"
 width="74.000000pt" height="82.000000pt" viewBox="0 0 74.000000 82.000000"
 preserveAspectRatio="xMidYMid meet">
<metadata>
Created by potrace 1.14, written by Peter Selinger 2001-2017
</metadata>
<g transform="translate(0.000000,82.000000) scale(0.100000,-0.100000)"
fill="#000000" stroke="none">
<path fill="#000000" stroke="none" d="M128 768 l-118 -51 0 -127 c0 -114 3
-134 29 -205 l28 -78 -33 -71 -34 -71 88 -82 87 -82 283 -1 282 0 0 54 c0 35
-5 60 -15 69 -8 9 -68 43 -134 76 l-119 61 -7 136 -7 137 -53 113 c-48 103
-58 116 -101 144 -26 16 -50 30 -53 29 -4 0 -59 -23 -123 -51z"/>
</g>
</svg>
