<?xml version="1.0" standalone="no"?>
<!DOCTYPE svg PUBLIC "-//W3C//DTD SVG 20010904//EN"
 "http://www.w3.org/TR/2001/REC-SVG-20010904/DTD/svg10.dtd">
<svg version="1.0" xmlns="http://www.w3.org/2000/svg"
 width="19.000000pt" height="20.000000pt" viewBox="0 0 19.000000 20.000000"
 preserveAspectRatio="xMidYMid meet">
<metadata>
Created by potrace 1.14, written by Peter Selinger 2001-2017
</metadata>
<g transform="translate(0.000000,20.000000) scale(0.100000,-0.100000)"
fill="#000000" stroke="none">
<path fill="#000000" stroke="none" d="M60 190 c-13 -8 -17 -76 -5 -88 3 -3
-8 -11 -25 -18 -33 -14 -35 -20 -20 -58 10 -28 45 -35 81 -15 15 7 29 7 52 0
17 -6 35 -7 39 -3 13 13 -11 59 -39 78 -21 13 -24 21 -19 49 6 30 4 36 -22 49
-17 9 -34 11 -42 6z"/>
</g>
</svg>
