<?xml version="1.0" standalone="no"?>
<!DOCTYPE svg PUBLIC "-//W3C//DTD SVG 20010904//EN"
 "http://www.w3.org/TR/2001/REC-SVG-20010904/DTD/svg10.dtd">
<svg version="1.0" xmlns="http://www.w3.org/2000/svg"
 width="357.000000pt" height="408.000000pt" viewBox="0 0 357.000000 408.000000"
 preserveAspectRatio="xMidYMid meet">
<metadata>
Created by potrace 1.14, written by Peter Selinger 2001-2017
</metadata>
<g transform="translate(0.000000,408.000000) scale(0.100000,-0.100000)"
fill="#000000" stroke="none">
<path fill="#000000" stroke="none" d="M2045 4071 c-22 -4 -82 -24 -133 -46
-84 -34 -98 -44 -138 -95 -24 -31 -82 -89 -128 -128 l-83 -72 -12 -103 c-9
-77 -22 -131 -55 -217 -30 -80 -53 -167 -75 -285 l-31 -170 35 -175 c20 -96
39 -205 44 -243 l7 -67 -30 -9 c-211 -59 -754 -226 -763 -235 -6 -6 -159 -321
-338 -701 -180 -379 -331 -698 -336 -707 -7 -14 20 -37 160 -135 l169 -118 3
-257 c2 -141 8 -260 12 -265 13 -12 3200 -41 3209 -28 4 5 8 134 8 286 0 276
0 277 -36 460 -19 101 -60 279 -90 395 l-54 211 0 172 c0 152 -3 184 -27 279
-23 96 -33 117 -92 203 l-65 95 -140 85 c-147 88 -267 182 -375 292 l-64 65
43 51 c23 28 91 138 150 246 l107 196 -30 142 c-16 78 -55 248 -86 377 l-56
236 -121 112 -122 112 -116 25 c-117 25 -257 32 -351 16z"/>
</g>
</svg>
