<?xml version="1.0" standalone="no"?>
<!DOCTYPE svg PUBLIC "-//W3C//DTD SVG 20010904//EN"
 "http://www.w3.org/TR/2001/REC-SVG-20010904/DTD/svg10.dtd">
<svg version="1.0" xmlns="http://www.w3.org/2000/svg"
 width="266.000000pt" height="299.000000pt" viewBox="0 0 266.000000 299.000000"
 preserveAspectRatio="xMidYMid meet">
<metadata>
Created by potrace 1.14, written by Peter Selinger 2001-2017
</metadata>
<g transform="translate(0.000000,299.000000) scale(0.100000,-0.100000)"
fill="#000000" stroke="none">
<path fill="#000000" stroke="none" d="M1923 2944 c-35 -25 -65 -55 -68 -67
-49 -207 -85 -419 -85 -497 l0 -90 -77 -1 c-43 0 -110 -3 -148 -7 l-71 -7
-169 -125 c-132 -97 -213 -167 -364 -315 -239 -235 -450 -463 -571 -617 -50
-65 -94 -118 -96 -118 -3 0 -30 13 -62 28 -32 16 -68 26 -82 24 -24 -4 -24 -4
10 -32 l34 -28 -28 -43 c-16 -24 -55 -76 -87 -117 -33 -40 -59 -75 -59 -78 0
-3 10 -22 21 -42 15 -25 44 -51 88 -76 l65 -39 75 27 c87 31 83 33 107 -70
l17 -72 45 -6 c25 -3 57 -6 72 -6 36 0 252 -149 268 -185 11 -24 10 -30 -15
-59 -24 -27 -83 -53 -386 -172 l-357 -139 380 -8 380 -9 62 46 c39 29 67 59
78 84 15 34 24 40 79 57 52 15 75 31 146 97 l84 79 108 -15 c79 -10 123 -12
163 -5 48 9 241 11 512 6 99 -2 102 0 136 89 11 28 34 85 52 127 l32 76 145 3
146 3 43 104 44 104 -5 116 c-3 64 -10 145 -16 181 -11 65 -11 66 21 119 30
48 35 68 50 195 l17 141 -45 87 c-67 130 -164 247 -263 319 -46 33 -90 66 -97
73 -21 21 -17 126 7 182 17 39 31 55 64 72 82 43 102 59 122 95 l20 36 -23 24
c-21 22 -22 31 -22 189 l0 166 -124 71 -123 71 -94 0 -94 -1 -62 -45z"/>
</g>
</svg>
