<?xml version="1.0" standalone="no"?>
<!DOCTYPE svg PUBLIC "-//W3C//DTD SVG 20010904//EN"
 "http://www.w3.org/TR/2001/REC-SVG-20010904/DTD/svg10.dtd">
<svg version="1.0" xmlns="http://www.w3.org/2000/svg"
 width="30.000000pt" height="34.000000pt" viewBox="0 0 30.000000 34.000000"
 preserveAspectRatio="xMidYMid meet">
<metadata>
Created by potrace 1.14, written by Peter Selinger 2001-2017
</metadata>
<g transform="translate(0.000000,34.000000) scale(0.100000,-0.100000)"
fill="#000000" stroke="none">
<path fill="#000000" stroke="none" d="M76 321 c-10 -11 -20 -39 -23 -63 -2
-24 -16 -77 -30 -119 -24 -72 -25 -77 -9 -105 13 -22 16 -25 15 -9 -3 38 1 46
27 55 37 15 122 -23 126 -56 l3 -22 55 23 c70 30 76 54 26 116 -19 24 -47 69
-61 99 -46 96 -90 124 -129 81z"/>
</g>
</svg>
