<?xml version="1.0" standalone="no"?>
<!DOCTYPE svg PUBLIC "-//W3C//DTD SVG 20010904//EN"
 "http://www.w3.org/TR/2001/REC-SVG-20010904/DTD/svg10.dtd">
<svg version="1.0" xmlns="http://www.w3.org/2000/svg"
 width="324.000000pt" height="366.000000pt" viewBox="0 0 324.000000 366.000000"
 preserveAspectRatio="xMidYMid meet">
<metadata>
Created by potrace 1.14, written by Peter Selinger 2001-2017
</metadata>
<g transform="translate(0.000000,366.000000) scale(0.100000,-0.100000)"
fill="#000000" stroke="none">
<path fill="#000000" stroke="none" d="M1097 3625 c-167 -32 -169 -33 -206
-71 -116 -120 -489 -532 -499 -551 -7 -12 -59 -156 -118 -320 l-106 -298 -84
-423 -84 -423 79 -222 c68 -192 83 -247 112 -409 l33 -188 -48 -316 c-27 -173
-45 -318 -42 -322 6 -5 2753 -79 3024 -81 l82 -1 0 159 c0 156 -1 165 -47 353
l-46 193 14 360 15 360 -44 325 c-24 179 -45 325 -46 326 -2 2 -389 305 -405
318 -9 7 -86 13 -199 16 l-185 5 -29 36 c-23 29 -49 105 -133 395 l-103 359
-103 190 c-56 105 -103 191 -105 193 -3 5 -524 72 -544 71 -8 -1 -91 -16 -183
-34z"/>
<path fill="#ffffff" stroke="none" d="M1790 2250 c322 -19 520 -38 540 -50 7
-4 4 -22 -8 -51 -18 -42 -52 -176 -52 -205 0 -10 14 -14 48 -15 83 -1 88 -9
34 -55 -42 -36 -55 -58 -106 -180 -33 -77 -62 -142 -66 -147 -3 -4 -173 -4
-376 -1 l-370 7 -33 271 -33 271 42 88 c24 48 45 87 49 87 3 0 152 -9 331 -20z"/>
</g>
</svg>
