<?xml version="1.0" standalone="no"?>
<!DOCTYPE svg PUBLIC "-//W3C//DTD SVG 20010904//EN"
 "http://www.w3.org/TR/2001/REC-SVG-20010904/DTD/svg10.dtd">
<svg version="1.0" xmlns="http://www.w3.org/2000/svg"
 width="248.000000pt" height="268.000000pt" viewBox="0 0 248.000000 268.000000"
 preserveAspectRatio="xMidYMid meet">
<metadata>
Created by potrace 1.14, written by Peter Selinger 2001-2017
</metadata>
<g transform="translate(0.000000,268.000000) scale(0.100000,-0.100000)"
fill="#000000" stroke="none">
<path fill="#000000" stroke="none" d="M417 2670 l-337 -5 80 -80 c112 -110
117 -118 130 -215 6 -47 20 -132 32 -190 l21 -106 -37 -56 c-21 -31 -77 -89
-129 -133 l-91 -76 -44 -117 -43 -117 16 -55 c9 -30 37 -114 62 -185 l46 -130
62 -43 c34 -23 76 -47 93 -53 18 -6 32 -15 32 -21 0 -6 -18 -76 -39 -157 -22
-80 -51 -213 -65 -296 -24 -140 -25 -161 -16 -310 11 -184 33 -279 69 -303 28
-19 87 -17 119 4 21 14 62 11 62 -4 0 -4 39 -4 87 0 49 4 252 9 453 13 l365 6
289 51 c159 28 303 56 320 63 17 7 49 37 71 67 29 37 63 65 115 95 l74 42 63
123 62 123 0 163 c1 160 1 163 31 222 67 132 110 258 110 320 0 58 -1 61 -64
139 -112 138 -183 253 -202 322 l-17 64 76 245 76 245 -6 178 -6 177 -791 -2
c-435 -2 -943 -5 -1129 -8z"/>
</g>
</svg>
