<?xml version="1.0" standalone="no"?>
<!DOCTYPE svg PUBLIC "-//W3C//DTD SVG 20010904//EN"
 "http://www.w3.org/TR/2001/REC-SVG-20010904/DTD/svg10.dtd">
<svg version="1.0" xmlns="http://www.w3.org/2000/svg"
 width="30.000000pt" height="35.000000pt" viewBox="0 0 30.000000 35.000000"
 preserveAspectRatio="xMidYMid meet">
<metadata>
Created by potrace 1.14, written by Peter Selinger 2001-2017
</metadata>
<g transform="translate(0.000000,35.000000) scale(0.100000,-0.100000)"
fill="#000000" stroke="none">
<path fill="#000000" stroke="none" d="M185 293 c-26 -32 -52 -69 -57 -83 -41
-103 -51 -118 -89 -136 -42 -18 -42 -18 -33 -51 6 -22 34 -33 34 -13 0 5 19
23 42 40 23 17 51 46 63 65 26 44 45 31 45 -31 0 -52 8 -74 26 -74 9 0 13 16
12 58 0 31 4 77 9 102 l9 45 20 -39 c12 -21 24 -34 27 -29 4 6 -3 28 -14 49
-14 27 -18 50 -14 74 11 72 11 75 -11 78 -15 2 -34 -13 -69 -55z"/>
</g>
</svg>
