<?xml version="1.0" standalone="no"?>
<!DOCTYPE svg PUBLIC "-//W3C//DTD SVG 20010904//EN"
 "http://www.w3.org/TR/2001/REC-SVG-20010904/DTD/svg10.dtd">
<svg version="1.0" xmlns="http://www.w3.org/2000/svg"
 width="43.000000pt" height="46.000000pt" viewBox="0 0 43.000000 46.000000"
 preserveAspectRatio="xMidYMid meet">
<metadata>
Created by potrace 1.14, written by Peter Selinger 2001-2017
</metadata>
<g transform="translate(0.000000,46.000000) scale(0.100000,-0.100000)"
fill="#000000" stroke="none">
<path fill="#000000" stroke="none" d="M60 453 c-38 -8 -49 -32 -49 -108 0
-38 -1 -79 -2 -90 -1 -11 4 -41 12 -67 11 -39 11 -51 0 -71 -15 -28 -7 -49 34
-87 26 -25 29 -25 201 -25 169 0 174 1 168 20 -12 43 -53 125 -62 125 -5 0
-29 17 -53 39 -24 21 -54 41 -65 45 -19 6 -22 18 -30 99 -9 87 -11 93 -37 105
-33 16 -82 22 -117 15z"/>
</g>
</svg>
