<?xml version="1.0" standalone="no"?>
<!DOCTYPE svg PUBLIC "-//W3C//DTD SVG 20010904//EN"
 "http://www.w3.org/TR/2001/REC-SVG-20010904/DTD/svg10.dtd">
<svg version="1.0" xmlns="http://www.w3.org/2000/svg"
 width="385.000000pt" height="416.000000pt" viewBox="0 0 385.000000 416.000000"
 preserveAspectRatio="xMidYMid meet">
<metadata>
Created by potrace 1.14, written by Peter Selinger 2001-2017
</metadata>
<g transform="translate(0.000000,416.000000) scale(0.100000,-0.100000)"
fill="#000000" stroke="none">
<path fill="#000000" stroke="none" d="M273 4127 c-95 -17 -170 -33 -168 -35
4 -5 366 25 430 35 l40 6 -50 13 c-61 17 -44 18 -252 -19z"/>
<path fill="#000000" stroke="none" d="M48 4083 c7 -3 16 -2 19 1 4 3 -2 6
-13 5 -11 0 -14 -3 -6 -6z"/>
<path fill="#000000" stroke="none" d="M0 2077 l0 -2003 113 -37 113 -37 1735
0 c1698 0 1734 0 1746 19 9 14 29 21 78 26 36 4 65 12 65 17 0 5 -19 54 -41
109 l-41 99 -52 0 c-28 0 -67 4 -86 9 -76 17 -622 471 -961 797 l-137 131
-108 43 c-82 32 -172 55 -366 94 -141 29 -263 58 -272 65 -9 8 -16 28 -16 47
0 19 -3 34 -7 34 -5 0 -6 22 -5 49 2 27 -1 57 -6 67 -7 12 -3 36 13 83 24 70
50 312 39 367 -4 24 5 46 51 119 63 100 65 112 30 228 -13 46 -31 73 -85 132
-41 44 -84 103 -106 146 -35 71 -36 73 -24 132 7 38 9 92 5 146 -7 79 -14 101
-86 261 -72 162 -80 185 -98 303 l-20 127 -97 109 -96 108 -127 57 c-86 38
-185 72 -316 107 l-190 50 -290 -11 c-160 -6 -303 -13 -319 -15 -24 -4 -27 -3
-16 10 10 12 10 15 -4 15 -15 0 -16 -162 -16 -2003z"/>
</g>
</svg>
