<?xml version="1.0" standalone="no"?>
<!DOCTYPE svg PUBLIC "-//W3C//DTD SVG 20010904//EN"
 "http://www.w3.org/TR/2001/REC-SVG-20010904/DTD/svg10.dtd">
<svg version="1.0" xmlns="http://www.w3.org/2000/svg"
 width="240.000000pt" height="263.000000pt" viewBox="0 0 240.000000 263.000000"
 preserveAspectRatio="xMidYMid meet">
<metadata>
Created by potrace 1.14, written by Peter Selinger 2001-2017
</metadata>
<g transform="translate(0.000000,263.000000) scale(0.100000,-0.100000)"
fill="#000000" stroke="none">
<path fill="#000000" stroke="none" d="M1097 2582 l-108 -47 -118 -131 -117
-131 -75 -217 -74 -217 -148 -136 c-90 -82 -164 -160 -189 -197 -22 -33 -46
-65 -53 -71 -13 -11 -126 -333 -131 -371 -3 -30 -23 -93 -40 -124 -47 -87 -46
-76 -23 -489 12 -212 25 -388 30 -391 14 -9 719 -39 1169 -50 375 -10 447 -9
754 10 187 11 349 20 360 20 17 0 26 13 42 59 l22 58 -62 94 c-33 52 -87 144
-120 206 -32 62 -65 114 -75 117 -120 35 -234 59 -366 76 -87 11 -160 22 -160
23 -1 1 -47 55 -103 119 -56 65 -108 130 -115 145 -33 68 -169 465 -161 472 5
4 68 27 141 50 l132 42 10 37 c5 20 27 107 49 192 54 208 60 279 32 345 -12
28 -40 114 -61 192 l-38 141 -56 53 c-30 28 -55 57 -55 63 -1 13 -153 106
-172 105 -7 0 -62 -22 -121 -47z"/>
</g>
</svg>
