<?xml version="1.0" standalone="no"?>
<!DOCTYPE svg PUBLIC "-//W3C//DTD SVG 20010904//EN"
 "http://www.w3.org/TR/2001/REC-SVG-20010904/DTD/svg10.dtd">
<svg version="1.0" xmlns="http://www.w3.org/2000/svg"
 width="68.000000pt" height="76.000000pt" viewBox="0 0 68.000000 76.000000"
 preserveAspectRatio="xMidYMid meet">
<metadata>
Created by potrace 1.14, written by Peter Selinger 2001-2017
</metadata>
<g transform="translate(0.000000,76.000000) scale(0.100000,-0.100000)"
fill="#000000" stroke="none">
<path fill="#000000" stroke="none" d="M207 742 c-10 -10 -17 -28 -17 -40 0
-27 -21 -28 -45 -2 -24 26 -86 27 -108 2 -33 -37 -22 -66 47 -121 35 -28 68
-51 73 -51 26 0 43 -39 43 -98 0 -57 -2 -62 -22 -62 -11 0 -36 -11 -55 -26
-37 -28 -44 -66 -18 -100 21 -28 19 -30 -23 -26 -51 5 -68 -17 -77 -99 -7 -65
-7 -66 25 -92 24 -21 42 -27 77 -27 56 0 93 25 118 79 13 31 24 41 41 41 36 0
54 36 54 108 0 41 6 71 16 88 15 22 15 30 4 64 -8 25 -11 61 -7 100 7 59 6 61
-29 100 -20 22 -44 40 -54 40 -10 0 -22 6 -28 13 -8 9 5 11 61 9 106 -5 116
-17 109 -133 -5 -99 4 -122 56 -132 15 -3 45 -22 66 -41 49 -46 106 -51 132
-10 22 33 9 74 -28 92 -15 7 -37 26 -48 42 -12 17 -28 30 -36 30 -15 0 -17 31
-5 84 5 26 7 28 20 13 9 -11 29 -17 57 -17 35 0 47 5 59 24 18 27 13 85 -11
124 -17 26 -68 30 -94 7 -16 -14 -19 -13 -34 10 -16 25 -17 25 -160 25 -126 0
-145 -2 -159 -18z"/>
<path fill="#000000" stroke="none" d="M650 756 c0 -2 7 -9 15 -16 12 -10 15
-10 15 4 0 9 -7 16 -15 16 -8 0 -15 -2 -15 -4z"/>
<path fill="#000000" stroke="none" d="M406 171 c-10 -11 -16 -31 -14 -48 3
-24 8 -28 38 -31 19 -2 40 -8 47 -13 8 -7 16 -3 27 13 20 28 20 48 0 76 -20
28 -74 30 -98 3z"/>
<path fill="#000000" stroke="none" d="M533 33 c-7 -2 -13 -11 -13 -19 0 -11
18 -14 80 -14 79 0 91 5 68 28 -12 12 -110 16 -135 5z"/>
</g>
</svg>
