<?xml version="1.0" standalone="no"?>
<!DOCTYPE svg PUBLIC "-//W3C//DTD SVG 20010904//EN"
 "http://www.w3.org/TR/2001/REC-SVG-20010904/DTD/svg10.dtd">
<svg version="1.0" xmlns="http://www.w3.org/2000/svg"
 width="26.000000pt" height="29.000000pt" viewBox="0 0 26.000000 29.000000"
 preserveAspectRatio="xMidYMid meet">
<metadata>
Created by potrace 1.14, written by Peter Selinger 2001-2017
</metadata>
<g transform="translate(0.000000,29.000000) scale(0.100000,-0.100000)"
fill="#000000" stroke="none">
<path fill="#000000" stroke="none" d="M74 280 c-34 -13 -54 -53 -47 -94 4
-24 0 -43 -10 -60 -16 -24 -16 -25 31 -40 26 -9 69 -32 96 -51 51 -36 84 -43
104 -23 18 18 15 56 -7 63 -10 3 -26 14 -36 25 -10 11 -26 20 -37 20 -14 0
-18 8 -18 34 0 19 5 36 11 38 16 5 -15 74 -39 87 -23 12 -20 12 -48 1z"/>
</g>
</svg>
