<?xml version="1.0" standalone="no"?>
<!DOCTYPE svg PUBLIC "-//W3C//DTD SVG 20010904//EN"
 "http://www.w3.org/TR/2001/REC-SVG-20010904/DTD/svg10.dtd">
<svg version="1.0" xmlns="http://www.w3.org/2000/svg"
 width="232.000000pt" height="271.000000pt" viewBox="0 0 232.000000 271.000000"
 preserveAspectRatio="xMidYMid meet">
<metadata>
Created by potrace 1.14, written by Peter Selinger 2001-2017
</metadata>
<g transform="translate(0.000000,271.000000) scale(0.100000,-0.100000)"
fill="#000000" stroke="none">
<path fill="#000000" stroke="none" d="M1217 2669 c-26 -22 -65 -71 -87 -107
-35 -61 -42 -82 -65 -222 -15 -96 -25 -194 -25 -260 l0 -105 36 -20 c34 -18
94 -91 94 -115 0 -6 -46 -107 -103 -223 -57 -117 -102 -218 -99 -225 10 -30
-10 -5 -59 77 l-54 90 -95 45 c-128 62 -160 62 -229 0 -45 -40 -51 -51 -51
-84 0 -37 3 -40 59 -70 45 -24 61 -39 67 -62 l9 -31 76 2 c73 2 238 -29 265
-51 17 -13 35 -90 48 -210 l12 -106 -61 -6 c-33 -3 -178 -11 -323 -17 -324
-15 -360 -10 -401 58 -14 24 -31 43 -37 43 -22 0 -96 -30 -125 -51 -32 -22
-29 -35 8 -41 22 -3 22 -5 -18 -72 -33 -55 -39 -70 -28 -78 13 -8 87 -5 194 8
l40 5 -40 -22 c-59 -32 -114 -78 -129 -108 -8 -14 -17 -49 -21 -76 -10 -65
-22 -95 -37 -95 -43 -1 -39 -18 25 -119 62 -96 65 -106 72 -180 4 -43 10 -83
14 -89 5 -8 31 8 77 47 l70 59 79 -18 c44 -11 90 -19 101 -20 12 0 27 -6 33
-13 8 -11 3 -18 -24 -33 -19 -10 -35 -21 -35 -25 0 -3 -21 -14 -47 -24 -27
-10 -87 -39 -136 -65 l-87 -47 267 -6 c222 -5 301 -3 458 13 105 10 206 23
225 29 19 5 64 13 100 16 36 4 173 32 305 62 132 30 285 61 340 69 147 21 155
25 221 109 65 83 106 193 85 227 -16 26 -13 96 9 248 12 83 20 189 20 275 0
134 3 150 53 360 51 213 52 222 42 294 l-10 75 -75 53 c-91 65 -211 132 -313
175 -89 37 -87 31 -87 234 0 145 -19 222 -79 328 -28 48 -37 55 -98 79 -49 19
-101 29 -188 37 -66 6 -136 13 -155 15 -30 5 -42 0 -83 -36z"/>
</g>
</svg>
