<?xml version="1.0" standalone="no"?>
<!DOCTYPE svg PUBLIC "-//W3C//DTD SVG 20010904//EN"
 "http://www.w3.org/TR/2001/REC-SVG-20010904/DTD/svg10.dtd">
<svg version="1.0" xmlns="http://www.w3.org/2000/svg"
 width="259.000000pt" height="285.000000pt" viewBox="0 0 259.000000 285.000000"
 preserveAspectRatio="xMidYMid meet">
<metadata>
Created by potrace 1.14, written by Peter Selinger 2001-2017
</metadata>
<g transform="translate(0.000000,285.000000) scale(0.100000,-0.100000)"
fill="#000000" stroke="none">
<path fill="#000000" stroke="none" d="M1431 2790 c-84 -33 -154 -60 -156 -62
-1 -2 -24 -176 -51 -388 l-50 -384 -119 -42 c-80 -28 -179 -75 -295 -139 -96
-54 -227 -124 -290 -156 -63 -32 -173 -98 -245 -148 l-130 -90 -8 28 -7 29
-40 -15 c-22 -9 -40 -19 -39 -22 0 -3 29 -31 63 -61 33 -30 129 -133 211 -229
83 -95 184 -210 226 -255 115 -122 228 -304 299 -482 l60 -148 0 -113 0 -113
46 0 c25 0 55 5 66 11 15 8 19 8 14 0 -5 -8 207 -11 771 -10 487 1 741 5 679
10 -55 4 -105 10 -113 13 -24 9 -15 95 18 180 17 44 39 127 49 185 10 58 27
131 38 161 12 30 28 107 37 170 24 178 19 165 75 179 28 7 50 15 50 18 0 2
-16 24 -35 47 -33 41 -36 50 -70 256 -19 117 -35 244 -35 282 l0 69 -71 82
-71 83 -204 53 c-241 64 -224 39 -164 247 l40 139 0 199 0 199 -61 96 c-34 53
-63 97 -64 99 -4 4 -259 82 -265 81 -3 -1 -74 -27 -159 -59z"/>
<path fill="#ffffff" stroke="none" d="M1743 1503 c-16 -3 -23 -13 -26 -36 -4
-31 -4 -31 -5 6 -2 34 0 37 26 36 22 -1 23 -2 5 -6z"/>
<path fill="#ffffff" stroke="none" d="M1821 1483 c13 -16 12 -17 -3 -4 -10 7
-18 15 -18 17 0 8 8 3 21 -13z"/>
<path fill="#ffffff" stroke="none" d="M1635 1163 c-49 -47 -103 -94 -118
-105 -26 -19 -28 -19 -16 -2 18 28 213 203 219 197 3 -3 -35 -43 -85 -90z"/>
<path fill="#ffffff" stroke="none" d="M1407 878 c-3 -8 -6 -5 -6 6 -1 11 2
17 5 13 3 -3 4 -12 1 -19z"/>
<path fill="#ffffff" stroke="none" d="M1420 749 c0 -5 -4 -9 -10 -9 -5 0 -10
7 -10 16 0 8 5 12 10 9 6 -3 10 -10 10 -16z"/>
<path fill="#ffffff" stroke="none" d="M1537 658 c-3 -8 -6 -5 -6 6 -1 11 2
17 5 13 3 -3 4 -12 1 -19z"/>
<path fill="#ffffff" stroke="none" d="M1547 578 c-3 -8 -6 -5 -6 6 -1 11 2
17 5 13 3 -3 4 -12 1 -19z"/>
<path fill="#ffffff" stroke="none" d="M1550 256 c0 -2 -21 -20 -47 -39 -42
-30 -123 -58 -166 -57 -8 1 169 84 211 99 1 1 2 -1 2 -3z"/>
</g>
</svg>
