<?xml version="1.0" standalone="no"?>
<!DOCTYPE svg PUBLIC "-//W3C//DTD SVG 20010904//EN"
 "http://www.w3.org/TR/2001/REC-SVG-20010904/DTD/svg10.dtd">
<svg version="1.0" xmlns="http://www.w3.org/2000/svg"
 width="69.000000pt" height="79.000000pt" viewBox="0 0 69.000000 79.000000"
 preserveAspectRatio="xMidYMid meet">
<metadata>
Created by potrace 1.14, written by Peter Selinger 2001-2017
</metadata>
<g transform="translate(0.000000,79.000000) scale(0.100000,-0.100000)"
fill="#000000" stroke="none">
<path fill="#000000" stroke="none" d="M203 778 c-18 -9 -23 -20 -23 -52 0
-50 -7 -60 -45 -73 -36 -11 -85 -80 -112 -156 -15 -43 -18 -74 -15 -174 l4
-122 56 -36 c40 -25 64 -34 82 -30 14 3 40 1 59 -5 29 -8 38 -6 63 15 16 14
37 25 46 25 26 0 99 -76 112 -115 8 -24 18 -35 31 -35 10 0 19 -4 19 -8 0 -22
112 -2 173 31 52 29 48 47 -8 47 -52 0 -95 32 -95 72 0 13 -24 52 -53 88 l-53
65 -90 0 -89 0 3 25 c8 77 19 85 61 46 23 -21 33 -23 78 -19 83 9 81 53 -3 74
-40 10 -46 17 -74 72 -17 33 -37 69 -46 78 -13 14 -14 26 -6 62 11 55 5 108
-16 125 -19 14 -29 14 -59 0z"/>
</g>
</svg>
