<?xml version="1.0" standalone="no"?>
<!DOCTYPE svg PUBLIC "-//W3C//DTD SVG 20010904//EN"
 "http://www.w3.org/TR/2001/REC-SVG-20010904/DTD/svg10.dtd">
<svg version="1.0" xmlns="http://www.w3.org/2000/svg"
 width="264.000000pt" height="278.000000pt" viewBox="0 0 264.000000 278.000000"
 preserveAspectRatio="xMidYMid meet">
<metadata>
Created by potrace 1.14, written by Peter Selinger 2001-2017
</metadata>
<g transform="translate(0.000000,278.000000) scale(0.100000,-0.100000)"
fill="#000000" stroke="none">
<path fill="#000000" stroke="none" d="M1948 2695 c-154 -78 -168 -87 -176
-117 -6 -24 -21 -41 -54 -63 -41 -26 -47 -34 -47 -66 -1 -47 -7 -51 -44 -29
-18 10 -57 26 -87 35 -60 20 -138 66 -218 132 -64 52 -78 56 -167 46 -59 -7
-92 -4 -205 19 -193 40 -302 34 -394 -20 -19 -11 -103 -41 -187 -67 -164 -50
-206 -69 -215 -97 -3 -9 -37 -68 -77 -130 l-72 -113 8 -55 c5 -37 15 -63 32
-80 14 -14 25 -32 25 -39 0 -27 93 -171 125 -192 18 -12 40 -35 50 -50 11 -16
35 -32 59 -39 23 -7 57 -26 76 -44 19 -17 71 -55 115 -85 44 -29 93 -68 108
-87 l29 -34 -31 6 c-17 4 -31 4 -31 2 0 -3 16 -23 36 -44 20 -22 66 -82 102
-134 36 -52 83 -112 105 -132 l39 -37 -36 -31 c-41 -37 -47 -77 -18 -121 17
-27 107 -121 199 -211 70 -67 154 -117 210 -125 27 -3 100 -27 164 -54 119
-49 145 -52 181 -21 10 8 47 18 83 21 36 4 69 11 74 17 5 5 25 49 45 98 41
104 59 126 98 126 l28 0 -27 -52 c-24 -47 -27 -66 -31 -180 l-4 -126 29 -44
c17 -23 40 -62 52 -85 11 -23 31 -48 43 -54 12 -7 66 -56 119 -110 103 -105
170 -147 269 -168 30 -7 78 -21 105 -31 68 -25 107 -31 160 -23 l45 6 0 1326
0 1327 -27 26 c-16 15 -64 37 -113 53 -72 23 -107 28 -235 31 l-150 4 -167
-85z"/>
</g>
</svg>
