<?xml version="1.0" standalone="no"?>
<!DOCTYPE svg PUBLIC "-//W3C//DTD SVG 20010904//EN"
 "http://www.w3.org/TR/2001/REC-SVG-20010904/DTD/svg10.dtd">
<svg version="1.0" xmlns="http://www.w3.org/2000/svg"
 width="94.000000pt" height="107.000000pt" viewBox="0 0 94.000000 107.000000"
 preserveAspectRatio="xMidYMid meet">
<metadata>
Created by potrace 1.14, written by Peter Selinger 2001-2017
</metadata>
<g transform="translate(0.000000,107.000000) scale(0.100000,-0.100000)"
fill="#000000" stroke="none">
<path fill="#000000" stroke="none" d="M106 1040 c-55 -38 -105 -108 -106
-147 0 -25 8 -38 39 -62 36 -29 43 -30 120 -29 45 0 84 5 87 9 3 5 16 9 30 9
13 0 33 5 44 10 11 6 29 15 40 20 16 8 20 7 20 -8 0 -11 9 -27 20 -37 15 -14
17 -21 9 -31 -7 -9 -9 -39 -5 -86 4 -40 6 -90 6 -112 -1 -67 18 -77 132 -75
62 1 103 -3 112 -10 7 -6 37 -17 65 -24 50 -11 51 -13 51 -49 0 -20 -3 -44 -6
-53 -6 -14 -8 -13 -21 5 -12 17 -25 20 -98 20 -77 0 -85 -2 -103 -25 -16 -21
-28 -25 -69 -25 -79 0 -87 -15 -92 -172 -3 -112 -1 -132 15 -149 20 -22 87
-26 144 -8 19 6 91 14 160 18 l124 6 33 43 c30 40 32 47 31 120 0 42 5 142 11
220 11 127 10 146 -4 168 -17 26 -69 33 -106 13 -11 -5 -29 -7 -39 -4 -19 6
-19 7 1 35 14 18 20 38 17 54 -4 20 -1 26 13 26 10 0 20 4 23 8 3 5 27 7 54 4
43 -3 52 -1 66 19 21 31 20 61 -3 90 -17 22 -17 27 -5 44 18 25 18 55 -2 83
-20 29 -70 29 -101 0 l-23 -21 0 29 c0 45 -25 74 -64 74 -40 0 -66 -26 -66
-65 0 -27 -1 -27 -18 -12 -39 35 -112 10 -112 -37 0 -14 -5 -17 -22 -12 -13 3
-39 6 -60 6 -29 0 -35 3 -32 18 3 9 -6 42 -20 73 l-25 57 -113 -1 c-105 -1
-116 -3 -152 -27z"/>
<path fill="#ffffff" stroke="none" d="M690 829 c0 -49 -4 -89 -8 -89 -5 0 -9
15 -9 33 -1 17 -3 62 -5 99 -2 52 0 64 10 56 8 -7 12 -40 12 -99z"/>
<path fill="#ffffff" stroke="none" d="M542 760 c6 -43 -5 -45 -18 -4 -9 26
-8 34 1 34 7 0 15 -14 17 -30z"/>
<path fill="#ffffff" stroke="none" d="M630 165 c0 -8 -7 -15 -16 -15 -14 0
-14 3 -4 15 7 8 14 15 16 15 2 0 4 -7 4 -15z"/>
<path fill="#ffffff" stroke="none" d="M555 147 c13 -3 9 -5 -12 -6 -24 -1
-33 3 -33 15 0 12 3 14 13 6 6 -5 21 -12 32 -15z"/>
</g>
</svg>
