<?xml version="1.0" standalone="no"?>
<!DOCTYPE svg PUBLIC "-//W3C//DTD SVG 20010904//EN"
 "http://www.w3.org/TR/2001/REC-SVG-20010904/DTD/svg10.dtd">
<svg version="1.0" xmlns="http://www.w3.org/2000/svg"
 width="297.000000pt" height="320.000000pt" viewBox="0 0 297.000000 320.000000"
 preserveAspectRatio="xMidYMid meet">
<metadata>
Created by potrace 1.14, written by Peter Selinger 2001-2017
</metadata>
<g transform="translate(0.000000,320.000000) scale(0.100000,-0.100000)"
fill="#000000" stroke="none">
<path fill="#000000" stroke="none" d="M1160 3165 c-36 -20 -90 -47 -121 -61
l-56 -25 -16 -102 c-25 -156 -25 -166 -6 -228 17 -55 17 -64 3 -144 -20 -106
-13 -166 22 -194 25 -19 25 -21 9 -52 -9 -17 -34 -50 -55 -73 -48 -52 -110
-176 -110 -219 0 -38 9 -34 -200 -97 l-135 -41 -108 -107 -109 -107 -90 -179
c-49 -98 -100 -195 -112 -215 -13 -20 -26 -50 -29 -66 -6 -27 -27 -346 -41
-607 l-5 -98 52 0 c28 0 75 -6 103 -14 51 -13 52 -13 132 26 60 29 82 45 84
61 2 17 11 23 40 25 50 4 52 -22 3 -45 -21 -10 -38 -27 -42 -41 -3 -13 0 -80
7 -149 13 -124 13 -125 41 -135 38 -13 38 -44 -4 -171 l-33 -97 341 0 c187 0
593 -3 902 -7 l562 -6 -6 54 c-4 37 -12 59 -26 70 -20 16 -20 17 -2 115 9 55
20 104 24 111 3 6 49 -65 101 -157 63 -112 102 -171 115 -174 11 -3 137 -8
280 -12 l260 -5 -27 23 c-14 13 -33 39 -41 59 -14 33 -13 43 3 101 10 35 21
106 25 157 6 79 13 104 41 158 33 62 44 116 25 128 -5 3 -33 10 -61 15 -67 13
-125 -13 -135 -60 -9 -39 -21 -45 -50 -26 -28 18 -51 85 -61 176 -6 61 -113
388 -254 780 -65 181 -88 207 -286 324 l-139 81 -46 93 c-27 54 -49 115 -53
144 -9 68 -29 102 -66 118 -60 25 -74 77 -45 160 21 59 19 163 -6 256 -34 133
-49 239 -38 279 8 28 6 46 -6 78 -15 41 -19 43 -123 84 -157 62 -198 73 -287
73 -73 0 -86 -3 -145 -35z"/>
</g>
</svg>
