<?xml version="1.0" standalone="no"?>
<!DOCTYPE svg PUBLIC "-//W3C//DTD SVG 20010904//EN"
 "http://www.w3.org/TR/2001/REC-SVG-20010904/DTD/svg10.dtd">
<svg version="1.0" xmlns="http://www.w3.org/2000/svg"
 width="110.000000pt" height="124.000000pt" viewBox="0 0 110.000000 124.000000"
 preserveAspectRatio="xMidYMid meet">
<metadata>
Created by potrace 1.14, written by Peter Selinger 2001-2017
</metadata>
<g transform="translate(0.000000,124.000000) scale(0.100000,-0.100000)"
fill="#000000" stroke="none">
<path fill="#000000" stroke="none" d="M547 1214 c-29 -15 -52 -35 -58 -51
-11 -31 -45 -57 -74 -59 -44 -3 -73 -23 -80 -53 -8 -39 -25 -50 -25 -17 0 31
1 31 -71 5 -56 -21 -59 -23 -59 -56 0 -23 5 -35 18 -39 36 -11 45 -21 62 -64
13 -31 23 -44 34 -42 15 3 126 -54 126 -64 0 -2 -17 -39 -38 -82 -21 -42 -49
-106 -62 -142 -21 -59 -36 -78 -156 -200 l-133 -135 -16 -73 c-19 -94 -20 -88
15 -101 l31 -10 40 82 41 82 112 67 c62 36 170 113 242 171 l130 104 92 -89
c120 -116 219 -259 251 -361 27 -84 47 -99 103 -76 26 11 28 15 28 66 0 59 -3
66 -181 393 -46 85 -81 167 -109 255 -39 126 -40 134 -32 205 5 41 6 80 1 85
-4 6 -35 24 -69 40 l-60 29 0 53 c0 54 -21 103 -44 103 -6 -1 -33 -12 -59 -26z"/>
</g>
</svg>
