<?xml version="1.0" standalone="no"?>
<!DOCTYPE svg PUBLIC "-//W3C//DTD SVG 20010904//EN"
 "http://www.w3.org/TR/2001/REC-SVG-20010904/DTD/svg10.dtd">
<svg version="1.0" xmlns="http://www.w3.org/2000/svg"
 width="65.000000pt" height="69.000000pt" viewBox="0 0 65.000000 69.000000"
 preserveAspectRatio="xMidYMid meet">
<metadata>
Created by potrace 1.14, written by Peter Selinger 2001-2017
</metadata>
<g transform="translate(0.000000,69.000000) scale(0.100000,-0.100000)"
fill="#000000" stroke="none">
<path fill="#000000" stroke="none" d="M90 593 c0 -64 8 -136 23 -208 l24
-110 -69 -40 c-38 -21 -67 -44 -66 -49 2 -6 16 -49 32 -96 l29 -85 136 2 c75
2 178 6 229 9 l92 6 40 68 41 67 -7 135 -7 135 33 62 34 62 -31 63 c-27 54
-36 64 -63 70 -18 3 -131 6 -251 6 l-219 0 0 -97z"/>
</g>
</svg>
