<?xml version="1.0" standalone="no"?>
<!DOCTYPE svg PUBLIC "-//W3C//DTD SVG 20010904//EN"
 "http://www.w3.org/TR/2001/REC-SVG-20010904/DTD/svg10.dtd">
<svg version="1.0" xmlns="http://www.w3.org/2000/svg"
 width="436.000000pt" height="480.000000pt" viewBox="0 0 436.000000 480.000000"
 preserveAspectRatio="xMidYMid meet">
<metadata>
Created by potrace 1.14, written by Peter Selinger 2001-2017
</metadata>
<g transform="translate(0.000000,480.000000) scale(0.100000,-0.100000)"
fill="#000000" stroke="none">
<path fill="#000000" stroke="none" d="M1045 4778 c3 -13 20 -93 38 -178 l33
-155 78 -98 78 -97 54 -182 c30 -100 54 -201 54 -225 0 -23 20 -137 45 -252
49 -235 74 -294 146 -346 36 -26 53 -53 120 -193 75 -157 78 -164 63 -188 -19
-28 -22 -29 -45 -8 -26 24 -62 11 -81 -29 -10 -22 -30 -40 -55 -51 -21 -10
-48 -22 -60 -28 -27 -13 -86 -67 -99 -89 -5 -10 -88 -59 -184 -110 -96 -51
-195 -109 -220 -130 -25 -21 -58 -41 -75 -44 -16 -4 -70 -29 -120 -55 -49 -26
-126 -62 -170 -81 -134 -55 -146 -66 -227 -212 -71 -129 -124 -272 -114 -310
2 -10 -4 -44 -15 -75 -44 -125 -122 -490 -164 -767 -24 -159 -53 -322 -64
-361 -12 -43 -24 -133 -31 -230 -6 -87 -15 -172 -21 -188 -5 -16 -9 -44 -9
-62 l0 -34 2098 0 2097 0 -3 43 c-2 23 10 112 26 197 17 85 36 196 42 245 7
50 19 103 28 120 12 24 14 54 8 165 l-6 135 35 100 c25 73 35 117 35 163 l0
62 -33 0 c-40 0 -256 66 -277 85 -8 8 -26 18 -40 23 -22 8 -28 23 -49 108 -18
75 -50 154 -133 329 l-110 230 8 170 c11 211 10 375 -1 577 l-8 157 -26 5
c-14 3 -45 8 -68 11 -26 4 -50 15 -60 28 -23 28 -65 47 -103 47 -26 0 -30 4
-30 29 0 34 -22 55 -51 48 -18 -5 -20 -3 -13 16 4 12 9 84 11 160 4 124 6 137
22 137 36 0 148 117 196 205 55 100 61 141 46 297 -14 141 -33 208 -72 253
l-30 34 31 45 31 45 -26 7 c-29 7 -28 6 -14 57 7 27 7 47 -2 71 -10 28 -9 37
4 57 23 32 23 158 1 201 -15 28 -14 34 5 84 l20 54 -1275 0 -1274 0 5 -22z"/>
<path fill="#ffffff" stroke="none" d="M3008 2944 l48 -66 -51 -376 -51 -377
-54 -152 -55 -152 -115 -54 c-63 -30 -132 -60 -153 -67 -30 -9 -60 -37 -133
-123 -52 -60 -96 -120 -99 -131 -2 -12 -11 -79 -20 -150 -8 -71 -16 -130 -17
-132 -2 -1 -63 -16 -136 -33 l-133 -31 -131 18 -132 17 -75 94 -74 94 17 349
18 349 100 322 c54 177 102 325 106 328 4 4 62 43 129 87 100 67 150 92 280
142 l158 60 155 0 c131 0 169 4 245 24 50 13 98 25 107 25 11 1 37 -25 66 -65z"/>
</g>
</svg>
