<?xml version="1.0" standalone="no"?>
<!DOCTYPE svg PUBLIC "-//W3C//DTD SVG 20010904//EN"
 "http://www.w3.org/TR/2001/REC-SVG-20010904/DTD/svg10.dtd">
<svg version="1.0" xmlns="http://www.w3.org/2000/svg"
 width="522.000000pt" height="579.000000pt" viewBox="0 0 522.000000 579.000000"
 preserveAspectRatio="xMidYMid meet">
<metadata>
Created by potrace 1.14, written by Peter Selinger 2001-2017
</metadata>
<g transform="translate(0.000000,579.000000) scale(0.100000,-0.100000)"
fill="#000000" stroke="none">
<path fill="#000000" stroke="none" d="M2454 5776 l-161 -11 -197 -115 -198
-115 -196 -218 c-155 -172 -213 -245 -276 -345 l-79 -127 -39 -175 c-21 -96
-56 -272 -78 -390 -35 -185 -40 -233 -40 -355 0 -175 8 -245 27 -245 14 0 14
-3 -4 -62 -3 -13 -6 -35 -5 -50 1 -15 -11 -58 -28 -94 -16 -37 -39 -98 -51
-136 -11 -38 -27 -72 -35 -75 -15 -5 -104 -268 -104 -307 0 -12 -13 -60 -29
-107 -24 -74 -28 -95 -23 -163 l5 -79 128 7 c106 5 142 11 207 35 74 27 88 28
312 35 129 3 276 11 325 16 50 5 180 19 290 31 179 19 215 26 342 67 l142 46
25 -23 c25 -24 27 -24 118 -12 51 7 107 15 124 18 l32 5 -8 -43 c-8 -40 0 -58
195 -468 185 -389 207 -431 260 -488 31 -35 65 -63 75 -63 20 0 41 -22 65 -69
16 -32 16 -35 -1 -66 -19 -36 -18 -42 49 -216 l25 -65 -171 -34 c-95 -18 -262
-55 -372 -82 -192 -46 -215 -50 -600 -84 -334 -30 -418 -34 -506 -27 -59 4
-128 5 -155 0 -49 -7 -295 0 -1058 32 -353 14 -430 15 -565 3 l-156 -13 -32
-37 c-18 -20 -33 -41 -33 -45 0 -5 63 -96 141 -203 135 -187 150 -203 362
-403 232 -219 308 -283 393 -331 l51 -30 484 -35 c399 -28 591 -37 1089 -48
549 -11 701 -11 1647 8 573 11 1044 22 1046 25 5 5 -61 3152 -66 3155 -1 1
-58 47 -127 101 -69 55 -131 104 -138 108 -8 5 -61 14 -119 22 -59 8 -107 15
-109 16 -1 2 -51 92 -112 201 l-110 198 83 132 84 132 65 274 c36 151 66 282
66 290 0 10 -56 48 -143 97 -269 154 -588 395 -978 739 l-238 210 -128 23
c-235 41 -471 49 -789 28z"/>
</g>
</svg>
