<?xml version="1.0" standalone="no"?>
<!DOCTYPE svg PUBLIC "-//W3C//DTD SVG 20010904//EN"
 "http://www.w3.org/TR/2001/REC-SVG-20010904/DTD/svg10.dtd">
<svg version="1.0" xmlns="http://www.w3.org/2000/svg"
 width="159.000000pt" height="172.000000pt" viewBox="0 0 159.000000 172.000000"
 preserveAspectRatio="xMidYMid meet">
<metadata>
Created by potrace 1.14, written by Peter Selinger 2001-2017
</metadata>
<g transform="translate(0.000000,172.000000) scale(0.100000,-0.100000)"
fill="#000000" stroke="none">
<path fill="#000000" stroke="none" d="M222 1708 c-13 -7 -26 -24 -29 -40 -3
-15 -9 -28 -14 -28 -39 0 -54 -98 -20 -134 11 -12 21 -39 23 -61 l3 -40 -63
-30 c-47 -22 -64 -36 -68 -55 -19 -90 -30 -127 -41 -138 -8 -8 -13 -40 -13
-81 0 -71 16 -101 53 -101 15 0 17 -16 18 -127 1 -71 1 -144 0 -165 -2 -30 3
-40 27 -58 25 -19 30 -30 34 -76 3 -37 13 -65 29 -87 17 -23 24 -49 27 -95 l4
-63 101 -85 c55 -46 104 -84 109 -84 14 0 28 39 32 87 3 26 8 56 12 66 4 12
-1 27 -19 45 -31 33 -124 350 -112 379 5 10 9 20 10 23 0 3 7 22 14 43 11 32
11 43 -1 70 -11 24 -12 63 -8 162 3 72 2 151 -3 177 -9 42 -7 51 23 104 l32
58 -30 25 c-16 14 -35 44 -42 66 -7 22 -24 52 -38 67 -29 31 -29 29 15 52 46
23 77 70 63 96 -21 39 -79 51 -128 28z"/>
<path fill="#000000" stroke="none" d="M1357 1713 c-2 -5 -8 -26 -14 -48 -6
-22 -21 -74 -33 -115 -12 -41 -26 -96 -32 -121 -9 -39 -15 -47 -44 -58 -35
-13 -38 -19 -49 -101 -14 -108 -17 -203 -7 -224 19 -38 32 -114 32 -180 0 -35
7 -93 16 -128 21 -82 21 -100 -5 -135 -19 -26 -21 -40 -19 -118 l3 -89 52 -40
c33 -27 52 -49 52 -63 1 -12 10 -38 21 -58 11 -20 20 -42 20 -49 0 -8 7 -27
15 -42 8 -16 15 -47 15 -70 0 -78 75 -102 131 -41 39 43 44 66 29 148 -11 62
-10 74 7 114 10 25 24 45 31 45 15 0 18 441 2 470 -6 11 -13 47 -17 81 -5 50
-3 63 9 70 13 7 16 40 17 210 l1 201 -32 -4 c-31 -3 -33 -1 -39 37 -5 30 -2
50 13 79 22 43 19 87 -12 146 -9 19 -23 47 -29 63 -10 25 -14 27 -70 27 -33 0
-62 -3 -64 -7z"/>
<path fill="#000000" stroke="none" d="M864 1688 c-33 -16 -76 -134 -72 -199
3 -47 7 -56 34 -74 24 -16 28 -23 18 -32 -6 -7 -14 -9 -18 -6 -7 7 -66 -17
-66 -28 0 -4 -12 -21 -26 -36 -25 -26 -26 -33 -21 -96 4 -46 1 -93 -10 -138
-17 -77 -10 -99 32 -99 20 0 25 -9 40 -72 10 -40 21 -77 25 -81 3 -4 3 -34 -2
-67 -7 -57 -6 -62 37 -149 61 -122 116 -156 132 -80 8 43 23 17 23 -43 0 -41
4 -49 31 -69 17 -12 47 -47 66 -78 20 -31 37 -57 39 -59 1 -2 12 1 23 7 26 14
36 53 21 80 -6 12 -13 85 -15 164 -6 183 -7 162 1 309 7 141 -1 171 -51 184
-14 3 -22 11 -18 17 3 6 10 27 14 46 4 20 15 59 24 86 47 143 45 152 -29 205
-39 29 -44 35 -34 53 5 11 12 55 15 99 l4 78 -45 45 c-42 42 -48 45 -98 44
-29 0 -63 -5 -74 -11z"/>
</g>
</svg>
