<?xml version="1.0" standalone="no"?>
<!DOCTYPE svg PUBLIC "-//W3C//DTD SVG 20010904//EN"
 "http://www.w3.org/TR/2001/REC-SVG-20010904/DTD/svg10.dtd">
<svg version="1.0" xmlns="http://www.w3.org/2000/svg"
 width="23.000000pt" height="26.000000pt" viewBox="0 0 23.000000 26.000000"
 preserveAspectRatio="xMidYMid meet">
<metadata>
Created by potrace 1.14, written by Peter Selinger 2001-2017
</metadata>
<g transform="translate(0.000000,26.000000) scale(0.100000,-0.100000)"
fill="#000000" stroke="none">
<path fill="#000000" stroke="none" d="M24 238 c-26 -28 -18 -72 21 -108 29
-27 31 -46 9 -71 -14 -15 -12 -18 19 -38 53 -33 72 -28 91 24 10 25 21 45 25
45 4 0 16 7 27 16 10 8 13 13 7 9 -24 -12 -71 27 -94 79 -13 28 -24 52 -24 53
-1 2 -15 5 -31 9 -22 4 -34 0 -50 -18z"/>
</g>
</svg>
