<?xml version="1.0" standalone="no"?>
<!DOCTYPE svg PUBLIC "-//W3C//DTD SVG 20010904//EN"
 "http://www.w3.org/TR/2001/REC-SVG-20010904/DTD/svg10.dtd">
<svg version="1.0" xmlns="http://www.w3.org/2000/svg"
 width="98.000000pt" height="115.000000pt" viewBox="0 0 98.000000 115.000000"
 preserveAspectRatio="xMidYMid meet">
<metadata>
Created by potrace 1.14, written by Peter Selinger 2001-2017
</metadata>
<g transform="translate(0.000000,115.000000) scale(0.100000,-0.100000)"
fill="#000000" stroke="none">
<path fill="#000000" stroke="none" d="M510 1122 c-25 -14 -47 -30 -48 -34 -2
-5 -9 -5 -15 -1 -7 3 -9 2 -4 -2 4 -5 -4 -20 -17 -34 -18 -20 -26 -42 -31 -92
-5 -47 -4 -69 5 -74 7 -4 -10 -18 -47 -37 -32 -16 -74 -42 -95 -58 -20 -16
-61 -40 -91 -54 -56 -24 -167 -102 -167 -116 0 -20 71 -60 107 -60 52 0 265
60 329 93 l51 26 19 -41 18 -40 -29 -26 c-85 -72 -131 -121 -167 -180 -40 -66
-108 -211 -108 -231 0 -10 130 -81 148 -81 5 0 13 17 18 37 l9 38 45 -77 c24
-43 49 -78 54 -78 6 1 37 7 70 15 40 9 66 11 83 4 14 -5 29 -7 32 -3 3 3 8 52
9 108 3 78 -1 123 -17 190 -12 49 -20 90 -19 91 2 1 52 14 112 28 71 17 114
23 121 17 7 -6 25 -6 48 1 49 13 54 39 32 144 l-17 84 -85 67 c-129 102 -166
146 -235 281 -35 68 -65 123 -68 122 -3 0 -25 -12 -50 -27z"/>
</g>
</svg>
