<?xml version="1.0" standalone="no"?>
<!DOCTYPE svg PUBLIC "-//W3C//DTD SVG 20010904//EN"
 "http://www.w3.org/TR/2001/REC-SVG-20010904/DTD/svg10.dtd">
<svg version="1.0" xmlns="http://www.w3.org/2000/svg"
 width="372.000000pt" height="421.000000pt" viewBox="0 0 372.000000 421.000000"
 preserveAspectRatio="xMidYMid meet">
<metadata>
Created by potrace 1.14, written by Peter Selinger 2001-2017
</metadata>
<g transform="translate(0.000000,421.000000) scale(0.100000,-0.100000)"
fill="#000000" stroke="none">
<path fill="#000000" stroke="none" d="M1620 4190 c-8 -17 -108 -317 -168
-508 l-38 -123 48 -312 c26 -172 47 -321 48 -333 0 -28 -152 -102 -483 -235
l-258 -104 -128 -225 c-234 -412 -222 -383 -338 -779 -57 -196 -148 -518 -203
-717 l-99 -360 19 -126 c10 -69 33 -172 51 -228 44 -132 61 -145 185 -138 l85
4 72 71 c103 102 271 196 387 217 47 9 145 32 218 51 116 31 142 42 205 86 60
42 74 57 85 92 10 34 42 259 42 304 0 6 33 39 74 72 l73 60 17 -62 c9 -34 38
-129 63 -211 l47 -148 -34 -99 -34 -99 59 -60 c47 -48 76 -67 144 -95 85 -36
123 -67 156 -128 13 -23 22 -27 62 -27 l46 0 -6 33 c-5 30 -3 34 16 30 12 -1
173 -21 357 -43 295 -35 362 -40 553 -40 167 0 217 3 217 13 0 6 -18 131 -40
277 -22 146 -40 275 -40 286 0 17 14 28 63 49 62 28 63 28 254 26 l192 -3 5
34 c4 18 34 348 67 732 l61 699 -318 318 -317 317 86 57 85 57 60 186 c33 103
68 212 77 242 16 51 16 72 2 280 l-15 225 -88 191 -89 191 -340 7 c-187 3
-542 7 -788 9 -391 2 -450 0 -457 -13z"/>
<path fill="#000000" stroke="none" d="M3342 158 c-11 -15 -72 -135 -72 -143
0 -4 10 -5 22 -3 16 2 29 22 54 81 24 54 29 77 20 77 -8 0 -18 -6 -24 -12z"/>
</g>
</svg>
