<?xml version="1.0" standalone="no"?>
<!DOCTYPE svg PUBLIC "-//W3C//DTD SVG 20010904//EN"
 "http://www.w3.org/TR/2001/REC-SVG-20010904/DTD/svg10.dtd">
<svg version="1.0" xmlns="http://www.w3.org/2000/svg"
 width="41.000000pt" height="44.000000pt" viewBox="0 0 41.000000 44.000000"
 preserveAspectRatio="xMidYMid meet">
<metadata>
Created by potrace 1.14, written by Peter Selinger 2001-2017
</metadata>
<g transform="translate(0.000000,44.000000) scale(0.100000,-0.100000)"
fill="#000000" stroke="none">
<path fill="#000000" stroke="none" d="M188 433 c-16 -2 -28 -10 -28 -16 0 -7
-23 -23 -51 -35 -33 -16 -54 -32 -60 -50 -16 -40 -5 -160 19 -215 l21 -47 -38
-25 c-39 -24 -59 -45 -44 -45 4 0 64 17 133 39 69 21 153 44 186 51 34 7 66
15 71 19 6 3 7 54 3 129 -8 143 -19 167 -90 188 -45 14 -69 15 -122 7z"/>
</g>
</svg>
