<?xml version="1.0" standalone="no"?>
<!DOCTYPE svg PUBLIC "-//W3C//DTD SVG 20010904//EN"
 "http://www.w3.org/TR/2001/REC-SVG-20010904/DTD/svg10.dtd">
<svg version="1.0" xmlns="http://www.w3.org/2000/svg"
 width="41.000000pt" height="46.000000pt" viewBox="0 0 41.000000 46.000000"
 preserveAspectRatio="xMidYMid meet">
<metadata>
Created by potrace 1.14, written by Peter Selinger 2001-2017
</metadata>
<g transform="translate(0.000000,46.000000) scale(0.100000,-0.100000)"
fill="#000000" stroke="none">
<path fill="#000000" stroke="none" d="M185 450 c-140 -28 -216 -106 -171
-174 18 -28 28 -32 108 -41 l56 -6 -38 -82 -39 -82 19 -30 c27 -43 37 -42 50
7 6 24 23 66 37 93 95 187 101 195 130 195 24 0 48 24 63 64 22 60 -43 83 -96
34 -21 -19 -22 -19 -42 6 -11 14 -24 26 -28 25 -5 -1 -27 -5 -49 -9z"/>
</g>
</svg>
